<svg id="レイヤー_1" xmlns="http://www.w3.org/2000/svg" viewBox="0 0 128 128"><g><path d="M16.446 66.241c-.214-.863-.096-1.782.301-2.672.166-.369.362-.732.624-1.083l38.728-51.748c1.457-1.947 4.162-3.204 6.889-3.204 1.178 0 2.308.24 3.259.694L109 28.528c.331.159.637.34.916.543.851.618 1.426 1.429 1.653 2.347.061.236.074.478.087.72.048 1.012-.288 2.065-1.012 3.034l-.519.692L71.917 86.92c-1.458 1.948-4.162 3.205-6.889 3.205-1.178 0-2.308-.239-3.264-.694L25.411 72.168l-6.396-3.037c-1.069-.51-1.846-1.259-2.286-2.146a3.763 3.763 0 0 1-.283-.744z" fill="#fff"/><path d="M111.548 54.938c-.009.07-.022.137-.027.209-.008.948-.367 1.924-1.038 2.824l-38.566 51.742c-1.458 1.946-4.162 3.205-6.889 3.205-1.178 0-2.308-.238-3.264-.691l-42.75-20.304c-1.697-.805-2.67-2.186-2.674-3.79V75.278l42.554 20.208c1.845.878 3.966 1.339 6.134 1.339 4.838 0 9.537-2.255 12.254-5.89l34.291-45.819c-.012 3.371-.021 6.844-.025 9.822z" fill="#fff"/><g><path d="M118.258 31c-.013-.107-.022-.212-.048-.316-.044-.293-.061-.585-.131-.873-.785-3.161-3.045-5.833-6.203-7.334L69.121 2.172C67.276 1.296 65.156.833 62.987.833c-4.838 0-9.537 2.255-12.255 5.89L12.004 58.472c-1.675 2.242-2.478 4.879-2.334 7.462-.009.096-.03.192-.03.288v29.469c.008 3.644 1.915 6.983 5.073 9.036.449.292.925.559 1.427.799l42.754 20.299c1.845.877 3.966 1.341 6.134 1.341 3.704 0 7.325-1.324 10.043-3.575.388-.322.755-.663 1.104-1.021.401-.41.772-.844 1.112-1.3l38.562-51.742c1.536-2.047 2.356-4.392 2.374-6.784.018-2.468.031-4.239.018-5.551.021-7.08.052-18.96.065-23.685.096-.836.056-1.675-.048-2.508zM16.446 66.241c-.214-.863-.096-1.782.301-2.672.166-.369.362-.732.624-1.083l38.728-51.748c1.457-1.947 4.162-3.204 6.889-3.204 1.178 0 2.308.24 3.259.694L109 28.528c.331.159.637.34.916.543.851.618 1.426 1.429 1.653 2.347.061.236.074.478.087.72.048 1.012-.288 2.065-1.012 3.034l-.519.692L71.917 86.92c-1.458 1.948-4.162 3.205-6.889 3.205-1.178 0-2.308-.239-3.264-.694L25.411 72.168l-6.396-3.037c-1.069-.51-1.846-1.259-2.286-2.146a3.763 3.763 0 0 1-.283-.744zm95.102-11.303c-.009.07-.022.137-.027.209-.008.948-.367 1.924-1.038 2.824l-38.566 51.742c-1.458 1.946-4.162 3.205-6.889 3.205-1.178 0-2.308-.238-3.264-.691l-42.75-20.304c-1.697-.805-2.67-2.186-2.674-3.79V75.278l42.554 20.208c1.845.878 3.966 1.339 6.134 1.339 4.838 0 9.537-2.255 12.254-5.89l34.291-45.819c-.012 3.371-.021 6.844-.025 9.822z" fill="#fcc21b"/><path d="M40.261 47.019l1.488.714 3.119 1.493 3.119 1.494 5.414 2.592-10.418 13.63a.81.81 0 0 0 .293 1.224l8.49 4.066a.811.811 0 0 0 .995-.237l10.623-13.902 13.93 6.673a.811.811 0 0 0 1.004-.251l13.293-18.026a.818.818 0 0 0-.302-1.213l-13.267-6.354.279-.367 2.626-3.435 2.626-3.434 3.617-4.731a.81.81 0 0 0-.296-1.224l-8.49-4.062a.798.798 0 0 0-.991.238l-7.814 10.22-1.54 2.011-6.068-2.906-7.735-3.708a.816.816 0 0 0-1.004.25L39.96 45.809a.81.81 0 0 0 .301 1.21zm33.689 7.513a.475.475 0 0 1-.205-.046l-5.562-2.666.292-.381.288-.382 3.9-5.101.292-.382.292-.381 5.313 2.547a.468.468 0 0 1 .174.707l-4.411 5.894a.466.466 0 0 1-.373.191zm-20.945-9.98a.475.475 0 0 1-.174-.706l4.415-5.895a.473.473 0 0 1 .58-.145l1.662.799 3.778 1.808-.292.382-.293.381-3.9 5.098-.289.382-.292.382-5.073-2.43-.122-.056z" fill="#ed6c30"/></g></g></svg>