<svg id="レイヤー_1" xmlns="http://www.w3.org/2000/svg" viewBox="0 0 128 128"><g><g><path d="M105.327 118.385c0 1.589-1.348 2.937-2.941 2.937h-76.77c-1.593 0-2.937-1.348-2.937-2.937V9.615c0-1.593 1.344-2.937 2.937-2.937h76.77c1.594 0 2.941 1.344 2.941 2.937v108.77z" fill="#fff"/><path d="M102.386.269h-76.77c-5.14 0-9.348 4.207-9.348 9.347v108.77c0 5.139 4.208 9.348 9.348 9.348h76.77c5.145 0 9.347-4.208 9.347-9.348V9.615c-.001-5.139-4.203-9.346-9.347-9.346zm2.941 118.116c0 1.589-1.348 2.937-2.941 2.937h-76.77c-1.593 0-2.937-1.348-2.937-2.937V9.615c0-1.593 1.344-2.937 2.937-2.937h76.77c1.594 0 2.941 1.344 2.941 2.937v108.77z" fill="#2f2f2f"/></g><g fill="#2f2f2f"><path d="M31.737 11.861h-1.254a.111.111 0 0 0-.111.111v2.319c.018.554-.008 1.207-.076 1.318-.01.008-.01.017-.014.023-.081.17-.351.346-.661.346-.322 0-.704-.279-.811-.597-.025-.058-.082-.09-.143-.071l-1.042.326a.111.111 0 0 0-.077.127v.009c.119.897.966 1.498 2.113 1.498 1.145 0 1.995-.601 2.11-1.498v-.014c.082-.764.082-1.464.082-1.47v-2.316c.001-.062-.051-.111-.116-.111z"/><path d="M29.698 17.894c-1.739 0-2.825 1.227-2.825 2.741 0 1.513 1.086 2.739 2.825 2.739s2.825-1.226 2.825-2.739c0-1.514-1.085-2.741-2.825-2.741zm0 4.164c-.902 0-1.465-.638-1.465-1.423 0-.788.562-1.423 1.465-1.423.907 0 1.466.635 1.466 1.423 0 .785-.559 1.423-1.466 1.423z" fill-rule="evenodd" clip-rule="evenodd"/><path d="M31.476 31.069a.117.117 0 0 0 .118-.115v-.851a.117.117 0 0 0-.118-.113h-3.554a.112.112 0 0 0-.111.113v5.142c0 .062.051.114.111.114H31.476a.117.117 0 0 0 .118-.114v-.852c0-.062-.054-.111-.118-.111h-2.322v-1.125h1.786a.111.111 0 0 0 .111-.113v-.854a.109.109 0 0 0-.111-.111h-1.786v-1.01h2.322z"/><path d="M31.866 29.193l-1.718-2.734 1.517-2.284a.132.132 0 0 0 .004-.116c-.017-.039-.056-.06-.099-.06h-1.24c-.044 0-.078.017-.095.051l-1.379 2.07v-2.007a.114.114 0 0 0-.111-.114h-1.116a.113.113 0 0 0-.114.114v5.141c0 .062.05.114.114.114h1.116a.113.113 0 0 0 .111-.114v-2.447l1.572 2.507a.11.11 0 0 0 .094.054h1.245c.039 0 .083-.024.099-.058a.108.108 0 0 0 0-.117z"/><path d="M31.871 41.168l-1.275-1.701a1.813 1.813 0 0 0 1.129-1.674c0-.996-.818-1.812-1.834-1.812h-1.927s-.013.004-.021.004h-.327a.116.116 0 0 0-.116.116v5.139c0 .064.052.116.116.116h1.115a.116.116 0 0 0 .114-.116v-1.633h.437l1.283 1.706c.022.03.06.048.1.048h1.111c.048 0 .09-.026.106-.066a.114.114 0 0 0-.011-.127zm-2.065-2.628H28.856l-.011-.006c-.011-.006-.011-.011-.011-.021v-1.437c0-.009 0-.015.011-.021 0 0 .007 0 .007-.004.004 0 .008-.005.008-.005h.894c.018 0 .044.005.061.005a.736.736 0 0 1 .657.742.738.738 0 0 1-.666.747z"/></g><g><g fill="#2f2f2f"><path d="M97.075 116.075h1.254a.11.11 0 0 0 .111-.112v-2.318c-.018-.553.013-1.206.077-1.318.009-.009.013-.018.017-.021.078-.171.353-.348.661-.348.323 0 .704.279.809.597.024.058.085.09.146.071l1.038-.327a.104.104 0 0 0 .078-.127v-.008c-.12-.897-.962-1.499-2.112-1.499-1.143 0-1.992.601-2.113 1.499v.013c-.076.765-.076 1.464-.076 1.471v2.316a.11.11 0 0 0 .11.111z"/><path d="M99.119 110.043c1.734 0 2.824-1.228 2.824-2.741 0-1.514-1.09-2.739-2.824-2.739-1.744 0-2.825 1.226-2.825 2.739s1.081 2.741 2.825 2.741zm0-4.164c.901 0 1.459.639 1.459 1.423 0 .788-.558 1.425-1.459 1.425-.906 0-1.469-.637-1.469-1.425 0-.784.563-1.423 1.469-1.423z" fill-rule="evenodd" clip-rule="evenodd"/><path d="M97.341 96.866a.117.117 0 0 0-.115.116v.85c0 .062.053.116.115.116H100.896c.06 0 .111-.054.111-.116v-5.141a.115.115 0 0 0-.111-.114H97.341a.115.115 0 0 0-.115.114v.852c0 .062.053.112.115.112h2.323v1.125h-1.791a.114.114 0 0 0-.111.113v.853c0 .062.053.111.111.111h1.791v1.009h-2.323z"/><path d="M96.95 98.743l1.713 2.735-1.511 2.284a.118.118 0 0 0-.009.116c.021.039.061.06.103.06h1.241a.11.11 0 0 0 .095-.051l1.378-2.069v2.007c0 .062.052.113.112.113h1.115a.113.113 0 0 0 .112-.113v-5.142a.112.112 0 0 0-.112-.111h-1.115a.112.112 0 0 0-.112.111v2.447l-1.571-2.508a.113.113 0 0 0-.095-.051h-1.245a.12.12 0 0 0-.103.056.131.131 0 0 0 .004.116z"/><path d="M96.946 86.769l1.276 1.7a1.808 1.808 0 0 0-1.13 1.674c0 .998.82 1.812 1.828 1.812h1.933c.004 0 .008-.004.018-.004h.33a.115.115 0 0 0 .115-.116v-5.139a.115.115 0 0 0-.115-.116h-1.116c-.064 0-.111.051-.111.116v1.634h-.444l-1.278-1.707a.13.13 0 0 0-.099-.047H97.04a.124.124 0 0 0-.11.066c-.019.041-.019.088.016.127zm2.066 2.627H99.961l.014.006c.004.007.01.011.01.021v1.436c0 .008-.006.017-.01.022l-.014.004-.009.004h-.889c-.021 0-.047-.004-.064-.004a.736.736 0 0 1-.651-.743.735.735 0 0 1 .664-.746z"/></g></g><g><path d="M43.115 39.875a4.396 4.396 0 1 1-8.793 0 4.396 4.396 0 0 1 8.793 0z" fill="#d7598b"/><circle cx="91.064" cy="56.731" r="4.396" fill="#d7598b"/><circle cx="87.217" cy="18.812" r="4.397" fill="#d7598b"/><path d="M97.607 77.555s-3.537 4.255-8.149 3.816c-4.354-.416-7.144-4.495-12.253-3.576l3.486-7.944s2.58-.522 5.728 1.779c3.151 2.306 5.432 6.075 10.678 4.558l.51 1.367z" fill="#78a3ad"/><path d="M101.282 77.065c0 2.001-1.623 3.623-3.623 3.623s-3.629-1.622-3.629-3.623a3.625 3.625 0 1 1 7.252 0z" fill="#fcc21b"/><path d="M32.373 82.808s2.808 1.737 7.745.827c4.649-.855 5.736-5.045 11.198-5.212l-4.385-7.444s-3.473.33-6.451 3.224c-2.981 2.898-3.643 7.449-8.028 7.449l-.079 1.156z" fill="#78a3ad"/><g><path d="M50.792 75.602s-3.371 1.31-5.68 7.29c-1.902 4.714-.245 10.257-4.222 13.318l1.125 1.709s7.153-1.211 10.296-8.162c3.225-7.267 7.801-7.531 7.801-7.531l-9.32-6.624z" fill="#78a3ad"/></g><g><path d="M76.643 74.502s3.37 1.31 5.68 7.291c1.905 4.714.25 10.257 4.217 13.318l-1.125 1.709s-7.145-1.211-10.287-8.162c-3.229-7.266-7.805-7.53-7.805-7.53l9.32-6.626z" fill="#78a3ad"/></g><g><path d="M57.524 81.152s-1.555 3.104.185 9.063c1.738 5.955 4.456 7.814 3.541 13.026l2.354.466s6.226-4.313 6.08-11.221c-.164-7.775 2.403-11.416 2.403-11.416l-14.563.082z" fill="#78a3ad"/></g><circle cx="61.523" cy="105.228" r="3.626" fill="#fcc21b"/><circle cx="86.666" cy="97.809" r="3.626" fill="#fcc21b"/><path d="M44.266 98.498a3.624 3.624 0 0 1-3.623 3.624 3.629 3.629 0 0 1-3.629-3.624 3.625 3.625 0 1 1 7.252 0z" fill="#fcc21b"/><path d="M34.513 81.461a3.626 3.626 0 1 1-7.251-.003 3.626 3.626 0 0 1 7.251.003z" fill="#fcc21b"/><path d="M84.792 16.979s-18.818-5.07-23.559 15.188l14.031 9.999s-3.113-18.867 9.893-22.35l-.365-2.837z" fill="#d7598b"/><path d="M93.769 40.245C87.063 29.241 74.44 34.93 74.44 34.93l-.574 1.48-10.511-6.354.189-.163s-2.019-5.405-8.064-7.604c-2.893-1.051-7.925-.673-11.162 1.86-5.444 4.267-6.066 14.305-6.066 14.305l2.198.55c.652-2.241 4.186-6.408 7.432-6.088 1.722.167 2.85 1.015 3.383 2.578 1.026 3.007-.716 5.266-2.231 8.641-3.165 7.069-5.256 13.827-4.212 23.09.253 2.263 1.618 6.009 2.794 7.979 2.354 3.929 6.501 8.026 16.758 8.392 0 0 11.158.29 15.916-10.583.017-.048 3.691-6.189 1.871-15.122-.794-3.89-.609-6.385 0-8.93.822-3.435 3.418-4.933 6.479-2.031 3.388 3.207 1.559 6.685 1.559 6.685l2.928.918c-.002 0 4.214-8.428.642-14.288z" fill="#d7598b"/><path d="M77.862 62.699c.085-3.467-.683-6.027-1.345-7.458-.755-1.627-2.12-3.838-4.474-4.607-.862-.279-3.207-.188-4.938 1.007-1.271.878-2.464 2.14-3.649 4.188-.772-2.276-2.296-3.895-3.099-4.633l-.035-.03a9.9 9.9 0 0 0-.493-.425l-.005.013a4.94 4.94 0 0 0-2.997-1.026c-1.481 0-2.795.657-3.709 1.679v-.008s-3.585 3.529-3.765 10.939c-.139 5.631 1.377 11.004 6.049 14.143 1.279.858 4.328 2.589 8.054 2.563 4.604-.03 7.746-2.443 9.335-3.8 3.281-2.803 4.953-7.725 5.071-12.545z" fill="#fff"/><path d="M59.357 56.684a3.62 3.62 0 0 0-1.4-.343c-1.292-.052-2.57.425-3.241 1.567-.687 1.168-.841 2.894-.025 4.019.64.889 1.674 1.267 2.73 1.404.532.068 1.073.064 1.609.095.958.058-.072 2.078-.235 2.44-.263.573-.554 1.131-.844 1.688-.191.361-.419 1.166-.779 1.368-.446.244-.717-.391-1.039-.541-.758-.369-.782.507-.661 1.019.962 4.085 6.405 6.705 10.252 5.76 1.502-.369 3.212-1.237 4.466-2.456.472-.459 1.314-1.623 1.585-2.662.184-.695-.035-1.41-.254-1.522-.738-.372-1.229.083-1.743.513-1.683 1.419-4.723 3.203-7.758 2.232-.77-.245-.949-.545-.064-.76 1.283-.313 3.044-1.021 3.559-2.494.511-1.464-1.292-.277-1.97-.064-.559.176-1.538.407-2.006-.086-.776-.82.468-2.808.7-3.68.702-2.65-.216-6.243-2.882-7.497z" fill="#2f2f2f"/><path d="M68.67 62.798a3.23 3.23 0 0 1-1.658-.279c-1.613-.743-1.545-2.758-.665-4.1.752-1.134 2.297-2.028 3.8-1.992 2.723.064 2.438 3.898.954 5.259-.675.618-1.539 1.035-2.431 1.112z" fill="#2f2f2f"/></g></g></svg>