<svg id="レイヤー_1" xmlns="http://www.w3.org/2000/svg" xmlns:xlink="http://www.w3.org/1999/xlink" viewBox="0 0 128 128"><g><g fill="#fcc21b"><path d="M92.814 77.43c-2.709-11.967-10.643-18.938-24.252-21.301a29.861 29.861 0 0 0-5.07-.417c-4.514 0-9.018.883-12.685 2.491-8.938 3.909-14.909 11.46-16.388 20.714-.934 5.838.115 11.722 2.832 16.894l54.328-2.472a26.94 26.94 0 0 0 1.235-15.909z"/><path d="M119.055 80.067l-13.516-4.608 11.814-10.893a1.064 1.064 0 1 0-.658-1.85l-16.768-1.018 5.438-15.68c.134-.379.041-.8-.237-1.088a1.077 1.077 0 0 0-1.084-.279L88.139 49.52l1.963-16.863a1.068 1.068 0 0 0-.529-1.046 1.053 1.053 0 0 0-1.171.07L73.197 43.09l-8.451-17.043c-.184-.37-.5-.616-.971-.596-.412.009-.783.25-.954.625l-7.5 16.438-14.172-12.187a1.072 1.072 0 0 0-1.15-.154c-.38.179-.622.562-.612.979l.267 17.177-16.385-5.563a1.064 1.064 0 1 0-1.333 1.404l6.354 15.9-16.688 1.838a1.067 1.067 0 0 0-.664 1.792l10.39 11.038L8.06 79.634c-.367.138-.63.459-.688.847-.058.383.102.771.412 1.008l19.16 14.543c.188.142.413.217.646.217h.05l4.962-.226c-2.486-5.533-3.371-11.676-2.395-17.776 1.708-10.721 8.596-19.451 18.889-23.951 4.195-1.838 9.309-2.85 14.396-2.85 2.016 0 3.971.162 5.801.479 15.283 2.654 24.596 10.922 27.685 24.564 1.271 5.625.903 11.359-.834 16.643l6.8-.312c.196-.009.384-.071.547-.179l15.817-10.676a1.07 1.07 0 0 0 .458-1.025 1.065 1.065 0 0 0-.711-.873z"/></g><g><g><defs><path id="SVGID_1_" d="M127.99 115.899c0 6.65-5.441 12.092-12.092 12.092H12.097C5.441 127.991 0 122.55 0 115.899V12.101C0 5.45 5.441 0 12.097 0h103.802c6.65 0 12.092 5.45 12.092 12.101v103.798z"/></defs><clipPath id="SVGID_2_"><use xlink:href="#SVGID_1_" overflow="visible"/></clipPath><path clip-path="url(#SVGID_2_)" fill="#40c0e7" d="M-7.018 85.438h142.41v49.828H-7.018z"/><g clip-path="url(#SVGID_2_)" fill="#fff"><path d="M17.852 95.664c-1.184-.717-2.792-.899-4.142-.892-2.608.009-7.809-.758-7.497 3.367.097 1.225.859 2.134 2.051 2.434 1.975.491 4.296.483 6.312.333 1.158-.092 2.647-.3 3.688-.866 1.662-.9 1.058-3.4-.275-4.284-.046-.033-.092-.059-.137-.092z"/><path d="M33.322 104.298c-1.183-.725-2.791-.899-4.141-.899-2.608.008-7.814-.759-7.496 3.366.092 1.233.858 2.143 2.045 2.434 1.98.492 4.301.483 6.317.334 1.154-.084 2.646-.301 3.683-.858 1.668-.9 1.064-3.4-.273-4.292-.046-.027-.088-.06-.135-.085z"/><path d="M121.579 93.873c-1.185-.717-2.792-.9-4.143-.893-2.608.009-7.809-.758-7.496 3.367.095 1.225.858 2.134 2.05 2.434 1.975.491 4.297.483 6.315.333 1.157-.092 2.645-.3 3.685-.866 1.664-.9 1.059-3.4-.274-4.284-.045-.033-.091-.058-.137-.091z"/><path d="M110.67 103.39c-1.184-.717-2.792-.899-4.143-.892-2.608.009-7.812-.758-7.496 3.367.092 1.225.857 2.133 2.045 2.434 1.98.491 4.301.483 6.318.333 1.154-.092 2.645-.3 3.684-.866 1.667-.9 1.062-3.4-.275-4.284-.047-.034-.087-.059-.133-.092z"/><path d="M43.107 91.989c2.158-.009 4.322-.042 6.476-.017 7.063.066 14.13-.084 21.192-.066 6.63.008 13.246.175 19.875.175 1.635 0 3.361-.033 4.877.333.875.217 1.8.351 2.133 1.3.621 1.751-.55 2.684-1.812 3.626-1.967 1.483-2.834 3.491-4.384 5.292-1.683 1.958-4.876 2.783-7.362 2.975-3.367.25-4.793-.658-6.759 2.434-.592.934-1.325 1.292-2.321 1.675-1.363.518-2.941.942-4.399.934-3.339-.024-8.331.608-10.751-2.283-1.037-1.233-1.555-2.542-3.292-2.8-1.021-.159-2.042-.292-3.093-.292-1.141 0-2.43.184-3.554.008-.892-.142-1.787-.642-2.434-1.275-.646-.634-1.017-1.742-1.346-2.65-.599-1.65-2.546-2.125-4.154-2.275-.954-.1-1.88-.325-2.851-.316-1.025 0-1.912-.066-2.892-.367-1.599-.5-3.941-2.308-3.341-4.225.837-2.684 4.056-2.267 6.154-2.217 1.347.031 2.693.039 4.038.031z"/></g></g></g></g></svg>