<svg id="レイヤー_1" xmlns="http://www.w3.org/2000/svg" viewBox="0 0 128 128"><path d="M127.99 115.895c0 6.655-5.441 12.097-12.096 12.097H12.096C5.441 127.992 0 122.55 0 115.895V12.097C0 5.442 5.441 0 12.096 0h103.799c6.654 0 12.096 5.442 12.096 12.097v103.798z" fill="#006ca2"/><g><g fill="#f3bc2d"><g><circle cx="36.608" cy="124.562" r="1.521"/><path d="M54.877 102.648a2.52 2.52 0 0 0-2.525 2.525 2.524 2.524 0 1 0 5.05 0 2.526 2.526 0 0 0-2.525-2.525z"/><path d="M58.877 44.782a2.527 2.527 0 1 0 0-5.054c-1.392 0-2.525 1.133-2.525 2.529s1.133 2.525 2.525 2.525z"/><path d="M61.41 11.917a2.527 2.527 0 1 0 0-5.054 2.528 2.528 0 0 0-2.533 2.525 2.531 2.531 0 0 0 2.533 2.529z"/><path d="M118.997 24.26a2.527 2.527 0 0 0 0-5.054 2.528 2.528 0 0 0 0 5.054z"/><path d="M94.521 68.413a2.529 2.529 0 0 0-2.534 2.525 2.53 2.53 0 1 0 5.059 0 2.526 2.526 0 0 0-2.525-2.525z"/><path d="M14.424 72.604c1.4 0 2.534-1.129 2.534-2.525a2.53 2.53 0 1 0-5.06 0 2.527 2.527 0 0 0 2.526 2.525z"/><path d="M33.967 75.992a2.526 2.526 0 0 0 0-5.054c-1.399 0-2.534 1.133-2.534 2.529s1.134 2.525 2.534 2.525z"/><path d="M86.188 80.53a2.524 2.524 0 1 0-5.05 0 2.52 2.52 0 0 0 2.525 2.525 2.526 2.526 0 0 0 2.525-2.525z"/><path d="M45.918 118.349a2.526 2.526 0 1 0 0 5.054 2.52 2.52 0 0 0 2.524-2.525 2.523 2.523 0 0 0-2.524-2.529z"/><path d="M86.188 98.373a2.528 2.528 0 0 0-2.525 2.529 2.526 2.526 0 0 0 5.049 0 2.524 2.524 0 0 0-2.524-2.529z"/><path d="M94.521 80.734c-.841 0-1.524.679-1.524 1.521 0 .837.684 1.521 1.524 1.521.834 0 1.518-.684 1.518-1.521a1.523 1.523 0 0 0-1.518-1.521z"/><path d="M56.985 51.495a1.52 1.52 0 1 0 3.042.002 1.52 1.52 0 0 0-3.042-.002z"/><path d="M66.743 46.303a1.521 1.521 0 1 0-.006-3.042 1.521 1.521 0 0 0 .006 3.042z"/><path d="M121.53 51.495c-.841 0-1.524.684-1.524 1.521a1.521 1.521 0 1 0 1.524-1.521z"/><path d="M79.61 108.953c-.841 0-1.516.679-1.516 1.521 0 .837.675 1.521 1.516 1.521a1.521 1.521 0 0 0 0-3.042z"/><path d="M44.851 57.787c.842 0 1.517-.679 1.517-1.521 0-.838-.675-1.521-1.517-1.521s-1.524.683-1.524 1.521a1.52 1.52 0 0 0 1.524 1.521z"/><path d="M59.886 18.105a1.522 1.522 0 0 0 3.041 0c0-.837-.683-1.521-1.517-1.521-.842 0-1.524.684-1.524 1.521z"/><path d="M121.53 14.534a1.521 1.521 0 1 0-.006-3.042 1.521 1.521 0 0 0 .006 3.042z"/><path d="M63.969 107.432a1.52 1.52 0 1 0 .008 3.042 1.52 1.52 0 0 0-.008-3.042z"/><path d="M6.256 101.127c-.841 0-1.516.679-1.516 1.521 0 .838.675 1.521 1.516 1.521.843 0 1.526-.683 1.526-1.521 0-.841-.683-1.521-1.526-1.521z"/><path d="M6.256 72.604c0-.837-.683-1.521-1.516-1.521a1.522 1.522 0 0 0 0 3.042 1.52 1.52 0 0 0 1.516-1.521z"/><path d="M31.433 82.255c.843 0 1.526-.684 1.526-1.521a1.52 1.52 0 1 0-1.526 1.521z"/><path d="M26.641 71.6a1.521 1.521 0 1 0-1.524-1.521 1.524 1.524 0 0 0 1.524 1.521z"/></g><path d="M61.61 73.905l-3.168.842c-.574.146-1.208.762-1.398 1.341l-.983 3.242c-.092.325-.26.492-.45.492-.15 0-.317-.117-.467-.35l-1.834-2.838c-.301-.492-1.033-.892-1.625-.892l-.075.004-3.358.104h-.05c-.566 0-.741-.367-.375-.837l2.106-2.663c.394-.475.535-1.346.318-1.904l-1.11-3.088c-.164-.45-.006-.742.344-.742l.325.066 3.15 1.134c.184.066.407.1.633.1.467 0 .976-.142 1.309-.396l2.592-1.95.442-.179c.258 0 .416.225.399.625l-.108 3.254c-.033.608.351 1.4.851 1.754l2.717 1.946c.49.351.407.789-.185.935z"/><path d="M78.812 68.45l-.658 2.163c-.066.217-.175.325-.3.325l-.318-.233-1.216-1.892c-.208-.329-.691-.596-1.083-.596l-.05.004-2.242.071h-.025c-.392 0-.509-.242-.259-.563l1.408-1.77c.258-.321.351-.896.209-1.271l-.743-2.059c-.107-.304 0-.496.234-.496l.217.046 2.1.754.417.067c.315 0 .65-.096.875-.267l1.733-1.3.291-.117c.168 0 .276.15.268.417l-.075 2.167c-.017.408.233.938.567 1.171l1.816 1.3c.325.233.275.525-.125.625l-2.108.558c-.384.096-.808.508-.933.896z"/><path d="M124.597 36.906l-1.633 1.45c-.301.263-.491.821-.425 1.221l.384 2.229c.059.288-.043.45-.225.45l-.275-.092-1.941-1.138a1.348 1.348 0 0 0-.668-.162c-.225 0-.44.045-.616.146l-1.968 1.079-.266.08c-.191 0-.292-.163-.234-.455l.451-2.217c.083-.4-.092-.958-.392-1.229l-1.583-1.504c-.301-.275-.209-.554.191-.6l2.217-.279c.407-.046.883-.388 1.066-.759l.95-1.941.324-.267.31.284.916 1.967c.167.371.633.729 1.042.783l2.2.342c.4.058.484.346.175.612z"/><path d="M91.339 44.465l-3.16.842c-.575.142-1.217.762-1.4 1.337l-.991 3.246c-.092.325-.259.487-.442.487-.158 0-.324-.112-.475-.35l-1.833-2.838c-.3-.492-1.033-.888-1.625-.888h-.067l-3.366.108h-.042c-.575 0-.75-.367-.375-.837l2.101-2.663c.392-.479.532-1.346.316-1.909l-1.108-3.083c-.158-.454-.009-.742.342-.742l.325.067 3.158 1.133c.184.066.399.1.616.1.476 0 .983-.146 1.325-.4l2.584-1.95.441-.175c.259 0 .417.225.399.625l-.107 3.25c-.025.608.35 1.404.858 1.758l2.708 1.942c.5.357.417.79-.182.94z"/><path d="M111.789 55.816l-3.159.842c-.575.146-1.217.763-1.4 1.342l-.982 3.242c-.102.325-.267.492-.451.492-.157 0-.324-.117-.475-.35l-1.826-2.837c-.307-.492-1.031-.892-1.633-.892l-.066.004-3.366.104h-.033c-.584 0-.759-.362-.384-.837l2.108-2.663c.383-.475.524-1.346.309-1.904l-1.108-3.088c-.158-.45-.009-.742.342-.742l.333.071 3.149 1.129c.185.067.401.1.626.1.475 0 .983-.142 1.316-.396l2.592-1.95.442-.179c.249 0 .416.225.399.625l-.116 3.254c-.025.608.358 1.4.858 1.754l2.717 1.946c.491.349.408.787-.192.933z"/><path d="M75.145 19.009l2.108-2.663c.384-.475.525-1.346.309-1.908l-1.108-3.084c-.158-.45 0-.742.35-.742l.325.067 3.15 1.133c.184.067.4.1.625.1.476 0 .983-.142 1.316-.396l2.592-1.95.442-.179c.25 0 .416.225.392.625l-.108 3.254c-.025.608.358 1.4.858 1.754l2.717 1.942c.491.354.408.792-.191.938l-3.16.842c-.574.142-1.216.763-1.398 1.337l-.983 3.246c-.101.325-.267.492-.45.492-.158 0-.325-.117-.476-.35l-1.825-2.838c-.308-.492-1.033-.892-1.633-.892h-.066l-3.367.108h-.044c-.576.002-.742-.361-.375-.836z"/><path d="M13.981 90.077h-.075l-3.358.108h-.049c-.575 0-.743-.367-.376-.838l2.109-2.663c.391-.479.532-1.346.309-1.908l-1.101-3.083c-.167-.455-.008-.742.342-.742l.325.066 3.15 1.133c.183.067.399.1.625.1.475 0 .983-.146 1.315-.4l2.593-1.946.441-.179c.249 0 .417.225.399.625l-.115 3.254c-.026.608.357 1.4.858 1.754L24.09 87.3c.491.354.407.788-.184.938l-3.167.842c-.575.142-1.217.763-1.401 1.338l-.982 3.246c-.1.325-.258.488-.451.488-.148 0-.315-.113-.474-.35l-1.825-2.838c-.307-.487-1.032-.887-1.625-.887z"/><path d="M30.924 113.687l-3.157.842c-.575.146-1.217.762-1.4 1.342l-.983 3.242c-.101.325-.267.492-.45.492-.15 0-.316-.117-.475-.35l-1.826-2.842c-.308-.488-1.032-.888-1.624-.888l-.075.004-3.358.104h-.05c-.575 0-.742-.367-.375-.837l2.108-2.663c.383-.475.533-1.346.308-1.904l-1.1-3.088c-.167-.45-.008-.742.342-.742l.324.067 3.15 1.133c.184.066.4.1.626.1.475 0 .983-.142 1.316-.396l2.592-1.95.441-.179c.25 0 .417.225.4.625l-.116 3.254c-.025.608.358 1.4.858 1.754l2.717 1.942c.491.354.408.791-.193.938z"/><path d="M43.093 94.473c-.434.108-.934.583-1.075 1.029l-.759 2.492c-.066.25-.199.379-.342.379l-.366-.271-1.401-2.184c-.24-.375-.801-.683-1.257-.683l-.051.004-2.592.079h-.034c-.44 0-.565-.283-.283-.646l1.618-2.046c.3-.362.408-1.033.24-1.466l-.849-2.371c-.125-.346-.01-.567.258-.567l.259.05 2.417.871.483.075c.366 0 .75-.108 1.008-.304l1.992-1.5.342-.138c.2 0 .325.175.308.483l-.083 2.5c-.024.467.267 1.08.658 1.35l2.092 1.496c.375.271.309.604-.149.717l-2.434.651z"/><path d="M73.761 89.602l-2.425.65c-.442.108-.934.583-1.075 1.029l-.758 2.492c-.075.25-.209.379-.351.379l-.366-.271-1.401-2.184c-.24-.375-.799-.683-1.258-.683l-.05.004-2.583.08h-.042c-.441 0-.566-.284-.283-.646l1.617-2.046c.3-.363.408-1.034.24-1.467l-.85-2.371c-.124-.346-.008-.567.268-.567l.25.05 2.416.871.482.075c.368 0 .76-.108 1.018-.304l1.992-1.5.342-.138c.191 0 .316.175.3.483l-.083 2.5c-.017.467.275 1.08.657 1.35l2.093 1.496c.375.272.317.605-.15.718z"/><path d="M99.638 29.647l1.625-2.046c.292-.362.409-1.033.232-1.467l-.85-2.371c-.124-.346 0-.566.268-.566l.25.05 2.425.871.476.075c.366 0 .758-.108 1.016-.304l1.992-1.5.342-.137c.192 0 .316.175.308.483l-.091 2.5c-.017.467.275 1.079.657 1.35l2.093 1.496c.375.271.317.604-.142.716l-2.434.65c-.442.108-.934.583-1.075 1.029l-.758 2.492c-.075.25-.2.379-.342.379l-.366-.271-1.41-2.183c-.232-.375-.799-.684-1.249-.684l-.058.004-2.583.079h-.043c-.433.002-.567-.282-.283-.645z"/><path d="M101.763 9.313l1.626-2.046c.3-.363.407-1.034.241-1.467l-.85-2.371c-.135-.346-.009-.567.258-.567l.249.05 2.427.871.482.075c.358 0 .75-.108 1.009-.304l1.992-1.5.342-.138c.199 0 .323.175.308.483l-.083 2.501c-.025.466.267 1.079.658 1.35l2.084 1.496c.383.271.316.605-.142.717l-2.434.65c-.442.108-.934.583-1.075 1.029l-.759 2.492c-.075.25-.2.379-.342.379l-.366-.271-1.408-2.183c-.233-.375-.792-.684-1.251-.684l-.05.004-2.592.079h-.033c-.441.001-.575-.283-.291-.645z"/></g><g><path d="M6.256 121.52c-.841 0-1.516.684-1.516 1.521a1.522 1.522 0 0 0 3.042 0c0-.837-.683-1.521-1.526-1.521z" fill="#f3bc2d"/></g></g></svg>