<svg id="レイヤー_1" xmlns="http://www.w3.org/2000/svg" viewBox="0 0 128 128"><g><g><g><g><g><path d="M36.932 105.085a5.715 5.715 0 0 1-4.295-1.938 5.72 5.72 0 0 1 .503-8.08l78.415-69.217c3.411-2.89 3.83-7.887 1.022-11.211a7.889 7.889 0 0 0-9.508-1.988 5.72 5.72 0 0 1-7.669-2.603 5.727 5.727 0 0 1 2.604-7.669 19.305 19.305 0 0 1 23.32 4.867c6.878 8.144 5.858 20.376-2.277 27.267l-78.328 69.134a5.681 5.681 0 0 1-3.787 1.438z" fill="#78a3ad"/><path d="M13.533 113.15l-7.331 7.886a3.782 3.782 0 0 0 .043 5.198l.219.229a3.788 3.788 0 0 0 5.084.336l8.342-6.65c-2.392-1.713-4.516-4.058-6.357-6.999z" fill="#78a3ad"/><path d="M126.606 72.946c-.401-1.799-2.05-3.019-3.88-2.952l-.631.012c-3.492 0-6.689-1.386-8.999-3.904-3.043-3.32-3.985-8.08-2.455-12.43a3.78 3.78 0 0 0-4.505-4.918c-4.436 1.141-9.157-.218-12.183-3.521-3.038-3.309-3.978-8.08-2.449-12.434a3.783 3.783 0 0 0-.783-3.811 3.804 3.804 0 0 0-3.731-1.106c-4.411 1.133-9.147-.212-12.174-3.508-2.434-2.656-3.546-6.272-3.049-9.929a3.775 3.775 0 0 0-2.623-4.12 3.766 3.766 0 0 0-4.5 1.901L13.591 113.09l-.058.061c1.841 2.94 3.964 5.285 6.358 6.998l.354-.28 104.099-42.6a3.788 3.788 0 0 0 2.262-4.323z" fill="#006ca2"/></g></g></g><path d="M1.918 93.505c.952 2.564 2.688 4.685 4.483 6.677 2.973 3.278 2.698 6.104 3.908 5.535.841-.398 1.078-1.065 1.46-1.812 2.363-4.668 2.792-9.263 2.666-10.926-.167-2.226-.76-4.4-2.005-6.252-1.577-2.349-4.373-3.564-7.11-2.599-4 1.399-4.642 5.354-3.529 8.98.04.139.082.269.127.397z" fill="#40c0e7"/></g><path d="M72.329 121.652c-1.335 2.29-4.575 2.693-6.841 2.014-3.85-1.153-4.61-4.103-6.427-6.115-2.673-2.959-5.839-2.206-6.45-3.343-.427-.793.709-1.495 1.258-1.764 4.04-1.972 9.478-1.879 13.115-.621 2.634.908 8.311 4.741 5.345 9.829z" fill="#40c0e7"/><path d="M13.319 68.142c-2.116 1.051-2.991 3.301-2.828 5.558.166 2.361 1.96 3.878 3.488 5.499 3.442 3.649 2.787 6.572 3.955 7.358.689.47 1.445-.51 1.75-.994 2.089-3.355 3.365-7.95 2.438-11.823-.72-3.016-3.15-6.004-6.739-6.055a4.458 4.458 0 0 0-2.064.457z" fill="#40c0e7"/></g></svg>