<svg id="レイヤー_1" xmlns="http://www.w3.org/2000/svg" xmlns:xlink="http://www.w3.org/1999/xlink" viewBox="0 0 128 128"><g><g><defs><path id="SVGID_1_" d="M128 115.895c0 6.654-5.441 12.097-12.094 12.097H12.104C5.451 127.992.01 122.55.01 115.895V12.097C.009 5.441 5.451 0 12.104 0h103.802C122.559 0 128 5.441 128 12.097v103.798z"/></defs><use xlink:href="#SVGID_1_" overflow="visible" fill="#b9e8f4"/><clipPath id="SVGID_2_"><use xlink:href="#SVGID_1_" overflow="visible"/></clipPath><g clip-path="url(#SVGID_2_)"><g><path fill="#7d7d7d" d="M8.592 109.277h111.487v19.872H8.592z"/><path d="M52.004 89.685c0-4.987-4.08-9.071-9.073-9.071h-25.3c-4.988 0-9.071 4.084-9.071 9.071v30.394c0 4.992 4.083 9.071 9.071 9.071h25.301c4.993 0 9.073-4.079 9.073-9.071V89.685z" fill="#7d7d7d"/><path fill="#7d7d7d" d="M43.762 94.872h42.136v34.277H43.762z"/><path d="M120.034 64.616c0-4.987-4.08-9.071-9.072-9.071H86.968c-4.987 0-9.071 4.084-9.071 9.071v55.462c0 4.992 4.084 9.071 9.071 9.071h23.994c4.992 0 9.072-4.079 9.072-9.071V64.616z" fill="#7d7d7d"/><g><g><g><g><g><g fill="#40c0e7"><path d="M93.831 72.946a2.502 2.502 0 0 1-2.492 2.496h-2.917a2.502 2.502 0 0 1-2.492-2.496v-4.634a2.501 2.501 0 0 1 2.492-2.492h2.917a2.5 2.5 0 0 1 2.492 2.492v4.634z"/><path d="M113.32 73.858c0 .459-1.121 1.584-2.493 1.584h-2.915a2.506 2.506 0 0 1-2.497-2.496v-4.634a2.506 2.506 0 0 1 2.497-2.492h2.915c1.372 0 2.493 1.125 2.493 1.579v6.459z"/><path d="M113.32 89.176c0 .459-1.121 1.58-2.493 1.58h-2.915a2.502 2.502 0 0 1-2.497-2.492V83.63a2.507 2.507 0 0 1 2.497-2.496h2.915c1.372 0 2.493 1.125 2.493 1.584v6.458z"/><path d="M102.653 103.045c0 .457-1.121 1.578-2.492 1.578h-2.917a2.501 2.501 0 0 1-2.495-2.492v-4.633a2.505 2.505 0 0 1 2.495-2.496h2.917c1.371 0 2.492 1.125 2.492 1.584v6.459z"/></g></g><g><path d="M23.41 102.223a2.506 2.506 0 0 1-2.496 2.496h-2.912a2.504 2.504 0 0 1-2.497-2.496v-4.634a2.503 2.503 0 0 1 2.497-2.491h2.912a2.505 2.505 0 0 1 2.496 2.491v4.634z" fill="#40c0e7"/></g><g><path d="M34.52 102.223a2.506 2.506 0 0 1-2.496 2.496h-2.913a2.503 2.503 0 0 1-2.496-2.496v-4.634a2.501 2.501 0 0 1 2.496-2.491h2.913a2.505 2.505 0 0 1 2.496 2.491v4.634z" fill="#40c0e7"/></g><g><path d="M45.629 102.223a2.506 2.506 0 0 1-2.497 2.496H40.22a2.503 2.503 0 0 1-2.497-2.496v-4.634a2.502 2.502 0 0 1 2.497-2.491h2.912a2.505 2.505 0 0 1 2.497 2.491v4.634z" fill="#40c0e7"/></g><g><path d="M23.41 116.403a2.506 2.506 0 0 1-2.496 2.496h-2.912a2.504 2.504 0 0 1-2.497-2.496v-4.634a2.503 2.503 0 0 1 2.497-2.492h2.912a2.505 2.505 0 0 1 2.496 2.492v4.634z" fill="#40c0e7"/></g><g><path d="M34.52 116.403a2.506 2.506 0 0 1-2.496 2.496h-2.913a2.503 2.503 0 0 1-2.496-2.496v-4.634a2.502 2.502 0 0 1 2.496-2.492h2.913a2.505 2.505 0 0 1 2.496 2.492v4.634z" fill="#40c0e7"/></g><g><path d="M56.738 116.403a2.506 2.506 0 0 1-2.496 2.496h-2.913a2.503 2.503 0 0 1-2.496-2.496v-4.634a2.502 2.502 0 0 1 2.496-2.492h2.913a2.505 2.505 0 0 1 2.496 2.492v4.634z" fill="#40c0e7"/></g></g></g></g></g></g></g></g></g><g><defs><path id="SVGID_3_" d="M128 115.895c0 6.654-5.441 12.097-12.094 12.097H12.104C5.451 127.992.01 122.55.01 115.895V12.097C.009 5.441 5.451 0 12.104 0h103.802C122.559 0 128 5.441 128 12.097v103.798z"/></defs><clipPath id="SVGID_4_"><use xlink:href="#SVGID_3_" overflow="visible"/></clipPath><g clip-path="url(#SVGID_4_)"><g><defs><path id="SVGID_5_" d="M-5.058 88.01c-3.532.054-8.899-1.48-8.899-6.426 0-8.88.542-24.894.542-30.89 0-4.392.481-8.829 5.436-8.829h22.941c4.691 0 11.93-.259 16.596.462 6.067.934 10.876 2.684 8.728 8.726-2.005 5.626-11.015 3.755-12.39 7.976-.771 2.375-.019 3.9 1.542 4.863 3.909 2.408 35.8 1.375 52.485 2.537 3.853.271 10.384 3.354 10.384 9.48 0 6.704-3.974 10.338-13.316 10.946C59.892 88.097-.957 87.947-5.058 88.01z"/></defs><clipPath id="SVGID_6_"><use xlink:href="#SVGID_5_" overflow="visible"/></clipPath><g clip-path="url(#SVGID_6_)"><g><linearGradient id="SVGID_7_" gradientUnits="userSpaceOnUse" x1="-18.844" y1="92.837" x2="103.509" y2="92.837"><stop offset="0" stop-color="#fff"/><stop offset="1" stop-color="#fff"/></linearGradient><linearGradient id="SVGID_8_" gradientUnits="userSpaceOnUse" x1="-18.899" y1="89.517" x2="103.56" y2="93.7"><stop offset="0" stop-color="#fff"/><stop offset="1" stop-color="#fff"/></linearGradient><path opacity=".022" fill="url(#SVGID_8_)" d="M-18.844 86.786h122.353v9.646H-18.844z"/><linearGradient id="SVGID_9_" gradientUnits="userSpaceOnUse" x1="-18.812" y1="86.198" x2="103.467" y2="94.562"><stop offset="0" stop-color="#fff"/><stop offset="1" stop-color="#fff"/></linearGradient><path opacity=".043" fill="url(#SVGID_9_)" d="M-18.844 85.556h122.353v9.647H-18.844z"/><linearGradient id="SVGID_10_" gradientUnits="userSpaceOnUse" x1="-18.582" y1="82.889" x2="103.231" y2="95.412"><stop offset="0" stop-color="#fff"/><stop offset="1" stop-color="#fff"/></linearGradient><path opacity=".065" fill="url(#SVGID_10_)" d="M-18.844 84.328h122.353v9.647H-18.844z"/><linearGradient id="SVGID_11_" gradientUnits="userSpaceOnUse" x1="-18.21" y1="79.602" x2="102.855" y2="96.242"><stop offset="0" stop-color="#fff"/><stop offset="1" stop-color="#fff"/></linearGradient><path opacity=".087" fill="url(#SVGID_11_)" d="M-18.844 83.1h122.353v9.647H-18.844z"/><linearGradient id="SVGID_12_" gradientUnits="userSpaceOnUse" x1="-17.7" y1="76.344" x2="102.34" y2="97.041"><stop offset="0" stop-color="#fff"/><stop offset="1" stop-color="#fff"/></linearGradient><path opacity=".109" fill="url(#SVGID_12_)" d="M-18.845 81.872h122.354v9.646H-18.845z"/><linearGradient id="SVGID_13_" gradientUnits="userSpaceOnUse" x1="-17.052" y1="73.126" x2="101.688" y2="97.8"><stop offset="0" stop-color="#fff"/><stop offset="1" stop-color="#fff"/></linearGradient><path opacity=".13" fill="url(#SVGID_13_)" d="M-18.844 80.643H103.51v9.647H-18.844z"/><linearGradient id="SVGID_14_" gradientUnits="userSpaceOnUse" x1="-16.27" y1="69.957" x2="100.901" y2="98.511"><stop offset="0" stop-color="#fff"/><stop offset="1" stop-color="#fff"/></linearGradient><path opacity=".152" fill="url(#SVGID_14_)" d="M-18.844 79.415H103.51v9.647H-18.844z"/><linearGradient id="SVGID_15_" gradientUnits="userSpaceOnUse" x1="-15.357" y1="66.846" x2="99.985" y2="99.163"><stop offset="0" stop-color="#fff"/><stop offset="1" stop-color="#fff"/></linearGradient><path opacity=".174" fill="url(#SVGID_15_)" d="M-18.844 78.187H103.51v9.647H-18.844z"/><linearGradient id="SVGID_16_" gradientUnits="userSpaceOnUse" x1="-14.319" y1="63.801" x2="98.942" y2="99.749"><stop offset="0" stop-color="#fff"/><stop offset="1" stop-color="#fff"/></linearGradient><path opacity=".196" fill="url(#SVGID_16_)" d="M-18.844 76.958H103.51v9.647H-18.844z"/><linearGradient id="SVGID_17_" gradientUnits="userSpaceOnUse" x1="-13.16" y1="60.831" x2="97.78" y2="100.259"><stop offset="0" stop-color="#fff"/><stop offset="1" stop-color="#fff"/></linearGradient><path opacity=".217" fill="url(#SVGID_17_)" d="M-18.844 75.729H103.51v9.648H-18.844z"/><linearGradient id="SVGID_18_" gradientUnits="userSpaceOnUse" x1="-11.886" y1="57.944" x2="96.502" y2="100.686"><stop offset="0" stop-color="#fff"/><stop offset="1" stop-color="#fff"/></linearGradient><path opacity=".239" fill="url(#SVGID_18_)" d="M-18.844 74.501H103.51v9.647H-18.844z"/><linearGradient id="SVGID_19_" gradientUnits="userSpaceOnUse" x1="-10.502" y1="55.147" x2="95.115" y2="101.023"><stop offset="0" stop-color="#fff"/><stop offset="1" stop-color="#fff"/></linearGradient><path opacity=".261" fill="url(#SVGID_19_)" d="M-18.844 73.272H103.51v9.647H-18.844z"/><linearGradient id="SVGID_20_" gradientUnits="userSpaceOnUse" x1="-9.014" y1="52.448" x2="93.625" y2="101.261"><stop offset="0" stop-color="#fff"/><stop offset="1" stop-color="#fff"/></linearGradient><path opacity=".283" fill="url(#SVGID_20_)" d="M-18.844 72.044H103.51v9.647H-18.844z"/><linearGradient id="SVGID_21_" gradientUnits="userSpaceOnUse" x1="-7.431" y1="49.854" x2="92.039" y2="101.395"><stop offset="0" stop-color="#fff"/><stop offset="1" stop-color="#fff"/></linearGradient><path opacity=".304" fill="url(#SVGID_21_)" d="M-18.844 70.815H103.51v9.648H-18.844z"/><linearGradient id="SVGID_22_" gradientUnits="userSpaceOnUse" x1="-5.76" y1="47.37" x2="90.365" y2="101.419"><stop offset="0" stop-color="#fff"/><stop offset="1" stop-color="#fff"/></linearGradient><path opacity=".326" fill="url(#SVGID_22_)" d="M-18.844 69.587H103.51v9.648H-18.844z"/><linearGradient id="SVGID_23_" gradientUnits="userSpaceOnUse" x1="-4.007" y1="45.003" x2="88.611" y2="101.325"><stop offset="0" stop-color="#fff"/><stop offset="1" stop-color="#fff"/></linearGradient><path opacity=".348" fill="url(#SVGID_23_)" d="M-18.844 68.359H103.51v9.648H-18.844z"/><linearGradient id="SVGID_24_" gradientUnits="userSpaceOnUse" x1="-2.181" y1="42.758" x2="86.784" y2="101.11"><stop offset="0" stop-color="#fff"/><stop offset="1" stop-color="#fff"/></linearGradient><path opacity=".37" fill="url(#SVGID_24_)" d="M-18.844 67.131H103.51v9.647H-18.844z"/><linearGradient id="SVGID_25_" gradientUnits="userSpaceOnUse" x1="-.292" y1="40.638" x2="84.894" y2="100.769"><stop offset="0" stop-color="#fff"/><stop offset="1" stop-color="#fff"/></linearGradient><path opacity=".391" fill="url(#SVGID_25_)" d="M-18.844 65.902H103.51v9.648H-18.844z"/><linearGradient id="SVGID_26_" gradientUnits="userSpaceOnUse" x1="1.653" y1="38.649" x2="82.949" y2="100.297"><stop offset="0" stop-color="#fff"/><stop offset="1" stop-color="#fff"/></linearGradient><path opacity=".413" fill="url(#SVGID_26_)" d="M-18.844 64.673H103.51v9.648H-18.844z"/><linearGradient id="SVGID_27_" gradientUnits="userSpaceOnUse" x1="3.644" y1="36.794" x2="80.957" y2="99.692"><stop offset="0" stop-color="#fff"/><stop offset="1" stop-color="#fff"/></linearGradient><path opacity=".435" fill="url(#SVGID_27_)" d="M-18.844 63.445H103.51v9.647H-18.844z"/><linearGradient id="SVGID_28_" gradientUnits="userSpaceOnUse" x1="5.672" y1="35.074" x2="78.929" y2="98.952"><stop offset="0" stop-color="#fff"/><stop offset="1" stop-color="#fff"/></linearGradient><path opacity=".457" fill="url(#SVGID_28_)" d="M-18.844 62.217H103.51v9.648H-18.844z"/><linearGradient id="SVGID_29_" gradientUnits="userSpaceOnUse" x1="7.728" y1="33.494" x2="76.874" y2="98.073"><stop offset="0" stop-color="#fff"/><stop offset="1" stop-color="#fff"/></linearGradient><path opacity=".478" fill="url(#SVGID_29_)" d="M-18.844 60.988H103.51v9.648H-18.844z"/><linearGradient id="SVGID_30_" gradientUnits="userSpaceOnUse" x1="9.802" y1="32.053" x2="74.802" y2="97.053"><stop offset="0" stop-color="#fff"/><stop offset="1" stop-color="#fff"/></linearGradient><path opacity=".5" fill="url(#SVGID_30_)" d="M-18.844 59.76H103.51v9.648H-18.844z"/><linearGradient id="SVGID_31_" gradientUnits="userSpaceOnUse" x1="11.884" y1="30.753" x2="72.721" y2="95.893"><stop offset="0" stop-color="#fff"/><stop offset="1" stop-color="#fff"/></linearGradient><path opacity=".522" fill="url(#SVGID_31_)" d="M-18.844 58.531H103.51v9.648H-18.844z"/><linearGradient id="SVGID_32_" gradientUnits="userSpaceOnUse" x1="13.965" y1="29.594" x2="70.641" y2="94.593"><stop offset="0" stop-color="#fff"/><stop offset="1" stop-color="#fff"/></linearGradient><path opacity=".543" fill="url(#SVGID_32_)" d="M-18.844 57.303H103.51v9.648H-18.844z"/><linearGradient id="SVGID_33_" gradientUnits="userSpaceOnUse" x1="16.036" y1="28.575" x2="68.573" y2="93.152"><stop offset="0" stop-color="#fff"/><stop offset="1" stop-color="#fff"/></linearGradient><path opacity=".565" fill="url(#SVGID_33_)" d="M-18.844 56.074H103.51v9.649H-18.844z"/><linearGradient id="SVGID_34_" gradientUnits="userSpaceOnUse" x1="18.086" y1="27.697" x2="66.525" y2="91.573"><stop offset="0" stop-color="#fff"/><stop offset="1" stop-color="#fff"/></linearGradient><path opacity=".587" fill="url(#SVGID_34_)" d="M-18.844 54.846H103.51v9.648H-18.844z"/><linearGradient id="SVGID_35_" gradientUnits="userSpaceOnUse" x1="20.106" y1="26.954" x2="64.507" y2="89.856"><stop offset="0" stop-color="#fff"/><stop offset="1" stop-color="#fff"/></linearGradient><path opacity=".609" fill="url(#SVGID_35_)" d="M-18.844 53.617H103.51v9.649H-18.844z"/><linearGradient id="SVGID_36_" gradientUnits="userSpaceOnUse" x1="22.088" y1="26.349" x2="62.529" y2="88.005"><stop offset="0" stop-color="#fff"/><stop offset="1" stop-color="#fff"/></linearGradient><path opacity=".63" fill="url(#SVGID_36_)" d="M-18.844 52.39H103.51v9.648H-18.844z"/><linearGradient id="SVGID_37_" gradientUnits="userSpaceOnUse" x1="24.021" y1="25.873" x2="60.598" y2="86.022"><stop offset="0" stop-color="#fff"/><stop offset="1" stop-color="#fff"/></linearGradient><path opacity=".652" fill="url(#SVGID_37_)" d="M-18.844 51.161H103.51v9.649H-18.844z"/><linearGradient id="SVGID_38_" gradientUnits="userSpaceOnUse" x1="25.898" y1="25.527" x2="58.725" y2="83.911"><stop offset="0" stop-color="#fff"/><stop offset="1" stop-color="#fff"/></linearGradient><path opacity=".674" fill="url(#SVGID_38_)" d="M-18.844 49.932H103.51v9.649H-18.844z"/><linearGradient id="SVGID_39_" gradientUnits="userSpaceOnUse" x1="27.708" y1="25.305" x2="56.918" y2="81.677"><stop offset="0" stop-color="#fff"/><stop offset="1" stop-color="#fff"/></linearGradient><path opacity=".696" fill="url(#SVGID_39_)" d="M-18.844 48.704H103.51v9.649H-18.844z"/><linearGradient id="SVGID_40_" gradientUnits="userSpaceOnUse" x1="29.445" y1="25.202" x2="55.184" y2="79.324"><stop offset="0" stop-color="#fff"/><stop offset="1" stop-color="#fff"/></linearGradient><path opacity=".717" fill="url(#SVGID_40_)" d="M-18.844 47.476H103.51v9.649H-18.844z"/><linearGradient id="SVGID_41_" gradientUnits="userSpaceOnUse" x1="31.101" y1="25.213" x2="53.533" y2="76.857"><stop offset="0" stop-color="#fff"/><stop offset="1" stop-color="#fff"/></linearGradient><path opacity=".739" fill="url(#SVGID_41_)" d="M-18.844 46.247H103.51v9.649H-18.844z"/><linearGradient id="SVGID_42_" gradientUnits="userSpaceOnUse" x1="32.667" y1="25.332" x2="51.97" y2="74.283"><stop offset="0" stop-color="#fff"/><stop offset="1" stop-color="#fff"/></linearGradient><path opacity=".761" fill="url(#SVGID_42_)" d="M-18.844 45.019H103.51v9.649H-18.844z"/><linearGradient id="SVGID_43_" gradientUnits="userSpaceOnUse" x1="34.136" y1="25.552" x2="50.504" y2="71.608"><stop offset="0" stop-color="#fff"/><stop offset="1" stop-color="#fff"/></linearGradient><path opacity=".783" fill="url(#SVGID_43_)" d="M-18.844 43.79H103.51v9.649H-18.844z"/><linearGradient id="SVGID_44_" gradientUnits="userSpaceOnUse" x1="35.503" y1="25.867" x2="49.141" y2="68.839"><stop offset="0" stop-color="#fff"/><stop offset="1" stop-color="#fff"/></linearGradient><path opacity=".804" fill="url(#SVGID_44_)" d="M-18.844 42.562H103.51v9.65H-18.844z"/><linearGradient id="SVGID_45_" gradientUnits="userSpaceOnUse" x1="36.76" y1="26.27" x2="47.887" y2="65.983"><stop offset="0" stop-color="#fff"/><stop offset="1" stop-color="#fff"/></linearGradient><path opacity=".826" fill="url(#SVGID_45_)" d="M-18.844 41.333H103.51v9.649H-18.844z"/><linearGradient id="SVGID_46_" gradientUnits="userSpaceOnUse" x1="37.903" y1="26.752" x2="46.748" y2="63.048"><stop offset="0" stop-color="#fff"/><stop offset="1" stop-color="#fff"/></linearGradient><path opacity=".848" fill="url(#SVGID_46_)" d="M-18.844 40.105H103.51v9.649H-18.844z"/><linearGradient id="SVGID_47_" gradientUnits="userSpaceOnUse" x1="38.925" y1="27.305" x2="45.728" y2="60.042"><stop offset="0" stop-color="#fff"/><stop offset="1" stop-color="#fff"/></linearGradient><path opacity=".87" fill="url(#SVGID_47_)" d="M-18.844 38.876H103.51v9.65H-18.844z"/><linearGradient id="SVGID_48_" gradientUnits="userSpaceOnUse" x1="39.824" y1="27.922" x2="44.833" y2="56.974"><stop offset="0" stop-color="#fff"/><stop offset="1" stop-color="#fff"/></linearGradient><path opacity=".891" fill="url(#SVGID_48_)" d="M-18.844 37.648H103.51v9.65H-18.844z"/><linearGradient id="SVGID_49_" gradientUnits="userSpaceOnUse" x1="40.594" y1="28.594" x2="44.065" y2="53.851"><stop offset="0" stop-color="#fff"/><stop offset="1" stop-color="#fff"/></linearGradient><path opacity=".913" fill="url(#SVGID_49_)" d="M-18.844 36.419H103.51v9.65H-18.844z"/><linearGradient id="SVGID_50_" gradientUnits="userSpaceOnUse" x1="41.232" y1="29.311" x2="43.429" y2="50.683"><stop offset="0" stop-color="#fff"/><stop offset="1" stop-color="#fff"/></linearGradient><path opacity=".935" fill="url(#SVGID_50_)" d="M-18.844 35.191H103.51v9.65H-18.844z"/><linearGradient id="SVGID_51_" gradientUnits="userSpaceOnUse" x1="41.736" y1="30.064" x2="42.927" y2="47.48"><stop offset="0" stop-color="#fff"/><stop offset="1" stop-color="#fff"/></linearGradient><path opacity=".957" fill="url(#SVGID_51_)" d="M-18.844 33.963H103.51v9.65H-18.844z"/><linearGradient id="SVGID_52_" gradientUnits="userSpaceOnUse" x1="42.103" y1="30.845" x2="42.561" y2="44.249"><stop offset="0" stop-color="#fff"/><stop offset="1" stop-color="#fff"/></linearGradient><path opacity=".978" fill="url(#SVGID_52_)" d="M-18.844 32.734H103.51v9.65H-18.844z"/><linearGradient id="SVGID_53_" gradientUnits="userSpaceOnUse" x1="42.333" y1="31.643" x2="42.333" y2="41.001"><stop offset="0" stop-color="#fff"/><stop offset="1" stop-color="#fff"/></linearGradient><path fill="url(#SVGID_53_)" d="M-18.844 31.506H103.51v9.65H-18.844z"/></g></g></g><g><defs><path id="SVGID_54_" d="M132.496 58.357c.338-2.15 1.047-48.141.064-55.153-.533-3.817-4.162-4.784-12.389-4.784-11.841 0-75.874.233-85.895 1.275-5.451.559-9.258 1.15-11.074 1.825-4.892 1.805-8.761 8.467-4.544 13.56 2.338 2.825 6.605 3.337 9.997 3.691 15.82 1.65 29.663.492 41.025 1.05 2.698.134 7.65.483 7.876 3.626.223 3.142-1.939 3.375-4.656 3.975-4.05.909-8.317 2.492-8.623 6.676-.171 2.342.599 5.726 4.673 7.434 4.573 1.926 12.369 1.229 15.817 1.717 3.738.533 18.082-.45 18.672 3.942.464 3.45-7.966.237-7.966 8.942 0 5.888 10.218 5.879 14.739 6.604 3 .479 11.955.779 17.239-.021 3.791-.567 4.594-1.471 5.045-4.359z"/></defs><clipPath id="SVGID_55_"><use xlink:href="#SVGID_54_" overflow="visible"/></clipPath><g clip-path="url(#SVGID_55_)"><g><g><linearGradient id="SVGID_56_" gradientUnits="userSpaceOnUse" x1="12.722" y1="63.741" x2="135.076" y2="63.741"><stop offset="0" stop-color="#fff"/><stop offset="1" stop-color="#fff"/></linearGradient><linearGradient id="SVGID_57_" gradientUnits="userSpaceOnUse" x1="12.642" y1="60.236" x2="135.151" y2="64.421"><stop offset="0" stop-color="#fff"/><stop offset="1" stop-color="#fff"/></linearGradient><path opacity=".022" fill="url(#SVGID_57_)" d="M12.722 56.777h122.354v11.102H12.722z"/><linearGradient id="SVGID_58_" gradientUnits="userSpaceOnUse" x1="12.704" y1="56.729" x2="135.083" y2="65.1"><stop offset="0" stop-color="#fff"/><stop offset="1" stop-color="#fff"/></linearGradient><path opacity=".043" fill="url(#SVGID_58_)" d="M12.722 55.364h122.354v11.102H12.722z"/><linearGradient id="SVGID_59_" gradientUnits="userSpaceOnUse" x1="12.91" y1="53.231" x2="134.873" y2="65.769"><stop offset="0" stop-color="#fff"/><stop offset="1" stop-color="#fff"/></linearGradient><path opacity=".065" fill="url(#SVGID_59_)" d="M12.722 53.951h122.354v11.101H12.722z"/><linearGradient id="SVGID_60_" gradientUnits="userSpaceOnUse" x1="13.258" y1="49.753" x2="134.52" y2="66.42"><stop offset="0" stop-color="#fff"/><stop offset="1" stop-color="#fff"/></linearGradient><path opacity=".087" fill="url(#SVGID_60_)" d="M12.722 52.537h122.354v11.102H12.722z"/><linearGradient id="SVGID_61_" gradientUnits="userSpaceOnUse" x1="13.745" y1="46.303" x2="134.028" y2="67.042"><stop offset="0" stop-color="#fff"/><stop offset="1" stop-color="#fff"/></linearGradient><path opacity=".109" fill="url(#SVGID_61_)" d="M12.722 51.124h122.354v11.101H12.722z"/><linearGradient id="SVGID_62_" gradientUnits="userSpaceOnUse" x1="14.371" y1="42.891" x2="133.399" y2="67.626"><stop offset="0" stop-color="#fff"/><stop offset="1" stop-color="#fff"/></linearGradient><path opacity=".13" fill="url(#SVGID_62_)" d="M12.722 49.71h122.354v11.102H12.722z"/><linearGradient id="SVGID_63_" gradientUnits="userSpaceOnUse" x1="15.13" y1="39.526" x2="132.634" y2="68.162"><stop offset="0" stop-color="#fff"/><stop offset="1" stop-color="#fff"/></linearGradient><path opacity=".152" fill="url(#SVGID_63_)" d="M12.722 48.297h122.354v11.102H12.722z"/><linearGradient id="SVGID_64_" gradientUnits="userSpaceOnUse" x1="16.021" y1="36.218" x2="131.739" y2="68.641"><stop offset="0" stop-color="#fff"/><stop offset="1" stop-color="#fff"/></linearGradient><path opacity=".174" fill="url(#SVGID_64_)" d="M12.722 46.884h122.354v11.102H12.722z"/><linearGradient id="SVGID_65_" gradientUnits="userSpaceOnUse" x1="17.039" y1="32.974" x2="130.718" y2="69.055"><stop offset="0" stop-color="#fff"/><stop offset="1" stop-color="#fff"/></linearGradient><path opacity=".196" fill="url(#SVGID_65_)" d="M12.722 45.471h122.354v11.101H12.722z"/><linearGradient id="SVGID_66_" gradientUnits="userSpaceOnUse" x1="18.178" y1="29.805" x2="129.575" y2="69.395"><stop offset="0" stop-color="#fff"/><stop offset="1" stop-color="#fff"/></linearGradient><path opacity=".217" fill="url(#SVGID_66_)" d="M12.722 44.058h122.354V55.16H12.722z"/><linearGradient id="SVGID_67_" gradientUnits="userSpaceOnUse" x1="19.434" y1="26.717" x2="128.315" y2="69.654"><stop offset="0" stop-color="#fff"/><stop offset="1" stop-color="#fff"/></linearGradient><path opacity=".239" fill="url(#SVGID_67_)" d="M12.722 42.645h122.354v11.101H12.722z"/><linearGradient id="SVGID_68_" gradientUnits="userSpaceOnUse" x1="20.801" y1="23.718" x2="126.945" y2="69.822"><stop offset="0" stop-color="#fff"/><stop offset="1" stop-color="#fff"/></linearGradient><path opacity=".261" fill="url(#SVGID_68_)" d="M12.722 41.23h122.354v11.101H12.722z"/><linearGradient id="SVGID_69_" gradientUnits="userSpaceOnUse" x1="22.272" y1="20.815" x2="125.471" y2="69.895"><stop offset="0" stop-color="#fff"/><stop offset="1" stop-color="#fff"/></linearGradient><path opacity=".283" fill="url(#SVGID_69_)" d="M12.722 39.817h122.354v11.101H12.722z"/><linearGradient id="SVGID_70_" gradientUnits="userSpaceOnUse" x1="23.841" y1="18.017" x2="123.9" y2="69.863"><stop offset="0" stop-color="#fff"/><stop offset="1" stop-color="#fff"/></linearGradient><path opacity=".304" fill="url(#SVGID_70_)" d="M12.722 38.404h122.354v11.102H12.722z"/><linearGradient id="SVGID_71_" gradientUnits="userSpaceOnUse" x1="25.499" y1="15.328" x2="122.239" y2="69.722"><stop offset="0" stop-color="#fff"/><stop offset="1" stop-color="#fff"/></linearGradient><path opacity=".326" fill="url(#SVGID_71_)" d="M12.722 36.991h122.354v11.101H12.722z"/><linearGradient id="SVGID_72_" gradientUnits="userSpaceOnUse" x1="27.24" y1="12.754" x2="120.497" y2="69.465"><stop offset="0" stop-color="#fff"/><stop offset="1" stop-color="#fff"/></linearGradient><path opacity=".348" fill="url(#SVGID_72_)" d="M12.722 35.577h122.354v11.102H12.722z"/><linearGradient id="SVGID_73_" gradientUnits="userSpaceOnUse" x1="29.055" y1="10.302" x2="118.68" y2="69.087"><stop offset="0" stop-color="#fff"/><stop offset="1" stop-color="#fff"/></linearGradient><path opacity=".37" fill="url(#SVGID_73_)" d="M12.722 34.164h122.354v11.101H12.722z"/><linearGradient id="SVGID_74_" gradientUnits="userSpaceOnUse" x1="30.936" y1="7.975" x2="116.799" y2="68.584"><stop offset="0" stop-color="#fff"/><stop offset="1" stop-color="#fff"/></linearGradient><path opacity=".391" fill="url(#SVGID_74_)" d="M12.722 32.751h122.354v11.101H12.722z"/><linearGradient id="SVGID_75_" gradientUnits="userSpaceOnUse" x1="32.873" y1="5.778" x2="114.861" y2="67.951"><stop offset="0" stop-color="#fff"/><stop offset="1" stop-color="#fff"/></linearGradient><path opacity=".413" fill="url(#SVGID_75_)" d="M12.722 31.338h122.354v11.101H12.722z"/><linearGradient id="SVGID_76_" gradientUnits="userSpaceOnUse" x1="34.859" y1="3.713" x2="112.875" y2="67.184"><stop offset="0" stop-color="#fff"/><stop offset="1" stop-color="#fff"/></linearGradient><path opacity=".435" fill="url(#SVGID_76_)" d="M12.722 29.924h122.354v11.101H12.722z"/><linearGradient id="SVGID_77_" gradientUnits="userSpaceOnUse" x1="36.883" y1="1.786" x2="110.851" y2="66.282"><stop offset="0" stop-color="#fff"/><stop offset="1" stop-color="#fff"/></linearGradient><path opacity=".457" fill="url(#SVGID_77_)" d="M12.722 28.511h122.354v11.101H12.722z"/><linearGradient id="SVGID_78_" gradientUnits="userSpaceOnUse" x1="38.937" y1="-.004" x2="108.798" y2="65.242"><stop offset="0" stop-color="#fff"/><stop offset="1" stop-color="#fff"/></linearGradient><path opacity=".478" fill="url(#SVGID_78_)" d="M12.722 27.098h122.354v11.101H12.722z"/><linearGradient id="SVGID_79_" gradientUnits="userSpaceOnUse" x1="41.01" y1="-1.654" x2="106.726" y2="64.062"><stop offset="0" stop-color="#fff"/><stop offset="1" stop-color="#fff"/></linearGradient><path opacity=".5" fill="url(#SVGID_79_)" d="M12.722 25.685h122.354v11.101H12.722z"/><linearGradient id="SVGID_80_" gradientUnits="userSpaceOnUse" x1="43.094" y1="-3.163" x2="104.644" y2="62.741"><stop offset="0" stop-color="#fff"/><stop offset="1" stop-color="#fff"/></linearGradient><path opacity=".522" fill="url(#SVGID_80_)" d="M12.722 24.271h122.354v11.101H12.722z"/><linearGradient id="SVGID_81_" gradientUnits="userSpaceOnUse" x1="45.178" y1="-4.531" x2="102.561" y2="61.28"><stop offset="0" stop-color="#fff"/><stop offset="1" stop-color="#fff"/></linearGradient><path opacity=".543" fill="url(#SVGID_81_)" d="M12.722 22.858h122.354v11.101H12.722z"/><linearGradient id="SVGID_82_" gradientUnits="userSpaceOnUse" x1="47.252" y1="-5.758" x2="100.489" y2="59.678"><stop offset="0" stop-color="#fff"/><stop offset="1" stop-color="#fff"/></linearGradient><path opacity=".565" fill="url(#SVGID_82_)" d="M12.722 21.444h122.354v11.102H12.722z"/><linearGradient id="SVGID_83_" gradientUnits="userSpaceOnUse" x1="49.309" y1="-6.846" x2="98.435" y2="57.937"><stop offset="0" stop-color="#fff"/><stop offset="1" stop-color="#fff"/></linearGradient><path opacity=".587" fill="url(#SVGID_83_)" d="M12.722 20.031h122.354v11.101H12.722z"/><linearGradient id="SVGID_84_" gradientUnits="userSpaceOnUse" x1="51.337" y1="-7.795" x2="96.409" y2="56.058"><stop offset="0" stop-color="#fff"/><stop offset="1" stop-color="#fff"/></linearGradient><path opacity=".609" fill="url(#SVGID_84_)" d="M12.722 18.618h122.354v11.101H12.722z"/><linearGradient id="SVGID_85_" gradientUnits="userSpaceOnUse" x1="53.327" y1="-8.609" x2="94.421" y2="54.044"><stop offset="0" stop-color="#fff"/><stop offset="1" stop-color="#fff"/></linearGradient><path opacity=".63" fill="url(#SVGID_85_)" d="M12.722 17.205h122.354v11.101H12.722z"/><linearGradient id="SVGID_86_" gradientUnits="userSpaceOnUse" x1="55.271" y1="-9.29" x2="92.481" y2="51.898"><stop offset="0" stop-color="#fff"/><stop offset="1" stop-color="#fff"/></linearGradient><path opacity=".652" fill="url(#SVGID_86_)" d="M12.722 15.791h122.354v11.102H12.722z"/><linearGradient id="SVGID_87_" gradientUnits="userSpaceOnUse" x1="57.16" y1="-9.842" x2="90.595" y2="49.622"><stop offset="0" stop-color="#fff"/><stop offset="1" stop-color="#fff"/></linearGradient><path opacity=".674" fill="url(#SVGID_87_)" d="M12.722 14.378h122.354v11.101H12.722z"/><linearGradient id="SVGID_88_" gradientUnits="userSpaceOnUse" x1="58.984" y1="-10.269" x2="88.774" y2="47.223"><stop offset="0" stop-color="#fff"/><stop offset="1" stop-color="#fff"/></linearGradient><path opacity=".696" fill="url(#SVGID_88_)" d="M12.722 12.965h122.354v11.101H12.722z"/><linearGradient id="SVGID_89_" gradientUnits="userSpaceOnUse" x1="60.736" y1="-10.576" x2="87.026" y2="44.704"><stop offset="0" stop-color="#fff"/><stop offset="1" stop-color="#fff"/></linearGradient><path opacity=".717" fill="url(#SVGID_89_)" d="M12.722 11.551h122.354v11.101H12.722z"/><linearGradient id="SVGID_90_" gradientUnits="userSpaceOnUse" x1="62.407" y1="-10.768" x2="85.358" y2="42.07"><stop offset="0" stop-color="#fff"/><stop offset="1" stop-color="#fff"/></linearGradient><path opacity=".739" fill="url(#SVGID_90_)" d="M12.722 10.138h122.354V21.24H12.722z"/><linearGradient id="SVGID_91_" gradientUnits="userSpaceOnUse" x1="63.991" y1="-10.85" x2="83.778" y2="39.328"><stop offset="0" stop-color="#fff"/><stop offset="1" stop-color="#fff"/></linearGradient><path opacity=".761" fill="url(#SVGID_91_)" d="M12.722 8.725h122.354v11.101H12.722z"/><linearGradient id="SVGID_92_" gradientUnits="userSpaceOnUse" x1="65.479" y1="-10.83" x2="82.294" y2="36.483"><stop offset="0" stop-color="#fff"/><stop offset="1" stop-color="#fff"/></linearGradient><path opacity=".783" fill="url(#SVGID_92_)" d="M12.722 7.312h122.354v11.1H12.722z"/><linearGradient id="SVGID_93_" gradientUnits="userSpaceOnUse" x1="66.865" y1="-10.714" x2="80.912" y2="33.544"><stop offset="0" stop-color="#fff"/><stop offset="1" stop-color="#fff"/></linearGradient><path opacity=".804" fill="url(#SVGID_93_)" d="M12.722 5.898h122.354v11.101H12.722z"/><linearGradient id="SVGID_94_" gradientUnits="userSpaceOnUse" x1="68.143" y1="-10.509" x2="79.637" y2="30.515"><stop offset="0" stop-color="#fff"/><stop offset="1" stop-color="#fff"/></linearGradient><path opacity=".826" fill="url(#SVGID_94_)" d="M12.722 4.485h122.354v11.101H12.722z"/><linearGradient id="SVGID_95_" gradientUnits="userSpaceOnUse" x1="69.307" y1="-10.224" x2="78.477" y2="27.407"><stop offset="0" stop-color="#fff"/><stop offset="1" stop-color="#fff"/></linearGradient><path opacity=".848" fill="url(#SVGID_95_)" d="M12.722 3.072h122.354v11.101H12.722z"/><linearGradient id="SVGID_96_" gradientUnits="userSpaceOnUse" x1="70.351" y1="-9.865" x2="77.435" y2="24.225"><stop offset="0" stop-color="#fff"/><stop offset="1" stop-color="#fff"/></linearGradient><path opacity=".87" fill="url(#SVGID_96_)" d="M12.722 1.659h122.354v11.1H12.722z"/><linearGradient id="SVGID_97_" gradientUnits="userSpaceOnUse" x1="71.272" y1="-9.442" x2="76.517" y2="20.981"><stop offset="0" stop-color="#fff"/><stop offset="1" stop-color="#fff"/></linearGradient><path opacity=".891" fill="url(#SVGID_97_)" d="M12.722.245h122.354v11.101H12.722z"/><linearGradient id="SVGID_98_" gradientUnits="userSpaceOnUse" x1="72.065" y1="-8.962" x2="75.727" y2="17.68"><stop offset="0" stop-color="#fff"/><stop offset="1" stop-color="#fff"/></linearGradient><path opacity=".913" fill="url(#SVGID_98_)" d="M12.722-1.168h122.354V9.933H12.722z"/><linearGradient id="SVGID_99_" gradientUnits="userSpaceOnUse" x1="72.727" y1="-8.435" x2="75.067" y2="14.332"><stop offset="0" stop-color="#fff"/><stop offset="1" stop-color="#fff"/></linearGradient><path opacity=".935" fill="url(#SVGID_99_)" d="M12.722-2.582h122.354V8.519H12.722z"/><linearGradient id="SVGID_100_" gradientUnits="userSpaceOnUse" x1="73.254" y1="-7.87" x2="74.541" y2="10.946"><stop offset="0" stop-color="#fff"/><stop offset="1" stop-color="#fff"/></linearGradient><path opacity=".957" fill="url(#SVGID_100_)" d="M12.722-3.995h122.354v11.1H12.722z"/><linearGradient id="SVGID_101_" gradientUnits="userSpaceOnUse" x1="73.646" y1="-7.277" x2="74.152" y2="7.533"><stop offset="0" stop-color="#fff"/><stop offset="1" stop-color="#fff"/></linearGradient><path opacity=".978" fill="url(#SVGID_101_)" d="M12.722-5.408h122.354V5.693H12.722z"/><linearGradient id="SVGID_102_" gradientUnits="userSpaceOnUse" x1="73.899" y1="-6.663" x2="73.899" y2="4.101"><stop offset="0" stop-color="#fff"/><stop offset="1" stop-color="#fff"/></linearGradient><path fill="url(#SVGID_102_)" d="M12.722-6.821h122.354V4.28H12.722z"/></g></g></g></g><g><defs><path id="SVGID_103_" d="M127.299 128.475c1.869-.208 3.039-1.608 3.732-3.555 1.213-3.408 1.377-18.613.561-21.372-.613-2.071-.367-6.638-.367-6.638s-45.541 0-55.379.237c-1.656.038-7.43-.146-10.344 3.496-3.786 4.733 1.802 7.551 3.238 8.03 3.837 1.267 9.499.033 9 3.483-.195 1.358-.945 1.996-4.788 2.079-17.112.366-28.551.583-39.935.688-4.805.042-6.586 1.208-8.515 2.934-2.119 1.888-2.792 6.171-.296 8.93 2.166 2.392 5.825 2.546 8.676 2.546 34.239 0 84.937.213 94.417-.858z"/></defs><clipPath id="SVGID_104_"><use xlink:href="#SVGID_103_" overflow="visible"/></clipPath><g clip-path="url(#SVGID_104_)"><g><linearGradient id="SVGID_105_" gradientUnits="userSpaceOnUse" x1="19.558" y1="131.292" x2="141.912" y2="131.292"><stop offset="0" stop-color="#fff"/><stop offset="1" stop-color="#fff"/></linearGradient><linearGradient id="SVGID_106_" gradientUnits="userSpaceOnUse" x1="19.558" y1="128.38" x2="141.908" y2="132.559"><stop offset="0" stop-color="#fff"/><stop offset="1" stop-color="#fff"/></linearGradient><path opacity=".022" fill="url(#SVGID_106_)" d="M19.559 127.241h122.354v6.457H19.559z"/><linearGradient id="SVGID_107_" gradientUnits="userSpaceOnUse" x1="19.699" y1="125.472" x2="141.762" y2="133.821"><stop offset="0" stop-color="#fff"/><stop offset="1" stop-color="#fff"/></linearGradient><path opacity=".043" fill="url(#SVGID_107_)" d="M19.558 126.418h122.354v6.458H19.558z"/><linearGradient id="SVGID_108_" gradientUnits="userSpaceOnUse" x1="19.982" y1="122.579" x2="141.473" y2="135.069"><stop offset="0" stop-color="#fff"/><stop offset="1" stop-color="#fff"/></linearGradient><path opacity=".065" fill="url(#SVGID_108_)" d="M19.558 125.596h122.354v6.458H19.558z"/><linearGradient id="SVGID_109_" gradientUnits="userSpaceOnUse" x1="20.406" y1="119.711" x2="141.044" y2="136.292"><stop offset="0" stop-color="#fff"/><stop offset="1" stop-color="#fff"/></linearGradient><path opacity=".087" fill="url(#SVGID_109_)" d="M19.558 124.774h122.354v6.458H19.558z"/><linearGradient id="SVGID_110_" gradientUnits="userSpaceOnUse" x1="20.969" y1="116.876" x2="140.477" y2="137.481"><stop offset="0" stop-color="#fff"/><stop offset="1" stop-color="#fff"/></linearGradient><path opacity=".109" fill="url(#SVGID_110_)" d="M19.558 123.951h122.354v6.459H19.558z"/><linearGradient id="SVGID_111_" gradientUnits="userSpaceOnUse" x1="21.667" y1="114.084" x2="139.774" y2="138.627"><stop offset="0" stop-color="#fff"/><stop offset="1" stop-color="#fff"/></linearGradient><path opacity=".13" fill="url(#SVGID_111_)" d="M19.558 123.129h122.354v6.458H19.558z"/><linearGradient id="SVGID_112_" gradientUnits="userSpaceOnUse" x1="22.498" y1="111.345" x2="138.939" y2="139.72"><stop offset="0" stop-color="#fff"/><stop offset="1" stop-color="#fff"/></linearGradient><path opacity=".152" fill="url(#SVGID_112_)" d="M19.558 122.308h122.354v6.458H19.558z"/><linearGradient id="SVGID_113_" gradientUnits="userSpaceOnUse" x1="23.457" y1="108.666" x2="137.976" y2="140.752"><stop offset="0" stop-color="#fff"/><stop offset="1" stop-color="#fff"/></linearGradient><path opacity=".174" fill="url(#SVGID_113_)" d="M19.558 121.485h122.354v6.458H19.558z"/><linearGradient id="SVGID_114_" gradientUnits="userSpaceOnUse" x1="24.54" y1="106.057" x2="136.888" y2="141.715"><stop offset="0" stop-color="#fff"/><stop offset="1" stop-color="#fff"/></linearGradient><path opacity=".196" fill="url(#SVGID_114_)" d="M19.558 120.663h122.354v6.459H19.558z"/><linearGradient id="SVGID_115_" gradientUnits="userSpaceOnUse" x1="25.742" y1="103.525" x2="135.683" y2="142.599"><stop offset="0" stop-color="#fff"/><stop offset="1" stop-color="#fff"/></linearGradient><path opacity=".217" fill="url(#SVGID_115_)" d="M19.558 119.841h122.354v6.458H19.558z"/><linearGradient id="SVGID_116_" gradientUnits="userSpaceOnUse" x1="27.057" y1="101.08" x2="134.365" y2="143.397"><stop offset="0" stop-color="#fff"/><stop offset="1" stop-color="#fff"/></linearGradient><path opacity=".239" fill="url(#SVGID_116_)" d="M19.558 119.019h122.354v6.458H19.558z"/><linearGradient id="SVGID_117_" gradientUnits="userSpaceOnUse" x1="28.479" y1="98.728" x2="132.94" y2="144.101"><stop offset="0" stop-color="#fff"/><stop offset="1" stop-color="#fff"/></linearGradient><path opacity=".261" fill="url(#SVGID_117_)" d="M19.558 118.196h122.354v6.458H19.558z"/><linearGradient id="SVGID_118_" gradientUnits="userSpaceOnUse" x1="30.001" y1="96.476" x2="131.415" y2="144.706"><stop offset="0" stop-color="#fff"/><stop offset="1" stop-color="#fff"/></linearGradient><path opacity=".283" fill="url(#SVGID_118_)" d="M19.558 117.374h122.354v6.458H19.558z"/><linearGradient id="SVGID_119_" gradientUnits="userSpaceOnUse" x1="31.617" y1="94.331" x2="129.797" y2="145.203"><stop offset="0" stop-color="#fff"/><stop offset="1" stop-color="#fff"/></linearGradient><path opacity=".304" fill="url(#SVGID_119_)" d="M19.558 116.553h122.354v6.458H19.558z"/><linearGradient id="SVGID_120_" gradientUnits="userSpaceOnUse" x1="33.318" y1="92.298" x2="128.094" y2="145.588"><stop offset="0" stop-color="#fff"/><stop offset="1" stop-color="#fff"/></linearGradient><path opacity=".326" fill="url(#SVGID_120_)" d="M19.558 115.73h122.354v6.458H19.558z"/><linearGradient id="SVGID_121_" gradientUnits="userSpaceOnUse" x1="35.097" y1="90.384" x2="126.313" y2="145.854"><stop offset="0" stop-color="#fff"/><stop offset="1" stop-color="#fff"/></linearGradient><path opacity=".348" fill="url(#SVGID_121_)" d="M19.558 114.908h122.354v6.458H19.558z"/><linearGradient id="SVGID_122_" gradientUnits="userSpaceOnUse" x1="36.945" y1="88.593" x2="124.464" y2="145.997"><stop offset="0" stop-color="#fff"/><stop offset="1" stop-color="#fff"/></linearGradient><path opacity=".37" fill="url(#SVGID_122_)" d="M19.558 114.086h122.354v6.458H19.558z"/><linearGradient id="SVGID_123_" gradientUnits="userSpaceOnUse" x1="38.853" y1="86.929" x2="122.555" y2="146.012"><stop offset="0" stop-color="#fff"/><stop offset="1" stop-color="#fff"/></linearGradient><path opacity=".391" fill="url(#SVGID_123_)" d="M19.558 113.264h122.354v6.458H19.558z"/><linearGradient id="SVGID_124_" gradientUnits="userSpaceOnUse" x1="40.814" y1="85.397" x2="120.594" y2="145.896"><stop offset="0" stop-color="#fff"/><stop offset="1" stop-color="#fff"/></linearGradient><path opacity=".413" fill="url(#SVGID_124_)" d="M19.558 112.441h122.354v6.458H19.558z"/><linearGradient id="SVGID_125_" gradientUnits="userSpaceOnUse" x1="42.817" y1="84" x2="118.59" y2="145.645"><stop offset="0" stop-color="#fff"/><stop offset="1" stop-color="#fff"/></linearGradient><path opacity=".435" fill="url(#SVGID_125_)" d="M19.558 111.619h122.354v6.458H19.558z"/><linearGradient id="SVGID_126_" gradientUnits="userSpaceOnUse" x1="44.854" y1="82.74" x2="116.554" y2="145.259"><stop offset="0" stop-color="#fff"/><stop offset="1" stop-color="#fff"/></linearGradient><path opacity=".457" fill="url(#SVGID_126_)" d="M19.558 110.797h122.354v6.458H19.558z"/><linearGradient id="SVGID_127_" gradientUnits="userSpaceOnUse" x1="46.915" y1="81.618" x2="114.494" y2="144.733"><stop offset="0" stop-color="#fff"/><stop offset="1" stop-color="#fff"/></linearGradient><path opacity=".478" fill="url(#SVGID_127_)" d="M19.558 109.975h122.354v6.459H19.558z"/><linearGradient id="SVGID_128_" gradientUnits="userSpaceOnUse" x1="48.99" y1="80.637" x2="112.42" y2="144.067"><stop offset="0" stop-color="#fff"/><stop offset="1" stop-color="#fff"/></linearGradient><path opacity=".5" fill="url(#SVGID_128_)" d="M19.558 109.153h122.354v6.458H19.558z"/><linearGradient id="SVGID_129_" gradientUnits="userSpaceOnUse" x1="51.07" y1="79.797" x2="110.341" y2="143.26"><stop offset="0" stop-color="#fff"/><stop offset="1" stop-color="#fff"/></linearGradient><path opacity=".522" fill="url(#SVGID_129_)" d="M19.558 108.331h122.354v6.458H19.558z"/><linearGradient id="SVGID_130_" gradientUnits="userSpaceOnUse" x1="53.146" y1="79.097" x2="108.267" y2="142.313"><stop offset="0" stop-color="#fff"/><stop offset="1" stop-color="#fff"/></linearGradient><path opacity=".543" fill="url(#SVGID_130_)" d="M19.558 107.509h122.354v6.458H19.558z"/><linearGradient id="SVGID_131_" gradientUnits="userSpaceOnUse" x1="55.207" y1="78.537" x2="106.209" y2="141.227"><stop offset="0" stop-color="#fff"/><stop offset="1" stop-color="#fff"/></linearGradient><path opacity=".565" fill="url(#SVGID_131_)" d="M19.558 106.687h122.354v6.458H19.558z"/><linearGradient id="SVGID_132_" gradientUnits="userSpaceOnUse" x1="57.244" y1="78.115" x2="104.174" y2="140.002"><stop offset="0" stop-color="#fff"/><stop offset="1" stop-color="#fff"/></linearGradient><path opacity=".587" fill="url(#SVGID_132_)" d="M19.558 105.864h122.354v6.458H19.558z"/><linearGradient id="SVGID_133_" gradientUnits="userSpaceOnUse" x1="59.247" y1="77.83" x2="102.173" y2="138.642"><stop offset="0" stop-color="#fff"/><stop offset="1" stop-color="#fff"/></linearGradient><path opacity=".609" fill="url(#SVGID_133_)" d="M19.558 105.042h122.354v6.458H19.558z"/><linearGradient id="SVGID_134_" gradientUnits="userSpaceOnUse" x1="61.209" y1="77.679" x2="100.215" y2="137.148"><stop offset="0" stop-color="#fff"/><stop offset="1" stop-color="#fff"/></linearGradient><path opacity=".63" fill="url(#SVGID_134_)" d="M19.558 104.22h122.354v6.459H19.558z"/><linearGradient id="SVGID_135_" gradientUnits="userSpaceOnUse" x1="63.119" y1="77.658" x2="98.308" y2="135.524"><stop offset="0" stop-color="#fff"/><stop offset="1" stop-color="#fff"/></linearGradient><path opacity=".652" fill="url(#SVGID_135_)" d="M19.558 103.398h122.354v6.458H19.558z"/><linearGradient id="SVGID_136_" gradientUnits="userSpaceOnUse" x1="64.969" y1="77.764" x2="96.461" y2="133.773"><stop offset="0" stop-color="#fff"/><stop offset="1" stop-color="#fff"/></linearGradient><path opacity=".674" fill="url(#SVGID_136_)" d="M19.558 102.575h122.354v6.459H19.558z"/><linearGradient id="SVGID_137_" gradientUnits="userSpaceOnUse" x1="66.75" y1="77.992" x2="94.683" y2="131.901"><stop offset="0" stop-color="#fff"/><stop offset="1" stop-color="#fff"/></linearGradient><path opacity=".696" fill="url(#SVGID_137_)" d="M19.558 101.754h122.354v6.458H19.558z"/><linearGradient id="SVGID_138_" gradientUnits="userSpaceOnUse" x1="68.454" y1="78.337" x2="92.982" y2="129.913"><stop offset="0" stop-color="#fff"/><stop offset="1" stop-color="#fff"/></linearGradient><path opacity=".717" fill="url(#SVGID_138_)" d="M19.558 100.931h122.354v6.458H19.558z"/><linearGradient id="SVGID_139_" gradientUnits="userSpaceOnUse" x1="70.074" y1="78.794" x2="91.366" y2="127.814"><stop offset="0" stop-color="#fff"/><stop offset="1" stop-color="#fff"/></linearGradient><path opacity=".739" fill="url(#SVGID_139_)" d="M19.558 100.109h122.354v6.458H19.558z"/><linearGradient id="SVGID_140_" gradientUnits="userSpaceOnUse" x1="71.602" y1="79.356" x2="89.842" y2="125.609"><stop offset="0" stop-color="#fff"/><stop offset="1" stop-color="#fff"/></linearGradient><path opacity=".761" fill="url(#SVGID_140_)" d="M19.558 99.287h122.354v6.459H19.558z"/><linearGradient id="SVGID_141_" gradientUnits="userSpaceOnUse" x1="73.031" y1="80.017" x2="88.416" y2="123.306"><stop offset="0" stop-color="#fff"/><stop offset="1" stop-color="#fff"/></linearGradient><path opacity=".783" fill="url(#SVGID_141_)" d="M19.558 98.465h122.354v6.458H19.558z"/><linearGradient id="SVGID_142_" gradientUnits="userSpaceOnUse" x1="74.355" y1="80.769" x2="87.096" y2="120.913"><stop offset="0" stop-color="#fff"/><stop offset="1" stop-color="#fff"/></linearGradient><path opacity=".804" fill="url(#SVGID_142_)" d="M19.558 97.643h122.354v6.459H19.558z"/><linearGradient id="SVGID_143_" gradientUnits="userSpaceOnUse" x1="75.567" y1="81.606" x2="85.886" y2="118.435"><stop offset="0" stop-color="#fff"/><stop offset="1" stop-color="#fff"/></linearGradient><path opacity=".826" fill="url(#SVGID_143_)" d="M19.558 96.82h122.354v6.459H19.558z"/><linearGradient id="SVGID_144_" gradientUnits="userSpaceOnUse" x1="76.663" y1="82.519" x2="84.793" y2="115.881"><stop offset="0" stop-color="#fff"/><stop offset="1" stop-color="#fff"/></linearGradient><path opacity=".848" fill="url(#SVGID_144_)" d="M19.558 95.998h122.354v6.459H19.558z"/><linearGradient id="SVGID_145_" gradientUnits="userSpaceOnUse" x1="77.638" y1="83.502" x2="83.822" y2="113.26"><stop offset="0" stop-color="#fff"/><stop offset="1" stop-color="#fff"/></linearGradient><path opacity=".87" fill="url(#SVGID_145_)" d="M19.558 95.176h122.354v6.458H19.558z"/><linearGradient id="SVGID_146_" gradientUnits="userSpaceOnUse" x1="78.487" y1="84.543" x2="82.976" y2="110.579"><stop offset="0" stop-color="#fff"/><stop offset="1" stop-color="#fff"/></linearGradient><path opacity=".891" fill="url(#SVGID_146_)" d="M19.558 94.354h122.354v6.459H19.558z"/><linearGradient id="SVGID_147_" gradientUnits="userSpaceOnUse" x1="79.206" y1="85.636" x2="82.259" y2="107.848"><stop offset="0" stop-color="#fff"/><stop offset="1" stop-color="#fff"/></linearGradient><path opacity=".913" fill="url(#SVGID_147_)" d="M19.558 93.532h122.354v6.459H19.558z"/><linearGradient id="SVGID_148_" gradientUnits="userSpaceOnUse" x1="79.793" y1="86.77" x2="81.674" y2="105.075"><stop offset="0" stop-color="#fff"/><stop offset="1" stop-color="#fff"/></linearGradient><path opacity=".935" fill="url(#SVGID_148_)" d="M19.558 92.71h122.354v6.459H19.558z"/><linearGradient id="SVGID_149_" gradientUnits="userSpaceOnUse" x1="80.244" y1="87.939" x2="81.224" y2="102.269"><stop offset="0" stop-color="#fff"/><stop offset="1" stop-color="#fff"/></linearGradient><path opacity=".957" fill="url(#SVGID_149_)" d="M19.558 91.888h122.354v6.459H19.558z"/><linearGradient id="SVGID_150_" gradientUnits="userSpaceOnUse" x1="80.559" y1="89.129" x2="80.911" y2="99.441"><stop offset="0" stop-color="#fff"/><stop offset="1" stop-color="#fff"/></linearGradient><path opacity=".978" fill="url(#SVGID_150_)" d="M19.558 91.065h122.354v6.459H19.558z"/><linearGradient id="SVGID_151_" gradientUnits="userSpaceOnUse" x1="80.735" y1="90.335" x2="80.735" y2="96.598"><stop offset="0" stop-color="#fff"/><stop offset="1" stop-color="#fff"/></linearGradient><path fill="url(#SVGID_151_)" d="M19.558 90.243h122.354v6.459H19.558z"/></g></g></g></g></g></svg>