<svg id="レイヤー_1" xmlns="http://www.w3.org/2000/svg" viewBox="0 0 128 128"><g><path fill="#fcc21b" d="M119.389 56.234h-34.35v43.457H47.637V85.239H11.756v37.407h24.349v.762h72.594v-5.346h10.69z"/><g><path d="M71.191 34.954c.525.438.865 1.387.738 2.078l-.633 3.823c-.113.691.279.958.879.603l3.303-1.963c.586-.368 1.588-.381 2.186-.048l3.395 1.824c.617.333.998.044.846-.647l-.805-3.785c-.137-.683.162-1.653.66-2.113l2.693-2.586c.512-.476.355-.958-.332-1.036l-3.783-.447c-.699-.074-1.518-.656-1.828-1.281l-1.684-3.311c-.307-.613-.797-.608-1.086.018l-1.514 3.376c-.287.652-1.084 1.26-1.775 1.369l-3.775.608c-.682.105-.816.586-.293 1.045l2.808 2.473z" fill="#fcc21b"/><path d="M89.107 13.678c.525.438.865 1.386.738 2.078l-.635 3.823c-.113.691.281.958.881.604l3.303-1.964c.586-.367 1.588-.38 2.186-.048l3.395 1.824c.617.332.998.043.846-.647l-.805-3.784c-.137-.682.162-1.654.66-2.113l2.693-2.585c.514-.477.355-.958-.332-1.037l-3.783-.446c-.701-.074-1.518-.656-1.828-1.281L94.742 4.79c-.307-.613-.797-.608-1.086.017l-1.514 3.377c-.287.652-1.084 1.26-1.775 1.369l-3.775.608c-.682.105-.816.587-.293 1.046l2.808 2.471z" fill="#fcc21b"/><path d="M56.152 52.927c1.488-.311 5.258-1.378 5.084-3.442-.211-2.502-5.543-3.014-7.35-3.525-14.732-4.156-17.636-26.29-6.804-36.162 1.631-1.487 3.463-2.747 5.221-4.073 1.043-.783 4.463-1.924 4.143-3.635C55.952.043 50.1.043 48.608.048 43.021.065 37.41 1.325 32.436 3.923 25.223 7.689 20.49 15.572 19.781 23.515c-.699 7.878.233 14.562 5.998 20.401 8.36 8.464 18.869 11.43 30.373 9.011z" fill="#fcc21b"/><path d="M112.986 50.691H87.799c-5.238 0-9.521 4.287-9.521 9.523v31.76H51.096v-5.445c0-5.236-4.285-9.523-9.521-9.523H15.014c-5.24 0-9.521 4.287-9.521 9.523v31.905c0 .28.057.542.082.818v8.701h116.933V60.214c0-5.235-4.285-9.523-9.522-9.523zm-91.91 63.885a2.627 2.627 0 0 1-2.615 2.621h-3.062a2.627 2.627 0 0 1-2.615-2.621v-4.864a2.624 2.624 0 0 1 2.615-2.615h3.062a2.624 2.624 0 0 1 2.615 2.615v4.864zm0-14.885a2.626 2.626 0 0 1-2.615 2.62h-3.062a2.626 2.626 0 0 1-2.615-2.62v-4.864a2.625 2.625 0 0 1 2.615-2.616h3.062a2.625 2.625 0 0 1 2.615 2.616v4.864zm11.662 14.885a2.627 2.627 0 0 1-2.615 2.621H27.06a2.627 2.627 0 0 1-2.615-2.621v-4.864a2.624 2.624 0 0 1 2.615-2.615h3.062a2.624 2.624 0 0 1 2.615 2.615v4.864zm0-14.885a2.626 2.626 0 0 1-2.615 2.62H27.06a2.626 2.626 0 0 1-2.615-2.62v-4.864a2.625 2.625 0 0 1 2.615-2.616h3.062a2.625 2.625 0 0 1 2.615 2.616v4.864zm11.662 0c0 1.207-.844 2.183-1.955 2.484-.221.057-.43.136-.662.136h-3.061a2.628 2.628 0 0 1-2.617-2.62v-4.864a2.627 2.627 0 0 1 2.617-2.616h3.061c.232 0 .441.075.662.136 1.111.297 1.955 1.277 1.955 2.479v4.865zm11.661 14.885a2.627 2.627 0 0 1-2.615 2.621h-3.063a2.627 2.627 0 0 1-2.615-2.621v-4.864a2.624 2.624 0 0 1 2.615-2.615h3.063a2.625 2.625 0 0 1 2.615 2.615v4.864zm38.943-45.613a2.628 2.628 0 0 1-2.621 2.616h-3.057a2.625 2.625 0 0 1-2.621-2.616v-4.864a2.629 2.629 0 0 1 2.621-2.62h3.057a2.63 2.63 0 0 1 2.621 2.62v4.864zm9.256 31.59c0 .481-1.178 1.658-2.615 1.658h-3.062a2.623 2.623 0 0 1-2.615-2.616v-4.864c0-1.44 1.176-2.62 2.615-2.62h3.062c1.438 0 2.615 1.181 2.615 1.662v6.78zm11.197-14.557c0 .481-1.176 1.658-2.615 1.658h-3.062a2.623 2.623 0 0 1-2.615-2.616v-4.864a2.626 2.626 0 0 1 2.615-2.616h3.062c1.44 0 2.615 1.181 2.615 1.658v6.78zm0-16.076c0 .481-1.176 1.658-2.615 1.658h-3.062a2.623 2.623 0 0 1-2.615-2.616v-4.864a2.626 2.626 0 0 1 2.615-2.62h3.062c1.44 0 2.615 1.181 2.615 1.662v6.78z" fill="#006ca2"/></g></g></svg>