<svg id="レイヤー_1" xmlns="http://www.w3.org/2000/svg" viewBox="0 0 128 128"><g><path d="M119.2 64.907l.009-.015c.317.116.645.227 1.005.292.396.071.765.101 1.105.101 1.552 0 2.973-.608 4.013-1.713 1.778-1.881 1.9-4.618 1.816-6.08-.102-1.803-.713-3.607-1.869-5.519-4.05-6.709-14.506-12.555-26.009-14.547-8.436-1.459-13.017-1.569-21.158-.534a58.415 58.415 0 0 0-12.964 3.182c-.611.227-1.477.578-2.065.883-9.32 3.896-15.703 7.806-20.687 12.676l-.848.805c-3.545 3.344-12.963 12.226-17.979 22.915 0 0-3.142 5.711-6.675 16.08-5.35 15.683-8.372 17.358-14.385 14.802-.5-.254-1.679-.534-1.679.637 1.71 7.177 17.558 10.588 26.55 10.265 13.532-.487 25.415-10.127 26.23-10.789 1.054-.852 1.732-.345 2.378.09 2.199 1.482 12.28 8.024 26.017 10.699 7.674 1.495 14.373 1.781 20.183.851 10.698-1.713 17.962-6.966 21.937-10.523 1.329-1.188 1.408-1.999-.042-1.718-1.919.371-7.306 2.029-14.646-.159-5.554-1.66-7.911-4.063-9.18-4.939-.223-.154-.949-.496-1.819.108-2.937 2.035-9.388 3.015-13.628 1.803-6.807-1.945-10.639-4.68-12.522-7.598-1.405-2.172-1.827-4.139-1.921-5.906-.205-3.881 2.032-6.393 3.966-7.361 3.975-1.99 7.028 1.18 7.257 1.516.897 1.337 2.265 3.358 4.691 4.02a7.71 7.71 0 0 0 2.018.281c3.002 0 6.192-2.027 7.044-7.42l.023.015s.419-1.43 1.589-.83l.007-.015a7.433 7.433 0 0 0 2.196.962 5.77 5.77 0 0 0 1.402.174c3.575 0 5.771-3.214 6.355-6.395.212-1.128.205-2.196.129-3.234l.039.021s.166-1.074 1.169-.589l.005-.014a6.47 6.47 0 0 0 1.998.789c.41.083.823.127 1.233.127 3.96 0 6.384-3.765 6.444-7.409 0-.145-.016-.277-.016-.42l.012.003s-.102-.991 1.272-.37z" fill="#40c0e7"/><g><path d="M76.178 63.154c-.129-2.078-.531-4.909-1.772-6.664-1.134-1.601-6.406-13.367-7.912-12.765-8.004 3.208-15.581 7.019-21.378 12.691-2.226 2.175-12.802 11.466-18.026 22.598-.67 1.417-.245 2.746.68 3.187 1.839.874 3.025-.145 3.98-1.915 1.57-2.918 4.863-6.978 7.037-9.38 1.91-2.101 3.674-2.138 4.141-1.918.889.421 1.481 1.562.464 2.998-2.835 3.337-5.606 7.24-7.584 11.437-.661 1.417-.238 2.747.685 3.188 1.839.874 3.032-.145 3.972-1.915 1.579-2.918 4.872-6.98 7.05-9.38 1.903-2.101 3.67-2.139 4.133-1.918.885.421.981 1.599.393 2.568-.578.958-2.557 4.274-2.9 4.909-.349.646-1.143 1.961-1.755 3.426-.688 1.646-.696 3.45 1.091 3.807.751.145 2.095-.684 2.438-1.101 1.452-1.718 2.808-4.02 4.909-6.459 1.144-1.322 2.279-1.858 3.26-1.094 1.009.79.506 2.067.068 2.91-1.778 3.453-2.83 6.626-2.107 7.705 1.229 1.843 3.658-.083 4.345-.87.786-.923 1.729-2.11 2.771-3.164 1.8-1.824 3.57-3.965 7.324-5.345 2.071-.762 4.229-4.803 4.52-6.96.47-3.415.382-7.145.173-10.576z" fill="#006ca2"/><path d="M98.607 41.259c-7.601-1.316-12.37-1.479-20.005-.507a54.238 54.238 0 0 0-12.108 2.973c-1.137.417-3.301 1.295-3.997 2.388-1.143 1.803.513 2.925 2.087 3.109 1.602.188 3.319-.211 4.908.036 2.519.392 1.367 2.562-.054 3.471-1.508.962-3.487 1.092-4.87 2.254-1.589 1.335-1.744 3.42.513 3.981 1.098.271 2.252.141 3.378.247 1.939.183 2.097 1.693 1.109 3.073-1.148 1.608-3.482 1.892-4.521 3.615-.708 1.182-.411 2.131.816 2.709 1.19.561 2.687.418 3.946.715.617.144 1.285.359 1.719.841 2.758 3.078-6.557 6.269-4.368 9.838.357.583.872.935 1.54 1.034.671.102 1.627.11 2.244-.141 2.477-.996 5.34-1.978 8.045-1.626a8.062 8.062 0 0 1 4.642 2.226c1.148 1.104 2.063 3.543 3.67 3.98 3.656.996 4.346-3.419 4.39-6.029.034-1.93-1.676-8.377 2.167-7.16 1.453.46 2.257 1.979 3.007 3.192.812 1.319 1.652 2.572 3.241 2.971 1.785.448 2.738-1.822 2.985-3.159.418-2.245-.258-4.559-.632-6.766-.227-1.355-.215-3.026 1.255-3.695 1.433-.652 2.947.423 3.912 1.401.985 1 1.938 2.631 3.409 2.934 1.982.407 2.979-1.896 3.006-3.53.021-1.747-.484-3.444-.779-5.151-.104-.585-.376-1.516-.174-2.11.303-.896 1.014-1.248 1.909-1.007 1.121.302 2.134.948 2.968 1.752.869.841 1.653 2.005 2.937 2.237 2.15.385 2.451-2.13 2.364-3.642-.077-1.335-.632-2.596-1.315-3.728-3.472-5.747-13.118-10.955-23.344-12.726z" fill="#fff"/></g></g></svg>