<svg id="レイヤー_1" xmlns="http://www.w3.org/2000/svg" xmlns:xlink="http://www.w3.org/1999/xlink" viewBox="0 0 128 128"><g><g><defs><path id="SVGID_1_" d="M127.99 115.895c0 6.655-5.441 12.097-12.096 12.097H12.096C5.441 127.992 0 122.55 0 115.895V12.097C0 5.442 5.441 0 12.096 0h103.799c6.654 0 12.096 5.442 12.096 12.097v103.798z"/></defs><use xlink:href="#SVGID_1_" overflow="visible" fill="#006ca2"/><clipPath id="SVGID_2_"><use xlink:href="#SVGID_1_" overflow="visible"/></clipPath><g clip-path="url(#SVGID_2_)"><g><g fill="#fff"><path d="M28.045 104.887h15.65v29.24h-15.65z"/><path d="M85.537 104.887h15.656v29.24H85.537z"/></g><g fill="#fff"><path d="M28.045 104.887h15.65v13.886h-15.65z"/><path d="M85.537 104.887h15.656v13.886H85.537z"/></g><g><path fill="#fff" d="M-4.588 98.586h145.373v12.6H-4.588z"/><path fill="#fff" d="M-4.588 98.586h145.373v4.937H-4.588z"/><g><g><g><defs><path id="SVGID_3_" d="M-3.293 79.854C37.094 72.1 64.615 34.773 64.615 34.773h.008s27.521 37.326 67.91 45.081v26.163H-4.588l1.295-26.163z"/></defs><clipPath id="SVGID_4_"><use xlink:href="#SVGID_3_" overflow="visible"/></clipPath><g clip-path="url(#SVGID_4_)" fill="#fff"><path d="M60.443 5.501h8.346v99.305h-8.346z"/><g><path d="M44.635 5.501h5.07v99.305h-5.07z"/><path d="M27.516 5.501h5.074v99.305h-5.074z"/><path d="M10.387 5.501h5.082v99.305h-5.082z"/></g><g><path d="M80.031 5.501h5.072v99.305h-5.072z"/><path d="M97.15 5.501h5.082v99.305H97.15z"/><path d="M114.27 5.501h5.08v99.305h-5.08z"/></g></g></g></g></g><path d="M132.533 82.081c-.145 0-.279-.013-.424-.04-35.404-6.798-60.701-35.267-67.5-43.66-6.854 8.378-32.408 36.927-67.478 43.66a2.23 2.23 0 1 1-.842-4.379c39.07-7.5 66.26-43.847 66.531-44.214.842-1.136 2.75-1.129 3.59 0 1.121 1.499 27.871 36.79 66.539 44.214a2.231 2.231 0 0 1 1.771 2.608 2.232 2.232 0 0 1-2.187 1.811z" fill="#fff"/></g><g fill="#fcc21b"><path d="M105.925 12.315a3.873 3.873 0 0 1-3.875 3.877 3.878 3.878 0 0 1 0-7.754 3.874 3.874 0 0 1 3.875 3.877z"/><path d="M49.312 10.979a3.874 3.874 0 0 1-3.877 3.876 3.873 3.873 0 0 1-3.877-3.876 3.877 3.877 0 0 1 7.754 0z"/><path d="M23.786 34.564a3.879 3.879 0 0 1-3.877 3.876 3.884 3.884 0 0 1-3.877-3.876 3.876 3.876 0 1 1 7.754 0z"/><path d="M17.302 54.785a3.31 3.31 0 1 1-6.618-.002 3.31 3.31 0 0 1 6.618.002z"/><circle cx="18.298" cy="14.856" r="2.408"/><path d="M44.783 33.119a2.41 2.41 0 0 1-2.406 2.408 2.41 2.41 0 0 1-2.41-2.408 2.41 2.41 0 0 1 2.41-2.415 2.41 2.41 0 0 1 2.406 2.415z"/><path d="M85.937 15.54a2.405 2.405 0 0 1-2.408 2.408 2.404 2.404 0 0 1-2.408-2.408 2.41 2.41 0 0 1 2.408-2.415 2.412 2.412 0 0 1 2.408 2.415z"/><path d="M93.773 34.773a2.41 2.41 0 0 1-2.416 2.408 2.41 2.41 0 0 1 0-4.816 2.41 2.41 0 0 1 2.416 2.408z"/><path d="M118.496 29.866c0 1.325-1.076 2.408-2.408 2.408s-2.408-1.083-2.408-2.408c0-1.334 1.076-2.415 2.408-2.415s2.408 1.081 2.408 2.415z"/><path d="M115.565 49.078a2.408 2.408 0 0 1-2.408 2.407 2.411 2.411 0 1 1 0-4.823 2.41 2.41 0 0 1 2.408 2.416z"/></g></g></g></g></g></svg>