<svg id="レイヤー_1" xmlns="http://www.w3.org/2000/svg" xmlns:xlink="http://www.w3.org/1999/xlink" viewBox="0 0 128 128"><g><g fill="#ed6c30"><path d="M39.604 23.409c7.816 4.908 13.634 12.009 16.807 20.68.786 2.159 1.536 4.33 2.302 6.497.242.675.476 1.35.717 2.021.851 2.342 4.476 1.425 3.776-1.042-4.009-14.222-7.759-28.747-20.635-37.59-1.959-1.346-4.292-2.475-6.594-1.233-1.874 1.021-2.783 3.184-2.066 5.251.917 2.628 3.476 4.024 5.693 5.416z"/><path d="M72.579 38.897c-1.434 2.021-3.315 4.321-3.857 6.796-.191.862-1.075 2.592.15 3.117 1.825.779 2.024-.838 3.149-1.854 1.309-1.184 2.359-2.717 3.484-4.071 4.9-5.884 11.726-8.68 18.768-11.088a22.62 22.62 0 0 1 3.217-.838c1.117-.2 2.217-.649 3.35-.733a20.487 20.487 0 0 0 3.185-.467c1.449-.346 2.966-1.404 3.408-2.866.482-1.562.226-3.317-1.234-4.242-.933-.596-2.032-.854-3.142-.921-.791-.046-1.6.004-2.358.096-2.058.254-4.392.55-6.383 1.2-8.634 2.828-16.461 8.438-21.737 15.871z"/><path d="M107.99 48.59c-2.957-1.038-6.041-1.892-9.184-2.117-4.05-.292-8.158-.075-12.101.967a28.007 28.007 0 0 0-5.684 2.175c-1.417.729-3.983 1.733-4.367 3.438l-.017.096c-.117.758.55.812 1.176 1.021 1.508.504 3.533-.566 5.042-.883a39.488 39.488 0 0 1 5.983-.779c3.792-.213 7.867-.021 11.609 1.096a22.661 22.661 0 0 1 5.525 2.48c1.657 1.037 3.208 2.5 5.224 2.75 2 .25 4.56-1.059 4.635-3.317a4.27 4.27 0 0 0-.017-.579c-.331-3.515-5.031-5.365-7.824-6.348z"/><path d="M29.81 54.494c6.718-2.976 14.793-2.842 21.019 1.25 1.732 1.142 3.467-1.35 2.142-2.775-4.834-5.18-14.301-7.296-21.227-6.171-3.816.621-7.667 1.404-11.101 3.275-2.517 1.371-4.95 3.233-6.751 5.476-1.675 2.087-2.758 5.579.491 6.763 2.434.888 4.584-.275 6.493-1.688 3.01-2.226 5.434-4.58 8.934-6.13z"/><path d="M27.468 35.651c7.21 1.525 14.86 5.025 20.244 10.126 2.067 1.954 4.684-.904 3.033-3.03-4.633-5.934-12.809-10.15-19.525-13.226-2.926-1.346-6.126-2.188-9.327-2.604-1.699-.221-3.425-.312-5.142-.183-1.801.133-3.1.554-4.675 1.412-1.066.579-1.608 1.43-1.866 2.63-.468 2.254 1.642 3.783 3.616 3.983 4.592.463 9.075-.078 13.642.892z"/><path d="M65.13 38.506c.733-.829 1.075-1.926 1.517-2.913 3.467-7.688 8.334-15.484 16.526-18.738 4.008-1.597 15.218-2.396 14.826-8.696-.102-1.509-1.084-2.4-2.367-2.867-1.425-.525-3.217-.52-4.517-.263-2.226.438-4.317 1.397-6.359 2.342-7.5 3.45-14.059 9.709-18.134 16.872-2.269 3.987-3.551 8.671-3.709 13.264-.042 1.382 1.292 2.049 2.217.999z"/><path d="M121.4 35.155c-2.342-.642-5.41-.358-7.093-.35-4.642.021-9.292.487-13.851 1.32-3.175.579-6.334 1.354-9.358 2.467-1.334.492-2.7 1.021-3.942 1.722-1.083.616-2.458 1.399-2.75 2.75-.267 1.221 5.584-.233 6.058-.351 3.201-.791 6.218-1.546 9.535-1.854 5.175-.488 10.384-.351 15.56.041 2.983.221 8.316 1.175 8.675-3.167.117-1.361-1.751-2.278-2.834-2.578z"/><path d="M53.521 12.904c1.125 1.575 2.034 3.291 2.767 5.083.65 1.588.926 3.621 1.942 5.018 1.175 1.604 2.083-.317 2.05-1.604-.066-3.062 0-7.234-.733-11.014-.575-2.983-1.642-5.721-3.667-7.476-3.4-2.945-7.009-.017-5.902 4.005.626 2.288 2.193 4.096 3.543 5.988z"/><path d="M69.863 9.445c.809-1.367 1.508-3.25 1.459-4.987-.042-1.263-.483-2.446-1.567-3.292-1.8-1.393-4.875-.713-6.101 1.066-1.625 2.367-.183 6.476 1.092 8.717 2.217 3.917 3.55 1.151 5.117-1.504z"/><path d="M42.595 10.045c.851.321 2.167.93 3.101.771 1.116-.191 1.275-1.029 1.142-2.055-.083-.633-.333-1.263-.45-1.895-.033-.209-.083-.421-.133-.642-.711-2.812-2.809-6.488-6.042-6.15-1.733.179-3.426 1.171-3.926 2.95-.475 1.721.242 3.48 1.624 4.554 1.433 1.117 2.976 1.83 4.684 2.467z"/><path d="M104.349 16.642c1.15.117 2.051-.004 3.217-.108 1.768-.162 3.726.346 5.159-.934 1.367-1.217 1.658-3.263.907-4.892-.44-.971-1.642-1.608-2.607-1.913-1.134-.358-2.317.075-3.342.525-2.485 1.101-9.826 6.667-3.334 7.322z"/><path d="M23.427 20.271c1.233.383 4.017.708 4.284-.996.149-.946-.267-2.163-.917-3.375-.975-1.809-2.483-3.604-3.468-4.472-.608-.542-1.449-.625-2.199-.875-3-.991-5.743 1.092-5.684 4.059.016 1.221.533 2.101 1.425 2.917 1.808 1.646 4.284 2.03 6.559 2.742z"/></g><g><g><defs><path id="SVGID_1_" d="M110.6 106.647c-1.26-1.708-3.066-3.138-4.584-4.5-5.075-4.538-9.784-9.98-13.801-15.46-3.767-5.138-6.858-10.625-9.892-16.218-.593-1.087-1.108-2.212-1.683-3.312-1.018-1.971-2.159-4.138-3.951-5.521-1.717-1.33-4.125-1.2-5.583.449-.658.742-1.342 1.654-2.434 1.571-1.226-.096-1.809-1.354-2.717-2.017-1.101-.792-2.509-1.112-3.759-.496-.509.25-.941.608-1.342 1.013-.616.629-1.483 1.263-2.417 1.154-.916-.108-1.483-.896-2.217-1.362-1.208-.768-2.6-.88-3.792-.042-.774.546-1.358 1.333-1.842 2.138-1.2 2.013-1.783 4.312-2.934 6.346-6.975 12.397-16.234 23.302-26.984 32.586-1.65 1.429-3.626 3.121-4.117 5.362-1.425 6.393 5.292 9.863 10.009 11.935 6.509 2.867 13.409 4.729 20.394 6.062 5.691 1.084 11.434 1.571 17.218 1.608 3.991.029 7.983-.179 11.95-.62 5.334-.592 10.56-1.722 15.768-3.022 6.675-1.66 26.91-6.59 18.71-17.654z"/></defs><use xlink:href="#SVGID_1_" overflow="visible" fill="#855c52"/><clipPath id="SVGID_2_"><use xlink:href="#SVGID_1_" overflow="visible"/></clipPath><path d="M91.023 82.392a27.197 27.197 0 0 0-1.392-2.259c-.142-.204-.275-.412-.417-.62-2.2-3.313-4.242-6.692-6.251-10.051-1.633-2.717-3-5.621-5.316-7.771-.967-.9-2.108-2.2-3.601-2.071a10.62 10.62 0 0 0-1.917.384c-1.375.429-2.791 1.133-4.241.792-1.926-.446-3.559-1.896-5.576-1.108-.933.362-1.616 1.441-2.616 1.596-1.317.204-1.853-.967-3.067-1.154-.883-.138-1.908.037-2.758.167-2.018.308-3.159 1.346-4.536 2.858-1.283 1.412-2.023 3.5-2.781 5.237-.71 1.621-1.792 3.025-2.577 4.617-.882 1.821-1.899 3.45-2.865 5.246-.833 1.546-2.017 2.846-2.975 4.321-.542.838-1.075 1.759-1.692 2.55-1.05 1.329-7.925 6.459-4.134 7.968 3.4 1.358 6.741-1.092 8.859-3.654 1.217-1.472 1.95-3.321 3.467-4.563 2.367-1.938 4.059-.008 3.909 2.321-.251 3.854-2.109 7.284-3.917 10.659-1.483 2.754-4.959 7.688-1.551 10.233 1.534 1.146 3.934 1.125 5.483.097 2.176-1.459 3.093-3.305 4.126-5.542.934-2.021 1.7-4.093 2.675-6.084.684-1.404 2.117-4.301 3.9-4.626 2.967-.541 3.275 3.78 3.559 5.576.208 1.304.3 2.649 1.825 3.217 2.559.945 6.434-.579 6.125-3.601-.166-1.625-1.984-9.759 2.309-8.58 2.275.63 4.875 5.718 6.117 7.571 1.167 1.738 2.676 3.146 4.917 2.813.092-.013.175-.029.267-.042 2.476-.471 1.892-4.454 1.184-6.354-.842-2.255-2.176-4.271-3.092-6.467-.325-.771-.892-1.801-.6-2.643.408-1.158 1.533-1.287 2.508-.708.992.596 1.717 1.634 2.625 2.342.917.708 1.717 1.625 2.917 1.771 3.125.392 2.258-2.275 1.1-4.438z" clip-path="url(#SVGID_2_)" fill="#ed6c30"/></g></g></g></svg>