<svg id="レイヤー_1" xmlns="http://www.w3.org/2000/svg" xmlns:xlink="http://www.w3.org/1999/xlink" viewBox="0 0 128 128"><g><g><defs><path id="SVGID_1_" d="M127.648 64c0 35.146-28.498 63.654-63.644 63.654C28.849 127.654.351 99.146.351 64 .351 28.844 28.849.346 64.004.346 99.15.346 127.648 28.844 127.648 64z"/></defs><use xlink:href="#SVGID_1_" overflow="visible" fill="#006ca2"/><clipPath id="SVGID_2_"><use xlink:href="#SVGID_1_" overflow="visible"/></clipPath><g clip-path="url(#SVGID_2_)" fill="#bdcf46"><path d="M126.394 36.43c-.603-1.328-.923-2.997-1.68-4.237-1.131-1.836-3.153-3.027-4.407-4.78-1.972-2.738-1.939-6.377-3.807-9.158-1.514-2.26-3.079-4.007-4.874-6.077-1.225-1.416-3.714-4.2-5.311-5.097-1.109-.622-2.612-.586-3.805-.861-2.312-.529-4.656-1.005-6.971-1.498-.683-.145-1.357-.15-2.052-.145-.943 0-1.825.156-2.76.145-3.827-.026-6.885 3.049-10.723 3.137-.86.021-1.689-.02-2.529-.145-1.007-.151-1.432-.596-2.127-1.312-.611-.648-1.327-1.017-2.198-1.239-.84-.213-1.794-.14-2.686-.14-.901 0-1.482.005-2.054-.638-.321-.368-.591-.726-1.078-.897-.458-.155-.871-.042-1.35-.099-2.271-.285-4.364-.171-6.646-.078-2.571.114-4.968 1.12-7.249 2.26-1.949.98-8.245 2.858-8.669 5.3-.176 1.027.206 1.089.954 1.514 1.7.954 3.619 1.25 5.589 1.296.686.021 1.286.167 1.991.167 1.089.005 2.013-.078 2.811-.851.623-.602 1.077-1.328 1.545-2.048.934-1.447 1.939-3.044 3.775-3.365.415-.073.934.031 1.213.414.353.488 0 .923-.187 1.369-.716 1.753-1.037 4.045-2.583 5.32-2.042 1.68-5.402.747-7.745.456-2.521-.306-3.289.031-5.104 1.934-.943.996-1.991 2.022-3.298 2.531-1.171.461-2.385-.218-3.505.181-.425.15-.633.519-1.151.239-.415-.223-.56-.721-.445-1.156.124-.477.318-.669.395-1.162.228-1.597-.685-2.271-1.598-3.422-.31-.399-.354-.648-.861-.871-1.089-.472-1.855-.119-2.416.809-.27.44-.508 1.006-.954 1.312-.592.404-1.088.078-1.713.233-.672.165-1.418 1.016-1.616 1.659-.093.296-.063 2.484.166 2.525.675.13 1.359.005 2.033.135.197 1.131-.29 2.946.975 3.526.685.316 1.94.612 2.645.28.435-.197 1.473-1.571 2.001-1.125.817.711.229 2.515-.011 3.397-.373 1.328-1.679 1.183-2.841 1.089-.456-.031-.913-.109-1.368-.176-.387-.062-.81-.436-1.203-.425-.913.021-1.64 1.888-1.898 2.583-.456 1.224-.871 3.064-.229 4.299.685 1.322 1.972.896 3.205 1.032 1.255.129 2.32.207 3.557-.14.933-.265 1.939-.856 2.655-1.54 1.919-1.835 8.742-8.349 10.443-3.049.353 1.089.051 2.354.487 3.391.744 1.805 2.706-.01 3.463-.798 1.629-1.696 1.142-1.866-.082-3.37-.684-.84-.208-1.862.787-1.95 1.898-.166 2.749 1.436 3.465 2.919.312.653.362 1.602 1.046 1.934.686.337 1.807.409 2.541.197 1.099-.321 1.619-1.359 2.802-1.467.798-.078 1.482.296 2.124.71.541.337.82.726.758 1.39-.041.529-.414.898-.29 1.437.208.887 1.172 1.39 1.98 1.561 1.898.405 3.816-.28 5.693-.493.995-.114 1.888.073 2.686.71 1.152.934 1.909 2.707.665 3.91-1.048 1.006-3.806.528-5.135.534-2.633.005-5.547-1.431-8.15-.659-.768.229-1.514.498-2.271.783-2.573.98-6.13 1.094-8.701.088-2.033-.798-5.384-2.277-6.917-3.853-.51-.534-.654-1.105-1.379-1.509-1.464-.814-3.216-.477-4.719.041-2.116.731-4.439 1.292-6.451 2.147-2.842 1.224-6.825 4.055-8.68 6.544-2.231 2.976-3.495 7.638-4.117 11.195-.302 1.763-1.132 3.303-.686 5.211.457 1.914 1.316 4.542 2.541 5.994 2.582 3.06 6.182 4.252 10.079 3.982 3.486-.249 7.209-.975 10.39.955 3.456 2.094 3.841 5.843 4.981 9.333.982 2.976 2.665 5.268 2.612 8.524-.052 3.578-1.09 7.327.716 10.671 1.598 2.945 3.172 6.855 5.932 8.888 3.424 2.515 10.744 3.049 13.856-.078 1.338-1.343 2.737-3.251 3.681-4.899 1.13-1.971 1.452-4.092 2.386-6.01.892-1.841 3.007-2.888 3.93-4.76.747-1.509 1.026-3.542.965-5.216-.064-1.773-.819-3.06-.861-4.781-.072-2.24.136-3.614 1.712-5.242 2.976-3.075 16.083-11.792 6.585-14.612-3.204-.949-4.595-2.759-6.679-5.268-1.814-2.173-3.483-4.309-5.009-6.606-1.048-1.586-2.002-3.427-2.416-5.299-.322-1.467 1.048-3.012 2.457-1.654.622.597 1.193 1.79 1.576 2.515 1.089 2.08 2.489 3.786 3.827 5.642 1.742 2.427 3.433 5.735 6.191 7.125 4.355 2.183 16.51-8.54 8.908-10.438-1.442-.358-3.019-.653-4.179-1.659-.747-.648-2.667-3.256-1.224-3.801.508-.197 1.005-.28 1.544-.161.52.109 1.11.56 1.546.82.653.389 1.161.84 1.741 1.322.479.394 1.007.612 1.546.913.602.332 1.121.871 1.732 1.167 1.793.856 3.702.389 5.569.586 1.793.198 3.474 1.463 4.468 2.925 2.312 3.386 2.106 6.684 3.144 10.433.518 1.872 1.649 3.401 3.898 3.5 2.22.098 2.987-2.085 3.04-3.936.041-1.608-.292-3.485.33-4.885.676-1.524 2.023-2.354 3.258-3.37 3.141-2.609 4.737-5.315 4.677-9.469-.048-2.939-1.448-4.598-2.62-7.165zm-50.318-6.793a3.928 3.928 0 0 0-.882-.254c-.373-.057-.622-.166-1.017-.104-.445.073-.911.249-1.347.332-.478.093-.955.477-1.473.347-1.618-.409.104-3.194.767-3.749.621-.514 1.329-.56 2.096-.602 1.161-.062 2.033-.726 3.143-.062.279.166.454.389.643.643.363.514.538 1.089.797 1.66a4.04 4.04 0 0 1 .352 1.53c.013 1.255-1.211 1.057-2.01.731-.395-.155-.727-.326-1.069-.472zm16.023 3.739c-1.026-.705-1.639-2.048-1.836-3.205-.104-.602-.165-1.213-.279-1.794-.114-.539-.062-1.229.311-1.67.291-.333.974-.508 1.4-.488 1.317.062 1.026 1.794 1.752 2.469.644.601 1.618 1.244 1.835 2.136.312 1.337-.652 3.371-2.28 2.96a2.713 2.713 0 0 1-.903-.408z"/><path d="M90.253 92.239c-1.162-.457-2.552.378-3.453 1.042-.438.316-.944.612-1.35.949-.497.405-.602 1.048-.767 1.644-.196.72-.653 1.41-.747 2.121-.259 1.752-.051 4.615 2.521 4.163 1.836-.316 3.007-2.556 3.671-4.07.363-.825 1.462-5.32.125-5.849z"/></g></g></g></svg>