<svg id="レイヤー_1" xmlns="http://www.w3.org/2000/svg" xmlns:xlink="http://www.w3.org/1999/xlink" viewBox="0 0 128 128"><g><g><defs><path id="SVGID_1_" d="M127.99 115.895c0 6.655-5.441 12.097-12.096 12.097H12.096C5.441 127.992 0 122.55 0 115.895V12.097C0 5.442 5.441 0 12.096 0h103.799c6.654 0 12.096 5.442 12.096 12.097v103.798z"/></defs><linearGradient id="SVGID_2_" gradientUnits="userSpaceOnUse" x1="63.995" y1=".637" x2="63.995" y2="127.582"><stop offset="0" stop-color="#ed6c30"/><stop offset=".534" stop-color="#f79329"/><stop offset="1" stop-color="#fcc21b"/></linearGradient><use xlink:href="#SVGID_1_" overflow="visible" fill="url(#SVGID_2_)"/><clipPath id="SVGID_3_"><use xlink:href="#SVGID_1_" overflow="visible"/></clipPath><g clip-path="url(#SVGID_3_)"><defs><path id="SVGID_4_" d="M94.668 43.453c0 16.939-13.734 30.668-30.668 30.668-16.943 0-30.674-13.73-30.674-30.668 0-16.939 13.73-30.673 30.674-30.673 16.934 0 30.668 13.734 30.668 30.673z"/></defs><use xlink:href="#SVGID_4_" overflow="visible" fill="#fcc21b"/><clipPath id="SVGID_5_"><use xlink:href="#SVGID_4_" overflow="visible"/></clipPath></g><g clip-path="url(#SVGID_3_)"><g><path fill="#2f2f2f" d="M8.582 109.278H120.07v19.873H8.582z"/><path d="M51.994 89.685c0-4.988-4.08-9.071-9.072-9.071H17.621c-4.988 0-9.072 4.084-9.072 9.071v30.394c0 4.992 4.084 9.072 9.072 9.072h25.301c4.992 0 9.072-4.08 9.072-9.072V89.685z" fill="#2f2f2f"/><path fill="#2f2f2f" d="M43.752 94.873h42.137v34.277H43.752z"/><path d="M120.023 64.617c0-4.988-4.08-9.071-9.072-9.071H86.959c-4.988 0-9.072 4.083-9.072 9.071v55.462c0 4.992 4.084 9.072 9.072 9.072h23.992c4.992 0 9.072-4.08 9.072-9.072V64.617z" fill="#2f2f2f"/><g><g><g><g><g><g><path d="M93.822 72.946a2.502 2.502 0 0 1-2.492 2.496h-2.916a2.502 2.502 0 0 1-2.492-2.496v-4.633a2.501 2.501 0 0 1 2.492-2.492h2.916a2.501 2.501 0 0 1 2.492 2.492v4.633z" fill="#fcc21b"/><path d="M113.311 73.859c0 .459-1.121 1.584-2.492 1.584h-2.916a2.506 2.506 0 0 1-2.496-2.496v-4.633a2.505 2.505 0 0 1 2.496-2.492h2.916c1.371 0 2.492 1.125 2.492 1.579v6.458z" fill="#fcc21b"/><path d="M113.311 89.177c0 .458-1.121 1.579-2.492 1.579h-2.916a2.502 2.502 0 0 1-2.496-2.492V83.63a2.506 2.506 0 0 1 2.496-2.496h2.916c1.371 0 2.492 1.125 2.492 1.583v6.46z" fill="#f79329"/><path d="M102.643 103.044c0 .458-1.121 1.579-2.49 1.579h-2.918a2.502 2.502 0 0 1-2.496-2.492v-4.634a2.506 2.506 0 0 1 2.496-2.496h2.918c1.369 0 2.49 1.125 2.49 1.583v6.46z" fill="#fcc21b"/></g></g><g><path d="M23.4 102.224a2.506 2.506 0 0 1-2.496 2.496h-2.912a2.503 2.503 0 0 1-2.496-2.496V97.59a2.502 2.502 0 0 1 2.496-2.492h2.912A2.505 2.505 0 0 1 23.4 97.59v4.634z" fill="#fcc21b"/></g><g><path d="M34.51 102.224a2.506 2.506 0 0 1-2.496 2.496h-2.912a2.503 2.503 0 0 1-2.496-2.496V97.59a2.502 2.502 0 0 1 2.496-2.492h2.912a2.505 2.505 0 0 1 2.496 2.492v4.634z" fill="#f79329"/></g><g><path d="M45.619 102.224a2.506 2.506 0 0 1-2.496 2.496h-2.912a2.502 2.502 0 0 1-2.496-2.496V97.59a2.5 2.5 0 0 1 2.496-2.492h2.912a2.505 2.505 0 0 1 2.496 2.492v4.634z" fill="#fcc21b"/></g><g><path d="M23.4 116.403a2.506 2.506 0 0 1-2.496 2.496h-2.912a2.503 2.503 0 0 1-2.496-2.496v-4.633a2.502 2.502 0 0 1 2.496-2.492h2.912a2.505 2.505 0 0 1 2.496 2.492v4.633z" fill="#f79329"/></g><g><path d="M34.51 116.403a2.506 2.506 0 0 1-2.496 2.496h-2.912a2.503 2.503 0 0 1-2.496-2.496v-4.633a2.502 2.502 0 0 1 2.496-2.492h2.912a2.505 2.505 0 0 1 2.496 2.492v4.633z" fill="#fcc21b"/></g><g><path d="M56.729 116.403a2.506 2.506 0 0 1-2.496 2.496h-2.914a2.503 2.503 0 0 1-2.496-2.496v-4.633a2.502 2.502 0 0 1 2.496-2.492h2.914a2.505 2.505 0 0 1 2.496 2.492v4.633z" fill="#f79329"/></g></g></g></g></g></g></g></g></g></svg>