<svg id="レイヤー_1" xmlns="http://www.w3.org/2000/svg" xmlns:xlink="http://www.w3.org/1999/xlink" viewBox="0 0 128 128"><g><g><defs><path id="SVGID_1_" d="M.06 64C.06 28.688 28.687.062 64.001.062c35.313 0 63.938 28.626 63.938 63.938H.06z"/></defs><clipPath id="SVGID_2_"><use xlink:href="#SVGID_1_" overflow="visible"/></clipPath><g clip-path="url(#SVGID_2_)"><path d="M64.002 126.521C29.529 126.521 1.48 98.474 1.48 64c0-34.473 28.049-62.517 62.521-62.517 34.471 0 62.516 28.044 62.516 62.517.001 34.474-28.044 62.521-62.515 62.521zm0-119.653C32.498 6.868 6.863 32.497 6.863 64c0 31.507 25.635 57.137 57.139 57.137 31.5 0 57.131-25.63 57.131-57.137 0-31.503-25.631-57.132-57.131-57.132z" fill="#d7598b"/><path d="M64.002 118.436C33.988 118.436 9.57 94.018 9.57 64c0-30.013 24.418-54.43 54.432-54.43 30.012 0 54.428 24.417 54.428 54.43 0 30.018-24.416 54.436-54.428 54.436zm0-103.482c-27.045 0-49.047 22.003-49.047 49.046 0 27.049 22.002 49.051 49.047 49.051 27.043 0 49.045-22.002 49.045-49.051 0-27.043-22.002-49.046-49.045-49.046z" fill="#ed6c30"/><path d="M64.002 110.349c-25.555 0-46.344-20.79-46.344-46.349 0-25.557 20.789-46.349 46.344-46.349 25.551 0 46.342 20.792 46.342 46.349 0 25.559-20.791 46.349-46.342 46.349zm0-87.314c-22.594 0-40.963 18.377-40.963 40.965 0 22.589 18.369 40.965 40.963 40.965 22.582 0 40.959-18.376 40.959-40.965 0-22.588-18.377-40.965-40.959-40.965z" fill="#fcc21b"/><path d="M64.002 102.264c-21.096 0-38.26-17.165-38.26-38.264 0-21.098 17.164-38.263 38.26-38.263 21.094 0 38.258 17.165 38.258 38.263 0 21.099-17.164 38.264-38.258 38.264zm0-71.142c-18.133 0-32.875 14.75-32.875 32.878s14.742 32.879 32.875 32.879c18.131 0 32.873-14.751 32.873-32.879S82.133 31.122 64.002 31.122z" fill="#bdcf46"/><path d="M64.002 94.177C47.357 94.177 33.818 80.64 33.818 64c0-16.639 13.539-30.176 30.184-30.176 16.643 0 30.172 13.537 30.172 30.176 0 16.64-13.529 30.177-30.172 30.177zm0-54.969c-13.674 0-24.799 11.12-24.799 24.792 0 13.673 11.125 24.792 24.799 24.792 13.672 0 24.787-11.119 24.787-24.792 0-13.672-11.115-24.792-24.787-24.792z" fill="#40c0e7"/></g></g><g><defs><circle id="SVGID_3_" cx="64" cy="64" r="63.94"/></defs><clipPath id="SVGID_4_"><use xlink:href="#SVGID_3_" overflow="visible"/></clipPath><g clip-path="url(#SVGID_4_)"><g><g><g><path d="M32.297 64c0 .042-.008.085-.008.126h5.047V64h-5.039z" fill="#00afec"/><path d="M90.58 64c0 .042.006.085.006.126h5.043c0-.041-.01-.084-.01-.126H90.58z" fill="none"/><path d="M99.928 64c0 .042.01.085.01.126h4.604c0-.041-.012-.084-.012-.126h-4.602z" fill="none"/><path d="M104.541 64.126h4.305c0-.041-.006-.084-.006-.126h-4.311c0 .042.012.085.012.126z"/><path d="M95.619 64c0 .042.01.085.01.126h4.309c0-.041-.01-.084-.01-.126h-4.309z"/><path d="M37.336 64v.126h4.309V64h-4.309z"/></g></g><g><path d="M-4.338 58.41c-.246-2.29 5.527-3.994 7.176-4.237 2.854-.421 5.041-.441 7.816.286 1.633.429 3.357.748 4.746 1.775 1.473 1.085 2.439 2.302 3.668 3.602 1.836 1.951 3.006-.005 4.865-.993 1.488-.8 3.793-1.637 5.469-1.527 2.66.172 6.594 2.545 8.002 4.675.656 1 .949 2.945 2.129 3.529.725.361 1.412-.126 2.078-.206.975-.122 1.969-.085 2.963-.085 2.086.005 3.229.148 4.953 1.36 1.256.877 2.475 2.266 3.309 3.579 2.111 3.315.84 7.236-1.18 10.14-1.934 2.771-4.637 3.682-7.893 3.971-.656.055-1.295-.029-1.791-.335-1.328 1.504-2.23 3.356-3.93 4.542-2.01 1.4-4.896 2.355-7.287 2.612-2.33.253-4.637.341-7.008.341-1.254 0-2.498.135-3.693-.261-1.002-.337-1.869-1.152-2.787-1.489-2.943 3.661-9.053 4.961-13.43 3.466-4.137-1.418-6.688-4.568-6.748-8.896" fill="#fff"/><path d="M42.73 62.352c-5.402-7.043-14.725-11.124-22.424-6.066C12.767 46.76-4.43 49.352-8.202 61.57c-.789 2.557 2.762 4.753 4.586 2.667.109-.126.221-.253.336-.38.355-.411.557-.84.658-1.262 4.18-7.345 15.758-8.405 19.553-.186.826 1.785 3.535 1.953 4.805.615 4.106-4.299 9.668-3.322 13.774.404 1.5 1.354 3.281 5.283 5.379 5.461.639.058 1.438-.076 2.041-.295 1.207-.422 2.629-1.019 3.916-.539 2.732 1.026 3.953 3.787 3.953 6.606 0 .95.16 1.809-.084 2.733a7.382 7.382 0 0 1-1.322 2.658c-.52.658-1.1 1.229-1.887 1.507-1.477.521-3.262.749-4.75.126-.801-.336-1.725-.43-2.568-.126-1.354.505-1.85 2.223-2.674 3.282a10.822 10.822 0 0 1-3.02 2.667c-4.369 2.574-10.023 1.726-14.332-.53-.967-.506-2.297-.665-3.246 0-6.176 4.35-13.102 2.811-17.568-2.306-2.869-3.282-7.666 1.531-4.781 4.788 3.662 4.14 7.996 5.662 13.361 6.772 2.518.522 5.109-.345 7.473-1.034 1.129-.446 2.197-1.019 3.232-1.657.275.117.606.252 1.051.411 7.809 3.955 18.512 1.044 23.459-6.032 21.336 1.449 16.263-29.104-.413-25.568z" fill="#006ca2"/><path d="M96.898 62.718c-.621.508-1.488.597-2.229 1.072-1.17.757-2.145 1.69-3.258 2.523-1.641 1.238-1.756 3.211-3.852 3.505-1.609.224-3.449-.257-5.023.151-1.801.468-3.273 2.192-4.316 3.597-2.197 2.962-3.07 9.062-1.346 12.425.965 1.889 2.818 1.973 4.584 2.2 1.758.222 3.77.938 5.303-.3.619 1.47 1.059 2.807 2.32 3.904 1.885 1.637 3.719 2.714 6.098 3.312 2.56.645 4.807.984 7.449.997 2.582.009 4.398-.993 6.832-1.523 1.785-.391 2.736.068 4.393.888 2.895 1.431 5.99 1.532 9.164.905 3.854-.766 6.789-2.423 9.414-5.368 1.498-1.688 3.342-3.438 4.174-5.592.699-1.821.969-4.001 1.312-5.923.984-5.36-1.219-9.976-4.049-14.263-1.908-2.899-3.785-5.784-7.529-6.101-4.292-.361-8.987-.298-12.932 1.515-1.875.867-2.717 2.377-4.229 3.61-1.561 1.279-2.44-.362-4.027-1.085-.623-.282-1.068-.581-1.793-.45h-6.46z" fill="#fff"/><path d="M87.154 66.659c5.395-7.043 14.727-11.123 22.416-6.066 7.541-9.525 24.746-6.934 28.516 5.283.791 2.559-2.77 4.755-4.584 2.669a12.646 12.646 0 0 1-.338-.379 3.031 3.031 0 0 1-.664-1.263c-4.183-7.346-15.76-8.405-19.547-.186-.83 1.784-3.543 1.953-4.812.615-4.1-4.3-9.658-3.324-13.766.402-1.498 1.354-3.291 5.285-5.385 5.462-.639.059-1.438-.076-2.037-.295-1.211-.42-2.633-1.018-3.912-.538-2.742 1.026-3.953 3.787-3.953 6.605 0 .95-.162 1.809.084 2.735a7.25 7.25 0 0 0 1.32 2.658c.514.656 1.094 1.229 1.885 1.506 1.471.521 3.264.748 4.746.127.799-.336 1.725-.429 2.566-.127 1.355.506 1.859 2.222 2.684 3.281a10.58 10.58 0 0 0 3.012 2.667c4.367 2.576 10.019 1.727 14.328-.529.969-.505 2.299-.664 3.25 0 6.176 4.351 13.1 2.811 17.566-2.306 2.881-3.281 7.666 1.532 4.787 4.788-3.664 4.14-8 5.663-13.369 6.772-2.506.521-5.108-.344-7.471-1.034-1.127-.446-2.197-1.018-3.23-1.658-.27.119-.607.252-1.045.412-7.807 3.956-18.518 1.045-23.465-6.032-21.34 1.448-16.257-29.103.418-25.569z" fill="#006ca2"/></g></g></g></g></g></svg>