<svg id="レイヤー_1" xmlns="http://www.w3.org/2000/svg" xmlns:xlink="http://www.w3.org/1999/xlink" viewBox="0 0 128 128"><g><g><defs><path id="SVGID_1_" d="M127.651 63.997c0 35.151-28.498 63.655-63.659 63.655-35.146 0-63.644-28.504-63.644-63.655C.348 28.846 28.846.348 63.992.348c35.161 0 63.659 28.498 63.659 63.649z"/></defs><clipPath id="SVGID_2_"><use xlink:href="#SVGID_1_" overflow="visible"/></clipPath><g clip-path="url(#SVGID_2_)"><path d="M127.651 63.997c0 35.151-28.498 63.655-63.659 63.655-35.146 0-63.644-28.504-63.644-63.655C.348 28.846 28.846.348 63.992.348c35.161 0 63.659 28.498 63.659 63.649z" fill="#006ca2"/><g fill="#bdcf46"><path d="M4.995 61.633c1.019.104 2.021.28 2.901.887 1.2.824 1.583 2.38 1.92 3.738.815 3.246.271 6.757 1.317 9.925.529 1.597.887 3.101 1.721 4.532.799 1.353 1.727 2.583 2.655 3.806 1.177 1.514 3.433 3.567 5.362 2.188 1.752-1.255 1.616-4.558 1.607-6.528-.011-1.846.337-3.656.871-5.414.299-.969.476-2.006.726-2.992.404-1.607 1.043-2.831 2.011-4.143 2.26-3.044 6.421-4.309 9.919-3.147 2.003.664 3.999 1.603 5.829 2.681 1.571.928 2.64 2.489 3.9 3.801.917.954 1.84 1.752 3.168 1.913 1.368.166 2.312.016 3.516.882.478.337 1.025.705 1.338 1.239.314.561.082 1.151.314 1.67.633 1.405 2.361 1.182 3.595 1.193 2.479.005 5.517-1.556 6.222-4.283.26-1.005-.497-1.867-.021-2.847.509-1.062 2.168-1.841 3.06-2.566 2.088-1.711 4.781-5.393 3.754-8.379-.435-1.275-1.385-2.832-2.374-3.744-1.048-.965-2.5-1.566-2.937-2.956-.559-1.82-.906-4.127-.071-5.911.429-.923 1.312-1.774 1.914-2.603.726-.996 1.29-2.105 2.011-3.096.98-1.354 2.521-1.986 3.868-2.836 1.322-.84 2.475-2.292 2.992-3.806.513-1.494.55-2.577 1.717-3.8 1.384-1.463 3.41-1.929 4.838-3.324 1.248-1.224 1.513-2.333 2.011-3.852.556-1.696 2.156-3.407 3.749-4.07 3.076-1.286 6.663-1.151 9.676.244 2.257 1.042 5.191 2.613 7.717 1.633 3.603-1.39 1.43-4.455.181-6.767-1.085-1.996-2.696-3.816-4.366-5.304a33.494 33.494 0 0 0-7.285-4.983c-2.26-1.156-4.381-2.157-6.818-2.863-.81-.238-1.389-.715-2.12-1.098-1.043-.545-2.225-.825-3.345-1.157-5.892-1.732-12.149-1.265-18.19-1.275-6.709-.01-13.653 1.887-19.935 4.174-4.619 1.686-9.435 2.982-13.8 5.346-4.243 2.307-8.463 5.108-11.886 8.525-2.986 2.986-5.807 6.305-8.229 9.764-1.244 1.773-2.655 3.489-3.759 5.356-.82 1.379-1.068 2.769-2.22 3.967-1.131 1.167-1.763 2.618-2.317 4.132-.38 1.037-.877 1.939-1.339 2.935-.43.913-.549 1.919-.933 2.842-1.151 2.8-1.935 6.518-1.53 9.577.224 1.696.514 3.505 1.576 4.916.468.632 1.105 1.219 1.846 1.53.764.322 1.48.146 2.271.228.467.048.934.078 1.402.12z"/><path d="M79.339 43.816c-.539.695-1.264 1.255-1.792 1.96-.487.654-.544 1.141-.757 1.888-.695 2.405-2.671.959-4.294 1.835-1.369.747-1.612 3.474-1.648 4.828-.068 2.271 1.741 3.178 3.318 1.416.664-.742.865-1.162 1.908-1.183 1.051-.021 1.85-.016 2.815-.529.794-.435 1.213-.917 1.218-1.846.011-.518-.436-1.005-.416-1.483.043-.83.147-.394.754-.82 1.146-.788 1.922-2.053 2.427-3.339.419-1.079.171-3.127 1.036-3.925.586-.549 1.604-.419 2.091-.938 1.473-1.577-.774-7.218-3.267-6.072-1.23.555-3.62 1.737-3.884 3.236-.192 1.099.979 1.716 1.254 2.67.26.924-.212 1.587-.763 2.302z"/><path d="M72.102 75.955c-1.529 0-3.885-.321-5.087.934C63.915 80.15 70.333 80 71.998 80c1.556 0 2.81.192 4.325.472 1.28.249 2.551.43 3.333-.949.949-1.686-.445-3.039-2.017-3.474-1.867-.54-3.628-.094-5.537-.094z"/><path d="M82.95 77.687c.928.523 3.38.871 4.323.291.83-.514.855-1.898.312-2.634-1.089-1.494-3.997-1.566-5.527-.871-.871.394-1.234.518-.77 1.493.286.605 1.079 1.388 1.662 1.721z"/><path d="M77.516 87.605c-2.226-1.602-2.588-2.716-5.714-.954a32.832 32.832 0 0 0-5.711 4.049c-1.792 1.571-3.98 2.811-4.297 5.404-.229 1.938.114 3.349 1.617 4.583 1.777 1.452 3.525 1.421 5.726 1.421 1.497 0 3.074-.151 4.567-.011 1.456.145 2.576 1.026 3.795 1.742 2.185 1.255 4.527 1.369 6.892 1.893 2.848.633 5.828.093 7.912-2.012 2.516-2.536 2.926-7.482 1.779-10.718-.803-2.271-1.81-4.615-3.744-6.062-2.39-1.778-4.096-.098-6.071 1.095-1.795 1.088-4.512 1.078-6.253-.083a5.502 5.502 0 0 1-.498-.347z"/><path d="M27.892 84.122c3.137 1.182.142 5.024-1.975 5.252-1.422.156-1.562-1.602-1.395-2.664.259-1.588 1.659-3.237 3.37-2.588z"/></g><path d="M127.651 63.997c0 35.151-28.498 63.655-63.659 63.655-35.146 0-63.644-28.504-63.644-63.655C.348 28.846 28.846.348 63.992.348c35.161 0 63.659 28.498 63.659 63.649z" fill="none"/></g></g></g></svg>