<svg id="レイヤー_1" xmlns="http://www.w3.org/2000/svg" xmlns:xlink="http://www.w3.org/1999/xlink" viewBox="0 0 128 128"><g><g><defs><path id="SVGID_1_" d="M127.651 64c0 35.146-28.498 63.654-63.659 63.654C28.846 127.654.348 99.146.348 64 .348 28.844 28.846.346 63.992.346c35.161 0 63.659 28.498 63.659 63.654z"/></defs><use xlink:href="#SVGID_1_" overflow="visible" fill="#006ca2"/><clipPath id="SVGID_2_"><use xlink:href="#SVGID_1_" overflow="visible"/></clipPath><g clip-path="url(#SVGID_2_)" fill="#bdcf46"><path d="M108.989 82.739c-1.048-.788-3.189-1.752-4.376-1.934-2.027-.306-3.132.399-4.076-1.748-.787-1.788-1.379-2.914-2.795-4.386-2.717-2.837-5.179-4.097-8.872-5.518h-6.284c-2.644-.716-5.289-1.659-7.642.436-.245.218-.457.498-.686.746-.259.28-1.431.385-1.814.478-.528.135-1.089.29-1.646.301-.864.016-2.037-.212-2.627-.892-.343-.395-.54-1.162-.591-1.675-.063-.68.228-1.271.238-1.924.016-.581.051-1.255-.114-1.805-.332-1.15-1.634-1.478-2.645-1.701-.597-.135-1.193-.217-1.8-.425-1.525-.519-.741-2.608-.094-3.541.659-.949 1.608-1.613.021-2.484-1.275-.694-2.851-.581-3.976.26-1.084.819-1.789 2.406-3.098 2.815-1.503.482-3.126-.617-4.551-.824.14-1.888-.81-5.372-.758-6.228.136-2.271 1.81-4.734 3.998-5.33 2.187-.597 4.604-1.063 6.87-.82 3.506.374 3.355 2.251 5.186 4.704.597.798 1.747 1.736 2.789 1.191 2.215-1.156 1.53-4.138 1.597-6.154.11-3.127 2.121-5.024 4.045-7.327.706-.85 1.432-1.691 2.127-2.546.632-.782 1.374-1.509 2.427-1.705.736-.135 1.647.01 2.4.01 1.224 0 3.552.415 4.258-.84.658-1.177-.307-1.991-1.292-2.37-.404-.155-1.084-.238-1.203-.741-.409-1.747 1.473-1.814 2.645-2.001 1.059-.166 2.427-.519 3.241.461.363.441.176.97.59 1.416.753.809 2.683.352 3.485-.125.939-.549 1.203-2.09 1.203-3.09 0-.524-.079-1.059-.379-1.494-.804-1.141-3.147-1.664-4.325-2.333-1.716-.981-3.322-2.137-4.894-3.329-1.836-1.395-3.848-2.51-5.885-3.577-1.748-.913-3.916-2.417-5.969-2.064-.799.135-1.244.71-1.41 1.477-.114.576-.385 1.172-.378 1.769.013.726.353 1.4.564 2.085.259.851.467 1.721-.202 2.427-.639.674-2.059.652-2.796.098-.901-.679-1.271-1.767-2.256-2.286-1.104-.576-1.923-.742-3.146-.591-1.15.145-2.53.28-3.681-.011-1.102-.27-2.168-1.598-2.193-2.728-.017-.809.16-1.944.927-2.386.913-.524 2.422-.389 3.444-.466.211-.011.414-.031.602-.052a.423.423 0 0 1 .087-.011c.032-.006.068-.006.099-.011.29-.036.556-.072.746-.124-.006-.021-.04-.041-.051-.062.155.301 1.068-1.016 1.1-1.172.155-.663-.328-1.431-.089-2.053.182-.456.829-.752 1.264-.892.665-.213 1.355-.094 2.039-.021.555.057 1.137.057 1.681.171 1.255.265 1.286 1.244 2.073 1.997 1.116 1.052 1.805.591 3.257.788 1.571.212 5.693 2.908 7.094.804 1.562-2.35-2.645-4.081-3.937-4.512-2.048-.684-4.091-2.068-5.429-3.77-.658-.84-1.184-1.856-1.161-2.955.026-.893 0-2.261.835-2.832.196-.135.42-.207.653-.223.41-.036.86-.062 1.198.141.497.306.913.912 1.172 1.42.549 1.1.357 2.152 1.15 3.246.789 1.068 1.815 1.939 2.779 2.836 2.489 2.318 5.237 4.377 8.427 5.601 1.722.664 3.529 1.167 5.159 2.069 1.85 1.037 2.53 2.385 3.765 3.972 3.453 4.429 13.568 2.992 11.199-4.003-1.777-5.242-5.258-9.732-9.903-12.574-2.226-1.363-4.226-3.246-6.477-4.506-2.815-1.571-6.196-2.054-9.339-2.566-3.712-.612-7.352-.888-11.096-1.063-2.734-.125-5.621-.559-7.892 1.275-1.214.975-4.771 4.335-4.844 5.74-.074 1.338 1.69 2.063 1.971 3.287.114.534.149 1.001-.261 1.4-.45.435-1.067.576-1.171 1.28-.077.612.151 1.021.395 1.535.191.404.602 1.172.249 1.618-.934 1.171-2.178-.938-2.256-1.743-.119-1.296.286-2.432-1.031-3.245-.889-.55-3.309-.794-3.683.508-.181.623.523 1.224.437 1.939-.167 1.457-1.137 1.089-2.251 1.275-1.939.332-2.34 1.779-4.418.819-.202-1.037.398-2.717-.611-3.423-.81-.555-2.63-.149-3.536-.513-2.276-.923-4.289-1.213-6.721-.487-2.571.767-5.144 2.291-7.617 3.516-3.188 1.576-8.177-.451-10.779 1.882l-.054.451c-2.144-.021-3.028.316-4.525 2.312-1.079 1.432-1.629 2.806-2.281 4.393-.494 1.197-1.514 2.302-1.696 3.64-.125.943-.046 2.131.094 3.059.072.519 4.702-.892 5.287-.819 2.153.279 3.808 2.364 5.528 3.474 1.474.934 3.252 1.893 3.506 3.677.315 2.162-.083 4.573-.021 6.762.12 4.351 4.62 7.664 7.296 10.666 1.188 1.338 1.29 3.008 2.461 4.272.649.705 2.615 4.242 4.062 2.935 1.146-1.042-1.857-4.216-1.624-5.683.135-.892 2.152.887 2.267 1.017.845.995 1.281 2.441 1.716 3.65.951 2.613 1.795 3.774 3.982 4.791-.135 1.249 1.152 2.095 2.292 2.737 1.255.711 2.612.726 3.94 1.322 1.259.565 2.64.561 3.807 1.126 1.736.839.569 1.669 1.555 2.924 1.094 1.4 3.164.539 4.631.768 3.148.487 2.618 3.495 4.578 5.31 1.068 1.006 2.898.902 4.252 1.047.529.058 1.225.073 1.638.446 1.049.934-.176 2.209-.579 3.122-.55 1.224-.928 2.53-1.173 3.848-.668 3.681-.528 7.793 2.147 10.64 2.918 3.105 6.486 4.521 7.602 8.955.949 3.713.073 7.337-.611 11.003-.416 2.199-3.428 6.02-.438 7.643 2.598 1.405 7.017-2.468 8.723-3.951 4.014-3.5 9.313-5.631 11.947-10.536 1.249-2.328 2.364-4.791 4.553-6.403 1.151-.851 2.479-1.411 3.712-2.116 2.608-1.493 4.168-4.656 5.341-7.29 1.376-3.102.106-4.906-2.394-6.773zM61.901 26.464c.707-.171 1.666-.129 1.966-.062 1.15.28 1.997 1.183 2.884 1.898.638.514 1.183 1.053 1.752 1.623.373.373.716.705.644 1.312-.062.534-.363.789-.845.841-.873.088-1.261-.477-2.039-.607-1.852-.312-2.623 2.811-4.469 1.955-.473-.223-.332-.607-.332-1.11-.007-.378 0-.721.145-1.052.177-.415.467-.772.819-1.084.224-.191.581-.343.747-.591.41-.638-.171-1.322-.747-1.56-.362-.146-.892-.156-1.119-.478-.437-.612-.022-.934.594-1.085z"/><path d="M136.024 61.081c-.024-3.003.12-7.109-2.385-9.281-2.312-2.007-5.158-.794-7.072 1.13-3.696 3.733-5.2 10.77-2.117 15.302 1.143 1.681 2.594 3.08 4.493 3.516 1.855.431 5.412.664 6.315-1.244.518-1.095.319-2.37.319-3.562-.008-2.019.464-3.854.447-5.861z"/><path d="M78.153 57.27c-.918-.456-1.271-1.244-1.878-1.856a2.692 2.692 0 0 0-1.182-.716c-.979-.284-2.225-.17-3.231-.108-1.493.094-5.289.337-5.476 2.427-.249 2.671 3.422 2.37 5.237 2.339 1.254-.021 2.463-.482 3.713-.171 1.835.45 1.42 2.084 2.845 2.696.51.218 2.091.519 2.582.564 1.821.161 6.192-.886 5.031-3.489-1.061-2.396-5.77-.753-7.641-1.686z"/></g></g></g></svg>