<svg id="レイヤー_1" xmlns="http://www.w3.org/2000/svg" xmlns:xlink="http://www.w3.org/1999/xlink" viewBox="0 0 128 128"><g><g fill="#fcc21b"><path d="M92.016 68.663C89.307 56.691 81.373 49.72 67.764 47.357a29.934 29.934 0 0 0-5.066-.417c-4.518 0-9.018.884-12.686 2.488-8.941 3.908-14.908 11.459-16.393 20.718-1.467 9.222 1.967 18.576 9.193 25.026 2.809 2.513 5.883 4.4 9.125 5.609 3.092 1.149 6.484 1.733 10.076 1.733 8.926 0 17.918-3.676 23.467-9.593 6.069-6.461 8.51-15.532 6.536-24.258z"/><path d="M118.934 71.997c-.1-.325-.35-.588-.676-.7l-13.518-4.609 11.818-10.892a1.07 1.07 0 0 0 .283-1.142 1.07 1.07 0 0 0-.941-.709l-16.768-1.017 5.434-15.68c.133-.38.041-.801-.238-1.088a1.06 1.06 0 0 0-1.08-.279L87.34 40.749l1.967-16.864a1.081 1.081 0 0 0-.533-1.05 1.056 1.056 0 0 0-1.168.075l-15.21 11.409-8.449-17.043c-.184-.371-.475-.554-.967-.592-.418.004-.783.25-.959.621l-7.5 16.438L40.354 21.56a1.071 1.071 0 0 0-1.767.825l.268 17.172-16.385-5.562a1.075 1.075 0 0 0-1.117.275 1.084 1.084 0 0 0-.217 1.133L27.494 51.3l-16.693 1.837c-.399.046-.74.312-.883.692-.141.379-.049.804.225 1.1l10.385 11.038L7.26 70.863a1.084 1.084 0 0 0-.658.713c-.092.329-.025.679.191.945l19.16 24.41c.199.259.508.408.842.408h.049l11.518-.525c-7.209-7.333-10.541-17.393-8.949-27.339 1.707-10.722 8.592-19.451 18.883-23.956 4.201-1.833 9.311-2.846 14.402-2.846 2.016 0 3.967.162 5.801.479 15.279 2.654 24.592 10.921 27.684 24.568a31.012 31.012 0 0 1-6.459 26.756l12.426-.567c.309-.012.6-.162.793-.412l15.816-20.539c.208-.273.274-.628.175-.961z"/></g><g><g><defs><path id="SVGID_1_" d="M127.992 115.899c0 6.65-5.441 12.093-12.102 12.093H12.094C5.443 127.992 0 122.55 0 115.899V12.102C0 5.442 5.443 0 12.094 0h103.797c6.66 0 12.102 5.442 12.102 12.102v103.797z"/></defs><clipPath id="SVGID_2_"><use xlink:href="#SVGID_1_" overflow="visible"/></clipPath><path d="M-16.441 75.038c.088.075.184.15.275.233 2.508-4.45 8.191-8.8 12.609-11.242 5.691-3.15 11.492-6.908 18.109-7.525 7.15-.675 13.5 2.75 19.143 6.801 5.033 3.608 19.209 18.185 22.143 21.034 2.426 2.351 6.893 5.509 10.551 4.317 2-.658 3.742-2.467 5.451-3.667 16.059-11.259 31.826-32.719 53.318-20.71 8.568 4.792 15.918 12.968 21.352 21.068 3.559 5.309 3.309 12.509 4.6 18.567 1.01 4.684 3.252 8.926 4.543 13.518 1.191 4.234 2.85 8.468 3.863 12.701.336 1.408.07 3.209.053 4.658-.016 1.467-.033 1.551-1.041 2.45-3.242 2.9-10.309 2.809-14.309 2.876-9.143.142-18.127 1.991-27.27 2.142-4.375.066-8.85.191-13.217-.092-4.609-.3-9.209-.934-13.834-1.009-19.025-.316-38.193.9-57.184-.433-7.529-.525-15.037-.226-22.572.091-6.074.259-12.324 1.617-18.426 1.084-1.357-.117-3.834-.684-4.967-1.509-1.908-1.392-1.059-5.392-1.059-7.4l-2.131-57.953z" clip-path="url(#SVGID_2_)" fill="#757f3f"/></g></g></g></svg>