<svg id="レイヤー_1" xmlns="http://www.w3.org/2000/svg" viewBox="0 0 128 128"><g><g fill="#fcc21b"><path d="M108.427 76.107l18.152-6.841-16.586-10.062 14.455-12.936-19.1-3.393 8.809-17.287-19.037 3.744 1.973-19.3-16.404 10.364-5.138-18.704-11.548 15.586L52.45 1.692l-5.135 18.704-16.394-10.364 1.969 19.3-19.039-3.743 8.805 17.287-19.1 3.393L18.01 59.204 1.425 69.266l18.153 6.841L7.752 91.48l19.39-.18-5.477 18.606 18.025-7.172 1.608 19.332 14.212-13.201 8.492 17.442 8.486-17.442 14.217 13.201 1.612-19.332 18.022 7.172L100.86 91.3l19.398.18-11.831-15.373zm-44.417 30.55C40.445 106.653 21.354 87.558 21.349 64c.005-23.561 19.097-42.657 42.661-42.657 23.555 0 42.649 19.095 42.649 42.657 0 23.558-19.095 42.653-42.649 42.657z"/><path d="M64.003 127.354c-.399 0-.764-.229-.94-.588l-7.873-16.175-13.182 12.242a1.013 1.013 0 0 1-1.085.208 1.047 1.047 0 0 1-.669-.887l-1.486-17.927-16.717 6.652a1.047 1.047 0 0 1-1.392-1.268l5.083-17.252-17.981.166h-.009c-.399 0-.759-.225-.938-.58a1.037 1.037 0 0 1 .109-1.102l10.964-14.256-16.83-6.344a1.049 1.049 0 0 1-.674-.881 1.048 1.048 0 0 1 .495-.99l15.385-9.33L2.857 47.048a1.052 1.052 0 0 1-.306-1.066c.11-.386.429-.674.82-.743l17.712-3.145-8.163-16.032a1.03 1.03 0 0 1 .099-1.104c.24-.318.645-.481 1.028-.393l17.659 3.47-1.829-17.896a1.063 1.063 0 0 1 .489-.994 1.05 1.05 0 0 1 1.111.004l15.208 9.611 4.756-17.345a1.05 1.05 0 0 1 .816-.749c.405-.075.795.082 1.033.404l10.712 14.452L74.71 1.07c.24-.324.648-.483 1.031-.404.393.073.712.363.817.749l4.763 17.345 15.211-9.611a1.048 1.048 0 0 1 1.603.99l-1.833 17.896 17.651-3.47a1.02 1.02 0 0 1 1.032.393c.236.32.281.749.098 1.104l-8.164 16.032 17.708 3.145a1.047 1.047 0 0 1 .518 1.809l-13.41 11.995 15.386 9.33c.341.208.535.592.495.99a1.03 1.03 0 0 1-.67.881l-16.831 6.344 10.974 14.256c.244.316.285.745.102 1.102-.172.355-.539.58-.931.58h-.009l-17.993-.167 5 16.96a1.043 1.043 0 0 1-.865 1.633h-.053c-.13 0-.262-.025-.389-.074l-16.715-6.652-1.489 17.928a1.04 1.04 0 0 1-.666.886 1.018 1.018 0 0 1-1.085-.208L72.812 110.59l-7.871 16.175c-.179.36-.539.589-.938.589zm-8.492-19.533a.94.94 0 0 1 .189.018c.333.06.608.271.751.569l7.552 15.512 7.547-15.512a1.04 1.04 0 0 1 1.645-.307l12.649 11.739 1.434-17.193a1.043 1.043 0 0 1 1.428-.884l16.026 6.378-4.873-16.544a1.037 1.037 0 0 1 .173-.926c.194-.261.504-.415.83-.415h.009l17.25.159-10.522-13.67a1.045 1.045 0 0 1 .461-1.614l16.14-6.084-14.751-8.948a1.069 1.069 0 0 1-.503-.798 1.067 1.067 0 0 1 .353-.876l12.853-11.502-16.984-3.017a1.047 1.047 0 0 1-.752-1.502l7.838-15.375-16.934 3.327a1.035 1.035 0 0 1-.902-.253 1.033 1.033 0 0 1-.339-.877l1.755-17.163-14.581 9.217c-.29.173-.641.214-.939.09a1.03 1.03 0 0 1-.628-.696L75.113 4.04 64.844 17.9c-.4.531-1.282.531-1.682 0L52.892 4.04l-4.565 16.634a1.054 1.054 0 0 1-.637.696 1.034 1.034 0 0 1-.931-.09l-14.581-9.217 1.752 17.163a1.05 1.05 0 0 1-1.241 1.13l-16.928-3.329 7.824 15.375a1.044 1.044 0 0 1-.747 1.502L5.853 46.921l12.854 11.502c.246.224.368.548.344.876a1.055 1.055 0 0 1-.498.798L3.802 69.046l16.145 6.084a1.044 1.044 0 0 1 .461 1.614L9.892 90.415l17.242-.159h.008c.328 0 .638.153.833.415.2.265.262.608.172.926l-4.874 16.544 16.029-6.378c.307-.123.657-.092.936.084.285.174.465.472.493.803l1.429 17.188 12.643-11.737c.194-.182.447-.28.708-.28zm8.499-.118C39.91 107.698 20.308 88.095 20.305 64c.003-24.098 19.605-43.701 43.705-43.701 24.093 0 43.698 19.604 43.698 43.702 0 24.094-19.605 43.697-43.698 43.702zm0-85.315C41.067 22.388 22.4 41.055 22.395 64c.005 22.941 18.672 41.608 41.615 41.612 22.941-.004 41.605-18.671 41.605-41.612-.001-22.944-18.664-41.612-41.605-41.612z"/></g><g><g><g><path d="M64.003 26.658c-20.624 0-37.342 16.716-37.342 37.342 0 20.622 16.718 37.342 37.342 37.342 20.621 0 37.342-16.72 37.342-37.342 0-20.626-16.721-37.342-37.342-37.342z" fill="#fcc21b"/></g><g><g><path d="M64.917 85.807c-2.303.024-4.638-.481-6.535-1.429-.951-.466-1.931-1.115-2.69-1.85-.762-.747-1.502-2.069-.604-2.983.727-.735 1.792.004 2.49.384 1.976 1.077 4.238 1.869 6.526 1.967 2.545.115 4.601-.661 6.787-1.812.623-.331 1.855-1.134 2.595-.69 1.824 1.106-.34 3.099-1.278 3.895-2.021 1.709-4.622 2.493-7.291 2.518z" fill="#2f2f2f"/></g><g><path d="M64.093 76.512c4.155 0 6.444-3.453 4.889-4.217-1.559-.768-1.705 2.024-4.889 2.024-3.185 0-3.335-2.792-4.891-2.024-1.556.764.735 4.217 4.891 4.217z" fill="#2f2f2f"/></g></g></g><g><g><g><path d="M51.447 63.825c0 3.123-2.308 5.661-5.145 5.661-2.824 0-5.127-2.539-5.127-5.661 0-3.127 2.303-5.662 5.127-5.662 2.838 0 5.145 2.535 5.145 5.662z" fill="#2f2f2f"/></g></g><g><g><path d="M76.559 63.825c0 3.123 2.307 5.661 5.135 5.661 2.833 0 5.131-2.539 5.131-5.661 0-3.127-2.298-5.662-5.131-5.662-2.829 0-5.135 2.535-5.135 5.662z" fill="#2f2f2f"/></g></g></g></g></g></svg>