<svg id="レイヤー_1" xmlns="http://www.w3.org/2000/svg" viewBox="0 0 128 128"><path d="M105.873 14.99a66.933 66.933 0 0 0-12.422-8.886c-.872-.491-1.995-.352-2.708.325-.714.683-.827 1.727-.285 2.528 15.626 22.926 12.293 52.516-8.109 71.969C70.447 92.273 54.5 98.523 37.436 98.523c-11.388 0-22.539-2.858-32.241-8.271-.874-.491-2.001-.356-2.714.326a1.943 1.943 0 0 0-.284 2.527 63.47 63.47 0 0 0 9.863 11.321c12.613 11.45 29.267 17.762 46.9 17.762 18.266 0 35.345-6.699 48.093-18.857 12.529-11.941 19.308-27.709 19.086-44.396-.223-16.686-7.419-32.293-20.266-43.945z" fill="#fcc21b"/></svg>