<svg id="レイヤー_1" xmlns="http://www.w3.org/2000/svg" viewBox="0 0 128 128"><g><path d="M109.672 93.805c-15.517 28.083-48.657 40.253-78.015 30.352-2.45-.826-10.626-2.84-18.598-9.173-2.524-2.005-3.146-4.405-2.812-5.733.432-1.717 1.767-2.537 3.791-2.505 9.91.155 14.16-.595 18.426-2.524 3.334-1.508 5.714-3.943 6.16-8.426.139-1.363.513-2.958 1.561-4.095 1.341-1.445 2.781-1.65 4.588-1.486 1.31.113 2.903 1.301 4.169 1.152-.714-.504-1.111-1.245-1.686-1.862-1.035-1.105-3.391-3.399-2.248-5.199.766-1.198 3.636-1.415 4.889-1.888 4.533-1.713 1.813-5.509-1.175-7.458-4.527-2.947-16.557-11.254-7.466-16.058 2.549-1.353 6.199-1.332 9.007-2.155 3.545-1.039 7.182-3.05 10.181-5.112 13.877-9.551 19.333-26.863 13.403-42.663-.68-1.811-3.55-6.142-1.853-7.808 1.009-.973 1.543-.828 2.81-.365a63.78 63.78 0 0 1 9.27 4.213c31.589 17.444 43.056 57.202 25.598 88.793z" fill="#fcc21b"/><g><path d="M90.319 66.112a18.822 18.822 0 0 1-3.041.108c-1.994-.077-3.589-.488-4.859-1.091-2.401-1.146-3.826-2.982-4.686-4.604-.093-.18-.163-.339-.247-.514a12.901 12.901 0 0 1-.617-1.554l-.163-.592-.027-.144-.005-.021-.006.006a2.228 2.228 0 0 0-2.576-1.801 2.233 2.233 0 0 0-1.805 2.582c.03.148.345 1.913 1.507 4.12 1.157 2.19 3.22 4.876 6.707 6.542 2.673 1.28 6.119 1.897 10.356 1.379a2.23 2.23 0 0 0 1.945-2.48 2.223 2.223 0 0 0-2.483-1.936z" fill="#2f2f2f"/></g></g></svg>