<svg id="レイヤー_1" xmlns="http://www.w3.org/2000/svg" viewBox="0 0 128 128"><g><path d="M64 .285C28.871.285.293 28.867.283 64 .289 99.128 28.871 127.711 64 127.715c35.135-.004 63.715-28.587 63.715-63.715C127.715 28.867 99.135.285 64 .285zm25.201 84.96c-6.244-1.848-13.4-3.094-21.59-3.381V67.611h24.176c-.254 6.622-1.209 12.449-2.586 17.634zM38.748 42.739c6.26 1.857 13.432 3.109 21.641 3.396v14.253h-24.23c.247-6.626 1.202-12.461 2.589-17.649zm-2.531 24.872h24.172v14.253c-8.166.287-15.312 1.524-21.547 3.368-1.399-5.187-2.365-11.014-2.625-17.621zm55.57-7.223H67.611V46.135c8.17-.286 15.312-1.522 21.547-3.367 1.401 5.187 2.371 11.013 2.629 17.62zm28.578 0H99.066c-.264-7.533-1.354-14.168-2.961-20.052 5.727-2.346 10.52-5.191 14.492-8.168 5.579 8.145 9.106 17.795 9.768 28.22zm-14.228-33.91c-3.389 2.512-7.441 4.929-12.279 6.96C89.559 22.204 83.32 14.379 77.764 9.21c11.146 2.803 20.951 8.949 28.373 17.268zM86.92 35.883c-5.576 1.637-11.973 2.75-19.309 3.029V10.297c5.428 3.879 13.95 11.807 19.309 25.586zM60.389 10.221v28.691c-7.383-.283-13.82-1.411-19.426-3.066 5.369-13.902 13.961-21.782 19.426-25.625zM50.236 9.21c-5.553 5.169-11.789 12.994-16.086 24.228-4.842-2.031-8.894-4.448-12.275-6.96 7.416-8.319 17.221-14.465 28.361-17.268zm-32.83 22.963c3.975 2.972 8.768 5.817 14.494 8.163-1.607 5.884-2.699 12.519-2.963 20.052H7.639c.666-10.425 4.191-20.075 9.767-28.215zm11.532 35.438c.264 7.533 1.355 14.169 2.963 20.058-5.727 2.341-10.52 5.191-14.486 8.162-5.58-8.145-9.109-17.794-9.775-28.22h21.298zm-7.063 33.91c3.381-2.51 7.434-4.923 12.275-6.956 4.297 11.231 10.533 19.057 16.086 24.226-11.14-2.805-20.945-8.95-28.361-17.27zm19.209-9.405c5.578-1.636 11.975-2.746 19.305-3.028v28.615c-5.422-3.874-13.944-11.807-19.305-25.587zm26.527 25.654V89.088c7.365.282 13.785 1.401 19.377 3.047-5.353 13.907-13.912 21.798-19.377 25.635zm10.159 1.021c5.555-5.169 11.789-12.994 16.088-24.226 4.838 2.033 8.891 4.45 12.273 6.956-7.416 8.32-17.221 14.465-28.361 17.27zm32.828-22.96c-3.973-2.971-8.766-5.816-14.492-8.162 1.607-5.889 2.697-12.524 2.961-20.058h21.299c-.659 10.426-4.19 20.076-9.768 28.22z" fill="#006ca2"/></g></svg>