<svg id="レイヤー_1" xmlns="http://www.w3.org/2000/svg" viewBox="0 0 128 128"><g><path fill="#fcc21b" d="M43.476 97.833l5.819-23.672-18.494-15.362 24.111-1.928 9.092-22.194 9.091 22.194 24.106 1.928-18.488 15.362 5.808 23.672-20.517-12.985z"/><g fill="#f79329"><path d="M10.664 28.375c2.848 1.66 5.663 3.39 8.55 5.001 3.963 2.217 7.957 4.535 12.149 6.275 1.467.605 2.65-.449 3.239-1.702.637-1.366-.112-2.297-.744-3.513-1.638-3.132-3.213-6.296-5.086-9.294-1.896-3.042-3.358-6.377-5.603-9.205l-.198-.241c-1.112-1.403-2.489-3.309-4.47-3.148-1.922.16-3.106 1.772-4.483 2.95-2.308 1.976-4.133 4.563-5.647 7.17-.643 1.114-1.36 2.602-.478 3.818.639.872 1.871 1.369 2.771 1.889z"/><path d="M24.006 88.612c-3.202.744-6.431 1.414-9.584 2.409-3.17 1.001-6.527 1.527-9.606 2.892l-.255.123C3.033 94.71.982 95.508.672 97.329c-.311 1.778.867 3.218 1.611 4.733 1.237 2.549 3.144 4.803 5.14 6.779.857.846 2.029 1.842 3.331 1.323.937-.364 1.678-1.365 2.345-2.051 2.175-2.18 4.396-4.321 6.517-6.543 2.936-3.052 5.965-6.114 8.515-9.482.888-1.189.22-2.501-.777-3.319-1.088-.901-2.1-.44-3.348-.157z"/><path d="M96.639 39.651c4.188-1.74 8.182-4.058 12.149-6.275 2.88-1.612 5.697-3.341 8.556-5.001.89-.52 2.126-1.017 2.759-1.89.893-1.216.17-2.704-.478-3.818-1.515-2.607-3.34-5.194-5.649-7.17-1.37-1.177-2.554-2.79-4.48-2.95-1.971-.161-3.357 1.745-4.467 3.148l-.196.241c-2.25 2.827-3.701 6.163-5.607 9.205-1.873 2.999-3.448 6.163-5.087 9.294-.626 1.216-1.38 2.147-.737 3.513.581 1.254 1.765 2.309 3.237 1.703z"/><path d="M123.438 94.037l-.257-.123c-3.073-1.365-6.431-1.891-9.611-2.892-3.148-.996-6.371-1.665-9.578-2.409-1.249-.284-2.266-.744-3.347.156-.991.819-1.665 2.13-.777 3.319 2.549 3.368 5.586 6.431 8.508 9.482 2.126 2.223 4.349 4.364 6.521 6.543.671.686 1.409 1.687 2.346 2.051 1.305.52 2.475-.477 3.33-1.323 1.998-1.976 3.909-4.229 5.15-6.779.735-1.515 1.912-2.955 1.606-4.733-.321-1.82-2.356-2.618-3.891-3.292z"/><path d="M89.458 77.7l26.841-22.285c.858-.712 1.195-1.869.858-2.934a2.744 2.744 0 0 0-2.394-1.906L79.734 47.78 66.542 15.551a2.758 2.758 0 0 0-2.538-1.702 2.745 2.745 0 0 0-2.538 1.702L48.268 47.78l-35.033 2.795a2.732 2.732 0 0 0-2.39 1.906 2.728 2.728 0 0 0 .862 2.934L38.549 77.7l-8.444 34.37a2.74 2.74 0 0 0 4.129 2.966l29.771-18.832 29.765 18.832a2.751 2.751 0 0 0 3.068-.091 2.757 2.757 0 0 0 1.061-2.88L89.458 77.7zM43.476 97.833l5.819-23.672-18.494-15.362 24.111-1.928 9.092-22.194 9.091 22.194 24.106 1.928-18.488 15.362 5.809 23.672-20.518-12.985-20.528 12.985z"/></g></g></svg>