<svg id="レイヤー_1" xmlns="http://www.w3.org/2000/svg" viewBox="0 0 128 128"><g><path d="M63.798 2.384c-34.071 0-61.685 27.619-61.69 61.691.005 34.071 27.619 61.685 61.69 61.69 34.072-.005 61.691-27.619 61.691-61.69 0-34.073-27.618-61.691-61.691-61.691z" fill="#2f2f2f"/><path d="M63.798 127C29.107 126.995.878 98.766.873 64.075.878 29.377 29.107 1.148 63.798 1.148c34.697 0 62.926 28.229 62.926 62.926.001 34.692-28.228 62.921-62.926 62.926zm0-123.38c-33.331 0-60.449 27.119-60.454 60.455.005 33.331 27.124 60.449 60.454 60.454 33.336-.005 60.455-27.124 60.455-60.454 0-33.337-27.118-60.455-60.455-60.455z" fill="#fcc21b"/></g></svg>