<svg id="レイヤー_1" xmlns="http://www.w3.org/2000/svg" viewBox="0 0 128 128"><g><path d="M63.996.389C28.864.389.387 28.868.387 64s28.478 63.606 63.609 63.611c35.134-.005 63.616-28.478 63.616-63.611S99.13.389 63.996.389z" fill="#fcc21b"/><g><g><g><path d="M65.266 95.49c-3.483.035-7.013-.732-9.874-2.155-1.435-.712-2.917-1.687-4.062-2.797-1.164-1.125-2.27-3.131-.915-4.509 1.095-1.11 2.712.014 3.763.582 2.981 1.632 6.397 2.827 9.864 2.977 3.831.174 6.927-1.001 10.232-2.743.945-.493 2.807-1.717 3.922-1.04 2.753 1.672-.519 4.678-1.936 5.883-3.043 2.583-6.968 3.762-10.994 3.802z" fill="#2f2f2f"/></g><g><g><g><path d="M44.722 58.242c0 4.39-3.246 7.959-7.228 7.959-3.981 0-7.217-3.568-7.217-7.959 0-4.394 3.235-7.958 7.217-7.958 3.982 0 7.228 3.564 7.228 7.958z" fill="#2f2f2f"/></g></g><g><g><path d="M83.044 58.242c0 4.39 3.235 7.959 7.216 7.959 3.982 0 7.217-3.568 7.217-7.959 0-4.394-3.234-7.958-7.217-7.958-3.981 0-7.216 3.564-7.216 7.958z" fill="#2f2f2f"/></g></g></g></g><path d="M71.393 75.084c-2.35-1.154-2.573 3.061-7.381 3.061-2.807 0-6.262-1.956-6.201-5.076.021-.573.029-1.09.169-1.653.158-.627.378-1.194.598-1.796.438-1.175.995-2.29 1.502-3.429.398-.886.747-1.807 1.036-2.738 1.353-4.37 1.403-9.118-1.104-13.174-.329-.528-.623-1.129-1.105-1.498-1.603-1.239-2.573.259-2.31 1.722.379 2.18 1.672 4.017 1.892 6.276.329 3.354-.607 7.117-2.25 10.083-.229.413-.503.831-.701 1.269-1.061 2.324-1.861 5.032-.871 7.57 1.394 3.543 5.693 5.753 9.347 5.753 6.269.001 9.727-5.215 7.379-6.37z" fill="#2f2f2f"/></g></g></svg>