<svg id="レイヤー_1" xmlns="http://www.w3.org/2000/svg" viewBox="0 0 128 128"><g><path d="M64.005.402C28.875.402.412 28.875.401 64c.011 35.125 28.474 63.594 63.603 63.598 35.12-.004 63.594-28.473 63.594-63.598S99.125.402 64.005.402z" fill="#2f2f2f"/><g><g><g><path d="M65.269 95.482c-3.483.035-7.006-.726-9.871-2.154-1.435-.706-2.917-1.687-4.062-2.797-1.153-1.123-2.258-3.13-.914-4.502 1.094-1.11 2.715.01 3.76.576 2.987 1.632 6.4 2.832 9.863 2.977 3.831.174 6.938-1.001 10.23-2.737.946-.498 2.817-1.717 3.921-1.045 2.756 1.672-.516 4.678-1.93 5.882-3.046 2.583-6.966 3.761-10.997 3.8z" fill="#fff"/></g><g><g><g><path d="M44.725 58.243c0 4.389-3.243 7.956-7.221 7.956-3.982 0-7.215-3.567-7.215-7.956 0-4.395 3.232-7.952 7.215-7.952 3.977 0 7.221 3.558 7.221 7.952z" fill="#fff"/></g></g><g><g><path d="M83.043 58.243c0 4.389 3.235 7.956 7.226 7.956 3.97 0 7.204-3.567 7.204-7.956 0-4.395-3.234-7.952-7.204-7.952-3.991 0-7.226 3.558-7.226 7.952z" fill="#fff"/></g></g></g></g><path d="M71.399 75.082c-2.348-1.155-2.576 3.06-7.384 3.06-2.798 0-6.26-1.955-6.19-5.069.009-.573.02-1.096.159-1.658.159-.626.379-1.188.607-1.797.428-1.174.984-2.289 1.493-3.422.397-.892.745-1.808 1.035-2.737 1.353-4.374 1.403-9.116-1.105-13.177-.318-.527-.616-1.125-1.096-1.493-1.601-1.243-2.578.259-2.319 1.722.379 2.18 1.674 4.012 1.892 6.27.329 3.354-.606 7.115-2.247 10.081-.231.413-.499.836-.698 1.269-1.065 2.324-1.86 5.031-.866 7.569 1.384 3.542 5.693 5.751 9.336 5.751 6.269-.001 9.731-5.216 7.383-6.369z" fill="#fff"/></g></g></svg>