<svg id="Layer_1" xmlns="http://www.w3.org/2000/svg" viewBox="0 0 128 128"><path id="XMLID_25_" d="M113.083 98.592c.03-.05.055-.104.084-.155.021.042.044.081.066.122-.05.009-.1.021-.15.033z" fill="#86a32c"/><path id="XMLID_24_" d="M118.342 89.85a2.8 2.8 0 0 1-1.701-.581c-.296.33-.513.727-.629 1.169a2.82 2.82 0 0 1 1.429 2.446 2.832 2.832 0 0 1-2.832 2.832c-.484 0-.932-.133-1.331-.347-.927 1.502-2.574 2.512-4.468 2.512a5.234 5.234 0 0 1-3.822-1.663c2.028-.731 3.486-2.654 3.486-4.934 0-.483-.086-.942-.208-1.387.403-.498.739-1.034.944-1.563.366-.946.244-1.488.85-2.1.678-.685 1.754-.938 2.65-.8.919.142 1.068.608 2 .95 1.414.519 2.793.078 3.349-.1a6.291 6.291 0 0 0 2.244-1.303c.535.515.871 1.235.871 2.036a2.81 2.81 0 0 1-.73 1.882 2.812 2.812 0 0 1-2.102.951z" fill="#ed6c30"/><path id="XMLID_23_" d="M114.71 86.386c-.932-.342-1.081-.808-2-.95-.895-.139-1.971.115-2.65.8-.606.612-.484 1.153-.85 2.1-.205.529-.541 1.064-.944 1.563-.559.691-1.267 1.301-2.106 1.637-1.708.684-3.94.297-5.311-.804a83.785 83.785 0 0 0-2.701-9.283c1.018.386 2.079 1.262 2.602.894.989-.697 1.029-1.874.775-2.472.292-.352.532-.7.745-1.016.226.026.465-.003.721-.131.336-.168.628-.358.892-.561 1.236 1.094-.347 1.965 2.787 2.228 3.141.264 3.054.147 4.764-2.16 1.711-2.307-.54-1.71.726-3.1 1.266-1.39 3.048-.895 2.878.249-.157 1.059.617 3.136 3.287 2.374 1.045-.298 1.826.24 2.564-1.066 1.126 1.562 1.783 3.701 1.117 5.749-.322.99-.936 1.86-1.705 2.546a6.276 6.276 0 0 1-2.244 1.303c-.555.178-1.933.619-3.347.1z" fill="#fff3ab"/><path id="XMLID_22_" d="M81.745 36.238c.509.248 1.212.523 1.74.73 1.987.777 4.529 1.789 6.035 3.843a19 19 0 0 1 1.823.371l2.271-.741a3.098 3.098 0 0 1 1.171-.145l5.492.382a3.086 3.086 0 0 1 2.843 2.657l.657 4.764a3.085 3.085 0 0 1-1.704 3.195l-.148.072c.098.35.152.597.169.679l.031.195a6.234 6.234 0 0 0 1.25 3.11c1.403 1.806 3.421 2.253 4.224 2.361a2.4 2.4 0 0 1-.641 4.755c-1.387-.186-4.884-.965-7.374-4.171-1.301-1.675-1.854-3.406-2.101-4.763l-1.336.652a3.085 3.085 0 0 1-2.047.233l-5.026-1.16a3.076 3.076 0 0 1-2.104-1.729c-.912.574-1.849.936-2.683 1.258-1.118.431-1.843.748-2.392 1.287a78.395 78.395 0 0 1 10.177 14.049c.045-.05.079-.108.128-.155l1.161-1.121c.051-.891.303-1.708.514-2.374.177-.553.416-1.33.3-1.542-.178-.327-1.292-.987-4.234-.993-1.325-.003-2.396-2.108-2.393-3.434C87.55 57.182 88.624 55 89.947 55h.006c4.412 0 7.171 2.251 8.433 4.561.909 1.666.637 3.877.283 5.166.049.046.103.319.149.37l2.409 2.759c2.125.249 5.643.37 11.477-.214 1.303-.144 2.495.858 2.626 2.178a2.41 2.41 0 0 1-2.148 2.641c-3.178.32-5.926.49-8.277.49-.924 0-1.773-.027-2.577-.078l.147 2.94a2.629 2.629 0 0 1-.639 1.853l-.541.625a2.626 2.626 0 0 1-3.16.629l-1.161-.581a87.062 87.062 0 0 1 1.176 3.109c.39.148.547.574.869.826.518.404 1.217.572 2.16.021 1.528-.894.188-2.082.539-2.664s.77-.37 1.07-.025c.501.574.545 1.531 2.691 2.348 2.147.817 5.067.023 6.778-2.284.843-1.137 1.815-2.233 2.578-2.139.785.097 1.406 1 2.72 1.008 1.314.008 2.6-.546 3.338-1.852.205-.362.358-.79.407-1.342.223-2.542-3.319-1.012-2.223-3.191s3.71 1.604 5.666.133c1.837-1.382 1.951-4.497 1.28-6.655-1.386-4.455-3.144.272-5.013-.544-.791-.346-1.096-1.216-.9-2.5.267-1.747 4.053-.181 3.481-4.001-.232-1.548-1.67-2.741-3.031-2.998-1.211-.229-2.9.362-2.877 1.467.029 1.365-1.545 2.35-2.806 2.432-.909.059-1.774-.457-2.066-.767-.698-.739-.434-1.914.567-3.199 1.395-1.208 5.166-.512 6.699-3.233 1.625-2.885 1-7.199-2-10.998-2.999-3.799-4.432-3.667-6.066-3.766-1.633-.099-2.595 1.171-3.199 2.666-.455 1.126-1.215 1.578-1.733 1.866-1.38.766-3.809-.796-3.656-2.635.153-1.84 1.33-1.458 2.71-3.298.66-.88 1.686-5.367-4.19-6.696-5.876-1.328-2.626 5.974-5.672 5.208s-.268-3.559-2.683-4.67c-2.414-1.111-6.093 1.059-6.247 3.32-.019.284.072.53.226.799-.94-.237-.968-.849-.959-1.426.141-.147.285-.475.433-.672.364-.482.844-1.987-.041-3.987h.005s-.99-1.734-2.49-2.983-3.984-1.33-5.567-.789a.662.662 0 0 0-.316.251c-1.767.854-3.313 2.628-4.215.345-1.672-4.233 1.986-3.014 1.255-6.796-.731-3.781-6.41-6.266-9.202-4.536-1.318.817-1.236 3.255-1.576 5.256 2.324.077 4.011.83 5.027 2.255 1.272 1.783.91 3.849.765 4.453-.724 2.953-3.373 4.067-5.501 4.963-1.94.817-3.154 1.393-3.635 2.517-.318.739-.298 1.507-.247 1.637.52.388 3.741.48 9.529-2.639a2.4 2.4 0 0 1 2.278 4.225c-2.355 1.269-4.553 2.184-6.533 2.741-.362.102-.708.176-1.055.254l3.394 1.155a2.615 2.615 0 0 1 1.382 1.101l1.376 2.229c.868.046 1.659.009 2.32-.147a95.415 95.415 0 0 0 3.284-.903c1.89-.55 3.226-.981 3.96-1.217l.186-.059c-2.193-.862-4.554-1.893-4.857-4.398-.397-3.296 3.406-5.599 6.761-7.237l-1.583 6.56" fill="#bdcf46"/><path id="XMLID_21_" d="M50.892 22.793l-3.098 2.991a2.852 2.852 0 0 0-.853 2.371l.139 1.237c-.058.002-.118.019-.175.015-1.145-.088-2.519-1.444-3.872-3.819a2.399 2.399 0 1 0-4.171 2.375c1.234 2.165 2.579 3.753 4.017 4.795a71.197 71.197 0 0 0-5.536-.516c.033-.176.085-.349.075-.531l-.258-5.159a2.297 2.297 0 0 0-.597-1.432l-2.34-2.565a2.295 2.295 0 0 0-3.29-.104l-.86.831c-.272-.842-.601-1.376-.562-1.911-.29-.669-.439-1.451-.355-2.405.389-4.453 8.332-7.532 12.864-7.265 3.367.198 3.954 4.719 5.066 6.799.505.945 2.309.7 3.14.295 2.659-1.295-1.318-4.174.26-7.427 1.577-3.253 7.984-1.524 9.465-.2.731.654 2.186 1.912 1.733 3.533-.464 1.662-1.65 2.185-1.8 3.333a4.438 4.438 0 0 0 .066 1.477c-2.049.715-3.767 1.87-5.241 3.175a2.836 2.836 0 0 0-3.817.107z" fill="#bdcf46"/><path id="XMLID_20_" d="M28.18 30.53a2.29 2.29 0 0 0 1.212 1.767c-4.521.321-9.044 1.188-13.054 2.878-.027-.897.162-1.776.683-2.441 1.556-1.983 3.515 1.192 4.891-1.451 1.375-2.642-6.079-1.248-3.562-6.377s6.428-3.197 7.095-2.395c1.389 1.671.789 2.672 2.432 3.218a2.29 2.29 0 0 0-.121 1.035l.424 3.766z" fill="#bdcf46"/><path id="XMLID_19_" d="M53.859 32.339c-.356-.444-.719-.711-1.072-.852.79-.736 1.546-1.544 2.288-2.353.926-1.007 1.869-2.022 2.885-2.91.096.116-.08-.364-.004-.236-1.343.583-2.217 2.314-2.295 3.476-.048.705.617 1.346 1.325 1.99-.434 1.194-.655 2.703-.335 4.124-.442 0-.883-.141-1.232-.468-.528-.493-.886-1.931-1.56-2.771z" fill="#ce4525"/><path id="XMLID_18_" d="M47.795 25.784l3.098-2.991a2.843 2.843 0 0 1 3.819-.111c-1.182 1.046-2.22 2.172-3.171 3.206-1.703 1.856-3.18 3.454-4.459 3.503l-.139-1.237c-.1-.879.215-1.755.852-2.37z" fill="#ce4525"/><path id="XMLID_17_" d="M30.935 22.45a2.296 2.296 0 0 1 3.29.104l2.34 2.565c.359.394.57.9.597 1.432l.258 5.159c.009.182-.042.355-.075.531a63.923 63.923 0 0 0-7.953.056 2.29 2.29 0 0 1-1.212-1.767l-.424-3.765a2.3 2.3 0 0 1 .686-1.908l1.633-1.577.86-.83z" fill="#ce4525"/><path id="XMLID_16_" d="M91.343 41.182l2.271-.741a3.098 3.098 0 0 1 1.171-.145l5.492.382a3.086 3.086 0 0 1 2.843 2.657l.657 4.764a3.085 3.085 0 0 1-1.704 3.195l-.148.072c-.319-1.141-1.139-3.48-2.945-5.622-2.027-2.406-4.798-3.834-7.637-4.562z" fill="#ce4525"/><path id="XMLID_15_" d="M89.509 48.998a8.937 8.937 0 0 0 1.144-2.992c1.797.54 3.486 1.441 4.657 2.831 1.437 1.704 1.97 3.704 2.062 4.087.024.185.074.405.111.61l-1.336.652a3.085 3.085 0 0 1-2.047.233l-5.026-1.16a3.076 3.076 0 0 1-2.104-1.729 7.918 7.918 0 0 0 2.539-2.532z" fill="#ce4525"/><path id="XMLID_14_" d="M98.095 67.053c.028-.083.223-.698.353-1.104.071-.224.147-.48.221-.748.049.046.103.083.149.133l2.409 2.64c-2.572-.301-3.097-.876-3.132-.921z" fill="#ce4525"/><path id="XMLID_13_" d="M93.36 66.848a4.694 4.694 0 0 0 .272 1.934c.907 2.44 3.64 3.772 8.696 4.093l.147 2.938a2.626 2.626 0 0 1-.639 1.852l-.541.624a2.626 2.626 0 0 1-3.16.629l-1.161-.581a82.928 82.928 0 0 0-4.903-10.214c.045-.05.079-.108.128-.155l1.161-1.12z" fill="#ce4525"/><path id="XMLID_12_" d="M78.621 47.197c1.951-.57 3.329-1.014 4.088-1.258l.48-.153c.747-.229 1.673-.365 2.681-.401a4.173 4.173 0 0 1-.422 1.054c-.598.951-1.445 1.314-2.89 1.872-1.239.478-2.718 1.063-4.001 2.307a77.541 77.541 0 0 0-2.848-2.612 122.61 122.61 0 0 0 2.912-.809z" fill="#bdcf46"/><path id="XMLID_11_" d="M55.661 29.464c.079-1.162.956-2.658 2.3-3.24-.076-.128.096.116 0 0 1.483-1.297 3.124-2.317 5.123-2.583 2.4-.318 2.937.157 2.942.162.028.066.034.351-.005.53-.143.587-1.442 1.133-2.697 1.662-2.184.919-4.902 2.062-6.184 5.046-.055.129-.103.274-.153.413-.709-.644-1.374-1.285-1.326-1.99z" fill="#bdcf46"/><path id="XMLID_10_" d="M53.859 32.339c.674.84 1.031 2.278 1.559 2.771.349.327.791.468 1.232.468.064.285.153.563.264.836a56.242 56.242 0 0 0-7.855-2.526c1.386-.451 2.595-1.347 3.728-2.402.354.142.716.409 1.072.853z" fill="#bdcf46"/><path id="XMLID_9_" d="M65.521 39.153l3.394 1.155a2.615 2.615 0 0 1 1.382 1.101l1.376 2.229a14.239 14.239 0 0 1-1.778-.207 68.929 68.929 0 0 0-6.442-3.945 15.426 15.426 0 0 0 2.068-.333z" fill="#ce4525"/><path id="XMLID_8_" d="M73.993 43.491a95.415 95.415 0 0 0 3.284-.903c1.89-.55 3.226-.981 3.96-1.217l.186-.059c-2.193-.862-4.554-1.893-4.857-4.398-.397-3.296 1.806-5.599 5.162-7.237a2.4 2.4 0 0 1 2.106 4.313c-2.128 1.039-1.814 1.373-1.693 1.929.12.556.817.842 1.345 1.048 1.987.777 4.529 1.789 6.035 3.843a19 19 0 0 1 1.823.371c2.839.729 5.61 2.157 7.637 4.564 1.806 2.142 2.626 4.48 2.945 5.622.098.35.152.597.169.679l.031.195a6.234 6.234 0 0 0 1.25 3.11c1.403 1.806 3.421 2.253 4.224 2.361a2.4 2.4 0 0 1-.641 4.755c-1.387-.186-4.884-.965-7.374-4.171-1.301-1.675-1.854-3.406-2.101-4.763-.037-.205-.087-.425-.111-.61-.092-.383-.625-2.382-2.062-4.087-1.171-1.39-2.859-2.29-4.657-2.831a8.934 8.934 0 0 1-1.144 2.992 7.92 7.92 0 0 1-2.54 2.532c-.912.574-1.849.936-2.683 1.258-1.118.431-1.843.748-2.392 1.287a76.425 76.425 0 0 0-3.338-3.457c1.283-1.245 2.763-1.829 4.001-2.307 1.445-.558 2.292-.92 2.89-1.872.108-.172.3-.581.422-1.054-1.008.036-1.934.173-2.681.401l-.48.153c-.759.244-2.137.687-4.088 1.258-1.106.322-2.21.625-2.912.809-.523-.458-1.04-.918-1.584-1.369l-.001-.001c-.485-.411-1.97-1.641-4.228-3.204.631.113 1.219.177 1.778.207.867.047 1.658.01 2.319-.147z" fill="#f79329"/><path id="XMLID_7_" d="M69.921 21.003c1.272 1.783.91 3.849.765 4.453-.724 2.953-3.373 4.067-5.501 4.963-1.94.817-3.154 1.393-3.635 2.517-.318.739-.298 1.507-.247 1.637.52.388 3.741.48 9.529-2.639a2.4 2.4 0 0 1 2.278 4.225c-2.355 1.269-4.553 2.184-6.533 2.741-.362.102-.708.176-1.055.254a16.01 16.01 0 0 1-2.067.335 64.369 64.369 0 0 0-6.54-3.073 5.299 5.299 0 0 1-.264-.836c-.32-1.421-.099-2.93.335-4.124.051-.139.098-.284.153-.413 1.282-2.984 4-4.127 6.184-5.046 1.255-.528 2.554-1.074 2.697-1.662.039-.18.033-.465.005-.53-.005-.005-.542-.48-2.942-.162-1.998.266-3.639 1.285-5.123 2.583-1.015.888-1.959 1.902-2.885 2.91-.743.809-1.498 1.617-2.288 2.353-1.133 1.055-2.341 1.951-3.728 2.402-.189-.045-.371-.1-.562-.143a63.276 63.276 0 0 0-5.618-.988c-1.438-1.042-2.783-2.63-4.017-4.795a2.4 2.4 0 0 1 4.171-2.375c1.353 2.374 2.727 3.731 3.872 3.819.057.004.117-.013.175-.015 1.279-.049 2.756-1.647 4.459-3.503.95-1.034 1.989-2.16 3.171-3.206 1.474-1.305 3.192-2.46 5.241-3.175.787-.275 1.606-.506 2.502-.625.88-.116 1.692-.159 2.44-.135 2.325.075 4.012.828 5.028 2.253z" fill="#f79329"/><path id="XMLID_6_" d="M93.632 68.783a4.696 4.696 0 0 1-.272-1.934c.051-.891.303-1.708.514-2.374.177-.553.416-1.33.3-1.542-.178-.327-1.292-.987-4.234-.993-1.325-.003-2.396-2.108-2.393-3.434.003-1.324 1.077-3.506 2.4-3.506h.006c4.412 0 7.171 2.251 8.433 4.561.909 1.666.637 3.877.283 5.166-.074.268-.149.761-.221.985-.13.406-.325 1.14-.353 1.223.034.045.559.679 3.132.98 2.125.249 5.643.341 11.477-.243 1.303-.144 2.495.843 2.626 2.163a2.403 2.403 0 0 1-2.148 2.633c-3.178.32-5.926.486-8.277.486a40.47 40.47 0 0 1-2.577-.08c-5.055-.321-7.789-1.651-8.696-4.091z" fill="#f79329"/><path id="XMLID_5_" d="M1.449 54.936c.782-6.441 4.538-11.745 6.538-14.001 2.258-2.547 5.141-4.408 8.35-5.76 4.01-1.69 8.533-2.557 13.054-2.878a64.118 64.118 0 0 1 7.953-.056c1.932.104 3.788.283 5.536.516 2.054.274 3.966.611 5.618.988.19.043.372.098.562.143a56.11 56.11 0 0 1 7.855 2.526c2.379.958 4.57 2.01 6.54 3.073a68.929 68.929 0 0 1 6.442 3.945c2.258 1.563 3.743 2.793 4.228 3.204l.001.001c.544.451 1.061.911 1.584 1.369.982.86 1.937 1.729 2.848 2.612a76.425 76.425 0 0 1 3.338 3.457 78.395 78.395 0 0 1 10.177 14.049 82.928 82.928 0 0 1 4.903 10.214 87.062 87.062 0 0 1 1.176 3.109 83.785 83.785 0 0 1 2.701 9.283c1.238 5.416 1.452 8.933 1.458 9.078l.004.086c.016.336.08 1.451.335 2.877.098.549.203 1.121.324 1.7a5.253 5.253 0 0 0-.307 1.711c0 1.784.887 3.354 2.236 4.318.43 2.502 2.597 4.41 5.222 4.41a5.285 5.285 0 0 0 3.824-1.638c.338.103.689.175 1.06.175a3.64 3.64 0 0 0 1.364-.269c-.389.458-.782.916-1.232 1.367-5.001 5.015-13.07 4.242-22.255 1.685-9.185-2.556-31.303-12.491-47.654-22.346C19.319 78.27 6.081 67.67 6.081 67.67c-2.342-2.443-3.74-4.734-4.375-7.167-.238-.91-.598-2.759-.257-5.567z" fill="#fbc21a"/><path id="XMLID_2_" d="M115.007 113.447a3.64 3.64 0 0 0 1.364-.269 3.643 3.643 0 0 0 2.273-3.215c.766-.921 1.246-2.089 1.246-3.381 0-.94-.265-1.811-.694-2.577a2.825 2.825 0 0 0 1.878-2.655 2.81 2.81 0 0 0-.177-.956 5.248 5.248 0 0 0 2.229-4.289c0-1.555-.687-2.938-1.759-3.901a2.81 2.81 0 0 0 .207-1.052c0-.922-.448-1.733-1.13-2.25a2.81 2.81 0 0 1-2.101.949 2.8 2.8 0 0 1-1.701-.581c-.296.33-.513.727-.629 1.169a2.82 2.82 0 0 1 1.429 2.446 2.832 2.832 0 0 1-2.832 2.832c-.484 0-.932-.133-1.331-.347-.927 1.502-2.574 2.512-4.468 2.512a5.234 5.234 0 0 1-3.822-1.663c2.028-.731 3.486-2.654 3.486-4.934 0-.483-.086-.942-.208-1.387-.559.691-1.267 1.301-2.106 1.637-1.708.684-3.94.297-5.311-.804 1.238 5.416 1.452 8.933 1.458 9.078l.004.086c.016.336.08 1.451.335 2.877.098.549.203 1.121.324 1.7a5.253 5.253 0 0 0-.307 1.711c0 1.784.887 3.354 2.236 4.318.43 2.502 2.597 4.41 5.222 4.41a5.285 5.285 0 0 0 3.824-1.638 3.65 3.65 0 0 0 1.061.174zm-1.84-15.01c.021.042.044.081.066.122-.051.01-.1.022-.15.033.031-.05.056-.104.084-.155z" fill="#ed6c30"/><path id="XMLID_1_" d="M115.856 86.62s3.023-1.499 3.373-4.643c.225-2.022.172-3.853.172-3.853s1.342-.572 1.897-2.778c.268-1.066 2.43 1.19 2.493 3.604s.008 5.724-2.329 7.452c-2.336 1.728-5.606.218-5.606.218z" fill="#ed6c30"/></svg>