<svg id="图层_1" xmlns="http://www.w3.org/2000/svg" viewBox="0 0 128 128"><g fill="#70b2e2"><path d="M29.796 78.531a1.56 1.56 0 0 0-.723-.111c-1.433.099-8.903 6.76-10.863 11.574-1.329 3.271.251 7.028 3.528 8.36 3.279 1.334 7.033-.248 8.365-3.526 1.48-3.642 1.885-15.401-.307-16.297"/><path d="M42.062 102.056a1.535 1.535 0 0 0-.726-.118c-1.43.101-8.9 6.76-10.86 11.575-1.332 3.272.249 7.027 3.528 8.361a6.428 6.428 0 0 0 8.365-3.527c1.483-3.642 1.881-15.402-.307-16.291"/><path d="M66.713 82.672a1.563 1.563 0 0 0-.723-.113c-1.434.101-8.904 6.76-10.864 11.571-1.332 3.276.249 7.032 3.528 8.363 3.279 1.332 7.033-.248 8.362-3.528 1.484-3.639 1.888-15.399-.303-16.293"/><path d="M80.298 104.082a1.528 1.528 0 0 0-.72-.11c-1.432.098-8.905 6.76-10.865 11.571a6.426 6.426 0 0 0 3.528 8.361c3.282 1.334 7.036-.25 8.367-3.525 1.479-3.642 1.886-15.402-.31-16.297"/><path d="M101.537 83.672a1.63 1.63 0 0 0-.726-.113c-1.431.101-8.906 6.763-10.865 11.572-1.329 3.275.251 7.03 3.532 8.362 3.279 1.331 7.034-.252 8.36-3.525 1.485-3.643 1.886-15.403-.301-16.296"/></g><g><path d="M107.919 29.986h-.01c.001-.067.01-.131.01-.198 0-9.094-7.372-16.466-16.466-16.466-1.17 0-2.311.126-3.412.358C84.779 5.74 76.978.145 67.862.145c-6.845 0-12.948 3.158-16.947 8.09a18.875 18.875 0 0 0-8.568-2.06c-9.851 0-17.947 7.506-18.886 17.111-10.726.564-19.322 9.346-19.463 20.24C3.851 54.88 12.936 64.203 24.29 64.35c.882.011 1.747-.052 2.601-.148 4.385 9.25 13.805 15.649 24.722 15.649a27.236 27.236 0 0 0 17.348-6.207c3.609 2.673 8.061 4.273 12.897 4.273 9.92 0 18.269-6.657 20.867-15.742a16.47 16.47 0 0 0 5.195.846c9.122 0 16.517-7.395 16.517-16.517-.001-9.123-7.396-16.518-16.518-16.518z" fill="#e3ebee"/><path d="M117.625 33.137c3.741 3.777 1.098 12.446-1.48 15.271-5.062 5.549-14.361 4.254-18.091 3.451-1.009-.217-1.172-.143-1.5.058-.294.18-.431.465-.748 1.146-1.204 2.589-4.303 7.607-10.851 9.629-6.823 2.107-13.257-1.1-16.274-3.019-1.141-.726-1.191-.742-1.707-.738-.523.005-1.042.39-1.659.876-2.719 2.141-8.942 5.919-18.528 5.37-9.401-.538-14.779-6.335-16.619-9.311-.353-.571-.736-1.051-1.167-1.095-.501-.052-1.062.468-1.487.882-4.003 3.895-16.581 5.064-20.758-1.569C11 60.895 17.56 64.263 24.29 64.35c.882.011 1.747-.052 2.601-.148 4.385 9.25 13.805 15.649 24.722 15.649a27.236 27.236 0 0 0 17.348-6.207c3.609 2.673 8.061 4.273 12.897 4.273 9.92 0 18.268-6.657 20.867-15.742a16.47 16.47 0 0 0 5.195.846c9.122 0 16.517-7.395 16.517-16.517-.001-4.862-2.442-10.341-6.812-13.367z" fill="#b9cdd2"/></g></svg>