<svg id="レイヤー_1" xmlns="http://www.w3.org/2000/svg" xmlns:xlink="http://www.w3.org/1999/xlink" viewBox="0 0 128 128"><g id="liOM0f.tif"/><g id="BKep9k.tif"/><g id="QaP2Of.tif"/><g><path d="M64 105.108c-6.555 0-11.868-5.314-11.868-11.868V12.868C52.132 6.314 57.445 1 64 1c6.555 0 11.868 5.314 11.868 11.868V93.24c0 6.555-5.313 11.868-11.868 11.868z" fill="#77a3ad"/><circle cx="64" cy="103.613" r="22.5" fill="#77a3ad"/><circle cx="64" cy="103.613" r="16.875" fill="#fff"/><path d="M64 106.673a6.884 6.884 0 0 1-6.884-6.884V14.181a6.884 6.884 0 1 1 13.768 0V99.79A6.884 6.884 0 0 1 64 106.673z" fill="#fff"/><path d="M64.166 99.751h-.332a3.727 3.727 0 0 1-3.727-3.727v-61.39a3.727 3.727 0 0 1 3.727-3.727h.332a3.727 3.727 0 0 1 3.727 3.727v61.39a3.727 3.727 0 0 1-3.727 3.727z" fill="#ed6c30"/><circle cx="64" cy="103.613" r="12.417" fill="#ed6c30"/><g fill="none" stroke="#77a3ad" stroke-width="4" stroke-linecap="round" stroke-linejoin="round" stroke-miterlimit="10"><path d="M55.93 20.938h6.31"/><path d="M56.113 36.889h6.31"/><path d="M56.113 52.84h6.31"/><path d="M56.113 67.831h6.31"/><path d="M56.113 82.747h6.31"/></g></g></svg>