<svg id="图层_1" xmlns="http://www.w3.org/2000/svg" viewBox="0 0 128 128"><g><g fill="#ffb74d"><path d="M94.724 31.301c-9.739 0-17.633 7.889-17.633 17.621 0 9.744 7.894 17.636 17.633 17.636 9.737 0 17.633-7.892 17.633-17.636-.001-9.732-7.896-17.621-17.633-17.621"/><path d="M90.927 28.082h7.594a1.067 1.067 0 0 0 1.002-1.442L95.73 16.361a1.067 1.067 0 1 0-2.009 0l-3.799 10.284a1.066 1.066 0 0 0 1.005 1.437"/><path d="M112.149 36.876c.2.201.473.315.756.315.065 0 .125-.01.189-.021a1.07 1.07 0 0 0 .782-.607l4.59-9.957a1.08 1.08 0 0 0-.215-1.206 1.08 1.08 0 0 0-1.211-.217l-9.959 4.596a1.06 1.06 0 0 0-.602.783c-.062.344.051.695.297.948l5.373 5.366z"/><path d="M127.296 47.921l-10.29-3.794a1.068 1.068 0 0 0-.979.129 1.06 1.06 0 0 0-.461.879l.003 7.59c0 .352.175.681.461.881a1.095 1.095 0 0 0 .978.122l10.288-3.794a1.073 1.073 0 1 0 0-2.013"/><path d="M113.873 61.295a1.07 1.07 0 0 0-.783-.611 1.082 1.082 0 0 0-.943.301l-5.364 5.367a1.056 1.056 0 0 0-.302.945c.062.347.292.641.602.789l9.967 4.587a1.066 1.066 0 0 0 1.203-.217c.317-.317.403-.795.215-1.204l-4.595-9.957z"/><path d="M98.516 69.771l-7.591.003c-.349 0-.68.172-.876.46-.198.29-.248.655-.127.985l3.799 10.283a1.07 1.07 0 0 0 2.009 0l3.793-10.288a1.07 1.07 0 0 0-.129-.985 1.06 1.06 0 0 0-.878-.458"/><path d="M77.299 60.984a1.086 1.086 0 0 0-.943-.301c-.347.064-.64.291-.786.611l-4.592 9.956a1.072 1.072 0 0 0 .976 1.519c.152 0 .305-.028.448-.095l9.957-4.592a1.079 1.079 0 0 0 .312-1.736l-5.372-5.362z"/><path d="M72.812 53.792c.214 0 .427-.064.611-.191.283-.2.461-.532.461-.881l-.005-7.59a1.068 1.068 0 0 0-1.439-1.005l-10.292 3.796c-.42.158-.702.559-.702 1.012 0 .444.282.845.702 1.003l10.292 3.792c.122.043.246.064.372.064"/><path d="M75.572 36.563a1.1 1.1 0 0 0 .783.612c.067.007.129.014.193.014.279 0 .554-.112.757-.313l5.365-5.372c.246-.253.357-.604.296-.948a1.073 1.073 0 0 0-.606-.783l-9.959-4.591a1.08 1.08 0 0 0-1.208.22c-.319.32-.403.8-.216 1.206l4.595 9.955z"/></g><g><path d="M105.88 61.542h-.01c.001-.068.01-.134.01-.202 0-9.265-7.511-16.776-16.776-16.776-1.192 0-2.354.129-3.476.365-3.323-8.09-11.271-13.79-20.559-13.79-6.974 0-13.191 3.217-17.266 8.243a19.229 19.229 0 0 0-8.729-2.099c-10.037 0-18.285 7.647-19.242 17.433C8.903 55.291.145 64.238.002 75.338c-.15 11.568 9.107 21.066 20.674 21.216.899.012 1.779-.052 2.65-.151 4.468 9.424 14.065 15.943 25.187 15.943 6.71 0 12.865-2.373 17.674-6.324 3.677 2.723 8.213 4.353 13.14 4.353 10.106 0 18.612-6.783 21.26-16.039a16.79 16.79 0 0 0 5.293.862c9.294 0 16.828-7.534 16.828-16.828s-7.534-16.828-16.828-16.828z" fill="#e3ebee"/><path d="M115.768 64.752c3.811 3.848 1.119 12.68-1.508 15.559-5.157 5.653-14.631 4.334-18.431 3.516-1.028-.221-1.194-.146-1.528.059-.3.184-.439.474-.762 1.167-1.227 2.638-4.384 7.751-11.055 9.811-6.952 2.147-13.507-1.121-16.581-3.076-1.163-.739-1.214-.756-1.739-.752-.533.005-1.062.397-1.691.892-2.77 2.182-9.111 6.031-18.877 5.471-9.578-.548-15.058-6.454-16.931-9.487-.36-.582-.75-1.07-1.189-1.116-.511-.053-1.082.477-1.515.898-4.078 3.969-16.893 5.159-21.149-1.599 4.322 6.936 11.006 10.367 17.863 10.456.899.012 1.779-.052 2.65-.151 4.468 9.424 14.065 15.943 25.187 15.943 6.71 0 12.865-2.373 17.674-6.324 3.677 2.723 8.213 4.353 13.14 4.353 10.106 0 18.612-6.783 21.26-16.039a16.79 16.79 0 0 0 5.293.862c9.294 0 16.828-7.534 16.828-16.828.001-4.949-2.487-10.531-6.939-13.615z" fill="#b9cdd2"/></g></g></svg>