<svg id="图层_1" xmlns="http://www.w3.org/2000/svg" viewBox="0 0 128 128"><g fill="#95c8ec"><g><path d="M27.596 94.424c.859 1.455.628 3.176-.509 3.85-1.142.67-2.761.039-3.618-1.414l-8.92-15.129c-.858-1.453-.63-3.176.507-3.848 1.14-.674 2.759-.039 3.618 1.416l8.922 15.125z"/><path d="M29.831 85.6c1.685-.014 3.066 1.043 3.079 2.369.013 1.32-1.346 2.406-3.034 2.422l-17.562.164c-1.69.014-3.068-1.043-3.079-2.367-.013-1.32 1.345-2.408 3.036-2.424l17.56-.164z"/><path d="M23.307 79.252c.827-1.469 2.435-2.131 3.588-1.48 1.152.652 1.412 2.369.582 3.842L18.84 96.899c-.833 1.473-2.439 2.137-3.59 1.486-1.153-.652-1.413-2.371-.582-3.842l8.639-15.291z"/></g><g><path d="M45.474 122.688c.861 1.455.631 3.178-.509 3.852-1.14.672-2.759.037-3.615-1.416l-8.923-15.127c-.858-1.453-.63-3.176.512-3.85 1.138-.672 2.757-.037 3.615 1.418l8.92 15.123z"/><path d="M47.707 113.865c1.689-.014 3.068 1.043 3.081 2.367.013 1.324-1.344 2.408-3.034 2.422l-17.56.168c-1.689.012-3.066-1.045-3.079-2.367-.013-1.324 1.344-2.41 3.034-2.424l17.558-.166z"/><path d="M41.184 107.521c.831-1.471 2.439-2.135 3.592-1.482 1.153.648 1.41 2.369.584 3.838l-8.64 15.287c-.833 1.473-2.437 2.137-3.59 1.484-1.152-.652-1.413-2.369-.584-3.838l8.638-15.289z"/></g><g><path d="M70.523 103.893c.86 1.453.631 3.178-.509 3.848-1.141.674-2.76.041-3.616-1.414L57.476 91.2c-.858-1.451-.63-3.176.507-3.85 1.142-.672 2.761-.039 3.62 1.418l8.92 15.125z"/><path d="M72.761 95.068c1.685-.016 3.064 1.045 3.076 2.367.013 1.324-1.345 2.41-3.034 2.424l-17.561.162c-1.688.018-3.066-1.041-3.077-2.363-.015-1.324 1.345-2.41 3.036-2.424l17.56-.166z"/><path d="M66.236 88.725c.827-1.469 2.436-2.135 3.588-1.484 1.153.65 1.411 2.371.582 3.84l-8.637 15.289c-.831 1.471-2.439 2.137-3.59 1.484-1.153-.652-1.415-2.373-.584-3.84l8.641-15.289z"/></g><g><path d="M113.269 96.422c.858 1.453.629 3.176-.509 3.85-1.14.67-2.762.037-3.615-1.416l-8.923-15.127c-.858-1.453-.629-3.176.509-3.848 1.138-.674 2.76-.039 3.618 1.416l8.92 15.125z"/><path d="M115.504 87.6c1.689-.016 3.065 1.041 3.078 2.365.013 1.324-1.344 2.408-3.033 2.424l-17.562.164c-1.689.014-3.065-1.043-3.078-2.367-.013-1.324 1.347-2.408 3.038-2.426l17.557-.16z"/><path d="M108.98 81.25c.828-1.467 2.437-2.131 3.587-1.48 1.155.652 1.413 2.371.584 3.842l-8.639 15.285c-.829 1.473-2.436 2.137-3.59 1.486-1.15-.652-1.413-2.373-.582-3.842l8.64-15.291z"/></g><g><path d="M94.197 122.639c.859 1.453.629 3.178-.509 3.852-1.14.67-2.761.037-3.615-1.416l-8.923-15.129c-.858-1.453-.629-3.174.509-3.848 1.138-.672 2.76-.037 3.618 1.418l8.92 15.123z"/><path d="M96.433 113.816c1.689-.014 3.065 1.043 3.078 2.367.013 1.324-1.344 2.408-3.033 2.424l-17.562.164c-1.689.014-3.065-1.043-3.078-2.367-.013-1.324 1.347-2.408 3.038-2.426l17.557-.162z"/><path d="M89.909 107.469c.828-1.467 2.437-2.131 3.588-1.48 1.154.65 1.412 2.371.583 3.84l-8.639 15.287c-.829 1.473-2.436 2.137-3.59 1.484-1.15-.65-1.413-2.371-.582-3.84l8.64-15.291z"/></g></g><g><path d="M109.957 31.714h-.011c.001-.07.011-.138.011-.209 0-9.563-7.752-17.316-17.316-17.316-1.231 0-2.43.133-3.588.377C85.623 6.216 77.419.332 67.833.332c-7.198 0-13.615 3.321-17.822 8.508a19.842 19.842 0 0 0-9.01-2.166c-10.36 0-18.872 7.893-19.861 17.993C9.863 25.262.823 34.497.675 45.953c-.154 11.94 9.399 21.744 21.339 21.898.928.012 1.837-.054 2.735-.156 4.611 9.727 14.517 16.456 25.997 16.456a28.635 28.635 0 0 0 18.242-6.527c3.796 2.81 8.477 4.493 13.562 4.493 10.431 0 19.211-7.001 21.943-16.555 1.719.57 3.552.89 5.463.89 9.593 0 17.369-7.776 17.369-17.369.002-9.593-7.775-17.369-17.368-17.369z" fill="#e3ebee"/><path d="M120.164 35.028c3.934 3.971 1.155 13.088-1.556 16.059-5.323 5.835-15.102 4.474-19.024 3.629-1.061-.228-1.232-.151-1.577.061-.31.19-.453.489-.786 1.205-1.266 2.722-4.525 8-11.41 10.126-7.175 2.216-13.941-1.157-17.114-3.175-1.2-.763-1.253-.781-1.795-.776-.55.005-1.096.41-1.745.921-2.859 2.252-9.404 6.225-19.484 5.647-9.886-.566-15.542-6.662-17.476-9.792-.371-.601-.774-1.105-1.227-1.152-.527-.055-1.116.492-1.563.927-4.209 4.096-17.436 5.325-21.829-1.65 4.461 7.159 11.36 10.701 18.437 10.792.928.012 1.837-.054 2.735-.156 4.611 9.727 14.517 16.456 25.997 16.456a28.635 28.635 0 0 0 18.242-6.527c3.796 2.811 8.477 4.493 13.562 4.493 10.431 0 19.211-7.001 21.943-16.555 1.719.57 3.552.89 5.463.89 9.593 0 17.369-7.776 17.369-17.369.001-5.11-2.566-10.872-7.162-14.054z" fill="#b9cdd2"/></g></svg>