<svg id="图层_1" xmlns="http://www.w3.org/2000/svg" viewBox="0 0 128 128"><g><path d="M22.954 92.28a1.41 1.41 0 0 0-.664-.101c-1.307.091-8.149 6.187-9.939 10.59a5.882 5.882 0 0 0 3.228 7.651 5.881 5.881 0 0 0 7.656-3.228c1.356-3.333 1.725-14.094-.281-14.912" fill="#70b2e2"/><path d="M44.685 108.484a1.454 1.454 0 0 0-.665-.103c-1.306.091-8.149 6.185-9.939 10.588a5.883 5.883 0 0 0 3.228 7.654 5.883 5.883 0 0 0 7.657-3.229c1.354-3.328 1.724-14.095-.281-14.91" fill="#70b2e2"/><path d="M71.672 96.893a1.417 1.417 0 0 0-.664-.106c-1.307.093-8.15 6.189-9.94 10.592a5.884 5.884 0 0 0 3.228 7.653 5.885 5.885 0 0 0 7.657-3.23c1.355-3.329 1.724-14.097-.281-14.909" fill="#70b2e2"/><path d="M96.232 103.977a1.427 1.427 0 0 0-.665-.101c-1.305.093-8.149 6.187-9.939 10.592-1.218 2.993.231 6.431 3.229 7.652a5.888 5.888 0 0 0 7.657-3.229c1.354-3.335 1.723-14.096-.282-14.914" fill="#70b2e2"/><g fill="#ffb74d"><path d="M79.044 19.997c-11.858 0-21.477 9.612-21.477 21.469 0 11.864 9.619 21.481 21.477 21.481 11.862 0 21.471-9.617 21.471-21.481 0-11.856-9.609-21.469-21.471-21.469"/><path d="M74.421 16.084h9.243a1.308 1.308 0 0 0 1.227-1.76L80.265 1.802a1.299 1.299 0 0 0-2.444 0l-4.626 12.527c-.145.4-.09.851.154 1.194.244.36.649.561 1.072.561"/><path d="M100.267 26.793c.247.246.577.382.92.382a1.312 1.312 0 0 0 1.185-.765l5.591-12.129a1.306 1.306 0 0 0-1.734-1.73l-12.133 5.594a1.315 1.315 0 0 0-.373 2.111l6.544 6.537z"/><path d="M118.718 40.246l-12.532-4.62a1.305 1.305 0 0 0-1.758 1.223l.002 9.247c0 .426.211.829.56 1.073.225.147.484.229.748.229.152 0 .303-.028.448-.082l12.532-4.619c.515-.187.854-.678.854-1.227 0-.547-.339-1.035-.854-1.224"/><path d="M102.369 56.536a1.291 1.291 0 0 0-.954-.743 1.314 1.314 0 0 0-1.153.355l-6.536 6.547c-.303.295-.44.731-.363 1.148.074.422.347.778.732.958l12.134 5.586c.176.083.361.115.552.115.337 0 .669-.128.918-.374.388-.392.492-.973.263-1.465l-5.593-12.127z"/><path d="M83.665 66.857h-9.247a1.313 1.313 0 0 0-1.225 1.759l4.628 12.53a1.303 1.303 0 0 0 2.444 0l4.626-12.53a1.317 1.317 0 0 0-.155-1.201 1.284 1.284 0 0 0-1.071-.558"/><path d="M57.825 56.149a1.315 1.315 0 0 0-1.154-.355 1.3 1.3 0 0 0-.957.743l-5.59 12.127a1.291 1.291 0 0 0 .264 1.465c.25.251.578.382.921.382.187 0 .369-.036.548-.119l12.128-5.594c.39-.18.665-.536.738-.958a1.294 1.294 0 0 0-.364-1.148l-6.534-6.543z"/><path d="M52.359 47.396a1.312 1.312 0 0 0 1.304-1.304l-.007-9.247a1.3 1.3 0 0 0-1.757-1.222l-12.53 4.622c-.512.189-.855.68-.855 1.229 0 .544.343 1.034.855 1.225l12.533 4.615c.146.054.3.082.457.082"/><path d="M55.716 26.409a1.32 1.32 0 0 0 1.187.761 1.3 1.3 0 0 0 .923-.378l6.538-6.544c.299-.304.433-.735.359-1.155a1.28 1.28 0 0 0-.738-.952L51.852 12.55a1.304 1.304 0 0 0-1.728 1.73l5.592 12.129z"/></g><g><path d="M95.722 52.875h-.008c.001-.056.008-.11.008-.167 0-7.639-6.193-13.831-13.831-13.831-.983 0-1.941.106-2.866.301-2.74-6.67-9.293-11.37-16.95-11.37-5.75 0-10.876 2.653-14.235 6.796a15.853 15.853 0 0 0-7.197-1.73c-8.275 0-15.075 6.305-15.864 14.373-9.01.474-16.23 7.851-16.349 17.002-.123 9.537 7.508 17.368 17.045 17.492.741.01 1.467-.043 2.185-.125 3.683 7.77 11.596 13.145 20.766 13.145a22.874 22.874 0 0 0 14.572-5.214 18.138 18.138 0 0 0 10.833 3.589c8.332 0 15.345-5.592 17.528-13.223 1.373.455 2.838.711 4.364.711 7.663 0 13.874-6.212 13.874-13.874 0-7.664-6.212-13.875-13.875-13.875z" fill="#e3ebee"/><path d="M103.875 55.522c3.142 3.172.922 10.454-1.243 12.828-4.252 4.661-12.063 3.573-15.196 2.899-.847-.182-.984-.12-1.26.048-.247.152-.362.391-.628.962-1.011 2.175-3.614 6.39-9.114 8.089-5.732 1.77-11.136-.924-13.67-2.536-.959-.61-1.001-.624-1.434-.62-.439.004-.876.328-1.394.736-2.284 1.799-7.512 4.972-15.563 4.511-7.897-.452-12.415-5.321-13.959-7.821-.297-.48-.618-.883-.98-.92-.421-.044-.892.393-1.249.741-3.362 3.272-13.928 4.253-17.436-1.318 3.563 5.718 9.074 8.548 14.727 8.621.741.01 1.467-.043 2.185-.125 3.683 7.77 11.596 13.145 20.766 13.145a22.874 22.874 0 0 0 14.572-5.214 18.138 18.138 0 0 0 10.833 3.589c8.332 0 15.345-5.592 17.528-13.223 1.373.455 2.838.711 4.364.711 7.663 0 13.874-6.212 13.874-13.874-.001-4.085-2.052-8.687-5.723-11.229z" fill="#b9cdd2"/></g></g></svg>