<svg id="Layer_1" xmlns="http://www.w3.org/2000/svg" viewBox="0 0 128 128"><g><g fill="#dfe7ea"><path id="XMLID_15_" d="M.217 33.212c4.159-10.004 15.15-18.491 24.504-19.211 20.139-1.549 27.337 9.786 44.899 9.786 14.735 0 22.45-2.494 26.48-7.392 1.162-1.412 1.554-1.655 1.868-1.503.409.197.664.198.127 2.388-2.183 8.898-10.487 23.345-28.044 23.776-18.651.459-22.987-9.753-43.243-11.297-7.555-.576-18.186-.589-25.082 4.364-.844.606-1.186.717-1.412.68-.291-.049-.484-.601-.097-1.591z"/><path id="XMLID_14_" d="M29.816 72.703c4.159-10.004 15.15-18.491 24.504-19.211 20.139-1.549 27.337 9.786 44.899 9.786 14.735 0 22.45-2.494 26.48-7.392 1.162-1.412 1.554-1.655 1.868-1.503.409.197.664.198.127 2.388-2.183 8.898-10.487 23.345-28.044 23.776-18.652.459-22.988-9.753-43.244-11.297-7.555-.576-18.186-.589-25.082 4.364-.844.606-1.186.717-1.412.68-.29-.049-.483-.601-.096-1.591z"/><path id="XMLID_13_" d="M.557 107.694c4.159-10.004 15.15-18.491 24.504-19.211 20.139-1.549 27.337 9.786 44.899 9.786 14.735 0 22.45-2.494 26.48-7.392 1.162-1.412 1.554-1.655 1.868-1.503.409.197.664.198.127 2.388-2.183 8.898-10.487 23.345-28.044 23.776-18.652.459-22.988-9.753-43.244-11.297-7.555-.576-18.186-.589-25.082 4.364-.844.606-1.186.717-1.412.68-.29-.049-.484-.601-.096-1.591z"/></g><g fill="#b9cdd2"><path d="M26.808 29.761C47.064 31.304 51.4 41.516 70.052 41.057c17.557-.432 25.861-14.878 28.044-23.776.537-2.189.282-2.191-.127-2.388-.176-.085-.383-.036-.73.264-3.159 8.803-11.453 18.337-27.114 18.722-18.652.459-22.988-9.753-43.244-11.297-7.144-.544-17.033 1.42-23.919 5.605C1.875 29.797.938 31.48.217 33.213c-.387.99-.194 1.542.097 1.591.226.038.568-.073 1.412-.68 6.896-4.952 17.527-4.939 25.082-4.363z"/><path d="M127.568 54.384c-.176-.085-.383-.036-.73.264-3.159 8.803-11.453 18.337-27.114 18.722-18.652.459-22.988-9.753-43.244-11.297-7.144-.544-17.033 1.42-23.919 5.605-1.087 1.61-2.024 3.293-2.745 5.026-.387.99-.194 1.542.097 1.591.226.038.568-.073 1.412-.68 6.896-4.953 17.526-4.939 25.082-4.364 20.257 1.543 24.592 11.755 43.244 11.297 17.557-.432 25.861-14.878 28.044-23.776.537-2.189.282-2.191-.127-2.388z"/><path d="M70.464 108.361c-18.652.459-22.988-9.753-43.244-11.297-7.144-.544-17.033 1.42-23.919 5.605-1.087 1.61-2.024 3.293-2.745 5.026-.387.99-.194 1.542.097 1.591.226.038.568-.073 1.412-.68 6.896-4.953 17.526-4.939 25.082-4.364 20.257 1.543 24.592 11.755 43.244 11.297 17.557-.432 25.861-14.878 28.044-23.776.537-2.189.282-2.191-.127-2.388-.176-.085-.382-.036-.73.264-3.158 8.803-11.453 18.337-27.114 18.722z"/></g></g></svg>