<svg id="图层_1" xmlns="http://www.w3.org/2000/svg" viewBox="0 0 128 128"><g fill="#fcc21b"/><g/><g><g fill="#ffb74d"><path d="M69.814 30.026c-16.922 0-30.647 13.721-30.647 30.637 0 16.933 13.725 30.653 30.647 30.653 16.924 0 30.645-13.72 30.645-30.653 0-16.917-13.721-30.637-30.645-30.637"/><path d="M63.219 24.44h13.195c.607 0 1.179-.298 1.528-.803a1.882 1.882 0 0 0 .216-1.707L71.562 4.061a1.854 1.854 0 1 0-3.49 0l-6.601 17.878a1.844 1.844 0 0 0 .216 1.706c.351.506.925.795 1.532.795"/><path d="M100.099 39.72c.352.353.828.547 1.319.547a1.871 1.871 0 0 0 1.69-1.087l7.974-17.309a1.857 1.857 0 0 0-.374-2.091 1.851 1.851 0 0 0-2.096-.379l-17.308 7.983a1.845 1.845 0 0 0-1.05 1.364 1.875 1.875 0 0 0 .512 1.647l9.333 9.325z"/><path d="M126.431 58.92l-17.885-6.592a1.854 1.854 0 0 0-1.709.222 1.851 1.851 0 0 0-.795 1.525l.007 13.193c0 .612.297 1.182.797 1.534.317.212.688.327 1.06.327.218 0 .439-.041.645-.115l17.882-6.596a1.86 1.86 0 0 0 1.217-1.752 1.867 1.867 0 0 0-1.219-1.746"/><path d="M103.101 82.162a1.873 1.873 0 0 0-1.358-1.057c-.6-.101-1.221.09-1.648.518l-9.327 9.333a1.848 1.848 0 0 0-.516 1.643c.104.599.496 1.11 1.05 1.363l17.313 7.975a1.874 1.874 0 0 0 2.092-.372 1.85 1.85 0 0 0 .374-2.096l-7.98-17.307z"/><path d="M76.41 96.897l-13.198.006c-.605 0-1.178.298-1.523.799a1.861 1.861 0 0 0-.222 1.705l6.604 17.883a1.86 1.86 0 0 0 3.49 0l6.596-17.886a1.865 1.865 0 0 0-.22-1.705 1.833 1.833 0 0 0-1.527-.802"/><path d="M39.529 81.624a1.886 1.886 0 0 0-1.643-.518 1.855 1.855 0 0 0-1.36 1.057L28.543 99.47a1.867 1.867 0 0 0 2.473 2.472l17.309-7.984a1.865 1.865 0 0 0 1.058-1.366 1.86 1.86 0 0 0-.519-1.639l-9.335-9.329z"/><path d="M31.73 69.13a1.874 1.874 0 0 0 1.861-1.865l-.007-13.195a1.859 1.859 0 0 0-2.503-1.746l-17.885 6.602a1.858 1.858 0 0 0-1.216 1.754c0 .774.482 1.472 1.216 1.742l17.889 6.594c.207.073.425.114.645.114"/><path d="M36.528 39.181a1.884 1.884 0 0 0 1.692 1.085c.491 0 .965-.192 1.32-.542l9.328-9.338c.425-.433.62-1.047.514-1.652a1.851 1.851 0 0 0-1.051-1.352L31.012 19.4a1.853 1.853 0 0 0-2.094.381 1.862 1.862 0 0 0-.375 2.093l7.985 17.307z"/></g><g><path d="M89.497 82.389h-.009c.001-.057.009-.113.009-.17 0-7.801-6.324-14.125-14.125-14.125-1.004 0-1.982.108-2.927.308-2.798-6.811-9.49-11.611-17.309-11.611-5.872 0-11.106 2.709-14.537 6.94a16.195 16.195 0 0 0-7.35-1.767c-8.451 0-15.395 6.439-16.201 14.678-9.2.484-16.574 8.017-16.695 17.363-.126 9.739 7.667 17.737 17.407 17.863.757.01 1.498-.044 2.231-.127 3.761 7.935 11.842 13.424 21.207 13.424a23.365 23.365 0 0 0 14.881-5.324 18.52 18.52 0 0 0 11.063 3.665c8.509 0 15.671-5.711 17.9-13.504a14.13 14.13 0 0 0 4.456.726c7.825 0 14.169-6.343 14.169-14.169-.001-7.826-6.345-14.17-14.17-14.17z" fill="#e3ebee"/><path d="M97.823 85.093c3.209 3.24.942 10.676-1.269 13.1-4.342 4.76-12.319 3.649-15.518 2.961-.865-.186-1.005-.123-1.286.049-.253.155-.37.399-.641.983-1.033 2.221-3.691 6.526-9.308 8.26-5.853 1.808-11.372-.944-13.96-2.59-.979-.623-1.022-.637-1.464-.633-.449.004-.894.335-1.423.751-2.332 1.837-7.671 5.077-15.894 4.607-8.064-.462-12.678-5.434-14.255-7.987-.303-.49-.631-.901-1.001-.94-.43-.044-.911.401-1.275.756-3.434 3.342-14.223 4.344-17.806-1.346 3.639 5.839 9.266 8.729 15.04 8.804.757.01 1.498-.044 2.231-.127 3.761 7.935 11.842 13.424 21.207 13.424a23.365 23.365 0 0 0 14.881-5.324 18.52 18.52 0 0 0 11.063 3.665c8.509 0 15.671-5.711 17.9-13.504a14.13 14.13 0 0 0 4.456.726c7.825 0 14.169-6.343 14.169-14.169-.004-4.17-2.099-8.871-5.847-11.466z" fill="#b9cdd2"/></g></g></svg>