<svg id="Layer_1" xmlns="http://www.w3.org/2000/svg" viewBox="0 0 128 128"><path id="XMLID_194_" d="M104.028 98.696a14.545 14.545 0 0 0 10.075-4.256c.823-.825 1.863-1.857 2.568-3.497 2.747-6.387-2.963-14.027-4.331-15.858-2.863-3.83-6.061-6.081-7.309-6.894-.184-.12-.326-.209-.393-.251-5.481-3.437-20.639-11.996-26.653-15.856C67.088 45.089 59.532 36.39 55.589 31.85c-6.446-7.421-9.044-12.243-15.306-13.513-4.79-.971-10.819.319-14.328 4.317-5.91 6.735-2.738 18.478-.923 20.469.465.51 11.651 12.681 32.419 28.319 20.628 15.534 38.859 25.18 39.626 25.584a14.446 14.446 0 0 0 6.951 1.67z" fill="#fbc21a"/><path id="XMLID_195_" d="M110.73 107.623c7.44 0 13.775-5.691 14.436-13.242.698-7.982-5.205-15.017-13.188-15.718-.192-.018-26.165-2.734-47.151-21.686-21.892-19.773-29.113-36.984-29.184-37.156-2.931-7.458-11.328-11.083-18.788-8.148-7.456 2.928-11.107 11.398-8.178 18.856.37.939 9.346 23.273 36.705 47.983 28.426 25.669 62.623 28.93 64.066 29.057.43.036.859.054 1.282.054z" fill="#ed6c30"/><path id="XMLID_193_" d="M76.089 115.972c-19.76-.447-35.068-11.703-40.672-15.932-2.37-1.789-11.823-9.129-20.379-21.761C5.735 64.547 4.141 54.374 3.812 52.028c-.732-5.219-2.089-14.896 3.454-19.17 3.126-2.41 7.042-2.019 7.665-1.947 6.388.736 10.293 7.582 12.196 10.237.059.082.318.567.794 1.388l.005.009s.366.633.742 1.26c6.945 11.573 19.011 22.04 19.011 22.04 4.551 3.948 9.958 8.637 18.307 12.78 4.925 2.444 6.709 2.631 19.861 8.463 7.499 3.325 12.206 5.609 13.817 10.392.801 2.378.586 4.631.259 6.203-.8 1.872-2.228 4.576-4.793 6.922-1.541 1.408-6.64 5.647-19.041 5.367z" fill="#fbc21a"/><path id="XMLID_199_" d="M109.514 95.195a2.588 2.588 0 0 0 2.278-3.817 35.845 35.845 0 0 0-4.655-6.701c-1.334-1.516-4.9-5.282-9.223-7.503-5.521-2.835-10.004-1.994-13.603-1.318-3.186.597-4.938.85-6.871-.435-2.117-1.407-2.635-3.022-3.416-5.465-.88-2.748-1.975-6.169-5.718-9.784-4.629-4.475-9.506-5.199-13.425-5.78-3.532-.526-6.323-.941-8.654-3.694-2.202-2.599-2.176-5.08-2.141-8.223.036-3.554.083-7.976-3.726-12.498-2.718-3.224-6.175-5.046-8.954-6.511-3.267-1.72-5.127-2.785-5.4-4.663-.117-.797.032-1.678.447-2.615a2.593 2.593 0 0 0-1.328-3.416 2.594 2.594 0 0 0-3.416 1.328c-.81 1.844-1.091 3.677-.832 5.452.668 4.576 4.453 6.57 8.112 8.498 2.627 1.384 5.343 2.815 7.407 5.266 2.57 3.05 2.542 5.855 2.508 9.103-.038 3.542-.081 7.555 3.368 11.625 3.594 4.244 7.978 4.896 11.846 5.471 3.679.546 7.154 1.063 10.589 4.382 2.805 2.71 3.57 5.102 4.382 7.636.868 2.712 1.852 5.786 5.481 8.201 3.781 2.514 7.452 1.819 10.698 1.212 3.254-.613 6.333-1.192 10.277.836 3.633 1.864 6.812 5.303 7.701 6.313a30.736 30.736 0 0 1 3.983 5.734 2.59 2.59 0 0 0 2.285 1.366z" fill="#ffe266"/></svg>