<svg id="图层_1" xmlns="http://www.w3.org/2000/svg" viewBox="0 0 128 128"><path d="M57.312 64.75c.359-.252.951-.643 1.468-1.39.296-.429.595-1.012.667-1.417.2-1.118-.693-2.959-3.697-5.277 0 0-5.149-3.713-6.594-5.948-.491-.76-.996-1.411-.615-3.01.382-1.599.898-3.991.583-6.583-.128-1.059-.098-2.266-4.958-12.125-1.086-2.203-3.229-6.25-3.229-6.25s-8.521 1.958-13.146.333S14 18.417 3 21.167v97.167c1.491-2.602 4.412-6.428 8-10.583 4.974-5.761 7.987-9.252 12.875-10.625 2.854-.802 6.653-1.826 14.5-.792 6.012.793 9.718 1.773 12.375-.5.337-.288 1.729-1.486 2.047-3.583.162-1.069.07-1.238-.156-2.016-.213-.733-1.096-1.982-.828-3.484.118-.66.335-1.318.812-1.844.346-.381 1.23-.493 1.406-.5.674-.027 1.627.49 2.32.475a1.17 1.17 0 0 0 .565-.173c.942-.543 1.036-2.083 1.042-2.208a3.225 3.225 0 0 0-.417-1.75c-.743-1.272-1.492-1.612-2.576-2.021-.068-.038-.729-.533-.496-1.072.258-.599 1.442-1.253 2.031-1.388.396-.176.842-.351 1.292-.685.891-.659 1.492-1.716 1.625-2.75.021-.164.226-1.939-.792-2.646a1.219 1.219 0 0 0-.164-.098c-.988-.49-2.46.584-2.846.88a3.592 3.592 0 0 1-1.208-1.375c-.106-.215-.579-.98-.043-2.192a2.46 2.46 0 0 1 .229-.409c.344-.509.954-1.007 2.719-2.245z" fill="#3bc4ee"/><path d="M30.877 51.154s5.621 2.584 8.958 2.042c3.656-.594 4.066-2.391 4.066-2.391" fill="none" stroke="#196ca2" stroke-width="2" stroke-linecap="round" stroke-miterlimit="10"/><path d="M43.868 42.273c-.57-.336-2.77-1.007-6.399.028-3.295.94-6.06 3.209-7.971 4.627" fill="none" stroke="#196ca2" stroke-width="2" stroke-linecap="round" stroke-miterlimit="10"/><path d="M39.25 27.417c-3.378 3.453-9 5.417-9 5.417-7.031 2.456-8.383 1.901-11 3.958-3.126 2.457-3.495 5.232-3.75 6.458-.582 2.8.043 4.641.458 7.125.205 1.228 2.101 13.294-2.625 20.958 0 0-2.823 4.578-3.583 8.667-.19 1.019-.215 1.695-.215 1.695-.041.881.056 1.528.054 2.604-.002.951-.06 1.622-.172 2.618-.307 2.731-.633 5.619-2.542 7.958-.601.737-1.774 1.926-3.875 2.792v-.75s.069-66.013 0-95.125c1.71.146 15.683 2.511 25.167 7.125 2.632 1.281 6.896 3.146 10.021 6.708 3.231 3.683 3.659 5.174 3.312 7.167-.222 1.28-.589 2.326-1.155 3.244-.037.06-.465.737-1.095 1.381z" fill="#196ca2"/><path d="M66.565 71.697c7.428 1.338 13.525 1.123 17.593.704 7.286-.751 13.632-1.405 17.463-6.273.349-.443 4.421-5.765 2.223-10.159-.971-1.941-3.229-3.828-5.969-3.781-1.906.033-4.279 1.005-5.272 3.167-.069.151-1.334 3.012.391 4.926 1.297 1.439 3.263 1.269 3.444 1.25.479-.049 1.317-.13 1.938-.812.494-.543.826-1.44.531-2.312-.224-.662-.713-1.027-.907-1.157" fill="none" stroke="#3bc4ee" stroke-width="3" stroke-linecap="round" stroke-miterlimit="10"/><path d="M66.919 78.471c4.497-.794 13.118-1.553 19.267-1.219 5.2.282 9.031.608 14.023 2.195 5.637 1.792 8.086 3.795 13.411 3.775 2.024-.008 5.447.08 8.051-2.311 2.911-2.674 3.876-7.554 2.12-10.91a7.048 7.048 0 0 0-2.375-2.625c-.157-.102-3.542-2.216-6.917-.458-1.867.973-3.675 3.102-3.5 5.5.123 1.691 1.199 2.783 1.375 2.958.114.114 1.813 1.753 4 1.312.368-.074 1.587-.319 2.25-1.406.106-.173.715-1.171.281-2.219a2.247 2.247 0 0 0-.844-1" fill="none" stroke="#3bc4ee" stroke-width="3" stroke-linecap="round" stroke-miterlimit="10"/><path d="M65.855 84.149c6.904-.92 12.606-.816 16.611-.527 6.481.468 10.053 1.698 11.865 2.373 4.478 1.667 8.664 3.226 10.063 7.119.826 2.298.929 6.103-1.67 8.349-1.954 1.688-4.887 2.023-7.207.967-.412-.188-3.23-1.47-3.603-4.307-.273-2.075.789-4.779 2.9-5.273 1.458-.341 3.517.35 4.043 1.934.368 1.107-.183 2.164-.352 2.461" fill="none" stroke="#3bc4ee" stroke-width="3" stroke-linecap="round" stroke-miterlimit="10"/><path d="M107.858 65.048c1.253-2.415 2.72-3.641 3.812-4.312.416-.256 2.023-.954 5.236-2.351.711-.309 2.312-.993 3.25-2.625.195-.339 1.527-2.659.271-4.833-.834-1.444-2.607-2.472-4.39-2.125-1.325.258-2.88 1.317-3.027 2.875-.093.987.363 2.341 1.457 2.732.593.212 1.506.189 2.093-.449.603-.654.469-1.527.449-1.645" fill="none" stroke="#3bc4ee" stroke-width="2" stroke-linecap="round" stroke-miterlimit="10"/><path d="M107.268 87.781c1.692.209 4.31.738 7.14 2.243 1.442.767 3.045 1.619 4.486 3.364.056.068.142.172.249.309.368.47 3.338 4.302 2.143 8.214-.177.58-1.028 3.364-3.573 4.064-2.112.581-4.72-.456-5.662-2.533-.621-1.37-.624-3.426.637-4.596.102-.095 1.087-.98 2.467-.822.978.112 2.2.755 2.479 1.919.187.778-.04 1.829-.755 2.242-.37.214-1.043.355-1.438 0a.922.922 0 0 1-.271-.5" fill="none" stroke="#3bc4ee" stroke-width="2" stroke-linecap="round" stroke-miterlimit="10"/><path d="M68.396 89.478c3.995-.106 7.593 1.707 9.271 4.785 1.096 2.012 1.074 4.017.972 5.084" fill="none" stroke="#3bc4ee" stroke-width="3" stroke-linecap="round" stroke-miterlimit="10"/><path d="M72.77 67.181c.532-.009 4.932-.158 7.701-3.888 2.234-3.009 1.887-6.306 1.794-7.028" fill="none" stroke="#3bc4ee" stroke-width="3" stroke-linecap="round" stroke-miterlimit="10"/></svg>