<svg id="Layer_1" xmlns="http://www.w3.org/2000/svg" xmlns:xlink="http://www.w3.org/1999/xlink" viewBox="0 0 128 128"><path id="XMLID_81_" d="M105.055 18.27c5.46 4.4 7.86 10.66 6.25 16.32-.95 3.37-2.64 6.14-4.7 8.47.68 2.8.5 7.38-2.36 12.26-2.15 3.66-4.53 5.34-7.2 6.77.26 1.92.15 4.13-.34 6.08-.14.52-.38 1.19-.82 1.95 2.15 1.77 5.14 4.92 4.57 9.03-.2 1.45-.86 2.71-1.75 3.78 1 2.06 1.61 4.94.5 8.16-.06.16-.14.36-.17.45-.15.38-1.29 3.17-3.72 5.58-.21 1.32-2.565 9.13-6.889 14.224C78.28 123.301 67.215 124.3 65.875 124.5c-8.75 1.34-7.5-6.75.125-15.75 4.375-5 4.765-13.061 3.875-16.895-4.39-.42-10.16-1.934-12.56-3.404-3.38-2.08-5.59-3.52-7.35-5.83-.08-.11-.14-.22-.21-.33-3.84-.67-6.88-1.7-7.89-2.06-2.84-1.04-6.06-3.83-7.17-6.23-1.62-3.53-1.81-4.29-2.3-6.63-5.7-2.74-9.36-6.51-10.95-9.51-1.92-3.61-2.56-8.34-2.77-10.64-1.31-1.15-2.53-2.42-3.52-3.82-3.61-5.14-3.2-9.55-2.64-11.73 1.21-4.66 4.41-8.41 9.49-11.12 6.76-3.61 14.38-5.16 18.95-4.97 5.24-4.11 13-5.26 18.52-6.07l.26-.03c8.39-1.24 19.39-.59 25.93.69 8.75 1.709 14.36 4.059 19.39 8.099z" fill="#e3ebee"/><g fill="#afc5cc"><path id="XMLID_80_" d="M48.008 2.001c2.727.263 6.293 1.401 5.781 3.213-.463 1.638-4.768 1.362-6.142 1.289-7.339-.389-13.491 2.149-17.928 5.149-2.246 1.625-4.688 2.875-5.867 1.729-1.196-1.261 1.458-4.271 3.188-5.729 5.249-4.375 12.233-6.492 20.968-5.651z"/><path id="XMLID_79_" d="M10.016 69.486c-.646-1.215-2.338-5.52-.81-6.465 1.492-.922 3.575 2.687 4.228 3.898 3.292 6.108 9.38 9.791 14.418 11.61 2.636.857 5.803 2.09 5.494 3.664-.441 1.895-4.849 1.161-7.046.623-6.627-1.664-12.164-5.581-16.284-13.33z"/><path id="XMLID_78_" d="M112.197 70.777c-.984.962-4.557 3.877-5.682 2.612-1.125-1.266 1.289-3.975 2.236-4.973 4.276-4.506 5.649-9.334 6.051-14.675.119-2.769 1-5.422 2.292-5.422 1.833-.006 2.242 3.063 2.312 5.324.171 6.831-1.93 11.97-7.209 17.134z"/><path d="M106.605 43.06c-6.592 6.952-15.187 10.953-22.96 12.755-10.786 2.501-19.108 3.165-24.928 3.17-1.083.001-3.688 0-3.625-1.021.125-1.031 3.022-1.28 3.938-1.438 9.1-1.563 25.679-2.98 39.771-14.417 11.5-9.333 10.857-18.58 7.354-22.89 2.344 2.088 5.643 6.307 5.639 12.089-.002 4.277-2.076 8.156-5.189 11.752z"/><path d="M32.395 67.37c2.637 1.339 12.43 4.746 21.93 5.464 7.034.531 14.69-.417 19.225-1.267 3.616-.678 5.842-1.081 5.676-1.998-.333-1.167-4.092-.823-7.012-.811-10.522.042-19.737-.63-29.924-3.616-5.625-1.649-19.322-6.739-23.273-15.207 1.357 11.373 9.167 15.357 13.378 17.435z"/><path d="M95.885 70.12c-.695.818-5.264 4.916-13.138 7.449-6.279 2.02-14.279 2.944-18.237 2.895-.621-.008-3.521.029-3.417-.853.167-.875 1.906-.902 3.5-1.083 5.127-.582 10-1.563 17.125-4.349 6.883-2.691 15.094-8.105 15.327-12.088.407 2.811-.053 6.38-1.16 8.029z"/><path d="M67.309 91.733c13.326.961 22.111-4.061 22.724-4.499.667-.476 2.602-1.644 1.977-2.207-.458-.396-2.205.336-3.021.646-1.012.384-10.771 3.042-18.646 2.707-7.629-.325-15.458-2.602-20.588-6.089 2.129 3.32 8.636 7.009 11.458 8.046 1.867.684 3.786 1.151 6.096 1.396"/><path d="M99.77 88.379c-1.302 3.148-5.797 6.066-11.577 9.089-3.141 1.642-8.725 3.552-12.972 3.587-.667 0-2.17-.008-2.086.784.055.52 1.356.787 1.876.838 4.061.392 9.499-.233 13.79-1.9 3.258-1.265 6.514-3.657 6.514-3.657s4.059-3.781 4.455-8.741z"/><path d="M73.106 20.779c-5.138-.336-17.733.501-17.749 5.688-.014 4.143 11.278 4.143 11.35 3.09.111-1.616-3.748-1.047-3.926-2.718-.175-1.368 4.981-2.137 9.271-1.229 4.226.895 8.659 4.703 7.083 7.5-1.805 3.204-10.093 8.159-26.553 5.987-11.597-1.53-23.864-11.852-11.627-23.517 0 0-1.055-.098-2.939.283-5.156 1.041-15.899 6.72-12.491 15.039s17.801 14.052 33.251 14.164c12.191.089 33.301-4.664 33.301-13.545.001-5.994-6.394-9.92-18.971-10.742z"/></g><g><defs><path id="XMLID_1_" d="M105.055 18.27c5.46 4.4 7.86 10.66 6.25 16.32-.95 3.37-2.64 6.14-4.7 8.47.68 2.8.5 7.38-2.36 12.26-2.15 3.66-4.53 5.34-7.2 6.77.26 1.92.15 4.13-.34 6.08-.14.52-.38 1.19-.82 1.95 2.15 1.77 5.14 4.92 4.57 9.03-.2 1.45-.86 2.71-1.75 3.78 1 2.06 1.61 4.94.5 8.16-.06.16-.14.36-.17.45-.15.38-1.29 3.17-3.72 5.58-.21 1.32-2.565 9.13-6.889 14.224C78.28 123.301 67.215 124.3 65.875 124.5c-8.75 1.34-7.5-6.75.125-15.75 4.375-5 4.765-13.061 3.875-16.895-4.39-.42-10.16-1.934-12.56-3.404-3.38-2.08-5.59-3.52-7.35-5.83-.08-.11-.14-.22-.21-.33-3.84-.67-6.88-1.7-7.89-2.06-2.84-1.04-6.06-3.83-7.17-6.23-1.62-3.53-1.81-4.29-2.3-6.63-5.7-2.74-9.36-6.51-10.95-9.51-1.92-3.61-2.56-8.34-2.77-10.64-1.31-1.15-2.53-2.42-3.52-3.82-3.61-5.14-3.2-9.55-2.64-11.73 1.21-4.66 4.41-8.41 9.49-11.12 6.76-3.61 14.38-5.16 18.95-4.97 5.24-4.11 13-5.26 18.52-6.07l.26-.03c8.39-1.24 19.39-.59 25.93.69 8.75 1.709 14.36 4.059 19.39 8.099z"/></defs><clipPath id="XMLID_4_"><use xlink:href="#XMLID_1_" overflow="visible"/></clipPath><path d="M92.875 102c-5.741 5.228-8.5 10.315-14.786 14.299-4.651 2.947-14.214 7.993-18.288 4.942-1.109-.83-.968 6.718 7.949 6.009 2.824-.224 5.84-3.662 8.383-4.909 4.075-1.999 8.205-4.034 11.61-7.036s7.244-5.52 7.466-10.054c1.099-3.636-1.245-4.184-2.334-3.251z" clip-path="url(#XMLID_4_)" fill="#afc5cc"/></g></svg>