<svg id="Layer_1" xmlns="http://www.w3.org/2000/svg" viewBox="0 0 128 128"><path id="XMLID_44_" d="M68.903 94.863c-1.538 6.816-.333 16.978 3.328 21.27 5.671 6.648 16.871 3.197 20.39 1.24 10.079-5.605 22.575-11.419 28.724-19.764 4.002-5.431 7.357-16.448 1.496-22.383-.507-.542-5.21-2.438-5.734-2.893-7.812-6.816-14.298-5.066-21.446-2.042-6.519 2.744-11.045 7.27-13.667 11.937-3.198 5.662-7.305 6.921-10.783 6.484l-.017.175c-.734 1.486-1.206 2.377-1.206 2.377a22.062 22.062 0 0 0-1.085 3.599z" fill="#855c52"/><path id="XMLID_43_" d="M105.814 77.27c.469 2.801-3.132 4.438-4.631 5.879-.681.655-.141 2.065.347 2.64 1.562 1.84 3.179-2.145 6.145-1.69 2.966.455 2.749 6.13 1.939 7.678-.4.764-1.159 2.275-2.575 2.32-1.451.047-2.103-.788-3.073-.616-1.917.339-3.552 2.121-2.127 3.773 2.371 2.748 12.364-2.041 14.028.399.83 1.216-.778 3.675-1.72 5.117-.465.711-2.044 3.06-4.677 3.821-.38.11-.686.198-1.12.198-1.92-.002-2.454-1.734-3.887-1.647-1.098.066-2.077 1.162-2.372 2.108-.168.541-.163 1.134-.132 1.318.325 1.918.811 2.43.859 3.223.082 1.354-1.155 2.475-2.14 3.274-2.786 2.26-4.985 2.512-6.564 2.005-.131-.042-2.45-.951-2.94-2.838-.231-.887.024-1.68-.612-2.83-.202-.365-.441-.784-.922-.988-.727-.309-1.708-.002-2.24.593-.74.828-.144 1.688-.791 2.701-.643 1.007-1.927 1.247-2.306 1.318-2.381.444-5.209-1.344-5.472-3.228-.232-1.661 1.612-2.802.992-3.953-.297-.551-1.016-.839-1.581-.856-1.511-.046-2 1.836-3.805 2.001-.612.056-1.089-.063-1.644-.329-3.616-1.734-4.389-4.597-3.42-8.36.968-3.763 6.893-1.59 6.8-4.195-.093-2.605-1.627-2.654-2.924-1.372-.522.516-2.268 2.054-3.506 1.822-1.238-.233-3.104-1.771-2.828-4.328.159-1.474 3.635-2.117 5.514-3.642 1.381-1.12-2.019-2.672-2.422-3.711-.953-2.452-2.746-2.569 1-6.629 5.994-6.496 13.186-1.649 14.209-1.916 1.112-.289 1.263-2.086 1.949-2.964.687-.878 2.103-1.489 3.685-.706 3.164 1.566.487 4.447-.647 5.374-1.226 1.003-.323.761 2.14.468 2.462-.292-.655-8.605 5.093-9.874 3.729-.826 7.746 4.872 8.378 8.642z" fill="#bdcf46"/><path id="XMLID_42_" d="M71.529 115.448s-6.019-5.114-4.636-15.672c.693-5.289 3.277-8.01 3.277-8.01l9.976-1.748 4.456 2.89c-6.602 6.501-7.858 11.152-7.683 14.276.07 1.253.463 3.896-1.12 5.929-1.163 1.493-2.94 2.076-4.27 2.335z" fill="#bdcf46"/><path id="XMLID_41_" d="M93.626 75.299c2.015-.303 3.146 2.301 4.162 3.393.462.497 1.48.126 1.898-.217 1.339-1.098-1.501-2.307-1.139-4.43.362-2.123 4.431-1.898 5.532-1.299.544.296 1.618.859 1.634 1.875.016 1.042-.591 1.499-.479 2.198.22 1.379 1.479 2.574 2.681 1.572 1.202-1.002-.61-4.043.403-5.079 1.341-1.372 5.114-.608 6.201 1.539 1.087 2.147-1.275 1.884.444 4.181.27.361.513.512.743.526.937.057 1.412-1.411 2.651-1.694 1.118-.256 2.211.696 2.598 1.033 1.621 1.411 2.468 4.23 1.274 5.929-.039.055-.902 1.247-2.262 1.421-1.042.134-1.786-.314-2.945.04-.24.073-.483.22-.755.49-1.111 1.099-.376 2.502 1.01 2.822.895.207 1.235.036 2.154.484.352.171.75.365.953.716.687 1.188-.906 4.085-2.591 4.216-1.613.125-2.5-2.344-3.777-1.976-.703.202-1.278 1.194-1.142 1.976.256 1.471 2.921 1.578 3.129 3.176.051.392-.026.716-.256 1.176-1.288 2.573-3.351 3.093-6.039 2.353-2.688-.74-1.058-4.965-2.927-4.93s-1.924 1.135-1.02 2.082c.364.381 1.446 1.652 1.265 2.537-.182.885-1.308 2.206-3.139 1.977-1.055-.132-1.475-2.634-2.546-4-.787-1.004-2.233-1.068-2.983-.791-1.771.654-1.585 4.423-4.453 1.686-4.588-4.379-1.024-9.481-1.203-10.218-.194-.802-1.481-.931-2.103-1.434-.621-.503-1.043-1.527-.462-2.652 1.162-2.251 3.196-.296 3.848.529.704.892.542.241.362-1.529-.18-1.77-6.182.366-7.023-3.774-.547-2.683 3.59-5.497 6.302-5.904z" fill="#bdcf46"/><path id="XMLID_40_" d="M84.897 70.374c2.028.201 2.486 3.002 3.202 4.31.326.595 1.403.485 1.893.255 1.567-.736-.889-2.604-.017-4.574.872-1.969 4.761-.753 5.682.098.454.42 1.358 1.23 1.124 2.219-.24 1.014-.94 1.309-1.003 2.013-.125 1.391.802 2.858 2.214 2.181s.4-4.069 1.636-4.825c1.637-1.001 5.107.665 5.634 3.013s-1.698 1.513-.595 4.163c1.103 2.649 3.212-3.241 5.442 1.796s-1.403 6.484-2.361 6.426c-2.003-.121-2.37-1.187-3.717-.394s-.978 2.333.287 2.984c1.265.651 2.061.533 2.295 1.75.234 1.217-.701 4.102-2.868 3.752-2.167-.35-2.845-3.987-4.078-2.294s2.743 3.601.772 5.887c-1.879 2.179-4.007 2.177-6.432.8s.192-5.073-1.629-5.497c-1.821-.425-2.143.629-1.499 1.768.259.459.997 1.956.604 2.77-.393.814-1.809 1.817-3.528 1.146-.991-.387-.784-2.915-1.487-4.502-.517-1.167-1.903-1.583-2.698-1.498-1.877.2-2.622 3.899-4.73.542-3.374-5.371 1.332-9.442 1.34-10.201.008-.825-1.208-1.266-1.687-1.906-.479-.64-.637-1.736.203-2.685 1.678-1.897 3.171.497 3.6 1.457.464 1.038.466.366.726-1.394.26-1.76-6.083-1.162-5.883-5.381.129-2.736 4.829-4.449 7.558-4.179z" fill="#86a32c"/><path id="XMLID_39_" d="M95.383 63.384c2.028.201 2.486 3.002 3.202 4.31.326.595 1.403.485 1.893.255 1.567-.736-.889-2.604-.017-4.574.872-1.969 4.761-.753 5.682.098.454.42 1.358 1.23 1.124 2.219-.24 1.014-.94 1.309-1.003 2.013-.125 1.391.802 2.858 2.214 2.181s5.572-.299 6.675 2.35c1.103 2.649 3.212-3.241 5.442 1.796s-1.403 6.484-2.361 6.426c-2.003-.121-2.37-1.187-3.717-.394s-.978 2.333.287 2.984c1.265.651 2.061.533 2.295 1.75.234 1.217-.701 4.102-2.868 3.752-2.167-.35-2.845-3.987-4.078-2.294s2.743 3.601.772 5.887c-1.879 2.179-4.007 2.177-6.432.8s.192-5.073-1.629-5.497c-1.821-.425-2.143.629-1.499 1.768.259.459.997 1.956.604 2.77-.393.814-1.809 1.817-3.528 1.146-.991-.387-.784-2.915-1.487-4.502-.517-1.167-1.903-1.583-2.698-1.498-1.877.2-2.622 3.899-4.73.542-3.374-5.371 1.332-9.442 1.34-10.201.008-.825-1.208-1.266-1.687-1.906s-.637-1.736.203-2.685c1.678-1.897 3.171.497 3.6 1.457.464 1.038.466.366.726-1.394.26-1.76-6.083-1.162-5.883-5.381.129-2.736 4.829-4.449 7.558-4.178z" fill="#bdcf46"/><path id="XMLID_38_" d="M88.392 65.131c2.028.201 2.486 3.002 3.202 4.31.326.595 1.403.485 1.893.255 1.567-.736-.889-2.604-.017-4.574.872-1.969 4.761-.753 5.682.098.454.42 1.358 1.23 1.124 2.219-.24 1.014-.94 1.309-1.003 2.013-.125 1.391.802 2.858 2.214 2.181s.4-4.069 1.636-4.825c1.637-1.001 5.107.665 5.634 3.013s-1.698 1.513-.595 4.163c1.103 2.649 3.212-3.241 5.442 1.796s-1.403 6.484-2.361 6.426c-2.003-.121-2.37-1.187-3.717-.394s-.978 2.333.287 2.984c1.265.651 2.061.533 2.295 1.75.234 1.217-.701 4.102-2.868 3.752-2.167-.35-2.845-3.987-4.078-2.294s2.743 3.601.772 5.887c-1.879 2.179-4.007 2.177-6.432.8s.192-5.073-1.629-5.497c-1.821-.425-2.143.629-1.499 1.768.259.459.997 1.956.604 2.77-.393.814-1.809 1.817-3.528 1.146-.991-.387-.784-2.915-1.487-4.502-.517-1.167-1.903-1.583-2.698-1.498-1.877.2-2.622 3.899-4.73.542-3.374-5.371 1.332-9.442 1.34-10.201.008-.825-1.208-1.266-1.687-1.906-.479-.64-.637-1.736.203-2.685 1.678-1.897 3.171.497 3.6 1.457.464 1.038.466.366.726-1.394.26-1.76-6.083-1.162-5.883-5.381.129-2.736 4.829-4.449 7.558-4.179z" fill="#bdcf46"/><path id="XMLID_37_" d="M90.14 58.141c2.028.201 2.486 3.002 3.202 4.31.326.595 1.403.485 1.893.255 1.567-.736-.889-2.604-.017-4.574.872-1.969 4.761-.753 5.682.098.454.42 1.358 1.23 1.124 2.219-.24 1.014-.94 1.309-1.003 2.013-.125 1.391.802 2.858 2.214 2.181s-.986-1.098.25-1.854c1.637-1.001 5.371-.164 5.898 2.185s-.576-.63.527 2.02c1.103 2.649 2.178-2.158 4.408 2.879s-.369 5.401-1.327 5.343c-2.003-.121-2.37-1.187-3.717-.394s-.978 2.333.287 2.984c1.265.651 2.061.533 2.295 1.75.234 1.217-.701 4.102-2.868 3.752-2.167-.35-2.845-3.987-4.078-2.294s2.743 3.601.772 5.887c-1.879 2.179-4.007 2.177-6.432.8s.192-5.073-1.629-5.497c-1.821-.425-2.143.629-1.499 1.768.259.459.997 1.956.604 2.77-.393.814-1.809 1.817-3.528 1.146-.991-.387-.784-2.915-1.487-4.502-.517-1.167-1.903-1.583-2.698-1.498-1.877.2-2.622 3.899-4.73.542-3.374-5.371 1.332-9.442 1.34-10.201.008-.825-1.208-1.266-1.687-1.906s-.637-1.736.203-2.685c1.678-1.897 3.171.497 3.6 1.457.464 1.038.466.366.726-1.394.26-1.76-6.083-1.162-5.883-5.381.129-2.737 4.829-4.45 7.558-4.179z" fill="#bdcf46"/><path id="XMLID_36_" d="M98.346 89.174s5.54-1.151 9.253 1.034c2.269 1.335 4.36 4.917 3.277 8.247-.654 2.009-2.387 3.589-4.315 4.205-.608.195-2.114.676-3.659.109-1.018-.374-1.181-.882-2.185-1.038-.978-.151-2.154.126-2.895.874-.662.669-.528 1.26-.928 2.294-.534 1.379-1.755 2.864-3.331 3.495-2.078.832-4.876.222-6.281-1.311-.607-.663-.744-1.268-1.584-1.638-.415-.183-1.59-.261-2.157.218-.628.53-.649 1.655-1.065 2.157-.792.956-1.668 1.236-2.84 1.058-2.063-.314-4.364-2.201-4.97-3.816-.753-2.007-2.348-6.608-.109-8.793 2.239-2.185.989-3.871 5.859-4.854 4.87-.983 16.429-4.477 18.092-4.945 1.297-.366 4.641-.512 6.074 1.49.542.757.665 1.619.668 2.247" fill="#fff3ab"/><path id="XMLID_35_" d="M109.347 91.956s-.461-1.858.971-2.895 3.325 1.657 5.255.165c3.384-2.618 3.532-4.296.765-8.338-2.767-4.041-14.2-2.403-14.2-2.403L91.517 91.098l.208 5.809 2.33 2.913 15.292-7.864z" fill="#fff3ab"/><path id="XMLID_34_" d="M90.906 98.253c2.774 0 6.016-.192 9.765-.57a2.828 2.828 0 0 0 2.534-3.098c-.155-1.557-1.561-2.704-3.098-2.534-15.213 1.522-16.745-1.972-16.819-2.068.033-.098-.153.479 0 0 .487-1.533 1.222-3.695-.074-6.069C81.725 81.188 78.47 80 73.265 80h-.007c-1.561 0-2.827 1.107-2.831 2.668-.004 1.565 1.261 2.757 2.824 2.761 3.471.007 4.785.698 4.995 1.084.136.251-.146 1.123-.354 1.776-.422 1.329-1.001 3.142-.286 5.061 1.24 3.335 5.354 4.903 13.3 4.903z" fill="#fbc21a"/><path id="XMLID_33_" d="M91.517 73.118c-2.563-.17-5.57-.192-9.057-.072a2.619 2.619 0 0 0-2.532 2.707c.048 1.448 1.277 2.594 2.707 2.532 14.15-.474 15.815 1.67 15.878 1.763-.037.088-.294.745-.465 1.178-.544 1.387-1.377 3.807-.325 6.08 1.209 2.61 4.122 2.694 8.931 4.694h.007c1.442 0 2.702-1.317 2.801-2.759.099-1.446-.985-2.858-2.429-2.958-3.206-.22-4.373-1.056-4.543-1.424-.111-.24.206-1.087.439-1.678.471-1.202 1.119-2.871.576-4.688-.943-3.158-4.647-4.888-11.988-5.375z" fill="#fbc21a"/><ellipse id="XMLID_32_" cx="88.346" cy="100.175" rx="4.846" ry="5.104" fill="#ed6c30"/><ellipse id="XMLID_30_" cx="106.601" cy="81.803" rx="4.831" ry="5.637" fill="#ed6c30"/><path id="XMLID_29_" d="M119.885 79.503a1.56 1.56 0 0 0-1.729-2.59c-.457.262-1.675.831-3.114.455a4.056 4.056 0 0 1-1.876-1.109l-.093-.088c-.175-.153-1.776-1.508-4.101-2.017-4.47-.982-8.931 2.022-10.673 4.466l-.211.304c-.285.412-.804 1.164-1.561 2.196a62.173 62.173 0 0 1-1.336 1.766c-.636.782-1.784 1.522-3.324 2.136a1.56 1.56 0 1 0 1.155 2.899c2.066-.824 3.612-1.859 4.593-3.069.199-.245.822-1.058 1.43-1.887a96.063 96.063 0 0 0 1.611-2.268l.187-.269c1.223-1.718 4.585-3.857 7.46-3.227 1.416.31 2.483 1.13 2.682 1.291a7.19 7.19 0 0 0 3.269 1.895c2.554.667 4.666-.315 5.455-.769.063-.034.121-.073.176-.115z" fill="#fbc21a"/><path id="XMLID_9_" d="M100.719 85.781c-.184-1.114-.501-2.626-1.625-2.438-2.411.398-.989-.066-2.221 1.243-2.4.508-4.172 1.52-5.281 3.014-3.258.494-5.803 2.301-7.256 3.39-.406.305-.756.695-1.073 1.129a10.659 10.659 0 0 0-3.095 1.463c-.941.65-2.766 1.912-3.375 4.167-.155.574-.437 1.617 0 2.792.414 1.112 1.521 2.473 2.75 2.458 1.572-.019 1.644-2.268 4.375-3.667.503-.258 1.944-.995 3.746-.847 1.361.112 1.53.612 3.229.691.452.021 1.861.027 3.05-.585a4.2 4.2 0 0 0 .93-.657c1.131-1.038 1.346-2.201 1.505-3.051.152-.817.359-1.193.411-1.253.919-1.056 3.346.918 5.462-.049 1.264-.578 2.212-2.111 1.917-3.25-.209-.806-.991-1.225-2.125-1.833-1.355-.726-2.241-.601-2.499-.554l-.095.019c.041-.088.086-.175.143-.262.53-.81 1.68-1.37 3.422-1.659 1.111-.181-2.11.853-2.295-.261z" fill="#fbc21a"/><path id="XMLID_25_" d="M84.07 64.879c2.019.2 2.475 2.989 3.189 4.292.324.592 1.397.483 1.885.254 1.561-.733-.885-2.593-.017-4.554.868-1.961 4.741-.75 5.657.097.453.418 1.352 1.225 1.119 2.209-.239 1.01-.936 1.303-.999 2.004-.124 1.385.799 2.846 2.204 2.172 1.406-.674.399-4.052 1.629-4.804 1.63-.997 5.085.662 5.61 3 .525 2.338-1.691 1.507-.593 4.145s3.198-3.227 5.419 1.788c2.22 5.015-1.374 5.201-2.329 5.143-1.994-.121-2.382.073-3.723.863-1.341.79-.974 2.323.286 2.971 1.26.648 2.052.531 2.285 1.742.233 1.212-.698 4.084-2.855 3.736s-2.833-3.97-4.061-2.284 2.731 3.586.769 5.861c-1.871 2.17-3.99 2.167-6.404.797-2.414-1.371.607-4.293-1.207-4.716s-2.176.647-1.535 1.781c.258.457.62 1.17.228 1.98s-3.749 3.26-6.651 2.03c-2.901-1.23-.224-4.052-2.058-4.945-1.834-.893-2.632.293-3.682-1.378-3.36-5.347 1.327-9.402 1.334-10.157.008-.821-1.203-1.26-1.68-1.898-.477-.638-.634-1.729.202-2.673 1.671-1.889 3.157.495 3.585 1.451.462 1.033.464.365.723-1.388.259-1.753-6.056-1.157-5.857-5.358.13-2.725 4.809-4.43 7.527-4.161z" fill="#bdcf46"/><ellipse id="XMLID_23_" cx="89.186" cy="82.11" rx="7.557" ry="8.705" fill="#ed6c30"/><path id="XMLID_22_" d="M76 64.125l.025.087c.306 1.086 1.634 1.62 2.705 1.267 2.224-.735 4.035-.812 4.861-.182.618.473 1.246 2.01 2.234 4.572.275.717.495 1.299.662 1.785.536 1.542.93 2.655 2.285 3.49 1.306.807 2.489.697 3.35.619.515-.047.887-.082 1.32.055.924.29 1.772 1.246 2.523 2.844a2.042 2.042 0 0 0 2.718.981 2.033 2.033 0 0 0 .981-2.718c-1.255-2.675-2.935-4.36-4.995-5.007-1.215-.382-2.197-.291-2.916-.226-.623.057-.707.046-.828-.028-.146-.154-.366-.793-.562-1.354-.18-.521-.399-1.15-.696-1.919-1.289-3.344-1.999-5.187-3.536-6.362-1.999-1.525-5.002-1.648-8.682-.434-1.042.346-1.744 1.484-1.449 2.53z" fill="#fbc21a"/><path id="XMLID_21_" d="M4.307 40.491C4.375 43.054 4.236 47.83 7.312 51c3.509 3.616 54.56 54.739 65.052 65.359 0 0-2.603-3.801-2.099-9.176.395-4.216 4.699-14.845 19.491-24.941L5.469 30.739c-.563 1.761-1.227 7.248-1.162 9.752z" fill="#fcd0a7"/><path id="XMLID_20_" d="M5.469 30.739S30.625 60 49.63 75.649c6.031 4.966 17.642 8.476 22.613 9.311 5.622.944 11.148.335 14.053-.203 2.562-1.339 3.437-2.454 3.462-2.515 0 0-10.689-3.166-5.776-6.612-6.068 2.478-21.075-.142-22.193-1.261-2.464-2.447-47.6-42.619-47.6-42.619s-4.292-3.736-4.782-9.293a38.318 38.318 0 0 0-3.938 8.282z" fill="#b79178"/><path id="XMLID_19_" d="M26.573 8.875C15.242 14.013 9.559 20.848 8.875 23.812 8.084 27.238 13.562 32 13.562 32s8.418 9.906 18.104 19.75c8.706 8.848 13.16 14.686 22.354 20.912 6.104 4.133 10.764 5.948 13.063 6.755 7.308 2.562 13.367 2.856 17.198 3.013 7.363.301 12.887-.298 19.006-1.797 12.57-3.079 15.976-5.747 19.668-5.288L50 7a2.752 2.752 0 0 0-1.197-.638c-1.208-.297-3.969-.837-8.329-.913-5.546-.097-12.167 2.639-13.901 3.426z" fill="#fcd0a7"/><path id="XMLID_18_" d="M63.241 40.274l1.441 2.489c.472.815-.382 1.755-1.238 1.364l-3.328-1.519a.967.967 0 0 1-.563-.954l.09-1.169a.967.967 0 0 1 1.071-.887l1.797.2a.97.97 0 0 1 .73.476z" fill="#b79178"/><path id="XMLID_17_" d="M35.458 36.297l.855.285a.819.819 0 0 1 .352 1.322s-1.283 1.256-1.902.819c-.619-.437-.375-1.543-.375-1.543a.818.818 0 0 1 1.07-.883z" fill="#b79178"/><path id="XMLID_16_" d="M44.172 47.087l.855.285a.819.819 0 0 1 .352 1.322s-1.283 1.256-1.902.819c-.619-.437-.375-1.543-.375-1.543a.818.818 0 0 1 1.07-.883z" fill="#b79178"/><path id="XMLID_2_" d="M22.688 60.06l.855.285a.819.819 0 0 1 .352 1.322s-1.283 1.256-1.902.819c-.619-.437-.375-1.543-.375-1.543a.818.818 0 0 1 1.07-.883z" fill="#b79178"/><path id="XMLID_15_" d="M63.466 55.317l2.75 1.437a.814.814 0 0 1-.106 1.488l-2.914 1.026a.814.814 0 0 1-.854-.201l-1.273-1.314a.814.814 0 0 1 .076-1.201l1.436-1.149a.812.812 0 0 1 .885-.086z" fill="#b79178"/><path id="XMLID_14_" d="M23.903 27.172l-1.177-2.624c-.385-.859.56-1.707 1.372-1.229l3.154 1.854c.35.206.534.608.461 1.007l-.21 1.154a.967.967 0 0 1-1.157.772l-1.767-.384a.97.97 0 0 1-.676-.55z" fill="#b79178"/><path id="XMLID_13_" d="M18.105 57.224L16.928 54.6c-.385-.859 1.929-2.908 2.741-2.431l1.785 3.056c.35.206.534.608.461 1.007l-.21 1.154a.967.967 0 0 1-1.157.772l-1.767-.384a.97.97 0 0 1-.676-.55z" fill="#b79178"/><path id="XMLID_12_" d="M55.941 86.143l-.735-1.64c-.504-1.123.732-2.23 1.793-1.606l2.175 1.278c.457.269.698.794.603 1.315l-.118.648a1.264 1.264 0 0 1-1.511 1.009l-1.321-.287a1.258 1.258 0 0 1-.886-.717z" fill="#b79178"/><path id="XMLID_11_" d="M33.02 70.9l-1.177-2.624c-.385-.859.56-1.707 1.372-1.229l3.154 1.854c.35.206.534.608.461 1.007l-.21 1.154a.967.967 0 0 1-1.157.772l-1.767-.384a.972.972 0 0 1-.676-.55z" fill="#b79178"/><path id="XMLID_10_" d="M53.141 31.598l-.542-.185c-.354-.121-.442-.445-.167-.615 0 0 .892-.476 1.273-.239.382.237.172.716.172.716.024.273-.372.447-.736.323z" fill="#b79178"/><path id="XMLID_8_" d="M51.391 20.636l-.896-.103a.819.819 0 0 1-.617-1.221s.996-1.494 1.692-1.194c.696.3.686 1.432.686 1.432a.819.819 0 0 1-.865 1.086z" fill="#b79178"/><path id="XMLID_7_" d="M74.4 38.652l-.821-.372a.819.819 0 0 1-.214-1.351s1.406-1.117 1.976-.619c.571.498.215 1.573.215 1.573a.818.818 0 0 1-1.156.769z" fill="#b79178"/><path id="XMLID_6_" d="M78.77 68.217l-.821-.372a.819.819 0 0 1-.214-1.351s1.406-1.117 1.976-.619c.571.498.215 1.573.215 1.573a.82.82 0 0 1-1.156.769z" fill="#b79178"/><path id="XMLID_45_" d="M45.303 84.204l-.821-.372a.819.819 0 0 1-.214-1.351s1.406-1.117 1.976-.619c.571.498.215 1.573.215 1.573a.819.819 0 0 1-1.156.769z" fill="#b79178"/><path id="XMLID_5_" d="M41.596 16.103l-1.461-1.596c-.335-.366-.201-1.279.216-1.473l1.811-.844c.186-.087.373.012.479.252l.609 1.384c.16.363.082.914-.168 1.19l-.959 1.056c-.169.184-.375.196-.527.031z" fill="#b79178"/><path id="XMLID_4_" d="M38.737 25.391l-1.461-1.596c-.335-.366-.201-1.279.216-1.473l1.811-.844c.186-.087.373.012.479.252l.609 1.384c.16.363.082.914-.168 1.19l-.959 1.056c-.169.184-.375.196-.527.031z" fill="#b79178"/><path id="XMLID_3_" d="M87.614 56.448l-1.461-1.596c-.335-.366-.201-1.279.216-1.473l1.811-.844c.186-.087.373.012.479.252l.609 1.384c.16.363.082.914-.168 1.19l-.959 1.056c-.169.185-.376.197-.527.031z" fill="#b79178"/></svg>