<svg id="レイヤー_1" xmlns="http://www.w3.org/2000/svg" viewBox="0 0 128 128"><g><path fill="#fcc21b" d="M48.646 85.542l-8.233 17.01-5.875-18.039-18.535-2.563 15.151-11.176-3.108-18.401 15.126 10.939 10.762-5.546 5.972-3.08-1.575 4.725-4.351 13.026L67.548 85.7z"/><g><path d="M84.258 31.163c-3.467 2.034-6.851 4.222-10.176 6.492 1.175.646 2.116 1.738 2.684 3.446.166.487.217 1 .225 1.521 1.942-1.445 3.875-2.899 5.867-4.271a220.59 220.59 0 0 1 10.584-6.847 244.41 244.41 0 0 1 12.908-7.316 267.405 267.405 0 0 1 7.322-3.726c.629-.305 1.262-.612 1.888-.913.299-.142.591-.312.896-.429.38-.142 3.446-1.375 2.513-2.038-.441-.32-1.109-.154-1.601-.079-.607.096-1.195.275-1.774.438a94.16 94.16 0 0 0-3.292.979 117.68 117.68 0 0 0-7.518 2.688 138.778 138.778 0 0 0-9.467 4.154 160.257 160.257 0 0 0-11.059 5.901z" fill="#40c0e7"/><path d="M62.544 70.366l4.688-14.056 2.742-8.204 1.158-3.492a2.139 2.139 0 0 0-.634-2.296 2.126 2.126 0 0 0-2.366-.275l-.747.384-15.221 7.847-8.334 4.3-21.96-15.889a2.143 2.143 0 0 0-2.375-.083 2.14 2.14 0 0 0-.976 2.167l4.509 26.723-22.01 16.229a2.118 2.118 0 0 0-.799 2.242 2.113 2.113 0 0 0 1.775 1.588l26.894 3.717 8.525 26.189a2.134 2.134 0 0 0 3.95.267l11.942-24.677 27.41.233a2.138 2.138 0 0 0 1.516-3.659L62.544 70.366zM48.646 85.542l-8.233 17.01-5.875-18.039-18.535-2.563 15.151-11.176-3.108-18.401 15.126 10.939 10.762-5.546 5.973-3.08-1.575 4.726-4.352 13.025L67.548 85.7l-18.902-.158z" fill="#f79329"/><path d="M41.113 43.906c.491.513.908 1.046 1.516 1.429.293.184.543.283.776.312.587.084 1.024-.291 1.616-.846 1.233-1.15 2.5-2.271 3.784-3.362a155.498 155.498 0 0 1 6.025-4.876 189.072 189.072 0 0 1 8.292-6.033 217.14 217.14 0 0 1 10.584-6.851 250.388 250.388 0 0 1 12.9-7.317 276.878 276.878 0 0 1 7.334-3.721c.625-.309 1.25-.612 1.884-.913.3-.146.591-.312.899-.429.375-.146 3.438-1.375 2.509-2.038-.441-.32-1.108-.154-1.6-.079-.608.096-1.192.271-1.775.438-1.108.305-2.2.634-3.292.979a117.904 117.904 0 0 0-7.518 2.684 141.71 141.71 0 0 0-9.467 4.154 159.914 159.914 0 0 0-11.06 5.904 175.79 175.79 0 0 0-12.31 7.93 187.558 187.558 0 0 0-10.142 7.676c-.592.483-1.184.971-1.775 1.463-.541.45-1.25.958-.725 1.717.461.642.995 1.217 1.545 1.779z" fill="#40c0e7"/><path d="M127.659 31.764c-.457-.296-1.115-.096-1.604.004-.596.125-1.171.329-1.746.525-1.091.358-2.17.741-3.241 1.138-2.493.933-4.95 1.958-7.376 3.059a138.872 138.872 0 0 0-9.242 4.616c-3.675 2-7.259 4.159-10.759 6.442a175.391 175.391 0 0 0-11.9 8.529 183.78 183.78 0 0 0-9.742 8.172c-.575.513-1.143 1.029-1.709 1.546-.517.479-1.2 1.021-.633 1.754.483.617 1.05 1.167 1.625 1.7.517.487.954.996 1.592 1.354.291.167.55.254.783.275.592.05 1.008-.347 1.575-.93a119.44 119.44 0 0 1 3.607-3.546 157.849 157.849 0 0 1 5.776-5.167 193.253 193.253 0 0 1 7.983-6.438 220.765 220.765 0 0 1 10.234-7.362 241.86 241.86 0 0 1 12.525-7.951 278.062 278.062 0 0 1 7.134-4.083c.607-.333 1.226-.671 1.842-1.004.283-.159.575-.342.867-.472.373-.161 3.377-1.545 2.409-2.161z" fill="#40c0e7"/></g></g></svg>