<svg id="图层_1" xmlns="http://www.w3.org/2000/svg" viewBox="0 0 128 128"><g><path d="M61.735 74.521s-20.268 27.886-17.099 29.694c2.159 1.229 17.032 1.042 18.939 2.246 1.908 1.207-8.852 18.796-8.717 19.504.167.874 1.44 2.481 8.843-3.104 11.448-8.644 18.694-18.685 18.694-18.685s6.743-5.78-14.827-7.952c-1.996-1.977 16.765-18.833 16.765-18.833l-22.598-2.87z" fill="#ffca28"/></g><path d="M110.455 33.91l-.011.001c.001-.071.011-.14.011-.211 0-9.665-7.835-17.501-17.501-17.501-1.244 0-2.456.134-3.626.381C85.862 8.141 77.571 2.194 67.882 2.194c-7.275 0-13.761 3.356-18.012 8.599a20.064 20.064 0 0 0-9.106-2.189c-10.47 0-19.074 7.978-20.073 18.186-11.4.6-20.536 9.933-20.686 21.513-.156 12.067 9.5 21.976 21.567 22.132.938.012 1.856-.055 2.764-.158 4.661 9.831 14.672 16.632 26.275 16.632 7 0 13.42-2.475 18.437-6.597 3.836 2.841 8.567 4.541 13.707 4.541 10.543 0 19.416-7.076 22.178-16.731 1.738.576 3.59.899 5.521.899 9.695 0 17.555-7.86 17.555-17.555.001-9.696-7.858-17.556-17.554-17.556z" fill="#e3ebee"/><path d="M120.771 37.26c3.976 4.014 1.167 13.228-1.573 16.231-5.38 5.897-15.263 4.521-19.227 3.668-1.072-.231-1.245-.152-1.594.061-.313.192-.458.494-.795 1.218-1.28 2.752-4.573 8.085-11.532 10.234-7.252 2.24-14.09-1.169-17.297-3.209-1.213-.771-1.266-.789-1.814-.784-.556.005-1.108.414-1.764.931-2.889 2.276-9.504 6.291-19.692 5.708-9.992-.572-15.708-6.733-17.663-9.896-.375-.607-.782-1.117-1.24-1.164-.533-.055-1.128.497-1.58.937-4.254 4.14-17.623 5.382-22.062-1.668 4.509 7.235 11.481 10.815 18.634 10.908.938.012 1.856-.055 2.764-.158 4.661 9.831 14.672 16.632 26.275 16.632 7 0 13.42-2.475 18.437-6.597 3.836 2.841 8.567 4.541 13.707 4.541 10.543 0 19.416-7.076 22.178-16.731 1.738.576 3.59.899 5.521.899 9.695 0 17.555-7.86 17.555-17.555.001-5.167-2.593-10.99-7.238-14.206z" fill="#b9cdd2"/></svg>