<svg id="レイヤー_1" xmlns="http://www.w3.org/2000/svg" viewBox="0 0 128 128"><g><g><g><g><path d="M72.06 115.619c-.907-4.709-.991-9.521-1.468-14.285-.071-.627-.149-1.253-.158-1.879-.029-1.326-.701-2.205-1.936-2.69-.644-.253-1.466-.216-2.147-.327a11.169 11.169 0 0 0-2.168-.15c-.065 0-.127.01-.188.019a1.155 1.155 0 0 0-.176-.019 11.256 11.256 0 0 0-2.177.15c-.683.111-1.497.074-2.141.327-1.242.485-1.906 1.364-1.934 2.69-.019.626-.094 1.252-.158 1.879-.478 4.765-.562 9.576-1.473 14.285-.732 3.858-5.355 10.092.845 11.502 4.606 1.037 9.821 1.047 14.427 0 6.205-1.41 1.589-7.643.852-11.502z" fill="#855c52"/></g></g><path d="M120.561 68.477c0-5.765-3.467-10.712-8.423-12.898 2.864-2.485 4.675-6.139 4.675-10.222 0-7.419-5.959-13.431-13.351-13.538.865-1.692 1.401-3.57 1.401-5.597 0-6.821-5.531-12.362-12.361-12.362-1.187 0-2.317.225-3.405.542-.145-6.381-5.335-11.51-11.74-11.51-2.771 0-5.278.989-7.283 2.587C67.971 2.247 64.351.098 60.213.098c-4.178 0-7.831 2.194-9.914 5.483-1.682-.924-3.578-1.494-5.635-1.494-6.502 0-11.771 5.269-11.771 11.774 0 1.017.177 1.989.42 2.933-.468-.056-.925-.145-1.401-.145-6.83 0-12.361 5.536-12.361 12.357 0 1.859.439 3.606 1.178 5.185-5.934 1.448-10.344 6.779-10.344 13.151 0 3.686 1.485 7.031 3.877 9.47-4.082 2.476-6.82 6.942-6.82 12.062 0 6.092 3.878 11.269 9.297 13.24a15.053 15.053 0 0 0-1.579 6.69c0 8.371 6.783 15.154 15.154 15.154 2.901 0 5.602-.832 7.905-2.252 2.261 5.531 7.688 9.428 14.024 9.428 4.429 0 8.409-1.92 11.18-4.952 2.779 3.267 6.918 5.345 11.544 5.345 6.979 0 12.837-4.728 14.595-11.148a15.107 15.107 0 0 0 8.128 2.378c8.362 0 15.146-6.782 15.146-15.149 0-2.812-.776-5.434-2.112-7.69 5.698-1.813 9.837-7.139 9.837-13.441z" fill="#757f3f"/></g><path d="M31.14 59.782c-3.064.262-4.472-1.919-4.443-4.692.037-3.174 1.877-6.552 4.386-8.493.837-.646 1.916-1.088 2.463-2.048.56-.985.173-2.242.21-3.308.066-1.867.482-3.72 1.29-5.405 1.225-2.556 3.588-5.064 6.433-5.887 1.879-.544 2.396-2.011 2.71-3.758.851-4.697 4.789-8.291 9.512-8.909.631-.084 1.257-.099 1.9-.099 2.762 0 5.64 1.218 5.663 4.387.042 5.353-6.467 3.19-8.62 6.558-.429.672-.466 1.366-.636 2.118-.387 1.678-.275 3.567-1.345 5.021-1.168 1.583-3.111 1.798-4.625 2.867-1.541 1.094-2.56 2.846-2.999 4.67-.528 2.224-.075 4.648-1.178 6.732-1.066 1.999-3.111 2.551-4.882 3.721-1.069.705-1.611 1.814-1.985 3.004-.57 1.811-1.279 2.961-3.247 3.425a4.264 4.264 0 0 1-.607.096z" fill="#bdcf46"/></g></svg>