<svg id="レイヤー_1" xmlns="http://www.w3.org/2000/svg" viewBox="0 0 128 128"><g><path d="M24.934 17.522c.131-.227.283-.486.482-.699.718-.779 1.757-1.114 2.805-1.114a5.19 5.19 0 0 1 2.654.765c.075.048.171.066.246.118l.425.142c.298 0 .577-.165.916-.25.086-.019.165-.015.253-.028.33-.066.664-.123.991-.123.985 0 1.936.293 2.752.789 1.219.751 2.144 1.988 2.361 3.523.056.406.179.799.217 1.21l.326.033c.269 0 .548-.053.816-.053l.275.02a8.612 8.612 0 0 1 1.753.515c.995.411 1.845 1.709 2.317 2.644.52 1.039.671 2.182.49 3.33a4.263 4.263 0 0 1-.329 1.086l-.275.656c-.019.59.851 1.228 1.224 1.605l1.748 1.813a388.098 388.098 0 0 1 3.537 3.708 91.069 91.069 0 0 1 2.248 2.513c3.66 4.241 6.866 8.912 8.614 14.276.841 2.598 1.573 6.414-1.658 7.727-.779.312-1.932.558-3.079.558-1.525 0-3.036-.43-3.617-1.715-.5-1.109-.638-2.398-1.006-3.546-.727-2.301-1.492-4.596-2.408-6.857a60.943 60.943 0 0 0-.7-1.682 46.95 46.95 0 0 0-1.406-2.952 32.093 32.093 0 0 0-1.096-1.851c-1.606-2.574-3.519-4.832-5.525-7.18-.427-.501-.846-1.086-1.437-1.407l-.567-.156c-.349 0-.651.185-1.1.261-.448.075-.836.287-1.275.287l-.225-.019c-.483-.09-.998-.203-1.471-.335-1.02-.283-1.93-.869-2.65-1.644-.684-.737-.892-1.455-1.023-2.404-2.21-.288-3.883.024-5.195-2.186-.906-1.516-1.248-3.481-.604-5.157.132-.368.406-.605.557-.906-.321-.284-.661-.558-.963-.851-1.158-1.119-1.19-2.801-.515-4.185.041-.089.06-.189.117-.279z" fill="#fcc21b"/><path d="M83.837 64.802c-1.133-.075-2.576-.033-1.733 1.493 1.186 2.14 4.369 2.498 5.25 5.049 1.967 5.719-7.036.528-8.707-.345-1.469-.766-11.472-2.792-9.317.699.349.562.834.921 1.194 1.491.401.638.656 1.295.916 1.937.916 2.263 1.511 7.108-2.092 5.843-1.359-.478-2.485-1.875-3.788-2.234-1.512-.415-1.653.917-1.493 2.125.317 2.361 1.313 4.969-.064 6.934-1.342 1.903-4.671-.397-5.588-2.205-.685-1.347-2.526-5.182-4.023-5.102-1.861.1-2.153 2.499-3.074 3.722-.912 1.21-2.636 2.003-3.935.481-2.479-2.904-.138-7.046 1.109-9.903.336-.77.345-1.374-.617-1.397-.78-.019-1.313.43-1.857.949-.652.628-1.322 1.034-1.975 1.667-1.038 1.001-2.205 2.29-3.825 2.026-1.379-.223-2.573-1.445-2.428-2.844.132-1.322 2.136-4.406.02-4.822-1.29-.25-2.182.487-3.282.969-1.237.533-2.909.661-4.19.198-2.418-.864.369-4.321 1.417-5.186.646-.538 2.115-1.369 1.577-2.438-.373-.746-1.852-.746-2.541-.798-.84-.062-2.531.133-3.079-.6-.538-.723.024-1.889.612-2.428 1.532-1.421 4.493-1.591 6.453-1.818a27.111 27.111 0 0 1 3.222-.193c.604 0 1.831.265 2.181-.392.888-1.663-2.493-2.664-3.391-3.032-.69-.288-1.346-.571-2.012-.954-2.191-1.261.269-3.306 1.813-3.48.774-.086 2.002.32 2.595-.398.361-.434.438-1.558.334-2.111-.303-1.719-2.546-2.895-2.064-4.812.213-.835.893-1.236 1.705-1.416 1.738 2.078 3.268 4.042 4.458 6.3.435.827.859 1.715 1.266 2.641.218.515.435 1.029.643 1.544.926 2.328 1.714 4.709 2.291 6.526.099.331.175.671.255 1.012.197.869.443 1.95.949 3.069 1.312 2.896 4.237 4.553 8.023 4.553 1.677 0 3.458-.33 4.894-.911 1.846-.751 7.612-3.948 4.435-13.706-2.534-7.803-7.554-13.896-11.714-18.367.07-.194.121-.388.198-.581.387-1.016.868-1.597 1.992-1.828.959-.198 2.579.015 2.866 1.157.213.869.081 4.741 1.852 4.449.771-.123 1.101-1.645 1.465-2.225.646-1.039 1.601-2.102 2.579-2.839 1.075-.812 4.821-2.087 5.644-.604.845 1.512-.208 3.83-.208 5.45-.01 2.348 2.012 1.753 3.669 1.209 1.565-.51 3.778-1.062 5.398-.458.624.231 1.602.774 1.964 1.317.552.822-.009 1.752-.548 2.522-.742 1.072-1.964 1.629-3.069 2.262-1.247.714-2.111 1.549-2.993 2.683-.426.553-1.8 2.026-1.262 2.824.751 1.115 4.298.085 5.412.076 2.073-.028 4.231.269 5.682 1.912 2.834 3.202-5.314 3.245-4.619 5.153.274.773 3.089.963 3.816 1.209 1.412.467 2.808 1.156 4.193 1.766 1.517.661 5.793 3.547 5.616 5.418-.288 3.055-8.595-.09-10.47-.208z" fill="#fff"/><path d="M127.296 69.846a14.484 14.484 0 0 0-3.254-8.057 15.545 15.545 0 0 0-.969-1.054c-.934-.921-.584-2.847-.297-4.004.448-1.81-.331-4.086-1.096-5.71-1.729-3.68-4.969-6.919-8.681-8.591-2.546-1.148-5.318-1.672-8.086-1.903a63.595 63.595 0 0 1-3.48-.388c-1.261-.175-2.652.505-3.88.723l-1.381.01c-.293-.274-.048-.378-.019-.614.137-1.162 1.331-1.785 2.144-2.531 2.9-2.646 5.809-6.801 5.663-10.904-.119-3.373-1.779-6.159-4.501-8.105-3.306-2.36-6.771-2.272-8.729-6.205-2.528-5.096-7.381-7.547-12.944-7.084-1.729.142-3.374 1.166-4.945 1.813-2.36.963-4.788-.198-7.14-.521-5.8-.798-10.57 2.513-13.744 7.085-1.53 2.206-2.636 4.817-3.316 7.424-.052.218-.094.596-.122 1.034-.893-1.606-2.305-3.471-4.459-4.363a14.528 14.528 0 0 0-1.152-.416c-1.533-3.537-5.129-5.988-9.199-5.988-.553 0-1.104.047-1.644.137a10.139 10.139 0 0 0-3.845-.76c-2.508 0-4.769.949-6.356 2.668a8.331 8.331 0 0 0-1.124 1.563 9.023 9.023 0 0 0-1.02 2.781c-1.691.298-3.273.964-4.818 2.068-2.644 1.885-4.51 4.614-5.129 7.477-.642 2.999.416 5.47 1.27 7.453 1.106 2.598 1.423 3.574.033 5.209-2.143 2.541-3.59 6.229-2.654 9.568.406 1.449 1.417 3.179 2.567 4.161.314.269 4.456 2.097 3.602 3.008-.578.614-2.569.623-3.354.945-3.721 1.521-6.621 5.029-7.991 8.731-1.198 3.197-1.307 6.759-.311 9.521.235.652.16.874-.473 2.145l-.27.562c-1.52 3.169-1.95 6.947-1.185 10.372.395 1.723.793 2.999 1.266 4.004 1.525 3.287 5.45 4.629 6.749 5.073.42.142 3.216.798 5.218 1.053.331.59.732 1.101 1.059 1.516l.33.439c4.435 6.267 14.641 7.708 20.837 3.315 1.072-.76 2.589-1.865 3.112-3.122.469-1.133.733-2.025 1.597-3.023.874-1.011 1.668-1.077 1.657.416-.047 6.163.388 12.27 5.702 16.369 1.751 1.351 3.659 2.178 5.661 2.45.26.039.534.058.812.058.566 0 1.199-.076 1.833-.16.425-.058.85-.119 1.388-.133.308.127.883.741 1.309 1.186.439.468.874.921 1.321 1.279 1.763 1.45 3.779 2.338 5.996 2.636.804.108 1.646.165 2.486.165 3.916 0 7.727-1.181 10.467-3.235 2.225-1.672 2.975-3.622 3.702-5.506l.151-.388c.316-.803 1.36-1.417 2.573-2.135 2.829-1.667 4.942-4.444 5.895-7.57.51-1.677.736-3.457.482-5.21-.18-1.241-1.785-3.509-1.575-4.618l.261-.005c1.014.075 1.904.911 2.769 1.365 1.237.646 2.658 1.044 4.023 1.322 2.031.42 3.977.548 5.861-.439 2.876-1.502 5.634-3.24 7.599-5.898.562-.766.86-1.257 1.763-1.658 3.498-1.568 7.272-2.248 9.917-5.242 3.18-3.598 4.451-8.841 4.068-13.564zM24.934 17.522c.131-.227.283-.486.482-.699.718-.779 1.757-1.114 2.805-1.114a5.19 5.19 0 0 1 2.654.765c.075.048.171.066.246.118l.425.142c.298 0 .577-.165.916-.25.086-.019.165-.015.253-.028.33-.066.664-.123.991-.123.985 0 1.936.293 2.752.789 1.219.751 2.144 1.988 2.361 3.523.056.406.179.799.217 1.21l.326.033c.269 0 .548-.053.816-.053l.275.02a8.612 8.612 0 0 1 1.753.515c.995.411 1.845 1.709 2.317 2.644.52 1.039.671 2.182.49 3.33a4.263 4.263 0 0 1-.329 1.086l-.275.656c-.019.59.851 1.228 1.224 1.605l1.748 1.813a388.098 388.098 0 0 1 3.537 3.708 91.069 91.069 0 0 1 2.248 2.513c3.66 4.241 6.866 8.912 8.614 14.276.841 2.598 1.573 6.414-1.658 7.727-.779.312-1.932.558-3.079.558-1.525 0-3.036-.43-3.617-1.715-.5-1.109-.638-2.398-1.006-3.546-.727-2.301-1.492-4.596-2.408-6.857a60.943 60.943 0 0 0-.7-1.682 46.95 46.95 0 0 0-1.406-2.952 32.093 32.093 0 0 0-1.096-1.851c-1.606-2.574-3.519-4.832-5.525-7.18-.427-.501-.846-1.086-1.437-1.407l-.567-.156c-.349 0-.651.185-1.1.261-.448.075-.836.287-1.275.287l-.225-.019c-.483-.09-.998-.203-1.471-.335-1.02-.283-1.93-.869-2.65-1.644-.684-.737-.892-1.455-1.023-2.404-2.21-.288-3.883.024-5.195-2.186-.906-1.516-1.248-3.481-.604-5.157.132-.368.406-.605.557-.906-.321-.284-.661-.558-.963-.851-1.158-1.119-1.19-2.801-.515-4.185.041-.089.06-.189.117-.279zm58.903 47.28c-1.133-.075-2.576-.033-1.733 1.493 1.186 2.14 4.369 2.498 5.25 5.049 1.967 5.719-7.036.528-8.707-.345-1.469-.766-11.472-2.792-9.317.699.349.562.834.921 1.194 1.491.401.638.656 1.295.916 1.937.916 2.263 1.511 7.108-2.092 5.843-1.359-.478-2.485-1.875-3.788-2.234-1.512-.415-1.653.917-1.493 2.125.317 2.361 1.313 4.969-.064 6.934-1.342 1.903-4.671-.397-5.588-2.205-.685-1.347-2.526-5.182-4.023-5.102-1.861.1-2.153 2.499-3.074 3.722-.912 1.21-2.636 2.003-3.935.481-2.479-2.904-.138-7.046 1.109-9.903.336-.77.345-1.374-.617-1.397-.78-.019-1.313.43-1.857.949-.652.628-1.322 1.034-1.975 1.667-1.038 1.001-2.205 2.29-3.825 2.026-1.379-.223-2.573-1.445-2.428-2.844.132-1.322 2.136-4.406.02-4.822-1.29-.25-2.182.487-3.282.969-1.237.533-2.909.661-4.19.198-2.418-.864.369-4.321 1.417-5.186.646-.538 2.115-1.369 1.577-2.438-.373-.746-1.852-.746-2.541-.798-.84-.062-2.531.133-3.079-.6-.538-.723.024-1.889.612-2.428 1.532-1.421 4.493-1.591 6.453-1.818a27.111 27.111 0 0 1 3.222-.193c.604 0 1.831.265 2.181-.392.888-1.663-2.493-2.664-3.391-3.032-.69-.288-1.346-.571-2.012-.954-2.191-1.261.269-3.306 1.813-3.48.774-.086 2.002.32 2.595-.398.361-.434.438-1.558.334-2.111-.303-1.719-2.546-2.895-2.064-4.812.213-.835.893-1.236 1.705-1.416 1.738 2.078 3.268 4.042 4.458 6.3.435.827.859 1.715 1.266 2.641.218.515.435 1.029.643 1.544.926 2.328 1.714 4.709 2.291 6.526.099.331.175.671.255 1.012.197.869.443 1.95.949 3.069 1.312 2.896 4.237 4.553 8.023 4.553 1.677 0 3.458-.33 4.894-.911 1.846-.751 7.612-3.948 4.435-13.706-2.534-7.803-7.554-13.896-11.714-18.367.07-.194.121-.388.198-.581.387-1.016.868-1.597 1.992-1.828.959-.198 2.579.015 2.866 1.157.213.869.081 4.741 1.852 4.449.771-.123 1.101-1.645 1.465-2.225.646-1.039 1.601-2.102 2.579-2.839 1.075-.812 4.821-2.087 5.644-.604.845 1.512-.208 3.83-.208 5.45-.01 2.348 2.012 1.753 3.669 1.209 1.565-.51 3.778-1.062 5.398-.458.624.231 1.602.774 1.964 1.317.552.822-.009 1.752-.548 2.522-.742 1.072-1.964 1.629-3.069 2.262-1.247.714-2.111 1.549-2.993 2.683-.426.553-1.8 2.026-1.262 2.824.751 1.115 4.298.085 5.412.076 2.073-.028 4.231.269 5.682 1.912 2.834 3.202-5.314 3.245-4.619 5.153.274.773 3.089.963 3.816 1.209 1.412.467 2.808 1.156 4.193 1.766 1.517.661 5.793 3.547 5.616 5.418-.288 3.055-8.595-.09-10.47-.208z" fill="#ed6c30"/></g></svg>