<svg id="レイヤー_1" xmlns="http://www.w3.org/2000/svg" xmlns:xlink="http://www.w3.org/1999/xlink" viewBox="0 0 128 128"><g><g><path d="M82.09 96.561c4.058.569 10.51 3.544 12.745 6.903.274.418.827 1.036.84 1.503.024.758-.666 1.281-1.183 1.743-7.354 6.638-20.371 8.484-27.264 1.907-.964-.922-.144-2.174.274-3.252 1.67-4.313 5.833-7.814 10.366-8.701a12.691 12.691 0 0 1 4.222-.103z" fill="#bdcf46"/></g><g><path d="M47.533 99.931c-4.079-.389-11.046 1.005-14 3.752-.363.343-1.046.816-1.166 1.266-.199.732.35 1.401.746 1.97 5.611 8.165 17.842 12.985 26.074 8.19 1.152-.673.645-2.081.489-3.227-.622-4.583-3.858-8.956-8.061-10.871a12.745 12.745 0 0 0-4.082-1.08z" fill="#bdcf46"/></g></g><g><defs><path id="SVGID_1_" d="M0 0v135.006h128V0H0zm76.861 67.877c-9.124 4.6-22.196 4.786-30.382-2.261-8.843-7.604-11.978-19.896-5.446-30.318.811-1.298 1.627-2.633 2.533-3.86 2.475-3.365 6.121-5.95 10-7.117.258-.079.522-.151.78-.214 1.184-.297 2.384-.539 3.578-.843 3.25-.831 6.646-.479 9.932-.099 3.8.435 8.53 2.751 11.611 5.106 12.401 9.501 11.388 32.556-2.606 39.606z"/></defs><clipPath id="SVGID_2_"><use xlink:href="#SVGID_1_" overflow="visible"/></clipPath><g clip-path="url(#SVGID_2_)"><path d="M65.932 121.184a14.68 14.68 0 0 1-.501 1.446c-.352.868-.693 1.75-1.064 2.617-.312.72-.626 1.596-1.443 1.908-1.022.385-2.305.215-3.318-.079-4.237-1.244-3.115-5.319-2.063-8.295 2.144-6.063 2.949-19.19 3.394-25.531.461-6.551-.265-13.429-.265-19.991 0-.129.008-2.79-.094-2.79h8.357v3.067c0 4.749.013 9.495-.09 14.24-.195 8.781-.381 24.883-2.913 33.408z" fill="#757f3f"/></g></g><path d="M76.861 67.877c-9.124 4.6-22.196 4.786-30.382-2.261-8.843-7.604-11.978-19.896-5.446-30.318.811-1.298 1.627-2.633 2.533-3.86 2.475-3.365 6.121-5.95 10-7.117.258-.079.522-.151.78-.214 1.184-.297 2.384-.539 3.578-.843 3.25-.831 6.646-.479 9.932-.099 3.8.435 8.53 2.751 11.611 5.106 12.401 9.501 11.388 32.556-2.606 39.606z" fill="#865a3d"/><path d="M112.711 47.914c-4.189-5.486-6.426-3.939-12.058-4.232-1.058-.055-9.537.527-9.679-.859-.155-1.481 8.167-3.816 9.287-4.263 3.441-1.366 6.274-2.498 7.724-5.653.347-.753.796-2.692.101-4.985-.817-2.684-6.255-4.77-8.569-4.386-1.605.265-3.594.499-5.49 1.263-1.128.455-6.164 3.214-7.392 2.846-1.448-.436 3.738-4.39 4.28-4.984 1.013-1.117 2.252-1.92 3.012-3.215.958-1.631 2.11-3.76 2.094-5.684-.009-1.132-1.195-4.284-2.493-4.984-5.543-2.989-9.07 1.096-13.159 6.282-.412.518-4.691 5.914-5.301 6.076-.34.095 3.784-7.703 3.904-7.972 1.599-3.689.895-6.975-.198-10.367-.225-.709-1.524-1.643-2.593-1.991-.61-.202-2.743-.883-3.487-.8-4.687.526-6.278 2.692-9.176 7.775-.665 1.176-2.129 9.025-2.66 10.225-.74 1.651-1.527-6.354-1.662-7.355a15.663 15.663 0 0 0-.856-3.369c-.407-1.034-.819-2.142-1.385-2.965-.65-.929-1.415-1.828-2.305-2.517C53.162.656 50.66-.092 48.459.514c-.721.198-.966.269-1.508.606-2.87 1.777-3.597 6.135-3.468 8.958.203 4.287 4.727 10.822 4.842 12.505-1.251-.542-7.133-9.417-9.326-10.711-3.147-1.861-4.983-2.593-8.772-1.398-.419.135-1.987 1.595-2.391 1.774-.578.258-.202.495-.474.823-.831 1.009-.997 3.294-.823 4.283.308 1.785 1.002 3.231 1.793 4.885.218.455 1.049 1.583 1.301 2.011.548.934 1.348 1.754 2.009 2.609.17.218 7.921 5.249 7.533 5.364-.562.166-7.386-2.755-7.937-2.819-.578-.063-9.184-5.668-13.574-.784-.875.974-1.99 2.193-2.185 4.09-.095 1.029-.237 3.306.194 4.085 1.325 2.363 2.378 3.638 4.584 5.182 1.049.736 4.944 1.837 6.08 2.395.44.21 6.741.143 6.33.863-.145.257-6.104.855-6.43.934-2.493.598-3.752.748-5.486 1.694-1.805.986-8.871 2.494-5.4 11.772.76 2.019 2.352 2.886 4.208 3.282 1.762.372 4.322-.103 6.48-.7 1.362-.376 8.836-3.884 10.243-3.491 1.411.396-4.25 3.265-4.76 3.693-.94.784-4.889 4.331-5.483 5.384-1.195 2.106-1.603 2.751-2.296 5.067-.634 2.11-.807 3.365-.61 5.57.095 1.018.38 2.241 1.429 2.688 1.074.455 2.949.38 3.915.38 2.818 0 4.53-1.124 7.019-2.403 1.057-.542 2.07-.93 3.02-1.825.583-.546 5.115-8.507 5.954-8.19-.024-.012-3.927 11.488-3.99 11.829-.412 2.28-.491 4.623.17 6.852.382 1.286 1.041 2.514 1.951 3.507.641.712 2.075 1.207 3.15 1.231 4.811.119 7.601-3.768 9.295-9.449.103-.336 2.122-6.82 2.435-6.983.95-.495 1.033 7.846 1.097 8.392.181 1.544.768 3.816 1.556 5.17 1.006 1.742 2.137 3.119 3.689 4.386 1.247 1.018 3.424 1.2 5.078 1.39.511.063 1.809-.245 2.296-.392.824-.249 2.486-1.932 2.851-2.66 1.746-3.492.84-6.215.087-9.96-.095-.463-2.292-8.368-1.956-8.737.594-.649 3.733 7.268 3.975 7.731.827 1.56 2.717 4.026 4.018 5.249 1.695 1.595 3.966 2.327 5.985 2.692 1.497.273 4.512-.095 5.677-1.097 1.148-.981 1.714-2.458 1.994-4.386.29-1.992.052-3.147-.498-5.083-.178-.633-.63-1.654-.78-1.924-.915-1.667-7.6-9.662-7.359-9.687.938-.103 8.412 5.787 9.259 6.195 1.655.795 3.515 1.208 5.316 1.571 1.56.321 2.988.087 4.569.044.289-.008 1.71-.768 3.052-2.185.902-.95 1.017-2.712 1.017-3.329 0-2.418-.487-3.503-2.382-5.898-.747-.938-1.928-1.698-3.227-2.446-.775-.444-10.72-2.807-11.099-3.591-.368-.764 9.39.78 9.971.729 1.52-.135 3.274.166 4.694-.135 2.15-.455 4.22-1.1 5.445-2.153 2.424-2.095 2.033-6.569.905-8.049zm-35.85 19.963c-9.124 4.6-22.196 4.786-30.382-2.261-8.843-7.604-11.978-19.896-5.446-30.318.811-1.298 1.627-2.633 2.533-3.86 2.475-3.365 6.121-5.95 10-7.117.258-.079.522-.151.78-.214 1.184-.297 2.384-.539 3.578-.843 3.25-.831 6.646-.479 9.932-.099 3.8.435 8.53 2.751 11.611 5.106 12.401 9.501 11.388 32.556-2.606 39.606z" fill="#fcc21b"/><path d="M63.628 32.348c-2.826-.135-7.264.598-9.627 2.454-4.315 3.397-6.551 9.437-5.486 14.877a12.895 12.895 0 0 0 2.276 5.201c5.202 7.039 16.875 6.928 22.995 1.251 8.871-8.225.878-23.26-10.158-23.783z" fill="#fcc21b"/><path d="M76.861 67.877c-9.124 4.6-22.196 4.786-30.382-2.261-8.843-7.604-11.978-19.896-5.446-30.318.811-1.298 1.627-2.633 2.533-3.86 2.475-3.365 6.121-5.95 10-7.117.258-.079.522-.151.78-.214 1.184-.297 2.384-.539 3.578-.843 3.25-.831 6.646-.479 9.932-.099 3.8.435 8.53 2.751 11.611 5.106 12.401 9.501 11.388 32.556-2.606 39.606z" opacity=".35" fill="#fcc21b"/></svg>