<svg id="レイヤー_1" xmlns="http://www.w3.org/2000/svg" viewBox="0 0 128 128"><g><path d="M126.696 42.337c-1.163-.881-2.964-.613-4.908.182-3.477 1.417-7.402 4.515-8.954 5.76-6.881 5.536-12.771 12.57-17.132 20.298.268-2.806.393-5.343.249-7.225-.516-6.723-1.878-13.829-5.847-19.436-3.048-4.305-7.522-7.101-12.56-8.519-1.05-.297-1.932-.196-2.83.417-.312.215-.651.604-.805.963-.23.55-.259 1.858-.119 2.461.182.776.603 1.245 1.391 1.489l.496.158c6.646 2.207 10.804 6.55 12.771 13.426 1.292 4.515 1.551 9.285 1.364 13.953-.221 5.383-.958 11.234-1.672 15.878-.848-.938-1.747-1.834-2.76-2.624-1.655-1.297-3.565-2.389-5.5-3.217-1.651-.709-3.405-1.418-5.229-1.983-3.237-1.015-6.646-1.575-9.893-.872-1.153.249-3.064 1.935.095 4.075 5.086 3.438 10.019 7.685 13.537 12.747 2.27 3.26 3.961 6.871 5.281 10.611.771 2.164 1.432 4.372 2.06 6.58.846 2.949 1.273 10.108 1.273 10.108 0 .004 0 .009.01.014 0 .805.041 1.551.569 2.38.656 1.02 1.771 2.025 3.008 2.217 2.906.45 5.189-1.192 5.569-4.041 1.215-9.069 2.944-18.109 5.779-26.819a133.125 133.125 0 0 1 4.773-12.507c2.749-6.234 5.923-12.282 9.442-18.114 2.849-4.726 5.774-9.414 9.232-13.7.994-1.226 3.045-3.352 1.31-4.66z" fill="#757f3f"/><path d="M50.017 20.824c-.761-.273-2.332-.733-3.894-.9-1.742-.192-3.466-.034-4.026 1.125-.948 1.958-.536 4.089.038 6.11 1.652 5.765 6.728 10.257 12.886 8.011 1.23-.45 1.838-1.771 2.25-2.959 1.704-4.885-2.96-9.836-7.254-11.387z" fill="#fcc21b"/><path d="M40.934 38.794c.908-.954.861-2.404.708-3.654-.637-5.133-7.011-7.508-11.55-6.991-.799.091-2.413.378-3.888.915-1.643.603-3.115 1.508-3.112 2.796.019 2.179 1.331 3.903 2.748 5.459 4.032 4.439 10.573 6.215 15.094 1.475z" fill="#fcc21b"/><path d="M27.482 48.011c.531-1.206 0-2.557-.569-3.677-2.337-4.611-9.142-4.678-13.24-2.652a18.94 18.94 0 0 0-3.348 2.183c-1.34 1.125-2.423 2.48-1.973 3.683.758 2.044 2.577 3.222 4.441 4.204 5.295 2.805 12.052 2.249 14.689-3.741z" fill="#fcc21b"/><path d="M17.202 57.253c-3.85-3.452-10.214-1.048-13.298 2.323-.541.598-1.565 1.876-2.326 3.251-.849 1.532-1.36 3.189-.509 4.151 1.451 1.623 3.572 2.063 5.665 2.308 5.952.69 12.048-2.274 12.335-8.815.063-1.322-.928-2.38-1.867-3.218z" fill="#fcc21b"/><path d="M14.4 72.336c-1.125-.689-2.533-.335-3.721.077-4.883 1.7-5.87 8.432-4.405 12.761.259.761.882 2.279 1.715 3.61.938 1.48 2.126 2.73 3.386 2.452 2.125-.479 3.533-2.126 4.764-3.835 3.486-4.875 3.845-11.646-1.739-15.065z" fill="#fcc21b"/><path d="M27.842 60.739c-1.206-.556-2.558-.038-3.688.517-4.649 2.26-4.826 9.064-2.862 13.192a19.157 19.157 0 0 0 2.125 3.381c1.108 1.355 2.442 2.461 3.654 2.035 2.053-.728 3.255-2.528 4.275-4.372 2.883-5.253 2.442-12.019-3.504-14.753z" fill="#fcc21b"/><path d="M37.256 46.9c-1.26-.417-2.548.254-3.606.929-4.363 2.777-3.76 9.558-1.346 13.432a18.516 18.516 0 0 0 2.499 3.122c1.25 1.221 2.7 2.164 3.859 1.604 1.954-.958 2.944-2.883 3.745-4.832 2.27-5.544 1.064-12.215-5.151-14.255z" fill="#fcc21b"/><path d="M52.718 40.059c-1.174-.623-2.554-.173-3.712.31-4.765 2.016-5.306 8.796-3.571 13.02a19.026 19.026 0 0 0 1.948 3.496c1.03 1.413 2.304 2.586 3.538 2.227 2.088-.618 3.386-2.351 4.501-4.137 3.161-5.091 3.084-11.871-2.704-14.916z" fill="#fcc21b"/><path d="M69.532 52.446c4.335-4.138 5.953-10.722 1.112-15.126-.977-.891-2.428-.805-3.668-.623-5.119.752-7.341 7.183-6.718 11.708.105.799.431 2.403 1.005 3.869.643 1.629 1.58 3.084 2.864 3.045 2.179-.077 3.872-1.427 5.405-2.873z" fill="#fcc21b"/><path d="M71.052 32.253c1.273-.344 1.981-1.614 2.49-2.758 2.12-4.726-2.127-10.051-6.277-11.952-.733-.335-2.261-.92-3.803-1.221-1.719-.335-3.452-.321-4.104.786-1.111 1.877-.881 4.027-.469 6.095 1.164 5.88 5.847 10.779 12.163 9.05z" fill="#fcc21b"/></g></svg>