<svg id="レイヤー_1" xmlns="http://www.w3.org/2000/svg" viewBox="0 0 128 128"><g><g><path d="M71.913 115.902c-.887-4.622-.973-9.345-1.44-14.022-.065-.614-.143-1.229-.156-1.843-.027-1.302-.684-2.165-1.898-2.642-.632-.247-1.438-.21-2.104-.321a11.044 11.044 0 0 0-2.133-.146c-.059 0-.119.009-.183.018a.996.996 0 0 0-.17-.018 11.047 11.047 0 0 0-2.136.146c-.671.11-1.473.074-2.105.321-1.22.477-1.866 1.339-1.898 2.642-.019.614-.093 1.229-.151 1.843-.473 4.677-.554 9.4-1.444 14.022-.724 3.787-5.254 9.904.83 11.289 4.52 1.018 9.638 1.027 14.158 0 6.084-1.385 1.559-7.502.83-11.289z" fill="#855c52"/><path d="M113.065 88.904c-6.874-1.926-12.266-4.498-16.092-6.695-.269-.238-.66-.44-.531-.825.088-.248.424-.349.661-.403 2.297-.312 4.27-.642 5.704-.99 8.033-1.917 8.089-7.043 8.089-7.043s1.183-6.126-6.025-8.144c-6.347-1.779-11.453-4.113-15.209-6.189-.258-.166-.504-.349-.395-.661.06-.165.192-.248.343-.293a50.312 50.312 0 0 0 3.15-.449c6.962-1.284 7.24-5.677 7.24-5.677s1.174-4.888-4.791-7.236c-5.544-2.183-11.097-5.443-14.756-7.777-.188-.201-.441-.458-.315-.733.113-.257.422-.275.664-.312 0 0 .024 0 .032-.005l1.068.124s6.163 1.173 8.07-4.109c1.906-5.282-3.961-8.07-3.961-8.07-11.595-5.43-19.22-20.835-19.22-20.835C65.172-.5 63.998.087 63.998.087S62.824-.5 61.215 2.582c0 0-7.63 15.406-19.222 20.835 0 0-5.869 2.788-3.967 8.07 1.911 5.282 8.075 4.109 8.075 4.109l1.073-.124c.005.005.023.005.023.005.246.036.554.055.673.312.123.275-.133.532-.315.733-3.659 2.334-9.218 5.594-14.756 7.777-5.971 2.348-4.796 7.236-4.796 7.236s.283 4.393 7.24 5.677a50.16 50.16 0 0 0 3.154.449c.152.046.284.128.335.293.114.312-.128.495-.386.661-3.76 2.077-8.863 4.41-15.215 6.189-7.202 2.018-6.024 8.144-6.024 8.144s.063 5.126 8.089 7.043c1.439.348 3.407.678 5.703.99.231.055.577.156.661.403.128.385-.257.587-.527.825-3.824 2.197-9.225 4.769-16.099 6.695-7.199 2.017-6.025 8.135-6.025 8.135s.133 4.878 8.093 7.052c3.293.889 7.904.917 13.022.44.721.028 1.491-.045 2.124.335.775.472.811 1.481 1.036 2.26.216.752.491 1.486.871 2.164 3.394 6.089 11.729 3.843 17.756-.211a5.897 5.897 0 0 1 1.975-.707c.952-.156 1.939-.054 2.783.423.069.037.156.1.23.146.659.56 1.346 1.078 2.099 1.513 1.358.789 3.064 1.183 4.581 1.541 2.812.669 6.396.165 9.042-1.486.11-.064.221-.142.285-.183.068-.037.122-.092.192-.138.078-.056.16-.11.233-.165.271-.202.527-.413.812-.587a4.279 4.279 0 0 1 1.87-.641c.297-.019.587 0 .876.055.449.096.898.275 1.293.5.083.041.202.119.321.179 5.975 3.824 13.916 5.769 17.213-.138.38-.688.651-1.421.862-2.164.229-.789.266-1.788 1.041-2.265.518-.312 1.127-.312 1.728-.321 4.609.358 8.732.266 11.753-.55 7.965-2.173 8.088-7.052 8.088-7.052s1.181-6.118-6.023-8.135z" fill="#757f3f"/></g><path d="M51.653 29.529c1.134.438 1.863 1.314 3.485.669 1.037-.413 1.972-1.965 2.118-3.026.221-1.658-.907-1.256-1.988-1.788-.317-.841.622-2.169.137-3.113-.688-1.339-2.811.087-3.432.797-.989 1.133-1.833 1.967-3.217 2.696-.931.491-4.856 2.561-2.931 3.966.403.292.807.335 1.288.33 1.263-.009 2.531-.869 3.732-.733.301.032.566.108.808.202z" fill="#bdcf46"/><path d="M40.094 47.056c-1.434.509-4.479 2.396-2.563 4.146 1.344 1.227 4.197.525 5.766.13.655-.165 1.517-.621 2.208-.584.739.038.749.579.987 1.176.495 1.233 1.407 1.467 2.672 1.467.759 0 1.372.037 2.056-.289 1.637-.784 1.531-.39 3.044.151 1.762.632 3.278-.244 4.311-1.661.336-.46.601-1.169.572-1.723-.049-1.069-.797-1.623-1.907-1.467-1.119.157-1.894.407-2.5-.729-.795-1.504-3.07.373-3.625-.711-.247-.472.284-1.486.191-2.054-.114-.702-.521-1.23-1.256-1.348-1.155-.186-2.109.118-3.04.628-1.736.954-3.245 1.71-5.14 2.307-.477.151-1.114.327-1.776.561z" fill="#bdcf46"/><path d="M42.557 63.992c-.958-.134-2.091.27-2.888.66-3.284 1.601-6.529 3.288-9.84 4.849-1.166.55-3.026 1.096-2.972 2.721.092 2.955 5.204 1.697 6.91 1.504 1.507-.171 3.976-.766 5.222.447.725.7 1.06 1.116 2.105 1.227 1.774.188 4.076-1.589 5.671-.733.661.353 1.028.825 1.767 1.082 1.792.621 3.966-.117 5.437-1.217 1.248-.934 2.143-3.618.438-4.535-1.11-.596-2 .488-3.032.3-1.559-.285-1.178-1.459-2.283-2.313-1.333-1.034-3.398.699-4.365-.324-.807-.855-.274-2.274-.984-3.069-.324-.356-.737-.537-1.186-.599z" fill="#bdcf46"/><path d="M39.154 87.308c-2.728-.532-5.493 1.524-7.845 2.572-2.592 1.154-5.461 1.326-8.016 2.559-1.697.819-1.526 3.402.133 4.141 1.517.672 3.457.484 5.066.394 2.385-.132 4.641-1.162 7.017-1.375 3.251-.294 3.406.584 3.965 3.374.405 2.024 2.555 3.118 4.509 2.698 1.021-.223 1.912-1.101 2.866-1.524 1.201-.532 1.144-.381 2.292.009.825.282 1.898.257 2.71-.053 1.356-.514 1.999-1.585 2.026-2.946.042-2.128.024-4.923-2.92-4.107-3.211.888-2.169-.851-4.508-1.719-1.664-.621-3.201.965-4.719-.385-1.204-1.074-.503-3.179-2.576-3.638z" fill="#bdcf46"/></g></svg>