<svg id="レイヤー_1" xmlns="http://www.w3.org/2000/svg" viewBox="0 0 128 128"><g><path d="M54.742 91.293c.921 3.562 2.713 6.744 5.416 9.873a43.987 43.987 0 0 0 4.533 4.502c2.671 2.312 5.038 5.068 8.18 6.762 1.129.602 2.146 1.586 3.403 1.914 1.241.328 1.87-.399 2.946-.867a10.32 10.32 0 0 1 2.217-.633c2.623-.481 5.176.297 7.52 1.439 1.388.682 2.713 1.488 3.993 2.348.863.584 1.767 1.533 2.907 1.418 1.259-.123 2.375-1.33 3.487-1.851 3.372-1.57 6.807.213 10.024 1.26 1.067.348 1.953.934 2.946.043a10.835 10.835 0 0 1 5.266-2.611c1.745-.322 3.536-.332 5.308-.314.9.01 3.82.541 4.503-.105.278-.266.229-.715.177-1.055-.655-4.422-7.201-7.76-5.375-13.863.182-.613.026-1.01-.394-1.523-1.924-2.34-7.064-5.867-6.572-9.279.137-.93 1.29-1.457 1.423-2.221.084-.457-.559-1.041-.86-1.342-.576-.551-1.118-1.148-1.676-1.723-.655-.688-1.32-1.381-1.954-2.088-1.24-1.365-2.432-2.766-3.515-4.266-.602-.84-1.372-1.789-1.661-2.842-.372-1.393.412-2.354-1.029-3.148-1.868-1.027-4.169-1-6.19-1.551-2.44-.664-4.848-1.471-7.302-2.1-5.947-1.529-12.205-2.74-18.354-3.023-4.264-.203-9.432.482-12.923 3.098-3.173 2.381-5.053 6.146-6.062 9.887-.545 2.039-1.019 4.289-1.095 6.4-.111 2.705.124 5.164.713 7.461z" fill="#757f3f"/><g><path d="M13.95 85.797c-.549.266-1.125.59-1.539.975-3.278 2.113-6.318 4.67-8.867 7.701-.198.266-.566.484-.517.859.069.568.833.98 1.077 1.508.238.625.189 1.17.088 1.729-.327 1.498-1.321 2.777-2.069 4.059-.541.928-1.387 1.742-1.692 2.801-.311 1.293 1.312 2.561 1.613 3.94.934 4.516-2.106 8.258-1.503 12.59.071.572.075 1.078.785 1.348 1.209.412 2.725-.137 3.854-.355a34.508 34.508 0 0 1 6.843-1.062c2.246-.121 4.439.598 6.519.559.491-.02.815-.133 1.21-.406.634-.453 1.378-.795 1.963-1.27.407-.354.611-.807 1.108-1.045 1.253-.799 2.885-1.205 4.317-1.197.455.027.903-.049 1.312.045 1.053.146 1.422.523 2.255-.088.691-.414 1.086-1.223 1.63-1.766 1.906-1.709 4.242-2.481 6.729-2.117 1.435.252 4.298-3.178 5.086-4.26 2.394-3.354 3.458-7.586 2.837-12.217-.576-5.248-4.006-10.166-8.651-12.59-8.07-4.183-17.004-3.89-24.388.259z" fill="#757f3f"/></g><g><g><path d="M2.177 41.256s.558-6.688 5.286-10.711c4.728-4.014 9.63-10.102 22.56-13.922 6.705-1.982 10.98-.23 12.426-1.348 0 0 7.4-6.045 11.053-7.551 3.66-1.504 14.376-5.035 28.467-1.959 7.019 1.533 11.664 6.346 15.336 11.645 3.702 5.344 3.929 10.148 4.136 15.51 0 0 13.854 8.686 16.477 11.496 6.107 6.523 5.122 11.717-.426 24.957-4.396 10.484-3.606 18.062-12.62 30.746-9.004 12.674-21.368 17.686-25.038 17.639-7.294-.09-9.43-.701-11.619.145-2.185.848-9.337 5.332-17.202 4.561-7.871-.768-19.845-6.168-24.312-15.719 0 0-.238-1.998-3.987-3.584-3.74-1.596-21.343-11.088-21.604-21.156C.855 71.936 4.312 68.248 3.918 64.42c-.398-3.828-4.36-7.27-1.741-23.164z" fill="#ed6c30"/></g><g fill="#a03302"><path d="M33.325 26.312c-1.476.582-16.552 7.068-18.466 14.684-1.702 6.814-.351 12.957 6.488 18.258.797.619 2.09 1.654 4.555 2.666 0 0 1.87.947 1.073-1.924-.79-2.871-2.678-6.744-2.297-12.982.382-6.24 4.175-12.002 5.212-13.516.709-1.029 2.561-3.697 3.882-5.098 1.604-1.701 1.029-2.668-.447-2.088z"/><path d="M52.96 31.75s1.778.914-.155 1.861c-1.926.953-10.333 4.785-14.53 13.445 0 0-1.479 2.119-2.193 1.861-.713-.262-.594-1.533-.159-3.191 0 0 2.153-10.174 5.65-12.469 3.496-2.296 8.316-2.056 11.387-1.507z"/><path d="M45.977 48.564c-.191.469-.327 1.443 1.108 1.033 1.437-.414 7.755-2.643 11.225-.395 3.142 2.029 4.781 4.82 4.764 6.301-.018 1.479 1.391 1.896 2.336.178 0 0 4.711-9.83-2.057-14.389-1.765-1.193-5.579-.988-9.199.602-3.94 1.729-7.398 4.799-8.177 6.67z"/><path d="M46.729 54.289s-.31 1.557 2.376 2.279c1.852.504 3.407.588 4.667.297 2.831-.652 2.711.172 2.592.73-.133.678-.551 1.604-1.577 2.551-.745.684-2.146 1.348-4.529 1.844 0 0-6.931.955-9.015-3.092-1.399-2.721.682-4.406 4.086-5.461.896-.283 1.641-.21 1.4.852z"/><path d="M45.14 67.389s-2.266-1.498-1.419.42c.847 1.916 3.049 4.703 9.595 7.459 3.51 1.479 5.405 1.506 7.179 1.459.762-.023 6.496 1.244 7.729-13.203.178-1.998-1.316-2.525-2.021-.965-.337.727-3.368 5.477-6.522 6.887-3.636 1.63-10.513-.401-14.541-2.057z"/><path d="M74.985 41.117s-.408-2.135 1.875-.992c2.281 1.145 8.236 4.557 8.654 10.725.335 4.875-1.773 9.342-4.387 12.428-.692.814-2.97 3.217-4.85 3.871 0 0-1.408.223-.917-1.275.209-.648 1.111-2.119 1.95-3.988 3.877-8.633 1.028-14.234-.004-16.201-1.032-1.978-2.321-4.568-2.321-4.568z"/><path d="M59.018 18.434s-6.925.537-7.298 2.885c-.376 2.35 4.795 2.279 5.886 2.482 1.089.213 6.328 1.256 8.906 5.105 2.593 3.855 6.994 1.666 11.248 2.684 4.249 1.02 8.216 4.256 9.367 4.899 1.144.637 3.218-.121 1.166-3.303-2.212-3.43-5.375-7.346-10.379-10.283-4.541-2.667-10.618-4.528-18.896-4.469z"/><path d="M92.569 53.801c.43-.238 1.01-.176 1.582 1.029 1.144 2.41 3.031 9.307-1.219 16.197-2.57 4.17-6.159 5.66-9.993 7.592-5.902 2.959-11.647 4.199-13.299 4.346 0 0-3.416.217-.66-1.848 1.342-1.002 10.969-5.065 16.597-11.814 2.728-3.273 4.422-6.717 4.865-8.48 1.382-5.452 1.693-6.782 2.127-7.022z"/><path d="M108.871 60.393c.502 9.902-2.916 17.861-8.449 23.145 0 0-1.533.539-.903-1.525.627-2.064 2.906-10.777 3.385-18.336.39-6.143-1.112-13.902-1.693-16.6-.066-.316.005-1.627.488-1.713.505-.078 2.264.977 3.811 3.52 1.683 2.755 3.144 7.177 3.361 11.509z"/><path d="M94.501 81.941c.005 1.373-.088 5.078-4.697 10.67-4.618 5.602-15.695 11.127-26.252 10.76-10.56-.371-18.501-3.199-19.241-4.023-.744-.824.035-1.387 1.17-1.314 1.134.074 15.59.721 24.452-1.469 6.471-1.596 13.738-5.309 18.901-9.891 1.688-1.488 3.15-3.074 4.294-4.715.159-.221 1.365-2.029 1.373-.018z"/><path d="M15.648 69.803s.121-1.125.993-1.275c.872-.146 2.029 1.307 2.029 1.307s3.031 5.221 10.14 10.131c7.64 5.281 15.431 5.168 15.431 5.168s1.223.234.407 1.48c-.816 1.24-3.652 3.207-8.242 3.225-4.592.018-10.849-1.906-13.503-4.537-2.656-2.642-6.333-5.753-7.255-15.499z"/></g></g></g></svg>