<svg id="レイヤー_1" xmlns="http://www.w3.org/2000/svg" viewBox="0 0 128 128"><g><path d="M127.096 39.565c-2.101-9.268-10.819-20.46-24.421-22.963-14.449-2.655-28.626 2.619-36.465 18.365-2.11 4.241-3.325 8.362-4.02 11.857-4.37-7.294-12.767-17.331-26.355-18.686-19.338-1.926-30.703 9.345-33.894 18.664-4.367 12.733-.345 23.182 9.022 24.568 9.368 1.386 16.022-4.456 22.07-7.642 8.756-4.613 23.66-4.988 26.803 3.79.442 2.333.835 4.667 1.148 7.007 1.22 9.096.165 17.994-2.682 26.866a56.473 56.473 0 0 1-3.576 8.622c-1.966 3.794-3.945 6.204-2.243 8.294 1.448 1.77 4.215 2.396 6.713 2.396 7.88 0 9.207-3.696 9.207-3.696s9.913-16.729 1.81-48.989l.062.081c-2.141-11.424 11.348-13.704 15.191-13.796 7.74-.175 19.589 2.542 27.022 3.5 16.828 2.17 16.127-11.507 14.608-18.238z" fill="#757f3f"/><g fill="#bdcf46"><path d="M26.929 45.629a28.765 28.765 0 0 1 2.977-4.106c1.17-1.363 3.825-2.8 3.934-4.783.147-2.662-4.014-2.388-5.65-2.273a28.434 28.434 0 0 0-3.191.396c-1.9.348-3.759.902-5.524 1.673a22.98 22.98 0 0 0-7.929 5.719c-1.604 1.802-2.976 3.898-3.764 6.19-1.828 5.327-1.787 10.364.108 13.472 1.054 1.73 2.624 2.76 4.67 3.063 8.568 1.268 10.365-8.282 12.376-14.527.526-1.633 1.112-3.341 1.993-4.824z"/><path d="M72.628 37.202c-.492 1.73-.64 3.621.264 4.905.652.922 2.342 1.399 3.428 1.133 3.221-.787 5.515-5.144 7.11-7.736 1.243-2.017 2.824-3.947 4.482-5.639 1.043-1.064 2.419-2.271 2.776-3.781.661-2.793-3.603-1.684-4.862-1.367-4.925 1.24-9.637 5.148-12.022 9.604a14.854 14.854 0 0 0-1.176 2.881z"/></g></g></svg>