<svg id="レイヤー_1" xmlns="http://www.w3.org/2000/svg" viewBox="0 0 128 128"><g><path d="M16.505 54.379c.22-.126.49-.126.829.073.651.375.901 2.002 1.017 2.681.308 1.84.495 3.691.699 5.548.553 5.089.614 11.138 4.651 14.913 2.461 2.283 5.85 2.951 9.093 3.077.772.03 4.835-.304 7.655-.449 1.533-.083 2.712-.104 2.743.01.261.897.792 1.92-.197 2.41-.616.302-1.305.5-2.013.646-2.201.458-4.736.302-6.79.312-3.671.042-7.416-.406-10.795-1.918-7.76-3.484-7.956-13.037-7.873-20.295.011-1.335-.479-6.152.981-7.008z" fill="#fff"/><path d="M42.461 91.663a36.054 36.054 0 0 1-3.514.418c-2.586.209-5.172.396-7.77.239-4.432-.261-9.053-.251-13.14-2.222-1.825-.886-3.432-2.179-4.777-3.692-2.586-2.939-4.244-6.611-5.364-10.323-1.31-4.35-1.925-8.906-1.728-13.443.063-1.314.156-2.681.377-4.016.239-1.407.605-2.795 1.198-4.057.397-.845 1.345-1.971 2.336-2.138 1.783-.292.177 4.193.053 4.911a39.21 39.21 0 0 0-.354 9.679c.34 3.682 1.221 7.321 2.654 10.731 1.782 4.234 4.761 8.094 9.12 9.865 5.224 2.128 10.929 1.727 16.426 1.585.301-.01 2.471-.124 4.025-.104.87.011 1.553.062 1.585.198.156.657.49 1.449.345 2.117-.49.117-.981.179-1.472.252z" fill="#fff"/><path d="M55.771 121.084c-.894-.47-1.069-1.92-1.306-2.774-1.333-4.839-4.172-23.36-4.172-23.36a787.404 787.404 0 0 1-1.625-12.516c-1.794-14.413-3.703-28.909-4.955-43.301-.886-10.158-.668-22.276 4.856-31.193.578-.928 2.038-3.17 3.426-2.639l.484.501c.256.751-.129 1.555-.437 2.222-1.122 2.503-1.737 5.308-2.362 7.968-3.004 12.566-1.137 25.374-.219 38.076 1.167 16.185 7.883 63.907 7.883 63.907.157 1.011.439 4.16-1.573 3.109z" fill="#fff"/><path d="M65.146 121.02c-.97-.417-.887-1.324-1.003-2.211-1.188-9.583-1.699-19.251-2.638-28.867a677.936 677.936 0 0 1-1.261-14.924 1294.495 1294.495 0 0 1-2.879-54.001 138.115 138.115 0 0 1-.042-5.068c0-2.681.115-5.642.49-8.312.146-1.022.24-1.627 1.341-1.898 1.704-.406 2.164 1.544 2.503 2.795 1.799 6.686 1.6 14.163 1.684 21.036.218 17.499.49 35.019 1.605 52.499.752 11.597 1.592 23.236 1.941 34.864.03 1.011.219 4.911-1.741 4.087z" fill="#fff"/><path d="M78.453 79.169c-.345 12.202-.282 24.518-2.055 36.615-.126.887-.126 2.346-.949 2.921-1.866 1.293-1.972-1.868-1.939-2.89 0 0 2.043-47.264 1.21-63.47-.658-12.713-.527-23.851-5.883-36.783-1.049-2.524-1.908-5.256-3.337-7.613-.381-.625-.866-1.371-.699-2.148l.417-.552c1.304-.699 3.035 1.345 3.724 2.19 6.581 8.166 9.527 19.93 9.897 33.278.396 14.195.02 24.258-.386 38.452z" fill="#fff"/><path d="M83.89 60.208c.027-.051.038-.136.069-.187.271-.501 1.063-.897 1.533-1.158.167-.094.354-.188.521-.271 5.98-3.254 14.262-5.778 17.301-12.338 1.742-3.786 1.075-8.594 1.158-12.755.104-5.432-.22-10.794.417-16.207.098-.854 1.157-9.625 3.213-7.727 1.063.979.364 3.273.26 4.536-.172 2.038-.198 4.078-.177 6.121.031 3.963.275 7.917.193 11.879-.048 2.023.046 4.036.046 6.049 0 8.01-2.617 14.038-9.99 17.688-3.661 1.804-6.889 3.931-10.722 5.442-.484.188-1.142.501-1.793.694-.563.161-1.132.256-1.585.058-.281-.115-.428-.397-.501-.71a2.176 2.176 0 0 1 .057-1.114z" fill="#fff"/><path d="M119.85 32.572c-.338 7.363-.328 15.06-3.623 21.839-1.764 3.619-4.563 6.122-7.687 8.552-5.58 4.358-12.119 7.186-18.563 9.971-.929.396-3.087 1.522-4.526 1.512-.856 0-1.465-.407-1.407-1.597.031-.761.416-1.479 1.105-1.824.156-.073.322-.146.479-.219.74-.354 1.513-.678 2.252-1.054 2.242-1.157 4.546-2.2 6.821-3.296 5.401-2.606 11.492-5.579 15.351-10.323l.261-.324a23.92 23.92 0 0 0 1.782-2.68c2.222-3.901 3.244-8.343 3.661-12.775.594-6.269.854-12.703.364-18.981-.166-2.211-.438-4.411-.906-6.58-.105-.459-.262-.96-.433-1.471-.412-1.263-.897-2.629-.769-3.774.095-.825.522-1.607 1.451-1.325 3.421 1.001 4.026 8.176 4.328 10.981.481 4.441.263 8.915.059 13.368z" fill="#fff"/><g><path d="M127.177 13.509c-1.429-6.988-6.446-12.494-14.632-12.516-6.398-.021-12.316 4.088-14.08 9.355-1.907 5.642-.708 14.642-.668 20.461.033 4.066.518 7.321-1.021 11.211-1.23 3.118-3.691 5.424-6.362 7.331-1.387.991-2.778 1.95-4.182 2.9C87.097 27.733 87.447.397 60.828.586 31.216.795 33.368 31.383 35.611 49.55c.739 6.027 2.168 15.007 3.743 24.325-1.751.036-3.41.151-4.108.067-1.848-.219-3.775-.792-5.105-2.138-1.602-1.617-1.497-3.535-2.134-5.56-1.419-4.463-1.836-9.249-4.39-13.296-1.544-2.461-3.756-4.089-6.54-4.954l-.114-.036C7.974 45.483 1.331 53.3.435 61.607c-.699 6.602.803 13.891 3.633 19.835 2.258 4.756 5.137 9.992 9.71 12.87 8.422 5.297 20.217 4.077 29.687 2.909.104.605.214 1.21.323 1.783 1.47 8.114 1.762 17.614 4.422 20.899 2.867 3.547 9.396 7.51 16.473 7.51 8.212 0 13.291-3.839 15.915-8.939 1.726-3.368 2.664-13.516 3.128-19.209.38-4.568.819-10.347 1.214-16.29 5.038-2.118 17.156-7.354 25.761-12.005 11.097-6.006 13.682-16.57 14.85-23.319 1.167-6.746 3.158-26.675 1.626-34.142zM16.505 54.379c.22-.126.49-.126.829.073.651.375.901 2.002 1.017 2.681.308 1.84.495 3.691.699 5.548.553 5.089.614 11.138 4.651 14.913 2.461 2.283 5.85 2.951 9.093 3.077.772.03 4.835-.304 7.655-.449 1.533-.083 2.712-.104 2.743.01.261.897.792 1.92-.197 2.41-.616.302-1.305.5-2.013.646-2.201.458-4.736.302-6.79.312-3.671.042-7.416-.406-10.795-1.918-7.76-3.484-7.956-13.037-7.873-20.295.011-1.335-.479-6.152.981-7.008zm25.956 37.284a36.054 36.054 0 0 1-3.514.418c-2.586.209-5.172.396-7.77.239-4.432-.261-9.053-.251-13.14-2.222-1.825-.886-3.432-2.179-4.777-3.692-2.586-2.939-4.244-6.611-5.364-10.323-1.31-4.35-1.925-8.906-1.728-13.443.063-1.314.156-2.681.377-4.016.239-1.407.605-2.795 1.198-4.057.397-.845 1.345-1.971 2.336-2.138 1.783-.292.177 4.193.053 4.911a39.21 39.21 0 0 0-.354 9.679c.34 3.682 1.221 7.321 2.654 10.731 1.782 4.234 4.761 8.094 9.12 9.865 5.224 2.128 10.929 1.727 16.426 1.585.301-.01 2.471-.124 4.025-.104.87.011 1.553.062 1.585.198.156.657.49 1.449.345 2.117-.49.117-.981.179-1.472.252zm13.31 29.421c-.894-.47-1.069-1.92-1.306-2.774-1.333-4.839-4.172-23.36-4.172-23.36a787.404 787.404 0 0 1-1.625-12.516c-1.794-14.413-3.703-28.909-4.955-43.301-.886-10.158-.668-22.276 4.856-31.193.578-.928 2.038-3.17 3.426-2.639l.484.501c.256.751-.129 1.555-.437 2.222-1.122 2.503-1.737 5.308-2.362 7.968-3.004 12.566-1.137 25.374-.219 38.076 1.167 16.185 7.883 63.907 7.883 63.907.157 1.011.439 4.16-1.573 3.109zm9.375-.064c-.97-.417-.887-1.324-1.003-2.211-1.188-9.583-1.699-19.251-2.638-28.867a677.936 677.936 0 0 1-1.261-14.924 1294.495 1294.495 0 0 1-2.879-54.001 138.115 138.115 0 0 1-.042-5.068c0-2.681.115-5.642.49-8.312.146-1.022.24-1.627 1.341-1.898 1.704-.406 2.164 1.544 2.503 2.795 1.799 6.686 1.6 14.163 1.684 21.036.218 17.499.49 35.019 1.605 52.499.752 11.597 1.592 23.236 1.941 34.864.03 1.011.219 4.911-1.741 4.087zm13.307-41.851c-.345 12.202-.282 24.518-2.055 36.615-.126.887-.126 2.346-.949 2.921-1.866 1.293-1.972-1.868-1.939-2.89 0 0 2.043-47.264 1.21-63.47-.658-12.713-.527-23.851-5.883-36.783-1.049-2.524-1.908-5.256-3.337-7.613-.381-.625-.866-1.371-.699-2.148l.417-.552c1.304-.699 3.035 1.345 3.724 2.19 6.581 8.166 9.527 19.93 9.897 33.278.396 14.195.02 24.258-.386 38.452zm5.437-18.961c.027-.051.038-.136.069-.187.271-.501 1.063-.897 1.533-1.158.167-.094.354-.188.521-.271 5.98-3.254 14.262-5.778 17.301-12.338 1.742-3.786 1.075-8.594 1.158-12.755.104-5.432-.22-10.794.417-16.207.098-.854 1.157-9.625 3.213-7.727 1.063.979.364 3.273.26 4.536-.172 2.038-.198 4.078-.177 6.121.031 3.963.275 7.917.193 11.879-.048 2.023.046 4.036.046 6.049 0 8.01-2.617 14.038-9.99 17.688-3.661 1.804-6.889 3.931-10.722 5.442-.484.188-1.142.501-1.793.694-.563.161-1.132.256-1.585.058-.281-.115-.428-.397-.501-.71a2.176 2.176 0 0 1 .057-1.114zm35.96-27.636c-.338 7.363-.328 15.06-3.623 21.839-1.764 3.619-4.563 6.122-7.687 8.552-5.58 4.358-12.119 7.186-18.563 9.971-.929.396-3.087 1.522-4.526 1.512-.856 0-1.465-.407-1.407-1.597.031-.761.416-1.479 1.105-1.824.156-.073.322-.146.479-.219.74-.354 1.513-.678 2.252-1.054 2.242-1.157 4.546-2.2 6.821-3.296 5.401-2.606 11.492-5.579 15.351-10.323l.261-.324a23.92 23.92 0 0 0 1.782-2.68c2.222-3.901 3.244-8.343 3.661-12.775.594-6.269.854-12.703.364-18.981-.166-2.211-.438-4.411-.906-6.58-.105-.459-.262-.96-.433-1.471-.412-1.263-.897-2.629-.769-3.774.095-.825.522-1.607 1.451-1.325 3.421 1.001 4.026 8.176 4.328 10.981.481 4.441.263 8.915.059 13.368z" fill="#757f3f"/></g></g></svg>