<svg id="レイヤー_1" xmlns="http://www.w3.org/2000/svg" viewBox="0 0 128 128"><g><path d="M105.47 89.032c-12.507-4.958-25.744-6.654-38.541-5.098-4.534.558-8.419 1.846-11.542 3.541a18.44 18.44 0 0 0-1.456.73c-3.335 1.76-6.211 4.303-9.802 5.612-3.117 1.138-6.518 1.396-9.514 2.865-.368.183-.9.279-1.033-.289-.119-.515 2.857-4.679 3.154-5.108a95.696 95.696 0 0 1 2.093-2.897c2.95-3.928 6.658-7.759 11.122-7.78.741-.011 2.565.183 3.305.172h2.104l.026-.011c9.127-.182 20.971-5.623 31.566-13.554 10.249-7.673 21.833-21.72 29.672-32.108 8.333-11.042 11.617-19.188 10.93-22.031-.871-3.691-10.93-2.833-10.93-2.833s-2.259 0-5.993.354c-12.411 1.159-41.208 6.17-58.362 27.805-8.526 10.752-12.379 21.806-11.552 29.929v.043c.214 2.157.472 3.595.472 4.282-.017 4.615-2.763 7.995-5.692 11.515-1.176 1.406-2.485 3.091-4.605 5.902-.553.741-1.33 1.996-1.717 1.921-.59-.118-.992-1.61-.558-4.443.149-.988.354-2.457 1.411-4.175 1.614-2.597 2.902-4.593 3.38-5.612.069-.129.079-.215.118-.333 1.749-3.413 2.951-7.748 3.155-12.834.509-12.867-2.308-25.906-8.365-37.978C24.921 19.836 17.135 7.42 11.404 7.431c-3.937 0-9.652 14.863-10.606 29.705-.366 5.795-.778 12.32 0 19.22 1.845 16.44 6.888 27.386 16.467 29.211.026 0 .026.032.026.032 2.968.548 4.582 2.694 5.377 5.269.68 2.168.798 4.465.557 6.708-.498 4.711-2.445 9.186-4.625 13.35a121.503 121.503 0 0 1-1.92 3.509c-.901 1.578-2.265 2.876-2.951 4.593-.73 1.835.332 3.316 1.877 4.26.736.451 1.546.783 2.351 1.084 1.862.697 4.668 1.277 6.343-.15 1.636-1.395 1.486-3.799 1.894-5.73.457-2.179 1.299-4.26 2.185-6.299 1.486-3.456 3.556-6.728 6.508-9.11 1.895-1.524 4.335-2.415 6.766-2.318 2.736.118 4.244 2.092 5.484 4.303.386.719.794 1.384 1.216 2.007 3.71 7.598 14.42 11.01 29.497 11.439 6.942.193 13.425-.73 19.198-1.578 14.734-2.157 27.815-6.964 28.6-10.763 1.155-5.53-13.149-14.351-20.178-17.141z" fill="#757f3f"/><path d="M46.855 59.666c1.004-7.113 6.138-16.739 19.284-27.901 1.884-1.599 3.928-3.029 5.987-4.378a67.555 67.555 0 0 1 4.239-2.554c.742-.408 1.557-1.054 2.426-1.323 2.543-.786-.193 2.42-.655 2.983-6.34 7.7-13.314 14.852-18.661 23.332-1.513 2.388-2.876 4.869-4.014 7.453-1.438 3.252-2.532 6.632-3.745 9.967-.402 1.108-.773 2.957-1.718 3.753-2.317 1.943-3.331-3.361-3.42-4.59-.168-2.189-.023-4.572.277-6.742z" fill="#bdcf46"/><path d="M9.511 17.696c-.729 1.717-1.084 3.731-1.524 5.328-1.534 5.609-2.402 11.399-2.682 17.205A92.624 92.624 0 0 0 5.411 51.7c.064.861.682 9.374 1.867 8.894.923-.373.387-3.217.387-4.016-.064-10.018 1.959-19.963 4.433-29.672.682-2.662 1.255-5.326 1.147-8.089-.042-.96-.075-2.605-.74-3.361-1.245-1.43-2.533 1.167-2.994 2.24z" fill="#bdcf46"/><path d="M54.539 97.164c-.729-1.808 4.947-5.258 6.09-5.905 3.375-1.91 7.179-2.84 11.021-3.316 6.283-.775 10.747.188 11.67.319 5.146.738 3.66 1.653.525 2.206-1.475.26-14.61 2.194-26.05 6.27-.529.187-2.987 1.097-3.256.426z" fill="#bdcf46"/></g></svg>