<svg id="レイヤー_1" xmlns="http://www.w3.org/2000/svg" xmlns:xlink="http://www.w3.org/1999/xlink" viewBox="0 0 128 128"><g><g><path d="M73.503 16.08c-6.736 4.466-13.022 9.577-17.717 13.825-13.791 12.417-21.625 25.048-25.383 41.298-.926 4.893-1.679 9.324-1.6 14.002-.174 3.548.91 5.069 2.968 7.566 14.75 18.371 39.037-.079 54.019-14.712 11.61-11.22 38.562-45.933 31.172-62.761-7.327-16.91-26.846-9.98-43.459.782z" fill="#f79329"/><g fill="#fcc21b"><path d="M55.259 27.724a29.738 29.738 0 0 0-1.81-2.017c-3.201-3.229-8.786.469-10.737 3.314-1.98 2.882-2.391 6.074-.738 9.217 1.938 3.698 5.949 7.607 10.464 7.104 3.738-.417 8.085-4.717 7.554-8.67-.375-2.824-2.574-6.319-4.733-8.948z"/><path d="M55.822 30.547c1.464 2.071 3.669 6.162 6.459 6.009 1.49-.069 2.774-1.325 3.732-2.359 1.647-1.795 3.49-3.29 5.174-5.069.689-.734.652-1.416.253-2.45-1.396-3.677-4.411-8.704-8.196-9.909-.853-.272-1.79-.321-2.842-.061-1.547.371-2.996 1.169-4.238 2.216-1.146.979-1.884 2.008-2.315 3.587-.337 1.208-.568 2.827-.253 4.108.358 1.402 1.416 2.778 2.226 3.928z"/><path d="M70.855 25.076c3.091 1.687 6.249-1.624 8.48-3.345 2.289-1.771 5.358-2.908 3.959-6.487-.922-2.396-3.001-4.867-5.127-6.212l-.295-.187c-2.043-1.103-4.338-.44-6.395.197-3.027.937-5.617 3.58-5.563 7.027.03 1.879 1.052 3.64 1.958 5.227.736 1.298 1.647 3.056 2.983 3.78z"/><path d="M84.353 16.367c1.942.148 3.242-1.234 4.754-2.147 1.869-1.132 3.942-1.938 5.795-3.143 2.253-1.484 1.216-4.35-.385-6.156l-.115-.132c-.59-.639-1.043-.939-1.821-1.242-2.273-.895-4.338-.808-6.685-.395-2.122.367-4.57 1.237-5.496 3.406-1.031 2.385-.017 5.387 1.332 7.461.589.892 1.499 2.261 2.621 2.348z"/><path d="M102.544 9.731c2.99-1.069 4.375-3.126 2.995-6.177-.507-1.116-1.553-1.971-2.601-2.56-1.479-.821-4.242-.469-5.795-.095-2.342.561-3.995 2.977-2.873 5.356.752 1.595 1.235 2.356 2.726 3.337.743.482 1.284.605 2.206.665.999.064 2.206-.118 3.342-.526z"/><path d="M29.666 42.417c.643-4.164 5.58-7.438 9.649-7.125 3.758.29 4.326 3.746 6.565 5.978 4.236 4.234 2.552 11.636-2.483 14.149-8.019 3.993-14.804-5.998-13.731-13.002z"/></g><g><path d="M33.151 49.668c3.074 1.461 6.885-.7 9.143-2.684 1.121-.989 1.471-1.656 1.996-3.027.414-1.105.22-1.979.335-3.121 1.284-.205 2.507-.032 3.771-.421 1.272-.403 2.662-.979 3.773-1.79 1.215-.894 2.326-1.874 2.994-3.305.643-1.393.769-2.622 1.012-4.064.121-.729-.063-.914.684-1.145.616-.189 1.395.073 2.021-.042 1.521-.269 3.079-1.282 4.442-1.989 2.368-1.248 4.254-3.514 4.812-6.117.573-.237 1.731.137 2.433.119 1.136-.026 1.904-.39 2.884-.923 2.169-1.177 4.11-2.514 5.201-4.706.367-.747.632-1.442.895-2.263.353-1.08.353-1.703 1.521-1.84 1.911-.218 3.907.182 5.722-.442 1.827-.621 3.654-2 4.948-3.458.506-.547.959-1.374 1.574-1.79.811-.547 1.753-.179 2.647-.076 1.084.124 2.464.287 3.601.082.922-.158 2-.887 2.875-1.267 1.036-.442 1.473-1.463 2.42-1.876.991-.43 1.79.479 2.338 1.284 3.602 5.251-3.627 11.509-7.101 14.644-5.659 5.106-12.396 8.931-18.871 12.896-3.243 1.985-6.369 4.222-9.538 6.314-3.901 2.574-7.648 5.411-11.26 8.377-4.242 3.488-8.99 6.456-13.064 10.136a27.498 27.498 0 0 1-7.17 4.704c-1.721.784-4.108 1.45-5.073-.619-.606-1.292-1.18-2.613-1.795-3.901-.505-1.058-.45-2.021-.485-3.187l.315-4.503z" fill="#f79329"/></g><g><defs><path id="SVGID_1_" d="M109.867 7.769c-1.549-1.774-3.096-2.827-5.486-2.688-1.609.092-3.516.3-4.568 1.682-.854 1.11-1.647 2.919-1.495 4.359a24.847 24.847 0 0 0-2.348-1.461c-1.205-.661-2.485-.593-4.064-.108-3.601 1.11-7.121 4.777-5.795 8.794.211.626.392 1.105.568 1.619-1.19-.908-1.927-1.711-3.459-2.114-2.595-.676-5.274-.321-7.838 1.963-2.932 2.64-3.143 5.533-1.815 8.425-.09-.045-.169-.113-.258-.16-1.175-.616-2.459-.969-3.738-.853-1.637.142-3.295 1.105-4.963 3.305-1.954 2.585-2.158 5.641-1.285 8.491-.925-.595-1.873-1.098-2.831-1.371-1.396-.398-2.906-.026-4.265.397-3.474 1.082-5.759 3.882-5.437 7.601.115 1.361.546 2.787 1.163 4.156-.848-.516-1.706-.96-2.569-1.206-1.4-.4-2.9-.026-4.264.397-3.474 1.084-5.759 3.872-5.432 7.601.094 1.127.432 2.303.878 3.456-.457-.218-.92-.426-1.382-.561-1.397-.397-2.907-.027-4.263.397-3.488 1.082-5.768 3.875-5.445 7.604.089 1.122.425 2.293.873 3.446a9.826 9.826 0 0 0-3.105.453c-3.464 1.084-5.758 3.882-5.438 7.601.271 3.14 2.016 6.727 4.574 8.822 1.737 1.415 4.021 2.492 6.054 3.395 3.362 1.487 7.427.087 9.622-2.659 2.274-2.831 2.116-5.663.479-8.285 2.722.168 5.501-1.113 7.18-3.216 2.28-2.832 2.111-5.669.474-8.291.037.013.079.034.111.05 3.363 1.49 7.422.084 9.622-2.655 2.485-3.093 2.074-6.186.006-9.004.494.237 1.005.5 1.483.716 3.359 1.485 7.417.084 9.629-2.658 2.021-2.524 2.095-5.04.952-7.417 1.621.442 3.3.458 4.938-.147 1.179-.439 2.316-1.185 3.363-2.3 2.632-2.795 2.568-5.97 1.248-8.907.458.176.859.352 1.459.529 5.77 1.745 12.585-5.387 8.601-10.765-.104-.137-.168-.245-.268-.376.058.037.089.068.142.103 3.989 2.353 9.223 1.884 11.664-2.337 1.111-1.964 1.209-3.819.748-5.544 2.138.792 4.569.65 6.548-.863 3.305-2.534 1.706-6.817-.568-9.416z"/></defs><use xlink:href="#SVGID_1_" overflow="visible" fill="#fcc21b"/><clipPath id="SVGID_2_"><use xlink:href="#SVGID_1_" overflow="visible"/></clipPath><g clip-path="url(#SVGID_2_)"><path d="M39.278 76.648c1.158.687 2.652-.524 3.474-1.192 1.105-.9 2-1.916 2.696-3.19.553-1.021 1.106-2.329 1.168-3.439.067-1.279-.062-2.609.158-3.861 1.3-.239 2.716-.002 4-.366 1.721-.5 3.29-1.574 4.559-2.83 1.042-1.011 2.137-1.863 2.358-3.361.168-1.224-.326-2.863.147-3.993 1.379-.276 2.822-.287 4.138-.918 1.284-.624 3.357-1.824 4.095-3.087.758-1.3 1.278-2.845 1.41-4.3.063-.588-.016-1.521.253-2.048.337-.642 1.331-.674 1.963-.774 3.111-.492 6.207-2.863 7.48-5.803.295-.679.516-1.364.737-2.064.236-.76.073-1.413.221-2.165.201-1.19 2.517-1.213 3.526-1.74 1.411-.739 2.849-1.563 4.128-2.579 1.547-1.248 2.311-2.758 3.253-4.454.237-.416.047-.481.505-.658.263-.1.727-.036 1.011-.05.779-.04 1.3-.218 2.006-.41 1.669-.448 3.405-1.208 4.953-2.04 1.674-.895 2.811-1.858 3.647-3.566.243-.474.479-1.574.958-1.837.479-.274 1.611-.111 2.174-.145 1.579-.085 2.849-.271 4.201-1.066 1.168-.69 2.132-1.893 2.89-3.014.479-.718.49-1.116 1.39-.718.416.19 1.021.5 1.317.895.81 1.074.663 3.058.699 4.348.043 1.598-.62 3.388-1.61 4.595-.673.827-1.184 1.408-2.063 2.045-1.379.99-2.245 2.274-3.369 3.516a104.792 104.792 0 0 0-4.665 5.525c-2.81 3.553-6.399 6.306-9.679 9.385-1.806 1.703-3.521 3.485-5.279 5.232-1.728 1.713-3.664 3.119-5.496 4.711-3.421 2.974-6.537 6.272-9.959 9.243-4.854 4.206-9.602 8.546-13.954 13.276-1.215 1.316-2.185 2.848-3.385 4.18-1.11 1.242-2.199 2.519-3.316 3.758-1.758 1.966-3.548 3.901-5.453 5.74-.632.608-1.442 1.203-2.242 1.558-1.017.45-1.989 1.069-3.136 1.053-.771-.008-1.35-.366-2.097-.4-.716-.032-1.29.074-1.99-.184-.404-.143-.8-.271-1.053-.653-.42-.616-.216-1.526-.615-2.166l3.846-9.989z" fill="#f79329"/></g></g><g><defs><path id="SVGID_3_" d="M115.23 17.985a7.555 7.555 0 0 1-.294-.082c-4.417-1.443-9.723-6.57-9.997-11.393-.105-1.887 1.619-2.987 3.279-3.256.984-.153 2.553-.232 3.427.071 4.563 1.579 11.207 10.483 5.364 14.344-.579.382-1.135.466-1.779.316z"/></defs><use xlink:href="#SVGID_3_" overflow="visible" fill="#fcc21b"/><clipPath id="SVGID_4_"><use xlink:href="#SVGID_3_" overflow="visible"/></clipPath><path d="M117.114 7.808c-.047.398-.089.85-.109.942-.127.524-.39.848-.759 1.246-.62.671-1.474 1.071-2.358 1.268-.368.082-.716.174-1.095.164-.42-.008-.843-.106-1.253-.053-.14.398.538.872.747 1.167.337.471.643.923.927 1.432.264.471.669.852.905 1.342.221.447.411.866.674 1.282.264.424.496.797.858 1.142.416.389.854.526 1.354.763 1.505.714 2.926-.329 3.674-1.589 1.489-2.511-.399-5.038-1.537-7.222-.285-.564-1.168-2.622-1.948-2.506-.01.001-.043.29-.08.622z" clip-path="url(#SVGID_4_)" fill="#f79329"/></g><g><defs><path id="SVGID_5_" d="M122.121 20.457c-.569-1.048-1.442-2.098-2.543-2.603-3.058-1.393-5.122-.019-6.195 2.958-.399 1.142-.605 2.348-.536 3.343.058.926.179 1.463.662 2.215.211.316.411.571.601.808-.811.072-1.537.448-2.101 1.279-1.215 1.855-2.027 3.917-3.169 5.775-.904 1.524-2.3 2.816-2.163 4.755.026.301.144.58.315.848-2.937-.661-4.066 2.048-5.706 4.146-1.716 2.232-5.037 5.372-3.363 8.472.026.058.079.103.121.158-.591-.279-1.18-.54-1.728-.748-1.031-.403-1.716-.442-2.452.258-1.779 1.661-3.285 3.496-5.085 5.143-1.036.948-2.3 2.232-2.379 3.719-.053.939.389 1.806 1.062 2.609-.399-.114-.799-.271-1.178-.322-3.954-.547-8.275 3.79-8.707 7.522-.189 1.66.221 3.253 1 4.701-4.116-1.469-9.117.342-11.106 4.311-4.021 7.998 5.948 14.818 12.939 13.776 4.185-.629 7.475-5.556 7.164-9.627-.042-.71-.242-1.279-.49-1.798 2.327.469 4.638-.116 6.789-1.577 2.85-1.932 6.571-7.509 3.35-10.717a1.846 1.846 0 0 0-.11-.103 9.615 9.615 0 0 0 3.312-.292c1.572-.437 2.601-1.158 3.59-2.305 1.052-1.235 1.86-2.68 2.229-4.219.271-1.055.224-1.992-.045-2.845-.396-1.242-1.218-2.397-2.258-3.448.947.432 1.937.756 2.958.777 3.458.058 6.116-2.5 7.06-5.53.657-2.061 1.31-4.348.216-6.388l-.18-.306c-.469-.747-1.104-1.471-1.8-2.158 1.442.405 2.952.503 4.273-.063 2.185-.931 3.065-3.369 3.438-5.484.421-2.358.521-4.409-.374-6.693-.211-.576-.484-.966-.826-1.369 1.646-.147 3.079-1.469 3.489-3.177.373-1.559.742-4.315-.074-5.801z"/></defs><use xlink:href="#SVGID_5_" overflow="visible" fill="#fcc21b"/><clipPath id="SVGID_6_"><use xlink:href="#SVGID_5_" overflow="visible"/></clipPath><path d="M120.479 18.459c.247.555.521 1.095.632 1.703.126.734.179 1.555.037 2.292-.227 1.153-1.059 2.587-1.848 3.506-.716.834-2.738 1.376-2.659 2.558.037.645.364 1.122.385 1.842.021.719.115 1.475.063 2.19-.19 2.746-2.469 5.643-4.854 7.093-.447.273-1.316.439-1.632.837-.414.537-.148 1.332.062 1.85.558 1.379.964 2.679.585 4.206-.621 2.489-2.143 5.2-4.358 6.575-1.079.663-2.279 1.184-3.469 1.437-.411.089-1.116.129-1.369.5-.384.555-.031 1.274.058 1.855.385 2.503-.773 5.351-2.502 7.148-1.051 1.09-1.993 2.135-3.451 2.85-.916.442-2.506 1.087-3.49 1.082-.131 1.46-.06 2.8-.615 4.219-.716 1.85-2.495 3.014-4.059 4.113-1.331.932-2.516 1.124-3.995 1.461-.958.221-.717.305-.801 1.24-.042.661-.367 1.292-.668 1.877-1.284 2.521-3.553 4.424-6.033 5.598-1.436.682-2.995 1.21-4.489 1.613-.626.171-1.379.31-2.021.387-.915.111-1.284.029-1.495 1.053-.158.771-.273 1.837.064 2.561.409.879 1.321 1.518 1.904 2.273.568.737.969 1.724 1.758 2.274.927.658 2.391.61 3.485.776 1.5.229 2.969.273 4.49.21 2.979-.121 5.438-1.598 7.775-3.374 5.863-4.472 10.769-10.178 15.049-16.158 1.7-2.377 3.079-5.014 4.532-7.543 1.324-2.277 2.722-4.456 4.023-6.725.952-1.645 1.842-3.332 2.858-4.932 1.084-1.703 2.315-3.672 2.921-5.603.61-1.903 1.642-3.519 2.366-5.375.65-1.645.74-3.374 1.161-5.084.294-1.177.773-2.19.947-3.388.189-1.171.663-2.216.884-3.363.391-2.021.49-4.119.927-6.146.478-2.229 1.073-4.624.731-6.917-.253-1.706-1.947-5.193-4.096-5.08.07.177.132.343.207.509z" clip-path="url(#SVGID_6_)" fill="#f79329"/></g><g><defs><path id="SVGID_7_" d="M116.499 23.515c1.379-1.061 1.568-2.974 1.653-4.583.137-2.387-.933-3.927-2.717-5.464-2.605-2.26-6.896-3.848-9.423-.519-1.495 1.982-1.62 4.412-.815 6.538-1.732-.453-3.596-.352-5.554.787-4.205 2.448-4.663 7.685-2.278 11.66.036.06.073.089.11.15-.138-.092-.253-.166-.384-.266-5.392-3.961-12.502 2.879-10.727 8.654.258.848.516 1.5.771 2.082-3.029-1.466-6.357-1.595-9.231 1.147-1.121 1.061-1.868 2.19-2.295 3.367-.527 1.434-.562 2.913-.258 4.353-2.3-1.014-4.742-.858-7.164 1.105-2.737 2.211-4.117 6.277-2.616 9.633.216.477.479.977.72 1.472-2.819-2.048-5.926-2.445-9.005.044-2.731 2.216-4.105 6.286-2.605 9.644a.639.639 0 0 1 .042.105c-2.622-1.619-5.454-1.769-8.273.521-2.097 1.692-3.369 4.469-3.191 7.185-2.632-1.616-5.459-1.761-8.296.526-2.717 2.208-4.105 6.274-2.601 9.636.91 2.018 2 4.298 3.427 6.027 2.111 2.553 5.706 4.287 8.843 4.535 3.714.305 6.502-2.005 7.575-5.479a9.752 9.752 0 0 0 .432-3.101c1.158.44 2.326.774 3.459.861 3.727.298 6.5-1.995 7.579-5.469.421-1.366.785-2.877.374-4.269-.132-.463-.348-.924-.568-1.385 1.158.442 2.338.782 3.464.872 3.722.297 6.506-2.006 7.579-5.48.401-1.356.769-2.866.369-4.267-.248-.86-.701-1.713-1.222-2.558 1.375.61 2.801 1.039 4.159 1.145 3.727.3 6.516-1.995 7.579-5.48.416-1.358.779-2.879.38-4.269-.216-.732-.575-1.458-.99-2.179 2.706.684 5.565.371 7.976-1.477 2.189-1.673 3.152-3.342 3.278-4.974.126-1.277-.231-2.561-.863-3.741-.174-.329-.411-.666-.62-.997 3.093 1.611 6.184 1.547 8.99-1.602 2.285-2.572 2.61-5.251 1.921-7.838-.404-1.54-1.215-2.264-2.132-3.458.516.179 1.006.355 1.632.561 4.011 1.305 7.675-2.235 8.759-5.837.485-1.577.548-2.861-.12-4.069a22.458 22.458 0 0 0-1.479-2.332c1.428.133 3.23-.661 4.356-1.517z"/></defs><use xlink:href="#SVGID_7_" overflow="visible" fill="#fcc21b"/><clipPath id="SVGID_8_"><use xlink:href="#SVGID_7_" overflow="visible"/></clipPath><g clip-path="url(#SVGID_8_)"><path d="M50.995 90.771c.6-.474 1.237-.216 1.964-.324 1.963-.295 3.458-2.068 4.395-3.688.579-1.005 1.169-2.297 1.254-3.403.099-1.276.004-2.61.252-3.861 1.315-.205 2.726.069 4.012-.266 1.736-.45 3.33-1.485 4.642-2.706 1.053-.984 2.184-1.806 2.437-3.303.2-1.218-.258-2.866.248-3.984 1.389-.245 2.831-.218 4.158-.816 1.295-.586 3.4-1.737 4.159-2.981.799-1.282 1.356-2.813 1.525-4.267.084-.582.021-1.521.307-2.037.357-.637 1.352-.643 1.983-.724 3.121-.414 6.28-2.708 7.616-5.609.322-.671.559-1.35.796-2.042.267-.758.116-1.413.267-2.164.237-1.184 2.564-1.15 3.58-1.65 2.737-1.347 5.779-3.1 6.832-6.188.664-1.963.337-3.806.548-5.83 2.432-.671 5.101-2.211 6.411-4.49.808-1.411 1.29-2.745 1.439-4.309.125-1.358-.065-2.858.093-4.237.053-.381 2.559-1.469 2.961-1.887 1.882-1.969 2.803-6.311.267-8.207.364-.074.81-.016 1.168.084.474.135.947.592 1.368.848.59.361 1.095.939 1.579 1.427.526.532.958 1.205 1.516 1.731.585.547 1.063 1.406 1.105 2.201.053.995.432 1.966.601 2.95.368 2.19.052 4.298-1.195 6.164-.427.647-.952 1.15-1.405 1.784-.548.785-.589 1.614-.773 2.551-.415 2.105-.343 3.96-1.221 6.043-1.377 3.292-3.332 6.172-5.248 9.19-5.312 8.398-12.455 15.62-19.677 22.405-.916.858-1.822 1.584-2.584 2.563-.49.635-.964 1.361-1.5 1.956-2.396 2.645-5.308 4.693-7.971 7.02-2.868 2.521-5.652 5.124-8.322 7.864-1.247 1.282-2.248 2.796-3.49 4.098-1.147 1.21-2.258 2.458-3.399 3.668-1.816 1.926-3.648 3.811-5.605 5.601-.659.594-1.47 1.168-2.28 1.502-1.026.424-2.016 1.013-3.174.971-.763-.026-1.338-.402-2.074-.45-1.411-.097-2.753-.055-3.206-1.561-.411-1.348-.289-2.808-.015-4.171.269-1.324 1.363-2.869 1.974-4.053.461-.889.84-2.657 1.682-3.413z" fill="#f79329"/></g></g></g><g><path d="M15.67 35.906c5.332 6.2 2.047 17.202.626 23.419-1.257 5.511-2.622 10.859-4.294 16.002-5.654 17.336-2.608 29.852-2.422 30.804 3.339-4 8.498-3.147 12.71-5.605 3.976-2.669 7.914-7.332 10.557-11.454 2.958-4.638 3.432-25.051 3.062-30.399-.315-4.522-1.152-13.86-4.579-19.887-1.922-3.375-4.18-6.654-7.581-8.601-2.303-1.321-4.979-2.058-8.011-2.058h-.187c-1.473.016-2.948.079-4.341.453-1.747.474-3.238 1.942-1.958 3.895 1.37 2.078 4.696 1.436 6.418 3.431z" fill="#757f3f"/><g><defs><path id="SVGID_9_" d="M93.99 78.054c-.193-.047-.389-.105-.589-.152-3.833-.885-14.823-2.408-23.387-2.3-15.302.192-30.021 2.905-41.979 9.627-1.114.627-2.324 1.3-3.565 2.021-4.76 2.758-10.007 6.228-12.796 10.712-1.085 1.727-1.8 3.601-1.979 5.647-.158 1.79-.158 3.612-.064 5.448.032.7.129 1.517-.126 2.132-.295.69-.932.705-1.4 1.185-1.143 1.174-2.5 1.737-2.705 3.558l-.01.174c-.051 2.447 2.483 5.311 4.284 7.074 1.21 1.195 2.801 2.769 4.343 3.5 1.061.495 2.011.631 3.121.79l.531.037c2.094 0 2.438-2.005 3.996-2.938.309-.179.6-.242.905-.242.652 0 1.326.294 2.074.399 4.621.648 8.698 1.774 13.013 1.774 1.6 0 3.241-.158 4.947-.553 7.011-1.631 12.948-5.564 18.77-9.606 5.645-3.912 10.818-8.57 16.245-13.202 5.164-4.406 10.886-10.159 18.508-10.159 1.537 0 3.147.231 4.842.757 3.212.984 5.343 2.879 7.896 4.796 1.053.795 2.337 2.426 3.801 2.426.547 0 1.115-.226 1.705-.805 3.19-3.121.627-9.117-1.769-11.938-4.557-5.377-11.695-8.478-18.612-10.162z"/></defs><use xlink:href="#SVGID_9_" overflow="visible" fill="#757f3f"/><clipPath id="SVGID_10_"><use xlink:href="#SVGID_9_" overflow="visible"/></clipPath><path d="M13.527 115.348c2.711.89-.111-6.638 9.56-14.202C34.133 92.502 44.152 87.22 55.491 83.97c15.364-4.406 39-5.609 51.522-.579 2.447.984 7.284 5.432 9.723 6.395.311.127-.585-4.506-.757-4.901-.606-1.363-1.449-2.726-2.681-3.605-.874-.637-1.959-.953-2.864-1.558-1.547-1.038-2.752-2.385-4.505-3.153-7.686-3.379-15.613-6.606-24.035-7.496-3.859-.406-7.822.4-11.686.821-4.21.453-8.401 1.042-12.601 1.621-7.307 1.016-14.966 2.559-22.098 4.496-7.549 2.053-16.508 3.363-21.276 9.578-15.076 19.653-1.095 29.633-.706 29.759z" clip-path="url(#SVGID_10_)" fill="#bdcf46"/></g></g></g></svg>