<svg id="レイヤー_1" xmlns="http://www.w3.org/2000/svg" xmlns:xlink="http://www.w3.org/1999/xlink" viewBox="0 0 128 128"><path d="M120.742 54.441c.042 1.581-.005 5.589-4.037 14.847-5.205 11.952-11.171 19.896-14.977 23.702-3.956 4.777-16.122 18.159-36.465 22.14-4.689.918-27.317 5.422-43.498-8.335C19.6 104.954 10.873 97.319 10 86c-.361-4.685.561-10.797 2.909-11.33 2.767-.628 4.206 7.233 11.981 12.85.969.7 9.587 6.745 20.316 4.688 9.763-1.872 15.27-9.3 17.451-12.242 4.927-6.645 6.589-13.822 8.335-21.358 2.006-8.657 2.176-15.463 7.814-21.358 1.06-1.108 2.063-2.14 3.733-3.039 5.689-3.061 12.011-.759 20.837 2.605 8.464 3.225 13.656 5.293 16.062 10.592 1.187 2.61 1.25 5.023 1.304 7.033z" fill="#de5323"/><path d="M82.844 33.799c1.981-1.034 5.011-2.25 9.442-2.214a34.33 34.33 0 0 1 3.33.188c1.104.115 5.301-2.335 6.199-3.771.82-1.312 1.522-2.698 2.322-4.165.977-1.791 2.521-4.872 2.698-6.62.369-3.661-.405-7.806-7.015-6.884-.816.114-2.726 1.179-3.283-.281-1.117-2.931 4.863-5.086 8.873-3.207 4.474 2.096 6.185 7.704 6.433 8.918.606 2.969-.075 5.44-1.389 10.245a309.123 309.123 0 0 0-1.306 4.937c-.584 2.275.46 5.223 1.233 5.666 4.823 2.765 7.085 6.026 8.148 7.933 1.587 2.848 2.943 7.17 1.953 7.814-.601.391-1.997-.622-2.442-.944-1.43-1.037-1.449-1.881-2.442-2.833-1.575-1.509-4.113-1.846-5.926-1.498-2.638.507-2.977 2.479-4.493 2.214-1.785-.312-1.439-3.111-4.558-5.535-1.603-1.246-3.149-1.637-3.581-1.736a9.29 9.29 0 0 0-3.972-.022c-2.188.472-2.398 1.372-4.102 1.432-1.435.051-3.179-.518-3.386-1.432-.189-.836 1.067-1.245 1.237-2.8.019-.175.143-1.468-.651-2.279-.687-.701-1.732-.707-3.538-.716-1.664-.009-2.354.226-2.474-.043-.202-.45 1.435-1.712 2.69-2.367z" fill="#a0b632"/><g id="_x36_vkCbN.tif"/><path d="M76.369 75.838a2.605 2.605 0 0 1-2.023-4.035c1.959-2.968 2.554-7.705 3.034-11.513.277-2.198.515-4.097.968-5.631 1.496-5.065 5.047-6.668 5.448-6.834a2.605 2.605 0 1 1 2.049 4.789c-.138.068-1.729.906-2.501 3.519-.333 1.128-.558 2.915-.796 4.806-.547 4.344-1.227 9.75-3.854 13.731a2.6 2.6 0 0 1-2.325 1.168z" fill="#fff"/><path d="M67.398 89.687a2.604 2.604 0 0 1-1.038-4.949c1.521-.734 3.042-3.29 3.644-4.728a2.607 2.607 0 0 1 3.404-1.403 2.603 2.603 0 0 1 1.409 3.397c-.234.567-2.398 5.593-6.191 7.424a2.582 2.582 0 0 1-1.228.259z" fill="#fff"/></svg>