<svg id="レイヤー_1" xmlns="http://www.w3.org/2000/svg" viewBox="0 0 128 128"><g><path d="M100.926 80.398c22.804-1.344 26.679-20.918 26.713-21.117a1.102 1.102 0 0 0-.744-1.252l-5.916-1.912 4.71-3.888a1.11 1.11 0 0 0 .169-1.536c-.294-.379-7.429-9.34-22.115-9.34-5.562 0-11.503 1.315-17.67 3.905a36.962 36.962 0 0 0-3.979 1.967c1.82-2.74 3.213-5.578 4.164-8.493 8.827-27.054-9.453-35.971-9.639-36.058a1.104 1.104 0 0 0-1.314.286l-4.018 4.773-1.839-5.851c-.159-.498-.613-.796-1.158-.773-.218.021-22.172 2.316-21.012 30.953.168 4.135.989 8.546 2.451 13.165-3.624-5.622-7.672-9.739-12.065-12.287-5.824-3.373-11.712-5.08-17.487-5.08-9.087 0-14.652 4.213-14.886 4.393a1.11 1.11 0 0 0-.207 1.541l3.718 4.969-6.807-.005a1.1 1.1 0 0 0-1.062.795c-.092.308-2.163 7.646 2.036 15.207 3.359 6.055 9.704 10.431 18.863 12.994 4.541 1.271 9.934 1.894 16.29 1.903-7.787 1.279-13.968 3.767-18.404 7.411C.802 92.603 8.2 108.409 8.279 108.563c.217.441.709.701 1.185.605l6.192-1.076-2.369 5.704a1.102 1.102 0 0 0 .501 1.4c.208.107 5.173 2.716 12.304 2.716 6.876 0 16.995-2.533 26.137-14.581 2.513-3.322 4.48-7.257 5.877-11.751-.064 5.402.771 10.012 2.509 13.767 9.004 19.445 23.098 21.543 28.736 21.543 2.223 0 3.615-.298 3.667-.312.522-.111.891-.588.873-1.115l-.213-6.136 5.191 3.061c.488.29 1.12.16 1.457-.298.13-.182 13.043-18.301-6.148-38.229-1.393-1.449-2.977-2.801-4.732-4.056 3.956.608 7.714.823 11.48.593z" fill="#d7598b"/><g fill="#fff"><path d="M58.599 74.92c-.67 2.533-4.139 3.849-6.387 2.435-1.722-1.081-2.262-3.412-1.224-5.132.946-1.576 2.849-2.4 4.636-2.103 2.175.371 3.529 2.697 2.975 4.8z"/><path d="M55.395 63.897c-.665 2.529-4.135 3.853-6.388 2.43-1.717-1.076-2.258-3.407-1.224-5.134.947-1.569 2.851-2.396 4.636-2.096 2.175.367 3.533 2.702 2.976 4.8z"/><path d="M58.395 53.173c.948-1.571 2.852-2.404 4.637-2.099 2.171.367 3.529 2.698 2.976 4.8-.675 2.53-4.139 3.85-6.388 2.431-1.722-1.08-2.262-3.408-1.225-5.132z"/><path d="M72.156 75.919c-.67 2.534-4.135 3.854-6.388 2.435-1.721-1.08-2.263-3.407-1.219-5.128.938-1.579 2.85-2.406 4.632-2.103 2.172.367 3.528 2.698 2.975 4.796z"/><path d="M76.213 63.355c-.666 2.534-4.126 3.854-6.379 2.435-1.726-1.076-2.262-3.407-1.225-5.132.943-1.575 2.846-2.4 4.637-2.103 2.166.368 3.525 2.707 2.967 4.8z"/></g></g></svg>