<svg id="レイヤー_1" xmlns="http://www.w3.org/2000/svg" xmlns:xlink="http://www.w3.org/1999/xlink" viewBox="0 0 128 128"><g><g><g><defs><path id="SVGID_1_" d="M41.156 18.548c.549-3.545 6.071-16.624 14.516-17.166 5.794-.374 12.586 4.917 14.301 13.11 1.647 7.899 3.832 16.121.064 23.546-3.124 6.178-10.244 13.472-17.811 8.953-8.497-5.076-12.711-17.871-11.07-28.443z"/></defs><clipPath id="SVGID_2_"><use xlink:href="#SVGID_1_" overflow="visible"/></clipPath><g clip-path="url(#SVGID_2_)"><path d="M37.537 21.333C38.221 16.874 45.17.427 55.787-.259c7.294-.466 15.833 6.187 17.984 16.49 2.073 9.933 4.818 20.274.09 29.611-3.939 7.77-12.88 16.943-22.402 11.259-10.684-6.383-15.986-22.473-13.922-35.768z" fill="#f79329"/><path d="M45.257 21.651c.408-2.639 4.521-12.374 10.805-12.778 4.316-.279 9.369 3.662 10.643 9.758 1.232 5.878 2.854 11.998.054 17.525-2.328 4.598-7.625 10.027-13.259 6.665-6.327-3.778-9.46-13.302-8.243-21.17z" fill="#ed6c30"/></g></g><g><path d="M64.127 114.198c-.135.468-.296.93-.477 1.375-.335.825-.659 1.664-1.012 2.489-.297.685-.596 1.518-1.372 1.814-.972.366-2.192.204-3.155-.075-4.029-1.184-2.613-4.958-1.962-7.889 1.302-5.914 2.535-11.893 2.958-17.923.438-6.23.018-12.467.018-18.707 0-.123.008-2.653-.09-2.653h7.948v2.917c0 4.517.013 9.03-.086 13.543-.185 8.35-.362 17.002-2.77 25.109z" fill="#757f3f"/></g><g><defs><path id="SVGID_3_" d="M25.797 49.141c-3.368-25.588 1.443-37.792 5.279-42.215 1.763-2.032 4.02-2.819 6.577-1.836 11.68 4.483 23.908 29.328 27.176 38.109 1.088 2.93 8.77 29.145-2.629 36.202-2.446 1.509-5.31 1.388-8.111 1.387-2.531-.003-16.618-1.318-23.413-15.093-.945-1.906-3.681-7.385-4.879-16.554z"/></defs><clipPath id="SVGID_4_"><use xlink:href="#SVGID_3_" overflow="visible"/></clipPath><g clip-path="url(#SVGID_4_)"><path d="M20.475 46.364C16.782 14.061 24.49-1.661 30.373-7.468c2.71-2.667 6.084-3.778 9.812-2.661 17.011 5.103 33.827 36.023 38.204 47.003 1.466 3.662 11.511 36.552-5.671 46.074-3.694 2.042-7.918 2.018-12.06 2.16-3.722.128-24.464-.847-33.812-17.985-1.286-2.364-5.052-9.19-6.371-20.759z" fill="#f79329"/><path d="M25.235 52.886c-3.479-20.128-.128-31.011 2.826-35.49 2.936-4.449 5.94-3.891 8.44-3.341 11.445 2.518 25.64 26.081 28.904 32.804 1.082 2.235 8.823 26.02-2.254 32.697-2.387 1.423-5.187 1.586-7.927 1.836-2.465.235-16.233.461-22.973-9.918-.938-1.437-5.774-11.378-7.016-18.588z" fill="#ed6c30"/></g></g><g><defs><path id="SVGID_5_" d="M94.647 41.391C92.236 15.695 84.833 4.865 80.11 1.406c-2.168-1.591-4.549-1.854-6.82-.328-10.391 6.969-17.533 25.991-19.293 42.958-.32 3.104-.804 30.607 11.879 34.954 2.723.929 5.488.169 8.226-.458 2.457-.56 15.909-4.978 19.47-19.917.49-2.065 1.939-8.02 1.075-17.224z"/></defs><clipPath id="SVGID_6_"><use xlink:href="#SVGID_5_" overflow="visible"/></clipPath><g clip-path="url(#SVGID_6_)"><path d="M99.218 37.502C95.632 5.187 84.619-8.43 77.596-12.785c-3.231-1.999-6.773-2.329-10.154-.414C51.987-4.433 42.466 29.447 40.637 41.13c-.609 3.891-3.091 38.188 15.776 43.654 4.056 1.171 8.168.209 12.241-.574 3.648-.704 23.658-6.265 28.965-25.052.723-2.593 2.884-10.082 1.599-21.656z" fill="#f79329"/><path d="M99.059 46.59c-1.234-20.397-8.042-29.092-9.897-33.172-6.586-14.485-13.783-8.134-17.153-4.68-5.29 5.429-11.85 15.136-15.285 25.274-.631 1.865-2.89 10.231-3.338 18.905-.646 12.364 1.984 25.725 10.23 28.103 3.014.863 6.173.395 9.289.032 2.799-.321 18.192-3.162 23.06-14.779.681-1.607 3.548-12.381 3.094-19.683z" fill="#ed6c30"/></g></g><g><defs><path id="SVGID_7_" d="M48.903 121.959c1.846-5.691 17.574-21.963 42.58-38.896.974-.659 6.473-4.103 9.613-4.952 1.883-.51 2.942-.055 1.723 2.591-6.004 13.011-14.595 34.229-29.229 43.266-6.148 3.798-11.941 3.551-15.796 3.913-2.395.221-10.843.072-8.891-5.922z"/></defs><use xlink:href="#SVGID_7_" overflow="visible" fill="#757f3f"/><clipPath id="SVGID_8_"><use xlink:href="#SVGID_7_" overflow="visible"/></clipPath><path d="M54.114 127.79s.642-3.285 3.997-7.988c8.638-12.109 40.265-40.636 46.354-40.859l-.267-5.803S76.244 81.842 52.5 110.859c0 0-7.385 3.955-7.385 18.465l8.999-1.534z" clip-path="url(#SVGID_8_)" fill="#bdcf46"/></g></g><path d="M74.102 78.532s-8.003 3.712-20.013 2.256c0 0-14.641-28.456-.198-32.999l22 2.489-1.789 28.254z" fill="#ed6c30"/></g></svg>