<svg id="レイヤー_1" xmlns="http://www.w3.org/2000/svg" viewBox="0 0 128 128"><g><g><g><path d="M63.168 58.208c-.042.239.19.559.648 1.16 1.168 1.518 1.518 3.786 1.985 5.624a58.272 58.272 0 0 1 1.477 8.361c.265 2.618.655 5.048.655 7.701v8.28c0 5.896-.997 11.819-1.824 17.566-.29 2.003-.896 4.178-1.401 6.148-.209.818-.235 1.688-.431 2.503-.026.133-.069.261-.104.389-1.252 3.888-.868 7.316-.016 8.195 1.449 1.492 3.479 2.549 5.304 3.026 4.153 1.101 8.869 1.117 12.864-.579 3.723-1.578 2.869-4.785 3.509-8.251a36.53 36.53 0 0 0 .588-6.455c0-4.988.171-10.023-.289-14.953-.589-6.404-1.535-12.804-2.942-19.156-.87-3.94-1.568-7.619-3.155-11.38a38.42 38.42 0 0 0-2.643-5.201c-.989-1.625-1.501-3.164-3.122-4.196-.392-.248-2.763-2.333-3.197-2.157-2.192.865-4.375 1.73-6.566 2.596-.87.344-1.297.498-1.34.779z" fill="#855c52"/></g><path d="M121.624 65.116c-.478-6.652-2.807-13.858-8.28-18.054-2.576-1.973-6.319-3.444-9.41-4.339-8.25-2.388-17.938-.862-26.372 2.43 1.979-1.744 4.009-3.45 6.158-4.934 2.225-1.535 4.493-2.929 6.902-4.157.626-.325 1.091-.418 1.011-1.203-.035-.409-.247-.792-.409-1.198-.521-1.266-1.398-2.186-2.141-3.338-.797-1.223-2.098-2.6-1.928-4.136.64-.221 2.064.739 2.679.989 1.142.47 2.199.989 3.299 1.536.922.46 1.847.913 2.746 1.415.511.29 1.207.972 1.791 1.074.972.18 2.003-.853 2.814-1.253.588-.294.81-.243.562-.93-.417-1.168-.968-2.149-1.433-3.274-.478-1.177-.925-2.464-.76-3.756.888-.308 2.875 1.326 3.573 1.768.7.436 1.467.93 2.107 1.476.538.461.861 1.309 1.646 1.236.426-.034.806-.418 1.193-.572.666-.26 1.041-.605 1.659-.95a70.252 70.252 0 0 1 3.746-1.936c1.485-.708 1.413-1.019.411-2.32-.562-.729-1.306-1.326-1.987-1.936-1.842-1.628-3.56-2.677-5.773-3.688-.81-.371-1.723-.422-2.511-.827-.737-.367-1.42-.517-2.256-.652a42.594 42.594 0 0 0-5.433-.524c-11.613-.38-22.239 7.888-26.647 18.487-.146-2.831-.043-5.696-.043-8.531 0-.96-.068-1.829.102-2.767.12-.665.453-3.053-.152-3.386-.844-.468-8.033-.367-7.573-1.322.444-.912 2.167-1.198 3.018-1.475 1.063-.35 2.142-.588 3.173-1.015.76-.307 1.852-.247 2.482-.801.486-.427.442-1.249.571-1.825.18-.823 2.439-10.13 1.654-10.335-.452-.12-1.296.209-1.772.272-.701.098-1.416.354-2.099.555-.964.281-1.979.554-2.899.963-2.055.908-4.059 1.969-5.939 3.207a30.01 30.01 0 0 0-2.682 1.96c-4.008 3.296-6.984 7.564-7.981 12.813-.91 4.745.758 9.457 3.112 13.58-2.191-1.437-4.469-2.75-6.832-3.863-7.947-3.727-17.966-2.656-25.492 1.628-2.597 1.484-5.231 3.463-7.341 5.586-2 2.021-4.849 6.314-5.411 9.158-.111.584-.196 1.185-.29 1.769l.127.013c1.008.076 11.633 1.441 11.804.303.128-.878.886-1.728 1.257-2.52 1.088-2.319 4.443-6.827 7.598-6.136.133.678-.293 1.164-.545 1.778-.405.989-.798 1.978-1.207 2.968-.519 1.266-1.083 2.366-.903 3.76 1.296.162 2.72.022 4.032.022 1.14 0 2.277.123 3.42-.022.026-.004.888-2.694 1.032-3.057.461-1.121 1.194-2.026 1.986-2.93.427-.477 1.5-1.722 2.234-1.466.154.051-.418 5.278-.46 5.671-.103.801-.35 1.569-.248 2.38 2.551.681 5.216.57 7.82.831 1.143.115 2.286.315 3.428.542-.067 0-.136.008-.205.012-3.487.278-6.968.866-10.318 1.89-6.659 2.021-13.174 5.381-17.779 10.616-4.45 5.062-7.052 14.518-6.463 21.148.229 2.499.221 3.146.686 5.62.304 1.578.589 3.47 1.479 4.852.342.542 1.578 2.831 2.431 2.175.614-.469.939-1.424 1.395-2.051 1.215-1.676 2.482-3.313 3.68-4.997.537-.759 2.463-2.592 2.089-3.569-.432-1.119-.551-2.413-.687-3.594-.196-1.705-.299-3.44-.157-5.152.06-.737.157-1.493.408-2.191.112-.308.682-1.518 1.105-1.384.199.064.222.96.238 1.115.085.677.141 1.36.2 2.04.069.81.059 1.6.234 2.403.204.958.533 1.883.818 2.818.158.519.371 1.254.819 1.595.521.398 1.062-.271 1.411-.618a76.888 76.888 0 0 0 2.683-2.817c.37-.407.643-.914.997-1.347.106-.128.346-.25.418-.396.133-.277-.099-.906-.162-1.207-.119-.544-.329-1.065-.422-1.616-.205-1.168-.12-2.336 0-3.508.072-.708-.081-2.58.575-3.051.503-.361.388.469.388.756 0 1.484.329 2.912.802 4.312.201.589.38 1.315.802 1.795.579.654 1.15-.147 1.611-.574 1.45-1.338 2.9-2.681 4.367-4.001.314-.284.626-.564.946-.838.672-.562 1.355-1.099 2.038-1.646-1.501 2.264-2.678 4.724-3.373 7.334-.84 3.129-1.317 7.205-.815 10.424.453 2.925 1.519 6.229 3.163 8.72 1.289 1.952 3.456 4.076 5.579 5.117 1.407.69 2.762-3.501 3.061-4.273.453-1.202.776-2.469 1.288-3.646.4-.942 1.518-2.644.908-3.65-.265-.452-.61-.839-.874-1.33-1.462-2.708-3.445-5.121-3.07-8.438.383.085.759.724.973 1.065.494.819.912 1.702 1.475 2.473.555.759.93 1.655 1.612 2.345.451.461.823 1.07 1.433 1.356.802.384.962-.592 1.116-1.151.273-.98.836-1.808 1.22-2.742.358-.865.861-1.684 1.236-2.554.35-.801 1.083-1.791.917-2.711-.09-.511-.567-.925-.807-1.403a37.478 37.478 0 0 1-.92-2.06c-.214-.545-.4-1.117-.555-1.685-.085-.294-.076-.89-.238-1.078.333.524 1.177.963 1.638 1.398.418.393 1.885 2.136 2.566 1.719.946-.58 1.22-1.897 1.646-2.839.571-1.296 1.296-2.486 1.816-3.791.648-1.663 1.68-2.976 2.652-4.443.673-1.015 1.501-1.885 2.149-2.896.366-.575 1.27-1.535 1.491-2.229 4.435 1.074 9.002 1.91 13.337 3.325 1.74.563 3.436 1.271 5.159 1.902 1.245.46 2.575.58 3.847.981.725.23 1.543.832 2.029-.035.35-.631.443-1.424.784-2.098.438-.878.666-1.761.895-2.707.18-.712.206-1.553.491-2.209.192-.431.455-1.437.822-1.727.772-.605.938.726 1.127 1.356.621 2.124.469 4.563.417 6.754-.025 1.006-.396 2.009-.281 3.01.456-.008.928.329 1.356.47.7.239 1.457.392 2.184.571.435.103 1.278.503 1.688.453.554-.068.495-.546.784-.989.742-1.134 1.262-2.447 1.73-3.744.598-1.628.708-3.437 1.569-4.971.03-.055.632 1.352.674 1.484.324.976.537 1.74.675 2.737.067.5.222 1.002.298 1.501.128.827.119 1.655.119 2.512 0 1.411-.153 2.929.018 4.323 1.04.145 1.995.947 2.979 1.279.746.252 7.031 2.588 7.031 2.776-.017-.58.265-1.189.315-1.774.068-.763.148-1.492.308-2.251.343-1.712.121-3.566-.007-5.293z" fill="#757f3f"/></g><path d="M46.496 69.965c-.294.182-.474.583-.634.885a25.735 25.735 0 0 0-2.128 5.517c-.738 2.844-.986 5.827-.58 8.743a19.99 19.99 0 0 0 1.628 5.538 21.92 21.92 0 0 0 1.391 2.567c.447.706.904 2.087 1.951 1.339.572-.402 1.494-1.908 1.238-2.656-.58-1.713-1.698-3.244-2.358-4.946-.711-1.833-.997-3.822-1.088-5.78a31.024 31.024 0 0 1 .206-4.952 39.718 39.718 0 0 1 .793-4.366c.085-.356.613-2.523-.419-1.889z" fill="#bdcf46"/><path d="M39.871 53.299a.677.677 0 0 0-.58-.088c-1.804.493-3.572 1.162-5.291 1.911-2.588 1.128-5.078 2.505-7.359 4.176-2.613 1.913-4.954 4.23-6.707 6.963-2.071 3.23-3.373 6.901-3.889 10.7-.404 3.004-.332 6.067.128 9.063.142.893.316 1.779.525 2.658.151.636.26 1.625.745 2.07.436.394.636.017.946-.333.525-.59 1.102-1.158 1.587-1.781.366-.464.362-1.082.218-1.639a26.333 26.333 0 0 1-.581-2.865 29.12 29.12 0 0 1-.308-4.236c.005-1.731.172-3.462.513-5.157a24.108 24.108 0 0 1 1.872-5.634 24.448 24.448 0 0 1 3.769-5.663c1.809-2.034 3.933-3.775 6.222-5.242a38.767 38.767 0 0 1 4.195-2.324c.788-.376 1.589-.73 2.4-1.063.444-.184 1.602-.361 1.769-.897.086-.28-.005-.495-.174-.619z" fill="#bdcf46"/><path d="M11.628 43.94c-.349-.708.284-1.426.773-2.168a26.638 26.638 0 0 1 8.279-8.074c2.989-1.841 6.345-3.024 9.794-3.6 1.117-.185 2.238-.281 3.364-.354.37-.023 4.353-.371 3.406.897-.247.334-.896.336-1.271.372-.997.089-1.995.243-2.976.45a28.644 28.644 0 0 0-5.608 1.815 27.037 27.037 0 0 0-6.714 4.222c-1.459 1.251-2.729 2.697-3.889 4.231-.678.901-1.244 2.428-2.38 2.871-.639.252-1.876.254-2.417-.217a1.429 1.429 0 0 1-.361-.445z" fill="#bdcf46"/><path d="M57.881 9.894c-.119-.059-.281-.066-.469-.004-.427.143-1.16 1.037-1.467 1.37-2.184 2.351-3.424 5.691-3.855 8.831-.256 1.834-.149 3.704.252 5.507.204.911.48 1.806.817 2.675.176.457.295.865.666 1.19.354.307.721.29 1.113.068.265-.15.672-.396.874-.626.443-.51-.128-1.288-.303-1.8-.512-1.497-1.147-2.979-1.326-4.562-.179-1.595.042-3.259.396-4.815a18.256 18.256 0 0 1 1.936-4.993c.427-.751.946-1.418 1.428-2.133.22-.329.152-.602-.062-.708z" fill="#bdcf46"/></g></svg>