<svg id="レイヤー_1" xmlns="http://www.w3.org/2000/svg" viewBox="0 0 128 128"><g><g><path d="M102.725 110.225c-5.142 4.007-11.348 6.373-17.577 7.546-6.709 1.256-14.022 1.697-21.154 1.638-7.14.06-14.445-.382-21.147-1.638-6.236-1.173-12.442-3.539-17.584-7.546-3.97-3.098-12.519-11.575-7.366-16.932 1.817-1.901 3.79-2.69 6.193-3.553 6.673-2.415 13.083-4.412 20.09-5.488 6.642-1.028 13.154-1.388 19.814-1.446 6.66.059 13.177.418 19.826 1.446 6.996 1.076 13.416 3.073 20.078 5.488 2.403.862 4.389 1.651 6.199 3.553 5.147 5.356-3.39 13.834-7.372 16.932z" fill="#fcd4b5"/><path d="M121.93 60.504c-5.454-9.423-14.003-16.658-22.194-23.606-6.422-5.453-12.161-11.018-17.771-17.333-4.818-5.404-10.242-13.113-14.29-17.513-2.642-2.863-5.045-2.408-7.353 0-3.097 3.244-9.375 11.979-14.201 17.384a176.369 176.369 0 0 1-17.858 17.462C20.072 43.845 11.522 51.081 6.07 60.504.222 70.608-.207 82.064 3.356 93.053c8.166 25.233 34.82 35.109 60.495 34.87h.297c25.675.239 52.328-9.638 60.496-34.87 3.563-10.99 3.133-22.445-2.714-32.549zm-19.205 49.721c-5.142 4.007-11.348 6.373-17.577 7.546-6.709 1.256-14.022 1.697-21.154 1.638-7.14.06-14.445-.382-21.147-1.638-6.236-1.173-12.442-3.539-17.584-7.546-3.97-3.098-12.519-11.575-7.366-16.932 1.817-1.901 3.79-2.69 6.193-3.553 6.673-2.415 13.083-4.412 20.09-5.488 6.642-1.028 13.154-1.388 19.814-1.446 6.66.059 13.177.418 19.826 1.446 6.996 1.076 13.416 3.073 20.078 5.488 2.403.862 4.389 1.651 6.199 3.553 5.147 5.356-3.39 13.834-7.372 16.932z" fill="#855c52"/></g><path d="M41.43 35.488C29.231 48.343 10.996 61 15.981 81.574c2.22-.967 6.686-2.727 12.187-4.034-4.969-11.35 3.719-22.82 9.464-32.049.431-.693.867-1.388 1.292-2.084 1.16-1.887 2.468-3.691 3.419-5.701.197-.416 1.765-4.353.497-3.645-.587.327-.962.955-1.41 1.427z" fill-rule="evenodd" clip-rule="evenodd" fill="#b89278"/></g></svg>