<svg id="レイヤー_1" xmlns="http://www.w3.org/2000/svg" viewBox="0 0 128 128"><g><path d="M81.431 69.223c-6.001 12.231-22.098 13.473-31.538 6.358-4.756-3.567-7.822-9.235-7.094-16.685.869-8.885 7.212-15.806 15.72-17.128 6.708-1.042 14.206 1.091 19.242 5.911 5.646 5.393 7.06 14.612 3.67 21.544z" fill="#fff"/><path d="M120.267 58.95c-4.867-5.117-9.878-8.237-15.959-9.543a2.48 2.48 0 0 0-.654-.2c-1.181-.2-1.607-1.145-.507-1.873.087-.049.171-.103.249-.151.091-.059.192-.118.281-.183 8.965-5.732 15.842-14.386 9.381-25.904-4.863-8.664-17.62-11.293-26.93-8.297-5.104 1.641-10.272 4.885-14.889 11.8-.75.831-1.77 1.474-2.521.237-.092-.216-.178-.41-.274-.626-.06-.173-.124-.362-.205-.523-.005-.017-.017-.027-.026-.049C64.137 13.544 58.172 6.591 48.936 5.345c-9.051-1.227-19.54 5.263-20.587 14.449-.615 5.388.713 10.332 3.033 14.845l.012.016c.119.248.28.48.389.734.626 1.376.48 2.354-1.169 2.43-.413.021-.839-.033-1.239-.012 0 0-.021.017-.037.017-4.756-.82-9.992-.68-14.397.68-9.942 3.077-19 15.422-12.049 26.655 4.519 7.319 13.284 7.238 21.161 6.602l.84.173c.596.011 1.334-.021 1.534.793.238.956-1.5 2.083-2.029 2.661a5.298 5.298 0 0 0-.49.6c-7.185 5.991-12.389 15.485-10.753 24.965 3.157 18.374 25.191 19.637 35.48 7.2 2.704-3.271 4.561-6.914 6.137-10.682l.222-.319c.161-.172.49-.485.745-.421.291.076.328.508.399.745.043.151.064.335.081.519.01.172.026.351.036.529a11.39 11.39 0 0 0 .067.82c.533 7.546 4.286 14.769 9.91 19.534 5.208 4.41 14.509 5.063 20.333 2.176 7.477-3.698 11.464-11.93 10.51-20.377-.453-4.081-1.8-9.393-3.849-13.328l-.232-.604c-.258-.832.109-.994.843-.805 7.682 5.096 16.606 9.965 25.424 4.982 12.565-7.093 9.155-23.384 1.006-31.972zM56.498 93.188l-.03-.005c.025-.065.053-.13.08-.194-.027.06-.027.135-.05.199zm24.933-23.965c-6.001 12.231-22.098 13.473-31.538 6.358-4.756-3.567-7.822-9.235-7.094-16.685.869-8.885 7.212-15.806 15.72-17.128 6.708-1.042 14.206 1.091 19.242 5.911 5.646 5.393 7.06 14.612 3.67 21.544z" fill="#d7598b"/></g></svg>