<svg id="レイヤー_1" xmlns="http://www.w3.org/2000/svg" viewBox="0 0 128 128"><g><path d="M125.284 8.721c-.267-.969-.653-3.365-2.187-2.93-1.01.285-1.781 2.297-2.525 3-7.104 6.797-15.912 7.748-25.312 7.807-2.376.02-11.252-.742-12.727 1.601-.504.812.763 1.149 1.063 1.912 1.303 3.176-1.895 7.006-4.2 8.748-2.92 2.205-7.036 2.998-10.36 1.188-2.021-1.088-3.582-2.951-2.584-5.404.396-.971 2.97-2.455 1.939-3.494-.563-.562-1.82-.336-2.519-.256-1.805.197-3.552.723-5.289 1.227-4.205 1.197-8.254 2.871-12.122 4.889-7.65 3.977-14.488 9.363-20.332 15.686-6.101 6.59-10.04 15.043-11.701 23.84a52.032 52.032 0 0 0-.886 10.785c.172 7.588 3.354 14.271-1.134 21.355-.743 1.17-1.436 2.287-2.336 3.336-1.757 2.059-3.593 3.969-5.432 5.959-1.737 1.859-3.732 3.373-5.439 5.264-2.117 2.336-.41 4.828 1.376 6.85 1.672 1.889 4.583 2.701 6.997 1.824 2.691-.981 3.429-4.217 4.701-6.469 1.345-2.383 2.726-4.719 4.27-6.955 1.177-1.701 2.419-3.592 4.171-4.762 2.479-1.66 3.909-.742 6.546-.109 1.495.35 2.94.824 4.365 1.406 2.84 1.148 5.566 2.613 8.49 3.553 8.378 2.672 17.388 3.969 26.176 3.385 1.266-.08 3.819.277 3.542-1.762-.232-1.662-2.34-1.404-3.473-2.125-11.258-7.156-4.642-23.141 5.52-27.83 9.561-4.412 25.108-2.73 27.998 9.213.188.771-.069 2.959.594 3.455 4.214 3.117 19.485-32.063 20.723-35.973 4.774-15.033 6.382-32.867 2.087-48.214z" fill="#f79329"/><path d="M122.351 12.629c-.129-.031-.292.02-.505.178-.529.406-.936 1.584-1.167 2.201-3.691 9.9-9.738 16.562-18.013 22.914-4.417 3.387-9.292 6.137-14.146 8.84-6.601 3.666-13.23 7.271-19.723 11.131-7.512 4.465-17.531 9.689-24.473 14.973-4.651 3.549-9.342 7.057-13.617 11.055-1.454 1.361-2.87 2.762-4.196 4.246-1.421 1.588-3.518 3.721-3.819 5.938-.149 1.078.806 2.344 1.994 2.256 1.415-.107 2.647-2.443 3.537-3.408 1.509-1.629 3.093-3.182 4.627-4.785 2.236-2.326 4.488-4.648 6.972-6.709 5.794-4.811 11.999-9.273 18.361-13.311a201.202 201.202 0 0 1 11.119-6.543c7.239-3.947 14.487-7.897 21.578-12.111 10.356-6.156 21.152-12.924 27.447-23.549.645-1.086 6.355-12.851 4.024-13.316z" fill="#cd801f"/></g></svg>