<svg id="レイヤー_1" xmlns="http://www.w3.org/2000/svg" xmlns:xlink="http://www.w3.org/1999/xlink" viewBox="0 0 128 128"><g><path d="M110.386 13.631c-1.873 0-3.178.673-3.178.673L6.158 59.138C-1.267 62.084.723 70.607.723 80.487c0 9.878 1.987 12.592 1.987 12.592 7.043 16.382 26.832 27.483 51.529 27.483 13.69 0 28.876-3.407 44.239-11.226 43.078-21.912 26.598-70.21 22.667-83.796-2.898-10.035-7.63-11.909-10.759-11.909z" fill="#757f3f"/><g><defs><path id="SVGID_1_" d="M118.539 41.073c4.533 21.105 4.771 48.193-23.07 62.36-13.508 6.87-27.768 10.501-41.23 10.501-21.477 0-39.31-9.212-45.439-23.466-.311-.735-.652-1.58-.745-1.983-.315-1.341-.704-3.847-.704-7.999 0-1.916-.068-3.719-.135-5.458-.269-7.27 0-9.181 1.387-9.729.084-.037-3.433-5.69-3.349-5.732l100.733-44.844c2.018-.834 4.876 3.484 6.792 7.916 1.502 3.47 4.111 10.709 5.76 18.434z"/></defs><clipPath id="SVGID_2_"><use xlink:href="#SVGID_1_" overflow="visible"/></clipPath><g clip-path="url(#SVGID_2_)"><path d="M3.601 65.232S-.809 99.695 24.81 113.39c25.63 13.695 60.093-1.767 60.093-1.767L3.601 65.232z" fill="#bdcf46"/><path d="M121.135 38.722c-1.904-8.346-7.403-15.761-8.925-17.686-1.16-2.341-3.407-6.131-5.903-6.39l-2.951-.684L3.032 59.164s19.57 31.253 25.754 36.109c6.192 4.862 42.415 27.396 73.347 8.838 30.932-18.556 21.209-55.671 19.002-65.389z" fill="#fff"/><path d="M110.874 36.351c-1.741-6.959-3.875-13.156-5.915-16.59-1.396-2.36-3.788-3.396-3.788-3.396L11.286 55.788S20.512 69.97 23.38 73.361c17.429 20.587 46.817 30.74 68.335 22.342 13.214-5.162 19.376-16.491 21.618-30.751 1.407-8.936-.295-19.933-2.459-28.601z" fill="#db4437"/><g><g><g><g><g><path d="M68.675 68.422c-.092 2.268-1.832 4.732-4.292 3.738-2.44-.994-2.75-3.967-2.231-6.213.544-2.331 2.815-5.535 5.002-2.527.962 1.326 1.594 3.221 1.521 5.002z" fill="#fff"/></g></g></g><g><g><g><path d="M51.496 67.147c-1.16 1.947-3.873 3.283-5.552 1.243-1.677-2.04-.53-4.805.994-6.523 1.585-1.792 5.105-3.531 5.593.155.217 1.625-.124 3.593-1.035 5.125z" fill="#fff"/></g></g></g><g><g><g><path d="M93.808 42.596c2.092.896 3.76 3.406 1.946 5.343-1.801 1.926-4.689 1.149-6.596-.145-1.983-1.342-4.162-4.608-.569-5.572 1.59-.424 3.583-.341 5.219.374z" fill="#fff"/></g></g></g><g><g><g><path d="M86.455 58.17c1.409 1.786 1.679 4.794-.828 5.633-2.506.839-4.67-1.222-5.736-3.267-1.103-2.128-1.466-6.037 2.154-5.173 1.589.384 3.312 1.408 4.41 2.807z" fill="#fff"/></g></g></g></g><g fill="#757f3f"><path d="M76.535 113.364c-8.937 0-18.826-2.413-31.378-7.182C18.275 95.973 3.612 67.37 3 66.159a2.641 2.641 0 0 1 1.171-3.557 2.644 2.644 0 0 1 3.557 1.169c.151.28 14.39 27.991 39.315 37.456 25.133 9.543 38.139 9.164 55.683-1.626a2.639 2.639 0 0 1 3.644.87 2.647 2.647 0 0 1-.86 3.645c-10.068 6.194-18.92 9.248-28.975 9.248z"/><path d="M12.403 78.197c-.291.124-.187.746-.187 1.201 0 1.388-.253 2.848-.019 4.225.352 2.164 2.63 3.5 2.67 5.769.032 1.915-.165 3.262 1.159 4.805.528.61 1.285 1.118 1.68 1.822.383.704.248 1.616.248 2.424 0 .745-.135 1.636.166 2.273.435.916 1.615 1.568 2.227 2.381.92 1.238.051 2.75.661 4.044.773 1.646 3.107 2.899 4.641 3.696 1.585.819 3.033 1.549 4.733 2.021 1.3.352 2.972.766 4.318.507 1.719-.331.745-1.693-.011-2.501a50 50 0 0 0-2.972-2.905c-.74-.673-1.647-1.273-2.011-2.257-.445-1.201-.289-2.258-.475-3.5-.207-1.43-1.409-2.206-2.443-3.045-1.058-.839-1.788-2.211-1.994-3.583-.306-2.112.704-3.717-.68-5.592-1.21-1.636-3.126-2.651-4.576-4.054-1.367-1.326-2.527-2.843-3.748-4.293-.839-.983-1.761-2.806-2.91-3.359-.229-.11-.378-.121-.477-.079z"/><path d="M38.116 101.745c.145 1.253-.456 2.506-.187 3.729.176.828.632 1.521 1.242 2.102 1.058.989 2.393 1.938 2.641 3.459.133.798.133 1.615.114 2.434-.01.518-.114 1.005-.114 1.533.011 1.098 3.688 1.305 4.837 1.563 1.641.367 3.707.554 5.374.29-.115-.663-.062-1.356-.135-2.03-.073-.704-.176-1.424-.372-2.102-.425-1.409-1.523-2.289-2.632-3.117-.798-.596-1.418-1.554-1.438-2.543 0-.429.042-.828.094-1.248.021-.217.102-.642.021-.858-.207-.539-1.45-.777-1.927-1.005-.601-.274-1.066-.621-1.584-1.01-1.242-.947-3.014-1.186-4.433-1.848-.29-.146-1.051-.586-1.366-.249-.187.191-.176.559-.135.9z"/></g></g></g></g></g></svg>