<svg id="レイヤー_1" xmlns="http://www.w3.org/2000/svg" viewBox="0 0 128 128"><g><g><path d="M60.103 39.798c-14.959 2.28-37.171-2.302-52.072 17.073-10.907 14.17-9.981 37.165 1.496 50.018 8.532 9.552 22.529 15.955 40.854 14.197 48.771-4.687 64.173-66.736 64.173-66.736l7.836-25.972-27.422-18.276S78.01 37.078 60.103 39.798z" fill="#d7598b"/><path d="M127.593 56.557c-.093-.407-.376-.831-.648-1.244a3.931 3.931 0 0 1-.266-.413c-2.648-4.703-1.705-9.641-.713-14.872.979-5.126 1.989-10.431-.601-15.567-.319-.628-.742-1.266-1.15-1.883-.9-1.36-1.837-2.762-1.742-4.174.046-.774.512-1.507.999-2.292.68-1.072 1.444-2.291 1.13-3.798-.534-2.5-3.731-4.101-5.849-5.157l-.318-.167c-.11-.053-.189-.1-.258-.137-.182-.105-.391-.23-.695-.23-.229 0-.443.062-.816.178-.105.031-.197.052-.275.073-.346.078-.586.156-1.006.502-1.396 1.172-2.679 1.716-4.137 1.778-.444.017-.89.021-1.337.021-1.467 0-2.974-.084-4.428-.168-1.465-.083-2.981-.167-4.473-.167-2.982 0-5.378.361-7.543 1.14-.879.314-1.763.66-2.652 1.005-2.322.899-4.717 1.831-7.123 2.344-1 .209-1.954.313-2.915.313-1.899 0-3.619-.398-5.607-.858-.476-.115-.964-.23-1.47-.34a3.403 3.403 0 0 0-.738-.084c-.983 0-1.512.497-1.777.905-.701 1.077-.44 2.898.109 4.132 1.302 2.961 4.168 5.367 8.768 7.355 2.919 1.261 5.881 1.904 8.798 1.904 1.396 0 2.788-.151 4.138-.45.345-.073.675-.131.999-.189.388-.072.763-.136 1.161-.229l.257-.063c.382-.094.961-.235 1.395-.235.243 0 .321.048.321.048.157.094.223.178-.085.988-.131.33-.314.602-.528.904a7.809 7.809 0 0 0-.438.691c-.309.554-.503 1.141-.687 1.705-.082.246-.161.491-.25.722-1.313 3.521-.785 6.633-.016 9.473.338 1.272.853 2.475 1.448 3.385.11.178.226.361.34.544.503.816 1.074 1.737 1.88 2.322.685.503 1.336.743 2.008.743 1.354 0 2.432-1.03 3.3-1.862 1.356-1.296 2.485-2.981 3.583-4.608l.493-.737c.564-.826 1.674-2.469 2.661-3.123.628 3.541 3.207 13.052 3.249 13.146 2.365 5.388 6.304 8.359 11.09 8.359h.004c.184 0 .305.005.43.011.163.01.33.021.487.021.387 0 .937-.052 1.281-.481.244-.304.316-.702.212-1.184zM72.84 13.078c.043-.01.075-.025.121-.025.178 0 .378.021.593.068a2.107 2.107 0 0 0-.714-.043zm16.018 12.89c-.773 0-1.544-.053-2.307-.147.94.115 1.888.141 2.841.115-.177.005-.356.032-.534.032zm11.943 20.358c-.038 0-.079-.021-.122-.021.075 0 .143.011.211.005-.028 0-.058.016-.089.016zm-.162-36.784c.12-.006.245-.011.371-.011.13 0 .267.011.397.011-.256 0-.512-.005-.768 0zm16.842-2.228c.011 0 .021.01.037.01-.048 0-.1 0-.162.011a.553.553 0 0 1 .125-.021zm7.696 50.186c-.323 0-.624-.058-.931-.084.329.031.648.084.988.084h-.057zm.921.031c-.067 0-.132-.005-.199-.011.166.011.324.011.471-.011-.09.011-.174.022-.272.022z" fill="#bdcf46"/></g><path d="M35.88 53.121c-6.639.992-15.27 3.79-19.448 11.449-8.982 16.455 2.358 23.48 9.613 13.233C37.616 61.456 55.313 58.232 50.48 54.491c-2.02-1.561-9.605-2.116-14.6-1.37z" fill="#fff"/></g></svg>