<svg id="レイヤー_1" xmlns="http://www.w3.org/2000/svg" viewBox="0 0 128 128"><g><path d="M115.739 94.034l-2.185.42 2.18-.99-.124-24.093s-4.98-3.104-10.32-2.308l-2.874 2.312c-1.642-3.164-4.237-5.75-7.446-7.323a16.452 16.452 0 0 0-7.292-1.704c-.712 0-1.4.107-2.092.196 2.037-1.922 3.641-4.305 4.496-7.04.496-1.576.762-3.247.762-4.982 0-1.775-.299-3.473-.814-5.072 2.215-1.177 5.449-3.341 7.181-6.598L82.584 15.454l-11.992 1.555s-3.651 4.327-2.774 9.801l5.781 5.153c-5.53.208-10.32 3.108-13.18 7.435l-6.567-9.126s-8.005-4.939-18.054 2.896c-8.234 6.419-6.646 15.501-6.646 15.501L17.231 62.806c-6.983 1.532-9.475 6.621-9.475 6.621l1.064 1.13c-1.219 1.939-2.092 4.113-2.422 6.482a16.525 16.525 0 0 0-.181 2.309c0 2.62.622 5.078 1.697 7.281a16.606 16.606 0 0 0 9.468 8.4c1.711.596 3.542.937 5.458.937s3.747-.341 5.456-.937c2.25-.783 4.247-2.082 5.945-3.688l15.83 5.852c-.021.354-.08.699-.08 1.062 0 2.619.622 5.079 1.698 7.282a16.6 16.6 0 0 0 9.469 8.399c1.706.596 3.538.937 5.454.937s3.747-.341 5.457-.937c.217-.075.398-.214.612-.296a16.545 16.545 0 0 0 7.834 5.748c1.709.597 3.539.937 5.456.937 1.915 0 3.746-.34 5.457-.937 1.138-.396 2.209-.938 3.22-1.56 2.377 5.835 8.208 7.77 8.208 7.77l22.366-21.153c-2.319-6.848-9.483-10.411-9.483-10.411z" fill="#2f2f2f"/><g><g><path d="M13.026 38.192c1.454-1.777 2.614-3.854 4.236-5.514 1.15-1.183 2.756-3.747 4.652-3.684 2.119.063 4.14 2.289 5.541 3.651 2.587 2.533 4.618 5.748 8.607 5.748.945 0 1.622.044 2.268-.756.771-.947 1.097-2.149 1.616-3.235 2.465-5.1-2.489-7.963-5.812-11.264-2.581-2.564-2.949-2.353-.5-5.119 2.124-2.418 4.146-4.163 7.09-5.568.325-.148.655-.299.984-.447 2.62-1.149 4.376-3.247 4.524-5.472.155-2.235-1.367-4.96-3.433-5.887-2.24-.989-3.343.234-5.144 1.149-3.884 1.981-7.333 4.227-10.88 6.77-7.461 5.355-13.911 11.753-20.342 18.32-2.214 2.257-4.614 5.898-4.912 9.134-.239 2.62 2.507 4.451 4.758 4.876 2.862.536 4.899-.445 6.747-2.702z" fill="#757f3f"/><g fill="#d7598b"><path d="M124.229 103.024c-.751-.777-1.501-1.128-2.252-1.204-2.283-.243-4.896 1.948-7.026 2.662-1.899.627-3.906.989-5.917.968-1.465-.01-3.583-.745-4.969-.085-1.937.937-.77 4.312-.669 5.877.261 3.98-1.259 6.812-2.284 10.465-1 3.533 3.146 4.844 6.025 5.141.905.096 1.821.064 2.73.064 9.182 0 16.623-7.44 16.623-16.618 0-2.32-.591-5.556-2.261-7.27z"/><path d="M108.336 75.825a22.291 22.291 0 0 1-4.376 2.788c-.772.373-1.806 1.034-2.14 1.906l-.075.255c-.207.979.697 2.203 1.113 3.056a19.253 19.253 0 0 1 1.953 8.835c-.032 1.406-.521 2.769-.453 4.173.067 1.332.421 2.15 1.874 2.119 1.293-.042 2.624-.011 3.923-.191a16.087 16.087 0 0 0 5.562-1.82c9.469-5.206 12.193-21.737 1.256-27.189-2.895-1.446-3.977 1.118-5.595 3.056a22.965 22.965 0 0 1-3.042 3.012z"/><path d="M96.625 110.061c-.713-.298-1.757.074-2.821.574-1.129.522-2.277 1.192-3.082 1.351-2.789.564-6.232.47-8.99-.297-2.581-.715-4.973-1.97-7.206-3.418-1.236-.798-3.142-2.735-4.689-1.66-5.797 3.992-5.11 12.22-.288 16.692a16.699 16.699 0 0 0 11.279 4.417c4.301 0 8.32-1.66 11.368-4.685 2.332-2.309 4.436-5.524 5.115-8.761.213-1.01.553-3.692-.686-4.213z"/><path d="M96.067 82.339c-.789-.681-1.787-1.426-2.838-1.809a4.13 4.13 0 0 0-1.188-.244c-1.582-.075-2.917-.639-4.429-1.012-1.379-.331-2.732-1.183-4.231-1.012-1.458.17-1.916 2.001-2.369 3.226-1.341 3.651-3.028 6.803-5.887 9.463a17.503 17.503 0 0 1-1.81 1.47c-.538.383-1.469.681-1.916 1.117-1.106 1.086.037 3.417.751 4.473 2.942 4.364 6.445 7.387 11.837 7.898 5.041.479 9.58-2.033 12.711-5.822 3.7-4.493 3.576-10.029 1.188-15.224-.426-.916-1.043-1.853-1.819-2.524z"/><path d="M31.815 81.712c-1.079-1.118-3.301-.319-4.678-.458-3.065-.31-6.101-1.416-8.777-2.928a22.1 22.1 0 0 1-6.051-5.004c-.81-.958-1.347-1.904-1.911-2.979-.475-.895-1.613-1.428-2.641-.916-.8.404-2.79 5.557-2.702 9.73.217 10.73 6.449 17.245 15.632 17.245 3.316 0 6.52-1.012 8.525-3.789 1.03-1.438 1.768-3.163 2.294-4.834.363-1.139 1.128-3.534.794-5.089-.085-.393-.239-.734-.485-.978z"/><path d="M82.897 36.767c0 1.139-.118 2.257-.283 3.353a21.855 21.855 0 0 1 11.808-3.461c.946 0 1.873.075 2.789.192a16.504 16.504 0 0 0 3.39-10.028c0-9.176-7.441-16.617-16.624-16.617-5.497 0-10.356 2.683-13.385 6.803 7.275 3.608 12.305 11.103 12.305 19.758z"/><path d="M65.279 96.594l-.256-.214c-1.053-.724-3.066-.5-4.199-.5a22.08 22.08 0 0 1-13.035-4.278c-1.732-1.277-3.508-2.8-4.444-4.759-1.884-3.907-5.109-1.501-7.021.883a16.854 16.854 0 0 0-1.944 3.077 16.63 16.63 0 0 0-1.675 7.271c0 9.177 7.44 16.618 16.622 16.618 3.519 0 6.774-1.097 9.459-2.96a16.731 16.731 0 0 0 5.699-6.845 16.34 16.34 0 0 0 1.289-4.418c.155-1.054.336-3.024-.495-3.875z"/><path d="M80.571 49.615c-1.89 2.747-2.747 5.897-2.716 9.027.061 6.303 3.711 12.541 9.816 15.265 7.91 3.524 17.478.16 21.483-7.493a16.577 16.577 0 0 0 1.697-5.28c.111-.788.191-1.587.191-2.406 0-9.176-7.442-16.617-16.622-16.617-5.668-.001-10.692 2.916-13.849 7.504z"/><path d="M44.452 76.56a16.476 16.476 0 0 0 1.773 5.194 16.601 16.601 0 0 0 17.709 8.378 16.417 16.417 0 0 0 2.415-.66c.947-.33 1.854-.744 2.71-1.234l.367-.224a16.617 16.617 0 0 0 7.447-9.922c.287-1.086.468-2.203.525-3.354.021-.308.048-.617.048-.926 0-.352-.031-.703-.052-1.054a16.551 16.551 0 0 0-4.756-10.636 16.665 16.665 0 0 0-6.359-3.991 16.485 16.485 0 0 0-5.455-.938c-1.911 0-3.747.341-5.456.938a16.34 16.34 0 0 0-4.227 2.192c-4.193 3.013-6.936 7.92-6.936 13.488 0 .437.031.862.065 1.288.038.492.102.982.182 1.461z"/><path d="M44.201 36.767c0 2.618.623 5.077 1.698 7.281a16.604 16.604 0 0 0 9.469 8.399c1.709.596 3.54.937 5.456.937a16.51 16.51 0 0 0 5.455-.937c4.945-1.714 8.836-5.695 10.406-10.698.495-1.575.761-3.247.761-4.982 0-6.558-3.811-12.211-9.329-14.914a16.43 16.43 0 0 0-7.293-1.704c-8.394 0-15.318 6.229-16.442 14.308a16.563 16.563 0 0 0-.181 2.31z"/><path d="M29.133 42.461c-9.177 0-16.617 7.442-16.617 16.618 0 2.013.373 3.929 1.025 5.706 2.332 6.366 8.423 10.911 15.592 10.911a16.55 16.55 0 0 0 7.148-1.629 16.603 16.603 0 0 0 2.539-1.499c4.194-3.015 6.936-7.922 6.936-13.489 0-.437-.032-.861-.066-1.288-.658-8.58-7.812-15.33-16.557-15.33z"/></g></g><path d="M14.612 84.102c-.207 2.043-1.804 3.799-3.723 1.897a6.552 6.552 0 0 1-1.696-3.013c-.305-1.183-.505-2.662.129-3.774.782-1.367 2.507-1.04 3.528-.141 1.106.969 1.697 2.497 1.789 3.937.015.284.015.674-.027 1.094z" fill="#fff"/><path d="M61.852 34.743c-.102 3.688-3.173 6.603-6.861 6.502a6.69 6.69 0 0 1-6.504-6.866 6.688 6.688 0 0 1 6.866-6.501 6.684 6.684 0 0 1 6.499 6.865z" fill="#fff"/><path d="M30.874 56.673a6.691 6.691 0 0 1-6.867 6.505 6.687 6.687 0 0 1 .368-13.368 6.685 6.685 0 0 1 6.499 6.863z" fill="#fff"/><path d="M63.225 71.428a6.687 6.687 0 0 1-6.866 6.502 6.69 6.69 0 0 1-6.499-6.866 6.684 6.684 0 1 1 13.365.364z" fill="#fff"/></g></g></svg>