<svg id="レイヤー_1" xmlns="http://www.w3.org/2000/svg" viewBox="0 0 128 128"><g><path d="M60.749 33.923c-10.862-1.41-21.571-4.025-31.687 2.285-9.45 5.897-16.691 15.975-19.454 26.745-3.897 15.227-1.584 32.573 8.827 44.77 5.718 6.691 15.23 13.815 23.73 16.472 21.816 6.822 48.786 3.586 62.481-16.737 3.908-5.805 7.825-13.666 9.256-20.554 4.011-19.262-.48-41.83-20.425-50.116-8.877-3.688-18.369-1.66-27.645-2.33a90.333 90.333 0 0 1-5.083-.535z" fill="#db4437"/><g><g><path d="M93.918.581c7.241-.235 19.382 2.996 24.291 8.171.604.646 1.755 1.556 1.918 2.364.271 1.313-.772 2.434-1.534 3.394-10.805 13.789-32.923 20.942-46.921 11.569-1.958-1.314-.908-3.744-.506-5.748 1.605-8.02 7.799-15.378 15.429-18.293 2.398-.92 4.863-1.376 7.323-1.457z" fill="#bdcf46"/></g><g><g><path d="M71.406 21.922a1.232 1.232 0 0 0-.394-.646c-.398-.307-1.229-.618-1.703-.792a6.325 6.325 0 0 0-2.215-.379c-.281 0-.552.011-.812.041-.997.123-1.858.491-2.429 1.299-.761 1.054-.63 2.24-.835 3.457-.275 1.739-1.104 3.324-1.554 5.023a50.638 50.638 0 0 0-.877 3.979 42.641 42.641 0 0 0-.468 2.95c-.43 3.668-1.028 7.345-.869 11.052.015.512.025 1.023.061 1.534.01.256.041.512.082.767.057.338.081.731.122 1.115.021.144.026.276.052.419.112.604.322 1.156.891 1.473.715.399 1.548.584 2.394.594.26 0 .515-.041.767-.062l.664-.04c.322-.093.645-.215.982-.298.531-.133 1.054-.397 1.416-.808.328-.368.369-.751.351-1.187-.008-.102-.018-.199-.028-.307a33.16 33.16 0 0 1-.093-1.191 65.522 65.522 0 0 1-.086-2.394c-.057-1.784-.031-3.585.133-5.364.106-1.063.163-2.137.251-3.201.107-1.483.317-2.946.572-4.419.057-.307.093-.607.153-.91.358-1.881 1.028-3.568 1.749-5.349.333-.818.471-1.688.774-2.48.326-.824 1.062-1.273 1.057-2.245 0-.46.041-1.111-.108-1.631z" fill="#855c52"/></g></g></g><path d="M39.167 43.587c-1.283-1.716-4.786-1.886-7.291-1.026-3.094 1.064-5.841 3.366-7.773 5.972-1.658 2.235-4.102 6.937-1.688 9.506 1.176 1.254 2.612.758 3.968.082 2.466-1.228 3.964-3.922 6.044-5.647 2.138-1.774 9.718-4.954 6.74-8.887z" fill="#fff"/></g><path d="M60.02 51.014c-2.343-.496-4.619-1.333-6.761-2.375-1.115-.547-4.362-3.134-4.694-.422-.42 3.271 4.095 6.091 6.325 7.142 3.856 1.821 8.182 2.471 12.329 1.629 3.995-.812 7.408-2.776 9.966-6.241.325-.45.549-.982.715-1.483.565-1.812-1.413-1.828-2.472-1.324-.864.411-1.596 1.066-2.454 1.481-1.638.79-3.358 1.435-5.109 1.771-2.608.495-5.257.37-7.845-.178z" fill="#b93221"/></svg>