<svg id="レイヤー_1" xmlns="http://www.w3.org/2000/svg" viewBox="0 0 128 128"><g><g><g><g><path d="M127.491 76.49c0 27.537-20.011 49.856-63.497 49.856-43.485 0-63.486-22.32-63.486-49.856 0-27.526 23.026-53.992 63.486-53.992s63.497 26.465 63.497 53.992z" fill="#fcc21b"/></g></g><path d="M70.202 34.375c0 3.832-3.915 6.936-8.738 6.936-4.838 0-8.749-3.104-8.749-6.936 0-3.841 3.911-6.945 8.749-6.945 4.823-.001 8.738 3.104 8.738 6.945z" fill="#757f3f"/></g><path d="M86.496 2.27c8.011-1.67 16.715.245 24.171 3.409.918.393 2.53.815 3.07 1.582.884 1.252.313 2.898-.021 4.249-4.832 19.299-28.665 32.09-46.986 22.86-2.388-1.204-1.744-4.023-1.7-6.351.216-9.323 5.668-17.928 13.587-22.693 2.495-1.498 5.147-2.486 7.879-3.056z" fill="#757f3f"/><path d="M37.778 57.814c-5.432-1.582-7.704 4.873-4.376 6.956.673.422 1.582.667 2.746.628 4.637-.167 6.813-6.075 1.63-7.584z" fill="#fff"/><path d="M84.248 74.348c-3.044-2.79-8.785-.187-7.032 4.116l.074.166c2.368 5.193 12.262.58 6.958-4.282z" fill="#fff"/><path d="M85.33 55.31l-.013.182c-.325 5.693 10.585 6.214 8.143-.56-1.395-3.886-7.682-4.259-8.13.378z" fill="#fff"/><path d="M23.559 86.913l-.049.167c-1.491 5.511 9.062 8.271 8.08 1.144-.555-4.086-6.636-5.751-8.031-1.311z" fill="#fff"/><path d="M102.376 78.317l.089.157c2.572 4.646 10.909-.766 5.864-4.951-2.986-2.476-7.913.678-5.953 4.794z" fill="#fff"/><path d="M51.542 105.155l.015.178c.349 5.304 10.197 3.968 7.417-1.965-1.641-3.517-7.438-2.77-7.432 1.787z" fill="#fff"/><path d="M85.575 102.012l.085.157c2.574 4.646 10.909-.756 5.865-4.947-2.981-2.47-7.913.674-5.95 4.79z" fill="#fff"/><path d="M55.713 71.249c-2.981-2.471-7.913.683-5.959 4.79l.089.157c2.583 4.646 10.914-.758 5.87-4.947z" fill="#fff"/></g></svg>