<svg id="レイヤー_1" xmlns="http://www.w3.org/2000/svg" viewBox="0 0 128 128"><g><g><g><path d="M123.686 58.489c.766-1.441 7.239-12.775 2.451-13.481-9.109-1.342-18.978-.115-27.474 3.75-.32-6.087-1.402-12.137-2.878-18.043-1.643-6.572-3.5-13.167-6.865-19.094-1.101-1.934-2.662-4.802-4.97-5.486-1.637-.482-3.646 1.45-4.701 2.583a43.431 43.431 0 0 0-4.366 5.521c-2.729 4.064-4.971 8.746-6.558 13.538-.746 2.248-1.257 4.55-1.667 6.882a65.251 65.251 0 0 0-13.577-12.774C45.34 16.472 36.313 11.039 27.163 8.441c-1.582-.45-2.805-.534-3.75-.325-2.794.625-3.154 3.866-3.139 8.06.056 15.979 4.31 33.089 14.398 45.749-1.691-.07-3.364-.11-5.001-.105-5.618.012-11.295.035-16.836 1.072C9.721 63.476.163 65.25.114 69.71c-.031 2.413 2.246 4.75 3.77 6.374 4.671 4.96 10.421 8.68 16.215 12.19 4.841 2.929 9.878 5.58 15.154 7.633-5.772 6.459-9.767 14.669-11.489 23.016-.972 4.74 11.891 2.537 13.507 2.312 7.249-1.007 14.624-2.263 21.188-5.661 2.377-1.23 4.881-2.834 7.279-4.727.385 3.004 1.025 5.848 1.977 8.256.781 1.999 5.026-1.918 5.578-2.396 5.957-5.172 10.128-12.525 11.003-20.382.006-.066.006-.134.01-.195 1.152.411 2.332.702 3.479.812 7.866.751 15.921-1.823 22.203-6.594.576-.441 5.282-3.79 3.49-4.968-2.448-1.605-5.514-2.943-8.812-3.989a46.753 46.753 0 0 0 6.443-4.926c5.442-5.009 9.147-11.506 12.577-17.976z" fill="#ed6c30"/><g fill="#f79329"><path d="M70.799 112.157s3.894-9.571 11.773-15.889c7.015-5.639 17.863-8.081 21.523-8.516 0 0-8.827.324-18.959 4.351 0 0 10.088-28.996 35.721-40.691 0 0-21.783 4.571-37.483 38.533 0 0-7.855-21.232 0-69.133 0 0-9.137 41.813-2.162 69.459 0 0-18.984-11.466-53.214-73.995 0 0 23.61 52.162 50.204 75.391 0 0-25.277-12.054-64.837-18.789C57.11 85.205 61.861 88.364 77.281 93.866c0 0-28.677 4.806-45.337 21.785 0 0 25.511-17.2 46.333-19.122 0 0-5.798 6.628-7.478 15.628z"/><path d="M31.944 116.295a.665.665 0 0 1-.498-.232.645.645 0 0 1 .042-.861c13.883-14.147 36.266-19.96 43.414-21.516a482.475 482.475 0 0 1-7.493-2.823c-10.163-3.891-20.666-7.91-54.22-17.374a.64.64 0 0 1-.455-.751.634.634 0 0 1 .736-.49c30.764 5.237 53.122 13.785 61.442 17.282-25.222-24.146-47.27-72.488-47.5-72.992a.642.642 0 0 1 .299-.836.652.652 0 0 1 .853.266c28.606 52.274 46.704 68.877 51.62 72.763-6.163-27.472 2.469-67.647 2.56-68.058.075-.341.409-.575.751-.49a.64.64 0 0 1 .509.731c-6.562 40.03-2.052 61.549-.5 67.256 15.605-32.503 37.002-37.339 37.217-37.389.347-.049.642.12.742.43a.63.63 0 0 1-.341.781C99.154 62.014 88.597 85.2 86.247 90.987c9.558-3.534 17.743-3.87 17.823-3.875h.025c.335 0 .615.254.636.589a.636.636 0 0 1-.561.688c-3.284.389-14.229 2.773-21.198 8.379-7.648 6.139-11.544 15.539-11.579 15.636a.644.644 0 0 1-.775.375.65.65 0 0 1-.451-.736c1.292-6.904 4.897-12.371 6.648-14.713-20.134 2.543-44.265 18.683-44.515 18.855a.685.685 0 0 1-.356.11zm-4.321-39.993c22.79 6.679 31.641 10.069 40.241 13.364a415.904 415.904 0 0 0 9.633 3.593.631.631 0 0 1 .42.661.631.631 0 0 1-.53.575c-.25.04-22.949 3.975-39.42 16.687 8.961-5.226 25.792-13.962 40.251-15.293.24-.047.51.108.631.351a.634.634 0 0 1-.091.711c-.039.049-3.124 3.618-5.387 8.984 1.978-3.168 4.897-7.037 8.801-10.168 2.494-2.011 5.442-3.608 8.382-4.864a67.379 67.379 0 0 0-5.188 1.79.642.642 0 0 1-.677-.129.646.646 0 0 1-.163-.671c.084-.239 6.803-19.085 22.728-32.535-7.158 5.491-15.93 14.912-23.299 30.853-.105.242-.336.371-.602.376a.63.63 0 0 1-.575-.416c-.056-.141-3.27-9.161-3.5-28.21-.195 9.656.401 19.619 2.553 28.156a.636.636 0 1 1-.951.704c-.67-.403-14.672-9.21-40.22-51.264 9.397 16.872 23.279 38.799 37.963 51.625a.65.65 0 0 1 .115.84.645.645 0 0 1-.811.221c-.22-.099-19.534-9.206-50.304-15.941z"/></g></g></g><path d="M112.477 117.956c1.406-2.133 1.857-8.572-.166-7.85-2.333.831-4.807.11-7.134-.422-2.554-.58-5.098-1.291-7.47-2.432-1.531-.736-2.988-1.603-4.325-2.653-4.236-3.344-7.234-6.779-9.812-13.873l-.296-.808-4.456 3.325.159.441c.181.5 3.145 11.404 14.159 17.611 2.301 1.297 4.766 2.287 7.26 3.144 3.318 1.133 7.829 1.462 10.532 3.905.581.522 1.113.272 1.549-.388z" fill="#f79329"/></g></svg>