<svg id="レイヤー_1" xmlns="http://www.w3.org/2000/svg" viewBox="0 0 128 128"><g fill="#757f3f"><path d="M108.167 116.391c-9.146-2.68-16.682-8.588-22.042-16.393-1.476-2.145-4.187-7.402-7.475-5.66-4.167 2.217-1.878 8.773-.495 11.939 2.268 5.227 6.071 10.227 10.752 14.072 5.314 4.371 11.785 7.258 18.486 7.33 3.434.041 6.031-2.793 6.005-6.133-.014-3.237-2.521-4.36-5.231-5.155z"/><path d="M68.875 63.531c-1.092-2.617-1.845-5.928-3.865-8.02-1.655-1.701-10.237.328-12.443.648-9.558 1.371-19.198 5.227-26.085 12.197-5.65 5.711-8.948 15.557-5.273 23.145 1.16 2.402 3.005 4.393 5.222 5.848 3.588 2.359 7.893.906 11.583 2.555 2.397 1.062 3.305 3.826 5.429 5.238 3.124 2.082 6.876 3.041 10.619 2.887.434-.01.866-.041 1.289-.092 6.474-.66 13.835-6.332 16.609-12.012 3.165-6.494 2.763-14.207.974-21.031-1.028-3.917-2.491-7.63-4.059-11.363z"/><path d="M119.343 58.635c-4.928-13.557-21.6-14.125-33.631-12.062-3.877.66-9.176 1.783-12.496 3.938-.432.279-1.103.732-1.393 1.145-.34.465-.318.773-.163 1.113 2.475 5.434 4.546 11.043 6.283 16.754 1.635 5.424 2.475 11.32 5.078 16.395 3.588 7.01 8.618 9.619 16.3 10.473 2.819.311 5.556-.793 7.741-2.432 3.188-2.381 5.848-5.27 6.826-9.238.434-1.764.443-3.434.443-5.279 0-2.072-1.108-4.33 1.103-5.66 5.635-3.405 5.929-9.591 3.909-15.147z"/><path d="M54.947 50.459c2.021-.566 4.083-.908 6.119-1.186 2.359-.33.211-6.547-.119-7.65-3.567-11.969-8.31-27.105-22.32-30.002-5.99-1.236-15.131 1.465-17.604 7.527-.912 2.236-.612 4.494-.964 6.815C12.16 28.982 5.501 38.016 8.078 46.51c1.981 6.496 8.32 9.848 14.908 10.115 11.393.473 21.227-3.145 31.961-6.166z"/><path d="M69.123 46.449c3.794-.248 7.546-2.248 11.165-3.279 8.043-2.31 17.012-2.104 24.312-6.619 1.865-1.154 2.907-3.33 3.701-5.32 1.959-4.887 2.423-11.113-.794-15.578-3.661-5.082-12.247-6.535-18.073-5.144-1.107.269-1.917.176-2.36-.938a15.271 15.271 0 0 0-3.979-5.672C79.61.817 74.795-.503 69.99.848c-3.825 1.072-6.819 3.896-8.49 7.453-5.016 10.703.511 26.012 5.36 35.951.468.949 1.127 2.279 2.263 2.197z"/></g></svg>