<svg id="レイヤー_1" xmlns="http://www.w3.org/2000/svg" viewBox="0 0 128 128"><g><path d="M60.749 33.924c-10.861-1.411-21.57-4.024-31.686 2.283-9.45 5.898-16.691 15.976-19.454 26.746-3.896 15.228-1.585 32.573 8.827 44.77 5.718 6.691 15.229 13.814 23.729 16.472 21.816 6.822 48.787 3.585 62.482-16.738 3.908-5.804 7.825-13.664 9.256-20.553 4.01-19.262-.48-41.83-20.425-50.117-8.878-3.687-18.37-1.659-27.646-2.329a91.37 91.37 0 0 1-5.083-.534z" fill="#bdcf46"/><g><g><path d="M93.918.58c7.241-.234 19.383 2.997 24.292 8.173.604.645 1.754 1.555 1.917 2.362.271 1.314-.771 2.435-1.534 3.396-10.805 13.786-32.923 20.941-46.92 11.567-1.959-1.314-.908-3.744-.506-5.748 1.604-8.019 7.799-15.378 15.429-18.293C88.993 1.118 91.459.662 93.918.58z" fill="#757f3f"/></g><g><g><path d="M71.406 21.921a1.223 1.223 0 0 0-.393-.644c-.399-.308-1.229-.619-1.703-.793-.706-.267-1.473-.379-2.215-.379-.282 0-.553.011-.812.041-.997.123-1.859.491-2.43 1.3-.76 1.053-.629 2.239-.834 3.456-.275 1.739-1.104 3.324-1.555 5.023a50.733 50.733 0 0 0-.876 3.979 42.647 42.647 0 0 0-.469 2.95c-.429 3.667-1.028 7.344-.869 11.052.015.511.025 1.023.062 1.534.01.256.041.511.081.767.057.338.082.731.123 1.115.021.143.026.276.051.419.113.604.323 1.156.891 1.474.716.398 1.549.583 2.394.593.26 0 .516-.041.768-.06l.663-.042c.323-.092.646-.215.983-.297.531-.133 1.054-.398 1.415-.808.329-.368.369-.751.352-1.187l-.029-.307c-.035-.394-.07-.793-.092-1.191a61.396 61.396 0 0 1-.086-2.394c-.057-1.784-.031-3.584.133-5.364.106-1.063.163-2.138.25-3.201.108-1.483.317-2.946.573-4.419.057-.307.092-.608.153-.91.358-1.882 1.028-3.569 1.749-5.349.333-.819.471-1.688.773-2.48.326-.823 1.062-1.273 1.058-2.245 0-.462.041-1.111-.109-1.633z" fill="#855c52"/></g></g></g><path d="M59.021 50.245c-2.344-.496-4.619-1.335-6.761-2.376-1.116-.547-4.363-3.135-4.694-.422-.42 3.271 4.095 6.091 6.325 7.143 3.855 1.82 8.181 2.47 12.329 1.628 3.994-.812 7.408-2.776 9.966-6.241.324-.45.549-.982.714-1.483.565-1.812-1.413-1.828-2.471-1.324-.864.411-1.596 1.067-2.455 1.48-1.637.79-3.358 1.435-5.109 1.773-2.607.494-5.257.369-7.844-.178z" fill="#2f2f2f"/><path d="M39.168 43.587c-1.283-1.716-4.787-1.885-7.292-1.025-3.093 1.063-5.84 3.364-7.773 5.97-1.657 2.235-4.101 6.938-1.688 9.508 1.176 1.253 2.613.757 3.969.081 2.465-1.228 3.963-3.922 6.044-5.647 2.137-1.774 9.718-4.954 6.74-8.887z" fill="#fff"/></g></svg>