<svg id="レイヤー_1" xmlns="http://www.w3.org/2000/svg" xmlns:xlink="http://www.w3.org/1999/xlink" viewBox="0 0 128 128"><g><g><g><g><defs><path id="SVGID_1_" d="M63.305 5.131c-23.3 1.3-44.885 5.213-46.676 29.329-1.231 16.669 11.092 33.723 24.14 43.48 16.833 12.576 42.584 27.736 63.452 21.155 20.288-6.396 19.346-32.841 17.305-50.391-2.753-23.635-10.229-30.385-21.391-38.441-11.418-8.235-27.996-5.642-36.83-5.132z"/></defs><use xlink:href="#SVGID_1_" overflow="visible" fill="#ed6c30"/><clipPath id="SVGID_2_"><use xlink:href="#SVGID_1_" overflow="visible"/></clipPath></g><g fill="#fff"><path d="M31.981 10.834c-.123.075-.246.142-.368.227-1.481.895-2.498 2.106-2.644 3.916-.18 2.212.414 4.776 2.172 6.317 8.198 7.217 29.679 7.519 33.346-4.689 1.095-3.659 1.07-7.519-1.584-10.636-.923-1.102-1.79-2.385-3.233-2.677-1.923-.378-4.11.414-5.995.645-2.471.302-5.341.835-7.627 1.678-3.017 1.118-6.364 2.108-9.494 3.211-1.541.542-3.149 1.198-4.573 2.008z"/><path d="M105.706 15.246c-3.365-2.857-7.378-4.657-11.757-4.374-7.291.466-12.133 6.147-12.444 13.265-.416 9.367 5.732 18.497 13.693 22.729 4.691 2.499 10.555 4.465 15.367 1.453 5.435-3.408 6.134-12.418 4.492-18.252-1.451-5.134-4.779-10.932-9.351-14.821z"/><path d="M117 87.123c3.479-4.521 3.79-10.805 3.89-16.404.033-1.636.759-13.5-2.277-13.548-1.975-.037-3.977.547-5.689 1.325-12.505 5.656-12.1 23.574-.363 30.343 1.235.702 1.564 1.141 2.678.17A14.5 14.5 0 0 0 117 87.123z"/></g><path d="M94.289 103.866c-21.392 0-43.829-14.919-55.303-23.814-16.347-12.68-25.437-29.094-25.588-46.228C15.172 7.389 46.104 1.454 64.38.246c.853-.061 2.202-.103 3.894-.103 3.752 0 13.43.218 22.244 2.282 7.005 1.631 14.604 5.774 18.916 10.304 6.894 7.236 12.729 20.478 14.867 33.724 2.496 15.508.699 32.172-2.257 39.979-3.105 8.271-8.909 13.801-16.781 15.994-3.442.956-7.132 1.44-10.974 1.44zM68.273 6.299c-1.513 0-2.716.038-3.483.086-16.272 1.074-43.786 6.095-45.239 27.618.1 10.525 4.204 26.444 23.206 41.185 10.852 8.409 31.974 22.523 51.532 22.523 3.28 0 6.419-.411 9.324-1.217 5.981-1.669 10.248-5.784 12.67-12.237 2.292-6.053 4.404-21.476 1.938-36.825-1.925-11.915-7.251-24.157-13.246-30.461-3.497-3.672-10.017-7.188-15.861-8.551-8.42-1.97-18.078-2.121-20.841-2.121z" fill="#ed6c30"/><path d="M26.296 40.81c-5.642 4.087 2.983 18.865 6.868 23.098 6.03 6.591 16.287 14.948 27.686 21.047 9.301 4.974 15.631 7.227 21.5 8.787 9.177 2.253 15.438 1.646 17.12-1.588.729-1.387-.066-6.557-5.487-13.354-5.7-7.157-16.217-16.01-21.264-19.78C56.272 46.589 42.72 41.738 39.844 40.776c-6.854-2.276-11.437-1.791-13.548.034z" fill="#855c52"/></g></g><g><defs><path id="SVGID_3_" d="M49.178 56.71c-2.479 2.059-5.823 5.222-7.989 6.579-5.111 3.202-10.574 5.535-16.117 7.199-9.207 2.748-16.339 8.372-20.215 18.059-3.629 9.343-2.743 17.313.661 23.55 4.35 8.226 11.389 12.379 18.265 14.303 8.807 2.465 23.095 3.864 36.155-13.538 5.874-7.684 12.313-24.47 14.123-34.284.198-1.084.528-2.635.745-4.209.08-.571.047-3.084-.994-4.78-.942-1.537-4.592-5.167-9.154-8.24-3.828-2.583-9.008-4.987-11.682-5.553-2.544-.539-3.352.536-3.798.914z"/></defs><use xlink:href="#SVGID_3_" overflow="visible" fill="#fcd4b5"/><clipPath id="SVGID_4_"><use xlink:href="#SVGID_3_" overflow="visible"/></clipPath><path d="M2.543 101.095s9.032 16.329 33.851 12.591c28.368-4.275 37.419-48.019 37.419-48.019l6.745 12.02s-3.154 25.78-15.768 40.557c-12.605 14.784-33.073 21.411-53.757 6.841-15.122-10.649-8.49-23.99-8.49-23.99z" clip-path="url(#SVGID_4_)" fill="#b89278"/></g></g></svg>