<svg id="レイヤー_1" xmlns="http://www.w3.org/2000/svg" viewBox="0 0 128 128"><g><g><g><g><path d="M125.884 45.191c-1.808-5.954-5.163-12.569-9.191-17.353-7.469-8.878-16.805-15.686-28.005-18.728-9.726-2.631-23.318-4.352-33.169-2.209-6.81 1.482-14.224 3.843-20.356 7.102a80.184 80.184 0 0 0-3.886 2.23C12.769 27.502 1.219 50.522.224 70.49c-1.072 21.547 12.233 42.108 31.133 48.29 6.018 1.97 12.916 3.036 19.252 3.233 19.348.601 39.969-3.872 54.816-16.947 12.394-10.923 21.91-26.686 22.388-43.54.15-5.271-.392-11.258-1.929-16.335z" fill="#db4437"/></g></g><g><path d="M79.692 49.697c-.942.565-1.738 1.294-2.686 1.824-1.191.668-2.423 1.161-3.767 1.442-3.968.817-8.043.328-12.037-.225-4.374-.603-7.936-3.12-12.033-4.546-.589-.217-1.575.03-2.139.222-2.868.917-4.821 4.587-6.949 6.563-2.409 2.241-5.164 4.037-8.232 5.201-2.973 1.134-7.312 2.614-10.083.285.457-1.346 2.824-2.314 3.815-3.317 1.164-1.201 2.034-2.585 2.761-4.074 1.526-3.11 2.278-6.539 3.674-9.683.385-.867 2.274-2.86 1.064-3.697-.613-.428-1.67-.217-2.383-.306-.969-.117-1.928-.371-2.853-.698-1.856-.652-3.665-1.622-5.164-2.905-.891-.769-2.896-2.761-2.527-4.105.302-1.096 1.824-.32 2.61-.23 1.081.12 2.023 0 2.924-.225 1.48-.371 2.814-1.072 4.458-1.538 2.818-.804 5.543-.568 8.405-.257 2.342.255 4.266-.065 5.17-2.517 1.535-4.23 3.862-9.21 7.393-12.097 1.24-1.007 2.781-2.201 4.205-2.926.635-.313 2.14-1.217 2.87-.844.872.441-.363 4.795-.504 5.518-.481 2.458-1.243 4.599-.137 6.977.786 1.673 1.588 1.873 3.19.798 5.937-3.951 13.698-1.883 19.768-5.431.535-.313 1.006-.918 1.624-1.01.387.688.008 1.787-.104 2.538-.318 2.356-1.434 4.868-3.111 6.56-2.474 2.508-4.709 3.804-7.789 5.358-1.002.507-6.317 2.653-5.861 4.344.227.839.854 1.075 1.58 1.351 2.003.782 3.604 2.715 4.915 4.401.539.677 1.023 1.31 1.721 1.835 2.49 1.913 5.157 2.169 7.973 3.269.189.954-1.089 1.733-1.761 2.145z" fill="#bdcf46"/><path d="M43.422 32.823c-2.289 2.312-2.501 5.243.482 6.907 3.896 2.191 13.477-2.155 11.226-7.38-1.668-3.873-9.398-1.871-11.708.473z" fill="#fff"/></g><g fill="#fff"><path d="M17.993 100.178c1.447 1.144 3.814 1.381 5.071-.145 1.396-1.738.379-5.093-1.201-6.452-1.343-1.171-3.745-.72-4.764.616-1.181 1.549-.784 4.043.362 5.479.152.188.32.357.532.502z"/><path d="M10.269 69.123c-.313 1.175-.509 2.374-.65 3.443-.679 4.979.253 9.596 2.674 13.977.873 1.571 2.814 3.625 4.801 3.119 2.051-.523 2.625-2.964 2.978-4.758.536-2.798.764-5.651.768-8.497.012-3.897.411-9.335-3.117-11.976-1.704-1.272-3.604-1.075-5.136.339-1.171 1.084-1.874 2.692-2.318 4.353z"/></g></g></g></svg>