<svg id="レイヤー_1" xmlns="http://www.w3.org/2000/svg" viewBox="0 0 128 128"><g><g fill="#fff"><path d="M58.833 90.506c-.649.019-1.303.047-1.944.047-1.655 0-3.274-.066-4.817-.132-3.344-.142-6.665-.32-9.976-.509-.689-.037-1.382-.065-2.074-.103.305.526.622 1.091.909 1.76.88 2.08 1.516 4.047 2.282 5.733.801 1.769 1.662 3.492 2.531 5.224 2.504-.611 5-1.205 7.452-1.807 1.966-.481 3.924-.942 5.849-1.402.608-.151 1.157-.236 1.625-.339a.963.963 0 0 0 .154-.038 143.204 143.204 0 0 1-1.618-6.674c-.076-.414-.259-.979-.373-1.76z"/><path d="M67.334 69.581c-.701-.951-1.295-1.854-1.864-2.693-.325.189-.734.443-1.332.744-1.224.593-2.371.848-3.326 1.063-.961.207-1.739.367-2.298.584-2.382.875-4.781 1.13-6.763 1.402-1.295.179-2.593.339-3.893.48-.25.019-.5.027-.743.038-.739.931-1.497 2.24-2.271 3.689-.808 1.524-1.64 3.19-2.699 4.771-1.017 1.507-1.911 2.834-2.48 4.096.922.056 1.85.094 2.767.141 3.309.188 6.609.367 9.89.509 1.538.065 3.078.122 4.568.122 1.502 0 2.953-.075 4.327-.245l.254-.216c3.369-2.683 6.641-5.469 9.911-8.283-1.365-2.202-2.646-4.33-4.048-6.202z"/><path d="M77.895 93.461c-.982-3.135-2.376-6.438-3.37-10.053a29.714 29.714 0 0 1-.423-2.015c-2.904 2.485-5.838 4.961-8.882 7.39-.085.057-.229.188-.441.367-.01.122-.014.188-.014.226.009.272.131.734.334 1.638.71 3.323 1.595 6.617 2.55 9.902.396-.263.8-.536 1.22-.8 1.572-.96 3.078-1.816 4.452-2.711 1.304-.828 2.763-2.212 4.697-3.445-.047-.217-.085-.396-.123-.489v-.01z"/><path d="M72.102 58.803c-.716.706-1.36 1.572-2.044 2.589l-.046.104c-.051.112-.136.301-.231.518-.043.085-.094.197-.141.291l.4.584c.781 1.13 1.459 2.203 2.122 3.088 1.44 1.938 2.658 3.915 3.836 5.826.207-.179.409-.357.617-.536 4.137-3.577 8.387-6.994 12.659-10.345-.593-.48-1.1-.904-1.378-1.063-1.826-1.168-3.426-2.316-5-3.145-2.073-1.092-4.019-2.438-5.854-3.793-1.467 1.975-3.039 3.99-4.94 5.882z"/><path d="M85.631 71.585c-1.702 1.402-3.41 2.796-5.078 4.236-.454.396-.906.79-1.364 1.177.119.272.231.536.319.847v-.009c.476 1.685.558 3.05.83 3.981.71 2.617 1.779 5.347 2.759 8.218.103-.104.192-.198.3-.302 3.026-2.918 6.297-5.28 9.39-7.597-1.182-1.608-2.743-3.322-4.086-5.723-.904-1.655-1.963-3.265-3.07-4.828z"/><path d="M60.561 61.26c.255.451.396.81.526 1.11.138-.057.302-.104.42-.16.25-.112.72-.423 1.417-.81.25-.489.584-.932 1.058-1.232.114-.207.259-.519.425-.904.154-.329.287-.668.616-1.177.772-1.157 1.662-2.399 2.844-3.577 1.547-1.515 2.946-3.313 4.365-5.224-.187-.132-.379-.282-.564-.414-1.199-.866-2.676-1.93-4.131-3.097a39.313 39.313 0 0 1-2.452-2.137c-.194.094-.404.179-.593.272-2.763 1.422-5.606 2.786-8.586 3.953-.153.057-.653.32-1.232.659-.296.17-.615.349-.964.537 1.694 3.294 3.431 6.532 5.342 9.648a85.861 85.861 0 0 1 1.509 2.553z"/><path d="M86.767 40.07c-.456.5-.853.999-1.266 1.629-1.544 2.325-3.252 4.396-4.829 6.4 1.713 1.271 3.394 2.438 5.026 3.286 2.08 1.101 3.808 2.362 5.417 3.379.961.612 1.656 1.261 2.269 1.732.325.264.608.451.81.574 1.36-1.055 2.716-2.1 4.066-3.144.367-.282.753-.621 1.157-.979a50.251 50.251 0 0 1 2.979 5.365c-.155.122-.291.254-.456.386-2.287 1.76-4.575 3.521-6.845 5.29-1.609 1.252-3.194 2.532-4.789 3.793 1.341 1.864 2.605 3.784 3.68 5.742.8 1.516 2.132 2.984 3.518 4.857 1.787-1.534 3.574-3.153 5.49-4.754a59.088 59.088 0 0 0 3.004-2.673c.046-.038.163-.17.319-.349.179 1.13.323 2.26.419 3.398.122 1.412.159 2.814.14 4.226-.003 0-.012.01-.018.02-1.962 1.638-3.921 3.436-6.015 5.205-4.593 3.869-9.45 6.909-13.26 10.608-.395.367-.821.838-1.297 1.347.372.254.771.555 1.186.96 2.641 2.607 5.187 5.187 7.884 7.304.517.414.954.828 1.379 1.196.268.235.508.433.734.602a48.095 48.095 0 0 1-3.901 4.594 1.1 1.1 0 0 1-.143-.104c-.79-.649-1.454-1.29-1.797-1.554-3.097-2.438-5.789-5.186-8.393-7.755-.1-.123-.578-.434-1.3-.867-.262-.169-.574-.366-.897-.602-1.219.79-2.617 2.07-4.43 3.267-1.585 1.035-3.144 1.91-4.589 2.805-.286.169-.841.556-1.483.97-.333.216-.694.433-1.091.648.561 1.808 1.106 3.54 1.771 5.046.852 1.968 2.019 4.104 2.847 6.684.175.555.378 1.082.597 1.6a51.04 51.04 0 0 1-6.056.988c-.095-.254-.192-.489-.282-.762-.589-1.873-1.623-3.822-2.623-6.091-1.101-2.522-1.797-5.073-2.525-7.323-.24-.753-.443-1.525-.674-2.277-.108.027-.221.056-.329.085-.744.159-1.408.273-1.714.348-1.949.471-3.896.923-5.821 1.402-2.033.499-4.058.97-6.058 1.45.379.715.744 1.431 1.129 2.155 1.187 2.24 1.889 4.434 2.66 6.325.202.518.659 1.327 1.153 2.259.324.621.653 1.347.939 2.146-2.494-.349-4.955-.8-7.345-1.44-.114-.235-.231-.451-.334-.706-.862-2.155-1.521-4.132-2.396-5.76-.612-1.158-1.21-2.316-1.816-3.464-.033.009-.07.019-.108.027-3.248.876-6.419 1.554-9.502 2.325-.357.085-.669.16-1.007.245a41.929 41.929 0 0 1-2.452-2.128c-.024-.019-.043-.047-.067-.065-.343-.33-.682-.659-1.016-.998v-.01a31.993 31.993 0 0 1-.885-.941c-.042-.037-.081-.084-.124-.131-.008-.01-.018-.028-.027-.038-.149-.16-.306-.329-.458-.499 1.664-.611 3.231-.941 4.577-1.28 2.838-.706 5.589-1.327 8.277-2.023-.691-1.402-1.398-2.786-2.051-4.236-.945-2.108-1.592-4.113-2.339-5.864-.207-.508-.71-1.317-1.285-2.287a15.56 15.56 0 0 1-1.077-2.174 211.039 211.039 0 0 0-9.461-.227h-1.1c-1.668 0-3.217-.15-4.684-.301a58.61 58.61 0 0 1-.646-3.53 89.402 89.402 0 0 1-.232-1.731c-.036-.302-.088-.603-.121-.903 2.047.206 3.926.451 5.682.441h1.1c3.252 0 6.49.095 9.714.227.231-.594.457-1.13.594-1.469.912-2.287 2.217-4.075 3.271-5.657.768-1.148 1.544-2.654 2.391-4.254a40.658 40.658 0 0 1 1.784-3.031c-2.444-1.525-5.026-3.126-7.619-4.866-.203.169-.43.357-.683.555-2.989 2.278-6.082 3.841-8.655 5.61-1.126.771-2.307 1.77-3.64 2.795-1.224.951-2.62 1.921-4.248 2.692.004-.263-.015-.536-.006-.8.046-2.23.34-4.527.843-6.872 1.11-.865 2.287-1.854 3.652-2.786 2.703-1.835 5.347-3.256 7.596-4.856-2.184-1.676-4.272-3.464-6.175-5.403a38.112 38.112 0 0 1 3.541-5.036c2.568 2.796 5.798 5.394 9.275 7.823.197.103.367.226.54.366 3.276 2.26 6.712 4.396 9.937 6.4.428.264.697.405.852.462l.429.075.272-.019c1.225-.132 2.467-.282 3.718-.452 1.501-.197 2.994-.396 4.246-.706a67.662 67.662 0 0 0-1.28-2.155c-3.516-5.751-6.416-11.682-9.333-17.518-.863-1.723-2.024-3.605-3.172-5.619l-.03-.057c1.823-.791 3.757-1.469 5.752-2.081.942 1.62 1.949 3.286 2.84 5.065.343.688.677 1.355 1.014 2.033.063-.028.11-.047.171-.084.697-.367 1.474-.895 2.551-1.328 2.706-1.062 5.369-2.343 8.039-3.708 3.351-1.704 6.66-2.806 9.489-4.16.019 0 .036.009.061.009-.112.442-.227.885-.34 1.317-.33 1.28-.653 2.562-.979 3.832-.026.122-.041.234-.065.348-.121.574-.17 1.139-.085 1.684.085.537.284 1.036.707 1.441.423.415.833.754 1.383 1.008a8.7 8.7 0 0 0 3.663.8c.249 0 .498.019.743-.01a6.849 6.849 0 0 0 1.365-.272c1.854-.603 2.1-2.636 2.324-4.273.075-.574.218-1.139.325-1.704.048-.065.099-.132.141-.207.273-.414.556-.801.838-1.157 1.9.809 3.722 1.759 5.454 2.859z"/></g><g fill="#bdcf46"><path d="M58.833 90.506c-.649.019-1.303.047-1.944.047-1.655 0-3.274-.066-4.817-.132-3.344-.142-6.665-.32-9.976-.509-.689-.037-1.382-.065-2.074-.103.305.526.622 1.091.909 1.76.88 2.08 1.516 4.047 2.282 5.733.801 1.769 1.662 3.492 2.531 5.224 2.504-.611 5-1.205 7.452-1.807 1.966-.481 3.924-.942 5.849-1.402.608-.151 1.157-.236 1.625-.339a.963.963 0 0 0 .154-.038 143.204 143.204 0 0 1-1.618-6.674c-.076-.414-.259-.979-.373-1.76z"/><path d="M67.334 69.581c-.701-.951-1.295-1.854-1.864-2.693-.325.189-.734.443-1.332.744-1.224.593-2.371.848-3.326 1.063-.961.207-1.739.367-2.298.584-2.382.875-4.781 1.13-6.763 1.402-1.295.179-2.593.339-3.893.48-.25.019-.5.027-.743.038-.739.931-1.497 2.24-2.271 3.689-.808 1.524-1.64 3.19-2.699 4.771-1.017 1.507-1.911 2.834-2.48 4.096.922.056 1.85.094 2.767.141 3.309.188 6.609.367 9.89.509 1.538.065 3.078.122 4.568.122 1.502 0 2.953-.075 4.327-.245l.254-.216c3.369-2.683 6.641-5.469 9.911-8.283-1.365-2.202-2.646-4.33-4.048-6.202z"/><path d="M77.895 93.461c-.982-3.135-2.376-6.438-3.37-10.053a29.714 29.714 0 0 1-.423-2.015c-2.904 2.485-5.838 4.961-8.882 7.39-.085.057-.229.188-.441.367-.01.122-.014.188-.014.226.009.272.131.734.334 1.638.71 3.323 1.595 6.617 2.55 9.902.396-.263.8-.536 1.22-.8 1.572-.96 3.078-1.816 4.452-2.711 1.304-.828 2.763-2.212 4.697-3.445-.047-.217-.085-.396-.123-.489v-.01z"/><path d="M72.102 58.803c-.716.706-1.36 1.572-2.044 2.589l-.046.104c-.051.112-.136.301-.231.518-.043.085-.094.197-.141.291l.4.584c.781 1.13 1.459 2.203 2.122 3.088 1.44 1.938 2.658 3.915 3.836 5.826.207-.179.409-.357.617-.536 4.137-3.577 8.387-6.994 12.659-10.345-.593-.48-1.1-.904-1.378-1.063-1.826-1.168-3.426-2.316-5-3.145-2.073-1.092-4.019-2.438-5.854-3.793-1.467 1.975-3.039 3.99-4.94 5.882z"/><path d="M85.631 71.585c-1.702 1.402-3.41 2.796-5.078 4.236-.454.396-.906.79-1.364 1.177.119.272.231.536.319.847v-.009c.476 1.685.558 3.05.83 3.981.71 2.617 1.779 5.347 2.759 8.218.103-.104.192-.198.3-.302 3.026-2.918 6.297-5.28 9.39-7.597-1.182-1.608-2.743-3.322-4.086-5.723-.904-1.655-1.963-3.265-3.07-4.828z"/><path d="M60.561 61.26c.255.451.396.81.526 1.11.138-.057.302-.104.42-.16.25-.112.72-.423 1.417-.81.25-.489.584-.932 1.058-1.232.114-.207.259-.519.425-.904.154-.329.287-.668.616-1.177.772-1.157 1.662-2.399 2.844-3.577 1.547-1.515 2.946-3.313 4.365-5.224-.187-.132-.379-.282-.564-.414-1.199-.866-2.676-1.93-4.131-3.097a39.313 39.313 0 0 1-2.452-2.137c-.194.094-.404.179-.593.272-2.763 1.422-5.606 2.786-8.586 3.953-.153.057-.653.32-1.232.659-.296.17-.615.349-.964.537 1.694 3.294 3.431 6.532 5.342 9.648a85.861 85.861 0 0 1 1.509 2.553z"/><path d="M82.949 28.935c.411-.565.988-.885 1.804-.809.173.009.338.009.536.065 1.615.48 3.328.734 4.984 1.045.584.104 1.167.19 1.754.282 2.542.425 5.098.791 7.664 1.064 4.08.423 8.188.705 12.293.753.229 0 .465.01.701.01h.085a4.825 4.825 0 0 0 4.805-4.839c-.009-2.654-2.17-4.8-4.842-4.8-.496 0-18.217-.048-31.591-4.727-16.647-5.806-25.88-15.002-25.974-15.096a4.816 4.816 0 0 0-6.806-.057 4.82 4.82 0 0 0-.07 6.814c1.289 1.318 2.734 2.495 4.174 3.634 3.587 2.834 7.432 5.328 11.427 7.53a88.8 88.8 0 0 0 6.515 3.248c.409.188 1.003.376 1.337.678 1.463 1.299 1.486 2.701 1.162 4.272-.032.17-.08.358-.122.537-.142-.019-.273-.057-.419-.075-.07-.01-.151-.018-.223-.027-.488-.067-.992-.104-1.486-.161-.691-.075-1.374-.169-2.08-.226-.603-.037-1.233-.037-1.85-.057-.683-.027-1.356-.075-2.047-.075h-.057c-4.457 0-9.051.451-13.418 1.374-2.321.48-4.566 1.111-6.761 1.817-1.933.62-3.825 1.308-5.642 2.108a52.07 52.07 0 0 0-3.614 1.741c-9.328 4.961-16.76 12.585-21.1 23.306-2.141 5.29-3.52 10.882-3.646 16.604-.122 5.507.412 11.042 1.661 16.397 3.328 14.261 13.437 26.686 27.199 32.004 1.039.405 2.112.772 3.195 1.121.33.112.663.207.997.311.786.234 1.577.461 2.383.668.361.104.729.197 1.096.282.899.226 1.807.424 2.721.603.243.047.485.104.728.15 1.149.217 2.308.396 3.478.556.312.037.622.066.937.104.881.104 1.761.197 2.649.264.396.037.786.057 1.181.084a59.01 59.01 0 0 0 2.623.104c.339.009.677.027 1.016.027.133 0 .264.01.395.01.32 0 .641-.037.961-.037a75.961 75.961 0 0 0 3.234-.123 75.784 75.784 0 0 0 1.567-.132 56.662 56.662 0 0 0 2.838-.329h-.006c.043-.01.09-.01.133-.019.518-.076 1.036-.142 1.548-.235a59.218 59.218 0 0 0 3.196-.641c.386-.094.78-.169 1.167-.264a.875.875 0 0 0 .145-.047l.005.01a49.538 49.538 0 0 0 4.049-1.215c.286-.103.564-.226.853-.339a46.478 46.478 0 0 0 3.186-1.299c.452-.207.895-.433 1.337-.658a38.716 38.716 0 0 0 2.551-1.375c.45-.264.899-.527 1.337-.81a41.64 41.64 0 0 0 2.437-1.703c.373-.282.749-.546 1.112-.829a39.347 39.347 0 0 0 3.232-2.908c10.642-10.881 16.453-25.876 15.16-41.106-.023-.254-.066-.509-.094-.762a50.044 50.044 0 0 0-.537-3.832c-.588-3.341-1.492-6.673-2.754-9.761a67.697 67.697 0 0 0-1.567-3.539c-.07-.142-.149-.273-.221-.415-.119-.244-.244-.47-.369-.705a52.65 52.65 0 0 0-1.156-2.231c-.089-.16-.188-.301-.277-.451a52.038 52.038 0 0 0-1.558-2.58c-.028-.047-.052-.094-.079-.132-.293-.451-.617-.875-.919-1.308-.391-.564-.764-1.13-1.168-1.666-.29-.386-.61-.743-.912-1.12-.442-.556-.88-1.12-1.348-1.657-.309-.357-.644-.678-.969-1.025-.48-.518-.95-1.045-1.449-1.535-.362-.358-.748-.687-1.12-1.025-.484-.452-.96-.912-1.464-1.337-.41-.339-.842-.65-1.261-.979-.494-.386-.974-.791-1.483-1.148-.441-.319-.912-.602-1.369-.903-.508-.34-1.007-.697-1.529-1.008-.391-.235-.805-.442-1.205-.658-.074-.048-.155-.085-.23-.132a1.955 1.955 0 0 1-.188-.104c-.479-.254-.94-.536-1.431-.781-.461-.226-.946-.423-1.422-.64-.592-.264-1.176-.556-1.787-.791-.26-.104-.527-.188-.791-.282.013-.047.028-.094.043-.141.185-.697.44-1.383.82-1.911zm3.818 11.135c-.456.5-.853.999-1.266 1.629-1.544 2.325-3.252 4.396-4.829 6.4 1.713 1.271 3.394 2.438 5.026 3.286 2.08 1.101 3.808 2.362 5.417 3.379.961.612 1.656 1.261 2.269 1.732.325.264.608.451.81.574 1.36-1.055 2.716-2.1 4.066-3.144.367-.282.753-.621 1.157-.979a50.251 50.251 0 0 1 2.979 5.365c-.155.122-.291.254-.456.386-2.287 1.76-4.575 3.521-6.845 5.29-1.609 1.252-3.194 2.532-4.789 3.793 1.341 1.864 2.605 3.784 3.68 5.742.8 1.516 2.132 2.984 3.518 4.857 1.787-1.534 3.574-3.153 5.49-4.754a59.088 59.088 0 0 0 3.004-2.673c.046-.038.163-.17.319-.349.179 1.13.323 2.26.419 3.398.122 1.412.159 2.814.14 4.226-.003 0-.012.01-.018.02-1.962 1.638-3.921 3.436-6.015 5.205-4.593 3.869-9.45 6.909-13.26 10.608-.395.367-.821.838-1.297 1.347.372.254.771.555 1.186.96 2.641 2.607 5.187 5.187 7.884 7.304.517.414.954.828 1.379 1.196.268.235.508.433.734.602a48.095 48.095 0 0 1-3.901 4.594 1.1 1.1 0 0 1-.143-.104c-.79-.649-1.454-1.29-1.797-1.554-3.097-2.438-5.789-5.186-8.393-7.755-.1-.123-.578-.434-1.3-.867-.262-.169-.574-.366-.897-.602-1.219.79-2.617 2.07-4.43 3.267-1.585 1.035-3.144 1.91-4.589 2.805-.286.169-.841.556-1.483.97-.333.216-.694.433-1.091.648.561 1.808 1.106 3.54 1.771 5.046.852 1.968 2.019 4.104 2.847 6.684.175.555.378 1.082.597 1.6a51.04 51.04 0 0 1-6.056.988c-.095-.254-.192-.489-.282-.762-.589-1.873-1.623-3.822-2.623-6.091-1.101-2.522-1.797-5.073-2.525-7.323-.24-.753-.443-1.525-.674-2.277-.108.027-.221.056-.329.085-.744.159-1.408.273-1.714.348-1.949.471-3.896.923-5.821 1.402-2.033.499-4.058.97-6.058 1.45.379.715.744 1.431 1.129 2.155 1.187 2.24 1.889 4.434 2.66 6.325.202.518.659 1.327 1.153 2.259.324.621.653 1.347.939 2.146-2.494-.349-4.955-.8-7.345-1.44-.114-.235-.231-.451-.334-.706-.862-2.155-1.521-4.132-2.396-5.76-.612-1.158-1.21-2.316-1.816-3.464-.033.009-.07.019-.108.027-3.248.876-6.419 1.554-9.502 2.325-.357.085-.669.16-1.007.245a41.929 41.929 0 0 1-2.452-2.128c-.024-.019-.043-.047-.067-.065-.343-.33-.682-.659-1.016-.998v-.01a31.993 31.993 0 0 1-.885-.941c-.042-.037-.081-.084-.124-.131-.008-.01-.018-.028-.027-.038-.149-.16-.306-.329-.458-.499 1.664-.611 3.231-.941 4.577-1.28 2.838-.706 5.589-1.327 8.277-2.023-.691-1.402-1.398-2.786-2.051-4.236-.945-2.108-1.592-4.113-2.339-5.864-.207-.508-.71-1.317-1.285-2.287a15.56 15.56 0 0 1-1.077-2.174 211.039 211.039 0 0 0-9.461-.227h-1.1c-1.668 0-3.217-.15-4.684-.301a58.61 58.61 0 0 1-.646-3.53 89.402 89.402 0 0 1-.232-1.731c-.036-.302-.088-.603-.121-.903 2.047.206 3.926.451 5.682.441h1.1c3.252 0 6.49.095 9.714.227.231-.594.457-1.13.594-1.469.912-2.287 2.217-4.075 3.271-5.657.768-1.148 1.544-2.654 2.391-4.254a40.658 40.658 0 0 1 1.784-3.031c-2.444-1.525-5.026-3.126-7.619-4.866-.203.169-.43.357-.683.555-2.989 2.278-6.082 3.841-8.655 5.61-1.126.771-2.307 1.77-3.64 2.795-1.224.951-2.62 1.921-4.248 2.692.004-.263-.015-.536-.006-.8.046-2.23.34-4.527.843-6.872 1.11-.865 2.287-1.854 3.652-2.786 2.703-1.835 5.347-3.256 7.596-4.856-2.184-1.676-4.272-3.464-6.175-5.403a38.112 38.112 0 0 1 3.541-5.036c2.568 2.796 5.798 5.394 9.275 7.823.197.103.367.226.54.366 3.276 2.26 6.712 4.396 9.937 6.4.428.264.697.405.852.462l.429.075.272-.019c1.225-.132 2.467-.282 3.718-.452 1.501-.197 2.994-.396 4.246-.706a67.662 67.662 0 0 0-1.28-2.155c-3.516-5.751-6.416-11.682-9.333-17.518-.863-1.723-2.024-3.605-3.172-5.619l-.03-.057c1.823-.791 3.757-1.469 5.752-2.081.942 1.62 1.949 3.286 2.84 5.065.343.688.677 1.355 1.014 2.033.063-.028.11-.047.171-.084.697-.367 1.474-.895 2.551-1.328 2.706-1.062 5.369-2.343 8.039-3.708 3.351-1.704 6.66-2.806 9.489-4.16.019 0 .036.009.061.009-.112.442-.227.885-.34 1.317-.33 1.28-.653 2.562-.979 3.832-.026.122-.041.234-.065.348-.121.574-.17 1.139-.085 1.684.085.537.284 1.036.707 1.441.423.415.833.754 1.383 1.008a8.7 8.7 0 0 0 3.663.8c.249 0 .498.019.743-.01a6.849 6.849 0 0 0 1.365-.272c1.854-.603 2.1-2.636 2.324-4.273.075-.574.218-1.139.325-1.704.048-.065.099-.132.141-.207.273-.414.556-.801.838-1.157 1.9.809 3.722 1.759 5.454 2.859z"/></g></g></svg>