<svg id="レイヤー_1" xmlns="http://www.w3.org/2000/svg" viewBox="0 0 128 128"><g><path d="M90.075 105.539c-1.204.436-2.043 1.402-3.294 1.785a101.795 101.795 0 0 1-7.13 1.91c-1.009.102-2.948-.273-2.917-4.662l-.035.017c-.449-8.223-4.289-16.449-10.714-21.605-4.043-3.25-8.594-5.867-13.499-7.561-7.644-2.746-15.904-3.311-23.955-2.645-7.023.594-14.412 2.623-20.659-1.846-.504-.354-1.145-1.484-1.77-1.566-.953-.121-.974 1.344-1.044 1.939-.602 4.742-.268 9.568.661 14.238 3.203 16.129 13.068 33.67 29.087 39.918 10.34 4.027 27.607 2.572 36.504-6.035v.041s3.279-3.01 8.68-4.393l-.005-.01c.948-.182 1.897-.361 2.851-.564 1.464-.303 3.049-.424 4.552-.656.722-.111 1.434-.09 2.119-.133 2.69-.139 4.79.043 5.168-3.51.261-2.39-1.839-5.629-4.6-4.662z" fill="#757f3f"/><path d="M100.3 69.893a40.344 40.344 0 0 1-4.455 8.658c-3.028 4.473-7.429 7.711-11.451 11.236-.514.441-1.009 1.059-.923 1.795.087.727.672 1.1 1.367 1.16 1.631.131 3.069-1.08 4.376-1.877 2.522-1.545 4.98-3.299 7.145-5.32a76.446 76.446 0 0 0 2.316-2.24c2.206-2.209 4.254-4.58 6.041-7.145 1.842-2.654 3.401-5.522 4.435-8.588a24.787 24.787 0 0 0 1.11-4.725c-2.885 1.715-5.975 3.131-9.108 4.311-.263.918-.519 1.838-.853 2.735z" fill="#40c0e7"/><path d="M121.631 25.83c-.894-2.332-2.16-4.512-3.704-6.478-1.555-1.981-3.371-3.748-5.339-5.301-2.028-1.613-4.219-3.006-6.495-4.248a64.133 64.133 0 0 0-7.155-3.301 85.537 85.537 0 0 0-7.342-2.473 104.888 104.888 0 0 0-7.029-1.756 81.61 81.61 0 0 0-7.15-1.191C75.187.818 72.95.467 70.704.436c-.327-.01-.822-.041-1.356-.041h-.172c-.974.022-2.029.162-2.388.799-.389.697.485 1.373 1.137 1.424.676.049 1.356.07 2.027.141 2.171.232 4.331.443 6.49.727 2.266.281 4.491.828 6.712 1.363.782.191 1.559.383 2.337.584 2.532.666 5.035 1.434 7.483 2.363 2.498.947 4.944 2.057 7.262 3.4 2.239 1.291 4.374 2.805 6.236 4.604 1.797 1.732 3.336 3.744 4.41 5.992a18.545 18.545 0 0 1 1.776 7.57l.005.465c0 6.652-3.255 11.465-7.974 14.976-2.175 1.625-4.657 2.957-7.281 4.066-12.539 5.279-28.24 5.289-28.24 5.289s-.74.021-1.936.01a45.5 45.5 0 0 1-1.933-.041c-6.439-.18-18.661-1.229-18.661-6.58 0-6.518 16.203-8.244 16.203-8.244 12.722-.9 23.944 1.807 31.181 6.783 2.896-1.061 5.627-2.395 7.942-4.059-8.139-7.115-21.657-10.557-39.123-8.75 0 0-34.4 3.006-29.627 21.77 2.988 11.729 23.415 13.656 32.079 13.938.741.029 1.392.039 1.943.051 1.217.01 1.931-.012 1.931-.012s17.8-.01 32.975-6.437c2.896-1.221 5.682-2.693 8.24-4.43 7.736-5.24 13.32-13.01 12.832-24.557-.115-2.655-.63-5.288-1.583-7.77z" fill="#40c0e7"/></g></svg>