<svg id="レイヤー_1" xmlns="http://www.w3.org/2000/svg" xmlns:xlink="http://www.w3.org/1999/xlink" viewBox="0 0 128 128"><g><g><defs><path id="SVGID_1_" d="M5.708 68.437c1.985-24.339 16.402-46.346 39.55-55.06 6.983-2.629 14.164-4.938 21.616-5.709 8.058-.838 15.835.655 23.844 1.157 5.263.33 11.618.414 16.848.144 10.312-.535 22.491 13.425 19.129 24.195-3.02 9.645-2.137 15.162-3.526 27.161-2.822 24.338-23.742 50.286-51.004 56.933-7.87 1.918-14.098 3.593-22.204 3.29-7.546-.286-16.495-2.408-23.975-3.285-3.291-.385-6.608.165-9.904-.331-4.359-.656-7.738-3.208-10.483-6.696-2.85-3.643-4.85-8.323-4.86-13.051 0-4.596 2.016-8.884 2.662-13.387.83-5.794 1.827-9.531 2.307-15.361z"/></defs><use xlink:href="#SVGID_1_" overflow="visible" fill="#fcc21b"/><clipPath id="SVGID_2_"><use xlink:href="#SVGID_1_" overflow="visible"/></clipPath><path d="M123.973 50.908S120.402 78.36 88.57 97.019c-32.045 18.786-49.754 11.442-60.689 12.5-10.934 1.059-13.452 3.698-23.219-.614 0 0 3.527 10.78 12.347 12.544 8.817 1.764 47.973 7.759 61.726 3.174 13.758-4.586 40.564-17.637 45.855-46.208 4.365-23.583-.617-27.507-.617-27.507z" clip-path="url(#SVGID_2_)" fill="#f79329"/></g><path d="M35.475 36.33c-2.654 2.139-5.064 4.996-6.183 6.333-3.483 4.172-5.854 9.033-7.446 14.216-1.631 5.335-5.312 19.142 2.117 22.016 6.287 2.439 8.763-4.519 10.218-9.149 2.617-8.449 3.384-16.978 7.606-24.898 1.332-2.505 5.268-10.477-.111-11.203-2.238-.302-4.563 1.359-6.201 2.685z" fill="#fff"/></g></svg>