<svg id="レイヤー_1" xmlns="http://www.w3.org/2000/svg" xmlns:xlink="http://www.w3.org/1999/xlink" viewBox="0 0 128 128"><g><g><g><g><path d="M45.585 58.443c-1.854 1.514-3.693 3.306-5.154 5.188-1.76 2.293-3.307 4.829-4.498 7.465-2.221 4.91-3.816 10.532-4.488 16.016-.934 7.681-.164 15.864 3.332 22.87 1.992 4.01 4.854 7.443 8.223 10.119 12.383 9.845 33.801 10.177 45.869-.458 5.248-4.624 8.227-11.318 9.504-18.111 2.092-11.053.23-23.198-5.127-33.105-5.332-9.845-14.727-17.267-26.291-17.361-3.637-.037-7.699.594-11.129 1.854-3.389 1.243-7.189 3.081-10.018 5.348-.073.06-.149.117-.223.175z" fill="#fcc21b"/><g><defs><path id="SVGID_1_" d="M95.353 40.033a74.171 74.171 0 0 1 4.771-4.559c1.072-.929 3.277-1.894 3.596-3.375.254-1.171-.971-1.547-1.846-1.629-1.455-.151-3.012 0-4.475 0-1.441-.009-2.861.098-4.291.189-.234.016-.506.057-.768.089-.867-.008-1.812-.122-1.391-1.296.033-.099.082-.193.098-.3a2.24 2.24 0 0 0 .053-.168c2.461-6.383 7.223-9.391 11.773-13.974.957-.953.205-1.833-.945-1.923-4.375-.344-8.896-.168-13.145 1.007a18.77 18.77 0 0 0-3.404 1.306c-.494.081-1.166.634-1.625.523-.506-.122-.67-.483-.697-.921.256-1.473.547-2.954.943-4.436.697-2.623 1.621-5.189 2.846-7.611.15-.307.771-1.072.82-1.367.234-1.562-3.74-1.08-4.51-1.03-2.822.204-5.471.715-8.164 1.665-2.645.935-5.084 2.394-7.188 4.235-.383.34-1.91 2.032-2.592 2.435-.879.516-1.842.491-2.506.2-.369-.164-.732-.4-1.078-.622C57.233 4.232 50.892 1.753 44.087.64c-1.957-.319-3.547.83-2.359 2.799 2.385 3.985 5.006 8 6.195 12.525.24 1.275.392 2.598-.863 2.586-.158 0-2.1-.291-2.627-.418-2.865-.681-5.787-1.094-8.707-1.059-1.281.016-12.883 1.611-10.684 3.984 1.178 1.269 3.406 1.702 4.814 2.685 2.334 1.625 4.66 3.29 6.67 5.32 1.252 1.275 2.438 2.717 3.127 4.394.311.753.508 1.556.533 2.37.012.83-.172 1.403-1.131 1.272-.695-.098-1.436-.039-2.145-.098-3.322-.283-8.109.482-9.746 1.108-.99.381-2.676.99-2.898 2.214-.229 1.293 1.506 1.432 2.422 1.759 1.123.401 2.129.909 3.25 1.375 1.85.773 3.844 1.489 5.492 2.672.773.553 3.109 2.697 2.721 3.72-.281.758-2.004.859-2.649 1.015-.939.217-1.98.405-2.859.835-.66.319-2.16.946-2.059 1.866.123.978 1.893 1.146 2.619 1.392 8.238 2.803 14.236 9.894 23.025 11.793 5.238 1.12 10.873 1.26 16.209.176 2.729-.172 5.605-1.068 7.754-1.793 4.449-1.502 8.711-3.892 12.059-7.205.855-.835 1.506-1.883 2.346-2.754.725-.749 1.508-1.498 2.18-2.28a18.745 18.745 0 0 1 2.037-2.046c.471-.408 1.322-.99 1.449-1.632.27-1.399-1.898-1.731-2.873-1.847a20.64 20.64 0 0 0-2.512-.13c-1.055-.221-2.504-.087-3.135-.087-.512.005-1.072-.113-.988-.739.023-.222.098-.517.178-.729 1.301-1.992 2.776-3.943 4.421-5.65z"/></defs><use xlink:href="#SVGID_1_" overflow="visible" fill="#bdcf46"/><clipPath id="SVGID_2_"><use xlink:href="#SVGID_1_" overflow="visible"/></clipPath><path d="M104.212 13.976l-1.078-.32s-.107.424-1.242.911c-1.186.508-6.113 2.433-7.129 2.983-8.133 4.436-10.904 6.406-16.344 12.821-1.029 1.218-1.814 2.122-2.928.585-3.881-5.323-8.059-14.902-14.615-5.417-.961 1.379-1.949 2.727-2.787 4.178-.578.981-1.365 2.651-2.752 2.479-3.076-.388-8.393-6.15-17.729-9.026-3.365-1.038-7.039-1.789-10.779-2.007-1.787-.106-2.025-.805-2.025-.805s-3.328 1.104-.773 2.741c1.342.859 13.062 5.754 15.623 10.356a20.495 20.495 0 0 1 2.033 5.169c.229 1.002.822 2.984-.176 3.265-.721.203-1.857-.6-4.689-.975-9.387-1.251-11.898.577-12.555-.591-.146-.261-1.367.798-1.021 1.633.34.836 2.127 1.542 2.471 1.624 1.906.441 9.18 2.179 10.705 3.396 2.734 2.181 3.506 3.709 5.131 5.606.34.396 2.148 2.559.912 2.762-.307.051-.588-.092-.875-.153-2.645-.553-5.186-1.386-9.049-1.517-1.504-.051-1.896-.504-1.896-.504s-2.621.896 1.264 3.254c3.49 2.123 7.477 3.648 10.969 5.794 2.988 1.844 4.975 4.738 8.455 5.772 1.039.307 2.014.81 3.049 1.119 2.141.644 4.359 1.022 6.576 1.207 4.219.343 8.479-.011 12.646-.715 5.244-.886 9.924-2.562 14.408-5.442 1.557-.998 2.768-2.328 3.963-3.719 1.883-2.169 3.746-4.26 5.727-6.337 1.113-1.172 2.268-2.373 3.514-3.436.301-.26.58-1.448.203-1.971-.396-.554-1.449-.438-1.449-.438s.246.39-1.236.896c-4.076 1.394-6.799 3.191-7.84 3.81-1.48.884-1.738.034-1.812-.689-.15-1.534.389-4.082 1.854-6.594 2.635-4.526 8.486-8.9 11.719-10.94.967-.611 4.396-1.381 3.861-2.641-.391-.913-3-.971-3-.971s-.221.896-2.219 1.396c-6.564 1.644-10.344 4.315-11.203 4.882-.295.197-.631.409-.953.293-.52-.191-.221-1.107-.141-1.532.072-.319.652-3.659 1.953-6.719 1.439-3.411 6.439-7.906 7.717-9.21 2.247-2.31 6.128-6.088 5.542-6.263z" clip-path="url(#SVGID_2_)" fill="#757f3f"/></g></g></g></g><g fill="#f79329"><path d="M66.237 88.441c-2.287-.013-4.559 1.611-6.117 3.121-1.129 1.094-2.021 2.35-3.014 3.553-.771.945-2.117 3.11-.168 3.657 1.482.414 3.043-1.275 4.115-2.069.586-.426.998-.995 1.543-1.458.842-.715 1.84-1.194 2.904-1.501 3.4-.97 5.594 3.847 8.387 4.922 1.096.427 2.74-.003 2.293-1.501-.379-1.284-1.406-2.402-2.273-3.393-1.857-2.119-4.232-4.521-7.043-5.249a2.487 2.487 0 0 0-.627-.082z"/><path d="M52.347 72.994c-2.582-.426-4.633 1.498-6.453 3.04-.92.777-5.508 4.897-2.564 5.839.416.132 1.107.054 1.498-.073 1.877-.622 3.33-2.045 5.051-2.942 1.531-.798 3.279.464 4.535 1.228 1.137.704 2.186 1.58 3.379 2.182 1.113.564 2.674.032 2.738-1.293.074-1.613-2.283-3.495-3.273-4.616-1.289-1.44-2.709-2.905-4.672-3.322-.085-.015-.167-.036-.239-.043z"/><path d="M50.897 102.635c-2.275-.016-4.545 1.612-6.109 3.118-1.109 1.076-2.896 2.914-2.815 4.591.041.827.734 1.27 1.502 1.31 1.016.057 1.449-.445 2.221-1.015.631-.474 1.232-.994 1.875-1.44.748-.531 1.555-1.056 2.426-1.293 3.283-.883 5.824 3.9 8.561 4.96 1.092.417 2.738-.008 2.291-1.506-.383-1.29-1.406-2.402-2.275-3.389-1.857-2.128-4.23-4.525-7.045-5.254a2.41 2.41 0 0 0-.632-.082z"/><path d="M43.745 89.525a.247.247 0 0 1-.055-.049c-.691-.557-1.59-1.138-2.434-1.424-.717-.246-1.33-.099-2.014.363-1.211.819-.555 2.877.238 3.736 1.621 1.752 4.018 2.619 5.779 4.23.738.68 2.236 2.202 3.346 1.27 2.673-2.226-3.36-6.882-4.86-8.126z"/><path d="M78.167 72.994c2.578-.426 4.627 1.498 6.453 3.04.92.777 5.512 4.897 2.564 5.839-.416.132-1.107.054-1.504-.073-1.877-.622-3.328-2.045-5.045-2.942-1.537-.798-3.279.464-4.531 1.228-1.143.704-2.186 1.58-3.385 2.182-1.109.564-2.68.032-2.744-1.293-.074-1.613 2.291-3.495 3.289-4.616 1.281-1.44 2.701-2.905 4.664-3.322.083-.015.161-.036.239-.043z"/><path d="M79.606 102.635c2.285-.016 4.559 1.612 6.119 3.118 1.111 1.076 2.9 2.914 2.818 4.591-.041.827-.736 1.27-1.506 1.31-1.023.057-1.447-.445-2.219-1.015-.633-.474-1.234-.994-1.873-1.44-.752-.531-1.555-1.056-2.439-1.293-3.281-.883-5.814 3.9-8.551 4.96-1.09.417-2.738-.008-2.293-1.506.385-1.29 1.408-2.402 2.275-3.389 1.857-2.128 4.23-4.525 7.037-5.254.214-.056.427-.082.632-.082z"/><path d="M87.038 89.525c.021-.017.031-.032.057-.049.68-.557 1.58-1.138 2.424-1.424.729-.246 1.334-.099 2.018.363 1.205.819.559 2.877-.234 3.736-1.629 1.752-4.02 2.619-5.777 4.23-.746.68-2.234 2.202-3.352 1.27-2.669-2.226 3.366-6.882 4.864-8.126z"/></g><path d="M57.073 48.184c.641-1.597 1.803-3.36 2.148-3.854 1.506-2.213 3.527-4.366 5.973-5.526 5.369-2.549 9.135 4.763 10.816 8.673.233.543 1.324 2.975.315 3.435-.344.149-.666-.162-.924-.326-.287-.183-4.959-4.21-7.523-4.812-2.172-.512-4.262.579-5.979 1.809-.777.56-3.391 3.335-4.27 3.409-1.515.124-.884-2.002-.556-2.808z" fill="#bdcf46"/></g></svg>