<svg xmlns="http://www.w3.org/2000/svg" xmlns:xlink="http://www.w3.org/1999/xlink" viewBox="0 0 128 128"><g id="图层_1"><path d="M41.235 46.695S37.908 31.2 32.186 26.072c-5.444-4.879-6.967-7.528-6.763-10.828.013-.211.049-.978.049-.978 1.42-2.415 5.471-3.8 14.973-1.299 10.233 2.693 16.596 9.216 20.416 14.931s2.204 11.999 2.204 11.999l-11.131 7.54-10.699-.742z" fill="#d8cea4"/><path d="M85.417 51.664s20.107 0 29.491 10.694c2.883 3.286 4.305 9.318 2.071 11.292-2.226 1.968-7.056 1.481-11.724-.658-5.203-2.384-17.42-.623-20.825 2.049s-13.469 1.4-13.469 1.4l-10.444-7.295 7.885-16.008 17.015-1.474z" fill="#c9bf93"/><g/><g><g/><g/><g fill="#2f2f2f"/></g><g><g/><g/><g><g/><g/></g></g><g/><g><g/><g/><g><g/><g/></g></g><g/><g/><g id="_x34_pabkV.tif"/><g><defs/><use xlink:href="#SVGID_1_" overflow="visible" fill="#f9f4d9"/><clipPath id="SVGID_2_"><use xlink:href="#SVGID_1_" overflow="visible"/></clipPath></g><linearGradient id="SVGID_3_" gradientUnits="userSpaceOnUse" x1="-22.899" y1="269.886" x2="-18.346" y2="291.307"><stop offset="0" stop-color="#fdca21"/><stop offset=".358" stop-color="#fcc81f"/><stop offset=".555" stop-color="#f7c01a"/><stop offset=".713" stop-color="#f0b212"/><stop offset=".849" stop-color="#e69f05"/><stop offset=".896" stop-color="#e19600"/></linearGradient><linearGradient id="SVGID_4_" gradientUnits="userSpaceOnUse" x1="-14.99" y1="275.757" x2="-15.873" y2="292.594"><stop offset="0" stop-color="#e3b421"/><stop offset=".358" stop-color="#e2b21f"/><stop offset=".555" stop-color="#ddaa1a"/><stop offset=".713" stop-color="#d69c12"/><stop offset=".849" stop-color="#cc8905"/><stop offset=".896" stop-color="#c78000"/></linearGradient><g><g><defs/><use xlink:href="#SVGID_5_" overflow="visible" fill="#f9f4d9"/><clipPath id="SVGID_6_"><use xlink:href="#SVGID_5_" overflow="visible"/></clipPath></g><linearGradient id="SVGID_7_" gradientUnits="userSpaceOnUse" x1="-22.73" y1="216.475" x2="-18.177" y2="237.895"><stop offset="0" stop-color="#fdca21"/><stop offset=".358" stop-color="#fcc81f"/><stop offset=".555" stop-color="#f7c01a"/><stop offset=".713" stop-color="#f0b212"/><stop offset=".849" stop-color="#e69f05"/><stop offset=".896" stop-color="#e19600"/></linearGradient><linearGradient id="SVGID_8_" gradientUnits="userSpaceOnUse" x1="-14.99" y1="222.382" x2="-15.873" y2="239.219"><stop offset="0" stop-color="#e3b421"/><stop offset=".358" stop-color="#e2b21f"/><stop offset=".555" stop-color="#ddaa1a"/><stop offset=".713" stop-color="#d69c12"/><stop offset=".849" stop-color="#cc8905"/><stop offset=".896" stop-color="#c78000"/></linearGradient></g><path d="M42.452 43.897s-3.265-15.186-10.266-19.854c-6.082-4.055-7.604-8.204-6.382-10.897s4.407-4.902 14.64-2.209S57.04 20.153 60.86 25.868s2.204 11.999 2.204 11.999l-11.131 7.54-9.481-1.51z" fill="#eae3c5"/><path d="M85.417 50.036s20.107 0 29.491 10.694c2.883 3.286 4.305 9.318 2.071 11.292-2.226 1.968-7.056 1.481-11.724-.658-5.203-2.384-17.42-.623-20.825 2.049s-13.469 1.4-13.469 1.4l-10.444-7.295 7.885-16.008 17.015-1.474z" fill="#d3cba7"/><g><defs><path id="SVGID_9_" d="M123.905 15.83c3.977 7.954-7.668 16.148-15.909 21.332-6.892 4.335-18.589 11.216-30.371 23.568-8.751 9.174-15.688 21.073-20.619 32.013-4.7 10.124-14.474 19.301-22.407 18.768-11.57-.778-18.078-40.724 15.185-76.157 22.483-23.947 66.528-32.178 74.121-19.524z"/></defs><use xlink:href="#SVGID_9_" overflow="visible" fill="#f9f4d9"/><clipPath id="SVGID_10_"><use xlink:href="#SVGID_9_" overflow="visible"/></clipPath><path d="M125.456 6.223s-6.378 1.483-4.189 6.89c3.201 7.908-17.09 13.264-35.582 25.113C69.239 48.765 54.13 68.212 46.189 84.724c-1.897 3.945-3.12 6.843-2.831 11.211.288 4.368 2.769 8.819 6.874 10.341 4.754 1.763 9.948-.717 14.323-3.279a218.558 218.558 0 0 0 55.986-46.986c4.106-4.834 8.054-9.938 10.391-15.833 4.435-11.189 2.251-24.728-5.476-33.955z" clip-path="url(#SVGID_10_)" fill="#ddd6bf"/></g><linearGradient id="SVGID_11_" gradientUnits="userSpaceOnUse" x1="33.079" y1="53.234" x2="46.158" y2="114.765"><stop offset="0" stop-color="#fdca21"/><stop offset=".358" stop-color="#fcc81f"/><stop offset=".555" stop-color="#f7c01a"/><stop offset=".713" stop-color="#f0b212"/><stop offset=".849" stop-color="#e69f05"/><stop offset=".896" stop-color="#e19600"/></linearGradient><path d="M54.473 82.783c1.041-2.455 2.44-5.451 3.952-8.56-.308-6.265-.589-12.554-4.509-15.654l-23.705-4.726c-17.497 33.267-8.473 62.936 2.912 63.692 11.21-7.407 17.226-25.024 21.35-34.752z" fill="url(#SVGID_11_)"/><linearGradient id="SVGID_12_" gradientUnits="userSpaceOnUse" x1="55.311" y1="70.204" x2="52.776" y2="118.567"><stop offset="0" stop-color="#e3b421"/><stop offset=".358" stop-color="#e2b21f"/><stop offset=".555" stop-color="#ddaa1a"/><stop offset=".713" stop-color="#d69c12"/><stop offset=".849" stop-color="#cc8905"/><stop offset=".896" stop-color="#c78000"/></linearGradient><path d="M57.227 76.663c-1.703 3.475-1.598 3.394-2.754 6.12-4.124 9.729-10.14 27.345-21.35 34.753l.014.002c9.946.64 22.202-10.362 28.095-22.498 4.064-8.62 7.563-15.446 13.732-23.805 0 0-12.216.27-16.705 3.316l-1.032 2.112z" fill="url(#SVGID_12_)"/><ellipse transform="rotate(9.486 32.678 115.8)" cx="32.68" cy="115.807" rx="4.723" ry="2.386" fill="#6a3906"/><path d="M57.834 75.771s-.764 1.475-.869.959c-.68-3.337-2.978-14.21-21.547-14.007-25.87.282-29.192-3.228-31.588-8.662-3.358-7.614 8.693-15.154 24.175-15.08 5.587.026 8.437.43 12.911 3.074 5.105 3.017 19.052 18.669 16.918 33.716z" fill="#ccc08f"/><path d="M57.958 75.186s-1.436 1.522-.818 1.653c3.338.707 15.454 1.944 20.503 4.142 6.959 3.029 13.049 9.794 10.315 23.519-1.436 5.205.515 9.984 3.083 10.917 5.833 2.119 18.202-5.419 15.055-24.389-3.641-21.959-26.348-19.972-31.706-19.998-6.844-.032-16.432 4.156-16.432 4.156z" fill="#e2d6b3"/><path d="M58.595 74.336s-.144.325-.17.56c-.074.673-.673.737-.778.221-.68-3.337-3.659-14.34-22.229-14.137-25.87.282-29.192-3.228-31.588-8.662-3.358-7.614 8.693-15.154 24.175-15.08 5.587.027 8.437.43 12.911 3.074 5.105 3.017 19.813 18.977 17.679 34.024z" fill="#e8e1c1"/><path d="M58.639 74.153s-1.267 1.175-.649 1.306c3.338.707 15.822 2.108 20.871 4.306 6.959 3.029 13.408 11.005 10.674 24.73-1.436 5.205.39 9.382 2.973 10.275 4.488 1.553 17.953-5.988 14.806-24.958-3.643-21.958-26.349-19.972-31.707-19.998-6.844-.033-16.968 4.339-16.968 4.339z" fill="#f4edd3"/><g><defs/><use xlink:href="#SVGID_13_" overflow="visible" fill="#f9f4d9"/><clipPath id="SVGID_14_"><use xlink:href="#SVGID_13_" overflow="visible"/></clipPath></g><linearGradient id="SVGID_15_" gradientUnits="userSpaceOnUse" x1="269.579" y1="53.234" x2="282.658" y2="114.765"><stop offset="0" stop-color="#fdca21"/><stop offset=".358" stop-color="#fcc81f"/><stop offset=".555" stop-color="#f7c01a"/><stop offset=".713" stop-color="#f0b212"/><stop offset=".849" stop-color="#e69f05"/><stop offset=".896" stop-color="#e19600"/></linearGradient><linearGradient id="SVGID_16_" gradientUnits="userSpaceOnUse" x1="291.811" y1="70.204" x2="289.276" y2="118.567"><stop offset="0" stop-color="#e3b421"/><stop offset=".358" stop-color="#e2b21f"/><stop offset=".555" stop-color="#ddaa1a"/><stop offset=".713" stop-color="#d69c12"/><stop offset=".849" stop-color="#cc8905"/><stop offset=".896" stop-color="#c78000"/></linearGradient></g></svg>