<svg id="レイヤー_1" xmlns="http://www.w3.org/2000/svg" xmlns:xlink="http://www.w3.org/1999/xlink" viewBox="0 0 128 128"><g><g><defs><path id="SVGID_1_" d="M41.534 56.915a26.597 26.597 0 0 0-6.115-1.319C18.952 53.971 3.701 68.227 4.908 85.624c1.389 19.904 23.962 29.802 40.84 24.013 13.058-4.476 18.992-20.012 15.984-33.108-2.283-9.963-11.084-16.476-20.198-19.614z"/></defs><use xlink:href="#SVGID_1_" overflow="visible" fill="#db4437"/><clipPath id="SVGID_2_"><use xlink:href="#SVGID_1_" overflow="visible"/></clipPath><path d="M62.621 69.003s-9.019-1.851-20.519 10.399c-7.623 8.121-9.625 22.125-20.25 24.125-4.626.871-8.383-.446-10.344-2.446l.719 4.446 6.25 5.375s13.375 3.892 16.875 4.25c3.5.358 14.875-1.875 14.875-1.875l15.125-27.125-2.731-17.149z" clip-path="url(#SVGID_2_)" fill="#b93221"/></g><g><g><g><g><defs><path id="SVGID_3_" d="M123.038 4.233c-.991-3.531-6.011-5.18-9.059-3.49-.784.442-1.504.976-2.272 1.438-.614.362-1.288.754-1.992.885-.11.02-.222.041-.342.061-.04 0-.07.011-.11.02-6.106.995-15.477 3.158-25.672 7.785-8.73 3.964-18.035 9.757-26.278 18.217-5.9 6.046-11.223 13.5-15.391 22.532-.357.785-.714 1.569-1.062 2.375-.277.657-.926 2.295-.926 2.295l-1.312-.223s.479 1.93 2.948 2.774c3.03 1.036 4.39-.128 4.39-.128s-.826-.426-1.207-.594c.317-.795.629-1.589.956-2.363.342-.796.704-1.57 1.057-2.345 3.891-8.317 8.802-15.149 14.232-20.731 11.549-11.86 25.49-18.207 36.555-21.576a96.829 96.829 0 0 1 9.154-2.305c-2.953 2.586-6.447 6.057-10.129 10.582-8.164 10.049-17.191 25.329-23.106 47.469-.221.825-.433 1.661-.644 2.505-.211.825-.414 1.659-.619 2.505-.447-.088-.94-.143-1.407-.219-.488-.075-.94-.171-1.464-.224a24.206 24.206 0 0 0-2.564-.131c-.424 0-.846.051-1.27.07a24.75 24.75 0 0 0-2.709.271c-.865.131-1.721.302-2.561.513-12.534 3.191-22.38 15.2-21.39 29.304a25.098 25.098 0 0 0 2.449 9.264c.387.814.819 1.6 1.288 2.364a25.126 25.126 0 0 0 1.6 2.293c5.864 7.515 15.691 11.729 25.377 11.729 3.456 0 6.892-.533 10.115-1.64 13.057-4.477 18.991-20.008 15.989-33.104-1.397-6.083-5.24-10.854-10.079-14.381-2.049-1.495-4.271-2.751-6.578-3.791-.614-.278-1.228-.573-1.851-.819.19-.835.391-1.66.593-2.475.211-.855.433-1.689.649-2.515 5.729-21.557 14.429-36.192 22.185-45.749 4.683-5.753 9.023-9.677 12.162-12.131.09-.08.171-.131.261-.202.041-.04.091-.069.131-.1.145-.111.292-.222.433-.333.226-.14.463-.291.697-.382.942-.342 1.848.071 2.803.091.302 0 .604-.06.904-.08 2.455-.19 5.875-2.403 5.066-5.311z"/></defs><use xlink:href="#SVGID_3_" overflow="visible" fill="#bdcf46"/><clipPath id="SVGID_4_"><use xlink:href="#SVGID_3_" overflow="visible"/></clipPath><path d="M70.811 71.277s.25 2.083 3.667 3c3.417.917 4.167-1 4.167-1s11.457 4.5 14.082 8 6.5 16.125 6.875 19.75-1.375 14.625-3.25 18.625-20.5 12.625-21 12.875-26.75-5.125-26.75-5.125l-9-9.625-5.5-16.625 3.125-13.875s7.875-9.625 8.25-9.875 7.523-4.088 8.012-4.919 8.113-3.456 8.488-3.581 8.834 2.375 8.834 2.375z" clip-path="url(#SVGID_4_)" fill="#db4437"/><path d="M50.3 121.191c.256.086 14.677 7.064 31.677-.572 10.174-4.57 13.863-15.243 13.863-15.243S94.438 123.408 76.25 128c-15.861 4.007-25.95-6.809-25.95-6.809z" clip-path="url(#SVGID_4_)" fill="#b93221"/></g></g><path d="M30.277 72.628a6.41 6.41 0 0 1-6.415 6.412 6.41 6.41 0 0 1-6.407-6.412 6.41 6.41 0 1 1 12.822 0z" fill="#fff"/><circle cx="57.602" cy="89.834" r="6.413" fill="#fff"/></g></g></g></svg>