<svg id="レイヤー_1" xmlns="http://www.w3.org/2000/svg" viewBox="0 0 128 128"><g><path fill="#fcc21b" d="M30.649 32.02h24.319v34.673H30.649z"/><g><g><g><path d="M122.455 93.267c0 17.234-26.238 31.198-58.599 31.198-32.366 0-58.609-13.964-58.609-31.198 0-17.224 26.243-31.188 58.609-31.188 32.361 0 58.599 13.964 58.599 31.188z" fill="#fff"/><path d="M63.856 127.454c-34.539 0-61.594-15.015-61.594-34.187 0-19.167 27.055-34.178 61.594-34.178 34.531 0 61.588 15.011 61.588 34.178 0 19.172-27.056 34.187-61.588 34.187zm0-62.387c-30.148 0-55.615 12.914-55.615 28.2 0 15.291 25.467 28.21 55.615 28.21 30.142 0 55.609-12.919 55.609-28.21.001-15.286-25.467-28.2-55.609-28.2z" fill="#78a3ad"/></g></g><g><path d="M30.906 65.889a2.392 2.392 0 0 1-2.391-2.391V31.151a2.396 2.396 0 0 1 2.391-2.391 2.393 2.393 0 0 1 2.392 2.391v32.347a2.39 2.39 0 0 1-2.392 2.391z" fill="#f79329"/><path d="M42.778 65.493a2.39 2.39 0 0 1-2.392-2.392V30.759a2.39 2.39 0 0 1 2.392-2.391 2.386 2.386 0 0 1 2.391 2.391v32.342a2.387 2.387 0 0 1-2.391 2.392z" fill="#f79329"/><path d="M55.084 65.889a2.39 2.39 0 0 1-2.39-2.391V31.151a2.393 2.393 0 0 1 2.39-2.391 2.396 2.396 0 0 1 2.392 2.391v32.347a2.393 2.393 0 0 1-2.392 2.391z" fill="#f79329"/><g><path d="M80.678 18.457c8.758-5.119 19.527-5.95 29.373-7.589 3.403-.565 6.8-1.135 10.186-1.807 1.77-.346 4.526-.533 5.264-2.56.42-1.149.28-2.485-.42-3.503-1.626-2.344-5.156-2.685-7.739-2.335-1.643.224-3.231.7-4.839 1.074-9.14 2.129-18.49 3.167-27.603 5.418-4.011.98-8.643 1.989-12.165 4.208-3.676 2.312-6.403 4.414-10.957 4.834-1.71.149-3.17.093-4.783.397-1.671.313-3.819.957-5.52.854-.612 5.091.178 10.453.401 15.422.079 1.803 7.234-.393 8.094-.664 7.225-2.335 11.887-7.417 17.808-11.834a30.496 30.496 0 0 1 2.9-1.915z" fill="#78a3ad"/><g><path d="M33.699 17.962c-1.673-.191-3.143-.061-4.166 1.803-1.653 3.036-1.106 7.126-.047 10.251 1.036 3.05 3.325 7.011 6.885 7.496.905.131 1.84.149 2.727-.084.821-.215 1.625-1.14 2.396-1.224.752-.085 1.897.682 2.668.841 1.008.214 2.045.271 3.067.112.902-.13 1.794-.383 2.592-.878.755-.458 1.253-1.261 2.005-1.709.686-.411.947-.131 1.573.205.71.383 1.168.523 2.003.551 4.653.122 4.434-5.922 3.774-9.088-.641-3.073-1.527-6.38-3.896-8.603-1.383-1.308-3.726-1.924-5.585-1.635-1.64.252-2.686 1.85-4.335 1.705-1.298-.107-2.433-.948-3.75-.883-1.326.066-2.503.943-3.698 1.448-1.467.617-2.7-.14-4.213-.308z" fill="#fcc21b"/></g><path d="M50.63 15.926c1.662 0 3.488.616 4.65 1.709 2.368 2.223 3.255 5.529 3.896 8.603.659 3.134.873 9.088-3.639 9.088h-.136c-.835-.028-1.293-.168-2.003-.551-.401-.214-.658-.411-.972-.411-.171 0-.354.056-.602.206-.752.448-1.25 1.251-2.005 1.709-.798.496-1.689.748-2.592.878-.39.065-.789.093-1.19.093a9.144 9.144 0 0 1-1.877-.205c-.732-.154-1.803-.85-2.551-.85a.88.88 0 0 0-.117.009c-.771.084-1.574 1.009-2.396 1.224-.479.131-.98.177-1.476.177a8.67 8.67 0 0 1-1.251-.093c-3.56-.485-5.849-4.446-6.885-7.496-1.059-3.125-1.606-7.215.047-10.251.812-1.481 1.91-1.869 3.171-1.869.322 0 .659.028.995.065 1.088.122 2.027.546 3.017.546.388 0 .784-.065 1.196-.238 1.195-.505 2.372-1.382 3.698-1.448.047-.004.093-.004.141-.004 1.261 0 2.358.78 3.609.887.07.005.136.009.21.009 1.532 0 2.561-1.471 4.125-1.714.3-.045.619-.073.937-.073m0-5.979c-.631 0-1.253.052-1.855.146-1.556.238-2.765.854-3.617 1.354-.857-.29-2.01-.608-3.407-.608-.141 0-.28.005-.423.009-2.184.108-3.865.958-4.995 1.541a15.71 15.71 0 0 0-1.956-.369 15.67 15.67 0 0 0-1.673-.102c-3.671 0-6.665 1.77-8.42 4.979-2.985 5.473-1.566 11.774-.458 15.043 2.204 6.487 6.585 10.789 11.727 11.494.719.103 1.4.149 2.068.149 1.043 0 2.046-.122 2.998-.373a8.103 8.103 0 0 0 1.458-.542c.262.083.546.163.845.229 1.055.219 2.098.332 3.115.332.71 0 1.415-.057 2.101-.159 1.821-.276 3.396-.832 4.802-1.691.155-.093.299-.186.436-.28.582.117 1.189.182 1.852.201l.309.005c2.989 0 5.629-1.224 7.436-3.447 3.399-4.185 2.569-10.373 2.056-12.843-.869-4.148-2.148-8.445-5.651-11.737-2.205-2.079-5.481-3.331-8.748-3.331z" fill="#f79329"/><path d="M44.843 36.559c-.08 1.504-.406 3.718-1.601 4.736-1.622 1.392-3.188 2.354-4.967.527-.952-.976-2.4-3.208-.579-3.909 1.145-.429 1.79-.709 2.195-1.989.664-2.092.196-4.633-.292-6.707-.371-1.556-.935-3.045-1.192-4.633-.233-1.476.616-3.003 2.157-1.719 1.149.948 1.579 1.896 2.298 3.157 1.13 1.98 1.626 4.409 1.934 6.656.163 1.21.107 2.611.047 3.881z" fill="#f79329"/><path d="M55.898 35.438c-.178 2.008-.781 3.727-1.935 4.708-1.62 1.387-3.186 2.354-4.965.523-.952-.972-2.4-3.204-.573-3.904 1.139-.434 1.778-.715 2.189-1.99.668-2.092.196-4.632-.294-6.706-.369-1.537-.774-3.129-1.262-4.605-.463-1.382.491-2.923 2.022-1.989 2.968 1.802 5.275 8.845 4.818 13.963z" fill="#f79329"/></g></g><g><g><path d="M41.125 61.621a8.21 8.21 0 0 0-2.064 1.163c-3.651 2.863-8.411 2.19-12.792 3.293-6.052 1.513-6.029 6.435-10.653 9.229-3.96 2.396-5.306 9.069-2.493 12.493 1.194 1.457 2.736 2.583 3.74 4.18 1.377 2.209 1.434 4.853 2.976 6.978 6.095 8.425 16.845 4.334 25.565 7.865 5.347 2.168 9.967 3.587 16.028 3.19 2.274-.149 5.035-.972 7.524-1.163 2.686-.206 5.071.625 7.711.625 3.27 0 6.305.028 9.419-.812 4.172-1.117 6.03-4.265 9.664-5.708 3.666-1.462 7.275-.528 10.573-3.25 2.046-1.691 4.138-3.933 4.448-6.403.241-1.915 3.269-2.266 4.454-4.031 3.672-5.483.336-9.051-4.359-12.479-.993-.719-1.448-1.042-2.054-2.092-1.803-3.129-6.244-6.763-10.2-7.823-1.873-.505-2.9-1.032-4.38-2.144-2.826-2.125-6.039-3.05-9.683-3.784-2.064-.406-3.9-.542-6.015-.542-1.355 0-2.648.047-3.914-.327-2.947-.869-5.581-1.756-8.731-2.153-3.817-.486-8.063-.224-11.481 1.434-4.054 1.971-9.22.668-13.283 2.261z" fill="#fcc21b"/></g><path d="M62.576 58.828c1.097 0 2.186.075 3.246.206 3.012.383 5.533 1.233 8.35 2.064.981.29 1.976.318 3.008.318h.743c2.022 0 3.783.121 5.749.513 3.494.701 6.571 1.588 9.275 3.625 1.41 1.064 2.405 1.569 4.194 2.046 3.782 1.018 8.037 4.492 9.766 7.491.579 1.009 1.013 1.317 1.957 1.999 4.497 3.288 7.697 6.697 4.176 11.947-1.14 1.69-4.026 2.027-4.261 3.858-.294 2.372-2.305 4.512-4.259 6.132-3.152 2.611-6.608 1.714-10.121 3.111-3.476 1.387-5.258 4.395-9.247 5.469-2.723.728-5.375.775-8.21.775h-.809c-2.251 0-4.306-.631-6.543-.631-.275 0-.556.009-.836.033-2.387.177-5.03.971-7.212 1.111a30.04 30.04 0 0 1-1.914.066c-4.895 0-8.884-1.28-13.423-3.12-8.351-3.381-18.645.537-24.473-7.529-1.468-2.036-1.532-4.563-2.849-6.679-.952-1.532-2.434-2.606-3.577-3.997-2.69-3.279-1.406-9.668 2.391-11.966 4.418-2.671 4.399-7.379 10.191-8.836 4.194-1.051 8.747-.402 12.245-3.148a7.859 7.859 0 0 1 1.98-1.112c3.89-1.522 8.833-.28 12.713-2.167 2.327-1.126 5.055-1.579 7.75-1.579m0-5.978c-3.891 0-7.379.732-10.359 2.181-.967.472-2.657.556-4.444.645-2.393.121-5.106.257-7.843 1.326a14.046 14.046 0 0 0-3.476 1.976c-.963.757-2.53.967-4.997 1.248-1.522.172-3.25.369-5.024.812-5.474 1.373-7.954 4.806-9.599 7.076-.929 1.28-1.447 1.971-2.228 2.443-3.33 2.013-5.754 5.75-6.482 9.99-.69 4.082.233 8.046 2.559 10.881.655.794 1.317 1.443 1.888 2.017.509.505 1.036 1.023 1.242 1.354.216.346.435 1.046.667 1.784.473 1.504 1.062 3.368 2.406 5.235 5.278 7.291 12.876 7.818 18.98 8.244 2.998.205 5.828.402 8.093 1.322 5.274 2.134 9.953 3.554 15.67 3.554.753 0 1.519-.028 2.308-.079 1.461-.094 2.895-.369 4.277-.64 1.098-.21 2.145-.411 2.999-.477.121-.009.252-.014.378-.014.677 0 1.477.117 2.396.248 1.215.177 2.59.383 4.147.383h.808c3.349 0 6.397-.075 9.766-.985 3.367-.901 5.586-2.62 7.365-4.007.989-.766 1.77-1.368 2.536-1.677.713-.285 1.648-.42 2.722-.57 2.443-.35 5.783-.826 9.001-3.484 3.094-2.564 5.056-5.184 5.932-7.949 1.11-.653 2.601-1.62 3.739-3.316 4.783-7.131 2.893-13.894-5.618-20.105-.14-.107-.262-.192-.363-.266-2.719-4.582-8.275-8.818-13.335-10.172-1.004-.271-1.302-.416-2.143-1.051-3.765-2.834-7.847-3.937-11.7-4.708-2.2-.434-4.334-.63-6.921-.63h-.743c-.289 0-1.073 0-1.326-.075L74.64 55c-2.466-.738-5.017-1.504-8.065-1.892a31.205 31.205 0 0 0-3.999-.258z" fill="#f79329"/><path d="M40.938 109.268a5.91 5.91 0 0 1-.977-.075 2.388 2.388 0 0 1-1.994-2.732 2.398 2.398 0 0 1 2.736-1.989c.519.079 1.231-.14 2.037-.402.606-.191 1.224-.379 1.84-.5 4.853-.925 11.399-4.292 13.964-8.71 1.051-1.808 1.271-3.526.673-5.259a1.303 1.303 0 0 1-.178-.22c-.308-.397-.709-.943-.952-1.672a2.397 2.397 0 0 1 1.522-3.022 2.387 2.387 0 0 1 3.017 1.522c.044.066.14.177.229.294.285.373.658.878.892 1.546 1.037 3.031.673 6.216-1.064 9.21-3.316 5.707-11.167 9.859-17.215 11.008-.43.083-.851.224-1.275.359-.92.296-2.012.642-3.255.642z" fill="#f79329"/><path d="M61.506 113.564c-.91 0-1.777-.523-2.176-1.41a2.39 2.39 0 0 1 1.191-3.162c9.215-4.166 11.498-13.353 9.672-20.605a2.386 2.386 0 0 1 1.737-2.901 2.398 2.398 0 0 1 2.9 1.733c2.312 9.187-.611 20.83-12.344 26.131a2.312 2.312 0 0 1-.98.214z" fill="#f79329"/><path d="M75.867 113.541a2.393 2.393 0 0 1-.771-4.656c3.812-1.308 6.353-3.596 7.547-6.795 2.104-5.628-.186-12.853-2.783-17.332a2.4 2.4 0 0 1 .869-3.27 2.4 2.4 0 0 1 3.27.869c3.27 5.642 5.805 14.221 3.124 21.404-1.694 4.54-5.314 7.879-10.48 9.649a2.342 2.342 0 0 1-.776.131z" fill="#f79329"/><path d="M89.86 110.501c-.817 0-1.611-.42-2.06-1.177a2.384 2.384 0 0 1 .845-3.274c3.471-2.05 5.5-4.806 6.021-8.178.929-5.941-2.763-12.554-6.212-16.412a2.397 2.397 0 0 1 .19-3.381 2.393 2.393 0 0 1 3.377.196c4.334 4.857 8.547 12.75 7.375 20.33-.752 4.787-3.624 8.785-8.327 11.564a2.35 2.35 0 0 1-1.209.332z" fill="#f79329"/><path d="M110.728 100.133a2.39 2.39 0 0 1-2.083-3.559c.695-1.242.779-2.354.261-3.503-1.807-4.026-9.887-7.416-15.052-8.538-.174-.042-.421-.07-.683-.107-1.219-.168-2.479-.341-3.391-1.093a2.388 2.388 0 1 1 2.813-3.852c.279.074.888.163 1.233.21.406.056.774.107 1.051.173 5.109 1.112 15.538 4.895 18.396 11.246 1.142 2.545.981 5.24-.462 7.809a2.394 2.394 0 0 1-2.083 1.214z" fill="#f79329"/><path d="M54.524 103.985c-4.932 0-9.22-4.777-10.952-9.621-1.63-4.563-.883-8.565 1.998-10.709.776-.565 1.589-.719 2.135-.822l.09-.019a2.382 2.382 0 0 1 2.839.168 2.392 2.392 0 0 1 .299 3.367c-.731.878-1.742 1.069-2.34 1.182-.12.023-.247.037-.359.08-1.107.85-.813 3.321-.158 5.142 1.288 3.605 4.259 6.571 6.594 6.445 1.252-.052 2.434.953 2.498 2.274a2.392 2.392 0 0 1-2.274 2.508c-.123.005-.245.005-.37.005z" fill="#f79329"/><path d="M38.481 108.811a2.401 2.401 0 0 1-1.578-.593c-5.399-4.741-8.351-13.222-6.875-19.724 1.12-4.927 4.642-8.453 9.901-9.924a2.376 2.376 0 0 1 2.941 1.658 2.387 2.387 0 0 1-1.652 2.947c-3.597 1.004-5.791 3.152-6.522 6.38-1.086 4.759 1.319 11.517 5.363 15.067a2.397 2.397 0 0 1 .22 3.376 2.388 2.388 0 0 1-1.798.813z" fill="#f79329"/><path d="M25.386 106.868c-.556 0-1.12-.197-1.571-.598-4.817-4.227-7.092-12.699-5.406-20.139 1.439-6.3 5.418-10.658 11.199-12.274a2.383 2.383 0 0 1 2.947 1.653 2.4 2.4 0 0 1-1.657 2.952c-5.146 1.438-7.1 5.54-7.818 8.734-1.285 5.642.42 12.442 3.886 15.482a2.38 2.38 0 0 1 .219 3.372 2.397 2.397 0 0 1-1.799.818z" fill="#f79329"/></g></g><g><path d="M32.008 58.865c-4.642 1.452-11.27 2.522-12.577 7.515-.66 2.526.065 4.128 1.784 6.113 1.061 1.219 2.074 2.606 3.573 3.447 1.401.785 3.229.738 4.539 1.663 3.494 2.462 3.177 6.959 7.483 8.888 6.604 2.971 14.348 1.308 21.301 2.41 6.403 1.023 11.163 2.91 17.776 1.999a43.858 43.858 0 0 0 6.571-1.457c2.601-.785 4.693-2.826 7.267-3.494 1.401-.364 2.999.014 4.409.126 1.578.122 3.166.112 4.74-.009 3.539-.271 6.693-3.704 8.161-6.394 1.735-3.176 3.296-6.613 2.222-10.303-1.322-4.521-7.338-6.001-10.616-8.822-.944-.812-1.952-1.564-3.031-2.186-2.998-1.733-6.39-2.863-9.825-3.629a51.502 51.502 0 0 0-5.409-.892c-1.406-.159-2.802.098-4.176-.248-7.436-1.882-14.469-2.947-22.049-.79-2.713.775-5.89-.042-8.728.514-3.63.709-6.38 2.265-9.465 3.974-1.143.622-2.502 1.118-3.95 1.575z" fill="#ed6c30"/></g><path d="M60.245 60.724a2.976 2.976 0 0 0-1.214-.196c-2.579.093-6.1.709-8.309 1.919-2.031 1.107-.5 4.404.98 5.366.715.467 1.896.383 2.825.317 1.957-.14 3.812-.705 5.667-1.232 1.862-.523 3.021-.467 2.642-2.466-.26-1.359-1.05-3.129-2.591-3.708z" fill="#855c52"/><path d="M67.055 76.991c.038.051.075.108.112.164.709 1.056 1.308 2.065 2.382 2.905 2.116 1.644 6.927.972 8.453-1.121 1.514-2.083-1.177-5.586-2.993-6.903-2.313-1.672-5.245-1.364-7.768-.248-3.058 1.35-1.456 3.349-.186 5.203z" fill="#855c52"/><path d="M86.787 61.35c-2.658-.458-6.165.99-5.198 3.671.788 2.148 3.055 4.586 5.371 5.669 1.756.822 5.23-.345 5.81-2.158.995-3.128-2.423-6.566-5.983-7.182z" fill="#855c52"/><path d="M48.257 71.587c-2.307-2.27-7.085-3.466-9.658-1.896-1.894 1.148-3.639 3.914-1.864 5.744 1.43 1.476 5.624 3.11 7.809 3.25 2.606.168 5.353-2.76 4.988-4.885-.136-.802-.608-1.554-1.275-2.213z" fill="#855c52"/></g></svg>