<svg id="レイヤー_1" xmlns="http://www.w3.org/2000/svg" viewBox="0 0 128 128"><g><path d="M84.767 8.405s8.096 5.199 15.846 11.281c6.427 5.045 12.562 10.943 14.122 12.742l1.61 9.25-8.459 9.643-19.792-2.876-15.395-14.717-4.736-11.672 3.383-8.628 13.421-5.023z" fill="#757f3f"/><g><path d="M117.633 49.73a34.153 34.153 0 0 1-16.241 4.094c-18.937 0-34.287-15.351-34.287-34.287 0-3.241.479-6.36 1.32-9.333-5.482-1.06-11.065-1.607-16.545-1.348C17.514 10.492 1.468 47.565 1.311 77.611c-.097 17.087.365 42.249 20.982 47.392 17.652 4.41 37.086 3.785 54.296-2.177 24.092-8.346 46.05-30.925 44.359-57.915-.302-4.805-1.454-10.228-3.315-15.181z" fill="#db4437"/><g><g><g><g><path d="M33.855 38.26c-2.977 1.815-6.384 1.534-7.646-.563-1.241-2.132.157-5.323 3.112-7.139 2.955-1.794 6.384-1.54 7.624.585 1.253 2.121-.15 5.323-3.09 7.117z" fill="#fff"/></g></g></g><g><g><g><path d="M26.66 63.23c-1.015 3.338-3.756 5.38-6.09 4.646-2.349-.771-3.418-4.093-2.402-7.409 1.024-3.305 3.756-5.38 6.102-4.613 2.334.768 3.415 4.083 2.39 7.376z" fill="#fff"/></g></g></g><g><g><g><path d="M50.936 62.115c-2.131 2.762-5.406 3.71-7.335 2.199-1.917-1.558-1.748-5.042.372-7.783 2.121-2.729 5.414-3.71 7.331-2.165 1.917 1.533 1.748 5.03-.368 7.749z" fill="#fff"/></g></g></g><g><g><g><path d="M24.426 92.73c-.396 3.468-2.729 5.971-5.153 5.667-2.447-.338-4.095-3.406-3.699-6.852.412-3.439 2.724-5.972 5.166-5.634 2.436.322 4.093 3.397 3.686 6.819z" fill="#fff"/></g></g></g></g><g><g><g><g><path d="M95.269 83.397c-1.213 3.271-.271 6.558 2.028 7.388 2.324.812 5.201-1.174 6.407-4.423 1.185-3.259.282-6.562-2.052-7.376-2.319-.81-5.189 1.174-6.383 4.411z" fill="#fff"/></g></g></g><g><g><g><path d="M73.358 99.086c-3.196 1.387-4.923 4.342-3.931 6.575 1.027 2.244 4.456 2.933 7.637 1.557 3.169-1.388 4.929-4.343 3.891-6.576-1.015-2.245-4.433-2.938-7.597-1.556z" fill="#fff"/></g></g></g><g><g><g><path d="M68.707 74.059c-2.504 2.431-3.069 5.797-1.354 7.534 1.758 1.742 5.199 1.185 7.691-1.23 2.471-2.424 3.078-5.796 1.32-7.533-1.738-1.738-5.187-1.175-7.657 1.229z" fill="#fff"/></g></g></g><g><g><g><path d="M41.534 81.4c-2.299 2.616-2.605 6.023-.754 7.624 1.884 1.592 5.279.768 7.569-1.837 2.284-2.606 2.615-6.024.722-7.612-1.861-1.592-5.261-.768-7.537 1.825z" fill="#fff"/></g></g></g><g><g><g><path d="M41.661 106.281c-3.396.778-5.628 3.372-5.056 5.753.612 2.391 3.844 3.688 7.22 2.909 3.373-.795 5.629-3.372 5.02-5.764-.586-2.391-3.838-3.687-7.184-2.898z" fill="#fff"/></g></g></g></g><g><path d="M114.734 32.429c-.607.407-1.218.801-1.781 1.207-2.482 1.73-4.512 3.812-6.756 5.82-.836.744-1.839 1.618-2.871 2.042-1.642.676-3.637-.542-3.688-2.313-.027-1.455.92-2.841 1.709-3.998 1.015-1.467 2.188-2.656 3.378-3.942 1.416-1.511 2.894-2.764 4.416-3.953-.022-.017-.047-.032-.067-.05 1.296-1.095 2.829-2.076 4.343-3.097 1.331-.947 2.627-1.934 3.789-3.152.271-.281.664-.689 1.093-1.077.684-.873 1.242-1.833 1.581-2.942 1.403-4.738-1.455-10.011-5.075-13-5.156-4.252-11.896-2.255-16.637 1.646-1.84 1.523-3.644 3.204-5.391 4.936-2.73 2.938-5.273 6.057-8.021 9-1.15 1.246-2.675 3.299-4.567 3.101-1.353-.141-2.268-.875-2.571-2.272-.508-2.302 1.286-4.805 2.56-6.553 1.353-1.839 2.938-3.475 4.398-5.212.068-.072.124-.146.191-.214C78.859 4.369 72.475 1.244 64.759.388c-4.94-.555-11.81-.294-16.529 1.386-2.785.987-2.26 2.323-.694 4.275 1.693 2.098 12.792 11.132 11.28 14.143-1.082 2.16-3.396 3.266-5.595 4.32-.94.451-1.849.892-2.661 1.399-2.572 1.635-6.013 3.496-7.016 6.609-.975 3.033 6.384 3.665 8.052 3.874 3.802.479 7.817.311 11.539 1.348 4.538 1.264 4.439 2.673 3.52 6.976-.496 2.358-1.281 4.839-1.522 7.241-.215 2.239-.474 5.177.303 7.302 2.088 5.696 16.919-5.965 20.438-4.532 4.309 1.759 5.002 19.331 10.794 17.943 1.433-.339 3.022-2.695 3.726-3.886 1.744-2.926 2.895-6.078 3.949-9.299.93-2.854 2.589-3.451 5.237-2.047 2.951 1.573 5.596 3.564 8.042 5.809 2.2 2.013 3.61 5.087 6.542 6.198 1.14-1.196 1.646-3.881 1.975-5.478 2.411-11.802-3.296-23.053-11.405-31.54z" fill="#bdcf46"/></g></g></g></svg>