<svg xmlns="http://www.w3.org/2000/svg" viewBox="0 0 128 128"><g id="图层_1"><g/><g><g/><g/><g fill="#2f2f2f"/></g><g><g/><g/><g><g/><g/></g></g><g/><g><g/><g/><g><g/><g/></g></g><g/><g/><g fill="#c19048"><path d="M122.743 93.997c-.808-6.561-1.392-13.131-1.999-19.702-.407-4.438-.227-8.957-1.354-13.349-1.114-4.318-4.531-8.194-4.835-12.652-.176-2.608 3.092-4.561 4.653-5.962 2.489-2.221 3.464-5.046 3.291-8.494-.368-7.22-5.824-13.348-11.609-17.414-4.658-3.272-10.101-5.473-15.821-6.803-6.917-1.609-14.513-2.562-21.429-1.866a52.748 52.748 0 0 0-3.231.438l-.006-.004c-8.564 1.169-17.524 2.942-23.851 4.788-9.443 2.752-17.172 4.978-27.181 9.792l31.582 52.954c-.541 6.334-.876 12.699-.876 19.089 0 3.417-.846 8.55 4.009 8.843 4.711.294 9.421.645 14.127 1.016l9.075 15.208 41.621-12.163c.917-.108 1.778-.325 2.516-.732l.011-.005c.741-.407 1.364-1 1.782-1.861 1.541-3.123-.062-7.777-.475-11.121z"/><path d="M77.288 123.177a3.315 3.315 0 0 1-2.835-1.608l-8.193-13.745a845.646 845.646 0 0 0-12.379-.876c-7.427-.454-7.216-7.761-7.129-10.885.016-.433.026-.856.026-1.253 0-5.71.258-11.709.794-18.306L16.536 24.458a3.31 3.31 0 0 1-.325-2.644 3.325 3.325 0 0 1 1.728-2.02c10.152-4.875 18.139-7.2 27.381-9.89l.31-.092c6.321-1.845 15.415-3.675 24.33-4.891l.12-.015a52.436 52.436 0 0 1 3.23-.433c6.545-.66 14.219.01 22.507 1.938 6.509 1.51 12.22 3.974 16.965 7.313 4.648 3.267 12.515 10.199 13.008 19.945.232 4.576-1.241 8.323-4.385 11.122-.335.304-.742.628-1.186.984-.67.531-2.236 1.783-2.382 2.365.134 1.825 1.158 3.835 2.232 5.963.953 1.886 1.948 3.834 2.51 6.02.866 3.35 1.03 6.653 1.195 9.849.062 1.345.13 2.685.253 4.025l.19 2.02c.536 5.772 1.082 11.74 1.794 17.575.103.763.262 1.597.433 2.474.613 3.195 1.382 7.169-.258 10.508a7.453 7.453 0 0 1-3.164 3.298c-.025.016-.06.031-.093.046-.964.515-2.056.856-3.34 1.036L78.21 123.05a3.412 3.412 0 0 1-.922.127zm-23.599-22.929s.148.088.599.113c4.725.294 9.456.65 14.182 1.021a3.263 3.263 0 0 1 2.571 1.598l7.772 13.019 39.179-11.447a3.33 3.33 0 0 1 .538-.108c.709-.088 1.106-.237 1.312-.351.021-.01.036-.02.057-.031a.87.87 0 0 0 .366-.397c.666-1.355.13-4.127-.304-6.354-.191-1.031-.381-2.015-.484-2.912-.738-5.938-1.294-11.957-1.83-17.78l-.185-2.021c-.14-1.428-.207-2.86-.279-4.298-.148-2.994-.294-5.829-.994-8.529-.382-1.494-1.161-3.041-2-4.689-1.274-2.5-2.711-5.334-2.923-8.566-.256-3.834 2.936-6.38 4.841-7.9.33-.268.644-.51.901-.742 1.645-1.469 2.324-3.283 2.19-5.87-.358-7.21-7.262-12.812-10.21-14.884-4.056-2.85-8.993-4.968-14.667-6.283-7.576-1.767-14.539-2.376-20.362-1.798a42.88 42.88 0 0 0-3.01.413c-.104.015-.206.031-.309.036-8.546 1.175-17.189 2.912-23.166 4.659l-.315.087c-8.246 2.402-14.966 4.36-23.083 7.989l29.712 49.815c.35.588.509 1.279.452 1.969-.587 6.824-.865 12.977-.865 18.806 0 .459-.015.943-.025 1.448-.033 1.05-.104 3.518.339 3.987z"/></g><g fill="#f9f4d9"><path d="M51.427 22.277c-6.926-1.607-14.508-2.561-21.44-1.865-6.993.701-14.214 2.815-19.357 7.519-3.514 3.205-6.257 7.9-6.482 12.869-.113 2.458.351 4.983 1.689 7.174 1.525 2.495 4.494 3.809 6.024 6.118 2.562 3.88.171 8.473-1.128 12.085-2.19 6.086-2.602 13.002-3.226 19.501a227.102 227.102 0 0 0-1.073 21.79c0 3.417-.845 8.545 4.004 8.844 19.879 1.227 39.726 3.484 59.601 4.04 3.219.087 7.883.799 9.543-2.581 1.53-3.118-.067-7.772-.479-11.117-.81-6.561-1.392-13.132-2-19.703-.412-4.438-.227-8.958-1.36-13.343-1.113-4.324-4.535-8.205-4.829-12.658-.175-2.608 3.087-4.566 4.654-5.963 2.484-2.221 3.458-5.045 3.284-8.499-.367-7.215-5.819-13.343-11.607-17.409-4.655-3.271-10.098-5.466-15.818-6.802z"/><path d="M73.443 123.775c-.783 0-1.566-.036-2.318-.077l-1.181-.046c-12.457-.351-25.068-1.376-37.267-2.366-7.359-.598-14.967-1.216-22.439-1.68-7.432-.459-7.22-7.761-7.127-10.885.01-.433.025-.855.025-1.252 0-7.158.365-14.59 1.082-22.104l.216-2.309c.548-6.014 1.119-12.235 3.196-17.997.175-.495.382-1.015.587-1.546 1.32-3.412 2.093-5.788.893-7.602-.459-.696-1.32-1.407-2.222-2.154-1.309-1.072-2.783-2.293-3.866-4.056-1.571-2.572-2.328-5.7-2.174-9.05.248-5.473 2.999-10.999 7.555-15.158 5.082-4.643 12.24-7.457 21.259-8.364 6.541-.655 14.22.005 22.507 1.938 6.524 1.52 12.235 3.979 16.967 7.312 4.647 3.268 12.513 10.2 13.007 19.945.231 4.576-1.247 8.318-4.377 11.122-.339.304-.745.629-1.188.979-.671.536-2.242 1.788-2.376 2.371.129 1.819 1.145 3.829 2.221 5.958.959 1.892 1.948 3.839 2.515 6.029.861 3.345 1.032 6.648 1.187 9.839.072 1.345.139 2.69.257 4.025l.186 2.004c.536 5.777 1.092 11.755 1.808 17.595.094.763.259 1.603.423 2.474.625 3.195 1.377 7.169-.257 10.509-2.244 4.546-7.398 4.546-9.099 4.546zM10.05 112.9s.148.093.591.118c7.534.469 15.183 1.088 22.573 1.691 12.11.984 24.635 2.004 36.916 2.35.406.01.85.031 1.309.051.65.031 1.33.067 2.005.067 2.752 0 3.061-.623 3.175-.86.665-1.351.134-4.123-.299-6.35-.195-1.03-.382-2.015-.495-2.912-.732-5.941-1.29-11.97-1.825-17.795l-.186-2.004c-.134-1.428-.206-2.861-.277-4.298-.15-2.995-.3-5.829-.991-8.529-.38-1.495-1.168-3.046-2.01-4.69-1.262-2.505-2.7-5.339-2.917-8.565-.257-3.834 2.938-6.38 4.845-7.906.33-.263.646-.51.902-.737 1.644-1.474 2.319-3.283 2.189-5.87-.364-7.21-7.261-12.812-10.214-14.884-4.04-2.844-8.978-4.958-14.667-6.287-7.576-1.763-14.533-2.376-20.357-1.794-5.206.521-12.472 2.103-17.467 6.669-3.22 2.948-5.245 6.901-5.411 10.586-.062 1.412.094 3.483 1.212 5.303.505.824 1.443 1.597 2.433 2.417 1.18.98 2.525 2.083 3.53 3.603 3.169 4.787 1.196 9.89-.242 13.616a61.43 61.43 0 0 0-.537 1.407c-1.792 4.968-2.318 10.761-2.828 16.363l-.217 2.335c-.701 7.302-1.057 14.528-1.057 21.475 0 .459-.016.943-.031 1.448-.03 1.05-.102 3.519.348 3.982z"/></g><g fill="#ffcc80"><path d="M82.041 29.601c.654 1.046 1.262 2.134 2.117 3.051 1.618 1.731 4.628 1.834 5.304-.5.975-3.371-5.7-10.014-8.705-6.767-1.148 1.237-.17 2.134.618 3.211.233.324.454.665.666 1.005z"/><path d="M94.318 27.169c.659 1.052 1.262 2.139 2.111 3.051 1.624 1.732 4.638 1.834 5.314-.495.969-3.376-5.705-10.019-8.715-6.767-1.144 1.237-.165 2.128.623 3.211.228.325.46.66.667 1z"/><path d="M104.505 24.793c.666 1.051 1.258 2.138 2.119 3.051 1.623 1.737 4.628 1.839 5.303-.495.974-3.371-5.694-10.014-8.704-6.767-1.15 1.237-.16 2.133.627 3.21.228.326.444.666.655 1.001z"/></g><g fill="#e2d9c3"><path d="M37.587 43.019c-.292.897-.632 1.787-.751 2.739-.221 1.799 1.195 3.615 2.896 2.866 2.456-1.083 3.076-8.259-.303-8.428-1.289-.067-1.335.948-1.58 1.939-.075.295-.167.592-.262.884z"/><path d="M27.707 78.995c.925.28 1.833.609 2.802.709 1.847.183 3.717-1.305 2.958-3.022-1.107-2.483-8.461-2.959-8.648.5-.07 1.315.967 1.336 1.984 1.568.301.073.609.151.904.245z"/><path d="M56.181 47.268c.925.28 1.833.609 2.802.709 1.847.183 3.717-1.305 2.958-3.022-1.107-2.483-8.461-2.959-8.648.5-.07 1.315.967 1.336 1.984 1.568.302.074.609.152.904.245z"/><path d="M57.174 83.24c.407.816.769 1.654 1.325 2.382 1.063 1.382 3.259 1.673 3.92.019.95-2.399-3.453-7.733-5.886-5.571-.925.822-.273 1.544.226 2.392.143.254.288.515.415.778z"/><path d="M14.722 106.064c.418.84.791 1.702 1.363 2.451 1.094 1.422 3.353 1.722 4.034.02.977-2.468-3.553-7.957-6.057-5.732-.951.846-.281 1.589.232 2.461.148.26.298.529.428.8z"/><path d="M49.195 109.772c.418.84.791 1.702 1.363 2.451 1.094 1.422 3.353 1.722 4.034.02.978-2.468-3.553-7.957-6.057-5.732-.951.846-.281 1.589.232 2.461.147.26.297.529.428.8z"/><path d="M61.698 100.377c-.624.696-1.289 1.346-1.774 2.156-.925 1.528-.385 3.722 1.44 3.734 2.637.016 6.079-6.163 3.116-7.676-1.129-.579-1.575.32-2.194 1.109-.187.23-.389.456-.588.677z"/><path d="M28.375 31.098c-.624.696-1.289 1.346-1.774 2.156-.925 1.528-.385 3.722 1.44 3.734 2.637.016 6.079-6.163 3.116-7.676-1.129-.579-1.575.32-2.194 1.109-.187.23-.388.456-.588.677z"/></g></g></svg>