<svg id="レイヤー_1" xmlns="http://www.w3.org/2000/svg" xmlns:xlink="http://www.w3.org/1999/xlink" viewBox="0 0 128 128"><g><g><g><g><g><g><path d="M4.157 22.608c2.959 5.862 7.375 11.055 12.719 14.743a34.152 34.152 0 0 0 5.497 3.081c8.503-8.638 39.524-10.49 39.524-10.49s-2.018-5.846-2.671-7.155c-.767-1.546-1.606-2.898-2.395-3.876-4.68-5.786-12.755-8.863-19.76-10.666-10.47-2.693-21.904-2.427-32.565-1.081-.831.108-1.68.062-2.53.159-4.357.522 1.328 13.591 2.181 15.285z" fill="#bdcf46"/></g><g><path d="M105.652 35.435c1.285.952 2.476 2.002 3.615 3.103a35.014 35.014 0 0 0 1.859-1.187c5.351-3.688 9.758-8.881 12.719-14.743.854-1.694 6.539-14.763 2.175-15.285-.84-.098-1.694-.051-2.529-.159-10.659-1.346-22.085-1.611-32.561 1.081-7.001 1.803-15.08 4.88-19.761 10.666-1.06 1.306-2.154 3.323-3.144 5.545-.67 1.495-1.561 5.868-1.561 5.868s29.196-2.272 39.188 5.111z" fill="#bdcf46"/></g></g></g></g><path d="M70.244 28.453s-3.14.376-5.437.021c-7.079-1.099-14.508-1.208-18.573-.248l29.442 64.151 20.916-6.753 3.953-30.635-17.317-26.468s-5.154-.463-12.984-.068z" fill="#855c52"/><g><defs><path id="SVGID_1_" d="M13.299 77.893c4.315 15.443 16.37 27.405 29.678 36.264 4.301 2.867 8.812 5.428 13.548 7.522 4 1.766 8.152 3.205 12.49 4.224 2.692.635 5.903-2.007 8.073-3.235 3.575-2.039 7.174-4.087 10.755-6.186 20.315-11.926 39.313-35.926 31.787-60.77-2.447-8.081-7.174-15.249-13.979-20.277-6.765-4.998-14.794-6.534-22.967-6.943-1.592.01-3.824.062-4.566 1.249-1.157 1.832.731 3.241 1.51 4.68.195.364.549.861.816 1.378.092.139.204.271.296.414 7.057 10.896 9.272 24.383 6.58 37.042-.179.84-1.583 6.165-3.641 4.91a.691.691 0 0 1-.128-.098c-.594-.542-.312-1.93-.312-2.605 0-11.997-1.311-25.035-8.387-35.157-1.926-2.75-4.537-5.463-7.282-7.395a24.985 24.985 0 0 0-2.078-1.301c-5.803-3.21-12.095-4.029-18.588-3.496-.513.092-1.023.163-1.53.266-.38.103-.763.184-1.152.256-15.669 3.595-29.443 14.747-31.6 31.67-.692 5.382-.789 12.325.677 17.588z"/></defs><use xlink:href="#SVGID_1_" overflow="visible" fill="#d7598b"/><clipPath id="SVGID_2_"><use xlink:href="#SVGID_1_" overflow="visible"/></clipPath><path d="M83.663 41.446s-2.258-5.509 3.237-7.312c6.764-2.221 18.757.273 24.205 6.271l-1.3-7.857s-13.54-11.795-22.499-12.015c-8.963-.22-14.637 3.495-14.637 3.495l-2.191 9.394 13.185 8.024z" clip-path="url(#SVGID_2_)" fill="#855c52"/><path d="M77.816 45.369s-3.312-6.234-13.245-8.521C53.07 34.2 41.524 38.297 33.95 43.165c-15.189 9.765-22.715 37.769-8.102 56.537 0 0-17.41-4.229-21.125-16.902-3.72-12.673 2.59-53.256 33.209-57.679 38.941-5.623 39.884 20.248 39.884 20.248z" clip-path="url(#SVGID_2_)" fill="#855c52"/></g></g><path d="M85.805 108.945c2.871-.994 6.942-4.233 8.903-5.892 4.138-3.508 7.854-7.881 9.72-13.047 1.352-3.765-.707-5.295-1.349-5.538-3.967-1.511-7.658 3.023-9.851 5.679-2.007 2.428-3.729 5.036-5.464 7.655-1.045 1.574-2.123 3.128-3.036 4.787-.754 1.388-2.083 3.628-1.604 5.274.366 1.25 1.559 1.468 2.681 1.082z" fill="#fff"/></g></svg>