<svg id="レイヤー_1" xmlns="http://www.w3.org/2000/svg" xmlns:xlink="http://www.w3.org/1999/xlink" viewBox="0 0 128 128"><g><g><g><path d="M120.419 68.619c-.212-6.457-1.256-10.695-2.465-13.823-1.815-4.706-5.133-9.395-9.018-12.584-15.223-12.532-36.633-16.553-55.803-13.78-16.196 2.341-36.668 9.672-43.106 26.364-1.209 3.128-2.258 7.366-2.47 13.823 0 0 15.539 40.351 59.079 40.351 43.543-.001 53.783-40.351 53.783-40.351z" fill="#fff"/><path d="M64.777 31.587c16.097 0 30.885 4.87 41.62 13.706 3.315 2.729 6.251 6.82 7.834 10.941 1.258 3.258 1.973 7.167 2.176 11.921-1.369 4.71-12.081 36.823-49.771 36.823-37.561 0-52.753-31.685-55.059-37.071.218-4.636.936-8.463 2.171-11.673C20.417 38.962 43.912 33.8 53.706 32.383a77.3 77.3 0 0 1 11.071-.796m0-3.991a81.15 81.15 0 0 0-11.645.836c-16.196 2.341-36.668 9.672-43.106 26.364-1.209 3.128-2.258 7.366-2.47 13.823 0 0 15.539 40.351 59.079 40.351 43.543 0 53.783-40.351 53.783-40.351-.212-6.457-1.256-10.695-2.465-13.823-1.815-4.706-5.133-9.395-9.018-12.584-12.19-10.036-28.351-14.616-44.158-14.616z" fill="#ed6c30"/></g><g><g><path d="M116.29 68.987c0 14.252-23.282 25.804-52.004 25.804-28.729 0-52.006-11.552-52.006-25.804 0-14.252 23.277-25.804 52.006-25.804 28.722 0 52.004 11.551 52.004 25.804z" fill="#fcd4b5"/><g><g><defs><path id="SVGID_1_" d="M116.39 68.896c0 14.261-23.282 25.818-52.008 25.818-28.72 0-51.998-11.557-51.998-25.818 0-14.256 23.278-25.813 51.998-25.813 28.725 0 52.008 11.556 52.008 25.813z"/></defs><clipPath id="SVGID_2_"><use xlink:href="#SVGID_1_" overflow="visible"/></clipPath><g clip-path="url(#SVGID_2_)" fill="#b89278"><path d="M28.031 92.46c-1.14 0-2.11-.875-2.206-2.037-.092-1.074.122-2.136.312-3.072l.136-.689c1.503-8.783 12.012-16.436 19.044-15.955a2.211 2.211 0 0 1 2.062 2.361c-.078 1.227-1.152 2.128-2.366 2.067-4.546-.334-13.216 5.521-14.369 12.272-.043.269-.095.541-.156.823-.13.646-.281 1.378-.242 1.82a2.217 2.217 0 0 1-2.028 2.4c-.061.006-.122.01-.187.01z"/><path d="M23.519 90.016c-.64 0-1.273-.277-1.71-.806-2.596-3.115-2.778-7.882-.516-13.069 1.897-4.359 5.841-9.16 10.005-9.394 1.24-.052 2.272.871 2.336 2.093a2.21 2.21 0 0 1-2.089 2.339c-1.612.087-4.48 2.817-6.188 6.734-1.543 3.545-1.595 6.708-.135 8.463a2.223 2.223 0 0 1-1.703 3.64z"/><path d="M14.139 81.93a2.259 2.259 0 0 1-1.513-.576c-2.185-1.937-1.686-5.642-.884-8.407.277-.975 1.352-2.574 6.586-8.935l-.386-.39 2.028-1.525c.56-.42 2.604-1.737 4.329-1.755a2.218 2.218 0 0 1-.03 4.437h-.039c-.164.026-.823.325-1.422.745-.229.312-.502.633-.771.966-3.692 4.481-5.741 7.12-6.084 7.844-.623 2.171-.493 3.488-.329 3.761.91.815.97 2.188.16 3.103a2.199 2.199 0 0 1-1.645.732z"/><path d="M44.986 73.628c-.091 0-.177 0-.269-.014a178.788 178.788 0 0 1-5.369-.745 223.542 223.542 0 0 0-3.366-.485c-4.004-.55-7.414-2.098-10.148-4.602-2.153-1.976-5.716-11.496-4.216-15.587a2.218 2.218 0 0 1 2.847-1.322 2.214 2.214 0 0 1 1.316 2.847c-.726 1.98 1.821 9.546 3.061 10.799 2.045 1.872 4.653 3.042 7.739 3.466 1.139.156 2.278.325 3.414.494 1.751.26 3.501.52 5.243.728a2.218 2.218 0 1 1-.252 4.421z"/><path d="M38.773 64.588h-.122c-1.533-.083-8.931-3.228-10.435-7.458-.71-1.998-1.937-8.705.625-11.509a2.227 2.227 0 0 1 3.137-.143c.901.827.971 2.227.143 3.133-.637.792-.472 4.927.273 7.032.633 1.781 5.343 4.221 6.698 4.537 1.228.065 2.063 1.096 2.003 2.318-.069 1.19-1.144 2.09-2.322 2.09z"/><path d="M37.447 72.311a2.215 2.215 0 0 1-1.569-3.787c1.867-1.859 3.351-6.998 2.688-9.317-.677-2.37-2.86-5.313-5.556-7.492-.32-.265-.693-.477-1.057-.698a18.276 18.276 0 0 1-1.301-.85l-.385-.303c-.195-.156-.49-.386-.597-.425-1.142-.398-1.809-1.646-1.437-2.791.364-1.148 1.534-1.811 2.687-1.465.928.268 1.603.806 2.102 1.205l.29.225c.3.221.625.416.945.611.532.325 1.062.654 1.538 1.035 2.678 2.163 5.933 5.855 7.037 9.729 1.105 3.878-.793 10.655-3.822 13.676a2.19 2.19 0 0 1-1.563.647z"/><path d="M45.169 75.136a2.212 2.212 0 0 1-1.422-.511 2.219 2.219 0 0 1-.285-3.124c2.504-3.007 2.851-5.854 2.885-6.938.257-9.078-1.238-13.151-10.139-17.939l-.178-.065c-.646-.239-2.145-.802-2.458-2.41a2.216 2.216 0 0 1 1.761-2.596 2.217 2.217 0 0 1 2.179.823l.074.026c.277.104.535.208.728.312 10.9 5.863 12.749 12.003 12.462 21.978-.052 1.924-.637 5.729-3.908 9.646a2.188 2.188 0 0 1-1.699.798z"/><path d="M55.335 58.756a2.224 2.224 0 0 1-2.22-2.219c0-6.335-.312-8.294-7.325-11.335a7.249 7.249 0 0 1-.785-.412c-.08-.052-.174-.108-.261-.16a2.217 2.217 0 0 1-.321-4.403c1.226-.208 2.236.381 2.833.736.113.06.2.126.304.169 9.048 3.921 9.993 7.704 9.993 15.404a2.222 2.222 0 0 1-2.218 2.22z"/><path d="M33.682 95.476a2.22 2.22 0 0 1-2.08-2.99c1.767-4.792 9.434-10.087 11.895-10.668.147-.034.389-.078.658-.126.235-.038.721-.121 1.006-.195a2.203 2.203 0 0 1 2.366-.178 2.225 2.225 0 0 1 .919 3.003c-.673 1.252-2.129 1.504-3.541 1.742-.165.031-.299.052-.402.074-1.404.377-7.602 4.797-8.736 7.882a2.219 2.219 0 0 1-2.085 1.456z"/><path d="M68.33 97.547a2.208 2.208 0 0 1-1.772-.889 2.214 2.214 0 0 1 .438-3.106c1.885-1.417 1.607-3.596 1.404-4.463-.425-1.79-1.938-4.056-4.797-4.576a2.212 2.212 0 0 1-1.786-2.574c.218-1.205 1.365-2.02 2.575-1.79 4.09.737 7.357 3.844 8.324 7.913.835 3.527-.334 6.989-3.051 9.039a2.236 2.236 0 0 1-1.335.446z"/><path d="M77.179 98.301c-.234 0-.485-.044-.724-.126a2.213 2.213 0 0 1-1.369-2.821c1.828-5.278 2.032-14.101-4.924-16.791a2.22 2.22 0 0 1 1.603-4.139c9.881 3.822 9.906 15.479 7.519 22.382a2.238 2.238 0 0 1-2.105 1.495z"/><path d="M85.088 97.547a2.22 2.22 0 0 1-1.752-3.584c3.79-4.862 1.872-8.415-1.829-14.278-1.508-2.396-3.115-4.463-4.779-6.153a2.223 2.223 0 0 1 .021-3.137 2.224 2.224 0 0 1 3.143.021c1.885 1.916 3.691 4.238 5.372 6.903 3.493 5.533 7.453 11.812 1.578 19.37a2.22 2.22 0 0 1-1.754.858z"/><path d="M100.006 90.739l-1.382-.199a2.222 2.222 0 0 1-1.699-1.452c-.29-.355-.524-.711-.736-1.04l-.294-.442c-.492-.702-1.354-1.291-2.268-1.906l-.386-.26c-.905-.628-1.434-1.114-1.776-1.56-.32-.082-.784-.19-1.456-.355l-1.3-.312c-.152-.03-.438-.052-.762-.087-2.067-.212-4.201-.433-4.923-2.231a2.221 2.221 0 0 1 3.592-2.431c.455.112 1.331.199 1.781.247.593.061 1.092.126 1.36.191l1.291.312c2.739.663 3.458.837 4 2.023.087.083.295.26.706.547l.363.242c1.153.78 2.454 1.668 3.416 3.046l.363.55c.304.459.468.702.689.884l.535.428.553 1.847-1.667 1.958z"/><path d="M106.019 88.326a2.253 2.253 0 0 1-1.654-.72c-.675-.728-.957-1.568-1.182-2.24-.092-.269-.23-.681-.321-.784-2.639-3.033-5.763-5.442-8.792-6.773-2.729-1.196-5.85-1.183-9.164-1.169l-1.145.004a2.221 2.221 0 0 1-2.21-2.223c0-1.227.992-2.214 2.219-2.214l1.109-.004c3.644-.009 7.384-.031 10.972 1.547 3.618 1.586 7.297 4.402 10.36 7.921.667.767.962 1.647 1.174 2.284.078.226.194.568.261.668a2.202 2.202 0 0 1-.131 3.12 2.217 2.217 0 0 1-1.496.583z"/><path d="M110.698 82.667a2.23 2.23 0 0 1-2.178-1.76c-.269-1.308-1.846-2.886-2.357-3.406-1.208-1.217-2.859-2.201-5.041-3.016-1.484-.55-3.014-.62-4.786-.702l-1.231-.061c-.706-.039-1.479.078-2.301.204-.906.143-1.858.299-2.868.264a2.217 2.217 0 0 1-2.171-2.266c.025-1.227 1.065-2.184 2.266-2.171.638.013 1.343-.096 2.093-.208.963-.156 2.063-.33 3.251-.251l1.165.056c1.968.091 4 .187 6.128.979 2.794 1.036 4.97 2.361 6.645 4.039 1.402 1.413 3.077 3.328 3.555 5.625a2.216 2.216 0 0 1-1.711 2.63 2.375 2.375 0 0 1-.459.044z"/><path d="M105.171 68.428c-1.629 0-3.28-.069-4.909-.329-.829-.13-1.638-.338-2.436-.546-.498-.13-.994-.264-1.508-.368a2.219 2.219 0 1 1 .893-4.347c.585.121 1.166.269 1.745.425.66.169 1.313.346 1.994.455 2.08.329 4.36.282 6.564.238l1.041-.018c2.436-.043 5.057-.862 8.246-2.574a2.216 2.216 0 0 1 3.003.901 2.222 2.222 0 0 1-.901 3.007c-3.839 2.063-7.107 3.046-10.278 3.103l-1.015.017c-.805.018-1.616.036-2.439.036z"/><path d="M104.49 74.628c-.726 0-1.549-.091-2.335-.489a2.217 2.217 0 1 1 1.979-3.969c.191.043.694.013 1.006-.005.294-.017.574-.03.841-.03 2.51 0 4.446-.061 6.266-.182 1.543-.108 3.087-.425 4.714-.979l.421-.13c.17-.052.509-.147.741-.242a2.221 2.221 0 0 1 3.982 1.711c-.351 1.859-2.297 2.44-3.458 2.787l-.255.078c-2.003.677-3.909 1.066-5.838 1.2-1.937.135-3.965.195-6.573.195-.18 0-.377.009-.569.021-.289.017-.593.034-.922.034z"/></g></g><g><path d="M65.414 67.102c-2.046 1.742-4.325 3.259-6.742 4.03-6.361 2.036-8.156-4.42-6.128-9.646 1.451-3.735 3.12-8.13 5.292-11.492a27.798 27.798 0 0 1 4.969-5.746c4.668-4.099 12.481-5.563 16.913-.286.715.858 1.486 2.253 1.634 3.397.58 4.567-2.432 8.173-5.629 11.016-3.359 2.981-6.895 5.815-10.309 8.727z" fill="#f79329"/><path d="M56.436 73.732c-2.267 0-4.195-.997-5.435-2.808-1.744-2.553-1.949-6.573-.523-10.244l.178-.464c1.455-3.756 3.11-8.016 5.32-11.426a29.851 29.851 0 0 1 5.365-6.21c3.023-2.656 7.084-4.242 10.854-4.242 3.73 0 6.913 1.456 9.222 4.203.845 1.006 1.91 2.8 2.136 4.528.745 5.894-3.267 10.222-6.361 12.965-2.089 1.863-4.26 3.666-6.426 5.469-1.309 1.092-2.622 2.184-3.914 3.284-2.6 2.214-5.052 3.671-7.505 4.455-1.014.325-1.993.49-2.911.49zm15.759-30.957c-2.726 0-5.689 1.174-7.926 3.137a25.432 25.432 0 0 0-4.57 5.287c-1.964 3.033-3.523 7.064-4.906 10.625l-.183.464c-.888 2.274-.862 4.797.053 6.131.654.954 1.738 1.109 3.332.598 1.858-.593 3.87-1.807 5.979-3.605 1.3-1.114 2.626-2.214 3.955-3.319 2.125-1.772 4.257-3.545 6.319-5.373 3.758-3.346 5.273-6.145 4.901-9.083-.073-.581-.585-1.59-1.136-2.245-1.806-2.162-4.167-2.617-5.818-2.617z" fill="#855c52"/><path d="M78.127 67.656c-2.288 1.404-4.784 2.54-7.284 2.93-6.608 1.014-7.371-5.65-4.54-10.486 2.019-3.467 4.358-7.54 7.032-10.513a27.553 27.553 0 0 1 5.807-4.905c5.256-3.31 13.199-3.536 16.747 2.375.577.962 1.116 2.453 1.084 3.614-.147 4.602-3.688 7.688-7.29 9.992-3.782 2.417-7.725 4.662-11.556 6.993z" fill="#f79329"/><path d="M69.556 72.904c-2.674 0-4.801-1.153-6.01-3.246-1.625-2.833-1.296-7.024.846-10.681l.225-.403c2.036-3.488 4.342-7.444 7.067-10.474a29.719 29.719 0 0 1 6.275-5.291c2.721-1.72 5.948-2.665 9.086-2.665 4.632 0 8.55 2.102 10.746 5.772.677 1.126 1.448 3.063 1.4 4.814-.191 5.936-4.84 9.581-8.316 11.803-2.392 1.53-4.848 2.99-7.306 4.446-1.426.854-2.868 1.707-4.285 2.574-2.855 1.746-5.586 2.83-8.099 3.224-.58.088-1.123.127-1.629.127zm17.489-28.322c-2.279 0-4.724.724-6.716 1.98a25.365 25.365 0 0 0-5.343 4.506c-2.423 2.687-4.606 6.436-6.531 9.742l-.237.407c-1.288 2.201-1.63 4.818-.823 6.231.246.438.749 1.019 2.161 1.019.299 0 .616-.026.95-.074 1.928-.303 4.107-1.187 6.461-2.626a464.524 464.524 0 0 1 4.337-2.6c2.413-1.435 4.831-2.868 7.184-4.372 4.234-2.708 6.171-5.239 6.267-8.198.017-.585-.325-1.664-.767-2.396-1.791-2.991-4.768-3.619-6.943-3.619z" fill="#855c52"/><path d="M86.043 73.888c-2.538.893-5.211 1.481-7.742 1.326-6.673-.398-6.015-7.063-2.236-11.206 2.705-2.964 5.85-6.448 9.087-8.796a27.812 27.812 0 0 1 6.712-3.571c5.828-2.132 13.65-.676 15.869 5.842.366 1.057.571 2.634.294 3.752-1.108 4.472-5.213 6.751-9.221 8.242-4.203 1.568-8.528 2.928-12.763 4.411z" fill="#f79329"/><path d="M79.108 77.458c-.313 0-.626-.008-.938-.025-4.402-.265-6.046-2.734-6.635-4.182-1.273-3.137-.108-7.449 2.893-10.738l.267-.29c2.734-3.003 5.837-6.404 9.151-8.81a30.018 30.018 0 0 1 7.254-3.857 17.52 17.52 0 0 1 5.972-1.053c6.136 0 11.026 3.168 12.761 8.263.425 1.244.778 3.298.352 5.001-1.43 5.776-6.742 8.35-10.608 9.789-2.634.983-5.312 1.885-7.994 2.786-1.607.542-3.215 1.083-4.81 1.642-2.787.98-5.367 1.474-7.665 1.474zM97.072 52.94c-1.513 0-3.051.274-4.445.78a25.48 25.48 0 0 0-6.171 3.285c-2.951 2.141-5.885 5.365-8.485 8.207l-.268.294c-1.786 1.955-2.67 4.567-2.055 6.076.348.849 1.282 1.331 2.791 1.421 1.997.116 4.26-.291 6.866-1.209a448.09 448.09 0 0 1 4.864-1.655c2.634-.889 5.275-1.777 7.864-2.739 4.711-1.755 7.133-3.818 7.844-6.7.142-.571.034-1.694-.243-2.5-1.659-4.878-6.968-5.26-8.562-5.26z" fill="#855c52"/><g><g><path d="M42.988 84.556c-.662-6.5 3.134-13.402 8.672-16.557 9.233-5.264 22.29-.29 18.68 11.947-1.52 5.166-6.49 8.511-11.349 10.271-3.718 1.356-8.314 1.941-11.977.143-2.69-1.324-3.783-3.412-4.026-5.804z" fill="#fff"/></g></g></g></g></g></g><path d="M62.034 82.857c-4.654 1.074-10.89-2.522-9.771-7.878 1.014-4.862 7.834-6.66 11.712-4.445 4.351 2.487 3.817 9.507-.376 11.742a6.438 6.438 0 0 1-1.565.581z" fill="#fcc21b"/></g><g><g><path d="M50.144 3.412c.382-1.161.217-2.669-1.084-2.808-3.761-.382-7.409 4.991-8.778 7.773-1.993 4.091-2.228 9.013-.334 13.182 1.166 2.574 3.085 4.775 4.104 7.41.516 1.326.767 2.695.637 4.116-.116 1.239-1.035 2.973-.429 4.177 1.3 2.548 4.256-1.005 5.097-2.218 4.696-6.777-.906-13.138-1.859-20.02-.521-3.787.402-7.704 2.352-10.954a3.33 3.33 0 0 0 .294-.658z" fill="#40c0e7"/></g><g><path d="M84.284 3.412c.378-1.161.218-2.669-1.082-2.808-3.762-.382-7.415 4.991-8.773 7.773-2 4.091-2.229 9.013-.34 13.182 1.165 2.574 3.085 4.775 4.111 7.41.508 1.326.759 2.695.629 4.116-.108 1.239-1.031 2.973-.425 4.177 1.292 2.548 4.251-1.005 5.092-2.218 4.697-6.777-.905-13.138-1.859-20.02-.52-3.787.403-7.704 2.35-10.954.119-.199.22-.423.297-.658z" fill="#40c0e7"/></g><g><path d="M66.462 3.412c.382-1.161.226-2.669-1.078-2.808-3.762-.382-7.41 4.991-8.767 7.773-2.002 4.091-2.236 9.013-.347 13.182 1.17 2.574 3.086 4.775 4.108 7.41.515 1.326.763 2.695.637 4.116-.113 1.239-1.04 2.973-.425 4.177 1.296 2.548 4.242-1.005 5.091-2.218 4.698-6.777-.904-13.138-1.862-20.02-.52-3.787.407-7.704 2.357-10.954a3.37 3.37 0 0 0 .286-.658z" fill="#40c0e7"/></g></g><g><path d="M116.374 68.619c0 .095.016.182.016.277 0 14.261-23.282 25.818-52.008 25.818-28.72 0-51.998-11.557-51.998-25.818 0-.004-.291-2.833 0-6.101.221-2.461 1.031-5.594 1.031-5.594l-5.677 8.194c0 .078-.217 1.083-.182 3.224.004.428.091 1.637.113 2.08.657 13.45 7.973 24.743 15.686 31.867 2.184 2.019 4.454 3.96 6.829 5.685 4.546 3.311 9.065 5.625 13.719 7.289-.03 1.317.073 2.643.586 3.7 2.963 6.153 13.017 7.696 18.818 8.102 6.946.486 23.75-1.29 24.058-10.858.023-.711.108-1.577.113-2.461a55.09 55.09 0 0 0 9.966-5.772c2.378-1.725 4.646-3.666 6.834-5.685 7.2-6.647 14.782-18.572 15.743-29.873.272-1.309.394-2.682.426-4.073h-4.073z" fill="#ed6c30"/></g></g></svg>