<svg xmlns="http://www.w3.org/2000/svg" viewBox="0 0 128 128"><g id="图层_1"><g><g><path d="M40.276 112.82c0-11.078 10.59-20.059 23.654-20.059s23.654 8.981 23.654 20.059c0 5.539-11.827 9.509-23.654 9.509-11.826 0-23.654-3.97-23.654-9.509z" fill="#e0e0e0"/><path d="M87.584 112.82c0-11.078-10.59-20.059-23.654-20.059l-.107.002c5 8.793 7.386 19.056 6.746 29.154 9.243-1.149 17.015-4.607 17.015-9.097z" fill="#bdbdbd"/><path d="M117.542 63.003c0 25.109-24.003 45.463-53.612 45.463S10.318 88.111 10.318 63.003s107.224-25.109 107.224 0z" fill="#e0e0e0"/><ellipse cx="63.93" cy="62.89" rx="53.612" ry="23.727" fill="#757576"/><path d="M117.539 62.951c-.053 9.308-12.22 17.352-29.888 21.218-4.87 4.618-12.142 10.628-19.956 14.083-8.487 3.752-22.369 7.463-19.643 8.18a62.386 62.386 0 0 0 15.878 2.034c29.609 0 53.612-20.355 53.612-45.463 0-.018-.003-.035-.003-.052z" fill="#bdbdbd"/></g><g><g><path d="M63.189 6.239h-.066c-2.64.009-6.573.338-10.066 3.054-.41.319-1.749.408-2.912.487-1.944.127-4.359.288-6.845 1.399-3.009 1.347-4.543 3.674-5.561 5.213-.3.459-.719 1.084-.908 1.248 0 0-.511.167-.863.288-.683.241-1.371.49-2.023.796-.159.079-.287.126-.42.177-.546.218-1.3.515-2.115 1.031-2.305 1.443-4.195 4.027-5.081 6.91-.132.426-.234.848-.339 1.269a13.01 13.01 0 0 0-5.235 4.352c-1.596 2.293-2.42 4.761-2.473 7.35l-.009.516c-.004.334-.014.755-.039 1.046-.035.044-.084.089-.124.132-.497.537-1.184 1.271-1.784 2.289-1.197 2.072-1.802 4.483-1.811 7.188-.746 1.157-1.648 2.701-2.01 4.839-.546 3.194.599 5.894 1.511 7.64 1.839 3.475 4.866 6.59 8.334 8.572 12.586 7.205 27.023 11.01 41.746 11.01 3.385 0 6.831-.2 10.229-.595 3.56-.417 6.821-.915 9.959-1.527 6.747-1.326 15.366-3.492 22.272-8.524 3.777-2.77 6.404-6.057 7.782-9.775 1.077-2.876 1.401-5.559.979-7.995-.062-.387-.062-.765-.079-1.139-.066-1.671-.167-4.193-1.887-6.696a17.34 17.34 0 0 0-1.424-1.895c0-.497-.021-1.055-.115-1.653-.321-2.014-.982-3.314-1.876-4.644a13.586 13.586 0 0 0-2.402-2.768c-.018-.159-.032-.325-.044-.461a26.172 26.172 0 0 0-.19-1.662c-.613-3.505-2.028-6.347-4.226-8.465-1.366-1.337-2.886-1.934-3.886-2.325a5.99 5.99 0 0 0-.239-.089c-.387-.467-.756-1.046-1.167-1.695-1.3-2.047-3.076-4.852-7.063-6.564-1.433-.619-2.781-.794-3.76-.919-.173-.021-.334-.037-.507-.061-.074-.091-.15-.186-.23-.278-4.217-5.196-9.694-5.342-13.33-5.436-1.724-.046-3.204-.085-4.341-.53-1.977-.76-3.672-1.11-5.362-1.11z" fill="#edece4"/></g><g fill="#d3d1c5"><path d="M81.726 25.823a2.373 2.373 0 0 0-.418.337c-.864.867-.978 2.432-1.771 3.404-.869 1.054-2.764 1.238-3.045 2.723-.256 1.324 1.467 2.543 2.649 2.675 1.396.162 3.248-.886 4.261-1.771 1.234-1.086 2.106-2.986 1.547-4.595-.428-1.242-1.724-3.652-3.223-2.773z"/><path d="M79.444 44.288c-.529 1.058-.657 2.648-1.541 3.21-.785.515-1.592.868-2.176 1.644-.407.544-.484.784-.484 1.454-.007.901.197.929.852 1.505 1.429 1.219 3.583.899 5.068-.038 2.327-1.452 4.007-8.453-.119-8.777-.828-.067-1.287.381-1.6 1.002z"/><path d="M62.002 60.54c-.533 1.058-.661 2.65-1.542 3.213-.78.509-1.594.864-2.177 1.641-.409.544-.489.787-.489 1.454 0 .902.203.931.86 1.499 1.423 1.224 3.583.903 5.063-.026 2.327-1.457 4.002-8.457-.11-8.781-.843-.066-1.291.376-1.605 1z"/><path d="M97.358 46.864c.538-.807.851-1.77.868-2.709.019-1.273.181-3.508-.877-4.482-.678-.62-2.277-.372-2.733.443-.268.483-.205 1.345-.414 1.891-.551 1.419-3.622 3.331-2.918 4.982.384.907 1.741 1.578 2.641 1.683 1.414.17 2.653-.643 3.433-1.808z"/><path d="M96.63 62.979c.543-.807.86-1.773.872-2.714.018-1.275.185-3.506-.872-4.478-.678-.623-2.278-.372-2.736.443-.269.478-.198 1.339-.419 1.888-.538 1.421-3.614 3.329-2.909 4.987.387.901 1.736 1.571 2.64 1.678 1.416.175 2.645-.645 3.424-1.804z"/><path d="M81.048 71.945c.144-.22.247-.461.336-.698.661-1.853.469-5.398-1.847-6.059-1.314-.373-2.434 1.122-2.803 2.168-.296.84-.467 1.146-1.023 1.93-.63.89-1.13 1.668-2.035 2.282-.498.342-1.874.946-1.627 1.752.128.444 1.49.946 1.887 1.077 2.366.765 5.795-.207 7.112-2.452z"/></g></g></g></g></svg>