<svg id="レイヤー_1" xmlns="http://www.w3.org/2000/svg" xmlns:xlink="http://www.w3.org/1999/xlink" viewBox="0 0 128 128"><g><g><defs><path id="SVGID_1_" d="M20.975 21.201c-7.573 6.904-13.623 15.43-17.062 24.701-8.407 22.658-2.373 52.289 18.495 65.872 8.225 5.363 17.723 8.644 27.406 10.088 30.226 4.497 66.055-11.05 75.051-42.095 2.141-7.386 3.629-17.218 2.487-24.898-3.18-21.5-20.322-42.134-42.161-46.897-23.479-5.127-45.782-3.616-64.216 13.229z"/></defs><use xlink:href="#SVGID_1_" overflow="visible" fill="#f79329"/><clipPath id="SVGID_2_"><use xlink:href="#SVGID_1_" overflow="visible"/></clipPath><g clip-path="url(#SVGID_2_)" fill="#2f2f2f"><path d="M31.144 69.916c1.057-1.729 2.599-2.957 3.925-4.489.633-.726 1.109-1.816 1.795-2.465.915-.854 2-1.267 2.929-2.169 3.129-3.056 6.767-5.57 9.445-9.076 2.434-3.192 5.468-5.658 8.724-8.005 3.094-2.239 5.441-5.48 8.735-7.376 3.396-1.955 6.287-4.577 9.813-6.345 3.153-1.581 4.549-.884 7.538.718 1.438.765 2.637 1.403 3.914 2.415 1.229.973 2.377 1.965 3.692 2.81 1.92 1.237 3.781 2.602 5.609 3.958 1.89 1.394 4.158 2.317 5.996 3.741 1.758 1.355 3.319 3.025 5.102 4.392 1.783 1.364 3.57 2.553 5.048 4.224 1.086 1.228 2.357 1.973 3.576 3.023 1.478 1.268 3.113 2.428 4.454 3.841 1.109 1.168 2.082 2.749 3.068 4.066 1.605 2.15 1.929 4.655 2.485 7.189.383 1.748 1.075 3.457 1.292 5.244.639 5.353-2.339 10.274-4.391 14.988-1.508 3.456-3.492 7.002-6.021 9.859-1.304 1.475-2.73 2.819-4.189 4.126-1.517 1.365-3.024 2.77-4.66 3.986a90.197 90.197 0 0 1-9.419 6.13c-1.689.952-3.555 1.541-5.261 2.514-1.569.884-3.146 1.896-4.851 2.524-1.939.708-4.031 1.209-6.036 1.72-.779.197-1.576.393-2.346.619-.836.235-1.626.756-2.457.962-2.474.609-5.057.874-7.551.501-.688-.098-2.565-.245-1.483-1.148.519-.433 1.055-.59 1.527-1.189 1.369-1.737 1.135-3.968-.183-5.598-1.536-1.905-2.843-3.781-4.64-5.48-3.462-3.271-6.877-6.286-10.176-9.645-1.631-1.67-3.462-3.114-5.092-4.804-1.73-1.796-3.275-3.633-5.089-5.361-2.071-1.973-4.268-4.105-6.604-5.884-1.601-1.228-2.99-2.426-4.307-3.938-1.474-1.689-4.017-2.612-5.053-4.597-1.043-2.013.11-4.302 1.142-5.981z"/><path d="M60.353 26.662c1.65.363 3.555.098 5.485-.609 1.469-.54 2.705-1.994 1.276-3.349-.952-.903-3.23-.236-4.404-.118-1.497.147-2.4-.757-3.23-1.788-.777-.962-2.338-1.729-3.473-.775-.834.697-.344 1.581-.043 2.426.868 2.474 2.454 3.78 4.389 4.213z"/><path d="M96.023 29.913c.521.599 1.11 1.315 1.788 1.738 1.502.923 6.572 1.856 7.716-.098.44-.757.952-.944.143-1.65-.441-.393-1.286-.718-1.876-.776-1.169-.108-2.22-.314-3.296-.816-1.434-.668-2.102-2.622-3.978-2.494-2.4.167-1.625 2.79-.697 3.869.065.08.132.148.2.227z"/><path d="M28.993 36.68c.668 1.286 3.28 1.631 4.448 1.65 2.255.068 4.298-1.474 5.806-2.985.652-.659 1.335-1.474 1.547-2.357.31-1.268-.345-2.878-1.725-3.025-1.341-.138-2.289 1.021-3.212 1.915-.828.796-1.31 1.464-2.514 1.689-1.061.187-2.211-.01-3.201.511-.629.324-1.42 1.434-1.283 2.199.027.138.07.275.134.403z"/><path d="M20.84 59.308c-.509 1.366-1.104 2.27.015 3.458.988 1.041 2.172.894 3.174-.039 1.292-1.197 1.591-3.291 1.621-4.979.059-2.77-.837-6.6-4.523-5.412-3.826 1.238.572 4.684-.287 6.972z"/><path d="M26.93 86.642c1.46-.089 2.497-.403 3.306 1.021.713 1.237.23 2.327-.954 3.024-1.522.885-3.608.561-5.233.108-2.062-.579-5.76-2.415-4.316-5.186 1.383-2.66 5.282 1.162 7.197 1.033z"/><path d="M29.337 111.393c.078-.306.191-.609.352-.944.645-1.296 1.637-2.032 3.096-1.531 2.622.894 2.45 3.89 3.162 6.069.545 1.67 1.434 3.291 2.863 4.361.646.491 4.238 1.247 4.399 1.797-1.094.618-2.105.924-3.339 1.12-6.231.992-12.189-4.43-10.533-10.872z"/><path d="M49.043 113.808c.987-.146 2.004.275 2.682 1.424 1.049 1.77.564 4.106 1.753 5.806 1.616 2.308 5.079 1.403 7.415 1.915-.188.5-.563 1.109-1.045 1.414-.541.354-1.258.628-1.871.845-1.086.363-2.279.245-3.398.108-2.112-.246-5.279-.629-6.847-2.24-1.492-1.542-2.18-6-.907-7.798.583-.826 1.388-1.346 2.218-1.474z"/></g></g></g></svg>