<svg id="レイヤー_1" xmlns="http://www.w3.org/2000/svg" viewBox="0 0 128 128"><g><g><g><g><g><path d="M114.424 4.273c-.266-1.091-1.033-2.245-1.663-3.131-.526-.736-1.164-.886-1.603-.886-.866 0-1.613.601-2.21 1.081-.184.146-.359.292-.52.392-.622.4-1.332.641-2.09.901-.671.23-1.343.462-1.974.792-4.554 2.375-9.492 7.144-9.723 13.406-.011.3.126.591.36.781.431.352 2.342 1.644 3.811 1.644.361 0 .686-.08.963-.23.872-.487 1.102-1.674 1.312-2.715.059-.321.14-.712.201-.857.476-1.08.742-1.677 1.407-2.56 1.684-2.224 4.515-4.894 8.5-4.974.162 0 .332.016.505.025.6.045 1.265.18 2.116-.29 1.324-.723.877-2.367.608-3.379z" fill="#855c52"/><path d="M110.011 21.246c-.632-1.157-1.324-2.345-2.081-3.157-2.658-2.874-5.98-4.894-8.885-6.562-5.962-3.426-12.77-4.629-18.72-3.255-1.894.436-3.742 1.147-5.216 2.004-8.466 4.954-14.748 10.91-21.415 17.232a388.868 388.868 0 0 1-5.656 5.299c-2.726 2.495-5.867 4.384-9.188 6.382-2.154 1.292-4.378 2.625-6.467 4.138-5.121 3.717-21.891 17.263-22.298 35.287-.275 12.493 5.104 23.54 16.07 32.811 11.755 9.965 26.617 16.091 39.704 16.312 7.225.119 13.764-1.534 19.419-4.919 4.768-2.855 9.357-7.205 11.973-11.353 5.846-9.267 9.592-23.224 9.572-35.507-.017-10.69 1.103-18.654 3.837-27.503 2.551-8.243 4.455-17.902-.649-27.209z" fill="#bdcf46"/></g></g></g></g><g fill="#fff"><path d="M100.699 40.134c-.507-.349-1.088-.536-1.68-.349-.74.217-1.639 1.277-1.429 2.089.342 1.327 3.347 2.755 4.112 1.245.503-.965-.073-2.314-1.003-2.985z"/><path d="M92.692 21.095c-.485-.336-1.072-.511-1.673-.341-.762.226-1.644 1.295-1.443 2.089.345 1.338 3.341 2.755 4.124 1.239.495-.957-.086-2.291-1.008-2.987z"/><path d="M71.557 52.09c.844 1.696-1.303 3.18-2.85 2.483-.905-.391-1.398-1.783-.946-2.632.756-1.496 3.065-1.323 3.796.149z"/><path d="M70.024 111.768c1.058 1.096.055 3.25-1.357 3.356-1.541.092-2.791-1.683-2.313-3.088.54-1.67 2.695-1.262 3.67-.268z"/><path d="M87.675 106.086c1.071 1.069.054 3.251-1.344 3.365-1.547.101-2.816-1.699-2.334-3.104.545-1.649 2.714-1.237 3.678-.261z"/><path d="M45.773 105.069c1.083 1.103.071 3.266-1.353 3.354-1.533.128-2.781-1.659-2.314-3.086.552-1.653 2.72-1.245 3.667-.268z"/><path d="M96.819 83.508c.342.528.511 1.178.371 1.809-.507 2.337-3.666 1.668-3.857-.521a2.783 2.783 0 0 1 .21-1.317c.772-1.802 2.485-1.213 3.276.029z"/><path d="M77.999 24.953c.923.941.051 2.857-1.206 2.939-1.354.117-2.479-1.492-2.063-2.713.478-1.474 2.403-1.107 3.269-.226z"/><path d="M23.037 91.638c2.158 1.171 3.711-2.349 1.873-3.582-.637-.433-1.448-.42-2.104-.059-1.439.772-1.137 2.898.231 3.641z"/><path d="M41.371 54.045c1.177.635 2.881-.624 2.659-1.896-.226-1.157-1.729-2.365-2.896-1.754-1.441.78-1.155 2.896.237 3.65z"/><path d="M24.565 69.073c-.011.338.085.679.313.977.377.496.883.832 1.525.757 1.501-.172 2.065-1.797 1.116-2.933-1.071-1.289-2.92-.41-2.954 1.199z"/><path d="M96.323 66.651c1.073-.11 1.995-.977 1.025-2.561-.868-1.442-2.964-.543-3.019 1.003-.039 1.142 1.038 1.654 1.994 1.558z"/><path d="M52.646 64.281c1.253.291 1.776 1.784 1.004 2.821-1.184 1.578-3.416-.086-2.855-1.797.244-.752 1.085-1.199 1.851-1.024z"/><path d="M42.813 85.928c.286.397.756.746 1.482.997 2.976.979 2.505-4.068.506-3.788-1.908.257-2.739 1.693-1.988 2.791z"/><path d="M81.571 45.757c.285.391.766.739 1.464.982 3.005 1.002 2.52-4.046.511-3.783-1.9.262-2.746 1.694-1.975 2.801z"/><path d="M71.284 89.574c.93 1.901-1.595 3.572-3.134 2.512-1.382-.898-1.456-2.832.28-3.327.849-.242 2.435 0 2.854.815z"/><path d="M74.838 72.167c.09 1.007-.634 2.006-2.247 1.662-.477-.102-.893-.38-1.113-.85-.598-1.254.391-2.773 1.788-2.516a1.894 1.894 0 0 1 1.572 1.704z"/><path d="M60.918 37.264c1.422 2.199-3.303 4.49-3.262 1.262.01-1.704 2.196-2.866 3.262-1.262z"/></g></g></svg>