<svg xmlns="http://www.w3.org/2000/svg" xmlns:xlink="http://www.w3.org/1999/xlink" viewBox="0 0 128 128"><g id="图层_1"><g><ellipse cx="63.999" cy="80.79" rx="60.143" ry="37.085" fill="#fff"/><path d="M63.999 120.378c-34.366 0-62.319-17.759-62.319-39.588 0-21.826 27.953-39.588 62.319-39.588 34.363 0 62.321 17.762 62.321 39.588 0 21.829-27.958 39.588-62.321 39.588z" fill="#757576"/><path d="M63.999 116.473C29.142 116.473.788 98.46.788 76.318c0-22.138 28.353-40.155 63.211-40.155 34.854 0 63.213 18.017 63.213 40.155 0 22.142-28.359 40.155-63.213 40.155z" fill="#e0e0e0"/><g><g><g><path d="M52.288 39.634c-1.956.643-3.977 1.324-5.62 2.563-1.288.971-3.313 4.582-3.086 6.472.391 3.256 2.8 7.272 4.741 8.715 4.137 3.075 7.225 10.552 8.687 12.66 1.287 1.856 2.747 18.477 1.95 22.157-.753 3.476.875 11.75 5.137 14.736 3.568 2.5 7.212 2.837 10.334 2.259 2.914-.542 5.885-1.389 8.767-2.082 2.601-.623 5.243-.888 7.824-1.52 3.167-.77 6.195-1.878 9.068-3.379 1.497-.781 3.268-1.447 4.638-2.386 1.123-.77 2.088-1.775 3.191-2.636 4.577-3.575 8.874-3.955 11.432-9.605 3.512-7.765 2.318-14.946-2.048-22.015-.81-1.312-1.543-2.585-2.488-3.813-.9-1.154-2.05-1.84-3.141-2.786-2.345-2.044-4.404-4.448-6.866-6.357-2.297-1.785-5.524-2.793-8.177-4.083-2.597-1.265-4.902-2.963-7.497-4.236-4.045-1.986-8.205-2.547-12.578-3.406-1.515-.296-2.798-1.112-4.29-1.47-2.243-.535-4.616-.82-6.919-1.05-4.329-.439-8.891-.104-13.059 1.262z" fill="#995920"/></g><g><g><path d="M64.801 54.645c.874.47 1.82.797 2.638.989 2.052.485 4.113.931 6.145 1.332 1.463.288 3.191.566 4.695.327 3.346-.535 2.998-6.538 1.995-8.696-1.432-3.052-5.127-4.191-8.31-4.63-2.353-.323-5.973.031-7.693 1.843-1.302 1.381-2.766 4.644-1.945 6.492.444.989 1.405 1.77 2.475 2.343z" fill="#fcc21b"/></g><g><path d="M102.962 55.242c-3.341-1.986-7.246-2.486-11.1-2.032-3.057.37-4.742 3.675-5.331 6.234-.709 3.098 1.059 5.841 3.872 7.557 1.242.758 2.213 1.589 3.686 1.77 2.179.262 4.631.373 6.728-.335 1.558-.523 4.654-1.435 5.511-2.84 1.423-2.34.409-7.099-1.483-8.931a10.337 10.337 0 0 0-1.883-1.423z" fill="#59342d"/></g><g><path d="M77.476 63.4c-.833.185-1.631.423-2.341.654-1.298.423-2.97.858-3.956 1.778-1.339 1.255-1.6 3.363-1.751 5.052-.148 1.693.468 4.425 2.004 5.434 1.679 1.104 4.205.219 5.948-.243 2.63-.704 5.223-1.255 7.705-2.398 3.483-1.616.725-7.5-1.195-9.312-1.659-1.558-4.16-1.469-6.414-.965z" fill="#ed6c30"/></g><g><path d="M109.633 75.021c-.694-.832-1.712-1.401-3.259-1.724-1.889-.384-4.105-.473-6.001-.173-3.579.558-6.113 7.176-4.449 10.082 1.378 2.413 4.601 2.417 7.094 2.232 2.141-.158 4.43-.258 6.414-1.112 2.525-1.097 1.957-2.898 1.628-5.257-.245-1.716-.601-3.063-1.427-4.048z" fill="#fcc21b"/></g><g><path d="M92.545 85.322c-.554-1.112-1.559-2.024-3.224-2.778-2.104-.951-6.093-2.54-8.361-1.385-2.281 1.147-3.781 4.422-3.961 6.742-.456 5.941 8.374 9.362 13.285 7.8 2.594-.812 2.541-3.194 2.763-5.426.2-2.01.154-3.626-.502-4.953z" fill="#59342d"/></g></g></g><g><path d="M48.932 45.075c-2.143.06-4.363.597-6.266 1.382-.993.405-1.74.988-2.283 1.476H40.3c-.392 0-.774-.02-1.157-.04-.388-.016-.778-.036-1.159-.043-.142-.003-.309-.007-.481-.007-1.884 0-4.723.277-7.598 2.674-.467.392-.85.801-1.163 1.156-.217-.013-.44-.02-.648-.02-.389 0-.754.02-1.105.066-3.055.412-7.232 2.45-9.205 5.962-.494.882-.77 1.742-.972 2.421l-.227.135c-3.211 1.93-7.513 6.772-6.163 12.184.072.29.151.56.224.82.01.03.019.056.026.086-.382 1.799-.949 4.503-.003 7.28.614 1.799 1.74 2.99 2.709 3.787.445.366.734.894.789 1.468.383 3.989 2.857 7.291 6.769 8.965 1.436.609 2.948.734 4.285.846.267.023.603.05.912.082a8.8 8.8 0 0 0 1.41 1.611c3.139 2.82 6.325 3.198 9.032 3.198.394 0 .784-.012 1.162-.033a2.24 2.24 0 0 1 1.481.454c.776.592 1.573 1.038 2.304 1.43 1.42.758 3.044 1.143 4.822 1.143 1.539 0 2.951-.277 4.085-.501l.398-.079c1.354-.264 2.402-.771 3.179-1.163.119.053.241.102.363.155 1.729.695 3.475 1.048 5.201 1.048 3.294 0 6.345-1.25 8.917-3.634a2.445 2.445 0 0 1 1.229-.616 7.233 7.233 0 0 0 1.774-.56c4.531-2.107 7.441-5.936 5.564-10.918-.088-.234-.183-.488-.107-.726.063-.196.229-.337.383-.473 5.024-4.435 2.344-11.836-3.091-14.625-.333-.171-.69-.338-.906-.643-.253-.358-.259-.828-.262-1.266-.016-2.486-.259-5.068-1.516-7.212-.957-1.632-2.643-2.935-4.465-3.231-.97-.158-1.698-.938-1.865-1.907-.703-4.074-4.058-7.668-8.161-8.407-.543-.098-1.971-1.992-2.616-2.382a9.21 9.21 0 0 0-3.717-1.275 13.232 13.232 0 0 0-1.799-.068z" fill="#f2f1eb"/><g fill="#d3d1c5"><path d="M50.649 82.936c.427-.643.683-1.417.691-2.161.014-1.018.146-2.8-.698-3.577-.54-.497-1.813-.296-2.18.352-.215.382-.169 1.071-.336 1.509-.431 1.133-2.886 2.658-2.325 3.976.313.725 1.389 1.258 2.111 1.343 1.126.135 2.111-.513 2.737-1.442z"/><path d="M64.057 79.843a4.02 4.02 0 0 0 .689-2.164c.02-1.014.156-2.8-.692-3.574-.547-.497-1.821-.3-2.183.352-.214.382-.165 1.067-.334 1.509-.434 1.133-2.885 2.658-2.325 3.976.309.724 1.387 1.258 2.108 1.34 1.127.138 2.115-.514 2.737-1.439z"/><path d="M61.005 92.541c.428-.645.685-1.416.692-2.164.013-1.018.151-2.8-.695-3.574-.544-.501-1.821-.3-2.184.352-.21.382-.165 1.068-.332 1.505-.434 1.133-2.886 2.661-2.322 3.979.31.725 1.383 1.258 2.108 1.34 1.126.139 2.11-.513 2.733-1.438z"/></g></g></g></g><g><g><g><g/><g><g/><g/><g/><g/><g/></g></g></g></g><g id="mf4F6U.tif"/></g></svg>