<svg xmlns="http://www.w3.org/2000/svg" viewBox="0 0 128 128"><g id="图层_1"><g><path d="M16.228 103.017c5.906 1.595 12.173.81 18.202-.23 14.309-2.466 28.719-6.461 40.531-14.904 2.951-2.109 5.708-4.474 8.461-6.836 8.031-6.889 16.187-13.923 21.815-22.883 4.925-7.84 7.697-17.506 5.939-26.479-2.927-2.953-6.211-5.584-9.742-7.857-11.34-7.295-24.179-13.873-37.161-17.575-6.215-1.772-13.66-3.324-20.518-3.324a38.6 38.6 0 0 0-4.608.258c-7.359.886-14.19 3.89-19.749 10.151-3.852 4.33-7.3 10.31-9.113 15.825-2.308 7.025-3.811 14.819-4.377 22.192-.722 9.325-1.916 18.661-2.051 28.016-.076 5.275.376 10.627 1.543 15.8 2.259 3.849 6.43 6.658 10.828 7.846z" fill="#e4e3de"/><path d="M123.638 54.202c-1.823-8.78-6.354-16.358-12.461-22.517 1.759 8.973-1.014 18.639-5.939 26.479-5.628 8.96-13.785 15.993-21.815 22.883-2.753 2.362-5.51 4.727-8.461 6.836-11.812 8.443-26.223 12.438-40.531 14.904-6.029 1.039-12.296 1.825-18.202.23-4.399-1.188-8.57-3.997-10.829-7.846.801 3.551 1.935 7.018 3.478 10.316 2.823 6.029 7.595 10.888 13.307 14.23 6.539 3.832 13.804 5.356 21.149 5.356 6.323 0 12.704-1.125 18.729-2.877 13.51-3.931 25.474-11.85 35.793-21.145 9.6-8.641 20.361-18.743 24.668-31.334 1.587-4.648 2.124-10.669 1.114-15.515z" fill="#cdcbbf"/></g><path d="M107.361 66.417c-3.798-5.645-8.362-10.771-12.755-15.918-.725-.854-1.759-1.424-2.529-2.246-.773-.822-1.56-1.693-2.656-2.037-2.265-.707-4.674.779-6.601 1.859-2.31 1.301-4.466 2.892-6.734 4.285-4.357 2.662-8.597 5.541-12.776 8.496-3.646 2.566-7.236 5.24-10.876 7.818-2.379 1.684-6.087 3.191-6.881 6.352-.898 3.588 6.897 11.834 8.843 14.518 4.11 5.661 20.759 22.264 13.697 30.687 10.934-4.102 23.184-12.575 29.343-18.073 7.086-6.325 12.745-11.517 17.387-18.141-.011-1.214-.122-2.275-.512-3.52-1.588-5.158-4.042-9.764-6.95-14.08z" fill="#2f2f2f"/><path d="M48.844 10.566c-.151.093-.31.22-.478.386-.987.991-1.118 2.779-2.024 3.891-.993 1.204-3.159 1.415-3.48 3.112-.292 1.513 1.677 2.906 3.027 3.057 1.596.185 3.712-1.013 4.87-2.024 1.41-1.241 2.407-3.412 1.768-5.251-.489-1.421-1.97-4.176-3.683-3.171z" fill="#cdcbbf"/><path d="M42.883 37.856c-.604 1.209-.751 3.026-1.762 3.669-.897.589-1.819.992-2.487 1.879-.465.622-.553.896-.553 1.662-.008 1.029.225 1.062.974 1.72 1.633 1.393 4.095 1.027 5.792-.043 2.659-1.659 4.579-9.66-.136-10.03-.946-.079-1.471.433-1.828 1.143z" fill="#cdcbbf"/><path d="M22.58 45.021c-.609 1.209-.755 3.028-1.763 3.672-.892.582-1.822.987-2.488 1.876-.468.622-.559.899-.559 1.662 0 1.03.231 1.063.982 1.713 1.626 1.399 4.095 1.032 5.786-.03 2.659-1.665 4.573-9.665-.126-10.035-.961-.076-1.473.429-1.832 1.142z" fill="#cdcbbf"/><path d="M66.708 34.613c.615-.922.973-2.022.992-3.096.021-1.455.207-4.009-1.002-5.122-.775-.709-2.603-.425-3.123.506-.307.552-.234 1.537-.473 2.161-.63 1.622-4.14 3.807-3.335 5.693.439 1.037 1.99 1.804 3.019 1.924 1.616.194 3.031-.735 3.922-2.066z" fill="#cdcbbf"/><path d="M90.338 34.949c.62-.922.982-2.026.997-3.102.021-1.457.212-4.007-.997-5.118-.774-.712-2.604-.425-3.127.507-.308.546-.227 1.53-.479 2.158-.614 1.624-4.13 3.805-3.324 5.699.442 1.029 1.984 1.795 3.017 1.918 1.618.2 3.023-.737 3.913-2.062z" fill="#cdcbbf"/><path d="M38.77 68.719c.164-.251.282-.526.384-.798.755-2.117.536-6.169-2.11-6.925-1.502-.426-2.781 1.282-3.203 2.478-.338.96-.534 1.31-1.169 2.206-.72 1.018-1.291 1.906-2.326 2.608-.569.391-2.142 1.081-1.859 2.002.146.507 1.703 1.081 2.156 1.231 2.704.875 6.623-.236 8.127-2.802z" fill="#cdcbbf"/></g></svg>