<svg xmlns="http://www.w3.org/2000/svg" viewBox="0 0 128 128"><g id="图层_1"><path d="M69.084 10.589C56.218 8.317 48.411 15.942 47.316 28.31c-.236 2.682-2.381 5.035-4.012 7.154-5.47 7.107-11.083 14.551-16.823 21.486-4.98 6.012-9.254 12.533-13.628 18.971C3.735 89.376.141 99.798 5.216 115.788c1.109 3.523 3.646 9.273 8.218 9.055 4.572-.207 5.288-6.021 6.121-9.334.425-1.703.924-3.723 2.318-4.936.751-.652 1.376-.443 2.219-.67.85-.226.923-.398 1.593-.887 1.866-1.369 2.376-.707 3.821.697 2.073 2.027 5.496 1.873 8.122 1.348 1.53-.299 2.027-.633 2.942-1.766.979-1.24 2.476-2.055 3.351-3.367.904-1.359.933-1.84 2.589-2.391 3.541-1.168 4.51 1.285 7.036 3.016 2.482 1.701 5.85 2.363 8.783 1.684 1.422-.326 1.829-.725 2.527-1.883.827-1.387 1.91-2.328 2.905-3.588 1.101-1.402 1.984-2.254 3.485-3.195 1.369-.859 2.6-1.24 4.148-1.729 2.839-.896 5.577-2.146 8.402-3.088 3.667-1.232 7.343-2.455 11.011-3.703 7.216-2.455 14.415-4.973 21.56-7.617 4.084-1.512 8.646-2.715 9.707-7.469.361-1.611.634-3.242.805-4.881 1.865-17.838-8.702-33.674-22.338-44.314a85.775 85.775 0 0 0-22.898-12.74c-3.142-1.158-7.723-2.58-12.559-3.441z" fill="#ffe082"/><path d="M52.394 81.544c-.416 0-.823-.018-1.226-.055-3.943-.381-7.004-3.885-7.131-8.158-.072-2.508 1.078-4.836 3.161-6.375.523-.389 1.376-.959 2.336-1.322a9.43 9.43 0 0 1-.495-1.521c-.384-1.539-.257-3.041.359-4.346 1.03-2.189 3.246-3.684 6.247-4.238a12.182 12.182 0 0 1 2.028-.172c1.321 0 4.608.236 6.601 2.445a5.423 5.423 0 0 1 1.313 2.627c3.268-.77 6.914.725 8.628 3.594 2.074 3.459 1.763 8.684-2.009 10.947-1.685 1.014-3.504 1.475-5.745 1.475h-.005c-.366 0-.625.02-.888.037-1.022.045-2.019.045-2.812-.145a3.985 3.985 0 0 1-.829-.299c-.021.035-.044.072-.063.109-.913 1.447-2.091 3.061-4.44 3.975a4.218 4.218 0 0 0-.574.299c-.453.254-.914.498-1.413.66-.905.311-1.928.463-3.043.463zm-1.186-11.637c-.035.029-.643.318-1.247.77-.861.635-1.314 1.531-1.287 2.527.045 1.676 1.158 3.494 2.934 3.666.842.074 1.733.027 2.363-.18.217-.074.407-.199.606-.309a8.244 8.244 0 0 1 1.168-.58c.86-.334 1.377-.832 2.201-2.137.029-.062.062-.145.099-.227.218-.496.589-1.348 1.469-1.928.596-.396 1.243-.605 1.918-.605 1.05 0 1.819.506 2.272.805.082.055.164.117.253.154.028 0 .235.018.504.018.284 0 .575-.018.865-.037a20.38 20.38 0 0 1 1.022-.035c1.512 0 2.517-.244 3.468-.814 1.294-.779 1.291-3.141.426-4.582-.797-1.34-2.681-1.92-4.138-1.285l-.082.08c-.566.398-1.562 1.051-2.726.896a2.722 2.722 0 0 1-1.847-1.096c-.77-1.049-.562-2.254-.44-2.969l.032-.254c.064-.58-.118-.787-.212-.879-.485-.543-1.762-.914-3.156-.914-.435 0-.842.035-1.194.1-1.448.264-2.527.879-2.889 1.648-.199.416-.136.924-.054 1.268.184.75.352.979.361.986.397.244 1.15.742 1.558 1.775.579 1.449.226 2.463-.172 3.051-.322.471-1.067 1.25-2.563 1.25-.37 0-.806-.055-1.205-.117-.111-.016-.215-.036-.307-.046z" fill="#757f3f"/><g><path d="M16.746 69.446c.245-2.4 1.769-4.863 5.139-7.027 2.432-1.557 4.943-2.119 7.806-1.719 6.542.896 12.608 4.408 10.733 12.133-.778 3.215-4.889 5.73-7.777 6.756-3.523 1.258-7.443 1.111-10.813-.518-1.519-.732-3.52-2.109-4.409-3.566-.923-1.531-.861-4.311-.679-6.059z" fill="#ed6c30"/><path fill="#fff" d="M34.802 66.856l-1.45 2.319 3.477.289 1.16-2.608-1.739-1.738z"/><path fill="#fff" d="M24.533 69.745l-2.73.162 1.779 3.002 2.798-.566.408-2.426z"/><path fill="#fff" d="M29.78 74.788l-2.783-.008 2.023 3.332 2.826-.418.256-2.57z"/><path fill="#fff" d="M37.532 70.597l-.435 1.521 1.811.07.072-1.447z"/><path d="M30.89 70.542s-1.304 1.232-1.087 1.303c.218.072 2.029.291 2.029.291l.723-1.158-1.665-.436z" fill="#fff"/><path d="M21.775 73.864s-1.665 1.74-1.23 1.74c.435 0 1.667-.219 1.667-.219l.722-1.158-1.159-.363z" fill="#fff"/><path d="M29.698 62.833s-3.018 3.148-2.231 3.148c.788 0 3.019-.393 3.019-.393l1.312-2.102-2.1-.653z" fill="#fff"/></g><g><path d="M41.049 41.296c-.153-2.418.951-5.09 3.921-7.787 2.137-1.94 4.527-2.898 7.417-2.981 6.594-.182 13.155 2.283 12.575 10.205-.234 3.305-3.875 6.455-6.563 7.949-3.26 1.812-7.153 2.318-10.749 1.268-1.62-.479-3.821-1.502-4.934-2.797-1.159-1.357-1.549-4.111-1.667-5.857z" fill="#ed6c30"/><path fill="#fff" d="M53.563 36.351l-1.449 2.318 3.478.289 1.158-2.607-1.737-1.739z"/><path fill="#fff" d="M48.792 40.751l-2.734.164 1.783 2.996 2.793-.56.413-2.428z"/><path fill="#fff" d="M58.02 42.571l-2.791-.008 2.029 3.333 2.824-.418.254-2.571z"/><path fill="#fff" d="M48.256 47.489l1.45-.943.941.871-.507.797-1.086.215z"/><path fill="#fff" d="M59.702 39.521l-.434 1.521 1.81.072.073-1.449z"/><path d="M60.645 34.159s-1.304 1.232-1.087 1.305c.217.072 2.028.289 2.028.289l.725-1.158-1.666-.436z" fill="#fff"/><path d="M49.633 34.45s-1.666 1.738-1.23 1.738c.434 0 1.666-.217 1.666-.217l.725-1.16-1.161-.361z" fill="#fff"/><path d="M42.896 43.069l-.651 1.16 1.015 1.086s.65-.797.65-1.086c0-.291-.289-1.16-.289-1.16h-.725z" fill="#fff"/></g><g><path d="M75.855 58.626c.245-2.4 1.771-4.863 5.14-7.027 2.431-1.557 4.942-2.119 7.805-1.719 6.541.896 12.607 4.408 10.735 12.133-.779 3.215-4.892 5.73-7.779 6.754-3.522 1.26-7.444 1.113-10.811-.516-1.522-.732-3.522-2.109-4.41-3.566-.925-1.532-.86-4.311-.68-6.059z" fill="#ed6c30"/><path fill="#fff" d="M84.652 54.687l.422 2.699 2.815-2.057-.824-2.725-2.453-.181z"/><path fill="#fff" d="M83.919 61.14l-1.96 1.904 3.31 1.105 1.748-2.255-1.278-2.1z"/><path fill="#fff" d="M92.091 56.483l-2.114 1.813 3.712 1.199 1.866-2.164-1.486-2.109z"/><path fill="#fff" d="M91.841 63.786l1.451-.941.94.871-.506.797-1.087.215z"/><path d="M84.52 65.616s-1.303 1.23-1.086 1.305c.218.072 2.028.289 2.028.289l.724-1.16-1.666-.434z" fill="#fff"/><path d="M79.658 56.524l-.651 1.16 1.015 1.086s.651-.797.651-1.086c0-.291-.29-1.16-.29-1.16h-.725z" fill="#fff"/></g><path d="M54.105 25.354c2.896-1.125 5.395.257 8.266 1.304 2.05.747 4.029 1.675 6.004 2.602l18.203 8.54c2.956 1.387 5.935 2.787 8.547 4.745 3.087 2.314 5.766 4.962 8.209 7.947 1.96 2.395 3.916 6.644 3.403 9.695-.287 1.024-1.086.417-1.264.061a35.352 35.352 0 0 0-10.979-12.896c-5.762-4.135-12.615-6.426-19.398-8.493-1.695-.516-3.416-1.033-4.912-1.983-1.668-1.059-2.965-2.599-4.459-3.891-3.542-3.064-8.284-4.702-12.962-4.479-.991.098-.45-2.381 1.342-3.152z" fill="#dda450"/><path d="M125.834 59.495c-1.736-2.88-4.732-4.364-8.009-3.606-3.083.713-6.789 4.144-8.241 6.956-1.453 2.811-2.261 7.706-4.969 9.344-3.133 1.895-7.223 1.317-10.542 2.864-2.185 1.018-4.701 2.449-6.78 3.67-3.044 1.788-5.859 2.512-9.338 3.112-3.479.6-7.911 1.736-10.035 4.555-.773 1.026-1.294 2.225-2.087 3.235-3.123 3.977-6.825 1.568-11.812.734-1.594-.266-3.605-.437-5.161 0-1.642.461-4.835 2.837-6.339 3.641-3.779 2.018-8.084.158-12.012 1.867-5.189 2.258-7.883 8.072-12.567 11.248-2.666 1.808-6.047 2.687-9.186 1.961-2.375-.549-4.539-2.104-5.746-4.192.247 3.384.964 6.974 2.211 10.903 1.109 3.523 3.646 9.273 8.218 9.055 4.572-.207 5.288-6.021 6.121-9.334.425-1.703.924-3.723 2.318-4.936.751-.652 1.376-.443 2.219-.67.85-.227.923-.398 1.593-.887 1.866-1.369 2.376-.707 3.821.697 2.073 2.027 5.496 1.873 8.122 1.348 1.53-.299 2.027-.633 2.942-1.766.979-1.24 2.476-2.055 3.351-3.367.904-1.359.933-1.84 2.589-2.391 3.541-1.168 4.51 1.285 7.036 3.016 2.482 1.701 5.85 2.363 8.783 1.684 1.422-.326 1.829-.725 2.527-1.883.827-1.387 1.91-2.328 2.905-3.588 1.101-1.402 1.984-2.254 3.485-3.195 1.369-.859 2.6-1.24 4.148-1.729 2.839-.896 5.577-2.146 8.402-3.088 3.667-1.232 7.343-2.455 11.011-3.703 7.216-2.455 14.415-4.973 21.56-7.617 4.084-1.512 8.646-2.715 9.707-7.469.361-1.611.634-3.242.805-4.881.12-1.152.187-2.295.206-3.43.004-2.465.068-5.961-1.256-8.158z" fill="#dda450"/></g></svg>