<svg id="レイヤー_1" xmlns="http://www.w3.org/2000/svg" viewBox="0 0 128 128"><g><g><g><g><path d="M38.873 49.351C36.7 37.45 34.506 25.216 34.431 13.076c-.009-1.514-.531-4.785.986-5.641 1.134-.639 2.967-.813 4.254-.794 1.054.014 1.023.488 1.34 1.353 2.067 5.504 2.237 11.586 3.041 17.358.855 6.12 1.598 12.253 2.565 18.354 1.237 7.727 2.417 15.543 2.31 23.336-.015.86.019 1.964-.579 2.43-1.16.912-3.252.522-4.577 0-1.759-.695-2.078-4.136-2.567-6.04-.563-2.2-1.001-4.249-1.306-6.505-.179-1.382-.602-2.727-.781-4.113-.141-1.206-.021-2.25-.244-3.463z" fill="#fcc21b"/></g><path d="M39.493 6.641h.178c1.054.014 1.023.488 1.34 1.353 2.067 5.504 2.237 11.586 3.041 17.358.855 6.12 1.598 12.253 2.565 18.354 1.237 7.727 2.417 15.543 2.31 23.336-.015.86.019 1.964-.579 2.43-.508.395-1.185.545-1.903.545-.931 0-1.923-.254-2.674-.545-1.759-.695-2.078-4.136-2.567-6.04-.563-2.2-1.001-4.249-1.306-6.505-.179-1.382-.602-2.727-.781-4.113-.141-1.208-.021-2.251-.243-3.464-2.174-11.9-4.368-24.134-4.443-36.274-.009-1.514-.531-4.785.986-5.641 1.086-.611 2.807-.794 4.076-.794m0-6.017c-1.937 0-4.733.273-7.032 1.57-4.512 2.533-4.206 7.943-4.079 10.25.015.254.027.48.033.667.079 12.912 2.448 25.879 4.535 37.319.043.235.056.588.065 1.039.019.564.038 1.265.132 2.063.122 1.006.32 1.88.488 2.656.123.56.244 1.091.292 1.518.327 2.35.771 4.568 1.447 7.22.08.305.15.648.216 1.006.579 2.764 1.543 7.379 5.965 9.132.927.367 2.778.968 4.889.968 2.148 0 4.104-.634 5.626-1.833 2.811-2.204 2.849-5.49 2.867-6.895l.005-.165c.113-8.08-1.011-15.826-2.383-24.389-.64-4.033-1.194-8.192-1.739-12.216a885.203 885.203 0 0 0-.809-6.016 143.043 143.043 0 0 1-.513-4.287c-.517-4.696-1.053-9.546-2.853-14.354l-.052-.15C45.141 1.342 41.677.646 39.74.622h-.247v.002z" fill="#f79329"/><g><path d="M57.409 48.806c-.714-12.08-1.399-24.488-.009-36.548.169-1.504.052-4.818 1.663-5.481 1.204-.498 3.052-.441 4.32-.273 1.048.141.951.611 1.161 1.504 1.392 5.715.824 11.779.921 17.603.104 6.181.104 12.357.326 18.533.275 7.816.51 15.717-.542 23.439-.117.855-.226 1.951-.864 2.346-1.271.761-3.301.122-4.547-.56-1.661-.902-1.564-4.352-1.818-6.303-.291-2.251-.479-4.343-.508-6.613-.009-1.396-.268-2.778-.271-4.178.004-1.222.238-2.237.168-3.469z" fill="#fcc21b"/></g><path d="M61.598 6.387c.64 0 1.254.047 1.786.117 1.048.141.951.611 1.161 1.504 1.392 5.715.824 11.779.921 17.603.104 6.181.104 12.357.326 18.533.275 7.816.51 15.717-.542 23.439-.117.855-.226 1.951-.864 2.346-.415.244-.897.348-1.411.348-1.084 0-2.294-.447-3.136-.907-1.661-.902-1.564-4.352-1.818-6.303-.291-2.251-.479-4.343-.508-6.613-.009-1.396-.268-2.778-.271-4.178.004-1.222.238-2.237.168-3.469-.714-12.08-1.399-24.488-.009-36.548.169-1.504.052-4.818 1.663-5.481.705-.292 1.631-.391 2.534-.391m0-6.016c-1.842 0-3.465.282-4.827.841-4.789 1.979-5.147 7.394-5.302 9.707-.012.244-.023.47-.047.657-1.485 12.856-.705 25.997-.02 37.588.015.235-.019.587-.056 1.043a19.55 19.55 0 0 0-.122 2.054c0 1.02.084 1.913.164 2.703.052.573.104 1.109.108 1.542.028 2.327.197 4.587.559 7.342.038.292.062.635.095.997.212 2.632.623 7.539 4.817 9.814 1.119.606 3.394 1.635 6.007 1.635 1.654 0 3.178-.409 4.513-1.212 3.068-1.871 3.515-5.114 3.703-6.496l.019-.165c1.082-7.929.908-15.783.593-24.497-.146-4.084-.197-8.282-.24-12.338a880.392 880.392 0 0 0-.083-6.077c-.024-1.414-.006-2.849.013-4.287.057-4.733.113-9.63-1.091-14.631l-.037-.165C69.452 1.909 66.101.8 64.188.546a19.366 19.366 0 0 0-2.59-.175z" fill="#f79329"/><g><path d="M79.209 28.37c-2.905 11.751-5.837 23.821-6.665 35.938-.104 1.514-.818 4.747.644 5.692 1.091.7 2.91.991 4.188 1.052 1.067.052 1.053-.427 1.429-1.264 2.397-5.373 2.947-11.431 4.099-17.146 1.223-6.054 2.345-12.127 3.691-18.162 1.696-7.638 3.364-15.37 3.736-23.144.041-.865.133-1.965-.431-2.468-1.102-.983-3.217-.719-4.57-.277-1.8.583-2.331 4-2.929 5.866-.704 2.157-1.26 4.183-1.701 6.415-.268 1.368-.772 2.684-1.029 4.057-.227 1.198-.17 2.242-.462 3.441z" fill="#fcc21b"/></g><path d="M87.702 8.197c.832 0 1.645.179 2.197.672.563.503.472 1.603.431 2.468-.372 7.774-2.04 15.505-3.736 23.144-1.346 6.035-2.468 12.107-3.691 18.162-1.151 5.715-1.701 11.773-4.099 17.146-.353.794-.361 1.269-1.278 1.269-.043 0-.094 0-.15-.005-1.278-.061-3.098-.353-4.188-1.052-1.462-.945-.747-4.179-.644-5.692.828-12.117 3.76-24.187 6.665-35.938.292-1.198.235-2.242.461-3.44.258-1.373.762-2.688 1.029-4.057.441-2.232.997-4.258 1.701-6.415.598-1.866 1.129-5.283 2.929-5.866a7.894 7.894 0 0 1 2.373-.396m0-6.017c-1.751 0-3.275.376-4.244.696-4.531 1.467-5.823 6.223-6.514 8.78-.095.348-.179.677-.273.959-.817 2.52-1.419 4.775-1.87 7.088-.085.433-.235.949-.386 1.495-.227.771-.479 1.645-.658 2.627-.15.813-.214 1.518-.268 2.091-.043.447-.07.799-.128 1.029-2.782 11.248-5.94 24.023-6.814 36.958-.009.15-.038.372-.075.616-.268 2.308-.912 7.704 3.44 10.529 2.43 1.565 5.537 1.931 7.173 2.016.155.005.301.009.441.009 1.81 0 5.076-.611 6.712-4.681l.062-.16c2.097-4.695 2.937-9.522 3.736-14.185.245-1.415.479-2.825.766-4.211.4-1.988.794-3.981 1.18-5.974.785-3.977 1.594-8.089 2.481-12.075 1.896-8.484 3.493-16.159 3.878-24.159l.006-.188c.064-1.396.22-4.667-2.422-7.045-1.151-1.02-3.144-2.215-6.223-2.215z" fill="#f79329"/><g><path d="M93.963 53.248c3.427-11.61 6.989-23.511 12.399-34.387.667-1.354 1.687-4.512 3.422-4.592 1.302-.052 3.017.625 4.159 1.218.935.489.687.898.586 1.809-.643 5.847-3.227 11.356-5.116 16.869-1.993 5.842-4.096 11.652-5.988 17.536-2.384 7.455-4.852 14.965-8.455 21.866-.404.766-.88 1.767-1.613 1.913-1.457.287-3.145-1.002-4.089-2.063-1.256-1.419.009-4.625.432-6.552.485-2.209 1.021-4.245 1.769-6.388.46-1.321.688-2.712 1.16-4.023.413-1.152.986-2.022 1.334-3.206z" fill="#fcc21b"/></g><path d="M109.93 14.269c1.278 0 2.914.649 4.014 1.218.935.489.687.898.586 1.809-.643 5.847-3.227 11.356-5.116 16.869-1.993 5.842-4.096 11.652-5.988 17.536-2.384 7.455-4.852 14.965-8.455 21.866-.404.766-.88 1.767-1.613 1.913a2.223 2.223 0 0 1-.433.043c-1.344 0-2.809-1.147-3.656-2.106-1.256-1.419.009-4.625.432-6.552.485-2.209 1.021-4.245 1.769-6.388.46-1.321.688-2.712 1.16-4.023.414-1.151.987-2.021 1.335-3.205 3.427-11.61 6.989-23.511 12.399-34.387.667-1.354 1.687-4.512 3.422-4.592-.002-.001.097-.001.144-.001m0-6.016c-.132 0-.258 0-.395.004-5.198.24-7.375 5.223-8.302 7.347-.1.226-.187.433-.271.597-5.75 11.581-9.485 24.205-12.771 35.34-.065.23-.222.545-.404.95a21.481 21.481 0 0 0-.822 1.927c-.339.944-.568 1.833-.771 2.613-.141.555-.268 1.071-.408 1.476-.771 2.209-1.377 4.399-1.966 7.078-.061.282-.149.611-.249.968-.732 2.727-1.969 7.286 1.194 10.853 1.109 1.246 4.113 4.131 8.159 4.131.55 0 1.082-.056 1.608-.16 3.506-.705 5.028-3.61 5.677-4.855l.078-.146c3.725-7.125 6.211-14.561 8.862-22.843 1.231-3.821 2.59-7.717 3.9-11.482.687-1.983 1.378-3.962 2.055-5.945.456-1.321.954-2.651 1.453-3.986 1.663-4.446 3.388-9.043 3.947-14.171l.027-.146c.692-4.568-2.086-6.754-3.802-7.651-1.691-.875-4.214-1.899-6.799-1.899z" fill="#f79329"/><g><path d="M28.908 42.794c5.837 10.608 11.778 21.522 15.689 33.015.498 1.433 2.02 4.376.851 5.663-.88.963-2.562 1.711-3.789 2.101-1.011.315-1.119-.146-1.691-.865-3.704-4.564-5.795-10.279-8.376-15.506-2.75-5.527-5.396-11.116-8.239-16.601-3.614-6.938-7.216-13.979-9.579-21.404-.254-.823-.63-1.861-.216-2.487.817-1.236 2.923-1.527 4.348-1.448 1.885.104 3.275 3.257 4.342 4.912 1.227 1.908 2.295 3.717 3.291 5.757.615 1.255 1.439 2.397 2.05 3.657.519 1.106.731 2.13 1.319 3.206z" fill="#fcc21b"/></g><path d="M17.458 25.249c.159 0 .306.005.447.014 1.885.104 3.275 3.257 4.342 4.912 1.227 1.908 2.295 3.717 3.291 5.757.615 1.255 1.439 2.397 2.05 3.657.521 1.105.732 2.129 1.32 3.205 5.837 10.608 11.778 21.522 15.689 33.015.498 1.433 2.02 4.376.851 5.663-.88.963-2.562 1.711-3.789 2.101-.221.07-.399.099-.549.099-.532 0-.696-.404-1.143-.964-3.704-4.564-5.795-10.279-8.376-15.506-2.75-5.527-5.396-11.116-8.239-16.601-3.614-6.938-7.216-13.979-9.579-21.404-.254-.823-.63-1.861-.216-2.487.733-1.113 2.519-1.461 3.901-1.461m0-6.017c-3.919 0-7.172 1.519-8.92 4.165-1.966 2.99-.975 6.12-.546 7.459l.047.146c2.436 7.661 5.96 14.669 9.974 22.382 1.862 3.577 3.676 7.304 5.443 10.905.912 1.866 1.828 3.732 2.745 5.588.615 1.246 1.202 2.534 1.804 3.826 1.984 4.32 4.033 8.785 7.286 12.794l.08.108c1.518 2.049 3.45 3.083 5.739 3.083a7.8 7.8 0 0 0 2.356-.376c1.581-.507 4.491-1.659 6.428-3.783 3.496-3.859 1.48-8.917.625-11.079a13.96 13.96 0 0 1-.235-.611c-4.164-12.23-10.505-23.765-16.099-33.945-.116-.197-.234-.545-.38-.944a21.284 21.284 0 0 0-.781-1.927c-.45-.935-.91-1.707-1.314-2.383-.297-.498-.579-.968-.771-1.358-1.016-2.083-2.135-4.047-3.639-6.369-.164-.253-.33-.555-.512-.869-1.33-2.28-3.793-6.529-8.555-6.787a12.525 12.525 0 0 0-.775-.025z" fill="#f79329"/><g><g><path d="M66.942 51.546c-3.902 11.459-7.859 23.233-9.712 35.237-.234 1.495-1.226 4.654.148 5.725 1.027.794 2.823 1.231 4.092 1.405 1.053.146 1.081-.338 1.522-1.137 2.854-5.147 3.92-11.135 5.556-16.728 1.739-5.932 3.375-11.882 5.228-17.776 2.355-7.469 4.676-15.031 5.71-22.744.108-.86.296-1.941-.216-2.496-1.021-1.077-3.146-.992-4.536-.667-1.842.427-2.66 3.784-3.422 5.598-.879 2.087-1.606 4.056-2.241 6.242-.381 1.339-1.001 2.603-1.368 3.953-.329 1.175-.367 2.218-.761 3.388z" fill="#fcc21b"/></g><path d="M76.577 32.148c1.034 0 2.067.226 2.693.884.512.555.323 1.635.216 2.496-1.034 7.713-3.355 15.275-5.71 22.744-1.853 5.894-3.488 11.844-5.228 17.776-1.636 5.593-2.702 11.581-5.556 16.728-.395.705-.461 1.161-1.188 1.161-.1 0-.207-.01-.334-.024-1.269-.174-3.064-.611-4.092-1.405-1.374-1.071-.383-4.23-.148-5.725 1.853-12.004 5.81-23.778 9.712-35.237.394-1.17.432-2.214.761-3.389.367-1.35.987-2.613 1.368-3.953.635-2.186 1.362-4.155 2.241-6.242.762-1.814 1.58-5.17 3.422-5.598a8.29 8.29 0 0 1 1.843-.216m0-6.015a14.53 14.53 0 0 0-3.205.371c-4.653 1.085-6.346 5.701-7.248 8.183-.132.343-.239.667-.357.939-1.067 2.539-1.828 4.667-2.478 6.91-.116.423-.305.921-.512 1.452-.287.752-.61 1.603-.874 2.571-.217.78-.339 1.476-.442 2.04-.079.441-.142.79-.216 1.015-3.741 10.979-7.977 23.435-9.959 36.248-.024.161-.07.376-.128.621-.465 2.265-1.56 7.586 2.515 10.768 2.299 1.771 5.363 2.402 6.985 2.622.427.061.81.08 1.146.08 1.603 0 4.582-.536 6.388-4.126l.07-.146c2.495-4.507 3.745-9.25 4.949-13.842.356-1.381.714-2.754 1.109-4.104.564-1.941 1.132-3.887 1.691-5.837 1.118-3.896 2.279-7.924 3.502-11.821 2.623-8.31 4.874-15.831 5.937-23.75l.033-.221c.174-1.373.591-4.587-1.811-7.173-1.215-1.292-3.41-2.8-7.095-2.8z" fill="#f79329"/><g><path d="M92.191 80.932c6.627-10.129 13.381-20.559 18.161-31.716.604-1.392 2.351-4.207 1.278-5.584-.8-1.025-2.421-1.899-3.609-2.378-.982-.399-1.128.052-1.767.724-4.038 4.282-6.554 9.809-9.533 14.829-3.157 5.302-6.223 10.665-9.476 15.915-4.141 6.65-8.262 13.395-11.182 20.615-.319.804-.775 1.805-.404 2.472.714 1.288 2.797 1.739 4.216 1.768 1.891.042 3.517-3.003 4.71-4.569 1.373-1.805 2.567-3.53 3.718-5.49.71-1.208 1.617-2.275 2.308-3.487.612-1.064.909-2.065 1.58-3.099z" fill="#fcc21b"/></g><path d="M107.405 41.103c.168 0 .361.047.616.15 1.188.479 2.81 1.354 3.609 2.378 1.072 1.377-.674 4.193-1.278 5.584-4.78 11.158-11.534 21.587-18.161 31.716-.672 1.034-.969 2.036-1.58 3.098-.69 1.212-1.598 2.279-2.308 3.487-1.15 1.96-2.345 3.685-3.718 5.49-1.184 1.551-2.801 4.569-4.672 4.569h-.038c-1.419-.028-3.502-.48-4.216-1.768-.371-.668.085-1.668.404-2.472 2.92-7.22 7.041-13.964 11.182-20.615 3.253-5.25 6.318-10.613 9.476-15.915 2.979-5.02 5.495-10.547 9.533-14.829.474-.497.673-.873 1.151-.873m0-6.017c-3.111 0-4.855 1.988-5.415 2.642l-.122.131c-3.524 3.736-5.903 8.023-8.206 12.164a158.46 158.46 0 0 1-2.11 3.708 620.936 620.936 0 0 0-3.201 5.434c-2.021 3.431-4.108 6.975-6.219 10.387-4.572 7.342-8.61 14.035-11.646 21.517l-.086.208c-.512 1.288-1.725 4.305-.027 7.412 1.674 2.998 5.161 4.813 9.378 4.902h.163c4.662 0 7.309-3.831 8.879-6.12.206-.301.403-.588.578-.827a60.973 60.973 0 0 0 4.116-6.073c.222-.381.532-.817.86-1.278.461-.658.983-1.401 1.48-2.275.419-.714.705-1.354.941-1.866.187-.414.328-.738.469-.945 6.341-9.683 13.528-20.681 18.642-32.629.065-.141.164-.338.273-.559 1.024-2.092 3.421-6.989.216-11.088-1.777-2.28-4.578-3.647-6.092-4.258-.964-.394-1.912-.587-2.871-.587z" fill="#f79329"/><g><path d="M84.275 80.335c4.597-11.201 9.264-22.711 11.854-34.575.33-1.48 1.514-4.578.203-5.725-.979-.855-2.74-1.406-3.995-1.655-1.039-.207-1.1.268-1.592 1.044-3.169 4.963-4.589 10.872-6.567 16.356-2.101 5.809-4.099 11.651-6.312 17.424-2.802 7.309-5.574 14.716-7.083 22.349-.166.856-.419 1.923.061 2.505.959 1.133 3.08 1.18 4.48.945 1.866-.315 2.891-3.614 3.769-5.377 1.001-2.03 1.848-3.953 2.608-6.091.471-1.316 1.161-2.538 1.611-3.863.4-1.151.503-2.195.963-3.337z" fill="#fcc21b"/></g><path d="M91.909 38.334c.122 0 .264.019.428.046 1.255.249 3.017.799 3.995 1.655 1.311 1.146.127 4.244-.203 5.725-2.59 11.863-7.257 23.374-11.854 34.575-.46 1.142-.563 2.186-.964 3.337-.45 1.325-1.141 2.547-1.611 3.863-.761 2.138-1.607 4.061-2.608 6.091-.879 1.763-1.903 5.062-3.769 5.377a8.94 8.94 0 0 1-1.387.113c-1.171 0-2.421-.258-3.093-1.058-.479-.582-.227-1.649-.061-2.505 1.509-7.633 4.281-15.04 7.083-22.349 2.214-5.772 4.211-11.615 6.312-17.424 1.979-5.485 3.399-11.394 6.567-16.356.413-.648.52-1.09 1.165-1.09m0-6.016c-1.814 0-4.352.648-6.157 3.732l-.083.15c-2.774 4.343-4.303 8.996-5.778 13.503-.45 1.359-.897 2.712-1.373 4.038a676.52 676.52 0 0 0-2.049 5.739c-1.358 3.816-2.755 7.76-4.226 11.576-3.102 8.099-5.805 15.45-7.37 23.332l-.033.179c-.268 1.373-.897 4.578 1.359 7.313 1.771 2.115 4.508 3.252 7.736 3.252.809 0 1.607-.065 2.397-.202 4.7-.785 6.674-5.297 7.731-7.722.146-.329.277-.644.414-.912 1.17-2.374 2.096-4.517 2.891-6.74.149-.414.371-.902.601-1.419.334-.733.71-1.565 1.038-2.519.265-.762.438-1.467.569-2.031.104-.433.188-.775.277-1.002 4.396-10.702 9.387-22.866 12.15-35.542.037-.16.099-.371.164-.611.61-2.242 2.031-7.492-1.866-10.919-2.176-1.903-5.198-2.716-6.805-3.036a8.382 8.382 0 0 0-1.587-.159z" fill="#f79329"/><g><path d="M51.639 53.492c.572 12.093 1.217 24.497 3.895 36.346.33 1.48.564 4.78 2.237 5.27 1.246.366 3.073.117 4.319-.193 1.03-.25.884-.71 1.006-1.617.757-5.833-.446-11.792-.981-17.602-.541-6.148-1.212-12.291-1.66-18.458-.539-7.807-1.165-15.689-3.03-23.248-.213-.846-.433-1.917-1.115-2.247-1.339-.62-3.29.235-4.455 1.044-1.562 1.076-1.091 4.498-1.138 6.467-.052 2.266-.005 4.367.207 6.627.131 1.387.028 2.792.178 4.179.123 1.214.475 2.205.537 3.432z" fill="#fcc21b"/></g><path d="M55.257 31.533c.376 0 .733.061 1.053.211.683.33.902 1.401 1.115 2.247 1.865 7.558 2.491 15.44 3.03 23.248.448 6.167 1.119 12.31 1.66 18.458.535 5.81 1.738 11.77.981 17.602-.122.907.024 1.368-1.006 1.617-.803.197-1.856.375-2.829.375-.536 0-1.053-.056-1.49-.183-1.673-.489-1.907-3.789-2.237-5.27-2.679-11.849-3.323-24.253-3.895-36.346-.062-1.227-.414-2.218-.537-3.431-.15-1.387-.047-2.792-.178-4.179-.212-2.261-.259-4.361-.207-6.627.047-1.969-.424-5.391 1.138-6.467.882-.611 2.222-1.255 3.402-1.255m0-6.016c-3.013 0-5.564 1.453-6.819 2.317-3.935 2.721-3.812 7.638-3.746 10.279.01.362.019.705.01 1.006-.059 2.674.019 5.001.234 7.323.037.442.048.973.048 1.537.013.809.027 1.73.141 2.741.075.794.221 1.49.328 2.049.095.442.16.795.179 1.035.545 11.567 1.166 24.699 4.032 37.361.039.164.076.385.113.63.4 2.284 1.33 7.633 6.312 9.09.949.277 2.017.423 3.173.423 1.696 0 3.262-.301 4.274-.555 1.854-.442 5.079-1.899 5.502-6.505l.023-.169c.667-5.119.08-9.988-.483-14.698-.18-1.419-.343-2.834-.471-4.234-.188-2.11-.389-4.235-.597-6.359-.376-3.934-.766-8-1.049-11.976-.606-8.644-1.27-16.436-3.195-24.262l-.042-.174c-.334-1.349-1.115-4.508-4.295-6.045a8.481 8.481 0 0 0-3.672-.814z" fill="#f79329"/><g><path d="M46.617 76.514c-1.24-12.047-2.557-24.394-5.884-36.079-.404-1.457-.817-4.742-2.519-5.137-1.269-.296-3.078.052-4.305.427-1.011.311-.846.757-.916 1.669-.438 5.866 1.09 11.755 1.949 17.522.879 6.115 1.885 12.207 2.66 18.341.979 7.765 2.036 15.6 4.316 23.044.253.832.535 1.894 1.229 2.181 1.383.549 3.272-.414 4.392-1.288 1.499-1.156.846-4.545.789-6.514-.076-2.271-.24-4.357-.573-6.609-.216-1.377-.184-2.782-.409-4.164-.201-1.208-.592-2.172-.729-3.393z" fill="#fcc21b"/></g><path d="M37.123 35.185c.386 0 .757.033 1.091.113 1.702.395 2.115 3.68 2.519 5.137 3.327 11.685 4.644 24.032 5.884 36.079.137 1.222.527 2.186.729 3.394.226 1.382.193 2.787.409 4.164.333 2.252.497 4.338.573 6.609.057 1.969.71 5.358-.789 6.514-.894.696-2.275 1.448-3.498 1.448-.31 0-.611-.052-.894-.16-.694-.287-.976-1.349-1.229-2.181-2.28-7.445-3.338-15.28-4.316-23.044-.775-6.134-1.781-12.226-2.66-18.341-.859-5.767-2.387-11.656-1.949-17.522.07-.912-.095-1.358.916-1.669.903-.278 2.124-.541 3.214-.541m0-6.016c-2.053 0-3.996.507-4.981.809-1.842.559-4.954 2.19-5.138 6.787l-.014.169c-.385 5.175.475 10.021 1.297 14.711a128.8 128.8 0 0 1 .705 4.155c.306 2.133.63 4.296.959 6.448.583 3.864 1.188 7.859 1.683 11.76 1.086 8.602 2.172 16.357 4.531 24.055l.047.161c.404 1.335 1.363 4.465 4.644 5.819a8.454 8.454 0 0 0 3.187.616c3.231 0 5.895-1.702 7.201-2.717 3.751-2.914 3.365-7.812 3.163-10.443-.028-.362-.062-.705-.062-1.001-.094-2.651-.291-4.968-.639-7.309-.075-.447-.104-.982-.151-1.546-.046-.799-.107-1.711-.271-2.703-.131-.813-.311-1.5-.452-2.045-.116-.442-.206-.79-.234-1.035-1.18-11.506-2.523-24.595-6.075-37.07-.045-.146-.091-.367-.141-.606-.525-2.261-1.746-7.568-6.803-8.748a11.07 11.07 0 0 0-2.456-.267z" fill="#f79329"/></g></g><g><path d="M113.172 61.727c-.968-1.091-2.472-1.528-3.882-1.678a526.662 526.662 0 0 0-5.337-.536c-2.066-.188-4.167-.395-6.244-.442-.297-.004-.592-.01-.879-.01-1.89 0-4.611-.356-5.607 1.833-.522 1.157-.864 2.501-1.265 3.713-2.27 6.886-10.429 7.182-16.502 7.013-7.878-.226-16.704 1.325-24.349-.673-3.43-.897-6.786-2.787-7.956-6.34-.597-1.791-.968-4.54-2.948-5.302-1.517-.578-3.232-.272-4.806-.235-2.083.047-4.172.254-6.238.442-1.781.169-3.562.348-5.344.536-1.405.15-2.909.587-3.877 1.678-1.143 1.292-.175 2.951.061 4.441 1.001 6.42 3.305 12.841 4.752 19.196 1.721 7.501 3.445 14.993 5.452 22.424a263.902 263.902 0 0 0 3.252 11.036c.574 1.8 1.424 7.13 3.018 8.394 1.447 1.138 3.919-.428 5.451-.625 1.903-.244 3.826-.518 5.73-.724 15.195-1.654 30.377-1.246 45.52.724 1.532.197 4.005 1.763 5.452.625 1.599-1.264 2.453-6.594 3.021-8.394a249.552 249.552 0 0 0 3.249-11.036c2.011-7.431 3.74-14.923 5.452-22.424 1.452-6.355 3.76-12.775 4.769-19.196.229-1.489 1.203-3.147.055-4.44z" fill="#ed6c30"/></g></g></g></svg>