<svg id="レイヤー_1" xmlns="http://www.w3.org/2000/svg" viewBox="0 0 128 128"><g><g><g><path d="M18.651 115.639c-1.389-1.258-2.712-2.749-4.015-4.628-4.278-6.139-7.649-19.438-3.272-26.179 3.684-5.679 10.914-8.713 17.348-10.745 13.554-4.29 27.742-4.688 41.888-3.759 14.882.98 34.891 3.085 42.165 17.527 2.186 4.32 1.429 9.929.413 14.444-2.887 12.817-15.143 21.102-28.33 23.267-14.095 2.329-30.325 3.39-44.328.265-7.394-1.654-16.297-5.147-21.869-10.192z" fill="#f79329"/></g><g><path d="M16.164 74.629c-2.762 1.39-7.001 3.911-8.626 6.679-1.081 1.85-1.194 2.901-1.194 5.118 0 3.982 1.48 6.118 5.113 7.61 6.48 2.665 9.349-.46 10.545 7.741.858 5.843 7.465 7.938 12.512 6.241 2.707-.899 4.571-3.014 7.578-2.841 3.943.225 6.171 3.014 9.296 4.954 2.381 1.47 5.015 1.9 7.781 1.677 2.407-.196 4.5-1.656 6.426-3.044 5.027-3.628 9.586-.4 14.76.807 7.027 1.633 11.062-2.729 15.279-7.886 2.482-3.034 4.898-3.086 8.764-2.962 3.126.101 4.847-.663 6.42-3.482 1.507-2.689.688-7.15 3.539-9 2.301-1.5 4.411-1.583 6.174-4.178 4.256-6.281-.977-11.971-5.918-15.36-3.697-2.524-8.203-4.966-12.787-5.139-9.05-.336-17.764 2.564-26.562 4.239-10.036 1.891-20.065 3.993-30.248 4.942-9.633.91-19.909-.6-28.852 3.884z" fill="#bdcf46"/><path d="M57.832 115.137c-3.032 0-5.78-.756-8.16-2.227-.986-.612-1.88-1.287-2.769-1.96-2.024-1.533-3.258-2.412-4.994-2.514-1.079-.111-1.783.409-3.074 1.135-.94.528-2.009 1.122-3.283 1.552a14.384 14.384 0 0 1-4.576.736c-6.359 0-11.385-3.954-12.201-9.612-.481-3.288-.481-3.288-2.801-3.667-1.437-.235-3.41-.552-5.759-1.521-4.872-2.002-7.14-5.384-7.14-10.633 0-2.401.106-4.168 1.645-6.771 2.012-3.432 6.534-6.21 9.974-7.945 7.042-3.526 14.56-3.689 21.843-3.842 2.838-.061 5.52-.124 8.17-.367 8.504-.797 17.12-2.453 25.444-4.046l4.503-.867c2.36-.45 4.72-.991 7.079-1.524 6.485-1.49 13.216-3.052 20.212-2.766 4.394.163 9.144 2.031 14.517 5.708 8.66 5.936 11.188 13.371 6.771 19.897-1.687 2.481-3.688 3.401-5.291 4.136-.634.297-1.237.572-1.808.94-.553.357-.798 1.777-1.049 3.146-.26 1.491-.556 3.186-1.413 4.709-2.022 3.625-4.638 5.168-8.764 5.168l-.624-.01a45.748 45.748 0 0 0-1.646-.032c-2.446 0-3.276.34-4.473 1.8-3.257 3.973-7.721 9.428-14.922 9.428-1.175 0-2.391-.145-3.632-.431-1.394-.327-2.695-.766-3.947-1.184-3.218-1.093-5.801-1.858-8.157-.154-1.975 1.43-4.682 3.381-8.084 3.646-.527.052-1.064.072-1.591.072zm-16.076-13.236c.173 0 .349 0 .521.009 3.82.225 6.352 2.144 8.578 3.84.726.542 1.463 1.104 2.258 1.604 1.614 1 3.575 1.369 5.791 1.196 1.456-.113 2.964-1.123 4.78-2.432 2.137-1.541 4.394-2.288 6.905-2.288 2.564 0 4.902.786 7.159 1.542 1.156.39 2.258.756 3.346 1.011 5.011 1.187 8.041-1.919 12.007-6.772 2.85-3.472 5.875-4.187 9.538-4.187.585 0 1.201.011 1.86.04h.409c1.633 0 2.16-.214 3.053-1.816.317-.563.507-1.635.689-2.666.419-2.35.997-5.577 3.917-7.486.972-.625 1.865-1.032 2.647-1.401 1.347-.611 1.971-.929 2.604-1.858 2.819-4.157-1.184-8.192-5.055-10.837-4.322-2.951-7.937-4.453-11.063-4.565-6.16-.225-12.149 1.145-18.507 2.595-2.442.562-4.877 1.123-7.323 1.583l-4.494.856c-8.479 1.624-17.242 3.311-26.059 4.139-2.877.266-5.81.337-8.65.398-6.852.142-13.319.275-19.038 3.145-3.588 1.808-6.376 3.883-7.272 5.414-.664 1.133-.746 1.521-.746 3.463 0 2.637.628 3.574 3.086 4.586 1.653.685 3.011.909 4.32 1.113 4.124.674 7.128 1.726 8.217 9.184.434 2.962 3.363 4.014 5.74 4.014a8.12 8.12 0 0 0 2.497-.399c.704-.236 1.408-.633 2.165-1.052 1.575-.881 3.525-1.973 6.12-1.973z" fill="#855c52"/></g><g><path d="M7.927 66.896c.128 3.055.767 6.169 1.777 9.192 4.698 14.055 19.427 20.265 33.38 21.562 23.053 2.154 65.293 3.565 72.591-26.025 3.299-13.36-8.416-28.119-20.971-32.286-23.338-7.763-55.839-10.561-76.053 6.66-5.045 4.3-11.009 13.973-10.724 20.897z" fill="#ed6c30"/><path d="M58.73 39.778c10.694 0 22.737 2.053 33.912 5.761 9.519 3.165 19.079 14.811 16.688 24.524-3.613 14.636-19.355 22.062-46.795 22.062-5.655 0-11.812-.325-18.85-.979-6.844-.635-23.252-3.588-27.782-17.131-.864-2.562-1.349-5.055-1.44-7.394-.183-4.402 4.474-12.288 8.421-15.647 8.719-7.426 20.783-11.196 35.846-11.196m0-6.537c-14.696 0-29.172 3.463-40.079 12.758-5.046 4.3-11.01 13.973-10.725 20.897.128 3.055.767 6.169 1.777 9.192 4.698 14.055 19.427 20.265 33.38 21.562 5.606.531 12.357 1.011 19.452 1.011 22.087 0 47.613-4.637 53.139-27.036 3.299-13.36-8.416-28.119-20.971-32.286-10.744-3.575-23.44-6.098-35.973-6.098z" fill="#855c52"/></g><g><path d="M9.407 51.422c.123 3.055.741 6.17 1.727 9.193 4.575 14.053 18.893 20.264 32.47 21.562 22.414 2.155 63.511 3.564 70.609-26.025 3.208-13.36-8.189-28.119-20.396-32.286-22.706-7.763-54.317-10.561-73.981 6.659-4.903 4.299-10.703 13.971-10.429 20.897z" fill="#855c52"/></g><g><path d="M17.032 49.594c-3.528.48-6.792 1.798-9.227 4.453-4.648 5.066-3.023 14.127 3.972 16.118 2.136.601 4.363.092 6.509.581 2.082.472 3.819 1.769 5.34 3.197 2.81 2.646 7.049 4.976 11.125 4.537 3.941-.421 7.252-3.046 11.183-3.473 1.85-.206 2.911.132 4.311 1.193 8.289 6.283 16.746.643 22.891-5.352 2.196-2.145 4.555-3.983 6.394-6.507 1.195-1.644 4.33-5.087 3.743-7.241-4.867-.972-9.166 1.072-13.978 1.021-12.386-.143-24.11-4.117-36.024-6.986-4.711-1.122-10.789-2.308-16.239-1.541z" fill="#bdcf46"/><path d="M18.994 56.702c4.055 0 8.379.92 11.689 1.717 2.768.664 5.598 1.41 8.335 2.136 9.908 2.613 20.163 5.31 31.081 5.442h.276c.602 0 1.195-.02 1.766-.061l-.367.338a95.757 95.757 0 0 0-2.134 2.021c-5.648 5.547-9.338 6.713-11.431 6.713-1.409 0-2.728-.501-4.136-1.585-1.624-1.235-3.954-2.657-7.518-2.657-.541 0-1.099.032-1.696.093-3.023.339-5.515 1.391-7.723 2.319-1.571.664-2.937 1.246-4.054 1.368a3.724 3.724 0 0 1-.357.021c-1.746 0-4.22-1.237-6.158-3.076-1.819-1.725-4.699-4.114-8.667-5.024-1.762-.398-3.364-.409-4.652-.418-.717-.011-1.532-.011-1.859-.103-1.031-.296-1.717-1.031-2.043-2.194-.429-1.493-.071-3.137.889-4.199 1.298-1.431 3.195-2.3 5.801-2.656a20.326 20.326 0 0 1 2.958-.195m0-6.536c-1.308 0-2.6.071-3.871.256-3.713.519-7.149 1.898-9.718 4.728-4.893 5.372-3.19 14.964 4.175 17.078 2.259.643 4.598.101 6.866.612 2.185.5 4.023 1.88 5.626 3.391 2.719 2.584 6.699 4.872 10.654 4.872.351 0 .705-.021 1.062-.06 4.147-.452 7.641-3.229 11.784-3.688.352-.031.679-.051.984-.051 1.379 0 2.347.398 3.554 1.327 2.707 2.063 5.435 2.912 8.1 2.912 5.925 0 11.542-4.2 16.005-8.58 2.318-2.288 4.801-4.229 6.742-6.906 1.255-1.735 4.564-5.393 3.942-7.67a14.48 14.48 0 0 0-2.911-.287c-3.922 0-7.604 1.359-11.612 1.359h-.206c-13.047-.153-25.391-4.36-37.942-7.395-3.868-.928-8.612-1.898-13.234-1.898z" fill="#855c52"/></g></g><g><g><path d="M14.505 16.726c-1.521 1.44-2.983 3.167-4.403 5.311-4.696 7.059-8.384 22.349-3.597 30.111 4.036 6.518 11.963 9.999 19.011 12.339 14.86 4.933 30.401 5.393 45.905 4.319 16.304-1.123 38.237-3.534 46.203-20.142 3.26-6.791.46-20.54-3.165-26.731-4.535-7.731-12.829-12.428-21.041-15.553C76.851.077 56.994-1.905 39.779 2.895c-8.953 2.493-18.522 7.407-25.274 13.831z" fill="#f79329"/></g><g fill="#855c52"><path d="M54.196 13.927v-.144c0-2.43 2.901-3.31 4.903-3.217 2.868.143 5.198 3.35 1.746 5.168-1.727.899-6.649 1.174-6.649-1.807z"/><path d="M60.335 25.407c0-.051 0-.101.01-.143.225-2.42 3.198-3.044 5.179-2.757 2.846.407 4.872 3.81 1.267 5.301-1.799.746-6.722.561-6.456-2.401z"/><path d="M70.022 15.775c.006-.052.012-.093.015-.142.328-2.412 3.315-2.903 5.282-2.544 2.84.521 4.719 4.014 1.053 5.352-1.829.675-6.741.287-6.35-2.666z"/><path d="M45.708 24.733c-.07-.246-.112-.5-.103-.787.06-1.85 1.768-2.829 3.81-3.062 2.655-.298 5.752 1.653 3.943 4.014-1.685 2.205-6.853 2.358-7.65-.165z"/><path d="M76.432 26.151c-.653-1.643.217-3.503 4.086-3.503 2.503.012 4.545 2.677 2.539 4.69-2.647 2.634-5.819.888-6.625-1.187z"/><path d="M88.403 19.533c-.052-2.542 3.524-2.327 5.066-1.685 1.053.438 1.952 1.288 1.962 2.493.01.898-.695 2.39-1.646 2.624-1.766.44-5.187-1.317-5.365-3.227-.006-.072-.006-.141-.017-.205z"/><path d="M74.104 34.947c-.062-2.544 3.518-2.329 5.056-1.686 1.05.438 1.951 1.286 1.971 2.491.01.9-.705 2.392-1.655 2.625-1.756.441-5.178-1.317-5.356-3.226-.016-.071-.016-.142-.016-.204z"/><path d="M52.653 37.971c-.152-.593-.01-1.328.583-2.227.674-1.052 2.205-1.461 3.382-1.614 1.133-.154 2.338.132 2.952 1.165 2.743 4.606-6.14 5.73-6.917 2.676z"/><path d="M31.071 29.534c-.153-.583-.004-1.328.581-2.227.676-1.043 2.208-1.462 3.383-1.614 1.144-.154 2.339.132 2.962 1.175 2.737 4.595-6.144 5.72-6.926 2.666z"/><path d="M38.56 16.776c-.161-.593 0-1.328.581-2.227.674-1.053 2.206-1.46 3.385-1.614 1.142-.152 2.335.135 2.959 1.165 2.737 4.607-6.139 5.731-6.925 2.676z"/></g></g></g></svg>