<svg id="レイヤー_1" xmlns="http://www.w3.org/2000/svg" xmlns:xlink="http://www.w3.org/1999/xlink" viewBox="0 0 128 128"><g><g><path d="M88.666 83.145c1.629 1.59 3.458 2.997 5.188 4.582 1.468 1.336 2.922 2.678 4.377 4.02 1.707 1.56 3.409 3.119 5.112 4.678 1.808 1.664 3.615 3.318 5.427 4.978 1.786 1.633 3.561 3.266 5.349 4.9 1.619 1.489 3.239 2.97 4.86 4.459 1.323 1.211 2.647 2.426 3.963 3.642 1.42 1.293 3.283 2.416 3.709 4.424.424 2.03-.304 4.451-1.802 5.897-1.312 1.272-3.101 1.446-4.821 1.28-3.323-.322-5.456-3.458-7.614-5.679-1.44-1.49-2.895-2.979-4.341-4.469-1.689-1.733-3.38-3.475-5.061-5.209a3918.932 3918.932 0 0 1-5.356-5.504l-5.2-5.348a20462.86 20462.86 0 0 0-4.625-4.756c-3.98-4.094-7.081-7.273-11.807-12.608-2.252-2.543 1.015-4.39 2.495-5.827.619-.605 1.298-1.084 2.012-.906.776.196 1.682 1.241 2.165 1.816.784.918 1.547 1.681 2.435 2.504.653.614 1.124 1.419 1.794 2.02.548.487 1.236.614 1.741 1.106z" fill="#855c52"/></g><g><defs><path id="SVGID_1_" d="M21.35 10.257C33.022 3.328 50.61-2.83 70.035 7.248a35.557 35.557 0 0 1 6.384 4.216c5.18 4.311 8.798 10.156 10.653 16.614a40.58 40.58 0 0 1 1.411 7.7c.113 1.194-.126 2.853.104 4.233a32.99 32.99 0 0 1-1.952 7.63c-3.335 8.663-9.31 17.564-17.473 22.042-8.265 4.533-17.959 4.921-26.979 2.744-3.376-.814-6.755-2.404-9.743-4.155-2.387-1.402-4.776-3.841-6.464-6.015-5.957-7.678-6.845-20.16-1.698-28.461 3.518-5.662 10.104-11.223 16.424-13.544 6.615-2.43 13.723-1.428 19.78 2.038 8.851 5.069 10.38 20.173 3.358 27.646-.235.313-.488.618-.758.914-1.419 1.542-4.276 2.966-6.259 3.628-5.587 1.877-15.417-2.047-13.234-9.281.827-2.744 2.918-3.615 5.4-4.546 3.001-1.124 3.301-5.065-.317-5.497-2.209-.27-4.417.327-6.251 1.568-2.09 1.416-4.137 4.891-5.009 7.212-1.889 5.083.35 10.609 4.396 13.954 4.782 3.938 11.919 4.007 17.625 2.339 6.768-1.981 11.332-8.34 13.501-14.769 1.142-3.396 1.585-6.994 1.176-10.565-.366-3.205-1.202-7.508-2.866-10.313-1.585-2.652-4.189-5.314-6.724-7.051-4.651-3.184-10.749-3.828-16.245-3.976-6.197-.17-12.255 2.143-17.359 5.54-2.544 1.689-4.999 3.763-7.055 6.01-4.373 4.751-7.508 11.11-8.624 17.717-.87 5.122-.523 10.391 1.395 15.186 1.097 2.722 2.525 5.37 4.294 7.713 3.353 4.434 8.17 7.879 13.161 10.244 10.095 4.777 23.178 4.285 33.334.004 11.176-4.712 21.306-16.266 24.555-27.938a54.62 54.62 0 0 0 .993-4.107c1.235.753 2.352 1.637 3.118 2.957 1.341 2.304 1.314 5.187 1.053 7.752-.32 3.048-1.01 6.228-2.264 9.041-5.88 13.183-18.405 23.666-33.16 26.889-24.128 5.27-42.131-2.618-51.051-14.847-18.953-25.99-6.218-55.419 10.685-65.457z"/></defs><use xlink:href="#SVGID_1_" overflow="visible" fill="#fff"/><clipPath id="SVGID_2_"><use xlink:href="#SVGID_1_" overflow="visible"/></clipPath><g clip-path="url(#SVGID_2_)"><g><path d="M28.182 4.426c1.14-.323 2.269-.692 3.422-.967.837-.2 1.664-.54 2.519-.605a39.264 39.264 0 0 0 6.863-1.102c1.198-.3 2.509-.383 3.728-.418a3.987 3.987 0 0 1 2.169.575c.81.488 1.324 1.285 1.803 2.082.624 1.028 1.168 2.13 1.698 3.244a43.446 43.446 0 0 1 2.54 6.738c.205.705.519 1.433.588 2.16.052.692.205 1.08.497 1.69.54 1.106 1.14 2.339 1.311 3.554a40.92 40.92 0 0 0 .91 4.416c.357 1.306.375 2.496.365 3.863-.018.662-.34 1.093-.522 1.702-.165.566-.244.954-.536 1.473-.674 1.215-.993 2.578-1.754 3.776-.409.64-.993 1.341-1.664 1.772-.522.331-.993.357-1.546.61-.894.409-1.263.684-2.313.544-.653-.083-1.271-.345-1.933-.405-.554-.048-.776.031-1.176-.449-.453-.536-1.003-1.041-1.473-1.581a37.743 37.743 0 0 1-2.81-3.544c-.239-.332-.509-.488-.771-.763-.34-.344-.478-.718-.775-1.088-.575-.736-1.445-1.398-2.161-2.008-.573-.497-1.153-.993-1.689-1.533-.627-.631-1.397-.976-2.16-1.424-2.604-1.524-5.527-2.012-8.326-2.743-1.203-.318-2.423-.715-3.694-.915-1.089-.17-2.187-.244-3.283-.283-.959-.031-2.319-.279-3.249-.018-.769.209-1.454.732-2.274.936-.966.249-1.979.392-2.922.745-.684.257-1.402.457-2.008.888-.509.366-1.142.927-1.802.923-.228-.736.392-2.208.727-2.892.325-.666.862-1.202 1.236-1.842 1.021-1.764 1.537-3.85 3.193-5.161 1.228-.976 2.056-2.247 3.168-3.362 2.598-2.6 6.169-4.164 9.2-6.171 1.507-.997 3.162-1.912 4.904-2.417z" fill="#f79329"/><path d="M43.146-.243c-.479.139-.979.356-1.037.779 1.65.287 3.231.819 4.304 2.182.806 1.023 1.915 1.855 2.474 3.075.627 1.358 1.045 2.813 1.686 4.172.857 1.795 1.023 3.845 1.241 5.701.14 1.267 1.185 1.825 1.938 2.687.971 1.093 1.197 2.117 1.547 3.523.282 1.189.361 2.422.522 3.632.196 1.476.331 3.205.117 4.69-.31 2.16-1.633 3.928-2.888 5.631-1.106 1.506-2.918 2.382-4.481 3.314a9.277 9.277 0 0 1-2 .889c-1.418.436-3.283 1.028-4.477 1.964-1.105.867-2.072 2.683-1.188 4.015.325.488.957.745 1.436 1.054.789.501 1.669.775 2.526 1.093.997.362 2.005.662 3.05.836.871.14 1.863-.026 2.694.274.715.257 1.103.544 1.917.514.94-.03 1.942.104 2.874-.035.51-.074 1.019-.257 1.524-.349.505-.091 1.054-.074 1.516-.309 1.059-.544 2.173-.967 3.114-1.663.622-.462 1.328-.728 1.938-1.237.531-.44.924-.984 1.411-1.463.428-.432.906-.745 1.246-1.272.392-.619.967-1.132 1.351-1.72.356-.544.557-1.141.844-1.712.318-.632.558-1.163.731-1.851.114-.475.166-1.084.506-1.494.758-.94 2.154-1.202 3.162-1.777.914-.531 1.829-1.581 2.509-2.421.923-1.146 1.637-2.312 2.151-3.706 1.205-3.284 2.935-6.424 2.926-9.991 0-1.503.087-3.027-.344-4.469-.379-1.28-1.141-2.43-1.798-3.575-.297-.514-.576-1.045-.934-1.516-.365-.488-.748-.619-1.219-.945-1.002-.701-1.707-1.899-2.718-2.661-2.107-1.594-4.624-2.53-7.15-3.235C62.125 1.249 57.849.208 53.706-.241c-1.667-.183-3.244-.375-4.898-.205-.872.096-2.135.148-2.988-.122-.388-.126-.501-.309-.967-.235-.383.065-.728.288-1.098.397-.164.05-.382.098-.609.163z" fill="#fcc21b"/><path d="M83.479 15.936a3.391 3.391 0 0 1-.205-.266c-.235-.309-.583-.644-.854-.923-.496-.514-1.176-.853-1.75-1.219-.171.81-.206 1.716-.206 2.53.005.893-.404 1.803-.684 2.635-.287.832-.278 1.689-.425 2.561-.342 2.068-1.064 4.059-1.952 5.949a12.868 12.868 0 0 1-1.395 2.308c-.453.601-.827 1.45-1.533 1.864-.199.113-.509.087-.739.208-.219.113-.506.388-.694.545-.552.466-.578.875-.569 1.581 0 .976.104 1.986-.196 2.918-.222.701-.27 1.56-.735 2.156-.54.702-1.672.583-2.466.779-.661.17-.792.632-1.184 1.124-.758.94-1.638 1.794-2.37 2.735-4.111 5.248-12.708 6.337-18.801 4.817-1.015-.257-2.277-.453-3.204-.993-.497-.287-.784-1.149-1.269-.426-.331.479-.147 1.176.005 1.689.326 1.141.893 2.19 1.537 3.206.906 1.415 1.89 2.879 3.022 4.124.731.797 1.655 1.45 2.465 2.165.479.427 1.002.728 1.394 1.254.365.496.6 1.075.945 1.585.252.37.492.784.797 1.115.436.47 1.019.788 1.516 1.197 1.153.95 2.369 1.925 3.624 2.735 2.634 1.699 5.609 2.996 8.745 3.397 1.114.144 2.499.161 3.588-.117.614-.162 1.472-.615 2.121-.471.544.122 1.098.61 1.686.814 1.285.44 2.822.714 4.168.736 4.421.074 9.007.131 13.147-1.546 2.056-.828 4.33-2.435 5.393-4.42.583-1.093 1.385-2.1 1.785-3.288.366-1.084.305-2.139.875-3.145.59-1.045.467-2.112.44-3.271-.026-1.228.471-2.399.409-3.632-.052-.984-.365-1.951-.627-2.896-.34-1.246-.976-2.444-1.663-3.541-.54-.836-1.021-1.768-1.821-2.369-.68-.509-1.489-.814-2.194-1.298-.576-.396-1.664-.915-2.048-1.52-.616-.984-.244-3.114-.399-4.238-.28-1.903-.323-3.741-.89-5.592-.492-1.576-1.045-3.075-1.581-4.625-.3-.88-.553-1.777-1.059-2.569-.688-1.054-1.523-1.894-2.125-3.027-.361-.679-.626-1.411-1.019-2.069-.269-.451-.657-.852-1.005-1.266z" fill="#d7598b"/><path d="M94.746 69.522c.035-.065.078-.135.122-.201.271-.422.313-.784.409-1.232.165-.792.584-1.62.453-2.448-.782-.191-1.616.436-2.3.715-.876.361-1.89.618-2.813.849-1.62.405-3.257.844-4.887 1.045-2.36.288-5.178-.069-7.212-.966-.471-.205-1.033-.58-1.576-.593-.645-.013-1.272.253-1.847.431a19.346 19.346 0 0 1-4.007.814c-1.655.169-3.109-.292-4.669-.623-1.555-.335-3.049-.575-4.59-1.08-1.937-.627-3.615-1.424-5.243-2.618-.689-.505-1.481-1.163-2.013-1.851-.274-.349-.531-.788-.609-1.232-.069-.37.013-.902-.175-1.232-.4-.706-1.585-.862-2.29-1.08-.854-.266-1.673-.488-2.465-.888-.832-.418-1.851-.475-2.622-.954-.296-.188-.657-.527-.924-.771-.802-.731-1.35-1.494-1.972-2.356-.233-.318-.394-.762-.685-1.049-.483-.484-1.289-1.015-1.973-.653-.479.248-.979 1.106-1.354 1.463-.423.409-.837.858-1.15 1.315-1.402 2.056-1.045 4.869-1.341 7.286-.16 1.307-.471 2.491-.471 3.855 0 1.48.267 2.866.496 4.311.105.671.219 1.394.425 2.004.233.684.734 1.185.978 1.855.445 1.28-.688 2.151-1.093 3.275-.626 1.724-.649 3.663-.649 5.518-.005 2.243 1.102 4.595 2.308 6.476.546.858 1.185 1.838 1.847 2.622.724.845 1.986 1.455 2.936 2.003 3.031 1.759 7.056 1.315 10.383.919 2.012-.239 4.094-.292 6.071-.692 2.251-.453 4.564-.34 6.75-1.106 1.533-.531 2.961-1.359 4.494-1.847 1.019-.322 1.935-.435 2.866-1.01 5.801-3.576 11.327-7.83 15.561-13.213 1.773-2.253 3.299-4.662 4.831-7.061z" fill="#f79329"/><path d="M43.904 37.864c.199-1.45-1.128-2.469-1.903-3.545-.867-1.211-1.816-2.33-2.783-3.397-1.673-1.855-3.527-3.379-5.592-4.695-.81-.514-1.843-.993-2.761-1.246-.605-.165-1.037-.209-1.685-.209-.58 0-1.477.266-1.947.222-.84-.074-.684-.4-1.315-.862-.401-.292-.941-.357-1.412-.544-1.021-.405-2.284-.937-3.41-1.059-2.199-.244-4.411-.265-6.69-.265-2.419 0-4.377.592-6.471 1.594-1.958.945-3.576 2.382-5.23 3.771-.784.663-1.46 1.176-2.04 2.1-.77 1.224-.242 2.334-.295 3.624-.069 1.52-.881 3.157-1.158 4.677-.61 3.345-.671 6.759-.688 10.147-.01 1.89.403 3.71.485 5.583.055 1.115-.29 2.156-.343 3.257-.1 2.112.666 3.885 1.215 5.866.18.671.173 1.268.506 1.904.419.801.688 1.733 1.158 2.496.453.74 2.727 4.986 4.024 4.089.458-.323.226-1.237.287-1.743.074-.596.12-1.236.192-1.851.174-1.35.643-2.696 1.054-4.011.355-1.15.871-2.487 1.498-3.545.409-.679.687-1.52 1.158-2.16.418-.583.984-.976 1.394-1.533.767-1.045 1.743-2.138 2.881-2.787.499-.279 1.142-.549 1.692-.614.526-.057 1.385.214 1.863.013.598-.253.625-1.062.793-1.55.34-.98 1.368-1.577 2.018-2.282a13.966 13.966 0 0 1 2.736-2.334c.485-.326.926-.784 1.379-1.127.461-.344 1.06-.605 1.575-.85.672-.318 1.587-.483 2.314-.697.741-.213 1.506-.366 2.242-.575.84-.235 1.634-.292 2.473-.462.729-.148 1.471-.313 2.23-.305.808.004 1.751-.139 2.544.026.827.174 1.581.667 2.352.941.888.313.892-.026 1.263-.662.483-.849.636-1.772 1.158-2.565.515-.784 1.011-1.738 1.211-2.661.01-.06.023-.117.028-.174z" fill="#d7598b"/><path d="M39.314 44.846c.017-.505.191-1.002.453-1.555-2.069-.745-4.117-1.062-6.311-.792-1.046.131-2.073.035-3.08.183-1.013.157-2.107.623-3.083 1.045-1.028.444-2.165.758-3.088 1.398-1.041.723-1.859 1.511-2.767 2.347-.756.701-1.636 1.298-2.202 2.234-.231.387-.417.832-.585 1.267a14.056 14.056 0 0 0-.479 1.52c-1.13.183-2.098-.335-3.203.061-1.369.497-2.535 1.407-3.548 2.396-1.077 1.049-2.04 2.012-2.902 3.262-.98 1.419-1.877 3.049-2.461 4.673-1.023 2.853-1.567 5.862-.81 8.867.388 1.529 1.201 3.114 2.194 4.355.88 1.11 1.726 2.321 2.701 3.353.705.75 1.315 1.59 2.019 2.344.604.635 1.394.962 2.058 1.541 1.524 1.328 3.066 2.704 4.913 3.576 2.218 1.045 4.294 2.325 6.486 3.414 2.433 1.202 5.02 2.034 7.619 2.774 1.328.374 2.648.732 3.965 1.111 1.074.305 2.076 1.08 3.19 1.159.723.048 1.471 0 2.195 0 .81 0 3.624.527 2.944-.967-.323-.714-1.224-1.394-1.742-1.973-.627-.71-1.35-1.259-1.995-1.999-.71-.81-1.079-1.725-1.663-2.618-.62-.927-1.094-2.034-1.468-3.084-.335-.94-.548-1.794-.766-2.765-.241-1.049-.624-2.003-.58-3.101.035-1.211.2-2.447.609-3.541.087-.226.2-.705.349-.892.145-.183.452-.157.553-.375.114-.227-.335-1.22-.439-1.516-.418-1.263-.775-2.143-.767-3.537.009-.688-.159-1.298-.159-2.003v-2.012c0-1.446.186-2.979.347-4.424.117-.954.423-1.969.579-2.927.14-.889.535-1.855.814-2.705.308-.944.74-1.85 1.162-2.739.175-.357.288-.741.463-1.089.117-.257.392-.453.465-.753.127-.536-.204-1.359-.391-1.882-.293-.875-.938-1.563-1.329-2.391-.208-.439-.287-.844-.26-1.24z" fill="#fcc21b"/></g></g></g></g></svg>