<svg id="レイヤー_1" xmlns="http://www.w3.org/2000/svg" xmlns:xlink="http://www.w3.org/1999/xlink" viewBox="0 0 128 128"><g><g><defs><path id="SVGID_1_" d="M114.383 25.989c-3.497-3.84-8.172-7.234-12.672-9.768-17.201-9.7-41.903-12.437-60.372-5.12-7.501 2.976-17.545 8.481-22.726 14.84C6.719 40.534-3.404 58.499 1.892 78.282c4.307 16.08 12.614 29.053 28.257 35.859 16.691 7.262 38.776 8.898 56.691 4.461 7.841-1.941 15.801-4.748 22.343-9.621 5.545-4.129 10.205-10.404 13.404-17.223 2.263-4.82 3.792-9.912 4.379-14.701 2.025-16.597-.986-38.329-12.583-51.068zm-28.354 42c-2.282 3.248-7.676 6.73-11.53 7.672-10.084 2.467-30.519-2.642-26.819-16.627 2.476-9.385 17.347-11.057 25.124-10.174 8.092.918 19.55 10.135 13.225 19.129z"/></defs><clipPath id="SVGID_2_"><use xlink:href="#SVGID_1_" overflow="visible"/></clipPath><g clip-path="url(#SVGID_2_)"><path d="M116.227 23.966c-3.621-4.045-8.472-7.619-13.137-10.287C85.259 3.458 59.651.573 40.51 8.282c-7.774 3.135-18.188 8.934-23.555 15.629C4.626 39.288-5.87 58.208-.377 79.046c4.459 16.932 13.071 30.596 29.287 37.76 17.303 7.652 40.194 9.381 58.765 4.705 8.127-2.043 16.377-5 23.163-10.137 5.743-4.35 10.579-10.959 13.891-18.133 2.35-5.08 3.933-10.443 4.539-15.488 2.102-17.488-1.02-40.369-13.041-53.787z" fill="#fcc21b"/><path d="M128.67 45.726c-.917-2.42-1.185-4.646-2.568-6.93-.983-1.631-1.625-3.184-2.325-4.969-.664-1.695-1.68-2.254-2.834-3.564-1.143-1.301-1.627-2.875-2.555-4.277-.734-1.113-1.82-2.1-2.651-3.152-1.373-1.736-3.062-2.947-4.296-4.814-1.253-1.891-3.991-3.233-5.913-4.365-2.499-1.467-5.303-2.326-7.721-3.916-2.456-1.623-5.621-2.678-8.477-3.35-3.767-.895-7.626-2.141-11.525-2.324-3.603-.174-7.098.359-10.671.539a98.316 98.316 0 0 0-21.722 3.59c-3.641 1.033-7.074 2.359-10.627 3.598-1.42.5-2.771 1.125-4.088 1.858-1.491.832-3.137 1.41-4.578 2.307-2.986 1.865-5.996 3.264-8.073 6.117-1.942 2.666-4.079 5.297-6.128 7.904-2.194 2.793-4.549 5.689-5.859 9.016-.588 1.475-.961 2.885-1.835 4.225-1.015 1.547-2.364 3.092-2.885 4.908-.485 1.697-.33 3.389-1.037 5.062-.721 1.705-1.764 3.051-2.094 4.91-.369 2.096-.374 3.957.223 5.996.587 2 .806 3.988 1.913 5.863 2.006 3.408 4.651 6.451 8.321 8.1 4.189 1.879 9.244.729 13.226 2.867 4.146 2.225 3.781 8.277 4.369 12.318 1.175 8.049 6.452 13.572 14.934 12.635 6.754-.74 10.642-7.111 16.959-8.713 4.33-1.102 7.995-1.66 11.73 1.195 3.811 2.912 6.25 6.258 11.186 7.461 5.413 1.316 12.512.539 16.793-3.32 4.429-3.986 4.489-11.756 11.002-13.564 5.199-1.443 9.414 2.02 14.239-1.619 2.116-1.6 3.675-3.609 4.807-5.854 4.941-9.799 4.61-25.549.76-35.738zM90.69 59.532c-2.283 4.453-5.981 8.369-9.866 10.172-1.768.82-3.515 1.504-5.447 1.936-9.418 2.094-21.41 4.051-27.566-5.598-2.782-4.354-6.593-7.912-6.577-13.424.013-4.951 2.63-10.545 7.378-12.551 6.375-2.697 10.133 3.346 16.221 3.351 2.17 0 4.534-.271 6.55-1.094 4.011-1.625 6.352-4.693 11.069-4.236 5.563.539 9.411 5.34 10.365 10.494.635 3.44-.287 7.368-2.127 10.95z" fill="#855c52"/></g></g></g></svg>