<svg id="レイヤー_1" xmlns="http://www.w3.org/2000/svg" viewBox="0 0 128 128"><g><g><g><path d="M125.086 30.084c-.588-.367-2.254-.555-2.574-.983-.389-.517.277-1.521.443-2.026a6.06 6.06 0 0 0-.182-4.309c-.768-1.776-3.104-3.803-4.843-4.658-1.648-.812-3.489-1.298-5.332-1.189-1.78.114-3.039 1.644-4.868 1.108-1.38-.392-2.197-1.9-3.664-2.254-2.381-.574-5.064.539-6.758 2.207-6.025 5.914-7.152 16.212-6.488 24.22a27.632 27.632 0 0 0 1.094 5.765c.965 3.148 3.902 5.288 6.837 6.454 5.708 2.274 10.557-.945 15.262-3.917 4.345-2.732 9.602-5.885 12.229-10.442 1.824-3.164 2.403-7.75-1.156-9.976z" fill="#ed6c30"/></g><path d="M106.713 57.753c-.354-1.028-.888-1.921-1.557-2.579-.43-.431-.415-1.147-.358-2.274.076-1.462.184-3.459-1.687-4.764-.105-.072-.214-.156-.334-.243-.422-.316-.902-.678-1.442-.889-.454-.172-.884-.229-1.262-.267-.152-.021-.295-.039-.42-.058a3.056 3.056 0 0 0-.117-.401c-.689-1.787-2.42-3.02-4.626-3.291a9.48 9.48 0 0 0-1.18-.077c-.632 0-1.181.071-1.63.221-.554.177-.956.514-1.284.788a6.023 6.023 0 0 1-.272.219c-.025-.019-.048-.038-.077-.048-.114-.066-.224-.134-.334-.19-.95-.477-2.093-.554-2.689-.56-2.947 0-4.701 2.404-5.317 4.458-.043.143-.106.282-.163.42-.052.134-.114.272-.166.421-1.034.292-2.437.84-2.694 1.015-1.801 1.193-2.986 2.95-3.249 4.832l-.032.23c-.054.41-.12.922-.291 1.069-.125.076-.612.095-.904.114a6.068 6.068 0 0 0-1.07.105 6.755 6.755 0 0 0-3.78 2.246c-.948 1.098-1.039 2.202-1.129 3.271l-.034.444c-.009.162-.024.349-.038.482a3.545 3.545 0 0 1-.393.082c-.611.095-1.241.161-1.867.229-1.726.177-3.506.363-5.203 1.194-.749.363-1.241.864-1.671 1.309-.177.172-.35.353-.549.526-.779.668-1.664 1.48-2.275 2.685-.143.276-.281.549-.349.62-.334-.104-.721-.267-1.136-.438a10.532 10.532 0 0 0-.903-.345c-.731-.234-1.448-.268-2.078-.296-.177-.01-.353-.02-.529-.028a4.833 4.833 0 0 0-.392-.02c-2.046 0-3.703 1.127-4.769 1.978-.648.512-1.063 1.309-1.463 2.083-.196.372-.507.975-.712 1.185-.335-.048-.857-.325-1.248-.535-.258-.135-.501-.263-.721-.363a5.847 5.847 0 0 0-2.396-.515c-.292 0-.594.019-.904.065-2.483.345-4.993 1.706-6.559 3.544-.178.206-.34.44-.506.67-.158.229-.431.616-.56.679-.155 0-.403-.221-.668-.459-.147-.125-.291-.258-.444-.373a6.713 6.713 0 0 0-4.184-1.434 7.17 7.17 0 0 0-3.918 1.166c-.472.297-.85.726-1.212 1.137-.234.264-.67.755-.851.804h-.005c-.426 0-1.166-.282-1.758-.507-.541-.2-1.046-.392-1.515-.487-.774-.163-1.944-.392-2.995-.392-.364 0-.678.024-.975.077-2.419.438-4.935 2.579-5.594 4.757-.264.88-.307 1.844-.344 2.698-.015.273-.028.551-.048.808-.033.43-.097.555-.097.555a11.11 11.11 0 0 0-.505.172l-.466.162C1.724 86.968.8 91.449.49 92.916c-.577 2.833.261 5.412 2.295 7.085.405.333.777.524 1.046.668.086.039.191.096.248.134-.01.02.009.11.017.286.018.603-.064 1.251-.15 1.939-.062.492-.123.985-.152 1.472-.091 1.486.426 2.952 1.414 4.013.855.923 1.91 1.185 2.761 1.395.292.077.584.144.857.249.412.162.504.248.514.259.019.047.067.306.108.515l.072.383c.264 1.366.861 2.38 2.061 3.473 1.586 1.457 4.175 1.974 5.908 1.974.19 0 .382 0 .564-.015.472-.024.955-.216 1.425-.397.179-.076.466-.186.648-.238.104.162.354.563.515.822.384.62.774 1.261 1.318 1.681 1.731 1.319 4.071 2.103 6.268 2.103.206 0 .411-.009.617-.02 1.228-.095 2.771-.621 3.937-1.338.186-.114.353-.229.506-.334.41-.277.53-.349.678-.349.101 0 .239.022.401.076.281.086.607.281.95.492.492.296 1.056.631 1.741.792.72.177 1.541.268 2.377.268.822 0 1.636-.087 2.352-.258 1.499-.354 3.09-1.146 4.149-2.055.411-.353.701-.811.988-1.251.163-.254.43-.669.588-.792h.015c.019 0 .042-.007.071-.007.314 0 .77.082 1.171.149.312.058.592.105.804.124.243.02.491.047.734.076.521.067 1.06.134 1.614.134.488 0 .923-.057 1.329-.157 1.986-.511 4.37-2.193 5.335-4.219.168-.019.34-.033.511-.053.27-.028.541-.062.823-.062.066 0 .133.006.204.011.354.029.713.038 1.071.038 1.06 0 2.048-.114 3.028-.363 1.857-.468 4.503-1.443 6.041-4.476.23-.464.331-.979.419-1.429.045-.259.117-.641.184-.754.162-.072 1.023-.105 1.347-.116l.365-.019c2.869-.182 4.355-1.419 6.142-3.153.794-.773 1.769-1.738 2.145-2.836.22-.632.233-1.252.238-1.807.005-.354.016-.693.076-.956.163-.66.688-.878 1.949-1.256.364-.109.726-.225 1.072-.354A11.318 11.318 0 0 0 90.03 89.3c.464-.871.641-1.716.793-2.466.077-.363.153-.735.267-1.118.085-.268.191-.496.293-.726.281-.631.63-1.409.519-2.483-.032-.316-.104-.631-.176-.956-.024-.096-.049-.191-.067-.286.757-.154 1.605-.373 1.815-.464a8.58 8.58 0 0 0 2.532-1.763c1.116-1.117 2.145-2.828 2.752-4.576.113-.345.133-.707.147-1.062.008-.086.01-.209.02-.314.211-.12.515-.191.936-.286.75-.162 1.688-.373 2.46-1.187 1.625-1.699 1.678-4.231 1.562-5.589a.47.47 0 0 0-.009-.088c.937-.341 1.715-.963 2.288-1.836 1.082-1.647 1.296-4.136.551-6.347z" fill="#fcc21b"/></g><path d="M99.83 38.1c-2.359-.039-.751-6.679-.294-8.273.266-.932.963-2.579 1.927-3.65.832-.916 1.86-1.404 2.981-.625 3.021 2.105-1.547 12.595-4.614 12.548z" fill="#fff"/><path d="M115.665 38.808c-.843.62-1.881 1.261-2.855 1.681-1.177.506-3.951 2.169-5.127.936a.62.62 0 0 1-.176-.382c-.243-2.149 1.623-4.146 3.568-5.55a17.914 17.914 0 0 1 2.341-1.434c1.562-.788 3.492-.984 4.484.822.786 1.423-1.169 3.152-2.235 3.927z" fill="#fff"/></g></svg>