<svg id="レイヤー_1" xmlns="http://www.w3.org/2000/svg" viewBox="0 0 128 128"><g><g><path d="M74.792 98.884c-.304-.275-.521-.733-.721-1.046-.825-1.292-2.042-2.542-3.383-3.329-1.709-1.001-3.229-1.675-5.201-2.18-1.991-.508-4.059-.663-6.046-1.191-1.362-.363-2.717-.913-3.908-1.65-.921-.562-1.179-1.321-1.595-2.271-1.01-2.3-2.977-4.284-4.981-5.729-1.221-.883-2.434-1.196-3.775-1.817-1.191-.554-2.346-1.233-3.475-1.917-1.567-.946-1.908-2.559-2.704-4.092-.584-1.133-1.467-2.029-1.909-3.233-.554-1.529-1.146-3.004-1.989-4.413-.769-1.267-2.073-2.125-3.209-3.021-1.01-.796-2.16-1.288-3.202-1.996-.809-.55-1.392-1.133-2.358-1.425-.967-.296-2.605-.487-3.346-1.191-1.163-1.1.971-2.805 1.729-3.601 1.071-1.133 10.734-11.479 11.806-12.609 5.721-6.042 11.45-12.088 17.172-18.135 5.004-5.279 10-10.559 15.001-15.838 2.142-2.263 4.287-4.521 6.43-6.784 1.371-1.45 6.346.923 7.796 2.298l41.017 38.942c1.444 1.371 1.512 3.679.145 5.125l-4.292 4.53c-5.25 5.538-10.492 11.08-15.742 16.618-3.226 3.404-6.451 6.813-9.676 10.217-2.983 3.146-14.477 15.88-17.644 18.734-.375.342-.716 1.15-1.283 1.225-.261.038-.477-.062-.657-.221z" fill="#b89278"/></g><g><g><path d="M68.888 82.652c1.996.534 4.059.684 6.051 1.192 1.971.504 3.483 1.179 5.2 2.183 1.342.783 2.55 2.033 3.388 3.329.195.309.409.771.717 1.046a.792.792 0 0 0 .654.221c.566-.079.908-.884 1.283-1.229 3.167-2.854 6.062-6.367 9.042-9.513 3.229-3.404 6.459-6.813 9.68-10.217l15.743-16.618c1.429-1.508 2.858-3.017 4.287-4.529a3.64 3.64 0 0 0-.142-5.125L83.455 4.124a3.635 3.635 0 0 0-5.129.138c-2.141 2.262-4.288 4.521-6.43 6.784-4.996 5.279-9.997 10.559-15.001 15.838-5.722 6.046-11.451 12.092-17.172 18.135-1.071 1.129-2.138 2.258-3.209 3.388-.754.796-2.896 2.504-1.729 3.604.742.705 2.384.892 3.347 1.188" fill="#855c52"/></g></g><path d="M48.17 116.519c-1.392-1.038-2.676-2.275-3.934-3.454-3.388-3.205-6.484-6.705-9.882-9.901-3.107-2.921-6.261-5.796-9.345-8.746-3.842-3.68-7.592-7.467-11.009-11.567-1.375-1.654-2.834-3.305-3.875-5.201-1.592-2.896-.684-3.508.541-6.2.483-1.054 1.342-1.879 2.104-2.75 1.75-1.992 3.542-3.951 5.25-5.971 2.055-2.434 4.005-4.963 6.222-7.247.767-.788 1.792-2.167 2.842-2.554 3.325-1.229 3.851 8.251 4.092 10.046.246 1.809.45 3.625.663 5.442.154 1.3.021 2.559.108 3.842.087 1.367.533 2.796.712 4.15.194 1.429.5 2.796 1.959 3.288 2.575.862 6.513.441 7.959 3.237a22.405 22.405 0 0 1 1.954 5.471c.221 1.013.572 2.025.888 3.025.3.946.269 1.954.579 2.883.421 1.238.754 2.425 1.996 2.979.679.3 1.425.429 2.133.583 2.521.533 5.034.821 7.567 1.267 1.296.229 2.659.675 3.562 1.679.681.754.7 1.884.979 2.813.287.958.333 1.925.517 2.913.092.538.4.983.542 1.504.133.483.059.904.125 1.387.104.796.5 1.688.188 2.479-.354.896-1.254 1.9-1.879 2.625-.884 1.042-1.734 2.117-2.701 3.088-1.904 1.921-4.491 3.492-7.029 1.679-1.059-.758-2.079-1.575-3.162-2.309a23.077 23.077 0 0 1-.666-.48z" fill="#78a3ad"/><path d="M73.484 21.404s4.871-6.788 5.963-6.892c1.091-.104 7.075 6.457 6.625 6.767-.458.312-4.726-2.188-6.625-1.562-1.904.625-5.659 2.123-5.963 1.687z" fill="#b89278"/><path d="M58.778 36.88s4.867-6.788 5.963-6.892c1.088-.104 7.08 6.457 6.626 6.767-.458.312-4.726-2.188-6.626-1.562-1.904.625-5.658 2.123-5.963 1.687z" fill="#b89278"/><path d="M87.581 33.324s4.866-6.788 5.963-6.892c1.092-.104 7.079 6.457 6.625 6.767-.458.312-4.726-2.188-6.625-1.562-1.904.624-5.663 2.122-5.963 1.687z" fill="#b89278"/><path d="M102.161 46.835s4.871-6.788 5.963-6.892c1.092-.104 7.075 6.457 6.625 6.767-.458.312-4.726-2.188-6.625-1.562-1.904.624-5.659 2.123-5.963 1.687z" fill="#b89278"/><path d="M87.939 62.482s4.866-6.788 5.963-6.892c1.091-.104 7.071 6.457 6.625 6.767-.458.312-4.725-2.188-6.625-1.562-1.904.624-5.663 2.122-5.963 1.687z" fill="#b89278"/><path d="M72.65 48.969s4.871-6.788 5.963-6.892c1.092-.104 7.075 6.457 6.626 6.767-.459.312-4.726-2.188-6.626-1.563-1.908.625-5.658 2.123-5.963 1.688z" fill="#b89278"/><path d="M71.938 79.904s4.866-6.788 5.962-6.892c1.088-.104 7.071 6.457 6.626 6.767-.458.312-4.726-2.188-6.626-1.562-1.904.624-5.658 2.122-5.962 1.687z" fill="#b89278"/><path d="M56.649 66.036s4.872-6.788 5.963-6.892c1.092-.104 7.076 6.457 6.625 6.767-.458.312-4.725-2.188-6.625-1.562-1.904.625-5.658 2.123-5.963 1.687z" fill="#b89278"/><path d="M43.494 54.302s4.871-6.788 5.963-6.892 7.071 6.457 6.626 6.767c-.459.312-4.726-2.188-6.626-1.563-1.904.626-5.662 2.124-5.963 1.688z" fill="#b89278"/><path d="M87.464 22.652c.6-.744 4.042.304 4.042.304S81.271 33.368 80.247 33.465c-1.025.098-12.084-8.601-12.084-8.601s2.658-.996 3.434-.839c.774.156 7.612 5.952 8.392 5.952.766.001 7.175-6.943 7.475-7.325z" fill="#2f2f2f"/><path d="M102.04 35.807c.596-.744 4.042.304 4.042.304s-10.238 10.411-11.259 10.51c-1.025.098-12.085-8.601-12.085-8.601s2.659-.996 3.434-.84c.775.156 7.613 5.953 8.393 5.953.766 0 7.175-6.945 7.475-7.326z" fill="#2f2f2f"/><path d="M116.624 48.608c.592-.744 4.042.304 4.042.304s-10.242 10.411-11.263 10.509c-1.021.098-12.085-8.601-12.085-8.601s2.661-.996 3.434-.84c.775.156 7.613 5.953 8.396 5.953.763.001 7.167-6.944 7.476-7.325z" fill="#2f2f2f"/><path d="M101.332 64.609c.596-.744 4.046.304 4.046.304S95.131 75.324 94.114 75.422c-1.025.098-12.084-8.601-12.084-8.601s2.658-.996 3.434-.839c.775.156 7.608 5.952 8.393 5.952.766.001 7.174-6.944 7.475-7.325z" fill="#2f2f2f"/><path d="M86.397 50.385c.596-.744 4.046.304 4.046.304S80.197 61.101 79.18 61.199c-1.024.098-12.084-8.601-12.084-8.601s2.659-.996 3.434-.84c.775.156 7.609 5.953 8.393 5.953.765 0 7.175-6.944 7.474-7.326z" fill="#2f2f2f"/><path d="M71.821 37.938c.596-.744 4.046.304 4.046.304s-10.246 10.412-11.263 10.51c-1.021.098-12.083-8.601-12.083-8.601s2.657-.996 3.432-.84c.776.156 7.61 5.953 8.393 5.953.766 0 7.175-6.944 7.475-7.326z" fill="#2f2f2f"/><path d="M55.471 56.43c.593-.744 4.041.304 4.041.304s-10.24 10.411-11.263 10.509c-1.02.098-12.084-8.601-12.084-8.601s2.654-.996 3.434-.84c.774.157 7.612 5.953 8.396 5.953.762 0 7.167-6.944 7.476-7.325z" fill="#2f2f2f"/><path d="M69.688 68.876c.595-.744 4.046.304 4.046.304S63.487 79.591 62.471 79.689c-1.021.098-12.084-8.601-12.084-8.601s2.658-.996 3.434-.84c.774.156 7.608 5.953 8.392 5.953.766.001 7.175-6.944 7.475-7.325z" fill="#2f2f2f"/><path d="M85.339 82.033c.592-.744 4.042.304 4.042.304S79.139 92.748 78.117 92.846c-1.021.098-12.084-8.6-12.084-8.6s2.655-.996 3.434-.84c.775.156 7.613 5.953 8.396 5.953.763 0 7.167-6.944 7.476-7.326z" fill="#2f2f2f"/><path d="M92.414 101.143a270.47 270.47 0 0 0-3.979-7.342c-1.713-3.042-3.196-7.476-5.764-9.842-1.329-1.221-2.967-1.396-4.625-1.955-2.533-.858-5.309-1.133-7.905-1.737-1.179-.275-2.087-.292-3.162-.934-.842-.5-.946-.737-1.371-1.55-.471-.883-1.037-1.892-1.65-2.717-.679-.9-1.05-1.842-1.604-2.808-.833-1.458-2.159-2.58-3.555-3.413-1.017-.608-2.13-.9-3.209-1.367-1.046-.45-2.017-1.125-3.013-1.658-1.458-.784-2.479-1.438-3.2-2.979-.562-1.204-1.45-2.188-1.958-3.413-.309-.742-.5-1.521-.759-2.279-2.366-7.025-10.483-11.934-17.747-11.359-.783.059-1.388.383-1.879.85-2.112 1.067-3.575 3.046-5.342 4.601-2.388 2.096-4.946 4.321-6.792 6.925-2.234 3.133-4.851 5.95-7.338 8.872-1.347 1.579-2.667 3.192-3.838 4.909-1.584 2.316-2.367 3.521-.768 6.004 2.105 3.263 4.981 6.459 7.413 9.501 2.988 3.742 6.33 7.196 9.784 10.509 6.871 6.592 14.297 12.609 20.964 19.413.379.388.75.775 1.125 1.167 2.625 2.763 5.393 4.888 8.701 6.713.675.371 1.316.816 1.987 1.196.612.346 1.083.538 1.771.579 3.593.212 5.617-2.85 7.876-5.109 1-.996 1.812-2.166 2.8-3.15.358-.358 2.867-3.517 3.117-3.467 1.992.4 4.367.175 5.801.188 1.433.012 2.85-.113 4.241-.354 1.176-.208 3.034-.408 4.047.375 1.087.842 1.837 1.879 3.237 2.275 1.767.5 2.742-.2 4.125-1.246.934-.708 2.051-1.175 2.948-1.946.86-.746 1.619-1.9 2.311-2.8.467-.6.8-1.567.976-2.3.199-.841-.25-1.458-.617-2.2a444.772 444.772 0 0 0-3.149-6.152zM48.17 116.519c-1.392-1.038-2.676-2.275-3.934-3.454-3.388-3.205-6.484-6.705-9.882-9.901-3.107-2.921-6.261-5.796-9.345-8.746-3.842-3.68-7.592-7.467-11.009-11.567-1.375-1.654-2.834-3.305-3.875-5.201-1.592-2.896-.684-3.508.541-6.2.483-1.054 1.342-1.879 2.104-2.75 1.75-1.992 3.542-3.951 5.25-5.971 2.055-2.434 4.005-4.963 6.222-7.247.767-.788 1.792-2.167 2.842-2.554 3.325-1.229 3.851 8.251 4.092 10.046.246 1.809.45 3.625.663 5.442.154 1.3.021 2.559.108 3.842.087 1.367.533 2.796.712 4.15.194 1.429.5 2.796 1.959 3.288 2.575.862 6.513.441 7.959 3.237a22.405 22.405 0 0 1 1.954 5.471c.221 1.013.572 2.025.888 3.025.3.946.269 1.954.579 2.883.421 1.238.754 2.425 1.996 2.979.679.3 1.425.429 2.133.583 2.521.533 5.034.821 7.567 1.267 1.296.229 2.659.675 3.562 1.679.681.754.7 1.884.979 2.813.287.958.333 1.925.517 2.913.092.538.4.983.542 1.504.133.483.059.904.125 1.387.104.796.5 1.688.188 2.479-.354.896-1.254 1.9-1.879 2.625-.884 1.042-1.734 2.117-2.701 3.088-1.904 1.921-4.491 3.492-7.029 1.679-1.059-.758-2.079-1.575-3.162-2.309a23.077 23.077 0 0 1-.666-.48zm36.235-6.192c-.633-.408-1.217-.925-1.958-1.125-1.301-.358-2.942.288-4.242.454-1.617.204-3.25.304-4.884.304-.596 0-1.684.209-2.217-.033-.967-.442-1.333-2.592-1.684-3.483-.75-1.892-1.342-3.729-1.771-5.726-.254-1.154-.663-2.275-.851-3.425-.12-.725-.183-1.584-.7-2.133-.566-.6-1.425-.508-2.137-.659-.893-.183-1.713-.354-2.621-.367-1.009-.012-1.938-.321-2.934-.35a90.36 90.36 0 0 1-3.384-.184c-1.196-.079-2.851-.025-3.471-1.237-.199-.375-.24-.871-.393-1.254-.149-.383-.425-.754-.5-1.192-.337-1.825-.774-3.583-1.108-5.409-.399-2.196-.75-4.871-2.596-6.376-2.162-1.767-5.546-2.15-8.176-2.75-1.729-.392-1.82-11.284-1.87-12.209-.088-1.809-.426-3.596-.913-5.338-.237-.829-.435-1.788-.875-2.534-.537-.929-.921-2.296.7-1.825.963.279 1.929 1.375 2.656 2.029 2.584 2.358 3.682 5.313 5.375 8.268 1.834 3.2.773 5.679 4.99 6.934 1.26.375 2.469.979 3.692 1.429.883.317 1.688.917 2.529 1.333 3.529 1.729 4.487 6.167 6.446 9.288.383.612.604 1.346 1.149 1.821 1.434 1.238 4.13.833 5.867 1.013 1.046.108 2.017.375 3.075.367.958-.008 1.625.142 2.483.5.546.225 1.101.421 1.642.7 1.046.533 1.821.825 2.659 1.696.683.717 1.25 1.492 1.75 2.35 1.417 2.413 2.3 5.092 3.667 7.53.846 1.5 1.667 3.025 2.608 4.471 1.434 2.196 4.816 4.75 1.804 6.796-.762.517-1.796 1.042-2.754.812-.369-.09-.715-.274-1.053-.486z" fill="#2f2f2f"/><path d="M84.405 110.327c-.633-.408-1.217-.925-1.958-1.125-1.301-.358-2.942.288-4.242.454-1.617.204-3.25.304-4.884.304-.596 0-1.684.209-2.217-.033-.967-.442-1.333-2.592-1.684-3.483-.75-1.892-1.342-3.729-1.771-5.726-.254-1.154-.663-2.275-.851-3.425-.12-.725-.183-1.584-.7-2.133-.566-.6-1.425-.508-2.137-.659-.893-.183-1.713-.354-2.621-.367-1.009-.012-1.938-.321-2.934-.35a90.36 90.36 0 0 1-3.384-.184c-1.196-.079-2.851-.025-3.471-1.237-.199-.375-.24-.871-.393-1.254-.149-.383-.425-.754-.5-1.192-.337-1.825-.774-3.583-1.108-5.409-.399-2.196-.75-4.871-2.596-6.376-2.162-1.767-5.546-2.15-8.176-2.75-1.729-.392-1.82-11.284-1.87-12.209-.088-1.809-.426-3.596-.913-5.338-.237-.829-.435-1.788-.875-2.534-.537-.929-.921-2.296.7-1.825.963.279 1.929 1.375 2.656 2.029 2.584 2.358 3.682 5.313 5.375 8.268 1.834 3.2.773 5.679 4.99 6.934 1.26.375 2.469.979 3.692 1.429.883.317 1.688.917 2.529 1.333 3.529 1.729 4.487 6.167 6.446 9.288.383.612.604 1.346 1.149 1.821 1.434 1.238 4.13.833 5.867 1.013 1.046.108 2.017.375 3.075.367.958-.008 1.625.142 2.483.5.546.225 1.101.421 1.642.7 1.046.533 1.821.825 2.659 1.696.683.717 1.25 1.492 1.75 2.35 1.417 2.413 2.3 5.092 3.667 7.53.846 1.5 1.667 3.025 2.608 4.471 1.434 2.196 4.816 4.75 1.804 6.796-.762.517-1.796 1.042-2.754.812-.369-.09-.715-.274-1.053-.486z" fill="#78a3ad"/></g></svg>