<svg id="レイヤー_1" xmlns="http://www.w3.org/2000/svg" viewBox="0 0 128 128"><g><g><g><path d="M111.886 100.74c-6.484 5.481-14.774 8.982-23.005 11.011-17.955 4.422-39.031 4.818-56.764-.938-4.629-1.504-9.382-3.586-13.474-6.225-3.015-1.949-6.022-4.616-8.141-7.519-7.154-9.77-7.887-23.93 4.395-33.179 13.545-10.198 30.102-13.5 46.925-13.622 12.299-.08 25.458.599 37.147 4.609 10.724 3.67 23.22 12.199 23.705 24.576.328 8.477-4.478 15.951-10.788 21.287z" fill="#fff"/><path d="M127.355 80.589c-.524-14.002-14.034-23.647-25.604-27.802-12.645-4.54-26.857-5.307-40.14-5.215-18.181.133-35.741 4.325-50.705 15.409-11.205 8.312-13.941 25.022-4.753 37.537 2.369 3.23 5.546 6.301 8.807 8.504 4.423 2.987 9.552 5.344 14.552 7.041 19.157 6.512 41.93 6.068 61.334 1.063 8.885-2.292 17.845-6.254 24.851-12.455 6.82-6.041 12.005-14.494 11.658-24.082zM109.84 99.996c-6.205 5.255-14.151 8.614-22.014 10.559-17.191 4.24-37.379 4.616-54.348-.901-4.43-1.443-8.974-3.436-12.894-5.966-2.887-1.868-5.772-4.426-7.802-7.211-6.844-9.366-7.548-22.943 4.212-31.808 12.967-9.782 28.821-12.947 44.926-13.061 11.767-.081 24.357.57 35.564 4.415 10.249 3.521 22.222 11.698 22.683 23.566.317 8.122-4.283 15.289-10.327 20.407z" fill="#78a3ad"/></g><g><path d="M103.833 55.916c-.723-3.456-1.111-6.973-1.758-10.445-.323-1.735-.703-3.464-1.234-5.142-.172-.517-.374-1.363-.673-2.138-.315-.809-.736-1.548-1.326-1.771-.316-.113-.639-.093-.979-.085-.378.012-.703.142-1.023.263-1.335-1.722-3.124-3.008-4.821-4.317-1.197-.921-2.103-1.943-3.46-2.639-1.286-.664-2.391-1.642-3.655-2.385-1.39-.821-2.885-1.738-4.454-2.139-1.814-.457-3.67-.768-5.498-1.16-3.585-.772-7.412-.614-11.051-.295-4.56.405-9.196.647-13.678 1.629-2.866.627-5.474 1.965-8.134 3.182-2.199 1.002-4.1 2.199-5.979 3.722-.861.7-1.459 1.447-2.138 2.284-.373-.558-1.079-.84-2.312-.586-2.273.465-3.363 2.821-3.978 4.883-.832 2.766-1.512 5.607-2.256 8.404-.704 2.652-1.293 5.332-1.957 7.995-2.068 8.259-4.493 16.921-3.831 25.543 1.003 13.178 16.984 19.132 27.406 22.103a65.02 65.02 0 0 0 13.68 2.333c11.253.671 23.363-.732 33.048-7.135 2.692-1.774 5.211-3.994 7.397-6.391 8.853-9.682 5.048-24.237 2.664-35.713z" fill="#fcc21b"/><g><path d="M35.022 27.834c-4.426 3.582-8.585 9.608-8.149 15.562.526 7.179 6.937 11.707 12.815 14.475 4.531 2.126 9.169 3.901 14.067 4.904 7.611 1.56 16.678.17 22.151 7.025 1.714 2.134 2.91 4.721 5.958 5.057 5.639.618 6.932-6.14 7.995-10.223.795-3.056 1.609-6.039 3.412-8.679 1.847-2.708 4.358-4.895 6.007-7.752 2.838-4.903 2.15-10.304-.93-14.928-1.712-2.583-4.229-5.501-6.805-7.231-3.01-2.013-6.397-3.327-9.776-4.508-11.383-3.949-25.054-3.864-36.36.445-3.496 1.334-7.215 3.299-10.385 5.853z" fill="#855c52"/></g></g></g><path d="M90.539 41.759c-7.417 8.865-18.335 11.044-29.226 11.412-.703.024-1.277.069-1.508.857-.521 1.823 3.675 1.709 4.742 1.766 4.211.214 8.484.028 12.579-1.132 5.61-1.589 13.666-4.75 15.426-11.132.298-1.116-.009-3.444-1.534-2.252a3.069 3.069 0 0 0-.479.481z" fill="#fff"/></g></svg>