<svg xmlns="http://www.w3.org/2000/svg" xmlns:xlink="http://www.w3.org/1999/xlink" viewBox="0 0 128 128"><g id="图层_1"><g><g><defs><path id="SVGID_1_" d="M71.898 95.781h.009-.009zm0 0l-20.624.706c-.728.565-.199 1.734-.199 2.519v2.729c0 1.479-.605 2.776-1.559 3.948-2.603 3.171-7.204 4.464-11.104 5.996-2.632 1.036-9.086 3.452-8.713 6.649.462 3.881 8.213 5.516 11.568 6.185 9.284 1.613 27.909 2.363 42.042-.797 2.359-.532 8.048-1.793 8.833-4.237 1.427-4.497-8.856-7.074-12.03-8.262-4.357-1.636-9.224-3.878-9.23-8.601 0-1.31-.004-2.581.212-3.836.151-.844-.198-2.566.804-2.999z"/></defs><use xlink:href="#SVGID_1_" overflow="visible" fill="#e0e0e0"/><clipPath id="SVGID_2_"><use xlink:href="#SVGID_1_" overflow="visible"/></clipPath><path d="M63.292 94.875c.009 2.689-.617 9.25.231 14.449.458 2.807 5.609 7.236 6.51 11.722.518 2.579-.104 4.279-.094 5.807 4.905-.169 9.914.509 14.828.123 1.807-.142 3.533-.708 5.247-1.261.841-.272 2.428-.426 3.156-.883 1.689-1.06 1.61-4.967 1.686-6.793.07-1.68.568-3.568-.259-4.9-1.049-1.689-4.013-2.976-5.677-3.884-1.826-.997-3.845-1.713-5.614-2.805-2.561-1.581-5.787-4.638-7.109-7.319-.916-1.858.689-4.31-.516-5.74-2.714-.021-5.432-.23-8.144-.137-.817.028-1.465-.12-2.112.496" clip-path="url(#SVGID_2_)" fill="#bdbdbd"/></g><path d="M40.544 116.516c-.985-.216-2.284.377-2.281 1.265.002.73.864 1.201 1.627 1.498 3.061 1.192 8.968 1.697 14.259 1.767.718.01 2.093-.22 2.503-.735.439-.551.081-1.363-.55-1.746s-1.435-.462-2.201-.506c-6.386-.365-8.398-.453-13.357-1.543z" fill="#fff"/></g><g><defs><path id="SVGID_3_" d="M95.986 42.295c-1.015 1.137-2.791 1.252-3.936.257L80.125 32.265a2.711 2.711 0 0 1-.245-3.87l24.293-27.153a2.833 2.833 0 0 1 3.941-.256l11.918 10.286a2.72 2.72 0 0 1 .252 3.871L95.986 42.295z"/></defs><use xlink:href="#SVGID_3_" overflow="visible" fill="#fcc21b"/><clipPath id="SVGID_4_"><use xlink:href="#SVGID_3_" overflow="visible"/></clipPath><path d="M117.555 20.947l-6.543 1.134-1.296-7.436 14.152-2.461-.754-4.631-14.204 2.463-2.764-15.913-4.632.759 2.771 15.956-7.657 1.331-1.603-9.201-4.631.759 1.608 9.248-9.482 1.643.761 4.635 9.525-1.658 1.287 7.439-17.13 2.977.758 4.637 17.178-2.985 2.543 14.65 4.637-.758-2.551-14.698 7.653-1.326 1.381 7.936 4.637-.758-1.391-7.984 6.495-1.126-.748-4.632zm-18.832 3.27l-1.295-7.439 7.66-1.335 1.292 7.44-7.657 1.334z" clip-path="url(#SVGID_4_)" fill="#f79329"/></g><path d="M110.268 60.788c0 23.084-22.067 41.797-49.288 41.797S11.691 83.872 11.691 60.788s98.577-23.084 98.577 0z" fill="#e0e0e0"/><ellipse cx="60.979" cy="60.685" rx="49.288" ry="21.814" fill="#757576"/><path d="M110.265 60.741c-.049 8.557-11.234 15.953-27.477 19.507-4.478 4.245-11.163 9.771-18.346 12.947-7.803 3.449-20.565 6.861-18.059 7.521a57.334 57.334 0 0 0 14.597 1.87c27.221 0 49.288-18.713 49.288-41.797 0-.017-.003-.032-.003-.048z" fill="#bdbdbd"/><path d="M15.989 54.131c.811-3.584 2.261-7.001 4.137-10.154 1.491-2.507 1.99-6.822 5.255-7.63.508-.126 1.053-.173 1.49-.46 1.467-.964.701-3.783 2.285-4.539.649-.31 1.433-.1 2.123-.302 1.763-.518 1.996-3.29 3.743-3.861.892-.291 1.873.118 2.798-.041 1.996-.343 2.671-2.94 4.375-4.035.977-.628 2.2-.699 3.36-.751l9.663-.432c.868-1.884 3.49-1.923 5.549-1.669l4.616.568c2.315.285 4.636.57 6.969.607 1.005.016 2.049-.007 2.964.408s1.654 1.426 1.388 2.395c2.19-.478 4.791-.849 6.398.713.357.347.644.776 1.073 1.029.849.5 1.923.15 2.907.208 1.775.103 3.301 1.797 3.219 3.573.009-.198 2.104 1.211 2.267 1.402.72.842.72 1.88 1.272 2.75 1.315 2.07 3.647 3.796 5.158 5.792 3.244 4.284 5.78 9.168 6.969 14.431 1.982 8.752-1.851 11.247-9.272 15.874-10.364 6.462-35.718 7.723-35.718 7.723-19.596 0-29.654-3.981-34.995-7.278-7.439-4.596-11.973-7.569-9.993-16.321z" fill="#fff9d7"/><path d="M59.211 57.352c-1.887.467-3.817 1.604-5.835 1.637-1.145.022-2.179-.523-3.307-.492-1.916.074-2.786.988-4.67.682-.691-.105-1.327-.58-1.991-.648-1.261-.125-2.165.412-3.316.594-2.626.398-6.469-2.342-9.093-3.985-1.109-.852-4.912-2.885-3.55-4.299 2.503 1.341 5.393 1.851 7.724 3.241 1.415-1.699 2.003.102 3.362.528.48.151 1.39-.19 2.049-.079.659.11 1.139.717 1.807.851.302.061.804-.35 1.149-.332 1.031.047 2.463-.051 3.456.138 2.397.462 4.154 1.009 6.735 1.253 1.206.125 2.295-.517 3.499-.363.778.102 1.403.667 2.25.903" fill="#f4e9b0"/><path d="M69.335 60.889c3.167-.545 4.089.222 7.147.625 1.664.219 3.966-.583 5.51-1.071 4.543-1.435 9.054-1.307 11.78-5.402 4.035 1.679-.893 3.465-2.053 4.53-.435.4-1.19 1.942-1.559 2.137-.861.455-1.529-.098-2.387.222-1.202.449-2.583 1.333-3.688 2.081-2.202 1.491-2.798 2.941-5.856 2.035-1.587-.47-2.653-1.794-4.242-2.13-2.175-.458-6.743 1.548-4.652-3.027" fill="#f4e9b0"/><path d="M60.073 46.926c1.167 2.574 16.656-1.579 16.837 1.331.016-.129.016-.137 0-.024-.017.289-.06.575-.183.828-.963-.363-2.916.559-4.024.642.022-.002-1.541.44-1.643.464-.907.214-1.647-.409-2.567.801-2.029-.478-3.936.307-5.936-.24-1.176-.322-4.213-2.414-2.484-3.802" fill="#f4e9b0"/><path d="M39.459 63.75c2.776.406 6.095 1.717 8.502 2.244 1.14.249 1.645 1.161 3.486 1.249.503.024 3.825-.838 4.02-.751 1.625.725.862 2.289 2.861 2.503.872.093 1.367-.899 2.306-1.087 2.579-.515 4.04.332 6.3.878.158.513.139 1.69-.013 2.181-.747.538-1.269.642-2.011 1.523-.088-.363-.865-1.268-.99-1.727-1.561.611-3.049-.227-4.586.088-.873.179-2.73 1.531-3.642 1.914-.056-.645-.635-1.764-.727-2.477-.895 1.138-1.818.642-2.476-.6-1.105.91-3.492 1.48-4.717.624-.805-.562-.983-1.934-1.8-2.593-.508-.41-1.758.86-2.797-.979-2.06.702-3.526-1.5-3.967-3.242" fill="#f4e9b0"/><path d="M20.459 54.25c.693 1.231.741 1.208 1.519 2.34.212-.141.229-.366.425-.503.752.684 1.816 1.512 2.269 2.664.949-.58 1.196-.031 1.955-.833.322 1.64.748 2.804-.198 4.3-.562-1.463-1.923-2.107-3.15-2.189-.188.666-.866.032-1.015.606-.101-1.336-.041-1.516-.365-2.888-.056.117-.12.53-.226.715.028.003-.81.084-.726.011-.86-1.189-.869-2.875-.488-4.223" fill="#f4e9b0"/><path d="M88.385 51.292c1.201-1.081 2.11-4.36 3.466-4.762 1.384-.409 1.221 1.689 2.598 1.268 2.486-.76.632-4.591 2.779-4.766.006-.012.32-.825.28-.795.274.484.615 1.048.702 1.664.336.464.717 1.87.711 2.823-.3-.008-.624-.176-.911-.218a43.656 43.656 0 0 0-1.075 2.779c-2.594-1.726-1.923 2.845-3.97.723-.246.781-1.033 1.408-1.284 2.233-.371-.3-1.085-.341-1.463-.777-.19.365-.845.866-.989 1.339-.118-.368-.691-.95-.844-1.511" fill="#f4e9b0"/><path d="M29.709 39.833c.236 2.009 1.662 3.966 4.115 2.335.272.238.105.648.26.921 1.692.075 2.036-.068 2.734 1.412.289-.099.128-.607.484-.551-.018.709.339 1.208.456 1.872.619.016.771-.085 1.293-.212.434.406.274.882.65 1.338.295.184.415-.384.608-.248.123.544.05 1.071.034 1.623-.899-.117-2.288-.162-2.941-.287-.341-.498-1.267-.96-1.674-1.41-.315.285-.993.591-1.276.875-.147-.53-.705-1.09-.817-1.622-.247.169-.648.492-.983.553-.791-.947-1.686-1.555-2.405-2.377-.203.649-.638.546-.872 1.033-1.06-1.413-.671-3.503-.667-5.254" fill="#f4e9b0"/></g></svg>