<svg id="レイヤー_1" xmlns="http://www.w3.org/2000/svg" xmlns:xlink="http://www.w3.org/1999/xlink" viewBox="0 0 128 128"><g><g><g><g><path d="M90.785 99.124c2.546 3.594 6.039 6.795 9.019 10.05 2.594 2.832 5.162 5.685 7.735 8.538 1.543 1.713 3.064 3.472 4.729 5.062.677.646 1.332 1.332 2.119 1.839.846.539 1.69.613 2.668.497 1.712-.2 3.203-1.521 3.685-3.17.212-.719-.052-1.606-.356-2.261-.682-1.459-5.23-6.3-6.272-7.614-3.344-4.232-6.836-8.375-10.278-12.539-2.771-3.35-5.789-7.587-9.819-8.247-4.012-.656-6.311 3.502-3.23 7.845z" fill="#855c52"/><g><defs><path id="SVGID_1_" d="M59.014 86.518c-8.834 7.502-18.973 15.999-14.513 27.327 1.341 3.413 4.538 6.784 7.264 9.108 2.23 1.913 5.174 3.636 7.999 4.317 10.362 2.51 19.587-6.261 27.945-15.751 6.652-7.539 9.484-10.345 18.261-18.598 4.983-4.692 13.014-10.875 15.36-13.633 4.263-5.02 5.7-8.199 4.189-14.973-1.47-6.626-6.049-12.196-12.547-14.445-7.806-2.706-13.349.296-19.514 5.515-3.826 3.234-6.976 7.144-10.346 10.833-7.185 7.841-16.046 13.463-24.098 20.3z"/></defs><use xlink:href="#SVGID_1_" overflow="visible" fill="#b89278"/><clipPath id="SVGID_2_"><use xlink:href="#SVGID_1_" overflow="visible"/></clipPath><g clip-path="url(#SVGID_2_)" fill="#855c52"><path d="M103.356 82.639c-2.766-4.121.528-13.843 4.65-16.273 3.415-2.028 10.845.117 12.631 3.657 1.04 2.07.908 4.935-.238 6.932-1.241 2.167-3.032 4.999-4.962 6.61-2.826 2.351-6.128 3.841-9.579 1.601-.834-.551-1.796-1.48-2.502-2.527z"/><path d="M92.565 62.524c3.063.629 7.201-1.363 9.788-2.848 2.502-1.437 4.146-2.705 4.959-5.432.606-2.05.882-4.121-1.454-5.062-2.953-1.179-5.066-.37-7.592 1.056-2.985 1.681-5.808 2.748-7.206 6.235-.466 1.162-.688 2.155-.656 3.402.048 1.673.973 2.402 2.161 2.649z"/><path d="M72.107 88.689c1.185.385 2.319.914 3.528 1.252 5.808 1.605 12.936-.485 15.345-6.515.66-1.664 1.131-3.429.898-5.384-.429-3.667-3.145-5.305-6.081-2.748-1.802 1.563-3.445 3.36-5.146 5.029-2.848 2.791-5.696 5.581-8.544 8.366z"/><path d="M42.735 104.038c4.755-2.104 5.975-2.494 7.772-2.483 1.368 0 2.711.18 3.894-.655 2.066-1.458 3.546-3.666 4.063-6.139.455-2.151-.528-5.279-2.885-5.6-2.124-.296-5.696.823-9.305 4.839l-3.539 10.038z"/><path d="M76.715 124.412c3.975-7.947-1.89-15.819 3.37-22.244 1.981-2.42 6.209-4.745 9.353-4.1 1.252.264 3.45 1.373 4.206 2.557.654 1.035 1.142 4.428-.021 6.202l-16.908 17.585z"/><path d="M55.718 108.128c-2.558-.169-8.116.391-5.121 3.688 1.137 1.247 3.002 1.332 4.121 2.505 1.433 1.501 1.417 3.678 2.711 5.188 1.484 1.723 3.673 2.303 5.859 2.007 3.503-.464 4.217-4.743 2.661-7.354-1.99-3.329-5.815-5.348-9.556-5.96a5.182 5.182 0 0 0-.675-.074z"/></g></g><g><path d="M32.634 71.006c1.167 3.962 3.175 7.819 6.086 11.316 10.309 12.411 34.026 9.744 45.37.223 3.521-2.959 6.964-9.004 7.619-13.569.365-2.547.65-5.241.641-7.819-.017-4.893-.593-9.732-2.685-14.255-5.802-12.544-23.021-16.422-35.47-13.336-17.725 4.39-26.19 21.778-21.561 37.44z" fill="#f79329"/></g><g fill="#855c52"><path d="M55.664 67.898c.158-1.078.111-2.183-.105-3.055-.617-2.499-4.269-3.106-6.409-3.128-1.553-.01-2.468.93-1.711 2.398.951 1.86 3.201 1.385 3.729 3.699.307 1.354-.385 5.601 2.484 3.814 1.161-.716 1.795-2.2 2.012-3.728z"/><path d="M75.103 57.786c.893 1.849 3.969 3.782 6.029 2.767 2.007-.981 1.526-3.476-.212-4.489-1.288-.751-1.823-2.019-2.467-3.287-.577-1.131-1.808-1.812-2.934-.713-1.282 1.247-1.14 4.226-.416 5.722z"/><path d="M73.797 73.811c-1.706-.544-4.309.106-5.89.713-1.231.476-2.615 2.917-.788 3.752 1.163.539 2.277-.133 3.427-.307.792-.117 1.614.063 2.386-.152 1.791-.504 3.267-3.241.865-4.006z"/></g><g><g fill="#78a3ad"><path d="M19.71 76.595c-.117-.254-.224-.496-.333-.708-.899-1.669-1.135-3.382-1.353-4.888l-.116-.818c-.291-1.822-.503-3.646-.692-5.479-.328-3.133-.708-6.261-1.084-9.389l-.349-2.927c-.702-5.887-1.395-12.152-1.5-18.398l-.027-1.405c-.109-4.925-.237-10.503 2.499-15.201 3.54-6.081 10.896-6.398 14.849-6.567 8.892-.381 18.275-.339 27.887.148.897.042 1.802.062 2.704.095 1.644.053 3.293.106 4.937.243 2.842.242 5.853.834 8.554 1.827-2.147-2.361-5.162-4.279-7.873-5.801-3.932-2.203-8.211-3.741-12.596-4.723a55.717 55.717 0 0 0-9.543-1.289C37.015.891 28.274-.164 19.6.521c-1.543.116-3.117.291-4.666.582-10.6 2.018-12.972 9.901-13.031 19.601-.068 12.719.634 25.034 2.52 37.63.323 2.14.645 4.281.963 6.414.681 4.561 4.321 7.397 7.777 9.955 1.79 1.321 4.375 2.347 6.947 2.727-.141-.285-.291-.581-.4-.835z"/><path d="M66.67 16.688c-1.548-.126-3.096-.18-4.644-.222-.935-.031-1.871-.062-2.806-.106-9.442-.47-18.657-.518-27.386-.148-5.156.223-8.691.951-10.403 3.89-1.971 3.382-1.865 7.946-1.771 12.358l.032 1.431c.101 5.992.776 12.11 1.464 17.86l.348 2.916c.383 3.16.762 6.309 1.089 9.468.181 1.744.386 3.477.656 5.21l.131.898c.164 1.162 1.157 5.734 3.303 6.208 1.997-1.015 4.058-2.562 5.613-3.905 8.6-7.428 16.34-15.771 23.881-24.251 3.805-4.28 7.522-8.622 11.443-12.803 3.424-3.655 7.873-7.434 10.005-12.067.369-.799.59-1.559.727-2.298-1.617-2.504-7.391-4.068-11.682-4.439z"/></g></g></g></g></g></g></svg>