<svg xmlns="http://www.w3.org/2000/svg" xmlns:xlink="http://www.w3.org/1999/xlink" viewBox="0 0 128 128"><g id="图层_1"><g><g><g><defs/><use xlink:href="#SVGID_1_" overflow="visible" fill="#cfd8dc"/><clipPath id="SVGID_2_"><use xlink:href="#SVGID_1_" overflow="visible"/></clipPath></g></g><g><g/><g/></g></g><g/><g><g><g><defs><path id="SVGID_3_" d="M61.425 99.698h.008-.008zm0 0l-17.94.615c-.633.492-.173 1.509-.173 2.191v2.374c0 1.287-.526 2.415-1.356 3.434-2.264 2.759-6.267 3.883-9.659 5.216-2.29.902-7.904 3.003-7.58 5.783.402 3.376 7.144 4.798 10.062 5.38 8.076 1.403 24.277 2.055 36.571-.693 2.052-.463 7.001-1.559 7.683-3.685 1.241-3.912-7.703-6.153-10.465-7.187-3.79-1.423-8.024-3.373-8.029-7.482 0-1.139-.004-2.245.184-3.337.135-.735-.17-2.233.702-2.609z"/></defs><use xlink:href="#SVGID_3_" overflow="visible" fill="#e0e0e0"/><clipPath id="SVGID_4_"><use xlink:href="#SVGID_3_" overflow="visible"/></clipPath><path d="M53.939 98.91c.008 2.339-.536 8.046.201 12.569.398 2.441 4.879 6.294 5.663 10.197.45 2.243-.091 3.722-.082 5.051 4.267-.147 8.624.443 12.898.107 1.572-.123 3.073-.616 4.564-1.097.732-.236 2.112-.37 2.746-.768 1.469-.922 1.4-4.32 1.467-5.909.061-1.461.494-3.103-.226-4.263-.912-1.47-3.491-2.589-4.938-3.379-1.588-.867-3.345-1.49-4.883-2.44-2.228-1.375-5.034-4.034-6.184-6.366-.797-1.616.599-3.749-.449-4.993-2.361-.018-4.725-.2-7.084-.119-.71.024-1.274-.104-1.837.431" clip-path="url(#SVGID_4_)" fill="#bdbdbd"/></g><path d="M34.151 117.735c-.857-.188-1.986.328-1.984 1.1.002.635.751 1.045 1.416 1.303 2.663 1.037 7.801 1.476 12.403 1.537.625.008 1.82-.191 2.178-.639.382-.479.07-1.186-.478-1.519s-1.248-.402-1.915-.44c-5.556-.318-7.306-.394-11.62-1.342z" fill="#fff"/></g><g><path d="M99.563 69.258c0 20.08-21.327 36.358-47.635 36.358S4.292 89.338 4.292 69.258s95.271-20.08 95.271 0z" fill="#e0e0e0"/><path d="M99.56 69.217c-.047 7.444-10.857 13.877-26.556 16.969-4.327 3.693-10.788 8.5-17.731 11.262-7.541 3-19.875 5.968-17.453 6.542a61.24 61.24 0 0 0 14.108 1.626c26.308 0 47.635-16.278 47.635-36.358 0-.014-.003-.027-.003-.041z" fill="#bdbdbd"/><ellipse cx="51.928" cy="69.169" rx="47.635" ry="22.832" fill="#757576"/><g><path d="M90.519 62.851c2.164-4.819 5.958-9.397 8.733-12.274 4.016-4.174 8.745-9.34 14.725-10.447 2.393-.441 4.962.304 6.833 1.837 1.645 1.347 3.809 4.724 2.491 6.878-1.284 2.088-4.285 3.271-6.397 4.32-2.721 1.347-5.539 2.539-7.983 4.382-3.511 2.641-6.455 5.93-9.441 9.123-1.742 1.867-3.189 3.954-4.623 6.05-.75 1.097-2.567 5.018-4.146 2.905-2.785-3.741-2.174-8.359-.192-12.774z" fill="#79a2ac"/></g><g><path d="M15.37 48.401c3.564-5.973 6.114-12.34 8.935-18.615 3.832-8.512 6.773-17.675 15.677-23.149 5.211-3.205 11.35-4.028 17.551-3.296C77.829 5.718 82.91 20.156 85.13 36.01c.829 5.923 1.6 12.159 4.556 17.57 3.768 6.897 9.141 17.363 1.718 23.608-11.811 9.932-33.378 11.27-49.259 9.508-5.583-.619-11.407-1.651-16.718-3.345-8.69-2.755-15.607-8.425-16.596-16.96-.76-6.555 3.225-12.431 6.539-17.99z" fill="#ebeae2"/><path d="M89.686 53.58c-2.956-5.411-3.727-11.647-4.556-17.57-1.977-14.116-6.232-27.101-21.465-31.458 4.717 7.907 6.034 17.367 6.979 26.512.503 4.866.936 9.752.78 14.641-.257 8.01-1.477 13.635-.053 21.527.745 4.127 2.957 9.566.889 13.251-1.957 3.487-4.147 5.664-11.137 6.626 11.392-.789 22.796-3.625 30.281-9.919 7.424-6.247 2.05-16.713-1.718-23.61z" fill="#d3d0c4"/><path d="M90.703 48.884c-.166-.727-4.308-24.279-7.198-30.268a23.444 23.444 0 0 0-3.727-5.613c-.898-1.01-1.688-2.044-2.778-2.876-.805-.616-1.64-1.089-2.49-1.627-5.071-3.232-9.112-4.813-15.433-5.865-18.245-3.035-26.236 7.768-27.2 8.916-6.34 7.567-11.567 17.36-14.925 26.354-.391 1.043-1.589 4.586.103 5.279 1.796.735 3.388-1.729 5.246-.129 2.532 2.187 1.03 5.528 5.883 5.58 3.664.039 5.453-3.491 8.402-4.798 2.419-1.074 4.484-.385 5.557 1.835 1.358 2.791 1.75 6.643 4.701 8.434 2.746 1.68 7.107 2.026 9.843.056 1.477-1.069 2.274-3.529 4.393-3.762 2.922-.319 4.721 3.291 5.303 5.36 1.076 3.803 5.033 6.659 9.561 5.539 1.972-.484 4.131-1.934 4.747-3.658.518-1.451.343-2.959.765-4.412.78-2.696 3.239-2.519 5.753-2.5.847.006 2.754.215 3.345-.43.29-.315.282-.836.149-1.415z" fill="#ec6c30"/><path d="M90.703 48.884c-.166-.727-4.308-24.279-7.198-30.268a23.444 23.444 0 0 0-3.727-5.613c-.898-1.01-1.688-2.044-2.778-2.875-.805-.616-1.64-1.089-2.49-1.627-2.352-1.499-4.486-2.631-6.725-3.532 1.706 1.444 3.484 4.011 4.68 9.32.695 3.084 1.644 16.354 1.819 19.507.306 5.492 2.75 17.311.922 20.449-1.828 3.138-6.894 4.86-8.824 1.517 1.076 3.803 5.033 6.659 9.561 5.539 1.972-.484 4.131-1.934 4.747-3.658.518-1.451.343-2.959.765-4.412.78-2.696 3.239-2.519 5.753-2.5.847.006 2.754.215 3.345-.43.291-.317.283-.838.15-1.417z" fill="#ce5b2b"/><path d="M39.627 13.962c-2.257 2.369-3.739 4.964-4.792 10.637-.346 1.865 1.44 4.144 3.237 3.745 1.589-.353 2.359-1.917 2.869-3.517.458-1.434 1.391-4.746 3.93-6.793 1.646-1.326 4.171-2.685 5.252-3.844 1.043-1.117 2.45-3.837-.182-4.86-2.219-.861-7.535 1.714-10.314 4.632z" fill="#fff"/></g></g></g></g></svg>