<svg id="レイヤー_1" xmlns="http://www.w3.org/2000/svg" viewBox="0 0 128 128"><g><g><g><path d="M115.05 55.609a73.756 73.756 0 0 0-2.055-5.426c-2.283-5.391-4.543-8.965-5.4-10.231.469-.42.91-.856 1.326-1.311 1.146-1.252 2.148-2.652 2.873-4.278 2.781-6.235.344-14.722-4.572-19.366C95.698 4.126 79.308 1.002 63.55.837 47.538.667 27.808 6.979 19.331 21.854c-3.019 5.293-2.309 11.58-.013 16.708.25.547.599 1.044.984 1.52-.904 1.375-3.091 4.898-5.297 10.103-2.836 6.69-5.681 16.118-5.69 27.155 0 3.681.327 7.544 1.062 11.529 1.366 7.318 4.015 13.452 7.606 18.479 5.392 7.543 12.832 12.522 20.91 15.579 8.087 3.056 16.827 4.24 25.096 4.24 11.037-.004 22.924-2.092 32.93-7.964 4.996-2.933 9.504-6.834 13.09-11.855 3.592-5.026 6.244-11.16 7.604-18.482a62.385 62.385 0 0 0 1.068-11.525c.002-8.321-1.618-15.725-3.631-21.732zm-95.045-3.302a62.904 62.904 0 0 1 3.604-7.229c.302-.523.556-.934.785-1.3.828.616 1.668.803 2.687 1.181 1.584.594 3.291 1.337 5.01 1.422.857.038 2.98-.315 3.329-1.32.017-.046.055-.089.055-.145.14-.934-.773-1.774-1.885-2.5-1.197-.781-2.632-1.423-3.266-1.881-.178-.123-.338-.259-.513-.386a19.566 19.566 0 0 1-2.641-2.411c-.636-.71-1.222-1.469-1.685-2.284a10.624 10.624 0 0 1-.938-2.055c-1.538-4.682.652-9.254 3.566-12.883C36.195 10.473 51.894 8.185 63.55 7.577c9.518-.501 21.988 2.131 30.695 5.935 4.311 1.89 7.727 5.527 9.947 9.603 1.943 3.54 1.697 7.462-.273 10.9-.045.081-.084.166-.135.251a29.215 29.215 0 0 1-2.488 3.532 26.404 26.404 0 0 1-2.291 2.453c-.078.072-.145.152-.227.225-.555.506-1.773 1.278-2.601 2.161-.514.539-.858 1.116-.828 1.702.006.161.014.322.09.483 1.146 2.53 5.469-.055 7.455-1.35l.572.068c.955 1.52 2.891 4.783 4.774 9.355a67.8 67.8 0 0 1 2.584 7.463c-4.305 2.079-9.926.229-14.527.089-16.947-.526-6.707 21.271-11.717 29.982-2.375 4.122-6.256 5.153-10.527 2.836-2.049-1.112-3.037-4.487-3.326-6.559-.725-5.086.787-11.598-2.107-16.199-3.92-6.249-14.072.369-19.526.157-4.448-.174-8.045-2.95-9.585-7.114a10.54 10.54 0 0 0-.595-1.354c-3.791-7.051-12.794-1.937-17.811-7.42-.544-.599-.956-1.282-1.281-2.013.065-.147.116-.312.183-.456z" fill="#2f2f2f"/></g><path d="M19.82 52.765s-7.897 21.794-3.551 37.822c4.348 16.029 16.301 27.44 45.917 31.516 0 0 45.512 2.03 49.986-34.775 1.781-14.679-1.35-26.968-1.35-26.968L19.82 52.765z" fill="#855c52"/></g><path d="M20.005 52.307a62.904 62.904 0 0 1 3.604-7.229c.302-.523.556-.934.785-1.3.828.616 1.668.803 2.687 1.181 1.584.594 3.291 1.337 5.01 1.422.857.038 2.98-.315 3.329-1.32.017-.046.055-.089.055-.145.14-.934-.773-1.774-1.885-2.5-1.197-.781-2.632-1.423-3.266-1.881-.178-.123-.338-.259-.513-.386a19.566 19.566 0 0 1-2.641-2.411c-.636-.71-1.222-1.469-1.685-2.284a10.624 10.624 0 0 1-.938-2.055c-1.538-4.682.652-9.254 3.566-12.883C36.195 10.473 51.894 8.185 63.55 7.577c9.518-.501 21.988 2.131 30.695 5.935 4.311 1.89 7.727 5.527 9.947 9.603 1.943 3.54 1.697 7.462-.273 10.9-.045.081-.084.166-.135.251a29.215 29.215 0 0 1-2.488 3.532 26.404 26.404 0 0 1-2.291 2.453c-.078.072-.145.152-.227.225-.555.506-1.773 1.278-2.601 2.161-.514.539-.858 1.116-.828 1.702.006.161.014.322.09.483 1.146 2.53 5.469-.055 7.455-1.35l.572.068c.955 1.52 2.891 4.783 4.774 9.355a67.8 67.8 0 0 1 2.584 7.463c-4.305 2.079-9.926.229-14.527.089-16.947-.526-6.707 21.271-11.717 29.982-2.375 4.122-6.256 5.153-10.527 2.836-2.049-1.112-3.037-4.487-3.326-6.559-.725-5.086.787-11.598-2.107-16.199-3.92-6.249-14.072.369-19.526.157-4.448-.174-8.045-2.95-9.585-7.114a10.54 10.54 0 0 0-.595-1.354c-3.791-7.051-12.794-1.937-17.811-7.42-.544-.599-.956-1.282-1.281-2.013.065-.147.116-.312.183-.456z" fill="#fcc21b"/><path d="M45.951 35.242c.118.042.237.072.352.114 2.102.76 4.347 1.4 6.657 1.906a57.92 57.92 0 0 0 10.117 1.273l.617.025c.213.004.406.017.613.021.102 0 .211.008.32.008 3.939.047 7.812-.339 11.385-1.206.264-.063.549-.101.799-.173 1.732-.459 3.535-1.028 5.213-1.813 2.521-1.184 4.734-2.869 5.9-5.526a8.944 8.944 0 0 0 .527-1.499c2.266-8.12-7.965-11.996-15.932-13.511a49.452 49.452 0 0 0-5.496-.743c-4.68-.34-9.926.161-14.51 1.044-5.205 1.002-10.868 3.54-13.081 8.72-.934 2.203-.844 4.173-.096 5.861 1.105 2.514 3.69 4.407 6.615 5.499zm5.197-5.009c-.762-.26-1.67-.663-2.522-1.19.033-.412.253-.794.602-1.142 1.121-1.112 3.524-1.897 4.797-2.237 4.869-1.303 10.061-1.664 15.129-1.053 2.225.268 4.475.522 6.623 1.112 1.205.331 2.945.913 3.908 1.821.445.429.74.917.693 1.498-.018.166-.035.344-.064.518-2.877 2.038-8.647 2.348-11.633 2.671-5.827.634-11.982-.135-17.533-1.998z" fill="#855c52"/><path d="M78.653 91.194c-3.811.729-5.408-3.345-4.762-6.456.195-.923.814-1.516 1.689-.883 1.018.742 1.393 1.927 2.199 2.844.705.793 3.311 1.819 2.656 3.211-.338.714-1.026 1.141-1.782 1.284z" fill="#fff"/><path d="M31.34 31.666c-1.104-.809-1.953-1.994-2.11-3.156-.263-1.908.553-3.723 1.702-5.207.968-1.275 1.89-2.398 3.354-3.097.638-.301 1.249-.562 1.953-.219.831.41-.327 2.154-.619 2.604-1.334 2.109-2.118 3.948-1.469 6.474.183.707.984 2.225.594 2.938-.692 1.223-2.595.251-3.405-.337z" fill="#fff"/><path d="M26.899 102.123c.394.212 5.077 1.01 4.831-.391-.136-.785-1.198-1.241-1.834-1.664-.477-.313-5.799-3.926-3.735-5.173.459-.277 3.838-.653 3.939-1.587.145-1.363-4.424-3.01-5.396-5.379-.59-1.396.623-1.691 1.362-1.835 2.021-.399 4.313-.828 4.371-1.689.086-1.338-2.181-1.945-4.498-3.348-.909-.552-4.305-3.406-1.52-3.956 1.146-.228 5.167-1.044 5.378-2.241.175-1.034-3.899-2.764-5.199-4.247-.458-.535-1.357-1.874-.509-2.427 1.111-.721 4.329-.354 6.6-.755.6-.106 2.908-.747.861-2.01-1.977-1.217-5.997-2.876-7.291-3.511-.264-.131-.51-.286-.799-.367-.662-.177-1.103.147-1.316.724-2.028 5.215-5.849 22.551 2.319 37.368.586 1.052 1.387 1.926 2.436 2.488z" fill="#b89278"/></g></svg>