<svg id="レイヤー_1" xmlns="http://www.w3.org/2000/svg" xmlns:xlink="http://www.w3.org/1999/xlink" viewBox="0 0 128 128"><g><g><defs><path id="SVGID_1_" d="M108.944 112.225c-8.279 5.981-14.043 10.269-24.062 12.879-9.941 2.587-21.191 1.12-31.244.084-19.652-2.028-34.707-10.774-45.613-27.346-4.176-6.337-6.32-13.556-6.877-21.086-.254-3.364-.221-6.747-.121-10.118.1-3.354-.037-6.93.5-10.245 1.045-6.337 2.549-12.667 4.908-18.654 2.455-6.253 6.272-10.762 10.184-16.094C28.183 5.873 50.862 1.192 69.354 1.459c6.514.095 14.067.671 20.299 2.621 4.914 1.538 9.834 3.937 14.055 6.891 4.369 3.044 8.107 7.336 10.779 11.94 2.537 4.377 4.77 9.263 6.369 14.066a83.325 83.325 0 0 1 1.066 3.432c2.299 7.986 4.76 17.216 5.064 25.552.636 16.971-3.62 35.863-18.042 46.264z"/></defs><use xlink:href="#SVGID_1_" overflow="visible" fill="#b89278"/><clipPath id="SVGID_2_"><use xlink:href="#SVGID_1_" overflow="visible"/></clipPath><g clip-path="url(#SVGID_2_)" fill="#855c52"><path d="M85.644 3.531c-.281.561-.482 1.271-.588 2.154-.279 2.333-.412 5.076-.039 7.359.242 1.504.625 4.154 2.221 4.814 1.482.605 2.908-.199 4.242-.743 1.443-.595 2.965-1.278 4.49-1.678 2.406-.622 4.684-2.244 6.943-3.282 1.912-.872 1.1-3.321-.279-4.42-.957-.771-2.109-1.389-3.107-2.172-1.072-.85-2.438-1.571-3.682-2.132-1.844-.833-3.693-1.166-5.643-1.578-1.799-.382-3.664-.117-4.558 1.678z"/><path d="M110.044 38.555c-.504-.333-1.121-.539-1.854-.578-1.117-.055-2.477.173-3.582.306-1.523.189-3.566.634-4.887 1.338-1.039.545-1.318.928-1.213 1.994.184 1.972.102 3.799.59 5.754.6 2.432.777 6.714 3.854 7.085 1.938.234 4.346.123 6.242-.255 1.256-.245 3.338-.473 4.404-1.188.783-.527.873-1.46.873-2.366-.01-1.877-.857-3.67-1.322-5.458-.418-1.566-1.045-3.038-1.588-4.549-.32-.888-.812-1.611-1.517-2.083z"/><path d="M53.489 31.097c-1.729-.533-3.854.066-5.607.517-2.85.732-6.232.938-8.859 2.265-1.51.761-1.398 3.826-1.434 5.315-.035 1.477-.143 3.072-.012 4.542.102 1.061.123 2.46.484 3.461.695 1.931 4.082 1.182 5.805 1.193 3.266.022 6.342-.788 9.445-1.7.816-.233 2.115-.422 2.736-1.132.479-.561.512-1.8.602-2.488.217-1.86.238-3.57-.111-5.38-.322-1.672-.029-3.588-1.039-5.083-.551-.804-1.238-1.266-2.01-1.51z"/><path d="M31.481 75.023a3.493 3.493 0 0 0-.373-.066c-1.031-.132-2.061-.306-3.182-.416-1.166-.117-2.233-.238-3.42-.262-1.711-.022-3.322-.417-4.889.666-.6.401-.865.984-1.143 1.567-1.189 2.526-3.482 6.22-1.482 8.917 2.094 2.834 13.789 3.455 15.209-.016.824-1.983 1.4-4.304 1.455-6.454.036-1.297-.735-3.602-2.175-3.936z"/><path d="M77.319 86.38c.92 2.077 2.031 3.927 3.576 5.58.588.617 1.305 1.367 1.932 1.928.871.761 2.045.867 3.154.972 2.205.221 5.053.311 7.27-.006 1.811-.255 3.781-2.215 4.525-3.876.906-1.999 2.09-3.498 1.762-5.809-.207-1.416-1.4-2.354-2.139-3.505-.873-1.382-1.617-2.515-2.949-3.526-2.016-1.526-4.525-2.893-7.129-2.371-2.717.544-4.883 2.709-6.82 4.532-1.828 1.706-4.438 3.255-3.182 6.081z"/><path d="M53.134 107.166c-2.482.14-4.938 1.822-6.836 3.415-1.656 1.394-3.055 2.205-2.115 4.604 1.459 3.743 4.365 6.697 7.623 8.751 1.789 1.134 3.16.556 4.965-.522 2.311-1.382 9.697-5.309 6.281-9.029-.937-1.027-1.799-1.994-2.721-3.021-1.088-1.222-2.293-2.16-3.643-3.138-1.15-.837-2.355-1.131-3.554-1.06z"/><g><path d="M92.228 113.275c-.197-.478-.576-.933-1.17-1.332-2.434-1.611-6.893-.439-8.307 2.121-2.039 3.677 4.863 4.797 7.096 3.577 1.404-.772 3.076-2.65 2.381-4.366z"/><path d="M99.565 104.173c2.188 1.994 8.391 2.294 7.914-1.938-.236-2.109-5.094-2.477-6.609-2.071-1.488.405-2.654 2.782-1.305 4.009z"/><path d="M116.608 89.596c.893-.372 1.582-1.021 1.797-2.005.275-1.304-.492-2.282-1.758-2.599-1.561-.395-4.518-.549-5.66.822-1.021 1.227-.553 2.504.65 3.366 1.19.855 3.395 1.083 4.971.416z"/><path d="M64.136 100.647c1.193.017 2.309-.311 2.865-1.1.895-1.244 1.049-4.143-.678-4.809-2.434-.945-7.947.106-6.465 3.765.524 1.289 2.479 2.11 4.278 2.144z"/><path d="M95.366 67.072c1.16-.034 3.045-.262 3.467-1.533.277-.805.244-2.088-.289-2.793-1.473-1.899-8.07-1.2-7.326 1.943.394 1.727 2.277 2.427 4.148 2.383z"/><path d="M111.499 72.297c2.711.772 6.887-2.144 5.715-4.87-1.461-3.42-9.125-1.049-7.576 3.099.381.982 1.047 1.543 1.861 1.771z"/><path d="M80.312 45.458c3.488-.417 4.354-4.121 1.588-5.348-3.359-1.494-7.768 2.76-4.721 4.82.789.54 2.078.65 3.133.528z"/></g></g></g></g></svg>