<svg id="レイヤー_1" xmlns="http://www.w3.org/2000/svg" xmlns:xlink="http://www.w3.org/1999/xlink" viewBox="0 0 128 128"><g><g><path d="M95.754 109.563c1.707 2.666 4.338 4.817 6.49 7.121 1.878 1.999 3.727 4.02 5.58 6.04 1.11 1.212 2.192 2.475 3.441 3.555.482.415 1.023.95 1.645 1.162 2.707.889 6.439-1.202 6.339-4.182-.096-2.788-2.996-4.656-4.531-6.697-2.317-3.08-4.792-6.05-7.217-9.061-1.943-2.424-3.97-5.575-7.51-5.403-3.523.173-6.3 4.233-4.237 7.465z" fill="#fcc21b"/><g><path d="M114.399 84.221c3.738 4.636 5.672 10.727 4.516 17.524-.748 4.394-3.104 10.435-6.212 13.656-10.247 10.615-31.924 15.636-41.524.828-2.339-3.605-4.424-9.737-4.222-14.07.691-14.677 9.389-24.333 23.464-26.858 9.151-1.647 18.505 2.091 23.978 8.92z" fill="#757f3f"/></g><g><defs><path id="SVGID_1_" d="M95.703 55.14c4.277 5.313 6.49 12.282 5.167 20.061-.854 5.05-3.556 11.959-7.111 15.646-11.734 12.162-36.555 17.909-47.55.95-2.682-4.132-5.065-11.142-4.832-16.11.792-16.809 10.753-27.858 26.868-30.757 10.474-1.88 21.187 2.391 27.458 10.21z"/></defs><use xlink:href="#SVGID_1_" overflow="visible" fill="#78a3ad"/><clipPath id="SVGID_2_"><use xlink:href="#SVGID_1_" overflow="visible"/></clipPath><path d="M86.032 56.326c3.843 4.783 5.828 11.036 4.641 18.036-.767 4.524-3.194 10.736-6.394 14.055-10.545 10.924-32.848 16.086-42.731.854-2.409-3.718-4.551-10.021-4.344-14.485.713-15.101 9.662-25.035 24.146-27.636 9.415-1.686 19.041 2.152 24.682 9.176z" clip-path="url(#SVGID_2_)" fill="#fff"/></g><g><path d="M73.644 21.393c4.874 6.062 7.403 14.01 5.888 22.889-.974 5.749-4.06 13.637-8.109 17.839-13.39 13.868-41.696 20.424-54.237 1.091-3.061-4.718-5.777-12.717-5.516-18.383.9-19.173 12.264-31.778 30.651-35.081 11.944-2.142 24.166 2.736 31.323 11.645z" fill="#d7598b"/></g><path d="M9.506 9.029c1.922 3.213 4.952 5.839 7.424 8.626 2.144 2.425 4.255 4.879 6.371 7.323 1.278 1.475 2.511 3.001 3.944 4.323.556.516 1.177 1.162 1.906 1.425 3.165 1.151 7.643-1.192 7.625-4.707-.016-3.304-3.375-5.606-5.117-8.071C29.023 14.222 26.21 10.636 23.447 7 21.23 4.07 18.947.282 14.76.353c-4.165.082-7.585 4.788-5.254 8.676z" fill="#fcc21b"/></g></g></svg>