<svg xmlns="http://www.w3.org/2000/svg" viewBox="0 0 128 128"><g id="图层_1"><g><g fill="#cdcbbf"><path d="M13.602 100.821c.662 2.356 19.034 15.889 20.826 16.772 4.156 2.048 12.111 6.982 16.716 7.496.907.101 1.89.179 2.667-.298.817-.502 1.192-1.495 1.341-2.443.386-2.455-.372-4.952-1.417-7.206-2.641-5.693-7.193-10.438-12.656-13.526-5.463-3.088-11.803-4.536-18.076-4.37-1.2.032-2.412.123-3.557.484-2.371.748-4.084 1.335-5.844 3.091"/><path d="M82.826 13.197s4.028.881 5.413 4.154 2.014 4.783 3.65 5.664 8.845-1.953 12.461 0c6.294 3.399 1.762 10.322 4.909 14.601 3.997 5.436 10.322 2.517 13.584 6.671 3.877 4.936-2.294 11.977-2.042 17.138.252 5.161 6.08 5.393 5.828 9.925-.252 4.531-4.406 7.966-5.161 11.742-.755 3.776 2.876 6.887 1.375 11.167s-6.603 5.016-9.875 8.666-1.704 8.051-5.22 11.347c-4.028 3.776-11.131.768-14.655 2.153s-5.861 7.779-10.393 8.785c-6.232 1.382-11.006-4.247-16.565-3.618-5.042.571-7.351 4.513-13.896 3.506-5.767-.887-5.916-8.937-10.447-11.203-4.531-2.266-10.25 1.228-14.781-3.303-4.783-4.783-2.589-9.662-4.477-14.445-1.888-4.783-9.445-3.302-10.573-11.832-1.089-8.231 7.804-9.641 7.93-15.079.126-5.438-4.909-7.83-4.909-14.501 0-6.823 9.045-5.355 11.58-10.196 2.769-5.287.37-10.724 3.776-14.853 4.154-5.035 10.447-.629 14.224-3.021 3.776-2.392 1.762-9.944 7.804-12.084s9.44 4.657 14.853 4.657c5.411.001 9.062-7.174 15.607-6.041z"/><path d="M93.094 12.551c1.833-.583 6.431 4.26 8.708 6.208 5.123 4.384 10.214 9.326 14.329 14.667.976 1.267 6.967 8.461 7.681 11.491.342 1.449.053 3.256-1.268 3.943-.53.275-1.146.326-1.743.33-4.98.039-9.513-2.678-13.729-5.33-3.92-2.466-8.014-5.157-10.049-9.317-1.519-3.106-1.703-6.672-1.859-10.126l-.487-10.774"/></g><path d="M72.321 2.692s4.028.881 5.413 4.154 2.014 4.783 3.65 5.664c1.636.881 8.845-1.953 12.461 0 6.294 3.399 1.762 10.322 4.909 14.601 3.997 5.436 10.322 2.517 13.584 6.671 3.877 4.936-3.64 12.336-3.389 17.496s7.427 5.035 7.175 9.566-5.664 7.804-6.42 11.58c-.755 3.776 4.134 7.049 2.633 11.329s-7.794 4.406-11.067 8.056c-3.273 3.65-.512 8.662-4.028 11.958-4.028 3.776-11.832-.126-15.357 1.259-3.524 1.385-5.161 8.671-9.692 9.678-4.531 1.007-11.38-6.285-16.939-5.655-5.042.571-6.977 6.55-13.523 5.543-5.767-.887-5.916-8.937-10.447-11.203-4.531-2.266-12.084 3.273-16.615-1.259-4.783-4.783-.755-11.706-2.643-16.489-1.886-4.782-9.444-3.3-10.572-11.831-1.089-8.231 7.804-9.641 7.93-15.079s-4.909-7.83-4.909-14.501c0-6.823 9.045-5.355 11.58-10.196 2.769-5.287.37-10.724 3.776-14.853 4.154-5.035 10.447-.629 14.224-3.021 3.776-2.392 1.762-9.944 7.804-12.084s9.44 4.657 14.853 4.657 9.064-7.174 15.609-6.041z" fill="#e4e3de"/><path d="M84.553 44.483c-7.149-4.47-14.261-6.352-22.532-4.459-7.408 1.696-14.073 5.57-16.56 13.232-1.872 5.757-3.027 15.014 3.158 18.889 2.729 1.706 6.423 2.641 9.626 2.63 3.731-.011 6.51-.792 9.637-2.763 1.91-1.21 4.161-3.654 4.458-5.922.264-2.015-.583-3.742-1.943-5.107-1.397-1.408-2.867-1.948-4.865-1.65-2.382.352-2.668 3.104-5.168 3.479-1.882.274-4.352-.814-5.167-2.598-2.025-4.414 3.093-8.157 6.517-9.621 2.9-1.255 5.431-1.332 8.509-.892 9.867 1.388 13.313 12.031 9.481 20.595-2.851 6.373-8.694 11.503-15.453 13.396-9.907 2.785-22.13-.132-27.072-9.851-1.085-2.137-1.977-5.086-2.186-7.463-.512-5.812-.177-11.559 2.593-16.721 5.206-9.719 15.878-17.479 27.012-18.547 4.519-.44 9.022-.012 13.489.66 2.768.407 5.734 1.453 8.541.936.958-2.003-.858-3.974-2.96-5.404-1.359-.925-2.835-1.629-3.749-1.971-3.291-1.222-6.912-1.496-10.385-1.661-7.039-.353-14.965 1.034-21.459 3.72-5.371 2.224-10.153 5.702-14.04 10.017-6.868 7.649-11.078 17.567-10.748 27.925.177 5.548 1.558 12.142 4.31 17.007 1.32 2.333 3.279 4.314 5.302 6.054 3.695 3.192 8.303 5.35 12.998 6.604 5.635 1.508 13.627.969 19.306-.132 18.24-3.534 33.159-24.976 24.816-43.104-1.261-2.743-2.885-5.671-5.466-7.278z" fill="#d7598b"/></g></g></svg>