<svg xmlns="http://www.w3.org/2000/svg" viewBox="0 0 128 128"><g id="图层_1"><g><path d="M73.612 125.429c-6.348 1.913-12.876 1.913-19.224 0-3.325-1.003-6.31-5.083-6.738-8.265l-2.995-23.707c-.432-3.197 2.582-4.437 6.918-3.515a58.997 58.997 0 0 0 24.855 0c4.336-.921 7.35.319 6.918 3.515l-2.995 23.707c-.429 3.182-3.414 7.262-6.739 8.265z" fill="#e9b877"/><path d="M83.419 93.88a78.902 78.902 0 0 1-38.838 0c-3.406-.86-6.136-4.644-6.136-8.078v-8.406c0-3.442 2.73-5.285 6.136-4.425a78.902 78.902 0 0 0 38.838 0c3.406-.86 6.136.983 6.136 4.425v8.406c0 3.434-2.73 7.218-6.136 8.078z" fill="#e9b877"/><g><path d="M44.712 93.911l.581 4.603c12.29 3 25.122 3 37.413 0l.581-4.603a78.893 78.893 0 0 1-38.575 0z" fill="#d3a166"/></g><g><g><path d="M88.328 41.369c.842-1.227 1.49-2.575 1.847-4.022 1.376-5.581-2.115-11.968-7.535-13.497.879-2.046 1.198-4.288.792-7.103-.805-5.605-5.208-13.548-11.138-15.163-1.588-.428-3.272-.615-4.887-.263-2.16.482-1.801 1.543-1.502 3.27.727 4.179-1.835 7.784-5.443 9.631-3.021 1.547-6.449 2.119-9.719 2.909-6.474 1.565-13.48 7.292-14.13 14.305a9.877 9.877 0 0 0 .348 3.672c.272.918.945 1.761.974 2.746.032.857-1.107 1.452-1.632 1.963-2.359 2.319-3.765 6.111-3.887 9.361-.059 1.618.211 3.217.705 4.749.443 1.369 1.387 2.874.748 4.342-1.668 3.844-2.563 8.409-1.099 12.449 1.663 4.594 6.194 7.31 10.429 9.252 4.18 1.918 8.944 2.193 13.486 2.266 6.479.104 12.901.338 19.365-.336 9.778-1.018 21.62-5.752 19.699-18.003-.156-1.009-.67-2.388-1.096-3.33-.183-.387-.668-.785-.732-1.2-.067-.437.23-.963.342-1.361.578-2.077 1.456-3.943 1.33-6.126-.173-2.913-1.484-5.703-3.568-7.736-.278-.27-3.551-2.993-3.697-2.775z" fill="#e4e3de"/></g><path d="M83.435 21.162c-.429 2.314-.888 2.685-1.138 2.855-1.747 1.194-7.004 3.158-9.064 3.641-1.328.311-2.902.786-4.254.968-1.255.169-2.782.237-3.48-.03s-.055-1.167.817-1.443c2.234-.516 5.998-2.09 7.864-3.423 3.422-2.444 5.356-3.847 7.539-7.481.265-.442.696-1.007 1.152-.766.18.095.33.28.38.477.491 1.942.472 3.735.184 5.202z" fill="#cdcbbf"/><path d="M88.328 41.369c-.491.647-3.721 1.707-4.69 1.938-1.936.461-5.263 1.222-11.329 1.52-3.753.185-6.997.534-8.781.219-.732-.129-1.221-.827-.36-1.218 2.8-1.273 8.189-1.823 11.707-2.549 2.858-.59 8.89-1.468 11.771-4.354.627-.628 2.386-2.336 3.031-2.469.571-.117.869.569.756 1.34-.336 2.298-.595 3.224-2.105 5.573z" fill="#cdcbbf"/><path d="M94.124 58.403c-1.199 3.345-10.664 5.449-27.232 5.98-2.594.083-10.846-.162-10.42-1.793.215-.802 1.774-1.042 2.783-1.141 3.793-.372 11.394-.533 18.814-1.956 3.026-.58 7.712-1.934 11.567-3.211 2.77-.918 5.108-4 5.671-3.687.735.463-.472 3.568-1.183 5.808z" fill="#cdcbbf"/><path d="M95.849 66.576c-1.183-.792-2.865 2.484-4.186 3.545-5.927 4.762-11.977 6.215-19.442 7.838-5.276 1.147-13.734 1.968-19.727 1.491-3.824-.304-3.347 2.506 2.278 2.739 6.668.277 23.757.816 30.807-2.543 3.394-1.617 6.646-3.487 8.637-6.601 1.218-1.905 2.077-5.885 1.633-6.469z" fill="#cdcbbf"/></g></g></g></svg>