<svg xmlns="http://www.w3.org/2000/svg" viewBox="0 0 128 128"><g id="图层_1"><g><g/></g><g><g><g/></g><g><g/></g></g><g><g><g><path d="M99.325 22.826c-1.256-3.805-5.132-8.297-9.447-9.232-1.759-.382-4.416-.325-6.733-.182l-1.07.057c-4.983.249-9.892 1.215-14.03 2.121-10.398 2.285-22.182 4.875-33.282 8.632-.884.3-1.792.602-2.72.897-6.045 1.979-12.892 4.206-17.8 8.582-2.862 2.553-5.128 6.117-6.556 10.304-1.96 5.763-2.251 12.146-.812 17.977 2.661 10.828 9.633 12.376 17.011 14.02.794.173 1.616.354 2.462.555a51.795 51.795 0 0 0 11.874 1.395c17.189 0 31.902-8.668 45.509-17.547 5.475-3.584 9.455-6.938 12.514-10.561 5.965-7.064 5.846-18.656 3.08-27.018z" fill="#e4e3de"/><path d="M98.676 21.26l-5.386 1.571c-18.402 5.367-30.684 11.784-46.824 22.126-4.4 2.819-9.222 8.051-10.822 13.043-1.391 4.338-1.992 8.104-3.988 12.2-1.446 2.967-4.375 4.664-7.554 5.851.729.159 1.474.323 2.245.506a51.795 51.795 0 0 0 11.874 1.395c17.189 0 31.902-8.668 45.509-17.547 5.475-3.584 9.455-6.938 12.514-10.561 5.968-7.063 5.849-18.655 3.082-27.018a12.697 12.697 0 0 0-.65-1.566z" fill="#cdcbbf"/></g><path d="M2.501 33.257c-1.579 3.618-2.29 8.024-.689 11.76 1.812 4.225 5.97 4.627 9.931 5.521 8.941 2.016 20.764 6.126 29.914 4.052 5.524-1.252 10.904-4.918 15.798-7.631 11.712-6.505 23.268-13.343 35.405-19.054 2.871-1.352 10.646-3.233 10.622-7.281-.01-1.439-.004-2.877 0-4.315.005-2.963-.512-6.795-3.307-8.454-1.625-.965-3.637-1.528-5.429-2.098-2.848-.908-5.739-1.905-8.625-2.694C77.73.758 68.707-.351 60.092 1.184c-16.018 2.862-30.23 9.811-43.384 19.21-3.792 2.708-7.727 5.294-11.03 8.606-1.6 1.604-2.58 2.891-3.177 4.257z" fill="#fac11d"/><path d="M99.474 7.083c2.833 3.708-13.829 10.315-18.025 12.552-6.931 3.694-13.875 7.784-21.1 10.864-5.625 2.398-9.288 4.426-14.667 7.333-.866.468-3.899 3.024-4.675 5.527-1.083 3.493-1.523 8.827-1.284 12.476" fill="none"/><path d="M100.175 7.853c-.587-.348-1.231-.633-1.89-.895 1.303 4.254-12.304 8.97-16.603 10.875-9.318 4.128-27.85 11.257-34.894 18.519-1.851 1.909-5.789 7.395-6.564 9.897-.996 3.212-3.023 7.554-8.136 8.681 3.344.347 6.598.332 9.569-.342 5.525-1.252 10.904-4.918 15.798-7.631 11.712-6.505 23.268-13.343 35.405-19.054 2.871-1.352 10.646-3.233 10.622-7.281-.01-1.439-.004-2.877 0-4.315.005-2.962-.512-6.794-3.307-8.454z" fill="#e4a724"/><path d="M29.666 17.034c6.95.841 13.211 1.892 21.581 4.224 8.826 2.456 12.004 5.429 13.098 14.45 1.123 9.204 2.896 23.153-1.141 31.951A26.593 26.593 0 0 1 59.056 74c1.215.324 10.678-3.021 14.847-6.136 6.925-5.174 8.182-11.641 8.263-19.765.076-7.568-.622-20.351-3.063-26.994-2.062-5.619-7.622-7.675-12.937-9.318-3.822-1.181-12.247-3.47-19.1-4.138-4.727-.469-8.793.372-9.739.687-2.418.812-7.058 3.412-10.696 5.581-2.641 1.577-4.853 3.011-4.853 3.011s3.651-.41 7.888.106z" fill="#2f2f2f"/></g><g><g><path d="M125.261 72.4c-1.256-3.805-5.132-8.297-9.447-9.232-1.759-.382-4.416-.325-6.733-.182l-1.07.057c-4.983.249-9.892 1.215-14.03 2.121-10.398 2.285-22.182 4.875-33.282 8.632-.884.3-1.792.602-2.72.897-6.045 1.979-12.892 4.206-17.8 8.582-2.862 2.553-5.128 6.117-6.556 10.304-1.96 5.763-2.251 12.146-.812 17.977 2.661 10.828 9.633 12.376 17.011 14.02.794.173 1.616.354 2.462.555a51.795 51.795 0 0 0 11.874 1.395c17.189 0 31.902-8.668 45.509-17.547 5.475-3.584 9.455-6.938 12.514-10.561 5.966-7.064 5.846-18.656 3.08-27.018z" fill="#e4e3de"/><path d="M124.612 70.834l-5.386 1.571c-18.402 5.367-37.328 11-52.28 22.996-3.587 2.878-7.069 6.38-8.035 10.877-.957 4.454.677 9.4-1.32 13.495-1.446 2.967-4.375 4.664-7.554 5.851.729.159 1.474.323 2.245.506a51.795 51.795 0 0 0 11.874 1.395c17.189 0 31.902-8.668 45.509-17.547 5.475-3.584 9.455-6.938 12.514-10.561 5.968-7.063 5.849-18.655 3.082-27.018a12.372 12.372 0 0 0-.649-1.565z" fill="#cdcbbf"/></g><path d="M28.353 86.338c-1.606 4.769.263 9.796 5.748 9.484 6.317-.362 13.123-.171 19.345 1.128 4.172.866 8.228 2.323 12.386 3.155 2.284.464 5.127.935 7.507.42 1.974-.431 3.708-1.921 5.491-2.819 7.385-3.736 14.273-8.157 21.737-11.717 4.64-2.208 9.209-4.55 13.805-6.848 3.757-1.878 9.836-3.397 11.675-7.737 4.177-9.828-9.322-17.399-16.968-19.263-8.512-2.068-18.839-2.776-27.378-.679-6.283 1.545-12.523 3.389-18.508 5.894-5.854 2.445-10.613 5.886-15.864 9.241-5.455 3.488-11.201 7.961-15.339 12.987-1.483 1.799-2.767 4.187-3.637 6.754z" fill="#ec6c30"/><path d="M120.305 57.432c.911 1.563.371 4.456-.72 5.859-1.88 2.416-8.375 5.234-10.657 6.416-5.882 3.048-20.24 8.361-24.485 11.127-4.778 3.114-11.645 7.945-15.859 11.79-3.412 3.113-6.835 4.841-11.037 5.335 2.759.753 5.499 1.588 8.284 2.146 2.284.464 5.127.936 7.507.42 1.974-.431 3.708-1.921 5.491-2.819 7.385-3.736 14.273-8.157 21.737-11.717 4.64-2.208 9.209-4.55 13.805-6.848 3.757-1.878 9.836-3.398 11.675-7.737 2.383-5.606-.988-10.475-5.741-13.972z" fill="#d65b29"/><path d="M97.575 53.147c4.422 1.8 7.827 5.909 8.776 10.588.047.233.089.475.036.707-.074.324-.326.584-.614.75-1.033.595-2.403.069-3.204-.814-.801-.883-1.204-2.044-1.733-3.112a13.662 13.662 0 0 0-3.143-4.125c-.588-.524-1.25-1.039-1.502-1.785-.253-.747.104-2.398 1.384-2.209z" fill="#f4865c"/><path d="M79.597 55.099a43.772 43.772 0 0 1 7.744 10.64c.88 1.698 1.588 3.962 1.255 5.846-.334 1.883-1.354 2.865-3.18 2.296-1.257-.352-1.927-4.352-2.932-7.445-.583-1.795-2.246-4.906-3.376-6.418-1.128-1.51-2.671-3.074-2.651-4.959-.083-.696 1.18-1.38 3.14.04z" fill="#f4865c"/><path d="M64.494 59.881c1.045.534 1.709 1.476 2.409 2.42.413.558.749 1.168 1.082 1.777 2.556 4.659 5.196 9.739 4.466 15.002-.1.724-.276 1.464-.717 2.047-.441.583-1.205.972-1.912.788-.948-.332-1.466-3.756-2.198-5.635-.29-.743-.58-1.485-.834-2.241-1.156-3.435-1.585-7.146-3.314-10.332-.444-.819-.989-1.666-.915-2.595.073-.927 1.184-1.785 1.933-1.231z" fill="#f4865c"/><path d="M48.011 70.451c.103-1.703 2.29-1.172 2.744.094.7 1.956.995 3.753 2.12 5.5 2.042 3.172 2.571 5.084 2.502 8.536-.012.59-.028 1.2-.276 1.736-.601 1.299-2.654 1.575-3.577.481-.839-.994-.613-2.462-.775-3.753-.192-1.535-.982-2.919-1.559-4.355-1.144-2.845-1.725-5.223-1.179-8.239z" fill="#f4865c"/></g></g></g></svg>