<svg id="レイヤー_1" xmlns="http://www.w3.org/2000/svg" xmlns:xlink="http://www.w3.org/1999/xlink" viewBox="0 0 128 128"><g><g><g><defs><path id="SVGID_1_" d="M120.164 30.573c-3.861-2.951-2.766-8.912-6.543-11.822-2.623-2.028-6.561-1.832-8.857-4.307-2.955-3.199-2.346-9.121-6.748-11.077-4.902-2.176-9.594 3.209-11.533 7.209-1.277 2.618-2.127 5.47-2.988 8.254-.852 2.764-1.553 5.578-2.021 8.433-.293 1.78 0 6.05-1.785 7.147-1.713 1.054-4.588-.389-6.334-.647-4.537-.67-9.291-.41-13.797.377-5.719.998-11.914 4.22-16.021 8.453-2.926 3.014-5.447 6.46-7.127 10.375-2.703 6.294-3.787 13.387-2.654 20.169.152.923.838 2.296.072 3.039-1.258 1.223-4.301.209-5.809.067a86.578 86.578 0 0 0-7.074-.403c-4.535-.046-9.23.327-13.506 2.005-2.689 1.058-6.34 4.094-6.76 7.327-1.053 8.145 9.898 8.125 9.363 15.618-.438 6.137 5.275 8.398 10.051 9.049 5.357.737 5.166 12.326 11.422 14.891 5.053 2.081 9.369-4.416 11.73-8.001 2.191-3.358 4.092-6.94 5.545-10.706.762-1.971 1.4-3.996 1.842-6.068.213-.98.391-1.982.48-2.985.074-.867-.035-1.672.895-2.091.793-.363 2.117.3 2.916.529a35.8 35.8 0 0 0 3.08.737c12.563 2.448 28.789-1.959 35.389-13.752 3.814-6.817 5.301-13.961 4.131-21.714-.316-2.072-.723-4.194-1.396-6.178-.732-2.169 1.461-2.112 2.992-2.22a53.4 53.4 0 0 0 5.225-.635c3.264-.56 6.49-1.38 9.656-2.381 4.582-1.457 10.391-3.229 12.76-7.898 2.609-5.144-3.451-8.395-6.596-10.794z"/></defs><use xlink:href="#SVGID_1_" overflow="visible" fill="#ed6c30"/><clipPath id="SVGID_2_"><use xlink:href="#SVGID_1_" overflow="visible"/></clipPath><g clip-path="url(#SVGID_2_)" fill="#fcc21b"><path d="M73.248 46.667c.395.184.775.373 1.141.582.275.157.621.526.975.276.576-.408.24-1.347.121-1.881-.156-.684-.348-1.384-.434-2.085-.195-1.708-2.158-4.477.252-5.309.621-.213 1.246-.457 1.875-.646.527-.161 1.076-.32 1.562-.55.166-.08.512-.197.588-.372.199-.47-.26-.663-.588-.834-.24-.122-.486-.208-.719-.351-1.811-1.145-3.896-1.89-5.91-2.643-1.852-.692-3.746-1.26-5.699-1.558-1.488-.228-3.238-.193-4.74.016-1.924.27-3.264 1.611-5.014 2.31-1.033.414-2.127.678-3.152 1.125-.379.169-1.004.36-1.305.667-.215.221-.096.571.139.726.221.142.592.111.854.185 1.045.291 2.131.372 3.182.674 1.684.486 1.574 1.035 1.279 2.693-.139.788-.203 1.587-.359 2.372-.297 1.521-.799 2.925-.9 4.486-.012.21.047.338.26.394.52.132 1.035-.165 1.471-.406.404-.221.814-.414 1.217-.639.527-.292 1.08-.536 1.641-.767.961-.394 1.875-.879 2.824-1.284.828-.357 1.912-.829 2.834-.725.404.044.916.284 1.301.457.27.12.484.321.715.487.273.188.574.358.861.536.598.379 1.201.749 1.82 1.108.609.356 1.265.65 1.908.956z"/><path d="M71.689 84.723c-.154-1.114-.195-2.036.215-2.24.574-.293 1.986.32 2.521.519 1.713.627 3.312 1.658 5.106 2.009 1.26.244 2.582-.392 3.703-.873 1.227-.531 2.443-1.026 3.775-1.246.551-.091.916-.098 1.029.548.082.466-.047.96-.137 1.416-.09.439-.26.869-.334 1.316-.072.501-.146.982-.301 1.476-.07.243-.08.475-.162.717-.09.279-.203.54-.26.83-.088.446-.258.871-.373 1.311-.211.805-.568 1.611-1.08 2.27-.5.647-.852 1.323-1.51 1.843a8.422 8.422 0 0 1-1.998 1.161c-.705.29-1.477.393-2.17.702-.508.225-.906.47-1.49.505-2.025.127-4.035-.244-5.982-.773a71.69 71.69 0 0 1-2.875-.871c-.609-.19-2.018-.33-2.459-.787-.869-.891 1.17-1.699 1.705-2.081.383-.274.805-.542 1.17-.85.523-.437 1.123-.774 1.639-1.23.74-.649.812-1.575.73-2.503-.089-1.064-.315-2.111-.462-3.169z"/><path d="M86.277 62.571c-.205-.38-.932-1.108-.738-1.564.229-.54 1.008-.46 1.471-.431.682.042 1.363.173 2.037.302 1.273.242 2.666.57 3.938.172 1.498-.47 2.297-2.849 3.615-3.772.73-.509 3.557 6.958 3.658 7.686.168 1.289.088 2.842-.057 4.096-.164 1.352-.99 2.314-1.471 3.546-.227.57-.396 1.155-.629 1.729-.191.479-.365.984-.588 1.449-.139.293-.26.588-.406.876-.061.124-.146.453-.254.538-.443.35-.934-1.121-1.109-1.367-.463-.658-.703-1.385-1.076-2.083-.102-.188-.166-.436-.352-.563-.48-.325-1.561.001-2.113.077-1.217.168-2.428.404-3.645.599-.893.144-1.793.282-2.693.368-.269.024-.537.008-.691-.258-.162-.278.016-.625.129-.894.27-.635.504-1.282.793-1.909.223-.489.451-.979.686-1.463.195-.408.463-.777.648-1.2.115-.255.229-.513.324-.779.115-.309.375-.658.344-.986-.059-.601-.383-1.314-.668-1.883-.381-.763-.729-1.519-1.153-2.286z"/><path d="M60.154 60.239c.186-.77.102-1.617.203-2.391.193-1.442.465-2.87.77-4.294.105-.493.316-1.256.992-.893.568.307 1.088.916 1.494 1.409.672.817 1.615 1.487 2.326 2.317.883 1.033 1.787 1.947 3.246 1.602.701-.163 1.4-.329 2.102-.485.516-.114 1.031-.228 1.547-.329.463-.09.959-.25 1.43-.244.268.004.633-.177.859-.002.771.603-.291 2.388-.605 2.976-.596 1.126-.881 2.34-1.172 3.568-.109.479-.297.751-.016 1.228.244.423.645.731.916 1.133.338.491.756.901 1.121 1.362.316.397.633.802.926 1.232.43.636 1.209 1.192 1.412 1.946 0 .522.088.78-.527.936-.949.239-2.062.049-3.027 0-1.951-.099-3.824-.238-5.73-.674-.404-.092-.758-.122-1.102.142-1.189.912-2.041 2.167-2.91 3.369-.52.713-1.494 2.554-2.484 2.599-.406.017-.779-.575-.908-.909-1.023-2.643.266-6.594-2.25-8.504-1.25-.947-2.76-1.37-4.117-2.122-.578-.323-1.078-.577-.363-1.101.414-.303.949-.55 1.404-.779.645-.333 1.324-.611 1.949-.968.438-.251.9-.471 1.33-.741.316-.201.754-.38.941-.727.112-.212.187-.431.243-.656z"/><path d="M43.289 86.72c-.233-.538-.225-1.078.252-1.875.408-.684 1.266-.995 1.865-1.478.389-.308.801-.556 1.201-.841.574-.409 1.125-.876 1.678-1.306.207-.16.438-.311.65-.458.17-.12.438-.248.648-.193.352.089.514.579.697.86.262.396.439.82.715 1.22.309.447.596.905.779 1.415.18.495.463.948.684 1.429.512 1.119.764 1.49 1.932 1.93a174.99 174.99 0 0 0 4.676 1.688c.414.142.979.242.9.844-.061.438-.723.569-1.062.751-.914.504-1.84.881-2.705 1.471-.98.67-2.24 1.151-3.367 1.517-.99.322-2.07-.22-2.996-.618-1.258-.542-2.533-1.443-3.5-2.434-.779-.795-1.598-1.645-2.207-2.571-.35-.527-.668-.939-.84-1.351z"/><path d="M32.076 53.48c1.312-1.75 3.764-3.03 5.676-4.082.816-.449 1.508-1.08 2.221-1.666.551-.446 1.688-1.725 2.221-.729.344.654-.025 1.915-.127 2.592-.244 1.725-.545 3.471-.082 5.192.117.422.394.641.715.909.391.327.797.662 1.229.926.273.164.59.233.865.371.254.126.457.337.699.458.52.262 1.115.498 1.494.96.316.395.342 1.132-.129 1.424-.262.157-.508.179-.779.274-.635.221-1.324.386-1.967.635-.746.292-1.518.522-2.254.846-.717.314-1.723.451-2.053 1.261-.377.927-.789 1.916-1.018 2.892-.147.607-.406 1.167-.551 1.771-.082.325-.154.663-.275.975-.162.426-.174.791-.584 1.043-.961.588-2.621-3.26-2.961-3.89-.311-.584-.391-1.418-.764-1.979-.67-.99-1.691-1.467-2.293-2.59-.658-1.209-.947-2.429-.82-3.805.129-1.324.686-2.657 1.537-3.788z"/></g></g><path d="M30.127 92.348c-1.188-.171-2.49-1.396-2.637-2.638-.191-1.47.855-2.866 1.996-3.694 2.092-1.518 5.254-1.941 7.777-1.875.947.024 1.598.159 2.018.377 3.52 1.83-6.619 8.195-9.154 7.83z" fill="#855c52"/><path d="M42.27 98.217c-1.648 1.875-3.393 1.705-4.389.609-1.016-1.121-1.25-3.206.211-5.074.775-.998 3.467-4.66 4.787-4.464 3.844.568.697 7.419-.609 8.929z" fill="#855c52"/><path d="M87.893 40.936c-4.049 2.184-1.996-7.493-1.602-8.67 1.326-3.913 4.209-4.181 5.85-2.594 1.205 1.164 1.721 3.337.412 5.785-1.088 2.061-2.541 4.334-4.66 5.479z" fill="#855c52"/><path d="M101.508 44.102c-1.351 1.225-3.354 1.38-5.033 1.826-.877.231-1.826.26-2.729.244-2.678-.066-3.299-.926-2.818-2.038.902-2.104 5.746-5.107 8.008-5.31 1.039-.089 2.354.033 2.904 1.046.738 1.39.883 3.111-.332 4.232z" fill="#855c52"/></g><path d="M50.285 49.334c-1.756-.605-4.354.988-5.727 2.826-1.709 2.281-2.549 5.274-2.66 8.089-.1 2.415.447 6.981 3.432 7.646 1.461.323 2.258-.734 2.895-1.885 1.164-2.084.924-4.753 1.574-7.008.666-2.315 4.547-8.304.486-9.668z" fill="#fff"/></g></svg>