<svg id="レイヤー_1" xmlns="http://www.w3.org/2000/svg" viewBox="0 0 128 128"><g><g><g><path d="M4.06 75.191c.037.631.146 1.236.344 1.82.826 2.398 2.883 4.946 4.384 7.004 5.475 7.484 12.624 13.309 20.24 18.489 18.051 12.27 37.192 18.253 59.16 18.198 6.621-.021 13.161-1.228 19.735-1.89 2.875-.283 5.752-.971 8.514-1.829 2.028-.633 3.889-1.455 6.017-1.728 1.581-.199 3.087-.604 4.045-2.077 3.044-4.653-1.478-5.966-3.69-8.909-1.736-2.323-2.733-5.116-3.653-7.835-1.037-3.066-2.062-6.097-2.926-9.23-.745-2.708-2.747-4.369-4.073-6.709-2.005-3.53-1.986-7.854-3.802-11.535-1.879-3.794-3.715-7.588-5.805-11.279-4.207-7.398-9.142-14.486-15.301-20.405-2.793-2.681-5.328-5.643-8.141-8.286-.995-.925-1.825-1.99-2.805-2.944-1.301-1.265-2.914-2.134-4.175-3.455-2.199-2.303-3.894-3.983-7.083-4.181-3.497-.228-6.729-.681-10.26-.208-8.079 1.066-15.875 7.137-21.911 12.146-3.486 2.898-7.178 5.985-10.231 9.316-2.298 2.511-5.116 4.897-6.861 7.853-1.355 2.283-3.011 4.418-4.183 6.777-.966 1.962-1.947 3.915-2.906 5.897-1.363 2.822-2.855 5.494-3.586 8.543-.468 1.925-1.175 4.277-1.047 6.457z" fill="#d7598b"/></g><path d="M75.46 29.471c-.873-1.878-2.044-3.407-3.072-4.756-.481-.633-.936-1.227-1.278-1.757-2.104-3.235-5.531-5.521-10.478-6.965-1.903-.556-3.639-.605-5.252-.605h-.449c-.537 0-1.057-.009-1.462-.046-2.312-.255-4.502-.266-6.621-.266l-.807-.009h-.201c-5.722 0-12.173 1.623-19.162 4.824-7.234 3.331-12.647 7.428-16.55 12.542-2.68 3.513-4.285 6.711-5.05 10.091-.265 1.179-.863 2.406-1.552 3.814-.554 1.133-1.181 2.415-1.715 3.849C.354 54.133.439 58.031.514 61.466l.028 1.303c.08 5.153 1.799 10.524 4.597 14.393 2.134 2.946 5.031 5.324 8.858 7.277 2.793 1.407 5.699 2.398 8.184 3.19a27.415 27.415 0 0 0 8.396 1.285c5.2 0 9.972-1.341 14.591-2.644 15.371-4.313 27.187-16.696 30.104-31.543.197-1.011.387-2.039.576-3.067.376-2.028.73-3.955 1.185-5.824.485-1.991.712-3.964.702-6.172a24.223 24.223 0 0 0-2.275-10.193z" fill="#fcc21b"/></g><path d="M54.945 94.077c-1.709.122-4.28.188-5.402 1.575-2.535 3.144 5.417 3.644 6.931 3.851 2.029.292 2.586 1.474 3.678 3.152.98 1.511 2.794 2.36 4.54 1.303 2.02-1.226 1.519-3.643.415-5.114-.836-1.114-1.992-2.681-3.148-3.455-1.731-1.161-4.775-1.473-6.813-1.322-.068.01-.129.01-.201.01z" fill="#855c52"/><path d="M81.383 70.48c.019.256.036.473.052.644.15 1.679.882 3.887 2.124 5.134 1.463 1.462 7.715 3.427 8.63.754 1.181-3.435-4.044-4.812-5.209-7.323-.684-1.474-1.021-5.059-2.982-5.475-2.927-.613-2.785 4.088-2.615 6.266z" fill="#855c52"/><path d="M91.34 101.91c1.345-1.595.142-4.842-1.086-6.275-1.303-1.528-3.421-2.586-5.355-3.022-2.115-.472-6.216 1.785-5.349 4.428.766 2.303 4.263 1.841 6.057 2.558 1.868.736 3.565 4.888 5.733 2.311z" fill="#855c52"/><path d="M112.085 105.96c.453.595.604 1.245-.15 1.878-.736.613-3.101-.283-3.903-.549-3.11-1.028-4.35-4.454-4.733-7.445-.386-3.076 3.383-4.143 4.729-1.349.838 1.754.834 4.123 2.216 5.709.36.416 1.308 1.048 1.841 1.756z" fill="#855c52"/></g></svg>