<svg id="レイヤー_1" xmlns="http://www.w3.org/2000/svg" xmlns:xlink="http://www.w3.org/1999/xlink" viewBox="0 0 128 128"><g><g><g><g><g><g><path d="M48.723 30.912c.641 3.082-.669 5.758-2.294 7.859-.669.857-1.062 2.314-.188 3.141 1.029.992 2.951-.023 3.974-.746 2.133-1.52 3.719-4.297 4.32-7.336.637-3.211-.126-6.266-1.243-9.123-1.043-2.641-2.786-5.318-2.746-8.428.032-3.178 1.259-5.996 2.542-8.609.164-.346.267-.762.221-1.18-.118-1.023-.827-1.164-1.464-.945-.269.096-.56.228-.843.395-1.604.92-2.982 2.502-4.076 4.258-1.559 2.477-2.488 5.871-2.394 9.074.068 2.266.763 4.318 1.677 6.211.85 1.751 2.085 3.38 2.514 5.429z" fill="#fff"/><path d="M47.35 47.359c-1.743 0-3.369-.639-4.588-1.805-2.614-2.484-2.747-6.734-.315-9.867 1.503-1.943 1.484-3.068 1.341-3.746-.131-.652-.589-1.465-1.112-2.4a30.664 30.664 0 0 1-.999-1.865c-1.386-2.871-2.103-5.572-2.178-8.262-.121-4.166 1.027-8.502 3.156-11.895 1.686-2.682 3.648-4.689 5.828-5.947a9.924 9.924 0 0 1 1.724-.787 6.457 6.457 0 0 1 2.132-.361c3.146 0 5.604 2.258 5.974 5.492.157 1.322-.087 2.684-.693 3.943-1.023 2.094-2.016 4.295-2.039 6.475-.017 1.182.662 2.652 1.382 4.211.356.781.712 1.553 1.012 2.314 1.102 2.811 2.463 7.098 1.503 11.947-.875 4.399-3.184 8.217-6.348 10.459-1.342.96-3.435 2.094-5.78 2.094z" fill="#78a3ad"/></g><g><path d="M62.428 30.912c.664 3.082-.677 5.758-2.337 7.859-.677.857-1.078 2.314-.189 3.141 1.055.992 3.006-.023 4.046-.746 2.181-1.52 3.793-4.297 4.399-7.336.653-3.211-.126-6.266-1.268-9.123-1.062-2.641-2.833-5.318-2.798-8.428.043-3.178 1.295-5.996 2.588-8.609.171-.346.281-.762.23-1.18-.112-1.023-.839-1.164-1.492-.945a5.216 5.216 0 0 0-.857.395c-1.629.92-3.029 2.502-4.156 4.258-1.581 2.477-2.518 5.871-2.432 9.074.067 2.266.779 4.318 1.709 6.211.865 1.751 2.124 3.38 2.557 5.429z" fill="#fff"/><path d="M61.035 47.359c-1.735 0-3.36-.631-4.581-1.772-2.675-2.496-2.809-6.768-.313-9.941 1.688-2.146 1.456-3.264 1.36-3.689-.137-.647-.598-1.449-1.133-2.387a37.6 37.6 0 0 1-1.015-1.863c-1.417-2.871-2.141-5.578-2.224-8.285-.121-4.197 1.051-8.549 3.224-11.939 1.715-2.686 3.706-4.676 5.913-5.928a9.885 9.885 0 0 1 1.743-.787 6.647 6.647 0 0 1 2.103-.344c3.155 0 5.615 2.258 5.988 5.484a7.11 7.11 0 0 1-.717 4.004c-1.031 2.072-2.036 4.273-2.065 6.422-.012 1.158.673 2.621 1.4 4.18a42.47 42.47 0 0 1 1.035 2.322c1.125 2.809 2.514 7.115 1.534 11.984-.893 4.416-3.242 8.225-6.457 10.477-1.344.935-3.449 2.062-5.795 2.062z" fill="#78a3ad"/></g><g><path d="M76.177 30.912c.638 3.082-.661 5.758-2.271 7.859-.663.857-1.056 2.314-.191 3.141 1.026.992 2.935-.023 3.942-.746 2.12-1.52 3.692-4.297 4.289-7.336.629-3.211-.118-6.266-1.236-9.123-1.03-2.641-2.762-5.318-2.727-8.428.043-3.178 1.255-5.996 2.521-8.609a2.23 2.23 0 0 0 .225-1.18c-.113-1.023-.823-1.164-1.451-.945a4.623 4.623 0 0 0-.839.395c-1.593.92-2.953 2.502-4.049 4.258-1.54 2.477-2.455 5.871-2.367 9.074.068 2.266.755 4.318 1.663 6.211.847 1.751 2.071 3.38 2.491 5.429z" fill="#fff"/><path d="M74.817 47.359c-1.748 0-3.378-.647-4.598-1.818-2.585-2.479-2.716-6.715-.308-9.846 1.492-1.943 1.477-3.076 1.338-3.77-.141-.652-.594-1.465-1.118-2.41a27.647 27.647 0 0 1-.98-1.855c-1.379-2.855-2.079-5.557-2.158-8.246-.118-4.174 1.022-8.502 3.124-11.877 1.677-2.691 3.624-4.691 5.792-5.949a8.772 8.772 0 0 1 1.724-.803 6.621 6.621 0 0 1 2.133-.361c3.148 0 5.6 2.258 5.966 5.5a7.183 7.183 0 0 1-.696 3.941c-1.005 2.078-1.988 4.289-2.015 6.479-.012 1.172.66 2.652 1.373 4.209.354.779.704 1.559 1.01 2.322 1.091 2.801 2.439 7.082 1.484 11.924-.865 4.398-3.156 8.207-6.295 10.459-1.329.959-3.42 2.101-5.776 2.101z" fill="#78a3ad"/></g></g></g></g></g><g><path d="M103.446 46.619c.004-.104.017-.197.023-.301.063-5.238-3.454-10.631-7.735-13.432-1.754-1.16-4.266-2.369-6.552-2.865-6.549-2.691-15.186-4.346-24.675-4.346-9.556 0-18.232 1.678-24.792 4.391h-.016c-10.014 2.307-15.592 9.281-15.142 16.426 0 .055-.953 41.625 2.316 52.611 1.752 5.879 4.229 14.158 14.502 19.078a6.717 6.717 0 0 0-.158 1.322c0 4.461 10.199 8.074 22.783 8.074 12.586 0 22.78-3.613 22.78-8.074 0-.348-.043-.836-.143-1.33 10.268-4.92 12.732-13.199 14.486-19.07 3.174-10.648 2.371-50.013 2.323-52.484z" fill="#b89278"/><g><defs><path id="SVGID_1_" d="M101.503 42.596c0 9.344-16.566 16.922-36.995 16.922-20.433 0-36.991-7.578-36.991-16.922 0-9.34 16.559-16.92 36.991-16.92 20.429 0 36.995 7.58 36.995 16.92z"/></defs><clipPath id="SVGID_2_"><use xlink:href="#SVGID_1_" overflow="visible"/></clipPath><path d="M92.829 56.4c0 6.881-13.173 11.129-29.421 11.129-16.247 0-29.423-4.248-29.423-11.129 0-6.877 13.176-11.127 29.423-11.127 16.248 0 29.421 4.25 29.421 11.127z" clip-path="url(#SVGID_2_)" fill="#757f3f"/></g></g><g><g fill="#fff"><path d="M48.723 30.912c.641 3.082-.669 5.758-2.294 7.859-.669.857-1.062 2.314-.188 3.141 1.029.992 2.951-.023 3.974-.746 2.133-1.52 3.719-4.297 4.32-7.336.637-3.211-.126-6.266-1.243-9.123-1.043-2.641-2.786-5.318-2.746-8.428.032-3.178 1.259-5.996 2.542-8.609.164-.346.267-.762.221-1.18-.118-1.023-.827-1.164-1.464-.945-.269.096-.56.228-.843.395-1.604.92-2.982 2.502-4.076 4.258-1.559 2.477-2.488 5.871-2.394 9.074.068 2.266.763 4.318 1.677 6.211.85 1.751 2.085 3.38 2.514 5.429z"/><path d="M62.428 30.912c.664 3.082-.677 5.758-2.337 7.859-.677.857-1.078 2.314-.189 3.141 1.055.992 3.006-.023 4.046-.746 2.181-1.52 3.793-4.297 4.399-7.336.653-3.211-.126-6.266-1.268-9.123-1.062-2.641-2.833-5.318-2.798-8.428.043-3.178 1.295-5.996 2.588-8.609.171-.346.281-.762.23-1.18-.112-1.023-.839-1.164-1.492-.945a5.216 5.216 0 0 0-.857.395c-1.629.92-3.029 2.502-4.156 4.258-1.581 2.477-2.518 5.871-2.432 9.074.067 2.266.779 4.318 1.709 6.211.865 1.751 2.124 3.38 2.557 5.429z"/><path d="M76.177 30.912c.638 3.082-.661 5.758-2.271 7.859-.663.857-1.056 2.314-.191 3.141 1.026.992 2.935-.023 3.942-.746 2.12-1.52 3.692-4.297 4.289-7.336.629-3.211-.118-6.266-1.236-9.123-1.03-2.641-2.762-5.318-2.727-8.428.043-3.178 1.255-5.996 2.521-8.609a2.23 2.23 0 0 0 .225-1.18c-.113-1.023-.823-1.164-1.451-.945a4.623 4.623 0 0 0-.839.395c-1.593.92-2.953 2.502-4.049 4.258-1.54 2.477-2.455 5.871-2.367 9.074.068 2.266.755 4.318 1.663 6.211.847 1.751 2.071 3.38 2.491 5.429z"/></g></g></g></svg>