<svg id="レイヤー_1" xmlns="http://www.w3.org/2000/svg" xmlns:xlink="http://www.w3.org/1999/xlink" viewBox="0 0 128 128"><g><g fill="#fcc21b"><path d="M122.851 77.864c-.028-1.449-.072-2.899-.058-4.348.067-6.793-.275-13.803-2.546-20.27-2.242-6.381-6.281-11.027-10.845-15.863-6.949-7.373-14.242-14.803-23.847-18.59-9.377-3.701-19.454-3.043-28.406 1.496-5.107 2.605-9.671 6.154-14.134 9.711-3.088 2.461-6.045 5.074-8.959 7.736-4.511 4.129-8.679 8.65-12.55 13.383-6.792 8.308-13.211 17.55-15.397 28.243-1.227 6.01-1.039 12.096-.94 18.191.101 6.027-.39 18.045 4.442 22.777 5.079 4.969 12.977 4.578 19.567 4.797 17.418.602 34.033-1.869 50.664-7.049 10.296-3.205 20.861-6.666 30.151-12.248a56.455 56.455 0 0 0 6.8-4.758c.416-.344.825-.697 1.231-1.051 5.213-4.547 4.96-15.879 4.827-22.157z"/><path d="M34.277 127.661h-.006c-1.711 0-3.453-.033-5.174-.092-.696-.017-1.407-.037-2.127-.057-6.492-.152-13.841-.324-19.068-5.436-5.056-4.951-5.112-15.473-5.155-22.436-.004-.734-.004-1.422-.019-2.047l-.013-1.049C2.613 90.771 2.509 84.8 3.72 78.876c2.36-11.574 9.362-21.309 15.896-29.301 4.163-5.096 8.472-9.682 12.795-13.641 2.419-2.213 5.634-5.094 9.082-7.842 4.706-3.748 9.356-7.334 14.55-9.977 5.442-2.762 11.17-4.158 17.035-4.158 4.565 0 9.062.857 13.374 2.566 9.786 3.857 16.988 10.969 24.729 19.18 4.611 4.885 8.951 9.844 11.369 16.732 2.48 7.059 2.753 14.631 2.686 21.107-.01 1.135.015 2.27.038 3.406l.02.867c.152 7.039.399 18.752-5.662 24.047-.424.371-.848.734-1.277 1.086a60.046 60.046 0 0 1-7.102 4.98c-9.386 5.627-19.869 9.119-30.685 12.486-15.655 4.876-30.8 7.247-46.291 7.247zm38.801-108.82c-5.088 0-10.077 1.221-14.821 3.629-4.789 2.438-9.048 5.719-13.722 9.443-3.332 2.658-6.472 5.471-8.827 7.627-4.15 3.795-8.295 8.213-12.31 13.125C17.241 60.2 10.654 69.319 8.504 79.854c-1.102 5.402-1.006 10.844-.911 16.611l.018 1.049c.011.639.017 1.344.02 2.098.033 5.781.092 15.443 3.691 18.973 3.844 3.77 9.905 3.91 15.765 4.045.736.02 1.462.037 2.177.057 1.665.057 3.348.09 5.008.09h.006c14.994 0 29.659-2.299 44.839-7.023 10.521-3.277 20.699-6.658 29.622-12.01a55 55 0 0 0 6.511-4.561c.391-.324.782-.658 1.172-1 4.341-3.787 4.112-14.48 3.993-20.223l-.02-.904a114.219 114.219 0 0 1-.043-3.559c.062-6.053-.175-13.098-2.408-19.445-2.104-5.984-5.919-10.334-10.316-14.994-7.33-7.777-14.121-14.504-22.968-17.994a31.324 31.324 0 0 0-11.582-2.223z"/></g><g><defs><path id="SVGID_1_" d="M122.851 77.864c-.028-1.449-.072-2.899-.058-4.348.067-6.793-.275-13.803-2.546-20.27-2.242-6.381-6.281-11.027-10.845-15.863-6.949-7.373-14.242-14.803-23.847-18.59-9.377-3.701-19.454-3.043-28.406 1.496-5.107 2.605-9.671 6.154-14.134 9.711-3.088 2.461-6.045 5.074-8.959 7.736-4.511 4.129-8.679 8.65-12.55 13.383-6.792 8.308-13.211 17.55-15.397 28.243-1.227 6.01-1.039 12.096-.94 18.191.101 6.027-.39 18.045 4.442 22.777 5.079 4.969 12.977 4.578 19.567 4.797 17.418.602 34.033-1.869 50.664-7.049 10.296-3.205 20.861-6.666 30.151-12.248a56.455 56.455 0 0 0 6.8-4.758c.416-.344.825-.697 1.231-1.051 5.213-4.547 4.96-15.879 4.827-22.157z"/></defs><use xlink:href="#SVGID_1_" overflow="visible" fill="#fcc21b"/><clipPath id="SVGID_2_"><use xlink:href="#SVGID_1_" overflow="visible"/></clipPath><g clip-path="url(#SVGID_2_)"><g><g><defs><path id="SVGID_3_" d="M24.957 96.743a36.966 36.966 0 0 0-2.579-.105c-2.362 0-4.584-.125-6.892-.371-2.176-.24-4.662-.498-6.769-1.232-1.416-.484-3.361-1.84-4.916-1.412-.228 1.355.223 2.52.267 3.816.038 1.221-.263 2.451-.281 3.662-.07 4.301-1.106 7.145 3.644 8.711 8.455 2.783 17.493 2.764 26.373 2.764 3.076-.01 6.064-.354 9.086-.926 2.609-.484 5.324-.457 7.975-.705 12.667-1.154 24.919-5.617 36.938-9.537 6.905-2.252 13.783-4.676 20.379-7.736 4.73-2.193 15.267-5.963 16.979-11.484.931-2.996.601-7.355-.129-10.33-.71 0-1.512.742-2.155 1.115-.944.545-2.009 1.059-2.995 1.604-2.214 1.221-4.703 2.07-7.03 3.137-5.061 2.328-10.413 3.807-15.634 5.676-22.551 8.068-48.109 15.023-72.261 13.353z"/></defs><use xlink:href="#SVGID_3_" overflow="visible" fill="#fff"/><clipPath id="SVGID_4_"><use xlink:href="#SVGID_3_" overflow="visible"/></clipPath><g clip-path="url(#SVGID_4_)" fill="#ed6c30"><path d="M30.729 105.376c-2.666-.812-5.127-2.311-7.321-3.988-1.959-1.488-2.604-3.244-2.909-5.494-.486-3.633.701-4.826 3.91-6.238 3.358-1.488 7.031-1.736 10.637-2.176 4.585-.553 15.204-.41 17.111 5.477 1.88 5.779-5.274 9.498-9.713 10.902-2.968.934-5.649 2.375-8.85 2.078a14.51 14.51 0 0 1-2.865-.561z"/><path d="M99.717 82.356c.037.174.079.346.132.516.271.898 1.755 1.498 2.504 1.842 1.803.82 4.097 1.412 6.093 1.412 1.781-.01 3.532-.201 5.182-.688 1.903-.572 3.677-1.535 5.209-3.1 2.522-2.576 5.102-8.805 2.732-12.189-1.675-2.385-5.089-2.309-7.637-1.805-5.303 1.052-15.705 7.137-14.215 14.012z"/><path d="M60.703 110.782c-1.064-.486-.701-1.631.005-3.643.791-2.242 2.099-4.35 3.396-6.334 2.398-3.652 4.855-4.635 8.918-5.475 5.685-1.166 15.338-1.908 19.893 2.564 6.23 6.125-5.704 7.535-9.496 8.48-2.127.523-4.325.934-6.434 1.604-.986.312-2.06.533-3.037.723-.954.182-1.87.584-2.857.537-2.956-.135-6.019 1.934-8.975 1.801-.626-.028-1.089-.114-1.413-.257z"/></g></g></g></g><path d="M3.496 72.333c.687-2.336 2.714-5.057 3.678-6.391 1.082-1.518 2.341-2.775 3.41-4.313a68.552 68.552 0 0 1 4.191-5.418c6.782-7.992 14.384-15.166 22.148-22.186 6.712-6.066 13.926-12.229 22.02-16.377 7.421-3.807 16.435-5.857 24.714-4.121 11.532 2.414 23.303 14.471 30.571 22.969 2.675 3.129 5.799 6.457 6.824 10.568.396 1.584.539 3.654-.209 5.18-3.134 6.324-11.786 8.908-17.866 11.217-8.15 3.1-16.598 5.322-25.12 7.088-13.072 2.709-26.335 4.32-39.589 5.809-10.517 1.182-23.613 4.455-33.619-.363-1.464-.705-1.607-2.098-1.153-3.662z" clip-path="url(#SVGID_2_)" fill="#fff"/></g><path d="M34.271 127.661c-1.717 0-3.442-.029-5.18-.092l-2.127-.057c-6.486-.152-13.84-.324-19.062-5.441-5.056-4.945-5.117-15.467-5.155-22.43l-.038-3.096c-.101-5.775-.2-11.742 1.008-17.67 2.363-11.574 9.36-21.309 15.894-29.301 4.168-5.096 8.477-9.682 12.796-13.641 2.417-2.213 5.638-5.094 9.086-7.842 4.702-3.748 9.356-7.334 14.55-9.977 9.672-4.912 20.555-5.484 30.409-1.598 9.783 3.863 16.988 10.975 24.724 19.186 4.612 4.891 8.952 9.844 11.374 16.732 2.48 7.063 2.747 14.631 2.686 21.107-.015 1.135.015 2.27.038 3.406l.02.863c.147 7.039.396 18.756-5.662 24.051a55.31 55.31 0 0 1-1.283 1.086 59.141 59.141 0 0 1-7.101 4.98c-9.381 5.627-19.868 9.119-30.68 12.48-15.659 4.883-30.8 7.254-46.297 7.254zm38.807-108.82c-5.088 0-10.077 1.221-14.821 3.629-4.789 2.438-9.048 5.719-13.722 9.443-3.332 2.658-6.472 5.471-8.833 7.627-4.149 3.795-8.289 8.213-12.309 13.125C17.236 60.2 10.654 69.319 8.504 79.854c-1.103 5.403-1.012 10.844-.911 16.606l.038 3.152c.033 5.777.086 15.447 3.688 18.973 3.848 3.77 9.904 3.91 15.762 4.045l2.18.061c1.679.059 3.348.086 5.012.086 14.995 0 29.665-2.299 44.845-7.023 10.517-3.277 20.699-6.658 29.617-12.01a54.673 54.673 0 0 0 6.511-4.561c.391-.324.787-.658 1.177-1 4.336-3.787 4.112-14.48 3.988-20.227l-.019-.9c-.023-1.189-.053-2.377-.039-3.559.058-6.053-.182-13.098-2.408-19.445-2.107-5.984-5.919-10.334-10.316-14.994-7.334-7.777-14.121-14.504-22.968-17.994a31.387 31.387 0 0 0-11.583-2.223z" fill="#fcc21b"/><g><g><g><g><path d="M98.113 22.933a45.355 45.355 0 0 0-2.209-6.904c-2.003-4.855-5.207-11.457-10.077-14.051-5.689-3.043-13.015-1.516-18.2 1.879-4.959 3.252-10.187 8.641-13.425 13.602-1.708 2.604-3.127 5.484-4.216 8.402-1.183 3.148-1.486 7.547-1.325 10.885.396 8.242 7.024 14.107 14.417 16.645 1.999.695 4.12 1.25 6.219 1.565 3.058.457 6.196.486 9.267.133 4.779-.533 9.792-1.83 13.588-4.922 7.749-6.324 8.221-17.686 5.961-27.234z" fill="#ed6c30"/></g><g fill="#fff"><path d="M71.028 12.308c-1.021-.793-2.985.936-3.644 1.574-1.088 1.068-2.021 2.459-2.275 3.977-.453 2.689 2.618 4.885 4.621 2.652a7.24 7.24 0 0 0 1.804-3.873c.128-.973.305-3.309-.297-4.121a.986.986 0 0 0-.209-.209z"/><path d="M73.742 29.647c-1.192-.475-2.614 1.717-3.07 2.52-.756 1.316-1.27 2.918-1.104 4.445.306 2.709 3.858 3.977 5.17 1.287a7.254 7.254 0 0 0 .678-4.225c-.144-.965-.61-3.264-1.412-3.873a1.159 1.159 0 0 0-.262-.154z"/><path d="M57.632 29.878c-1.269-.238-2.224 2.203-2.514 3.07-.472 1.441-.657 3.109-.186 4.578.839 2.594 4.578 3.129 5.322.23a7.236 7.236 0 0 0-.181-4.273c-.335-.916-1.25-3.082-2.161-3.519a.804.804 0 0 0-.28-.086z"/><path d="M82.202 17.2c1.141-.6 2.781 1.432 3.324 2.186.892 1.221 1.569 2.756 1.564 4.301-.012 2.729-3.42 4.369-5.008 1.822a7.209 7.209 0 0 1-1.116-4.121c.034-.982.258-3.318.993-4.016.081-.066.158-.123.243-.172z"/><path d="M86.762 36.458c1.274.201 1.369 2.814 1.354 3.74-.028 1.518-.4 3.146-1.33 4.379-1.651 2.174-5.356 1.44-5.104-1.547a7.26 7.26 0 0 1 1.584-3.967c.617-.764 2.192-2.49 3.2-2.613.105-.012.2 0 .296.008z"/></g></g></g></g></g></svg>