<svg xmlns="http://www.w3.org/2000/svg" xmlns:xlink="http://www.w3.org/1999/xlink" viewBox="0 0 128 128"><g id="图层_1"><path d="M75.998 7.949l-4.486 11.347c-.369.935-1.74.767-1.874-.229L68.016 6.975a.976.976 0 0 1 1.085-1.098l6.108.746a.975.975 0 0 1 .789 1.326z" fill="#ff6f00"/><path d="M87.922 19.976l-11.591 3.81c-.955.314-1.703-.847-1.023-1.587l8.257-8.983a.975.975 0 0 1 1.538.132l3.334 5.173a.975.975 0 0 1-.515 1.455z" fill="#ff6f00"/><path d="M59.915 9.677l5.522 10.88c.455.896-.579 1.811-1.414 1.251l-10.13-6.801a.975.975 0 0 1-.103-1.54l4.608-4.079a.975.975 0 0 1 1.517.289z" fill="#ff6f00"/><g><g fill="#e0e0e0"><path d="M24.04 39.295l-3.252-.166-4.142 47.741c-.804 7.999 10.495 12.223 21.387 13.318l5.919-58.891-19.912-2.002z"/><path d="M63.863 43.297l3.22.484-5.442 47.611c-.804 7.999-12.718 9.89-23.609 8.795l5.919-58.891 19.912 2.001z"/></g><path d="M44.495 35.888c-5.786-.582-11.267-.463-15.432.335-3.576.685-5.784 1.829-5.908 3.063-.124 1.233 1.813 2.795 5.181 4.177 3.923 1.61 9.271 2.817 15.057 3.399s11.266.463 15.432-.335c3.576-.685 5.784-1.83 5.908-3.063.124-1.233-1.813-2.795-5.181-4.178-3.924-1.609-9.27-2.816-15.057-3.398z" fill="#fafafa"/><g><path d="M23.602 57.68l-2.446 26.541c.026 1.506 1.101 3.063 2.693 3.996 2.845 1.668 8.542 3.602 15.001 4.251 6.167.62 11.537-.082 14.713-1.065 2.011-.622 3.731-2.105 4.105-3.493l2.959-26.509" fill="#fbcc2f"/></g><ellipse transform="rotate(5.73 42.112 59.55)" cx="42.118" cy="59.541" rx="18.609" ry="4.593" fill="#e5a315"/><g><path d="M43.277 48.007c-13.199-1.327-22.866-5.178-22.486-8.959.38-3.781 10.62-5.631 23.819-4.305 13.199 1.327 22.866 5.178 22.486 8.959-.38 3.781-10.62 5.632-23.819 4.305zm1.218-12.119c-5.786-.582-11.267-.463-15.432.335-3.576.685-5.784 1.829-5.908 3.063-.124 1.233 1.813 2.795 5.181 4.177 3.923 1.61 9.271 2.817 15.057 3.399s11.266.463 15.432-.335c3.576-.685 5.784-1.83 5.908-3.063.124-1.233-1.813-2.795-5.181-4.178-3.924-1.609-9.27-2.816-15.057-3.398z" fill="#cecfd1"/></g><g fill="#e5a315"><circle cx="47.707" cy="88.668" r=".888"/><circle cx="49.911" cy="86.436" r=".612"/><circle cx="46.11" cy="84.906" r="1.077"/><circle cx="49.943" cy="84.176" r="1.109"/><circle cx="46.883" cy="79.106" r=".888"/><circle cx="49.173" cy="79.765" r=".79"/><circle cx="53.021" cy="75.035" r=".79"/><circle cx="45.94" cy="69.594" r="1.002"/><circle cx="50.213" cy="77.318" r="1.223"/><circle cx="47.406" cy="73.262" r="1.203"/><circle cx="51.618" cy="72.217" r=".888"/></g><path d="M20.489 41.942s-1.746 1.642-7.251 2.037c-4.711.338-9.958 2.477-11.033 17.91-.938 13.462.566 16.696 8.159 19.317 6.609 2.282 6.411 4.153 6.411 4.153l3.63-2.048 1.669-16.601 1.989-21.587-3.574-3.181zm-2.361 21.124c-.562 5.586-1.283 10.088-5.358 9.679-4.342-.436-3.886-4.965-3.325-10.551.562-5.586 1.017-10.115 5.358-9.679 4.342.436 3.887 4.965 3.325 10.551z" fill="#e0e0e0"/><path d="M56.888 93.181c-.48 1.033-1.983 2.901-5.815 3.959-2.362.652-5.783 1.102-8.511.548-.584-.119-.343-.674.067-.705 2.335-.178 4.631-.569 7.383-1.37 3.583-1.043 6.071-2.656 6.419-2.853.589-.334.538.246.457.421z" fill="#fff"/><path d="M32.695 51.8c-.898-.834-1.581-1.565-2.858-2.332-.609-.366-1.612-.517-2.519-.575l-1.602 17.343c0 .186.117.682.712 1.006.495.27 3.396 1.303 5.603 1.915.583.126.966-.112 1.005-.403l1.646-15.697c-.778-.372-1.544-.845-1.987-1.257z" fill="#fff"/><path d="M13.239 46.194c-1.962.134-3.312.736-4.737 2.093-.974.928-2.368 3.029-2.485 5.08-.009.158-.013 1.021.346 1.021.558 0 .776-.662.853-.948.252-.929 1.541-3.262 2.314-3.987 1.485-1.393 3.303-1.586 4.05-1.762.443-.105 1.603-.532 1.559-.931-.072-.642-1.492-.593-1.9-.566z" fill="#fff"/><g><defs><path id="SVGID_1_" d="M29.923 23.102c-.739.446-1.441.981-2.287 1.146-1.427.28-2.847-.439-4.346-.008-4.235 1.218-6.482 4.387-5.374 8.618.372 1.418-.225 2.015-.72 3.322-1.35 3.592.762 8.506 4.79 9.358 2.408.51 4.872-.403 7.222.088 1.981.417 2.829 2.379 4.53 3.247 1.608.821 3.465 1.18 5.253 1.303 2.405.166 5.726-1.38 7.749.564 3.125 3.006.36 8.282 4.179 11.107 1.563 1.157 3.851 1.148 5.526.311 3.22-1.605 2.888-5.628 4.062-8.474.305-.76.693-1.442 1.437-1.853.745-.411 1.502-.204 2.296-.424 1.068-.295 2.095-.748 2.955-1.454 1.004-.828.517-2.605 2.069-2.75.477-.046 1.117-.247 1.509-.484 2.123-1.292 2.857-4.245 1.633-6.401-.453-.791-.829-1.038-.851-1.962-.022-.839.237-1.54.006-2.416-.562-2.162-2.331-3.667-4.396-4.448a15.237 15.237 0 0 0-1.192-.391c-.671-.193-1.234-.276-1.709-.831-.246-.282-.415-.68-.574-1.012-.453-.909-1.103-1.661-1.839-2.352-2.179-2.059-5.279-2.794-8.236-2.686-.803.026-1.529.227-2.307.425-1.952.495-2.562-.821-3.989-1.769-1.778-1.177-4.023-1.429-6.11-1.335-1.226.056-2.191.678-3.324 1.023-1.31.405-1.98-.052-3.227-.268-1.113-.19-2.334-.029-3.426.224-.465.109-.894.332-1.309.582z"/></defs><use xlink:href="#SVGID_1_" overflow="visible" fill="#e9e2cf"/><clipPath id="SVGID_2_"><use xlink:href="#SVGID_1_" overflow="visible"/></clipPath><path d="M72.703 36.403c-.578 1.732-2.11 3.111-3.893 3.504-1.783.393-3.753-.215-5.005-1.544-.7.775-2.282-.206-2.799.075-.517.281-1.782 3.284-3.553 3.262-1.193 1.179-3.043 1.644-4.652 1.172-1.609-.473-2.528-3.569-3.279-3.501-.751.067-1.267 1.084-2.078 1.063-.404-.01-.816-.12-1.207-.015-.801.216-1.132 1.202-1.854 1.612-.692.393-1.565.172-2.34.35-.499.114-.942.39-1.402.612a7.061 7.061 0 0 1-5.903.068 7.057 7.057 0 0 1-3.829-4.493c-1.241 1.162-4.215 1.793-5.07 1.453-.855-.34-1.891 1.347-3.079 1.462-1.262.123-2.559.242-3.781-.099s-2.369-1.254-2.608-2.499a16.029 16.029 0 0 1-2.646 4.357l12.746 7.543c.58.343 1.172.697 1.599 1.219.989 1.209.878 3.04 1.833 4.276 1.016 1.315 2.877 1.547 4.535 1.673l4.776.365c.741.057 1.517.125 2.141.527 1.726 1.113 1.258 3.909 2.633 5.435 1.055 1.171 2.839 1.236 4.415 1.211 4.434-.072 8.868-.188 13.3-.347.414-.015.838-.032 1.22-.19.526-.216.911-.667 1.283-1.097a47.035 47.035 0 0 1 10.342-8.897c.976-.618 2.006-1.229 2.664-2.179.59-.852.822-1.895 1.041-2.908l.705-3.254c.098-.454.197-.923.11-1.379-.12-.634-.575-1.144-.983-1.644a16.326 16.326 0 0 1-2.521-4.294c-.293-.738-.54-1.513-1.032-2.137-.492-.623-1.309-1.07-2.076-.864" clip-path="url(#SVGID_2_)" fill="#e2d2ba"/></g><path d="M50.826 50.074c1.147 1.225 1.14 3.154 1.071 4.857-.072 1.772.146 5.025 1.355 4.944.835-.173 1.101-1.215 1.199-2.062.242-2.087.477-4.257-.201-6.246-.297-.871-.797-1.716-1.585-2.192-.708-.427-2.732-.719-1.839.699" fill="#f7efda"/></g><g><g fill="#e0e0e0"><path d="M103.306 52.378l3.246-.258 5.489 47.605c1.03 7.973-10.146 12.514-21.002 13.916l-7.58-58.7 19.847-2.563z"/><path d="M63.612 57.504l-3.205.575 6.784 47.438c1.03 7.973 12.992 9.527 23.848 8.125l-7.58-58.7-19.847 2.562z"/></g><path d="M82.763 49.55c5.767-.745 11.249-.781 15.435-.101 3.594.583 5.834 1.665 5.993 2.895.159 1.229-1.733 2.845-5.061 4.322-3.876 1.72-9.187 3.078-14.955 3.823s-11.249.781-15.435.101c-3.594-.583-5.834-1.666-5.993-2.895-.159-1.229 1.733-2.845 5.061-4.322 3.877-1.72 9.187-3.078 14.955-3.823z" fill="#fafafa"/><g><path d="M104.264 70.743l3.195 26.461c.017 1.507-1.014 3.093-2.579 4.071-2.797 1.747-8.437 3.841-14.875 4.673-6.147.794-11.534.244-14.737-.649-2.028-.565-3.789-1.999-4.202-3.375L67.36 75.509" fill="#fbcc2f"/></g><ellipse transform="scale(-1) rotate(-7.36 -1137.022 1334.165)" cx="85.808" cy="73.126" rx="18.609" ry="4.593" fill="#e5a315"/><g><path d="M60.392 58c-.487-3.769 9.068-7.892 22.224-9.59 13.157-1.699 23.445-.138 23.931 3.63.487 3.768-9.068 7.891-22.224 9.59-13.156 1.699-23.445.138-23.931-3.63zm7.417-4.627c-3.328 1.477-5.219 3.093-5.061 4.322.159 1.229 2.399 2.311 5.993 2.895 4.186.679 9.667.643 15.435-.101s11.079-2.102 14.955-3.823c3.328-1.477 5.219-3.093 5.061-4.322-.159-1.229-2.399-2.311-5.993-2.895-4.186-.68-9.668-.644-15.435.101s-11.079 2.103-14.955 3.823z" fill="#cecfd1"/></g><g fill="#e5a315"><circle cx="81.044" cy="102.4" r=".888"/><circle cx="78.777" cy="100.23" r=".612"/><circle cx="82.533" cy="98.594" r="1.077"/><circle cx="78.682" cy="97.972" r="1.109"/><circle cx="81.597" cy="92.818" r=".888"/><circle cx="79.326" cy="93.541" r=".79"/><circle cx="75.346" cy="88.922" r=".79"/><circle cx="82.271" cy="83.283" r="1.002"/><circle cx="78.218" cy="91.125" r="1.223"/><circle cx="80.909" cy="86.991" r="1.203"/><circle cx="76.669" cy="86.066" r=".888"/></g><path d="M125.771 74.346c-1.51-15.397-6.816-17.386-11.535-17.591-5.514-.239-7.306-1.832-7.306-1.832l-3.482 3.281 2.598 21.522 2.137 16.547 3.686 1.945s-.251-1.865 6.291-4.332c7.517-2.835 8.929-6.11 7.611-19.54zm-10.254 11.15c-4.062.525-4.91-3.955-5.63-9.523s-1.302-10.082 3.026-10.641 4.91 3.955 5.63 9.523c.718 5.568 1.301 10.082-3.026 10.641z" fill="#e0e0e0"/><path d="M107.782 102.683c-.259 1.109-1.351 3.243-4.888 5.059-2.18 1.119-5.438 2.256-8.222 2.268-.596.003-.473-.59-.078-.704 2.25-.649 4.418-1.499 6.95-2.843 3.296-1.75 5.404-3.836 5.704-4.099.51-.446.578.132.534.319z" fill="#fff"/><path d="M114.298 58.969c1.965.078 3.332.642 4.794 1.958 1 .9 2.453 2.961 2.628 5.007.013.157.042 1.02-.317 1.03-.558.016-.794-.64-.88-.924-.278-.922-1.633-3.217-2.426-3.92-1.523-1.35-3.347-1.492-4.098-1.647-.446-.092-1.618-.487-1.584-.887.053-.641 1.474-.633 1.883-.617z" fill="#fff"/><g><defs><path id="SVGID_3_" d="M96.968 36.358c.751.425 1.468.94 2.319 1.081 1.434.24 2.833-.519 4.344-.13 4.268 1.098 6.604 4.202 5.615 8.463-.332 1.428.282 2.008.813 3.301 1.451 3.553-.521 8.524-4.524 9.49-2.393.578-4.882-.266-7.216.291-1.969.472-2.76 2.458-4.437 3.374-1.584.866-3.431 1.277-5.214 1.451-2.399.234-5.763-1.218-7.73.783-3.039 3.093-.126 8.289-3.864 11.22-1.53 1.201-3.817 1.257-5.515.467-3.264-1.513-3.046-5.544-4.299-8.356-.327-.751-.733-1.422-1.489-1.811-.756-.39-1.507-.161-2.307-.359-1.076-.265-2.115-.688-2.995-1.37-1.027-.799-.59-2.59-2.146-2.69-.478-.033-1.124-.216-1.522-.441-2.158-1.231-2.975-4.163-1.813-6.352.431-.804.8-1.061.795-1.986-.002-.84-.28-1.533-.074-2.415.501-2.177 2.227-3.731 4.268-4.57.38-.157.784-.298 1.18-.425.665-.212 1.225-.311 1.685-.879.238-.289.396-.691.545-1.028.427-.921 1.056-1.691 1.772-2.403 2.12-2.119 5.198-2.942 8.157-2.918.803.003 1.535.183 2.318.36 1.965.44 2.538-.893 3.937-1.881 1.744-1.226 3.981-1.542 6.07-1.507 1.227.022 2.21.616 3.352.929 1.321.368 1.977-.108 3.218-.359 1.107-.221 2.332-.095 3.431.127.469.094.905.304 1.326.543z"/></defs><use xlink:href="#SVGID_3_" overflow="visible" fill="#e9e2cf"/><clipPath id="SVGID_4_"><use xlink:href="#SVGID_3_" overflow="visible"/></clipPath><path d="M54.581 50.861c.627 1.715 2.197 3.05 3.991 3.392 1.793.342 3.745-.321 4.959-1.684.721.754 2.275-.27 2.8-.005s1.874 3.232 3.644 3.161c1.226 1.144 3.088 1.558 4.683 1.04s2.426-3.639 3.179-3.593c.752.046 1.297 1.048 2.107 1.004.404-.022.813-.143 1.206-.049.807.193 1.166 1.169 1.898 1.559.702.374 1.569.128 2.349.284.502.1.953.363 1.419.573a7.06 7.06 0 0 0 5.902-.099 7.061 7.061 0 0 0 3.701-4.599c1.273 1.126 4.264 1.673 5.109 1.309.845-.364 1.928 1.293 3.119 1.374 1.265.087 2.565.17 3.776-.206 1.211-.376 2.332-1.32 2.536-2.572a16.047 16.047 0 0 0 2.768 4.28l-12.528 7.9c-.57.359-1.152.73-1.564 1.263-.954 1.237-.791 3.064-1.711 4.326-.979 1.344-2.832 1.627-4.486 1.801l-4.764.5c-.739.078-1.513.167-2.125.588-1.694 1.162-1.147 3.943-2.478 5.507-1.022 1.2-2.803 1.316-4.379 1.335-4.435.053-8.87.062-13.305.028-.414-.003-.838-.009-1.225-.155-.531-.201-.929-.641-1.314-1.06a46.99 46.99 0 0 0-10.589-8.601c-.993-.591-2.04-1.172-2.725-2.103-.614-.835-.875-1.871-1.123-2.878l-.796-3.233c-.111-.451-.223-.917-.149-1.375.102-.638.542-1.159.936-1.671a16.32 16.32 0 0 0 2.399-4.363c.272-.746.497-1.528.972-2.165.474-.637 1.278-1.107 2.051-.923" clip-path="url(#SVGID_4_)" fill="#e2d2ba"/></g><path d="M76.835 63.91c-1.112 1.257-1.051 3.185-.934 4.885.122 1.77-.004 5.028-1.215 4.981-.84-.15-1.135-1.183-1.257-2.027-.301-2.08-.597-4.242.025-6.249.272-.879.748-1.738 1.522-2.236.697-.448 2.712-.798 1.859.646" fill="#f7efda"/></g></g></svg>