<svg id="レイヤー_1" xmlns="http://www.w3.org/2000/svg" viewBox="0 0 128 128"><path d="M127.749 97.307c-.068-3.093-.177-6.167-.254-9.235-.25-9.601.018-19.327-.254-28.978-.271-9.576.246-19.14.21-28.712-.009-1.989.171-5.91-1.783-7.088-4.208-2.536-6.9 4.045-8.047 6.722-2.074 4.86-3.328 9.996-4.845 15.044-1.291 4.322-2.755 8.629-3.321 13.122-.423 3.371-.48 7.155 1.151 10.243.819 1.551 2.274 2.628 3.949 3.108 1.739.504 3.752-.053 5.39.804.422.223.789.678.949 1.133.5 1.462-.057 3.645-.262 5.134-.646 4.804-1.324 9.648-1.692 14.48-.219 2.923-.475 6.665 1.178 9.253 1.007 1.574 3.099 3.065 5.029 2.343 2.88-1.074 2.662-4.914 2.602-7.373z" fill="#78a3ad"/><g><path d="M21.453 25.332c-.82.352-.476 3.395-.502 4.325-.04 1.685.098 3.906-.078 6.087a.494.494 0 0 1-.004.046c-.015.15-.029.316-.048.489-.021.168-.049.327-.07.491-.163 1.063-.484 2.322-1.108 2.933-.708.694-2.317.567-2.881-.239-.926-1.314-.885-4.28-.944-4.37-.05-1.403-.29-5.638-.614-8.429-.028-.211-.08-1.476-1.195-1.598-.522-.055-1.067.41-1.235 1.252-.5 2.484-.945 7.213-.968 7.952-.002.074-.008.154-.009.227 0 0-.003.013-.001.017-.004.152-.145 3.857-1.034 5.145-.467.673-1.687 1.215-2.911.515-.486-.278-.825-.827-1.066-1.414-1.315-4.099-.218-8.635-.075-10.795.043-.61.552-2.639-.629-2.557-1.78.121-4.004 8.004-4.394 9.814-.964 4.494-1.071 9.29.728 13.597.995 2.385 2.924 4.327 5.291 5.255 1.047.409 2.215.698 3.444.86-.34 10.2-.736 20.848-1.138 26.773-.307 4.461-.68 8.969-.579 13.446.057 2.675.067 5.863 1.778 8.089 1.795 2.324 5.519 1.21 6.496-1.57 1.101-3.133.734-6.763.295-12.489-.442-5.729-.956-13.549-1.236-17.756-.41-6.192-.588-11.61-.672-16.55 3.137-.499 6.062-1.924 7.678-4.517.708-1.132 1.173-2.398 1.483-3.693.475-1.962.7-4.118.569-6.133-.122-1.849-1.74-16.322-4.371-15.203z" fill="#78a3ad"/></g><circle cx="66" cy="63.963" r="40.773" fill="#78a3ad"/><g><g><path d="M66.449 41.25c26.366-.998 30.998 36.485 7.779 44.927-8.784 3.194-19.621 1.585-26.162-5.409-7.692-8.226-7.381-21.4-.6-30 1.971-2.5-1.544-6.062-3.536-3.536C30.009 64.89 40.184 91.193 63.4 92.677c19.576 1.251 35.145-16.778 30.35-36.007-3.09-12.392-14.554-20.903-27.302-20.42-3.206.121-3.222 5.122.001 5z" fill="#fff"/></g></g></svg>