<svg id="レイヤー_1" xmlns="http://www.w3.org/2000/svg" xmlns:xlink="http://www.w3.org/1999/xlink" viewBox="0 0 128 128"><g><g><g><defs><path id="SVGID_1_" d="M77.83 108.697c-7.317 10.9-23.879 11.217-25.744 11.217h-.135c-.051 0-.108-.004-.164-.004-.052 0-.104 0-.152.004h-.156c-1.865 0-18.426-.316-25.744-11.217-14.483-21.559-3.677-38.16 5.001-51.498 3.251-4.988 6.056-9.301 7.279-13.525 2.121-7.295 1.722-14.418.685-19.988.018-.019.053-.033.074-.051 3.613 1.25 7.608 1.83 10.785 1.904 4.67.107 10.141-.092 14.937-1.549.117.043.226.092.287.182-.972 5.502-1.293 12.414.768 19.502 1.227 4.225 4.033 8.537 7.282 13.525 8.68 13.338 19.481 29.94 4.997 51.498z"/></defs><use xlink:href="#SVGID_1_" overflow="visible" fill="#fff"/><clipPath id="SVGID_2_"><use xlink:href="#SVGID_1_" overflow="visible"/></clipPath></g><path d="M71.948 41.818c-2.815-9.686-.32-19.182 1.224-23.598.155-.252.312-.502.433-.754a8.243 8.243 0 0 0 .578-1.822c.434-2.125.251-4.686-.564-6.416C71.26 4.218 64.7 1.972 59.066.974a47.341 47.341 0 0 0-7.443-.703C42.5.128 28.633 4.382 29.167 14.003c.034.565.13 1.111.269 1.633l-.056.008s.107.225.277.633c.096.27.195.547.321.807 1.431 3.713 4.727 14.115 1.639 24.734-3.847 13.246-33.913 37.1-11.417 70.596 9.195 13.686 28.615 14.162 31.278 14.162.199 0 .304-.004.304-.004s.104.004.304.004c2.663 0 22.087-.477 31.275-14.162 22.499-33.496-7.563-57.35-11.413-70.596zm5.882 66.879c-7.317 10.9-23.879 11.217-25.744 11.217h-.135c-.051 0-.108-.004-.164-.004-.052 0-.104 0-.152.004h-.156c-1.865 0-18.426-.316-25.744-11.217-14.483-21.559-3.677-38.16 5.001-51.498 3.251-4.988 6.056-9.301 7.279-13.525 2.121-7.295 1.722-14.418.685-19.988.018-.019.053-.033.074-.051 3.613 1.25 7.608 1.83 10.785 1.904 4.67.107 10.141-.092 14.937-1.549.117.043.226.092.287.182-.972 5.502-1.293 12.414.768 19.502 1.227 4.225 4.033 8.537 7.282 13.525 8.68 13.338 19.481 29.94 4.997 51.498z" fill="#78a3ad"/><g><defs><path id="SVGID_3_" d="M58.884 18.117c-2.725.498-5.432.633-6.828.672-2.746.074-5.739-.065-8.406-.76-2.082-.537-4.477-1.309-6.029-2.854-3.123-3.096.351-6.332 3.221-7.611 1.373-.613 2.812-1.072 4.283-1.424 3.394-.811 6.563-.639 10.03-.469 3.946.188 10.113 1.262 11.537 5.627 1.344 4.12-3.259 5.977-7.808 6.819z"/></defs><use xlink:href="#SVGID_3_" overflow="visible" fill="#fff"/><clipPath id="SVGID_4_"><use xlink:href="#SVGID_3_" overflow="visible"/></clipPath></g></g><g><g><defs><path id="SVGID_5_" d="M109.66 107.6l-.339.611c-2.281 4.146-5.726 10.41-9.238 12.223-2.218 1.137-4.854 1.744-7.626 1.744-4.858 0-9.582-1.83-12.64-4.887-2.074-2.074-4.112-4.734-5.943-7.658l.178.156c-2.464-4.545-.466-4.848.165-4.789.14.01.252.041.36.062l.156.037c.061.023.13.041.13.041l-.009-.01c3.93.955 8.106 1.354 11.664 1.432.65.018 1.362.035 2.047.053.517.018 1.007.025 1.536.039.104.004.204.004.309.004 1.201.025 2.441.053 3.699.053H94.677c.677-.006 1.354-.014 2.034-.027.178-.008.352-.008.525-.012a76.493 76.493 0 0 0 2.441-.109c.195-.018.387-.029.586-.043a51.197 51.197 0 0 0 2-.178c.194-.021.395-.039.589-.064a42.741 42.741 0 0 0 2.392-.348c.155-.025.309-.061.463-.088a31.128 31.128 0 0 0 1.928-.424c.198-.045.394-.096.589-.148.038-.008.073-.025.108-.033l-.003.008-.006.014s.291-.109.65-.145c.629-.061 1.723.227.682 2.49l.005-.004z"/></defs><use xlink:href="#SVGID_5_" overflow="visible" fill="#fff"/><clipPath id="SVGID_6_"><use xlink:href="#SVGID_5_" overflow="visible"/></clipPath></g><g><defs><path id="SVGID_7_" d="M111.933 97.965c-3.534 2.553-8.727 3.844-13.064 3.947-1.617.035-3.24-.008-4.858-.008-6.368 0-12.723-.373-18.949-1.701-1.833-.391-3.681-1.119-5.203-2.186-.88-.615-1.696-1.328-2.047-2.369-.317-.945-.897-1.777-.959-2.811-.061-1.092.069-2.768 1.895-4.703 4.27-4.514 13.869-6.879 21.149-6.879l.497.01c2.976.043 5.938.316 8.805.816 7.93 1.369 13.2 4.006 14.849 7.426.78 1.613.667 4.102-.062 5.717-.243.545-.295 1.084-.676 1.564-.343.436-.808.773-1.254 1.09-.038.026-.082.061-.123.087z"/></defs><use xlink:href="#SVGID_7_" overflow="visible" fill="#fff"/><clipPath id="SVGID_8_"><use xlink:href="#SVGID_7_" overflow="visible"/></clipPath><path d="M72.117 97.428c.234-.877.768-1.779 1.271-2.338.247-.273.568-.539.88-.803 3.163-2.625 9.591-4.52 15.737-4.52h.387a46.05 46.05 0 0 1 6.948.623c1.549.262 3.089.6 4.585 1.068 2.143.66 4.382 1.5 5.869 3.219 1.631 1.879 2.1 4.018.348 5.984-2.911 3.26-8.385 2.865-12.397 3.082-6.364.328-11.955.086-18.162-1.314-2.176-.49-5.058-1.221-5.552-3.709-.078-.39-.036-.841.086-1.292z" clip-path="url(#SVGID_8_)" fill="#40c0e7"/></g><path d="M119.044 87.09c-3.063-6.361-11.581-9.217-18.9-10.482a62.708 62.708 0 0 0-9.669-.895c-.19-.004-.386-.01-.579-.01-.284 0-.588.018-.874.027-.373.01-.741.014-1.121.035-.402.016-.81.051-1.215.078-.391.035-.779.06-1.17.096-.415.041-.832.1-1.253.154-.396.049-.794.096-1.196.156-.426.066-.851.148-1.28.227-.399.068-.798.139-1.201.217-.43.092-.855.199-1.284.295-.399.096-.798.182-1.192.287-.43.111-.855.246-1.28.373a45.03 45.03 0 0 0-1.153.346c-.425.139-.838.297-1.259.451-.368.131-.741.26-1.106.408-.411.164-.802.348-1.201.529-.351.156-.711.303-1.049.469-.391.191-.76.408-1.137.607-.321.182-.66.346-.968.537-.368.223-.705.459-1.055.699-.289.195-.594.381-.871.584-.334.254-.637.531-.95.799-.251.209-.521.416-.754.643-.301.277-.552.59-.825.885-.208.234-.438.455-.628.693-.252.322-.456.668-.677.998-.161.252-.343.486-.486.738-.204.363-.347.754-.507 1.137-.109.25-.243.494-.331.75-.151.438-.233.906-.325 1.365-.042.227-.121.443-.155.672a11.374 11.374 0 0 0-.082 2.195c.025.438.112.846.182 1.264h-.199c.048 0 .143.174.269.469.19.865.507 1.656.894 2.406.915 2.646 2.047 6.217 2.208 6.602 2.512 6.047 6.584 12.68 11.229 17.32.482.483.994.928 1.527 1.363.161.133.335.26.505.391.381.285.775.572 1.179.832.195.129.391.26.59.383.425.26.862.502 1.305.736.174.096.343.191.521.277.616.305 1.245.586 1.893.838.108.043.226.072.338.117.542.199 1.089.387 1.639.547.226.068.456.125.682.182.464.121.928.234 1.398.33.237.047.471.094.714.139.517.086 1.041.154 1.566.217.173.018.347.043.521.061a23.57 23.57 0 0 0 2.073.096c.039 0 .078.008.117.008.104 0 .208-.018.312-.018a22.607 22.607 0 0 0 1.979-.113c.207-.016.411-.033.614-.061.773-.094 1.54-.217 2.298-.381.075-.018.149-.043.228-.064a20.383 20.383 0 0 0 2.03-.596 20.877 20.877 0 0 0 2.706-1.127c5.413-2.793 9.366-10.531 12.202-15.643 2.473-4.459 4.199-9.559 4.984-14.609v-.008c0-.01.004-.017.004-.021.516-2.668.266-5.844-.775-8zm-9.384 20.51l-.339.611c-2.281 4.146-5.726 10.41-9.238 12.223-2.218 1.137-4.854 1.744-7.626 1.744-4.858 0-9.582-1.83-12.64-4.887-2.074-2.074-4.112-4.734-5.943-7.658l.178.156c-2.464-4.545-.466-4.848.165-4.789.14.01.252.041.36.062l.156.037c.061.023.13.041.13.041l-.009-.01c3.93.955 8.106 1.354 11.664 1.432.65.018 1.362.035 2.047.053.517.018 1.007.025 1.536.039.104.004.204.004.309.004 1.201.025 2.441.053 3.699.053H94.677c.677-.006 1.354-.014 2.034-.027.178-.008.352-.008.525-.012a76.493 76.493 0 0 0 2.441-.109c.195-.018.387-.029.586-.043a51.197 51.197 0 0 0 2-.178c.194-.021.395-.039.589-.064a42.741 42.741 0 0 0 2.392-.348c.155-.025.309-.061.463-.088a31.128 31.128 0 0 0 1.928-.424c.198-.045.394-.096.589-.148.038-.008.073-.025.108-.033l-.003.008-.006.014s.291-.109.65-.145c.629-.061 1.723.227.682 2.49l.005-.004zm2.039-9.842c-4.251 2.904-10.242 3.027-15.204 3.078-2.043.027-4.081 0-6.123-.068a100.112 100.112 0 0 1-12.078-1.146c-2.828-.449-6.813-1.088-9.144-2.914-.764-.598-1.436-1.336-1.848-2.221-.243-.516-.417-1.059-.451-1.648-.061-1.092.069-2.768 1.895-4.703 4.27-4.514 13.869-6.879 21.149-6.879l.497.01c2.976.043 5.938.316 8.805.816 7.93 1.369 13.2 4.006 14.849 7.426.629 1.301.629 4.119.026 5.516-.017.037-.026.082-.044.119-.55 1.104-1.36 1.954-2.329 2.614z" fill="#78a3ad"/></g></g></svg>