<svg id="Layer_1" xmlns="http://www.w3.org/2000/svg" viewBox="0 0 128 128"><path id="XMLID_983_" d="M91.027 34.715a3.19 3.19 0 0 0 .946-2.27 3.155 3.155 0 0 0-3.144-3.157c-.034 0-.065.002-.098.003a3.597 3.597 0 0 0 .394-1.615 3.608 3.608 0 0 0-1.728-3.074 2.417 2.417 0 0 1-1.328.887 1.558 1.558 0 0 1-2.065 1.208c.005.194-.024.392-.097.584a1.555 1.555 0 0 1-1.788.967c-.022-.016-.044-.032-.065-.05a2.312 2.312 0 0 0-.178-3.146 2.32 2.32 0 0 0-3.279.075 2.316 2.316 0 0 0-.322.438 2.315 2.315 0 0 0-.523-.331 2.32 2.32 0 0 1 .103-.808 2.806 2.806 0 0 1-.324-.063 3.102 3.102 0 0 0 1.861-2.841c0-.504-.125-.976-.339-1.395.068.004.133.02.202.02a3.408 3.408 0 0 0 3.295-2.561 3.4 3.4 0 0 0 .121-.855 3.406 3.406 0 0 0-2.437-3.257 3.406 3.406 0 0 0-3.257-2.437 3.38 3.38 0 0 0-2.768 1.444c.002-.039.007-.077.007-.117a2.694 2.694 0 0 0-2.698-2.689c-.346 0-.675.071-.979.189a3.81 3.81 0 0 0-2.513-2.115 2.745 2.745 0 0 0-2.372-2.783 2.74 2.74 0 0 0-.646-.004 2.746 2.746 0 0 0-2.367-2.96c-.74-.1-1.448.107-2.004.519a1.843 1.843 0 0 0-1.309-.842 1.85 1.85 0 0 0-2.084 1.584c-.033.242-.014.479.043.702a1.85 1.85 0 0 0-2.069 1.946 2.856 2.856 0 0 0-1.536 2.163c-.028.21-.029.417-.012.62a3.546 3.546 0 0 0-2.899 3.175c-.005.057.005.111.002.167a2.41 2.41 0 0 0-1.059.237 3.386 3.386 0 0 0-2.49-1.095 3.417 3.417 0 0 0-3.417 3.416c0 .055.014.105.016.159a2.311 2.311 0 0 0-2.151 2.302c0 .431.126.83.331 1.176a3.407 3.407 0 0 0-3.98 1.04 3.406 3.406 0 0 0-.09 4.067 3.431 3.431 0 0 0-.027 2.404 3.414 3.414 0 0 0-2.788 3.353c0 .055.014.105.016.159a2.311 2.311 0 0 0-2.151 2.302c0 .902.52 1.675 1.272 2.059l.738 3.439h55.538l.496-2.339z" fill="#fbc21a"/><circle id="XMLID_1_" cx="86.605" cy="32.6" r="2.893" fill="#fff"/><circle id="XMLID_3_" cx="82.902" cy="31.674" r="2.893" fill="#fff"/><circle id="XMLID_4_" cx="58.834" cy="32.6" r="3.818" fill="#fff"/><path id="XMLID_968_" d="M41.69 36.186l-.006-.043-.002.043h.008z" fill="none"/><path id="XMLID_969_" d="M41.681 35.985c.002-.09.006-.18.014-.268l-.026.014c.006.084.009.169.012.254z" fill="none"/><path id="XMLID_970_" d="M49.879 35.439c.035.215.057.434.057.658l.019-.015v.006c0-.159.012-.314.029-.468-.038-.058-.069-.122-.105-.181z" fill="none"/><path id="XMLID_971_" d="M66.482 36.082l-.002.104h.015c-.001-.03-.005-.059-.005-.089 0-.266.028-.526.076-.779-.051.007-.103.011-.155.016.044.243.071.492.071.748z" fill="#fff1d4"/><path id="XMLID_972_" d="M48.548 29.484a.265.265 0 0 0-.017-.016l-.031.026.048-.01z" fill="#fff"/><path id="XMLID_973_" d="M50.533 33.998l.022-.036-.027.02.005.016z" fill="#fff"/><path id="XMLID_980_" d="M38.733 32.139c.039.011.077.024.115.036-.001-.019-.007-.037-.008-.057-.036.009-.072.014-.107.021z" fill="#fff1d4"/><path id="XMLID_991_" d="M41.668 35.732l.026-.014a4.079 4.079 0 0 1 .521-1.668c-.284.15-.601.242-.94.261.211.437.349.915.393 1.421z" fill="#fff1d4"/><path id="XMLID_994_" d="M56.721 9.919c.276.037.543-.006.785-.101a2.988 2.988 0 0 0 5.932.064c.002-.015 0-.03.002-.045.055.016.111.029.169.04a3.805 3.805 0 0 1 2.67-2.168 2.232 2.232 0 0 0-1.931-2.239c-.11-.015-.217-.012-.324-.011a1.826 1.826 0 0 0-1.574-1.955 1.829 1.829 0 0 0-1.94 1.138 1.497 1.497 0 0 0-2.87.682 1.25 1.25 0 0 0-1.335 1.583c-.49.213-.863.665-.939 1.234a1.58 1.58 0 0 0 1.355 1.778zm.701-3.329c.319-.016.499-.113.774-.321.226-.17.46-.601.627-.899.114-.202.295-.02.362.142.105.252.217.443.457.768.197.267.494.493.741.652.247.159.152.319-.036.385a1.757 1.757 0 0 0-.758.486c-.192.222-.298.479-.283.725.019.305-.055.435-.254.328-.166-.088-.412-.239-.694-.876-.218-.5-.743-.77-1.076-1.005-.237-.168-.105-.373.14-.385z" fill="#fff"/><path id="XMLID_995_" d="M57.282 6.975c.333.235.858.505 1.079 1.006.282.638.528.788.694.876.199.106.273-.023.254-.328-.016-.247.091-.504.283-.725.2-.231.471-.384.758-.486.188-.066.283-.226.036-.385-.247-.159-.544-.385-.741-.652-.24-.325-.352-.516-.457-.768-.067-.162-.249-.344-.362-.142-.167.298-.402.729-.627.899-.276.208-.455.304-.774.321-.248.011-.38.216-.143.384z" fill="#fbc21a"/><path id="XMLID_998_" d="M64.923 11.906c0 .015.004.028.004.042-.098-.014-.196-.03-.298-.03a2.102 2.102 0 1 0 0 4.204c.104 0 .203-.016.303-.031a1.714 1.714 0 0 0 1.708 1.621c.804 0 1.474-.555 1.661-1.301.247.407.69.682 1.201.682.239 0 .461-.065.658-.17-.004-.064-.016-.126-.016-.192 0-1.36.8-2.524 1.951-3.074.333-.272.55-.681.55-1.144 0-.819-.664-1.483-1.483-1.483-.262 0-.504.074-.717.192a2.802 2.802 0 0 0-5.522.684zm6.005 2.307c-.295.055-.45.167-.68.395-.189.187-.352.617-.471.914-.08.202-.272.056-.355-.086-.13-.222-.257-.385-.522-.657-.217-.224-.521-.397-.771-.514-.25-.117-.181-.277-.015-.363.254-.13.487-.307.644-.546.151-.23.217-.483.172-.71-.056-.282-.004-.411.195-.337.165.061.413.17.755.728.268.438.791.624 1.129.8.243.126.146.334-.081.376z" fill="#fff"/><path id="XMLID_999_" d="M71.01 13.838c-.339-.177-.861-.362-1.129-.8-.342-.558-.59-.666-.755-.728-.199-.074-.251.056-.195.337.045.227-.021.48-.172.71-.157.239-.39.416-.644.546-.166.085-.235.245.015.363.25.117.554.29.771.514.264.272.392.435.522.657.083.142.274.288.355.086.119-.298.282-.728.471-.914.23-.228.385-.34.68-.395.226-.043.323-.251.081-.376z" fill="#fbc21a"/><path id="XMLID_1002_" d="M46.933 30.53c0-.104-.011-.205-.031-.303a2.405 2.405 0 0 0 1.039-1.978c0-.377-.094-.729-.249-1.047a3.405 3.405 0 0 1-4.602.38c-.055-.043-.096-.096-.147-.141a3.405 3.405 0 0 1-3.947-.173 3.39 3.39 0 0 1-.734-.797c-.086.3-.146.61-.146.937 0 .055.014.105.016.159a2.311 2.311 0 0 0-2.151 2.302c0 .939.561 1.743 1.364 2.108.071-.004.14-.011.212-.011.409 0 .804.062 1.177.172.035-.007.072-.012.107-.02.001.019.007.037.008.057a4.137 4.137 0 0 1 2.428 2.135c.339-.019.655-.111.94-.261a4.126 4.126 0 0 1 3.591-2.083c.045 0 .088.005.133.007a1.55 1.55 0 0 0 .992-1.443zm-5.019-.965c.241.393.71.56 1.014.718.217.113.13.299-.074.337-.265.049-.403.15-.61.354-.169.167-.316.553-.423.821-.072.181-.244.05-.318-.077-.116-.199-.231-.345-.468-.59-.195-.201-.468-.356-.692-.461s-.162-.249-.013-.325c.228-.117.437-.276.578-.49.135-.207.195-.433.154-.637-.05-.253-.003-.369.175-.303.147.055.37.152.677.653z" fill="#fff"/><path id="XMLID_1003_" d="M41.236 28.912c-.178-.066-.225.05-.175.303.041.204-.019.431-.154.637-.141.215-.35.374-.578.49-.149.077-.211.22.013.325s.497.26.692.461c.237.245.352.391.468.59.074.127.246.259.318.077.106-.267.253-.653.423-.821.207-.205.345-.305.61-.354.204-.038.291-.224.074-.337-.304-.158-.773-.325-1.014-.718-.306-.501-.529-.598-.677-.653z" fill="#b79178"/><path id="XMLID_1006_" d="M79.256 20.148c-.069 0-.134-.016-.202-.02.214.419.339.891.339 1.395a3.1 3.1 0 0 1-1.861 2.841c.108.028.216.05.324.063a2.296 2.296 0 0 0-.103.808c.184.088.362.192.523.331a2.36 2.36 0 0 1 .322-.438 2.32 2.32 0 0 1 3.279-.075c.885.845.945 2.217.178 3.146a.8.8 0 0 0 .065.05 1.552 1.552 0 0 0 1.885-1.551 1.558 1.558 0 0 0 2.065-1.208 2.424 2.424 0 0 0 1.328-.887c.137-.18.257-.376.34-.599a2.418 2.418 0 0 0-1.419-3.111 2.43 2.43 0 0 0-.882-.15 3.414 3.414 0 0 0-2.885-3.157 3.41 3.41 0 0 1-3.296 2.562zm3.483 4.924c-.039-.227-.095-.404-.231-.717-.112-.256-.313-.498-.486-.675-.173-.177-.065-.29.102-.309.254-.029.506-.104.714-.256.199-.146.335-.337.369-.542.042-.254.127-.347.27-.222.119.104.293.273.404.85.087.452.468.774.697 1.029.163.182.016.326-.188.29-.265-.047-.43-.001-.696.117-.217.097-.491.407-.684.62-.131.144-.246-.04-.271-.185z" fill="#fbc21a"/><path id="XMLID_781_" d="M54.828 25.73c.213-.193.21-.24.427-.337.266-.119.431-.164.696-.117.204.036.351-.108.188-.29-.229-.255-.569-.586-.697-1.029-.165-.574-.657-.357-1.043-.086-.21.147-.459.227-.714.256-.167.019-.275.132-.102.309.173.177.374.419.486.675.136.312.083.281.168.495a.372.372 0 0 0 .591.124z" fill="#b79178"/><path id="XMLID_780_" d="M55.812 12.428c-.183.222-.173.268-.373.396-.245.156-.402.225-.671.218-.207-.006-.332.158-.143.314.264.219.648.497.839.916.247.544.702.257 1.045-.067.187-.176.421-.291.669-.357.162-.043.253-.171.056-.321s-.431-.36-.579-.597c-.18-.289-.123-.266-.239-.466a.373.373 0 0 0-.604-.036z" fill="#b79178"/><path id="XMLID_1010_" d="M81.962 29.922c-.032-.031-.07-.052-.104-.081.018-.054.034-.109.045-.164a2.083 2.083 0 0 0-.457-2.363 2.091 2.091 0 0 0-2.956.067c-.007.007-.011.015-.017.022a1.71 1.71 0 0 0-2.836 1.9 1.382 1.382 0 0 0-.552.349 1.4 1.4 0 0 0 .258 2.146 1.163 1.163 0 0 0 .054 1.623c.12.115.26.196.407.25-.099.446.012.923.328 1.286a4.567 4.567 0 0 1 6.003-1.192 2.787 2.787 0 0 0-.173-3.843zm-3.178 2.745c-.158.076-.406.18-1.042.043-.499-.108-.992.14-1.351.262-.257.087-.339-.125-.214-.317.163-.25.189-.438.183-.76-.005-.264-.201-.677-.334-.967-.09-.197.147-.234.306-.196.248.059.453.079.831.076.31-.002.643-.102.899-.201.256-.099.324.06.271.238a1.647 1.647 0 0 0-.05.838c.062.266.198.488.392.612.242.153.299.28.109.372z" fill="#fff"/><path id="XMLID_1011_" d="M78.676 32.295c-.195-.124-.33-.345-.392-.612a1.646 1.646 0 0 1 .05-.838c.053-.178-.015-.338-.271-.238-.256.099-.589.199-.899.201-.378.003-.583-.017-.831-.076-.159-.038-.396-.001-.306.196.133.29.329.703.334.967.006.322-.02.51-.183.76-.125.192-.043.404.214.317.36-.122.852-.37 1.351-.262.636.137.884.034 1.042-.043.189-.092.132-.219-.109-.372z" fill="#b79178"/><path id="XMLID_1012_" d="M71.94 16.449c0 .272.054.528.134.774a3.063 3.063 0 0 1 2.146-.875c.416 0 .808.091 1.169.24.123-.105.238-.221.327-.358.094-.144.159-.507.433-.652.26-.137.725-.068.925.26.15.246.366.426.596.569.126.078.447.294.403.672-.034.29-.415.515-.562.661-.109.108-.211.282-.304.474a1.067 1.067 0 0 1-.103.154c.025.065.056.127.076.194.368.111.703.293 1 .521.017-.036.034-.072.049-.109a2.52 2.52 0 0 0-.52-4.987c-.605 0-1.153.222-1.588.578a2.499 2.499 0 0 0-1.66-.637 2.52 2.52 0 0 0-2.521 2.521z" fill="#fff"/><path id="XMLID_1013_" d="M77.206 18.214c.093-.192.195-.366.304-.474.147-.146.528-.371.562-.661.044-.378-.277-.594-.403-.672a1.768 1.768 0 0 1-.596-.569c-.2-.328-.666-.397-.925-.26-.274.145-.339.508-.433.652a1.712 1.712 0 0 1-.327.358 3.104 3.104 0 0 1 1.715 1.78c.047-.06.086-.119.103-.154z" fill="#b79178"/><path id="XMLID_1014_" d="M41.416 23.596c.098.19.202.44.227.679.031.291.031.451.003.647-.018.126.029.306.177.221.218-.125.529-.309.737-.333.254-.029.404-.024.613.082.161.082.322.002.234-.19-.124-.268-.356-.629-.309-1.023.06-.502 0-.585-.084-.656-.126-.107-.251-.078-.399.09-.081.092-.227.169-.433.237-.213.071-.378.059-.598.018-.145-.027-.266.038-.168.228z" fill="#b79178"/><path id="XMLID_1017_" d="M69.354 21.809c0 1.026.628 1.905 1.52 2.276a2.458 2.458 0 0 0 2.344 1.741 2.463 2.463 0 0 0 2.284-1.547 2.465 2.465 0 0 0-.508-4.876c-.592 0-1.128.217-1.552.565a2.444 2.444 0 0 0-1.623-.623 2.464 2.464 0 0 0-2.465 2.464zm5.044.696c-.209.04-.319.12-.483.283-.134.133-.251.439-.336.651-.058.144-.193.04-.251-.06a2.232 2.232 0 0 0-.368-.466 1.88 1.88 0 0 0-.545-.363c-.177-.083-.128-.197-.01-.258.18-.093.346-.22.458-.39a.69.69 0 0 0 .124-.505c-.039-.2-.002-.292.139-.24.117.043.292.12.533.516.189.311.559.441.799.566.171.087.101.235-.06.266z" fill="#fff"/><path id="XMLID_1018_" d="M74.457 22.237c-.24-.125-.61-.255-.799-.566-.241-.396-.416-.472-.533-.516-.141-.052-.178.04-.139.24.032.162-.016.341-.124.505a1.185 1.185 0 0 1-.458.39c-.118.061-.167.175.01.258a1.9 1.9 0 0 1 .545.363 2.2 2.2 0 0 1 .368.466c.058.101.194.204.251.06.085-.212.202-.518.336-.651.164-.163.274-.243.483-.283.162-.029.232-.177.06-.266z" fill="#b79178"/><path id="XMLID_1021_" d="M73.034 29.224a3.206 3.206 0 0 0-2.557-3.139c.006-.081.024-.159.024-.242a3.34 3.34 0 1 0-6.677.001c0 .147.025.287.043.429a3.292 3.292 0 0 0-.842-.12 3.34 3.34 0 0 0-3.339 3.339c0 1.102.449 2.104 1.272 2.712.41-.135.937-.244 1.393-.244a4.124 4.124 0 0 1 4.059 3.375c.052-.005.104-.008.155-.016a4.13 4.13 0 0 1 4.055-3.352c.316 0 .622.039.917.106.007-.051.012-.102.016-.154a3.196 3.196 0 0 0 1.481-2.695zm-5.351 3.15c-.098.245-.329.069-.428-.103-.156-.268-.309-.465-.628-.794-.261-.27-.628-.478-.93-.619-.301-.141-.217-.335-.016-.439.307-.159.591-.374.781-.665.183-.28.265-.586.211-.861-.067-.341-.003-.498.237-.409.199.074.498.204.909.879.322.529.953.753 1.362.965.292.152.173.403-.101.456-.357.068-.544.205-.824.482-.229.225-.429.747-.573 1.108z" fill="#fff"/><path id="XMLID_1022_" d="M68.256 31.264c.28-.277.467-.414.824-.482.274-.052.393-.304.101-.456-.409-.212-1.039-.435-1.362-.965-.411-.674-.71-.805-.909-.879-.24-.089-.304.068-.237.409.054.275-.028.582-.211.861-.19.291-.474.506-.781.665-.201.104-.285.299.016.439.302.141.668.349.93.619.318.329.472.526.628.794.1.172.33.348.428.103.144-.359.344-.881.573-1.108z" fill="#fbc21a"/><path id="XMLID_1025_" d="M42.55 20.861a3.207 3.207 0 0 0 3.291 2.362c.016.08.018.16.04.241a3.341 3.341 0 0 0 6.449-1.747c-.039-.142-.099-.271-.154-.403.28-.003.562-.028.844-.104a3.333 3.333 0 1 0-1.582-6.476 3.337 3.337 0 0 0-3.793-1.618 3.328 3.328 0 0 0-2.246 2.053 2.255 2.255 0 0 0-.497.074 2.265 2.265 0 0 0-1.625 2.631 3.186 3.186 0 0 0-.727 2.987zm4.784-4.455c.22.218.42.368.814.603.323.192.732.298 1.06.355.328.057.298.267.131.42-.255.234-.472.516-.58.847-.104.318-.103.635.021.887.154.312.133.48-.122.458-.212-.019-.535-.067-1.108-.611-.45-.427-1.117-.477-1.568-.575-.321-.07-.273-.344-.022-.467.327-.159.472-.34.67-.681.162-.279.218-.836.263-1.223.031-.263.3-.153.441-.013z" fill="#fff"/><path id="XMLID_1026_" d="M46.893 16.418c-.045.387-.102.943-.263 1.223-.197.341-.343.522-.67.681-.251.122-.3.396.022.467.45.098 1.118.148 1.568.575.573.544.896.592 1.108.611.255.023.276-.146.122-.458-.124-.252-.125-.569-.021-.887.108-.331.325-.613.58-.847.167-.153.197-.363-.131-.42-.328-.057-.737-.162-1.06-.355-.394-.234-.594-.385-.814-.603-.141-.139-.41-.249-.441.013z" fill="#fbc21a"/><path id="XMLID_978_" d="M63.424 22.425a2.074 2.074 0 0 1-.72-1.566c0-.989.692-1.805 1.616-2.019a2.475 2.475 0 0 0-3.785-.363 2.76 2.76 0 0 0-1.915-.774 2.774 2.774 0 0 0-1.064 5.335 2.766 2.766 0 0 0 2.638 1.959c.512 0 .985-.148 1.397-.39.246-1.919 1.677-2.099 1.833-2.182z" fill="#fff"/><path id="XMLID_979_" d="M58.524 20.746c.016.403-.106.797-.289 1.154-.12.234-.068.474.311.404.38-.07.866-.121 1.295-.042.522.096.8.179 1.128.327.21.095.547.106.474-.191-.107-.439-.27-1.067-.207-1.435.077-.45.162-.705.453-1.01.224-.234.166-.552-.211-.498-.529.075-1.275.289-1.936.006-.842-.36-1.213-.282-1.451-.218-.286.078-.241.269.052.547.236.224.365.569.381.956z" fill="#fbc21a"/><circle id="XMLID_777_" cx="51.565" cy="33.426" r="3.196" fill="#fff"/><circle id="XMLID_778_" cx="55.998" cy="32.653" r="2.526" fill="#fff"/><circle id="XMLID_783_" cx="53.411" cy="29.932" r="3.178" fill="#fff"/><path id="XMLID_1027_" d="M91.352 35.947c0-.505-.095-.986-.261-1.434a4.128 4.128 0 0 0-3.87-2.697c-2.281 0-4.131 2.057-4.131 4.338l.004.296h-.02L74.093 126h2.132a2.964 2.964 0 0 0 2.918-2.45L91.37 36.496s-.021-.015-.053-.031c.02-.169.035-.343.035-.518z" fill="#ed6c30"/><path id="XMLID_1028_" d="M41.746 36.451l.002-.251-.008-.164c0-.033.004-.116.005-.148a4.164 4.164 0 0 0-.405-1.714 4.148 4.148 0 0 0-2.428-2.142c-.038-.013-.076-.028-.115-.04a4.122 4.122 0 0 0-1.177-.174c-.071 0-.141.006-.212.01a4.119 4.119 0 0 0-3.087 1.64 3.987 3.987 0 0 0-.832 2.438c0 .058.006.13.009.13h-.001l.002.05c.018.412.095.829.225 1.201l11.141 86.21c.247 1.419 1.478 2.503 2.919 2.503h2.291l-8.321-89.549h-.008z" fill="#ed6c30"/><path id="XMLID_1029_" d="M58.288 36.451h-.012l.005-.296c0-1.115-.444-2.229-1.162-2.972-.309-.319-.668-.64-1.065-.847a4.17 4.17 0 0 0-1.903-.506 4.107 4.107 0 0 0-3.531 1.986l-.022.035a4.094 4.094 0 0 0-.577 2.103L54.79 126h4.774l-1.276-89.549z" fill="#ed6c30"/><path id="XMLID_1030_" d="M74.819 36.451h-.009l.004-.296c0-1.966-1.374-3.711-3.214-4.128-.295-.067-.601-.157-.917-.157a4.108 4.108 0 0 0-4.055 3.326 6.496 6.496 0 0 0-.076.973l.004.283h-.014L64.5 126h4.743l5.576-89.549z" fill="#ed6c30"/><path id="XMLID_1031_" d="M50.05 35.484c0-.225-.072.027-.106-.188-.309-1.925-1.862-3.441-3.858-3.505-.045-.001-.19.027-.235.027a4.107 4.107 0 0 0-4.096 3.75c-.008.088-.009.178-.011.268-.001.032-.004.064-.004.097l.009.06.006.058L50.075 126h4.715l-4.74-90.516z" fill="#f9e3d4"/><path id="XMLID_1032_" d="M66.544 36.051l.002-.111a4.126 4.126 0 0 0-5.432-3.919 4.115 4.115 0 0 0-2.829 3.908l.003.122L59.564 126H64.5l2.044-89.949z" fill="#f9e3d4"/><path id="XMLID_1033_" d="M83.075 36.051l.014-.111c0-1.51-.812-2.826-2.021-3.545a4.12 4.12 0 0 0-5.417 1.073 4.09 4.09 0 0 0-.822 2.461l-.008.122L69.243 126h4.85l8.982-89.949z" fill="#f9e3d4"/><circle id="XMLID_5_" cx="82.902" cy="22.914" r="2.396" fill="#fff"/><circle id="XMLID_6_" cx="81.171" cy="24.481" r="1.345" fill="#fff"/><circle id="XMLID_7_" cx="83.77" cy="24.211" r="1.909" fill="#fff"/><path id="XMLID_1007_" d="M83.01 25.256c.193-.213.467-.522.684-.62.266-.119.431-.164.696-.117.204.036.351-.108.188-.29-.229-.255-.609-.576-.697-1.029-.111-.576-.285-.746-.404-.85-.144-.125-.229-.033-.27.222-.034.205-.169.396-.369.542a1.478 1.478 0 0 1-.714.256c-.167.019-.275.132-.102.309.173.177.374.419.486.675.136.312.192.49.231.717.025.146.14.33.271.185z" fill="#b79178"/></svg>