<svg id="レイヤー_1" xmlns="http://www.w3.org/2000/svg" viewBox="0 0 128 128"><g><path d="M122.776 24.275c-5.278-5.271-13.145-1.027-18.22 2.174-10.172 6.414-20.724 15.471-27.333 25.604-2.067 3.178-4.965 1.328-8.733-.512-6.842-3.344-15.823-5.027-25.776-4.303-9.565.689-19.944 4.531-26.073 9.787C12.96 60.179 8.298 64.166 5.489 69.3c-4.231 7.737-7.14 15.2-3.236 27.471.14.441 3.453 8.686 7.215 13.021.836.967 3.719 3.604 5.997 4.756 5.72 2.891 15.138 8.418 34.064 4.785 20.001-3.844 28.477-15.09 32.731-24.576 3.062-6.842 2.39-14.996 2.39-14.996l-1.692-12.998c.033-.26.029-.516.091-.773.657-2.949 3.128-5.791 5.24-7.852 8.39-8.203 17.915-12.197 28.304-17.478 3.707-1.887 8.654-3.006 10.551-7.061 1.739-3.72-2.059-7.009-4.368-9.324z" fill="#ed6c30"/><path d="M8.773 95.789c-3.146-4.859-3.798-13.957-.038-22.35C18.302 56.463 37 49.832 50.425 51.232c5.829.609 12.309 2.057 17.075 5.104 6.094 3.895 8.753 10.15 9.011 14.305.624 10.074-1.12 16.281-6.645 22.867-5.366 6.404-13.791 13.113-26.987 14.484-17.798 1.865-28.388-3.365-34.106-12.203z" fill="#2f2f2f"/><path d="M47.797 100.512c-3.694.83-6.808-.061-10.285-1.309-3.612-1.311-7.459-.078-11.142-.965-3.493-.83-6.738-3.17-8.608-6.248-6.151-10.142 3.973-22.143 13.023-26.178 6.605-2.941 14.459-4.127 21.308-3.359 3.357.377 8.06 3.262 10.469 5.529 1.926 1.811 3.617 4.99 4.138 7.568 2.192 10.927-8.8 22.68-18.903 24.962z" fill="#fff"/><path d="M49.858 73.1c-1.034-1.137-2.328-1.951-3.725-2.473-1.862-.697-3.923-.891-5.923-.627-3.055.406-6.067 1.887-7.88 4.607a8.843 8.843 0 0 0-1.399 5.994c.296 2.297 1.552 4.492 3.704 5.836 2.024 1.242 4.552 1.455 7.077 1.143 2.57-.35 5.174-1.301 7.202-2.883 1.006-.799 1.88-1.774 2.463-2.94a6.778 6.778 0 0 0 .669-3.949l-.073-.428a8.659 8.659 0 0 0-2.115-4.28z" fill="#fcc21b"/></g></svg>