<svg id="レイヤー_1" xmlns="http://www.w3.org/2000/svg" xmlns:xlink="http://www.w3.org/1999/xlink" viewBox="0 0 128 128"><g><g><g><g><path d="M57.682 99.279c-.621.554-.171 1.692-.171 2.459-.004.883 0 1.775 0 2.663-.004 1.446-.517 2.709-1.338 3.854-2.212 3.096-6.142 4.358-9.467 5.854-2.25 1.013-7.759 3.375-7.438 6.492.396 3.788 7.009 5.388 9.872 6.038 6.638 1.517 13.505 1.142 20.234.608 2.851-.229 5.777-.671 8.547-1.388 2.004-.517 6.858-1.746 7.529-4.134 1.217-4.392-7.563-6.905-10.271-8.071-3.717-1.596-7.859-3.784-7.861-8.396-.006-1.275-.01-2.517.182-3.746.125-.817-.18-2.5.675-2.921l-10.493.688z" fill="#fff"/><path d="M62.307 107.184c1.101 7.029 8.076 10.021 10.83 11.205.45.192 1.038.417 1.717.675.673.258 2.062.784 3.342 1.375a69.55 69.55 0 0 1-1.566.434c-2.321.6-4.9 1.017-7.663 1.237-2.954.233-6.106.45-9.148.45-3.626 0-6.744-.309-9.536-.946-2.138-.483-3.549-.95-4.476-1.334a38.492 38.492 0 0 1 2.784-1.367l.229-.104c.504-.229 1.025-.446 1.546-.671 3.255-1.383 7.305-3.108 9.997-6.884.927-1.291 1.579-2.653 1.944-4.07m5.867-8.592h.009-.009zm0 0l-10.492.688c-.621.554-.171 1.692-.171 2.459-.004.883 0 1.775 0 2.663-.004 1.446-.517 2.709-1.338 3.854-2.212 3.096-6.142 4.358-9.467 5.854-2.25 1.013-7.759 3.375-7.438 6.492.396 3.788 7.009 5.388 9.872 6.038 3.513.8 7.088 1.075 10.678 1.075 3.189 0 6.386-.217 9.557-.467 2.851-.229 5.777-.671 8.547-1.388 2.004-.517 6.858-1.746 7.529-4.134 1.217-4.392-7.563-6.905-10.271-8.071-3.717-1.596-7.859-3.784-7.861-8.396-.006-1.275-.01-2.517.182-3.746.123-.817-.182-2.5.673-2.921z" fill="#78a3ad"/></g><g><path d="M95.667 57.297c-2.149-9.847 1.009-17.03 1.009-17.03H30.955s3.158 7.184 1.008 17.03c-1.929 10.134-8.634 19.185-5.713 33.24 4.701 22.614 36.65 21.98 36.65 21.98s.327.004.919-.017c.588.021.921.017.921.017s31.939.633 36.64-21.98c2.922-14.055-3.779-23.105-5.713-33.24z" fill="#fff"/><path d="M90.192 45.355a37.116 37.116 0 0 0 .491 12.963c.677 3.5 1.829 6.8 2.942 9.997 2.316 6.629 4.5 12.892 2.775 21.188-3.622 17.426-28.569 17.931-31.402 17.931l-.158-.004h-.18c-.104 0-.333 0-.662-.012-.057-.004-.121-.004-.18-.004-.062 0-.121 0-.179.004-.334.012-.559.012-.68.012h-.155l-.171.004c-2.833 0-27.778-.504-31.406-17.931-1.721-8.292.463-14.555 2.775-21.185 1.117-3.196 2.271-6.5 2.942-10 1.092-5.05.975-9.526.495-12.963h52.753m6.484-5.088h.013-.013zm0 0H30.955s3.158 7.184 1.008 17.03c-1.929 10.134-8.634 19.185-5.713 33.24 4.451 21.414 33.332 21.985 36.386 21.985.171 0 .265-.004.265-.004h.077c.132 0 .423-.004.842-.017.421.013.709.017.842.017h.079s.088.004.259.004c3.054 0 31.931-.571 36.381-21.985 2.922-14.055-3.779-23.105-5.713-33.24-2.15-9.846 1.008-17.03 1.008-17.03z" fill="#78a3ad"/></g><g><path d="M96.676 40.271c0 7.025-14.718 10.938-32.864 10.938-18.147 0-32.86-3.913-32.86-10.938 0-7.021 14.713-10.942 32.86-10.942 18.146 0 32.864 3.921 32.864 10.942z" fill="#fff"/><path d="M63.812 35.146c16.997 0 25.076 3.454 26.826 5.125-1.75 1.671-9.829 5.121-26.826 5.121-16.995 0-25.073-3.45-26.823-5.121 1.754-1.671 9.829-5.125 26.823-5.125m0-5.817c-18.147 0-32.86 3.921-32.86 10.942 0 7.025 14.713 10.938 32.86 10.938 18.146 0 32.864-3.913 32.864-10.938 0-7.021-14.718-10.942-32.864-10.942z" fill="#78a3ad"/></g><g><defs><path id="SVGID_1_" d="M85.321 58.635c-.795-.633-1.871-.096-2.917.129-6.086 1.317-12.376 1.725-18.593 1.725-1.536 0-3.071-.029-4.604-.087-3.154-.125-6.305-.383-9.43-.83a65.7 65.7 0 0 1-4.184-.729c-.638-.133-1.305-.375-1.95-.438-.43-.046-1.292-.054-1.588.279-.195.217-.309.725-.379 1.017-.25 1.05-.267 2.163-.5 3.221-1.371 7.205-6.134 13.634-4.059 23.622 3.342 16.072 26.047 15.622 26.047 15.622s.235 0 .652-.013c.419.013.656.013.656.013s22.697.45 26.039-15.622c2.075-9.988-2.688-16.417-4.062-23.622-.146-.775-.299-1.542-.375-2.33-.046-.454-.046-.938-.271-1.35a2.01 2.01 0 0 0-.482-.607z"/></defs><use xlink:href="#SVGID_1_" overflow="visible" fill="#f79329"/><clipPath id="SVGID_2_"><use xlink:href="#SVGID_1_" overflow="visible"/></clipPath></g></g><g><defs><path id="SVGID_3_" d="M31.788 59.618c.629-1.725.93-3.5 1.417-5.242.188-.659.152-1.358.309-2.025.129-.55.222-.933.112-1.487-.275-1.396-.77-1.775-1.028-3.167-.146-.775-.278-3.343-.091-4.123.421-1.767 2.321-3.769 5.399-2.628 2.008.744 3.091 1.542 5.079 2.351.456.184.831.346 1.308.146.671-.284 1.217-.9 1.779-1.35.577-.454 1.16-.892 1.671-1.417 1.713-1.763 3.65-3.35 5.126-5.333.866-1.162 1.929-2.258 2.899-3.338 1.317-1.462 2.68-2.921 3.942-4.425 1.7-2.033 2.842-4.296 3.691-6.771.684-1.988 1.63-4.15 1.707-6.267.031-.975-.123-1.733-.307-2.663-.179-.909-.054-1.779-.329-2.671-.237-.775-.787-1.292-1.259-1.925-.521-.7-1.021-1.388-1.564-2.075-.75-.942-1.314-1.704-2.427-2.259-3.275-1.633-7.301-1.862-10.88-2.233-7.559-.791-15.608.25-22.765 2.842-3.261 1.183-6.588 3.008-9.112 5.417-1.356 1.3-2.184 2.954-3.184 4.529-1.255 1.983-2.463 4.079-3.347 6.263-1.408 3.479-1.717 7.226-2.483 10.859-.375 1.775-.537 3.7-.55 5.517-.017 1.917.6 3.925.862 5.821.812 5.872 1.983 11.868 4.847 17.114 2.175 3.988 4.392 7.917 8.934 9.421 1.913.633 4.863 1.104 6.146-.987 1.444-2.347 3.065-5.06 4.098-7.894z"/></defs><clipPath id="SVGID_4_"><use xlink:href="#SVGID_3_" overflow="visible"/></clipPath><g clip-path="url(#SVGID_4_)"><g><defs><path id="SVGID_5_" d="M22.492 59.852c-.213.179-.438.325-.696.392-1.721.45-2.612-1.496-3.375-2.617a29.337 29.337 0 0 1-2.709-4.958c-1.471-3.438-2.274-7.122-2.643-10.838-.857-8.546.661-16.696 5.915-23.33C25.959 9.692 35.255 7.082 43.947 7.148c3.404.029 6.792.65 10.051 1.608 1.821.533 4.922 1.643 4.796 3.325-.18 2.401-2.603 4.892-3.967 6.671a247.108 247.108 0 0 1-8.204 10.142c-2.955 3.471-5.326 7.38-7.992 11.063-4.196 5.794-15.894 19.69-16.139 19.895z"/></defs><use xlink:href="#SVGID_5_" overflow="visible" fill="#f79329"/><clipPath id="SVGID_6_"><use xlink:href="#SVGID_5_" overflow="visible"/></clipPath><path d="M24.101 23.966c-1.453 1.861-2.271 4.25-2.33 6.597-.054 1.9.34 4.062 2.184 4.954 1.146.559 17.285 4.192 18.427 3.359.649-.475.837-1.184.691-1.971-.254-1.388-7.055-14.618-9.551-16.972-2.383-2.251-6.312.051-9.421 4.033z" clip-path="url(#SVGID_6_)" fill="#fcc21b"/><path d="M19.846 48.397c2.53 7.129 6.776 9.862 6.776 9.862s1.258-.299 2.149-.395c.812-.088 1.112-.529 1.633-1.054.722-.729 1.551-1.342 2.255-2.083.904-.955 1.671-2.092 2.542-3.096.7-.8 1.175-1.771 1.741-2.646.43-.667.988-1.142 1.434-1.792.93-1.358 3.505-3.483 3.476-5.192-.006-.437.524-2.141.524-2.141s-17.921-.008-20.651.82c-3.138.945-3.452 3.287-1.879 7.717z" clip-path="url(#SVGID_6_)" fill="#fcc21b"/><path d="M50.748 13.273c1.833.592 5.462 1.961 6.628 3.961.441.757-.586 2.448-.965 3.085-.518.888-.893 1.846-1.426 2.721-.684 1.117-1.592 2.154-2.329 3.258-.59.884-1.4 1.596-2.096 2.367-.533.591-.851 1.254-1.363 1.854-1.066 1.246-2.483 4.167-4.112 4.705-1.542.509-4.638-9.418-6.505-19.093-.407-2.112 1.662-2.948 3.818-3.421 3.312-.726 6.617.014 8.35.563z" clip-path="url(#SVGID_6_)" fill="#fcc21b"/></g></g></g></g><g><g><path d="M121.191 23.699c-2.785-2.775-6.015-4.071-9.364-4.517.337.042.733-1.3.804-1.508.2-.571.513-.867.892-1.346.346-.446.555-.921.783-1.417.476-1.021.613-1.842.479-2.975-.154-1.363-.553-2.488-1.383-3.583-.717-.946-1.488-2.021-2.501-2.667-1.002-.642-1.808-.983-2.987-.979-1.617 0-2.688-1.35-4.213-1.767-2.325-.637-4.309.284-6.233 1.488-.446.279-2.899 1.646-2.671 2.212-.354-.867-.755-1.716-1.263-2.525C90.61-.51 84.487-.494 80.125 1.777c-1.171.613-1.847 1.746-3.154 2.28-1.088.45-1.93 1.27-2.759 2.087-1.983 1.95-2.4 5.055-2.079 7.655.32 2.608 1.688 4.267 3.759 5.642-2.571.242-5.021 1.033-7.021 2.691-2.334 1.93-3.634 4.484-3.604 7.584.017 1.883 1.013 3.784 1.138 5.775.104 1.559.904 3.009 1.75 4.238 3.029 4.367 9.088 5.68 13.942 4.096.075 1.492.379 2.909.996 4.125 1.008 2 3.075 3.846 5.071 4.63 1.342.529 3.304.296 4.513 1.117 1.175.804 2.342 1.271 3.733 1.304 5.305.133 10.93-3.225 12.501-8.713.221-.792.316-1.629.322-2.487 2.937.316 5.891-.067 7.486-.983 1.754-1.008 2.459-2.834 4.088-3.909 1.412-.934 2.713-2.458 2.475-4.375-.488-3.963 1.346-7.409-2.091-10.835z" fill="#ed6c30"/></g><path d="M91.726 14.416c-.347.045-.719-.158-1.199-.448-.963-.581-1.835-1.314-2.843-1.82-1.125-.564-2.296-1.066-3.554-1.23-.45-.059-.994-.149-1.429.021-1.643.644-.589 2.057.204 2.92 1.034 1.124 2.153 2.16 3.03 3.417.686.984 3.205 3.654.357 2.96-1.281-.312-2.677-.321-3.99-.283-1.235.036-2.459.297-3.474 1.037-.335.244-.85.652-.743 1.132.092.419.591.661.941.82 1.301.588 2.77.808 4.148 1.142.602.146 1.265.269 1.8.594 1.136.69-.586 1.069-1.099 1.329-.475.239-.983.431-1.453.688-.601.329-1.194.674-1.757 1.065a8.426 8.426 0 0 0-.897.699c-.718.657-1.493 2.403.097 2.4a15.664 15.664 0 0 0 1.994-.155c.771-.1 3.766-.997 4.195.021.241.577-.434 1.241-.686 1.71-.559 1.037-1.045 2.126-1.324 3.273-.244 1.005-.662 2.94.779 3.233 1.241.253 2.371-1.185 3.125-1.971 1.025-1.068 1.99-2.277 3.318-2.985 2.123-1.13 1.573 2.208 1.464 3.517-.11 1.336-.022 2.718-.022 4.064 0 .527-.07 1.22.564 1.408 2.567.765 3.045-4.124 3.596-5.653.796-2.208 2.672.118 3.397 1.116.449.618 2.735 5.184 3.633 2.963.324-.802.139-1.89.143-2.754.004-.899-.257-1.797-.5-2.644-.105-.367-.264-.726-.354-1.101-.095-.395-.159-.615.29-.667 1.536-.178 3.074.682 4.44 1.262.449.191 4.361 1.698 4.562.745.302-1.43-.769-2.789-1.67-3.77-.557-.605-1.163-1.163-1.777-1.71-.438-.391-1.044-.714-.519-1.307.181-.204.35-.273.619-.282.852-.029 1.738.118 2.597.124.82.005 2.178.38 2.903-.119 1.277-.879-.658-2.808-1.021-3.709-.341-.852-1.07-1.557-1.769-2.15a8.733 8.733 0 0 0-2.442-1.474 7.8 7.8 0 0 0-1.384-.4c-.133-.025-1.47-.126-1.473-.137-.387-1.383 5.02-5.384 5.951-6.976-1.391-.292-3.38-.292-4.78 0-1.176.245-2.206.905-3.345 1.263-.356.111-1.094.387-1.456.167-.389-.236-.163-.864-.041-1.198.179-.491.652-1.01.996-1.412.635-.742 2.038-2.269.158-2.408-1.682-.124-3.384 1.203-4.714 2.088-.524.349-.983.833-1.493 1.21-.273.203-.482.441-.841.222-.244-.149-.373-.486-.339-.763.082-.666.34-1.322.566-1.949.316-.873 1.006-2.116.827-3.063-.199-1.065-1.387-.547-1.943-.087-.617.51-1.076 1.195-1.554 1.816a15.45 15.45 0 0 0-1.358 2.087c-.282.524-.364 1.092-.715 1.571-.25.349-.486.509-.736.541z" fill="#fff"/><path d="M125.567 13.715c-3.04-3.825-8.095-4.534-12.665-3.575-2.709.566-4.81 2.483-7.347 3.458-2.838 1.092-6.025.934-8.813 2.146-6.2 2.696-8.674 12.422-1.171 15.172 2.143.788 4.521 1.217 6.78.717 3.009-.659 4.938-3.45 7.913-4.184 2.074-.508 4.25-.233 6.344-.633a22.336 22.336 0 0 0 2.552-.65c2.117-.683 4.389-1.675 6.001-3.25 2.484-2.434 2.531-6.534.406-9.201z" fill="#ed6c30"/><path d="M119.202 21.924c-1.171.508-2.434.867-3.625 1.017-2.075.267-4.146-.158-6.279.35-2.946.692-5.213 3.225-8.109 4.038-3.559 1.004-6.267-.433-6.292-4.179-.013-1.304.663-2.009 1.767-2.708 2.305-1.458 5.188-1.554 7.746-2.309 1.025-.3 2.08-.738 3.088-1.175.921-.4 1.738-1 2.617-1.517 2.037-1.204 5.288-1.8 7.625-1.575 2.417.225 5.53.675 5.521 3.675-.008 1.842-.61 2.371-2.1 3.342-.6.391-1.259.741-1.959 1.041z" fill="#fcc21b"/></g></g></svg>