<svg xmlns="http://www.w3.org/2000/svg" xmlns:xlink="http://www.w3.org/1999/xlink" viewBox="0 0 128 128"><g id="Layer_2"><g><g fill="#e0e0e0"><path d="M40.497 32.497l-5.17.254 1.038 76.165c0 12.779 18.542 17.663 35.942 17.663V32.497h-31.81z"/><path d="M104.117 32.497l5.17.254-1.038 76.165c0 12.779-18.542 17.663-35.942 17.663V32.497h31.81z"/></g><path d="M72.307 23.858c-9.244 0-17.893 1.059-24.354 2.983-5.547 1.651-8.858 3.813-8.858 5.783 0 1.97 3.311 4.132 8.858 5.783 6.461 1.923 15.11 2.982 24.354 2.982s17.892-1.059 24.353-2.982c5.547-1.651 8.858-3.813 8.858-5.783 0-1.97-3.311-4.132-8.858-5.784-6.461-1.923-15.109-2.982-24.353-2.982z" fill="#fafafa"/><g><path d="M42.726 61.644l.35 42.366c.28 2.379 2.228 4.67 4.894 5.892 4.764 2.185 14.083 4.338 24.4 4.338 9.851 0 18.233-1.964 23.1-4.023 3.082-1.304 5.567-3.922 5.938-6.177l.466-42.397" fill="#facc30"/></g><ellipse cx="72.307" cy="61.644" rx="29.58" ry="7.301" fill="#e4a324"/><g><path d="M72.307 43.218c-21.087 0-36.988-4.555-36.988-10.594 0-6.04 15.901-10.595 36.988-10.595 21.086 0 36.987 4.555 36.987 10.595 0 6.04-15.901 10.594-36.987 10.594zm0-19.36c-9.244 0-17.893 1.059-24.354 2.983-5.547 1.651-8.858 3.813-8.858 5.783 0 1.97 3.311 4.132 8.858 5.783 6.461 1.923 15.11 2.982 24.354 2.982s17.892-1.059 24.353-2.982c5.547-1.651 8.858-3.813 8.858-5.783 0-1.97-3.311-4.132-8.858-5.784-6.461-1.923-15.109-2.982-24.353-2.982z" fill="#cecfd0"/></g><g fill="#e4a324"><circle cx="85.776" cy="106.823" r="1.411"/><circle cx="88.908" cy="102.941" r=".972"/><circle cx="82.653" cy="101.126" r="1.712"/><circle cx="88.598" cy="99.362" r="1.763"/><circle cx="82.954" cy="91.83" r="1.411"/><circle cx="86.68" cy="92.508" r="1.256"/><circle cx="92.014" cy="84.416" r="1.256"/><circle cx="79.95" cy="76.936" r="1.593"/><circle cx="87.936" cy="88.474" r="1.945"/><circle cx="82.852" cy="82.504" r="1.912"/><circle cx="89.347" cy="80.182" r="1.411"/></g><path d="M41.458 41.712l-6.157-4.463s-2.5 2.875-11.144 4.375c-7.397 1.284-15.356 5.5-14.603 30.079.657 21.44 3.55 26.315 15.974 29.254 10.815 2.558 10.8 5.549 10.8 5.549l5.415-3.816V76.169l-.285-34.457zM27.99 90.039c-6.936 0-6.936-7.872-6.936-17.582s0-17.582 6.936-17.582 6.936 7.872 6.936 17.582-.426 17.582-6.936 17.582z" fill="#e0e0e0"/><path d="M101.014 112.5c-.594 1.711-2.675 4.903-8.567 7.185-3.633 1.407-8.972 2.662-13.374 2.22-.943-.095-.649-1.011-.007-1.126 3.665-.653 7.234-1.636 11.459-3.34 5.501-2.22 9.18-5.166 9.698-5.532.88-.621.891.304.791.593z" fill="#fff"/><path d="M56.174 50.9c-1.552-1.176-2.749-2.223-4.891-3.234-1.021-.482-2.631-.562-4.075-.509l.224 27.685c.029.294.293 1.06 1.287 1.478.827.348 5.579 1.521 9.167 2.138.943.107 1.51-.331 1.526-.797l.108-25.087c-1.294-.466-2.58-1.094-3.346-1.674z" fill="#fff"/><path d="M24.511 45.127c-3.082.524-5.122 1.69-7.159 4.063-1.394 1.623-3.264 5.167-3.123 8.429.011.251.142 1.616.709 1.56.883-.088 1.122-1.171 1.199-1.635.251-1.51 1.919-5.404 3.027-6.674 2.127-2.439 4.973-3.034 6.125-3.431.684-.236 2.451-1.097 2.317-1.721-.216-1.003-2.454-.7-3.095-.591z" fill="#fff"/><g><defs><path id="SVGID_1_" d="M47.227 5.953c-1.097.822-2.122 1.781-3.435 2.176-2.212.67-4.572-.242-6.875.679-6.505 2.6-9.555 7.969-7.129 14.484.813 2.184-.035 3.223-.61 5.369-1.564 5.896 2.557 13.331 9.064 14.039 3.89.423 7.641-1.413 11.435-1.01 3.2.344 4.852 3.312 7.681 4.416 2.674 1.043 5.668 1.315 8.515 1.226 3.83-.12 8.838-3.093 12.345-.34 5.421 4.258 1.886 13.042 8.376 16.902 2.656 1.581 6.273 1.204 8.789-.387 4.838-3.05 3.673-9.36 5.077-14.047.362-1.251.867-2.391 1.978-3.159 1.113-.768 2.343-.561 3.564-1.035 1.643-.637 3.195-1.515 4.443-2.77 1.456-1.468.404-4.203 2.836-4.678.747-.149 1.728-.569 2.31-1.005 3.152-2.38 3.843-7.168 1.565-10.383-.843-1.179-1.477-1.509-1.658-2.968-.168-1.324.129-2.473-.375-3.822-1.233-3.33-4.27-5.429-7.659-6.336-.631-.17-1.296-.31-1.947-.429-1.092-.198-1.995-.241-2.835-1.043-.434-.407-.765-1.009-1.069-1.509-.86-1.366-2.009-2.451-3.282-3.427-3.773-2.909-8.793-3.58-13.452-2.939-1.265.169-2.382.601-3.581 1.039-3.009 1.094-4.182-.891-6.59-2.164-2.999-1.578-6.59-1.62-9.875-1.141-1.93.284-3.358 1.421-5.095 2.146-2.008.849-3.139.233-5.146.09-1.791-.123-3.696.326-5.382.899-.723.244-1.367.665-1.983 1.127z"/></defs><use xlink:href="#SVGID_1_" overflow="visible" fill="#e9e2cf"/><clipPath id="SVGID_2_"><use xlink:href="#SVGID_1_" overflow="visible"/></clipPath><path d="M117.001 20.188c-.639 2.831-2.843 5.255-5.601 6.16-2.758.905-5.97.257-8.161-1.646-.983 1.336-3.642.037-4.415.563-.773.526-2.296 5.477-5.1 5.724-1.7 2.054-4.551 3.084-7.171 2.593s-4.566-5.242-5.742-5.017-1.831 1.916-3.117 2.012c-.641.048-1.31-.06-1.911.169-1.233.469-1.6 2.08-2.675 2.844-1.031.732-2.448.522-3.646.926-.77.26-1.428.767-2.121 1.192-2.754 1.688-6.265 2.082-9.325 1.046-3.059-1.036-5.609-3.482-6.77-6.497-1.778 2.035-6.382 3.506-7.788 3.104s-2.777 2.43-4.638 2.802c-1.977.395-4.009.79-5.995.444-1.986-.346-3.946-1.606-4.521-3.538a25.51 25.51 0 0 1-3.492 7.311l21.359 9.904c.972.451 1.965.916 2.723 1.673 1.756 1.755 1.871 4.669 3.578 6.471 1.817 1.919 4.797 1.989 7.438 1.926l7.611-.182c1.181-.028 2.419-.044 3.47.494 2.907 1.486 2.611 5.983 5.028 8.178 1.855 1.684 4.686 1.504 7.175 1.213a1071.29 1071.29 0 0 0 20.98-2.664c.652-.089 1.32-.184 1.9-.494.797-.425 1.335-1.2 1.855-1.939a74.731 74.731 0 0 1 14.942-15.715c1.446-1.133 2.978-2.262 3.867-3.87.798-1.442.999-3.128 1.185-4.765l.597-5.259c.083-.733.165-1.49-.044-2.198-.291-.984-1.09-1.717-1.816-2.444a25.954 25.954 0 0 1-4.67-6.39c-.58-1.121-1.095-2.308-1.972-3.215-.878-.908-2.241-1.485-3.421-1.037" clip-path="url(#SVGID_2_)" fill="#e2d2ba"/></g><path d="M84.575 45.288c2.01 1.755 2.305 4.807 2.467 7.512.168 2.815 1.03 7.925 2.929 7.604 1.293-.407 1.548-2.096 1.569-3.452.052-3.34.078-6.808-1.311-9.846-.608-1.331-1.533-2.587-2.854-3.214-1.191-.565-4.438-.706-2.8 1.396" fill="#f6eeda"/></g></g></svg>