<svg xmlns="http://www.w3.org/2000/svg" xmlns:xlink="http://www.w3.org/1999/xlink" viewBox="0 0 128 128"><g id="图层_1"><g><g><g><g><g><g><defs/><use xlink:href="#SVGID_1_" overflow="visible" fill="#fff"/><clipPath id="SVGID_2_"><use xlink:href="#SVGID_1_" overflow="visible"/></clipPath></g><g/></g></g></g><g><defs/><use xlink:href="#SVGID_3_" overflow="visible" fill="#37b4e2"/><clipPath id="SVGID_4_"><use xlink:href="#SVGID_3_" overflow="visible"/></clipPath></g></g><g/><g><defs/><use xlink:href="#SVGID_5_" overflow="visible" fill="#626e30"/><clipPath id="SVGID_6_"><use xlink:href="#SVGID_5_" overflow="visible"/></clipPath></g><g/></g><g/><g><path d="M61.06 39.683C27.072 38.334 9.28 27.877 9.422 28.367c2.434 8.358 45.056 40.066 45.567 44.07 1.965 15.425 1.287 27.054.47 31.376-.751 3.973-2.267 6.473-3.223 7.234-2.605 2.061-5.21 2.902-9.114 3.897-2.635.674-8.721 1.94-8.721 5.536 0 4.532 14.778 6.837 26.659 6.837V39.683z" fill="#d1ebed"/><path d="M61.06 39.683c33.988-1.348 51.78-11.806 51.638-11.316-2.434 8.358-45.056 40.066-45.567 44.07-1.965 15.425-1.287 27.054-.47 31.376.751 3.973 2.267 6.473 3.223 7.234 2.605 2.061 5.21 2.902 9.114 3.897 2.635.674 8.721 1.94 8.721 5.536 0 4.532-14.778 6.837-26.659 6.837V39.683z" fill="#d1ebed"/><path d="M45.373 118.476c-.821-.124-1.821.226-1.746.923.06.573.782.887 1.408 1.081 2.51.789 6.471 1.166 10.646 1.412.566.033 1.66-.079 2.011-.458.376-.407.115-.867-.381-1.204-.495-.336-1.147-.437-1.768-.5-5.187-.439-6.066-.564-10.17-1.254z" fill="#fff"/><path d="M61.06 38.325H28.254l25.972 22.999c3.832 3.393 9.837 3.393 13.669 0l25.972-22.999H61.06z" fill="#f1f8e9"/><g><path d="M113.111 26.128c0 9.953-23.298 15.497-52.052 15.497-28.757 0-52.05-5.544-52.05-15.497 0-9.945 23.293-15.503 52.05-15.503 28.754 0 52.052 5.558 52.052 15.503z" fill="#aecece"/><g><defs><path id="SVGID_7_" d="M107.972 26.128c0 7.829-20.997 12.19-46.913 12.19-25.918 0-46.911-4.361-46.911-12.19 0-7.823 20.994-12.195 46.911-12.195 25.916 0 46.913 4.372 46.913 12.195z"/></defs><use xlink:href="#SVGID_7_" overflow="visible" fill="#d1ebed"/><clipPath id="SVGID_8_"><use xlink:href="#SVGID_7_" overflow="visible"/></clipPath><path d="M99.923 38.328c0 7.829-17.395 12.19-38.864 12.19-21.471 0-38.862-4.361-38.862-12.19 0-7.823 17.392-12.195 38.862-12.195 21.469 0 38.864 4.372 38.864 12.195z" clip-path="url(#SVGID_8_)" fill="#e6ee9c"/></g></g><path fill="#fbb817" d="M59.353 48.523l3.898 3.885 12.272-12.317-7.968.199z"/><g><defs><path id="SVGID_9_" d="M67.696 52.1c0 4.419-3.793 8.006-8.479 8.006-4.677 0-8.47-3.587-8.47-8.006 0-4.428 3.793-8.011 8.47-8.011 4.686 0 8.479 3.583 8.479 8.011z"/></defs><use xlink:href="#SVGID_9_" overflow="visible" fill="#626e30"/><clipPath id="SVGID_10_"><use xlink:href="#SVGID_9_" overflow="visible"/></clipPath></g><path d="M61.059 10.625c-28.757 0-52.05 5.558-52.05 15.503 0 9.953 23.293 15.497 52.05 15.497 28.755 0 52.052-5.544 52.052-15.497 0-9.945-23.297-15.503-52.052-15.503zm0 27.692c-25.918 0-46.911-4.361-46.911-12.19 0-7.823 20.994-12.195 46.911-12.195 25.916 0 46.913 4.372 46.913 12.195 0 7.829-20.997 12.19-46.913 12.19z" fill="#aecece"/><path d="M117.853 1.811c-1.081-1.072-2.446-1.445-3.054-.835L78.304 37.607c3.111-.281 6.077-.622 8.821-1.056l31.576-31.692c.609-.611.228-1.976-.848-3.048z" fill="#fbb817"/></g></g></svg>