<svg id="レイヤー_1" xmlns="http://www.w3.org/2000/svg" xmlns:xlink="http://www.w3.org/1999/xlink" viewBox="0 0 128 128"><g><path d="M16.312 65.126c5.398-18.301 27.557-25.691 44.657-25.747 16.188-.057 35.512 4.804 46.257 17.911 2.409 2.93 4.101 6.374 4.743 10.09 1.318 7.574-2.62 15.379-8.653 20.015a46.543 46.543 0 0 1-18.633 8.638 88.495 88.495 0 0 1-11.389 1.676c-4.91.393-9.959.325-14.874-.032-4.256-.31-8.569-.866-12.749-1.691-7.773-1.54-16.18-3.835-22.389-8.884-2.858-2.325-5.098-5.771-6.272-9.216-1.23-3.598-1.786-9.061-.698-12.76z" fill="#855c52"/><g><path d="M127.72 74.094c.072-3.705-.643-7.516-2.437-10.842-1.255-2.318-3.081-4.391-5.485-5.739a13.246 13.246 0 0 0-3.985-1.445c-1.581-.31-3.072-.318-4.423-1-1.198-.604-2.062-1.952-2.953-2.937a44.41 44.41 0 0 0-3.119-3.08 48.64 48.64 0 0 0-7.051-5.241c-5.749-3.539-12.155-5.969-18.75-7.256-12.129-2.365-25.503-2.883-37.363 1.044-7.131 2.362-14.147 5.729-19.815 10.786a28.532 28.532 0 0 0-3.383 3.585c-.883 1.121-1.703 2.139-2.929 2.916-.366.23-.691.43-1.12.509-1.937.35-3.906.689-5.74 1.429-5.112 2.049-7.915 9.083-8.59 14.092-.515 3.796-.595 7.946 1.636 11.222 2.588 3.791 7.486 3.56 10.266 6.904 2.286 2.754 2.763 6.819 4.513 9.915 2.592 4.589 6.275 8.47 10.531 11.56 8.32 6.033 18.649 9.178 28.831 10.011 5.759.469 11.976.322 17.699-.491 10.909-1.549 21.516-6.646 29.137-14.664a40.339 40.339 0 0 0 6.463-8.964 37.961 37.961 0 0 0 2.246-5.232c1.12-3.271 3.185-3.65 6.244-4.431 1.298-.332 2.553-.809 3.696-1.467a11.252 11.252 0 0 0 4.832-5.551c.716-1.795 1.014-3.725 1.049-5.633zM16.312 65.126c5.398-18.301 27.557-25.691 44.657-25.747 16.188-.057 35.512 4.804 46.257 17.911 2.409 2.93 4.101 6.374 4.743 10.09 1.318 7.574-2.62 15.379-8.653 20.015a46.543 46.543 0 0 1-18.633 8.638 88.495 88.495 0 0 1-11.389 1.676c-4.91.393-9.959.325-14.874-.032-4.256-.31-8.569-.866-12.749-1.691-7.773-1.54-16.18-3.835-22.389-8.884-2.858-2.325-5.098-5.771-6.272-9.216-1.23-3.598-1.786-9.061-.698-12.76z" fill="#b89278"/></g><g><defs><path id="SVGID_1_" d="M11.294 51.319c5.391-18.308 32.938-14.68 50.049-14.735 16.189-.056 36.495 4.169 47.249 17.276 2.402 2.929 2.734 9.804 3.377 13.519 1.318 7.574-2.62 15.379-8.653 20.015a46.543 46.543 0 0 1-18.633 8.638 88.495 88.495 0 0 1-11.389 1.676c-4.91.393-9.959.325-14.874-.032-4.256-.31-8.569-.866-12.749-1.691-7.773-1.54-16.18-3.835-22.389-8.884-2.858-2.325-5.098-5.771-6.272-9.216-1.23-3.597-6.803-22.874-5.716-26.566z"/></defs><clipPath id="SVGID_2_"><use xlink:href="#SVGID_1_" overflow="visible"/></clipPath><g clip-path="url(#SVGID_2_)"><g><path d="M45.393 54.813c-.166-1.318 1.056-3.034 1.707-4.13.856-1.436 1.933-3.341 3.128-4.529.992-.991 3.699-1.758 5.072-1.512.818.143 1.857.746 2.604 1.087 1.326.592 2.827 1.311 4.077 2.029 1.106.639 3.092 2.425 4.555 1.878.958-.356 2.007-1.448 2.977-1.938 1.506-.763 3.071-1.429 4.555-2.23.913-.492 2.255-1.596 3.336-1.588 1.583.007 2.961 1.334 4.12 2.237.833.651 1.714 1.096 2.492 1.84.763.727 1.295 1.566 1.97 2.361.658.771 2.595 2.39 2.619 3.485.024 1.079-3.267 2.429-4.14 2.795-1.37.572-2.862.794-4.273 1.271-1.161.396-2.777.443-3.821 1.066-1.643.989-1.936 4.125-2.461 5.792-.309 1-.557 1.691-.571 2.787-.021 1.421-1.295 2.254-2.461 3.053-1.562 1.066-3.168 1.766-4.848 2.596-1.536.762-2.456.956-4.195.956-1.644.009-1.786-.341-2.277-1.952-.66-2.159-.98-4.303-1.914-6.376-.485-1.088-1.08-2.079-1.51-3.16-.329-.824-.491-1.848-1.206-2.452-.905-.786-2.183-1.413-3.191-2.12-.729-.499-1.365-1.279-2.278-1.468l-4.066-1.778z" fill="#fff"/><path d="M19.606 69.547c-.135-.563-.242-1.15-.452-1.651-.731-1.729-.54-3.636-1.076-5.382-.659-2.175-1.68-4.12-1.719-6.455-.044-2.499.389-4.097 2.357-5.723 1.188-.976 2.259-1.915 3.866-1.867 3.518.111 5.892 2.771 8.766 4.383 1.238.699 2.811.421 4.136.881 2.168.747 3.111 2.612 2.961 4.787-.159 2.137-.412 4.431-.376 6.55.027 1.303.591 3.589-.808 4.431-.729.444-1.952.421-2.794.317-2.723-.33-4.874-2.231-7.406-3.048-2.492-.811-3.875 1.261-5.121 3.009-.365.523-1.309 2.051-1.936.912-.184-.341-.303-.736-.398-1.144z" fill="#ed6c30"/><path d="M17.701 77.424c-.024 3.457 1.81 5.695 3.303 8.633 1.673 3.283 3.571 5.776 7.058 7.388 1.969.912 4.636 1.134 6.725.517 3.239-.974 4.922-3.519 6.05-6.582 1.191-3.203 1.071-6.74.345-10.035-.25-1.159.154-2.461-.214-3.524-.44-1.294-1.997-2.128-3.195-2.557-1.287-.461-2.938-.158-4.319-.191-1.715-.03-3.128-1.595-4.318-2.793-.763-.763-1.422-1.585-2.519-1.795-1.785-.342-4.374-.179-5.787 1.079-2.824 2.5-3.105 6.374-3.129 9.86z" fill="#ed6c30"/><path d="M36.755 67.769c-.02 3.458 1.81 5.697 3.303 8.634 1.666 3.284 3.572 5.776 7.057 7.388 1.969.913 4.633 1.136 6.726.516 3.238-.973 4.922-3.517 6.049-6.58.941-2.537.969-6.344-.079-8.88a19.069 19.069 0 0 0-2.981-4.887c-1.193-1.406-2.664-2.645-4.068-3.803-.738-.604-1.334-1.116-2.214-1.527-.874-.41-1.866-.339-2.748-.688-.763-.301-1.287-.952-2.127-1.11-1.786-.342-4.374-.18-5.788 1.079-2.821 2.498-3.106 6.372-3.13 9.858z" fill="#ed6c30"/><path d="M88.673 49.771c-.435-.397-.83-.745-1.089-1.04-2.48-2.827-4.822-5.152-8.062-7.152-2.874-1.78-5.637-.017-8.153 1.491-1.697 1.012-4.145 2.549-6.069 4.343a2.494 2.494 0 0 0-.477-.158c-.44-.096-1.75-1.222-2.036-1.413a25.621 25.621 0 0 0-4.271-2.414c-2.795-1.215-4.515-1.627-7.237-.082-2.814 1.598-4.895 4.401-7.006 6.782-.604.684-1.131 1.477-1.39 2.366-.286.961-.564 2.231-1.81 1.834-1.108-.35-1.708-1.262-2.597-1.929-1.254-.933-2.938-1.541-4.502-1.635-2.842-.175-3.89-2.159-6.256-3.133-2.223-.917-4.357-1.028-6.744-.846-3.966.31-7.736 3.689-7.76 7.814-.013 2.313-.064 4.663.929 6.811.412.897.754 1.119.841 2.119.069.802.335 1.493.461 2.284.206 1.257.325 2.86-.083 4.092-.401 1.203-.532 2.278-.799 3.541-.189.952-.282 1.469-.074 2.477.233 1.15.495 2.271.81 3.398.448 1.603.995 3.159 1.536 4.731.468 1.366.793 2.08 1.714 3.217 1.319 1.619 2.922 2.992 3.986 4.783.952 1.614 2.763 2.688 4.659 2.734 1.018.023 3.049.047 3.312-1.271.229-1.151-1.334-1.354-2.04-1.834-2.465-1.69-4.598-3.033-6.106-5.699-1.333-2.351-1.987-5.002-2.593-7.614-.495-2.172-.56-4.478.132-6.621.706-2.202 2.524-3.302 4.827-3.445 1.531-.096 3.659 2.684 5.104 3.469 2.517 1.366 5.001-.794 7.617 1.287 2.274 1.801 1.719 5.469 2.974 7.842 1.531 2.882 5.899.326 4.374-2.556-.786-1.483-.707-3.514-1.398-5.105-.842-1.93-1.937-3.391-3.5-4.533-.013-.12.015-.23-.017-.357-.869-3.168-.207-8.602 3.914-8.932 2.103-.167 3.175.254 4.831 1.549 1.449 1.128 3.29 1.453 4.528 2.858.191.214.389.372.596.5.206.715.517 1.461.93 2.262.643 1.263 1.047 2.676 1.786 3.891.254.412.643.707.89 1.119.348.588.427 1.302.777 1.897.31.532.592 1.438 1.247 1.484.531.045 1.284-.261 1.773-.477.584-.263 1.259-.436 1.774-.793 1.643-1.144-2.962-8.424-3.601-9.845-.655-1.469-.147-1.493 1.131-2.389 1.835-1.304 4.257-3.344 6.657-3.177 1.378.096 2.529.869 3.371 1.89.766.913 1.777 3.239 3.238 2 .606-.516 1.105-1.189 1.656-1.761.219-.224.416-.478.555-.764 1.009-2.103-1.758-3.914-3.209-4.858-.804-.523-1.451-1.198-2.349-1.596-.412-.182-2.091-.267-2.313-.532-.869-1.031 3.59-3.65 4.168-4.064 1.429-1.016 4.002-3.509 5.787-2.19 3.54 2.604 5.891 6.05 9.051 8.971.905.841 2.422-.255 3.208-.834 2.004-1.475-.048-3.385-1.603-4.787zm-52.636 18.36c-1.783-.068-3.577-.124-4.475-.989-2.263-2.199-3.858-3.104-7.081-3.438-1.509-.159-2.976.167-4.343.755-.342-1.032-.826-2.024-1.358-3.058-.973-1.889-1.429-3.838-1.469-5.945-.103-4.963 4.256-5.12 7.638-4.359 2.739.612 3.778 3.92 6.964 4.12 1.911.128 4.254.018 5.556 1.827.231.328.35.663.438.999-1.914 2.852-2.469 6.606-1.87 10.088zm20.514-9.46c-.25.223-.448.444-.667.663-2.132-1.633-4.768-2.887-6.894-4.339-.517-.349-1.405-.429-1.604-1.079-.17-.564.302-1.295.529-1.786.559-1.272 1.979-2.502 2.964-3.462 1.326-1.293 2.867-3.953 5.033-2.676 2.081 1.23 4.065 2.572 6.133 3.826.909.549 2.418 1.525 2.545 2.62.087.834.588 1.121-.313 1.445-2.799 1.017-5.492 2.836-7.726 4.788z" fill="#fcc21b"/><g><path d="M85.382 49.7c-.547.118-1.08.23-1.597.325-.89.176-1.644.509-2.492.81-1.909.69-3.414 1.382-4.858 2.843-1.063 1.08-1.655 2.311-2.485 3.532-.438.651-.604 1.39-.873 2.112-.308.802-.763 1.429-1.001 2.271-.357 1.263-.622 2.469-.722 3.787-.12 1.452.404 2.795.636 4.216.109.69.303 1.27.595 1.897.35.77.35 1.588.675 2.356.595 1.391 1.587 2.604 2.557 3.732 1.002 1.168 2.146 2.137 3.344 3.104 1.935 1.563 4.213 2.04 6.628 2.414 2.469.389 4.873-.111 7.347-.167 1.978-.048 3.823-.389 5.721-.938 1.329-.382 2.811-.778 3.93-1.588 1.373-.992 1.984-2.366 2.778-3.817.794-1.454 1.123-3.113 1.588-4.678.425-1.469.729-2.991.706-4.533-.071-4.018-.23-8.384-3.037-11.552-3.187-3.596-8.948-6.326-13.713-6.772-1.814-.163-3.838.25-5.727.646z" fill="#855c52"/><path d="M83.579 70.62c0-.025 0-.041.004-.064.08-1.017-.028-2.08.313-3.057.325-.921.763-1.81.921-2.786.168-.992-.578-1.937-1.298-2.517-.972-.786-2.257-1.08-3.203-1.914-.5-.436-1.136-.849-.523-1.437.741-.715 2.286-.484 3.238-.389.858.079 1.81.262 2.638.484.482.127.954.461 1.469.326.721-.199 1.253-1.064 1.729-1.589.573-.627 1.175-1.231 1.873-1.723.639-.453 2.278-1.66 3.16-1.277 1.364.586-.501 2.888-.762 3.771-.279.944-1.43 2.724-.469 3.541.452.38.94.721 1.472.976.416.207.791.31 1.14.619.818.723 1.771 1.271 2.509 2.081.452.5 2.199 1.754 1.58 2.54-.627.802-2.914-.294-3.658-.572-1.502-.539-3.066-1.842-4.758-1.444-.8.19-1.435.771-1.817 1.492-.371.707-.619 1.199-1.14 1.842-.377.469-.695.993-1.004 1.509-.381.611-.568 1.31-.913 1.922-.31.562-1.136 1.421-1.865.865-.58-.437-.676-2.501-.636-3.199z" fill="#fff"/></g><path d="M92.188 85.117c-3.701 0-7.775-.953-12.809-3.002a9.323 9.323 0 0 1-2.005-1.142c-.702-.517-1.312-1.084-1.908-1.637l-.454-.412c-1.945-1.771-3.347-3.537-4.163-5.256-.774-1.619-1.282-3.085-1.498-4.357-.356-2.034.068-4.486.374-6.281a21.403 21.403 0 0 1 2.104-6.24c.762-1.469 1.619-3.008 2.905-4.311 1.699-1.714 3.866-2.672 5.779-3.517 2.239-.992 4.731-1.675 7.196-2.001 7.253-.952 15.335 3.18 19.245 9.749.727 1.215 1.465 2.517 1.877 4.002.715 2.54 1.35 4.795.866 7.725-.382 2.317-.874 4.071-1.597 5.668l-.204.469c-.495 1.104-1.105 2.469-1.86 3.485-3.49 4.683-8.155 7.058-13.848 7.058zm-2.272-34.233c-.555 0-1.117.03-1.667.109-2.062.271-4.218.859-5.908 1.604-1.918.85-3.564 1.572-4.721 2.739-.882.905-1.543 2.088-2.187 3.334a17.04 17.04 0 0 0-1.699 5.033c-.262 1.518-.61 3.572-.382 4.914.159.905.548 2.017 1.165 3.304.583 1.223 1.703 2.604 3.227 3.993l.48.437c.508.468 1.014.941 1.56 1.342.397.292.771.508 1.136.659 4.462 1.816 8.148 2.699 11.269 2.699 4.402 0 7.864-1.772 10.596-5.427.483-.647.987-1.786 1.393-2.703l.219-.484c.57-1.263.968-2.707 1.294-4.669.333-2.031-.111-3.611-.724-5.795-.323-1.167-.896-2.167-1.499-3.183-2.82-4.731-8.266-7.906-13.552-7.906z" fill="#fcc21b"/><g><g><defs><path id="SVGID_3_" d="M34.381 92.893c.063-4.87 2.183-11.04 6.629-13.627 1.18-.691 2.264-1.39 3.558-1.835 2.079-.705 4.318-.699 6.438-1.23 1.944-.492 3.08-1.452 4.58-2.711 1.041-.869 2.259-1.635 3.438-2.291 1.941-1.074 4.263-1.551 6.475-1.551 3.283 0 6.88.71 9.594 2.637 1.243.883 2.268 2.177 3.115 3.393.843 1.23.729 2.779.835 4.199a18.71 18.71 0 0 1-.583 6.359c-.576 2.199-.977 4.438-1.64 6.612-.394 1.295-.767 2.652-1.505 3.804-.715 1.12-1.69.901-2.93 1.136-.996.19-1.998.365-3.001.517-1.916.285-3.85.183-5.787.183-1.913.008-3.739-.25-5.645-.449-1.727-.18-3.541.126-5.287.012-2.347-.151-4.938-.334-7.17-1.088-1.357-.452-2.659-.889-4.041-1.194-.999-.219-2.627-.365-3.394-1.096-1.218-.593-2.425-1.252-3.679-1.78z"/></defs><use xlink:href="#SVGID_3_" overflow="visible" fill="#757f3f"/><clipPath id="SVGID_4_"><use xlink:href="#SVGID_3_" overflow="visible"/></clipPath></g><path d="M67.28 106.905c-.575 0-1.15-.013-1.723-.028-.85-.023-1.659-.075-2.475-.127-2.829-.199-5.774-.048-8.974-.397-6.295-.689-12.855-1.654-17.902-5.184-1.536-1.072-3.084-2.303-3.652-4.446a13.334 13.334 0 0 1-.421-3.905c.071-2.057.532-4.239 1.445-6.867.944-2.7 2.817-6.352 6.406-8.44l.563-.333c1.024-.604 2.081-1.232 3.367-1.667 1.365-.469 2.715-.654 4.024-.833.904-.128 1.763-.247 2.565-.453 1.476-.374 2.326-1.079 3.732-2.254 1.062-.89 2.286-1.708 3.803-2.55 2.135-1.183 4.716-1.806 7.458-1.806 4.207 0 8.03 1.068 10.769 3.014 1.604 1.135 2.826 2.771 3.607 3.897 1.022 1.469 1.093 3.112 1.157 4.431.007.262.023.515.039.769a20.849 20.849 0 0 1-.641 7.026 76.645 76.645 0 0 0-.634 2.62c-.306 1.334-.619 2.708-1.034 4.073-.277.925-.43 1.898-.595 2.929-.249 1.604-.511 3.269-1.28 4.986l-.285.675c-.604 1.437-1.287 3.064-3.675 4.001-1.952.769-4.043.869-5.644.869zM65.498 71.68c-2.027 0-3.974.464-5.489 1.299-1.287.713-2.307 1.389-3.12 2.071-1.636 1.366-3.01 2.517-5.384 3.12-1.024.254-2.033.396-3.013.531-1.163.158-2.267.309-3.266.65-.891.303-1.684.779-2.604 1.326l-.589.342c-2.516 1.469-3.9 4.216-4.612 6.268-.781 2.228-1.166 4.029-1.222 5.666a9.18 9.18 0 0 0 .285 2.722c.215.822 1.057 1.47 2.053 2.164 4.259 2.98 10.245 3.839 16.01 4.474 3.079.333 6.001.189 8.812.381.754.048 1.51.104 2.271.118.567.017 1.104.028 1.651.028 1.319 0 2.85-.067 4.16-.583.762-.302.896-.572 1.414-1.795.094-.241.206-.5.324-.762.548-1.223.754-2.55.978-3.953.173-1.128.352-2.287.721-3.486.37-1.229.655-2.476.961-3.794.206-.917.423-1.834.661-2.747.497-1.897.665-3.76.518-5.686-.021-.293-.036-.586-.052-.889-.039-.963-.083-1.799-.433-2.311-.608-.872-1.536-2.126-2.614-2.897-2.059-1.453-5.05-2.257-8.421-2.257z" fill="#fcc21b"/><path d="M48.807 99.247c-.159-.825.483-1.723.762-2.477.46-1.245.944-2.508 1.58-3.683 1.103-2.018 2.048-3.955 3.564-5.721 1.329-1.545 4.025-5.021 6.502-4.34.031.469.325 1.064.316 1.485-.026.691-.491 1.429-.785 2.041-.754 1.587-1.929 3.072-2.786 4.619-.969 1.76-1.739 3.637-2.549 5.471-.679 1.541-1.509 2.708-1.524 4.422v-.039" fill="#fcc21b"/></g><g><path d="M62.644 99.16c.159-.373.32-.747.453-1.123.69-1.965 1.104-3.957 2.01-5.855 1.714-3.619 4.406-6.858 8.112-8.53 1.227-.551 2.585-.98 3.866-1.397 1.241-.397 2.842-.71 3.78-1.651 1.683-1.688 2.996-3.124 5.399-3.738 3.139-.799 7.544-.807 10.621.309 1.651.599 3.088 1.639 4.405 2.79 1.231 1.079 2.161 2.572 3.08 3.946 1.225 1.826 1.466 4.048 1.423 6.188-.033 1.972.423 4.505-1.033 6.116-.476.525-1.251.777-1.841 1.187-.866.6-1.629 1.282-2.542 1.846-2.897 1.811-6.66 2.524-9.892 3.557-7.63 2.438-15.791 2.521-23.712 2.541-1.376.009-4.583.063-5.02-1.516-.463-1.726.248-3.185.891-4.67z" fill="#757f3f"/><path d="M73.703 103.82c.097-1.801 1.397-3.699 2.049-5.334.655-1.651 1.436-3.511 2.409-4.986 1.091-1.651 2.711-2.905 4.203-4.16.923-.777 1.915-1.794 3.286-1.529 1.454.282 1.557 1.577 1.018 2.799-.477 1.093-1.342 2.231-1.97 3.243-.935 1.506-1.646 2.997-2.318 4.608-.745 1.795-2.268 3.311-2.07 5.415v-.056" fill="#fcc21b"/><path d="M66.371 107.377c-1.72 0-5.752 0-6.577-3.017-.627-2.31.206-4.223.872-5.756l.116-.253c.139-.327.273-.651.393-.985.238-.675.437-1.35.645-2.017.389-1.318.801-2.676 1.443-4.042 1.492-3.136 4.287-7.326 9.122-9.51 1.286-.58 2.628-1.009 3.923-1.429.403-.127.674-.206.946-.286.794-.23 1.786-.524 2.174-.914l.305-.31c1.664-1.675 3.237-3.255 6.026-3.965 1.62-.412 3.483-.631 5.389-.631 1.674 0 4.149.175 6.431 1 1.657.603 3.269 1.611 5.047 3.168 1.304 1.135 2.262 2.588 3.115 3.874l.315.468c1.659 2.47 1.81 5.384 1.771 7.359 0 .365.008.748.02 1.145.06 1.96.135 4.405-1.574 6.303-.541.596-1.176.93-1.688 1.203-.17.092-.346.179-.504.289-.334.23-.646.469-.957.71-.536.41-1.075.823-1.671 1.188-2.39 1.492-5.153 2.274-7.82 3.032-.865.238-1.715.477-2.528.738-8.109 2.596-16.725 2.621-24.322 2.636h-.412zm-2.706-4.352c.288.12 1.003.287 2.706.287h.278c7.428-.016 15.707-.039 23.217-2.444a89.857 89.857 0 0 1 2.651-.779c2.407-.678 4.884-1.381 6.784-2.564.476-.301.91-.635 1.347-.965.364-.28.729-.562 1.118-.828.279-.2.589-.367.906-.533.197-.111.501-.269.581-.35.617-.682.569-2.087.526-3.444a57.13 57.13 0 0 1-.02-1.342c.044-2.303-.293-3.85-1.078-5.024l-.323-.485c-.75-1.119-1.52-2.283-2.408-3.057-1.395-1.223-2.585-1.985-3.764-2.414-2.434-.881-6.57-.977-9.424-.246-1.707.434-2.676 1.409-4.145 2.891l-.317.31c-1.128 1.135-2.665 1.587-3.906 1.945l-.682.206c-1.347.436-2.58.833-3.653 1.318-3.714 1.675-5.926 5.024-7.121 7.55-.516 1.078-.865 2.238-1.23 3.462-.222.729-.436 1.46-.694 2.19-.146.43-.325.846-.502 1.263l-.113.258c-.525 1.185-.849 2.003-.734 2.795z" fill="#fcc21b"/></g></g></g></g></g></svg>