<svg id="レイヤー_1" xmlns="http://www.w3.org/2000/svg" viewBox="0 0 128 128"><g><path d="M123.851 113.044c-1.923-4.632-3.896-9.21-5.819-13.797-6.028-14.354-11.349-29.198-17.44-43.614-6.046-14.302-10.894-29.051-16.583-43.484-1.184-2.998-3.22-9.026-6.865-9.655-7.848-1.353-8.04 10.171-8.196 14.889-.271 8.561.857 17.055 1.537 25.572.594 7.288.918 14.653 2.708 21.772 1.346 5.34 3.486 11.088 7.768 14.792 2.149 1.861 4.98 2.631 7.794 2.369 2.923-.262 5.635-2.289 8.614-1.958.769.089 1.591.56 2.1 1.153 1.615 1.914 2.06 5.539 2.627 7.908 1.852 7.635 3.679 15.351 5.968 22.863 1.39 4.544 3.206 10.345 7.225 13.28 2.447 1.784 6.484 2.806 8.974.578 3.716-3.32 1.126-8.99-.412-12.668z" fill="#78a3ad"/><g><path d="M52.521 7.046c-1.434.192-2.22 5.094-2.665 6.535-.795 2.613-1.546 6.142-2.77 9.471-.01.026-.018.053-.026.069-.088.228-.184.481-.288.743-.105.254-.219.489-.323.735-.717 1.589-1.766 3.415-3.006 4.098-1.407.775-3.864-.123-4.395-1.626-.874-2.455.48-7.068.428-7.234.532-2.212 2.001-8.93 2.708-13.429.048-.342.517-2.34-1.17-3.016-.791-.314-1.844.176-2.473 1.417-1.861 3.661-4.613 10.851-4.972 11.995-.035.114-.079.237-.113.35 0 0-.01.019-.01.026-.072.236-1.904 5.959-3.853 7.583-1.021.848-3.162 1.163-4.77-.463-.638-.646-.929-1.65-1.05-2.672-.27-6.973 3.417-13.578 4.579-16.889.332-.934 2.01-3.881.131-4.266-2.831-.586-9.733 10.756-11.131 13.412-3.46 6.598-5.714 14.04-4.779 21.547.516 4.156 2.683 8.028 5.976 10.508 1.457 1.094 3.154 2.054 5.003 2.841-4.968 15.778-10.219 32.232-13.425 41.309-2.42 6.832-4.963 13.708-6.754 20.742-1.074 4.201-2.446 9.184-.743 13.403 1.792 4.41 8.092 4.29 10.826.375 3.083-4.413 4.089-10.24 5.895-19.371 1.802-9.138 4.401-21.571 5.795-28.263 2.054-9.847 4.133-18.384 6.151-26.134 5.115.586 10.302-.366 13.953-3.712 1.599-1.46 2.874-3.233 3.922-5.121 1.596-2.856 2.885-6.125 3.557-9.329.618-2.935 4.388-26.237-.208-25.634z" fill="#78a3ad"/></g></g></svg>