<svg id="レイヤー_1" xmlns="http://www.w3.org/2000/svg" viewBox="0 0 128 128"><g><path fill="#fff" d="M5.117 46.219l50.589-22.615 30.512 61.399-55.914 30.125L5.117 46.219"/><g><g><path d="M126.508 63.702c-2.278-4.422-31.014-55.06-31.014-55.06S92.802 2.747 83.13 6.633c-7.542 3.03-51.345 19.869-71.045 28.484-5.569 2.429-9.221 5.19-9.58 5.603C1.309 42.075.262 44.159.271 47.332v12.777s-.359 6.046 2.679 12.124c3.039 6.07 24.851 49.46 25.388 49.46.533 0 2.653 5.551 10.339 3.057 6.248-2.036 78.772-34.481 78.772-34.481s4.823-1.422 6.246-5.895c1.432-4.462 3.525-11.822 3.525-11.822s1.565-4.427-.712-8.85zm-57.99 28.56c-2.479 1.391-5.041 2.621-7.628 3.794-3.893 1.758-7.845 3.399-11.704 5.25-3.593 1.732-7.042 3.816-10.853 5.065-1.574.527-2.444-2.203-3.157-3.266-.585-.88-1.104-1.467-1.514-2.454-.412-.962-.704-1.976-1.206-2.889a888.772 888.772 0 0 1-17.91-34.513c-1.415-2.88-3.165-5.417-4.221-8.482-.622-1.783-1.449-3.624-1.439-5.492 0-.669.112-1.349.384-2.025.861-2.152 3.132-3.618 5.373-3.937 1.234-.167 4.88 1.433 5.604.427.897-1.238 1.056-2.603 2.303-3.625 1.266-1.036 2.943-1.683 4.555-1.909 2.094-.301 4.288 1.173 6.297.553.846-.26 1.808-2.277 2.503-2.906.894-.811 1.964-1.313 3.131-1.615 1.404-.36 3.12-.503 4.427.268.666.387 1.059 1.098 1.518 1.692.37.485.839 1.565 1.425 1.775.871.326 2.174-.268 3.169.059.951.301 1.629.946 2.132 1.783.683 1.155.938 2.612.794 3.943-.091.787-.954 1.935-.735 2.704.275.922 2.52 1.825 3.332 1.977.904.168 1.473.452 2.123 1.146 1.318 1.425 1.795 3.342 1.795 5.241 0 1.021-.183 1.718-.44 2.621-.221.804-.48 1.524.489 1.919.855.341 1.906.207 2.789.644 1.038.51 1.533 1.188 1.96 2.235.763 1.825 1.817 4.025 1.331 6.112-.204.847-1.288 1.909-1.134 2.839.143.846 1.539 1.432 2.206 1.741 1.832.854 3.19 2.244 3.441 4.371.218 1.866-.637 3.482-.352 5.407.735.37 1.624.318 2.378.696.753.385 1.088 1.23 1.457 1.968 1.992 3.953-1.786 5.293-4.623 6.883z" fill="#2f2f2f"/></g><path d="M39.421 62.766c-.936.275-1.975.81-2.728 1.446-1.192 1.013-1.76 2.63-1.689 4.195.056 1.146.448 2.271 1.177 3.107 3.441 3.943 11.393 3.006 11.656-2.931a4.452 4.452 0 0 0-.801-2.78c-1.536-2.185-4.964-3.818-7.615-3.037z" fill="#ed6c30"/><path d="M94.942 24.081l.191.017c2.848.327 4.573 2.738 4.046 5.642-.369 1.986-2.316 3.158-4.002 3.979-2.023.987-4.354 2.863-6.683 2.921-.359.009-1.313.066-1.62-.168-1.688-1.34.14-4.169.708-5.566 1.252-3.049 3.559-7.135 7.36-6.825z" fill="#ed6c30"/><path d="M79.874 19.996c1.205-2.729 4.576-3.535 6.187-1.416 1.48 1.96.719 4.715.32 6.9-.298 1.676-.808 5.358-3.119 5.407-2.016.042-3.056-3.205-3.475-4.764-.518-1.941-.744-4.243.087-6.127z" fill="#ed6c30"/><path d="M110.062 73.684c-.225 1.179-1.758 1.907-2.683 2.478-.857.527-1.795.938-2.731 1.339-1.827.788-3.652 1.917-5.745 1.608-1.775-.26-2.667-2.312-3.911-3.331-1.181-.956-2.569-1.633-4.002-2.103-2.797-.913-5.953-1.14-8.825-.47-1.313.311-2.576.569-3.797 1.088-.775.337-1.469.294-2.123-.267-1.205-1.022-1.959-2.763-2.645-4.162-1.548-3.132-3.467-5.508-1.49-8.976.812-1.423 2.077-2.386 3.392-3.316 2.922-2.102 6.498-2.503 9.996-2.511 3.25-.008 6.715-.15 9.805 1.005.244.092.489.184.729.284 3.114 1.238 6.079 2.99 8.532 5.284 2.36 2.219 4.221 4.99 4.998 8.155.292 1.198.74 2.647.5 3.895z" fill="#ed6c30"/><path d="M103.738 40.919c.576.277 1.235.939 1.499 1.473 1.033 2.078 1.881 3.794.835 6.105-.865 1.919-2.554 3.398-4.312 4.487-.754.47-1.141.863-2.046.503-.736-.302-1.481-.637-2.244-.939-1.804-.701-3.683-.794-5.559-1.163-1.83-.368-3.719-.425-5.595-.353-1.771.077-3.54.338-5.257.814-1.155.326-2.948 1.223-3.76-.177-2.879-5.006 1.373-7.669 5.979-6.046 1.432.502 3.5 1.533 5.02 1.165.256-1.232-.416-2.494-.209-3.752.502-3.071 3.67-2.58 5.411-1.179 1.16.927 3.427 3.809 5.176 2.728 1.097-.679.917-2.26 1.859-3.072.772-.66 2.251-1.056 3.203-.594z" fill="#757f3f"/><path d="M95.335 81.929c-.254.445-1.229.754-1.678.964a41.217 41.217 0 0 0-3.011 1.541c-1.423.804-2.922 1.322-4.429 1.909-.636.243-1.833.711-2.55.377-.473-.234-.983-.997-1.265-1.449-.439-.702-.934-1.34-1.443-2.017-.478-.628-.771-1.315-1.206-1.977-.419-.635-.209-1.466.033-2.178.33-.987 1.6-1.432 2.548-1.574.921-.134 3.146-.217 3.46 1.047.172.72-1.256 1.642-.027 1.883 1.069.22 1.975-.945 2.861-1.355 1.408-.644 3.074-.385 4.497.175.896.361 2.955 1.391 2.21 2.654z" fill="#757f3f"/><path d="M57.122 27.656a10.552 10.552 0 0 1 2.805.142c.77.169 1.532.629 2.336.604 1.165-.033.884-1.373 1.113-2.21.302-1.062.838-2.017 1.783-2.545 1.583-.879 3.848-1.147 5.317.092.955.812 1.185 1.901 1.498 3.048.253.938.253 2.276.914 3.03.547.629 1.876.812 2.687.936 1.286.202 2.203.345 3.243 1.207 1.279 1.055 1.697 2.421 2.376 3.91.351.771.429 1.667.144 2.481-.228.669-.747.818-1.315 1.128-1.651.921-3.317 1.767-4.99 2.68-1.642.905-3.182 1.901-4.923 2.623-1.566.65-3.199 1.413-4.824 1.917-.938.284-2.043 1.004-2.947.393a6.132 6.132 0 0 1-1.071-.965c-.862-1.021-1.977-2.368-2.144-3.725-.167-1.306 1.387-1.824 2.412-2.143.872-.276 1.783-.563 2.687-.705.827-.134 1.6-.183 2.427-.268.867-.083 4.521-.409 2.898-2.076-.972-.996-3.007-1.917-4.393-2.051-2.231-.209-4.174.4-6.024 1.581-.614.395-1.75 1.61-2.556 1.383-.416-.116-.811-.755-1.074-1.081-1.233-1.556-2.005-3.457-2.969-5.182-1.43-2.572 2.685-4.052 4.59-4.204z" fill="#fcc21b"/><path d="M117.097 71.069c-1.457-.375-1.817-2.451-2.386-3.624-.922-1.885-2.151-3.634-3.531-5.217-1.56-1.802-3.05-3.534-4.892-5.057-2.11-1.733 2.337-4.054 4.161-4.137h.277c1.879.209 2.821 2.16 3.767 3.565 1.355 2.003 2.839 3.912 4.106 5.971.976 1.591 2.441 3.501 2.407 5.452-.02 1.667-2.134 3.517-3.909 3.047z" fill="#fcc21b"/></g></g></svg>