<svg id="レイヤー_1" xmlns="http://www.w3.org/2000/svg" viewBox="0 0 128 128"><g><path d="M112.241 84.45c5.717 9.896 1.654 22.849-8.854 28.882l-19.5 11.328c-10.173 5.972-23.148 2.808-29.22-7.019L31.414 75.288c-6.64-9.716-3.499-22.485 7.181-28.552l18.09-10.727c10.981-6.123 21.017-.311 27.322 9.46l28.234 38.981z" fill="#40c0e7"/><path d="M64.339 13.865s-5.408-8.132-31.042 7.293C7.856 36.47 13.753 45.803 13.753 45.803l6.196 13.187c3.654 6.055 18.231 3.891 32.819-4.993 14.891-9.07 24.182-21.693 20.472-28.041l-8.901-12.091z" fill="#f6e599"/><path d="M63.153 14.519c2.801 4.734-5.854 15.066-19.353 23.078-13.508 8.02-26.717 10.676-29.526 5.94-2.803-4.73 5.861-15.062 19.345-23.071 13.508-8.017 26.728-10.677 29.534-5.947z" fill="#fff3ca"/><path d="M53.875 15.521l.02-.017c-1.803-1.905-5.728-3.414-11.29-2.913-1.461.119-3.342.536-4.271.342-1.878-.409-2.64-2.025-2.895-2.917-.189-.586-.513-2.454-.513-2.454l-.024.002a9.48 9.48 0 0 0-.992-2.82C31.592.556 26.699-.917 22.973 1.446c-3.688 2.34-4.811 7.567-2.523 11.683a8.388 8.388 0 0 0 1.829 2.271l-.013.021s1.365 1.209 1.749 1.642c.586.684 1.542 2.151.988 4.046-.29.932-1.534 2.404-2.325 3.63-2.975 4.636-3.601 8.794-2.907 11.267l.013-.012c.086.434.229.857.443 1.249 2.395 4.273 11.861 3.309 21.319-2.259 9.636-5.664 15.607-13.942 13.16-18.402-.2-.407-.5-.738-.831-1.061z" fill="#f79329"/><path d="M96.416 71.793l-57.514.248c.223 2.287.924 4.512 2.217 6.538l17.948 33.78c4.958 7.757 15.61 10.103 23.797 5.243l15.434-9.165c8.179-4.854 11.174-15.44 6.668-23.632l-8.55-13.012z" fill="#fff"/><g fill="#006ca2"><path d="M85.808 102.896c.25.407.113.94-.299 1.185a.852.852 0 0 1-1.179-.301L60.747 64.09a.88.88 0 0 1 .314-1.189.868.868 0 0 1 1.188.305l23.559 39.69z"/><path d="M63.896 61.86a.812.812 0 0 1-.278 1.102l-3.91 2.319a.81.81 0 0 1-1.101-.28.801.801 0 0 1 .283-1.102l3.907-2.315a.797.797 0 0 1 1.099.276z"/><path d="M75.731 81.784a.813.813 0 0 1-.281 1.106l-3.916 2.316a.808.808 0 0 1-1.1-.277.807.807 0 0 1 .292-1.104l3.898-2.315a.803.803 0 0 1 1.107.274z"/><path d="M87.56 101.718a.786.786 0 0 1-.283 1.097l-3.899 2.323a.805.805 0 0 1-1.105-.281.794.794 0 0 1 .283-1.098l3.906-2.323a.796.796 0 0 1 1.098.282z"/></g></g></svg>