<svg id="Bottle" xmlns="http://www.w3.org/2000/svg" viewBox="0 0 128 128"><path id="XMLID_40_" d="M59.236 44.424c-.909-.31-3.731.197-4.989-.602-4.977-3.163-11.258-9.339-15.52-13.303.081-1.674.407-4.605-.864-5.877-2.39-2.39-6.302-2.39-8.692 0l-3.7 3.7c-2.39 2.39-2.39 6.302 0 8.692 1.272 1.272 3.821.218 5.496.137 3.81 4.096 10.368 10.383 13.303 15.52.985 1.724.624 4.667.982 5.716 2.028 5.939-.134 21.263 11.376 31.75 9.923 9.041 39.471 32.425 39.471 32.425a4.852 4.852 0 0 0 4.498 1.299c3.002-.675 8.113-2.727 14.24-8.854.174-.174.334-.344.502-.516.172-.168.342-.328.516-.502 6.127-6.127 8.179-11.238 8.854-14.24a4.852 4.852 0 0 0-1.299-4.498S100.026 65.723 90.985 55.8c-10.486-11.509-25.809-9.348-31.749-11.376z" fill="#004d40"/><g id="XMLID_74_"><path id="XMLID_39_" d="M90.264 54.831c.023.021.056.031.078.054 2.585 2.585-3.057 12.419-12.601 21.964l-.02.02-.019.019C68.72 85.87 59.488 91.38 56.303 89.813c.615.688.079.46.786 1.125 5.716 5.38 23.54 20.075 23.664 20.175 2.687 1.675 11.962-3.073 20.142-11.253 7.958-7.958 11.977-15.631 12.008-18.679.092-.508-.112-.226-.286-.442-6.866-8.492-20.905-24.143-21.784-24.888l-.569-1.02z" fill="#f6e499"/></g><g id="XMLID_70_" fill="#e2c340"><path id="XMLID_38_" d="M43.716 77.345a.01.01 0 0 1 .001.005l.013.016-.002-.003-.012-.018z"/><path id="XMLID_37_" d="M69.704 99.789c.089.089.206.148.314.215l-.373-.302c.022.027.034.063.059.087z"/><path id="XMLID_36_" d="M88.614 52.692c1.919 3.582-4.17 12.175-13.715 21.72l-.02.02-.019.019c-8.982 8.982-18.009 14.866-21.194 13.3.615.688 24.12 20.826 24.244 20.926 2.687 1.675 11.962-3.073 20.142-11.253 7.958-7.958 11.977-15.631 12.008-18.679.092-.508.174-.894 0-1.109-6.866-8.492-21.461-24.972-21.446-24.944z"/></g><path id="XMLID_35_" d="M59.791 43.823c-4.565-1.559-14.597-9.482-20.003-14.51.082-1.695.227-4.157-1.061-5.445-.629-.629-3.032-1.859-4.434-1.109.088 1.801-.788 5.094-3.263 7.569-2.579 2.579-5.683 3.416-7.351 3.109-.429 1.062.133 3.885 1.745 4.842 2.521 1.497 2.52.857 4.736.661 5.028 5.406 12.552 14.729 14.11 19.294.454 1.33 1.163 3.84 1.109 5.543h19.955V44.931c-2.105-.234-4.213-.654-5.543-1.108z" fill="#e2c340"/><g id="XMLID_1_"><path id="XMLID_34_" d="M65.334 44.931c-.758-.097-4.916-.969-5.543-1.109v14.412H44.27c.143.626 1.018 4.779 1.109 5.543h19.955V44.931z" fill="#f6e499"/></g><path id="XMLID_4_" d="M29.532 18.683c-1.269-3.99.737-14.714 4.717-14.954 3.504-.211-.796 8.497-2.376 15.556-.524 2.337-1.961.59-2.341-.602z" fill="#fce8b2"/><path id="XMLID_32_" d="M33.133 20.724c-.088-1.291 1.574-5.974 3.079-4.793.969.761-1.627 4.464-2.108 5.028-.818.962-.937.258-.971-.235z" fill="#fce8b2"/><path id="XMLID_33_" d="M17.52 5.613c-2.034-2.308-5.587-2.531-7.894-.497L6.828 7.581c-2.308 2.034-2.531 5.587-.497 7.894a5.598 5.598 0 0 0 4.935 1.839l1.862 2.112a4.363 4.363 0 0 0 6.14.387l.932-.822a4.363 4.363 0 0 0 .387-6.14l-1.862-2.112a5.6 5.6 0 0 0-1.205-5.126z" fill="#8d6e63"/><ellipse id="XMLID_28_" transform="rotate(-45.001 29 27.69)" cx="29" cy="27.69" rx="3.423" ry=".812" fill="#395b2b"/><path id="XMLID_31_" d="M20.827 23.944C10.812 21.728.148 27.246 1.964 31.535s16.136-2.785 19.511-4.14 1.011-3.084-.648-3.451z" fill="#fce8b2"/><path id="XMLID_30_" d="M20.162 30.957c-1.928.546-4.934 2.298-4.321 3.375.792 1.391 3.231-.872 4.926-1.821 1.39-.779 2.633-1.422 2.607-1.764-.047-.618-1.816-.185-3.212.21z" fill="#fce8b2"/><path id="XMLID_29_" d="M24.718 18.822c-.853-1.813-1.503-5.231-.288-5.475 1.57-.315 1.462 3.01 1.858 4.913.324 1.56.655 2.92.379 3.125-.498.368-1.332-1.251-1.949-2.563z" fill="#fce8b2"/><circle id="XMLID_15_" cx="36.428" cy="31.427" r="2.162" fill="#f6e499"/><path id="XMLID_24_" fill="none" stroke="#f6e499" stroke-width="3" stroke-linecap="round" stroke-miterlimit="10" d="M90.832 61.56l15.52 17.738"/><path id="XMLID_27_" d="M7.333 16.365c.459-.066 4.839-2.701 6.334-4.056C15.942 10.247 18.409 7 18.409 7s.405 1.052.428 1.423c.066 1.073-.113 2.316-.113 2.316s-.974 2.011-2.891 3.761c-1.372 1.253-4.567 2.814-4.567 2.814s-1.478.025-1.954-.086c-.526-.121-1.979-.863-1.979-.863z" fill="#795548"/></svg>