<svg xmlns="http://www.w3.org/2000/svg" xmlns:xlink="http://www.w3.org/1999/xlink" viewBox="0 0 128 128"><g id="图层_1"><path d="M70.038 96.508h.008-.008zm0 0l-10.993.722c-.65.578-.178 1.773-.178 2.575v2.79c0 1.512-.54 2.838-1.393 4.036-2.325 3.242-6.436 4.564-9.92 6.13-2.352 1.06-8.117 3.529-7.784 6.797.413 3.968 7.337 5.639 10.334 6.323 3.672.84 7.412 1.127 11.165 1.127 3.348 0 6.699-.229 10.013-.494 2.994-.236 6.05-.701 8.949-1.448 2.107-.544 7.189-1.833 7.891-4.331 1.274-4.598-7.911-7.231-10.747-8.447-3.893-1.672-8.24-3.964-8.245-8.793 0-1.339-.004-2.639.189-3.922.136-.861-.176-2.622.719-3.065z" fill="#d1ebed"/><path d="M90.565 8.379s14.795 24.507 14.795 52.338c0 38.963-41.364 38.423-41.364 38.423s-41.356.539-41.356-38.424c0-27.831 14.922-52.338 14.922-52.338h53.003z" fill="#d1ebed"/><g><defs><path id="SVGID_1_" d="M99.557 53.581c-1.536-1.094-2.869.102-4.606.709-7.513 2.644-14.987 2.241-22.502-.087-7.258-2.256-14.221-5.237-21.847-6.028-4.901-.506-9.919 0-14.518 1.822-3.38 1.333-6.738 3.042-8.64 6.284-1.574 2.684-.87 6.62-.468 9.57.777 5.677 2.879 11.14 6.534 15.581 5.637 6.83 14.148 10.536 22.69 12.083 2.593.468 5.223.761 7.858.79 2.225.031 4.482-.245 6.665-.59 8.281-1.303 16.6-4.555 22.483-10.701 3.787-3.95 6.268-8.933 7.435-14.263.765-3.513.998-7.147.849-10.741-.066-1.644-.301-2.919-1.547-4.103a2.702 2.702 0 0 0-.386-.326z"/></defs><use xlink:href="#SVGID_1_" overflow="visible" fill="#ad1457"/><clipPath id="SVGID_2_"><use xlink:href="#SVGID_1_" overflow="visible"/></clipPath><path d="M92.174 55.188c-26.422 4.605-48.745 12.273-61.013 6.31-8.8-4.277-.984-10.94 6.984-13.123 19.255-5.284 26.695 3.618 37.673 4.966 6.626.811 9.713 2.369 16.356 1.847z" clip-path="url(#SVGID_2_)" fill="#720845"/></g><path d="M36.073 54.732c2.092.601 5.105 1.357 7.621 1.709 1.312.183 2.031-.723 2.133-1.598 1.744-14.952 3.954-25.712 7.339-34.245-2.301-.503-9.675-2.747-9.833-2.404-4.916 10.678-8.44 27.225-8.84 34.13 0 .001-.108 1.924 1.58 2.408z" fill="#fff"/><path d="M91.385 11.53c0 6.765-12.257 10.533-27.385 10.533-15.129 0-27.384-3.768-27.384-10.533C36.616 4.77 48.871.992 64 .992c15.128 0 27.385 3.778 27.385 10.538z" fill="#aecece"/><path d="M88.186 11.529c0 5.214-10.826 8.118-24.187 8.118-13.362 0-24.186-2.904-24.186-8.118 0-5.21 10.824-8.122 24.186-8.122s24.187 2.912 24.187 8.122z" fill="#d1ebed"/><path d="M49.459 117.707c-.88-.221-2.04.386-2.037 1.293.002.747.772 1.228 1.454 1.532 2.734 1.219 5.875 1.734 10.601 1.806.641.01 1.869-.225 2.236-.751.392-.563.072-1.394-.491-1.785-.564-.391-1.282-.472-1.966-.517-5.705-.375-5.366-.464-9.797-1.578z" fill="#fff"/><g><defs/><use xlink:href="#SVGID_3_" overflow="visible" fill="#d81b60"/><clipPath id="SVGID_4_"><use xlink:href="#SVGID_3_" overflow="visible"/></clipPath></g><g id="nZEHlP.tif"/></g></svg>