<svg id="レイヤー_1" xmlns="http://www.w3.org/2000/svg" viewBox="0 0 128 128"><g><path d="M72.591 58.361a229.037 229.037 0 0 0-1.924 3.551l-.521.984-.051.082a44.507 44.507 0 0 1 5.159 8.813 22.232 22.232 0 0 1 5.289-.881c-1.307-3.473-3.334-7.074-6.301-10.709-.509-.627-1.087-1.228-1.651-1.84z" fill="#fcc21b"/><path d="M77.933 85.16c-.365 0-.746.017-1.135.059-2.072 6.541-8.789 9.396-15.895 8.523-11.147-1.365-21.377-9.852-24.813-20.504-.695-2.133-.939-4.252-1.021-6.508-.203-5.818.916-12.053 6.748-14.461l.068-.025c.191-.076.381-.127.572-.193-.416-.635-.848-1.289-1.264-2.018a10.629 10.629 0 0 1-1.139-3.184c-6.252 2.184-10.064 7.701-12.727 13.783-2.541 5.82-19.109 50.562-19.109 50.562l-2.223 5.998c-.762 2.076-1.939 4.17-1.939 6.439 0 2.654 2.361 4.457 5.016 3.721 1.779-.5 3.744-1.416 5.549-2.143 3.834-1.559 10.926-4.635 10.926-4.635l29.678-12.219s14.307-5.184 20.33-10.854c2.916-2.746 5.262-6.709 6.295-11.443-.215-.111-.432-.232-.652-.316-.988-.394-2.054-.582-3.265-.582z" fill="#fcc21b"/><path d="M55.683 47.543c.768 1.473 1.623 3.143 1.938 5.209a25.347 25.347 0 0 1 4.07 2.17c.449-1.439.924-2.863 1.414-4.312-.211-.127-.418-.277-.627-.399a35.347 35.347 0 0 0-6.951-2.982c.054.111.101.203.156.314z" fill="#fcc21b"/><path d="M111.935 31.979c-.16 1-.117 2.416.035 3.396.17 1.096.42 2.271.822 3.307.568 1.465 1.271.947 2.703.752.986-.135 1.906-.061 2.893-.262 1.033-.213 2.047-.482 3.084-.676 2.42-.459 3.631-1.002 3.121-3.551-.367-1.84-.977-3.67-1.457-5.492-.439-.389-1.289-.168-1.809-.051-.918.213-1.826.264-2.752.416-1.662.271-3.396.467-5.025.855-.854.196-1.487.448-1.615 1.306z" fill="#d7598b"/><path d="M98.872 61.996c.385.873 1.309.646 2.217.85 2.02.455 4.066.414 6.143.414.773 0 2.717.287 3.266-.398.439-.559.059-1.668-.004-2.322-.082-.846-.162-1.693-.242-2.535-.039-.402.029-3.023-.307-3.242-.584-.391-1.676-.203-2.342-.188-1.215.035-2.398.188-3.627.188-1.592 0-3.307.023-4.85.398-.539 1.432-.391 2.922-.391 4.488 0 .728-.16 1.669.137 2.347z" fill="#40c0e7"/><path d="M91.921 105.189c-.83-1.23-1.238-2.883-3.094-2.703-1.74.168-3.283 1.551-4.811 2.297-.988.482-1.707 1.338-1.912 2.424-.229 1.227.279 2.209.869 3.26.439.789.729 1.695 1.08 2.533.359.857.91 1.627 1.275 2.482.254.602.174.553.725.762.275.104.736.18 1.037.188 1.746.053 3.646-1.721 4.918-2.764 1.018-.82 3.064-1.336 2.854-2.887-.154-1.152-.951-2.256-1.502-3.246a32.608 32.608 0 0 0-1.439-2.346z" fill="#d7598b"/><path d="M111.456 113.594a1.672 1.672 0 0 0-.65-.271c-1.064-.188-1.762 1.094-2.596 1.916-1.006.973-2.205 1.736-3.127 2.805-.992 1.16-.223 2.201.801 2.82 1.107.67 2.1 1.508 3.197 2.213.979.635 1.771 1.186 2.859.508.986-.621 1.541-1.705 2.221-2.619 1.258-1.703 3.414-3.066 1.301-4.938-1.18-1.053-2.699-1.579-4.006-2.434z" fill="#40c0e7"/><path d="M9.003 55.059c.053-.465 1.348-4.144.959-4.246-.894-.219-1.732-.643-2.635-.881-1.045-.269-2.109-.482-3.084-.957-1.166-.576-1.891-.289-2.381.363-.686.924-.912 2.568-1.236 3.576-.256.787-.42 1.687.143 2.254.637.635 1.699.992 2.529 1.262 1.037.34 2.199.939 3.268 1.043 1.462.144 2.286-1.17 2.437-2.414z" fill="#40c0e7"/><path d="M68.634 19.543c1.297.582 2.559.912 3.893 1.293.471.139.771.365 1.26.113.627-.322 1.334-1.426 1.68-2.041.834-1.51 1.438-3 2.014-4.594.314-.848 1.232-2.229.998-3.127-.197-.764-1.303-1.229-1.922-1.559-.83-.432-1.619-1.01-2.465-1.381-1.08-.467-2.564-.977-3.721-1.152-.643-.095-1.089.161-1.44.567-.322.365-.564.856-.801 1.314-1.215 2.32-2.703 5.812-2.652 8.49.025 1.261 2.187 1.643 3.156 2.077z" fill="#40c0e7"/><path d="M16.647 33.301c.732 1.117 1.377 2.145 2.236 3.195.836 1.023 1.435 1.219 2.473.369.654-.523 1.391-.93 2.014-1.49.588-.523 1.084-1.178 1.672-1.721.424-.389 1.254-.775 1.488-1.318.33-.756-.363-1.424-.779-1.984-.518-.703-.92-1.465-1.492-2.16-.732-.883-1.516-1.705-2.336-2.533-.672-.67-1.483-1.701-2.242-2.221a1.592 1.592 0 0 0-.666-.254c-.91-.135-1.99.393-2.699.807-.969.568-1.91 1.424-2.756 2.168-1.326 1.178-.043 2.729.738 3.846.769 1.1 1.607 2.159 2.349 3.296z" fill="#d7598b"/><path d="M16.728 9.967c.674.723 1.5 1.594 2.436 2 .826.365 1.682-.365 2.346-.779.746-.465 1.361-1.127 1.916-1.805.512-.619 1.199-1.295 1.58-2.01.441-.82-.158-1.135-.768-1.625-.732-.602-1.475-1.219-2.094-1.939-.838-.982-1.676-2.078-2.57-2.982a1.102 1.102 0 0 0-1.037-.322c-1.189.203-2.602 1.873-3.301 2.416-.562.43-1.537 1.191-1.715 1.897-.207.805.258 1.574.656 2.236.677 1.11 1.677 1.971 2.551 2.913z" fill="#40c0e7"/><path d="M45.86 29.193c1.377 4.777-2.295 8.471-2.703 13.004-.115 1.312-.119 2.625.098 3.881.144.822.365 1.625.775 2.354.541.959 1.16 1.83 1.732 2.729.557.865 1.064 1.746 1.404 2.756.748 2.236.23 4.26-.092 6.479-.258 1.773-1.156 3.441-2.238 4.838-.332.434-1.24.982-1.018 1.611.031.109.23.152.523.152 1.199 0 4.029-.729 4.436-.924 1.805-.873 2.848-2.627 3.775-4.33 1.375-2.523 2.266-5.457 1.883-8.353a8.49 8.49 0 0 0-.484-1.881c-.674-1.789-1.779-3.389-2.408-5.219-.076-.223-.156-.441-.217-.67-.922-3.584 1.285-7.09 3.148-9.939 1.826-2.793 2.52-6.894 1.221-10.09-.656-1.617-1.725-3.244-3.008-4.43-1.529-1.416-3.859-2.711-3.602-5.16.225-2.127 1.656-4.365 2.746-6.135.545-.889 2.24-2.711 2.182-3.728-.055-1.041-1.496-1.559-2.186-2.168-1.565-1.383-2.797-2.439-4.805-3.074a2.894 2.894 0 0 0-.935-.17c-1.293 0-1.74 1.17-2.461 2.43-1.318 2.332-2.615 4.795-3.504 7.312-1.656 4.678-1.91 9.514 1.678 13.893 1.248 1.526 3.545 3.034 4.06 4.832z" fill="#ed6c30"/><path d="M62.081 69.539c.254.26.482.371.686.371.393 0 .703-.398.949-.873.189-.363.344-.727.457-1.125.67-2.246 1.996-4.484 3.104-6.559.197-.367.396-.729.592-1.094a198.485 198.485 0 0 1 2.346-4.277c.627-1.121 1.258-2.248 1.939-3.332 1.777-2.846 4.178-5.887 7.195-7.48 1.904-1.016 4.041-1.49 5.945-2.5 2.166-1.133 3.441-2.838 4.852-4.787 1.402-1.93 2.127-4.311 3.41-6.336.545-.855.457-1.617 1.406-2.221 2.113-1.322 4.639-.873 6.977-1.322 5.525-1.059 6.018-8.354 10.537-10.981.947-.549 1.918-1.057 2.883-1.574.557-.297 1.645-.668 2.029-1.221.674-.939-.596-2.168-.977-3.031-.664-1.484-1.654-2.975-2.496-4.348-.717-1.16-1.355-2.211-2.643-2.211l-.246.016c-2.891.279-5.469 1.551-7.324 3.762-2.254 2.703-2.551 6.873-6.092 8.346-2.305.965-5.012.584-7.186 1.914-2.584 1.584-3.406 4.701-4.133 7.441-.535 1.998-.568 4.412-2.094 5.978-2.062 2.111-5.185 2.365-7.834 3.5-.711.307-1.389.678-2.002 1.16-3.346 2.644-5.246 6.975-6.746 10.846-.613 1.594-1.16 3.211-1.697 4.83a207.17 207.17 0 0 0-1.463 4.541c-.242.779-.496 1.559-.736 2.348-.611 1.982-1.174 4.006-1.895 5.965-.473 1.262-.786 3.178.257 4.254z" fill="#ed6c30"/><path d="M127.438 86.797c-.193-.197-.463-.221-.734-.221l-.314.008-.168-.008c-.598-.043-1.104-.299-1.676-.5-2.674-.934-4.4-1.697-6.764-3.289-2.66-1.795-5.711-3.463-8.988-3.607l-.377-.01c-3.242 0-6.232 1.711-9.482 1.711h-.023c-3.602-.016-6.711-2.582-9.549-4.473a8.355 8.355 0 0 0-.736-.449c-2.232-1.262-4.635-1.812-7.051-1.838-.065 0-.127-.016-.186-.016-1.674 0-3.35.26-4.988.717a22.857 22.857 0 0 0-4.629 1.865 37.29 37.29 0 0 0-5.99 3.973c-1.029.832-2.164 1.781-2.863 2.932-.375.611-.902 2.934.068 3.307l.135.025c.377 0 1.002-.398 1.271-.568 2.156-1.33 4.443-2.492 6.865-3.254 1.992-.627 4.078-1.092 6.154-1.17.172-.008.346-.023.52-.023 1.49 0 2.975.227 4.41.785l.059.025c2.008.799 3.689 2.18 5.348 3.525 2.439 1.984 5.146 2.416 7.908 2.416 2.146 0 4.332-.256 6.455-.256 2.229 0 4.393.289 6.385 1.457 1.625.967 3.076 2.238 4.33 3.586 1.375 1.475 3.143 2.701 5.207 3.023a17.61 17.61 0 0 0 2.574.223h.018c1.5 0 2.066-1.73 2.834-2.723 1.045-1.338 1.762-2.879 2.711-4.295.395-.583 1.95-2.193 1.266-2.878z" fill="#ed6c30"/></g></svg>