<svg id="レイヤー_1" xmlns="http://www.w3.org/2000/svg" viewBox="0 0 128 128"><g><g><path d="M3.84 118.363c2.044-4.684 5.569-9.228 10.235-11.467 5.008-2.402 10.716-2.419 16.164-2.352 3.705.047 7.654.038 11.131-1.395 2.288-.944 3.944-2.63 5.473-4.519 1.336-1.646 2.598-4.684 4.649-2.199.587.708.293 1.197-.138 1.905-.62 1.002-1.165 2.086-1.958 2.956a21.325 21.325 0 0 1-11.935 6.669c-7.093 1.287-14.751-.92-21.49 2.297-3.28 1.572-5.821 4.364-7.153 7.752a16.6 16.6 0 0 0-1.104 5.31c-.114 2.761-.716 5.056-4.007 4.161-1.587-.423-1.14-2.94-.938-4.146.281-1.685.371-3.378 1.071-4.972z" fill="#2f2f2f"/><path d="M49.27 97.734c.374.025.117 6.312.11 6.899-.037 1.365-.273 2.734-.057 4.095.125.812.19 2.272.64 2.938.644.953 1.709.66 2.693.66 2.599 0 5.018-1.092 7.183-2.451.865-.545 1.86-.985 1.71-2.134-.111-.87-.978-1.905-1.473-2.597-1.752-2.426-5.607-7.133-8.98-7.149l-1.826-.261z" fill="#ed6c30"/><g><path d="M123.445 47.093C123.445 21.265 102.51.32 76.672.32c-23.763 0-43.371 17.728-46.367 40.674 0 0-5.831 37.02 19.185 58.128l3.908 1.303s36.437 3.866 57.36-21.319c7.865-8.365 12.687-19.628 12.687-32.013z" fill="#ed6c30"/></g></g><g><path d="M73.801 24.692c1.444-.831 2.79-1.818 3.904-3.108 3.886-4.479 1.625-10.027-4.242-10.829-2.951-.402-6.034.297-8.819 1.249a31.87 31.87 0 0 0-1.909.727c-5.624 2.356-10.737 6.301-13.543 11.848-.928 1.831-1.958 4.547-1.889 6.645.05 1.476.606 2.951 1.73 3.948 2.72 2.42 6.1-.476 8.363-2.019 2.842-1.933 5.846-3.6 8.962-5.047 2.44-1.133 5.081-2.066 7.443-3.414z" fill="#fff"/></g></g></svg>