<svg id="レイヤー_1" xmlns="http://www.w3.org/2000/svg" xmlns:xlink="http://www.w3.org/1999/xlink" viewBox="0 0 128 128"><g><g><g><path d="M29.416 91.281c-3.254-2.759-6.906-4.839-10.953-6.667a54.485 54.485 0 0 0-6.539-2.456 47.2 47.2 0 0 0-2.283-.623 5.332 5.332 0 0 1-1.152-.405c-.518-.252-1.344-.214-1.588-.842-.205-.521.203-1.081.533-1.46.402-.47.807-.782 1.338-1.102a35.922 35.922 0 0 1 3.77-1.999c1.746-.79 3.584-1.422 5.465-1.815.438-.089 1.156-.081 1.469-.474.283-.359-.146-1.11-.369-1.409-2.02-2.806-4.902-4.946-7.551-7.009-.82-.637-2.545-1.601-2.553-2.798-.006-1.682 4.432-1.567 5.805-1.524 2.531.081 5.094.508 7.523 1.212.432.124 1.32.517 1.508-.17.27-1-.385-2.14-.789-3.02-.518-1.119-1.055-2.229-1.586-3.344-.332-.722-1.508-2.443-1.156-3.275.449-1.068 2.373-.606 3.217-.47.994.154 2.014.637 2.926 1.06 2.43 1.119 4.67 2.618 6.674 4.39 7.076 6.244 11.217 15.684 11.775 25.037.299 4.963-.855 9.183-2.123 13.902-1.131 4.249-.893 8.529-3.502 12.369-2.016-2.4-2.861-6.488-3.955-9.439-.744-2.024-1.854-3.712-3.348-5.266a35.045 35.045 0 0 0-2.556-2.403z" fill="#757f3f"/><g><defs><path id="SVGID_1_" d="M29.416 91.281c-3.254-2.759-6.906-4.839-10.953-6.667a54.485 54.485 0 0 0-6.539-2.456 47.2 47.2 0 0 0-2.283-.623 5.332 5.332 0 0 1-1.152-.405c-.518-.252-1.344-.214-1.588-.842-.205-.521.203-1.081.533-1.46.402-.47.807-.782 1.338-1.102a35.922 35.922 0 0 1 3.77-1.999c1.746-.79 3.584-1.422 5.465-1.815.438-.089 1.156-.081 1.469-.474.283-.359-.146-1.11-.369-1.409-2.02-2.806-4.902-4.946-7.551-7.009-.82-.637-2.545-1.601-2.553-2.798-.006-1.682 4.432-1.567 5.805-1.524 2.531.081 5.094.508 7.523 1.212.432.124 1.32.517 1.508-.17.27-1-.385-2.14-.789-3.02-.518-1.119-1.055-2.229-1.586-3.344-.332-.722-1.508-2.443-1.156-3.275.449-1.068 2.373-.606 3.217-.47.994.154 2.014.637 2.926 1.06 2.43 1.119 4.67 2.618 6.674 4.39 7.076 6.244 11.217 15.684 11.775 25.037.299 4.963-.855 9.183-2.123 13.902-1.131 4.249-.893 8.529-3.502 12.369-2.016-2.4-2.861-6.488-3.955-9.439-.744-2.024-1.854-3.712-3.348-5.266a35.045 35.045 0 0 0-2.556-2.403z"/></defs><use xlink:href="#SVGID_1_" overflow="visible" fill="#bdcf46"/><clipPath id="SVGID_2_"><use xlink:href="#SVGID_1_" overflow="visible"/></clipPath></g></g><g><defs><path id="SVGID_3_" d="M37.83 39.606h19.287v67.566H37.83z"/></defs><use xlink:href="#SVGID_3_" overflow="visible" fill="#757f3f"/><clipPath id="SVGID_4_"><use xlink:href="#SVGID_3_" overflow="visible"/></clipPath><path d="M36.797 77.989a2.117 2.117 0 0 1-.479-1.316c-.012-.684 0-1.366 0-2.05 0-.611.154-1.187.158-1.764.234-.047.701.368.936.496 5.971 3.259 13.406 3.972 19.107-.269.402-.303 1.264-1.653 1.703-1.345.283.192.441 1.17.484 1.481.051.475.086 1.051.029 1.534-.076.649-.5 1.093-.855 1.636-3.291 5.031-10.25 5.599-15.584 4.279-1.941-.477-4.202-1.042-5.499-2.682z" clip-path="url(#SVGID_4_)" fill="#bdcf46"/></g><g><path d="M97.939 95.061c-2.211 2.229-4.318 4.715-6.475 7.444-.611.781-.666 1.824-1.221 2.631-.572-3.809-1.998-6.97-1.914-10.891.111-5.112-.291-10.233.025-15.341.223-3.596.025-7.278.324-10.874.492-5.804 10.916-12.916 16.248-13.765.818-.133 2.697-.585 3.135.457.332.807-.812 2.485-1.137 3.186-.508 1.085-1.025 2.166-1.533 3.258-.396.851-1.037 1.965-.764 2.934.18.671 1.041.287 1.459.167a30.161 30.161 0 0 1 7.32-1.183c1.334-.039 5.656-.15 5.648 1.486-.006 1.166-1.684 2.101-2.482 2.721-2.574 2.007-5.383 4.091-7.352 6.82-.213.291-.631 1.021-.352 1.371.303.38.994.376 1.42.466 1.838.38 3.621.995 5.322 1.764a34.697 34.697 0 0 1 3.668 1.942c.525.317.914.615 1.303 1.072.32.372.717.915.521 1.422-.238.611-1.043.573-1.547.82a5.19 5.19 0 0 1-1.127.393c-.744.184-1.486.388-2.213.606-7.787 2.343-13.299 6.075-18.276 11.094z" fill="#757f3f"/><g><defs><path id="SVGID_5_" d="M97.939 95.061c-2.211 2.229-4.318 4.715-6.475 7.444-.611.781-.666 1.824-1.221 2.631-.572-3.809-1.998-6.97-1.914-10.891.111-5.112-.291-10.233.025-15.341.223-3.596.025-7.278.324-10.874.492-5.804 10.916-12.916 16.248-13.765.818-.133 2.697-.585 3.135.457.332.807-.812 2.485-1.137 3.186-.508 1.085-1.025 2.166-1.533 3.258-.396.851-1.037 1.965-.764 2.934.18.671 1.041.287 1.459.167a30.161 30.161 0 0 1 7.32-1.183c1.334-.039 5.656-.15 5.648 1.486-.006 1.166-1.684 2.101-2.482 2.721-2.574 2.007-5.383 4.091-7.352 6.82-.213.291-.631 1.021-.352 1.371.303.38.994.376 1.42.466 1.838.38 3.621.995 5.322 1.764a34.697 34.697 0 0 1 3.668 1.942c.525.317.914.615 1.303 1.072.32.372.717.915.521 1.422-.238.611-1.043.573-1.547.82a5.19 5.19 0 0 1-1.127.393c-.744.184-1.486.388-2.213.606-7.787 2.343-13.299 6.075-18.276 11.094z"/></defs><use xlink:href="#SVGID_5_" overflow="visible" fill="#bdcf46"/><clipPath id="SVGID_6_"><use xlink:href="#SVGID_5_" overflow="visible"/></clipPath></g><g><g><g><g><g><defs><path id="SVGID_7_" d="M56.281 14.288h19.186v93.795H56.281z"/></defs><use xlink:href="#SVGID_7_" overflow="visible" fill="#757f3f"/><clipPath id="SVGID_8_"><use xlink:href="#SVGID_7_" overflow="visible"/></clipPath><path d="M54.836 50.826a2.127 2.127 0 0 1-.477-1.311c-.014-.684 0-1.371 0-2.055 0-.61.154-1.183.156-1.764.234-.047.697.367.936.495 5.975 3.263 13.408 3.972 19.105-.269.408-.303 1.268-1.649 1.707-1.345.287.196.441 1.174.48 1.482.055.474.088 1.055.029 1.533-.078.653-.492 1.093-.852 1.64-3.291 5.031-10.254 5.599-15.584 4.279-1.943-.481-4.201-1.041-5.5-2.685z" clip-path="url(#SVGID_8_)" fill="#bdcf46"/><path d="M54.836 82.91a2.143 2.143 0 0 1-.477-1.315c-.014-.684 0-1.367 0-2.05 0-.611.154-1.188.156-1.764.234-.047.697.367.936.496 5.975 3.258 13.408 3.972 19.105-.27.408-.303 1.268-1.652 1.707-1.345.287.192.441 1.171.48 1.482.055.475.088 1.051.029 1.533-.078.649-.492 1.094-.852 1.636-3.291 5.031-10.254 5.599-15.584 4.279-1.943-.478-4.201-1.042-5.5-2.682z" clip-path="url(#SVGID_8_)" fill="#bdcf46"/></g><path d="M75.467 14.288c0 7.701-4.293 13.945-9.594 13.945-5.295 0-9.592-6.244-9.592-13.945 0-7.705 4.297-13.949 9.592-13.949 5.301 0 9.594 6.244 9.594 13.949z" fill="#fcc21b"/></g><g><path d="M57.07 39.606c0 7.705-4.301 13.949-9.596 13.949s-9.594-6.244-9.594-13.949 4.299-13.949 9.594-13.949 9.596 6.244 9.596 13.949z" fill="#fcc21b"/></g><g><g><defs><path id="SVGID_9_" d="M74.684 46.581h19.189v59.717H74.684z"/></defs><use xlink:href="#SVGID_9_" overflow="visible" fill="#757f3f"/><clipPath id="SVGID_10_"><use xlink:href="#SVGID_9_" overflow="visible"/></clipPath><path d="M73.697 77.989a2.129 2.129 0 0 1-.479-1.316c-.014-.684 0-1.366 0-2.05 0-.611.146-1.187.16-1.764.232-.047.697.368.934.496 5.971 3.259 13.406 3.972 19.104-.269.406-.303 1.26-1.653 1.705-1.345.287.192.443 1.17.482 1.481.055.475.09 1.051.035 1.534-.078.649-.492 1.093-.852 1.636-3.295 5.031-10.258 5.599-15.59 4.279-1.94-.477-4.2-1.042-5.499-2.682z" clip-path="url(#SVGID_10_)" fill="#bdcf46"/></g><path d="M93.873 46.581c0 7.705-4.303 13.949-9.598 13.949-5.297 0-9.596-6.244-9.596-13.949s4.299-13.949 9.596-13.949c5.295 0 9.598 6.244 9.598 13.949z" fill="#fcc21b"/></g></g><g><defs><path id="SVGID_11_" d="M83.285 92.934c.586-.35.844-1.145.568-1.768 0 0-3.006-6.901-18.445-7.299-14.981-.384-20.1 6.723-20.1 6.723-.398.555-.24 1.29.346 1.636l18.377 10.835c.582.346 1.543.346 2.135 0l17.119-10.127z"/></defs><use xlink:href="#SVGID_11_" overflow="visible" fill="#fcc21b"/><clipPath id="SVGID_12_"><use xlink:href="#SVGID_11_" overflow="visible"/></clipPath></g></g></g></g></g><g><g><defs><path id="SVGID_13_" d="M96.543 97.773c-5.719 3.19-17.494 5.39-31.135 5.39-13.637 0-25.416-2.199-31.131-5.39v23.742c5.715 3.639 17.494 6.146 31.131 6.146 13.641 0 25.416-2.507 31.135-6.146V97.773z"/></defs><use xlink:href="#SVGID_13_" overflow="visible" fill="#f79329"/><clipPath id="SVGID_14_"><use xlink:href="#SVGID_13_" overflow="visible"/></clipPath><g clip-path="url(#SVGID_14_)" fill="#fcc21b"><path d="M63.689 100.95h4.371v29.166h-4.371z"/><path d="M47.217 99.43h4.375v29.167h-4.375z"/><path d="M80.16 99.43h4.373v29.167H80.16z"/></g></g></g></g></svg>