<svg id="レイヤー_1" xmlns="http://www.w3.org/2000/svg" viewBox="0 0 128 128"><g><path d="M124.768 84.324c-.629-.421-1.875-.767-3.017-1.059-.441-.116-.858-.225-1.233-.337-.809-.25-3.4-1.238-4.642-2.479-3.559-3.567-.025-9.692 1.142-11.714 1.287-2.241 1.963-3.85 2.098-6.412a1.1 1.1 0 0 0-1.106-1.121c-1.824 0-4.491.908-6.25 1.513-.792.267-1.417.483-1.934.608-3.191.771-9.676 1.559-12.834 1.559-1.316 0-2.575-.009-3.792-.018l-1.229-.008a654.95 654.95 0 0 0-4.112-.017c-7.521 0-14.56.225-24.51 2.983-3.779 1.046-9.071 2.992-13.159 5.046-.871.442-5.426 2.963-7.73 4.922-3.758 3.195-4.787 7.809-4.945 11.158-.342 6.913 2.441 14.568 6.946 19.06 2.116 2.109 4.99 3.047 7.888 2.926 1.658-.066 2.825-.475 3.704-.675 3.546-.804 7.03-2.172 10.655-3.601 2.327-.925 3.446-1.404 5.792-2.154.108-.037 1.16-.467 1.5-.658.826-.459 1.546-1.042 2.101-1.942 1.195-1.921 1.476-4.362 1.583-6.579.033-.671-.088-2.229 1.083-1.809.358.129.759.625.95.938.783 1.229 1.209 2.704 1.309 4.15.046.717.013 1.441-.15 2.142-.104.458-.566 1.3.076 1.546.212.083.391.004.607-.05.571-.154 1.15-.283 1.727-.4 3.966-.8 9.262-1.217 9.262-1.217 6.255-.688 12.726-1.396 18.468-3.8 3.805-1.592 7.821-4.188 11.617-7.513 1.313-1.15 2.38-2.759 2.597-3.905a1.07 1.07 0 0 0-.462-1.083z" fill="#ed6c30"/><path d="M119.192 35.033c-1.05-.324-3.866-1.217-4.658-2-2.334-2.3.749-6.217 2.225-8.55 1.634-2.551 3.551-5.813 4.038-8.918.688-4.425-8.634-1.25-11.201-.934-3.183.393-7.471.934-13.196.4-13.926-1.296-26.11-2.055-39.698 2.254-5.042 1.604-12.163 4.601-16.627 7.447a43.989 43.989 0 0 0-3.216 2.258c-.263.196-.529.392-.801.601-.637.483-3.442 2.82-5.087 5.912-1.426 2.663-2.134 5.413-2.325 7.676-.604 7.288 2.25 15.435 7.117 20.264 2.416 2.409 5.908 3.571 9.346 3.367 1.884-.108 3.08-.542 3.425-.608a41.013 41.013 0 0 0 6.126-1.7c2.13-.771 6.363-2.5 8.4-3.467a39.86 39.86 0 0 1 3.974-1.625c.335-.117 2.215-1.15 2.756-1.646 1.66-1.533 2.9-3.592 3.702-5.629.349-.888.641-1.812.849-2.742a13.3 13.3 0 0 0 .258-3.812c-.091-1.346-.392-2.692-.558-4.025-.049-.429-.062-.737.467-.825.466-.075.875.392 1.158.717.983 1.121 1.596 2.454 1.858 3.93.533 2.934.76 6.209-.324 9.051-.218.541-1.143 1.579-.401 2.108.625.458 3.259-.154 3.501-.188 3.041-.388 6.1-.638 9.292-.913 6.025-.524 11.992-.354 17.843-1.996 4.867-1.366 9.292-3.212 12.968-6.138 1.491-1.191 4.396-3.467 5.333-6.533.757-2.51-4.018-2.957-6.544-3.736z" fill="#006ca2"/><g><g><path d="M26.491 7.902c-.455-.888-1.396-1.037-2.104-.329l-3.546 3.538c-.705.708-1.171 1.696-1.046 2.196v.991c-.125.5.341 1.487 1.046 2.196l3.537 3.537c.709.705 1.658.559 2.113-.329 0 0 1.587-3.096 1.587-5.9 0-2.803-1.587-5.9-1.587-5.9z" fill="#fcc21b"/></g><g><path d="M12.439 8.095c.705.704 1.696 1.175 2.196 1.041h.992c.5.134 1.491-.337 2.2-1.041l3.541-3.538c.7-.708.551-1.658-.336-2.112 0 0-3.097-1.588-5.905-1.588-2.801 0-5.897 1.588-5.897 1.588-.886.453-1.031 1.404-.328 2.112l3.537 3.538z" fill="#fcc21b"/></g><g><path d="M17.824 19.512c-.705-.704-1.696-1.175-2.196-1.042h-.992c-.5-.133-1.491.338-2.196 1.042L8.908 23.05c-.709.708-.561 1.658.327 2.112 0 0 3.092 1.588 5.892 1.588 2.809 0 5.905-1.588 5.905-1.588.887-.454 1.036-1.404.328-2.112l-3.536-3.538z" fill="#fcc21b"/></g><g><path d="M10.461 13.803v-.495c.133-.5-.334-1.492-1.038-2.196L5.886 7.573c-.709-.708-1.659-.558-2.113.329 0 0-1.588 3.097-1.588 5.9 0 2.805 1.588 5.9 1.588 5.9.459.888 1.413 1.038 2.121.329l3.529-3.537c.704-.704 1.171-1.696 1.038-2.196v-.495z" fill="#fcc21b"/></g></g><path d="M19.545 30.083c-.233-.133-.567.101-.792.171a7.963 7.963 0 0 1-2.525.346 7.617 7.617 0 0 1-1.221-.12c-.246-.046-.658-.121-.612.267 0 .041.008.083.017.125.017.096.024.195.033.296l.125.866c.05.384.105.767.154 1.15.062.471.129.941.191 1.412.076.551.15 1.104.229 1.659.074.629.166 1.258.258 1.888.092.699.184 1.404.279 2.104.105.767.208 1.534.312 2.305.112.825.226 1.654.333 2.483l.363 2.65c.129.934.245 1.871.379 2.805.134.979.263 1.958.396 2.933.138 1.021.279 2.038.417 3.055.138 1.055.287 2.108.425 3.158.146 1.08.296 2.163.442 3.242l.445 3.313c.154 1.121.305 2.246.461 3.367.151 1.134.306 2.271.464 3.404.15 1.142.305 2.283.459 3.426.154 1.146.309 2.287.458 3.434.163 1.137.316 2.279.471 3.421.154 1.129.305 2.263.454 3.392.15 1.117.309 2.233.463 3.351.146 1.1.292 2.195.441 3.296.146 1.07.29 2.142.438 3.217.142 1.042.283 2.083.417 3.125.142 1.009.279 2.013.417 3.021.125.967.258 1.929.396 2.896.123.921.25 1.838.367 2.759.12.867.237 1.733.353 2.6.108.812.217 1.621.329 2.434.097.746.204 1.492.305 2.242.092.679.188 1.358.274 2.038l.25 1.821c.067.529.143 1.054.213 1.583.062.446.121.887.18 1.333.05.354.096.708.142 1.063.037.262.074.521.108.779.024.163.041.321.066.483.008.054.013.108.017.163a2.677 2.677 0 0 0 3 2.284 2.658 2.658 0 0 0 2.283-3c0-.025 0-.05-.004-.075-.017-.125-.029-.25-.051-.379-.036-.229-.062-.454-.095-.683-.042-.329-.092-.654-.134-.983a118.78 118.78 0 0 1-.166-1.254c-.075-.504-.138-1.008-.209-1.513l-.237-1.758c-.088-.663-.179-1.325-.263-1.988-.106-.729-.204-1.462-.304-2.192a490.4 490.4 0 0 0-.329-2.392 241.62 241.62 0 0 0-.342-2.567c-.125-.908-.246-1.816-.375-2.725-.125-.959-.254-1.917-.38-2.876-.142-1-.274-2-.412-3-.138-1.037-.283-2.075-.421-3.112-.146-1.071-.294-2.142-.434-3.213-.146-1.096-.3-2.191-.441-3.288-.162-1.116-.312-2.233-.463-3.35-.149-1.134-.3-2.267-.456-3.4-.156-1.142-.311-2.288-.469-3.43-.153-1.146-.309-2.296-.463-3.441-.149-1.146-.312-2.296-.466-3.442-.154-1.142-.312-2.279-.463-3.421-.158-1.129-.309-2.259-.463-3.388-.149-1.112-.296-2.225-.45-3.333-.153-1.092-.291-2.18-.441-3.271-.145-1.059-.285-2.121-.434-3.184-.137-1.025-.278-2.055-.416-3.079-.138-.992-.267-1.979-.404-2.967-.125-.946-.254-1.888-.384-2.834l-.362-2.684-.338-2.517c-.108-.775-.212-1.555-.319-2.333l-.289-2.134c-.083-.642-.175-1.283-.258-1.921-.078-.562-.154-1.125-.229-1.688-.07-.483-.129-.963-.195-1.442l-.163-1.179c-.037-.296-.079-.596-.116-.896-.013-.112-.033-.225-.05-.337-.013-.108-.022-.213-.101-.3a.256.256 0 0 0-.085-.071z" fill="#fcc21b"/><path d="M63.627 42.055c-3.58.867-7.512-2.188-8.488-5.571-.167-.562-.283-1.188-.388-1.767-.884-4.851 3.504-8.621 8.114-7.104 3.703 1.221 6.149 6.367 5.174 10.109-.471 1.803-2.562 3.882-4.412 4.333z" fill="#fff"/><path d="M62.639 38.733c-1.95.476-4.096-1.191-4.634-3.037-.087-.309-.149-.65-.208-.967-.483-2.642 1.908-4.704 4.426-3.875 2.019.666 3.352 3.475 2.825 5.517-.259.983-1.401 2.117-2.409 2.362z" fill="#2f2f2f"/><g><g><g fill="#fcc21b"><path d="M79.998 75.836c-.09-.279-.179-.562-.25-.854a6.502 6.502 0 0 0-.274-.884c-.44-1.145 1.3-.934 2-.858a3.67 3.67 0 0 1 2.054.937c.888.825 1.167 2.15 1.006 3.312-.181 1.358-1.118 2.13-2.168 2.909-.392.291-.934.425-1.184-.097-.232-.466-.279-1.041-.398-1.533-.168-.679-.368-1.388-.535-2.079-.075-.291-.159-.57-.251-.853z"/><path d="M82.47 85.237c-.092-.279-.187-.562-.255-.854a6.942 6.942 0 0 0-.271-.884c-.446-1.146 1.3-.934 1.996-.858a3.683 3.683 0 0 1 2.055.938c.892.825 1.163 2.15 1.008 3.313-.188 1.358-1.129 2.129-2.171 2.908-.392.292-.934.425-1.191-.096-.226-.467-.271-1.042-.392-1.534-.175-.679-.367-1.387-.534-2.079-.074-.291-.158-.57-.245-.854z"/><path d="M95.524 74.882a19.017 19.017 0 0 1-.25-.854 7.515 7.515 0 0 0-.254-.892c-.438-1.149 1.309-.921 2-.837a3.669 3.669 0 0 1 2.046.958c.884.833 1.15 2.158.979 3.321-.196 1.354-1.146 2.116-2.205 2.888-.383.287-.925.417-1.179-.108-.226-.467-.263-1.042-.388-1.538-.158-.679-.35-1.387-.508-2.083a9.446 9.446 0 0 0-.241-.855z"/><path d="M97.908 84.308c-.084-.283-.175-.566-.246-.858a7.183 7.183 0 0 0-.263-.888c-.434-1.15 1.309-.921 2.006-.842.761.096 1.478.43 2.045.959.883.833 1.146 2.158.979 3.32-.195 1.358-1.146 2.121-2.204 2.888-.388.288-.929.417-1.179-.108-.222-.462-.263-1.041-.384-1.533-.167-.684-.354-1.388-.521-2.088a8.275 8.275 0 0 0-.233-.85z"/><path d="M85.832 70.386c-.096-.279-.195-.559-.275-.846-.091-.292-.183-.596-.308-.875-.479-1.129 1.267-.976 1.967-.925.767.062 1.5.362 2.087.866.913.792 1.238 2.113 1.121 3.275-.138 1.367-1.059 2.171-2.075 2.983-.375.305-.912.454-1.19-.059-.238-.454-.305-1.029-.442-1.517-.2-.675-.417-1.375-.604-2.062-.08-.282-.18-.561-.281-.84z"/><path d="M88.453 79.837c-.088-.284-.17-.567-.237-.858a8.436 8.436 0 0 0-.267-.888c-.434-1.15 1.312-.921 2-.834.767.092 1.487.43 2.042.959.892.829 1.149 2.162.983 3.321-.2 1.358-1.15 2.12-2.205 2.888-.392.287-.933.412-1.188-.108-.221-.472-.258-1.046-.383-1.542-.158-.68-.346-1.388-.509-2.084a10.656 10.656 0 0 0-.236-.854z"/><path d="M90.857 89.629a17.752 17.752 0 0 1-.25-.858 7.297 7.297 0 0 0-.254-.888c-.438-1.15 1.312-.921 1.996-.838a3.644 3.644 0 0 1 2.05.963c.884.829 1.142 2.163.975 3.321-.195 1.358-1.149 2.116-2.204 2.888-.388.283-.938.412-1.184-.112-.225-.467-.262-1.042-.379-1.538-.167-.679-.358-1.392-.513-2.083-.07-.293-.154-.572-.237-.855z"/><g><path d="M100.958 70.086c-.104-.275-.212-.555-.3-.842a6.666 6.666 0 0 0-.316-.867c-.509-1.12 1.25-1.004 1.945-.966a3.678 3.678 0 0 1 2.104.824c.934.775 1.279 2.088 1.188 3.255-.112 1.366-1.013 2.188-2.017 3.02-.371.312-.904.476-1.188-.033-.254-.45-.329-1.02-.476-1.508-.212-.667-.449-1.363-.649-2.046-.083-.287-.187-.562-.291-.837z"/><path d="M103.767 79.482c-.092-.283-.184-.562-.259-.854a7.606 7.606 0 0 0-.283-.883c-.458-1.143 1.296-.946 1.983-.875a3.675 3.675 0 0 1 2.075.921c.896.812 1.188 2.137 1.034 3.3-.171 1.362-1.108 2.142-2.143 2.93-.387.296-.933.433-1.191-.088-.225-.463-.279-1.037-.408-1.529-.175-.675-.376-1.384-.55-2.071-.075-.292-.167-.571-.258-.851z"/><path d="M106.367 89.221a13.759 13.759 0 0 1-.259-.851 6.916 6.916 0 0 0-.283-.883c-.454-1.142 1.296-.95 1.983-.875a3.635 3.635 0 0 1 2.066.916c.9.812 1.192 2.143 1.046 3.301-.171 1.362-1.112 2.146-2.149 2.934-.384.291-.921.429-1.188-.084-.229-.467-.284-1.041-.409-1.533-.175-.675-.383-1.383-.554-2.071-.07-.292-.162-.571-.253-.854z"/></g></g></g><path d="M70.414 90c-3.329 1.075-7.233-1.75-8.358-5.071a18.677 18.677 0 0 1-.476-1.742c-1.129-4.788 2.792-8.809 7.244-7.559 3.573 1.009 6.19 6.009 5.503 9.797-.336 1.829-2.196 4.02-3.913 4.575z" fill="#fff"/><path d="M69.181 86.458c-1.683.541-3.658-.888-4.229-2.567-.096-.274-.168-.592-.237-.879-.575-2.425 1.408-4.454 3.667-3.821 1.8.509 3.125 3.038 2.779 4.95-.17.925-1.113 2.038-1.98 2.317z" fill="#2f2f2f"/><path d="M48.009 80.732c-1.013.108-1.975.546-2.867 1.312-2.733 2.346-3.412 5.75-3.496 8.192-.183 5.042 1.917 10.592 5.234 13.813 1.559 1.513 3.662 2.254 5.767 2.037 1.851-.191 3.45-1.12 4.509-2.616 3.075-4.354 2.059-11.817-.467-16.626-1.697-3.22-5.313-6.457-8.68-6.112z" fill="#fff"/></g><g fill="#40c0e7"><path d="M76.79 27.434c-.091-.292-.184-.584-.257-.884a7.24 7.24 0 0 0-.281-.913c-.462-1.188 1.347-.966 2.063-.887a3.734 3.734 0 0 1 2.125.971c.916.85 1.208 2.221 1.046 3.421-.192 1.408-1.167 2.204-2.25 3.009-.404.3-.963.438-1.226-.101-.237-.479-.279-1.075-.412-1.583-.176-.704-.375-1.434-.551-2.15-.069-.3-.165-.592-.257-.883z"/><path d="M79.34 37.154c-.087-.291-.182-.583-.258-.883a8.041 8.041 0 0 0-.275-.917c-.467-1.184 1.342-.963 2.059-.884.793.088 1.533.43 2.126.967.917.854 1.208 2.226 1.045 3.426-.191 1.408-1.167 2.204-2.25 3.008-.404.301-.958.438-1.221-.1-.241-.479-.288-1.075-.417-1.588-.171-.699-.375-1.429-.55-2.149-.072-.296-.167-.588-.259-.88z"/><path d="M92.85 26.445a14.98 14.98 0 0 1-.259-.883 7.866 7.866 0 0 0-.267-.921c-.45-1.188 1.354-.95 2.066-.867a3.753 3.753 0 0 1 2.117.992c.917.858 1.184 2.233 1.013 3.434-.204 1.399-1.188 2.191-2.271 2.987-.408.296-.966.43-1.229-.112-.237-.483-.271-1.079-.392-1.592-.171-.704-.367-1.434-.534-2.154-.07-.3-.161-.592-.244-.884z"/><path d="M95.312 36.192a12.234 12.234 0 0 1-.262-.888 6.728 6.728 0 0 0-.259-.917c-.458-1.191 1.351-.954 2.062-.871a3.801 3.801 0 0 1 2.117.992c.912.862 1.188 2.233 1.013 3.434-.2 1.404-1.184 2.195-2.275 2.987-.404.296-.958.43-1.226-.116-.229-.476-.267-1.075-.392-1.584-.175-.708-.366-1.434-.533-2.158a21.515 21.515 0 0 0-.245-.879z"/><path d="M82.828 21.795c-.104-.287-.209-.575-.295-.87-.093-.305-.185-.621-.306-.909-.504-1.166 1.306-1.008 2.029-.954a3.748 3.748 0 0 1 2.154.896c.95.82 1.283 2.183 1.163 3.383-.142 1.417-1.092 2.246-2.147 3.088-.392.312-.945.467-1.228-.059-.25-.471-.317-1.066-.463-1.57-.203-.7-.43-1.421-.625-2.13-.077-.296-.186-.587-.282-.875z"/><path d="M85.533 31.571c-.084-.292-.176-.588-.247-.893-.079-.3-.158-.616-.271-.912-.45-1.191 1.35-.954 2.066-.867a3.765 3.765 0 0 1 2.117.996c.912.854 1.184 2.233 1.008 3.434-.204 1.404-1.188 2.192-2.279 2.983-.404.296-.962.43-1.228-.112-.226-.483-.267-1.079-.392-1.592-.167-.704-.358-1.438-.524-2.154a12.868 12.868 0 0 0-.25-.883z"/><path d="M88.02 41.692a13.356 13.356 0 0 1-.254-.888 7.86 7.86 0 0 0-.267-.917c-.446-1.188 1.358-.949 2.075-.862a3.788 3.788 0 0 1 2.108.992c.917.858 1.188 2.237 1.009 3.434-.205 1.408-1.192 2.191-2.283 2.987-.4.296-.959.425-1.222-.116-.229-.483-.263-1.08-.392-1.588-.167-.704-.362-1.442-.529-2.154a20.262 20.262 0 0 0-.245-.888z"/><g><path d="M98.462 21.487c-.104-.288-.212-.575-.307-.871a7.144 7.144 0 0 0-.331-.896c-.521-1.158 1.296-1.037 2.013-1a3.786 3.786 0 0 1 2.171.854c.967.8 1.325 2.158 1.233 3.362-.116 1.413-1.046 2.268-2.083 3.126-.384.324-.938.491-1.229-.033-.263-.467-.337-1.059-.491-1.564-.221-.688-.463-1.408-.671-2.112a12.483 12.483 0 0 0-.305-.866z"/><path d="M101.375 31.204a12.069 12.069 0 0 1-.275-.884 7.37 7.37 0 0 0-.291-.912c-.467-1.184 1.341-.979 2.058-.904a3.76 3.76 0 0 1 2.134.95c.925.838 1.226 2.213 1.075 3.413-.175 1.408-1.142 2.212-2.217 3.029-.4.304-.958.449-1.229-.092-.241-.476-.287-1.071-.429-1.579-.176-.7-.392-1.434-.567-2.143-.075-.299-.167-.59-.259-.878z"/><path d="M104.059 41.275a12.644 12.644 0 0 1-.271-.883 8.304 8.304 0 0 0-.287-.913c-.467-1.179 1.338-.979 2.05-.904a3.763 3.763 0 0 1 2.138.95c.934.838 1.229 2.213 1.079 3.413-.183 1.408-1.146 2.217-2.225 3.029-.392.304-.959.445-1.226-.088-.241-.479-.291-1.075-.425-1.583-.179-.7-.392-1.43-.575-2.142-.076-.3-.167-.587-.258-.879z"/></g></g><path d="M40.096 32.775c-1.19.166-2.312.679-3.342 1.541-3.108 2.601-3.858 6.268-3.946 8.893-.171 5.338 2.217 11.185 5.946 14.526 1.854 1.671 4.45 2.458 6.95 2.116 2.134-.296 3.972-1.366 5.176-3.021 3.444-4.722 2.267-12.622-.583-17.664-1.98-3.503-6.23-6.933-10.201-6.391z" fill="#fff"/></g></svg>