<svg id="图层_1" xmlns="http://www.w3.org/2000/svg" viewBox="0 0 128 128"><path d="M121.535 62.897c-.026 26.019-.014 29.532-.014 33.044.007 6.582-2.89 12.128-7.578 16.785-9.529 9.464-22.933 13.522-36.254 14.544-4.47.344-8.988.449-13.473.449-4.479 0-8.998-.106-13.466-.449-13.323-1.022-26.725-5.08-36.255-14.544-4.693-4.657-7.583-10.203-7.577-16.785 0-3.513.011-7.026-.015-33.044h114.632z" fill="#fcc21b"/><path d="M121.596 50.87c-9.078-11.944-23.82-20.973-38.032-23.102-4.206-.63-8.455-.909-12.69-1.145-9.585-.518-19.557-.122-29.069 1.34-10.422 1.603-21.718 6.365-29.92 13.805-2.546 2.307-4.361 5.376-5.803 8.514-3.303 7.205-4.749 15.462-4.753 23.395-.005 5.262.857 10.469 5.436 13.386 1.298.827 2.869.774 4.315.457 2.215-.493 3.757-1.576 5.959-.374 3.265 1.78 3.927 5.602 5.733 8.567 3.238 5.332 10.464 7.709 16.163 5.45 5.785-2.294 9.746 3.622 14.5 5.803 5.663 2.595 12.459 1.78 17.866-.983 1.479-.758 2.554-1.859 3.839-2.916 2.459-2.038 5.311-3.261 8.477-3.357 4.195-.131 8.401 1.746 12.558.474 3.434-1.044 5.868-4.157 7.683-7.165 1.542-2.546 2.804-5.833 6.13-6.169 3.352-.335 6.134 2.934 9.586 1.833 6.129-1.951 7.03-10.129 7.096-15.641.086-6.787-.88-14.649-4.137-20.683a12.244 12.244 0 0 0-.937-1.489z" fill="#fff3e0"/><g><path d="M74.931 42.294c-.087.583-.079 1.202-.083 1.759a391.092 391.092 0 0 1-.096 5.938c-.087 3.958-.196 7.915-.196 11.867 0 2.56-1.101 7.936 1.929 9.133 2.926 1.158 6.595.549 6.578-3.631-.01-1.188 0-2.376 0-3.561 0-4.979-.01-9.947 0-14.939 0-1.454-.161-2.873-.148-4.323.009-1.215.053-2.79-.831-3.669-.687-.688-1.707-.837-2.602-.854-1.051-.025-2.492-.183-3.437.366-.714.412-.997 1.13-1.114 1.914z" fill="#40c0e7"/><g><path d="M74.809 45.807a8.26 8.26 0 0 1-3.4-4.026c-.513-1.263-.856-2.899-.787-4.267.165-3.286 1.98-6.329 4.318-8.549 1.385-1.319 3.064-2.982 5.021-3.339 4.16-.757 7.072 6.051 7.934 9.12 1.563 5.564-1.632 11.388-7.605 11.954-1.556.143-4.114-.066-5.481-.893z" fill="#ed6c30"/><path d="M76.989 44.627c-.617-.435-1.114-1.083-1.419-1.955-.214-.613-.361-1.406-.331-2.067.069-1.594.827-3.065 1.805-4.144.576-.636 1.277-1.446 2.096-1.615 1.737-.37 2.956 2.929 3.312 4.417.653 2.7-.683 5.521-3.177 5.79-.644.071-1.715-.029-2.286-.426z" fill="#fcc21b"/></g></g><g><path d="M97.38 24.96c-.088.583-.079 1.206-.083 1.759a405.455 405.455 0 0 1-.096 5.943c-.087 3.956-.196 7.91-.196 11.866 0 2.56-1.102 7.936 1.929 9.129 2.925 1.158 6.596.553 6.575-3.631-.006-1.184 0-2.372 0-3.56 0-4.979-.011-9.943 0-14.936.003-1.454-.158-2.877-.15-4.323.01-1.219.058-2.795-.827-3.674-.692-.688-1.706-.831-2.603-.853-1.054-.026-2.494-.183-3.435.366-.715.416-1.001 1.13-1.114 1.914z" fill="#40c0e7"/><g><path d="M97.257 28.477c-1.475-.9-2.672-2.229-3.403-4.031-.51-1.258-.854-2.899-.788-4.266.165-3.282 1.985-6.325 4.322-8.549 1.385-1.315 3.06-2.978 5.016-3.335 4.161-.757 7.078 6.051 7.941 9.115 1.564 5.565-1.638 11.389-7.61 11.954-1.551.149-4.115-.06-5.478-.888z" fill="#ed6c30"/><path d="M99.403 27.329c-.618-.401-1.118-1.01-1.428-1.829-.212-.575-.357-1.314-.326-1.933.065-1.498.831-2.873 1.807-3.883.583-.601 1.288-1.359 2.106-1.515 1.745-.349 2.965 2.742 3.331 4.135.652 2.534-.688 5.172-3.192 5.434-.647.06-1.722-.036-2.298-.409z" fill="#fcc21b"/></g></g><g><path d="M57.967 17.002c-.087.583-.077 1.206-.083 1.759a391.752 391.752 0 0 1-.096 5.943c-.087 3.956-.196 7.91-.196 11.866 0 2.56-1.102 7.936 1.929 9.129 2.926 1.158 6.598.553 6.578-3.631-.01-1.184 0-2.372 0-3.561 0-4.979-.01-9.943 0-14.935 0-1.454-.161-2.877-.149-4.323.01-1.219.054-2.794-.831-3.674-.687-.688-1.706-.832-2.603-.854-1.049-.025-2.49-.183-3.436.367-.712.416-.996 1.131-1.113 1.914z" fill="#40c0e7"/><g><path d="M57.846 20.52c-1.477-.9-2.674-2.229-3.401-4.031-.514-1.258-.857-2.899-.787-4.266.165-3.282 1.981-6.325 4.318-8.549C59.36 2.359 61.039.696 62.995.339c4.161-.757 7.074 6.051 7.936 9.115 1.563 5.564-1.632 11.389-7.605 11.954-1.555.148-4.115-.061-5.48-.888z" fill="#ed6c30"/><path d="M60.095 19.371c-.648-.445-1.166-1.119-1.488-2.016-.227-.631-.379-1.457-.344-2.137.069-1.646.866-3.169 1.891-4.284.604-.661 1.339-1.489 2.191-1.671 1.824-.374 3.1 3.029 3.479 4.566.686 2.79-.719 5.707-3.335 5.986-.675.073-1.798-.031-2.394-.444z" fill="#fcc21b"/></g></g><g><path d="M40.166 40.196c-.087.583-.077 1.201-.081 1.758a404.536 404.536 0 0 1-.098 5.938c-.087 3.956-.195 7.914-.195 11.866 0 2.56-1.102 7.936 1.929 9.132 2.925 1.158 6.595.549 6.577-3.629-.009-1.189 0-2.377 0-3.562 0-4.98-.009-9.947 0-14.94 0-1.454-.159-2.873-.147-4.323.008-1.214.052-2.79-.832-3.669-.688-.688-1.704-.836-2.604-.853-1.049-.026-2.489-.184-3.434.365-.714.414-.997 1.134-1.115 1.917z" fill="#40c0e7"/><g><path d="M40.045 43.709c-1.477-.901-2.673-2.229-3.4-4.027-.514-1.262-.857-2.899-.788-4.267.166-3.286 1.981-6.329 4.318-8.549 1.385-1.319 3.065-2.982 5.02-3.339 4.163-.757 7.073 6.052 7.936 9.121 1.562 5.563-1.633 11.387-7.603 11.954-1.556.143-4.116-.066-5.483-.893z" fill="#ed6c30"/><path d="M42.199 42.555c-.662-.452-1.192-1.141-1.515-2.059-.23-.649-.388-1.484-.354-2.181.075-1.688.887-3.243 1.925-4.378.618-.68 1.366-1.528 2.238-1.711 1.86-.388 3.155 3.095 3.543 4.67.691 2.847-.731 5.83-3.4 6.121-.687.069-1.827-.036-2.437-.462z" fill="#fcc21b"/></g></g><g><path d="M20.887 22.265c-.087.588-.079 1.206-.082 1.763a405.317 405.317 0 0 1-.097 5.937c-.087 3.953-.196 7.915-.196 11.867 0 2.56-1.1 7.931 1.929 9.133 2.926 1.154 6.596.549 6.578-3.635-.01-1.188 0-2.372 0-3.557 0-4.984-.01-9.951 0-14.939 0-1.454-.16-2.873-.149-4.327.009-1.211.053-2.786-.831-3.666-.688-.688-1.707-.836-2.604-.858-1.049-.022-2.49-.183-3.435.366-.713.415-.996 1.137-1.113 1.916z" fill="#40c0e7"/><g><path d="M20.765 25.778c-1.476-.897-2.673-2.228-3.398-4.022-.515-1.263-.858-2.904-.789-4.267.165-3.291 1.98-6.329 4.318-8.549 1.384-1.323 3.064-2.986 5.019-3.343 4.162-.758 7.074 6.051 7.935 9.123 1.563 5.564-1.632 11.389-7.603 11.95-1.557.145-4.116-.065-5.482-.892z" fill="#ed6c30"/><path d="M23.033 24.585c-.624-.465-1.119-1.167-1.429-2.107-.213-.661-.357-1.519-.33-2.229.069-1.723.831-3.317 1.811-4.479.583-.692 1.289-1.563 2.11-1.745 1.747-.397 2.969 3.168 3.335 4.77.653 2.917-.688 5.964-3.198 6.26-.649.075-1.725-.034-2.299-.47z" fill="#fcc21b"/></g></g><path d="M122.531 52.358a11.941 11.941 0 0 0-.936-1.488c-.261-.344-.543-.676-.813-1.014.338 1.681 5.246 30.619-57.258 30.619-61.875 0-57.688-28.356-57.27-30.557-.057.122-.118.243-.174.365-3.303 7.205-4.749 15.462-4.753 23.395-.005 5.262.857 10.469 5.436 13.386 1.298.827 2.869.774 4.315.457 2.215-.493 3.757-1.576 5.959-.375 3.265 1.78 3.927 5.602 5.733 8.567 3.238 5.332 10.464 7.709 16.163 5.45 5.785-2.294 9.746 3.622 14.5 5.803 5.663 2.595 12.459 1.78 17.866-.983 1.479-.758 2.554-1.859 3.839-2.917 2.459-2.038 5.311-3.261 8.477-3.357 4.195-.131 8.401 1.746 12.558.474 3.434-1.044 5.868-4.157 7.683-7.164 1.542-2.546 2.804-5.833 6.13-6.169 3.352-.335 6.134 2.934 9.586 1.833 6.129-1.951 7.03-10.129 7.096-15.641.086-6.788-.88-14.65-4.137-20.684z" fill="#ffe0b2"/></svg>