<svg id="レイヤー_1" xmlns="http://www.w3.org/2000/svg" viewBox="0 0 128 128"><g><path d="M65.488 56.016c.133.32.451 1.184.748 1.361.363.232 1.602-.352 1.963-.537a6.107 6.107 0 0 0 2.658-2.656c1.15-2.266-.268-5.098-3-4.795-2.99.343-3.224 4.474-2.369 6.627z" fill="#ed6c30"/><path d="M57.904 65.309c.271-.232 1-.793 1.08-1.129.109-.416-.82-1.416-1.1-1.705a6.09 6.09 0 0 0-3.332-1.744c-2.51-.416-4.791 1.795-3.674 4.307 1.222 2.743 5.233 1.726 7.026.271z" fill="#ed6c30"/><path d="M69.559 70.07c-.34-.088-1.229-.328-1.545-.191-.4.166-.641 1.512-.705 1.904a6.141 6.141 0 0 0 .631 3.715c1.178 2.248 4.309 2.736 5.641.334 1.46-2.631-1.774-5.225-4.022-5.762z" fill="#ed6c30"/><path d="M59.006 52.686c.424.393.854.842 1.32 1.186.268.201.871.361 1.139.088.412-.408.537-1.496.662-2.033.568-2.434.875-4.961.461-7.436l-.016-.08c-.645-3.881-6.027-4.85-7.629-1.049l-.113.305c-.754 2.297.133 4.707 1.674 6.443a40.248 40.248 0 0 0 2.502 2.576z" fill="#ed6c30"/><path d="M49.426 57.834a41.01 41.01 0 0 0 3.561.439c.576.047 1.189.129 1.777.105.322-.012.9-.266.945-.641.062-.578-.521-1.506-.762-2.002-1.072-2.258-2.412-4.426-4.277-6.1l-.064-.057c-2.926-2.625-7.74-.014-6.615 3.955l.109.303c.839 2.268 3.031 3.596 5.326 3.998z" fill="#ed6c30"/><path d="M42.646 70.92c-3.711 1.305-3.73 6.777.293 7.699l.318.055c2.393.346 4.607-.943 6.059-2.76A39.435 39.435 0 0 0 51.414 73c.316-.488.68-.984.943-1.504.149-.297.197-.92-.107-1.137-.48-.336-1.572-.273-2.125-.305-2.488-.135-5.039 0-7.398.832l-.081.034z" fill="#ed6c30"/><path d="M66.697 89.736c1.508-1.889 1.52-4.451.684-6.629a41.81 41.81 0 0 0-1.451-3.281c-.258-.52-.506-1.078-.82-1.576-.182-.271-.693-.633-1.037-.479-.533.24-1.025 1.215-1.334 1.68-1.381 2.08-2.549 4.346-3.025 6.803l-.016.088c-.744 3.859 3.963 6.643 6.791 3.643l.208-.249z" fill="#ed6c30"/><path d="M81.307 76.627l.072.047c3.441 1.904 7.553-1.705 5.572-5.33l-.168-.271c-1.326-2.018-3.758-2.828-6.084-2.707a38.016 38.016 0 0 0-3.574.369c-.572.08-1.189.137-1.752.287-.32.08-.82.457-.781.834.065.584.842 1.352 1.184 1.785 1.554 1.959 3.339 3.777 5.531 4.986z" fill="#ed6c30"/><path d="M74.953 58.379c.561.176 1.576-.219 2.111-.361 2.418-.625 4.801-1.529 6.797-3.043l.072-.047c3.133-2.377 1.488-7.596-2.621-7.252l-.32.049c-2.383.393-4.107 2.289-4.936 4.475a43.048 43.048 0 0 0-1.111 3.41c-.154.559-.354 1.145-.439 1.719-.055.327.086.935.447 1.05z" fill="#ed6c30"/><path d="M19.623 87.447l.309.096c2.51.672 5.453-.736 7.562-1.961 1.953-1.129 3.873-2.354 5.615-3.793.676-.568 1.404-1.098 1.961-1.793.504-.633.863-1.85-.176-2.193-1.457-.465-3.15-.217-4.647-.152-3.355.16-6.996.287-10.096 1.752-1.078.506-2.002 1.256-2.654 2.387-1.208 2.095-.188 4.841 2.126 5.657z" fill="#f79329"/><path d="M71.723 114.203l.182-.271c1.32-2.234.74-5.451.125-7.812-.578-2.178-1.24-4.361-2.17-6.42-.365-.799-.682-1.639-1.201-2.361-.48-.654-1.557-1.334-2.162-.42-.84 1.277-1.047 2.982-1.379 4.441-.744 3.279-1.584 6.816-1.01 10.193.211 1.172.686 2.266 1.602 3.193 1.694 1.723 4.614 1.473 6.013-.543z" fill="#f79329"/><path d="M108.568 86.504c2.27-.826 3.254-3.588 2-5.693l-.172-.279c-1.486-2.129-4.654-2.938-7.059-3.354-2.219-.385-4.482-.68-6.744-.688-.875 0-1.779-.064-2.649.111-.789.16-1.854.865-1.27 1.793.814 1.297 2.273 2.193 3.463 3.098 2.676 2.041 5.551 4.273 8.863 5.146 1.15.296 2.344.321 3.568-.134z" fill="#f79329"/><path d="M91.408 34.238c-1.277 1.857-2.492 3.793-3.445 5.834-.367.801-.805 1.594-1.008 2.457-.184.785.008 2.043 1.096 1.906 1.518-.199 2.941-1.152 4.262-1.85 2.975-1.584 6.203-3.258 8.385-5.898.748-.922 1.267-1.992 1.371-3.299.195-2.41-1.9-4.457-4.342-4.199l-.32.039c-2.557.465-4.612 3.001-5.999 5.01z" fill="#f79329"/><path d="M24.307 51.814c2.213.463 4.451.848 6.713.943.875.033 1.783.129 2.65-.014.801-.129 1.889-.795 1.34-1.746-.76-1.32-2.189-2.273-3.338-3.227-2.609-2.135-5.391-4.48-8.668-5.465-1.137-.346-2.324-.416-3.564-.016-2.303.744-3.391 3.465-2.221 5.617l.168.287c1.404 2.18 4.537 3.118 6.92 3.621z" fill="#f79329"/><path d="M40.896 20.977l-.068.32c-.428 2.561 1.262 5.354 2.682 7.34 1.32 1.822 2.725 3.617 4.326 5.219.623.615 1.229 1.287 1.973 1.775.672.441 1.93.68 2.16-.393.33-1.496-.086-3.154-.295-4.635-.488-3.33-.969-6.939-2.729-9.875-.605-1.025-1.438-1.873-2.625-2.41-2.197-1.006-4.841.282-5.424 2.659z" fill="#f79329"/><path d="M60.293 14.285l-.174.271c-1.467 2.449-.719 5.602-.234 8.221.809 4.393 1.85 8.707 3.326 12.918.229.648.494 1.824 1.254 2.057 1.156.354 1.352-1.32 1.562-2.018.975-3.232 1.17-6.738 1.65-10.076.416-2.881.709-5.81.221-8.707-.201-1.17-.678-2.266-1.59-3.193-1.689-1.731-4.609-1.483-6.015.527z" fill="#f79329"/><path d="M25.791 30.996c.654 2.785 3.385 4.516 5.562 6.066 3.633 2.586 7.383 4.955 11.383 6.949.613.303 1.623.967 2.326.6 1.076-.545.053-1.881-.283-2.537-1.553-2.994-3.854-5.643-5.826-8.373-1.713-2.361-3.541-4.666-5.908-6.402-.959-.705-2.066-1.16-3.369-1.191-2.414-.057-4.338 2.152-3.949 4.576l.064.312z" fill="#f79329"/><path d="M45.139 86.83c-.521-1.088-1.883-.088-2.541.24-3.025 1.488-5.727 3.738-8.488 5.658-2.393 1.658-4.738 3.441-6.522 5.77-.725.947-1.201 2.043-1.256 3.348-.109 2.408 2.061 4.379 4.488 4.041l.32-.057c2.793-.6 4.582-3.295 6.17-5.441 2.666-3.584 5.107-7.283 7.18-11.236.321-.61.996-1.61.649-2.323z" fill="#f79329"/><path d="M54.928 92.994c-2.17 2.576-3.746 5.723-5.508 8.586-1.527 2.482-2.961 5.053-3.66 7.9-.289 1.16-.289 2.354.188 3.57.859 2.258 3.643 3.184 5.73 1.904l.273-.176c2.312-1.672 2.871-4.857 3.473-7.469 1-4.346 1.76-8.713 2.078-13.166.047-.688.268-1.871-.338-2.385-.92-.781-1.762.676-2.236 1.236z" fill="#f79329"/><path d="M13.045 59.443c-1.861 1.527-1.873 4.455.004 6.033l.26.201c2.316 1.672 5.514 1.191 8.176.936 4.441-.416 8.822-1.088 13.15-2.193.668-.176 1.861-.336 2.156-1.072.457-1.121-1.197-1.457-1.877-1.729-3.133-1.248-6.615-1.754-9.893-2.512-2.834-.666-5.727-1.211-8.652-.979-1.183.097-2.32.474-3.324 1.315z" fill="#f79329"/><path d="M75.465 40.336c.781.137 1.541-.799 2.033-1.27 3.201-3.115 6.062-6.508 8.738-10.078 1.605-2.139 3.684-4.611 3.463-7.469l-.031-.318c-.363-2.426-2.869-3.947-5.15-3.154-1.232.426-2.15 1.191-2.852 2.152-1.727 2.377-2.771 5.123-3.684 7.893-1.061 3.193-2.445 6.418-3.021 9.748-.121.721-.691 2.305.504 2.496z" fill="#f79329"/><path d="M108.035 44.547c-2.885.529-5.541 1.809-8.111 3.185-2.965 1.586-6.191 2.969-8.904 4.979-.582.439-2.088 1.193-1.365 2.162.486.631 1.678.479 2.363.479 4.467-.049 8.875-.543 13.277-1.279 2.629-.449 5.842-.816 7.65-3.025l.197-.258c1.408-2.008.641-4.84-1.557-5.834-1.183-.546-2.38-.626-3.55-.409z" fill="#f79329"/><path d="M89.139 111.115c.32-1.267.18-2.459-.24-3.57-1.035-2.744-2.766-5.131-4.578-7.412-2.086-2.633-4.025-5.572-6.488-7.869-.543-.504-1.551-1.848-2.367-.959-.539.584-.183 1.729-.051 2.41.844 4.385 2.111 8.627 3.633 12.83.9 2.512 1.836 5.609 4.334 6.994l.287.145c2.229 1.023 4.878-.233 5.47-2.569z" fill="#f79329"/><path d="M102.842 97.908c-1.99-2.154-4.494-3.707-7.035-5.141-2.934-1.646-5.83-3.623-8.979-4.824-.689-.258-2.135-1.129-2.561.008-.273.744.49 1.664.869 2.24 2.438 3.748 5.219 7.195 8.205 10.518 1.787 1.984 3.826 4.49 6.658 4.834l.324.023c2.449.105 4.426-2.057 4.09-4.449-.173-1.289-.755-2.338-1.571-3.209z" fill="#f79329"/><path d="M111.781 63.172c-2.881-.545-5.818-.305-8.701.057-3.344.416-6.852.551-10.102 1.457-.709.199-2.387.367-2.051 1.527.217.762 1.385 1.049 2.033 1.289 4.182 1.561 8.473 2.68 12.846 3.57 2.613.535 5.748 1.344 8.229-.072l.271-.168c2.037-1.371 2.34-4.289.648-6.012-.909-.929-2.005-1.424-3.173-1.648z" fill="#f79329"/><path d="M68.463 60.57a2.643 2.643 0 0 0-2.643 2.641 2.639 2.639 0 0 0 2.643 2.643 2.64 2.64 0 1 0 0-5.284z" fill="#ed6c30"/><path d="M62.658 70.848a2.64 2.64 0 1 0-5.283-.001 2.64 2.64 0 0 0 5.283.001z" fill="#ed6c30"/><path d="M90.881 117.428a4.555 4.555 0 0 0-4.555 4.555 4.55 4.55 0 0 0 4.555 4.555 4.551 4.551 0 0 0 4.557-4.555 4.557 4.557 0 0 0-4.557-4.555z" fill="#fcc21b"/><path d="M111.117 104.936a4.55 4.55 0 0 0-4.553 4.553 4.555 4.555 0 1 0 4.553-4.553z" fill="#fcc21b"/><path d="M120.609 82.301a4.548 4.548 0 0 0-4.557 4.555 4.552 4.552 0 0 0 4.557 4.553 4.552 4.552 0 0 0 4.551-4.553 4.547 4.547 0 0 0-4.551-4.555z" fill="#fcc21b"/><path d="M122.139 49.014a4.555 4.555 0 1 0 0-9.108 4.548 4.548 0 0 0-4.555 4.553 4.555 4.555 0 0 0 4.555 4.555z" fill="#fcc21b"/><path d="M93.094 13.9a4.55 4.55 0 0 0 4.555-4.555 4.555 4.555 0 0 0-9.11 0 4.548 4.548 0 0 0 4.555 4.555z" fill="#fcc21b"/><path d="M38.721 13.924a4.554 4.554 0 0 0 4.553-4.553 4.549 4.549 0 0 0-4.553-4.555 4.554 4.554 0 0 0 0 9.108z" fill="#fcc21b"/><path d="M8.738 45.58a4.556 4.556 0 0 0 4.553-4.562 4.555 4.555 0 0 0-9.108 0 4.559 4.559 0 0 0 4.555 4.562z" fill="#fcc21b"/><path d="M8.879 85.197a4.555 4.555 0 0 0 0 9.11 4.554 4.554 0 0 0 4.553-4.553 4.55 4.55 0 0 0-4.553-4.557z" fill="#fcc21b"/><path d="M45.543 118.533a4.556 4.556 0 0 0-4.555 4.555 4.557 4.557 0 0 0 4.555 4.562 4.558 4.558 0 0 0 4.557-4.562 4.556 4.556 0 0 0-4.557-4.555z" fill="#fcc21b"/><path d="M123.572 64.42a3.935 3.935 0 0 0-3.94 3.93 3.942 3.942 0 0 0 3.94 3.945 3.941 3.941 0 0 0 3.934-3.945 3.934 3.934 0 0 0-3.934-3.93z" fill="#fcc21b"/><path d="M108.416 29.141a3.935 3.935 0 0 0 3.934-3.939 3.933 3.933 0 0 0-3.934-3.938 3.934 3.934 0 0 0-3.936 3.938 3.935 3.935 0 0 0 3.936 3.939z" fill="#fcc21b"/><path d="M62.939 8.227a3.934 3.934 0 0 0 3.934-3.937A3.94 3.94 0 0 0 62.939.35a3.938 3.938 0 1 0 0 7.877z" fill="#fcc21b"/><path d="M20.279 25.562a3.935 3.935 0 0 0 3.938-3.938 3.934 3.934 0 0 0-3.938-3.938 3.934 3.934 0 0 0-3.934 3.938 3.936 3.936 0 0 0 3.934 3.938z" fill="#fcc21b"/><path d="M8.367 62.852a3.935 3.935 0 0 0-3.936-3.938 3.935 3.935 0 0 0-3.938 3.938 3.935 3.935 0 0 0 3.938 3.938 3.936 3.936 0 0 0 3.936-3.938z" fill="#fcc21b"/><path d="M21.82 106.895a3.934 3.934 0 0 0-3.938 3.932 3.941 3.941 0 0 0 3.938 3.945 3.942 3.942 0 0 0 3.934-3.945 3.934 3.934 0 0 0-3.934-3.932z" fill="#fcc21b"/><path d="M69.154 119.74a3.94 3.94 0 0 0-3.938 3.94 3.934 3.934 0 0 0 3.938 3.938 3.934 3.934 0 0 0 3.934-3.938c0-2.17-1.762-3.94-3.934-3.94z" fill="#fcc21b"/></g></svg>