<svg id="レイヤー_1" xmlns="http://www.w3.org/2000/svg" xmlns:xlink="http://www.w3.org/1999/xlink" viewBox="0 0 128 128"><g><g><g><defs><path id="SVGID_1_" d="M63.133.869c.465-.963 1.232-.95 1.682.008l2.508 5.167c.455.986 1.707 1.908 2.789 2.044l5.852.805c1.062.141 1.295.884.473 1.609l-4.242 3.928c-.783.688-1.277 2.189-1.082 3.247l1.133 5.889c.215 1.065-.395 1.509-1.332.979l-5.197-2.933c-.92-.53-2.471-.539-3.389.008l-5.17 2.945c-.936.534-1.543.115-1.352-.959l1.104-5.908c.207-1.051-.285-2.53-1.082-3.227l-4.271-3.915c-.799-.731-.576-1.468.48-1.609l5.863-.835c1.072-.141 2.324-1.061 2.789-2.056L63.133.869z"/></defs><use xlink:href="#SVGID_1_" overflow="visible" fill="#fcc21b"/><clipPath id="SVGID_2_"><use xlink:href="#SVGID_1_" overflow="visible"/></clipPath></g><g><defs><path id="SVGID_3_" d="M114.307 104.152a20.97 20.97 0 0 1-4.955.572c-3.049-.024-6.09-.742-8.658-2.418-1.125-.733-2.605-1.662-3.303-2.848-.488-.846-.248-2.216.818-2.601 2.035-.734 4.117-1.249 5.924-2.488 1.582-1.082 2.852-2.534 4.065-4.002 1.418-1.712 3.201-5.623.713-7.249-1.559-1.016-3.818-.116-5.502.029-1.455.124-2.92.038-4.344-.278a14.226 14.226 0 0 1-5.484-2.514c-1.215-.92-3.482-2.645-3.152-4.403.049-.273.195-.635.402-.812.381-.332 1.051-.539 1.547-.689 1.631-.48 3.346-1.103 4.648-2.23 1.666-1.446 4.322-4.977 2.797-7.257-.707-1.053-2.354-.934-3.443-.934-1.617 0-3.326-.22-4.906-.576-5.125-1.169-11.83-4.802-11.1-11.015.164-1.409.82-.937 1.951-1.048 1.607-.163 3.568-.544 4.928-1.523 1.389-1.004 3.039-4.118 1.152-5.565-1.537-1.187-4.512-1.054-6.31-1.787-2.15-.876-4.17-2.16-5.992-3.658-3.66-2.994-6.205-6.888-9.107-10.852-.803-1.095-1.756-2.205-2.996-2.256-1.236.051-2.193 1.161-2.994 2.256-2.904 3.965-5.449 7.858-9.104 10.852-1.828 1.498-3.844 2.782-5.996 3.658-1.801.733-4.77.601-6.312 1.787-1.887 1.447-.23 4.562 1.158 5.565 1.359.979 3.318 1.359 4.928 1.523 1.125.111 1.781-.361 1.947 1.048.734 6.213-5.971 9.846-11.102 11.015-1.576.356-3.283.576-4.904.576-1.086 0-2.738-.119-3.439.934-1.525 2.28 1.129 5.811 2.797 7.257 1.301 1.128 3.014 1.75 4.646 2.23.498.15 1.166.357 1.545.689.205.178.352.539.406.812.33 1.759-1.939 3.483-3.154 4.403-1.613 1.221-3.512 2.074-5.481 2.514a14.432 14.432 0 0 1-4.348.278c-1.684-.146-3.947-1.045-5.502-.029-2.488 1.626-.703 5.537.709 7.249 1.215 1.468 2.484 2.92 4.068 4.002 1.809 1.239 3.887 1.754 5.922 2.488 1.064.385 1.311 1.755.816 2.601-.695 1.186-2.172 2.114-3.301 2.848-2.57 1.676-5.607 2.394-8.658 2.418a20.896 20.896 0 0 1-4.951-.572c-2.504-.589-5.25.979-4.914 3.725.447 3.646 4.811 6.801 7.875 8.29 8.744 4.242 18.242 5.656 27.863 4.176 3.305-.511 6.693-1.045 9.857-2.185.281.003.725-.221.941-.279 1.057-.298 2.156-.39 3.234-.696.883-.249 1.732-.548 2.611-.755 1.416-.348 2.406-.688 3.891-.315 1.219.304 2.381.871 3.531 1.202 1.727.507 3.541.324 5.219.913 3.111 1.095 6.434 1.613 9.672 2.115 9.621 1.48 19.117.066 27.863-4.176 3.066-1.489 7.432-4.645 7.875-8.29.339-2.746-2.402-4.314-4.907-3.725z"/></defs><use xlink:href="#SVGID_3_" overflow="visible" fill="#757f3f"/><clipPath id="SVGID_4_"><use xlink:href="#SVGID_3_" overflow="visible"/></clipPath></g><g><circle cx="56.879" cy="45.323" r="4.422" fill="#fff"/><path d="M76.473 52.581a4.423 4.423 0 1 1-8.847-.003 4.423 4.423 0 0 1 8.847.003z" fill="#fff"/><path d="M73.533 93.288a4.425 4.425 0 0 1-4.424 4.425 4.42 4.42 0 0 1-4.42-4.425 4.422 4.422 0 0 1 8.844 0z" fill="#fff"/><circle cx="39.009" cy="109.552" r="4.423" fill="#fff"/><path d="M96.689 113.085a4.421 4.421 0 1 1-8.844 0 4.423 4.423 0 0 1 8.844 0z" fill="#fff"/><path d="M58.783 74.639c-1.535-.522-4.006.22-5.117.892-1.285.779-.52 1.775-.561 2.949-.041 1.209.471 2.375.414 3.591-.092 2.111-2.854 3.52-3.859 5.104-1.492 2.355.957 4.512 3.305 4.545 1.666.025 3.086-.962 4.453-1.787 1.189-.709 2.439-1.431 3.168-2.649.773-1.311.668-2.982.572-4.446-.086-1.364-.344-2.711-.615-4.055-.291-1.416-.082-3.568-1.76-4.144z" fill="#ed6c30"/></g></g><g><defs><path id="SVGID_5_" d="M72.629 117.979c-.029.025-.74-.27-.854-.299-1.088-.273-2.129-.556-3.182-.949-1.475-.552-3.018-1.203-4.379-1.938-1.26-.68-2.566.333-3.668.863-1.336.639-2.631 1.41-4.062 1.824-.115.033-.213.092-.326.134-.076.032-.166.04-.236.082.041.066.16.1.229.142.105.065.211.141.314.207.207.142.402.299.48.548.146.439-.016 1.136-.016 1.592 0 1.568.02 3.135-.018 4.703-.045 1.892.287 2.763 2.338 2.828 2.406.075 4.824.132 7.229.132.76 0 1.529-.023 2.281-.008.826.014 1.426-.149 1.812-.543.338-.344.504-.867.504-1.621v-2.058c0-.771-.094-1.542-.121-2.314-.029-.841 0-1.546.459-2.28.137-.224.305-.406.498-.571.226-.192.495-.308.718-.474z"/></defs><use xlink:href="#SVGID_5_" overflow="visible" fill="#855c52"/><clipPath id="SVGID_6_"><use xlink:href="#SVGID_5_" overflow="visible"/></clipPath></g><path d="M49.824 57.84c.188.861 1.232 1.791 1.789 2.434 3.49 4.085 10.256 5.081 15.205 5.959 2.477.44 4.98.739 7.5.813 2.301.066 6.529 1.256 6.621-2.422.033-1.285-.824-2.472-2.123-2.621-8.264-.937-15.822-1.228-23.09-5.715-.615-.381-1.123-.912-1.734-1.302a2.681 2.681 0 0 0-3.334.323c-.605.589-1.008 1.643-.834 2.531z" fill="#fcc21b"/><path d="M89.637 102.162c-7.254-.266-14.518-.054-21.754-.746-3.494-.336-6.93-.967-10.389-1.543-3.576-.598-7.146-1.36-10.518-2.72a30.303 30.303 0 0 1-5.666-3.023c-.6-.41-1.082-.963-1.67-1.381a2.68 2.68 0 0 0-3.348.17c-.629.556-1.082 1.596-.949 2.483.146.871 1.148 1.85 1.672 2.518 3.301 4.242 10.008 5.553 14.916 6.664 4.881 1.103 9.924 1.846 14.883 2.488 4.338.563 8.701.589 13.066.63 2.619.025 5.264.25 7.877.083 1.67-.108 3.693-.53 4.178-2.426.46-1.825-.466-3.13-2.298-3.197z" fill="#fcc21b"/><path d="M68.176 79.191c-1.207-.276-1.846.229-2.008 1.364-.145.979-.221 2.078.295 2.97.594 1.021 1.949 1.563 3.039 1.805 1.729.385 3.436.783 5.201 1.064 1.928.308 3.873.515 5.822.59 2.301.092 6.523 1.322 6.648-2.355.045-1.285-.801-2.479-2.1-2.638-3.492-.439-7.004-.755-10.471-1.368a53.306 53.306 0 0 1-3.094-.651c-.926-.229-1.732-.543-2.691-.646-.176-.022-.401-.08-.641-.135z" fill="#fcc21b"/><path d="M43.016 70.317c-.373.262-.676.66-.871 1.19-.65 1.775.281 3.359 1.693 4.42 1.041.788 2.457 1.577 3.752 1.792 2.492.414 1.471-1.451 1.797-3.114.09-.469.322-.809.242-1.33-.156-1.029-1.953-1.714-2.734-2.137-1.196-.647-2.518-1.778-3.879-.821z" fill="#fcc21b"/></g></svg>