<svg xmlns="http://www.w3.org/2000/svg" xmlns:xlink="http://www.w3.org/1999/xlink" viewBox="0 0 128 128"><g id="图层_1"><g><path id="XMLID_252_" d="M69.406 94.83H57.581 45.756c-1.356 0-1.938.911-1.042 2.276 1.255 1.912 5.914 5.587 12.867 5.587s11.612-3.676 12.867-5.587c.895-1.364.313-2.276-1.042-2.276z" fill="#513f35"/><path d="M60.5 5.942s30.376-1.518 43.84 19.891c12.588 20.016 11.167 42.296 11.167 42.296h-8.344s-.361-9.309-3.927-19.796c-1.601-4.708-3.282-8.643-6.687-13.829C89.31 23.479 75.024 12.907 60.5 5.942z" fill="#be2006"/><circle cx="111.381" cy="76.741" r="10.793" fill="#cfd8dc"/><g id="XMLID_234_" fill="#e49500"><path id="XMLID_236_" d="M98.987 62.771s7.593 1.315 7.593 9.491c0 7.213-5.539 10.061-11.077 10.061V62.771h3.484z"/><path id="XMLID_235_" d="M16.173 62.771S8.58 64.086 8.58 72.262c0 7.213 5.539 10.061 11.077 10.061V62.771h-3.484z"/></g><path id="XMLID_233_" d="M57.58 9.221c-32.722 0-41.285 25.366-41.285 61 0 36.95 23.75 46.505 41.285 46.505 17.277 0 41.285-9.28 41.285-46.505 0-35.634-8.563-61-41.285-61z" fill="#fbc11b"/><path id="XMLID_231_" d="M63.293 84.778c-2.012.57-4.1.848-5.713.848s-3.7-.278-5.713-.848c-.861-.244-1.198.572-.89 1.114.638 1.123 3.209 3.389 6.603 3.389 3.394 0 5.964-2.266 6.603-3.389.308-.542-.03-1.358-.89-1.114z" fill="#e49500"/><path id="XMLID_230_" d="M44.125 72.551c0 3.642-2.437 6.594-5.456 6.594-3.016 0-5.468-2.952-5.468-6.594 0-3.651 2.453-6.603 5.468-6.603 3.019 0 5.456 2.952 5.456 6.603" fill="#444"/><path id="XMLID_220_" d="M71.029 72.551c0 3.642 2.441 6.594 5.468 6.594 3.012 0 5.464-2.952 5.464-6.594 0-3.651-2.452-6.603-5.464-6.603-3.028 0-5.468 2.952-5.468 6.603" fill="#444"/><path id="XMLID_219_" d="M16.296 72.546l-2.177-13.43S9.391 7.346 58.704 7.346s41.636 54.022 41.636 54.022l-1.508 11.178L86.021 50.85s-24.345 1.958-55.963-.417L16.296 72.546z" fill="#6d4c41"/><path d="M101.921 44.386C99.726 27.874 90.77 5.918 58.65 5.918c-33.187 0-42.923 22.461-45.654 38.422a210.11 210.11 0 0 1 88.925.046z" fill="#dd2c00"/><g fill="#e0e0e0"><path d="M57.58 123.504c-5.657-2.375-16.012-2.859-25.532-6.779-16.625-6.846-18.26-16.878-18.052-24.032.286-9.816 1.927-10.716 1.687-20.147-.165-6.467-2.687-13.669-2.687-13.669h10.428c-1.168 28.935 8.92 39.884 34.157 32.313l-.001 32.314z"/><path d="M57.58 123.504c5.657-2.375 16.012-2.859 25.532-6.779 16.625-6.846 18.26-16.878 18.052-24.032-.286-9.816-1.927-10.716-1.687-20.147.165-6.467 2.687-13.669 2.687-13.669H91.736c1.168 28.935-8.92 39.884-34.157 32.313l.001 32.314z"/></g><g fill="#e0e0e0"><path d="M26.448 95.093c5.42-1.338 12.822-9.792 31.489-3.957 0 0 .902 9.469-10.085 11.42-14.988 2.66-27.767-5.893-21.404-7.463z"/><path d="M88.705 95.093c-5.42-1.338-12.822-9.792-31.489-3.957 0 0-.902 9.469 10.085 11.42 14.988 2.66 27.767-5.893 21.404-7.463z"/></g><g><defs><path id="SVGID_1_" d="M106.334 61.345l-.107-13.165c-.05-1.603-1.344-3.177-2.927-3.529a210.163 210.163 0 0 0-91.681 0c-1.583.352-2.877 1.926-2.927 3.529l-.107 13.161-.004-.001s-.171 3.375 2.04 4.739c0 0 1.339-1.8 4.069-2.852 28.095-5.811 57.44-5.811 85.536 0 2.731 1.048 4.152 2.659 4.152 2.659 2.094-1.326 1.958-4.494 1.956-4.541z"/></defs><use xlink:href="#SVGID_1_" overflow="visible" fill="#f5f5f5"/><clipPath id="SVGID_2_"><use xlink:href="#SVGID_1_" overflow="visible"/></clipPath><path d="M95.111 42.913c1.188.25 3.978 1.757 4.055 4.369.101 3.397.259 4.641.051 6.094-.353 2.466-3.287 3.616-6.113 3.257-15.548-1.975-28.592-5.624-44.212-4.348-11.485.938-23.328 4.762-34.833 5.404-3.238.181-5.55-2.001-5.616-3.242-.023 3.322-.411 7.011-.433 10.333 6.109 10.97 49.135 3.425 73.839 3.818 7.837.125 15.782.511 23.415-1.272.528-.123 1.074-.267 1.489-.617.467-.394.701-.991.917-1.563l1.801-4.763c.846-2.236 1.7-4.512 1.868-6.897.201-2.855-.602-5.7-1.775-8.311-.239-.533-.517-1.086-1.008-1.403-.413-.267-.921-.33-1.409-.386l-8.6-.988" clip-path="url(#SVGID_2_)" fill="#cfd8dc"/></g><path id="XMLID_205_" d="M69.406 94.83H57.581 45.756c-1.356 0-1.938.911-1.042 2.276 1.255 1.912 5.914 5.587 12.867 5.587s11.612-3.676 12.867-5.587c.895-1.364.313-2.276-1.042-2.276z" fill="#4c3734"/></g></g></svg>