<svg id="レイヤー_1" xmlns="http://www.w3.org/2000/svg" xmlns:xlink="http://www.w3.org/1999/xlink" viewBox="0 0 128 128"><g><g><g><g><defs><path id="SVGID_1_" d="M109.44 34.584c-10.763-8.619-25.909-10.359-45.248-10.359-19.209 0-34.27 1.67-45.028 10.176C1.056 48.746-5.314 74.805 6.052 94.81c10.187 17.946 26.7 25.638 58.141 25.638 31.446 0 49.576-8.901 58.148-25.638 10.437-20.395 5.05-45.868-12.901-60.226zM57.279 77.717l5.093-6.335c.892-1.103 2.42-1.158 3.376-.117l6.077 6.565c.967 1.041.602 1.895-.825 1.895H58.245c-1.426 0-1.856-.911-.966-2.008zm-28.445-7.851l11.085-12.482c.638-.722 1.487-.596 1.895.271l6.716 14.359c.413.863-.038 1.492-.994 1.383l-18.129-2.04c-.948-.102-1.211-.777-.573-1.491zm67.387 15.907l-4.831 15.879c-.337 1.101-1.369 1.547-2.288 1.003l-5.008-2.973c-.914-.554-2.401-.507-3.293.094l-6.489 4.342c-.895.6-2.316.525-3.161-.155l-5.364-4.347c-.844-.685-2.204-.655-3.02.061l-5.29 4.619c-.825.714-2.241.845-3.151.281l-6.753-4.158c-.909-.562-2.43-.614-3.376-.132l-5.426 2.795c-.942.483-2.026-.005-2.401-1.084L30.7 85.736c-.374-1.084.095-1.566 1.042-1.084l8.047 4.15c.947.483 2.363.254 3.151-.507l3.26-3.146c.782-.764 2.17-.909 3.08-.342l6.312 3.986c.9.571 2.317.459 3.143-.254l4.03-3.479c.813-.708 2.206-.774 3.079-.131l5.12 3.742c.873.647 2.308.666 3.198.065l4.793-3.282c.891-.605 2.312-.559 3.16.107l3.911 3.058c.854.67 2.284.736 3.188.145l5.984-3.93c.901-.58 1.36-.167 1.023.939zm2.907-14.654L81.055 73.59c-.947.128-1.406-.486-1.021-1.359L86.4 57.717c.385-.877 1.229-1.027 1.885-.324L99.662 69.61c.648.698.408 1.373-.534 1.509z"/></defs><use xlink:href="#SVGID_1_" overflow="visible" fill="#ed6c30"/><clipPath id="SVGID_2_"><use xlink:href="#SVGID_1_" overflow="visible"/></clipPath><g clip-path="url(#SVGID_2_)"><path d="M98.33 38.11c-6.658-7.193-15.419-9.749-26.281-10.458a99.601 99.601 0 0 1 2.263-.693c2.194-.638 4.436-1.116 6.706-1.327.961-.09 1.933-.023 2.884-.09.455-.027.882-.187 1.346-.196.521-.01 1.031.052 1.547.065.432.015.775.197 1.177.249.399.047.812-.062 1.21-.015.639.08 1.638.437 1.816-.474.178-.877-.61-1.322-1.337-1.515-.905-.243-1.946-.3-2.879-.431-3.846-.526-8.258-.09-13.117 1.322a94.147 94.147 0 0 0-6.218 2.016c-.271.103-.562.235-.863.366-.252.113-.534.235-.797.333-.31.07-.624.144-.947.165-.234 0-.465-.006-.783-.006-.023 0-.052.006-.085.006h-.755c-.755-.048-1.485-.217-2.307-.433l-.562-.141c-.619-.154-1.154-.285-1.655-.572-1.133-.665-2.181-1.247-3.363-1.688-1.599-.585-3.357-1.049-5.215-1.388a33.87 33.87 0 0 0-6.424-.538c-1.013.013-2.008.172-3.02.211-.676.022-1.688.009-1.97.838-.132.371.159.605.366.84 1.115 1.276 3.311.629 4.773.61 1.96-.019 3.93.168 5.87.515 1.727.306 3.349.733 4.821 1.276a13.55 13.55 0 0 1 1.548.703c-10.72.713-19.386 3.227-25.965 10.261-14.054 15.043-18.317 41.473-9.9 61.487 7.823 18.612 20.522 26.224 43.927 26.261 22.86 0 37.232-8.605 43.943-26.309 7.902-20.841 3.8-46.599-9.754-61.25zM22.419 98.402c-8.046-19.128-3.996-44.376 9.416-58.725 5.692-6.087 13.225-8.53 22.527-9.369-2.025 1.631-3.873 4.136-5.401 8.014-5.877 14.889-7.653 41.037-4.146 60.811 2.166 12.226 5.279 19.738 10.017 23.518-16.423-1.895-26.129-9.295-32.413-24.249zm41.66 24.764c-.028 0-.047-.004-.075-.004-8.872-.033-13.759-7.129-16.835-24.483-3.433-19.367-1.706-44.906 4.005-59.405 2.936-7.414 6.827-9.183 12.09-9.332.103.005.188.027.291.027h.037c.37 0 .766-.009 1.167-.027.089 0 .184 0 .277.005v.022c.037 0 .074-.019.112-.019 5.145.216 8.967 2.087 11.859 9.501 5.51 14.12 7.171 39.039 3.934 59.251-2.625 16.445-8.149 24.445-16.862 24.464zm41.773-24.722c-5.486 14.48-16.056 22.293-32.881 24.225 5.027-3.92 8.44-11.704 10.344-23.559 3.293-20.614 1.576-46.102-4.079-60.602-1.557-3.991-3.442-6.556-5.515-8.211 9.453.834 17.106 3.31 22.884 9.557 12.933 13.97 16.816 38.613 9.247 58.59z" fill="#f79329"/></g></g><g><defs><path id="SVGID_3_" d="M58.606 26.894c-.062-1.046.061-2.152.061-3.002 0-2.691-1.411-4.924-3.266-6.752-1.564-1.539-4.219-2.48-5.578-4.062-.395-.459-.835-1.89-.75-2.452.343-2.401 2.391-5.031 4.867-5.445 1.309-.215 2.439.226 3.452.989 5.664 4.274 10.349 7.837 11.282 15.308.185 1.473.544 2.995.534 4.52-.009 2.429-.741 3.293-3.155 3.921-1.628.432-4.694.628-6.195-.296-.891-.55-1.181-1.595-1.252-2.729z"/></defs><use xlink:href="#SVGID_3_" overflow="visible" fill="#757f3f"/><clipPath id="SVGID_4_"><use xlink:href="#SVGID_3_" overflow="visible"/></clipPath></g></g></g></g></svg>