<svg id="レイヤー_1" xmlns="http://www.w3.org/2000/svg" viewBox="0 0 128 128"><g><g fill="#757f3f"><path d="M82.319 42.12s.052-.005.067-.009c2.308-.564 4.444-2.259 5.947-4.073a88.328 88.328 0 0 0-10.036-8.609c-.685 1.934-1.644 3.907-2.87 5.912a85.077 85.077 0 0 1 6.892 6.779z"/><path d="M118.453 104.094c-1.113-7.934-2.696-15.174-4.666-21.785-2.224 1.798-6.605 2.609-9.702 1.567 1.664 6.39 2.92 13.375 3.694 21.014 3.62.787 7.525 1.837 10.674-.796z"/><path d="M38.367 16.523c2.812.525 11.239 2.459 21.312 7.877a16.208 16.208 0 0 1 1.388-4.877c-10.475-4.557-18.967-5.872-21.821-6.211-.668-.075-2.482-.004-2.665 1.262-.085 1.328 1.138 1.825 1.786 1.949z"/><path d="M108.197 109.456c.367 4.997.536 10.241.455 15.787 0 0 2.378 1.693 5.946 1.693 3.562 0 5.598-1.693 5.598-1.693a197.614 197.614 0 0 0-1.169-16.718c-2.131 2.18-7.685 2.459-10.83.931z"/><path d="M6.181 32.875c5.654-.192 10.549-1.187 14.59-2.969-1.905 5.14-1.551 11.481 1.051 18.873l.303.302.167.032.262-.071c.12-.079 11.474-7.16 11.403-18.069 3.475 4.177 8.711 7.67 15.605 10.406l.426-.026.251-.352c.028-.138 2.391-14.222-7.292-20.372-2.646-1.679-5.156-2.53-7.463-2.53-2.702 0-4.457 1.161-5.276 1.878-.723-1.289-2.808-3.923-7.757-3.923-1.171 0-2.443.151-3.779.454C8.09 18.879 5.693 32.149 5.674 32.285l.114.414.393.176z"/><path d="M68.064 41.459l.382-.174c2.213-2.5 4.003-4.933 5.42-7.305 1.178-1.981 2.076-3.916 2.697-5.793.317-.954.58-1.897.748-2.824 4.534 4.814 11.854 5.562 15.952 5.562 2.222 0 3.698-.207 3.759-.214l.347-.22.071-.401c-1.821-7.694-4.885-13.034-9.134-15.905 4.105-1.416 8.354-3.883 12.65-7.36l.191-.39-.191-.398C100.697 5.823 94.384.706 86.9.706c-2.501 0-4.856.581-7.001 1.735-7.102 3.811-7.102 8.597-6.751 10.533a8.46 8.46 0 0 0-.979-.062c-2.248 0-6.229.991-9.241 7.423 0 .009-.004.016-.004.016-.803 1.72-1.185 3.438-1.305 5.117-.59 8.41 5.982 15.738 6.066 15.825l.379.166z"/><path d="M77.708 60.118a7.384 7.384 0 0 0-2.682.501c-.126-1.926-1.28-6.438-8.824-8.355a13.824 13.824 0 0 0-3.468-.438c-8.928 0-15.27 8.39-15.535 8.747l-.083.418.27.326c4.853 2.269 9.44 3.604 13.645 3.979-3.333 3.695-4.98 9.453-4.901 17.123l.159.366.384.119c.54-.056 12.714-1.385 17.332-9.64 1.994 4.444 6.052 8.788 12.078 12.934l.275.088.119-.016.318-.247c.063-.119 6.557-12.262-.414-20.862-3.377-4.169-6.572-5.043-8.673-5.043z"/></g><g><path d="M44.847 49.9l-9.675-5.091a3.055 3.055 0 0 0-4.09 1.209C21.333 63.34 6.768 67.994 6.618 68.034a3.042 3.042 0 0 0-2.07 2.22c-.255 1.05.08 2.16.858 2.912L16.1 83.398a3.048 3.048 0 0 0 3.128.676c18.068-6.345 26.701-29.439 27.063-30.417a3.065 3.065 0 0 0-1.444-3.757z" fill="#fcc21b"/><path d="M123.475 66.634a3.062 3.062 0 0 0-2.062-2.314c-12.141-3.856-21.819-25.061-21.908-25.274a3.09 3.09 0 0 0-2.796-1.802c-.62 0-1.238.191-1.759.561l-10.376 7.321a3.032 3.032 0 0 0-1.2 3.25c6.316 24.832 23.026 31.747 23.733 32.029a3.049 3.049 0 0 0 3.104-.506l12.237-10.328a3.043 3.043 0 0 0 1.027-2.937z" fill="#f79329"/><path d="M80.648 89.406l-12.64-5.824a3.016 3.016 0 0 0-2.57.008 3.046 3.046 0 0 0-1.654 1.966c-5.021 18.594-18.054 25.909-18.181 25.982a3.066 3.066 0 0 0-1.592 2.514 3.068 3.068 0 0 0 1.289 2.669l14.275 10.018a3.03 3.03 0 0 0 1.758.557 3.04 3.04 0 0 0 1.71-.525c14.549-9.842 19.136-33.027 19.327-34.014a3.059 3.059 0 0 0-1.722-3.351z" fill="#40c0e7"/></g></g></svg>