<svg xmlns="http://www.w3.org/2000/svg" viewBox="0 0 128 128"><g id="图层_1"><g><g><path d="M69.722 68.649h.098c1.366 0 3.515.068 5.822.385 2.307.312 4.788.881 6.786 1.807 2.757 1.274 4.232 2.805 5.842 4.8 1.604 1.976 3.25 4.451 6.034 6.892 2.899 2.504 6.714 3.582 10 4.187 3.285.589 6.083.629 6.891.629h.232a2.26 2.26 0 0 0 2.032-1.378l14.331-34.036a2.243 2.243 0 0 0-.217-2.139 2.24 2.24 0 0 0-1.91-.982h-.132c-.525.005-2.549-.04-4.92-.532-2.377-.489-5.065-1.446-6.988-3.069-2.444-2.043-4.022-3.894-5.89-5.797-1.859-1.896-4.023-3.79-7.323-5.505-3.321-1.722-7.108-2.52-10.185-2.945a48.5 48.5 0 0 0-2.49-.272" fill="#e0e0e0"/><path fill="#fff" d="M72.725 62.106l-.106.439 10.645-22.431-10.531 21.961z"/><path d="M91.884 50.1c2.792-2.457 7.532-2.288 10.569-.309 3.225 2.099 5.496 6.482 5.192 10.569-.113 1.599-.769 3.438-1.803 4.627-4.304 4.972-12.013 2.537-14.996-2.436-2.376-3.954-2.623-9.231 1.038-12.451z" fill="#fff"/><path d="M105.843 64.987c1.034-1.19 1.69-3.029 1.803-4.627.304-4.087-1.968-8.47-5.192-10.569-3.037-1.979-7.777-2.148-10.569.309-3.661 3.221-3.414 8.497-1.037 12.452 2.982 4.972 10.691 7.407 14.995 2.435z" fill="#ec2214"/><path d="M88.515 29.077c.495-1.274-.31-2.452-1.341-2.671-1.596-.338-2.706.779-3.074 1.548l-40.836 80.764a3.392 3.392 0 0 0 3.03 4.9c1.242 0 2.44-.685 3.033-1.875l39.188-82.666z" fill="#2f2f2f"/></g><g><path d="M58.278 68.649h-.098c-1.366 0-3.515.068-5.822.385-2.307.312-4.788.881-6.786 1.807-2.757 1.274-4.232 2.805-5.842 4.8-1.604 1.976-3.25 4.451-6.034 6.892-2.899 2.504-6.714 3.582-10 4.187a40.946 40.946 0 0 1-6.891.629h-.232a2.26 2.26 0 0 1-2.032-1.378L.21 51.934a2.243 2.243 0 0 1 .217-2.139 2.24 2.24 0 0 1 1.91-.982h.132c.525.005 2.549-.04 4.92-.532 2.377-.489 5.065-1.446 6.988-3.069 2.444-2.043 4.022-3.894 5.89-5.797 1.859-1.896 4.023-3.79 7.323-5.505 3.321-1.722 7.108-2.52 10.185-2.945a48.5 48.5 0 0 1 2.49-.272" fill="#e0e0e0"/><path fill="#fff" d="M55.275 62.106l.106.439-10.645-22.431 10.531 21.961z"/><path d="M37.153 62.551c-2.983 4.973-10.692 7.408-14.996 2.436-1.034-1.19-1.69-3.029-1.803-4.627-.304-4.087 1.968-8.47 5.192-10.569 3.037-1.979 7.777-2.148 10.569.309 3.662 3.22 3.415 8.497 1.038 12.451z" fill="#fff"/><path d="M22.157 64.987c-1.034-1.19-1.69-3.029-1.803-4.627-.304-4.087 1.968-8.47 5.192-10.569 3.037-1.979 7.777-2.148 10.569.309 3.661 3.221 3.414 8.497 1.037 12.452-2.982 4.972-10.691 7.407-14.995 2.435z" fill="#ec2214"/><path d="M39.485 29.077c-.495-1.274.31-2.452 1.341-2.671 1.596-.338 2.706.779 3.074 1.548l40.836 80.764a3.392 3.392 0 0 1-3.03 4.9 3.385 3.385 0 0 1-3.033-1.875L39.485 29.077z" fill="#2f2f2f"/></g></g></g></svg>