<svg id="レイヤー_1" xmlns="http://www.w3.org/2000/svg" xmlns:xlink="http://www.w3.org/1999/xlink" viewBox="0 0 128 128"><g><g><g><g><defs><path id="SVGID_1_" d="M15.414 53.965c-.229.371-4.892 4.258-3.25 10.938 1.634 6.667 8.753 37.851 8.753 37.851s.763 3.452 5.943 5.849c4.275 1.978 34.426 13.524 44.798 17.479 2.19.837 8.322 3.724 13.273-1.654 6.939-7.542 25.492-29.822 25.492-29.822s1.965-1.629 2.724-7.008c.568-4.008 5.37-33.374 6.167-41.338.275-2.75 2.095-10.343-3.263-13.062-5.357-2.719-52.676-17.803-52.676-17.803s-5.899-3.112-10.309 1.051C37.807 30.857 15.414 53.965 15.414 53.965z"/></defs><use xlink:href="#SVGID_1_" overflow="visible" fill="#fcc21b"/><clipPath id="SVGID_2_"><use xlink:href="#SVGID_1_" overflow="visible"/></clipPath><path d="M81.894 81.806a14.391 14.391 0 0 1 2.711-4.431c7.637-8.541 15.277-17.079 22.919-25.616l15.291-17.101-8.671 57.93-30.645 36.447-5.324 3.46c.5-.327.259-4.762.289-5.339l.698-12.719 1.062-19.419c.248-4.541.08-9.127 1.67-13.212z" clip-path="url(#SVGID_2_)" fill="#f79329"/><path d="M39.635 115.206c5.701 3.31 18.94 7.537 18.94 7.537-2.944-3.31-2.614-14.36-2.862-20.604-.634-16.17.164-21.764 1.758-25.919 3.188-8.3 21.109-26.659 21.148-27.03-2.111-.422-8.239.75-10.286.009-2.5-.905-4.853-1.667-7.521-1.991-1.164-.138-2.427-.34-3.427-.978-.547-.35-1.085-1.013-1.802-.78-.474.155-.827.724-1.167 1.051-.453.44-.953.832-1.457 1.211-1.007.763-2.068 1.461-2.979 2.345-1.021.996-1.882 2.142-2.984 3.047-.919.75-1.953 1.465-2.773 2.318-1.203 1.25-5.594 6.421-6.701 7.68-2.026 2.301-3.207 5.184-3.768 8.171-.629 3.327.285 11.748 1.1 18.738 1.565 13.459 1.157 23.087 4.781 25.195z" clip-path="url(#SVGID_2_)" fill="#d7598b"/><g clip-path="url(#SVGID_2_)"><path d="M94.143 63.119c.378 2.068-.889 14.101-1.367 25.607-.637 15.291-1.051 31.21-2.941 33.098-3.238 3.237 13.177-15.092 13.116-14.722-.06.379 1.38-5.111 1.595-6.792.604-4.775 4.034-46.596 4.754-56.202L94.143 63.119z" fill="#d7598b"/></g><path d="M50.81 40.485s21.025-21.449 26.172-22.186c4.021-.577 22.052 5.464 22.052 5.464L70.236 48.108 50.81 40.485z" clip-path="url(#SVGID_2_)" fill="#d7598b"/><path clip-path="url(#SVGID_2_)" fill="#d7598b" d="M18.487 40.485l74.999 31.606 14.964-17.117-75.488-29.909z"/></g></g><g><g><g><g><path d="M125.162 39.977c.846-21.134-31.274-17.821-45.542-11.856-3.026-3.547-10.228-6.15-14.654-6.96-2.607-8.016-9.541-15.037-16.833-18.85-7.994-4.181-16.852-.953-23.462 4.18-6.839 5.309-8.288 16.032-6.313 23.781.443 1.724 1.202 3.366 2.311 4.766 1.373 1.732 2.684 3.073-.204 3.732-3.034.69-5.994 1.965-8.335 4.051-5.154 4.59 8.805 10.377 10.825 11.205 4.405 1.78 1.346 9.813 2.962 13.972.792 2.034 3.486 3.801 5.731 2.866 9.232-3.857 15.104-13.359 23.418-18.574 1.268 4.538 3.275 9.024 4.822 13.407 2.068 5.844 3.707 12.093 7.104 17.337 1.179 1.823 3.11 3.383 5.352 2.211 1.357-.703 2.181-1.405 3.099-2.646 3.805-5.12 6.838-7.348 13.29-7.18 6.538.168 15.898.461 10.55-8.671-.474-.806-2.223-2.594-1.861-3.542.396-1.035 2.357-.836 3.176-.867a30.933 30.933 0 0 0 4.801-.539c10.925-2.103 19.307-10.442 19.763-21.823z" fill="#fcc21b"/></g></g></g></g></g><path d="M23.503 28.444c-2.452-6.098.527-13.649 4.724-18.29 6.171-6.809 15.35-5.111 21.979.039a29.177 29.177 0 0 1 5.669 5.849c.766 1.051 1.503 2.163 2.076 3.335 1.508 3.077-2.392 3.883-4.316 5.137-1.695 1.103-2.946 2.586-4.501 3.823-1.759 1.392-4.056-1.336-5.405-2.349-2.028-1.53-4.153-2.961-6.473-4.029-3.034-1.396-7.468-.802-7.344 3.279.121 3.917 3.81 5.758 7.145 6.331 1.784.306 3.646.229 5.365.793.897.293 1.88.595 2.88.858.219.06.512.4.681.547-.235.745.099 2.116-.298 2.732-.427.668-2.021.573-2.724.586-1.039.021-2.009-.117-3.029-.19-2.482-.168-5-.689-7.404-1.422-3.794-1.16-7.478-3.172-9.025-7.029z" fill="#d7598b"/><path d="M37.036 60.042c-1.781 1.392-6.926 6.896-6.737 1.836.1-2.676.414-5.827-.306-8.438-.909-3.297-4.896-4.788-7.753-5.878-.866-.328-4.787-1.271-3.892-2.685 1.177-1.857 6.856-1.564 8.719-1.668 3.973-.224 7.955-.263 11.933-.28 1.568-.004 3.139.125 4.707.056 1.308-.052 2.422-.371 3.677.301 1.279.681 3.426 2.512 3.92 3.922.203.582.182.496-.327.939-.431.371-.896.707-1.336 1.069-.877.724-1.749 1.461-2.611 2.21-3.323 2.885-6.53 5.901-9.994 8.616z" fill="#d7598b"/><path d="M51.309 35.434c.423-2.732 2.875-5.125 4.956-6.732 1.134-.879 2.482-1.892 3.853-2.332 1.846-.59 3.758-.331 5.561.289 1.589.543 3.205.931 4.684 1.775.802.466 1.573 1.026 2.345 1.53 2.777 1.805.203 5.086-.823 7.197-1.355 2.792-3.103 6.098-6.508 6.577a7.125 7.125 0 0 1-1.935-.013c-4.895-.672-13.094-2.072-12.133-8.291z" fill="#d7598b"/><path d="M91.327 69.342c-1.594.53-3.791.064-5.348.03-2.064-.052-4.137.017-6.171.396-1.909.357-3.259 1.978-4.454 3.375-.886 1.034-2.333 3.361-3.757 3.637-1.027.199-1.835-1.129-2.181-1.896-2.188-4.861-4.292-9.761-6.227-14.73-.975-2.5-1.9-5.017-2.768-7.551-.288-.844-.947-1.914-.306-2.762.757-1.004 2.017-.233 2.979-.043 1.048.211 2.163.297 3.232.314.965.017 1.938-.056 2.878-.297.582-.146 1.02-.513 1.608-.586 2.083-.254 3.201.935 4.779 2.047a73.192 73.192 0 0 1 5.653 4.43 79.9 79.9 0 0 1 9.852 10.136c.66.814 2.187 2.513.742 3.284a3.305 3.305 0 0 1-.511.216z" fill="#d7598b"/><path d="M86.812 52.405c-.401-.34-2.53-1.474-1.456-1.939.299-.133.603.1.874.185.862.263 1.752.341 2.629.548 2.129.5 4.271.952 6.438 1.267 2.904.422 6.481-1.845 5.573-5.159-.854-3.094-5.31-3.659-7.874-4.094-4.616-.78-9.185-.392-13.778-.047-.784.056-1.857.56-2.447-.207-.354-.465-.251-1.164-.177-1.698.171-1.276.602-2.629 1.159-3.792 3.176-6.589 10.954-7.115 17.126-8.197 6.258-1.095 12.688-1.414 18.656 1.224 2.681 1.185 4.986 3.43 6.117 6.176 3.162 7.702-4.746 14.127-10.111 17.89-6.681 4.678-15.994 1.533-22.729-2.157z" fill="#d7598b"/></g></svg>