<svg id="レイヤー_1" xmlns="http://www.w3.org/2000/svg" xmlns:xlink="http://www.w3.org/1999/xlink" viewBox="0 0 128 128"><g><g><g fill="#ed6c30"><path d="M60.126 71.168c-.418.478-.708 1.166-.962 1.711-.201.431-.376.849-.654 1.215.708-.936 4.812-.892 5.864-.84 2.587.123 5.194.863 7.416 2.214 1.799 1.09 3.312 2.61 4.3 4.482 4.877 9.231 5.431 19.343 8.591 29.111.318.983.975 2.428 1.823 3.165 2.456 2.142 5.506-.829 7.113-2.437 2.675-2.675 6.509-12.143 10.692-12.09 1.37.02 2.854.736 4.073 1.286 2.782 1.257 5.342 3.045 8.199 4.132 1.764.678 3.611-1.031 3.614-2.755.017-10.936-6.285-21.465-15.07-28.252 3.965.259 8.058.247 11.564-1.114 5.183-2.011 9.347-5.514 10.179-10.374 3.296-12.281-2.856-31.677-14.688-37.006a29.646 29.646 0 0 0-9.495-2.469c-5.908-.529-11.97.646-17.226 3.396a28.544 28.544 0 0 0-7.125 5.264c-1.043 1.062-1.8 2.141-2.496 3.436-1.99 3.722-3.659 3.132-.875 7.064 1.862 2.637 3.034 6.067 3.519 9.244.99 6.52-.383 14.176-6.855 17.373a41.536 41.536 0 0 1-9.304 3.272c-.68.15-1.433.282-1.978.752-.079.064-.151.14-.219.22z"/><path d="M79.999 43.095c-2.484-5.748-5.74-9.809-12.508-9.816-4.101-.009-9.885-.514-14.053 1.365-7.632-12.521-24.506-16.939-37.617-11.026C3.988 28.946-2.166 48.342 1.133 60.623c.83 4.86 4.993 8.363 10.177 10.374 3.507 1.361 7.6 1.373 11.563 1.114-8.785 6.787-15.087 17.316-15.071 28.252.005 1.724 1.852 3.433 3.615 2.755 2.857-1.087 5.418-2.875 8.2-4.132 1.221-.55 2.703-1.267 4.073-1.286 4.183-.053 8.016 9.415 10.692 12.09 1.608 1.607 4.657 4.578 7.113 2.437.849-.737 1.505-2.182 1.823-3.165 3.16-9.769 3.715-19.88 8.591-29.111 3.402-6.446 10.273-6.43 16.096-8.189 1.619-.271 3.131-.704 4.501-1.389 9.117-4.189 11.215-18.651 7.493-27.278z"/></g><g><defs><path id="SVGID_1_" d="M7.144 55.523c.534 3.049 3.134 6.544 4.985 7.755 3.392 2.229 7.492 2.065 11.378 1.998 4.107-.072 8.239.079 12.315-.542 2.923-.445 5.763-1.099 8.668-1.524 2.241-.33 2.77-.075 1.899-2.436-.538-1.449-.79-3.189-1.378-4.698-1.136-2.909-5.686-5.546-8.165-7.149-.848-.546-1.779-1.062-2.556-1.704-.598-.497-.96-.884-1.711-1.182-2.024-.805-4.1-1.528-6.21-2.07-1.736-.446-3.194-.43-4.961-.435-1.127 0-2.149-.425-3.292-.282-2.905.358-12.253 4.94-10.972 12.269z"/></defs><use xlink:href="#SVGID_1_" overflow="visible" fill="#ed6c30"/><clipPath id="SVGID_2_"><use xlink:href="#SVGID_1_" overflow="visible"/></clipPath></g><g><defs><path id="SVGID_3_" d="M121.101 55.523c-.533 3.049-3.133 6.544-4.98 7.755-3.396 2.229-7.495 2.065-11.381 1.998-4.108-.072-8.24.079-12.316-.542-2.922-.445-5.76-1.099-8.666-1.524-2.241-.33-2.767-.075-1.898-2.436.536-1.449.788-3.189 1.377-4.698 1.134-2.909 5.685-5.546 8.164-7.149.849-.546 1.78-1.062 2.559-1.704.597-.497.958-.884 1.709-1.182 2.022-.805 4.101-1.528 6.212-2.07 1.738-.446 3.19-.43 4.959-.435 1.13 0 2.149-.425 3.291-.282 2.905.358 12.252 4.94 10.97 12.269z"/></defs><use xlink:href="#SVGID_3_" overflow="visible" fill="#ed6c30"/><clipPath id="SVGID_4_"><use xlink:href="#SVGID_3_" overflow="visible"/></clipPath></g></g><g><defs><path id="SVGID_5_" d="M16.055 30.121c8.793-6.214 20.497-3.785 28.499 2.481 1.103.863 2.195 1.831 2.891 3.065 1.305 2.324.787 3.104-.028 5.398-.251.7-.243 2.34-.999 2.587-1.235.402-2.946-.979-4.062-1.354-1.886-.629-3.825-1.091-5.767-1.517-1.805-.395-2.418 2.066-.749 2.719 2.28.892 4.426 2.105 6.396 3.555.936.688 1.771 1.509 2.711 2.189.82.593 1.199 1.378.982 2.368-.214.992-.254 1.972-.19 2.966.072 1.048.43 5.156.43 5.156s-8.427-4.212-15.389-6.593c-5.644-1.935-13.008-2.866-17.038-2.563-6.223.466-6.598 4.944-6.598 4.944s-1.646-4.212.737-13.192c1.191-4.49 4.437-9.561 8.174-12.209z"/></defs><use xlink:href="#SVGID_5_" overflow="visible" fill="#fcc21b"/><clipPath id="SVGID_6_"><use xlink:href="#SVGID_5_" overflow="visible"/></clipPath></g><g><defs><path id="SVGID_7_" d="M120.759 45.766c.317 1.708 1.417 5.697.342 7.257-1.069 1.554-2.133-.437-3.085-.943-1.775-.946-3.771-1.341-5.769-1.421-4.035-.159-8.101.832-11.927 2.019-1.91.594-3.838 1.143-5.707 1.843a933.426 933.426 0 0 0-5.741 2.193c-1.294.498-2.544 1.039-3.833 1.528-.885.335-2.043 1.223-2.927 1.267-.274-.553-.184-1.198-.031-1.779.266-1.035.107-2.102.178-3.149.064-.994.024-1.974-.189-2.966-.216-.99.162-1.775.983-2.368.939-.681 1.775-1.501 2.71-2.189 1.971-1.449 4.116-2.663 6.396-3.555 1.669-.652 1.057-3.113-.748-2.719-1.941.426-3.881.888-5.769 1.517-1.113.374-2.825 1.756-4.06 1.354-.757-.247-.748-1.887-.997-2.587-.818-2.294-1.336-3.074-.03-5.398.697-1.234 1.788-2.202 2.891-3.065 8.001-6.266 19.706-8.694 28.499-2.481 4.972 3.513 7.735 9.822 8.814 15.642z"/></defs><use xlink:href="#SVGID_7_" overflow="visible" fill="#fcc21b"/><clipPath id="SVGID_8_"><use xlink:href="#SVGID_7_" overflow="visible"/></clipPath></g><g><defs><path id="SVGID_9_" d="M73.147 62.131c-4.105 4.002-14.251 6.33-18.973 2.277-3.565-3.065-4.082-9.956-3.196-14.235.805-3.894.797-8.046 4.216-10.823 2.39-.753 5.426-.506 7.631-.514 5.697-.024 9.021.083 11.648 5.473 2.572 5.275 2.246 12.99-1.326 17.822z"/></defs><use xlink:href="#SVGID_9_" overflow="visible" fill="#fcc21b"/><clipPath id="SVGID_10_"><use xlink:href="#SVGID_9_" overflow="visible"/></clipPath></g><path d="M79.438 75.591a38.814 38.814 0 0 0-1.255-1.557c-2.468-2.906 6.37-2.771 7.544-2.91 4.639-.545 10.555.434 14.427 3.205a33.11 33.11 0 0 1 5.033 4.466c2.944 3.186 5.366 6.896 7.045 10.892.421.999 1.313 2.636.943 3.766-.688 2.11-3.925-.263-5.016-.725-2.305-.972-5.14-1.974-7.627-1.095-4.463 1.581-4.816 10.693-9.909 10.769-2.093.028-2.977-9.005-3.479-10.673a72.567 72.567 0 0 0-3.376-8.977c-1.145-2.531-2.612-4.925-4.33-7.161z" fill="#fcc21b"/><path d="M47.368 77.207a34.29 34.29 0 0 0-3.137 5.545 72.348 72.348 0 0 0-3.376 8.977c-.502 1.668-1.386 10.701-3.479 10.673-5.092-.075-5.445-9.188-9.908-10.769-2.488-.879-5.322.123-7.627 1.095-1.091.462-4.328 2.835-5.015.725-.372-1.13.52-2.767.942-3.766 1.679-3.996 4.101-7.706 7.045-10.892 1.527-1.647 3.205-3.161 5.032-4.466 3.873-2.771 9.789-3.75 14.427-3.205 1.175.14 10.012.004 7.544 2.91a40.873 40.873 0 0 0-2.448 3.173z" fill="#fcc21b"/></g></svg>