<svg id="レイヤー_1" xmlns="http://www.w3.org/2000/svg" xmlns:xlink="http://www.w3.org/1999/xlink" viewBox="0 0 128 128"><g><path d="M122.027 87.076c-1.815-1.983-4.389-3.878-5.843-6.132-2.068-3.203-2.505-7.145-4.697-10.289-1.014-1.459-2.363-2.582-3.879-3.403-.225-.46-.471-.971-.706-1.478-.108-.233-.258-.39-.401-.554-2.709 2.094-6.25 3.376-10.288 3.376-4.003 0-7.516-1.261-10.219-3.32-.128.153-.264.288-.361.498-.202.435-.411.87-.61 1.281-1.654.829-3.107 2.035-4.193 3.6-2.19 3.144-2.635 7.086-4.704 10.289-1.46 2.254-4.024 4.148-5.838 6.132-3.207 3.499-6.172 8.01-4.204 12.889 1.393 3.456 4.818 4.938 8.306 4.769a11.216 11.216 0 0 0 3.131-.591c2.06-.709 3.986-1.781 5.712-3.085.863-.65 1.749-1.363 2.458-2.174 1.064-1.207 1.758-2.802 2.739-4.102.376-.493 1.125-1.342 1.861-1.148.646.165.755 1.194.937 1.701.422 1.139 1.694 1.903 2.828 2.072.741.114 1.424.182 2.102.203a17.358 17.358 0 0 0 2.102-.203c1.131-.169 2.397-.933 2.819-2.072.183-.507.295-1.536.937-1.701.751-.194 1.494.654 1.874 1.148.971 1.3 1.671 2.895 2.735 4.102.713.81 1.587 1.524 2.448 2.174 1.73 1.304 3.661 2.376 5.712 3.085 1.333.456 2.733.633 4.096.578 3.14-.127 6.077-1.616 7.343-4.756 1.974-4.879-.989-9.39-4.197-12.889z" fill="#cc4079"/><path d="M57.709 87.144c-1.812-1.983-4.379-3.878-5.838-6.132-2.068-3.203-2.507-7.145-4.695-10.289-.918-1.316-2.129-2.325-3.465-3.125-.129-.316-.669-1.659-1.178-3.001-2.783 2.334-6.554 3.749-10.861 3.749-4.222 0-7.921-1.373-10.69-3.627A155.56 155.56 0 0 1 19.8 67.73c-1.235.751-2.378 1.673-3.296 2.992-2.178 3.144-2.623 7.086-4.689 10.289-1.456 2.254-4.03 4.149-5.845 6.132-3.207 3.499-6.166 8.01-4.195 12.889 1.392 3.456 4.811 4.937 8.301 4.769a11.353 11.353 0 0 0 3.133-.591c2.053-.709 3.984-1.781 5.708-3.085.861-.65 1.747-1.363 2.454-2.173 1.066-1.207 1.764-2.803 2.745-4.102.369-.494 1.122-1.342 1.863-1.148.644.165.753 1.194.937 1.701.424 1.139 1.688 1.903 2.828 2.072a17.03 17.03 0 0 0 2.096.202 17.227 17.227 0 0 0 2.099-.202c1.131-.169 2.399-.933 2.828-2.072.188-.507.298-1.536.937-1.701.745-.194 1.49.654 1.859 1.148.985 1.3 1.684 2.895 2.743 4.102.717.81 1.595 1.523 2.454 2.173 1.73 1.304 3.655 2.376 5.716 3.085 1.321.456 2.726.633 4.085.578 3.146-.127 6.086-1.617 7.352-4.756 1.968-4.878-.99-9.389-4.204-12.888z" fill="#37b4e2"/><path d="M40.872 92.141c2.083 3.617 5.402 7.288 9.755 8.077 1.207.22 2.988.203 4.019-.578 1.129-.861 1.063-2.912.667-4.106-.369-1.11-2.178-2.402-3.21-2.882-1.525-.709-3.028-1.418-4.42-2.414-2.089-1.507-3.347-3.756-5.474-5.195-1.203-.815-2.418-1.08-2.8.984-.39 2.092.431 4.333 1.463 6.114z" fill="#fff"/><path d="M50.545 104.143c-2.061-.709-3.986-1.781-5.716-3.085-.859-.65-1.737-1.363-2.454-2.174-1.059-1.207-1.758-2.802-2.743-4.102-.369-.493-1.114-1.342-1.859-1.148-.639.165-.749 1.194-.937 1.701-.428 1.139-1.696 1.903-2.827 2.072-.742.114-1.424.182-2.099.203a17.076 17.076 0 0 1-2.096-.203c-1.139-.169-2.403-.933-2.828-2.072-.183-.507-.293-1.536-.937-1.701-.741-.194-1.494.654-1.864 1.148-.981 1.3-1.68 2.895-2.745 4.102-.707.81-1.593 1.524-2.454 2.174-1.724 1.304-3.655 2.376-5.708 3.085-1.015.351-2.085.54-3.134.591.255.734.713 1.431 1.435 2.059.15.135.348.228.534.338 1.148.684 2.779.954 4.051 1.165 9.034 1.523 18.527 1.351 27.662.772 3.284-.207 7.103-.519 9.513-2.718.304-.274.591-.574.853-.92.169-.232.316-.468.439-.709a11.195 11.195 0 0 1-4.086-.578z" fill="#005792"/><path d="M24.411 86.026c-.382-2.064-1.603-1.798-2.8-.984-2.127 1.439-3.385 3.688-5.478 5.195-1.384.996-2.889 1.705-4.417 2.414-1.029.481-2.844 1.772-3.213 2.882-.39 1.194-.462 3.245.667 4.106 1.03.781 2.811.798 4.024.578 4.349-.789 7.675-4.461 9.751-8.077 1.029-1.78 1.857-4.021 1.466-6.114z" fill="#fff"/><g><g><defs><path id="SVGID_1_" d="M6.553 122.696c0 .979.81 1.776 1.779 1.776h46.417c.979 0 1.781-.797 1.781-1.776v-8.373c0-.979-.802-1.777-1.781-1.777H8.332c-.969 0-1.779.797-1.779 1.777v8.373z"/></defs><clipPath id="SVGID_2_"><use xlink:href="#SVGID_1_" overflow="visible"/></clipPath><g clip-path="url(#SVGID_2_)"><g><path fill="#cc4079" d="M6.365 111.938h8.373v13.205H6.365z"/><path fill="#e75625" d="M14.738 111.938h8.371v13.205h-8.371z"/><path fill="#626e30" d="M23.109 111.938h8.358v13.205h-8.358z"/></g><g><path fill="#cc4079" d="M31.468 111.938h8.373v13.205h-8.373z"/><path fill="#e75625" d="M39.84 111.938h8.366v13.205H39.84z"/><path fill="#626e30" d="M48.207 111.938h8.373v13.205h-8.373z"/></g></g></g></g><g><defs><path id="SVGID_3_" d="M45.303 54.26c0 7.064-6.069 11.859-13.566 11.859-7.48 0-13.554-4.794-13.554-11.859s6.073-13.733 13.554-13.733c7.498 0 13.566 6.668 13.566 13.733z"/></defs><use xlink:href="#SVGID_3_" overflow="visible" fill="#fff"/><clipPath id="SVGID_4_"><use xlink:href="#SVGID_3_" overflow="visible"/></clipPath></g><path d="M23.092 55.362a2.416 2.416 0 0 1 1.066-2.051c.81-.561 2.239-.582 3.125-.156 1.179.57 1.553 2.077 1.026 3.199-.679 1.465-2.579 1.883-3.976 1.14-.804-.428-1.228-1.242-1.241-2.132z" fill="#2f2f2f"/><path d="M40.397 55.362a2.415 2.415 0 0 0-1.07-2.051c-.802-.561-2.237-.582-3.119-.156-1.186.57-1.557 2.077-1.025 3.199.678 1.465 2.574 1.883 3.974 1.14.804-.428 1.224-1.242 1.24-2.132z" fill="#2f2f2f"/><path d="M44.729 41.751c-2.127-2.811-5.408-4.402-8.626-5.229-1.181-.304-3.224-.304-4.366.599-1.129-.903-3.163-.903-4.356-.599-4.497 1.152-9.227 4.524-10.396 9.453a12.974 12.974 0 0 0-.264 4.482c.104.895.144 2.347.981 2.866.11.063.507.122.507.122s1.063-1.427 2.604-2.351c3.25-1.958 5.394-3.275 6.47-4.093 1.809-1.367 2.8-2.583 3.697-3.836 1.021-1.418 1.891.536 2.599 1.325 2.893 3.224 5.081 3.549 8.576 6.229.253.19 3.121 2.735 3.121 2.735s.306-.004.507-.131c.846-.519 1.023-2.254 1.133-3.148.177-1.494-.22-5.829-2.187-8.424z" fill="#2f2f2f"/><path d="M36.859 31.994c2.061-8.466 2.28-20.607 1.861-24.094-.257-2.11-2.583-2.709-4.347-2.937-2.348-.299-4.906-.43-7.157.389-.99.354-2.216 1.422-2.358 2.548-.42 3.482-.2 15.59 1.867 24.055-3.269.443-6.525 1.785-6.695 5.567-.034.798.163 1.452.534 1.988.591.865 1.61 1.413 2.828 1.735 2.194.586 4.548.827 6.812.485.557-.085 1.038-.253 1.534-.465.5.211.988.38 1.547.465 2.262.342 4.609.101 6.82-.485 1.196-.321 2.228-.869 2.817-1.735.365-.536.568-1.19.534-1.988-.17-3.705-3.202-5.047-6.597-5.528z" fill="#2f2f2f"/><path d="M34.886 92.841c-.125.971-1.053 1.764-2.074 1.764h-2.144c-1.013 0-1.95-.793-2.079-1.764l-2.471-18.405c-.127-.966.591-1.76 1.604-1.76h8.044c1.011 0 1.731.793 1.604 1.76l-2.484 18.405z" fill="#fbb817"/><g><g><g><g><g><g><g><path d="M105.111 92.141c2.093 3.617 5.412 7.288 9.764 8.077 1.205.22 2.99.203 4.022-.578 1.129-.861 1.053-2.912.662-4.106-.367-1.11-2.173-2.402-3.211-2.882-1.53-.709-3.03-1.418-4.414-2.414-2.093-1.507-3.351-3.756-5.478-5.195-1.198-.815-2.414-1.08-2.802.984-.39 2.092.435 4.333 1.457 6.114z" fill="#fff"/><path d="M114.784 104.143c-2.051-.709-3.982-1.781-5.712-3.085-.861-.65-1.735-1.363-2.448-2.174-1.063-1.207-1.764-2.802-2.735-4.102-.38-.493-1.123-1.342-1.874-1.148-.642.165-.754 1.194-.937 1.701-.422 1.139-1.688 1.903-2.819 2.072a17.34 17.34 0 0 1-2.102.203 17.207 17.207 0 0 1-2.102-.203c-1.133-.169-2.406-.933-2.828-2.072-.182-.507-.291-1.536-.937-1.701-.736-.194-1.486.654-1.861 1.148-.981 1.3-1.675 2.895-2.739 4.102-.709.81-1.595 1.524-2.458 2.174-1.726 1.304-3.653 2.376-5.712 3.085a11.18 11.18 0 0 1-3.131.591c.259.734.713 1.431 1.435 2.059.152.135.353.228.54.338 1.146.684 2.777.954 4.043 1.165 9.035 1.523 18.527 1.351 27.668.772 3.279-.207 7.099-.519 9.504-2.718.302-.274.589-.574.853-.92a5.47 5.47 0 0 0 .447-.709 11.27 11.27 0 0 1-4.095-.578z" fill="#724941"/><path d="M88.662 86.026c-.388-2.064-1.604-1.798-2.802-.984-2.127 1.439-3.385 3.688-5.484 5.195-1.388.996-2.886 1.705-4.408 2.414-1.038.481-2.844 1.772-3.216 2.882-.391 1.194-.466 3.245.667 4.106 1.028.781 2.811.798 4.018.578 4.347-.789 7.67-4.461 9.757-8.077 1.03-1.78 1.857-4.021 1.468-6.114z" fill="#fff"/></g><g><defs><path id="SVGID_5_" d="M109.992 77.501c.43-.296.614-.966.414-1.494 0 0-2.203-5.828-13.522-6.162-10.99-.325-14.748 5.676-14.748 5.676-.287.468-.171 1.089.253 1.38l13.481 9.15c.435.291 1.131.291 1.566 0l12.556-8.55z"/></defs><use xlink:href="#SVGID_5_" overflow="visible" fill="#fbb817"/><clipPath id="SVGID_6_"><use xlink:href="#SVGID_5_" overflow="visible"/></clipPath></g></g></g></g></g><g><g><defs><path id="SVGID_7_" d="M71.325 122.696c0 .979.793 1.776 1.773 1.776h46.414c.977 0 1.781-.797 1.781-1.776v-8.373c0-.979-.804-1.777-1.781-1.777H73.098c-.979 0-1.773.797-1.773 1.777v8.373z"/></defs><clipPath id="SVGID_8_"><use xlink:href="#SVGID_7_" overflow="visible"/></clipPath><g clip-path="url(#SVGID_8_)"><g><path fill="#cc4079" d="M71.137 111.938h8.367v13.205h-8.367z"/><path fill="#e75625" d="M79.504 111.938h8.369v13.205h-8.369z"/><path fill="#626e30" d="M87.873 111.938h8.369v13.205h-8.369z"/></g><g><path fill="#cc4079" d="M96.242 111.938h8.365v13.205h-8.365z"/><path fill="#e75625" d="M104.606 111.938h8.364v13.205h-8.364z"/><path fill="#626e30" d="M112.971 111.938h8.373v13.205h-8.373z"/></g></g></g></g></g><g><g><defs><path id="SVGID_9_" d="M82.796 54.703c0 6.989 6.001 11.733 13.416 11.733 7.402 0 13.405-4.744 13.405-11.733 0-6.989-6.003-13.585-13.405-13.585-7.415 0-13.416 6.596-13.416 13.585z"/></defs><use xlink:href="#SVGID_9_" overflow="visible" fill="#fff"/><clipPath id="SVGID_10_"><use xlink:href="#SVGID_9_" overflow="visible"/></clipPath></g><path d="M123.53 48.795c0-12.408-14.408-18.527-14.408-18.527l-.045.051c-3.146-2.135-7.738-3.49-12.865-3.49-5.136 0-9.728 1.355-12.872 3.49l-.049-.051s-14.408 6.119-14.408 18.527c0 10.293 13.471 13.184 13.741 13.239 3.573 1.342 8.346 2.169 13.604 2.169 5.296 0 10.089-.836 13.669-2.191 1.318-.303 13.633-3.38 13.633-13.217z" fill="#2f2f2f"/><g><g><defs><path id="SVGID_11_" d="M82.796 54.703c0 6.989 6.001 11.733 13.416 11.733 7.402 0 13.405-4.744 13.405-11.733 0-6.989-6.003-13.585-13.405-13.585-7.415 0-13.416 6.596-13.416 13.585z"/></defs><use xlink:href="#SVGID_11_" overflow="visible" fill="#fff"/><clipPath id="SVGID_12_"><use xlink:href="#SVGID_11_" overflow="visible"/></clipPath></g><g><defs><path id="SVGID_13_" d="M103.737 35.758c-1.665-.435-3.566-.528-4.701-.662-2.768-.329-5.452-.502-8.246-.207-1.182.127-2.389.182-3.539.553-1.374.452-2.017 1.194-2.218 2.642-.312 2.372 1.047 4.376 3.028 5.55 2.001 1.181 5.193 1.924 8.322 1.924 1.637 0 9.861-.312 10.595-6.419.243-1.946-1.344-2.887-3.241-3.381z"/></defs><use xlink:href="#SVGID_13_" overflow="visible" fill="#2f2f2f"/><clipPath id="SVGID_14_"><use xlink:href="#SVGID_13_" overflow="visible"/></clipPath></g></g><path d="M104.86 55.526a2.414 2.414 0 0 0-1.064-2.051c-.81-.565-2.237-.586-3.123-.156-1.181.569-1.555 2.072-1.032 3.195.684 1.464 2.585 1.882 3.976 1.143.804-.426 1.234-1.241 1.243-2.131z" fill="#2f2f2f"/><path d="M87.554 55.526a2.415 2.415 0 0 1 1.063-2.051c.81-.565 2.236-.586 3.125-.156 1.18.569 1.553 2.072 1.03 3.195-.684 1.464-2.574 1.882-3.976 1.143-.801-.426-1.227-1.241-1.242-2.131z" fill="#2f2f2f"/><g><defs><path id="SVGID_15_" d="M104.564 24.478c-.209-.447-.332-.895-.304-1.342.078-1.148 1.688-1.587 2.498-2.131 2.589-1.764 5.258-4.588 6.166-7.647.713-2.397-1.026-5.423-3.769-4.828-2.026.439-3.224 2.241-3.992 4.026-.414.988-.73 2.013-1.03 3.043-.315 1.085-.837 2.106-1.283 3.144-.31.713-.667 1.701-1.397 2.085-.665.346-1.405.169-1.87-.401-.578-.714-.372-1.541-.253-2.368.101-.671.253-1.334.397-1.996.183-.848.278-1.709.443-2.566.468-2.486.831-5.87-.603-8.116-.793-1.245-1.967-1.84-3.438-1.853-3.847-.029-4.21 4.207-4.083 7.103.099 2.093.446 4.178.929 6.212.201.844.498 1.717.354 2.591-.228 1.334-1.621 1.789-2.695.966-.58-.447-.969-1.114-1.289-1.769-.69-1.435-1.186-2.983-1.682-4.499a18.958 18.958 0 0 0-.65-1.735c-.758-1.73-1.958-3.443-3.914-3.87-2.752-.595-4.492 2.431-3.773 4.828.901 3.06 3.574 5.883 6.174 7.647.747.51 1.954.831 2.359 1.726.515 1.127-.532 2.519-1.097 3.418-.802 1.249-1.53 2.579-1.73 4.073-.312 2.367 1.047 4.376 3.028 5.545 2.001 1.186 5.193 1.924 8.322 1.924 1.637 0 9.861-.312 10.595-6.415.16-1.312-.171-2.621-.66-3.832-.36-.912-1.274-1.93-1.753-2.963z"/></defs><use xlink:href="#SVGID_15_" overflow="visible" fill="#fbb817"/><clipPath id="SVGID_16_"><use xlink:href="#SVGID_15_" overflow="visible"/></clipPath></g></g></g></g></svg>