<svg id="レイヤー_1" xmlns="http://www.w3.org/2000/svg" viewBox="0 0 128 128"><g><g><g><path d="M102.603 21.062a4.95 4.95 0 0 1-4.945 4.947c-2.729 0-4.944-2.219-4.944-4.947s2.216-4.94 4.944-4.94a4.946 4.946 0 0 1 4.945 4.94z" fill="#fcc21b"/><path d="M48.621 25.195a4.102 4.102 0 1 1-8.204 0 4.104 4.104 0 0 1 4.104-4.105c2.263 0 4.1 1.838 4.1 4.105z" fill="#fcc21b"/><path d="M12.648 93.748a4.105 4.105 0 0 1-4.104 4.107 4.103 4.103 0 1 1 0-8.207 4.103 4.103 0 0 1 4.104 4.1z" fill="#fcc21b"/><circle cx="62.087" cy="123.611" r="4.103" fill="#fcc21b"/><path d="M119.227 68.262a4.107 4.107 0 0 1-4.106 4.107 4.107 4.107 0 0 1-4.104-4.107 4.103 4.103 0 0 1 4.104-4.094 4.104 4.104 0 0 1 4.106 4.094z" fill="#fcc21b"/><circle cx="9.051" cy="53.365" r="4.882" fill="#fcc21b"/><path d="M114.775 37.434a4.578 4.578 0 0 1-4.574 4.578 4.575 4.575 0 1 1 4.574-4.578z" fill="#fcc21b"/><path d="M26.19 25.875a3.607 3.607 0 0 1-3.609 3.611 3.612 3.612 0 1 1 0-7.222 3.606 3.606 0 0 1 3.609 3.611z" fill="#fcc21b"/><path d="M104.004 123.619a3.146 3.146 0 0 1-6.292 0 3.145 3.145 0 1 1 6.292 0z" fill="#fcc21b"/><path d="M30.263 119.547a5.132 5.132 0 0 1-5.127 5.131 5.134 5.134 0 0 1-5.126-5.131 5.126 5.126 0 0 1 10.253 0z" fill="#fcc21b"/><path d="M70.743 71.461c-4.88-10.49-3.818-22.916-3.799-34.184.016-10.01.066-20.025.033-30.039 0-.355-.013-6.953-.005-6.953h-6.897c0 5.764.015 11.525.023 17.293.018 9.322-.393 18.717-.062 28.031.294 8.289-.166 18.201-3.725 25.852-2.545 5.473-4.48 9.801-4.054 15.092 0 6.227 5.047 11.27 11.267 11.27 6.23 0 11.271-5.043 11.271-11.299.418-5.274-1.51-9.598-4.052-15.063z" fill="#ed6c30"/><path d="M32.303 35.355c-2.116-.604-4.434-.611-6.938.23-4.026 1.35-5.991 6.246-4.38 9.992 2.692 6.283 11.682 6.482 16.876 9.494 2.97 1.723 5.25 4.521 7.672 6.891.616.605 1.164 1.576 2.004 1.887.958.357 1.618-.525 1.634-1.393.068-4.16-2.004-8.414-3.611-12.17-2.554-5.974-6.555-13.005-13.257-14.931z" fill="#f79329"/><path d="M91.262 34.656a7.68 7.68 0 0 1 4.652.486c3.284 1.398 3.583 4.705 1.841 7.438-1.804 2.824-5.276 3.711-8.16 5.051-3.17 1.482-6.152 3.301-8.364 6.068-1.038 1.297-3.749 6.061-5.969 4.621-.868-.564-.478-1.957-.366-2.789.171-1.25.478-2.469.831-3.678 1.943-6.624 8.305-15.732 15.535-17.197z" fill="#f79329"/><path d="M18.232 97.521a7.67 7.67 0 0 0-1.209 4.516c.143 3.564 3.121 5.02 6.3 4.367 3.282-.674 5.345-3.605 7.628-5.822 2.513-2.434 5.275-4.574 8.646-5.656 1.582-.508 6.999-1.342 6.447-3.93-.219-1.008-1.66-1.143-2.479-1.336-1.229-.287-2.474-.434-3.73-.533-6.883-.547-17.657 2.156-21.603 8.394z" fill="#f79329"/><path d="M37.7 113.338a7.745 7.745 0 0 0 .664 4.633c1.527 3.221 4.84 3.396 7.505 1.543 2.709-1.877 3.438-5.123 4.268-8.115.418-1.508.858-3.029 1.679-4.381.656-1.082 3.117-2.889 2.633-4.252-.243-.68-1.159-.871-1.785-.889-3.724-.074-7.876 1.387-10.64 3.898-2.18 1.973-3.846 4.631-4.324 7.563z" fill="#f79329"/><path d="M88.228 121.4c-1.118 4.238-6.321 4.605-9.195 2.201-3.413-2.855-3.349-7.707-3.68-11.762-.156-1.932-.342-3.879-.865-5.752-.363-1.279-1.812-3.596-.829-4.826.449-.561 1.385-.445 1.977-.256 3.645 1.176 6.271 4.549 8.502 7.48 2.617 3.441 5.254 8.437 4.09 12.915z" fill="#f79329"/><path d="M9.705 65.305c-1.758.979-3.25 2.34-4.152 4.279-1.547 3.334-.557 7.328 3.062 8.885 1.452.621 3.043.717 4.59.449 1.589-.273 2.853-.822 4.221-1.602 5.07-2.881 11.224-4.121 17.019-3.65 2.641.213 5.442.803 7.879 1.869.951.412 3.102 1.299 4.104.738 1.726-.953-.533-3.842-1.428-4.686-7.281-6.805-19.256-10.332-29.088-8.367-2.113.423-4.312 1.034-6.207 2.085z" fill="#f79329"/><path d="M112.002 105.971c.941 2.742 1.078 5.82-.688 8.176-1.372 1.82-3.756 2.719-6.01 2.17-3.926-.959-5.266-4.773-7.02-7.922-2.752-4.941-6.36-9.76-11.327-12.648-1.444-.844-2.975-1.463-4.567-1.955-.973-.305-3.058-.861-3.192-2.078-.176-1.607 2.678-2.291 3.818-2.416 4.446-.471 8.984.564 12.998 2.432 5.384 2.506 11.211 5.871 14.457 11.041a15.694 15.694 0 0 1 1.531 3.2z" fill="#f79329"/><path d="M121.035 83.312c1.948 2.141 3.304 4.91 2.615 7.77-.532 2.223-2.361 3.996-4.648 4.387-3.98.683-6.729-2.283-9.593-4.479-4.486-3.438-9.717-6.428-15.419-7.098-1.663-.197-3.314-.158-4.972.018-1.01.111-3.144.434-3.754-.635-.796-1.402 1.543-3.168 2.545-3.732 3.889-2.205 8.467-3.055 12.89-2.938 5.938.154 12.62.924 17.654 4.381.927.633 1.859 1.43 2.682 2.326z" fill="#f79329"/><path d="M107.163 47.965c2.879.309 5.73 1.486 7.106 4.088 1.073 2.012.874 4.559-.581 6.363-2.529 3.15-6.552 2.744-10.154 3-5.636.396-11.533 1.613-16.249 4.891-1.377.951-2.59 2.072-3.717 3.301-.684.756-2.067 2.41-3.233 2.014-1.526-.525-.942-3.396-.564-4.482 1.456-4.229 4.32-7.896 7.712-10.736 4.559-3.816 10.071-7.666 16.132-8.406a15.31 15.31 0 0 1 3.548-.033z" fill="#f79329"/></g></g></g></svg>