<svg id="レイヤー_1" xmlns="http://www.w3.org/2000/svg" viewBox="0 0 128 128"><g><g><g><g fill="#fcc21b"><path d="M97.166 20.213c-3.495 0-6.938.613-10.249 1.825a5.115 5.115 0 0 0-3.343 5.131c.041.546.957 13.516 5.853 26.589 4.89 13.089 11.9 22.261 12.196 22.647a5.089 5.089 0 0 0 5.793 1.678c15.453-5.658 23.421-22.828 17.771-38.275-4.285-11.722-15.55-19.595-28.021-19.595z"/><path d="M59.07 3.266c-4.033 0-7.97.81-11.703 2.403-7.335 3.124-13.002 8.917-15.98 16.32-2.97 7.395-2.879 15.503.246 22.831a5.099 5.099 0 0 0 5.18 3.076c.486-.047 11.97-1.211 24.871-6.614 12.874-5.379 22.962-13.594 23.381-13.938a5.098 5.098 0 0 0 1.454-5.948A29.812 29.812 0 0 0 59.07 3.266z"/></g></g></g><g><path d="M77.534 49.993a1.526 1.526 0 0 0-.885-1.084l-3.752-1.633a1.532 1.532 0 0 0-2.109 1.721c.004.024.475 2.471-.903 4.518-.989 1.466-2.729 2.431-5.185 2.86-6.523 1.147-7.247 5.376-7.771 8.463-.505 2.924-.849 4.228-3.812 4.511-3.292.31-5.714 1.542-7.204 3.657-2.391 3.378-1.342 7.706-1.299 7.889.111.462.438.841.877 1.028l3.745 1.635c.199.086.407.127.605.127.359 0 .709-.127.991-.363a1.52 1.52 0 0 0 .499-1.534c-.004-.032-.741-3.179.845-5.403.956-1.342 2.631-2.135 4.98-2.359 5.431-.518 6.072-4.287 6.542-7.044.495-2.897.885-5.188 5.284-5.961 3.298-.582 5.717-1.984 7.191-4.168 2.122-3.139 1.392-6.712 1.361-6.86z" fill="#ed6c30"/><path d="M89.428 93.539c-2.303-1.888-1.861-3.164-.645-5.869 1.286-2.853 3.048-6.765-1.733-11.355-1.776-1.714-2.689-3.475-2.7-5.236-.021-2.486 1.756-4.271 1.771-4.288a1.529 1.529 0 0 0-.792-2.601l-4.023-.742a1.536 1.536 0 0 0-1.34.402c-.1.112-2.709 2.669-2.701 6.463.004 2.629 1.236 5.145 3.643 7.466 3.223 3.093 2.272 5.213 1.06 7.898-1.142 2.546-2.714 6.032 1.498 9.491 1.828 1.498 2.777 3.092 2.821 4.738.079 2.729-2.295 4.929-2.312 4.944a1.536 1.536 0 0 0-.449 1.554 1.52 1.52 0 0 0 1.2 1.091l4.024.738c.09.019.182.027.271.027.374 0 .739-.14 1.026-.395.14-.127 3.427-3.131 3.325-7.271-.067-2.584-1.39-4.959-3.944-7.055z" fill="#d7598b"/><path d="M67.573 92.938c2.223-3.845.996-7.271.947-7.419a1.516 1.516 0 0 0-.868-.884l-3.583-1.443a1.522 1.522 0 0 0-1.62.319 1.549 1.549 0 0 0-.392 1.618c.033.088.758 2.279-.717 4.829-.677 1.164-1.538 1.586-2.637 2.128-1.251.609-2.806 1.371-3.746 3.394-.876 1.881-.654 3.698-.458 5.308.179 1.466.33 2.729-.268 3.985-.629 1.338-1.705 2.007-2.956 2.789-1.235.772-2.639 1.645-3.649 3.254-.861 1.367-.961 2.933-1.06 4.447-.168 2.474-.374 4.044-2.519 5.136a1.524 1.524 0 1 0 .127 2.781l3.581 1.443a1.519 1.519 0 0 0 1.263-.057c3.802-1.933 4.025-5.243 4.184-7.658.081-1.188.151-2.311.606-3.024.629-1.016 1.586-1.605 2.678-2.287 1.449-.905 3.084-1.925 4.1-4.069.976-2.06.746-3.976.529-5.674-.167-1.371-.306-2.558.2-3.642.462-.996 1.107-1.347 2.318-1.941 1.246-.608 2.805-1.365 3.94-3.333z" fill="#d7598b"/><path d="M23.847 75.789c1.697-.063 3.634-.14 5.578-1.498 1.865-1.307 2.613-3.084 3.276-4.658.537-1.276 1-2.379 1.976-3.072.997-.701 1.933-.597 2.973-.534.406.027.825.051 1.243.051.912 0 2.295-.103 3.839-1 3.836-2.231 4.473-5.817 4.496-5.968a1.56 1.56 0 0 0-.311-1.2l-2.399-3.029a1.543 1.543 0 0 0-1.584-.529 1.534 1.534 0 0 0-1.125 1.227c-.008.024-.45 2.334-3.02 3.825-.709.415-1.375.586-2.295.586-.354 0-.702-.024-1.048-.044a17.075 17.075 0 0 0-1.192-.052c-.996 0-2.318.131-3.744 1.139-1.698 1.2-2.399 2.893-3.029 4.387-.574 1.359-1.067 2.534-2.206 3.332-1.209.845-2.479.892-3.954.952-1.449.057-3.103.124-4.78 1.016-1.42.766-2.288 2.072-3.124 3.332-1.323 2.001-2.238 3.224-4.439 3.224l-.303-.008a1.556 1.556 0 0 0-1.436.829 1.535 1.535 0 0 0 .168 1.649l2.402 3.032c.275.343.689.554 1.119.575.152.007.303.016.447.016 3.952 0 5.705-2.654 6.988-4.59.653-.992 1.278-1.929 2.024-2.328 1.053-.567 2.169-.612 3.46-.662z" fill="#d7598b"/><path d="M38.224 88.196v-4.709a1.53 1.53 0 0 0-1.53-1.531h-4.719a1.53 1.53 0 0 0-1.528 1.531v4.709a1.53 1.53 0 0 0 1.528 1.531h4.719c.844 0 1.53-.686 1.53-1.531z" fill="#ed6c30"/><path d="M19.487 51.419l-3.334 3.332a1.521 1.521 0 0 0 0 2.163l3.334 3.335a1.53 1.53 0 0 0 2.159 0l3.336-3.335a1.526 1.526 0 0 0 0-2.163l-3.336-3.332a1.523 1.523 0 0 0-2.159 0z" fill="#40c0e7"/><path d="M10.188 60.935a1.527 1.527 0 0 0 0-2.161L6.85 55.435c-.57-.573-1.587-.573-2.16 0l-3.331 3.339a1.541 1.541 0 0 0-.455 1.08c0 .407.169.794.455 1.081l3.331 3.331c.296.303.692.45 1.085.45.39 0 .78-.147 1.075-.45l3.338-3.331z" fill="#ed6c30"/><path d="M27.33 93.001c-.574-.578-1.595-.578-2.168 0l-3.332 3.331a1.536 1.536 0 0 0 0 2.168l3.332 3.331a1.54 1.54 0 0 0 2.168 0l3.33-3.331a1.532 1.532 0 0 0 0-2.168l-3.33-3.331z" fill="#40c0e7"/><path d="M68.569 111.912a1.536 1.536 0 0 0-2.168 0l-3.127 3.132a1.524 1.524 0 0 0 0 2.167l3.127 3.132c.304.295.693.447 1.083.447.395 0 .781-.151 1.085-.447l3.131-3.132a1.531 1.531 0 0 0 0-2.167l-3.131-3.132z" fill="#40c0e7"/><path d="M110.956 90.906c.295.303.693.45 1.084.45.39 0 .78-.147 1.079-.45l3.136-3.132a1.532 1.532 0 0 0 0-2.16l-3.136-3.132a1.528 1.528 0 0 0-2.163 0l-3.132 3.132a1.525 1.525 0 0 0 0 2.16l3.132 3.132z" fill="#40c0e7"/><path d="M101.218 112.565a1.534 1.534 0 0 0-2.168 0l-3.129 3.132a1.542 1.542 0 0 0 0 2.167l3.129 3.132c.303.294.702.447 1.089.447.39 0 .784-.152 1.079-.447l3.133-3.132a1.535 1.535 0 0 0 0-2.167l-3.133-3.132z" fill="#40c0e7"/><path d="M44.427 104.66v-4.714c0-.844-.686-1.53-1.53-1.53H38.18c-.85 0-1.53.686-1.53 1.53v4.714c0 .845.681 1.531 1.53 1.531h4.717a1.532 1.532 0 0 0 1.53-1.531z" fill="#40c0e7"/><path d="M72.904 98.56h-4.431c-.842 0-1.53.685-1.53 1.53v4.427c0 .844.688 1.529 1.53 1.529h4.431a1.53 1.53 0 0 0 1.529-1.529v-4.427a1.529 1.529 0 0 0-1.529-1.53z" fill="#ed6c30"/><path d="M26.39 110.027h-4.718a1.53 1.53 0 0 0-1.526 1.529v4.714c0 .845.686 1.53 1.526 1.53h4.718c.849 0 1.53-.685 1.53-1.53v-4.714c0-.843-.682-1.529-1.53-1.529z" fill="#ed6c30"/><path d="M12.762 96.332a1.523 1.523 0 0 0-2.159 0l-3.33 3.335a1.492 1.492 0 0 0-.454 1.08c0 .406.158.797.454 1.084l3.33 3.331c.299.302.686.45 1.084.45.391 0 .78-.148 1.075-.45l3.331-3.331a1.522 1.522 0 0 0 0-2.164l-3.331-3.335z" fill="#40c0e7"/><path d="M5.573 42.366c1.922.574 4.033.136 5.687-.326 1.319-.367 2.559-.67 3.63-.352 1.06.304 1.506.898 2.273 2 .787 1.14 1.771 2.559 3.888 3.387a9.73 9.73 0 0 0 4.567.635 1.545 1.545 0 0 0 1.37-1.462l.137-3.721c.016-.415-.169-.821-.463-1.12a1.62 1.62 0 0 0-1.139-.47 6.73 6.73 0 0 1-2.472-.466c-1.251-.494-1.801-1.283-2.49-2.287-.8-1.148-1.789-2.575-3.925-3.197-1.769-.517-3.666-.119-5.314.343-1.418.399-2.758.709-3.985.343-.773-.231-1.417-.637-2.135-1.347a1.489 1.489 0 0 0-1.274-.426 1.51 1.51 0 0 0-1.115.746l-1.695 2.9a1.526 1.526 0 0 0 .168 1.777c.997 1.151 2.24 2.43 4.287 3.043z" fill="#ed6c30"/><path d="M126.367 112.079c-.311-.187-.565-.215-.864-.247-3.151-.335-5.875-1.387-7.9-3.012 4.416-2.184 6.156-6.4 5.929-8.973 0-.096-.012-.228-.032-.359-.326-3.706-2.606-6.097-5.81-6.097-.788 0-1.633.135-2.564.423-1.173.354-4.551 1.378-6.328 8.256-2.231-1.578-4.025-4.084-5.157-7.245-.096-.287-.183-.526-.438-.781-.569-.573-1.583-.573-2.16 0L97.73 97.36a1.522 1.522 0 0 0-.082 2.072c-.152-.179-.213-.311-.201-.271 2.18 6.161 6.501 10.152 11.901 11.046 2.205 4.861 7.025 8 13.488 8.678.097.015.191.023.288.023.514 0 1.02-.259 1.307-.733l2.439-3.993a1.53 1.53 0 0 0-.503-2.103zm-9.824-9.706c-.726.402-1.457.726-2.088.972a14.508 14.508 0 0 1 .056-2.343c.079-1.032 1.362-2.167 2.454-2.167.272 0 .506.071.717.211.415.267.657.729.639 1.207-.026.745-.658 1.498-1.778 2.12z" fill="#ed6c30"/></g></g></svg>