<svg id="レイヤー_1" xmlns="http://www.w3.org/2000/svg" viewBox="0 0 128 128"><path d="M128 120a8 8 0 0 1-8 8H8a8 8 0 0 1-8-8V8a8 8 0 0 1 8-8h112a8 8 0 0 1 8 8v112z" fill="#b0bec5"/><circle cx="33.167" cy="35.5" r="21.5" fill="#546e7a"/><circle cx="94.833" cy="35.5" r="21.5" fill="#546e7a"/><circle cx="33.167" cy="95.5" r="21.5" fill="#546e7a"/><circle cx="94.833" cy="95.5" r="21.5" fill="#546e7a"/><circle cx="33.167" cy="35.5" r="18.5" fill="#37474f"/><circle cx="94.833" cy="35.5" r="18.5" fill="#37474f"/><circle cx="33.167" cy="95.5" r="18.5" fill="#37474f"/><circle cx="94.833" cy="95.5" r="18.5" fill="#37474f"/><path d="M36.116 37.128a2.125 2.125 0 1 1-3.526-2.372l8.512-12.653a2.125 2.125 0 1 1 3.526 2.372l-8.512 12.653z" fill="#546e7a"/><path d="M36.116 36.253a2.125 2.125 0 1 1-3.526-2.372l8.512-12.653a2.125 2.125 0 1 1 3.526 2.372l-8.512 12.653z" fill="#fff"/><path d="M35.298 98.414a2.124 2.124 0 1 1-1.889-3.807l13.66-6.781a2.124 2.124 0 1 1 1.889 3.807l-13.66 6.781z" fill="#546e7a"/><path d="M35.298 97.789a2.124 2.124 0 1 1-1.889-3.807l13.66-6.781a2.124 2.124 0 1 1 1.889 3.807l-13.66 6.781z" fill="#fff"/><path d="M97.578 97.171a2.124 2.124 0 1 1-3.384-2.57l9.222-12.145a2.124 2.124 0 1 1 3.384 2.57l-9.222 12.145z" fill="#546e7a"/><path d="M97.578 96.423a2.124 2.124 0 1 1-3.384-2.57l9.222-12.145a2.124 2.124 0 1 1 3.384 2.57l-9.222 12.145z" fill="#fff"/><path d="M95.367 34.668a2.125 2.125 0 0 1-3.491 2.423L83.18 24.563a2.125 2.125 0 0 1 3.491-2.423l8.696 12.528z" fill="#546e7a"/><path d="M95.367 33.873a2.125 2.125 0 0 1-3.491 2.423L83.18 23.768a2.125 2.125 0 0 1 3.491-2.423l8.696 12.528z" fill="#fff"/><g/><g><path d="M10.495 108.113a1.42 1.42 0 0 1-1.274-.791 26.96 26.96 0 0 1-.854-1.914 1.42 1.42 0 1 1 2.638-1.055c.232.58.489 1.155.763 1.709a1.42 1.42 0 0 1-1.273 2.051zm45.89-1.19a1.42 1.42 0 0 1-1.303-1.985c.245-.564.471-1.152.674-1.746a1.42 1.42 0 1 1 2.689.918 26.672 26.672 0 0 1-.755 1.957 1.424 1.424 0 0 1-1.305.856zM7.938 98.566a1.4 1.4 0 0 1-1.411-1.304l-.003-.044a26.94 26.94 0 0 1-.056-1.742l.002-.308a1.41 1.41 0 0 1 1.435-1.406 1.42 1.42 0 0 1 1.406 1.436l-.001.278c0 .515.016 1.034.049 1.556.051.783-.541 1.48-1.323 1.531a1.603 1.603 0 0 1-.098.003zm50.505-1.284h-.019a1.421 1.421 0 0 1-1.402-1.439l.002-.318c0-.515-.016-1.034-.049-1.556l-.007-.102a1.421 1.421 0 0 1 2.836-.172l-1.418.086 1.421-.037c.041.625.059 1.205.059 1.78l-.003.355a1.421 1.421 0 0 1-1.42 1.403zm-49.224-8.47a1.422 1.422 0 0 1-1.346-1.877 26.47 26.47 0 0 1 .752-1.958 1.42 1.42 0 1 1 2.61 1.123c-.244.568-.47 1.155-.671 1.747s-.753.965-1.345.965zm47.411-1.317a1.42 1.42 0 0 1-1.318-.891 23.643 23.643 0 0 0-.766-1.707 1.42 1.42 0 1 1 2.545-1.263c.308.619.596 1.262.856 1.91a1.421 1.421 0 0 1-1.317 1.951zm-42.483-7.223a1.42 1.42 0 0 1-1.069-2.357c.455-.52.939-1.031 1.439-1.521a1.42 1.42 0 1 1 1.987 2.031c-.448.438-.881.896-1.288 1.361-.28.322-.674.486-1.069.486zm37.092-1.024a1.42 1.42 0 0 1-1.016-.428 24.116 24.116 0 0 0-1.361-1.287 1.42 1.42 0 1 1 1.87-2.139c.528.462 1.041.946 1.523 1.439a1.421 1.421 0 0 1-1.016 2.415zm-29.282-4.989a1.42 1.42 0 0 1-.631-2.694 27.104 27.104 0 0 1 1.91-.854 1.421 1.421 0 0 1 1.06 2.637c-.584.235-1.16.492-1.709.765a1.448 1.448 0 0 1-.63.146zm21.148-.586a1.42 1.42 0 0 1-.559-.115 24.374 24.374 0 0 0-1.75-.669 1.42 1.42 0 0 1 .911-2.692c.662.224 1.32.476 1.958.749a1.42 1.42 0 0 1-.56 2.727zm-11.564-1.977c-.74 0-1.394-.567-1.449-1.313-.058-.776.485-1.452 1.261-1.519.021-.001.11-.008.131-.008a26.426 26.426 0 0 1 1.707-.056l.281.001a1.42 1.42 0 0 1 1.405 1.437c-.008.785-.63 1.449-1.436 1.405l-.25-.001c-.517 0-1.036.018-1.558.051a1.39 1.39 0 0 1-.092.003z" fill="#546e7a"/></g><g/><g><path d="M116.877 107.965a1.42 1.42 0 0 1-.644-1.903c.273-.554.53-1.129.763-1.709a1.42 1.42 0 1 1 2.638 1.055 26.96 26.96 0 0 1-.854 1.914 1.42 1.42 0 0 1-1.903.643zm-46.566-1.898a26.672 26.672 0 0 1-.755-1.957 1.421 1.421 0 0 1 2.689-.918c.203.594.429 1.182.674 1.746a1.42 1.42 0 1 1-2.608 1.129zm49.653-7.504c-.783-.051-1.374-.748-1.323-1.531a24.64 24.64 0 0 0 .049-1.556l-.001-.278a1.421 1.421 0 0 1 1.406-1.436 1.41 1.41 0 0 1 1.435 1.406l.002.308c0 .575-.018 1.155-.056 1.742l-.003.044a1.4 1.4 0 0 1-1.509 1.301zm-51.827-2.684l-.003-.355c0-.575.018-1.155.059-1.78l1.421.037-1.418-.086a1.421 1.421 0 0 1 2.836.172l-.007.102a24.64 24.64 0 0 0-.049 1.556l.002.318a1.42 1.42 0 0 1-1.402 1.439h-.019a1.421 1.421 0 0 1-1.42-1.403zm49.299-8.032a23.958 23.958 0 0 0-.671-1.747 1.419 1.419 0 0 1 .743-1.866 1.418 1.418 0 0 1 1.867.743c.274.636.527 1.295.752 1.958a1.422 1.422 0 0 1-2.691.912zm-46.596-.455a1.421 1.421 0 0 1-.788-1.849c.261-.648.549-1.291.856-1.91a1.42 1.42 0 0 1 2.545 1.263 24.088 24.088 0 0 0-.766 1.707 1.42 1.42 0 0 1-1.847.789zm41.943-7.605c-.407-.465-.84-.923-1.288-1.361a1.421 1.421 0 0 1 1.987-2.031c.5.49.985 1.002 1.439 1.521a1.42 1.42 0 1 1-2.138 1.871zm-37.015-.945a1.421 1.421 0 0 1-.023-2.009 26.69 26.69 0 0 1 1.523-1.439 1.42 1.42 0 1 1 1.87 2.139c-.472.413-.93.846-1.361 1.287a1.42 1.42 0 0 1-2.009.022zm29.645-4.73a24.789 24.789 0 0 0-1.709-.765 1.421 1.421 0 0 1 1.06-2.637c.652.263 1.295.551 1.91.854a1.42 1.42 0 0 1-1.261 2.548zm-21.825-1.301a1.42 1.42 0 0 1 .747-1.864 26.792 26.792 0 0 1 1.958-.749 1.422 1.422 0 0 1 .911 2.692c-.592.2-1.181.426-1.75.669a1.42 1.42 0 0 1-1.866-.748zm12.778-1.118a24.687 24.687 0 0 0-1.558-.051l-.25.001c-.806.044-1.428-.62-1.436-1.405a1.421 1.421 0 0 1 1.405-1.437l.281-.001c.576 0 1.156.02 1.707.056.021 0 .11.007.131.008.776.066 1.319.742 1.261 1.519-.055.746-.709 1.313-1.449 1.313l-.092-.003z" fill="#546e7a"/></g><g><path d="M10.495 48.397a1.42 1.42 0 0 1-1.274-.791 26.96 26.96 0 0 1-.854-1.914 1.42 1.42 0 1 1 2.638-1.055c.232.58.489 1.155.763 1.709a1.42 1.42 0 0 1-1.273 2.051zm45.89-1.19a1.42 1.42 0 0 1-1.303-1.985c.245-.564.471-1.152.674-1.746a1.42 1.42 0 1 1 2.689.918 26.672 26.672 0 0 1-.755 1.957 1.424 1.424 0 0 1-1.305.856zM7.938 38.85a1.4 1.4 0 0 1-1.411-1.304l-.003-.044a26.94 26.94 0 0 1-.056-1.742l.002-.308a1.41 1.41 0 0 1 1.435-1.406 1.42 1.42 0 0 1 1.406 1.436l-.002.278c0 .515.016 1.034.049 1.556.051.783-.541 1.48-1.323 1.531a1.547 1.547 0 0 1-.097.003zm50.505-1.285h-.019a1.421 1.421 0 0 1-1.402-1.439l.002-.318c0-.515-.016-1.034-.049-1.556l-.007-.102a1.421 1.421 0 0 1 2.836-.172l-1.418.086 1.421-.037c.041.625.059 1.205.059 1.78l-.003.355a1.421 1.421 0 0 1-1.42 1.403zM9.219 29.096a1.422 1.422 0 0 1-1.346-1.877 26.47 26.47 0 0 1 .752-1.958 1.42 1.42 0 1 1 2.61 1.123c-.244.568-.47 1.155-.671 1.747s-.753.965-1.345.965zm47.411-1.318a1.42 1.42 0 0 1-1.318-.891 23.643 23.643 0 0 0-.766-1.707 1.42 1.42 0 1 1 2.545-1.263c.308.619.596 1.262.856 1.91a1.421 1.421 0 0 1-1.317 1.951zm-42.483-7.222a1.42 1.42 0 0 1-1.069-2.357c.455-.52.939-1.031 1.439-1.521a1.42 1.42 0 1 1 1.987 2.031c-.448.438-.881.896-1.288 1.361-.28.322-.674.486-1.069.486zm37.092-1.025a1.42 1.42 0 0 1-1.016-.428 24.116 24.116 0 0 0-1.361-1.287 1.42 1.42 0 1 1 1.87-2.139c.528.462 1.041.946 1.523 1.439a1.421 1.421 0 0 1-1.016 2.415zm-29.282-4.988a1.42 1.42 0 0 1-.631-2.694 27.104 27.104 0 0 1 1.91-.854 1.421 1.421 0 0 1 1.06 2.637c-.584.235-1.16.492-1.709.765a1.448 1.448 0 0 1-.63.146zm21.148-.586a1.42 1.42 0 0 1-.559-.115 24.374 24.374 0 0 0-1.75-.669 1.42 1.42 0 0 1 .911-2.692c.662.224 1.32.476 1.958.749a1.42 1.42 0 0 1-.56 2.727zM31.541 11.98c-.74 0-1.394-.567-1.449-1.313-.058-.776.485-1.452 1.261-1.519.021-.001.11-.008.131-.008a26.426 26.426 0 0 1 1.707-.056l.281.001a1.42 1.42 0 0 1 1.405 1.437c-.008.785-.63 1.449-1.436 1.405l-.25-.001c-.517 0-1.036.018-1.558.051a1.39 1.39 0 0 1-.092.003z" fill="#546e7a"/></g><g><path d="M116.877 48.249a1.42 1.42 0 0 1-.644-1.903c.273-.554.53-1.129.763-1.709a1.42 1.42 0 1 1 2.638 1.055 26.96 26.96 0 0 1-.854 1.914 1.42 1.42 0 0 1-1.903.643zm-46.566-1.898a26.672 26.672 0 0 1-.755-1.957 1.421 1.421 0 0 1 2.689-.918c.203.594.429 1.182.674 1.746a1.42 1.42 0 1 1-2.608 1.129zm49.653-7.504c-.783-.051-1.374-.748-1.323-1.531a24.64 24.64 0 0 0 .049-1.556l-.001-.278a1.421 1.421 0 0 1 1.406-1.436 1.41 1.41 0 0 1 1.435 1.406l.002.308c0 .575-.018 1.155-.056 1.742l-.003.044a1.4 1.4 0 0 1-1.509 1.301zm-51.827-2.684l-.003-.355c0-.575.018-1.155.059-1.78l1.421.037-1.418-.086a1.421 1.421 0 0 1 2.836.172l-.007.102a24.64 24.64 0 0 0-.049 1.556l.002.318a1.42 1.42 0 0 1-1.402 1.439h-.019a1.423 1.423 0 0 1-1.42-1.403zm49.299-8.032a23.958 23.958 0 0 0-.671-1.747 1.419 1.419 0 0 1 .743-1.866 1.418 1.418 0 0 1 1.867.743c.274.636.527 1.295.752 1.958a1.422 1.422 0 0 1-2.691.912zm-46.596-.455a1.421 1.421 0 0 1-.788-1.849c.261-.648.549-1.291.856-1.91a1.42 1.42 0 0 1 2.545 1.263 24.088 24.088 0 0 0-.766 1.707 1.42 1.42 0 0 1-1.847.789zm41.943-7.606c-.407-.465-.84-.923-1.288-1.361a1.421 1.421 0 0 1 1.987-2.031c.5.49.985 1.002 1.439 1.521a1.42 1.42 0 1 1-2.138 1.871zm-37.015-.944a1.421 1.421 0 0 1-.023-2.009 26.69 26.69 0 0 1 1.523-1.439 1.42 1.42 0 1 1 1.87 2.139c-.472.413-.93.846-1.361 1.287a1.42 1.42 0 0 1-2.009.022zm29.645-4.73a24.789 24.789 0 0 0-1.709-.765 1.421 1.421 0 0 1 1.06-2.637c.652.263 1.295.551 1.91.854a1.42 1.42 0 0 1-1.261 2.548zm-21.825-1.301a1.42 1.42 0 0 1 .747-1.864 26.792 26.792 0 0 1 1.958-.749 1.422 1.422 0 0 1 .911 2.692c-.592.2-1.181.426-1.75.669a1.42 1.42 0 0 1-1.866-.748zm12.778-1.118a24.687 24.687 0 0 0-1.558-.051l-.25.001c-.806.044-1.428-.62-1.436-1.405a1.421 1.421 0 0 1 1.405-1.437l.281-.001c.576 0 1.156.02 1.707.056.021 0 .11.007.131.008.776.066 1.319.742 1.261 1.519-.055.746-.709 1.313-1.449 1.313l-.092-.003z" fill="#546e7a"/></g></svg>