<svg id="レイヤー_1" xmlns="http://www.w3.org/2000/svg" xmlns:xlink="http://www.w3.org/1999/xlink" viewBox="0 0 128 128"><g><circle cx="64" cy="94" r="30" fill="#fcc21b"/></g><g/><g><g/></g><g><path d="M70 60v11H58V60h12m0-6H58a6 6 0 0 0-6 6v11a6 6 0 0 0 6 6h12a6 6 0 0 0 6-6V60a6 6 0 0 0-6-6z" fill="#fcc21b"/></g><path d="M46.302 80.286A24.098 24.098 0 0 1 50.126 76" fill="none" stroke="#fff" stroke-width="5" stroke-linecap="round" stroke-miterlimit="10"/><g/><g><path d="M88 40.489c0 1.931-1.174 4.568-2.61 5.86L70.61 59.651C69.174 60.943 66.42 62 64.489 62h-.978c-1.931 0-4.685-1.057-6.121-2.349L42.61 46.349C41.174 45.057 40 42.42 40 40.489V4h48v36.489z" fill="#006ca2"/><path fill="#40c0e7" d="M48 51.2l8 7.2V4h-8z"/><path d="M88 40.489c0 1.931-1.174 4.568-2.61 5.86L70.61 59.651C69.174 60.943 66.42 62 64.489 62h-.978c-1.931 0-4.685-1.057-6.121-2.349L42.61 46.349C41.174 45.057 40 42.42 40 40.489V4h48v36.489z" fill="#ed6c30"/></g><g fill-rule="evenodd" clip-rule="evenodd" fill="#f79329"><path d="M64 117c-.64 0-1.19-.451-1.316-1.079L58.5 95l4.184-20.921a1.342 1.342 0 1 1 2.632 0L69.5 95l-4.184 20.921A1.342 1.342 0 0 1 64 117z"/><path d="M42 95c0 .64.451 1.19 1.079 1.316L64 100.5l20.921-4.184a1.342 1.342 0 1 0 0-2.632L64 89.5l-20.921 4.184A1.342 1.342 0 0 0 42 95z"/></g><g><defs><path id="SVGID_1_" d="M88 40.489c0 1.931-1.174 4.568-2.61 5.86L70.61 59.651C69.174 60.943 66.42 62 64.489 62h-.978c-1.931 0-4.685-1.057-6.121-2.349L42.61 46.349C41.174 45.057 40 42.42 40 40.489V4h48v36.489z"/></defs><clipPath id="SVGID_2_"><use xlink:href="#SVGID_1_" overflow="visible"/></clipPath><g clip-path="url(#SVGID_2_)" fill-rule="evenodd" clip-rule="evenodd" fill="#006ca2"><path d="M35-2h14v61H35z"/><path d="M79-2h14v61H79z"/></g></g><g><defs><path id="SVGID_3_" d="M88 40.489c0 1.931-1.174 4.568-2.61 5.86L70.61 59.651C69.174 60.943 66.42 62 64.489 62h-.978c-1.931 0-4.685-1.057-6.121-2.349L42.61 46.349C41.174 45.057 40 42.42 40 40.489V4h48v36.489z"/></defs><clipPath id="SVGID_4_"><use xlink:href="#SVGID_3_" overflow="visible"/></clipPath><g clip-path="url(#SVGID_4_)" fill-rule="evenodd" clip-rule="evenodd" fill="#fff"><path d="M49 4l-.009 48.662 4.438 3.994V4z"/><path d="M78.993 4l.009 49.092-4.438 3.994V4z"/></g></g></svg>