<svg id="レイヤー_1" xmlns="http://www.w3.org/2000/svg" viewBox="0 0 128 128"><g><g><path d="M119.003 54.445c0 29.926-24.961 54.187-55.748 54.187S7.511 84.37 7.511 54.445 32.468.265 63.255.265c30.787.001 55.748 24.255 55.748 54.18z" fill="#fcc21b"/></g><path d="M78.207 12.781l-.244.008C65.439 13.995 55.15 20.013 45.9 26.34c-9.86 6.738-16.777 17.521-22.242 27.192-6.017 10.635-7.769 21.85-9.632 33.726l-.2 1.293c-.89 5.638-1.422 11.387-1.939 16.945l-.066.656c-.321 3.507-.319 7.11-.315 10.601v1.518l-.006 4.646c-.041 1.138-.036 2.061.369 2.688.568.879 1.508.879 1.813.879l.211-.008.169-1.103.066 1.103.219.008c2.176 0 3.02-.974 3.34-1.783.38-.958.254-1.94.143-2.81-.048-.362-.1-.716-.092-1.053.035-1.775-.024-3.594-.085-5.343-.096-2.681-.191-5.44.072-8.076.139-1.396.271-2.802.406-4.197.351-3.725.711-7.577 1.257-11.524a727.5 727.5 0 0 1 .884-6.197c.181-.284.346-.569.496-.828.616-1.068 1.388-2.008 2.133-2.887a96.299 96.299 0 0 1 5.732-6.215c.108-.111.215-.198.323-.31 1.297-.189 2.637-.276 3.956-.345l.534-.034c2.31-.13 4.629-.104 6.935.042 2.245.155 4.434.311 6.58.604 2.243.293 4.527.803 6.736 1.293l1.375.312c.365.076.728.155 1.09.155 1.107 0 1.543-.699 1.716-1.284.159-.536.11-1.035-.135-1.483-.564-1.026-2.017-1.448-2.978-1.725l-.37-.111c-2.026-.639-4.129-1.042-6.365-1.475-4.965-.939-9.408-1.206-13.571-.879a62.847 62.847 0 0 1 3.504-2.662c1.551-.303 3.193-.406 4.792-.493l.545-.034a56.202 56.202 0 0 1 6.928.045c2.124.137 4.387.301 6.58.602 2.271.303 4.586.82 6.823 1.312l1.288.292c.293.062.694.147 1.086.147 1.108 0 1.548-.69 1.72-1.276.155-.533.111-1.042-.134-1.49-.568-1.026-2.025-1.448-2.991-1.726l-.357-.103c-2.023-.646-4.129-1.043-6.364-1.473-3.91-.741-7.495-1.061-10.887-1.01 9.782-4.681 19.236-6.67 26.512-5.456l.328.036c1.236 0 2.086-1.14 2.189-2.224.104-1.079-.517-1.966-1.508-2.164a35.325 35.325 0 0 0-6.796-.646c-8.471 0-16.786 2.956-23.802 5.853-4.535 1.878-9.037 4.757-13.752 8.799-1.979 1.698-3.981 3.596-6.136 5.793l-.841.853c-.28.285-.561.569-.846.862 1.135-4.957 2.612-9.79 4.819-14.505 2.499-5.345 5.426-10.334 8.619-14.774 1.711-.733 3.585-1.267 5.416-1.775l.574-.155a69.757 69.757 0 0 1 7.564-1.637c2.464-.397 4.872-.775 7.308-1.018 2.534-.251 5.158-.312 7.701-.37l1.5-.034c.84-.019 2.589-.061 2.745-1.775.047-.544-.104-1.026-.436-1.406-.819-.923-2.538-.981-3.673-1.016l-.43-.019c-2.357-.138-4.629-.026-7.253.104-5.986.303-11.176 1.208-15.864 2.706a60.467 60.467 0 0 1 3.172-3.25c1.87-.895 3.991-1.49 6.055-2.059l.574-.155a70.185 70.185 0 0 1 7.564-1.638c2.464-.396 4.873-.776 7.308-1.017 2.534-.25 5.159-.31 7.701-.371l1.5-.034c.841-.019 2.591-.062 2.745-1.776.048-.543-.103-1.025-.434-1.403-.819-.924-2.538-.984-3.672-1.019l-.431-.017c-2.357-.138-4.629-.024-7.253.104-4.37.225-8.301.775-11.942 1.628 6.542-4.482 15.234-9.092 24.383-10.17 1.44-.172 2.146-1.439 2.082-2.533-.069-1.167-.944-2.003-2.075-2.003z" fill="#f79329"/><path d="M77.431 83.329c-.062.369-.123.749-.123 1.137.004 4.129 3.448 7.422 7.649 7.43a7.679 7.679 0 0 0 6.572-3.696 7.681 7.681 0 0 0 6.572 3.696c.37 0 .728-.061 1.081-.103 2.345-.338 4.336-1.681 5.496-3.594a7.598 7.598 0 0 0 3.598 3.11c.918.38 1.923.586 2.974.586 4.198-.008 7.641-3.301 7.645-7.43-.004-2.171-.969-4.094-2.482-5.447a7.716 7.716 0 0 0-4.603-1.932c.315-.817.514-1.688.514-2.609 0-.406-.06-.794-.126-1.174-.565-3.422-3.498-6.008-7.089-6.213.064-.14.1-.285.151-.423.297-.794.491-1.646.491-2.543-.004-4.137-3.448-7.43-7.649-7.438-4.197.008-7.641 3.301-7.645 7.438 0 1.061.232 2.061.637 2.966-3.994.224-7.205 3.403-7.209 7.387 0 .61.096 1.188.232 1.749.073.293.168.578.275.86a7.37 7.37 0 0 0-1.517.259c-2.826.787-4.985 3.088-5.444 5.984z" fill="#fff"/><path d="M118.615 93.938H77.593c-1.034 0-1.88.845-1.88 1.879v7.207c0 .37.143.707.332 1 .337.507.888.871 1.548.871h3.779v20.969a1.88 1.88 0 0 0 1.876 1.871h6.248c1.029 0 1.874-.639 1.874-1.431 0-.786.845-1.432 1.879-1.432h9.709c1.034 0 1.88.646 1.88 1.432 0 .792.845 1.431 1.875 1.431h6.243c1.034 0 1.88-.845 1.88-1.871v-20.969h3.779c1.03 0 1.874-.847 1.874-1.871v-7.207a1.88 1.88 0 0 0-1.874-1.879zm-20.513 25.607a5.988 5.988 0 0 1-5.986-5.989c0-.905.216-1.76.573-2.524.953-2.045 3.013-3.467 5.413-3.467.617 0 1.197.121 1.758.293 2.443.76 4.232 3.01 4.232 5.698a5.989 5.989 0 0 1-5.99 5.989z" fill="#855c52"/></g></svg>