<svg id="レイヤー_1" xmlns="http://www.w3.org/2000/svg" viewBox="0 0 128 128"><g><path d="M69.659 119.467s-1.621.822-4.559.039l-9.24-2.135-.202-61.494L76.993 28.5l13.692 4.088 4.802 9.953-1.959 56.004-23.869 20.922z" fill="#2f2f2f"/><g><path d="M125.971 40.637c.009-.008.018-.004.025-.016 0 0-4.88-27.139-29.252-28.164-5.079-.213-8.942.608-11.867 1.805C82.135 7.197 73.718 1.965 66.325 2.619c-.591.053-1.166.141-1.737.266-3.019.68-7.104 2.334-9.472 4.363-1.541 1.316-2.98 2.85-4.07 4.562-.071.113-.227.4-.421.75-4.343-.732-8.668-1.092-12.859-.838-5.112.314-11.026 1.738-15.476 4.375-5.1 3.025-10.658 8.219-13.738 13.326C2.338 39.762 1.113 52.635.696 64.488c-.35 9.764-.292 19.469.642 29.199.358 3.732.454 7.732 1.9 11.254 2.333 5.697 8.676 8.113 13.951 10.264 7.071 2.883 14.417 4.859 21.676 7.201 4.775 1.547 9.643 3.449 14.745 2.949 2.031-.199 3.981-.963 5.34-2.566 3.077-3.635 1.684-10.279 1.55-14.646-.182-5.793-.375-11.588-.274-17.385.199-11.631 1.5-23.389 5.858-34.236 1.95-4.838 4.642-9.371 8.027-13.312 2.882-3.355 8.282-6.709 12.812-6.727 7.071-.033 6.013 7.844 5.521 14.068l-9.993 3.725s-10.367 3.025-13.4 8.293c-3.075 5.334-3.075 15.617-3.075 15.617s.025 32.906.025 37.219c0 6.16 5.125 3.609 5.125 3.609l27.802-13.842c15.426-6.768 24.568-23.818 27.502-39.711 1.216-6.592 1.796-16.293-.459-24.824zm-27.06 7.506c.066-5.73-.434-11.482-3.4-16.44l.066-.162c.275-1.441 1.051-2.357 2.051-2.975 4.725 2.225 8.796 4.791 10.773 9.734 3.294 8.236 2.669 17.771 1.961 22.842-1.15 8.227-5.601 18.145-11.435 24.389l-.009-37.393-.007.005z" fill="#ed6c30"/><path d="M77.159 20.307a371.071 371.071 0 0 0-8.963-3.133c1.005-2.129 3-4.191 5.363-4.396 3.112-.271 4.908 2.004 6.2 4.57-1.416 1.234-2.237 2.371-2.6 2.959z" fill="#fff"/><path d="M122.121 65.285c-2.259 13.533-10.067 27.256-23.193 34.678v-8.709c8.734-6.938 13.651-19.006 15.251-28.92 1.083-6.713.754-14.125-.675-20.801a22.894 22.894 0 0 0-.342-1.334c-1.309-4.549-3.996-8.154-7.842-10.783-.126-.205-.393-.408-.45-.607-.426-1.359 2.758-.859 4.642-.477h.009c.208.047.399.084.566.121 1.566.422 3.033 1.15 4.483 1.877 2.467 1.777 3.9 3.402 4.125 3.674 5.61 8.543 5.026 21.726 3.426 31.281z" fill="#fff"/></g><path d="M13.398 102.979c-.442.734-1.125 1.23-2.125 1.275-4.343.191-4.468-5.879-2.867-8.588.8-1.35 2.708-1.779 3.858-.584 1.538 1.606 2.3 5.959 1.134 7.897z" fill="#fff"/><path d="M49.887 115.404c-.479.801-1.225 1.34-2.309 1.389-4.729.213-4.862-6.396-3.121-9.338.876-1.467 2.95-1.938 4.194-.639 1.673 1.746 2.5 6.481 1.236 8.588z" fill="#fff"/><g fill="#fff"><path d="M28.682 26.307l-6.942-2.008a39.027 39.027 0 0 0-4.729 4.521l7.063 2.041c1.649-2.058 3.262-3.537 4.608-4.554z"/><path d="M20.681 36.121l-7.316-2.117c-3.336 6.133-4.884 13.342-5.63 20.789l7.88 2.279c.437-9.271 2.507-16.06 5.066-20.951z"/></g></g></svg>