<svg id="レイヤー_1" xmlns="http://www.w3.org/2000/svg" xmlns:xlink="http://www.w3.org/1999/xlink" viewBox="0 0 128 128"><g><g><path d="M58.255 83.078a2.075 2.075 0 0 1-2.059-1.895c-.832-9.967.969-22.207 2.56-33.006.542-3.668 1.066-7.219 1.47-10.557C62.221 21.199 72.44 2.217 72.867 1.418a2.064 2.064 0 0 1 2.804-.834 2.06 2.06 0 0 1 .832 2.805c-.097.185-10.268 19.1-12.173 34.734-.404 3.363-.938 6.953-1.479 10.66-1.563 10.574-3.328 22.563-2.533 32.053a2.063 2.063 0 0 1-1.885 2.232c-.057.004-.121.01-.178.01z" fill="#2f2f2f"/><g><defs><path id="SVGID_1_" d="M92.068 50.428c-1.964 12.451-14.96 13.371-30.706 10.889-15.749-2.489-27.419-9.919-25.862-19.819 2.659-16.834 13.377-29.127 33.094-26.014 19.725 3.114 26.132 18.112 23.474 34.944z"/></defs><use xlink:href="#SVGID_1_" overflow="visible" fill="#40c0e7"/><clipPath id="SVGID_2_"><use xlink:href="#SVGID_1_" overflow="visible"/></clipPath></g><g><g><path d="M87.392 48.74c-.582 6.482-5.801 9.449-11.817 10.041-.671.066-3.757.104-3.554-1.326.156-1.191 1.736-2.062 2.744-2.447 3.928-1.481 6.124-5.447 8.467-8.654.889-1.219 2.358-2.861 3.501-1.127.675 1.017.763 2.277.659 3.513z" fill="#006ca2"/></g></g><path d="M51.356 24.625c-1.114-.389-2.487.16-3.506.986-.67.547-1.284 1.16-1.824 1.84-1.592 2.008-2.739 4.332-3.797 6.654-.775 1.684-1.389 3.719-1.511 5.596-.057.934.363 2.436 1.199 2.961 1.773 1.113 3.688-2.783 4.294-3.846a116.574 116.574 0 0 1 3.215-5.408c1.273-2.006 4.572-4.838 3.323-7.443-.35-.731-.837-1.15-1.393-1.34z" fill="#fff"/><path d="M55.105 20.08c-.994.82-1.603 2.105-.844 3.301.383.602.996.977 1.691 1.133 1.365.31 3.069-.168 3.95-1.307.37-.48.562-1.08.509-1.691-.094-1.131-.921-1.863-1.956-2.125-.459-.113-.991-.188-1.453-.143-.637.061-1.332.373-1.897.832z" fill="#fff"/></g><path d="M66.243 127.668c-.388 0-.783-.111-1.122-.33-.969-.631-23.748-15.848-17.705-55.914.156-1.047 1.058-1.799 2.16-1.75l16.91.949a2.063 2.063 0 0 1 1.882 2.584c-.275 1.061-6.479 26.248 16.56 42.83a2.08 2.08 0 0 1 .848 1.887 2.061 2.061 0 0 1-1.212 1.678l-17.472 7.883c-.267.124-.56.183-.849.183z" fill="#f79329"/></g></svg>