<svg id="レイヤー_1" xmlns="http://www.w3.org/2000/svg" viewBox="0 0 128 128"><path d="M96.091 115.155c0 5.349-3.516 12.845-9.41 12.845H44.41c-5.894 0-9.41-7.496-9.41-12.845V10.685C35 5.336 39.778 0 45.672 0H85.42c5.894 0 10.672 5.336 10.672 10.685v104.47z" fill="#90a4ae"/><path d="M91.924 115.516c0 5.219-4.499 9.45-10.049 9.45H49.049c-5.55 0-10.049-4.231-10.049-9.45V9.45C39 4.231 43.499 0 49.049 0h32.826c5.55 0 10.049 4.231 10.049 9.45v106.066z" fill="#cfd8dc"/><path fill="#90a4ae" d="M61.465 11.945H69.5V112h-8.035z"/><path fill="#546e7a" d="M64.422 15.035h2.12v93.875h-2.12z"/><g fill="#546e7a"><path d="M48.534 13.354h7.748v2.611h-7.748z"/><path d="M48.534 25.232h7.748v2.611h-7.748z"/><path d="M48.534 37.111h7.748v2.611h-7.748z"/><path d="M48.534 48.99h7.748v2.611h-7.748z"/><path d="M48.534 60.868h7.748v2.611h-7.748z"/><path d="M48.534 72.747h7.748v2.611h-7.748z"/><path d="M48.534 84.626h7.748v2.611h-7.748z"/><path d="M48.534 96.505h7.748v2.611h-7.748z"/><path d="M48.534 108.383h7.748v2.611h-7.748z"/></g><g fill="#546e7a"><path d="M74.522 13.354h7.748v2.611h-7.748z"/><path d="M74.522 25.232h7.748v2.611h-7.748z"/><path d="M74.522 37.111h7.748v2.611h-7.748z"/><path d="M74.522 48.99h7.748v2.611h-7.748z"/><path d="M74.522 60.868h7.748v2.611h-7.748z"/><path d="M74.522 72.747h7.748v2.611h-7.748z"/><path d="M74.522 84.626h7.748v2.611h-7.748z"/><path d="M74.522 96.505h7.748v2.611h-7.748z"/><path d="M74.522 108.383h7.748v2.611h-7.748z"/></g><path d="M79.768 90.651c0 1.298-.867 2.349-1.937 2.349H53.134c-1.07 0-1.937-1.052-1.937-2.349v-7.249c0-1.298.867-2.349 1.937-2.349H77.83c1.07 0 1.937 1.052 1.937 2.349v7.249z" fill="#37474f"/><path d="M79.768 83.155c0 1.07-.867 0-1.937 0H53.134c-1.07 0-1.937 1.07-1.937 0v-.165c0-1.07.867-1.937 1.937-1.937H77.83c1.07 0 1.937.867 1.937 1.937v.165z" fill="#546e7a"/><path d="M43.5 111.083a1.75 1.75 0 0 1-3.5 0V13.695a1.75 1.75 0 0 1 3.5 0v97.388z" fill="#fff"/></svg>