<svg id="ticket_1_" xmlns="http://www.w3.org/2000/svg" viewBox="0 0 128 128"><path id="main-shape" d="M127.802 43.505V35c-4.95 0-9-4.05-9-9H9.198v.295C9.04 31.109 5.064 35 .213 35v8.505C3.731 44.73 6.278 48.078 6.278 52S3.732 59.27.213 60.495v9.009C3.731 70.73 6.278 74.078 6.278 78c0 3.922-2.546 7.27-6.065 8.495V95c4.872 0 8.829 3.873 8.985 8.707V104h109.603v-.007a9 9 0 0 1 9-8.993v-8.505c-3.518-1.225-6.065-4.574-6.065-8.495 0-3.922 2.546-7.27 6.065-8.495v-9.009c-3.518-1.225-6.065-4.574-6.065-8.495s2.548-7.271 6.066-8.496z" fill="#e06055"/><path id="inner-rectangle" d="M107.625 95.327h-87.25a2.884 2.884 0 0 1-2.875-2.875v-54.25a2.884 2.884 0 0 1 2.875-2.875h87.251a2.884 2.884 0 0 1 2.875 2.875v54.251a2.885 2.885 0 0 1-2.876 2.874z" fill="none" stroke="#db4437" stroke-width="4.947" stroke-miterlimit="10"/><path id="vert-line-left" fill="none" stroke="#db4437" stroke-width="4.947" stroke-miterlimit="10" d="M42.811 35.712v60"/><path id="vert-line-right" fill="none" stroke="#db4437" stroke-width="4.947" stroke-miterlimit="10" d="M84.76 35.327v60"/></svg>