<svg id="レイヤー_1" xmlns="http://www.w3.org/2000/svg" viewBox="0 0 128 128"><g><g><g><path fill="#2f2f2f" d="M17.405 46.726h91.558v40.526H17.405z"/><g fill="#006ca2"><path d="M17.405 65.601c9.765 4.26 19.661 8.644 29.307 13.223 6 2.852 11.588 4.242 17.092 4.242 4.013 0 8.015-.762 11.899-2.268 3.06-1.178 6.013-2.612 8.869-3.994 1.869-.903 3.635-1.762 5.438-2.55 2.006-.886 4.02-1.79 6.026-2.684 3.481-1.568 6.952-3.153 10.429-4.738.835-.381 1.661-.752 2.498-1.133V81.33c0 3.49.079 6.988 0 10.478-.266 11.576-13.918 13.533-25.516 14.711-17.505 1.78-38.933 2.772-55.653-2.383-4.499-1.391-7.226-3.853-8.851-6.882-3.75-7.014-1.537-17.084-1.537-23.938l-.001-7.715z"/><path d="M.587 47.083a8.655 8.655 0 0 1 .824-1.498c1.134-1.665 2.816-2.966 4.534-3.985.772-.461 1.559-.956 2.373-1.319 4.677-2.09 9.429-4.438 14.104-6.696C33.267 28.351 44.063 22.949 55.448 19a20.656 20.656 0 0 1 6.802-1.143c5.859 0 11.496 2.356 17.097 4.897 9.317 4.233 18.647 8.449 27.96 12.674 4.853 2.196 9.963 4.1 14.666 6.642 2.551 1.382 6.411 3.685 5.774 7.475-.43 2.613-3.229 3.712-5.372 4.667-3.232 1.435-6.469 2.861-9.692 4.313-1.236.559-2.48 1.125-3.72 1.692-4.99 2.268-9.973 4.553-14.972 6.793a875.942 875.942 0 0 1-6.005 2.674c-4.698 2.073-9.312 4.614-14.086 6.466-3.423 1.319-6.775 1.922-10.097 1.922-5.03 0-9.976-1.391-14.952-3.756-10.403-4.942-20.901-9.574-31.446-14.152-2.714-1.186-5.429-2.355-8.142-3.534-3.645-1.577-10.854-4.216-8.676-9.547z"/></g></g></g><path d="M125.764 104.806s-.085 2.38.358 5.473c0 0-7.741 1.495-13.449-3.358 0 0 .066-2.178.398-3.1l12.693.985z" fill="#ed6c30"/><path d="M125.75 103.256a22.324 22.324 0 0 0-.169-2.028c-.243-1.727-.854-3.207-2.075-4.464a3.215 3.215 0 0 0-1.144-.744V82.382 55.018h-5.168v5.155c-.021.54-.013 1.063 0 1.554v4.863h.031c.005.52 0 1.04.009 1.561.035 4.411-.035 8.812-.088 13.223-.018.903-.027 1.815-.027 2.719v11.85c-.787.292-1.47.806-2.019 1.691-.646 1.062-1.045 2.268-1.382 3.463-.169.593-.648 2.726-.648 2.726s-.088.814.727 1.187c1.17.54 3.897 1.417 8.706.94a8.816 8.816 0 0 0 1.86-.381c.46-.141 1.178-.291 1.399-.762.151-.32.002-1.25-.012-1.551z" fill="#f79329"/><path d="M110.362 115.77c.709-1.469 1.203-3.038 1.566-4.622.188-.789.744-4.227.744-4.227s1.691 1.488 6.626 1.791c4.064.25 6.584-.539 6.584-.539s.743 3.14.784 7.154c.026 2.446-.319 4.809-1.25 7.067-.291.708-.619 1.461-1.195 1.983-.442.408-1.435.611-1.975.248-.372-.256-.203-.531-.266-.895-.151-.877-.823.018-1.071.346-.434.584-.531 1.054-1.275 1.275-1.086.319-2.958.637-3.632-.576-.238-.434.115-.762-.504-.77-.297 0-.691.531-.887.717-.405.39-.858.496-1.416.443-.912-.071-2.232-.541-2.443-1.559-.086-.345.477-1.107-.258-1.072-.7.027-1.07.886-1.918.824-.73-.053-1.277-.584-1.51-1.258-.398-1.222.603-2.594 1.355-3.463.782-.91 1.418-1.787 1.941-2.867z" fill="#f79329"/><path d="M120.131 57.188c-.16 0-.318-.016-.48-.051L62.968 44.809a2.267 2.267 0 0 1-1.732-2.699 2.261 2.261 0 0 1 2.697-1.734l56.681 12.329a2.267 2.267 0 0 1-.483 4.483z" fill="#f79329"/></g></svg>