<svg id="レイヤー_1" xmlns="http://www.w3.org/2000/svg" xmlns:xlink="http://www.w3.org/1999/xlink" viewBox="0 0 128 128"><path d="M83.398 124.769c0 3.185-3.589 3.329-8.017 3.329h-1.163c-4.428 0-8.017-.145-8.017-3.329v-24.416c0-3.185 3.589-5.767 8.017-5.767h1.163c4.428 0 8.017 2.582 8.017 5.767v24.416z" fill="#455a64"/><g><defs><path id="SVGID_1_" d="M83.398 124.769c0 3.185-3.589 3.329-8.017 3.329h-1.163c-4.428 0-8.017-.145-8.017-3.329v-24.416c0-3.185 3.589-5.767 8.017-5.767h1.163c4.428 0 8.017 2.582 8.017 5.767v24.416z"/></defs><clipPath id="SVGID_2_"><use xlink:href="#SVGID_1_" overflow="visible"/></clipPath><path clip-path="url(#SVGID_2_)" fill="#37474f" d="M65.782 95.465h7.217v32.633h-7.217z"/><path d="M80.869 129.931a2.132 2.132 0 1 1-4.265.005l-.056-28.941a2.132 2.132 0 1 1 4.265-.005l.056 28.941z" clip-path="url(#SVGID_2_)" fill="#cfd8dc"/></g><g><path transform="rotate(-12.727 73.667 93.664)" fill="#546e7a" d="M64.941 85.266h17.416v16.756H64.941z"/><ellipse transform="rotate(-12.727 82.163 91.745)" cx="82.143" cy="91.726" rx="3.732" ry="8.378" fill="#546e7a"/><ellipse transform="rotate(-12.727 65.171 95.583)" cx="65.155" cy="95.563" rx="3.732" ry="8.378" fill="#546e7a"/><ellipse transform="rotate(-12.727 65.171 95.583)" cx="65.155" cy="95.563" rx="1.485" ry="5.027" fill="#37474f"/><g><defs><path id="SVGID_3_" transform="rotate(-12.727 74.417 88.686)" d="M60.156 82.034h28.486v13.268H60.156z"/></defs><clipPath id="SVGID_4_"><use xlink:href="#SVGID_3_" overflow="visible"/></clipPath><path d="M80.26 83.562L63.271 87.4c2.01-.454 4.467 2.836 5.486 7.35 1.02 4.513.216 8.54-1.794 8.995l16.988-3.838c2.01-.454 2.814-4.481 1.794-8.995-1.019-4.514-3.475-7.804-5.485-7.35z" clip-path="url(#SVGID_4_)" fill="#455a64"/></g></g><g><path d="M95.05 58.131c4.228 13.993-3.664 26.024-16.705 29.965l-5.51 1.665c-13.041 3.94-26.295-1.703-30.522-15.696L29.836 32.769c-4.228-13.993 3.66-26.023 16.702-29.964l5.51-1.665C65.089-2.8 78.346 2.842 82.573 16.835L95.05 58.131z" fill="#b0bec5"/><g><defs><path id="SVGID_5_" d="M95.058 58.132c4.229 13.996-3.662 26.029-16.704 29.969l-5.51 1.665c-13.041 3.94-26.295-1.704-30.524-15.7L29.841 32.762C25.613 18.766 33.5 6.734 46.542 2.793l5.51-1.665c13.041-3.94 26.298 1.703 30.527 15.699l12.479 41.305z"/></defs><clipPath id="SVGID_6_"><use xlink:href="#SVGID_5_" overflow="visible"/></clipPath></g><g><defs><path id="SVGID_7_" d="M95.05 58.131c4.228 13.993-3.664 26.024-16.705 29.965l-5.51 1.665c-13.041 3.94-26.295-1.703-30.522-15.696L29.836 32.769c-4.228-13.993 3.66-26.023 16.702-29.964l5.51-1.665C65.089-2.8 78.346 2.842 82.573 16.835L95.05 58.131z"/></defs><clipPath id="SVGID_8_"><use xlink:href="#SVGID_7_" overflow="visible"/></clipPath><g clip-path="url(#SVGID_8_)"><path d="M74.726 61.541c7.083 23.443 5.51 32.877-5.296 36.142l-3.465 1.047c-8.202 2.478-18.648-8.106-24.407-27.168l-11.01-36.439c-5.26-17.408-2.09-30.936 6.113-33.415L40.126.661c8.202-2.478 16.44.774 23.591 24.44l11.009 36.44z" fill="#90a4ae"/></g></g><path d="M66.557 21.581a2.132 2.132 0 0 1-1.425 2.658l-22.748 6.873a2.132 2.132 0 1 1-1.233-4.083l22.748-6.873a2.134 2.134 0 0 1 2.658 1.425z" fill="#455a64"/><path d="M70.171 33.542a2.132 2.132 0 0 1-1.425 2.658l-22.748 6.873a2.132 2.132 0 1 1-1.233-4.083l22.748-6.873a2.134 2.134 0 0 1 2.658 1.425z" fill="#455a64"/><path d="M73.785 45.503a2.132 2.132 0 0 1-1.425 2.658l-22.748 6.873a2.132 2.132 0 1 1-1.233-4.083l22.748-6.873a2.134 2.134 0 0 1 2.658 1.425z" fill="#455a64"/><path d="M77.398 57.465a2.132 2.132 0 0 1-1.425 2.658l-22.748 6.873a2.132 2.132 0 1 1-1.233-4.083L74.74 56.04a2.131 2.131 0 0 1 2.658 1.425z" fill="#455a64"/><path d="M81.012 69.426a2.132 2.132 0 0 1-1.425 2.658L56.84 78.957a2.132 2.132 0 1 1-1.233-4.083l22.748-6.873a2.131 2.131 0 0 1 2.657 1.425z" fill="#455a64"/><g><defs><path id="SVGID_9_" d="M95.049 58.128c4.228 13.994-3.663 26.027-16.704 29.967l-5.51 1.665C59.794 93.7 46.54 88.056 42.312 74.062l-12.478-41.3c-4.228-13.994 3.66-26.026 16.701-29.966l5.51-1.665c13.041-3.94 26.298 1.703 30.526 15.697l12.478 41.3z"/></defs><clipPath id="SVGID_10_"><use xlink:href="#SVGID_9_" overflow="visible"/></clipPath><path d="M101.835 6.275a2.132 2.132 0 0 1-.951 2.862L79.639 19.785a2.132 2.132 0 1 1-1.911-3.813L98.972 5.324a2.133 2.133 0 0 1 2.863.951z" clip-path="url(#SVGID_10_)" fill="#455a64"/><path d="M105.36 18.065a2.132 2.132 0 0 1-.951 2.862L83.165 31.575a2.132 2.132 0 1 1-1.911-3.813l21.244-10.648a2.133 2.133 0 0 1 2.862.951z" clip-path="url(#SVGID_10_)" fill="#455a64"/><path d="M108.886 29.856a2.132 2.132 0 0 1-.951 2.862L86.691 43.366a2.132 2.132 0 1 1-1.911-3.813l21.244-10.648a2.132 2.132 0 0 1 2.862.951z" clip-path="url(#SVGID_10_)" fill="#455a64"/><path d="M112.412 41.646a2.132 2.132 0 0 1-.951 2.862L90.217 55.156a2.132 2.132 0 1 1-1.911-3.813l21.244-10.648a2.133 2.133 0 0 1 2.862.951z" clip-path="url(#SVGID_10_)" fill="#455a64"/><path d="M115.938 53.437a2.132 2.132 0 0 1-.951 2.862L93.742 66.947a2.132 2.132 0 1 1-1.911-3.813l21.244-10.648a2.133 2.133 0 0 1 2.863.951z" clip-path="url(#SVGID_10_)" fill="#455a64"/></g><g><defs><path id="SVGID_11_" d="M95.061 58.125c4.228 13.994-3.663 26.027-16.704 29.967l-5.51 1.665c-13.041 3.94-26.295-1.704-30.523-15.698l-12.478-41.3c-4.228-13.994 3.66-26.026 16.701-29.966l5.51-1.665c13.041-3.94 26.298 1.703 30.526 15.697l12.478 41.3z"/></defs><clipPath id="SVGID_12_"><use xlink:href="#SVGID_11_" overflow="visible"/></clipPath><path d="M34.685 31.475a2.132 2.132 0 0 1-1.676 2.507L9.702 38.614a2.132 2.132 0 1 1-.831-4.183L32.179 29.8a2.13 2.13 0 0 1 2.506 1.675z" clip-path="url(#SVGID_12_)" fill="#455a64"/><path d="M38.249 43.393a2.132 2.132 0 0 1-1.676 2.507l-23.308 4.631a2.132 2.132 0 1 1-.831-4.183l23.308-4.631a2.133 2.133 0 0 1 2.507 1.676z" clip-path="url(#SVGID_12_)" fill="#455a64"/><path d="M41.813 55.311a2.132 2.132 0 0 1-1.676 2.507L16.829 62.45a2.132 2.132 0 1 1-.831-4.183l23.308-4.631a2.131 2.131 0 0 1 2.507 1.675z" clip-path="url(#SVGID_12_)" fill="#455a64"/><path d="M45.377 67.23a2.132 2.132 0 0 1-1.676 2.507l-23.308 4.631a2.132 2.132 0 1 1-.831-4.183l23.308-4.631a2.131 2.131 0 0 1 2.507 1.676z" clip-path="url(#SVGID_12_)" fill="#455a64"/><path d="M48.941 79.148a2.132 2.132 0 0 1-1.676 2.507l-23.308 4.631a2.132 2.132 0 1 1-.831-4.183l23.308-4.631a2.131 2.131 0 0 1 2.507 1.676z" clip-path="url(#SVGID_12_)" fill="#455a64"/></g><path d="M85.744 58.751a2.132 2.132 0 1 1-4.083 1.233L69.766 20.615a2.132 2.132 0 1 1 4.083-1.233l11.895 39.369z" fill="#fff"/><path d="M88.286 67.223a2.125 2.125 0 0 1-4.067 1.229 2.125 2.125 0 0 1 4.067-1.229z" fill="#fff"/></g></svg>