<svg id="film" xmlns="http://www.w3.org/2000/svg" viewBox="0 0 128 128"><g><path fill="#424242" d="M0 21h128v86H0z"/><path d="M0 89h16a2 2 0 0 0 2-2V41a2 2 0 0 0-2-2H0v50z" fill="#858a93"/><path d="M112 89h16V39h-16a2 2 0 0 0-2 2v46a2 2 0 0 0 2 2z" fill="#858a93"/><path d="M27.964 89h72.072a1.924 1.924 0 0 0 1.924-1.924V40.924A1.924 1.924 0 0 0 100.036 39H27.964a1.924 1.924 0 0 0-1.924 1.924v46.151c0 1.063.861 1.925 1.924 1.925z" fill="#858a93"/><g fill="#858a93"><path d="M7 33.944H1c-.55 0-1-.45-1-1v-6c0-.55.45-1 1-1h6c.55 0 1 .45 1 1v6c0 .55-.45 1-1 1z"/><path d="M24.143 33.944h-6c-.55 0-1-.45-1-1v-6c0-.55.45-1 1-1h6c.55 0 1 .45 1 1v6c0 .55-.45 1-1 1z"/><path d="M41.286 33.944h-6c-.55 0-1-.45-1-1v-6c0-.55.45-1 1-1h6c.55 0 1 .45 1 1v6c0 .55-.45 1-1 1z"/><path d="M75.571 33.944h-6c-.55 0-1-.45-1-1v-6c0-.55.45-1 1-1h6c.55 0 1 .45 1 1v6c0 .55-.45 1-1 1z"/><path d="M58.429 33.944h-6c-.55 0-1-.45-1-1v-6c0-.55.45-1 1-1h6c.55 0 1 .45 1 1v6c0 .55-.45 1-1 1z"/><path d="M92.714 33.944h-6c-.55 0-1-.45-1-1v-6c0-.55.45-1 1-1h6c.55 0 1 .45 1 1v6c0 .55-.45 1-1 1z"/><path d="M109.857 33.944h-6c-.55 0-1-.45-1-1v-6c0-.55.45-1 1-1h6c.55 0 1 .45 1 1v6c0 .55-.45 1-1 1z"/><path d="M127 33.944h-6c-.55 0-1-.45-1-1v-6c0-.55.45-1 1-1h6c.55 0 1 .45 1 1v6c0 .55-.45 1-1 1z"/></g><g fill="#858a93"><path d="M7 102H1c-.55 0-1-.45-1-1v-6c0-.55.45-1 1-1h6c.55 0 1 .45 1 1v6c0 .55-.45 1-1 1z"/><path d="M24.143 102h-6c-.55 0-1-.45-1-1v-6c0-.55.45-1 1-1h6c.55 0 1 .45 1 1v6c0 .55-.45 1-1 1z"/><path d="M41.286 102h-6c-.55 0-1-.45-1-1v-6c0-.55.45-1 1-1h6c.55 0 1 .45 1 1v6c0 .55-.45 1-1 1z"/><path d="M75.571 102h-6c-.55 0-1-.45-1-1v-6c0-.55.45-1 1-1h6c.55 0 1 .45 1 1v6c0 .55-.45 1-1 1z"/><path d="M58.429 102h-6c-.55 0-1-.45-1-1v-6c0-.55.45-1 1-1h6c.55 0 1 .45 1 1v6c0 .55-.45 1-1 1z"/><path d="M92.714 102h-6c-.55 0-1-.45-1-1v-6c0-.55.45-1 1-1h6c.55 0 1 .45 1 1v6c0 .55-.45 1-1 1z"/><path d="M109.857 102h-6c-.55 0-1-.45-1-1v-6c0-.55.45-1 1-1h6c.55 0 1 .45 1 1v6c0 .55-.45 1-1 1z"/><path d="M127 102h-6c-.55 0-1-.45-1-1v-6c0-.55.45-1 1-1h6c.55 0 1 .45 1 1v6c0 .55-.45 1-1 1z"/></g></g></svg>