<svg id="レイヤー_1" xmlns="http://www.w3.org/2000/svg" xmlns:xlink="http://www.w3.org/1999/xlink" viewBox="0 0 128 128"><g><g><g><g><defs><path id="SVGID_1_" d="M96.382 87.239c8.309 15.172-1.559 35.344-19.043 37.419-4.892.583-11.676-.296-16.139-2.45-9.521-4.592-14.146-17.272-12.321-27.022 4.133-22.118 35.564-28.265 47.187-8.505.107.183.211.371.316.558z"/></defs><defs><path id="SVGID_2_" d="M74.187 127.058c-4.974 0-10.312-1.091-13.957-2.845-10.793-5.209-15.426-19.335-13.534-29.439 2.733-14.601 16.192-22.239 28.076-22.239 9.885 0 18.344 4.746 23.21 13.022l.301.529c4.383 7.996 4.395 17.701.1 26.043-4.217 8.184-11.988 13.693-20.785 14.738a29.516 29.516 0 0 1-3.411.191zm.584-50.082c-10.05 0-21.418 6.396-23.705 18.618-1.59 8.492 2.191 20.318 11.097 24.614 3.075 1.483 7.684 2.404 12.023 2.404a25.03 25.03 0 0 0 2.886-.158c7.442-.884 13.767-5.388 17.355-12.359 3.625-7.03 3.625-15.176.006-21.789l-.277-.492c-4.05-6.888-11.117-10.838-19.385-10.838z"/></defs><use xlink:href="#SVGID_1_" overflow="visible" fill="#78a3ad"/><use xlink:href="#SVGID_2_" overflow="visible" fill="#2f2f2f"/><clipPath id="SVGID_3_"><use xlink:href="#SVGID_1_" overflow="visible"/></clipPath><clipPath id="SVGID_4_" clip-path="url(#SVGID_3_)"><use xlink:href="#SVGID_2_" overflow="visible"/></clipPath></g><path d="M99.268 69.421S96.351 79.784 85.914 89.41l12.687 7.583s8.032-9.242 13.299-22.047l-12.632-5.525z" fill="#2f2f2f"/><path d="M121.684 42.197L108.883 9.84a2.629 2.629 0 0 0-.667-.979c-.384-.354-10.115-9.121-28.402-8.05-13.434.804-22.16 6.204-28.264 10.817-5.521 4.171-6.955 5.73-10.28 9.626-1.717 2.004-2.604 3.8-2.783 5.646-.163 1.679.241 4.188 3.066 6.604l.209.183c1.642 1.409 3.717 3.246 7.408 2.638 2.217-.358 4.334-2.525 7.567-6.046.93-1.013 1.809-1.971 2.384-2.475 3.134-2.759 6.375-5.613 14.059-7.813 1.325-.379 5.9-1.542 9.326-1.542 5.767 0 9.659.987 13.734 4.467 9.792 8.367 8.45 20.656 6.492 26.168-.358.992-.09 2.1.666 2.83a2.682 2.682 0 0 0 2.869.528l13.962-6.8a2.658 2.658 0 0 0 1.455-3.445z" fill="#2f2f2f"/><path d="M5.812 65.309C6.71 57.706 12.119 49.86 18.01 45.26c7.484-5.833 22.894-2.809 31.452 1.309-4-7.067-12.639-11.113-17.755-12.213l-.621-.125a24.21 24.21 0 0 0-4.316-.392c-7.514 0-14.697 3.425-19.708 9.4-5.165 6.155-7.215 14.039-5.773 22.199.758 4.305 3.204 9.376 6.121 12.889-1.813-3.96-2.126-8.556-1.598-13.018z" fill="#78a3ad"/><path d="M99.018 96.661c4.302 11.663-4.503 25.914-16.862 26.389-3.458.129-8.092-.925-10.98-2.775-6.171-3.954-8.163-13.572-5.946-20.63 5.009-16.03 27.454-18.66 33.615-3.417.057.145.112.287.173.433z" fill="#2f2f2f"/><path d="M44.753 42.413c-8.634-4.342-19.142-3.075-26.743 2.846-5.892 4.6-11.301 12.447-12.198 20.049-.751 6.396.144 13.105 4.835 17.743 3.555 3.513 8.415 5.509 13.401 6.017 2.504.254 5.167.212 7.63-.329 6.4-1.4 13.084-7.617 17.084-12.605.316-.396.617-.8.908-1.221 6.684-9.671 7.101-26.449-4.917-32.5zM40.81 65.854c-.948 2.487-3.024 5.208-5.007 6.955-3.425 3.013-9.017 4.196-12.718.938-2.054-1.809-2.575-4.517-2.225-7.163.201-1.529.691-3.04 1.342-4.335 1.2-2.367 3.783-4.859 5.958-6.313 4.192-2.8 10.176-2.65 12.46 2.471.887 1.999.971 5.404.19 7.447z" fill="#2f2f2f"/><path d="M45.991 37.234c2.129-2.271 3.475-3 3.504-3.763.033-.746-1.57-1.738-2.025-2.238-.517-.567-1.133-.929-1.699-1.442-.608-.55-1.217-1.154-1.904-1.604-.938-.617-1.404-1.246-2.571-.771-1.025.417-1.717 1.25-2.442 2.05-1.6 1.762-3 3.721-4.342 5.684-.104.146-1.649 2.583-1.149 2.717.091.025-.567.3 2.233 1.5 2.633 1.129 6.763 2.583 7.025 2.438.678-.367 1.399-2.471 3.37-4.571z" fill="#2f2f2f"/><path d="M48.896 119.258c3.779 3.83 8.123 6.175 13.509 7.271 7.251 1.476 11.526.504 11.526.504s-6.105-4.754-7.776-5.142c-8.55-1.967-10.434-7.463-11.783-13.355-1.196-5.221.116-13.143 4.147-19.114 3.878-5.742 11.97-12.942 24.221-10.626 2.7.508 3.441.879 3.441.879s8.517-1.334 3.063-5.805c-7.355-6.042-19.723-7.667-30.323-1.929-4.346 2.35-8.426 6.417-10.734 9.226-2.774 3.379-4.958 8.821-5.767 13.363-2.217 12.365 1.825 20.023 6.476 24.728z" fill="#2f2f2f"/><path d="M89.606 74.184s4.167 3.175 5.05 8.33h-3.45l-3.809-4.633 2.209-3.697z" fill="#2f2f2f"/></g></g><path d="M125.55 33.921C120.894 16.353 104.365.652 84.44.652c-.917 0-2.217.017-3.292.096-.842.054-3.375.221-3.375.221s3.809.017 7.688 1.33c8.672 2.933 13.63 7.629 16.141 13.288 3.648 8.259 4.382 13.33 3.25 24.327-.561 5.388-3.769 14.088-5.902 18.289-.967 1.904-1.883 3.705-2.483 5.326-1.037 2.79-.945 6.698 1.588 9.136 2.112 2.025 8.921 5.146 13.007 6.751a7.63 7.63 0 0 0 2.777.513c2.567 0 4.597-1.626 5.625-3.621 6.315-12.264 10.003-27.607 6.086-42.387z" fill="#78a3ad"/></g></svg>