<svg id="レイヤー_1" xmlns="http://www.w3.org/2000/svg" xmlns:xlink="http://www.w3.org/1999/xlink" viewBox="0 0 128 128"><g><g><defs><path id="SVGID_1_" d="M117.924 80.572c-.806-1.884-2.294-3.677-4.387-4.779a12.815 12.815 0 0 0-6.083-1.54c-2.56.004-4.956.735-7.159 1.794-1.565.762-3.035 1.706-4.442 2.737.186-16.578 1.492-31.716 2.81-42.937v-.005c.326-2.156.622-4.358.831-6.6.413-3.096.802-5.729 1.12-7.789.178-1.091.323-2.002.45-2.77.309-.898.499-1.842.499-2.819l-.01-.308v-.114h-.013.013a8.799 8.799 0 0 0-1.216-3.999c-1.229-2.098-3.105-3.705-5.379-5.066-3.413-2.024-7.812-3.514-12.968-4.562C76.842.78 70.936.212 64.613.212c-1.78 0-3.601.046-5.442.136C48.395.899 38.707 2.933 31.46 5.942c-3.632 1.517-6.665 3.264-8.972 5.371-1.145 1.057-2.115 2.22-2.836 3.531-.705 1.308-1.141 2.796-1.141 4.344l.011.423c.017.236.049.467.08.699a3.183 3.183 0 0 0 .269 2.147c.021.081.05.195.076.309.073.358.155.817.21 1.198l.092.503.021.191.05.232v.013a251.013 251.013 0 0 1 1.762 8.92c1.871 10.327 3.586 20.613 4.121 30.872.174 3.34.328 6.414.455 9.26-.127.126-.227.258-.391.386-1.326 1.008-2.805 1.925-4.372 2.987-1.561 1.062-3.209 2.278-4.761 3.913-4.647 4.875-7.127 11.022-7.118 17.395 0 3.045.554 6.133 1.662 9.156 1.452 3.976 4.035 7.294 7.086 9.891 4.375 3.723 9.61 6.042 14.793 7.563a59.976 59.976 0 0 0 8.638 1.829c1.603.218 3.024.287 4.259.45h.013c.354.05.699.063 1.018.063.18 0 .33-.013.499-.022.218.05.437.077.662.077 2.279.019 4.698.141 7.21.145 1.324 0 2.682-.036 4.058-.15 14.106-1.184 30.145-5.769 42.74-15.061 3.755-2.782 7.428-6.064 10.417-9.542 2.975-3.491 5.334-7.118 6.226-10.994.381-1.744.689-3.705.689-5.747-.002-1.872-.251-3.829-1.062-5.722z"/></defs><use xlink:href="#SVGID_1_" overflow="visible" fill="#2f2f2f"/><clipPath id="SVGID_2_"><use xlink:href="#SVGID_1_" overflow="visible"/></clipPath><path d="M32.557 125.244c8.25 2.659 14.058 6.532 23.736-2.765 7.394-7.09 18.353-20.472 18.353-20.472s10.398-15.012 21.207-23.223l13.123-7.436s5.81-1.162 9.296 3.101c3.485 4.257 3.876 17.43 3.876 17.43s-10.458 19.365-11.239 20.527c-.771 1.162-21.099 15.188-30.984 17.045-30.986 5.81-47.368-4.207-47.368-4.207z" clip-path="url(#SVGID_2_)" fill="#006ca2"/></g><path d="M41.032 34.499c2.109 16.328 2.809 32.793 3.444 49.233.036.877.041 1.789.063 2.701a35.733 35.733 0 0 1-3.898-.789c-2.738-.74-5.656-1.484-8.062-3.055-.05-.032-.096-.063-.154-.094a688.16 688.16 0 0 0-.268-6.928c-.146-3.377-.318-7.09-.535-11.207-.564-10.749-2.333-21.298-4.217-31.679-.191-1.049-.414-2.093-.619-3.142.312.159.605.331.927.482 2.956 1.352 6.441 2.415 10.371 3.214.919.187 1.891.336 2.854.491.035.255.067.514.094.773z" fill="#fff"/><path d="M32.783 98.947c-.009-2.429-.05-6.219-.204-11.63.667.341 1.398.563 2.098.817a49.28 49.28 0 0 0 8.185 2.188c.799.146 1.606.246 2.415.337.258.031.53.058.807.085 3.042.508 6.155.863 9.298.976.017 0 .045.005.067.005 1.771.062 3.545.054 5.311-.019.178-.004.346-.018.522-.022a68.9 68.9 0 0 0 4.966-.409c.101-.013.187-.018.29-.032a63.436 63.436 0 0 0 4.903-.817c.309-.063.616-.132.926-.2a59.733 59.733 0 0 0 4.431-1.158c.104-.037.228-.063.33-.095a52.471 52.471 0 0 0 4.391-1.63c.335-.14.672-.285 1.007-.435 1.417-.636 2.815-1.312 4.136-2.079a32.575 32.575 0 0 0 2.237-1.417c.146-.095.272-.231.404-.335a.658.658 0 0 0 .082-.068c0 .472.03.962.03 1.439-.047.04-.08.082-.122.118-1.629 1.648-3.094 3.218-4.279 4.449-3.74 3.908-7.055 8.52-10.367 12.991-1.599.304-3.179.554-4.685.785a85.233 85.233 0 0 1-21.127.562c-5.184-.512-11.247-1.338-15.751-4.181-.105-.062-.2-.152-.301-.225z" fill="#d7598b"/></g></svg>