<svg id="レイヤー_1" xmlns="http://www.w3.org/2000/svg" viewBox="0 0 128 128"><g><g><g><g fill="#2f2f2f"><path d="M64.007 104.524c-28.678 0-52.004-23.326-52.004-52s23.326-52 52.004-52c28.669 0 52 23.326 52 52s-23.331 52-52 52zm0-99.371c-26.12 0-47.376 21.251-47.376 47.371s21.256 47.371 47.376 47.371c26.12 0 47.371-21.251 47.371-47.371S90.127 5.153 64.007 5.153z"/><path d="M64.007 75.721c-12.797 0-23.206-10.406-23.206-23.196 0-12.792 10.409-23.201 23.206-23.201 12.793 0 23.197 10.409 23.197 23.201 0 12.789-10.404 23.196-23.197 23.196zm0-41.769c-10.248 0-18.577 8.33-18.577 18.572 0 10.239 8.329 18.568 18.577 18.568 10.239 0 18.568-8.329 18.568-18.568 0-10.242-8.329-18.572-18.568-18.572z"/><path d="M64.007 59.891c-4.062 0-7.369-3.304-7.369-7.366 0-4.062 3.308-7.365 7.369-7.365 4.063 0 7.369 3.304 7.369 7.365 0 4.062-3.307 7.366-7.369 7.366zm0-10.103a2.743 2.743 0 0 0-2.74 2.736 2.74 2.74 0 0 0 5.481 0 2.741 2.741 0 0 0-2.741-2.736z"/><g><path d="M64.007 54.839a2.316 2.316 0 0 1-2.316-2.314V2.839a2.315 2.315 0 0 1 4.629 0v49.685a2.315 2.315 0 0 1-2.313 2.315z"/><path d="M64.007 54.839c-.527 0-1.053-.18-1.49-.542a2.312 2.312 0 0 1-.286-3.261l31.941-38.059a2.314 2.314 0 0 1 3.544 2.978L65.773 54.013a2.29 2.29 0 0 1-1.766.826z"/><path d="M64.002 54.839a2.324 2.324 0 0 1-2.28-1.912 2.324 2.324 0 0 1 1.884-2.682l48.929-8.623a2.316 2.316 0 0 1 2.688 1.877 2.325 2.325 0 0 1-1.884 2.68L64.41 54.803c-.14.024-.278.036-.408.036z"/><path d="M107.031 79.687c-.398 0-.793-.101-1.161-.31L62.854 54.529A2.318 2.318 0 0 1 62 51.365a2.324 2.324 0 0 1 3.16-.845l43.027 24.849a2.314 2.314 0 0 1-1.156 4.318z"/><path d="M80.995 101.534a2.313 2.313 0 0 1-2.179-1.522L61.829 53.316a2.312 2.312 0 1 1 4.347-1.585l16.988 46.695a2.304 2.304 0 0 1-1.383 2.966c-.26.098-.527.142-.786.142z"/><path d="M47.001 101.526a2.312 2.312 0 0 1-2.177-3.106l17.005-46.689a2.317 2.317 0 0 1 2.968-1.381 2.312 2.312 0 0 1 1.379 2.966l-16.997 46.688a2.32 2.32 0 0 1-2.178 1.522z"/><path d="M20.97 79.677a2.312 2.312 0 0 1-1.156-4.319l43.04-24.837a2.306 2.306 0 0 1 3.152.849 2.308 2.308 0 0 1-.847 3.16L22.121 79.365a2.278 2.278 0 0 1-1.151.312z"/><path d="M64.007 54.839c-.134 0-.268-.012-.401-.036l-48.938-8.634a2.31 2.31 0 0 1-1.874-2.682 2.297 2.297 0 0 1 2.678-1.876l48.938 8.634a2.315 2.315 0 1 1-.403 4.594z"/><path d="M64.007 54.839c-.66 0-1.321-.281-1.776-.828L30.293 15.939a2.318 2.318 0 0 1 .291-3.259 2.311 2.311 0 0 1 3.261.286l31.929 38.071a2.31 2.31 0 0 1-.284 3.259 2.291 2.291 0 0 1-1.483.543z"/></g></g><g><g fill="#2f2f2f"><path d="M76.139 121.338H51.91a2.289 2.289 0 0 1-1.773-.832 2.298 2.298 0 0 1-.503-1.896l12.097-66.5a2.307 2.307 0 0 1 2.276-1.899c1.115 0 2.075.799 2.276 1.899l12.007 66.06c.106.263.17.553.17.854a2.317 2.317 0 0 1-2.321 2.314zm-21.46-4.628h18.647l-9.319-51.253-9.328 51.253z"/><g><path d="M51.91 119.024h24.184v6.437H51.91z"/><path d="M76.095 127.774H51.91a2.313 2.313 0 0 1-2.315-2.313v-6.437a2.313 2.313 0 0 1 2.315-2.314h24.185a2.315 2.315 0 0 1 2.315 2.314v6.437a2.315 2.315 0 0 1-2.315 2.313zm-21.871-4.628h19.558v-1.808H54.224v1.808z"/></g><path d="M69.885 87.175H58.124a2.318 2.318 0 0 1-2.317-2.314 2.317 2.317 0 0 1 2.317-2.314h11.761a2.31 2.31 0 0 1 2.313 2.314 2.311 2.311 0 0 1-2.313 2.314z"/></g></g></g></g><g><g><g><path d="M42.815 25.192c0 5.934-4.82 10.736-10.75 10.736-5.936 0-10.743-4.803-10.743-10.736 0-5.94 4.807-10.739 10.743-10.739 5.93 0 10.75 4.8 10.75 10.739z" fill="#d7598b"/></g><path d="M35.958 20.074c-2.648-1.785-6.779-1.707-8.695.974-.535.743-1.285 1.886-.892 2.845.312.756 1.225 1.031 1.949 1.186 1.42.293 10.949 1.111 9.825-2.228-.388-1.167-1.187-2.109-2.187-2.777z" fill="#40c0e7"/></g><g><g><path d="M74.746 10.964c0 5.934-4.816 10.737-10.739 10.737-5.941 0-10.747-4.803-10.747-10.737C53.26 5.026 58.066.226 64.007.226c5.923 0 10.739 4.799 10.739 10.738z" fill="#d7598b"/></g><path d="M67.899 5.847c-2.661-1.785-6.783-1.707-8.704.973-.531.744-1.276 1.887-.884 2.847.308.754 1.219 1.03 1.945 1.185 1.42.293 10.949 1.111 9.83-2.228-.393-1.168-1.188-2.109-2.187-2.777z" fill="#40c0e7"/></g><g><g><path d="M106.687 25.203c0 5.935-4.82 10.737-10.743 10.737-5.941 0-10.744-4.803-10.744-10.737a10.732 10.732 0 0 1 10.744-10.739c5.922 0 10.743 4.801 10.743 10.739z" fill="#d7598b"/></g><path d="M99.835 20.086c-2.655-1.785-6.779-1.707-8.699.973-.535.743-1.278 1.887-.888 2.846.308.754 1.219 1.031 1.95 1.185 1.42.291 10.949 1.11 9.824-2.227-.388-1.168-1.185-2.109-2.187-2.777z" fill="#40c0e7"/></g><g><g><path d="M123.679 54.636c0 5.935-4.815 10.736-10.738 10.736-5.941 0-10.749-4.802-10.749-10.736 0-5.938 4.808-10.739 10.749-10.739 5.922-.001 10.738 4.8 10.738 10.739z" fill="#d7598b"/></g><path d="M116.828 49.519c-2.656-1.786-6.78-1.707-8.694.973-.536.743-1.286 1.886-.894 2.845.312.756 1.223 1.032 1.951 1.186 1.42.293 10.949 1.112 9.824-2.227-.388-1.169-1.187-2.11-2.187-2.777z" fill="#40c0e7"/></g><g><g><path d="M117.774 88.109c0 5.935-4.82 10.737-10.743 10.737-5.942 0-10.744-4.803-10.744-10.737a10.73 10.73 0 0 1 10.744-10.738c5.923 0 10.743 4.8 10.743 10.738z" fill="#d7598b"/></g><path d="M110.926 82.992c-2.658-1.785-6.783-1.707-8.703.973-.535.744-1.28 1.887-.888 2.846.309.755 1.219 1.031 1.946 1.186 1.424.293 10.954 1.111 9.83-2.228-.394-1.167-1.189-2.109-2.185-2.777z" fill="#40c0e7"/></g><g><g><path d="M31.709 88.096c0 5.935-4.816 10.737-10.739 10.737-5.94 0-10.748-4.803-10.748-10.737 0-5.938 4.808-10.738 10.748-10.738 5.923-.001 10.739 4.799 10.739 10.738z" fill="#d7598b"/></g><path d="M24.862 82.979c-2.661-1.785-6.785-1.707-8.704.973-.532.744-1.276 1.887-.882 2.846.306.755 1.216 1.031 1.944 1.186 1.418.293 10.948 1.111 9.828-2.228-.39-1.168-1.187-2.11-2.186-2.777z" fill="#40c0e7"/></g><g><g><path d="M25.812 54.624c0 5.935-4.819 10.737-10.742 10.737-5.936 0-10.749-4.803-10.749-10.737 0-5.939 4.812-10.739 10.749-10.739 5.922 0 10.742 4.801 10.742 10.739z" fill="#d7598b"/></g><path d="M18.961 49.507c-2.655-1.786-6.784-1.707-8.7.973-.535.744-1.278 1.886-.888 2.847.312.754 1.223 1.03 1.946 1.185 1.42.292 10.954 1.111 9.828-2.228-.387-1.169-1.185-2.11-2.186-2.777z" fill="#40c0e7"/></g><g><g><path d="M91.734 107.343c0 5.935-4.816 10.737-10.739 10.737-5.941 0-10.748-4.803-10.748-10.737 0-5.938 4.807-10.739 10.748-10.739 5.923 0 10.739 4.8 10.739 10.739z" fill="#d7598b"/></g><path d="M84.887 102.226c-2.66-1.786-6.784-1.707-8.703.973-.531.744-1.276 1.886-.884 2.847.308.754 1.219 1.03 1.945 1.184 1.42.293 10.949 1.112 9.829-2.227-.392-1.169-1.187-2.11-2.187-2.777z" fill="#40c0e7"/></g><g><g><path d="M58.78 106.528c0 5.934-4.816 10.737-10.742 10.737-5.943 0-10.75-4.804-10.75-10.737 0-5.938 4.807-10.739 10.75-10.739 5.926 0 10.742 4.801 10.742 10.739z" fill="#d7598b"/></g><path d="M51.928 101.41c-2.654-1.784-6.783-1.707-8.698.975-.532.742-1.282 1.885-.889 2.845.312.755 1.223 1.03 1.948 1.186 1.421.292 10.951 1.11 9.826-2.229-.391-1.166-1.187-2.109-2.187-2.777z" fill="#40c0e7"/></g></g></g></svg>