<svg id="レイヤー_1" xmlns="http://www.w3.org/2000/svg" viewBox="0 0 128 128"><g><g><path d="M45.824 66.5a1.81 1.81 0 0 1-1.745-1.328 1.806 1.806 0 0 1 1.257-2.231c6.747-1.877 13.618-7.247 13.693-13.875.021-2.109-.516-4.214-1.084-6.441-.346-1.346-.704-2.74-.937-4.159-.648-3.986-1.428-13.897 5.337-19.837 1.612-1.41 4.878-3.979 8.712-5.311a1.817 1.817 0 0 1 2.306 1.115 1.817 1.817 0 0 1-1.119 2.311c-2.373.824-5.108 2.503-7.499 4.609-5.41 4.746-4.71 13.139-4.151 16.53.201 1.26.521 2.515.861 3.843.607 2.355 1.23 4.794 1.2 7.38-.103 8.81-8.545 15.158-16.345 17.327a1.8 1.8 0 0 1-.486.067z" fill="#78a3ad"/><g><path d="M113.521 4.111C109.049 1.558 104.388.242 99.684.193 82.878.018 70.336 12.845 69.88 13.467a2.176 2.176 0 0 0 .447 3.032 2.183 2.183 0 0 0 3.042-.409c.097-.129 11.811-10.598 25.552-10.457 4.015.04 7.969 1.282 11.764 3.688 2.713 1.717 4.493 4.462 5.511 7.455 1.275 3.716 1.524 7.743 1.417 11.643-.133 4.927-.876 9.832-1.868 14.653-1.143 5.569-2.646 11.063-4.339 16.491-4.383 14.027-9.505 27.655-15.867 40.91a647.517 647.517 0 0 0-4.427 9.388c-1.51 3.285-6.503 10.676-2.361 13.744 3.38 2.51 7.349-.358 9.321-3.132 2.196-3.074 3.315-6.758 4.56-10.281 1.314-3.715 2.913-7.322 4.285-11.019a317.592 317.592 0 0 0 2.302-6.441c2.072-6.025 3.844-12.146 5.88-18.182 1.699-5.022 3.258-10.093 4.604-15.22 1.311-4.963 2.427-9.979 3.231-15.045.744-4.65 1.23-9.352 1.23-14.062.01-4.122-.344-8.274-1.398-12.268-.92-3.479-2.399-6.846-4.665-9.662a20.256 20.256 0 0 0-4.58-4.182z" fill="#2f2f2f"/></g><path d="M100.205 119.806c8.952-20.691 13.724-38.725 13.919-39.752.21-1.071.778-4.92-3.639-6.277-4.415-1.359-5.667 1.111-5.667 1.111s-11.077 30.489-17.793 42.38c-.305.54-1.358 3.305-.642 5.702.435 1.437 2.032 2.862 4.294 3.471 3.046.819 5.366-.126 6.401-1.374 1.976-2.381 2.739-4.357 3.127-5.261z" fill="#f79329"/><path d="M93.184 104.369s1.691-.721 2.983-3.245c1.293-2.521 3.1-6.986 6.331-8.514l2.527-9.139-1.943-.41s-4.768 4.947-8.509 12.196l-1.389 9.112z" fill="#2f2f2f"/><g><g><path d="M69.964 103.947c.51-.472.891-1.116 1.062-1.981.615-3.059-1.491-3.916-3.9-4.888-2.193-.885-4.954-1.454-6.632.691-1.619 2.068-1.311 5.731 1.488 6.585 2.236.682 6.066 1.363 7.982-.407z" fill="#f79329"/><path d="M71.474 103.579a4.404 4.404 0 0 1-4.037 1.419s-1.205-.7-.895-3.203c.238-1.972 1.541-3.531 3.166-3.459 0 0 1.327.363 3.607-.713 1.302-.615 6.836-3.513 9.209-6.999l.592 6.733s-9.473 3.78-11.642 6.222z" fill="#2f2f2f"/></g><path d="M83.497 85.067c1.302-2.913 5.765-3.748 9.961-1.868 4.206 1.883 6.543 5.764 5.242 8.675-1.302 2.915-5.765 3.752-9.956 1.871-4.206-1.882-6.552-5.769-5.247-8.678z" fill="#78a3ad"/><path fill="#78a3ad" d="M93.68 102.997l5.02-11.123-10.095-7.446-5.108.639-5.327 12.201z"/><g fill="#2f2f2f"><g><path d="M93.512 104.321c-1.289 3.094-5.95 4.095-10.403 2.24-4.468-1.86-7.04-5.875-5.747-8.965 1.295-3.099 5.946-4.1 10.404-2.24 4.466 1.857 7.038 5.872 5.746 8.965z"/><path d="M95.062 101.001c-1.285 3.09-5.95 4.093-10.404 2.235-4.463-1.857-7.034-5.87-5.746-8.962 1.295-3.097 5.95-4.099 10.415-2.243 4.449 1.86 7.027 5.875 5.735 8.97z"/><path d="M78.911 94.273l-1.55 3.323 10.813 7.539 5.338-.814 1.55-3.32z"/></g><g><path d="M87.511 112.92c-.87 2.087-4.014 2.763-7.023 1.512-3.006-1.258-4.741-3.963-3.868-6.048.866-2.089 4.01-2.765 7.016-1.51 3.013 1.252 4.745 3.958 3.875 6.046z"/><path d="M90.859 104.949c-.869 2.089-4.013 2.762-7.017 1.514-3.01-1.255-4.746-3.965-3.878-6.05.868-2.089 4.011-2.765 7.021-1.512 3.011 1.254 4.743 3.963 3.874 6.048z"/><path d="M79.965 100.414l-3.346 7.97 7.286 5.085 3.606-.549 3.548-8.741z"/></g></g></g><path d="M102.375 84.136s1.062-2.959 3.319-2.019c.814.334.939 1.337.763 2.488-.315 2.074-2.373 8.077-3.63 9.71-.231.295-1.116.93-1.896 1.029-.789.097-1.462-.341-1.639-.471-.713-.531-.372-1.532-.372-1.532l3.455-9.205z" fill="#2f2f2f"/></g><g><g><g><g fill="#40c0e7"><g><path d="M74.059 64.458c.038-.011.071-.018.098-.029 4.617-1.255 5.127-7.889.328-9.345a3.612 3.612 0 0 0-.381-.102c-2.869-.637-5.667.73-7.589 2.807a46.22 46.22 0 0 0-2.797 3.344c-.435.56-.91 1.131-1.274 1.742-.209.345-.324 1.095.03 1.387.544.445 1.884.463 2.547.547 3.003.388 6.098.452 9.038-.351z"/><path d="M25.499 49.275c-.021-.028-.039-.04-.066-.064-2.807-2.774-7.757-.381-6.809 3.646.026.108.058.214.095.317.729 2.309 2.862 3.747 5.147 4.247 1.168.262 2.354.47 3.55.618.575.073 1.187.179 1.779.186.328 0 .908-.221.965-.602.094-.571-.442-1.53-.663-2.041-.97-2.314-2.205-4.545-3.998-6.307z"/></g><path d="M41.636 41.202v-.106c.217-4.776-5.941-7.293-8.802-3.172a5.517 5.517 0 0 0-.211.334c-1.484 2.535-1.041 5.616.344 8.079a47.28 47.28 0 0 0 2.329 3.694c.407.582.797 1.213 1.275 1.749.266.296.938.635 1.328.387.588-.38 1.014-1.642 1.297-2.249 1.297-2.748 2.298-5.674 2.44-8.716z"/></g></g></g><path d="M53.579 123.7c-1.762-3.057-6.587-1.054-8.198-3.956-.895-1.607 1.451-6.277-1.16-6.718-3.183-.547-5.56 3.659-8.287 4.712-.239.091-.575.157-.947.224-.035-.075-.08-.133-.115-.213-.885-2.027-.523-4.4.075-6.459.084-.292.173-.582.271-.869.806-2.382 2.01-4.6 3.351-6.714.66-1.038 1.404-2.025 2.041-3.072.178-.283.408-.699.682-.881.319-.208.771-.23 1.134-.319 1.727-.423 3.426-.976 5.127-1.514 2.35-.744.805-5.707-.107-7.967.213-.418.422-.834.578-1.314.398-1.248.919-2.471 1.202-3.754.465-2.125 1.027-4.228 1.239-6.38.496-2.304.523-4.761.505-7.087-.044-5.979-1.735-8.792-7.827-9.193a20.613 20.613 0 0 0-4.143.137c-6.181.834-11.816 3.803-16.415 7.942-2.642 2.386-4.99 4.998-6.946 7.977-.252.388-.491.806-.73 1.222-.762.013-1.496.055-2.151.148-.274.04-.536.06-.784.071-1.182.053-2.182-.049-3.183.94-.823.814-1.092 1.837-1.523 2.884-1.541 3.779-2.772 7.568-3.267 11.636a18.983 18.983 0 0 0-.125 3.332c.062 1.374-.178 2.796.105 4.166.223 1.082.555 2.147.803 3.201.119.511.297 1.45.77 1.802.65.494 1.908.173 2.652.007.495-.115 1.204-.171 1.931-.271.424 2.967 1.15 5.822 2.248 8.407 3.56 8.371 12.209 12.06 20.78 11.787 1.24.15 2.523.208 3.701.19 1.467-.022 18.047-1.784 16.713-4.104zM36.571 68.003c1.531-.082 3.432 1.499 2.869 3.088-.461 1.297-1.691 2.636-3.206 2.457-.009-.011-.013-.007-.013-.007-1.062-.159-2.28-1.206-2.329-2.337-.066-1.434 1.178-3.117 2.679-3.201z" fill="#ed6c30"/></g></g></svg>