<svg id="レイヤー_1" xmlns="http://www.w3.org/2000/svg" viewBox="0 0 128 128"><g><path d="M69.445 40.029c0 16.134-13.334 29.213-29.782 29.213-16.449 0-29.786-13.079-29.786-29.213S23.214 10.81 39.663 10.81c16.448.001 29.782 13.086 29.782 29.219z" fill="#68919a"/><path d="M126.46 40.031c0 16.132-13.334 29.211-29.783 29.211-16.448 0-29.785-13.079-29.785-29.211 0-16.136 13.337-29.221 29.785-29.221 16.449.001 29.783 13.086 29.783 29.221z" fill="#68919a"/><g><path d="M126.549 42.876c0-16.458-13.343-29.806-29.805-29.806-.944 0-1.878.055-2.8.142-.293.027-.58.07-.869.108-.631.078-1.258.171-1.877.285a32.172 32.172 0 0 0-2.724.651c-.295.088-.593.163-.886.264-.689.217-1.362.469-2.03.742-.158.065-.325.116-.484.182-.8.344-1.582.727-2.349 1.132-.259.142-.508.295-.766.444-.51.288-1.006.59-1.493.907-.295.192-.582.394-.869.597-.438.306-.863.628-1.281.957-.278.218-.561.438-.832.672-.431.366-.846.749-1.258 1.145-.225.213-.458.415-.679.633a32.592 32.592 0 0 0-1.67 1.838c-.217.263-.416.538-.627.81-.322.415-.645.831-.945 1.269-.229.323-.439.651-.654.985-.26.405-.511.814-.749 1.236a26.3 26.3 0 0 0-.588 1.061c-.23.443-.444.897-.651 1.351-.16.344-.326.69-.471 1.04a28.732 28.732 0 0 0-.858 2.339l-.027-.068a28.482 28.482 0 0 0-.826-2.261c-.15-.366-.325-.723-.492-1.083-.202-.438-.403-.881-.629-1.307a28.9 28.9 0 0 0-.599-1.083 30.662 30.662 0 0 0-.735-1.216c-.221-.338-.434-.672-.662-.999a27.996 27.996 0 0 0-.937-1.248c-.214-.279-.415-.564-.64-.827a32.197 32.197 0 0 0-1.669-1.838c-.218-.225-.456-.426-.684-.646a35.92 35.92 0 0 0-1.246-1.132c-.277-.234-.558-.454-.844-.679a25.914 25.914 0 0 0-1.268-.946 29.184 29.184 0 0 0-.882-.606 33.48 33.48 0 0 0-1.476-.897c-.263-.147-.516-.306-.784-.448a27.546 27.546 0 0 0-2.341-1.128c-.164-.069-.332-.124-.497-.191a28.403 28.403 0 0 0-2.018-.736c-.297-.095-.594-.176-.892-.264a30.131 30.131 0 0 0-1.758-.449 30.363 30.363 0 0 0-.962-.202 32.069 32.069 0 0 0-1.875-.285c-.292-.038-.581-.081-.872-.108a29.767 29.767 0 0 0-2.799-.142c-16.461 0-29.801 13.348-29.801 29.806 0 11.893 6.978 22.128 17.052 26.907a4.976 4.976 0 0 0-2.234 4.141v4.327l-20.076-9.89c-1.874 0-3.41 1.931-3.41 4.299v33.084c0 2.357 1.536 4.294 3.41 4.294l20.078-9.896v12.072c0 2.737 2.236 4.975 4.973 4.975h79.634c2.735 0 4.973-2.237 4.973-4.975V73.924c0-2.292-1.575-4.212-3.692-4.779 9.354-5.033 15.722-14.907 15.722-26.269zm-86.626 7.221a7.217 7.217 0 0 1-7.215-7.221 7.218 7.218 0 1 1 14.435 0 7.223 7.223 0 0 1-7.22 7.221zm14.424 18.856c.126-.071.246-.154.373-.23a26.36 26.36 0 0 0 2.358-1.498 30.39 30.39 0 0 0 1.268-.953c.286-.218.566-.441.844-.672.425-.366.837-.748 1.246-1.138.228-.213.466-.421.684-.646a30.477 30.477 0 0 0 1.669-1.832c.225-.27.426-.554.64-.827.319-.41.636-.82.937-1.247.229-.328.441-.666.662-1.007a30.69 30.69 0 0 0 1.334-2.298c.226-.425.427-.863.629-1.301.167-.36.342-.717.492-1.089a27.39 27.39 0 0 0 .826-2.254l.027-.071c.252.794.541 1.576.858 2.337.145.354.311.694.471 1.045.207.453.421.901.651 1.345.185.361.385.712.588 1.067.238.415.489.824.749 1.229.215.334.426.668.654.991.301.432.623.854.945 1.27.211.268.41.546.627.804.532.639 1.09 1.251 1.67 1.843.221.22.454.421.679.635.412.396.827.777 1.258 1.144.271.23.554.448.832.672a34.108 34.108 0 0 0 2.15 1.554c.487.317.983.612 1.493.903.119.07.238.153.362.225H54.347zm42.397-18.856a7.221 7.221 0 0 1 0-14.441 7.219 7.219 0 0 1 7.217 7.22 7.22 7.22 0 0 1-7.217 7.221z" fill="#2f2f2f"/></g><path fill="#68919a" d="M7.919 108.528l10.153-5V74.872L7.919 69.865z"/><path d="M48.32 42.631a8.447 8.447 0 0 1-8.446 8.447 8.446 8.446 0 0 1-8.449-8.447c0-4.665 3.779-8.452 8.449-8.452 4.664 0 8.446 3.787 8.446 8.452z" fill="#68919a"/><circle cx="96.903" cy="42.631" r="8.45" fill="#68919a"/></g></svg>