<svg id="レイヤー_1" xmlns="http://www.w3.org/2000/svg" viewBox="0 0 128 128"><g><g><path d="M46.959 8.025c-.358-1.268-1.519-.419-2.501-.177-6.038 1.496-9.663-3.621-14.464-5.998C27.952.843 26.592.093 24.256.354c-2.195.247-4.517 1.524-4.981 3.673-.01.061.009.13 0 .201l-.103.027.093.443c0 .275-.056.531 0 .834.093.605.355 1.17.559 1.734l5.584 25.858a17.427 17.427 0 0 0-2.177-.294c-3.312-.228-6.22.872-8.524 2.667-6.129 4.763-7.299 14.449 1.207 17.156 7.351 2.339 16.532-4.414 15.722-12.393a11.735 11.735 0 0 0-.495-2.358L26.32 15.669c3.655-1.282 7.724 1.332 11.541.727 3.524-.564 6.124-2.861 8.278-5.579.661-.825 1.119-1.72.82-2.792z" fill="#d7598b"/></g><path d="M77.874 69.897c-3.039-1.691-6.176-4.036-9.187-6.931-2.303-2.214-4.288-4.525-5.9-6.818-1.622-2.293-2.872-4.559-3.687-6.819-.146-.415-.238-.839-.35-1.258L6.2 111.938c-1.31 1.374 1.179 5.933 5.599 10.169 4.398 4.242 9.051 6.573 10.374 5.198v-.006L83.956 72.33c-.526-.122-1.043-.238-1.559-.405-1.499-.494-2.994-1.18-4.523-2.028z" fill="#78a3ad"/><path d="M68.883 20.344a31.1 31.1 0 0 0-2.638 3.626c-2.229 3.561-3.672 8.273-3.505 13.484a26.39 26.39 0 0 0 .657 4.964l.005.019c1.212 5.281 4.139 10.822 9.582 16.061h.009c5.44 5.239 11.094 7.956 16.407 8.954.01.005.019.005.028.009.177.028.344.075.519.103 1.522.256 3.023.368 4.486.359 5.201-.042 9.844-1.669 13.312-4.022a32.043 32.043 0 0 0 3.523-2.778c-2.964-1.71-11.844-7.247-23.257-18.233-11.447-11.006-17.319-19.666-19.128-22.546z" fill="#78a3ad"/><path d="M112.704 17.211c-12.695-12.22-27.521-10.034-37.776-2.517.15.177.299.368.415.578l.037.056.159.275c.158.252.4.638.735 1.155a85.131 85.131 0 0 0 3.207 4.498c2.946 3.878 7.561 9.382 14.188 15.749 12.816 12.341 22.124 17.31 22.427 17.469v.004c.214.107.401.243.578.378 7.114-10.532 8.737-25.433-3.97-37.645z" fill="#78a3ad"/></g></svg>