<svg id="レイヤー_1" xmlns="http://www.w3.org/2000/svg" viewBox="0 0 128 128"><g><path d="M127.69 72.042a2.031 2.031 0 0 0-1.652-1.302c-64.321-8.42-86.739-51.424-86.963-51.858a2.046 2.046 0 0 0-3.105-.683L.947 45.994a2.052 2.052 0 0 0-.567 2.512c28.2 57.573 84.901 72.125 85.472 72.266a2.045 2.045 0 0 0 2.049-.657l39.435-46.002a2.037 2.037 0 0 0 .354-2.071zM53.518 103.03c-1.044 0-2.279-.499-2.744-1.446-.465-.943-.257-2.066.393-2.868a3.031 3.031 0 0 1 1.81-1.049c4.168-.789 5.723 5.363.541 5.363zm7.694-6.028c-1.044 0-2.279-.501-2.744-1.444-.466-.943-.258-2.07.393-2.873.475-.578 1.123-.917 1.813-1.047 4.172-.787 5.717 5.364.538 5.364zm7.052-6.476c-1.047 0-2.286-.502-2.752-1.447-.457-.942-.249-2.068.396-2.872a3.044 3.044 0 0 1 1.811-1.047c4.172-.788 5.719 5.366.545 5.366zm6.615-6.824c-1.039 0-2.273-.503-2.739-1.45-.471-.943-.26-2.066.394-2.868.473-.582 1.114-.916 1.805-1.047 4.171-.787 5.719 5.365.54 5.365zm7.089-7.48c-1.031.177-2.343-.104-2.961-.959-.609-.851-.602-1.995-.097-2.896.37-.65.947-1.091 1.605-1.338 3.98-1.486 6.551 4.315 1.453 5.193zm6.081-6.962c-1.027.161-2.329-.146-2.937-1.008-.602-.859-.569-2.006-.048-2.896.377-.646.964-1.079 1.628-1.312 4.001-1.421 6.473 4.422 1.357 5.216z" fill="#40c0e7"/><g><g><g><g><g><g><path d="M47.57 69.108c-.512.427-.464 1.109.105 1.522 0 0 1.862 1.546 4.998 3.688a57.882 57.882 0 0 0 6.162 3.639c.627.381 1.565.338 2.082-.1l2.499-2.093c.53-.443.442-1.109-.184-1.492 0 0-3.594-1.998-6.258-3.743-3.186-2.087-4.967-3.496-4.967-3.496-.586-.412-1.476-.395-1.998.034l-2.439 2.041z" fill="#2f2f2f"/></g><g><path d="M40.816 75.206c-.504.423-.49 1.137.032 1.593 0 0 2.801 2.556 4.909 4.248l5.155 4.145c.558.446 1.437.462 1.952.036l3.051-2.558c.514-.427.449-1.111-.144-1.512 0 0-3.218-2.124-5.537-3.759-2.334-1.655-5.279-4.036-5.279-4.036-.545-.427-1.404-.433-1.908-.012l-2.231 1.855z" fill="#2f2f2f"/></g></g><g><g><path d="M35.577 43.716a1.096 1.096 0 0 0-.133 1.588l.887.997c.438.482 1.195.552 1.7.159l1.794-1.408c.501-.395.546-1.102.101-1.571l-.927-.975c-.438-.473-1.204-.54-1.705-.144l-1.717 1.354z" fill="#2f2f2f"/></g><g><path d="M44.274 52.822c-.506.396-.53 1.089-.04 1.544l1.925 1.764c.498.449 1.324.493 1.838.098l2.07-1.597c.513-.399.517-1.081.007-1.518l-1.997-1.735c-.498-.446-1.316-.483-1.829-.088l-1.974 1.532z" fill="#2f2f2f"/></g><g><path d="M55.715 59.079c.522-.397.498-1.062-.048-1.475l-1.901-1.467c-.537-.42-1.396-.438-1.918-.041l-2.109 1.625c-.514.395-.507 1.073.008 1.508l1.845 1.495c.53.426 1.39.448 1.909.05l2.214-1.695z" fill="#2f2f2f"/></g><g><path d="M61.938 63.337c.525-.401.481-1.041-.107-1.418l-2.184-1.45c-.574-.389-1.473-.385-1.994.017l-2.266 1.723c-.522.393-.493 1.054.064 1.458l2.095 1.484c.567.397 1.476.396 1.996-.003l2.396-1.811z" fill="#2f2f2f"/></g><g><path d="M35.854 40.762a1.1 1.1 0 0 0 .147-1.597l-1.564-1.821a1.147 1.147 0 0 0-1.611-.165l-1.526 1.25a1.194 1.194 0 0 0-.18 1.635l1.45 1.823c.401.498 1.13.583 1.627.191l1.657-1.316z" fill="#2f2f2f"/></g><g><path d="M66.146 64.548c-.611-.349-1.55-.301-2.087.101l-2.463 1.859c-.525.401-.474 1.029.12 1.404l4.572 2.684c.619.353 1.551.287 2.063-.138l2.565-2.133c.516-.431.411-1.051-.23-1.37l-4.54-2.407z" fill="#2f2f2f"/></g><g><path d="M44.604 49.767c.505-.395.529-1.093.056-1.548l-1.54-1.486c-.465-.459-1.26-.514-1.765-.118l-1.838 1.442c-.506.393-.545 1.097-.097 1.571l1.483 1.512c.466.466 1.257.526 1.767.133l1.934-1.506z" fill="#2f2f2f"/></g></g></g><g fill="#2f2f2f"><path d="M43.933 67.249a.929.929 0 0 0 .471-.084c.737-.343 2.471-1.952 2.688-2.125.834-.646.683-1.163.081-1.615-.436-.327-.843-.692-1.262-1.042-.818-.682-4.725-3.233-10.269-9.272-4.807-5.229-7.924-9.849-8.132-10.131-.152-.216-.285-.471-.517-.62-.426-.281-.92.34-1.213.58-.352.292-.705.588-1.059.876l-.655.539c-.401.335-.308.781-.052 1.178.251.383.507.756.759 1.135a83.503 83.503 0 0 0 4.137 5.667 95.183 95.183 0 0 0 2.96 3.553 101.534 101.534 0 0 0 7.841 8.026c.784.72 1.579 1.425 2.386 2.124.372.325.766.749 1.19.997.2.115.426.194.646.214z"/><path d="M40.78 70.157c-.003-.349-.405-.64-.654-.864-.321-.281-.638-.572-.954-.859-.61-.565-1.228-1.139-1.829-1.715a118.038 118.038 0 0 1-4.297-4.314 109.311 109.311 0 0 1-3.636-4.033 111.195 111.195 0 0 1-3.008-3.652 103.271 103.271 0 0 1-2.403-3.185 91.092 91.092 0 0 1-1.829-2.624c-.231-.355-.471-.713-.698-1.073-.104-.156-.203-.312-.305-.471-.12-.187-.31-.479-.552-.487-.36-.01-.521.255-.784.467-.408.331-.814.663-1.22.995-.195.164-.396.331-.597.495-.715.583-.281 1.045.128 1.7l.682 1.072a87.867 87.867 0 0 0 1.725 2.569 114.203 114.203 0 0 0 2.232 3.096 129.922 129.922 0 0 0 6.144 7.532 150.34 150.34 0 0 0 3.979 4.331c.674.708 1.363 1.402 2.054 2.098.299.299.594.603.891.902.818.834 1.46 1.078 2.403.371.485-.358.95-.754 1.416-1.137.354-.291 1.125-.68 1.112-1.214z"/></g></g></g></g></g></svg>