<svg id="レイヤー_1" xmlns="http://www.w3.org/2000/svg" xmlns:xlink="http://www.w3.org/1999/xlink" viewBox="0 0 128 128"><g><g><g><g fill="#006ca2"><path d="M118.262 25.119h-5.52a.748.748 0 0 0-.748.748V126.14c0 .412.335.747.748.747h5.52a.751.751 0 0 0 .752-.747V25.867a.752.752 0 0 0-.752-.748z"/><path d="M89.951 68.29h-5.522a.568.568 0 0 0-.566.565v57.285c0 .311.258.564.566.564h5.522a.563.563 0 0 0 .564-.564V68.855a.562.562 0 0 0-.564-.565z"/><path d="M62.493 102.264H56.97a.36.36 0 0 0-.358.362v23.515c0 .2.159.362.358.362h5.523a.367.367 0 0 0 .366-.362v-23.515c0-.2-.168-.362-.366-.362z"/></g><g><g fill="#006ca2"><path d="M126.282.458h-8.477a.75.75 0 0 0-.712.529c-.198.663-21.124 66.883-105.161 125.194a.743.743 0 0 0-.292.838.747.747 0 0 0 .713.523H39.97a.75.75 0 0 0 .503-.19C112.796 62.508 126.882 5.274 127.03 4.532V1.206a.747.747 0 0 0-.748-.748z"/><path d="M102.318 4.74a.64.64 0 0 0 .03-.208V1.206a.747.747 0 0 0-.746-.748h-7.028a.752.752 0 0 0-.7.473c-.199.508-20.887 51.379-92.576 99.742a.748.748 0 0 0-.327.619v12.453a.747.747 0 0 0 1.168.617C86.582 56.371 102.174 5.251 102.318 4.74z"/></g><g fill="#40c0e7"><path d="M48.743 15.655a.56.56 0 0 0-.741.135C28.712 40.34 1.827 48.45 1.559 48.527a.57.57 0 0 0-.41.544v10.97a.569.569 0 0 0 .828.501c34.869-18.102 46.867-43.911 46.984-44.17a.567.567 0 0 0-.218-.717z"/><path d="M1.719 40.161c.054 0 .117-.01.171-.029 28.654-10.369 36.788-26.03 36.864-26.187a.499.499 0 0 0-.141-.621.492.492 0 0 0-.63.011C19.512 28.978 1.82 31.81 1.641 31.838a.504.504 0 0 0-.429.497v7.323a.51.51 0 0 0 .507.503z"/></g></g></g><g><g><g><g><defs><path id="SVGID_1_" d="M104.234 25.275c-.532-2.229-1.787-4.698-3.327-6.404-4.735-5.237-16.421-4.795-22.905-4.55-1.292.049-2.61.153-3.874.467-1.53.38-3.112.904-4.483 1.683-.503.286-1.021.597-1.5.954-.183.075-.369.129-.549.222a17.58 17.58 0 0 0-3.315 2.171c-5.722 4.755-10.252 14.888-5.791 21.803 3.497 5.426 10.785 6.267 16.637 6.906 5.526.601 14.268 3.696 19.105-.047 6.053-4.686 11.826-15.508 10.002-23.205z"/></defs><defs><path id="SVGID_2_" d="M87.74 51.296h-.006c-2.781 0-5.788-.568-8.438-1.07-1.55-.294-3.015-.57-4.277-.708-5.734-.625-13.583-1.482-17.369-7.357-4.971-7.703.284-18.371 5.995-23.109a18.536 18.536 0 0 1 3.499-2.294c.147-.075.299-.134.457-.191a20.853 20.853 0 0 1 1.548-.96c1.278-.728 2.825-1.31 4.74-1.784 1.438-.359 2.931-.453 4.075-.497 1.565-.058 3.443-.128 5.445-.128 9.224 0 15.188 1.637 18.235 5.007 1.615 1.785 2.979 4.407 3.556 6.84 1.913 8.069-3.927 19.242-10.361 24.225-1.761 1.363-4.086 2.026-7.099 2.026zm-4.33-36.107c-1.979 0-3.825.07-5.369.129-1.051.039-2.409.125-3.676.438-1.728.432-3.112.949-4.228 1.582-.469.266-.953.556-1.399.886l-.448.213c-.082.029-.164.057-.242.099a16.823 16.823 0 0 0-3.131 2.05c-5.003 4.158-9.879 13.848-5.59 20.494 3.271 5.077 10.276 5.841 15.909 6.455 1.343.146 2.847.432 4.436.732 2.563.485 5.47 1.034 8.063 1.034h.006c2.557 0 4.482-.525 5.882-1.61 5.938-4.601 11.33-15.065 9.639-22.185-.507-2.125-1.69-4.411-3.092-5.967-2.651-2.928-8.131-4.35-16.76-4.35z"/></defs><use xlink:href="#SVGID_1_" overflow="visible" fill="#ed6c30"/><use xlink:href="#SVGID_2_" overflow="visible" fill="#ed6c30"/><clipPath id="SVGID_3_"><use xlink:href="#SVGID_1_" overflow="visible"/></clipPath><clipPath id="SVGID_4_" clip-path="url(#SVGID_3_)"><use xlink:href="#SVGID_2_" overflow="visible"/></clipPath></g><path d="M65.857 21.931c-.03.05-.062.099-.09.148-1.701 2.888-3.041 6.429.488 8.497 2.829 1.655 6.388 1.796 9.574 2.029 2.144.16 4.284.42 6.436.495 2.251.079 4.283-.329 6.487-.588 6.079-.718 10.195-11.133 2.697-13.026-2.851-.721-5.726-1.383-8.646-1.74-1.402-.172-2.798-.195-4.208-.277-1.188-.072-2.393-.434-3.583-.286-1.06.13-2.213.388-3.241.691-2.306.678-4.634 2.012-5.914 4.057z" fill="#2f2f2f"/></g><g><defs><path id="SVGID_5_" d="M88.264 51.101c-.218-2.278-1.121-4.899-2.415-6.797-2.216-3.257-9.66-5.146-13.582-5.729-1.968-.293-3.931-.689-5.925-.936-4.145-.51-8.363-.742-12.526-.263-1.509.174-2.984.785-4.396 1.698-5.431 3.515-9.862 11.527-11.366 16.506-1.411 4.659-1.869 10.394 1.289 14.475 2.115 2.737 5.45 3.968 8.747 4.578 6.934 1.281 15.097 2.931 22.139 1.667 5.699-1.021 8.695-6.471 12.092-10.613 3.505-4.288 6.496-8.779 5.943-14.586z"/></defs><defs><path id="SVGID_6_" d="M64.705 77.751c-5.297 0-10.86-1.034-15.769-1.946l-1.027-.192c-4.344-.803-7.401-2.422-9.357-4.947-3.817-4.934-2.547-11.748-1.452-15.372 1.371-4.533 5.775-13.171 11.775-17.056 1.615-1.047 3.241-1.67 4.826-1.853 3.728-.427 7.786-.349 12.762.265 1.207.148 2.403.351 3.596.555.785.133 1.572.267 2.351.384 1.151.17 11.294 1.794 14.266 6.154 1.357 1.995 2.345 4.778 2.579 7.265.619 6.428-2.859 11.274-6.163 15.311-.623.762-1.233 1.569-1.854 2.382-2.723 3.602-5.812 7.683-10.832 8.582-1.759.314-3.62.468-5.701.468zM58.589 38.11c-1.619 0-3.186.087-4.656.257-1.283.146-2.615.666-3.973 1.545-5.253 3.404-9.569 11.379-10.953 15.957-.984 3.256-2.146 9.351 1.128 13.577 1.635 2.12 4.299 3.495 8.136 4.207l1.032.19c4.824.896 10.292 1.912 15.402 1.912 1.962 0 3.705-.144 5.351-.438 4.251-.762 6.967-4.352 9.592-7.822a76.178 76.178 0 0 1 1.901-2.44c3.053-3.731 6.264-8.186 5.719-13.859-.203-2.174-1.063-4.601-2.24-6.332-1.766-2.586-7.927-4.563-12.905-5.306-.802-.117-1.597-.253-2.399-.389-1.16-.197-2.329-.396-3.506-.542-2.829-.348-5.322-.517-7.629-.517z"/></defs><use xlink:href="#SVGID_5_" overflow="visible" fill="#ed6c30"/><use xlink:href="#SVGID_6_" overflow="visible" fill="#ed6c30"/><clipPath id="SVGID_7_"><use xlink:href="#SVGID_5_" overflow="visible"/></clipPath><clipPath id="SVGID_8_" clip-path="url(#SVGID_7_)"><use xlink:href="#SVGID_6_" overflow="visible"/></clipPath></g><path d="M50.062 43.645c-.025.048-.058.098-.082.145-1.654 2.753-2.952 6.188.468 8.534 2.738 1.88 6.186 2.303 9.272 2.789 2.081.33 4.152.757 6.232 1.006 2.18.257 4.144.008 6.279-.078 5.886-.233 9.874-10.323 2.618-12.812-2.763-.943-5.549-1.835-8.375-2.423-1.363-.282-2.715-.417-4.083-.611-1.146-.168-2.306-.624-3.467-.57a19.102 19.102 0 0 0-3.132.434c-2.235.496-4.486 1.644-5.73 3.586z" fill="#2f2f2f"/><g><g><defs><path id="SVGID_9_" d="M70.111 75.29c-.092-2.484-.919-5.394-2.212-7.539-3.926-6.522-16.368-7.006-23.068-8.244-4.766-.88-9.558-1.395-14.155.594-5.68 2.459-9.809 7.44-12.955 12.623-1.455 2.403-2.735 4.947-3.459 7.675-1.271 4.793-1.948 10.07 1.386 14.199 3.032 3.757 8.002 5.407 12.538 6.495 5.349 1.276 11.372 3.312 16.934 2.684 5.201-.584 9.506-3.565 12.91-7.357 3.35-3.738 7.269-7.673 9.738-12.06 1.464-2.612 2.461-6.045 2.343-9.07z"/></defs><defs><path id="SVGID_10_" d="M42.958 104.892h-.005c-3.996 0-8.039-1.047-11.95-2.059a173.264 173.264 0 0 0-3.052-.77c-4.635-1.115-9.816-2.798-13.082-6.839-3.717-4.608-2.79-10.479-1.575-15.08.663-2.485 1.796-5.007 3.573-7.936 3.996-6.585 8.387-10.845 13.412-13.022 2.267-.979 4.723-1.455 7.51-1.455 2.567 0 5.091.402 7.224.797 1.182.218 2.545.413 4.012.621 6.862.981 16.257 2.324 19.731 8.089 1.349 2.242 2.248 5.312 2.354 8.017.117 3.036-.811 6.624-2.474 9.592-2.096 3.727-5.143 7.061-8.092 10.282-.599.66-1.197 1.31-1.774 1.957-4.083 4.548-8.641 7.132-13.54 7.684-.753.083-1.508.122-2.272.122zm-5.169-45.167c-2.512 0-4.71.423-6.716 1.292-4.636 2.005-8.725 6.007-12.5 12.226-1.676 2.762-2.737 5.115-3.351 7.412-1.164 4.403-1.936 9.431 1.2 13.317 2.887 3.576 7.682 5.117 11.996 6.151 1.002.239 2.035.509 3.083.778 3.79.98 7.708 1.995 11.451 1.995h.005c.69 0 1.371-.034 2.049-.111 4.401-.494 8.534-2.861 12.277-7.032.582-.65 1.181-1.308 1.79-1.972 2.873-3.138 5.842-6.384 7.82-9.911 1.472-2.622 2.322-5.894 2.221-8.54-.095-2.389-.885-5.096-2.072-7.064-2.981-4.953-11.834-6.219-18.3-7.143-1.497-.213-2.887-.412-4.096-.636-2.039-.376-4.451-.762-6.857-.762z"/></defs><use xlink:href="#SVGID_9_" overflow="visible" fill="#ed6c30"/><use xlink:href="#SVGID_10_" overflow="visible" fill="#ed6c30"/><clipPath id="SVGID_11_"><use xlink:href="#SVGID_9_" overflow="visible"/></clipPath><clipPath id="SVGID_12_" clip-path="url(#SVGID_11_)"><use xlink:href="#SVGID_10_" overflow="visible"/></clipPath></g><path d="M28.799 64.948c-.03.057-.059.102-.087.156-1.579 2.738-2.786 6.104.43 8.624 2.637 2.069 6.068 2.766 9.227 3.506 2.185.522 4.406 1.157 6.688 1.609 2.438.479 4.706.409 7.219.535 7.228.329 13.091-11.157 3.781-14.335-3.366-1.143-6.668-2.211-9.94-2.892-1.543-.323-3.062-.476-4.572-.703-1.251-.186-2.501-.68-3.733-.626-1.09.059-2.251.226-3.284.458-2.27.513-4.522 1.694-5.729 3.668z" fill="#2f2f2f"/><g fill="#fff"><path d="M18.156 85.77c1.269-1.533 4.036-1.739 5.236-.075.876 1.216 1.066 2.687.234 3.966-.656 1.013-1.684 2.041-2.984 1.954-2.735-.186-4.168-3.806-2.486-5.845z"/><path d="M37.672 91.63c1.434-1.739 4.558-1.973 5.921-.091.991 1.38 1.2 3.047.256 4.498-.73 1.14-1.903 2.303-3.368 2.205-3.097-.209-4.725-4.304-2.809-6.612z"/></g></g></g></g></g><g fill="#78a3ad"><path d="M74.764 47.653c-.266-.878-.701-1.743-.701-2.752.005-1.116.829-2.039.867-3.175.028-.775.086-1.486-.104-2.224-1.032-4.093-6.094-4.034-7.768-.616-.854 1.731-.327 3.05.178 4.761.297.983.29 1.73-.22 2.564-.52.846-1.108 1.649-1.431 2.639-.351 1.08-1.032 2.322 0 3.045 1.402.988 3.089.981 4.659 1.242.784.131 1.616.271 2.305-.322.858-.753 1.745-1.753 2.205-2.924.326-.818.22-1.535.01-2.238z"/><path d="M62.512 36.238a5.873 5.873 0 0 0-.097-.435c-.437-1.729-1.796-2.853-3.341-2.948-1.59-.096-3.499.455-4.514 1.957-.82 1.215-.983 3.012-.587 4.452.363 1.319 1.298 2.347.455 3.746-.77 1.287-1.851 2.763-1.876 4.415-.039 2.306 4.69 2.674 6.138 2.787 1.255.096 2.517-1.453 3.11-2.553 1.148-2.158.139-2.495-.469-4.436-.288-.919.188-2.446.546-3.274.529-1.225.865-2.373.635-3.711z"/><g><path d="M56.043 70.731c-.265-.982-.723-1.952-.667-3.062.066-1.224 1.079-2.172 1.188-3.413.074-.845.179-1.622 0-2.441-.975-4.557-6.887-4.864-9.033-1.249-1.088 1.837-.542 3.322-.051 5.229.288 1.093.245 1.915-.397 2.787-.651.89-1.387 1.728-1.816 2.785-.474 1.157-1.331 2.466-.17 3.336 1.581 1.181 3.556 1.298 5.369 1.7.906.197 1.875.415 2.706-.185 1.048-.762 2.134-1.788 2.738-3.036.421-.871.338-1.661.133-2.451z"/><path d="M43.035 57.275a6.364 6.364 0 0 0-.077-.487c-.385-1.949-1.808-3.294-3.486-3.51-1.718-.223-3.825.255-5.01 1.85-.962 1.287-1.23 3.265-.879 4.896.322 1.488 1.28 2.695.299 4.181-.911 1.379-2.162 2.938-2.282 4.768-.169 2.554 4.961 3.302 6.524 3.528 1.356.192 2.819-1.43 3.521-2.608 1.363-2.31.28-2.758-.266-4.957-.263-1.04.327-2.701.763-3.587.65-1.326 1.069-2.575.893-4.074z"/></g><path d="M90.937 23.59c-.413-.825-1.006-1.606-1.138-2.607-.141-1.108.654-2.154.553-3.288-.073-.769-.101-1.479-.405-2.184-1.683-3.885-7.31-2.995-8.733.667-.724 1.85.039 3.073.822 4.682.452.925.55 1.665.082 2.577-.46.923-1.017 1.811-1.246 2.846-.257 1.124-.847 2.468.396 3.011 1.688.751 3.568.468 5.346.47.889 0 1.838.003 2.523-.696.865-.888 1.722-2.024 2.079-3.256.25-.863.048-1.556-.279-2.222z"/><path d="M77.055 14.016a6.124 6.124 0 0 0-.149-.414c-.686-1.638-2.244-2.538-3.863-2.39-1.669.152-3.584 1-4.452 2.639-.707 1.334-.647 3.127-.048 4.488.543 1.253 1.647 2.122.955 3.631-.646 1.399-1.577 3.021-1.399 4.657.246 2.286 5.229 1.91 6.752 1.791 1.316-.101 2.438-1.828 2.912-3.007.928-2.312-.175-2.487-1.046-4.309-.418-.863-.122-2.446.15-3.319.397-1.294.6-2.478.188-3.767z"/></g></g></svg>