<svg id="レイヤー_1" xmlns="http://www.w3.org/2000/svg" xmlns:xlink="http://www.w3.org/1999/xlink" viewBox="0 0 128 128"><g><path d="M114.287 16.729c-.504-1.025-1.649-1.757-2.938-1.859-1.182-.102-2.354.107-3.445.308-4.021.718-8.23.45-11.878-1.494-2.372-1.262-4.404-2.982-6.562-4.811-1.234-1.039-2.506-2.118-3.844-3.094C81.26 2.582 76.199.652 71.015.193c-.722-.067-1.42-.009-2.126.067-.397.036-.861.005-1.315.076-1.294 0-2.523.165-3.647.486a2.841 2.841 0 0 0-.28.107c-1.422.179-2.537 1.347-2.537 2.822v35.038a2.89 2.89 0 0 0 2.897 2.893 2.888 2.888 0 0 0 2.885-2.893v-9.924c5.391-1.895 9.144-1.445 14.352.553 6.117 2.345 14.489 1.627 20.419-1.083a45.074 45.074 0 0 0 4.048-2.091c1.882-1.097 3.575-2.113 5.243-3.469 1.244-1.012 2.398-2.233 3.087-3.263.58-.889.669-1.901.246-2.783z" fill="#ed6c30"/><g><g><defs><path id="SVGID_1_" d="M120.653 106.336c-3.695-6.366-7.739-12.572-10.994-19.157-1.213-2.461-2.332-4.976-3.281-7.539-.151-.419-.304-.834-.445-1.253-1.4-4.039-.33-8.93-5.988-7.245-1.516.446-3.09.66-4.649.794-6.046.508-12.024 1.274-17.959 2.456-2.933.585-5.644 2.046-8.63 2.345-1.534.152-3.113.129-4.7.058-1.587.071-3.179.094-4.708-.058-2.986-.299-5.702-1.761-8.63-2.345-5.93-1.182-11.914-1.948-17.95-2.456-1.569-.134-3.152-.348-4.663-.794-5.653-1.685-4.588 3.206-5.982 7.245-.144.419-.295.834-.445 1.253-.955 2.563-2.069 5.078-3.283 7.539-3.254 6.585-7.302 12.791-11.003 19.157-7.552 13.001 12.617 17.892 21.748 20.107 1.681.406 3.38.776 5.083 1.105 3.071.611 5.501.29 8.163-1.373a22.128 22.128 0 0 0 6.415-6.13c.321-.46.615-.927.892-1.409 4.565-7.989 10.803-36.263 10.803-36.263l6.692-.259s1.907 33.098 19.401 42.991c4.075 2.3 7.883 2.421 12.376 1.337 9.139-2.214 29.301-7.106 21.737-20.106z"/></defs><use xlink:href="#SVGID_1_" overflow="visible" fill="#fcc21b"/><clipPath id="SVGID_2_"><use xlink:href="#SVGID_1_" overflow="visible"/></clipPath><g clip-path="url(#SVGID_2_)"><path d="M59.905 92.114c.044-.33.079-.66.093-.985.08-1.569.344-2.813.798-4.329.417-1.414.82-3.246-.352-4.427-2.242-2.261-7.423 6.308-8.676 7.699-3.839 4.28-8.142 8.131-12.617 11.747a214.61 214.61 0 0 1-6.735 5.19c-1.415 1.043-4.814 2.697-4.853 4.744-.035 2.251 4.574 3.852 6.063 4.837 3.451 2.278 6.34 5.943 4.334 10.156-.161.339-.332.735-.615.998-.285.272-.873.343-.722.865 2.435 1.223 5.18-.281 7.302-1.422 2.448-1.311 4.275-3.277 5.952-5.461.071-.089.145-.178.21-.272 1.005-1.319 1.872-2.742 2.657-4.2.348-.651.819-1.347.998-2.069.143-.579.158-1.132.356-1.712 1.088-3.295 2.234-6.562 3.235-9.888.644-2.122 1.026-4.312 1.438-6.487.304-1.627.884-3.321 1.134-4.984z" fill="#ed6c30"/><g><path d="M77.047 117.994c.619.821 1.271 1.61 1.962 2.363 2.251 2.443 4.872 4.583 7.846 6.068 1.664.829 3.447 1.417 5.141 2.153 1.587.691 3.754.423 5.363-.045.598-.173 1.819-.298 2.305-.709-.159-.544-.972-.245-1.402-.298-.567-.072-1.191-.263-1.762-.325-.954-.099-1.936-.451-2.836-.781-2.818-1.03-4.547-3.674-3.639-6.598.718-2.292 2.586-3.879 4.468-5.247 1.328-.968 4.775-2.532 3.334-4.624-1.247-1.81-3.74-2.662-5.395-4.008-2.152-1.734-4.332-3.147-6.348-5.06-2.523-2.407-4.958-4.936-7.075-7.712-1.244-1.641-2.555-3.206-3.696-4.922-1.235-1.85-2.313-3.794-3.46-5.688-.722-1.195-1.382-2.305-2.924-1.61-.981.446-1.548 1.583-1.989 2.493-.445.891-.788 1.551-.873 2.567-.09.985.054 1.976.16 2.956.084.785.276 1.556.41 2.336.353 2.193 1.048 4.445 1.605 6.612.623 2.402 1.333 4.779 2.179 7.106 1.74 4.797 3.857 9.237 6.626 12.973z" fill="#ed6c30"/></g></g></g><g><g><defs><path id="SVGID_3_" d="M66.151 89.502c-2.506 0-4.811-.713-6.506-2.011l-.427-.339c-.384-.308-.643-.513-.889-.633-.173.143-.405.366-.574.526-.545.517-1.159 1.101-1.988 1.449-1.658.69-3.469.833-4.699.833a15.54 15.54 0 0 1-1.677-.089c-2.635-.281-5.572-1.641-7.119-4.053-.04.022-.081.049-.112.062l-.271.161c-2.403 1.427-6.25 1.694-8.938.892-2.15-.642-3.688-2.215-4.54-4.686a3.448 3.448 0 0 1-.116-.414c-.111.071-.196.129-.275.178-2.194 1.217-4.161 1.779-6.035 1.712-1.629-.058-6.529-1.382-6.85-7.383-.325-6.166-.616-8.956.908-10.704 1.383-1.579 41.321-25.069 43.469-25.876.789-.303 2.292-1.173 3.041-1.173 1.213.005 4.338.379 4.338.379s21.467 12.612 28.034 16.259c5.157 2.862 10.473 5.805 13.624 7.887 1.708 1.124 3.019 2.211 2.877 5.199-.106 2.117-.027 4.9-.197 6.09-.419 3.049-1.177 3.438-2.979 4.868-1.306 1.035-3.216 1.672-5.011 1.672-.981 0-1.863-.183-2.64-.544-1.168 1.855-2.729 3.705-5.261 4.717-2.05.82-4.646.129-6.009-.459-.055-.026-.099-.049-.152-.076-.134.192-.249.388-.343.535-.361.575-.7 1.115-1.111 1.525-.748.745-1.8 1.319-2.826 1.85-2.256 1.173-5.073 1.467-7.588.798l-.285-.076c-.874-.232-1.863-.486-2.854-1.123a18.53 18.53 0 0 1-.615-.428c-.045-.031-.103-.066-.142-.107-.71.687-1.223 1.035-2.203 1.503-1.487.708-3.235 1.079-5.059 1.079z"/></defs><use xlink:href="#SVGID_3_" overflow="visible" fill="#fcc21b"/><clipPath id="SVGID_4_"><use xlink:href="#SVGID_3_" overflow="visible"/></clipPath><path d="M99.713 68.347c-.174-.165-.353-.33-.535-.49a20375.313 20375.313 0 0 0-22.979-21.173c-1.867-1.73-3.751-3.456-5.624-5.181-.791-.726-1.553-1.538-2.387-2.202-.669-.526-1.178-1.347-1.878-1.806-.712-.463-1.747.031-2.536-.053-.562-.058-1.132-.366-1.694-.223-.739.192-1.418 1.115-1.931 1.641-.687.704-1.306 1.462-2.063 2.095-1.369 1.141-2.444 2.474-3.701 3.722a371.459 371.459 0 0 1-5.354 5.146 833.138 833.138 0 0 0-13.072 12.702c-1.512 1.493-3.05 2.982-4.454 4.579-1.649 1.868-2.871 3.575-2.938 4.65-.084 1.391-.303 2.795-.303 4.191-.004 6.255.13 11.404 6.05 13.022 3.121.852 7.687-.312 7.878-3.892.192-3.535.424-8.417.71-10.486.24-1.672 9.834-18.355 12.381-22.065 2.224-3.218 4.192-6.897 6.535-10.027-.184 1.035-3.17 32.444-3.17 33.603 0 2.194-.223 8.279-.188 10.473.054 2.501 4.499 4.641 5.778 4.806.932.12 2.291-.161 3.205-.361.776-.17 1.592-.366 2.332-.665.713-.286 1.391-.628 2.1-.892.758-.276 1.101-1.823 1.547-2.514.415-.651.879-10.486.562-12.158-.259-1.302-8.057-31.03-8.234-32.536.227.29 11.902 16.776 14.387 20.392 1.604 2.323 7.436 10.423 7.709 12.202.254 1.636.607 3.326.602 4.998-.01.977.155 1.744.378 2.657 1.03 4.16 5.738 4.646 8.767 2.447 1.93-1.391 2.714-3.17 2.946-5.296.173-1.654.747-9.853-.826-11.306z" clip-path="url(#SVGID_4_)" fill="#ed6c30"/></g></g></g></g></svg>