<svg id="レイヤー_1" xmlns="http://www.w3.org/2000/svg" viewBox="0 0 128 128"><g><circle cx="93.562" cy="39" r="7.453" fill="#fff"/><circle cx="104.255" cy="48.397" r="7.453" fill="#fff"/><circle cx="94.534" cy="58.766" r="7.453" fill="#fff"/><circle cx="83.518" cy="49.044" r="7.453" fill="#fff"/><circle cx="34.305" cy="49.344" r="19.44" fill-rule="evenodd" clip-rule="evenodd" fill="#2f2f2f"/><g><path d="M46.148 45.503h-8.263V37.24c0-.3-.243-.543-.546-.543h-5.983a.545.545 0 0 0-.544.543v8.263H22.55a.543.543 0 0 0-.542.545v5.987c0 .296.243.541.542.541h8.262v8.26c0 .304.246.55.544.55h5.983a.546.546 0 0 0 .546-.55v-8.26h8.263a.545.545 0 0 0 .547-.541v-5.987a.544.544 0 0 0-.547-.545z" fill="#fff"/><path d="M51.277 49.038c0 9.351-7.579 16.93-16.925 16.93-9.351 0-16.925-7.579-16.925-16.93 0-9.346 7.574-16.925 16.925-16.925 9.346-.001 16.925 7.578 16.925 16.925zM34.352 32.112c-9.351 0-16.925 7.579-16.925 16.925 0 9.351 7.574 16.93 16.925 16.93 9.346 0 16.925-7.579 16.925-16.93 0-9.346-7.579-16.925-16.925-16.925zm59.299 1.585a4.968 4.968 0 0 0-4.966 4.967 4.971 4.971 0 0 0 4.966 4.972 4.973 4.973 0 0 0 4.969-4.972 4.968 4.968 0 0 0-4.969-4.967zM78.308 49.038a4.97 4.97 0 1 0 9.94.004 4.97 4.97 0 0 0-9.94-.004zm15.343 15.345a4.968 4.968 0 1 0 .003-9.937 4.968 4.968 0 0 0-.003 9.937zm15.343-15.345a4.968 4.968 0 0 0-9.934 0 4.969 4.969 0 0 0 4.967 4.972 4.97 4.97 0 0 0 4.967-4.972zM34.352 32.112c-9.351 0-16.925 7.579-16.925 16.925 0 9.351 7.574 16.93 16.925 16.93 9.346 0 16.925-7.579 16.925-16.93 0-9.346-7.579-16.925-16.925-16.925zm92.316 53.753l-3.652-39.544c-1.375-15.011-13.994-26.77-29.365-26.77H34.352c-15.371 0-27.993 11.759-29.365 26.77L1.332 85.865c-.85 10.202.203 18.839 8.263 21.798 5.979 2.19 12.141 0 20.983-9.115l16.933-18.465h32.982l16.933 18.465c8.843 9.115 15.008 11.305 20.984 9.115 8.054-2.959 9.11-11.596 8.258-21.798z" fill-rule="evenodd" clip-rule="evenodd" fill="#757f3f"/></g></g></svg>