<svg id="レイヤー_1" xmlns="http://www.w3.org/2000/svg" viewBox="0 0 128 128"><g><path d="M113.187 61.047l2.762 9.392s7.713-1.715 8.126 3.405c.412 5.12-7.199 8.543-7.199 8.543l2.402 11.27s8.403-6.798 8.532-16.547c0 0 .744-11.994-6.457-14.797-4.528-1.761-8.166-1.266-8.166-1.266z" fill="#fcc21b"/><path d="M68.998 96.852s-11.793-5.003-17.553 2.062a90.807 90.807 0 0 0-2.288 2.969c-.596.793-1.187 1.591-1.838 2.342-.528.608-1.105 1.189-1.778 1.642a6.057 6.057 0 0 1-2.164.905c-.971.203-1.976.201-2.964.12-1.413-.117-2.808-.394-4.188-.714a90.4 90.4 0 0 1-1.345-.327c-.111-.031-.233-.061-.353-.091-.067-.019-.218-.09-.287-.076-.425.094.252.816.366.956a12.022 12.022 0 0 0 3.788 3.09 11.305 11.305 0 0 0 4.394 1.225c.142.01.375-.004.461.127.166.254-.283.476-.466.589a6.542 6.542 0 0 1-.812.417c-.906.392-1.877.63-2.849.806-.872.161-1.759.263-2.64.33-.445.034-.89.059-1.334.077-.284.01-.622-.057-.895.042-.348.123.125.459.274.556.385.249.777.481 1.178.695a16.135 16.135 0 0 0 3.634 1.427c1.592.413 3.258.559 4.903.38a13.312 13.312 0 0 0 4.101-1.14c7.244-3.309 6.625-10.245 13.246-10.758 4.873-.38 11.777 2.18 11.777 2.18l-4.368-9.831z" fill="#fcc21b"/><path d="M16.977 36.452S4.026 38.577.73 50.091C-3.485 64.805 17.433 69.71 17.433 69.71l1.311-9.985s-13.929-1.391-13.115-6.73c.997-6.58 12.572-5.969 12.572-5.969l-1.224-10.574z" fill="#fcc21b"/><path d="M18.03 71.251s-1.992.597-4.938 2.649c-2.024 1.411-4.7 3.187-7.281 6.256-1.292 1.533-2.34 3.272-2.986 5.166a12.912 12.912 0 0 0-.727 4.004c-.005.288 0 .577.015.862.008.133.008.857.331.671.106-.058.211-.394.268-.499.252-.461.533-.906.842-1.335a12.816 12.816 0 0 1 3.203-3.158c.39-.271.801-.516 1.221-.736.202-.105.736-.55.89-.158.073.194-.103.541-.157.729-.085.325-.166.651-.246.979a29.341 29.341 0 0 0-.745 4.78c-.06.873-.072 1.755-.017 2.631a14.132 14.132 0 0 0 .244 1.949c.044.218.253.461.403.18.064-.121.117-.251.179-.376.155-.332.317-.664.485-.993a39.42 39.42 0 0 1 1.548-2.747 38.945 38.945 0 0 1 2.321-3.342 32.06 32.06 0 0 1 3.103-3.442 24.195 24.195 0 0 1 3.901-3.045 19.636 19.636 0 0 1 2.618-1.391l-4.475-9.634z" fill="#fcc21b"/><g><path d="M119.711 80.078c-1.227-5.919-2.917-11.743-4.842-17.47-1.643-4.899-3.26-9.864-6.181-14.175-1.271-1.865-3.252-3.161-5.548-4.075-4.628-1.825-10.548-2.081-14.568-2.117-5.985-.055-12.233 1.302-17.835 3.945-1.958 6.01-7.551 21.233-15.788 28.03a94.033 94.033 0 0 0 1.915 8.467c1.367 4.944 3.199 9.797 4.879 14.646 1.618 4.663 3.55 9.391 6.988 13.039.904.963 1.956 1.749 2.968 2.593 2.386 1.985 5.274 3.233 8.211 4.164 2.733.865 5.516 1.59 8.313 2.222 5.008 1.128 12.206 2.969 17.092.675 2.67-1.25 4.878-3.068 6.69-5.407 1.868-2.425 3.381-5.114 4.707-7.871 2.015-4.214 4.108-8.942 4.432-13.646.309-4.378-.548-8.751-1.433-13.02zM93.596 63.729c4.505 2.937 10.288 3.717 15.489 3.425 1.545-.084 2.371.078 1.975 1.832-.784 3.472-4.086 5.533-7.297 6.249a7.915 7.915 0 0 1-2.369.158c-1.545-.126-3.025-.736-4.304-1.628-2.767-1.927-4.873-5.188-5.492-8.527-.332-1.754.32-2.601 1.998-1.509zm-28.294 17.96c-1.294-1.341-.64-1.927.792-2.679 4.817-2.534 9.578-6.319 12.062-11.342.922-1.865 1.948-1.464 2.588.263 1.221 3.296 1.059 7.316-.393 10.507-.672 1.476-1.672 2.81-2.989 3.753a8.358 8.358 0 0 1-2.207 1.124c-3.254 1.092-7.305 1.032-9.853-1.626zm47.578 16.655c-.438-.033-.996-.36-1.53-.72-.493-.324-.97-.68-1.326-.857a27.897 27.897 0 0 0-3.875-1.608c-3.987-1.325-8.363-1.28-12.351.031-2.823.93-5.509 2.578-7.651 4.633-2.383 2.279-4.15 5.116-6.463 7.457-.261.261-.579.619-.91.775-.596.291-1.255-.081-1.404-.688-1.034-4.19 1.812-10.144 3.899-13.646 2.37-3.974 5.864-7.203 10.361-8.542 2.216-.659 4.587-.72 6.859-.364 6.694 1.043 13.593 6.346 14.939 12.372.082.377-.024 1.193-.548 1.157z" fill="#006ca2"/><path d="M78.543 31.479c-.292-1.147-1.117-2.183-1.696-3.191C70.13 16.583 55.515 10.95 42.548 11.804c-4.012.262-9.909.851-14.422 2.938-2.249 1.04-4.149 2.451-5.307 4.382-2.677 4.469-4.011 9.517-5.371 14.501-1.597 5.828-2.96 11.737-3.846 17.716-.771 5.203-1.493 10.942-.101 16.105 1.101 4.057 3.498 9.806 6.116 13.089 2.863 3.582 6.964 7.761 11.351 9.413.837.316 1.727.528 2.608.704 1.699.344 3.504.534 5.226.255 1.035-.166 2.086-.283 3.098-.55 1.998-.53 3.88-1.181 5.791-1.945 8.041-3.209 14.527-7.864 18.795-15.504 1.849-3.306 3.329-6.803 4.655-10.348.08-.206.153-.415.234-.623 2.135-5.806 3.479-11.858 4.95-17.856.72-2.94 1.545-5.858 1.934-8.867.162-1.256.595-2.485.284-3.735zm-58.037 7.432c1.806-3.314 6.107-5.863 9.934-5.44a7.036 7.036 0 0 1 1.867.473c3.778 1.556 6.075 5.278 5.189 9.123-.19.806-.732.93-1.331.42-2.065-1.767-3.776-3.15-6.608-3.88-2.297-.595-4.853-.293-7.109.313-.485.129-1.33.588-1.827.372-.572-.251-.341-.971-.115-1.381zm41.577 25.938c-1.118 1.727-2.59 3.217-4.094 4.605-.356.329-.72.649-1.092.96-5.949 4.999-14.067 7.489-21.814 5.624-2.107-.51-4.386-1.578-6.099-2.906-1.344-1.042-2.607-2.313-3.705-3.608-2.007-2.362-3.486-5.188-4.464-8.123a22.037 22.037 0 0 1-.989-4.455c-.048-.477-.663-5.753.908-5.104.37.154.688.462.965.809.296.366.554.777.805 1.099a70.4 70.4 0 0 0 2.16 2.637c2.531 2.914 5.605 5.231 9.134 6.809 2.392 1.068 4.988 1.682 7.593 1.933 1.456.139 2.929.17 4.39.093 5.414-.277 10.898-1.864 15.84-4.052.413-.182.906-.497 1.368-.492 1.673.021-.598 3.696-.906 4.171zm5.734-14.685c-.036.465-.219 1.193-.777 1.08-.477-.098-.882-.955-1.181-1.331-1.396-1.767-4.134-3.789-6.777-4.44-3.253-.803-5.603.57-8.801.917-.931.102-1.384-.303-1.028-1.081 1.691-3.702 6.189-6.57 10.928-5.804a9.115 9.115 0 0 1 2.147.629c4.041 1.745 5.78 6.277 5.489 10.03z" fill="#d7598b"/></g></g></svg>