<svg id="レイヤー_1" xmlns="http://www.w3.org/2000/svg" viewBox="0 0 128 128"><g><g><path fill="#fff" d="M24.13 2.664l-2.032 19.938 18.992 1 2.756-20.938z"/><path d="M41.099 25.807l-.121-.001-18.995-1a2.206 2.206 0 0 1-1.56-.767 2.177 2.177 0 0 1-.517-1.656L21.932 2.44A2.205 2.205 0 0 1 24.13.459h19.716a2.21 2.21 0 0 1 1.662.748 2.21 2.21 0 0 1 .526 1.743l-2.757 20.94a2.201 2.201 0 0 1-2.178 1.917zm-16.575-5.286l14.644.771L41.33 4.869H26.117l-1.593 15.652z" fill="#2f2f2f"/></g><path fill="#bdcf46" d="M23.067 86.781l.442 38.563 12.214 2.197V88.788z"/><path fill="#757f3f" d="M103.476 69.164l-.775 34.932-66.978 23.445V88.788z"/><g fill="#2f2f2f"><path d="M41.09 23.602l66.284 31.529-14.15-1.895-71.126-30.634z"/><path d="M107.374 57.336c-.099 0-.194-.004-.297-.017L92.932 55.42a2.263 2.263 0 0 1-.578-.16L21.225 24.629a2.204 2.204 0 0 1-1.272-2.526c.239-1.042 1.264-1.757 2.263-1.701l19 .999c.28.015.564.086.822.211l66.053 31.422a2.194 2.194 0 0 1 1.527 2.097 2.202 2.202 0 0 1-2.204 2.206l-.04-.001zm-73.08-31.882l58.65 25.258-52.406-24.931-6.244-.327z"/></g><g><path fill="#fff" d="M41.09 23.602l66.284 31.529 2.387-15.015L43.846 2.664z"/><path d="M107.374 57.336a2.2 2.2 0 0 1-.952-.213L40.141 25.595a2.208 2.208 0 0 1-1.234-2.28l2.761-20.939A2.197 2.197 0 0 1 42.869.687a2.215 2.215 0 0 1 2.073.059L110.851 38.2a2.201 2.201 0 0 1 1.086 2.265L109.55 55.48a2.199 2.199 0 0 1-1.155 1.602 2.157 2.157 0 0 1-1.021.254zM43.484 22.3l62.172 29.574 1.685-10.595-61.73-35.078L43.484 22.3z" fill="#2f2f2f"/></g><g><g><path fill="#fff" d="M18.239 68.725l1.103 17.465 19.115 3.029V71.567z"/><path d="M38.457 91.423a2.4 2.4 0 0 1-.349-.025l-19.114-3.03a2.205 2.205 0 0 1-1.854-2.039l-1.101-17.465a2.201 2.201 0 0 1 2.506-2.323l20.215 2.842a2.207 2.207 0 0 1 1.904 2.184v17.651a2.214 2.214 0 0 1-2.207 2.205zm-17.025-7.136l14.819 2.353V73.484l-15.642-2.197.823 13z" fill="#2f2f2f"/></g><g><path fill="#fff" d="M107.374 55.131l-.779 14.812-68.138 19.276V71.567z"/><path d="M38.457 91.423a2.205 2.205 0 0 1-2.206-2.205V71.567c0-1.021.694-1.908 1.694-2.145l68.916-16.437a2.21 2.21 0 0 1 1.922.453c.537.444.826 1.116.798 1.809l-.79 14.813a2.2 2.2 0 0 1-1.598 2.008L39.058 91.342a2.24 2.24 0 0 1-.601.081zm2.207-18.115v12.995l63.807-18.052.539-10.291-64.346 15.348z" fill="#2f2f2f"/></g><g fill="#2f2f2f"><path d="M38.457 71.567l68.917-16.436-14.15-1.895-74.985 15.489z"/><path d="M38.457 73.773c-.107 0-.21-.009-.305-.021l-20.219-2.843a2.186 2.186 0 0 1-1.894-2.111 2.202 2.202 0 0 1 1.758-2.231l74.988-15.493c.246-.047.492-.057.732-.027l14.145 1.9a2.216 2.216 0 0 1 1.919 2.073 2.22 2.22 0 0 1-1.693 2.255L38.971 73.713c-.172.038-.344.06-.514.06zm-7.316-5.462l7.209 1.013 56.969-13.585-2.013-.267-62.165 12.839z"/></g></g><g fill="#2f2f2f"><path d="M40.908 72.003c.32.732 1.129 1.451 1.577 2.046.783 1.034 1.396 2.097 2.171 3.139 1.225 1.637 2.438 3.713 4.049 5.005.74.599 1.235 1.267 1.836 2.025.778.982.566 1.137-.646 1.418-1.241.288-2.507.586-3.766.776-1.293.197-2.455.585-3.694.964-.509.155-1 .203-1.483.423-.479.219-1.016.762-1.594.619-.56-.137-.662-.995-.731-1.489-.174-1.392-.019-2.788-.17-4.195-.189-1.741-.373-3.39-.369-5.182.003-1.185-.19-2.31-.182-3.498 0-.651-.339-1.573-.159-2.171.56-.089 1.129.034 1.688-.047.494-.068.856-.21 1.378-.133.018.097.051.2.095.3z"/><path d="M59.749 67.54c.189.319.379.754.572 1 .4.517.866.986 1.244 1.465 2.121 2.653 4.489 5.099 6.85 7.546.654.672 1.577 1.516 1.999 2.343-2.353 1.676-5.626 1.663-8.305 2.435-.724.21-1.056.503-1.778.141-.6-.293-1.064-1.072-1.557-1.503-.765-.671-1.416-1.541-2.084-2.313-1.377-1.59-2.799-3.222-4.079-4.91-.718-.939-1.537-1.848-2.17-2.813a5.44 5.44 0 0 0-.957-1.145c-.298-.267-.552-.249-.529-.65.715-.172 1.456-.167 2.174-.296.741-.135 1.444-.492 2.168-.703 1.249-.358 2.446-.547 3.694-.813.733-.156 1.975-.66 2.56-.065.069.066.134.165.198.281z"/><path d="M76.84 62.996c.173.293.341.688.517.917.371.475.797.904 1.146 1.345 1.947 2.433 4.117 4.672 6.279 6.917.578.604 1.111 1.31 1.723 1.87.638.587 1.018.784-.146.961-1.766.267-3.42.87-5.159 1.262-1.017.229-2.111.543-3.152.543-1.146 0-1.447-.875-2.249-1.611-.931-.853-1.741-1.986-2.567-2.934-1.016-1.167-2.017-2.352-2.945-3.583-.656-.862-1.405-1.693-1.982-2.576a5.049 5.049 0 0 0-.878-1.051c-.277-.245-.513-.229-.486-.598.658-.16 1.33-.156 1.984-.272.689-.12 1.333-.453 1.999-.643 1.139-.327 2.239-.503 3.386-.749.672-.143 1.809-.603 2.343-.061.058.065.123.16.187.263z"/><path d="M94.663 58.951c.172.293.346.69.517.917.371.474.802.905 1.147 1.344 1.945 2.433 4.118 4.673 6.279 6.917.595.616 1.451 1.391 1.835 2.149-2.163 1.534-5.155 1.525-7.616 2.231-.658.194-.973.461-1.636.129-.543-.267-.974-.982-1.417-1.378-.711-.616-1.306-1.413-1.918-2.12-1.261-1.459-2.567-2.955-3.746-4.505-.646-.862-1.405-1.693-1.982-2.576a4.963 4.963 0 0 0-.879-1.052c-.267-.245-.508-.229-.478-.599.65-.159 1.331-.154 1.985-.271.682-.121 1.328-.453 1.991-.642 1.137-.328 2.239-.503 3.385-.75.672-.141 1.81-.603 2.344-.059.06.068.13.161.189.265z"/><path d="M105.708 57.462c.223.313.318.731.422 1.205.224.996.791 1.87 1.171 2.805.284.68.923 2.515-.524 1.873-.854-.378-1.616-1.835-2.188-2.55-.767-.956-1.542-1.911-2.396-2.799-.603-.629-.905-.927.103-1.104.818-.143 1.879-.164 2.693.07.339.103.564.27.719.5z"/></g><g fill="#2f2f2f"><path d="M45.923 22.551c1.032-1.203 1.911-2.503 2.954-3.726 2.567-3.006 5.144-6 7.752-8.968-.809-.194-1.448-1.141-2.221-1.503-1.086-.508-2.103-.853-3.102-1.55-.524-.367-.974-.684-1.551-.973-1.318-.655-2.567-1.43-3.894-2.067-.827-.4-1.16-1.091-1.585 0-.302.779-.594 1.31-.587 2.192.019 1.921-.636 3.82-.938 5.69-.129.802-.413 1.577-.654 2.352-.267.847-.223 1.727-.431 2.588-.146.603-.388 1.185-.56 1.784-.232.83-.276 1.623-.552 2.446-.25.754-.932 1.921-.905 2.714.034 1.012 1.526.62 2.245.767.529.107 1.123.425 1.658.421.576-.003.689-.448 1.094-.827.459-.427.879-.875 1.277-1.34z"/><path d="M64.53 31.652c.18-.289.361-.698.55-.908.397-.441.854-.823 1.225-1.228 2.066-2.244 4.358-4.191 6.633-6.134.625-.529 1.507-1.167 1.908-1.904-2.306-2.312-5.5-3.136-8.127-4.617-.725-.401-1.06-.792-1.768-.603-.581.15-1.033.836-1.516 1.154-.758.504-1.396 1.24-2.058 1.87-1.362 1.309-2.773 2.649-4.059 4.092-.706.81-1.533 1.56-2.171 2.417-.318.426-.552.676-.965.964-.302.212-.564.129-.534.56.724.357 1.481.54 2.205.849.759.332 1.465.883 2.206 1.283 1.257.685 2.464 1.176 3.721 1.767.732.344 1.973 1.167 2.551.688.061-.06.131-.148.199-.25z"/><path d="M81.282 40.4c.157-.254.312-.629.485-.822.345-.405.74-.755 1.067-1.125 1.81-2.045 3.834-3.836 5.824-5.617.534-.473 1.024-1.067 1.586-1.494.59-.439.929-.551-.152-1.009-1.666-.684-3.234-1.696-4.879-2.516-.965-.473-2.008-1.054-2.999-1.309-1.1-.279-1.369.539-2.127 1.098-.87.651-1.637 1.62-2.412 2.396-.965.957-1.918 1.942-2.801 2.998-.628.732-1.353 1.416-1.903 2.197-.275.388-.482.616-.844.882-.258.194-.5.117-.475.512.646.319 1.318.475 1.956.745.672.289 1.302.78 1.945 1.134 1.112.607 2.181 1.042 3.292 1.562.656.298 1.75 1.039 2.257.595a.796.796 0 0 0 .18-.227z"/><path d="M97.603 48.273c.731-.779 1.67-1.774 1.809-1.921 1.282-1.326 2.522-2.692 3.842-3.979.921-.905 2.634-1.83 3.324-2.877.336-.517-.198-.673-.611-.965-.689-.487-1.438-.875-2.188-1.262-.823-.431-1.257-.969-2.18-1.271-.206-.064-2.592-1.076-2.493-1.167-.616.551-1.25 1.098-1.831 1.697-2.696 2.787-5.737 5.32-8.622 7.904-.294.263-.871.404-.793.827.06.28.568.521.783.633.656.349 1.396.487 2.085.736 1.224.449 2.351.952 3.523 1.525.815.396 1.653.694 2.473 1.072-.006-.003.386-.431.879-.952z"/><path d="M108.265 52.37c.19-.267.27-.667.347-1.124.18-.952.671-1.71.99-2.567.234-.624.755-2.327-.526-1.994-.757.198-1.413 1.494-1.911 2.093-.664.802-1.344 1.598-2.099 2.313-.53.508-.797.745.115 1.136.75.315 1.715.561 2.439.496.31-.03.509-.16.645-.353z"/></g><g fill="#fff"><path d="M100.522 76.46c.024-.384.046-.762.068-1.146.025-.255.077-.69-.068-.914-.113-.185-.285-.077-.449-.042-1.067.219-2.083.659-3.136.964-1.018.301-2.033.604-3.05.9-1.542.458-3.083.91-4.625 1.366-1.927.572-3.869 1.146-5.798 1.714-2.205.651-4.397 1.301-6.604 1.947-2.338.694-4.683 1.383-7.024 2.077l-7.056 2.08c-2.231.659-4.467 1.319-6.703 1.977-1.989.591-3.979 1.176-5.969 1.766-1.62.475-3.239.952-4.856 1.435l-2.415.71c-.764.225-1.552.337-2.301.591-.154.052-.472.133-.559.293-.105.207.059.465.024.703-.051.335-.102.667-.111 1.012-.01.474-.019.952-.01 1.426 0 .327-.089.77.07 1.076.258.491 1.051.22 1.442.083.659-.233 1.271-.535 1.951-.733.725-.211 1.438-.426 2.161-.643 2.026-.593 4.04-1.188 6.058-1.782l7.142-2.107c2.247-.663 4.505-1.331 6.758-1.994 1.623-.483 3.261-.964 4.89-1.447.421-.121.929-.379 1.326-.083.408.306.292.724.267 1.163-.104 1.56-.077 3.14-.112 4.699-.025 1.461-.087 2.929-.114 4.394 0 .263-.075.813.235.943.274.108.801-.313 1.046-.414.288-.116.573-.202.865-.306.466-.168.923-.396 1.38-.594.215-.095.628-.19.792-.379.18-.207.051-.483.051-.725.009-.296.019-.594.025-.891.035-1.758.174-3.511.165-5.267 0-1.021.129-2.042.154-3.072.025-1.279 1.16-1.34 2.094-1.731 2.745-1.132 5.763-1.788 8.589-2.688 2.094-.668 4.187-1.348 6.297-1.994 1.396-.431 2.825-.767 4.217-1.237.806-.276 1.659-.452 2.427-.853.309-.16.377-.361.395-.688.028-.528.045-1.058.071-1.589z"/><path d="M41.279 110.591c.25-.086.49-.171.749-.232.577-.138 1.171-.383 1.74-.56.354-.112.716-.224 1.078-.336.907-.284 1.816-.569 2.729-.853 2.456-.767 4.902-1.534 7.351-2.296 3.01-.938 6.012-1.878 9.019-2.816 3.222-1.008 6.443-2.012 9.665-3.02 3.102-.969 6.212-1.942 9.316-2.907.883-.276 1.771-.543 2.658-.801 2.266-.663 4.428-1.516 6.667-2.261 1.913-.642 3.773-1.413 5.66-2.124.44-.169.87-.34 1.318-.478.249-.078.569-.112.784-.276.465-.361.326-1.43.326-1.955.01-.758.051-1.529-.068-2.283-.353-.064-.724.099-1.06.199-.84.248-1.653.642-2.497.904a86.287 86.287 0 0 0-3.999 1.361c-.61.22-1.196.444-1.817.612-2.488.676-4.936 1.533-7.398 2.3-2.845.888-5.687 1.775-8.521 2.666-3.023.942-6.057 1.887-9.079 2.835-2.938.917-5.877 1.83-8.813 2.752-2.56.797-5.127 1.602-7.693 2.403-1.912.599-3.833 1.197-5.754 1.796-1.051.329-2.11.655-3.145 1.021-.181.065-.362.043-.491.206-.263.341-.13.883-.095 1.275.034.518-.008.965.052 1.487.034.306-.008.616.034.922.078.474 0 .891.552.719.25-.08.491-.169.732-.26z"/></g></g></svg>