<svg id="レイヤー_1" xmlns="http://www.w3.org/2000/svg" viewBox="0 0 128 128"><g><g><path d="M127.342 59.749c-.373-9.946-.083-19.914-1.677-29.772-1.229-7.634-3.842-13.501-11.793-15.147 0 0-.304-.142-2.087-.337a44.795 44.795 0 0 0-4.034-.33c-6.354-.408-19.205-.85-45.115-.85-21.331 0-33.501.396-40.323.779-2.5.05-5.042.188-7.468.621-.517.075-.717.117-.717.117-7.95 1.646-10.559 7.513-11.792 15.147C.744 39.836 1.027 49.803.661 59.749c-.476 12.672-.792 25.364.675 37.982.325 2.791.908 5.971 1.967 8.571 2.992 7.413 13.343 7.254 19.626 7.671 10.81.725 21.689.775 32.519.675a658.14 658.14 0 0 0 8.551-.137c2.854.062 5.705.112 8.555.137 10.832.1 21.71.05 32.52-.675 6.279-.417 16.63-.258 19.63-7.671 1.05-2.6 1.634-5.78 1.959-8.571 1.465-12.618 1.152-25.31.679-37.982z" fill="#2f2f2f"/><path d="M19.754 104.977c-2.158.059-4.309.221-6.467.242-6.593.054-5.759-7.354-6.076-12.396-.158-2.504-.233-5.022-.116-7.53.042-.938-.017-6.121 1.542-6.104.908.008 1.808-.021 2.717-.067.666-.038 1.149-.196 1.541.321l.101.15c2.333 4.025 3.726 8.921 4.783 13.48.249 1.099 2.183 11.9 1.975 11.904z" fill="#ed6c30"/><path d="M28.305 28.493c-.472 3.429-1.129 6.754-1.893 9.971-2.491 10.559-5.309 20.822-9.084 29.344-.732 1.65-1.524 3.208-2.35 4.758-.3.575-.441 1.059-1.05 1.267l-1.292-.1c-.134-.533.175-1.304.275-1.854.125-.7.267-1.404.392-2.117.267-1.596.408-3.254.267-4.904-.025-.35.108-2.546-.226-2.684-.583-.237-1.649 3.317-1.758 3.738-.209.804-.45 1.621-.742 2.383-.408 1.083-.775 2.15-1.217 3.2-.282.668-.574 1.184-.907 1.805-.2.367-.283.613-.717.684-.316.05-.75.033-1.009-.204-.341-.325-.208-.846-.199-1.296.024-1.184.1-2.371.133-3.58.059-2.2.142-4.438.217-6.717.167-5.296.434-10.809.825-16.551.375-5.567.634-11.53 1.908-17.418.275-1.254.441-4.192 1.783-4.45l.192-.017h-.175c.524-.008 1.017-.296 1.541-.337.867-.071 1.733-.067 2.601-.117 1.7-.092 3.4-.2 5.092-.196 1.816.008 3.584.158 5.4.162.588 0 1.833-.071 2.167.604.497 1.017-.025 3.538-.174 4.626z" fill="#ed6c30"/><path d="M120.939 92.822c-.312 5.042.521 12.451-6.075 12.396-2.154-.021-3.421-.183-5.571-.242-.208-.004.829-10.805 1.083-11.905 1.055-4.559 2.442-9.455 4.784-13.48l.1-.15c.388-.517.872-.358 1.542-.321.904.046 1.809.075 2.713.067 1.559-.017 1.504 5.167 1.546 6.104.116 2.51.033 5.027-.122 7.531z" fill="#ed6c30"/><path d="M121.16 73.779c-.258.237-.691.254-1.013.204-.431-.071-.516-.317-.712-.684-.334-.621-.63-1.137-.909-1.804-.445-1.05-.808-2.117-1.221-3.2a23.63 23.63 0 0 1-.741-2.383c-.108-.421-1.176-3.975-1.755-3.738-.333.138-.199 2.333-.229 2.684-.138 1.65.004 3.309.271 4.904.121.712.267 1.417.392 2.117.098.55.404 1.321.271 1.854l-1.287.1c-.612-.209-.75-.692-1.055-1.267-.824-1.55-1.616-3.108-2.346-4.758-3.777-8.521-6.592-18.785-9.088-29.344-.759-3.217-1.417-6.542-1.888-9.971-.15-1.088-.671-3.609-.175-4.625.331-.675 1.581-.604 2.167-.604 1.809-.004 3.579-.154 5.396-.162 1.696-.004 3.397.104 5.093.196.866.05 1.737.046 2.604.117.525.041 1.013.329 1.538.337h-.171l.188.017c1.346.258 1.513 3.196 1.783 4.45 1.279 5.888 1.538 11.851 1.913 17.418.383 5.742.656 11.255.825 16.551.07 2.279.153 4.517.212 6.717.035 1.208.108 2.396.134 3.58.012.448.145.969-.197 1.294z" fill="#ed6c30"/><path d="M97.95 69.204v-29.49s.242-1.75-2.346-1.033c-1.296.358-12.155 3.413-32.305 3.413-20.161 0-29.418-3.054-30.712-3.413-2.592-.717-2.351 1.033-2.351 1.033v41.057s-.241 1.75 2.351 1.033c1.294-.358 16.397-3.592 31.506-3.592 15.105 0 30.215 3.233 31.511 3.592 2.588.717 2.346-1.033 2.346-1.033V69.204z" fill="#fff"/></g><g fill="#ed6c30"><path d="M34.268 23.172c.062 4.879 3.842 8.819 8.509 8.819 4.671 0 8.454-3.94 8.513-8.819H34.268z"/><path d="M63.189 23.172c.062 4.879 3.847 8.819 8.51 8.819 4.675 0 8.458-3.94 8.519-8.819H63.189z"/><path d="M77.195 23.172c.065 4.879 3.842 8.819 8.509 8.819 4.671 0 8.454-3.94 8.514-8.819H77.195z"/><path d="M49.022 23.172c.059 4.879 3.842 8.819 8.509 8.819 4.671 0 8.45-3.94 8.52-8.819H49.022z"/></g><g fill="#ed6c30"><path d="M73.24 98.593c-4.354-.087-4.267.344-8.404.344s-4.051-.431-8.405-.344c-4.354.087-4.423 7.64-4.423 7.64 5.073 1.469 20.584 1.469 25.658 0 0 0-.071-7.552-4.426-7.64z"/><path d="M71.374 90.051c-3.384-.059-3.317.233-6.538.233s-3.15-.292-6.536-.233c-3.39.058-3.443 5.217-3.443 5.217 3.95 1.004 16.013 1.004 19.959 0-.001 0-.05-5.159-3.442-5.217z"/><path d="M69.141 84.146c-2.238-.038-2.192.146-4.321.146-2.13 0-2.084-.184-4.321-.146-2.24.038-2.279 3.273-2.279 3.273 2.612.627 10.588.627 13.196 0-.001.001-.034-3.235-2.275-3.273z"/></g><g fill="#ed6c30"><path d="M44.306 98.593c-4.354-.087-4.268.344-8.405.344s-4.05-.431-8.404-.344-4.426 7.64-4.426 7.64c5.075 1.469 20.585 1.469 25.66 0-.001 0-.071-7.552-4.425-7.64z"/><path d="M46.438 90.051c-3.383-.059-3.316.233-6.537.233-3.222 0-3.15-.292-6.538-.233-3.388.058-3.442 5.217-3.442 5.217 3.95 1.004 16.014 1.004 19.961 0 0 0-.051-5.159-3.444-5.217z"/><path d="M49.139 84.146c-2.237-.038-2.191.146-4.32.146-2.13 0-2.084-.184-4.321-.146-2.24.038-2.279 3.273-2.279 3.273 2.612.627 10.588.627 13.196 0-.001.001-.033-3.235-2.276-3.273z"/></g><g fill="#ed6c30"><path d="M85.041 98.593c4.354-.087 4.268.344 8.405.344 4.138 0 4.05-.431 8.404-.344s4.426 7.64 4.426 7.64c-5.075 1.469-20.585 1.469-25.66 0 0 0 .071-7.552 4.425-7.64z"/><path d="M82.908 90.051c3.383-.059 3.316.233 6.537.233 3.222 0 3.15-.292 6.538-.233 3.388.058 3.442 5.217 3.442 5.217-3.95 1.004-16.014 1.004-19.958 0 .001 0 .049-5.159 3.441-5.217z"/><path d="M80.208 84.146c2.237-.038 2.191.146 4.32.146 2.13 0 2.084-.184 4.321-.146 2.242.038 2.279 3.273 2.279 3.273-2.612.627-10.588.627-13.196 0 .001.001.036-3.235 2.276-3.273z"/></g></g></svg>