<svg id="レイヤー_1" xmlns="http://www.w3.org/2000/svg" viewBox="0 0 128 128"><g><path d="M119.137 65.136c0 30.089-24.393 54.487-54.486 54.487-30.094 0-54.487-24.397-54.487-54.487 0-30.089 24.393-54.487 54.487-54.487 30.093 0 54.486 24.398 54.486 54.487z" fill="#006ca2"/><g><circle cx="64.65" cy="65.136" r="35.327" fill="#ed6c30"/><path d="M64.65 102.593c-20.66 0-37.459-16.801-37.459-37.457 0-20.655 16.799-37.46 37.459-37.46 20.651 0 37.46 16.805 37.46 37.46 0 20.656-16.808 37.457-37.46 37.457zm0-70.651c-18.302 0-33.194 14.891-33.194 33.194 0 18.301 14.892 33.189 33.194 33.189 18.305 0 33.193-14.888 33.193-33.189.001-18.303-14.888-33.194-33.193-33.194z" fill="#fff"/></g><circle cx="64.65" cy="65.136" r="16.66" fill="#fff"/><path d="M122.153 20.3c-1.675-1.7-3.925-1.7-4.666-1.7l-.284.004c-.642.013-1.274.021-1.916.03-1.351.021-3.192.416-3.976-.909-.617-1.037-1.125-1.25-2.325-1.538-1-.237-2.175-.387-2.441-1.575-.15-.638-.059-1.296-.143-1.957-.107-.915-.308-1.735-.308-2.686.008-.938-.067-1.823-.15-2.74-.033-.408-.033-.871-.292-1.219-.558-.733-1.142-.95-2.125-.95-.333 0-.683.038-1.021.1-2.421.467-3.763 2.425-4.488 3.479-.083.121-.158.237-.233.333l-.091.121c-.742.921-1.584 1.967-2.317 3.158-.708 1.159-1.6 2.296-2.542 3.496l-.241.309c-.692.883-1.275 1.763-1.842 2.613a48.12 48.12 0 0 1-.967 1.438l-.191.254c-.421.559-1 1.325-1.376 2.33-.574 1.525-.566 3.021-.5 4.013.051.796.167 1.629.358 2.562.142.7.317 1.4.492 2.1.15.58.3 1.159.421 1.746.212 1.087.438 2.167.671 3.263l.033.154.059.279c.066.3.175.583.304.854a8306.324 8306.324 0 0 0-7.413 9.355C77.701 53.26 71.659 60.773 68.5 64.707l-2.142 2.679c-.458.583-.741 1.15-.866 1.733-.125.592.017 1.18.408 1.663a2.479 2.479 0 0 0 1.883.888c.259 0 .509-.046.742-.133.206-.075.8-.308 3.542-3.346 2.033-2.25 4.842-5.492 7.863-8.971 2.312-2.675 4.754-5.496 7.062-8.122 2.9-3.292 5.509-6.25 7.892-8.909l.329.008c1.096.038 2.195.062 3.312.087.583.013 1.184.054 1.775.096.725.05 1.45.1 2.175.117.191.004.388.009.575.009.725 0 1.383-.038 2.008-.113.983-.112 2.468-.367 3.867-1.204.908-.55 1.567-1.25 2.042-1.763l.217-.233c.4-.408.816-.804 1.233-1.204.741-.708 1.509-1.438 2.259-2.284l.25-.279c1.017-1.146 1.979-2.225 3-3.142 1.05-.946 1.908-1.929 2.741-2.884.125-.146.233-.242.334-.346.908-.896 2.6-2.562 2.634-5.034.019-1.416-.502-2.737-1.482-3.72z" fill="#fff"/><g><g><g><g><path d="M92.41 31.567c-.233-1.075-.45-2.138-.667-3.213-.254-1.296-.642-2.562-.908-3.858a14.982 14.982 0 0 1-.283-1.967c-.042-.742-.033-1.538.233-2.242.217-.562.704-1.125 1.054-1.617.913-1.284 1.713-2.65 2.688-3.897 1.075-1.362 2.158-2.721 3.067-4.2.617-1.004 1.367-1.925 2.1-2.846.55-.675 1.275-2.108 2.2-2.288 1.05-.205 1.329 1.083 1.45 1.85.191 1.183.392 2.358.587 3.542.079.513.213 1.029.329 1.538.158.738.358 1.475.4 2.238.033.546.191 1.121-.042 1.646-.175.421-.542.75-.816 1.104-.434.554-.726 1.192-1.142 1.759-.367.504-.775.983-1.084 1.525-.408.712-.625 1.342-1.191 1.983-.625.705-1.225 1.434-1.875 2.113-.6.621-1.408 1.113-1.942 1.775-.416.513-.625 1.159-1.041 1.692-.584.754-1.176 1.504-1.75 2.259-.367.475-.759 1.225-1.275 1.538-.025-.146-.059-.288-.092-.434z" fill="#fff"/><path d="M102.11 5.42c.876 0 1.117 1.158 1.234 1.871.191 1.183.392 2.358.587 3.542.079.513.213 1.029.329 1.538.158.738.358 1.475.4 2.238.033.546.191 1.121-.042 1.646-.175.421-.542.75-.816 1.104-.434.554-.726 1.192-1.142 1.759-.367.504-.775.983-1.084 1.525-.408.712-.625 1.342-1.191 1.983-.625.705-1.225 1.434-1.875 2.113-.6.621-1.408 1.113-1.942 1.775-.416.513-.625 1.159-1.041 1.692-.584.754-1.176 1.504-1.75 2.259-.367.475-.759 1.225-1.275 1.538-.025-.146-.059-.288-.092-.434-.233-1.075-.45-2.138-.667-3.213-.254-1.296-.642-2.562-.908-3.858a14.982 14.982 0 0 1-.283-1.967c-.042-.742-.033-1.538.233-2.242.217-.562.704-1.125 1.054-1.617.913-1.284 1.713-2.65 2.688-3.897 1.075-1.362 2.158-2.721 3.067-4.2.617-1.004 1.367-1.925 2.1-2.846.55-.675 1.275-2.108 2.2-2.288.08-.015.15-.021.216-.021m0-4.267c-.341 0-.688.033-1.024.1-2.417.467-3.759 2.417-4.476 3.465-.083.123-.167.24-.237.335l-.112.142c-.742.921-1.569 1.965-2.301 3.146-.727 1.184-1.642 2.342-2.6 3.567l-.184.23c-.691.887-1.275 1.762-1.829 2.608-.329.487-.646.971-.987 1.446l-.2.269c-.413.557-.983 1.319-1.367 2.319-.575 1.523-.559 3.021-.5 4.013.05.804.167 1.617.358 2.562.15.7.316 1.394.492 2.085.149.586.3 1.169.425 1.761.217 1.092.434 2.175.675 3.271l.05.219.025.148 1.191 5.958 5.2-3.146c1.176-.711 1.871-1.737 2.288-2.354.054-.08.104-.161.158-.229.446-.586.896-1.163 1.35-1.742l.387-.5a9.333 9.333 0 0 0 .909-1.444c.037-.069.066-.142.108-.21.091-.083.291-.248.441-.371.358-.292.8-.654 1.233-1.108.491-.509.95-1.036 1.404-1.565.195-.223.388-.448.587-.669.759-.858 1.167-1.665 1.467-2.252.075-.144.148-.292.233-.444.084-.146.267-.388.45-.623.125-.168.259-.339.384-.515.258-.352.5-.741.733-1.133.108-.171.2-.346.325-.504l.116-.142c.325-.377.875-1.006 1.263-1.921.612-1.402.471-2.688.396-3.375l-.017-.175c-.059-.985-.258-1.852-.416-2.548l-.084-.375-.125-.521c-.059-.26-.125-.523-.167-.783l-.241-1.469c-.108-.685-.225-1.369-.333-2.054-.822-5.081-4.38-5.472-5.448-5.472z" fill="#2f2f2f"/></g><g><path d="M93.91 34.022c1.1.033 2.198.058 3.283.083 1.325.033 2.646.184 3.959.217.667.013 1.325 0 1.983-.075.742-.087 1.525-.237 2.167-.629.517-.309.983-.883 1.408-1.312 1.101-1.134 2.301-2.163 3.351-3.346 1.162-1.292 2.3-2.604 3.592-3.763.884-.788 1.658-1.679 2.434-2.571.566-.654 1.85-1.625 1.858-2.571.017-1.071-1.3-1.113-2.075-1.096-1.2.025-2.392.033-3.588.054-.521.013-1.054-.033-1.571-.054-.758-.034-1.524-.096-2.274 0-.551.071-1.142.012-1.617.329-.383.254-.642.667-.938 1.004-.471.521-1.046.925-1.529 1.438-.429.45-.833.933-1.309 1.337-.633.529-1.208.85-1.741 1.521-.579.737-1.192 1.463-1.75 2.221-.5.696-.842 1.583-1.4 2.225-.433.5-1.033.821-1.483 1.325-.634.708-1.267 1.421-1.908 2.126-.4.441-1.075.958-1.284 1.521.145.003.291.012.432.016z" fill="#fff"/><path d="M109.328 18.908c.458 0 .925.029 1.383.05.459.019.926.056 1.384.056.066 0 .125 0 .188-.002 1.196-.021 2.388-.029 3.588-.054l.204-.002c.779 0 1.888.117 1.871 1.098-.009.946-1.292 1.917-1.858 2.571-.775.892-1.55 1.784-2.434 2.571-1.292 1.158-2.43 2.471-3.592 3.763-1.05 1.183-2.25 2.212-3.351 3.346-.425.429-.892 1.004-1.408 1.312-.642.392-1.425.542-2.167.629-.517.06-1.042.079-1.566.079-.127 0-.275 0-.417-.004-1.312-.033-2.634-.184-3.959-.217-1.085-.025-2.183-.05-3.283-.083-.142-.004-.287-.013-.434-.017.209-.562.884-1.079 1.284-1.521.642-.705 1.275-1.417 1.908-2.126.45-.504 1.05-.825 1.483-1.325.559-.642.9-1.529 1.4-2.225.558-.758 1.171-1.483 1.75-2.221.533-.671 1.108-.992 1.741-1.521.476-.404.88-.888 1.309-1.337.483-.513 1.059-.917 1.529-1.438.296-.337.555-.75.938-1.004.476-.317 1.066-.258 1.617-.329.297-.036.592-.049.892-.049m0-4.267c-.517 0-.983.027-1.434.085l-.175.011c-.684.048-1.959.133-3.255.992-.837.558-1.354 1.202-1.662 1.587l-.11.142a5.052 5.052 0 0 1-.423.377c-.351.31-.7.623-1.025.966-.125.129-.275.294-.425.46-.2.215-.404.438-.525.542-.133.11-.267.208-.392.304-.525.398-1.242.942-1.95 1.837l-.467.588a36.716 36.716 0 0 0-1.375 1.758c-.383.523-.658 1.023-.883 1.425-.092.163-.209.379-.284.496-.058.05-.116.096-.183.142-.334.271-.805.638-1.275 1.163l-.627.704c-.415.463-.832.929-1.257 1.388a1.998 1.998 0 0 1-.2.202c-.533.521-1.429 1.392-1.916 2.686l-2.117 5.602 5.983.171.159.006.287.01c1.096.033 2.196.061 3.305.086.583.012 1.183.058 1.783.1.725.05 1.438.098 2.158.117l.525.004c.763 0 1.434-.033 2.059-.108 1.013-.119 2.5-.375 3.892-1.219.892-.538 1.542-1.229 2.009-1.735l.225-.238c.417-.425.833-.821 1.25-1.221.742-.704 1.5-1.436 2.25-2.281l.301-.327c1-1.128 1.949-2.192 2.95-3.09 1.074-.965 1.949-1.973 2.8-2.948.083-.088.184-.184.292-.288.899-.896 2.583-2.561 2.616-5.027.017-1.419-.504-2.74-1.479-3.723-1.68-1.698-3.922-1.698-4.659-1.698l-.296.002c-.675.015-1.346.025-2.017.033l-1.559.021-.108.002c-.225 0-.458-.015-.684-.027l-.533-.025-.333-.017c-.399-.02-.811-.037-1.216-.037z" fill="#2f2f2f"/></g></g><path d="M110.887 14.274c-.342-.583-1.051-1.35-2.476-1.712a3.966 3.966 0 0 0-.95-.121c-1.741 0-2.82 1.25-3.792 2.367-1.35 1.571-2.633 3.229-3.883 4.833-.626.812-1.259 1.629-1.896 2.429-1.421 1.788-9.229 11.643-16.672 21.035-4.942 6.242-10.976 13.755-14.134 17.693-1.196 1.496-1.992 2.475-2.15 2.675-.459.583-.741 1.15-.866 1.733a1.955 1.955 0 0 0 .416 1.663 2.46 2.46 0 0 0 1.875.888c.259 0 .509-.046.742-.133.204-.075.8-.309 3.55-3.346 2.025-2.25 4.838-5.488 7.855-8.971 2.317-2.675 4.755-5.497 7.071-8.117 14.293-16.234 21.735-24.744 22.743-26.023l.351-.429c1.508-1.858 2.371-2.996 2.554-3.688.245-.971.129-1.984-.338-2.776z" fill="#2f2f2f"/></g></g></g></svg>