<svg id="レイヤー_1" xmlns="http://www.w3.org/2000/svg" xmlns:xlink="http://www.w3.org/1999/xlink" viewBox="0 0 128 128"><g><g><g><g><g><defs><path id="SVGID_1_" d="M103.442 27.847c-2.146-5.08-6.793-11.665-11.577-14.604-11.143-6.848-25.302-8.171-37.926-5.75-19.845 3.808-38.443 16.64-47.747 34.721-6.594 12.798-7.951 32.308.83 44.593 5.733 8.01 17.099 11.042 26.118 7.285 6.128-2.548 9.931-8.23 15.227-11.954 6.878-4.843 14.342-3.473 22.319-3.778 22.918-.878 41.644-29.4 32.756-50.513zM69.748 60.893c-1.824.704-4.215 1.115-6.166.818-1.984-.31-4.079-1.764-5.131-3.481-3.647-5.924 2.409-12.768 8.006-14.256 2.782-.738 6.861-.276 9.066 1.629 5.738 4.943-.517 13.25-5.775 15.29z"/></defs><use xlink:href="#SVGID_1_" overflow="visible" fill="#f79329"/><clipPath id="SVGID_2_"><use xlink:href="#SVGID_1_" overflow="visible"/></clipPath></g><path d="M43.474 21.593c1.569-1.264 3.588-2.052 5.479-2.214 3.451-.296 5.894 2.773 5.75 6.174-.188 4.304-4.911 6.386-8.846 6.221-3.062-.132-5.58-2.888-5.071-5.873.301-1.738 1.322-3.202 2.688-4.308z" fill="#ed6c30"/><path d="M16.491 53.68c1.194-4.788 6.876-7.815 10.933-4.397 3.863 3.252 2.05 9.694-2.04 12.047-2.722 1.569-6.759.518-8.328-2.387-.873-1.612-1.004-3.499-.565-5.263z" fill="#bdcf46"/><path d="M28.734 70.019c2.272 4.304.763 10.928-4.774 11.394-5.53.458-8.617-6.047-7.188-10.813 1.426-4.741 7.29-5.521 10.589-2.404a7.014 7.014 0 0 1 1.373 1.823z" fill="#006ca2"/><path d="M38.283 39.458c-1.492 2.744-4.961 5.131-8.174 4.729-4.028-.5-5.607-5.301-3.855-8.727 2.403-4.699 9.923-6.577 12.436-.797.688 1.589.416 3.285-.407 4.795z" fill="#fcc21b"/></g></g><g><g><g><defs><path id="SVGID_3_" d="M73.563 88.643c-5.054-.195-10.423 2.104-13.696 6.369-3.4 4.418-3.299 10.075-3.443 15.376-.084 2.883.396 6.903-1.688 9.235-.941 1.052-1.934 1.272-3.214 1.429-.501.064-2.943-.318-2.019 1.078 1.755 2.671 8.261 3.345 11.05 3.473 7.498.339 14.885-2.977 19.829-8.591a26.07 26.07 0 0 0 1.458-1.832c3.687-5.084 5.853-12.28 3.478-18.328-2.136-5.445-6.801-8.018-11.755-8.209z"/></defs><use xlink:href="#SVGID_3_" overflow="visible" fill="#fff"/><clipPath id="SVGID_4_"><use xlink:href="#SVGID_3_" overflow="visible"/></clipPath><path d="M65.054 103.628c.114.241.205.546.259.941.313 2.379 2.129 2.905 4.291 2.905 2.188 0 4.923-.483 4.919 2.456-.009 1.263-.61 2.192.653 2.96 1.904 1.157 5.537.886 7.384-.323 1.139-.746 2.742-1.424 2.021.708-.415 1.226-1.238 2.362-1.841 3.52-.662 1.268-1.494 2.282-2.489 3.299-.729.755-1.229 1.646-2.073 2.29-2.154 1.628-4.953 2.137-7.463 2.96-3.359 1.098-6.573 3.06-10.169 2.048-3.808-1.073-7.964-.64-11.713-1.874-1.848-.607-3.002-1.735-2.722-3.723.246-1.709 1.423-2.345 2.977-2.689 1.76-.385 3.198-.86 4.012-2.621.704-1.493.217-3.664.119-5.237-.145-2.146-.377-4.418.173-6.526.464-1.739.973-3.481 1.727-5.123.348-.772.721-1.713 1.281-2.354.873-1.001 1.941-1.454 3.12-1.984.374.954-.424 2.455-.56 3.422-.229 1.65-.178 3.422 1.501 4.088 1.629.641 3.795-.805 4.593.857z" clip-path="url(#SVGID_4_)" fill="#ed6c30"/></g><path d="M91.934 60.63c5.674-6.521 9.847-14.307 14.96-21.291 3.139-4.278 6.03-8.803 8.949-13.213 1.848-2.791 4.511-7.684 8.428-7.612.679.013 1.298.301 1.846.691 1.209.861 1.199 2.926.805 4.211-1.586 5.152-4.566 10.083-7.068 14.841a199.752 199.752 0 0 1-2.926 5.432c-2.949 5.254-6.03 10.431-8.752 15.808a102.078 102.078 0 0 0-2.969 6.378c-.568 1.336-1.448 2.481-1.798 3.884-.356 1.438-3.612-2.608-3.809-2.93-.737-1.23-1.416-1.879-2.738-2.324-.95-.314-6.043-1.039-5.632-2.659.098-.419.364-.83.704-1.216z" fill="#855c52"/></g></g></g><g><defs><path id="SVGID_5_" d="M102.544 68.365c-.959-2.01-2.816-3.143-4.453-4.139-.424-.259-.84-.509-1.222-.771-2.578-1.773-4.791-2.201-6.572-1.349-2.672 1.285-4.563 4.664-6.09 7.382-.415.742-.797 1.425-1.148 1.98-2.871 4.469-5.64 7.904-10.537 11.199l-.417.267c-1.109.713-2.628 1.688-2.747 3.456-.051.755.162 1.883 1.472 2.985 1.429 1.209 3.002 1.946 4.516 2.663.544.255 1.086.51 1.62.789 1.747.916 3.342 2.129 5.025 3.418l.996.755c.263.195.518.45.798.704.78.729 1.751 1.645 3.01 2.002.433.122.806.178 1.154.178 1.357 0 2.043-.84 2.407-1.289l.153-.182c1.464-1.713 2.176-3.999 2.808-6.018.305-.979.593-1.908.933-2.693a153.345 153.345 0 0 0 1.556-3.714c1.124-2.74 2.185-5.331 3.55-7.798.322-.589.789-1.2 1.289-1.845 1.474-1.937 3.509-4.596 1.899-7.98z"/></defs><use xlink:href="#SVGID_5_" overflow="visible" fill="#78a3ad"/><clipPath id="SVGID_6_"><use xlink:href="#SVGID_5_" overflow="visible"/></clipPath><path d="M93.706 98.857a2.261 2.261 0 0 1-1.865-.988c-.531-.789-.849-1.569-1.137-2.26-.258-.627-.479-1.17-.814-1.599-3.069-3.96-6.793-6.704-12.849-9.469-1.814-.827-3.455-1.243-4.859-1.243a2.254 2.254 0 0 1-2.256-2.251 2.254 2.254 0 0 1 2.256-2.252c2.052 0 4.316.556 6.726 1.65 4.715 2.154 10.135 5.123 14.544 10.809.705.912 1.087 1.832 1.416 2.646.23.559.429 1.043.705 1.446a2.254 2.254 0 0 1-.603 3.125 2.244 2.244 0 0 1-1.264.386z" clip-path="url(#SVGID_6_)" fill="#2f2f2f"/></g></g></svg>