<svg id="レイヤー_1" xmlns="http://www.w3.org/2000/svg" xmlns:xlink="http://www.w3.org/1999/xlink" viewBox="0 0 128 128"><g><g><path d="M16.479 21.657s-3.807-2.539-6.423-4.423c-2.92-2.103-4.664-3.624-4.274-4.519.228-.527 1.623-.388 4.001.15 3.965.899 9.63 2.677 9.63 2.677l-2.934 6.115z" fill="#fcc21b"/></g><g><defs><path id="SVGID_1_" d="M58.58 3.02h9.989v124.695H58.58z"/></defs><use xlink:href="#SVGID_1_" overflow="visible" fill="#fcc21b"/><clipPath id="SVGID_2_"><use xlink:href="#SVGID_1_" overflow="visible"/></clipPath><g clip-path="url(#SVGID_2_)" fill="#f79329"><path d="M58.271 27.65c-.583 0-.941-.046-1.005-.054l.314-2.275-.157 1.136.148-1.136c.255.023 6.365.736 11.133-5.911l1.866 1.337c-4.45 6.217-10.048 6.903-12.299 6.903z"/><path d="M58.271 38.164a7.13 7.13 0 0 1-1.005-.059l.314-2.273-.157 1.14.148-1.14c.255.026 6.365.735 11.133-5.908l1.866 1.337c-4.45 6.212-10.048 6.903-12.299 6.903z"/><path d="M58.271 48.674c-.583 0-.941-.046-1.005-.054l.314-2.275-.157 1.136.148-1.136c.255.023 6.365.736 11.133-5.911l1.866 1.337c-4.45 6.216-10.048 6.903-12.299 6.903z"/><path d="M58.271 97.56c-.583 0-.941-.049-1.005-.053l.314-2.278-.157 1.139.148-1.139c.255.026 6.365.734 11.133-5.908l1.866 1.338c-4.45 6.21-10.048 6.901-12.299 6.901z"/><path d="M58.271 108.07c-.583 0-.941-.046-1.005-.054l.314-2.275-.157 1.14.148-1.14c.255.023 6.365.736 11.133-5.912l1.866 1.338c-4.45 6.217-10.048 6.903-12.299 6.903z"/><path d="M58.271 118.584a7.13 7.13 0 0 1-1.005-.059l.314-2.273-.157 1.14.148-1.14c.255.026 6.365.735 11.133-5.908l1.866 1.337c-4.45 6.212-10.048 6.903-12.299 6.903z"/><path d="M58.271 129.093c-.583 0-.941-.045-1.005-.053l.314-2.275-.157 1.136.148-1.136c.255.023 6.365.736 11.133-5.911l1.866 1.336c-4.45 6.217-10.048 6.903-12.299 6.903z"/></g><path d="M70.784 9.712a7.213 7.213 0 0 1-14.424 0A7.21 7.21 0 0 1 63.568 2.5a7.212 7.212 0 0 1 7.216 7.212z" clip-path="url(#SVGID_2_)" fill="#f79329"/></g><path d="M70.784 7.492a7.213 7.213 0 0 1-7.216 7.212 7.21 7.21 0 0 1-7.208-7.212A7.21 7.21 0 0 1 63.568.284a7.212 7.212 0 0 1 7.216 7.208z" fill="#fcc21b"/><g><g><g><g><defs><path id="SVGID_3_" d="M126.333 77.43c-1.031-.529-1.795-.911-2.799-1.579-2.046-1.363-3.284-2.552-4.063-4.88-.889-2.683-1.71-5.53-2.923-8.083-2.198-4.624-6.381-8.393-11.583-9.088-2.75-.367-8.227.418-10.99 2.921-.135-.095-.258-.193-.398-.283-.691-.449-1.472-.609-2.248-.951-1.664-.727-3.615-1.367-5.427-1.493-6.217-.421-11.995 1.538-18.148 0-1.579-.395-3.148-.727-4.709-1.059a8.397 8.397 0 0 1-.665-.193c-1.646-1.251-3.785-2.462-4.632-3.458-6.506-7.643-3.756-20-10.561-28.061-6.525-7.729-15.892-12.052-25.921-8.45-3.483 1.248-4.073 4.71-5.098 7.791-1.469 4.428-2.017 8.967-3.255 13.447-.654 2.368-1.839 6.967-.609 9.308 1.422 2.691 6.414 3.284 8.962 2.337 3.857-1.444 4.979-5.719 7.213-8.585 1.901-2.448 4.382-1.399 5.212 1.076.655 1.988-.972 5.388-1.688 7.19-1.91 4.849-5.085 9.024-7.293 13.717-2.019 4.288-2.754 9.604-2.723 14.286.031 3.386 1.606 5.53-2.319 7.23-2.547 1.104-5.148 2.283-6.296 4.988-.987 2.323-1.033 4.938-1.267 7.419-.457 4.982-.869 9.836 1.082 14.435.382.9.936 1.448 1.637 2.283 1.759 2.104 3.051 3.964 6.016 3.694 1.919-.174 1.789-1.645 2.077-3.12.34-1.731.807-2.786.286-4.63-.565-1.96-3.1-1.795-3.476-3.983-.485-2.771-.113-6.091.735-8.75 1.799-5.616 8.105-3.894 12.689-3.41 3.974.417 7.938 1.015 11.939 1.059 5.002.055 10.004-.354 14.95-1.04 4.666-.642 9.28-1.772 13.981-2.037 3.994-.224 9.402 1.225 12.562 3.769 1.532 1.233 3.191 2.476 4.613 3.853 1.493 1.44 2.615 2.266 1.161 4.225-1.587 2.145-3.659 3.822-5.864 5.293-2.541 1.7-5.466 3.193-7.331 5.696-1.311 1.754-3.257 6.701-.538 8.078 1.354.683 4.243-.277 5.674-.775 1.898-.651 4.4-2.202 4.866-4.298.245-1.049.063-1.417.853-2.273.48-.534 1.086-1.176 1.66-1.628 1.794-1.423 4.394-2.131 6.435-3.168 3.164-1.601 9.273-4.05 10.449-7.854 2.179-7.119-8.469-13.959-8.469-21.221 0-3.185.646-6.427.386-9.608.044-.704.16-1.86.798-2.058.243-.077.561.031.853.228 1.444 2.76 1.814 6.527 3.025 9.223 3.46 7.711 10.744 10.595 18.459 6.952 1.262-.594 5.6-3.024 2.72-4.482z"/></defs><use xlink:href="#SVGID_3_" overflow="visible" fill="#d7598b"/><clipPath id="SVGID_4_"><use xlink:href="#SVGID_3_" overflow="visible"/></clipPath><path d="M51.229 47.709s-11.295 4.939-23.585 3.14c0 0-7.902 8.057-6.946 22.023l11.199-8.993 7.077 12.73 6.801-16.076 9.563 4.875 7.374-13.873-11.483-3.826z" clip-path="url(#SVGID_4_)" fill="#40c0e7"/><g clip-path="url(#SVGID_4_)" fill="#fcc21b"><path d="M28.935 48.462s11.86 2.203 22.634-4.377l2.287 4.377s-11.778 7.721-27.532 4.8l2.611-4.8z"/><path d="M20.384 71.096c.271-.27.539-.542.81-.812.691-.687 1.373-1.373 2.063-2.059.915-.92 1.83-1.835 2.745-2.75a862.72 862.72 0 0 1 2.871-2.866c.807-.812 1.614-1.619 2.432-2.431.241-.242.478-.484.712-.722.202-.193.489-.579.794-.548.283.027.396.372.494.592.224.516.448 1.032.673 1.543.556 1.274 1.107 2.548 1.668 3.817.588 1.341 1.148 2.691 1.749 4.028.18.407.825 2.311 1.419 2.311.528 0 1.933-3.912 1.933-3.912l.578-1.547c.432-1.167.87-2.329 1.302-3.49.466-1.243.924-2.481 1.39-3.724.135-.362.269-.73.411-1.099.109-.301.172-.749.549-.829.323-.067.597.21.82.398.472.403.966.789 1.456 1.162a30.422 30.422 0 0 0 4.649 2.857c.574.287 1.156.551 1.75.794L52 66.751s-2.815-.363-4.834-2.05c-.251-.21-.422-.413-.71-.394-.295.018-.414.694-.414.694L40.966 77.3s-1.498 3.077-3.582.574c-1.012-1.211-1.773-2.655-2.527-4.032a115.499 115.499 0 0 1-2.493-4.867c-.272-.552-.418-1.202-.746-1.722-.434-.673-1.085 0-1.462.417-.242.277-.521.515-.789.775-.753.758-1.498 1.534-2.252 2.288-1.633 1.628-3.266 3.269-4.902 4.893-.367.368-.731.732-1.1 1.099"/></g><path clip-path="url(#SVGID_4_)" fill="#40c0e7" d="M96.773 56.895l-14.833.094-.956 9.281 16.965.655 4.38-4.769z"/><g clip-path="url(#SVGID_4_)" fill="#fcc21b"><path d="M101.443 64.781l-1.691-4.279c-7.355 6.221-17.691 2.642-17.691 2.642l-.627 2.152-1.095-.295-2.317 7.347s4.237 1.65 6.642-2.225c0 0 .569 3.96 5.073 4.006 3.09.035 3.911-2.499 4.135-3.916l.006.004s1.336 4.63 6.812 3.957c0 0 .902-4.078.249-8.972.33-.256.504-.421.504-.421z"/><path d="M96.773 56.895s-4.844-3.516-11.774-4.593l-1.619 6.409s7.939 2.679 13.393-1.816z"/></g><path d="M93.975 56.721s7.384 3.548 6.554 12.972l1.403.914s2.306 14.019 12.3 14.363c0 0 14.236 2.297 15.386-7.007L117.33 57.286l-16.196-6.896-7.159 6.331z" clip-path="url(#SVGID_4_)" fill="#f79329"/><g clip-path="url(#SVGID_4_)" fill="#fcc21b"><path d="M16.843 17.182l-1.287 3.566s8.971 1.221 14.286 4.018l1.22-4.018c0-.001-7.33-3.424-14.219-3.566z"/><path d="M12.977 31.081l-1.01 3.445s8.33 2.081 14.928 6.818l1.799-3.303c-.001.001-6.603-5.236-15.717-6.96z"/><path d="M31.851 15.436s-1.722 10.909-9.549 20.524l3.374 1.723s6.96-7.966 9.62-20.74l-3.445-1.507z"/></g></g><path d="M27.271 12.88c-.095-1.045-.346-2.499.022-3.217.574-1.095 1.489-.274 2.646-.337 2.072-.116 3.48-.12 5.593.467 2.553.709 4.625 1.978 6.725 3.651 3.489 2.781 6.44 5.818 9.038 9.42 2.7 3.741 4.176 8.747 5.23 13.07.552 2.238.459 4.387.673 6.724.191 2.127.73 4.171.488 6.329-.278 2.548-1.723 2.261-3.853 2.261-2.669 0-3.892-.659-4.491-3.36-.521-2.354-.663-4.745-1.031-7.096-.372-2.457-.829-5.063-1.479-7.473-1.247-4.61-5.091-9.003-8.397-12.231-1.512-1.471-3.306-2.454-5.06-3.584-1.686-1.095-2.7-1.363-4.57-1.759-1.373-.295-1.494-.798-1.484-2.22 0-.184-.017-.404-.05-.645z" fill="#f79329"/><path d="M24.437 27.874a2.199 2.199 0 0 1-2.202 2.198 2.199 2.199 0 0 1 0-4.396c1.214 0 2.202.987 2.202 2.198z" fill="#2f2f2f"/><path d="M27.024 9.498c-.018-.131-.058-.257-.089-.382-.404-1.387-1.535-2.287-3.077-2.113-1.804.212-1.646 2.023-1.859 3.459-.168 1.134-.33 1.776-1.245 2.529-.413.346-2.53 2.477-1.83 3.001.252.18.646.071.922.103.393.045.77.211 1.16.292.564.125 1.144.135 1.713.281 1.758.467 3.553.785 5.324 1.077.498.08 1.01.261 1.512.274.386.008.776.205 1.091-.127.883-.941-.311-1.695-1.066-2.058-.894-.439-2.204-1.037-2.46-2.123-.315-1.348.138-2.873-.096-4.213z" fill="#d7598b"/></g></g><path d="M86.372 49.714c-.305-.758-.875-1.314-1.615-1.569-1.655-.583-4.238.004-6.688.636-.993.257-2.036.526-2.561.565a51.511 51.511 0 0 1-3.772.153c-2.82 0-5.046-.323-6.558-.925-.471-.233-2.135-1.35-2.817-1.938a2.28 2.28 0 0 0-.683-.905 2.297 2.297 0 0 0-3.229.332v.004a6.627 6.627 0 0 0-.331.435c-.614.843-1.086 1.745-1.553 2.614a25.779 25.779 0 0 1-.914 1.638c-.484.754-1.015 1.529-1.553 2.323-2.631 3.857-5.62 8.23-5.489 13.276.184 7.802 8.513 11.354 16.165 11.354.351 0 .682-.01 1.004-.022 7.729-.354 13.134-3.432 16.059-9.15.071-.131 5.975-15.242 4.535-18.821z" fill="#855c52"/></g><path d="M78.078 51.222c-.098 1.78-.367 3.924-1.036 6.189-.161.65-.336 1.296-.504 1.942a52.594 52.594 0 0 1-1.375 4.302c-.145.381-.265.802-.439 1.166-1.448 2.821-4.118 4.337-7.927 4.517-.156.005-.332.009-.498.009-3.775 0-7.885-1.754-7.975-5.603-.099-4.023 3.293-7.729 5.356-11.133 0 0 .416-.798.914-2.032-.986-.381-1.869-.78-2.53-1.139-2.843 4.691-7.517 9.805-7.387 15.349.131 5.312 5.79 7.725 11.003 7.725.232 0 .466 0 .682-.014 5.257-.241 8.936-2.332 10.926-6.227.252-.497.413-1.076.602-1.604a66.485 66.485 0 0 0 1.901-5.935c.453-1.713.952-3.437 1.211-5.189a16.379 16.379 0 0 0 .207-2.979 56.38 56.38 0 0 1-3.131.656z" fill="#b89278"/></g></svg>