<svg id="レイヤー_1" xmlns="http://www.w3.org/2000/svg" xmlns:xlink="http://www.w3.org/1999/xlink" viewBox="0 0 128 128"><g><g><defs><path id="SVGID_1_" d="M89.641 42.333l-.68.539.904-.909c-7.492-7.436-19.326-12.281-29.227-6.342-3.932 2.357-6.646 6.121-11.047 7.782-.896.337-1.949.605-2.904.839-.699.173-2.625.251-3.17.714-1.268 1.079 1.113 4.208 1.537 5.342 1.502 4.013-2.094 8.234-5.676 9.803-2.879 1.265-6.215 1.676-8.723-.644-.695-.641-1.238-1.211-1.67-2.052-.33-.64-.416-1.316-1.037-1.78-1.101-.822-1.764.128-2.369 1.02-1.127 1.668-1.695 2.501-3.66 3.344-3.842 1.646-8.063 2.057-11.492 4.594-11.441 8.467-12.54 24.623-6.2 36.439 4.145 7.726 10.174 15.082 17.438 20.057 11.064 7.579 27.244 8.237 36.898-2.22 2.891-3.134 3.754-7.289 5.807-10.929 1.049-1.865 1.947-2.34 3.719-3.28.961-.505 1.969-1.059 1.271-2.245-.387-.667-1.059-.825-1.654-1.222-.789-.521-1.299-1.117-1.861-1.877-2.037-2.75-1.264-6.02.307-8.749 1.945-3.389 6.531-6.509 10.357-4.579 1.084.547 3.932 3.253 5.149 2.108.514-.49.801-2.4 1.047-3.077.34-.926.723-1.939 1.15-2.794 2.125-4.195 6.162-6.49 8.934-10.142 6.973-9.203 3.436-21.491-3.148-29.74z"/></defs><use xlink:href="#SVGID_1_" overflow="visible" fill="#ed6c30"/><clipPath id="SVGID_2_"><use xlink:href="#SVGID_1_" overflow="visible"/></clipPath></g><g fill="#2f2f2f"><g><path d="M55.268 60.612l63.554-48.484 3.701 4.549-58.191 54.109z"/><path d="M114.166 4.922c-.709 2.26.188 4.423 1.559 6.223.719.939 1.541 1.787 2.365 2.625.369.378.854.747 1.158 1.176.23.321.713.857.861 1.261.119.331.029.829.029 1.186 0 .691-.104 1.213-.252 1.793.695-.296 1.32-.781 1.986-1.102 3.301-1.583 5.998-4.216 5.734-8.127-.223-3.365-3.068-7.354-6.408-8.399a6.521 6.521 0 0 0-4.229.103c-1.692.637-2.35 1.819-2.803 3.261z"/><path d="M110.219 15.001c-1.152.845-2.445 1.466-3.514 2.429-1.818 1.643-1.029 2.303.141 4.142a32.81 32.81 0 0 0 1.709 2.435c.486.626 1.078 1.066 1.547 1.678 1.27 1.629 2.855 2.887 4.742 1.295.908-.765 1.65-1.721 2.51-2.54 1.674-1.598 3.262-3.284 4.891-4.935 2.633-2.675 5.002-4.769 5.002-8.828 0-.912.016-1.938-.689-2.591-2.736-2.54-6.455.111-8.928 1.74a176.316 176.316 0 0 0-7.411 5.175z"/><path d="M102.164 13.913c.131-1.669 1.941-2.722 3.4-2.06.803.364 1.447.999 2.041 1.627.539.57.629 1.328 1.48 1.606.383.123.811.021 1.205.07-.098.374-.48.724-.756.973-.33.302-.602.623-.914.942-.391.4-.838.734-1.32 1.024-.125.08-1.447.701-1.439.744-.053-.42.186-1.057-.16-1.392-1.246-1.189-3.726-1.165-3.537-3.534z"/><path d="M111.344 14.861c.232-.195.461-.401.695-.586.9-.695 2.842-1.69 3.27-2.826-.371.156-1.053.43-1.443.202-.301-.175-.473-.784-.621-1.082-.449-.872-.756-1.964-1.621-2.527-.838-.545-1.957-.722-2.836-.187-1.021.617-1.453 1.592-1.021 2.719a5.143 5.143 0 0 0 1.182 1.826c1.072 1.047 2.035 1.637.978 3.237.045-.072.91-.382 1.082-.508.108-.085.22-.175.335-.268z"/><path d="M113.697 25.483c-.008.029-.008.058-.016.089-.066.355.016.717.016 1.075.008.293-.166.604-.147.866.594.191.879-.471 1.488.09.623.578.459 1.61 1.094 2.233 1.221 1.186 3.307 1.421 4.41-.068.854-1.156.518-2.409-.52-3.315-1.283-1.126-2.41-.904-1.799-2.883-.283-.031-.715.094-.982.154-.234.052-.525.114-.771.08-.545-.065-1.465-.382-1.934.021-.474.409-.724 1.049-.839 1.658z"/><path d="M118.312 20.736a.562.562 0 0 0-.041.128c-.123.516.205 1.021.209 1.55.006.292.008.994-.256 1.195.334-.323.631-.619 1.141-.537.691.111.986 1.012 1.465 1.439.738.659 1.768 1.197 2.762 1.261 1.762.113 3.711-1.898 2.539-3.696-.877-1.349-4.068-.833-3.236-2.99.086-.222.271-.395.32-.636-.369.467-1.104.901-1.65 1.115a3.91 3.91 0 0 1-.842.224c-.355.045-.646-.123-.986-.14-.71-.031-1.202.453-1.425 1.087z"/></g><g><path d="M34.395 68.344c-1.436.576-2.811.44-4.051-1.466-.293-.451-.881-.73-1.42-.794-3.418-.401-3.664 4.126-1.584 5.929 3.604 3.138 7.494 1.293 10.932-1.032 1.742-1.174 3.398-2.497 5.32-3.373.941-.428 2.143-.94 3.195-.818 1.439.165 1.457 1.542 2.666 1.834 1.686.405 3.635-1.205 3.125-2.928-.912-3.139-5.504-2.961-7.947-2.616-2.525.354-4.746 1.746-6.811 3.163-1.168.8-2.318 1.661-3.425 2.101z"/><path d="M55.443 93.46c-.828 1.312-.941 2.682.695 4.25.396.372.559 1.004.527 1.541-.234 3.438-4.731 2.846-6.123.471-2.424-4.119.102-7.601 3.018-10.56 1.477-1.493 3.082-2.877 4.299-4.608.592-.841 1.311-1.927 1.387-2.984.102-1.45-1.246-1.717-1.314-2.963-.09-1.728 1.854-3.349 3.457-2.536 2.912 1.476 1.9 5.959 1.109 8.298-.814 2.416-2.592 4.345-4.359 6.111-1 .999-2.057 1.973-2.696 2.98z"/></g></g><path fill="#2f2f2f" d="M34.752 79.995l8.654 9.208-18.701 12.839-3.904-5.023z"/><path fill="#2f2f2f" d="M4.611 111.531l3.908 5.021 16.186-14.51-3.904-5.023z"/></g></svg>