<svg id="レイヤー_1" xmlns="http://www.w3.org/2000/svg" viewBox="0 0 128 128"><path d="M122.503 59.016c-1.359-2.311-1.301-5.794-1.166-8.414.447-8.857-1.438-17.507-6.543-24.821-6.793-9.745-17.367-17.618-29.408-22.669-1.709-.719-3.744-1.327-5.688-1.346-.043-.01-.09-.034-.139-.044a4.936 4.936 0 0 0-5.848 3.821L57.396 83.306c-4.299-4.125-9.961-6.682-16.064-7.748-10.545-1.838-22.311.666-30.211 6.72-2.652 2.031-5.373 4.771-7.09 7.666-1.768 2.986-3.363 7.43-3.32 10.947.088 7.342 3.271 14.506 8.982 19.181 1.572 1.288 3.34 2.518 5.154 3.444 9.941 5.1 22.375 2.837 31.781-2.402 7.131-3.975 14.781-11.366 16.895-19.601.166-.342.293-.704.377-1.095l12.793-60.944c.82.154 1.592.275 2.172.396 3.357.709 6.637 1.727 9.783 3.092 5.828 2.538 11.463 6.305 14.877 11.795 3.406 5.485 6.475 10.816 12.766 13.445 2.615 1.095 7.535 1.312 9.793-.689 3.704-3.287-2.157-6.075-3.581-8.497z" fill="#006ca2"/></svg>