<svg id="レイヤー_1" xmlns="http://www.w3.org/2000/svg" viewBox="0 0 128 128"><g fill="#d7598b"><path d="M122.134 79.146c-.875-.94-1.205-2.581-1.421-3.818-.709-4.191-2.487-8.044-5.626-10.938-4.191-3.857-9.96-6.442-16.118-7.56-.877-.158-1.899-.231-2.814-.034-.017 0-.039-.013-.05-.013a2.371 2.371 0 0 0-2.347 2.396l.429 38.082c-2.438-1.486-5.359-2.096-8.327-1.962-5.128.236-10.37 2.628-13.438 6.279-1.032 1.224-2.023 2.788-2.525 4.32-.516 1.585-.8 3.823-.42 5.468.806 3.427 3.034 6.451 6.187 8.044.871.438 1.829.837 2.77 1.082 5.188 1.353 10.767-.992 14.628-4.415 2.973-2.649 5.835-7 5.877-11.136.017-.116.067-.224.059-.348l-.326-29.845c.403-.013.773-.038 1.057-.043 1.641-.013 3.276.12 4.892.434 2.998.589 6.021 1.761 8.191 3.981 2.163 2.216 4.156 4.394 7.369 4.969 1.34.24 3.654-.168 4.509-1.34 1.392-1.919-1.632-2.615-2.556-3.603z"/><path d="M58.081 89.342c-.794-1.009-.991-2.668-1.112-3.917-.369-4.234-1.833-8.216-4.741-11.355-3.865-4.183-9.405-7.219-15.452-8.826-.868-.228-1.882-.378-2.811-.253-.015 0-.032-.013-.049-.013a2.366 2.366 0 0 0-2.525 2.199l-2.622 37.992c-2.309-1.675-5.161-2.512-8.132-2.616-5.129-.176-10.549 1.787-13.898 5.185-1.125 1.138-2.247 2.619-2.86 4.097-.645 1.542-1.108 3.754-.858 5.42.528 3.483 2.514 6.674 5.531 8.516.828.507 1.752.976 2.672 1.298 5.059 1.765 10.814-.134 14.928-3.239 3.179-2.396 6.374-6.511 6.743-10.625.025-.116.086-.219.094-.339l2.054-29.78c.403.017.772.026 1.064.043 1.633.116 3.265.382 4.845.825 2.938.82 5.858 2.238 7.843 4.617 1.976 2.379 3.784 4.712 6.937 5.545 1.322.348 3.667.124 4.612-.975 1.534-1.81-1.425-2.743-2.263-3.799z"/><path d="M52.945 62.586c.863.455 1.816.867 2.753 1.134 5.153 1.442 10.779-.799 14.701-4.153 3.019-2.59 5.957-6.889 6.072-11.021.022-.12.069-.224.069-.348l.219-29.849c.405-.004.772-.026 1.057-.022 1.641.014 3.276.181 4.883.524 2.993.636 6 1.872 8.124 4.127 2.115 2.255 4.069 4.467 7.269 5.103 1.332.267 3.668-.099 4.542-1.259 1.424-1.894-1.596-2.646-2.491-3.646-.865-.962-1.166-2.598-1.35-3.839-.633-4.209-2.338-8.092-5.43-11.047-4.127-3.929-9.848-6.622-15.977-7.85-.876-.176-1.897-.267-2.821-.086-.013 0-.03-.013-.047-.013a2.376 2.376 0 0 0-2.389 2.353l-.271 38.082c-2.413-1.529-5.313-2.19-8.28-2.113-5.137.143-10.419 2.439-13.55 6.03-1.057 1.211-2.074 2.757-2.607 4.273-.55 1.576-.872 3.813-.52 5.463.748 3.445 2.922 6.503 6.044 8.157z"/></g></svg>