<svg id="レイヤー_1" xmlns="http://www.w3.org/2000/svg" xmlns:xlink="http://www.w3.org/1999/xlink" viewBox="0 0 128 128"><g><g><defs><path id="SVGID_1_" d="M18.027 1.425s69.928 28.606 107.637 35.649l.842 76.358S32.899 101.04 1.971 64.565V9.657l16.056-8.232z"/></defs><use xlink:href="#SVGID_1_" overflow="visible" fill="#fff"/><clipPath id="SVGID_2_"><use xlink:href="#SVGID_1_" overflow="visible"/></clipPath></g><g><g fill="#2f2f2f"><path d="M116.945 119.597l-4.101-.045.906-84.561 4.109.045z"/><path d="M86.205 114.36l-4.012-.825 17.172-83.549 4.022.826z"/><path transform="rotate(22.246 71.972 65.152)" d="M69.927 23.377h4.1v83.559h-4.1z"/><path d="M32.973 90.93l-3.45-2.206 42.704-66.872 3.445 2.206z"/><path d="M11.385 74.02l-3.028-2.77 50.295-54.893 3.02 2.766z"/></g><path d="M125.42 37.446c-.402.311-1.055.139-1.512.082a29.118 29.118 0 0 1-2.494-.425c-.27-.061-.537-.074-.814-.123-.238-.045-.48-.11-.721-.167a502.558 502.558 0 0 1-10.443-2.622 673.37 673.37 0 0 1-21.514-6.035 860.69 860.69 0 0 1-20.516-6.394 1070.066 1070.066 0 0 1-33.597-11.549A926.496 926.496 0 0 1 19.596 4.93c-.633-.241-1.25-.511-1.871-.776-.809-.351-2.215-.882-1.258-1.916.4-.429.996-.694 1.56-.812 1.242-.266 2.664.563 3.791.992a899.029 899.029 0 0 0 9.27 3.46c4.631 1.7 9.275 3.367 13.93 5.001a1021.33 1021.33 0 0 0 17.477 5.97 922.377 922.377 0 0 0 19.904 6.361 740.132 740.132 0 0 0 21.236 6.181 602.27 602.27 0 0 0 10.769 2.844c1.781.449 3.566.895 5.359 1.328.891.212 1.773.425 2.664.633.561.135 1.137.216 1.691.344 1.283.294 1.924 1.213 1.545 2.537a.737.737 0 0 1-.243.369z" fill="#2f2f2f"/><g><defs><path id="SVGID_3_" d="M2.6 63.859c.916-.495 2.238.323 3.098.784a382.822 382.822 0 0 0 11.848 6.072c3.984 1.965 8 3.87 12.035 5.728a552.7 552.7 0 0 0 14.93 6.602 558.346 558.346 0 0 0 37.341 14.308 535.63 535.63 0 0 0 21.799 6.958 539.525 539.525 0 0 0 12.273 3.456c2.076.556 4.15 1.095 6.227 1.622 1.029.262 2.066.495 3.09.776.858.233 1.24.539 1.412 1.426.645 3.289.188 6.847-.064 10.165-.191 2.476-.965 4.796-3.727 5.27-7.314 1.264-16.023.372-23.142-1.548a391.404 391.404 0 0 1-10.459-2.966 464.86 464.86 0 0 1-31.35-10.557 406.765 406.765 0 0 1-18.732-7.59 336.424 336.424 0 0 1-19.32-9.143 277.815 277.815 0 0 1-9.549-5.153 235.819 235.819 0 0 1-4.686-2.725c-3.44-2.048-3.964-6.47-4.144-10.089-.18-3.75-1.186-9.274.49-12.689.173-.352.385-.576.63-.707z"/></defs><use xlink:href="#SVGID_3_" overflow="visible" fill="#2f2f2f"/><clipPath id="SVGID_4_"><use xlink:href="#SVGID_3_" overflow="visible"/></clipPath><path d="M-.637 65.849s43.406 28.762 129.34 49.508l1.047 6.447-4.184 9.936-13.246 1.045S15.92 110.128.23 86.767l-.867-20.918z" clip-path="url(#SVGID_4_)" fill="#78a3ad"/><path clip-path="url(#SVGID_4_)" fill="#2f2f2f" d="M10.396 69.934l3.913 23.999 3.064 1.581-2.605-22.826z"/><path clip-path="url(#SVGID_4_)" fill="#2f2f2f" d="M33.936 82.126l-.262 22.175 3.172 1.614 1.086-22z"/><path clip-path="url(#SVGID_4_)" fill="#2f2f2f" d="M58.816 91.898l-3.457 20.869 3.164 1.38 4.159-20.897z"/><path clip-path="url(#SVGID_4_)" fill="#2f2f2f" d="M84.637 101.041l-8.114 19.186 2.778.919 8.98-18.789z"/><path clip-path="url(#SVGID_4_)" fill="#2f2f2f" d="M112.23 109.69l-15.443 16.493 3.676.679 16.572-15.864z"/><path d="M-.047 79.964s4.615 4.355 19.725 12.02c8.809 4.47 22.756 10.663 39.844 17.175 16.061 6.124 28.662 9.862 38.359 12.702 14.088 4.126 28.383 4.65 28.383 4.65l-7.32 4.881s-39.137-7.963-63.584-18.626c-24.445-10.659-54.254-26.87-54.254-26.87l-1.153-5.932z" clip-path="url(#SVGID_4_)" fill="#2f2f2f"/></g><path d="M110.082 25.529c-.779-.649-1.998-.964-2.848-1.177-1.982-.494-4.311-1.253-6.34-.796-.928.212-.986 1.045-1.338 1.814-.285.634-.551 1.217-.783 1.871-.375 1.07-.74 2.087-1.08 3.179-2.18 6.99-4.338 13.993-6.637 20.946-.512 1.541-.938 3.159-1.305 4.74a15.724 15.724 0 0 0-.262 1.621c-.184 1.684.02 2.031 1.668 2.595a68.629 68.629 0 0 0 6.32 1.858c1.564.373 3.637 1.116 5.248.748.66-.147.99-1.07 1.15-1.647 2.23-8.036 3.867-16.215 5.486-24.395.65-3.276 1.467-6.5 1.467-9.858.002-.641-.297-1.127-.746-1.499z" fill="#2f2f2f"/><path d="M94.156 21.652c-.008-.021-.016-.045-.031-.066-.574-1.034-2.053-1.205-3.072-1.543-1.66-.547-3.262-.838-4.976-1.051-.399-.049-.822-.143-1.203.037-.391.192-.701.527-.996.854-1.65 1.859-2.615 4.306-3.682 6.524-1.605 3.301-8.289 16.085-9.389 19.443a26.249 26.249 0 0 0-.936 3.816c-.26 1.622-.686 2.647.852 3.681 1.232.829 2.639 1.315 4.008 1.875 2.145.879 4.883 1.871 7.244 1.503.676-.106 1.119-.944 1.355-1.467 3.256-7.358 5.973-14.978 8.693-22.682.326-.944.686-1.88 1.014-2.828.482-1.36.793-2.791.996-4.216.164-1.147.688-2.773.123-3.88z" fill="#2f2f2f"/><path d="M78.672 17.39c-.139-.404-.389-.73-.787-.906a22.683 22.683 0 0 0-1.303-.544c-.352-.131-.697-.266-1.047-.392-.865-.31-1.732-.625-2.633-.796-.709-.131-1.633-.454-2.348-.237-1.01.311-2.178 1.974-2.814 2.758-5.795 7.092-13.834 18.09-15.428 20.468-1.557 2.325-1.268 5.434-1.574 8.085-.102.845.816 1.136 1.453 1.373a71.612 71.612 0 0 0 6.086 1.949c1.504.4 3.449 1.148 5.156.916.695-.099 1.227-.875 1.512-1.361 1.371-2.37 2.68-4.78 3.947-7.207a376.537 376.537 0 0 0 4.764-9.458c1.535-3.166 3.186-6.361 4.658-9.539.275-.608.301-1.184.357-1.83.075-.815.345-2.281.001-3.279z" fill="#2f2f2f"/><path d="M50.533 9.559c.035-.666.07-1.332-.205-1.945-.529-1.172-1.855-1.654-3-2.006-1.078-.331-2.684-1.066-3.791-.747-1.135.326-2.107 1.103-3.084 1.732-6.035 3.885-11.918 7.998-17.732 12.211-1.812 1.315-4.387 2.746-5.56 4.694-.588.972-.955 2.063-1.307 3.137a16.663 16.663 0 0 0-.727 3.379c-.108 1.12 2.736 2.259 3.529 2.725 1.635.964 3.4 1.695 5.098 2.533 1.383.674 2.771 1.066 4.062-.074a191.32 191.32 0 0 0 6.152-5.682 381.95 381.95 0 0 0 7.648-7.571c1.85-1.879 3.729-3.722 5.564-5.602.76-.771 1.576-1.524 2.289-2.345.645-.748.758-1.582.865-2.525.076-.628.158-1.269.199-1.914z" fill="#2f2f2f"/><path d="M34.418 4.623a31.833 31.833 0 0 0-.217-1.671c-.076-.515-.363-1.013-.826-1.262-.896-.47-1.881-.711-2.834-1.034-.494-.171-.812-.294-1.344-.265-.44.024-.902.094-1.324.261-.873.343-1.67.845-2.525 1.23-1.912.862-3.815 1.749-5.68 2.721C15.92 6.56 12.227 8.61 8.5 10.617c-1.496.801-2.951 1.663-4.291 2.701-.379.285-.57.571-.824.947-.598.858-1.006 1.822-1.396 2.774-.377.924-.719 2.043-.885 2.995-.178.997 2.248 2.06 2.918 2.488.76.486 1.553.912 2.353 1.319.883.453 1.496 1.066 2.549.862.99-.188 1.811-.804 2.631-1.336 5.582-3.615 10.934-7.832 16.482-11.59 1.109-.756 2.238-1.5 3.346-2.259.93-.638 1.818-1.32 2.748-1.938.148-.097.148-.13.188-.293.185-.805.181-1.749.099-2.664z" fill="#2f2f2f"/><path d="M2.445 49.829c1.275.564 3.439-1.961 4.273-2.688 5.543-4.829 11.447-9.266 17.18-13.875 3.906-3.142 7.811-6.287 11.723-9.429 2.902-2.33 5.795-4.662 8.703-6.995.879-.716 1.77-1.43 2.656-2.141l-2.512-3.236c-1.186.915-2.365 1.835-3.547 2.749-2.9 2.264-5.809 4.523-8.719 6.782-3.689 2.868-7.369 5.732-11.055 8.6-3.521 2.733-7.035 5.47-10.557 8.203a5642.451 5642.451 0 0 1-7.197 5.602c-.918.707-1.072 1.353-1.338 2.497-.152.661-.127 1.364-.127 2.091-.006.509-.03 1.595.517 1.84z" fill="#2f2f2f"/></g><g><defs><path id="SVGID_5_" d="M31.541 3.287L10.387 16.426l-4.168-2.243L28.652 2.327l2.889.96zm11.855 3.845L20 23.479l7.375 2.883 20.83-17.947-4.809-1.283zM54.617 38.86l8.33 3.525 13.457-24.358-5.766-1.601L54.617 38.86zm18.906 6.41l8.973 2.244 9.936-24.677-7.051-1.601L73.523 45.27zm20.51 5.769l8.658 2.565 6.086-25.959-6.408-1.605-8.336 24.999z"/></defs><use xlink:href="#SVGID_5_" overflow="visible" fill="#2f2f2f"/><clipPath id="SVGID_6_"><use xlink:href="#SVGID_5_" overflow="visible"/></clipPath></g></g></svg>