<svg id="レイヤー_1" xmlns="http://www.w3.org/2000/svg" viewBox="0 0 128 128"><g><path d="M126.082 48.713c-.766-3.674-1.863-7.324-3.545-10.735-.988-2.004-2.176-4.058-3.756-5.729-.254-.271-.567-.41-.854-.648a5.267 5.267 0 0 0-1.553-.87c-1.756-.648-3.703-.525-5.559-.525H83.67c-.51 0-1.117-.079-1.65 0H45.969c-.525-.079-1.135 0-1.639 0H17.177c-1.854 0-3.799-.123-5.564.525a5.326 5.326 0 0 0-1.547.87c-.291.238-.603.378-.855.648-1.58 1.671-2.77 3.725-3.756 5.729-1.678 3.411-2.777 7.062-3.547 10.735C.732 54.313.334 60.045.334 65.735c0 5.653.711 11.34 2.404 16.784 1.133 3.642 2.701 7.185 4.822 10.441a29.577 29.577 0 0 0 1.748 2.455c1.988 2.52 5.463 2.413 8.455 2.413h92.47c2.988 0 6.461.106 8.453-2.413a32.745 32.745 0 0 0 1.752-2.455c2.111-3.257 3.684-6.8 4.814-10.441 1.695-5.444 2.412-11.131 2.412-16.784.002-5.69-.408-11.423-1.582-17.022z" fill="#2f2f2f"/><g><g fill="#fff"><path d="M85.418 65.551c0-4.767-.32-9.546-1.018-14.264-.557-3.818-1.371-7.604-2.496-11.299a58.24 58.24 0 0 0-1.207-3.53c-.27-.719-.443-1.536-1.084-2.02l-.269-.189c-.93-.559-1.924-.406-3-.406H51.578c-1.51 0-3.219-.387-4.293.952-.311.399-.469.961-.648 1.434-.354.91-.674 1.835-.977 2.766-1.127 3.462-1.945 7.014-2.545 10.602-.889 5.268-1.281 10.613-1.281 15.955 0 5.12.352 10.26 1.281 15.294.582 3.149 1.377 6.281 2.545 9.262.26.671.549 1.335.852 1.983.42.879 1.191 1.906 2.219 2.07.533.085 1.133.032 1.674.032h24.256c1.158 0 2.488.185 3.631-.049 1.248-.252 2.055-1.199 2.562-2.307.203-.453.4-.913.592-1.377.5-1.228.926-2.488 1.305-3.766 1.141-3.867 1.824-7.861 2.227-11.864.301-3.083.44-6.184.44-9.279z"/><path d="M123.34 61.256c-.199-4.599-.715-9.213-1.824-13.684-.715-2.895-1.684-5.744-3.08-8.389-1.002-1.884-2.283-4.175-4.318-5.014a4.314 4.314 0 0 0-1.666-.327H87.3c-1.017 0-2.84-.013-2.75 1.408.049.805.516 1.622.779 2.373.328.924.631 1.859.91 2.804 1.127 3.77 1.924 7.637 2.467 11.533.621 4.5.918 9.045.918 13.59 0 5.128-.363 10.276-1.289 15.326-.584 3.153-1.389 6.286-2.562 9.268a23.981 23.981 0 0 1-.643 1.519c-.418.932-.508 1.959.57 2.368.705.264 1.525.161 2.266.161h23.18c3.818 0 5.6-2.833 7.211-5.876 1.746-3.316 2.979-6.893 3.793-10.543.885-4.011 1.273-8.121 1.273-12.223a111.86 111.86 0 0 0-.083-4.294z"/><path d="M40.494 86.654c-1.142-3.872-1.824-7.887-2.219-11.903a93.249 93.249 0 0 1-.434-9.2c0-3.784.203-7.575.631-11.341.479-4.179 1.232-8.329 2.352-12.382a60.409 60.409 0 0 1 1.277-4.114c.363-1.046 1.652-3.067.291-3.752-.494-.246-1.191-.119-1.74-.119H18.357c-1.52 0-3.121-.107-4.568.469-.449.18-.877.431-1.271.774-.236.21-.494.337-.699.58-1.297 1.489-2.274 3.325-3.086 5.11-1.379 3.051-2.281 6.308-2.906 9.584-.971 4.997-1.299 10.107-1.299 15.19 0 5.046.584 10.121 1.979 14.977.932 3.253 2.217 6.414 3.949 9.32.455.752.93 1.486 1.438 2.189 1.635 2.25 4.496 2.155 6.947 2.155h12.793c3.219 0 6.438.029 9.658 0 .377-.004.887.033 1.18-.234.881-.801-.324-2.677-.67-3.526a42.742 42.742 0 0 1-1.308-3.777z"/></g></g><g fill="#ed6c30"><path d="M53.592 63.986l-4.328-.061s-.371-2.473-.205-6.414c.283-6.689.957-8.799.957-8.799h3.576v15.274z"/><path d="M53.57 63.588s-.143-4.466 3.305-4.241c2.748.177 7.535 1.684 11.266.443 0 0-7.184 5.807-10.09 14.667-1.377 4.204-.773 8.855-.773 8.855h12.594s-2.789-17.051 8.32-31.372l-3.004-2.004s-1.865.838-5.205.395c-4.346-.58-9.533-4.791-16.412.333v12.924z"/></g><g><g><path d="M12.699 63.133s.631-3.748 3.779-3.56c2.484.176 4.662 1.77 8.723-.132 0 0-5.385 4.426-8.422 13.64-1.559 4.704-1.131 10.161-1.131 10.161l13.02-.144s-3.09-18.586 6.383-31.774l-2.686-1.707s-1.773 1.055-4.674.672c-3.75-.497-8.5-3.329-14.057-.105L9.93 56.005l2.769 7.128z" fill="#ed6c30"/></g><path d="M10.586 48.524s-2.174 7.517-1.693 15.385l3.828.045s-.49-10.183 1.414-15.439l-3.549.009z" fill="#ed6c30"/></g><g><g><path d="M98.369 63.469s.08-4.311 2.691-4.245c2.1.062 5.812 1.322 8.746-.021 0 0-6.43 4.237-8.971 13.837-1.301 4.881-1.613 11.056-1.613 11.056l12.576-.008s-2.732-19.695 6.893-33.563l-2.457-1.626s-2.379 1.383-5.764.57c-3.273-1.021-8.252-3.198-13.285 1.494l1.184 12.506z" fill="#ed6c30"/></g><path d="M97.703 48.524s2.441 8.026 1.766 15.495h-4.131s.459-10.248-1.445-15.504l3.81.009z" fill="#ed6c30"/></g><path fill="#2f2f2f" d="M1.072 63.831h125.197v2.213H1.072z"/></g></svg>