<svg id="レイヤー_1" xmlns="http://www.w3.org/2000/svg" xmlns:xlink="http://www.w3.org/1999/xlink" viewBox="0 0 128 128"><g><g><defs><path id="SVGID_1_" d="M63.885 3.395c-1.365-.107-3.213-.047-4.777 1.959L5.312 80.122S-.271 86.68 7.406 90.824l63.41 32.839s4.652 3.289 8.384-2.234c3.507-5.176 41.139-83.366 43.668-89.091 1.683-3.811 3.548-6.558-1.333-8.911-4.062-1.961-53.431-19.695-57.65-20.032z"/></defs><use xlink:href="#SVGID_1_" overflow="visible" fill="#ed6c30"/><clipPath id="SVGID_2_"><use xlink:href="#SVGID_1_" overflow="visible"/></clipPath><path d="M29.259 47.688c.646-.96 4.46-.705 5.433-.762 9.756-.546 19.683 1.015 28.633 4.996 12.883 5.736 22.64 17.45 28.224 30.195.923 2.097 3.953 8.014 3.212 10.309-.251.781-.869 1.459-1.244 2.182a40.162 40.162 0 0 0-1.842 4.112c-.646 1.689-1.641 3.22-2.355 4.882-.757 1.779-1.618 3.543-2.348 5.325-.327.807-.427 1.651-.884 2.406-.403.683-.754 1.356-1.146 2.043a133.075 133.075 0 0 0-2.408 4.334c-1.127 2.14-2.21 4.412-3.629 6.345-.666.896-1.356.862-2.397.844-1.832-.037-3.932-.727-5.69-1.236-3.565-1.036-6.539-3.806-9.771-5.391-1.747-.849-3.461-1.968-5.184-2.899-2.22-1.208-4.366-2.517-6.63-3.642-1.796-.889-3.767-1.629-5.403-2.796-1.246-.897-2.497-1.807-3.787-2.632-2.786-1.795-5.266-3.357-8.589-3.897-1.548-.255-2.716-1.056-4.081-1.791-1.661-.895-3.265-1.842-4.881-2.807-1.077-.636-2.244-1.047-3.34-1.625-1.089-.572-2.066-1.37-3.226-1.816-1.253-.477-2.301-.792-3.451-1.529-1.055-.682-2.152-1.328-3.192-2.041-1.546-1.066-2.995-1.723-3.922-3.411-.272-.498-.449-.559-.908-1-.307-.297-.519-.631-.599-1.056-.162-.868.323-1.795.732-2.522a20.741 20.741 0 0 1 1.756-2.642c.599-.762 1.048-1.706 1.798-2.345 6.151-8.766 12.295-17.539 18.456-26.299.895-1.266 1.803-2.524 2.663-3.834z" clip-path="url(#SVGID_2_)" fill="#2f2f2f"/></g><path d="M74.049 127.494a8.907 8.907 0 0 1-4.683-1.362L6.084 93.362C2.217 91.27.983 88.584.638 86.693c-.824-4.369 2.15-8.023 2.49-8.425L56.79 3.683C58.45 1.544 60.576.506 63.155.506c.328 0 .653.014.95.04 5.179.411 55.93 18.979 58.679 20.305 6.947 3.354 4.572 8.544 3.151 11.648l-.448.996c-2.15 4.872-40.051 83.826-43.917 89.537-2.49 3.689-5.466 4.462-7.521 4.462zm-1.586-6.169s.722.449 1.586.449c.367 0 1.477-.004 2.786-1.949 3.132-4.633 40.272-81.533 43.423-88.644l.479-1.066c1.467-3.192 1.467-3.192-.439-4.111-4.742-2.289-52.868-19.325-56.655-19.755a5.13 5.13 0 0 0-.486-.024c-.702 0-1.221.146-1.796.891L7.632 81.791c-.57.706-1.655 2.417-1.378 3.866.189.963 1.031 1.854 2.51 2.651l63.367 32.816c.113.061.226.126.332.203v-.002z" fill="#2f2f2f"/><path d="M74.947 11.933c-8.226.832-17.374 6.129-19.253 14.591-1.889 8.533 2.832 17.388 10.742 20.894 3.985 1.763 9.756 2.969 14.119 2.492 3.797-.412 9.192-1.868 12.25-4.26 8.678-6.783 8.595-20.884.28-27.915-4.29-3.638-12.467-6.378-18.138-5.802z" fill="#fff"/></g></svg>