<svg xmlns="http://www.w3.org/2000/svg" xmlns:xlink="http://www.w3.org/1999/xlink" viewBox="0 0 128 128"><g id="图层_1"><g><g><defs><path id="SVGID_1_" d="M127.124 55.143c-.328-10.752-1.332-21.92-7.211-31.443-4.977-8.056-12.725-12.525-21.336-15.672-4.74-1.737-9.697-3.192-14.646-4.228C73.372 1.587 60.427-.966 49.859 1.848c-9.881 2.634-18.777 9.404-26.629 15.821C13.429 25.684 2.484 35.75.872 49.137-1.29 67.13 2.087 72.262 8.019 88.8c2.721 7.59 7.307 21.531 15.018 25.072 8.002 3.674 24.721 8.538 33.352 10.004 9.338 1.585 20.727 4.808 28.965 2.962 9.402-2.111 17.92-11.172 24.818-17.686 6.314-5.956 12.285-10.532 15.027-17.795 3.986-10.542 2.265-25.077 1.925-36.214z"/></defs><use xlink:href="#SVGID_1_" overflow="visible" fill="#adadad"/><clipPath id="SVGID_2_"><use xlink:href="#SVGID_1_" overflow="visible"/></clipPath><path d="M10.948 26.34C21.034 16.155 34.789 3.219 50.478-.845c9.847-2.556 20.336-2.044 30.158-.077 10.062 2.014 25.092 5.65 32.472 13.345 5.138 5.364 3.457 13.678-2.04 18.334-10.919 9.269-32.459 29.377-41.376 31.864-3.098.871-7.593.905-10.417.805-5.89-.21-33.008-6.676-47.688-12.129-4.893-1.813-8.543-3.554-9.245-8.155-.729-4.804 3.909-12.064 8.606-16.802z" clip-path="url(#SVGID_2_)" fill="#e0e0e0"/><path d="M74.632 127.904c-2.182 3.082-12.181-.426-19.636-1.523-7.193-1.066-26.068-6.328-32.597-8.85C9.938 112.708 3.43 80.116 1.486 73.753c-2.756-9.024-5.153-14.945.768-17.229 2.154-.834 7.063.188 13.107 1.523 8.927 1.98 36.932 9.35 44.702 12.187 3.679 1.34 6.053 4.83 7.418 8.49 2.632 7.01 6.431 31.086 6.796 35.483.3 3.349 2.024 11.352.355 13.697z" clip-path="url(#SVGID_2_)" fill="#cccbcb"/><path d="M127.892 93.102c-3.057 6.322-8.711 11.334-13.604 16.34-6.753 6.897-16.956 16.94-26.649 18.864-4.9.972-7.227-6.576-8.602-10.93-.402-1.251-2.477-13.141-3.01-16.311-1.258-7.376-2.951-15.043-2.125-22.568.567-5.167 1.626-9.438 4.884-13.182 3.497-4.012 7.916-7.394 12.016-10.533 6.234-4.8 12.192-9.949 18.438-14.723 4.301-3.294 10.404-9.059 15.724-4.195 4.242 3.868 3.981 13.532 4.195 18.799.201 4.644.781 9.178.853 13.828.106 8.016 1.447 17.241-2.12 24.611z" clip-path="url(#SVGID_2_)" fill="#adadad"/></g><path d="M45.507 36.232c-1.48-4.52 1.143-9.963 5.648-12.7 6.719-4.085 18.998-4.521 23.965 2.813.35.518.662 1.051.928 1.614 2.572 5.459-1.508 10.512-6.1 12.896-5.596 2.9-13.514 3.633-19.289.753-2.173-1.081-4.378-3.019-5.152-5.376" fill="#ec6c30"/><path d="M21.107 79.149c-2.348-1.153-4.459-3.659-4.75-6.283-.148-1.399.44-3.054 1.605-3.91 1.52-1.127 3.555-1.035 5.293-.533 2.844.83 5.33 2.906 6.113 5.766 1.477 5.35-4.304 6.913-8.261 4.96" fill="#2f2f2f"/><path d="M52.304 86.202c-2.334-1.143-4.455-3.655-4.742-6.273-.152-1.399.441-3.054 1.594-3.916 1.523-1.122 3.568-1.035 5.311-.527 2.838.825 5.324 2.901 6.105 5.761 1.474 5.355-4.307 6.913-8.268 4.955" fill="#2f2f2f"/><path d="M89.199 79.083c1.445-1.958 2.133-4.956 1.24-7.262-.471-1.23-1.68-2.353-3.002-2.573-1.754-.282-3.414.676-4.645 1.84-2.01 1.911-3.18 4.705-2.613 7.42 1.076 5.085 6.549 3.906 9.02.575" fill="#2f2f2f"/><path d="M112.765 57.275c1.443-1.958 2.131-4.956 1.25-7.267-.482-1.23-1.682-2.353-3.014-2.568-1.752-.277-3.414.671-4.637 1.834-2.016 1.912-3.195 4.71-2.621 7.426 1.077 5.09 6.561 3.907 9.022.575" fill="#2f2f2f"/><path d="M116.802 84.834c1.209-1.682 1.795-4.245 1.057-6.212-.391-1.051-1.395-2.009-2.512-2.188-1.455-.235-2.838.584-3.875 1.579-1.674 1.634-2.664 4.028-2.191 6.345.89 4.344 5.461 3.32 7.521.476" fill="#2f2f2f"/><path d="M95.656 104.677c1.283-1.779 1.906-4.494 1.117-6.58-.408-1.112-1.475-2.126-2.645-2.316-1.547-.251-3.023.615-4.109 1.671-1.777 1.737-2.828 4.264-2.326 6.724.941 4.591 5.779 3.515 7.963.501" fill="#2f2f2f"/><path d="M36.636 94.884c-2.18-1.287-4.06-3.69-4.305-5.991-.133-1.214.379-2.634 1.393-3.357 1.363-.983 3.26-.891 4.943-.425 2.908.809 5.625 2.901 6.549 5.786 1.803 5.617-4.613 6.339-8.58 3.987" fill="#2f2f2f"/><path d="M28.015 106.205c-1.844-1.096-3.438-3.131-3.646-5.079-.115-1.025.315-2.234 1.18-2.849 1.156-.825 2.766-.754 4.189-.349 2.461.681 4.766 2.449 5.547 4.904 1.525 4.751-3.907 5.361-7.27 3.373" fill="#2f2f2f"/><path d="M56.003 112.545c-1.953-1.153-3.633-3.29-3.85-5.351-.121-1.081.34-2.352 1.23-2.998 1.221-.881 2.922-.8 4.424-.384 2.598.728 5.027 2.598 5.852 5.177 1.606 5.011-4.124 5.656-7.656 3.556" fill="#2f2f2f"/></g></g></svg>