<svg id="レイヤー_1" xmlns="http://www.w3.org/2000/svg" viewBox="0 0 128 128"><g><g><path d="M114.283 24.984s-1.171-2.333-3.542-3.692c-3.226-1.848-4.417-7.675-6.934-10.972-3.042-3.981-7.893-5.175-10.159-5.192-4.463-.038-7.592 1.465-10.722 6.63-1.079 1.775-43.149 77.201-43.149 77.201 1.812-4.738 3.217-10.455 4.434-15.368 1.108-4.458 1.283-6.792 3.066-13.453.809-3.019 4.032-7.761 3.41-12.086-1-6.903-10.135-12.399-26.845-11.57C5.812 37.376-.3 45.293.604 51.946c.696 5.127 7.201 8.234 8.139 15.317.388 2.946-.65 8.153-1.805 13.695-4.013 19.234 1.555 35.536 15.155 40.14 13.817 4.677 29.936.4 37.252-16.437 5.076-11.684 24.86-61.323 27.315-67.865 2.196-5.851 6.884-18.616 8.188-17.889 1.483.825 3.658 6.967 11.117 9.221 5.229 1.588 12.509 1.6 12.509 1.6l-4.191-4.744zm-87.289 31.84c-8.634.254-15.98-2.575-16.409-6.319-.434-3.75 6.23-6.992 14.876-7.257 8.625-.258 15.984 2.571 16.409 6.313.429 3.754-6.224 6.996-14.876 7.263z" fill="#fcc21b"/><g><g><path d="M124.936 28.33c-.401-.367-.469-.525-.719-1.115-.281-.673-.671-1.594-1.55-2.682-1.217-1.508-3-2.39-5.059-3.408-1.084-.538-2.209-1.092-3.367-1.792-1.392-.836-3.884-.441-4.492 1.212.472.4.926.667 1.117.935.954 1.394.55 3.128.054 4.394-.596 1.5-2.812 2.738-4.862 2.284-.1.371-.129.938-.142 1.325-.009.425.175.904.366 1.275a3.24 3.24 0 0 0 2.101 1.613c1.975.46 3.983.946 5.992 1.433 2.024.488 4.05.979 6.05 1.444l1.917.45c.3.089.854.252 1.513.252 1.521 0 2.854-.896 3.388-2.306.966-2.587-1.242-4.426-2.307-5.314z" fill="#2f2f2f"/></g><path d="M61.821 70.945a6.089 6.089 0 0 1-12.176 0 6.088 6.088 0 0 1 12.176 0z" fill="#f79329"/><path d="M68.938 55.905a5.913 5.913 0 0 1-11.826 0 5.913 5.913 0 0 1 5.909-5.911 5.912 5.912 0 0 1 5.917 5.911z" fill="#f79329"/><circle cx="69.347" cy="41.833" r="5.4" fill="#f79329"/><path d="M81.656 28.78a5.503 5.503 0 1 1-11.007.003 5.503 5.503 0 0 1 11.007-.003z" fill="#f79329"/></g></g><path d="M22.185 65.628c-6.58-.129-10.701-2.517-10.701-2.517 1.472 1.665 2.161 3.588 2.417 5.428.55 3.84-4.507 19.412-2.846 30.762 1.971 13.426 8.555 15.94 8.555 15.938-9.692-13.155-.071-35.346 2.167-43.599 1.158-4.262.408-6.012.408-6.012z" fill="#fff"/><path d="M42.179 41.989l-2.49 1.946s3.541 1.233 4.182 4.805l3.667-1.217c-.001 0-.743-3.809-5.359-5.534z" fill="#fff"/></g></svg>