<svg id="レイヤー_1" xmlns="http://www.w3.org/2000/svg" xmlns:xlink="http://www.w3.org/1999/xlink" viewBox="0 0 128 128"><g><g><g><g><defs><path id="SVGID_1_" d="M127.582 89.765l-1.168-3.777a1.07 1.07 0 0 0-.65-.684 1.075 1.075 0 0 0-.936.112c-1.119.737-5.232 3.306-11.252 5.558-3.85 1.433-7.723 2.453-11.51 3.034-4.932.749-8.863 1.102-12.375 1.102-3.168 0-5.697-.278-8.633-.599-3.463-.379-7.383-.809-13.104-.809-2.611 0-5.354.086-8.383.263-9.09.53-17.164 2.95-24.01 7.196L31.37 90.147c4.701-3.603 12.541-7.849 23.984-8.706 3.557-.266 6.744-.393 9.732-.393 4.908 0 8.316.346 11.619.683 2.865.293 5.564.568 8.846.568 4.215 0 8.865-.467 14.617-1.471 9.141-1.598 16.676-5.145 21.387-7.841.426-.245.629-.753.484-1.227l-1.16-3.749a1.037 1.037 0 0 0-.627-.673 1.053 1.053 0 0 0-.912.077c-4.471 2.633-11.594 6.086-20.191 7.585-5.418.947-9.727 1.388-13.555 1.388-2.977 0-5.439-.252-8.289-.541-3.281-.335-7.002-.719-12.186-.719-3.137 0-6.477.136-10.209.416-9.873.737-18.535 3.695-25.756 8.794l-4.076-10.72c4.859-4.197 13.1-9.226 25.484-10.432 4.5-.437 8.473-.651 12.144-.651 4.027 0 7.027.249 9.947.492 2.602.216 5.055.418 7.9.418 4.771 0 9.795-.581 16.299-1.88 6.438-1.286 12.826-3.658 18.998-7.04.439-.24.646-.755.498-1.232l-1.152-3.742a1.058 1.058 0 0 0-.617-.671 1.046 1.046 0 0 0-.906.062c-4.051 2.28-10.449 5.318-17.982 6.824-6.117 1.223-10.783 1.768-15.102 1.768-2.623 0-4.973-.195-7.449-.403-2.9-.239-6.176-.512-10.426-.512-3.854 0-8.014.222-12.725.681-10.404 1.012-19.758 4.61-27.15 10.432l-4.188-10.986c5.287-5.062 14.385-11.163 28.342-12.587 4.832-.492 9.102-.73 13.041-.73 4.328 0 7.562.282 10.725.556 2.777.241 5.408.468 8.455.468 5.113 0 10.508-.651 17.481-2.111 4.619-.96 9.291-2.505 13.908-4.582a1.06 1.06 0 0 0 .578-1.272l-1.139-3.691a1.06 1.06 0 0 0-1.453-.646c-4.367 2.017-8.777 3.499-13.094 4.4-6.588 1.375-11.596 1.988-16.248 1.988-2.809 0-5.336-.218-8.012-.45-3.115-.27-6.637-.579-11.193-.579-4.129 0-8.6.251-13.647.766-14.426 1.467-24.154 7.373-30.029 12.46l-4.578-12.029c5.615-5.025 15.283-11.079 30.078-12.499 5.137-.492 9.678-.733 13.881-.733 4.572 0 8.004.278 11.396.554 2.947.239 5.73.465 8.951.465 5.402 0 11.105-.646 18.484-2.099 3.572-.706 7.236-1.742 10.885-3.08.521-.19.807-.761.643-1.298l-1.121-3.654a1.083 1.083 0 0 0-.547-.634 1.043 1.043 0 0 0-.832-.041c-3.5 1.294-6.83 2.243-10.17 2.903-7 1.379-12.34 1.992-17.293 1.992-2.988 0-5.682-.218-8.561-.453-3.461-.282-7.035-.575-11.83-.575-4.377 0-9.104.249-14.455.764-15.965 1.536-26.586 8.09-32.729 13.38a.986.986 0 0 0-.164.115l-.35.317c-.422.371-.842.76-1.248 1.155l-.207.192c-.189.177-.383.354-.551.523l-.791.798A107.536 107.536 0 0 0 .62 41.842a1.07 1.07 0 0 0-.188 1.066l7.154 18.773.051.15 19.752 51.878a1.049 1.049 0 0 0 1.695.398c.158-.142 4.867-4.322 9.996-7.593 5.303-3.386 10.207-6.025 20.826-6.643 2.904-.168 5.531-.251 8.014-.251 5.43 0 9.16.407 12.498.772 2.959.323 5.752.632 9.258.632 3.846 0 8.07-.372 13.283-1.169 11.766-1.793 20.817-6.81 24.164-8.88.41-.257.6-.751.459-1.21z"/></defs><use xlink:href="#SVGID_1_" overflow="visible" fill="#78a3ad"/><clipPath id="SVGID_2_"><use xlink:href="#SVGID_1_" overflow="visible"/></clipPath></g></g></g><g><path d="M89.318 96.998c.609-.682 1.221-1.41 1.738-2.141 5.105-5.92 5.41-16.447.951-22.715-5.57-7.832-16.34-7.717-23.369-2.151-.988-1.255-2-2.495-2.975-3.758-1.141-1.476-2.248-2.973-3.359-4.463.361-1.194.699-2.396.971-3.614 3.27-14.538 1.824-30.449-5.777-43.454-.529-.918-3.346-6.044-5.494-7.164-2.051-1.749-4.479-2.898-7.455-2.762a9.863 9.863 0 0 0-2.195.342c-1.631.451-3.477 1.373-4.734 2.585-.703.675-1.434 1.433-2.029 2.208-2.986 3.922-3.076 10.027-2.342 14.654.574 3.634 1.547 7.332 2.791 10.795 2.32 6.466 5.861 12.557 9.736 18.236.086.125.16.249.252.375.188.298.381.599.574.897-1.291 2.834-2.578 5.671-3.68 8.571-5.002 13.12-4.215 31.789 8.191 40.788 1.207.926 2.488 1.74 3.746 2.359 6.334 3.108 13.6 2.902 20.092.37 2.889-1.127 5.607-2.671 8.101-4.502a44.55 44.55 0 0 0 2.264-1.792c2.248 3.226 4.152 7.365 3.789 11.181-.23 2.326-2.857 4.446-5.008 2.361-.941-.916-1.562-2.349-2.959-2.669-3.361-.766-7.066 1.367-7.522 4.75-.758 5.686 5.381 9.655 10.514 8.847 9.662-1.515 11.516-13.195 8.674-20.944-.81-2.213-2.007-5.042-3.486-7.19zM81.432 80.89c4.029.875 5.887 4.695 5.578 8.392a10.123 10.123 0 0 1-1.219 3.132c-.094-.115-.191-.232-.283-.349-.664-.844-1.139-1.804-1.754-2.672-.602-.853-1.283-1.668-1.912-2.512a182.652 182.652 0 0 0-4.117-5.412 7.253 7.253 0 0 0-.361-.45c1.407-.337 2.808-.403 4.068-.129zM47.895 42.115c-2.018-5.86-3.359-12.557-2.205-18.744.377-2.03 1.67-4.792 3.58-5.467.666-.06 1.26.017 1.756.249 3.461 1.606 3.16 9.414 3.031 12.295-.158 3.812-.982 7.666-2.107 11.301a64.786 64.786 0 0 1-1.83 5.094c-.866-1.599-1.698-3.184-2.225-4.728zm23.566 59.052c-4.291 1.044-7.32.015-10.672-2.373-2.875-2.863-6.258-8.355-3.945-17.342h-.016c.297-1.573.568-3.147.877-4.718.457-2.359 1.158-4.665 1.914-6.95a224.555 224.555 0 0 0 4.693 5.109c-1.898 3.142-3.037 6.949-2.93 10.591.146 5.251 2.527 10.618 8.125 11.64.75.136 1.791.083 2.084-.792.271-.792-.592-1.438-1.07-1.94-1.359-1.417-2.018-3.253-1.787-5.217.246-2.132 1.59-4.072 3.408-5.558 2.766 3.354 5.426 6.812 8.086 10.227.314.396.617.798.924 1.193.352.449.717.878 1.07 1.313-3.163 2.434-7.271 3.969-10.761 4.817z" fill="#006ca2"/></g></g></svg>