<svg id="レイヤー_1" xmlns="http://www.w3.org/2000/svg" xmlns:xlink="http://www.w3.org/1999/xlink" viewBox="0 0 128 128"><g><g><path d="M67.149 49.902s3.251 1.1 5.917-1.207l2.518 4.905-7.043 5.79-1.392-9.488z" fill="#ed6c30"/><path d="M81.593 57.106s-8.176 8.909-5.484 13.463l-7.567-6.732L79.609 50.28l1.984 6.826z" fill="#ed6c30"/><g fill="#2f2f2f"><path d="M108.411 18.187L70.358 51.039l4.909 13.151 38.211-42.803z"/><path d="M107.053 19.358s1.091-2.904 1.358-4.704c.262-1.8 2.934-3.8 5.066-5.134 1.483-.929 3.075-1.713 4.634-2.513 1.333-.679 2.767-1.315 4.279-1.388 3.255-.16 6.255 2.746 4.455 5.796-.384.654-.709 1.277-1.2 1.871-1.617 1.955-3.134 3.996-4.736 5.946-.498.6-1.031.929-1.64 1.388-1.274.957-2.75 1.619-4.358 1.7-1.696.085-3.226 1.075-4.342 2.321l-3.516-5.283z"/><path d="M109.911 12.487c-.117.1-.25.196-.367.304-.059.054-.125.175-.2.191.134-.042-.133-1.117-.217-1.237-.462-.65-1.449-.175-2.074-.46-1.251-.573-1.551-1.957-.992-3.154a2.38 2.38 0 0 1 1.566-1.327c.9-.229 1.884-.079 2.493.677.724.902-.288 2.394.641 3.192.112.098 1.067.302 1.15.182-.041.054-.117.079-.166.125-.086.071-.139.167-.226.237-.226.188-.483.354-.721.538-.295.236-.579.476-.887.732z"/><path d="M114.361 8.311a1.539 1.539 0 0 0-.088-.437c-.278-.719-1.429-.571-1.945-1.062-.992-.934-.992-2.457-.059-3.434a2.352 2.352 0 0 1 1.654-.74c.921-.025 1.85.34 2.271 1.212.325.673.042 1.356-.166 2.011-.184.564-.33 1.375.32 1.712.071.034.438.159.446.265 0 .105-.317.24-.38.273-.304.156-.587.342-.892.488-.221.102-.45.181-.666.283-.163.079-.388.24-.575.254-.296.025-.013-.208.029-.329.043-.142.06-.321.051-.496z"/><path d="M120.028 5.98c.2-.865-.809-1.227-1.351-1.656-1.108-.875-1.12-2.184-.183-3.205.562-.608 1.383-.925 2.206-.775.91.163 1.744.709 1.978 1.65.166.645-.15 1.208-.467 1.746-.15.258-.321.523-.408.811-.092.314.041.602.191.877.066.121.125.233.258.283.079.027.167.008.233.056-.316.14-.654.235-.991.342-.3.094-.601.16-.908.219-.15.027-.709.244-.825.15.134-.125.221-.308.267-.498z"/></g></g><g><defs><path id="SVGID_1_" d="M44.948 54.227C32.673 66.19 19.764 57.546 7.9 69.397c-14.222 14.211-6.03 37.471 10.846 50.299 10.847 8.244 28.124 11.806 39.716 2.365 6.871-5.59 9.906-14.491 11.667-22.868.754-3.559.746-7.467 3.722-10.021 2.633-2.267 6.162-3.036 8.892-5.163.233-.188.463-.379.684-.584.259-.227.485-.479.7-.74 1.425-1.681 2.55-3.698 3.35-5.744 1.034-2.633 1.917-8.115-2.523-7.671-.681.067-1.124.485-1.644.927-1.199 1.019-2.454 2.131-4.146 1.96-2.5-.254-3.871-2.056-3.938-4.434-.034-1.192-.092-2.337.041-3.534.121-1.14.811-2.075 1.084-3.2.45-1.917 1.304-4.363.269-6.192-.91-1.604-3.478-2.852-5.14-3.417-1.825-.619-4.13-.962-5.569-2.36-2.436-2.365-1.615-6.205-.311-8.907.679-1.419 1.483-2.703 2.675-3.74 1.261-1.094 3.018-2.102 3.803-3.646 1.485-2.946-.186-5.361-3.269-5.34-6.107.046-11.993 3.038-15.46 8.101-2.116 3.094-2.275 7.328-3.5 10.809-1.201 3.419-2.884 5.967-4.901 7.93z"/></defs><use xlink:href="#SVGID_1_" overflow="visible" fill="#ed6c30"/><clipPath id="SVGID_2_"><use xlink:href="#SVGID_1_" overflow="visible"/></clipPath><path d="M60.508 57.273c-1.742 3.071-4.775 5.613-7.597 7.613-1.775 1.258-3.771 2.173-5.737 3.073-4.884 2.231-11.297 4.461-13.694 9.724-3.329 7.296 3.825 12.368 8.526 16.701 1.291 1.192 2.575 2.506 3.587 3.938 1.776 2.494 2.963 5.386 4.138 8.184 1.43 3.404 4.159 6.996 8.137 7.278 9.89.7 8.374-16.878 10.865-22.7.958-2.258 2.594-4.167 4.767-5.358 2.509-1.379 5.222-2.425 7.621-4 1.867-1.225 3.555-2.825 4.292-5.001.388-1.121 1.575-4.571-.495-4.833-1.049-.133-2.001.962-2.851 1.46-2.209 1.311-5.479 2.161-7.365-.148-1.333-1.638-1.552-4.059-1.333-6.086.281-2.561.519-4.256-.823-6.554-.696-1.19-1.237-2.481-2.129-3.598-1.334-1.679-3.055-3.646-5.209-4.221-2.983-.796-3.434 2.133-4.483 4.129a6.285 6.285 0 0 1-.217.399z" clip-path="url(#SVGID_2_)" fill="#fff"/></g><path fill="#2f2f2f" d="M73.066 48.695l-8.1 6.843 9.251 9.6 8.534-9.244z"/><circle cx="57.291" cy="107.168" r="3.41" fill="#2f2f2f"/><circle cx="54.48" cy="97.942" r="3.411" fill="#2f2f2f"/><g><g><path d="M56.641 64.582c-.792-.6-1.684-.871-2.783-.148-3.134 2.073-.281 4.702 1.184 6.521a60.606 60.606 0 0 0 5.642 6.115c1.066 1.008 1.9 2.267 3.603 1.796.943-.271 1.644-.844 2.011-1.754.896-2.198-2.511-5.082-3.761-6.521-1.119-1.275-2.299-2.496-3.444-3.737-.765-.818-1.561-1.601-2.452-2.272z" fill="#2f2f2f"/></g></g><g><g fill="#2f2f2f"><path d="M46.932 72.68c-.779-.587-1.65-.86-2.704-.165-3.017 1.99-.229 4.563 1.213 6.351a61.999 61.999 0 0 0 5.546 5.988c1.054.988 1.881 2.221 3.521 1.771.926-.252 1.592-.804 1.938-1.69.846-2.129-2.494-4.958-3.734-6.367-1.094-1.248-2.246-2.444-3.379-3.659-.747-.802-1.534-1.568-2.401-2.229z"/><path d="M41.415 87.421a92.415 92.415 0 0 0-3.342-3.796c-.759-.812-1.559-1.594-2.45-2.267-1.742-1.325-3.426.225-4.809 1.258-2.939 2.202-.275 4.921 1.375 6.946a64.04 64.04 0 0 0 5.634 6.05c1.058 1 1.908 2.242 3.533 1.813 1.342-.35 2.592-1.396 3.386-2.504 1.173-1.648.272-2.936-.803-4.332a90.718 90.718 0 0 0-2.524-3.168z"/></g></g></g></svg>