<svg id="レイヤー_1" xmlns="http://www.w3.org/2000/svg" xmlns:xlink="http://www.w3.org/1999/xlink" viewBox="0 0 128 128"><g><g><g><defs><path id="SVGID_1_" d="M99.872 105.21c0 7.448-6.041 13.484-13.49 13.484-7.443 0-13.484-6.036-13.484-13.484s6.041-13.484 13.484-13.484c7.449.001 13.49 6.036 13.49 13.484z"/></defs><use xlink:href="#SVGID_1_" overflow="visible" fill="#fcc21b"/><clipPath id="SVGID_2_"><use xlink:href="#SVGID_1_" overflow="visible"/></clipPath><path d="M73.743 97.034c3.541 1.844 7.842 2.157 11.68 1.151a15.11 15.11 0 0 0 7.781-4.941c.238-.285.441-.683.781-.847.451-.215 1.035.599 1.344.916 1.191 1.205-.717 2.983-1.629 3.797-.99.888-2.186 1.6-3.34 2.243-4.344 2.409-10.42 3.227-15.129 1.465-.783-.289-2.867-1.107-3.225-1.938-.162-.374-.078-1.099.18-1.408.195-.244.748-.493 1.061-.537a.786.786 0 0 1 .496.099z" clip-path="url(#SVGID_2_)" fill="#fff"/><path d="M81.075 118.654c2.185-3.346 5.779-5.731 9.613-6.732a15.125 15.125 0 0 1 9.207.492c.35.126.717.379 1.1.351.496-.033.609-1.026.725-1.457.447-1.632-2.092-2.251-3.281-2.512-1.303-.289-2.689-.321-4.02-.313-4.965.029-10.658 2.295-13.906 6.142-.537.639-1.945 2.369-1.855 3.269.051.406.48.996.848 1.144.291.117.898.061 1.197-.058a.768.768 0 0 0 .372-.326z" clip-path="url(#SVGID_2_)" fill="#fff"/></g></g><g><g><g><defs><path id="SVGID_3_" d="M118.292 40.564c-.035-4.688-.383-9.638-2.482-13.5a34.13 34.13 0 0 0-1.359-2.267c-4.697-7.192-11.99-12.755-20.066-15.629-8.701-3.093-17.752-2.32-26.422.375-6.48 2.015-10.584 6.264-14.809 11.294-1.203 1.429-1.936 3.489-2.727 5.194-1.012 2.174-1.301 4.351-1.914 6.643-.418 1.551-.348 3.052-.348 4.644 0 1.945-.164 3.817-.311 5.755-.162 2.072-.244 4.31.115 6.358.338 1.917-.293 4.143-.566 6.064 4.26 7.029 10.463 12.589 18.273 15.699 1.031.411 2.09.749 3.15 1.075.828.261 2.148.395 2.777 1.03.551.558.484.997 1.412 1.164.676.123 1.377.033 2.068.033 1.57-.004 3.125.171 4.684.179 8.336.053 16.203-4.262 23.27-8.152 1.848-1.018 3.713-2.096 5.178-3.643 2.479-2.63 4.809-6.7 6.602-9.858 2.1-3.694 3.5-8.595 3.475-12.458z"/></defs><clipPath id="SVGID_4_"><use xlink:href="#SVGID_3_" overflow="visible"/></clipPath><g clip-path="url(#SVGID_4_)"><g fill="#78a3ad"><g><path d="M135.802 57.887c-.406 0-.814-.123-1.172-.378L55.05.303a2.002 2.002 0 0 1-.453-2.8 1.998 1.998 0 0 1 2.799-.46l79.578 57.202a2.01 2.01 0 0 1-1.172 3.642z"/><path d="M127.597 68.754c-.416 0-.83-.126-1.188-.387L46.544 9.917a2.004 2.004 0 0 1-.432-2.809 2.018 2.018 0 0 1 2.809-.435l79.863 58.451a2.007 2.007 0 0 1-1.187 3.63z"/><path d="M119.204 79.854c-.424 0-.84-.13-1.205-.399L37.874 19.734a2.011 2.011 0 0 1 2.403-3.223l80.129 59.721a2.017 2.017 0 0 1 .412 2.812 2.023 2.023 0 0 1-1.614.81z"/><path d="M110.62 91.193c-.424 0-.842-.134-1.209-.411L29.026 29.734a2.01 2.01 0 0 1 2.433-3.199l80.385 61.048a2.013 2.013 0 0 1-1.224 3.61z"/></g><g><path d="M22.604 71.746a1.98 1.98 0 0 1-1.367-.542 2.004 2.004 0 0 1-.098-2.84l83.014-88.615a2.008 2.008 0 0 1 2.842-.093c.805.756.84 2.031.084 2.84l-83.01 88.615c-.39.424-.927.635-1.465.635z"/><path d="M32.136 78.271a2.012 2.012 0 0 1-1.476-3.37l82.736-89.734a2.015 2.015 0 0 1 2.842-.118c.818.753.865 2.023.119 2.841L33.618 77.623a2.006 2.006 0 0 1-1.482.648z"/><path d="M51.606 91.6c-.479 0-.951-.171-1.334-.513a2.002 2.002 0 0 1-.164-2.832l82.137-92.046a2.016 2.016 0 0 1 2.842-.163c.822.741.891 2.011.152 2.837L53.103 90.928a1.995 1.995 0 0 1-1.497.672z"/><path d="M41.798 84.888c-.48 0-.959-.175-1.344-.521a2.003 2.003 0 0 1-.137-2.841L122.76-9.348a2.014 2.014 0 0 1 2.842-.134c.822.745.879 2.015.133 2.837L43.288 84.229a2.013 2.013 0 0 1-1.49.659z"/><path d="M61.546 98.41a2.01 2.01 0 0 1-1.514-3.333l81.818-93.23a2.01 2.01 0 0 1 2.84-.187c.83.732.912 2.002.18 2.837L63.054 97.725a1.997 1.997 0 0 1-1.508.685z"/></g></g></g></g></g><g><g><g><g><defs><path id="SVGID_5_" d="M122.761 30.593c-4.09-10.668-9.621-17.022-19.844-23.404C98.919 4.69 90.38 1.728 85.716.909c-10.135-1.778-20.986.123-29.6 6.048a32.644 32.644 0 0 0-4.256 3.505C38.099 23.906 39.519 43.34 39.421 61.021c-.016 4.079-.373 8.157-1.213 12.154-.422 2.047-1.213 4.009-1.643 6.04-.346 1.62-.92 2.511-1.889 3.891-.521.753-1.27 1.425-1.588 2.271-.229.606 3.482 1.099 3.883 1.294 1.352.66 2.52 1.697 3.654 2.666 1.082.927 1.588 1.921 2.264 3.125.188.334.373 1.025.834 1.017.469-.008 1.736-1.693 2.02-1.982 1.105-1.107 2.129-2.185 3.463-3.02 5.805-3.622 10.836-5.878 17.771-6.488 14.756-1.302 28.777-1.762 41.537-10.415 13.311-9.031 20.157-25.572 14.247-40.981zM48.579 78.055c-.643.22-1.375.578-2.059.444-.139-1.111.162-2.198.439-3.268.748-2.845 1.229-5.735 1.553-8.645.559.777 1.156 1.531 1.842 2.218 2.311 2.32 5.471 4.469 8.932 6.028-3.551.87-7.06 1.969-10.707 3.223zm62.242-21.967c-4.943 7.046-13.441 11.999-21.426 14.559-4.816 1.547-9.693 1.848-14.662 2.121-2.166-.875-4.402-1.559-6.535-2.507-7.693-3.439-14.193-9.043-19.061-15.89.012-2.271-.006-4.542-.021-6.801-.094-12.345.537-27.466 12.814-34.145 2.441-1.331 5.053-2.344 7.74-3.06 15.523-4.136 34.137 3.28 41.629 17.713 2.207 4.233 3.459 8.963 3.736 13.725.31 5.421-1.358 10.203-4.214 14.285z"/></defs><use xlink:href="#SVGID_5_" overflow="visible" fill="#40c0e7"/><clipPath id="SVGID_6_"><use xlink:href="#SVGID_5_" overflow="visible"/></clipPath></g><g><path d="M21.397 96.472c-3.148 3.357-6.25 6.756-9.449 10.061-2.266 2.345-4.904 4.566-6.18 7.648-2.773 6.679 4.852 13.729 11.422 10.769 2.906-1.306 5.047-4.122 7.094-6.459 2.605-2.975 5.4-5.788 7.941-8.82 2.459-2.935 4.73-6.032 7.385-8.796 3.633-3.793 5.395-9.866.576-13.48-5.73-4.298-10.416.415-14.34 4.42a310.365 310.365 0 0 0-4.449 4.657z" fill="#fff"/><path d="M13.983 127.73h-.008c-3.559 0-7.051-1.926-9.117-5.022-1.914-2.866-2.287-6.268-1.018-9.325 1.211-2.91 3.338-5.022 5.389-7.065.414-.411.822-.818 1.221-1.234 2.174-2.242 4.299-4.525 6.422-6.809l3.014-3.228a262.926 262.926 0 0 1 4.477-4.693c2.947-3.003 6.617-6.748 11.229-6.748 2.008 0 3.969.716 5.846 2.121 2.234 1.677 3.529 3.952 3.744 6.581.273 3.325-1.25 7.07-4.066 10.008-1.717 1.787-3.248 3.696-4.867 5.719-.807.997-1.604 1.994-2.426 2.975-1.494 1.778-3.068 3.492-4.6 5.149-1.131 1.225-2.272 2.45-3.369 3.704l-.818.948c-1.893 2.21-4.051 4.717-6.99 6.04a9.837 9.837 0 0 1-4.063.879zm21.608-39.956c-2.865 0-5.725 2.923-8.254 5.499a292.089 292.089 0 0 0-4.416 4.624l-2.994 3.219c-2.15 2.304-4.291 4.607-6.481 6.866-.42.432-.848.863-1.279 1.291-1.848 1.835-3.59 3.569-4.471 5.706-1.004 2.398-.039 4.425.629 5.413 1.287 1.926 3.5 3.171 5.65 3.171h.008c.807 0 1.603-.175 2.352-.513 2.092-.94 3.844-2.979 5.545-4.957l.838-.973a189.084 189.084 0 0 1 3.438-3.789c1.496-1.62 3.045-3.296 4.475-4.999.799-.956 1.578-1.933 2.369-2.906 1.604-2.003 3.264-4.074 5.107-5.996 1.975-2.059 3.098-4.66 2.918-6.785-.113-1.445-.797-2.617-2.086-3.582-1.153-.866-2.252-1.289-3.348-1.289z" fill="#78a3ad"/></g><path d="M6.136 114.189c.326-.44.742-.834 1.254-1.168 1.604-1.042 3.574-1.03 5.324-.378 2.709 1.001 5.232 3.411 6.012 6.228.508 1.831-.004 4.009-1.291 5.417-1.697 1.852-4.672 1.445-6.902.924-2.17-.504-3.902-2.809-4.742-4.758-.845-1.975-.997-4.466.345-6.265z" fill="#78a3ad"/><path d="M23.019 121.576a2.08 2.08 0 0 1-1.642-3.361c1.879-2.426 2.051-7.611.355-11.099-1.033-2.129-2.498-3.216-4.361-3.232a2.08 2.08 0 0 1-2.068-2.101 2.09 2.09 0 0 1 2.084-2.068h.012c3.488.029 6.354 2.011 8.088 5.581 2.369 4.896 2.002 11.836-.816 15.47a2.078 2.078 0 0 1-1.652.81z" fill="#78a3ad"/><path d="M32.534 111.328c-.447 0-.898-.143-1.277-.436a2.077 2.077 0 0 1-.365-2.926c1.879-2.421 2.041-7.607.35-11.099-1.025-2.124-2.5-3.215-4.355-3.228a2.081 2.081 0 0 1-2.066-2.104 2.08 2.08 0 0 1 2.082-2.064h.01c3.483.029 6.356 2.011 8.082 5.581 2.377 4.896 2.012 11.836-.812 15.471a2.094 2.094 0 0 1-1.649.805z" fill="#78a3ad"/></g></g></g></g></g></svg>