<svg id="レイヤー_1" xmlns="http://www.w3.org/2000/svg" xmlns:xlink="http://www.w3.org/1999/xlink" viewBox="0 0 128 128"><g><g><g><defs><path id="SVGID_1_" d="M33.098 6.846c-1.754.175-3.565.201-5.254.648-1.688.45-3.466 1.348-5.033 2.106-3.069 1.48-5.514 3.78-3.968 7.396.807 1.868 1.52 3.679 1.866 5.655 1.795 10.257 3.106 21.141-.667 31.122-.726 1.914-1.969 3.367-2.133 5.477-.114 1.59.113 3.065.466 4.604 2.179 9.365 3.198 18.976 3.695 28.568.247 4.746.357 9.497.384 14.252.018 4.559-.274 9.95 2.236 13.988 2.049 3.294 7.8 3.595 11.193 4.325 21.281 4.573 45.599 4.34 64.597-7.55 5.395-3.371 10.511-7.656 14.926-12.22 4.904-5.075 2.223-10.717-.686-15.961-2.19-3.951-4.218-7.989-5.99-12.146-3.823-8.976-6.259-18.29-7.176-28.002-.165-1.695-.216-3.065-.101-4.796.101-1.589-.051-3.239-1.508-4.182-10.229-6.594-11.019-17.599-13.905-28.304-.703-2.61-.224-10.25-4.115-10.829C78.48.487 74.705-.07 71.222.49c-2.954.475-7.053.175-8.473 3.542-.489 1.16.04 2.288-.069 3.494-.73 8.113-15.926 9.561-21.218 5.893-3.156-2.192-3.642-7.043-8.364-6.573z"/></defs><use xlink:href="#SVGID_1_" overflow="visible" fill="#ed6c30"/><clipPath id="SVGID_2_"><use xlink:href="#SVGID_1_" overflow="visible"/></clipPath><path d="M37.593 29.935c1.416 4.077 3.125 8.031 6.104 11.181 4.175 4.415 11.561 6.496 17.275 4.531 1.859-.639 3.613-1.61 5.08-2.939 4.869-4.429 5.536-10.472 5.335-16.644-.141-4.228-.245-8.46-.621-12.671-.316-3.423-.811-9.4-4.578-10.992-1.567-.66-3.522-.319-4.216 1.462-.312.809-.243 1.693-.572 2.485-.393.923-.666 1.909-1.196 2.769-.841 1.356-2.485 2.21-3.946 2.677-1.477.464-3.207.644-4.747.541-1.265-.084-2.462.197-3.745.258-2.663.123-5.413-.484-7.45-2.289-.776-.69-1.503-1.279-2.184-2.065-.603-.692-1.36-1.439-2.361-1.315-4.792.598-2.507 7.898-1.969 10.812.243 1.343.54 2.679 1.015 3.961.995 2.662 1.812 5.479 2.776 8.238z" clip-path="url(#SVGID_2_)" fill="#855c52"/><path d="M26.712 96.002c.694-.206 1.338-.43 1.873-.632 2.878-1.083 5.572-2.855 8.057-4.635 5.017-3.604 9.438-7.948 14.152-11.934 12.338-10.447 23.854-21.91 33.862-34.625 2.408-3.053 5.542-7.63 6.272-11.746.319-1.811.375-3.552.712-5.333.056-.265 3.998 3.577 4.332 3.954 1.817 2.104 3.887 3.698 5.946 5.534 4.564 4.098 3.118 12.713 1.294 17.768-1.91 5.306-5.012 10.152-8.438 14.606-2.814 3.666-5.998 7.021-9.015 10.511-8.417 9.721-17.77 18.692-28.096 26.376-4.582 3.41-9.483 6.333-14.029 9.789-5.513 4.196-10.428 6.935-17.49 6.935-.868 0-1.759.041-2.613-.066-2.188-.274-3.015-2.193-3.271-4.113-.238-1.814-.301-3.563-.301-5.436 0-2.188-.302-4.267-.302-6.434.008-3.423-.375-7.174.36-10.486 1.661 1.088 4.465.625 6.695-.033z" clip-path="url(#SVGID_2_)" fill="#fff"/></g></g><g><g><path d="M33.098 6.846c-1.754.175-3.565.201-5.254.648-1.688.45-3.466 1.348-5.033 2.106-3.069 1.48-5.514 3.78-3.968 7.396.807 1.868 1.52 3.679 1.866 5.655 1.795 10.257 3.106 21.141-.667 31.122-.726 1.914-1.969 3.367-2.133 5.477-.114 1.59.113 3.065.466 4.604 2.179 9.365 3.198 18.976 3.695 28.568.247 4.746.357 9.497.384 14.252.018 4.559-.274 9.95 2.236 13.988 2.049 3.294 7.8 3.595 11.193 4.325 21.281 4.573 45.599 4.34 64.597-7.55 5.395-3.371 10.511-7.656 14.926-12.22 4.904-5.075 2.223-10.717-.686-15.961-2.19-3.951-4.218-7.989-5.99-12.146-3.823-8.976-6.259-18.29-7.176-28.002-.165-1.695-.216-3.065-.101-4.796.101-1.589-.051-3.239-1.508-4.182-10.229-6.594-11.019-17.599-13.905-28.304-.703-2.61-.224-10.25-4.115-10.829C78.48.487 74.705-.07 71.222.49c-2.954.475-7.053.175-8.473 3.542-.489 1.16.04 2.288-.069 3.494-.73 8.113-15.926 9.561-21.218 5.893-3.156-2.192-3.642-7.043-8.364-6.573z" fill="none"/></g></g></g></svg>