<svg id="レイヤー_1" xmlns="http://www.w3.org/2000/svg" viewBox="0 0 128 128"><g><g><g><path d="M63.956 126.789c-34.276 0-62.219-27.88-62.289-62.149C1.606 30.298 29.486 2.311 63.815 2.25h.13c34.284 0 62.213 27.881 62.26 62.151.07 34.328-27.805 62.315-62.139 62.388h-.11z" fill="#2f2f2f"/><path d="M63.951 3.75c33.455 0 60.709 27.209 60.755 60.655.069 33.5-27.135 60.812-60.641 60.884h-.109c-33.451 0-60.72-27.209-60.789-60.652C3.108 31.123 30.316 3.809 63.819 3.75h.132m-.005-3h-.133C28.605.812.105 29.421.167 64.643c.072 35.177 28.617 63.646 63.789 63.646h.114c35.209-.075 63.708-28.676 63.636-63.89C127.658 29.223 99.112.748 63.946.75z" fill="#464747"/></g></g><g><path d="M74.902 24.314c4.159 9.557.318 23.572-13.266 30.761-20.615 11.101-41.3-1.223-36.71-21.793C27.99 19.52 42.038 11.511 53.878 11.615c9.31.139 17.743 5.197 21.024 12.699z" fill="#fff"/></g><path d="M54.468 26.188c.535-2.197.099-4.338-1.469-5.941-3.123-3.163-9.102-2.58-14.524 1.293-5.542 3.937-7.863 9.388-5.345 13.191 1.263 1.911 3.404 2.861 5.955 2.917-1.386 3.236-1.365 6.771.482 9.592 3.747 5.722 12.292 5.834 19.836-.147 7.293-5.808 8.824-13.574 4.183-18.118-2.337-2.367-5.615-3.202-9.118-2.787zm-9.306 4.073c-2.243 1.528-4.67 1.499-5.837-.038-1.164-1.582-.388-3.827 1.847-5.409 2.189-1.598 4.694-1.732 5.96-.254 1.263 1.432.677 3.61-1.365 5.251-.12.107-.209.145-.316.241-.099.051-.195.137-.289.209zm3.886 4.18c2.649-1.983 5.759-2.09 7.51-.075 1.798 1.964 1.143 5.064-1.649 7.207-2.821 2.197-6.102 2.117-7.777-.053-1.595-2.133-.755-5.146 1.916-7.079z" fill="#2f2f2f"/></g></svg>