<svg id="レイヤー_1" xmlns="http://www.w3.org/2000/svg" xmlns:xlink="http://www.w3.org/1999/xlink" viewBox="0 0 128 128"><g><g fill="#f79329"><path d="M103.611 93.063l-1.471 1.402 3.858 3.519 1.459-1.436.57-.702s1.571.479 2.163-.733c.642-1.3-.121-2.792-.767-3.6-.842-1.048-2.542-1.95-3.733-1.6-.542.158-1.233.4-1.45 1.554-.051.273.183.913.183.913l-.812.683z"/><path d="M110.392 99.081s-.358.363-1.534 1.538l3.601 3.286 1.288-1.487.179-.269s.717.311 1.358-.229c.875-.738.601-1.696.388-2.229-.612-1.508-2.487-3.388-4.113-2.709-1.433.6-.966 1.9-.966 1.9l-.201.199z"/><path d="M95.907 86.298v.002l-1.471 1.165 4.846 4.419 1.384-1.163.574-.633s.834.087 1.455-.1c.695-.208 1.125-.816 1.296-1.575.3-1.333-.242-2.529-.976-3.45-.649-.804-1.358-1.492-2.858-1.95-1.358-.417-3.267.067-3.709 1.384-.241.702-.074 1.571-.074 1.571l-.467.33z"/></g><g><g><g><defs><path id="SVGID_1_" d="M88.377 81.215c-7.329-6.106-19.747-17.239-22.705-21.316-2.032-2.804-3.592-5.796-4.608-9.117-1.025-3.342-1.59-6.8-1.851-10.284a68.927 68.927 0 0 1-.175-5.838c.133-10.93 1.634-22.685-8.459-28.814-8.876-4.171-23.285-2.104-37.878 11.738C-2.258 31.785.543 48.957.543 48.957c1.017 4.404 1.899 8.426 6.475 11.572 5.968 4.108 15.393 3.196 21.548 2.1 8.771-1.571 14.013.108 16.198.929 6.736 2.525 13.69 6.708 16.982 8.917 1.313.883.25 1.892-.517 2.18-2.309.854-4.108 2.042-4.763 2.525-4.062 2.963-6.202 7.9-6.904 12.763a18.487 18.487 0 0 0-.467 4.629c.033 1.142.366 2.325.658 3.509.312 1.209.575 2.417.441 3.559-.158 1.413-.591 2.534-.333 3.971.217 1.217.759 2.229 1.568 3.171 1.69 1.975 4.19 3.129 6.732 3.496 1.625.233 3.092-.779 4.742-.242 1.221.396 2.217 1.221 3.258 1.929.784.534 1.917 1 2.259 1.95.312.892.26 1.804 1.037 2.504.729.671 1.88 1.104 2.806 1.471.641.254 1.591.346 2.282.229.792-.133 1.552-.521 2.359-.333.791.179 1.166.738 1.567 1.367 1.074 1.684 3.299 2.096 5.149 2.096.938-.004 1.816-.179 2.733-.325 1.566-.25 3.15.471 4.65.779 2.325.483 4.783.596 7.025-.279 3.492-1.367 6.384-4.088 8.692-6.984a23.55 23.55 0 0 1 2.175-2.4c.5-.483 1.075-1.113 1.805-1.221 1.021-.15 1.662.759 2.471 1.179 1.042.538 2.146 1.04 3.309 1.221 1.816.277 3.033-.792 3.441-2.404.334-1.346.222-2.84-.541-4.027-.792-1.24-2.309-1.911-3.417-2.838.004 0-25.182-22.737-27.586-24.735zM24.023 47.031c-.046-3.525 1.837-7.365 4.188-10.319 1.302-1.64 3.2-3.277 4.875-4.508a20.482 20.482 0 0 1 2.034-1.298c2.125-1.2 4.383-2.052 6.691-2.367a8.05 8.05 0 0 1 .892-.067c-3.564 7.971-10.842 14.747-18.68 18.559zm53.808 58.854c-.525.579-.934 1.225-1.542 1.738-.825.721-1.504 1.737-2.649 2.004-1.291.304-2.643-.438-3.56-1.308l-.087-.092c-1.722-1.684-3.479-3.263-5.238-4.904a13.939 13.939 0 0 1-1.8-2.042c-.5-.704-.315-1.242.408-1.559 1.925-.837 4.084-1.083 6.159-.921 2.25.171 4.021 1.054 5.925 2.2 1.158.7 3.079 1.592 3.2 3.154.067.776-.341 1.209-.816 1.73zm8.768 4.684c-.759 1.196-1.68 2.279-2.659 3.3-.85.888-1.975 2.2-3.375 1.938-.559-.108-1.259-.446-1.65-.871-.565-.613-.175-1.208.242-1.788.779-1.096 1.825-1.938 2.792-2.851.925-.875 1.967-1.975 3.329-1.9 1.203.063 2.053 1.034 1.321 2.172zm.857-14.405c-.579.729-1.941 2.992-2.958 2.888-.333-.033-.533.004-.816-.158-.342-.2-.667-.5-.983-.737-.659-.483-1.317-.963-1.983-1.434-4.942-3.509-9.584-6.109-15.793-5.171-1.017.154-1.99.438-2.938.85-.525.229-1.188.508-1.713.125-.617-.446-.083-1.829.125-2.379.3-.8.675-1.571 1.134-2.292a9.574 9.574 0 0 1 3.775-3.425c3.107-1.559 7.584-2.067 10.934-1.054 1.908.579 3.417 1.538 5.042 2.654a59.03 59.03 0 0 1 4.958 3.838c.9.767 2.084 1.433 2.709 2.462.772 1.237-.784 2.954-1.493 3.833zm7.426 20.155c-.842 1.329-3.066 1.4-4.417 1.7-.592.125-1.783.262-2.333-.108-.301-.204-.4-.554-.117-1.129.492-.983 1.075-2.013 1.917-2.746.55-.479 1.125-1.092 1.884-1.2 1.341-.192 3.941 2.1 3.066 3.483zm-4.792-11.138a1.82 1.82 0 0 1-.542-1.83c.459-1.725 1.751-2.908 2.876-4.217.783-.9 1.858-1.783 3.125-1.442 1.258.342 1.658 1.179 1.491 2.092a3.126 3.126 0 0 1-.449 1.075c-1.059 1.668-3.893 6.672-6.501 4.322zm10.509 5.863l-.074.071c-.518.542-.942.733-1.692.487-1.45-.479-2.767-2.15-1.792-3.671.358-.554.759-1.087 1.176-1.592.6-.729 1.533-1.837 2.542-1.925 1.017-.096 1.725.908 2.024 1.871.096.288.142.575.158.821.1 1.6-1.313 2.879-2.342 3.938z"/></defs><use xlink:href="#SVGID_1_" overflow="visible" fill="#fcc21b"/><clipPath id="SVGID_2_"><use xlink:href="#SVGID_1_" overflow="visible"/></clipPath></g><path d="M59.188 55.657c-8.475-12.33-5.066-30.802-5.066-30.802s-4.351 9.252-4.354 9.255c-.275.496-.154 1.556-.171 2.096-.05 1.909.134 3.821.475 5.701.518 2.879 1.417 5.686 2.604 8.354 1.617 3.617 3.763 6.984 6.246 10.061a57.611 57.611 0 0 0 4.792 5.211 69.502 69.502 0 0 0 2.722 2.483c.504.438.945.835 1.621.979.616.129 1.024-.279 1.008-.883-.033-1.167-1.475-1.814-2.184-2.538a34.16 34.16 0 0 1-1.829-2.029c-2.106-2.513-4.005-5.192-5.864-7.888z" fill="#fff"/></g><g fill="#fff"><path d="M24.786 34.181a37.937 37.937 0 0 1 2.191-2.725c-3.408-2.434-8.676-5.265-15.334-5.759 0 0-2.242 2.462-3.492 5.384 0 0 9.342-.73 16.635 3.1z"/><path d="M23.096 36.723c-4.219-1.106-10.428-2.029-16.861-.434 0 0-1.958 5.217-1.05 10.367 1.138 6.43 4.066 6.067 10.192 3.913 1.017-.354 2.688-1.063 4.492-1.821-.517-4.363 1.166-8.613 3.227-12.025z"/></g></g><path d="M126.163 109.452c-1.029-1.1-2.879-1.9-4.346-2-1.192-.079-1.092-.013-2.259-.404-.434-.142-1.333-.867-2.767-1.8-.717-.466-1.442.148-1.442.148l.317.284s.791.835-1.209 4.235c-.642 1.096-1.899 2.2-2.533 2.6-.642.406-1.221.304-1.221.304s-.146.629.688 1.096c.408.229 1.191.658 1.467.933 1.184 1.171 1 1.842 1.7 3.434.524 1.196 1.831 2.321 3.033 2.754 1.542.55 3.226.55 4.742-.079 4.159-1.738 7.326-7.78 3.83-11.505z" fill="#2f2f2f"/></g></svg>