<svg id="レイヤー_1" xmlns="http://www.w3.org/2000/svg" xmlns:xlink="http://www.w3.org/1999/xlink" viewBox="0 0 128 128"><g><path d="M116.37 64.312l-19.659-5.535 7.253-7.256-12.739.888 7.159-19.25-21.14 7.417 6.729-13.819-12.384 11.19-3.724-19.697L55.916 33.9l-6.969-14.221-1.186 16.074-17.387-10.058 4.525 15.354-15.139.456 11.627 15.598 5.308-4.71c7.421-2.455 22.721-5.655 37.017 3.023 0 0 17.413 13.081 14.884 33.077l2.186-4.15 18.844-.27-9.636-11.999 16.38-7.762z" fill="#fcc21b"/><g><path d="M51.459 45.373c-23.098 0-41.825 18.425-41.825 41.149 0 22.729 18.728 41.159 41.825 41.159 23.099 0 41.822-18.429 41.822-41.159 0-22.725-18.723-41.149-41.822-41.149zm-6.505 28.284c-1.417 1.224-2.914 1.8-4.701 1.037-1.526-.647-2.264-1.571-2.272-3.251-.008-1.484 1.036-2.936 2.414-3.553.303-.133.622-.229.949-.274 1.608-.219 3.334.204 4.138 1.725.633 1.202.55 3.379-.528 4.316zm8.803-9.13c-1.294-.929-1.785-1.945-1.423-3.487.323-1.373 1.631-2.479 3.064-2.749.315-.058.639-.079.958-.05 1.562.149 3.098.908 3.521 2.488.327 1.248-.233 3.234-1.461 3.856-1.608.826-3.142 1.024-4.659-.058zm12.04 18.575c-1.642 1.468-3.375 2.161-5.448 1.244-1.766-.775-2.62-1.891-2.632-3.901-.01-1.791 1.201-3.536 2.798-4.274a3.79 3.79 0 0 1 1.1-.336c1.86-.261 3.863.236 4.797 2.078.734 1.445.637 4.061-.615 5.189z" fill="#2f2f2f"/></g><g><g><defs><path id="SVGID_1_" d="M116.482 37.033c-1.567.819-2.679 2.303-4.112 3.317-1.441 1.022-3.151 1.578-4.901 1.785-2.024.24-4.079-.07-6.091.273-1.819.312-3.669.979-5.22 1.974-2.27 1.455-3.831 3.728-5.438 5.838-1.24 1.621-2.488 3.943-1.898 6.037.463 1.687 1.74 3.213 3.357 3.814.538.199 2.621.303 3.757.291 2.527-.025 6.898-.361 10.35-2.339 1.549-.887 2.585-2.206 3.746-3.578 1.044-1.235 1.493-2.786 2.322-4.146 1.833-3.006 5.703-3.039 8.614-4.324 3.276-1.443 5.274-4.963 2.638-8.052-1.348-1.583-3.706-1.833-5.614-1.435-.543.111-1.046.3-1.51.545z"/></defs><use xlink:href="#SVGID_1_" overflow="visible" fill="#78a3ad"/><clipPath id="SVGID_2_"><use xlink:href="#SVGID_1_" overflow="visible"/></clipPath><path d="M112.452 39.084l-1.815 1.364s-1.311 6.781 5.134 8.668l1.906-1.008c0 .001-6.207-2.272-5.225-9.024z" clip-path="url(#SVGID_2_)" fill="#ed6c30"/><path d="M109.442 40.829l-1.352.149s-2.256 7.857 5.52 10.328l.57-1.19c.001-.001-6.492-2.173-4.738-9.287z" clip-path="url(#SVGID_2_)" fill="#ed6c30"/></g></g><g><g><defs><path id="SVGID_3_" d="M87.228 10.371c-1.051 1.576-1.351 3.54-2.189 5.237-.845 1.708-2.173 3.103-3.723 4.195-1.787 1.261-3.888 2.02-5.617 3.375-1.564 1.224-2.965 2.799-3.935 4.54-1.402 2.54-1.713 5.485-2.152 8.305-.34 2.164-.327 5 1.293 6.675 1.303 1.356 3.296 2.148 5.129 1.891.614-.087 2.64-1.053 3.707-1.646 2.379-1.319 6.335-3.872 8.592-7.504 1.002-1.635 1.309-3.413 1.707-5.303.353-1.699-.01-3.399.078-5.112.196-3.779 3.827-5.792 5.93-8.496 2.366-3.041 2.451-7.392-1.619-8.959-2.089-.814-4.448.161-6.049 1.515a6.106 6.106 0 0 0-1.152 1.287z"/></defs><use xlink:href="#SVGID_3_" overflow="visible" fill="#78a3ad"/><clipPath id="SVGID_4_"><use xlink:href="#SVGID_3_" overflow="visible"/></clipPath><path d="M84.471 14.368l-1.023 2.222s2.231 7.083 9.295 5.568l1.285-1.928c-.001 0-7.028 1.029-9.557-5.862z" clip-path="url(#SVGID_4_)" fill="#ed6c30"/><path d="M82.518 17.556l-1.202.833s1.883 8.59 10.499 6.945l-.063-1.418c-.001.001-7.253 1.267-9.234-6.36z" clip-path="url(#SVGID_4_)" fill="#ed6c30"/></g></g><g><g><defs><path id="SVGID_5_" d="M32.118 10.156c1.003 1.793 2.757 3.043 3.98 4.689 1.24 1.649 1.932 3.619 2.231 5.655.34 2.34.037 4.746.506 7.081.415 2.107 1.243 4.239 2.454 6.024 1.763 2.602 4.453 4.347 6.966 6.154 1.924 1.392 4.668 2.768 7.082 2.026 1.947-.593 3.693-2.129 4.346-4.026.215-.637.271-3.066.224-4.387-.108-2.948-.632-8.026-3.036-11.982-1.084-1.775-2.653-2.944-4.288-4.254-1.466-1.173-3.282-1.658-4.896-2.582-3.554-2.042-3.711-6.539-5.302-9.895C40.61.885 36.451-1.334 32.94 1.831c-1.808 1.615-2.023 4.375-1.501 6.58.14.629.381 1.212.679 1.745z"/></defs><use xlink:href="#SVGID_5_" overflow="visible" fill="#78a3ad"/><clipPath id="SVGID_6_"><use xlink:href="#SVGID_5_" overflow="visible"/></clipPath><path d="M34.622 14.783l1.65 2.079s7.937 1.32 9.935-6.25l-1.231-2.185s-2.454 7.293-10.354 6.356z" clip-path="url(#SVGID_6_)" fill="#ed6c30"/><path d="M36.745 18.236l.216 1.569s9.22 2.392 11.863-6.74l-1.406-.634c0 .001-2.331 7.63-10.673 5.805z" clip-path="url(#SVGID_6_)" fill="#ed6c30"/></g></g></g></svg>