<svg id="レイヤー_1" xmlns="http://www.w3.org/2000/svg" xmlns:xlink="http://www.w3.org/1999/xlink" viewBox="0 0 128 128"><g><g><g><g><defs><path id="SVGID_1_" d="M112.565 95.078a1.624 1.624 0 0 1-.776.7 1.628 1.628 0 0 1-2.129-.852L70.992 5.097a1.623 1.623 0 0 1 2.98-1.284l38.666 89.832a1.621 1.621 0 0 1-.073 1.433z"/></defs><use xlink:href="#SVGID_1_" overflow="visible" fill="#ed6c30"/><clipPath id="SVGID_2_"><use xlink:href="#SVGID_1_" overflow="visible"/></clipPath><path d="M104.315 75.767c-.175.314-.456.58-.816.735a1.7 1.7 0 0 1-2.226-.897L69.549 1.738a1.697 1.697 0 0 1 .892-2.231c.861-.37 1.86.026 2.233.887l31.717 73.877a1.682 1.682 0 0 1-.076 1.496z" clip-path="url(#SVGID_2_)" fill="#ed6c30"/></g><path d="M69.096 14.014c-.234 1.655-.371 3.309-.09 4.99.179 1.063.736 2.038 1.417 2.867 1.001 1.23 2.886 2.288 4.51 2.142.102-.009.211-.03.311-.048 1.059-.235 2-1.122 2.353-2.136.384-1.111-.113-3.761-1.589-3.895-.367.986-.198 2.44-1.533 2.678-1.401.251-2.11-1.261-2.491-2.327-1.006-2.843.51-5.684.442-8.537-.024-.916-.621-4.833-2.271-3.801-.792.493-.363 2.463-.416 3.258-.107 1.611-.422 3.208-.643 4.809z" fill="#2f2f2f"/><path d="M75.842 21.881c.021.02.045.033.066.05 2.552 2.117 5.054.546 6.266-2.023.686-1.453-.287-2.52-1.073-3.658-.909-1.324-1.374-2.809-1.968-4.289-.777-1.938-1.716-3.81-2.358-5.802-.195-.603-.444-1.197-.541-1.818-.312-2.014-1.997-3.328-4.066-2.586-.874.313-1.683 1.007-2.216 1.755-.698.976-.81 2.225-.256 3.299.796 1.542 1.904 2.827 2.589 4.463 1.037 2.468 2.294 5.392 2.573 8.077.115 1.075.136 1.789.984 2.532z" fill="#2f2f2f"/></g></g></g><g><path d="M93.274 118.948c-1.976 3.056-5.486 5.069-8.955 5.597-5.687.867-12.075-1.621-16.877-5.324-3.525-2.719-6.649-5.96-9.475-9.39a317.307 317.307 0 0 1-2.721-3.57L4.752 40.96l-.071-.04c-2.661-3.231-3.497-6.529-2.938-8.898C.336 34.35.877 38.39 4.118 42.326l.072.041 50.493 65.301a306.924 306.924 0 0 0 2.721 3.57c2.827 3.43 5.95 6.671 9.475 9.39 4.801 3.703 11.189 6.191 16.877 5.324 3.469-.529 6.979-2.542 8.955-5.597.459-.71.875-1.58 1.177-2.509-.19.396-.397.767-.614 1.102z" fill="#00bcd5"/><path d="M93.274 118.948c-1.976 3.056-5.486 5.069-8.955 5.597-5.687.867-12.075-1.621-16.877-5.324-3.525-2.719-6.649-5.96-9.475-9.39a317.307 317.307 0 0 1-2.721-3.57L4.752 40.96l-.071-.04c-2.661-3.231-3.497-6.529-2.938-8.898C.336 34.35.877 38.39 4.118 42.326l.072.041 50.493 65.301a306.924 306.924 0 0 0 2.721 3.57c2.827 3.43 5.95 6.671 9.475 9.39 4.801 3.703 11.189 6.191 16.877 5.324 3.469-.529 6.979-2.542 8.955-5.597.459-.71.875-1.58 1.177-2.509-.19.396-.397.767-.614 1.102z" fill="#26a8c6"/><path d="M4.681 40.92l.072.041 50.493 65.301a306.924 306.924 0 0 0 2.721 3.57c2.827 3.43 5.95 6.671 9.475 9.39 4.801 3.703 11.189 6.191 16.877 5.324 3.469-.529 6.979-2.542 8.955-5.597.217-.335.424-.707.614-1.103.87-2.676.779-5.838-2.081-7.054-2.103-.894-5.207-.163-7.509-.755-3.593-.924-6.852-2.491-9.631-4.71l-57.426-61.23c-1.774-2.233-3.667-4.445-5.163-6.898-1.728-2.832-3.618-8.194-7.96-6.988a3.959 3.959 0 0 0-2.375 1.81c-.559 2.369.277 5.668 2.938 8.899z" fill="#40c0e7"/></g><g><path d="M124.981 89.78c-9.351 8.732-23.577 4.511-32.848-2.231-4.552-3.31-9.421-7.279-13.72-10.867L27.336 36.784c-.986-.579-1.952-1.41-3.101-2.485-3.876-3.626-5.1-6.717-4.456-9.282-1.581 2.813-.719 6.373 3.894 10.688 1.149 1.075 2.115 1.905 3.101 2.485l51.077 39.897c4.299 3.588 9.169 7.557 13.72 10.867 9.271 6.742 23.497 10.963 32.848 2.231 1.061-.991 2.035-2.449 2.497-4a9.51 9.51 0 0 1-1.935 2.595z" fill="#26a8c6"/><path d="M24.235 34.299c1.149 1.075 2.115 1.905 3.101 2.485l51.077 39.897c4.299 3.588 9.169 7.557 13.72 10.867 9.271 6.742 23.497 10.963 32.848 2.231a9.505 9.505 0 0 0 1.935-2.594c.387-1.297.417-2.658-.171-3.866-1.711-3.512-4.654-1.781-7.534-1.455-7.017.793-14.09-2.708-20.367-6.567L31.954 31.5c-2.892-2.422-5.122-5.032-5.925-6.317-1.57-2.513-4.653-2.57-5.968-.628a6.21 6.21 0 0 0-.281.463c-.644 2.564.58 5.656 4.455 9.281z" fill="#40c0e7"/></g><path d="M90.487 113.897c-.522-.222-1.754-.222-2.57-.222l-.394.001c-1.383 0-2.735-.029-4.066-.371-4.12-1.06-7.786-2.857-10.896-5.341l-.189-.152-44.311-47.7-.013.014a1.925 1.925 0 0 0-1.498-.729c-1.063 0-1.933.87-1.933 1.933 0 .065.016.125.022.188a1.44 1.44 0 0 0 .168.631l.001.002c.055.109.119.221.207.339.587.787 2.096 2.693 3.524 4.486l29.4 37.251a393.751 393.751 0 0 0 2.633 3.459c3.005 3.646 5.927 6.545 8.932 8.863 3.893 3.003 8.558 4.795 12.48 4.795h.001c.627 0 1.242-.046 1.827-.135 2.725-.415 5.266-1.984 6.629-4.092.103-.159.205-.336.304-.526.178-.63.578-2.338-.258-2.694z" opacity=".5" fill="#afebf3"/><path d="M121.156 84.25c-.274-.53-.818-.736-1.203-.875-1-.362-2.144-.232-4.391.044 0 0-.968.119-2.035.089-2.7-.076-5.839-.914-5.839-.914a34.146 34.146 0 0 1-5.896-2.176l-.215-.111-50.463-33.009-.01.017a1.92 1.92 0 0 0-1.612-.419 1.939 1.939 0 0 0-1.514 2.276c.013.063.04.119.059.18.04.188.132.383.287.583l.001.003.002.001c.075.096.161.194.27.292.731.656 2.585 2.227 4.339 3.704L86.72 79.636a364.283 364.283 0 0 0 3.263 2.872c3.664 2.983 7.1 5.249 10.503 6.93 4.408 2.177 9.335 3.015 13.18 2.242h.001a12.173 12.173 0 0 0 1.764-.492c2.59-.944 4.772-2.983 5.693-5.318.109-.276.18-.484.194-.576.008-.055.08-.576-.162-1.044z" opacity=".5" fill="#afebf3"/><g><g><g><defs><path id="SVGID_3_" d="M31.907 124.724c-.411.388-.98.59-1.575.507a1.913 1.913 0 0 1-1.642-2.158L44.27 8.466a1.916 1.916 0 0 1 2.158-1.641 1.91 1.91 0 0 1 1.641 2.158l-15.582 114.61a1.896 1.896 0 0 1-.58 1.131z"/></defs><use xlink:href="#SVGID_3_" overflow="visible" fill="#ed6c30"/><clipPath id="SVGID_4_"><use xlink:href="#SVGID_3_" overflow="visible"/></clipPath><g clip-path="url(#SVGID_4_)"><path d="M35.397 100.147a2.034 2.034 0 0 1-1.683.54 2.051 2.051 0 0 1-1.754-2.301L45.101 2.429a2.043 2.043 0 0 1 4.048.556l-13.13 95.951a2.045 2.045 0 0 1-.622 1.211z" fill="#ed6c30"/></g></g><path d="M36.91 16.348c-1.245 1.535-2.397 3.132-3.133 5.002-.469 1.189-.495 2.516-.313 3.769.264 1.86 1.53 4.079 3.265 4.924.113.05.227.101.343.14 1.219.404 2.709.084 3.691-.735 1.061-.886 2.173-3.875.76-4.912-.971.772-1.687 2.352-3.187 1.781-1.571-.604-1.371-2.565-1.105-3.878.71-3.49 3.984-5.451 5.649-8.381.536-.942 2.315-5.274.02-5.239-1.111.021-1.876 2.28-2.415 3.053-1.08 1.558-2.375 2.988-3.575 4.476z" fill="#2f2f2f"/><path d="M38.951 28.433c.008.031.022.061.03.094 1.303 3.696 4.791 3.632 7.586 1.769 1.586-1.057 1.243-2.73 1.146-4.363-.114-1.897.319-3.683.621-5.548.393-2.434.582-4.908 1.141-7.312.171-.732.289-1.489.566-2.176.915-2.234.006-4.591-2.547-5.097-1.072-.219-2.317-.01-3.313.425-1.305.565-2.175 1.76-2.266 3.184-.138 2.051.201 4.03-.101 6.103-.452 3.133-.958 6.861-2.318 9.758-.539 1.158-.955 1.894-.545 3.163z" fill="#2f2f2f"/></g><path d="M29.219 113.133s.937 5.437 3.937 6.374l.75-7.499-4.687 1.125z" fill="#af5531"/></g><path d="M30.707 69.01l-.501-.648c.119.251.291.469.501.648z" fill="#afebf3"/><g><defs><path id="SVGID_5_" d="M38.85 111.761c-.293 2.137-3.466 3.463-7.097 2.974-3.622-.492-6.329-2.622-6.039-4.756.287-2.136 3.465-3.463 7.091-2.972 3.63.49 6.333 2.623 6.045 4.754z"/></defs><use xlink:href="#SVGID_5_" overflow="visible" fill="#78a3ad"/><clipPath id="SVGID_6_"><use xlink:href="#SVGID_5_" overflow="visible"/></clipPath></g><g><path d="M32.266 111.306c2.109-.141 1.968-1.406 1.968-1.406l.106.063 1.395-10.261a2.038 2.038 0 0 1-.338.447 2.034 2.034 0 0 1-1.683.54 2.047 2.047 0 0 1-1.744-1.75l-1.519 11.176c.08.529.428 1.283 1.815 1.191z" fill="#ed6c30"/></g></svg>