<svg id="レイヤー_1" xmlns="http://www.w3.org/2000/svg" viewBox="0 0 128 128"><path fill="#e0e0e0" d="M86.317 35.009l6.047 4.463-2.833 12.785-8.237-7.132z"/><path d="M125.519 67.521c-1.115.191-1.934.334-3.108.396-2.392.125-4.067-.061-6.034-1.356-2.271-1.498-4.579-3.157-7.029-4.369-4.438-2.208-9.896-2.673-14.361-.288-2.365 1.263-4.448 3.432-5.765 5.663-.93 1.573-1.955 3.34-.371 4.827 3.787 3.569 8.963.217 13.409 1.667 4.769 1.554 7.43 5.582 13.064 5.354 3.963-.163 7.388-2.263 9.613-5.319.408-.552.771-1.135 1.104-1.731.628-1.141 2.577-5.363-.522-4.844z" fill="#2f2f2f"/><g><g><g><path d="M97.258 82.047c-1.458-4.592-.147-10.338-3.392-14.065-1.333-1.536-3.138-3.444-5.233-3.729-2.255-.306-4.809-.994-7.138-.881-5.788.292-10.896 2.727-16.743 1.977-2.182-.279-4.371-.171-6.325-1.244-1.305-.719-2.273-1.788-3.517-2.579-3.463-2.198-6.646-4.273-9.38-7.405-2.742-3.14-4.059-7.351-6.571-10.632-.68-.896-1.33-1.692-2.134-2.523-.704-.737-1.162-1.64-1.771-2.45-1.288-1.704-2.858-3.212-4.259-4.84-.717-.827-1.65-1.158-2.509-1.777-.796-.573-1.383-.627-2.351-.752-1.271-.165-2.362-.483-3.675-.494-1.3-.008-2.559.471-3.857.531-.968.046-1.864.396-2.659.969-1.584 1.144-2.559 2.932-3.675 4.496-2.51 3.536-3.852 6.138-6.539 9.526-1.425 1.785-4.305 4.269-4.711 6.692-.469 2.792 2.876 6.044 5.282 6.784 3.667 1.115 9.654-3.054 12.413-4.996 1.014-.714 2.226-.856 3.329-1.362.644-.294.888-.49 1.567-.015 3.117 2.185 4.162 6.404 4.438 9.979.338 4.374-.921 7.419-2.259 11.453-1.388 4.177-1.487 9.161-.945 13.478.392 3.123 2.079 4.925-1.358 6.925-2.226 1.291-4.501 2.664-5.268 5.288-.656 2.251-.416 4.667-.354 6.982.12 4.646.262 9.17 2.572 13.199.452.786 1.015 1.233 1.757 1.927 1.85 1.752 3.25 3.325 5.951 2.754 1.758-.371 1.475-1.713 1.583-3.106.116-1.636.433-2.656-.25-4.3-.726-1.746-3.055-1.317-3.643-3.296-.741-2.509-.763-5.609-.271-8.157 1.042-5.375 7.059-4.474 11.338-4.53 3.709-.043 7.43.073 11.13-.325 4.621-.496 9.188-1.419 13.685-2.583 4.229-1.104 8.354-2.652 12.672-3.411 1.445-.253 3.517-.654 4.967-.557 1.759.117 3.167 1.925 4.441 2.971 8.367 6.871 29.711 10.39 24.936-.914-1.108-2.617-4.305-3.876-6.242-5.78-2.382-2.342-4.036-6.092-5.032-9.228z" fill="#855c52"/><path d="M24.024 32.844c.121-.636.3-1.302.32-1.95.019-.462-.25-1.006-.112-1.458.729-.127 1.588.042 2.297.19.866.185 1.558.317 2.475.317.783 0 1.408-.154 1.609.712.087.402-.135.69.166 1.029.233.256.75.317 1.075.392.55.129 1.116.19 1.637.396.213.085.393.056.613.083a3 3 0 0 1 .941.325c.6.332.354.883.612 1.381.121.238.388.3.619.425.336.191.64.373 1.002.512.667.252 1.384.575 1.992.952.566.355.566 1.094.975 1.571.384.454.963.731 1.479 1.021.475.263 1.013.596 1.096 1.173.033.281-.104.566-.075.823.025.219.309.429.496.527 1.004.523 2.796 1.119 2.779 2.54-.008.771.55 1.036 1.158 1.417.301.189.584.36.89.56.261.177.652.25.853.509.167.208.272.45.45.663.408.494.592 1.015.616 1.656.025 1.038.158 1.087.888 1.773 1.204 1.119 1.921 1.877 1.95 3.561.029 1.346 1.513 2.013 2.009 3.192.362.875.129 1.877.333 2.79.138.617.346 1.185.021 1.79-.66 1.221-2.758 1.304-3.958 1.296-.75-.004-1.546.066-2.275-.04-1.592-.233-2.233-1.083-2.742-2.467-.57-1.573-.892-3.229-1.517-4.784-2.008-4.95-5.717-9.069-9.784-12.445-1.35-1.123-2.583-2.302-3.987-3.377-1.029-.792-2.204-1.384-3.171-2.273-.441-.406-.875-.966-1.463-1.185-.604-.228-1.07-.298-1.678-.636-1.139-.633-1.118-1.115-.718-2.379.038-.161.093-.361.129-.582z" fill="#2f2f2f"/><path d="M24.929 28.681c.013-.123.018-.239.018-.362.019-1.344-.734-2.45-2.151-2.715-1.667-.304-2.008 1.354-2.592 2.567-.465.962-.783 1.488-1.796 1.911-1.794.752-2.979 2.244-3.979 3.858-1.013 1.648-2.154 3.144-2.904 4.94 3.547-.575 7.555.337 10.897 1.538 1.338.481 3.009 2.213 4.476 2.046 2.9-.327 1.559-4.271.475-5.667-.871-1.131-3.608-2.763-3.504-4.342.08-1.288.902-2.521 1.06-3.774z" fill="#855c52"/></g></g><path d="M80.216 61.807c-3.005-2.182-8.109-.221-11.747-.221-2.564 0-4.981-.075-7.467-.433-1.621-.235-3.479-1.773-5.171-1.309-2.042.556-1.455 4.252-1.592 5.921-.184 2.271-.347 4.473-.347 6.765 0 3.365.417 7.369 3.913 8.603 4.809 1.7 10.775 1.358 15.765.959 3.387-.271 8.645-.761 10.195-4.321 1.517-3.471-.441-10.542-1.912-13.863-.42-.943-.979-1.622-1.637-2.101z" fill="#fcc21b"/></g><path d="M106.884 105.618c1.121.573 2.18 1.329 2.963 2.144 1.121 1.154 2.059 2.456 3.046 3.715 1.677 2.131 3.167 4.5 5.5 5.977 1.718 1.082 6.451 2.529 7.526-.098.533-1.304-.571-3.902-1.138-5.196-.738-1.704-2.363-3.911-4.334-4.192-.992-.146-1.312.046-2.169-.617-.535-.413-1.168-.923-1.625-1.423-1.456-1.559-2.303-3.913-3.402-5.729-1.717-2.811-4.432-8.29-8.042-9.097-3.051-.679-7.192.852-8.384 3.894-.733 1.89.421 3.075 1.524 4.504.983 1.271 1.428 3.002 2.479 4.19.906 1.015 2.2.735 3.413.975.86.171 1.772.507 2.643.953z" fill="#855c52"/><path d="M47.913 52.996l-1.758-2.671c-5.688 3.759-24.123 4.934-31.636 5.101a17.867 17.867 0 0 0-.65-1.21c1.233-.798 2.476-1.594 3.717-2.392.684-.438 1.363-.875 2.051-1.312.283-.186 1.102-.91 1.467-.804.583.167-.4 3.6-.309 4.115.5.088 1.02-.042 1.517-.056.226-.006.434-.038.667-.064 1.35-.161 1.1-3.711 1.191-4.654.15-1.475.267-2.953.375-4.432.104-1.45.2-2.9.283-4.353.009-.123.643-.498.742-.573.533-.432 1.013-.938 1.566-1.353.367-.277 1.06-.543 1.15-1.048.059-.296-.237-.656-.408-.875-.35-.446-.871-.982-1.438-1.127-.463-.119-.851.329-1.188.591-.625.488-1.25.978-1.88 1.465-.021.021-2.283-2.61-2.428-2.779a1922.69 1922.69 0 0 1-2.326-2.659c-.674-.773-1.174-1.844-2.309-1.077-.358.244-.667.552-.954.867a2.778 2.778 0 0 0-.312.402c-.154.237-.292.542-.038.763.273.239.575.441.821.712.326.36.642.733.963 1.102.655.748 1.308 1.498 1.962 2.248.096.105.184.21.276.314l2.599 2.971a258.45 258.45 0 0 1-.375 5.457l-9.233 5.932a25.541 25.541 0 0 0-3.096-3.144c-.834-.719-2.593-2.304-3.817-2.077-.596.115-.963.738-1.338 1.163-.3.342-.671.659-.579 1.148.096.277 1.413.646 1.687.779.851.423 1.579 1.069 2.292 1.705 1.25 1.112 2.401 2.346 3.351 3.727.316.46.612.938.875 1.431.237.436.529.853.662 1.333.075.273-.004.752.204.957.163.158.571.081.788.081 1.029 0 2.079-.081 3.112-.119a189.834 189.834 0 0 0 8.468-.486c2.441-.194 4.883-.438 7.317-.754 2.449-.321 4.899-.71 7.325-1.242 2.1-.458 4.204-1.015 6.2-1.842.194-.08 2.495-1.18 2.444-1.261z" fill="#f79329"/><path fill="#e0e0e0" d="M71.792 63.668l-5.395-8.809 16.442-14.635 8.948 10.655z"/><circle cx="87.58" cy="44.969" r="7.287" fill="#e0e0e0"/><circle cx="69.755" cy="58.809" r="5.183" fill="#e0e0e0"/><path fill="#e0e0e0" d="M75.716 78.7l-7.654.717-3.451-20.421 10.049-.77z"/><g><path d="M73.824 86.319l-7.867.717a2.776 2.776 0 0 1-3.016-2.513l-.013-.139a2.776 2.776 0 0 1 2.513-3.016l7.867-.717a2.776 2.776 0 0 1 3.016 2.513l.013.139a2.776 2.776 0 0 1-2.513 3.016z"/><path transform="rotate(-5.19 69.824 85.486)" d="M63.055 83.556h13.452V87.4H63.055z"/><path transform="rotate(-5.19 73.943 82.173)" d="M71.575 80.604h4.649v3.126h-4.649z"/></g><g><path id="XMLID_1620_" fill="#fbc11b" d="M55.362 25.038l6.54 5.461-3.563 5.487-14.348-8.98z"/><path id="XMLID_1619_" d="M50.08 18.519l9.604 10.478-6.787 6.318a7.543 7.543 0 0 1-10.905-.658l-3.367-3.993c-3.113-3.692-2.362-9.264 1.619-11.999l1.58-1.086a6.333 6.333 0 0 1 8.256.94z" fill="#fbc11b"/><path id="XMLID_1618_" d="M56.838 25.404l-3.713 2.358-2.224-2.088a2.79 2.79 0 0 0-2.795-.612l1.506 3.165a2.935 2.935 0 0 1-2.866.154l-1.825-.898a2.724 2.724 0 0 0-2.497.047l-4.376 2.364s-4.505-4.974-.166-10.049A33.967 33.967 0 0 1 40.2 17.4c3.641-3.489 9.53-2.931 12.466 1.168l.001.001a54.55 54.55 0 0 1 4.171 6.834v.001z" fill="#6d4c41"/><path id="XMLID_1608_" d="M43.362 30.766c.417.473.438 1.135.045 1.482-.391.345-1.047.242-1.464-.231-.418-.474-.437-1.138-.046-1.483.393-.346 1.047-.242 1.465.232" fill="#c07b47"/></g><path d="M38.705 16.166a6.164 6.164 0 0 0-.69.62c-1.19 1.218-2.43 3.224-2.858 4.88-.608 2.376.038 4.329.193 6.679.079 1.186-2.336 3.901-1.014 4.76 2.652 1.72 4.953-3.747 6.815-4.853 1.395-.827 2.982-1.252 4.426-1.976 2.598-1.303 5.093-2.77 7.54-4.329.35-.223.667-.472.99-.743.497-.417.905-.732.596-1.394-.333-.715-.837-1.377-1.299-2.013-3.063-4.237-9.453-5.611-14.699-1.631z" fill="#8d6e63"/><path d="M48.439 25.572c1.244 2.523 2.46 5.779 2.37 8.67-.009.231-.075.692.014.887 1.531-.589.806-5.238.557-6.515a16.606 16.606 0 0 0-1.926-5.145c-.212-.369-.268-.409-.655-.295-.558.162-.842.632-1.352.848.044.347.56.797.739 1.094.091.148.175.301.253.456z" fill="#8d6e63"/><path d="M68.505 81.516l-3.052-16.029 10.16-.731.478 15.751z"/><path d="M55.361 35.5c-.837-2.225-1.058-6.011.711-7.871 1.77-1.86 8.648-2.075 18.677 1.308 4.585 1.547 8.686 3.319 11.264 4.505 1.395.642 1.73 2.471.659 3.572l-10.56 9.197c.001-.001-18.235-4.023-20.751-10.711z" fill="#01bea4"/><g><circle id="XMLID_1553_" cx="61.474" cy="49.187" r="3.242" fill="#05a287"/><path id="XMLID_1552_" d="M58.792 50.115l5.905-1.254-1.041-15.435a3.906 3.906 0 0 0-4.632-3.01l-.192.041a3.906 3.906 0 0 0-3.01 4.632l2.97 15.026z" fill="#05a287"/><path id="XMLID_1551_" fill="#05a287" d="M50.174 49.105l1.036 6.538 11.74-3.576-4.749-5.171z"/><path id="XMLID_1528_" d="M44.2 53.71l.04.183a3.726 3.726 0 0 0 4.433 2.851l2.057-.447a3.726 3.726 0 0 0 2.851-4.433l-.04-.183a3.726 3.726 0 0 0-4.433-2.851l-2.057.447A3.727 3.727 0 0 0 44.2 53.71z" fill="#fbc11b"/></g></svg>