<svg xmlns="http://www.w3.org/2000/svg" xmlns:xlink="http://www.w3.org/1999/xlink" viewBox="0 0 128 128"><g id="Layer_2"><g><g fill="#fbc11b"><path id="XMLID_1814_" d="M46.911 44.297l10.861-7.486 22.783 29.16-17.641 10.348z"/><circle id="XMLID_1812_" cx="52.297" cy="40.585" r="6.686"/><path id="XMLID_1811_" d="M23.904 40.143l.971-9.51 28.285 3.293-1.341 13.123z"/><circle cx="71.734" cy="71.145" r="10.226"/><g><path d="M9.219 43.842l.073.201a7.389 7.389 0 0 0 9.478 4.4l8.807-3.223a7.389 7.389 0 0 0 4.4-9.478l-.073-.201a7.389 7.389 0 0 0-9.478-4.4l-8.807 3.223a7.39 7.39 0 0 0-4.4 9.478z"/><path d="M19.252 40.285l2.855 7.804a2.434 2.434 0 0 0 3.121 1.449l3.349-1.225a7.515 7.515 0 0 0 4.475-9.638l-1.11-3.032-12.69 4.642z"/></g></g><g fill="#fbc11b"><path d="M68.71 87.995l10.032-21.241 34.847 16.458-20.016 42.379-34.847-16.458z"/><path id="XMLID_1809_" d="M48.596 87.531c.77-2.717 5.37-12.456 6.979-14.776 5.089-7.338 10.928-11.72 17.502-8.615l22.396 10.578-10.004 21.193-10.013 21.188-22.396-10.578c-6.574-3.105-6.899-10.398-4.464-18.99z"/></g><g><g fill="#e7a13d"><path id="XMLID_1808_" d="M61.107 88.705a6.19 6.19 0 0 0-1.743-8.578l-4.412-2.921-6.834 10.321 4.412 2.921a6.188 6.188 0 0 0 8.577-1.743z"/><path id="XMLID_1807_" d="M52.097 90.17s2.104-1.441 4.216-4.631c2.112-3.19 2.721-5.636 2.721-5.636l-5.069-3.356c-1.355-.897-3.419-.975-4.316.38l-3.867 5.84c-.897 1.355-.11 3.15 1.245 4.047l5.07 3.356z"/></g><g id="XMLID_1798_"><path id="XMLID_1806_" d="M18.746 60.959s.132-.214.193-.304c.059-.091.205-.297.205-.297 7.997-10.577 15.779-8.846 20.519-6.692 5.139 2.334 8.711 4.424 8.711 4.424s-.314.057-.805.223c-.523.176-.949.473-.949.473l3.544 3.19-10.643-1.483a.154.154 0 0 0-.161.083l-1.263 2.461a77.539 77.539 0 0 1-4.204 7.189l.005.003c-.066.101-.135.199-.202.299-.067.1-.13.202-.197.302l-.005-.003a77.329 77.329 0 0 1-4.978 6.677l-1.772 2.124a.154.154 0 0 0-.013.18l5.52 9.22-4.32-2.017s-.107.508-.065 1.059c.039.517.109.828.109.828s-3.676-2.347-7.617-6.387c-3.744-3.838-8.065-10.375-1.612-21.552z" fill="#6d4c41"/><g id="XMLID_1803_" fill="#e49500"><path id="XMLID_1805_" d="M28.096 86.367s-1.22 2.782 1.467 4.562c2.371 1.57 4.513.369 5.719-1.452l-6.428-4.256-.758 1.146z"/><path id="XMLID_1804_" d="M46.123 59.142s2.085-2.21 4.773-.43c2.371 1.57 2.102 4.011.896 5.832l-6.428-4.256.759-1.146z"/></g><path id="XMLID_1802_" d="M19.505 61.098c7.123-10.757 17.326-8.05 29.041-.294 12.147 8.043 10.118 17.931 6.301 23.696-3.761 5.68-12.038 11.552-24.275 3.449-11.715-7.757-18.19-16.094-11.067-26.851z" fill="#fbc11b"/><path id="XMLID_1801_" d="M43.606 70.628c1.21.801 2.726.641 3.39-.362.663-1.002.222-2.466-.987-3.266-1.213-.803-2.733-.638-3.396.364-.665 1.002-.22 2.461.993 3.264" fill="#c07b47"/><path id="XMLID_1800_" d="M37.689 79.564c1.21.801 1.653 2.261.988 3.266-.663 1.001-2.182 1.166-3.392.365-1.213-.803-1.654-2.267-.992-3.267.665-1.006 2.183-1.167 3.396-.364" fill="#c07b47"/><path id="XMLID_1799_" d="M43.451 79.684c.632-.543 1.183-1.175 1.538-1.711s.721-1.29.975-2.084c.108-.339.453-.272.566-.051.233.459.42 1.811-.327 2.938-.747 1.127-2.064 1.483-2.578 1.448-.248-.017-.444-.308-.174-.54z" fill="#e49500"/><path d="M27.833 87.157c-.013-.965-.441-1.869-.698-2.799-.827-2.999.141-6.181 1.286-9.073 1.6-4.042 3.608-8.001 6.598-11.156 2.991-3.155 7.077-5.45 11.423-5.567" fill="none"/><g><g><g><path d="M39.657 76.44c1.844 1.239 2.299 3.781.175 6.926-2.099 3.107-4.658 3.678-6.501 2.439-1.844-1.239-2.377-3.667-.175-6.926 2.141-3.17 4.657-3.678 6.501-2.439z" fill="#01579b"/><g><defs><path id="SVGID_1_" d="M38.696 77.862c1.35.908 1.722 2.714.242 4.904-1.462 2.164-3.298 2.525-4.648 1.617s-1.775-2.634-.242-4.904c1.492-2.207 3.298-2.525 4.648-1.617z"/></defs><use xlink:href="#SVGID_1_" overflow="visible" fill="#b3e5fc"/><clipPath id="SVGID_2_"><use xlink:href="#SVGID_1_" overflow="visible"/></clipPath><path clip-path="url(#SVGID_2_)" fill="#fff" d="M39.416 85.973l-4.73-8.112.578-3.063 4.729 8.111z"/></g></g><g><path d="M47.883 64.265c1.844 1.239 2.299 3.781.175 6.926-2.099 3.107-4.658 3.678-6.501 2.439-1.844-1.239-2.377-3.667-.175-6.926 2.141-3.17 4.657-3.678 6.501-2.439z" fill="#01579b"/><g><defs><path id="SVGID_3_" d="M46.922 65.687c1.35.908 1.722 2.714.242 4.904-1.462 2.164-3.298 2.525-4.648 1.617s-1.775-2.634-.242-4.904c1.492-2.208 3.298-2.525 4.648-1.617z"/></defs><use xlink:href="#SVGID_3_" overflow="visible" fill="#b3e5fc"/><clipPath id="SVGID_4_"><use xlink:href="#SVGID_3_" overflow="visible"/></clipPath><path clip-path="url(#SVGID_4_)" fill="#fff" d="M47.641 73.797l-4.729-8.111.577-3.063 4.73 8.111z"/></g></g></g><path fill="#01579b" d="M42.934 73.856l-2.549 3.773-1.883-1.265 2.549-3.773z"/><g fill="#01579b"><path d="M47.675 60.122c1.259 1.504 1.356 3.377.957 5.301l-1.883-1.265c.714-1.557.572-3.332-.957-5.3l1.883 1.264z"/><path d="M29.401 87.168c1.87.6 3.647-.014 5.285-1.105l-1.883-1.265c-1.179 1.245-2.882 1.779-5.285 1.105l1.883 1.265z"/></g></g><path d="M18.158 59.808s-.145.205-.205.297c-.061.09-.193.304-.193.304-6.99 11.705-1.816 19.774 2.047 23.088 4.284 3.675 8.167 5.401 8.167 5.401s-.07-.311-.109-.828c-.042-.551.065-1.059.065-1.059s-1.252-5.434-.458-9.947c.811-4.607 5.831-12.186 9.246-14.458 3.619-2.408 5.709-3.468 9.901-3.82 0 0 .426-.297.949-.473.492-.165.806-.223.806-.223s-3.201-2.716-8.161-5.41c-3.764-2.045-13.634-4.045-22.055 7.128z" fill="#ef6c00"/></g></g></g><path d="M96.007 89.164c-6.062 0-9.43-7.188-15.997-7.188s-9.935 7.188-15.996 7.188-9.429-7.188-15.996-7.188-9.935 7.188-15.997 7.188-9.429-7.188-15.996-7.188S6.09 89.164.029 89.164v-7.188H0V128h127.927V89.159c-6.015-.059-9.383-7.183-15.923-7.183-6.567 0-9.935 7.188-15.997 7.188z" fill="#039be5"/><g id="XMLID_1790_" fill="#29b6f6"><g id="XMLID_1792_"><path id="XMLID_1797_" d="M127.971 98.5c-6.062 0-9.429 7.189-15.996 7.189h15.996V98.5z"/><path id="XMLID_1796_" d="M111.975 105.689c-6.567 0-9.935-7.189-15.996-7.189-6.062 0-9.43 7.189-15.996 7.189h31.992z"/><path id="XMLID_1795_" d="M79.982 105.689c-6.567 0-9.935-7.189-15.996-7.189s-9.429 7.189-15.996 7.189h31.992z"/><path id="XMLID_1794_" d="M47.989 105.689c-6.567 0-9.935-7.189-15.996-7.189s-9.43 7.189-15.996 7.189h31.992z"/><path id="XMLID_1793_" d="M15.996 105.689C9.429 105.689 6.062 98.5 0 98.5v7.189h15.996z"/></g><path id="XMLID_1791_" d="M0 105.689h128V128H0z"/></g></g></svg>