<svg xmlns="http://www.w3.org/2000/svg" viewBox="0 0 128 128"><g id="Layer_4"><path fill="none" stroke="#2f2f2f" stroke-width="3" stroke-linecap="round" stroke-miterlimit="10" d="M52.001 109.222l4.222-10.555"/></g><g id="Layer_3_copy_2"><path d="M74.518 109.223a2.112 2.112 0 0 1-1.887-3.056l10.555-21.111a2.112 2.112 0 0 1 3.777 1.889l-10.555 21.111a2.113 2.113 0 0 1-1.89 1.167z" fill="#2f2f2f"/><path d="M86.67 90.223c-2.038 0-4.452 1.492-5.363 3.315l-3.018 6.037c-.912 1.823-3.325 3.315-5.363 3.315H55.003a3.717 3.717 0 0 1-3.706-3.706V96.04c0-2.038-1.583-3.182-3.518-2.541L1.907 111.733c-2.854 1.588-1.727 5.934 1.54 5.934h101.848c2.038 0 3.007-1.514 2.153-3.365l-9.56-20.714c-.854-1.851-3.221-3.365-5.259-3.365H86.67z" fill="#ed6c30"/><g><path d="M128 83.178a3.521 3.521 0 0 0-3.511-3.511h-7.756c-1.931 0-4.133 1.452-4.894 3.227l-9.9 23.101c-.761 1.775.197 3.227 2.128 3.227h20.422a3.521 3.521 0 0 0 3.511-3.511V83.178z" fill="#ed6c30"/></g><path fill="#fcc21b" d="M128 88.112h-10.555l2.111-4.222H128z"/><path fill="#fcc21b" d="M128 96.556h-10.555l2.111-4.222H128z"/><path fill="#fcc21b" d="M128 105h-10.555l2.111-4.222H128z"/></g><g id="Layer_2"><circle id="XMLID_4_" cx="26.668" cy="111.334" r="12.666" fill="#2f2f2f"/><circle cx="26.668" cy="111.334" r="8.444" fill="#78a3ad"/><circle id="XMLID_3_" cx="102.667" cy="111.334" r="12.666" fill="#2f2f2f"/><circle cx="102.667" cy="111.334" r="8.444" fill="#78a3ad"/></g></svg>