<svg xmlns="http://www.w3.org/2000/svg" viewBox="0 0 128 128"><g id="Layer_2"><g><g><circle cx="73.119" cy="97.805" r="6.375" fill="#444"/><path fill="#444" d="M79.318 96.343l-12.109 3.844-10.848-24.372 15.003-5.41z"/><path fill="#444" d="M98.281 100.215l-3.189 10.688-23.873-7.013 3.744-11.815z"/><g><path d="M103.995 105.506l-2.803 9.302a3.414 3.414 0 0 1-4.254 2.284l-.164-.049a3.414 3.414 0 0 1-2.284-4.254l2.803-9.302a3.414 3.414 0 0 1 4.254-2.284l.164.049a3.415 3.415 0 0 1 2.284 4.254z"/><path transform="rotate(-73.232 101.169 109.726)" d="M92.904 107.366h16.543v4.727H92.904z"/><path transform="rotate(-73.232 99.288 103.506)" d="M96.436 101.587h5.717v3.844h-5.717z"/></g></g><g><g><circle cx="48.643" cy="96.587" r="6.375" fill="#646464"/><path fill="#646464" d="M53.084 101.153l-9.521-8.411 15.33-21.833 12.353 10.09z"/><path fill="#646464" d="M40.394 121.27l-9.709-5.488 12.336-22.203 10.686 6.28z"/><g><path d="M34.025 125.545l-8.446-4.802a3.414 3.414 0 0 1-1.28-4.655l.085-.149a3.414 3.414 0 0 1 4.655-1.28l8.446 4.802a3.414 3.414 0 0 1 1.28 4.655l-.085.149a3.414 3.414 0 0 1-4.655 1.28z"/><path transform="rotate(29.618 30.535 121.867)" d="M22.262 119.494h16.543v4.727H22.262z"/><path transform="rotate(29.618 37.018 121.416)" d="M34.158 119.484h5.717v3.844h-5.717z"/></g></g><circle cx="65.08" cy="75.959" r="7.971" fill="#646464"/></g><g><path id="XMLID_534_" transform="scale(-1) rotate(36.575 180.574 -146.235)" fill="#fbc11b" d="M44.719 52.371h7.222v14.614h-7.222z"/><circle id="XMLID_533_" cx="43.952" cy="65.528" r="3.66" fill="#fbc11b"/><path id="XMLID_532_" d="M45.406 54.567l9.217 6.586 6.816-9.538a5.525 5.525 0 0 0-1.283-7.708l-.225-.161a5.525 5.525 0 0 0-7.708 1.283l-6.817 9.538z" fill="#04a287"/><path id="XMLID_531_" transform="rotate(-95.849 37.989 66.182)" fill="#fbc11b" d="M34.378 59.996H41.6v12.372h-7.222z"/><path id="XMLID_530_" d="M23.573 67.445l.023.229a4.584 4.584 0 0 0 5.014 4.109l2.576-.256a4.584 4.584 0 0 0 4.109-5.014l-.023-.229a4.584 4.584 0 0 0-5.014-4.109l-2.576.256a4.584 4.584 0 0 0-4.109 5.014z" fill="#fbc11b"/></g><g><path id="XMLID_529_" fill="#fbc11b" d="M57.777 30.922l2.588 10.154-7.502 2.905-7.841-19.284z"/><path id="XMLID_528_" d="M57.204 20.619l2.032 17.362-11.316 1.412c-5.261.657-10.001-3.222-10.399-8.508l-.482-6.405c-.446-5.923 4.315-10.937 10.253-10.798l2.357.055a7.79 7.79 0 0 1 7.555 6.882z" fill="#fbc11b"/><path id="XMLID_527_" d="M58.985 32.35l-5.4-.323-.714-3.683a3.433 3.433 0 0 0-2.346-2.623h-.001l-.778 4.24a3.608 3.608 0 0 1-2.968-1.91l-1.173-2.21a3.35 3.35 0 0 0-2.524-1.751l-6.065-.794s-.91-8.203 7.07-10.138a42.024 42.024 0 0 1 4.071-.769c6.142-.857 11.612 3.939 11.588 10.14v.002a67.08 67.08 0 0 1-.761 9.817l.001.002z" fill="#6d4c41"/><path id="XMLID_526_" d="M41.689 27.993c.075.771-.381 1.447-1.022 1.509-.638.062-1.218-.513-1.293-1.284-.075-.773.383-1.449 1.021-1.511.641-.062 1.219.513 1.294 1.286" fill="#c07b47"/></g><path d="M70.043 75.112L57.6 78.062a4.423 4.423 0 0 1-5.325-3.285l-3.064-22.966c-.407-3.746-.719-10.105 4.249-11.283l4.298-1.019c4.279-1.014 7.264 3.621 8.512 8.035l7.057 22.243a4.424 4.424 0 0 1-3.284 5.325z" fill="#00bea4"/><g><path id="XMLID_525_" transform="scale(-1) rotate(-60.074 -95.813 123.77)" fill="#fbc11b" d="M67.957 48.095h7.222v14.614h-7.222z"/><circle id="XMLID_524_" cx="77.886" cy="59.073" r="3.66" fill="#fbc11b"/><path id="XMLID_523_" d="M66.831 58.898l5.474-9.917-10.263-5.665a5.525 5.525 0 0 0-7.507 2.167l-.135.242a5.525 5.525 0 0 0 2.167 7.507l10.264 5.666z" fill="#04a287"/><path id="XMLID_522_" transform="rotate(152.75 80.865 64.796)" fill="#fbc11b" d="M77.256 58.612h7.222v12.372h-7.222z"/><path id="XMLID_521_" d="M87.305 77.758l.205-.105a4.584 4.584 0 0 0 1.995-6.168l-1.178-2.305a4.584 4.584 0 0 0-6.168-1.995l-.205.105a4.584 4.584 0 0 0-1.995 6.168l1.178 2.305a4.584 4.584 0 0 0 6.168 1.995z" fill="#fbc11b"/></g></g></g></svg>