<svg id="レイヤー_1" xmlns="http://www.w3.org/2000/svg" viewBox="0 0 128 128"><g><path d="M116.139 11.439c-10.191-9.256-57.606-17.34-90.166 17.622-32.567 34.972-20.695 81.213-10.5 90.474 10.195 9.256 59.342 7.564 86.377-21.481 27.045-29.031 24.478-77.357 14.289-86.615z" fill="#fff"/><g><path d="M118.654 8.9C107.973-.803 58.271-9.278 24.139 27.373c-34.137 36.66-21.697 85.132-11.01 94.841 10.686 9.703 62.205 7.929 90.549-22.518 28.353-30.432 25.664-81.093 14.976-90.796zM44.002 120.695a133.309 133.309 0 0 1-3.83-1.101c-4.943-1.514-9.561-3.283-13.91-6.105a59.002 59.002 0 0 1-8.18-6.366c-2.895-2.704-5.627-5.746-8.041-8.885-.311-.411-.57-.833-.846-1.251a76.682 76.682 0 0 1-1.018-9.64 80.026 80.026 0 0 1 .02-6.444c.271.487.566.954.91 1.391 11.203 14.191 26.229 26.2 43.592 31.774a109.18 109.18 0 0 0 9.477 2.581c.152.034.541.094 1.062.168a101.104 101.104 0 0 1-19.236 3.878zm29.342-91.282c-1.18 1.312-3.678 1.332-5.137.831-.609-.207-1.279-.501-1.932-.506-.824 0-2.016.353-2.08 1.288-.152 2.295 2.463 4.011 1.186 6.321-1.109 2.016-4.238 2.561-6.189 1.961-1.381-.417-2.506-1.494-4.129-.821-.881.369-1.199.801-.516 1.578.393.453.84 1.018 1.18 1.465 2.859 3.755 1.209 8.576-3.967 8.205-.836-.054-1.621-.383-2.424-.57-.639-.147-1.164-.492-1.785-.654-.564-.147-1.164-.31-1.789-.187-2.143.418-.451 2.62.039 3.343.797 1.175 1.225 2.33 1.014 3.825-.404 2.88-3.078 4.615-5.855 4.138-.688-.123-5.092-1.838-5.004-.171.123 2.3 2.684 3.573 1.623 6.184-.771 1.902-2.924 2.576-4.773 2.242a13.305 13.305 0 0 1-3.523-1.141 24.641 24.641 0 0 1-5.719-3.854c-1.609-1.475-2.555-3.293-1.965-5.564.084-.334.226-.649.412-.944.767-1.229 2.281-2.104 3.682-2.158.723-.025 1.873.132 2.518-.217.994-.54.363-1.479-.055-2.049-.561-.747-.619-1.957-.227-2.861.469-1.091 1.146-2.408 2.168-3.052 1.357-.846 3.088-1.126 4.625-1.323 1.023-.128 2.287.029 2.621-1.239.354-1.356-.564-2.536-.59-3.854-.014-1.052.768-2.089 1.523-2.792.998-.919 2.197-1.234 3.457-1.44 1.469-.236 3.074.423 4.457-.413 1.234-.742.748-1.71.266-2.723-.629-1.313-1.18-3.009-.107-4.346 1.941-2.419 5.402-1.804 8.061-2.35.672-.138 1.49-.486 1.617-1.263.154-.968-.672-1.43-.727-2.251-.045-.595.371-1.332.764-1.765.877-.954 2.322-1.288 3.469-1.667 1.426-.472 3.111-.26 4.521.035 3.844.806 7.678 2.944 9.184 6.705.473 1.173 1.133 2.913.106 4.054zm42.597 18.999a88.86 88.86 0 0 0-6.385-11.355c-8.475-12.77-20.627-24.096-35.24-29.322a81.523 81.523 0 0 1 11.916-.899h.004c1.643 0 3.217.059 4.738.148 2.824 1.617 5.6 3.323 8.24 5.196 8.498 6.026 15.916 13.714 20.621 23.083.18 5.756-.236 12.235-1.422 18.969a82.545 82.545 0 0 0-2.472-5.82z" fill="#855c52"/></g></g></svg>