<svg id="レイヤー_1" xmlns="http://www.w3.org/2000/svg" xmlns:xlink="http://www.w3.org/1999/xlink" viewBox="0 0 128 128"><g><g><g><g fill="#78a3ad"><path d="M86.257 78.496c.813.174 1.309.764.786 2.094-.192.498-.512 1.051-.579 1.582.337-.054.49-.253.707-.486.312-.332.669-.615.984-.939.681-.698 1.437-1.595 1.823-2.497.139-.32.233-.643.403-.951.249-.444.61-.902.439-1.441-.223-.698-1.354-.532-2.001-.532-.652 0-1.376-.096-1.999.133-.768.278-1.582.718-2.285 1.158-.585.378-1.35.636-1.781 1.222-.158.229-.15.445-.055.69.097.241.055.474.097.748.327.017.64-.357.946-.47.757-.282 1.771-.469 2.515-.311z"/><path d="M97.278 67.345a1.601 1.601 0 0 0-2.24.253c-.392.495-6.023 7.728-11.287 20.366a88.79 88.79 0 0 0-2.932-5.875c3.995-5.089 6.755-7.807 6.828-7.877a1.599 1.599 0 0 0 .034-2.256 1.59 1.59 0 0 0-2.252-.037c-.074.066-2.613 2.576-6.315 7.2a99.188 99.188 0 0 0-2.831-4.462 1.357 1.357 0 0 0-1.889-.365 1.364 1.364 0 0 0-.374 1.89 92.354 92.354 0 0 1 3.282 5.256 145.354 145.354 0 0 0-8.758 12.828c-2.842-5.4-5.492-9.43-7.54-12.209 1.408-1.658 2.269-2.509 2.307-2.543.63-.61.64-1.621.028-2.256a1.61 1.61 0 0 0-2.261-.034c-.111.117-.881.878-2.072 2.244-1.118-1.354-1.841-2.106-1.952-2.223a1.59 1.59 0 0 0-2.251-.008 1.596 1.596 0 0 0-.011 2.256c.025.033.819.847 2.12 2.488-1.944 2.439-4.426 5.808-7.154 10.204-3.286-6.224-6.293-10.905-8.367-13.896.449-.703.872-1.396 1.347-2.107a1.365 1.365 0 0 0-2.262-1.525c-.282.42-.526.836-.797 1.251a49.839 49.839 0 0 0-1.157-1.504c-.567-.677-1.568-.781-2.241-.22a1.592 1.592 0 0 0-.229 2.244c.029.037.694.868 1.77 2.376a86.866 86.866 0 0 0-4.742 8.986c-5.233-12.53-10.816-19.697-11.21-20.191a1.601 1.601 0 0 0-2.239-.253 1.602 1.602 0 0 0-.254 2.244c.158.2 15.841 20.257 19.164 52.57.042.437.263.802.573 1.06 1.014 1.441 3.357 2.451 6.212 3.149.217.112.453.191.71.191.012 0 .041-.009.058-.009 2.829.619 6.066.956 9.002 1.097.146.042.287.07.438.07.088 0 .175-.028.257-.041a65.31 65.31 0 0 0 5.419-.004c.087.017.174.045.266.045.144 0 .29-.019.433-.057.011-.005.021-.018.04-.021 2.889-.146 6.07-.478 8.874-1.089.013 0 .029.009.046.009.264 0 .491-.079.721-.191 2.856-.698 5.2-1.708 6.205-3.149a1.53 1.53 0 0 0 .577-1.06C81.7 89.847 97.374 69.789 97.537 69.59a1.602 1.602 0 0 0-.259-2.245zM79.007 84.453a81.874 81.874 0 0 1 3.331 7.083 116.792 116.792 0 0 0-3.271 10.033c-1.34 2.559-2.586 5.172-3.781 7.806a137.6 137.6 0 0 0-5.038-11.736c3.089-5.226 6.117-9.655 8.759-13.186zm-16.344 40.062a166.816 166.816 0 0 0-2.202-7.088 149.319 149.319 0 0 1 7.839-16.398 137.543 137.543 0 0 1 5.119 12.601 156.414 156.414 0 0 0-3.776 10.024c-1.886.383-4.234.694-6.98.861zm-3.755-39.871c2.105 2.954 4.83 7.224 7.697 12.896a154.888 154.888 0 0 0-7.719 15.351 167.42 167.42 0 0 0-7.399-17.341c2.801-4.654 5.385-8.297 7.421-10.906zm-11.6 39.019a161.364 161.364 0 0 0-4.014-12.151c2.07-4.732 4.177-8.92 6.229-12.584a164.948 164.948 0 0 1 7.54 18.409 152.604 152.604 0 0 0-2.654 7.188c-2.797-.16-5.181-.476-7.101-.862zm-7.759-42.372c2.151 3.215 5.092 7.989 8.258 14.154-2.001 3.436-4.07 7.383-6.132 11.845a175.292 175.292 0 0 0-6.447-14.2c-.037-.075-.104-.124-.15-.19-.191-.52-.377-1.043-.564-1.55a81.97 81.97 0 0 1 5.035-10.059zm2.126 40.22a152.814 152.814 0 0 0-.602-4.657c.136-.341.266-.656.406-.993a158.192 158.192 0 0 1 2.19 6.821c-1.113-.415-1.808-.831-1.994-1.171zm16.074 3.12c.297-.831.588-1.658.885-2.472.245.811.492 1.638.734 2.472-.303 0-.602.008-.912.008-.238 0-.462-.004-.707-.008zm15.638-2.007a181.046 181.046 0 0 1 1.594-4.309c.163.503.32.977.479 1.492-.066.568-.148 1.113-.214 1.69-.178.329-.809.724-1.859 1.127z"/><path d="M29.993 81.126c-.05-.191-.084-.382-.142-.574-.07-.187-.149-.358-.199-.553-.092-.357-.175-.735-.158-1.109.037-.806.648-1.026 1.371-.86 1.188.266 6.048 2.775 6.655.631.303-1.067-1.205-1.209-1.861-1.404-.731-.22-1.363-.39-2.127-.457-1.57-.133-3.012-.952-4.479-1.45-.357-.121-3.04-1.088-2.854 0 .054.258.179.465.2.739.037.383.112.752.278 1.101.427.901 1.096 1.628 1.611 2.472.515.843.498 2.015 1.43 2.571.206.121.454.187.519-.058.074-.237-.082-.582-.161-.79a1.498 1.498 0 0 1-.083-.259z"/></g></g></g><g><g><path d="M58.456 44.798c-22.846 0-41.375 8.484-41.375 18.953 0 10.465 18.529 18.953 41.375 18.953 22.855 0 41.373-8.488 41.373-18.953 0-10.469-18.517-18.953-41.373-18.953zm0 30.253c-17.554 0-31.788-5.326-31.788-11.898s14.234-11.898 31.788-11.898c17.561 0 31.792 5.326 31.792 11.898S76.017 75.051 58.456 75.051z" fill="#f79329"/></g><g><g><g><g><defs><path id="SVGID_1_" d="M116.92 36.452c0 19.983-16.684 36.186-37.261 36.186-20.573 0-37.245-16.203-37.245-36.186S59.086.271 79.659.271c20.577 0 37.261 16.198 37.261 36.181z"/></defs><use xlink:href="#SVGID_1_" overflow="visible" fill="#ed6c30"/><clipPath id="SVGID_2_"><use xlink:href="#SVGID_1_" overflow="visible"/></clipPath><g clip-path="url(#SVGID_2_)" fill="#f79329"><path d="M71.895 74.645S50.164 51.334 58.709 17.629C62.256 3.632 73.701-.469 73.701-.469h7.891s-15.649 2.987-18.903 20.37c-5.966 31.86 20.926 55.645 20.926 55.645l-11.72-.901z"/><path d="M55.097 7.417s-.79 6.194 7.459 6.194c17.343 0 27.017-11.275 40.903-7.727l-7.234-3.618s-4.16-.794-7.783.37c-3.622 1.163-16.406 7.765-24.433 7.885-8.54.128-5.122-5.816-5.122-5.816l-3.79 2.712z"/><path d="M41.127 47.686s3.213-19.26 17.916-20.839c12.39-1.333 21.169 4.5 29.586 10.586 15.172 10.981 22.31 24.927 22.31 24.927l-5.197 7.765s-3.992-12.509-21.545-28.861c-6.606-6.154-15.717-10.99-25.154-10.08C44.218 32.622 46.19 57.682 46.19 57.682l-5.063-9.996z"/><path d="M39.821 25.8s5.601-7.353 20.801-8.666c35.509-3.062 59.98 22.181 59.98 22.181l1.903 12.019S94.608 18.385 60.358 21.015c-16.547 1.271-20.536 11.408-20.536 11.408V25.8z"/></g></g></g></g><g><path d="M116.92 36.452c0 19.983-16.684 36.186-37.261 36.186-20.573 0-37.245-16.203-37.245-36.186S59.086.271 79.659.271c20.577 0 37.261 16.198 37.261 36.181z" fill="none"/></g></g></g></g></svg>