<svg id="レイヤー_1" xmlns="http://www.w3.org/2000/svg" viewBox="0 0 128 128"><g><g><path d="M117.025 11c-.086-.082-.184-.16-.273-.247-.01-.009-.023-.013-.033-.027-4.617-5.044-20.746-2.841-41.877 10.571-.531.333-1.064.699-1.596 1.046-1.146-1.248-2.553-2.334-4.135-3.249.975-.653 1.947-1.307 2.924-1.923C84.75 9.104 96.477 4.54 105.527 3.754 84.576-4.354 50.92 2.663 26.801 26.77 1.029 52.521-5.256 89.165 5.584 109.591c.031-10.192 5.131-24.396 14.779-39.915.338-.548.726-1.078 1.072-1.626a27.604 27.604 0 0 0 4.356 2.472c-.408.63-.854 1.251-1.252 1.891-14.154 22.764-16.822 40.782-11.975 46.041 18.494 15.874 60.189 11.187 88.631-17.237C130.48 71.951 134.617 28.606 117.025 11z" fill="#f79329"/><path d="M73.143 29.273c-.822-3.947-4.217-6.711-7.85-8.168-1.334-.53-2.943-1.028-4.418-.818-1.197.178-2.676.261-3.699 1.042-.467.361-1.002 1.005-1.057 1.599-.082.813.645 1.407.33 2.334-.262.736-1.129.941-1.809.964-2.701.068-5.996-1.128-8.311.905-1.422 1.251-1.449 2.746-.793 4.24.141.575.303 1.16.152 1.754-.373 1.494-1.805 1.22-3.01 1.333-.068.01-.133.023-.199.037-.521-.087-1.039-.174-1.564-.201-2.912-.137-5.725.991-6.492 4.052-.338 1.32-.15 2.544.393 3.637.197 1.325.682 2.854-1.01 3.453-.547.192-1.082.197-1.584.466-1.641.278-3.262.836-4.428 1.782-.932.758-1.441 2.147-1.772 3.285-.275.936-.07 2.12.561 2.796.49.516 1.225 1.361.303 2.015-.59.429-1.746.411-2.459.516-1.379.229-2.771 1.27-3.379 2.586a3.175 3.175 0 0 0-.289.982c-.32 2.312.844 3.998 2.604 5.263 1.855 1.316 3.971 2.375 6.123 3.125 1.174.397 2.375.626 3.617.694 1.873.114 3.926-.813 4.459-2.787.727-2.714-1.955-3.655-2.348-5.925-.293-1.631 4.268-.47 4.967-.43 1.649.096 3.32-.63 4.316-1.955 1.297-1.704 1.176-4.436.01-6.19-.137-.21-.307-.366-.457-.562 0-.014.018-.023.014-.045-.027-.361-.422-.604-.467-.973-.055-.485.232-.841.709-.859.065-.004.145.023.219.037 1.324.461 2.705.763 4.102.758 2.357-.004 4.5-.507 5.314-2.938.809-2.421-.119-4.865-1.76-6.939-.133-.26-.229-.525-.115-.799.152-.371.508-.402.906-.307.201.051.402.119.598.192 3.002 1.75 7.564 3.212 9.799.457 1.65-2.046-.607-4.189-.068-6.409.225-.91 1.453-1.056 2.258-.905.648.119 1.246.521 1.809.827 1.344.745 3.801 1.16 5.186.078 1.204-.947.85-2.765.589-3.999z" fill="#fff"/></g></g></svg>