<svg id="レイヤー_1" xmlns="http://www.w3.org/2000/svg" viewBox="0 0 128 128"><g><path d="M14.674 83.134s5.193 6.887 21.234 8.324c16.041 1.438 38.496-2.809 64.352 13.988l24.139-67.57s-11.752-6.286-27.32-7.443c-15.559-1.158-27.967 4.263-41.703 2.1-13.367-2.104-16.449-3.555-16.449-3.555L14.674 83.134z" fill="#fff"/><g><g fill="#2f2f2f"><path d="M100.26 108.676a3.232 3.232 0 0 1-1.764-.522c-19.5-12.668-37.193-12.885-51.406-13.06-4.062-.048-7.895-.098-11.467-.416-16.986-1.521-22.908-8.775-23.531-9.599a3.23 3.23 0 0 1 .641-4.523 3.224 3.224 0 0 1 4.492.599c.148.177 4.986 5.835 18.965 7.084 3.34.3 7.051.347 10.977.393 14.223.174 31.727.39 51.396 11.964L120.37 39.55c-4.127-1.798-12.949-5.109-23.525-5.896-7.039-.524-13.543.383-19.817 1.262-7.439 1.038-14.469 2.016-22.15.809-13.162-2.071-16.75-3.551-17.33-3.824a3.237 3.237 0 0 1-1.549-4.302 3.226 3.226 0 0 1 4.299-1.545c.068.029 3.269 1.352 15.582 3.289 6.746 1.062 13.297.147 20.252-.826 6.615-.923 13.461-1.879 21.191-1.305 16.055 1.194 28.092 7.547 28.594 7.816a3.229 3.229 0 0 1 1.52 3.935l-24.135 67.567a3.228 3.228 0 0 1-2.006 1.973 3.164 3.164 0 0 1-1.036.173z"/><path d="M4.68 109.755a4.283 4.283 0 0 1-1.754-.377c-2.174-.973-3.143-3.521-2.174-5.692L34.441 28.44a4.307 4.307 0 0 1 5.691-2.171 4.31 4.31 0 0 1 2.168 5.692L8.615 107.206a4.297 4.297 0 0 1-3.935 2.549z"/><path d="M33.926 41.239c-.285.483-.75 1.036-.807 1.578-.139 1.334 1.961 1.293 2.863 1.474 1.42.283 2.791.761 4.217 1.026 1.1.204 2.111.281 3.234.281.576 0 1.152.004 1.73 0 .547-.007 1.648-.059 2.113-.344.547-.338.863-1.307 1.1-1.862.416-.962.922-1.88 1.297-2.858.67-1.737 1.811-3.241 2.34-5.042.18-.605.746-2.11.434-2.722-.602-1.15-3.051-.883-4.102-1.007-2-.237-4.002-.596-6.002-.787-.418-.041-.768-.025-1.166-.17-.275-.1-.535-.328-.809-.401-1.287-.343-1.402.513-1.859 1.386a10.316 10.316 0 0 0-.873 2.137c-.555 1.849-1.793 3.464-2.648 5.189-.336.67-.654 1.348-1.004 2.008a2.051 2.051 0 0 0-.058.114z"/><path d="M22.461 68.166c-.098.204-.195.408-.285.613-.121.308-.139.63-.262.936-.137.353-.65.833-.44 1.25.131.238.877.369 1.107.451.73.264 1.494.428 2.26.566 2.527.463 5.008 1.244 7.576 1.519.955.104 2.48.467 3.281-.25.232-.2.527-.718.666-1.022 1.117-2.518 2.309-5.003 3.334-7.562.396-.98 2.537-5.052 2.113-5.981-.336-.728-1.402-.429-2.068-.547-1.56-.277-3.166-.301-4.748-.566-1.762-.298-3.621-.23-5.326-.812-.408-.135-.955-.5-1.346-.216-.521.383-.922 1.618-1.236 2.195-.369.711-.645 1.36-.867 2.139-.547 1.847-1.789 3.464-2.646 5.189-.345.696-.764 1.393-1.113 2.098z"/><path d="M42.277 55.944c-.326.769-.758 1.438-1.047 2.205-.381.98-.389 1.043.604 1.288 2.914.711 5.912 1.007 8.904 1.081 2.01.047 4.729.604 6.119-1.28 1.135-1.533 1.625-3.474 2.424-5.174.725-1.546 1.1-3.226 1.711-4.816.408-1.056 1.453-2.82.596-3.904-.383-.483-2.221-.169-2.822-.169-1.441.001-2.869-.139-4.334-.139-2.115 0-4.176-.049-6.242-.526-1.35-.31-1.631.208-2.211 1.378-1.145 2.296-1.445 4.767-2.502 7.05-.452.969-.774 2.012-1.2 3.006z"/><path d="M29.955 83.899a98.564 98.564 0 0 1-2.123 3.8c-.4.675-.188.601.395 1.041.375.286.644.767 1.072.973.424.202.979.148 1.455.277 1.371.379 2.773.63 4.197.69.852.039 1.699.164 2.547.273.775.103 1.693.047 2.439.261.566.167.773.445 1.428.241.48-.151 1.031-.496 1.338-.909 1.41-1.933 2.43-4.245 3.326-6.428.986-2.402 1.975-4.82 2.527-7.364.131-.586.436-1.132.531-1.717.166-1.147-.467-1.392-1.42-1.404-1.428-.012-2.812-.277-4.225-.453-1.084-.137-2.186-.147-3.281-.255-.959-.096-1.93-.23-2.893-.279-.473-.026-1.402-.161-1.859-.007-.414.14-.691.742-.848 1.137-.211.538-.27 1.029-.529 1.58-.293.626-.555 1.266-.84 1.906a111.177 111.177 0 0 1-3.237 6.637z"/><path d="M50.203 69.506c-.019.026-.031.051-.047.076-.629 1.112-2.627 3.526-1.705 4.829.529.738 1.939.481 2.703.512 1.244.045 2.475.173 3.707.257 1.594.104 3.293-.019 4.893.179 1.117.135 2.227.253 3.344.363.822.082 1.549.473 2.371.559 1.607.163 2.129-1.031 2.66-2.324.344-.841.832-1.558 1.1-2.434.318-1.044.832-2.035 1.361-2.987.727-1.289 1.42-2.681 1.852-4.096.264-.876.734-1.869.875-2.776.109-.698-.096-.93-.701-1.138-.385-.135-.854-.171-1.279-.278-1.307-.326-2.58-.403-3.941-.566a61.247 61.247 0 0 0-7.438-.416c-1.166.003-2.299-.145-3.457-.143-2.215.008-2.717 2.995-3.418 4.587a63.757 63.757 0 0 1-2.88 5.796z"/><path d="M63.133 40.708c-.664 1.272-.965 2.463-1.479 3.764-.18.467-.246.944-.441 1.386 2.764.331 5.627-.142 8.416-.037 3.389.13 6.764.444 10.162.481.545.004.672-.006 1.014-.416 1.08-1.28 1.105-3.225 1.635-4.762.934-2.745 1.615-5.543 2.855-8.177.416-.863 1.109-2.71-.48-2.747-.463-.011-.922.225-1.385.255-.58.039-1.178-.002-1.764-.006-1.146-.011-2.283.085-3.416.214-2.045.23-4.209.247-6.213.701-1.438.328-2.979.359-4.406.708-1.328.325-1.92 2.436-2.252 3.573-.252.862-.691 1.649-1.01 2.496-.338.867-.783 1.715-1.236 2.567z"/><path d="M74.812 56.619c-.07.145-.131.29-.197.435-.56 1.319-.957 2.693-1.553 3.998-.607 1.333.434 1.456 1.545 1.456 4.848 0 9.311 1.562 14.039 1.908 1.086.082 2.137.55 3.213.717 1.281.2 1.289-.794 1.777-1.781.424-.848.719-1.703 1.086-2.565.807-1.875 1.359-3.8 2.086-5.717.432-1.127.771-2.285 1.158-3.425.172-.504.51-.95.645-1.466.119-.475.119-.842.318-1.311.268-.64.246-.878-.398-1.118-5.742-2.124-11.527-2.826-17.617-2.858-.395-.004-.717.171-1.1.175-1.105 2.279-1.961 4.514-2.879 6.912-.611 1.59-1.431 3.086-2.123 4.64z"/><path d="M60.602 86.462c-.074.143-.139.283-.211.426-.629 1.287-1.104 2.636-1.764 3.912-.676 1.297.359 1.474 1.477 1.533 2.414.123 4.84.257 7.232.648 2.229.363 4.115 1.358 6.264 1.843.922.212 3.184.957 4.078.823 1.566-.236 2.252-3.935 2.74-5.194.783-2.043 1.59-4.074 2.309-6.141.582-1.655 1.773-3.287 2.115-4.974.615-3.089-15.25-4.139-17.533-4.271-.395-.021-.721.135-1.105.121-1.223 2.218-2.193 4.408-3.236 6.752-.695 1.558-1.591 3.009-2.366 4.522z"/><path d="M85.801 74.768c-.074.142-.139.283-.209.428-.387.779-.705 1.582-1.047 2.378-.168.387-1.012 1.578-.93 1.95.227.17.44.471.66.604.311.194.604.08 1.012.122 1.467.151 2.92.537 4.379.745 2.551.363 5.061.789 7.592 1.27 3.133.595 6.117 1.628 9.035 2.885.404.175.955.721 1.398.785.383.055.453-.088.697-.455a18.05 18.05 0 0 0 1.111-1.84c.662-1.295.801-2.865 1.291-4.232.527-1.462.982-2.926 1.553-4.358.476-1.19.799-2.462 1.34-3.624 1.059-2.275.193-2.715-1.934-3.854-5.488-2.94-13.113-3.869-19.238-4.196-.398-.022-.725.135-1.109.119-1.223 2.218-2.193 4.408-3.238 6.752-.691 1.557-1.592 3.008-2.363 4.521z"/><path d="M99.732 44.446c-.117.263-.238.526-.371.789-.35.728-.672 1.525-.963 2.284-.234.62-.725 1.163-.691 1.867.439-.022.953.212 1.379.331.938.267 1.904.216 2.844.437.826.192 1.574.394 2.416.51 2.258.31 4.486.746 6.719 1.17 1.646.314 3.271.75 4.869 1.282.713.239 2.977 1.413 3.633.838.273-.238.42-.808.555-1.137.582-1.405 1.152-2.954 1.555-4.433.367-1.357.912-2.593 1.371-3.91.463-1.292.668-2.638 1.121-3.914.164-.441.449-.836.646-1.256.619-1.272.211-2.447-1.072-3.034-1.766-.808-3.691-1.341-5.574-1.786-2.309-.544-4.666-.911-7.031-1.164-1.01-.108-1.98-.385-2.992-.54-.766-.118-1.604-.447-2.34-.514-1-.094-2.459 4.509-2.926 5.406-1.161 2.225-2.091 4.52-3.148 6.774z"/></g></g></g></svg>