<svg id="图层_1" xmlns="http://www.w3.org/2000/svg" xmlns:xlink="http://www.w3.org/1999/xlink" viewBox="0 0 128 128"><g><defs><path id="SVGID_1_" d="M128 128H0v-27.35c54.565-20.162 102.174-45.238 128-85.704V128z"/></defs><use xlink:href="#SVGID_1_" overflow="visible" fill="#e1f5fe"/><clipPath id="SVGID_2_"><use xlink:href="#SVGID_1_" overflow="visible"/></clipPath><path d="M99.516 85.17c11.804-3.555 22.817-12.539 32.772-18.836.021 2.999-.107 7.683-.086 10.682.003.47-.003.974-.268 1.363-.181.266-.462.443-.734.614-9.567 5.973-19.279 12.013-30.081 15.258a16.122 16.122 0 0 0-1.48-9.295" clip-path="url(#SVGID_2_)" fill="#b3e5fc"/></g><g><path d="M103.822 95.296l-65.545 25.773s-3.068 1.129-6.181.447c-3.113-.681-8.952-2.807-9.799-4.819-.847-2.013.474-1.941 3.455-2.473 2.981-.532 12.877-2.851 21.102-5.975 8.225-3.124 48.329-18.711 50.231-19.638 3.397-1.657 8.522-3.964 11.354-2.679 2.62 1.189 1.317 7.283-4.617 9.364z" fill="#bf360c"/><path d="M103.921 92.743l-65.545 25.773s-3.068 1.129-6.181.447c-3.113-.681-11.143-2.963-11.99-4.976-.847-2.013 2.665-1.784 5.646-2.317 2.981-.532 12.877-2.851 21.102-5.975 8.225-3.124 48.329-18.711 50.231-19.638 3.397-1.657 8.522-3.964 11.354-2.679 2.62 1.189 1.317 7.284-4.617 9.365z" fill="#ff8f00"/></g><g><path d="M62.994 15.6c-3.142 2.069-4.148 5.762-8.472 7.211-5.665 1.898-11.351.275-12.412-2.894 0 0-1.522-.223-1.393 1.364.108 1.322-.621 4.459 3.991 6.377s8.453 1.733 10.401 2.08c1.417.252 7.338-2.677 8.331-3.636 2.079-2.008 1.096-3.197 4.059-3.072 2.232.095 4.009-1.623 6.241-1.528 1.724.073 4.797 1.684 6.167.64.949-.723 1.548-1.888 2.532-2.555 1.391-.943 3.219-.706 4.906-.642 1.74.065 3.475-.09 5.16-.462.225-.05.475-.123.58-.34.11-.227.094-.572-.089-.755-2.883-2.895.488-9.057-3.719-9.173-1.8 1.41-4.403 2.273-6.375 2.308-1.172.021-2.365-.185-3.513.018-1.982.35-3.336 2.623-5.223 3.312-2.569.937-3.942-.971-6.629-.35-1.686.386-3.504 1.412-4.543 2.097z" fill="#bf360c"/><g><path id="XMLID_1787_" d="M80.178 50.337l-2.213 9.271c-5.39-.533-10.437-1.254-14.262-2.648l2.556-10.704c4.713.057 9.362 1.252 13.919 4.081z" fill="#033a59"/><path d="M59.54 52.607l10.821-2.004c-.294-5.602-.441-11.152-2.465-17.361l-12.27 2.272 3.914 17.093z" fill="#033a59"/><circle cx="64.951" cy="51.605" r="5.503" fill="#033a59"/><path d="M86.843 52.587l-.117-.206a4.802 4.802 0 0 0-6.548-1.8l-2.39 1.359a4.802 4.802 0 0 0-1.8 6.548l.117.206a4.802 4.802 0 0 0 6.548 1.8l2.39-1.359a4.8 4.8 0 0 0 1.8-6.548z" fill="#fbc11b"/><circle cx="61.759" cy="34.379" r="6.237" fill="#033a59"/><circle cx="80.278" cy="56.219" r="4.904" fill="#fbc11b"/></g><g><path d="M72.2 74.466l5.748-11.286c-5.609-4.481-12.29-8.236-19.837-11.405l-6.768 13.287c6.674 4.41 13.614 7.599 20.857 9.404z" fill="#0277bd"/><path d="M73.529 92.395l10.595-1.788c-.275-8.024-.845-15.886-2.903-22.927l-12.474 2.105c.007 5.997 2.067 13.986 4.782 22.61z" fill="#0277bd"/><circle cx="75.074" cy="68.823" r="6.325" fill="#0277bd"/><circle cx="54.727" cy="58.419" r="7.456" fill="#0277bd"/><g fill="#37474f"><path d="M74.448 99.483l16.747-2.826-.377-2.235a4.876 4.876 0 0 0-5.619-3.996l-11.94 2.015 1.189 7.042z"/><path d="M69.237 79.022l14.582-2.473c1.855 4.744 1.496 10.61.305 14.058L73.26 92.441c-2.408-3.655-3.619-8.226-4.023-13.419z"/></g></g><g><path d="M49.397 80.599l10.757-6.686c-.259-3.5-6.403-12.437-11.08-20.02L36.41 61.765c2.905 6.978 7.484 13.134 12.987 18.834z" fill="#0277bd"/><path d="M48.201 99.658l10.731.552c1.33-8.055 2.714-16.143 2.139-23.011l-12.633-.651c-1.402 5.505-1.022 13.971-.237 23.11z" fill="#0277bd"/><circle cx="54.776" cy="77.255" r="6.325" fill="#0277bd"/><circle cx="42.742" cy="57.828" r="7.456" fill="#0277bd"/><g fill="#37474f"><path d="M47.561 106.776l16.962.873.117-2.263a4.876 4.876 0 0 0-4.618-5.12l-12.093-.623-.368 7.133z"/><path d="M46.728 85.179l15.105.891c-.329 5.498-1.07 10.49-2.901 14.14l-11.004-.567c-1.587-4.393-1.95-9.227-1.2-14.464z"/></g></g><path d="M57.527 26.356l-9.552-1.484a8.618 8.618 0 0 0-9.838 7.192L35.15 51.292c-.797 5.128 2.715 9.932 7.843 10.728l8.763 1.511c3.875.424 8.8-2.783 9.606-6.424 1.684-7.764 2.71-13.182 3.356-20.915a8.613 8.613 0 0 0-7.191-9.836z" fill="#01497a"/><g><path id="XMLID_1786_" d="M36.397 56.865l-9.127 2.75c-2.346-4.414-3.991-8.964-4.884-13.659l10.537-3.174 3.474 14.083z" fill="#01497a"/><path d="M24.315 39.739l6.534 8.856 14.535-9.809-7.409-10.041c-5.608 3.02-10.716 6.346-13.66 10.994z" fill="#01497a"/><circle cx="27.582" cy="44.167" r="5.503" fill="#01497a"/><circle cx="41.679" cy="33.764" r="6.237" fill="#01497a"/><path d="M37.951 57.235l-.108-.211a4.802 4.802 0 0 0-6.46-2.096l-2.449 1.249a4.802 4.802 0 0 0-2.096 6.46l.108.211a4.802 4.802 0 0 0 6.46 2.096l2.449-1.249a4.802 4.802 0 0 0 2.096-6.46z" fill="#fbc11b"/></g><g><path d="M62.471 14.455c1.579 6.442-2.05 12.867-8.105 14.351s-12.055.03-13.822-8.977c-1.277-6.508-.223-12.31 8.105-14.351 7.474-1.832 12.243 2.535 13.822 8.977z" fill="#757575"/><g><defs><path id="SVGID_3_" d="M39.596 14.554s1.197.553 1.827.631c4.491.558 8.746.611 13.136-.553.761-.202 1.647-.404 2.264.116.78.658.294 1.901.088 2.93-.382 1.907-3.528 5.329-6.32 5.499-1.379.084-2.756-.125-3.93-.772-.866-.478-1.9-.502-2.735.029a4.368 4.368 0 0 1-1.028.49c-.907.287-2.134.321-2.68-.489-1.296-1.92-1.673-5.864-.622-7.881z"/></defs><use xlink:href="#SVGID_3_" overflow="visible" fill="#00e5ff"/><clipPath id="SVGID_4_"><use xlink:href="#SVGID_3_" overflow="visible"/></clipPath><path clip-path="url(#SVGID_4_)" fill="#00acc1" d="M45.476 24.37l-2.375-.003 1.637-11.302 2.375.002z"/><path clip-path="url(#SVGID_4_)" fill="#2962ff" d="M53.143 24.379l-4.3-.005 2.955-11.301 4.301.004z"/></g><g><path d="M40.369 13.466c-1.458.287-2.469.63-3.435 1.183-.531.305-1.084.677-1.161 1.151-.104.62.601.92 1.183.886 3.76-.203 6.841-.41 10.814-.282 2.748.064 6.706.453 9.063-.119.29-.073.575-.28.619-.596.07-.514-.278-.717-.802-.766-2.495-1.116-16.639-.006-16.281-1.457z" fill="#757575"/><path d="M40.37 13.06c-1.458.285-2.469.63-3.435 1.183-.531.305-1.084.676-1.161 1.151-.104.621.601.921 1.183.886 3.76-.202 6.841-.411 10.814-.282 2.748.065 6.706.45 9.063-.119.29-.078.575-.278.619-.596.07-.513-.278-.717-.802-.766-2.495-1.113-16.639-.005-16.281-1.457z" fill="#bdbdbd"/></g></g><path d="M64.415 17.463c-3.462 2.176-4.829 6.627-9.554 8.209-6.19 2.074-12.305.595-13.366-2.574 0 0-1.643-.183-1.547 1.416.08 1.331-.797 4.518 4.145 6.325s9.11 1.513 11.21 1.809c1.528.215 8.025-2.907 9.128-3.903 2.309-2.085 1.277-3.258 4.483-3.214 2.416.033 4.389-1.75 6.804-1.717 1.866.026 5.15 1.566 6.663.474 1.048-.756 1.73-1.949 2.815-2.65 1.533-.991 3.507-.802 5.333-.786a24.007 24.007 0 0 0 5.603-.611c.246-.057.518-.137.638-.359.126-.232.118-.58-.075-.76-3.043-2.841.391-9.5-4.163-9.5a10.656 10.656 0 0 1-5.948 2.144c-1.27.054-2.557-.12-3.806.116-2.157.408-3.079 3.104-5.144 3.852-2.81 1.018-5.909.442-8.897.502-1.802.036-3.177.507-4.322 1.227z" fill="#d84315"/></g><g fill="#fff"><path d="M105.586 77.386c.008-.009.018-.014.027-.025 1.233-1.081.391-3.201-1.308-2.926-.045.004-.088.014-.132.024-.98.238-1.634 1.078-1.914 2.008-.144.477-.263.962-.36 1.452-.049.24-.112.487-.13.73-.012.139.065.387.219.425.234.055.649-.143.865-.218.984-.332 1.947-.778 2.733-1.47z"/><path d="M117.606 65.478c.009-.008.014-.018.026-.026 1.098-1.217 3.206-.345 2.906 1.35a.949.949 0 0 1-.026.131c-.252.976-1.102 1.618-2.035 1.885-.479.137-.965.249-1.457.34-.241.046-.489.105-.731.12-.14.01-.386-.07-.422-.225-.051-.235.153-.647.23-.862.347-.981.806-1.937 1.509-2.713z"/><path d="M99.637 64.729c.006-.014.006-.024.014-.04.683-1.693-1.22-3.38-2.772-2.255a1.28 1.28 0 0 0-.117.095c-.855.723-1.085 1.892-.897 2.955.1.546.224 1.091.368 1.625.076.261.138.539.241.793.058.141.261.35.432.308.262-.064.571-.464.749-.648.817-.828 1.549-1.755 1.982-2.833z"/><path d="M112.983 55.431c.01-.009.013-.018.024-.028 1.103-1.157.1-3.144-1.527-2.731-.039.01-.087.024-.126.039-.929.312-1.495 1.189-1.685 2.115-.095.477-.17.96-.226 1.441-.023.237-.062.483-.061.723.002.133.099.369.252.39.233.033.614-.193.819-.285.934-.408 1.829-.926 2.53-1.664z"/><path d="M111.724 64.562c.014-.014.023-.023.027-.035 1.368-1.48.065-3.962-1.971-3.412-.055.014-.106.033-.162.052-1.161.412-1.856 1.525-2.078 2.696a19.91 19.91 0 0 0-.254 1.82c-.031.299-.074.608-.068.91.006.165.132.46.323.484.291.039.776-.252 1.034-.371 1.16-.532 2.278-1.203 3.149-2.144z"/></g></svg>