<svg xmlns="http://www.w3.org/2000/svg" xmlns:xlink="http://www.w3.org/1999/xlink" viewBox="0 0 128 128"><g id="Layer_2"><path d="M128 128H0v-27.35c54.565-20.162 102.174-45.238 128-85.704V128z" fill="#81d4fa"/><g><g><path d="M112.896 91.313c-.271-1.527-1.388-2.664-2.789-3.201-.694-.264-1.443-.438-2.188-.412a4.444 4.444 0 0 0-1.302.24c-.203.072-.44.266-.667.199.062-.276.316-.647.485-.881.944-1.31 2.256-2.439 2.967-3.94.873-1.843.685-3.572-.512-4.743a4.374 4.374 0 0 0-2.959-1.232c-1.193-.033-5.099 1.893-4.319-.702.312-1.024.786-2.569-.385-3.381-2.841-1.97-6.544 1.143-8.484 3.071-.286.282-.615.623-1.033.661-.613.055-.481-.852-.706-1.19-.896-1.355-2.614-1.445-4.022-.941-1.401.5-2.517 1.716-3.483 2.798-.213.242-.621.481-.886.17-.484-.574-.161-1.568-.587-2.197-.426-.623-1.021-.951-1.711-.951-1.488 0-3.136 1.501-3.882 2.511a90.256 90.256 0 0 1-2.614 3.345 22.273 22.273 0 0 1-2.549 2.699 38.273 38.273 0 0 1-2.363 1.941l-.316.227c-1.457 1.034-2.236 1.716-2.174 2.37l.031.35.33.062c1.529.276 3.417.074 4.891-.157.329-.053.673-.122 1.023-.19 1.041-.208 2.178-.405 3.023-.23 2.611.539 5.331 1.642 7.66 3.105 1.037.652 2.109 1.405 3.032 2.057 1.195.845 3.195 2.676 3.153 5.413-.041 2.923-1.476 5.523-2.676 7.19-.568.792-1.343 1.407-2.164 1.923-.697.442-1.645.603-2.208 1.235-.159.175-.244.416-.402.591-.119.138-.316.273-.405.433-.423.759-.897 1.532-1.638 2.018-.341.223-.715.143-1.067.28-.27.103-.535.307-.792.446-.274.146-1.326.671-.845 1.094.398.352 1.178.074 1.632-.008a15.405 15.405 0 0 1 4.256-.199c1.295.12 2.59.319 3.837.683.341.099.691.136 1.024.206 1.665.345 3.308.584 4.85.117.855-.254 1.752-.625 2.514-1.604.749-.965.597-1.57.371-2.483-.065-.251-.158-.488-.221-.742-.06-.241-.068-.481-.122-.718-.084-.35-.161-.924.106-1.209.859-.917 2.214-.412 3.222-.096 1.315.41 2.735.704 4.115.625 1.35-.075 2.555-.646 3.383-1.727.676-.89 1.003-2.02.649-3.123a7.897 7.897 0 0 0-1.295-2.483c-.594-.755-2.682-1.707-1.109-2.514 1.467-.754 3.112-1.003 4.644-1.58 1.659-.625 3.238-1.82 3.634-3.62a4.051 4.051 0 0 0 .043-1.606z" fill="#0277bd"/><path d="M104.045 96.294c1.721-.637 3.974-.538 5.293-1.977.783-.855 1.129-1.649.776-2.755-.35-1.101-.893-1.684-1.983-1.961-1.702-.428-3.405.003-5.02.859.134-.807.265-1.618.663-2.322.865-1.525 2.308-2.643 3.091-4.221.673-1.353.716-2.806-.402-3.842-1.257-1.164-2.93-.965-4.397-.371-1.23.5-3.308.776-2.923-1.127.189-.929 1.109-2.598.003-3.327-1.824-1.199-4.262 1.082-5.442 2.252-.799.792-2.145 2.313-3.435 1.836-.782-.289-.668-1.291-1.07-1.872-.848-1.219-2.662-1.13-3.638-.13-.906.934-2.112 3.215-3.767 2.7-1.165-.363-.684-1.961-1.233-2.72-1.285-1.789-3.827.316-4.699 1.439a83.989 83.989 0 0 1-2.528 3.077 21.473 21.473 0 0 1-2.041 2.119c-.151.134-.305.268-.456.398a36.438 36.438 0 0 1-2.301 1.798c-.45.326-2.277 1.441-2.223 1.994 1.518.262 3.057.082 4.568-.145 1.282-.19 2.759-.63 4.037-.38 2.586.507 5.237 1.537 7.504 2.894a67.62 67.62 0 0 1 2.941 1.894c1.8 1.214 3.253 3.055 3.223 5.314-.043 2.492-1.187 4.871-2.667 6.827-1.525 2.023-4.34 2.801-6.464 4.125-1.409.876-3.332 1.944-4.286 3.33-2.082 3.014 2.83.512 3.823.253 2.208-.577 4.588-1.001 6.859-.601 1.923.34 3.534.859 5.461.306.91-.258 1.611-.598 2.212-1.329.577-.708.489-1.07.271-1.898-.323-1.23-1.511-2.76.258-3.279.897-.268 1.889-.316 2.812-.316 1.238.004 2.33.68 3.564.759 1.937.124 4.877-1.195 4.084-3.534-.361-1.075-.914-1.781-1.968-2.284-.577-.277-1.294-.357-1.484-1.024-.355-1.272 2.039-2.411 2.984-2.759z" fill="#e3f2fd"/><g><g><g fill="#0277bd"><g><path d="M81.396 121.149c.014.007.023.017.041.024 1.779 1.159 4.129-.632 3.191-2.655a1.25 1.25 0 0 0-.076-.156c-.639-1.139-1.917-1.661-3.174-1.685a20.542 20.542 0 0 0-1.937.058c-.316.023-.646.031-.956.093-.178.034-.46.216-.453.422.014.311.406.759.574 1.003.76 1.114 1.653 2.158 2.79 2.896z"/><path d="M83.519 68.275c.006-.014.006-.024.014-.04.683-1.693-1.22-3.38-2.772-2.255a1.28 1.28 0 0 0-.117.095c-.855.723-1.085 1.893-.897 2.955.1.546.224 1.091.368 1.625.076.261.138.539.241.793.058.141.261.35.432.308.262-.064.571-.464.749-.648.817-.828 1.549-1.755 1.982-2.833z"/></g><path d="M95.606 68.108a.11.11 0 0 0 .027-.035c1.368-1.48.065-3.962-1.971-3.412-.055.014-.106.033-.162.052-1.161.412-1.856 1.525-2.078 2.696a19.91 19.91 0 0 0-.254 1.82c-.031.299-.074.608-.068.91.006.165.132.46.323.484.291.039.776-.252 1.034-.371 1.16-.532 2.278-1.203 3.149-2.144z"/></g></g></g></g><g><path d="M99.243 89.109c-1.886-2.875-6.066-4.273-12.774-4.273-6.268 0-13.42 1.223-17.123 1.951-10.571 2.078-25.615 6.454-37.247 15.498-4.08 3.174-8.449 6.918-8.641 11.197-.062 1.333.274 3.301 2.222 5.118 2.648 2.473 7.715 3.627 15.948 3.627h.038c9.191 0 17.792-2.493 26.523-5.276 7.9-2.514 14.791-6.265 19.912-9.253 3.95-2.308 9.109-6.104 11.266-11.074 1.584-3.641.804-6.097-.124-7.515zm-57.577 30.554v.002-.002z" fill="#00796b"/></g><g><defs><path id="SVGID_1_" d="M99.243 87.364c-1.886-2.875-6.066-4.273-12.774-4.273-6.268 0-13.42 1.223-17.123 1.951-10.57 2.078-25.615 6.454-37.246 15.498-4.08 3.174-8.449 6.918-8.641 11.197-.062 1.333.274 3.301 2.222 5.118 2.648 2.473 7.715 3.627 15.948 3.627h.038c9.191 0 17.792-2.493 26.523-5.276 7.9-2.514 14.791-6.265 19.912-9.253 3.95-2.308 9.109-6.104 11.266-11.074 1.583-3.64.803-6.096-.125-7.515z"/></defs><use xlink:href="#SVGID_1_" overflow="visible" fill="#ffee58"/><clipPath id="SVGID_2_"><use xlink:href="#SVGID_1_" overflow="visible"/></clipPath><path clip-path="url(#SVGID_2_)" fill="#7cb342" d="M103.368 88.814l-75.606 32.108-9.089-8.061 76.795-30.189z"/></g></g><g><g><path d="M79.907 94.967l-9.257.468a2.061 2.061 0 0 1-2.184-1.929c-.151-2.444 1.68-3.961 4.123-4.112l8.645-.441a1.001 1.001 0 0 1 1.049.918l.18 2.201a2.729 2.729 0 0 1-2.556 2.895z" fill="#fbc11b"/><path fill="#fbc11b" d="M67.652 81.396l-8.668-3.145 7.007-21.709 10.205 3.702z"/><path fill="#fbc11b" d="M81.847 89.111l-4.396 5.718-16.634-11.142 5.612-7.302z"/><circle cx="63.318" cy="79.824" r="4.605" fill="#fbc11b"/><circle cx="71.093" cy="58.393" r="5.428" fill="#fbc11b"/><path d="M73.335 52.222a6.458 6.458 0 0 0-8.273 3.868l-.004-.002-4.075 15.973 9.072 3.388 7.148-14.954a6.458 6.458 0 0 0-3.868-8.273z" fill="#e65100"/></g><g><path id="XMLID_1779_" fill="#fbc11b" d="M29.048 61.126l3.833 5.208 11.274-7.677-4.425-6.013z"/><path fill="#fbc11b" d="M45.516 56.952l-6.933-2.77 6.824-18.424 7.861 3.141z"/><circle cx="42.049" cy="55.567" r="3.733" fill="#fbc11b"/><path d="M23.697 69.222l-.132-.179a4.511 4.511 0 0 1 .958-6.307l2.079-1.531a4.511 4.511 0 0 1 6.307.958l.132.179a4.511 4.511 0 0 1-.958 6.307l-2.079 1.531a4.51 4.51 0 0 1-6.307-.958z" fill="#fbc11b"/><circle cx="49.339" cy="37.329" r="4.231" fill="#fbc11b"/><path d="M51.374 32.241a5.11 5.11 0 0 0-6.641 2.848l-.003-.001-3.277 8.846 9.047 3.615 3.722-8.668a5.107 5.107 0 0 0-2.848-6.64z" fill="#04a287"/></g><g><path d="M56.631 113.632l-11.59-.007a2.577 2.577 0 0 1-2.604-2.549c-.033-3.061 2.351-4.839 5.412-4.871l12.039.002.122 3.974a3.416 3.416 0 0 1-3.379 3.451z" fill="#fbc11b"/><path fill="#fbc11b" d="M54.834 83.396l-8.62-7.656 18.167-21.993 10.149 9.015z"/><path fill="#fbc11b" d="M59.878 106.307l-8.9 1.463-6.045-26.705 11.363-1.87z"/><circle cx="50.524" cy="79.568" r="5.758" fill="#fbc11b"/><circle cx="69.456" cy="58.254" r="6.787" fill="#fbc11b"/><path d="M74.91 52.118a8.074 8.074 0 0 0-11.4.675l-.004-.004-12.112 16.68 8.978 8.126 15.213-14.077a8.074 8.074 0 0 0-.675-11.4z" fill="#ff6f00"/></g><g><path id="XMLID_1778_" d="M48.779 22.201l2.802 8.156a2.74 2.74 0 0 1-1.7 3.48l-2.16.742a2.74 2.74 0 0 1-3.256-1.211l-7.832-13.444 12.146 2.277z" fill="#fbc11b"/><path id="XMLID_1777_" d="M46.353 12.125l4.268 16.943-11.031 2.869c-5.128 1.334-10.329-1.894-11.41-7.082l-1.31-6.285c-1.211-5.812 2.857-11.4 8.76-12.033l2.343-.251a7.786 7.786 0 0 1 8.38 5.839z" fill="#fbc11b"/><path id="XMLID_1776_" d="M49.641 23.52l-5.394.381-1.186-3.557a3.432 3.432 0 0 0-2.665-2.295h-.001l-.22 4.303a3.607 3.607 0 0 1-3.189-1.507l-1.45-2.038a3.348 3.348 0 0 0-2.728-1.407h-6.114s-1.967-8.012 5.691-10.966a41.833 41.833 0 0 1 3.935-1.29c5.975-1.647 12.019 2.396 12.801 8.545v.002c.414 3.257.588 6.545.52 9.828v.001z" fill="#6d4c41"/><path id="XMLID_1775_" d="M31.933 21.448c.175.755-.19 1.484-.817 1.629-.624.144-1.274-.35-1.448-1.105-.175-.757.192-1.486.816-1.63.627-.146 1.274.349 1.449 1.106" fill="#c07b47"/></g><path d="M48.521 29.226l-2.96 1.943a6.798 6.798 0 0 0-1.518 9.494l12.923 20.159a4.03 4.03 0 0 0 5.805 1.052l12.517-9.363-17.273-21.766a6.799 6.799 0 0 0-9.494-1.519z" fill="#00bea4"/><g><path id="XMLID_1774_" fill="#fbc11b" d="M79.443 50.534l4.249-4.875-9.949-9.331-4.905 5.629z"/><path fill="#fbc11b" d="M71.782 35.372l-1.193 7.37-19.468-2.646 1.353-8.357z"/><circle cx="71.185" cy="39.057" r="3.733" fill="#fbc11b"/><path d="M88.512 53.992l-.146.168a4.51 4.51 0 0 1-6.364.439l-1.947-1.696a4.51 4.51 0 0 1-.439-6.364l.146-.168a4.51 4.51 0 0 1 6.364-.439l1.947 1.696a4.511 4.511 0 0 1 .439 6.364z" fill="#fbc11b"/><circle cx="51.798" cy="35.916" r="4.231" fill="#fbc11b"/><path d="M46.388 35.038a5.109 5.109 0 0 0 4.227 5.86l-.001.004 9.348 1.27 1.557-9.617-9.271-1.744a5.11 5.11 0 0 0-5.86 4.227z" fill="#04a287"/></g></g></g></svg>