<svg xmlns="http://www.w3.org/2000/svg" viewBox="0 0 128 128"><g id="Layer_5"><path fill="#006ca2" d="M50.083 62h24l30-58h-24z"/><path fill="#2f2f2f" d="M65.083 33l-12 23.2 3 5.8h18l3-5.8z"/></g><g id="Layer_2"><g><path d="M76 62v14H52V62h24m0-6H52a6 6 0 0 0-6 6v14a6 6 0 0 0 6 6h24a6 6 0 0 0 6-6V62a6 6 0 0 0-6-6z" fill="#fcc21b"/></g><circle cx="64" cy="94" r="30" fill="#fcc21b"/><path d="M43.889 86.702c-.396 0-.79-.08-1.165-.242a2.953 2.953 0 0 1-1.579-3.757.782.782 0 0 1 .024-.068c.013-.047.013-.035.034-.076A21.392 21.392 0 0 1 56.1 70.02a.736.736 0 0 1 .623 1.294c-4.382 3.481-7.879 8.174-10.114 13.572a.391.391 0 0 1-.016.036 2.921 2.921 0 0 1-1.615 1.571 2.975 2.975 0 0 1-1.089.209z" fill="#fff"/></g><g id="star"><g><path d="M62.446 79.798c.855-1.732 2.253-1.732 3.108 0l2.53 5.126c.855 1.732 3.117 3.376 5.028 3.653l5.657.822c1.911.278 2.343 1.608.96 2.956l-4.093 3.99c-1.383 1.348-2.247 4.008-1.921 5.911l.966 5.634c.326 1.903-.805 2.725-2.514 1.827l-5.059-2.66c-1.709-.899-4.506-.899-6.215 0l-5.059 2.66c-1.709.899-2.841.077-2.514-1.827l.966-5.634c.326-1.903-.538-4.563-1.921-5.911l-4.093-3.99c-1.383-1.348-.951-2.678.96-2.956l5.657-.822c1.911-.278 4.174-1.922 5.028-3.653l2.529-5.126z" fill="#f79329"/></g></g><g id="Layer_3"><path fill="#006ca2" d="M76.083 62h-24l-30-58h24z"/></g><g id="Layer_6"><g/><g/><g/><path d="M46.302 220.286A24.166 24.166 0 0 1 50.125 216" fill="none" stroke="#fff" stroke-width="5" stroke-linecap="round" stroke-miterlimit="10"/><g/><g/><path d="M186.302 220.286a24.133 24.133 0 0 1 3.824-4.286" fill="none" stroke="#fff" stroke-width="5" stroke-linecap="round" stroke-miterlimit="10"/><g/><g/><path d="M188 82a24.133 24.133 0 0 1 3.824-4.286" fill="none" stroke="#fff" stroke-width="5" stroke-linecap="round" stroke-miterlimit="10"/></g></svg>