<svg xmlns="http://www.w3.org/2000/svg" viewBox="0 0 128 128"><g id="wheels"><path d="M24.099 76.242C11.043 76.242.462 86.797.462 99.849c0 13.047 10.581 23.614 23.637 23.614 13.035 0 23.62-10.567 23.62-23.614 0-13.052-10.585-23.607-23.62-23.607zm-.007 37.803c-7.844 0-14.202-6.352-14.202-14.198 0-7.84 6.358-14.188 14.202-14.188 7.842 0 14.208 6.348 14.208 14.188.001 7.847-6.365 14.198-14.208 14.198z" fill="#2f2f2f"/><path d="M103.92 76.78c-13.058 0-23.639 10.555-23.639 23.607 0 13.047 10.581 23.614 23.639 23.614 13.03 0 23.62-10.567 23.62-23.614 0-13.053-10.59-23.607-23.62-23.607zm-.015 37.803c-7.842 0-14.19-6.352-14.19-14.198 0-7.84 6.348-14.188 14.19-14.188 7.845 0 14.21 6.348 14.21 14.188 0 7.846-6.366 14.198-14.21 14.198z" fill="#2f2f2f"/><path fill="none" stroke="#78a3ad" stroke-width="8" stroke-linecap="round" stroke-miterlimit="10" d="M103.942 100.121l-21.49-21.49"/><path fill="none" stroke="#78a3ad" stroke-width="8" stroke-linecap="round" stroke-miterlimit="10" d="M24.058 100.121l21.49-21.49"/></g><g id="Layer_6_copy_2"><path d="M78.11 100.386c0-16.682 12.211-26.718 28.221-26.315.152.004 5.595-5.275 10.04-9.611 2.09-2.039.644-5.584-2.277-5.584h-22.9c-2.096 0-4.693 1.471-5.772 3.268l-2.591 4.319c-1.078 1.797-3.661 3.494-5.738 3.771l-25.007 3.334c-2.078.277-4.544-1.03-5.482-2.905l-6.979-11.787 5.112-2.719a3.254 3.254 0 0 0 1.677-2.307l1.894-10.701a3.805 3.805 0 0 0-3.811-3.797s-12.526.044-24.681 7.042C4.284 55.334 2.169 70.298 2.169 70.298c-.293 2.075 1.181 3.773 3.277 3.773h6.489c2.096 0 5.023 1.213 6.506 2.695l31.984 31.984a7.597 7.597 0 0 0 5.373 2.225H73.77a4.342 4.342 0 0 0 4.342-4.342v-6.247z" fill="#ed6c30"/></g><g id="Layer_6"><path d="M39.625 58.875l5.112-2.719a3.254 3.254 0 0 0 1.677-2.307l1.894-10.701a3.805 3.805 0 0 0-3.811-3.797s-12.526.044-24.681 7.042c-5.245 3.02-8.96 6.726-11.581 10.311" fill="#40c0e7"/></g></svg>