<svg id="レイヤー_1" xmlns="http://www.w3.org/2000/svg" xmlns:xlink="http://www.w3.org/1999/xlink" viewBox="0 0 128 128"><g><g><g fill="#2f2f2f"><g><path d="M95.476 112.656H32.459l6.113-22.835h50.799z"/><path d="M95.518 115.677H32.459a3.018 3.018 0 0 1-2.394-1.183 3.017 3.017 0 0 1-.523-2.619l6.113-22.837a3.021 3.021 0 0 1 2.917-2.238h50.799c1.367 0 2.566.919 2.917 2.24l5.976 22.362a3.02 3.02 0 0 1-2.746 4.275zm-59.125-6.042h55.149L87.055 92.84H40.889l-4.496 16.795z"/></g><g><path d="M24.425 112.656h79.089v8.352H24.425z"/><path d="M103.514 124.027H24.425a3.017 3.017 0 0 1-3.017-3.019v-8.353a3.02 3.02 0 0 1 3.017-3.021h79.089a3.02 3.02 0 0 1 3.017 3.021v8.353a3.017 3.017 0 0 1-3.017 3.019zm-76.072-6.038h73.055v-2.312H27.442v2.312z"/></g></g><g><defs><path id="SVGID_1_" d="M78.745 98.507H49.197a1.845 1.845 0 0 0-1.846 1.846v8.353c0 1.019.825 1.846 1.846 1.846h29.548a1.846 1.846 0 0 0 1.847-1.846v-8.353a1.846 1.846 0 0 0-1.847-1.846z"/></defs><use xlink:href="#SVGID_1_" overflow="visible" fill="#fcc21b"/><clipPath id="SVGID_2_"><use xlink:href="#SVGID_1_" overflow="visible"/></clipPath></g></g><g><g><g><g><path d="M20.184 18.491c-1.884 0-3.672.329-5.317.983-6.965 2.767-8.965 10.651-7.34 17.012 1.36 5.323 6.115 9.434 10.231 11.148.938.392 1.9.688 2.834.977.917.284 1.779.552 2.616.898 1.251.517 2.417 1.529 3.042 2.642.625 1.117.459 1.74.117 2.983-.091.333-.184.688-.272 1.071-.188.884-.333 1.917-.012 2.95.512 1.675 1.796 2.721 3.35 2.721 2.851-.077 5.009-2.404 6.034-6.392l.008-.033.042-.167c.412-1.633.509-3.096.271-4.408-.212-1.219-.629-2.315-1.233-3.25-2.05-3.2-5.32-5.05-8.5-6.673-.559-.285-1.13-.558-1.704-.833-2.033-.973-4.139-1.981-5.634-3.562-1.25-1.325-1.634-3.169-1.009-4.815.583-1.542 1.892-2.508 3.579-2.656a6.38 6.38 0 0 1 .562-.025c4.354 0 7.097 4.607 9.302 8.311l.195.329 1.529 2.563.441-2.95c.138-.909.263-1.879.259-2.817-.009-.654.008-1.319.021-1.983.088-4.125.188-8.799-4.338-11.472-2.782-1.647-6.004-2.552-9.074-2.552z" fill="#fcc21b"/></g><g fill="#fcc21b"><path d="M93.259 51.064c.18-1.025.529-2.009 1.079-2.859 1.917-2.99 5.009-4.729 8.093-6.302 2.616-1.34 5.559-2.429 7.625-4.615 3.15-3.34 1.404-8.859-3.254-9.265-5.505-.479-8.676 5.121-11.067 9.132-.13-.858-.25-1.775-.246-2.652.035-4.648-.858-9.794 3.792-12.54 3.954-2.342 9.077-3.233 13.459-1.496 6.25 2.484 8.255 9.671 6.702 15.755-1.181 4.608-5.353 8.653-9.61 10.428-1.775.74-3.672 1.14-5.451 1.875-1.433.594-2.796 1.744-3.562 3.103-1.05 1.867-.37 2.954.042 4.809.167.785.279 1.623.039 2.404-.344 1.115-1.177 2.004-2.401 1.969-2.9-.077-4.343-3.252-4.946-5.644a.324.324 0 0 1-.021-.069c-.327-1.295-.509-2.705-.273-4.033z"/><path d="M107.815 18.491c-3.072 0-6.292.904-9.077 2.552-4.521 2.671-4.423 7.344-4.337 11.47.012.665.028 1.329.02 1.983-.004.938.121 1.908.259 2.817l.441 2.95 1.53-2.563.195-.329c2.204-3.704 4.946-8.311 9.302-8.311.182 0 .369.009.562.025 1.688.148 2.996 1.114 3.579 2.656.629 1.646.242 3.49-1.009 4.815-1.495 1.582-3.6 2.59-5.632 3.562a73.06 73.06 0 0 0-1.706.833c-3.179 1.623-6.45 3.473-8.504 6.678-.601.931-1.018 2.027-1.229 3.25-.237 1.309-.142 2.771.287 4.476l.017.06.014.042c1.02 4.004 3.183 6.342 5.941 6.417h.004c1.65 0 2.93-1.044 3.446-2.723.316-1.029.171-2.062-.013-2.938-.09-.392-.184-.746-.275-1.08-.342-1.244-.508-1.867.117-2.985.625-1.111 1.792-2.123 3.042-2.64.837-.346 1.7-.615 2.616-.898.934-.29 1.897-.585 2.834-.977 4.119-1.714 8.871-5.825 10.233-11.146 1.626-6.363-.375-14.247-7.342-17.014-1.645-.653-3.433-.982-5.315-.982z"/></g><g fill="#fcc21b"><path d="M94.825 17.608c-5.708-5.279-14.604-7.842-22.155-8.434-2.892-.229-5.796-.308-8.7-.325-2.902.017-5.809.096-8.701.325-7.55.592-16.446 3.155-22.155 8.434-3.375 3.121-2.434 8.546-2.009 12.646.767 7.505 2.229 17.472 7.275 23.441 1.463 1.731 2.963 3.352 4.604 4.788 1.847 1.615 3.518 3.467 5.396 5.078 2.31 1.979 4.93 4.198 5.4 7.371.675 4.542-2.383 5.805-5.883 7.384-2.464 1.113-5.159 3.726-4.147 6.692 1.075 3.163 5.667 2.5 8.268 2.671 7.521.49 15.072.183 22.602-.044 2.608-.077 9.676.248 9.676-3.794 0-1.45-.68-2.831-1.717-3.821a9.14 9.14 0 0 0-2.538-1.705c-3.5-1.579-6.557-2.842-5.884-7.384.476-3.173 3.092-5.392 5.4-7.371 1.88-1.611 3.551-3.463 5.396-5.078 1.642-1.436 3.142-3.056 4.608-4.788 5.042-5.969 6.505-15.937 7.275-23.441.423-4.099 1.365-9.524-2.011-12.645zM63.97 29.379c-14.359 0-25.998-3.275-25.998-7.309 0-4.038 11.639-7.311 25.998-7.311 14.359 0 25.997 3.273 25.997 7.311 0 4.034-11.638 7.309-25.997 7.309z"/><path d="M63.97 7.782h-.009c-3.4.021-6.192.125-8.775.327-9.15.719-17.676 3.977-22.798 8.715-3.486 3.227-2.916 8.367-2.458 12.497l.112 1.046c.871 8.502 2.442 18.007 7.525 24.018 1.709 2.021 3.207 3.58 4.717 4.9.858.754 1.709 1.587 2.525 2.392.923.9 1.871 1.832 2.875 2.694 2.309 1.977 4.634 3.967 5.042 6.719.517 3.473-1.366 4.496-5.017 6.142l-.25.113c-3.108 1.402-5.913 4.504-4.717 8.007 1.125 3.311 4.93 3.335 7.709 3.356.537.002 1.05.004 1.5.033 2.725.179 5.65.267 8.934.267 3.917 0 7.893-.125 11.738-.246l2.029-.061c.242-.006.517-.01.825-.015 3.209-.041 9.884-.131 9.884-4.846 0-1.679-.746-3.352-2.05-4.592a10.214 10.214 0 0 0-2.834-1.904l-.25-.113c-3.65-1.646-5.533-2.668-5.017-6.142.412-2.757 2.737-4.747 4.987-6.673 1.059-.909 2.009-1.84 2.93-2.74.816-.804 1.667-1.637 2.525-2.392 1.504-1.312 3.004-2.871 4.726-4.9 5.066-6.004 6.646-15.513 7.519-24.02l.115-1.057c.454-4.125 1.021-9.259-2.463-12.484-5.121-4.738-13.646-7.997-22.798-8.715-2.583-.202-5.375-.306-8.775-.327h-.006v.001zm0 20.531c-15.445 0-24.931-3.636-24.931-6.242 0-2.608 9.485-6.244 24.931-6.244 15.446 0 24.932 3.636 24.932 6.244-.001 2.606-9.486 6.242-24.932 6.242z"/></g></g><path d="M87.129 33.217c-.333.004-.671.115-.975.192-.68.17-1.321.471-2.003.667-.598.169-1.173.375-1.756.583-1.138.41-2.809.521-3.675 1.436-.796.839-.871 2.458-1.028 3.527-.243 1.621-.389 3.254-.602 4.879-.398 3.113-1.195 6.14-2.241 9.096a50.764 50.764 0 0 1-2.051 4.959c-.675 1.413-1.408 2.814-2.246 4.135-.358.559-1.471 1.938-.704 2.552.446.358 1.392.315 1.867.09 5.305-2.498 8.93-7.346 11.413-12.513.767-1.594 1.43-3.244 2.038-4.907.758-2.079 1.379-4.2 1.979-6.33.367-1.3.709-2.608.959-3.938.191-1.023.871-3.917-.596-4.38a1.24 1.24 0 0 0-.379-.048z" fill="#855c52"/><path d="M74.657 86.046c-1.131.096-2.491.112-3.279-.302-.241-.129-.379-.286-.333-.567.046-.296.191-.29.4-.435a4.121 4.121 0 0 0 1.041-1.15c.671-1.2.084-2.542-.358-3.712-.171-.446-.774-1.067-.154-1.43.344-.193.871-.096 1.222-.017.5.108 1.066.325 1.546.504 1.809.673 3.6 2.496 3.596 4.521-.004 1.55-1.116 2.288-2.542 2.467-.321.037-.713.087-1.139.121z" fill="#855c52"/></g></g></g></svg>