<svg id="图层_1" xmlns="http://www.w3.org/2000/svg" viewBox="0 0 128 128"><g><g><path id="XMLID_815_" fill="#04846c" d="M40.653 42.993l-1.038 7.501 23.651 4.457 1.356-9.573z"/><circle id="XMLID_814_" cx="40.138" cy="46.712" r="3.838" fill="#04846c"/><path id="XMLID_813_" fill="#04846c" d="M52.381 31.278l-6.699-3.53-8.944 17.185 6.699 3.53z"/><path id="XMLID_797_" d="M55.267 23.617l-.153-.171a4.585 4.585 0 0 0-6.473-.355l-1.928 1.728a4.585 4.585 0 0 0-.355 6.473l.153.171a4.585 4.585 0 0 0 6.473.355l1.928-1.728a4.585 4.585 0 0 0 .355-6.473z" fill="#ffb300"/><path d="M67.835 50.76c-.426 2.786-3.096 4.417-5.163 4.101-2.067-.316-3.328-3.284-3.011-5.351s2.406-4.523 4.473-4.206c2.067.315 4.14 2.584 3.701 5.456z" fill="#16a7da"/></g><g><circle cx="65.052" cy="96.778" r="6.375" fill="#444"/><path fill="#444" d="M71.368 95.959L58.93 98.542l-8.295-25.355 15.478-3.845z"/><path fill="#444" d="M88.321 105.967l-5.001 9.993-22.009-14.028 6.897-10.299z"/><path d="M55.378 65.556c6.028-1.041 11.758 3.001 12.799 9.029 1.041 6.028-3.001 11.758-9.029 12.799-6.028 1.042-9.798-20.787-3.77-21.828z" fill="#444"/><g><g><path d="M91.554 109.841l-1.748 9.557a3.414 3.414 0 0 1-3.972 2.744l-.168-.031a3.414 3.414 0 0 1-2.744-3.972l1.748-9.557a3.414 3.414 0 0 1 3.972-2.744l.168.031a3.412 3.412 0 0 1 2.744 3.972z"/><path d="M92.169 106.483l-2.805 15.336a.952.952 0 0 1-1.108.765l-2.845-.52 2.977-16.273 3.781.692z"/><path d="M89.066 105.915l-1.029 5.624-3.781-.692.601-3.285a2.378 2.378 0 0 1 2.767-1.911l1.442.264z"/></g><path d="M90.281 106.128a2.267 2.267 0 0 0-2.625 1.825l-.623 3.406-1.334 7.292a3.403 3.403 0 0 0 2.493 3.9l-.005.026a3.443 3.443 0 0 0 3.967-2.775l2.006-10.968a1.978 1.978 0 0 0-1.601-2.303l-2.278-.403z" fill="#616161"/></g></g><circle cx="50.711" cy="95.079" r="6.375" fill="#616161"/><path fill="#616161" d="M56.615 97.467l-12.104-3.858 5.228-26.161 15.371 4.253z"/><path fill="#616161" d="M55.814 120.268l-11.098.02-.355-25.398 12.394.127z"/><path d="M53.702 60.187c6.094-.533 11.466 3.975 11.999 10.069.533 6.094-3.975 11.466-10.069 11.999-6.093.533-8.023-21.535-1.93-22.068z" fill="#616161"/><g><path id="XMLID_807_" fill="#fbc11b" d="M76.176 34.601l-3.552 9.858-7.841-1.803 4.325-20.362z"/><g><g><g id="XMLID_821_" fill="#e49500"><path id="XMLID_823_" d="M82.108 30.084s1.604.754 1.106 2.567c-.439 1.6-1.841 1.894-3.069 1.557l1.19-4.336.773.212z"/><path id="XMLID_822_" d="M63.744 25.044s-1.764-.17-2.261 1.643c-.439 1.6.616 2.568 1.844 2.905l1.19-4.336-.773-.212z"/></g><path id="XMLID_820_" d="M76.185 15.689c-7.256-1.991-10.699 3.112-12.867 11.014-2.249 8.194 2.436 11.758 6.325 12.825 3.831 1.051 9.72.455 11.985-7.8 2.168-7.901 1.813-14.047-5.443-16.039z" fill="#fbc11b"/><path id="XMLID_819_" d="M76.754 37.335c.972-1.826 2.837-3.217 4.551-4.488l1.123-2.544s.242.182.435.44c.181.242.27.406.27.406s.643-2.332 1.514-5.506c.897-3.267-.171-8.626-7.96-10.926 0 0-.14-.043-.202-.059-.061-.017-.204-.052-.204-.052-7.872-1.998-11.525 2.065-12.422 5.332-.871 3.174-1.508 5.508-1.508 5.508s.16-.095.439-.211c.298-.123.599-.157.599-.157l-.332 2.76c.934.962 1.537 2.571 1.53 5.377-.237 3.456 10.213 6.123 12.167 4.12z" fill="#6d4c41"/></g><ellipse transform="rotate(3.91 74.86 18.845)" cx="74.9" cy="18.857" rx="10.425" ry="8.482" fill="#ffa726"/><path d="M82.333 17.051c4.75 5.404 3.516 11.223-.075 15.861-3.828 4.944-13.58 3.039-17.755-1.822s-3.23-11.132 1.252-14.98 12.348-3.872 16.578.941z" fill="#ef6c00"/></g><ellipse transform="rotate(10.318 74.8 19.457)" cx="74.8" cy="19.457" rx="1.375" ry="1.183" fill="#bf360c"/></g><path d="M51.579 75.436a4.47 4.47 0 0 1-3-5.564c2.253-8.495 5.364-18.124 9.344-25.276 1.267-3.101 5.15-6.897 8.872-5.549l5.84 1.888c2.528.888 3.77 6.269 2.433 9.556-3.151 7.44-4.466 14.909-5.418 23.95-.78 4.412-14.392 1.953-18.071.995z" fill="#00bea4"/><g><path d="M52.399 127.008l-9.716.001a3.414 3.414 0 0 1-3.414-3.414v-.171a3.414 3.414 0 0 1 3.414-3.414l9.716-.001a3.414 3.414 0 0 1 3.414 3.414v.171a3.414 3.414 0 0 1-3.414 3.414z"/><path d="M39.27 123.164h16.543v4.727H39.27z"/><path d="M50.096 120.009h5.717v3.844h-5.717z"/></g><g><g><path fill="#7c7d7d" d="M102.875 65.717l1.153-1.67-61.659-42.169-1.154 1.669z"/></g><g><path fill="#2e2f2f" d="M53.383 32.428l1.698-2.454-14.082-9.662-1.698 2.455z"/></g><g><path d="M104.078 63.974s4.568 2.548 5.073 3.64c.375.813.436 3.688.239 5.535-.197 1.848-1.081 2.244-1.081 2.244s-1.543 1.026-3.216 1.294c-1.674.268-1.751-1.245-1.751-1.245s-.346-2.753-.179-3.653c.166-.899.81-2.555 1.722-3.668.413-.504-.256-.928-.256-.928l-1.822-1.394 1.271-1.825z" fill="#2e2f2f"/></g></g><g><path id="XMLID_800_" fill="#04a287" d="M38.909 42.617l.108 7.572 24.053.831-.107-9.669z"/><circle id="XMLID_799_" cx="38.962" cy="46.371" r="3.838" fill="#04a287"/><path id="XMLID_796_" fill="#04a287" d="M48.731 29.264l-7.155-2.477-6.244 18.34 7.156 2.477z"/><path id="XMLID_795_" d="M50.426 21.255l-.177-.146a4.584 4.584 0 0 0-6.452.628l-1.644 1.999a4.584 4.584 0 0 0 .628 6.452l.177.146a4.584 4.584 0 0 0 6.452-.628l1.644-1.999a4.584 4.584 0 0 0-.628-6.452z" fill="#fbc11b"/><path d="M66.953 46.186c0 2.818-2.392 4.834-4.483 4.834-2.091 0-3.786-2.743-3.786-4.834 0-2.091 1.695-4.834 3.786-4.834 2.091-.001 4.483 1.929 4.483 4.834z" fill="#04a287"/></g></g></svg>