<svg xmlns="http://www.w3.org/2000/svg" viewBox="0 0 128 128"><g id="图层_1"><g><g><g fill="#7d7d7d"><path d="M7.739 13.775a1.585 1.585 0 0 0 0 3.17h43.487v-3.17H7.739z"/><path d="M120.216 13.775H83.367v3.17h36.849a1.585 1.585 0 0 0 0-3.17z"/><g><path d="M104.659 4.235a3.868 3.868 0 0 1 3.868-3.868h1.47a3.868 3.868 0 0 1 3.868 3.868v22.25a3.868 3.868 0 0 1-3.868 3.868h-1.47a3.868 3.868 0 0 1-3.868-3.868V4.235z"/><path d="M115.875 7.025a2.49 2.49 0 0 1 2.49-2.49h.946a2.49 2.49 0 0 1 2.49 2.49v16.67a2.49 2.49 0 0 1-2.49 2.49h-.946a2.49 2.49 0 0 1-2.49-2.49V7.025z"/></g><g><path d="M23.297 26.485a3.868 3.868 0 0 1-3.868 3.868h-1.47a3.868 3.868 0 0 1-3.868-3.868V4.235A3.868 3.868 0 0 1 17.959.367h1.47a3.868 3.868 0 0 1 3.868 3.868v22.25z"/><path d="M12.08 23.695a2.49 2.49 0 0 1-2.49 2.49h-.946a2.49 2.49 0 0 1-2.49-2.49V7.025a2.49 2.49 0 0 1 2.49-2.49h.946a2.49 2.49 0 0 1 2.49 2.49v16.67z"/></g><path d="M50.572 13.775h33.449v3.17H50.572z"/></g><g fill="#2f302f"><path d="M19.568 27.935H17.82c-1.537 0-2.894-.636-3.729-1.61v.159a3.868 3.868 0 0 0 3.868 3.868h1.47a3.868 3.868 0 0 0 3.868-3.868v-.159c-.835.974-2.192 1.61-3.729 1.61z"/><path d="M8.536 24.231c-.969 0-1.821-.374-2.382-.945v.409a2.49 2.49 0 0 0 2.49 2.49h.946a2.49 2.49 0 0 0 2.49-2.49v-.409c-.56.572-1.413.945-2.382.945H8.536z"/></g><g fill="#2f302f"><path d="M108.387 27.935h1.748c1.537 0 2.894-.636 3.729-1.61v.159a3.868 3.868 0 0 1-3.868 3.868h-1.47a3.868 3.868 0 0 1-3.868-3.868v-.159c.836.974 2.193 1.61 3.729 1.61z"/><path d="M119.419 24.231c.969 0 1.821-.374 2.382-.945v.409a2.49 2.49 0 0 1-2.49 2.49h-.946a2.49 2.49 0 0 1-2.49-2.49v-.409c.56.572 1.413.945 2.382.945h1.162z"/></g></g><g><g><g><path d="M49.244 127.829l-12.981-.031.005-2.216a4.767 4.767 0 0 1 4.777-4.757l8.213.021-.014 6.983z"/><path d="M45.672 99.96l-7.745-8.382s3.317-5.926 7.532-10.39c4.195-4.442 9.887-7.645 9.887-7.645l8.558 9.187s-3.326 6.127-7.569 9.771-10.663 7.459-10.663 7.459z" fill="#fbc11b"/><circle cx="42.752" cy="94.406" r="5.562" fill="#fbc11b"/><path d="M63.414 73.987a7.248 7.248 0 0 0-10.249.072l-.004-.004c-3.924 3.11-7.12 6.077-9.793 9.538L53.803 94.52s2.455-1.751 4.364-3.437c1.11-.98 2.855-2.587 3.5-3.167.833-.75 1.87-.724 2.333-.724l1.173-10.354a7.196 7.196 0 0 0-1.759-2.851z" fill="#00bea4"/><path d="M49.255 120.858l-6.735-.021c-3.096-12.777-5.331-18.775-5.313-25.981l11.026.491s1.302 2.461 1.601 6.215c.404 5.083-.385 11.777-.409 12.526-.126 3.895-.17 6.77-.17 6.77z" fill="#fbc11b"/><path fill="#e0e0e0" d="M49.425 114.088h-8.604l1.699 6.752 6.735.018z"/></g><g><path d="M78.711 127.829l12.981-.031-.005-2.216a4.767 4.767 0 0 0-4.777-4.757l-8.213.021.014 6.983z"/><path d="M82.283 99.96l7.745-8.382s-3.317-5.926-7.532-10.39c-4.195-4.442-9.887-7.645-9.887-7.645l-8.558 9.187s3.326 6.127 7.569 9.771c4.244 3.643 10.663 7.459 10.663 7.459z" fill="#fbc11b"/><circle cx="85.203" cy="94.406" r="5.562" fill="#fbc11b"/><path d="M64.541 73.987a7.248 7.248 0 0 1 10.249.072l.004-.004c3.924 3.11 7.12 6.077 9.793 9.538L74.152 94.52s-2.455-1.751-4.364-3.437c-1.11-.98-2.855-2.587-3.5-3.167-.833-.75-1.87-.724-2.333-.724l-1.173-10.354a7.207 7.207 0 0 1 1.759-2.851z" fill="#00bea4"/><path d="M78.7 120.858l6.735-.021c3.096-12.777 5.331-18.775 5.313-25.981l-11.026.491s-1.302 2.461-1.601 6.215c-.404 5.083.385 11.777.409 12.526.126 3.895.17 6.77.17 6.77z" fill="#fbc11b"/><path fill="#e0e0e0" d="M78.53 114.088h8.605l-1.7 6.752-6.735.018z"/></g></g><g><g><path d="M59.644 45.239c-7.006 0-10.956 3.468-10.956 7.831-.055 4.228 1.081 6.748 2.29 9.745-.036 4.375.266 9.704 1.995 14.605h11.011V45.239h-4.34z" fill="#00bea4"/><path d="M51.022 66.036a48.99 48.99 0 0 0 .427 4.947h12.528v-4.947H51.022z" opacity=".7" fill="#00796b"/></g><g><path d="M68.322 45.239c7.006 0 11.243 3.393 11.243 7.756.055 4.228-1.368 6.823-2.576 9.82.036 4.375-.266 9.704-1.995 14.605H63.983V45.239h4.339z" fill="#00bea4"/><path d="M76.944 66.036a48.99 48.99 0 0 1-.427 4.947H63.99v-4.947h12.954z" opacity=".7" fill="#00796b"/></g></g><g><g><g><circle cx="40.296" cy="33.587" r="3.709" fill="#fbc11b"/><path id="XMLID_77_" d="M35.544 19.269l-5.162 2.497c1.057 5.383 3.343 10.203 6.764 13.78l6.439-3.672c-1.726-5.652-4.179-8.816-8.041-12.605z" fill="#fbc11b"/><path d="M37.146 35.545l6.439-3.672c6.211 2.959 9.35 7.54 11.972 15.838l-6.549 4.499c-5.628-4.466-9.73-9.635-11.862-16.665z" fill="#fbc11b"/><path d="M32.383 12.061h.209a4.234 4.234 0 0 1 4.232 4.235l-.001 2.424a4.234 4.234 0 0 1-4.235 4.232h-.209a4.234 4.234 0 0 1-4.232-4.235l.001-2.424a4.232 4.232 0 0 1 4.235-4.232z" fill="#fbc11b"/><path d="M48.844 51.593a3.972 3.972 0 0 1 1.671-5.362c2.985-1.567 4.513.053 5.362 1.671a3.972 3.972 0 0 1-7.033 3.691z" fill="#fbc11b"/><path d="M55.157 53.129c2.135-1.566 2.985-4.077 1.802-6.325-1.563-2.961-2.922-4.624-5.091-7.611l-9.219 6.856c1.916 2.464 4.905 5.781 7.102 7.034 1.968 1.331 3.271 1.612 5.406.046z" fill="#00bea4"/></g></g><g><g><circle cx="87.704" cy="33.587" r="3.709" fill="#fbc11b"/><path id="XMLID_26_" d="M92.456 19.269l5.162 2.497c-1.057 5.383-3.343 10.203-6.764 13.78l-6.439-3.672c1.726-5.652 4.179-8.816 8.041-12.605z" fill="#fbc11b"/><path d="M90.854 35.545l-6.439-3.672c-6.211 2.959-9.35 7.54-11.972 15.838l6.549 4.499c5.628-4.466 9.73-9.635 11.862-16.665z" fill="#fbc11b"/><path d="M95.617 12.061h-.209a4.234 4.234 0 0 0-4.232 4.235l.001 2.424a4.234 4.234 0 0 0 4.235 4.232h.209a4.234 4.234 0 0 0 4.232-4.235l-.001-2.424a4.232 4.232 0 0 0-4.235-4.232z" fill="#fbc11b"/><path d="M79.156 51.593a3.972 3.972 0 0 0-1.671-5.362c-2.985-1.567-4.513.053-5.362 1.671a3.972 3.972 0 0 0 7.033 3.691z" fill="#fbc11b"/><path d="M72.843 53.129c-2.135-1.566-2.985-4.077-1.802-6.325 1.563-2.961 2.922-4.624 5.091-7.611l9.219 6.856c-1.916 2.464-4.905 5.781-7.102 7.034-1.968 1.331-3.271 1.612-5.406.046z" fill="#00bea4"/></g></g></g><g><g><path id="XMLID_75_" d="M63.978 49.428c-2.372 0-4.296-1.631-4.296-3.644V42.67h8.591v3.115c0 2.012-1.923 3.643-4.295 3.643z" fill="#e59600"/></g><g><g id="XMLID_72_" fill="#e59600"><path id="XMLID_74_" d="M73.286 33.191s1.707.296 1.707 2.133c0 1.621-1.245 2.261-2.49 2.261V33.19h.783z"/><path id="XMLID_73_" d="M54.67 33.191s-1.707.296-1.707 2.133c0 1.621 1.245 2.261 2.49 2.261V33.19h-.783z"/></g><path id="XMLID_71_" d="M63.978 21.153c-7.355 0-9.28 5.702-9.28 13.712 0 8.306 5.339 10.454 9.28 10.454 3.884 0 9.28-2.086 9.28-10.454 0-8.01-1.925-13.712-9.28-13.712z" fill="#fbc11b"/><path id="XMLID_70_" d="M60.922 35.609c0 .827-.553 1.498-1.239 1.498-.685 0-1.242-.67-1.242-1.498 0-.829.557-1.5 1.242-1.5.685 0 1.239.671 1.239 1.5" fill="#c07b47"/><path id="XMLID_69_" d="M67.032 35.609c0 .827.554 1.498 1.242 1.498.684 0 1.241-.67 1.241-1.498 0-.829-.557-1.5-1.241-1.5-.688 0-1.242.671-1.242 1.5" fill="#c07b47"/><path id="XMLID_68_" d="M66.663 40.669h-2.686-2.686c-.308 0-.44.207-.237.517.285.434 1.343 1.269 2.922 1.269 1.579 0 2.637-.835 2.922-1.269.206-.31.073-.517-.235-.517z" fill="#c07b47"/><path id="XMLID_67_" d="M65.275 38.386c-.457.129-.931.193-1.297.193s-.84-.063-1.297-.193c-.195-.055-.272.13-.202.253.145.255.729.77 1.5.77s1.355-.515 1.5-.77c.068-.123-.008-.308-.204-.253z" fill="#e59600"/><path id="XMLID_66_" d="M64.199 20.107s-.143-.004-.206-.004c-.062-.001-.206.004-.206.004-7.938.153-10.33 4.928-10.33 8.24 0 3.218.003 5.582.003 5.582s.126-.131.359-.313c.249-.193.524-.302.524-.302l.401 2.688 2.645-5.526a.09.09 0 0 1 .09-.051l1.567.174a43.95 43.95 0 0 0 4.741.264v.003l.206-.002.206.002v-.003a44.208 44.208 0 0 0 4.741-.264l1.567-.174a.088.088 0 0 1 .09.051l2.645 5.526.401-2.688s.275.109.524.302c.233.181.359.313.359.313s.003-2.364.003-5.582c.001-3.312-2.392-8.087-10.33-8.24z" fill="#6d4c41"/></g></g></g></g><g><g><g fill="#7d7d7d"><g/><g/></g><g fill="#2f302f"/><g fill="#2f302f"/></g><g><g><g><g/></g></g><g><g><g/></g></g><g><g/><g><g id="XMLID_8_" fill="#e59600"/></g></g></g></g></g></svg>