<svg id="Layer_1" xmlns="http://www.w3.org/2000/svg" viewBox="0 0 128 128"><g><path d="M104.583 48.833c1.436 1.013 2.806-.72 1.504-1.9 0 0-5.187-4.701-.687-11.085l19.559-24.667a2.994 2.994 0 0 0-.626-4.345l-3.191-2.249a2.994 2.994 0 0 0-4.303.87l-16.661 26.71c-4.501 6.384-10.671 3.078-10.671 3.078-1.549-.83-2.902.915-1.465 1.927l16.541 11.661z" fill="#196ca2"/><path d="M53.435 124.978l54.443-75.511-21.765-15.344-52.7 76.74s6.557 12.877 20.022 14.115z" fill="#fac21c"/><path d="M101.148 45.976L70.805 80.544c-.732.834-2.045-.091-1.506-1.061l22.363-40.195a.926.926 0 0 1 1.343-.307l7.981 5.627c.45.317.526.955.162 1.368z" fill="#f7932a"/><g><path d="M124.96 11.181a2.994 2.994 0 0 0-.626-4.345l-3.191-2.249a2.994 2.994 0 0 0-4.303.87l-1.604 2.571 7.841 5.528 1.883-2.375z" fill="#fac21c"/></g><g fill="#78a3ad"><path d="M120.853 16.36l-9.854-1.54-1.838 2.946 9.411 1.472z"/><path d="M115.739 22.81l-8.859-1.386-1.839 2.947 8.417 1.316z"/><path d="M110.625 29.259l-7.865-1.23-1.839 2.947 7.423 1.161z"/></g></g><g><circle cx="16.104" cy="110.624" r="14.354" fill="#ed6c30"/><circle cx="10.273" cy="107.035" r="3.813" fill="#f48263"/><path d="M5.197 119.941c5.489-1.832 17.192-6.892 22.418-17.867a14.417 14.417 0 0 0-1.981-2.164c-4.713 11.19-17.256 16.174-22.058 17.71a14.376 14.376 0 0 0 1.621 2.321z" fill="#fff"/><path d="M6.89 121.624a14.355 14.355 0 0 0 3.046 1.946c5.587-1.723 15.233-5.96 20.281-15.508a14.222 14.222 0 0 0-1.241-3.76c-4.768 12.163-17.543 16.237-22.086 17.322z" fill="#fff"/></g></svg>