<svg id="图层_1" xmlns="http://www.w3.org/2000/svg" xmlns:xlink="http://www.w3.org/1999/xlink" viewBox="0 0 128 128"><path d="M127.383 81.037c-.618-14.248-1.999-35.787-1.999-35.787-.589-2.956-33.971-8.358-33.971-8.358h-55.25s-32.769 4.962-33.36 7.917c0 0-2.318 27.229-2.787 40.821-.002.106-.016.21-.016.316 0 .037.005.073.005.11-.004.251.009.495.035.735.836 18.634 29.156 33.605 63.98 33.605 35.36 0 63.543-14.871 63.543-33.896-.001-1.668.066-3.313-.18-5.463z" fill="#79a5af"/><path d="M125.384 46.971c0 17.382-27.472 31.467-61.364 31.467-33.891 0-61.364-14.085-61.364-31.467C2.656 29.59 30.129 15.5 64.02 15.5c33.892 0 61.364 14.09 61.364 31.471z" fill="#ec6c2f"/><path d="M125.964 54.647c0 17.382-27.612 31.467-61.676 31.467-34.063 0-62.283-14.087-62.283-31.469l.798-9.836 122.581 2.162.58 7.676z" fill="#4b6566"/><path d="M125.384 51.495c0 17.382-27.472 31.467-61.364 31.467-33.891 0-61.364-14.085-61.364-31.467 0-17.381 27.473-31.471 61.364-31.471 33.892 0 61.364 14.09 61.364 31.471z" fill="#ec6c2f"/><path d="M110.419 54.652c0 13.135-20.777 23.787-46.4 23.787-25.619 0-46.395-10.652-46.395-23.787 0-13.142 20.776-23.8 46.395-23.8 25.623-.001 46.4 10.658 46.4 23.8z" fill="#ae3d09"/><path d="M102.833 58.537c0 10.991-17.38 19.901-38.814 19.901-21.431 0-38.81-8.91-38.81-19.901 0-10.993 17.379-19.908 38.81-19.908 21.434 0 38.814 8.916 38.814 19.908z" fill="#fff"/><path d="M98.079 60.978c0 9.643-15.251 17.46-34.059 17.46-18.81 0-34.055-7.817-34.055-17.46 0-9.651 15.245-17.471 34.055-17.471 18.808 0 34.059 7.82 34.059 17.471z" fill="#bdcf46"/><path d="M53.106 39.429c-1.72.279-2.748.515-4.303.789-.799-1.283-.911-5.869-.911-10.101 0-4.419.256-7.983 5.214-7.983v17.295z" fill="#ae3d09"/><path d="M74.935 39.429c1.719.279 2.749.515 4.304.789.798-1.283.91-5.869.91-10.101 0-4.419-.257-7.983-5.215-7.983v17.295z" fill="#ae3d09"/><path fill="#5c8587" d="M53.106 22.134h21.828v13.772H53.106z"/><linearGradient id="SVGID_1_" gradientUnits="userSpaceOnUse" x1="87.938" y1="50.931" x2="118.321" y2="13.012"><stop offset="0" stop-color="#fff"/><stop offset="1" stop-color="#fff" stop-opacity="0"/></linearGradient><path opacity=".8" fill="url(#SVGID_1_)" d="M81.723 42.35L96 0h32.041v41.75L100.667 58z"/><linearGradient id="SVGID_2_" gradientUnits="userSpaceOnUse" x1="169.66" y1="50.931" x2="200.044" y2="13.012" gradientTransform="matrix(-1 0 0 1 209.764 0)"><stop offset="0" stop-color="#fff"/><stop offset="1" stop-color="#fff" stop-opacity="0"/></linearGradient><path opacity=".8" fill="url(#SVGID_2_)" d="M46.318 42.35L32.042 0H0v41.75L27.375 58z"/><path d="M51.006 48.66l-3.555 22.698a2 2 0 0 0 1.976 2.31h29.145a2 2 0 0 0 1.975-2.318l-3.655-22.698a2 2 0 0 0-1.975-1.682H52.982a1.998 1.998 0 0 0-1.976 1.69z" fill="none" stroke="#fff" stroke-miterlimit="10"/><path fill="none" stroke="#fff" stroke-miterlimit="10" d="M49.18 60.318h29.591"/><path fill="#79a5af" d="M62 22.134h7.125l-14.75 13.772h-1.269v-5.692z"/><path fill="#79a5af" d="M74.935 27.667L66.5 35.906h4.217l4.218-4.119z"/><path fill="#ec6c2f" d="M2.803 44.809l-.447 5.513.447 3.344 2.351-8.857-2.194-1.302z"/><path fill="#ec6c2f" d="M125.384 45.25l.285 5.493-.766 4.71-.986-9.37z"/><path d="M39.196 90.848l-3.599 25.971s8.943 3.577 28.423 3.577l.268-34.283-25.092 4.735z" fill="#4b6566"/><g><defs><path id="SVGID_3_" d="M127.383 81.037c-.618-14.248-1.999-35.787-1.999-35.787-.589-2.956-33.971-8.358-33.971-8.358h-55.25s-32.769 4.962-33.36 7.917c0 0-2.318 27.229-2.787 40.821-.002.106-.016.21-.016.316 0 .037.005.073.005.11-.004.251.009.495.035.735.836 18.634 29.156 33.605 63.98 33.605 35.36 0 63.543-15.257 63.543-34.283-.001-1.667-.063-3.151-.18-5.076z"/></defs><clipPath id="SVGID_4_"><use xlink:href="#SVGID_3_" overflow="visible"/></clipPath><g clip-path="url(#SVGID_4_)"><g><path d="M66.5 97.242c-17.097 0-40.659-2.734-55.818-15.762C1.558 73.64-.155 65.89-.224 65.563l.979-.206c.065.31 7.232 30.885 65.745 30.885 15.188 0 36.217-2.625 50.154-15.13 8.318-7.463 10.181-15.026 10.199-15.102l.974.229c-.073.31-7.882 31.003-61.327 31.003z" fill="#4b6566"/></g><g><path d="M66.5 110.713c-17.094 0-40.653-2.637-55.811-15.196C1.561 87.953-.154 80.472-.223 80.157l.977-.214c.066.298 7.235 29.77 65.746 29.77 52.663 0 60.282-29.48 60.354-29.777l.412-1.497.56 1.728c-.072.305-7.883 30.546-61.326 30.546z" fill="#4b6566"/></g></g></g><path d="M88.949 90.848l3.467 25.971s-8.943 3.577-28.423 3.577l-.268-34.283 25.224 4.735z" fill="#4b6566"/><g fill="none" stroke="#79a5af" stroke-miterlimit="10"><path d="M48.697 90.138l-2.49 28.944"/><path d="M58.625 89l-1.874 31.22"/><path d="M79.303 90.138l2.49 28.944"/><path d="M69.28 89l1.873 31.22"/></g><path fill="#4b6566" d="M34.735 87.871l4.461 2.977h49.753l4.484-3.045-29.145-3.632z"/><path d="M64.263 77.688h-.525c-14.176.085-23.954 5.943-29.031 8.352-1.005.477-.616 1.987.493 1.904 7.551-.565 22.429-1.618 28.526-1.618 6.134 0 21.426 1.063 29.096 1.627 1.108.081 1.493-1.427.489-1.904-5.072-2.411-14.857-8.276-29.048-8.361z" fill="#ef7748"/><path fill="#79a5af" d="M69.28 96.742l-11.592 9.425L56.751 117l13.601-10.129z"/><path d="M70.717 112.956l-9.602 7.44s5.067.028 7.703-.076l2.335-2.071-.436-5.293z" fill="#79a5af"/><path fill="#79a5af" d="M69.28 92.333l-11.354 8.319.331-5.52 6.993-4.284h4.03z"/><path fill="#79a5af" d="M40.994 90.848l-3.323 26.637-2.074-.666 3.599-25.971z"/><path fill="#79a5af" d="M88.949 90.848h-2.367l3.76 26.637 2.074-.666z"/></svg>