<svg id="Layer_1" xmlns="http://www.w3.org/2000/svg" viewBox="0 0 128 128"><g id="XMLID_1_"><g id="XMLID_12_"><circle id="XMLID_5_" cx="91.383" cy="108.355" r="11.827" fill="#fbc21a"/></g><g id="XMLID_10_"><path id="XMLID_8_" d="M104.161 71.536c13.888-20.658 16.975-42.335-4.059-58.56C79.068-3.249 58.885 5.241 42.431 23.92 23.553 45.347 32.308 63.517 32.308 63.517l36.124 27.864c-.001.001 19.797 3.854 35.729-19.845z" fill="#e5502e"/><path id="XMLID_7_" d="M68.431 91.382L32.308 63.517s7.352 14.054 1.776 23.649c-4.357 7.497-10.368 13.763-15.636 18.979a2.948 2.948 0 0 0 .275 4.431l7.172 5.532a2.948 2.948 0 0 0 4.356-.859c3.708-6.42 8.855-13.632 15-19.75 7.863-7.829 23.18-4.117 23.18-4.117z" fill="#fdcb80"/><path id="XMLID_216_" d="M33.319 90.303l9.514-11.97a3.438 3.438 0 0 1 4.822-.622l3.944 3.045a3.437 3.437 0 0 1 .65 4.785L43.52 96.452c-.107.165-.317.201-.442.115-.136-.094-.169-.332-.018-.488 1.966-3.11 3.932-6.303 5.898-9.413a2.59 2.59 0 0 0-.603-3.443l-2.27-1.702a2.59 2.59 0 0 0-3.502.312l-8.827 8.756c-.128.183-.358.193-.454.096-.078-.079-.084-.247.017-.382z" fill="#f9ae4b"/></g></g></svg>