<svg id="レイヤー_1" xmlns="http://www.w3.org/2000/svg" xmlns:xlink="http://www.w3.org/1999/xlink" viewBox="0 0 128 128"><path fill="#757f3f" d="M0 47.546h128V128H0z"/><g><path fill="#855c52" d="M33.097 41.526h14.306v24.216H33.097z"/><g><path fill="#fff" d="M51.797 37.949h14.748v14.91H51.797z"/></g><g><defs><path id="SVGID_1_" d="M69.991 30.115L49.053 11.062c-1.011-.921-2.668-.921-3.68 0L24.437 30.115c-1.013.922-1.841 2.795-1.841 4.162v28.976a2.493 2.493 0 0 0 2.486 2.488h9.614V48.67c0-1.042.849-1.892 1.888-1.892h7.578c1.039 0 1.892.851 1.892 1.892v17.071h23.291a2.495 2.495 0 0 0 2.489-2.488V34.277c0-1.367-.83-3.24-1.843-4.162zM57.979 51.429h-2.704a2.307 2.307 0 0 1-2.299-2.3v-2.312h5.003v4.612zm0-6.806h-5.003v-3.097a2.307 2.307 0 0 1 2.299-2.299h2.704v5.396zm7.199 4.507c0 1.264-1.034 2.3-2.3 2.3h-2.704v-4.612h5.004v2.312zm0-4.507h-5.004v-5.396h2.704c1.266 0 2.3 1.035 2.3 2.299v3.097z"/></defs><use xlink:href="#SVGID_1_" overflow="visible" fill="#fcc21b"/><clipPath id="SVGID_2_"><use xlink:href="#SVGID_1_" overflow="visible"/></clipPath><path clip-path="url(#SVGID_2_)" fill="#ed6c30" d="M47.542 16.124l24.697 22.868.577.006.261-8.351L47.542 7.003 21.411 30.647l-.164 7.803 1.602.017z"/></g><circle cx="37.546" cy="56.454" r="1.646" fill="#fff"/></g><g><path fill="#855c52" d="M80.999 49.39h14.895v25.212H80.999z"/><g><path fill="#fff" d="M100.468 45.666h15.355v15.523h-15.355z"/></g><g><defs><path id="SVGID_3_" d="M119.412 37.511L97.613 17.673c-1.053-.959-2.778-.959-3.831 0l-21.8 19.838c-1.055.96-1.916 2.91-1.916 4.333v30.168a2.597 2.597 0 0 0 2.588 2.591h10.009V56.829c0-1.085.884-1.97 1.966-1.97h7.89c1.082 0 1.97.886 1.97 1.97v17.774h24.25a2.6 2.6 0 0 0 2.592-2.591V41.844c0-1.424-.865-3.373-1.919-4.333zm-12.507 22.191h-2.815a2.403 2.403 0 0 1-2.394-2.394V54.9h5.209v4.802zm0-7.086h-5.209v-3.224a2.403 2.403 0 0 1 2.394-2.394h2.815v5.618zm7.496 4.691a2.4 2.4 0 0 1-2.395 2.394h-2.815V54.9h5.21v2.407zm0-4.691h-5.21v-5.618h2.815a2.4 2.4 0 0 1 2.395 2.394v3.224z"/></defs><use xlink:href="#SVGID_3_" overflow="visible" fill="#f9a715"/><clipPath id="SVGID_4_"><use xlink:href="#SVGID_3_" overflow="visible"/></clipPath><path clip-path="url(#SVGID_4_)" fill="#ed6c30" d="M96.039 22.943l25.713 23.81.601.006.272-8.695-26.586-24.617-27.207 24.617-.171 8.124 1.668.018z"/></g><circle cx="85.632" cy="64.933" r="1.714" fill="#fff"/></g><g><path fill="#855c52" d="M18.416 71.019h16.191v27.405H18.416z"/><g><path fill="#fff" d="M39.579 66.971h16.69v16.873h-16.69z"/></g><g><defs><path id="SVGID_5_" d="M60.17 58.106L36.475 36.544c-1.145-1.043-3.02-1.043-4.164 0L8.616 58.106c-1.147 1.043-2.083 3.163-2.083 4.71v32.792a2.822 2.822 0 0 0 2.813 2.816h10.88v-19.32c0-1.179.961-2.141 2.137-2.141h8.576c1.176 0 2.142.963 2.142 2.141v19.32h26.358a2.825 2.825 0 0 0 2.817-2.816V62.816c0-1.547-.94-3.667-2.086-4.71zM46.576 82.227h-3.06a2.612 2.612 0 0 1-2.602-2.603v-2.617h5.662v5.22zm0-7.702h-5.662V71.02a2.611 2.611 0 0 1 2.602-2.602h3.06v6.107zm8.147 5.099a2.61 2.61 0 0 1-2.603 2.603h-3.06v-5.219h5.663v2.616zm0-5.099H49.06v-6.107h3.06a2.61 2.61 0 0 1 2.603 2.602v3.505z"/></defs><use xlink:href="#SVGID_5_" overflow="visible" fill="#f9a715"/><clipPath id="SVGID_6_"><use xlink:href="#SVGID_5_" overflow="visible"/></clipPath><path clip-path="url(#SVGID_6_)" fill="#ed6c30" d="M34.765 42.272l27.949 25.88.653.007.295-9.451L34.765 31.95 5.192 58.708l-.186 8.83 1.813.02z"/></g></g><g><path fill="#855c52" d="M68.471 78.344h16.998v28.771H68.471z"/><g><path fill="#fff" d="M90.688 74.095h17.522v17.714H90.688z"/></g><g><defs><path id="SVGID_7_" d="M112.305 64.788L87.429 42.151c-1.202-1.095-3.17-1.095-4.372 0L58.181 64.788c-1.204 1.095-2.187 3.32-2.187 4.945v34.426a2.963 2.963 0 0 0 2.953 2.956H70.37V86.833a2.25 2.25 0 0 1 2.243-2.248h9.004a2.255 2.255 0 0 1 2.248 2.248v20.282h27.672a2.966 2.966 0 0 0 2.958-2.956V69.733c0-1.625-.987-3.85-2.19-4.945zM98.033 90.111h-3.212c-1.5 0-2.731-1.23-2.731-2.732v-2.747h5.944v5.479zm0-8.086h-5.944v-3.68a2.74 2.74 0 0 1 2.731-2.731h3.212v6.411zm8.554 5.354a2.74 2.74 0 0 1-2.733 2.732h-3.212v-5.48h5.945v2.748zm0-5.354h-5.945v-6.411h3.212a2.74 2.74 0 0 1 2.733 2.731v3.68z"/></defs><use xlink:href="#SVGID_7_" overflow="visible" fill="#fcc21b"/><clipPath id="SVGID_8_"><use xlink:href="#SVGID_7_" overflow="visible"/></clipPath><path clip-path="url(#SVGID_8_)" fill="#ed6c30" d="M85.634 48.164l29.342 27.17.685.007.31-9.921-30.337-28.092L54.587 65.42l-.196 9.27 1.904.021z"/></g></g></svg>