<svg id="图层_1" xmlns="http://www.w3.org/2000/svg" viewBox="0 0 128 128"><circle cx="34.308" cy="28.436" r="17.311" fill="#fcc21a"/><g><path d="M2.95 112.262c0 7.023 5.693 12.717 12.717 12.717h96.667c7.023 0 12.717-5.693 12.717-12.717v-35.34a3.004 3.004 0 0 0-3.004-3.004H5.954a3.004 3.004 0 0 0-3.004 3.004v35.34z" fill="#e3ad50"/><path d="M62.115 78.147c-2.514.002-19.423.408-31.729.277-12.847-.137-23.212-.45-23.212-.45a8.052 8.052 0 0 1-1.679-.175h-.107l-.02-.026c-.532-.127-.97-.309-1.26-.532l-.033-.022c-.902-.622-.857-1.983.009-2.656 1.976-1.535 7.43-5.789 9.255-7.395 1.831-1.614 3.037-2.678 4.022-3.384.93-.668 1.821-1.147 3.146-1.305 1.305-.154 2.21.015 2.811.127.438.082.601.112.994.08.202-.015.261-.032.571-.134l.064-.019c.187-.061.384-.19.581-.313.443-.279 1.498-.981 2.703-1.3 2.451-.649 4.558.518 5.926 1.408.266.173 1.201.873 2.973 2.195l1.437 1.072c1.743-.977 3.042-1.703 3.224-1.804.556-.305 1.62-.504 2.55-.525.925-.019 2.125.273 2.691.628.452.284 10.103 7.494 15.094 11.023l-.011 3.23z" fill="#e3ad50"/><g><path d="M60.147 68.52c.112-.064.25-.064.423.041.333.19.459 1.019.519 1.366.155.939.252 1.881.356 2.829.281 2.594.314 5.677 2.37 7.603 1.258 1.165 2.984 1.504 4.638 1.57.393.015 2.465-.156 3.903-.228.783-.044 1.384-.055 1.4.004.132.457.402.978-.102 1.228a4.33 4.33 0 0 1-1.025.33c-1.123.233-2.415.153-3.461.159-1.873.021-3.783-.209-5.506-.979-3.957-1.777-4.057-6.65-4.015-10.349.006-.678-.244-3.137.5-3.574" fill="#fff"/><path d="M73.383 87.534c-.594.1-1.189.17-1.791.213-1.32.108-2.639.204-3.962.121-2.26-.132-4.616-.129-6.701-1.131-.93-.451-1.75-1.113-2.436-1.886-1.317-1.498-2.163-3.371-2.734-5.261-.668-2.22-.984-4.544-.881-6.859.031-.67.077-1.362.192-2.044.122-.72.307-1.427.612-2.07.201-.43.685-1.005 1.19-1.092.909-.148.09 2.14.026 2.508a20.063 20.063 0 0 0-.18 4.933 18.488 18.488 0 0 0 1.353 5.471c.909 2.162 2.428 4.129 4.651 5.032 2.664 1.085 5.571.882 8.376.809.153-.005 1.258-.065 2.052-.054.445.007.791.033.808.102.081.335.251.741.177 1.08-.251.056-.503.091-.752.128" fill="#fff"/><path d="M80.169 102.538c-.457-.241-.544-.983-.666-1.416-.679-2.469-2.128-11.912-2.128-11.912a436.909 436.909 0 0 1-.827-6.383c-.914-7.35-1.889-14.741-2.528-22.081-.451-5.178-.34-11.357 2.476-15.905.295-.473 1.039-1.617 1.748-1.343l.246.253c.13.384-.066.793-.224 1.134-.57 1.277-.885 2.705-1.204 4.06-1.531 6.41-.579 12.94-.11 19.418.594 8.254 4.018 32.586 4.018 32.586.081.517.226 2.123-.801 1.589" fill="#b0b572"/><path d="M84.95 102.502c-.494-.211-.452-.675-.513-1.125-.605-4.888-.864-9.819-1.343-14.72a352.583 352.583 0 0 1-.642-7.61 654.274 654.274 0 0 1-1.468-27.535 65.678 65.678 0 0 1-.022-2.588c0-1.366.058-2.876.249-4.237.076-.52.124-.828.685-.969.869-.206 1.103.79 1.277 1.427.917 3.407.814 7.223.858 10.726.112 8.92.25 17.855.819 26.769.382 5.915.811 11.849.988 17.778.015.516.113 2.505-.888 2.084" fill="#b0b572"/><path d="M91.738 81.164c-.177 6.22-.145 12.502-1.05 18.67-.065.451-.065 1.197-.483 1.488-.953.66-1.005-.952-.989-1.472 0 0 1.041-24.101.616-32.366-.334-6.483-.267-12.161-2.997-18.754-.537-1.289-.974-2.683-1.705-3.885-.193-.319-.441-.698-.355-1.096l.213-.28c.663-.358 1.547.686 1.899 1.116 3.354 4.166 4.858 10.163 5.047 16.969.201 7.239.009 12.37-.196 19.61" fill="#b0b572"/><path d="M94.508 71.493c.014-.025.02-.068.036-.092.139-.258.542-.46.783-.591.084-.049.179-.098.265-.14 3.049-1.66 7.272-2.947 8.824-6.289.887-1.931.547-4.383.589-6.507.051-2.768-.113-5.504.211-8.266.051-.434.59-4.906 1.639-3.938.545.499.187 1.669.132 2.313a33.876 33.876 0 0 0-.089 3.124c.017 2.02.142 4.035.1 6.053-.026 1.035.023 2.062.023 3.086 0 4.084-1.334 7.157-5.095 9.02-1.867.922-3.512 2.004-5.467 2.775-.246.098-.581.254-.912.355-.29.081-.579.129-.809.028-.144-.058-.217-.201-.257-.363a1.105 1.105 0 0 1 .027-.568" fill="#fff"/><path d="M112.846 57.401c-.172 3.753-.168 7.678-1.849 11.135-.899 1.846-2.327 3.123-3.919 4.363-2.846 2.222-6.181 3.663-9.468 5.082-.472.202-1.573.776-2.306.771-.436 0-.747-.207-.718-.815.015-.387.212-.752.565-.928.079-.039.163-.074.244-.113.377-.181.771-.346 1.148-.537 1.143-.59 2.318-1.121 3.479-1.679 2.753-1.331 5.86-2.845 7.828-5.264l.132-.168c.334-.436.639-.891.912-1.365 1.132-1.991 1.653-4.257 1.866-6.516.303-3.196.435-6.478.184-9.678a24.385 24.385 0 0 0-.461-3.355 9.55 9.55 0 0 0-.22-.75c-.21-.645-.459-1.339-.391-1.924.047-.422.263-.819.739-.677 1.743.511 2.052 4.171 2.206 5.603.244 2.263.131 4.544.029 6.815" fill="#fff"/><path d="M116.582 47.681c-.728-3.563-3.286-6.372-7.461-6.382-3.263-.01-6.281 2.085-7.18 4.77-.972 2.876-.361 7.467-.341 10.435.016 2.073.265 3.732-.522 5.716-.627 1.59-1.879 2.767-3.241 3.737-.707.507-1.419.996-2.134 1.479.441-12.501.62-26.441-12.952-26.343C67.65 41.2 68.747 56.797 69.89 66.06c.378 3.074 1.107 7.652 1.908 12.404-.892.019-1.738.076-2.093.035-.941-.113-1.927-.403-2.603-1.092-.817-.823-.766-1.801-1.088-2.833-.726-2.278-.937-4.715-2.238-6.782-.787-1.251-1.917-2.085-3.336-2.523l-.058-.02c-4.583-1.264-7.973 2.723-8.43 6.96-.354 3.365.412 7.082 1.854 10.114 1.152 2.426 2.62 5.093 4.95 6.562 4.294 2.701 10.309 2.081 15.138 1.484.054.307.11.617.165.909.75 4.138.9 8.981 2.255 10.658 1.463 1.809 4.792 3.828 8.401 3.828 4.187 0 6.775-1.956 8.113-4.557.882-1.719 1.359-6.891 1.597-9.796.192-2.326.417-5.274.618-8.307 2.567-1.08 8.749-3.746 13.136-6.12 5.657-3.063 6.975-8.447 7.572-11.893.595-3.441 1.613-13.602.831-17.41" fill="#757f3f"/><g fill="#dbdd8e"><path d="M94.508 71.493c.014-.025.02-.068.036-.092.139-.258.542-.46.783-.591.084-.049.179-.098.265-.14 3.049-1.66 7.272-2.947 8.824-6.289.887-1.931.547-4.383.589-6.507.051-2.768-.113-5.504.211-8.264.051-.436.59-4.908 1.639-3.94.545.499.187 1.669.132 2.313a33.83 33.83 0 0 0-.089 3.12c.017 2.023.142 4.038.1 6.056-.026 1.035.023 2.062.023 3.086 0 4.084-1.334 7.157-5.095 9.02-1.867.922-3.512 2.006-5.467 2.775-.246.098-.581.254-.912.354-.29.081-.579.13-.809.029-.144-.058-.217-.201-.257-.363-.043-.193-.028-.4.027-.567"/><path d="M112.846 57.401c-.172 3.753-.168 7.678-1.849 11.135-.899 1.846-2.327 3.123-3.919 4.363-2.846 2.222-6.181 3.663-9.468 5.082-.472.202-1.573.776-2.306.771-.436 0-.747-.207-.718-.815.015-.387.212-.752.565-.928.079-.039.163-.074.244-.113.377-.181.771-.346 1.148-.537 1.143-.59 2.318-1.121 3.479-1.679 2.753-1.331 5.86-2.845 7.828-5.264l.132-.168c.334-.436.639-.891.912-1.365 1.132-1.991 1.653-4.257 1.866-6.516.303-3.196.435-6.478.184-9.678a24.385 24.385 0 0 0-.461-3.355 9.55 9.55 0 0 0-.22-.75c-.21-.645-.459-1.339-.391-1.924.047-.422.263-.819.739-.677 1.743.511 2.052 4.171 2.206 5.603.244 2.263.131 4.544.029 6.815"/><path d="M60.147 68.522c.112-.066.25-.066.423.039.333.19.46 1.019.519 1.366.158.937.252 1.881.356 2.829.281 2.594.314 5.677 2.371 7.603 1.256 1.165 2.983 1.506 4.637 1.57.393.015 2.465-.156 3.905-.228.78-.044 1.382-.055 1.398.003.134.459.402.979-.102 1.229a4.411 4.411 0 0 1-1.027.332c-1.122.231-2.414.151-3.463.157-1.87.021-3.779-.209-5.504-.98-3.955-1.775-4.055-6.648-4.014-10.348.008-.678-.243-3.137.501-3.572"/><path d="M80.169 102.538c-.457-.241-.544-.983-.666-1.418-.679-2.467-2.128-11.91-2.128-11.91a435.273 435.273 0 0 1-.827-6.384c-.916-7.348-1.889-14.74-2.528-22.08-.451-5.178-.34-11.357 2.476-15.905.295-.474 1.039-1.617 1.748-1.343l.246.253c.13.384-.066.793-.224 1.134-.57 1.277-.885 2.705-1.204 4.06-1.531 6.41-.579 12.94-.11 19.418.594 8.254 4.02 32.586 4.02 32.586.079.517.224 2.123-.803 1.589"/><path d="M84.95 102.502c-.494-.211-.452-.675-.513-1.125-.605-4.888-.864-9.819-1.343-14.72a352.583 352.583 0 0 1-.642-7.61 654.1 654.1 0 0 1-1.468-27.537 65.578 65.578 0 0 1-.022-2.587c0-1.366.058-2.876.249-4.237.076-.52.124-.828.685-.969.869-.206 1.103.79 1.277 1.427.916 3.407.814 7.223.858 10.726.112 8.92.25 17.856.819 26.769.382 5.915.811 11.849.988 17.778.015.516.113 2.506-.888 2.085"/><path d="M91.738 81.164c-.177 6.22-.145 12.501-1.05 18.671-.065.45-.065 1.196-.483 1.487-.953.66-1.005-.952-.989-1.472 0 0 1.041-24.101.616-32.366-.334-6.483-.267-12.161-2.997-18.756-.537-1.288-.974-2.681-1.705-3.883-.193-.319-.441-.698-.355-1.096l.213-.28c.663-.358 1.547.686 1.899 1.116 3.354 4.166 4.858 10.164 5.047 16.969.201 7.239.009 12.37-.196 19.61"/><path d="M73.381 87.534c-.594.1-1.189.17-1.789.213-1.318.108-2.639.204-3.962.121-2.26-.132-4.616-.129-6.701-1.131-.93-.451-1.75-1.113-2.436-1.886-1.317-1.498-2.163-3.371-2.734-5.261-.668-2.22-.984-4.544-.881-6.859.031-.67.081-1.362.192-2.044.122-.72.309-1.427.612-2.07.201-.43.685-1.005 1.19-1.092.909-.148.09 2.14.026 2.508a19.967 19.967 0 0 0-.179 4.933 18.495 18.495 0 0 0 1.352 5.471c.909 2.162 2.428 4.129 4.651 5.032 2.664 1.085 5.571.882 8.375.811.154-.006 1.262-.067 2.053-.056.445.007.791.034.808.102.081.335.251.741.177 1.08-.251.056-.501.091-.754.128"/></g></g></g></svg>