<svg id="レイヤー_1" xmlns="http://www.w3.org/2000/svg" viewBox="0 0 128 128"><path d="M8.207 34.844a2.064 2.064 0 0 1-.837-3.952l31.719-15.116a2.065 2.065 0 0 1 1.672 3.774L9.042 34.667c-.272.12-.556.177-.835.177z" fill="#78a3ad"/><path d="M108.063 35.154c-.153 0-.308-.017-.463-.053L41.034 19.676a2.063 2.063 0 1 1 .923-4.023l66.566 15.426a2.063 2.063 0 0 1-.46 4.075z" fill="#78a3ad"/><path d="M91.047 70.375v-6.273a2.09 2.09 0 0 1 2.091-2.091h3.136a2.09 2.09 0 0 1 2.091 2.091v6.273a2.09 2.09 0 0 1-2.091 2.091h-3.136a2.09 2.09 0 0 1-2.091-2.091z" fill="#78a3ad"/><path d="M94.706 79.119a1.572 1.572 0 0 1-1.568-1.568V48.053c0-.862.706-1.568 1.568-1.568.862 0 1.568.706 1.568 1.568v29.498c0 .862-.706 1.568-1.568 1.568z" fill="#78a3ad"/><path d="M94.617 89.746a6.744 6.744 0 0 1-6.736-6.736 6.744 6.744 0 0 1 6.736-6.736 1.5 1.5 0 1 1 0 3 3.74 3.74 0 0 0-3.736 3.736 3.74 3.74 0 0 0 3.736 3.736 3.74 3.74 0 0 0 3.736-3.736 1.5 1.5 0 1 1 3 0c.001 3.714-3.022 6.736-6.736 6.736z" fill="#78a3ad"/><g fill="#f79329"><path d="M29.976 117.305a2.064 2.064 0 0 1-2.064-2.064V33.473a2.064 2.064 0 1 1 4.128 0v81.768c0 1.14-.924 2.064-2.064 2.064z"/><path d="M51.513 117.305a2.064 2.064 0 0 1-2.064-2.064V33.473a2.064 2.064 0 1 1 4.128 0v81.768c0 1.14-.924 2.064-2.064 2.064z"/><path d="M29.864 113.95a1.547 1.547 0 0 1-1.094-2.642l21.349-21.349a1.547 1.547 0 1 1 2.189 2.189l-21.349 21.349a1.55 1.55 0 0 1-1.095.453z"/><path d="M51.213 113.95c-.396 0-.792-.151-1.095-.453L28.77 92.147a1.547 1.547 0 1 1 2.189-2.189l21.349 21.349a1.547 1.547 0 0 1-1.095 2.643z"/><path d="M51.213 92.387H30.228a1.548 1.548 0 1 1 0-3.096h20.985a1.548 1.548 0 1 1 0 3.096z"/><path d="M29.864 92.536a1.547 1.547 0 0 1-1.094-2.642l21.349-21.349a1.547 1.547 0 1 1 2.189 2.189l-21.35 21.348a1.54 1.54 0 0 1-1.094.454z"/><path d="M51.213 92.536c-.396 0-.792-.151-1.095-.453L28.77 70.733a1.547 1.547 0 1 1 2.189-2.189l21.349 21.349a1.547 1.547 0 0 1-1.095 2.643z"/><path d="M51.213 71.058H30.228a1.548 1.548 0 1 1 0-3.096h20.985a1.548 1.548 0 1 1 0 3.096z"/><path d="M29.864 71.295a1.547 1.547 0 0 1-1.094-2.643l21.349-21.349a1.547 1.547 0 1 1 2.189 2.189l-21.35 21.349a1.543 1.543 0 0 1-1.094.454z"/><path d="M95.45 50.289a1.54 1.54 0 0 1-1.094-.454l-14.04-14.039a1.547 1.547 0 1 1 2.189-2.189l14.039 14.039a1.547 1.547 0 0 1-1.094 2.643z"/><path d="M65.682 50.289a1.549 1.549 0 0 1-1.095-2.643l14.039-14.039a1.547 1.547 0 1 1 2.189 2.189L66.777 49.835a1.541 1.541 0 0 1-1.095.454z"/><path d="M123.249 50.249a2.057 2.057 0 0 1-1.46-.605L106.745 34.6a2.064 2.064 0 0 1 2.919-2.919l15.044 15.044a2.063 2.063 0 0 1-1.459 3.524z"/><path d="M94.223 50.289a1.549 1.549 0 0 1-1.095-2.643l14.039-14.039a1.547 1.547 0 1 1 2.189 2.189L95.317 49.835a1.54 1.54 0 0 1-1.094.454z"/><path d="M67.131 50.289a1.54 1.54 0 0 1-1.094-.454l-14.04-14.039a1.547 1.547 0 1 1 2.189-2.189l14.039 14.039a1.547 1.547 0 0 1-1.094 2.643z"/><path d="M31.509 49.424c-.396 0-.792-.151-1.094-.453L17.063 35.62a1.547 1.547 0 1 1 2.189-2.189l13.351 13.351a1.547 1.547 0 0 1-1.094 2.642z"/><path d="M33.67 49.122a1.547 1.547 0 0 1-1.094-2.642l15.035-15.035a1.547 1.547 0 1 1 2.189 2.189L34.765 48.669a1.545 1.545 0 0 1-1.095.453z"/><path d="M7.209 48.581a1.546 1.546 0 0 1-1.095-2.642L19.823 32.23a1.547 1.547 0 1 1 2.189 2.189L8.303 48.127a1.54 1.54 0 0 1-1.094.454z"/><path d="M51.213 71.295c-.396 0-.792-.151-1.095-.454L28.77 49.492a1.547 1.547 0 1 1 2.189-2.189l21.349 21.349a1.547 1.547 0 0 1-1.095 2.643z"/><path d="M123.236 50.248H7.772a2.064 2.064 0 1 1 0-4.128h115.464a2.064 2.064 0 1 1 0 4.128z"/><path d="M108.061 35.154L7.792 35.152a2.064 2.064 0 1 1 0-4.128l100.269.002a2.064 2.064 0 1 1 0 4.128z"/><path d="M56.771 119.167H24.219a1.938 1.938 0 0 1-1.938-1.938v-3.255c0-1.07.868-1.938 1.938-1.938H56.77c1.07 0 1.938.868 1.938 1.938v3.255c0 1.07-.867 1.938-1.937 1.938z"/><path d="M50.516 35.194c-.71 0-1.401-.367-1.785-1.025l-8.022-13.756-8.02 13.718a2.063 2.063 0 1 1-3.563-2.083l9.018-15.426a2.984 2.984 0 0 1 2.567-1.473h.001c1.052 0 2.036.565 2.567 1.474l9.02 15.466a2.064 2.064 0 0 1-1.783 3.105z"/><path d="M7.744 50.242a2.064 2.064 0 0 1-2.064-2.064v-15.09a2.064 2.064 0 1 1 4.128 0v15.089a2.064 2.064 0 0 1-2.064 2.065z"/></g><path d="M117.854 96.965H71.595a2.064 2.064 0 1 1 0-4.128h46.259a2.064 2.064 0 1 1 0 4.128z" fill="#ed6c30"/><path d="M117.854 113.864H71.595a2.064 2.064 0 1 1 0-4.128h46.259a2.064 2.064 0 1 1 0 4.128z" fill="#ed6c30"/><path d="M77.4 119.282a2.58 2.58 0 0 1-2.58-2.58V89.096a2.58 2.58 0 1 1 5.16 0v27.606a2.58 2.58 0 0 1-2.58 2.58z" fill="#ed6c30"/><path d="M110.423 119.282a2.58 2.58 0 0 1-2.58-2.58V89.096a2.58 2.58 0 1 1 5.16 0v27.606a2.58 2.58 0 0 1-2.58 2.58z" fill="#ed6c30"/></svg>