<svg id="图层_1" xmlns="http://www.w3.org/2000/svg" viewBox="0 0 128 128"><path d="M2.503 72.927v-6.22s1.853-4.948 11.551-4.948c7.734 0 7.6 2.942 17.251 2.942 8.66 0 7.474-2.942 15.509-2.942 9.463 0 10.943 3.831 17.451 3.831s10.018-3.831 16.982-3.831c6.964 0 11.383 4.238 17.888 4.238 6.619 0 8.001-4.204 15.446-4.204 6.607 0 10.47 3.492 10.47 6.142v3.738L2.503 72.927z" fill="#006ca2"/><path d="M2.503 112.524c0 6.879 5.576 12.455 12.455 12.455h97.637c6.879 0 12.455-5.576 12.455-12.455v-43.94H2.503v43.94z" fill="#006ca2"/><path d="M17.781 93.257c2.032-16.99 26.85-21.344 31.01-21.855 14.784-1.821 46.626-.036 55.154 19.172 2.43 5.468-1.572 10.414-7.826 13.156-15.599 6.845-76.479 4.399-78.338-10.473z" fill="#efc77f"/><path d="M51.785 38.447l.308.939c.027.111-.098.248-.253.562-2.472 5.005-3.74 8.817-4.42 12.676a27.226 27.226 0 0 0-.39 3.948c-.033 1.231-.128 2.377-.04 3.615l.273 3.866c.194 2.751.836 5.484 1.398 8.139.197.927.54 1.922.832 2.823.121.376.16.781.277 1.156.015.06.039.119.058.178.692 1.775.633 3.387.278 3.824-.603.741-1.482 1.3-2.285 1.581-1.832.644-3.952.803-5.805.137-1.726-.619-1.448-2.142-1.85-3.738a17.873 17.873 0 0 1-.477-2.995c-.164-2.328-.407-4.672-.363-6.989a74.46 74.46 0 0 1 .694-9.032c.262-1.866.674-3.542 1.045-5.412.682-3.437 1.74-6.133 3.279-9.481 1.999-4.351 4.367-6.859 4.567-6.792l2.874.995z" fill="#855c52"/><path d="M23.368 47.947c-.313-3.62.321-7.701 2.906-10.427 1.217-1.285 3.107-2.399 4.694-3.146 4.234-1.994 9.581-2.004 14.405-.958-1.215-.768-2.455-1.511-3.739-2.124a32.378 32.378 0 0 0-4.073-1.645c-.364-.122-.622-.131-.646-.561-.019-.225.064-.448.117-.682.17-.724.563-1.295.865-1.98.325-.728.907-1.58.683-2.391-.364-.064-1.05.574-1.357.763a27.29 27.29 0 0 0-1.643 1.109c-.458.327-.915.65-1.358.998-.251.2-.566.627-.873.731-.506.18-1.151-.286-1.621-.432-.342-.107-.458-.062-.383-.453.123-.665.335-1.238.489-1.885.155-.675.286-1.406.088-2.086-.505-.09-1.435.96-1.772 1.26-.339.293-.711.625-1.006.975-.252.294-.35.777-.782.806-.232.019-.47-.156-.691-.205-.381-.082-.613-.235-.974-.369a37.668 37.668 0 0 0-2.185-.719c-.86-.255-.846-.427-.419-1.214.239-.439.589-.825.902-1.212.852-1.037 1.687-1.748 2.792-2.482.404-.268.891-.374 1.281-.661.365-.26.72-.399 1.158-.546.94-.311 1.9-.557 2.879-.747 6.218-1.204 12.649 2.334 15.933 7.662-.164-1.536-.466-3.071-.709-4.597-.082-.515-.12-.987-.293-1.479-.122-.347-.506-1.605-.21-1.836.416-.325 4.294-.889 3.965-1.361-.318-.455-1.27-.461-1.752-.537-.604-.097-1.203-.133-1.796-.274-.435-.099-1.017.026-1.405-.216-.298-.19-.345-.636-.464-.935-.167-.427-2.183-5.243-1.777-5.42.232-.104.716.001.977-.007.386-.008.791.069 1.177.119.544.068 1.112.127 1.644.27 1.185.313 2.353.71 3.473 1.217.554.245 1.094.521 1.612.825 2.44 1.428 4.409 3.471 5.398 6.209.897 2.477.404 5.158-.511 7.578a31.014 31.014 0 0 1 3.345-2.667c3.96-2.69 9.444-2.973 13.864-1.314 1.526.578 3.114 1.417 4.431 2.378 1.25.916 3.153 2.982 3.7 4.463.109.306.208.62.309.929-.024.005-.046.012-.068.018-.536.126-6.138 1.774-6.327 1.177-.145-.461-.627-.854-.893-1.249-.784-1.156-2.978-3.292-4.618-2.65-.011.377.258.602.448.91.304.498.598.997.905 1.494.388.638.785 1.181.808 1.947-.683.198-1.462.246-2.168.359-.614.098-1.215.262-1.842.281-.016.001-.71-1.374-.819-1.557-.345-.564-.816-.988-1.322-1.406-.269-.221-.955-.799-1.328-.598-.079.042.679 2.808.734 3.013.123.423.322.815.338 1.26-1.314.587-2.758.755-4.139 1.119-.605.16-1.202.367-1.798.586.037-.006.074-.007.112-.012 1.9-.15 3.824-.132 5.717.133 3.759.515 7.554 1.763 10.483 4.187 2.831 2.342 5.043 7.209 5.296 10.828.091 1.365.151 1.713.114 3.086-.028.874-.019 1.917-.379 2.737-.137.323-.607 1.659-1.122 1.381-.37-.201-.627-.686-.927-.984-.797-.798-1.62-1.57-2.409-2.374-.355-.361-1.549-1.183-1.432-1.741.137-.64.089-1.347.061-1.993-.04-.936-.134-1.879-.357-2.788-.096-.393-.214-.79-.409-1.146-.085-.155-.496-.758-.713-.649-.103.051-.038.535-.033.621.012.372.041.743.067 1.112.034.443.105.868.081 1.313-.028.535-.126 1.063-.198 1.587-.041.294-.092.708-.305.931-.247.259-.596-.056-.813-.212a45.012 45.012 0 0 1-1.687-1.284c-.233-.189-.425-.439-.652-.64-.068-.061-.209-.107-.26-.18-.095-.138-.024-.495-.015-.663.017-.303.083-.602.087-.906.011-.645-.135-1.269-.301-1.888-.099-.375-.178-1.396-.57-1.593-.303-.15-.169.284-.144.442.127.796.072 1.593-.062 2.388-.058.333-.09.741-.276 1.034-.256.404-.634.021-.918-.169-.897-.595-1.794-1.195-2.696-1.779-.193-.125-.385-.25-.579-.371-.411-.245-.825-.474-1.24-.71 1.003 1.09 1.847 2.314 2.445 3.66.722 1.611 1.329 3.765 1.336 5.541.007 1.613-.283 3.483-.955 4.966-.525 1.161-1.509 2.49-2.564 3.233-.699.494-1.788-1.647-2.014-2.037-.347-.609-.629-1.263-1.006-1.853-.296-.471-1.045-1.291-.802-1.888.103-.263.256-.504.355-.789.555-1.584 1.414-3.051.928-4.805-.199.078-.347.455-.433.656-.195.483-.345.995-.58 1.458-.233.457-.359.971-.667 1.402-.203.286-.352.646-.654.852-.398.275-.569-.236-.701-.524-.23-.502-.604-.9-.891-1.37-.268-.434-.608-.833-.886-1.27-.256-.402-.737-.871-.725-1.38.005-.284.226-.546.314-.824.115-.392.227-.791.319-1.189.067-.311.119-.637.153-.954.019-.166-.035-.485.036-.601-.134.311-.551.62-.763.892-.191.248-.831 1.313-1.233 1.148-.56-.231-.821-.916-1.13-1.388-.419-.649-.911-1.227-1.303-1.884-.492-.84-1.16-1.46-1.81-2.164-.448-.489-.97-.887-1.406-1.375-.246-.278-.815-.718-.994-1.072-2.294.959-4.683 1.802-6.895 2.935-.887.454-1.741.98-2.614 1.467-.63.354-1.335.535-1.986.86-.37.186-.758.579-1.096.154-.242-.309-.36-.725-.602-1.061-.311-.435-.51-.89-.715-1.381-.156-.367-.242-.815-.452-1.147-.142-.213-.369-.732-.591-.858-.469-.259-.442.472-.49.827-.152 1.196.138 2.496.356 3.671.1.54.386 1.048.41 1.596-.246.036-.47.259-.688.371-.357.189-.753.335-1.128.494-.226.093-.645.381-.871.39-.303.011-.313-.252-.506-.466-.497-.548-.889-1.207-1.253-1.867-.46-.825-.676-1.789-1.272-2.541-.021-.026-.225.782-.235.858-.091.551-.14.981-.128 1.531.008.273-.033.556-.031.834.003.453.079.899.152 1.36.121.76.334 1.564.362 2.328-.549.167-.994.682-1.495.944-.38.201-3.562 1.999-3.546 2.1-.041-.314-.246-.618-.322-.929-.103-.405-.21-.791-.361-1.184-.333-.894-.372-1.913-.452-2.853" fill="#757f3f"/><path d="M13.75 105.25c-1.835-1.678-.25-12.34 15.347-4.429 8.297 4.208 19.195-5.122 26.676-3.824 7.481 1.298 5.653 5.255 12.323 5.537 6.67.282 12.403-7.592 18.516-4.385 6.113 3.207 11.632 3.504 13.565.627 4.527-6.74 7.979-5.93 12.809-5.728 4.83.202 2.701 5.364 2.701 5.364s-7.384 18.653-49.611 13.936c-42.227-4.718-52.326-7.098-52.326-7.098z" fill="#006ca2"/></svg>