<svg id="レイヤー_1" xmlns="http://www.w3.org/2000/svg" viewBox="0 0 128 128"><g><path d="M0 71.049V23.54c0-1.501 1.458-2.694 2.958-2.694h16.121c1.5 0 2.921 1.193 2.921 2.694v47.509H0z" fill="#78a3ad"/><path fill="#fff" d="M4.002 35.167h5.055v6.319H4.002z"/><path fill="#fff" d="M12.848 35.167h5.055v6.319h-5.055z"/><path fill="#fff" d="M4.002 26.229h5.055v6.319H4.002z"/><path fill="#fff" d="M12.848 49.03h5.055v6.319h-5.055z"/></g><g fill="#fff"><path d="M110.002 41.493h5.055v6.319h-5.055z"/><path d="M118.848 41.493h5.055v6.319h-5.055z"/><path d="M118.848 57.981h5.055V64.3h-5.055z"/><path d="M110.002 50.972h5.055v6.319h-5.055z"/></g><g><path d="M73.333 127.875V11.331c0-2.228 2.165-4 4.393-4h23.937c2.228 0 4.337 1.772 4.337 4v116.544H73.333z" fill="#78a3ad"/><path d="M112.083 127.875V35.333c0-2.228 2.165-4 4.393-4H128v96.542h-15.917z" fill="#78a3ad"/><path fill="#fff" d="M78 17.331h5.333v6.667H78z"/><path fill="#fff" d="M87.333 17.331h5.333v6.667h-5.333z"/><path fill="#fff" d="M78 27.331h5.333v6.667H78z"/><path fill="#fff" d="M96.667 27.331H102v6.667h-5.333z"/><path fill="#fff" d="M96.667 41.333H102V48h-5.333z"/><path fill="#fff" d="M96.667 51.333H102V58h-5.333z"/></g><g><path d="M28.167 127.984V19.818c0-2.461 2.358-4.419 4.785-4.419h26.074c2.427 0 4.724 1.957 4.724 4.419v108.167H28.167z" fill="#78a3ad"/><path fill="#fff" d="M43.417 20.583h5.81v7.365h-5.81z"/><path fill="#fff" d="M53.583 20.583h5.81v7.365h-5.81z"/><path fill="#fff" d="M33.25 31.63h5.81v7.365h-5.81z"/><path fill="#fff" d="M53.583 31.63h5.81v7.365h-5.81z"/><path fill="#fff" d="M33.25 53.684h5.81v7.365h-5.81z"/><path fill="#fff" d="M43.417 42.677h5.81v7.365h-5.81z"/><path fill="#fff" d="M53.583 64.731h5.81v7.365h-5.81z"/><path d="M51.741 18.345H41.628a4.02 4.02 0 0 1-4.021-4.021v-.796c0-2.22 1.8-4.021 4.021-4.021h10.113a4.02 4.02 0 0 1 4.021 4.021v.796a4.02 4.02 0 0 1-4.021 4.021z" fill="#78a3ad"/></g><path fill="#78a3ad" d="M63.312 46H76v14H63.312z"/><g><path d="M49 127.984v-66.44c0-1.913 1.859-3.434 3.771-3.434h21.505c1.913 0 3.724 1.521 3.724 3.434v66.441H49z" fill="#006ca2"/><path fill="#fff" d="M54 63.109h7v9h-7z"/><path fill="#fff" d="M66 63.109h7v9h-7z"/><path fill="#fff" d="M66 76.109h7v9h-7z"/><path fill="#fff" d="M54 89.109h7v9h-7z"/><path fill="#fff" d="M66 89.109h7v9h-7z"/><path fill="#fff" d="M54 102.109h7v9h-7z"/><path d="M96 127.984H75V90.1h16.991A4.01 4.01 0 0 1 96 94.109v33.875z" fill="#006ca2"/></g><g><path d="M88 127.979V45.104c0-2.683 2.606-4.816 5.289-4.816l29.489-.184c2.683 0 5.222 2.133 5.222 4.816v83.059H88z" fill="#006ca2"/><path fill="#fff" d="M106 52.104h6v7h-6z"/><path fill="#fff" d="M95 52.104h6v7h-6z"/><path fill="#fff" d="M117 63.104h6v7h-6z"/><path fill="#fff" d="M106 63.104h6v7h-6z"/><path fill="#fff" d="M106 74.104h6v7h-6z"/><path fill="#fff" d="M95 74.104h6v7h-6z"/><path fill="#fff" d="M117 85.104h6v7h-6z"/><path fill="#fff" d="M106 85.104h6v7h-6z"/><path fill="#fff" d="M95 85.104h6v7h-6z"/><path fill="#fff" d="M106 107.104h6v7h-6z"/><path fill="#fff" d="M95 96.104h6v7h-6z"/></g><g><path d="M27.111 47.5H14.279c-1.669 0-3.023-.744-3.023-2.414v-3.625a3.022 3.022 0 0 1 3.023-3.022h12.832a3.023 3.023 0 0 1 3.023 3.022v3.625c0 1.67-1.354 2.414-3.023 2.414z" fill="#006ca2"/><g><path d="M0 127.958V50.003c0-2.683 2.606-4.816 5.289-4.816l29.489-.184c2.683 0 5.222 2.133 5.222 4.816v78.139H0z" fill="#006ca2"/><path fill="#fff" d="M18 52.753h6v7h-6z"/><path fill="#fff" d="M29 52.586h6v7h-6z"/><path fill="#fff" d="M6.917 63.586h6v7h-6z"/><path fill="#fff" d="M18 63.753h6v7h-6z"/><path fill="#fff" d="M18 74.753h6v7h-6z"/><path fill="#fff" d="M29 85.753h6v7h-6z"/><path fill="#fff" d="M7 85.753h6v7H7z"/><path fill="#fff" d="M29 107.753h6v7h-6z"/><path fill="#fff" d="M18 107.753h6v7h-6z"/><path fill="#fff" d="M7 96.753h6v7H7z"/></g></g></svg>