<svg id="图层_1" xmlns="http://www.w3.org/2000/svg" xmlns:xlink="http://www.w3.org/1999/xlink" viewBox="0 0 128 128"><g><defs><path id="SVGID_1_" d="M132.07 64.34c.768 44.179-25.82 58.035-67.447 57.967C22.63 122.238-1.75 118.72-1.75 69.528c0-31.931 23.604-65.902 65.597-65.902 41.994 0 67.665 28.788 68.223 60.714z"/></defs><clipPath id="SVGID_2_"><use xlink:href="#SVGID_1_" overflow="visible"/></clipPath><g clip-path="url(#SVGID_2_)"><path d="M107.359 62.593c-3.555-2.402-19.201-22.241-20.367-23.705-.768-.964-2.007-.915-2.912-.892-.616.016-1.621.32-1.819.479-.91.716-13.96 20.012-19.991 23.908-3.143 2.031-.436 3.716 1.331 3.716 4.468 0 8.533-1.158 10.488-1.158 1.959 0 4.39 1.413 7.866 1.413 3.479 0 4.107-.064 6.742-.064 2.634 0 6.614-1.348 8.614-1.348 1.999 0 5.27 1.127 7.747 1.127 2.477 0 4.557-1.952 2.301-3.476" fill="#6b9096"/><path d="M39.333 120.167c-1.462-1.329-2.481-4.467-2.905-5.616-.507-1.373-.454-2.866-.929-4.265-.687-2.024-1.733-3.498-2.03-5.699-.897-6.67.572-12.455 5.742-17.128 3.094-2.799 7.556-4.445 11.461-5.789 4.474-1.541 8.976-3.011 13.413-4.687 3.459-1.308 6.021-4.018 7.764-7.242 1.081-1.996.796-4.305 1.763-6.255 1.038-2.099 2.777-1.788 4.75-1.741 3.668.09 8.763-.745 11.092.786 2.452 1.612 3.213 4.695 4.261 7.328 1.268 3.179.673 7.64.142 10.975-.701 4.392-4.586 8.899-7.988 11.474-2.757 2.08-5.822 3.64-8.806 5.351-2.973 1.702-8.049 1.988-8.921 5.156-.137.498 5.055 12.624 5.656 12.781 3.459 13.835-5.632 10.084-15.133 11.241-4.74.578-11.374-1.225-13.764-2.226-1.655-.69-3.57-2.492-5.568-4.444z" fill="#3fbfe7"/><path d="M83.25 61.587c.66.85 2.238 1.652 3.562 3.225 3.08 3.666 7.961 6.505 7.562 11.562-.418 5.358-5.773 10.834-11.374 12.959-7.352 2.79-15.246 3.655-19 10.333-2.042 3.631-.704 12.609 5.788 19.5 4.073 4.324 6.343 5.451 11.944 5.47 8.458.035 10.973-.781 20.362-4.571 4.166-1.683 6.395-3.398 14.162-11.788 6.096-6.584 3.883-14.053 3.761-16.251-.247-4.433-1.19-5.626-2.403-9.94-1.077-3.83-1.406-2.729-4.065-7.162-4.201-7.006-3.911-9.403-11.646-11.923-5.778-1.884-7.384-1.558-18.653-1.414z" fill="#bccd46"/><path d="M76.995 61.563c6.17 4.387 5.753 11.552 1.945 16.187-5.421 6.593-15.145 6.324-22.432 8.91-7.655 2.709-16.562 7.805-18.114 16.451-1.895 10.555 1.939 17.555 8.862 22.31-13.815.521-29.234-7.932-35.925-11.931C4.318 109.302 1.422 96.775.827 85.477c-.346-6.55.963-12.875 4.944-18.426 3.25-4.531 8.882-5.762 14.453-6.544 15.675-2.202 34.53-1.117 40.394-1.245 2.335.058 12.12.308 16.377 2.301z" fill="#bccd46"/><path d="M81.731 69.82c-5.981-.07-15.172.044-22.942.044h-.045l-54.422-.57S7.731 62.518 9 60.333c3.379-5.819 10.006-17.81 12.579-23.796 2.099-4.892 3.481-8.119 4.61-10.258 1.066-2.026 2.088-3.476 3.605-3.955 1.495-.468 2.533.045 3.222.384.502.248.688.339 1.14.243.231-.045.299-.096.654-.406l.073-.056c.214-.186.44-.576.666-.948.508-.846 1.202-2.003 2.624-2.381 3.323-.875 5.699.011 7.267 2.708.305.525 1.377 2.646 3.408 6.652l1.648 3.25c1.997-2.962 3.487-5.163 3.696-5.467.638-.925 1.856-1.529 2.923-1.591 1.061-.056 2.436.827 3.085 1.905.509.845 11.175 21.34 16.97 32.797 3.299 6.522 4.561 6.461 4.561 10.406z" fill="#79a5af"/><g><g><path d="M107.348 97.133c-.376-1.962-.413-3.967-.611-5.952-.028-.26-.06-.521-.066-.782-.012-.553-.29-.919-.806-1.121-.268-.105-.611-.089-.893-.136a4.734 4.734 0 0 0-.905-.062c-.025 0-.051.004-.077.008a.407.407 0 0 0-.072-.008 4.739 4.739 0 0 0-.907.062c-.285.047-.625.031-.894.136-.518.203-.792.569-.806 1.121-.008.261-.039.522-.064.782-.201 1.985-.235 3.99-.613 5.952-.307 1.607-2.23 4.204.352 4.792a14.03 14.03 0 0 0 6.009 0c2.583-.589.662-3.185.353-4.792z" fill="#855c52"/><path d="M124.815 85.673a29.897 29.897 0 0 1-6.83-2.842c-.114-.101-.28-.187-.226-.35.037-.105.18-.148.281-.171.975-.132 1.812-.272 2.421-.42 3.41-.814 3.433-2.989 3.433-2.989s.502-2.6-2.558-3.457a30.237 30.237 0 0 1-6.455-2.627c-.109-.07-.214-.148-.168-.28.025-.07.082-.105.146-.125.499-.058.958-.121 1.337-.191 2.955-.545 3.073-2.41 3.073-2.41s.498-2.075-2.034-3.071c-2.353-.926-4.71-2.31-6.263-3.301-.08-.085-.187-.195-.134-.311.048-.109.179-.117.282-.132 0 0 .01 0 .014-.002l.454.053s2.616.498 3.425-1.744c.809-2.242-1.681-3.425-1.681-3.425-4.922-2.304-8.159-8.843-8.159-8.843-.687-1.308-1.185-1.059-1.185-1.059s-.498-.249-1.181 1.059c0 0-3.238 6.539-8.159 8.843 0 0-2.491 1.183-1.684 3.425.811 2.242 3.428 1.744 3.428 1.744l.455-.053c.002.002.01.002.01.002.104.015.235.023.286.132.052.117-.056.226-.134.311-1.553.991-3.913 2.374-6.263 3.301-2.534.997-2.036 3.071-2.036 3.071s.12 1.864 3.073 2.41c.381.07.838.132 1.339.191.065.02.121.055.142.125.049.132-.054.21-.164.28a30.27 30.27 0 0 1-6.458 2.627c-3.055.856-2.556 3.456-2.556 3.456s.027 2.176 3.433 2.989c.611.148 1.446.288 2.421.42.098.023.245.066.281.171.054.163-.109.249-.224.35a30 30 0 0 1-6.833 2.842c-3.056.856-2.557 3.453-2.557 3.453s.056 2.071 3.435 2.993c1.398.377 3.355.389 5.527.187.306.012.633-.019.901.142.329.2.344.628.44.959.092.319.209.631.37.919 1.44 2.585 4.979 1.631 7.536-.09a2.5 2.5 0 0 1 .838-.3c.404-.066.823-.023 1.181.18.029.015.066.042.098.062.28.238.571.457.891.642.576.335 1.301.502 1.944.654 1.193.284 2.715.07 3.838-.631.047-.027.094-.06.121-.077.029-.016.052-.039.082-.058l.099-.07c.115-.086.224-.175.345-.249a1.81 1.81 0 0 1 .794-.272c.126-.008.249 0 .372.023.191.041.381.117.549.212.035.017.086.051.136.076 2.536 1.623 5.907 2.449 7.306-.058.161-.292.276-.603.366-.918.097-.335.113-.759.442-.962.22-.132.478-.132.733-.136 1.956.152 3.706.113 4.989-.234 3.381-.923 3.433-2.993 3.433-2.993s.5-2.597-2.558-3.453z" fill="#757f3f"/></g></g></g></g><path d="M99.337 60.698c.474.183.779.549 1.457.28.434-.173.825-.822.886-1.265.092-.693-.379-.525-.831-.748-.133-.352.26-.907.057-1.302-.287-.56-1.175.036-1.435.333-.414.474-.767.823-1.345 1.128-.389.205-2.031 1.071-1.226 1.659.169.122.337.14.539.138.528-.004 1.059-.363 1.561-.307.125.013.236.044.337.084z" fill="#9aaa5f"/><path d="M94.503 68.027c-.6.213-1.873 1.002-1.072 1.734.562.513 1.755.219 2.411.054.274-.069.634-.259.923-.244.309.016.313.242.413.492.207.516.589.614 1.117.614.317 0 .574.015.86-.121.684-.328.64-.163 1.273.063.737.265 1.371-.102 1.803-.694.141-.192.251-.489.239-.721-.02-.447-.333-.679-.798-.614-.468.066-.792.17-1.046-.305-.332-.629-1.284.156-1.516-.297-.103-.197.119-.621.08-.859-.048-.293-.218-.515-.525-.564-.483-.078-.882.049-1.271.262-.726.399-1.357.715-2.149.965-.199.064-.465.138-.742.235z" fill="#9aaa5f"/><path d="M95.533 75.11c-.401-.056-.874.113-1.208.276-1.373.669-2.73 1.375-4.115 2.028-.488.23-1.266.458-1.243 1.138.038 1.236 2.176.71 2.89.629.63-.072 1.662-.32 2.184.187.303.293.443.467.881.513.742.079 1.705-.665 2.371-.307.277.148.43.345.739.452.749.26 1.658-.049 2.273-.509.522-.39.896-1.513.183-1.896-.464-.249-.836.204-1.268.126-.652-.119-.493-.61-.955-.967-.557-.433-1.421.292-1.825-.135-.337-.358-.115-.951-.412-1.284a.78.78 0 0 0-.495-.251z" fill="#9aaa5f"/><path d="M94.11 84.86c-1.141-.222-2.297.637-3.28 1.076-1.084.482-2.284.554-3.352 1.07-.71.342-.638 1.423.056 1.732.635.281 1.446.202 2.119.165.997-.055 1.941-.486 2.934-.575 1.359-.123 1.424.244 1.658 1.411.17.847 1.068 1.304 1.885 1.128.427-.093.8-.46 1.199-.637.502-.223.479-.16.959.004.345.118.794.107 1.133-.022.567-.215.836-.663.847-1.232.018-.89.01-2.059-1.221-1.717-1.343.371-.907-.356-1.885-.719-.696-.26-1.339.404-1.973-.161-.505-.451-.212-1.331-1.079-1.523z" fill="#9aaa5f"/><path d="M27.613 69.096c6.387-.472 12.601-3.795 18.767-3.295s13.036 3.24 21.37 3.449 12.213-2.776 13.981.57l-2.065 1.847-75.705-1.701 1.693-3.294s9.736 3.326 21.959 2.424z" fill="#bccd46"/></svg>