<svg id="图层_1" xmlns="http://www.w3.org/2000/svg" viewBox="0 0 128 128"><path fill="#64878e" d="M14.377 54.598v41.756h98.904l-.267-41.756z"/><path fill="#8ab1b7" d="M13.467 37.407h100.544v10.187H13.467z"/><path fill="#eee" d="M11.238 34.489H115.92v2.918H11.238z"/><path fill="#bcd2d3" d="M11.875 47.594h103.627v7.004H11.875z"/><path d="M11.799 96.354h103.984a2.258 2.258 0 0 1 2.258 2.258v3.805H9.541v-3.805a2.258 2.258 0 0 1 2.258-2.258z" fill="#bcd2d3"/><path fill="#bcd2d3" d="M108.512 57.622v-3.024H96.946v3.024h2.076l-1.187 38.732h10.677l-1.631-38.732z"/><path fill="#bcd2d3" d="M54.743 57.622h1.853v-3.024H45.03v3.024h1.853l-1.408 38.732h10.676z"/><path fill="#bcd2d3" d="M28.785 57.622h1.853v-3.024H19.072v3.024h1.853l-1.408 38.732h10.676z"/><path fill="#bcd2d3" d="M82.56 54.598H70.982v1.091h.006v1.933h1.853l-1.408 38.732h10.676l-1.408-38.732h1.853v-1.933h.006z"/><path d="M8.063 32.928L62.72 6.909a1.999 1.999 0 0 1 1.719 0l54.656 26.019v4.632H8.063v-4.632z" fill="#bcd2d3"/><path d="M63.154 15.521L38.489 27.295c-.777.371-.513 1.539.348 1.539h49.075c.86 0 1.126-1.164.351-1.537l-24.41-11.774a.805.805 0 0 0-.699-.002z" fill="#8ab1b7"/><path d="M8.029 101.964h111.744c1.225 0 2.217.993 2.217 2.217v4.804H5.812v-4.804c0-1.225.992-2.217 2.217-2.217z" fill="#8ab1b7"/><path d="M5.297 108.985h117.207c1.051 0 1.903.852 1.903 1.903v10.666H3.394v-10.666c0-1.051.852-1.903 1.903-1.903z" fill="#bcd2d3"/></svg>