<svg id="レイヤー_1" xmlns="http://www.w3.org/2000/svg" viewBox="0 0 128 128"><path d="M110.044 85h1.873V35.43c0-2.085-1.488-4.623-3.31-5.637L100.044 25l-12 1v-7.713L67.356 6.761c-.694-.388-2.164-.626-3.356-.717V6c-.126 0-.25.014-.376.02C63.399 6.008 63.185 6 63 6v.064c-.848.102-1.656.331-2.311.696L40.001 18.287V26l-12-1-8.562 4.793c-1.822 1.014-3.31 3.551-3.31 5.637V55h1.873a1 1 0 0 1 1 1v2.586c0 .265-.105.52-.293.707L17.001 61v2H20a1 1 0 0 1 1 1v2a1 1 0 0 1-1 1h-1.999v6h2a1 1 0 0 1 1 1v3a1 1 0 0 1-1 1h-3v5a.988.988 0 0 1-.873.974V128h33.358V98.833A4.847 4.847 0 0 1 54.319 94h19.407a4.847 4.847 0 0 1 4.833 4.833V128h33.358v-14.026a.989.989 0 0 1-.873-.974v-5h-3a1 1 0 0 1-1-1v-3a1 1 0 0 1 1-1h2v-6h-1.999a1 1 0 0 1-1-1v-2a1 1 0 0 1 1-1h2.999v-2l-1.707-1.707a1 1 0 0 1-.293-.707V86a1 1 0 0 1 1-1z" fill="#b99176"/><path d="M53 73H37a2 2 0 0 1-2-2V49a2 2 0 0 1 2-2h16a2 2 0 0 1 2 2v22a2 2 0 0 1-2 2z" fill="#444"/><g><path d="M57.578 53.46l-24.332-.924a1.001 1.001 0 0 1-.961-1.049l.149-2.997a1 1 0 0 1 1.037-.95l24.332.924c.556.021.988.493.961 1.049l-.149 2.997a1 1 0 0 1-1.037.95z" fill="#865c51"/></g><g><path d="M32.597 61.524l-.465-2.977a1 1 0 0 1 .87-1.147L56.2 54.637a1 1 0 0 1 1.106.839l.465 2.977a1 1 0 0 1-.87 1.147l-23.198 2.763a1 1 0 0 1-1.106-.839z" fill="#865c51"/></g><g><path d="M56.091 71.31l-23.208-3.686a1 1 0 0 1-.822-1.191l.616-2.959a1 1 0 0 1 1.136-.784l23.208 3.686a1 1 0 0 1 .822 1.191l-.616 2.959a1 1 0 0 1-1.136.784z" fill="#865c51"/></g><g><path d="M90 74H74a2 2 0 0 1-2-2V50a2 2 0 0 1 2-2h16a2 2 0 0 1 2 2v22a2 2 0 0 1-2 2z" fill="#444"/><g><path d="M70.44 56.5l-.758-2.927a1 1 0 0 1 .754-1.228l20.896-4.572a1 1 0 0 1 1.182.726l.758 2.927a1 1 0 0 1-.754 1.228l-20.896 4.572a1 1 0 0 1-1.182-.726z" fill="#865c51"/></g><g><path d="M92.875 71.456l-21.941-.916a1 1 0 0 1-.957-1.048l.148-2.997a1 1 0 0 1 1.041-.95l21.941.917a1 1 0 0 1 .957 1.048l-.148 2.997a1 1 0 0 1-1.041.949z" fill="#865c51"/></g><g><path d="M70.125 62.506l-.148-2.997a1 1 0 0 1 .957-1.048l21.941-.917a1 1 0 0 1 1.041.95l.148 2.997a1 1 0 0 1-.957 1.048l-21.941.917a1 1 0 0 1-1.041-.95z" fill="#865c51"/></g></g><path d="M74.784 94H53.216A4.217 4.217 0 0 0 49 98.216V128h30V98.216A4.217 4.217 0 0 0 74.784 94z" fill="#444"/><path d="M83.438 102.279l-37.989-.902a1 1 0 0 1-.976-1.023l.095-3.999a1 1 0 0 1 1.023-.976l37.989.902a1 1 0 0 1 .976 1.023l-.095 3.999a1 1 0 0 1-1.023.976z" fill="#855c52"/><path d="M83.656 109.843l-37.937 2.189a1 1 0 0 1-1.056-.941l-.23-3.993a1 1 0 0 1 .941-1.056l37.937-2.189a1 1 0 0 1 1.056.941l.23 3.993a1.001 1.001 0 0 1-.941 1.056z" fill="#855c52"/><path d="M83.294 115.77l-36.317 11.185a1 1 0 0 1-1.25-.661l-1.177-3.823a1 1 0 0 1 .661-1.25l36.317-11.185a1 1 0 0 1 1.25.661l1.177 3.823a.999.999 0 0 1-.661 1.25z" fill="#855c52"/><path d="M82 125.979l-37.204-7.739a1 1 0 0 1-.775-1.183l.815-3.916a1 1 0 0 1 1.183-.775l37.204 7.739a1 1 0 0 1 .775 1.183l-.815 3.916c-.113.54-.642.887-1.183.775z" fill="#855c52"/><path fill="#855c52" d="M112 41.711L106 38v7h4v4h-3v7h5z"/><path d="M108.843 29.63l-9.993-5.438L88 26v-7.713L67.497 7.128c-1.94-1.357-5.105-1.357-7.045 0L19.095 29.63c-1.932 1.353-3.086 3.741-3.095 6.081v6l44.451-24.776c.987-.689 2.3-1.023 3.595-1.009 1.304-.014 2.616.32 3.6 1.009L112 41.711v-6c-.044-2.331-1.243-4.742-3.157-6.081z" fill="#803c3d"/></svg>