<svg id="Layer_1" xmlns="http://www.w3.org/2000/svg" viewBox="0 0 128 128"><circle cx="64.245" cy="63.755" r="62.989" fill="#d8ccc8"/><circle cx="58.4" cy="53.853" r="45.214" fill="#efebe9"/><path d="M91.262 66.458a2.128 2.128 0 0 0-.828-.679l-.001-.001a2.127 2.127 0 0 0-1.128-.169c-9.928-4.172-18.215-5.306-21.328-5.596-3.154-6.436-5.338-12.81-6.535-19.093 8.686-.5 41.3-.332 65.663 26.995a62.64 62.64 0 0 0 .102-6.17C101.698 35.99 69.262 36.127 60.784 36.664c-.862-7.149-.437-14.17 1.282-21.02 8.084-.279 35.307.351 58.079 19.112a62.978 62.978 0 0 0-6.227-9.731C93.5 12.363 71.989 11.193 63.33 11.317c1.537-4.523 3.395-8.051 4.851-10.432a62.462 62.462 0 0 0-4.91-.116c-1.732 3.157-3.678 7.457-5.115 12.789-1.724 6.396-2.847 15.052-1.339 25.371-.002.109-.004.218.011.33.018.133.051.261.091.384 1.06 6.754 3.246 14.201 7.156 22.202-1.835 2.404-7.043 8.776-15.111 15.1-4.735-6.718-22.193-35.335-6.437-72.305a63.283 63.283 0 0 0-5.52 2.331c-13.484 36.723 3.789 65.612 8.534 72.523-5.24 3.702-11.469 7.187-18.57 9.636-4.184-7.429-18.38-36.584-6.217-70.94a62.557 62.557 0 0 0-6.713 7.531c-7.385 30.843 4.206 56.342 8.745 64.703-4.535 1.23-9.404 1.975-14.552 2.117a62.921 62.921 0 0 0 2.366 4.237 67.237 67.237 0 0 0 14.981-2.616 2.13 2.13 0 0 0 1.872-.228c.22-.146.399-.33.546-.532C50.434 85.924 64.347 68.7 67.623 64.289c2.683.247 9.971 1.221 18.843 4.778-4.573 8.546-23.233 39.185-58.446 46.211a62.77 62.77 0 0 0 5.117 3.237c34.559-8.958 52.817-39.332 57.274-47.729 5.22 2.449 10.8 5.794 16.214 10.398-2.874 5.951-17.927 34.29-48.159 45.292 3.49.322 6.977.362 10.426.104 24.219-12.487 37.253-34.986 41.027-42.389a73.755 73.755 0 0 1 9.102 10.645 63.526 63.526 0 0 0 2.207-4.276c-9.177-12.305-20.216-19.693-29.966-24.102z" fill="#bdaaa4"/></svg>