<svg id="Layer_1" xmlns="http://www.w3.org/2000/svg" viewBox="0 0 128 128"><g><path d="M115.226 3.877c-2.396-1.082-4.236-2.234-5.318.162l-.536 1.188c-1.082 2.396.997 5.269 3.393 6.351s5.242.006 6.324-2.39L119.625 8c1.082-2.396-2.003-3.041-4.399-4.123z" fill="#196ca2"/><path d="M118.069 7.585l-6.945-2.709S97.358 33.696 84.34 60.969l9.379 3.808c11.842-27.804 24.35-57.192 24.35-57.192z" fill="#196ca2"/><g><path d="M93.719 64.777l-9.379-3.808-3.417 7.159 9.688 3.947 3.108-7.298z" fill="#875a3b"/><path d="M79.237 71.659l-1.404 2.942 9.966 4.073 1.278-2.999-9.84-4.016z" fill="#875a3b"/><path d="M62.435 107.774c-.607 1.308-1.176 2.616-1.775 3.93-.488 1.07-1.302 2.036-2.564 1.965-1.1-.062-2.374-.627-2.837-1.695-.529-1.22.593-2.407 1.065-3.453a4.89 4.89 0 0 0-2.445-6.468 4.935 4.935 0 0 0-5.476 1.004c-1.523 1.528-2.407 3.547-2.845 5.611-.429 2.026-.565 4.302-.197 6.36 1.14 6.38 7.543 10.304 13.712 10.333 9.706.045 13.072-8.681 16.098-16.205 1.164-2.894 10.925-26.952 11.094-26.883l-10.118-4.141c-7.777 16.301-13.124 28.376-13.712 29.642z" fill="#875a3b"/><path d="M90.611 72.075l-9.688-3.947-1.685 3.531 9.84 4.016 1.533-3.6z" fill="#fac21c"/><path d="M76.148 78.132l10.118 4.141 1.533-3.599-9.966-4.073-1.685 3.531z" fill="#fac21c"/></g><g fill="#40c0e7"><path d="M106.978 13.699l4.487 9.244 1.476-3.468-4.408-9.034-1.555 3.258z"/><path d="M100.981 26.224l4.807 10.091 1.476-3.468-4.728-9.881-1.555 3.258z"/><path d="M95.073 38.552l5.127 10.935 1.476-3.468-5.047-10.725-1.556 3.258z"/><path d="M89.345 50.484l5.445 11.778 1.477-3.467-5.366-11.568-1.556 3.257z"/></g></g><g><circle cx="31.25" cy="116.159" r="9.25" fill="#fac21c"/><circle cx="28.938" cy="112.841" r="3.519" fill="#fdd836"/></g><path d="M60.406 118.163c-.016-.005-.231.153-.774.38-.539.233-1.318.429-2.299.484-.49.036-1.021-.013-1.583-.094-.552-.117-1.159-.215-1.751-.469-.592-.244-1.208-.551-1.76-1.017a7.213 7.213 0 0 1-.798-.771l-.191-.217-.048-.055-.024-.028-.012-.014-.042-.077-.055-.099-.221-.398a7.892 7.892 0 0 1-.657-2.138 11.395 11.395 0 0 1-.14-2.001c.02-1.276.182-2.414.344-3.368.157-.956.327-1.726.439-2.256l.163-.831.009-.047a1.937 1.937 0 1 1 3.656 1.191s-.523 1.122-1.094 2.738c-.279.811-.559 1.76-.686 2.757a7.795 7.795 0 0 0-.072 1.501c.026.503.14.973.251 1.355l.183.417.046.104.003.007-.032-.058.004.01.007.02.015.04.059.162c.061.229.215.416.343.619.274.403.659.742 1.059 1.046.812.618 1.785.923 2.622 1.028a4.641 4.641 0 0 0 2.024-.149c.459-.127.746-.333.742-.31a.302.302 0 0 1 .406.133.306.306 0 0 1-.136.405z" fill="#b79278"/><path d="M78.207 82.204s-.322 1.131-.909 2.781a106.935 106.935 0 0 1-2.31 5.976 100.34 100.34 0 0 1-1.352 3.137c-.449.993-.828 1.939-1.279 2.692-.44.758-.9 1.347-1.262 1.741-.356.396-.619.596-.619.596a.343.343 0 0 1-.55-.251s-.021-.329.045-.858c.061-.532.205-1.265.49-2.093.274-.834.741-1.739 1.198-2.729.456-.99.964-2.037 1.486-3.076a106.96 106.96 0 0 1 3.006-5.658c.863-1.523 1.507-2.508 1.507-2.508a.305.305 0 0 1 .549.25z" fill="#b79278"/></svg>