<svg id="图层_1" xmlns="http://www.w3.org/2000/svg" viewBox="0 0 128 128"><path d="M2.503 112.524c0 6.879 5.576 12.455 12.455 12.455h97.637c6.879 0 12.455-5.576 12.455-12.455V75.584c0-6.627-5.373-12-12-12H14.503c-6.627 0-12 5.373-12 12v36.94z" fill="#bccf38"/><g><path d="M97.398 74.419c-.554-2.896-.608-5.853-.9-8.78-.042-.385-.091-.769-.099-1.155-.017-.813-.429-1.355-1.188-1.652-.396-.158-.901-.134-1.318-.204a6.865 6.865 0 0 0-1.335-.09.678.678 0 0 0-.116.011.484.484 0 0 0-.105-.011 6.89 6.89 0 0 0-1.338.09c-.42.069-.921.046-1.317.204-.764.296-1.17.838-1.189 1.652-.012.387-.058.771-.095 1.155-.296 2.928-.348 5.885-.903 8.78-.455 2.373-3.291 6.201.519 7.069 2.83.639 6.035.645 8.866 0 3.809-.868.975-4.696.518-7.069" fill="#855c52"/><path d="M123.17 57.512c-4.305-1.208-7.681-2.816-10.077-4.193-.168-.15-.412-.275-.332-.515.054-.156.265-.219.414-.254 1.438-.194 2.673-.402 3.572-.619 5.03-1.202 5.064-4.411 5.064-4.411s.741-3.837-3.772-5.101c-3.975-1.115-7.173-2.575-9.525-3.876-.161-.104-.315-.219-.246-.414.037-.104.12-.156.215-.185a30.93 30.93 0 0 0 1.973-.281c4.359-.804 4.534-3.557 4.534-3.557s.734-3.059-3-4.53c-3.472-1.367-6.949-3.409-9.241-4.87-.118-.127-.277-.288-.198-.459.071-.16.265-.173.416-.194 0 0 .015 0 .021-.003l.669.077s3.86.736 5.054-2.572c1.193-3.309-2.48-5.053-2.48-5.053-7.265-3.401-12.04-13.046-12.04-13.046-1.014-1.93-1.75-1.565-1.75-1.565s-.734-.366-1.741 1.565c0 0-4.779 9.646-12.038 13.047 0 0-3.675 1.744-2.483 5.053 1.196 3.309 5.058 2.572 5.058 2.572l.671-.077c.004.003.015.003.015.003.154.021.348.035.422.194.077.171-.083.333-.198.459-2.291 1.461-5.771 3.503-9.24 4.87-3.738 1.471-3.003 4.53-3.003 4.53s.178 2.753 4.533 3.557a31.57 31.57 0 0 0 1.976.281c.095.029.178.081.21.185.071.194-.08.31-.241.414-2.355 1.301-5.551 2.761-9.528 3.876-4.511 1.263-3.773 5.101-3.773 5.101s.04 3.209 5.065 4.411c.902.217 2.135.425 3.571.619.146.035.362.098.414.254.08.24-.16.365-.329.515-2.393 1.377-5.777 2.986-10.082 4.193-4.507 1.263-3.773 5.095-3.773 5.095s.083 3.055 5.067 4.417c2.063.556 4.952.572 8.156.274.452.018.935-.028 1.331.21.485.296.506.927.648 1.415.135.471.307.931.544 1.357 2.127 3.812 7.347 2.405 11.12-.135a3.657 3.657 0 0 1 1.237-.44c.597-.098 1.215-.034 1.743.264.043.023.097.064.143.092.414.35.844.673 1.315.948.851.494 1.919.74 2.869.963 1.76.421 4.006.104 5.663-.931.068-.04.137-.086.178-.113.043-.023.077-.058.12-.086.049-.037.101-.069.146-.104.171-.127.331-.258.51-.367a2.663 2.663 0 0 1 1.171-.401c.186-.012.367 0 .549.032.281.062.562.173.81.313.052.025.127.075.201.111 3.74 2.396 8.714 3.615 10.779-.086.238-.429.408-.889.54-1.354.145-.494.166-1.119.652-1.417.324-.196.705-.196 1.082-.204 2.887.227 5.468.167 7.359-.342 4.987-1.361 5.065-4.417 5.065-4.417s.737-3.832-3.775-5.095" fill="#757f3f"/><path d="M84.712 20.33c.711.273 1.167.821 2.183.419.649-.26 1.235-1.232 1.327-1.896.138-1.038-.568-.788-1.246-1.119-.198-.529.39-1.361.087-1.95-.432-.84-1.762.054-2.15.498-.619.709-1.148 1.232-2.013 1.688-.585.308-3.042 1.604-1.837 2.486.253.181.505.208.807.206.79-.006 1.585-.544 2.337-.46.188.021.354.069.505.128" fill="#99a95a"/><path d="M77.473 31.307c-.897.317-2.805 1.498-1.604 2.594.842.769 2.628.329 3.61.083.409-.104.949-.39 1.383-.365.462.023.469.361.618.736.311.771.881.917 1.672.917.477 0 .859.025 1.288-.181 1.025-.488.959-.242 1.906.096 1.105.396 2.053-.154 2.699-1.04.211-.287.377-.733.359-1.079-.031-.67-.499-1.017-1.195-.92-.7.098-1.186.254-1.564-.457-.498-.94-1.924.235-2.271-.444-.155-.296.179-.933.12-1.286-.071-.44-.327-.771-.787-.844-.724-.117-1.32.073-1.904.394-1.086.594-2.031 1.069-3.218 1.444-.299.094-.697.204-1.112.352" fill="#99a95a"/><path d="M79.016 41.912c-.601-.084-1.31.168-1.81.414-2.057 1.001-4.088 2.059-6.162 3.036-.73.344-1.895.688-1.86 1.706.058 1.85 3.259 1.061 4.327.94.944-.105 2.491-.479 3.272.279.452.44.663.702 1.317.771 1.111.115 2.553-.996 3.552-.459.414.221.643.515 1.106.677 1.122.388 2.482-.073 3.404-.761.781-.584 1.342-2.267.273-2.84-.695-.375-1.252.306-1.899.186-.975-.177-.735-.913-1.429-1.448-.835-.648-2.129.437-2.732-.204-.507-.535-.173-1.425-.617-1.923a1.186 1.186 0 0 0-.742-.374" fill="#99a95a"/><path d="M76.885 56.512c-1.709-.333-3.441.956-4.914 1.611-1.623.721-3.419.831-5.018 1.604-1.063.512-.957 2.13.081 2.592.951.421 2.165.306 3.175.246 1.493-.083 2.904-.727 4.394-.859 2.034-.185 2.133.365 2.482 2.111.255 1.269 1.6 1.955 2.824 1.689.64-.137 1.197-.688 1.795-.951.752-.335.717-.24 1.436.004a2.64 2.64 0 0 0 1.696-.033c.851-.321 1.252-.99 1.269-1.844.027-1.334.015-3.084-1.827-2.572-2.012.556-1.358-.533-2.824-1.079-1.042-.389-2.003.605-2.955-.238-.756-.676-.317-1.995-1.614-2.281" fill="#99a95a"/></g><path d="M4.176 93.532s-2.662 2.645-.345 5.218c1.053 1.169 3.462 2.553 7.169 4.083 14.988 6.187 32.026 14 35.167 13.5 3.141-.5 45.135-15.833 47.568-17.333 2.432-1.5 3.096-5.197-.344-6.917C88.223 89.5 43.833 104.5 43.833 104.5S5.34 91.245 4.176 93.532z" fill="#a3a30d"/><path d="M5.706 97.827a3.012 3.012 0 0 1-1.709-3.781c16.283-47.201 42.801-44.04 42.801-44.04 30.288.697 43.485 33.893 46.785 43.924a2.993 2.993 0 0 1-1.891 3.772l-45.888 15.527c-.68.23-1.419.209-2.084-.06L5.706 97.827z" fill="#fcc21b"/><path d="M46.844 49.781s-5.012 2.727-5.762 24.477c-.569 16.492 4.722 38.952 4.722 38.952l46.132-15.593a2.994 2.994 0 0 0 1.962-3.524c-2.241-9.536-12.261-41.668-47.054-44.312z" fill="#e89f0f"/><path d="M51.024 32.588c.85.09 1.661.358 2.553.507 4.621.774 23.11 3.401 24.226 3.843.491.193 1.172.521 1.322 1.084.229.852-.843 1.23-1.434 1.53-2.526 1.276-21.617 7.635-24.356 8.537-.886.297-1.651.721-2.599.758-.874.035-1.877.588-2.68.035-.775-.533-.822-1.276-.82-2.14.003-.896-.15-1.816-.236-2.701-.081-.883 0-1.812 0-2.698 0-.966.12-1.866.12-2.843 0-1.065.023-2.098.116-3.143.068-.736.217-1.604.62-2.196.316-.474.68-.824 1.254-.934.7-.137 1.239.283 1.914.361" fill="#ed6c30"/><path d="M46.525 53c-.976 0-1.77-.97-1.77-2.171V32.096c0-1.196.794-2.168 1.77-2.168.982 0 1.773.972 1.773 2.168v18.733c0 1.201-.791 2.171-1.773 2.171" fill="#855c52"/><path d="M81.659 101.071s-5.628-27.975-16.806-24.91c-9.534 2.614-4.405 32.079-4.405 32.079l21.211-7.169z" fill="#855c52"/></svg>