<svg id="图层_1" xmlns="http://www.w3.org/2000/svg" viewBox="0 0 128 128"><g><path d="M119.959 92.818c-3.52-3.168-10.104-9.119-27.015-13.17-4.255-1.019-13.295-3.421-28.24-3.475-9.945-.036-24.126.603-36.174 3.951-5.383 1.496-4.309 3.105-.462 2.408 5.844-1.06 10.173-.971 16.062-.85 2.137.044 8.272.437 13.252 1.544 4.403.979 7.753 2.616 8.799 3.612.782.744 3.014 2.869 2.513 4.762-.747 2.822-6.782 2.139-7.943 5.642-.438 1.323.057 2.523.157 2.749.765 1.742 2.795 2.528 6.767 3.314 13.392 2.65 7.376 2.046 12.963 2.501 13.853 1.13 18.947.479 26.289 3.583 4.226 1.787 5.145 3.104 5.242 4.187.067.755-.096 3.303-8.717 7.2-1.14.515 1.341 3.094 11.65-2.363 5.34-3.584 10.114-8.752 10.224-15.089.074-4.324-2.126-7.589-5.367-10.506z" fill="#3fbfe7"/><path d="M112.168 113.576c-.096-1.083-.407-2.178-4.429-4.015-5.609-2.562-12.755-2.976-26.598-4.217-7.477-.671-7.33-.835-13.466-2.04-3.974-.78-6.002-1.573-6.767-3.314-.099-.226-.595-1.426-.157-2.749 1.161-3.503 7.196-2.82 7.943-5.642.501-1.892-1.731-4.017-2.513-4.762-1.046-.996-4.396-2.633-8.799-3.612-4.98-1.107-11.115-1.5-13.252-1.544-6.606-.135-10.59-.196-16.062.85 0 0-14.104 2.697-22.348 10.633-1.939 2.081-3.739 4.726-3.886 8.207l-.006.177s-.096 3.981 2.87 8.137c6.623 9.28 28.882 13.869 28.882 13.869 14.181 2.923 25.013 3.104 34.073 3.208 10.835.124 21.679-.521 32.374-4.578a59.16 59.16 0 0 0 3.426-1.41c8.619-3.895 8.782-6.443 8.715-7.198z" fill="#f7c977"/></g><path d="M91.044 98.057c1.021 2.135 8.092 3.142 7.718 5.48-.374 2.335-7.367 1.124-9.041 2.793-1.676 1.671-.485 8.667-2.824 9.035-2.337.363-3.346-6.66-5.452-7.737-2.105-1.08-8.394 2.215-9.463.109-1.069-2.113 5.298-5.242 5.673-7.577.375-2.34-4.695-7.294-3.024-8.97 1.67-1.675 6.611 3.366 8.955 3.053 2.398-.32 5.913-6.624 8.016-5.428 2.009 1.149-1.558 7.157-.558 9.242z" fill="#f79329"/><path d="M41.383 93.969a3.11 3.11 0 0 1-2.26-4.345l19.052-42.166a3.112 3.112 0 0 1 5.666 2.573L44.79 92.196a3.115 3.115 0 0 1-3.407 1.773z" fill="#78a3ad"/><g><path d="M79.282 18.279l-.241-.107.267.128-.026-.021z" fill="#fff"/><path d="M76.647 19.244c2.091 6.778 6.551 26.576-2.268 52.361l.042-.116c15.631-4.041 25.535 4.406 25.739 4.581 3.543-31.023-17.056-52.596-22.887-58.016l-.248.599a1.999 1.999 0 0 1-.378.591z" fill="#fff"/><path d="M73.253 17.094l.185-.449c-7.872.007-34.12 1.893-51.263 25.198.474.053 13.026 2.633 21.592 14.828l-.034.08c9.861-23.065 23.734-34.477 29.424-38.41a2.028 2.028 0 0 1 .096-1.247z" fill="#fff"/><path d="M79.308 18.3c-.089-.042-.177-.086-.267-.128a78.335 78.335 0 0 0-1.527-.7l-.24.582c5.831 5.421 26.43 26.994 22.887 58.016-.204-.176-10.108-8.623-25.739-4.581l-.042.116c8.82-25.786 4.36-45.583 2.268-52.361a2.042 2.042 0 0 1-2.287.516 2.034 2.034 0 0 1-1.203-1.419c-5.69 3.933-19.562 15.344-29.424 38.41l.034-.08C35.201 44.476 22.65 41.896 22.175 41.843c17.143-23.305 43.392-25.191 51.263-25.198l.306-.74C47.574 5.824 20.3 11.297 4.922 28.059c-1.007 1.098-.789 2.905.442 3.651 3.76 2.277 10.906 7.291 14.172 14.159l-.002.003.005.002c.108.036 16.428 5.533 21.894 16.778l-.001.003h.003l.002.004.002-.004c.132.006 18.585.906 31.563 12.758l-.009.025s14.784-4.087 26.526 5.016c.027-.145.046-.287.072-.432-.024.136-.038.268-.063.404 0 0 9.052-5.163 18.15-2.013 1.185.41 2.412-.588 2.403-1.929-.159-22.969-15.887-46.346-40.773-58.184z" fill="#196ca2"/><path d="M73.439 16.645l-.185.449c-.17.411-.191.845-.096 1.247a2.032 2.032 0 0 0 3.49.903c.155-.17.286-.366.379-.591l.248-.599.24-.582 2.372-5.741a2.042 2.042 0 0 0-3.773-1.56l-2.369 5.733-.306.741z" fill="#78a3ad"/></g></svg>