<svg id="Layer_1" xmlns="http://www.w3.org/2000/svg" viewBox="0 0 128 128"><g><path d="M120.835 6.943c-1.961-.899-4.52-2.242-5.419-.281l-.446.973c-.899 1.961 2.368 5.147 4.329 6.046a3.935 3.935 0 0 0 5.201-1.931l.446-.973c.899-1.961-2.15-2.934-4.111-3.834z" fill="#a1887f"/><path d="M38.493 108.866c-3.116.303-2.956 2.459-2.956 2.459l.114 9.793c.293 3.017 3.093 2.545 3.093 2.545l4.551-.442L42.75 109a410.105 410.105 0 0 1-4.257-.134z" fill="#5d4137"/><path d="M42.75 109l.544 14.22 19.978-1.942a26.18 26.18 0 0 0 3.457-.575l-1.07-12.08c-4.827.736-16.556.547-22.909.377z" fill="#f1592b"/><path d="M78.659 101.124c-2.53 6.835-9.66 6.98-12.934 7.491l-.066.009 1.07 12.08c13.771-1.454 16.842-7.945 19.075-13.315 1.859-4.472 6.962-18.076 6.962-18.076l-8.014-3.059-6.093 14.87z" fill="#5d4137"/><path fill="#a1887f" d="M123.273 10.098l-6.624-2.91-5.543 13.741 6.904 2.834z"/><g><path fill="#c2afa8" d="M111.106 20.929L84.752 86.254l8.014 3.058 25.244-65.549z"/><g fill="#a1887f"><path d="M112.39 38.355l1.31-3.4-5-8.065-1.338 3.318z"/><path d="M107.902 50.009l1.309-3.4-5.099-8.344-1.339 3.318z"/><path d="M103.414 61.663l1.309-3.4-5.2-8.623-1.339 3.318z"/><path d="M98.926 73.317l1.309-3.4-5.301-8.902-1.338 3.317z"/><path d="M94.438 84.971l1.309-3.4-5.402-9.182-1.338 3.318z"/></g></g></g><g><g><g><ellipse cx="16.775" cy="122.046" rx="13.416" ry="1.412" fill="#5d4137"/></g><path fill="#5d4137" d="M3.292 115.859h26.832v6.413H3.292z"/></g><ellipse cx="16.775" cy="115.859" rx="13.416" ry="1.412" fill="#8d6e63"/></g></svg>