<svg id="レイヤー_1" xmlns="http://www.w3.org/2000/svg" viewBox="0 0 128 128"><g><path fill="#40c0e7" d="M15.018 49.243h55.086v45.878H15.018z"/><path fill="#fcc21b" d="M15.018 98.109h55.086v22.6H15.018z"/><path fill="#fcc21b" d="M70.17 53.11h41.502v17.161H70.17z"/><path fill="#fff" d="M70.17 71.098h41.502v45.789H70.17z"/><path fill="#fff" d="M15.018 10.193h98.762v37.743H15.018z"/><g fill="#006ca2"><path d="M110.164 2.782h-92.32C12.76 2.782 8.6 6.938 8.6 12.02v115.979h110.8V12.02c0-5.082-4.158-9.238-9.236-9.238zM79.35 37.301c.045-2.586.037-5.167.037-7.758 0-1.446.113-2.898.207-4.342.16-2.572.283-6.975 3.471-7.34a3.56 3.56 0 0 1 1.598.196c.367.131.674.375.984.609 1.209.914 1.828 3.017 2.436 4.403.637 1.461 1.078 3.007 1.742 4.463.16.365.332.731.498 1.096.627 1.358 1.525 2.548 2.642.891.967-1.457 1.625-3.111 2.377-4.703.656-1.405 1.359-2.825 2.047-4.225a5.867 5.867 0 0 1 1.285-1.729c1.096-1.003 3.207-1.083 4.277-.028.945.932 1.082 2.604 1.199 3.916.252 3.04.291 6.108.359 9.163.027.792.033 1.583.043 2.37 0 .867.066 1.925.076 3.012 0 1.349-.035 2.782-.561 4.028-.547 1.293-1.492 1.846-2.771 1.799-.393-.009-.764-.093-1.139-.192-.393-.098-.664-.276-.963-.585-.297-.31-.607-.6-.713-1.054-.096-.417-.273-.801-.375-1.227-.221-.994-.27-2.029-.357-3.05-.051-.538-.006-1.083-.168-1.602l-.275-.379c-.305-.08-.484.009-.609.299-.191.412-.365.839-.535 1.265a50.568 50.568 0 0 1-.865 2.178c-.604 1.424-1.059 3.265-2.543 3.864-.584.234-1.232.202-1.805-.023-1.471-.576-2.098-2.815-2.59-4.249-.236-.679-.572-2.449-1.203-2.824-.742-.45-.834 1.059-.85 1.495-.023.417-.145.833-.172 1.25-.133 1.743-.236 3.654-1.801 4.604-1.158.703-3.424.731-4.25-.674-.837-1.418-.755-3.297-.733-4.917zm-52.006 2.326c.182-.973.443-1.938.734-2.902.59-1.944 1.311-3.876 1.836-5.827.56-2.044.973-4.108 1.648-6.127 1.199-3.607 3.371-8.375 9.139-6.775 2.482.686 3.172 2.938 3.969 4.74 1.16 2.602 1.621 5.464 2.35 8.163.533 1.951 1.264 3.883 1.842 5.827.352 1.157 1 2.904.82 4.337-.141 1.08-.748 1.981-2.328 2.314-1.336.286-4.02.052-4.633-1.143-.873-1.677-.459-3.628-3.355-3.939-1.357-.147-3.334.337-3.887 1.447-.59 1.157-.137 2.59-1.639 3.38-1.012.538-2.455.618-3.627.466-2.647-.352-3.266-1.959-2.869-3.961zm38.676 69.895c0 1.628-1.34 2.96-2.961 2.96H23.73a2.968 2.968 0 0 1-2.961-2.96v-4.778c0-1.628 1.33-2.96 2.961-2.96h39.328a2.974 2.974 0 0 1 2.961 2.96v4.778zm0-22.39c0 2.604-2.135 4.736-4.734 4.736H25.502a4.746 4.746 0 0 1-4.733-4.736V59.683c0-2.605 2.127-4.737 4.733-4.737h35.783c2.6 0 4.734 2.132 4.734 4.737v27.449zM73.912 24.7c-.885 1.603-3.189 1.049-4.68 1.102-.252.009-.49.018-.74.068-.271.054-.541.002-.805.082-1.105.34-.814 1.682-.807 2.571v4.041c0 2.653.184 5.309 0 7.961-.092 1.22-.383 2.243-1.742 2.726-.82.295-2.031.265-2.941.183-4.348-.374-3.43-3.955-3.457-6.585-.029-2.251-.029-4.479-.121-6.68a71.55 71.55 0 0 1-.047-2.495c0-.589.01-1.244-.572-1.564-.422-.232-.945-.185-1.414-.181a37.584 37.584 0 0 1-2.744-.079c-1.152-.08-2.113-.346-2.578-1.602-.271-.764-.242-1.888-.168-2.722.355-4.019 3.738-3.169 6.221-3.199 2.117-.026 4.225-.028 6.295-.11 1.912-.084 3.748-.036 5.562.012.777.016 1.422.075 2.188.185.973.138 2.088.035 2.725 1.173.506.9.486 1.991.328 2.977-.108.712-.142 1.492-.503 2.136zm8.006 83.621a1.952 1.952 0 0 1-1.947 1.951h-3.529a1.95 1.95 0 0 1-1.943-1.951v-4.453c0-1.073.871-1.949 1.943-1.949h3.529a1.95 1.95 0 0 1 1.947 1.949v4.453zm0-13.596a1.95 1.95 0 0 1-1.947 1.949h-3.529a1.949 1.949 0 0 1-1.943-1.949v-4.45a1.95 1.95 0 0 1 1.943-1.951h3.529c1.076 0 1.947.878 1.947 1.951v4.45zm0-13.598a1.952 1.952 0 0 1-1.947 1.951h-3.529a1.95 1.95 0 0 1-1.943-1.951v-4.453c0-1.072.871-1.951 1.943-1.951h3.529c1.076 0 1.947.879 1.947 1.951v4.453zm12.762 27.194a1.96 1.96 0 0 1-1.955 1.951h-3.527a1.953 1.953 0 0 1-1.947-1.951v-4.453c0-1.073.873-1.949 1.947-1.949h3.527c1.074 0 1.955.876 1.955 1.949v4.453zm0-13.596a1.958 1.958 0 0 1-1.955 1.949h-3.527a1.951 1.951 0 0 1-1.947-1.949v-4.45c0-1.073.873-1.951 1.947-1.951h3.527a1.96 1.96 0 0 1 1.955 1.951v4.45zm0-13.598a1.96 1.96 0 0 1-1.955 1.951h-3.527a1.953 1.953 0 0 1-1.947-1.951v-4.453c0-1.072.873-1.951 1.947-1.951h3.527a1.96 1.96 0 0 1 1.955 1.951v4.453zm12.754 27.194a1.954 1.954 0 0 1-1.945 1.951h-3.529a1.963 1.963 0 0 1-1.955-1.951v-4.453c0-1.073.887-1.949 1.955-1.949h3.529c1.07 0 1.945.876 1.945 1.949v4.453zm0-13.596a1.952 1.952 0 0 1-1.945 1.949h-3.529a1.962 1.962 0 0 1-1.955-1.949v-4.45c0-1.073.887-1.951 1.955-1.951h3.529c1.07 0 1.945.878 1.945 1.951v4.45zm0-13.598a1.954 1.954 0 0 1-1.945 1.951h-3.529a1.963 1.963 0 0 1-1.955-1.951v-4.453c0-1.072.887-1.951 1.955-1.951h3.529c1.07 0 1.945.879 1.945 1.951v4.453zm0-17.906a1.954 1.954 0 0 1-1.945 1.951H76.441a1.95 1.95 0 0 1-1.943-1.951v-4.232c0-1.073.871-1.952 1.943-1.952h29.047c1.07 0 1.945.878 1.945 1.952v4.232z"/><path d="M37.605 33.93l.473.125.334.1.449-.007.066.009.58-.002.033-.004c1.361-.326.531-1.712.393-2.499l-.023-.075-.037-.131c-.209-.737-.412-1.476-.631-2.211-.166-.258-.26-.614-.668-.529-.275.061-.389.352-.463.511l-.086.08a76.812 76.812 0 0 1-.654 3.059l-.02.105-.066.246c-.037.3-.074.637.029.928l.291.295z"/></g></g></svg>