<svg id="レイヤー_1" xmlns="http://www.w3.org/2000/svg" viewBox="0 0 128 128"><g><g><path fill="#40c0e7" d="M21.479 55.056H104V128H21.479z"/><g><path fill="#40c0e7" d="M84.048 55.056V19.454H46.294v35.602H21.479v37.221h86.311V55.056z"/><path d="M114.81 36.264L67.995 3.13c-2.193-1.551-5.785-1.551-7.979 0L13.192 36.264c-2.193 1.551-3.988 5.02-3.988 7.707v43.654c0 .204.031.401.065.598V128h38.15v-24.23c0-3.041 2.475-5.522 5.518-5.522h22.135c3.039 0 5.529 2.482 5.529 5.522V128h38.158V88.041c.004-.14.037-.276.037-.416V43.971c0-2.687-1.793-6.156-3.986-7.707zM44.595 83.025h-16.16V71.78a8.081 8.081 0 0 1 8.084-8.081 8.077 8.077 0 0 1 8.076 8.081v11.245zm27.48 0H55.923V71.78a8.08 8.08 0 0 1 8.078-8.081c4.461 0 8.074 3.617 8.074 8.081v11.245zm27.488 0H83.401V71.78c0-4.463 3.621-8.081 8.086-8.081 4.457 0 8.076 3.617 8.076 8.081v11.245z" fill="#ed6c30"/></g><path d="M60.017 12.718c2.193-1.551 5.785-1.551 7.979 0l50.795 35.768.006-4.517c0-2.688-1.793-6.153-3.986-7.705L67.995 3.13c-2.193-1.556-5.785-1.556-7.979 0L13.192 36.264c-2.193 1.551-3.943 5.017-3.943 7.705v4.489l50.768-35.74z" fill="#855c52"/></g><path d="M88.675 38.412c-1.092-.894-2.189-1.351-2.455-1.03 0 0-.305.397-.336 1.021-.035.613-.133 1.751-.656 2.359a49.916 49.916 0 0 1-3.354 3.258c.084-.618.135-1.249.135-1.891 0-8.128-6.592-14.719-14.719-14.719-8.131 0-14.721 6.59-14.721 14.719 0 .327.029.646.051.975-.469-.456-.838-.868-1.06-1.214-1.551-2.449-.793-8.517-.793-8.517l-.014.005c.045-.486-.053-.879-.303-1.143-1.271-1.327-5.904 1.032-10.346 5.274-4.457 4.241-7.041 8.75-5.773 10.079.264.282.686.39 1.225.356l-.012.015s3.242-.468 7.416 1.003c2.055.721 8.812 5.089 12.814 6.386 9.059 2.932 13.764 1.331 13.764 1.331l-.014-.014a14.68 14.68 0 0 0 7.283-3.316h.004s5.154-3.591 10.684-11.157c.512-.482 1.303-.795 1.773-.966.598-.204.891-.613.891-.613.272-.324-.404-1.307-1.484-2.201zM67.29 32.718c5.191 0 9.404 4.213 9.404 9.411 0 5.199-4.213 9.409-9.404 9.409-5.195 0-9.41-4.21-9.41-9.409 0-5.198 4.215-9.411 9.41-9.411z" fill="#fcc21b"/></g></svg>