<svg id="レイヤー_1" xmlns="http://www.w3.org/2000/svg" viewBox="0 0 128 128"><g><path fill="#006ca2" d="M21.477 13.027h86.736v114.972H21.477z"/><g><path fill="#006ca2" d="M19.297 17.304h91.205v79.873H19.297z"/><path d="M105.834 2.78h-83.67c-5.078 0-9.238 4.155-9.238 9.237v115.982h35.596v-13.355c0-2.833 2.311-5.152 5.139-5.152h20.656c2.84 0 5.158 2.319 5.158 5.152v13.355h35.6V12.017c-.001-5.082-4.151-9.237-9.241-9.237zM38.146 88.176H25.143V72.475h13.004v15.701zm0-24.955H25.143V47.519h13.004v15.702zm0-24.953H25.143V22.566h13.004v15.702zm21.792 49.908h-13.01V72.475h13.01v15.701zm0-24.955h-13.01V47.519h13.01v15.702zm0-24.953h-13.01V22.566h13.01v15.702zm21.781 49.908H68.717V72.475h13.002v15.701zm0-24.955H68.717V47.519h13.002v15.702zm0-24.953H68.717V22.566h13.002v15.702zm21.791 49.908H90.502V72.475h13.008v15.701zm0-24.955H90.502V47.519h13.008v15.702zm0-24.953H90.502V22.566h13.008v15.702z" fill="#78a3ad"/></g></g></svg>