<svg id="レイヤー_1" xmlns="http://www.w3.org/2000/svg" xmlns:xlink="http://www.w3.org/1999/xlink" viewBox="0 0 128 128"><g><path fill="#fff" d="M18.979 93.297h90.233v17.931H18.979z"/><g><g><defs><path id="SVGID_1_" d="M23.795 51.08l-1.094-7.32s-7.085-3.864-6.118-12.151c.515-4.415 5.477-8.314 10.466-7.655 0 0-.181-7.994 5.431-11.862 3.055-2.101 9.255-3.836 15.256-.879 0 0 2.711-8.516 13.738-8.877 11.017-.366 15.061 5.236 15.061 5.236S80.191.156 92.356.179c11.207.018 19.133 8.323 18.369 20.909-.538 8.826-8.057 16.476-17.98 17.361-11.396 1.017-19.097-6.674-19.097-6.674s-2.838 6.998-13.774 6.91c-9.02-.075-13.556-5.495-13.556-5.495s-5.26 9.53-14.515 3.622c0 0-2.693 5.673-6.322 7.289l-1.686 6.979z"/></defs><use xlink:href="#SVGID_1_" overflow="visible" fill="#78a3ad"/><clipPath id="SVGID_2_"><use xlink:href="#SVGID_1_" overflow="visible"/></clipPath></g><path d="M32.417 89.3l-1.509-46.599a1.95 1.95 0 0 0-1.952-1.889H18.635a1.958 1.958 0 0 0-1.953 1.889L14.92 97.236 32.417 89.3z" fill="#ed6c30"/><path d="M116.93 71.124a2.096 2.096 0 0 0-2.079-.028L83.386 88.564V72.929a2.09 2.09 0 0 0-1.035-1.805 2.095 2.095 0 0 0-2.079-.028l-31.46 17.468V72.929c0-.744-.398-1.43-1.039-1.805a2.095 2.095 0 0 0-2.079-.028L11.125 90.292a2.097 2.097 0 0 0-1.085 1.833V128h107.92V72.929c0-.744-.388-1.43-1.03-1.805zm-79.144 35.522h-13.11v-6.17h13.109v6.17zm33.019 0H57.696v-6.17h13.109v6.17zm33.02 0H90.711v-6.17h13.113v6.17z" fill="#40c0e7"/></g></g></svg>