<svg id="レイヤー_1" xmlns="http://www.w3.org/2000/svg" xmlns:xlink="http://www.w3.org/1999/xlink" viewBox="0 0 128 128"><g><g><g><g><g><path fill="#78a3ad" d="M42.443 27.982H56.66V128H42.443z"/></g><g><g><defs><path id="SVGID_1_" d="M2.273 44.296c-.072 8.498-.054 19.306 6.064 25.133 8.448 8.036 27.216 7.037 38.495 6.97 12.336-.076 32.591.493 40.922-9.029 6.352-7.266 5.948-17.326 5.948-26.285 0-17.29-1.138-26.266-8.036-33.303C78.687.669 57.447.476 47.315.561 37.372.65 17.95.346 11.008 7.002c-7.319 7.015-8.726 9.495-8.726 33.993 0 1.044 0 2.15-.009 3.301z"/></defs><use xlink:href="#SVGID_1_" overflow="visible" fill="#40c0e7"/><clipPath id="SVGID_2_"><use xlink:href="#SVGID_1_" overflow="visible"/></clipPath><g clip-path="url(#SVGID_2_)"><path fill="#ed6c30" d="M-2.968 14.59h105.495v49.296H-2.968z"/></g></g></g></g><g><g><g><g><g><defs><path id="SVGID_3_" d="M114.146 78.965H63.898c-6.378 0-11.601 5.21-11.601 11.588V128h73.442V90.553c0-6.378-5.222-11.588-11.593-11.588z"/></defs><use xlink:href="#SVGID_3_" overflow="visible" fill="#40c0e7"/><clipPath id="SVGID_4_"><use xlink:href="#SVGID_3_" overflow="visible"/></clipPath><path clip-path="url(#SVGID_4_)" fill="#ed6c30" d="M50.434 77.648h78.234v14.255H50.434z"/></g></g></g></g></g></g></g><path d="M88.127 115.379c0 3.234-2.643 5.882-5.877 5.882H64.772c-3.239 0-5.886-2.647-5.886-5.882v-6.884c0-3.229 2.647-5.882 5.886-5.882H82.25c3.234 0 5.877 2.652 5.877 5.882v6.884z" fill="#fcc21b"/><g><g><g><g><path d="M98.586 128v-18.892c0-3.523 2.867-6.403 6.396-6.403h4.031c3.525 0 6.414 2.88 6.414 6.403V128H98.586z" fill="#fcc21b"/></g></g></g></g><path d="M66.165 41.304c.072-.766-.036-1.581.116-2.336.188-.947.332-2.372 1.102-2.976 1.335-1.048 3.61-.934 4.712.49.26.325.412.797.501 1.34.237 1.391.054 3.231.067 4.28v.414l.013.025.081.414.17.372c.232.387.546.312.887.401l.376.051c.546-.013 1.102-.009 1.639-.031.269-.011.529-.009.789-.011l.062-.009c.34-.09.654-.014.887-.401l.17-.372.081-.414.009-.007v-.432c.018-1.048-.17-2.889.067-4.28.089-.542.246-1.015.506-1.34 1.102-1.424 3.378-1.538 4.712-.49.762.604.91 2.029 1.093 2.976.157.755.053 1.57.126 2.336.081.867.054 1.727.054 2.589 0 .76-.009 1.519-.036 2.277-.072 2.005-.072 4.03-.09 6.086-.026 2.392.699 5.657-2.736 5.997-.708.079-1.671.104-2.316-.165-1.075-.439-1.308-1.373-1.371-2.486-.089-1.496-.062-2.997-.04-4.499l-.059-.285-.17-.371c-.233-.383-.547-.316-.887-.401l-.457-.062c-.735.011-1.46.029-2.195.038l-.215.024c-.34.085-.654.018-.887.401l-.17.371-.062.329c.027 1.488.049 2.975-.041 4.455-.067 1.113-.3 2.047-1.366 2.486-.653.269-1.612.244-2.32.165-3.431-.34-2.705-3.605-2.732-5.997-.018-2.056-.018-4.081-.089-6.086a64.005 64.005 0 0 1-.045-2.277c.01-.863-.021-1.722.064-2.589z" fill="#fff"/><path d="M25.095 49.676c1.25.689 2.8.199 4.144.289 1.429.09 2.696-.282 3.941.427 2.32 1.313 2.795 5.36.305 6.847-1.299.773-2.75.551-4.166.832-1.416.273-3.091.219-4.533.137-2.24-.127-5.142.262-7.337-.746-2.034-.929-3.467-4.533-3.082-6.945.26-1.599 1.389-3.48 2.445-4.708 1.846-2.145 3.718-4.293 5.563-6.414 1.595-1.807 4.663-4.646 3.427-7.496-1.321-3.035-4.717-1.057-6.562.128-1.263.815-2.445 1.373-3.852.748-1.711-.768-2.271-3.258-1.743-5.113.604-2.108 2.123-3.582 3.768-4.699 1.326-.905 2.562-1.668 4.085-1.999.708-.155 1.514-.435 2.194-.478 1.864-.137 3.897.199 5.716.75 2.544.762 4.471 2.45 5.608 5.066 3.368 7.746-4.793 15.699-9.541 20.04-1.164 1.065-2.064 2.409-.38 3.334z" fill="#fff"/><path d="M61.99 39.864c-1.043-.419-2.696.618-3.592-.829-1.379-2.256.139-6.105.117-8.647-.027-2.741-.26-6.105-2.419-7.776-1.666-1.283-4.067-1.028-5.823-.235-2.078.929-3.843 2.632-5.464 4.502-.744.852-1.452 1.748-2.159 2.622-2.508 3.113-5.017 6.383-6.154 10.457-.565 1.987-1.026 4.812.197 6.797 1.201 1.969 4.094 2.705 6.047 2.795.108.004.242 0 .363 0 1.688-.002 4.255-.439 4.511 2.145.232 2.227-.054 4.473 1.787 5.962 1.034.84 2.853.779 4.251.298.461-.161.877-.368 1.191-.605 1.979-1.467 1.474-3.57 1.773-5.981.448-3.689 4.47-1.489 6.146-3.631 1.504-1.944 1.763-6.86-.772-7.874zm-12.64 1.1a4.925 4.925 0 0 1-.837.244c-1.277.242-2.88.037-3.727-1.033-.269-.35-.408-.65-.43-1.1-.13-1.895 1.545-3.31 2.567-4.499.564-.665 1.16-1.355 1.917-1.714 1.317-.611 1.962.93 2.186 2.195.393 2.202.447 5.043-1.676 5.907z" fill="#fff"/></g></svg>