<svg id="レイヤー_1" xmlns="http://www.w3.org/2000/svg" viewBox="0 0 128 128"><g><path fill="#40c0e7" d="M21.46 55.026h82.557V128H21.46z"/><g><path fill="#40c0e7" d="M84.062 55.026v-35.62H46.286v35.62H21.46v37.237h86.346V55.026z"/><path d="M114.829 36.226L67.995 3.075c-2.191-1.551-5.781-1.551-7.982 0l-46.84 33.15c-2.199 1.551-3.992 5.021-3.992 7.71v43.671c0 .206.033.403.064.6v39.792h38.166v-24.241a5.53 5.53 0 0 1 5.52-5.522h22.146c3.041 0 5.527 2.482 5.527 5.522v24.241h38.178V88.024c.006-.14.037-.276.037-.417V43.936c0-2.689-1.789-6.16-3.99-7.71zM44.585 83.007H28.423V71.755a8.084 8.084 0 0 1 8.084-8.085c4.459 0 8.078 3.621 8.078 8.085v11.252zm27.496 0H55.919V71.755a8.085 8.085 0 0 1 8.086-8.085c4.459 0 8.076 3.621 8.076 8.085v11.252zm27.496 0H83.411V71.755c0-4.464 3.625-8.085 8.09-8.085 4.459 0 8.076 3.621 8.076 8.085v11.252z" fill="#fcc21b"/></g><path d="M60.013 12.668c2.201-1.553 5.791-1.553 7.982 0l50.82 35.783.004-4.52c0-2.687-1.789-6.155-3.99-7.706L67.995 3.075c-2.191-1.553-5.781-1.553-7.982 0l-46.84 33.15c-2.199 1.551-3.945 5.019-3.945 7.706v4.492l50.785-35.755z" fill="#ed6c30"/><path d="M77.317 37.781c0 1.12-.916 2.038-2.043 2.038h-6.146a2.044 2.044 0 0 0-2.039 2.042v6.151c0 1.124-.92 2.042-2.045 2.042h-2.078a2.05 2.05 0 0 1-2.039-2.042v-6.151a2.043 2.043 0 0 0-2.037-2.042h-6.154a2.046 2.046 0 0 1-2.043-2.038v-2.08c0-1.124.918-2.042 2.043-2.042h22.539c1.127 0 2.043.918 2.043 2.042v2.08z" fill="#ed6c30"/><path d="M77.317 27.733a2.045 2.045 0 0 1-2.043 2.042H52.735a2.046 2.046 0 0 1-2.043-2.042v-2.08c0-1.119.918-2.037 2.043-2.037h22.539c1.127 0 2.043.919 2.043 2.037v2.08z" fill="#ed6c30"/></g></svg>