<svg id="レイヤー_1" xmlns="http://www.w3.org/2000/svg" xmlns:xlink="http://www.w3.org/1999/xlink" viewBox="0 0 128 128"><g><path d="M85.235 33.375c-.391.755-.821 1.458-1.321 2.015-2.533 2.814-5.764 4.473-9.043 5.9-3.407 1.484-5.86 2.818-8.446 5.681-.658.838-1.778 3.112-3.082 2.879-1.207-.219-1.769-2.089-2.484-2.879-2.59-2.862-5.04-4.197-8.446-5.681-3.279-1.427-6.51-3.086-9.043-5.9-.501-.558-.931-1.26-1.321-2.015-1.787-3.441-2.393-8.542-.988-11.914 2.094-5.035 5.659-7.915 10.553-7.884 2.217.008 4.368.18 6.396 1.128 1.879.878 3.529 2.156 5.237 3.31.522.352.935.294 1.466-.057 1.677-1.102 2.972-2.322 4.859-3.139 1.76-.764 3.622-1.203 5.544-1.238l.544-.004c4.899-.031 8.468 2.849 10.557 7.884 1.406 3.372.805 8.473-.982 11.914z" fill="#fff"/><path fill="#fcc21b" d="M22.871 52.486h82.782V128H22.871z"/><g><defs><path id="SVGID_1_" d="M108.562 25.083L67.312 2.05c-1.817-1.014-4.793-1.014-6.615 0L19.438 25.083c-1.822 1.014-3.31 3.551-3.31 5.637v29.235c0 .057.018.114.018.171V128h33.357v-12.51c0-2.661 2.165-4.829 4.82-4.829h19.359c2.656 0 4.833 2.168 4.833 4.829V128h33.358V30.719c0-2.085-1.489-4.623-3.311-5.636zm-69.449 71.79h-12.19V82.158h12.19v14.715zm0-25.773h-12.19V56.386h12.19V71.1zm20.416 25.773h-12.19V82.158h12.19v14.715zm0-25.773h-12.19V56.386h12.19V71.1zm20.417 25.773h-12.19V82.158h12.19v14.715zm0-25.773h-12.19V56.386h12.19V71.1zm5.289-37.725c-.391.755-.821 1.458-1.321 2.015-2.533 2.814-5.764 4.473-9.043 5.9-3.407 1.484-5.86 2.818-8.446 5.681-.658.838-1.778 3.112-3.082 2.879-1.207-.219-1.769-2.089-2.484-2.879-2.59-2.862-5.04-4.197-8.446-5.681-3.279-1.427-6.51-3.086-9.043-5.9-.501-.558-.931-1.26-1.321-2.015-1.787-3.441-2.393-8.542-.988-11.914 2.094-5.035 5.659-7.915 10.553-7.884 2.217.008 4.368.18 6.396 1.128 1.879.878 3.529 2.156 5.237 3.31.522.352.935.294 1.466-.057 1.677-1.102 2.972-2.322 4.859-3.139 1.76-.764 3.622-1.203 5.544-1.238l.544-.004c4.899-.031 8.468 2.849 10.557 7.884 1.406 3.372.805 8.473-.982 11.914zm15.127 63.498h-12.19V82.158h12.19v14.715zm0-25.773h-12.19V56.386h12.19V71.1z"/></defs><use xlink:href="#SVGID_1_" overflow="visible" fill="#d7598b"/><clipPath id="SVGID_2_"><use xlink:href="#SVGID_1_" overflow="visible"/></clipPath><path d="M112.36 28.827c-.044-2.331-1.603-5.294-3.517-6.633L67.497-.308c-1.94-1.357-5.105-1.357-7.045 0L19.095 22.194c-1.932 1.353-3.468 4.364-3.476 6.704l-.013.008.013 5.369L60.451 9.499c.987-.689 2.3-1.023 3.595-1.009 1.304-.014 2.616.32 3.6 1.009l44.836 24.776.013-5.369-.135-.079z" clip-path="url(#SVGID_2_)" fill="#803c3d"/></g><path d="M74.402 22.348c-.215-.878-.382-2.19-1.278-2.753-1.545-.966-4.183-.855-5.465.453-.298.303-.479.737-.584 1.238-.271 1.282-.057 2.98-.074 3.951v.399l-.004.004-.092.382-.202.342c-.268.356-.632.289-1.027.369l-.076.009c-.303.005-.605 0-.913.014-.628.021-1.269.017-1.905.026l-.43-.049c-.391-.079-.76-.013-1.027-.369l-.197-.342-.097-.382-.014-.022v-.382c-.018-.97.198-2.669-.079-3.951-.105-.501-.285-.935-.583-1.238-1.282-1.308-3.92-1.418-5.465-.453-.891.562-1.058 1.875-1.273 2.753-.176.693-.057 1.444-.141 2.151-.096.799-.061 1.593-.066 2.392 0 .698.014 1.396.044 2.094.066 1.449.07 2.915.083 4.39.004.413.018.816.026 1.229.026 2.212-.812 5.219 3.165 5.54.825.065 1.936.092 2.687-.154 1.242-.408 1.51-1.269 1.589-2.296.101-1.369.079-2.739.048-4.112l.048-.207.027-.097.197-.342c.268-.355.637-.286 1.027-.369l.245-.026c.848-.009 1.699-.022 2.546-.036l.531.061c.395.083.759.014 1.027.369l.202.342.022.097.044.167c-.04 1.387-.062 2.77.043 4.152.079 1.027.343 1.888 1.585 2.296.755.246 1.866.219 2.691.154 3.977-.321 3.134-3.328 3.165-5.54.004-.413.018-.816.022-1.229.018-1.475.026-2.941.088-4.39.031-.698.044-1.396.044-2.094-.004-.799.026-1.593-.066-2.392-.081-.705.037-1.455-.138-2.149z" fill="#d7598b"/></g></svg>