<svg id="レイヤー_1" xmlns="http://www.w3.org/2000/svg" xmlns:xlink="http://www.w3.org/1999/xlink" viewBox="0 0 128 128"><g><path fill="#855c52" d="M44.461 97.077h23.157v30.894H44.461z"/><g><g><defs><path id="SVGID_1_" d="M41.989 48.174c-3.128-7.377-11.035-19.312-17.794-19.315-6.788-.004-14.069 11.057-17.013 17.473C3.502 54.348.434 65.141.434 78.872c0 17.408 7.515 27.03 15.443 30.887l-.013.004.088.045c.774.384 1.564.899 2.127 1.591.658.824.73 2.543.732 3.124v7.633s-.091 2.909-.362 3.803c-.178.568-.784 1.266-.816 2.012H28.884V89.748c0-3.025 1.623-6.697 3.861-8.733l14.461-13.158c-.989-7.719-2.934-14.288-5.217-19.683z"/></defs><use xlink:href="#SVGID_1_" overflow="visible" fill="#855c52"/><clipPath id="SVGID_2_"><use xlink:href="#SVGID_1_" overflow="visible"/></clipPath><path d="M15.953 109.809s5.101 1.929 10.104 1.929c0 0 5.436.515 9.94-2.362L50.13 67.604l-7.507-32.645-16.883-9.883-8.506.878L.977 47.84s-5.254 27.393-5.254 27.768 4.376 26.14 4.376 26.14l7.88 5.378 7.974 2.683z" clip-path="url(#SVGID_2_)" fill="#bdcf46"/></g><path d="M123.78 113.835c-.493-.272-1.183-.458-1.521-.952-.467-.692-.008-1.533-.008-2.279 0-3.371-2.287-6.615-5.671-7.299-.631-.128-1.34.045-1.937-.223-.865-.379-.751-1.252-.956-2.039-.312-1.224-.897-2.349-1.779-3.264-1.325-1.376-3.115-2.205-5.054-2.205-1.153 0-2.232.313-3.195.828V128h16.799c3.541 0 6.59-2.853 7.034-6.302.404-3.124-.89-6.309-3.712-7.863z" fill="#bdcf46"/></g><g><path fill="#fff" d="M71.496 91.409h22.79v24.689h-22.79z"/><g><defs><path id="SVGID_3_" d="M68.748 58.473c-1.365-1.241-3.598-1.241-4.958 0L47.719 73.099l-12.133 11.04c-1.363 1.24-2.48 3.762-2.48 5.609v34.872a3.361 3.361 0 0 0 3.353 3.351h12.945v-23a2.556 2.556 0 0 1 2.543-2.547h10.208c1.4 0 2.55 1.15 2.55 2.547v23h31.378a3.36 3.36 0 0 0 3.354-3.351V89.748c0-1.847-1.117-4.369-2.484-5.609L68.748 58.473zm12.021 53.314h-3.642a3.109 3.109 0 0 1-3.096-3.095v-3.119h6.737v6.214zm0-9.169h-6.737v-4.17a3.108 3.108 0 0 1 3.096-3.095h3.642v7.265zm9.697 6.074a3.105 3.105 0 0 1-3.096 3.095h-3.647v-6.214h6.743v3.119zm0-6.074h-6.743v-7.265h3.647a3.105 3.105 0 0 1 3.096 3.095v4.17z"/></defs><use xlink:href="#SVGID_3_" overflow="visible" fill="#fcc21b"/><clipPath id="SVGID_4_"><use xlink:href="#SVGID_3_" overflow="visible"/></clipPath><path clip-path="url(#SVGID_4_)" fill="#ef6b00" d="M102.714 88.82H29.498l37.028-33.508z"/></g></g></g></svg>