<svg id="レイヤー_1" xmlns="http://www.w3.org/2000/svg" viewBox="0 0 128 128"><g><path fill="#006ca2" d="M39.459 102.22h47.967V128H39.459z"/><g><path fill="#006ca2" d="M80.816 44.758V9.678H47.361v35.08H10.123v60.446h105.779V44.758z"/><path d="M113.811 36.9H95.852c-2.031 0-3.836-.258-4.986-1.205-1.121-.917-1.443-2.705-1.467-4.12V13.181c0-5.45-4.457-9.905-9.904-9.905h-30.99c-5.453 0-9.912 4.455-9.912 9.905v18.395c-.018 1.414-.346 3.202-1.461 4.12-1.152.946-2.961 1.205-4.988 1.205H14.188c-5.457 0-9.912 4.454-9.912 9.907V128h43.123v-12.98c0-3.04 2.473-5.527 5.518-5.527h22.148c3.039 0 5.525 2.487 5.525 5.527V128h43.135V46.807c0-5.453-4.461-9.907-9.914-9.907zM28.877 95.121H16.559V79.419h12.318v15.702zm0-24.956H16.559V54.463h12.318v15.702zm20.639 24.956h-12.32V79.419h12.32v15.702zm0-24.956h-12.32V54.463h12.32v15.702zm20.638 24.956h-12.33V79.419h12.33v15.702zm0-24.956h-12.33V54.463h12.33v15.702zm20.629 24.956H78.469V79.419h12.314v15.702zm0-24.956H78.469V54.463h12.314v15.702zm20.639 24.956H99.104V79.419h12.318v15.702zm0-24.956H99.104V54.463h12.318v15.702z" fill="#40c0e7"/></g><path d="M74.988 27.204a2.042 2.042 0 0 1-2.033 2.042h-3.324a2.05 2.05 0 0 0-2.043 2.038v3.321c0 1.12-.918 2.037-2.037 2.037H62.43a2.044 2.044 0 0 1-2.037-2.037v-3.321c0-1.12-.918-2.038-2.043-2.038h-3.316a2.05 2.05 0 0 1-2.043-2.042v-3.119a2.05 2.05 0 0 1 2.043-2.038h3.316a2.047 2.047 0 0 0 2.043-2.042v-3.317c0-1.124.918-2.042 2.037-2.042h3.121c1.119 0 2.037.918 2.037 2.042v3.317a2.05 2.05 0 0 0 2.043 2.042h3.324c1.119 0 2.033.918 2.033 2.038v3.119z" fill="#ed6c30"/></g></svg>