<svg id="レイヤー_1" xmlns="http://www.w3.org/2000/svg" xmlns:xlink="http://www.w3.org/1999/xlink" viewBox="0 0 128 128"><g><path fill="#fcc21b" d="M41.745 106.521h46.451V128H41.745z"/><path fill="#fcc21b" d="M103.606 47.497h-20.43V15.744H44.968v31.753H21.982v54.882h22.986v.264h38.208v-.264h20.43z"/><path fill="#fff" d="M48.11 13.996h34.092v31.842H48.11z"/><g><defs><path id="SVGID_1_" d="M108.558 25.083L67.311 2.049c-1.815-1.013-4.793-1.013-6.618 0L19.437 25.083c-1.826 1.013-3.309 3.551-3.309 5.636v29.236c0 .057.018.114.018.171V128h33.356v-12.511c0-2.66 2.165-4.828 4.815-4.828h19.357c2.657 0 4.834 2.168 4.834 4.828V128h33.363V30.719c.001-2.085-1.487-4.622-3.313-5.636zM39.107 96.872h-12.19V82.158h12.19v14.714zm0-25.771h-12.19V56.386h12.19v14.715zm20.415 25.771H47.335V82.158h12.187v14.714zm0-25.771H47.335V56.386h12.187v14.715zm7.518-37.726v-.069l-.071-.294-.201-.382c-.278-.399-.65-.321-1.055-.413l-.549-.066c-.864.014-1.739.031-2.602.036l-.256.03c-.402.092-.772.014-1.053.413l-.206.382-.075.338v.026c.034 1.52.062 3.039-.044 4.557-.088 1.146-.361 2.103-1.633 2.556-.767.276-1.909.25-2.757.171-4.074-.351-3.212-3.705-3.239-6.172-.01-.373-.019-.737-.019-1.111-.019-1.729-.031-3.45-.095-5.148a67.413 67.413 0 0 1-.046-2.336c0-.892-.035-1.778.071-2.664.078-.791-.038-1.629.139-2.401.222-.975.397-2.441 1.306-3.064 1.589-1.08 4.288-.957 5.605.504.306.339.485.821.598 1.379.281 1.427.065 3.323.078 4.399v.43l.017.027.094.425.206.377c.28.399.65.32 1.053.413l.439.052c.657-.009 1.317-.004 1.953-.03.316-.014.624-.01.935-.014l.079-.008c.404-.093.776-.014 1.055-.413l.201-.377.097-.425.009-.009v-.448c.019-1.076-.206-2.972.077-4.399.106-.558.291-1.04.599-1.379 1.314-1.461 4.018-1.584 5.601-.504.914.624 1.089 2.089 1.309 3.064.176.773.062 1.611.142 2.401.103.886.071 1.772.071 2.664 0 .777-.015 1.558-.05 2.336-.067 1.698-.075 3.419-.092 5.148 0 .374-.009.738-.018 1.111-.031 2.467.833 5.821-3.245 6.172-.846.079-1.98.105-2.751-.171-1.274-.453-1.551-1.409-1.635-2.556-.104-1.52-.079-3.039-.042-4.558zm12.903 63.497H67.75V82.158h12.193v14.714zm0-25.771H67.75V56.386h12.193v14.715zm20.416 25.771H88.165V82.158h12.194v14.714zm0-25.771H88.165V56.386h12.194v14.715z"/></defs><use xlink:href="#SVGID_1_" overflow="visible" fill="#b89278"/><clipPath id="SVGID_2_"><use xlink:href="#SVGID_1_" overflow="visible"/></clipPath><path d="M112.354 28.827c-.039-2.331-1.602-5.294-3.517-6.633L67.492-.307c-1.938-1.356-5.106-1.356-7.045 0L19.093 22.194c-1.93 1.353-3.467 4.364-3.474 6.704l-.018.009.018 5.369L60.447 9.499c.99-.689 2.299-1.022 3.597-1.009 1.301-.013 2.613.32 3.6 1.009l44.838 24.776.009-5.369-.137-.079z" clip-path="url(#SVGID_2_)" fill="#803c3d"/></g></g></svg>