<svg id="レイヤー_1" xmlns="http://www.w3.org/2000/svg" viewBox="0 0 128 128"><g><ellipse cx="65.145" cy="11.854" rx="17.311" ry="7.818" fill="#fcc21b"/><g><path d="M107.152 58.95c-.849 35.804-5.494 53.543-37.414 55.773-23.107 1.615-41.943-23.471-41.943-52.427 0-28.955 22.557-54.951 45.032-49.338 20.96 5.236 35.138 11.634 34.325 45.992z" fill="#fcc21b"/><g><path d="M69.002 115.748l.004.089s-1.645.107-4.211.08c-2.574.027-4.215-.08-4.215-.08l.004-.089c-5.885-.389-13.696-1.598-19.572-5.03v4.539h.049c-.012.165-.049.325-.049.491 0 6.632 10.651 12.01 23.783 12.01 12.807 0 23.216-5.118 23.727-11.522h.048v-5.516c-5.877 3.43-13.687 4.639-19.568 5.028z" fill="#2f2f2f"/><path d="M94.877 102.883c-4.911 1.991-11.399 2.677-14.689 1.464-.905-.333-1.589-.836-1.951-1.544-.664-1.288.016-2.804 1.384-3.639 2.155-1.321 14.338-1.052 22.286-9.197 2.023-2.069 3.536-4.508 1.987-7.243-.233-.412-.596-.604-1.006-.665-2.031.994-5.953 3.193-9.042 4.285-4.995 1.766-10.369 1.691-13.659.479-.905-.334-1.589-.837-1.951-1.544-.664-1.287.016-2.804 1.384-3.639 2.155-1.321 16.249-2.132 24.197-10.276 2.023-2.069 3.536-4.509 1.987-7.244-.233-.412-.595-.604-1.005-.666-2.031.996-5.953 3.193-9.042 4.286-4.996 1.766-12.28 2.771-15.57 1.559-.905-.335-1.589-.837-1.951-1.545-.664-1.286.016-2.803 1.384-3.638 2.155-1.322 16.249-2.132 24.197-10.277 2.023-2.068 3.536-4.509 1.987-7.243-.953-1.684-3.982.24-3.982.24-1.746 1.208-3.958 2.634-6.065 3.38-4.996 1.766-12.28 2.771-15.57 1.558-.905-.333-1.589-.837-1.951-1.544-.664-1.287.016-2.804 1.384-3.639 2.155-1.32 7.594-.708 15.477-4.956 4.586-2.468 7.023-5.901 7.827-9.433-1.251-2.514-2.679-4.731-4.308-6.626-2.47-2.874-5.836-5.654-10.047-7.948v4.135h-.048c-.511 6.405-10.924 11.521-23.727 11.521-13.132 0-23.783-5.376-23.783-12.01 0-.165.037-.323.049-.489h-.049V17.63c-4.207 2.295-7.578 5.073-10.043 7.946-7.385 8.595-10.988 23.541-9.991 45.116.913 19.833 8.551 33.215 19.877 39.944 5.893 3.501 13.792 4.72 19.729 5.112l-.004.089s1.641.107 4.215.08c2.566.027 4.211-.08 4.211-.08l-.004-.089c5.937-.393 13.84-1.604 19.729-5.112 3.83-2.283 8.205-5.887 10.909-10.327-.901.772-2.381 1.608-4.762 2.574z" fill="#ed6c30"/><path d="M64.795.243c-13.132 0-23.783 5.378-23.783 12.015v8.526h.049c-.012.166-.049.324-.049.489 0 6.634 10.651 12.01 23.783 12.01 12.803 0 23.216-5.116 23.727-11.521h.048v-9.504C88.57 5.621 77.923.243 64.795.243zm0 18.508c-8.527 0-15.445-3.163-15.445-7.066 0-3.901 6.918-7.067 15.445-7.067 8.523 0 15.437 3.166 15.437 7.067 0 3.903-6.914 7.066-15.437 7.066z" fill="#2f2f2f"/></g></g></g></svg>