<svg id="レイヤー_1" xmlns="http://www.w3.org/2000/svg" xmlns:xlink="http://www.w3.org/1999/xlink" viewBox="0 0 128 128"><g><path fill="#855c52" d="M33.14 75.067h31.272v52.932H33.14z"/><g><path fill="#fff" d="M74.015 72.273h32.236v32.59H74.015z"/></g><g><defs><path id="SVGID_1_" d="M113.784 56.877L68.019 15.231c-2.211-2.014-5.832-2.014-8.043 0L14.21 56.877c-2.215 2.015-4.024 6.109-4.024 9.097v56.585c0 2.994 2.445 5.439 5.434 5.439h21.014V90.684c0-2.277 1.855-4.136 4.127-4.136h16.564a4.15 4.15 0 0 1 4.137 4.136v37.315h50.91c2.99 0 5.441-2.445 5.441-5.439V65.975c0-2.989-1.814-7.082-4.029-9.098zm-26.256 44.862h-5.91c-2.76 0-5.025-2.263-5.025-5.027v-5.054h10.936v10.081zm0-14.877H76.593v-6.77c0-2.763 2.266-5.025 5.025-5.025h5.91v11.795zm15.737 9.85a5.04 5.04 0 0 1-5.027 5.027h-5.91V91.658h10.938v5.054zm0-9.85H92.327V75.067h5.91a5.04 5.04 0 0 1 5.027 5.025v6.77z"/></defs><use xlink:href="#SVGID_1_" overflow="visible" fill="#fcc21b"/><clipPath id="SVGID_2_"><use xlink:href="#SVGID_1_" overflow="visible"/></clipPath><path clip-path="url(#SVGID_2_)" fill="#ed6c30" d="M64.716 26.294l53.982 49.986 1.262.014.57-18.254L64.716 6.358 7.597 58.04l-.36 17.055 3.502.038z"/></g><circle cx="42.865" cy="107.698" r="3.599" fill="#fff"/></g></svg>