<svg id="レイヤー_1" xmlns="http://www.w3.org/2000/svg" xmlns:xlink="http://www.w3.org/1999/xlink" viewBox="0 0 128 128"><g><path d="M124.359 128H3.643c-.438 0-.83-.265-.992-.666a1.061 1.061 0 0 1 .25-1.168c6.375-6.152 12.488-27.668 12.551-27.885.129-.46.55-.777 1.025-.777h95.048c.512 0 .938.358 1.041.837.334 1.169 6.321 21.831 12.534 27.823a1.067 1.067 0 1 1-.741 1.836z" fill="#78a3ad"/><g><g><g><g><path fill="#fff" d="M18.381 74.601h91.239v24.064H18.381z"/><path d="M106.191 79.935v18.73H21.81v-18.73h84.381m5.334-5.334H16.477v24.064h95.048V74.601z" fill="#78a3ad"/></g><g><path fill="#fff" d="M30.303 49.518h67.404v21.618H30.303z"/><path d="M92.373 54.852v10.951H35.637V54.852h56.736m5.334-5.334H30.303v21.618h67.404V49.518z" fill="#78a3ad"/></g><g><path fill="#fff" d="M39.75 23.585h48.503v29.64H39.75z"/><path d="M82.919 28.919v18.972H45.083V28.919h37.836m5.333-5.334H39.75v29.64h48.503v-29.64h-.001z" fill="#78a3ad"/></g><g><defs><path id="SVGID_1_" d="M93.636 45.266H34.37s-4.709 7.382-15.484 7.382c0 0 2.617 1.756 5.284 1.756h79.664c2.666 0 5.283-1.756 5.283-1.756-10.776-.001-15.481-7.382-15.481-7.382z"/></defs><defs><path id="SVGID_2_" d="M103.833 55.47H24.169c-2.955 0-5.759-1.858-5.88-1.938a1.076 1.076 0 0 1-.429-1.196c.142-.45.554-.756 1.025-.756 10.076 0 14.538-6.819 14.584-6.888.191-.309.533-.494.9-.494h59.266c.363 0 .7.186.896.492.183.281 4.559 6.89 14.584 6.89.471 0 .884.306 1.025.756.133.45-.042.936-.429 1.196-.119.08-2.924 1.938-5.878 1.938zm-80.447-2.189c.259.035.521.056.784.056h79.664c.258 0 .517-.021.779-.056-6.788-1.354-10.438-5.502-11.53-6.948H34.916c-1.088 1.445-4.742 5.596-11.53 6.948z"/></defs><use xlink:href="#SVGID_1_" overflow="visible" fill="#006ca2"/><use xlink:href="#SVGID_2_" overflow="visible" fill="#006ca2"/><clipPath id="SVGID_3_"><use xlink:href="#SVGID_1_" overflow="visible"/></clipPath><clipPath id="SVGID_4_" clip-path="url(#SVGID_3_)"><use xlink:href="#SVGID_2_" overflow="visible"/></clipPath></g><g fill="#006ca2"><path d="M93.636 45.266H34.37s-4.709 7.382-15.484 7.382c0 0 2.617 1.756 5.284 1.756h79.664c2.666 0 5.283-1.756 5.283-1.756-10.776-.001-15.481-7.382-15.481-7.382z"/><path d="M103.833 55.47H24.169c-2.955 0-5.759-1.858-5.88-1.938a1.076 1.076 0 0 1-.429-1.196c.142-.45.554-.756 1.025-.756 10.076 0 14.538-6.819 14.584-6.888.191-.309.533-.494.9-.494h59.266c.363 0 .7.186.896.492.183.281 4.559 6.89 14.584 6.89.471 0 .884.306 1.025.756.133.45-.042.936-.429 1.196-.119.08-2.924 1.938-5.878 1.938zm-80.447-2.189c.259.035.521.056.784.056h79.664c.258 0 .517-.021.779-.056-6.788-1.354-10.438-5.502-11.53-6.948H34.916c-1.088 1.445-4.742 5.596-11.53 6.948z"/></g><g><defs><path id="SVGID_5_" d="M82.302 12.84H45.695s-5.542 15.841-14.801 12.984c0 0 1.634 3.248 7.967 3.248h50.274c6.334 0 7.972-3.248 7.972-3.248-9.258 2.857-14.805-12.984-14.805-12.984z"/></defs><defs><path id="SVGID_6_" d="M89.136 30.14H38.862c-6.909 0-8.842-3.68-8.917-3.836a1.06 1.06 0 0 1 1.266-1.497 6.458 6.458 0 0 0 1.9.295c7.067 0 11.534-12.488 11.58-12.613.15-.429.554-.714 1.004-.714h36.607c.454 0 .858.288 1.008.714.046.125 4.513 12.613 11.576 12.613.629 0 1.267-.1 1.904-.295a1.06 1.06 0 1 1 1.266 1.497c-.074.156-2.007 3.836-8.92 3.836zm-54.949-2.975c1.066.469 2.579.842 4.675.842h50.274c2.101 0 3.613-.373 4.68-.842-6.917-.917-11.167-10.507-12.251-13.257H46.433c-1.079 2.75-5.333 12.34-12.246 13.257z"/></defs><use xlink:href="#SVGID_5_" overflow="visible" fill="#006ca2"/><use xlink:href="#SVGID_6_" overflow="visible" fill="#006ca2"/><clipPath id="SVGID_7_"><use xlink:href="#SVGID_5_" overflow="visible"/></clipPath><clipPath id="SVGID_8_" clip-path="url(#SVGID_7_)"><use xlink:href="#SVGID_6_" overflow="visible"/></clipPath></g><g fill="#006ca2"><path d="M82.302 12.84H45.695s-5.542 15.841-14.801 12.984c0 0 1.634 3.248 7.967 3.248h50.274c6.334 0 7.972-3.248 7.972-3.248-9.258 2.857-14.805-12.984-14.805-12.984z"/><path d="M89.136 30.14H38.862c-6.909 0-8.842-3.68-8.917-3.836a1.06 1.06 0 0 1 1.266-1.497 6.458 6.458 0 0 0 1.9.295c7.067 0 11.534-12.488 11.58-12.613.15-.429.554-.714 1.004-.714h36.607c.454 0 .858.288 1.008.714.046.125 4.513 12.613 11.576 12.613.629 0 1.267-.1 1.904-.295a1.06 1.06 0 1 1 1.266 1.497c-.074.156-2.007 3.836-8.92 3.836zm-54.949-2.975c1.066.469 2.579.842 4.675.842h50.274c2.101 0 3.613-.373 4.68-.842-6.917-.917-11.167-10.507-12.251-13.257H46.433c-1.079 2.75-5.333 12.34-12.246 13.257z"/></g><g fill="#006ca2"><path d="M48.046 27.702c10.518-6.459 15.955-18.23 15.955-18.23h-.004s5.438 11.772 15.959 18.23h-31.91z"/><path d="M79.998 29.302a.144.144 0 0 1-.042 0h-31.91a1.602 1.602 0 0 1-.842-2.965c9.792-6.009 14.976-16.751 15.334-17.51a1.599 1.599 0 0 1 2.945.044c.496 1.042 5.604 11.409 15.118 17.347.587.237.996.812.996 1.483a1.596 1.596 0 0 1-1.599 1.601zm-26.989-3.2h21.984c-5.438-4.5-9.117-10.003-10.992-13.233-1.875 3.23-5.555 8.733-10.992 13.233z"/></g><path d="M38.495 9.476C38.32 6.913 39.628 4.15 42.1 3.142c.55-.225 1.546-.438 2.121-.184.958.421.475 1.636.258 2.332-.325 1.006-.825 2.629.279 3.327.904.577 2.055.509 2.971 1.032 1.1.621 1.717 1.936 1.467 3.175-.517 2.606-3.617 2.973-5.75 2.473-.921-.217-2.104-.648-2.817-1.302-1.317-1.211-2.017-2.836-2.134-4.519z" fill="#fcc21b"/><path d="M89.507 9.476c.175-2.563-1.133-5.325-3.604-6.333-.55-.225-1.546-.438-2.121-.184-.958.421-.475 1.636-.258 2.332.32 1.006.825 2.629-.279 3.327-.904.577-2.055.509-2.971 1.032-1.1.621-1.717 1.936-1.467 3.175.517 2.606 3.613 2.973 5.746 2.473.921-.217 2.104-.648 2.821-1.302 1.316-1.212 2.016-2.837 2.133-4.52z" fill="#fcc21b"/><g fill="#006ca2"><path d="M30.357 67.923c22.189-6.461 33.648-18.232 33.648-18.232h-.008S75.46 61.462 97.649 67.923H30.357z"/><path d="M97.69 70.815H30.357a2.891 2.891 0 1 1-.808-5.669c19.922-5.802 31.023-16.151 32.273-17.361 1.067-1.217 3.221-1.238 4.313-.048.962.946 12.017 11.446 32.106 17.347a2.893 2.893 0 0 1-.551 5.731zm-51.62-5.784h35.865C72.947 60.737 66.934 56.127 64 53.612c-2.928 2.515-8.945 7.125-17.93 11.419z"/></g><path d="M73.543 26.623c-6.117-3.494-9.53-10.211-9.53-10.211l-.013.031v-.031s-3.763 6.984-9.521 10.219l19.064-.008z" fill="#fff"/><path d="M81.377 64.807c-10.272-1.104-17.355-10.211-17.355-10.211l-.013.031v-.031s-7.071 9.111-17.338 10.22l34.706-.009z" fill="#fff"/><path d="M51.934 44.317v-5.459a3.53 3.53 0 0 1 3.529-3.531 3.534 3.534 0 0 1 3.534 3.531v5.459h-7.063z" fill="#2f2f2f"/><path d="M76.098 44.317v-5.459a3.534 3.534 0 1 0-7.068 0v5.459h7.068z" fill="#2f2f2f"/><g fill="#2f2f2f"><path d="M57.768 84.895h4.242v7.832h-4.242z"/><path d="M65.972 84.895h4.242v7.832h-4.242z"/></g><g fill="#2f2f2f"><path d="M33.937 84.895h4.242v7.832h-4.242z"/><path d="M42.137 84.895h4.242v7.832h-4.242z"/></g><g fill="#2f2f2f"><path d="M89.824 84.895h4.242v7.832h-4.242z"/><path d="M81.623 84.895h4.238v7.832h-4.238z"/></g></g><g><defs><path id="SVGID_9_" d="M109.183 65.742H18.819S11.59 76.305 2.91 76.651c0 0 3.55 2.596 7.15 2.596h107.882c3.604 0 7.151-2.596 7.151-2.596-8.685-.346-15.91-10.909-15.91-10.909z"/></defs><use xlink:href="#SVGID_9_" overflow="visible" fill="#4184af"/><clipPath id="SVGID_10_"><use xlink:href="#SVGID_9_" overflow="visible"/></clipPath></g><g fill="#006ca2"><path d="M109.183 65.742H18.819S11.59 76.305 2.91 76.651c0 0 3.55 2.596 7.15 2.596h107.882c3.604 0 7.151-2.596 7.151-2.596-8.685-.346-15.91-10.909-15.91-10.909z"/><path d="M117.942 80.313H10.06c-3.909 0-7.625-2.688-7.784-2.802a1.07 1.07 0 0 1-.392-1.171 1.07 1.07 0 0 1 .983-.756c8.035-.318 15.002-10.344 15.073-10.444a1.06 1.06 0 0 1 .879-.464h90.364c.35 0 .683.173.879.464.07.1 7.038 10.126 15.072 10.445a1.068 1.068 0 0 1 .591 1.927c-.158.114-3.878 2.801-7.783 2.801zM6.064 77.205c1.158.515 2.587.975 3.996.975h107.882c1.409 0 2.838-.46 3.996-.975-6.696-1.917-11.947-8.553-13.305-10.397H19.365c-1.354 1.844-6.605 8.481-13.301 10.397z"/></g></g><path fill="#78a3ad" d="M111.525 95.602H16.477v4.3h95.048v-4.3z"/></g></g></svg>