<svg id="レイヤー_1" xmlns="http://www.w3.org/2000/svg" viewBox="0 0 128 128"><g><path fill="#fff" d="M17.206 10.088h95.932v35.717H17.206z"/><path fill="#006ca2" d="M17.206 46.81h95.932V128H17.206z"/><g fill="#78a3ad"><path d="M29.589 30.834c-.918 0-1.705.052-1.705 1.363 0 .637-.025 1.275.012 1.911.008.352.064.741.23 1.04.176.314.391.309.678.352.375.056.703.075 1.086.075.891 0 1.795-.566 2.117-1.47.158-.479.17-1.045-.074-1.673-.412-1.036-1.444-1.598-2.344-1.598z"/><path d="M53.583 29.228l-.029-.126c-.176-.741-.35-1.476-.523-2.216-.135-.253-.221-.614-.551-.524-.232.061-.32.352-.383.506l-.074.08a116.979 116.979 0 0 1-.527 3.059l-.018.107-.059.248c-.027.299-.066.632.025.922l.236.301.395.126.268.098.373-.004.051.004h.488l.019-.004c1.127-.328.44-1.715.328-2.501l-.019-.076z"/><path d="M28.817 24.993c.889.178 2.047-.127 2.568-1.148a2.306 2.306 0 0 0-.137-2.314l-.16-.216c-.363-.407-.879-.515-1.35-.543-.467-.028-1.012.005-1.451.225l-.225.253a2.909 2.909 0 0 0-.268.867c-.127.792-.033 1.742.275 2.318.178.319.44.497.748.558z"/><path d="M110.163 2.785h-92.32c-5.082 0-9.242 4.155-9.242 9.238V128h39.922v-19.618c0-2.834 2.314-5.153 5.145-5.153h20.654c2.834 0 5.154 2.319 5.154 5.153V128H119.4V12.023c-.001-5.083-4.157-9.238-9.237-9.238zM35.386 91.641h-13.01V75.939h13.01v15.702zm0-24.021h-13.01V51.918h13.01V67.62zm3.742-31.955c-.834 1.958-2.305 3.653-4.18 4.463-2.221.961-4.617 1.068-6.979 1.012-1.338-.028-3.156.071-4.309-.754-2.211-1.593-1.811-3.808-1.838-6.25-.027-2.178-.027-4.355-.098-6.534-.061-2.014-.033-3.972.014-5.935.029-1.452-.355-3.373.637-4.572 1.668-2.023 4.85-2.075 7.195-1.892 3.834.3 8.539 2.188 8.031 7.284-.086.745-.32 1.541-.703 2.164-.404.656-1.229 1.452-.836 2.357.449 1.025 1.814 1.592 2.426 2.59.746 1.218 1.098 2.408 1.119 3.532a6.122 6.122 0 0 1-.479 2.535zm19.56 55.976H45.677V75.939h13.012v15.702zm0-24.021H45.677V51.918h13.012V67.62zm1.03-26.588c-1.105.281-3.314.047-3.82-1.147-.713-1.677-.381-3.626-2.768-3.939-1.117-.146-2.742.342-3.209 1.447-.478 1.157-.103 2.59-1.342 3.382-.842.539-2.023.618-2.988.464-2.178-.347-2.695-1.958-2.375-3.958.156-.97.371-1.939.615-2.9.476-1.948 1.076-3.878 1.517-5.831.459-2.042.795-4.104 1.358-6.127.984-3.607 2.773-8.371 7.533-6.774 2.043.684 2.605 2.942 3.27 4.741.955 2.599 1.336 5.461 1.938 8.16.438 1.953 1.033 3.883 1.516 5.831.283 1.158.826 2.905.67 4.333-.114 1.081-.62 1.98-1.915 2.318zm22.271 50.609H68.983V75.939h13.006v15.702zm0-24.021H68.983V51.918h13.006V67.62zm3.317-33.844c-.02.773-.057 1.682-.188 2.585-.188 1.411-.727 3.805-2.484 3.973-.568.056-1.189.009-1.686-.137-2.795-.824-3.273-3.831-4.93-5.888-.428-.529-.732-1.087-1.064-1.659-.375-.651-1.145-1.93-1.996-2.042-1.059-.141-.824 1.34-.807 2.066.029 2.202.76 6.886-1.779 8-3.768 1.653-4.709-3.471-4.77-5.808-.076-2.923-.412-5.836-.412-8.765 0-2.281-.248-7.115 1.752-8.769 3.236-2.674 5.182.127 7.242 2.516.939 1.096 1.555 2.234 2.342 3.443.469.716 1.705 1.499 2.088.342.641-1.897-.027-4.282.975-6.043 1.229-2.15 4.742-1.583 5.66.571.168.389.225 1.054.271 1.503.534 4.654-.132 9.428-.214 14.112zM105.3 91.641H92.284V75.939H105.3v15.702zm0-24.021H92.284V51.918H105.3V67.62zm2.092-28.654c-.566 1.237-2.197 2.468-3.592 1.949-1.584-.59-2.371-2.202-2.973-3.673-.57-1.424-1.254-2.941-2.547-3.869-.664-.478-1.209-.22-1.664.277-1.785 1.953 1.111 5.954-1.867 7.26-.695.3-1.711.271-2.465.188-3.635-.384-2.869-4.038-2.895-6.722-.023-2.3-.023-4.577-.104-6.825-.07-2.057-.027-4.042.016-6.01.014-.839.07-1.542.166-2.366.123-1.049.029-2.258 1.064-2.951.955-.642 2.309-.483 3.355-.202 1.377.37 1.381.899 1.844 2.211.344.993.377 2.141.402 3.19.016.618.133 1.48.896 1.485.791.004 1.465-1.336 1.906-1.86.434-.511.918-.975 1.18-1.584.908-2.06 3.848-4.032 5.936-2.089 1.812 1.673.42 3.996-.799 5.546-1.111 1.42-3.057 2.994-2.354 5.008.855 2.483 2.688 4.633 3.738 7.045.326.735.809 1.762.91 2.708.058.46.024.9-.153 1.284z"/></g></g></svg>