<svg id="レイヤー_1" xmlns="http://www.w3.org/2000/svg" viewBox="0 0 128 128"><g><path fill="#40c0e7" d="M19.906 88.646h59.846V128H19.906z"/><path fill="#78a3ad" d="M96.324 32.098h9.476v5.714h-9.476z"/><path fill="#78a3ad" d="M96.324 98.683h9.476v5.715h-9.476z"/><path fill="#40c0e7" d="M91.717 95.084v-65.52H9.911v69.308h-.382v25.375h24.615V102.28h34.085v22.345h26.133V95.084z"/><path d="M102.741 104.397v7.775c0 .897 2.193 3.099 4.873 3.099h12.898c2.681 0 4.882-2.201 4.882-4.887V30.363c0-2.686-2.201-4.882-4.882-4.882h-12.898c-2.681 0-4.873 2.196-4.873 3.094v75.822z" fill="#ed6c30"/><path d="M99.386 128V29.475c0-4.815-3.941-8.752-8.752-8.752H11.357c-4.811 0-8.752 3.937-8.752 8.752V128h34.512v-13.989-.058c0-3.436 28.352-3.436 28.352 0 0 .021-.009.038-.009.058h.009V128h33.917zM14.181 34.922h12.32V49.8h-12.32V34.922zm0 23.646h12.32v14.877h-12.32V58.568zm0 23.642h12.32v14.877h-12.32V82.21zm17.388 36.514H14.083v-12.711h17.486v12.711zm15.579-21.637h-12.33V82.21h12.329v14.877zm0-23.642h-12.33V58.568h12.329v14.877zm0-23.645h-12.33V34.922h12.329V49.8zm28.955-14.878h12.33V49.8h-12.33V34.922zm0 23.646h12.33v14.877h-12.33V58.568zm0 23.642h12.33v14.877h-12.33V82.21zm-5.291 23.803H88.29v12.711H70.812v-12.711zM55.465 34.922h12.321V49.8H55.465V34.922zm0 23.646h12.321v14.877H55.465V58.568zm0 38.519V82.21h12.321v14.877H55.465z" fill="#fcc21b"/></g></svg>