<svg id="レイヤー_1" xmlns="http://www.w3.org/2000/svg" viewBox="0 0 128 128"><g><path fill="#006ca2" d="M11.424 41.627h106.661V128H11.424z"/><path fill="#fff" d="M45.361 12.269h37.976V48.63H45.361z"/><g><path d="M113.817 34.24H95.853c-2.028 0-3.832-.258-4.989-1.207-1.035-.85-1.378-2.436-1.438-3.792V16.726c0-1.108-.792-2.457-1.757-2.996L65.747 1.49c-.965-.539-2.548-.539-3.518 0L40.312 13.73c-.969.539-1.761 1.888-1.761 2.996v12.781c-.094 1.293-.45 2.732-1.419 3.527-1.152.949-2.961 1.207-4.984 1.207h-17.96c-5.453 0-9.912 4.455-9.912 9.905V128h43.123v-12.979c0-3.041 2.478-5.525 5.519-5.525h22.151c3.035 0 5.527 2.484 5.527 5.525V128h43.128V44.145c0-5.45-4.459-9.905-9.907-9.905zM28.882 95.784H16.563V80.082h12.319v15.702zm0-24.953H16.563V55.13h12.319v15.701zm20.634 24.953H37.197V80.082h12.319v15.702zm0-24.953H37.197V55.13h12.319v15.701zm20.639 24.953H57.831V80.082h12.324v15.702zm0-24.953H57.831V55.13h12.324v15.701zm-6.164-29.464c-2.3 0-4.464-.557-6.385-1.522a14.271 14.271 0 0 1-5.949-5.604 14.175 14.175 0 0 1-1.925-7.134c0-7.875 6.38-14.262 14.259-14.262 7.874 0 14.263 6.387 14.263 14.262 0 2.602-.707 5.032-1.925 7.134a14.275 14.275 0 0 1-5.953 5.604 14.165 14.165 0 0 1-6.385 1.522zM90.79 95.784H78.47V80.082h12.32v15.702zm0-24.953H78.47V55.13h12.32v15.701zm20.638 24.953H99.104V80.082h12.324v15.702zm0-24.953H99.104V55.13h12.324v15.701z" fill="#f79329"/><path d="M65.373 24.988V14.702H62.59v10.3c-.646.434-1.092 1.125-1.144 1.951l-6.356 3.614 1.377 2.417 6.356-3.616c.356.185.74.314 1.167.314a2.578 2.578 0 0 0 2.576-2.576c.001-.902-.491-1.658-1.193-2.118z" fill="#2f2f2f"/></g></g></svg>