<svg id="图层_1" xmlns="http://www.w3.org/2000/svg" viewBox="0 0 128 128"><g><g><g><g><g><path d="M122.389 70.576l-17.962-56.65c-.536-1.683-1.946-2.979-3.72-3.408a5.584 5.584 0 0 0-1.256-.144 5.301 5.301 0 0 0-3.682 1.473c-8.373 8.089-15.715 9.622-26.337 9.622-3.224 0-6.761-.15-10.509-.313a471.31 471.31 0 0 0-9.297-.341 75.833 75.833 0 0 0-1.704-.02c-26.869 0-35.464 15.707-35.817 16.376a4.877 4.877 0 0 0-.543 2.787l5.89 56.65c.197 1.882 1.467 3.496 3.286 4.184a5.353 5.353 0 0 0 1.895.341 5.306 5.306 0 0 0 3.456-1.269c.088-.074 10.887-8.994 28.142-8.994 2.205 0 4.455.143 6.684.429 8.118 1.043 14.047 1.506 19.228 1.506 16.579 0 28.841-5.158 41.001-17.247a4.906 4.906 0 0 0 1.245-4.982z" fill="#e0e0e0"/></g></g><g><path fill="#5da5b0" d="M20.027 128L8.988 18.806l8.954-.905L29.082 128z"/></g><circle cx="13.465" cy="17.333" r="8.083" fill="#5da5b0"/></g><g><path d="M26.147 99.738c1.273-1.005 11.784-8.886 28.007-8.886 2.205 0 4.455.143 6.684.429 8.118 1.043 14.047 1.506 19.228 1.506 16.579 0 28.841-5.158 41.001-17.247a4.904 4.904 0 0 0 1.245-4.981l-1.988-6.499c-1.266 3.743-3.811 8.5-8.025 12.282-5.689 5.105-11.932 8.602-21.311 9.594-14.509 1.535-25.6-4.549-36.439-8.684-11.273-4.3-30.567.342-30.567.342l2.165 22.144z" fill="#d3d3d3"/></g></g><g><path d="M43.424 21.41c11.518.462 25.57 5.547 38.116 4.394 10.717-.985 11.297-5.109 15.186-7.925 1.868-1.353 4.605-1.302 5.247.949l17.224 47.901.451-1.029c.451-1.029.6-1.64.6-1.64l-15.895-50.132c-.536-1.683-1.946-2.979-3.72-3.408a5.547 5.547 0 0 0-2.643.033c-.919.235-1.74.765-2.424 1.422-8.319 7.979-15.64 9.497-26.207 9.497-3.224 0-6.761-.15-10.509-.313a471.31 471.31 0 0 0-9.297-.341 75.833 75.833 0 0 0-1.704-.02c-1.555 0-3.054-.002-4.484.152-5.686.607-2.054.375.059.46z" fill="#eaeaea"/></g></g></svg>