<svg xmlns="http://www.w3.org/2000/svg" xmlns:xlink="http://www.w3.org/1999/xlink" viewBox="0 0 128 128"><g id="レイヤー_1"><g><g><path d="M39.457 55.088l-5.313-2.125c1.119-2.798-.754-7.894-2.566-12.823-1.627-4.427-3.31-9.005-3.55-13.373-.302-5.51 1.816-9.732 6.296-12.548 12.261-7.706 18.927 2.292 18.993 2.394l-2.402 1.554-2.385 1.581c-.613-.901-4.033-5.164-11.161-.684-5.638 3.544-3.92 9.58-.42 19.102 2.284 6.215 4.442 12.086 2.508 16.922z" fill="#2f2f2f"/></g><g><path d="M89.254 55c-1.935-4.836-.284-10.785 2-17 3.5-9.521 5.638-15.456 0-19-7.129-4.481-10.593-.372-11.206.528l-4.787-3.135c.066-.102 6.73-10.101 18.993-2.394 4.48 2.816 6.302 7.49 6 13-.24 4.369-2.373 8.573-4 13-1.812 4.929-3.119 10.202-2 13l-5 2.001z" fill="#2f2f2f"/></g><path d="M48 41v-8c0-8.774-6-23-6-23V6h44v4s-6 14.226-6 23v8H48z" fill="#f79329"/><path d="M78 121s19-36.181 19-55-12.168-22.457-17-25H48.031C43.199 43.543 31 47.181 31 66s19 55 19 55h28z" fill="#eb6b30"/><path d="M44.031 128c0-3.794 2.953-7 6.222-7h27c3.27 0 6.684 3.206 6.684 7H44.031z" fill="#2f2f2f"/><g><defs><path id="SVGID_1_" d="M78 121s19-36.181 19-55-12.168-22.457-17-25H48.031C43.199 43.543 31 47.181 31 66s19 55 19 55h28z"/></defs><clipPath id="SVGID_2_"><use xlink:href="#SVGID_1_" overflow="visible"/></clipPath><g clip-path="url(#SVGID_2_)"><g><g fill="none" stroke="#2f2f2f" stroke-width="4" stroke-miterlimit="10"><path d="M-9 64H6v12H0"/><path d="M2 70h-6v12h16V64h16v12h-6"/><path d="M24 70h-6v12h16V64h16v12h-6"/><path d="M46 70h-6v12h16V64h16v12h-6"/><path d="M68 70h-6v12h16V64h16v12h-6"/><path d="M90 70h-6v12h16V64h16v12h-6"/><path d="M112 70h-6v12h16V64h16v12h-6"/><path d="M3.047 58h123.725"/><path d="M3.047 88h123.725"/></g></g></g></g><g><defs><path id="SVGID_3_" d="M48 41v-8c0-8.774-6-23-6-23V6h44v4s-6 14.226-6 23v8H48z"/></defs><clipPath id="SVGID_4_"><use xlink:href="#SVGID_3_" overflow="visible"/></clipPath></g><path d="M85.087 10H42.254c-1.925 0-3-1.075-3-3V6c0-1.925 1.075-3 3-3h42.833c1.925 0 3.167 1.075 3.167 3v1c0 1.925-1.242 3-3.167 3z" fill="#2f2f2f"/></g></g></svg>