<svg id="Layer_1" xmlns="http://www.w3.org/2000/svg" viewBox="0 0 128 128" enable-background="new 0 0 128 128"><path id="XMLID_101_" d="M94.561 122.115c-.185 0-.372-.022-.56-.069l-78.033-19.727a2.273 2.273 0 0 1-1.71-2.038L8.38 20.006a2.274 2.274 0 0 1 2.102-2.434 2.266 2.266 0 0 1 2.434 2.102l5.758 78.638 76.443 19.324a2.275 2.275 0 0 1-.556 4.479z" fill="#b4c7cc"/><path id="XMLID_107_" d="M20.247 99.419a2.274 2.274 0 0 1-1.463-4.016l96.652-81.067a2.274 2.274 0 0 1 2.922 3.484l-96.65 81.067a2.263 2.263 0 0 1-1.461.532z" fill="#2f2f2f"/><g id="XMLID_105_" fill="#2f2f2f"><path id="XMLID_28_" d="M123.428 10.444l-14.039 4.928 4.468 3.103 2.28 4.939z"/><path id="XMLID_102_" d="M116.137 24.55l-.046-.001a1.138 1.138 0 0 1-.987-.659l-2.151-4.658-4.213-2.927a1.14 1.14 0 0 1-.479-1.086c.058-.423.348-.779.751-.92l14.039-4.928a1.139 1.139 0 0 1 1.368 1.63l-7.291 12.97a1.14 1.14 0 0 1-.991.579zm-4.272-8.842l2.64 1.834c.167.115.299.273.384.457l1.347 2.918 4.723-8.401-9.094 3.192z"/></g><defs><filter id="Adobe_OpacityMaskFilter" filterUnits="userSpaceOnUse" x="1.745" y="76.4" width="41.123" height="22.112"><feColorMatrix values="1 0 0 0 0 0 1 0 0 0 0 0 1 0 0 0 0 0 1 0"/></filter></defs><mask maskUnits="userSpaceOnUse" x="1.745" y="76.4" width="41.123" height="22.112" id="XMLID_2_"><g id="XMLID_31_" filter="url(#Adobe_OpacityMaskFilter)"><path id="XMLID_32_" d="M37.808 79.401L18.967 95.21 5.651 98.465c-1.454.355-2.51-1.36-1.529-2.491 7.116-8.202 25.088-26.819 33.686-16.573z" fill="#fff"/></g></mask><g id="XMLID_413_" mask="url(#XMLID_2_)"><path id="XMLID_416_" d="M37.808 79.401L18.967 95.21 5.651 98.465c-1.454.355-2.51-1.36-1.529-2.491 7.116-8.202 25.088-26.819 33.686-16.573z" fill="#196ca2"/><path id="XMLID_415_" fill="#40c0e7" d="M42.868 82.197l-3.896 3.269-29.621.5 3.896-3.269z"/><path id="XMLID_414_" fill="#40c0e7" d="M35.261 88.58l-3.896 3.269-29.62.5 3.896-3.269z"/></g><defs><filter id="Adobe_OpacityMaskFilter_1_" filterUnits="userSpaceOnUse" x="16.202" y="77.322" width="26.486" height="38.736"><feColorMatrix values="1 0 0 0 0 0 1 0 0 0 0 0 1 0 0 0 0 0 1 0"/></filter></defs><mask maskUnits="userSpaceOnUse" x="16.202" y="77.322" width="26.486" height="38.736" id="XMLID_3_"><g id="XMLID_29_" filter="url(#Adobe_OpacityMaskFilter_1_)"><path id="XMLID_30_" d="M40.697 82.791L21.856 98.6l-5.517 12.549c-.602 1.37.904 2.708 2.187 1.938 9.314-5.584 30.768-20.051 22.171-30.296z" fill="#fff"/></g></mask><g id="XMLID_407_" mask="url(#XMLID_3_)"><path id="XMLID_410_" d="M40.697 82.791L21.856 98.6l-5.517 12.549c-.602 1.37.904 2.708 2.187 1.938 9.314-5.584 30.768-20.051 22.171-30.296z" fill="#196ca2"/><path id="XMLID_409_" fill="#40c0e7" d="M38.822 77.322l-3.896 3.269-5.636 29.084 3.896-3.27z"/><path id="XMLID_408_" fill="#40c0e7" d="M31.215 83.705l-3.896 3.269-5.636 29.083 3.896-3.269z"/></g><path id="XMLID_94_" d="M10.932 17.185l.464-.308c.309-.197.751-.486 1.344-.83 1.186-.684 2.928-1.679 5.252-2.719 2.318-1.049 5.191-2.229 8.617-3.235 3.417-1.027 7.375-1.954 11.802-2.435 4.419-.506 9.311-.613 14.45.03 5.134.614 10.531 1.887 15.797 4.049 5.271 2.136 10.415 5.087 15.118 8.693l1.771 1.353 1.69 1.45c1.126.971 2.27 1.936 3.298 3.009 1.038 1.062 2.155 2.066 3.13 3.185l3.071 3.443 2.595 3.304c.429.52.87 1.148 1.311 1.787l1.316 1.888c.915 1.251 1.656 2.532 2.418 3.81l1.135 1.916 1.025 1.979c2.734 5.258 4.748 10.836 5.936 16.398 1.215 5.561 1.532 11.098 1.245 16.26-.259 5.172-1.214 9.972-2.479 14.236-1.242 4.276-2.843 8.013-4.448 11.2-1.586 3.199-3.247 5.823-4.682 7.924-1.428 2.108-2.71 3.65-3.59 4.7-.442.524-.805.912-1.05 1.178l-.395.417c-.675.713-1.682.591-2.512.068-1.387-.873-1.32-2.191-.695-3.258.633-1.096 1.493-2.762 2.516-4.901 2.006-4.29 4.516-10.629 5.986-18.437a65.25 65.25 0 0 0 1.028-12.623c-.087-4.462-.75-9.114-1.985-13.77-1.245-4.657-3.139-9.298-5.584-13.774l-.916-1.683-1.026-1.637c-.692-1.088-1.356-2.213-2.102-3.21l-1.087-1.545a20.751 20.751 0 0 0-1.178-1.589l-2.62-3.284-2.511-2.837c-.853-1.003-1.824-1.872-2.726-2.815-.897-.952-1.879-1.79-2.831-2.661l-1.434-1.295-1.498-1.194c-3.984-3.186-8.225-5.856-12.595-7.891-4.371-2.025-8.836-3.486-13.216-4.346a65.24 65.24 0 0 0-12.61-1.179c-7.944.092-14.623 1.463-19.196 2.693-2.284.636-3.302.924-4.492 1.357-1.713.546-3.168.18-3.528-.736a1.78 1.78 0 0 1 .671-2.135z" fill="#855c52"/><g id="XMLID_95_"><path id="XMLID_100_" d="M81.043 37.46a1.704 1.704 0 0 1-1.097-3.012l11.199-9.398a1.706 1.706 0 1 1 2.192 2.613l-11.199 9.398a1.699 1.699 0 0 1-1.095.399z" fill="#fac11c"/><path id="XMLID_99_" d="M83.141 39.843a1.704 1.704 0 0 1-1.097-3.012l11.2-9.398a1.706 1.706 0 1 1 2.192 2.613l-11.2 9.398a1.699 1.699 0 0 1-1.095.399z" fill="#fbc21a"/><path id="XMLID_98_" d="M85.208 42.165a1.704 1.704 0 0 1-1.097-3.012l11.2-9.398a1.706 1.706 0 0 1 2.192 2.613l-11.2 9.398a1.697 1.697 0 0 1-1.095.399z" fill="#fac11c"/><path id="XMLID_97_" d="M87.357 44.563a1.704 1.704 0 0 1-1.097-3.012l11.199-9.398a1.705 1.705 0 1 1 2.192 2.613l-11.199 9.398a1.699 1.699 0 0 1-1.095.399z" fill="#fbc21a"/><path id="XMLID_106_" d="M89.244 47.047a1.704 1.704 0 0 1-1.097-3.012l11.2-9.398a1.706 1.706 0 1 1 2.192 2.613l-11.2 9.398a1.699 1.699 0 0 1-1.095.399z" fill="#fac11c"/><path id="XMLID_108_" d="M91.168 49.585a1.704 1.704 0 0 1-1.097-3.012l11.2-9.397a1.706 1.706 0 1 1 2.192 2.613l-11.2 9.397a1.7 1.7 0 0 1-1.095.399z" fill="#fac11c"/></g></svg>