<svg id="Layer_1" xmlns="http://www.w3.org/2000/svg" viewBox="0 0 128 128"><g id="XMLID_1_"><g id="XMLID_4_"><g id="XMLID_238_" fill="#b5e1ea"><path id="XMLID_192_" d="M86.951 93.845c.472-1.099.19-6.621.418-8.052a.366.366 0 0 0-.382-.413c-1.446.116-4.908 1.595-6.041 1.982-2.874.982-5.79 2.788-7.208 5.562-.831 1.625-1.541 7.668-1.095 8.149.446.482 6.525.237 8.209-.467 2.876-1.202 4.9-3.97 6.099-6.761z"/><path id="XMLID_239_" d="M89.659 96.769c.472-1.099 2.219-4.43 2.448-5.86a.366.366 0 0 0-.382-.413c-1.446.116-6.937-.597-8.07-.21-2.874.982-5.79 2.788-7.208 5.562-.831 1.625-1.541 7.668-1.095 8.149s6.525.237 8.209-.467c2.875-1.202 4.898-3.971 6.098-6.761z"/><path id="XMLID_73_" d="M82.054 81.726c-.005-.151-.174-.251-.293-.176l-4.521 2.841s-8.919 12.195-7.12 14.139c.669.722 5.373-.095 8.755-3.227 5.062-4.688 3.263-11.175 3.179-13.577z"/><path id="XMLID_200_" d="M78.651 88.513c.409-1.299-1.728-7.346-1.907-9.91-.015-.215-.289-.32-.404-.155-1.97 2.82-8.289 17.847-8.289 17.847.664.258 3.741.529 5.287-.31 2.638-1.432 4.366-4.464 5.313-7.472z"/><path id="XMLID_197_" d="M95.364 96.097c.15.017.237.193.153.306l-3.179 4.29s-12.843 7.958-14.643 6.015c-.669-.722.506-5.35 3.888-8.482 5.062-4.688 11.392-2.396 13.781-2.129z"/><path id="XMLID_196_" d="M87.72 98.986c1.326-.308 7.575 2.299 10.059 2.609.212.027.302.304.134.411-2.867 1.823-18.181 6.9-18.181 6.9-.206-.682-.823-3.718.132-5.195 1.629-2.52 4.784-4.011 7.856-4.725z"/></g><path id="XMLID_210_" d="M67.28 106.043L83.628 89.27a.45.45 0 0 1 .653.621l-15.919 17.18a.747.747 0 1 1-1.082-1.028z" fill="#59c6d9"/><path id="XMLID_193_" d="M69.043 107.806L87.392 93.25a.45.45 0 0 1 .569.699l-17.976 15.015a.748.748 0 0 1-.958-1.146.095.095 0 0 0 .016-.012z" fill="#59c6d9"/><path id="XMLID_195_" d="M70.812 109.58l20.354-12.335a.441.441 0 0 1 .467.749l-20.03 12.853a.747.747 0 0 1-.807-1.257l.016-.01z" fill="#59c6d9"/><path id="XMLID_74_" d="M71.854 110.494l23.903-8.406a.429.429 0 0 1 .294.804l-23.684 9.004a.746.746 0 1 1-.513-1.402z" fill="#59c6d9"/><path id="XMLID_194_" d="M65.527 104.288L79.88 85.304a.438.438 0 0 1 .704.518l-13.854 19.35a.746.746 0 1 1-1.214-.87l.011-.014z" fill="#59c6d9"/><path id="XMLID_199_" d="M64.582 103.488l10.761-22.991a.374.374 0 0 1 .683.308l-10.081 23.297a.747.747 0 1 1-1.363-.614z" fill="#59c6d9"/><path id="XMLID_220_" d="M76.635 109.761L67.08 99.444a.747.747 0 0 1 1.095-1.015l9.555 10.317a.747.747 0 0 1-1.095 1.015z" fill="#59c6d9"/><path id="XMLID_75_" d="M72.83 111.6l-3.931-4.245-.068-.073-3.931-4.245-8.021 8.654a4.937 4.937 0 0 0 6.708 7.244l.004-.004 9.239-7.331z" fill="#da4437"/><path id="XMLID_72_" fill="#fac11c" d="M68.111 115.345l-7.306-7.889 4.095-4.419 7.93 8.563z"/></g></g><g id="XMLID_5_"><path id="XMLID_15_" fill="none" stroke="#2f2f2f" stroke-width="5" stroke-linecap="round" stroke-linejoin="round" stroke-miterlimit="10" d="M72.676 55.081l-67.2 66.734"/><g id="XMLID_27_" fill="none" stroke="#b5e1ea" stroke-width="2" stroke-linejoin="round" stroke-miterlimit="10"><path id="XMLID_39_" d="M84.863 8.76L65.154 28.388"/><path id="XMLID_38_" d="M102.617 2.533l-39.705 39.43"/><path id="XMLID_37_" d="M112.009 4.611l-45.174 44.86"/><path id="XMLID_36_" d="M117.711 10.352L72.537 55.213"/><path id="XMLID_35_" d="M123.413 16.094L78.239 60.955"/><path id="XMLID_323_" d="M125.425 25.5L85.72 64.93"/><path id="XMLID_34_" d="M118.675 43.608L99.843 62.309"/><path id="XMLID_33_" d="M124.053 26.363L99.978 2.12"/><path id="XMLID_32_" d="M121.845 35.623L90.703 4.264"/><path id="XMLID_31_" d="M119.636 44.882L83.195 8.188"/><path id="XMLID_30_" d="M113.894 50.584L76.57 13"/><path id="XMLID_29_" d="M108.152 56.286L70.828 18.702"/><path id="XMLID_28_" d="M93.135 64.133l-29.49-29.664"/><path id="XMLID_326_" d="M102.101 61.677L65.97 25.294"/></g><path id="XMLID_24_" d="M108.474 55.205c-9.92 9.851-24.266 11.489-35.799-.124s-9.795-25.948.125-35.799 28.324-24.041 44.118-8.137 1.476 34.209-8.444 44.06z" fill="none" stroke="#6d4d41" stroke-width="5" stroke-linecap="round" stroke-linejoin="round" stroke-miterlimit="10"/><path id="XMLID_6_" fill="none" stroke="#da4437" stroke-width="5" stroke-linejoin="round" stroke-miterlimit="10" d="M59.401 68.263l-3.439 3.416"/><path id="XMLID_447_" fill="none" stroke="#da4437" stroke-width="5" stroke-linejoin="round" stroke-miterlimit="10" d="M41.149 86.389l-3.439 3.416"/><path id="XMLID_40_" fill="none" stroke="#6d4d41" stroke-width="10" stroke-linecap="round" stroke-linejoin="round" stroke-miterlimit="10" d="M35.238 92.259L5.476 121.815"/><path id="XMLID_443_" d="M27.652 92.718l4.066-4.038a5.018 5.018 0 1 1 7.072 7.122l-4.066 4.038-7.072-7.122z" fill="#da4437"/><path id="XMLID_426_" transform="rotate(135.202 29.542 97.916)" fill="#2f2f2f" d="M26.862 92.882h5.355v10.072h-5.355z"/></g></svg>