<svg id="レイヤー_1" xmlns="http://www.w3.org/2000/svg" viewBox="0 0 128 128"><g><g><g fill="#fcc21b"><path d="M98.497 57.545a1.569 1.569 0 0 1-1.568-1.568v-20.53a1.569 1.569 0 0 1 3.137 0v20.53a1.57 1.57 0 0 1-1.569 1.568z"/><g><path d="M98.497 44.743v-9.296l11.481 4.648z"/><path d="M98.497 46.311a1.566 1.566 0 0 1-1.568-1.569v-9.296a1.568 1.568 0 0 1 2.156-1.454l11.485 4.648a1.57 1.57 0 0 1 0 2.908l-11.485 4.648a1.57 1.57 0 0 1-.588.115zm1.568-8.538v4.644l5.734-2.322-5.734-2.322z"/></g></g><g><g><path fill="#fff" d="M89.548 72.929h17.873v30.669H89.548z"/></g><g><path d="M106.743 105.118H90.218c-.837 0-1.516-.68-1.516-1.52V72.929c0-.84.678-1.52 1.516-1.52h16.525c.841 0 1.52.68 1.52 1.52v30.669c0 .84-.678 1.52-1.52 1.52zm-15.006-3.039h13.486v-27.63H91.737v27.63z" fill="#78a3ad"/></g><path fill="#78a3ad" d="M96.442 79.182h4.109v5.538h-4.109z"/></g><path fill="#40c0e7" d="M96.851 55.497l-9.574 16.121 1.283 2.977h19.878l1.283-2.977-9.575-16.121z"/></g><g><g fill="#fcc21b"><path d="M28.871 57.545a1.57 1.57 0 0 1-1.573-1.568v-20.53a1.57 1.57 0 0 1 3.137 0v20.53c0 .866-.698 1.568-1.564 1.568z"/><g><path d="M28.871 44.743v-9.296l11.481 4.648z"/><path d="M28.871 46.311a1.571 1.571 0 0 1-1.572-1.569v-9.296a1.57 1.57 0 0 1 2.16-1.454L40.94 38.64a1.567 1.567 0 0 1 0 2.908l-11.481 4.648a1.602 1.602 0 0 1-.588.115zm1.564-8.538v4.644l5.739-2.322-5.739-2.322z"/></g></g><g><g><path fill="#fff" d="M19.918 72.929h17.873v30.669H19.918z"/></g><g><path d="M37.117 105.118H20.592a1.52 1.52 0 0 1-1.519-1.52V72.929c0-.84.682-1.52 1.519-1.52h16.525c.837 0 1.515.68 1.515 1.52v30.669c0 .84-.677 1.52-1.515 1.52zm-15.006-3.039h13.482v-27.63H22.111v27.63z" fill="#78a3ad"/></g><path fill="#78a3ad" d="M26.816 79.182h4.104v5.538h-4.104z"/></g><path fill="#40c0e7" d="M27.221 55.497l-9.57 16.121 1.279 2.977h19.878l1.287-2.977-9.578-16.121z"/></g><g><g fill="#fcc21b"><path d="M63.645 26.137a1.57 1.57 0 0 1-1.568-1.569V4.038a1.569 1.569 0 0 1 3.137 0v20.53a1.57 1.57 0 0 1-1.569 1.569z"/><g><path d="M63.645 13.335V4.038l11.481 4.648z"/><path d="M63.645 14.903a1.566 1.566 0 0 1-1.568-1.568V4.038a1.568 1.568 0 0 1 2.157-1.454l11.481 4.648a1.568 1.568 0 0 1 0 2.908l-11.481 4.649a1.63 1.63 0 0 1-.589.114zm1.568-8.539v4.644l5.73-2.322-5.73-2.322z"/></g></g><g><g><path fill="#fff" d="M54.692 41.52h17.873v30.669H54.692z"/></g><g><path d="M71.887 73.709H55.366a1.52 1.52 0 0 1-1.52-1.52V41.52c0-.839.682-1.52 1.52-1.52h16.521c.841 0 1.519.68 1.519 1.52v30.669c0 .84-.677 1.52-1.519 1.52zM56.885 70.67h13.482V43.04H56.885v27.63z" fill="#78a3ad"/></g><path fill="#78a3ad" d="M61.59 47.773h4.105v5.539H61.59z"/></g><path fill="#40c0e7" d="M61.995 24.088l-9.57 16.121 1.279 2.978h19.882l1.283-2.978-9.578-16.121z"/></g><g><g><g><path fill="#78a3ad" d="M42.582 68.505v12.182l6.857 6.739v10.517h28.125V87.426l6.862-6.739V68.505z"/></g><path fill="#78a3ad" d="M42.582 65.056h5.04v4.764h-5.04z"/><path fill="#78a3ad" d="M79.386 65.056h5.04v4.764h-5.04z"/><path fill="#78a3ad" d="M61.088 65.056h5.04v4.764h-5.04z"/><path fill="#78a3ad" d="M51.825 65.056h5.041v4.764h-5.041z"/><path fill="#78a3ad" d="M70.221 65.056h5.04v4.764h-5.04z"/></g><g><path d="M111.546 96.304v-1.742H16.455v1.742L11.116 128H56.864v-13.59a2.378 2.378 0 0 1 2.373-2.373h9.521a2.381 2.381 0 0 1 2.377 2.373V128h45.748l-5.337-31.696z" fill="#78a3ad"/></g><g fill="#78a3ad"><path d="M16.455 91.539h5.04v4.765h-5.04z"/><path d="M40.74 91.539h5.041v4.765H40.74z"/><path d="M28.193 91.539h5.04v4.765h-5.04z"/><path d="M81.906 91.539h5.036v4.765h-5.036z"/><path d="M53.508 91.539h5.04v4.765h-5.04z"/><path d="M68.407 91.539h5.04v4.765h-5.04z"/><path d="M106.506 91.539h5.04v4.765h-5.04z"/><path d="M93.959 91.539h5.04v4.765h-5.04z"/></g></g></g></svg>