<svg id="レイヤー_1" xmlns="http://www.w3.org/2000/svg" xmlns:xlink="http://www.w3.org/1999/xlink" viewBox="0 0 128 128"><g id="ERjPaT.tif"/><g id="_x33_pgbET.tif"/><g><g/></g><g id="_x34_lfFRU.tif"/><g id="bCzd0b.tif"/><g><path d="M65.893 22.406l25.706-6.685c5.555-1.444 10.955 2.809 10.852 8.547l-.425 23.749a8.675 8.675 0 0 0 1.6 5.176l14.608 20.567c3.366 4.739 1.207 11.383-4.301 13.239l-24.037 8.097a8.668 8.668 0 0 0-4.192 3.046L70.575 118.5c-3.467 4.666-10.453 4.666-13.92 0L41.527 98.141a8.674 8.674 0 0 0-4.192-3.046l-24.037-8.097C7.79 85.143 5.631 78.499 8.997 73.76l14.747-20.763a8.672 8.672 0 0 0 1.597-4.74l.8-24.677c.183-5.632 5.604-9.596 11.026-8.063l24.184 6.84a8.673 8.673 0 0 0 4.542.049z" fill="#cc4d21"/><path d="M68.125 66.998s2.826 9.362 2.006 19.419c-.691 8.472-4.12 18.439-5.791 21.971a.762.762 0 0 1-1.376.009c-1.656-3.39-5.213-13.207-5.198-21.985.02-11.71 2.894-19.485 2.894-19.485l7.465.071z" fill="#cc4d21"/><path d="M55.038 65.532s-7.966 5.673-17.756 8.113c-8.248 2.056-18.788 1.995-22.669 1.542a.762.762 0 0 1-.449-1.301c2.683-2.653 10.846-9.164 19.167-11.958 11.101-3.727 19.387-3.492 19.387-3.492l2.32 7.096z" fill="#cc4d21"/><path d="M56.371 55.086s-7.887-5.782-13.277-14.312c-4.541-7.185-7.792-17.212-8.58-21.039a.762.762 0 0 1 1.094-.835c3.361 1.714 12.106 7.42 17.371 14.444 7.024 9.37 9.401 17.311 9.401 17.311l-6.009 4.431z" fill="#cc4d21"/><path d="M66.057 50.963s2.979-9.384 9.382-17.27c5.394-6.644 13.913-12.971 17.311-14.954a.767.767 0 0 1 1.148.775c-.554 3.758-3.185 13.936-8.191 21.218-6.679 9.715-13.49 14.538-13.49 14.538l-6.16-4.307z" fill="#cc4d21"/><path d="M74.989 57.918s9.777.189 19.095 4.061c7.849 3.262 16.279 9.59 19.126 12.266a.762.762 0 0 1-.414 1.312c-3.735.533-14.17.899-22.519-1.814-11.137-3.619-17.652-8.745-17.652-8.745l2.364-7.08z" fill="#cc4d21"/><path d="M111.689 76.157c11.881-.843 15.839-9.607 14.671-15.682-1.51-7.85-4.872-8.564-6.8-13.89-1.417-5.485.954-7.972-2.233-15.303-2.467-5.674-11.247-10.495-21.528-4.481-9.963 5.828-7.967 19.112-21.19 23.949.842-13.801 12.688-17.118 15.294-28.289 2.707-11.6-4.451-18.267-10.6-18.946-7.945-.878-9.621 2.123-15.279 2.39-5.658-.268-7.334-3.268-15.279-2.39-6.149.679-13.306 7.346-10.6 18.946C40.752 33.636 53.166 36.683 54 50.5c-13.278-4.828-11.824-17.864-21.799-23.699-10.281-6.015-19.062-1.193-21.528 4.481-3.187 7.331-.816 9.818-2.233 15.303-1.928 5.326-5.29 6.04-6.8 13.89C.471 66.55 4.429 75.314 16.31 76.157c11.697.83 16.992-10.664 31.19-6.657-9.063 11.179-20.334 6.199-29.237 13.68-9.119 7.663-6.586 16.889-2.071 21.118 5.834 5.465 8.973 4.068 13.663 7.245 4.369 3.606 3.912 7.012 10.798 11.072 5.329 3.142 14.855 2.695 19.641-8.212C64.856 104.005 56.811 93.841 64 82.5c8.048 11.583.062 21.93 4.853 32.439 4.94 10.838 14.471 11.137 19.755 7.92 6.828-4.157 6.323-7.556 10.64-11.223 4.644-3.243 7.803-1.891 13.559-7.438 4.455-4.293 6.843-13.554-2.384-21.087-9.108-7.436-21.118-2.043-30.441-13.631 14.015-3.831 20.07 7.503 31.707 6.677z" fill="#ed6c30"/><path d="M61.372 45.847l-5.078-1.321c-4.881-1.269-9.626 2.468-9.536 7.511l.068 3.814a7.623 7.623 0 0 1-1.406 4.548l-2.513 3.538c-2.958 4.164-1.061 10.002 3.78 11.633l4.227 1.424a7.62 7.62 0 0 1 3.683 2.676l2.66 3.58c3.047 4.1 9.185 4.1 12.232 0l2.66-3.58a7.62 7.62 0 0 1 3.683-2.676l4.227-1.424c4.841-1.631 6.737-7.469 3.78-11.633l-2.635-3.71a7.612 7.612 0 0 1-1.403-4.165l-.145-4.475c-.16-4.949-4.925-8.433-9.689-7.085l-4.604 1.302a7.622 7.622 0 0 1-3.991.043z" fill="#fff"/><circle cx="63.373" cy="64.21" r="11.235" fill="#fcc31b"/></g></svg>