<svg xmlns="http://www.w3.org/2000/svg" viewBox="0 0 128 128"><g id="图层_1"><g/><g><path fill="none" d="M54.546 6.979l2.616 8.098"/><path d="M22.075 17.722c-.414-4.406-3.43-7.842-6.717-7.642-3.303.179-5.624 3.921-5.214 8.322.429 4.412 3.445 7.827 6.742 7.638 3.266-.2 5.618-3.912 5.189-8.318z" fill="none"/><path d="M32.376 43.6c.393-2.761.781-5.613.189-8.261-.72-3.23-2.761-5.93-3.844-9.12-.645 1.769-1.35 3.517-1.947 5.281-1.382 4.039-1.171 8.185-1.025 12.351a38.9 38.9 0 0 1 6.627-.251z" fill="none"/><path d="M38.515 61.788c-1.892-.695-3.717.312-5.436.992-2.07.828-4.032 1.094-6 .838-1.125-.143-2.285-.465-3.45-.951-1.421-.598-3.403-1.646-4.934-.787-2.556 1.42-.869 5.608.536 7.218a11.445 11.445 0 0 0 4.535 3.118c3.777 1.437 8.143 1.033 11.573-1.114 1.722-1.083 3.38-2.664 4.415-4.422.837-1.416.525-4.242-1.239-4.892z" fill="none"/><path d="M75.18 63.783c-1.638-15.183 3.28-26.706 8.423-32.427 3.16-3.517 6.84-5.444 10.388-5.444 10.567 0 15.408 10.07 17.218 18.904 1.483 7.218 1.555 14.897-.911 21.9-1.869 5.266-5.622 12.545-12.554 9.412-7.848-3.553-8.992-16.471-6.109-23.561.393-.967 2.389-4.806 4.085-4.008.89.429.53 2.004.297 2.688-.858 2.484-.992 5.363-1.032 7.964-.053 2.556.327 8.262 2.383 10.112 4.394 3.936 7.397-1.953 8.156-5.756 1.811-9.095 1.714-19.932-3.915-27.728-1.604-2.229-4.769-4.223-7.617-4.223-1.88 0-4.121 1.293-6.14 3.548-4.318 4.81-8.427 14.692-6.998 28.004 1.434 13.302 6.257 23.607 13.231 28.274 3.301 2.209 6.81 2.93 9.866 2.035 4.963-1.452 8.343-6.569 10.261-10.393 2.703-5.767 4.85-12.872 5.536-21.562 1.522-19.615-6.247-43.09-27.048-51.32-18.522-7.326-31.778.598-35.93 3.66.61 3.779.221 7.771-.985 10.915-2.469 6.457-10.311 8.691-12.652 15.101-.582 1.595-1.354 3.169-2.01 4.744-.07.148-.112.317-.168.471 1.768.562 3.453 1.278 5 2.188a20.604 20.604 0 0 1 6.225 5.654c1.521 2.106 3.073 5.266 3.626 7.816 2.814 12.975-1.145 31.526 11.839 40.12 5.226 3.45 11.692 4.749 17.852 4.238 3.089-.266 6.181-.89 9.094-1.984 2.378-.894 4.401-2.479 6.632-3.567-3.446-.011-6.995-1.146-10.307-3.369-4.93-3.294-13.529-11.892-15.736-32.406z" fill="none"/><path d="M48.105 19.379c.443-4.719-2.045-8.722-5.587-8.916-3.517-.209-6.749 3.471-7.199 8.189-.459 4.725 2.051 8.701 5.564 8.917 3.524.199 6.772-3.462 7.222-8.19z" fill="none"/><path d="M32.376 43.6c.393-2.761.781-5.613.189-8.261-.72-3.23-2.761-5.93-3.844-9.12-.645 1.769-1.35 3.517-1.947 5.281-1.382 4.039-1.171 8.185-1.025 12.351a38.9 38.9 0 0 1 6.627-.251z" fill="none"/><path d="M22.075 17.722c-.414-4.406-3.43-7.842-6.717-7.642-3.303.179-5.624 3.921-5.214 8.322.429 4.412 3.445 7.827 6.742 7.638 3.266-.2 5.618-3.912 5.189-8.318z" fill="none"/><path d="M38.515 61.788c-1.892-.695-3.717.312-5.436.992-2.07.828-4.032 1.094-6 .838-1.125-.143-2.285-.465-3.45-.951-1.421-.598-3.403-1.646-4.934-.787-2.556 1.42-.869 5.608.536 7.218a11.445 11.445 0 0 0 4.535 3.118c3.777 1.437 8.143 1.033 11.573-1.114 1.722-1.083 3.38-2.664 4.415-4.422.837-1.416.525-4.242-1.239-4.892z" fill="none"/><path d="M48.105 19.379c.443-4.719-2.045-8.722-5.587-8.916-3.517-.209-6.749 3.471-7.199 8.189-.459 4.725 2.051 8.701 5.564 8.917 3.524.199 6.772-3.462 7.222-8.19z" fill="none"/><path d="M94.799 4.896c-19.19-7.591-33.607-.792-39.86 3.297l-2.736 10.822c-1.378 2.283-14.684 19.838-12.833 29.318 2.233 11.439 12.404 31.154 16.485 44 5.218 16.426 18.422 14.591 20.849 14.833 15 1.5 20.72-5.344 24.167-5.333l11.755-5.278a59.309 59.309 0 0 0 6.59-10.705c1.494-2.96 2.239-5.291 2.315-5.526.006-.021 0-.041.006-.066 1.912-5.26 3.36-11.298 3.895-18.291 1.686-21.706-7.127-47.772-30.633-57.071z" fill="#6d4c41"/><path d="M101.22 99.557c-2.231 1.088-4.254 2.673-6.632 3.567-2.913 1.095-6.005 1.718-9.094 1.984-6.159.511-12.626-.788-17.852-4.238-12.983-8.594-9.024-27.145-11.839-40.12-.553-2.55-2.105-5.709-3.626-7.816a20.58 20.58 0 0 0-6.225-5.654c-1.547-.91-3.232-1.626-5-2.188.056-.154.098-.322.168-.471.655-1.575 1.428-3.149 2.01-4.744 2.342-6.41 10.184-8.644 12.652-15.101 1.206-3.144 1.596-7.136.985-10.915l-1.831-5.669c-1.226-2.3-2.998-4.212-5.4-5.352-2.966-1.411-8.451-1.094-11.436.123l-.231.097c-4.028 1.717-6.727 4.642-8.338 8.123-1.222-4.238-3.664-8.041-8.03-9.672C9.08-3.135-.346 8.5 3.079 20.11c1.487 5.05 4.549 9.492 7.699 13.644 1.716 2.258 3.113 4.876 4.114 7.529.19.501 1.16 3.809 1.504 6.017-4.238 3.037-7.275 7.74-9.039 12.688a29.41 29.41 0 0 0-.977 3.415c-1.175 5.271-1.038 11.707-.092 16.998 3.128 17.417 13.926 33.545 29.542 42.057 6.942 3.788 14.995 5.342 22.867 5.04 9.289-.358 18.505-4.207 26.73-8.292 5.225-2.597 21.904-15.811 27.195-22.651l-11.402 3.002zM26.773 31.5c.598-1.764 1.303-3.512 1.947-5.281 1.083 3.19 3.124 5.89 3.844 9.12.593 2.648.205 5.5-.189 8.261a39.019 39.019 0 0 0-6.628.251c-.145-4.167-.356-8.313 1.026-12.351zM10.144 18.402c-.41-4.401 1.911-8.143 5.214-8.322 3.287-.2 6.303 3.236 6.717 7.642.429 4.406-1.923 8.118-5.188 8.318-3.297.189-6.314-3.226-6.743-7.638zm29.612 48.279c-1.035 1.758-2.693 3.338-4.415 4.422-3.431 2.147-7.796 2.551-11.573 1.114a11.438 11.438 0 0 1-4.535-3.118c-1.405-1.61-3.092-5.798-.536-7.218 1.53-.859 3.513.189 4.934.787 1.165.486 2.325.808 3.45.951 1.968.255 3.93-.011 6-.838 1.719-.68 3.544-1.687 5.436-.992 1.762.649 2.074 3.475 1.239 4.892zm-4.437-48.029c.45-4.718 3.683-8.398 7.199-8.189 3.542.194 6.03 4.197 5.587 8.916-.45 4.728-3.698 8.389-7.223 8.19-3.512-.216-6.022-4.192-5.563-8.917z" fill="#f79329"/><path d="M10.144 18.402c-.41-4.401 1.911-8.143 5.214-8.322 3.287-.2 6.303 3.236 6.717 7.642.429 4.406-1.923 8.118-5.188 8.318-3.297.189-6.314-3.226-6.743-7.638z" fill="#424242"/><path d="M39.756 66.681c-1.035 1.758-2.693 3.338-4.415 4.422-3.431 2.147-7.796 2.551-11.573 1.114a11.438 11.438 0 0 1-4.535-3.118c-1.405-1.61-3.092-5.798-.536-7.218 1.53-.859 3.513.189 4.934.787 1.165.486 2.325.808 3.45.951 1.968.255 3.93-.011 6-.838 1.719-.68 3.544-1.687 5.436-.992 1.762.649 2.074 3.475 1.239 4.892z" fill="#424242"/><path d="M35.319 18.652c.45-4.718 3.683-8.398 7.199-8.189 3.542.194 6.03 4.197 5.587 8.916-.45 4.728-3.698 8.389-7.223 8.19-3.512-.216-6.022-4.192-5.563-8.917z" fill="#424242"/></g><path d="M94.084 91.443c-6.974-4.667-11.797-14.972-13.231-28.274-1.429-13.312 2.68-23.194 6.998-28.004 2.018-2.255 4.26-3.548 6.14-3.548 2.849 0 6.013 1.994 7.617 4.223 5.629 7.796 5.726 18.633 3.915 27.728-.759 3.803-3.762 9.692-8.156 5.756-2.056-1.851-2.436-7.556-2.383-10.112.04-2.601.174-5.48 1.032-7.964.233-.685.593-2.259-.297-2.688-1.696-.798-3.691 3.041-4.085 4.008-2.883 7.09-1.738 20.009 6.109 23.561 6.932 3.133 10.685-4.146 12.554-9.412 2.466-7.003 2.394-14.682.911-21.9-1.81-8.834-6.65-18.904-17.218-18.904-3.548 0-7.228 1.927-10.388 5.444-5.143 5.721-10.06 17.244-8.423 32.427 2.207 20.514 10.806 29.112 15.733 32.405 3.311 2.224 6.86 3.358 10.307 3.369l11.404-3.001c3.497-4.378 7.308-11.033 8.905-16.231-2.815 4.694-5.503 8.173-8.6 10.786-5.248 4.249-15.544 2.54-18.844.331z" fill="#f79329"/></g></svg>