<svg xmlns="http://www.w3.org/2000/svg" viewBox="0 0 128 128"><g id="图层_1"><ellipse transform="rotate(-13.952 107.79 99.983)" cx="107.796" cy="99.969" rx="4.837" ry="4.208" fill="#b0bec5"/><path d="M76.455 62.016c.794 0 1.414.542 1.712 1.897.176.814.281 1.637.388 2.46.331 2.527.925 4.717 2.824 6.526 1.537 1.447 3.132 2.655 4.569 4.227 4.14 4.524 11.026 5.877 15.391 10.696 2.941 3.233 5.012 7.298 6.163 11.502 1.307 4.767 2.215 10.123 1.033 15.001-1.647 6.785-7.52 7.838-13.677 9.032-4.834.932-26.684 3.375-29.417 3.375-.191 0-.38-.004-.569-.004-1.012-.023-3.351.069-4.309-1.019-.792-1-.653-3.656-.542-4.542.08-2.855.092-6.002-.497-6.724-.278-.36-1.664-.489-1.821.548-.327 1.893-.525 6.454-.37 8.508.281 4.004-4.621 3.296-8.036 3.296-2.144 0-4.283-.25-5.245-1.921-.781-1.656.499-6.788.462-8.75-.077-4.068-.502-8.577-1.293-12.58-.357-1.817-.823-3.614-1.459-5.349-.343-.942-2.178-3.804-1.88-4.721.297-.938 1.206-.854 1.913-1.2.837-.406 1.394-1.057 2.107-1.666 2.004-1.723 4.059-3.385 6.088-5.075 4.045-3.373 8.089-6.743 12.134-10.114 1.658-1.384 3.686-2.676 4.907-4.457 1.032-1.499 6.472-8.946 9.424-8.946" fill="#e0e0e0"/><path d="M71.543 126.233c2.437-.525 1.308-4.754 1.323-7.577.002-.427.219-2.948 3.58-3.96 1.204-.363 2.549-.283 3.52-1.082 1.537-1.267 2.008-3.333 2.9-5.114 1.341-2.678 5.491-4.9 7.177-4.213.419.172-1.864.982-2.723 1.59-.573.406-1.13.853-1.546 1.418-1.496 2.031-1.574 5.073-2.971 7.174-1 1.504-4.324 1.253-5.688 2.438-1.42 1.233-1.508 4.072-.709 5.774.459.978 1.741 2.694 4.569 2.528 0-.001-7.212.79-9.432 1.024z" fill="#b0bec5"/><path d="M44.308 112.128c1.087-4.334 6.309-5.595 8.714-5.628 9.018-.123 14.033-1.703 20.773-3.836 4.546-1.439 12.081-6.248 13.639-12.423.202-.801-.293-1.975-1.108-1.843-1.929 1.434-1.533 3.935-17.304 9.12-7.066 2.323-22.95 1.283-27.764-.379 1.024 2.182 1.72 4.981 2.135 7.301l.915 7.688z" fill="#b0bec5"/><g><path d="M80.867 52.124c-.027 3.254 1.75 9.111 3.032 11.754 1.912 3.915 3.599 8.039 4.292 12.357.925 5.736.153 11.842-4.199 15.976-6.675 6.337-15.531 9.201-24.608 9.456-.438.014-.886.018-1.349.018-11.734 0-29.782-4.142-33.678-16.617-1.146-3.668-.76-9.237.798-12.755 1.94-4.379 2.724-9.825 4.827-14.602 1.37-3.111 3.308-6.435 6.115-8.46.855-.612 2.14-1.129 2.238-2.317.105-1.315-1.282-3.399-1.966-4.462-5.251-8.253-12.628-14.784-19.095-22.029-1.332-1.492-2.121-3.485-2.92-5.35-.769-1.778-.989-3.64-.984-5.598 0-3.258 2.599-5.865 5.533-6.939 3.037-1.117 6.618-.618 9.623.357 2.111.684 4.089 1.733 5.9 3.005 5.667 4.003 10.576 9.427 13.723 15.627 3.417 6.722 3.914 13.959 5.509 21.21.324 1.48.66 1.874 2.257 1.874 1.709 0 3.426.169 5.129.233.956.035 2.098.151 2.958-.372 2.074-1.241 2.502-5.463 3.127-7.602 2.758-9.45 5.27-21.831 11.848-29.576 1.653-1.943 3.771-3.621 6.068-4.756.369-.186.805-.363 1.278-.527 2.674-.919 5.988-1.266 8.618-.014 4.372 2.08 4.331 7.98 3.587 12.044-.93 5.087-4.971 12.379-7.503 16.793-2.323 4.045-10.112 16.214-10.158 21.272z" fill="#e0e0e0"/><path d="M40.653 71.265c-2.467-.018-4.476 2.311-4.494 5.183-.012 2.88 1.979 5.218 4.45 5.242 2.455.008 4.478-2.305 4.49-5.191.016-2.866-1.978-5.226-4.446-5.234z" fill="#2f2f2f"/><path d="M70.535 71.265c-2.462.008-4.463 2.368-4.435 5.234.003 2.887 2.025 5.199 4.48 5.191 2.472-.024 4.465-2.362 4.454-5.242-.022-2.873-2.031-5.202-4.499-5.183z" fill="#2f2f2f"/><path d="M88.169 9.965c-1.731.323-3.52 1.551-4.494 2.609-1.966 2.148-3.221 4.871-4.358 7.519-1.603 3.728-3.947 10.336-5.225 14.188A138.556 138.556 0 0 0 72.4 39.68c-.515 1.809-1.173 3.552-1.238 5.447-.031.945.205 1.243 1.097 1.623.913.386 2.039.959 3.022 1.076.574.069.776.051 1.089-.369.263-.363.462-.913.754-1.315 1.276-1.788 1.976-4.181 3.017-6.124 1.238-2.327 2.578-4.603 3.793-6.945 1.683-3.252 4.688-9.117 6.139-12.485.952-2.213 3.331-8.029.93-10.029-.803-.663-1.807-.788-2.834-.594z" fill="#ed80ad"/><path d="M47.941 44.735c1.794-1.104-.142-5.222-.596-6.675-1.062-3.405-2.629-6.622-4.203-9.815-3.437-6.98-7.971-13.973-14.831-18.005-1.273-.749-2.508-1.384-3.993-.962-2.048.586-2.899 1.623-2.762 3.791.3 4.744 6.65 9.272 9.491 12.653 2.362 2.813 4.511 5.804 6.565 8.839 1.748 2.584 3.168 5.373 4.647 8.119.406.749 1.032 2.678 1.935 3.027.688.267 2.751-.362 3.747-.972z" fill="#ed80ad"/><path d="M66.455 90.788c-1.537-.783-3.043 1.504-4.495 1.675-1.682.198-3.22-.557-3.458-1.379-.094-.312-.202-1.535-.223-1.801 2.269-.907 3.4-2.574 3.391-3.457 0-.591-.286-1.145-.848-1.21-.598-.068-.987.241-1.455.581-1.141.804-1.607 1.241-3.427 1.227-1.225-.01-2.197-.619-2.933-1.267-.331-.287-1.099-.792-1.717-.243-1.347 1.195.81 3.358 1.948 3.86.515.227.946.447 1.432.627 0 .734-.007 1.469-.021 1.599-.079.954-1.074 1.43-1.952 1.653-.742.184-1.8.047-2.507-.248-.648-.26-1.058-.912-1.513-1.405-.475-.512-1.057-.738-1.616-.461-.905.449-.985 1.553-.45 2.593.653 1.271 1.442 1.745 2.305 2.233 1.191.673 3.929.877 5.711.062 1.474-.674 1.982-1.558 3.04-.746 1.448 1.102 3.521 1.227 5.373.756 1.56-.4 5.511-3.582 3.415-4.649z" fill="#2f2f2f"/></g></g></svg>