<svg id="レイヤー_1" xmlns="http://www.w3.org/2000/svg" xmlns:xlink="http://www.w3.org/1999/xlink" viewBox="0 0 128 128"><g><path d="M77.101 105.149c.203-.496.39-.987.575-1.474 1.156-3.125 3.413-8.553-.936-10.386-2.146-.912-4.221-1.958-6.231-3.245-1.923-1.236-3.345-3.404-4.688-5.21-.995-1.325-2.358-2.841-2.315-4.592.06-2.252 1.55-4.822 2.549-6.802a43.952 43.952 0 0 1 3.856-6.387c2.092-2.879 5.444-6.924 9.001-7.906 2.315-.64 3.95-.31 5.089 1.896 1.563 3.093 3.081 6.531 3.304 10.047.072 1.113-.306 2.026-.463 3.104-.245 1.713-.067 3.55-.067 5.275 0 2.661-.868 5.813 1.546 7.752 1.786 1.438 3.883 3.959 3.895 6.372.004 2.645-1.587 5.756-2.667 8.104-1.439 3.104-3.023 6.141-4.483 9.237-1.109 2.362-1.249 4.723-1.249 7.314 0 3.374-4.035 3.082-6.448 3.135-.732.017-1.702.199-2.375-.169-.482-.265-.597-.735-.767-1.232-.152-.44-.352-.993-.406-1.461-.54-4.661 1.577-9.113 3.28-13.372z" fill="#2f2f2f"/><g><path d="M30.68 12.061c.266-.515.657-1.003 1.076-1.435 2.355-2.47 6.055-3.795 9.297-4.619 1.537-.392 4.09-1.314 5.136.534.549.974.229 1.494-.467 2.235-.904.944-1.044 1.509-.846 2.866.115.794 5.12 1.024 5.81 1.128 1.278.195 2.384.752 3.624 1.078 1.673.439 9.598-.525 7.68 3.316-.482.985-2.802 1.431-2.54 2.66.412 1.986 4.839 1.226 6.249 1.349 1.194.104 2.067.493 2.172 1.896.103 1.505-.855 1.467-1.913 2.168-.5.335-1.65 1.226-1.646 1.889.033 1.062 1.438 1.168 2.196 1.363.966.249 1.91.271 2.98.271.864 0 2.659-.332 3.332.19 2.436 1.893-2.43 3.247-2.527 4.681-.147 2.144 5.098 1.757 6.521 2.38.979.427 1.173 1.141 1.075 2.233-.148 1.554-1.193 1.625-2.108 2.71-2.011 2.381 4.429.88 3.399 4.063-.41 1.31-2.185 2.515-3.247 3.252-2.375 1.632-4.834 2.339-7.595 3.046-1.843.471-4.514 1.262-6.436.769-.661-.171-.975-.711-1.41-1.099-.698-.62-1.55-1.186-2.126-1.962-2.15-2.902-3.691-6.239-6.813-8.341-1.312-.885-2.188-1.541-3.195-2.769-.773-.938-1.812-2.352-3.252-2.108-.428.072-3.277-5.19-3.549-5.618-2.303-3.675-4.622-7.352-6.928-11.027-.612-.965-1.149-2.04-1.844-2.94-.551-.697-1.338-1.084-1.901-1.732-.686-.793-.606-1.638-.204-2.427z" fill="#b89278"/><g><path d="M92.99 51.255c-.499-.949-.533-2.108.317-3.718 3.031-5.784 9.483-3.667 14.224-1.575 3.35 1.482 6.604 3.256 10.168 4.2 1.55.406 3.044.635 4.636.542 1.579-.085 3.548-.406 4.373 1.325.712 1.486 0 3.84-.795 5.161-5.301 8.772-18.339 8.328-25.061 1.558-1.271-1.278-2.509-2.582-3.845-3.793-1.455-1.33-3.251-2.278-4.017-3.7z" fill="#b89278"/><g><path d="M102.154 84.875c1.806-2.369 2.598-5.622 3.156-8.425.585-2.884.546-5.9.491-8.936-.039-1.766-.303-3.567-.881-5.237-.559-1.592-1.608-2.797-2.329-4.278-1.588-3.243-4.157-5.915-7.04-8.04-4.306-3.167-9.891-3.785-15.069-3.515-5.457.288-10.533 1.922-15.427-1.304-4.378-2.9-8.599-7.451-11.466-11.981-1.66-2.63-3.061-5.415-4.577-8.129.063-1.974.471-5.445.483-5.453.021-.178 3.662-1.622 4.018-1.851 1.353-.838 2.549-1.863 3.261-3.298 1.15-2.278 1.604-5.657-1.504-6.555-2.473-.711-5.33.331-7.422 1.651-1.88 1.202-5.932 4.344-5.932 4.344s-1.938-.127-5.44-.923c-3.499-.787-6.91-2.71-6.91-2.71S28 6.367 27.284 4.386c-.362-1.017-.889-2.143-1.667-2.913-1.876-1.867-4.027-.644-5.391 1.004-1.612 1.943-2.096 3.818-1.4 6.262.475 1.643 2.112 4.978 2.112 4.978s-3.053 2.719-4.171 3.988c-1.197 1.347-2.196 2.727-2.925 4.353-1.439 3.222-2.67 6.8-4.284 10.051-2.643 5.322-6.792 9.988-8.205 15.886-1.462 6.131 1.723 11.542 7.501 13.819 4.158 1.626 8.812 2.075 12.926.11 3.146-1.499 5.313-4.175 8.011-6.283a33.738 33.738 0 0 1 1.715 2.828c1.589 2.98 2.819 6.147 3.607 9.416.707 2.93.593 5.761.532 8.734-.054 2.511-.549 4.238.712 6.605.763 1.409 1.669 2.127 2.782 3.251 1.885 1.903 4.039 3.252 6.541 4.059 2.617.838 5.276 1.534 7.98 2.007 2.702.475 5.412.503 8.117.782 2.299.233 4.941-.924 7.059-1.741 2.438-.94 4.809-2.058 7.214-3.095 2.104-.913 4.237-1.772 6.46-2.393 1.136-.317 2.262-.35 3.472-.357 1.1-.007 1.693.401 2.562 1.039.838.616 1.638 1.378 2.671 1.494.618.07 1.207.054 1.804.172 1.194.23 2.558.557 3.747.184 1.38-.436 2.727-1.3 3.863-2.197a9.193 9.193 0 0 0 1.525-1.554z" fill="#855c52"/></g><g><path d="M35.151 36.929c-2.435-.277-3.883-2.417-3.265-4.803.424-1.626 1.63-3.002 3.396-2.868 5.048.372 5.147 8.274-.131 7.671z" fill="#2f2f2f"/></g></g><g><defs><path id="SVGID_1_" d="M111.754 94.954c-.889-3.234-4.018-5.513-4.434-9.012-.481-4.101.895-8.102.827-12.189-.029-2.14-.58-4.253-1.135-6.311-.424-1.581-.944-3.149-1.684-4.615-.142-.287-.365-.961-.635-1.143-.218-.15-.582-.087-.866-.125-.757-.102-1.498-.348-2.264-.346-1.042.005-2.075 0-3.121 0-1.443 0-2.884-.004-4.332 0-.957.005-1.879-.135-2.849-.135-1.101 0-2.186.114-3.281.14-3.819.085-7.681.885-11.49 1.253-5.276.51-10.331 2.016-15.674 1.99-3.12-.013-6.232.275-9.361.275-2.388 0-4.78-.013-7.174.004-1.756.011-3.512-.294-5.282-.112-.364.036-4.54.845-4.657.517.013.025 1.77 5.428-1.342 9.988-2.054 3.003-5.694 6.973-8.159 9.534-2.583 2.672-3.311 5.767-2.642 9.365.453 2.386 1.21 4.688 1.858 7.024.562 2.034.79 4.221 1.825 6.094 1.093 1.965 2.934 3.398 4.742 4.666 1.273.887 2.734 1.933 4.411 1.562 1.454-.315 2.896-2.273 3.332-3.732.444-1.521.39-3.776-.419-5.154-.534-.919-1.55-1.319-2.413-1.842-1.559-.942-2.113-3.817-2.475-5.424-.431-1.931-.786-3.958 1.153-5.085a16.787 16.787 0 0 1 3.976-1.653c1.465-.408 2.968-1.264 4.501-1.001 1.935.334 4.335 1.856 6.033 2.854.939.553 1.249 1.452 1.363 2.467.14 1.236.258 2.419.258 3.693 0 2.847.136 5.732.136 8.611v4.742c0 2.551-.14 5.091-.136 7.641 0 1.568-.135 3.143-.135 4.725 0 .658-.022 1.539.271 2.146.283.559.88.705 1.456.857 1.033.271 2.168.241 3.29.241 1.215 0 2.545-.123 3.578-.854 1.013-.709.88-2.557.766-3.624-.584-5.072-.134-10.228 1.066-15.181.911-3.753 2.761-7.1 3.899-10.756.839-2.669 2.376-3.872 4.976-4.676 1.007-.312 2.104-.424 3.142-.688 3.222-.823 6.27-2.268 9.36-3.466 1.173-.448 3.332-1.621 4.476-.656.825.701 1.423 1.959 2.104 2.812.816 1.008 1.71 1.978 2.805 2.683 2 1.287 4.075 2.332 6.23 3.245 1.977.834 2.167 1.452 2.152 3.441-.027 2.697-.777 4.984-1.641 7.497-.711 2.074-1.3 4.189-1.914 6.293-.806 2.773-1.955 7.043-.706 9.869.499 1.144 2.379 1.162 3.415 1.213 1.678.083 3.49-.442 4.963-1.188.963-.489 1.187-.847 1.187-1.926 0-2.528.008-4.931.676-7.389.67-2.443 2.479-5.762 3.473-8.071 1.355-3.176 3.357-7.131 2.614-10.685-.02-.132-.059-.269-.093-.403z"/></defs><use xlink:href="#SVGID_1_" overflow="visible" fill="#855c52"/><clipPath id="SVGID_2_"><use xlink:href="#SVGID_1_" overflow="visible"/></clipPath><path d="M35.109 102.302s.174 8.776-5.636 8.68l.729 2.083 5.306 2.803 4.974-2.492 1.406-7.475-2.333-4.516-4.446.917z" clip-path="url(#SVGID_2_)" fill="#78a3ad"/><path d="M50.305 121.161s2.972 2.168 9.11.15l2.724 1.72-.31 6.853-14.484-.157.622-7.318 2.338-1.248z" clip-path="url(#SVGID_2_)" fill="#78a3ad"/><path d="M95.158 118.084s3.124 2.798 10.004-.102l1.258.76.267 6.924-11.762 1.307-2.084-5.618 2.317-3.271z" clip-path="url(#SVGID_2_)" fill="#78a3ad"/></g><path d="M18.135 56.352c-.812.489-1.824.928-2.781.735-.858-.17-1.748-.909-1.27-1.891.301-.614.961-1.12 1.537-1.453.741-.432 2.921-1.094 3.606-.258.88 1.068-.198 2.338-1.092 2.867z" fill="#2f2f2f"/></g></g></svg>