<svg id="レイヤー_1" xmlns="http://www.w3.org/2000/svg" viewBox="0 0 128 128"><g><path d="M22.534 73.308s.409-2.96-.511-3.242l5.304-20.654 31.837-6.064 5.117 13.456-10.038 18.571-25.779 4.926-5.93-6.993z" fill="#2f2f2f"/><g><path d="M120.353 86.819c-.053-.862-.075-1.732-.104-2.594-.064-1.417-.145-2.829-.403-4.22-.496-2.736-2.132-5.26-2.971-7.91-1.332-4.198-1.657-8.733-3.186-12.851-1.859-4.993-5.214-9.337-9.024-13.001-1.333-1.283-2.585-2.451-4.082-3.397-1.808-1.137-2.768-2.808-5.006-3.064-2.958-.338-5.845-.631-8.812-1.115-4.032-.662-7.906-1.169-11.752-2.66-3.296-1.279-6.392-2.479-9.372-4.389-2.728-1.741-5.694-4.051-8.76-5.09-1.229-.418-3.215-1.6-4.52-1.511l-10.233 5.686c-.561.645-1.387.919-1.915 1.577-.502.625-.759 1.55-1.097 2.27a77.652 77.652 0 0 0-2.919 7.16c4.349-1.128 8.948-.902 13.263 1.208.245.115.52.248.827.391 1.603.765 3.229 1.715 4.295 3.177a5.86 5.86 0 0 1 1.039 2.335c.24 1.173-.022 1.764-.404 2.848-.333.933-.808 1.64-1.426 2.425-2.383 3.038-5.548 5.122-8.03 8.018-3.141 3.655-4.076 8.372-8.933 10.42-4.371 1.844-9.661 1.697-14.293.777-.302 1.594-.36 3.255-.288 4.832.146 3.247.977 6.525 2.531 9.386 1.785 3.282 5.055 6.934 5.259 10.798.134 2.58.045 5.165-.129 7.737-.111 1.651.089 3.34-.2 4.975-.323 1.865-3.08 3.873-1.852 5.907 1.17 1.937 4.135 1.554 5.947 1.168 2.519-.547 4.295-1.729 4.86-4.446.541-2.629.815-5.315 1.252-7.968.222-1.306.471-2.612.786-3.904.213-.875.292-2.652 1.403-2.789.368-.045.853.173 1.208.253.582.129 1.158.333 1.736.497 1.289.355 2.58.635 3.878.925 2.794.621 5.699.666 8.532.302 1.501-.191 2.977-.511 4.441-.897 2.443-.645 3.31 1.71 4.135 3.482 1.026 2.194 1.951 4.451 2.51 6.817.697 2.949 1.661 5.752 1.679 8.817.016 1.928-.55 5.072 1.164 6.489 2.328 1.923 9.337 3.495 10.904-.254 1.062-2.532-.782-5.232-1.39-7.63-.688-2.71-.925-5.575-1.058-8.36-.151-3.126-.11-6.244-.049-9.376.022-1.367-.062-2.74-.085-4.108-.025-1.421-.576-4.242.77-5.17 2.198-1.528 5.041-1.724 7.57-2.346 2.836-.701 5.63-1.541 8.513-2.065 1.569-.284 3.215-.732 4.771-.102.95.392 1.607.981 2.425 1.483 3.78 2.362 7.062 5.792 7.493 10.42.102 1.146.306 2.407.031 3.536-.479 2.008-1.417 4.574 1.39 5.143 2.157.436 4.555 0 6.188-1.546 1.893-1.785 2.212-4.832 2.301-7.284.138-3.759-.591-7.472-.808-11.212z" fill="#855c52"/><path d="M6.877 15.051c.502-3.971 3.229-5.046 6.236-6.894.899-.551 2.276-1.403 2.816-2.336.595-1.013-.218-2.292-.938-3.003-.528-.523-.861-.621-.95-1.39-.071-.627-.045-.92.537-1.084 1.19-.334 2.346.79 3.238 1.39 2.097 1.408 3.362 3.421 3.424 5.996.045 1.661-.337 2.915-1.261 4.317-.671 1.021-1.835 2.936-.285 3.731 1.773.906 3.955.635 5.855.452.782-.07 2.093-.434 2.79-.092.711.351 1.119 1.234 1.114 1.977-.014 1.625.049 2.962-.701 4.459-.742 1.483-2.403 2.981-3.807 3.837-.764.462-1.581.89-2.449 1.107-.972.239-1.744.128-2.704.058-1.109-.084-2.127-.08-3.219-.356-2.194-.56-3.78-1.527-5.41-3.073-2.389-2.26-4.734-5.587-4.286-9.096z" fill="#fcc21b"/><g><path d="M45.681 15.788c-4.372-1.212-9.235-1.377-12.976-1.199-2.51.124-4.947.844-7.173 1.999-9.55 4.947-10.345 14.368-10.345 23.984 0 2.292.484 5.251-.153 7.432-.872 2.979-3.271 5.582-3.862 8.625-.579 2.98.72 6.898 2.9 8.964 2.625 2.486 6.712 4.614 10.334 4.916 6.129.516 13.146.312 15.73-6.448.684-1.795.96-2.443 2.371-3.794 1.6-1.527 3.261-2.852 4.926-4.255 6.011-5.046 10.643-11.727 10.016-19.872-.302-4.016-.163-8.297-1.509-12.143-1.563-4.474-5.632-6.93-10.259-8.209z" fill="#855c52"/><path d="M86.681 84.643c.434 1.004.978 1.981 1.222 2.914.422 1.595.516 4.192-.054 5.761-.563 1.541-2.514 2.057-2.907 3.718-.565 2.385 2.73 3.091 4.458 3.047 2.571-.071 4.898-1.732 5.726-4.021 1.447-3.97 3.966-9.505 3.269-13.831-.106-.697-.821-1.069-.772-1.776.079-.911.435-1.55.018-2.479-1.854-4.18-6.485.021-8.812 1.252-1.102.582-2.496 1.04-2.736 2.257-.216 1.061.136 2.123.588 3.158z" fill="#855c52"/><path d="M97.639 41.82c.613-.985 5.48 2.341 6.369 2.776 4.899 2.39 11.598 1.203 11.512-5.383-.039-3.785-3.792-6.512-6.706-8.316-1.83-1.128-4.131-1.91-5.459-3.69-1.368-1.844-.315-4.061 1.436-5.197 1.754-1.142 3.752.866 2.083 2.395-.551.506-1.293.763-.876 1.59.702 1.412 2.914 2.123 4.188 2.86 3.833 2.221 8.523 5.721 8.897 10.539.555 7.21-6.805 11.483-13.281 10.555-1.519-.218-5.623-.956-6.441-2.19-.457-1.466-.917-2.931-1.376-4.396-.151-.49-.547-1.21-.346-1.543z" fill="#855c52"/><path d="M113.77 17.45c1.666-.214 2.204-.676 2.266 1.505.09 3.176-1.053 5.099-3.935 6.468-2.488 1.176-5.375 1.097-7.516-.787-2.194-1.927-1.768-4.3.223-6.183 2.819-2.66 5.658-.586 8.962-1.003z" fill="#2f2f2f"/><g><g><g><g><path d="M38.191 38.476c-1.302 1.924-.986 4.673.694 6.152 1.699 1.461 4.13 1.114 5.426-.795 1.288-1.929.982-4.691-.711-6.156-1.695-1.466-4.125-1.119-5.409.799z" fill="#2f2f2f"/></g></g></g></g><path d="M56.354 24.423c1.621 2.527 11.108.071 10.922 4.53-.204 4.807-11.322 3.941-10.922 1.91v-6.44z" fill="#855c52"/><path d="M17.417 60.204c.427.143.849.365 1.204.641.689.541 1.337 1.27 1.074 2.193-.727 2.55-3.401.333-4.023-1.004-.91-1.953.418-2.282 1.745-1.83z" fill="#2f2f2f"/><path d="M31.893 62.164c1.333-.05 2.736.546 2.084 2.02-.637 1.431-2.981 2.106-4.399 2.017-1.264-.079-2.496-.639-1.972-2.077.569-1.592 2.861-1.907 4.287-1.96z" fill="#2f2f2f"/><path fill="#855c52" d="M46.515 35.394l-11.966 7.439-.76-7.2 9.097-4.17z"/></g><path d="M46.128 26.652c3.709 5.081 11.855 4.717 16.351.533 2.731-2.541 4.077-6.56 3.473-10.225-.702-4.305-4.637-6.267-6.648-9.834-.512-.901-.196-1.795.11-2.724.195-.6.799-1.842.333-2.43-.884-1.114-2.852 1.227-3.353 1.83-1.342 1.612-1.933 4.221-1.697 6.281.235 1.972 2.724 3.979 1.567 5.898-2.029 3.385-6.552-.026-9.371.018-.524.009-.769.17-1.146.559-.626.649-1.039 1.822-1.131 2.657-.205 1.776-.184 4.072.518 5.684.28.647.612 1.229.994 1.753z" fill="#fcc21b"/></g></g></svg>