<svg id="レイヤー_1" xmlns="http://www.w3.org/2000/svg" viewBox="0 0 128 128"><g><path d="M61.554 103.975s3.099.133 6.584-.32l11.301-.23 4.344-25.785-19.618-11.21s-17.375 1.821-16.951 1.821c.414 0-1.686 14.855-1.686 14.855s4.07 14.014 4.484 14.294c.424.278 11.542 6.575 11.542 6.575z" fill="#2f2f2f"/><g><path d="M102.882 75.821c-3.896-10.854-14.389-18.608-23.437-25.082-5.661-4.053-13.058-5.979-19.955-6.041-7.401-.065-14.162 4.26-18.845 9.673-5.508 6.379-5.833 12.462-7.152 20.357-.545 3.288-1.974 5.239-4.184 7.566-1.743 1.827-2.699 3.458-1.61 5.907.706 1.583 1.527 2.441 3.203 3.087 2.724 1.04 5.54-.137 7.585-1.994 1.112-1.008 1.837-2.713 3.223-3.41 2.224-1.112 1.998 3.882 2.271 5.126.283 1.254.896 2.507 1.433 3.693.31.697.801 1.225 1.178 1.875.951 1.658-4.217 4.033-5.154 4.561-1.337.749-2.562 1.348-3.425 2.667-.965 1.479-1.088 3.383-.156 4.899 1.406 2.271 4.146 2.508 6.517 2.508 4.273 0 7.816-2.695 11.217-5.052.744-.508 1.527-1.338 2.375-1.639 1.169-.415 2.417-.198 3.59-.548 1.264-.372 2.402-.885 3.576-1.47 1.823-.903 1.551-1.583 1.098-3.383-.556-2.214-.621-4.579.1-6.783.711-2.158 2.487-5.117 5.062-4.834 1.602.179.605 1.347-.067 2.271-.599.839-1.032 1.611-1.324 2.61-.557 1.908-.472 4.758.508 6.501.405.716 1.625 1.631 1.367 2.573-.197.696-1.338 1.045-1.933 1.328-1.969.923-3.922 1.885-5.804 2.986-1.687.985-4.405 2.008-4.975 4.08a5.777 5.777 0 0 0 .518 4.25c1.829 3.269 6.624 2.845 9.691 2.19 3.189-.678 5.678-2.765 8.287-4.574 2.836-1.96 5.955-3.307 9.074-4.749.781-.368 1.517-.717 2.317-1.056 3.93-1.648 7.472-3.863 10.332-7.094 4.726-5.334 6.337-12.146 4.679-19.049a38.151 38.151 0 0 0-1.18-3.95zm-45.757 17.95a5.466 5.466 0 0 1-1.507.405c-1.97.197-4.033-.354-5.545-1.648-2.201-1.876-2.852-4.769-1.702-7.397.49-1.103 1.104-2.252 1.702-3.317.484-.875 1.06-1.761 1.267-2.76.15-.688.104-1.555.99-1.763 2.044-.48.875 3.675.593 4.504-.825 2.356-3.693 5.437-1.611 7.901 1.488 1.758 4.641 1.55 6.191.004.593-.593 1.168-1.224 1.658-1.907.433-.626.631-1.645 1.328-2.04.716-.4 1.258.169 1.433.849.222.862-.254 1.502-.472 2.288-.207.727-.367 1.349-.792 2.008-.847 1.29-2.12 2.289-3.533 2.873z" fill="#78a3ad"/><path d="M12.293 45.321c4.56-10.103 12.835-19.19 21.318-21.504 13.149-3.594 28.456 2.818 33.191 16.057 4.885 13.673-1.282 27.387-14.907 32.701-4.599 1.796-9.488 3.651-14.435 3.774-8.924.216-24.801 1.253-28.021-10.082-1.743-6.125-.374-13.791 2.854-20.946z" fill="#78a3ad"/><path d="M23.077 34.494c-3.596-.165-8.075-6.331-9.438-9.145-1.601-3.209-1.781-8.631-.886-12.263 1.122-4.74 4.685-8.5 9.065-10.761 9.545-4.891 22.444-.65 25.931 8.696 2.365 6.388 1.573 16.339-4.81 20.532-2.351 1.517-6.338 1.258-9.06 1.601-3.562.435-7.16.888-10.802 1.34z" fill="#78a3ad"/><path d="M49.874 32.35c.288-9.81 6.64-20.282 15.298-23.127C76.013 5.669 87.599 11.05 92.96 21.259c4.616 8.783 2.61 20.019-4.91 26.129-8.319 6.751-22.623 6.374-31.312.123-5.021-3.609-7.043-9.262-6.864-15.161z" fill="#78a3ad"/><path d="M47.67 51.907c0 3.458-2.318 6.247-5.168 6.247-2.859 0-5.183-2.789-5.183-6.247 0-3.454 2.323-6.247 5.183-6.247 2.85 0 5.168 2.793 5.168 6.247z" fill="#2f2f2f"/><path d="M15.309 66.209c.895 2.577-.451 5.376-3.006 6.257-2.545.882-5.334-.49-6.228-3.066-.887-2.573.462-5.375 3.01-6.252 2.549-.881 5.338.49 6.224 3.061z" fill="#2f2f2f"/><path d="M61.093 31.394c-.453-.442-.904-.877-1.164-1.338-1.418-2.535 1.918-7.133 3.528-8.777 6.728-6.855 20.212-1.419 21.456 8.01 1.168 8.818-6.709 16.041-15.02 14.812-.886-.132-2.602-.297-3.194-1.126-.368-.518-.345-1.833-.5-2.46-.81-3.298-2.704-6.774-5.106-9.121z" fill="#fff"/><path d="M30.389 8.14c3.35.188 6.309 2.51 7.93 6.09 1.131 2.483 1.602 5.688.433 8.392-.509 1.177-1.725 1.536-2.845 2.087-1.494.744-3.043 1.286-4.528 2.082-.626.335-1.239.599-1.868.956-.445.265-.784.557-1.298.49-.324-.047-.739-.203-1.05-.277-2.771-.674-4.767-2.733-5.956-5.088-3.049-5.998 1.377-15.153 9.182-14.732z" fill="#fff"/><path d="M99.536 86.393c-.169-1.338.497-2.982 1.677-3.336 1.603-.479 3.94.35 5.456.825 7.049 2.195 15.199 8.107 15.516 16.178.503 12.914-12.623 21.79-23.723 24.769a81.942 81.942 0 0 1-13.644 2.449c-7.661.701-15.444.66-23.028-.735-3.779-.697-7.529-1.738-11.081-3.241-2.732-1.168-7.604-2.991-9.39-5.55-.345-.5-.919-1.366.079-1.498.52-.075 1.216.574 1.659.796 8.217 4.123 17.555 6.225 26.703 6.262 1.754.005 3.496-.015 5.244-.066 5.385-.16 10.789-.63 16.061-1.78 10.158-2.225 27.698-10.026 23.804-23.383-1.548-5.318-7.204-8.052-12.198-9.135-.591-.128-.83-.405-1.34-.697-.339-.198-.89-.235-1.183-.509-.348-.341-.545-.821-.612-1.349z" fill="#78a3ad"/></g></g></svg>