<svg id="レイヤー_1" xmlns="http://www.w3.org/2000/svg" xmlns:xlink="http://www.w3.org/1999/xlink" viewBox="0 0 128 128"><g><path d="M92.029 82.608s4.626-3.397 7.609-8.14L97.01 61.297l-14.23 2.459 1.053 17.212 8.196 1.64z" fill="#2f2f2f"/><g><g><defs><path id="SVGID_1_" d="M126.497 74.808c-1.737-3.931-3.911-9.175-7.443-11.838-1.222-.913-2.913-.197-3.793-1.49-1.558-2.296-2.306-4.807-3.591-7.219-.955-1.773-1.803-3.655-3.021-5.269-1.767-2.322-3.734-4.471-5.928-6.372 3.161-.428 6.248-1.465 8.854-3.005 3.157-1.86 6.285-4.297 8.214-7.466 1.194-1.964 1.958-4.339 1.234-6.611-.92-2.89-4.423-2.676-5.08.23-.229 1.046-.338 1.812-.923 2.778-2.638 4.4-7.5 6.692-12.423 7.463-2.527.396-5.11.42-7.654.156a30.039 30.039 0 0 1-5.567-1.136c-3.679-1.275-7.522-2.066-11.384-2.297-4.371-.264-9.204-.083-13.492.852-6.322 1.379-13.353 3.932-18.909 7.285a64.01 64.01 0 0 0-5.445 3.677c-2.712 2.045-5.675 3.522-7.775 6.28-1.849 2.445-2.725 5.45-4.458 7.961-1.626 2.354-3.712 4.362-5.347 6.73-4.511 6.527-9.4 19.192-15.187 22.379a121.288 121.288 0 0 1-3.804 1.991c-4.66 2.354-3.45 8.332-1.202 11.88 2.38 3.736 7.038 5.079 11.19 4.511 4.994-.683 8.748-3.927 12.122-7.458.842-.89 1.573-1.828 2.283-2.824.846-1.202 1.77-2.396 2.57-3.581.466-.699.942-1.407 1.56-1.992 1.11-1.046 1.703-1.498 3.227-.822 4.174 1.847 8.635 2.32 13.089 3 .568.087 1.301.189 1.694.663 2.324 2.832-3.521 10.084-5.505 12.006-1.021.992-2.017 2.021-2.594 3.347-.493 1.12-.947 2.248-.913 3.499.124 4.926 6.265 7.685 10.205 8.421 5.41 1.014 9.962-.653 13.379-5 1.854-2.355 3.047-5.043 4.314-7.727a66.955 66.955 0 0 0 2.946-7.359c.696-2.124 1.251-4.306 2.108-6.372.37-.89.888-1.794 1.769-2.119 2.824-1.033 5.779-2.49 8.497-3.804 2.864-1.387 5.58-3.157 7.714-5.549 1.398-1.572.139-2.382-.815-3.849a14.735 14.735 0 0 1-.881-1.58c-.605-1.219-1.136-2.325-1.313-3.688-.145-1.055-.209-2.092-.005-3.161.207-1.066.708-5.932 2.849-4.792 1.024.552.846 2.684.846 3.639 0 1.339-.104 2.7.25 3.964.403 1.416 1.244 2.65 2.058 3.939 1.276 2.017 3.416 3.334 5.524 4.28 1.375.609 2.733.725 4.272.725 1.621 0 3.287-.074 4.856-.515 1.539-.432 3.005-1.099 4.568-1.478 2.396-.585 2.165 1.771 3.153 3.321 1.425 2.235 4.355 2.507 6.659 1.314 4.449-2.303 4.068-6.225 2.448-9.918z"/></defs><use xlink:href="#SVGID_1_" overflow="visible" fill="#fcc21b"/><clipPath id="SVGID_2_"><use xlink:href="#SVGID_1_" overflow="visible"/></clipPath><g clip-path="url(#SVGID_2_)"><g fill="#2f2f2f"><path d="M72.309 34.717c3.366 2.692 5.759 6.54 6.827 10.81.372 1.465.717 3.062.742 4.564.049 2.453.189 4.878.181 7.331-.008.638-.04 1.062.7 1.193 1.638.288 2.247-2.762 2.502-3.82.453-1.889.699-3.828.75-5.771.096-4.404-1.021-8.964-3.664-12.554-2.387-3.235-5.663-5.26-9.311-6.828-2.189-.94-5.91-1.553-8.191-.54-.584.256-2.255.594-2.09 1.42.028.186 4.544.763 5.202.943a17.79 17.79 0 0 1 6.352 3.252z"/><path d="M79.228 33.285c3.877 1.878 7.055 5.109 9.039 9.035.683 1.351 1.37 2.828 1.729 4.289.583 2.384 1.259 4.713 1.793 7.108.133.626.194 1.042.946 1.009 1.663-.078 1.581-3.186 1.598-4.277a27.07 27.07 0 0 0-.542-5.79c-.881-4.318-2.964-8.521-6.339-11.436-2.808-2.42-7.044-3.597-10.735-3.156-.707.082-2.562.312-1.519 1.333.984.951 2.836 1.301 4.03 1.885z"/><path d="M89.41 34.857c.445.486 1.111.667 1.721.923a8.482 8.482 0 0 1 2.668 1.749c1.457 1.412 2.823 2.964 3.786 4.771 1.074 2.041 1.507 4.298 2.412 6.396.445 1.024 1.736 2.898 2.198.658.214-1.058.14-2.848 0-3.918-.471-3.425-2.1-6.816-4.655-9.175-1.329-1.23-2.813-2.038-4.557-2.522-.354-.1-4.791-1.009-3.815.777.074.127.151.243.242.341z"/><path d="M122.012 30.055l.047-.096c.527-.967.503-2.297.503-3.375 0-.461.024-.931-.116-1.367-.118-.402-.361-.774-.53-1.164-.168-.411-.391-.622-.782-.873-.416-.267-.773-.604-1.185-.881a2.506 2.506 0 0 0-1.427-.44c-.594 0-.953.296-1.407.617-.479.338-1.088.668-1.5 1.071-.264.263-.452.725-.604 1.057-.276.598-.399 1.224-.638 1.824-.222.567-.592 1.21-1.033 1.646-.475.474-1.819 1.943-.289 1.956.762.004 1.494-.342 2.317-.062 1.171.412 2.668 1.475 3.129 2.738.197.53-.029 1.699.465 2.021.829.543 1.511-1.021 1.762-1.544.496-1.014.767-2.137 1.288-3.128z"/><path d="M109.777 32.223c.052-.024.099-.05.148-.066 2.132-1.024 4.749 1.388 5.481 3.224.865 2.152-1.489 4.737-3.622 4.541-.182-.017.699-1.276.725-1.326.281-.643.182-1.169-.033-1.836-.354-1.104-1.144-2.074-2.172-2.604-.799-.408-1.712-.084-2.575-.458.006-.611 1.415-1.195 2.048-1.475z"/><path d="M104.509 35.121c2.865-.65 5.169 2.989 4.335 5.581-.186.581-.644 1.079-1.125 1.445-.642.49-1.544.638-2.329.503-.733-.129-.042-.86.098-1.272.561-1.553.107-3.416-1.077-4.568-.644-.626-1.613-.581-2.33-1.186-.189-.156 1.186-.28 1.234-.289.412-.033.807-.124 1.194-.214z"/></g></g></g><g><defs><path id="SVGID_3_" d="M22.41 83.79a30.459 30.459 0 0 1-6.008-3.787c-2.675-2.181-4.999-4.749-7.238-7.368-6.208-7.252-6.747-17.888-3.869-26.647.898-2.716 2.074-5.503 3.481-7.992 1.763-3.096 4.093-6.108 6.611-8.628a62.53 62.53 0 0 1 2.132-2.017c.412-.371 1.055-.7 1.325-1.194.545-.987-.77-2.49-.988-3.489-1.144-5.253 5.461-9.064 9.954-8.817 2.395.131 4.947.955 6.568 2.808 1.129 1.283 1.919 2.831 1.615 4.572-.1.679-.541 1.54-.429 2.219.099.622.646.518 1.161.518 6.297 0 13.022 1.375 18.834 3.82.329.131.782.428 1.136.103.371-.35.091-1.066.206-1.527.133-.502.33-1.095.561-1.56 1.002-2.013 3.358-2.927 5.457-3.194.84-.104 1.692-.119 2.528-.012 3.959.518 7.869 3.017 9.425 6.741 1.475 3.531.231 8.413-3.507 10.159-.336.155-1.062.502-1.432.51-.157.593.485.964.797 1.399.339.461.635.955.932 1.481 5.342 9.492 4.824 21.981-.474 31.364-1.478 2.619-3.366 5.426-5.494 7.558-6.15 6.137-15.214 7.508-23.544 7.146-6.767-.292-13.584-1.195-19.74-4.166z"/></defs><use xlink:href="#SVGID_3_" overflow="visible" fill="#fcc21b"/><clipPath id="SVGID_4_"><use xlink:href="#SVGID_3_" overflow="visible"/></clipPath><g clip-path="url(#SVGID_4_)" fill="#2f2f2f"><g><path d="M44.298 29.169c1.417-1.358 3.55-1.839 5.441-1.976a9.18 9.18 0 0 1 .66-.024c1.152.008 2.271.246 3.391.485.436.091 2.535.766 2.717.123.155-.539-1.189-1.367-1.522-1.613-4.158-2.988-9.599-4.108-14.646-3.89-.946.041-1.889.136-2.814.309-.494.094-1.679.296-1.646.971.034.643 1.033.782 1.516.878.31.066.642.094.954.168.691.173 1.959.531 1.849 1.407-.144 1.071-.836 1.874-1.321 2.8-.411.777-.709 1.613-.939 2.453-.19.642-.539 1.515-.354 2.193.197.753 1.037.919 1.736.769.885-.184 1.508-1.049 2.103-1.646.424-.427.623-.987 1.054-1.407.412-.416.728-.889 1.141-1.316.22-.23.445-.461.68-.684z"/><path d="M36.643 26.247c-.114 0-.235.004-.346.004-.906.004-1.849.029-2.692.375-.369.152-.758.346-.938.7-.685 1.35 3.712 1.259 4.272 1.275 4.651.157 9.005 1.968 13.409 3.276.52.156 1.799.602 1.993-.193.365-1.519-3.944-3.1-4.948-3.412-.84-.26-1.654-.585-2.494-.832-1.901-.568-3.837-1.054-5.815-1.196-.819-.063-1.627-.013-2.441.003z"/><path d="M33.7 29.836c-.704.04-1.381.173-1.808.522-.584.475-.111 1.001.264 1.146 2.05.811 4.354.868 6.499 1.271 2.292.424 4.531 1.033 6.779 1.646.493.131 3.136.972 2.907-.263-.083-.445-.727-.832-1.056-1.033-2.189-1.313-4.642-2.17-7.144-2.647-1.458-.276-2.931-.526-4.421-.597-.527-.024-1.291-.086-2.02-.045z"/></g><path d="M67.809 43.856c-.204.164-.312.484-.443.748-1.457 2.992-2.742 5.512-6.088 6.734-.712.263-1.709.47-2.096 1.219-.674 1.325 1.63 1.522 2.429 1.457 4.215-.359 8.75-4.66 7.524-9.105-.082-.296-.494-1.078-.833-1.156a.555.555 0 0 0-.493.103z"/><path d="M12.246 37.179c.245 1.31.811 2.495.968 3.828.234 1.955-1.778 1.186-2.593.328-.206-.222-.429-.46-.614-.703-.222-.292-.283-.613-.391-.942-.387-1.12-.576-2.503-.42-3.68.157-1.177.736-2.247 1.319-3.269.476-.864 1.29-1.728 2.106-2.288.23-.157 1.268-.882 1.572-.572.3.301-.354 1.041-.527 1.288a8.511 8.511 0 0 0-1.531 4.866c0 .395.042.774.111 1.144z"/><path d="M6.303 54.631c-1.18-1.905-1.638-4.141-1.855-6.367a11.626 11.626 0 0 1 .209-3.486c.214-.977.325-1.98.683-2.923.37-.955.659-2.115 1.395-2.873.265-.263.663-.684 1.038-.688.296-.004-.139 2.161-.215 2.351-.251.707-.299 1.535-.294 2.288v2.116c0 3.984 1.542 7.66 3.929 10.796.288.375.4 1 .218 1.425-.831 1.93-4.016-1.149-4.544-1.828a9.211 9.211 0 0 1-.564-.811z"/><path d="M3.023 51.626c.103-.123.23-.193.383-.14.334.123.292.741.325 1.017.214 1.593.487 3.141.996 4.672.563 1.688 1.728 3.14 3.031 4.329.427.392 1.43.948 1.317 1.655-.216 1.259-2.999.058-3.571-.305-1.353-.864-2.452-1.963-2.959-3.519a8.3 8.3 0 0 1-.379-2.416c.008-.836-.057-1.68.112-2.495.136-.642.25-1.284.398-1.922.041-.192.148-.637.347-.876z"/><path d="M55.347 63.942c4.972 1.885 11.583-.206 14.2-4.952.634-1.156 1.383-2.946 1.383-4.285 0-.416-.017-.654-.247-.987-.264-.374-.527-.213-.881.045-.602.433-1.07 1.066-1.531 1.627-2.849 3.383-6.874 5.721-11.318 6.075-.7.058-1.541.049-2.134.506-1.07.826-.453 1.6.528 1.971z"/><path d="M54.309 74.002c2.745.585 5.643.272 8.236-.766 1.717-.683 3.329-1.68 4.664-2.955.979-.931 2.881-2.988 2.316-4.52-.351-.938-2.251.798-2.635 1.083-3.772 2.778-7.767 4.604-12.533 4.457a41.15 41.15 0 0 0-2.629 0c-.409.017-1.165.066-1.194.618-.054 1.053 2.112 1.728 3.775 2.083z"/></g></g><path d="M23.38 44.016a5.338 5.338 0 0 1-.181-1.437c.024-2.552 2.931-1.111 4.179-.37 1.815 1.086 4.005 2.946 6.227 3 2.523.058 5.171-.168 7.722-.168 2.746 0 3.861 1.132 2.247 3.407-1.646 2.321-5.935 3.384-8.567 3.441-1.295.033-2.9.403-4.113-.143-.931-.416-1.947-1.116-2.795-1.685-2.101-1.402-4.076-3.547-4.719-6.045z" fill="#2f2f2f"/><g><g><g><path d="M25.751 37.792c-1.744 1.639-4.293 1.758-5.663.32-1.326-1.436-1.021-3.831.683-5.445 1.737-1.58 4.234-1.786 5.614-.416 1.399 1.393 1.13 3.891-.634 5.541z" fill="#2f2f2f"/></g></g></g><g><g><g><path d="M48.158 43.418c.684 2.367 3.031 3.878 5.318 3.384 2.281-.526 3.558-2.926 2.82-5.351-.754-2.379-3.198-3.84-5.404-3.261-2.189.578-3.408 2.904-2.734 5.228z" fill="#2f2f2f"/></g></g></g><g><path d="M24.524 57.579c-1.119-.156-2.247-.321-3.439-.116-.166.598.081 1.491.212 2.066.191.841.28 1.482.28 2.375 0 2.413-1.534 4.915-.346 7.125 2.157 4.018 9.418 5.179 13.404 5.071 6.621-.181 10.305-6.149 9.288-12.422-1.198-.223-2.231-.156-3.38-.585-1.259-.469-2.519-.938-3.773-1.425-1.05-.406-2.235-.641-3.009-1.538-.567-.651-1.349-2.644-2.314-1.968-.83.604-1.848 1.008-2.821 1.329-1.414.466-2.752.276-4.102.088z" fill="#ed6c30"/></g><path d="M30.461 48.038a29.38 29.38 0 0 1-.722-.099c-1.988-.293-1.848 1.453-2.16 2.897-.33 1.482-.58 2.808-2.107 3.622-2.746 1.465-6.71-.954-7.87-3.516-.255-.567-.453-.946-.506-1.617-.029-.58-.077-1.197-.065-1.782-.006-.634-.382-.914-.935-.691-1.088.432-1.466 2.182-1.564 3.371-.256 3.421 1.556 6.318 4.437 8.047 2.198 1.325 4.108 1.589 6.545.914 3.269-.897 3.401-1.91 6.141.608 2.479 2.285 6.075 4.06 9.464 4.199 3.616.156 7.066.387 9.841-2.47.873-.897 3.383-6.158.922-6.743-1.218-.296-1.655 1.42-2.239 2.108-.716.848-1.818 1.552-2.827 1.968-2.26.93-4.969 1.012-7.322.427-2.963-.735-7.311-2.831-5.992-6.602.336-.972 1.218-2.354.941-3.383-1.554-.089-2.567-1.065-3.982-1.258z" fill="#2f2f2f"/><path fill="#fcc21b" d="M45.191 42.831l13.95-5.762-3.334-4.549-10.616 5.762z"/><path fill="#fcc21b" d="M21.588 29.383l6.238 7.722 3.565-3.86-4.458-7.13z"/></g></g></svg>