<svg id="レイヤー_1" xmlns="http://www.w3.org/2000/svg" viewBox="0 0 128 128"><g><path d="M110.551 73.386s4.473-5.222 6.992-11.885l-6.16-.854-3.236 7.2 2.404 5.539z" fill="#2f2f2f"/><path d="M119.23 51.378s.705 3.325-.463 6.386l-5.676-2.61.898-4.411 5.241.635z" fill="#2f2f2f"/><path d="M98.994 81.143s4.1-.396 7.127-3.171L95.01 69.784l-9.395 6.054 1.748 6.374 11.631-1.069z" fill="#2f2f2f"/><g><g><g><g><g><path d="M20.896 103.298c1.918-1.738 3.629-3.688 4.951-5.975 1.176-2.064 2.012-4.312 3.354-6.287 1.519-2.22 3.131-3.478 5.537-4.667 3.84-1.908 7.07.809 10.932.877 3.363.059 6.35-.675 9.506-1.704 2.609-.845 5.049-2.094 7.857-2.288 2.818-.194 6.33 1.464 7.545 4.042 1.773 3.781-.43 6.659-3.184 9.208-1.086 1.013-2.234 2.144-3.533 2.886-.801.456-1.727.624-2.531 1.088-1.232.701-2.293 1.731-3.436 2.565-1.156.835-2.354 1.62-3.645 2.245-1.225.599-2.42 1.237-3.748 1.561-1.174.279-2.342.574-3.512.87-1.131.287-2.287.548-3.383.945-1.09.396-1.992.953-2.963 1.586-.676.448-1.32.954-1.941 1.477-1.328 1.131-2.742 2.262-3.99 3.477-1.148 1.102-2.912 1.604-4.412 2.093-3.471 1.131-7.244 1.561-10.795.545-2.285-.654-4.912-1.785-6.582-3.532-.627-.65-1.062-1.477-.996-2.397.02-.189.074-.371.041-.565-.021-.177-.084-.283-.041-.481.082-.363.295-.708.488-1.021.33-.569.894-.844 1.41-1.199 2.439-1.661 4.886-3.375 7.071-5.349z" fill="#ed6c30"/></g><path d="M32.062 100.095c.264-.257.439-.65.498-1.085.152-1.042.252-2.084.342-3.131.047-.607.096-1.19.08-1.806-.004-.186-.127-.381-.27-.502-.152-.139-.232-.139-.473-.105-.17.029-.236.108-.373.177-.176.088-.387.113-.59.147-.633.106-1.207.401-1.814.557-.734.182-1.426.468-2.143.692-.406.126-.65.232-.432.62.127.236.254.444.416.663.168.258.31.536.496.798.371.52.803.937 1.248 1.401.541.544.955 1.232 1.617 1.646.563.354 1.053.257 1.398-.072z" fill="#fff"/><path d="M46.309 102.893c.783.751 1.602 1.776 1.982 2.612.17.371-.102.514-.342.771-.24.249-.469.532-.805.659-.678.245-1.402.371-2.068.628-.207.08-.398.215-.615.241-.195.026-.414-.004-.607-.004-.221.004-.557 0-.664-.198-.055-.114.004-.287-.014-.405-.016-.253-.066-.481-.066-.748 0-1.097-.465-4.367 1.08-4.78.439-.118 1.139.409 1.469.662.21.157.429.351.65.562z" fill="#fff"/><path d="M53.785 89.71c-.178.794-.264 2.371-1.451 2.114-.49-.106-.828-.561-1.189-.891-1.396-1.27-3.527-3.252-2.078-5.147.6-.776 1.857-1.026 2.787-1.06.725-.03 2.328.029 2.377 1.055.07 1.313-.159 2.634-.446 3.929z" fill="#fff"/><path d="M127.303 68.035a.693.693 0 0 0-.012-.435c-.242-.764-.902-1.283-1.338-1.941-.514-.802-.629-1.819-.824-2.734a46.924 46.924 0 0 0-.568-2.304c-.527-1.777-1.305-3.62-2.779-4.819a4.585 4.585 0 0 0-.49-.35c-.658-.405-1.436-.558-2.178-.731-.43-.096-1.715-.253-1.812-.817-.144-.786.807-.76 1.314-.853 1.899-.355-.986-7.511-1.381-8.414-2.357-5.351-6.23-10.127-11.727-12.401-6.564-2.713-13.83-3.532-20.861-2.903-3.484.312-6.943.807-10.379 1.439-3.191.591-6.592 1.109-9.629 2.278-.719.27-3.57 1.372-2.084 2.516.809.62 1.605.506 2.582.481 8.244-.194 16.793-.688 24.74 1.979 1.74.587 3.758 1.292 4.744 3 .314.541.551 1.38.314 1.996-.221.574-.777.469-1.273.469-.711 0-1.412-.051-2.111-.071-.178-.004-.389-.03-.566-.004-.986.147-1.316 1.278-1.949 1.92-.666.687-.885.886-1.898.932-.793.034-1.535-.003-2.305-.054-.666-.047-1.266-.224-1.932-.118-.895.139-1.385.982-1.967 1.59-.777.802-1.121 1.46-2.295 1.671-1.51.279-3.465-.438-4.877.169-1.57.675-1.926 2.769-3.395 3.587-.615.338-1.357.309-2.037.258a45.866 45.866 0 0 0-3.338-.106c-.371 0-.693.059-1.055.152-.793.211-1.443 1.181-1.959 1.764-.885 1.013-1.527 2.329-2.834 2.861-3.453 1.409-7.291.747-10.711-.447-1.83-.637-3.857-1.156-5.805-.793-2.211.414-4.152 1.692-5.482 3.495-1.549 2.105-1.354 4.497-2.451 6.717-.988 1.983-2.48 3.663-4.084 5.173-1.494 1.409-3.199 3.143-5.014 4.122-3.477 1.874-7.141 3.288-10.641 5.102a52.678 52.678 0 0 1-3.107 1.481c-.41.038-.818.071-1.231.071-1.394 0-2.752-.033-4.111.178a7.232 7.232 0 0 0-2.27.751C1.612 85.242.532 88.057.678 90.897c.006.16.031.316.047.476-.033 2.87 3.316 4.861 5.537 6.039 2.203 1.165 4.746 2.101 7.217 2.472 6.822 1.035 13.74-1.971 19.967-4.321 3.611-1.366 7.24-2.666 10.818-4.118 2.592-1.054 5.08-2.333 7.588-3.591 1.898-.949 3.906-2.105 5.975-2.586.902-.211 1.855-.388 2.785-.304 4.143.379 4.379 4.616 3.088 7.633-1.09 2.528-5.039 4.334-7.275 5.709-3.205 1.975-6.557 3.713-9.723 5.768-5.527 3.6-11.316 7.684-17.543 9.971-3.69 1.351-7.039 1.367-10.871 1.08-2.252-.169-6.428-.836-5.957-3.971.037-.236.1-.468.178-.695.074-.224.219-.43.184-.675-.072-.734-.789.034-1.012.27-.861.937-1.043 2.128-.887 3.358.152 1.258.807 2.752 1.869 3.494 7.215 5.046 16.918 3.236 24.328-.173 2.277-1.042 4.455-2.258 6.699-3.372 3.19-1.578 6.539-2.768 9.934-3.805 8.043-2.465 16.789-3.629 23.309-9.571 1.664-1.51 2.836-3.418 4.061-5.284.584-.877 1.139-1.586 2.16-1.885 1.062-.316 2.041-.853 3.131-1.102.531-.118 1.146-.207 1.688-.067 1.525.405 1.805 2.093 2.186 3.396.102.359.109.729.16 1.102.076.637.143 1.148.025 1.78-.094.473-.195.946-.186 1.427.008.574.236 1.13.752 1.443.514.321 1.307.295 1.889.211.777-.102 1.52-.359 2.254-.642.305-.123.615-.186.936-.273a9.868 9.868 0 0 1 3.238-.342c.881.047 1.885.084 2.688-.384.59-.341.709-.987.953-1.574.178-.422.457-.874.836-1.19s.898-.502 1.096-.979c.469-1.081-.361-1.769-1.07-2.401-.564-.51-.76-1.152-.979-1.87a9.902 9.902 0 0 1-.297-1.19c-.193-1.113-.641-2.186-.918-3.287-.322-1.262-.686-2.52-1.209-3.713-.658-1.519-1.906-2.772-3.324-3.608-.818-.473-1.619-.726-2.549-.844-.396-.051-1.84-.063-1.611-.793.084-.262.379-.431.615-.523 1.25-.481 2.727-.186 3.949.232.549.189 1.098.544 1.588.868.328.212.566.52.887.731.285.194.531.41.801.624 1.232.97 3.248-.388 4.303-1.072.389-.253.76-.52 1.137-.802 3.32-2.566 5.904-5.739 6.539-9.967.072-.531.191-1.046.275-1.574.068-.451.104-.797.629-.907 1.121-.228 1.557 1.24 1.76 2.067.178.716.332 1.451.287 2.194-.035.67-.314 1.536.344 2.005.904.637 2.432-.051 3.344-.325.186-.055.371-.093.557-.118.906-.127 1.807.042 2.701.113.57.047 1.201.093 1.764-.055.338-.092.684-.253.887-.553.227-.316.195-.717.328-1.067.135-.359.404-.582.711-.801.349-.255.915-.517 1.054-.951z" fill="#757f3f"/></g></g><g><g><g><g><g><path d="M57.852 68.841c-.48 2.152.76 4.473 2.762 5.194 2.008.701 4.033-.447 4.514-2.591.473-2.147-.76-4.485-2.768-5.194-2.01-.705-4.036.451-4.508 2.591z" fill="#2f2f2f"/></g></g></g></g></g></g><g fill="#2f2f2f"><path d="M15.471 92.128c.57 1.355-.789 2.646-2.143 2.207-1.908-.607-1.225-3.933.961-3.241.604.191.988.583 1.182 1.034z"/><path d="M6.027 89.019c-.767.928-.389 2.321.828 2.617 1.568.388 2.404-1.62 1.391-2.751-.717-.812-1.658-.542-2.219.134z"/></g></g><g fill="#bdcf46"><path d="M73.072 58.537c-.07-.207-.27-.329-.514-.272l-3.152.81a.444.444 0 0 0-.32.37.435.435 0 0 0 .236.432l4.219 2.188a.473.473 0 0 0 .203.049h.022a.434.434 0 0 0 .434-.433.407.407 0 0 0-.092-.261l-1.036-2.883z"/><path d="M82.381 58.066a.426.426 0 0 0 .189.044h.022a.434.434 0 0 0 .436-.433.436.436 0 0 0-.068-.229l-.684-2.645a.426.426 0 0 0-.211-.275.435.435 0 0 0-.346-.024l-2.834 1.013a.423.423 0 0 0-.287.381.433.433 0 0 0 .236.414l3.547 1.754z"/><path d="M90.57 50.956a.423.423 0 0 0-.209-.275.437.437 0 0 0-.348-.024l-2.834 1.013a.43.43 0 0 0-.045.795l3.547 1.755a.387.387 0 0 0 .186.044H90.885a.434.434 0 0 0 .372-.662l-.687-2.646z"/><path d="M98.227 47.242a.43.43 0 0 0-.561-.3l-2.836 1.013a.432.432 0 0 0-.047.796l3.545 1.756a.433.433 0 0 0 .189.044h.02a.428.428 0 0 0 .432-.433.418.418 0 0 0-.062-.229l-.68-2.647z"/><path d="M106.23 55.142l-.822-3.116a.428.428 0 0 0-.498-.315l-2.367.454a.444.444 0 0 0-.342.312.43.43 0 0 0 .139.439l3.219 2.787c.086.07.186.106.287.106h.022c.24 0 .434-.194.434-.433a.41.41 0 0 0-.072-.234z"/><path d="M97.703 56.127a.414.414 0 0 0-.199-.268.438.438 0 0 0-.334-.04l-2.564.742a.441.441 0 0 0-.309.34.426.426 0 0 0 .174.424l3.393 2.487a.423.423 0 0 0 .256.085h.022a.438.438 0 0 0 .436-.433.438.438 0 0 0-.072-.232l-.803-3.105z"/><path d="M90.42 59.914a.443.443 0 0 0-.211-.276.448.448 0 0 0-.348-.032l-2.631.877a.437.437 0 0 0-.293.349.441.441 0 0 0 .174.416l3.422 2.393a.448.448 0 0 0 .25.078H90.801a.434.434 0 0 0 .372-.659l-.753-3.146z"/><path d="M82.496 63.805a.453.453 0 0 0-.182-.279.443.443 0 0 0-.326-.067l-3.039.576a.418.418 0 0 0-.328.32.415.415 0 0 0 .143.441l3.689 2.952a.426.426 0 0 0 .27.095h.024a.425.425 0 0 0 .375-.639l-.626-3.399z"/></g></g></svg>