<svg xmlns="http://www.w3.org/2000/svg" viewBox="0 0 128 128"><g id="图层_1"><path d="M98.825 85.945c-.166-1.312.485-2.923 1.644-3.269 1.564-.472 3.854.341 5.347.808 6.902 2.152 14.894 7.945 15.203 15.854.489 12.655-12.374 21.354-23.246 24.272a80.27 80.27 0 0 1-13.37 2.4c-7.507.688-15.14.647-22.573-.721-3.703-.684-7.375-1.703-10.854-3.176-2.683-1.145-7.452-2.932-9.202-5.438-.34-.49-.9-1.34.074-1.469.513-.073 1.195.563 1.625.78 8.053 4.04 17.203 6.1 26.173 6.136 1.713.005 3.427-.014 5.134-.063 5.283-.158 10.578-.619 15.745-1.746 9.955-2.179 27.143-9.824 23.324-22.914-1.52-5.212-7.06-7.89-11.953-8.952-.577-.125-.812-.396-1.316-.683-.327-.194-.872-.231-1.154-.499-.343-.332-.536-.803-.601-1.32z" fill="#f2ba94"/><path d="M103.253 79.458a36.603 36.603 0 0 0-1.15-3.873c-3.707-10.328-13.509-17.789-22.197-24.026 2.829-.795 5.461-2.05 7.664-3.837 7.371-5.988 9.33-16.999 4.811-25.605-5.26-10.006-16.613-15.279-27.237-11.798-6.27 2.06-11.291 8.2-13.611 15.145a29.281 29.281 0 0 0-3.019-.929c1.15-4.16.887-8.869-.443-12.452-3.412-9.16-16.052-13.315-25.407-8.523-4.293 2.216-7.788 5.9-8.883 10.545-.88 3.561-.701 8.874.868 12.019.977 2.008 3.573 5.757 6.274 7.71-3.028 3.458-5.655 7.567-7.595 11.86-3.167 7.014-4.505 14.525-2.802 20.527 2.688 9.451 14.34 10.12 23.145 9.981-.032 0-.789 1.926-.896 2.115-.37.674-.8 1.371-1.311 1.948-1.71 1.938-4.072 3.209-3.527 6.232.478 2.646 2.636 4.396 5.24 4.46 1.84.047 3.601-.628 5.065-1.713 1.426-1.062 2.33-3.005 3.915-3.8 2.179-1.089 1.955 3.805 2.226 5.023.272 1.229.876 2.456 1.403 3.619.304.684.78 1.201 1.148 1.838.934 1.625-4.126 3.952-5.051 4.47-1.312.733-2.507 1.32-3.357 2.613-.946 1.449-1.063 3.314-.146 4.801 1.37 2.226 4.058 2.456 6.385 2.456 4.188 0 7.659-2.641 10.988-4.948.729-.499 1.5-1.312 2.331-1.607 1.718-.609 3.722-.291 5.504-.291.383 0 .804-.046 1.187-.004.354.036.572.24.955.235.098.476-1.274 1.094-1.597 1.288-1.653.966-4.321 1.967-4.876 3.998-1.837 6.703 7.327 8.033 11.674 6.232 1.997-.826 3.793-2.114 5.497-3.426 3.139-2.419 6.261-3.97 9.843-5.632.771-.36 1.491-.702 2.276-1.034 3.846-1.616 7.317-3.786 10.125-6.953 4.631-5.224 6.211-11.9 4.581-18.664z" fill="#e0e0e0"/><path d="M47.992 52.149c0 3.389-2.267 6.122-5.063 6.122-2.799 0-5.075-2.733-5.075-6.122 0-3.385 2.276-6.122 5.075-6.122 2.797 0 5.063 2.737 5.063 6.122z" fill="#2f2f2f"/><path d="M16.283 66.166c.873 2.525-.443 5.269-2.945 6.131-2.492.864-5.232-.479-6.104-3.004-.867-2.522.452-5.269 2.95-6.128 2.499-.864 5.227.48 6.099 3.001z" fill="#2f2f2f"/><path d="M61.147 32.047c-.439-.434-.888-.858-1.142-1.312-1.39-2.482 1.881-6.989 3.463-8.601 6.593-6.717 19.806-1.39 21.025 7.849 1.141 8.643-6.574 15.721-14.719 14.516-.868-.129-2.548-.291-3.13-1.104-.36-.508-.343-1.796-.489-2.41-.793-3.231-2.65-6.639-5.008-8.938z" fill="#f2ba94"/><path d="M31.062 9.257c3.277.185 6.182 2.461 7.771 5.97 1.104 2.434 1.57 5.572.424 8.223-.501 1.154-1.694 1.506-2.793 2.045-1.458.73-2.978 1.261-4.437 2.041-.611.328-1.212.587-1.828.938-.434.259-.77.545-1.271.48-.317-.046-.725-.199-1.034-.272-2.709-.66-4.667-2.678-5.835-4.986-2.982-5.879 1.353-14.85 9.003-14.439z" fill="#f2ba94"/><path d="M57.125 93.771a5.466 5.466 0 0 1-1.507.405c-1.97.197-4.033-.354-5.545-1.648-2.201-1.876-2.852-4.769-1.702-7.397.49-1.103 1.104-2.252 1.702-3.317.484-.875 1.06-1.761 1.267-2.76.15-.688.104-1.555.99-1.763 2.044-.48.875 3.675.593 4.504-.825 2.356-3.693 5.437-1.611 7.901 1.488 1.758 4.641 1.55 6.191.004.593-.593 1.168-1.224 1.658-1.907.433-.626.631-1.645 1.328-2.04.716-.4 1.258.169 1.433.849.222.862-.254 1.502-.472 2.288-.207.727-.367 1.349-.792 2.008-.847 1.29-2.12 2.289-3.533 2.873z" fill="#b0bec5"/><g><path d="M69.456 101.46c.258-.942-.962-1.857-1.367-2.573-.979-1.743-1.064-4.593-.508-6.501.292-.999.726-1.771 1.324-2.61.673-.924 1.669-2.092.067-2.271-2.574-.283-4.351 2.676-5.062 4.834-.721 2.204-.655 4.569-.1 6.783.453 1.8.726 2.48-1.098 3.383-1.174.585-2.17.549-3.434.921 0 0 1.963-.196 4.393-.008.373.029.634-.056 1.058-.007.2.023.285.055.642.181.164.058.284.057.348.063h.02c.593-.29 1.184-.586 1.782-.866.598-.284 1.738-.632 1.935-1.329z" fill="#b0bec5"/></g></g></svg>