<svg xmlns="http://www.w3.org/2000/svg" viewBox="0 0 128 128"><g id="图层_1"><g><path d="M70.25 76.069c1.072 2.453 1.349 4.783 1.781 7.339.223 1.316-.204 2.892.51 4.126 1.013 1.74 3.715 1.343 5.652 1.153 1.974-.196 5.438-1.018 6.232-2.806.905-2.026.322-4.644-.033-6.72-.404-2.346.263-4.778-.524-7.112-.743-2.224-3.083-3.868-5.948-3.348-1.791.332-3.224 1.419-4.782 2.157-1.168.55-3.085.977-3.384 2.24-.225.966.057 1.963.496 2.971z" fill="#2f2f2f"/><path d="M51.643 104.838c.015.484.034.967.022 1.458-.053 2.22-.201 7.006 3.977 7.889 3.233.683 6.9.6 8.692.1 3.96-1.105 4.481-5.407 4.276-9.463-1.98.699-5.244 1.123-8.41 1.13-2.991.006-6.253-.198-8.557-1.114z" fill="#2f2f2f"/><path d="M25.859 96.864c.005.166.023.337.025.501.004.32-.088.862-.168 1.387-.301 1.838-.92 5.661 2.715 6.793 2.264.705 5.317.877 9.194-.219 4.109-1.161 3.765-5.811 3.624-8.116l-.03-.611c-1.881.699-4.995 1.119-8.013 1.119-2.521 0-5.237-.173-7.347-.854z" fill="#2f2f2f"/><path d="M109.014 87.213c2.499-.118 5.048-.5 6.973-1.043l-.001-.011c-.068-3.389-.252-5.98-.611-8.413a137.527 137.527 0 0 0-2.346-12.278 237.812 237.812 0 0 1-1.355-6.14c-2.016-9.477-4.1-19.276-11-27.251-7.139-8.254-18.002-12.799-30.594-12.799-2.74 0-5.525.222-8.277.656-9.447 1.502-18.836 4.623-25.768 8.561-2.305 1.308-3.223 2.88-3.895 4.84-.469 1.359-.912 2.729-1.357 4.099-1.363 4.184-2.771 8.512-4.781 12.417-.869 1.693-1.475 3.54-1.881 5.751-.822.607-1.6 1.201-2.367 2.44-1.594 2.572-2.596 5.768-2.74 8.763-.108 2.198.664 3.91 1.346 5.423.258.575.523 1.148.734 1.772.246.73.496 1.461.75 2.19 1.037 2.97 2.014 5.779 2.5 8.713l.248 1.509c.585 3.482 1.174 7.067 1.268 10.452 2.11.681 4.826.854 7.347.854 3.019 0 6.132-.42 8.013-1.119l-.015-.292c-.082-2.765.197-5.283.867-7.769 2.09.549 4.393.976 6.713 1.242.787 2.129 1.519 4.295 1.826 6.388l.254 1.661c.371 2.383.708 4.666.779 7.009 2.304.916 5.566 1.12 8.557 1.114 3.166-.007 6.43-.431 8.41-1.13-.102-2.019-.38-3.978-.511-5.45-.041-.456-.078-.883-.107-1.256-.289-4.037-.045-7.954.248-12.067.51-.259 6.235-3.001 13.17-5.002 6.611-1.908 11.574-2.957 13.365-2.885 2.559.102 3.74 1.536 4.862 2.992.69.903.775 1.593.951 2.979l.037.279c.045.353.123 1.183.231 2.201 2.302.679 5.347.733 8.157.6z" fill="#e0e0e0"/><path d="M115.987 86.17c-1.925.543-4.473.925-6.973 1.043-2.81.133-5.855.08-8.158-.601.25 2.359.664 5.74 1.228 6.631 1.425 2.25 6.893 1.875 6.893 1.875s5.69-.333 6.565-2.54c.46-1.159.596-4.369.502-5.509-.023-.32-.053-.623-.057-.899z" fill="#2f2f2f"/><path d="M124.472 41.06c.711-.164 1.5-.779 2.184-.607.547.144.586.903.682 1.326.709 3.19-.395 6.806-3.438 8.293-1.078.53-2.166.834-3.389.53-1.701-.427-3.453-1.206-4.104-3.011-.303-.845-.285-1.937.014-2.781.268-.755.812-1.888 1.465-2.388.885-.669 1.887-1.174 2.99-1.305 1.107-.139 2.193.017 3.299-.017.094.001.197-.015.297-.04z" fill="#2f2f2f"/><path d="M82.425 33.43a2.959 2.959 0 0 1-.016-.665c.234-2.157 3.217-3.084 5.025-3.265 7.299-.73 16.824-.582 22.18 5.275 1.412 1.538 2.236 3.442 2.992 5.365.113.287.227.583.344.87.814 2.018 2.455 5.197 5.174 4.016.619-.271.861-.513 1.57-.492 1.014.029 2.008 1.059 1.699 2.146-.215.755-1.838 1.412-2.496 1.633-2.178.729-4.721-.091-6.287-1.723-1.629-1.702-2.322-3.976-3.367-6.031-1.191-2.354-2.795-3.945-5.182-5.103-3.4-1.64-7.482-1.542-11.182-1.555-1.133-.004-2.232.275-3.357.365-1.025.074-2.041-.099-3.084.065-.787.127-1.541.637-2.309.722-1.012.112-1.586-.708-1.704-1.623z" fill="#2f2f2f"/><path d="M63.439 37.118a9.797 9.797 0 0 0 2.52 2.552c2.186 1.542 6.375 2.094 9.75 1.907 2.677-.149 6.527-2.877 9.198-2.69 7.177.502 6.786 7.747 11.927 9.179a19.07 19.07 0 0 0 4.209.628c2.053.066 5.364-.233 7.857-.864 0 0-2.066-8.472-7.441-15.097-4.463-5.501-8.078-7.87-15.083-10.823-3.447-1.453-7.379-2.228-11.458-2.632-1.819-.18-11.195-.359-12.777.569-1.395.816-.942 4.896-1.106 6.241-.213 1.793-.16 4.061.283 5.796.5 1.94 1.088 3.704 2.121 5.234z" fill="#2f2f2f"/><path d="M57.134 54.047c1.682-.283 2.191 1.935 1.579 4.604-.541 2.359-5.669 6.627-6.091 8.328-.649 2.614-3.414 8.639-6.039 11.723-3.395 3.989-10.122 7.116-22.154 6.727 0 0-1.011-4.466-2.067-7.742 6.467-.83 11.05-2.445 16.935-5.252 1.802-.86 3.597-1.834 4.961-3.292 1.33-1.422 2.172-3.218 3.063-4.949 2.58-5.009 5.843-9.006 11.23-10.656" fill="#b0bec5"/><g><path d="M4.326 52.016c-.666.942-1.357 1.978-1.935 3.118-3.27 6.362-1.791 11.244.025 14.215 4.906 8.039 17.475 10.953 24.723 10.953 5.494-.009 11.248-.698 16.594-5.617a21.733 21.733 0 0 0 3.139-3.659c.967-1.382 1.43-2.858 1.805-4.044.264-.842.488-1.567.795-1.974 1.109-1.469 2.434-2.781 3.836-4.172 3.139-3.113 6.695-6.641 8-12.348.746-3.301.902-6.846.479-10.32 4.004-1.35 7.598-5.193 6.848-10.219-.561-3.897-3.275-6.428-6.904-6.428-.629 0-1.283.078-1.953.226-.459.099-.906.213-1.34.323-.994.252-1.713.432-2.537.432-.109 0-.225 0-.338-.009l-.797-.049c-2.277-2.404-5.15-4.246-8.566-5.484-4.93-1.793-10.219-2.088-14.738-2.146h-.25c-1.109 0-2.211.094-3.302.273a7.621 7.621 0 0 1 1.654 1.039c.989.808 1.732 1.805 2.287 2.897" fill="#e0e0e0"/><path d="M33.312 24.907c-.131-1.944-.532-4.048-1.465-5.882-.555-1.092-1.299-2.089-2.287-2.897a7.583 7.583 0 0 0-1.654-1.039c-1.946.32-3.859.921-5.715 1.806a18.916 18.916 0 0 0-4.938 3.422 6.163 6.163 0 0 1-.865.389c-.502.169-1.104.247-2.008.247-.668 0-1.369-.037-2.139-.078l-.191-.012-.531-.033c-.488-.033-.961-.065-1.416-.065-3.695 0-5.496 2.035-6.359 3.736-1.533 3.027-.959 7.224 1.334 9.755 1.217 1.334 2.785 2.261 4.627 2.745-.053.287-.111.574-.164.865-.693 3.613-1.346 7.026-2.588 10.054-.43 1.046-1.227 2.15-2.068 3.315-.182.252-.37.515-.559.783 1.684.205 3.346.254 4.996.21 2.052-.054 4.084-.245 6.11-.475 4.012-.443 8.107-3.151 10.805-5.974 5.331-5.596 7.612-12.743 7.075-20.872z" fill="#2f2f2f"/><path d="M49.574 25.8c.832.427 1.731.686 2.51.714 1.953.078 3.055-1.809 3.736-3.364.771-1.752 1.867-4.273 1.33-6.186-.611-2.174-2.797-1.608-4.418-.951-.885.36-1.711.865-2.498 1.398-1.424.964-2.973 1.767-3.393 3.598-.47 2.075.951 3.885 2.733 4.791z" fill="#fcc21b"/><path d="M21.619 23.699c-.834.427-1.732.682-2.512.715-1.953.074-3.057-1.814-3.738-3.364-.769-1.756-1.865-4.274-1.328-6.19.611-2.17 2.799-1.603 4.418-.947.887.36 1.711.86 2.498 1.395 1.424.965 2.975 1.772 3.395 3.601.47 2.076-.952 3.88-2.733 4.79z" fill="#fcc21b"/><g><g><g><g><g><g><path d="M39.675 42.43c-.414 2.244.857 4.733 2.83 5.596 1.969.828 3.926-.255 4.361-2.453.41-2.216-.82-4.733-2.807-5.604-2.001-.87-3.964.221-4.384 2.461z" fill="#2f2f2f"/></g></g></g></g><g><g><g><g><path d="M18.898 38.312c-1.473.951-2.178 3.085-1.592 4.775.627 1.681 2.279 2.288 3.725 1.361 1.44-.951 2.162-3.077 1.578-4.758-.598-1.69-2.26-2.322-3.711-1.378z" fill="#e0e0e0"/></g></g></g></g><path d="M15.605 63.77c.939.655 1.635 1.624 1.652 2.671.029 1.915-1.766 2.402-3.316 2.066-2.004-.435-3.166-1.636-3.289-3.704-.051-.936.674-1.551 1.524-1.805 1.05-.312 2.386.046 3.429.772z" fill="#2f2f2f"/><path d="M32.05 64.992c1.164.251 2.078 1.019 2.141 2.47.045 1.178-1.189 2.039-2.096 2.567-1.062.632-2.836.661-3.977.234-1.447-.546-1.719-2.44-.881-3.63.899-1.283 3.122-2.006 4.813-1.641z" fill="#2f2f2f"/></g></g><path d="M14.556 65.238c-.355-.237-.769-.364-1.328-.344-.877.024-1.738.681-2.375 1.451-4.203 5.222-1.111 10.535 3.381 12.7 4.762 2.364 13.022 2.577 17.561-2.519 1.059-1.234 2.027-3.359 2.035-4.927.113-1.3-.234-3.067-1.066-4.048-.797-.861-2.457-.919-3.619-.559-.668.255-1.254.902-1.6 1.547-.344.702.006 1.252-.09 1.961.029.603-.109 1.16-.559 1.641-2.037 2.375-5.955 2.479-8.252 1.792-1.252-.394-2.588-1.115-3.318-2.059-.607-.64-.621-1.657-.488-2.556.164-.997.951-1.71.717-2.613-.202-.655-.448-1.147-.999-1.467z" fill="#fcc21b"/></g><path d="M111.39 57.286c-1.36-.338-3.338 1.304-4.337 2.071-1.062.809-1.761 2.122-2.234 3.389-.729 1.961-1.128 4.989-.082 6.863 1.091 1.969 2.727 3.086 4.763 3.751.931.306 4.841 1.459 5.345.054l-3.455-16.128z" fill="#2f2f2f"/><path d="M74.451 55.609c.177-1.724 1.081-3.428 2.588-4.283 1.823-1.035 4.199-.651 5.96.486 1.761 1.137 3.009 2.909 4.067 4.718.367.627.726 1.277 1.268 1.761.757.677 1.779.953 2.744 1.267 2.688.876 5.333 2.303 6.892 4.661 1.559 2.358 1.716 5.798-.222 7.855-.538.571-1.206 1.014-1.698 1.625-1.229 1.524-.915 3.231-2.392 4.516-3.292.434-5.396 1.017-8.142 1.701-.897-1.393-1.405-3.414-1.346-5.069.04-1.113.297-2.287-.164-3.301-.608-1.336-2.196-1.861-3.612-2.246l-6.243-1.696c-1.981-.538-4-1.093-5.715-2.222-1.715-1.129-2.73-2.564-2.809-4.615-.027-.691.135-1.454.685-1.874.559-.426 1.329-.373 2.031-.398 2.45-.088 5.699-.636 6.108-2.886z" fill="#2f2f2f"/></g></g></svg>