<svg xmlns="http://www.w3.org/2000/svg" viewBox="0 0 128 128"><g id="图层_1"><path d="M94.732 78.815c-.374.495-.641 1.073-.934 1.626.455.205.862.489 1.15.928.901 1.367 1.394 2.917 1.566 4.535.126 1.132.47 3.199.149 4.284-1.559 5.275 4.599 6.219 7.241 2.377 2.17-3.149 1.277-7.754 1.242-11.326-.025-2.335-.124-4.671-.232-7.006-3.246.204-6.433 1.388-8.983 3.412-.438.349-.861.723-1.199 1.17z" fill="#507b82"/><g><g><path d="M38.195 83.249s-1.251-1.867-2.715-5.979l24.689-25.822 8.349 3.418.952 13.481-7.788 12.91-14.426 4.557-9.061-2.565z" fill="#2f2f2f"/><g><path d="M9.781 24.684c-.039-.097-.139-.186-.273-.258-.552-.293-1.753.134-2.27.374-.978.445-1.824 1.255-2.519 2.056-1.385 1.593-2.409 3.569-3.008 5.58C.598 36.272.474 40.393 2.78 43.802c4.085 6.026 10.983 6.667 17.33 4.335 4.511-1.655 9.531-6.292 10.875-11.001 1.722-6.075-3.449-11.663-9.742-9.501-2.967 1.028-3.306 4.427-5.22 6.506-2.126 2.292-6.07 2.692-8.055-.138-1.001-1.433-.881-3.395-.4-4.984.241-.819.597-1.674 1.131-2.341.375-.48 1.534-1.246 1.082-1.994z" fill="#fcc21b"/><g><path d="M123.585 83.881c-.06-5.545-.48-11.089-.605-16.635 0-.071-.018-.142-.018-.213.155-1.718.178-3.418.097-4.958-.227-4.548-1.619-8.945-3.782-12.927a53.556 53.556 0 0 0-4.138-6.493c-2.778-3.698-6.631-7.961-11.51-8.518-3.586-.409-7.218.004-10.52-1.682-3.383-1.726-5.799-4.868-8.864-7.035-2.075-1.464-4.335-2.644-6.551-3.934-5.76-3.36-11.79-4.668-17.65-4.196-6.912.552-13.599 3.578-19.393 8.643-5.232 4.575.097 4.895 2.015 9.104 1.01 2.212.539 3.743-.191 5.941-1.308 3.916-2.679 7.828-4.564 11.513-.045.08-.073.165-.113.245 5.354-2.612 11.424-3.204 17.112-.601.249.116.533.241.836.379 12.371 5.531.418 13.453-4.067 18.944-1.229 1.504-1.571 3.124-2.416 4.793-1.872 3.663-6.253 6.902-10.426 6.973-.21.005-.432.018-.641.027.436.664.898 1.313 1.408 1.914 1.254 1.495 2.848 2.888 4.386 4.08 1.086.841 2.367 1.104 3.503 1.816 2.976 1.865 3.734 6.141 4.223 9.328.267 1.722.348 3.609.348 5.34 0 1.567-1.346 4.428-.152 5.714 1.824 1.981 4.792 1.438 6.898.312 2.812-1.5 3.115-3.263 2.491-6.253a20.419 20.419 0 0 1-.186-.908c-.312-1.727.048-3.383.018-5.14-.045-2.314-.094-4.633-.018-6.946.4.044.827.106 1.21.142 1.584.133 3.267.133 4.948.058.33 1.384.846 2.719 1.211 4.134.827 3.221 1.727 6.457 2.101 9.772.151 1.375.032 2.808.373 4.148.33 1.251.649 2.385.712 3.702.035.796.071 1.825.33 2.608.489 1.486 2.332 2.198 3.84 2.252 1.705.058 3.413-.597 4.746-1.602.821-.623 1.007-.774 1.195-1.758.24-1.295.578-2.879.14-4.161-.505-1.499-.99-2.874-1.226-4.504-.681-4.664-.21-9.443.093-14.196 8.095.588 15.286-4.735 20.564-10.444.476-.52.882-1.09 1.375-1.611.218-.227.566-.646.846-.761.361-.138.734.111 1.028.267.476.258.952.45 1.441.685 1.014.485 2.02.978 3.12 1.251 1.064.262 2.202.574 2.835 1.54 1.024 1.553 1.584 3.315 1.78 5.153.143 1.286.534 3.635.169 4.868-1.771 5.994 5.225 7.067 8.228 2.701 2.465-3.579 1.451-8.813 1.411-12.871z" fill="#78a3ad"/><path d="M50.851 24.115c-3.987-1.83-8.384-2.394-12.959-.637-3.087 1.197-6.354 1.953-9.114 3.805-2.429 1.629-4.414 3.81-5.74 6.409-2.639 5.171-2.649 11.277-2.511 16.946.063 2.296.614 5.251.028 7.45-.801 2.999-3.134 5.67-3.647 8.736-.519 2.995.89 6.893 3.122 8.905 2.697 2.425 6.836 4.454 10.472 4.668 6.15.365 13.168-.018 15.599-6.849.639-1.816.897-2.475 2.278-3.863 1.566-1.566 3.196-2.937 4.833-4.379 5.892-5.207 10.369-12.007 9.541-20.151-.365-3.613-.383-7.378-1.398-10.885-.391-1.344-.969-3.017-1.988-4.018-2.518-2.487-5.392-4.695-8.516-6.137z" fill="#78a3ad"/><path d="M105.517 36.055c.676 1.749 4.174 2.639 5.718 3.146 2.042.668 3.929 1.717 6.15 1.428 5.451-.716 7.338-7.062 4.419-11.281-1.238-1.771-3.111-2.995-4.914-4.112-1.878-1.153-7.734-3.498-5.602-6.568.36-.517 1.152-.712 1.732-.534.479.143.604.534.747.966.508 1.447 1.281 2.221 2.661 2.889 1.388.689 2.732 1.624 4.01 2.492 1.623 1.095 3.137 2.362 4.387 3.871 4.018 4.833 2.448 12.327-3.36 15.024-2.333 1.086-5.065 1.317-7.592.947-1.522-.218-5.634-.957-6.453-2.194l-1.903-6.074z" fill="#78a3ad"/><path d="M112.958 8.913a13.19 13.19 0 0 1 1.824-.232c.695-.044 2.828.089 2.261 1.295-.259.552-.774.921-.952 1.518-.685 2.238 1.184 4.503.499 6.804-1.612 5.429-9.925 3.787-9.577-1.798.12-1.918.606-3.596 1.79-5.113.546-.699 1.013-1.193 1.797-1.638.711-.404 1.521-.671 2.358-.836z" fill="#78a3ad"/><g><g><g><g><path d="M43.553 48.364c-.953 1.976-.347 4.561 1.353 5.785 1.708 1.206 3.876.606 4.833-1.357.943-1.976.346-4.584-1.362-5.794-1.71-1.211-3.872-.605-4.824 1.366z" fill="#2f2f2f"/></g></g></g></g><path d="M23.251 70.245c.422.133.854.347 1.221.614.693.52 1.369 1.242 1.129 2.171-.667 2.572-3.397.419-4.06-.908-.951-1.93.37-2.295 1.71-1.877z" fill="#2f2f2f"/><path d="M37.789 71.847c1.34-.08 2.765.481 2.141 1.976-.595 1.447-2.937 2.186-4.353 2.132-1.27-.058-2.518-.579-2.034-2.038.535-1.607 2.828-1.972 4.246-2.07z" fill="#2f2f2f"/></g><path d="M18.952 29.335a16.226 16.226 0 0 1 4.097-3.876c2.365-1.566 5.302-2.617 8.137-2.812 1.3-.081 3.085-.054 4.25.632 1.913 1.13-.461 1.718-1.367 2.332-2.932 1.962-4.988 6.382-6.307 9.63-.363.908-.627 2.118-1.272 2.884-1.335 1.602-3.408 2.322-4.761 3.858-1.21 1.357-.971 2.257-1.139 3.881-.116 1.143-.556 2.096-1.865 1.508-3.679-1.637-3.306-6.818-2.93-10.075a16.404 16.404 0 0 1 3.157-7.962z" fill="#fcc21b"/><path d="M49.009 38.178c.988.618 2.007 1.228 3.035 1.887 3.845 2.457 7.681 4.032 12.086 5.029 6.533 1.477 15.077.738 20.097-4.037 4.05-3.846 5.63-10.204 4.357-15.773-.378-1.653-1.597-4.477-3.547-6.435-1.762-1.777-4.415-3.841-4.458-1.72-.028.984 1.308 2.394 1.592 3.373 1.43 4.82.214 10.467-4.632 12.665-5.185 2.35-10.479-.659-14.245-4.218-1.389-1.3-2.679-2.964-4.432-3.814-3.765-1.829-7.539-3.654-11.783-2.359-3.383 1.029-6.244 3.845-5.042 7.61 1.215 3.831 3.919 5.865 6.972 7.792z" fill="#fcc21b"/></g></g></g></g></svg>