<svg id="レイヤー_1" xmlns="http://www.w3.org/2000/svg" xmlns:xlink="http://www.w3.org/1999/xlink" viewBox="0 0 128 128"><g><g><defs><path id="SVGID_1_" d="M48.715 118.846c-20.351-3.04-39.424-14.644-44.276-36.136-5.768-25.533 14.433-43.843 38.623-45.097 5.757-.3 11.553.33 17.027 2.165 5.42 1.818 10.34 4.76 14.922 8.129 4.386 3.224 8.499 6.803 12.908 9.995 2.176 1.577 4.43 3.058 6.804 4.331 2.757 1.48 5.193 2.492 8.266 1.288a8.878 8.878 0 0 0 2.739-1.709c2.287-2.125 3.172-5.36 3.017-8.403a15.947 15.947 0 0 0-.315-2.461c-.199-.867-.592-2.336-1.25-2.973-1.396-1.362-3.735-.184-5.253.274-.967.292-1.936.625-2.951.704-3.304.258-6.862-1.092-9.194-3.443-.784-.788-2.014-2.368-1.783-3.572.258-1.359 2.168-.6 3.072-.773a7.17 7.17 0 0 0 2.228-.827c1.633-.921 3.11-2.072 4.938-2.594 2.329-.667 4.756-.222 6.926.759.189.085.382.174.566.271.492.247.978.77 1.528.88.752.155.729-.622.77-1.192.053-.792.041-1.677.255-2.443.481-1.758 1.73-3.442 3.384-4.242 1.896-.911 4.103-.678 6.004-1.625.534-.266 1.104-.584 1.556-.973.445-.382.852-.863 1.218-1.314.251-.312.484-.752.878-.889.185-.067.333-.07.474.07 1.118 1.118 1.585 2.91 1.836 4.412.26 1.555.463 3.214-.059 4.731a7.003 7.003 0 0 1-1.371 2.311c-.692.748-1.593 1.558-2.494 2.046-1.579.863-3.42 1.248-4.738 2.551-1.348 1.329-.41 2.91.659 4.058 1.477 1.577 2.917 3.139 4.012 5.02 3.332 5.692 4.132 13.963 3.939 18.19a34.197 34.197 0 0 1-.348 3.605 48.042 48.042 0 0 1-2.88 10.595 40.92 40.92 0 0 1-2.11 4.505 46.414 46.414 0 0 1-5.968 8.51c-2.997 3.391-6.573 6.874-10.302 9.454-4.223 2.921-9.05 5.575-13.87 7.374-6.407 2.384-13.536 4.079-20.34 4.827a74.71 74.71 0 0 1-19.047-.389z"/></defs><use xlink:href="#SVGID_1_" overflow="visible" fill="#006ca2"/><clipPath id="SVGID_2_"><use xlink:href="#SVGID_1_" overflow="visible"/></clipPath><path d="M2.414 73.818c2.603-5.083 7.922-7.839 13.385-8.595 2.939-.407 5.916-.43 8.848.067 2.132.359 4.36.94 6.362 1.762 2.661 1.096 5.168 2.506 7.555 4.102 2.007 1.339 3.95 2.768 5.94 4.135 2.452 1.683 5.006 3.275 7.83 4.264 3.524 1.233 7.68 2.188 11.08.13.425-.256 1.254-.785 1.598-.163.296.548-.218 1.081-.565 1.466-.544.591-1.339 1.076-2.026 1.469-1.734.98-3.7 1.433-5.681 1.462a42.427 42.427 0 0 1-4.646-.185c-7.618-.719-14.085-4.228-21.032-7.079-1.944-.798-3.929-1.509-5.971-2.02-2.681-.674-5.464-.963-8.226-.696a27.819 27.819 0 0 0-6.93 1.6c-2.813 1.058-5.604 2.121-7.818 4.23-.288.274-.646.733-1.058.804-.253-.54-.138-1.082-.015-1.625.149-.686.066-1.396.236-2.085.268-1.08.653-2.095 1.134-3.043z" clip-path="url(#SVGID_2_)" fill="#fff"/></g><path d="M62.463 71.584a6.742 6.742 0 0 1-.741.311c-1.609.514-3.598-.296-4.76-1.925-1.896-2.665-1.037-6.233 1.384-7.214 2.524-1.01 5.656.485 6.427 3.72.59 2.427-.604 4.233-2.31 5.108z" fill="#fff"/><path d="M89.021 93.689c-.229 1.473.183 3.235.46 4.509.255 1.17.7 2.291 1.133 3.406.459 1.177 1.081 1.877 1.729 2.902 3.639 5.789 9.783 9.029 16.458 9.495 5.42.381 14.348-.589 18.301-4.979 3.117-3.465-9.27-5.234-11.467-5.908-6.095-1.863-11.542-4.435-16.325-8.685-2.369-2.11-5.782-5.056-9.031-2.894-.754.5-1.121 1.273-1.258 2.154z" fill="#006ca2"/><path d="M22.528 95.54c-2.072.925-4.139 3.532-5.315 4.539-4.812 4.123-11.193 5.811-15.902 9.853-2.517 2.17.771 3.702 2.713 4.354 8.844 2.976 19.135-1.628 21.873-10.779.563-1.866 1.359-6.33-.399-7.744-.927-.733-1.948-.682-2.97-.223z" fill="#006ca2"/></g></svg>