<svg id="レイヤー_1" xmlns="http://www.w3.org/2000/svg" xmlns:xlink="http://www.w3.org/1999/xlink" viewBox="0 0 128 128"><g><path d="M92.096 79.309s5.701-5.386 8.317-12.358l-3.376-9.79-12.648 2.349-.653 18.19 8.36 1.609z" fill="#2f2f2f"/><g><g><g><defs><path id="SVGID_1_" d="M126.645 71.49c-1.742-3.94-3.921-9.196-7.46-11.86-1.226-.921-2.921-.199-3.803-1.498-1.562-2.303-2.312-4.819-3.6-7.232-.957-1.782-1.808-3.664-3.028-5.282-1.77-2.326-3.742-4.48-5.94-6.39 3.169-.43 6.263-1.465 8.874-3.008 3.164-1.865 6.301-4.309 8.233-7.484 1.196-1.973 1.962-4.349 1.237-6.63-.923-2.896-4.433-2.678-5.092.231-.229 1.048-.339 1.819-.925 2.784-2.645 4.415-7.518 6.708-12.452 7.481-2.533.396-5.124.425-7.674.16a29.801 29.801 0 0 1-5.58-1.143c-3.687-1.274-7.54-2.067-11.41-2.302-4.381-.265-9.226-.079-13.524.854-6.336 1.387-13.384 3.944-18.953 7.303a63.956 63.956 0 0 0-5.458 3.689c-2.718 2.046-5.688 3.527-7.793 6.296-1.854 2.451-2.732 5.463-4.47 7.979-1.629 2.359-3.721 4.369-5.359 6.741-4.521 6.543-9.423 19.239-15.224 22.436a143.243 143.243 0 0 1-3.812 1.998c-4.67 2.355-3.458 8.346-1.205 11.906 2.386 3.746 7.055 5.091 11.217 4.522 5.007-.686 8.769-3.937 12.152-7.48.843-.888 1.576-1.828 2.287-2.826.849-1.209 1.773-2.406 2.577-3.594.466-.697.944-1.411 1.563-1.993 1.114-1.047 1.708-1.501 3.234-.824 4.184 1.849 8.655 2.326 13.12 3.003.569.091 1.304.19 1.698.669 2.329 2.838-3.53 10.108-5.519 12.03-1.023.999-2.021 2.03-2.599 3.358-.495 1.122-.95 2.253-.916 3.507.124 4.935 6.279 7.698 10.229 8.441 5.423 1.015 9.985-.659 13.41-5.017 1.856-2.36 3.054-5.05 4.324-7.744a67.463 67.463 0 0 0 2.954-7.373c.697-2.129 1.254-4.315 2.112-6.387.371-.891.892-1.799 1.774-2.128 2.83-1.036 5.794-2.493 8.516-3.812 2.872-1.391 5.595-3.165 7.733-5.562 1.401-1.576.14-2.384-.818-3.857a14.919 14.919 0 0 1-.882-1.58c-.608-1.222-1.139-2.335-1.317-3.696-.144-1.06-.21-2.097-.004-3.169.207-1.072.71-5.949 2.856-4.803 1.025.549.846 2.687.846 3.644 0 1.341-.104 2.71.251 3.973.404 1.42 1.246 2.657 2.062 3.949 1.278 2.021 3.425 3.345 5.537 4.29 1.378.615 2.74.727 4.283.727 1.625 0 3.293-.07 4.868-.516 1.542-.434 3.012-1.098 4.578-1.481 2.402-.582 2.17 1.778 3.16 3.329 1.429 2.24 4.366 2.517 6.676 1.316 4.46-2.312 4.081-6.244 2.456-9.945z"/></defs><use xlink:href="#SVGID_1_" overflow="visible" fill="#fcc21b"/><clipPath id="SVGID_2_"><use xlink:href="#SVGID_1_" overflow="visible"/></clipPath><g clip-path="url(#SVGID_2_)" fill="#2f2f2f"><path d="M75.212 40.733c-1.155.532-2.624 2.033-2.508 3.35.119 1.452 1.25.759 1.89.132.651-.636 1.236-.87 2.12-.438.964.475.949 1.437.256 2.113-.47.462-2.099 1.098-1.989 1.898.17 1.213 2.402.958 3.178.627 1.534-.651 2.289-1.757 2.289-3.449 0-2.78-2.174-5.389-5.136-4.278-.035.012-.067.029-.1.045z"/><path d="M97.871 35.658c-.822-.759-2.533-1.443-3.564-.907-1.132.59-.182 1.271.533 1.576.733.312 1.125.713 1.075 1.567-.066.949-.845 1.255-1.625.924-.537-.223-1.602-1.333-2.213-.974-.924.549.034 2.27.562 2.786 1.049 1.026 2.196 1.257 3.564.688 2.253-.932 3.632-3.572 1.742-5.595a2.152 2.152 0 0 0-.074-.065z"/><path d="M99.377 50.61c-.97-.554-2.794-.825-3.676-.074-.97.829.106 1.278.873 1.419.784.137 1.256.438 1.403 1.279.148.936-.545 1.415-1.377 1.27-.569-.1-1.857-.936-2.369-.445-.78.741.545 2.199 1.173 2.583 1.253.759 2.426.73 3.63-.137 1.98-1.419 2.731-4.304.429-5.847-.029-.015-.058-.032-.086-.048z"/><path d="M111.411 54.785c.191-.371.289-.768.219-1.163-.119-.669-1.064-2.368-1.926-1.758-.467.33-.059.933-.203 1.374-.334 1.052-2.946.664-2.835-.536.059-.574.884-.689.735-1.383-.1-.462-.677-.733-1.114-.75-.858-.021-1.345.466-1.649 1.245-.537 1.362-.307 2.517.75 3.557 1.131 1.113 3.004 1.758 4.489.944.557-.304 1.201-.874 1.534-1.53z"/><path d="M86.607 28.479c-.99-.59-2.912-.998-3.932-.38-1.121.682-.013 1.185.797 1.378.824.19 1.303.512 1.369 1.3.074.87-.718 1.254-1.595 1.052-.601-.14-1.896-1.022-2.49-.609-.908.613.362 2.065.999 2.475 1.262.809 2.522.879 3.903.186 2.261-1.139 3.35-3.731 1.03-5.347a1.638 1.638 0 0 0-.081-.055z"/><path d="M73.157 30.777c-.05.078-.091.169-.124.276-.136.425.521.916.759 1.188.389.43.9 1.023 1.032 1.634.354 1.754-1.415 1.552-2.261.66-.908-.966-3.012-2.678-3.602-.528-.261.966-.343 1.357.333 2.146.505.586 1.14 1.18 1.816 1.556 4.653 2.595 10.239-2.167 5.322-6.135-.609-.495-2.589-1.878-3.275-.797z"/><path d="M89.083 46.13c-.858-.174-1.634-.058-1.469.891.136.801 1.138 1.072 1.633 1.608.884.958.331 2.271-.948 2.398-.957.095-2.014-.569-2.533-1.328-.099-.145-.504-1.163-.594-1.18-1.263-.235-1.535 1.089-1.255 2.084.652 2.326 3.021 3.7 5.372 3.452 3.523-.367 4.299-5.157 1.721-7.149-.296-.227-1.152-.62-1.927-.776z"/><path d="M84.76 37.103c-.215.083-.381.19-.434.334-.499 1.226 2.149.83 2.422 1.898.577 2.281-2.211.424-3.13.523-1.578.182-.66 2.096.167 2.686.594.426 1.218.64 1.943.664 1.48.042 3.05.009 3.593-1.601.513-1.493-.345-3.432-1.649-4.253-.562-.351-1.081-.55-1.766-.483-.289.025-.784.087-1.146.232z"/><path d="M83.359 58.952c-.218-.074-.407-.091-.548-.017-.882.471.248 1.56.512 2.071.426.817-.165 1.997-1.229 1.567-.986-.403-.733-2.326-1.812-2.385-1.068-.065-1.357 1.561-1.159 2.315a3.334 3.334 0 0 0 1.064 1.753c.784.693 1.872 1.643 3.003 1.543.892-.082 2.308-.784 2.724-1.608.651-1.304-.387-3.915-1.525-4.684-.234-.158-.658-.427-1.03-.555z"/><path d="M77.604 51.526c-.156.008-.312.05-.421.156-.495.48.297 1.238.421 1.725.166.644-.181 1.403-.835 1.617-.807.261-1.334-.396-1.686-1.044-.119-.234-.293-.622-.516-.779-.458-.334-1.436.074-1.634.553-.363.933-.05 2.273.59 3.028.239.271.586.441.852.685.415.372.84.678 1.38.842.554.174 1.38.247 1.94.078 2.476-.729 3.106-3.89 1.725-5.87-.286-.397-.67-.727-1.139-.871a2.043 2.043 0 0 0-.677-.12z"/><path d="M69.246 83.922c-.528.26-1.007.619-1.254.974-.863 1.229-.948 3.845.673 4.554 3.338 1.478 5.764-5.445 2.335-5.933-.499-.066-1.159.107-1.754.405z"/><path d="M68.52 73.34a5.531 5.531 0 0 0-.919 2.784c-.071 1.625 1.86 2.302 3.176 1.56 1.218-.693 1.324-3.234.878-4.373-.448-1.114-1.772-1.437-2.64-.586-.176.181-.35.387-.495.615z"/><path d="M60.916 79.837c-.095.049-.197.107-.293.156-1.724.929-2.146 3.962-.47 5.153 1.687 1.202 4.373-1.089 4.555-2.888.099-1.031-.231-2.24-1.214-2.752-.87-.461-1.765-.09-2.578.331z"/><path d="M78.852 73.678a.39.39 0 0 0-.108.021c-1.984.363-3.251 3.646-1.621 5.058 2.355 2.03 3.362-2.261 3.169-3.82-.104-.868-.574-1.375-1.44-1.259z"/><path d="M107.112 67.575c.826-2.282-3.052-4.546-4.06-1.898-.956 2.526 2.838 4.654 4.002 2.035a.803.803 0 0 0 .058-.137z"/><path d="M101.08 73.698c1.139-1.229-.148-4.519-2.211-4.341-2.104.173-2.021 2.683-.915 3.92.479.544 1.18.857 1.881.874.569.018.973-.156 1.245-.453z"/><path d="M98.605 65.719c1.56-.028 1.699-2.158 1.186-3.26-.319-.689-.716-1.448-1.573-1.444-2.236.009-2.617 2.724-1.345 4.064.403.425 1.081.656 1.732.64z"/><path d="M76.251 65.57a2.403 2.403 0 0 0-.635.306c-1.329.875-1.84 3.564-.52 4.683 1.312 1.102 3.577-.516 3.672-2.026.084-1.511-.953-3.409-2.517-2.963z"/><path d="M99.423 42.495c-.124.227-.166.507-.101.854.596.298 3.355.404 2.451 1.771-.734 1.117-2.525-.318-3.507-.124-.73 1.46.033 2.537 1.556 2.958 1.34.38 4.006.553 4.686-1.044.682-1.58-.14-4.019-1.663-4.815-.899-.471-2.887-.571-3.422.4z"/><path d="M123.021 24.502c.009-.033.024-.062.041-.095.404-1.027.223-2.351.099-3.425-.057-.457-.082-.923-.27-1.349-.168-.38-.455-.726-.663-1.094-.222-.388-.474-.573-.887-.779-.441-.214-.842-.507-1.278-.734a2.56 2.56 0 0 0-1.482-.271c-.585.069-.911.407-1.327.778-.427.388-.999.792-1.362 1.243-.235.292-.362.771-.486 1.122-.197.622-.247 1.258-.412 1.885-.166.595-.454 1.279-.838 1.762-.421.528-1.58 2.145-.054 1.98.75-.082 1.443-.516 2.294-.33 1.209.273 2.824 1.156 3.433 2.36.258.507.174 1.691.701 1.955.882.442 1.377-1.196 1.578-1.741.369-1.068.518-2.218.913-3.267z"/><path d="M111.098 26.528c.759-.516 1.94-.606 2.799-.268.692.277 1.871 1.064 2.066 1.848.23.892-.599 1.362-1.268 1.66-.973.433-1.56.209-2.6.053-.775-.115-1.416-.615-1.649-1.378-.257-.883.066-1.523.652-1.915z"/><path d="M103.928 31.578c.495-.169.668-.64 1.204-.82.528-.186 1.155-.227 1.721-.227.813 0 1.301.169 1.812.838.619.809.297 2.005-.337 2.706-.79.883-1.855.549-2.846.107-1.059-.471-2.411-1.255-1.77-2.562a.94.94 0 0 0 .216-.042z"/><path d="M112.807 32.151c.808-.329 1.906.059 2.451.85 1.015 1.485.007 3.986-1.677 4.617-.956.358-2.689.486-2.508-.928.074-.611.367-1.156.487-1.758.124-.611.165-1.172.351-1.766.169-.532.494-.857.896-1.015z"/></g></g><g><defs><path id="SVGID_3_" d="M22.312 80.497a30.285 30.285 0 0 1-6.022-3.8c-2.681-2.183-5.011-4.761-7.256-7.381-6.221-7.27-6.762-17.935-3.877-26.714.901-2.724 2.078-5.517 3.489-8.009 1.767-3.106 4.102-6.122 6.626-8.647a60.958 60.958 0 0 1 2.138-2.021c.412-.371 1.057-.702 1.328-1.196.545-.99-.771-2.501-.99-3.499-1.146-5.269 5.473-9.085 9.977-8.838 2.401.128 4.959.958 6.585 2.811 1.13 1.29 1.923 2.843 1.618 4.583-.1.685-.542 1.543-.43 2.224.1.624.647.524 1.163.524 6.312 0 13.055 1.374 18.879 3.825.33.135.783.434 1.14.102.371-.347.091-1.068.205-1.53a9 9 0 0 1 .562-1.565c1.005-2.013 3.367-2.929 5.471-3.2a10.232 10.232 0 0 1 2.534-.01c3.968.517 7.888 3.021 9.447 6.759 1.478 3.535.231 8.433-3.516 10.178-.338.156-1.063.508-1.435.517-.158.59.486.961.8 1.398.338.466.635.961.933 1.484 5.355 9.515 4.836 22.036-.475 31.438-1.482 2.624-3.375 5.438-5.507 7.574-6.165 6.152-15.25 7.531-23.601 7.168-6.782-.296-13.614-1.195-19.786-4.175z"/></defs><use xlink:href="#SVGID_3_" overflow="visible" fill="#fcc21b"/><clipPath id="SVGID_4_"><use xlink:href="#SVGID_3_" overflow="visible"/></clipPath><g clip-path="url(#SVGID_4_)" fill="#2f2f2f"><path d="M70.422 47.301c-1.144.413-2.456 1.89-2.257 3.202.182 1.246 1.229 1.906 2.41 1.649 1.394-.296 2.598-1.629 2.335-3.126-.181-1.045-1.427-2.113-2.488-1.725z"/><path d="M67.253 39.896a1.835 1.835 0 0 0-.779.31c-1.068.768-2.154 2.912-.904 3.965 2.629 2.216 6.111-3.229 2.653-4.212a2.17 2.17 0 0 0-.97-.063z"/><path d="M42.116 27.15c1.657-.099 3.332-1.74 1.616-3.173-2.021-1.679-4.951 1.647-2.871 2.889.378.228.817.306 1.255.284z"/><path d="M49.645 24.948c1.39-.355 2.761-1.518 1.634-2.69-1.274-1.32-3.829-1.106-4.112.99-.092.651.263 1.345.824 1.642.42.218 1.034.214 1.654.058z"/><path d="M40.91 22.192c1.206-.521 2.155-1.643.975-2.566-.681-.528-2.468-.652-3.004.148-.477.709-.875 2.146.105 2.578.514.223 1.256.121 1.924-.16z"/><path d="M64.229 58.771c.033.756.974 1.643 1.658 1.882 1.824.619 3.284-1.089 3.833-2.575.466-1.262-.367-2.137-1.585-2.284-1.02-.124-1.844.31-2.603.939-.554.471-1.287 1.188-1.304 1.973l.001.065z"/><path d="M71.206 64.011c.985.94 3.081.64 4.039-.809.429-.644.602-1.361.768-2.104.197-.908-.313-1.923-1.296-2.203-1.766-.512-3.717 1.643-3.997 3.218-.153.866.067 1.493.486 1.898z"/><path d="M8.808 36.323c.731.887 1.087 2.71.294 3.684-.743.924-1.907.957-2.748.182-.99-.908-1.333-2.566-.397-3.656.651-.76 2.17-1.036 2.851-.21z"/><path d="M12.36 29.227c.216.161.396.362.512.598.561 1.107.536 3.371-.967 3.705-3.164.71-3.702-5.363-.387-4.674.305.061.594.185.842.371z"/><path d="M9.555 48.109c-1.057 1.292-4.374.549-4.044-2.636.135-1.259 1.201-1.654 2.294-1.275.908.314 1.43 1.024 1.808 1.869.408.912.313 1.597-.058 2.042z"/><path d="M5.404 55.726c-1.097.669-2.963-.036-3.549-1.563-.26-.677-.283-1.373-.28-2.092 0-.879.686-1.708 1.636-1.77 1.733-.107 3.095 2.265 3.026 3.779-.033.825-.355 1.358-.833 1.646z"/></g></g><path d="M23.817 41.294a5.326 5.326 0 0 1-.169-1.316c.028-2.322 2.673-1.01 3.821-.333 1.657.99 3.654 2.689 5.685 2.738 2.303.05 4.713-.156 7.047-.156 2.5 0 3.524 1.031 2.05 3.11-1.505 2.121-5.425 3.087-7.826 3.146-1.176.024-2.642.366-3.755-.133-.841-.38-1.778-1.023-2.554-1.54-1.911-1.284-3.709-3.239-4.299-5.516z" fill="#2f2f2f"/><g><g><g><path d="M25.573 34.627c-1.719 1.602-4.202 1.716-5.552.313-1.291-1.398-.995-3.746.681-5.322 1.692-1.543 4.13-1.749 5.479-.404 1.372 1.361 1.11 3.795-.608 5.413z" fill="#2f2f2f"/></g></g></g><g><g><g><path d="M48.288 40.602c.655 2.28 2.92 3.737 5.131 3.267 2.195-.516 3.426-2.831 2.716-5.166-.726-2.298-3.087-3.713-5.216-3.151-2.111.555-3.284 2.804-2.631 5.05z" fill="#2f2f2f"/></g></g></g><g><path d="M24.433 54.224c-1.123-.16-2.253-.321-3.449-.114-.165.594.082 1.488.214 2.071.19.841.281 1.484.281 2.375 0 2.419-1.539 4.927-.348 7.146 2.162 4.026 9.44 5.186 13.435 5.078 6.638-.177 10.329-6.163 9.312-12.446-1.202-.223-2.237-.161-3.388-.587-1.263-.47-2.526-.944-3.783-1.432-1.053-.408-2.24-.643-3.016-1.538-.57-.651-1.354-2.653-2.319-1.973-.833.603-1.853 1.007-2.829 1.329-1.417.467-2.758.281-4.11.091z" fill="#ed6c30"/></g><path d="M30.382 44.66c-.256-.036-.504-.065-.722-.099-1.993-.297-1.854 1.452-2.166 2.905-.331 1.485-.582 2.81-2.113 3.631-2.752 1.468-6.725-.962-7.888-3.523-.257-.569-.455-.95-.508-1.626-.029-.582-.076-1.201-.066-1.783-.005-.639-.382-.915-.936-.693-1.09.43-1.468 2.184-1.567 3.376-.257 3.433 1.559 6.337 4.447 8.07 2.203 1.324 4.118 1.592 6.56.915 3.276-.903 3.409-1.915 6.155.611 2.485 2.285 6.091 4.068 9.486 4.208 3.625.152 7.083.388 9.864-2.476.875-.903 3.391-6.173.925-6.762-1.222-.294-1.66 1.423-2.245 2.115-.718.847-1.823 1.553-2.835 1.974-2.264.932-4.979 1.015-7.339.429-2.97-.742-7.328-2.839-6.007-6.618.337-.974 1.222-2.364.945-3.392-1.557-.094-2.57-1.07-3.99-1.262z" fill="#2f2f2f"/></g><g><g><path d="M47.979 31.682a3.212 3.212 0 0 0-.574-.628c-2.236-1.897-3.515 1.156-2.358 3 .519.837 1.45.887 2.26.38 1.178-.747 1.318-1.821.672-2.752z" fill="#2f2f2f"/></g><g><path d="M33.055 27.234c-.742-1.032-2.583-.636-3.342.316-.99 1.254.281 2.946 1.741 2.637 1.361-.289 2.417-1.279 1.742-2.711a1.801 1.801 0 0 0-.141-.242z" fill="#2f2f2f"/></g></g></g></g></svg>