<svg id="レイヤー_1" xmlns="http://www.w3.org/2000/svg" viewBox="0 0 128 128"><g><path d="M44.838 82.077l-12.389 5.932-2.112 11.064 2.769 7.907 11.464 3.294 9.622-9.224.655-4.877s-5.663-4.079-4.214-10.934l-5.795-3.162z" fill="#2f2f2f"/><path d="M76.215 105.55s5.435-3.906 9.424-14.548c4-10.639.32-.612.32-.612l-3.57-8.312-10.015 3.292-6.061 17.655 9.902 2.525z" fill="#2f2f2f"/><g><path d="M19.045 36.579c0-.025.006-.053.009-.079.39-1.819 2.004-2.853 2.739-4.479 1.03-2.286-.176-4.328-.518-6.616-.143-.988-1.938-4.62-.65-5.285 1.01-.534 1.693.069 2.091 1.028.403.976.767 3.438 1.946 3.74 1.668.42 2.732-2.699 3.226-3.812.717-1.632 1.168-3.508 2.1-5.036.259-.428.46-.992 1.033-1.015.777-.03 1.078.648 1.158 1.462.109 1.007-.275 1.729-.564 2.643-.573 1.802-1.363 3.483-2.008 5.24a106.583 106.583 0 0 1-2.887 7.155 91.134 91.134 0 0 1-1.753 3.687c-.466.929-.898 2.134-1.7 2.836-.626.541-1.435.472-2.192.267-.521-.144-2.055-1.037-2.03-1.736z" fill="#f79329"/><path d="M18.581 69.208c.35-.247.735-.455.98-.61 1.986-1.239 4.127-2.284 5.771-3.991 2.585-2.687 1.428-3.842-1.078-5.932-.678-.56-3.057-.858-2.482-1.857.29-.515 1.276-1.01 1.75-1.364.612-.462 1.239-.901 1.943-1.211 1.274-.561 2.46-1.134 3.831-1.413a23.871 23.871 0 0 1 3.896-.465c2.322-.082 4.515.731 6.638 1.628 1.53.647 2.922 2.547 2.908 4.183-.003.885.083 1.734-.317 2.556-.466.966-1.318 1.564-2.132 2.197-.85.651-1.78.742-2.782 1.084-.639.219-1.129.773-1.51 1.321-.442.629-.477 1.478-.862 2.144-.551.959-1.164 1.323-2.013 1.922-.825.581-1.576 1.264-2.493 1.713-1.046.513-2.157.823-3.203 1.326-.983.473-2.048.783-3.148.846-.946.052-1.751-.065-2.676-.172-.975-.104-1.932-.086-2.659-.874-.415-.455-1.273-1.366-1.172-2.056.053-.362.408-.694.81-.975z" fill="#ed6c30"/><path d="M14.01 68.526c-1.143.435-2.145 1.063-2.884 2.415-.726 1.316-1.012 2.792-1.079 4.28-.041.848.143 2.952 1.591 1.736.543-.459.889-1.471 1.174-2.088a6.611 6.611 0 0 1 1.46-2.042c2.451-2.333 6.078-2.196 9.083-3.574 2.643-1.213 3.794-3.961 5.346-6.222a7.578 7.578 0 0 1 2.481-2.281c.774-.443 2.464-.609 2.988-1.325.237-.318.308-.844.254-1.233-.078-.529-.524-.804-.962-1.036-.526-.276-1.217-.407-1.801-.407-3.192.014-6.027 1.391-8.171 3.72-2.17 2.348-2.796 5.778-6.059 6.994-1.2.451-2.371.67-3.421 1.063z" fill="#ed6c30"/><path d="M62.894 50.345c.191-.081.381-.15.59-.237.681-.284 3.027-1.273 2.442-2.449-.254-.517-2.196-.403-2.845-.465a8.41 8.41 0 0 1-1.452-.378c-.465-.178-2.189-.655-1.361-1.307.385-.302 1.331-.302 1.825-.537.611-.294 1.211-.677 1.702-1.147.301-.289 1.07-1.207 1.055-1.828a.538.538 0 0 0-.333-.486.51.51 0 0 0-.307-.031c-.433.022-.998.314-1.33.377-.451.089-.987.113-1.526.089-.394-.049-.783-.124-1.178-.189-.171-.048-.343-.084-.493-.149-.963-.397-1.843-.659-.723-1.49.879-.655 2.433-1.689 2.331-3.011-.003-.021.005-.042 0-.069-.003-.032-.026-.046-.034-.071a.404.404 0 0 0-.07-.161.39.39 0 0 0-.114-.111c-.021-.017-.025-.034-.086-.051-.596-.289-1.874.171-2.267.318a5.516 5.516 0 0 1-1.575.319c-.079.005-.154.019-.232.031-.831.008-1.706-.039-2.341-.154-.241-.111-.438-.253-.473-.487a.314.314 0 0 1 .048-.193c.242-.136.491-.324.713-.46a5.672 5.672 0 0 0 1.677-1.575c.031-.04.065-.075.091-.109.034-.056.093-.097.123-.159.031-.046.088-.165.131-.255.036-.066.069-.137.102-.207.113-.253.214-.568.289-.875.021-.062.061-.114.077-.175.045-.159.081-.314.102-.476.04-.278.03-.882-.21-1.043-.202-.135-.538-.057-.831.043-.157.057-.301.118-.403.154-.414.158-.844.298-1.269.434-2.401.746-4.707.963-7.219.766-1.622-.122-3.365-.172-4.947-.573-.137-.036-.434-.144-.578-.079-.026.013-.022.048-.044.066-2.572-.483-5.176-.837-7.771-1-1.562-.1-3.131.037-4.679.26-.151.022-.331.073-.497.118.091-.166.184-.339.297-.447.363-.358.814-.779 1.063-1.242.263-.479-.135-.953-.628-1.007-.514-.047-1.083.308-1.555.466-1.209.399-2.319 1.04-3.466 1.582-1.163.552-2.184 1.214-3.308 1.856-1.264.726-1.953 1.01-3.378 1.051-1.11.025-2.012.715-2.218 1.826-.144.776-.219 1.366-.708 2.015-.469.625-1.064 1.146-1.457 1.829a5.74 5.74 0 0 0-.744 3.282c.089 1.1.157 2.107-.743 2.875-1.36 1.154-2.806 2.409-4.468 3.199-1.693.807-3.474.846-4.843 2.263-1.085 1.12-1.536 2.577-1.536 4.092 0 .683-.016 1.011-.311 1.562-.361.664-.688 1.417-.634 2.207.1 1.523 1.333 2.847 2.649 3.742.037.288.089.577.18.857.145.455.676 2.188 1.261 2.254.661.072.928-.904 1.146-1.903 2.406.769 5.231.88 7.622.2.66-.185 1.291-.394 1.897-.63.719 1.189 1.856 2.699 2.933 2.477.38-.804.219-1.865.219-2.773v-1.354c.554-.373 1.094-.79 1.622-1.262 1.091-.973 2.097-2.035 3.329-2.823 2.896-1.851 6.551-3.574 10.056-3.513.328.005.655.037.979.079 2.049.285 5.04 1.436 5.887 3.508 1.771 4.354-4.145 4.114-6.149 5.775a7.227 7.227 0 0 0-1.965 2.578c-.319.729-.62 1.841-1.639 1.5-.832-.276-1.797-1.986-2.819-1.396-.738.429.114 2.928.271 3.589.201.831-.087 1.124-.796 1.579-1.439.927-4.074 1.041-5.656.441-.578-.217-.911-.703-1.484-.84-.354-.082-.836-.057-1.2-.063-.804-.012-1.631.146-1.264 1.149.46 1.255 1.887 2.541 3.165 2.864 3.339.842 8.137 1.059 11.034-1.103 2.86-2.135 5.046-5.014 7.607-7.489-.031.027.508 2.025.529 2.274a7.886 7.886 0 0 1-.201 2.477c-.397 1.628-1.628 2.941-2.595 4.258-1.312 1.78-3.352 4.1-3.662 6.37-.088.608.304.944.792 1.286.833.582 1.974.968 2.939 1.234 3.256.892 6.624.169 9.802-.691 3.035-.823 6.12-1.572 8.947-2.988 5.482-2.748 8.667-7.925 9.747-13.931.231-1.292.361-2.604.361-3.916 0-3.418-.627-6.598-1.821-9.761-.313-.843-.737-1.656-1.196-2.452z" fill="#757f3f"/><g><g fill="#2f2f2f"><path d="M14.823 53.931c.699 1.015.314 2.612-1.374 2.709-.753.043-2.875.205-3.027-.802-.25-1.707 1.628-2.852 2.995-2.711.645.07 1.117.383 1.406.804z"/><path d="M3.431 53.528c-.862 1.629.705 2.783 2.003 2.833 1.981.082 1.376-2.582.228-3.436-.901-.67-1.809-.201-2.231.603z"/></g><g><path d="M30.557 43.82l-5.868 3.351c.842 1.772 2.896 2.725 4.678 2.158 1.837-.595 2.678-2.582 1.882-4.446a3.983 3.983 0 0 0-.692-1.063z" fill="#fcc21b"/></g><path d="M15.452 42.595a3.356 3.356 0 0 0-.765 1.038c-.699 1.486-.389 3.271.686 3.99.937.629 2.159.235 2.916-.876l-2.837-4.152z" fill="#fcc21b"/></g><path d="M28.784 84.304c-1.428.873-3.019 1.398-4.879 1.277-1.082-.08-2.41-.28-3.232-1.045-.924-.86-.866-2.145-1.562-3.135-.743-1.057-3.395-1.833-4.406-.803-.582.595-.878 1.177-1.106 1.96-.126.45-.429 1.427.355 1.427.35 0 .594-.408.909-.504.255-.074.636-.053.888 0 .423.831.372 2.835-.363 3.486-1.203 1.065-3.77.359-3.893 2.524-.079 1.448 1.266 3.36 2.858 2.525.663-.347.144-1.021.158-1.537.011-.379 1.938-.332 2.159-.323.39.022 1.042-.021 1.377.219.111.074.833 1.104.557 1.093-.218-.004-.313.132-.493.159-.25.034-.513-.032-.761.014-.207 1.343 1.478 1.402 2.432 1.402.639 0 1.212.093 1.719-.256.317-.22.521-.582.63-.946.053-.185.098-.389.081-.581-.019-.159-.163-.368-.106-.525.197-.552 2.503-.019 3.005.054.602.077 1.243.081 1.847.085.757 0 1.514-.077 2.249-.262 4.314-1.051 6.077-4.873 7.183-8.776.224-.805.448-1.662.534-2.495.123-1.154.142-2.3.216-3.463-.425.323-.762.711-1.119 1.105-.609.661-1.383 1.238-1.874 2-.442.683-.984 1.295-1.531 1.917-1.14 1.282-2.362 2.502-3.832 3.404z" fill="#757f3f"/><path d="M52.783 17.284c-.597-.193-1.003.273-1.415.574-2.056 1.509-5.338 7.469-8.343 6.706-2.664-.673.579-6.676-2.708-6.339-1.569.163-1.387 5.573-1.462 6.593-.026.359-.061.717-.092 1.076-.144 1.865-1.295 3.466-2.2 5.05-.264.463-.527.911-.841 1.339-.148.21-1.461 2.004-1.294 2.1.258.147.557.097.835.132.288.034.577.062.871.091.719.075 1.422.241 2.117.431.459.126.871.323 1.317.475.292.097.656.289.923.065.228-.186.323-.511.476-.752.168-.271.308-.571.451-.86 1.636-3.226 4.374-5.733 6.739-8.404 1.259-1.425 2.642-2.702 3.847-4.189.612-.757 1.254-1.295 1.481-2.281.185-.8.107-1.549-.702-1.807z" fill="#f79329"/><path d="M48.73 94.021c.489-.275.897-.51 1.068-.661 2.318-2.057 3.329-6.384.608-8.63-.57-.474-1.291-.72-2.027-.776-.257-.016-2.008 0-2.068.324-.18.919.053 1.942-.177 2.81-.252.97-.729 1.774-1.347 2.567-.57.729-1.392 1.498-2.234 1.871-1.474.653-2.415.124-3.741-.373-1.278-.487-2.499-.084-3.312.983-.314.414-1.252 2.232-.236 2.398.767.123.871-1.016 1.759-.561.446.228 1.502 1.375 1.609 1.838.21.876-.69 1.094-1.351 1.278-.691.188-2.258.567-2.713 1.181-.64.844.411 2.082 1.08 2.54.408.281.622.363 1.107.425.5.062 1.769-.306 1.382-1.01-.132-.246-.489-.18-.361-.58.217-.677 2.092-.557 2.62-.557.934 0 1.984-.154 2.804.278 1.3.679-.864.96-.288 1.66.368.455 1.326.433 1.825.314.618-.142 1.291-.442 1.706-.928.599-.705.788-1.662.586-2.556-.156-.708-1.103-1.103-1.198-1.672-.089-.524 1.669-1.472 2.899-2.163z" fill="#757f3f"/><path d="M125.987 77.897c-2.004-.06-4.571.582-6.171 1.869-1.927 1.554-3.393 3.433-4.232 5.788-.334.931-.548 1.96-.932 2.845-1.234 2.816-6.971 6.003-7.881 1.12-.858-4.594 4.687-9.616 6.449-13.483 1.466-3.223 1.233-6.349 1.5-9.789.185-2.297-.577-4.805-1.789-6.732-2.547-4.052-7.167-7.338-11.905-8.112-12.083-1.981-20.851 7.35-26.059 17.089-1.548 2.896-2.949 5.882-4.51 8.769-1.99 3.667-4.577 7.078-7.339 10.211-1.828 2.07-7.424 8.244-10.363 4.262-.701-.95-.358-2.254.035-3.256.967-2.468 2.773-4.636 4.498-6.614.787-.9 1.42-1.854 2.064-2.843.585-.906 1.256-1.726 1.869-2.6 1.212-1.758 2.104-3.789 2.835-5.819.459-1.277 1.325-2.504.668-3.867-.521-.192-.848.235-1.271.42-.518.218-1.147.297-1.689.438-3.764.972-7.521 1.941-11.284 2.914-1.942.507-4.163 1.443-6.183 1.359-.948-.039-1.692-.03-2.638.193-.778.185-1.858.062-2.476.617-.46.412-.924 1.006-1.305 1.527-5.193 7.03-10.649 14.854-11.93 23.721a24.79 24.79 0 0 0 .069 7.491c.639 3.78 3.978 7.275 6.816 9.63 5.289 4.366 12.403 6.413 19.163 5.521 3.985-.524 7.656-2.126 11.12-4.057 4.39-2.438 8.483-5.968 11.911-9.614.406-.434.795-.889 1.185-1.344-.249-.498-.363-1.051-.441-1.646-.127-.953-.091-1.72.145-2.655.19-.741.517-1.475.875-2.149.541-1.007 1.116-2.117 1.085-3.289-.027-1.059-.59-2.007-.791-3.037-.11-.528-.022-1.605.791-1.273.638.258 1.046.836 1.381 1.424.461.813 1.052 1.505 1.442 2.378.354.792.835 1.273.832 2.188 0 .296-.016.578-.036.857 1.898-3.035 3.588-6.223 5.205-9.405 1.611-3.174 3.133-6.389 4.781-9.539 1.223-2.332 2.906-5.934 5.903-6.16 4.572-.358 1.194 5.251.292 7.114-2.79 5.728-4.938 14.358.962 19.023 3.912 3.09 9.745 3.466 14.209 1.553 2.174-.931 4.518-2.304 5.933-4.246 2.012-2.775 1.661-6.137 2.31-9.307.489-2.411 1.57-4.171 3.635-5.562.976-.655 2.788-1.354 2.906-2.721.084-.991-.782-1.174-1.644-1.202zM50.345 94.702c-.245.549-.779.775-1.089 1.247-.718 1.091-.14 2.049 0 3.15.144 1.125-.376 2.038-1.164 2.801-1.282 1.234-3.05 1.724-4.799 1.575-.963-.087-1.7-.918-2.617-.937-1.457-.026-2.467 1.23-3.829 1.077-1.421-.158-2.877-1.015-3.688-2.197-.937-1.374-1.496-3.255.005-4.532.279-.236.626-.354.8-.689.348-.664-.112-.413-.568-.601-.945-.391-1.059-.749-.977-1.642.176-1.865.951-2.881 2.473-3.969 1.514-1.08 2.949-.525 4.665-.511 1.513.009 3.197-.3 4.068-1.689.48-.757.148-2.314 1.347-2.424.494-.043.728.171.885.482.092.192.158.42.236.648.319.943.25 2.221.008 3.175-.327 1.304-1.146 2.53.373 3.5 1.015.647 1.762.509 2.856.474.766-.027 1.422.164 1.015 1.062z" fill="#757f3f"/><path d="M80.548 95.765c.022.159.035.325.038.492.053 2.275-2.155 3.823-2.28 6.023-.064 1.186.132 2.448.69 3.504.672 1.271 2.557 2.529 3.782 1.209.232-.255.429-.498.761-.629.538-.212 1.129-.047 1.685-.163a2.452 2.452 0 0 0 1.191-.647c.107-.119.577-1.134.577-1.134.366-.066.743-.056 1.104-.179.415-.144.816-.504 1.097-.861.38-.489.604-1.432.375-2.053-.115-.319-.458-.565-.757-.402-.292.163-.42.49-.813.568-.295.062-.844-.051-1.032-.328-.191-.294.014-.612 0-.919-.004-.235-.074-.49-.092-.725-.045-.622-.297-1.155-.533-1.716-.475-1.155.014-2.419.05-3.605.063-2.083-1.083-4.271-2.517-5.728-1.033-1.055-2.478-3.21-4.161-3.199-.701 0-1.081.019-1.603.549-.871.888-1.477 2.017-2.227 3.005-.149.194-.67.734-.657 1.002.014.328.163.206.434.314.395.163.771.479 1.139.705 1.687 1.034 3.455 2.863 3.749 4.917z" fill="#757f3f"/></g></g></svg>