<svg id="レイヤー_1" xmlns="http://www.w3.org/2000/svg" xmlns:xlink="http://www.w3.org/1999/xlink" viewBox="0 0 128 128"><g><g><g><defs><path id="SVGID_1_" d="M60.54 5.938C45.223 1.546 24.616 8.685 19.872 25.041c-.728 2.497-1.43 6.535-.38 9.013 1.597 3.815 5.004 6.906 8.745 8.382 3.56 1.402 8.953 1.866 12.261 4.112 4.939 3.351-1.526 11.047-3.86 13.961-4.93 6.183-9.524 12.467-14.282 18.797-4.088 5.44-8.331 11.659-9.575 18.482-3.722 20.523 18.863 29.026 35.377 26.892 14.624-1.894 26.612-11.223 35.793-22.306 1.383-1.671 3.101-5.839 5.207-6.526 3.657-1.189 2.692 3.24 2.91 6.065.135 1.796.465 3.486.892 5.231 1.786 7.352 9.338 12.132 16.573 11.594 10.156-.752 15.187-10.573 17.406-19.364 1.15-4.549 1.336-9.821-.288-14.267-.483-1.3-.641-2.431-2.228-2.229-2.098.279-2.59 2.479-3.388 4.048-1.304 2.59-2.962 5.337-4.901 7.505-3.333 3.736-3.584.748-3.705-2.659-.352-10.09-2.617-21.81-12.002-27.45-15.456-9.301-30.846 13.349-39.646 22.892-1.644 1.782-11.594 12.253-13.163 5.329-.705-3.086 3.763-7.12 5.7-8.986 13.774-13.331 29.718-33.631 27.365-54.025C79.439 18.664 71.01 8.945 60.54 5.938z"/></defs><use xlink:href="#SVGID_1_" overflow="visible" fill="#bdcf46"/><clipPath id="SVGID_2_"><use xlink:href="#SVGID_1_" overflow="visible"/></clipPath></g></g><path d="M54.125 22.822c.07 2.668 2.145 4.744 4.605 4.659 2.478-.111 4.436-2.357 4.362-5.031-.079-2.664-2.149-4.761-4.622-4.65-2.478.093-4.429 2.348-4.345 5.022z" fill="#2f2f2f"/><path d="M23.864 35.326c-.07.06-.14.131-.214.195-2.015 2.042-3.421 4.576-5.755 6.312-3.592 2.664-8.022 3.268-12.314 2.301-1.198-.268-4.72-2.375-4.98-.157-.32 2.803 5.649 4.131 7.649 4.326 1.086.103 2.442-.07 3.417.529 1.842 1.123-.929 3.788-2.014 4.511-1.226.803-2.478 1.346-3.917 1.601-1.281.228-3.244-.181-4.153.98C.032 57.891 5.281 58.3 6.34 58.245c5.063-.261 9.333-3.955 12.257-7.816 2.163-2.85 5.008-5.096 7.218-7.904.845-1.095 1.972-2.612 3.221-3.281.844-.445 2.26-.873 2.302-1.996.037-.9-.659-1.383-1.336-1.824-1.607-1.046-4.56-1.389-6.138-.098z" fill="#ed6c30"/><path d="M123.317 108.246c-1.29-.26-3.745 3.875-7.621 5.943-3.876 2.067-8.387 1.972-13.813-.481-4.325-1.953-4.845-10.396-4.144-16.958.774-7.234-.906-10.722-5.036-11.239-4.415-.552-8.141 8.784-16.539 19.247-8.298 10.344-23.197 14.495-27.355 15.015-5.765.194-12.42.248-18.296-8.986-6.53-10.266 1.067-24.209 6.86-33.417 3.639-5.347 17.405-21.522 18.76-27.838.789-3.683-1.216-9.424-8.15-9.73-11.816-.525-15.237 3.927-15.252 3.943 2.766.682 5.672 1.385 7.764 2.805 4.34 2.945-.12 9.237-2.854 12.701v-.002c-.376.478-.724.909-1.006 1.262-4.93 6.183-9.524 12.467-14.282 18.797-4.088 5.44-8.331 11.659-9.575 18.482-3.722 20.523 18.863 29.026 35.377 26.892 2.362-.306 4.626-.889 6.845-1.573 11.548-3.474 21.248-11.444 28.948-20.732 1.383-1.671 3.101-5.839 5.207-6.526 3.657-1.189 2.692 3.24 2.91 6.065.135 1.796.465 3.486.892 5.231 1.786 7.352 9.338 12.132 16.573 11.594 6.661-.495 11.089-4.908 13.995-10.354-.077-.037-.119-.123-.208-.141z" fill="#e5dda0"/></g></svg>