<svg id="レイヤー_1" xmlns="http://www.w3.org/2000/svg" xmlns:xlink="http://www.w3.org/1999/xlink" viewBox="0 0 128 128"><g><g><path d="M74.917 113.833s-5.695-.447-5.933-3.793l-3.238-9.413 14.095-13.104s10.329-.195 10.92-.195c.601 0 3.374 13.299 3.374 13.299l-4.96 8.143-14.258 5.063z" fill="#2f2f2f"/><g><g><path d="M75.028 53.728c.312 2.764.9 5.174 2.83 7.203 1.55 1.619 3.169 2.997 4.602 4.728 4.118 4.988 11.061 6.71 15.318 11.94 2.843 3.485 4.767 7.767 5.751 12.107 1.104 4.876 1.777 10.274.424 15.066-1.866 6.579-7.617 7.38-13.634 8.287a67.75 67.75 0 0 1-8.366.74c-2.233.056-4.808.345-7.036.033-1.954-.275-2.321-2.918-1.786-4.473.559-1.665 2.243-2.299 3.806-2.604.772-.153 1.582.073 2.358-.056 1.453-.229 2.062-1.183 2.09-2.635.028-1.981.708-3.63 1.624-5.355.412-.777 1.104-1.466 1.764-2.062.675-.619 1.828-1.47 1.191-2.555-1.102-1.885-4.436-.153-5.574.656-1.745 1.237-2.987 3.117-3.527 5.193-.773 2.865-1.358 3.062-4.039 4.076-1.582.609-3.036 1.619-3.638 3.191-.732 1.95.491 4.253-.77 5.947-.991 1.358-2.907 2.112-4.672 2.038-4.536-.195-7.584-1.312-6.63-5.929.604-2.903.413-6.081.591-9.093.064-1.135.173-2.856-.958-3.647-.443-.316-1.055-.372-1.56-.345-.354.015-1.233-.037-1.559.07-.973.308-.735 1.871-.727 2.694.015 1.582-.022 3.192-.056 4.746-.04 1.848.158 3.676.182 5.514.014 1.196.121 2.676-.865 3.532-1.131 1.005-2.861 1.224-4.402 1.274-1.852.065-3.955-.066-5.495-1.153-3.154-2.22-2.079-7.306-1.787-10.284.187-1.927.047-3.937 0-5.919-.042-1.777-.093-3.573-.134-5.37-.019-.743-.117-1.544-.076-2.297.146-2.096-.283-4.245-.343-6.432-.101-4.002-.308-8.068-.308-12.136 0-1.739.3-3.648.8-5.305.27-.884.559-2.057 1.029-2.829.739-1.229 2.023-2.327 3.094-3.294 1.383-1.233 3.024-1.852 4.598-2.802 2.052-1.237 4.188-2.41 6.414-3.359 3.901-1.657 8.071-3.08 12.431-3.238 1.531-.057 2.685-.299 4.16-.643 1.494-.344 2.229.656 2.504 2.058.182.907.28 1.814.381 2.722z" fill="#f79329"/></g><g><g><g><g><g><path d="M59.129 24.934s-2.131-2.606-7.087-9.78C48.976 10.709 39.329-1.785 34.448.798c-7.533 3.983-6.687 32.177-6.687 32.177l31.368-8.041z" fill="#f79329"/><path d="M62.293 25.27s2.63-2.104 8.967-8.098c3.928-3.704 15.96-13.913 20.195-10.377 6.537 5.464-.154 32.871-.154 32.871L62.293 25.27z" fill="#f79329"/><g><defs><path id="SVGID_1_" d="M95.308 51.885c.325-8.715-3.728-18.146-10.879-24.494-5.78-5.138-14.355-8.348-22.987-9.24-8.627-.922-17.678.437-24.401 4.252-8.319 4.723-14.243 13.103-15.735 21.693-1.425 8.162-.625 16.611 6.429 23.135 3.914 3.611 8.962 6.315 14.28 8.051 2.016.656 7.258 2.247 12.853 2.838 5.605.587 11.573.177 13.688-.047 5.562-.591 11.07-2.178 15.64-4.895 8.269-4.913 10.799-13.015 11.112-21.293z"/></defs><use xlink:href="#SVGID_1_" overflow="visible" fill="#f79329"/><clipPath id="SVGID_2_"><use xlink:href="#SVGID_1_" overflow="visible"/></clipPath></g></g></g><g><g><g><g><g><path d="M45.816 48.623c-.34 3.211-2.933 5.569-5.779 5.271-2.854-.298-4.9-3.145-4.561-6.355.34-3.22 2.932-5.584 5.784-5.281 2.848.302 4.892 3.145 4.556 6.365z" fill="#2f2f2f"/></g><g><path d="M69.868 51.154c-.34 3.21 1.699 6.063 4.551 6.361 2.853.297 5.44-2.062 5.779-5.273.341-3.219-1.703-6.067-4.555-6.369-2.853-.298-5.437 2.061-5.775 5.281z" fill="#2f2f2f"/></g></g></g></g><path d="M56.723 64.686c-.051 0-.106-.005-.162-.009a1.552 1.552 0 0 1-1.381-1.708l.599-5.705c.093-.851.856-1.434 1.708-1.382a1.549 1.549 0 0 1 1.377 1.708l-.6 5.704a1.55 1.55 0 0 1-1.541 1.392z" fill="#2f2f2f"/><g><path d="M52.19 68.417c-1.571-.013-3.149-.488-4.304-1.372-.912-.703-2.359-2.819-.871-3.63.238-.126.513-.199.782-.232.429-.056.775.047 1.141.32.577.434 1.07 1.196 1.791 1.341 2.247.457 4.188-.692 4.729-2.954.14-.605.189-.903.91-.969 1.755-.158 2.168 2.038 1.686 3.352-.429 1.172-.991 2.428-2.081 3.131-1.117.721-2.465 1.028-3.783 1.013z" fill="#2f2f2f"/></g><g><path d="M60.38 69.157c1.55.275 3.188.093 4.485-.558 1.024-.526 2.839-2.342 1.522-3.407-.828-.67-1.563-.404-2.368.117-2.057 1.325-4.881.39-5.565-2.006-.153-.55.064-1.424-.187-1.907-.12-.233-.312-.183-.586-.279-.186-.065-.312-.149-.521-.163-.972-.061-1.53.977-1.684 1.8-.08.438-.173.811-.099 1.248.205 1.237.531 2.567 1.477 3.462.958.916 2.229 1.46 3.526 1.693z" fill="#2f2f2f"/></g><g><g><g><g><g><path d="M51.995 57.632c-.026 1.07.578 2.248 1.609 3.047.838.652 2.081 1.066 3.313 1.192 1.233.13 2.526-.019 3.48-.475 1.179-.572 2.016-1.592 2.207-2.653.194-1.004.06-2.057-.969-2.876-.559-.455-1.289-.8-2.057-1.022a10.348 10.348 0 0 0-1.841-.382 11.793 11.793 0 0 0-1.961-.024c-.791.062-1.582.248-2.227.573-1.172.596-1.521 1.592-1.554 2.62z" fill="#2f2f2f"/></g></g></g></g></g></g></g></g></g><path d="M97.639 99.245c1.224-.814 2.503-.451 3.857-.294 5.858.684 12.503 5.821 12.735 11.94.293 7.864-6.696 13.541-13.661 15.407-5.072 1.358-10.562 1.358-15.78 1.153-2.278-.093-6.402.289-8.412-.986-.716-.451-1.354-1.391-1.685-2.158-1.214-2.812 1.229-4.766 3.839-4.756 1.904.009 3.803.037 5.705.022 4.155-.032 8.339.275 12.447-.535 3.74-.744 9.219-3.666 8.99-8.231-.168-3.35-3.886-4.011-6.57-4.406-.68-.102-1.353-.321-2.132-.34-1.53-.037-1.46-1.484-1.354-2.601.158-1.592.411-2.923 1.735-4.007.089-.073.188-.142.286-.208z" fill="#f79329"/></g></g><g fill="#f79329"><g><path d="M23.745 49.717c-.097 0-.199-.01-.3-.032l-8.219-1.614a1.552 1.552 0 0 1-1.225-1.82c.163-.837.996-1.396 1.82-1.219l8.217 1.619a1.545 1.545 0 0 1 1.224 1.814 1.546 1.546 0 0 1-1.517 1.252z"/><path d="M15.305 56.021a1.544 1.544 0 0 1-1.531-1.35 1.544 1.544 0 0 1 1.332-1.735l8.31-1.089c.829-.125 1.619.484 1.736 1.335a1.55 1.55 0 0 1-1.334 1.736l-8.311 1.088a1.208 1.208 0 0 1-.202.015z"/><path d="M17.748 63.021a1.548 1.548 0 0 1-1.489-1.127 1.54 1.54 0 0 1 1.065-1.907l8.055-2.299a1.548 1.548 0 1 1 .848 2.978l-8.055 2.298a1.661 1.661 0 0 1-.424.057z"/></g><g><path d="M91.705 55.705a1.55 1.55 0 0 1-.166-3.09l8.328-.931c.828-.07 1.615.521 1.707 1.368a1.541 1.541 0 0 1-1.367 1.712l-8.329.932c-.056.004-.117.009-.173.009z"/><path d="M99.593 62.698c-.106 0-.219-.014-.336-.037l-8.184-1.786a1.553 1.553 0 0 1-1.183-1.843 1.554 1.554 0 0 1 1.843-1.183l8.19 1.788a1.549 1.549 0 0 1-.33 3.061z"/><path d="M96.582 69.464c-.179 0-.365-.031-.55-.097l-7.835-2.964a1.55 1.55 0 0 1 1.094-2.9l7.84 2.96a1.56 1.56 0 0 1 .903 2.001c-.235.619-.828 1-1.452 1z"/></g></g><g fill="#fcd4b5"><path d="M35.997 12.519c-.733 1.902-2.196 7.365-1.278 11.265.274 1.158 1.749 1.684 2.801 1.183 2.191-1.053 5.606-2.904 6.892-3.542 2.178-1.074 2.931-2.397 1.754-4.034-1.498-2.075-5.244-6.388-7.445-6.812-1.267-.243-2.245.707-2.724 1.94z"/><path d="M87.597 17.781c.405 2.001.927 7.631-.628 11.326-.456 1.094-2.011 1.363-2.965.689-1.979-1.396-5.029-3.802-6.197-4.645-1.964-1.424-2.489-2.857-1.047-4.271 1.821-1.797 6.234-5.426 8.476-5.473 1.295-.017 2.101 1.086 2.361 2.374z"/></g></g></svg>