<svg xmlns="http://www.w3.org/2000/svg" viewBox="0 0 128 128"><g id="图层_1"><path d="M105.945 100.482c1.588 2.384 3.263 4.794 5.456 6.667 1.182 1.006 2.574 1.866 4.132 2.11 1.675.259 3.301-.301 4.658-1.275 1.202-.868 1.685-1.977 1.452-3.427-.594-3.712-2.217-7.139-3.682-10.565-1.415-3.304-2.453-6.722-3.676-10.097-.633-1.755-3.935.204-4.982.761a23.984 23.984 0 0 0-4.807 3.337c-.619.561-1.188 1.131-1.513 1.906-.239.591-.287 1.058-.324 1.677-.191 3.294 1.519 6.254 3.286 8.906z" fill="#2f2f2f"/><path d="M84.467 106.32c.349.854.74 1.674 1.174 2.438.639 1.122 1.592 1.868 2.851 2.178 3.007.739 6.677-1.283 7.058-4.497.421-3.544.744-7.483.068-11.013-.049-.262.057-.798-.116-1.009-.198-.245-.689-.004-.94.043-.654.122-1.27.267-1.905.452-.457.136-.934.216-1.396.35-.417.122-.829.236-1.256.322-.497.103-.97.301-1.462.433-.54.149-1.095.207-1.633.351-1.068.284-2.263.561-3.269 1.016-.572.262-.915.528-1.078 1.141-.164.606.091 1.316.205 1.914.358 1.922.921 3.979 1.699 5.881z" fill="#2f2f2f"/><path d="M61.517 111.557c.208 1.235.437 2.469.648 3.703.14.818.211 1.721.483 2.513 1.856 5.318 6.769 8.07 11.192 4.7 2.149-1.642 2.38-4.706 2.389-7.195.012-2.428.025-4.856-.038-7.282-.058-2.129.05-4.523-.466-6.598-.174-.695-.854-.951-1.494-.97-1.836-.051-3.683.035-5.507.194-1.419.125-2.835.511-4.228.788-1.126.225-2.265.706-3.177 1.4-1.198.907-.441 4.163-.296 5.404.131 1.119.304 2.234.494 3.343z" fill="#2f2f2f"/><path d="M22.711 98.568a260.634 260.634 0 0 1-2.459 6.089c-.768 1.844-2.455 5.256-1.514 7.298 2.17 4.699 8.131 3.531 11.345.734 1.737-1.51 3.061-3.424 4.311-5.354 1.95-3.003 3.992-6.314 3.542-10.029-.134-1.107-1.12-1.356-2.057-1.79-.441-.205-.808-.526-1.229-.766-.384-.221-.819-.34-1.23-.489-.396-.145-.755-.369-1.134-.549-.367-.171-.755-.256-1.135-.396-1.337-.503-2.813-1.206-4.253-1.206-.499 0-1.068-.101-1.51.162-.859.507-1.072 1.915-1.376 2.771a122.963 122.963 0 0 1-1.301 3.525z" fill="#2f2f2f"/><g><path d="M125.325 72.435c.936-3.028.627-6.563-.804-9.224-.797-1.481-1.824-2.718-3.074-3.679-.623-.475-1.263-.764-1.856-.974.523-1.168 1.138-2.822 1.147-4.686.016-2.847-1.073-5.747-3.053-8.161-1.402-1.712-2.891-2.537-4.558-3.37-.293-.149-.607-.276-.92-.408 0 0-.322-.132-.305-.178.569-2.133.867-3.799.916-5.252.132-3.201-1.279-6.506-3.969-9.307-3.428-3.564-8.428-5.866-12.751-5.866-.76 0-1.424.14-2.014.264l-.47.09c-.181-.276-.409-.68-.565-.953-.359-.647-.735-1.32-1.226-1.831-1.394-1.468-3.152-2.628-5.388-3.547-3.544-1.432-7.661-1.894-11.468-1.28-1.881.306-3.498 1.052-4.95 1.853C67.572 12.803 63.506 11 58.666 11c-2.603 0-5.132.544-7.306 1.572-.313.153-2.026.982-3.453 2.096-2.025-1.019-3.828-1.684-6.035-1.684-1.183 0-2.397.203-3.696.607-2.652.825-5.136 2.343-6.9 4.512a11.224 11.224 0 0 0-1.925 3.436c-.411 1.2-.416 3.597-1.498 4.302-1.339.873-2.89 1.304-4.195 2.298-.434.328-.9.446-1.331.749-.396.279-.72.736-1.096 1.064-.546.477-1.107.819-1.588 1.399-.949 1.149-1.792 2.149-2.414 3.525-1.107 2.461-1.423 5.154-1.816 7.778-.099.66.099 1.369.017 2.031-.084.698-.183 1.302-.183 2.028 0 2.086-.113 4.202.617 6.19.726 1.98-.81 2.775-1.547 4.507-.389.917-.608 1.896-.829 2.851-.293 1.278-.354 2.49-.354 3.829 0 1.473.731 2.704.918 4.121.192 1.45.829 2.641 1.664 3.862.214.313.508.652.813.998l.305.338-.037.071c-2.157 4.286-1.881 9.719.71 13.844 1.3 2.076 3.148 3.813 5.496 5.112.095.053.111 1.434.138 1.624a12.594 12.594 0 0 0 1.673 4.616c.56.939 1.241 1.803 2.015 2.576 1.554 1.556 4.19 2.813 6.256 3.467 1.758.555 3.676.536 5.376 1.291 2.057.914 3.841 2.322 5.873 3.278 1.089.512 2.221.937 3.372 1.279a25.277 25.277 0 0 0 7.191 1.048c2.469 0 4.955-.342 7.294-1.145 2.532-.866 5.202-2.422 7.302-4.074.215-.167.471-.414.713-.52.603-.258 1.721.402 2.314.579.945.283 1.919.47 2.9.59 5.438.666 11.336-.926 15.871-3.955.705-.47 1.377-1.239 2.202-1.498.962-.303 1.959.386 2.884.549 2.9.512 5.903.211 8.688-.712 3.498-1.157 5.474-3.993 6.861-7.223.264-.615 1.238-.815 1.774-1.079 2.013-.986 4.175-1.735 5.524-3.631 1.151-1.617 1.666-3.562 1.976-5.497.144-.883.251-1.772.222-2.667-.029-.886-.466-1.813-.466-2.653 0 0-.078-.223-.19-.557 2.153-1.111 3.767-3.132 4.559-5.687z" fill="#e0e0e0"/></g><path d="M21.121 54.769c.214-.637.388-1.287.524-1.948.505-2.475.448-5.18-.7-7.473-.823-1.646-1.594-3.374-3.345-4.193-.903-.425-1.937.249-1.724-1.149.111-.731.443-1.442.757-2.102.458-.953 1.021-1.813 1.622-2.683.904-1.303 1.753-2.309 3.046-3.225.405-.286 2.544-1.458 2.471-2.07-.068-.589-1.662-.328-2.106-.292a19.396 19.396 0 0 0-6.429 1.698c-4.869 2.25-8.878 6.633-10.98 11.541C2.149 47.807.798 53.811 3.202 58.892c2.513 5.31 10.193 6.316 14.171 2.125 1.577-1.663 3.019-4.073 3.748-6.248z" fill="#724941"/><path d="M20.04 40.086c-1.493-.969-3.306-1.111-4.994-.441-1.85.734-3.38 2.152-4.561 3.727-.586.778-1.113 1.607-1.518 2.496-.846 1.85-1.312 4.977.023 6.724 1.376 1.799 5.139-.481 3.443-1.982-.449-.394-1.136-.338-1.501-.852-.696-.974.2-2.793.676-3.667.722-1.329 1.82-2.441 3.208-3.072 1.26-.58 3.496-.59 4.682.311.769.584.951 2.127 2.122 1.405 1.584-.979.048-3.286-.877-4.113a5.336 5.336 0 0 0-.703-.536z" fill="#e0e0e0"/><path d="M95.182 47.757c-5.169-4.536-15.153-7.667-18.377.784-.433 1.135-.565 2.507-.435 3.707.105.992.838 1.685.999 2.626-.567.567-1.543.732-2.187 1.276-1.305 1.091-2.426 2.348-3.214 3.862a12.092 12.092 0 0 0-1.367 5.666c.015 1.331.01 2.519.473 3.794.365 1.015.631 2.157 1.205 3.07.524.833 1.021 1.615 1.675 2.364a12.465 12.465 0 0 0 4.07 3.058c.757.357 1.546.642 2.356.857 8.298 2.201 19.063-.815 21.551-9.926.648-2.372 1.106-5.565.725-8.016-.467-2.983-1.671-5.827-3.324-8.341a23.76 23.76 0 0 0-4.15-4.781z" fill="#724941"/><path d="M82.001 55.376c-1.826-.646-3.92-.332-5.685.358-.881.345-1.873.78-2.459 1.539-.691.887-1.578 1.633-2.137 2.604-.514.896-.852 1.884-1.298 2.814-.236.489-.476 1.646-1.046 1.809-.864.244-.965-1.351-.924-1.881.058-.833.064-1.679.264-2.492.188-.777.604-1.462.858-2.216 1.172-3.44 5.052-5.578 8.414-6.361 7.312-1.706 15.594 6.684 13.019 14.005-.402 1.137-1.268 2.063-2.263 2.715-1.913 1.26-6.021 2.083-6.974-.823-.334-1.017.25-2.57 1.562-2.368.685.101 1.048.724 1.82.677a2.165 2.165 0 0 0 1.67-1.009c.924-1.5.609-3.981-.198-5.466-.994-1.831-2.703-3.225-4.623-3.905z" fill="#e0e0e0"/><g><path d="M70.157 48.025c-.437-.901-1.105-1.358-2.124-.972-.796.301-1.357.955-2.083 1.37-.631.359-1.419.524-2.133.671-1.508.31-3.308.165-4.542-.84-.825-.678-1.51-1.423-1.786-2.551-.264-1.054-.155-3.368-1.791-2.866-.765.234-1.407 1.11-2.098 1.539-.66.413-1.51.648-2.269.722-1.551.156-3.21-.027-4.505-1.09-.912-.744-1.073-2.262-1.866-3.106-1.379-1.458-2.839.939-4.011 1.602-1.343.764-4.288 1.275-5.691.239-1.31-.969-1.563-3.834-3.633-1.798-1.014.99-1.569 2.187-2.261 3.434-.695 1.275-1.291 2.611-1.828 3.956-.664 1.662-.99 3.609-1.285 5.388-.639 3.764-2.401 7.292-2.29 11.114.363 12.156 11.644 19.497 21.786 19.256a46.045 46.045 0 0 0 11.596-1.813c6.51-1.929 11.706-7.936 13.133-15.135.648-3.245.503-6.644.398-10.039-.04-1.279.427-6.715-.717-9.081z" fill="#aa8165"/><path d="M32.158 59.95c-2.079-.607-3.236-3.144-2.564-5.683.681-2.518 2.913-4.095 4.996-3.484 2.077.588 3.228 3.139 2.541 5.665-.668 2.535-2.901 4.08-4.973 3.502z" fill="#2f2f2f"/><path d="M45.884 73.339c-.623.187-1.225.291-1.867.404-.237.043-.502.06-.751.091-.363.052-.794-.019-1.134.123-.474.192-.393 1.446-.403 1.833-.004.687.033 1.377.087 2.061.02.276.076.679-.06.934-.146.272-.406.226-.675.204-.647-.052-1.317-.119-1.771-.643-.739-.854-.427-2.241-.287-3.247.043-.309.097-.625.11-.939l.016-.441-.161-.524-.511-.424c-.98-.942-2.127-1.611-2.698-2.912-.353-.806-.545-2.389.726-2.434 1.467-.071 2.236 1.907 3.196 2.662 1.301 1.015 2.946 1.019 4.484.617.767-.199 1.413-.658 2.17-.891.276-.08.571-.163.835-.222.877-.198 1.419.266 1.464 1.141.085 1.444-1.615 2.271-2.77 2.607z" fill="#2f2f2f"/><path d="M55.279 64.082c-2.186-.365-3.657-2.801-3.282-5.45.378-2.642 2.453-4.507 4.636-4.146 2.174.344 3.651 2.791 3.263 5.439-.365 2.651-2.445 4.497-4.617 4.157z" fill="#2f2f2f"/></g></g></svg>