<svg xmlns="http://www.w3.org/2000/svg" xmlns:xlink="http://www.w3.org/1999/xlink" viewBox="0 0 128 128"><g id="图层_1"><g/><g/><g fill="#c0ca33"/><g fill="#c0ca33"/><g fill="none" stroke="#424242" stroke-width="5" stroke-linecap="round" stroke-miterlimit="10"><path d="M201.697 1.333s4.79 4.167 6.79 11.667"/><path d="M230.388 1.333S225.598 5.5 223.598 13"/></g><g fill="none" stroke="#424242" stroke-width="6" stroke-linecap="round" stroke-linejoin="round" stroke-miterlimit="10"><g><path d="M256.863 59.167s10 3.833 16 13.333"/><path d="M251.696 81.833s10.667 5.667 13.167 19.5"/></g><g><path d="M175.222 59.167s-10 3.833-16 13.333"/><path d="M180.388 81.833s-10.667 5.667-13.167 19.5"/></g></g><g fill="#fff"/><g><g fill="none" stroke="#424242" stroke-width="6" stroke-linecap="round" stroke-linejoin="round" stroke-miterlimit="10"><g><path d="M417.336 59.167s10 3.833 16 13.333"/><path d="M412.169 81.833s10.667 5.667 13.167 19.5"/></g><g><path d="M335.695 59.167s-10 3.833-16 13.333"/><path d="M340.861 81.833s-10.667 5.667-13.167 19.5"/></g></g><g><defs/><use xlink:href="#SVGID_1_" overflow="visible" fill="#ed6c30"/><clipPath id="SVGID_2_"><use xlink:href="#SVGID_1_" overflow="visible"/></clipPath><g clip-path="url(#SVGID_2_)" fill="#424242"><g/><g/></g><path d="M376.515 14.333V114" clip-path="url(#SVGID_2_)" fill="none" stroke="#424242" stroke-width="5" stroke-linecap="round" stroke-linejoin="round" stroke-miterlimit="10"/><g clip-path="url(#SVGID_2_)" fill="#424242"/></g><g fill="none" stroke="#424242" stroke-width="5" stroke-linecap="round" stroke-miterlimit="10"><path d="M362.17 1.333S366.96 5.5 368.96 13"/><path d="M390.861 1.333S386.071 5.5 384.071 13"/></g><g fill="#fff"/></g><g><g><g><g><path d="M72.386 26.745a2.967 2.967 0 0 1-4.152-3.872c1.038-2.131 2.426-6.167 2.191-8.791-1.574-1.411-5.656-4.907-10.629-7.93a2.966 2.966 0 0 1-.994-4.077 2.963 2.963 0 0 1 4.076-.994C69.819 5.3 75 10.217 75.218 10.425c.4.382.685.868.824 1.404 1.414 5.471-2.075 12.831-2.478 13.653a2.961 2.961 0 0 1-1.178 1.263z" fill="#424242"/></g><g><path d="M116.109 50.001a2.965 2.965 0 0 1-2.867.058c-8.796-4.623-18.366-3.218-18.462-3.203a2.97 2.97 0 0 1-3.387-2.474 2.963 2.963 0 0 1 2.462-3.388c.468-.075 11.558-1.754 22.147 3.812a2.966 2.966 0 0 1 .107 5.195z" fill="#424242"/></g><g><path d="M123.512 78.663a2.968 2.968 0 0 1-3.746-.656c-7.961-9.406-18.449-9.148-18.554-9.144a2.968 2.968 0 0 1-.21-5.932c.546-.02 13.493-.34 23.294 11.241a2.967 2.967 0 0 1-.784 4.491z" fill="#424242"/></g></g><g><g><path d="M20.474 56.716a2.961 2.961 0 0 1-1.683.389c-.913-.062-9.031-.72-13.063-4.679a2.968 2.968 0 0 1-.804-1.416c-.071-.293-1.738-7.238-1.922-15.359a2.964 2.964 0 0 1 2.899-3.033 2.964 2.964 0 0 1 3.033 2.899c.132 5.817 1.118 11.099 1.553 13.169 2.255 1.582 6.709 2.363 8.706 2.498a2.967 2.967 0 0 1 1.281 5.532z" fill="#424242"/></g><g><path d="M18.752 106.21a2.966 2.966 0 0 1-4.446-2.689c.475-11.954 7.474-20.719 7.772-21.086a2.968 2.968 0 0 1 4.614 3.732c-.06.075-6.062 7.661-6.457 17.59a2.962 2.962 0 0 1-1.483 2.453z" fill="#424242"/></g><g><path d="M39.872 126.952a2.967 2.967 0 0 1-4.28-1.565c-5.129-14.279 1.622-25.331 1.912-25.794a2.967 2.967 0 1 1 5.038 3.138c-.24.393-5.482 9.183-1.364 20.65a2.969 2.969 0 0 1-1.306 3.571z" fill="#424242"/></g></g></g><g><defs><path id="SVGID_3_" d="M99.297 44.602c13.096 22.682 6.516 50.998-14.695 63.244s-49.023 3.787-62.119-18.896-4.456-47.428 16.756-59.675 46.962-7.355 60.058 15.327z"/></defs><use xlink:href="#SVGID_3_" overflow="visible" fill="#ed6c30"/><clipPath id="SVGID_4_"><use xlink:href="#SVGID_3_" overflow="visible"/></clipPath><g clip-path="url(#SVGID_4_)"><ellipse transform="rotate(-30 58.3 62.627)" cx="58.303" cy="62.625" rx="14.508" ry="12.035" fill="#424242"/></g><g clip-path="url(#SVGID_4_)"><g><g><ellipse transform="scale(-1) rotate(84.013 78.563 -25.927)" cx="23.354" cy="70.76" rx="13.69" ry="11.356" fill="#424242"/></g><g><ellipse transform="rotate(22.595 48.614 105.292)" cx="48.613" cy="105.292" rx="12.139" ry="10.07" fill="#424242"/></g></g><g><g/><g><ellipse transform="scale(-1) rotate(-82.594 -85.834 114.271)" cx="100.384" cy="75.402" rx="12.139" ry="10.07" fill="#424242"/></g></g></g><g clip-path="url(#SVGID_4_)"><path d="M87.709 113.228a2.472 2.472 0 0 1-3.378-.905l-49.294-85.38a2.472 2.472 0 1 1 4.283-2.473l49.294 85.38a2.472 2.472 0 0 1-.905 3.378z" fill="#424242"/></g><g clip-path="url(#SVGID_4_)"><g><ellipse transform="rotate(-15.45 55.36 86.464)" cx="55.367" cy="86.474" rx="5.704" ry="4.504" fill="#424242"/></g><g><ellipse transform="rotate(135.447 80.422 72.009)" cx="80.424" cy="72.007" rx="5.704" ry="4.504" fill="#424242"/></g></g></g><g><path d="M67.408 21.906c3.658 6.335-5.863 14.99-19.293 22.744S22.43 56.322 18.772 49.987s2.667-20.524 16.098-28.278 28.881-6.138 32.538.197z" fill="#424242"/></g><g><g><path d="M31.282 30.444a2.475 2.475 0 0 1-2.986-.396c-4.775-4.788-10.263-5.945-10.318-5.957a2.477 2.477 0 0 1-1.939-2.906 2.47 2.47 0 0 1 2.893-1.947c.282.055 6.976 1.412 12.866 7.316a2.474 2.474 0 0 1-.516 3.89z" fill="#424242"/></g><g><path d="M44.229 22.969a2.474 2.474 0 0 1-3.627-1.499c-2.167-8.053.004-14.528.097-14.8a2.473 2.473 0 0 1 4.679 1.602c-.037.113-1.747 5.42.001 11.912a2.477 2.477 0 0 1-1.15 2.785z" fill="#424242"/></g></g><g><g><ellipse transform="rotate(-24.884 30.224 38.847)" cx="30.224" cy="38.848" rx="4.215" ry="5.132" fill="#fff"/></g><g/></g></g></g></svg>