<svg id="レイヤー_1" xmlns="http://www.w3.org/2000/svg" xmlns:xlink="http://www.w3.org/1999/xlink" viewBox="0 0 128 128"><g><g><g><path d="M127.463 74.162c-.517-1.824-1.491-3.315-2.368-4.679-.561-.855-1.184-1.829-1.526-2.776-.377-1.083-.886-2.026-1.377-2.938-.455-.846-.886-1.644-1.096-2.376-.395-1.312-.158-2.938.096-4.662.079-.509.15-1.013.211-1.508a47.076 47.076 0 0 1 1.114-5.947c.069-.241.176-.61.315-1.065 1.604-5.197 2.087-7.819.754-9.617a3.27 3.27 0 0 0-2.657-1.333c-1.518 0-2.833 1.009-3.806 1.886-.868.776-1.526 1.684-2.105 2.482l-.465.64a317.994 317.994 0 0 1-2.851 3.715c-1.271 1.653-2.547 3.306-3.807 5.003-.298.391-.596.864-.938 1.364-.501.781-1.693 2.6-2.325 2.754-.377 0-1.122-.36-1.719-.649l-.446-.21c-3.447-1.64-7.185-3.381-11.056-4.991-.908-1.868-2.312-3.552-3.312-5.354-1.288-2.342-2.552-6.722-5.929-5.959-2.455.556-4.962 3.591-6.736 5.24-.236.219-.456.421-.648.614-7.376-2.008-14.752-3.583-22.33-3.991-.579-1.811-.505-3.929-.324-5.872.21-2.263.772-5.254-2.549-4.249-2.17.653-4.091 2.547-5.871 3.903-2.78 2.123-5.104 4.631-7.328 7.311-2.337.46-4.626 1.03-6.828 1.758-7.778 2.583-14.584 6.793-20.225 12.529a52.812 52.812 0 0 0-4.577 5.363 44.282 44.282 0 0 0-2.106 3.047l-.428.652c-.569.86-1.21 1.833-1.641 3.101-.859 2.539.72 4.236 1.474 5.056l.443.403c.013.233 0 .404-.014.553-.043.917-.018 1.855.903 3.28 2.851 4.368 7.842 7.082 11.49 9.064l.735.408c4.045 2.206 8.376 3.894 13.253 5.165a98.008 98.008 0 0 0 7.964 1.719 25.958 25.958 0 0 0 1.755 1.259c3.043 2.043 6.929 4.263 10.709 4.263 2.924 0 .622-2.925-.19-4.004-.073-.092-.131-.192-.205-.289.965.035 1.947.105 2.885.105 2.281 0 4.526-.101 6.711-.294 6.244-.553 12.734-2.145 19.294-4.723.17-.066.329-.14.491-.211.264.044.519.079.693.11 2.229.398 4.517 1.311 6.807 1.153 3.185-.228 3.236-1.819 4.314-4.354.509-1.158.824-2.364 1.298-3.521l.197-.461c2.925-1.93 5.863-4.113 8.854-6.578 1.01-.816 2.097-1.548 3.264-2.32 1.175-.785 2.395-1.596 3.762-2.601 1.123 0 3.21 1.526 4.21 2.258l1.132.82c1.99 1.447 4.052 2.947 6.367 4.144 1.048.539 3.052 1.451 4.736 1.451 1.72 0 2.64-.885 3.035-1.412.517-.674 1.017-1.849.517-3.629z" fill="#006ca2"/></g></g><g><defs><path id="SVGID_1_" d="M100.669 68.58c-1.228.812-2.482 1.653-3.697 2.648-7.292 5.995-14.222 10.249-21.186 12.994-6.072 2.39-12.054 3.859-17.782 4.363-3.727.338-7.669.359-11.722.079-4.635-.329-9.384-1.092-14.155-2.232a26.555 26.555 0 0 0 1.494-4.188c.462-1.714.624-3.942.462-5.885.71.241 1.403.46 2.114.724 2.244.833 4.516 1.368 6.792 1.386 1.697.004 2.921-1.597 4.25-3.122 1.447-1.671 2.981-3.307 3.279-6.727.075-.812.351-1.943-.018-2.526-.43-.71-1.412-.592-1.946-.741-.72-.175-1.422-.263-2.122-.351-2.035-.258-3.938-.114-5.946.333-2.281.491-4.609 1.158-6.824 2.254-.289.14-.567.32-.859.491-.439-1.899-1.158-3.754-1.842-5.574-.531-1.421-.878-2.851-2.132-3.85-.667-.536-2.377-1.026-2.7.136-.132.491.174 1.201.534 1.873.29.535.596 1.048.728 1.417.922 2.679 1.352 5.499 1.771 8.284.509 3.307.641 6.1.412 9.459-.114 1.587-.552 3.118-1.087 4.46a10.22 10.22 0 0 1-.509 1.048c-3.517-1.065-6.726-2.377-9.734-4.021l-.755-.413c-3.263-1.771-7.315-3.978-9.542-7.293.017-.259.03-.574.013-.96.715-1.052 2.513-.658 3.477-.32 1.245.438 2.439 1.276 3.762 1.158 1.273-.11 1.737-1.395 1.053-2.412-.658-.996-2.274-1.469-3.297-1.982-1.176-.592-2.579-.851-3.851-1.215-.798-.228-1.641-.325-2.482-.342.062-.092.097-.171.162-.263.172-.263.347-.521.505-.776.579-.93 1.219-1.82 1.85-2.684a47.492 47.492 0 0 1 4.105-4.797 43.928 43.928 0 0 1 3.754-3.403c.859-.636 2.974-1.829 6.131-1.241 3.35.627 5.333 2.237 11.234 1.311 5.912-.929 6.604-3.701 12.357-3.701 5.758 0 7.78 4.503 14.827 4.837 6.275.293 6.854-3.452 12.88-2.552 6.027.895 6.605 6.696 14.726 6.696 8.13 0 9.28-2.899 17.777 3.293a6.994 6.994 0 0 1-.18.868c-1.083.131-2.082.53-2.925 1.214-.972.789-2.034 1.495-3.156 2.245z"/></defs><use xlink:href="#SVGID_1_" overflow="visible" fill="#40c0e7"/><clipPath id="SVGID_2_"><use xlink:href="#SVGID_1_" overflow="visible"/></clipPath><path d="M5.324 69.546s18.874 6.142 52.196 5.442c28.203-.592 54.296-13.131 54.296-13.131l-.93 5.126-5.341 1.48S83.68 90.703 58.253 91.31c-9.068.215-22.207-.796-30.328-3.354-14.664-4.623-21.82-12.244-21.82-12.244l-.781-6.166z" clip-path="url(#SVGID_2_)" fill="#fff"/></g><path d="M17.296 60.962c-1.851.101-3.298 1.881-3.201 3.951.097 2.079 1.685 3.667 3.534 3.566 1.868-.105 3.315-1.873 3.224-3.952-.11-2.069-1.698-3.674-3.557-3.565z" fill="#2f2f2f"/></g></svg>