<svg xmlns="http://www.w3.org/2000/svg" viewBox="0 0 128 128"><g id="图层_1"><g><path d="M61.229 108.528a42.914 42.914 0 0 1-.275 5.942c-.141 1.262-.15 2.646-.697 3.813-.555 1.173-1.611 1.892-2.787 2.336-.926.35-2.102.239-2.795 1.013-2.992 3.322.271 6.448 3.934 5.793 3.182-.565 6.307-2.264 7.859-5.25 1.943-3.737 2.607-10.653 1.447-14.765-.279-1.005-1.691-.99-2.635-.952-1.033.046-2.057-.211-3.092-.053-.561.09-.736.389-.861.912-.094.384-.103.794-.098 1.211z" fill="#fcc21b"/><path d="M72.962 109.991c1.307 3.706 3.531 7.522 1.121 11.227-.879 1.346-1.365 2.402-1.328 4.032.029 1.532 1.221 2.558 2.744 2.569 4.609.037 6.732-6.266 6.414-9.881-.352-3.969-2.037-7.649-2.678-11.555-.098-.625-.041-1.177-.686-1.317-.598-.131-1.721.403-2.291.569-.58.163-1.236.261-1.83.449-.42.137-1.42.429-1.738.756-.738.749-.113 2.141.197 2.943.018.068.046.141.075.208z" fill="#fcc21b"/><path d="M63.794 26.373c-3.252-3.869-7.662-6.536-14.418-6.901-4.402-.236-7.885.927-11.4 3.706-3.943 3.105-6.746 8.637-8.139 13.387-5.074 17.192-8.236 43.188 4.793 57.928 10.418 11.8 29.352 13.238 43.938 11.172 5.195-.738 10.326-2.102 15.082-4.35 3.812-1.804 7.166-3.743 9.904-6.988.982-1.155 1.926-2.381 2.611-3.734.654-1.28 1.557-2.373 2.094-3.715.285-.706.168-1.271.258-1.981.092-.723.289-1.48.551-2.19.41-1.073 1.402-2.054 1.672-3.163.244-.977.02-2.274.029-3.283 0-.541-.066-1.001-.154-1.528-.08-.397-.238-.8-.303-1.193-.338-2.012 1.213-3.624 1.836-5.39.453-1.267.598-2.533.564-3.885-.027-1.097-.627-2.068-.869-3.143-.41-1.804-.863-3.438-.363-5.229.293-1.088 1.117-1.743 1.68-2.687.58-.958.59-1.725.598-2.812.008-1.745-1.672-3.338-3.111-4.111-1.932-1.044-4.371-.839-6.494-.524-3.186.476-5.961 2.126-8.803 3.537-3.193 1.588-6.26 2.41-9.848 2.41-2.299 0-4.139-.405-6.252-1.344-1.008-.449-1.719-.941-2.527-1.65-.801-.696-1.676-1.111-2.172-2.08-3.448-6.836-5.743-14.306-10.757-20.259z" fill="#e0e0e0"/><path d="M67.546 108.953c-10.715 0-25.44-2.224-34.791-12.802-16.074-18.184-8.141-50.748-5.318-60.299 1.807-6.158 5.17-11.634 8.982-14.643 4.043-3.181 8.137-4.476 13.092-4.241 6.799.363 12.096 2.916 16.199 7.792 2.293 2.724 4.271 5.939 6.391 10.424.758 1.589 1.459 3.191 2.168 4.794l.264.598c.395.884.783 1.763 1.186 2.641 1.803 3.941 6.354 6.695 11.064 6.695 1.85 0 4.531-.436 6.793-2.501 3.26-2.984 8.025-4.28 11.391-4.493 2.887-.185 5.289.177 7.326 1.336 2.578 1.448 3.475 3.373 3.773 4.737.566 2.521-.307 5.359-2.662 8.652-.057.085-.121.163-.186.243.129.225.26.439.363.653 1.662 3.459 1.949 6.564.879 9.491-.281.778-.721 1.442-1.113 2.03-.232.356-.588.888-.635 1.104.328 1.08.553 2.256.561 3.812.01 1.474-.561 2.637-.971 3.486-.197.397-.217.524-.234 1.093-.16 4.552-2.205 9.836-5.617 14.494-2.924 3.984-6.979 7.278-11.734 9.531-4.664 2.205-9.98 3.737-15.799 4.56-3.808.543-7.63.813-11.372.813zM48.282 21.948c-3.299 0-5.914.953-8.752 3.196-3.578 2.813-6.106 8.112-7.289 12.128-2.637 8.925-10.104 39.303 4.268 55.563 8.115 9.18 21.352 11.109 31.037 11.109 3.508 0 7.098-.257 10.666-.767 5.326-.747 10.158-2.14 14.363-4.131 4.01-1.892 7.408-4.644 9.84-7.959 2.826-3.865 4.521-8.131 4.643-11.701.039-1.079.166-1.934.734-3.11.225-.449.467-.963.467-1.271-.006-.917-.107-1.645-.406-2.785-.551-2.107.574-3.803 1.326-4.934.234-.351.496-.752.574-.971.602-1.637.389-3.365-.689-5.598-.07-.15-.164-.295-.258-.449-.242-.388-.541-.869-.736-1.438-.721-1.981.604-3.394 1.102-3.925l.168-.188c1.904-2.661 1.971-4.054 1.842-4.643-.047-.197-.172-.805-1.346-1.459-1.18-.668-2.664-.822-4.551-.7-3.164.205-6.436 1.458-8.336 3.197-2.682 2.455-6.303 3.813-10.166 3.813-6.711 0-12.99-3.871-15.623-9.626-.412-.898-.805-1.796-1.207-2.701l-.266-.599a198.741 198.741 0 0 0-2.107-4.671c-1.934-4.079-3.691-6.962-5.701-9.345-3.209-3.812-7.223-5.718-12.631-6.009a18.554 18.554 0 0 0-.966-.026z" fill="#e0e0e0"/><path d="M47.058 17.315c.348-.011.752-.043.922-.254.789-.944-2.758-3.054-3.443-3.363-.99-.443-2-.219-2.99 0-.85.188-1.664.586-2.551.485-.85-.098-1.58-.579-2.533-.601-.85-.021-1.906.4-2.615.825-.857.514-1.408 1.388-2.277 1.898-.684.401-1.523.556-2.225.953-2.85 1.599-3.777 4.574-3.797 7.686-.01 1.182.525 2.547.982 3.622.562 1.34-.281 1.803-.598 3.049-.432 1.675-.814 3.527-.768 5.263.037 1.414.262 2.989-.164 4.368-.555 1.775-1.986 1.316-3.115 2.4-.244.235-.391.439-.729.561-.971.379-1.365.327-1.506 1.402-.111.935.42 2.682.51 3.706.08.873.402 1.645.867 2.388 2.717 4.441 9.58 2.905 11.379-1.487.27-.658.504-.963.607-1.649.102-.739.289-1.527.793-2.056 1.121-1.177 3.649-1.158 5.115-1.434 1.932-.36 3.352-1.206 4.631-2.716 2.572-3.04 3.299-6.892 2.076-10.694-.467-1.456-1.289-2.551-2.393-3.578-1.094-1.023-2.664-2.016-4.182-2.172-.953-.098-3.041.625-3.799.116-2.023-1.342.709-4.425 1.822-5.177 2.145-1.468 5.098-2.523 7.605-3.205.619-.169 1.301-.29 1.939-.333.12-.003.271-.003.437-.003z" fill="#ed6c30"/><path d="M41.126 35.114c0 2.084-1.393 3.766-3.121 3.766-1.721 0-3.121-1.682-3.121-3.766 0-2.082 1.4-3.765 3.121-3.765 1.728.001 3.121 1.683 3.121 3.765z" fill="#e0e0e0"/><g><path d="M25.718 32.656c-4.934.963-12.738 4.7-11.418 7.725.908 2.099 3.945 2.369 5.801 3.245 1.682.805 6.205 2.838 7.988 1.642 1.889-1.266 2.131-3.695 1.916-5.774-.111-1.062.133-6.448-1.035-6.902-.666-.262-1.832-.216-3.252.064z" fill="#fcc21b"/><path d="M26.595 48.029c-1.883 0-4.41-.759-7.521-2.242-.439-.205-.953-.365-1.486-.538-1.859-.598-4.393-1.42-5.481-3.916-.517-1.2-.443-2.546.211-3.803 1.889-3.604 8.711-6.392 12.941-7.224 2.004-.392 3.486-.377 4.588.056 2.232.869 2.447 3.668 2.51 7.847.008.461.008.83.031 1.035.486 4.655-1.346 6.925-2.961 8.009-.768.515-1.719.776-2.832.776zm-9.971-8.42c.416.438 1.57.809 2.43 1.088.748.237 1.459.481 2.068.771 4.641 2.214 5.762 1.752 5.758 1.748.836-.58.883-2.216.752-3.478a21.567 21.567 0 0 1-.061-1.448c-.004-.672-.033-2.391-.184-3.461-.295.022-.695.07-1.213.172-4.343.852-8.775 3.356-9.55 4.608z" fill="#ed6c30"/></g><path d="M85.403 54.568c2.388.823 5.703 1.388 7.535 1.37 1.121-.014 4.206.23 4.972 1.145.889 1.057.395 2.61-.299 3.594-.4.57-1.037 1.126-1.615 1.538-.383.275-1.15.421-.785.976.303.449 1.195.359 1.648.481.539.141 1.062.116 1.463.626 1.664 2.111-.734 5.538-2.924 6.121-.131.504-.289.561.111.915.238.206.682.276.936.373 1.158.441 1.195 1.612.734 2.632-.52 1.145-1.633 1.929-2.709 2.486-.352.176-1.355.519-1.539.854-.338.607.773.569 1.135.896 1.162 1.098-.006 2.63-.943 3.331-4.902 3.667-12.209 3.594-17.926 2.326-6.156-1.358-12.033-4.574-16.252-9.297a27.352 27.352 0 0 1-1.818-2.299c-.807-1.163-1.732-1.149-1.711.431.025 2.218 2.371 4.966 3.697 6.629 2.178 2.737 4.926 5.046 8.064 6.615.523.263 1.061.506 1.607.72 6.494 2.6 13.904 3.433 20.736 1.725 3.008-.752 8.619-3.21 9.137-6.85.074-.547-.115-1.009.178-1.49.318-.533 1.018-.79 1.467-1.196 1.805-1.617 3.252-4.331 2.135-6.733-.33-.7-.648-.854-.232-1.522 1.547-2.471 3.111-4.737 2.285-7.745-.168-.619-.58-1.192-1.016-1.688-.152-.179-.549-.313-.639-.43-.439-.575.111-1.3.234-1.873.449-2.098.027-4.511-1.529-6.069-1.986-1.995-3.89-.391-7.63-.44-4.857-.063-12.281-1.419-13.55-1.124-1.453.338.87 1.534 5.043 2.972z" fill="#b0bec5"/></g></g></svg>