<svg id="レイヤー_1" xmlns="http://www.w3.org/2000/svg" xmlns:xlink="http://www.w3.org/1999/xlink" viewBox="0 0 128 128"><g><path d="M80.597 79.054c5.38-5.8 13.521-8.149 21.309-7.317 20.729 2.218 26.059 17.154 25.505 25.708-.159 2.439-2.12 6.597-10.807 10.466-5.05 2.25-12.856 3.352-21.799 1.502-7.262-1.506-15.313-6.837-17.868-14.5-1.802-5.397-.143-11.764 3.66-15.859z" fill="#006ca2"/><g><g><g fill="#006ca2"><path d="M39.31 44.478c-.828 0-1.647-.36-2.209-1.058L21.72 24.304 5.335 39.831a2.833 2.833 0 1 1-3.896-4.112l18.616-17.642c.571-.542 1.367-.835 2.135-.771a2.843 2.843 0 0 1 2.019 1.052l17.312 21.511a2.836 2.836 0 0 1-2.211 4.609z"/><path d="M46.897 40.104a2.832 2.832 0 0 1-2.709-2.002l-8.048-26.18-25.067.855c-.039.002-.066.002-.097.002a2.83 2.83 0 0 1-2.833-2.736 2.832 2.832 0 0 1 2.73-2.929l27.241-.93c1.465-.082 2.434.775 2.807 1.999l8.687 28.255a2.83 2.83 0 0 1-1.882 3.539 2.764 2.764 0 0 1-.829.127z"/><path d="M37.769 108.047a2.831 2.831 0 0 1-1.823-5l12.28-10.342 10.728-17.042a2.833 2.833 0 0 1 3.909-.888 2.832 2.832 0 0 1 .89 3.907L52.781 96.099a2.647 2.647 0 0 1-.57.658l-12.618 10.624a2.83 2.83 0 0 1-1.824.666z"/><path d="M58.971 117.62a2.831 2.831 0 0 1-2.603-3.952l6.625-15.417-.21-18.156a2.834 2.834 0 0 1 2.803-2.865h.031a2.835 2.835 0 0 1 2.829 2.801l.217 18.756c.004.395-.076.785-.235 1.148l-6.853 15.969a2.833 2.833 0 0 1-2.604 1.716z"/><path d="M76.13 121.82a2.831 2.831 0 0 1-2.833-2.833v-17.416L68.949 81.43a2.843 2.843 0 0 1 2.178-3.366 2.822 2.822 0 0 1 3.369 2.171l4.405 20.437c.035.197.062.396.062.598v17.718a2.833 2.833 0 0 1-2.833 2.832z"/><path d="M71.832 71.719a2.837 2.837 0 0 1-2.519-4.124l7.168-13.998-.674-13.081a2.83 2.83 0 0 1 2.684-2.975c1.425-.062 2.899 1.115 2.97 2.684l.719 13.839c.025.498-.08.994-.311 1.437L74.36 70.178a2.842 2.842 0 0 1-2.528 1.541z"/><path d="M76.582 74.826a2.84 2.84 0 0 1-1.7-.564 2.836 2.836 0 0 1-.566-3.967L82.12 59.86c.111-.148.234-.285.367-.41l6.526-5.861c1.15-1.047 2.939-.954 3.998.212a2.833 2.833 0 0 1-.217 4.003l-6.305 5.674-7.64 10.212a2.827 2.827 0 0 1-2.267 1.136z"/><path d="M81.624 78.222a2.834 2.834 0 0 1-1.793-5.027l10.55-8.624a2.802 2.802 0 0 1 1.488-.622l14.361-1.566c1.519-.211 2.949.953 3.121 2.508a2.827 2.827 0 0 1-2.515 3.123L93.315 69.49l-9.899 8.094a2.842 2.842 0 0 1-1.792.638z"/></g><path d="M58.452 74.405c-1.381 4.291-.163 9.532 2.824 12.817 3.929 4.299 11.653 4.236 16.151 1.27 4.196-2.775 6.737-7.937 5.857-12.967-.438-2.475-1.926-5.543-3.799-7.27-.078-.074-.172-.146-.252-.217-5.795-5.042-13.9-2.09-18.713 2.799-.925.938-1.624 2.205-2.068 3.568z" fill="#006ca2"/><g><defs><path id="SVGID_1_" d="M84.165 80.692c4.503-4.87 11.352-6.841 17.883-6.141 17.402 1.859 21.879 14.401 21.409 21.578-.133 2.049-1.784 5.538-9.076 8.788-4.236 1.886-10.78 2.811-18.293 1.257-6.1-1.262-12.856-5.738-15.009-12.17-1.509-4.527-.115-9.872 3.086-13.312z"/></defs><use xlink:href="#SVGID_1_" overflow="visible" fill="#006ca2"/><clipPath id="SVGID_2_"><use xlink:href="#SVGID_1_" overflow="visible"/></clipPath><g clip-path="url(#SVGID_2_)"><path d="M90 78.771c.049.111.16.221.324.332.689.451 1.58.324 2.371.408 1.338.145 2.667.354 3.99.623a49.98 49.98 0 0 1 10.731 3.476 50.989 50.989 0 0 1 6.946 3.812 47.113 47.113 0 0 1 3.28 2.307c1.067.814 1.835 1.859 3.096 2.408 2.022.876 1.504-1.51 1.142-2.607a22.396 22.396 0 0 0-1.288-3.068 21.229 21.229 0 0 0-6.034-7.229c-2.488-1.895-5.379-3.21-8.404-4.002a21.718 21.718 0 0 0-8.03-.541c-1.606.19-3.258.443-4.764 1.045-.77.309-3.94 1.823-3.36 3.036z" fill="#40c0e7"/></g></g><path d="M70.498 44.239c-3.359-5.455-9.239-9.758-15.473-11.051-5.037-1.045-10.727.093-15.508 2.683-4.795 2.563-8.881 6.681-10.793 11.458-2.692 6.786-1.829 15.871 2.244 22.409 1.74-1.11 3.516-2.203 4.974-3.678 1.043-1.054 2.406-1.576 3.535-.274.722.832.926 2.147.522 3.169-.851 2.152-2.674 4.229-4.861 5.565a16.37 16.37 0 0 0 2.759 1.838c4.586 2.355 9.644 2.824 14.735 1.54 1.291-.327 4.62-1.253 7.728-2.927 3.108-1.664 6.004-4.085 7-4.993 8-7.309 8.443-17.102 3.138-25.739z" fill="#006ca2"/></g><g><g><g><path d="M35.392 56.661c.064 2.723 1.948 4.834 4.184 4.756 2.248-.111 4.033-2.4 3.967-5.127-.07-2.719-1.943-4.853-4.206-4.741-2.236.092-4.025 2.394-3.945 5.112z" fill="#2f2f2f"/></g></g></g></g></g></svg>