<svg id="レイヤー_1" xmlns="http://www.w3.org/2000/svg" viewBox="0 0 128 128"><g><g><path d="M97.646 77.252s5.115-5.041 9.143-7.635l-1.301-22.834-16.865 5.189 1.297 22.705 7.726 2.575z" fill="#2f2f2f"/><g><g><path d="M49.365 91.481c-.869.964-2.484 1.585-4.107 1.585-.055 0-.1-.016-.152-.016-.916-.017-1.75-.254-2.439-.67a3.99 3.99 0 0 1-.908-.712c-5.215-7.376-2.377-15.945-2.254-16.306a1.07 1.07 0 0 1 .945-.72c.449-.032.842.213 1.025.606 2.182 4.586 4.898 6.524 6.883 7.939.812.58 1.508 1.07 2.002 1.643 1.835 2.129.083 5.456-.995 6.651z" fill="#fff"/><g><path d="M27.07 83.859c-2.256 1.864-5.064 2.257-7.027 2.257-2.309 0-4.734-.516-7.006-1.488a16.888 16.888 0 0 1-2.957-1.619c-3.186-2.191-6.051-6.402-3.656-11.063 1.34-2.601 3.787-3.917 7.279-3.917 5.461 0 11.389 3.223 13.961 6.329 2.352 2.854 2.078 7.294-.594 9.501z" fill="#fcd4b5"/><g fill="#855c52"><path d="M126.791 62.026c-1.457-1.75-3.402-3.181-5.352-4.342-2.189-1.293-4.016-.482-6.188-1.259-2.387-.858-1.973-6.582-2.121-8.561-.359-4.816-1.771-8.773-4.199-11.897 1.717-1.146 3.631-2.429 4.66-4.212.621-1.079 1.043-2.167 1.043-3.417.004-1.048-.135-2.527-1.475-2.225-1.914.434-3.021 2.38-4.695 3.28-1.762.947-3.887 1.152-5.842.846-.453-.069-.986-.232-1.551-.421-.924-.302-1.936-.638-2.861-.711-.352-.099-.662-.238-1.025-.335-13.91-3.573-31.654-12.265-45.832-5.806-3.602 1.643-6.881 3.925-9.816 6.566-.533.475-1.039.973-1.539 1.464-.326-.613-.709-1.228-1.205-1.775-.924-1.014-2.102-1.791-3.395-1.889-2.746-.213-5.148 1.243-4.617 4.253.461 2.621 1.92 4.636 3.094 6.877-1.627 2.388-3.119 4.881-4.555 7.441-3.299 5.888-6.824 12.029-12.609 15.823-1.01.662-1.82.72-3.008.997-.438.106-.855.213-1.269.318-4.768.352-8.473 2.642-10.506 6.6-3.16 6.141-1.033 13.189 5.281 17.54a22.107 22.107 0 0 0 3.832 2.094c.266.114.547.204.816.302 2.326 1.219 4.828 2.159 7.307 2.902 2.438.729 4.918 1.341 7.416 1.901-.389.961-.629 1.958-1.103 2.883-1.701 3.353-2.844 6.836-4.326 10.083-.492 1.079-.902 2.157.283 3.132.883.719 2.195 1.185 3.332 1.43 3.266.688 6.885 1.071 9.984 0 4.121-1.43 4.615-4.193 6.293-7.478.619-1.223 1.359-2.384 1.676-3.725.273-1.178.729-2.354 1.182-3.532 3.154.343 6.311.687 9.488.858 1.701.09 5.836.106 6.035 2.429.197 2.314-.805 4.407-1.035 6.664-.244 2.404-1.381 4.661-1.895 7.023-.492 2.226-1.658 4.343.832 5.725 1.787.98 4.346.867 6.316.884 3.414.032 8.896-.078 10.514-3.876 3.203-7.532 2.465-16.657 7.652-23.374a27.436 27.436 0 0 1 2.596-2.907c1.137-1.146 2.02-2.543 3.287-3.55 1.193-.956 2.029-2.158 3.129-3.237 1.791-1.751 3.686-3.386 5.486-5.111.471-.453.912-.948 1.34-1.447-.846-.834-1.492-2.076-1.941-3.458-1.338-4.113-1.377-8.538.332-12.594.416-.989 1.766-4.562 2.992-4.644 1.463-.114-.025 3.229-.152 3.817-.936 4.318-1.746 11.842 3.941 13.04 4.053-.11 7.836.633 11.51-2.11 1.922-1.427 4.031-5.761 6.93-4.551 1.285.54 3.01.662 4.289.032 1.92-.945 2.641-3.075 1.244-4.76zM27.07 83.859c-2.256 1.864-5.064 2.257-7.027 2.257-2.309 0-4.734-.516-7.006-1.488a16.888 16.888 0 0 1-2.957-1.619c-3.186-2.191-6.051-6.402-3.656-11.063 1.34-2.601 3.787-3.917 7.279-3.917 5.461 0 11.389 3.223 13.961 6.329 2.352 2.854 2.078 7.294-.594 9.501zm22.295 7.622c-.869.964-2.484 1.585-4.107 1.585-.055 0-.1-.016-.152-.016-.916-.017-1.75-.254-2.439-.67a3.99 3.99 0 0 1-.908-.712c-5.215-7.376-2.377-15.945-2.254-16.306a1.07 1.07 0 0 1 .945-.72c.449-.032.842.213 1.025.606 2.182 4.586 4.898 6.524 6.883 7.939.812.58 1.508 1.07 2.002 1.643 1.835 2.129.083 5.456-.995 6.651z"/><path d="M12.01 72.55c-1.084 1.276-2.512 4.049-1.783 5.773.943 2.257 2.811 1.325 4.016-.106 1.197-1.414 2.439-4.963.617-6.436-1.046-.833-2.098-.122-2.85.769z"/><path d="M19.133 76.263c-.769 1.211-1.424 4.102-.432 5.52.246.352.586.605 1.059.744 3.137.818 4.812-5.062 3.215-7.057-1.28-1.595-2.891-.711-3.842.793z"/></g></g></g><path d="M26.799 56.311c1.109-2.322 3.559-3.442 5.461-2.485 1.91.949 2.559 3.622 1.455 5.952-1.111 2.331-3.561 3.436-5.457 2.494-1.91-.957-2.568-3.626-1.459-5.961z" fill="#2f2f2f"/><path d="M55.666 67.604c-2.184.564-4.473-1.12-5.115-3.777-.633-2.658.621-5.292 2.807-5.863 2.191-.572 4.479 1.129 5.121 3.778.634 2.664-.625 5.289-2.813 5.862z" fill="#2f2f2f"/><path d="M81.086 46.639c-.668 3.474-3.873 5.379-7.152 6.009-.516.098-1.201.327-1.725.181-.93-.278-.299-1.103.221-1.546 2.064-1.783 6.006-3.222 4.857-6.844-.205-.646-.695-1.22-1.25-1.595-.922-.613-2-.794-3.113-.802-1.361 0-2.609.523-3.754 1.234-.682.434-1.982 1.742-2.756.695l-.08-.123c-.535-.973 1.848-2.682 2.51-3.131 2.436-1.685 5.961-2.683 8.791-1.415 2.861 1.293 4.015 4.4 3.451 7.337z" fill="#2f2f2f"/></g></g><g fill="#b89278"><path d="M61.783 27.827s5.322-.771 9.221.789L63.1 30.915s-2.928-.6-1.317-3.088z"/><path d="M77.855 67.442s4.316-3.199 8.484-3.668l-5.865 5.768c.001 0-2.861.856-2.619-2.1z"/><path d="M80.949 55.387s3.57-1.526 6.625-.78l-5.055 3.271c.001 0-2.183-.061-1.57-2.491z"/><path d="M77.168 31.706s3.852.501 6.1 2.696l-6.014.246s-1.848-1.161-.086-2.942z"/><path d="M86.492 43.374s3.812-.743 6.643.626l-5.627 2.139s-2.117-.516-1.016-2.765z"/><path d="M93.416 51.577s3.309-2.035 6.439-1.744l-4.521 3.975s-2.166.261-1.918-2.231z"/><path d="M91.941 33.972s3.809.756 5.902 3.099l-6.014-.155c.001-.001-1.767-1.284.112-2.944z"/><path d="M101.049 41.363s3.172.126 5.307 2.084l-4.809.819c0 .001-1.658-.973-.498-2.903z"/></g></g></svg>