<svg id="レイヤー_1" xmlns="http://www.w3.org/2000/svg" xmlns:xlink="http://www.w3.org/1999/xlink" viewBox="0 0 128 128"><g><path d="M54.062 25.75s11.313.512 22.323 2.821l7.451 4.996-5.554 12.499-12.403 2.962L53.38 41.16l-5.741-9.721 6.423-5.689z" fill="#b89278"/><path d="M15.988 41.546l1.489-1.881 1.019-6.516 6.892-4.688 2.685 1.71s1.104-.325 4.416-1.488l4.761 4.743-11.723 15.726-9.79-1.518.251-6.088z" fill="#b89278"/><g><g><g><defs><path id="SVGID_1_" d="M114.405 63.579c-.495-3.649-1.632-7.313-3.28-10.759-2.431-5.085-5.98-9.698-10.181-13.123-3.49-2.843-7.569-4.6-11.54-6.648-4.225-2.183-8.498-3.536-13.019-4.478.729 1.275.955 3.046 1.062 4.23.257 2.738-.611 4.396-2.156 6.462-1.671 2.231-4.635 6.102-7.929 4.896-2.518-.92-3.572-4.448-5.98-5.742-1.405-.751-2.851-1.019-4.166-1.792-1.76-1.036-3.354-2.898-3.93-4.874-.289-.949-.201-2.265.046-3.511.144-.703.312-1.722.73-2.49a96.062 96.062 0 0 0-8.831.122c-4.327.251-8.676 1.154-12.742 2.812.03.556 1.258 4.144-2.795 6.544-1.306.773-2.729 1.103-4.118 1.884-1.914 1.083-2.47 4.398-4.54 5.04-2.469.767-4.248-.345-5.047-.605-3.519 4.2-6.605 8.817-9.426 13.349C.692 64.321-2.403 76.95 3.13 87.274c4.81 8.979 13.982 13.588 23.717 15.949a78.444 78.444 0 0 1 1.015 4.761c.255 1.405.648 2.809.756 4.24.117 1.614.004 2.659 1.658 3.366 1.336.583 2.868.616 4.307.729 2.734.218 6.221.3 6.49-3.133.165-2.214-.009-6.788 2.791-7.525.373-.1.787-.156 1.206-.2.604.005 1.202.01 1.81-.008 1.715.147 3.433.698 4.604 1.562 1.723 1.275 2.348 3.354 2.959 5.312.266.842.461 1.648.58 2.525.184 1.216.184 2.544.484 3.724.343 1.363 1.601 1.658 2.82 1.937 3.25.737 7.36.814 9.898-1.697.621-.616.474-1.229.474-2.019 0-2.582-.651-7.49 1.121-9.639.48-.576 1.166-.716 1.886-.716.431.061.855.087 1.285.14 1.705 1.11 1.684 3.827 2.473 5.598.519 1.158 3.538 1.149 4.589 1.197h.068c1.879.078 4.366-.008 5.642-1.636.791-1.003.612-2.07.712-3.255.079-1.123.061-2.626.964-3.433.104-.096.233-.121.352-.183.395-.086.803-.182 1.21-.203.265-.014.513-.005.739.029 1.283.174 2.299.911 2.968 2.006.304.512.62 1.119.698 1.701.105.729.421 1.354.572 2.07.127.568.243 1.123.383 1.688.187.725.629 1.337 1.206 1.801 2.045 1.663 8.81 1.827 10.681-.33.451-.533.634-1.388.718-2.061.146-1.215.106-2.479.224-3.715.169-1.658.421-3.285.688-4.956.249-1.589.618-3.159 1.042-4.713 1.742-6.423 4.563-12.634 5.357-19.286.602-5.076.819-10.24.128-15.322z"/></defs><use xlink:href="#SVGID_1_" overflow="visible" fill="#fcd4b5"/><clipPath id="SVGID_2_"><use xlink:href="#SVGID_1_" overflow="visible"/></clipPath><path d="M70.835 106.548s5.967-3.545 18.904-1.851l-.452 8.732-18.609 1.943.157-8.824z" clip-path="url(#SVGID_2_)" fill="#b89278"/></g><path d="M14.399 70.193c.153-.169.314-.343.461-.508 2.651-2.656 5.906-3.445 9.653-3.497.267-.009.549-.009.826.004 4.601.16 10.177 2.269 12.352 6.557 2.001 3.949 1.554 10.814-3.441 12.464-.954.312-2.019.556-3.12.765a29.913 29.913 0 0 1-6.263.469c-1.983-.07-3.962-.347-5.797-.855-1.832-.508-3.52-1.25-4.922-2.252-4.305-3.096-2.729-9.745.251-13.147z" fill="#f79329"/><path d="M22.615 76.49c.1-2.76-.282-5.017-2.084-5.087-1.809-.06-2.338 2.161-2.426 4.931-.102 2.76.266 5.025 2.079 5.087 1.802.064 2.336-2.168 2.431-4.931z" fill="#2f2f2f"/><path d="M30.028 81.767c1.809.061 2.338-2.165 2.439-4.93.091-2.765-.282-5.021-2.084-5.087-1.81-.06-2.33 2.162-2.43 4.926-.098 2.765.277 5.03 2.075 5.091z" fill="#2f2f2f"/><path d="M13.74 59.313c1.259-2.63 4.032-3.892 6.18-2.804 2.157 1.076 2.891 4.097 1.643 6.727-1.265 2.64-4.038 3.88-6.182 2.821-2.157-1.085-2.891-4.115-1.641-6.744z" fill="#2f2f2f"/><path d="M50.107 68.375c-2.499.529-4.995-1.484-5.599-4.522-.586-3.033.967-5.949 3.455-6.483 2.508-.547 5.012 1.489 5.611 4.514.583 3.044-.962 5.944-3.467 6.491z" fill="#2f2f2f"/><g><path d="M56.839 27.659c1.948-5.503 11.691-3.637 14.978-.729 2.837 2.504 3.332 7.394 1.266 10.623-.698 1.103-1.545 2.426-2.74 3.021-3.235 1.597-4.29-2.2-6.234-3.788-1.071-.881-2.291-1.566-3.53-2.192-2.764-1.388-4.899-3.636-3.74-6.935z" fill="#fcd4b5"/></g></g><g><path d="M28.079 27.682c-4.649-1.336-10.958 1.641-12.499 6.237-.616 1.822-.356 2.92.703 4.436.626.889 1.918 2.295 3.159 2.035 1.303-.278 1.971-2.552 2.843-3.473 1.302-1.371 2.865-2.387 4.529-3.271 1.214-.644 4.099-1.945 3.573-3.768-.347-1.209-1.205-1.883-2.308-2.196z" fill="#fcd4b5"/></g><path d="M127.646 59.729c-.212-.347-.664-.207-.978-.138-.671.147-1.3.442-1.99.442-.135 0-.391.017-.499-.048-.188-.117.048-.647.078-.812.069-.295.117-.6.139-.912.058-.581 0-1.18-.209-1.735a4.817 4.817 0 0 0-1.945-2.361c-1.131-.702-2.506-.938-3.804-.733-1.997.316-3.589 2.097-3.972 4.032-.091.477-.061.989.035 1.458.061.295.232.547.374.799.052.096.347.398.269.512-.079.112-.591.048-.712.034-.49-.052-.964-.225-1.415-.434-.43-.2-.833-.442-1.206-.732-.356-.283-.717-.812-1.211-.839-.413-.03-.824.435-1.071.712-.567.643-.717 1.511-.834 2.34-.1.729-.225 1.515.039 2.221.228.574.62 1.082 1.12 1.438 1.089.773 2.478 1.163 3.94 1.236 1.98.102 4.031-.343 5.771-1.302a8.622 8.622 0 0 0 1.124-.746c.212-.17.391-.387.616-.534.348-.222.815-.121 1.202-.138a10.612 10.612 0 0 0 1.502-.149c1.306-.242 2.686-.953 3.406-2.121.244-.387.511-1.034.231-1.49zm-6.774-1.319c-.057.205-.15.408-.23.608-.395.077-1.055-.074-1.401-.256-.552-.291-.785-.938-.442-1.48a1.138 1.138 0 0 1 1.771-.208c.331.312.423.911.302 1.336z" fill="#fcd4b5"/></g></g></svg>