<svg id="レイヤー_1" xmlns="http://www.w3.org/2000/svg" viewBox="0 0 128 128"><g><g><g><g><path d="M42.654 49.413c.641-3.543 3.529-5.975 6.457-5.38 2.92.574 4.789 3.944 4.152 7.493-.629 3.563-3.518 5.959-6.434 5.395-2.931-.589-4.809-3.945-4.175-7.508z" fill="#2f2f2f"/><path d="M73.254 59.812c-2.965.083-5.432-2.75-5.469-6.366-.053-3.605 2.344-6.627 5.322-6.71 2.99-.115 5.437 2.749 5.488 6.355.044 3.611-2.357 6.626-5.341 6.721z" fill="#2f2f2f"/><g><path d="M122.072 99.51c-3.768 1.069-7.342 2.713-11.338 2.52-3.777-.178-7.227-1.907-10.18-4.172-1.201-.918-3.408-2.291-3.867-3.833-.496-1.661 1.09-2.697 2.406-3.195 1.898-.72 3.756-1.492 5.562-2.435a44.453 44.453 0 0 0 9.933-7.086c7.703-7.273 12.68-17.325 13.051-27.978.18-5.021-.518-10.232-1.482-15.153-.965-4.926-2.928-9.663-5.682-13.859-2.422-3.694-5.803-6.345-4.707-11.39.406-1.863 1.314-2.286.688-4.426-.457-1.55-.98-2.557-2.744-2.739a6.79 6.79 0 0 0-2.129.084c-3.715.767-5.332 4.779-5.4 8.636-.094 6.172 3.012 11.386 4.744 17.109 1.684 5.567 2.908 11.568 2.17 17.401-.705 5.529-3.188 11.159-6.543 15.578-1.754 2.319-4.049 4.652-6.617 6.061-3.902 2.143-4.748.062-2.494-3.12 3.643-5.074 4.666-11.427 5.25-17.503 1.023-10.663-.75-22.409-7.898-30.794-2.934-3.443-7.188-7.222-11.27-9.226-9.811-4.805-23.217-6.637-33.303-1.612-7.516 3.741-13.906 9.93-17.58 17.412-2.531 5.145-4.598 11.292-5.379 16.995-.799 5.816-.289 11.821 1.334 17.451 1.467 5.088 4.072 8.283 6.889 12.581 1.033 1.58.094 2.022-1.576 1.452-1.08-.367-2.18-.916-3.166-1.484-2.02-1.168-3.752-2.791-5.359-4.472-2.619-2.734-4.551-6.097-5.938-9.598-1.352-3.418-2.229-7.079-2.369-10.76-.203-5.565.672-11.072 2.279-16.363.814-2.692 1.514-5.447 1.916-8.156.141-.892.424-1.669.424-2.729-.012-2.061.014-4.023-.414-5.896-.627-2.771-1.664-6.221-4.185-7.003-.883-.272-1.951-.219-3.25.312-2.279.929-2.139 2.317-1.68 4.415.416 1.889.578 3.517.088 5.416-.475 1.815-1.137 3.694-2.072 5.416-2.586 4.765-5.004 9.434-6.063 14.809-.959 4.921-1.654 10.133-1.482 15.153.588 17.174 12.804 31.905 28.601 37.524-1.326 1.341-2.725 2.557-4.145 3.308-3.824 2.03-9.111 1.676-12.336-1.101-3.369-2.891-7.492-6.444-12.25-5.901-1.242.141-2.082 1.352-2.17 2.525-.131 1.644 1.246 2.75 2.377 3.7 2.203 1.857 4.619 3.558 6.639 5.593 3.006 3.021 5.662 6.355 9.758 7.921 7.693 2.923 13.816-1.156 20.484-4.37 1.301-.626 3.549-.726 3.945.992.98 4.187-4.109 7.816-6.783 10.195-1.783 1.581-4.006 2.771-6.428 2.763-2.064-.008-4.883-.618-5.293 2.004-.373 2.413.309 4.438 2.396 5.789 1.258.811 2.756 1.227 4.231 1.341 2.506.196 4.785.222 7.17-.639 2.818-1.018 5.457-2.572 8.025-4.102 4.393-2.609 8.094-6.125 11.703-9.705 2.766-2.734 6.314-6.763 10.357-3.585 4.793 3.762 6.783 10.15 11.695 14.021 4.199 3.312 7.867 6.345 13.592 4.398 2.023-.686 4.889-2.165 5.316-4.4.518-2.751-1.889-3.006-3.865-3.345-6.303-1.081-9.027-6.062-11.262-11.571-.605-1.508-1.018-5.599 1.92-4.466 1.107.427 1.707 2.008 2.428 2.89.949 1.169 2.119 2.187 3.312 3.11 2.375 1.831 5.129 3.396 8.016 4.273 8.01 2.421 17.861-.376 23.156-6.835.705-.856 2.057-2.798 2.104-3.955.088-1.842-1.709-2.635-3.26-2.191z" fill="#ed6c30"/></g><path d="M63.512 71.273c1.125-.809 1.947-1.693 2.457-3.063.305-.803.93-2.218 1.92-1.375.713.608 1.32 2.79 1.432 3.663.125.981.02 2.116-.012 3.105-.078 2.449-2.088 5.071-3.902 6.668-2.186 1.917-6.09 3.449-8.955 3.525-.881.021-2.398.289-3.176-.22-1.603-1.054 1.561-2.969 2.299-3.598 2.25-1.926 4.082-3.671 5.328-6.376.447-.955 1.111-1.345 1.957-1.884.224-.148.449-.294.652-.445z" fill="#855c52"/></g><path d="M42.654 49.413c.641-3.543 3.529-5.975 6.457-5.38 2.92.574 4.789 3.944 4.152 7.493-.629 3.563-3.518 5.959-6.434 5.395-2.931-.589-4.809-3.945-4.175-7.508z" fill="#2f2f2f"/><path d="M73.254 59.812c-2.965.083-5.432-2.75-5.469-6.366-.053-3.605 2.344-6.627 5.322-6.71 2.99-.115 5.437 2.749 5.488 6.355.044 3.611-2.357 6.626-5.341 6.721z" fill="#2f2f2f"/></g><path d="M57.818 82.854c-1.701.72-3.646.986-5.582.783a11.936 11.936 0 0 1-1.539-.257c-2.646-.626-5.156-2.128-6.811-4.534a10.472 10.472 0 0 1-1.492-3.188 10.835 10.835 0 0 1-.328-3.407c.318-5.521 4.873-10.238 10.639-9.507 5.5.698 10.045 5.719 10.365 11.27.262 4.556-2.068 7.494-5.252 8.84z" fill="#fcd4b5"/><path d="M52.635 67.242c-3.713-.501-6.492 3.486-5.512 7.353.156.626.416 1.236.797 1.821 2.908 4.487 10.604 3.517 10.26-2.755-.168-3.163-2.606-6.022-5.545-6.419z" fill="#2f2f2f"/></g><g fill="#fcd4b5"><path d="M105.238 84.159c-.457 1.346-2.1 2.23-3.303 2.593-.625.19-2.734.655-2.236-.793.469-1.391 2.293-2.343 3.553-2.721.809-.243 2.514-.595 1.986.921z"/><path d="M112.844 75.815c.354-.019.68.104.85.448.668 1.326-1.139 3.098-2.014 3.739-1.775 1.31-3.199-.106-1.791-2.056.371-.512.752-.963 1.242-1.375.357-.31 1.09-.73 1.713-.756z"/><path d="M120.127 70.091c-.664 1.69-2.541 3.526-2.934 2.246-.297-.997.277-2.283.824-3.063.381-.519 1.143-1.646 1.879-1.155.581.376.549 1.155.231 1.972z"/><g><path d="M123.854 62.087c-.08.523-.217 1.021-.361 1.291-.312.584-1.367 1.94-1.904 1.093-.512-.788-.188-2.277.207-3.037.277-.524.58-1.004 1.033-1.268 1.034-.589 1.185.747 1.025 1.921z"/><path d="M125.256 53.112c.059.498.047.979-.031 1.26-.146.613-.789 2.106-1.473 1.475-.635-.585-.678-2.012-.484-2.808.131-.537.287-1.046.641-1.403.794-.792 1.232.377 1.347 1.476z"/><path d="M125.396 45.584c.057.596.035 1.159-.006 1.334-.088.396-.441 1.194-.844 1.327-.527.178-.758-.637-.824-1.027-.074-.42-.021-.908-.018-1.341.006-.582.225-1.704.893-1.907.508-.151.721.762.799 1.614z"/></g></g><g fill="#fcd4b5"><path d="M17.521 78.924c.066 1.44 1.414 2.776 2.488 3.468.553.368 2.479 1.425 2.416-.13-.072-1.49-1.576-2.938-2.697-3.668-.72-.467-2.281-1.305-2.207.33z"/><path d="M11.74 68.69c-.371-.128-.736-.1-1.017.206-1.102 1.177.234 3.562.955 4.495 1.445 1.896 3.354.856 2.483-1.592-.234-.649-.484-1.229-.871-1.811-.272-.424-.907-1.081-1.55-1.298z"/><path d="M5.912 60.537c.178 1.952 1.574 4.436 2.369 3.22.604-.946.406-2.444.066-3.428-.234-.655-.684-2.062-1.596-1.774-.708.219-.923 1.034-.839 1.982z"/><g><path d="M4.482 51.092c-.074.574-.09 1.127-.016 1.451.144.704.828 2.432 1.643 1.717.768-.663.887-2.312.709-3.215-.135-.628-.297-1.224-.688-1.633-.898-.923-1.456.413-1.648 1.68z"/><path d="M5.756 41.353c-.209.504-.35.999-.355 1.317-.031.679.178 2.424 1.084 1.976.842-.412 1.314-1.881 1.357-2.764.021-.6.016-1.179-.24-1.653-.594-1.064-1.399.016-1.846 1.124z"/><path d="M7.894 33.493c-.24.61-.396 1.197-.396 1.391-.031.438.088 1.38.469 1.639.5.342.977-.434 1.17-.819.197-.415.299-.942.428-1.389.166-.604.281-1.836-.356-2.251-.475-.314-.975.57-1.315 1.429z"/></g></g><g fill="#fcd4b5"><path d="M35.08 102.703c1.904-.448 4.164-2.186 2.854-2.791-1.021-.48-2.479-.063-3.404.406-.619.323-1.945.972-1.525 1.832.311.673 1.159.766 2.075.553z"/><path d="M28.201 105.379c.664-.05 3.81-.723 2.578-1.956-.6-.598-2.035-.19-2.721.075-.457.178-1.01.386-1.312.793-.484.66-.006 1.119.715 1.114.224-.001.48-.007.74-.026z"/><path d="M20.69 105.296c.228.078.432.136.553.172.562.142 2.504.699 2.799-.058.426-1.043-1.715-1.335-2.277-1.372-.418-.021-1.68-.062-1.932.365-.239.403.355.711.857.893z"/></g><g fill="#fcd4b5"><path d="M116.791 108.377c1.238-.18 2.73-1.247 2.777-2.283.094-1.987-2.463-1.207-3.424-.6-.609.386-1.074.991-1.002 1.753.096.966.815 1.251 1.649 1.13z"/><path d="M110.385 111.023c.805.003 1.728-.412 2.369-.879.834-.616.697-1.462-.221-1.874-.641-.292-1.463-.08-2.064.167-.617.256-1.358.668-1.42 1.398-.078.888.553 1.185 1.336 1.188z"/><path d="M102.506 111.059c.781.562 2.994.491 3.516.222.898-.464.127-1.236-.512-1.479-.74-.282-1.637-.225-2.389-.016-.271.075-.668.203-.803.472-.177.35-.078.611.188.801z"/></g><g fill="#fcd4b5"><path d="M28.854 123.043c-.504-.308-1.16-.916-1.021-1.589.174-.832.955-1.119 1.727-1.075 1.279.073 3.648 1.767 1.816 2.977-.622.414-1.942.041-2.522-.313z"/><path d="M34.041 124.151a.583.583 0 0 1-.354-.286c-.654-1.222 1.281-.81 1.846-.632 1.713.55.777 1.192-.621 1.018-.25-.032-.592-.005-.871-.1z"/></g><g fill="#fcd4b5"><path d="M13.539 12.243c.043-.462.24-.864.73-.939.346-.055.49.044.774.29.672.6 1.064 1.617.918 2.515-.105.701-.682 1.281-1.398.926-.762-.376-1.096-2.01-1.024-2.792z"/><path d="M14.269 17.891c.252-.309.543-.462.877-.248.939.607-.365 2.959-1.273 2.945-.553-.011-.516-.312-.422-.751.078-.344.369-1.393.818-1.946z"/></g><g fill="#fcd4b5"><path d="M3.709 91.928c-.438-1.005.256-1.871 1.277-1.871.639 0 .973.167 1.441.563.387.323.522.602.58 1.106.107.937-.346 1.641-1.311 1.534-.798-.088-1.632-.599-1.987-1.332z"/><path d="M8.223 94.699c-.188-.671.021-1.297 1.023-1.14.744.119 1.283.873 1.408 1.58.172.984-.615 1.258-1.426.866-.457-.218-.853-.776-1.005-1.306z"/></g><g fill="#fcd4b5"><path d="M114.611 11.107c-.047-.456-.262-.857-.748-.926-.348-.047-.494.055-.766.306-.662.615-1.033 1.644-.871 2.533.119.699.709 1.27 1.418.897.752-.388 1.055-2.027.967-2.81z"/><path d="M114.096 16.743c-.611-.595-1.07.136-.908.997.098.556.291 1.194.818 1.482.5.271 1.09.188 1.033-.485-.043-.524-.434-1.309-.73-1.735a1.765 1.765 0 0 0-.213-.259z"/></g><g fill="#fcd4b5"><path d="M93.334 124.449c.416-.107.75-.25.906-.412.471-.451.752-1.169-.006-1.498-.662-.286-1.57-.167-2.311-.01-.553.125-1.668.503-1.441 1.241.272.874 2.219.841 2.852.679z"/><path d="M87.125 123.857c.182.041.365.041.535-.063 1.426-.804-.756-1.617-1.436-1.8-2.064-.538-1.539.693-.031 1.403.266.136.596.376.932.46z"/></g></g></svg>