<svg id="レイヤー_1" xmlns="http://www.w3.org/2000/svg" viewBox="0 0 128 128"><g><path d="M110.897 47.446c-.052-.928-.19-1.857-.304-2.791 2.501.469 5.776 2.123 5.235 7.719-.412 4.275-2.358 7.123-5.478 7.031.661-3.877.768-7.92.547-11.959z" fill="#fcc21b"/><path d="M26.119 53.001c-.511-5.303 2.405-7.062 4.841-7.627-.073.693-.178 1.387-.225 2.072-.23 4.264-.083 8.537.68 12.605-3.016-.021-4.9-2.864-5.296-7.05z" fill="#fcc21b"/><path d="M78.432 99.476c-2.037 1.289-5.767 1.027-8.138 1.176-2.314.16-5.495.234-6.855-2.068-1.273-2.145-1.058-4.941-.251-7.205a9.034 9.034 0 0 1 .936-1.877 6.925 6.925 0 0 1 2.947-2.596c.754-.348 1.577-.562 2.448-.672 1.348-.164 2.812-.082 4.32.266.355.078.693.215 1.04.355.146.051.294.076.442.146 2.227 1.049 3.38 3.346 4.177 5.572.732 2.02 1.101 5.539-1.066 6.903z" fill="#fcc21b"/><path d="M88.468 76.856c-5.243 2.678-11.661 3.705-17.653 3.584-5.985.121-12.411-.906-17.646-3.584-5.305-2.705-10.604-7.527-10.223-14.686.138-2.617 1.417-5.053 1.739-7.662.345-2.746.303-6.318-.422-8.988-.922-3.432-1.365-6.867-.098-10.256 1.354-3.627 3.77-6.746 7.193-7.99 1.213-.443 2.556-.398 3.819-.504 5.43-.441 10.22 5.432 15.636 5.258 5.425.174 10.213-5.699 15.643-5.258 1.266.105 2.6.061 3.822.504 3.424 1.244 5.833 4.363 7.185 7.99 1.274 3.389.833 6.824-.1 10.256-.715 2.67-.75 6.242-.411 8.988.329 2.609 1.592 5.045 1.733 7.662.386 7.159-4.905 11.981-10.217 14.686z" fill="#fcc21b"/><path d="M120.188 83.222c-1.689-4.193-5.729-7.354-9.923-8.805-2.132-.736-4.251-.771-6.344-.434 2.34-2.773 3.978-5.885 5.087-9.217a8.331 8.331 0 0 0 2.332-.246c5.365-1.344 7.981-4.725 8.935-9.227 1.196-5.646.035-12.402-5.053-15.201-1.663-.918-3.813-1.479-5.746-1.404-2.206-8.334-6.776-16.178-13-21.576-6.769-5.885-16.31-8.887-25.661-8.867-9.344-.019-18.886 2.982-25.662 8.867-6.362 5.529-10.997 13.619-13.14 22.17-1.802.033-3.761.588-5.286 1.434-5.088 2.801-6.249 9.553-5.054 15.201.956 4.508 3.562 7.887 8.937 9.23a8.56 8.56 0 0 0 2.236.252c.92 2.578 2.179 5.021 3.839 7.275-2.956-.373-7.523-1.391-11.085-3.715-10.529-6.859-9.403-22.484-3.849-31.125 1.422-2.211 6.189-9.934 11.618-14.305 1.937-1.551 8.853-4.455 8.125-7.346-.373-1.49-1.846-1.672-3.136-1.188-2.462.91-4.959-.492-2.662-3.129 2.722-3.106 7.016.26 10.167-.441 2.538-.559 4.731-3.701 3.301-6.109-1.542-2.596-4.738-3.908-7.566-4.533-1.049-.225-2.439-.363-3.51-.264-2.77.229-5.331 1.086-7.732 2.482-1.958 1.135-4.294 3.207-5.338 5.231-1.171 2.283-1.535 4.943-2.558 7.297-2.26 5.213-12.445 17.875-14.663 28.639-1.933 9.396-.703 17.875 3.206 24.969 6.803 12.402 23.941 16.961 38.038 18.721 2.466 2.576 2.792 11.457 2.792 11.457s-1.483 2.705-9.777 5.18c-5.2 1.555-11.362 2.24-16.675 1.027-2.643-.6-5.295-1.301-8.024-3.523-3.762-3.064-2.236-9.967 1.359-10.756 1.378-.303 3.111-.135 3.693 1.309.506 1.295-.383 3.15.825 4.295 1.09 1.039 2.865.476 3.308-.604.941-2.279.885-4.77-.069-7.201-1.474-3.754-6.04-4.598-9.377-3.385-3.033 1.102-5.33 3.77-6.472 6.119-1.214 2.49-1.537 5.732-1.034 8.445 1.613 8.566 12.493 11.701 21.281 11.816 6.583.088 11.318-.879 18.586-3.215.29.729-.511 1.375.736 3.943.919 1.895 2.796 2.93 4.1 4.477.944 1.113 1.613 2.336.199 3.293-1.438.984-3.024 1.887-2.461 3.857.598 2.08 2.721 2.475 4.558 2.824 2.271.43 4.117-.455 5.717-2.066 1.001-1.01 2.306-2.354 2.591-3.799.196-.941-.193-1.834-.28-2.762-.2-2.314-1.431-4.107-1.423-6.49.005-1.283.123-2.051.711-3.195 2.244-4.367 13.495-4.572 15.453.178.451 1.105.312 3.129 0 4.26a9.506 9.506 0 0 1-1.074 2.496c-1.794 3.004-.694 7.258 2.141 9.994.952.914 2.271 1.225 3.526 1.426 1.933.307 4.316.592 5.929-.785.528-.451.927-1.053 1.022-1.756.199-1.512-1.136-2.295-2.141-3.094-2.124-1.672.022-4.455 1.135-6.031 1.751-2.475 2.86-4.607 2.843-7.779-.017-3.773-2.097-7.422-2.256-11.326-.04-1.062-.102-2.154.021-3.164.347-2.709.88-5.334 2.747-7.457.018-.023.025-.041.05-.061 4.119-3.459 14.129-3.195 15.611 2.561 1.549 6-5.547 4.412-8.779 4.438-1.335.016-4.546.316-5.184 1.814-1.128 2.684 1.89.955 2.878 1.803 3.268 2.805-2.388 2.166-3.54 2.141-2.171-.061-2.432 2.762-1.478 4.143 1.373 1.994 3.804 2.904 6.161 2.912 2.688 0 4.628-1.229 6.891-2.408.724-.373 1.447-.615 2.21-.9 4.255-1.584 8.545-3.572 11.067-7.562 2.168-3.443 2.575-7.764 1.05-11.525zm-9.291-35.776c-.052-.928-.19-1.857-.304-2.791 2.501.469 5.776 2.123 5.235 7.719-.412 4.275-2.358 7.123-5.478 7.031.661-3.877.768-7.92.547-11.959zm-84.778 5.555c-.511-5.303 2.405-7.062 4.841-7.627-.073.693-.178 1.387-.225 2.072-.23 4.264-.083 8.537.68 12.605-3.016-.021-4.9-2.864-5.296-7.05zm52.313 46.475c-2.037 1.289-5.767 1.027-8.138 1.176-2.314.16-5.495.234-6.855-2.068-1.273-2.145-1.058-4.941-.251-7.205a9.034 9.034 0 0 1 .936-1.877 6.925 6.925 0 0 1 2.947-2.596c.754-.348 1.577-.562 2.448-.672 1.348-.164 2.812-.082 4.32.266.355.078.693.215 1.04.355.146.051.294.076.442.146 2.227 1.049 3.38 3.346 4.177 5.572.732 2.02 1.101 5.539-1.066 6.903zm10.036-22.62c-5.243 2.678-11.661 3.705-17.653 3.584-5.985.121-12.411-.906-17.646-3.584-5.305-2.705-10.604-7.527-10.223-14.686.138-2.617 1.417-5.053 1.739-7.662.345-2.746.303-6.318-.422-8.988-.922-3.432-1.365-6.867-.098-10.256 1.354-3.627 3.77-6.746 7.193-7.99 1.213-.443 2.556-.398 3.819-.504 5.43-.441 10.22 5.432 15.636 5.258 5.425.174 10.213-5.699 15.643-5.258 1.266.105 2.6.061 3.822.504 3.424 1.244 5.833 4.363 7.185 7.99 1.274 3.389.833 6.824-.1 10.256-.715 2.67-.75 6.242-.411 8.988.329 2.609 1.592 5.045 1.733 7.662.386 7.159-4.905 11.981-10.217 14.686z" fill="#855c52"/><g><g><path d="M58.096 39.134c-2.743 0-4.997 2.695-4.997 6.027 0 3.324 2.254 6.024 4.997 6.024 2.76 0 4.996-2.699 4.996-6.024 0-3.332-2.237-6.027-4.996-6.027z" fill="#2f2f2f"/><path d="M83.541 39.134c-2.76 0-4.988 2.695-4.988 6.027 0 3.324 2.229 6.024 4.988 6.024 2.761 0 4.987-2.699 4.987-6.024 0-3.332-2.226-6.027-4.987-6.027z" fill="#2f2f2f"/><path d="M74.696 61.521c-2.305-3.961-7.34-2.859-8.658 2.687-.719 3.059-.329 7.115 1.786 9.039 1.784 1.615 4.428 1.561 6.223-.156 2.228-2.105 2.158-6.127 1.551-9.088-.2-.979-.511-1.807-.902-2.482z" fill="#ed6c30"/><path d="M68.804 56.38c.685.322 1.578.518 2.591.418 1.643-.186 2.228-.725 2.808-1.379.937-1.057 1.266-2.521-.086-3.311-1.109-.641-3.51-.693-5.07-.381-3.779.747-2.519 3.575-.243 4.653z" fill="#2f2f2f"/></g></g></g></svg>