<svg xmlns="http://www.w3.org/2000/svg" viewBox="0 0 128 128"><g id="图层_1"><path d="M57.213 107.999a44.727 44.727 0 0 1-.276 5.991c-.147 1.272-.151 2.665-.702 3.843-.559 1.187-1.625 1.907-2.817 2.354-2.562.966-6.701.349-6.706 4.088 0 .589.061 1.093.312 1.635.734 1.577 1.986 1.271 3.433 1.503 1.253.207 2.571.056 3.808-.218.895-.188 1.938-.377 2.763-.753 2.406-1.111 4.224-2.289 5.468-4.682 1.131-2.176 1.343-4.71 1.426-7.111.053-1.629.033-3.259.114-4.889.071-1.338-.236-2.316-1.29-3.131-.457-.359-1.084-.627-1.635-.796-.556-.181-1.178 0-1.752.009-.385.004-.796-.042-1.178.019-.564.09-.739.396-.866.924-.096.381-.106.8-.102 1.214z" fill="#fcc21b"/><path d="M68.404 107.255c.376 1.065.507 2.152.927 3.193 1.316 3.269 2.765 6.933-.763 9.467-1.475 1.064-3.269 1.592-4.687 2.68-1.596 1.22-.767 3.744.885 4.498.933.414 1.955.216 2.926.037 2.613-.479 5.278-2.133 7.177-3.928 5.482-5.161.834-13.587-.137-19.583-.104-.636-.046-1.186-.69-1.332-.604-.132-1.734.41-2.313.574-.584.166-1.243.269-1.841.457-.43.133-1.438.434-1.758.763-.739.754-.112 2.157.198 2.967.024.061.047.138.076.207z" fill="#fcc21b"/><path d="M120.076 47.938c-.979-2.725-4.093-4.46-5.392-5.08-2.483-1.179-5.042-1.894-7.404-2.065a35.032 35.032 0 0 0-2.279-.079c-7.526 0-13.167 3.07-16.323 8.886-1.14 2.112-2.553 4.743-3.085 7.717-.24 1.35-.607 1.863-.758 1.929-1.083 0-3.754-1.854-6.357-4.954-3.467-4.149-5.634-9.061-7.927-14.256-2.327-5.271-4.733-10.724-8.637-15.362-4.136-4.912-9.476-7.483-16.329-7.852-5.006-.245-9.131 1.065-13.195 4.277-3.842 3.027-7.232 8.547-9.061 14.759-2.835 9.622-10.838 42.447 5.368 60.782 9.419 10.662 24.268 12.903 35.062 12.903 3.776 0 7.63-.277 11.463-.818 5.868-.829 11.227-2.374 15.928-4.597 3.751-1.771 7.66-3.933 10.841-7.706.791-.933 1.508-1.93 2.223-2.925.839-1.162 1.625-2.265 2.521-3.219.749-.802 1.73-1.477 2.765-2.183.542-.376 1.085-.744 1.61-1.145 1.902-1.44 3.457-3.254 4.493-5.217.758-1.419.923-2.803 1.068-4.023l.113-.872c.123-.941.26-2.001.15-3.169-.075-.749-.274-1.408-.442-1.944-.075-.245-.15-.49-.197-.688.099-.142.203-.292.301-.462 1.296-2.186.82-5.048-.015-6.933a.79.79 0 0 0 .066-.089c1.441-2.095 1.917-4.28 1.446-6.674.075-.074.146-.155.216-.244 2.224-2.833 2.818-5.763 1.767-8.697z" fill="#e0e0e0"/><path d="M116.295 71.039c-.268-1.421-1.214-2.089-2.586-2.977-.381-.247-.716-.54-1.403-1.157-.312-.28-1.135-1.283-.806-1.736.253-.35 1.315-.127 2.583.33 1.506.544 1.78.935 3.04 1.752a.591.591 0 0 1 .19.168.595.595 0 0 1 .069.283c.059 1.018-.383 2.384-.993 3.201" fill="#b0bec5"/><path d="M116.581 63.645c-.403-.756-.8-1.524-1.502-2.015-.619-.433-1.537-.701-2.162-1.192-.594-.466-1.212-1.098-1.211-1.853 0-.089.01-.186.072-.25.603-.631 4.466.271 6.061 1.528.074.059.149.12.198.201.074.121.042.252.023.392-.143 1.038-1.112 2.804-1.479 3.189" fill="#b0bec5"/><path d="M118.094 56.882c-.155-.794-.646-1.477-1.285-1.889s-1.347-.987-2.017-1.487c-.609-.454-1.233-.962-1.318-1.717-.019-.169-.002-.362.129-.471a.488.488 0 0 1 .243-.102c1.793-.262 3.383.523 4.887 1.373.466.263.93.544 1.048 1.066.131.579-.229 1.147-.549 1.647-.389.608-.806 1.146-1.138 1.58" fill="#b0bec5"/><path d="M66.952 15.429c-.446-4.681-3.146-5.622-6.795-7.732-1.371-.801-2.186-2.309-3.446-3.26-1.601-1.205-3.585-2.105-5.61-2.194-2.731-.122-4.784 1.116-7.381-.349C40.683.17 36.76.068 33.572 1.41c-1.968.829-3.542 2.279-5.425 3.226-1.811.909-4.036.923-5.674 2.181-1.72 1.323-2.752 3.791-3.233 5.835-.776 3.324-.319 7.003 1.588 9.664.81 1.135 1.78 2.166 2.823 3.09.496.442.708.908 1.118 1.365l.028.019c-.264.706-.582 1.394-.818 2.11-.684 2.062-.706 4.022-.628 6.216.075 1.894.44 4.022-.264 5.854-.311.8-.729 1.39-1.215 1.87-1.305 1.263-3.112 1.705-4.724 3.089-4.99 4.281-7.418 11.877-5.076 18.141 1.869 4.992 6.857 8.648 12.244 7.705 6.674-1.167 9.772-6.933 9.772-13.385 0-2.9.005-8.377 2.59-10.317 1.188-.899 2.654-1.343 3.853-2.313 1.54-1.253 2.957-2.712 3.984-4.422 1.31-2.176 2.199-4.693 1.997-7.258-.249-3.287-2.312-6.037-5.054-7.751-1.361-.848-2.872-1.47-4.417-1.949 1.327-.802 5.033-2.742 9.254-2.27 5.274.588 9.071 2.717 12.315 6.64 0 0 3.669 2.902 5.5-.923.594-1.036.951-2.476 1.386-3.192 1.541-2.5 1.731-6.352 1.456-9.206z" fill="#ed6c30"/><path d="M37.132 35.114c0 2.097-1.408 3.796-3.146 3.796-1.734 0-3.151-1.699-3.151-3.796 0-2.099 1.417-3.794 3.151-3.794 1.738 0 3.146 1.696 3.146 3.794z" fill="#e0e0e0"/><path d="M21.601 32.634c-4.974.975-12.839 4.741-11.511 7.784.918 2.119 3.98 2.392 5.845 3.278 1.695.809 6.259 2.853 8.058 1.647 1.902-1.271 2.147-3.725 1.932-5.821-.114-1.069.131-6.498-1.049-6.955-.666-.258-1.849-.212-3.275.067z" fill="#fcc21b"/><path d="M22.481 48.244c-1.913 0-4.479-.767-7.635-2.268-.426-.208-.945-.368-1.48-.538-1.893-.611-4.478-1.449-5.588-4.012-.544-1.238-.468-2.638.21-3.933 2.105-4.012 9.754-6.673 13.125-7.338 2.045-.4 3.557-.382 4.687.062 2.317.903 2.539 3.758 2.609 8.015.005.457.005.829.027 1.026.49 4.752-1.379 7.074-3.037 8.186-.79.528-1.774.8-2.918.8zm-9.898-8.613c.45.391 1.561.75 2.339 1.004.754.24 1.479.485 2.096.776 4.525 2.162 5.722 1.758 5.722 1.758.811-.565.777-2.364.676-3.382-.03-.273-.044-.811-.059-1.475-.009-.649-.036-2.294-.169-3.365-.282.026-.646.073-1.102.163-4.229.833-8.606 3.254-9.503 4.521z" fill="#ed6c30"/><path d="M81.376 63.036c3.739 3.044 8.267 3.054 12.568 4.781.64.26 1.158.829 1.398 1.456.362.96.548 2.431-.346 3.184-.479.396-2.967.839-2.306 1.752.516.707 1.809.632 2.501.985 2.065 1.06.343 3.536-1.022 4.266-.564.297-1.799.467-1.587 1.399.179.753 1.519.716 2.104.941 2.044.8.1 3.127-1.045 3.758-1.045.575-2.204.801-3.349.971-.721.104-1.742.829-1.06 1.583.66.733 1.315.772.65 1.789-.659 1.013-2.209 1.597-3.316 1.932-1.822.564-3.753.498-5.642.64-7.492.542-16.813-1.215-21.561-7.602a24.805 24.805 0 0 1-3.89-7.809c-.113-.376-.377-1.285-.872-1.266-2.272.075 1.612 8.707 2.115 9.64 4.206 7.724 12.579 11.181 21.062 11.567 3.019.131 6.08.052 9.032-.613 1.725-.382 3.495-.857 5.034-1.742.811-.466 1.56-1.031 2.111-1.785.52-.691.593-2.02 1.226-2.566.801-.688 1.637-1.31 2.239-2.195.575-.852 1.329-1.572 1.767-2.514.296-.642.645-1.404.656-2.107.002-.343.025-.7 0-1.049-.035-.405-.351-.595-.432-.943-.112-.536.448-1.026.73-1.402.35-.467.69-1.008.805-1.583.231-1.148.142-2.425-.154-3.546-.1-.391-.353-.814-.56-1.126-.312-.471-.621-.471-.499-1.064.121-.574.362-1.14.447-1.729.188-1.257.181-2.575-.243-3.786-.449-1.285-2.196-2.34-4.106-2.828-1.508-.385-4.5-.542-7.5-1.167-1.864-.388-4.832-1.412-5.542-1.708-.711-.297-2.125-.827-2.752-.82-.706.008-.078 1.152 1.339 2.306z" fill="#b0bec5"/></g></svg>