<svg xmlns="http://www.w3.org/2000/svg" viewBox="0 0 128 128"><g id="图层_1"><path d="M123.925 63.348c-.057-.544-.199-.954-.305-1.163-.395.058-.977.257-1.41.41-.467.161-.905.305-1.285.4-2.417.572-5.479.313-8.197-.038l-.874-.116c-.295-.038-.618-.066-.961-.096l-.877-.086 1.815 7.402c.243.106.719.257 1.596.41 1.78.295 4.273.151 5.83-.352 2.739-.884 4.925-4.046 4.668-6.771z" fill="#bdbdbd"/><path d="M90.09 90.548c1.496.287 1.332 7.292 1.391 8.33.085 1.667-.548 7.6 1.41 8.336 1.722.647 4.609.537 5.896.233 1.833-.448 1.854-1.939 1.854-3.606 0-1.733.091-3.467.147-5.202.067-1.77.165-5.96.933-6.04-5.598-1.874-11.771-2.077-11.631-2.051z" fill="#b0bec5"/><path d="M116.45 101.017c-.323-5.116-.257-10.212-.376-15.348-.176-8.04-1.533-16.242-5.816-22.655-1.821-2.724-4.372-4.877-7.249-6.45-3.687-2.009-8.013-3.561-12.253-4.714-5.955-1.601-12.252-2.782-18.939-4.268-3.172-.697-6.555-1.974-9.917-2.983-2.136-.619-4.212-1.705-6.322-2.629-1.702-.725-2.949-.944-4.702-1.191-3.663-.448-7.648-1.609-10.506.285-3.26 2.097-6.574 4.363-8.158 7.795-1.59 3.409-3.171 7.317-3.82 11.059-.467 2.888-.074 5.718 1.467 8.623 1.811 3.391 4.938 6.269 7.869 9.097 11.242 10.844 10.67 26.315 10.586 38.718-.019 1.83-.078 4.668 1.296 5.907 1.906 1.695 5.976 1.271 8.199.743 3.484-.828 2.574-4.782 2.574-7.04 0-2.334-.18-13.108-.18-14.223 0-1.4-.01-3.246.962-4.383.895-1.048 3.553-.114 5.441 1.981 1.196 1.327 1.787 2.535 2.211 4.212 1.605 6.401 1.429 12.061 1.229 18.625-.033.954-.182 3.485 1.755 4.335 2.706 1.187 9.915 1.228 10.778-2.498.404-1.705.052-3.477.009-5.202-.118-4.409-.118-8.83.205-13.233.271-3.704.399-8.306 2-11.716.842-1.782 2.842-2.786 4.87-2.818 2.624.032 6.461.23 12.059 2.103 1.94.701 3.072 2.774 3.596 4.64.467 1.627.568 3.324.558 5.009 0 1.611-.366 5.935 2.074 6.447 1.41.296 2.857.205 4.333.071 4.267-.391 4.371-4.973 4.167-8.299z" fill="#e0e0e0"/><path d="M45.77 90.546c7.377-1.841 11.47-2.928 16.643-6.188 6.728-4.239 10.255-8.623 12.453-12.371.733-1.249 3.216-5.582 1.06-6.242-1.246-.183-6.068 2.569-7.913 3.431-8.779 4.099-26.338 13.115-26.176 13.338 1.74 2.403 2.921 5.176 3.933 8.032z" fill="#b0bec5"/><path d="M31.246 24.877c-.012-.363-.015-.714-.039-1.06-.097-1.605-.314-3.418-.837-4.989-.646-1.928-1.521-4.055-2.487-5.854-1.261-2.339-2.775-4.803-4.825-6.546-1.392-1.178-4.951-4.195-1.404-5.234 5.315-1.548 11.427 1.413 15.219 5.021 4.01 3.819 7.169 10.134 7.631 15.64.265 3.198-2.879 3.452-5.23 4.069-.977.26-7.2 2.159-7.709.903-.277-.633-.311-1.29-.319-1.95z" fill="#fcc21b"/><path d="M47.528 18.513s-8.465.865-16.602 7.651S7.391 40.626 4.728 53.44c-3.032 14.591 4.069 31.743 23.48 32.067s39.402-5.244 47.349-19.102 4.189-29.997-.924-36.379c-5.112-6.38-14.926-13.27-27.105-11.513z" fill="#e0e0e0"/><path d="M15.738 82.237c.898 4.512 1.383 8.435.1 13.398-.228.881-.124 2.98 2.901 2.687 3.55-.344 8.952-1.625 13.237-5.218 3.553-2.979 7.219-8.892 4.283-13.008-2.136-2.995-12.677-4.551-17.933-2.314-1.579.673-2.962 2.572-2.588 4.455z" fill="#bdbdbd"/><path d="M65.383 22.741c-.266-1.933 3.459.616 5.652 1.866 5.338 3.043 9.256 4.799 15.158 6.506 1.223.354 2.478.698 3.524 1.423 1.046.725 1.862 1.922 1.765 3.192-.134 1.767-1.853 2.923-3.397 3.792-2.477 1.393-5.026 2.771-7.819 3.298s-5.911.081-8.021-1.823c-1.24-1.118-2.037-2.637-2.732-4.155a50.97 50.97 0 0 1-4.13-14.099z" fill="#e0e0e0"/><path d="M40.088 21.487c.667-1.834-3.582 1.245-5.99 2.005-5.859 1.848-10.06 2.739-16.19 3.161-1.27.088-2.569.16-3.745.648s-2.226 1.486-2.399 2.747c-.241 1.755 1.195 3.248 2.521 4.423 2.127 1.885 4.328 3.769 6.947 4.874s5.761 1.326 8.225-.089c1.448-.832 2.547-2.148 3.547-3.485 2.945-3.935 5.386-9.672 7.084-14.284z" fill="#e0e0e0"/><path d="M70.19 25.859c.029-.362.048-.713.088-1.057.17-1.599.471-3.399 1.065-4.945.734-1.896 1.706-3.981 2.753-5.734 1.367-2.278 2.993-4.67 5.121-6.317 1.445-1.113 5.139-3.963 1.643-5.164-5.239-1.79-11.48.886-15.434 4.316-4.181 3.63-7.627 9.794-8.342 15.273-.412 3.182 2.717 3.581 5.037 4.306.964.305 7.093 2.487 7.659 1.257.307-.621.372-1.276.41-1.935z" fill="#fcc21b"/><g><g><path d="M25.508 70.938c.316.018.624 0 .903-.106.922-.323 1.375-1.533.874-2.362-.485-.811-1.588-1.221-2.372-1.611-.967-.476-2.401-.99-3.13-1.79-.604-.667-.515-1.591-.6-2.42-.155-1.344-.21-2.706-.329-4.059-.123-1.372-.881-1.286-2.029-1.286-.471 0-1.067-.114-1.304.362-.157.285.004 1.143.004 1.488 0 1.828.558 4.162-.307 5.867-.851 1.667-4.738 2.515-3.456 4.955.967 1.838 2.758.801 3.958-.173.539-.436 1.173-1.294 1.934-1.312.66-.01 1.088.522 1.565.884.598.458 1.284.687 1.993.934.668.218 1.511.571 2.296.629z" fill="#2f2f2f"/></g><g><g><g><g><g><path d="M12.767 57.782c.043 1.322.896 2.732 2.239 3.638 1.09.733 2.658 1.153 4.192 1.201 1.544.066 3.125-.229 4.268-.868 1.41-.801 2.362-2.133 2.517-3.459.159-1.257-.089-2.553-1.429-3.475-.727-.526-1.665-.886-2.633-1.105a12.67 12.67 0 0 0-2.305-.325 14.875 14.875 0 0 0-2.439.133c-.972.143-1.934.428-2.705.896-1.398.819-1.752 2.085-1.705 3.364z" fill="#2f2f2f"/></g></g></g></g></g></g><g><path d="M45.717 43.898c.047 3.168 2.358 5.703 5.174 5.656 2.809-.037 5.047-2.64 4.998-5.809-.046-3.168-2.37-5.701-5.174-5.654-2.808.048-5.049 2.639-4.998 5.807z" fill="#2f2f2f"/></g></g></svg>