<svg id="レイヤー_1" xmlns="http://www.w3.org/2000/svg" xmlns:xlink="http://www.w3.org/1999/xlink" viewBox="0 0 128 128"><g><g><g fill="#855c52"><path d="M1.775 53.629c.316.025.711-.034 1.223-.2 1.693-.537 2.908-1.675 4.262-2.763 4.422-3.521 8.498-6.142 13.957-7.646 1.416-.387 2.834-.446 4.215-.833 2.766-.787 1.852-4.081.629-5.961-1.728-2.667-5.615-.873-7.971.075-5.816 2.32-11.832 6.337-15.387 11.622-1.008 1.499-3.109 5.57-.928 5.706z"/><path d="M20.279 3.256c.256.182.533.486.818.934.963 1.483 1.184 3.148 1.555 4.832 1.184 5.531 2.676 10.148 5.955 14.767.832 1.188 1.896 2.135 2.723 3.309 1.65 2.356-1.158 4.326-3.283 5.023-3.027.958-4.904-2.893-6.121-5.113-3.029-5.485-5.145-12.414-4.559-18.746.17-1.791 1.133-6.285 2.912-5.006z"/><path d="M114.432 102.627c2.266-.301 5.941 1.66 7.682 3.063.988.798 3.037 4.206 4.252 3.399 2.416-1.6-1.203-5.755-2.326-6.863-2.086-2.062-5-3.219-7.812-3.846l-1.796 4.247z"/><path d="M114.172 89.07c2.025-.722 3.951-1.945 5.379-3.55.713-.802 1.324-1.734 1.689-2.752.281-.803.281-2.603 1.535-2.583 2.055.035 1.072 4.343.721 5.355-.652 1.875-1.725 3.825-3.158 5.219-1.113 1.074-2.096 2.463-3.805 2.347-1.275-.075-4.146-2.396-2.732-3.84.07-.071.199-.13.371-.196z"/><g><path d="M34.93 45.392c-.115 1.378-.104 2.813-.455 4.001-.838 2.768-2.363 5.118-4.643 6.909-1.424 1.123-4.512 1.514-4.453 3.855.061 1.809 2.146 2.587 3.676 2.643 4.598.175 8.613-4.669 10.584-8.294.484-.902.912-1.829 1.254-2.793.475-1.312 3.297-8.679 2.525-9.475-.25-.236-1.072-.472-1.393-.552-1.902-.497-4.227-1.585-5.826.115-.892.948-1.148 2.242-1.269 3.591z"/><path d="M51.365 46.164c-3.033 2.998-5.721 6.486-7.541 10.363-.977 2.075-1.779 4.275-2.24 6.527-.236 1.158-.402 2.372-.258 3.555.287 2.326 2.393 2.502 4.117 1.519 2.141-1.224 2.217-3.645 3.203-5.68 2.383-4.964 5.877-8.77 9.441-12.86 1.086-1.243 2.291-2.572 1.881-4.362-1.062-4.598-6.833-.812-8.603.938z"/><path d="M65.219 58.016c-4.334 1.595-8.514 3.906-11.857 7.119-1.682 1.605-3.135 3.444-4.197 5.505-.5.969-1.033 1.815-1.033 2.913-.01 1.345.101 2.437 1.504 2.868 4.562 1.389 7.16-5.529 10.299-7.711 3.059-2.121 6.428-4.236 10.088-5.068.852-.191 1.637-.286 2.439-.697 1.711-.872 1.771-2.316.844-3.9-1.47-2.483-4.638-2.308-8.087-1.029z"/><path d="M70.242 72.535c-4.482 1.168-8.891 3.068-12.539 5.956-2.256 1.775-5.982 5.054-5.887 8.212.125 4.092 5.309 1.023 6.857-.301 1.49-1.282 2.643-2.736 4.367-3.8 2.227-1.384 4.744-2.221 7.27-2.877 1.125-.297 2.25-.547 3.381-.803 2.736-.606 6.268-.747 4.498-4.572-1.216-2.621-4.388-2.742-7.947-1.815z"/><path d="M103.678 106.874c-.016 1.384-.176 2.808.076 4.031.561 2.828 1.85 5.314 3.951 7.314 1.082 1.032 3.689 2.697 3.098 4.518-.812 2.482-4.578 1.885-6.188.883-2.982-1.881-5.119-4.929-6.498-8.128-.4-.932-.736-1.9-.982-2.902-.342-1.344-2.457-8.939-1.594-9.662.256-.226 1.102-.365 1.424-.421 1.955-.305 4.373-1.168 5.801.682.796 1.023.916 2.331.912 3.685z"/><path d="M92.572 104.522c-.164 4.267-.908 8.588-2.527 12.56-.797 1.96-1.775 3.881-2.967 5.625-1.168 1.705-2.066 2.356-4.162 2.251-4.99-.255-1.424-5.078-.496-7.405 2.035-5.124 2.477-10.267 3.062-15.662.191-1.64.352-3.42 1.955-4.332 4.092-2.336 5.215 4.472 5.135 6.963z"/><path d="M84.078 97.624c-1.434 4.382-3.574 8.639-6.656 12.108-1.285 1.434-2.734 2.731-4.348 3.784-1.184.768-2.832 2.002-4.326 1.911-1.299-.08-3.084-1.339-3.084-2.742 0-1.425 1.469-2.537 2.422-3.391 1.65-1.493 3.424-2.877 4.678-4.737 2.156-3.219 4.793-7.686 5.512-11.536.164-.857.223-1.635.602-2.452.816-1.739 2.244-1.86 3.861-.993 2.542 1.364 2.488 4.543 1.339 8.048z"/><path d="M78.756 89.863c-3.131 3.424-6.846 6.442-11.106 8.327-2.338 1.023-5.01 1.855-7.586 1.845-1.484-.005-3.791-.571-3.973-2.301-.391-3.811 4.76-3.94 7.377-4.808 4.762-1.57 8.092-5.381 11.24-9.101 1.805-2.135 3.574-5.189 6.141-1.84 1.747 2.287.378 5.161-2.093 7.878z"/></g><path d="M39.521 25.753c.639-1.219 1.441-2.411 1.781-3.605.793-2.787.793-5.584-.145-8.322-.682-1.985-2.873-4.036-1.881-6.367 1.469-3.47 5.877 1.174 6.799 2.607 2.029 3.108 2.607 6.934 2.336 10.594a20.02 20.02 0 0 1-.451 3.018c-.318 1.358-1.936 9.079-3.023 9.325-.33.075-1.156-.181-1.48-.291-1.854-.616-4.4-.968-4.822-3.259-.231-1.283.252-2.502.886-3.7z"/><path d="M53.309 30.706c.719-4.201 2.057-8.398 4.203-12.102a31.215 31.215 0 0 1 3.443-4.879c1.283-1.464 3.65-3.094 5.695-2.006 2.994 1.595-.574 5.766-1.527 7.46-2.713 4.793-3.842 9.826-5.17 15.092-.4 1.6-.803 3.349-2.506 4.03-4.383 1.757-4.568-5.142-4.138-7.595z"/><path d="M63.975 35.334c2.236-4.046 5.154-7.821 8.838-10.649 1.836-1.409 3.877-2.572 6.082-3.304 2.707-.907 6.379-.646 4.795 3.264-1.203 2.983-5.105 3.811-7.291 6.002-2.728 2.747-6.156 6.648-7.586 10.288-.312.802-.531 1.564-1.059 2.296-1.123 1.56-2.557 1.398-3.98.246-2.237-1.821-1.579-4.934.201-8.143z"/><path d="M71.42 44.499c2.912-3.614 6.441-6.854 10.574-9.004 2.064-1.068 4.285-1.86 6.592-2.201 1.299-.196 3.094.155 3.605 1.528 1.113 2.979-3.775 4.898-5.707 5.671-4.648 1.86-7.74 5.871-10.648 9.767-1.684 2.246-3.248 5.405-6.012 2.227-1.898-2.173-.717-5.125 1.596-7.988z"/><path d="M76.338 55.835c2.908-3.615 6.438-6.854 10.574-9.005 2.07-1.067 4.285-1.86 6.592-2.201 1.295-.19 3.09.156 3.611 1.53 1.113 2.983-3.781 4.898-5.705 5.67-4.654 1.865-7.742 5.871-10.656 9.771-1.684 2.241-3.248 5.399-6.01 2.221-1.896-2.17-.713-5.124 1.594-7.986z"/><path d="M100.273 87.347c2.828-2.413 5.34-5.18 7.129-8.444 1.48-2.707 3.938-8.151 2.236-11.18-2.461-4.407-6.393 5.18-7.275 6.513-2.144 3.224-5.273 7.365-8.553 9.495-.736.472-1.439.832-2.035 1.495-1.299 1.418-.867 2.792.547 3.955 2.24 1.83 5.158.556 7.951-1.834z"/><path d="M87.865 78.115c3.879-2.532 7.449-5.735 9.977-9.636 1.084-1.664 2.406-3.796 2.658-5.806.16-1.289-.201-4.167-1.736-4.522-2.996-.712-4.436 3.425-5.445 5.364-2.309 4.452-6.602 7.135-10.752 9.656-2.418 1.434-5.701 2.692-2.805 5.762 1.967 2.095 5.019 1.193 8.103-.818z"/></g><g><g><g><defs><path id="SVGID_1_" d="M107.092 86.058c-3.033.135-6.111.495-8.729.055-6.332-1.067-8.568-7.56-10.674-12.755-2.031-5.004-3.039-10.328-4.137-15.587-.637-3.019-1.324-6.042-2.246-8.984-2.316-7.426-6.904-13.809-13.672-17.774-3.525-2.06-7.637-3.894-11.592-4.943-5.23-1.378-10.648-2.13-16.014-2.712-6.016-.651-12.68-.226-16.887 4.692-2.682 3.134-3.193 8.153-1.74 11.934 3.471 9.004 15.553 7.546 23.205 8.524 3.658.465 7.424 1.508 10.457 3.684 2.338 1.679 4.277 4.427 5.355 7.095 3.209 7.981 4.045 16.489 6.531 24.437 1.656 5.319 3.932 10.438 7.777 15.13 7.145 8.725 16.982 11.567 27.941 10.118 4.172-.557 8.242-.752 11.973-2.988 3.484-2.096 6.207-5.695 5.775-9.932-.201-2.041-1.107-5.023-2.432-6.638-2.688-3.297-6.751-3.538-10.891-3.356z"/></defs><use xlink:href="#SVGID_1_" overflow="visible" fill="#ed6c30"/><clipPath id="SVGID_2_"><use xlink:href="#SVGID_1_" overflow="visible"/></clipPath></g></g></g></g><path d="M30.533 42.744s-7.269-3.64-5.34-9.627c1.896-5.91 7.269-6.206 7.269-6.206l-1.929 15.833z" fill="#f79329"/><path d="M36.887 30.581c-1.219 4.246-1.775 13.567-1.775 13.567l5.914-.336.562-9.381-4.701-3.85z" fill="#f79329"/><path fill="#f79329" d="M47.164 36.342l-1.439 8.112 5.64 1.71.932-6.829z"/><path fill="#f79329" d="M57.361 41.736l-2.437 6.142 5.135 3.425 2.179-4.222z"/><path fill="#f79329" d="M66.828 51.869l-4.017 2.768 2.347 6.418 4.02-1.485z"/><path fill="#f79329" d="M70.812 64.839l-4.771 2.292 1.504 6.207 4.041-1.595z"/><path fill="#f79329" d="M72.824 76.416l-3.685 2.142 1.529 6.046 3.088-2.121z"/><path d="M75.336 86.82l-3.068 2.195s3.279 4.854 3.674 4.854c.387 0 2.156-1.806 2.156-1.806l-2.762-5.243z" fill="#f79329"/><path fill="#f79329" d="M80.664 94.926l-2.15 2.693 3.765 3.198 1.901-2.912z"/></g></svg>