<svg id="レイヤー_1" xmlns="http://www.w3.org/2000/svg" viewBox="0 0 128 128"><g><g><g><path d="M59.93 10.835s3.007.941 4.096 1.427l26.837 28.299s.938 1.288 3.014 1.912l-.868 8.454-17.165 3.971-24.256-17.731-4.54-18.44 12.882-7.892z" fill="#855c52"/><path d="M7.295 47.958s-.673-5.685.319-10.082l22.803-25.952s.837-.563 4.229-1.33l9.565 3.877-3.261 27.093L13.856 63.41 7.295 47.958z" fill="#855c52"/><g><g fill="#f79329"><path d="M126.173 44.497c-1.418-.727-3.05.377-4.282.976-6.365 3.049-11.68 5.106-18.919 3.426-1.962-2.301-4.405-4.194-7.133-5.63-.802-.42-1.803-.958-2.742-.819-.354.057-.524.34-.736.603-.888 1.068-1.535 2.358-2.543 3.324-.959.909-2.453 1.556-3.92 1.769-.138.008-.275.026-.418.03-6.529 0-9.22-6.719-10.833-10.728-.256-.638-.487-1.223-.71-1.702-1.077-2.296-3.146-3.51-6.427-5.311-.539-.297-1.082-.594-1.622-.899-2.025-1.152-3.596-2.354-4.806-3.68-2.362-2.593-3.399-5.669-3.085-9.153.187-2.097.883-4.087 1.933-5.869-2.224-.648-7.393-1.977-12.829-1.977-4.813 0-9.808 1.046-12.455 1.737a14.205 14.205 0 0 1 2.057 6.118c.311 3.475-.731 6.551-3.094 9.149-1.21 1.32-2.775 2.527-4.801 3.675-.536.305-1.077.603-1.618.896-3.28 1.804-5.346 3.019-6.428 5.323-.226.479-.456 1.065-.713 1.703-1.614 4.007-4.314 10.718-10.878 10.718a9.857 9.857 0 0 1-1.876-.217c-.018.954-.045 1.902 0 2.86.63 12.04 4.544 24.433 13.156 32.137 1.844 1.651 3.928 3.012 6.118 4.22 0 0-.134 15.205-.284 19.327-.124 3.573-1.765 11.179 2.177 13.449 4.871 2.81 14.837 3.342 18.303-1.854 1.472-2.216 1.769-4.929 1.769-7.499.005-2.948.174-4.114.174-7.066 0-1.25-.471-3.568.466-4.547.558-.586 1.297-.453 2.007-.449 1.135.005 2.278-.12 3.408-.235 6.361-.646 5.84 2.393 6.379 6.893.391 3.267-.222 6.521-.479 9.806-.336 4.322 3.653 5.904 7.511 6.095 4.104.204 9.188-.248 12.82-2.314 3.802-2.167 2.322-5.585 2.18-9.109-.097-2.46-.302-4.916-.487-7.372-.15-2.004-.51-3.989-.407-6.002.097-1.755-.289-4.787 1.932-5.522 1.57-.523 3.333-.004 4.956-.307 2.402-.442 2.233 4.34 2.305 5.621.169 3.094-.282 5.315 2.58 7.204 3.404 2.243 9.056 1.649 12.74.567 6.685-1.969 4.456-7.696 4.782-12.953.319-5.072.297-10.089-.035-15.156-.351-5.27-1.042-10.634-2.584-15.647 3.023.82 6.312.837 9.255-.031 3.909-1.162 6.96-3.803 8.432-7.518.683-1.744 2.084-6.846-.296-8.06z"/><path d="M6.302 43.052c.86.554 1.818.895 2.882.904h.031c.159 0 .306-.031.461-.044.11-.018.223-.014.327-.036.206-.04.396-.106.591-.172.053-.018.105-.027.154-.049.235-.093.466-.213.684-.346l.013-.004c2.899-1.795 4.328-6.854 5.496-9.344 1.986-4.243 5.984-5.936 9.78-8.091 1.452-.824 2.76-1.755 3.768-2.854 1.403-1.543 2.221-3.436 2.008-5.909v-.022a9.331 9.331 0 0 0-.254-1.453c-.062-.24-.155-.475-.234-.709-.071-.209-.128-.417-.211-.622-.144-.34-.311-.669-.485-.992-.044-.08-.079-.16-.124-.231a11.294 11.294 0 0 0-.674-1.024c-.023-.026-.035-.057-.058-.084-.012-.017-.026-.027-.039-.044-.32-.421-.666-.811-1.046-1.179l-.107-.106a9.937 9.937 0 0 0-1.14-.94c-.073-.053-.146-.11-.221-.163a11.183 11.183 0 0 0-1.138-.656c-.126-.062-.241-.137-.36-.191a9.817 9.817 0 0 0-1.334-.478c-.079-.027-.156-.066-.24-.089a22.62 22.62 0 0 0-2.802-.514c-.292-.035-.576-.035-.873-.057-.492-.04-.996-.097-1.48-.097-.11 0-.217.017-.324.021-.336.005-.664.04-.997.062-.519.035-1.036.08-1.541.16-.352.057-.692.133-1.034.208-.461.102-.922.214-1.369.35-.344.104-.681.22-1.012.343-.427.155-.84.333-1.247.519-.322.152-.647.307-.962.475-.391.209-.761.444-1.134.679-.303.19-.608.376-.896.584-.364.262-.706.554-1.047.837-.267.227-.544.436-.803.674-.363.346-.7.718-1.042 1.091-.398.434-.774.886-1.135 1.356-.287.373-.58.736-.841 1.13-.225.342-.423.705-.633 1.065-.199.341-.407.673-.588 1.027-.201.381-.369.78-.547 1.175-.154.35-.311.7-.452 1.06-.159.412-.301.837-.434 1.263-.115.364-.227.723-.328 1.091-.115.439-.223.886-.315 1.338a23.5 23.5 0 0 0-.195 1.108c-.074.461-.14.927-.19 1.4-.037.364-.049.737-.065 1.108-.028.488-.056.972-.05 1.463.005.356.035.71.053 1.064.031.514.049 1.028.112 1.548.028.27.091.544.136.82.088.567.155 1.134.283 1.702.634 2.78 2.367 7.017 5.2 8.861l.022.014z"/><path d="M63.281 13.502c-.16.307-.301.612-.43.931-.066.169-.119.342-.178.514-.084.253-.173.502-.235.758a8.992 8.992 0 0 0-.217 1.246c-.004.044-.022.088-.022.133-.226 2.487.586 4.388 1.996 5.931 1.02 1.104 2.34 2.031 3.775 2.854 2.084 1.184 4.206 2.235 6.046 3.631 1.516 1.156 2.842 2.54 3.742 4.46 1.072 2.3 2.376 6.782 4.85 8.869.03.027.062.045.094.072.176.141.358.284.544.399.066.04.137.066.204.102.16.093.319.182.492.252.098.04.203.062.306.093.146.043.288.098.438.128.128.027.262.027.39.036.138.018.267.044.403.044h.027c4.583-.018 7.275-6.152 8.1-9.779.074-.319.101-.642.163-.966.098-.536.204-1.077.267-1.618.049-.385.058-.767.084-1.148.031-.497.07-.993.074-1.49 0-.381-.021-.753-.034-1.134a20.999 20.999 0 0 0-.241-2.563c-.07-.487-.159-.97-.262-1.453a22.297 22.297 0 0 0-.244-1.029c-.123-.488-.27-.966-.425-1.445-.107-.31-.208-.629-.328-.936a19.71 19.71 0 0 0-.62-1.454c-.125-.27-.24-.545-.373-.811a22.89 22.89 0 0 0-.882-1.543c-.119-.186-.217-.381-.342-.567a20.196 20.196 0 0 0-3.12-3.697c-.164-.155-.345-.288-.514-.434-.436-.372-.87-.735-1.335-1.072-.235-.165-.474-.311-.713-.466a19.433 19.433 0 0 0-1.317-.79 14.03 14.03 0 0 0-.837-.407c-.443-.209-.9-.404-1.365-.576-.302-.11-.612-.216-.922-.309a19.49 19.49 0 0 0-1.45-.377c-.323-.066-.642-.137-.975-.19a16.628 16.628 0 0 0-1.583-.164c-.323-.022-.637-.057-.97-.062-.11-.004-.213-.021-.324-.021-.479 0-.975.056-1.463.093-.302.026-.599.026-.904.061-.913.112-1.844.275-2.788.514-.562.146-1.108.355-1.634.594-.126.062-.249.137-.373.204-.404.205-.795.436-1.171.692-.097.071-.195.147-.297.222-.394.297-.767.616-1.122.967-.052.053-.106.102-.158.159a11.56 11.56 0 0 0-1.083 1.304l-.018.018s-.005.014-.008.018c-.221.319-.417.647-.603.988-.04.073-.08.144-.115.214z"/></g><g><path d="M27.459 62.565c-2.787-.022-5.038-2.633-5.021-5.851.018-3.201 2.288-5.79 5.07-5.776 2.781.014 5.027 2.642 5.01 5.847-.009 3.213-2.289 5.788-5.059 5.78zm29.917 18.967c-.244.599-.842.954-1.276 1.21l-.195.115c-2.145 1.294-5.372 1.108-7.584.071l-.233-.106c-.308-.146-.443-.213-.64-.213-.306.027-.602.155-.86.266a9.169 9.169 0 0 1-.602.231c-2.146.683-4.495 1.126-6.667.305-.604-.225-1.409-.695-1.862-1.324-.317-.444-.442-1.038-.315-1.535.111-.425.387-.761.78-.956.775-.373 1.64-.045 2.194.252 1.383.741 3.764.793 4.907-.43.395-.425.58-1.033.541-1.809-.004-.071 0-.137 0-.204-1.156-.053-2.274-.24-3.369-.639-3.372-1.214-4.313-4.294-2.962-7.167.2-.43.44-.825.714-1.184 1.441-1.87 3.795-2.722 6.495-2.846 3.129-.15 7.233.993 8.871 3.702 1.063 1.768.575 4.486-.78 6.015-1.252 1.419-3.495 1.822-5.56 1.995-.015.727-.019 1.512.273 2.013l.458.373c1.315.9 3.386 1.082 4.817.274l.249-.141c.218-.129.435-.248.683-.342.665-.252 1.406-.049 1.787.518.296.444.351 1.038.136 1.556zm9.783-18.967c-2.771.008-5.044-2.567-5.053-5.78-.018-3.205 2.229-5.833 5.015-5.847 2.774-.014 5.048 2.575 5.065 5.776.022 3.218-2.234 5.829-5.027 5.851z" fill="#2f2f2f"/></g></g></g><path d="M74.181 87.559c-4.06 3.431-10.133 7.72-23.196 7.72-12.022 0-19.149-5.545-19.149-5.545s8.156 2.613 15.78 2.613c4.442 0 8.144-.354 11.911-1.385 5.82-1.592 10.235-4.71 12.327-6.197 3.051-2.172 9.287-7.407 13.047-19.802-.001-.001-.547 14.003-10.72 22.596z" fill="#006ca2"/></g><g><path d="M56.835 98.587c0 2.582-2.225 4.679-4.963 4.679-2.74 0-4.965-2.097-4.965-4.679 0-2.584 2.225-4.681 4.965-4.681 2.738 0 4.963 2.098 4.963 4.681z" fill="#78a3ad"/><ellipse cx="51.799" cy="96.034" rx="1.009" ry=".954" fill="#2f2f2f"/></g></g></svg>