<svg xmlns="http://www.w3.org/2000/svg" xmlns:xlink="http://www.w3.org/1999/xlink" viewBox="0 0 128 128"><g id="图层_1"><g fill="#757575"><g/></g><g><g><path fill="#424242" d="M115.363 69.682l10.813-1.379-6.703 8.398z"/></g><g><path d="M27.474 45.51a2.494 2.494 0 0 1-2.068-1.093c-9.77-14.352-19.927-9.847-20.027-9.8a2.498 2.498 0 0 1-3.321-1.213 2.501 2.501 0 0 1 1.214-3.321c.14-.065 14.138-6.297 26.268 11.521a2.5 2.5 0 0 1-2.066 3.906z" fill="#424242"/></g><g><path d="M43.073 39.713a2.503 2.503 0 0 1-2.478-2.185c-2.154-16.936-12.682-17.26-13.129-17.265a2.51 2.51 0 0 1-2.481-2.506 2.49 2.49 0 0 1 2.47-2.494h.002c.246 0 15.373.207 18.1 21.634a2.5 2.5 0 0 1-2.484 2.816z" fill="#424242"/></g><g><path d="M60.651 15.9c3.601-3.231 8.593-4.215 13.353-2.631 2.035.668 3.83 1.674 5.339 2.985 12.636 10.982 5.821 31.448-.34 47.877-.039.103-2.805 8.475-5.787 9.12-2.429.525-5.252-3.094-5.252-3.094-.126-.124-3.126-3.979-3.461-4.496-5.348-7.815-8.923-16.509-10.637-25.836a30.662 30.662 0 0 1-.467-6.752c.03-.919.104-1.846.229-2.782.112-.869.259-1.738.447-2.598.939-4.151 2.862-8.216 6.192-11.434l.384-.359z" fill="#bdbdbd"/></g><g><path d="M99.006 18.128c5.359-.63 10.54 1.682 13.86 6.186 1.425 1.918 2.414 3.988 2.947 6.152 4.456 18.131-14.911 32.401-31.087 43.413-.102.069-8.004 5.92-11.136 4.591-2.551-1.083-2.798-6.196-2.798-6.196-.035-.194-.291-5.636-.264-6.322.15-10.56 2.481-20.781 6.915-30.383a34.2 34.2 0 0 1 3.915-6.454 31.078 31.078 0 0 1 1.997-2.389 34.532 34.532 0 0 1 2.077-2.08c3.524-3.179 7.89-5.648 12.993-6.44l.581-.078z" fill="#eceff1"/></g><g><defs><ellipse id="SVGID_1_" transform="rotate(-25.163 97.652 83.316)" cx="97.657" cy="83.318" rx="23.416" ry="18.784"/></defs><use xlink:href="#SVGID_1_" overflow="visible" fill="#fcc21b"/><clipPath id="SVGID_2_"><use xlink:href="#SVGID_1_" overflow="visible"/></clipPath><g clip-path="url(#SVGID_2_)"><ellipse transform="rotate(64.837 96.957 83.42)" cx="96.957" cy="83.418" rx="23.416" ry="18.784" fill="#424242"/></g><g clip-path="url(#SVGID_2_)"><ellipse transform="rotate(64.837 88.424 86.67)" cx="88.423" cy="86.668" rx="23.416" ry="18.784" fill="#fcc21b"/></g><g clip-path="url(#SVGID_2_)"><ellipse transform="rotate(64.837 78.457 91.841)" cx="78.457" cy="91.839" rx="23.416" ry="18.784" fill="#424242"/></g><g clip-path="url(#SVGID_2_)"><ellipse transform="rotate(64.837 68.747 95.761)" cx="68.747" cy="95.759" rx="23.416" ry="18.784" fill="#fcc21b"/></g></g><g><path d="M42.403 97.963c-2.455 0-4.001-.289-4.171-.322a2.501 2.501 0 0 1-1.971-2.936 2.507 2.507 0 0 1 2.927-1.973c.16.031 9.897 1.741 19.896-4.986a2.5 2.5 0 1 1 2.791 4.149c-7.613 5.121-15.03 6.068-19.472 6.068z" fill="#424242"/></g><g><path d="M46.543 108.259a2.501 2.501 0 0 1-.447-4.959c.161-.031 9.854-1.976 16.724-11.874a2.5 2.5 0 1 1 4.108 2.85c-8.121 11.703-19.46 13.858-19.938 13.944a2.63 2.63 0 0 1-.447.039z" fill="#424242"/></g><g><path d="M68.949 115.474a2.5 2.5 0 0 1-2.431-3.094c.033-.14 2.247-9.608-.423-21.262a2.499 2.499 0 0 1 1.878-2.995 2.497 2.497 0 0 1 2.995 1.878c2.955 12.894.512 23.138.406 23.567a2.5 2.5 0 0 1-2.425 1.906z" fill="#424242"/></g><g><path d="M78.241 115.398a2.5 2.5 0 0 1-2.478-2.85c.017-.121 1.299-9.771-2.506-21.119a2.5 2.5 0 1 1 4.74-1.59c4.205 12.542 2.778 22.977 2.716 23.414a2.5 2.5 0 0 1-2.472 2.145z" fill="#424242"/></g><g><g><path d="M83.852 73.305c-.553-.75.635-3.06-.035-3.667-.684-.619-2.87.793-3.652.327-.787-.469-.576-3.059-1.439-3.371-.857-.31-2.363 1.814-3.271 1.662-.896-.15-1.615-2.651-2.539-2.646-.906.005-1.607 2.512-2.52 2.669-.892.153-2.383-1.983-3.261-1.683-.854.292-.733 2.892-1.556 3.325-.797.419-2.869-1.161-3.62-.607-.751.553.145 3-.491 3.638-.657.658-3.105-.228-3.637.502-.546.75 1.052 2.806.642 3.613-.419.825-3.022.753-3.295 1.617-.278.881 1.898 2.309 1.776 3.209-.123.913-2.598 1.723-2.555 2.633.042.916 2.579 1.482 2.794 2.372.214.885-1.782 2.555-1.393 3.392.381.818 2.939.367 3.492 1.118.553.75-.635 3.06.035 3.667.684.619 2.87-.793 3.652-.327.787.469.576 3.059 1.439 3.371.857.31 2.363-1.814 3.271-1.662.896.15 1.615 2.651 2.539 2.646.906-.005 1.607-2.512 2.52-2.669.892-.153 2.383 1.983 3.261 1.683.854-.292.733-2.892 1.556-3.325.797-.419 2.869 1.161 3.62.607.751-.553-.145-3 .491-3.638.657-.658 3.105.228 3.637-.502.546-.75-1.052-2.806-.642-3.613.419-.825 3.022-.753 3.295-1.617.278-.881-1.898-2.309-1.776-3.209.123-.913 2.598-1.723 2.555-2.633-.042-.916-2.579-1.482-2.794-2.372-.214-.885 1.782-2.555 1.393-3.392-.381-.819-2.939-.367-3.492-1.118z" fill="#ffb300"/></g></g><g><g><ellipse transform="rotate(-14.872 43.08 62.915)" cx="43.075" cy="62.913" rx="30.195" ry="27.45" fill="#fcc21b"/></g><g><g><path d="M45.385 81.008c-2.895 0-5.221-1.029-5.573-1.194a2.5 2.5 0 0 1 2.103-4.536c.075.033 3.11 1.364 5.618.34 1.35-.551 2.352-1.712 3.064-3.55a2.501 2.501 0 0 1 4.662 1.808c-1.228 3.164-3.207 5.313-5.885 6.39-1.36.546-2.728.742-3.989.742z" fill="#424242"/></g><g><path d="M53.806 55.791c.696-.266 1.423-.303 2.132-.173 1.082.196 2.117.811 2.938 1.749a6.802 6.802 0 0 1 1.227 2.095 6.6 6.6 0 0 1 .367 1.973c.062 1.269-.255 2.463-.885 3.405-.485.732-1.142 1.32-1.969 1.636-2.406.897-5.223-.731-6.277-3.679-1.057-2.938.062-6.092 2.467-7.006z" fill="#424242"/></g><g><path d="M33.168 73.563c-2.547.374-5.067-1.815-5.6-4.912-.522-3.074 1.129-5.901 3.695-6.269 2.553-.387 5.067 1.81 5.579 4.903.537 3.074-1.123 5.877-3.674 6.278z" fill="#424242"/></g></g></g></g><g><path d="M4.059-123.64s12.071-5.611 23.148 10.66" fill="none" stroke="#424242" stroke-width="5" stroke-linecap="round" stroke-miterlimit="10"/><path d="M27.207-138.227s13.117-.093 15.603 19.45" fill="none" stroke="#424242" stroke-width="5" stroke-linecap="round" stroke-miterlimit="10"/><g><defs/><use xlink:href="#SVGID_3_" overflow="visible" fill="#fcc21b"/><clipPath id="SVGID_4_"><use xlink:href="#SVGID_3_" overflow="visible"/></clipPath></g><path d="M38.449-60.802s10.671 2.097 21.765-5.368" fill="none" stroke="#424242" stroke-width="5" stroke-linecap="round" stroke-miterlimit="10"/><path d="M46.281-50.231s10.704-1.924 18.327-12.908" fill="none" stroke="#424242" stroke-width="5" stroke-linecap="round" stroke-miterlimit="10"/><path d="M68.681-43.018s2.441-9.949-.414-22.413" fill="none" stroke="#424242" stroke-width="5" stroke-linecap="round" stroke-miterlimit="10"/><path d="M77.973-43.092s1.453-10.141-2.612-22.264" fill="none" stroke="#424242" stroke-width="5" stroke-linecap="round" stroke-miterlimit="10"/><g/><g><g><path d="M40.604-78.442s8.708 4.061 12.059-4.577" fill="none" stroke="#424242" stroke-width="5" stroke-linecap="round" stroke-miterlimit="10"/></g></g></g></g></svg>