<svg id="レイヤー_1" xmlns="http://www.w3.org/2000/svg" xmlns:xlink="http://www.w3.org/1999/xlink" viewBox="0 0 128 128"><g><g><path d="M112.881 36.709c-.137-1.258-.01-2.593.205-3.735.398-2.185 1.994-4.043 1.043-6.343-.605-1.44-1.762-2.447-1.969-4.058-.387-3.01 1.867-4.868-.115-7.697-1.193-1.722-.494-3.222-.865-5.115-.252-1.248-.938-2.416-1.607-3.478-.92-1.476-5.053-1.978-6.615-1.777-.996.131-1.977.166-3.023.232-1.752.106-3.672.362-5.086 1.556-1.49 1.263-2.234 2.476-4.078 3.372-2.859 1.39-6.127 1.767-8.9 3.333-3.045 1.721-4.273 4.993-7.053 6.987-1.092.785-2.436 1.178-3.635 1.772-.74.368-1.436.71-2.158 1.077-2.213 1.107-3.666 2.392-5.178 4.35-1.443 1.863-2.959 3.851-5.199 4.792-1.504.629-2.805 1.591-4.27 2.281-2.32 1.092-4.844 2.291-7.275 3.096-2.274.76-3.9 2.119-5.774 3.609-3.31 2.644-6.326 5.976-9.08 9.183-4.211 4.894-7.578 10.895-10.332 16.709-2.738 5.769-4.832 11.871-5.879 18.189-.986 5.92-1.123 12.344 1.535 17.872 2.527 5.26 7.375 9.61 12.293 12.666 2.754 1.706 5.932 3.197 9.051 4.058 3.318.921 6.777 1.153 10.191 1.496 4.424.443 8.48.044 12.848-.514 2.881-.367 5.879-1.057 8.506-2.295 3.234-1.515 6.525-3.016 9.176-5.382 3.24-2.889 6.219-5.905 8.869-9.404 2.486-3.277 4.928-6.801 6.842-10.451 1.439-2.744 3.326-5.18 4.781-7.888 1.305-2.437 2.189-5.07 2.361-7.838.246-3.922-.848-7.98 1.727-11.348 2.457-3.217 6.727-4.339 9.086-7.622 3.535-4.889 4.088-10.798 1.893-16.281-.393-.992-.992-2.044-1.549-2.955-.435-.717-.671-1.563-.767-2.449z" fill="#006ca2"/><g><defs><path id="SVGID_1_" d="M67.23 34.454c8.518.096 17.1-.166 25.604.377 7.996.514 15.062-.654 21.42 5.14 4.064 3.695 3.621 9.767 2.619 14.67-.277 1.375-1.32 2.708-2.23 3.73-6.947 7.788-20.771 5.92-30.059 7.854-6.395 1.334-12.758 3.096-18.598 6.076-11.168 5.704-23.328 15.742-17.711 29.777 1.748 4.385 5.523 7.31 10.135 8.206 13.109 2.537 25.816-5.528 30.109-18.038 1.242-3.65 2.266-7.466 2.594-11.317.221-2.678-.918-7.395.773-9.64 1.547-2.064 8.287-1.969 9.777-.151 2.604 3.181 2.527 12.535 2.441 16.461-.125 5.578-1.383 11.156-3.373 16.362-4.037 10.556-12.197 18.405-23.232 21.506-24.623 6.907-54.875-5.971-64.508-30.321-10.18-25.72 11.881-50.861 35.299-59.012 3.383-1.177 7.018-1.581 10.662-1.701 2.79-.09 5.583-.009 8.278.021zm9.118-13.144c-4.633.06-9.008.81-12.053 3.318-1.395 1.148-2.68 1.858-3.217 3.705-.131.453-.562 1.782-.201 2.23.502.625 2.014.302 2.719.302 1.65.005 3.215-.257 4.865-.251 8.59.024 17.174.372 25.773.296 5.768-.045 11.549.458 17.307.458 3.807 0 4.461-3.423 2.578-6.298-2.256-3.443-7.502-3.252-11.09-3.514-8.734-.639-17.918-.357-26.681-.246zm28.275-3.076c2.156.236 4.291.654 6.35 1.369.527.181 1.234.705 1.746.72.967.025.836-1.485.801-2.1-.064-1.183-.73-1.948-1.303-2.96-.766-1.359-1.838-2.392-3.258-3.056-3.439-1.601-7.496-1.773-11.223-1.778-.502 0-1.006.011-1.51.016-2.793.05-5.578.282-8.355.584-2.76.297-5.609.846-7.805 2.653a11.37 11.37 0 0 0-2.697 3.242c-.482.891-.16 1.344.785 1.41 3.096.211 6.273-.055 9.389-.055 5.553 0 11.443-.649 17.08-.045zM98.176 7.667c3.125-.312 6.389-.352 9.379.56.703.211 1.56.382 2.185.785.393.256 1.057 1.223 1.58.554.191-.236.07-1.415.035-1.727-.109-.906-.248-2.094-.609-2.985-.201-.468-.549-1.067-.906-1.424-.303-.292-.855-.413-1.098-.745-.615-.861-.508-1.949-1.863-2.004-1.016-.04-2.391.343-3.307.755-.856.393-1.535 1.123-2.471 1.294-2.016.357-3.545.865-5.309 1.938-.971.594-2.586 2.054-2.439 3.337 1.051.126 2.158-.015 3.201-.151.53-.066 1.073-.132 1.622-.187z"/></defs><use xlink:href="#SVGID_1_" overflow="visible" fill="#40c0e7"/><clipPath id="SVGID_2_"><use xlink:href="#SVGID_1_" overflow="visible"/></clipPath></g></g><path d="M53.818 42.353c-10.416.8-19.236 8.825-24.848 17.071-.445.669-.857 1.264-1.213 1.984-.475.966-1.064 1.857-1.34 2.829-.207.73-.233 1.238.564 1.49.824.257 1.271-.236 1.836-.776a90.023 90.023 0 0 1 8.658-7.239c4.486-3.272 9.391-5.91 14.398-8.271 2.473-1.164 5.482-1.803 7.703-3.389 4.199-3.005-3.293-3.846-5.312-3.73a6.5 6.5 0 0 0-.446.031z" fill="#fff"/></g></svg>