<svg xmlns="http://www.w3.org/2000/svg" viewBox="0 0 128 128"><g id="图层_1"><g/><g><g/><g/><g fill="#2f2f2f"/></g><g><g/><g/><g><g/><g/></g></g><g/><g><g/><g/><g><g/><g/></g></g><g/><g/><path d="M105.616 100.403c1.179 2.811 2.444 5.671 4.359 8.066 1.032 1.298 2.315 2.476 3.896 3.041 1.698.611 3.508.351 5.123-.394 1.432-.664 2.162-1.727 2.211-3.291.121-3.996-.884-7.903-1.727-11.785-.813-3.735-1.208-7.521-1.805-11.297-.312-1.959-4.152-.575-5.362-.206a25.428 25.428 0 0 0-5.696 2.525c-.759.458-1.471.94-1.965 1.687-.371.569-.515 1.045-.678 1.685-.86 3.405.329 6.842 1.644 9.969z" fill="#2f2f2f"/><path d="M82.787 105.85c.197.955.443 1.895.746 2.777.448 1.298 1.3 2.268 2.556 2.837 3 1.368 7.237-.024 8.269-3.314 1.138-3.622 2.249-7.681 2.236-11.505 0-.285.219-.827.079-1.08-.159-.295-.719-.141-.993-.141-.708 0-1.384.032-2.081.101-.505.048-1.019.04-1.528.093a17.59 17.59 0 0 1-1.38.085c-.54.012-1.071.125-1.616.167-.593.05-1.185 0-1.778.046-1.173.087-2.478.141-3.619.422-.65.157-1.059.373-1.354.985-.288.597-.16 1.39-.16 2.034.002 2.082.184 4.35.623 6.493z" fill="#2f2f2f"/><path d="M54.748 110.924c.224 1.318.465 2.627.689 3.945.15.868.229 1.832.516 2.674 1.975 5.659 7.204 8.589 11.911 5.001 2.288-1.748 2.533-5.005 2.543-7.66.013-2.581.027-5.168-.04-7.749-.059-2.268.053-4.819-.497-7.023-.184-.741-.909-1.013-1.59-1.037-1.954-.053-3.922.04-5.863.21-1.51.133-3.017.545-4.501.836-1.199.24-2.411.755-3.382 1.493-1.274.965-.47 4.43-.316 5.753a74.53 74.53 0 0 0 .53 3.557z" fill="#2f2f2f"/><path d="M23.09 101.971a270.803 270.803 0 0 1-2.619 6.482c-.816 1.964-2.612 5.594-1.611 7.769 2.31 5.001 8.656 3.758 12.076.783 1.848-1.608 3.259-3.645 4.59-5.703 2.076-3.195 4.25-6.718 3.771-10.675-.145-1.181-1.194-1.445-2.19-1.905-.471-.214-.862-.559-1.309-.815-.409-.236-.87-.363-1.308-.519-.422-.155-.802-.392-1.208-.585-.392-.186-.804-.274-1.207-.422-1.423-.535-2.995-1.283-4.527-1.283-.532 0-1.139-.109-1.608.171-.914.541-1.143 2.038-1.463 2.948a137.88 137.88 0 0 1-1.387 3.754z" fill="#2f2f2f"/><g><path d="M125.481 69.325c.997-3.225.668-6.991-.857-9.826-.848-1.578-1.943-2.895-3.274-3.919-.664-.506-1.345-.813-1.977-1.038.557-1.244 1.212-3.006 1.221-4.992.017-3.032-1.143-6.122-3.252-8.693-1.493-1.824-3.08-2.702-4.856-3.59-.312-.158-.646-.294-.98-.435 0 0-.343-.14-.325-.189.606-2.272.923-4.047.976-5.594.141-3.41-1.362-6.93-4.228-9.914-3.652-3.797-8.978-6.248-13.582-6.248-.81 0-1.517.149-2.145.281l-.501.096c-.193-.294-.435-.724-.602-1.015-.383-.689-.782-1.406-1.306-1.951-1.485-1.564-3.357-2.799-5.739-3.778-3.775-1.526-8.16-2.018-12.216-1.363-2.003.326-3.726 1.121-5.273 1.973-2.602-3.326-6.934-5.247-12.089-5.247-2.773 0-5.467.58-7.783 1.674-.333.163-2.158 1.046-3.678 2.233-2.157-1.086-4.077-1.794-6.429-1.794-1.261 0-2.553.216-3.937.646-2.825.879-5.47 2.496-7.35 4.806a11.94 11.94 0 0 0-2.05 3.66c-.437 1.278-.444 3.832-1.595 4.583-1.426.93-3.078 1.389-4.469 2.448-.462.35-.958.475-1.417.798-.422.297-.767.784-1.167 1.133-.581.509-1.179.872-1.691 1.491-1.011 1.223-1.909 2.289-2.571 3.755-1.179 2.621-1.516 5.49-1.934 8.286-.105.703.106 1.459.018 2.164-.09.743-.195 1.387-.195 2.16 0 2.222-.12 4.476.657 6.594.774 2.109-.863 2.955-1.648 4.801-.415.976-.647 2.02-.884 3.037-.312 1.362-.378 2.652-.378 4.078 0 1.569.778 2.881.978 4.389.205 1.545.884 2.813 1.773 4.114.228.333.541.694.866 1.063l.325.36-.04.075c-2.298 4.565-2.004 10.352.756 14.746 1.385 2.211 3.353 4.061 5.854 5.445.101.057.118 1.527.147 1.729a13.458 13.458 0 0 0 1.782 4.917c.597 1 1.322 1.921 2.146 2.744 1.655 1.657 4.463 2.997 6.664 3.693 1.872.591 3.915.571 5.726 1.375 2.191.974 4.092 2.474 6.256 3.491 1.16.546 2.366.998 3.592 1.363a26.93 26.93 0 0 0 7.66 1.116c2.63 0 5.278-.364 7.77-1.219 2.697-.923 5.541-2.58 7.778-4.34.229-.178.502-.441.76-.554.642-.275 1.833.428 2.465.617 1.007.301 2.044.501 3.09.629 5.793.709 12.075-.987 16.906-4.213.751-.501 1.467-1.32 2.346-1.595 1.024-.323 2.087.411 3.072.585 3.089.546 6.288.225 9.255-.758 3.726-1.232 5.831-4.253 7.308-7.694.281-.655 1.318-.868 1.89-1.149 2.145-1.051 4.447-1.848 5.884-3.867 1.226-1.723 1.775-3.794 2.105-5.855.153-.941.268-1.888.237-2.841-.031-.943-.497-1.932-.497-2.826 0 0-.083-.237-.202-.593 2.291-1.185 4.011-3.337 4.854-6.058z" fill="#e0e0e0"/></g><path d="M42.346 71.453c.264-.048.544-.083.795-.145.672-.159 1.308-.301 1.96-.539 1.207-.426 2.963-1.405 2.788-2.934-.101-.928-.704-1.388-1.626-1.124-.277.079-.584.184-.874.285-.79.293-1.449.821-2.253 1.076-1.612.521-3.359.613-4.804-.387-1.062-.747-1.997-2.801-3.552-2.638-1.349.121-1.048 1.79-.628 2.63.686 1.348 1.946 1.988 3.044 2.932l.566.416.202.549.009.47c-.022 1.82-.826 4.599 1.59 4.985.308.048.637.012.949.012l1.013-.121c-.195-.242-.399-.505-.443-.84a29.188 29.188 0 0 1-.251-2.46c-.013-.41-.175-1.738.316-1.97.359-.169.817-.121 1.199-.197z" fill="#e0e0e0"/><path d="M33.528 47.823c-2.191-.868-4.769.613-5.757 3.267-.988 2.68.01 5.544 2.196 6.413 2.184.835 4.76-.615 5.735-3.291 1.001-2.661.013-5.541-2.174-6.389z" fill="#e0e0e0"/><path d="M59.538 55.746c-.048-2.851-2.02-5.164-4.365-5.152-2.353-.004-4.211 2.315-4.155 5.152.063 2.851 2.03 5.156 4.388 5.16 2.34-.014 4.208-2.316 4.132-5.16z" fill="#e0e0e0"/><path d="M71.989 44.82c.049-.654.004-1.251-.198-1.727-.509-1.197-2.156-.044-2.77.422-1.867 1.417-12.003 5.35-11.761-.519.036-.894.738-1.623.264-2.607-.286-.607-.668-.747-1.313-.672-1.356.153-2.453 1.352-3.68 1.844-2.094.842-3.969 1.625-6.298 1.239-1.211-.206-2.823-.817-3.614-1.796-.627-.773-.856-3.754-2.235-3.79-.773-.03-1.349.64-1.784 1.195-.517.662-.83.999-1.62 1.435-2.011 1.116-4.777 1.907-7.093 1.669-1.177-.123-2.28-.408-3.039-1.37-.535-.69-.576-3.404-1.805-3.289-.73.056-1.225.84-1.537 1.804-1.018 3.152-1.058 6.859-1.362 10.139-.693 7.471-1.848 15.585 1.911 22.477 2.973 5.449 9.728 8.135 16.082 8.9 4.496.541 9.108.149 13.356-1.485 3.942-1.518 7.421-4.05 10.243-7.176 3.337-3.697 4.194-9.36 5.569-13.999 1.204-4.062 2.376-8.448 2.684-12.694zM29.967 57.502c-2.186-.868-3.185-3.733-2.196-6.413.988-2.654 3.566-4.135 5.757-3.267 2.187.848 3.175 3.729 2.174 6.389-.975 2.677-3.551 4.126-5.735 3.291zM45.1 70.77c-.651.238-1.288.381-1.96.539-.251.061-.531.097-.795.145-.382.075-.84.028-1.199.198-.492.232-.329 1.56-.316 1.97.04.811.142 1.661.251 2.46.044.335.248.599.443.84l-1.013.121c-.312 0-.641.036-.949-.012-2.415-.386-1.612-3.166-1.59-4.985l-.009-.47-.202-.549-.566-.416c-1.098-.944-2.358-1.584-3.044-2.932-.419-.84-.721-2.51.628-2.63 1.555-.163 2.491 1.891 3.552 2.638 1.445.999 3.192.908 4.804.387.804-.256 1.463-.783 2.253-1.076.29-.101.598-.206.874-.285.922-.264 1.524.196 1.626 1.124.176 1.527-1.58 2.506-2.788 2.933zm10.306-9.864c-2.358-.004-4.325-2.309-4.388-5.16-.056-2.837 1.802-5.156 4.155-5.152 2.345-.012 4.317 2.301 4.365 5.152.076 2.844-1.792 5.146-4.132 5.16z" fill="#2f2f2f"/><path d="M21.026 47.454c-.497-.553-.466-.438-.992-.026l-.55.541c-.461.496-1.041 1.11-1.852 1.558-.559.304-1.432.673-2.425.673a3.305 3.305 0 0 1-2.569-1.187 3.519 3.519 0 0 1-.856-2.151c-.049-.983.259-1.762.585-2.339-.558-.813-.984-1.709-1.349-2.646a17.796 17.796 0 0 1-.795-2.301 30.736 30.736 0 0 1-.685-3.019 15.215 15.215 0 0 1-.184-3.873c-.102.081-.207.162-.307.244-2.943 2.343-5.129 5.737-6.202 8.837C1.584 45.399.952 53.567 5.897 57.3a8.894 8.894 0 0 0 2.289 1.243c.048.018.095.024.144.04.839.293 1.683.48 2.525.597.535.069 1.067.147 1.595.147 5.216 0 8.945-3.413 9.513-8.69.116-1.094-.292-2.457-.937-3.183z" fill="#78a3ad"/><path d="M95.485 47.087c-.804-.977-1.753-1.855-2.871-2.434a6.074 6.074 0 0 0-2.838-.708c-1.608 0-3.194.628-4.572 1.661-1.41 1.051-2.222 2.722-2.367 4.456-.172 2.077 1.955 3.231 2.405 5.047.541 2.186-1.543 3.758-3.657 3.758l-.609-.046c-2.576-.394-3.645-2.159-3.678-4.579-.013-1.62-.043-4.238-2.218-4.321h-.192c-1.397 0-2.495.652-3.337 1.659-2.341 2.793-2.657 8.411-1.485 11.113.293.688.606 1.409.965 2.095.375.714.808 1.399 1.358 1.97 3.026 3.114 7.237 4.67 11.47 4.67 3.623 0 7.261-1.14 10.162-3.41 2.072-1.604 3.561-3.852 4.378-6.331 1.609-4.883.322-10.663-2.914-14.6z" fill="#78a3ad"/></g></svg>