<svg id="レイヤー_1" xmlns="http://www.w3.org/2000/svg" viewBox="0 0 128 128"><g><path d="M9.473 67.71c-.203 0-.395-.029-.598-.059a3.729 3.729 0 0 1-2.334-1.321c-1.1-1.302-.83-3.114.434-4.039.512-.377 1.07-.56 1.639-.733.744-.231 1.496-.453 2.133-1.08.598-.579 1.344-1.784 1.137-2.459-.086-.289-.338-.491-.863-.511h-.053c-.853-.02-2.295-.049-3.48-.511-1.1-.415-1.967-1.196-1.885-2.701v-.067c.119-1.494.912-1.948 1.875-2.064.164-.019.332-.049.506-.049.742 0 1.529.136 2.174.146h.078l.328-.01c.713-.076 1.484-.202 2.236-.202h.059c.047 0 .092.009.135.009 1.084.039 2.111.377 2.834 1.63.627 1.1.947 2.604 1.014 4.157.014.385.018.771 0 1.167 0 .028-.01.057-.01.086-.076 1.63-.434 3.211-1.051 4.35-.443.829-1.09 1.619-1.852 2.295a8.423 8.423 0 0 1-2.459 1.542c-.667.26-1.341.424-1.997.424z" fill="#fcd4b5"/><path d="M28.363 42.05c2.689 0 4.873 2.497 4.873 5.574 0 3.075-2.184 5.563-4.873 5.563-2.695 0-4.881-2.488-4.881-5.563 0-3.077 2.186-5.574 4.881-5.574z" fill="#fff"/><path d="M104.994 63.602c-.125.512-.414 1.091-.684 1.678-.449-.028-.906-.076-1.363-.076-1.039 0-2.065.087-2.971.271-1.828.356-2.926 1.783-3.926 3.229-1.635 2.353-2.752 5.024-3.809 7.676-3.779 9.595-7.988 17.146-17.902 21.765-6.18 2.873-13.547 4.107-20.703 4.107-3.359 0-6.674-.271-9.797-.772-13.779-2.217-27.424-11.03-29.846-25.659-.201-1.263-.191-2.594-.125-3.944 2.885-1.302 5.229-3.674 6.471-5.949 1.143-2.131 1.701-4.889 1.682-7.599.807-.279 1.598-.481 2.455-.56 3.086-.289 6.051 1.177 9.035 1.765 1.443.29 2.891.377 4.34-.038 1.166-.337 2.295-.897 3.457-1.293 1.035-.346 2.203-.529 3.234-.655.627-.076 1.312.009 1.938.009 1.371-.009 3.039.415 4.359.772 2.787.762 5.43.106 7.947-1.07 2.227-1.051 5.283-1.195 7.607-.491 2.584.78 5.016 1.668 7.764 1.571 2.93-.106 5.717-2.073 8.697-1.524 2.209.406 4.195 1.64 6.422 1.9 2.801.337 5.689.521 8.428-.318 1.324-.404 2.262-.897 3.67-.925 1.336-.03 2.578.058 3.861.047.175 1.965.232 4.174-.241 6.083z" fill="#fff"/><path d="M109.523 52.176c-.107-.482.148-.966.49-1.283.525-.482 1.424-1.023 2.041-1.331.715-.347 1.83-.318 2.477.087.555.348.617.55.627 1.205.029 1.533-1.254 1.562-2.434 1.861-.719.184-1.861.656-2.6.31-.278-.136-.487-.396-.601-.849z" fill="#fff"/><path d="M115.848 64.777c-.746 1.757-6.879.764-5.598-1.725l.357-.396c.426-.28 1.031-.26 1.572-.213 1.108.127 4.561.233 3.669 2.334z" fill="#fff"/><path d="M116.537 58.057c-.502 1.457-1.725 1.042-2.93.936-.734-.067-1.979-.009-2.547-.589-.217-.221-.338-.539-.279-.993.012-.115.096-.191.135-.298.16-.328.424-.608.766-.753.646-.27 1.674-.48 2.359-.559.779-.086 1.842.318 2.305.916.082.096.137.183.178.26.206.348.177.578.013 1.08z" fill="#fff"/><g fill="#006ca2"><path d="M127.174 52.869c-.791-2.786-2.623-5.506-4.902-7.261-2.045-1.561-4.402-2.352-7.016-2.352-.791 0-1.615.076-2.445.221-2.725.492-4.314 1.283-6.475 2.652-.791.502-1.467.742-2.078.742-.359 0-.746-.076-1.18-.24-4.805-1.804-9.354-3.954-13.994-6.249.328-.212.637-.474.896-.791 1.227-1.504 1.447-4.137.744-5.939-1.139-2.941-4.754-4.273-7.676-4.369-3.348-.115-6.332 1.389-9.258 2.835-.279.136-.564.28-.84.425a78.201 78.201 0 0 0-12.266-4.079 70.255 70.255 0 0 0-10.443-1.697c-1.156-.097-6.48-.221-7.049-.202-9.229.317-17.752 3.221-24.137 8.235-2.477 1.947-4.434 4.291-5.863 6.113-1.609 2.063-2.897 4.099-3.875 6.103a15.74 15.74 0 0 0-1.336-.076c-4.266 0-7.227 2.709-7.543 6.903l-.018.338c-.072 2.063.604 3.992 1.914 5.459a7.874 7.874 0 0 0-1.607 3.924c-.262 2.18.412 4.406 1.859 6.114 1.57 1.86 3.713 2.911 6.061 3.124-.02 1.253.023 2.546.236 3.856 3.057 18.544 20.299 27.715 34.135 29.932 3.467.56 7.041.849 10.617.849 8.516 0 16.432-1.591 22.889-4.6 12.27-5.708 17.033-15.67 20.543-24.561.947-2.392 1.914-4.715 3.234-6.625.475-.674.731-.993.875-1.138a11.152 11.152 0 0 1 1.77-.135c.982 0 1.941.115 2.617.318 2.535.752 6.018 1.784 9.52 1.784a15.26 15.26 0 0 0 3.777-.453c6.566-1.717 8.076-9.787 8.389-12.228l.068-.54c.137-1.09.305-2.459.254-3.877-.059-.962-.184-1.773-.397-2.515zM28.363 42.05c2.689 0 4.873 2.497 4.873 5.574 0 3.075-2.184 5.563-4.873 5.563-2.695 0-4.881-2.488-4.881-5.563 0-3.077 2.186-5.574 4.881-5.574zM9.473 67.71c-.203 0-.395-.029-.598-.059a3.729 3.729 0 0 1-2.334-1.321c-1.1-1.302-.83-3.114.434-4.039.512-.377 1.07-.56 1.639-.733.744-.231 1.496-.453 2.133-1.08.598-.579 1.344-1.784 1.137-2.459-.086-.289-.338-.491-.863-.511h-.053c-.853-.02-2.295-.049-3.48-.511-1.1-.415-1.967-1.196-1.885-2.701v-.067c.119-1.494.912-1.948 1.875-2.064.164-.019.332-.049.506-.049.742 0 1.529.136 2.174.146h.078l.328-.01c.713-.076 1.484-.202 2.236-.202h.059c.047 0 .092.009.135.009 1.084.039 2.111.377 2.834 1.63.627 1.1.947 2.604 1.014 4.157.014.385.018.771 0 1.167 0 .028-.01.057-.01.086-.076 1.63-.434 3.211-1.051 4.35-.443.829-1.09 1.619-1.852 2.295a8.423 8.423 0 0 1-2.459 1.542c-.667.26-1.341.424-1.997.424zm95.521-4.108c-.125.512-.414 1.091-.684 1.678-.449-.028-.906-.076-1.363-.076-1.039 0-2.065.087-2.971.271-1.828.356-2.926 1.783-3.926 3.229-1.635 2.353-2.752 5.024-3.809 7.676-3.779 9.595-7.988 17.146-17.902 21.765-6.18 2.873-13.547 4.107-20.703 4.107-3.359 0-6.674-.271-9.797-.772-13.779-2.217-27.424-11.03-29.846-25.659-.201-1.263-.191-2.594-.125-3.944 2.885-1.302 5.229-3.674 6.471-5.949 1.143-2.131 1.701-4.889 1.682-7.599.807-.279 1.598-.481 2.455-.56 3.086-.289 6.051 1.177 9.035 1.765 1.443.29 2.891.377 4.34-.038 1.166-.337 2.295-.897 3.457-1.293 1.035-.346 2.203-.529 3.234-.655.627-.076 1.312.009 1.938.009 1.371-.009 3.039.415 4.359.772 2.787.762 5.43.106 7.947-1.07 2.227-1.051 5.283-1.195 7.607-.491 2.584.78 5.016 1.668 7.764 1.571 2.93-.106 5.717-2.073 8.697-1.524 2.209.406 4.195 1.64 6.422 1.9 2.801.337 5.689.521 8.428-.318 1.324-.404 2.262-.897 3.67-.925 1.336-.03 2.578.058 3.861.047.175 1.965.232 4.174-.241 6.083zm4.529-11.426c-.107-.482.148-.966.49-1.283.525-.482 1.424-1.023 2.041-1.331.715-.347 1.83-.318 2.477.087.555.348.617.55.627 1.205.029 1.533-1.254 1.562-2.434 1.861-.719.184-1.861.656-2.6.31-.278-.136-.487-.396-.601-.849zm6.325 12.601c-.746 1.757-6.879.764-5.598-1.725l.357-.396c.426-.28 1.031-.26 1.572-.213 1.108.127 4.561.233 3.669 2.334zm.689-6.72c-.502 1.457-1.725 1.042-2.93.936-.734-.067-1.979-.009-2.547-.589-.217-.221-.338-.539-.279-.993.012-.115.096-.191.135-.298.16-.328.424-.608.766-.753.646-.27 1.674-.48 2.359-.559.779-.086 1.842.318 2.305.916.082.096.137.183.178.26.206.348.177.578.013 1.08z"/><path d="M53.879 65.261c-2.904-2.257-7.223-2.836-10.768-2.219-.152 1.195-.217 2.518-.768 3.616-.578 1.138-1.82 1.263-2.439 2.199-1.012 1.543 1.689 5.583 2.633 6.799 1.438 1.842 2.922 2.661 5.256 2.65 1.031-.009 1.979.087 2.932-.279 1.09-.425 2.42-1.514 3.24-2.362 1.533-1.581 2.111-3.838 2.275-5.978.145-1.948-.828-3.241-2.361-4.426z"/></g></g></svg>