<svg id="レイヤー_1" xmlns="http://www.w3.org/2000/svg" xmlns:xlink="http://www.w3.org/1999/xlink" viewBox="0 0 128 128"><g><g><path d="M27.077 64.729s-2.24-5.305-3.415-8.435l8.213-4.498 9.187 8.212-13.985 4.721z" fill="#b89278"/><g><g><defs><path id="SVGID_1_" d="M126.71 78.413c-.413-.458-.954-.815-1.545-1.072 0-.54-.014-1.017-.014-1.365.019-4.299-2.429-8.103-5.59-10.761-2.824-2.369-5.226-3.794-8.498-5.219-.237-.101-2.153-8.492-6.259-10.937-1.403-.834-2.152-.6-3.364-1.954-6.205-6.975-10.302-21.383-21.869-20.695-.22.018-.448.036-.657.063-7.811.908-12.853 9.019-15.946 15.435-.993 2.062-1.604 4.674-3.367 6.25-2.3 2.039-5.238.774-7.598-.485-1.375-.725-2.742-1.952-3.607-3.341.756-3.561.279-7.465-.793-10.829-.376-1.183-.896-2.273-1.489-3.304 2.03-1.058 3.68-2.75 3.368-5.1-.385-2.942-4.009-4.812-6.764-3.749-1.018.394-2.053 1.448-2.859 2.75a15.771 15.771 0 0 0-5.838-1.796c-2.412-.238-4.895.037-7.306.752-.521-2.108-1.787-4.033-3.62-4.253-3.364-.403-5.4 3.785-3.904 6.59.225.403.503.761.816 1.081-.775.614-1.503 1.283-2.084 2.054-1.395 1.814-1.824 4.115-2.875 6.113-1.127 2.153-2.961 3.703-4.885 5.105-3.775 2.731-8.624 5.032-9.744 10.009-1.136 4.976 2.669 9.119 6.655 11.228 4.743 2.484 9.487 2.859 14.483.898.688-.266 1.337-.605 1.979-.944.843-.439 1.965-1.118 3.299-1.915.459-.266.867-.587 1.311-.853.889-.536 1.742-1.183 2.713-1.641.943-.449 1.952.133 1.879 1.182-.063 1.15-1.081 2.264-1.769 3.116a12.033 12.033 0 0 1-2.086 2.035c-.637.491-2.012.926-1.805 1.87.252 1.159.917 2.498 1.425 3.574 1.448 3.089 3.143 6.059 5.233 8.763a41.414 41.414 0 0 0 4.184 4.638c2.396 2.31 4.908 4.555 7.868 6.113 2.342 1.224 4.867 2.016 7.396 2.786.266.504.577.999.802 1.53.655 1.558 1.467 2.869 1.833 4.546.367 1.75.481 3.529.725 5.297.183 1.356.444 2.832.008 4.17-.27.825-.919 1.439-1.25 2.227-.476 1.118-.609 3.758.459 4.61 1.722 1.356 5.022.798 6.677-.412 1.938-1.439.916-7.095.903-9.175-.02-2.769.063-5.545.131-8.313 1.363 1.137 2.394 2.594 3.435 4.052 1.796 2.524 3.198 4.619 3.995 7.598.101.339.202.688.33 1.045.055.495.114.99.179 1.485.183 1.366.458 2.832.022 4.179-.262.816-.926 1.43-1.246 2.218-.477 1.128-.62 3.768.44 4.611 1.722 1.366 5.04.797 6.673-.413 1.957-1.439.927-7.094.92-9.165-.032-4.61.19-9.239.197-13.85.114-1.687.312-3.363.641-5.022.561-2.786 1.495-6.205 3.759-8.13.916-.77 2.209-1.42 3.447-1.631.328.302.641.632.971 1.063 2.228 3.015 1.966 9.678 1.311 13.193-.357 1.957-1.232 3.776-1.283 5.797-.032 2.099 2.116 1.979 3.772 1.925 3.322-.101 3.202-2.136 3.56-4.766.147-1.146.348-2.291.38-3.455.083-2.851.459-5.683.899-8.496.142-.907.298-1.815.443-2.727 2.493.737 4.922 1.736 6.021 3.982.248.494.452 1.008.67 1.521.285 2.035.174 4.253.215 6.168.024 1.219.255 2.475.019 3.685-.407 2.025-1.261 3.776-1.306 5.902-.037 2.099 2.116 1.98 3.767 1.925 3.331-.101 3.208-2.136 3.556-4.766.156-1.146.35-2.292.395-3.456.074-2.851.449-5.682.89-8.496.366-2.309.788-4.61 1.136-6.929.404-2.667.432-5.371.697-8.05.587-5.955-.679-11.603-.798-11.59.609-.07 1.355.463 1.879.731.633.324 1.237.69 1.815 1.1 1.017.724 2.181 1.457 3.097 2.291a5.881 5.881 0 0 1 1.386 1.778c1.259 2.264 2.08 4.188 2.033 6.709-.709.193-1.374.55-1.859 1.118-2.182 2.548-.935 5.857.019 8.569.214.605.22 1.448.165 2.145-.047.669-.753 1.604-.506 2.273 1.505.724 3.31-.559 4.424-1.53 1.581-1.366 2.57-3.052 3.238-5.022.667-1.934.883-4.582-.56-6.241z"/></defs><use xlink:href="#SVGID_1_" overflow="visible" fill="#fcc21b"/><clipPath id="SVGID_2_"><use xlink:href="#SVGID_1_" overflow="visible"/></clipPath><g clip-path="url(#SVGID_2_)" fill="#b89278"><path d="M4.81 53.043c-.678-.678-1.43-1.42-1.668-2.38-.266-1.052.257-2.241 1.384-1.327.688.56.945 1.519 1.65 2.035 1.273.933 2.978-.115 4.233-.536.716-.238 1.906-.376 2.594-.044.477.229 1.101.784.737 1.373-1.534 2.444-6.924 2.884-8.93.879z"/><path d="M5.707 53.417s-.869 6.833 3.227 9.938l2.115-.124s-4.348-2.36-3.48-9.688l-1.862-.126z"/></g></g><path d="M36.577 37.398c.219.531.339 1.108.279 1.732-.198 2.099-2.048 3.74-4.152 3.666-2.094-.082-3.624-1.833-3.428-3.932.05-.532.206-1.027.444-1.48l6.857.014z" fill="#2f2f2f"/></g></g><g><defs><path id="SVGID_3_" d="M101.679 41.774c-1.106-1.529-2.163-3.25-3.255-5.007-4.204-6.831-8.98-14.573-18.063-14.573-.312 0-.615.009-1.045.036l-.676.066c-6.918.805-12.738 6.281-17.793 16.75a32.948 32.948 0 0 0-.825 1.945c-.577 1.439-1.127 2.798-1.979 3.565-.155.14-.339.243-.61.342 0 0-2.759 1.031-3.788 3.67 0 0 .801.287 1.64.5l-.009.007.055.004c.185.046.366.08.541.113.623.179 1.682.689 2.941 2.007 3.24 3.817 7.781 10.513 9.258 19.468.102.618.448 1.168.954 1.53a2.314 2.314 0 0 0 1.759.402l36.369-6.258a2.34 2.34 0 0 0 1.942-2.434c-.025-.487-.699-12.099-7.416-22.133z"/></defs><use xlink:href="#SVGID_3_" overflow="visible" fill="#ed6c30"/><clipPath id="SVGID_4_"><use xlink:href="#SVGID_3_" overflow="visible"/></clipPath><path d="M105.481 45.216c-4.591-8.378-7.058-8.449-7.058-8.449 3.319 5.171 5.647 14.587 5.445 16.129-.091.678-.733.953-.733.953-6.755 1.592-19.65 3.666-22.143 3.959-.861.101-1.612.223-1.901-.138-.857-1.072-1.414-2.635-1.688-3.478-2.675-8.143-9.937-13.162-9.937-13.162-2.091-1.533-4.748-2.573-7.929-1.943L57.432 44.9s3.892-1.421 9.271 5.35c2.38 2.938 5.387 7.645 6.417 13.904.073.46.33.875.715 1.146a1.748 1.748 0 0 0 1.316.301s10.494-1.433 18.511-2.854c6.92-1.232 11.483-2.472 11.846-2.582 1.92-.591 2.464-1.146 2.817-1.808 1.064-2.028-2.844-13.141-2.844-13.141z" clip-path="url(#SVGID_4_)" fill="#40c0e7"/></g><g fill="#ed6c30"><path d="M75.859 70.137l-1.319 6.771s1.979 1.487 4.298.827c2.311-.662 1.485-1.982 1.485-1.982l-1.984-6.608-2.48.992z"/><path d="M84.783 68.65l-1.325 6.772s1.988 1.485 4.3.825c2.308-.66 1.483-1.982 1.483-1.982l-1.979-6.608-2.479.993z"/><path d="M94.036 67.328l-1.326 6.773s1.984 1.487 4.295.825c2.31-.66 1.484-1.981 1.484-1.981l-1.979-6.606-2.474.989z"/><path d="M102.623 65.843l-1.33 6.771s1.99 1.487 4.3.824c2.314-.659 1.484-1.981 1.484-1.981l-1.979-6.606-2.475.992z"/></g></g></svg>