<svg id="レイヤー_1" xmlns="http://www.w3.org/2000/svg" viewBox="0 0 128 128"><g><path d="M40.096 37.832s2.55-1.479 3.983-2.117l22.235 8.176 35.969.967s2.704 2.8 3.5 3.758l6.534 18.743 5.267 2.11s1.209 3.615 1.555 4.986l-1.087 8.638-52.138 12.934-41.869-10.268.133-25.735 12.801-16.667 3.117-5.525z" fill="#2f2f2f"/><g><g fill="#757f3f"><path d="M73.14 59.574c-.104 5.06-.382 19.602-.283 28.044 1.675.042 3.5-.05 5.517-.259 2.696-.271 5.518-.812 8.242-1.333l1.733-.333a61.103 61.103 0 0 0 7.893-2.018c3.894-1.283 8.192-2.933 12.067-5.316-2.851-9.926-7.955-17.376-9.604-19.609-10.998-.875-21.54.283-25.565.824z"/><path d="M102.375 56.524c1.95 2.675 6.634 9.729 9.608 19.218 2.176-1.809 4.059-3.967 5.496-6.517-1.337-3.729-2.962-7.354-4.904-10.797a63.71 63.71 0 0 0-6.792-9.814c-.929 3.11-2.446 6.143-3.408 7.91z"/><path d="M45.204 42.69c4.259 1.633 18.852 7.43 26.388 12.784 3.25-.476 14.687-1.959 27.045-1.021 1.601-2.945 3.284-6.912 3.646-9.596-.148-.146-.279-.309-.434-.45-5.129-4.817-11.626-7.468-18.192-9.688-9.159-3.1-19.135-4.188-28.682-2.479a43.875 43.875 0 0 0-10.896 3.476l1.125 6.974z"/><path d="M119.109 74.492c-1.992 2.55-4.4 4.667-6.984 6.434-.054.042-.108.071-.153.108-4.738 3.204-10.03 5.259-14.397 6.692a64.61 64.61 0 0 1-8.434 2.158l-1.726.329c-2.816.542-5.725 1.101-8.612 1.396-1.705.166-3.461.308-5.229.308-5.284 0-10.584-1.241-14.451-6.525-1.562-2.149-3.301-3.958-5.15-5.375l-.767-.596c-1.175-.934-3.358-2.671-4.492-2.696l.108-4.267c2.559.066 5.15 2.116 7.042 3.617l.7.554c2.175 1.663 4.2 3.763 6.009 6.246 1.634 2.233 3.617 3.5 6.013 4.167-.077-9.018.214-24.019.305-28.235-7.317-5.125-22.044-10.917-25.552-12.263-1.375.846-4.942 3.812-9.134 8.084a2.128 2.128 0 0 1-1.525.637 2.133 2.133 0 0 1-1.525-3.625c2.65-2.691 6.851-6.759 9.788-8.584l-.846-5.225c-7.163 4.279-14.234 10.917-18.484 18.643-4.259 7.713-5.7 16.476-1.642 24.968 1.325 2.746 4.004 7.367 6.684 8.972 2.371 1.421 4.884 2.63 7.442 3.688 2.267.942 4.191 2.117 6.517 2.805 2.084.617 4.233 1.287 6.342 1.763 2.134.483 4.345.633 6.484 1.033 1.895.351 3.816.675 5.742.704 9.851.13 19.81.654 29.477-1.688 5.884-1.425 11.709-3.191 17.243-5.634 2.8-1.225 5.529-2.625 8.096-4.259 2.088-1.32 4.838-2.625 5.931-4.983 1.149-2.487.166-5.5-.442-8.017-.111-.45-.253-.893-.378-1.334z"/></g><g><path d="M29.953 98.369c-.983-.575-2.375-.783-4.277-1.046-2.498-.354-5.223-1.051-7.724-.596-2.153.392-2.383.941-3.083 2.933-1.092 3.126-4.259 12.506-1.8 15.468.608.733 2.033.992 2.898 1.25 2.511.759 5.178.93 7.819 1.108 2.25.15 4.467-.262 6.617-.862 1.608-.45 2.317-.829 2.454-2.612.288-3.805-.562-7.551-.904-11.317-.228-2.443-.833-3.644-2-4.326z" fill="#bdcf46"/><g fill="#bdcf46"><path d="M116.784 87.101c-.934.621-1.917 1.175-2.788 1.725-2.566 1.634-5.296 3.034-8.096 4.259-5.534 2.442-11.359 4.209-17.243 5.634-9.667 2.342-19.626 1.817-29.477 1.688-1.926-.029-3.847-.354-5.742-.704-.525-.1-1.05-.184-1.575-.258l.517 5.55s1.879.142 5.238-.066c-.652 6.426-.858 13.371.783 14.692.737.601 2.314.709 3.272.868 2.819.466 5.74.404 8.641.349 2.467-.042 4.854-.583 7.134-1.275 1.708-.517 2.446-.904 2.417-2.475-.033-2.009-.713-8.468-1.398-14.001 6.336-.834 14.149-2.404 21.21-5.334.101 2.221.189 4.117.177 4.509-.062 1.533-.075 3.625 1.271 4.801 3.76 3.309 13.067 1.375 17.393-.059 3.217-1.059 2.233-4.809 1.592-6.996-.392-1.323-1.876-8.135-3.326-12.907z"/><path d="M127.068 64.283c-1.676-1.583-4.438.458-5.984 1.275-1.375.741-2.75 1.467-4.146 2.158 1.013 2.65 1.888 5.351 2.546 8.109.3 1.233.684 2.583.866 3.934a1.57 1.57 0 0 1 .146-.167c.513-.575.971-1.175 1.421-1.8 1.75-2.476 3.083-5.218 4.509-7.885.709-1.323 1.975-4.366.642-5.624z"/></g><g><g><path d="M52.38 104.994c-1.134.038-2.267.033-3.438.033-8.326 0-16.273-.225-24.473-2.083C12.019 100.127 2.318 92.676.635 79.355c-1.042-8.214.625-17.939 6.959-23.693 5.95-5.404 16.651-6.893 23.98-4.397 8.542 2.917 14.764 9.942 18.313 18.043 2.733 6.238 4.584 11.843 5.726 18.568.175 1.033 2.061 16.601-.146 16.888a33.28 33.28 0 0 1-3.087.23z" fill="#bdcf46"/></g><path d="M30.245 63.474c2.458-.445 4.867 1.463 5.384 4.259.508 2.792-1.066 5.426-3.525 5.876-2.45.441-4.862-1.455-5.375-4.251-.517-2.8 1.066-5.425 3.516-5.884z" fill="#2f2f2f"/><path d="M7.743 67.166c.7-2.755 3.251-4.476 5.659-3.858 2.425.625 3.815 3.358 3.107 6.108-.71 2.754-3.24 4.483-5.656 3.858-2.417-.624-3.818-3.358-3.11-6.108z" fill="#2f2f2f"/><g><path d="M23.803 79.293c-1.142.616-2.116 1.283-3.454.791-.771-.283-1.504-.495-2.171-1-.476-.354-1.017-.637-1.502-.991-.248-.184-.49-.371-.74-.555-.279-.212-.375-.3-.737-.354-.287-.034-.862-.051-1.079.188-.941 1.046.375 2.612 1.092 3.32 1.059 1.034 2.566 2.2 3.958 2.801 1.363.592 2.709 1.3 4.163.575 1.588-.801 2.971-1.963 4.371-3.03.925-.704 2.983-1.929 2.625-3.304-.25-1.005-1.408-.788-2.167-.55-.958.291-1.816.783-2.708 1.233-.559.279-1.1.584-1.651.876z" fill="#2f2f2f"/></g></g></g></g></g></svg>