<svg id="レイヤー_1" xmlns="http://www.w3.org/2000/svg" xmlns:xlink="http://www.w3.org/1999/xlink" viewBox="0 0 128 128"><g><g><path d="M26.738 64.137s-2.786-7.183-2.987-10.311l11.933-1.368 2.73 11.537-11.676.142z" fill="#b89278"/><g><g><defs><path id="SVGID_1_" d="M126.704 78.38a4.334 4.334 0 0 0-1.548-1.076c0-.537-.004-1.013 0-1.361.017-4.303-2.428-8.106-5.592-10.76-2.927-2.456-6.342-4.29-9.853-5.788-.632-2.567-1.604-5.086-2.703-7.52-.954-2.122-2.003-4.184-2.998-6.146-1.599-3.153-2.964-6.361-4.388-9.597-2.072-4.692-5.451-14.087-11.448-13.482-.133.018-.274.031-.412.055-2.869.499-5.137 3.272-6.93 6.691-2.099 4.005-3.969-.807-5.48-2.502-1.481-1.668-3.529-3.084-5.939-2.869a4.087 4.087 0 0 0-.446.055c-5.255.853-8.646 8.45-10.723 14.454-1.168 3.354-2.282 6.617-3.799 9.784-.458.963-.99 1.976-1.786 2.699-1.504 1.375-3.258-.101-3.969-1.494-.885-1.75-.751-3.528-.301-5.379.352-1.448.416-2.787.355-4.271-.073-2.172-.485-4.336-1.146-6.407-.375-1.178-.896-2.269-1.493-3.3 2.035-1.063 3.675-2.75 3.385-5.105-.397-2.938-4.025-4.808-6.768-3.749-1.026.395-2.052 1.453-2.868 2.75-1.759-.934-3.703-1.577-5.834-1.792-2.405-.243-4.89.037-7.3.752-.522-2.113-1.788-4.037-3.62-4.253-3.372-.403-5.416 3.786-3.91 6.585.216.403.501.76.821 1.086-.778.615-1.502 1.284-2.099 2.054-1.393 1.814-1.815 4.11-2.86 6.113-1.132 2.154-2.964 3.698-4.895 5.101-3.775 2.736-8.62 5.036-9.741 10.009-1.128 4.98 2.666 9.124 6.662 11.228 4.729 2.488 9.486 2.859 14.48.902.68-.27 1.33-.609 1.981-.948.839-.44 1.952-1.114 3.299-1.916.733-.435 1.356-.953 2.153-1.255.391-.146.703-.174.881.248.591 1.384-1.756 2.859-2.558 3.629-.256.251-.504.563-.632.912-.385 1.045.303 2.246.696 3.186.356.866.724 1.728 1.118 2.571 1.458 3.088 3.149 6.054 5.233 8.762a41.54 41.54 0 0 0 4.185 4.638c2.397 2.305 4.908 4.555 7.878 6.108 2.337 1.228 4.857 2.017 7.388 2.791.27.5.587.995.806 1.526.65 1.562 1.467 2.869 1.826 4.55.369 1.747.493 3.529.727 5.293.179 1.361.444 2.832.015 4.175-.267.825-.917 1.435-1.252 2.222-.472 1.123-.609 3.763.454 4.61 1.728 1.361 5.032.798 6.673-.412 1.947-1.439.921-7.09.916-9.17-.014-2.768.056-5.545.121-8.317 1.364 1.141 2.398 2.594 3.438 4.056 1.793 2.525 3.199 4.614 4.006 7.598.087.334.197.687.326 1.04.055.496.101.995.173 1.489.185 1.361.459 2.833.024 4.176-.268.82-.931 1.434-1.251 2.223-.477 1.123-.623 3.762.444 4.61 1.73 1.361 5.036.797 6.679-.413 1.941-1.439.918-7.094.905-9.17-.027-4.61.197-9.239.201-13.849.12-1.687.315-3.364.644-5.019.562-2.791 1.502-6.21 3.766-8.134.907-.77 2.199-1.421 3.438-1.627.32.303.649.628.976 1.059 2.224 3.016 1.966 9.679 1.315 13.198-.361 1.953-1.246 3.776-1.279 5.792-.04 2.104 2.104 1.98 3.754 1.93 3.331-.101 3.217-2.14 3.566-4.766.146-1.15.347-2.296.374-3.46.083-2.851.459-5.679.907-8.492.143-.912.294-1.819.452-2.727 2.491.733 4.911 1.731 6.01 3.978.247.499.458 1.013.66 1.526.294 2.03.188 4.248.225 6.164.024 1.223.254 2.475.017 3.684-.397 2.026-1.259 3.781-1.296 5.903-.036 2.104 2.113 1.979 3.758 1.929 3.326-.101 3.208-2.14 3.556-4.766.156-1.15.358-2.295.396-3.46.082-2.85.448-5.677.888-8.492.371-2.309.788-4.615 1.137-6.929.349-2.251.458-4.404.458-6.544a48.41 48.41 0 0 0 .155-1.595c.321-3.771-.406-7.915-1.486-11.919.37.146.736.312 1.1.449a15.255 15.255 0 0 1 3.366 1.801c1.018.72 2.195 1.458 3.107 2.291.608.545.99 1.054 1.384 1.778 1.246 2.259 2.071 4.188 2.035 6.705-.716.197-1.38.55-1.87 1.123-2.182 2.548-.935 5.853.027 8.565.211.604.215 1.453.165 2.145-.063.674-.751 1.608-.504 2.277 1.503.724 3.299-.563 4.417-1.53 1.576-1.365 2.575-3.052 3.24-5.023.665-1.94.885-4.585-.565-6.244z"/></defs><use xlink:href="#SVGID_1_" overflow="visible" fill="#fcc21b"/><clipPath id="SVGID_2_"><use xlink:href="#SVGID_1_" overflow="visible"/></clipPath><g clip-path="url(#SVGID_2_)"><g fill="#b89278"><path d="M4.814 53.011c-.678-.678-1.43-1.421-1.668-2.381-.258-1.052.257-2.241 1.385-1.327.688.56.943 1.52 1.649 2.035 1.273.933 2.978-.114 4.233-.536.716-.238 1.906-.376 2.594-.044.477.229 1.1.784.738 1.373-1.534 2.444-6.923 2.885-8.931.88z"/><path d="M5.713 53.384s-.871 6.833 3.226 9.937l2.112-.123s-4.344-2.36-3.478-9.688l-1.86-.126z"/></g></g></g><g><path d="M36.582 37.365c.22.526.33 1.108.275 1.728-.193 2.099-2.054 3.739-4.152 3.671-2.091-.083-3.62-1.838-3.438-3.932a4.04 4.04 0 0 1 .45-1.48l6.865.013z" fill="#2f2f2f"/></g></g></g><g fill="#757f3f"><path d="M74.145 68.324l-1.322 6.771s1.98 1.487 4.302.827c2.306-.662 1.48-1.982 1.48-1.982l-1.983-6.608-2.477.992z"/><path d="M83.064 66.836L81.74 73.61s1.984 1.485 4.298.825c2.312-.66 1.487-1.982 1.487-1.982l-1.981-6.608-2.48.991z"/><path d="M92.316 65.514l-1.324 6.774s1.985 1.486 4.294.824c2.311-.66 1.485-1.981 1.485-1.981l-1.98-6.606-2.475.989z"/><path d="M100.906 64.029L99.577 70.8s1.988 1.488 4.297.825c2.314-.659 1.485-1.982 1.485-1.982l-1.979-6.606-2.474.992z"/></g><g><g><defs><path id="SVGID_3_" d="M104.883 44.437c-.432-1.778-2.888-8.756-3.653-10.481l-.598-1.389c-2.243-5.245-5.634-13.17-11.908-13.17-.237 0-.485.011-.786.043-.03.003-.451.062-.479.064-3.106.543-5.788 3.031-8.182 7.61-.095.164-.167.293-.229.391-.388-.409-.883-1.159-1.186-1.613-.419-.621-.82-1.212-1.196-1.636-2.202-2.474-4.715-3.666-7.41-3.451a6.064 6.064 0 0 0-.577.071c-6.356 1.031-9.953 9.406-12.244 16.026-1.114 3.21-2.163 6.241-3.584 9.192-.138.298-.302.596-.474.894 0 0-1.498 2.624-1.955 4.34 0 0 .926.683 2.236-.312 0 0 1.735-1.478 3.317-2.14.724-.238 1.71-.424 2.612-.044 7.033 2.949 9.322 9.731 10.746 19.717.063.465.32.884.692 1.167a1.762 1.762 0 0 0 1.311.325l34.554-5.286a1.764 1.764 0 0 0 1.484-1.561c.024-.239.579-6.071-2.491-18.757z"/></defs><use xlink:href="#SVGID_3_" overflow="visible" fill="#757f3f"/><clipPath id="SVGID_4_"><use xlink:href="#SVGID_3_" overflow="visible"/></clipPath><path d="M79.048 27.505s.524.869 1.151 1.845c.799 1.224 1.385 2.732 2 2.699.265-.014.471-.018.521-.499.092-.832.105-2.119-.531-3.732-.391-1.036-1.058-2.209-2.126-3.485l-1.015 3.172z" clip-path="url(#SVGID_4_)" fill="#2f2f2f"/><path d="M101.968 39.661c.33 2.323.417 4.672.412 7.016-.008 2.009.133 4.223-.421 6.173-.105.371-.33.639-.687.781-1.551.624-3.328.678-4.978.923-1.385.207-2.786.266-4.171.465l-6.02.866c-1.886.27-3.77.545-5.648.813a1.51 1.51 0 0 1-.192.013 1.26 1.26 0 0 1-.752-.245 1.263 1.263 0 0 1-.495-.834c-.641-4.491-2.254-8.698-4.519-12.611-3.776-6.523-11.764-9.211-18.366-4.936-.945.611-1.87 1.244-2.667 1.978-.738.678-1.026 1.487-1.559 2.303-.308.477-.522.825-.715 1.37-.128.401-.303.804-.458 1.193-.17.397-.201.779-.294 1.178-.055.229-.237.699-.082.953.485.791 1.599-.333 1.934-.665 3.521-3.494 8.222-5.479 12.75-2.44 2.896 1.943 4.665 5.208 5.873 8.387 1.239 3.229 1.981 6.636 2.471 10.048.024.13.037.259.056.389a1.759 1.759 0 0 0 1.737 1.513c.091 0 .183-.007.266-.021 1.496-.227 2.983-.456 4.475-.683 3.729-.573 7.47-1.143 11.202-1.716l5.349-.817c1.392-.213 2.805-.312 4.179-.649 1.018-.247 4.033-.526 4.521-1.592.301-.665.119-1.657.138-2.367.08-2.655.117-5.174-.076-7.832a63.469 63.469 0 0 0-1.584-10.391c-.743-3.119-2.044-6.038-3.163-9.033-.292-.789-.416-1.606-.773-2.369-.115-.243-.289-1.173-.582-1.255-.403-.113-.473.417-.495.691-.056.635.174 1.261.321 1.856.074.296.183.625.247.903.815 3.51 2.217 6.83 2.74 10.409.007.079.017.157.026.235z" clip-path="url(#SVGID_4_)" fill="#f79329"/></g></g></g></svg>