<svg xmlns="http://www.w3.org/2000/svg" viewBox="0 0 128 128"><g id="图层_1"><path d="M36.772 25.508a125.31 125.31 0 0 1-.264-5.648c-.178-4.184-1.637-12.446 2.584-14.357 4.346-1.968 7.353 2.42 9.176 6.278.439.929 6.051 13.521 6.203 13.37-.83.824-1.936 1.16-2.771 2.005-1.238 1.233-2.877 1.884-4.42 2.551a9.438 9.438 0 0 1-2 .577c-.865.168-1.59.657-2.424.929-.703.236-1.418.425-2.115.667-.783.268-1.533.572-2.357.63-.893.063-1.356-3.591-1.612-7.002z" fill="#fcc21b"/><path d="M90.329 25.135c.188-2.65.246-5.154.271-5.648.176-4.184 1.629-12.446-2.596-14.356-4.348-1.969-7.334 2.42-9.178 6.277-.418.93-6.047 13.527-6.193 13.37.814.824 1.922 1.16 2.768 2.005 1.232 1.233 2.881 1.885 4.439 2.546a9.005 9.005 0 0 0 1.975.583c.875.168 1.6.656 2.434.93.699.236 1.418.425 2.117.666.781.268 1.521.573 2.361.63.883.062 1.354-3.591 1.602-7.003z" fill="#fcc21b"/><g><path d="M26.701 75.767c-1.687 1.653-5.228 4.847-9.206 6.879-1.846 7.724-.851 15.021 2.941 21.242 5.537 9.081 16.682 15.601 30.57 17.89 6.467 1.065 12.111 1.58 17.256 1.58 6.854 0 12.854-.892 18.34-2.74 5.947-1.995 16.654-6.898 21.5-17.291 4.268-9.186 2.105-18.298-.877-26.775-2.787-7.927-2.125-15.953-1.428-24.457l.236-2.913a30.442 30.442 0 0 0-.236-7.028 73.969 73.969 0 0 1 3.435-.546c1.562-.231 3.125-.457 4.674-.793 11.938-2.587 13.744-10.22 13.15-16.172-.619-6.241-6.014-10.278-13.742-10.278-1.322 0-2.625.131-3.871.383-3.5.719-6.408 2.582-8.969 4.23-2.488 1.601-4.836 3.113-7.566 3.396-.365 0-.764-.046-1.174-.104a39.238 39.238 0 0 0-4.607-2.414C80.25 16.79 71.705 15.1 63.059 15.1c-3.008 0-5.974.208-8.825.602 3.724 2.132 6.269 4.594 7.633 6.127" fill="#e0e0e0"/><path d="M64.845 26.164a21.407 21.407 0 0 0-3.934-5.349 31.293 31.293 0 0 0-6.677-5.115c-4.563.63-8.829 1.742-12.47 3.283-1.822.772-3.808 1.911-5.801 3.317a7.817 7.817 0 0 1-1.061.063c-2.529-.273-4.881-1.785-7.381-3.386-2.557-1.648-5.469-3.511-8.965-4.23a19.642 19.642 0 0 0-3.879-.383c-7.711 0-13.113 4.037-13.738 10.283-.588 5.947 1.219 13.584 13.154 16.167 1.545.336 3.107.562 4.678.793 1.664.241 3.25.467 4.75.824.051.01.105.026.168.047-.361 3.601-.336 7.181-.309 10.672.006 2.126.025 4.257-.047 6.377-.217 5.895-1.975 11.128-3.844 16.671a216.419 216.419 0 0 0-1.207 3.622 36.93 36.93 0 0 0-.789 2.825c1.677-.856 3.265-1.919 4.68-2.986 1.396-.767 2.678-2.043 3.783-3.182.276-.258.526-.498.743-.711l.091-.14c.1-.101.203-.206.3-.299 3.469-3.37 7.154-6.136 11.904-7.443 5.344-1.475 10.877-1.464 15.959-4.005 11.991-6 15.687-26.456 9.892-37.715z" fill="#2f2f2f"/></g><path d="M123.724 24.977c-.647-6.467-8.297-8.031-13.611-6.944-6.109 1.249-10.365 6.981-16.644 7.663-.844.095-1.879-.062-2.914-.22a37.5 37.5 0 0 0-4.791-2.561c-8.23-3.67-18.292-4.981-27.488-4.28 2.793 1.871 5.104 4.679 6.57 7.529 5.795 11.259 2.1 31.715-9.889 37.715-5.082 2.541-10.615 2.53-15.959 4.005-4.75 1.307-8.436 4.073-11.904 7.443-1.411 1.367-3.233 3.568-5.292 4.538-.108.329-.218.652-.325.984-7.033 21.721 11.16 34.508 30.078 37.62 11.107 1.833 23.148 2.614 33.982-1.028 7.898-2.651 15.906-7.753 19.527-15.527 3.769-8.121 1.822-16.215-.998-24.251-3.359-9.548-2.127-18.917-1.369-28.745.262-3.323-.049-6.341-.824-9.086.713-.299 1.353-.545 1.826-.661 3.117-.74 6.361-.956 9.502-1.632 6.845-1.481 11.278-4.961 10.523-12.562z" fill="none"/><g><g><g><path d="M50.745 54.163c-.777 3.506-3.58 5.727-6.256 4.986-2.678-.766-4.225-4.215-3.455-7.727.787-3.496 3.602-5.743 6.289-4.976 2.672.746 4.215 4.215 3.422 7.717z" fill="#e0e0e0"/></g></g></g><g><g><g><path d="M79.511 54.509c1.115 3.391 4.119 5.244 6.709 4.178 2.586-1.092 3.783-4.719 2.656-8.115-1.119-3.37-4.127-5.254-6.721-4.167-2.576 1.086-3.779 4.724-2.644 8.104z" fill="#2f2f2f"/></g></g></g><path d="M40.882 92.225a9.784 9.784 0 0 0-1.664-.74c-1.416-.488-3.414-1.171-3.369-3.055.02-1.229 1.574-2.62 2.604-3.029 5.342-2.137 14.908-.373 16.283 6.247.41 1.921 0 5.239-1.869 6.314-2.572 1.475-5.066-.079-7.023-1.785-1.671-1.438-3.12-2.929-4.962-3.952z" fill="#2f2f2f"/><path d="M85.196 92.225c.52-.29 1.07-.541 1.662-.74 1.418-.488 3.428-1.171 3.375-3.055-.035-1.229-1.574-2.62-2.607-3.029-5.355-2.137-14.897-.373-16.289 6.247-.408 1.921 0 5.239 1.875 6.314 2.562 1.475 5.061-.079 7.012-1.785 1.67-1.438 3.119-2.929 4.972-3.952z" fill="#2f2f2f"/><path d="M48.048 89.757c-.883-.357-1.881-.478-3.014-.315-1.795.268-2.951 1.784-3.496 3.464-3.486 10.64 6.594 18.393 15.82 20.498 9.07 2.074 22.41.457 28.115-7.878 1.486-2.152 2.572-5.727 2.262-8.362-.277-2.325-1.307-5.449-3.111-7.044-1.732-1.522-4.861-1.229-6.803-.21-1.188.619-2.174 1.942-2.447 3.244-.283 1.391.482 2.268.74 3.575.195 1.013.104 2.026-.404 2.934-2.498 4.346-9.229 5.47-13.732 4.887-2.42-.309-5.354-1.175-7.379-2.571-1.412-.972-2.404-2.756-2.73-4.414-.367-1.848.631-3.35-.609-5.071-.908-1.262-1.952-2.227-3.212-2.737z" fill="#fcc21b"/></g></svg>