<svg id="レイヤー_1" xmlns="http://www.w3.org/2000/svg" viewBox="0 0 128 128"><g><path fill="#2f2f2f" d="M72.824 44.888l-24.515 35.72 16.269 13.741 28.961-1.692L117 61.163l-6.133-8.246z"/><g><g fill="#fcc21b"><path d="M52.287 103.854c-.746 2.439-1.248 5.18-2.678 7.246-3.197 4.627-8.658-2.027-12.611-.761-1.826.581-2.469 3.049-2.014 4.705.709 2.56 3.619 2.931 5.717 3.895 1.164.542 2.424.863 3.672 1.215 1.125.32 2.199.723 3.344.942 1.496.302 3.115-.09 4.25-1.144 1.361-1.244 1.299-2.801 1.65-4.477.492-2.428 1.437-4.747 2.41-7.025.873-2.068 2.881-5.099 2.584-7.428-.08-.662-.602-.993-1.219-1.214-.711-.26-1.736-.561-2.5-.481-1.404.13-1.865 2.438-2.258 3.502-.12.333-.23.673-.347 1.025z"/><path d="M82.904 101.153c2.049 1.525 4.473 2.912 5.945 4.947 3.311 4.539-4.795 7.479-4.91 11.633-.057 1.917 2.072 3.343 3.783 3.463 2.648.181 3.959-2.449 5.57-4.094.898-.925 1.611-2.008 2.357-3.062.684-.954 1.41-1.837 2.004-2.841.779-1.325.947-2.981.336-4.396-.732-1.696-2.225-2.158-3.684-3.04-2.133-1.266-4-2.933-5.82-4.599-1.656-1.515-3.854-4.415-6.148-4.908-.666-.15-1.145.241-1.557.743-.486.582-1.108 1.455-1.279 2.198-.346 1.364 1.676 2.579 2.551 3.292.272.233.557.453.852.664z"/></g><g><path d="M20.242 40.994c-3.649 1.386-9.66 3.644-13.305 5.029-.982.37-1.967.752-2.943 1.123-1.092.411-3.037 1.154-2.486 2.269.451.934 2.379 1.465 3.473 1.917 2.682 1.113 5.371 2.218 8.061 3.332.26.11 6.141 2.118 6.121 2.328l1.079-15.998z" fill="#f79329"/><path d="M122.795 47.549c-2.088-1.054-5.283-.553-7.426-.111-2.383.492-4.723 1.194-7.482.873-1-.11-2.25-.481-3.459-.943a27.36 27.36 0 0 1-3.207-1.455c-5.088-2.811-8.996-6.543-12.564-11.231-1.781-2.349-3.703-4.365-5.395-6.754-3.434-4.848-10.012-7.979-15.201-10.108-6.182-2.519-12.43-3.201-19.215-2.378-3.566.432-6.91.782-10.322 2.167-2.83 1.144-5.711 2.771-8.121 4.777-2.156 1.807-3.684 4.056-5.389 6.233-1.266 1.605-2.207 3.281-3.131 5.109-1.346 2.699-2.82 5.51-3.363 8.45-3.361 18.086-.982 39.935 15.969 51.908 10.639 7.518 23.084 9.305 35.711 8.702 16.023-.762 32.148-7.577 42.344-19.35 4.818-5.57 9.305-11.724 11.984-18.629 1.831-4.715 4.224-14.23-1.733-17.26zm-15.902 23.173c-3.664 10.459-15.697 16.02-26.115 16.351-4.201.13-8.4-.461-12.215-1.747-1.957-.662-13.688-6.172-11.256-9.113 1.039-1.273 4.09 1.606 5.088 2.169 1.865 1.043 3.879 1.815 5.938 2.378 4.135 1.145 8.561 1.516 12.816 1.135 7.859-.703 16.66-4.396 19.381-12.456.873-2.579 2.815-7.256.191-9.424-1.986-1.636-5.359-1.516-7.789-1.746-4.918-.482-9.885-.773-14.713-1.917-1.035-.251-6.59-1.496-4.412-3.332 1.199-1.014 4.166-.271 5.631-.201 2.801.131 5.598.301 8.387.512 2.559.19 5.133.101 7.688.321 3.061.272 6.594.371 9.268 2.047 1.922 1.215 2.94 2.971 3.357 4.948.696 3.261-.206 7.115-1.245 10.075z" fill="#fcc21b"/><g><g><g><path d="M29.139 42.499c.07 2.951 2.107 5.229 4.521 5.129 2.434-.119 4.352-2.599 4.281-5.54-.08-2.94-2.113-5.238-4.547-5.118-2.423.11-4.341 2.59-4.255 5.529z" fill="#2f2f2f"/></g></g></g></g></g></g></svg>