<svg id="レイヤー_1" xmlns="http://www.w3.org/2000/svg" viewBox="0 0 128 128"><g><path d="M109.384 84.167s-3.604-.047-5.676-.381l-4.426-11.357 4.602-9.955 6.746 1.283 3.963 12.631-5.209 7.779z" fill="#2f2f2f"/><path d="M18.593 84.171s3.328-.205 5.605-.621l7.422-14.869-7.387-9.635-11.402 8.189.965 14.453 4.797 2.483z" fill="#2f2f2f"/><g><path d="M123.415 71.144c-14.357-12.775-20.168-28.367-20.168-28.367v.004c-2.9-8.525-7.119-16.836-11.594-22.355-6.263-7.749-12.82-13.29-27.513-13.265-14.693-.025-21.5 6.654-28.094 14.102-4.656 5.258-8.621 13.227-11.301 21.518v-.004S18.944 58.369 4.587 71.144c-7.549 6.715-3.297 12.129 3.789 12.883 3.613.387 7.064.387 10.217.145-.066-.305-.119-.611-.182-.912a24.791 24.791 0 0 1-.359-3.102c-.121-2.283-.092-4.572.34-6.84.102-.557.201-2.98.924-4.613.463-1.023 1.174-1.74 2.289-1.494 1.264.281 1.104 1.34 1.072 2.047-.1 2.791-.4 5.486.047 8.271.314 2.027.858 4.029 1.475 6.021 1.611 3.934 3.91 7.557 7.15 10.674 4.608 4.426 10.27 7.471 16.145 9.273-.256 1.004.025 2.27-.045 3.307-.186 2.639-1.355 4.041-3.332 5.621-.934.748-2.066 1.299-3.021 2.072-.822.668-1.756 1.65-1.912 2.721-.185 1.279.566 2.354 1.707 2.713 3.297 1.051 9.037 1.848 11.387-1.525.682-.967.742-2.309.863-3.531.068-.684.068-1.531 0-2.213-.182-1.816-.031-3.584-.01-5.465.01-.834.039-1.611-.131-2.269 2.955.601 6.834 1.185 10.834 1.185 4.092 0 8.295-.607 11.457-1.225-.182.668-.162 1.461-.15 2.309.029 1.881.176 3.648 0 5.465a10.768 10.768 0 0 0 0 2.213c.119 1.223.176 2.564.852 3.531 2.359 3.373 8.096 2.576 11.389 1.525 1.148-.359 1.891-1.434 1.705-2.713-.15-1.07-1.086-2.053-1.9-2.721-.955-.773-2.094-1.324-3.033-2.072-1.973-1.58-3.141-2.982-3.311-5.621-.08-1.037.189-2.303-.061-3.307 5.875-1.803 11.541-4.848 16.152-9.273 2.631-2.539 4.633-5.42 6.148-8.527.01-.016.021-.029.021-.045.896-2.68 1.725-5.385 2.158-8.123.445-2.785.139-5.48.039-8.271-.021-.707-.188-1.766 1.072-2.047 1.125-.246 1.826.471 2.289 1.494.723 1.633.824 4.057.934 4.613.434 2.268.461 4.557.334 6.84a26.435 26.435 0 0 1-.359 3.102c-.055.301-.125.602-.186.908 3.154.246 6.617.246 10.238-.141 7.086-.755 11.34-6.169 3.793-12.883z" fill="#fcc21b"/><g><g><g><g><path d="M48.001 44.839c-.684 2.871-3.152 4.672-5.49 4.074-2.359-.623-3.713-3.443-3.031-6.312.693-2.852 3.152-4.678 5.51-4.055 2.347.605 3.698 3.437 3.011 6.293z" fill="#2f2f2f"/></g></g></g><g><g><g><path d="M80.147 44.839c.684 2.871 3.16 4.672 5.5 4.074 2.352-.623 3.709-3.443 3.025-6.312-.688-2.852-3.156-4.678-5.504-4.055-2.358.605-3.7 3.437-3.021 6.293z" fill="#2f2f2f"/></g></g></g><path d="M55.126 55.407c-.07-.141-.141-.281-.195-.422-.729-1.861.738-3.152 1.967-4.064.99-.728 1.973-1.496 3.037-2.088 1.266-.713 2.789-1.174 4.215-1.164 2.146.02 4.215.949 6.043 2.158.65.422 1.254.902 1.891 1.334.176.121.332.291.492.441 1.008.939 1.49 2.781.646 3.986-.422.59-1.078 1.053-1.625 1.504-.723.607-1.414 1.275-2.199 1.787-.992.646-1.986 1.264-2.984 1.881-.764.467-1.422 1.189-2.4 1.039-1.168-.182-2.332-1.113-3.26-1.795-.648-.473-1.322-.914-1.961-1.416-.705-.533-1.262-1.336-2.039-1.742-.72-.374-1.216-.697-1.628-1.439z" fill="#f79329"/></g></g></g></svg>