<svg id="レイヤー_1" xmlns="http://www.w3.org/2000/svg" xmlns:xlink="http://www.w3.org/1999/xlink" viewBox="0 0 128 128"><g><g><g><defs><path id="SVGID_1_" d="M69.598 16.356C53.723 14.509 37.096 20.9 26.93 33.307c-2.521 3.078-4.657 6.69-6.247 10.341-2.324 5.376-3.235 11.299-2.215 17.087.775 4.356 1.922 8.673 2.141 13.112.217 4.286-.911 8.226-1.642 12.402-.924 5.302-.994 12.245 6.291 11.571 3.744-.351 6.233-4.002 8.406-6.646 2.564-3.112 5.275-6.19 8.462-8.686 5.521-4.325 11.628-5.061 18.436-5.411 3.213-.166 6.458-.21 9.648-.766 2.495-.434 6.199-2.29 8.642-1.257 6.068 2.57 2.54 12.866.885 17.064-2.702 6.844-8.335 13.742-16.798 11.855-3.108-.691-5.218-.49-8.305-.03-2.53.381-6.164 1.668-7.241 4.269-1.786 4.391 7.758 4.054 10.052 4.054 1.97 0 3.888-.814 5.885-.595 3.11.337 1.899 3.021 2.6 5.2.718 2.225 1.838 4.177 2.885 6.234 1.055 2.084 5.275 6.624 7.416 3.17 2.601-4.212.565-9.859.438-14.387-.105-3.699 3.288-6.128 6.212-7.503 21.208-9.938 31.984-35.566 24.894-57.78a41.43 41.43 0 0 0-2.522-6.168C98.59 27.334 84.524 18.254 70.09 16.411c-.168-.02-.33-.037-.492-.055z"/></defs><use xlink:href="#SVGID_1_" overflow="visible" fill="#006ca2"/><clipPath id="SVGID_2_"><use xlink:href="#SVGID_1_" overflow="visible"/></clipPath><path d="M21.721 97.492c1.296.162 3.739-2.846 4.387-3.585 3.939-4.483 6.221-10.192 10.494-14.412 3.624-3.59 8.326-5.67 12.944-7.645 7.286-3.112 14.754-6.111 22.813-6.05 5.438.039 12.044 1.401 15.607 5.94 2.715 3.463 1.865 10.512 1.018 13.077-1.81 5.459-5.526 11.417-12.11 16.47-1.195.915-5.639 3.634-11.748 2.985-2.909-.307-7.077-2.25-11.656-2.407-7.476-.254-16.042 1.27-21.947.275-7.924-1.33-9.802-4.648-9.802-4.648z" clip-path="url(#SVGID_2_)" fill="#40c0e7"/></g><path d="M66.073 16.093c4.229-5.849 10.484-10.021 17.176-12.529 5.677-2.128 14.787-4.514 20.68-2.054 2.934 1.222 3.586 4.82 2.066 7.579-1.199 2.18-2.354 4.391-3.401 6.654-1.877 4.089-3.515 8.467-4.102 12.955-.183 1.449-.107 2.893-.29 4.347-.73.097-1.698.141-2.412-.009-3.128-.647-5.346-3.384-7.954-5.117a44.621 44.621 0 0 0-7.941-4.207c-3.441-1.401-7.031-2.377-10.639-3.24-1.3-.315-5.332-.945-4.106-2.985.284-.469.59-.93.923-1.394z" fill="#006ca2"/><path d="M73.948 72.021c1.752-2.981 5.333-4.829 8.853-3.948.495.126 1.007.289 1.479.49.307.135.877.608 1.217.617.03-.166-.069-.219-.104-.377a3.248 3.248 0 0 1-.069-.744c0-.481.083-.998-.059-1.471-.165-.513-.477-.543-.844-.832-.416-.324-.714-.84-1.103-1.208a5.564 5.564 0 0 0-1.34-.959c-1.244-.617-2.513-1.182-3.73-1.852-.876-.491-1.843-.749-2.731-1.234-1.182-.648-2.544-.836-3.923-.836-2.101-.004-4.212-.048-6.291.171-2.92.306-5.984.661-8.646 1.987-1.112.551-2.118 1.195-2.715 2.303-.688 1.287-1.085 2.557-1.593 3.918-.236.621-.193 1.081-.193 1.72-.008.395-.249 1.086-.249 1.086s3.366-1.274 5.67 3.997c1.558 3.573 1.685 7.469 3.58 10.976 1.52 2.784 3.665 5.381 6.597 6.729 1.082.495 2.349 1.135 3.456 1.152 2.083.043 2.88-.99 2.954-2.898.025-.491.005-.98-.03-1.472-.228-3.331-1.331-6.54-1.476-9.889a22.091 22.091 0 0 1 .315-4.741 8.15 8.15 0 0 1 .975-2.685z" fill="#006ca2"/></g><path d="M50.759 68.733c-2.6 1.607-6.133.438-7.893-2.644-1.765-3.069-1.104-6.896 1.488-8.52 2.592-1.633 6.129-.442 7.897 2.623 1.77 3.082 1.098 6.904-1.492 8.541z" fill="#2f2f2f"/></g></svg>