<svg id="レイヤー_1" xmlns="http://www.w3.org/2000/svg" viewBox="0 0 128 128"><g fill="#78a3ad"><path d="M111.673 82.976c-.126-.87-.897-1.46-1.741-1.342l-6.51 1.007-.078 3.231 7.04-1.087c.834-.131 1.411-.939 1.289-1.809z"/><path d="M99.873 96.727l-1.197 2.833 8.012 2.644c.152.053.311.075.464.075.649 0 1.25-.432 1.459-1.109.254-.839-.191-1.734-.996-1.997l-7.186-2.371"/><path d="M102.139 92.675l7.602 1.426c.092.016.185.025.275.025.727 0 1.369-.538 1.504-1.308.149-.864-.404-1.69-1.235-1.849l-7.393-1.385-1.249 2.955"/></g><ellipse cx="64.83" cy="84.393" rx="31.005" ry="24.169" fill="#2f2f2f"/><g><g><path d="M124.6 33.302c-6.797-12.09-22.584-15.062-34.487-8.915a23.136 23.136 0 0 0-11.007 12.358 23.312 23.312 0 0 0-1.232 4.793c-.17 1.141-.247 2.725-1.901 2.278-.941-.26-1.865-.6-2.836-.805 0 0-.826-.153-1.771-.306-.281-.077-.517-.09-.736-.119a28.981 28.981 0 0 0-1.665-.239c-1.687-.149-3.33-.26-4.956-.272-1.651.012-3.286.123-4.972.272-.358.034-.996.128-1.66.239-.23.029-.46.043-.741.119-.939.153-1.771.306-1.771.306-.967.205-1.898.545-2.836.805-1.654.447-1.728-1.137-1.898-2.278a23.542 23.542 0 0 0-1.234-4.793 23.12 23.12 0 0 0-11.004-12.358C25.983 18.24 10.198 21.212 3.4 33.302c-6.79 12.09-1.478 29.43 10.493 35.471 8.08 4.078 12.865 2.618 12.95 3.031.162.719-1.409 3.929-2.18 8.714-.902 5.641.247 11.596 2.896 16.654a30.137 30.137 0 0 0 3.286 4.972c1.298 1.592 2.865 3.125 4.529 4.342 7.203 5.257 18.297 8.054 28.633 8.233 10.319-.18 21.414-2.976 28.625-8.233 1.656-1.217 3.223-2.75 4.524-4.342a29.471 29.471 0 0 0 3.278-4.972c2.658-5.058 3.804-11.013 2.894-16.654-.764-4.785-2.334-7.995-2.181-8.714.096-.413 4.878 1.047 12.959-3.031 11.97-6.041 17.285-23.381 10.494-35.471z" fill="#78a3ad"/><g><path d="M33.013 62.408c-9.66 3.482-20.627-4.164-20.822-14.228-.161-7.735 6.718-14.193 13.977-14.814 9.473-.813 13.397 5.185 15.041 10.477 1.132 3.666.859 6.518.566 7.02-.593 1.026-7.627 11.137-8.762 11.545z" fill="#fff"/><path d="M95.549 62.408c9.664 3.482 20.627-4.164 20.822-14.228.161-7.735-6.718-14.193-13.977-14.814-9.472-.813-13.397 5.185-15.041 10.477-1.132 3.666-.867 6.518-.565 7.02.592 1.026 7.633 11.137 8.761 11.545z" fill="#fff"/><g><g><path d="M63.072 106.593c-.725.038-1.516-.311-2.031-.762-.907-.791-1.541-2.116-1.886-3.58-.323-1.383-.626-2.742-.682-4.168-.057-1.43 1.26-.936 2.338-1.102.991-.153 1.996-.966 2.835-1.473 1.214-.736 2.181.371 3.23.882.92.451 1.768.647 2.725.476.992-.188 1.205.315.954 1.839-.204 1.251-.375 2.512-.677 3.747-.265 1.137-.644 2.265-1.277 3.252-.408.634-1.188.954-1.924.911-.599-.034-.924-.298-1.365-.651-.593-.464-.763-.183-1.219.226a1.667 1.667 0 0 1-1.021.403z" fill="#fff"/></g><path d="M62.646 90.207a4.033 4.033 0 0 1-.639.034c.085 0 .06 2.95.038 3.223-.175 1.558-1.665 2.073-3.045 2.009-1.298-.064-2.451-.558-3.583-1.171-.503-.272-1.099-.587-1.66-.298-.732.383-.655 1.226-.291 1.852.533.94 1.534 1.571 2.496 2.009 1.532.694 3.35 1.018 5.008.672a5.045 5.045 0 0 0 2.126-1.005c1.602-1.264 3.343.43 5.007.822 1.626.375 3.38.285 4.922-.366 1.076-.452 3.525-1.962 3.277-3.402-.09-.596-.494-1.068-1.144-.992-.698.089-1.376.689-1.984 1.005-1.687.872-3.683 1.056-5.44.243-1.153-.533-1.269-1.248-1.478-2.287-.076-.4-.177-.792-.152-1.196.033-.442.118-.864.059-1.302-.621-.068-1.298-.008-1.937-.013-.515.001-1.052.112-1.58.163z" fill="#2f2f2f"/></g></g></g><path d="M49.525 79.692c0 3.121-2.094 5.645-4.67 5.645-2.579 0-4.679-2.524-4.679-5.645 0-3.12 2.1-5.649 4.679-5.649 2.577 0 4.67 2.529 4.67 5.649z" fill="#2f2f2f"/><path d="M79.036 79.692c0 3.121 2.086 5.645 4.674 5.645 2.575 0 4.678-2.524 4.678-5.645 0-3.12-2.103-5.649-4.678-5.649-2.588 0-4.674 2.529-4.674 5.649z" fill="#2f2f2f"/><path d="M59.036 86.683c0 3.49 2.35 6.321 5.249 6.321 2.882 0 5.236-2.831 5.236-6.321 0-3.5-2.354-6.327-5.236-6.327-2.899 0-5.249 2.827-5.249 6.327z" fill="#2f2f2f"/></g><g fill="#78a3ad"><path d="M16.327 82.976c.126-.87.897-1.46 1.741-1.342l6.51 1.007.078 3.231-7.04-1.087c-.834-.131-1.411-.939-1.289-1.809z"/><path d="M28.127 96.727l1.197 2.833-8.012 2.644a1.413 1.413 0 0 1-.464.075c-.649 0-1.25-.432-1.459-1.109-.254-.839.191-1.734.996-1.997l7.186-2.371"/><path d="M25.861 92.675l-7.602 1.426a1.625 1.625 0 0 1-.275.025c-.727 0-1.369-.538-1.504-1.308-.149-.864.404-1.69 1.235-1.849l7.392-1.385 1.249 2.955"/></g></svg>