<svg id="レイヤー_1" xmlns="http://www.w3.org/2000/svg" xmlns:xlink="http://www.w3.org/1999/xlink" viewBox="0 0 128 128"><g><g><path d="M63.592 121.576a1.48 1.48 0 0 1-.523.807c-5.279 3.969-12.863 5.35-19.348 5.205-7.271-.166-16.688-1.348-22.416-6.262-.486-.416-.74-.727-.74-1.422.016-3.324-.018-6.666-.061-10.01-.023-2.027-.225-34.062-.033-61.584.152-21.855.668-40.633.891-41.023 1.111-1.932 2.895-3.275 4.945-4.092C32.354.746 39.166.035 45.627.57c5.344.447 13.904 1.762 17.398 6.412.662.879.375 2.736.525 3.814.217 1.551.16 12.436.16 16.318v87.235c.001 1.569.104 6.442-.118 7.227z" fill="#855c52"/><g><defs><path id="SVGID_1_" d="M115.773 24.699c-1.695-3.287-8.73-11.996-21.311-6.045-3.311 1.572-6.242 1.348-7.59 1.117-.209-.059-.404-.084-.617-.129-.121-.031-.193-.057-.193-.039-1.652-.336-3.311-.592-4.984-.711a38.17 38.17 0 0 0-5.729-.023c.008-.033.016-.096.016-.096s-3.996.629-8.164-2.185c-11.539-7.801-19.803-.256-21.978 2.734-3.066 4.23-3.48 10.291-1.723 15.881.381 1.207.818 2.395 1.426 3.504.08.152.166.299.246.447 2.426 4.25.447 9.66.859 14.318.314 3.564 1.348 6.965 3.162 9.932-.264-.215-.535-.422-.789-.662-2.441-2.258-5.969-1.803-8.312.447-2.248 2.146-1.396 5.742.238 8.051 1.707 2.432 4.248 4.514 6.807 5.965 1.885 1.068 4.07 1.699 6.125 2.346 1.041.334 2.09.654 3.135.957 1.426.406 1.857 1.299 1.68 2.736-.117.949.082 2.129-.67 2.799-.275.258-.549.648-.818.854-.424.336-1.141.486-1.629.742-.533.281-1.061.582-1.508.99-1.234 1.127-2.156 2.535-2.877 4.037-.404.838-.795 2.111-1.828 2.359-2.693.646-4.857-2.959-7.746-.877-7.379 5.33 8.664 14.1 12.35 15.818 2.828 1.316 4.371.781 7.057-.309 1.941-.785 3.902 1.775 5.291 2.674 1.811 1.168 3.789 1.822 5.912 2.156 4.18.648 8.531.033 12.529-1.258 9.832-3.186 16.498-11.91 16.498-22.266 0-6.066-1.332-11.854-4.371-16.67 2.059-.832 4.027-1.838 5.814-3.088 7.164-5.018 9.246-12.928 9.357-20.924a26.886 26.886 0 0 0-.127-3.057c.031-.016.037-.693.064-.781.207-.865.896-1.475 1.432-2.139.105-.125.223-.262.326-.396.764-1.006 1.377-2.121 1.932-3.248 2.576-5.264 3.097-11.316.708-15.961z"/></defs><use xlink:href="#SVGID_1_" overflow="visible" fill="#78a3ad"/><clipPath id="SVGID_2_"><use xlink:href="#SVGID_1_" overflow="visible"/></clipPath><path d="M61.453 87.256c.311.096.623.199.938.311.41.145.662.303.855.08.227-.238-.229-.686-.533-.98-2.213-2.146-7.09-1.348-7.201-.584-.098.646-.439 1.309.471 1.102 2.412-.558 4.099-.361 5.47.071z" clip-path="url(#SVGID_2_)" fill="#2f2f2f"/><path d="M96.461 74.27c-4.178 1.508-6.139 1.291-6.332 1.963-.125.422.688.893 3.273 1.035 2.963.17 5.576-.295 6.312-.996.5-.482.447-1.076 1.162-1.365.613-.246 1.377-.146 1.73-.844.279-.561-.053-1.5-.535-1.859-.775-.586-1.428.041-2.172.432-1.122.593-2.245 1.204-3.438 1.634z" clip-path="url(#SVGID_2_)" fill="#2f2f2f"/><path d="M53.928 68.438c7.404 6.127 13.231 6.549 13.992 6.797.246.08.713.238.736.576.049.699-2.09.566-2.471.518-5.582-.615-11.936-3.727-18.129-11.465-3.267-4.074-6.729-2.623-6.729-2.623s2.346-1.797 4.26-1.412c1.914.383 3.606 2.576 3.606 2.576s1.487 2.349 4.735 5.033z" clip-path="url(#SVGID_2_)" fill="#2f2f2f"/></g><g><g><g><path d="M71.721 49.887a14.2 14.2 0 0 0-.762 1.84c-1.527 4.508-1.082 9.477 1.699 11.646 1.312 1.016 2.992 1.5 4.518 1.596 2.469.166 4.943-.391 6.453-2.682 1.506-2.289 2.043-7.121 1.34-10.01-1.092-4.436-4.521-6.525-7.258-6.496-2.361.018-4.512 1.223-5.99 4.106z" fill="#2f2f2f"/><path d="M96.816 29.168c.846 1.035 2.186 2.012 2.807 2.664 1.396 1.471 2.398 3.342 3.322 5.121 1.506 2.859 3.899.854 4.998-1.269.471-.9.75-1.889.83-2.902.311-4.101-2.713-7.664-6.752-7.971-1.52-.119-3.443.391-4.75 1.133-1.671.941-1.341 2.122-.455 3.224z" fill="#fff"/><g><path d="M63.572 27.021c-.998.918-2.479 1.676-3.203 2.238-1.615 1.25-2.887 2.945-4.084 4.574-1.93 2.625-4.004.271-4.779-2.01a7.526 7.526 0 0 1-.381-3.025c.318-4.121 3.871-7.217 7.934-6.908 1.537.121 3.361.926 4.561 1.869 1.519 1.192 1.005 2.306-.048 3.262z" fill="#fff"/></g><g><g><path d="M64.748 50.268a3.367 3.367 0 0 1-3.598 3.1 3.364 3.364 0 0 1-3.088-3.609c.145-1.859 1.756-3.248 3.598-3.105 1.844.139 3.221 1.754 3.088 3.614z" fill="#2f2f2f"/></g></g><g><g><path d="M92.221 52.361c-.143 1.854 1.238 3.473 3.08 3.609a3.37 3.37 0 0 0 3.598-3.104c.135-1.85-1.236-3.479-3.08-3.615a3.368 3.368 0 0 0-3.598 3.11z" fill="#2f2f2f"/></g></g></g></g></g></g></g></svg>