<svg id="レイヤー_1" xmlns="http://www.w3.org/2000/svg" viewBox="0 0 128 128"><g><g><g><g><g><path d="M117.682 41.508c-2.955-.611-5.788 1.363-8.181 2.781-3.911 2.338-8.246 3.844-12.64 4.973-.267.072-.578.102-.9.139-2.375-6.287-5.529-12.228-8.853-16.332-5.271-6.512-10.767-11.162-23.109-11.141-12.332-.021-18.043 5.584-23.585 11.842-3.435 3.885-6.433 9.543-8.632 15.588-.215-.029-.46-.045-.647-.096-4.385-1.129-8.725-2.635-12.636-4.973-2.388-1.418-5.222-3.393-8.183-2.781-3.66.768-3.503 6.707-3.149 9.332 1.153 8.637 6.466 17.752 14.196 22.361 2.082 1.24 4.358 2.281 6.737 2.914.734 7.137 3.084 13.83 8.37 18.91 4.132 3.98 9.285 6.67 14.587 8.141 2.02.549 7.227 1.846 12.684 1.846 5.471 0 11.186-1.297 13.202-1.846 5.307-1.471 10.449-4.16 14.586-8.141 5.29-5.08 7.642-11.773 8.376-18.91 2.373-.633 4.651-1.674 6.731-2.914 7.731-4.609 13.043-13.725 14.195-22.361.357-2.625.511-8.565-3.149-9.332z" fill="#fcc21b"/></g><path d="M64.055 67.748c-.721-.037-1.46-.352-1.85-.818-.854-1.047-1.636-2.176-2.466-3.234-1.116-1.412-2.235-2.809-3.351-4.213-.31-.387-.883-.789-1.033-1.24-.13-.387.021-.945.15-1.305.312-.973 1.415-1.91 2.057-2.727 1.726-2.166 3.449-4.324 5.114-6.52.368-.496.851-1.019 1.617-.807 1.114.311 1.951 1.928 2.599 2.752.877 1.121 1.753 2.242 2.63 3.354.767.973 1.524 1.947 2.297 2.912.418.541.799 1.156.796 1.844-.021.707-.516 1.158-.948 1.709a1227.89 1227.89 0 0 1-3.49 4.434c-.518.652-1.068 1.287-1.593 1.939-.403.504-.748 1.186-1.276 1.586-.334.252-.79.352-1.253.334z" fill="#ed6c30"/><path d="M64.014 62.09c-.397-.014-.825-.156-1.033-.375-.491-.479-.931-.994-1.399-1.49a562.847 562.847 0 0 0-1.889-1.928c-.17-.176-.495-.361-.583-.568-.073-.174.019-.432.088-.602.174-.447.793-.873 1.158-1.242.968-.998 1.94-1.996 2.883-3 .206-.23.477-.465.908-.373.628.143 1.098.891 1.465 1.27.501.512.989 1.027 1.486 1.541.424.441.851.891 1.294 1.332.232.248.448.533.438.846 0 .324-.29.541-.522.789-.663.674-1.318 1.354-1.972 2.033-.287.305-.6.592-.898.887-.226.236-.423.545-.717.729-.193.116-.447.161-.707.151z" fill="#fff"/></g><g><g><path d="M95.874 93.191L79.945 83.055l-16 9.027-17.375-9.027-12.56 9.027-14.877-9.822c-1.518 5.424-1.415 10.547.413 15.873 1.726 5.041 4.679 9.701 8.898 13.379 5.335 4.654 11.986 7.807 18.828 9.523 2.616.646 9.327 2.156 16.391 2.156 7.05 0 14.434-1.51 17.026-2.156 6.858-1.717 13.499-4.869 18.839-9.523 8.325-7.248 10.753-18.99 9.339-29.119L95.874 93.191z" fill="#fff"/><path d="M19.133 82.26l14.877 9.822 12.561-9.027 17.375 9.027 16-9.027 15.929 10.137 12.993-10.799c1.414 10.129-1.014 21.871-9.339 29.119-5.34 4.654-11.98 7.807-18.839 9.523-2.593.646-9.977 2.156-17.026 2.156-7.063 0-13.774-1.51-16.391-2.156-6.842-1.717-13.493-4.869-18.828-9.523-4.22-3.678-7.173-8.338-8.898-13.379-1.829-5.326-1.933-10.449-.414-15.873m0-4.477c-.529 0-1.058.092-1.565.285a4.468 4.468 0 0 0-2.742 2.984c-1.777 6.338-1.615 12.397.489 18.531 2.05 5.986 5.571 11.275 10.193 15.299 5.58 4.877 12.733 8.502 20.682 10.492 3.447.855 10.293 2.289 17.474 2.289 8.702 0 17.178-2.055 18.115-2.289 7.938-1.98 15.096-5.607 20.692-10.492 8.628-7.512 12.678-19.891 10.832-33.105a4.472 4.472 0 0 0-2.818-3.553 4.51 4.51 0 0 0-1.617-.305 4.492 4.492 0 0 0-2.859 1.029l-10.482 8.717-13.174-8.385a4.46 4.46 0 0 0-2.406-.697 4.422 4.422 0 0 0-2.199.572l-13.89 7.835-15.222-7.906a4.5 4.5 0 0 0-2.066-.5 4.46 4.46 0 0 0-2.607.834l-10.06 7.229-12.306-8.121a4.458 4.458 0 0 0-2.464-.743z" fill="#2f2f2f"/></g></g><g><path d="M106.801 19.141l-5.774 11.139 12.146-2.139s-2.316-4.951-6.372-9z" fill="#fff"/><path d="M106.801 19.141c4.057 4.049 6.372 9 6.372 9l-12.146 2.139 5.774-11.139m0-4.325c-.22 0-.44.018-.661.055a4.329 4.329 0 0 0-3.172 2.277l-5.777 11.15a4.321 4.321 0 1 0 4.587 6.243l12.15-2.139a4.325 4.325 0 0 0 3.164-6.094c-.109-.229-2.695-5.688-7.23-10.225a4.338 4.338 0 0 0-3.061-1.267z" fill="#2f2f2f"/></g><g><path d="M91.313 5.473c-.79 0-4.724-1.832-10.757 0l3.146 8.959 7.61-2.902V5.473z" fill="#fff"/><path d="M85.851 4.662c3.015 0 4.942.811 5.463.811v6.057l-7.61 2.902-3.146-8.959c2.009-.61 3.786-.811 5.293-.811m0-4.326c-2.159 0-4.362.338-6.551 1.002a4.303 4.303 0 0 0-2.595 2.186 4.309 4.309 0 0 0-.226 3.383l3.145 8.957a4.36 4.36 0 0 0 2.26 2.49 4.385 4.385 0 0 0 3.355.117l7.612-2.902a4.309 4.309 0 0 0 2.787-4.039V5.473a4.325 4.325 0 0 0-3.82-4.293c-.074-.02-.161-.037-.253-.064-1.063-.276-3.043-.78-5.714-.78z" fill="#2f2f2f"/></g><g><path d="M27.941 17.059s-7.255 2.887-9.065 9.613l9.065 2.645 3.065-6.127-3.065-6.131z" fill="#fff"/><path d="M27.941 17.059l3.065 6.131-3.065 6.127-9.065-2.645c1.811-6.727 9.065-9.613 9.065-9.613m0-4.323c-.535 0-1.078.098-1.599.309-.376.146-9.295 3.781-11.641 12.506a4.324 4.324 0 0 0 2.966 5.271l9.063 2.645c.4.121.808.176 1.21.176 1.6 0 3.114-.895 3.863-2.389l3.068-6.125a4.32 4.32 0 0 0 0-3.867l-3.068-6.133a4.318 4.318 0 0 0-3.862-2.393z" fill="#2f2f2f"/></g></g><g><g><g><path d="M49.991 50.006c-.542 2.271-2.496 3.699-4.356 3.225-1.865-.494-2.938-2.729-2.402-4.998.552-2.258 2.501-3.709 4.367-3.213 1.864.476 2.937 2.722 2.391 4.986z" fill="#2f2f2f"/></g></g></g><g><g><g><path d="M78.263 50.006c.536 2.271 2.497 3.699 4.355 3.225 1.86-.494 2.941-2.729 2.396-4.998-.55-2.258-2.496-3.709-4.361-3.213-1.869.476-2.939 2.722-2.39 4.986z" fill="#2f2f2f"/></g></g></g></g></g></svg>