<svg id="レイヤー_1" xmlns="http://www.w3.org/2000/svg" xmlns:xlink="http://www.w3.org/1999/xlink" viewBox="0 0 128 128"><g><path d="M84.004 35.874s-4.283-.445-7.537.553L50.941 63.332s-1.404 17.475-1.266 18.03c.141.562 12.303 9.648 12.727 9.785.416.145 24.457-6.433 24.879-6.568.422-.136 8.105-21.247 8.105-21.247l-6.285-22.087-5.097-5.371z" fill="#2f2f2f"/><g><path d="M117.527 37.889c-3.119.997-5.6 3.972-5.113 7.663.232 1.771 1.98 3.225 3.332 4.194.188.126.396.213.59.329a8.99 8.99 0 0 0-.367.707c-.455 1.085-.979 2.111-1.715 3.031-.102.126-.209.242-.301.359 0-.011-.004-.011-.01-.02-1.434-2.306-4.156-4.67-6.746-5.648-1.434-.532-2.949-.891-4.465-1.007-1.727-.126-2.447.358-3.531-1.191-1.182-1.695-2.383-3.41-3.789-4.93-2.643-2.869-7.516-5.193-11.408-5.503-.025.504-.068 1.017-.109 1.521-.223 2.412-.469 4.844-.076 7.256.832 5.076 3.07 9.812 3.85 14.897l.078.533c.314 2.345.174 4.999-.383 7.284-.494 2.025-1.652 4.225-2.728 5.987-3.824 6.247-11.178 8.922-18.254 8.591-6.674-.318-11.322-4.193-12.713-10.762-.398-1.85-.775-3.671-.775-5.551 0-.252-.066-.677.137-.871.338-.319.416.224.504.504 1.379 4.397 3.971 8.573 8.498 10.152 5.107 1.782 10.961.436 15.408-2.423 3.633-2.344 5.996-6.713 6.02-11.091a5.292 5.292 0 0 0-.092-1.153c-.348-1.598-.887-3.234-1.506-4.921-1.027-2.867-1.758-5.879-2.092-8.931-.137-1.24-.363-2.461-.422-3.71-.248-4.97 1.191-9.812 1.057-14.763-.012-.281.008-.571.004-.853a24.935 24.935 0 0 0-1.549-6.268C76.574 15.441 69.4 9.232 64.33 5.783 59.812 2.702 54.391 1.841 49.156.794 46.39.242 43.635.339 40.83.339c-4.359 0-8.893.784-12.941 2.5-3.851 1.626-7.953 3.709-10.519 7.11-1.359 1.801-2.877 3.748-3.711 5.86-.77 1.927-1.039 4.436-1.051 6.489 0 1.947.416 4.078 1.25 5.852.488 1.007 1.766 2.13 1.486 3.36-.135.601-.398.581-.852 1.018-1.328 1.288-2.625 2.664-3.973 3.99-5.455 5.44-11.847 14.768-8.767 22.75.363.988.531 1.898 1.18 2.761.641.853 1.373 1.599 2.109 2.354 1.398 1.454 2.504 3.188 4.227 4.302 1.58 1.026 3.42 2.12 5.223 2.596 1.584.426 3.234.648 4.873.746 1.152.066 2.348.087 3.49-.203 1.018-.252 1.652-.417 2.684-.291.111.784-.236 1.404-.375 2.15-.908 4.862.826 10.588 3.752 14.473 1.49 1.984 3.158 3.593 5.328 4.823 3.225 1.841 6.756 2.994 10.369 3.816.023 1.705.033 3.399.062 5.124-.393.098-.785.194-1.172.32-4.748 1.579-8.35 5.454-8.471 10.753-.123 5.482 3.027 8.176 7.254 9.356-.363.484-.752.959-.822 1.58-.383 3.263 2.707 4.058 5.301 3.351 1.871-.513 3.229-2.344 4.115-4.35 3.41-.426 6.781-1.762 7.59-5.056.135-.534.24-1.124.328-1.734 1.139 4.533 4.438 6.412 8.461 6.819-.266.533-.58 1.067-.537 1.696.189 3.282 3.365 3.534 5.793 2.392 1.768-.823 2.785-2.857 3.313-4.979 3.289-1.009 6.375-2.897 6.615-6.276.215-3.043-.338-7.498-2.357-9.91-.953-1.144-2.037-1.996-3.27-2.752a11.42 11.42 0 0 0-3.191-1.346 89.082 89.082 0 0 1-.789-5.405c1.984-.659 3.971-1.376 5.947-1.842 2.717-.639 5.182-2.16 7.371-3.912.227.455.461.91.66 1.385.053.117.098.232.146.358a8.2 8.2 0 0 0-1.127 1.085c-2.973 3.526-3.918 9.153-.957 13.542 1.191 1.773 3.461 2.48 5.461 2.818-.482.669-1.053 1.299-.93 2.247.223 1.552 2.264 1.968 3.449 1.639 1.879-.504 3.018-2.346 3.623-4.205.049-.126.062-.242.088-.367 1.084-.476 2.121-1.076 3.061-1.88.121-.097.229-.214.338-.32 1.387 1.473 3.643 2.112 5.678 2.423-.527.658-1.158 1.297-1.021 2.237.227 1.56 2.494 1.976 3.816 1.646 2.062-.504 3.336-2.344 4.006-4.204.047-.135.066-.242.1-.368 1.193-.475 2.346-1.085 3.383-1.88 1.162-.881 2.115-2.149 2.662-3.515 2.533-6.21-1.961-11.393-7.461-12.885-.486-4.011-1.799-8.708-2.438-10.529 6.596-4.339 9.502-13.435 7.232-21.232 1.557-1.899 2.793-4.137 3.67-6.297.107-.281.279-.688.475-1.143a9.898 9.898 0 0 0 1.922-.059 5.932 5.932 0 0 0 2.748-1.202c5.888-4.706-.538-14.16-7.21-12.029zm-52.506 65.046c-3.07 1.647-5.377 4.332-6.234 7.565-.193-1.025-.484-1.985-.953-2.788-.746-1.289-1.672-2.316-2.766-3.275a11.454 11.454 0 0 0-2.906-1.869 79.345 79.345 0 0 1 .098-4.523 46.97 46.97 0 0 0 10.359-.146c.898-.117 1.777-.126 2.654-.136.285 1.55.568 3.1.859 4.65-.374.164-.747.329-1.111.522zm31.821-20.748c.557 1.221 1.352 2.421 1.807 3.139.979 1.54 2.039 2.974 2.889 4.581.291.553.516 1.134.744 1.715a9.407 9.407 0 0 0-1.615 1.366c-.234.241-.418.513-.623.775-1.412-1.482-3.234-2.568-5.201-3.062-.01-.126-.019-.262-.029-.378-.078-1.599-.436-3.178-.562-4.766-.043-.572-.023-1.579-.072-2.684.875-.59 1.726-.725 2.662-.686z" fill="#d7598b"/><g><defs><path id="SVGID_1_" d="M25.213 33.511c-.223-.088-.426-.107-.625-.03-.713.271-1.215 2.694-1.496 3.41-1.812 4.67-3.246 9.629-2.654 14.695.854 7.129 7.092 12.05 14.113 12.796 3.061.33 6.229-.028 9.236-.609 1.803-.349 3.662-1.104 5.353-1.822.803-.349 2.328-1.075 2.77-1.897.959-1.822.115-4.225.164-6.181.064-2.635.523-5.327 1.195-7.876.451-1.704 1.045-3.36 1.73-4.988.115-.261 1.336-3.061 1.086-3.09-1.715-.223-3.521.126-5.252-.058-1.09-.117-2.209-.126-3.336-.126-1.783 0-3.57-.185-5.342-.291-3.918-.252-7.723-1.24-11.58-1.821-1.315-.193-2.516-.668-3.736-1.152-.429-.176-1.048-.757-1.626-.96z"/></defs><use xlink:href="#SVGID_1_" overflow="visible" fill="#fff"/><clipPath id="SVGID_2_"><use xlink:href="#SVGID_1_" overflow="visible"/></clipPath><g clip-path="url(#SVGID_2_)"><g><g><path d="M44.258 38.17c-1.797 1.753-2.025 4.669-.533 6.529 1.512 1.85 4.189 1.955 5.992.203 1.787-1.743 2.039-4.679.533-6.529-1.504-1.86-4.201-1.946-5.992-.203z" fill="#2f2f2f"/></g></g></g><g clip-path="url(#SVGID_2_)"><g><g><path d="M26.617 35.234c-1.684 1.637-1.899 4.389-.508 6.122 1.42 1.744 3.938 1.831 5.629.193 1.67-1.637 1.908-4.396.498-6.131-1.42-1.743-3.943-1.83-5.619-.184z" fill="#2f2f2f"/></g></g></g></g><path d="M21.609 46.577c-1.375.631-2.402 1.735-2.682 3.382-1.299 7.399 7.938 8.737 12.658 5.957 2.221-1.299 2.5-4.747 1.018-6.616-2.333-2.945-7.701-4.203-10.994-2.723z" fill="#2f2f2f"/></g></g></svg>