<svg id="レイヤー_1" xmlns="http://www.w3.org/2000/svg" viewBox="0 0 128 128"><g><path d="M124.521 83.669c.086-.968.111-1.962.053-2.989-.252-4.984-1.738-9.807-2.973-14.603-1.525-5.946-2.182-12.053-3.604-18.02-.717-3.01-2.32-6.24-1.258-9.442 1.162-3.471 3.754-6.048 4.541-9.786 1.529-7.208-.856-15.142-7.385-19.121-4.498-2.732-10.305-3.599-15.266-1.855-2.418.851-4.791 1.882-6.951 3.273-2.049 1.315-3.625 1.037-5.969.77-1.775-.208-3.455-.962-5.164-1.449a67.081 67.081 0 0 0-12.754-2.374c-8.02-.695-16.154.043-23.768 2.331-1.83.545-3.135 1.187-5.006.412-1.391-.583-2.492-1.733-3.742-2.541-2.136-1.365-4.5-2.37-6.875-3.205-4.965-1.748-10.779-.882-15.272 1.856-6.528 3.979-8.907 11.908-7.39 19.116a20.03 20.03 0 0 0 2.803 6.749c3.047 4.657 2.064 6.17.545 11.491-1.057 3.706-1.795 7.486-2.576 11.251-.631 3.123-.994 6.234-1.541 9.325-.699 3.93-1.656 7.587-1.582 11.63.158 8.059 3.541 16.426 9.363 21.987 3.346 3.203 7.545 5.391 11.887 6.925 5.357 1.893 10.982 2.55 14.18 7.855 1.381 2.289 2.92 4.09 5.188 5.524 13.121 8.314 33.676 6.464 43.166-6.615 4.918-6.764 15.291-5.983 22.105-9.625 7.439-3.978 14.367-9.925 15.245-18.87z" fill="#fcc21b"/><path d="M124.617 83.685c.316-2.289.193-4.7-.459-7.229-.707-2.743-2.434-.145-3.336 1.117-1.279 1.802-2.723 3.647-4.535 4.978-1.84 1.358-3.594 1.434-5.797 1.434-4.08 0-7.416-2.979-7.508-7.246-.053-2.588.418-5.064 1.273-7.507.613-1.759 1.529-3.625 1.824-5.444.25-1.545-.156-3.112.057-4.641.156-1.129.496-2.021.311-3.225-.342-2.246-1.781-4.347-4.147-4.722-4.361-.69-7.734 1.706-8.869 5.812-1.379 5.063-5.721 6.315-10.367 6.528-1.732.081-3.23.364-5.01.016-3.238-.631-6.203-2.673-5.295-6.357.203-.866.996-1.759 1.059-2.641.199-2.524-4.395-1.631-5.988-1.631-1.582-.005-2.93.422-4.438.604-2.619.316-5.646-.182-8.234-.684-.791-.155-1.516-.599-2.299-.562-.471 2.749.982 6.256-1.188 8.523-5.117 5.358-12.941.385-15.977-3.984-1.557-2.235-3.188-4.47-5.744-5.604-4.117-1.817-9.936.407-9.902 5.46.021 3.62 1.336 7.406 2.234 10.871 2.096 8.063 7.908 17.678-5.582 17.453-1.742-.027-3.566-.744-5.065-1.609-1.535-.888-3.17-2.973-5.148-2.497-1.156.278-.941 1.62-1.059 2.791-.076.797-.144 1.593-.049 2.39.572 4.759 4.025 9.203 7.369 12.395 3.346 3.203 7.545 5.391 11.887 6.925 5.357 1.893 10.982 2.55 14.18 7.855 1.381 2.289 2.92 4.09 5.188 5.524 13.121 8.314 33.676 6.464 43.166-6.615 4.918-6.764 15.291-5.983 22.105-9.625 7.542-4.031 14.242-10.598 15.343-18.853z" fill="#fcc21b"/><g><g><path d="M41.33 48.57c-.16-.23-.32-.471-.471-.707-3.145-5.208 4.246-3.668 6.951-3.005 4.553 1.107 9.113 2.31 13.781 2.749 4.918.465 9.703-1.198 14.494-1.989 2.289-.379 4.781-.668 7.074-.208 2.939.583-.262 4.71-1.188 5.721-2.346 2.545-5.502 3.962-8.533 5.492-4.764 2.395-9.395 3.411-14.646 2.224-2.555-.578-4.988-1.615-7.393-2.684-3.807-1.69-7.663-4.096-10.069-7.593z" fill="#2f2f2f"/><g><g><g><path d="M44.955 36.261c-1 3.481-4.609 5.684-8.025 4.952-3.434-.765-5.42-4.187-4.422-7.668 1.01-3.476 4.609-5.7 8.053-4.94 3.427.737 5.4 4.186 4.394 7.656z" fill="#2f2f2f"/></g></g></g><g><g><g><path d="M83.492 36.966c1.439 3.369 5.289 5.198 8.609 4.145 3.32-1.086 4.85-4.679 3.416-8.048-1.443-3.347-5.309-5.219-8.615-4.144-3.33 1.08-4.853 4.69-3.41 8.047z" fill="#2f2f2f"/></g></g></g><g><path d="M34.85 72.75c-.043.016-.064.038-.107.059.953 1.252 2.824 1.444 3.967 2.513 3.637 3.396 2.027 9.304.809 13.047a19.319 19.319 0 0 0-.84 7.807c.631 6.368 5.926 9.266 11.422 10.945 7.016 2.139 14.213 2.679 21.404.995 3-.701 5.941-1.38 8.637-2.812 2.438-1.289 4.133-2.567 5.281-5.101 3.244-7.107-3.699-15.304-.496-22.244.539-1.177 1.715-1.851 2.711-2.588.074-.053 2.48-2.128 1.572-2.251-1.076-.145-2.252-.048-3.357-.054-1.531-.005-2.879-.332-4.375-.481-3.551-.353-7.059-.973-10.578-1.283-1.346-.118-2.447-.326-3.559-1.182-1.209-.925-3.135-4.042-4.846-2.609-1.486 1.256-3.379 2.267-5.25 3.122-1.67.759-3.221 1.214-5.018 1.551-1.059.198-2.244.642-3.346.476-.899-.139-1.551-.604-2.477-.62-2.926-.053-5.898.336-8.785.476-.898.042-1.957-.183-2.769.234z" fill="#ed6c30"/></g><path d="M51.559 103.988c10.791 3.235 31.955 3.904 28.447-9.54-.658-2.524-2.375-5.732-4.342-7.646-6.576-6.428-20.656-6.326-26.752.786-2.674 3.123-4.609 7.336-3.742 11.325.363 1.658 1.004 2.807 2.65 3.647.996.502 2.268.989 3.739 1.428z" fill="#ed6c30"/><path d="M63.162 73.723c.252.251.535.498.84.732 2.24 1.728 4.508 2.129 6.412 2.3 1.758.155 3.523.39 5.395.646 1.111.15 2.23.3 3.346.434-1.234 4.459-.182 8.828.707 12.437.76 3.123 1.426 5.818.578 7.668-.449.984-.941 1.513-2.867 2.524-2.041 1.091-4.453 1.652-7.324 2.321a32.46 32.46 0 0 1-7.391.845c-3.588 0-7.348-.588-11.154-1.749-6.32-1.925-7.379-4.24-7.57-6.262a13.76 13.76 0 0 1 .586-5.555c.793-2.412 2.473-7.582 1.316-12.528.461.16 1.145.396 2.031.534.43.064.867.097 1.328.097 1.293 0 2.416-.268 3.238-.465.209-.048.408-.102.611-.139 2.348-.438 4.283-1.043 6.277-1.952a38.09 38.09 0 0 0 3.641-1.888m.283-6.588c-.32 0-.637.112-.951.375-1.486 1.256-3.379 2.267-5.25 3.122-1.67.759-3.221 1.214-5.018 1.551-.899.166-1.891.508-2.832.508-.178 0-.342-.011-.514-.032-.899-.139-1.551-.604-2.477-.62-.188-.006-.369-.006-.555-.006-2.744 0-5.525.348-8.231.481-.086.006-.172.006-.256.006-.375 0-.76-.032-1.135-.032-.492 0-.967.048-1.379.262-.043.016-.064.038-.107.059.953 1.252 2.824 1.444 3.967 2.513 3.637 3.396 2.027 9.304.809 13.047a19.319 19.319 0 0 0-.84 7.807c.631 6.368 5.926 9.266 11.422 10.945 4.207 1.278 8.471 1.984 12.758 1.984 2.877 0 5.766-.316 8.646-.989 3-.701 5.941-1.38 8.637-2.812 2.438-1.289 4.133-2.567 5.281-5.101 3.244-7.107-3.699-15.304-.496-22.244.539-1.177 1.715-1.851 2.711-2.588.074-.053 2.48-2.128 1.572-2.251-.471-.064-.957-.08-1.445-.08-.607 0-1.219.026-1.816.026h-.096c-1.531-.005-2.879-.332-4.375-.481-3.551-.353-7.059-.973-10.578-1.283-1.346-.118-2.447-.326-3.559-1.182-.984-.761-2.453-2.985-3.893-2.985z" fill="#2f2f2f"/><path d="M107.195 33.534c-.367-.294-.785-.428-1.246-.326-.859.192-.4 1.957-.25 2.486.332 1.198.533 2.46.188 3.679-.846 2.962-4.914 1.802-7.139 2.086-.664 3.347 6.186 3.77 8.404 3.293 4.428-.946 2.643-9.224.043-11.218z" fill="#2f2f2f"/><path d="M112.072 41.801c.654 2.368 1.154 4.7.551 7.314-.342 1.498-.988 5.197-2.988 5.294-.391.021-.918-.219-1.272-.354-.826-.315-1.387-1.005-2.021-1.583-.695-.636-1.258-1.401-2.043-1.904-.387-.246-.766-.481-1.273-.357-1.84.454-.295 1.898.238 2.791 1.559 2.652 1.875 6.86.512 9.636-.396.808-1.553 2.219-1.402 3.149.314 1.898 2.809-.235 3.551-.85 1.992-1.642 3.358-3.962 5.416-5.507 1.363-1.021 3.012-1.412 4.24-2.701 1.105-1.149 1.723-2.604 2.107-4.128.797-3.123.609-6.588-.621-9.583-.695-1.684-2.787-7.309-5.193-7.192-1.361.07-1.004 1.401-.816 2.214.288 1.295.672 2.536 1.014 3.761z" fill="#2f2f2f"/><path d="M120.629 70.188c1.305-2.577 1.822-5.476 1.176-8.641-.428-2.139-.391-4.679-1.787-6.481-2.041-2.636-2.34 3.118-2.625 3.995-.773 2.481-2.031 4.646-3.34 6.855-2.082 3.529-5.305 5.989-8.428 8.48-2.76 2.209-6.262 3.909-9.539 5.203-.996.39-3.678.85-4.064 2.016-1.002 3 6.326 1.802 7.416 1.658 7.449-.989 17.484-5.733 21.191-13.085z" fill="#2f2f2f"/><path d="M120.873 70.108c-.207.861-.309 1.824-.438 2.305-2.254 8.652-11.879 14.191-19.838 16.656-1.742.54-3.561.797-5.277 1.433-.84.31-1.23.449-1.199 1.391.006.492.066.839.396 1.213 1.145 1.327 3.963 1.038 5.523.974 3.295-.145 6.572-1.091 9.605-2.358 5.549-2.321 10.5-5.577 13.676-10.667.541-.861 1.338-1.786 1.488-2.812.139-.968-.021-2.085-.021-3.069 0-.24-.43-.604-.52-.829-.166-.412-.133-.578-.188-1.016-.08-.69-.107-1.369-.246-2.054-.17-.845-.658-3.219-1.982-2.861-.485.133-.78.871-.979 1.694z" fill="#2f2f2f"/><path d="M10.531 49.388c-.268 6.946.145 14.48 4.395 20.288 2.258 3.058 5.17 5.075 8.576 6.694 1.851.882 9.957 3.16 7.06 6.652-.805.974-2.889.626-3.953.626-4.037-.005-7.791-1.289-11.293-3.182-3.16-1.711-6.096-4.545-8.004-7.571-3.102-4.936-1.018-13.614-.353-19.02.336-2.818 1.4-5.978 3.738-7.753-.054 1.068-.123 2.164-.166 3.266z" fill="#2f2f2f"/><path d="M14.514 36.464c.584-.695 1.277-1.177 2.064-.888.658.235-.385 4.15-.609 4.642-.748 1.631-.883 2.646-.883 4.459 0 1.551.076 3.042.836 4.422.662 1.208 1.283 2.556 2.545 3.251.908.492.973.31 1.678-.262.914-.754 1.496-1.444 2.619-1.775 1.916-.572 1.766.946.707 2.043-1.455 1.513-1.926 3.277-2.012 5.325-.062 2.342.301 5.011 1.107 7.214.445 1.203 1.457 1.967 1.182 3.336-2.203.62-4.918-3.016-5.785-4.566-.652-1.161-.951-2.337-1.4-3.524-.408-1.097-1.07-1.224-1.926-1.909-1.914-1.524-3.188-3.48-4.213-5.55-.727-1.481-.943-3.294-.85-4.919.096-1.673.877-2.935 1.363-4.465.481-1.54 1.262-3.123 2.106-4.491.322-.536.836-1.568 1.471-2.343z" fill="#2f2f2f"/><path d="M28.25 14.07a10.493 10.493 0 0 0-1.902-.85c-3.438-1.106-8.289-.701-10.588 2.417-1.914 2.604-2.305 6.102-1.572 9.197.449 1.872 2.717 7.63 5.523 6.625.797-.294 1.557-1.353 1.973-2.064.578-.984 1.168-1.796 1.84-2.738.686-.936 1.274-2.021 2.037-2.882 1.418-1.625 4.733-3.042 5.455-5.111.679-1.915-.963-3.568-2.766-4.594z" fill="#2f2f2f"/><path d="M98.844 16.316a10.65 10.65 0 0 1 1.883-.84c3.385-1.128 8.244-.919 10.641 1.867 2.01 2.32 2.539 5.507 1.908 8.363-.379 1.732-2.426 7.074-5.277 6.245-.812-.241-1.604-1.187-2.049-1.823-.619-.876-1.223-1.604-1.939-2.438-.707-.845-1.348-1.813-2.137-2.583-1.479-1.438-4.826-2.625-5.627-4.502-.751-1.728.831-3.289 2.597-4.289z" fill="#2f2f2f"/><path d="M24.379 31.341c-.106.027-.219.065-.342.102-3.016 1.032-5.176 5.234-4.148 8.293 1.035 3.101 6.287 5.224 9.271 4.502.705-.176 1.766-1.45 1.443-2.235-.332-.781-2.461-1.283-3.193-1.673-1.395-.77-2.721-1.203-2.881-2.99-.138-1.315 2.844-6.795-.15-5.999z" fill="#2f2f2f"/><path d="M2.842 72.45c.277-.684.693-1.299 1.369-1.449.973-.214 1.902.722 2.336 1.481.705 1.224.475 2.753.797 4.096a22.22 22.22 0 0 0 1.658 4.625c2.223 4.454 6.047 7.128 10.523 9.026 1.977.845 13.432 4.535 6.143 6.272-5.582 1.337-11.523-.69-16.355-3.411-2.398-1.353-4.397-3.278-5.777-5.679-2.342-4.069-2.244-8.946-1.16-13.389.112-.443.251-1.032.466-1.572z" fill="#2f2f2f"/></g><path d="M68.119 18.299c.213-1.695.193-3.406.471-5.101.326-2 2.973-1.492 4.301-1.101 1.373.395 2.33.278 1.576-1.332C73.75 9.199 72.578 8.899 71 9.119c-2.367.336-4.73-.149-7.105-.208a84.11 84.11 0 0 0-6.586.075c-1.723.086-3.824-.011-5.061 1.487-1.389 1.706 2.691.876 3.578 1.332 1.828.93 1.818 3.647 1.85 5.405.033 2.749.07 5.503.551 8.213.391 2.198 1.273 7.219 4.428 6.887a3.12 3.12 0 0 0 .471-.097c3.582-1.005 4.102-6.694 4.432-9.678.102-.947.362-2.508.561-4.236z" fill="#2f2f2f"/><path d="M50.27 16.171c-1.902.599-4.592 1.198-5.945 2.722-2.053 2.305 2.182 2.352 3.557 2.24 4.336-.347 8.4-1.706 12.85-1.769 6.699-.092 12.887 1.326 19.453 2.187 1.447.198 4.576-.337 2.951-2.38-1.846-2.326-6.176-2.914-8.92-3.657-1.16-.315-2.391-.454-3.57-.701-6.376-1.321-14.152-.588-20.376 1.358z" fill="#2f2f2f"/><path d="M50.559 24.058c-.801.252-2 .728-2.127 1.69-.16 1.161 1.41 1.904 2.342 2.07 1.197.213 2.566-.284 3.711-.487 1.635-.289 3.289-.54 4.963-.562 5.678-.075 10.918 1.128 16.479 1.855 1.246.16 3.895-.289 2.514-2.021-1.557-1.973-5.229-2.47-7.566-3.106-.988-.267-2.025-.385-3.031-.593-5.399-1.118-11.996-.492-17.285 1.154z" fill="#2f2f2f"/></g><path d="M62.162 126.547c-7.1 0-14.068-1.941-19.625-5.46-2.453-1.556-4.318-3.535-6.062-6.422-2.031-3.364-5.477-4.411-9.465-5.63a77.993 77.993 0 0 1-3.283-1.053c-5.272-1.867-9.596-4.396-12.869-7.529C4.637 94.513.82 85.572.658 76.536c-.068-3.444.547-6.599 1.141-9.646.154-.829.32-1.663.465-2.508.225-1.251.418-2.497.609-3.749.283-1.876.572-3.764.963-5.651l.246-1.22c.684-3.357 1.4-6.828 2.373-10.234l.473-1.61c1.174-3.93 1.346-4.534-.676-7.629a22.561 22.561 0 0 1-3.186-7.685C1.184 17.733 4.658 8.878 11.707 4.589c5.26-3.208 12.096-4.042 17.604-2.101 3.004 1.053 5.379 2.16 7.432 3.476.557.347 1.059.738 1.566 1.139.633.492 1.225.958 1.775 1.182.311.134.52.15.658.15.428 0 .988-.182 1.701-.412l.801-.246c7.785-2.342 16.277-3.171 24.783-2.433a69.557 69.557 0 0 1 13.277 2.47c.588.166 1.178.364 1.775.567 1.049.352 2.043.684 2.957.791l.391.048c1.445.166 2.375.497 3.775-.401 2.086-1.342 4.545-2.508 7.518-3.551 5.514-1.936 12.342-1.096 17.604 2.096 7.047 4.3 10.518 13.149 8.641 22.031-.535 2.519-1.721 4.55-2.766 6.341-.742 1.273-1.438 2.476-1.865 3.738-.533 1.626.055 3.567.68 5.626.234.786.467 1.561.646 2.321.686 2.866 1.193 5.77 1.691 8.577.543 3.112 1.117 6.331 1.902 9.4l.611 2.294c1.09 4.122 2.223 8.378 2.453 12.849a23.31 23.31 0 0 1-.08 3.379c-.824 8.48-6.428 15.55-16.672 21.03-2.857 1.524-6.127 2.326-9.295 3.096-4.834 1.182-9.395 2.299-11.887 5.727-5.811 7.994-15.981 12.774-27.221 12.774zM22.935 6.899c-2.908 0-5.877.84-8.385 2.364-5.85 3.566-7.293 10.71-6.133 16.212a17.283 17.283 0 0 0 2.422 5.818c3.264 4.999 2.738 7.48 1.338 12.185l-.459 1.551c-.92 3.209-1.605 6.572-2.268 9.828l-.258 1.225c-.363 1.797-.637 3.588-.908 5.374-.193 1.3-.397 2.594-.623 3.877-.158.877-.328 1.743-.49 2.599-.566 2.898-1.102 5.636-1.041 8.502.142 7.491 3.404 15.18 8.512 20.062 2.711 2.587 6.379 4.716 10.908 6.32 1.021.358 2.037.673 3.053.983 4.434 1.348 9.447 2.877 12.566 8.042 1.287 2.149 2.578 3.529 4.299 4.62 4.689 2.973 10.607 4.61 16.693 4.61 9.492 0 18.021-3.936 22.791-10.519 3.678-5.053 9.709-6.523 15.02-7.823 2.971-.727 5.77-1.412 8.016-2.609 8.529-4.561 13.164-10.186 13.805-16.715.082-.861.102-1.732.055-2.588-.203-3.893-1.207-7.694-2.275-11.721l-.623-2.342c-.834-3.272-1.422-6.593-1.988-9.807-.482-2.727-.984-5.55-1.625-8.261a40.608 40.608 0 0 0-.568-2.005c-.758-2.524-1.711-5.662-.625-8.935.604-1.802 1.48-3.31 2.332-4.764.914-1.577 1.785-3.069 2.135-4.722 1.164-5.502-.291-12.651-6.135-16.217-3.883-2.359-8.943-3.005-12.936-1.61-2.566.903-4.652 1.876-6.379 2.989-2.182 1.407-4.348 1.588-7.369 1.235l-.385-.048c-1.492-.171-2.859-.637-4.074-1.043-.508-.171-1.021-.348-1.533-.492a64.902 64.902 0 0 0-12.242-2.278c-7.818-.673-15.617.08-22.74 2.225l-.705.219c-1.787.572-3.969 1-6.129.096-1.229-.508-2.191-1.257-3.043-1.919-.379-.294-.748-.588-1.148-.84-1.68-1.08-3.689-2.01-6.299-2.925a13.78 13.78 0 0 0-4.559-.753z" fill="#2f2f2f"/><path d="M58.377 57.729c.037.994.203 2.123.188 2.609-.037.946-.016 2-.326 2.898-3.117 8.962-21.441 4.941-25.766-.85-.746-1-1.334-1.625-1.617-2.85-.252-1.086-.498-2.182-.68-3.289-.197-1.176-1.133-1.572-2.32-1.021-2.332 1.085-2.695 4.46-2.535 6.7.738 10.657 12.148 14.438 21.26 14.646 2.236.053 4.643.15 6.809-.466 2.93-.823 5.549-3.422 8.549-3.834 2.695-.368 4.699 1.593 7.104 2.477 9.121 3.341 22.451 4.357 29.16-4.171 1.574-2 2.176-4.754 2.549-7.165.34-2.268.5-4.476-1.52-6.144-2.162-1.796-2.6 2.224-2.861 3.492-.611 2.936-1.482 4.775-4.305 6.283-4.803 2.562-10.234 2.192-15.422 1.278-3.293-.588-8.918-.583-9.416-4.855-.145-1.112-.32-2.347-.188-3.47.086-.696.391-1.321.438-2.021.08-1.358.006-2.208-1.395-2.283-1.074-.054-2.154.042-3.225.042-.898 0-3.641-.449-4.24.311-.241.272-.268.94-.241 1.683z" fill="#2f2f2f"/></g></svg>