<svg id="レイヤー_1" xmlns="http://www.w3.org/2000/svg" xmlns:xlink="http://www.w3.org/1999/xlink" viewBox="0 0 128 128"><g><g><path d="M48.787 112.32c-3.909 1.836-7.701 4.475-10.231 6.225-.812.559-2.521 1.85-1.388 2.967.742.742 3.084.172 4.097.301-.046 3 3.004 2.592 4.904 1.541 1.101-.607 1.875-1.209 2.809-.217 1.066 1.15 1.25 1.65 3.013 1.176 1.388-.385 2.263-1.492 3.259-2.441 2.246-2.135 9.996-9.969 2.875-11.484-2.729-.577-6.067.397-9.338 1.932z" fill="#fcc21b"/></g><g><path d="M73.196 115.537c-3.816 1.803-7.525 4.375-10.009 6.092-.791.559-2.467 1.809-1.35 2.9.717.732 3.022.166 3.991.299-.028 2.943 2.95 2.533 4.805 1.51 1.088-.602 1.838-1.193 2.755-.205 1.041 1.109 1.225 1.596 2.95 1.137 1.358-.375 2.208-1.457 3.188-2.391 2.188-2.084 9.79-9.75 2.812-11.234-2.679-.567-5.949.392-9.142 1.892z" fill="#fcc21b"/></g><g><g><g><defs><path id="SVGID_1_" d="M38.178 35.34c-2.083 1.482-4.726 5.051-5.184 5.742-5.067 7.791-6.625 15.334-8.938 23.867-2.079 7.68-6.07 14.568-11.246 21.168-1.334 1.713-2.817 4.48-1.316 6.484 2.483 3.316 10.562 3.176 14.472 2.559 19.389-3.018 14.15-19.826 13.513-31.406-.25-4.83-.524-9.664-.741-14.496-.188-4.275 2.017-8.15 2.017-12.469-.002-2.508-1.152-2.467-2.577-1.449z"/></defs><use xlink:href="#SVGID_1_" overflow="visible" fill="#006ca2"/><clipPath id="SVGID_2_"><use xlink:href="#SVGID_1_" overflow="visible"/></clipPath></g><g><defs><path id="SVGID_3_" d="M101.082 108.854c1.333-.867 9.438-3.852 6.842-6.301-.925-.875-3.35-.658-4.571-.842-2.279-.342-4.842-1.109-6.271-3.043-1.13-1.533-1.358-3.541-1.325-5.391.019-1.117-.1-1.742.769-2.172.647-.312 2.041-.146 2.731-.146 4.229.018 8.603.117 12.634-1.395 1.904-.709 5.104-1.867 5.242-4.312.158-2.934-4.481-3.893-6.301-5.252C86.598 61.879 98.715 23.33 74.826 5.371 63.783-2.938 45.795-.264 38.319 11.646c-2.375 3.783-4.117 8.268-4.625 12.717-.479 4.076.956 7.877.017 11.977-1.017 4.459-3.209 8.576-3.909 13.109-2.829 18.408-8.2 49.744 11.276 61.549 3.842 2.33 7.15 4.451 11.676 5.33 16.059 3.11 34.351 1.676 48.328-7.474z"/></defs><use xlink:href="#SVGID_3_" overflow="visible" fill="#006ca2"/><clipPath id="SVGID_4_"><use xlink:href="#SVGID_3_" overflow="visible"/></clipPath><path d="M61.61 112.445a75.333 75.333 0 0 1-7.106-1.025c-1.441-.283-2.742-.75-4.017-1.309-1.876-.826-3.667-1.875-5.597-3.051l-.612-.367c-5.233-3.174-8.367-8.141-10.143-13.967-3.833-12.576-1.279-29.168.476-40.545l.205-1.324c.328-2.158 1.086-4.26 1.869-6.484a71.634 71.634 0 0 0 1.321-4.041c.079.049.162.092.246.141 3.147 1.879 6.959 3.018 10.95 3.15.292.008.597.018.909.018 2.758 0 7.862-.385 11.283-3.076.434-.357.847-.6 1.384-.908 1.375-.816 2.392-1.592 3.209-2.441a101.118 101.118 0 0 0 3.467-3.801c1.179-1.383 1.717-3.441 2.191-5.258l.434-1.635c.463-1.824.905-3.549 2.55-4.566.617-.391 1.242-.584 1.851-.584 1.991 0 3.65 2.035 5.05 3.752 1.108 1.35 1.426 2.75 1.608 4.717.2 2.115.309 4.033-.308 5.983-1.268 3.943-4.709 5.926-7.372 6.893-.429.162-.925.283-1.412.404-1.292.324-2.634.662-3.184 1.691-.333.639-.316 1.438.046 2.447.221.592.612 1.1.979 1.592l.392.527c.562.814.929 1.717 1.3 2.672l.108.283c2.941 7.309 4.75 14.502 5.384 21.377.171 1.857.362 3.232.633 4.584.2.975.467 1.916.742 2.865.191.65.375 1.301.542 1.959.517 2.109 1.258 4.102 1.975 6.025.316.834.625 1.668.925 2.518a31.25 31.25 0 0 0 9.553 13.742c.49.408 1.049.859 1.645 1.301-4.038 2.15-8.538 3.732-13.38 4.75a61.809 61.809 0 0 1-6.168.949c-2.271.234-4.583.385-6.954.385a73.016 73.016 0 0 1-6.974-.343z" clip-path="url(#SVGID_4_)" fill="#fff"/></g><path d="M61.18 18.98c0 2.65-1.777 4.809-3.986 4.809-2.182 0-3.981-2.158-3.981-4.809 0-2.658 1.8-4.809 3.981-4.809 2.208.001 3.986 2.151 3.986 4.809z" fill="#fff"/></g><path d="M35.569 16.471c-1.25.414-2.467 1.418-3.551 2.002-2.375 1.283-4.883 2.35-7.162 3.809-1.638 1.041-3.188 2.324-4.246 3.99-1.084 1.726-1.791 3.967 1.058 3.859.934-.029 1.817-.342 2.729-.551 1.505-.342 2.926-.559 4.455-.732 1.691-.191 3.517.008 5.221.008 2 0 5.438.217 6.538-1.934 1.066-2.066.208-5.141-.555-7.143-.403-1.074-.896-2.295-1.862-2.982-.871-.617-1.758-.617-2.625-.326z" fill="#fcc21b"/></g></g></svg>