<svg id="レイヤー_1" xmlns="http://www.w3.org/2000/svg" xmlns:xlink="http://www.w3.org/1999/xlink" viewBox="0 0 128 128"><g><g><defs><path id="SVGID_1_" d="M127.518 65.06c-.939-4.539-2.459-7.842-1.682-12.503.422-2.524.725-5.244.576-7.866-.207-3.429-2.387-6.569-4.473-8.628-1.48-1.468-3.111-2.65-4.914-3.437-1.99-.892-3.955-1.901-6.061-2.245-2.324-.39-4.668-.304-6.99-.033-9.936 1.156-16.871 7.019-24.34 13.03-.822.669-1.629 1.312-2.416 1.965a136.174 136.174 0 0 0-6.957 6.151c-1.002.949-2.043 2.048-3.301 2.376-.201.049-.383.129-.586.138-.199.008-.41-.016-.621-.04 2.303-1.216 3.947-3.389 3.574-6.209-.094-.714-.156-1.447-.299-2.156a6.798 6.798 0 0 0-.365-1.256c-.352-.835-.961-1.707-1.074-2.57-.246-2.034 1.459-3.51.588-5.576-.875-2.063-2.141-3.713-3.596-5.41a12.356 12.356 0 0 1-1.539-2.205c-.355-.645-.566-1.495-.967-2.083-1.223-1.754-3.443-2.484-5.465-2.8-1.277-.199-2.635-.041-3.887.267-11.127 2.778-22.353 11.306-23.616 23.342-2.316.105-4.55.499-6.848 1.034-1.782.413-3.55 1.199-5.333 1.697-3.498.989-6.86 2.603-10.066 4.572-2.597 1.596-6.955 3.189-6.538 7.546.098.956.297 1.86.557 2.739.956 3.218 2.934 5.86 5.18 7.899 6.774 6.123 15.476 9.755 24.288 11.075.08.844.282 1.743.343 2.173.167 1.236.276 2.603.681 3.786 1.339 3.918 5.29 8.704 9.95 7.277 3.695-1.118 4.004-6.257 3.732-9.43-.109-1.318-.77-2.525-1.604-3.57 1.316-.154 2.633-.313 3.902-.576a39.931 39.931 0 0 0 3.02-.745c.465.607.846 1.11.988 1.26 2.986 3.052 12.914 6.979 14.242.288.307-1.572-.045-2.935-1.074-4.183-.557-.685-1.424-1.418-2.246-1.942 1.139-.503 2.287-.973 3.465-1.308 1.398-.389 2.846-.499 4.076.534 2.465 2.075 3.764 5.812 5.33 8.56 1.9 3.312 3.916 6.573 6.213 9.622 4.82 6.387 11.024 11.241 18.611 13.832 7.24 2.472 17.896 4.814 19.963-5.338.482-2.403.986-4.888 2.217-7.084 2.623-4.669 4.787-9.67 5.078-15.076.146-2.623-.441-5.172-.365-7.782.094-3.057 1.289-6.027.649-9.112z"/></defs><use xlink:href="#SVGID_1_" overflow="visible" fill="#f79329"/><clipPath id="SVGID_2_"><use xlink:href="#SVGID_1_" overflow="visible"/></clipPath><path d="M108.244 34.075c2.707 2.871 3.314 6.729 2.828 10.731-.457 3.681-2.315 7.886-1.84 11.606.434 3.461 2.752 6.754 3.23 10.337.539 4.055-1.537 7.613-3.174 11.167-2.08 4.511-2.516 8.192-1.604 13.076 1.23 6.607-1.396 13.832-8.09 16.349-1.463.548-3.299.086-4.896.292-.912 3.186 6.457 4.701 8.51 5.155 3.604.795 7.414 1.803 11.102.973 2.49-.561 4.584-2.147 6.09-4.106 2.291-2.981 4.439-5.88 6.16-9.324 1.205-2.405 2.141-4.679 2.66-7.328.514-2.628 1.369-5.098 1.49-7.78.172-3.749 1.197-7.423 1.311-11.187.121-4.027.246-8.047.246-12.081 0-4.706-.275-9.408-.258-14.095.008-2.929-.203-5.66-.975-8.495-.773-2.853-2.594-6.496-5.248-8.034-1.402-.815-2.896-1.285-4.219-2.27-1.117-.837-2.686-1.621-4.148-1.823-5.439-.755-12.914-1.012-17.293 2.742 2.574.484 4.279 1.091 6.465 2.651.624.446 1.171.929 1.653 1.444z" clip-path="url(#SVGID_2_)" fill="#ed6c30"/><path d="M48.381 27.065c.883.149 1.611.296 1.83.401 3.293 1.585 3.723 4.79 4.16 8.021.186 1.386.533 2.451 1.166 3.676 2.08 4.023 5.844 7.107 3.141 11.96-.527.933-.912 1.211.184 1.808 1.434.781 3.854 1.094 5.471 1.134 2.756.067 4.064-1.037 5.428-3.274 2.236-3.68 3.201-9.698 2.102-13.901-.494-1.898-1.293-3.676-1.744-5.608-.564-2.406-1.201-4.722-2.686-6.744-1.494-2.034-3.035-3.505-5.455-4.417-2.232-.844-5.172-1.118-7.465-.397-2.168.681-4.201 1.923-6.285 2.999-.986.506-4.471 2.085-4.115 3.648.012.056 2.459.386 4.268.694z" clip-path="url(#SVGID_2_)" fill="#ed6c30"/></g><path d="M91.891 51.074c-1.01 1.645-1.348 3.56 1.379 3.402 1.365-.084 2.727-.691 3.99-1.164 1.598-.588 3.215-1.207 4.639-2.17 2.779-1.881 1.449-4.918-1.623-5.103-2.756-.168-6.266 2.199-7.879 4.294a8.636 8.636 0 0 0-.506.741z" fill="#fff"/><path d="M92.588 65.613c-.449.205-.9.432-1.367.67-.789.407-1.75.657-1.543 1.741.426 2.251 5.588 2.512 7.229 2.643 2.523.203 7.512.513 7.203-3.451-.082-1.12-.664-2.199-1.746-2.707-1.156-.541-2.498-.681-3.777-.56-2.245.209-4.081.782-5.999 1.664z" fill="#fff"/><path d="M91.326 82.602c-.5.207-.85.635-.932 1.429-.312 3.23 5.822 7.569 8.766 7.249 1.625-.177 1.854-2.195 1.699-3.479-.117-.997-.58-1.58-1.244-2.352-1.18-1.391-2.84-2.222-4.619-2.573-1.039-.207-2.656-.699-3.67-.274z" fill="#fff"/><path d="M16.141 67.261c-2.156.121-4.005-1.734-4.114-4.151a4.651 4.651 0 0 1 1.362-3.525c.645-.62 1.455-1.021 2.368-1.074.084-.003.161.005.246.013 2.062.024 3.77 1.819 3.887 4.134.101 2.422-1.578 4.477-3.749 4.603z" fill="#2f2f2f"/></g></svg>