<svg id="レイヤー_1" xmlns="http://www.w3.org/2000/svg" xmlns:xlink="http://www.w3.org/1999/xlink" viewBox="0 0 128 128"><g><g><g><defs><path id="SVGID_1_" d="M121.717 65.189c-4.449-7.734-7.334-17.107-11.166-25.756 9.852-1.375 17.893-10.947 15.801-21.371-2.057-10.24-16.076-18.646-25.471-11.428-3.734 2.871-5.959 5.553-7.783 9.689-.158.359-.354.74-.561 1.137-8.658-4.807-18.598-7.232-28.535-7.232-9.949 0-19.875 2.426-28.535 7.232-.207-.396-.4-.777-.559-1.137-1.838-4.137-4.051-6.818-7.785-9.689C17.732-.584 3.697 7.822 1.652 18.062-.44 28.486 7.588 38.059 17.451 39.434c-3.83 8.648-6.713 18.021-11.176 25.756-9.258 16.063-7.408 33.291 6.664 45.863 8.637 7.699 19.852 11.043 31.527 12.33 6.484.707 13.113.781 19.535.611 6.422.17 13.039.096 19.533-.611 11.678-1.287 22.881-4.631 31.529-12.33 14.074-12.573 15.923-29.801 6.654-45.864z"/></defs><use xlink:href="#SVGID_1_" overflow="visible" fill="#f79329"/><clipPath id="SVGID_2_"><use xlink:href="#SVGID_1_" overflow="visible"/></clipPath></g><g><g><path d="M54.162 100.371c-.682 3.127.625 6.91 1.312 9.877.354 1.533.805 3.406 1.949 4.373.67.578 1.445.771 2.252.82 1.613.08 3.17.477 4.014-1.641.227-.57.641-1.519 1.26-.955.566.529.365 1.453 1.029 1.963 2.037 1.545 5.273 1.035 6.387-1.775 1.27-3.221 1.561-6.506 2.121-9.906l-2.785-4.469-7.785-2.301-9.754 4.014z" fill="#fff"/></g></g><g><g><g><g><path d="M40.051 74.391c-.01 5.145-3.295 9.281-7.273 9.27-4.002-.037-7.236-4.215-7.225-9.379.037-5.133 3.297-9.293 7.299-9.256 3.988.011 7.224 4.224 7.199 9.365z" fill="#2f2f2f"/></g></g></g><g><g><g><path d="M87.955 74.391c.008 5.145 3.283 9.281 7.27 9.27 4.002-.037 7.238-4.215 7.225-9.379-.035-5.133-3.307-9.293-7.297-9.256-3.991.011-7.225 4.224-7.198 9.365z" fill="#2f2f2f"/></g></g></g></g><path d="M84.123 98.33c-.928-1.812-3.615-.246-5.027.119-1.027.256-2.141.178-3.229.178-2.123 0-4.287-.109-6.271-.943-.705-.303-1.707-.766-2.164-1.445-1.398-2.07.408-6.43-2.238-7.715-1.473-.715-3.102.025-3.43 1.459-.141.633-.264 1.346-.242 2.004.037.674-.109 1.102-.215 1.779-.066.477-.072.83-.225 1.254-.242.688-.826 1.486-1.469 1.941-1.459 1.039-3.104 1.672-4.832 1.988-1.861.326-3.855.23-5.619-.279-1.215-.354-2.541-1.535-3.783-1.547-1.137-.01-1.81.977-1.727 2.033.195 2.469 2.725 3.295 4.721 3.916 2.971.93 6.313.935 9.256-.109 1.787-.645 3.66-1.473 5.588-1.799 1.891-.316 2.986.498 4.719.982 1.904.535 3.691 1.314 5.67 1.527 2.043.227 4.135.012 6.1-.601 1.594-.498 5.121-1.738 4.633-4.086a2.589 2.589 0 0 0-.216-.656z" fill="#2f2f2f"/><g><path d="M55.863 82.551c-1.945-.01-3.174.744-1.873 3.504 2.689 5.699 10.316 8.285 15.729 4.904.875-.549 2.02-1.193 2.762-1.91.924-.875 1.568-2.398 1.994-3.578.525-1.445.621-3.381-1.266-3.709-1.482-.256-2.953.961-4.342 1.289-1.85.461-4.16.658-6.059.658-1.154 0-4.572-1.143-6.945-1.158z" fill="#2f2f2f"/></g></g><path d="M28.703 24.742a9.666 9.666 0 0 1-1.205 2.322c-.812 1.129-1.517 2.555-2.76 3.289-1.289.76-3.223.006-4.5-.51-1.717-.701-3.699-1.711-4.877-3.182-.609-.754-1.121-1.557-1.486-2.457-1.701-4.307 2.738-9.084 7.008-8.064 2.117.512 3.893 1.922 5.352 3.49.682.738 1.217 1.436 1.629 2.348.365.811 1.084 1.605.9 2.543a1.327 1.327 0 0 1-.061.221z" fill="#fff"/><path d="M104.68 30.354c-1.244-.734-1.961-2.16-2.777-3.289a9.643 9.643 0 0 1-1.191-2.322 2.82 2.82 0 0 1-.061-.221c-.184-.938.521-1.732.9-2.543.412-.912.939-1.609 1.629-2.348 1.459-1.568 3.236-2.979 5.352-3.49 4.258-1.019 8.709 3.758 6.994 8.064-.352.9-.873 1.703-1.471 2.457-1.18 1.471-3.172 2.48-4.877 3.182-1.28.515-3.211 1.269-4.498.51z" fill="#fff"/></g></svg>