<svg id="レイヤー_1" xmlns="http://www.w3.org/2000/svg" xmlns:xlink="http://www.w3.org/1999/xlink" viewBox="0 0 128 128"><g><g><g><g><defs><path id="SVGID_1_" d="M120.052 69.131c-2.322-2.699-4.223-5.925-6.258-8.878-2.355-3.422-5.215-6.888-5.666-11.219-.15-1.393.172-2.703.715-3.945 1.004-2.219 2.752-4.243 4.008-6.223 5.139-8.218 9.314-17.383 9.592-27.225.088-2.776-.592-6.961-3.012-8.813-2.605-1.995-6.385-1.628-9.396-1.046-7.348 1.417-14.02 5.021-20.756 8.104-2.601 1.194-5.158 2.464-7.699 3.754-5.475-1.745-11.365-2.653-17.213-2.703-5.846.049-11.723.957-17.207 2.703-2.537-1.29-5.098-2.561-7.699-3.754-6.736-3.084-13.414-6.688-20.746-8.104-3.013-.582-6.802-.948-9.407 1.046-2.42 1.853-3.084 6.038-3.016 8.813.225 7.481 2.699 14.646 6.135 21.221 1.769 3.364 3.77 6.614 5.914 9.748 1.369 2.009 1.527 2.253.92 4.405-.4 1.413-.713 3.246-1.252 4.644-.793 2.074-2.209 4.317-3.504 6.146-2.312 3.23-4.758 6.047-7.393 8.936-1.441 1.574-7.137 6.105-6.574 8.184.66 2.381 7.928 2.87 9.836 2.957.742 1.99-2.396 4.625-3.412 6.175-1.35 2.082-2.748 3.807-2.225 6.423 3.26.386 5.793-1.016 8.799-2.028 1.48 2.933-2.527 7.488-.93 11.111 1.879 4.189 5.197.489 7.709-.997 3.451-2.029 5.291-2.747 9.295-2.777 2.057-.009 6.086.191 6.756 2.381 2.498 8.149 4.021 13.229 7.816 19.119 4.639 7.206 11.736 9.391 21.119 9.391 7.502 0 14.264-2.41 18.996-9.048 1.598-2.249 5.652-14.088 6.471-16.988 2.215-7.777 9.52-5.7 14.912-2.664 2.316 1.31 4.145 2.014 5.348-.88 1.24-3.046-2.172-6.053-1.223-8.761 3.049-.777 5.793 4.112 9.244 2.141 2.883-1.647.361-5.143-.787-6.888-1.572-2.4-2.582-5.143 1.32-4.18 1.91.475 5.254 3.623 7.004 1.911 3.634-3.554-4.614-9.953-6.534-12.192z"/></defs><use xlink:href="#SVGID_1_" overflow="visible" fill="#78a3ad"/><clipPath id="SVGID_2_"><use xlink:href="#SVGID_1_" overflow="visible"/></clipPath><path d="M99.923 88.969c.295-.614-.07-1.436-.867-2.01-1.207-.863-2.615-1.367-3.971-1.906-1.963-.777-4.057-1.244-6.16-1.244-5.615 0-11.164 3.297-13.828 8.264-.85 1.584-1.711 3.624-1.961 5.414-.072.445-.18.882-.238 1.331-.055.427-.088.862-.143 1.289-.102.78-.254 1.508-.459 2.267-.172.643-.332 1.205-.816 1.686-.566.567-1.438 1.154-2.244 1.247-.426.049-.885.015-1.324.041-.641.041-1.291-.018-1.938-.018-2.139 0-4.271.36-6.334-.401-.234-.085-.484-.17-.693-.335-.188-.149-.334-.328-.52-.516-.889-.924-1.162-2.366-1.34-3.612-.566-3.892-1.768-7.871-4.379-10.887-2.826-3.273-6.945-5.514-11.283-5.842-2.326-.179-5.363-.034-7.566.797-1.82.688-5.154 1.794-5.838 3.864-.771 2.381 3.883 1.012 4.791 2.295.84 1.203.41 3.754.42 5.212.01 2.39-.738 4.702-1.26 7.028-.367 1.628-.393 3.359-.578 5.014-.254 2.322-.254 4.825-.254 7.159 0 1.982.127 3.982.879 5.839.539 1.322 1.42 2.493 2.045 3.791.42.877.93 1.604 1.672 2.259 1.26 1.125 3.275 1.09 4.742 1.869 4.115 2.188 8.756 3.083 13.393 3.495 3.674.328 7.385.463 11.068.465 1.955 0 3.906.078 5.852-.154 1.904-.227 3.764-.664 5.656-.94 3.07-.444 5.393-1.046 7.885-2.921 3.262-2.462 5.852-5.891 7.24-9.797 1.312-3.69 1.793-7.736 1.264-11.676-.439-3.263-1.607-6.187-1.418-9.557.066-1.285.35-2.493.564-3.748a5.49 5.49 0 0 1 1.639-3.021c.535-.507 1.562-.923 2.238-1.094.992-.249 2.068.042 3.066-.235.517-.143.84-.402.998-.712z" clip-path="url(#SVGID_2_)" fill="#fff"/><path d="M65.302 132.435c-7.822 0-19.018-1.247-25.959-12.031-3.92-6.095-5.637-11.297-7.94-18.776-.41-.046-.947-.083-1.656-.083-2.772.02-3.613.278-6.508 1.98-.352.205-.713.481-1.105.757-1.748 1.253-4.145 2.972-7.205 2.972-1.562 0-5.416-.52-7.576-5.338-.865-1.962-.99-3.889-.812-5.63-.801.037-1.627.011-2.482-.09a5.746 5.746 0 0 1-4.963-4.578c-.846-4.186.797-7.242 2.176-9.385-3.49-1.175-5.533-3.08-6.277-5.781-1.357-4.964 2.895-8.928 6.648-12.426.51-.479.959-.88 1.219-1.166 2.264-2.484 4.678-5.219 6.955-8.406 1.33-1.861 2.336-3.593 2.83-4.872.25-.66.422-1.473.602-2.243.119-.504.234-.998.357-1.462a.121.121 0 0 0-.025-.032c-2.365-3.446-4.473-6.922-6.246-10.308C3.052 27.353.765 19.376.54 11.816.487 9.599.704 2.162 5.817-1.745 9.2-4.344 13.419-5.101 19.806-3.872 26.54-2.569 32.529.261 38.316 2.996l3.545 1.658a194.33 194.33 0 0 1 5.851 2.818c5.338-1.475 10.916-2.244 16.605-2.29 5.695.046 11.395.835 16.709 2.293a186.456 186.456 0 0 1 5.852-2.821l3.564-1.665C96.225.257 102.2-2.57 108.944-3.87c6.365-1.232 10.594-.479 13.992 2.129 5.152 3.94 5.328 11.378 5.26 13.565-.264 9.531-3.586 19.099-10.467 30.094-.502.796-1.061 1.577-1.619 2.368-.826 1.151-1.598 2.239-2.033 3.18-.156.371-.248.733-.223.943.234 2.284 1.906 4.647 3.676 7.147l1.006 1.425c.615.899 1.223 1.821 1.828 2.747 1.363 2.065 2.65 4.016 4.053 5.641.291.34.748.766 1.268 1.279 3.195 3.107 7.57 7.36 7.578 12.548 0 2.354-.941 4.571-2.652 6.243a7.54 7.54 0 0 1-4.506 2.103 8.47 8.47 0 0 1-.186 2.7c-.527 2.195-1.951 4.056-4.02 5.233a9.275 9.275 0 0 1-4.898 1.225 9.618 9.618 0 0 1-.65 2.577c-2.082 5.05-6.027 5.592-7.637 5.592-2.232 0-4.139-.904-5.869-1.884-2.195-1.234-4.289-1.978-5.584-1.978-.416.03-.693.289-.953 1.21-.338 1.184-4.785 15.179-7.318 18.747-5.421 7.614-13.389 11.471-23.688 11.471zM29.565 90.032c8.565 0 11.406 3.51 12.299 6.452 2.436 7.944 3.854 12.544 7.158 17.689 3.088 4.793 7.801 6.749 16.279 6.749 6.539 0 11.086-2.107 14.307-6.631 1.07-1.733 4.723-12.021 5.623-15.218 2.35-8.252 9.645-11.644 18.768-8.235-.201-1.333-.178-2.834.381-4.412a5.744 5.744 0 0 1 4.008-3.666 8.358 8.358 0 0 1 3.051-.213c-.467-1.701-.533-3.642.488-5.536.928-1.719 2.543-2.902 4.478-3.351-.279-.293-.529-.56-.725-.787-1.871-2.173-3.426-4.532-4.926-6.81a109.04 109.04 0 0 0-1.703-2.54l-.916-1.312c-2.309-3.264-5.189-7.325-5.73-12.583-.246-2.242.135-4.491 1.162-6.844.918-2.036 2.113-3.709 3.174-5.185.434-.614.865-1.212 1.248-1.809 5.723-9.161 8.494-16.892 8.701-24.308.061-2.07-.5-3.774-.832-4.151 0 0-1.635-.496-4.732.1-5.311 1.026-10.395 3.428-15.771 5.967l-3.68 1.721c-2.527 1.158-5.012 2.398-7.48 3.652a5.768 5.768 0 0 1-4.355.354c-4.859-1.548-10.223-2.388-15.522-2.432-5.186.045-10.553.884-15.414 2.432a5.793 5.793 0 0 1-4.359-.354c-2.463-1.254-4.957-2.494-7.48-3.652l-3.664-1.713c-5.379-2.544-10.473-4.945-15.781-5.975-2.709-.525-4.43-.32-4.801-.037-.258.311-.82 2.024-.771 4.105.176 5.853 1.969 11.979 5.484 18.692 1.564 2.978 3.441 6.062 5.562 9.159 2.15 3.171 2.859 5.143 1.701 9.225-.117.422-.225.899-.332 1.388-.312 1.29-.647 2.635-1.076 3.759-.855 2.217-2.258 4.708-4.189 7.416-2.648 3.701-5.445 6.869-7.836 9.484-.332.367-.859.873-1.486 1.464.254.015.51.03.764.041a5.764 5.764 0 0 1 5.143 3.763c.982 2.666.318 5.057-.754 6.998a5.718 5.718 0 0 1 3.646 2.972c1.184 2.339 1.096 4.637.666 6.651 3.137-1.649 5.844-2.447 10.224-2.479z" clip-path="url(#SVGID_2_)" fill="#78a3ad"/></g><g fill="#2f2f2f"><path d="M47.917 65.865c-2.482 2.322-6.717 1.848-9.463-1.09-2.729-2.924-2.963-7.181-.486-9.494 2.475-2.316 6.723-1.823 9.461 1.1 2.742 2.919 2.957 7.172.488 9.484z"/><path d="M77.927 112.424c-.244.615-1.127 1.04-1.666 1.378-2.57 1.637-7.205 1.245-9.885.024-.721-.328-1.174-.635-2.01-.538-.689.063-1.506.538-2.17.753-2.312.748-4.297 1.276-6.73.958-.744-.097-1.463-.239-2.152-.498-.764-.298-1.701-.865-2.15-1.51-.42-.573-.514-1.55.24-1.897.537-.27 1.1-.191 1.637 0 .65.215 1.158.689 1.824.914 1.666.58 4.021.453 5.66-.22.631-.259 1.408-.412 1.834-.983.625-.841.742-1.872.742-2.883-1.643 0-3.207-.22-4.736-.768-3.984-1.418-5.09-5.026-3.5-8.374.244-.504.533-.968.84-1.388 1.715-2.19 4.492-3.178 7.686-3.325 3.699-.171 8.555 1.158 10.48 4.326 1.26 2.068.684 5.242-.924 7.036-1.623 1.813-4.625 2.2-7.23 2.375.025.851.143 1.701.539 2.386.301.527 1 .865 1.459 1.241.416.318.818.48 1.316.577 1.334.261 2.736.384 4.092.215 1.35-.169 2.258-.831 3.49-1.295 1.075-.412 1.671.625 1.314 1.496z"/><path d="M89.321 64.775c-2.756 2.938-6.988 3.412-9.469 1.09-2.463-2.312-2.258-6.565.494-9.484 2.738-2.923 6.986-3.417 9.449-1.1 2.489 2.313 2.261 6.571-.474 9.494z"/></g></g><path fill="#78a3ad" d="M34.474 53.566l17.834 8.135 4.379-13.454-12.202-6.883z"/><path fill="#78a3ad" d="M92.304 53.566l-17.832 8.135-4.381-13.454 12.203-6.883z"/></g><path d="M35.856 24.513c-3.279 2.415-5.65 5.837-7.264 9.553-.17.395-.328.919-.703 1.178l-.113.059c-2.641 1.3-8.568-12.691-9.328-14.621-.775-1.951-2.176-4.434-.414-6.331 1.568-1.686 4.072-.796 5.949-.235 4.086 1.227 7.85 2.836 11.701 4.63.682.317 4.351 1.882 4.289 2.762-.068.972-3.333 2.434-4.117 3.005z" fill="#fff"/><path d="M100.962 35.302l-.111-.059c-.371-.259-.529-.783-.695-1.178-1.607-3.715-3.984-7.138-7.271-9.553-.781-.571-4.041-2.033-4.104-3.006-.068-.88 3.602-2.445 4.272-2.762 3.851-1.794 7.621-3.403 11.711-4.63 1.871-.561 4.373-1.452 5.941.235 1.766 1.898.371 4.38-.4 6.331-.779 1.931-6.693 15.923-9.343 14.622z" fill="#fff"/></g></svg>