<svg id="レイヤー_1" xmlns="http://www.w3.org/2000/svg" viewBox="0 0 128 128"><g><path d="M125.518 61.13c-1.457-4.327-2.752-8.611-4.521-12.885-.764-1.848-1.404-3.185-1.594-5.158-.404-4.172 1.568-8.046 1.834-12.243.322-4.913-.219-9.912-2.049-14.512-.969-2.412-2.58-4.825-4.6-6.418-8.408-6.68-22.381-6.174-30.699.387-2.938 2.329-4.15 6.067-6.574 8.83-2.568 2.937-24.057 2.937-26.631 0-2.416-2.763-3.631-6.501-6.566-8.83-8.319-6.561-22.298-7.067-30.712-.387-2.01 1.593-3.625 4.006-4.582 6.418-1.838 4.6-2.383 9.599-2.068 14.512.279 4.197 2.246 8.071 1.842 12.243-.186 1.973-.832 3.311-1.588 5.158-1.781 4.274-3.064 8.558-4.521 12.885-4.551 13.442-2.031 30.766 7.078 41.652 6.871 8.207 17.27 13.876 27.408 16.872 8.617 2.549 17.834 3.209 26.791 3.209h.463c8.961 0 18.174-.66 26.795-3.209 10.133-2.996 20.545-8.665 27.408-16.872 9.105-10.886 11.63-28.21 7.086-41.652z" fill="#bdcf46"/><path d="M77.023 38.172c1.844-.035 3.863 1.373 3.381 4.005-.553 3.044-5.551 2.628-6.104-.32-.456-2.478 1.065-3.655 2.723-3.685zm-26.511 0c1.672.03 3.191 1.207 2.723 3.684-.547 2.948-5.551 3.364-6.1.32-.485-2.631 1.535-4.039 3.377-4.004zM18.908 24.219c0-4.82 3.15-8.719 6.984-8.719 3.855 0 6.994 3.898 6.994 8.719 0 4.813-3.139 8.725-6.994 8.725-3.833-.001-6.984-3.912-6.984-8.725zm82.737 8.724c-3.852 0-6.99-3.911-6.99-8.725 0-4.82 3.139-8.719 6.99-8.719 3.85 0 6.99 3.898 6.99 8.719 0 4.814-3.141 8.725-6.99 8.725z" fill="#2f2f2f"/><path d="M63.92 70.644c-25.471 0-42.836-16.437-40.334-21.62 2.502-5.193 19.992 5.884 40.322 5.884 20.275-.006 37.775-11.077 40.271-5.884 2.51 5.182-14.849 21.62-40.259 21.62z" fill="#ed6c30"/></g></svg>