<svg id="レイヤー_1" xmlns="http://www.w3.org/2000/svg" viewBox="0 0 128 128"><g><g><path d="M44.251 63.029c-10.471-.877-21.883 1.46-29.997 8.241C-1.341 84.306-.68 104.655.97 110.696c1.443 5.303 17.033 10.373 32.595 10.133 37.361-.586 54.492-15.246 59.229-22.138 2.087-3.042 2.585-6.281.101-9.436-11.499-14.617-30.1-24.672-48.644-26.226z" fill="#006ca2"/><path d="M127.276 63.914c-.438-.301-1.782.197-2.308.249-3.08.301-6.32-.31-9.461.026-1.706.18-3.235.679-4.748 1.503-1.242.662-2.526 1.71-3.811.474-1.523-1.479-1.509-4.057-2.737-5.784-1.457-2.028-3.427-3.952-5.646-5.104-.766-.404-1.616-.679-2.433-.945-1.078-.353-2.367-.575-2.179.962.151 1.17.111 1.968-.137 3.146-.485 2.226-1.315 4.7-.868 6.994.477 2.449 2.033 4.83 4.013 6.342 1.211.92 4.215 2.149 4.517 3.842.129.773-.018 1.642-.207 2.371-.425 1.634-1.031 3.188-1.739 4.735-.456 1.006-1.384 2.51-.925 3.661 2.162 5.499 18.387 3.025 16.002-3.566-.399-1.1-1.066-2.234-1.414-3.257-.387-1.108-1.195-2.682-.843-3.884.538-1.856 2.617-1.271 4.138-1.366 3.686-.258 7.684-1.745 9.96-4.805.689-.928 2.236-4.65.826-5.594z" fill="#006ca2"/><path d="M17.375 35.675c2.518 1.22 4.589.111 7.012-.602 1.986-.584 5.32-.885 6.634 1.187.334.523.495 1.684-.146 1.984-.67.31-2.233-.542-2.978-.601-1.508-.121-4.047-.517-4.696 1.185-.335.868-.374 1.77.168 2.407.812.971 1.787 1.056 3.004 1.185 2.264.258 4.399.087 6.074 1.934 1.607 1.763 1.849 3.902 2.312 6.076.523 2.381.614 4.786.937 7.193.077.618.025 1.658.532 2.113 2.243 2.037 2.707-3.128 2.811-4.314.292-3.137.872-6.753 3.996-8.387 1.16-.601 2.639-.842 3.922-.679 1.475.181 3.313 1.048 4.714-.026 3.55-2.732-.713-5.723-3.394-6.376-1.22-.292-3.11.713-4.108.25-2.457-1.109 2.424-2.492 3.082-2.57 1.489-.18 3.114.044 4.541.447 1.048.3 1.977.868 2.999 1.194 1.546.489 2.879-.129 4.107-1.04 1.977-1.47 1.314-4.417-.782-5.482a7.987 7.987 0 0 0-2.771-.79c-.864-.087-2.458.292-3.171-.284-1.156-.971.235-1.797 1.15-2.089 1.44-.464 4.731.774 5.032-1.555.485-3.747-4.155-4.322-6.785-4.125-5.977.456-9.509 4.709-11.975 9.745-.236.481-.7 2.51-1.323 2.75l-.139.025c-.584-.042-1.615-1.977-1.95-2.389-2.457-3.042-5.719-5.853-9.572-6.866-3.421-.894-8.955-.43-10.811 3.153-1.074 2.082-.618 4.273 1.574 5.347z" fill="#40c0e7"/><path d="M14.87 51.247l.536-.069c1.281-.249 2.373-1.1 2.373-2.526.004-1.899-1.851-3.153-3.696-2.931-1.778.216-2.926 2.081-2.083 3.825.511 1.056 1.706 1.778 2.87 1.701z" fill="#40c0e7"/><path d="M66.25 23.696l.555-.061c1.276-.258 2.362-1.108 2.362-2.534 0-1.899-1.855-3.154-3.694-2.931-1.774.215-2.922 2.088-2.093 3.823.512 1.067 1.714 1.78 2.87 1.703z" fill="#40c0e7"/><path d="M6.572 42.739c2.243-.722 3.154-3.119 1.271-4.829-1.263-1.151-3.85-1.323-4.802.353-.805 1.392-.482 2.818.395 3.721.752.772 1.92 1.141 3.136.755z" fill="#40c0e7"/><path d="M68.196 33.226c-.793 1.393-.478 2.827.4 3.721a3.018 3.018 0 0 0 3.131.756c2.252-.722 3.159-3.119 1.281-4.829-1.263-1.152-3.849-1.324-4.812.352z" fill="#40c0e7"/><path d="M66.263 47.018c1.873-.601 2.63-2.604 1.062-4.038-1.053-.954-3.214-1.092-4.014.301-.665 1.16-.398 2.363.331 3.11a2.534 2.534 0 0 0 2.621.627z" fill="#40c0e7"/><path d="M7.316 28.654c1.877-.601 2.634-2.603 1.065-4.029-1.043-.963-3.214-1.101-4.008.292-.676 1.168-.4 2.363.334 3.11.629.644 1.601.945 2.609.627z" fill="#40c0e7"/></g><path d="M15.914 92.1c-1.525 1.666-3.755 2.242-5.337 1.366a4.692 4.692 0 0 1-.713-.473c-1.62-1.298-2.506-3.593-1.427-6.265 1.435-3.565 4.993-4.735 7.425-3.128 2.342 1.548 2.544 5.784.052 8.5z" fill="#fff"/><path d="M51.542 93.784c-.3.095-.595.164-.915.216-1.938.274-4.061-1.04-5.074-3.129-1.646-3.412.017-7.33 2.981-7.983 3.085-.67 6.377 1.65 6.635 5.5.206 2.896-1.513 4.735-3.627 5.396z" fill="#fff"/></g></svg>