<svg id="レイヤー_1" xmlns="http://www.w3.org/2000/svg" viewBox="0 0 128 128"><g><path d="M92.365 12.462s11.27 5.19 18.203 13.516c6.939 8.324 7.744 10.535 8.855 13.042l.861 6.843-12.953 6.628-21.27-6.32S74.497 23.665 74.344 23.204c-.148-.461 3.551-8.939 3.551-8.939l14.47-1.803z" fill="#855c52"/><path d="M8.195 39.483s3.111-5.953 9.576-13.048c4.414-4.845 14.887-12.691 17.262-13.68l9.721 6.288L38.9 43.705 17.625 57.884l-9.43-18.401z" fill="#855c52"/><g><g><path d="M127.223 64.713c-.174-.866-.352-1.723-.523-2.558-1.678-7.978-3.893-15.9-7.275-23.136-1.795 2.359-4.184 4.254-7.027 5.335l-.289.112c-1.891.743-3.891 1.461-5.773 1.461-.795 0-1.555-.126-2.23-.382-2.914-1.06-4.494-3.326-4.693-6.745l-.008-.245c-.816-3.575-1.928-6.734-3.201-9.129-.357-.668-.867-1.437-1.402-2.247-1.476-2.247-3.32-5.044-3.701-8.422-.211-1.804.267-4.116 1.267-6.296C83.69 8.73 73.811 6.81 64.04 6.825c-10.035-.016-20.176 2.017-29.004 5.93.902 2.1 1.32 4.28 1.127 5.998-.387 3.387-2.232 6.179-3.711 8.421-.535.815-1.039 1.58-1.394 2.252-1.279 2.385-2.391 5.549-3.19 9.027l-.028.337c-.193 3.425-1.773 5.696-4.682 6.756a6.438 6.438 0 0 1-2.242.382c-1.9 0-4-.764-5.818-1.481l-.25-.092c-2.654-1.009-4.904-2.731-6.652-4.871-3.033 6.424-5.111 13.359-6.369 20.39a323.169 323.169 0 0 1-.912 4.81l-.006.04-.033.173c-.695 3.639-9.453 55.972 62.135 56.267.305 0 .611.011.916.011.871 0 1.682-.04 2.527-.061 4-.102 7.994-.378 11.967-.795 58.034-6.971 48.925-54.995 48.802-55.606z" fill="#fcd4b5"/><path d="M72.484 96.382c-4.086 12.391-13.076 12.595-17.678 1.243-.799-1.967-1.25-3.749-1.492-5.4 3.561 1.075 7.025 1.406 9.852 1.406 3.516 0 7.025-.54 10.344-1.468a27.18 27.18 0 0 1-1.026 4.219z" fill="#2f2f2f"/><path d="M100.801 26.971c1.709 3.2 2.895 6.96 3.684 10.424.318 1.354-.213 2.66 1.402 3.251l.447.065c1.203 0 3.475-.952 4.213-1.238 2.777-1.059 4.865-3.209 6.074-5.787 1.203-2.589 1.518-5.604.729-8.355a12.697 12.697 0 0 0-.311-.917c-1.688-4.351-6.02-8.426-9.799-10.934-1.519-.998-3.855-2.618-5.889-2.618-.248 0-.488.02-.727.072-1.408.314-2.75 1.995-3.566 3.789-.566 1.233-.889 2.512-.781 3.434.352 3.128 3.01 5.991 4.524 8.814z" fill="#fcd4b5"/><path d="M16.701 39.473c.734.286 3.008 1.238 4.215 1.238l.449-.065c1.613-.591 1.084-1.896 1.395-3.251.795-3.464 1.982-7.224 3.689-10.424 1.512-2.822 4.166-5.685 4.524-8.814.096-.825-.149-1.956-.611-3.066-.795-1.926-2.236-3.821-3.74-4.156a3.334 3.334 0 0 0-.723-.072c-2.033 0-4.367 1.62-5.889 2.618-3.781 2.508-8.117 6.583-9.803 10.934-.117.304-.221.609-.307.915-.856 2.966-.393 6.216 1.062 8.927 1.231 2.312 3.177 4.243 5.739 5.216z" fill="#fcd4b5"/></g><path d="M46.436 71.479c.219-.27.453-.535.688-.784 3.842-4.152 8.723-5.522 14.377-5.808.412-.021.826-.031 1.254-.031 6.955 0 15.477 2.884 19.004 9.241 3.234 5.865 2.908 16.248-4.541 19.009-1.435.53-3.025.948-4.662 1.314-2.979.647-6.189 1.045-9.439 1.045-3 0-6.008-.311-8.809-.978-2.793-.674-5.385-1.708-7.551-3.149-6.665-4.442-4.632-14.571-.321-19.859z" fill="#f79329"/><path d="M27.682 64.469c.029-4.494 3.086-8.143 6.848-8.111 3.744.01 6.785 3.699 6.766 8.203-.016 4.513-3.088 8.131-6.822 8.12-3.767-.03-6.812-3.689-6.792-8.212z" fill="#2f2f2f"/><path d="M93.648 72.681c-3.734.011-6.812-3.607-6.822-8.12-.021-4.504 3.018-8.193 6.768-8.203 3.754-.031 6.81 3.617 6.846 8.111.025 4.523-3.026 8.182-6.792 8.212z" fill="#2f2f2f"/><path d="M59.182 80.547c0-4.178-.688-7.565-3.414-7.565-2.73 0-3.412 3.388-3.412 7.565 0 4.184.682 7.576 3.412 7.576 2.726 0 3.414-3.393 3.414-7.576z" fill="#2f2f2f"/><path d="M70.656 88.123c2.736 0 3.418-3.393 3.418-7.576 0-4.178-.682-7.565-3.418-7.565-2.721 0-3.408 3.388-3.408 7.565 0 4.183.688 7.576 3.408 7.576z" fill="#2f2f2f"/></g></g></svg>