<svg xmlns="http://www.w3.org/2000/svg" viewBox="0 0 128 128"><g id="图层_1"><g><path d="M85.866 63.893s2.974 3.444 4.147 9.254c1.918 9.507 5.013 16.36 5.896 21.844 1.172 7.288.196 15.037-5.333 20.281-8.466 8.042-20.461 11.176-31.979 11.5-.556.017-1.128.023-1.712.023-14.891 0-37.802-5.254-42.753-21.091-1.457-4.661-.956-11.724 1.02-16.193 2.457-5.553 3.459-12.471 6.121-18.527 1.733-3.946 4.118-7.62 7.322-10.528.528-.478 1.957-1.212 2.267-1.807.291-.582.064-1.963.105-2.731.924-17.354 1.434-43.593 19.42-52.941 2.174-1.128 4.688-1.775 7.036-1.775 4.351 0 8.183 2.195 8.426 7.573.74 16.153-14.461 29.966-12.281 46.14.032.256 3.564.561 3.937.578 1.074.068 2.139.124 3.208.137.359.006 1.165.083 1.907.083.665 0 1.283-.064 1.516-.288 2.152-2.106 3.017-7.727 4.218-10.493 1.698-3.947 3.668-7.784 5.949-11.434 4.519-7.259 10.354-13.834 17.772-18.237 2.786-1.651 6.026-2.788 9.249-3.208a13.812 13.812 0 0 1 1.757-.105c3.179 0 7.418.894 9.367 2.995 6.539 7.082-2.731 18.414-7.201 23.871-4.333 5.299-8.92 10.383-13.326 15.615-2.177 2.595-6.027 5.767-6.055 9.464z" fill="#e0e0e0"/><path d="M34.82 88.187c-3.131-.026-5.68 2.933-5.707 6.573-.013 3.658 2.513 6.626 5.653 6.654 3.113.013 5.68-2.92 5.694-6.585.031-3.643-2.508-6.634-5.64-6.642z" fill="#2f2f2f"/><path d="M72.754 88.187c-3.136.009-5.67 2.999-5.632 6.641.002 3.665 2.57 6.598 5.682 6.585 3.136-.028 5.671-2.995 5.653-6.654-.023-3.639-2.575-6.598-5.703-6.572z" fill="#2f2f2f"/><path d="M67.616 113.082c-1.943-.989-3.845 1.9-5.68 2.116-2.125.25-4.069-.704-4.37-1.743-.118-.395-.255-1.939-.282-2.276 2.868-1.146 4.296-3.253 4.285-4.369 0-.747-.362-1.446-1.072-1.53-.755-.085-1.247.305-1.839.734-1.442 1.015-2.03 1.569-4.331 1.55-1.548-.012-2.777-.782-3.706-1.602-.418-.363-1.389-1-2.17-.307-1.702 1.51 1.023 4.243 2.462 4.877.65.287 1.196.565 1.81.793 0 .928-.009 1.856-.027 2.02-.1 1.205-1.357 1.807-2.467 2.088-.938.233-2.275.06-3.168-.314-.819-.329-1.338-1.152-1.911-1.775-.601-.646-1.336-.933-2.042-.583-1.143.567-1.245 1.963-.569 3.277.826 1.606 1.822 2.206 2.913 2.822 1.504.85 4.965 1.108 7.217.078 1.862-.852 2.505-1.969 3.842-.943 1.83 1.393 4.449 1.55 6.79.956 1.971-.499 6.964-4.521 4.315-5.869z" fill="#2f2f2f"/><path d="M101.076 23.974c-10.267.032-19.169 10.485-23.739 18.61-2.062 3.661-3.887 7.827-4.583 11.982-.478 2.882-.022 5.817 3.254 6.496 1.493.314 2.712-.228 3.736-1.128 1.443-1.28 2.526-3.296 3.495-4.717 2.736-4.036 5.211-8 8.488-11.66 2.585-2.88 4.911-5.77 7.703-8.484 2.469-2.406 5.796-5.587 4.867-9.425-.303-1.264-2.119-1.674-3.221-1.674z" fill="#ed80ad"/><path d="M45.962 55.563c.555-2.012.683-4.482.719-6.502.109-8.499 4.979-17.117 7.974-24.869 1.101-2.852 4.178-11.869-2.14-10.376-4.979 1.18-9.147 7.328-11.036 11.68-2.08 4.783-3.291 9.979-3.873 15.159-.291 2.59-.31 5.199-.192 7.806.11 2.385-.054 5.261.875 7.492.655 1.583 1.857 1.933 3.522 1.771 1.352-.128 3.095-.346 3.869-1.508.122-.192.218-.412.282-.653z" fill="#ed80ad"/></g></g></svg>