<svg id="图层_1" xmlns="http://www.w3.org/2000/svg" xmlns:xlink="http://www.w3.org/1999/xlink" viewBox="0 0 128 128"><g><path d="M12.745 73.577a19.509 19.509 0 0 1 2.522-1.291 18.391 18.391 0 0 0-2.522 1.291z" fill="none"/><path d="M48.249 83.047c-4.274-5.172-7.534 5.414-16.508 6.175-5.034.426-9.803-2.062-9.665-5.852.081-2.454.921-2.995 2.131-3.053 1.693-.081 5.127 1.942 7.292-.108 2.372-2.253 2.219-5.592 1.875-7.375-.52-2.694-3.246-4.532-3.246-4.532-5.99-2.799-16.646 4.735-17.383 5.276.22-.137 1.191-.733 2.522-1.291a19.648 19.648 0 0 0-2.522 1.291c-.011 0-.011 0-.023.011l.023.058c5.23-2.315 14.63-2.431 7.891 9.654.357 6.912 6.739 8.628 8.605 9.63-1.141 2.154-.104 8.329 2.05 11.623-5.529 6.612 1.141 11.819 1.141 11.819l.484.023 3.721.127h.035c-1.624-11.681 7.903-10.61 10.564-10.61l.541-1.071c-13.167-11.992.472-21.795.472-21.795z" fill="#875a3b"/></g><path d="M32.917 116.396l-.484-.023c.115.012.276.012.484.023z" fill="#724941"/><path d="M36.637 116.523l-3.721-.127c.738.035 2.028.081 3.721.127z" fill="#724941"/><path d="M96.252 92.228c0 .012 0 .012-.011.012v.023c-.001-.012-.001-.024.011-.035z" fill="#855c52"/><path d="M96.298 92.032c-.011.069-.035.138-.046.196.011-.046.023-.115.046-.196z" fill="#855c52"/><path d="M97.888 77.333c.104 6.048-.749 10.955-1.267 13.363a50.605 50.605 0 0 0 1.267-13.363z" fill="#af8366"/><g id="Y0svyo.tif"/><g id="RhSAuX.tif"/><g id="eCBubC.tif"/><path d="M33.33 83.504s.735 3.085.958 7.213c.223 4.128-1.692 5.6-2.773 6.257-1.081.656-.949 1.997-2.246 2.322-1.296.325-2.022-.292-2.794-.826-.772-.535-2.523.189-5.22-1.638-2.697-1.827-4.212-8.866-4.212-8.866l16.287-4.462z" fill="#e5ab4c"/><path d="M32.639 84.466c.798-.19 1.222-1.075.851-1.807a5.157 5.157 0 0 0-1.926-2.086c-2.179-1.337-5.083-1.353-8.313-.51-3.243.846-5.185 2.064-6.419 4.038a5.168 5.168 0 0 0-.794 2.716c-.007.824.774 1.428 1.576 1.236l15.025-3.587z" fill="#d6ac90"/><path d="M23.99 82.796a1.122 1.122 0 0 1-1.424-.698l-.745-2.18a1.122 1.122 0 0 1 2.122-.726l.745 2.18a1.12 1.12 0 0 1-.698 1.424z" fill="#d6ac90"/><path d="M86.667 108.167c.963-.575 1.174-1.001 5.667-4.333 4.175-3.097 7.103-6.422 8.272-7.797 2.272-2.672 2.686-4.926 2.741-5.701.066-.931.092-1.611-.184-3.453-.384-2.567-.687-5.17.21-5.463.463-.151.9.561 1.454.319.514-.224.617-1.045.641-1.235.18-1.433-1.011-2.577-1.248-2.796-1.008-1.922-.981-2.747-.663-3.109.444-.506 1.428-.077 1.795-.645.258-.398.006-.979-.397-1.877-.397-.884-.96-1.805-2.052-3.11-.687-.821-.778-.832-1.186-1.328 0 0-2.685-3.259-2.066-7.416.046-.311.149-.677.428-.845.414-.25.999.021 1.229.268.511.548.701.944 1.811.98.588.019.609-.721.6-.764-.135-.65-.936-1.228-2.745-2.5a7.007 7.007 0 0 1-3.129-4.583c-.558-1.023-1.295-1.244-.74-1.623 1.361-.613 2.861.638 2.861.638.164.049.361.078.48-.026.306-.27-.052-1.31-.427-1.894-.896-1.395-2.339-.884-4.709-2.098-.831-.425-2.288-1.171-3.264-2.808-1.034-1.733-1.016-3.605-1.005-4.128.014-.649.646-1.092.993-.843.337.241.943.714 1.67.87.91.195 1.909-.583 1.847-.873-.065-.305-1.24.151-2.498-.556-.921-.517-.79-1.04-1.633-1.319-.896-.296-1.752.032-1.973-.36-.015-.027-.052-.123-.007-.301.176-.703 1.66-2.747 4.118-2.95 1.734-.144 3.241.688 3.56.13a.475.475 0 0 0 .048-.289 2.796 2.796 0 0 0-.794-.572 2.713 2.713 0 0 0-.469-.173c-.13-.098-.189-.184-.177-.257.046-.266 1.043-.365 2.991-.294a18.409 18.409 0 0 1 5.987 1.557c3.656 2.149 4.616 3.679 4.752 4.716.039.297.003 1.385.696 2.242.338.417.849.789 1.046.661.142-.092.039-.388.008-1.219-.026-.703-.045-1.201.113-1.264.218-.087.637.702 1.136 1.371 1.191 1.597 2.257 1.733 3.077 2.598.744.785 1.4 2.29.871 5.469-.192.622.327 1.642.612.749.287-.892.994-1.719.994-1.719.58-.638 1.187-.443.935-.102-.253.34-.122.744-.162 1.413.245.33.493.744.677 1.249.593 1.629.475 4.082-.66 5.944-.297.488-.742 1.063-.678 1.851.007.085.09.983.559 1.172 1.093.44 3.172-3.411 3.933-3.043.445.215-.319 1.502.284 3.49.186.612.58 1.554.799 2.499.135.583.193 1.125.201 1.192.02.169.035.354.045.599.043 1.023.019 3.228-.876 5.58-1.298 3.409-3.03 4.741-3.36 7.141-.205 1.491.695 2.014 1.358 1.263.664-.751.866-1.497 1.199-3.177s1.474-1.012 2.074.606c.599 1.618.696 3.038-.324 7.128-.365 1.463-.917 2.101-1.429 2.873-.919 1.386-1.265 2.378-.536 1.946 1.23-.728 2.807-.57 2.222.146s-1.763 3.498-1.995 4.787c-.447 3.573-2.496 5.478-2.496 5.478-1.897 2.208-4.812 3.294-5.741 3.95-.93.655-1.393 1.139-1.096 1.699.233.439.8.226 2.249-.325.897-.341 1.234-.446 1.879-.666.358-.122.677.271.497.61-1.956 3.703-4.152 5.622-11.099 8.275-8.39 3.205-30.279 5.182-30.279 5.182l10.478-8.807z" fill="#875a3b"/><path d="M5.926 69.327a3.02 3.02 0 0 0-.541 1.74c0 .795.311 1.532.806 2.085a3.44 3.44 0 0 1-.564-1.82c.149-.819.241-1.452.299-2.005z" fill="#2f2f2f"/><path d="M5.926 69.327c-.058.553-.15 1.187-.3 2.004 0 .541.173 1.221.564 1.82a3.365 3.365 0 0 0 2.488 1.094c1.82 0 3.295-1.428 3.295-3.179 0-1.762-1.474-3.191-3.295-3.191a3.323 3.323 0 0 0-2.753 1.44c.001 0-.011 0 .001.012z" fill="#2f2f2f"/><path d="M58.317 38.846a9.009 9.009 0 0 0 1.567.138h.495a26.5 26.5 0 0 1-2.062-.138z" fill="#855c52"/><path d="M62.188 38.995h-.599c2.638.035 5.818.15 9.181.749a43.337 43.337 0 0 0-8.582-.749z" fill="#855c52"/><path d="M70.77 39.744z" fill="#855c52"/><path d="M72.187 40.021c.219.046.438.104.668.161-.219-.058-.437-.104-.668-.161z" fill="#855c52"/><path d="M73.051 40.228c.726.184 1.44.38 2.166.611a26.744 26.744 0 0 0-2.166-.611z" fill="#af8366"/><path d="M88.384 49.663c-3.917-4.746-8.571-7.373-13.167-8.824 2.604.841 5.138 2.004 7.373 3.606a34.368 34.368 0 0 1 5.794 5.218z" fill="#af8366"/><path d="M96.367 65.422c-1.428-5.691-3.871-11.094-7.983-15.759 1.716 2.085 3.295 4.573 4.654 7.557 3.11 6.797 4.596 13.628 4.85 20.113-.058-3.652-.473-7.73-1.521-11.911z" fill="#855c52"/><path d="M23.114 17.938s-5.415 2.096-3.721 6.796c1.878 5.219 5.714 5.783 5.714 5.783s4.101-3.94 3.617-7.949c-.439-3.594-3.698-4.746-5.61-4.63z" fill="#875a3b"/><path d="M12.722 73.589c.012-.011.012-.011.023-.011.737-.541 11.393-8.075 17.383-5.276 0 0 6.66 6.459.705 12.115-2.166 2.05-4.223 1.294-5.917 1.375-1.21.058-2.635 1.082-2.715 3.536-.138 3.79 4.631 6.278 9.665 5.852 8.974-.76 12.109-13.305 16.383-8.133 0 0-13.639 9.803-.472 21.795l-.541 1.071c-2.661 0-12.188-1.071-10.564 10.61 11.255.322 40.019.852 41.01.288l1.544-.829c7.373-3.617 14.008-12.43 17.003-23.685 0-.012.012-.023.012-.035v-.023c.081-.737.991-8.893-.173-19.134C94.27 57.323 82.44 44.571 66.565 42.751c-4.412-.507-9.1-2.143-8.455-3.94-2.246-.403-4.377-1.475-5.541-2.488-6.209-5.437-13.616-17.326-31.391-10.264C6.778 31.784 2.274 45.7 3.956 56.931c1.382 9.331 2.223 9.723 1.97 12.384a3.324 3.324 0 0 1 2.753-1.44c1.82 0 3.295 1.429 3.295 3.191 0 1.751-1.474 3.179-3.295 3.179a3.361 3.361 0 0 1-2.488-1.094c.864 1.302 2.799 2.223 6.347.588.069-.035.138-.058.207-.092l-.023-.058z" fill="#b7885a"/><path d="M66.125 48.333c-17.176-2.73-13.489 2.53.208 7.333 22.902 8.01 20.911 30.991 18.704 41.355-.165.777.93 1.137 1.249.41 1.607-3.666 3.438-9.478 3.901-17.546.369-6.405.749-12.142-5.668-20.355-2.833-3.617-9.915-9.849-18.394-11.197z" fill="#875a3b"/><path d="M58.11 38.811c-.645 1.797 3.145 4.932 7.557 5.439C81.541 46.07 92.953 57.218 94.75 73c1.163 10.241 1.571 18.502 1.49 19.239.011 0 .011 0 .011-.012.011-.058.035-.127.046-.196.115-.438.23-.887.323-1.336.518-2.408 1.371-7.315 1.267-13.363-.253-6.486-1.74-13.317-4.85-20.113-1.359-2.984-2.938-5.472-4.654-7.557a34.47 34.47 0 0 0-5.795-5.219c-2.235-1.601-4.769-2.765-7.373-3.606a38.99 38.99 0 0 0-2.166-.611 1.159 1.159 0 0 0-.196-.046c-.23-.058-.449-.115-.668-.161a4.95 4.95 0 0 0-.542-.104 11.859 11.859 0 0 0-.875-.173c-3.364-.599-6.543-.714-9.181-.749-.415 0-.818-.012-1.209-.012h-.495a9.026 9.026 0 0 1-1.567-.138c-.068-.009-.137-.021-.206-.032z" fill="#875a3b"/><path d="M39.627 19.803s-6.923.703-6.451 6.681c.518 6.612 4.769 8.479 4.769 8.479s5.979-3.248 6.693-8.041c.634-4.285-2.776-6.646-5.011-7.119z" fill="#875a3b"/><path d="M11.116 66.399a1.08 1.08 0 0 1-.511-1.525c2.158-3.8 6.436-12.915 13.79-19.436 7.354-6.521 11.182-7.458 13.637-8.532a1.09 1.09 0 0 1 1.317.356 1.093 1.093 0 0 1-.073 1.395c-1.564 1.69-2.533.942-10.944 9.843S14.848 63.375 12.351 66.138a1.076 1.076 0 0 1-1.235.261z" fill="#875a3b"/><path d="M19.267 55.136c.924.717 5.733-.227 7.91-2.047 2.188-1.82 2.592-6.371 2.038-7.454-.564-1.129-5.46-1.071-8.294.91-2.327 1.637-2.455 7.969-1.654 8.591z" fill="#2f2f2f"/><path d="M9.068 61.532l-.056-.001c-.711-.017-.759-.32-.762-1.031-.014-3.259-.111-12.329 5.083-19 5.078-6.52 12.687-9.082 15.557-9.91.71-.205.809.237.997.951.153.585-.773.753-1.304 1.042-2.394 1.307-8.347 5.702-12.667 11.25-4.207 5.403-5.746 12.559-6 15.417-.061.695-.151 1.299-.848 1.282z" fill="#875a3b"/><path d="M76.083 94.75c-1.104 0-.917-1.146-.917-2.25 0-.56-.139-2.831-.104-3.604.178-3.939-.517-8.999-4.062-15.5-3.667-6.724-6.821-8.586-8.062-9.25-.96-.514-3.229-.979-3.25-1.625-.035-1.091.873-.886 2.188-.917.309-.007 8.743-.145 13.749 9.377 2.814 5.352 3.217 9.874 3.021 14.231-.032.704-.52 4.299-.52 4.808-.001 1.105-.938 4.73-2.043 4.73z" fill="#875a3b"/></svg>