<svg id="レイヤー_1" xmlns="http://www.w3.org/2000/svg" viewBox="0 0 128 128"><g><path d="M125.467 86.163l-8.268-1.492c.1-1.842.088-3.696 0-5.559l8.4-1.25a2.13 2.13 0 0 0 1.796-2.425 2.138 2.138 0 0 0-2.424-1.796l-8.181 1.217c-.896-5.979-3.204-11.942-6.68-17.305 1.046-10.017 3.059-37.177-5.092-42.648-6.496-4.359-21.956 11.821-26.936 17.63a648.377 648.377 0 0 1-3.156 3.65c-3.481-.529-7.019-.825-10.549-.816-3.525-.008-7.062.288-10.542.816a539.911 539.911 0 0 1-3.159-3.65c-4.983-5.809-20.442-21.989-26.934-17.63-8.147 5.471-6.134 32.631-5.088 42.648-3.475 5.363-5.788 11.326-6.684 17.305l-8.18-1.217a2.149 2.149 0 0 0-2.426 1.796 2.13 2.13 0 0 0 1.797 2.425l8.4 1.25a53.691 53.691 0 0 0-.005 5.559l-8.263 1.492a2.134 2.134 0 1 0 .76 4.2l7.937-1.434a35.91 35.91 0 0 0 1.5 6.18l-6.476 2.054a2.14 2.14 0 0 0-1.387 2.68 2.137 2.137 0 0 0 2.679 1.387l6.847-2.175c1.981 3.892 4.875 7.467 8.976 10.53 6.047 4.513 13.571 7.571 21.33 9.229 2.942.629 10.564 2.096 18.547 2.096 7.988 0 16.348-1.467 19.298-2.096 7.75-1.658 15.28-4.717 21.326-9.229 4.104-3.063 7-6.638 8.976-10.53l6.842 2.175a2.13 2.13 0 0 0 2.679-1.387 2.134 2.134 0 0 0-1.384-2.68l-6.476-2.058a35.36 35.36 0 0 0 1.496-6.176l7.946 1.434a2.133 2.133 0 0 0 2.476-1.721 2.13 2.13 0 0 0-1.718-2.479z" fill="#f79329"/><g><g><g><g><g><g><g><path d="M70.954 103.189c.209.463-.175 1.196-.283 1.617-.142.525-.274 1.046-.429 1.563-.763 2.517-2.062 4.879-4.854 5.429-2.579.513-5.059-1.245-6.029-3.583-.358-.85-.643-1.729-.938-2.6l-.471-1.434c-.112-.341-.399-.875-.362-1.233 1.421-.087 3.071-.733 4.288-1.454.399-.237.854-.371 1.222-.658.328-.263.545-.634.962-.759.416.455 1.133.705 1.654 1.055.634.42 1.271.787 1.95 1.108.633.3 1.379.304 2.033.475.342.092.912.042 1.162.33.041.044.072.09.095.144z" fill="#ed6c30"/></g></g></g></g><g><g><g><g><g><path d="M46.92 81.067c0 4.588-3.309 8.305-7.38 8.305-4.069 0-7.38-3.717-7.38-8.305 0-4.596 3.311-8.313 7.38-8.313 4.071 0 7.38 3.717 7.38 8.313z" fill="#2f2f2f"/></g><g><path d="M81.264 81.067c0 4.588 3.305 8.305 7.375 8.305 4.071 0 7.38-3.717 7.38-8.305 0-4.596-3.309-8.313-7.38-8.313s-7.375 3.717-7.375 8.313z" fill="#2f2f2f"/></g></g></g></g><path d="M64.479 101.331a1.39 1.39 0 0 1-1.388-1.392v-8.15a1.39 1.39 0 1 1 2.78 0v8.15c0 .767-.625 1.392-1.392 1.392z" fill="#2f2f2f"/><g fill="#2f2f2f"><path d="M57.491 104.598c-.434 0-.888-.017-1.358-.059-5.659-.5-8.15-4.892-8.68-7.146a1.714 1.714 0 0 1 1.275-2.055 1.707 1.707 0 0 1 2.054 1.267c.05.208 1.108 4.125 5.65 4.525 4.75.433 6.592-2.063 6.667-2.167a1.72 1.72 0 0 1 2.372-.416c.766.533.97 1.575.449 2.35-.108.159-2.57 3.701-8.429 3.701z"/><path d="M71.517 104.598c-5.858 0-8.321-3.542-8.43-3.7a1.709 1.709 0 1 1 2.834-1.912c.059.083 1.934 2.571 6.654 2.146 4.63-.409 5.643-4.476 5.65-4.517a1.71 1.71 0 1 1 3.33.78c-.529 2.254-3.025 6.646-8.681 7.146-.47.04-.924.057-1.357.057z"/></g><g><g><g><g><g><g fill="#2f2f2f"><path d="M59.216 91.734c.084 1.054.792 2.146 1.893 2.821.883.55 2.133.825 3.358.825 1.221 0 2.471-.275 3.354-.825 1.096-.675 1.809-1.767 1.888-2.821.083-1.004-.153-2.017-1.242-2.717-.6-.388-1.346-.65-2.12-.792a10.735 10.735 0 0 0-1.847-.179c-.792 0-1.625.125-1.917.179-.767.142-1.517.404-2.121.792-1.083.7-1.32 1.713-1.246 2.717z"/><path d="M64.434 96.864c-1.538 0-3.038-.379-4.109-1.042-1.475-.913-2.471-2.433-2.592-3.971-.166-2.242.955-3.455 1.921-4.084.742-.471 1.659-.821 2.663-1.003a13.11 13.11 0 0 1 2.18-.201c.941 0 1.8.142 2.125.201 1 .183 1.921.533 2.65 1.003.975.629 2.1 1.846 1.921 4.088-.117 1.529-1.108 3.05-2.588 3.967-1.071.659-2.571 1.042-4.113 1.042h-.058zm.062-7.33c-.676 0-1.413.112-1.638.154-.625.117-1.188.321-1.595.583-.389.25-.622.567-.564 1.35.046.596.513 1.25 1.188 1.667.608.379 1.558.6 2.546.6v1.492l.024-1.492c1.025 0 1.976-.225 2.58-.6.666-.409 1.146-1.083 1.188-1.667.066-.783-.167-1.1-.562-1.354-.404-.263-.967-.463-1.584-.58-.145-.024-.854-.153-1.583-.153z"/></g></g></g></g></g></g></g></g></g><g><path d="M64.479 113.656c-2.83 0-5.547-1.854-6.758-4.758-.56-1.346-1.693-4.892-1.739-5.042a1.768 1.768 0 0 1 1.15-2.225c.93-.3 1.93.216 2.226 1.15.387 1.221 1.233 3.792 1.633 4.754.621 1.488 2.259 2.879 4.055 2.525 1.638-.321 2.718-1.621 3.504-4.204.104-.354.309-1.142.506-1.875.153-.584.299-1.142.382-1.434a1.76 1.76 0 0 1 2.188-1.221 1.772 1.772 0 0 1 1.222 2.188c-.079.279-.222.808-.367 1.371-.204.77-.424 1.604-.537 1.987-.438 1.438-1.759 5.784-6.209 6.663a6.377 6.377 0 0 1-1.256.121z" fill="#2f2f2f"/></g></g></g></svg>