<svg id="レイヤー_1" xmlns="http://www.w3.org/2000/svg" viewBox="0 0 128 128"><g><path d="M121.102 52.274c-4.811-8.702-12.953-15.986-23.555-21.077-1.848-.884-3.674-1.796-5.504-2.703a448.26 448.26 0 0 0-5.477-2.693c-2.863-1.378-5.447-3.208-8.191-5.148-1.412-.998-2.836-2.003-4.322-2.973-2.576-1.682-6.996-3.984-12.271-3.238-4.172.574-6.244 2.204-8.436 3.932l-.58.448c-6.045 4.74-12.232 8.414-18.902 11.244a57.685 57.685 0 0 0-8.684 4.539 53.94 53.94 0 0 0-11.434 9.763C7.352 51.631 3.1 60.584 1.463 70.251c-2.721 15.974 2.439 30.019 13.787 37.577 12.072 8.048 29.416 12.479 48.855 12.479 14.58 0 29.268-2.463 41.377-6.94 8.898-3.294 15.465-10.062 18.988-19.579 4.702-12.684 3.346-29.37-3.368-41.514zM38.531 93.031c-11.711 0-14.625-8.741-14.625-19.503 0-10.768 2.914-19.491 14.625-19.491 11.662 0 14.607 8.723 14.607 19.491.001 10.762-2.945 19.503-14.607 19.503zm49.924 0c-11.697 0-14.625-8.741-14.625-19.503 0-10.768 2.928-19.491 14.625-19.491 11.674 0 14.619 8.723 14.619 19.491 0 10.762-2.945 19.503-14.619 19.503z" fill="#d7598b"/></g></svg>