<svg id="レイヤー_1" xmlns="http://www.w3.org/2000/svg" xmlns:xlink="http://www.w3.org/1999/xlink" viewBox="0 0 128 128"><g><path d="M54.901 101.911c-1.234 0-2.4-.096-3.566-.288-2.279-.371-5.52-1.153-7.361-3.637-2.031-2.729-1.721-5.375-1.551-6.798.041-.341.088-.76.066-.899-.096-.507-.834-1.38-1.766-1.869-.131-.018-.262-.018-.392-.027a14.832 14.832 0 0 1-1.567-.183 4.458 4.458 0 0 1-3.371-2.795 4.478 4.478 0 0 1 .633-4.335c1.398-1.812 2.668-2.798 4.18-3.903.492-.362.967-.729 1.436-1.096 1.551-1.206 3.31-2.576 5.594-3.581l.863-.384c2.285-1.017 4.643-2.069 7.457-2.646a50.99 50.99 0 0 1 8.293-.987c5.426-.21 10.531 1.716 14.766 3.51 4.725 1.991 8.398 7.379 8.365 12.247l.006.742c.018 1.716.039 3.847-1.07 6.135-1.414 2.925-4.379 4.864-6.619 5.973-2.328 1.162-5.078 1.764-8.41 1.851-1.244.035-2.68.472-4.199.935-1.096.331-2.223.672-3.449.934-2.74.577-5.439 1.101-8.338 1.101zm-3.629-9.448c.316.096.801.218 1.508.341 2.555.41 5.408-.07 8.609-.743.908-.192 1.803-.472 2.695-.742 1.924-.585 4.111-1.249 6.561-1.318 2.004-.053 3.533-.35 4.672-.917 1.615-.803 2.416-1.607 2.551-1.869.193-.393.182-1.205.174-2.139l-.004-.891c.008-1.166-1.428-3.336-2.908-3.956-3.365-1.428-6.951-2.82-10.492-2.82l-.477.009a41.533 41.533 0 0 0-6.807.812c-1.861.384-3.605 1.161-5.615 2.051l-.902.402c-1.039.454-1.986 1.131-3.014 1.92 1.625 1.528 2.998 3.572 3.459 6.061.266 1.476.127 2.689.021 3.571-.007.079-.021.149-.031.228z" fill="#757f3f"/><path d="M35.079 104.714c.791-.752 1.939-1.196 2.926-1.476 1.568-.437 3.299-1.406 4.48-2.55a81.726 81.726 0 0 0 2.016-2.021c4.053-4.204 3.746-11.583-1.951-14.334-1-.484-1.912-.323-2.982-.524 1.037-1.336 1.939-2.043 3.275-3.021 2.057-1.502 3.803-3.144 6.195-4.2 2.467-1.083 4.76-2.192 7.418-2.738a46.787 46.787 0 0 1 7.549-.899c4.502-.162 8.75 1.419 12.867 3.157 2.969 1.258 5.658 4.934 5.637 8.104-.014 1.712.158 3.362-.615 4.951-.906 1.878-2.555 3.039-4.135 4.253-1.646 1.266-3.449 1.441-5.393 2.104-1.24.428-2.184 1.502-2.922 2.559-.859 1.227-.924 2.873-1.672 4.157-1.074 1.855-2.252 2.559-3.896 3.72-1.604 1.126-3.057 2.458-4.836 3.327-2.025.995-4.182 1.593-6.203 2.567-1.912.918-3.969 1.52-6.104 1.642-1.834.1-3.398-.131-5.184-.331-1.891-.21-3.746-.175-5.156-1.704-1.258-1.371-2.537-3.108-2.24-5.038.106-.692.455-1.25.926-1.705z" fill="#ed6c30"/><path d="M75.413 98.776c3.271 7.178.727 14.269-4.535 19.106-.805.742-2.137 1.502-2.703 2.506-2.715 4.777 17.863 6.601 20.023 6.645 17.914.367 34.672-8.574 35.27-28.169.178-5.72-.424-12.182-1.908-17.718-1.467-5.466-3.576-11.509-6.496-16.382-2.939-4.925-7.938-10.443-12.697-13.203-3.266-1.887-6.506-3.502-9.981-4.855-1.172-.462-2.293-.672-3.512-.899-2.668-.524-5.672-1.336-8.365-1.31-3.846.026-7.945.751-11.326 2.916-3.064 1.965-1.977 5.082-.209 7.711 1.656 2.462 3.527 4.785 4.969 7.388.689 1.24 1.109 2.611 1.781 3.842.639 1.17 1.654 1.877 2.584 2.803.852.838 1.809 1.772 2.441 2.794.922 1.484 1.76 3.336 2.219 5.021.432 1.589-.008 3.274-.004 4.899.004 1.336.096 2.585-.361 3.86-.914 2.506-2.893 4.977-4.865 6.715-.822.716-1.812 1.266-2.607 2.008-1.257 1.179-.29 3.065.282 4.322z" fill="#bdcf46"/><g><g><g><defs><path id="SVGID_1_" d="M75.413 98.776c3.271 7.178.727 14.269-4.535 19.106-.805.742-2.137 1.502-2.703 2.506-2.715 4.777 17.863 6.601 20.023 6.645 17.914.367 34.672-8.574 35.27-28.169.178-5.72-.424-12.182-1.908-17.718-1.467-5.466-3.576-11.509-6.496-16.382-2.939-4.925-7.938-10.443-12.697-13.203-3.266-1.887-6.506-3.502-9.981-4.855-1.172-.462-2.293-.672-3.512-.899-2.668-.524-5.672-1.336-8.365-1.31-3.846.026-7.945.751-11.326 2.916-3.064 1.965-1.977 5.082-.209 7.711 1.656 2.462 3.527 4.785 4.969 7.388.689 1.24 1.109 2.611 1.781 3.842.639 1.17 1.654 1.877 2.584 2.803.852.838 1.809 1.772 2.441 2.794.922 1.484 1.76 3.336 2.219 5.021.432 1.589-.008 3.274-.004 4.899.004 1.336.096 2.585-.361 3.86-.914 2.506-2.893 4.977-4.865 6.715-.822.716-1.812 1.266-2.607 2.008-1.257 1.179-.29 3.065.282 4.322z"/></defs><clipPath id="SVGID_2_"><use xlink:href="#SVGID_1_" overflow="visible"/></clipPath><path d="M74.218 96.619c.951-.602 2.24-.166 3.291-.271 1.18-.114 2.582-.55 3.707-.912 2.137-.69 4.293-1.459 6.346-2.38 1.637-.742 3.242-1.354 4.822-2.24.939-.528 2.619-1.358 3.131-2.266.568.14 1.031 1.091 1.268 1.646.406.956.463 1.288-.463 2.013-1.127.882-2.396 1.642-3.588 2.45-1.547 1.048-3.367 1.471-5.043 2.244-4.625 2.126-9.275 3.069-14.309 3.069" clip-path="url(#SVGID_2_)" fill="#757f3f"/><path d="M73.077 112.251c1.084 1.174 4.123 1.623 5.607 2.06 2.615.777 5.309 1.24 8.016 1.624 2.271.332 4.646.437 6.938.524 1.189.044 2.914-.689 3.973-.375.006.987-.205 2.297-.535 3.227-2.371.162-4.707.389-7.088.275-2.775-.131-5.559-.533-8.309-1.083-1.846-.375-3.963-1.039-5.658-1.799-1.275-.576-2.654-1.371-3.951-1.79" clip-path="url(#SVGID_2_)" fill="#757f3f"/><path d="M75.579 104.234c1.307.926 4.371.72 5.916.838 2.717.201 5.449.083 8.174-.105 2.293-.165 4.637-.567 6.895-.969 1.17-.201 2.697-1.284 3.803-1.201.215.965.279 2.292.156 3.262-2.281.664-4.518 1.379-6.861 1.772-2.748.463-5.551.655-8.354.699-1.881.026-4.096-.175-5.912-.559-1.367-.297-2.887-.777-4.244-.917" clip-path="url(#SVGID_2_)" fill="#757f3f"/><path d="M82.671 77.286c-.455.943-1.088 1.807-1.654 2.672.297-.454 6.436 3.021 7.023 3.405a23.486 23.486 0 0 1 5.686 5.257c6.953 9.025 5.309 19.578 1.545 29.428-.977 2.558-2.785 5.902-4.678 7.894-1.311 1.37-5.355 3.872-1.164 4.161 6.682.459 13.252-1.357 19.422-3.777 12.383-4.855 18.561-21.185 18.561-33.628 0-6.628-1.215-12.784-3.527-18.915-1.713-4.558-4.769-8.854-7.781-12.461-1.424-1.711-2.564-3.545-4.357-4.724-1.664-1.092-3.637-1.545-5.572-1.764-3.029-.358-6.732.096-9.596 1.213-3.957 1.546-8.195 3.118-11.648 5.807l-.816 6.566-.635 5.109c-.082.672-.148 1.354-.252 2.026a6.173 6.173 0 0 1-.557 1.731z" clip-path="url(#SVGID_2_)" fill="#757f3f"/></g><g><path d="M72.692 49.072a7.48 7.48 0 0 1 .037-.332c.262-2.628-2.611-4.017-4.463-5.257-2.699-1.816-6.273-2.681-9.523-2.741-3.199-.062-6.387-.262-9.566-.272-1.305-.004-6.039 1.389-6.338-.593-.244-1.642 2.83-2.55 3.984-3.03 2.115-.864 4.363-1.345 6.625-1.624 1.41-.175 2.852-.437 4.262-.555 1.244-.109 2.523.118 3.771.013 3.598-.297 7.178-.751 10.781-.978 1.732-.105 3.369-.262 5.025.201 1.775.494 3.623.899 5.469.96.928.035 1.799-.288 2.729-.271 1.355.018 2.766.524 4.059.908 3.998 1.17 8.316 1.965 12.465 1.188 1.707-.323 8.1-4.401 8.432-2.305.297 1.886-.67 3.406-1.939 4.671-.812.804-1.623 1.659-2.598 2.271-.564.35-1.48 1.119-2.131 1.144-.551 1.703 8.945 1.406 10.299 1.004.754-.227 3.18-1.371 3.856-.996 1.564.874-.777 3.484-1.34 4.13-1.074 1.24-3.072 2.235-3.816 3.685-.938 1.842 1.188 1.772 2.498 1.931 1.156.131 2.318.435 3.488.558a9.694 9.694 0 0 0 3.711-.367c.59-.184 1.59-.803 2.236-.507 1.781.839-.617 3.746-1.398 4.497-.951.908-2.117 1.651-3.299 2.218-.953.454-2.791.454-3.539 1.039-1.605 1.266 1.744 2.192 2.643 2.532 1.789.681 3.471.821 5.309 1.188.957.192 1.061.026 1.109 1.118.045 1.013-.375 1.572-1.117 2.235-1.367 1.231-3.018 2.148-4.82 2.593a56.51 56.51 0 0 1-5.58 1.057c-1.719.227-3.533-.027-5.248.253-1.223.2-1.912 1.527-3.057 2.235-1.258.769-2.545 1.921-3.977 2.323-.979.28-2.004.07-2.996.288-3.064.69-5.736 3.415-8.543 4.803-2.6 1.274-6.516 2.087-7.861 4.951-.951-4.751-3.068-8.793-5.164-13.107-.891-1.842-2.23-2.332-3.615-3.65-1.014-.978-1.855-2.235-2.799-3.292-2.025-2.252-1.854-3.851-1.223-6.671.709-3.185 2.723-6.206 3.162-9.446z" fill="#757f3f"/></g><path d="M31.683 42.811c-2.332 3.109-4.018 6.627-4.736 9.911-.594 2.707-1.541 4.934-3.703 6.759-2.633 2.235-5.436 4.663-8.649 6.2-3.285 1.563-6.732 1.642-9.393 4.384-2.1 2.174-2.973 4.995-2.973 7.929 0 1.327-.031 1.964-.6 3.03-.707 1.293-1.336 2.742-1.23 4.279.262 4.035 4.633 7.361 7.906 8.837 5.035 2.262 11.619 2.663 17.006 1.144 4.961-1.397 9.074-3.415 12.928-6.863 2.115-1.886 4.066-3.947 6.459-5.476 5.609-3.589 12.688-6.916 19.482-6.811.637.017 1.27.07 1.898.157 5.016.69 15.094 5.362 10.676 11.684-2.664 3.816-7.064 5.257-11.074 7.178-4.631 2.227-7.48 4.925-9.662 9.588-.955 2.044-1.99 3.511-3.912 4.751-2.793 1.79-7.892 2.017-10.967.865-2.912-1.101-3.396-2.698-4.246-5.545-.85-2.847-5.258-.271-4.748 2.113.807 3.799 3.527 8.444 7.479 9.449 6.471 1.641 15.775 2.061 21.387-2.131 6.645-4.951 11.32-12.068 17.752-17.316 2.842-2.314 5.484-5.039 6.732-8.558 1.445-4.025-.291-8.357 1.074-12.217.258-.715 1.25-1.318 1.842-1.729 1.193-.847 2.393-1.642 3.58-2.515 1.162-.864 3.324-1.738 3.447-3.371.111-1.423-1.041-1.563-2.133-1.214-1.709.567-3.15 1.607-4.658 2.523-1.066.646-2.33 1.826-3.602 1.223-.717-.332-1.141-1.179-1.764-1.677.611-1.729 2.728-2.881 3.904-4.261.803-.935 4.719-5.056 1.535-5.039-2.545.017-4.627 2.847-6.701 3.973-.918.489-1.795.899-2.742.166-.537-.428-1.328-1.703-1.232-2.402.105-.716 1.371-1.624 1.857-2.104.855-.848 1.521-1.851 2.357-2.75.594-.646 1.965-1.537 2.223-2.411.156-.559.156-2.383-.393-2.698-1.189-.681-4.476 2.366-5.498 2.908-1.021.542-2.188 1.633-3.436 1.424-1.268-.218-2.119-1.764-2.166-2.96-.105-3.056 1.961-5.771 2.34-8.68.275-2.096-.99-4.043-2.523-5.248-2.494-1.938-5.744-3.274-8.912-3.545-1.488-.131-2.973.122-4.457.052-1.805-.078-3.184-.995-4.887-1.414-2.506-.62-4.916-.637-7.549-.637-5.932-.002-11.494 3.963-15.318 9.045z" fill="#757f3f"/><g><path d="M27.854 91.974c-.15.437.738.996 1.064 1.328a38.234 38.234 0 0 0 2.725 2.484c.764.633 1.51 1.34 2.414 1.786 5.658 2.777 2.158-10.462 2.742-10.488-.639.035-1.322.865-1.824 1.206-.607.41-1.172.803-1.787 1.188-.803.502-1.654.986-2.51 1.406-.371.174-.756.34-1.148.471-.414.149-.986.149-1.367.332-.178.086-.273.182-.309.287z" fill="#fff"/><path d="M35.433 99.073c-.576 0-1.188-.166-1.867-.498-.863-.423-1.56-1.013-2.228-1.585l-.41-.345a41.736 41.736 0 0 1-2.799-2.55c-.06-.061-.142-.131-.234-.21-.547-.454-1.459-1.214-1.1-2.271.09-.271.322-.664.887-.935.351-.174.726-.236 1.055-.292.148-.026.301-.048.432-.092a9.494 9.494 0 0 0 1.021-.423 25.63 25.63 0 0 0 2.406-1.341c.459-.288.887-.576 1.322-.877l.434-.292c.117-.078.248-.201.389-.323.52-.459 1.17-1.03 2-1.074.012-.009.043 0 .061 0a1.114 1.114 0 0 1 1.053 1.493c.021.315.104.979.18 1.52.506 3.895.842 7.523-.643 9.212a2.543 2.543 0 0 1-1.959.883zm-5.758-6.593c.016.009.021.018.035.035a42.064 42.064 0 0 0 2.645 2.41l.436.367c.586.498 1.145.978 1.758 1.275.453.227.732.271.885.271.145 0 .205-.039.275-.113.943-1.074.355-5.545.105-7.453-.008-.065-.018-.127-.027-.192-.064.048-.125.096-.188.136l-.424.288c-.461.314-.912.624-1.396.926a30.042 30.042 0 0 1-2.611 1.459c-.414.201-.838.375-1.27.524-.071.024-.145.041-.223.067z" fill="#757f3f"/></g><g><path d="M7.433 91.105c.117.022.236.052.346.091.453.166.834.472 1.297.629.689.227 1.371.502 2.061.707.562.166 1.283.244 1.686.681.354.393.053.821-.078 1.249-.311.995-1.332 5.108-3.092 4.758-1.35-.274-1.869-2.663-2.102-3.659-.24-1.034-.418-2.087-.592-3.135-.053-.279-.059-1.388-.367-1.571.257.149.552.189.841.25z" fill="#fff"/><path d="M9.866 100.356a3.72 3.72 0 0 1-.436-.043c-2.02-.406-2.645-3.108-2.945-4.405-.272-1.148-.449-2.213-.629-3.279-.017-.087-.029-.236-.047-.41-.014-.148-.041-.472-.074-.646a1.121 1.121 0 0 1-.111-1.283 1.124 1.124 0 0 1 1.529-.402c.053.035.232.07.359.096.318.061.492.105.658.165.262.096.518.236.768.376.158.087.31.179.492.236.291.096.588.205.885.314.379.14.76.271 1.139.389l.354.092c.551.131 1.301.319 1.838.908.746.82.389 1.747.238 2.14l-.168.506c-.498 1.702-1.531 5.246-3.85 5.246zM8.124 92.62c.15.899.309 1.799.522 2.69.547 2.384 1.023 2.76 1.215 2.812.144-.052.781-.463 1.711-3.641l.102-.345c.025-.092.061-.179.096-.275a4.252 4.252 0 0 0-.494-.131c-.156-.044-.312-.079-.457-.122-.424-.131-.848-.28-1.268-.433-.273-.1-.549-.196-.824-.293a3.5 3.5 0 0 1-.603-.262z" fill="#757f3f"/></g><path d="M52.972 109.544c-.219-1.52-2.754-7.231-.621-8.252 1.041-.489 2.141.664 2.74 1.231 1.096 1.048 2.09 1.947 3.371 2.759" fill="#2f201b"/></g></g><path d="M63.845 36.978c.57 0 1.146.018 1.719.053 6.729.428 13.768 1.51 20.914 3.222.859.209 1.738.454 2.631.698 2.926.803 6.232 1.712 9.746 1.712h.078c.006.262.027.48.055.637.25 1.786 1.572 5.877 8.416 6.235a6.205 6.205 0 0 0-.023 1.742c.387 3.047 2.613 4.537 4.316 5.349-1.018 1.375-1.445 3.057-1.16 4.737.256 1.523.99 2.667 1.898 3.537-.24.004-.502.004-.781.004h-.266c-1.154 0-2.289.018-3.537.228-2.484.41-4.029 1.93-4.857 2.742-.104.1-.203.209-.312.306-.43.262-.865.567-1.303.873a25.22 25.22 0 0 1-1.072.725h-.254c-.641.013-1.524.026-2.549.262-2.938.664-5.248 2.253-7.283 3.65-.918.638-1.791 1.231-2.502 1.585-.443.222-1.055.467-1.703.725-.773.31-1.562.633-2.33.991l-2.621 1.275c-3.506-4.506-10.074-6.938-14.215-7.51a21.372 21.372 0 0 0-2.576-.206l-.424-.004c-6.715 0-14.172 2.584-22.16 7.688-2.199 1.401-4.02 3.104-5.631 4.598-.506.48-1.018.952-1.541 1.423-3.012 2.689-6.217 4.383-10.723 5.65-1.607.454-3.441.699-5.301.699-2.852 0-5.654-.559-7.891-1.563-2.703-1.214-4.574-3.274-4.627-4.043.004-.052.061-.379.584-1.345 1.162-2.174 1.258-3.851 1.258-5.658 0-1.721.471-3.074 1.396-4.035.725-.747 1.742-1.091 3.637-1.686 1.244-.393 2.66-.838 4.152-1.545 3.742-1.791 6.82-4.405 9.543-6.715l.312-.271c3.693-3.126 4.902-6.894 5.545-9.824.545-2.479 1.914-5.309 3.748-7.746 3.211-4.27 7.267-6.82 10.851-6.82.686 0 1.358.004 2.021.018h.224c2.104 0 4.199-.647 6.049-1.223.865-.271 1.848-.576 2.371-.655 2.348-.349 4.365-.515 6.178-.515m2.984 63.868c-.148.166-.297.323-.445.489-1.711 1.86-3.365 3.667-5.082 5.313 1.332-2.685 2.89-4.336 5.527-5.802m-2.984-69.457c-2.342 0-4.682.236-6.986.577-2.254.327-5.426 1.816-7.609 1.816h-.102c-.703-.013-1.414-.018-2.145-.018-5.934 0-11.496 3.964-15.32 9.047-2.332 3.109-4.018 6.627-4.736 9.911-.594 2.707-1.541 4.934-3.703 6.759-2.633 2.235-5.436 4.663-8.649 6.2-3.285 1.563-6.732 1.642-9.393 4.384-2.1 2.174-2.973 4.995-2.973 7.929 0 1.327-.031 1.964-.6 3.03-.707 1.293-1.336 2.742-1.23 4.279.262 4.035 4.633 7.361 7.906 8.837 3.035 1.363 6.629 2.052 10.188 2.052 2.348 0 4.676-.301 6.818-.908 4.961-1.397 9.074-3.415 12.928-6.863 2.115-1.886 4.066-3.947 6.459-5.476 5.52-3.527 12.461-6.811 19.15-6.811h.332c.637.017 1.27.07 1.898.157 5.016.69 15.094 5.362 10.676 11.684-2.664 3.816-7.064 5.257-11.074 7.178-4.631 2.227-7.48 4.925-9.662 9.588-.955 2.044-1.99 3.511-3.912 4.751-1.654 1.065-4.121 1.572-6.492 1.572-1.631 0-3.221-.235-4.475-.707-2.912-1.101-3.396-2.698-4.246-5.545-.268-.895-.885-1.257-1.588-1.257-1.541 0-3.51 1.729-3.16 3.371.807 3.799 3.527 8.444 7.479 9.449a38.262 38.262 0 0 0 9.244 1.17c4.441 0 8.906-.882 12.143-3.301 6.645-4.951 11.32-12.068 17.752-17.316 2.842-2.314 5.484-5.039 6.732-8.558.742-2.061.646-4.2.564-6.317 1.396-.66 2.906-1.157 4.131-1.76 2.807-1.389 5.479-4.113 8.543-4.803.992-.218 2.018-.008 2.996-.288 1.432-.401 2.719-1.554 3.977-2.323 1.145-.708 1.834-2.035 3.057-2.235.855-.14 1.74-.149 2.625-.149h.266c.793 0 1.584-.004 2.357-.104a56.51 56.51 0 0 0 5.58-1.057c1.803-.445 3.453-1.362 4.82-2.593.742-.664 1.162-1.222 1.117-2.235-.049-1.092-.152-.926-1.109-1.118-1.838-.367-3.52-.506-5.309-1.188-.898-.34-4.248-1.266-2.643-2.532.748-.585 2.586-.585 3.539-1.039 1.182-.567 2.348-1.31 3.299-2.218.781-.751 3.18-3.658 1.398-4.497a1.2 1.2 0 0 0-.477-.087c-.846 0-2.023.638-2.693.769-.664.126-1.424.192-2.209.192-1.4 0-2.873-.209-3.992-.681-1.867-.777-3.562-1.284-1.4-2.895 1.75-1.301 4.898-3.357 4.52-5.96-.105-.734-.734-.97-1.52-.97-1.234 0-2.869.594-3.461.822-.984.366-2.016.549-3.059.62-.725.043-1.455.253-2.174.253h-.066c-.965-.018-3.467-.114-3.652-1.446-.107-.746.994-.973 1.475-1.261 1.457-.883 2.777-2.101 3.662-3.564.428-.708 1.879-3.886.783-4.602a.396.396 0 0 0-.221-.061c-.5 0-1.238.786-1.682.908-.766.218-1.506.506-2.234.829-1.156.507-2.27 1.24-3.461 1.659-1.307.455-2.643.638-3.988.638-3.727 0-7.535-1.406-11.076-2.253-7.141-1.712-14.529-2.899-21.859-3.366a30.588 30.588 0 0 0-2.074-.069z" fill="#757f3f"/><path d="M110.819 34.768c-.852 3.057-3.686 5.781-6.473 6.938-1.213.502-2.926 1.454-4.299 1.227-.117-.681.014-1.214-.262-1.825-.389-.86-.826-1.354-1.746-1.458-.904-.105-1.77-.485-2.682-.524-.572-.018-1.035.131-1.629.008-.764-.162-1.477-.489-2.23-.689-1.812-.489-3.676-1.043-5.576-.908-1.584.105-2.738-.201-4.143-1.039-.746-.446-1.078-.978-1.148-1.826-.035-.471-.035-1.196.424-1.405.281-.127.855.083 1.121.148 3.07.781 6.439.873 9.584 1.117 4.867.376 9.334-.043 13.994-1.484a52.86 52.86 0 0 0 2.463-.839c.191-.078.471-.196.775-.305.564-.192 1.219-.341 1.607-.079.471.315.488 1.485.416 2.018-.043.31-.11.62-.196.925z" fill="#757f3f"/><path d="M75.925 37.213c.021.009.045.009.065.018 1.307.327 2.543 1.03 3.918 1.083 1.24.043 2.367.279 3.576.367 2.199.148 4.418.183 6.662.183h5.59c.379 0 5.879-.432 5.893-.392.18.528-.393.873-.715 1.195-1.457 1.459-2.555 3.996-1.572 5.965.814 1.632 2.41 2.335 4.143 2.558.809.104 1.682.314 2.484.297 1.162-.026 2.336-.179 3.49.043.139.69-1.438 1.633-1.73 2.262-1.537 3.291 1.979 4.851 4.414 5.497.328.087 1.301.223 1.494.489.598.833-.986 1.271-1.367 1.642-.957.93-2.24 2.222-1.703 3.68.686 1.887 2.436 3.122 4.24 3.825.838.332 1.781.398 2.633.708.355.131.994.297 1.053.738.096.729-.979.929-1.469 1.113-.549.21-1.309.341-1.789.664-.477.323-.756.869-1.289 1.153-.342.183-.707.148-1.113.14-4.146-.096-4.574-4.611-5.535-7.667-1.367-4.34-3.061-9.038-7.043-11.614-1.547-.995-2.947-1.698-4.566-2.567-2.887-1.545-6.092-2.75-9.266-3.532-1.982-.489-3.799-.816-5.588-1.786-1.971-1.056-4.193-1.528-6.145-2.698-.977-.585-2.188-1.606-1.973-2.908.274-1.713 2.182-.691 3.208-.456z" fill="#757f3f"/><g fill="#2f2f2f"><path d="M28.407 75.985c1.354 1.965.617 5.064-2.664 5.257-1.451.079-5.566.393-5.861-1.563-.49-3.31 3.152-5.527 5.797-5.257 1.25.14 2.166.76 2.728 1.563z"/><path d="M6.327 75.199c-1.662 3.162 1.367 5.397 3.883 5.493 3.846.165 2.664-5.004.445-6.654-1.742-1.302-3.498-.393-4.328 1.161z"/></g><path d="M26.831 104.278c-2.207.829-4.152 2.052-5.588 4.671-1.41 2.55-1.961 5.405-2.096 8.295-.074 1.633.283 5.72 3.088 3.362 1.051-.891 1.723-2.847 2.273-4.043a12.788 12.788 0 0 1 2.83-3.956c4.75-4.523 11.781-4.261 17.604-6.933 5.117-2.349 7.353-7.667 10.355-12.051a14.66 14.66 0 0 1 4.812-4.427c1.498-.856 4.77-1.18 5.791-2.559.457-.62.594-1.642.486-2.393-.146-1.022-1.016-1.563-1.863-2.008-1.018-.541-2.354-.795-3.496-.786-6.086.035-13.223 2.698-16.539 7.99-.936 1.484-2.293 2.689-2.979 4.322-1.611 3.842-4.025 6.942-8.051 8.444-2.316.875-4.586 1.303-6.627 2.072z" fill="#fcc21b"/><path d="M114.601 69.733a2.587 2.587 0 0 0-.08.122c-.555 1.03.74 2.196.123 3.257-.467.804-1.266 1.681-2.021 2.227-.742.537-1.645.891-2.461 1.301-1.342.681-2.744 1.223-4.166 1.686-2.086.69-4.039 1.703-6.1 2.454-2.324.851-4.762 1.052-7.164 1.563-.879.184-1.57.769-2.41.961-.957.218-2.217-.192-3.074-.594-.363-.174-.826-.332-1.01-.707-.229-.467-.195-1.232-.227-1.747-.031-.462-.309-1.567-.734-1.808-.969-.559-.99.638-1.34 1.318-.18.35-.432.69-.625 1.022-.166.289-.414.725-.74.463-.144-.114-.297-.655-.391-.83-.65-1.205-1.096-2.393-1.934-3.484-.791-1.03-1.736-2.209-.537-3.362 1.873-1.791 4.625-2.803 7.199-3.148 2.713-.367 5.359-.524 8.043-1.083 2.357-.493 3.855-2.336 6-3.31.982-.45 2.008-.738 3.008-1.131.301-.122.562-.288.887-.349.467-.087.912-.035 1.361-.227.367-.158.777-.332 1.127-.502.438-.214.879-.589 1.377-.659.438-.062.902-.07 1.33-.105.965-.087 1.135.375 1.715.982.695.72 1.447 1.209 2.332 1.655.904.445 2.057.288 2.869.943.711.576.393 1.113-.139 1.641-.586.577-1.73.765-2.218 1.451z" fill="#757f3f"/><path d="M25.278 54.678c.156-.472.312-.948.457-1.423.193-.637.08-.795-.191-1.389-.672-1.502.943-2.978 1.385-4.323.17-.515.047-1.144.078-1.681.049-.887.274-1.707.908-2.354.58-.594 1.48-.384 2.025-.96.803-.839.035-2.655.965-3.646.498-.529 1.527-1.087 2.244-1.166.742-.078 1.481-.245 2.227-.174.812.079 1.773.061 2.584.218-.025.672-.672 1.501-.906 2.201-.275.82-.363 1.546-.236 2.375.127.847.064 1.441-.525 2.148-1.566 1.882-3.832 4.196-4.387 6.654-.119.551-.34 1.292-.707 1.729-.271.318-.635.489-.891.855-.537.786-.713 1.772-1.043 2.646-.355.943-.607 1.978-.596 2.978.016.86-.188 1.144-.934 1.633-.578.384-1.258.584-1.816 1.083-.945-.31-1.008-1.677-1.199-2.497-.236-.987-.221-2.183.043-3.205.148-.576.326-1.138.515-1.702z" fill="#757f3f"/><path d="M38.761 42.724c0-.052.004-.101.016-.148.264-1.232 1.834-2.729 2.586-3.703 1.42-1.833 2.852-3.851 3.414-6.313.908-3.912-1.131-7.728-1.69-11.492-.279-1.921-3.76-8.951-1.266-10.252 5.037-2.646 3.852 8.41 6.627 9.702 5.08 2.375 9.588-14.443 11.518-17.596.494-.821.891-1.921 2-1.965 1.506-.053 2.084 1.258 2.25 2.838.213 1.938-.543 3.345-1.096 5.117-1.115 3.502-2.646 6.742-3.891 10.156a202.752 202.752 0 0 1-5.594 13.859 181.2 181.2 0 0 1-3.4 7.151c-.904 1.79-1.738 4.139-3.293 5.493-1.215 1.057-2.785.917-4.242.515-1.015-.271-3.988-2-3.939-3.362z" fill="#f79329"/><path d="M64.009 38.798c.391-1.349 1.963-2.218 3.109-2.877 2.074-1.213 4.248-2.584 5.672-4.68 2.254-3.345 1.437-7.684 2.135-11.448.354-1.895-.852-9.806 2.166-10.103 6.1-.62 1.131 9.334 3.566 11.587 4.428 4.113 14.789-10.05 17.85-12.295.795-.585 1.584-1.484 2.738-1.118 1.57.507 1.725 1.957 1.361 3.502-.441 1.903-1.686 2.951-2.869 4.41-2.33 2.89-5.012 5.37-7.453 8.121-4.1 4.637-8.4 9.09-12.932 13.304-1.951 1.812-3.855 3.602-5.668 5.506-1.633 1.711-4.938 2.588-6.895.995-1.199-.978-2.754-2.445-2.867-4.104-.017-.28.013-.551.087-.8z" fill="#f79329"/><g><path d="M97.069 74.02c.367-.916 1.076-1.808 1.543-2.462 1.076-1.511-.844-1.554-1.857-2.262-.682-.471-1.584-.681-2.34-1.057-.541-.262-2.219-.62-2.096-1.432.064-.384.529-.987.805-1.257.418-.415.926-.734 1.4-1.083.391-.289 1.1-.634 1.297-1.118.262-.646-.629-.76-1.156-.908a21.61 21.61 0 0 0-1.852-.41c-1.629-.297-3.24-.699-4.863-.978-.834-.148-2.615-.288-2.936-1.362-.139-.472.471-1.319.734-1.685.449-.62.951-1.188 1.402-1.817.475-.667 1.061-1.231 1.645-1.816.412-.41 1.119-.881.957-1.51-1.07-.244-2.236-.349-3.332-.445-2.057-.175-4.332-.061-6.344-.454-1.717-.332-3.455-.996-5.191-1.38-1.682-.366-3.406-1.021-4.945-1.389-1.699-.401-3.777-.541-5.49-.742-2.059-.244-3.924-.943-5.969-1.222-2.377-.323-4.58.733-6.803 1.415-2.959.912-5.846 1.597-8.959 1.126-2.021-.306-5.676-1.245-6.98-2.877-3.996-5 2.623-11.645 7.064-13.626 1.615-.725 3.174-1.572 4.771-2.332 2.223-1.048 4.375-2.301 6.715-3.073.918-.306 2.021-.996 3.014-.891.955.096 1.729 1.008 1.223 1.947-.486.899-1.363 1.711-2.066 2.401-.633.625-1.152 1.817-1.256 2.655-.145 1.196.877.978 1.68.768 1.311-.35 2.539-.921 3.828-1.362a91.69 91.69 0 0 1 2.098-.681c.594-.192 1.41-.611 2.037-.55.648.052 1.275.349 1.943.41.918.079 1.855.018 2.777.018.52 0 1.354-.157 1.799.14-.764.603-1.48 1.17-2.156 1.895-1.205 1.284-2.605 2.847-2.977 4.637-.936 4.506 7.939 1.838 10.119 1.284 1.512-.384 2.934-1.03 4.453-1.397 1.438-.354 2.686-.271 4.127-.445.816-.101 1.295-.472 2.227-.384 3.75.357 2.287 4.025.385 5.449-.869.646-1.709 1.257-2.52 1.965-.424.366-1.176.82-1.385 1.362.982.218 2.039.174 3.061.166 1.389 0 2.777.236 4.162.288 1.148.036 2.4.324 3.531.586.699.165 1.395.393 2.086.628.518.174.928.279 1.293.698.516.594.303.847-.174 1.432-.936 1.144-1.918 2.384-2.943 3.493-.445.485-.812 1.004-1.219 1.546-.287.384-.588 1.013-.99 1.284.025.297 1.824.655 2.209.768.936.28 1.887.532 2.836.768.766.201 1.49.542 2.207.839.791.323 1.582.567 2.371.917.852.375 2.117.987 1.666 2.122-.453 1.126-1.73 1.838-2.648 2.523-.396.288-.801.585-.904 1.1-.166.891 2.562 1.38 3.141 1.581.873.306 2.645 1.03 2.41 2.218-.252 1.249-2.357 2.332-3.307 3.021-.807.594-5.09 4.166-5.531 2.559-.141-.519-.043-1.06.173-1.602z" fill="#757f3f"/></g><path d="M52.845 49.518c-1.758 1.676-3.156 3.746-4.375 5.842-1.146 1.982-2.713 5.344-1.68 7.492 1.893.367 3.594-.734 5.16-1.624.891-.498 1.852-.856 2.738-1.354.689-.384 1.143-.908 1.742-1.406.4-.341.896-.542 1.322-.829.578-.393 1.146-.948 1.697-1.402.455-.371 1.812-1.091 1.84-1.725.031-.681-1-.733-1.484-.777-.084-1.332 2.586-1.746 2.182-3.292-.842-.149-1.707-.096-2.553-.245-.148-.856.951-1.493 1.418-2.061.438-.524 1.193-1.847.947-2.537-.719-.118-1.154.162-1.824.301-.607.131-1.18.104-1.725.366-.834.394-1.619.926-2.432 1.354-1.079.573-2.083 1.049-2.973 1.897z" fill="#757f3f"/><g><path d="M58.899 56.394l-11.373 6.492c1.625 3.432 5.611 5.283 9.061 4.183 3.562-1.153 5.193-5.004 3.65-8.61-.328-.777-.799-1.458-1.338-2.065z" fill="#fcc21b"/></g><path d="M29.185 52.163c.144.262.279.506.367.733.312.821.633 1.615.996 2.419.873 1.93 1.674 3.955 3.07 5.58 2.828 3.292 3.896-3.074 4.111-4.89.342-2.934.9-12.26-3.275-13.238-1.4-.332-.947 4.175-.934 4.952-.645-.415-2.559-2.743-2.615-.655-.018.716-.08 1.519 0 2.236.074.624.275 1.161.158 1.842-.865-.244-1.525-1.335-2.359-.882-.226.602.145 1.292.481 1.903z" fill="#757f3f"/><path d="M29.626 54.015a6.545 6.545 0 0 0-1.484 2.017c-1.354 2.882-.752 6.34 1.332 7.737 1.816 1.209 4.182.446 5.65-1.703l-5.498-8.051z" fill="#fcc21b"/><path d="M115.976 69.418c-.686.559-1.219 1.24-1.35 2.245-.205 1.528.896 2.541 1.498 3.812.371.781.475 1.698 1.004 2.397.656.873 2.594 2.663 3.158.646.514-1.865-.939-3.965-1.289-5.738-.564-2.855 1.348-3.217 3.707-4.209 1.314-.545 5.863-2.463 4.729-4.746-.514-1.043-4.645-.751-5.699-.904-.125-.017-2.684-.341-2.691-.358.609 1.275 1.471 1.537 1.055 3.144-.503 1.912-2.66 2.532-4.122 3.711z" fill="#757f3f"/><path d="M53.335 110.359c.543.122 1.16.092 1.684.048 1.887-.17 3.914-1.694 3.416-3.843-.17-.729-.777-1.248-1.219-1.816-.551-.698-1.029-1.432-1.633-2.096-.547-.594-1.166-1.236-1.856-1.659-.283-.174-.502-.218-.838-.183-1.604.14-1.402 1.589-1.326 2.785.061.926.098 1.86.176 2.786.066.908 0 2.275.385 3.104.236.503.691.757 1.211.874z" fill="#fff"/></g></svg>