<svg id="レイヤー_1" xmlns="http://www.w3.org/2000/svg" viewBox="0 0 128 128"><g><path d="M81.081 10.965s3.25.968 5.545 1.97l30.029 42.92s.381 1.437.34 5.724l-5.746 10.963L63.86 41.628l-1.551-21.01 18.772-9.653z" fill="#2f2f2f"/><path d="M46.757 10.64s-2.459.681-5.688 1.87L9.997 55.557s-.359 2.504-.375 5.809l6.137 8.192 25.664-16.354 19.096-20.648-2.389-17.904-11.373-4.012z" fill="#2f2f2f"/><g><path d="M115.782 61.655c-8.869 0-12.533-9.113-14.721-14.558-.342-.868-.656-1.656-.963-2.306-1.461-3.122-4.264-4.777-8.729-7.218-.732-.402-1.467-.806-2.197-1.22-2.74-1.565-4.879-3.199-6.525-4.99-3.205-3.525-4.615-7.699-4.186-12.433.252-2.843 1.201-5.55 2.619-7.967-3.02-.871-10.03-2.673-17.417-2.673-6.533 0-13.314 1.411-16.906 2.35 1.527 2.495 2.527 5.327 2.791 8.304.42 4.722-.996 8.896-4.203 12.421-1.639 1.802-3.771 3.436-6.518 4.99-.726.414-1.459.817-2.185 1.22-4.467 2.44-7.264 4.096-8.729 7.218-.309.649-.629 1.454-.975 2.316-2.188 5.444-5.852 14.547-14.766 14.547-.891 0-1.734-.122-2.551-.29-.012 1.297-.061 2.585.004 3.883.851 16.349 6.166 33.167 17.855 43.629 9.459 8.46 22.781 12.779 35.83 12.747 13.049.032 26.369-4.287 35.824-12.747 11.699-10.462 17.01-27.28 17.859-43.629.062-1.231.018-2.451 0-3.67-.394.031-.797.076-1.211.076z" fill="#f79329"/><path d="M12.194 55.926h.033c6.063 0 8.545-9.41 10.492-13.561 2.697-5.764 8.123-8.057 13.275-10.988 1.977-1.12 3.754-2.372 5.127-3.872 1.906-2.104 3.016-4.678 2.719-8.057-.229-2.529-1.254-4.924-2.771-6.938-1.895-2.508-4.564-4.433-7.637-5.227-2.422-.615-4.76-.906-7.004-.906C8.62 6.377-2.878 24.778 1.2 42.655c.981 4.308 3.916 11.223 8.797 12.901a6.78 6.78 0 0 0 2.197.37z" fill="#f79329"/><path d="M101.575 6.377c-2.244 0-4.582.291-7.004.906-3.246.839-6.049 2.932-7.945 5.651-1.348 1.925-2.244 4.161-2.463 6.513-.301 3.379.807 5.953 2.717 8.057 1.375 1.5 3.164 2.752 5.135 3.872 5.146 2.932 10.572 5.225 13.275 10.988 1.941 4.151 4.428 13.561 10.492 13.561h.023c.289 0 .574-.033.85-.071 5.697-.745 9.074-8.511 10.143-13.199 4.078-17.877-7.412-36.278-25.223-36.278z" fill="#f79329"/><g><path d="M37.003 81.204c-3.787-.033-6.848-3.581-6.814-7.944.012-4.354 3.105-7.866 6.875-7.844 3.777.022 6.832 3.581 6.811 7.933-.017 4.365-3.112 7.855-6.872 7.855zm40.615 25.749c-.336.806-1.141 1.287-1.729 1.64l-.27.162c-2.914 1.746-7.295 1.499-10.301.09l-.316-.146c-.416-.202-.607-.286-.863-.286-.42.039-.814.207-1.176.353-.279.123-.553.234-.811.325-2.912.923-6.102 1.521-9.053.413-.822-.313-1.916-.95-2.524-1.802-.441-.604-.605-1.409-.432-2.086a1.944 1.944 0 0 1 1.062-1.293c1.053-.514 2.223-.067 2.982.336 1.869 1.007 5.098 1.073 6.654-.582.535-.571.787-1.398.738-2.456-.006-.095 0-.186-.006-.274-1.572-.067-3.09-.324-4.57-.861-4.572-1.656-5.859-5.842-4.023-9.735a9.918 9.918 0 0 1 .973-1.611c1.953-2.541 5.148-3.693 8.812-3.861 4.248-.201 9.818 1.343 12.045 5.025 1.449 2.406.785 6.088-1.063 8.169-1.695 1.925-4.744 2.474-7.541 2.708-.023.984-.023 2.048.367 2.73l.623.503c1.783 1.227 4.598 1.478 6.545.37l.33-.19c.297-.168.594-.336.93-.459.9-.348 1.916-.066 2.422.706.414.591.48 1.407.195 2.112zm13.283-25.749c-3.762 0-6.85-3.49-6.859-7.855-.029-4.352 3.025-7.91 6.797-7.933 3.775-.022 6.859 3.49 6.896 7.844.02 4.363-3.047 7.911-6.834 7.944z" fill="#2f2f2f"/></g></g></g></svg>