<svg id="レイヤー_1" xmlns="http://www.w3.org/2000/svg" viewBox="0 0 128 128"><g><g><path d="M120.739 54.672c-2.234-1.233-5.193-1.94-7.729-1.684-2.756-10.672-8.588-20.729-16.541-27.63-8.568-7.444-20.641-11.246-32.467-11.216-11.822-.03-23.9 3.772-32.471 11.216-7.955 6.9-13.785 16.958-16.543 27.63-2.529-.262-5.488.446-7.73 1.684-6.272 3.465-7.713 11.78-6.232 18.745C2.21 78.965 5.42 83.134 12.04 84.792a10.27 10.27 0 0 0 3.449.262c1.848 5.831 4.941 11.177 9.826 15.603 5.811 5.257 13.049 8.82 20.496 10.756 2.838.737 10.158 2.445 17.83 2.445 7.678 0 15.713-1.708 18.543-2.445 7.455-1.936 14.688-5.499 20.502-10.756 4.891-4.426 7.979-9.771 9.828-15.603 1.008.09 2.166.06 3.441-.262 6.619-1.658 9.842-5.827 11.02-11.375 1.477-6.965.044-15.28-6.236-18.745z" fill="#855c52"/></g><path d="M6.507 69.818c-.715-7.444 4.045-9.237 7.172-9.618-.15 1.184-.318 2.361-.381 3.545-.277 4.964-.145 9.943.633 14.726-4.252.574-6.889-3.079-7.424-8.653z" fill="#fcc21b"/><path d="M85.759 100.002c-6.455 3.297-14.375 4.56-21.756 4.411-7.385.148-15.299-1.114-21.764-4.411-6.539-3.336-13.068-9.285-12.592-18.106.172-3.228 1.736-6.227 2.141-9.444.418-3.385.377-7.791-.514-11.077-1.139-4.228-1.688-8.465-.123-12.643 1.668-4.479 4.633-8.315 8.855-9.85 1.504-.545 3.158-.495 4.711-.624 6.699-.54 12.609 6.697 19.285 6.479 6.672.218 12.578-7.02 19.279-6.479 1.551.129 3.209.079 4.709.624 4.223 1.534 7.191 5.37 8.865 9.85 1.553 4.178 1.014 8.415-.125 12.643-.896 3.286-.939 7.692-.52 11.077.4 3.218 1.971 6.217 2.139 9.444.476 8.821-6.047 14.77-12.59 18.106z" fill="#fcc21b"/><path d="M121.497 69.818c-.535 5.573-3.178 9.227-7.426 8.652.777-4.782.918-9.762.639-14.726-.066-1.184-.238-2.361-.381-3.545 3.127.393 7.879 2.179 7.168 9.619z" fill="#fcc21b"/><path d="M82.521 80.678c-6.281-2.158-19.734-2.297-28.564-1.267C32.69 81.896 39.81 91.275 52.595 94.84c3.879 1.084 8.918 1.747 14.586 1.381 9.277-.595 12.574-2.376 15.836-4.559 5.252-3.5 7.136-8.36-.496-10.984z" fill="#ed6c30"/><path d="M48.319 68.354c3.398 0 6.156-3.327 6.156-7.425 0-4.108-2.758-7.431-6.156-7.431-3.393 0-6.154 3.322-6.154 7.431 0 4.097 2.762 7.425 6.154 7.425z" fill="#2f2f2f"/><path d="M79.685 68.354c3.395 0 6.152-3.327 6.152-7.425 0-4.108-2.758-7.431-6.152-7.431-3.406 0-6.152 3.322-6.152 7.431-.001 4.097 2.745 7.425 6.152 7.425z" fill="#2f2f2f"/><path d="M61.513 74.748a5.914 5.914 0 0 0 3.199.515c2.029-.218 2.752-.881 3.463-1.692 1.145-1.297 1.561-3.104-.105-4.079-1.379-.797-4.328-.851-6.254-.465-4.663.92-3.102 4.405-.303 5.721z" fill="#2f2f2f"/></g></svg>