<svg id="レイヤー_1" xmlns="http://www.w3.org/2000/svg" viewBox="0 0 128 128"><g fill="#78a3ad"><path d="M59.684 32.893c6.614 4.455 12.473-2.956 11.536-10.177-.327-2.485-1.272-4.771-2.848-6.506-2.582-2.861-7.96-3.16-9.925-.145-3.177 4.854-4.472 12.976 1.237 16.828z"/><path d="M41.498 26.962c7.053 3.64 12.237-4.482 10.626-11.612-.549-2.44-1.708-4.623-3.446-6.17-2.853-2.558-8.249-2.205-9.95 1.05-2.745 5.242-3.284 13.563 2.77 16.732z"/><path d="M10.477 25.885c-3.138-1.983-8.113.38-9.362 4.016-.759 2.214-.707 4.668.018 7.08 2.169 6.985 10.843 11.462 15.252 4.803 3.807-5.708-.847-12.685-5.908-15.899z"/><path d="M30.587 29.43c4.16-5.17.263-12.613-4.359-16.411-2.865-2.34-7.878-.639-9.39 2.798-.919 2.069-1.064 4.523-.557 6.981 1.493 7.139 9.498 12.644 14.306 6.632z"/><path d="M60.608 46.471c-2.224-7.153-10.256-10.25-15.878-10.961-8.376-1.045-17.487 3.409-21.618 12.206-1.657 3.536-4.006 9.779-1.779 13.772 3.079 5.474 10.824 1.97 14.541-.013 4.41-2.391 7.924-4.5 12.994-3.694l.544.091c6.4.836 14.369-1.243 11.196-11.401z"/><path d="M67.705 87.057c-3.317-1.408-7.604 1.847-8.152 5.664-.335 2.313.158 4.735 1.276 6.981 3.251 6.515 12.25 9.389 15.252 2.001 2.586-6.384-3.028-12.396-8.376-14.646z"/><path d="M87.848 86.627c3.259-6.007-1.829-12.613-7.044-15.429-3.224-1.748-7.9.973-8.847 4.69-.571 2.255-.312 4.709.598 7.04 2.643 6.813 11.486 10.657 15.293 3.699z"/><path d="M126.927 72.394c-.752-2.409-2.073-4.473-3.935-5.885-3.074-2.323-8.513-1.503-10.006 1.896-2.4 5.492-2.372 13.88 3.977 16.488 7.379 3.061 12.074-5.5 9.964-12.499z"/><path d="M98.278 82.584c7.343 2.295 10.92-6.741 8.162-13.496-.95-2.322-2.444-4.278-4.359-5.487-3.169-2.001-8.28-.616-9.349 2.929-1.707 5.732-.793 14.08 5.546 16.054z"/><path d="M114.694 93.572c-8.334-4.994-18.386-3.595-24.75 1.951-4.266 3.73-9.204 10.784-7.05 17.955 3.048 10.2 10.82 7.475 15.655 3.201l.407-.38c3.752-3.49 7.841-3.708 12.835-4.183 4.188-.434 12.576-1.856 12.064-8.108-.367-4.564-5.81-8.43-9.161-10.436z"/></g></svg>