<svg id="レイヤー_1" xmlns="http://www.w3.org/2000/svg" viewBox="0 0 128 128"><g><g><path d="M127.555 66.022c-.514-8.7-2.975-17.527-7.008-25.546.139-.184.271-.369.404-.559l.389-.559c.902-1.416 1.611-2.947 2.236-4.501 2.881-7.209 2.943-15.267-.688-21.163-2.562-4.174-12.734-14.985-28.77-5.845-3.783 2.159-7.289 2.297-9.289 2.139a71.71 71.71 0 0 0-20.836-3.055c-7.68-.016-15.432 1.215-22.625 3.619-2.023.138-5.469-.045-9.15-2.153C16.184-.742 6.016 10.076 3.438 14.25 2.33 16.054 1.5 18.248 1.07 20.319c-.812 3.942-.473 8.33.676 12.176.615 2.05 1.527 3.983 2.492 5.9.625 1.267 1.272 2.528 2.061 3.691.082.129.139.247.215.369C3.049 49.94.905 58.03.444 66.022-.51 82.29 2.348 98.675 15.506 109.995c7.291 6.264 16.354 10.515 25.697 12.807 3.555.882 12.723 2.917 22.354 2.917 9.613 0 19.693-2.035 23.24-2.917 9.342-2.291 18.406-6.543 25.695-12.807 13.154-11.32 16.026-27.705 15.063-43.973z" fill="#855c52"/><path d="M28.25 78.901c-3.73 0-6.762-3.619-6.762-8.095 0-4.475 3.031-8.105 6.762-8.105 3.738 0 6.768 3.63 6.768 8.105 0 4.476-3.03 8.095-6.768 8.095z" fill="#2f2f2f"/><path d="M63.676 109.123c-13.406 0-24.26-4.851-24.26-19.763 0-14.919 10.854-27.008 24.26-27.008 13.4 0 24.283 12.089 24.283 27.008 0 14.913-10.883 19.763-24.283 19.763z" fill="#fff"/><path d="M99.031 78.901c-3.723 0-6.764-3.619-6.764-8.095 0-4.475 3.041-8.105 6.764-8.105 3.742 0 6.767 3.63 6.767 8.105.001 4.476-3.025 8.095-6.767 8.095z" fill="#2f2f2f"/><path d="M63.676 89.037c6.357 0 11.518-4.147 11.518-9.274 0-5.127-5.16-9.274-11.518-9.274s-11.5 4.148-11.5 9.274c0 5.127 5.142 9.274 11.5 9.274z" fill="#2f2f2f"/><path d="M73.939 94.872c-.133.179-3.154 4.342-10.264 4.342-7.064 0-10.09-4.127-10.232-4.337a2.228 2.228 0 0 0-3.678 2.513c.17.256 4.363 6.274 13.91 6.274 9.557 0 13.75-6.018 13.928-6.274a2.216 2.216 0 0 0-.578-3.071c-.994-.699-2.388-.442-3.086.553z" fill="#2f2f2f"/></g><path d="M29.625 21.201c-1.271 1.343-3.219 2.542-4.152 3.383-2.082 1.882-3.65 4.352-5.121 6.71-2.129 3.41-4.836 1.318-6.303-1.343-.174-.302-.32-.61-.461-.918a10.626 10.626 0 0 1-.83-4.101c0-5.685 4.547-10.289 10.15-10.289 1.924 0 4.205.753 5.906 1.768.174.104.379.195.533.303 2.215 1.473 1.632 3.056.278 4.487z" fill="#b89278"/><path d="M113.707 29.034a2.464 2.464 0 0 1-.18.375c-1.385 2.901-4.307 5.52-6.582 1.886-1.476-2.358-3.041-4.829-5.117-6.71-.932-.841-2.891-2.04-4.162-3.383-1.352-1.431-1.928-3.015.277-4.486.268-.179.584-.339.896-.507 1.666-.909 3.758-1.564 5.541-1.564 5.609 0 10.152 4.604 10.152 10.289a10.496 10.496 0 0 1-.825 4.1z" fill="#b89278"/></g></svg>