<svg xmlns="http://www.w3.org/2000/svg" viewBox="0 0 128 128"><g id="图层_1"><g><path d="M122.507 46.949a75.873 75.873 0 0 0-.867-2.217c-.107-.26-.209-.521-.319-.779-9.826-23.257-27.597-31.008-35.893-33.431-.703-.085-1.114-.188-1.114-.188v.048A69.417 69.417 0 0 0 65 7.611h-.287c-6.677 0-13.419.972-19.758 2.869-24.487 7.241-34.317 26.841-37.607 35.773-.044.381-.112.606-.112.606l.01-.005c-2.184 5.888-3.537 12.042-3.889 18.138-.928 15.803 1.844 31.719 14.578 42.706 7.053 6.085 15.824 10.209 24.861 12.441 3.441.858 12.318 2.829 21.633 2.829 9.309 0 19.055-1.97 22.49-2.829 9.043-2.232 17.812-6.357 24.867-12.441 12.734-10.987 15.5-26.903 14.578-42.706-.355-6.062-1.692-12.187-3.857-18.043z" fill="#e0e0e0"/><path d="M54.443 67.917c1.035-5.2-1.588-11.125-6.269-13.73-6.688-3.714-14.781-2.483-20.775 1.902-3.469 2.53-7.674 6.367-9.879 10.092-3.869 6.537-4.637 16.416.5 22.757 3.188 3.932 8.707 5.37 13.502 4.486 5.646-1.05 9.324-5.228 12.768-9.506 3.262-4.082 7.139-8.014 9.185-12.889.425-1.018.761-2.057.968-3.112zm-12.908 3.618c-3.529 0-6.393-2.792-6.393-6.234 0-3.452 2.863-6.25 6.393-6.25 3.531 0 6.398 2.798 6.398 6.25 0 3.442-2.867 6.234-6.398 6.234z" fill="#2f2f2f"/><path d="M111.947 89.859c5.434-6.709 4.625-17.147.521-24.058-2.322-3.933-6.766-7.987-10.434-10.662-6.334-4.641-14.893-5.936-21.945-2.014-4.971 2.76-7.727 9.021-6.635 14.514.213 1.108.576 2.206 1.012 3.282 2.176 5.158 6.271 9.314 9.73 13.63 3.623 4.519 7.518 8.931 13.48 10.039 5.064.938 10.898-.591 14.271-4.731zM87.324 71.535c-3.525 0-6.393-2.792-6.393-6.234 0-3.452 2.867-6.25 6.393-6.25 3.527 0 6.389 2.798 6.389 6.25-.001 3.442-2.862 6.234-6.389 6.234z" fill="#2f2f2f"/><path d="M75.214 96.295c-.139.188-3.283 4.514-10.668 4.514-7.344 0-10.488-4.289-10.646-4.508a2.3 2.3 0 0 0-3.195-.602 2.312 2.312 0 0 0-.619 3.213c.182.266 4.539 6.521 14.461 6.521 9.932 0 14.301-6.256 14.477-6.521a2.301 2.301 0 0 0-.602-3.191 2.314 2.314 0 0 0-3.208.574z" fill="#2f2f2f"/><path d="M64.546 92.272c5.541 0 10.039-3.617 10.039-8.088 0-4.471-4.498-8.089-10.039-8.089s-10.027 3.618-10.027 8.089 4.486 8.088 10.027 8.088z" fill="#2f2f2f"/><path d="M121.321 43.952c-.06-.14-.112-.284-.173-.424V42.51c.188-1.124 1.053-1.971 1.699-2.866l.396-.544c.92-1.374 1.644-2.861 2.269-4.375 2.941-7.001 3.016-14.822-.684-20.551-2.615-4.055-12.975-14.557-29.305-5.674-4.283 2.331-8.24 2.243-10.097 2.02 8.298 2.425 26.069 10.176 35.895 33.432z" fill="#2f2f2f"/><path d="M44.954 10.48c-.475.142-.953.277-1.423.43-.916.197-5.711 1.018-11.023-1.87C16.175.157 5.818 10.659 3.197 14.709c-1.131 1.759-1.973 3.885-2.414 5.898-.814 3.831-.486 8.094.691 11.823.635 1.998 1.562 3.873 2.537 5.733.635 1.226 1.285 2.451 2.1 3.586 1.318 1.848 1.341 3.611 1.237 4.503 3.29-8.931 13.12-28.531 37.606-35.772z" fill="#2f2f2f"/></g></g></svg>