<svg id="レイヤー_1" xmlns="http://www.w3.org/2000/svg" viewBox="0 0 128 128"><path d="M120.421 34.035c-1.841-7.018-12.822 2.062-26.3 5.156-18.752 4.305-41.425 4.027-60.248 0-14.46-3.094-24.451-12.174-26.296-5.156-1.98 7.535 5.337 14.089 13.451 17.246.192.08.428.142.642.223 2.603 8.061 5.987 19.635 7.111 28.561 2.889 22.8 20.773 30.888 35.219 30.888 14.445 0 32.332-8.088 35.218-30.889 1.132-8.925 4.512-20.5 7.111-28.561.21-.08.437-.143.646-.223 8.123-3.156 15.426-9.71 13.446-17.245z" fill="#1f1f1f"/><g><path d="M97.924 49.952c-.267-2.755-2.011-3.261-4.162-2.963-2.712 7.909-3.925 29.769-9.91 39.512-6.603 10.75-15.107 11-21.855 11-5.672 0-13.049-.666-21.093-5.007 3.887 6.012 9.777 9.212 18.368 10.113a51.82 51.82 0 0 0 4.727.276 56.472 56.472 0 0 0 4.762-.276c10.085-1.079 16.46-5.296 20.214-13.554 1.971-4.333 4.205-15.667 5.556-23.38.802-4.503 2.033-8.649 2.787-11.44.316-1.177.539-2.105.606-2.702.022-.08.044-.205.044-.267.018-.492.01-.92-.044-1.312z" fill="#b3386a"/><path d="M58.052 53.759c.129.241.25.508.375.794.294.74.593 1.872.865 3.228 1.203 5.912 2.091 16.193 2.358 17.995.08.588.33 4.423 2.35 4.423s2.269-3.834 2.354-4.423c.263-1.801 1.142-12.083 2.346-17.995.281-1.355.57-2.488.874-3.228.111-.286.245-.553.366-.794.767-1.498 1.757-2.193 4.222-2.612 0 0-6.66.802-10.161.802s-10.161-.802-10.161-.802c2.464.419 3.445 1.114 4.212 2.612z" fill="#b3386a"/><path d="M92.975 47.125c-1.939.41-14.423 3.272-18.815 4.022-2.465.419-3.455 1.114-4.222 2.612a9.428 9.428 0 0 0-.366.794c-.303.74-.593 1.872-.874 3.228-1.204 5.912-2.083 16.193-2.346 17.995-.084.588-.334 4.423-2.354 4.423s-2.27-3.834-2.35-4.423c-.268-1.801-1.155-12.083-2.358-17.995-.272-1.355-.571-2.488-.865-3.228a10.82 10.82 0 0 0-.375-.794c-.767-1.498-1.748-2.193-4.213-2.612-4.392-.75-16.879-3.612-18.81-4.022-2.502-.526-4.651-.258-4.967 2.827-.027.393-.063.82-.027 1.311 0 .062.018.169.027.241.067.597.29 1.534.62 2.729.744 2.791 1.984 6.938 2.787 11.44 1.351 7.713 3.571 19.047 5.555 23.38a26.711 26.711 0 0 0 1.882 3.44C48.95 96.834 56.326 97.5 61.998 97.5c6.748 0 15.252-.25 21.855-11 5.984-9.743 7.197-31.602 9.91-39.512-.258.036-.52.081-.788.137z" fill="#cc4079"/></g></svg>