<svg id="Layer_1" xmlns="http://www.w3.org/2000/svg" viewBox="0 0 128 128"><g><path d="M108.963 50.124s-.492-4.085-7.152-8.333a67.597 67.597 0 0 0-.317-3.303c-.249-2.015.561-9.708-12.824-9.916-4.305-.067-6.397.908-7.15 3.519-.663.245-1.758.411-2.612-.66-1.293-5.972-5.215-9.302-12.538-8.232-8.34 1.218-10.166 4.43-10.943 8.225h-.047s-1.521 2.074-3.074.942c-.896-2.496-2.995-3.686-7.657-3.182-12.548 1.354-12.34 9.55-12.892 13.965-.386.219-.859.276-1.399-.069-.799-1.288-2.283-2.112-4.905-2.114-6.255-.004-10.63 9.283-10.937 12.969-.336 4.024 1.411 19.755 2.431 24.485 1.028 4.715 6.828 7.71 11.463 6.05 3.345-1.198 6.038-2.358 3.846-9.204a25.282 25.282 0 0 1-.205-.677l1.169.158c.613 4.837 2.381 10.61 9.456 10.574 3.558-.018 7.908-2.197 8.45-8.161l3.862.52c.043.494.086.988.133 1.479.548 5.797 7.417 7.789 11.972 7.799l-3.347 1.134-4.374-.554s-8.656 1.963-6.449 10.835c1.284 5.163 6.206 5.261 13.908 6.309 5.83.793 30.926.231 33.329-3.096 0 0 11.645-11.956 13.123-21.832.968-6.473-1.035-18.528-4.32-29.63z" fill="#fac036"/><path d="M104.617 43.848l-2.806-2.039c.656 8.85.278 21.284.076 26.347-.322 8.1-1.641 15.452-9.965 16.529-3.837.496-6.462-.59-7.953-2.533-1.058-2.709-.925-6.936-.925-6.936.328-18.483-.938-28.589-.938-28.589-.181-.913-.188-3.517-1.218-5.384-1.315-2.387-1.964.129-1.964.129 1.017 19.055.13 33.275.13 33.275-.1 5.558-2.208 8.309-3.82 9.608-1.911 1.597-8.005 1.926-8.005 1.926-12.104.252-12.165-9.308-12.165-9.308s-1.518-9.634-.971-31.24c0 0-.082-3.081-1.827-1.972 0 0-1.096 3.07-1.311 6.477 0 0-1.426 11.91.119 27.39-.689 5.676-4.919 7.773-8.4 7.791-4.24.022-6.568-2.048-7.89-4.747-.881-3.086-2.524-11.054-2.353-27.233 0 0 .405-3.822-.84-3.132 0 0-1.152.412-1.972 6.222 0 0-1.15 8.316.53 21.242.544 4.94-.718 6.461-2.327 6.946-3.573.97-7.661-.63-9.714-3.582 1.558 2.891 4.791 7.114 10.36 6.894 0 0 3.723-.425 5.104-2.311 3.068 5.045 11.884 3.89 11.884 3.89 4.157-.573 6.331-2.64 7.47-4.835l.007.012c3.936 6.9 14.295 6.364 14.295 6.364 8.827 0 12.409-3.229 13.868-5.858 2.222 4.102 7.416 4.934 7.416 4.934 9.427.924 13.377-6.549 13.377-6.549 5.338-10.271 3.65-30.263 2.728-39.728z" fill="#e48c15"/></g></svg>