<svg id="Layer_1" xmlns="http://www.w3.org/2000/svg" viewBox="0 0 128 128"><g><path d="M51.783 85.865c-.955.915-1.943-.154-1.943-.154S33.371 68.675 32.309 67.919c-1.499-1.067-4.704-2.728-7.852.591-1.309 1.38-3.445 4.441.638 9.285.879 1.043 26.527 27.438 28.023 28.863 0 0 11.836 11.248 18.965 15.451 1.979 1.167 4.203 2.4 6.791 3.251 2.579.853 5.485 1.423 8.548 1.389 3.06.001 6.229-.631 9.216-1.761 2.987-1.143 5.768-2.786 8.286-4.677.622-.48 1.243-.965 1.83-1.479l1.694-1.427a50.803 50.803 0 0 0 3.324-3.148 56.584 56.584 0 0 0 5.681-6.804c1.659-2.362 3.068-4.796 4.179-7.221 1.111-2.425 1.891-4.853 2.344-7.147a24.7 24.7 0 0 0 .502-6.324c-.043-1.883-.434-3.488-.757-4.768-.371-1.277-.753-2.237-1.061-2.869l-.458-.966-1.176-3.182a790.227 790.227 0 0 0-3.354-8.975c-.506-1.338-.741-1.946-.741-1.946l.008.022c-4.404-11.533-9.129-23.422-9.129-23.422-.718-2.092-3.284-2.798-5.156-1.42-5.393 3.972-6.989 9.688-5.002 15.748l5.076 13.42c.713 1.5-1.182 3.261-2.478 2.23-4.078-3.244-12.727-12.209-12.727-12.209-3.864-3.618-25.665-25.453-27.126-26.782-2.931-2.667-6.61-4.015-9.375-1.934-2.822 2.124-3.579 5.374-.789 8.874.759.952 22.8 23.699 22.8 23.699 1.286 1.316-.191 3.21-1.602 1.939 0 0-27.417-27.937-28.655-29.249-2.807-2.974-7.265-3.581-9.876-1.077-2.551 2.447-2.443 6.42.409 9.496.906.977 20.223 20.901 27.961 29.061.518.546.92 1.279.177 1.991-.007.006-.761.848-1.763-.198-2.1-2.191-23.087-23.554-24.258-24.713-2.679-2.652-6.247-3.881-9.075-1.233-2.58 2.416-2.951 6.582.078 9.485L51.855 84.04s.83.961-.072 1.825z" fill="#fac036"/></g><g><path d="M42.367 79.543c-.524 1.215-1.85.614-1.85.614s-21.8-9.286-23.072-9.569c-1.796-.4-5.395-.683-7.003 3.6-.669 1.781-1.446 5.432 4.201 8.305 1.215.618 35.112 14.955 37.045 15.686 0 0 15.28 5.756 23.482 6.855 2.277.305 4.805.575 7.521.352 2.707-.218 5.607-.824 8.415-2.046 2.819-1.189 5.493-3.005 7.805-5.208 2.307-2.215 4.23-4.81 5.814-7.532.386-.684.77-1.373 1.11-2.074l1.005-1.974a51.451 51.451 0 0 0 1.838-4.193 56.632 56.632 0 0 0 2.586-8.478c.61-2.821.96-5.612 1.04-8.278.08-2.666-.146-5.206-.621-7.496a24.666 24.666 0 0 0-1.998-6.021c-.772-1.718-1.757-3.045-2.553-4.098-.838-1.032-1.564-1.768-2.094-2.23l-.798-.712c-.822-.877-1.609-1.716-2.322-2.473a769.02 769.02 0 0 0-6.582-6.963c-.987-1.036-1.44-1.504-1.44-1.504l.016.017c-8.545-8.911-17.523-18.025-17.523-18.025-1.475-1.647-4.114-1.3-5.302.698-3.423 5.758-2.668 11.644 1.519 16.453l9.898 10.387c1.24 1.105.18 3.464-1.415 3.019-5.019-1.402-16.474-6.296-16.474-6.296-4.967-1.829-33.546-13.462-35.409-14.118-3.738-1.316-7.651-1.127-9.389 1.866-1.773 3.055-1.206 6.343 2.726 8.482 1.069.582 30.225 12.961 30.225 12.961 1.697.712 1.073 3.032-.722 2.41 0 0-36.127-15.068-37.777-15.795-3.743-1.648-8.086-.472-9.517 2.851-1.398 3.247.247 6.864 4.071 8.589 1.214.548 26.762 11.386 37.065 15.892.689.301 1.345.82.938 1.765-.004.009-.371 1.077-1.701.504-2.787-1.202-30.433-12.716-31.962-13.328-3.5-1.401-7.265-1.145-8.839 2.394-1.437 3.23-.157 7.212 3.763 8.707l33.639 14.296c-.003-.001 1.135.561.641 1.708z" fill="#fac036"/></g><g><g><path d="M101.451 64.397c1.126 2.618 2.927 4.521.241 6.466-3.663 2.652-11.153-6.43-14.146-9.479-3.727-3.809-7.363-7.839-11.156-11.603-5.169-5.135-12.264-12.091-17.314-17.356-5.854-6.103-11.697 1.175-8.932 6.842.257.557.64 1.114 1.134 1.692 1.496 1.713 3.117 3.301 4.709 4.929.02.015 12.452 11.924 16.525 16.026 1.847 1.916.852 4.29-.333 3.224s-9.162-8.197-12.784-11.895c-5.692-5.798-12.948-13.038-19.454-18.454-3.684-3.067-12.328 3.155-4.168 11.164.312.308 24.377 23.904 27.427 26.913.987.974-.596 1.989-.596 1.989-.66.583-26.586-24.011-27.556-24.983-5.313-5.329-14.452 1.26-6.966 8.893a5419.279 5419.279 0 0 1 16.999 17.477c1.864 1.929 6.429 6.07 9.173 8.464.573.499-.835 1.088-1.172 1.551-.502.69-19.105-16.157-21.034-17.704-4.266-3.422-11.67 2.603-7.326 8.392 2.229 2.97 17.727 17.627 19.968 19.757 11.628 11.05 13.863 13.792 28.006 23.797 1.803 1.276 6.927 5.243 5.417 4.596-19.869-8.524-37.359-28.237-52.478-42.022-4.422-4.032-7.822-11.534-2.594-16.527 2.057-1.964 3.474-2.381 6.136-2.223 0 0-.155-.192-2.489-2.674-2.248-2.39-7.434-9.585-2.616-14.24 3.783-3.655 8.011-2.058 7.691-2.424-3.59-4.287-3.146-9.041-.094-11.908 3.682-3.459 8.676-3.615 15.172 3.092-.401-1.201-1.328-4.156 1.768-6.974 6.003-5.464 11.085-1.538 22.515 10.76 9.494 10.214 24.228 25.244 24.228 25.244.839.749 3.029 3.381 4.399 2.547.802-.488-.46-1.958-1.785-4.98-4.74-10.813-4.836-20.195 5.751-24.069.677-.635-4.022 3.489-5.444 8.128-1.366 4.462.576 11.521 3.178 17.572z" fill="#e48c15"/></g></g><path fill="none" stroke="#444" stroke-width="4" stroke-linecap="round" stroke-miterlimit="10" d="M101.285 3.119l-6.412 20.11"/><path fill="none" stroke="#444" stroke-width="4" stroke-linecap="round" stroke-miterlimit="10" d="M42.488 22.705L31.791 9.972"/><path fill="none" stroke="#444" stroke-width="4" stroke-linecap="round" stroke-miterlimit="10" d="M52.791 3.119L50.42 21.685"/><path fill="none" stroke="#444" stroke-width="4" stroke-linecap="round" stroke-miterlimit="10" d="M112.698 21.362l-12.348 9.919"/></svg>