<svg id="Layer_1" xmlns="http://www.w3.org/2000/svg" xmlns:xlink="http://www.w3.org/1999/xlink" viewBox="0 0 128 128"><g><path d="M102.437 54.921c-9.931-9.623-10.937-10.71-18.574-13.406C76.525 38.923 62.411 30.38 58.23 27.98c-3.524-2.023-6.34-2.619-9.597-1.122-2.139.983-4.842 3.363-4.914 7.079-.048 2.427.425 5.844 7.108 10.622.74.529.475 1.686-.423 1.833-.33.054-.725.1-1.197.134-3.509.251-30.578 0-37.346.752-6.767.752-7.859 1.941-9.245 4.356-1.008 1.755-.922 6.218 1.345 8.485 2.38 2.38 10.434 2.468 40.234 2.95 4.261 0 5.223.978 3.841 3.051-.983 1.474-1.282 5.12-.081 7.225 1.068 1.873 2.138 3.089 1.715 4.855-.585 2.442-.948 6.779 1.317 9.25 1.331 1.452 1.829 3.189 1.779 5.695-.05 2.506 1.227 8.265 8.987 8.271 9.361.008 19.234 1.383 27.204-.927 4.489-1.301 7.871-2.481 12.587-2.481 3.889 0 7.862.311 12.369.311 6.346 0 10.236-.914 11.239-8.182 1.003-7.269 1.253-22.808 0-28.323-1.253-5.514-5.027-5.178-8.254-5.178-6.635.002-12.038.634-14.461-1.715z" fill="#fac036"/><g><defs><path id="SVGID_1_" d="M102.437 54.921c-9.931-9.623-10.937-10.71-18.574-13.406C76.525 38.923 62.411 30.38 58.23 27.98c-3.524-2.023-6.34-2.619-9.597-1.122-2.139.983-4.842 3.363-4.914 7.079-.048 2.427.425 5.844 7.108 10.622.74.529.475 1.686-.423 1.833-.33.054-.725.1-1.197.134-3.509.251-30.578 0-37.346.752-6.767.752-7.859 1.941-9.245 4.356-1.008 1.755-.922 6.218 1.345 8.485 2.38 2.38 10.434 2.468 40.234 2.95 4.261 0 5.223.978 3.841 3.051-.983 1.474-1.282 5.12-.081 7.225 1.068 1.873 2.138 3.089 1.715 4.855-.585 2.442-.948 6.779 1.317 9.25 1.331 1.452 1.829 3.189 1.779 5.695-.05 2.506 1.227 8.265 8.987 8.271 9.361.008 18.391 1.63 26.361-.68 4.489-1.301 8.714-2.728 13.43-2.728 3.889 0 7.862.311 12.369.311 6.346 0 10.236-.914 11.239-8.182 1.003-7.269 1.253-22.808 0-28.323-1.253-5.514-4.279-5.181-7.507-5.181-6.634.003-12.785.637-15.208-1.712z"/></defs><clipPath id="SVGID_2_"><use xlink:href="#SVGID_1_" overflow="visible"/></clipPath><g clip-path="url(#SVGID_2_)"><path d="M66.267 51.121c-.059 0-.119-.003-.182-.008-8.113-.685-14.521-1.226-22.978-7.708a2.13 2.13 0 0 1-.395-2.989 2.129 2.129 0 0 1 2.989-.395c7.466 5.722 13.035 6.192 20.744 6.843a2.133 2.133 0 1 1-.178 4.257z" fill="#e48c15"/></g></g></g></svg>