<svg id="Layer_1" xmlns="http://www.w3.org/2000/svg" viewBox="0 0 128 128"><g><path d="M79.459 54.197c6.15-1.736 17.051-1.512 20.237-1.284 5.577.399 11.162.283 12.119 7.046.645 4.557-.888 8.706-7.653 9.448-2.383.262-5.294.404-7.688.778l-1.884 2.071c2.215-.297 7.314-.197 8.842-.385 6.461-.792 11.921 1.805 12.743 8.006.72 5.436-3.382 9.637-9.204 9.321-1.991-.108-7.615.657-13.185.805l-.428 1.133-.201.345c3.54.104 6.935.241 9.335.358 6.447.315 9.966 3.784 9.875 8.378-.111 5.586-5.336 7.688-9.082 7.995-2.799.226-12.819-.06-19.546-.608l-1.06 1.814c.478.014 13.367.626 13.86.663 5.914.443 8.428 2.581 8.28 6.804-.207 5.925-6.535 7.493-9.946 8.032-5.55.877-12.95.623-18.339.772-11.664.323-35.522.841-46.66-8.925-3.795-3.328-7.632-7.86-10.891-9.158-6.834-2.723-7.416-11.623-7.106-22.868.15-5.439-1.718-20.711 4.878-24.407 9.263-5.191 24.961-9.113 30.175-13.211 8.556-6.726 13.557-17.678 15.841-24.091C67.122 10.817 68.437 2 76.028 2c13.3 0 12.948 11.877 13.201 17.821.494 11.633-13.861 33.147-9.77 34.376z" fill="#fac036"/><path d="M68.022 80.943c.132 5.986 4.75 8.557 4.959 8.674-2.646-.058-8.392 2.628-8.392 8.336 0 4.707 2.565 8.383 5.127 9.63-1.693.364-4.882 2.664-4.882 7.679 0 7.361 5.464 10.053 9.594 10.561 4.129.509 15.613-.177 19.404-.764 2.031-.315-10.061-.455-18.909-1.611-2.537-.331-5.569-2.723-6.064-5.94 0 0-.721-4.25 3.165-6.702 0 0 1.64-1.409 9.246-1.35l2.302.032c.722.046 9.907.365 12.968.594 1.346.101 2.507.294 3.509.575-.164-.228-.343-.609-.281-1.165.13-1.157.894-1.211 1.089-1.206l-1.825-.105h-.002l-6.476-.372c-6.457-.391-15.561-1.007-16.61-1.426 0 0-6.344-1.602-6.344-8.101 0 0-.331-5.533 8.131-5.793 0 0 19.994-1.151 28.448-.029 0 0-1.208-2.25.79-3.261 0 0-14.265.35-23.209.587s-10.849-4.513-11.076-7.095c-.034-.393-.114-1.009-.114-1.744-.001-5.145 4.524-5.825 10.994-6.674 13.961-1.831 19.866-2.401 19.866-2.401.77-.094 1.505-.135 2.206-.13-.388-.22-.924-.629-.992-1.315-.044-.444.178-1.108.178-1.108s-6.024.486-15.307 1.725c-9.284 1.239-16.698.673-17.368-4.763-.491-3.984.184-6.507 1.896-8.476 2.117-2.433 5.53-3.639 5.53-3.639s-.389-.077-.607-.372c-.219-.295-.235-.765-.235-.765-7.548.971-12.734 5.78-12.298 11.96.298 4.229 1.423 7.054 4.234 8.416 0-.002-2.778 1.552-2.645 7.538z" fill="#e48c15"/><path d="M71.111 67.515l-3.321.956s4.918 18.111-13.239 30.59c0 0-2.33 1.565-1.2 2.729 0 0 .789 1.362 4.127-1.188 0 0 17.726-11.56 13.633-33.087z" fill="#e48c15"/></g></svg>