<svg id="Layer_1" xmlns="http://www.w3.org/2000/svg" viewBox="0 0 128 128"><g><path d="M98.664 32.68c-4.617-8.604-7.22-13.427-12.787-20.46C80.31 5.187 73.734-1.846 66.37 4.444c-3.716 3.174-2.602 8.211.173 13.216-.469-.313.434 2.164-.01 1.826-8.354-6.374-10.127-5.67-13.01-3.391-6.836 5.405 4.964 16.466 8.812 22.402.662 1.022 3.065 1.974 3.636 2.909.391.64.762 1.261 1.114 1.864a49.93 49.93 0 0 0-1.317-.386c-4.038-1.126-13.324-2.346-17.542-.756-26.191 9.87-24.864 14.178-22.856 19.837 2.007 5.656 9.354 9.842 21.346 2.384 14.814-6.119 27.111 2.084 27.111 10.597 0 11.697-3.831 18.307-13.875 18.307-15.893 0-16.743-12.961-25.229-21.446-2.289-2.289-7.793-2.964-11.041-.61-7.575 5.49-2.681 16.883-.792 20.687 3.959 7.974 8.839 19.526 21.691 29.947 6.755 5.477 23.529 4.638 33.228 2.662 18.439-3.757 22.147-16.01 28.07-36.977 2.228-7.886 2.533-14.237 2.533-23.048.001-8.81-5.449-23.776-9.748-31.788z" fill="#fac036"/><path d="M98.304 60.488C97.126 55.45 87.477 47.565 83.457 44.97c-.413-2.197-6.344-15.141-10.178-20.253-2.129-2.839-6.074-6.681-7.46-8.444 0 0 .335 1.392-.65 2.193.384.464 6.146 7.726 8.55 13.131s4.394 11.236 4.394 11.236c-2.611-.87-12.931-4.326-15.778-4.336 0 0 .996.898.976 2.563-.018 1.552-2.174.733-.976 1.08 7.616 2.209 18.263 4.846 24.82 11.131 2.593 2.486 6.419 7.219 8.216 10.326 1.286 2.223 3.253-1.74 2.933-3.109z" fill="#e48c15"/></g></svg>