<svg id="Layer_1" xmlns="http://www.w3.org/2000/svg" viewBox="0 0 128 128"><g><path d="M3.594 78.155c-.128-.333-.301-.677-.385-.999.094.323.242.661.385.999z" fill="#9f3621"/><path d="M24.836 63.161z" fill="#2f2f2f"/><path d="M27.98 59.466z" fill="#2f2f2f"/><path d="M35.567 53.013z" fill="#2f2f2f"/><path d="M31.614 56.017z" fill="#2f2f2f"/><path d="M40.019 50.371z" fill="#2f2f2f"/><path d="M64.091 44.881z" fill="#2f2f2f"/><path d="M50.715 46.417c1.33-.317 2.752-.551 4.186-.773-1.435.223-2.855.455-4.186.773z" fill="#2f2f2f"/><path d="M45.054 48.142c1.08-.402 2.227-.75 3.389-1.087-1.163.337-2.307.684-3.389 1.087z" fill="#2f2f2f"/><path d="M18.22 75.486l.028-.001-.043-.013.015.014z" fill="#2f2f2f"/><path d="M92.615 53.013z" fill="#2f2f2f"/><path d="M88.163 50.371z" fill="#2f2f2f"/><path d="M77.467 46.417c-1.33-.317-2.752-.551-4.186-.773 1.435.223 2.855.455 4.186.773z" fill="#2f2f2f"/><path d="M83.128 48.142c-1.08-.402-2.227-.75-3.389-1.087 1.163.337 2.307.684 3.389 1.087z" fill="#2f2f2f"/><path d="M125.273 75.472c0-9.878-25.811-53.534-45.886-53.534-7.039 0-11.869 1.92-15.295 4.362-3.426-2.442-8.257-4.362-15.295-4.362-20.075 0-45.886 43.656-45.886 53.534 0 .508.131 1.062.289 1.623l-.012.002c.005.019.018.04.023.059.084.322.257.666.385.999 4.259 11.069 32.314 27.907 60.497 27.907s56.237-16.839 60.497-27.907c.128-.333.301-.677.385-.999.005-.019.018-.04.023-.059l-.012-.002c.156-.561.287-1.115.287-1.623zm-15.312.014l-.028-.001c-.465.143-24.926 7.635-45.843 7.635s-45.378-7.491-45.843-7.635l-.028.001-.016-.014s1.693-5.778 6.631-12.31a46.511 46.511 0 0 1 2.605-3.142c.168-.185.366-.367.54-.552a44.353 44.353 0 0 1 2.486-2.474c.362-.332.766-.648 1.148-.975a43.958 43.958 0 0 1 2.408-1.937c.495-.366 1.022-.713 1.545-1.067a43.486 43.486 0 0 1 2.596-1.632 44.011 44.011 0 0 1 4.775-2.377c.693-.298 1.386-.59 2.116-.862 1.082-.403 2.226-.75 3.389-1.087.752-.218 1.484-.45 2.272-.638 1.331-.318 2.751-.55 4.186-.773.721-.112 1.399-.263 2.147-.349a61.251 61.251 0 0 1 7.044-.415c2.479 0 4.811.158 7.044.415.748.086 1.426.237 2.147.349 1.434.223 2.855.456 4.186.773.788.188 1.519.419 2.272.638 1.163.337 2.307.684 3.389 1.087.73.272 1.423.564 2.116.862a44.011 44.011 0 0 1 4.775 2.377 43.81 43.81 0 0 1 2.596 1.632c.523.354 1.05.701 1.545 1.067a43.958 43.958 0 0 1 2.408 1.937c.382.327.786.643 1.148.975a44.694 44.694 0 0 1 2.486 2.474c.173.185.372.367.54.552a46.511 46.511 0 0 1 2.605 3.142c4.938 6.532 6.631 12.31 6.631 12.31l-.018.014z" fill="#9f3621"/><path d="M103.346 63.161a46.511 46.511 0 0 0-2.605-3.142c-.168-.185-.366-.367-.54-.552a44.696 44.696 0 0 0-2.486-2.474c-.362-.332-.766-.648-1.148-.975a43.958 43.958 0 0 0-2.408-1.937c-.495-.366-1.022-.713-1.545-1.067a43.81 43.81 0 0 0-2.596-1.632 44.011 44.011 0 0 0-4.775-2.377 45.753 45.753 0 0 0-2.116-.862c-1.08-.402-2.227-.75-3.389-1.087-.752-.218-1.484-.45-2.272-.638-1.33-.317-2.752-.551-4.186-.773-.721-.112-1.399-.263-2.147-.349a61.238 61.238 0 0 0-7.044-.415c-2.479 0-4.812.158-7.044.415-.748.086-1.426.237-2.147.349-1.433.223-2.855.456-4.186.773-.788.188-1.519.419-2.272.638-1.162.337-2.309.685-3.389 1.087-.73.272-1.423.564-2.116.862a44.933 44.933 0 0 0-4.775 2.377 43.81 43.81 0 0 0-2.596 1.632c-.523.354-1.05.701-1.545 1.067a43.033 43.033 0 0 0-2.408 1.937c-.382.327-.786.643-1.148.975a45.04 45.04 0 0 0-2.486 2.474c-.173.185-.372.367-.54.552a46.813 46.813 0 0 0-2.605 3.142c8.765-5.442 21.679-10.633 39.255-10.633s30.494 5.191 39.259 10.633z" fill="#fff"/><path d="M103.346 63.161c-8.765-5.442-21.679-10.633-39.255-10.633s-30.49 5.191-39.255 10.633c-4.938 6.532-6.592 12.322-6.588 12.323.465.143 24.926 7.635 45.843 7.635s45.378-7.491 45.843-7.635l.043-.013s-1.693-5.778-6.631-12.31z" fill="#2f2f2f"/></g></svg>