<svg id="Layer_1" xmlns="http://www.w3.org/2000/svg" viewBox="0 0 128 128"><g><g><ellipse cx="36" cy="64.279" rx="20.087" ry="16.13" fill="#fff"/><path d="M35.978 47.591c-18.831 0-24.969 21.203-22.318 21.203.769 0 1.388-1.272 2.336-3.073a13.427 13.427 0 0 0 1.079 3.966c2.453 4.77 7.42 8.034 13.153 8.034 8.166 0 14.786-6.62 14.786-14.786 0-3.184-1.008-6.13-2.72-8.542 12.723 2.908 13.566 14.401 16.003 14.401 2.789-.001-3.488-21.203-22.319-21.203zm5.079 12.722c-.328 1.663-2.188 2.696-4.153 2.308-1.965-.388-3.292-2.051-2.964-3.713s2.188-2.696 4.153-2.308c1.966.388 3.293 2.05 2.964 3.713z" fill="#2f2f2f"/></g><g><ellipse cx="92" cy="64.279" rx="20.087" ry="16.13" fill="#fff"/><path d="M91.978 47.591c-18.831 0-24.969 21.202-22.318 21.202.769 0 1.388-1.272 2.336-3.073a13.442 13.442 0 0 0 1.079 3.967c2.453 4.77 7.42 8.034 13.153 8.034 8.166 0 14.786-6.62 14.786-14.786 0-3.184-1.008-6.13-2.72-8.542 12.723 2.908 13.566 14.401 16.003 14.401 2.789-.001-3.488-21.203-22.319-21.203zm5.079 12.722c-.328 1.663-2.188 2.696-4.153 2.308-1.965-.388-3.292-2.051-2.964-3.713s2.188-2.696 4.153-2.308c1.966.388 3.293 2.05 2.964 3.713z" fill="#2f2f2f"/></g></g></svg>
