<svg id="Layer_1" xmlns="http://www.w3.org/2000/svg" viewBox="0 0 128 128"><g><g><path d="M39.115 79.559c-1.098 1.028-2.207-.201-2.207-.201s-18.491-19.58-19.687-20.454c-1.689-1.233-5.31-3.163-8.932.568-1.506 1.551-3.974 5.001.602 10.561.985 1.197 29.782 31.536 31.464 33.176 0 0 13.302 12.941 21.348 17.812 2.234 1.353 4.745 2.783 7.675 3.785 2.919 1.003 6.215 1.69 9.696 1.692 3.477.042 7.088-.634 10.497-1.878 3.41-1.259 6.592-3.089 9.479-5.205a43.024 43.024 0 0 0 2.099-1.656l1.944-1.6a57.853 57.853 0 0 0 3.82-3.534 64.405 64.405 0 0 0 6.547-7.657c1.917-2.662 3.551-5.41 4.846-8.151 1.295-2.741 2.213-5.49 2.76-8.091.582-2.594.736-5.044.654-7.18-.024-2.141-.447-3.97-.797-5.429-.404-1.457-.826-2.552-1.168-3.275l-.508-1.104c-.458-1.287-.897-2.519-1.295-3.632a871.854 871.854 0 0 0-3.693-10.245c-.558-1.528-.816-2.221-.816-2.221l.009.025c-4.852-13.166-10.064-26.741-10.064-26.741-.788-2.387-3.695-3.224-5.841-1.683-6.182 4.443-8.072 10.918-5.895 17.831l5.591 15.319c.79 1.714-1.387 3.691-2.846 2.502-4.592-3.741-14.301-14.045-14.301-14.045-4.343-4.163-28.829-29.269-30.472-30.799-3.296-3.07-7.459-4.651-10.629-2.323-3.236 2.376-4.139 6.06-1.014 10.075.85 1.092 25.597 27.237 25.597 27.237 1.444 1.513-.26 3.646-1.847 2.182 0 0-30.788-32.115-32.177-33.623-3.15-3.417-8.209-4.166-11.21-1.355-2.932 2.747-2.862 7.263.338 10.798 1.016 1.123 22.705 24.023 31.391 33.399.581.627 1.028 1.466.175 2.265-.008.007-.876.953-2.001-.248-2.358-2.519-25.925-27.077-27.241-28.41-3.01-3.05-7.048-4.494-10.297-1.523-2.965 2.712-3.441 7.441-.037 10.781l28.548 30.18c.001.003.931 1.105-.105 2.075z" fill="#fac036"/></g><path d="M85.461 54.402l2.411 2.576s-13.786 13.307-4.395 33.745c0 0 1.224 2.591-.375 3.021 0 0-1.404.781-2.997-3.201 0 0-9.494-19.408 5.356-36.141z" fill="#e48c15"/></g><path d="M63.277 10.196s5.81.876 11.188 6.641c5.378 5.765 7.866 13.178 7.866 13.178" fill="none" stroke="#444" stroke-width="4" stroke-linecap="round" stroke-miterlimit="10"/><path d="M77.437 3.5s4.867 2.451 8.628 8.498c3.761 6.048 4.673 13.052 4.673 13.052" fill="none" stroke="#444" stroke-width="4" stroke-linecap="round" stroke-miterlimit="10"/><path d="M35.705 110.732s-5.863.391-12.353-4.085-10.511-11.183-10.511-11.183" fill="none" stroke="#444" stroke-width="4" stroke-linecap="round" stroke-miterlimit="10"/><path d="M31.533 120.557s-5.444.232-11.676-3.216-10.442-9.119-10.442-9.119" fill="none" stroke="#444" stroke-width="4" stroke-linecap="round" stroke-miterlimit="10"/></svg>