<svg id="图层_1" xmlns="http://www.w3.org/2000/svg" viewBox="0 0 128 128"><g><g><path d="M63.574 25C44.913 24.833 14.64 32.417.917 71.667c0 0-1.644 6.065.582 8.667 2.495 2.917 6.3 1.783 6.3 1.783S26.866 108 63.543 107.75c36.678-.25 52.979-23.833 52.979-23.833s3.864 2.751 7.191 1.084c2.696-1.35 3.913-3.885 3.954-8.334.104-11.236-20.181-51.275-64.093-51.667z" fill="#eee"/></g><g><path d="M115.678 68.447c0 16.233-23.73 29.372-53.082 29.372-29.295 0-53.081-13.139-53.081-29.372 0-16.231 23.787-29.367 53.081-29.367 29.352-.001 53.082 13.135 53.082 29.367" fill="#fff"/><path d="M121.56 64c-10.646-21.833-31.657-34.844-53.241-36.618-9.266-.744-18.078.353-26.149 3.101-14.796 5.079-27.082 15.77-35.086 31.003-2.239 4.235-5.036 9.102-5.242 14.039-.092 2.287.664 4.217 3.028 4.729 3.764.816 5.79-2.464 8.178-4.751 1.469-1.419 3.108-3.447 4.851-4.496 1.191-.721 4.014-1.209 5.278-.462 3.656 2.209 4.472 8.314 5.985 12.02 8.764 21.31 39.478 23.751 54.964 8.567 3.873-3.772 7.733-9.965 9.037-15.278.62-2.516-.07-11.182 3.784-11.787 2.59-.395 5.404 2.447 7.273 3.865 4.404 3.36 10.956 15.824 17.219 15.334 1.675-.116 3.803-2.712 4.153-4.191 1.158-4.908-2.997-12.953-4.032-15.075z" fill="#2f2f2f"/><path d="M57.338 61.274c-2.441 6.634-12.644 9.338-17.383 3.886-3.717-4.261-2.343-10.041 1.594-13.554 7.103-6.336 18.946 1.095 15.789 9.668" fill="#fff"/></g></g></svg>