<svg id="Layer_1" xmlns="http://www.w3.org/2000/svg" viewBox="0 0 128 128"><g><path d="M105.02 48.578c1.884-26.053-17.986-42.71-42.208-44.461s-40.349 16.287-39.948 42.39c.292 19.036 14.443 19.525 17.774 36.179 1.144 5.719-11.805 41.05 5.329 41.301 46.369.681 36.75-25.594 44.403-39.066 6.406-11.278 13.543-21.038 14.65-36.343z" fill="#f9c035"/><path d="M65.238 13.978c-11.417-.826-21.937 6.519-28.105 16.949-.616 1.042.825 2.068 1.617 1.153 6.808-7.861 16.556-12.686 25.869-12.013 16.627 1.202 27.939 10.094 26.646 27.978-.76 10.506-6.261 17.572-10.658 25.314-2.832 4.986-1.12 17.467-4.879 27.735-.418 1.141 1.195 1.871 1.811.824 5.502-9.343 5.096-21.564 8.371-27.329 4.806-8.46 10.159-15.781 10.989-27.261 1.413-19.542-13.491-32.036-31.661-33.35z" fill="#e28c25"/><path d="M39.708 58.636c-3.788 9.893 8.588 10.425 9.858 14.241.862 2.59.294 9.25-.16 13.263-.113.998 1.137 1.533 1.778.759 3.501-4.232 9.779-13.254 7.691-21.462-2.85-11.199-15.379-16.694-19.167-6.801z" fill="#e28c25"/><path d="M53.294 40.821c8.202 3.524 17.854 10.296 17.841 22.649-.001 1.227 1.752 1.376 1.972.169 1.703-9.361-.689-20.513-19.177-24.7-1.179-.267-1.747 1.405-.636 1.882z" fill="#e28c25"/></g></svg>