<svg id="Layer_1" xmlns="http://www.w3.org/2000/svg" xmlns:xlink="http://www.w3.org/1999/xlink" viewBox="0 0 128 128"><g><path d="M54.921 102.437c-9.623-9.931-10.71-10.937-13.406-18.574C38.923 76.525 30.38 62.411 27.98 58.23c-2.023-3.524-2.619-6.34-1.122-9.597.983-2.139 3.363-4.842 7.079-4.914 2.427-.048 5.844.425 10.622 7.108.529.74 1.686.475 1.833-.423.054-.33.1-.725.134-1.197.251-3.509 0-30.578.752-37.346.752-6.767 1.941-7.859 4.356-9.245 1.755-1.008 6.218-.922 8.485 1.345 2.38 2.38 2.468 10.434 2.95 40.234 0 4.261.978 5.223 3.051 3.841 1.474-.983 5.12-1.282 7.225-.081 1.873 1.068 3.089 2.138 4.855 1.715 2.442-.585 6.779-.948 9.25 1.317 1.452 1.331 3.189 1.829 5.695 1.779 2.506-.05 8.265 1.227 8.271 8.987.008 9.361 1.383 19.234-.927 27.204-1.301 4.489-2.481 7.871-2.481 12.587 0 3.889.311 7.862.311 12.369 0 6.346-.914 10.236-8.182 11.239-7.269 1.003-22.808 1.253-28.323 0-5.514-1.253-5.178-5.027-5.178-8.254.002-6.635.634-12.038-1.715-14.461z" fill="#fac036"/><g><defs><path id="SVGID_1_" d="M54.921 102.437c-9.623-9.931-10.71-10.937-13.406-18.574C38.923 76.525 30.38 62.411 27.98 58.23c-2.023-3.524-2.619-6.34-1.122-9.597.983-2.139 3.363-4.842 7.079-4.914 2.427-.048 5.844.425 10.622 7.108.529.74 1.686.475 1.833-.423.054-.33.1-.725.134-1.197.251-3.509 0-30.578.752-37.346.752-6.767 1.941-7.859 4.356-9.245 1.755-1.008 6.218-.922 8.485 1.345 2.38 2.38 2.468 10.434 2.95 40.234 0 4.261.978 5.223 3.051 3.841 1.474-.983 5.12-1.282 7.225-.081 1.873 1.068 3.089 2.138 4.855 1.715 2.442-.585 6.779-.948 9.25 1.317 1.452 1.331 3.189 1.829 5.695 1.779 2.506-.05 8.265 1.227 8.271 8.987.008 9.361 1.63 18.391-.68 26.361-1.301 4.489-2.728 8.714-2.728 13.43 0 3.889.311 7.862.311 12.369 0 6.346-.914 10.236-8.182 11.239-7.269 1.003-22.808 1.253-28.323 0-5.514-1.253-5.181-4.279-5.181-7.507.003-6.634.637-12.785-1.712-15.208z"/></defs><clipPath id="SVGID_2_"><use xlink:href="#SVGID_1_" overflow="visible"/></clipPath><g clip-path="url(#SVGID_2_)"><path d="M51.121 66.267c0-.059-.003-.119-.008-.182-.685-8.113-1.226-14.521-7.708-22.978a2.13 2.13 0 0 0-2.989-.395 2.129 2.129 0 0 0-.395 2.989c5.722 7.466 6.192 13.035 6.843 20.744a2.133 2.133 0 1 0 4.257-.178z" fill="#e48c15"/></g></g></g></svg>