<svg id="レイヤー_1" xmlns="http://www.w3.org/2000/svg" xmlns:xlink="http://www.w3.org/1999/xlink" viewBox="0 0 128 128"><g><g><g><defs><path id="SVGID_1_" d="M116.125 81.516C108.061 69.9 98.14 64.811 93.648 58.256c-3.746-5.463-6.547-13.014-6.218-19.742.143-2.943 2.913-12.75 2.913-12.75s4.102 0 7.618-3.574c2.588-2.627 4.314-6.43 4.739-9.906.191-1.57.686-3.721-.949-4.723-1.05-.637-2.329-.988-3.482-1.383-2.072-.707-4.101-1.002-6.113-1.969-2.324-1.117-4.535-2.393-7.154-2.67-1.483-.158-2.914-.096-4.231.65-.729.412-.707.551-.451 1.209 1.18 3.018-1.778 6.166-4.188 7.24-2.264 1.006-5.928 2.016-12.132 2.016-6.205 0-9.868-1.01-12.132-2.016-2.41-1.074-5.368-4.223-4.188-7.24.256-.658.278-.797-.451-1.209-1.318-.746-2.749-.809-4.232-.65-2.619.277-4.83 1.553-7.154 2.67-2.012.967-4.041 1.262-6.114 1.969-1.153.395-2.432.746-3.482 1.383-1.635 1.002-1.14 3.152-.949 4.723.425 3.477 2.15 7.279 4.739 9.906 3.516 3.574 7.618 3.574 7.618 3.574s2.771 9.807 2.914 12.75c.329 6.729-2.472 14.279-6.218 19.742C29.86 64.811 19.94 69.9 11.875 81.516 6.208 89.676-.031 104.211.168 106.905c.209 2.686 2.762 3.4 4.956 4.021 2.835.799 4.609 1.916 6.872 3.852 2.749 2.344 6.023 3.807 9.53 4.586 3.559.795 7.076.238 10.614 1.418 4.318 1.443 8.116 4.084 12.548 5.226 6.408 1.645 15.253-1.113 19.312-1.064 4.058-.049 12.903 2.709 19.312 1.064 4.432-1.143 8.229-3.783 12.548-5.226 3.538-1.18 7.055-.623 10.614-1.418 3.508-.779 6.781-2.242 9.53-4.586 2.263-1.936 4.037-3.053 6.873-3.852 2.194-.621 4.747-1.336 4.956-4.021.198-2.694-6.041-17.229-11.708-25.389z"/></defs><use xlink:href="#SVGID_1_" overflow="visible" fill="#d7598b"/><clipPath id="SVGID_2_"><use xlink:href="#SVGID_1_" overflow="visible"/></clipPath><path d="M72.541 56.381c14.43-1.832 20.69-7.766 20.994-8.064l-4.601-4.734c-.074.068-7.34 6.721-25.035 6.748-17.694-.027-24.961-6.68-25.014-6.723l-4.622 4.709c.303.303 6.616 6.283 21.185 8.088-2.454 4.01-7.171 9.402-15.379 10.883 0 0-.715 5.297 1.8 6.889 2.515 1.592 3.083 1.574 4.674 3.166 1.596 1.596 1.86 3.156 7.024 4.057 0 0 7.701-6.4 10.432-19.402C66.73 75 74.431 81.4 74.431 81.4c5.164-.9 5.428-2.461 7.024-4.057 1.591-1.592 2.159-1.574 4.674-3.166 2.515-1.592 1.799-6.889 1.799-6.889-8.224-1.481-12.946-6.895-15.387-10.907z" clip-path="url(#SVGID_2_)" fill="#fff"/><path d="M77.294 119.271c-3.338 0-5.554-.811-7.536-1.529-1.777-.65-3.312-1.213-5.792-1.236-2.411.023-3.946.586-5.723 1.236-2.281.832-4.86 1.77-9.114 1.475-5.163-.365-7.674-2.551-9.886-4.482-1.214-1.066-2.367-2.068-4.049-2.818-2.298-1.025-3.278-.945-5.047-.799-1.647.129-3.686.295-6.911-.299-4.778-.885-6.426-2.42-8.403-4.66-.815-.938-1.665-1.9-3.243-3.045-3.681-2.662-9.508-2.49-11.212-2.379l-.417-6.201c3.538-.24 10.241-.1 15.271 3.551 2.142 1.549 3.321 2.887 4.275 3.963 1.301 1.486 1.843 2.1 4.856 2.658 2.419.447 3.876.328 5.281.217 2.133-.178 4.335-.352 8.073 1.312 2.541 1.133 4.18 2.559 5.619 3.814 1.891 1.656 3.148 2.75 6.23 2.969 2.936.203 4.522-.379 6.547-1.117 2.024-.738 4.314-1.572 7.852-1.611 3.607.039 5.897.873 7.921 1.611 2.025.738 3.625 1.32 6.543 1.117 3.087-.219 4.34-1.312 6.235-2.969 1.439-1.256 3.074-2.682 5.619-3.814 3.746-1.664 5.944-1.49 8.073-1.312 1.409.115 2.862.23 5.281-.217 2.81-.516 3.352-1.15 4.544-2.529.954-1.109 2.264-2.619 4.735-4.195 4.419-2.828 9.86-3.998 15.306-3.312l-.777 6.166c-5.133-.643-8.923.934-11.186 2.383-1.704 1.094-2.515 2.031-3.373 3.018-1.852 2.146-3.516 3.73-8.121 4.584-3.23.598-5.268.428-6.911.299-1.778-.146-2.749-.227-5.047.799-1.682.75-2.835 1.752-4.05 2.818-2.215 1.932-4.722 4.117-9.89 4.482-.55.037-1.075.052-1.573.052z" clip-path="url(#SVGID_2_)" fill="#fff"/></g></g></g></svg>