<svg id="レイヤー_1" xmlns="http://www.w3.org/2000/svg" viewBox="0 0 128 128"><g><path d="M126.45 63.613c-1.043-6.781-3.186-13.489-5.863-19.181-1.711-3.647-3.623-7.221-5.861-10.576-1.316-1.97-2.744-3.868-4.377-5.593-1.066-1.139-3.975-2.625-2.777-4.513.654-1.026 2.562-1.917 3.549-2.631 2.48-1.784 4.963-3.593 7.066-5.823 4.436-4.708.287-9.173-3.809-12.072-1.125-.792-2.752-1.227-4.119-1.409-1.975-.263-4.379.44-5.992 1.516-2.074 1.37-3.934 3.026-5.457 4.987-1.887 2.426-2.709 5.081-3.795 7.883-1.016 2.605-3.559.919-5.455.44-10.738-2.724-22.488-1.144-33.111 1.388C33.017 23.617 9.632 39.84 3.612 64.2.952 74.99-.007 85.924 1.802 96.93c.471 2.84 1.029 5.75 2.103 8.435 4.967 12.379 20.145 20.79 34.045 20.423.988.127 1.965.234 2.949.294 1.281.151 2.562.22 3.748.097 15.791-.176 31.094-7.607 44.939-14.624 7.422-3.764 14.885-7.368 21.578-12.374 6.582-4.919 13.754-10.938 15.305-19.431.934-5.081.821-10.631-.019-16.137z" fill="#d7598b"/><path d="M100.202 32.291c-1.951.284-3.77.997-5.715 1.378-2.416.475-4.81 1.057-7.217 1.6-6.039 1.363-11.881 3.49-17.621 5.783-.67.269-1.35.543-2.025.817-16.99 6.928-31.648 17.69-36.107 36.314-2.188 9.147-2.693 18.594-2.656 27.972.01 1.804.715 5.002-.068 6.624-.811 1.716-3.158 1.076-4.561.621-4.807-1.555-8.767-4.543-11.447-8.839-1.93-3.101-3.195-6.669-3.584-10.308a17.34 17.34 0 0 0-.166-1.193c-.504-2.806-.684-5.667-.65-8.517.074-6.229 1.193-12.424 2.822-18.424.068-.283.15-.572.228-.856 1.008-3.613 2.361-7.338 4.121-10.664 2.549-4.825 6.275-8.933 10.342-12.527 8.264-7.299 18.287-12.404 28.496-16.399 4.004-1.565 8.254-2.552 12.527-3.041a47.346 47.346 0 0 1 5.33-.323c.854-.004 4.938-.337 5.211.733-.016-.048-8.42 2.289-9.074 2.465a72.453 72.453 0 0 0-10.297 3.55 95.064 95.064 0 0 0-6.397 3.051C43.02 36.65 34.917 42.581 28.577 50.076 22.7 57.027 18.431 65.451 17.581 74.6c-.182 1.956-1.207 6.097 1.07 7.217 1.918.943 3.551-.787 3.766-2.547.602-4.928 1.428-9.666 3.35-14.282 3.691-8.854 10.453-15.817 18.213-21.26a89.398 89.398 0 0 1 2.885-1.931c7.676-4.933 15.93-9.07 24.662-11.789 8.918-2.772 18.971-4.791 27.928-1.271 2.382.933 4.048 3.071.747 3.554z" fill="#fff"/><path d="M101.817 17.715c.336-2.062 2.365-5.95 3.035-6.723 1.35-1.56 2.582-3.222 4.721-3.608 1.244-.23 2.494.494 3.186 1.497.309.444.777 1.315.621 1.882-.156.572-.949.885-1.369 1.251-1.252 1.076-2.644 2.004-3.912 3.066-1.35 1.13-2.797 2.137-4.219 3.168-1.834 1.331-2.274.753-2.063-.533z" fill="#fff"/></g></svg>