<svg id="レイヤー_1" xmlns="http://www.w3.org/2000/svg" xmlns:xlink="http://www.w3.org/1999/xlink" viewBox="0 0 128 128"><g><path d="M56.127 25.982c0-.367.773 4.337-3.697 4.337l5.207 2.299s4.178-1.091 3.76-6.828l-5.27.192z" fill="#f79329"/><path d="M73.627 25.982c0-.367-.77 4.337 3.699 4.337l-5.211 2.299s-4.172-1.091-3.752-6.828l5.264.192z" fill="#f79329"/><g><path d="M126.838 85.304c-.578-4.017-1.711-7.941-3.021-11.771-.502-1.289-2.947-7.665-7.416-13.122a60.98 60.98 0 0 0-2.693-3.075l.223-1.853s-7.576-10.43-13.65-14.22c-6.062-3.795-25.396-7.208-25.396-7.208s-30.914 1.52-41.717 3.604c-10.805 2.089-19.523 17.632-19.523 17.632l.787 2.066C9.559 62.779 4.768 71.831 4.324 73.124c-1.387 3.959-2.559 8.02-3.164 12.18-.547 3.822-.604 7.754.244 11.54.867 3.848 2.709 7.403 5.293 10.38 2.355 2.72 5.248 4.928 8.336 6.754 6.82 4.039 14.859 5.377 22.654 5.945 8.654.635 17.516.982 26.314.702 8.797.28 17.658-.067 26.314-.702 7.803-.568 15.84-1.906 22.658-5.945 3.082-1.826 5.967-4.035 8.336-6.754 2.586-2.977 4.416-6.532 5.283-10.38.846-3.786.801-7.718.246-11.54z" fill="#d7598b"/><g><path d="M115.072 57.962c-.94.147-1.352-.386-1.891-1.049-1.084-1.328-1.973-2.794-3.043-4.128a49.632 49.632 0 0 0-3.551-3.95c-2.523-2.515-5.381-4.843-8.664-6.301a49.994 49.994 0 0 0-9.283-3.097c-3.479-.787-7.025-1.218-10.574-1.418-3.459-.191-6.986-.297-10.447-.24a75.328 75.328 0 0 0-3.617-.022 75.178 75.178 0 0 0-3.613.022c-3.467-.058-6.99.049-10.447.24-3.555.2-7.1.631-10.584 1.418a50.43 50.43 0 0 0-9.287 3.097c-3.279 1.458-6.137 3.786-8.656 6.301a47.802 47.802 0 0 0-3.541 3.95c-1.09 1.334-1.969 2.8-3.062 4.128-.527.663-.941 1.196-1.875 1.049-2.564-.409-1.182-5.51-.418-6.901 1.129-2.08 2.351-4.226 3.898-6.017 5.043-5.856 11.203-10.171 18.605-12.486 2.266-.711 4.559-1.226 6.904-1.613 3.48-.573 6.988-1.204 10.496-1.488 4.656-.378 9.322-.609 13.986-.521 1.33.027 2.658.076 3.975.107.959.111 1.98.093 2.896.191 1.289.133 2.578.244 3.883.36 5.52.484 10.914 1.213 16.189 3.031a44.135 44.135 0 0 1 5.682 2.399c3.359 1.72 6.457 3.938 9.213 6.52a49.72 49.72 0 0 1 3.35 3.501c1.533 1.791 2.76 3.937 3.889 6.017.759 1.39 2.132 6.492-.413 6.9z" fill="#fcc21b"/></g></g><g><defs><circle id="SVGID_1_" cx="58.26" cy="20.935" r="6.967"/></defs><use xlink:href="#SVGID_1_" overflow="visible" fill="#fcc21b"/><clipPath id="SVGID_2_"><use xlink:href="#SVGID_1_" overflow="visible"/></clipPath><circle cx="67.921" cy="20.935" r="6.968" clip-path="url(#SVGID_2_)" fill="#f79329"/></g><circle cx="70.844" cy="20.935" r="6.967" fill="#fcc21b"/><path d="M71.137 18.826a2.192 2.192 0 1 1-4.384-.002 2.192 2.192 0 0 1 4.384.002z" fill="#fff"/><path d="M58.25 18.828a2.19 2.19 0 0 1-2.186 2.191 2.194 2.194 0 0 1-2.199-2.191 2.193 2.193 0 0 1 4.385 0z" fill="#fff"/><path d="M18.783 73.157c-2.607.322-4.266 4.779-4.977 6.859-1.75 5.112-1.787 11.44.764 16.299 1.512 2.882 3.91 5.192 6.805 6.674a44.448 44.448 0 0 0 4.105 1.849c2.115.827 4.865 1.687 7.148 1.267 3.76-.689 3.199-4.255.703-6.279-2.199-1.782-4.307-3.423-5.977-5.768-2.516-3.517-4.146-7.605-5.021-11.824-.401-1.987-.179-9.49-3.55-9.077z" fill="#fff"/></g></svg>