<svg id="レイヤー_1" xmlns="http://www.w3.org/2000/svg" viewBox="0 0 128 128"><g><path fill="#2f2f2f" d="M19.652 67.378l-1.115 5.135 13.002 24.356 42.922 10.918 36.244-20.928-1.506-15.724-1.25-5.103z"/><g><g fill="#ed6c30"><path d="M116.16 115.773c-.311-9.451-5.139-35.164-6.961-44.638L65.094 91.658a2.54 2.54 0 0 1-1.082.238c-.352 0-.703-.068-1.025-.211l-44.45-19.172c-1.979 10.39-6.389 34.234-6.701 43.26-.27 8.395-.453 11.639 6.947 11.639h90.434c7.408 0 7.219-3.244 6.943-11.639z"/><path d="M19.652 67.378L63.97 86.496l43.979-20.463c-.199-.44-.447-.847-.768-1.177-.074-.068-.146-.119-.211-.183-3.18-3.744-9.469-3.968-9.469-3.968h-3.42a174.645 174.645 0 0 0-.164-4.833 193.246 193.246 0 0 0-1.291-14.169c-.682-5.259-1.648-10.481-3.039-15.553-1.338-4.792-3.076-9.506-5.539-13.688-2.188-3.722-5.029-7.031-8.59-9.003-6.906-3.826-16.01-3.826-22.912 0-3.565 1.973-6.412 5.282-8.59 9.003-2.467 4.183-4.201 8.896-5.529 13.688-1.4 5.072-2.371 10.294-3.053 15.553-.604 4.7-1.021 9.428-1.287 14.169-.09 1.616-.131 3.227-.154 4.833H30.5s-4.941.16-8.279 2.792c0 .004-.004.004-.004.009 0 .004-.006.009-.018.014a8.332 8.332 0 0 0-1.301 1.281l.059.019c-.576.768-.984 1.66-1.305 2.558zm24.743-24.747c.871-7.603 2.455-15.227 5.621-22.024 1.805-3.845 4.139-7.662 7.836-9.25 8.477-3.639 16.033.49 20.121 9.25 3.189 6.797 4.764 14.421 5.633 22.024.686 5.954 1.021 12.019 1.199 18.074H43.197c.182-6.056.512-12.12 1.198-18.074z"/></g><path d="M55.098 82.445c-.66 1.062-.916 2.503-1.025 3.533-.262 2.435-.367 5.31 1.871 7.071.875.691 2.33 1.382 3.465 1.542 2.59.366 5.043.467 7.51.261 2.605-.216 6.055-.252 6.756-3.167.646-2.696.6-6.064-.572-8.664-1.025-2.256-4.348-2.173-6.463-2.338-2.232-.183-4.535-.155-6.879.019-1.661.118-3.732.278-4.663 1.743z" fill="#fcc21b"/></g></g></svg>