<svg id="レイヤー_1" xmlns="http://www.w3.org/2000/svg" viewBox="0 0 128 128"><g><g fill="#ed6c30"><path d="M98.488 26.778c-1.203-1.238-2.107-2.623-3.23-3.916-4.068-4.575-5.605-10.475-7.922-15.994-.82-1.949-1.956-5.825-4.527-5.743-.695.017-2.157.035-2.526.778-.218.441.04 1.627.191 2.045 2.852 7.94 6.024 17.127-1.047 23.891-5.11 4.893-10.707 9.179-15.43 14.481-4.718-5.303-10.31-9.588-15.425-14.481-7.071-6.764-3.903-15.95-1.042-23.891.147-.418.41-1.603.187-2.045-.365-.743-1.835-.762-2.521-.778-2.576-.082-3.707 3.794-4.527 5.743-2.326 5.52-3.858 11.419-7.931 15.994-1.123 1.293-2.023 2.678-3.226 3.916-6.149 6.359-11.522 16.397-6.675 25.044 1.497 2.669 4.287 5.432 6.986 6.894 2.834 1.524 6.167 2.819 9.303 3.529 2.87.649 5.837.873 8.769.57 4.723-.49 9.209-2.37 12.939-5.302 1.038-.811 2.17-1.757 3.163-2.78.998 1.023 2.13 1.97 3.164 2.78 3.734 2.932 8.216 4.812 12.948 5.302 2.923.303 5.89.079 8.76-.57 3.141-.71 6.478-2.005 9.303-3.529 2.705-1.462 5.499-4.225 6.991-6.894 4.843-8.647-.521-18.684-6.675-25.044z"/><path d="M101.906 91.032c-.356-.673-.74-1.436-1.261-2.018-.281-.313-1.19-1.203-1.608-1.297-1.613-.353-3.057 1.242-4.287 1.911-5.431 2.959-11.815 4.249-17.946 5.369-6.737 1.229-13.679 1.714-20.531 1.092-5.347-.482-10.613-1.739-15.604-3.538-2.789-1.008-6.153-1.739-8.635-3.258-.971-.593-2.41-1.862-3.702-1.576-.423.094-1.333.983-1.608 1.297-.526.582-.909 1.345-1.266 2.018-.566 1.064-1.265 2.013-1.707 3.124-.672 1.691-1.435 3.016-1.171 4.868.031.263 4.232.242 4.669.263 3.93.224 7.103 2.04 9.731 4.611.655.644 1.239 1.347 1.889 1.988 4.371 4.291 8.216 9.014 12.814 13.117 2.406 2.146 4.919 4.344 7.784 5.971 1.582.896 3.284 2.063 5.2 1.884 3.466-.33 7.031-4.474 9.321-6.581 5.676-5.217 10.261-11.396 16.209-16.364 2.771-2.322 6.041-4.402 9.918-4.626.437-.021 4.643 0 4.674-.263.258-1.853-.503-3.177-1.172-4.868-.446-1.111-1.141-2.059-1.711-3.124z"/></g><g fill="#fff"><path d="M29.076 40.334c-1.172-.14-2.192-.879-2.201-2.313-.018-2.149 2.099-3.778 4.197-2.999 1.336.495 1.595 1.967 1.39 3.214-.245 1.511-1.934 2.27-3.386 2.098z"/><path d="M42.247 30.525c-.815 1.319-2.75 1.75-4.082.892-1.064-.686-1.265-2.37-.722-3.413.722-1.391 2.397-1.998 3.787-1.194 1.364.787 1.841 2.375 1.017 3.715z"/><path d="M44.813 36.947c.303-1.431 2.183-2.352 3.466-1.893 1.996.712 2.843 3.795.646 4.85-2.089 1.006-4.62-.55-4.112-2.957z"/><path d="M30.809 54.199c.178-.566.611-1.062 1.172-1.449 1.047-.731 2.308-.099 3.221.562 1.35.976 1.475 3.885-.414 4.313-1.421.33-3.297-.681-3.872-2.001-.223-.513-.241-.988-.107-1.425z"/><path d="M40.282 42.506c1.336.146 2.415 1.55 2.41 2.852 0 .433-.031.763-.143 1.141-.526 1.8-3.043 2.051-4.419 1.176-1.693-1.077-1.546-3.606.138-4.628a3.71 3.71 0 0 1 1.573-.541 2.32 2.32 0 0 1 .441 0z"/><path d="M58.665 43.039c.089.018.174.041.25.068 1.096.385 1.323 1.247 1.533 2.273.209 1.021.076 1.554-.824 2.178-1.515 1.045-3.373-.217-3.658-1.862-.299-1.732.966-3.002 2.699-2.657z"/><path d="M50.574 52.04c2.17-.084 3.119 2.833 1.863 4.354-1.631 1.976-5.449.564-4.647-2.194.391-1.352 1.621-2.117 2.784-2.16z"/></g><g fill="#fff"><path d="M98.921 40.334c1.171-.14 2.192-.879 2.201-2.313.018-2.149-2.099-3.778-4.197-2.999-1.337.495-1.595 1.967-1.391 3.214.245 1.511 1.934 2.27 3.387 2.098z"/><path d="M85.75 30.525c.815 1.319 2.749 1.75 4.081.892 1.065-.686 1.265-2.37.722-3.413-.722-1.391-2.397-1.998-3.787-1.194-1.364.787-1.84 2.375-1.016 3.715z"/><path d="M83.184 36.947c-.303-1.431-2.183-2.352-3.466-1.893-1.996.712-2.843 3.795-.646 4.85 2.089 1.006 4.619-.55 4.112-2.957z"/><path d="M97.188 54.199c-.178-.566-.61-1.062-1.172-1.449-1.047-.731-2.308-.099-3.221.562-1.35.976-1.475 3.885.415 4.313 1.421.33 3.297-.681 3.871-2.001.222-.513.24-.988.107-1.425z"/><path d="M87.715 42.506c-1.336.146-2.414 1.55-2.41 2.852 0 .433.031.763.143 1.141.525 1.8 3.043 2.051 4.42 1.176 1.693-1.077 1.546-3.606-.138-4.628a3.705 3.705 0 0 0-1.573-.541 2.33 2.33 0 0 0-.442 0z"/><path d="M69.332 43.039a1.85 1.85 0 0 0-.25.068c-1.096.385-1.323 1.247-1.533 2.273-.209 1.021-.076 1.554.824 2.178 1.515 1.045 3.373-.217 3.658-1.862.299-1.732-.966-3.002-2.699-2.657z"/><path d="M77.423 52.04c-2.17-.084-3.119 2.833-1.862 4.354 1.63 1.976 5.449.564 4.647-2.194-.393-1.352-1.622-2.117-2.785-2.16z"/></g><g fill="#fff"><path d="M65.215 107.033c1.171-.14 2.192-.879 2.201-2.314.018-2.149-2.098-3.777-4.197-2.998-1.337.494-1.595 1.967-1.39 3.216.244 1.509 1.933 2.269 3.386 2.096z"/><path d="M51.251 103.482c-.303-1.43-2.183-2.349-3.466-1.892-1.996.714-2.843 3.795-.646 4.852 2.089 1.004 4.62-.551 4.112-2.96z"/><path d="M81.477 102.343c-.303-1.431-2.183-2.352-3.466-1.893-1.996.715-2.843 3.795-.646 4.85 2.09 1.007 4.62-.55 4.112-2.957z"/><path d="M74.067 113.749c-.303-1.431-2.183-2.352-3.466-1.892-1.996.712-2.843 3.795-.646 4.849 2.09 1.005 4.621-.549 4.112-2.957z"/><path d="M56.544 111.896c-1.336.145-2.415 1.548-2.41 2.852 0 .432.031.762.143 1.142.526 1.801 3.043 2.051 4.42 1.176 1.693-1.077 1.546-3.606-.138-4.63a3.729 3.729 0 0 0-1.573-.539 2.611 2.611 0 0 0-.442-.001z"/><path d="M35.492 93.567c-1.194.129-2.156 1.382-2.156 2.548 0 .386.027.683.129 1.021.468 1.608 2.722 1.834 3.952 1.051 1.515-.965 1.381-3.225-.125-4.139a3.297 3.297 0 0 0-1.408-.48 1.773 1.773 0 0 0-.392-.001z"/><path d="M89.836 95.29c-1.885.514-2.58 3.199-.864 4.344 2.316 1.539 5.596-1.662 3.181-3.887-.642-.582-1.511-.681-2.317-.457z"/></g></g></svg>