<svg id="レイヤー_1" xmlns="http://www.w3.org/2000/svg" viewBox="0 0 128 128"><g><g><g><g><path d="M33.682 66.752c-2.738-2.062-5.747-3.608-9.106-4.416-.86-.207-4.084-1.027-6.767-1.104-2.451-.069-5.015.354-5.914 2.062-.509.974-.485 1.865-.613 2.936-.74 6.209 1.982 13.95 6.607 18.236 1.712 1.585 4.171 2.813 6.416 3.271 5.643 1.15 10.372-.104 12.863-4.521a10.62 10.62 0 0 0 1.059-2.679c.422-1.672.462-3.441.135-5.139-.445-2.377-2.204-6.78-4.68-8.646z" fill="#40c0e7"/><path d="M82.43 75.491c-3.16-.807-9.998-1.764-14.719-1.162-2.26.234-4.489.71-6.232 1.786-2.603 1.606-3.383 4.905-3.064 7.802.493 4.505 2.65 8.899 6.121 11.885 3.534 3.048 8.255 4.131 12.768 4.728 2.133.282 4.362.478 6.479.205 2.166-.276 4.219-1.042 5.931-2.7 2.778-2.675 4.672-6.939 4.688-10.834.015-6.972-5.764-10.134-11.972-11.71z" fill="#40c0e7"/><path d="M110.839 55.185c-2.149 2.662-4.402 5.237-6.575 7.88-1.584 1.937-3.319 5.496-5.763 6.443-1.027.4-1.831-.123-2.746-.473-.804-.307-1.616-.609-2.419-.904-1.131-.418-2.277-.907-3.439-1.213-6.718-1.748-13.468-2.884-20.425-2.597-3.534.148-6.63.304-10.093 1.06-2.021.445-3.773 1.377-5.866 1.504-1.767.108-3.59.021-5.286-.517-1.719-.547-2.619-1.689-4.02-2.727-2.412-1.783-4.259-3.937-6.933-5.421a34.273 34.273 0 0 0-6.257-2.654c-1.544-.493-3.885-.645-5.15-1.739-.207-.179-.637-.623-.629-.9.008-.418.637-.7.924-.907 5.238-3.744 10.491-7.302 16.047-10.585 2.285-1.351 4.513-2.823 6.925-3.945 3.669-1.708 8.271-2.41 12.267-1.664 3.358.625 4.131 3.851 5.738 6.331 1.521 2.35 4.744 3.458 7.196 1.977 3.097-1.864 3.359-6.648 1.64-9.573-2.236-3.811-8.334-5.241-12.353-5.941-2.253-.394-4.585-.519-6.87-.444-13.119.42-23.984 9.5-35.43 14.775-4.131 1.907-8.47 3.428-12.409 5.747-5.055 1.481-9.799 4.201-7.746 9.244.462 1.125 1.154 2.155 1.552 3.306.454 1.293.167 2.344.159 3.649-.008 1.154.04 2.313.135 3.462a41.928 41.928 0 0 0 1.234 7.087c1.218 4.633 3.208 9.141 6.137 12.951 2.754 3.583 6.423 6.52 10.81 7.805 1.193.352 2.436.576 3.677.677 8.501.681 15.378-2.344 19.303-10.052 1.25-2.443 1.043-6.282 4.912-5.337 2.284.561 2.006 4.386 2.34 6.15.86 4.611 2.914 8.926 6.36 12.161.302.283.605.555.923.818 6.272 5.198 14.63 8.436 22.797 8.461a21.694 21.694 0 0 0 6.886-1.104c4.155-1.393 8.063-3.864 10.897-7.228 2.316-2.747 3.606-6.13 4.37-9.604.358-1.626.461-3.34 1.027-4.912.836-2.355 2.85-4.536 2.842-7.14-.008-1.034-.533-1.985-.175-3.015.358-1.019 1.083-2.024 1.592-2.973 1.966-3.66 3.749-7.417 5.858-10.995.669-1.131 1.297-2.3 2.086-3.35.43-.575 1.409-1.979 2.212-1.569.772.395.431 2.045.462 2.71.111 2.466 1.696 5.847 4.768 4.566 1.895-.79 2.882-2.173 2.969-4.262.159-3.593-.414-7.334-1.95-10.589-3.542-7.542-11.869 2.288-14.511 5.57zM38.228 80.538a10.62 10.62 0 0 1-1.059 2.679c-2.492 4.417-7.22 5.671-12.863 4.521-2.245-.458-4.705-1.687-6.416-3.271-4.625-4.286-7.347-12.027-6.607-18.236.128-1.07.104-1.962.613-2.936.899-1.707 3.463-2.131 5.914-2.062 2.683.077 5.907.897 6.767 1.104 3.359.808 6.368 2.354 9.106 4.416 2.476 1.865 4.235 6.269 4.68 8.646a11.927 11.927 0 0 1-.135 5.139zm51.485 17.496c-1.712 1.658-3.765 2.424-5.931 2.7-2.117.272-4.346.077-6.479-.205-4.513-.597-9.234-1.68-12.768-4.728-3.471-2.985-5.628-7.38-6.121-11.885-.318-2.896.462-6.195 3.064-7.802 1.743-1.076 3.972-1.552 6.232-1.786 4.721-.602 11.559.355 14.719 1.162 6.208 1.576 11.987 4.738 11.972 11.709-.016 3.895-1.91 8.16-4.688 10.835z" fill="#855c52"/></g><path d="M88.519 86.224c-1.461-1.433-2.901.827-7.279 3.177-2.348 1.261-5.508 1.944-8.008 2.878-.613.23-1.337.378-1.771.915-1.7 2.104 2.929 2.778 4 3.053 4.132 1.057 12.155.274 13.524-5.867.31-1.398.481-3.226-.466-4.156z" fill="#fff"/><path d="M33.941 77.142c-.039-.034-.087-.063-.131-.092-1.254-.744-2.209 1.091-2.965 1.78-.864.785-1.918 1.545-2.957 2.177-.824.497-2.448 1.042-2.747 2.053-.581 1.998 2.79 1.545 3.765 1.415 2.177-.288 4.597-1.51 5.361-3.727.335-.969.621-2.874-.326-3.606z" fill="#fff"/></g><path d="M23.788 57.278c.247-1.367-1.377-1.806-2.372-2.108-2.082-.625-4.195-1.129-6.276-1.752-2.329-.696-4.016-1.906-6.539-1.908-1.457-.002-3.654.434-4.474 1.773-.884 1.45-.804 3.52.063 4.938 1.114 1.831.832 3.71.875 5.733.032 1.447-.195 3.602.78 4.766.68.814 1.433.613 1.918-.24.652-1.137.119-2.826.449-4.094.649-2.476 2.44-4.464 4.657-5.667 2.718-1.479 5.743-.627 8.636-.414.906.067 2.072.083 2.283-1.027z" fill="#b89278"/><path d="M76.085 67.564c-2.965-.806-7.721-.403-9.217-.414-2.229-.014-4.394.475-6.523.978-1.437.341-2.877.699-4.215 1.051-3.025.797-10.415-3.256-9.504 3.235.462 3.283 5.405 3.599 7.853 2.95 2.05-.543 3.917-1.895 5.839-2.759 2.523-1.131 5.103-1.827 7.829-2.256 2.276-.361 4.561-.518 6.857-.266.979.107 4.116 1.338 3.479-.791-.264-.858-1.18-1.395-2.398-1.728z" fill="#b89278"/><g><path d="M69.63 32.299c-2.014.582-.565 2.609.107 3.706.776 1.271.712 2.877 2.392 3.327 1.306.349 3.049-.157 3.391-1.604.542-2.321-1.743-4.701-3.797-5.314a4.513 4.513 0 0 0-1.767-.176c-.12.012-.23.032-.326.061z" fill="#b89278"/></g></g><path d="M115.877 51.527c-.187.251-.35.491-.478.717-.517.895-.923 2.555.597 2.646.701.042 1.541-.541 2.185-.792 1.512-.591 2.758-2.179 4.525-2.009 2.038.194 1.521-1.997.645-3.016-2.137-2.493-5.826.275-7.474 2.454z" fill="#b89278"/></g></svg>