<svg id="レイヤー_1" xmlns="http://www.w3.org/2000/svg" xmlns:xlink="http://www.w3.org/1999/xlink" viewBox="0 0 128 128"><g><path d="M126.418 63.507c-.808-6.043-2.114-12.184-3.302-18.059-.879-4.314-1.726-8.631-2.454-12.977-.285-1.707-.649-3.428-.839-5.152-.333-2.979 1.204-8.607-3.159-8.766-3.041-.119-11.29 4.596-15.376 4.633-3.626.031-11.987-7.287-15.47-9.699-2.352-1.623-4.283-3.041-7.212-3.943-2.565-.791-7.062 3.057-8.907 4.608-1.766 1.488-4.387 4.188-5.701 5.57 0 0-2.375 2.514-4.362 4.795-2.731 3.127-6.872 9.223-8.479 10.647-.626.555-1.671.467-2.074-.348-.404-.807.657-2.582 2.185-4.963 2.906-4.529 7.411-9.699 10.237-12.684-1.093-1.094-2.265-2.225-3.207-3.017-1.844-1.551-6.341-5.398-8.906-4.608-2.93.902-4.861 2.32-7.205 3.943-3.491 2.412-11.844 9.731-15.478 9.699-4.086-.037-12.327-4.752-15.367-4.633-4.37.158-2.835 5.787-3.159 8.766-.19 1.725-.562 3.445-.848 5.152-.728 4.346-1.575 8.662-2.454 12.977-1.188 5.875-2.494 12.016-3.302 18.059-.775 5.805-1.694 12.375-.498 18.17.293 1.426.689 2.557 1.813 3.584 2.93 2.664 8.107 4.16 11.789 5.402 3.555 1.205 12.747 3.168 16.04 2.074 2.803-.918 3.895-4.068 4.687-6.713.491-1.631.506-3.197 1.18-5.621.459-1.662 1.504-1.67 1.663.037.388 4.191 3.286 30.27 4.054 35.486.443 3.008 2.407 4.062 4.584 5.084 3 1.408 10.577 2.815 17.109 2.731 6.54.084 14.108-1.322 17.109-2.731 2.186-1.021 4.141-2.076 4.585-5.084.768-5.217 3.665-31.295 4.053-35.486.158-1.707 1.204-1.699 1.671-.037.673 2.424.688 3.99 1.172 5.621.799 2.645 1.884 5.795 4.687 6.713 3.302 1.094 12.485-.869 16.048-2.074 3.681-1.242 8.851-2.738 11.781-5.402 1.124-1.027 1.528-2.158 1.821-3.584 1.185-5.795.266-12.365-.509-18.17z" fill="#757f3f"/><g><g><g><g><defs><path id="SVGID_1_" d="M39.653 70.712c.039.057.079.102.119.15 1.449 1.719 4.655 1.988 6.603 2.375a85.302 85.302 0 0 0 12.509 1.504c8.123.389 16.151-.01 24.235-1.701 2.882-.602 5.115-1.893 5.115-5.633v-3.709c0-4.768.411-9.73.095-14.469-.174-2.602-.618-3.734-3.096-3.488-1.789.188-3.586.324-5.384.432-9.714.574-19.468.383-29.183-.059-2.28-.109-4.553-.23-6.825-.373-.815-.051-1.631-.104-2.446-.162-1.314-.09-2.343-.4-2.478 1.492-.071.936 0 1.906 0 2.842v7.967c0 3.055.135 6.156-.023 9.199-.064 1.211.039 2.668.759 3.633z"/></defs><use xlink:href="#SVGID_1_" overflow="visible" fill="#ed6c30"/><clipPath id="SVGID_2_"><use xlink:href="#SVGID_1_" overflow="visible"/></clipPath></g><g><defs><path id="SVGID_3_" d="M73.919 40.372c-3.579-.055-8.788 1.467-9.92 1.584-.333.037-7.616-1.733-11.037-1.584-8.432.373-13.712 2.619-13.775 2.818-.198.611-.127 1.649.11 2.061.316.541 11.377 1.604 24.702 1.604 2.684 0 5.36-.062 8.044-.15 8.843-.293 11.623-.25 15.376-.947.427-.08.309-2.498-.546-2.785-2.163-.728-8.038-2.519-12.954-2.601z"/></defs><use xlink:href="#SVGID_3_" overflow="visible" fill="#fff"/><clipPath id="SVGID_4_"><use xlink:href="#SVGID_3_" overflow="visible"/></clipPath></g></g></g><path d="M89.919 56.552a2.022 2.022 0 0 0-2.542-1.326c-.079.023-8.4 2.582-23.403 2.582-15.05 0-24.211-2.568-24.298-2.596a2.028 2.028 0 0 0-1.124 3.895c.356.102 8.067 2.266 21.139 2.678l-1.963 2.32a2.026 2.026 0 1 0 3.096 2.616l3.341-3.949 3.341 3.949c.396.477.966.721 1.544.721.467 0 .926-.158 1.306-.482a2.02 2.02 0 0 0 .238-2.855l-1.972-2.332c12.731-.441 19.659-2.58 19.983-2.684a2.016 2.016 0 0 0 1.314-2.537z" fill="#fcc21b"/></g></g></svg>