<svg id="图层_1" xmlns="http://www.w3.org/2000/svg" viewBox="0 0 128 128"><g/><g><g/><g/><g fill="#2f2f2f"/></g><g><g/><g/><g><g/><g/></g></g><g/><g><g/><g/><g><g/><g/></g></g><g/><g><path d="M83.288 38.067c5.323-1.429 14.261-8.263 20.116-8.913 2.114-.235 5.372-.078 7.413.521 4.38 1.285 6.977 4.975 8.594 9.244 1.267 3.346 3.401 8.814 3.747 17.962.024.642.384 1.765-.108 2.179-.397.334-.963.348-1.482.346-2.382-.009-6.366-.407-8.748-.415-1.345-.005-2.828-.061-3.816-.974-1.155-1.067-1.171-2.855-1.103-4.425-1.837-2.647-5.56-2.918-8.774-3.143-3.214-.224-7.02-1.112-8.118-4.141-.356-.982-.355-2.051-.35-3.095.017-3.46-7.389-1.687-7.371-5.146z" fill="#e0e0e0"/><path d="M87.271 44.174c5.988-3.072 11.535-8.746 17.971-8.979.822-.03 1.66-.042 2.452.191 1.616.477 2.87 2.049 3.002 3.763.178 2.313-1.484 4.333-3.268 5.75-3.519 2.796-7.879 4.359-12.309 4.926-1.149.147-2.398.209-3.383-.423-.87-.558-1.365-1.55-1.818-2.494-1.167-2.428-1.48-.304-2.647-2.734z" fill="#757575"/><path d="M5.793 89.155c-4.755-.341-5.35 12.636 1.241 18.5 5.642 5.019 14.254 6.63 21.368 7.254 23.645 2.071 47.863-9.095 52.296-10.472 4.473-1.389 26.941-9.603 35.184-13.602 2.817-1.367 8.141-3.396 9.111-5.639 1.087-2.513.74-8.654.191-12.998-.141-1.116-.425-2.286-1.228-3.073-1.314-1.287-3.717.045-5.503.484-6.904 1.7-11.113 4.176-17.663 6.944-3.403 1.438-6.906 2.627-10.405 3.815-16.808 5.704-33.878 11.46-51.603 12.389-11.449.599-21.613-2.17-32.989-3.602z" fill="#78909c"/><path d="M58.528 39.218c1.014-6.043 4.563-11.9 10.652-12.586 4.598-.518 20.09 1.803 23.256 5.178 6.555 6.99-1.739 14.122-1.424 15.318.431 1.64 2.891 2.665 5.911 1.942 2.686-.643 4.107-1.887 6.904-2.718 2.766-.822 4.922 1.59 6.205 4.142 1.691 3.366 4.669 4.013 7.786 4.122 1.364.048 3.634-.057 4.649.43 1.036.496 1.68 1.948 1.985 3.033 1.586 5.658 2.423 13.084-.879 17.945-4.083 6.011-31.39 14.227-38.904 17.273-7.149 2.898-26.175 9.297-33.847 8.487-.563-.059-1.171-.162-1.56-.574-.505-.536-.45-1.371-.379-2.104.488-5.019-12.92-26.061-16.736-27.815-.809-.372-1.675-1.015-1.636-1.904.023-.527-.086-1.069.363-1.346 2.55-1.576 3.422-2.903 5.296-4.775 1.103-1.102 1.553-2.848 3.366-4.574 1.051-1.001 3.826-1.973 4.677-2.986 1.086-1.293 1.531-2.368 2.703-3.621 2.125-2.274 3.5-2.111 5.047-3.749.827-.876 1.448-2.805 2.244-4.109.817-1.341 3.926-3.342 4.321-5.009z" fill="#0288d1"/><path d="M29.645 67.529c-8.664 5.612-14.314 8.224-23.076 17.57-1.451 1.548-2.262 5.136-1.958 7.235.34 2.353 2.006 4.307 3.863 5.791 5.773 4.613 12.556 5.704 19.93 6.196 7.895.526 17.875-.149 25.938-1.485 1.671-.277 3.609-1.893 3.962-3.326.777-3.15.226-9.592.188-12.18-.063-4.342-.749-6.546-2.821-9.049-2.872-3.471-6.798-5.188-11.406-7.116-4.607-1.928-10.759-5.615-14.62-3.636z" fill="#e0e0e0"/><path d="M57.114 46.767c.35-.55.785-.992 1.303-1.38.309-.23.669-.392 1.056-.505 4.302-1.24 9.431.369 13.602 1.55 2.678.758 10.833 3.345 7.965 7.637-.748 1.109-2.245 1.853-3.576 1.781-1.893-.104-3.273-1.533-4.877-2.371-1.808-.947-3.584-1.826-5.532-2.489a62.814 62.814 0 0 0-4.792-1.474c-1.412-.36-2.652-.297-4.08-.464-.36-.04-.667.046-1.005-.135-.762-.41-.43-1.568-.064-2.15z" fill="#fff"/><path d="M49.4 53.867c1.11-1.375 2.658-1.691 4.288-1.763.582-.027 1.177-.018 1.772-.018 3.562 0 7.097.82 10.305 2.381 2.142 1.036 4.494 2.114 6.041 3.975.902 1.092 1.822 2.151 1.394 3.67-1.375 4.837-7.496-.667-9.47-1.704-1.705-.888-3.798-1.97-5.635-2.52-.93-.275-1.905-.347-2.824-.604-1.774-.491-3.459-.604-5.245-.865-1.526-.221-1.409-1.569-.626-2.552z" fill="#fff"/><path d="M41.423 61.463c.811-1.379 2.698-1.754 4.156-1.92l.081-.005c3.028-.306 6.472.672 9.359 1.524 1.009.297 2.174.591 3.137 1.005 2.087.902 4.417 2.141 5.979 3.814 2.362 2.529-.433 4.517-3.315 4.242-.5-.046-.884-.257-1.347-.401-.7-.216-1.442-.265-2.15-.46-2.083-.577-3.999-1.46-5.874-2.493-.957-.528-1.948-.857-2.967-1.267-1.222-.492-2.407-.852-3.651-1.299-.971-.352-2.559-.297-3.382-.969-.496-.41-.34-1.257-.026-1.771z" fill="#fff"/></g></svg>