<svg id="レイヤー_1" xmlns="http://www.w3.org/2000/svg" viewBox="0 0 128 128"><g><g><path d="M104.346 71.811c-.908-7.445-1.558-14.937-2.583-22.367-.784-5.676-1.813-11.315-2.854-16.947-.263-1.408-.521-2.818-.779-4.227-.471-2.57-1.371-5.062-1.754-7.629-.429-2.871-.104-5.797-.438-8.676-.558-4.867-4.475-6.142-8.634-7.666C82.386 2.49 77.219 1.455 72.006.973a74.043 74.043 0 0 0-6.28-.301c-.558 0-1.15-.053-1.725-.049-.575-.004-1.167.049-1.726.049-2.1.014-4.196.109-6.284.301-5.208.482-10.38 1.518-15.296 3.326-4.163 1.523-8.072 2.799-8.639 7.666-.333 2.879-.008 5.805-.433 8.676-.383 2.566-1.284 5.059-1.754 7.629-.258 1.408-.521 2.818-.779 4.227-1.042 5.633-2.066 11.271-2.854 16.947-1.029 7.43-1.671 14.922-2.579 22.367-1.138 9.301-.438 19.135.083 28.473.35 6.305 1.642 12.348 2.458 18.576.184 1.389.35 3.746 1.417 4.771.816.787 2.083 1.508 3.083 1.992 5.163 2.482 11.834 2.207 16.993-.039 8.292-3.607 6.95-10.746 6.054-18.129-.846-7-.504-14.135-.504-21.168 0-1.9-.05-3.801-.038-5.693.017-2.32.663-4.733 1.029-7.022.467-2.908 1-5.803 1.554-8.695.921-4.805 2.154-9.602 3.238-14.367.375-1.684.55-3.201 1.229-4.789.307-.721.54-1.457.898-2.121.163-.295.425-1.057.658-1.254.725-.607 3.642-.625 4.384 0 .233.197.492.959.65 1.254.362.664.592 1.4.9 2.121.679 1.588.85 3.105 1.233 4.789 1.075 4.766 2.317 9.562 3.233 14.367a281.971 281.971 0 0 1 1.55 8.695c.366 2.289 1.017 4.701 1.033 7.022.017 1.892-.042 3.793-.042 5.693 0 7.033.351 14.168-.5 21.168-.896 7.383-2.233 14.521 6.051 18.129 5.167 2.246 11.834 2.521 16.993.039 1.008-.484 2.267-1.205 3.083-1.992 1.071-1.025 1.242-3.383 1.421-4.771.812-6.229 2.113-12.271 2.463-18.576.518-9.339 1.218-19.173.085-28.473z" fill="#006ca2"/></g><path d="M50.696 18.092c-4.225 7.963-10.192 8.201-14.334 8.201l1.154.002c-1.575 0-3.9-.178-3.942-.186-.429-.074-.575-.479-.508-.912l.025-1.182a.792.792 0 0 1 .867-.67c10.434.945 14.159-6.002 14.301-6.281a.813.813 0 0 1 .812-.424l1.017.281a.801.801 0 0 1 .608 1.171z" fill="#fff"/><path d="M65.985 37.699a.8.8 0 0 1-.8.801h-2.017a.8.8 0 0 1-.8-.801V20.857c0-.441.358-.801.8-.801h2.017a.8.8 0 0 1 .8.801v16.842z" fill="#fff"/><path d="M93.85 25.873c-.042.008-1.062.182-2.642.182-4.142 0-10.346-.199-14.576-8.162a.812.812 0 0 1-.004-.746.817.817 0 0 1 .613-.426l1.121-.08a.813.813 0 0 1 .808.424c.142.279 3.867 7.234 14.31 6.281.454-.033.796.258.858.67l.162.943a.799.799 0 0 1-.65.914z" fill="#fff"/><path d="M72.769 13.465c-8.142.354-16.309.047-24.418-.736-.425-.039-1.325-.098-2.358-.231-2.617-.332-6.042-1.146-4.434-3.391.941-1.318 3.079-1.617 4.533-1.984a65.929 65.929 0 0 1 6.092-1.225 67.925 67.925 0 0 1 7.175-.701c7.801-.361 16.03-.125 23.477 2.467 1.125.392 2.601.863 3.301 1.908 2.183 3.264-7.526 3.469-8.918 3.58-1.484.125-2.967.25-4.45.313z" fill="#2f2f2f"/></g></svg>