<svg id="レイヤー_1" xmlns="http://www.w3.org/2000/svg" viewBox="0 0 128 128"><g><path d="M123.58 37.18c-1.109-3.674.131-7.559-.559-11.29-.572-3.139-1.984-6.087-3.656-8.779-3.041-4.872-9.197-7.07-14.639-7.745-3.678-.461-7.566.032-10.934-1.867-2.451-1.384-5.049-2.842-7.732-3.876C79.331 1.034 71.615.68 64.458.471l-.465-.01-.465.01c-7.141.21-14.857.564-21.592 3.152-2.678 1.034-5.277 2.492-7.732 3.876-3.361 1.899-7.25 1.406-10.94 1.867-5.434.675-11.586 2.873-14.629 7.745-1.676 2.692-3.082 5.64-3.66 8.779-.69 3.731.549 7.615-.559 11.29-.252.834-1.295 2.063-.889 2.99.422.973 2.732 1.676 3.6 2.18 2.914 1.709 6.111 2.919 9.348 3.884 2.174.647 4.428 1.989 6.775 1.658 1.006-.144 1.789-.55 1.938-1.593.447-3.176 1.568-6.417 2.607-9.444.279-.825.703-2.277 1.883-2.185.797.066 1.248 1.793 1.195 2.417-.185 2.394-.754 4.755-.838 7.164-.098 2.524.621 4.568 1.422 6.902.902 2.594 2.002 5.119 2.775 7.754.828 2.874.334 5.901-.508 8.709-2.022 6.702-4.756 12.831-7.443 19.268-1.008 2.412-1.891 4.872-2.877 7.289a64.318 64.318 0 0 1-1.436 3.251c-1.387 2.92-4.373 5.114-3.99 8.747.596 5.724 5.961 9.04 10.414 11.792 10.566 6.544 23.17 9.636 35.6 9.576 12.439.061 25.043-3.032 35.615-9.576 4.438-2.752 9.812-6.068 10.41-11.792.381-3.633-2.605-5.826-3.992-8.747a57.064 57.064 0 0 1-1.43-3.251c-.983-2.417-1.873-4.876-2.879-7.289-2.692-6.437-5.426-12.566-7.443-19.268-.842-2.808-1.35-5.835-.508-8.709.77-2.636 1.877-5.161 2.768-7.754.807-2.333 1.523-4.378 1.43-6.902-.084-2.408-.652-4.77-.844-7.164-.045-.624.4-2.351 1.189-2.417 1.191-.093 1.611 1.36 1.891 2.185 1.043 3.027 2.156 6.268 2.607 9.444.148 1.043.932 1.449 1.938 1.593 2.355.331 4.602-1.011 6.781-1.658 3.236-.964 6.428-2.175 9.352-3.884.857-.503 3.168-1.207 3.596-2.18.402-.926-.635-2.156-.893-2.99z" fill="#fcc21b"/><path d="M53.842 26.766c-2.6 1.15-5.59.964-8.225-.009l-.168-.065c-1.49-.573-3.074-1.546-4.285-2.594-3.902-3.39-4.289-9.296-2.752-13.92.404-1.207 1.779-2.841 3.219-2.543.213.046.428.13.646.242 1.439.745 2.52 1.961 3.834 2.892 2.281 1.617 4.641 2.334 7.209 3.326a37.147 37.147 0 0 0 5.523 1.658c.498.102 1.057.265 1.523.442.717.271.758 1.071.791 1.728.088 1.691-1.666 3.833-2.658 5.067-1.263 1.573-2.794 2.956-4.657 3.776z" fill="#fff"/><path d="M86.145 24.098c-1.209 1.048-2.795 2.021-4.295 2.594l-.158.065c-2.625.974-5.615 1.16-8.223.009-1.873-.82-3.396-2.203-4.658-3.777-.988-1.234-2.748-3.376-2.664-5.067.037-.657.084-1.458.801-1.728.467-.177 1.025-.34 1.518-.442a36.994 36.994 0 0 0 5.525-1.658c2.57-.992 4.926-1.709 7.209-3.326 1.312-.931 2.398-2.146 3.832-2.892.225-.112.439-.196.648-.242 1.438-.298 2.812 1.336 3.213 2.543 1.545 4.625 1.154 10.531-2.748 13.921z" fill="#fff"/><circle cx="63.688" cy="103.049" r="4.681" fill="#f79329"/><circle cx="63.688" cy="79.003" r="4.68" fill="#f79329"/><circle cx="63.688" cy="54.957" r="4.681" fill="#f79329"/><circle cx="63.688" cy="30.911" r="4.68" fill="#f79329"/></g></svg>