<svg id="图层_1" xmlns="http://www.w3.org/2000/svg" viewBox="0 0 128 128"><path d="M126.715 29.411c-2.115-2.451-7.412-6.448-10.715-9.239-3.387-2.862-10.657-8.342-12.875-9.234-8.983-3.613-13.03-4.86-21.708-7.238 0 0-8.326 2.039-17.417 2.039S46.583 3.7 46.583 3.7c-8.677 2.379-12.725 3.625-21.708 7.239-2.218.891-9.488 6.371-12.875 9.233-3.302 2.791-8.599 6.787-10.715 9.239-.214.233-.325 1.164-.307 2.089.142 5.297 2.94 8.217 6.521 13.75 3.873 5.983 6.627 8.938 9.587 11.218.52.444 1.848.15 2.788-.593 3.175-2.509 4.36-4.111 6.429-5.118.009 0 1.665-.799 2.196-.174.73.859.334 3.59-.583 14.417 0 0-.633 14.371-1.083 19.083-.512 5.276-.493 10.61-.796 15.953-.263 4.548-.405 9.201-.539 13.447.001.398.401.993.516 1.212 2.894 5.284 8.764 7.029 14.668 8.128a127.902 127.902 0 0 0 23.317 2.131c7.837 0 15.675-.71 23.317-2.131 5.904-1.099 11.773-2.844 14.668-8.128.116-.219.516-.814.516-1.212-.134-4.246-.276-8.899-.539-13.447-.303-5.343-.284-10.678-.796-15.953-.448-4.712-1.082-19.083-1.082-19.083-.917-10.827-1.313-13.558-.583-14.417.531-.625 2.187.174 2.196.174 2.069 1.008 3.254 2.609 6.429 5.118.94.743 2.268 1.037 2.788.593 2.961-2.28 5.714-5.235 9.587-11.218 3.582-5.533 6.379-8.453 6.521-13.75.018-.925-.092-1.856-.306-2.089z" fill="#c5e1a5"/><path d="M47.254 6.305c11.297 2.841 22.892 2.868 34.195.079-.253 2.114-.864 4.125-1.758 5.781-1.361 2.524-3.309 4.142-5.298 5.332-5.656 3.383-11.971 3.721-17.923 1.893-1.521-.467-3.036-1.078-4.431-2.119-2.209-1.648-4.07-4.378-5.241-7.692-.182-.516-.352-1.071-.347-1.658s.238-1.208.612-1.335" fill="#a0ba7b"/><path d="M46.551 2.947c.06.079.317 1.084.386 1.178.429.587-.045 2.345.604 3.125 1.219 1.465 9.5 2.938 16.458 2.938V5.739c-5.125 0-7.748-.416-10.37-.927-2.798-.545-6.569-1.881-7.078-1.865z" fill="#004d40"/><path d="M81.449 2.947c-.06.079-.317 1.084-.386 1.178-.429.587.045 2.345-.604 3.125-1.219 1.465-9.5 2.938-16.458 2.938V5.739c5.125 0 7.748-.416 10.37-.927 2.798-.545 6.569-1.881 7.078-1.865z" fill="#004d40"/><path d="M64 19.25c-10.829 0-16.375-9.688-16.696-15.204-.095-1.625-.965-1.11-2.989-.6-1.686.424-1.864.458-1.645 2.089 1.08 8.026 8.664 18.646 21.33 18.646V19.25z" fill="#00897b"/><path d="M64 19.25c10.829 0 16.375-9.688 16.696-15.204.095-1.625.965-1.11 2.989-.6 1.686.424 1.864.458 1.645 2.089-1.08 8.027-8.663 18.647-21.33 18.647V19.25z" fill="#00897b"/></svg>