<svg id="レイヤー_1" xmlns="http://www.w3.org/2000/svg" xmlns:xlink="http://www.w3.org/1999/xlink" viewBox="0 0 128 128"><g><g><g fill="#f79329"><g><path d="M91.562 50.379l14.349 44.943-36.366-4.713z"/><path d="M105.911 96.501c-.051 0-.102-.003-.152-.009l-36.365-4.713a1.168 1.168 0 0 1-.897-.635c-.18-.347-.17-.757.014-1.099l22.017-40.232c.23-.411.686-.648 1.146-.606.47.045.87.365 1.013.814l14.243 44.62c.138.192.221.427.221.683 0 .651-.529 1.178-1.178 1.178-.017-.001-.039-.004-.062-.001zm-34.506-6.837l32.822 4.252-12.95-40.56-19.872 36.308z"/></g><g><path d="M40.193 34.906a5.461 5.461 0 0 1-10.921 0 5.455 5.455 0 0 1 5.458-5.458 5.456 5.456 0 0 1 5.463 5.458z"/><path d="M34.73 41.542a6.645 6.645 0 0 1-6.636-6.636 6.645 6.645 0 0 1 6.636-6.636c3.664 0 6.641 2.979 6.641 6.636.001 3.659-2.977 6.636-6.641 6.636zm0-10.916a4.283 4.283 0 0 0-4.279 4.28 4.284 4.284 0 0 0 4.279 4.281 4.288 4.288 0 0 0 4.285-4.281 4.287 4.287 0 0 0-4.285-4.28z"/></g><g><path d="M93.582 29.448c3.01.184 5.311 2.77 5.131 5.78-.175 3.01-2.766 5.302-5.771 5.127a5.456 5.456 0 0 1-5.132-5.771 5.467 5.467 0 0 1 5.772-5.136z"/><path d="M93.264 41.542l-.391-.012a6.589 6.589 0 0 1-4.574-2.215 6.61 6.61 0 0 1-1.666-4.801c.212-3.506 3.12-6.254 6.627-6.254l.391.012c3.659.223 6.456 3.375 6.241 7.026a6.645 6.645 0 0 1-6.628 6.244zm.23-10.917c-2.503 0-4.372 1.771-4.505 4.028a4.245 4.245 0 0 0 1.072 3.098 4.244 4.244 0 0 0 2.95 1.429l.253.007a4.28 4.28 0 0 0 4.271-4.027c.142-2.357-1.666-4.391-4.027-4.535h-.014z"/></g><g><path d="M36.434 50.379L22.089 95.322l36.361-4.713z"/><path d="M22.089 96.501c-.345 0-.681-.154-.906-.423a1.186 1.186 0 0 1-.216-1.114L35.311 50.02c.143-.45.543-.77 1.008-.814a1.15 1.15 0 0 1 1.15.606l22.017 40.232c.184.342.193.753.014 1.099a1.169 1.169 0 0 1-.897.635l-36.36 4.713a1.16 1.16 0 0 1-.154.01zm14.63-43.145l-12.945 40.56 32.817-4.252-19.872-36.308z"/></g></g><g><path d="M72.173 28.758c0 4.51-3.659 8.174-8.173 8.174s-8.178-3.664-8.178-8.174c0-4.519 3.663-8.173 8.178-8.173s8.173 3.654 8.173 8.173z" fill="#fcc21b"/><path d="M13.451 34.906a6.482 6.482 0 0 1-6.489 6.48c-3.58 0-6.484-2.9-6.484-6.48a6.484 6.484 0 0 1 6.484-6.489c3.585 0 6.489 2.9 6.489 6.489z" fill="#fcc21b"/><path d="M114.544 34.906a6.482 6.482 0 0 0 6.489 6.48c3.58 0 6.488-2.9 6.488-6.48a6.487 6.487 0 0 0-6.488-6.489 6.485 6.485 0 0 0-6.489 6.489z" fill="#fcc21b"/><path d="M72.173 28.758c0 4.51-3.659 8.174-8.173 8.174s-8.178-3.664-8.178-8.174c0-4.519 3.663-8.173 8.178-8.173s8.173 3.654 8.173 8.173z" fill="#fcc21b"/><path d="M13.451 34.906a6.482 6.482 0 0 1-6.489 6.48c-3.58 0-6.484-2.9-6.484-6.48a6.484 6.484 0 0 1 6.484-6.489c3.585 0 6.489 2.9 6.489 6.489z" fill="#fcc21b"/><path d="M114.544 34.906a6.482 6.482 0 0 0 6.489 6.48c3.58 0 6.488-2.9 6.488-6.48a6.487 6.487 0 0 0-6.488-6.489 6.485 6.485 0 0 0-6.489 6.489z" fill="#fcc21b"/><g><defs><path id="SVGID_1_" d="M119.496 53.426a1.184 1.184 0 0 0-1.293.216l-30.949 29.07-22.09-32.992a1.176 1.176 0 0 0-.976-.52h-.005c-.391 0-.759.193-.975.515L41.017 82.712l-30.953-29.07a1.173 1.173 0 0 0-1.289-.216c-.433.193-.709.63-.695 1.104l1.27 47.521c0 10.328 24.064 18.427 54.783 18.427s54.783-8.099 54.783-18.398l1.275-47.549a1.182 1.182 0 0 0-.695-1.105z"/></defs><use xlink:href="#SVGID_1_" overflow="visible" fill="#fcc21b"/><clipPath id="SVGID_2_"><use xlink:href="#SVGID_1_" overflow="visible"/></clipPath><path d="M119.905 78.055l.014.01-.589 18.85h-.014c-4.197-.129-7.46-4.455-7.299-9.664.167-5.211 3.692-9.324 7.888-9.196z" clip-path="url(#SVGID_2_)" fill="#d7598b"/><path d="M8.366 78.055l-.014.01.585 18.85h.019c4.192-.129 7.46-4.455 7.294-9.664-.162-5.211-3.692-9.324-7.884-9.196z" clip-path="url(#SVGID_2_)" fill="#d7598b"/></g></g><g><path d="M72.799 96.546c0 5.578-3.879 10.106-8.666 10.106-4.782 0-8.661-4.528-8.661-10.106 0-5.586 3.879-10.115 8.661-10.115 4.786 0 8.666 4.529 8.666 10.115z" fill="#d7598b"/></g></g><g><g><path d="M89.9 102.138c-.134 2.701-2.122 4.79-4.437 4.676-2.31-.114-4.077-2.398-3.944-5.094.138-2.706 2.127-4.796 4.436-4.681 2.316.115 4.079 2.397 3.945 5.099z" fill="#ed6c30"/></g><g><path d="M107.227 99.174c-.143 2.701-2.131 4.791-4.446 4.667-2.31-.12-4.073-2.402-3.935-5.104.143-2.697 2.131-4.791 4.445-4.671 2.316.124 4.074 2.408 3.936 5.108z" fill="#ed6c30"/></g></g><g><g><path d="M38.371 102.138c.134 2.701 2.122 4.79 4.436 4.676 2.31-.114 4.077-2.398 3.94-5.094-.134-2.706-2.122-4.796-4.432-4.681-2.315.115-4.082 2.397-3.944 5.099z" fill="#ed6c30"/></g><g><path d="M21.044 99.174c.138 2.701 2.13 4.791 4.446 4.667 2.31-.12 4.072-2.402 3.93-5.104-.138-2.697-2.127-4.791-4.441-4.671-2.315.124-4.078 2.408-3.935 5.108z" fill="#ed6c30"/></g></g></g></svg>