<svg id="レイヤー_1" xmlns="http://www.w3.org/2000/svg" viewBox="0 0 128 128"><g><g><g><path d="M12.525 105.847c3.971.805 7.984 1.513 11.959 2.26 17.867 3.363 38.801 5.909 55.824-1.125 6.629-2.74 11.105-6.525 18.236-7.879 5.543-1.055 11.117-2.075 16.451-3.996 3.557-1.289 8.928-2.99 9.869-7.21 2.109-9.425 1.463-18.429-.998-26.084-1.107-3.433-2.639-6.749-4.764-9.671-1.822-2.511-4.484-4.893-7.604-5.254-5.975-.699-12.154-.304-18.047.958-.992.215-2.141.452-2.805-.488-.703-.994-3.152-5.553-9.439-6.699-5.525-1.012-11.641 1.024-15.699 5.258a466.863 466.863 0 0 0-5.346 5.684c-.436.479-.998.954-1.357 1.495-.234.355-.316.733-.656.972-.693.465-1.891.017-2.664.114-4.522.566-9.465 5.833-12.156 9.307-1.455 1.868-2.299 3.579-2.065 6.066.127 1.39.078 2.867-.818 4.001-8.23 10.397-24.44 8.436-33.707 17.739-2.285 2.3-3.424 5.324-3.205 9.092.225 3.873 3.82 4.361 7.074 5.06.634.136 1.277.268 1.917.4z" fill="#855c52"/><path d="M127.199 95.599c-.031-1.481-.264-2.914-.523-4.339l.018-.014a4.105 4.105 0 0 0-.205-1.055c-.01-.053-.018-.109-.031-.167a2.231 2.231 0 0 0-.076-.132c-.523-1.267-1.516-1.996-1.516-1.996-5.762 6.19-22.775 8.581-22.775 8.581-5.217.562-13.936 5.487-13.936 5.487-20.543 9.425-44.744 7.596-44.744 7.596-26.73-.703-39.902-9.237-39.902-9.237-1.049.405-1.586 1.064-1.877 1.557h-.019c-.092.018-.15.052-.219.079-.531 1.68-.471 3.552-.611 5.271-.184 2.207.014 4.176 2.098 5.28 7.008 3.666 14.859 5.531 22.613 6.824 11.695 1.947 24.074 2.101 35.9 1.596 11.461-.492 23.508-3.706 32.572-11.137.781-.637 1.576-1.556 2.424-2.391 1.064-1.051 3.174-2.198 4.707-2.018.146 1.042-.197 2.721 1.061 3.169.658.238 1.605-.004 2.289-.008 1.035-.009 2.072-.005 3.105-.137 5.912-.756 11-2.277 16.275-4.967 2.742-1.398 2.98-1.451 3.389-4.652.12-1.01.009-2.175-.017-3.19z" fill="#2f2f2f"/></g><path d="M15.375 91.058c1.086-.426 2.568.158 3.613.466 6.303 1.86 11.734 3.653 18.504 4.142 7.295.528 14.807-.238 21.678-2.453 3.799-1.223 7.568-3.372 10.996-5.571 2.172-1.393 5.25-3.222 5.777-6.071.418-2.224-2.691-3.794-4.264-4.778-2.059-1.284-4.283-2.282-6.561-3.069-4.611-1.604-9.457-2.382-14.266-2.923a163.798 163.798 0 0 0-3.574-.37c-1.811-.167-2.453-2.035-1.381-3.473 2.801-3.772 7.654-8.198 12.49-8.115 9.324.167 18.455 2.752 25.779 8.977.955.809 1.795 1.486 3.008 1.785 1.051.259 1.508-.338 2.242-1.104.352-.374.703-.805 1.098-1.152.379-.33.805-.584 1.324-.638.977-.091 1.525.546 2.252 1.078 2.447 1.807-.656 4.431-1.963 5.86-5.213 5.741-10.07 11.75-16.037 16.706-7.482 6.198-16.49 8.533-25.912 9.852-9.455 1.319-19.391.207-28.281-2.937-2.33-.83-6.471-1.635-7.49-3.921-.35-.779.062-1.944.968-2.291z" fill="#b89278"/></g><path d="M93.871 51.394c.221-.615 2.064-.888 4.143-1.09 2.324-.229 7.291-.448 10.73.523 2.998.848 4.629 2.818 4.945 3.71.799 2.269.035 3.869-1.533 4.999-3.785 2.717-12.248 2.704-14.94 2.655-.98-.018-2.238-.44-2.414-1.517-.158-.985-.316-1.829-.348-4.709-.028-2.25-.729-4.145-.583-4.571z" fill="#2f2f2f"/></g></svg>