<svg id="レイヤー_1" xmlns="http://www.w3.org/2000/svg" xmlns:xlink="http://www.w3.org/1999/xlink" viewBox="0 0 128 128"><g><g><defs><path id="SVGID_1_" d="M83.964 101.902c.418 2.985.943 7.125.468 9.122-.308 1.317-3.204 4.678-3.893 5.346-6.055 5.854-12.48 11.09-16.455 11.09s-10.399-5.235-16.45-11.09c-.693-.668-3.585-4.028-3.893-5.346-.476-1.997.049-6.137.467-9.122 3.34-23.695 9.833-44.503 10.654-46.561 1.3-3.274 5.994-4.546 9.222-4.505 3.229-.041 7.926 1.23 9.226 4.505.82 2.058 7.311 22.866 10.654 46.561zm-3.147-62.799c.595-3.494-3.626-9.246-6.158-10.776-1.678-1.014-3.245-1.645-4.927-2.162-5.862-1.784-12.618-.331-17.467 3.856-.993.854-5.69 6.793-5.456 8.086.525 2.888 2.941 5.961 4 7.285 1.981 2.474 4.533 4.533 4.533 4.533s3.105-2.929 7.589-3.048c.377-.012.763-.017 1.153-.02.39.003.784.008 1.161.02 4.479.119 7.581 3.048 7.581 3.048s2.556-2.06 4.537-4.533c1.231-1.542 3.052-3.91 3.454-6.289z"/></defs><use xlink:href="#SVGID_1_" overflow="visible" fill="#ed6c30"/><clipPath id="SVGID_2_"><use xlink:href="#SVGID_1_" overflow="visible"/></clipPath><path d="M51.904 29.127s10.477 5.095 18.411 20.671l3.396 1.136 5.095-5.099s-5.095-16.708-20.105-21.238l-6.797 4.53z" clip-path="url(#SVGID_2_)" fill="#f79329"/><path d="M50.415 65.174s7.068-6.831 24.544-10.58l1.863 9.214s-21.947 7.507-32.355 16.381l5.948-15.015z" clip-path="url(#SVGID_2_)" fill="#f79329"/><path d="M43.109 92.482s13.361-10.76 36.026-18.821l3.274 8.873s-26.484 12.369-42.845 25.591l3.545-15.643z" clip-path="url(#SVGID_2_)" fill="#f79329"/><path d="M54.16 125.929c15.138-11.22 34.32-22.952 34.32-22.952l-3.992-8.632c-23.961 11.561-36.417 22.074-38.763 24.15l8.435 7.434z" clip-path="url(#SVGID_2_)" fill="#f79329"/></g><g><path d="M92.304 33.996c-4.529-2.281-12.668-12.783-12.668-12.783s-4.303 2.104-13.136 2.104c-.521 0-1.058-.004-1.608-.021-.295-.008-.595-.028-.894-.037-.295.009-.591.029-.886.037-.558.017-1.091.021-1.616.021-8.829 0-13.132-2.104-13.132-2.104S40.229 31.715 35.7 33.996c-2.244 1.128 1.608 2.941 2.486 3.355 2.433 1.152 4.767 1.974 6.797-.496.89-1.084 1.145-2.584 1.838-3.791 1.128-1.965 3.483-4.176 5.838-4.647 2.231-.447 5.079.021 7.368.021 2.564 0 5.14.065 7.704 0 2.322-.066 4.972-.846 7.368-.369 1.694.336 3.84 2.752 4.636 4.201 1.141 2.066.796 4.225 3.396 5.267 1.998.796 5.145.706 7.13-.136 1.058-.448 3.955-2.445 2.043-3.405z" fill="#78a3ad"/><g><g><g><path d="M35.499 20.426c-4.463-4.464-5.846-9.383-5.846-9.383s-5.407 3.212-4.094 17.911c1.177 13.164-.205 16.898-.205 16.898s7.183-2.105 14.637-9.222c3.868-3.696 8.373-8.644 8.373-8.644s-8.402-3.097-12.865-7.56z" fill="#fff"/><path d="M29.653 11.043s1.382 4.919 5.846 9.383c4.463 4.463 12.865 7.56 12.865 7.56s-4.504 4.947-8.373 8.644c-7.454 7.116-14.637 9.222-14.637 9.222s1.382-3.733.205-16.898c-1.312-14.699 4.094-17.911 4.094-17.911m.041-6.321a6.347 6.347 0 0 0-3.257.906c-2.072 1.228-8.697 6.58-7.154 23.884.853 9.506.258 13.456.094 14.301-1.014 2.199-.546 4.521 1.029 6.392 1.145 1.361 2.855 2.002 4.608 2.002.709 0 1.423-.106 2.112-.308.886-.259 8.894-2.766 17.218-10.711 3.983-3.808 8.487-8.751 8.681-8.96a6.298 6.298 0 0 0 1.46-5.734 6.296 6.296 0 0 0-3.942-4.419c-1.977-.734-7.757-3.273-10.588-6.103-3.147-3.15-4.242-6.658-4.254-6.691a6.238 6.238 0 0 0-3.717-4.118 6.106 6.106 0 0 0-2.29-.441z" fill="#78a3ad"/></g><path d="M24.997 6.739s3.122-3.183 7.265-4.967C33.78 1.123 36.693.275 37.571.619c.779.308.706 1.387-.066 2.412-1.469 1.957-3.159 5.46 1.214 11.721H35.47l-6.301-7.068-4.172-.945z" fill="#78a3ad"/></g><g><g><path d="M92.501 20.426c4.463-4.464 5.846-9.383 5.846-9.383s5.402 3.212 4.09 17.911c-1.173 13.164.205 16.898.205 16.898s-7.179-2.105-14.633-9.222c-3.869-3.696-8.373-8.644-8.373-8.644s8.402-3.097 12.865-7.56z" fill="#fff"/><path d="M98.347 11.043s5.402 3.212 4.09 17.911c-1.173 13.164.205 16.898.205 16.898s-7.179-2.105-14.633-9.222c-3.869-3.696-8.373-8.644-8.373-8.644s8.402-3.098 12.865-7.56c4.463-4.464 5.846-9.383 5.846-9.383m0-6.301a6.307 6.307 0 0 0-6.051 4.542c-.053.168-1.165 3.597-4.25 6.687-2.847 2.843-8.747 5.423-10.593 6.103a6.3 6.3 0 0 0-3.938 4.419 6.29 6.29 0 0 0 1.46 5.734c.188.209 4.701 5.152 8.681 8.96 8.323 7.945 16.327 10.452 17.213 10.711a7.635 7.635 0 0 0 2.117.308c1.756 0 3.462-.641 4.607-2.002 1.575-1.87 2.042-4.192 1.03-6.392-.164-.845-.755-4.795.09-14.301 1.547-17.304-5.079-22.656-7.146-23.884a6.283 6.283 0 0 0-3.22-.885z" fill="#78a3ad"/></g><path d="M103.002 6.739s-3.118-3.183-7.269-4.967c-1.514-.649-4.422-1.497-5.3-1.153-.788.308-.714 1.387.062 2.412 1.465 1.957 3.163 5.46-1.214 11.721h3.253l6.301-7.068 4.167-.945z" fill="#78a3ad"/></g></g></g><path d="M78.405 35.961s-4.55-6.121-13.349-6.121c-10.584 0-14.83 5.424-14.83 5.424l1.575-9.624 23.629.524 2.975 9.797z" fill="#78a3ad"/></g></svg>