<svg id="Layer_1" xmlns="http://www.w3.org/2000/svg" viewBox="0 0 128 128"><g><g><g><path d="M16.591 65.924c-.77.377 0 0 0 0S8.614 51.676 8.107 50.999c-.715-.955-2.366-2.613-4.965-1.184-1.081.594-3.004 2.063-1.438 5.859.337.817 8.464 16.97 9.106 18.145 0 0 7.591 14.49 11.164 18.492.992 1.111 2.122 2.311 3.552 3.347 1.424 1.035 3.107 1.961 5.004 2.545 1.889.605 3.971.84 6.038.731 2.07-.116 4.111-.582 6.04-1.253.479-.174.958-.351 1.422-.552l1.328-.547c.925-.392 1.81-.827 2.674-1.288a36.783 36.783 0 0 0 4.851-3.08 29.788 29.788 0 0 0 4.006-3.634 20.97 20.97 0 0 0 2.858-3.95 16.005 16.005 0 0 0 1.558-3.806c.345-1.171.42-2.24.473-3.094.023-.862-.024-1.53-.089-1.981l-.092-.687c-.034-.778-.068-1.523-.099-2.197a499.65 499.65 0 0 0-.374-7.552l.001.015c-.444-7.991-1.015-16.265-1.015-16.265-.03-1.433-1.476-2.376-2.904-1.894-4.114 1.389-6.228 4.604-6.197 8.737l.486 9.289c.144 1.067-1.373 1.781-1.97.888-1.878-2.808-5.165-8.671-5.165-8.671-1.672-2.996-11.11-22.163-11.75-23.272-1.284-2.225-3.289-3.784-5.408-3.044-2.162.755-3.271 2.612-2.238 5.324.281.737 8.03 20.015 8.03 20.015.535 1.066 0 0 0 0S21.578 33.774 21.072 32.719c-1.146-2.39-3.78-3.645-5.886-2.614-2.058 1.008-2.776 3.482-1.622 5.945.366.782 8.363 16.898 11.531 23.463.212.439.316.971-.284 1.264-.005.003.412.843 0 0-.863-1.767-10.657-19.571-11.151-20.517-1.131-2.166-3.091-3.63-5.36-2.552-2.07.983-3.121 3.482-1.823 5.873l10.519 21.232c0-.001.322.756-.405 1.111z" fill="#f9c035"/></g><path d="M46.887 61.802c-.353-.598-.693-1.183-1.004-1.722-10.678 6.666-8.776 18.689-8.776 18.689.202 2.438 1.099 2.247 1.099 2.247.944.033.71-1.585.71-1.585-1.623-12.116 7.14-17.178 7.971-17.629z" fill="#e28c25"/></g><g><g><path d="M111.109 65.69c.77.376 0 0 0 0s7.978-14.249 8.484-14.925c.715-.955 2.366-2.613 4.965-1.184 1.081.594 3.004 2.063 1.438 5.859-.337.817-8.464 16.97-9.106 18.145 0 0-7.591 14.49-11.164 18.492-.992 1.111-2.122 2.311-3.552 3.347-1.424 1.035-3.107 1.961-5.004 2.545-1.889.605-3.971.84-6.038.731-2.07-.116-4.111-.582-6.04-1.253a25.353 25.353 0 0 1-1.422-.552l-1.328-.547a33.144 33.144 0 0 1-2.674-1.288 36.783 36.783 0 0 1-4.851-3.08 29.788 29.788 0 0 1-4.006-3.634 20.97 20.97 0 0 1-2.858-3.95 16.005 16.005 0 0 1-1.558-3.806c-.345-1.171-.42-2.24-.473-3.094-.023-.862.024-1.53.089-1.981l.092-.687c.034-.778.068-1.523.099-2.197a499.65 499.65 0 0 1 .374-7.552l-.001.015c.444-7.991 1.015-16.265 1.015-16.265.03-1.433 1.476-2.376 2.904-1.894 4.114 1.389 6.228 4.604 6.197 8.737l-.486 9.289c-.144 1.067 1.373 1.781 1.97.888 1.878-2.808 5.165-8.671 5.165-8.671 1.672-2.996 11.11-22.163 11.75-23.272 1.284-2.225 3.289-3.784 5.408-3.044 2.162.755 3.271 2.612 2.238 5.324-.281.737-8.03 20.015-8.03 20.015-.535 1.066 0 0 0 0s11.417-22.662 11.923-23.716c1.146-2.39 3.78-3.645 5.886-2.614 2.058 1.008 2.776 3.482 1.622 5.945-.366.782-8.363 16.898-11.531 23.463-.212.439-.316.971.284 1.264.005.003-.412.843 0 0 .864-1.768 10.658-19.571 11.152-20.518 1.131-2.166 3.091-3.63 5.36-2.552 2.07.983 3.121 3.482 1.823 5.873l-10.519 21.232c-.002-.001-.325.756.403 1.112z" fill="#f9c035"/></g><path d="M80.813 61.568c.353-.598.693-1.183 1.004-1.722 10.678 6.666 8.776 18.689 8.776 18.689-.202 2.438-1.099 2.247-1.099 2.247-.944.033-.71-1.585-.71-1.585 1.623-12.117-7.14-17.179-7.971-17.629z" fill="#e28c25"/></g></g></svg>