<svg id="レイヤー_1" xmlns="http://www.w3.org/2000/svg" viewBox="0 0 128 128"><g><path d="M1.009 68.917c.315 6.693.807 12.098 6.524 16.373 4.513 3.384 10.15 5.156 15.751 5.441 2.72.146 6.551-.02 6.615-3.669.027-1.383.138-2.822.193-4.27 1.987 1.65 3.817 3.559 5.472 6.048 2.07 3.107 3.941 6.408 6.371 9.256 7.519 8.805 16.964 15.268 28.11 18.561 6.836 2.018 13.949 3.318 21.076 3.648 11.363.545 26.52-1.447 33.453-11.855 2.886-4.323 3.352-10.887 1.355-15.664-1.18-2.84-3.457-4.812-5.112-7.32-1.872-2.848-.977-4.767-1.3-7.809a24.707 24.707 0 0 0-1.687-6.646c-3.937-9.553-13.866-14.548-22.5-19.012-2.595-1.344-5.32-2.608-8.21-3.152-1.42-.257-2.895-.35-4.315-.064-6.55 1.317-11.492 7.356-16.517 11.248-4.061 3.144-5.444 1.484-9.214-1.236-1.932-1.399-3.785-2.903-5.62-4.434-3.729-3.126-7.357-6.389-11.284-9.265-3.112-2.288-7.104-4.104-10.708-5.449-11.87-4.453-26.22-2.094-28.018 12.392-.373 3.005-.429 6.048-.535 8.61-.12 2.81-.019 5.632.1 8.268z" fill="#855c52"/><path d="M90.213 108.395c.534.324 1.212.544 2.046.654 1.849.231 3.752.223 5.652.187 9.261-.187 24.929-.536 22.68-13.758-.964-5.633-6.03-8.988-10.478-11.965-2.111-1.42-4.448-2.425-6.758-3.466-11.008-4.952-12.728 14.942-14.447 21.063-.788 2.814-.991 5.912 1.305 7.285z" fill="#fcc21b"/><path d="M9.694 54.305c1.148 4.526 5.753 6.998 9.381 9.312.484.305.968.617 1.447.922 5.647 3.596 11.432 7.236 16.558 11.515.544.451 1.079 1.151 1.793 1.31.677.155 1.659-.085 2.318-.24 1.719-.397 3.278-1.253 4.882-1.955 2.374-1.033 4.642-2.277 6.822-3.669 1.111-.7 2.166-1.484 3.264-2.213.673-.434 1.982-.911 2.323-1.704.475-1.117-.797-1.614-1.59-1.965-1.244-.544-2.392-1.255-3.531-1.983-2.692-1.732-5.154-3.787-7.597-5.853-3.711-3.127-6.79-6.215-11.031-8.824-4.909-3.023-10.782-4.592-16.526-3.861-4.553.569-9.932 3.611-8.513 9.208z" fill="#fcc21b"/><path d="M50.324 90.409c.374.339.696.643.927.875 3.817 3.9 7.823 7.679 12.373 10.704 3.738 2.489 9.791 6.305 14.437 4.555 1.724-.646 1.245-3.025 1.507-4.501.378-2.1.853-4.193 1.424-6.251 1.166-4.185 2.738-8.24 4.605-12.16 2.074-4.352 4.181-8.748 7.131-12.583 1.425-1.854 3.047-3.551 4.9-4.979.949-.729 1.968-1.431 3.038-1.983.733-.378 1.124-.681.53-1.612-.456-.711-1.539-1.061-2.268-1.467-2.3-1.281-4.67-2.441-7.062-3.548-2.038-.942-4.661-2.314-6.924-2.472-2.471-.175-5.495 2.534-7.126 4.111-5.048 4.859-10.179 9.754-15.604 14.198-3.162 2.591-6.518 4.961-10.123 6.897-1.489.802-2.895 1.236-4.462 1.77-4.678 1.595.18 6.104 2.697 8.446z" fill="#bdcf46"/></g></svg>