<svg id="レイヤー_1" xmlns="http://www.w3.org/2000/svg" viewBox="0 0 128 128"><path id="XMLID_4862_" d="M7.798 30.672s0 31.032 4 45.46c1.972 7.111 4.426 11.59 10.327 7.16l22.888-.228c5.892 4.497 10.114.185 11.384-7.117 3-17.242 3-45.274 3-45.274H7.798z" fill="#6d4c41"/><path id="XMLID_4861_" d="M68.805 30.672s0 31.032 4 45.46c1.972 7.111 4.426 11.59 10.327 7.16l22.888-.228c5.892 4.497 10.114.185 11.384-7.117 3-17.242 3-45.274 3-45.274H68.805z" fill="#6d4c41"/><g id="XMLID_4858_" fill="#a0f"><path id="XMLID_4860_" d="M89.5 66.621s-16-1.446-25.5 14.917V99.16l25.5-32.539z"/><path id="XMLID_4859_" d="M128 128.527l-64 .016V88.404C64 76.12 73.176 68.67 85.055 66.62c7.707-1.33 15.222-.844 22.08.783 11.234 2.667 20.864 9.633 20.864 21v40.124z"/></g><g id="XMLID_4855_" fill="#651fff"><path id="XMLID_4857_" d="M0 128.527l64 .016V88.404C64 76.12 54.379 68.67 42.5 66.62c-7.707-1.33-14.777-.844-21.636.783C9.63 70.071 0 77.037 0 88.404v40.123z"/><path id="XMLID_4856_" d="M38.5 66.621S54.833 65.175 64 81.538V99.16L38.5 66.621z"/></g><path id="XMLID_4853_" fill="#fcc21b" d="M-.07 96.968h8.195v31.594H-.07z"/><path id="XMLID_4852_" fill="#fcc21b" d="M120.07 96.968h8v31.594h-8z"/><path id="XMLID_4851_" d="M94.608 73.968a7 7 0 0 1-7-7v-5.984h14v5.984a7 7 0 0 1-7 7z" fill="#e59900"/><ellipse id="XMLID_4850_" cx="94.678" cy="30.521" rx="25.8" ry="23.193" fill="#6d4c41"/><path id="XMLID_4849_" d="M94.678 12.915c-15.862 0-20.013 12.296-20.013 29.57s12.304 22.543 20.013 22.543c7.709 0 20.013-5.27 20.013-22.543 0-17.274-4.151-29.57-20.013-29.57z" fill="#fcc21b"/><path id="XMLID_4848_" d="M87.834 43.193c0 1.852-1.24 3.354-2.775 3.354-1.534 0-2.782-1.502-2.782-3.354 0-1.857 1.248-3.359 2.782-3.359 1.535 0 2.775 1.502 2.775 3.359" fill="#444"/><path id="XMLID_4847_" d="M101.519 43.193c0 1.852 1.241 3.354 2.781 3.354 1.532 0 2.779-1.502 2.779-3.354 0-1.857-1.247-3.359-2.779-3.359-1.54 0-2.781 1.502-2.781 3.359" fill="#444"/><path id="XMLID_4846_" d="M100.73 26.465c-2.11 2.027-12.584 11.467-27.02 13.931V21.042S79.941 8.678 94.895 8.678s21.185 12.675 21.185 12.675v19.043s-9.798-3.761-14.719-13.813a.396.396 0 0 0-.631-.118z" fill="#6d4c41"/><path id="XMLID_4845_" d="M100.693 54.525h-6.015-6.015c-.69 0-.986.464-.53 1.158.639.972 3.008 2.842 6.545 2.842s5.906-1.87 6.545-2.842c.456-.694.16-1.158-.53-1.158z" fill="#4c3734"/><path id="XMLID_4844_" d="M97.584 49.787c-1.023.29-2.085.431-2.906.431s-1.882-.141-2.906-.431c-.438-.124-.61.291-.453.566.325.571 1.632 1.724 3.359 1.724s3.034-1.153 3.359-1.724c.157-.275-.015-.69-.453-.566z" fill="#e48c15"/><path id="XMLID_4843_" d="M33.634 73.968a7 7 0 0 1-7-7v-6.417h14v6.417a7 7 0 0 1-7 7z" fill="#e59900"/><g id="XMLID_2044_"><path id="XMLID_4842_" d="M85.905 129.155h-43.81c-.313 0 0-7.795 0-7.795 0-10 12.731-13.348 17.152-13.348h9.524c4.421 0 17.134 3.348 17.134 13.348v.283c0 .362.313 7.512 0 7.512z" fill="#d8beff"/><path id="XMLID_4841_" d="M64.476 116.301h-.963a4.286 4.286 0 0 1-4.286-4.286v-2.381h9.535v2.381a4.285 4.285 0 0 1-4.286 4.286z" fill="#e59900"/><g id="XMLID_844_"><ellipse id="XMLID_864_" cx="64.068" cy="85.516" rx="20.698" ry="19.103" fill="#6d4c41"/><g id="XMLID_856_" fill="#e59600"><path id="XMLID_859_" d="M81.016 90.725s3.154.546 3.154 3.942c0 2.996-2.3 4.178-4.601 4.178v-8.12h1.447z"/><path id="XMLID_857_" d="M47.119 90.725s-3.154.546-3.154 3.942c0 2.996 2.3 4.178 4.601 4.178v-8.12h-1.447z"/></g><g id="XMLID_852_"><g id="XMLID_855_"><path d="M77.655 99.94c1.691.065 3.213.766 4.073 2.293.395.704.669 1.555.812 2.349.124.69.008 2.083.61 2.586.272.228.832.269.989.613.428.944-1.683 1.96-2.226 2.132-3.594 1.143-8.595-.165-9.53-4.349-.71-3.176 2.157-5.745 5.272-5.624z" fill="#6d4c41"/></g><g id="XMLID_854_"><path d="M50.621 99.951c-1.692.036-3.226.71-4.113 2.221-.407.697-.696 1.543-.853 2.335-.136.688-.044 2.083-.655 2.575-.276.224-.837.255-1 .595-.444.937 1.648 1.989 2.188 2.171 3.574 1.205 8.596-.015 9.604-4.182.767-3.163-2.054-5.781-5.171-5.715z" fill="#6d4c41"/></g></g><g id="XMLID_851_"><path d="M76.064 80.535c-2.868-3.574-7.812-5.108-11.996-5.108-4.181 0-9.124 1.533-11.993 5.108-2.805 3.495-4.276 8.008-4.255 14.067.021 4.885 1.277 8.639 4.819 11.594 3.279 2.737 7.074 4.216 11.184 4.216 4.039 0 8.499-1.413 11.66-4.191 3.467-3.05 4.813-6.734 4.833-11.619.024-6.059-1.45-10.572-4.252-14.067z" fill="#fcc21b"/></g><path id="XMLID_850_" d="M66.44 98.27a9.136 9.136 0 0 1-2.373.352c-.67 0-1.537-.115-2.373-.352-.357-.101-.498.237-.37.463.265.466 1.333 1.408 2.742 1.408 1.41 0 2.477-.941 2.742-1.408.13-.226-.01-.564-.368-.463z" fill="#e59600"/><path id="XMLID_849_" d="M68.979 102.128h-4.911-4.911c-.563 0-.805.379-.433.945.521.794 2.456 2.321 5.344 2.321 2.888 0 4.823-1.527 5.344-2.321.372-.567.13-.945-.433-.945z" fill="#513f35"/><path id="XMLID_848_" d="M82.218 77.824L68.704 68.82h-9.349l-13.514 9.004-1.771 6.368 1.862 5.72 1.316 2.535c7.13-1.62 14.288-6.609 16.543-9.406a.305.305 0 0 1 .477 0c2.256 2.798 9.246 7.718 16.544 9.406l1.315-2.535 1.862-5.72-1.771-6.368z" fill="#6d4c41"/><g id="XMLID_845_" fill="#444"><path id="XMLID_847_" d="M57.567 94.745c0 1.448-.969 2.622-2.17 2.622-1.199 0-2.174-1.174-2.174-2.622 0-1.452.975-2.626 2.174-2.626 1.201 0 2.17 1.174 2.17 2.626"/><path id="XMLID_846_" d="M74.913 94.745c0 1.448-.969 2.622-2.17 2.622-1.199 0-2.174-1.174-2.174-2.622 0-1.452.975-2.626 2.174-2.626 1.201 0 2.17 1.174 2.17 2.626"/></g></g></g><ellipse id="XMLID_4792_" cx="33.67" cy="30.521" rx="25.8" ry="23.193" fill="#6d4c41"/><path id="XMLID_4791_" d="M33.67 12.915c-15.862 0-20.013 12.296-20.013 29.57S25.961 65.028 33.67 65.028c7.709 0 20.013-5.27 20.013-22.543 0-17.274-4.151-29.57-20.013-29.57z" fill="#fcc21b"/><path id="XMLID_4790_" d="M26.826 43.193c0 1.852-1.24 3.354-2.775 3.354-1.534 0-2.782-1.502-2.782-3.354 0-1.857 1.248-3.359 2.782-3.359 1.535 0 2.775 1.502 2.775 3.359" fill="#444"/><path id="XMLID_4789_" d="M40.511 43.193c0 1.852 1.241 3.354 2.781 3.354 1.532 0 2.779-1.502 2.779-3.354 0-1.857-1.247-3.359-2.779-3.359-1.54 0-2.781 1.502-2.781 3.359" fill="#444"/><path id="XMLID_4788_" d="M39.722 26.465c-2.11 2.027-12.584 11.467-27.02 13.931V21.042S18.933 8.678 33.887 8.678s21.185 12.675 21.185 12.675v19.043s-9.798-3.761-14.719-13.813a.396.396 0 0 0-.631-.118z" fill="#6d4c41"/><path id="XMLID_4787_" d="M39.685 54.525H33.67h-6.015c-.69 0-.986.464-.53 1.158.639.972 3.008 2.842 6.545 2.842s5.906-1.87 6.545-2.842c.456-.694.16-1.158-.53-1.158z" fill="#4c3734"/><path id="XMLID_4786_" d="M36.576 49.787c-1.023.29-2.085.431-2.906.431s-1.882-.141-2.906-.431c-.438-.124-.61.291-.453.566.325.571 1.632 1.724 3.359 1.724s3.034-1.153 3.359-1.724c.157-.275-.015-.69-.453-.566z" fill="#e48c15"/></svg>