<svg id="Layer_1" xmlns="http://www.w3.org/2000/svg" viewBox="0 0 128 128"><g/><g/><g id="XMLID_940_"><g id="XMLID_977_"/><g id="XMLID_974_"/><g id="XMLID_949_" fill="#7b1fa2"/><g id="XMLID_947_"/><g id="XMLID_945_"/></g><g id="XMLID_1014_"><g id="XMLID_1021_" fill="#e59600"/></g><g id="XMLID_58_"><g id="XMLID_61_"><g id="XMLID_117_"><path id="XMLID_57_" d="M15.183 61.245l-.656 1.762a53.227 53.227 0 0 1-4.926 9.929L3.125 82.94c-.934 1.421-.639 3.52.684 4.589 1.514 1.225 4.053.884 5.134-.736l15.746-23.611.319-4.082-9.825 2.145z" fill="#fcc21b"/><path id="XMLID_56_" d="M36.235 49.816c-3.618-.006-8.175.416-10.59 1.059-7.546 2.008-9.399 5.558-11.649 11.647l22.24 8.474v-21.18z" fill="#00bfa5"/></g><g id="XMLID_114_"><path id="XMLID_55_" d="M57.286 61.245l.656 1.762a53.227 53.227 0 0 0 4.926 9.929l6.476 10.004c.934 1.421.639 3.52-.684 4.589-1.514 1.225-4.053.884-5.134-.736l-15.745-23.61-.319-4.083 9.824 2.145z" fill="#fcc21b"/><path id="XMLID_54_" d="M36.235 49.816c3.618-.006 8.175.416 10.59 1.059 7.546 2.008 9.399 5.558 11.649 11.647l-22.24 8.474v-21.18z" fill="#00bfa5"/></g><path id="XMLID_53_" fill="#00bfa5" d="M22.4 62.393h13.835v19.504H22.4z"/><path id="XMLID_52_" fill="#616161" d="M22.4 81.897h10.713v45.716H22.4z"/><path id="XMLID_51_" d="M34.508 128H21.004v-3.501a4.002 4.002 0 0 1 4.002-4.002h5.502a4.002 4.002 0 0 1 4.002 4.002V128z" fill="#444"/><path id="XMLID_50_" fill="#00bfa5" d="M36.235 62.393h13.767v19.504H36.235z"/><path id="XMLID_49_" fill="#616161" d="M39.289 81.897h10.713v45.716H39.289z"/><path id="XMLID_48_" d="M37.893 128h13.505v-3.501a4.002 4.002 0 0 0-4.002-4.002h-5.502a4.002 4.002 0 0 0-4.002 4.002V128z" fill="#444"/><path id="XMLID_12_" d="M36.235 57.467a5.288 5.288 0 0 1-5.288-5.288v-4.52h10.575v4.52a5.287 5.287 0 0 1-5.287 5.288z" fill="#fcc21b"/><path id="XMLID_11_" d="M41.527 51.74s-2.019.819-5.287.819c-3.269 0-5.298-.72-5.298-.72v-5.194c0-1.388.918-2.895 2.307-2.895h5.983c1.388 0 2.296 1.407 2.296 2.796v5.194z" fill="#e8a23d"/><g id="XMLID_1_"><g id="XMLID_8_" fill="#e59600"><path id="XMLID_10_" d="M52.146 29.711s2.918.505 2.918 3.647c0 2.772-2.128 3.866-4.257 3.866v-7.513h1.339z"/><path id="XMLID_9_" d="M20.324 29.711s-2.918.505-2.918 3.647c0 2.772 2.128 3.866 4.257 3.866v-7.513h-1.339z"/></g><path id="XMLID_7_" d="M36.235 9.134c-12.574 0-15.864 9.747-15.864 23.44 0 14.198 9.126 17.87 15.864 17.87 6.639 0 15.864-3.566 15.864-17.87 0-13.693-3.291-23.44-15.864-23.44z" fill="#fcc21b"/><path id="XMLID_6_" d="M31.011 33.845c0 1.414-.946 2.56-2.118 2.56-1.171 0-2.123-1.146-2.123-2.56 0-1.417.952-2.564 2.123-2.564 1.172 0 2.118 1.146 2.118 2.564" fill="#444"/><path id="XMLID_5_" d="M41.456 33.845c0 1.414.948 2.56 2.123 2.56 1.169 0 2.121-1.146 2.121-2.56 0-1.417-.952-2.564-2.121-2.564-1.176 0-2.123 1.146-2.123 2.564" fill="#444"/><path id="XMLID_4_" d="M40.826 42.494h-4.591-4.591c-.526 0-.752.354-.404.884.487.742 2.296 2.169 4.995 2.169s4.508-1.427 4.995-2.169c.348-.53.122-.884-.404-.884z" fill="#513f35"/><path id="XMLID_3_" d="M38.453 38.592a8.56 8.56 0 0 1-2.218.329 8.56 8.56 0 0 1-2.218-.329c-.334-.095-.465.222-.346.432.248.436 1.246 1.316 2.563 1.316 1.318 0 2.316-.88 2.563-1.316.121-.21-.01-.527-.344-.432z" fill="#e59600"/><path id="XMLID_2_" d="M36.614 7.345s-.245-.008-.351-.007c-.106-.001-.351.007-.351.007-13.57.261-17.66 8.425-17.66 14.086 0 5.501.005 9.542.005 9.542s.216-.224.614-.534c.425-.331.895-.517.895-.517l.685 4.596 4.522-9.446a.15.15 0 0 1 .154-.086l2.679.298c2.693.299 5.399.444 8.104.452v.006c.117.001.234-.003.351-.003.117 0 .234.004.351.003v-.006a75.447 75.447 0 0 0 8.104-.452l2.679-.298a.154.154 0 0 1 .154.086l4.522 9.446.685-4.596s.47.186.895.517c.399.31.614.534.614.534s.005-4.042.005-9.542c.003-5.661-4.088-13.825-17.656-14.086z" fill="#6d4c41"/></g><path d="M50.002 81.897H22.4v15.542h10.713v-.905a2.387 2.387 0 0 1 2.387-2.387h1.403a2.387 2.387 0 0 1 2.387 2.387v.905h10.713V81.897z" fill="#616161"/><path d="M106.096 81.897H78.494v15.542h10.713v-.905a2.387 2.387 0 0 1 2.387-2.387h1.403a2.387 2.387 0 0 1 2.387 2.387v.905h10.713V81.897z" fill="#616161"/></g><g id="XMLID_63_"><g id="XMLID_87_"><path id="XMLID_89_" d="M71.278 61.245l-.656 1.762a53.227 53.227 0 0 1-4.926 9.929L59.219 82.94c-.934 1.421-.639 3.52.684 4.589 1.514 1.225 4.053.884 5.134-.736l15.746-23.611.319-4.082-9.824 2.145z" fill="#fcc21b"/><path id="XMLID_88_" d="M92.329 49.816c-3.618-.006-8.175.416-10.59 1.059-7.546 2.008-9.399 5.558-11.649 11.647l22.24 8.474v-21.18z" fill="#007689"/></g><g id="XMLID_84_"><path id="XMLID_86_" d="M113.381 61.245l.656 1.762a53.227 53.227 0 0 0 4.926 9.929l6.476 10.004c.934 1.421.639 3.52-.684 4.589-1.514 1.225-4.053.884-5.134-.736l-15.746-23.611-.319-4.082 9.825 2.145z" fill="#fcc21b"/><path id="XMLID_85_" d="M92.329 49.816c3.618-.006 8.175.416 10.59 1.059 7.546 2.008 9.399 5.558 11.649 11.647l-22.24 8.474v-21.18z" fill="#007689"/></g><path id="XMLID_83_" fill="#007689" d="M78.494 62.393h13.835v19.504H78.494z"/><path id="XMLID_82_" fill="#616161" d="M78.494 81.897h10.713v45.716H78.494z"/><path id="XMLID_81_" d="M90.603 128H77.098v-3.501a4.002 4.002 0 0 1 4.002-4.002h5.502a4.002 4.002 0 0 1 4.002 4.002V128z" fill="#444"/><path id="XMLID_80_" fill="#007689" d="M92.329 62.393h13.767v19.504H92.329z"/><path id="XMLID_79_" fill="#616161" d="M95.384 81.897h10.713v45.716H95.384z"/><path id="XMLID_78_" d="M93.988 128h13.505v-3.501a4.002 4.002 0 0 0-4.002-4.002h-5.502a4.002 4.002 0 0 0-4.002 4.002V128z" fill="#444"/><path id="XMLID_77_" d="M92.329 57.467a5.288 5.288 0 0 1-5.288-5.288v-4.52h10.575v4.52a5.286 5.286 0 0 1-5.287 5.288z" fill="#fcc21b"/><path id="XMLID_76_" d="M97.622 51.74s-2.019.819-5.287.819-5.298-.72-5.298-.72v-5.194c0-1.388.918-2.895 2.307-2.895h5.983c1.388 0 2.296 1.407 2.296 2.796v5.194z" fill="#e8a23d"/><g id="XMLID_66_"><g id="XMLID_73_" fill="#e59600"><path id="XMLID_75_" d="M108.24 29.711s2.918.505 2.918 3.647c0 2.772-2.128 3.866-4.257 3.866v-7.513h1.339z"/><path id="XMLID_74_" d="M76.418 29.711s-2.918.505-2.918 3.647c0 2.772 2.128 3.866 4.257 3.866v-7.513h-1.339z"/></g><path id="XMLID_72_" d="M92.329 9.134c-12.574 0-15.864 9.747-15.864 23.44 0 14.198 9.126 17.87 15.864 17.87 6.639 0 15.864-3.566 15.864-17.87 0-13.693-3.29-23.44-15.864-23.44z" fill="#fcc21b"/><path id="XMLID_71_" d="M87.105 33.845c0 1.414-.946 2.56-2.118 2.56-1.171 0-2.123-1.146-2.123-2.56 0-1.417.952-2.564 2.123-2.564 1.172 0 2.118 1.146 2.118 2.564" fill="#444"/><path id="XMLID_70_" d="M97.55 33.845c0 1.414.948 2.56 2.123 2.56 1.169 0 2.121-1.146 2.121-2.56 0-1.417-.952-2.564-2.121-2.564-1.175 0-2.123 1.146-2.123 2.564" fill="#444"/><path id="XMLID_69_" d="M96.92 42.494h-4.591-4.591c-.526 0-.752.354-.404.884.487.742 2.296 2.169 4.995 2.169s4.508-1.427 4.995-2.169c.348-.53.122-.884-.404-.884z" fill="#513f35"/><path id="XMLID_68_" d="M94.547 38.592c-.781.221-1.592.329-2.218.329s-1.437-.108-2.218-.329c-.334-.095-.465.222-.346.432.248.436 1.246 1.316 2.563 1.316 1.318 0 2.316-.88 2.563-1.316.121-.21-.01-.527-.344-.432z" fill="#e59600"/><path id="XMLID_67_" d="M92.708 7.345s-.245-.008-.351-.007c-.106-.001-.351.007-.351.007-13.57.261-17.66 8.425-17.66 14.086 0 5.501.005 9.542.005 9.542s.216-.224.614-.534c.425-.331.895-.517.895-.517l.685 4.596 4.522-9.446a.15.15 0 0 1 .154-.086l2.679.298c2.693.299 5.399.444 8.104.452v.006c.117.001.234-.003.351-.003.117 0 .234.004.351.003v-.006a75.447 75.447 0 0 0 8.104-.452l2.679-.298a.154.154 0 0 1 .154.086l4.522 9.446.685-4.596s.47.186.895.517c.399.31.614.534.614.534s.005-4.042.005-9.542c.003-5.661-4.088-13.825-17.656-14.086z" fill="#6d4c41"/></g></g></g></svg>