<svg xmlns="http://www.w3.org/2000/svg" viewBox="0 0 128 128"><g id="图层_1"><ellipse id="XMLID_1014_" cx="64" cy="56.06" rx="54.5" ry="50.302" fill="#6d4c41"/><g id="XMLID_449_" fill="#e59600"><path id="XMLID_451_" d="M108.628 69.776s8.304 1.438 8.304 10.38c0 7.889-6.057 11.002-12.114 11.002V69.776h3.81z"/><path id="XMLID_450_" d="M19.372 69.776s-8.304 1.438-8.304 10.38c0 7.889 6.057 11.002 12.114 11.002V69.776h-3.81z"/></g><g id="XMLID_1007_"><g id="XMLID_1009_"><path d="M99.777 94.041c4.453.172 8.461 2.018 10.725 6.037 1.039 1.853 1.761 4.095 2.138 6.185.327 1.818.021 5.486 1.607 6.81.716.602 2.192.709 2.604 1.614 1.126 2.487-4.431 5.161-5.861 5.614-9.464 3.01-22.631-.435-25.094-11.451-1.869-8.363 5.678-15.127 13.881-14.809z" fill="#6d4c41"/></g><g id="XMLID_1008_"><path d="M28.594 94.07c-4.455.094-8.495 1.87-10.829 5.849-1.071 1.834-1.833 4.064-2.245 6.147-.359 1.812-.117 5.485-1.725 6.781-.726.589-2.204.67-2.632 1.568-1.169 2.467 4.34 5.238 5.762 5.715 9.41 3.174 22.635-.04 25.29-11.012 2.014-8.328-5.414-15.223-13.621-15.048z" fill="#6d4c41"/></g></g><g id="XMLID_1006_"><path d="M95.588 42.945C88.035 33.534 75.019 29.496 64 29.496c-11.01 0-24.026 4.038-31.579 13.449-7.385 9.202-11.26 21.087-11.205 37.04.056 12.862 3.361 22.747 12.689 30.529 8.635 7.206 18.626 11.101 29.45 11.101 10.635 0 22.378-3.721 30.702-11.036 9.129-8.03 12.674-17.732 12.726-30.595.065-15.952-3.818-27.836-11.195-37.039z" fill="#fcc21b"/></g><path id="XMLID_1005_" d="M70.247 89.643c-2.201.623-4.484.927-6.247.927s-4.047-.304-6.247-.927c-.941-.267-1.311.625-.974 1.218.698 1.228 3.509 3.706 7.221 3.706s6.523-2.478 7.221-3.706c.337-.593-.032-1.484-.974-1.218z" fill="#e59600"/><path id="XMLID_991_" d="M76.932 99.802H64 51.068c-1.483 0-2.119.997-1.139 2.49 1.373 2.091 6.468 6.11 14.072 6.11 7.604 0 12.699-4.02 14.072-6.11.979-1.493.342-2.49-1.141-2.49z" fill="#513f35"/><path id="XMLID_990_" d="M111.792 35.805L76.209 12.098H51.593L16.009 35.805l-4.664 16.769 4.903 15.063 3.465 6.674c18.775-4.266 37.621-17.401 43.559-24.767a.802.802 0 0 1 1.256 0c5.94 7.367 24.346 20.322 43.562 24.767l3.462-6.674 4.903-15.063-4.663-16.769z" fill="#6d4c41"/><g id="XMLID_1512_" fill="#444"><path id="XMLID_1435_" d="M46.882 80.362c0 3.813-2.552 6.904-5.713 6.904-3.157 0-5.725-3.091-5.725-6.904 0-3.823 2.568-6.914 5.725-6.914 3.161 0 5.713 3.092 5.713 6.914"/><path id="XMLID_1436_" d="M92.556 80.362c0 3.813-2.552 6.904-5.713 6.904-3.157 0-5.725-3.091-5.725-6.904 0-3.823 2.568-6.914 5.725-6.914 3.162 0 5.713 3.092 5.713 6.914"/></g></g></svg>