<svg id="Layer_1" xmlns="http://www.w3.org/2000/svg" viewBox="0 0 128 128"><g id="XMLID_2511_"><path id="XMLID_2512_" d="M16.808 24.671s0 23.187 2.989 33.966c1.473 5.313 3.307 8.66 7.716 5.35l17.101-.17c4.403 3.36 7.557.138 8.506-5.318 2.242-12.883 2.242-33.828 2.242-33.828H16.808z" fill="#6d4c41"/></g><g id="XMLID_2509_"><ellipse id="XMLID_2510_" cx="36.085" cy="24.668" rx="19.277" ry="17.329" fill="#6d4c41"/></g><path id="XMLID_2508_" d="M56.875 61.637l.656 1.762a53.227 53.227 0 0 0 4.926 9.929l6.576 10.004a3.309 3.309 0 0 1-5.518 3.653L47.77 63.375l-.319-4.082 9.424 2.344z" fill="#fcc21b"/><path id="XMLID_2507_" d="M15.433 61.445l-.656 1.762a53.227 53.227 0 0 1-4.926 9.929L3.275 83.14a3.309 3.309 0 0 0 5.518 3.653l15.746-23.611.319-4.082-9.425 2.345z" fill="#fcc21b"/><path id="XMLID_2506_" d="M36.085 49.816c-3.497-.006-7.902.402-10.236 1.024-7.294 1.941-9.085 5.372-11.26 11.258l21.496 8.191V49.816z" fill="#651fff"/><path id="XMLID_2505_" fill="#651fff" d="M32.819 55.662h5.314v15.775h-5.314z"/><path id="XMLID_2504_" fill="#651fff" d="M22.712 61.973h12.284v17.402H22.712z"/><path id="XMLID_2502_" fill="#651fff" d="M22.777 77.454l-8.189 19.449h21.497V77.454z"/><path id="XMLID_2501_" fill="#fcc21b" d="M22.777 98.951h9.213v28.662h-9.213z"/><path id="XMLID_2500_" fill="#e8a23d" d="M22.777 96.903h9.213v3.071h-9.213z"/><path id="XMLID_2499_" d="M33.217 128H21.212v-2.501a4.002 4.002 0 0 1 4.002-4.002h4.002a4.002 4.002 0 0 1 4.002 4.002V128z" fill="#444"/><path id="XMLID_2498_" d="M36.085 49.816c3.497-.006 7.902.402 10.236 1.024 7.294 1.941 9.085 5.374 11.26 11.26l-21.496 8.189V49.816z" fill="#651fff"/><path id="XMLID_2497_" fill="#651fff" d="M36.085 61.973h13.307v17.402H36.085z"/><path id="XMLID_2495_" fill="#651fff" d="M49.392 77.454l8.189 19.449H36.085V77.454z"/><path id="XMLID_2494_" fill="#fcc21b" d="M40.179 98.951h9.213v28.662h-9.213z"/><path id="XMLID_2493_" fill="#e8a23d" d="M40.179 96.903h9.213v3.071h-9.213z"/><path id="XMLID_2492_" d="M38.953 128h12.005v-2.501a4.002 4.002 0 0 0-4.002-4.002h-4.002a4.002 4.002 0 0 0-4.002 4.002V128z" fill="#444"/><path id="XMLID_2491_" d="M36.09 56.777c-2.94 0-5.123-1.974-5.123-4.914v-5.118h10.236v5.118c0 2.94-2.173 4.914-5.113 4.914z" fill="#fcc21b"/><path id="XMLID_2490_" d="M41.203 51.767s-1.952.792-5.113.792c-3.161 0-5.123-.696-5.123-.696v-5.022c0-1.343.888-2.799 2.231-2.799h5.786c1.343 0 2.22 1.361 2.22 2.704v5.021z" fill="#e8a23d"/><path id="XMLID_2489_" fill="#651fff" d="M34.038 76.43h4.095v20.473h-4.095z"/><g id="XMLID_2696_" fill="#4527a0"><path id="XMLID_2503_" d="M22.777 71.437h13.307v6.017H22.777z"/><path id="XMLID_2496_" d="M36.085 71.437h13.307v6.017H36.085z"/><path id="XMLID_2488_" d="M34.038 71.437h4.095v6.017h-4.095z"/></g><g id="XMLID_2485_"><path id="XMLID_2487_" d="M36.085 11.513c-11.852 0-14.953 9.188-14.953 22.094s9.193 16.844 14.953 16.844 14.953-3.938 14.953-16.844c0-12.907-3.101-22.094-14.953-22.094z" fill="#fcc21b"/></g><g id="XMLID_2475_"><path id="XMLID_2476_" d="M40.607 21.637c-1.576 1.514-9.402 8.568-20.189 10.409V17.585s4.655-9.238 15.829-9.238 15.829 9.471 15.829 9.471v14.228s-7.321-2.81-10.997-10.32a.297.297 0 0 0-.472-.089z" fill="#6d4c41"/></g><path id="XMLID_2630_" d="M31.054 34.464c0 1.361-.911 2.465-2.04 2.465-1.127 0-2.044-1.104-2.044-2.465 0-1.365.917-2.469 2.044-2.469 1.129 0 2.04 1.104 2.04 2.469" fill="#444"/><path id="XMLID_2629_" d="M41.113 34.464c0 1.361.912 2.465 2.044 2.465 1.126 0 2.043-1.104 2.043-2.465 0-1.365-.917-2.469-2.043-2.469-1.132 0-2.044 1.104-2.044 2.469" fill="#444"/><path id="XMLID_2628_" d="M40.506 42.794h-4.421-4.421c-.507 0-.725.341-.389.851.469.715 2.211 2.089 4.811 2.089s4.341-1.374 4.811-2.089c.333-.511.116-.851-.391-.851z" fill="#4c3734"/><path id="XMLID_2627_" d="M38.221 39.311c-.752.213-1.533.317-2.136.317s-1.383-.104-2.136-.317c-.322-.091-.448.214-.333.416.239.42 1.2 1.267 2.469 1.267s2.23-.847 2.469-1.267c.115-.202-.012-.507-.333-.416z" fill="#e48c15"/><g id="XMLID_598_"><g id="XMLID_2669_"><path id="XMLID_2670_" d="M72.5 24.671s0 23.187 2.989 33.966c1.473 5.313 3.307 8.66 7.716 5.35l17.101-.17c4.403 3.36 7.557.138 8.506-5.318 2.242-12.883 2.242-33.828 2.242-33.828H72.5z" fill="#6d4c41"/></g><g id="XMLID_2667_"><ellipse id="XMLID_2668_" cx="91.777" cy="24.668" rx="19.277" ry="17.329" fill="#6d4c41"/></g><path id="XMLID_2666_" d="M112.567 61.637l.656 1.762a53.227 53.227 0 0 0 4.926 9.929l6.576 10.004a3.309 3.309 0 0 1-5.518 3.653l-15.746-23.611-.319-4.082 9.425 2.345z" fill="#fcc21b"/><path id="XMLID_2665_" d="M71.125 61.445l-.656 1.762a53.227 53.227 0 0 1-4.926 9.929L58.967 83.14a3.309 3.309 0 0 0 5.518 3.653l15.745-23.61.319-4.082-9.424 2.344z" fill="#fcc21b"/><path id="XMLID_2664_" d="M91.777 49.816c-3.497-.006-7.902.402-10.236 1.024-7.294 1.941-9.085 5.372-11.26 11.258l21.496 8.191V49.816z" fill="#a0f"/><path id="XMLID_2663_" fill="#a0f" d="M88.51 55.662h5.314v15.775H88.51z"/><path id="XMLID_2662_" fill="#a0f" d="M78.404 61.973h12.284v17.402H78.404z"/><path id="XMLID_2660_" fill="#a0f" d="M78.469 77.454L70.28 96.903h21.497V77.454z"/><path id="XMLID_2659_" fill="#fcc21b" d="M78.469 98.951h9.213v28.662h-9.213z"/><path id="XMLID_2658_" fill="#e8a23d" d="M78.469 96.903h9.213v3.071h-9.213z"/><path id="XMLID_2657_" d="M88.909 128H76.904v-2.501a4.002 4.002 0 0 1 4.002-4.002h4.002a4.002 4.002 0 0 1 4.002 4.002V128z" fill="#444"/><path id="XMLID_2656_" d="M91.777 49.816c3.497-.006 7.902.402 10.236 1.024 7.294 1.941 9.085 5.374 11.26 11.26l-21.496 8.189V49.816z" fill="#a0f"/><path id="XMLID_2655_" fill="#a0f" d="M91.777 61.973h13.307v17.402H91.777z"/><path id="XMLID_2653_" fill="#a0f" d="M105.084 77.454l8.189 19.449H91.777V77.454z"/><path id="XMLID_2652_" fill="#fcc21b" d="M95.871 98.951h9.213v28.662h-9.213z"/><path id="XMLID_2651_" fill="#e8a23d" d="M95.871 96.903h9.213v3.071h-9.213z"/><path id="XMLID_2650_" d="M94.645 128h12.005v-2.501a4.002 4.002 0 0 0-4.002-4.002h-4.002a4.002 4.002 0 0 0-4.002 4.002V128z" fill="#444"/><path id="XMLID_2649_" d="M91.782 56.777c-2.94 0-5.123-1.974-5.123-4.914v-5.118h10.236v5.118c0 2.94-2.173 4.914-5.113 4.914z" fill="#fcc21b"/><path id="XMLID_2648_" d="M96.895 51.767s-1.952.792-5.113.792-5.123-.696-5.123-.696v-5.022c0-1.343.888-2.799 2.231-2.799h5.786c1.343 0 2.22 1.361 2.22 2.704v5.021z" fill="#e8a23d"/><path id="XMLID_2647_" fill="#a0f" d="M89.729 76.43h4.095v20.473h-4.095z"/><g id="XMLID_440_" fill="#7b1fa2"><path id="XMLID_2661_" d="M78.469 71.437h13.307v6.017H78.469z"/><path id="XMLID_2654_" d="M91.777 71.437h13.307v6.017H91.777z"/><path id="XMLID_2646_" d="M89.729 71.437h4.095v6.017h-4.095z"/></g><g id="XMLID_2644_"><path id="XMLID_2645_" d="M91.777 11.513c-11.852 0-14.953 9.188-14.953 22.094s9.193 16.844 14.953 16.844 14.953-3.938 14.953-16.844c0-12.907-3.102-22.094-14.953-22.094z" fill="#fcc21b"/></g><g id="XMLID_2601_"><path id="XMLID_2643_" d="M96.299 21.637c-1.576 1.514-9.402 8.568-20.189 10.409V17.585s4.655-9.238 15.829-9.238 15.829 9.471 15.829 9.471v14.228s-7.321-2.81-10.997-10.32a.297.297 0 0 0-.472-.089z" fill="#6d4c41"/></g><path id="XMLID_2600_" d="M86.746 34.464c0 1.361-.911 2.465-2.04 2.465-1.127 0-2.044-1.104-2.044-2.465 0-1.365.917-2.469 2.044-2.469 1.129 0 2.04 1.104 2.04 2.469" fill="#444"/><path id="XMLID_2484_" d="M96.805 34.464c0 1.361.912 2.465 2.044 2.465 1.126 0 2.043-1.104 2.043-2.465 0-1.365-.917-2.469-2.043-2.469-1.132 0-2.044 1.104-2.044 2.469" fill="#444"/><path id="XMLID_2483_" d="M96.198 42.794h-4.421-4.421c-.507 0-.725.341-.389.851.469.715 2.211 2.089 4.811 2.089s4.341-1.374 4.811-2.089c.333-.511.116-.851-.391-.851z" fill="#4c3734"/><path id="XMLID_2482_" d="M93.912 39.311c-.752.213-1.533.317-2.136.317s-1.383-.104-2.136-.317c-.322-.091-.448.214-.333.416.239.42 1.2 1.267 2.469 1.267s2.23-.847 2.469-1.267c.115-.202-.011-.507-.333-.416z" fill="#e48c15"/></g></svg>