<svg id="レイヤー_1" xmlns="http://www.w3.org/2000/svg" viewBox="0 0 128 128"><g><path d="M120.605 30.692c-.649-5.389-2.952-11.294-6.661-15.767-3.13-3.78-7.266-6.538-12.237-7.107-8.839-1.021-15.865 4.84-21.53 10.721-6.323 6.571-10.85 14.012-15.625 21.718-2.623 4.236-5.469 8.479-8.706 12.282-7.603 8.949-17.626 15.558-24.687 25.001-3.646 4.873-7.586 9.497-11.57 14.095-3.628 4.197-7.781 8.262-10.751 12.977-3.202 5.077-2.214 12.075 4.001 14.076l.374.175c15.572 5.564 35.59 4.36 50.21-3.572 6.216-3.378 11.356-8.305 15.26-14.179 6.189-9.308 7.755-20.814 13.082-30.578 1.156-2.107 2.526-4.536 4.58-5.896.693-.463 1.414-.721 2.25-.693 6.474.176 4.42 17.233 4.98 21.16.329 2.361 2.33 4.114 4.713 3.777 3.344-.468 3.868-3.496 4.135-6.334.178-1.903.062-3.819.196-5.726.516-6.974 1.325-14.024 3.37-20.739a50.384 50.384 0 0 1 2.366-6.345c2.606-5.759 2.998-12.866 2.25-19.046z" fill="#d7598b"/><path d="M101.726 32.239c-.863 2.153-2.294 4.1-3.433 6.101-3.023 5.291-6.225 10.477-9.444 15.644-.711 1.138-1.423 2.276-2.134 3.406-1.414 2.277-2.774 4.616-4.144 6.963-3.033 5.186-6.118 10.388-10.058 14.852-2.988 3.389-6.625 6.136-10.823 7.861a22.106 22.106 0 0 1-7.835 1.655c-.364.018-1.823.249-2.081-.026-.756-.805.872-2.723 1.369-3.221.845-.853 1.841-1.519 2.784-2.259 1.823-1.43 3.797-2.692 5.541-4.232 3.824-3.379 7.568-6.901 10.618-11.001 3.779-5.072 6.856-10.619 10.138-16.017 4.74-7.78 9.151-15.206 15.163-22.079.978-1.118 3.041-2.519 4.58-1.683 1.582.85.212 2.902-.241 4.036z" fill="#fff"/><path d="M103.851 23.161c-7.025-1.636-13.357 8.968-16.31 13.178-8.75 12.495-15.349 26.378-26.599 36.925-4.5 4.215-12.682 8.217-14.976 14.513-1.77-.498-3.024-1.174-3.851-1.97-.444-.84-.703-1.863-.703-3.107.027-5.939 5.781-10.352 9.435-14.354 4.358-4.771 8.902-9.737 12.833-14.883 7.71-10.106 21.726-42.922 37.457-36.163 2.19.942 2.936 3.041 2.714 5.861z" fill="#2f2f2f"/></g></svg>