<svg id="レイヤー_1" xmlns="http://www.w3.org/2000/svg" viewBox="0 0 128 128"><g id="XMLID_4744_" fill="#00bfa5"><path id="XMLID_4746_" d="M89.5 66.621s-16-1.446-25.5 14.917V99.16l25.5-32.539z"/><path id="XMLID_4745_" d="M128 128.527l-64 .016V88.404C64 76.12 73.176 68.67 85.055 66.62c7.707-1.33 15.222-.844 22.08.783 11.234 2.667 20.864 9.633 20.864 21v40.124z"/></g><g id="XMLID_4741_" fill="#007689"><path id="XMLID_4743_" d="M0 128.527l64 .016V88.404C64 76.12 54.379 68.67 42.5 66.62c-7.707-1.33-14.777-.844-21.636.783C9.63 70.071 0 77.037 0 88.404v40.123z"/><path id="XMLID_4742_" d="M38.5 66.621S54.833 65.175 64 81.538V99.16L38.5 66.621z"/></g><path id="XMLID_1990_" d="M89.208 66.172s-.648-.003-1.756.104c-.797.1-1.595.207-2.397.345-5.169.892-9.808 2.823-13.414 5.718-.13.106-.26.208-.389.318a22.24 22.24 0 0 0-1.085.993c-.185.179-.373.342-.557.531a20.42 20.42 0 0 0-1.434 1.638c-.284.311-.563.64-.841.972-1.117 1.382-2.263 2.933-3.335 4.748-4.827-8.616-11.639-12.291-17.009-13.843a36.034 36.034 0 0 0-4.491-1.074 53.71 53.71 0 0 0-2.308-.335l-.697 62.251 24.505.005 25.749-.006-.541-62.365z" opacity=".2"/><g id="XMLID_334_"><path id="XMLID_362_" d="M33.458 74.121a7 7 0 0 1-7-7v-6.417h14v6.417a7 7 0 0 1-7 7z" fill="#e59900"/><g id="XMLID_351_"><g id="XMLID_358_" fill="#e59600"><path id="XMLID_361_" d="M54.523 37.223s3.863.669 3.863 4.828c0 3.669-2.818 5.118-5.635 5.118v-9.946h1.772z"/><path id="XMLID_360_" d="M12.394 37.223s-3.863.669-3.863 4.828c0 3.669 2.818 5.118 5.635 5.118v-9.946h-1.772z"/></g><path id="XMLID_357_" d="M33.458 9.981c-16.646 0-21.002 12.904-21.002 31.031 0 18.797 12.082 23.657 21.002 23.657 8.789 0 21.002-4.721 21.002-23.657 0-18.127-4.356-31.031-21.002-31.031z" fill="#fcc21b"/><path id="XMLID_356_" d="M26.543 42.696c0 1.872-1.253 3.389-2.804 3.389-1.55 0-2.81-1.517-2.81-3.389 0-1.877 1.261-3.394 2.81-3.394 1.551 0 2.804 1.517 2.804 3.394" fill="#444"/><path id="XMLID_355_" d="M40.371 42.696c0 1.872 1.254 3.389 2.81 3.389 1.548 0 2.808-1.517 2.808-3.389 0-1.877-1.26-3.394-2.808-3.394-1.556 0-2.81 1.517-2.81 3.394" fill="#444"/><path id="XMLID_354_" d="M39.536 54.147h-6.078-6.078c-.697 0-.996.468-.535 1.17.645.983 3.039 2.872 6.613 2.872s5.968-1.889 6.613-2.872c.461-.702.162-1.17-.535-1.17z" fill="#513f35"/><path id="XMLID_353_" d="M36.395 48.98c-1.034.293-2.107.436-2.936.436s-1.902-.143-2.936-.436c-.442-.125-.616.294-.458.572.328.577 1.649 1.742 3.394 1.742s3.065-1.165 3.394-1.742c.158-.278-.016-.697-.458-.572z" fill="#e59600"/><path id="XMLID_352_" d="M33.96 7.613s-.325-.01-.465-.009c-.141-.001-.465.009-.465.009C15.067 7.96 9.652 18.767 9.652 26.261c0 7.282.007 12.633.007 12.633s.285-.297.813-.708c.563-.438 1.185-.684 1.185-.684l.907 6.084 5.986-12.505a.198.198 0 0 1 .203-.114l3.547.394c3.566.396 7.147.588 10.729.598v.008c.155.001.31-.004.465-.004.155 0 .31.005.465.004v-.008a99.97 99.97 0 0 0 10.729-.598l3.547-.394a.201.201 0 0 1 .203.114l5.986 12.505.907-6.084s.623.247 1.185.684c.528.411.813.708.813.708s.007-5.351.007-12.633c.002-7.494-5.413-18.301-23.376-18.648z" fill="#6d4c41"/></g><path id="XMLID_350_" d="M94.329 73.968a7 7 0 0 1-7-7v-5.984h14v5.984a7 7 0 0 1-7 7z" fill="#e59900"/><g id="XMLID_335_"><g id="XMLID_347_" fill="#e59600"><path id="XMLID_349_" d="M115.606 37.223s3.863.669 3.863 4.828c0 3.669-2.818 5.118-5.635 5.118v-9.946h1.772z"/><path id="XMLID_348_" d="M73.478 37.223s-3.863.669-3.863 4.828c0 3.669 2.818 5.118 5.635 5.118v-9.946h-1.772z"/></g><path id="XMLID_346_" d="M94.542 9.981c-16.646 0-21.002 12.904-21.002 31.031 0 18.797 12.082 23.657 21.002 23.657 8.789 0 21.002-4.721 21.002-23.657-.001-18.127-4.357-31.031-21.002-31.031z" fill="#fcc21b"/><path id="XMLID_345_" d="M87.626 42.696c0 1.872-1.253 3.389-2.804 3.389-1.55 0-2.811-1.517-2.811-3.389 0-1.877 1.261-3.394 2.811-3.394 1.551 0 2.804 1.517 2.804 3.394" fill="#444"/><path id="XMLID_344_" d="M101.454 42.696c0 1.872 1.254 3.389 2.81 3.389 1.548 0 2.808-1.517 2.808-3.389 0-1.877-1.26-3.394-2.808-3.394-1.556 0-2.81 1.517-2.81 3.394" fill="#444"/><path id="XMLID_343_" d="M100.619 54.147h-6.078-6.078c-.697 0-.996.468-.535 1.17.645.983 3.039 2.872 6.613 2.872s5.968-1.889 6.613-2.872c.461-.702.162-1.17-.535-1.17z" fill="#513f35"/><path id="XMLID_342_" d="M97.478 48.98c-1.034.293-2.107.436-2.936.436-.829 0-1.902-.143-2.936-.436-.442-.125-.616.294-.458.572.328.577 1.649 1.742 3.394 1.742s3.065-1.165 3.394-1.742c.158-.278-.016-.697-.458-.572z" fill="#e59600"/><path id="XMLID_341_" d="M95.043 7.613s-.325-.01-.465-.009c-.141-.001-.465.009-.465.009-17.963.347-23.378 11.154-23.378 18.648 0 7.282.007 12.633.007 12.633s.285-.297.813-.708c.563-.438 1.185-.684 1.185-.684l.907 6.084 5.986-12.505a.198.198 0 0 1 .203-.114l3.547.394c3.566.396 7.147.588 10.729.598v.008c.155.001.31-.004.465-.004.155 0 .31.005.465.004v-.008a99.97 99.97 0 0 0 10.729-.598l3.547-.394a.201.201 0 0 1 .203.114l5.986 12.505.907-6.084s.623.247 1.185.684c.528.411.813.708.813.708s.007-5.351.007-12.633c.002-7.494-5.413-18.301-23.376-18.648z" fill="#6d4c41"/></g></g><path id="XMLID_4739_" fill="#fcc21b" d="M-.07 96.968h8.195v31.594H-.07z"/><path id="XMLID_4738_" fill="#fcc21b" d="M120.07 96.968h8v31.594h-8z"/><g id="XMLID_1899_"><path id="XMLID_4717_" d="M60.83 129.155H17.02c-.313 0 0-7.795 0-7.795 0-10 12.731-13.348 17.152-13.348h9.524c4.421 0 17.134 3.348 17.134 13.348v.283c0 .362.314 7.512 0 7.512z" fill="#d8beff"/><path id="XMLID_4716_" d="M39.402 116.301h-.963a4.286 4.286 0 0 1-4.286-4.286v-2.381h9.535v2.381a4.285 4.285 0 0 1-4.286 4.286z" fill="#e59900"/><g id="XMLID_675_"><ellipse id="XMLID_733_" cx="38.993" cy="85.516" rx="20.698" ry="19.103" fill="#6d4c41"/><g id="XMLID_714_" fill="#e59600"><path id="XMLID_716_" d="M55.942 90.725s3.154.546 3.154 3.942c0 2.996-2.3 4.178-4.601 4.178v-8.12h1.447z"/><path id="XMLID_715_" d="M22.045 90.725s-3.154.546-3.154 3.942c0 2.996 2.3 4.178 4.601 4.178v-8.12h-1.447z"/></g><g id="XMLID_690_"><g id="XMLID_712_"><path d="M52.581 99.94c1.691.065 3.213.766 4.073 2.293.395.704.669 1.555.812 2.349.124.69.008 2.083.61 2.586.272.228.832.269.989.613.428.944-1.683 1.96-2.226 2.132-3.594 1.143-8.595-.165-9.53-4.349-.71-3.176 2.156-5.745 5.272-5.624z" fill="#6d4c41"/></g><g id="XMLID_692_"><path d="M25.547 99.951c-1.692.036-3.226.71-4.113 2.221-.407.697-.696 1.543-.853 2.335-.136.688-.044 2.083-.655 2.575-.276.224-.837.255-1 .595-.444.937 1.648 1.989 2.188 2.171 3.574 1.205 8.596-.015 9.604-4.182.767-3.163-2.054-5.781-5.171-5.715z" fill="#6d4c41"/></g></g><g id="XMLID_689_"><path d="M50.99 80.535c-2.868-3.574-7.812-5.108-11.996-5.108-4.181 0-9.124 1.533-11.993 5.108-2.805 3.495-4.276 8.008-4.255 14.067.021 4.885 1.277 8.639 4.819 11.594 3.279 2.737 7.074 4.216 11.184 4.216 4.039 0 8.499-1.413 11.66-4.191 3.467-3.05 4.813-6.734 4.833-11.619.024-6.059-1.451-10.572-4.252-14.067z" fill="#fcc21b"/></g><path id="XMLID_688_" d="M41.366 98.27c-.836.237-1.703.352-2.373.352s-1.537-.115-2.373-.352c-.357-.101-.498.237-.37.463.265.466 1.333 1.408 2.742 1.408 1.41 0 2.477-.941 2.742-1.408.13-.226-.011-.564-.368-.463z" fill="#e59600"/><path id="XMLID_687_" d="M43.905 102.128h-4.911-4.911c-.563 0-.805.379-.433.945.521.794 2.456 2.321 5.344 2.321 2.888 0 4.823-1.527 5.344-2.321.372-.567.13-.945-.433-.945z" fill="#513f35"/><path id="XMLID_680_" d="M57.144 77.824L43.63 68.82H34.28l-13.514 9.004-1.771 6.368 1.862 5.72 1.316 2.535c7.13-1.62 14.288-6.609 16.543-9.406a.305.305 0 0 1 .477 0c2.256 2.798 9.246 7.718 16.544 9.406l1.315-2.535 1.862-5.72-1.77-6.368z" fill="#6d4c41"/><g id="XMLID_676_" fill="#444"><path id="XMLID_679_" d="M32.492 94.745c0 1.448-.969 2.622-2.17 2.622-1.199 0-2.174-1.174-2.174-2.622 0-1.452.975-2.626 2.174-2.626 1.201 0 2.17 1.174 2.17 2.626"/><path id="XMLID_677_" d="M49.838 94.745c0 1.448-.969 2.622-2.17 2.622-1.199 0-2.174-1.174-2.174-2.622 0-1.452.975-2.626 2.174-2.626 1.201 0 2.17 1.174 2.17 2.626"/></g></g></g><g id="XMLID_1900_"><path id="XMLID_4692_" d="M110.981 129.155h-43.81c-.313 0 0-7.795 0-7.795 0-10 12.731-13.348 17.152-13.348h9.524c4.421 0 17.134 3.348 17.134 13.348v.283c0 .362.313 7.512 0 7.512z" fill="#d8beff"/><path id="XMLID_4691_" d="M89.553 116.301h-.963a4.286 4.286 0 0 1-4.286-4.286v-2.381h9.535v2.381a4.286 4.286 0 0 1-4.286 4.286z" fill="#e59900"/><g id="XMLID_749_"><ellipse id="XMLID_786_" cx="89.077" cy="85.516" rx="20.698" ry="19.103" fill="#6d4c41"/><g id="XMLID_783_" fill="#e59600"><path id="XMLID_785_" d="M106.025 90.725s3.154.546 3.154 3.942c0 2.996-2.3 4.178-4.601 4.178v-8.12h1.447z"/><path id="XMLID_784_" d="M72.128 90.725s-3.154.546-3.154 3.942c0 2.996 2.3 4.178 4.601 4.178v-8.12h-1.447z"/></g><g id="XMLID_764_"><g id="XMLID_775_"><path d="M102.664 99.94c1.691.065 3.213.766 4.073 2.293.395.704.669 1.555.812 2.349.124.69.008 2.083.61 2.586.272.228.832.269.989.613.428.944-1.683 1.96-2.226 2.132-3.594 1.143-8.595-.165-9.53-4.349-.71-3.176 2.156-5.745 5.272-5.624z" fill="#6d4c41"/></g><g id="XMLID_765_"><path d="M75.63 99.951c-1.692.036-3.226.71-4.113 2.221-.407.697-.696 1.543-.853 2.335-.136.688-.044 2.083-.655 2.575-.276.224-.837.255-1 .595-.444.937 1.648 1.989 2.188 2.171 3.574 1.205 8.596-.015 9.604-4.182.767-3.163-2.054-5.781-5.171-5.715z" fill="#6d4c41"/></g></g><g id="XMLID_758_"><path d="M101.073 80.535c-2.868-3.574-7.812-5.108-11.996-5.108-4.181 0-9.124 1.533-11.993 5.108-2.805 3.495-4.276 8.008-4.255 14.067.021 4.885 1.277 8.639 4.819 11.594 3.279 2.737 7.074 4.216 11.184 4.216 4.039 0 8.499-1.413 11.66-4.191 3.467-3.05 4.813-6.734 4.833-11.619.024-6.059-1.451-10.572-4.252-14.067z" fill="#fcc21b"/></g><path id="XMLID_757_" d="M91.449 98.27c-.836.237-1.703.352-2.373.352s-1.537-.115-2.373-.352c-.357-.101-.498.237-.37.463.265.466 1.333 1.408 2.742 1.408 1.41 0 2.477-.941 2.742-1.408.13-.226-.01-.564-.368-.463z" fill="#e59600"/><path id="XMLID_756_" d="M93.988 102.128h-4.911-4.911c-.563 0-.805.379-.433.945.521.794 2.456 2.321 5.344 2.321s4.823-1.527 5.344-2.321c.372-.567.13-.945-.433-.945z" fill="#513f35"/><path id="XMLID_755_" d="M107.227 77.824L93.713 68.82H84.363l-13.514 9.004-1.771 6.368 1.862 5.72 1.316 2.535c7.13-1.62 14.288-6.609 16.543-9.406a.305.305 0 0 1 .477 0c2.256 2.798 9.246 7.718 16.544 9.406l1.315-2.535 1.862-5.72-1.77-6.368z" fill="#6d4c41"/><g id="XMLID_750_" fill="#444"><path id="XMLID_754_" d="M82.576 94.745c0 1.448-.969 2.622-2.17 2.622-1.199 0-2.174-1.174-2.174-2.622 0-1.452.975-2.626 2.174-2.626 1.201 0 2.17 1.174 2.17 2.626"/><path id="XMLID_753_" d="M99.922 94.745c0 1.448-.969 2.622-2.17 2.622-1.199 0-2.174-1.174-2.174-2.622 0-1.452.975-2.626 2.174-2.626 1.201 0 2.17 1.174 2.17 2.626"/></g></g></g></svg>