<svg xmlns="http://www.w3.org/2000/svg" viewBox="0 0 128 128"><g id="图层_1"><ellipse id="XMLID_419_" cx="64" cy="57.09" rx="54.5" ry="51.312" fill="#6d4c41"/><g id="XMLID_416_" fill="#e59600"><path id="XMLID_418_" d="M108.628 69.776s8.304 1.438 8.304 10.38c0 7.889-6.057 11.002-12.114 11.002V69.776h3.81z"/><path id="XMLID_417_" d="M19.372 69.776s-8.304 1.438-8.304 10.38c0 7.889 6.057 11.002 12.114 11.002V69.776h-3.81z"/></g><g id="XMLID_413_"><path d="M95.588 42.945C88.035 33.534 75.019 29.496 64 29.496c-11.01 0-24.026 4.038-31.579 13.449-7.385 9.202-11.26 21.087-11.205 37.04.056 12.862 3.361 22.747 12.689 30.529 8.635 7.206 18.626 11.101 29.45 11.101 10.635 0 22.378-3.721 30.702-11.036 9.129-8.03 12.674-17.732 12.726-30.595.065-15.952-3.818-27.836-11.195-37.039z" fill="#fcc21b"/></g><path id="XMLID_412_" d="M70.247 89.643c-2.201.623-4.484.927-6.247.927-1.764 0-4.047-.304-6.247-.927-.941-.267-1.311.625-.974 1.218.698 1.228 3.509 3.706 7.221 3.706s6.523-2.478 7.221-3.706c.337-.593-.032-1.484-.974-1.218z" fill="#e59600"/><path id="XMLID_407_" d="M76.932 99.802H64 51.068c-1.483 0-2.119.997-1.139 2.49 1.373 2.091 6.468 6.11 14.072 6.11s12.699-4.02 14.072-6.11c.979-1.493.342-2.49-1.141-2.49z" fill="#513f35"/><g id="XMLID_403_" fill="#444"><path id="XMLID_405_" d="M46.882 80.362c0 3.813-2.552 6.904-5.713 6.904-3.157 0-5.725-3.091-5.725-6.904 0-3.823 2.568-6.914 5.725-6.914 3.161.001 5.713 3.092 5.713 6.914"/><path id="XMLID_404_" d="M92.556 80.362c0 3.813-2.552 6.904-5.713 6.904-3.157 0-5.725-3.091-5.725-6.904 0-3.823 2.568-6.914 5.725-6.914 3.162.001 5.713 3.092 5.713 6.914"/></g><path id="XMLID_398_" d="M18.85 77.403s12.423-13.007 16.975-17.386c.288-.277.759-.04.719.358a143.709 143.709 0 0 0-.391 4.986.86.86 0 0 0 1.02.898c8.917-1.694 17.499-5.4 19.81-6.444.285-.129.591.093.582.405a81.322 81.322 0 0 0-.005 4.198.868.868 0 0 0 .997.834c8.183-1.255 15.005-4.611 17.259-5.816a2.053 2.053 0 0 1 1.676-.139c4.242 1.518 9.386 4.516 11.261 5.647a.84.84 0 0 0 1.176-.312c.72-1.285 1.701-3.266 2.161-4.207a.416.416 0 0 1 .671-.122c6.67 6.587 16.389 17.099 16.389 17.099l6.874-22.056s-11.132-39.254-49.8-39.254-53.316 41.874-53.316 41.874l5.942 19.437z" fill="#6d4c41"/></g></svg>