<svg xmlns="http://www.w3.org/2000/svg" viewBox="0 0 128 128"><g id="图层_1"><path id="XMLID_1762_" d="M118.5 55.799l-53.484-2.216L64 53.561l-1.016.023L9.5 55.799s-.268 25.777 3.159 48.836c2.549 17.152 2.992 19.872 15.189 18.473 17.516-2.009 26.241-4.482 35.663-4.497.161 0 .327.006.489.007.162-.001.328-.007.489-.007 9.422.014 18.147 2.488 35.663 4.497 12.197 1.399 12.641-1.321 15.189-18.473 3.427-23.058 3.159-48.836 3.159-48.836z" fill="#6d4c41"/><ellipse id="XMLID_201_" cx="64" cy="56.06" rx="54.5" ry="50.302" fill="#6d4c41"/><path id="XMLID_200_" d="M64.17 14.868c-33.112 0-42.954 23.356-42.954 58.912s26.862 48.359 42.954 48.359c16.092 0 42.614-13.137 42.614-48.693 0-35.557-9.502-58.578-42.614-58.578z" fill="#fcc21b"/><path id="XMLID_196_" d="M49.912 77.192c0 3.813-2.552 6.904-5.713 6.904-3.157 0-5.725-3.091-5.725-6.904 0-3.823 2.568-6.914 5.725-6.914 3.161 0 5.713 3.091 5.713 6.914" fill="#444"/><path id="XMLID_195_" d="M78.081 77.192c0 3.813 2.555 6.904 5.725 6.904 3.154 0 5.721-3.091 5.721-6.904 0-3.823-2.567-6.914-5.721-6.914-3.17 0-5.725 3.091-5.725 6.914" fill="#444"/><path id="XMLID_194_" d="M76.458 42.76c-4.343 4.172-25.903 23.604-55.618 28.676V31.597s12.825-25.45 43.606-25.45 43.606 26.091 43.606 26.091v39.198s-20.168-7.741-30.297-28.432a.813.813 0 0 0-1.297-.244z" fill="#6d4c41"/><path id="XMLID_192_" d="M76.381 100.519H64 51.619c-1.42 0-2.029.954-1.091 2.384 1.314 2.002 6.192 5.85 13.472 5.85s12.158-3.848 13.472-5.85c.939-1.43.329-2.384-1.091-2.384z" fill="#513f35"/><path id="XMLID_160_" d="M69.981 89.994c-2.107.597-4.293.888-5.981.888-1.689 0-3.874-.291-5.981-.888-.901-.255-1.255.598-.932 1.166.668 1.176 3.359 3.549 6.913 3.549 3.554 0 6.245-2.373 6.913-3.549.323-.568-.031-1.421-.932-1.166z" fill="#e59600"/><path id="XMLID_802_" d="M76.458 42.76c-4.343 4.172-25.903 23.604-55.618 28.676V31.597s12.825-25.45 43.606-25.45 43.606 26.091 43.606 26.091v39.198s-20.168-7.741-30.297-28.432a.813.813 0 0 0-1.297-.244z" fill="#6d4c41"/><g id="XMLID_816_"><path id="XMLID_806_" d="M49.911 77.192c0 3.813-2.552 6.904-5.713 6.904-3.157 0-5.725-3.091-5.725-6.904 0-3.823 2.568-6.914 5.725-6.914 3.162 0 5.713 3.091 5.713 6.914" fill="#444"/><path id="XMLID_803_" d="M78.081 77.192c0 3.813 2.555 6.904 5.725 6.904 3.154 0 5.721-3.091 5.721-6.904 0-3.823-2.567-6.914-5.721-6.914-3.17 0-5.725 3.091-5.725 6.914" fill="#444"/><path id="XMLID_798_" d="M76.381 100.519H64 51.619c-1.42 0-2.029.954-1.091 2.384 1.314 2.002 6.192 5.85 13.472 5.85 7.28 0 12.158-3.848 13.472-5.85.938-1.43.329-2.384-1.091-2.384z" fill="#513f35"/><path id="XMLID_793_" d="M69.981 89.994c-2.107.597-4.293.888-5.981.888-1.689 0-3.874-.291-5.981-.888-.901-.255-1.255.598-.932 1.166.669 1.176 3.359 3.549 6.913 3.549 3.554 0 6.245-2.373 6.913-3.549.323-.568-.031-1.421-.932-1.166z" fill="#e59600"/></g></g></svg>