<svg id="レイヤー_1" xmlns="http://www.w3.org/2000/svg" viewBox="0 0 128 128"><path id="XMLID_5034_" d="M7.796 30.672s0 31.032 4 45.46c1.972 7.111 4.426 11.59 10.327 7.16l22.888-.228c5.892 4.497 10.114.185 11.384-7.117 3-17.242 3-45.274 3-45.274H7.796z" fill="#6d4c41"/><path id="XMLID_5033_" d="M68.804 30.672s0 31.032 4 45.46c1.972 7.111 4.426 11.59 10.327 7.16l22.888-.228c5.892 4.497 10.114.185 11.384-7.117 3-17.242 3-45.274 3-45.274H68.804z" fill="#6d4c41"/><g id="XMLID_5030_" fill="#a0f"><path id="XMLID_5032_" d="M89.498 66.621s-16-1.446-25.5 14.917V99.16l25.5-32.539z"/><path id="XMLID_5031_" d="M127.998 128.527l-64 .016V88.404c0-12.284 9.176-19.734 21.055-21.784 7.707-1.33 15.222-.844 22.08.783 11.234 2.667 20.864 9.633 20.864 21v40.124z"/></g><g id="XMLID_5027_" fill="#651fff"><path id="XMLID_5029_" d="M-.002 128.527l64 .016V88.404c0-12.284-9.621-19.734-21.5-21.784-7.707-1.33-14.777-.844-21.636.783-11.234 2.667-20.864 9.633-20.864 21v40.124z"/><path id="XMLID_5028_" d="M38.498 66.621s16.333-1.446 25.5 14.917V99.16l-25.5-32.539z"/></g><path id="XMLID_2124_" d="M89.208 66.172s-.648-.003-1.756.104c-.797.1-1.595.207-2.397.345-5.169.892-9.808 2.823-13.414 5.718-.13.106-.26.208-.389.318a22.24 22.24 0 0 0-1.085.993c-.185.179-.373.342-.557.531a20.42 20.42 0 0 0-1.434 1.638c-.284.311-.563.64-.841.972-1.117 1.382-2.263 2.933-3.335 4.748-4.827-8.616-11.639-12.291-17.009-13.843a36.034 36.034 0 0 0-4.491-1.074 53.71 53.71 0 0 0-2.308-.335l-.697 62.251 24.505.005 25.749-.006-.541-62.365z" opacity=".2"/><path id="XMLID_5025_" fill="#fcc21b" d="M-.071 96.968h8.195v31.594H-.071z"/><path id="XMLID_5024_" fill="#fcc21b" d="M120.068 96.968h8v31.594h-8z"/><path id="XMLID_5023_" d="M94.607 73.968a7 7 0 0 1-7-7v-5.984h14v5.984a7 7 0 0 1-7 7z" fill="#e59900"/><ellipse id="XMLID_5022_" cx="94.677" cy="30.521" rx="25.8" ry="23.193" fill="#6d4c41"/><path id="XMLID_5021_" d="M94.677 12.915c-15.862 0-20.013 12.296-20.013 29.57s12.304 22.543 20.013 22.543c7.709 0 20.013-5.27 20.013-22.543-.001-17.274-4.151-29.57-20.013-29.57z" fill="#fcc21b"/><path id="XMLID_5020_" d="M87.832 43.193c0 1.852-1.24 3.354-2.775 3.354-1.534 0-2.782-1.502-2.782-3.354 0-1.857 1.248-3.359 2.782-3.359 1.536 0 2.775 1.502 2.775 3.359" fill="#444"/><path id="XMLID_5019_" d="M101.517 43.193c0 1.852 1.241 3.354 2.781 3.354 1.532 0 2.779-1.502 2.779-3.354 0-1.857-1.247-3.359-2.779-3.359-1.539 0-2.781 1.502-2.781 3.359" fill="#444"/><path id="XMLID_5018_" d="M100.729 26.465c-2.11 2.027-12.584 11.467-27.02 13.931V21.042S79.94 8.678 94.894 8.678s21.185 12.675 21.185 12.675v19.043s-9.798-3.761-14.719-13.813a.397.397 0 0 0-.631-.118z" fill="#6d4c41"/><path id="XMLID_5017_" d="M100.692 54.525h-6.015-6.015c-.69 0-.986.464-.53 1.158.639.972 3.008 2.842 6.545 2.842s5.906-1.87 6.545-2.842c.455-.694.159-1.158-.53-1.158z" fill="#4c3734"/><path id="XMLID_5016_" d="M97.582 49.787c-1.023.29-2.085.431-2.906.431s-1.882-.141-2.906-.431c-.438-.124-.61.291-.453.566.325.571 1.632 1.724 3.359 1.724s3.034-1.153 3.359-1.724c.157-.275-.015-.69-.453-.566z" fill="#e48c15"/><path id="XMLID_5015_" d="M33.632 73.968a7 7 0 0 1-7-7v-6.417h14v6.417a7 7 0 0 1-7 7z" fill="#e59900"/><g id="XMLID_2017_"><path id="XMLID_5014_" d="M60.829 129.155h-43.81c-.313 0 0-7.795 0-7.795 0-10 12.731-13.348 17.152-13.348h9.524c4.421 0 17.134 3.348 17.134 13.348v.283c0 .362.313 7.512 0 7.512z" fill="#b2dfdb"/><path id="XMLID_5013_" d="M39.4 116.301h-.963a4.286 4.286 0 0 1-4.286-4.286v-2.381h9.535v2.381a4.285 4.285 0 0 1-4.286 4.286z" fill="#e59900"/><g id="XMLID_1069_"><ellipse id="XMLID_1082_" cx="38.891" cy="85.903" rx="20.701" ry="19.49" fill="#6d4c41"/><g id="XMLID_1079_" fill="#e59600"><path id="XMLID_1081_" d="M55.842 90.721s3.154.546 3.154 3.943c0 2.996-2.301 4.179-4.602 4.179v-8.122h1.448z"/><path id="XMLID_1080_" d="M21.939 90.721s-3.154.546-3.154 3.943c0 2.996 2.301 4.179 4.602 4.179v-8.122h-1.448z"/></g><g id="XMLID_1076_"><path d="M50.889 80.53c-2.869-3.575-7.813-5.109-11.998-5.109-4.182 0-9.126 1.534-11.995 5.109-2.805 3.495-4.277 8.01-4.256 14.069.021 4.886 1.277 8.64 4.82 11.596 3.28 2.737 7.075 4.217 11.186 4.217 4.04 0 8.5-1.413 11.662-4.192 3.467-3.05 4.814-6.736 4.834-11.621.024-6.059-1.451-10.574-4.253-14.069z" fill="#fcc21b"/></g><path id="XMLID_1075_" d="M41.264 98.268c-.836.237-1.703.352-2.373.352s-1.537-.115-2.373-.352c-.357-.101-.498.237-.37.463.265.466 1.333 1.408 2.743 1.408s2.478-.941 2.743-1.408c.128-.226-.013-.565-.37-.463z" fill="#e59600"/><path id="XMLID_1074_" d="M43.803 102.126h-4.912-4.912c-.563 0-.805.379-.433.946.521.794 2.457 2.321 5.345 2.321s4.824-1.527 5.345-2.321c.372-.567.13-.946-.433-.946z" fill="#513f35"/><g id="XMLID_1071_" fill="#444"><path id="XMLID_1073_" d="M32.389 94.742c0 1.448-.969 2.622-2.17 2.622-1.199 0-2.175-1.174-2.175-2.622 0-1.452.975-2.626 2.175-2.626 1.2 0 2.17 1.174 2.17 2.626"/><path id="XMLID_1072_" d="M49.738 94.742c0 1.448-.969 2.622-2.17 2.622-1.199 0-2.175-1.174-2.175-2.622 0-1.452.975-2.626 2.175-2.626 1.201 0 2.17 1.174 2.17 2.626"/></g><path id="XMLID_1070_" d="M21.741 93.618s4.719-4.941 6.448-6.604c.11-.105.288-.015.273.136-.069.687-.12 1.441-.148 1.894a.327.327 0 0 0 .387.341c3.387-.643 6.647-2.051 7.525-2.448.108-.049.224.035.221.154a31.33 31.33 0 0 0-.002 1.595.33.33 0 0 0 .379.317c3.108-.477 5.699-1.752 6.556-2.209a.78.78 0 0 1 .637-.053c1.611.577 3.565 1.715 4.277 2.145a.32.32 0 0 0 .447-.119 39.23 39.23 0 0 0 .821-1.598.158.158 0 0 1 .255-.046c2.533 2.502 6.225 6.495 6.225 6.495l2.611-8.378s-4.228-14.91-18.916-14.91-20.253 15.905-20.253 15.905l2.257 7.383z" fill="#6d4c41"/></g></g><ellipse id="XMLID_740_" cx="33.669" cy="30.521" rx="25.8" ry="23.193" fill="#6d4c41"/><path id="XMLID_739_" d="M33.669 12.915c-15.862 0-20.013 12.296-20.013 29.57S25.96 65.028 33.669 65.028c7.709 0 20.013-5.27 20.013-22.543-.001-17.274-4.151-29.57-20.013-29.57z" fill="#fcc21b"/><path id="XMLID_738_" d="M26.824 43.193c0 1.852-1.24 3.354-2.775 3.354-1.534 0-2.782-1.502-2.782-3.354 0-1.857 1.248-3.359 2.782-3.359 1.536 0 2.775 1.502 2.775 3.359" fill="#444"/><path id="XMLID_635_" d="M40.509 43.193c0 1.852 1.241 3.354 2.781 3.354 1.532 0 2.779-1.502 2.779-3.354 0-1.857-1.247-3.359-2.779-3.359-1.539 0-2.781 1.502-2.781 3.359" fill="#444"/><path id="XMLID_633_" d="M39.721 26.465c-2.11 2.027-12.584 11.467-27.02 13.931V21.042S18.932 8.678 33.886 8.678 55.07 21.354 55.07 21.354v19.043s-9.798-3.761-14.719-13.813a.395.395 0 0 0-.63-.119z" fill="#6d4c41"/><path id="XMLID_498_" d="M39.684 54.525h-6.015-6.015c-.69 0-.986.464-.53 1.158.639.972 3.008 2.842 6.545 2.842s5.906-1.87 6.545-2.842c.455-.694.159-1.158-.53-1.158z" fill="#4c3734"/><path id="XMLID_497_" d="M36.574 49.787c-1.023.29-2.085.431-2.906.431s-1.882-.141-2.906-.431c-.438-.124-.61.291-.453.566.325.571 1.632 1.724 3.359 1.724s3.034-1.153 3.359-1.724c.157-.275-.015-.69-.453-.566z" fill="#e48c15"/><g id="XMLID_2018_"><path id="XMLID_5012_" d="M110.184 129.155h-43.81c-.313 0 0-7.795 0-7.795 0-10 12.731-13.348 17.152-13.348h9.524c4.421 0 17.134 3.348 17.134 13.348v.283c0 .362.313 7.512 0 7.512z" fill="#b2dfdb"/><path id="XMLID_5011_" d="M88.755 116.301h-.963a4.286 4.286 0 0 1-4.286-4.286v-2.381h9.535v2.381a4.285 4.285 0 0 1-4.286 4.286z" fill="#e59900"/><g id="XMLID_1083_"><ellipse id="XMLID_1548_" cx="88.284" cy="85.903" rx="20.701" ry="19.49" fill="#6d4c41"/><g id="XMLID_1540_" fill="#e59600"><path id="XMLID_1544_" d="M105.236 90.721s3.154.546 3.154 3.943c0 2.996-2.301 4.179-4.602 4.179v-8.122h1.448z"/><path id="XMLID_1542_" d="M71.333 90.721s-3.154.546-3.154 3.943c0 2.996 2.301 4.179 4.602 4.179v-8.122h-1.448z"/></g><g id="XMLID_1539_"><path d="M100.283 80.53c-2.869-3.575-7.813-5.109-11.998-5.109-4.182 0-9.126 1.534-11.995 5.109-2.805 3.495-4.277 8.01-4.256 14.069.021 4.886 1.277 8.64 4.82 11.596 3.28 2.737 7.075 4.217 11.186 4.217 4.04 0 8.5-1.413 11.662-4.192 3.467-3.05 4.814-6.736 4.834-11.621.024-6.059-1.451-10.574-4.253-14.069z" fill="#fcc21b"/></g><path id="XMLID_1538_" d="M90.657 98.268c-.836.237-1.703.352-2.373.352s-1.537-.115-2.373-.352c-.357-.101-.498.237-.37.463.265.466 1.333 1.408 2.743 1.408s2.478-.941 2.743-1.408c.128-.226-.012-.565-.37-.463z" fill="#e59600"/><path id="XMLID_1537_" d="M93.197 102.126h-4.912-4.912c-.563 0-.805.379-.433.946.521.794 2.457 2.321 5.345 2.321s4.824-1.527 5.345-2.321c.372-.567.13-.946-.433-.946z" fill="#513f35"/><g id="XMLID_1534_" fill="#444"><path id="XMLID_1536_" d="M81.782 94.742c0 1.448-.969 2.622-2.17 2.622-1.199 0-2.175-1.174-2.175-2.622 0-1.452.975-2.626 2.175-2.626 1.201 0 2.17 1.174 2.17 2.626"/><path id="XMLID_1535_" d="M99.131 94.742c0 1.448-.969 2.622-2.17 2.622-1.199 0-2.175-1.174-2.175-2.622 0-1.452.975-2.626 2.175-2.626 1.201 0 2.17 1.174 2.17 2.626"/></g><path id="XMLID_1533_" d="M71.134 93.618s4.719-4.941 6.448-6.604c.11-.105.288-.015.273.136-.069.687-.12 1.441-.148 1.894a.327.327 0 0 0 .387.341c3.387-.643 6.647-2.051 7.525-2.448.108-.049.224.035.221.154a31.33 31.33 0 0 0-.002 1.595.33.33 0 0 0 .379.317c3.108-.477 5.7-1.752 6.556-2.209a.78.78 0 0 1 .637-.053c1.611.577 3.565 1.715 4.277 2.145a.32.32 0 0 0 .447-.119 39.23 39.23 0 0 0 .821-1.598.158.158 0 0 1 .255-.046c2.533 2.502 6.225 6.495 6.225 6.495l2.611-8.378s-4.228-14.91-18.916-14.91-20.253 15.905-20.253 15.905l2.257 7.383z" fill="#6d4c41"/></g></g></svg>