<svg id="レイヤー_1" xmlns="http://www.w3.org/2000/svg" viewBox="0 0 128 128"><path id="XMLID_4628_" d="M68.805 30.672s0 31.032 4 45.46c1.972 7.111 4.426 11.59 10.327 7.16l22.888-.228c5.892 4.497 10.114.185 11.384-7.117 3-17.242 3-45.274 3-45.274H68.805z" fill="#6d4c41"/><g id="XMLID_4625_" fill="#651fff"><path id="XMLID_4627_" d="M89.5 66.621s-16-1.446-25.5 14.917V99.16l25.5-32.539z"/><path id="XMLID_4626_" d="M128 128.527l-64 .016V88.404C64 76.12 73.176 68.67 85.055 66.62c7.707-1.33 15.222-.844 22.08.783 11.234 2.667 20.864 9.633 20.864 21v40.124z"/></g><g id="XMLID_4622_" fill="#00bfa5"><path id="XMLID_4624_" d="M0 128.527l64 .016V88.404C64 76.12 54.379 68.67 42.5 66.62c-7.707-1.33-14.777-.844-21.636.783C9.63 70.071 0 77.037 0 88.404v40.123z"/><path id="XMLID_4623_" d="M38.5 66.621S54.833 65.175 64 81.538V99.16L38.5 66.621z"/></g><path id="XMLID_1990_" d="M89.208 66.172s-.648-.003-1.756.104c-.797.1-1.595.207-2.397.345-5.169.892-9.808 2.823-13.414 5.718-.13.106-.26.208-.389.318a22.24 22.24 0 0 0-1.085.993c-.185.179-.373.342-.557.531a20.42 20.42 0 0 0-1.434 1.638c-.284.311-.563.64-.841.972-1.117 1.382-2.263 2.933-3.335 4.748-4.827-8.616-11.639-12.291-17.009-13.843a36.034 36.034 0 0 0-4.491-1.074 53.71 53.71 0 0 0-2.308-.335l-.697 62.251 24.505.005 25.749-.006-.541-62.365z" opacity=".2"/><path id="XMLID_251_" d="M33.458 74.121a7 7 0 0 1-7-7v-6.417h14v6.417a7 7 0 0 1-7 7z" fill="#e59900"/><g id="XMLID_240_"><g id="XMLID_248_" fill="#e59600"><path id="XMLID_250_" d="M54.523 37.223s3.863.669 3.863 4.828c0 3.669-2.818 5.118-5.635 5.118v-9.946h1.772z"/><path id="XMLID_249_" d="M12.394 37.223s-3.863.669-3.863 4.828c0 3.669 2.818 5.118 5.635 5.118v-9.946h-1.772z"/></g><path id="XMLID_247_" d="M33.458 9.981c-16.646 0-21.002 12.904-21.002 31.031 0 18.797 12.082 23.657 21.002 23.657 8.789 0 21.002-4.721 21.002-23.657 0-18.127-4.356-31.031-21.002-31.031z" fill="#fcc21b"/><path id="XMLID_245_" d="M26.543 42.696c0 1.872-1.253 3.389-2.804 3.389-1.55 0-2.81-1.517-2.81-3.389 0-1.877 1.261-3.394 2.81-3.394 1.551 0 2.804 1.517 2.804 3.394" fill="#444"/><path id="XMLID_244_" d="M40.371 42.696c0 1.872 1.254 3.389 2.81 3.389 1.548 0 2.808-1.517 2.808-3.389 0-1.877-1.26-3.394-2.808-3.394-1.556 0-2.81 1.517-2.81 3.394" fill="#444"/><path id="XMLID_243_" d="M39.536 54.147h-6.078-6.078c-.697 0-.996.468-.535 1.17.645.983 3.039 2.872 6.613 2.872s5.968-1.889 6.613-2.872c.461-.702.162-1.17-.535-1.17z" fill="#513f35"/><path id="XMLID_242_" d="M36.395 48.98c-1.034.293-2.107.436-2.936.436s-1.902-.143-2.936-.436c-.442-.125-.616.294-.458.572.328.577 1.649 1.742 3.394 1.742s3.065-1.165 3.394-1.742c.158-.278-.016-.697-.458-.572z" fill="#e59600"/><path id="XMLID_241_" d="M33.96 7.613s-.325-.01-.465-.009c-.141-.001-.465.009-.465.009C15.066 7.96 9.652 18.767 9.652 26.261c0 7.282.007 12.633.007 12.633s.285-.297.813-.708c.563-.438 1.185-.684 1.185-.684l.907 6.084 5.986-12.505a.198.198 0 0 1 .203-.114l3.547.394c3.566.396 7.147.588 10.729.598v.008c.155.001.31-.004.465-.004.155 0 .31.005.465.004v-.008a99.97 99.97 0 0 0 10.729-.598l3.547-.394a.201.201 0 0 1 .203.114l5.986 12.505.907-6.084s.623.247 1.185.684c.528.411.813.708.813.708s.007-5.351.007-12.633c.002-7.494-5.413-18.301-23.376-18.648z" fill="#6d4c41"/></g><path id="XMLID_4620_" fill="#fcc21b" d="M0 97.121h8.195v31.406H0z"/><path id="XMLID_4619_" fill="#fcc21b" d="M120.14 97.121h8v31.406h-8z"/><path id="XMLID_4618_" d="M94.678 74.121a7 7 0 0 1-7-7v-5.984h14v5.984a7 7 0 0 1-7 7z" fill="#e59900"/><ellipse id="XMLID_4601_" cx="94.678" cy="30.521" rx="25.8" ry="23.193" fill="#6d4c41"/><path id="XMLID_4600_" d="M94.678 12.915c-15.862 0-20.013 12.296-20.013 29.57s12.304 22.543 20.013 22.543c7.709 0 20.013-5.27 20.013-22.543 0-17.274-4.151-29.57-20.013-29.57z" fill="#fcc21b"/><path id="XMLID_4599_" d="M87.834 43.193c0 1.852-1.24 3.354-2.775 3.354-1.534 0-2.782-1.502-2.782-3.354 0-1.857 1.248-3.359 2.782-3.359 1.535 0 2.775 1.502 2.775 3.359" fill="#444"/><path id="XMLID_4598_" d="M101.519 43.193c0 1.852 1.241 3.354 2.781 3.354 1.532 0 2.779-1.502 2.779-3.354 0-1.857-1.247-3.359-2.779-3.359-1.54 0-2.781 1.502-2.781 3.359" fill="#444"/><path id="XMLID_4597_" d="M100.73 26.465c-2.11 2.027-12.584 11.467-27.02 13.931V21.042S79.941 8.678 94.895 8.678s21.185 12.675 21.185 12.675v19.043s-9.798-3.761-14.719-13.813a.396.396 0 0 0-.631-.118z" fill="#6d4c41"/><path id="XMLID_4596_" d="M100.693 54.525h-6.015-6.015c-.69 0-.986.464-.53 1.158.639.972 3.008 2.842 6.545 2.842s5.906-1.87 6.545-2.842c.456-.694.16-1.158-.53-1.158z" fill="#4c3734"/><path id="XMLID_4595_" d="M97.584 49.787c-1.023.29-2.085.431-2.906.431s-1.882-.141-2.906-.431c-.438-.124-.61.291-.453.566.325.571 1.632 1.724 3.359 1.724s3.034-1.153 3.359-1.724c.157-.275-.015-.69-.453-.566z" fill="#e48c15"/><g id="XMLID_1874_"><path id="XMLID_4607_" d="M60.904 129.121h-43.81c-.313 0 0-7.201 0-7.201 0-10 12.731-13.348 17.152-13.348h9.524c4.421 0 17.134 3.348 17.134 13.348v.283c0 .361.313 6.918 0 6.918z" fill="#d8beff"/><path id="XMLID_4606_" d="M39.475 116.301h-.963a4.286 4.286 0 0 1-4.286-4.286v-2.381h9.535v2.381a4.285 4.285 0 0 1-4.286 4.286z" fill="#e59600"/><g id="XMLID_482_"><ellipse id="XMLID_481_" cx="38.993" cy="85.516" rx="20.698" ry="19.103" fill="#6d4c41"/><g id="XMLID_469_" fill="#e59600"><path id="XMLID_472_" d="M55.942 90.725s3.154.546 3.154 3.942c0 2.996-2.3 4.178-4.601 4.178v-8.12h1.447z"/><path id="XMLID_471_" d="M22.045 90.725s-3.154.546-3.154 3.942c0 2.996 2.3 4.178 4.601 4.178v-8.12h-1.447z"/></g><g id="XMLID_411_"><g id="XMLID_468_"><path d="M52.581 99.94c1.691.065 3.213.766 4.073 2.293.395.704.669 1.555.812 2.349.124.69.008 2.083.61 2.586.272.228.832.269.989.613.428.944-1.683 1.96-2.226 2.132-3.594 1.143-8.595-.165-9.53-4.349-.71-3.176 2.156-5.745 5.272-5.624z" fill="#6d4c41"/></g><g id="XMLID_467_"><path d="M25.547 99.951c-1.692.036-3.226.71-4.113 2.221-.407.697-.696 1.543-.853 2.335-.136.688-.044 2.083-.655 2.575-.276.224-.837.255-1 .595-.444.937 1.648 1.989 2.188 2.171 3.574 1.205 8.596-.015 9.604-4.182.767-3.163-2.054-5.781-5.171-5.715z" fill="#6d4c41"/></g></g><g id="XMLID_410_"><path d="M50.99 80.535c-2.868-3.574-7.812-5.108-11.996-5.108-4.181 0-9.124 1.533-11.993 5.108-2.805 3.495-4.276 8.008-4.255 14.067.021 4.885 1.277 8.639 4.819 11.594 3.279 2.737 7.074 4.216 11.184 4.216 4.039 0 8.499-1.413 11.66-4.191 3.467-3.05 4.813-6.734 4.833-11.619.024-6.059-1.451-10.572-4.252-14.067z" fill="#fcc21b"/></g><path id="XMLID_409_" d="M41.366 98.27a9.136 9.136 0 0 1-2.373.352c-.67 0-1.537-.115-2.373-.352-.357-.101-.498.237-.37.463.265.466 1.333 1.408 2.742 1.408 1.41 0 2.477-.941 2.742-1.408.13-.226-.011-.564-.368-.463z" fill="#e59600"/><path id="XMLID_402_" d="M43.905 102.128h-4.911-4.911c-.563 0-.805.379-.433.945.521.794 2.456 2.321 5.344 2.321s4.823-1.527 5.344-2.321c.372-.567.13-.945-.433-.945z" fill="#513f35"/><path id="XMLID_401_" d="M57.144 77.824L43.63 68.82H34.28l-13.514 9.004-1.771 6.368 1.862 5.72 1.316 2.535c7.13-1.62 14.288-6.609 16.543-9.406a.305.305 0 0 1 .477 0c2.256 2.798 9.246 7.718 16.544 9.406l1.315-2.535 1.862-5.72-1.77-6.368z" fill="#6d4c41"/><g id="XMLID_301_" fill="#444"><path id="XMLID_400_" d="M32.492 94.745c0 1.448-.969 2.622-2.17 2.622-1.199 0-2.174-1.174-2.174-2.622 0-1.452.975-2.626 2.174-2.626 1.201 0 2.17 1.174 2.17 2.626"/><path id="XMLID_302_" d="M49.838 94.745c0 1.448-.969 2.622-2.17 2.622-1.199 0-2.174-1.174-2.174-2.622 0-1.452.975-2.626 2.174-2.626 1.201 0 2.17 1.174 2.17 2.626"/></g></g></g><g id="XMLID_1_"><path id="XMLID_24_" d="M111.405 129.121h-43.81c-.313 0 0-7.201 0-7.201 0-10 12.731-13.348 17.152-13.348h9.524c4.421 0 17.134 3.348 17.134 13.348v.283c0 .361.313 6.918 0 6.918z" fill="#d8beff"/><path id="XMLID_23_" d="M89.976 116.301h-.963a4.286 4.286 0 0 1-4.286-4.286v-2.381h9.535v2.381a4.285 4.285 0 0 1-4.286 4.286z" fill="#e59600"/><g id="XMLID_5_"><ellipse id="XMLID_22_" cx="89.494" cy="85.516" rx="20.698" ry="19.103" fill="#6d4c41"/><g id="XMLID_19_" fill="#e59600"><path id="XMLID_21_" d="M106.443 90.725s3.154.546 3.154 3.942c0 2.996-2.3 4.178-4.601 4.178v-8.12h1.447z"/><path id="XMLID_20_" d="M72.546 90.725s-3.154.546-3.154 3.942c0 2.996 2.3 4.178 4.601 4.178v-8.12h-1.447z"/></g><g id="XMLID_14_"><g id="XMLID_17_"><path d="M103.082 99.94c1.691.065 3.213.766 4.073 2.293.395.704.669 1.555.812 2.349.124.69.008 2.083.61 2.586.272.228.832.269.989.613.428.944-1.683 1.96-2.226 2.132-3.594 1.143-8.595-.165-9.53-4.349-.71-3.176 2.156-5.745 5.272-5.624z" fill="#6d4c41"/></g><g id="XMLID_15_"><path d="M76.048 99.951c-1.692.036-3.226.71-4.113 2.221-.407.697-.696 1.543-.853 2.335-.136.688-.044 2.083-.655 2.575-.276.224-.837.255-1 .595-.444.937 1.648 1.989 2.188 2.171 3.574 1.205 8.596-.015 9.604-4.182.767-3.163-2.054-5.781-5.171-5.715z" fill="#6d4c41"/></g></g><g id="XMLID_12_"><path d="M101.491 80.535c-2.868-3.574-7.812-5.108-11.996-5.108-4.181 0-9.124 1.533-11.993 5.108-2.805 3.495-4.276 8.008-4.255 14.067.021 4.885 1.277 8.639 4.819 11.594 3.279 2.737 7.074 4.216 11.184 4.216 4.039 0 8.499-1.413 11.66-4.191 3.467-3.05 4.813-6.734 4.833-11.619.024-6.059-1.451-10.572-4.252-14.067z" fill="#fcc21b"/></g><path id="XMLID_11_" d="M91.867 98.27a9.136 9.136 0 0 1-2.373.352c-.67 0-1.537-.115-2.373-.352-.357-.101-.498.237-.37.463.265.466 1.333 1.408 2.742 1.408 1.41 0 2.477-.941 2.742-1.408.13-.226-.01-.564-.368-.463z" fill="#e59600"/><path id="XMLID_10_" d="M94.406 102.128h-4.911-4.911c-.563 0-.805.379-.433.945.521.794 2.456 2.321 5.344 2.321 2.888 0 4.823-1.527 5.344-2.321.372-.567.13-.945-.433-.945z" fill="#513f35"/><path id="XMLID_9_" d="M107.645 77.824L94.131 68.82H84.781l-13.514 9.004-1.771 6.368 1.862 5.72 1.316 2.535c7.13-1.62 14.288-6.609 16.543-9.406a.305.305 0 0 1 .477 0c2.256 2.798 9.246 7.718 16.544 9.406l1.315-2.535 1.862-5.72-1.77-6.368z" fill="#6d4c41"/><g id="XMLID_6_" fill="#444"><path id="XMLID_8_" d="M82.994 94.745c0 1.448-.969 2.622-2.17 2.622-1.199 0-2.174-1.174-2.174-2.622 0-1.452.975-2.626 2.174-2.626 1.2 0 2.17 1.174 2.17 2.626"/><path id="XMLID_7_" d="M100.34 94.745c0 1.448-.969 2.622-2.17 2.622-1.199 0-2.174-1.174-2.174-2.622 0-1.452.975-2.626 2.174-2.626 1.2 0 2.17 1.174 2.17 2.626"/></g></g></g></svg>