<svg id="レイヤー_1" xmlns="http://www.w3.org/2000/svg" viewBox="0 0 128 128"><g><g><path d="M67.619 22.899c.862-5.607 1.188-11.295-.296-16.709-.767-2.805-5.2-3.375-7.601-3.846-5.775-1.133-11.784-1.191-17.613-.43-5.15.672-12.481 1.393-12.314 8.217.166 6.867 1.608 14.039 2.342 20.891.621 5.775 1.3 11.541 1.792 17.33.625 7.434.942 14.912.383 22.359-.325 4.283-1.125 8.543-2.754 12.529-2.171 5.33-5.622 9.973-9.813 13.881-4.217 3.926-9.113 6.4-13.859 9.529-3.071 2.025-3.858 5.197-2.475 8.559 1.95 4.746 8.721 6.293 13.188 6.701 4.996.463 10.051-.643 14.568-2.768 4.221-1.982 7.713-5.283 10.65-8.854 1.513-1.834 2.892-3.779 4.18-5.779.542-.838 2.704-5.639 4.175-4.193.459.451.488 1.346.575 1.918.192 1.27.225 2.633.358 3.912.167 1.588-.225 2.625 1.6 2.971 1.025.195 2.35.359 3.379.1 1.013-.254 2.688-.486 3.229-1.52.275-.525.1-1.271.133-1.855.05-.883-.004-1.762 0-2.65.029-6.537 4.2-12.33 3.879-18.822-.204-4.141-2.746-7.67-3.696-11.629-1.366-5.68-.433-11.477.534-17.143 1.233-7.23 2.008-14.535 3.392-21.74.68-3.548 1.493-7.236 2.064-10.959z" fill="#855c52"/><g><path d="M67.619 22.899c.862-5.607 1.188-11.295-.296-16.709-.767-2.805-5.2-3.375-7.601-3.846-5.775-1.133-11.784-1.191-17.613-.43-5.15.672-12.481 1.393-12.314 8.217.166 6.867 1.608 14.039 2.342 20.891.621 5.775 1.3 11.541 1.792 17.33.625 7.434.942 14.912.383 22.359-.325 4.283-1.125 8.543-2.754 12.529-2.171 5.33-5.622 9.973-9.813 13.881-4.217 3.926-9.113 6.4-13.859 9.529-3.071 2.025-3.858 5.197-2.475 8.559 1.95 4.746 8.721 6.293 13.188 6.701 4.996.463 10.051-.643 14.568-2.768 4.221-1.982 7.713-5.283 10.65-8.854 1.513-1.834 2.892-3.779 4.18-5.779.542-.838 2.704-5.639 4.175-4.193.459.451.488 1.346.575 1.918.192 1.27.225 2.633.358 3.912.167 1.588-.225 2.625 1.6 2.971 1.025.195 2.35.359 3.379.1 1.013-.254 2.688-.486 3.229-1.52.275-.525.1-1.271.133-1.855.05-.883-.004-1.762 0-2.65.029-6.537 4.2-12.33 3.879-18.822-.204-4.141-2.746-7.67-3.696-11.629-1.366-5.68-.433-11.477.534-17.143 1.233-7.23 2.008-14.535 3.392-21.74.68-3.548 1.493-7.236 2.064-10.959z" fill="#855c52"/></g></g><g><path d="M123.223 115.214c-.05-.717-.188-1.354-.429-1.832-.792-1.609-4.309-2.459-5.85-3.422-9.451-5.934-13.068-17.738-14.53-28.164-.421-3.008-.634-6.051-.763-9.088-.158-3.617-.121-7.234-.025-10.855.113-4.441.601-8.867.976-13.287.496-5.826 1.179-11.631 1.804-17.435.738-6.893 2.188-14.109 2.354-21.014.167-6.867-7.204-7.592-12.384-8.268-5.868-.772-11.91-.709-17.723.433-2.413.471-6.871 1.047-7.646 3.867-1.488 5.445-1.163 11.168-.296 16.809.579 3.742 1.392 7.451 2.079 11.021 1.004 5.234 1.688 10.521 2.459 15.793 1.296 8.852 2.08 17.109.683 25.998-.583 3.695-1.325 7.492-1.458 11.283-.146 3.939.642 7.656 1.362 11.502.208 1.117.492 2.209.671 3.324.309 1.971.4 4.076.375 6.098-.033 2.508 2.858 3.512 4.876 3.6.967.041 2.35.074 3.208-.471 1.092-.695.633-2.404 1.321-2.934.425-.326.616.279.783.578.854 1.539 1.059 3.342 1.763 4.959 1.737 3.996 3.467 6.256 7.3 8.41 7.293 4.096 17.068 6.404 24.969 2.641 3.275-1.555 3.976-4.934 4.134-8.32.016-.408.016-.818-.013-1.226z" fill="#855c52"/><g><path d="M123.223 115.214c-.05-.717-.188-1.354-.429-1.832-.792-1.609-4.309-2.459-5.85-3.422-9.451-5.934-13.068-17.738-14.53-28.164-.421-3.008-.634-6.051-.763-9.088-.158-3.617-.121-7.234-.025-10.855.113-4.441.601-8.867.976-13.287.496-5.826 1.179-11.631 1.804-17.435.738-6.893 2.188-14.109 2.354-21.014.167-6.867-7.204-7.592-12.384-8.268-5.868-.772-11.91-.709-17.723.433-2.413.471-6.871 1.047-7.646 3.867-1.488 5.445-1.163 11.168-.296 16.809.579 3.742 1.392 7.451 2.079 11.021 1.004 5.234 1.688 10.521 2.459 15.793 1.296 8.852 2.08 17.109.683 25.998-.583 3.695-1.325 7.492-1.458 11.283-.146 3.939.642 7.656 1.362 11.502.208 1.117.492 2.209.671 3.324.309 1.971.4 4.076.375 6.098-.033 2.508 2.858 3.512 4.876 3.6.967.041 2.35.074 3.208-.471 1.092-.695.633-2.404 1.321-2.934.425-.326.616.279.783.578.854 1.539 1.059 3.342 1.763 4.959 1.737 3.996 3.467 6.256 7.3 8.41 7.293 4.096 17.068 6.404 24.969 2.641 3.275-1.555 3.976-4.934 4.134-8.32.016-.408.016-.818-.013-1.226z" fill="#855c52"/></g></g><g fill="#2f2f2f"><path d="M61.918 9.407c0 1.732-5.962 3.143-13.33 3.143-7.367 0-13.339-1.41-13.339-3.143 0-1.734 5.972-3.141 13.339-3.141 7.368.001 13.33 1.407 13.33 3.141z"/><path d="M101.684 9.407c0 1.875-6.175 3.4-13.801 3.4-7.625 0-13.81-1.525-13.81-3.4 0-1.879 6.184-3.4 13.81-3.4 7.625 0 13.801 1.521 13.801 3.4z"/></g></g></svg>