<svg id="レイヤー_1" xmlns="http://www.w3.org/2000/svg" xmlns:xlink="http://www.w3.org/1999/xlink" viewBox="0 0 128 128"><g id="XMLID_208_"><defs><path id="XMLID_869_" d="M0 0h128v128H0z"/></defs><clipPath id="XMLID_14_"><use xlink:href="#XMLID_869_" overflow="visible"/></clipPath><g clip-path="url(#XMLID_14_)"><path id="XMLID_711_" d="M-36.837 45.526s0 48.724 6.28 71.376c3.096 11.165 6.949 18.197 16.215 11.242l35.936-.358c9.251 7.06 15.879.291 17.874-11.175 4.71-27.072 4.71-71.086 4.71-71.086h-81.015z" fill="#6d4c41"/><ellipse id="XMLID_686_" cx="3.786" cy="45.289" rx="40.508" ry="36.416" fill="#6d4c41"/><path id="XMLID_899_" d="M20.235 101.862c-5.705-1.084-27.766-1.084-33.471 0-18.042 3.427-31.265 11.385-31.265 28.362v57.834l48 .012 48-.012v-57.834c.001-16.977-13.222-24.935-31.264-28.362z" fill="#651fff"/><path id="XMLID_898_" d="M4.019 114.141c-6.081 0-10.898-4.93-10.898-11.011v-9.5h21.796v9.5c0 6.081-4.817 11.011-10.898 11.011z" fill="#e59900"/><g id="XMLID_878_"/><path id="XMLID_685_" d="M3.786 17.646c-24.905 0-31.422 19.307-31.422 46.428S-8.317 99.47 3.786 99.47c12.103 0 31.422-8.274 31.422-35.396 0-27.121-6.517-46.428-31.422-46.428z" fill="#fcc21b"/><path id="XMLID_683_" d="M14.527 65.185c0 2.908 1.949 5.266 4.367 5.266 2.406 0 4.364-2.358 4.364-5.266 0-2.916-1.958-5.274-4.364-5.274-2.418.001-4.367 2.358-4.367 5.274" fill="#444"/><path id="XMLID_682_" d="M13.288 38.922C9.975 42.104-6.47 56.927-29.136 60.795V30.407s9.783-19.413 33.262-19.413 33.262 19.902 33.262 19.902v29.899s-15.383-5.905-23.11-21.687a.62.62 0 0 0-.99-.186z" fill="#6d4c41"/><path id="XMLID_681_" d="M13.23 82.979H3.786h-9.444c-1.083 0-1.548.728-.832 1.818 1.003 1.527 4.723 4.462 10.276 4.462s9.274-2.936 10.276-4.462c.716-1.09.251-1.818-.832-1.818z" fill="#4c3734"/><path id="XMLID_678_" d="M8.348 75.539c-1.607.455-3.274.677-4.562.677s-2.955-.222-4.562-.677c-.687-.195-.957.456-.711.889.51.897 2.563 2.707 5.273 2.707 2.711 0 4.764-1.81 5.273-2.707.246-.432-.024-1.083-.711-.889z" fill="#e48c15"/></g><g clip-path="url(#XMLID_14_)"><path id="XMLID_12_" d="M164.712 45.526s0 48.724-6.28 71.376c-3.096 11.165-6.949 18.197-16.215 11.242l-35.936-.358c-9.251 7.06-15.879.291-17.874-11.175-4.71-27.072-4.71-71.086-4.71-71.086h81.015z" fill="#6d4c41"/><ellipse id="XMLID_11_" cx="124.089" cy="45.289" rx="40.508" ry="36.416" fill="#6d4c41"/><path id="XMLID_10_" d="M107.64 101.862c5.705-1.084 27.766-1.084 33.471 0 18.042 3.427 31.265 11.385 31.265 28.362v57.834l-48 .012-48-.012v-57.834c-.001-16.977 13.222-24.935 31.264-28.362z" fill="#651fff"/><path id="XMLID_9_" d="M123.856 114.141c6.081 0 10.898-4.93 10.898-11.011v-9.5h-21.796v9.5c0 6.081 4.817 11.011 10.898 11.011z" fill="#e59900"/><g id="XMLID_7_"/><path id="XMLID_6_" d="M124.089 17.646c24.905 0 31.422 19.307 31.422 46.428S136.192 99.47 124.089 99.47c-12.103 0-31.422-8.274-31.422-35.396 0-27.121 6.517-46.428 31.422-46.428z" fill="#fcc21b"/><path id="XMLID_4_" d="M113.348 65.185c0 2.908-1.949 5.266-4.367 5.266-2.406 0-4.364-2.358-4.364-5.266 0-2.916 1.958-5.274 4.364-5.274 2.418.001 4.367 2.358 4.367 5.274" fill="#444"/><path id="XMLID_3_" d="M114.587 38.922c3.313 3.182 19.758 18.005 42.424 21.873V30.407s-9.783-19.413-33.262-19.413-33.262 19.902-33.262 19.902v29.899s15.383-5.905 23.11-21.687a.62.62 0 0 1 .99-.186z" fill="#6d4c41"/><path id="XMLID_2_" d="M114.645 82.979h18.888c1.083 0 1.548.728.832 1.818-1.003 1.527-4.723 4.462-10.276 4.462s-9.274-2.936-10.276-4.462c-.716-1.09-.251-1.818.832-1.818z" fill="#4c3734"/><path id="XMLID_1_" d="M119.527 75.539c1.607.455 3.274.677 4.562.677s2.955-.222 4.562-.677c.687-.195.957.456.711.889-.51.897-2.563 2.707-5.273 2.707-2.711 0-4.764-1.81-5.273-2.707-.246-.432.023-1.083.711-.889z" fill="#e48c15"/></g><g id="XMLID_209_" clip-path="url(#XMLID_14_)"><path id="XMLID_842_" d="M33.365 40.872c6.072 9.038 16.892 18.416 24.692 25.694.833.778 1.658 1.611 2.498 2.397.903.833 1.993 2.74 3.441 2.826 1.455-.086 2.538-1.993 3.441-2.826.849-.786 1.674-1.619 2.507-2.397 7.8-7.278 18.619-16.657 24.684-25.694 1.822-2.701 3.153-5.604 3.698-8.812.537-3.223.514-7.847-.802-10.913-3.107-7.248-8.4-11.397-15.671-11.358-.273.008-.537.008-.81.016-2.849.047-5.612.685-8.228 1.775-2.802 1.175-4.725 2.943-7.208 4.523-.942.599-2.281.591-3.215 0-2.491-1.58-4.406-3.348-7.208-4.523-2.615-1.09-5.379-1.728-8.228-1.775-.265-.008-.545-.008-.81-.016-7.278-.039-12.571 4.11-15.67 11.357-1.315 3.067-1.339 7.691-.802 10.913.538 3.208 1.885 6.112 3.691 8.813z" fill="#f06292"/></g></g></svg>