<svg xmlns="http://www.w3.org/2000/svg" viewBox="0 0 128 128"><g id="图层_1"><path id="XMLID_2792_" d="M17.295 69.427s-.013-10.518-.013-24.833c0-14.974 10.977-35.689 47.69-35.689 25.623 0 35.207 10.138 35.207 16.896 0 0 9.519 1.71 10.452 13.9.655 8.561-.188 29.148-.188 29.148s-1.034-.921-2.203-1.452c-.622-.283-1.249-.416-1.249-.416l-1.724 11.75-12.746-24.675a.392.392 0 0 0-.397-.212l-5.165.611a196.603 196.603 0 0 1-44.813.162l-6.973-.774a.393.393 0 0 0-.4.225L23.006 78.65l-1.783-11.96s-1.224.485-2.33 1.345c-1.037.808-1.598 1.392-1.598 1.392z" fill="#6d4c41"/><g id="XMLID_2789_" fill="#e59600"><path id="XMLID_2791_" d="M105.487 66.141s7.593 1.315 7.593 9.491c0 7.213-5.539 10.061-11.077 10.061V66.141h3.484z"/><path id="XMLID_2790_" d="M22.673 66.141s-7.593 1.315-7.593 9.491c0 7.213 5.539 10.061 11.077 10.061V66.141h-3.484z"/></g><path id="XMLID_2788_" d="M64.08 12.591c-32.722 0-41.285 25.366-41.285 61 0 36.95 23.75 46.505 41.285 46.505 17.277 0 41.285-9.28 41.285-46.505 0-35.633-8.563-61-41.285-61z" fill="#fcc21b"/><path id="XMLID_2787_" d="M75.906 98.201H64.081 52.256c-1.356 0-1.938.911-1.042 2.276 1.255 1.912 5.914 5.587 12.867 5.587s11.612-3.676 12.867-5.587c.895-1.365.314-2.276-1.042-2.276z" fill="#4c3734"/><path id="XMLID_2786_" d="M75.906 98.201H64.081 52.256c-1.356 0-1.938.911-1.042 2.276 1.255 1.912 5.914 5.587 12.867 5.587s11.612-3.676 12.867-5.587c.895-1.365.314-2.276-1.042-2.276z" fill="#513f35"/><path id="XMLID_2785_" d="M69.793 88.149c-2.012.57-4.1.848-5.713.848-1.613 0-3.7-.278-5.713-.848-.861-.244-1.198.572-.89 1.114.638 1.123 3.209 3.389 6.603 3.389 3.394 0 5.964-2.266 6.603-3.389.308-.543-.03-1.358-.89-1.114z" fill="#e59600"/><path id="XMLID_2784_" d="M50.625 75.922c0 3.642-2.437 6.594-5.456 6.594-3.016 0-5.468-2.952-5.468-6.594 0-3.651 2.453-6.603 5.468-6.603 3.019-.001 5.456 2.952 5.456 6.603" fill="#444"/><path id="XMLID_2783_" d="M77.529 75.922c0 3.642 2.441 6.594 5.468 6.594 3.012 0 5.464-2.952 5.464-6.594 0-3.651-2.452-6.603-5.464-6.603-3.028-.001-5.468 2.952-5.468 6.603" fill="#444"/><path id="XMLID_2782_" d="M22.796 75.917l-2.177-13.43s-4.728-51.77 44.585-51.77 41.636 54.022 41.636 54.022l-1.508 11.178-12.811-21.696s-24.345 1.958-55.963-.417L22.796 75.917z" fill="#6d4c41"/><path id="XMLID_2781_" d="M64 50.397c-23.43.164-44.65 4.398-44.65 4.398S30.261 67.265 64 67.522c33.739-.257 44.65-12.727 44.65-12.727S87.429 50.561 64 50.397z" fill="#262626"/><path id="XMLID_2780_" d="M112.92 28.618c-2.886-3.686-5.146-5.921-8.877-8.616C92.435 11.654 76.324 7.904 64.437 7.904c-.143 0-.294.007-.437.009-.144-.001-.295-.009-.438-.009-11.887 0-27.997 3.75-39.605 12.098-3.731 2.695-5.99 4.931-8.877 8.616-4.242 5.417-5.109 13.744-2.467 20.744 2.115 5.603 4.63 9.432 4.63 9.432 2.348-4.756 5.661-7.69 10.213-8.952 4.66-1.292 21.614-2.711 36.543-3.342 14.929.631 31.884 2.05 36.543 3.342 4.552 1.262 7.865 4.197 10.213 8.952 0 0 2.515-3.829 4.63-9.432 2.644-7 1.777-15.327-2.465-20.744z" fill="#2a56c6"/><path id="XMLID_2779_" d="M106.042 41.584S87.769 30.645 64 30.518c-23.769.127-42.042 11.066-42.042 11.066l-2 13.211S40.207 50.371 64 50.319c23.793.051 44.042 4.476 44.042 4.476l-2-13.211z" fill="#3b78e7"/><path id="XMLID_2778_" d="M73.51 21.313a.966.966 0 0 0-.82.454c-.709 1.142-1.752 1.915-3.596 1.915-1.789 0-3.099-1.744-3.883-2.831a1.304 1.304 0 0 0-1.055-.554c-.426 0-.816.217-1.062.564-.768 1.081-2.014 2.821-3.798 2.821-1.843 0-2.887-.774-3.596-1.915a.97.97 0 0 0-1.604-.057l-.404.55a2.166 2.166 0 0 0-.192 2.253 7.855 7.855 0 0 1 .829 3.512v4.755c0 3.46 5.34 10.538 9.867 10.538s9.867-7.077 9.867-10.538v-4.755c0-1.219.284-2.422.829-3.512a2.169 2.169 0 0 0-.192-2.253l-.404-.55a.977.977 0 0 0-.786-.397z" fill="#f7cb4d"/></g></svg>