<svg id="レイヤー_1" xmlns="http://www.w3.org/2000/svg" xmlns:xlink="http://www.w3.org/1999/xlink" viewBox="0 0 128 128"><g><path id="XMLID_2195_" d="M71.176 90.373s-4.878-9.934-4.878-20.211c0-11.476 3.569-21.408 13.165-30.145 13.168-11.989 43.24-11.856 55.646 2.912 4.891 27.966 1.663 41.639 1.663 41.639l.219 9.006-65.815-3.201z" fill="#6d4c41"/><path id="XMLID_2740_" d="M101.703 124.084c-18.335-.081-29.238-12.259-30.15-31.787V69.951c0-17.687 14.338-32.025 32.025-32.025h1.17c17.687 0 32.025 14.338 32.025 32.025v21.177c0 18.333-17.977 33.032-35.07 32.956z" fill="#fcc21b"/><g id="XMLID_2683_"><defs><path id="XMLID_2684_" d="M102.438 124.078c-19.381.391-30.231-13.221-30.886-31.781V69.951c0-17.687 14.338-32.025 32.025-32.025h1.17c17.687 0 32.025 14.338 32.025 32.025v21.177c.001 17.345-16.709 32.595-34.334 32.95z"/></defs><clipPath id="XMLID_31_"><use xlink:href="#XMLID_2684_" overflow="visible"/></clipPath><g id="XMLID_2713_" opacity=".6" clip-path="url(#XMLID_31_)"><path id="XMLID_4_" d="M68.36 116.407c6.026 2.307 12.674-.941 14.864-7.264 2.186-6.315-.909-13.318-6.931-15.625-6.009-2.294-12.674.963-14.872 7.277-2.182 6.329.926 13.318 6.939 15.612z" fill="#fcc21b"/><path d="M68.524 115.935c5.777 2.212 12.15-.902 14.25-6.964 2.096-6.055-.872-12.768-6.645-14.98-5.761-2.2-12.15.923-14.258 6.977-2.091 6.067.888 12.768 6.653 14.967z" fill="#fcbf1b"/><path d="M68.688 115.463c5.528 2.117 11.627-.863 13.636-6.665 2.006-5.794-.834-12.218-6.358-14.334-5.513-2.105-11.627.883-13.644 6.676-2.002 5.806.849 12.218 6.366 14.323z" fill="#fbbc1b"/><path d="M68.851 114.99c5.279 2.021 11.104-.824 13.023-6.365 1.915-5.533-.797-11.668-6.072-13.689-5.265-2.01-11.103.843-13.029 6.376-1.912 5.545.81 11.668 6.078 13.678z" fill="#fbb91c"/><path d="M69.015 114.518c5.03 1.926 10.58-.786 12.409-6.065 1.825-5.272-.759-11.118-5.786-13.044-5.017-1.915-10.58.803-12.415 6.075-1.822 5.283.772 11.119 5.792 13.034z" fill="#fab61c"/><path d="M69.179 114.045c4.782 1.831 10.057-.747 11.795-5.765 1.735-5.012-.721-10.568-5.5-12.398-4.768-1.821-10.057.763-11.801 5.775-1.731 5.021.734 10.568 5.506 12.388z" fill="#fab31c"/><path d="M69.343 113.573c4.533 1.735 9.534-.708 11.181-5.465 1.644-4.751-.684-10.018-5.214-11.753-4.52-1.726-9.533.724-11.187 5.474-1.641 4.76.697 10.018 5.22 11.744z" fill="#faaf1c"/><path d="M69.506 113.1c4.284 1.64 9.01-.669 10.567-5.165 1.554-4.49-.646-9.468-4.927-11.108-4.272-1.631-9.01.684-10.573 5.174-1.55 4.499.659 9.469 4.933 11.099z" fill="#f9ac1d"/><path d="M69.67 112.628c4.035 1.544 8.487-.631 9.954-4.865 1.464-4.229-.609-8.918-4.641-10.462-4.024-1.536-8.486.644-9.959 4.873-1.461 4.237.62 8.918 4.646 10.454z" fill="#f9a91d"/><path d="M69.834 112.156c3.786 1.449 7.964-.592 9.34-4.565 1.373-3.969-.571-8.367-4.355-9.817-3.775-1.442-7.963.604-9.344 4.572-1.371 3.976.581 8.368 4.359 9.81z" fill="#f9a61d"/><path d="M69.998 111.683c3.537 1.354 7.441-.553 8.726-4.265 1.283-3.708-.534-7.817-4.069-9.172-3.527-1.347-7.439.564-8.73 4.272-1.281 3.715.543 7.818 4.073 9.165z" fill="#f8a31d"/><path d="M70.161 111.211c3.289 1.258 6.917-.514 8.112-3.965 1.193-3.447-.496-7.267-3.783-8.526-3.279-1.252-6.916.525-8.116 3.971-1.189 3.453.506 7.268 3.787 8.52z" fill="#f8a01e"/><path d="M70.325 110.738c3.04 1.163 6.394-.476 7.498-3.665 1.103-3.186-.459-6.717-3.497-7.881-3.031-1.158-6.392.485-7.502 3.671-1.099 3.192.468 6.718 3.501 7.875z" fill="#f79d1e"/><path d="M70.489 110.266c2.791 1.068 5.871-.437 6.885-3.365 1.012-2.925-.421-6.167-3.21-7.236-2.783-1.063-5.869.445-6.888 3.37-1.01 2.931.429 6.168 3.213 7.231z" fill="#f79a1e"/><path d="M70.653 109.794c2.542.972 5.347-.398 6.271-3.065.922-2.665-.384-5.617-2.924-6.59-2.534-.968-5.346.405-6.273 3.07-.921 2.667.39 5.617 2.926 6.585z" fill="#f7971e"/><path d="M70.816 109.321c2.293.877 4.824-.359 5.657-2.765.832-2.404-.346-5.067-2.638-5.945-2.286-.873-4.822.365-5.659 2.769-.829 2.407.353 5.068 2.64 5.941z" fill="#f6941f"/><path d="M70.98 108.849c2.044.782 4.301-.321 5.043-2.466.741-2.143-.308-4.517-2.352-5.3-2.038-.779-4.299.326-5.045 2.469-.739 2.146.315 4.518 2.354 5.297z" fill="#f6901f"/><path d="M71.144 108.376c1.795.686 3.778-.282 4.429-2.166.651-1.882-.271-3.967-2.066-4.654-1.79-.684-3.775.286-4.431 2.168-.648 1.885.277 3.969 2.068 4.652z" fill="#f68d1f"/><path d="M71.308 107.904c1.547.591 3.254-.243 3.816-1.866.561-1.622-.233-3.417-1.779-4.009-1.542-.589-3.252.246-3.817 1.867-.56 1.624.237 3.419 1.78 4.008z" fill="#f58a1f"/><path d="M71.471 107.431c1.298.496 2.731-.204 3.202-1.566.47-1.361-.196-2.867-1.493-3.364-1.293-.494-2.728.206-3.203 1.567-.468 1.363.2 2.869 1.494 3.363z" fill="#f58720"/><path d="M71.635 106.959c1.049.4 2.208-.166 2.588-1.266.38-1.1-.158-2.317-1.207-2.718-1.045-.4-2.207.166-2.588 1.266-.381 1.1.162 2.318 1.207 2.718z" fill="#f48420"/><path id="XMLID_3_" d="M71.799 106.487c.8.305 1.684-.127 1.974-.966.29-.839-.121-1.767-.921-2.073-.797-.305-1.682.127-1.974.966-.288.839.124 1.768.921 2.073z" fill="#f48120"/></g><g id="XMLID_2685_" opacity=".6" clip-path="url(#XMLID_31_)"><path id="XMLID_2_" d="M113.101 117.388c6.808 2.452 14.318-1 16.793-7.721 2.47-6.712-1.027-14.155-7.83-16.606-6.789-2.438-14.319 1.023-16.802 7.734-2.466 6.727 1.045 14.156 7.839 16.593z" fill="#fcc21b"/><path d="M113.301 116.886c6.527 2.351 13.727-.958 16.1-7.402 2.368-6.435-.985-13.57-7.507-15.92-6.509-2.338-13.727.981-16.108 7.415-2.364 6.448 1.002 13.57 7.515 15.907z" fill="#fcbf1b"/><path d="M113.501 116.384c6.246 2.25 13.136-.917 15.406-7.083 2.266-6.158-.942-12.985-7.184-15.234-6.228-2.237-13.136.938-15.414 7.096-2.262 6.169.96 12.985 7.192 15.221z" fill="#fbbc1b"/><path d="M113.701 115.882c5.964 2.148 12.545-.876 14.713-6.764 2.164-5.881-.9-12.401-6.86-14.549-5.948-2.136-12.544.896-14.72 6.776-2.161 5.893.915 12.401 6.867 14.537z" fill="#fbb91c"/><path d="M113.902 115.38c5.683 2.047 11.954-.835 14.019-6.446 2.062-5.604-.857-11.816-6.537-13.863-5.668-2.036-11.953.854-14.027 6.457-2.058 5.615.873 11.817 6.545 13.852z" fill="#fab61c"/><path d="M114.102 114.878c5.402 1.946 11.362-.794 13.326-6.127 1.96-5.326-.815-11.231-6.214-13.177-5.387-1.935-11.362.811-13.333 6.137-1.956 5.337.83 11.232 6.221 13.167z" fill="#fab31c"/><path d="M114.302 114.376c5.121 1.844 10.771-.753 12.632-5.808 1.858-5.049-.773-10.647-5.89-12.491-5.107-1.834-10.77.769-12.639 5.818-1.854 5.059.787 10.647 5.897 12.481z" fill="#faaf1c"/><path d="M114.503 113.874c4.84 1.743 10.18-.711 11.939-5.489 1.756-4.772-.73-10.062-5.567-11.805-4.826-1.734-10.179.727-11.945 5.498-1.753 4.781.743 10.063 5.573 11.796z" fill="#f9ac1d"/><path d="M114.703 113.372c4.559 1.642 9.589-.67 11.245-5.17 1.654-4.495-.688-9.478-5.244-11.119-4.546-1.633-9.588.684-11.251 5.179-1.65 4.502.701 9.477 5.25 11.11z" fill="#f9a91d"/><path d="M114.903 112.87c4.278 1.54 8.998-.629 10.552-4.852 1.552-4.218-.645-8.893-4.92-10.434-4.265-1.532-8.996.642-10.557 4.86-1.549 4.225.657 8.894 4.925 10.426z" fill="#f9a61d"/><path d="M115.103 112.368c3.996 1.439 8.406-.588 9.859-4.533 1.45-3.941-.603-8.308-4.597-9.748-3.985-1.432-8.405.6-9.863 4.54-1.447 3.948.614 8.309 4.601 9.741z" fill="#f8a31d"/><path d="M115.304 111.865c3.715 1.338 7.815-.547 9.165-4.214 1.348-3.663-.561-7.724-4.274-9.062-3.705-1.331-7.813.558-9.169 4.221-1.345 3.67.571 7.725 4.278 9.055z" fill="#f8a01e"/><path d="M115.504 111.363c3.434 1.236 7.224-.505 8.472-3.895 1.246-3.386-.518-7.139-3.95-8.376-3.424-1.23-7.222.515-8.475 3.901-1.244 3.392.527 7.14 3.953 8.37z" fill="#f79d1e"/><path d="M115.704 110.861c3.153 1.135 6.633-.464 7.778-3.577 1.144-3.109-.476-6.555-3.627-7.69-3.144-1.13-6.631.473-7.782 3.582-1.14 3.115.486 6.556 3.631 7.685z" fill="#f79a1e"/><path d="M115.905 110.359c2.872 1.033 6.042-.423 7.085-3.258 1.042-2.832-.433-5.97-3.304-7.004-2.863-1.029-6.039.431-7.088 3.263-1.039 2.836.442 5.971 3.307 6.999z" fill="#f7971e"/><path d="M116.105 109.857c2.591.932 5.45-.382 6.391-2.939.94-2.555-.391-5.385-2.98-6.318-2.583-.928-5.448.388-6.394 2.943-.937 2.558.399 5.386 2.983 6.314z" fill="#f6941f"/><path d="M116.305 109.355c2.31.831 4.859-.341 5.698-2.62.838-2.278-.348-4.801-2.657-5.633-2.302-.827-4.857.346-5.7 2.624-.835 2.281.356 4.802 2.659 5.629z" fill="#f6901f"/><path d="M116.505 108.853c2.028.729 4.268-.299 5.004-2.302.736-2.001-.306-4.216-2.334-4.947-2.022-.727-4.265.304-5.006 2.304-.732 2.004.313 4.218 2.336 4.945z" fill="#f68d1f"/><path d="M116.706 108.351c1.747.628 3.677-.258 4.311-1.983.634-1.723-.264-3.631-2.01-4.261-1.742-.626-3.674.262-4.312 1.985-.632 1.725.268 3.633 2.011 4.259z" fill="#f58a1f"/><path d="M116.906 107.849c1.466.527 3.085-.217 3.617-1.664a2.782 2.782 0 0 0-1.687-3.575c-1.461-.525-3.085.218-3.618 1.665-.532 1.446.226 3.048 1.688 3.574z" fill="#f58720"/><path d="M117.106 107.347c1.185.425 2.494-.176 2.924-1.345a2.248 2.248 0 0 0-1.364-2.889c-1.181-.425-2.494.176-2.924 1.346a2.25 2.25 0 0 0 1.364 2.888z" fill="#f48420"/><path id="XMLID_1_" d="M117.307 106.845a1.745 1.745 0 0 0 2.23-1.027 1.714 1.714 0 0 0-1.04-2.203c-.9-.324-1.9.135-2.23 1.027a1.717 1.717 0 0 0 1.04 2.203z" fill="#f48120"/></g></g><path id="XMLID_2433_" d="M71.176 90.373l.301-6.36 3.144-10.543a.997.997 0 0 1 1.222-.679c4.212 1.18 22.325 5.689 48.549 4.244.49-.027.93.303 1.036.783.538 2.428 2.471 9.483 7.155 11.913l4.93 5.01.965-8.14s7.743-52.343-35.534-49.72-31.768 53.492-31.768 53.492z" fill="#6d4c41"/><path id="XMLID_2775_" d="M80.831 84.717c-.373.033-.688.946-.444 2.587.295 1.988 1.592 3.537 2.806 4.211 1.517.841 4.577 1.516 7.112-.083 2.91-1.836 2.157-3.504 1.121-3.179-1.055.331-2.954.648-4.496.475-1.603-.18-3.308-1.039-4.38-2.12-.787-.792-1.315-1.926-1.719-1.891z" fill="#444"/><path id="XMLID_299_" d="M103.855 85.088c-.37.057-.624.989-.274 2.611.425 1.965 1.82 3.426 3.076 4.018 1.569.74 4.667 1.213 7.091-.548 2.784-2.022 1.924-3.638.911-3.246-1.031.399-2.905.84-4.455.768-1.611-.074-3.369-.82-4.51-1.829-.837-.739-1.439-1.836-1.839-1.774z" fill="#444"/><path id="XMLID_1388_" d="M94.222 94.74c1.425.561 2.403.65 3.545.65s2.118-.089 3.544-.65c.61-.24 1.267.35 1.134.911-.435 1.825-2.273 3.335-4.677 3.335-2.405 0-4.3-1.574-4.677-3.335-.122-.563.521-1.151 1.131-.911z" fill="#e48c15"/><g id="XMLID_2741_"><path id="XMLID_2742_" d="M97.084 103.44c-.258.304-.851.38-1.448.449-.99.114-2.405.141-3.052 1.021-.517.72-.429 1.78-.01 2.417.635.968 1.756.862 2.807 1.255.268.097.425.402.391.669a.472.472 0 0 1-.131.287c-.346.33-.881.333-1.334.369-.457.036-1.1.124-1.483.483-.694.649-.657 1.605-.13 2.271.708.896 2.37 1.144 3.151 1.75.409.324.938.792.766 1.548-.198.872-1.567 1.177-2.594.085-.951-1.011-2.66-1.52-3.345-2.733-.719-1.264-.469-2.554.34-3.77.383-.592-.284-1.436-.509-2.226-.208-.728-.232-1.415-.024-2.148.589-2.304 2.969-2.333 4.836-3.093.429-.172 1.049-.219 1.518.013.4.197.659.871.251 1.353z" fill="#444"/></g></g><g><path id="XMLID_29_" d="M56.813 90.373s4.878-9.934 4.878-20.211c0-11.476-3.569-21.408-13.165-30.145C35.358 28.027 5.287 28.161-7.12 42.929c-4.891 27.966-1.663 41.639-1.663 41.639l-.219 9.006 65.815-3.201z" fill="#6d4c41"/><path id="XMLID_28_" d="M26.287 124.084c18.335-.081 29.238-12.259 30.15-31.787V69.951c0-17.687-14.338-32.025-32.025-32.025h-1.17c-17.687 0-32.025 14.338-32.025 32.025v21.177c0 18.333 17.976 33.032 35.07 32.956z" fill="#fcc21b"/><g id="XMLID_12_"><defs><path id="XMLID_13_" d="M25.551 124.078c19.381.391 30.231-13.221 30.886-31.781V69.951c0-17.687-14.338-32.025-32.025-32.025h-1.17c-17.687 0-32.025 14.338-32.025 32.025v21.177c0 17.345 16.71 32.595 34.334 32.95z"/></defs><clipPath id="XMLID_32_"><use xlink:href="#XMLID_13_" overflow="visible"/></clipPath><g id="XMLID_21_" opacity=".6" clip-path="url(#XMLID_32_)"><path id="XMLID_27_" d="M59.629 116.407c-6.026 2.307-12.674-.941-14.864-7.264-2.186-6.315.909-13.318 6.931-15.625 6.009-2.294 12.674.963 14.872 7.277 2.182 6.329-.925 13.318-6.939 15.612z" fill="#fcc21b"/><path d="M59.466 115.935c-5.777 2.212-12.15-.902-14.25-6.964-2.096-6.055.872-12.768 6.645-14.98 5.761-2.2 12.15.923 14.258 6.977 2.091 6.067-.889 12.768-6.653 14.967z" fill="#fcbf1b"/><path d="M59.302 115.463c-5.528 2.117-11.627-.863-13.636-6.665-2.006-5.794.834-12.218 6.358-14.334 5.513-2.105 11.627.883 13.644 6.676 2.001 5.806-.85 12.218-6.366 14.323z" fill="#fbbc1b"/><path d="M59.138 114.99c-5.279 2.021-11.104-.824-13.023-6.365-1.915-5.533.797-11.668 6.072-13.689 5.265-2.01 11.103.843 13.029 6.376 1.913 5.545-.81 11.668-6.078 13.678z" fill="#fbb91c"/><path d="M58.974 114.518c-5.03 1.926-10.58-.786-12.409-6.065-1.825-5.272.759-11.118 5.786-13.044 5.017-1.915 10.58.803 12.415 6.075 1.822 5.283-.772 11.119-5.792 13.034z" fill="#fab61c"/><path d="M58.811 114.045c-4.782 1.831-10.057-.747-11.795-5.765-1.735-5.012.721-10.568 5.5-12.398 4.768-1.821 10.057.763 11.801 5.775 1.731 5.021-.735 10.568-5.506 12.388z" fill="#fab31c"/><path d="M58.647 113.573c-4.533 1.735-9.534-.708-11.181-5.465-1.644-4.751.684-10.018 5.214-11.753 4.52-1.726 9.533.724 11.187 5.474 1.64 4.76-.697 10.018-5.22 11.744z" fill="#faaf1c"/><path d="M58.483 113.1c-4.284 1.64-9.01-.669-10.567-5.165-1.554-4.49.646-9.468 4.927-11.108 4.272-1.631 9.01.684 10.573 5.174 1.551 4.499-.658 9.469-4.933 11.099z" fill="#f9ac1d"/><path d="M58.319 112.628c-4.035 1.544-8.487-.631-9.954-4.865-1.464-4.229.609-8.918 4.641-10.462 4.024-1.536 8.486.644 9.959 4.873 1.461 4.237-.619 8.918-4.646 10.454z" fill="#f9a91d"/><path d="M58.156 112.156c-3.786 1.449-7.964-.592-9.34-4.565-1.373-3.969.571-8.367 4.355-9.817 3.775-1.442 7.963.604 9.344 4.572 1.371 3.976-.582 8.368-4.359 9.81z" fill="#f9a61d"/><path d="M57.992 111.683c-3.537 1.354-7.441-.553-8.726-4.265-1.283-3.708.534-7.817 4.069-9.172 3.527-1.347 7.439.564 8.73 4.272 1.28 3.715-.544 7.818-4.073 9.165z" fill="#f8a31d"/><path d="M57.828 111.211c-3.289 1.258-6.917-.514-8.112-3.965-1.193-3.447.496-7.267 3.783-8.526 3.279-1.252 6.916.525 8.116 3.971 1.19 3.453-.506 7.268-3.787 8.52z" fill="#f8a01e"/><path d="M57.664 110.738c-3.04 1.163-6.394-.476-7.498-3.665-1.103-3.186.459-6.717 3.497-7.881 3.031-1.158 6.392.485 7.502 3.671 1.099 3.192-.468 6.718-3.501 7.875z" fill="#f79d1e"/><path d="M57.501 110.266c-2.791 1.068-5.871-.437-6.885-3.365-1.012-2.925.421-6.167 3.21-7.236 2.783-1.063 5.869.445 6.888 3.37 1.01 2.931-.429 6.168-3.213 7.231z" fill="#f79a1e"/><path d="M57.337 109.794c-2.542.972-5.347-.398-6.271-3.065-.922-2.665.384-5.617 2.924-6.59 2.534-.968 5.346.405 6.273 3.07.92 2.667-.39 5.617-2.926 6.585z" fill="#f7971e"/><path d="M57.173 109.321c-2.293.877-4.824-.359-5.657-2.765-.832-2.404.346-5.067 2.638-5.945 2.286-.873 4.822.365 5.659 2.769.83 2.407-.352 5.068-2.64 5.941z" fill="#f6941f"/><path d="M57.009 108.849c-2.044.782-4.301-.321-5.043-2.466-.741-2.143.308-4.517 2.352-5.3 2.038-.779 4.299.326 5.045 2.469.739 2.146-.315 4.518-2.354 5.297z" fill="#f6901f"/><path d="M56.846 108.376c-1.795.686-3.778-.282-4.429-2.166-.651-1.882.271-3.967 2.066-4.654 1.79-.684 3.775.286 4.431 2.168.648 1.885-.278 3.969-2.068 4.652z" fill="#f68d1f"/><path d="M56.682 107.904c-1.547.591-3.254-.243-3.816-1.866-.561-1.622.233-3.417 1.779-4.009 1.542-.589 3.252.246 3.817 1.867.559 1.624-.238 3.419-1.78 4.008z" fill="#f58a1f"/><path d="M56.518 107.431c-1.298.496-2.731-.204-3.202-1.566-.47-1.361.196-2.867 1.493-3.364 1.293-.494 2.728.206 3.203 1.567.469 1.363-.2 2.869-1.494 3.363z" fill="#f58720"/><path d="M56.354 106.959c-1.049.4-2.208-.166-2.588-1.266-.38-1.1.158-2.317 1.207-2.718 1.045-.4 2.207.166 2.588 1.266.382 1.1-.161 2.318-1.207 2.718z" fill="#f48420"/><path id="XMLID_26_" d="M56.191 106.487c-.8.305-1.684-.127-1.974-.966-.29-.839.121-1.767.921-2.073.797-.305 1.682.127 1.974.966.288.839-.124 1.768-.921 2.073z" fill="#f48120"/></g><g id="XMLID_14_" opacity=".6" clip-path="url(#XMLID_32_)"><path id="XMLID_20_" d="M14.889 117.388c-6.808 2.452-14.318-1-16.793-7.721-2.47-6.712 1.027-14.155 7.83-16.606 6.789-2.438 14.319 1.023 16.802 7.734 2.466 6.727-1.045 14.156-7.839 16.593z" fill="#fcc21b"/><path d="M14.689 116.886c-6.527 2.351-13.727-.958-16.1-7.402-2.368-6.435.985-13.57 7.507-15.92 6.509-2.338 13.727.981 16.108 7.415 2.364 6.448-1.002 13.57-7.515 15.907z" fill="#fcbf1b"/><path d="M14.488 116.384c-6.246 2.25-13.136-.917-15.406-7.083-2.266-6.158.942-12.985 7.184-15.234 6.228-2.237 13.136.938 15.414 7.096 2.262 6.169-.959 12.985-7.192 15.221z" fill="#fbbc1b"/><path d="M14.288 115.882c-5.964 2.148-12.545-.876-14.713-6.764-2.164-5.881.9-12.401 6.86-14.549 5.948-2.136 12.544.896 14.72 6.776 2.161 5.893-.915 12.401-6.867 14.537z" fill="#fbb91c"/><path d="M14.088 115.38c-5.683 2.047-11.954-.835-14.019-6.446-2.062-5.604.857-11.816 6.537-13.863 5.668-2.036 11.953.854 14.027 6.457 2.057 5.615-.874 11.817-6.545 13.852z" fill="#fab61c"/><path d="M13.887 114.878c-5.402 1.946-11.362-.794-13.326-6.127-1.96-5.326.815-11.231 6.214-13.177 5.387-1.935 11.362.811 13.333 6.137 1.956 5.337-.83 11.232-6.221 13.167z" fill="#fab31c"/><path d="M13.687 114.376c-5.121 1.844-10.771-.753-12.632-5.808-1.858-5.049.773-10.647 5.89-12.491 5.107-1.834 10.77.769 12.639 5.818 1.854 5.059-.787 10.647-5.897 12.481z" fill="#faaf1c"/><path d="M13.487 113.874c-4.84 1.743-10.18-.711-11.939-5.489-1.756-4.772.73-10.062 5.567-11.805 4.826-1.734 10.179.727 11.945 5.498 1.752 4.781-.744 10.063-5.573 11.796z" fill="#f9ac1d"/><path d="M13.287 113.372c-4.559 1.642-9.589-.67-11.245-5.17-1.654-4.495.688-9.478 5.244-11.119 4.546-1.633 9.588.684 11.251 5.179 1.649 4.502-.702 9.477-5.25 11.11z" fill="#f9a91d"/><path d="M13.086 112.87c-4.278 1.54-8.998-.629-10.552-4.852-1.552-4.218.645-8.893 4.92-10.434 4.265-1.532 8.996.642 10.557 4.86 1.549 4.225-.657 8.894-4.925 10.426z" fill="#f9a61d"/><path d="M12.886 112.368c-3.996 1.439-8.406-.588-9.859-4.533-1.45-3.941.603-8.308 4.597-9.748 3.985-1.432 8.405.6 9.863 4.54 1.447 3.948-.614 8.309-4.601 9.741z" fill="#f8a31d"/><path d="M12.686 111.865c-3.715 1.338-7.815-.547-9.165-4.214-1.348-3.663.561-7.724 4.274-9.062 3.705-1.331 7.813.558 9.169 4.221 1.344 3.67-.571 7.725-4.278 9.055z" fill="#f8a01e"/><path d="M12.485 111.363c-3.434 1.236-7.224-.505-8.472-3.895-1.246-3.386.518-7.139 3.95-8.376 3.424-1.23 7.222.515 8.475 3.901 1.244 3.392-.526 7.14-3.953 8.37z" fill="#f79d1e"/><path d="M12.285 110.861c-3.153 1.135-6.633-.464-7.778-3.577-1.144-3.109.476-6.555 3.627-7.69 3.144-1.13 6.631.473 7.782 3.582 1.14 3.115-.485 6.556-3.631 7.685z" fill="#f79a1e"/><path d="M12.085 110.359c-2.872 1.033-6.042-.423-7.085-3.258-1.042-2.832.433-5.97 3.304-7.004 2.863-1.029 6.039.431 7.088 3.263 1.038 2.836-.442 5.971-3.307 6.999z" fill="#f7971e"/><path d="M11.885 109.857c-2.591.932-5.45-.382-6.391-2.939-.94-2.555.391-5.385 2.98-6.318 2.583-.928 5.448.388 6.394 2.943.936 2.558-.399 5.386-2.983 6.314z" fill="#f6941f"/><path d="M11.684 109.355c-2.31.831-4.859-.341-5.698-2.62-.838-2.278.348-4.801 2.657-5.633 2.302-.827 4.857.346 5.7 2.624.836 2.281-.355 4.802-2.659 5.629z" fill="#f6901f"/><path d="M11.484 108.853c-2.028.729-4.268-.299-5.004-2.302-.736-2.001.306-4.216 2.334-4.947 2.022-.727 4.265.304 5.006 2.304.733 2.004-.313 4.218-2.336 4.945z" fill="#f68d1f"/><path d="M11.284 108.351c-1.747.628-3.677-.258-4.311-1.983-.634-1.723.264-3.631 2.01-4.261 1.742-.626 3.674.262 4.312 1.985.632 1.725-.269 3.633-2.011 4.259z" fill="#f58a1f"/><path d="M11.083 107.849c-1.466.527-3.085-.217-3.617-1.664a2.782 2.782 0 0 1 1.687-3.575c1.461-.525 3.085.218 3.618 1.665.533 1.446-.226 3.048-1.688 3.574z" fill="#f58720"/><path d="M10.883 107.347c-1.185.425-2.494-.176-2.924-1.345a2.248 2.248 0 0 1 1.364-2.889c1.181-.425 2.494.176 2.924 1.346a2.25 2.25 0 0 1-1.364 2.888z" fill="#f48420"/><path id="XMLID_19_" d="M10.683 106.845a1.745 1.745 0 0 1-2.23-1.027 1.714 1.714 0 0 1 1.04-2.203c.9-.324 1.9.135 2.23 1.027a1.718 1.718 0 0 1-1.04 2.203z" fill="#f48120"/></g></g><path id="XMLID_10_" d="M56.813 90.373l-.301-6.36-3.144-10.543a.997.997 0 0 0-1.222-.679c-4.212 1.18-22.325 5.689-48.549 4.244-.49-.027-.93.303-1.036.783C2.023 80.245.09 87.3-4.594 89.73l-4.93 5.01-.965-8.14s-7.743-52.343 35.534-49.72 31.768 53.493 31.768 53.493z" fill="#6d4c41"/><path id="XMLID_9_" d="M47.158 84.717c.373.033.688.946.444 2.587-.295 1.988-1.592 3.537-2.806 4.211-1.517.841-4.577 1.516-7.112-.083-2.91-1.836-2.157-3.504-1.121-3.179 1.055.331 2.954.648 4.496.475 1.603-.18 3.308-1.039 4.38-2.12.787-.792 1.316-1.926 1.719-1.891z" fill="#444"/><path id="XMLID_8_" d="M24.134 85.088c.37.057.624.989.274 2.611-.425 1.965-1.82 3.426-3.076 4.018-1.569.74-4.667 1.213-7.091-.548-2.784-2.022-1.924-3.638-.911-3.246 1.031.399 2.905.84 4.455.768 1.611-.074 3.369-.82 4.51-1.829.837-.739 1.439-1.836 1.839-1.774z" fill="#444"/><path id="XMLID_7_" d="M33.768 94.74c-1.425.561-2.403.65-3.545.65s-2.118-.089-3.544-.65c-.61-.24-1.267.35-1.134.911.435 1.825 2.273 3.335 4.677 3.335 2.405 0 4.3-1.574 4.677-3.335.122-.563-.522-1.151-1.131-.911z" fill="#e48c15"/><g id="XMLID_5_"><path id="XMLID_6_" d="M30.906 103.44c.258.304.851.38 1.448.449.99.114 2.405.141 3.052 1.021.517.72.429 1.78.01 2.417-.635.968-1.756.862-2.807 1.255-.268.097-.425.402-.391.669a.472.472 0 0 0 .131.287c.346.33.881.333 1.334.369.457.036 1.1.124 1.483.483.694.649.657 1.605.13 2.271-.708.896-2.37 1.144-3.151 1.75-.409.324-.938.792-.766 1.548.198.872 1.567 1.177 2.594.085.951-1.011 2.66-1.52 3.345-2.733.719-1.264.469-2.554-.34-3.77-.383-.592.284-1.436.509-2.226.208-.728.232-1.415.024-2.148-.589-2.304-2.969-2.333-4.836-3.093-.429-.172-1.049-.219-1.518.013-.401.197-.66.871-.251 1.353z" fill="#444"/></g></g><g id="XMLID_373_"><path id="XMLID_376_" d="M34.353 34.885c5.876 8.746 16.347 17.822 23.895 24.866.806.753 1.604 1.559 2.418 2.32.874.806 1.929 2.652 3.33 2.735 1.409-.083 2.456-1.929 3.33-2.735.821-.761 1.62-1.567 2.426-2.32 7.548-7.044 18.019-16.12 23.887-24.866 1.763-2.614 3.051-5.424 3.578-8.527.52-3.119.497-7.594-.776-10.561-3.005-7.014-8.128-11.029-15.164-10.991-.264.008-.52.008-.784.015-2.757.045-5.431.663-7.962 1.718-2.712 1.137-4.573 2.848-6.976 4.377-.911.58-2.207.572-3.111 0-2.411-1.529-4.264-3.239-6.976-4.377-2.531-1.055-5.205-1.673-7.962-1.718-.256-.007-.527-.007-.783-.015-7.044-.038-12.166 3.977-15.164 10.991-1.273 2.968-1.296 7.443-.776 10.561.519 3.104 1.823 5.914 3.57 8.527z" fill="#f06292"/></g></svg>