<svg id="レイヤー_1" xmlns="http://www.w3.org/2000/svg" viewBox="0 0 128 128"><g><g id="XMLID_4960_" fill="#00bfa5"><path id="XMLID_4962_" d="M89.483 66.621s-16-1.446-25.5 14.917V99.16l25.5-32.539z"/><path id="XMLID_4961_" d="M127.983 128.527l-64 .016V88.404c0-12.283 9.176-19.734 21.055-21.783 7.707-1.33 15.222-.844 22.08.783 11.234 2.667 20.864 9.633 20.864 21v40.123z"/></g><path id="XMLID_4959_" fill="#fcc21b" d="M120.087 96.968h8v31.594h-8z"/><g id="XMLID_4956_" fill="#007689"><path id="XMLID_4958_" d="M-.017 128.527l64 .016V88.404c0-12.283-9.621-19.734-21.5-21.783-7.707-1.33-14.777-.844-21.636.783-11.234 2.667-20.864 9.633-20.864 21v40.123z"/><path id="XMLID_4957_" d="M38.483 66.621s16.333-1.446 25.5 14.917V99.16l-25.5-32.539z"/></g><path id="XMLID_4954_" fill="#fcc21b" d="M-.087 96.968h8.195v31.594H-.087z"/><g id="XMLID_179_"><path id="XMLID_178_" d="M33.476 74.121a7 7 0 0 1-7-7v-6.417h14v6.417a7 7 0 0 1-7 7z" fill="#e59900"/><g id="XMLID_164_"><g id="XMLID_173_" fill="#e59600"><path id="XMLID_175_" d="M54.54 37.223s3.863.669 3.863 4.828c0 3.669-2.818 5.118-5.635 5.118v-9.946h1.772z"/><path id="XMLID_174_" d="M12.412 37.223s-3.863.669-3.863 4.828c0 3.669 2.818 5.118 5.635 5.118v-9.946h-1.772z"/></g><path id="XMLID_172_" d="M33.476 9.981c-16.646 0-21.002 12.904-21.002 31.031 0 18.797 12.082 23.657 21.002 23.657 8.789 0 21.002-4.721 21.002-23.657 0-18.127-4.356-31.031-21.002-31.031z" fill="#fcc21b"/><path id="XMLID_171_" d="M26.56 42.696c0 1.872-1.253 3.389-2.804 3.389-1.55 0-2.81-1.517-2.81-3.389 0-1.877 1.261-3.394 2.81-3.394 1.552 0 2.804 1.517 2.804 3.394" fill="#444"/><path id="XMLID_170_" d="M40.388 42.696c0 1.872 1.254 3.389 2.81 3.389 1.548 0 2.808-1.517 2.808-3.389 0-1.877-1.26-3.394-2.808-3.394-1.556 0-2.81 1.517-2.81 3.394" fill="#444"/><path id="XMLID_169_" d="M39.554 54.147h-6.078-6.078c-.697 0-.996.468-.535 1.17.645.983 3.039 2.872 6.613 2.872s5.968-1.889 6.613-2.872c.461-.702.162-1.17-.535-1.17z" fill="#513f35"/><path id="XMLID_168_" d="M36.412 48.98c-1.034.293-2.107.436-2.936.436s-1.902-.143-2.936-.436c-.442-.125-.616.294-.458.572.328.577 1.649 1.742 3.394 1.742s3.065-1.165 3.394-1.742c.158-.278-.016-.697-.458-.572z" fill="#e59600"/><path id="XMLID_167_" d="M33.977 7.613s-.325-.01-.465-.009c-.141-.001-.465.009-.465.009C15.084 7.96 9.669 18.767 9.669 26.261c0 7.282.007 12.633.007 12.633s.285-.297.813-.708c.563-.438 1.185-.684 1.185-.684l.907 6.084 5.986-12.505a.198.198 0 0 1 .203-.114l3.547.394c3.566.396 7.147.588 10.729.598v.008c.155.001.31-.004.465-.004.155 0 .31.005.465.004v-.008a99.97 99.97 0 0 0 10.729-.598l3.547-.394a.201.201 0 0 1 .203.114l5.986 12.505.907-6.084s.623.247 1.185.684c.528.411.813.708.813.708s.007-5.351.007-12.633c.002-7.494-5.413-18.301-23.376-18.648z" fill="#6d4c41"/></g><path id="XMLID_4953_" d="M94.346 73.968a7 7 0 0 1-7-7v-5.984h14v5.984a7 7 0 0 1-7 7z" fill="#e59900"/><g id="XMLID_136_"><g id="XMLID_143_" fill="#e59600"><path id="XMLID_145_" d="M115.623 37.223s3.863.669 3.863 4.828c0 3.669-2.818 5.118-5.635 5.118v-9.946h1.772z"/><path id="XMLID_144_" d="M73.495 37.223s-3.863.669-3.863 4.828c0 3.669 2.818 5.118 5.635 5.118v-9.946h-1.772z"/></g><path id="XMLID_142_" d="M94.559 9.981c-16.646 0-21.002 12.904-21.002 31.031 0 18.797 12.082 23.657 21.002 23.657 8.789 0 21.002-4.721 21.002-23.657 0-18.127-4.356-31.031-21.002-31.031z" fill="#fcc21b"/><path id="XMLID_141_" d="M87.643 42.696c0 1.872-1.253 3.389-2.804 3.389-1.55 0-2.81-1.517-2.81-3.389 0-1.877 1.261-3.394 2.81-3.394 1.552 0 2.804 1.517 2.804 3.394" fill="#444"/><path id="XMLID_140_" d="M101.471 42.696c0 1.872 1.254 3.389 2.81 3.389 1.548 0 2.808-1.517 2.808-3.389 0-1.877-1.26-3.394-2.808-3.394-1.556 0-2.81 1.517-2.81 3.394" fill="#444"/><path id="XMLID_139_" d="M100.637 54.147h-6.078-6.078c-.697 0-.996.468-.535 1.17.645.983 3.039 2.872 6.613 2.872 3.574 0 5.968-1.889 6.613-2.872.461-.702.162-1.17-.535-1.17z" fill="#513f35"/><path id="XMLID_138_" d="M97.495 48.98c-1.034.293-2.107.436-2.936.436s-1.902-.143-2.936-.436c-.442-.125-.616.294-.458.572.328.577 1.649 1.742 3.394 1.742s3.065-1.165 3.394-1.742c.158-.278-.016-.697-.458-.572z" fill="#e59600"/><path id="XMLID_137_" d="M95.06 7.613s-.325-.01-.465-.009c-.141-.001-.465.009-.465.009-17.963.347-23.378 11.154-23.378 18.648 0 7.282.007 12.633.007 12.633s.285-.297.813-.708c.563-.438 1.185-.684 1.185-.684l.907 6.084 5.986-12.505a.198.198 0 0 1 .203-.114l3.547.394c3.566.396 7.147.588 10.729.598v.008c.155.001.31-.004.465-.004.155 0 .31.005.465.004v-.008a99.97 99.97 0 0 0 10.729-.598l3.547-.394a.201.201 0 0 1 .203.114l5.986 12.505.907-6.084s.623.247 1.185.684c.528.411.813.708.813.708s.007-5.351.007-12.633c.002-7.494-5.413-18.301-23.376-18.648z" fill="#6d4c41"/></g></g><g id="XMLID_1987_"><path id="XMLID_4931_" d="M85.922 129.155h-43.81c-.313 0 0-7.795 0-7.795 0-10 12.731-13.348 17.152-13.348h9.524c4.421 0 17.134 3.348 17.134 13.348v.283c0 .362.313 7.512 0 7.512z" fill="#b2dfdb"/><path id="XMLID_4930_" d="M64.494 116.301h-.964a4.286 4.286 0 0 1-4.286-4.286v-2.381h9.535v2.381a4.285 4.285 0 0 1-4.285 4.286z" fill="#e59900"/><g id="XMLID_936_"><ellipse id="XMLID_948_" cx="63.848" cy="85.903" rx="20.701" ry="19.49" fill="#6d4c41"/><g id="XMLID_944_" fill="#e59600"><path id="XMLID_947_" d="M80.799 90.721s3.154.546 3.154 3.943c0 2.996-2.301 4.179-4.602 4.179v-8.122h1.448z"/><path id="XMLID_946_" d="M46.896 90.721s-3.154.546-3.154 3.943c0 2.996 2.301 4.179 4.602 4.179v-8.122h-1.448z"/></g><g id="XMLID_943_"><path d="M75.846 80.53c-2.869-3.575-7.813-5.109-11.998-5.109-4.182 0-9.126 1.534-11.995 5.109-2.805 3.495-4.277 8.01-4.256 14.069.021 4.886 1.277 8.64 4.82 11.596 3.28 2.737 7.075 4.217 11.186 4.217 4.04 0 8.5-1.413 11.662-4.192 3.467-3.05 4.814-6.736 4.834-11.621.024-6.059-1.451-10.574-4.253-14.069z" fill="#fcc21b"/></g><path id="XMLID_942_" d="M66.221 98.268c-.836.237-1.703.352-2.373.352s-1.537-.115-2.373-.352c-.357-.101-.498.237-.37.463.265.466 1.333 1.408 2.743 1.408s2.478-.941 2.743-1.408c.128-.226-.013-.565-.37-.463z" fill="#e59600"/><path id="XMLID_941_" d="M68.76 102.126h-4.912-4.912c-.563 0-.805.379-.433.946.521.794 2.457 2.321 5.345 2.321s4.824-1.527 5.345-2.321c.372-.567.13-.946-.433-.946z" fill="#513f35"/><g id="XMLID_938_" fill="#444"><path id="XMLID_940_" d="M57.346 94.742c0 1.448-.969 2.622-2.17 2.622-1.199 0-2.175-1.174-2.175-2.622 0-1.452.975-2.626 2.175-2.626 1.2 0 2.17 1.174 2.17 2.626"/><path id="XMLID_939_" d="M74.695 94.742c0 1.448-.969 2.622-2.17 2.622-1.199 0-2.175-1.174-2.175-2.622 0-1.452.975-2.626 2.175-2.626 1.201 0 2.17 1.174 2.17 2.626"/></g><path id="XMLID_937_" d="M46.698 93.618s4.719-4.941 6.448-6.604c.11-.105.288-.015.273.136-.069.687-.12 1.441-.148 1.894a.327.327 0 0 0 .387.341c3.387-.643 6.647-2.051 7.525-2.448.108-.049.224.035.221.154a31.33 31.33 0 0 0-.002 1.595.33.33 0 0 0 .379.317c3.108-.477 5.7-1.752 6.556-2.209a.78.78 0 0 1 .637-.053c1.611.577 3.565 1.715 4.277 2.145a.32.32 0 0 0 .447-.119 39.23 39.23 0 0 0 .821-1.598.158.158 0 0 1 .255-.046c2.533 2.502 6.225 6.495 6.225 6.495l2.611-8.378s-4.228-14.91-18.916-14.91-20.253 15.905-20.253 15.905l2.257 7.383z" fill="#6d4c41"/></g></g></g></svg>