<svg id="Layer_1" xmlns="http://www.w3.org/2000/svg" viewBox="0 0 128 128"><g/><g/><g id="XMLID_940_"><g id="XMLID_977_"/><g id="XMLID_974_"/><g id="XMLID_949_" fill="#7b1fa2"/><g id="XMLID_947_"/><g id="XMLID_945_"/></g><g id="XMLID_1014_"><g id="XMLID_1021_" fill="#e59600"/></g><g id="XMLID_13_"><g id="XMLID_46_"><path id="XMLID_47_" d="M72.65 24.671s0 23.187 2.989 33.966c1.473 5.313 3.307 8.66 7.716 5.35l17.101-.17c4.403 3.36 7.557.138 8.506-5.318 2.242-12.883 2.242-33.828 2.242-33.828H72.65z" fill="#6d4c41"/></g><g id="XMLID_44_"><ellipse id="XMLID_45_" cx="91.927" cy="24.668" rx="19.277" ry="17.329" fill="#6d4c41"/></g><path id="XMLID_43_" d="M112.717 61.637l.656 1.762a53.227 53.227 0 0 0 4.926 9.929l6.576 10.004a3.309 3.309 0 0 1-5.518 3.653l-15.746-23.611-.319-4.082 9.425 2.345z" fill="#fcc21b"/><path id="XMLID_42_" d="M71.275 61.445l-.656 1.762a53.227 53.227 0 0 1-4.926 9.929L59.117 83.14a3.309 3.309 0 0 0 5.518 3.653l15.745-23.61.319-4.082-9.424 2.344z" fill="#fcc21b"/><path id="XMLID_41_" d="M91.927 49.816c-3.497-.006-7.902.402-10.236 1.024-7.294 1.941-9.085 5.372-11.26 11.258l21.496 8.191V49.816z" fill="#a0f"/><path id="XMLID_40_" fill="#a0f" d="M88.66 55.662h5.314v15.775H88.66z"/><path id="XMLID_39_" fill="#a0f" d="M78.554 61.973h12.284v17.402H78.554z"/><path id="XMLID_38_" fill="#a0f" d="M78.619 77.454L70.43 96.903h21.497V77.454z"/><path id="XMLID_37_" fill="#fcc21b" d="M78.619 98.95h9.213v28.662h-9.213z"/><path id="XMLID_36_" fill="#e8a23d" d="M78.619 96.903h9.213v3.071h-9.213z"/><path id="XMLID_35_" d="M89.059 128H77.054v-2.501a4.002 4.002 0 0 1 4.002-4.002h4.002a4.002 4.002 0 0 1 4.002 4.002V128z" fill="#444"/><path id="XMLID_34_" d="M91.927 49.816c3.497-.006 7.902.402 10.236 1.024 7.294 1.941 9.085 5.374 11.26 11.26l-21.496 8.189V49.816z" fill="#a0f"/><path id="XMLID_33_" fill="#a0f" d="M91.927 61.973h13.307v17.402H91.927z"/><path id="XMLID_32_" fill="#a0f" d="M105.234 77.454l8.189 19.449H91.927V77.454z"/><path id="XMLID_31_" fill="#fcc21b" d="M96.021 98.95h9.213v28.662h-9.213z"/><path id="XMLID_30_" fill="#e8a23d" d="M96.021 96.903h9.213v3.071h-9.213z"/><path id="XMLID_29_" d="M94.795 128H106.8v-2.501a4.002 4.002 0 0 0-4.002-4.002h-4.002a4.002 4.002 0 0 0-4.002 4.002V128z" fill="#444"/><path id="XMLID_28_" d="M91.932 56.777c-2.94 0-5.123-1.974-5.123-4.914v-5.118h10.236v5.118c0 2.94-2.173 4.914-5.113 4.914z" fill="#fcc21b"/><path id="XMLID_27_" d="M97.045 51.767s-1.952.792-5.113.792-5.123-.696-5.123-.696v-5.022c0-1.343.888-2.799 2.231-2.799h5.786c1.343 0 2.22 1.361 2.22 2.704v5.021z" fill="#e8a23d"/><path id="XMLID_26_" fill="#a0f" d="M89.879 76.43h4.095v20.473h-4.095z"/><g id="XMLID_22_" fill="#7b1fa2"><path id="XMLID_25_" d="M78.619 71.437h13.307v6.017H78.619z"/><path id="XMLID_24_" d="M91.927 71.437h13.307v6.017H91.927z"/><path id="XMLID_23_" d="M89.879 71.437h4.095v6.017h-4.095z"/></g><g id="XMLID_20_"><path id="XMLID_21_" d="M91.927 11.513c-11.852 0-14.953 9.188-14.953 22.094s9.193 16.844 14.953 16.844 14.953-3.938 14.953-16.844c0-12.907-3.102-22.094-14.953-22.094z" fill="#fcc21b"/></g><g id="XMLID_18_"><path id="XMLID_19_" d="M96.449 21.637c-1.576 1.514-9.402 8.568-20.189 10.409V17.585s4.655-9.238 15.829-9.238 15.829 9.471 15.829 9.471v14.228s-7.321-2.81-10.997-10.32a.297.297 0 0 0-.472-.089z" fill="#6d4c41"/></g><path id="XMLID_17_" d="M86.896 34.464c0 1.361-.911 2.465-2.04 2.465-1.127 0-2.044-1.104-2.044-2.465 0-1.365.917-2.469 2.044-2.469 1.129 0 2.04 1.104 2.04 2.469" fill="#444"/><path id="XMLID_16_" d="M96.955 34.464c0 1.361.912 2.465 2.044 2.465 1.126 0 2.043-1.104 2.043-2.465 0-1.365-.917-2.469-2.043-2.469-1.132 0-2.044 1.104-2.044 2.469" fill="#444"/><path id="XMLID_15_" d="M96.348 42.793h-4.421-4.421c-.507 0-.725.341-.389.851.469.715 2.211 2.089 4.811 2.089s4.341-1.374 4.811-2.089c.333-.51.116-.851-.391-.851z" fill="#4c3734"/><path id="XMLID_14_" d="M94.062 39.311c-.752.213-1.533.317-2.136.317s-1.383-.104-2.136-.317c-.322-.091-.448.214-.333.416.239.42 1.2 1.267 2.469 1.267s2.23-.847 2.469-1.267c.115-.202-.011-.507-.333-.416z" fill="#e48c15"/></g><g><g id="XMLID_98_"><path id="XMLID_100_" d="M14.931 61.243l-.656 1.762a53.227 53.227 0 0 1-4.926 9.929L2.873 82.939c-.934 1.421-.639 3.52.684 4.589 1.514 1.225 4.053.884 5.134-.736l15.746-23.611.319-4.082-9.825 2.144z" fill="#fcc21b"/><path id="XMLID_99_" d="M35.982 49.814c-3.618-.006-8.175.416-10.59 1.059-7.546 2.008-9.399 5.558-11.649 11.647l22.24 8.474v-21.18z" fill="#00bfa5"/></g><g id="XMLID_95_"><path id="XMLID_97_" d="M57.034 61.243l.656 1.762a53.227 53.227 0 0 0 4.926 9.929l6.476 10.004c.934 1.421.639 3.52-.684 4.589-1.514 1.225-4.053.884-5.134-.736l-15.745-23.61-.319-4.082 9.824 2.144z" fill="#fcc21b"/><path id="XMLID_96_" d="M35.982 49.814c3.618-.006 8.175.416 10.59 1.059 7.546 2.008 9.399 5.558 11.649 11.647l-22.24 8.474v-21.18z" fill="#00bfa5"/></g><path id="XMLID_94_" fill="#00bfa5" d="M22.147 62.392h13.835v19.504H22.147z"/><path id="XMLID_93_" fill="#616161" d="M22.147 81.895H32.86v45.716H22.147z"/><path id="XMLID_92_" d="M34.256 127.999H20.751v-3.501a4.002 4.002 0 0 1 4.002-4.002h5.502a4.002 4.002 0 0 1 4.002 4.002v3.501z" fill="#444"/><path id="XMLID_91_" fill="#00bfa5" d="M35.982 62.392h13.767v19.504H35.982z"/><path id="XMLID_90_" fill="#616161" d="M39.037 81.895H49.75v45.716H39.037z"/><path id="XMLID_73_" d="M37.641 127.999h13.505v-3.501a4.002 4.002 0 0 0-4.002-4.002h-5.502a4.002 4.002 0 0 0-4.002 4.002v3.501z" fill="#444"/><path id="XMLID_72_" d="M35.982 57.466a5.288 5.288 0 0 1-5.288-5.288v-4.52H41.27v4.52a5.288 5.288 0 0 1-5.288 5.288z" fill="#fcc21b"/><path id="XMLID_71_" d="M41.275 51.739s-2.019.819-5.287.819c-3.269 0-5.298-.72-5.298-.72v-5.194c0-1.388.918-2.895 2.307-2.895h5.983c1.388 0 2.296 1.407 2.296 2.796v5.194z" fill="#e8a23d"/><g id="XMLID_61_"><g id="XMLID_68_" fill="#e59600"><path id="XMLID_70_" d="M51.893 29.709s2.918.505 2.918 3.647c0 2.772-2.128 3.866-4.257 3.866v-7.513h1.339z"/><path id="XMLID_69_" d="M20.071 29.709s-2.918.505-2.918 3.647c0 2.772 2.128 3.866 4.257 3.866v-7.513h-1.339z"/></g><path id="XMLID_67_" d="M35.982 9.132c-12.574 0-15.864 9.747-15.864 23.44 0 14.198 9.126 17.87 15.864 17.87 6.639 0 15.864-3.566 15.864-17.87 0-13.692-3.29-23.44-15.864-23.44z" fill="#fcc21b"/><path id="XMLID_66_" d="M30.758 33.844c0 1.414-.946 2.56-2.118 2.56-1.171 0-2.123-1.146-2.123-2.56 0-1.417.952-2.564 2.123-2.564 1.172 0 2.118 1.146 2.118 2.564" fill="#444"/><path id="XMLID_65_" d="M41.203 33.844c0 1.414.948 2.56 2.123 2.56 1.169 0 2.121-1.146 2.121-2.56 0-1.417-.952-2.564-2.121-2.564-1.175 0-2.123 1.146-2.123 2.564" fill="#444"/><path id="XMLID_64_" d="M40.573 42.493h-4.591-4.591c-.526 0-.752.354-.404.884.487.742 2.296 2.169 4.995 2.169s4.508-1.427 4.995-2.169c.349-.53.123-.884-.404-.884z" fill="#513f35"/><path id="XMLID_63_" d="M38.2 38.591a8.56 8.56 0 0 1-2.218.329 8.56 8.56 0 0 1-2.218-.329c-.334-.095-.465.222-.346.432.248.436 1.246 1.316 2.563 1.316 1.318 0 2.316-.88 2.563-1.316.121-.211-.01-.527-.344-.432z" fill="#e59600"/><path id="XMLID_62_" d="M36.361 7.344s-.245-.008-.351-.007c-.106-.001-.351.007-.351.007-13.569.261-17.66 8.424-17.66 14.085 0 5.501.005 9.542.005 9.542s.216-.224.614-.534c.425-.331.895-.517.895-.517l.685 4.596 4.522-9.446a.15.15 0 0 1 .154-.086l2.679.298c2.693.299 5.399.444 8.104.452v.006c.117.001.234-.003.351-.003.117 0 .234.004.351.003v-.006a75.447 75.447 0 0 0 8.104-.452l2.679-.298a.154.154 0 0 1 .154.086l4.522 9.446.685-4.596s.47.186.895.517c.399.31.614.534.614.534s.005-4.042.005-9.542c.003-5.661-4.087-13.824-17.656-14.085z" fill="#6d4c41"/></g><path d="M49.75 81.895H22.147v15.542H32.86v-.905a2.387 2.387 0 0 1 2.387-2.387h1.403a2.387 2.387 0 0 1 2.387 2.387v.905H49.75V81.895z" fill="#616161"/></g></svg>