<svg id="レイヤー_1" xmlns="http://www.w3.org/2000/svg" viewBox="0 0 128 128"><g><g><path d="M127.068 87.461v-.507h-.034c-.362-10.568-16.081-25.051-26.63-25.051h-1.042v-3.972c2.659-2.216 4.894-5.709 6.626-9.72 2.283-.487 5.106-4.213 5.806-8.652.526-3.397.242-6.4-2.152-6.4.063-.893.13-1.785.13-2.649 0-1.206-.077-2.389-.198-3.558-.849-12.271-8.682-19.548-18.961-22.102-.062-.01-.116-.033-.188-.048-.363-.091-.749-.14-1.125-.212-.443-.081-.893-.174-1.347-.232-.101-.014-.203-.009-.299-.014a21.358 21.358 0 0 0-2.075-.125h-.101c-13.358 0-24.197 9.657-24.197 24.945 0 1.014.082 2.017.183 3.006 7.153 5.251 11.597 13.151 12.302 22.808.111 1.125.188 2.178.212 3.16 2.056 2.646 2.703 6.304 1.94 11.148-.748 4.788-3.417 10.043-7.427 12.809a38.097 38.097 0 0 1-1.83 3.271c6.66 2.723 13.204 7.953 17.866 14.002h42.541V87.65v-.189z" fill="#006ca2"/><g><path d="M84.122 116.094v-.507h-.029c-.362-10.569-16.085-25.056-26.629-25.056H56.42v-3.974c2.654-2.214 4.889-5.708 6.626-9.714 2.283-.492 5.111-4.217 5.796-8.657.521-3.397.246-6.404-2.148-6.404.067-.883.13-1.781.13-2.639 0-1.212-.067-2.39-.193-3.562-.85-12.268-8.682-19.551-18.966-22.099a2.194 2.194 0 0 1-.179-.053c-.366-.086-.757-.135-1.129-.207-.444-.081-.898-.18-1.356-.236-.092-.015-.193-.005-.294-.015a20.945 20.945 0 0 0-2.07-.12h-.093c-13.377 0-24.211 9.657-24.211 24.939 0 1.182.082 2.336.208 3.484.024.328.077.686.116 1.022-1.684 0-2.234 2.853-1.771 5.889.661 4.179 3.253 7.809 5.386 8.561 1.718 4.049 3.928 7.62 6.563 9.81v3.974H27.6c-10.544 0-26.272 14.486-26.624 25.056H.932V128h83.19v-11.723-.183z" fill="#006ca2"/></g></g></g></svg>