<svg id="图层_1" xmlns="http://www.w3.org/2000/svg" viewBox="0 0 128 128"><g><g><g><g fill="#444"><path d="M52.437 105.949c-1.874 1.477-2.556 4.477-1.079 6.352 2.284 2.898 4.659 5.852 7.006 6.678 1.847.65 3.494.242 4.134-.262l-10.061-12.768z"/><path d="M52.437 105.949c1.874-1.477 4.951-1.438 6.428.436 2.284 2.898 4.601 5.899 4.855 8.373.2 1.948-.581 3.454-1.221 3.958l-10.062-12.767z"/></g><circle cx="47.387" cy="99.521" r="4.643" fill="#fbc11b"/><path fill="#fbc11b" d="M44.203 80.623l-10.42 4.737 9.433 16.191 8.415-3.936z"/><path fill="#fbc11b" d="M59.573 109.949l-8.348-13.258-7.382 5.841 10.822 11.187z"/><g><path id="XMLID_761_" fill="#fbc11b" d="M34.245 123.958h-8.288l-3.6-43.396h10.688z"/><path id="XMLID_759_" d="M35.348 124.306h-10.8v-1.85a4 4 0 0 1 4-4h2.8a4 4 0 0 1 4 4v1.85z" fill="#444"/></g><path id="XMLID_4628_" d="M16.569 31.44s0 20.851 2.688 30.545c1.325 4.778 2.974 7.787 6.939 4.811l15.378-.153c3.959 3.021 6.795.124 7.649-4.782 2.016-11.585 2.016-30.42 2.016-30.42h-34.67z" fill="#6d4c41"/><circle cx="9.157" cy="72.387" r="3.144" fill="#fbc11b"/><g><path d="M17.014 58.228c-3.88 4.001-8.268 9.755-10.187 12.035l4.707 4.139 1.185-1.221c2.268-2.442 9.353-8.623 9.353-8.623s-4.569-6.834-5.058-6.33z" fill="#fbc11b"/></g><path id="XMLID_778_" d="M33.929 53.969c-3.146-.005-7.079.489-9.209.921-4.094.829-6.963 2.128-10.391 5.053l7.569 7.86 12.031 4.584V53.969z" fill="#444"/><g><path d="M21.205 79.981l-6.369-6.477a47.907 47.907 0 0 1-3.379-3.911l-4.631 4.912c3.962 4.021 6.75 6.692 10.178 9.694a2.977 2.977 0 0 0 4.201-4.218z" fill="#fbc11b"/></g><circle cx="58.7" cy="72.387" r="3.144" fill="#fbc11b"/><g><path d="M50.843 58.228c3.88 4.001 8.268 9.755 10.187 12.035l-4.707 4.139-1.185-1.221c-2.268-2.442-9.353-8.623-9.353-8.623s4.569-6.834 5.058-6.33z" fill="#fbc11b"/></g><path id="XMLID_702_" d="M33.929 53.969c3.146-.005 7.079.489 9.209.921 4.094.829 6.963 2.128 10.391 5.053l-7.569 7.86-12.031 4.584V53.969z" fill="#444"/><g><path d="M46.652 79.981l6.369-6.477a47.907 47.907 0 0 0 3.379-3.911l4.631 4.912c-3.962 4.021-6.75 6.692-10.178 9.694a2.977 2.977 0 0 1-4.201-4.218z" fill="#fbc11b"/></g><path id="XMLID_777_" fill="#444" d="M30.99 59.229h4.78V73.42h-4.78z"/><path id="XMLID_776_" fill="#444" d="M33.929 82.921H21.898V64.906h12.031z"/><path id="XMLID_756_" fill="#444" d="M33.929 64.906h11.972V82.92H33.929z"/><path d="M33.929 64.598c5.958 0 10.789-3.523 10.789-7.87 0-.261-.02-.518-.053-.772-.48-.164-.98-.323-1.526-.468-2.1-.559-6.063-.926-9.209-.921-3.146-.005-7.109.362-9.209.921-.546.145-1.046.303-1.526.468a5.82 5.82 0 0 0-.053.772c-.002 4.346 4.828 7.87 10.787 7.87z" fill="#fbc11b"/><g><path id="XMLID_755_" d="M33.933 60.232c-2.645 0-4.609-1.776-4.609-4.421v-4.605h9.209v4.605c0 2.645-1.955 4.421-4.6 4.421z" fill="#fbc11b"/><path id="XMLID_754_" d="M38.533 55.725s-1.756.713-4.6.713-4.609-.626-4.609-.626v-4.518c0-1.208.799-2.518 2.007-2.518h5.205c1.208 0 1.997 1.224 1.997 2.432v4.517z" fill="#e7a13d"/></g><path id="XMLID_4618_" d="M33.953 60.633a4.703 4.703 0 0 1-4.703-4.703v-4.021h9.407v4.021a4.704 4.704 0 0 1-4.704 4.703z" fill="#e49800"/><ellipse id="XMLID_4601_" cx="33.953" cy="31.338" rx="17.335" ry="15.584" fill="#6d4c41"/><path id="XMLID_4600_" d="M33.953 19.509c-10.658 0-13.447 8.262-13.447 19.868 0 11.606 8.267 15.147 13.447 15.147S47.4 50.983 47.4 39.377s-2.789-19.868-13.447-19.868z" fill="#fbc11b"/><path id="XMLID_4599_" d="M29.354 39.852c0 1.245-.833 2.254-1.865 2.254-1.031 0-1.869-1.009-1.869-2.254 0-1.248.838-2.257 1.869-2.257 1.032.001 1.865 1.01 1.865 2.257" fill="#444"/><path id="XMLID_4598_" d="M38.55 39.852c0 1.245.834 2.254 1.869 2.254 1.03 0 1.867-1.009 1.867-2.254 0-1.248-.838-2.257-1.867-2.257-1.035.001-1.869 1.01-1.869 2.257" fill="#444"/><path id="XMLID_4597_" d="M38.02 28.613c-1.418 1.362-8.455 7.705-18.155 9.36V24.969s4.186-8.307 14.234-8.307 14.234 8.517 14.234 8.517v12.795s-6.583-2.527-9.89-9.281a.265.265 0 0 0-.423-.08z" fill="#6d4c41"/><path id="XMLID_4596_" d="M37.995 47.467h-4.042-4.042c-.463 0-.662.311-.356.778.429.653 2.021 1.91 4.398 1.91 2.376 0 3.969-1.256 4.398-1.91.306-.467.107-.778-.356-.778z" fill="#4c3734"/><path id="XMLID_4595_" d="M35.906 44.283a7.518 7.518 0 0 1-1.952.29 7.512 7.512 0 0 1-1.952-.29c-.294-.083-.41.195-.304.381.218.384 1.097 1.158 2.257 1.158 1.16 0 2.038-.775 2.257-1.158.103-.185-.012-.464-.306-.381z" fill="#e38b15"/><g><path d="M46.253 25.621c.04 1.012-5.244-1.975-12.338-1.988-7.094-.095-12.379 2.892-12.338 1.988-.041-.819 5.245-4.769 12.338-4.782 7.095-.096 12.378 3.855 12.338 4.782z" fill="#2f2f2f"/><g><path d="M45.245 18.658c-2.435 3.466-6.594 4.988-8.101 3.967-1.981-1.341-2.43-7.11 1.342-12.309 3.569-4.92 10.179-7.487 11.497-5.673 1.002 1.38-.542 3.243-1.281 5.071-.909 2.251-1.378 5.984-3.457 8.944z" fill="#2f2f2f"/><path d="M42.686 18.347c-1.375 2.157-3.696 3.271-4.528 2.756-1.093-.677-1.306-4.024.823-7.266 2.015-3.068 5.705-4.924 6.426-3.935.548.752-.322 1.925-.744 3.033-.518 1.363-.803 3.57-1.977 5.412z" fill="#cb4079"/></g><g><path d="M22.612 18.658c2.435 3.466 6.594 4.988 8.101 3.967 1.981-1.341 2.43-7.11-1.342-12.309-3.569-4.92-10.179-7.487-11.497-5.673-1.002 1.38.542 3.243 1.281 5.071.909 2.251 1.378 5.984 3.457 8.944z" fill="#2f2f2f"/><path d="M25.171 18.347c1.375 2.157 3.696 3.271 4.528 2.756 1.093-.677 1.306-4.024-.823-7.266-2.015-3.068-5.705-4.924-6.426-3.935-.548.752.322 1.925.744 3.033.519 1.363.803 3.57 1.977 5.412z" fill="#cb4079"/></g></g><circle cx="56.914" cy="111.573" r="3.113" fill="#fbc11b"/></g></g><path d="M45.9 82.921H21.898l7.559 5.656c.458.43 3.529 2.511 5.384 2.511h.042c2.121 0 3.93-1.88 4.388-2.31l6.629-5.857z" fill="#444"/></g><g><g><g><g fill="#444"><path d="M110.425 105.949c-1.874 1.477-2.556 4.477-1.079 6.352 2.284 2.898 4.659 5.852 7.006 6.678 1.847.65 3.494.242 4.134-.262l-10.061-12.768z"/><path d="M110.425 105.949c1.874-1.477 4.951-1.438 6.428.436 2.284 2.898 4.601 5.899 4.855 8.373.2 1.948-.581 3.454-1.221 3.958l-10.062-12.767z"/></g><circle cx="105.375" cy="99.521" r="4.643" fill="#fbc11b"/><path fill="#fbc11b" d="M102.191 80.623l-10.42 4.737 9.433 16.191 8.415-3.936z"/><path fill="#fbc11b" d="M117.561 109.949l-8.348-13.258-7.382 5.841 10.822 11.187z"/><g><path id="XMLID_765_" fill="#fbc11b" d="M92.233 123.958h-8.288l-3.6-43.396h10.688z"/><path id="XMLID_764_" d="M93.336 124.306h-10.8v-1.85a4 4 0 0 1 4-4h2.8a4 4 0 0 1 4 4v1.85z" fill="#444"/></g><path id="XMLID_763_" d="M74.557 31.44s0 20.851 2.688 30.545c1.325 4.778 2.974 7.787 6.939 4.811l15.378-.153c3.959 3.021 6.795.124 7.649-4.782 2.016-11.585 2.016-30.42 2.016-30.42h-34.67z" fill="#6d4c41"/><circle cx="67.145" cy="72.387" r="3.144" fill="#fbc11b"/><g><path d="M75.002 58.228c-3.88 4.001-8.268 9.755-10.187 12.035l4.707 4.139 1.185-1.221c2.268-2.442 9.353-8.623 9.353-8.623s-4.569-6.834-5.058-6.33z" fill="#fbc11b"/></g><path id="XMLID_760_" d="M91.917 53.969c-3.146-.005-7.079.489-9.209.921-4.094.829-6.963 2.128-10.391 5.053l7.569 7.86 12.031 4.584V53.969z" fill="#444"/><g><path d="M79.193 79.981l-6.369-6.477a47.907 47.907 0 0 1-3.379-3.911l-4.631 4.912c3.962 4.021 6.75 6.692 10.178 9.694a2.977 2.977 0 0 0 4.201-4.218z" fill="#fbc11b"/></g><circle cx="116.688" cy="72.387" r="3.144" fill="#fbc11b"/><g><path d="M108.831 58.228c3.88 4.001 8.268 9.755 10.187 12.035l-4.707 4.139-1.185-1.221c-2.268-2.442-9.353-8.623-9.353-8.623s4.569-6.834 5.058-6.33z" fill="#fbc11b"/></g><path id="XMLID_758_" d="M91.917 53.969c3.146-.005 7.079.489 9.209.921 4.094.829 6.963 2.128 10.391 5.053l-7.569 7.86-12.031 4.584V53.969z" fill="#444"/><g><path d="M104.64 79.981l6.369-6.477a47.907 47.907 0 0 0 3.379-3.911l4.631 4.912c-3.962 4.021-6.75 6.692-10.178 9.694a2.977 2.977 0 0 1-4.201-4.218z" fill="#fbc11b"/></g><path id="XMLID_757_" fill="#444" d="M88.978 59.229h4.78V73.42h-4.78z"/><path id="XMLID_714_" fill="#444" d="M91.917 82.921H79.886V64.906h12.031z"/><path id="XMLID_713_" fill="#444" d="M91.917 64.906h11.972V82.92H91.917z"/><path d="M91.917 64.598c5.958 0 10.789-3.523 10.789-7.87 0-.261-.02-.518-.053-.772-.48-.164-.98-.323-1.526-.468-2.1-.559-6.063-.926-9.209-.921-3.146-.005-7.109.362-9.209.921-.546.145-1.046.303-1.526.468a5.82 5.82 0 0 0-.053.772c-.002 4.346 4.828 7.87 10.787 7.87z" fill="#fbc11b"/><g><path id="XMLID_712_" d="M91.921 60.232c-2.645 0-4.609-1.776-4.609-4.421v-4.605h9.209v4.605c0 2.645-1.955 4.421-4.6 4.421z" fill="#fbc11b"/><path id="XMLID_709_" d="M96.521 55.725s-1.756.713-4.6.713-4.609-.626-4.609-.626v-4.518c0-1.208.799-2.518 2.007-2.518h5.205c1.208 0 1.997 1.224 1.997 2.432v4.517z" fill="#e7a13d"/></g><path id="XMLID_708_" d="M91.941 60.633a4.703 4.703 0 0 1-4.703-4.703v-4.021h9.407v4.021a4.704 4.704 0 0 1-4.704 4.703z" fill="#e49800"/><ellipse id="XMLID_707_" cx="91.941" cy="31.338" rx="17.335" ry="15.584" fill="#6d4c41"/><path id="XMLID_706_" d="M91.941 19.509c-10.658 0-13.447 8.262-13.447 19.868 0 11.606 8.267 15.147 13.447 15.147s13.447-3.541 13.447-15.147-2.789-19.868-13.447-19.868z" fill="#fbc11b"/><path id="XMLID_705_" d="M87.342 39.852c0 1.245-.833 2.254-1.865 2.254-1.031 0-1.869-1.009-1.869-2.254 0-1.248.838-2.257 1.869-2.257 1.032.001 1.865 1.01 1.865 2.257" fill="#444"/><path id="XMLID_704_" d="M96.537 39.852c0 1.245.834 2.254 1.869 2.254 1.03 0 1.867-1.009 1.867-2.254 0-1.248-.838-2.257-1.867-2.257-1.034.001-1.869 1.01-1.869 2.257" fill="#444"/><path id="XMLID_703_" d="M96.008 28.613c-1.418 1.362-8.455 7.705-18.155 9.36V24.969s4.186-8.307 14.234-8.307 14.234 8.517 14.234 8.517v12.795s-6.583-2.527-9.89-9.281a.265.265 0 0 0-.423-.08z" fill="#6d4c41"/><path id="XMLID_698_" d="M95.983 47.467h-4.042-4.042c-.463 0-.662.311-.356.778.429.653 2.021 1.91 4.398 1.91 2.376 0 3.969-1.256 4.398-1.91.306-.467.107-.778-.356-.778z" fill="#4c3734"/><path id="XMLID_675_" d="M93.894 44.283c-.688.195-1.401.29-1.952.29s-1.265-.095-1.952-.29c-.294-.083-.41.195-.304.381.218.384 1.097 1.158 2.257 1.158 1.16 0 2.038-.775 2.257-1.158.103-.185-.012-.464-.306-.381z" fill="#e38b15"/><g><path d="M104.241 25.621c.04 1.012-5.244-1.975-12.338-1.988-7.094-.095-12.379 2.892-12.338 1.988-.041-.819 5.245-4.769 12.338-4.782 7.094-.096 12.378 3.855 12.338 4.782z" fill="#2f2f2f"/><g><path d="M103.233 18.658c-2.435 3.466-6.594 4.988-8.101 3.967-1.981-1.341-2.43-7.11 1.342-12.309 3.569-4.92 10.179-7.487 11.497-5.673 1.002 1.38-.542 3.243-1.281 5.071-.909 2.251-1.378 5.984-3.457 8.944z" fill="#2f2f2f"/><path d="M100.674 18.347c-1.375 2.157-3.696 3.271-4.528 2.756-1.093-.677-1.306-4.024.823-7.266 2.015-3.068 5.705-4.924 6.426-3.935.548.752-.322 1.925-.744 3.033-.519 1.363-.803 3.57-1.977 5.412z" fill="#cb4079"/></g><g><path d="M80.6 18.658c2.435 3.466 6.594 4.988 8.101 3.967 1.981-1.341 2.43-7.11-1.342-12.309C83.79 5.397 77.18 2.83 75.862 4.643c-1.002 1.38.542 3.243 1.281 5.071.909 2.251 1.378 5.984 3.457 8.944z" fill="#2f2f2f"/><path d="M83.159 18.347c1.375 2.157 3.696 3.271 4.528 2.756 1.093-.677 1.306-4.024-.823-7.266-2.015-3.068-5.705-4.924-6.426-3.935-.548.752.322 1.925.744 3.033.519 1.363.803 3.57 1.977 5.412z" fill="#cb4079"/></g></g><circle cx="114.902" cy="111.573" r="3.113" fill="#fbc11b"/></g></g><path d="M103.888 82.921H79.886l7.559 5.656c.458.43 3.529 2.511 5.384 2.511h.042c2.121 0 3.93-1.88 4.388-2.31l6.629-5.857z" fill="#444"/></g></svg>