<svg id="レイヤー_1" xmlns="http://www.w3.org/2000/svg" viewBox="0 0 128 128"><g><path d="M119.279 112.177v-.677h-.04c-.478-14.044-21.374-33.289-35.388-33.289h-1.383V72.93c3.521-2.943 6.495-7.589 8.803-12.92 3.033-.646 6.793-5.599 7.708-11.497.706-4.516.318-8.514-2.855-8.514.09-1.174.18-2.367.18-3.511 0-1.611-.11-3.173-.269-4.725-1.133-16.311-11.537-25.979-25.202-29.38-.08-.02-.159-.039-.239-.069-.498-.109-.995-.179-1.502-.269a25.728 25.728 0 0 0-1.791-.317c-.139-.02-.269-.011-.397-.02-.915-.09-1.831-.169-2.765-.169h-.13c-17.753 0-32.155 12.84-32.155 33.159 0 1.562.099 3.104.268 4.625.03.438.109.915.149 1.362-2.218 0-2.963 3.78-2.337 7.828.865 5.56 4.317 10.373 7.151 11.378 2.288 5.381 5.232 10.125 8.723 13.039v5.281h-1.642c-14.014 0-34.92 19.245-35.397 33.289h-.04v.637c0 .1-.01.188-.01.288h.01V128h110.549v-15.575l.001-.248z" fill="#006ca2"/></g></svg>