<svg id="レイヤー_1" xmlns="http://www.w3.org/2000/svg" xmlns:xlink="http://www.w3.org/1999/xlink" viewBox="0 0 128 128"><g id="XMLID_2140_"><defs><path id="XMLID_2110_" d="M0 0h128v128H0z"/></defs><clipPath id="XMLID_31_"><use xlink:href="#XMLID_2110_" overflow="visible"/></clipPath><g id="XMLID_2111_" clip-path="url(#XMLID_31_)"><g><path id="XMLID_253_" d="M59.054 132.285c3.001-27.981 3.002-61.39 3.002-61.39h-87.285s.001 35.234 3.722 61.39h80.561z" fill="#6d4c41"/><ellipse id="XMLID_2240_" cx="18.537" cy="70.64" rx="43.643" ry="39.234" fill="#6d4c41"/><path id="XMLID_1793_" d="M23.198 123.299c18.161-.081 28.96-12.142 29.864-31.485V69.68c0-17.519-14.202-31.721-31.721-31.721h-1.159C2.663 37.958-11.54 52.16-11.54 69.68v20.976c0 18.159 17.807 32.718 34.738 32.643z" fill="#fcc21b"/><g id="XMLID_737_"><defs><path id="XMLID_746_" d="M22.5 123.294c19.637.137 29.781-12.946 30.562-31.48V69.68c0-17.519-14.202-31.721-31.721-31.721h-1.159C2.663 37.958-11.54 52.16-11.54 69.68v20.976c0 18.159 18.094 32.526 34.04 32.638z"/></defs><clipPath id="XMLID_32_"><use xlink:href="#XMLID_746_" overflow="visible"/></clipPath><g id="XMLID_1763_" opacity=".6" clip-path="url(#XMLID_32_)"><path id="XMLID_4_" d="M56.224 115.695c-5.969 2.285-12.553-.932-14.723-7.195-2.166-6.255.901-13.192 6.865-15.477 5.952-2.272 12.553.953 14.731 7.208 2.162 6.269-.917 13.192-6.873 15.464z" fill="#fcc21b"/><path d="M56.062 115.227c-5.722 2.191-12.035-.893-14.115-6.898-2.076-5.997.863-12.647 6.582-14.837 5.706-2.179 12.035.914 14.122 6.911 2.072 6.009-.879 12.646-6.589 14.824z" fill="#fcbf1b"/><path d="M55.9 114.759c-5.476 2.097-11.517-.855-13.507-6.601-1.987-5.739.826-12.102 6.298-14.198 5.461-2.085 11.516.875 13.514 6.613 1.983 5.75-.841 12.102-6.305 14.186z" fill="#fbbc1b"/><path d="M55.737 114.292c-5.229 2.002-10.998-.816-12.899-6.304-1.897-5.481.789-11.557 6.015-13.559 5.215-1.991 10.998.835 12.906 6.315 1.893 5.491-.803 11.557-6.022 13.548z" fill="#fbb91c"/><path d="M55.575 113.824c-4.983 1.908-10.48-.778-12.291-6.007-1.808-5.222.752-11.012 5.731-12.92 4.969-1.897 10.48.796 12.297 6.018 1.805 5.232-.765 11.012-5.737 12.909z" fill="#fab61c"/><path d="M55.413 113.356c-4.736 1.813-9.962-.74-11.683-5.71-1.718-4.964.715-10.467 5.448-12.281 4.723-1.803 9.961.756 11.689 5.72 1.715 4.974-.728 10.468-5.454 12.271z" fill="#fab31c"/><path d="M55.251 112.888c-4.49 1.719-9.443-.701-11.075-5.413-1.629-4.706.677-9.923 5.164-11.641 4.477-1.71 9.443.717 11.081 5.422 1.625 4.714-.69 9.923-5.17 11.632z" fill="#faaf1c"/><path d="M55.089 112.42c-4.243 1.624-8.925-.663-10.467-5.116-1.539-4.447.64-9.378 4.881-11.002 4.231-1.616 8.924.677 10.472 5.124 1.536 4.456-.652 9.378-4.886 10.994z" fill="#f9ac1d"/><path d="M54.926 111.952c-3.997 1.53-8.407-.625-9.859-4.819-1.45-4.189.603-8.833 4.597-10.363 3.986-1.522 8.406.638 9.864 4.827 1.447 4.197-.614 8.833-4.602 10.355z" fill="#f9a91d"/><path d="M54.764 111.484c-3.75 1.435-7.888-.586-9.251-4.522-1.36-3.931.566-8.288 4.314-9.724 3.74-1.428 7.887.599 9.256 4.529 1.357 3.939-.577 8.289-4.319 9.717z" fill="#f9a61d"/><path d="M54.602 111.016c-3.504 1.341-7.37-.548-8.643-4.225-1.271-3.673.529-7.743 4.03-9.085 3.494-1.334 7.369.559 8.647 4.231 1.269 3.68-.538 7.745-4.034 9.079z" fill="#f8a31d"/><path d="M54.44 110.548c-3.257 1.246-6.852-.509-8.035-3.928-1.182-3.414.491-7.198 3.747-8.445 3.248-1.24 6.85.52 8.039 3.934 1.178 3.42-.501 7.199-3.751 8.439z" fill="#f8a01e"/><path d="M54.278 110.08c-3.011 1.152-6.333-.471-7.427-3.63-1.092-3.156.454-6.654 3.463-7.806 3.002-1.147 6.332.48 7.431 3.636 1.089 3.161-.464 6.654-3.467 7.8z" fill="#f79d1e"/><path d="M54.115 109.612c-2.764 1.058-5.815-.433-6.819-3.333-1.003-2.898.417-6.109 3.18-7.167 2.756-1.053 5.813.441 6.822 3.338 1.001 2.903-.425 6.11-3.183 7.162z" fill="#f79a1e"/><path d="M53.953 109.144c-2.518.963-5.297-.394-6.211-3.036-.913-2.639.38-5.564 2.896-6.528 2.51-.959 5.295.401 6.214 3.041.911 2.643-.387 5.565-2.899 6.523z" fill="#f7971e"/><path d="M53.791 108.676c-2.271.869-4.778-.356-5.603-2.739-.824-2.381.343-5.019 2.613-5.889 2.265-.865 4.776.362 5.606 2.743.821 2.385-.35 5.02-2.616 5.885z" fill="#f6941f"/><path d="M53.629 108.208c-2.025.774-4.26-.318-4.995-2.442-.734-2.123.306-4.474 2.329-5.249 2.019-.771 4.258.323 4.997 2.445.732 2.126-.311 4.475-2.331 5.246z" fill="#f6901f"/><path d="M53.467 107.741c-1.778.68-3.742-.279-4.387-2.145-.645-1.865.268-3.929 2.046-4.61 1.773-.677 3.739.283 4.389 2.147.642 1.867-.275 3.93-2.048 4.608z" fill="#f68d1f"/><path d="M53.305 107.273c-1.532.585-3.223-.241-3.779-1.848-.555-1.606.231-3.384 1.762-3.971 1.527-.584 3.221.244 3.781 1.85.553 1.607-.237 3.385-1.764 3.969z" fill="#f58a1f"/><path d="M53.142 106.805c-1.285.491-2.705-.202-3.171-1.551-.466-1.348.194-2.84 1.479-3.332 1.281-.49 2.703.204 3.172 1.552.464 1.349-.198 2.841-1.48 3.331z" fill="#f58720"/><path d="M52.98 106.337c-1.039.396-2.187-.164-2.563-1.254-.377-1.09.157-2.295 1.196-2.693 1.035-.396 2.186.164 2.564 1.254.376 1.09-.161 2.297-1.197 2.693z" fill="#f48420"/><path id="XMLID_3_" d="M52.818 105.869c-.792.302-1.668-.126-1.956-.957-.287-.831.12-1.75.912-2.053.789-.302 1.666.125 1.956.957.286.831-.123 1.751-.912 2.053z" fill="#f48120"/></g><g id="XMLID_747_" opacity=".6" clip-path="url(#XMLID_32_)"><path id="XMLID_2_" d="M11.908 116.667c-6.743 2.429-14.183-.99-16.634-7.647C-7.173 102.372-3.709 95 3.03 92.571c6.725-2.415 14.183 1.013 16.643 7.661 2.442 6.662-1.036 14.02-7.765 16.435z" fill="#fcc21b"/><path d="M11.71 116.17c-6.465 2.329-13.597-.949-15.947-7.332-2.346-6.374.975-13.441 7.436-15.769 6.447-2.316 13.597.971 15.955 7.345 2.341 6.386-.993 13.441-7.444 15.756z" fill="#fcbf1b"/><path d="M11.511 115.672c-6.186 2.228-13.011-.909-15.26-7.016-2.245-6.099.933-12.862 7.115-15.09 6.169-2.216 13.011.929 15.268 7.028 2.241 6.112-.949 12.863-7.123 15.078z" fill="#fbbc1b"/><path d="M11.313 115.175c-5.908 2.128-12.426-.868-14.573-6.7-2.143-5.825.891-12.283 6.795-14.411 5.892-2.116 12.425.887 14.581 6.712 2.139 5.837-.908 12.283-6.803 14.399z" fill="#fbb91c"/><path d="M11.115 114.678c-5.629 2.028-11.84-.827-13.886-6.384-2.042-5.55.849-11.704 6.475-13.731 5.614-2.016 11.84.846 13.893 6.395 2.038 5.561-.865 11.704-6.482 13.72z" fill="#fab61c"/><path d="M10.916 114.18c-5.351 1.927-11.255-.786-13.199-6.069-1.941-5.276.807-11.125 6.155-13.052 5.336-1.917 11.254.804 13.206 6.079 1.937 5.287-.822 11.126-6.162 13.042z" fill="#fab31c"/><path d="M10.718 113.683c-5.072 1.827-10.669-.745-12.512-5.753-1.84-5.001.765-10.546 5.834-12.373 5.058-1.817 10.668.762 12.519 5.763 1.836 5.011-.78 10.547-5.841 12.363z" fill="#faaf1c"/><path d="M10.519 113.186c-4.794 1.726-10.083-.705-11.826-5.437-1.739-4.727.723-9.967 5.514-11.693 4.781-1.717 10.082.72 11.832 5.446 1.736 4.735-.736 9.967-5.52 11.684z" fill="#f9ac1d"/><path d="M10.321 112.688c-4.515 1.626-9.498-.664-11.139-5.121-1.638-4.452.681-9.388 5.194-11.014 4.503-1.617 9.497.678 11.144 5.13 1.635 4.461-.693 9.388-5.199 11.005z" fill="#f9a91d"/><path d="M10.123 112.191c-4.237 1.526-8.912-.623-10.452-4.806-1.537-4.178.639-8.809 4.874-10.335 4.225-1.518 8.911.636 10.457 4.813 1.533 4.187-.652 8.811-4.879 10.328z" fill="#f9a61d"/><path d="M9.924 111.694c-3.959 1.425-8.327-.582-9.765-4.49-1.436-3.903.597-8.23 4.553-9.655 3.947-1.418 8.325.594 9.77 4.497 1.433 3.91-.608 8.23-4.558 9.648z" fill="#f8a31d"/><path d="M9.726 111.197c-3.68 1.325-7.741-.541-9.078-4.174-1.335-3.629.555-7.651 4.233-8.976 3.669-1.318 7.739.552 9.082 4.181 1.332 3.634-.566 7.651-4.237 8.969z" fill="#f8a01e"/><path d="M9.527 110.699c-3.402 1.224-7.155-.501-8.391-3.858-1.234-3.354.513-7.071 3.913-8.296 3.392-1.219 7.154.51 8.395 3.864 1.231 3.36-.523 7.072-3.917 8.29z" fill="#f79d1e"/><path d="M9.329 110.202c-3.123 1.124-6.57-.46-7.704-3.543-1.133-3.08.471-6.492 3.593-7.617 3.114-1.119 6.568.469 7.708 3.548 1.129 3.085-.481 6.493-3.597 7.612z" fill="#f79a1e"/><path d="M9.131 109.705c-2.845 1.024-5.984-.419-7.017-3.227-1.032-2.805.429-5.913 3.272-6.938 2.836-1.019 5.982.427 7.02 3.232 1.029 2.809-.438 5.914-3.275 6.933z" fill="#f7971e"/><path d="M8.932 109.207c-2.566.923-5.399-.378-6.331-2.911-.931-2.531.387-5.334 2.952-6.258 2.558-.919 5.396.385 6.333 2.915.929 2.534-.394 5.335-2.954 6.254z" fill="#f6941f"/><path d="M8.734 108.71c-2.288.823-4.813-.337-5.644-2.595-.83-2.256.345-4.755 2.632-5.579 2.281-.82 4.811.343 5.646 2.599.827 2.258-.352 4.755-2.634 5.575z" fill="#f6901f"/><path d="M8.535 108.213c-2.009.722-4.227-.297-4.957-2.28-.729-1.982.303-4.176 2.311-4.9 2.003-.72 4.225.301 4.959 2.282.727 1.985-.309 4.178-2.313 4.898z" fill="#f68d1f"/><path d="M8.337 107.715c-1.731.622-3.642-.256-4.27-1.964-.628-1.707.261-3.597 1.991-4.22 1.725-.62 3.639.259 4.271 1.966.626 1.709-.266 3.598-1.992 4.218z" fill="#f58a1f"/><path d="M8.139 107.218c-1.452.522-3.056-.215-3.583-1.648a2.755 2.755 0 0 1 1.671-3.541c1.447-.52 3.056.216 3.584 1.65.527 1.432-.224 3.019-1.672 3.539z" fill="#f58720"/><path d="M7.94 106.721c-1.174.421-2.471-.174-2.896-1.333a2.227 2.227 0 0 1 1.351-2.862c1.17-.421 2.47.174 2.897 1.333a2.23 2.23 0 0 1-1.352 2.862z" fill="#f48420"/><path id="XMLID_1_" d="M7.742 106.223a1.728 1.728 0 0 1-2.209-1.017 1.697 1.697 0 0 1 1.03-2.182 1.73 1.73 0 0 1 2.209 1.017 1.7 1.7 0 0 1-1.03 2.182z" fill="#f48120"/></g></g><path id="XMLID_378_" d="M25.81 71.015c5.908 1.786 16.132 3.927 20.677 6.052 4.144 1.938 6.606 6.515 6.606 11.09v23.318l5.705-11.31 1.931-37.76-16.945-20.256-18.322-5.226H-.468l-19.713 22.042-.33 55.664 5.989 1.743-2.114-28.526c0-4.346 1.559 3.339 5.227 1.008C-7.966 86.666 5.5 75.441 8.969 65.035c.746-2.238 1.458-1.667 3-.531 2.443 1.8 7.44 4.576 13.841 6.511z" fill="#6d4c41"/><path id="XMLID_1387_" d="M26.148 94.234c1.412.555 2.38.643 3.512.643 1.132 0 2.098-.088 3.51-.643.604-.238 1.255.347 1.123.902-.43 1.808-2.251 3.303-4.633 3.303s-4.259-1.559-4.633-3.303c-.12-.558.517-1.14 1.121-.902z" fill="#e48c15"/><path id="XMLID_307_" d="M45.401 84.57c.367.05.636.968.318 2.581-.385 1.953-1.74 3.425-2.974 4.035-1.54.761-4.6 1.285-7.032-.415-2.794-1.952-1.971-3.568-.961-3.198 1.028.377 2.892.779 4.426.681 1.594-.103 3.321-.873 4.433-1.892.816-.749 1.392-1.847 1.79-1.792z" fill="#444"/><path id="XMLID_305_" d="M22.455 84.714c.366.059.611.984.253 2.588-.434 1.943-1.826 3.38-3.075 3.958-1.559.722-4.631 1.169-7.02-.592-2.743-2.022-1.88-3.617-.88-3.221 1.018.403 2.871.852 4.408.792 1.596-.062 3.342-.789 4.48-1.78.834-.727 1.438-1.809 1.834-1.745z" fill="#444"/><g id="XMLID_323_"><path id="XMLID_324_" d="M30.345 103.44c.258.304.851.38 1.448.449.99.114 2.405.141 3.052 1.021.517.72.429 1.78.01 2.417-.635.968-1.756.862-2.807 1.255-.268.097-.425.402-.391.669a.472.472 0 0 0 .131.287c.346.33.881.333 1.334.369.457.036 1.1.124 1.483.483.694.649.657 1.605.13 2.271-.708.896-2.37 1.144-3.151 1.75-.409.324-.938.792-.766 1.548.198.872 1.567 1.177 2.594.085.951-1.011 2.66-1.52 3.345-2.733.719-1.264.469-2.554-.34-3.77-.383-.592.284-1.436.509-2.226.208-.728.232-1.415.024-2.148-.589-2.304-2.969-2.333-4.836-3.093-.429-.172-1.049-.219-1.518.013-.4.197-.659.871-.251 1.353z" fill="#444"/></g></g><g><path id="XMLID_29_" d="M68.947 132.285c-3.001-27.981-3.002-61.39-3.002-61.39h87.285s-.001 35.234-3.722 61.39H68.947z" fill="#6d4c41"/><ellipse id="XMLID_28_" cx="109.464" cy="70.64" rx="43.643" ry="39.234" fill="#6d4c41"/><path id="XMLID_27_" d="M104.803 123.299c-18.161-.081-28.96-12.142-29.864-31.485V69.68c0-17.519 14.202-31.721 31.721-31.721h1.159c17.519 0 31.721 14.202 31.721 31.721v20.976c.001 18.159-17.805 32.718-34.737 32.643z" fill="#fcc21b"/><g id="XMLID_11_"><defs><path id="XMLID_12_" d="M105.502 123.294c-19.637.137-29.781-12.946-30.562-31.48V69.68c0-17.519 14.202-31.721 31.721-31.721h1.159c17.519 0 31.721 14.202 31.721 31.721v20.976c0 18.159-18.094 32.526-34.039 32.638z"/></defs><clipPath id="XMLID_33_"><use xlink:href="#XMLID_12_" overflow="visible"/></clipPath><g id="XMLID_20_" opacity=".6" clip-path="url(#XMLID_33_)"><path id="XMLID_26_" d="M71.777 115.695c5.969 2.285 12.553-.932 14.723-7.195 2.166-6.255-.901-13.192-6.865-15.477-5.952-2.272-12.553.953-14.731 7.208-2.161 6.269.917 13.192 6.873 15.464z" fill="#fcc21b"/><path d="M71.94 115.227c5.722 2.191 12.035-.893 14.115-6.898 2.076-5.997-.863-12.647-6.582-14.837-5.706-2.179-12.035.914-14.122 6.911-2.073 6.009.878 12.646 6.589 14.824z" fill="#fcbf1b"/><path d="M72.102 114.759c5.476 2.097 11.517-.855 13.507-6.601 1.987-5.739-.826-12.102-6.298-14.198-5.461-2.085-11.516.875-13.514 6.613-1.983 5.75.841 12.102 6.305 14.186z" fill="#fbbc1b"/><path d="M72.264 114.292c5.229 2.002 10.998-.816 12.899-6.304 1.897-5.481-.789-11.557-6.015-13.559-5.215-1.991-10.998.835-12.906 6.315-1.893 5.491.804 11.557 6.022 13.548z" fill="#fbb91c"/><path d="M72.426 113.824c4.983 1.908 10.48-.778 12.291-6.007 1.808-5.222-.752-11.012-5.731-12.92-4.969-1.897-10.48.796-12.297 6.018-1.805 5.232.765 11.012 5.737 12.909z" fill="#fab61c"/><path d="M72.588 113.356c4.736 1.813 9.962-.74 11.683-5.71 1.718-4.964-.715-10.467-5.448-12.281-4.723-1.803-9.961.756-11.689 5.72-1.714 4.974.728 10.468 5.454 12.271z" fill="#fab31c"/><path d="M72.751 112.888c4.49 1.719 9.443-.701 11.075-5.413 1.629-4.706-.677-9.923-5.164-11.641-4.477-1.71-9.443.717-11.081 5.422-1.626 4.714.69 9.923 5.17 11.632z" fill="#faaf1c"/><path d="M72.913 112.42c4.243 1.624 8.925-.663 10.467-5.116 1.539-4.447-.64-9.378-4.881-11.002-4.231-1.616-8.924.677-10.472 5.124-1.536 4.456.652 9.378 4.886 10.994z" fill="#f9ac1d"/><path d="M73.075 111.952c3.997 1.53 8.407-.625 9.859-4.819 1.45-4.189-.603-8.833-4.597-10.363-3.986-1.522-8.406.638-9.864 4.827-1.447 4.197.614 8.833 4.602 10.355z" fill="#f9a91d"/><path d="M73.237 111.484c3.75 1.435 7.888-.586 9.251-4.522 1.36-3.931-.566-8.288-4.314-9.724-3.74-1.428-7.887.599-9.256 4.529-1.357 3.939.577 8.289 4.319 9.717z" fill="#f9a61d"/><path d="M73.399 111.016c3.504 1.341 7.37-.548 8.643-4.225 1.271-3.673-.529-7.743-4.03-9.085-3.494-1.334-7.369.559-8.647 4.231-1.268 3.68.538 7.745 4.034 9.079z" fill="#f8a31d"/><path d="M73.562 110.548c3.257 1.246 6.852-.509 8.035-3.928 1.182-3.414-.491-7.198-3.747-8.445-3.248-1.24-6.85.52-8.039 3.934-1.179 3.42.501 7.199 3.751 8.439z" fill="#f8a01e"/><path d="M73.724 110.08c3.011 1.152 6.333-.471 7.427-3.63 1.092-3.156-.454-6.654-3.463-7.806-3.002-1.147-6.332.48-7.431 3.636-1.09 3.161.463 6.654 3.467 7.8z" fill="#f79d1e"/><path d="M73.886 109.612c2.764 1.058 5.815-.433 6.819-3.333 1.003-2.898-.417-6.109-3.18-7.167-2.756-1.053-5.813.441-6.822 3.338-1 2.903.425 6.11 3.183 7.162z" fill="#f79a1e"/><path d="M74.048 109.144c2.518.963 5.297-.394 6.211-3.036.913-2.639-.38-5.564-2.896-6.528-2.51-.959-5.295.401-6.214 3.041-.911 2.643.387 5.565 2.899 6.523z" fill="#f7971e"/><path d="M74.21 108.676c2.271.869 4.778-.356 5.603-2.739.824-2.381-.343-5.019-2.613-5.889-2.265-.865-4.776.362-5.606 2.743-.82 2.385.351 5.02 2.616 5.885z" fill="#f6941f"/><path d="M74.373 108.208c2.025.774 4.26-.318 4.995-2.442.734-2.123-.306-4.474-2.329-5.249-2.019-.771-4.258.323-4.997 2.445-.733 2.126.311 4.475 2.331 5.246z" fill="#f6901f"/><path d="M74.535 107.741c1.778.68 3.742-.279 4.387-2.145.645-1.865-.268-3.929-2.046-4.61-1.773-.677-3.739.283-4.389 2.147-.643 1.867.274 3.93 2.048 4.608z" fill="#f68d1f"/><path d="M74.697 107.273c1.532.585 3.223-.241 3.779-1.848.555-1.606-.231-3.384-1.762-3.971-1.527-.584-3.221.244-3.781 1.85-.553 1.607.236 3.385 1.764 3.969z" fill="#f58a1f"/><path d="M74.859 106.805c1.285.491 2.705-.202 3.171-1.551.466-1.348-.194-2.84-1.479-3.332-1.281-.49-2.703.204-3.172 1.552-.464 1.349.199 2.841 1.48 3.331z" fill="#f58720"/><path d="M75.021 106.337c1.039.396 2.187-.164 2.563-1.254.377-1.09-.157-2.295-1.196-2.693-1.035-.396-2.186.164-2.564 1.254-.376 1.09.162 2.297 1.197 2.693z" fill="#f48420"/><path id="XMLID_25_" d="M75.183 105.869c.792.302 1.668-.126 1.956-.957.287-.831-.12-1.75-.912-2.053-.789-.302-1.666.125-1.956.957-.285.831.123 1.751.912 2.053z" fill="#f48120"/></g><g id="XMLID_13_" opacity=".6" clip-path="url(#XMLID_33_)"><path id="XMLID_19_" d="M116.093 116.667c6.743 2.429 14.183-.99 16.634-7.647 2.447-6.648-1.017-14.02-7.756-16.449-6.725-2.415-14.183 1.013-16.643 7.661-2.442 6.662 1.036 14.02 7.765 16.435z" fill="#fcc21b"/><path d="M116.292 116.17c6.465 2.329 13.597-.949 15.947-7.332 2.346-6.374-.975-13.441-7.436-15.769-6.447-2.316-13.597.971-15.955 7.345-2.342 6.386.992 13.441 7.444 15.756z" fill="#fcbf1b"/><path d="M116.49 115.672c6.186 2.228 13.011-.909 15.26-7.016 2.245-6.099-.933-12.862-7.115-15.09-6.169-2.216-13.011.929-15.268 7.028-2.241 6.112.95 12.863 7.123 15.078z" fill="#fbbc1b"/><path d="M116.689 115.175c5.908 2.128 12.426-.868 14.573-6.7 2.143-5.825-.891-12.283-6.795-14.411-5.892-2.116-12.425.887-14.581 6.712-2.14 5.837.907 12.283 6.803 14.399z" fill="#fbb91c"/><path d="M116.887 114.678c5.629 2.028 11.84-.827 13.886-6.384 2.042-5.55-.849-11.704-6.475-13.731-5.614-2.016-11.84.846-13.893 6.395-2.039 5.561.864 11.704 6.482 13.72z" fill="#fab61c"/><path d="M117.085 114.18c5.351 1.927 11.255-.786 13.199-6.069 1.941-5.276-.807-11.125-6.155-13.052-5.336-1.917-11.254.804-13.206 6.079-1.937 5.287.823 11.126 6.162 13.042z" fill="#fab31c"/><path d="M117.284 113.683c5.072 1.827 10.669-.745 12.512-5.753 1.84-5.001-.765-10.546-5.834-12.373-5.058-1.817-10.668.762-12.519 5.763-1.837 5.011.779 10.547 5.841 12.363z" fill="#faaf1c"/><path d="M117.482 113.186c4.794 1.726 10.083-.705 11.826-5.437 1.739-4.727-.723-9.967-5.514-11.693-4.781-1.717-10.082.72-11.832 5.446-1.736 4.735.736 9.967 5.52 11.684z" fill="#f9ac1d"/><path d="M117.68 112.688c4.515 1.626 9.498-.664 11.139-5.121 1.638-4.452-.681-9.388-5.194-11.014-4.503-1.617-9.497.678-11.144 5.13-1.635 4.461.694 9.388 5.199 11.005z" fill="#f9a91d"/><path d="M117.879 112.191c4.237 1.526 8.912-.623 10.452-4.806 1.537-4.178-.639-8.809-4.874-10.335-4.225-1.518-8.911.636-10.457 4.813-1.534 4.187.651 8.811 4.879 10.328z" fill="#f9a61d"/><path d="M118.077 111.694c3.959 1.425 8.327-.582 9.765-4.49 1.436-3.903-.597-8.23-4.553-9.655-3.947-1.418-8.325.594-9.77 4.497-1.433 3.91.609 8.23 4.558 9.648z" fill="#f8a31d"/><path d="M118.276 111.197c3.68 1.325 7.741-.541 9.078-4.174 1.335-3.629-.555-7.651-4.233-8.976-3.669-1.318-7.739.552-9.082 4.181-1.333 3.634.565 7.651 4.237 8.969z" fill="#f8a01e"/><path d="M118.474 110.699c3.402 1.224 7.155-.501 8.391-3.858 1.234-3.354-.513-7.071-3.913-8.296-3.392-1.219-7.154.51-8.395 3.864-1.231 3.36.523 7.072 3.917 8.29z" fill="#f79d1e"/><path d="M118.672 110.202c3.123 1.124 6.57-.46 7.704-3.543 1.133-3.08-.471-6.492-3.593-7.617-3.114-1.119-6.568.469-7.708 3.548-1.129 3.085.482 6.493 3.597 7.612z" fill="#f79a1e"/><path d="M118.871 109.705c2.845 1.024 5.984-.419 7.017-3.227 1.032-2.805-.429-5.913-3.272-6.938-2.836-1.019-5.982.427-7.02 3.232-1.03 2.809.437 5.914 3.275 6.933z" fill="#f7971e"/><path d="M119.069 109.207c2.566.923 5.399-.378 6.331-2.911.931-2.531-.387-5.334-2.952-6.258-2.558-.919-5.396.385-6.333 2.915-.929 2.534.394 5.335 2.954 6.254z" fill="#f6941f"/><path d="M119.268 108.71c2.288.823 4.813-.337 5.644-2.595.83-2.256-.345-4.755-2.632-5.579-2.281-.82-4.811.343-5.646 2.599-.828 2.258.352 4.755 2.634 5.575z" fill="#f6901f"/><path d="M119.466 108.213c2.009.722 4.227-.297 4.957-2.28.729-1.982-.303-4.176-2.311-4.9-2.003-.72-4.225.301-4.959 2.282-.727 1.985.309 4.178 2.313 4.898z" fill="#f68d1f"/><path d="M119.664 107.715c1.731.622 3.642-.256 4.27-1.964.627-1.707-.261-3.597-1.991-4.22-1.725-.62-3.639.259-4.271 1.966-.626 1.709.266 3.598 1.992 4.218z" fill="#f58a1f"/><path d="M119.863 107.218c1.452.522 3.056-.215 3.583-1.648a2.755 2.755 0 0 0-1.671-3.541c-1.447-.52-3.056.216-3.584 1.65-.528 1.432.224 3.019 1.672 3.539z" fill="#f58720"/><path d="M120.061 106.721c1.174.421 2.471-.174 2.896-1.333a2.227 2.227 0 0 0-1.351-2.862c-1.17-.421-2.47.174-2.897 1.333a2.23 2.23 0 0 0 1.352 2.862z" fill="#f48420"/><path id="XMLID_18_" d="M120.259 106.223a1.728 1.728 0 0 0 2.209-1.017 1.697 1.697 0 0 0-1.03-2.182 1.73 1.73 0 0 0-2.209 1.017 1.702 1.702 0 0 0 1.03 2.182z" fill="#f48120"/></g></g><path id="XMLID_10_" d="M102.191 71.015c-5.908 1.786-16.132 3.927-20.676 6.052-4.144 1.938-6.606 6.515-6.606 11.09v23.318l-5.705-11.31-1.931-37.76 16.945-20.256 18.322-5.226h25.93l19.713 22.042.33 55.664-5.989 1.743 2.114-28.526c0-4.346-1.559 3.339-5.227 1.008-3.443-2.188-16.909-13.413-20.378-23.819-.746-2.238-1.458-1.667-3-.531-2.444 1.8-7.44 4.576-13.842 6.511z" fill="#6d4c41"/><path id="XMLID_9_" d="M101.853 94.234c-1.412.555-2.38.643-3.512.643s-2.098-.088-3.51-.643c-.604-.238-1.255.347-1.123.902.43 1.808 2.251 3.303 4.633 3.303s4.259-1.559 4.633-3.303c.121-.558-.517-1.14-1.121-.902z" fill="#e48c15"/><path id="XMLID_8_" d="M82.601 84.57c-.367.05-.636.968-.318 2.581.385 1.953 1.74 3.425 2.974 4.035 1.54.761 4.6 1.285 7.032-.415 2.794-1.952 1.971-3.568.961-3.198-1.028.377-2.892.779-4.426.681-1.594-.103-3.321-.873-4.433-1.892-.817-.749-1.393-1.847-1.79-1.792z" fill="#444"/><path id="XMLID_7_" d="M105.547 84.714c-.366.059-.611.984-.253 2.588.434 1.943 1.826 3.38 3.075 3.958 1.559.722 4.631 1.169 7.02-.592 2.743-2.022 1.88-3.617.88-3.221-1.018.403-2.871.852-4.408.792-1.596-.062-3.342-.789-4.48-1.78-.835-.727-1.438-1.809-1.834-1.745z" fill="#444"/><g id="XMLID_5_"><path id="XMLID_6_" d="M97.656 103.44c-.258.304-.851.38-1.448.449-.99.114-2.405.141-3.052 1.021-.517.72-.429 1.78-.01 2.417.635.968 1.756.862 2.807 1.255.268.097.425.402.391.669a.472.472 0 0 1-.131.287c-.346.33-.881.333-1.334.369-.457.036-1.1.124-1.483.483-.694.649-.657 1.605-.13 2.271.708.896 2.37 1.144 3.151 1.75.409.324.938.792.766 1.548-.198.872-1.567 1.177-2.594.085-.951-1.011-2.66-1.52-3.345-2.733-.719-1.264-.469-2.554.34-3.77.383-.592-.284-1.436-.509-2.226-.208-.728-.232-1.415-.024-2.148.589-2.304 2.969-2.333 4.836-3.093.429-.172 1.049-.219 1.518.013.4.197.66.871.251 1.353z" fill="#444"/></g></g><g id="XMLID_373_"><path id="XMLID_376_" d="M34.353 34.885c5.876 8.746 16.347 17.822 23.895 24.866.806.753 1.604 1.559 2.418 2.32.874.806 1.929 2.652 3.33 2.735 1.409-.083 2.456-1.929 3.33-2.735.821-.761 1.62-1.567 2.426-2.32 7.548-7.044 18.019-16.12 23.887-24.866 1.763-2.614 3.051-5.424 3.578-8.527.52-3.119.497-7.594-.776-10.561-3.005-7.014-8.128-11.029-15.164-10.991-.264.008-.52.008-.784.015-2.757.045-5.431.663-7.962 1.718-2.712 1.137-4.573 2.848-6.976 4.377-.911.58-2.207.572-3.111 0-2.411-1.529-4.264-3.239-6.976-4.377-2.531-1.055-5.205-1.673-7.962-1.718-.256-.007-.527-.007-.783-.015-7.044-.038-12.166 3.977-15.164 10.991-1.273 2.968-1.296 7.443-.776 10.561.519 3.104 1.823 5.914 3.57 8.527z" fill="#f06292"/></g></g></g></svg>