<svg id="レイヤー_1" xmlns="http://www.w3.org/2000/svg" viewBox="0 0 128 128"><g fill="#006ca2"><path d="M77.974 57.336c3.281 2.804 8.227 2.466 10.947-.774 1.934-2.309 2.428-5.152 1.896-7.865-1.232-6.321-7.832-11.706-13.849-6.965-2.803 2.208-3.331 5.63-2.902 9.002.33 2.588 1.962 4.937 3.908 6.602z"/><path d="M96.546 53.504c6.289 1.945 8.482-7.832 4.41-11.277-1.195-1.015-2.349-1.303-3.388-1.105-3.314.626-5.465 6.232-4.06 9.48.582 1.344 1.624 2.464 3.038 2.902z"/><path d="M114.369 47.321c-1.641-2.738-5.194-2.342-7.304-.594-2.638 2.176-2.889 6.965-.561 9.339 4.666 4.765 10.486-4.368 7.865-8.745z"/><path d="M119.727 54.081c-2.098-.101-3.969 1.64-5.115 3.189-1.06 1.434-1.834 3.19-1.097 4.88.33.75.738 1.121 1.496 1.41 6.719 2.555 11.67-9.141 4.716-9.479z"/><path d="M121.565 65.249c-1.648 1.123-3.759 3.117-3.438 5.302.276 1.913 2.547 2.935 4.299 2.63 2.808-.503 4.959-1.913 4.926-4.986-.033-3.126-3.264-4.651-5.787-2.946z"/><path d="M88.088 60.758c-7.967 4.327-10.98 14.328-8.635 22.752.767 2.753 1.505 5.722-.194 8.293-1.442 2.192-3.998 3.569-6.084 5.054-2.951 2.094-6.599 3.618-8.903 6.488-3.017 3.759-3.85 10.362-1.558 14.549 1.179 2.152 4.459 4.236 6.71 5.012 2.758.94 5.771.718 8.565.058 6.364-1.499 11.533-5.647 16.191-10.016 4.88-4.582 9.62-9.537 13.466-15.044 6.599-9.432 11.495-22.364 3.396-32.513-4.612-5.787-16.639-8.063-22.954-4.633z"/><path d="M63.37 16.935c-1.191-1.807-3.05-3.15-5.107-3.833-2.807-.941-5.981-.644-8.314 1.384-2.089 1.814-4.212 5.795-4.406 8.591-.214 3.008.544 6.503 2.894 8.531.998.865 2.284 1.368 3.512 1.401.47.075.952.115 1.438.075 2.886-.266 5.585-1.83 7.737-3.695 3.281-2.824 4.645-8.818 2.246-12.454z"/><path d="M39.967 22.31c3.919-1.666 5.84-7.412 4.323-10.957-.808-1.888-2.588-3.149-5.556-2.844-7.765.793-7.588 17.56 1.233 13.801z"/><path d="M22.041 21.164c7.852 6.611 12.398-9.941 4.311-12.374-3.128-.948-6.187 1.254-6.924 4.864a7.753 7.753 0 0 0 2.613 7.51z"/><path d="M17.56 25.863c2.774-2.63 1.57-7.296-1.195-9.579-1.41-1.171-3.227-1.715-5.128-1.055-.655.222-1.302 1.029-1.698 1.565-3.297 4.477 3.364 13.479 8.021 9.069z"/><path d="M1.959 25.384c-4.591 4.468 3.974 13.793 8.619 8.963 2.11-2.203.928-5.772-1.01-7.568-1.772-1.651-5.547-3.407-7.609-1.395z"/><path d="M49.302 74.343c-3.932-4.971-4.979-10.477-2.761-16.454 1.393-3.75 3.672-6.957 4.204-11.015C51.99 37.42 44.818 28.295 35.33 27.42c-2.787-.264-6.257-.204-8.969.562-4.319 1.219-9.278 3.8-11.862 7.574-3.73 5.449-2.918 12.695-1.871 18.845 1.034 6.06 2.366 12.028 4.682 17.741 3.516 8.662 7.716 18.441 14.237 25.314 1.669 1.757 3.594 3.315 5.754 4.437 3.689 1.912 7.988 2.836 12.048 1.615.643-.19 1.273-.438 1.875-.732 3.899-1.89 7.547-5.713 8.161-10.092.532-3.774-.907-7.006-3-9.949-2.136-3.009-4.964-5.713-7.083-8.392z"/></g></svg>