<svg id="レイヤー_1" xmlns="http://www.w3.org/2000/svg" xmlns:xlink="http://www.w3.org/1999/xlink" viewBox="0 0 128 128"><g id="XMLID_208_"><defs><path id="XMLID_869_" d="M0 0h128v128H0z"/></defs><clipPath id="XMLID_13_"><use xlink:href="#XMLID_869_" overflow="visible"/></clipPath><g clip-path="url(#XMLID_13_)"><path id="XMLID_897_" d="M139.811 101.862c-5.705-1.084-27.766-1.084-33.471 0-18.042 3.427-31.265 11.385-31.265 28.362v57.834l48 .012 48-.012v-57.834c0-16.977-13.223-24.935-31.264-28.362z" fill="#00bfa5"/><path id="XMLID_896_" d="M122.5 114.352c-6.081 0-10.5-4.93-10.5-11.011V93h21v10.341c0 6.081-4.419 11.011-10.5 11.011z" fill="#e59900"/><g id="XMLID_808_" fill="#e48c15"><path id="XMLID_814_" d="M90.146 55.967s-6.267 1.44-6.267 8.315c0 6.319 4.852 8.814 9.705 8.814V55.967h-3.438z"/></g><path id="XMLID_807_" d="M123.57 13.001c-26.255 0-33.125 20.353-33.125 48.944 0 29.647 19.056 37.314 33.125 37.314 13.863 0 33.125-7.446 33.125-37.314 0-28.591-6.87-48.944-33.125-48.944z" fill="#fcc21b"/><path id="XMLID_805_" d="M133.058 81.691h-9.488-9.488c-1.088 0-1.555.731-.836 1.827 1.007 1.534 4.745 4.483 10.324 4.483s9.317-2.949 10.324-4.483c.719-1.096.252-1.827-.836-1.827z" fill="#4c3734"/><path id="XMLID_804_" d="M128.153 74.217c-1.614.457-3.29.68-4.584.68-1.294 0-2.969-.223-4.584-.68-.69-.196-.962.459-.714.894.512.901 2.574 2.719 5.298 2.719s4.786-1.818 5.298-2.719c.248-.435-.023-1.09-.714-.894z" fill="#e48c15"/><path id="XMLID_801_" d="M112.773 63.815c0 2.922-1.955 5.291-4.378 5.291-2.42 0-4.388-2.369-4.388-5.291 0-2.93 1.968-5.298 4.388-5.298 2.423 0 4.378 2.369 4.378 5.298" fill="#444"/><path id="XMLID_799_" d="M85.986 58.517s-.011-8.439-.011-19.925c0-12.014 8.807-29.438 38.265-29.438 20.559 0 28.249 8.937 28.249 14.359 0 0 7.638 1.372 8.386 11.153.526 6.869-.15 23.388-.15 23.388s-.83-.739-1.767-1.165c-.499-.227-1.002-.334-1.002-.334l-1.383 9.428-10.227-19.797a.314.314 0 0 0-.318-.17l-4.144.491a157.737 157.737 0 0 1-35.956.13l-5.595-.621a.316.316 0 0 0-.321.18L90.57 65.92l-1.431-9.596s-.982.389-1.869 1.079c-.834.646-1.284 1.114-1.284 1.114z" fill="#6d4c41"/></g><g clip-path="url(#XMLID_13_)"><path id="XMLID_11_" d="M-11.66 101.862c5.705-1.084 27.766-1.084 33.471 0 18.042 3.427 31.265 11.385 31.265 28.362v57.834l-48 .012-48-.012v-57.834c-.001-16.977 13.222-24.935 31.264-28.362z" fill="#00bfa5"/><path id="XMLID_10_" d="M5.5 114.352c6.081 0 10.5-4.93 10.5-11.011V93H-5v10.341c0 6.081 4.419 11.011 10.5 11.011z" fill="#e59900"/><g id="XMLID_7_" fill="#e48c15"><path id="XMLID_8_" d="M38.005 55.967s6.267 1.44 6.267 8.315c0 6.319-4.852 8.814-9.705 8.814V55.967h3.438z"/></g><path id="XMLID_6_" d="M4.581 13.001c26.255 0 33.125 20.353 33.125 48.944 0 29.647-19.056 37.314-33.125 37.314-13.863 0-33.125-7.446-33.125-37.314-.001-28.591 6.87-48.944 33.125-48.944z" fill="#fcc21b"/><path id="XMLID_5_" d="M-4.908 81.691h18.976c1.088 0 1.555.731.836 1.827-1.007 1.534-4.745 4.483-10.324 4.483s-9.317-2.949-10.324-4.483c-.718-1.096-.251-1.827.836-1.827z" fill="#4c3734"/><path id="XMLID_4_" d="M-.003 74.217c1.614.457 3.29.68 4.584.68s2.969-.223 4.584-.68c.69-.196.962.459.714.894-.512.901-2.574 2.719-5.298 2.719s-4.786-1.818-5.298-2.719c-.247-.435.024-1.09.714-.894z" fill="#e48c15"/><path id="XMLID_3_" d="M15.377 63.815c0 2.922 1.955 5.291 4.378 5.291 2.42 0 4.388-2.369 4.388-5.291 0-2.93-1.968-5.298-4.388-5.298-2.423 0-4.378 2.369-4.378 5.298" fill="#444"/><path id="XMLID_1_" d="M42.165 58.517s.011-8.439.011-19.925c0-12.014-8.807-29.438-38.265-29.438-20.559 0-28.249 8.937-28.249 14.359 0 0-7.638 1.372-8.386 11.153-.526 6.869.15 23.388.15 23.388s.83-.739 1.767-1.165c.499-.227 1.002-.334 1.002-.334l1.383 9.428 10.227-19.797a.314.314 0 0 1 .318-.17l4.144.491a157.737 157.737 0 0 0 35.956.13l5.595-.621a.316.316 0 0 1 .321.18l9.442 19.724 1.431-9.596s.982.389 1.869 1.079c.834.646 1.284 1.114 1.284 1.114z" fill="#6d4c41"/></g><g id="XMLID_209_" clip-path="url(#XMLID_13_)"><path id="XMLID_842_" d="M33.365 40.872c6.072 9.038 16.892 18.416 24.692 25.694.833.778 1.658 1.611 2.498 2.397.903.833 1.993 2.74 3.441 2.826 1.455-.086 2.538-1.993 3.441-2.826.849-.786 1.674-1.619 2.507-2.397 7.8-7.278 18.619-16.657 24.684-25.694 1.822-2.701 3.153-5.604 3.698-8.812.537-3.223.514-7.847-.802-10.913-3.107-7.248-8.4-11.397-15.671-11.358-.273.008-.537.008-.81.016-2.849.047-5.612.685-8.228 1.775-2.802 1.175-4.725 2.943-7.208 4.523-.942.599-2.281.591-3.215 0-2.491-1.58-4.406-3.348-7.208-4.523-2.615-1.09-5.379-1.728-8.228-1.775-.265-.008-.545-.008-.809-.016-7.278-.039-12.571 4.11-15.67 11.357-1.315 3.067-1.339 7.691-.802 10.913.537 3.208 1.884 6.112 3.69 8.813z" fill="#f06292"/></g></g></svg>