<svg xmlns="http://www.w3.org/2000/svg" viewBox="0 0 128 128"><g id="图层_1"><g id="XMLID_1238_"><path id="XMLID_526_" d="M17.368 71.568l-.013-11.861c0-14.974 10.977-48.662 47.69-48.662 25.623 0 44.726 36.472 45.659 48.662l-.188 11.282s-1.034-.921-2.203-1.452c-.622-.283-1.249-.416-1.249-.416l-1.724 11.75-12.745-24.673a.392.392 0 0 0-.397-.212l-5.165.611a196.603 196.603 0 0 1-44.813.162l-6.973-.774a.393.393 0 0 0-.4.225L23.08 80.792l-1.783-11.959s-1.224.485-2.33 1.345c-1.038.807-1.599 1.39-1.599 1.39z" fill="#6d4c41"/><g id="XMLID_523_" fill="#e59600"><path id="XMLID_525_" d="M105.561 68.283s7.593 1.315 7.593 9.491c0 7.213-5.539 10.061-11.077 10.061V68.283h3.484z"/><path id="XMLID_524_" d="M22.747 68.283s-7.593 1.315-7.593 9.491c0 7.213 5.539 10.061 11.077 10.061V68.283h-3.484z"/></g><path id="XMLID_519_" d="M64.154 14.733c-32.722 0-41.285 25.366-41.285 61 0 36.95 23.75 46.505 41.285 46.505 17.277 0 41.285-9.28 41.285-46.505 0-35.634-8.563-61-41.285-61z" fill="#fcc21b"/><path id="XMLID_518_" d="M75.979 100.342H64.154 52.329c-1.356 0-1.938.911-1.042 2.276 1.255 1.912 5.914 5.587 12.867 5.587s11.612-3.676 12.867-5.587c.896-1.364.314-2.276-1.042-2.276z" fill="#4c3734"/><path id="XMLID_517_" d="M75.979 100.342H64.154 52.329c-1.356 0-1.938.911-1.042 2.276 1.255 1.912 5.914 5.587 12.867 5.587s11.612-3.676 12.867-5.587c.896-1.364.314-2.276-1.042-2.276z" fill="#513f35"/><path id="XMLID_516_" d="M69.867 90.29c-2.012.57-4.1.848-5.713.848-1.613 0-3.7-.278-5.713-.848-.861-.244-1.198.572-.89 1.114.638 1.123 3.209 3.389 6.603 3.389 3.394 0 5.964-2.266 6.603-3.389.308-.542-.03-1.357-.89-1.114z" fill="#e59600"/><path id="XMLID_515_" d="M50.698 78.063c0 3.642-2.437 6.594-5.456 6.594-3.016 0-5.468-2.952-5.468-6.594 0-3.651 2.453-6.603 5.468-6.603 3.019 0 5.456 2.952 5.456 6.603" fill="#444"/><path id="XMLID_514_" d="M77.603 78.063c0 3.642 2.441 6.594 5.468 6.594 3.012 0 5.464-2.952 5.464-6.594 0-3.651-2.452-6.603-5.464-6.603-3.028 0-5.468 2.952-5.468 6.603" fill="#444"/><path id="XMLID_512_" d="M22.869 78.059l-2.177-13.43s-4.728-51.77 44.585-51.77 41.636 54.022 41.636 54.022l-1.508 11.178-12.81-21.696s-24.345 1.958-55.963-.417L22.869 78.059z" fill="#6d4c41"/><path id="XMLID_1283_" d="M110.711 53.868c.035.005.068.019.103.026-.816-15.413-11.973-45.265-45.94-45.919 0 0-.639-.02-.915-.017a37.06 37.06 0 0 0-.915.017c-33.969.654-45.125 30.506-45.942 45.919.035-.006.068-.021.103-.026 30.871-4.588 62.636-4.588 93.506 0z" fill="#2a56c6"/><path id="XMLID_1265_" d="M42.15 53.02s10.058-1.639 21.808-1.639c11.759 0 21.808 1.639 21.808 1.639S84.607 7.957 63.958 7.957c-20.64 0-21.808 45.063-21.808 45.063z" fill="#e75625"/><circle id="XMLID_1256_" cx="63.958" cy="34.588" r="7.925" fill="#fbb817"/><path id="XMLID_1255_" d="M110.833 64.218a180.816 180.816 0 0 0-93.749 0c-1.684.45-3.032-.567-2.979-2.281.037-1.237.074-3.474.111-4.711.051-1.638 1.368-3.306 2.979-3.737 30.769-8.262 62.759-8.262 93.528 0 1.611.43 2.928 2.099 2.979 3.737.037 1.237.074 3.474.111 4.711.052 1.713-1.296 2.73-2.98 2.281z" fill="#444"/><path id="XMLID_1252_" d="M113.814 62.081c0 3.157-.231 5.688-3.262 6.404l.01-4.716 3.252-1.688z" fill="#444"/><path id="XMLID_203_" d="M14.103 62.081c0 3.157.231 5.688 3.262 6.404l-.01-4.716-3.252-1.688z" fill="#444"/></g></g></svg>