<svg xmlns="http://www.w3.org/2000/svg" viewBox="0 0 128 128"><g id="图层_1"><g id="XMLID_547_"><g id="XMLID_549_"><path d="M106.911 66.042s7.869 1.363 7.869 9.836c0 7.475-5.74 10.426-11.48 10.426V66.042h3.611z" fill="#e49500"/></g><g id="XMLID_548_"><path d="M21.089 66.042s-7.869 1.363-7.869 9.836c0 7.475 5.74 10.426 11.48 10.426V66.042h-3.611z" fill="#e49500"/></g></g><g><g><path d="M51.914 49.263c0 13.356-9.542 24.184-21.312 24.184s-20.709-13.489-19.736-29.5c.933-15.354 12.288-19.388 24.058-19.388s16.99 11.348 16.99 24.704z" fill="#e0e0e0"/></g><g><path d="M76.086 49.263c0 13.356 9.542 24.184 21.312 24.184s20.709-13.489 19.737-29.5c-.933-15.354-12.288-19.388-24.058-19.388S76.086 35.907 76.086 49.263z" fill="#e0e0e0"/></g></g><g><path d="M21.216 73.763C24.632 114.88 45.829 121.957 64 121.957V12.296c-38.202 0-45.842 24.665-42.784 61.467z" fill="#fbc11b"/></g><g><path d="M106.784 73.763C103.368 114.88 82.171 121.957 64 121.957V12.296c38.202 0 45.842 24.665 42.784 61.467z" fill="#fbc11b"/></g><g id="XMLID_546_"><path d="M49.912 77.192c0 3.813-2.552 6.904-5.713 6.904-3.157 0-5.725-3.091-5.725-6.904 0-3.823 2.568-6.914 5.725-6.914 3.161 0 5.713 3.091 5.713 6.914" fill="#444"/></g><g id="XMLID_545_"><path d="M78.081 77.192c0 3.813 2.555 6.904 5.725 6.904 3.154 0 5.721-3.091 5.721-6.904 0-3.823-2.567-6.914-5.721-6.914-3.17 0-5.725 3.091-5.725 6.914" fill="#444"/></g><g id="XMLID_541_"><path d="M76.382 100.519H64.001 51.62c-1.42 0-2.029.954-1.091 2.384 1.314 2.002 6.192 5.85 13.472 5.85s12.158-3.848 13.472-5.85c.938-1.43.328-2.384-1.091-2.384z" fill="#513f35"/></g><g id="XMLID_536_"><path d="M69.981 89.994c-2.107.597-4.293.888-5.981.888-1.689 0-3.874-.291-5.981-.888-.901-.255-1.255.598-.932 1.166.668 1.176 3.359 3.549 6.913 3.549 3.554 0 6.245-2.373 6.913-3.549.323-.568-.031-1.421-.932-1.166z" fill="#e49500"/></g><g opacity=".5"><g><path d="M81.794 52.713c-.115 0-.233-.014-.352-.042a75.794 75.794 0 0 0-35.22 0 1.498 1.498 0 0 1-1.81-1.108 1.502 1.502 0 0 1 1.108-1.809 78.814 78.814 0 0 1 36.622 0 1.5 1.5 0 0 1-.348 2.959z" fill="#e49500"/></g></g><g opacity=".5"><g><path d="M83.805 61.88c-.115 0-.233-.014-.352-.042a84.44 84.44 0 0 0-39.241 0 1.499 1.499 0 0 1-1.81-1.108 1.502 1.502 0 0 1 1.108-1.809 87.45 87.45 0 0 1 40.644 0 1.5 1.5 0 0 1-.349 2.959z" fill="#e49500"/></g></g><g><g><g opacity=".5"><path d="M40.249 109.646a1.5 1.5 0 0 1-1.473-1.794C41.057 96.451 49.7 91.76 50.068 91.565a1.501 1.501 0 0 1 1.406 2.65c-.091.049-7.766 4.275-9.756 14.225a1.5 1.5 0 0 1-1.469 1.206z" fill="#e49500"/></g><g opacity=".5"><path d="M42.747 90.546a1.5 1.5 0 0 1 0-3c5.375 0 7.657-4.12 7.68-4.162a1.5 1.5 0 1 1 2.64 1.424c-.125.233-3.173 5.738-10.32 5.738z" fill="#e49500"/></g></g><g><g opacity=".5"><path d="M87.416 109.646a1.5 1.5 0 0 1-1.469-1.206c-2.004-10.02-9.675-14.182-9.752-14.223a1.5 1.5 0 0 1 1.402-2.652c.367.194 9.011 4.886 11.291 16.287a1.5 1.5 0 0 1-1.472 1.794z" fill="#e49500"/></g><g opacity=".5"><path d="M84.918 90.546c-7.146 0-10.194-5.505-10.32-5.738a1.5 1.5 0 0 1 2.637-1.429c.106.192 2.386 4.168 7.683 4.168a1.5 1.5 0 0 1 0 2.999z" fill="#e49500"/></g></g></g></g></svg>