<svg id="图层_1" xmlns="http://www.w3.org/2000/svg" viewBox="0 0 128 128"><path d="M27.626 43.858c-5.808-.681-11.828-3.432-14.026-8.927-1.706-4.266-3.169-10.64-8.157-9.878-6.167.942-4.717 13.444-3.268 18.26C8.068 62.911 27.251 66.01 27.568 65.536c.385-.573 1.5-21.692.058-21.678z" fill="#e0e0e0"/><path d="M18.559 40.368s1.58 3.648-1.086 9.214c-3.107 6.488-10.111 7.174-10.111 7.174" fill="none"/><path d="M27.626 43.858c-3.117-.366-6.29-1.334-8.906-2.997 0 0 1.166 3.265-.798 7.701-2.213 5.001-8.319 7.677-8.319 7.677 7.778 8.134 17.737 9.637 17.965 9.297.385-.573 1.5-21.692.058-21.678z" fill="#ccc"/><path d="M100.374 43.858c5.808-.681 11.828-3.432 14.026-8.927 1.706-4.266 3.169-10.64 8.157-9.878 6.167.942 4.717 13.444 3.268 18.26-5.893 19.598-25.076 22.697-25.393 22.223-.385-.573-1.5-21.692-.058-21.678z" fill="#e0e0e0"/><path d="M120.11 48.06c-3.783 4.166-12.439 8.154-20.384 8.734.175 4.497.472 8.497.636 8.743.317.473 19.5-2.625 25.393-22.223.765-2.543 1.529-7.228 1.173-11.223-.707 5.838-2.851 11.6-6.818 15.969z" fill="#ccc"/><g><path d="M106.815 49.7a66.866 66.866 0 0 0-.467-7.623C104.352 25.729 95.11 11.524 82.231 5.005 76.175 1.947 69.842.712 63.304 1.346 50.813 2.599 37.972 9.793 30.572 22.167c-17.74 29.665-6.382 65.563-3.38 71.661 15.343 31.167 40.124 33.834 52.616 32.818 13.581-1.104 29.435-6.609 31.691-12.815a5.818 5.818 0 0 0-.205-4.476c-1.298-2.75-3.949-2.493-4.82-2.408l-.99.111-.261.014c-3.78-.055-5.441-1.016-6.586-3.806-1.75-4.269-.307-10.54 1.153-15.518 2.987-10.235 7.097-24.251 7.025-38.048z" fill="#e0e0e0"/></g><g><g><g><path d="M76.467 45.669c1.736-.291 3.592-.515 5.366-.337 1.812.194 3.581 1.003 5.447.763 1.216-.155 2.531-.948 3.242-1.856 1.51-1.916 1.66-4.417.815-6.6-.616-1.566-1.736-2.963-3.252-3.872-3.712-2.252-9.031-.828-12.147 1.906-3.196 2.804-5.533 7.561-4.022 9.649.915 1.261 3.453.523 4.551.347z" fill="#2f2f2f"/></g><g><path d="M50.815 45.669c-1.736-.291-3.592-.515-5.366-.337-1.812.194-3.581 1.003-5.447.763-1.216-.155-2.531-.948-3.242-1.856-1.51-1.916-1.66-4.417-.815-6.6.616-1.566 1.736-2.963 3.252-3.872 3.712-2.252 9.031-.828 12.147 1.906 3.196 2.804 5.533 7.561 4.022 9.649-.914 1.261-3.452.523-4.551.347z" fill="#2f2f2f"/></g></g><path d="M63.641 52.377c-7.015 0-10.2 7.253-10.2 13.976 0 6.723 3.598 10.371 10.2 10.371s10.2-3.648 10.2-10.371c.001-6.723-3.184-13.976-10.2-13.976z" fill="#2f2f2f"/></g><path d="M103.126 28c2.267 8.598.117 47.258-17.67 65.565-13.876 14.282-43.03 19.769-47.328 17.134" fill="none"/><path d="M111.294 109.356c-1.298-2.75-3.949-2.493-4.82-2.408l-.99.111-.261.015c-3.78-.055-5.441-1.016-6.586-3.806-1.75-4.269-.307-10.54 1.153-15.518 2.988-10.236 7.098-24.252 7.026-38.048a66.866 66.866 0 0 0-.467-7.623 53.87 53.87 0 0 0-2.816-11.815c.334 19.237-3.29 43.72-19.823 60.737-13.204 13.59-35.75 21.5-44.77 20.019 14.288 14.989 31.233 16.411 40.868 15.628 13.581-1.104 29.435-6.609 31.691-12.815a5.825 5.825 0 0 0-.205-4.477z" fill="#ccc"/></svg>