<svg id="レイヤー_1" xmlns="http://www.w3.org/2000/svg" viewBox="0 0 128 128"><g><g><path d="M30.847 26.996a4.345 4.345 0 0 1-1.415-.477c-2.344-1.266-3.445-5.147-4.173-7.475-1.142-3.678-1.9-7.658-1.667-11.518.152-2.392 1.041-6.129 4.184-5.68 1.111.162 1.97.848 2.758 1.695 2.9 3.133 5.042 6.771 7.841 9.975 2.627 3.006 6.648 4.986 2.869 8.643-2.608 2.523-6.488 5.474-10.397 4.837z" fill="#ed6c30"/></g><g><path d="M96.553 26.996a4.2 4.2 0 0 0 1.404-.477c2.354-1.266 3.446-5.147 4.173-7.475 1.151-3.678 1.909-7.658 1.667-11.518-.141-2.392-1.04-6.129-4.173-5.68-1.122.162-1.971.848-2.759 1.695-2.909 3.133-5.041 6.771-7.841 9.975-2.626 3.006-6.658 4.986-2.879 8.643 2.618 2.523 6.487 5.474 10.408 4.837z" fill="#ed6c30"/></g><g><g><path d="M120.023 114.502c-.646-.254-1.232-.504-1.414-.682-2.456-2.346-1.93-6.262-1.081-9.164.808-2.817 2.435-5.25 3.233-8.055.334-1.207.465-2.375.303-3.617-.333-2.676-2.061-4.818-2.93-7.305-1.082-3.068-.041-4.811 1.01-7.637 1.546-4.154 1.778-8.402.091-12.52-1.637-4.012-3.273-7.711-3.748-12.074-.626-5.66-.132-11.484-2.041-16.945-.505-1.432-1.172-2.91-1.778-4.299-.354-.787-.89-1.375-1.273-2.168-2.203-4.486-5.315-8.537-9.205-11.719-9.901-8.092-23.825-12.247-37.496-12.26-13.66.014-27.584 4.168-37.485 12.262C16.044 26.621 9.86 37.221 11.851 50.588c.505 3.404.798 6.912-.485 10.186-.637 1.598-1.627 3.002-2.314 4.557-2.536 5.728-1.242 10.144-.192 15.894.576 3.178-1.385 5.936-1.93 8.973-.415 2.312-.323 4.773.485 6.99.879 2.406 2.789 4.031 3.415 6.609.859 3.576.596 9.172-3.445 10.74-1.001.383-1.961-.203-1.607 1.223.202.803.95 1.389 1.617 1.777 1.475.859 3.294 1.066 4.951 1.289 3.011.414 6.376-.238 9.165-1.424.656-.289 2.253-.877 2.859-.219.879.969-.809 2.258-1.011 3.242-.384 1.85 4.688 1.912 5.911 2.031 2.829.285 5.456-.619 8.032-1.666 1.728-.713 3.506-1.662 5.446-1.363 1.91.281 1.011 2.152.859 3.426-.101.883-.171 1.275.556 1.766.878.588 2.263.779 3.283.869 4.698.436 9.689-.646 14.004-2.531 5.426-2.357 9.246 2.977 14.52 3.219 1.263.061 8.851-.014 8.608-2.172-.161-1.436-2.829-2.076-3.364-3.283-.92-2.021 1.646-2.244 3.334-1.5 1.243.541 2.384 1.268 3.587 1.869 4.092 2.035 8.821 1.791 13.186.953.869-.16 3.445-.09 3.445-1.404 0-.557-.646-1.064-.777-1.621-.102-.42-.152-1.188-.051-1.611.253-1.131 1.839-1.131 2.83-1.02 1.01.111 1.919.646 2.93.785.819.119 1.536.223 2.324.498 1.879.666 3.951.889 5.932.676 1.212-.131 4.931-.92 4.263-2.908-.041-.133-1.193-.54-2.194-.936z" fill="#2f2f2f"/></g><path d="M30.008 104.879c.424 6.191 3.839 9.203 10.448 9.209.778 0 1.677-.238 2.626-.486 1.142-.299 2.426-.633 3.8-.633.171 0 .333 0 .495.012 2.314.141 3.324.986 4.406 2.07.232.24.495.508.838.793 1.718 1.422 4.88 2.205 8.892 2.205 5.244 0 10.508-1.264 13.398-2.517.576-.254 1.061-.549 1.535-.838 1.183-.713 2.526-1.516 4.537-1.688 1.395-.127 2.758-.006 4.102.115.768.07 1.525.146 2.283.146 1.152 0 2.031-.191 2.839-.621 3.436-1.812 5.426-4.223 5.931-7.166.243-1.432.283-2.941.323-4.537.092-3.078.172-6.262 1.708-9.352.616-1.256 1.435-2.082 2.172-2.816.425-.428.789-.793 1.062-1.189l.233-.35c1.03-1.496 2.091-3.043 2.748-4.607.374-.885.707-1.809.98-2.75 1.404-4.783 1.293-9.906-.313-14.418-.556-1.586-1.849-2.945-3.213-4.379-.869-.916-1.768-1.861-2.556-2.936-1.798-2.455-2.546-5.148-3.273-7.756-.89-3.195-1.657-5.959-4.224-7.879-1.879-1.4-4.244-1.992-6.739-2.613-1.021-.252-2.031-.504-3-.807-3.193-1.002-7.235-2.508-10.307-5.275l-.515-.461c-2.091-1.828-4.123-3.717-5.376-5.611-.616.58-1.232 1.223-1.869 1.873-1.445 1.502-2.951 3.053-4.729 4.269-4.698 3.199-9.214 4.756-13.802 4.756h-.525c-4.86 0-8.114.383-11.417 2.408-2.132 1.312-3.607 2.455-4.395 4.104-.899 1.898-1.365 3.312-1.112 4.898l.081.477c.354 2.105.687 4.096-.637 6.805-.818 1.682-1.778 3.117-2.718 4.512-1.455 2.18-2.718 4.061-3.244 6.531-.97 4.572-.424 9.635 1.536 14.252.606 1.436 1.637 2.875 2.738 4.395 2.021 2.809 4.305 5.992 4.305 9.992-.01.973-.03 1.936-.061 2.902-.062 1.717-.103 3.338.009 4.961z" fill="#ed6c30"/><g fill="#2f2f2f"><path d="M95.774 76.26c-1.162-2.393-4.668-4.211-7.285-3.564-3.001.744-5.233 3.516-7.831 5.037-1.838 1.082-3.758 2.057-5.759 2.805-.97.373-1.981.635-2.94.99-2.496.92-5.355 1.213-8.265 1.182-2.9.031-5.76-.262-8.265-1.182-.96-.355-1.96-.617-2.93-.99-2-.748-3.92-1.723-5.759-2.805-2.597-1.521-4.83-4.293-7.831-5.037-2.627-.646-6.123 1.172-7.285 3.564-3.071 6.369 3.466 12.769 3.86 19.121.122 1.867.203 3.637.698 5.465.535 1.939 1.465 3.834 3.041 5.133 4.233 3.506 11.499 3.582 16.176.91 2.405-1.369 4.517-3.365 7.366-3.699.323-.039.626-.061.93-.08.313.02.616.041.929.08 2.859.334 4.971 2.33 7.366 3.699 4.689 2.672 11.943 2.596 16.177-.91 1.586-1.299 2.517-3.193 3.052-5.133.495-1.828.576-3.598.697-5.465.393-6.352 6.93-12.752 3.858-19.121z"/><path d="M72.869 58.299c-.586-1.324-.889-2.818-.07-3.709.828-.883 2.96-.615 4.032-.799 2.102-.352 3.899-1.182 5.81-2.07 1.525-.713 2.879-1.566 4.253-2.506.95-.656 2.415-1.605 3.627-1.334 3.516.803 3.618 7.769 2.021 10.203-2.192 3.365-6.314 5.473-10.296 5.6-2.819.08-6.376-.965-8.144-3.283a10.558 10.558 0 0 1-1.233-2.102z"/><path d="M54.247 58.299c.586-1.324.889-2.818.07-3.709-.828-.883-2.96-.615-4.031-.799-2.102-.352-3.901-1.182-5.81-2.07-1.526-.713-2.88-1.566-4.254-2.506-.949-.656-2.415-1.605-3.627-1.334-3.517.803-3.618 7.769-2.021 10.203 2.193 3.365 6.315 5.473 10.296 5.6 2.819.08 6.366-.965 8.144-3.283.384-.503.869-1.264 1.233-2.102z"/><path d="M67.049 109.029c-1.778-.375-3.638-.375-5.466-.197-1.738.168-4.456.58-5.648 2.027-1.192 1.439.02 3.041 1.667 3.111.818.041 1.708-.262 2.526-.363 1.505-.211 3.042-.328 4.567-.273a50.62 50.62 0 0 1 4.396.375c.525.07 1 .348 1.576.223 1.748-.385 1.304-2.256.344-3.139-1.133-1.047-2.477-1.439-3.962-1.764z"/><path d="M71.636 69.514c1.515.6-1.829 4.719-2.354 5.111-1.617 1.225-4.194 2.062-6.184 2.33-3.718.5-10.164-2.865-9.204-7.441 1.546-.465 4.112 1.061 5.719 1.514 2.061.594 4.819.629 6.922.205 1.444-.295 3.666-2.292 5.101-1.719z"/></g></g><g><path d="M49.104 86.797c-.111-1.521-1.728-2.723-2.95-3.391-1.143-.635-3.436-1.576-4.345-.1-.961 1.545-1.516 2.809-1.799 4.627-.223 1.359-.404 2.758-.404 4.137-.01 4.855 2.304 2.592 4.739.529 1.536-1.306 4.931-3.525 4.759-5.802z" fill="#fff"/></g><g><path d="M86.792 92.443c-.283.285-.858.111-1.192.018-.565-.152-1.091-.414-1.596-.703-1.597-.914-3.021-2.168-4.284-3.496a15.782 15.782 0 0 1-1.566-1.875c-.313-.449-1-1.342-.637-1.885.121-.191.344-.357.516-.51.394-.342.828-.65 1.283-.918 1.688-1.002 4.011-1.891 6.002-1.436.818 1.646 1.263 3.48 1.515 5.295a22.14 22.14 0 0 1 .202 3.924c-.011.42.091 1.229-.243 1.586z" fill="#fff"/></g><path d="M52.237 99.967c-2.153-.56-1.415-6.644.505-7.391 1.97-.77 3.829.994 4.678 2.613a5.44 5.44 0 0 1 .606 1.836c.04.305.01.607.05.904.051.4-.252.451-.586.576-.192.076-.374.164-.565.227-.172.053-.415.205-.596.193" fill="#fff"/><path d="M66.695 97.98c-.041-.041-.111-.076-.152-.121-.171-.205.102-.752.182-1.016.132-.379.273-.75.424-1.119a19.22 19.22 0 0 1 1.264-2.537c.606-1.025 1.859-3.092 3.334-2.75.576.143.889.789 1.081 1.289.323.824.455 1.713.546 2.58.101.98.131 1.967.081 2.951-.021.441-.051.881-.102 1.318-.05.385-.04 1.025-.616.775-.03-.018-.061-.031-.091-.053" fill="#fff"/></g></svg>