<svg xmlns="http://www.w3.org/2000/svg" xmlns:xlink="http://www.w3.org/1999/xlink" viewBox="0 0 128 128"><g id="图层_1"><g id="XMLID_30_"><path id="XMLID_581_" d="M17.097 71.448s.041-10.397.041-24.713c0-14.974 10.977-35.689 47.69-35.689 25.623 0 35.207 10.138 35.207 16.896 0 0 9.519 1.71 10.452 13.9.655 8.561-.188 29.148-.188 29.148s-1.034-.921-2.203-1.452c-.622-.283-1.249-.416-1.249-.416l-1.724 11.75-12.745-24.674a.392.392 0 0 0-.397-.212l-5.165.611a196.603 196.603 0 0 1-44.813.162l-6.973-.774a.393.393 0 0 0-.4.225L22.864 80.792l-1.783-11.959s-1.224.485-2.33 1.345c-1.038.807-1.654 1.27-1.654 1.27z" fill="#6d4c41"/><g id="XMLID_578_" fill="#e49725"><path id="XMLID_580_" d="M105.345 68.283s7.593 1.315 7.593 9.491c0 7.213-5.539 10.061-11.077 10.061V68.283h3.484z"/><path id="XMLID_579_" d="M22.531 68.283s-7.593 1.315-7.593 9.491c0 7.213 5.539 10.061 11.077 10.061V68.283h-3.484z"/></g><path id="XMLID_577_" d="M63.938 14.733c-32.722 0-41.285 25.366-41.285 61 0 36.95 23.75 46.505 41.285 46.505 17.277 0 41.285-9.28 41.285-46.505-.001-35.634-8.563-61-41.285-61z" fill="#fac11d"/><path id="XMLID_576_" d="M75.763 100.342H63.938 52.113c-1.356 0-1.938.911-1.042 2.276 1.255 1.912 5.914 5.587 12.867 5.587s11.612-3.676 12.867-5.587c.896-1.364.314-2.276-1.042-2.276z" fill="#4c3734"/><path id="XMLID_575_" d="M75.763 100.342H63.938 52.113c-1.356 0-1.938.911-1.042 2.276 1.255 1.912 5.914 5.587 12.867 5.587s11.612-3.676 12.867-5.587c.896-1.364.314-2.276-1.042-2.276z" fill="#513f35"/><path id="XMLID_574_" d="M69.65 90.29c-2.012.57-4.1.848-5.713.848s-3.7-.278-5.713-.848c-.861-.244-1.198.572-.89 1.114.638 1.123 3.209 3.389 6.603 3.389 3.394 0 5.964-2.266 6.603-3.389.309-.542-.029-1.357-.89-1.114z" fill="#e49725"/><path id="XMLID_573_" d="M50.482 78.063c0 3.642-2.437 6.594-5.456 6.594-3.016 0-5.468-2.952-5.468-6.594 0-3.651 2.453-6.603 5.468-6.603 3.019 0 5.456 2.952 5.456 6.603" fill="#444"/><path id="XMLID_572_" d="M77.386 78.063c0 3.642 2.441 6.594 5.468 6.594 3.012 0 5.464-2.952 5.464-6.594 0-3.651-2.452-6.603-5.464-6.603-3.027 0-5.468 2.952-5.468 6.603" fill="#444"/><path id="XMLID_571_" d="M22.653 78.059l-2.177-13.43s-4.728-51.77 44.585-51.77 41.636 54.022 41.636 54.022l-1.508 11.178-12.811-21.697c-5.962-10.021-37.187-19.627-55.963-.417L22.653 78.059z" fill="#6d4c41"/><g id="XMLID_32_"><defs><path id="SVGID_1_" d="M65.178 51.048c-29.558-6.56-47.928-8.251-53.735-2.405-.78-8.608 1.376-14.521 3.663-17.883 2.633-3.871 5.146-5.921 8.877-8.616C35.591 13.795 50.972 5.762 64.026 5.762c12.78 0 28.435 8.033 40.043 16.382 3.731 2.695 6.244 4.746 8.877 8.616 9.998 14.698-.38 44.096-.38 44.096s-1.363-4.548-6.099-6.262c.109-4.674-6.699-9.869-41.289-17.546z"/></defs><use xlink:href="#SVGID_1_" overflow="visible" fill="#e0e0e0"/><clipPath id="SVGID_2_"><use xlink:href="#SVGID_1_" overflow="visible"/></clipPath><path id="XMLID_33_" d="M65.516 53.87c29.558-6.56 48.66-7.537 54.467-1.691.78-8.608-1.928-15.234-4.215-18.596-2.633-3.871-5.146-5.921-8.877-8.616C95.283 16.618 79.722 8.585 66.669 8.585c-12.78 0-28.435 8.033-40.043 16.382-3.731 2.695-6.244 4.746-8.877 8.616-9.998 14.698.38 44.096.38 44.096s1.009-4.37 5.746-6.083c-.11-4.675 7.052-10.049 41.641-17.726z" clip-path="url(#SVGID_2_)" fill="#bcbcbc"/><path d="M116.675 57.111s-7.333-10.864-39.602-21.485c-25.519-8.399-50.467-8.127-60.829-6.676 0 0-.327.302-1.171 1.614 0 0 30.57-3.59 64.707 9.745 12.541 4.899 29.277 11.037 36.2 21.202l.695-4.4z" clip-path="url(#SVGID_2_)" fill="#bcbcbc"/></g><g id="XMLID_34_"><path id="XMLID_36_" d="M62.694 51.048c29.558-6.56 45.206-7.786 54.594-2.225.78-8.608-2.056-14.701-4.343-18.063-2.633-3.871-5.146-5.921-8.877-8.616C92.461 13.795 76.9 5.762 63.846 5.762c-12.78 0-28.435 8.033-40.043 16.382-3.731 2.695-6.244 4.746-8.877 8.616-9.998 14.698.38 44.096.38 44.096s1.009-4.37 5.746-6.083c-.109-4.674 7.053-10.048 41.642-17.725z" fill="#e0e0e0"/><path d="M11.199 57.111s7.333-10.864 39.602-21.485c25.519-8.399 50.467-8.127 60.829-6.676 0 0 .327.302 1.171 1.614 0 0-30.57-3.59-64.707 9.745-12.541 4.899-29.277 11.037-36.2 21.202l-.695-4.4z" fill="#bcbcbc"/><path d="M11.31 39.968s8.007-10.122 29.164-18.934c20.174-8.403 41.744-9.669 48.233-8.175l2.203 1.075c-9.593-.213-29.968 1.287-48.417 9.485-9.448 4.198-29.066 16.209-31.8 21.383.108-1.643.318-3.336.617-4.834z" fill="#bcbcbc"/></g></g></g></svg>