<svg id="レイヤー_1" xmlns="http://www.w3.org/2000/svg" viewBox="0 0 128 128"><g><g><g><path d="M102.263 21.704s-1.188-1.835-3.646-2.219c-3.057-.478-6.083.069-7.046 4.506-.959 4.419-1.455 10.113 3.494 14.084l-7.605 2.126-6.51-7.886s2.516.959 2.862-.912c.424-2.291.415-4.364.974-7.872.585-3.665 1.728-7.508 5.246-9.539 1.918-1.109 4.977-1.736 5.986-2.547.779-.63.989-2.65 1.329-4.84l5.423 4.155 1.704 7.4-2.211 3.544z" fill="#d7598b"/></g><circle cx="107.391" cy="12.024" r="11.927" fill="#fcc21b"/></g><g><g><path d="M25.736 21.704s1.189-1.835 3.646-2.219c3.057-.478 6.084.069 7.046 4.506.959 4.419 1.455 10.113-3.494 14.084l7.605 2.126 6.51-7.886s-2.516.959-2.862-.912c-.424-2.291-.416-4.364-.974-7.872-.585-3.665-1.728-7.508-5.246-9.539-1.918-1.109-4.977-1.736-5.986-2.547-.779-.63-.989-2.65-1.329-4.84l-5.423 4.155-1.704 7.4 2.211 3.544z" fill="#d7598b"/></g><circle cx="20.609" cy="12.024" r="11.927" fill="#fcc21b"/></g><g><path d="M107.293 114.084c-.427-2.591.017-5.496.476-7.827.825-4.191 2.312-8.217 3.78-12.215.472-1.289.946-2.577 1.396-3.873a41.573 41.573 0 0 0 2.318-13.668c0-25.467-16.784-46.113-51.263-46.113-34.481 0-51.264 20.646-51.264 46.113 0 4.451.714 8.744 2.033 12.81 2.477 7.638 6.488 15.251 6.23 23.482-.153 4.938-2.975 7.472-6.434 10.438-1.074.918-1.268 2.417.08 3.188 3.103 1.777 8.319-.188 11.329-1.396 2.695-1.082 5.207-2.93 7.313-5.075 1.078-1.098 2.076-2.271 3.072-3.439.823-.964 2.182-3.418 3.743-2.716 3.399 1.534-.58 7.857-2.303 9.38-.704.62-1.647 1.178-1.972 2.118-.357 1.033.371 1.927 1.301 2.3 2.598 1.039 8.278-.716 10.878-2.461 1.861-1.25 3.411-2.854 4.706-4.679.806-1.136 2.212-4.744 4.022-4.309 3.318.802 1.916 6.028 2.139 8.297.115 1.163.777 2.316 1.94 2.771 2.518.985 4.739-.791 6.222-2.629 1.654-2.051 2.442-4.318 3.728-6.541 1.034-1.789 2.829-2.159 4.117-.311 1.884 2.691 3.037 5.255 6.029 6.959 2.461 1.403 5.297 2.274 8.144 2.285 1.251.004 6.793-.659 4.916-3.109-.816-1.063-2.392-1.318-3.457-2.106-1.764-1.307-2.574-3.479-2.63-5.619-.08-3.048 2.869-2.268 4.316-.802 2.349 2.378 3.749 5.759 6.778 7.392 3.628 1.954 9.294 2.9 13.294 1.674 1.357-.416 2.918-1.008 3.009-2.649.086-1.549-1.232-1.924-2.468-2.27-1.589-.444-2.693-.842-3.914-2.058-.901-.897-1.401-2.098-1.604-3.342z" fill="#d7598b"/></g><g><path d="M72.044 80.729l18.222-8.707s2.541 3.931 1.918 8.561c-.377 2.771-2.224 6.005-6.345 7.378-3.717 1.237-6.776.809-8.778-.075-4.785-2.112-5.017-7.158-5.017-7.157z" fill="#bdcf46"/><path d="M55.401 80.729L37.18 72.022s-2.543 3.931-1.92 8.561c.379 2.771 2.226 6.005 6.348 7.378 3.717 1.237 6.778.809 8.776-.075 4.785-2.112 5.017-7.158 5.017-7.157z" fill="#bdcf46"/><path d="M74.85 94.945c-.37-1.255-1.656-2.326-2.97-2.38-1.574-.062-2.567 1.406-3.726 2.219-1.34.943-3.011 1.614-4.672 1.465-2.011-.188-3.068-1.541-4.613-2.637-1.396-.986-3.154-1.005-4.388.304a3.164 3.164 0 0 0-.861 2.326c.059 1.129.806 2.275 1.611 3.034 3.143 2.972 8.016 3.625 12.078 2.578 2.835-.731 8.728-2.929 7.541-6.909z" fill="#2f2f2f"/></g></g></svg>