<svg xmlns="http://www.w3.org/2000/svg" viewBox="0 0 128 128"><g id="图层_1"><path id="XMLID_935_" d="M116.738 49.624C114.839 25.063 98.931 5.741 64 7.42 28.926 5.893 13.272 25.064 11.355 49.624c-1.242 15.912-2.328 78.355-2.328 78.355h109.947c-.001 0-1.006-62.442-2.236-78.355z" fill="#d3d3d3"/><path id="XMLID_460_" d="M28.511 113.532C22 91.192 22 45.39 22 45.39l84-.335s0 41.491-4.884 68.189l-72.605.288z" fill="#6d4c41"/><path id="XMLID_2421_" d="M20.429 118.092v9.887h87.143v-9.887c0-15.168-21.386-22.868-43.24-22.842-21.718.026-43.903 6.779-43.903 22.842z" fill="#f5f5f5"/><path id="XMLID_918_" d="M64 89.824h-9.077v12.604l-5.097 9.713a.454.454 0 0 0 .402.665h27.544c.341 0 .56-.363.402-.665l-5.097-9.713V89.824H64z" fill="#e59900"/><g id="XMLID_3553_"><ellipse id="XMLID_3566_" cx="64" cy="46.114" rx="42" ry="39.499" fill="#6d4c41"/></g><path id="XMLID_2347_" d="M64 14.28c-24.333 0-30.7 18.863-30.7 45.361 0 26.498 18.875 34.582 30.7 34.582s30.7-8.084 30.7-34.582S88.333 14.28 64 14.28z" fill="#fcc21b"/><path id="XMLID_2333_" d="M53.447 60.728c0 2.841-1.902 5.145-4.258 5.145-2.353 0-4.267-2.304-4.267-5.145 0-2.849 1.914-5.153 4.267-5.153 2.357 0 4.258 2.304 4.258 5.153" fill="#444"/><path id="XMLID_2332_" d="M74.441 60.728c0 2.841 1.904 5.145 4.266 5.145 2.351 0 4.264-2.304 4.264-5.145 0-2.849-1.913-5.153-4.264-5.153-2.362 0-4.266 2.304-4.266 5.153" fill="#444"/><path id="XMLID_2331_" d="M73.227 78.112H64h-9.227c-1.058 0-1.512.711-.813 1.776.98 1.492 4.615 4.36 10.04 4.36 5.426 0 9.061-2.868 10.04-4.36.699-1.065.245-1.776-.813-1.776z" fill="#513f35"/><path id="XMLID_2330_" d="M68.457 70.268c-1.57.445-3.199.662-4.458.662s-2.887-.217-4.458-.662c-.672-.19-.935.446-.695.869.498.876 2.504 2.645 5.152 2.645 2.649 0 4.654-1.768 5.152-2.645.243-.423-.021-1.059-.693-.869z" fill="#e59600"/><g id="XMLID_3547_"><path id="XMLID_3411_" d="M73.256 35.247c-3.227 3.1-19.245 17.538-41.323 21.306v-29.6S41.462 8.044 64.332 8.044 96.73 27.43 96.73 27.43v29.123s-14.984-5.751-22.51-21.124a.604.604 0 0 0-.964-.182z" fill="#6d4c41"/></g><path id="XMLID_917_" d="M64.416 22.62c9.724 0 20.974-2.702 30.282-5.486-1.455-1.554-2.576-2.494-3.903-3.559-19.573 5.814-34.89 5.53-53.594.001-1.703 1.105-3.122 2.584-3.904 3.561 9.501 2.91 21.183 5.483 31.119 5.483z" fill="#f5f5f5"/></g></svg>