<svg id="レイヤー_1" xmlns="http://www.w3.org/2000/svg" viewBox="0 0 128 128"><g><g><g><g><g><g><g><path d="M123.734 80.955c3.33-17.265 1.535-38.565-14.057-49.188-6.17-4.205-13.238-7.603-20.519-9.349-8.58-2.069-18.229-.493-26.152 5.189-9.803 7.02-18.143 20.069-21.998 33.758-3.66 12.997-5.133 26.614.336 37.555 3.025 6.06 7.475 10.731 12.451 13.868 1.895 1.194 6.834 4.103 12.408 5.422 18.275 4.326 41.562 2.271 50.809-16.472 3.15-6.382 5.377-13.808 6.722-20.783z" fill="#ed6c30"/></g></g></g><path d="M112.658 35.981c-.053.05-.1.108-.152.185-.439.723.736 2.149 1.031 2.71.494.97.881 2.02.467 3.093-.232.602-.797.534-1.049 1.248-.432 1.251.602 2.186 1.283 3.082 1.381 1.791 2.998 3.734.543 5.278-1.055.665-1.625.759-1.377 2.271.242 1.436 1.512 2.721 2.117 4.058.467 1.023.844 2.203.584 3.356-.252 1.141-.305.499-1.148 1.186-2.047 1.669.26 5.775 1.197 7.463 1.217 2.182 2.055 4.528 2.568 6.97.402 1.943-.176 5.004 1.328 6.413 3.074-3.177 2.805-8.06 3.514-12.081 1.723-9.685-.715-25.195-7.648-32.677-.471-.504-2.359-3.353-3.258-2.555z" fill="#fff"/><g><g><path d="M81.799 24.068c2.236 0 4.461.263 6.615.783 6.621 1.584 13.492 4.719 19.865 9.068 17.797 12.126 14.244 38.729 12.727 46.593-1.02 5.299-2.998 13.156-6.615 20.499-7.127 14.434-23.246 16.587-32.223 16.587-5.018 0-10.395-.644-15.547-1.864-4.871-1.153-9.326-3.669-11.543-5.066-4.783-3.019-8.701-7.383-11.318-12.616-4.354-8.72-4.371-20.442-.035-35.834 3.822-13.558 11.938-26.086 21.182-32.696 4.972-3.569 10.816-5.454 16.892-5.454m0-4.595a33.567 33.567 0 0 0-19.57 6.312c-10.217 7.31-18.904 20.918-22.93 35.186-3.811 13.544-5.35 27.727.35 39.135 3.16 6.319 7.801 11.184 12.984 14.451 1.975 1.243 7.113 4.272 12.932 5.649 5.275 1.251 10.949 1.989 16.604 1.989 14.766 0 29.377-5.031 36.342-19.15 3.285-6.651 5.611-14.393 7.012-21.663 3.463-17.997 1.598-40.189-14.654-51.262-6.432-4.385-13.791-7.921-21.383-9.738a32.7 32.7 0 0 0-7.687-.909z" fill="#ed6c30"/></g></g><g><g><path d="M83.299 64.422c.266 1.432 1.215 2.616 2.334 3.806 3.566 3.824 10.465 4.748 14.545 1.104 1.424-1.27 1.764-3.109 1.854-4.937.162-3.195-.633-5.682-4.334-5.664-1.873.005-3.699.346-5.535.584-1.67.22-3.389.135-5.035.358-2.039.27-3.244.575-3.766 2.752a4.69 4.69 0 0 0-.063 1.997z" fill="#2f2f2f"/></g><g><path d="M64.719 61.455c-.836 1.091-2.137 1.688-3.586 2.217-4.633 1.715-10.848-.422-12.75-5.229-.664-1.679-.172-3.379.52-4.959 1.225-2.769 2.953-4.524 6.072-2.943 1.57.799 2.967 1.866 4.42 2.845 1.316.88 2.805 1.539 4.104 2.428 1.602 1.091 2.486 1.858 2.006 3.918a4.568 4.568 0 0 1-.786 1.723z" fill="#2f2f2f"/></g><path d="M75.219 108.049c-.77-1.476-2.647-2.536-4.199-2.604-1.051-.049-1.836.229-2.793-.282-.969-.525-1.727-1.383-2.707-1.867-.764-.372-1.547-.493-2.377-.521-1.4-.04-2.055.427-3.262.97-1.176.525-1.984-.301-3.078-.579-3.412-.866-3.197 2.81-2.006 4.852 1.197 2.064 2.246 3.913 3.9 5.664.719.749 1.682 2.028 2.66 2.464 1.934.865 5.406-.916 7.303-1.521 1.955-.629 6.084-2.078 6.789-4.331.246-.8.125-1.567-.23-2.245z" fill="#fff"/><path d="M103.799 98.759c-.816.354-1.588.363-2.051 1.328-.291.629-.031 1.513-.336 2.168-.844 1.804-2.613 1.979-4.242 2.464-.811.242-1.439.278-1.912 1.1-.543.938-.223 1.943-1.377 2.526-.938.472-1.975.148-2.871-.278-2.856-1.364-5.065-4.088-7.106-6.417-4.152-4.735-7.84-10.04-13.275-13.424-4.525-2.818-9.707-1.781-14.156.624-1.959 1.059-3.25 2.226-4.738 3.814-1.877 2.007-4.779 4.551-7.473 5.31-.834.233-1.895.104-2.521-.557-1.41-1.481-.207-3.778.225-5.358.463-1.679.242-1.858-1.455-2.298-2.422-.633-2.818-3.335-1.57-5.287.318-.493.775-.92 1.293-1.301 2.482-.162 4.945-.396 7.414-.736 5.129-.705 10.191-1.769 15.285-2.697 1.643-.306 3.357-.785 4.951-1.468.045 0 .094-.009.143-.009 1.463-.023 2.59.565 3.598 1.62.949.996 1.631 1.822 2.848 2.311.143.059.269.131.43.181 2.348.699 6.258 1.09 7.506-1.607.066-.147.166-.269.219-.436.592-1.938.1-3.64-.512-5.497a6.654 6.654 0 0 0-.924-1.732c1.412-.166 3.223 1.562 3.932 2.805.615 1.086.824 2.36.951 3.59.156 1.611.232 2.424.898 3.276 3.104 1.486 6.107 3.146 8.838 5.014 1.506 1.032 2.793 2.352 4.369 3.285 1.543.915 4.451 2.091 4.856 4.062.298 1.466.066 3.063-1.237 3.624z" fill="#fff"/></g></g><g><path d="M82.113 74.834c-1.031-3.124-4.596-5.246-7.764-5.462.027-.574.049-1.122.049-1.594-.027-3.787-2.48-6.166-6.275-5.798-9.625.938-19.92-.512-29.416-1.988-8.348-1.293-17.055-5.126-25.6-4.304-6.486.628-12.029 6.171-12.09 12.952-.065 6.036 4.701 10.941 10.15 12.889 5.117 1.836 10.08 2.28 15.107 2.253 3.842-.018 7.719-.31 11.74-.462 3.227-.126 6.436-.444 9.631-.884 5.129-.705 10.191-1.769 15.285-2.697 1.643-.306 3.361-.785 4.951-1.464.045-.004.094-.013.143-.013 1.463-.023 2.59.565 3.598 1.62 1.066 1.117 1.752 2.042 3.277 2.491 2.482.74 6.732 1.176 7.725-2.043.593-1.937.101-3.639-.511-5.496z" fill="#ed6c30"/></g><path d="M58.27 36.637c1.551-.512 2.59-.552 3.75.565 1.002.97 2.125 1.84 3.021 2.913.875 1.036 1.602 2.414 2.275 3.608.508.893 1.145 1.84 1.459 2.827.305.947.854 1.912.92 2.926.068 1.015-.031 1.953-1.117 2.343-1.023.359-2.307-.09-3.25-.524-.914-.427-1.768-1.023-2.639-1.544-1.938-1.181-3.707-2.599-5.412-4.107-.896-.785-2.611-1.853-2.994-2.979-.416-1.229.176-2.931.83-3.963a6.732 6.732 0 0 1 2.486-1.809c.217-.089.442-.175.671-.256z" fill="#fff"/><path d="M102.193 42.826c-1.791-.418-3.848.134-5.611.763-3.76 1.36-7.521 2.59-10.967 4.672-1.58.956-3.627 2.032-3.533 4.155.086 2.043 3.768 1.777 5.174 1.777 2.473 0 4.83-.408 7.236-.955 2.943-.669 5.883-.866 8.688-2.056 2.307-.983 3.119-4.573 1.697-6.553-.742-1.023-1.67-1.569-2.684-1.803z" fill="#fff"/><path fill="#2f2f2f" d="M61.953 10.544L79.34 5.805l12.969 10.429 1.679 11.351-10.34 11.116-17.943-5.619-3.894-6.911z"/></g></g><path fill="#fff" d="M64.896 12.851l-.042 9.554 11.218-7.337z"/></g></svg>