<svg xmlns="http://www.w3.org/2000/svg" xmlns:xlink="http://www.w3.org/1999/xlink" viewBox="0 0 128 128"><g id="图层_1"><g><path id="XMLID_1877_" d="M118.5 54.512l-53.484-2.216L64 52.273l-1.016.023L9.5 54.512s-.268 25.777 3.159 48.836c2.549 17.152 2.992 19.872 15.189 18.473 17.516-2.009 26.241-4.482 35.663-4.497.161 0 .327.006.489.007.162-.001.328-.007.489-.007 9.422.014 18.147 2.488 35.663 4.497 12.197 1.399 12.641-1.321 15.189-18.473 3.427-23.059 3.159-48.836 3.159-48.836z" fill="#6d4c41"/><ellipse id="XMLID_1876_" cx="64" cy="54.772" rx="54.5" ry="50.302" fill="#6d4c41"/><path id="XMLID_1875_" d="M64.17 13.58c-33.112 0-42.954 23.356-42.954 58.912s26.862 48.359 42.954 48.359c16.092 0 42.614-13.137 42.614-48.693S97.282 13.58 64.17 13.58z" fill="#fcc21b"/><path id="XMLID_1874_" d="M49.912 75.904c0 3.813-2.552 6.904-5.713 6.904-3.157 0-5.725-3.091-5.725-6.904 0-3.823 2.568-6.914 5.725-6.914 3.161.001 5.713 3.092 5.713 6.914" fill="#444"/><path id="XMLID_1873_" d="M78.081 75.904c0 3.813 2.555 6.904 5.725 6.904 3.154 0 5.721-3.091 5.721-6.904 0-3.823-2.567-6.914-5.721-6.914-3.169.001-5.725 3.092-5.725 6.914" fill="#444"/><path id="XMLID_1872_" d="M76.458 41.473c-4.343 4.172-25.903 23.604-55.618 28.676V30.31S33.665 4.86 64.446 4.86s43.606 26.091 43.606 26.091v39.198s-20.168-7.741-30.297-28.432a.812.812 0 0 0-1.297-.244z" fill="#6d4c41"/><path id="XMLID_1871_" d="M76.382 99.231H64.001 51.62c-1.42 0-2.029.954-1.091 2.384 1.314 2.002 6.192 5.85 13.472 5.85s12.158-3.848 13.472-5.85c.938-1.429.328-2.384-1.091-2.384z" fill="#513f35"/><path id="XMLID_1870_" d="M69.981 88.706c-2.107.597-4.293.888-5.981.888-1.689 0-3.874-.291-5.981-.888-.901-.255-1.255.598-.932 1.166.668 1.176 3.359 3.549 6.913 3.549 3.554 0 6.245-2.373 6.913-3.549.323-.567-.031-1.421-.932-1.166z" fill="#e59600"/><path id="XMLID_1869_" d="M76.458 41.473c-4.343 4.172-25.903 23.604-55.618 28.676V30.31S33.665 4.86 64.446 4.86s43.606 26.091 43.606 26.091v39.198s-20.168-7.741-30.297-28.432a.812.812 0 0 0-1.297-.244z" fill="#6d4c41"/><g id="XMLID_1864_"><path id="XMLID_1868_" d="M49.912 75.904c0 3.813-2.552 6.904-5.713 6.904-3.157 0-5.725-3.091-5.725-6.904 0-3.823 2.568-6.914 5.725-6.914 3.161.001 5.713 3.092 5.713 6.914" fill="#444"/><path id="XMLID_1867_" d="M78.081 75.904c0 3.813 2.555 6.904 5.725 6.904 3.154 0 5.721-3.091 5.721-6.904 0-3.823-2.567-6.914-5.721-6.914-3.169.001-5.725 3.092-5.725 6.914" fill="#444"/><path id="XMLID_1866_" d="M76.382 99.231H64.001 51.62c-1.42 0-2.029.954-1.091 2.384 1.314 2.002 6.192 5.85 13.472 5.85s12.158-3.848 13.472-5.85c.938-1.429.328-2.384-1.091-2.384z" fill="#513f35"/><path id="XMLID_1865_" d="M69.981 88.706c-2.107.597-4.293.888-5.981.888-1.689 0-3.874-.291-5.981-.888-.901-.255-1.255.598-.932 1.166.669 1.176 3.359 3.549 6.913 3.549 3.554 0 6.245-2.373 6.913-3.549.323-.567-.031-1.421-.932-1.166z" fill="#e59600"/></g></g><g><g><g fill="#f69229"><g><path d="M75.152 3.619l5.806 18.184-14.714-1.906z"/><path d="M80.958 22.28a.43.43 0 0 1-.062-.004l-14.714-1.907a.474.474 0 0 1-.363-.257.474.474 0 0 1 .006-.445L74.733 3.39a.478.478 0 0 1 .873.085l5.763 18.053a.477.477 0 0 1-.388.753c-.005-.001-.014-.002-.023-.001zm-13.962-2.766l13.28 1.72-5.24-16.411-8.04 14.691z"/></g><g><path d="M52.847 3.619l-5.804 18.184 14.711-1.906z"/><path d="M47.043 22.28a.481.481 0 0 1-.367-.171.483.483 0 0 1-.088-.451l5.804-18.184a.48.48 0 0 1 .408-.33.465.465 0 0 1 .465.245l8.908 16.278a.48.48 0 0 1-.357.702l-14.712 1.907a.417.417 0 0 1-.061.004zm5.919-17.456l-5.238 16.411 13.278-1.72-8.04-14.691z"/></g></g><g><g><defs><path id="SVGID_1_" d="M86.454 4.852a.478.478 0 0 0-.523.088L73.409 16.701 64.471 3.352a.474.474 0 0 0-.395-.21h-.002a.478.478 0 0 0-.395.208L54.7 16.701 42.177 4.939a.475.475 0 0 0-.802.359l.514 19.227c0 4.179 9.737 7.456 22.166 7.456s22.166-3.277 22.166-7.444l.516-19.239a.482.482 0 0 0-.283-.446z"/></defs><use xlink:href="#SVGID_1_" overflow="visible" fill="#fbc11b"/><clipPath id="SVGID_2_"><use xlink:href="#SVGID_1_" overflow="visible"/></clipPath></g></g></g></g></g></svg>