<svg id="レイヤー_1" xmlns="http://www.w3.org/2000/svg" xmlns:xlink="http://www.w3.org/1999/xlink" viewBox="0 0 128 128"><g><g><g><g><path d="M64.462 24.818c-58.32 0-59.705 65.383-59.705 78.327 0 12.931 26.749 23.428 59.705 23.428 32.993 0 59.705-10.497 59.705-23.428 0-12.944-1.376-78.327-59.705-78.327z" fill="#e75625"/></g><g><g><path d="M83.917 40.163c.715-2.009 2.199-3.9 4.425-5.651 1.819-1.434 3.746-2.833 5.248-4.615 4.416-5.262 6.578-13.447 5.583-20.292-.227-1.534-1.719-4.479-.706-5.868 1.747-2.375 6.081.082 7.466 1.452 4.352 4.28 6.958 10.148 8.234 16.048 1.593 7.33 1.366 14.931-1.059 22.034-2.018 5.877-6.868 11.686-13.121 13.071-5.357 1.19-11.148-2.353-14.108-6.56-2.387-3.425-3.012-6.651-1.962-9.619z" fill="#e75625"/></g><g><path d="M45.007 39.321c-.706-2.004-2.181-3.891-4.425-5.651-1.828-1.434-3.719-2.827-5.24-4.615-4.407-5.257-6.569-13.438-5.574-20.283.226-1.538 1.701-4.479.697-5.873C28.727.515 24.402 2.981 23 4.356c-4.344 4.28-6.95 10.148-8.244 16.044-1.575 7.325-1.357 14.926 1.077 22.029 2.009 5.882 6.877 11.687 13.121 13.076 5.348 1.19 11.139-2.357 14.08-6.56 2.407-3.421 3.04-6.647 1.973-9.624z" fill="#e75625"/></g></g></g><g><g><g><defs><path id="SVGID_1_" d="M38.057 89.855c-13.818-2.837-15.275-15.501-14.288-21.003l34.259 10.261c-.969 5.478-10.271 12.731-19.971 10.742z"/></defs><use xlink:href="#SVGID_1_" overflow="visible" fill="#2f2f2f"/><clipPath id="SVGID_2_"><use xlink:href="#SVGID_1_" overflow="visible"/></clipPath><path d="M39.469 84.109c-9.167-1.794-9.99-11.037-8.651-14.679l21.473 6.796c-.127 3.626-6.353 9.15-12.822 7.883z" clip-path="url(#SVGID_2_)" fill="#fbb817"/></g></g><g><g><defs><path id="SVGID_3_" d="M90.866 89.855c13.818-2.837 15.275-15.501 14.288-21.003L70.896 79.114c.977 5.477 10.279 12.73 19.97 10.741z"/></defs><use xlink:href="#SVGID_3_" overflow="visible" fill="#2f2f2f"/><clipPath id="SVGID_4_"><use xlink:href="#SVGID_3_" overflow="visible"/></clipPath><path d="M89.455 84.109c9.166-1.794 9.99-11.037 8.651-14.679l-21.464 6.796c.117 3.626 6.343 9.15 12.813 7.883z" clip-path="url(#SVGID_4_)" fill="#fbb817"/></g></g></g></g><path d="M63.183 98.296c.633 0 1.308.025 1.982.057 15.835.946 21.844 9.538 22.088 9.904a2.824 2.824 0 0 1-.742 3.936 2.83 2.83 0 0 1-3.918-.733c-.227-.321-4.932-6.687-17.772-7.443-12.804-.738-18.378 7.619-18.451 7.703-.828 1.312-2.597 1.692-3.909.841a2.819 2.819 0 0 1-.828-3.914c.276-.442 6.854-10.351 21.55-10.351z" fill="#2f2f2f"/></g></svg>