<svg xmlns="http://www.w3.org/2000/svg" viewBox="0 0 128 128"><g id="Layer_3"><g><g id="XMLID_96_" fill="#e59600"><path id="XMLID_108_" d="M106.911 66.042s7.869 1.363 7.869 9.836c0 7.475-5.74 10.426-11.48 10.426V66.042h3.611z"/><path id="XMLID_104_" d="M21.089 66.042s-7.869 1.363-7.869 9.836c0 7.475 5.74 10.426 11.48 10.426V66.042h-3.611z"/></g><path id="XMLID_95_" d="M64 10.547c-33.91 0-42.784 26.288-42.784 63.216 0 38.292 24.613 48.194 42.784 48.194 17.905 0 42.784-9.617 42.784-48.194 0-36.928-8.874-63.216-42.784-63.216z" fill="#fcc21b"/><path id="XMLID_84_" d="M49.912 77.192c0 3.813-2.552 6.904-5.713 6.904-3.157 0-5.725-3.091-5.725-6.904 0-3.823 2.568-6.914 5.725-6.914 3.161 0 5.713 3.091 5.713 6.914" fill="#444"/><path id="XMLID_80_" d="M78.081 77.192c0 3.813 2.555 6.904 5.725 6.904 3.154 0 5.721-3.091 5.721-6.904 0-3.823-2.567-6.914-5.721-6.914-3.17 0-5.725 3.091-5.725 6.914" fill="#444"/><path id="XMLID_79_" d="M76.382 100.519H64.001 51.62c-1.42 0-2.029.954-1.091 2.384 1.314 2.002 6.192 5.85 13.472 5.85 7.28 0 12.158-3.848 13.472-5.85.938-1.43.328-2.384-1.091-2.384z" fill="#513f35"/><path id="XMLID_77_" d="M69.981 89.994c-2.107.597-4.293.888-5.981.888-1.689 0-3.874-.291-5.981-.888-.901-.255-1.255.598-.932 1.166.669 1.176 3.359 3.549 6.913 3.549 3.554 0 6.245-2.373 6.913-3.549.323-.568-.031-1.421-.932-1.166z" fill="#e59600"/><path id="XMLID_74_" d="M65.022 5.723s-.661-.02-.948-.018c-.286-.003-.948.018-.948.018-36.594.705-47.625 22.721-47.625 37.988 0 14.835.014 25.735.014 25.735s.581-.605 1.657-1.441a11.146 11.146 0 0 1 2.414-1.394l1.848 12.394 12.195-25.476a.409.409 0 0 1 .414-.233l7.226.803c7.264.807 14.56 1.197 21.857 1.219v.016c.316.002.632-.008.948-.008.316 0 .632.01.948.008v-.016a203.475 203.475 0 0 0 21.857-1.219l7.226-.803a.407.407 0 0 1 .414.233l12.195 25.476 1.848-12.394s1.268.503 2.414 1.394c1.076.837 1.657 1.441 1.657 1.441s.014-10.9.014-25.735c0-15.267-11.032-37.283-47.625-37.988z" fill="#bf9402"/></g></g></svg>