<svg xmlns="http://www.w3.org/2000/svg" viewBox="0 0 128 128"><g id="图层_1"><g><g id="XMLID_638_" fill="#e49500"><path id="XMLID_640_" d="M111.412 66.542s8.822 1.528 8.822 11.027c0 8.381-6.435 11.689-12.87 11.689V66.542h4.048z"/><path id="XMLID_639_" d="M16.588 66.542S7.766 68.07 7.766 77.569c0 8.381 6.435 11.689 12.87 11.689V66.542h-4.048z"/></g><g><path d="M104 32.546c-9.61-14.167-22-19-40-19s-30.39 4.833-40 19c-7.037 10.374-8.743 26.692-6.57 43.5 2.089 16.158 5.82 26 16.18 35.048 9 7.86 19.223 10.521 29.705 10.521.227 0 .457.003.685 0 .228.003.458 0 .685 0 10.482 0 20.705-2.661 29.705-10.521 10.36-9.048 14.091-18.89 16.18-35.048 2.174-16.808.468-33.126-6.57-43.5z" fill="#fbc11b"/></g><path id="XMLID_566_" d="M69.229 90.189c-1.842.522-3.753.776-5.229.776s-3.387-.255-5.229-.776c-.788-.223-1.097.523-.815 1.019.584 1.028 2.937 3.102 6.044 3.102 3.107 0 5.46-2.074 6.044-3.102.282-.496-.027-1.242-.815-1.019z" fill="#e49500"/><path id="XMLID_565_" d="M73.257 99.454h-9.225-9.225c-1.058 0-1.512.834-.813 2.084.979 1.75 4.614 5.115 10.038 5.115s9.058-3.365 10.038-5.115c.698-1.25.244-2.084-.813-2.084z" fill="#513f35"/><path id="XMLID_560_" d="M46.738 78.577c0 4.376-2.928 7.923-6.556 7.923-3.624 0-6.571-3.547-6.571-7.923 0-4.387 2.947-7.935 6.571-7.935 3.627 0 6.556 3.548 6.556 7.935" fill="#444"/><path id="XMLID_558_" d="M94.39 78.577c0 4.376-2.928 7.923-6.556 7.923-3.624 0-6.571-3.547-6.571-7.923 0-4.387 2.947-7.935 6.571-7.935 3.627 0 6.556 3.548 6.556 7.935" fill="#444"/><path d="M59.208 13.681c6.203-.425 11.382 3.074 11.131 8.452-.521 11.168-13.956 9.845-18.891 5.496-.674-.594-1.735-.03-1.645.865.301 2.997 2.2 6.741 6.716 9.56 7.064 4.409 26.981 1.68 26.981-16.008 0-12.875-13.562-17.875-22.083-16.5-7.845 1.266-13.313 7.055-14.095 9.89 3.186-.811 7.311-1.51 11.886-1.755z" fill="#6d4c41"/></g></g></svg>