<svg id="レイヤー_1" xmlns="http://www.w3.org/2000/svg" viewBox="0 0 128 128"><g><path d="M64.002 2.317C24.887 2.317.406 27.034.406 56.757c0 40.92 38.458 68.926 63.596 68.926 25.143 0 63.591-26.209 63.591-68.926.001-29.723-24.47-54.44-63.591-54.44z" fill="#78a3ad"/><path d="M24.6 83.645c-8.514-6.391-10.868-20.25-5.626-26.298 5.268-6.062 18.157-4.96 25.99 2.236 9.52 8.767 10.228 22.671 6.893 26.508-3.324 3.837-17.809 4.636-27.257-2.446z" fill="#006ca2"/><path d="M64.002 110.48c-6.904 0-17.47-2.016-17.47-4.96 0-2.143 6.719-3.924 17.47-3.924 10.74 0 17.465 1.781 17.465 3.924 0 3.072-10.56 4.96-17.465 4.96z" fill="#2f2f2f"/><path d="M103.127 83.645c-9.448 7.082-23.938 6.283-27.261 2.446-3.329-3.837-2.631-17.741 6.898-26.508 7.833-7.196 20.727-8.299 25.984-2.236 5.243 6.048 2.894 19.907-5.621 26.298z" fill="#006ca2"/></g></svg>