<svg xmlns="http://www.w3.org/2000/svg" xmlns:xlink="http://www.w3.org/1999/xlink" viewBox="0 0 128 128"><g id="图层_1"><g id="XMLID_37_"><g id="XMLID_605_" fill="#e59600"><path id="XMLID_607_" d="M106.837 66.25s7.869 1.363 7.869 9.836c0 7.475-5.74 10.426-11.48 10.426V66.25h3.611z"/><path id="XMLID_606_" d="M21.015 66.25s-7.869 1.363-7.869 9.836c0 7.475 5.74 10.426 11.48 10.426V66.25h-3.611z"/></g><path id="XMLID_604_" d="M63.926 10.755c-33.91 0-42.784 26.288-42.784 63.216 0 38.292 24.613 48.194 42.784 48.194 17.905 0 42.784-9.617 42.784-48.194 0-36.929-8.873-63.216-42.784-63.216z" fill="#fcc21b"/><path id="XMLID_603_" d="M49.838 77.4c0 3.813-2.552 6.904-5.713 6.904-3.157 0-5.725-3.091-5.725-6.904 0-3.823 2.568-6.914 5.725-6.914 3.161 0 5.713 3.091 5.713 6.914" fill="#444"/><path id="XMLID_602_" d="M78.007 77.4c0 3.813 2.555 6.904 5.725 6.904 3.154 0 5.721-3.091 5.721-6.904 0-3.823-2.567-6.914-5.721-6.914-3.169 0-5.725 3.091-5.725 6.914" fill="#444"/><path id="XMLID_601_" d="M76.308 100.727H63.927 51.546c-1.42 0-2.029.954-1.091 2.384 1.314 2.002 6.192 5.85 13.472 5.85s12.158-3.848 13.472-5.85c.938-1.43.328-2.384-1.091-2.384z" fill="#513f35"/><path id="XMLID_600_" d="M69.907 90.202c-2.107.597-4.293.888-5.981.888-1.689 0-3.874-.291-5.981-.888-.901-.255-1.255.598-.932 1.166.668 1.176 3.359 3.549 6.913 3.549 3.554 0 6.245-2.373 6.913-3.549.323-.568-.031-1.422-.932-1.166z" fill="#e59600"/><path id="XMLID_599_" d="M64.948 8.931s-.661-.02-.948-.018c-.286-.003-.948.018-.948.018-36.593.705-47.625 28.551-47.625 43.819 0 14.835.014 16.905.014 16.905s.581-.605 1.657-1.441a11.146 11.146 0 0 1 2.414-1.394l1.848 12.394 12.195-25.476a.409.409 0 0 1 .414-.233l7.226.803c7.264.807 14.56 1.197 21.857 1.219v.016c.316.002.632-.008.948-.008.316 0 .632.01.948.008v-.016a203.475 203.475 0 0 0 21.857-1.219l7.226-.803a.407.407 0 0 1 .414.233l12.195 25.476 1.848-12.394s1.268.503 2.414 1.394c1.076.837 1.657 1.441 1.657 1.441s.014-2.07.014-16.905c0-15.268-11.032-43.114-47.625-43.819z" fill="#6d4c41"/><ellipse id="XMLID_38_" cx="64" cy="55.239" rx="55.735" ry="14.556" fill="#c2c2c2"/><ellipse id="XMLID_39_" cx="64" cy="52.597" rx="55.735" ry="14.556" fill="#eee"/><g id="XMLID_40_"><defs><path id="XMLID_48_" d="M113.76 50.635c-.823-15.683-12.644-42.025-48.788-42.704 0 0-.678-.02-.972-.018-.294-.003-.972.018-.972.018-36.144.679-47.965 27.021-48.788 42.704 0 12.278 99.52 12.278 99.52 0z"/></defs><use xlink:href="#XMLID_48_" overflow="visible" fill="#d8d8d8"/><clipPath id="XMLID_2_"><use xlink:href="#XMLID_48_" overflow="visible"/></clipPath><path id="XMLID_43_" d="M41.876 10.917l8.888-3.004v30.378c-1.805-13.124-4.388-22.624-8.888-27.374z" clip-path="url(#XMLID_2_)" fill="#c2c2c2"/><path d="M86.124 10.917l-8.888-3.004v30.378c1.805-13.124 4.388-22.624 8.888-27.374z" clip-path="url(#XMLID_2_)" fill="#c2c2c2"/></g><path d="M74.299 52.597H53.701a3.415 3.415 0 0 1-3.416-3.416V8.252a3.415 3.415 0 0 1 3.416-3.416H74.3a3.415 3.415 0 0 1 3.416 3.416v40.929a3.418 3.418 0 0 1-3.417 3.416z" fill="#e5e5e5"/><g id="XMLID_50_" fill="#5cb704"><path d="M52.5 40.705v-4.007c0-1.103.894-1.996 1.996-1.996h19.007c1.103 0 1.996.894 1.996 1.996v4.007a1.996 1.996 0 0 1-1.996 1.996H54.496a1.996 1.996 0 0 1-1.996-1.996z"/><path d="M61.996 27.201h4.007c1.103 0 1.996.894 1.996 1.996v19.007a1.996 1.996 0 0 1-1.996 1.996h-4.007A1.996 1.996 0 0 1 60 48.204V29.198c0-1.103.894-1.997 1.996-1.997z"/></g></g></g></svg>