<svg xmlns="http://www.w3.org/2000/svg" viewBox="0 0 128 128"><g id="图层_1"><ellipse cx="63.833" cy="17.195" rx="25.066" ry="15.351" fill="#bdbdbd"/><g id="XMLID_578_" fill="#e49500"><path id="XMLID_635_" d="M106.911 66.042s7.869 1.363 7.869 9.836c0 7.475-5.74 10.426-11.48 10.426V66.042h3.611z"/><path id="XMLID_634_" d="M21.089 66.042s-7.869 1.363-7.869 9.836c0 7.475 5.74 10.426 11.48 10.426V66.042h-3.611z"/></g><path id="XMLID_577_" d="M64.002 14.868c-33.112 0-42.954 23.356-42.954 58.912s26.862 48.359 42.954 48.359c16.092 0 42.614-13.137 42.614-48.693.001-35.556-9.502-58.578-42.614-58.578z" fill="#e1f5fe"/><path id="XMLID_576_" d="M49.912 77.192c0 3.813-2.552 6.904-5.713 6.904-3.157 0-5.725-3.091-5.725-6.904 0-3.823 2.568-6.914 5.725-6.914 3.161 0 5.713 3.091 5.713 6.914" fill="#e1f5fe"/><path id="XMLID_575_" d="M78.081 77.192c0 3.813 2.555 6.904 5.725 6.904 3.154 0 5.721-3.091 5.721-6.904 0-3.823-2.567-6.914-5.721-6.914-3.17 0-5.725 3.091-5.725 6.914" fill="#e1f5fe"/><path id="XMLID_573_" d="M76.381 100.519H64 51.619c-1.42 0-2.029.954-1.091 2.384 1.314 2.002 6.192 5.85 13.472 5.85s12.158-3.848 13.472-5.85c.939-1.43.329-2.384-1.091-2.384z" fill="#e1f5fe"/><path id="XMLID_572_" d="M69.981 89.994c-2.107.597-4.293.888-5.981.888-1.689 0-3.874-.291-5.981-.888-.901-.255-1.255.598-.932 1.166.669 1.176 3.359 3.549 6.913 3.549 3.554 0 6.245-2.373 6.913-3.549.323-.568-.031-1.421-.932-1.166z" fill="#e1f5fe"/><path id="XMLID_571_" d="M64.002 14.868c-33.112 0-42.954 23.356-42.954 58.912s26.862 48.359 42.954 48.359c16.092 0 42.614-13.137 42.614-48.693.001-35.556-9.502-58.578-42.614-58.578z" fill="#fbc11b"/><path id="XMLID_570_" d="M49.912 77.192c0 3.813-2.552 6.904-5.713 6.904-3.157 0-5.725-3.091-5.725-6.904 0-3.823 2.568-6.914 5.725-6.914 3.161 0 5.713 3.091 5.713 6.914" fill="#444"/><path id="XMLID_569_" d="M78.081 77.192c0 3.813 2.555 6.904 5.725 6.904 3.154 0 5.721-3.091 5.721-6.904 0-3.823-2.567-6.914-5.721-6.914-3.17 0-5.725 3.091-5.725 6.914" fill="#444"/><path id="XMLID_568_" d="M76.381 100.519H64 51.619c-1.42 0-2.029.954-1.091 2.384 1.314 2.002 6.192 5.85 13.472 5.85s12.158-3.848 13.472-5.85c.939-1.43.329-2.384-1.091-2.384z" fill="#513f35"/><path id="XMLID_559_" d="M69.981 89.994c-2.107.597-4.293.888-5.981.888-1.689 0-3.874-.291-5.981-.888-.901-.255-1.255.598-.932 1.166.669 1.176 3.359 3.549 6.913 3.549 3.554 0 6.245-2.373 6.913-3.549.323-.568-.031-1.421-.932-1.166z" fill="#e49500"/><path d="M22.086 72.229c-.311 1.611-2.604 1.629-2.953.026-3.787-17.403-1.558-38.077 8.241-49.959C37.375 10.171 65 3.488 65 13.561v16.018c0 12.167-15.72 13.96-22.25 16.005-11.494 3.6-18.483 15.352-20.664 26.645z" fill="#e0e0e0"/><path d="M105.914 72.229c.311 1.611 2.604 1.629 2.953.026 3.787-17.403 1.558-38.077-8.241-49.959C90.625 10.171 63 3.488 63 13.561v16.018c0 12.167 15.72 13.96 22.25 16.005 11.494 3.6 18.483 15.352 20.664 26.645z" fill="#e0e0e0"/><g opacity=".5"><path d="M49.743 53.213a60.34 60.34 0 0 1 28.179 0" fill="none" stroke="#e49500" stroke-width="3" stroke-linecap="round" stroke-linejoin="round" stroke-miterlimit="10"/></g><g opacity=".5"><path d="M48.166 62.38a67.119 67.119 0 0 1 31.333 0" fill="none" stroke="#e49500" stroke-width="3" stroke-linecap="round" stroke-linejoin="round" stroke-miterlimit="10"/></g><g fill="none" stroke="#e49500" stroke-width="3" stroke-linecap="round" stroke-linejoin="round" stroke-miterlimit="10"><g><path d="M50.768 92.892s-8.355 4.421-10.521 15.254" opacity=".5"/><path d="M51.747 84.096s-2.667 4.95-9 4.95" opacity=".5"/></g><g><path d="M76.897 92.892s8.355 4.421 10.521 15.254" opacity=".5"/><path d="M75.918 84.096s2.667 4.95 9 4.95" opacity=".5"/></g></g></g></svg>