<svg id="レイヤー_1" xmlns="http://www.w3.org/2000/svg" viewBox="0 0 128 128"><g><g><path d="M116.844 11.165C109.792 4.109 100.413.224 90.439.224S71.09 4.109 64.034 11.165L36.733 38.463l-.106.106-.155.159-.026.025-3.493 3.568c-1.514 1.625-2.036 3.436-2.044 5.166l-20.399 20.4C3.881 74.511.234 83.324.234 92.693c0 9.37 3.647 18.184 10.275 24.807 6.623 6.628 15.437 10.275 24.806 10.275 9.37 0 18.183-3.647 24.807-10.275L80.95 96.667c1.784 0 3.664-.529 5.321-2.127l2.685-2.738c.106-.088.225-.164.327-.266l27.562-27.561c14.561-14.562 14.561-38.251-.001-52.81z" fill="#006ca2"/></g><path d="M16.903 111.106c-4.919-4.919-7.625-11.458-7.625-18.413 0-6.958 2.707-13.494 7.625-18.412L40.844 50.34c2.027.478 10.694 3.092 22.215 14.607 11.555 11.56 14.143 20.231 14.606 22.218l-23.937 23.941c-4.919 4.919-11.458 7.625-18.413 7.625s-13.493-2.706-18.412-7.625z" fill="#fff"/><path d="M102.034 14.266a6.107 6.107 0 0 0-.512.039c-1.192.15-2.362.42-3.519.729-.675.186-1.355.371-2.018.602-5.206 1.827-9.899 5.023-13.785 8.909L61.168 45.57l-.932.937c-6.354-3.735-10.262-4.265-10.262-4.265l24.961-24.961a25.936 25.936 0 0 1 3.043-2.575 27.24 27.24 0 0 1 14.09-5.21 28.97 28.97 0 0 1 7.326.41c1.28.239 6.38 1.042 6.15 3.118-.132 1.183-2.278 1.189-3.51 1.242z" fill="#fff"/><path d="M63.99 80.118L45.666 98.443c-3.241 3.24-7.157 5.907-11.502 7.431a22.429 22.429 0 0 1-4.619 1.112c-.826.102-3.227-.078-3.355 1.066-.19 1.735 4.062 2.401 5.13 2.604 2.009.371 4.071.49 6.111.34 5.365-.393 10.487-2.689 14.297-6.495 0 0 11.118-11.118 17.119-17.115 0 0-1.841-4.424-4.857-7.268z" fill="#006ca2"/></g></svg>