<svg xmlns="http://www.w3.org/2000/svg" viewBox="0 0 128 128"><g id="图层_1"><path id="XMLID_2469_" d="M28.511 113.532C22 91.192 22 45.39 22 45.39l84-.335s0 41.491-4.884 68.189l-72.605.288z" fill="#6d4c41"/><g id="XMLID_2238_"><ellipse id="XMLID_2239_" cx="64" cy="46.114" rx="42" ry="39.499" fill="#6d4c41"/></g><path id="XMLID_1678_" d="M20.429 118.092v9.887h87.143v-9.887c0-15.168-21.386-22.868-43.24-22.842-21.718.026-43.903 6.779-43.903 22.842z" fill="#651fff"/><path id="XMLID_791_" d="M63.947 90.246h-9.082v9.593c0 4.338 3.697 7.856 8.257 7.856h1.651c4.56 0 8.257-3.517 8.257-7.856v-9.593h-9.083z" fill="#e59900"/><path id="XMLID_2373_" d="M63.893 13.574c-24.347 0-30.719 18.874-30.719 45.388S52.06 93.565 63.893 93.565c11.832 0 30.719-8.089 30.719-34.603 0-26.514-6.371-45.388-30.719-45.388z" fill="#fcc21b"/><path id="XMLID_592_" d="M56.238 58.468c.408.175.404.932-.222 2.226-.891 1.841-2.292 2.816-3.687 3.255-1.62.51-4.659.703-7.063-1.63-2.385-2.314-1.201-3.337-.281-2.832.936.514 2.524 1.161 4.017 1.29 1.552.135 3.618-.337 4.923-1.016 1.104-.575 1.843-1.495 2.313-1.293z" fill="#444"/><path id="XMLID_591_" d="M71.348 58.508c-.407.177-.398.934.236 2.224.903 1.835 2.31 2.801 3.708 3.232 1.623.5 4.663.673 7.053-1.676 2.371-2.329 1.179-3.344.263-2.833-.933.52-2.516 1.177-4.009 1.316-1.551.145-3.62-.313-4.929-.984-1.109-.568-1.853-1.483-2.322-1.279z" fill="#444"/><path id="XMLID_3004_" d="M73.073 34.427c-3.234 3.107-19.29 17.578-41.418 21.355V26.115S41.206 7.163 64.128 7.163s32.473 19.43 32.473 19.43v29.19S81.582 50.018 74.039 34.61a.605.605 0 0 0-.966-.183z" fill="#6d4c41"/><path id="XMLID_2368_" d="M68.354 68.687c-1.571.445-3.201.662-4.46.662s-2.889-.217-4.46-.662c-.672-.19-.936.446-.695.869.499.877 2.505 2.646 5.155 2.646 2.65 0 4.657-1.769 5.155-2.646.24-.423-.024-1.059-.695-.869z" fill="#e59600"/><path id="XMLID_505_" d="M68.241 82.03c0 2.181-1.947 2.637-4.348 2.637s-4.348-.503-4.348-2.637c0-2.244 1.947-3.633 4.348-3.633s4.348 1.342 4.348 3.633z" fill="#513f35"/><path id="XMLID_473_" d="M37.383 7.958l-2.196 15.583c-.352 2.497.177 5.071 1.626 7.134.186.265.378.508.57.713 1.746 1.863 5.726 2.818 5.726 2.818 1.002-.004 1.585 1.132.998 1.944l-.359.496a4.192 4.192 0 0 1-3.944 1.699l-3.448-.454c-.372-.157-1.681.035-2.05.199a5.047 5.047 0 0 0-2.99 4.609V56.78a2.44 2.44 0 0 1-2.621 2.434 1.546 1.546 0 0 1-1.427-1.417l-1.703-14.811-.419-12.437 1.601-9.361.591-13.232h10.045z" fill="#fcc21b"/><path id="XMLID_17_" d="M91.859 7.958l2.196 15.583c.352 2.497-.177 5.071-1.626 7.134a6.589 6.589 0 0 1-.57.713c-1.746 1.863-5.726 2.818-5.726 2.818-1.002-.004-1.585 1.132-.998 1.944l.359.496a4.192 4.192 0 0 0 3.944 1.699l3.448-.454c.372-.157 1.681.035 2.05.199a5.047 5.047 0 0 1 2.99 4.609V56.78a2.44 2.44 0 0 0 2.621 2.434 1.546 1.546 0 0 0 1.427-1.417l1.703-14.811.419-12.437-1.601-9.361-.591-13.232H91.859z" fill="#fcc21b"/><path id="XMLID_3382_" opacity=".54" d="M89.437 119.535h3V128h-3z"/><path id="XMLID_3424_" opacity=".54" d="M35.349 119.535h3V128h-3z"/></g></svg>