<svg id="レイヤー_1" xmlns="http://www.w3.org/2000/svg" viewBox="0 0 128 128"><g fill="#78a3ad"><path d="M104.081 49.574c-1.511-2.239-3.076-4.551-3.651-7.241-.235-1.11-1.541-5.462.03-6.082.865-.34 1.016.9 1.221 1.45 1.155 3.062 1.585 6.012 3.726 8.604 1.551 1.88 3.371 3.561 4.791 5.531-.046-27.298-11.234-49.964-46.193-49.964-34.819 0-46.062 22.486-46.202 49.633 1.385-1.84 3.106-3.431 4.571-5.2 2.141-2.592 2.571-5.542 3.726-8.604.205-.55.365-1.79 1.215-1.45 1.576.62.27 4.972.036 6.082-.576 2.69-2.141 5.002-3.647 7.241-1.616 2.4-3.791 4.563-4.616 7.402-.416 1.421-.805 2.83-.775 4.311.2 1.761.44 3.512.78 5.253 1.09 5.591 3.796 14.473 8.967 17.623 3.997 2.432 8.913.962 12.503 4.353 3.07 2.91 3.411 7.231 7.667 9.013 3.746 1.569 8.797 1.61 13.099 1.61 4.616 0 8.842.059 13.073-.991 4.001-1.001 8.372-2.881 11.188-6.042.475-.529.845-1.12 1.19-1.721.82-1.44 1.476-2.961 2.951-3.991 2.09-1.46 4.852-1.399 7.212-2.169 5.431-1.791 6.707-6.352 9.152-10.953 1.646-3.091 2.621-6.202 3.221-9.393.09-.86.135-1.721.155-2.581.025-1.48-.365-2.9-.78-4.321-.819-2.84-3-5.002-4.61-7.403zM45.1 71.23c-13.533 3.911-18.545-7.932-13.894-15.864 2.491-4.251 7.762-7.382 15.974-6.361 13.309 1.65 8.282 19.215-2.08 22.225zm22.716 12.754c-1.716.199-3.256.399-4.951.179-2.131-.27-5.446.231-6.847-1.829-.52-.761-.514-1.621-.435-2.491.041-.47.105-.95.115-1.42.055-2.021.726-3.962 1.605-5.763.43-.89.931-1.789 1.395-2.689 1.081-2.071 3.711-4.611 6.287-3.521 1.061.45 2.431 1.311 3.021 2.321.661 1.141.77 2.5 1.346 3.671.53 1.07.75 2.09.93 3.301.16 1.09.285 2.2.396 3.29.249 2.401-.081 4.62-2.862 4.951zM82.66 71.23c-10.362-3.011-15.389-20.575-2.085-22.226 8.217-1.021 13.483 2.11 15.979 6.361 4.651 7.934-.366 19.777-13.894 15.865z"/><path d="M94.843 88.666c-5.731-1.602-4.906 8.151-6.932 11.053-2.926 4.19-9.223 3.641-13.694 4.141-5.221.59-9.923 1-15.344 1-6.421 0-15.659.83-20.405-4.521-2.571-2.901-1.396-6.553-3.306-9.482-1.711-2.621-5.592-3.452-5.612.629-.015 3.142.801 6.462 1.335 9.533.726 4.151 1.69 8.002 3.581 11.792 1.365 2.731 3.696 4.612 6.001 6.543 2.756 2.311 5.671 3.091 9.078 4.161 1.641.51 3.296.99 4.986 1.229 2.061.3 4.236.271 6.327.54 3.141.401 7.012 1.291 10.228.571 5.146-1.141 10.187-3.861 15.014-5.802 9.822-3.941 12.493-15.384 12.493-25.067.001-3.02-.479-5.411-3.75-6.32z"/></g></svg>