<svg xmlns="http://www.w3.org/2000/svg" viewBox="0 0 128 128"><g id="Layer_2"><g><g id="XMLID_874_"><path id="XMLID_875_" d="M35.644 19.17s0 15.558 2.005 22.792c.988 3.565 2.219 5.811 5.178 3.59l11.475-.114c2.954 2.254 5.071.093 5.708-3.568 1.504-8.645 1.504-22.699 1.504-22.699h-25.87z" fill="#6d4c41"/></g><path d="M38.657 41.404s5.886-6.259 17.979-4.034c1.8.331 5.119.095 7.55-1.381l1.133 9.67s-7.685 5.563-20.749 4.945" fill="#fbc11b"/><g><g><circle cx="77.203" cy="31.472" r="3.726" fill="#fbc11b"/><g><path d="M63.669 45.437c1.072.021 3.012-.709 3.871-1.376 4.699-3.647 9.631-7.715 11.93-9.62l-4.615-5.821-1.64 1.173c-3.161 2.368-12.727 8.079-12.727 8.079s2.35 7.549 3.181 7.565z" fill="#fbc11b"/></g><g><path d="M68.254 16.798l3.384 10.218a56.967 56.967 0 0 1 1.548 5.927l7.493-2.8c-2.11-6.348-5.378-9.881-7.453-14.866-.68-1.962-1.324-1.987-3.215-1.129-1.651.747-2.339.932-1.757 2.65z" fill="#fbc11b"/></g></g><path id="XMLID_1926_" d="M70.488 16.995c1.477-.855 2.34-1.64 4.064-3.276 0 0 2.868-3.097 5.008-4.708.466-.351.229-1.248-.45-1.193-1.493.286-5.02 3.307-5.02 3.307-.411-1.156-1.791-.488-2.448.098l-3.046 2.686c-1.76 1.552.031 4.189 1.892 3.086z" fill="#fbc11b"/></g><g><circle cx="28.959" cy="56.504" r="3.726" fill="#fbc11b"/><g><path d="M40.605 40.931c-1.066.116-2.897 1.087-3.664 1.857-4.196 4.216-8.571 8.878-10.609 11.06l5.318 5.186 1.478-1.372c2.833-2.751 11.595-9.633 11.595-9.633s-3.291-7.188-4.118-7.098z" fill="#fbc11b"/></g><g><path d="M43.031 66.079l-7.286-7.923a56.51 56.51 0 0 1-3.847-4.766l-5.679 5.634c4.533 4.919 8.786 6.708 12.727 10.399 1.426 1.509 3.574-.205 3.574-.205 1.196-1.362 1.747-1.813.511-3.139z" fill="#fbc11b"/></g><path id="XMLID_1927_" d="M40.323 66.741c-.685 1.563-.916 2.706-1.338 5.046 0 0-.479 4.193-1.251 6.758-.168.559.554 1.142 1.069.696 1.034-1.115 2.089-5.637 2.089-5.637 1.015.688 1.733-.666 1.916-1.527l.866-3.968c.5-2.292-2.504-3.359-3.351-1.368z" fill="#fbc11b"/></g><path d="M79.691 79.64c1.669.165-6.131-8.289-10.717-10.964-3.95-2.303-5.28-6.069-5.808-9.702-.528-3.633 1.847-5.967 2.105-9.254.414-5.275-3.553-6.243-5.53-8.538-1.977-2.294-4.356-4.584-4.356-4.584h-1.187c1.583 1.829 5.673 10.308 2.042 12.011-3.631 1.703-11.728-10.908-11.728-10.908l-1.439.425c-3.579 1.211-7.174 4.539-7.124 4.896.057.407 7.797 8.674 10.224 12.025.837 1.045 3.062 5.011 2.247 8.275-5.88 12.358-.465 14.793.369 19.074.834 4.279-2.205 23.318-14.893 31.434l12.275 2.892 8.663-7.454 11.901-1.782 4.195-8.609-2.592-15.741 2.592-2.837 8.761-.659z" fill="#dd2c00"/><path d="M55.385 36.599c2.918 0 3.584.638 6.92-.364.396-.119 1.14.317 1.474.56 1.271.927 2.23 2.215 3.081 3.538.793 1.234 1.54 2.611 1.475 4.076-.023.532-3.759 3.395-5.097 2.951-1.838-.609-3.359-3.433-4.16-5.196-.803-1.761-2.396-4.127-3.693-5.565" fill="#dd2c00"/><g><g id="XMLID_872_"><ellipse id="XMLID_873_" transform="rotate(-4.289 48.579 19.188)" cx="48.573" cy="19.175" rx="12.935" ry="11.628" fill="#6d4c41"/></g><path id="XMLID_871_" d="M50.184 40.661c-1.967.147-3.527-1.064-3.674-3.032l-.256-3.425 6.85-.513.256 3.425c.147 1.968-1.209 3.398-3.176 3.545z" fill="#e7a13d"/><path id="XMLID_870_" d="M53.355 37.053s-1.266.628-3.382.786c-2.115.158-3.463-.209-3.463-.209l-.251-3.361c-.067-.898.454-1.918 1.352-1.985l3.872-.29c.898-.067 1.554.8 1.621 1.698l.251 3.361z" fill="#e7a13d"/><g id="XMLID_867_"><path id="XMLID_868_" d="M47.914 10.373c-7.931.593-9.546 6.896-8.9 15.533.646 8.636 6.995 10.811 10.849 10.522 3.854-.288 9.809-3.383 9.162-12.02-.645-8.636-3.18-14.629-11.111-14.035z" fill="#fbc11b"/></g><g id="XMLID_864_"><path id="XMLID_866_" d="M51.447 16.921c-.979 1.092-5.863 6.204-12.988 7.976l-.724-9.677s2.653-6.415 10.129-6.974 11.066 5.545 11.066 5.545l.712 9.521s-5.039-1.514-7.876-6.355a.198.198 0 0 0-.319-.036z" fill="#6d4c41"/></g><g><g><path id="XMLID_2333_" d="M45.698 25.971c.067.911-.488 1.694-1.243 1.749-.754.055-1.422-.638-1.489-1.548-.067-.913.492-1.696 1.246-1.752.756-.056 1.419.638 1.486 1.551" fill="#c07b47"/><path id="XMLID_2332_" d="M52.427 25.476c.067.911.732 1.604 1.489 1.548.753-.055 1.312-.839 1.245-1.749-.067-.913-.735-1.606-1.488-1.551-.758.056-1.314.839-1.246 1.752" fill="#c07b47"/><path id="XMLID_2331_" d="M52.447 31.076l-2.957.217-2.957.217c-.339.025-.468.264-.219.588.349.455 1.582 1.289 3.32 1.161 1.739-.128 2.836-1.133 3.115-1.634.2-.356.037-.574-.302-.549z" fill="#c07b47"/><path id="XMLID_2330_" d="M50.734 28.675c-.493.18-1.01.287-1.413.317a5.53 5.53 0 0 1-1.444-.107c-.22-.045-.289.165-.202.295.18.269.865.789 1.714.726.849-.062 1.45-.676 1.589-.969.066-.141-.033-.339-.244-.262z" fill="#e7a13d"/></g></g></g><path d="M27.571 120.59c-1.574-1.012-2.705-3.138-2.009-4.874 2.55-6.362 15.529.137 20.094-2.145 3.918-1.959 3.726-8.601 8.502-10.423 2.716-1.036 5.868 2.596 8.776 2.622 4.547.04 5.48-10.137 3.923-15.777-.81-2.935-2.726-8.845.578-11.849 4.151-3.774 6.324-1.902 8.299-2.997 2.02-1.12 3.595-1.524 4.043-4.325.795-4.975 7.019-4.391 8.854-4.134 10.196 1.43 6.764 7.774 8.277 10.053 1.101 1.659 4.803-.002 5.776 3.03.901 2.807-1.235 5.066-1.475 5.635-.61 1.446.167 2.529.872 3.932.675 1.343.038 3.064-1.119 4.023-1.158.959-2.703 1.301-4.199 1.449-2.819.28-5.541.049-6.661 1.169-1.737 1.737-1.102 3.806-2.659 5.707-2.139 2.612-3.882 1.766-5.473 3.221-2.21 2.021-1.784 5.647-1.628 7.396s-.638 3.803-2.342 4.231c-1.574.396-4.449-1.42-7.632.905-2.375 1.734-9.791-1.904-13.336-.175-1.617.789-3.242 4.638-5.621 5.609-2.718 1.11-7.012-1.096-8.956-1.182-4.992-.219-7.836 3.429-14.884-1.101z" fill="#b42002"/><path d="M35.106 43.659c-.221.221-.456.471-.477.782-.016.23.089.449.196.653 1.249 2.37 3.452 4.712 5.545 6.383.221.177.456.357.734.411.362.071 2.168-1.253 2.286-1.387.328-.374.108-.953-.125-1.392-.802-1.515-1.62-3.047-2.783-4.307-1.163-1.259-2.403-2.255-4.115-2.353 0 .001-.941.891-1.261 1.21z" fill="#dd2c00"/><g><path d="M96.072 119.778c1.633 1.003 4.822 4.135 5.713 5.832.255.486.496 1.674.166 2.113-.275.367-6.547.782-11.064-1.72-.39-.216-.899-1.03-1.061-1.35-.304-.601-.754-.66-.821-.037-.589-.025-1.007.025-1.595 0-.457-4.088-1.152-3.627-1.109-6.5.035-2.332 1.636-2.845 2.266-3.094.097-.038 5.102 3.017 7.505 4.756z" fill="#b42002"/><path d="M84.198 91.494c3.979 8.127 5.616 11.731 9.191 20.043l2.703 6.286c.325.756.887 2.546.747 3.357-.218 1.268-1.704 1.28-3.114 1.046-1.269-.21-1.895-.859-2.763-1.808-1.955-2.136-1.981-4.925-3.2-7.551-2.23-4.803-8.642-12.005-11.514-16.454-1.435-2.224.384-3.413 2.405-4.678 1.946-1.217 4.633-2.163 5.545-.241z" fill="#fbc11b"/></g><path d="M50.542 86.378c.706-.254 1.836 3.853 1.592 5.623-.513 3.732-3.458 7.765-3.778 7.557-.399-.26 1.709-4.898 2.097-7.067.552-3.085-.149-6.028.089-6.113z" opacity=".5" fill="#b42002"/><path d="M61.746 87.521c.672-.356 2.279 4.071 2.246 6.056-.071 4.185-2.524 8.96-2.867 8.764-.428-.245 1.122-5.602 1.253-8.044.185-3.474-.858-6.656-.632-6.776z" opacity=".5" fill="#b42002"/><g><path d="M50.97 115.022c-2.307 0-4.645 4.174-5.064 6.711-.056.337-.085 1.445-.085 1.71 0 .901 10.055.933 10.055-.036 0-.265.016-1.336-.039-1.673-.418-2.536-2.56-6.712-4.867-6.712" fill="#7f1301"/><g fill="#7f1301"><path d="M45.875 123.223c-.217.337.242 1.145.965 1.145 1.402 0 2.707.004 4.01.008v-3.254c-1.289 0-4.324 1.091-4.975 2.101z"/><path d="M55.826 123.223c.217.337-.242 1.145-.965 1.145-1.402 0-2.707.004-4.01.008v-3.254c1.289 0 4.324 1.091 4.975 2.101z"/></g><g><path d="M54.13 116.667l2.778-6.841c.607-1.953-5.666-2.464-6.058-.946-.365 1.412-1.472 5.099-1.841 7.132-.57 1.996.132 2.746 2.172 3.131 1.783.335 2.44-.735 2.949-2.476z" fill="#e7a13d"/></g></g></g></g></svg>