<svg id="レイヤー_1" xmlns="http://www.w3.org/2000/svg" xmlns:xlink="http://www.w3.org/1999/xlink" viewBox="0 0 128 128"><g><defs><path id="SVGID_1_" d="M0 0h128v128H0z"/></defs><clipPath id="SVGID_2_"><use xlink:href="#SVGID_1_" overflow="visible"/></clipPath><g clip-path="url(#SVGID_2_)"><path d="M14.269 112.534l-.684-.878-1.979-2.443-3.079-3.552a163.452 163.452 0 0 0-4.199-4.504 283.628 283.628 0 0 0-5.165-5.185 431.874 431.874 0 0 0-5.888-5.695 662.563 662.563 0 0 0-13.138-12.145c-4.541-4.091-9.178-8.114-13.537-11.904l-6.308-5.459-2.9-2.486a55.364 55.364 0 0 0-2.381-1.915c-1.419-1.062-2.41-1.615-3.251-1.976a11.88 11.88 0 0 0-3.799-.931c-.347-.027-.53-.028-.53-.028-6.922-.019-12.518-5.646-12.499-12.568.019-6.922 5.646-12.518 12.568-12.499.436.001.867.025 1.291.069l1.171.127s.589.063 1.676.252c1.085.192 2.672.507 4.623 1.118a36.217 36.217 0 0 1 6.772 2.887c2.511 1.373 5.045 3.241 7.197 5.142a80.415 80.415 0 0 1 3.065 2.854l2.808 2.752 5.998 5.869 6.416 6.322 6.612 6.59A678.345 678.345 0 0 1 8.03 75.57a453.551 453.551 0 0 1 5.824 6.246L19 87.506l7.759 8.588 2.136 2.307.772.803c3.903 4.059 3.777 10.514-.282 14.417s-10.514 3.777-14.417-.282a10.483 10.483 0 0 1-.699-.805z" fill="#fac036"/></g><g clip-path="url(#SVGID_2_)"><path d="M66.368 67.27L54.28 61.432l-5.855-2.828-1.579-.763-1.513-.706-3.374-1.586c-4.546-2.14-9.291-4.36-13.97-6.333-4.679-1.972-9.301-3.678-13.612-4.935a86.87 86.87 0 0 0-6.184-1.568 56.824 56.824 0 0 0-5.301-.859c-3.244-.363-5.81-.335-7.543-.205a29.28 29.28 0 0 0-1.986.196l-.689.092-.167.022c-6.847.917-13.142-3.89-14.059-10.737s3.89-13.142 10.737-14.059c.254-.034.544-.062.796-.081l1.232-.085c.802-.052 1.978-.11 3.455-.111 2.957-.024 7.125.225 11.843 1.068 2.37.423 4.83.972 7.438 1.695 2.506.698 5.132 1.544 7.742 2.485 5.248 1.893 10.573 4.262 15.643 6.779 5.07 2.52 9.899 5.161 14.32 7.585l3.233 1.771 1.689.921 1.529.858 5.669 3.184 11.704 6.573c4.745 2.664 6.431 8.671 3.767 13.415-2.56 4.559-8.23 6.281-12.877 4.05z" fill="#fac036"/></g><path d="M65.948 45.902l11.273 5.989c8.499 4.516 13.355 8.441 10.567 13.688-2.766 5.207-8.645 3.481-17.258-1.095l-11.273-5.989s-.345-2.926 1.864-7.084c2.3-4.329 4.827-5.509 4.827-5.509z" clip-path="url(#SVGID_2_)" fill="#d7598b"/><path d="M21.992 92.077l8.298 9.7c6.257 7.313 9.338 12.744 4.823 16.606-4.48 3.833-9.319.075-15.659-7.336l-8.298-9.7s.75-2.85 4.327-5.91c3.726-3.186 6.509-3.36 6.509-3.36z" clip-path="url(#SVGID_2_)" fill="#d7598b"/><path d="M108.567 45.657c.04-.646-.132-1.285-.334-1.9-.524-1.586-1.294-3.137-2.53-4.26-1.236-1.123-3.002-1.757-4.617-1.333-2.373.623-3.638 3.138-4.629 5.383-1.035 2.342-2.11 4.707-3.748 6.675s-1.611 4.343-4.164 4.541c2.12 1.082 2.548.252 4.668 1.333.764.39 1.535.782 2.361 1.013 2.933.819 4.893.136 7.037-2.027 2.144-2.162 4.05-4.609 5.311-7.38.297-.654.6-1.327.645-2.045z" clip-path="url(#SVGID_2_)" fill="#2f2f2f"/><path d="M85.491 53.687c.8.178 2.779.242 3.46-.212 3.699-2.467 6.924-5.844 8.671-9.932a8.541 8.541 0 0 1-2.154 5.535 19.728 19.728 0 0 0 5.611-8.19c1.094 4.11-.426 8.458-2.387 12.232a20.634 20.634 0 0 0 5.631-8.013c.176 1.848-1.268 7.905-2.135 8.835 1.334-1.404 5.536-5.513 5.236-6.11.497 2.121-3.444 8.049-7.416 9.481-.826.298-1.695.513-2.572.484-2.252-.073-4.42-.453-6.453-1.425-1.48-.708-4.655-1.745-5.492-2.685z" clip-path="url(#SVGID_2_)" fill="#d7598b"/><path d="M127.999-1.014c2.495 1.407 4.268 2.977 3.968 3.509L109.37 42.567c-.3.532-2.559-.176-5.054-1.583-2.488-1.403-4.264-2.97-3.963-3.502l22.596-40.071c.301-.533 2.562.172 5.05 1.575z" clip-path="url(#SVGID_2_)" fill="#f48120"/><g clip-path="url(#SVGID_2_)"><path d="M71.383 51.168s.273.07.73.228c.231.075.504.177.817.296.309.108.673.277 1.022.41a25.89 25.89 0 0 1 2.532 1.239 31.557 31.557 0 0 1 2.728 1.731c.91.619 1.773 1.304 2.572 1.954a36.052 36.052 0 0 1 2.09 1.892c1.178 1.158 1.856 2.037 1.856 2.037l-.655.755s-.947-.551-2.297-1.429l-4.914-3.217c-.895-.575-1.781-1.163-2.615-1.713A93.05 93.05 0 0 1 73 53.781c-.358-.265-.638-.47-.901-.688-.26-.209-.485-.392-.665-.553-.365-.313-.562-.512-.562-.512l.511-.86z" fill="#fff"/></g><g clip-path="url(#SVGID_2_)"><path d="M25.488 101.431l.496.339.554.405.692.531c1.034.798 2.334 1.993 3.494 3.301a33.55 33.55 0 0 1 2.973 3.78 28.743 28.743 0 0 1 1.142 1.865l-.811.585-1.446-1.58c-.862-.947-1.999-2.21-3.164-3.445l-3.216-3.394c-.238-.261-.424-.464-.599-.671l-.44-.524-.37-.47.695-.722z" fill="#fff"/></g><g clip-path="url(#SVGID_2_)"><path d="M40.436 103.034l-.684-.878-1.979-2.443-3.079-3.552a163.452 163.452 0 0 0-4.199-4.504 283.628 283.628 0 0 0-5.165-5.185 431.874 431.874 0 0 0-5.888-5.695A662.563 662.563 0 0 0 6.304 68.632c-4.541-4.091-9.178-8.114-13.537-11.904l-6.308-5.459-2.9-2.486a55.364 55.364 0 0 0-2.381-1.915c-1.419-1.062-2.41-1.615-3.251-1.976a11.88 11.88 0 0 0-3.799-.931c-.347-.027-.53-.028-.53-.028-6.922-.019-12.518-5.646-12.499-12.568.019-6.922 5.646-12.518 12.568-12.499.436.001.867.025 1.291.069l1.171.127s.589.063 1.676.252c1.085.192 2.672.507 4.623 1.118a36.217 36.217 0 0 1 6.772 2.887c2.511 1.373 5.045 3.241 7.197 5.142a80.415 80.415 0 0 1 3.065 2.854l2.808 2.752 5.998 5.869 6.416 6.322 6.612 6.59A678.345 678.345 0 0 1 34.197 66.07a453.551 453.551 0 0 1 5.824 6.246l5.146 5.69 7.759 8.588 2.136 2.307.772.803c3.903 4.059 3.777 10.514-.282 14.417s-10.514 3.777-14.417-.282a10.269 10.269 0 0 1-.699-.805z" fill="#fac036"/></g><path d="M48.159 82.577l8.298 9.7c6.257 7.313 9.338 12.744 4.823 16.606-4.48 3.833-9.319.075-15.659-7.336l-8.298-9.7s.75-2.85 4.327-5.91c3.725-3.186 6.509-3.36 6.509-3.36z" clip-path="url(#SVGID_2_)" fill="#d7598b"/><g clip-path="url(#SVGID_2_)"><path d="M51.655 91.931l.496.339.554.405.692.531c1.034.798 2.334 1.993 3.494 3.301a33.55 33.55 0 0 1 2.973 3.78 28.743 28.743 0 0 1 1.142 1.865l-.811.585-1.446-1.58c-.862-.947-1.999-2.21-3.164-3.445l-3.216-3.394c-.238-.261-.424-.464-.599-.671l-.44-.524-.37-.47.695-.722z" fill="#fff"/></g></g></svg>