<svg id="レイヤー_1" xmlns="http://www.w3.org/2000/svg" xmlns:xlink="http://www.w3.org/1999/xlink" viewBox="0 0 128 128"><g><g><defs><path id="SVGID_1_" d="M86.629 36.539c-.823.194-1.654.382-2.481.534-9.058 1.661-18.111 1.538-27.168 1.252-4.442-.142-8.888-.452-13.21-1.252a72.386 72.386 0 0 1-2.49-.509l1.614 58.722c5.985 6.621 16.061 6.469 20.886 6.402 4.824.066 14.718-1.013 20.792-7.016l2.057-58.133z"/></defs><clipPath id="SVGID_2_"><use xlink:href="#SVGID_1_" overflow="visible"/></clipPath><path clip-path="url(#SVGID_2_)" fill="#fff" d="M38.468 26.979h51.224v79.049H38.468z"/><path d="M60.412 35.399c-16.79 2.766-21.765 12.38-21.765 12.38l2.134 18.639s1.921-6.976 13.94-13.401c12.463-6.661 27.182-8.795 33.727-20.498l-28.036 2.88z" clip-path="url(#SVGID_2_)" fill="#ed6c30"/><path d="M87.531 42.95c-1.565 7.453-8.137 13.401-13.922 16.044-10.405 4.756-15.781 7.282-20.605 10.413-10.094 6.555-11.921 14.664-11.921 14.664V95.74l6.243 4.544s3.806-7.407 9.604-12.958c7.106-6.803 11.286-8.011 19.965-13.216 6.447-3.859 10.636-10.679 10.636-10.679V42.95z" clip-path="url(#SVGID_2_)" fill="#006ca2"/><path d="M62.128 104.694s3.624-6.188 8.035-10.307c8.462-7.905 13.18-6.919 17.097-17.865V95.02s-2.646 9.497-25.132 9.674z" clip-path="url(#SVGID_2_)" fill="#ed6c30"/></g><g fill="#78a3ad"><path d="M48.206 7.147c2.317-2.859 5.309-4.704 8.591-5.532 4.54-1.146 10.009-1.146 14.554 0 3.272.828 6.261 2.673 8.555 5.532 1.476 1.823 4.042 5.048 3.308 7.764-.383 1.41-1.405 1.671-2.486 2.108-2.636 1.057-5.42 1.591-8.226 1.832-5.736.472-11.232.472-16.963 0-2.801-.241-5.576-.775-8.208-1.832-1.08-.438-2.099-.698-2.472-2.108-.726-2.717 1.862-5.941 3.347-7.764z"/><path d="M91.213 28.188a29.565 29.565 0 0 1-7.661 2.604c-3.731.729-7.537 1.188-11.365 1.451-5.354.364-10.987.373-16.431 0-3.832-.259-7.634-.722-11.352-1.451a29.218 29.218 0 0 1-7.644-2.604c-2.299-1.161-3.38-3.3-2.125-5.532a6.461 6.461 0 0 1 4.548-3.174c1.089-.196 5.425 4.254 24.5 4.25 19.436 0 24.061-4.446 25.168-4.25a6.404 6.404 0 0 1 4.526 3.174c1.238 2.233.144 4.371-2.164 5.532z"/><path d="M80.021 120.444c-2.317 3.041-5.323 5.006-8.618 5.888-4.57 1.217-10.071 1.217-14.646 0-3.295-.882-6.31-2.847-8.644-5.888a33.44 33.44 0 0 1-1.792-2.543 25.122 25.122 0 0 0 7.714 2.899c6.252 1.217 13.771 1.217 20.027 0a25 25 0 0 0 7.764-2.945 29.372 29.372 0 0 1-1.805 2.589z"/><path d="M91.716 103.649c-.729 2.598-2.57 5.229-4.838 6.685-2.584 1.652-5.31 3.032-8.227 3.903-9.289 2.766-20.73 2.774-30.014 0-2.908-.871-5.625-2.251-8.19-3.903-2.259-1.455-4.087-4.087-4.789-6.685-.36-1.321-.427-2.788.191-4.082.493-1.053 1.667-2.605 2.992-2.17.751.246 1.308 1.303 1.766 1.891.693.89 1.472 1.682 2.374 2.393 1.814 1.432 3.939 2.455 6.15 3.192 8.63 2.889 20.432 2.899 29.102 0 2.219-.737 4.349-1.761 6.172-3.192a13.948 13.948 0 0 0 2.396-2.393c.458-.588 1.027-1.645 1.783-1.891 1.32-.436 2.481 1.117 2.974 2.17.607 1.294.531 2.761.158 4.082z"/></g></g></svg>