<svg id="レイヤー_1" xmlns="http://www.w3.org/2000/svg" xmlns:xlink="http://www.w3.org/1999/xlink" viewBox="0 0 128 128"><g><path d="M121.527 100.826c-.94-.654-2.014-.967-3.27-.967-.722 0-1.42.104-2.038.191-.447.07-.896.143-1.368.154-.521 0-.953-.428-1.808-1.414l-1.47-1.596c-.375-.398-.686-.719-.992-1.043.048-.072.104-.133.153-.203l.823-1.104c2.474-3.314 5.271-7.072 5.861-11.609.307-2.4-.315-4.754-1.671-6.295-1.175-1.342-2.757-1.994-4.707-1.842-2.87.225-5.069 1.695-7.197 3.115-.836.557-1.619 1.082-2.425 1.52-.59.322-.428.24-.748.158l-.351-.146c-.185-.117-.396-.158-.605-.188-7.373-10.1-23.97-32.614-33.007-43.047l-1.34-1.562c-4.42-5.168-7.083-8.283-13.954-9.5-4.928-.873-10.656.178-15.568 2.68l-1.319-1.399-.134-.143-.125-.131-.024.025c-.452-.412-1.057-.711-1.917-.768-.759-.049-1.534.141-2.261.473L6.725 1.043A2.063 2.063 0 0 0 3.807.93a2.07 2.07 0 0 0-.109 2.922l23.321 25.123c-.359.652-.589 1.354-.633 2.059l-.008.193c-.013 1.041.355 2.115 1.093 2.76l.497.533c-5.118 6.611-5.053 14.268-5.045 14.668.133 6.475 4.351 11.842 11.107 18.414 10.18 9.887 32.246 28.18 42.336 36.463.044.152.064.32.157.459l.17.346c.085.275.093.299-.129.752-.403.822-.9 1.631-1.421 2.486-1.336 2.186-2.712 4.439-2.817 7.312-.065 1.641.459 3.078 1.509 4.166 1.235 1.275 3.173 2.012 5.319 2.012.529 0 1.05-.041 1.558-.131 4.497-.768 8.137-3.721 11.35-6.32l1.081-.871c.101-.082.194-.17.295-.25l1.501 1.211c.574.459 1.005.807 1.11.889l.601.445c1.058.779 1.526 1.18 1.558 1.713.021.449-.012.9-.044 1.354-.101 1.467-.238 3.475 1.203 5.23 1.477 1.799 3.697 2.754 6.409 2.754 2.611 0 5.61-.93 7.834-2.428 4.634-3.125 8.303-7.365 10.079-11.637 1.797-4.344 1.826-9.961-2.162-12.731z" fill="#78a3ad"/><path d="M106.148 115.268c-.678-.25-5.086-3.396-7.596-5.734a14.74 14.74 0 0 1-1.082-1.104c1.042-.982 2.079-1.961 3.071-2.986.206-.201.4-.42.606-.629.367-.387.747-.76 1.106-1.156 1.005-1.057 1.961-2.154 2.914-3.26.355.275.751.617 1.175 1.01 2.514 2.332 5.876 6.312 6.167 6.959 1.716 3.759-2.457 8.312-6.361 6.9z" fill="#fff"/><g><defs><path id="SVGID_1_" d="M80.099 89.168a1.556 1.556 0 0 0-2.192 0c-1.966 1.971-4.25 2.723-6.163 2.969-1.211-1.041-2.462-2.111-3.726-3.209 2.038-.512 4.254-1.539 6.232-3.512a1.557 1.557 0 0 0 0-2.197 1.552 1.552 0 0 0-2.192 0c-2.301 2.303-5.037 2.949-7.103 3.053-1.191-1.037-2.386-2.082-3.581-3.123 2.256-.428 4.791-1.445 7.027-3.689a1.546 1.546 0 0 0 0-2.188 1.546 1.546 0 0 0-2.188 0c-2.665 2.664-5.921 3.117-8.032 3.068a851.654 851.654 0 0 1-3.382-3.012c2.417-.34 5.275-1.332 7.757-3.818a1.546 1.546 0 0 0 0-2.188 1.542 1.542 0 0 0-2.191 0c-3.063 3.059-6.902 3.197-8.892 3.012a294.654 294.654 0 0 1-3.148-2.891c2.543-.25 5.683-1.178 8.387-3.883a1.554 1.554 0 0 0 0-2.195 1.556 1.556 0 0 0-2.191 0c-3.41 3.406-7.785 3.197-9.493 2.953a72.967 72.967 0 0 1-2.902-2.947c-.517-.555-1.869-1.186-.832-1.859.569-.367 1.457-.156 2.091-.262a21.96 21.96 0 0 0 3.536-.848c2.332-.771 4.548-1.924 6.486-3.432 4.186-3.246 7.713-9.363 8.794-15.449v.004c.743-.998 1.287.391 1.816.936 6.955 7.197 26.934 33.562 34.025 42.988.981 1.728 1.756 3.182 1.974 4.748a22.53 22.53 0 0 1-2.199 3.769c-1.607 2.213-4.077 4.18-6.559 5.328-2.067.953-3.972 1.348-5.93 1.615a8.202 8.202 0 0 1-2.406-1.266l-.105-.08c-.032-.025-.057-.031-.089-.051a2654.248 2654.248 0 0 1-8.056-6.863 13.19 13.19 0 0 0 5.425-3.283 1.556 1.556 0 0 0 .002-2.198z"/></defs><use xlink:href="#SVGID_1_" overflow="visible" fill="#fff"/><clipPath id="SVGID_2_"><use xlink:href="#SVGID_1_" overflow="visible"/></clipPath><path d="M59.931 84.979s5.489.162 11.734-3.725c5.172-3.219 10.867-11.291 10.867-17.908L61.707 36.869l-1.938 2.744s-4.036 13.561-6.941 15.982c-2.906 2.422-15.982 6.297-15.982 6.297l-.161 3.064 23.246 20.023z" clip-path="url(#SVGID_2_)" fill="#bdcf46"/></g><path d="M38.882 46.098a2.505 2.505 0 0 0 1.832.758c1.658-.008 3.104-.549 4.299-1.721 1.639-1.613 2.425-4.996.698-6.467l.037-.031-5.86-6.215c2.514-1.316 5.242-2.025 7.891-1.865 12.262.756 9.873 15.789 3.527 22.021-3.657 3.584-8.084 5.248-13.166 5.262-5.748.018-8.662-5.271-8.597-10.391 0-.199.012-.393.024-.588.166-2.67 1.191-5.326 2.785-7.691l6.53 6.928z" fill="#bdcf46"/></g></svg>