<svg id="レイヤー_1" xmlns="http://www.w3.org/2000/svg" viewBox="0 0 128 128"><g><g><path d="M125.396 55.108c-4.075-8.331-7.893-16.79-12.116-25.052-2.134-4.178-4.378-8.306-6.799-12.329-1.835-3.043-4.002-7.638-7.586-8.912-2.011-.721-4.186-.918-6.308-.804-4.219.222-8.253 1.62-12.305 2.692-6.869 1.821-13.693 3.82-20.5 5.865-6.996 2.102-14.136 4.19-21.033 6.589-8.078 2.818-16.417 4.916-24.404 7.969-3.547 1.355-7.582 2.859-10.679 5.106C1.95 37.478.852 39.92.381 41.934c-.393 1.704-.012 3.266.164 4.96.332 3.118 1.573 5.706 2.691 8.605 3.977 10.311 8.979 20.252 13.312 30.419 2.257 5.284 4.555 10.566 7.238 15.654 1.167 2.212 2.519 4.235 3.703 6.456 1.434 2.698 2.953 4.85 4.768 7.315 1.61 2.187 3.629 4.251 6.435 4.608 2.749.347 5.271-.75 7.733-1.807 6.689-2.856 12.579-6.915 18.662-10.839 4.841-3.121 9.822-6.005 14.787-8.921a439.43 439.43 0 0 0 17.02-10.478c9.683-6.288 20.263-11.73 28.783-19.637 3.553-3.297 2.046-8.396-.281-13.161z" fill="#78a3ad"/></g><path d="M112.74 68.687c-3.179 2.437-6.5 4.673-9.909 6.787-13.131 8.134-26.3 15.916-40.116 22.844-5.968 2.994-12.993 7.631-19.833 8.058-6.168.385-9.343-4.216-11.916-9.214-4.01-7.795-7.79-15.903-11.133-24.006-2.122-5.141-3.813-10.445-5.546-15.722-.463-1.403-1.094-2.948-1.655-4.529-.065-.655-.533-1.483-.287-1.875.348-.565 1.54-.401 2.048-.347 1.663.189 3.203.952 4.788 1.414 3.519 1.028 7.057 1.971 10.588 2.945 5.743 1.581 11.538 3.039 17.249 4.723 1.769.521 3.522 1.144 5.349 1.43.68.11 1.36.217 2.036.303.528.065 1.278.049 1.626-.426.405-.557.012-1.62-.14-2.188-.455-1.638-2.035-2.293-3.481-2.858-1.765-.688-3.49-1.435-5.28-2.073-5.98-2.134-12.092-3.76-18.158-5.651-3.752-1.171-7.586-2.295-11.24-3.731-1.057-.414-3.142-.779-3.322-2.15-.086-.64.237-1.082.721-1.459.045-.041.147-.115.266-.213 3.912-2.307 8.147-3.814 12.403-5.392 10.121-3.75 20.603-6.515 30.851-9.903 4.768-1.573 9.462-3.399 14.287-4.723 4.944-1.355 9.941-2.494 14.865-3.925 1.024-.298 2.052-.486 3.084-.65.14.025.283.049.398.102.868.414.966 1.585.958 2.42a69.676 69.676 0 0 1-.119 3.589c-.172 2.561-.414 5.116-.512 7.684-.049 1.361-.209 2.7-.155 4.048.053 1.421-.226 2.817.135 4.219.303 1.171 1.524 2.629 2.892 2.421 1.585-.242 1.835-6.082 1.975-7.188.397-3.072.815-6.145 1.139-9.225.131-1.237.246-2.482.34-3.723.037-.505-.074-1.718.627-1.831.246-.038.5.143.729.364 1.11 1.404 2.105 2.957 3.048 4.469 3.317 5.324 6.508 10.801 8.757 16.65 2.347 6.106 5.644 11.73 7.483 18.06 1.373 4.733-2.494 7.903-5.84 10.472z" fill="#fff"/><path d="M90.92 43.794c-3.149-3.359-9.314-3.374-12.034.484-.537.761-1.119 2.224-1.991 2.939-.373.308-.803.48-1.303.398-.799-.127-1.585-.169-2.384-.27-2.474-.324-5.268-.383-7.537.724-3.789 1.853-5.571 5.711-5.264 9.781.369 4.867 3.621 8.3 8.074 10.126 3.092 1.27 6.39 1.966 9.695 2.396 1.659.218 3.326.365 5.002.48.696.053 1.335.04 2.019 0 .803-.05 1.589.154 2.4.023 2.887-.459 3.854-6.144 4.444-8.388 1.351-5.153 2.892-12.943-.344-17.729a7.821 7.821 0 0 0-.777-.964z" fill="#d7598b"/></g></svg>