<svg xmlns="http://www.w3.org/2000/svg" xmlns:xlink="http://www.w3.org/1999/xlink" viewBox="0 0 128 128"><g id="图层_1"><g><path id="XMLID_384_" d="M15.083 113.532C8.571 91.192 8.572 45.39 8.572 45.39l83.999-.334s0 41.491-4.884 68.189l-72.604.287z" fill="#6d4c41"/><g id="XMLID_382_"><ellipse id="XMLID_383_" cx="50.571" cy="46.114" rx="42" ry="39.499" fill="#6d4c41"/></g><path id="XMLID_380_" d="M7 118.092v9.887h87.143v-9.887c0-15.168-21.386-22.868-43.24-22.842C29.186 95.276 7 102.029 7 118.092z" fill="#651fff"/><path id="XMLID_377_" d="M50.518 90.246h-9.082v9.593c0 4.338 3.697 7.856 8.257 7.856h1.651c4.56 0 8.257-3.517 8.257-7.856v-9.593h-9.083z" fill="#e49800"/><path id="XMLID_376_" d="M50.465 13.574c-24.347 0-30.719 18.874-30.719 45.388s18.886 34.603 30.719 34.603c11.832 0 30.719-8.089 30.719-34.603-.001-26.514-6.372-45.388-30.719-45.388z" fill="#fbc11b"/><path id="XMLID_375_" d="M59.799 78.112h-9.227-9.227c-1.058 0-1.512.711-.813 1.776.98 1.492 4.615 4.36 10.04 4.36s9.061-2.868 10.04-4.36c.699-1.065.245-1.776-.813-1.776z" fill="#513f35"/><g id="XMLID_372_" fill="#444"><path id="XMLID_374_" d="M40.072 60.727c0 2.841-1.902 5.145-4.258 5.145-2.353 0-4.267-2.304-4.267-5.145 0-2.849 1.914-5.153 4.267-5.153 2.356.001 4.258 2.304 4.258 5.153"/><path id="XMLID_373_" d="M61.065 60.727c0 2.841 1.904 5.145 4.266 5.145 2.351 0 4.264-2.304 4.264-5.145 0-2.849-1.913-5.153-4.264-5.153-2.361.001-4.266 2.304-4.266 5.153"/></g><path id="XMLID_371_" d="M54.976 70.268c-1.57.445-3.199.662-4.458.662-1.258 0-2.887-.217-4.458-.662-.672-.19-.935.446-.695.869.498.876 2.504 2.645 5.152 2.645 2.649 0 4.654-1.768 5.152-2.645.242-.423-.022-1.059-.693-.869z" fill="#e49500"/><path id="XMLID_370_" d="M59.644 34.427c-3.234 3.107-19.29 17.578-41.418 21.355V26.115S27.777 7.163 50.699 7.163s32.473 19.43 32.473 19.43v29.19S68.153 50.018 60.61 34.61a.605.605 0 0 0-.966-.183z" fill="#6d4c41"/><path id="XMLID_385_" opacity=".54" d="M21.921 119.535h3V128h-3z"/><path id="XMLID_378_" d="M76.715 128h-3.497l4.096-17.76c.362-1.825 1.242-2.545 2.529-2.545L76.715 128z" opacity=".54"/><g><defs><path id="XMLID_381_" d="M104.426 128l-2.284-55.893a1.798 1.798 0 0 0-1.673-1.741l-13.086-.779a1.799 1.799 0 0 0-1.912 1.588L76.715 128h27.711z"/></defs><use xlink:href="#XMLID_381_" overflow="visible" fill="#651fff"/><clipPath id="XMLID_2_"><use xlink:href="#XMLID_381_" overflow="visible"/></clipPath></g><path id="XMLID_386_" d="M90.906 71.899c4.458-.128 7.416-.86 13.413-2.475 0 0 10.44-3.551 17.362-4.592 1.508-.227 2.078-2.583.45-3.301-3.788-1.199-15.648 1.36-15.648 1.36.492-3.167-3.51-3.349-5.748-2.82l-10.34 2.385c-5.974 1.378-5.137 9.664.511 9.443z" fill="#fbc11b"/></g></g></svg>