<svg id="レイヤー_1" xmlns="http://www.w3.org/2000/svg" viewBox="0 0 128 128"><g><path d="M57.662 50.089c.738-1.042 1.296-2.184 1.938-3.292.413-.712.717-1.475 1.083-2.217.396-.8.783-1.684 1.055-2.538.116-.388.17-.754.17-1.154-.008-.383.008-.767-.071-1.108-.163-.684-.521-1.325-.883-1.934-1.896-3.15-3.955-6.192-6.013-9.234-2.241-3.317-4.425-6.68-6.783-9.918-2.354-3.233-4.88-6.358-7.784-9.117-2.888-2.742-6.154-5.1-9.796-6.738C27.32 1.368 21.723.472 18.269 1.731c-3.154 1.15-5.967 4.942-6.763 8.163-.95 3.846-1.108 9.334-.108 13.18 1.445 5.575 4.871 10.467 8.171 15.097 4.988 6.992 10.655 13.384 16.622 19.551.833.858.809 1.167 1.938 1.684 1.275.583 2.742.283 4.063.041 1.083-.192 2.279-.508 3.271-.975a17.372 17.372 0 0 1 1.696-.717c2.271-.792 4.354-1.717 6.275-3.208a21.327 21.327 0 0 0 4.228-4.458z" fill="#d7598b"/><path d="M34.548 31.309c-6.267.154-12.826-3.809-15.639-9.405-2.062-4.101-2.867-10.784 1.454-13.926l.108-.091c8.984-4.046 20.693 8.317 21.451 16.722.41 4.524-3.466 6.603-7.374 6.7z" fill="#fff"/><path d="M111.72 91.216c-2.792-4.296-6.018-9.438-9.143-13.951-3.134-4.53-6.713-8.334-10.268-12.438-.596-.683-1.167-1.362-1.833-1.983-.9-.837-1.601-1.562-2.742-2.029-1.291-.529-2.688-.75-3.954-1.35-1.513-.717-2.167-2.138-3.15-3.434-3.067-4.059-5.779-8.371-8.896-12.393-1.267-1.633-2.917-3.354-4.454-4.75a18.463 18.463 0 0 0-3.734-2.625c-.816-.433-2.975-1.425-3.879-.792-.275.191.362.958.458 1.167.467 1.042.517 2.3.409 3.417-.104 1.117-.4 2.208-.813 3.25-.712 1.792-1.754 3.458-2.975 4.942-3.467 4.208-8.413 7.434-13.905 8.034-1.783.192-3.562.2-5.351.033-1.217-.117-2.441-.566-3.542-1.1-.179-.083-.32-.242-.529-.066-.108.083-.137.246-.167.371-.112.446-.134.879-.154 1.33-.075 1.404.296 2.934.833 4.225 1.143 2.746 3.359 5.213 5.218 7.505 2.371 2.921 4.759 5.825 7.133 8.742 2.063 2.538 4.626 4.838 4.968 8.238.116 1.217-.009 2.525-.009 3.75-.008 1.462.275 2.575 1.229 3.767 3.713 4.667 7.279 9.618 11.359 13.968 7.212 7.696 13.738 18.855 25.381 19.755 5.637.434 11.413-1.196 16.209-4.129 6.275-3.83 11.155-10.592 11.793-18.009.067-.767.092-1.542.058-2.325-.155-4.29-3.33-7.703-5.55-11.12z" fill="#fcc21b"/><path d="M54.216 77.999a147.44 147.44 0 0 1-.796-.775c-2.217-2.133-4.067-4.675-5.963-7.092-2.004-2.542-3.946-5.142-5.733-7.85-.301-.459-.959-1.559-.017-1.73.35-.062.683-.079 1.051-.079 4.925 0 9.396-1.65 13.347-4.542a31.95 31.95 0 0 0 3.221-2.725c2.2-2.125 3.358-4.667 4.434-7.467.125-.325.083-.85.346-1.083.817-.75 4.271 5.159 4.525 5.534 1.846 2.688 3.58 5.454 5.421 8.15 2.029 2.983 4.559 6.292 3.955 10.142-.588 3.729-4.063 6.134-6.871 8.238-2.201 1.65-4.713 2.846-7.363 3.575-1.642.454-3.437.746-5.126.388-1.781-.367-3.148-1.459-4.431-2.684z" fill="#fff"/><path d="M57.032 89.004a3.813 3.813 0 0 1-.125-.725c-.121-1.717.746-2.188 2.263-2.396 2.088-.292 4.121-.425 6.171-1.017 3.534-1.021 6.792-2.796 9.717-5.009 2.379-1.8 4.513-3.958 5.942-6.596.779-1.438 1.287-2.854 1.479-4.463.246-2.083.312-3.013 2.6-2.534.538.113 1.392.342 1.792.742.388.383.625 1.192.8 1.7 1.467 4.238-.771 9.513-3.529 12.801-3.454 4.113-8.604 6.609-13.659 8.13a43.458 43.458 0 0 1-6.217 1.371c-2.325.333-6.442.838-7.234-2.004z" fill="#fff"/><path d="M90.305 120.706c-.412.017-.779.017-1.045.017-3.538-.038-6.272-1.784-8.867-4.121-3.467-3.117-6.359-6.851-9.317-10.438-1.867-2.267-4.013-4.296-5.892-6.555-.438-.529-.742-1.154-1.225-1.646-.325-.33-.671-.529-.833-.988-.562-1.583.938-1.258 1.846-1.309a32.29 32.29 0 0 0 4.088-.487c1.375-.25 2.704-.654 3.783.508.487.529.958 1.079 1.438 1.617l4.146 4.659c3.221 3.621 6.446 7.238 9.667 10.859l4.492 5.042.295.338c1.796 2.004-.788 2.425-2.576 2.504z" fill="#fff"/></g></svg>