<svg xmlns="http://www.w3.org/2000/svg" viewBox="0 0 128 128"><g id="图层_1"><g id="XMLID_640_"><path id="XMLID_672_" d="M64 2.732c-8.01 0-39.043.336-43.885 23.336-2.734 12.987-3.905 48.907-3.35 56.002 1.114 14.258 6.654 18.786 23.522 24.433C61.58 113.631 64 112.545 64 112.545V2.732z" fill="#444"/><path id="XMLID_671_" d="M64 2.732c8.01 0 39.043.336 43.885 23.336 2.734 12.987 3.905 48.907 3.35 56.002-1.115 14.258-6.654 18.786-23.522 24.433C66.42 113.631 64 112.545 64 112.545V2.732z" fill="#444"/><path id="XMLID_637_" d="M26.728 81.629s-.011-8.414-.011-19.867c0-11.979 8.781-28.552 38.152-28.552 20.498 0 28.165 8.11 28.165 13.517 0 0 7.615 1.368 8.361 11.12.524 6.849-.15 23.319-.15 23.319s-.828-.737-1.762-1.162c-.497-.226-.999-.333-.999-.333l-1.379 9.4-10.196-19.739a.313.313 0 0 0-.317-.17l-4.132.489a157.324 157.324 0 0 1-35.85.13l-5.578-.62a.314.314 0 0 0-.32.18l-9.414 19.666-1.426-9.568s-.979.388-1.864 1.076a13.102 13.102 0 0 0-1.28 1.114z" fill="#6d4c41"/><g id="XMLID_630_" fill="#e59600"><path id="XMLID_634_" d="M97.282 79s6.074 1.052 6.074 7.593c0 5.771-4.431 8.048-8.862 8.048V79h2.788z"/><path id="XMLID_632_" d="M31.031 79s-6.074 1.052-6.074 7.593c0 5.771 4.431 8.048 8.862 8.048V79h-2.788z"/></g><path id="XMLID_629_" d="M64.157 36.16c-26.177 0-33.028 20.293-33.028 48.8 0 29.56 19 37.204 33.028 37.204 13.822 0 33.028-7.424 33.028-37.204-.001-28.507-6.851-48.8-33.028-48.8z" fill="#fcc21b"/><path id="XMLID_627_" d="M73.617 104.648h-9.46-9.46c-1.085 0-1.55.729-.833 1.821 1.004 1.529 4.731 4.47 10.294 4.47s9.289-2.94 10.294-4.47c.715-1.092.25-1.821-.835-1.821z" fill="#4c3734"/><path id="XMLID_626_" d="M73.617 104.648h-9.46-9.46c-1.085 0-1.55.729-.833 1.821 1.004 1.529 4.731 4.47 10.294 4.47s9.289-2.94 10.294-4.47c.715-1.092.25-1.821-.835-1.821z" fill="#513f35"/><path id="XMLID_625_" d="M68.727 96.606c-1.61.456-3.28.678-4.57.678-1.29 0-2.96-.222-4.57-.678-.688-.195-.959.457-.712.891.511.898 2.567 2.711 5.282 2.711 2.716 0 4.772-1.813 5.282-2.711.246-.434-.024-1.086-.712-.891z" fill="#e59600"/><path id="XMLID_624_" d="M53.392 86.825c0 2.913-1.95 5.275-4.365 5.275-2.413 0-4.375-2.362-4.375-5.275 0-2.921 1.962-5.283 4.375-5.283 2.416 0 4.365 2.362 4.365 5.283" fill="#444"/><path id="XMLID_623_" d="M74.915 86.825c0 2.913 1.953 5.275 4.374 5.275 2.41 0 4.371-2.362 4.371-5.275 0-2.921-1.961-5.283-4.371-5.283-2.421 0-4.374 2.362-4.374 5.283" fill="#444"/><path id="XMLID_622_" d="M31.129 86.821l-1.741-10.744s-3.782-41.416 35.668-41.416 33.309 43.218 33.309 43.218l-1.206 8.942-10.25-17.357s-19.476 1.567-44.771-.334L31.129 86.821z" fill="#6d4c41"/><g id="XMLID_645_" fill="none" stroke="#6d4c41" stroke-width="4.5" stroke-linecap="round" stroke-linejoin="round" stroke-miterlimit="10"><path id="XMLID_650_" d="M31.129 82.423s8.646 34.408 33.028 34.408"/><path id="XMLID_649_" d="M97.184 82.423s-8.646 34.408-33.028 34.408"/></g><path id="XMLID_643_" d="M41.106 8.055C33.58 11.427 26.53 17.202 26.53 27.068l-3.695 58.549c0 3.094 2.47 4.995 5.537 4.365A176.367 176.367 0 0 1 64 86.345V2.732c-9.241 0-14.461 1.545-22.894 5.323z" fill="#444"/><path id="XMLID_641_" d="M86.894 8.055c7.526 3.372 14.576 9.147 14.576 19.013l3.695 58.549c0 3.094-2.47 4.995-5.537 4.365A176.367 176.367 0 0 0 64 86.345V2.732c9.241 0 14.461 1.545 22.894 5.323z" fill="#444"/></g></g></svg>