<svg xmlns="http://www.w3.org/2000/svg" viewBox="0 0 128 128"><g id="图层_1"><g/><g><g/><g/><g fill="#2f2f2f"/></g><g><g/><g/><g><g/><g/></g></g><g/><g><g/><g/><g><g/><g/></g></g><g/><g/><g><path fill="#e1f5fe" d="M1.66 10.495L44.173 1.78l-1.861 28.039z"/><path fill="#81d4fa" d="M20.775 68.897L1.66 10.495l40.652 19.324z"/><path fill="#64b5f6" d="M64.305 63.695L42.312 29.819 20.775 68.897z"/><path fill="#0288d1" d="M117.505 126.34l8.715-42.513-28.039 1.861z"/><path fill="#81d4fa" d="M59.103 107.225l58.402 19.115-19.324-40.652z"/><path fill="#e1f5fe" d="M64.305 63.695l33.876 21.993-39.078 21.537z"/><path fill="#b2ebf2" d="M59.103 107.225l5.202-43.53-43.53 5.202z"/><path fill="#b3e5fc" d="M75.948 11.572l40.48 40.48 9.792 31.775-28.039 1.861-33.876-21.993-21.993-33.876L44.173 1.78z"/><path fill="#1e88e5" d="M2.241 125.759L1.66 10.495l19.115 58.402z"/><path fill="#b3e5fc" d="M2.241 125.759l115.264.581-58.402-19.115z"/><path fill="#e1f5fe" d="M59.103 107.225L2.241 125.759l18.534-56.862z"/></g></g></svg>