<svg id="图层_1" xmlns="http://www.w3.org/2000/svg" viewBox="0 0 128 128"><g/><g><g/><g/><g fill="#2f2f2f"/></g><g><g/><g/><g><g/><g/></g></g><g/><g><g/><g/><g><g/><g/></g></g><g/><g/><g><path d="M30.377 45.832a39.891 39.891 0 0 0-18.596 15.517m33.55-18.426c-2.635 0-5.209.256-7.701.745" fill="none" stroke="#fff" stroke-width="2.5" stroke-linecap="round" stroke-linejoin="round" stroke-miterlimit="10"/><path d="M78.498 49.502c-17.008-17.008-44.583-17.008-61.591 0C-.1 66.51-.1 94.085 16.907 111.093c17.008 17.008 44.583 17.008 61.591 0 17.008-17.008 17.008-44.583 0-61.591zm-56.129 56.129c-13.991-13.991-13.991-36.675 0-50.667s36.675-13.991 50.667 0 13.991 36.675 0 50.667-36.676 13.991-50.667 0z" fill="#e0e0e0"/><g><path fill="#e1f5fe" d="M75.09 5.358L92.541 1.78l-.764 11.51z"/><path fill="#81d4fa" d="M82.936 29.331L75.09 5.358l16.687 7.932z"/><path fill="#64b5f6" d="M100.805 27.195L91.777 13.29l-8.841 16.041z"/><path fill="#0288d1" d="M122.642 52.91l3.578-17.451-11.51.764z"/><path fill="#81d4fa" d="M98.669 45.064l23.973 7.846-7.932-16.687z"/><path fill="#e1f5fe" d="M100.805 27.195l13.905 9.028-16.041 8.841z"/><path fill="#b2ebf2" d="M98.669 45.064l2.136-17.869-17.869 2.136z"/><path fill="#b3e5fc" d="M105.584 5.8L122.2 22.416l4.02 13.043-11.51.764-13.905-9.028-9.028-13.905.764-11.51z"/><path fill="#1e88e5" d="M75.328 52.672L75.09 5.358l7.846 23.973z"/><path fill="#b3e5fc" d="M75.328 52.672l47.314.238-23.973-7.846z"/><path fill="#e1f5fe" d="M98.669 45.064l-23.341 7.608 7.608-23.341z"/></g><path d="M76.127 51.873c-17.008-17.008-44.583-17.008-61.591 0-17.008 17.008-17.008 44.583 0 61.591 17.008 17.008 44.583 17.008 61.591 0 17.007-17.008 17.007-44.583 0-61.591zm-56.129 56.129c-13.991-13.991-13.991-36.675 0-50.667s36.675-13.991 50.667 0 13.991 36.675 0 50.667-36.676 13.991-50.667 0z" fill="#bdbdbd"/><path d="M76.269 51.731l20.589 1.049s-.133 1.428-2.857 2.08c-2.558.612-15.05 2.161-15.05 2.161l-3.708-4.264 1.026-1.026z" fill="#bdbdbd"/><path d="M76.269 51.731L75.22 31.142s-1.428.133-2.08 2.857c-.612 2.558-2.161 15.05-2.161 15.05l4.264 3.708 1.026-1.026z" fill="#bdbdbd"/></g></svg>