<svg id="Layer_1" xmlns="http://www.w3.org/2000/svg" viewBox="0 0 128 128"><g fill="#d7598b"><path d="M51.329 14.735c-4.595 2.989-9.46 13.886-10.936 14.87-1.476.984-13.406 1.282-17.933 4.373-20.66 14.108-19.663 74.125-9.457 66.949 20.02-14.077 16.868-12.902 24.742-31.655 1.024-2.438 8.283-9.075 15.747-10.496 3.221-.613 6.983-3.121 8.789-5.858 4.184-6.342 13.102-10.489 15.747-10.496 20.338-.053 18.041 2.404 38.737-10.659 10.549-6.659-44.464-30.671-65.436-17.028z"/><path d="M114.949 44.978c-11.732-1.021-23.065-.097-25.912 6.041-2.733 5.893-1.439 10.866-18.94 23.507-18.401 11.291-22.494 8.183-28.985 8.438-6.761.266-11.974 10.371-15.545 21.593-5.301 16.656 40.441 17.271 65.102.832s41.693-58.896 24.28-60.411z"/></g></svg>