<svg id="レイヤー_1" xmlns="http://www.w3.org/2000/svg" xmlns:xlink="http://www.w3.org/1999/xlink" viewBox="0 0 128 128"><g id="XMLID_208_"><defs><path id="XMLID_869_" d="M0 0h128v128H0z"/></defs><clipPath id="XMLID_2_"><use xlink:href="#XMLID_869_" overflow="visible"/></clipPath><path id="XMLID_711_" d="M-36.837 45.526s0 48.724 6.28 71.376c3.096 11.165 6.949 18.197 16.215 11.242l35.936-.358c9.251 7.06 15.879.291 17.874-11.175 4.71-27.072 4.71-71.086 4.71-71.086h-81.015z" clip-path="url(#XMLID_2_)" fill="#6d4c41"/><ellipse id="XMLID_686_" cx="3.786" cy="45.289" rx="40.508" ry="36.416" clip-path="url(#XMLID_2_)" fill="#6d4c41"/><path id="XMLID_899_" d="M20.235 101.862c-5.705-1.084-27.766-1.084-33.471 0-18.042 3.427-31.265 11.385-31.265 28.362v57.834l48 .012 48-.012v-57.834c.001-16.977-13.222-24.935-31.264-28.362z" clip-path="url(#XMLID_2_)" fill="#651fff"/><path id="XMLID_897_" d="M139.811 101.862c-5.705-1.084-27.766-1.084-33.471 0-18.042 3.427-31.265 11.385-31.265 28.362v57.834l48 .012 48-.012v-57.834c0-16.977-13.223-24.935-31.264-28.362z" clip-path="url(#XMLID_2_)" fill="#00bfa5"/><path id="XMLID_898_" d="M4.019 114.141c-6.081 0-10.898-4.93-10.898-11.011v-9.5h21.796v9.5c0 6.081-4.817 11.011-10.898 11.011z" clip-path="url(#XMLID_2_)" fill="#e59900"/><path id="XMLID_896_" d="M122.5 114.352c-6.081 0-10.5-4.93-10.5-11.011V93h21v10.341c0 6.081-4.419 11.011-10.5 11.011z" clip-path="url(#XMLID_2_)" fill="#e59900"/><g id="XMLID_878_" clip-path="url(#XMLID_2_)"/><path id="XMLID_685_" d="M3.786 17.646c-24.905 0-31.422 19.307-31.422 46.428S-8.317 99.47 3.786 99.47c12.103 0 31.422-8.274 31.422-35.396 0-27.121-6.517-46.428-31.422-46.428z" clip-path="url(#XMLID_2_)" fill="#fcc21b"/><path id="XMLID_683_" d="M14.527 65.185c0 2.908 1.949 5.266 4.367 5.266 2.406 0 4.364-2.358 4.364-5.266 0-2.916-1.958-5.274-4.364-5.274-2.418.001-4.367 2.358-4.367 5.274" clip-path="url(#XMLID_2_)" fill="#444"/><path id="XMLID_682_" d="M13.288 38.922C9.975 42.104-6.47 56.927-29.136 60.795V30.407s9.783-19.413 33.262-19.413 33.262 19.902 33.262 19.902v29.899s-15.383-5.905-23.11-21.687a.62.62 0 0 0-.99-.186z" clip-path="url(#XMLID_2_)" fill="#6d4c41"/><path id="XMLID_681_" d="M13.23 82.979H3.786h-9.444c-1.083 0-1.548.728-.832 1.818 1.003 1.527 4.723 4.462 10.276 4.462s9.274-2.936 10.276-4.462c.716-1.09.251-1.818-.832-1.818z" clip-path="url(#XMLID_2_)" fill="#4c3734"/><path id="XMLID_678_" d="M8.348 75.539c-1.607.455-3.274.677-4.562.677s-2.955-.222-4.562-.677c-.687-.195-.957.456-.711.889.51.897 2.563 2.707 5.273 2.707 2.711 0 4.764-1.81 5.273-2.707.246-.432-.024-1.083-.711-.889z" clip-path="url(#XMLID_2_)" fill="#e48c15"/><g id="XMLID_808_" clip-path="url(#XMLID_2_)" fill="#e48c15"><path id="XMLID_814_" d="M90.146 55.967s-6.267 1.44-6.267 8.315c0 6.319 4.852 8.814 9.705 8.814V55.967h-3.438z"/></g><path id="XMLID_807_" d="M123.57 13.001c-26.255 0-33.125 20.353-33.125 48.944 0 29.647 19.056 37.314 33.125 37.314 13.863 0 33.125-7.446 33.125-37.314 0-28.591-6.87-48.944-33.125-48.944z" clip-path="url(#XMLID_2_)" fill="#fcc21b"/><path id="XMLID_805_" d="M133.058 81.691h-9.488-9.488c-1.088 0-1.555.731-.836 1.827 1.007 1.534 4.745 4.483 10.324 4.483s9.317-2.949 10.324-4.483c.719-1.096.252-1.827-.836-1.827z" clip-path="url(#XMLID_2_)" fill="#4c3734"/><path id="XMLID_804_" d="M128.153 74.217c-1.614.457-3.29.68-4.584.68-1.294 0-2.969-.223-4.584-.68-.69-.196-.962.459-.714.894.512.901 2.574 2.719 5.298 2.719s4.786-1.818 5.298-2.719c.248-.435-.023-1.09-.714-.894z" clip-path="url(#XMLID_2_)" fill="#e48c15"/><path id="XMLID_801_" d="M112.773 63.815c0 2.922-1.955 5.291-4.378 5.291-2.42 0-4.388-2.369-4.388-5.291 0-2.93 1.968-5.298 4.388-5.298 2.423 0 4.378 2.369 4.378 5.298" clip-path="url(#XMLID_2_)" fill="#444"/><path id="XMLID_799_" d="M85.986 58.517s-.011-8.439-.011-19.925c0-12.014 8.807-29.438 38.265-29.438 20.559 0 28.249 8.937 28.249 14.359 0 0 7.637 1.372 8.386 11.153.526 6.869-.15 23.388-.15 23.388s-.83-.739-1.767-1.165c-.499-.227-1.002-.334-1.002-.334l-1.383 9.428-10.227-19.797a.314.314 0 0 0-.318-.17l-4.144.491a157.737 157.737 0 0 1-35.956.13l-5.595-.621a.316.316 0 0 0-.321.18L90.57 65.92l-1.431-9.596s-.982.389-1.869 1.079c-.834.646-1.284 1.114-1.284 1.114z" clip-path="url(#XMLID_2_)" fill="#6d4c41"/><g id="XMLID_209_" clip-path="url(#XMLID_2_)"><path id="XMLID_842_" d="M33.365 40.872c6.072 9.038 16.892 18.416 24.692 25.694.833.778 1.658 1.611 2.498 2.397.903.833 1.993 2.74 3.441 2.826 1.455-.086 2.538-1.993 3.441-2.826.849-.786 1.674-1.619 2.507-2.397 7.8-7.278 18.619-16.657 24.684-25.694 1.822-2.701 3.153-5.604 3.698-8.812.537-3.223.514-7.847-.802-10.913-3.107-7.248-8.4-11.397-15.671-11.358-.273.008-.537.008-.81.016-2.849.047-5.612.685-8.228 1.775-2.802 1.175-4.725 2.943-7.208 4.523-.942.599-2.281.591-3.215 0-2.491-1.58-4.406-3.348-7.208-4.523-2.615-1.09-5.379-1.728-8.228-1.775-.265-.008-.545-.008-.81-.016-7.278-.039-12.571 4.11-15.67 11.357-1.315 3.067-1.339 7.691-.802 10.913.538 3.208 1.885 6.112 3.691 8.813z" fill="#f06292"/></g></g></svg>