<svg id="レイヤー_1" xmlns="http://www.w3.org/2000/svg" viewBox="0 0 128 128"><g fill="#d7598b"><path d="M63.667 86.521c-.27-.389-.659-.701-.997-1.02-.761-.725-1.516-1.447-2.276-2.168-1.293-1.227-2.578-2.459-3.866-3.682-.965-.92-2.017-1.629-2.151-3.117l-.019-.203c-.241-2.055 1.354-3.223 2.462-4.732a149.062 149.062 0 0 0 3.115-4.406c1.145-1.688 1.743-2.42.302-4.209-1.021-1.271-2.323-2.221-3.552-3.279-1.637-1.408-3.185-2.908-4.761-4.389-.635-.607-1.206-1.182-1.739-1.873-.682-.877-1.632-1.326-1.159-2.574.427-1.115 1.54-2.094 2.342-2.953 1.349-1.447 2.726-2.879 4.042-4.367.232-.268.514-.52.719-.814 1.089-1.604-.789-3.664-1.72-4.842-1.516-1.91-2.893-3.973-4.696-5.637-1.33-1.238-3.208-1.869-4.789-2.725-2.531-1.373-5.104-2.682-7.849-3.418-4.274-1.154-8.664-1.512-13.027-.871-.417.055-.834.121-1.247.18-11.119 1.775-18.138 9.986-21.008 22.769-1.224 5.418-.069 13.076 1.586 18.27 1.65 5.188 4.441 9.652 7.918 13.678 11.59 13.43 29.203 17.635 42.995 27.719 1.479 1.076 2.949 2.258 4.446 3.334 1.099.797 2.017 1.873 3.111 2.688.417.311 1.122.979 1.636.678.807-.473.732-2.096.742-2.939.019-.904.028-1.803.042-2.699.037-2.205.065-4.408.097-6.615.065-4.131.125-8.266.186-12.396.009-.613.13-1.358-.023-1.951-.139-.542-.556-.995-.862-1.437z"/><path d="M125.734 44.854c-3.796-12.557-11.399-20.256-22.614-21.252-.417-.033-.835-.074-1.252-.1-4.399-.334-8.753.324-12.93 1.771-2.647.92-5.058 2.359-7.414 3.854a51.287 51.287 0 0 0-2.93 1.988c-.547.4-1.237.631-1.72 1.117-.747.746.686 3.061 1.002 3.84.561 1.367 1.117 2.74 1.609 4.135.306.875.959 2.258.338 3.111-.463.644-1.377.949-2.067 1.246-1.136.477-2.249 1.029-3.361 1.557-1.873.893-3.746 1.783-5.623 2.68-1.03.486-2.467 1.387-1.961 2.867.394 1.125 1.446 2.16 2.132 3.1 1.697 2.324 3.343 4.688 5.151 6.928 1.228 1.525 3.653 3.986 1.576 5.852-1.809 1.617-3.797 3.045-5.689 4.557-.667.543-1.344 1.074-2.012 1.619-.955.76-1.78 1.611-1.46 3.039.236 1.062 1.21 2.088 1.775 2.977 2.355 3.715 6.287 7.822 5.044 12.668a827.02 827.02 0 0 1-1.446 5.623 7400.344 7400.344 0 0 1-3.254 12.707c-.288 1.127-1.595 3.695-.389 4.611.941.721 2.021-.385 2.707-1.027.904-.85 1.674-1.863 2.619-2.662 1.414-1.178 2.792-2.457 4.187-3.635C90.765 97 108.021 91.584 118.596 77.379c3.176-4.246 5.627-8.9 6.898-14.186 1.271-5.3 1.855-13.023.24-18.339z"/></g></svg>