<svg id="レイヤー_1" xmlns="http://www.w3.org/2000/svg" viewBox="0 0 128 128"><g><path d="M125.743 32.688c-5.95-13.91-16.051-21.259-29.423-21.259l-.325.009c-.391 0-.782 0-1.155.019-5.124.079-10.278 1.189-15.322 3.306-3.533 1.483-6.239 3.412-9.105 5.457-1.324.941-2.662 1.902-4.111 2.816-1.284.827-3.324.818-4.604 0-1.453-.914-2.795-1.875-4.12-2.816-2.862-2.045-5.568-3.974-9.106-5.457-5.039-2.116-10.194-3.226-15.3-3.306-.391-.019-.782-.019-1.173-.019l-.524-.009c-13.171 0-23.272 7.349-29.219 21.25C-.201 38.404-.281 47.051.728 53.077c.929 5.545 3.173 10.904 6.866 16.405 6.831 10.177 17.016 17.074 26.868 23.75 6.177 4.185 12.567 8.504 17.998 13.57.684.641 1.364 1.308 2.048 1.975.822.8 1.648 1.6 2.489 2.372.422.392.862.914 1.337 1.475 1.431 1.697 3.213 3.804 5.595 3.947h.138c2.386-.144 4.164-2.25 5.59-3.938.48-.569.92-1.092 1.342-1.483.84-.772 1.667-1.572 2.489-2.372.68-.667 1.364-1.334 2.048-1.975 5.431-5.066 11.821-9.386 17.998-13.57 9.853-6.676 20.038-13.564 26.872-23.75 3.688-5.493 5.933-10.86 6.866-16.405 1.009-6.027.929-14.675-1.529-20.39z" fill="#d7598b"/><path d="M116.638 67.048c-.258.25-.546.41-.773.07-.382-.577-2.849-5.599-1.298-5.349 1.213.195 2.493.318 3.693-.036a5.514 5.514 0 0 0 1.435-.658c.329-.204.653-.506 1.04-.576.245-.055-.307 1.216-.315 1.234-.284.498-.676.934-.969 1.432-.698 1.189-1.431 2.318-2.346 3.357l-.467.526z" fill="#fcc21b"/><path d="M113.082 56.605c-1.973-.837-4.075-2.045-5.559-3.563-.947-.961-1.915-2.241-2.417-3.504-.44-1.102 1.138-2.576 2.173-2.639.933-.062 2.04.541 2.906.818.942.311 3.062 1.075 3.702-.16.92-1.779-1.92-2.64-2.986-3.368-.574-.392-1.107-.934-.818-1.673.982-2.514 4.644-1.243 6.51-.808 1.462.348 3.026.862 4.319 1.705 1.204.783 2.178 1.85 2.613 3.325 1.729 5.841-3.799 12.692-10.443 9.867z" fill="#fcc21b"/><path d="M89.05 33.436c.737 1.385.146 3.359-1.44 3.83-1.298.39-2.688-.489-3.773-1.094-2.173-1.227-4.137-2.639-5.812-4.505-4.897-5.44-.138-13.004 6.03-13.263 1.608-.062 2.924.517 4.044 1.423 1.76 1.439 8.505 8.861 3.631 10.577-.742.257-1.796-.686-2.249-1.129-.569-.552-1.156-1.352-2.027-1.387-.786-.036-1.351.552-1.351 1.324.001 1.876 2.187 2.782 2.947 4.224z" fill="#fcc21b"/><path d="M65.564 44.73c-.684-.258-1.426-.392-2.124-.612-.382-.108-1.018-.214-1.289-.533-2.231-2.587 5.115-4.782 6.35-5.13 3.102-.879 7.879-2.648 10.55-.114 1.645 1.556 3.466 2.443 5.541 3.27.543.215 4.453 1.893 2.831 2.677-.648.302-1.302.604-1.955.897-3.555 1.59-7.155 2.976-10.616 4.843-1.667.906-3.329 1.787-5.128 2.392-3.804 1.271-2.635-2.729-2.399-5.288.101-1.104-.757-2.036-1.761-2.402z" fill="#fcc21b"/><path d="M68.617 27.363c.462-.666 1.138-1.181 1.809-1.627.569-.373 1.391-1.083 2.128-.933.067.364-.262.908-.315 1.28a13.772 13.772 0 0 0-.053 2.996c.053.576.165 1.155.28 1.714.213 1.023-.329.854-.942.383-.733-.568-1.449-1.271-2.071-1.947-.249-.274-.591-.558-.8-.879-.205-.301-.28-.63-.036-.987z" fill="#fcc21b"/><path d="M92.276 39.025c.942-2.703 3.035-4.845 4.933-6.888l.52-.544c.871-.897 2.16-.417 3.213-.017 2.457.934 5.15 3.12 6.142 5.661.351.898.213 1.29-.315 2.079-1.636 2.445-3.688 5.343-6.319 6.773-1.369.746-2.751.781-4.15.098-3.086-1.51-5.308-3.464-4.024-7.162z" fill="#fcc21b"/><path d="M97.467 65.894c.613-3.699.751-7.369 1.085-11.066.066-.684.133-1.36.209-2.035.2-1.706 2.919 1.298 3.284 1.725 1.386 1.607 2.742 2.977 4.662 3.98 3.102 1.618 2.982 6.472 3.146 9.538.071 1.216.36 8.515-2.653 7.305-.373-.15-.666-.694-.889-.996-.404-.568-.755-1.19-1.195-1.732-.645-.781-1.751-1.271-2.715-.836-2.231.996-5.471 3.289-5.498-.522-.023-1.817.266-3.585.564-5.361z" fill="#fcc21b"/></g></svg>