<svg id="レイヤー_1" xmlns="http://www.w3.org/2000/svg" viewBox="0 0 128 128"><g><g><path d="M126.029 113.488c-1.199-1.247-3.155-2.15-4.37-2.759-3.652-1.824-3.091-4.068-3.42-7.874-.524-6.039-.621-12.054-.88-18.097-.25-5.848-.709-11.687-.676-17.541.009-1.603-.603-2.654-.978-4.198-.121-.504-.083-2.425-.797-2.629-1.84-.532-1.756 6.628-1.784 7.449-.098 3.017-1.747 5.222-3.856 7.34-1.297 1.303-2.886 1.982-4.143 3.258-2.966 3.004-5.714 6.71-8.124 10.168-.71 1.011-1.247 2.058-2.262 2.809-1.687 1.251-3.92 1.938-5.853 2.688-2.572 1.001-5.376 1.381-7.813 2.73-1.469.81-2.564 1.938-3.847 2.965-1.298 1.043-2.512 1.888-3.554 3.204-1.622 2.048-3.485 3.882-5.25 5.798-.427.462-.825.958-1.271 1.403-.417.417-.802.486-1.251.777-.621.404-1.428 1.79-.848 2.513.426.541 1.988.312 2.554.385 6.706.88 13.43 1.627 20.16 2.274 4.031.391 7.984.812 11.998 1.386 2.822.404 6.957-.3 8.513 2.62 1.066 2 1.33 4.764 3.36 6.112 5.937 3.942 13.991-4.574 15.367-9.866.291-1.123-.177-2.095-.975-2.915z" fill="#78a3ad"/></g><path d="M127.374 41.946c-.353-1.288-2.322-1.686-3.378-2.103a66.716 66.716 0 0 1-5.575-2.509c-1.39-.695-3.763-1.485-4.634-2.858-.844-1.316-.464-3.401-.464-4.874 0-.928.788-3.523-.236-4.112-.486-.282-1.844.032-2.345.154-.603.139-1.349.454-1.965.643-.922.282-1.516.399-1.145 1.341.898 2.266.932 4.097-.028 6.395-.848 2.029-2.238 3.847-3.906 5.274-.362.314-.82.649-1.381.944-.144.778-.44 1.651-.89 2.54 2.503.564 4.737 2.03 6.196 4.264a10.647 10.647 0 0 1 1.636 4.773c.57.566 1.015 1.196 1.399 1.872.116.204.255.392.357.604 1.075 2.261 1.437 4.587 1.145 6.792A10.793 10.793 0 0 1 110.227 66l-.245.323c-.26.307-.519.604-.793.882-.152.152.005 1.733-.032 2.037-.098.835-.288 1.66-.588 2.439-.51 1.334-1.377 2.753-2.577 3.578-1.386.953-3.189 1.097-4.635 1.946-2.173 1.269-3.521 3.202-5.932 4.159-.987.4-2.053.642-3.133.798-.732.112-1.469.204-2.215.204-1.39 0-2.707-.204-3.944-.573-1.349-.417-2.596-1.039-3.688-1.882-.39.046-.784.063-1.178.063h-.223c-.848 0-1.872-.009-2.984-.147a12.56 12.56 0 0 1-.7 8.417c-.227.5-.491.926-.769 1.306a8.9 8.9 0 0 1 .019 3.087c-.01.102 0 .185-.019.286-.811 4.153-3.388 7.306-7.058 8.639-.357.14-.728.232-1.117.326-.524.119-1.062.222-1.613.259-1.983 3.41-5.778 5.708-9.969 5.708a10.42 10.42 0 0 1-6.497-2.241c-.7.204-1.408.343-2.127.397-.25.02-.5.037-.746.037-2.961 0-5.89-1.437-8.036-3.938-.617-.724-1.057-1.506-1.498-2.335-.241-.445-.574-1.447-.973-1.716-.403-.268-1.521.056-1.938.149-1.529.328-2.952.593-4.546.602-1.251.009-3.059-.426-4.157-1.029-.834-.463-.955-.172-1.766.241-.714.355-1.108.297-1.423 1.12-.746 1.934-1.312 3.802 1.316 3.974 2.266.147 5.454-1.321 6.882 1.182 1.683 2.938.737 6.525 1.872 9.601 1.02 2.755 3.86 1.521 5.937.961 1.418-.385 2.679-1.195 4.064-1.733 1.715-.672 3.467-1.236 5.27-1.616 4.236-.904 8.31 4.049 11.067 6.432 1.589 1.37 2.744 2.887 5.033 2.687 2.262-.193 3.397-2.168 4.62-3.827.899-1.219 1.641-2.521 2.415-3.818 1.112-1.854 2.544-3.495 3.744-5.266 1.006-1.473 2.006-2.984 3.17-4.318.542-.612 1.01-1.26 1.576-1.816 1.052-1.042 1.825-1.668 3.322-1.789 3.754-.303 7.531-.083 11.289-.014 2.864.05 6.451.68 8.926-1.107 2.025-1.464 2.256-4.182 2.618-6.456.426-2.711 1.107-5.445 1.326-8.181.236-3.021.607-3.855 3.295-5.259 2.21-1.153 4.686-1.692 6.928-2.78 2.461-1.192.491-5.037 0-6.901-.982-3.66-1.965-7.596-1.418-11.415.307-2.131 2.243-3.712 3.564-5.25 1.591-1.861 8.154-7.849 7.431-10.487z" fill="#bdcf46"/><g><path d="M3.618 57.564c-.255-.658-1.403-.907-1.9-1.398C.721 55.192.379 53.865.67 52.568a4.476 4.476 0 0 1 .946-1.909c.398-.463 1.446-.981 1.599-1.565.102-.438-.116-.928-.19-1.354-.098-.593-.102-1.121.098-1.677.694-1.882 2.029-3.337 4.064-3.663l.64-.028c.464 0 .932.057 1.372.205.324.102.7.297 1.052.297l.227-.028c.537-.156.598-.806.843-1.242.63-1.13 1.456-2.012 2.526-2.466a3.997 3.997 0 0 1 1.594-.343h.079c.426 0 .871.158 1.302.371.959.474 1.849 1.325 2.331 2.122.333.557.676.743 1.047.743.25 0 .519-.093.793-.215.366-.147.755-.341 1.177-.443l.565-.065c.588 0 1.182.193 1.729.445 1.2.528 2.396 1.465 3.244 2.613.352.472.635.974.834 1.501.158.4.278.807.324 1.234.088.814-.69 1.742-.134 2.52.019.037.033.065.056.102.06.065.158.084.236.139.325.204.728.314 1.052.454.421.187.802.437 1.144.76l.069.057c.223.23.482.52.728.814.148.188.283.381.413.576a11.99 11.99 0 0 0 .019 1.787c.05.576.12 1.149.25 1.717a6.698 6.698 0 0 1-.756 1.89 8.56 8.56 0 0 0-2.493-1.019 13.024 13.024 0 0 0-2.976-.353c-.264 0-.509.063-.769.074-2.924.193-5.575 1.407-7.507 3.558l-.213.25c-.269.335-.514.678-.737 1.021-1.274.167-2.428.573-3.499 1.12-1.631.826-3.035 2.012-4.055 3.635-.121.204-.194.417-.301.621-.051-.048-.083-.103-.139-.15l-.616-.184c-.468 0-.955.241-1.451.241l-.407-.065a5.158 5.158 0 0 1-.718-.314c-2.317-1.132-4.037-3.717-3.332-6.265.17-.649 1.185-1.818.888-2.523z" fill="#fcc21b"/><path d="M16.771 32.057c-.167-1.964.918-3.345 2.521-4.384.417-.269 1.057-.371 1.182-.916.079-.429-.209-.871-.357-1.263-.255-.63-.329-1.316-.306-1.991.18-2.058 1.547-3.484 3.378-4.302.389-.176.774-.24 1.182-.24l.482.027c.314.037.676.148 1.015.148l.348-.055c.579-.195 1.024-1.271 1.455-1.696a4.52 4.52 0 0 1 1.84-1.075 4.057 4.057 0 0 1 1.145-.167c.904 0 1.784.314 2.517.973.523.454.852 1.586 1.524 1.808l.228.028c.709 0 1.659-.899 2.229-1.095.023-.009.047-.009.069-.018.228 2.4 1.275 4.633 3.068 6.265-.028 2.133.649 4.189 1.808 5.969-.45.408-.885.834-1.293 1.308a8.998 8.998 0 0 0-1.683 2.911l-.144.074a11.094 11.094 0 0 0-3.874 3.595c-.57.882-.982 1.826-1.271 2.791a11.013 11.013 0 0 0-.352 1.659 17.054 17.054 0 0 0-.464-.797c-1.613-2.541-4.032-4.349-6.154-5.294-1.413-.63-2.776-.944-4.129-.944-.302 0-.603.009-.899.046-1.334-1.149-2.979-2.038-4.777-2.381a2.896 2.896 0 0 1-.288-.984z" fill="#fcc21b"/><path d="M44.66 11.49c-.19-.575-.273-1.095-.157-1.668.399-1.966 1.492-3.615 3.457-4.245a5.676 5.676 0 0 1 1.372-.186l.639.048c.283.046.612.156.917.156l.385-.082c.509-.232.473-.882.649-1.353.658-1.79 1.757-3.152 3.717-3.421l.339-.018c1.32 0 2.841.981 3.633 1.927.357.437.682.593.997.593.639 0 1.237-.647 2.002-.962a2.4 2.4 0 0 1 .991-.188c.445 0 .899.085 1.33.204.32.094.645.205.969.344 1.126.474 2.215 1.223 3.031 2.17.538.63.959 1.334 1.172 2.102.103.389.005.825-.051 1.26-.06.493-.06.974.371 1.345.361.298.94.278 1.362.399.097.018.181.064.278.092-1.316 1.299-2.614 3.254-2.985 6.137-.338.213-.667.453-.996.714l-.269.23c-2.836 2.559-4.055 6.219-3.467 10.177-.231-.119-.444-.267-.69-.36-1.284-.5-2.595-.761-3.916-.761-1.868 0-3.67.511-5.403 1.474-.065.039-.13.064-.19.101-.477-.193-.973-.36-1.497-.5l-.149-.036-.185-.037c-.394-.085-.793-.085-1.186-.122-.376-.037-.751-.119-1.127-.119-.44 0-.871.028-1.302.074-.255.036-.505.093-.755.139-.208.037-.421.074-.621.121a5.073 5.073 0 0 1-.937-1.883 4.453 4.453 0 0 1-.139-1.288c.005-.111-.014-.222 0-.332.074-.658.89-1.975.496-2.624-.357-.613-1.53-.686-2.096-1.093-1.13-.817-1.672-2.068-1.584-3.402.014-.186.069-.362.107-.538.101-.528.264-1.038.542-1.492.199-.315.626-.695.95-1.084.195-.233.362-.474.385-.704.038-.438-.254-.901-.389-1.309z" fill="#fcc21b"/><path d="M86.499 11.102a8.457 8.457 0 0 1 1.302-.103c1.71 0 3.522.528 4.825 1.584.269.215.547.428.76.686.566.687.361 2.031 1.423 2.337l.282.037c.399 0 .825-.187 1.187-.252.241-.037.478-.055.719-.055.269 0 .537.028.811.083.306.066.667.167 1.038.278.667.213 1.353.51 1.743.955 1.456 1.686 2.109 4.281 1.404 6.433-.199.621-.635 1.131-.861 1.733-.256.686-.079.527.319 1.111.273.409.445.991.658 1.447.357.777.371 1.583.361 2.426-.027 2.012-1.158 3.719-2.642 4.996-.385.335-.839.429-1.32.429-.478 0-.983-.094-1.488-.14l-.473-.028-.343.018c-.148.965.306 2.003.338 2.968.015.426-.009.825-.087 1.214-1.692-.908-3.643-1.41-5.733-1.41-1.997 0-3.962.454-5.7 1.336a7 7 0 0 0-1.279.823 9.319 9.319 0 0 0-1.372-.102c-.686 0-1.367.085-2.025.241-.616.15-1.205.343-1.775.566a4.453 4.453 0 0 1-.635-1.233c-.213-.658.005-2.253-.644-2.698-.214-.156-.496-.202-.807-.202-.32 0-.663.046-.987.063a15.896 15.896 0 0 0-1.464-1.705 11.682 11.682 0 0 0-2.415-1.873c-.009-.062-.009-.128-.014-.193a4.765 4.765 0 0 1 .004-.992c.083-.63.7-1.668.496-2.271-.051-.158-.171-.277-.283-.408-.204-.241-.445-.454-.645-.675-.426-.454-.728-.919-.866-1.521-.033-.139-.028-.277-.056-.408-.329-1.89.032-3.753 1.524-5.098.116-.092.25-.168.371-.25.458-.323.945-.602 1.482-.752.408-.11.969-.147 1.266-.479.38-.445.064-1.05.027-1.568-.134-1.973.329-3.754 2.071-4.847.339-.213.756-.323 1.187-.389.134-.019.273-.037.413-.048.116-.009.227-.037.348-.037.792 0 1.585.196 2.252.454.125.048.278.074.393.131.311.148.57.213.793.213.783 0 1.112-.814 1.641-1.521.083-.12.157-.23.25-.333.567-.602 1.406-.852 2.226-.971z" fill="#fcc21b"/><path d="M97.482 72.247l-.533-.074c-1.168 0-1.154 1.279-1.737 2.253-.417.712-1.187 1.129-1.956 1.427-.719.278-1.539.435-2.373.509-.268.028-.533.073-.806.073-1.459 0-2.929-.369-4.018-1.223-.695-.556-.783-1.909-1.891-1.983h-.051c-.468 0-.922.352-1.334.52a3.898 3.898 0 0 1-1.483.297h-.019c-1.724 0-3.522.046-4.931-1.066-1.117-.88-2.062-2.28-2.002-3.708.037-.777.288-1.546.663-2.241.269-.502.932-1.114.862-1.725-.06-.52-.477-.806-.909-1.038-.139-.074-.278-.14-.412-.213a4.36 4.36 0 0 1-1.835-1.808c-.589-1.095-.677-2.383-.362-3.606a5.767 5.767 0 0 1 1.594-2.726 4.857 4.857 0 0 1 2.345-1.26c.283-.065.589-.083.867-.156.227-.057.431-.15.58-.354l.042-.055c.403-.612.05-1.52-.13-2.142-.236-.777-.246-1.807.005-2.585a4.6 4.6 0 0 1 .524-1.047c.074-.112.144-.232.227-.334.788-1.047 1.975-1.742 3.332-2.068l.014-.009.616-.065c.496 0 .978.122 1.464.241.52.14 1.038.27 1.557.27l.477-.037c.506-.102.751-.474.987-.879.218-.363.427-.752.835-.956a6.8 6.8 0 0 1 3.03-.695c1.414 0 2.809.437 3.842 1.345.38.323.714.704.978 1.157.195.335.329.945.519 1.501.162.454.361.871.69 1.011l.394.076c.649 0 1.446-.454 2.048-.465h.074c1.418 0 2.623.706 3.369 1.854.408.63.649 1.362.714 2.103.056.63-.32 1.779.005 2.327.236.399.769.593 1.135.854.515.36.904.74 1.168 1.306.302.621.468 1.271.57 1.92.208 1.297.014 2.604-.82 3.771-.45.548-.969 1.048-1.599 1.373-.385.193-.917.353-1.13.741-.283.519.152 1.038.305 1.54.556 1.898.478 3.733-.987 5.181-.732.712-1.993 1.019-3.156 1.019a6.456 6.456 0 0 1-1.358-.151z" fill="#fcc21b"/><path d="M55.861 33.753c.746-.639 1.534-1.112 2.368-1.39.487-.168.987-.287 1.511-.287a4.8 4.8 0 0 1 .89.094c.278.054.565.139.857.25.732.286 1.372.925 1.868 1.686.519.779.88 1.679 1.024 2.447.023.131.07.213.106.324.259.806.788.992 1.441.992.362 0 .764-.048 1.172-.048l.056.012.417.017c.904.102 1.664.686 2.308 1.325a9.74 9.74 0 0 1 1.858 2.615c.691 1.428 1.038 3.021.774 4.503-.162.354-.306.724-.436 1.104-.45.621-1.065 1.215-.76 2.049.056.147.158.278.273.408-.014.139-.041.278-.046.426-2.748 1.742-4.708 4.709-5.205 8.156-.171 1.252-.084 2.475.149 3.652-.186.49-.557.992-.821 1.464a4.33 4.33 0 0 1-.885 1.095 9.009 9.009 0 0 0-1.01-.122 8.765 8.765 0 0 0-2.559-1.657c-1.631-.695-3.29-1.047-4.94-1.047-2.461 0-4.783.795-6.72 2.307l-.292.25c-.306.27-.593.547-.858.834l-.565-.018c-.528 0-1.033.083-1.544.156a7.601 7.601 0 0 1-1.256-1.26c-.978-1.271-.575-3.059-1.441-4.318-.621-.882-1.84-.343-2.647-1.001a7.522 7.522 0 0 1-2.164-2.976 6.895 6.895 0 0 1-.495-2.596c0-.482.073-.965.199-1.428.152-.584.385-1.157.76-1.677.44-.621 1.997-1.464 1.97-2.335a1.242 1.242 0 0 0-.186-.585c-.338-.584-1.038-1.131-1.288-1.688-.116-.232-.167-.482-.236-.724a3.929 3.929 0 0 1-.139-.797 4.368 4.368 0 0 1 .69-2.752 5.13 5.13 0 0 1 1.789-1.66c.603-.332 1.928-.471 2.327-1.038.287-.417.255-1.036.348-1.519a3.664 3.664 0 0 1 .654-1.549c.051-.064.074-.139.129-.204a7.328 7.328 0 0 1 1.177-1.111c.908-.704 1.946-1.149 3.086-1.243.144-.009.283-.054.431-.054.227 0 .468.045.705.073.135.018.273.018.417.046.746.195 1.474.502 2.085.984.065.054.134.11.204.176.311.277.644.593 1.053.619l.069.011c.241 0 .431-.122.607-.27.258-.219.476-.517.721-.721z" fill="#fcc21b"/><path d="M42.672 93.369a4.06 4.06 0 0 1 .241-1.521c.135-.369.408-.786.445-1.214.004-.055.023-.12.014-.185-.121-1.104-1.469-1.13-2.049-1.808-.037-.046-.064-.103-.097-.139-1.488-1.873-1.589-4.857-.83-7.025.265-.779.653-1.566 1.349-2.022.44-.286.945-.442 1.363-.655.417-.205.722-.474.788-.936a1.767 1.767 0 0 0-.065-.752c-.259-.935-.273-2.224.052-3.3.144-.473.338-.916.64-1.251a4.537 4.537 0 0 1 1.028-.816c.176-.103.353-.213.533-.287a4.514 4.514 0 0 1 1.756-.332c.463 0 .931.074 1.409.165.139.028.273.048.408.085.375.091.77.343 1.149.343l.394-.102c.385-.232.524-.77.7-1.16.306-.639.779-1.187 1.307-1.648a4.75 4.75 0 0 1 1.497-.807 5.057 5.057 0 0 1 1.571-.252c.872 0 1.751.204 2.613.576.566.241.964.612 1.344 1.112.028.036.056.082.079.119.241.354.459.788.825.984l.551.11c.547 0 1.247-.204 1.71-.204h.061a4.61 4.61 0 0 1 2.132.639c.042.028.074.065.116.094 1.126.714 1.845 1.872 1.873 3.271.019.724-.607 1.781-.292 2.448.333.713 1.942.789 2.554 1.112 2.692 1.419 3.332 5.107 2.122 7.776-.394.862-1.608.917-1.756 1.89-.2 1.373.848 2.679.565 4.108-.375 1.918-1.464 3.549-3.286 4.216-.445.167-.978.241-1.497.241-.38 0-.76-.037-1.094-.13-.394-.092-.899-.259-1.372-.259-.278 0-.542.054-.765.213l-.051.046c-.436.352-.361.955-.454 1.464-.44 2.604-2.979 4.349-5.418 4.349-1.515 0-2.993-.678-3.906-2.225-.306-.53-.607-1.225-1.307-1.271l-.065-.009c-.58 0-1.149.658-1.618.937-.681.397-1.437.675-2.22.74l-.255.02c-1.339 0-2.66-.854-3.531-1.863-.955-1.121-1.136-2.531-1.214-3.949-.015-.315-.033-.629-.047-.936z" fill="#fcc21b"/><path d="M12.127 80.699a8.642 8.642 0 0 1 .084-1.845c.097-.61.259-1.231.583-1.742.112-.176.241-.334.395-.474.037-.036.083-.064.121-.102.941-.798 2.256-1.064 1.52-2.585-.037-.074-.06-.185-.098-.27-.361-.88-.56-2.021-.427-3.039.065-.474.186-.919.413-1.279.982-1.558 2.498-2.096 4.226-2.096h.107l.515.02c.329.027.686.158 1.02.158l.542-.187c.018-.018.023-.055.042-.074.282-.307.343-.806.444-1.194.185-.678.557-1.3.997-1.845 1.047-1.169 2.414-1.67 3.864-1.67.542 0 1.094.076 1.646.195.149.037.264.11.403.167.408.156.774.38 1.117.704.333.298.644.779 1.079.919l.278.045c.051 0 .116-.02.176-.028.588-.064 1.33-.444 1.821-.51l.593-.037c.297 0 .589.037.876.094.25.045.496.102.737.195 1.302.491 2.261 1.538 2.544 2.965.148.715-.283 1.864.143 2.466.204.297.654.399 1.131.462-.899 1.568-1.279 3.328-1.331 4.98-1.288 1.084-2.266 2.585-2.91 4.477-1.117 3.197-1.326 8.165 1.427 12.077a1.546 1.546 0 0 1-.292.537c-1.274 1.492-2.984 2.624-5 2.641l-.311.009c-.727 0-1.432-.054-2.113-.369-.459-.204-1.038-.38-1.441-.649-.408-.27-.459-.445-.668-.445-.102 0-.236.037-.454.122-.602.222-1.112.658-1.729.86a5.921 5.921 0 0 1-1.849.288c-.454 0-.903-.056-1.353-.149-1.195-.239-2.345-.768-3.231-1.538-.009-.009-.014-.018-.022-.028-.686-.621-1.024-1.898-1.21-2.761a4.032 4.032 0 0 1-.027-1.529c.074-.445.343-.992.208-1.464-.139-.482-.496-.687-.909-.834-.491-.188-1.047-.278-1.427-.585-.162-.139-.301-.297-.445-.445-1.114-1.187-1.703-2.92-1.805-4.608z" fill="#fcc21b"/><path d="M36.522 34.922c1.534-1.994 1.761-4.857-.315-6.571-1.626-1.353-4.129-1.716-6.024-.714-2.744 1.446-3.828 4.771-2.007 7.415 2.071 2.994 6.247 2.622 8.346-.13z" fill="#fff"/><path d="M56.283 20.518c.181.148.371.241.561.353 2.025 1.132 4.444.286 5.918-1.473 1.465-1.753 1.701-4.125.751-5.952a4.683 4.683 0 0 0-2.456-2.225c-.056-.028-.106-.028-.167-.045-2.915-1.076-5.83.686-6.632 3.623-.302 1.112-.167 2.309.273 3.384.38.917.974 1.742 1.752 2.335z" fill="#fff"/><path d="M12.336 59.103c1.005 1.288 2.358 1.604 3.628 1.234.779-.224 1.53-.695 2.155-1.362.413-.437.728-.956.992-1.492.728-1.492.885-3.254.399-4.792-.32-1.013-.885-1.92-1.775-2.559-2.419-1.742-5.274-.353-6.391 2.649-.76 2.058-.297 4.664.969 6.284.009.009.013.029.023.038z" fill="#fff"/><path d="M28.218 84.759c2.174-.389 4.147-2.131 4.63-4.31.695-3.169-1.233-6.265-4.556-6.591-3.772-.369-6.294 3.197-5.524 6.738.56 2.559 2.688 4.665 5.45 4.163z" fill="#fff"/><path d="M81.498 27.183c.325 3.316 3.42 5.245 6.586 4.551 2.183-.482 3.93-2.457 4.314-4.625.501-2.763-1.604-4.894-4.166-5.45-3.541-.78-7.109 1.75-6.734 5.524z" fill="#fff"/><path d="M51.056 52.504c1.195 2.837 4.407 3.523 7.095 2.502 3.708-1.398 5.479-5.856 2.878-9.102-2.294-2.862-6.293-2.771-8.787-.241-1.715 1.753-2.132 4.616-1.186 6.841z" fill="#fff"/><path d="M87.671 55.953c-2.034.926-3.313 3.234-3.229 5.439.102 2.809 2.623 4.431 5.241 4.431 3.615 0 6.558-3.226 5.395-6.831-1.024-3.178-4.464-4.392-7.407-3.039z" fill="#fff"/><path d="M55.189 89.709c2.206-.011 4.458-1.382 5.311-3.449 1.242-2.993-.121-6.376-3.337-7.274-3.647-1.03-6.757 2.048-6.609 5.662.103 2.613 1.832 5.061 4.635 5.061z" fill="#fff"/></g></g></svg>