<svg id="レイヤー_1" xmlns="http://www.w3.org/2000/svg" viewBox="0 0 128 128"><g><path d="M110.378 77.661c2.697-4.017 4.683-8.327 5.484-13.093.805-4.789.768-11.652-1.194-16.212-4.6-10.763-12.468-16.927-23.269-16.866-.402.004-.8.004-1.203.018-4.234.069-8.344 1.015-12.222 2.637-4.16 1.751-7.016 4.375-10.708 6.721-1.398.894-3.392.885-4.78 0-3.698-2.346-6.548-4.97-10.704-6.721-3.883-1.622-7.992-2.567-12.223-2.637-.402-.014-.805-.014-1.212-.018-10.801-.06-18.664 6.104-23.268 16.866-1.958 4.56-1.995 11.423-1.194 16.212.8 4.766 2.791 9.076 5.488 13.093 9.01 13.42 25.082 19.647 36.67 30.459 1.24 1.151 2.457 2.396 3.721 3.559 1.342 1.234 2.957 4.072 5.114 4.202 2.152-.13 3.767-2.968 5.109-4.202 1.263-1.162 2.48-2.407 3.716-3.559 11.588-10.811 27.665-17.039 36.675-30.459z" fill="#d7598b"/><path d="M118.832 87.967c1.366-2.666 2.953-6.524 2.277-9.59-.13-.56-.37-1.485-1.092-1.499-.472-.004-.8.287-1.05.662-.222.338-.384.739-.537 1.054-1.254 2.629-2.716 5.184-4.517 7.479-1.685 2.148-3.586 4.119-5.608 5.947a82.659 82.659 0 0 1-6.345 5.108 126.106 126.106 0 0 1-5.798 3.961c-.546.358-1.269.917-1.014 1.718.237.755 1.717.54 2.319.425 8.556-1.682 17.321-7.372 21.365-15.265z" fill="#ed6c30"/><path d="M126.39 87.864c-.685-.579-1.3-.175-1.814.56-1.101 1.551-1.749 3.414-2.818 5.001-2.776 4.111-6.705 8.312-11.157 10.595-.509.258-.921.576-1.374.906-1.648 1.199 1.152 1.453 1.893 1.343 5.109-.746 10.759-3.601 13.443-8.164 1.269-2.147 2.119-4.512 2.263-7.016.045-.735.216-2.673-.436-3.225z" fill="#ed6c30"/><path d="M28.38 26.926c.337-.119.749-.236 1.106-.429.402-.209.726-.515.763-.981.06-.723-.838-1.053-1.388-1.232-4.914-1.606-11.569 1.49-15.345 4.503-4.942 3.94-7.891 10.347-7.891 16.65 0 1.069-.083 2.192.023 3.258.051.478.305 1.629.838 1.828 1.327.49 2.096-3.624 2.3-4.359a25.958 25.958 0 0 1 2.624-6.229c3.688-6.219 10.306-10.569 16.97-13.009z" fill="#ed6c30"/><path d="M15.135 21.643c.444-.181 1.801-.478 2.629-.98.578-.354.902-.803.472-1.38-.717-.987-2.901-.783-3.961-.768-1.393.018-2.791.156-4.142.527C4.39 20.618.855 26.733 1.137 32.475c.032.677.134 1.709.495 2.297.444.721 1.036.282 1.467-.265.712-.902 1.189-1.938 1.68-2.967.458-.952.958-1.896 1.527-2.79 2.202-3.409 5.09-5.601 8.829-7.107z" fill="#ed6c30"/></g></svg>