<svg id="レイヤー_1" xmlns="http://www.w3.org/2000/svg" viewBox="0 0 128 128"><g><path d="M28.463 26.357c-.238.125-.468.266-.702.398-.265.148-.53.291-.786.449-.229.143-.446.301-.671.451-.251.176-.503.334-.75.512-.216.158-.419.344-.631.512-.238.195-.486.371-.715.574-.208.178-.397.381-.596.564-.229.213-.463.416-.688.646-.181.186-.353.389-.53.572-.229.248-.459.486-.68.752-.172.193-.331.416-.494.617-.216.266-.441.531-.649.812-.154.213-.3.432-.45.645-.208.301-.419.592-.622.9-.133.203-.256.424-.384.637-.208.334-.415.67-.614 1.016-.132.238-.256.494-.384.732-.186.344-.371.68-.543 1.033-.3.6-.583 1.227-.857 1.863-1.863 4.336-1.898 10.877-1.135 15.434.764 4.539 2.654 8.637 5.227 12.477 8.579 12.779 23.885 18.703 34.918 29 1.179 1.102 2.34 2.285 3.541 3.391 1.276 1.174 2.821 3.877 4.865 3.998 2.053-.121 3.594-2.824 4.87-3.998 1.201-1.106 2.362-2.289 3.541-3.391 11.038-10.297 26.34-16.221 34.923-29 2.574-3.84 4.459-7.938 5.223-12.477.764-4.557.729-11.098-1.135-15.434a39.08 39.08 0 0 0-.856-1.863c-.172-.354-.353-.68-.534-1.016-.132-.248-.256-.504-.393-.75-.239-.424-.49-.822-.742-1.229-.088-.143-.168-.283-.256-.416a21.29 21.29 0 0 0-.737-1.066c-.11-.16-.216-.328-.331-.486a23.414 23.414 0 0 0-.777-.971c-.119-.152-.238-.309-.362-.459a26.082 26.082 0 0 0-.821-.893c-.132-.141-.256-.291-.393-.432-.273-.273-.556-.531-.843-.795-.146-.133-.287-.273-.438-.406a15.984 15.984 0 0 0-.87-.697c-.159-.133-.313-.266-.481-.389-.287-.213-.583-.406-.879-.601-.181-.123-.357-.256-.539-.371-.296-.186-.601-.344-.901-.512-.199-.105-.388-.23-.587-.336-.3-.15-.609-.283-.914-.424-.216-.098-.424-.203-.645-.291-.3-.125-.609-.23-.918-.344-.234-.08-.463-.178-.707-.256-.3-.098-.613-.168-.923-.258-.256-.07-.507-.141-.768-.203-.304-.07-.622-.123-.931-.184-.278-.045-.548-.107-.826-.15-.314-.045-.64-.07-.963-.105-.287-.035-.569-.07-.861-.098-.322-.02-.658-.027-.993-.035-.274-.008-.547-.027-.826-.027h-.146c-.384 0-.769 0-1.148.008-4.035.07-7.943.973-11.643 2.518-3.956 1.67-6.671 4.158-10.199 6.402a3.84 3.84 0 0 1-.976.432c-.102.027-.212.045-.317.07-.256.062-.513.09-.773.105-.11 0-.221.012-.331.012a4.563 4.563 0 0 1-1.068-.143 3.973 3.973 0 0 1-1.082-.477c-3.519-2.244-6.234-4.732-10.194-6.402-3.7-1.545-7.608-2.447-11.638-2.518-.384-.008-.769-.008-1.148-.008h-.142c-.282 0-.552.02-.83.027-.332.008-.667.016-.994.035-.296.027-.578.062-.865.098-.322.035-.645.061-.958.105-.287.043-.565.106-.848.158-.305.053-.609.105-.91.176-.278.062-.543.141-.817.223-.291.078-.587.148-.874.238-.261.088-.512.186-.772.283-.283.105-.574.191-.852.309-.248.105-.481.229-.724.334-.276.138-.559.253-.828.393z" fill="#d7598b"/><path fill="#fcc21b" d="M67.086 27.94l3.055-5.301-3.055-5.297h-6.119l-3.055 5.297 3.055 5.301z"/><path fill="#fcc21b" d="M60.967 107.736l-3.055 5.297 3.055 5.299h6.119l3.055-5.299-3.055-5.297z"/><path fill="#fcc21b" d="M72.927 101.123l-3.055 5.297 3.055 5.297h6.115l3.06-5.297-3.06-5.297z"/><path fill="#fcc21b" d="M80.181 23.32l3.06-5.297-3.06-5.291h-6.119l-3.056 5.291 3.056 5.297z"/><path fill="#fcc21b" d="M93.987 20.266l3.055-5.299-3.055-5.299h-6.115l-3.064 5.299 3.064 5.299z"/><path fill="#fcc21b" d="M107.413 24.221l3.055-5.299-3.055-5.289h-6.115l-3.059 5.289 3.059 5.299z"/><path fill="#fcc21b" d="M112.15 33.307h6.12l3.055-5.289-3.055-5.297h-6.12l-3.055 5.297z"/><path fill="#fcc21b" d="M115.201 41.059l3.06 5.298h6.115l3.06-5.298-3.06-5.297h-6.115z"/><path fill="#fcc21b" d="M124.645 49.924h-6.115l-3.055 5.299 3.055 5.289h6.115l3.06-5.289z"/><path fill="#fcc21b" d="M94.525 84.115l-3.055 5.299 3.055 5.289h6.115l3.065-5.289-3.065-5.299z"/><path fill="#fcc21b" d="M114.009 63.408l-3.055 5.291 3.055 5.297h6.119l3.056-5.297-3.056-5.291z"/><path fill="#fcc21b" d="M105.025 75.293l-3.056 5.291 3.056 5.297h6.114l3.06-5.297-3.06-5.291z"/><path fill="#fcc21b" d="M83.364 91.781l-3.055 5.297 3.055 5.299h6.115l3.06-5.299-3.06-5.297z"/><path fill="#fcc21b" d="M55.073 101.123h-6.115l-3.06 5.297 3.06 5.297h6.115l3.055-5.297z"/><path fill="#fcc21b" d="M53.934 23.32l3.059-5.297-3.059-5.291h-6.115l-3.055 5.291 3.055 5.297z"/><path fill="#fcc21b" d="M40.128 20.266l3.06-5.299-3.06-5.299h-6.115l-3.055 5.299 3.055 5.299z"/><path fill="#fcc21b" d="M26.702 24.221l3.059-5.299-3.059-5.289h-6.115l-3.06 5.289 3.06 5.299z"/><path fill="#fcc21b" d="M15.845 33.307l3.06-5.289-3.06-5.297H9.73l-3.055 5.297 3.055 5.289z"/><path fill="#fcc21b" d="M9.739 46.357l3.055-5.298-3.055-5.297H3.624l-3.06 5.297 3.06 5.298z"/><path fill="#fcc21b" d="M12.525 55.223L9.47 49.924H3.355l-3.06 5.299 3.06 5.289H9.47z"/><path fill="#fcc21b" d="M33.47 84.115h-6.111l-3.064 5.299 3.064 5.289h6.111l3.055-5.289z"/><path fill="#fcc21b" d="M17.046 68.699l-3.055-5.291H7.876l-3.06 5.291 3.06 5.297h6.115z"/><path fill="#fcc21b" d="M22.975 75.293h-6.114l-3.06 5.291 3.06 5.297h6.114l3.056-5.297z"/><path fill="#fcc21b" d="M44.635 91.781h-6.114l-3.06 5.297 3.06 5.299h6.114l3.056-5.299z"/></g></svg>