<svg id="レイヤー_1" xmlns="http://www.w3.org/2000/svg" viewBox="0 0 128 128"><g fill="#d7598b"><path d="M23.114 41.316c1.632 2.238 3.764 3.935 6.182 5.299 8.072 4.558 17.915 3.604 26.639 6.163.932.277 1.877.598 2.823.865 1.004.286 2.569 1.321 3.707.838 1.066-.623 1.164-2.495 1.534-3.468.348-.92.651-1.873.985-2.784 3.158-8.527 9.79-15.858 10.949-25.056.353-2.756.259-5.476-.558-8.126-.821-2.657-2.609-6.162-4.785-8-5.138-4.327-10.753-5.469-16.274-2.648l-.616.32c-2.15 1.125-4.014 2.668-5.584 4.497-1.677 1.971-2.466 4.049-3.755 6.208-.486.812-1.512 1.319-2.449 1.229-2.502-.257-4.638-.865-7.216-.685-2.409.169-4.759.74-6.949 1.791-.205.099-.41.197-.62.306-5.553 2.747-7.997 7.938-7.582 14.637.171 2.845 1.919 6.367 3.569 8.614z"/><path d="M41.163 87.557c-1.168-7.296.602-15.145-2.248-22.121-.856-2.095-2.007-3.978-3.644-5.529-1.646-1.562-4.317-3.336-6.587-3.756-5.37-1.024-9.803.42-12.586 4.611l-.308.482c-1.075 1.649-1.779 3.495-2.158 5.414-.406 2.07-.134 3.853-.183 5.896-.018.777-.54 1.543-1.244 1.856-1.874.819-3.626 1.239-5.383 2.389-1.646 1.09-3.077 2.428-4.21 4.052l-.312.461c-2.836 4.166-2.498 8.813.473 13.397 1.254 1.946 3.907 3.746 5.968 4.685 2.056.926 4.237 1.283 6.498 1.275 7.537.008 14.133-4.595 21.332-6.271.771-.178 1.57-.33 2.346-.517.83-.196 2.35-.09 2.957-.884.513-.865-.165-2.23-.295-3.077-.121-.783-.286-1.577-.416-2.363z"/><path d="M124.001 46.722l-.42-.374c-1.48-1.302-3.198-2.266-5.048-2.927-1.98-.704-3.787-.693-5.802-1.043-.758-.134-1.445-.757-1.65-1.507-.535-1.972-.696-3.765-1.579-5.682-.83-1.775-1.944-3.389-3.385-4.754l-.411-.374c-3.706-3.418-8.353-3.765-13.326-1.499-2.105.953-4.272 3.317-5.503 5.218-1.222 1.89-1.891 4.005-2.221 6.244-1.111 7.457 2.479 14.646 3.077 22.022.062.784.094 1.598.165 2.39.076.849-.263 2.337.441 3.061.785.625 2.23.161 3.082.15.798 0 1.614-.044 2.399-.053 7.395-.09 14.891 2.81 22.219 1.017 2.19-.544 4.228-1.401 6.003-2.791 1.784-1.4 3.929-3.781 4.683-5.968 1.799-5.155 1.022-9.758-2.724-13.13z"/><path d="M77.092 98.377c-.468-1.838-1.208-3.55-2.39-5.03-1.191-1.498-3.207-3.283-5.048-3.906-4.357-1.482-8.22-.795-11.034 2.381l-.316.347a13.04 13.04 0 0 0-2.426 4.272c-.584 1.669-.562 3.194-.852 4.888a1.818 1.818 0 0 1-1.253 1.4c-1.655.465-3.167.608-4.768 1.365-1.494.715-2.85 1.66-3.978 2.881l-.317.357c-2.854 3.132-3.113 7.047-1.177 11.222.816 1.767 2.814 3.576 4.428 4.603 1.606 1.017 3.385 1.559 5.268 1.827 6.279.885 12.314-2.185 18.517-2.738.665-.061 1.347-.088 2.016-.15.713-.071 1.962.205 2.568-.394.526-.66.121-1.872.112-2.604-.009-.669-.054-1.346-.067-2.015-.126-6.218 2.273-12.552.717-18.706z"/><path d="M119.144 94.772c-1.052-1.007-2.297-1.774-3.652-2.326-1.445-.581-2.788-.625-4.264-.947a1.616 1.616 0 0 1-1.182-1.168c-.339-1.472-.401-2.81-.999-4.255-.562-1.346-1.338-2.577-2.368-3.62l-.29-.304c-2.645-2.64-6.074-3.033-9.838-1.509-1.588.652-3.261 2.329-4.233 3.702-.963 1.365-1.525 2.916-1.828 4.56-1.053 5.493 1.391 10.935 1.614 16.42.027.59.027 1.188.044 1.774.036.634-.263 1.723.241 2.285.562.48 1.646.178 2.284.205.589.017 1.195.017 1.779.025 5.481.16 10.949 2.544 16.431 1.428 1.646-.331 3.18-.91 4.54-1.891 1.36-.982 3.02-2.678 3.648-4.272 1.485-3.773 1.052-7.208-1.623-9.82l-.304-.287z"/></g></svg>