<svg id="レイヤー_1" xmlns="http://www.w3.org/2000/svg" viewBox="0 0 128 128"><g><g><g><g><path d="M124.321 38.153c-5.574-13.046-15.105-20.511-28.186-20.44-.491.008-.978.008-1.463.018-5.128.089-10.104 1.237-14.809 3.197-5.035 2.129-8.493 5.3-12.967 8.144-1.696 1.078-4.111 1.069-5.79 0-4.484-2.844-7.933-6.015-12.973-8.144-4.703-1.96-9.681-3.108-14.804-3.197-.491-.009-.976-.009-1.462-.018-13.087-.071-22.617 7.393-28.196 20.44-2.368 5.521-2.412 13.833-1.44 19.637.968 5.777 3.37 10.988 6.647 15.865 10.914 16.253 30.386 23.797 44.423 36.896 1.5 1.396 2.976 2.907 4.504 4.311 1.625 1.494 3.585 4.929 6.192 5.088 2.606-.16 4.567-3.595 6.193-5.088 1.528-1.404 3.003-2.915 4.505-4.311 14.041-13.1 33.509-20.644 44.423-36.896 3.273-4.876 5.68-10.088 6.651-15.865.973-5.804.928-14.116-1.448-19.637z" fill="#d7598b"/></g></g></g><g fill="#fff"><path d="M111.354 39.178l14.416-2.013-14.421-2.033 4.947-8.551-8.545 4.938-2.023-14.398-2.024 14.398-8.551-4.938 4.952 8.551-14.417 2.033 14.404 2.013-4.947 8.559 8.555-4.955 2.028 14.415 2.023-14.415 8.55 4.955z"/><path d="M37.994 36.113L52.4 34.094l-14.42-2.028 4.951-8.554-8.551 4.942-2.014-14.403-2.031 14.403-8.552-4.942 4.952 8.554-14.417 2.028 14.404 2.019-4.939 8.554 8.552-4.95 2.031 14.415 2.019-14.415 8.546 4.95z"/><path d="M56.512 86.825l12.129-1.697-12.138-1.705 4.165-7.207-7.199 4.16-1.7-12.119-1.705 12.119-7.199-4.16 4.169 7.207-12.136 1.705 12.128 1.697-4.161 7.207 7.199-4.168L51.769 102l1.7-12.136 7.199 4.168z"/><path d="M67.726 105.021l7.301-1.016-7.31-1.033 2.508-4.337-4.331 2.508-1.025-7.296-1.025 7.296-4.333-2.508 2.509 4.337-7.306 1.033 7.302 1.016-2.509 4.337 4.337-2.508 1.025 7.305 1.025-7.305 4.331 2.508z"/><path d="M95.33 61.959l7.301-1.021-7.309-1.028 2.508-4.338-4.337 2.504-1.021-7.296-1.029 7.296-4.327-2.504 2.508 4.338-7.305 1.028 7.3 1.021-2.508 4.337 4.332-2.509 1.029 7.305 1.021-7.305 4.337 2.509z"/><path d="M54.07 52.843l7.578-1.06-7.578-1.07 2.597-4.495-4.492 2.597-1.06-7.57-1.065 7.57-4.496-2.597 2.606 4.495-7.578 1.07 7.574 1.06-2.602 4.496 4.496-2.606 1.065 7.579 1.065-7.579 4.492 2.606z"/></g><g fill="#fff"><g><path d="M90.415 87.002c12.097-6.634 17.071-15.388 17.839-17.014.68-1.448 1.025-2.835.08-3.197-.959-.371-2.788 1.449-3.353 1.997-5.592 5.397-11.659 9.806-16.62 15.308-.747.83-1.731 2.085-1.673 3.25.06 1.201 1.96.618 3.727-.344z"/><path d="M110.815 60.024c.499-.725 1.699-2.067 2.574-1.263 1.109 1.016.226 3.515-.445 4.496-.565.822-2.385 2.174-3.044.628-.437-1.026.08-2.65.915-3.861z"/></g><path d="M26.456 79.131c-2.755-2.244-8.7-8.029-11.885-15.564-3.118-7.367-2.681-12.879-2.178-15.493.199-1.042.804-3.154 2.085-3.145 1.36.018 1.542 2.295 1.657 3.18.344 2.792 1.413 8.497 3.802 13.78 2.681 5.927 6.563 11.845 8.658 14.026 1.974 2.032 2.87 3.401 2.048 4.364-.856 1.007-3.187-.327-4.187-1.148z"/></g></g></svg>