<svg id="レイヤー_1" xmlns="http://www.w3.org/2000/svg" viewBox="0 0 128 128"><g><g fill="#d7598b"><path d="M110.917 40.808c-.173-.347-.36-.681-.538-1.019-.133-.249-.263-.506-.396-.751a35.728 35.728 0 0 0-.752-1.24c-.084-.139-.164-.286-.253-.423-.241-.369-.494-.72-.743-1.072-.115-.161-.222-.329-.338-.485-.249-.343-.516-.659-.779-.983-.129-.151-.244-.316-.369-.463-.267-.312-.547-.604-.828-.902-.128-.138-.258-.29-.391-.428-.276-.28-.565-.538-.85-.8-.151-.138-.289-.285-.441-.414-.285-.249-.587-.475-.875-.707-.165-.129-.325-.267-.485-.392-.29-.213-.592-.404-.89-.604-.183-.12-.355-.253-.542-.369-.294-.187-.604-.347-.908-.516-.195-.111-.387-.232-.591-.333-.298-.155-.61-.289-.92-.432-.215-.098-.428-.204-.646-.298-.302-.124-.618-.227-.926-.338-.24-.084-.471-.183-.711-.258-.307-.098-.623-.177-.934-.258-.259-.071-.512-.151-.771-.213-.311-.071-.627-.12-.942-.178-.276-.053-.551-.116-.828-.156-.32-.049-.649-.076-.974-.111-.285-.031-.569-.071-.867-.088-.325-.027-.663-.027-.997-.04-.28-.009-.552-.027-.836-.027h-.143c-.391 0-.773 0-1.161.014-4.06.071-8.001.974-11.729 2.531-3.986 1.682-6.721 4.194-10.27 6.454a3.87 3.87 0 0 1-.987.427c-.102.031-.209.053-.316.075a4.576 4.576 0 0 1-.783.107c-.112.004-.222.013-.33.008a4.549 4.549 0 0 1-1.076-.142 4.075 4.075 0 0 1-1.09-.477c-3.545-2.26-6.285-4.772-10.27-6.454-3.728-1.557-7.668-2.46-11.725-2.531-.387-.014-.773-.014-1.156-.014h-.147c-.28 0-.555.018-.836.027-.333.013-.672.013-1 .04-.294.018-.583.062-.873.094-.32.03-.644.057-.96.106-.294.04-.575.106-.858.161-.304.058-.615.107-.913.173-.28.066-.552.151-.827.227-.294.079-.592.151-.877.24-.267.084-.52.192-.777.285-.29.102-.579.2-.859.316-.249.102-.489.222-.734.337-.28.129-.561.25-.836.388-.241.124-.472.267-.707.4-.262.151-.529.289-.787.449-.231.146-.454.307-.681.462-.249.17-.507.333-.751.512-.218.165-.427.343-.64.516-.241.192-.485.378-.722.583-.204.178-.4.373-.604.561-.226.218-.463.426-.685.654-.183.187-.356.387-.534.579-.231.249-.467.489-.689.751-.17.2-.329.418-.503.626-.212.272-.435.534-.644.818-.161.209-.302.437-.454.654-.213.298-.427.591-.628.903-.133.209-.258.432-.387.64-.21.339-.423.672-.624 1.028-.133.236-.257.489-.387.734-.182.347-.373.681-.547 1.036a36.13 36.13 0 0 0-.862 1.882c-1.877 4.373-1.909 10.96-1.139 15.549.765 4.578 2.673 8.706 5.262 12.566C29 83.682 44.416 89.646 55.535 100.024c1.188 1.112 2.354 2.299 3.568 3.416 1.28 1.183 2.837 3.905 4.901 4.03 2.064-.125 3.616-2.847 4.906-4.03 1.205-1.117 2.375-2.304 3.567-3.416 11.116-10.377 26.533-16.342 35.184-29.218 2.588-3.861 4.487-7.989 5.262-12.566.769-4.589.729-11.177-1.148-15.549a38.391 38.391 0 0 0-.858-1.883z"/><path d="M123.647 37.615c-6.521-15.266-18.935-24.02-34.191-24.02-.542 0-1.071.004-1.387.014-5.561.098-11.107 1.285-16.521 3.549-3.01 1.268-5.471 2.806-7.543 4.23-2.073-1.424-4.542-2.967-7.589-4.248-5.373-2.247-10.915-3.434-16.252-3.523a51.466 51.466 0 0 0-1.749-.022c-15.11 0-27.52 8.753-34.048 24.002-3.888 9.055-2.523 19.721-2.011 22.778 1.019 6.079 3.398 11.844 7.277 17.626 6.681 9.951 16.088 16.32 24.383 21.938 4.688 3.171 9.118 6.174 12.703 9.518.48.449.952.912 1.424 1.375.654.627 1.303 1.258 1.948 1.859l.275.321c1.744 2.072 5.845 6.921 12.859 7.348l.778.044.773-.044c7.015-.423 11.111-5.271 12.859-7.34l.271-.324c.641-.596 1.273-1.206 1.895-1.815.494-.476.983-.952 1.481-1.418 3.593-3.349 8.023-6.353 12.712-9.528 8.295-5.613 17.698-11.982 24.379-21.938 3.87-5.769 6.253-11.533 7.278-17.622 1.056-6.29 1.082-15.577-2.004-22.76zm-4.732 21.625c-.854 5.111-2.887 10-6.205 14.945-5.947 8.852-14.385 14.567-22.552 20.101-4.915 3.327-9.554 6.467-13.539 10.182-.502.475-1 .96-1.575 1.517a93.495 93.495 0 0 1-1.792 1.717l-.53.551-.308.361c-1.378 1.632-3.95 4.678-8.045 4.923l-.365.022-.369-.022c-4.093-.245-6.668-3.291-8.082-4.972l-.276-.316-.534-.561c-.61-.565-1.223-1.161-1.895-1.815-.489-.475-.974-.952-1.468-1.41-3.985-3.713-8.62-6.854-13.544-10.189C29.679 88.749 21.24 83.039 15.307 74.2c-3.327-4.964-5.359-9.852-6.214-14.958-.311-1.841-1.694-11.404 1.552-18.957 5.48-12.806 15.341-19.856 27.769-19.856.588 0 1.054 0 1.623.018 4.489.081 9.239 1.117 13.726 2.99 2.643 1.117 4.795 2.504 6.375 3.585a6.826 6.826 0 0 0 7.735 0c1.57-1.081 3.71-2.464 6.307-3.559 4.599-1.921 9.31-2.935 14.007-3.02l.147-.004c.253-.009.685-.009 1.121-.009 12.521 0 22.436 7.06 27.916 19.882 2.505 5.834 2.397 13.844 1.544 18.928z"/></g><path d="M83.611 34.029c.485-.088 1.228-.124 1.842.037.379.102.716.257.881.573l.089.28c.325 1.659-2.126 3.029-3.194 3.838-1.774 1.339-2.784 3.772-5.15 4.279-1.766.378-3.38-.814-3.242-2.713a3.934 3.934 0 0 1 .987-2.349c.267-.298.605-.538.912-.805 1.916-1.641 4.469-2.677 6.875-3.14z" fill="#fff"/><path d="M35.044 51.195c-1.339 1.979-2.006 4.313-2.887 6.511-.658 1.633-2.041 5.792-4.612 3.865-1.748-1.311-2.407-4.083-2.9-6.084-.33-1.338-.49-2.806-.535-4.181-.138-4.385 1.42-9.247 4.679-12.289.828-.77 1.74-1.446 2.709-2.02 4.194-2.481 9.518-3.118 14.176-1.863 1.819.493 3.532 1.672 4.656 3.185 2.437 3.269-1.788 6.516-4.541 7.423-1.415.467-2.888.792-4.32 1.219-2.51.751-4.917 2.001-6.425 4.234z" fill="#fff"/></g></svg>