<svg id="レイヤー_1" xmlns="http://www.w3.org/2000/svg" xmlns:xlink="http://www.w3.org/1999/xlink" viewBox="0 0 128 128"><g><g><g><g fill="#d7598b"><path d="M119.743 49.372l-.376-.271c-1.345-.952-2.846-1.598-4.436-1.984-1.709-.41-3.205-.244-4.905-.362-.644-.038-1.265-.504-1.497-1.101-.622-1.585-.909-3.066-1.81-4.566-.838-1.407-1.908-2.646-3.218-3.644l-.377-.284c-3.37-2.503-7.256-2.384-11.176-.067-1.666.974-3.256 3.116-4.106 4.799-.85 1.679-1.213 3.49-1.298 5.367-.267 6.279 3.34 11.932 4.482 17.988.118.65.215 1.318.347 1.975.131.693-.013 1.954.634 2.491.702.456 1.857-.06 2.567-.141.664-.071 1.327-.183 1.983-.258 6.118-.72 12.592 1.026 18.504-1.104 1.775-.635 3.387-1.53 4.735-2.837 1.35-1.319 2.922-3.472 3.353-5.354 1.042-4.432-.003-8.173-3.406-10.647z"/><path d="M28.098 36.815c.617.234 1.239.496 1.869.724.664.246 1.666 1.018 2.461.745.757-.368.909-1.629 1.206-2.271.283-.604.533-1.23.804-1.831 2.549-5.611 7.391-10.249 8.618-16.411.372-1.847.439-3.69.017-5.522-.427-1.84-1.463-4.301-2.85-5.641-3.257-3.182-7.007-4.216-10.876-2.585l-.433.187c-1.505.66-2.837 1.611-3.987 2.774-1.235 1.247-1.865 2.616-2.842 4.012-.372.529-1.087.82-1.717.716-1.679-.292-3.095-.809-4.85-.816-1.632-.004-3.252.271-4.787.876l-.432.176c-3.886 1.59-5.789 4.978-5.835 9.532-.025 1.928.989 4.398 1.992 5.995 1.002 1.596 2.359 2.846 3.928 3.883 5.239 3.476 11.938 3.309 17.714 5.457z"/><path d="M28.313 71.025c.479.174 1.197.723 1.759.525.541-.268.651-1.168.863-1.63.198-.436.372-.888.566-1.313 1.802-4.025 5.248-7.359 6.106-11.773.258-1.324.3-2.642-.009-3.95-.312-1.314-1.061-3.068-2.055-4.029-2.347-2.258-5.032-2.989-7.793-1.806l-.309.137a9.183 9.183 0 0 0-2.85 1.996c-.871.9-1.319 1.881-2.013 2.878-.262.38-.773.593-1.226.521-1.201-.205-2.216-.567-3.476-.567a9.214 9.214 0 0 0-3.413.643l-.312.127c-2.778 1.155-4.123 3.585-4.14 6.842-.009 1.379.719 3.141 1.446 4.282.718 1.138 1.695 2.026 2.82 2.768 3.763 2.466 8.554 2.32 12.689 3.839.451.163.895.349 1.347.51z"/><path d="M94.993 27.104c.164.444.309.904.482 1.349.178.478.229 1.383.749 1.683.554.237 1.307-.266 1.797-.404.456-.133.913-.294 1.365-.425 4.229-1.246 9.003-.795 12.919-3.011 1.171-.659 2.194-1.488 2.99-2.574.803-1.086 1.649-2.799 1.725-4.178.199-3.253-.99-5.764-3.683-7.096l-.304-.148c-1.061-.508-2.203-.781-3.366-.862-1.252-.086-2.288.216-3.501.339a1.302 1.302 0 0 1-1.193-.597c-.625-1.049-1.01-2.056-1.822-3.007-.77-.888-1.67-1.637-2.715-2.178l-.296-.157c-2.681-1.361-5.404-.807-7.891 1.299-1.057.888-1.919 2.592-2.316 3.882-.398 1.287-.436 2.604-.268 3.94.571 4.461 3.794 8.013 5.328 12.145z"/></g></g></g><g><g><g><g><path fill="#fff" d="M48.53 125.24H24.228V90.188L48.53 77.944z"/><path d="M48.53 128H24.228a2.762 2.762 0 0 1-2.761-2.76V90.188c0-1.043.588-1.996 1.518-2.466L47.287 75.48a2.754 2.754 0 0 1 2.69.115 2.76 2.76 0 0 1 1.315 2.349v47.296A2.763 2.763 0 0 1 48.53 128zm-21.54-5.519h18.779V82.426L26.99 91.888v30.593z" fill="#855c52"/></g></g><g><g><path fill="#fff" d="M79.868 125.24h24.301V90.188L79.868 77.944z"/><path d="M104.169 128H79.868a2.762 2.762 0 0 1-2.761-2.76V77.944a2.76 2.76 0 0 1 1.315-2.349 2.74 2.74 0 0 1 2.689-.115l24.297 12.241a2.758 2.758 0 0 1 1.522 2.466v35.053a2.762 2.762 0 0 1-2.761 2.76zm-21.541-5.519h18.779V91.888l-18.779-9.462v40.055z" fill="#855c52"/></g></g><g><path fill="#fff" d="M48.53 67.035h31.338v58.205H48.53z"/><path d="M79.868 128H48.53a2.762 2.762 0 0 1-2.761-2.76V67.035a2.762 2.762 0 0 1 2.761-2.759h31.338a2.761 2.761 0 0 1 2.761 2.759v58.205a2.763 2.763 0 0 1-2.761 2.76zm-28.577-5.519h25.815V69.794H51.291v52.687z" fill="#855c52"/></g><g><g><g><g><defs><path id="SVGID_1_" d="M70.933 84.913c0-3.661-2.959-6.63-6.613-6.63-3.649 0-6.601 2.969-6.601 6.63v9.337H70.95v-9.337h-.017z"/></defs><use xlink:href="#SVGID_1_" overflow="visible" fill="#40c0e7"/><clipPath id="SVGID_2_"><use xlink:href="#SVGID_1_" overflow="visible"/></clipPath><path d="M70.95 84.923h-4.994v-6.64a1.624 1.624 0 0 0-3.247 0v6.64h-4.99c-.9 0-1.628.728-1.628 1.623 0 .896.728 1.623 1.628 1.623h4.99v6.081a1.623 1.623 0 0 0 3.247 0v-6.081h4.994a1.623 1.623 0 1 0 0-3.246z" clip-path="url(#SVGID_2_)" fill="#fff"/></g><path d="M70.933 111.46c0-3.657-2.959-6.626-6.613-6.626-3.649 0-6.601 2.969-6.601 6.626v11.117H70.95V111.46h-.017z" fill="#855c52"/></g><path fill="#855c52" d="M79.868 67.035H48.53l15.671-34.187z"/><g><g fill="#855c52"><path d="M17.366 88.076v5.573L48.53 77.95v-6.304z"/><path d="M17.366 96.408a2.76 2.76 0 0 1-2.762-2.759v-5.573c0-1.022.567-1.964 1.476-2.441l31.164-16.431a2.767 2.767 0 0 1 2.711.077 2.762 2.762 0 0 1 1.336 2.364v6.305a2.759 2.759 0 0 1-1.518 2.464L18.609 96.115a2.78 2.78 0 0 1-1.243.293z"/></g></g><g><g fill="#855c52"><path d="M111.036 88.076v5.573L79.868 77.95v-6.304z"/><path d="M111.036 96.408c-.423 0-.85-.097-1.243-.293L78.624 80.414a2.759 2.759 0 0 1-1.518-2.464v-6.305a2.76 2.76 0 0 1 4.047-2.441l31.169 16.431a2.758 2.758 0 0 1 1.476 2.441v5.573c0 .957-.499 1.85-1.319 2.349a2.73 2.73 0 0 1-1.443.41z"/></g></g></g></g><g fill="#855c52"><path d="M79.868 67.035H48.53l15.671-34.187z"/><path d="M79.956 69.794c-.021 0-.051.002-.089 0H48.53a2.758 2.758 0 0 1-2.507-3.909l15.671-34.188c.896-1.962 4.119-1.962 5.015 0l15.413 33.625a2.759 2.759 0 0 1-2.166 4.472zm-27.125-5.518h22.741L64.201 39.472l-11.37 24.804z"/></g><path fill="#855c52" d="M60.104.849h8.195v34.403h-8.195z"/><path fill="#855c52" d="M51.617 8.291h25.168v8.189H51.617z"/></g><path fill="#b89278" d="M55.697 58.021l-2.866 6.255h8.237l.008-6.239z"/><path fill="#b89278" d="M59.511 49.699l-2.96 6.255h9.925l.008-6.239z"/><path fill="#b89278" d="M63.233 41.376l-2.961 6.258h4.576l.013-6.239z"/><path fill="#b89278" d="M63.444 58.037h7.975v6.239h-7.975z"/></g></g></svg>