<svg id="レイヤー_1" xmlns="http://www.w3.org/2000/svg" xmlns:xlink="http://www.w3.org/1999/xlink" viewBox="0 0 128 128"><g><defs><path id="SVGID_1_" d="M64 58.014L20.458 10.135l-2.423 1.575 42.273 51.847"/></defs><use xlink:href="#SVGID_1_" overflow="visible" fill="#855c52"/><clipPath id="SVGID_2_"><use xlink:href="#SVGID_1_" overflow="visible"/></clipPath><path d="M20.445 22.436s-1.467 2.676-4.8 5.876l8 4.667 6-8.409-9.2-2.134z" clip-path="url(#SVGID_2_)" fill="#2f2f2f"/></g><path fill="#78a3ad" d="M33.477 15.55L15.324 5.782l6.982 18.68 2.873-6.664z"/><path d="M14.628 4.818a.913.913 0 0 1 .258-.488.743.743 0 0 1 .87-.112l18.059 10.291a.832.832 0 0 1 .385.819c-.015.319-.26.604-.571.711l-7.991 2.436-2.828 6.885a.796.796 0 0 1-.73.513.757.757 0 0 1-.691-.531L14.66 5.249a.88.88 0 0 1-.032-.431zm16.759 10.197L16.789 6.704l5.403 16.126 2.198-5.354a.806.806 0 0 1 .512-.48l6.485-1.981z" fill="#78a3ad"/><g><radialGradient id="SVGID_3_" cx="77.41" cy="57.828" r="49.382" gradientUnits="userSpaceOnUse"><stop offset="0" stop-color="#f79329"/><stop offset="1" stop-color="#ed6c30"/></radialGradient><path d="M93.759 21.686h-.168c-.429.004-.854.004-1.278.017-4.479.075-8.83 1.075-12.935 2.792-4.4 1.854-7.43 4.625-11.338 7.113-.729.471-1.625.704-2.517.704-.904 0-1.796-.237-2.534-.704-3.916-2.488-6.93-5.259-11.334-7.113-4.108-1.717-8.454-2.717-12.934-2.792-.425-.013-.85-.013-1.275-.017h-.167c-11.346 0-19.613 6.513-24.464 17.851-2.07 4.821-2.112 12.088-1.258 17.155.841 5.047 2.949 9.605 5.804 13.859 9.534 14.201 26.548 20.789 38.803 32.235 1.317 1.221 2.608 2.538 3.942 3.763 1.421 1.309 3.133 4.313 5.413 4.45 2.274-.137 3.987-3.142 5.408-4.45 1.333-1.225 2.625-2.542 3.929-3.763 12.272-11.447 29.282-18.035 38.815-32.235 2.854-4.254 4.963-8.812 5.809-13.859.847-5.067.809-12.334-1.262-17.155-4.85-11.338-13.117-17.851-24.459-17.851z" fill="url(#SVGID_3_)"/></g><g><g><g><path d="M100.047 123.908c2.279-1.6 2.707-4.185 2.848-5.036l.052-.339c.103-.725.217-1.463.329-2.192l.285-1.925.002-.013c.056-.336.117-.606.178-.869l.135-.637.085-.383c.101-.456.194-.919.271-1.382.026-.157.027-.291.046-.436.043-.002.109.009.151.007l.2.016c1.136.129 2.203.061 3.061.008l.401-.026.61-.038c.308-.02.62-.045.929-.045l1.951.002c.734.003 1.466-.002 2.204.007 6.137.049 7.172-4.337 7.318-5.221.065-.39.097-.791.083-1.194-.076-2.88-2.07-4.79-3.142-5.817-.128-.118-.244-.238-.338-.335l-.101-.105c-.923-1.032-1.971-2.202-3.2-3.276-1.201-1.039-2.328-2.269-3.521-3.577l-.329-.358c-.88-.958-1.781-1.795-2.652-2.606-.49-.457-.989-.916-1.463-1.392l-.271-.276c-.561-.588-1.329-1.386-2.404-2.013-1.593-.935-3.247-1.205-4.509-1.338-1.14-.126-2.204-.106-3.002-.078-.846.032-1.675.094-2.507.168-.699.062-1.396.118-2.098.146l-.884.031a443 443 0 0 0-2.99.127l-.336.016-.161.007a4.94 4.94 0 0 0-2.403.76c-.648.01-1.3.122-1.913.406a4.966 4.966 0 0 0-2.833 3.539l-.114.564a508.054 508.054 0 0 0-.724 3.757c-.131.692-.295 1.374-.454 2.053-.193.809-.388 1.625-.546 2.452-.041.222-.076.431-.111.641-.14.847-.225 1.614-.263 2.351-.054 1.169-.043 2.916.65 4.669.459 1.158 1.138 2.035 1.635 2.679l.225.299c.408.545.787 1.114 1.171 1.676.663.972 1.353 1.982 2.166 2.991l.298.37c1.114 1.38 2.171 2.679 3.025 4.024.87 1.377 1.87 2.586 2.749 3.652l.102.123c.083.107.176.24.274.383.86 1.211 2.453 3.477 5.301 3.978a5.98 5.98 0 0 0 4.534-.995z" fill="#78a3ad"/><path d="M94.186 92.826c-.171-.138-.398-.319-.516-.428-.047-.075-.088-.154-.13-.232a11.226 11.226 0 0 0-1.071-1.673 201.911 201.911 0 0 1-1.709-2.128c.35-.018.706-.032 1.063-.044 1.538-.054 3.067-.257 4.605-.314.769-.025 1.542-.028 2.314.058.855.086 1.773.238 2.529.693.606.346 1.159 1.011 1.66 1.504 1.301 1.3 2.719 2.481 3.959 3.844 1.368 1.486 2.722 2.994 4.247 4.319 1.037.906 1.951 1.937 2.868 2.959.674.753 2.184 1.857 2.213 2.96.002.09-.002.169-.016.251-.168 1.012-1.55 1.07-2.39 1.061-1.393-.007-2.779 0-4.176-.006-.604-.003-1.222.059-1.827.094-.886.042-1.771.137-2.65.033-.374-.04-.762-.041-1.14-.104-.04-.113-.06-.222-.113-.339-.476-1.051-1.117-1.77-1.503-2.197l-.139-.159a7.723 7.723 0 0 1-.359-.561c-.24-.386-.533-.861-.915-1.363l-.424-.548c-.216-.276-.441-.554-.533-.713-.125-.212-.212-.378-.299-.543-.357-.676-.843-1.593-1.728-2.572l-.667-.74a48.574 48.574 0 0 0-1.679-1.823 14.094 14.094 0 0 0-1.474-1.289z" fill="#fff"/><path d="M93.771 117.374c-.871-1.066-1.754-2.111-2.49-3.281-1.087-1.7-2.374-3.265-3.642-4.836-1.156-1.441-2.112-3.009-3.205-4.496-.413-.563-.986-1.211-1.242-1.861-.325-.819-.348-1.747-.312-2.607.031-.595.105-1.191.201-1.774.028-.172.058-.35.095-.521.284-1.512.711-2.991 1-4.51.053-.295.115-.593.168-.884.293.318.58.603.802.817.084.077.165.153.233.225.61.654 1.219 1.312 1.828 1.971l.412.448c.555.603 1.099 1.014 1.496 1.321a8.8 8.8 0 0 0 .226.168l.322.556c.269.47.606 1.059 1.056 1.657a47.563 47.563 0 0 0 1.575 1.967l.617.741c.841 1.039 1.689 1.66 2.31 2.119.151.108.305.224.462.346.133.116.389.382.632.645.158.17.324.341.485.512.43.438.852.799 1.197 1.089.2.173.43.363.519.462l.13.157c.197.24.486.562.843.908-.02.196-.038.383-.045.576a8.511 8.511 0 0 1-.112 1.034c-.088.53-.213 1.054-.321 1.58-.115.539-.248 1.091-.338 1.635l-.026.16c-.204 1.381-.418 2.752-.617 4.131l-.039.234c-.149.9-.492 2.153-1.619 1.949-1.088-.196-1.953-1.856-2.601-2.638z" fill="#fff"/></g></g></g><path d="M104.358 112.997c.735-.283 1.75-.951 2.435-2.515.157-.363.267-.721.326-1.074.332-2.006-.901-3.486-2.004-4.808-1.544-1.848-3.206-3.644-4.814-5.385a189.546 189.546 0 0 1-2.426-2.64 41827.14 41827.14 0 0 0-21.002-23.151 2318.286 2318.286 0 0 1-6.079-6.73c-1.099-1.217-2.154-2.883-3.967-2.95-1.343-.054-2.591 1.412-2.94 2.579-.696 2.344 1.521 4.104 2.845 5.701 1.548 1.875 3.089 3.743 4.623 5.623 15.932 19.516 24.296 29.686 25.571 31.088l.427.481c1.85 2.093 2.997 3.28 3.757 3.634 1.06.478 2.247.53 3.248.147z" fill="#855c52"/><path d="M81.492 32.945c.454-.083 1.149-.117 1.725.034.354.096.671.242.825.538l.083.262c.305 1.554-1.991 2.838-3 3.596-1.654 1.254-2.6 3.534-4.816 4.009-1.654.354-3.168-.763-3.038-2.542.054-.804.379-1.6.925-2.2.246-.279.566-.504.854-.754 1.791-1.539 4.187-2.51 6.442-2.943z" fill="#fff"/><path d="M27.959 49.192c-.834 2.052-1.954 5.886-4.642 6.221-4.992.623-2.934-9.607-2.196-11.778 2.145-6.325 7.817-11.213 14.681-11.017 1.4.04 4.449.094 5.321 1.439 1.462 2.261-1.288 3.492-2.959 4.123-3.963 1.498-7.051 4.675-9.072 8.375-.325.591-.696 1.556-1.133 2.637z" fill="#fff"/></svg>