<svg id="レイヤー_1" xmlns="http://www.w3.org/2000/svg" viewBox="0 0 128 128"><g fill="#d7598b"><path d="M72.348 64.192c-.327-.08-.645-.164-.976-.242-3.413-.85-6.933-.976-10.425-.506-3.757.517-6.677 2.007-10.214 3.104-1.353.416-2.96-.022-3.865-1.03-2.409-2.683-4.07-5.396-6.985-7.688-2.719-2.122-5.791-3.753-9.172-4.717-.322-.095-.645-.183-.967-.272-8.656-2.359-16.596.85-23.179 8.49-2.825 3.264-4.72 8.85-5.374 12.951-.658 4.111-.211 8.123.909 12.069 1.286 4.54 3.538 8.612 6.185 12.453l.027.062c1.285 2.576 2.946 4.923 4.062 7.595 1.474 3.556 2.427 7.787.622 11.401-.582 1.17-1.662 2.204-1.679 3.596-.059 3.409 5.033 3.556 7.326 3.701 10.331.64 20.55-1.923 30.371-4.843 2.616-.774 5.213-1.62 7.774-2.557 5.218-1.916 10.313-4.251 14.998-7.268.175-.116.331-.259.501-.376 1.76-1.123 3.448-2.356 4.998-3.749 3.152-2.807 5.754-6.01 7.479-9.827 1.72-3.82 3.202-9.509 2.606-13.682-1.373-9.753-6.339-16.398-15.022-18.665z"/><path d="M118.88 16.943c-.22-.103-.43-.197-.654-.292-2.27-.992-4.711-1.503-7.201-1.611-2.668-.107-4.881.543-7.478.864-.981.117-2.038-.376-2.539-1.169-1.326-2.118-2.132-4.149-3.86-6.05-1.594-1.765-3.498-3.232-5.692-4.281-.215-.107-.421-.202-.631-.299-5.629-2.61-11.451-1.394-16.923 2.949-2.342 1.864-4.357 5.389-5.338 8.071-.981 2.69-1.205 5.455-.963 8.257.206 2.387.819 4.698 1.652 6.934.026.067.04.143.067.21.354.904.734 1.781 1.097 2.674.381.944.766 1.885 1.16 2.825.3.731.6 1.434.896 2.162.833 2.101 1.71 4.349 1.639 6.651a8.15 8.15 0 0 1-.909 3.457c-.394.787-1.72 2.158-1.196 3.121.658 1.199 2.409 1.841 3.798 2.189l.51.115c7.232 1.667 14.707.905 21.585-.486 2.14-.435 4.245-.944 6.309-1.492 3.238-.863 6.552-1.818 9.413-3.403.318-.178.708-.327 1.035-.521a24.43 24.43 0 0 0 2.427-1.261c2.562-1.545 4.796-3.422 6.485-5.844 1.688-2.418 3.435-6.159 3.533-9.114.238-6.876-2.427-12.044-8.222-14.656z"/></g></svg>