<svg id="レイヤー_1" xmlns="http://www.w3.org/2000/svg" viewBox="0 0 128 128"><g fill="#40c0e7"><path d="M71.466 4.061a36.066 36.066 0 0 1 11.343 1.837c7.236 2.417 12.422 8.069 14.224 15.51 1.91 7.915-.403 16.423-6.054 22.208-6.824 6.994-15.586 9.256-24.056 11.445l-1.333.344c-1.258.329-2.529.648-3.815.97-1.295.326-2.567.653-3.825.978a9.066 9.066 0 0 0-.31.091c-10.958 3.623-17.092 6.965-18.209 7.596-2.548 1.441-4.871 3.006-7.18 4.556-3.271 2.195-6.655 4.467-10.452 6.116-.615.266-2.22.885-3.909.885-1.788 0-2.281-.699-2.45-.934-1.971-2.797-.437-7.612.685-11.137l.117-.377c1.797-5.643 4.003-11.402 6.744-17.599 1.173-2.659 2.487-5.015 3.886-7.537.62-1.122 1.257-2.262 1.896-3.473.122-.189.366-.577.676-1.063l.3-.469c.057-.089.113-.179.16-.268.413-.745.924-1.562 1.432-2.384l.436-.698a.836.836 0 0 0 .066-.112c.038-.053.065-.104.094-.156 1.722-2.775 3.2-4.948 4.646-6.828C46.256 10.985 58.645 4.061 71.466 4.061"/><path d="M86.372 82.936c6.936 0 12.99 2.171 17.988 6.448a26.784 26.784 0 0 1 2.816 2.797c3.698 4.278 4.866 9.84 3.205 15.261-1.765 5.769-6.453 10.313-12.239 11.864a22.964 22.964 0 0 1-5.969.765c-4.815 0-9.433-1.343-13.525-2.53l-2.394-.689a251.447 251.447 0 0 0-6.232-1.729 6.848 6.848 0 0 0-.46-.095c-.948-.148-2.233-.451-3.397-.725-1.54-.359-3.13-.732-4.782-.95l-.962-.115a55.883 55.883 0 0 0-3.248-.23c-.066-.005-.131-.005-.202-.005-.042 0-.089 0-.132.003l-.324.008c-.338.01-.675.022-1.046.022-.549 0-1.094-.027-1.713-.081a3.99 3.99 0 0 0-.423-.018h-.061c-1.962.025-4.205.121-6.678.288-.901.062-1.783.115-2.637.115-2.656 0-3.68-.509-4.064-.936-.127-.134-.451-.488-.347-1.673.277-3.086 3.304-5.998 5.73-8.335 5.261-5.056 10.878-9.095 16.637-11.964l1.333-.638c.089-.045.178-.089.267-.139 5.485-3.065 13.9-6.719 22.859-6.719"/></g></svg>