<svg id="レイヤー_1" xmlns="http://www.w3.org/2000/svg" viewBox="0 0 128 128"><g fill="#ed6c30"><path d="M16.315 35.498a33.86 33.86 0 0 0 3.141-1.407c-3.696 12.34-5.881 25.263-7.697 37.403-.665 4.47-1.293 8.845-1.625 13.3-.059.824-.159 1.657-.259 2.49-.309 2.604-.628 5.294.009 8.098.678 2.995 2.772 4.93 5.326 4.93 1.201 0 2.408-.423 3.578-1.256 3.15-2.253 3.205-6.05 3.25-8.826.009-.569.014-1.125.045-1.644.287-4.169.783-8.544 1.503-13.378l.218-1.498C26.21 57.534 28.7 40.806 36.147 26.358l.665-1.279c2.549-4.852 6.04-11.503 3.846-17.629-.819-2.289-2.95-3.769-5.43-3.769a6.312 6.312 0 0 0-3.159.869c-1.743 1.034-2.959 2.608-4.028 3.997-.542.701-1.052 1.366-1.57 1.885-3.187 3.186-6.318 6.259-9.668 8.817-1.552 1.192-3.218 2.29-4.652 3.228-.219.146-.542.323-.896.523-.742.424-1.589.901-2.235 1.389-.31.241-.655.469-.992.696-1.798 1.22-4.812 3.255-3.847 7.278.319 1.311 1.407 3.578 5.194 4.006 2.492.28 4.559.021 6.94-.871z"/><path d="M33.607 70.056c2.149 4.297 5.722 7.237 10.633 8.739a13.74 13.74 0 0 0 4.015.605c13.068 0 22.468-18.367 24.98-25.441a93.656 93.656 0 0 0 2.458-7.947c.046.656.114 1.311.196 1.971.756 5.499 3.096 10.041 6.778 13.123 2.408 2.021 5.967 3.491 9.536 3.938 1.397.178 2.872.268 4.278.268 2.649 0 4.925-.314 6.755-.933a22.863 22.863 0 0 0 4.698-2.212c6.769-4.165 10.592-11.025 12.604-16.04 4.797-11.944 5.599-29.223-3.96-38.937a18.959 18.959 0 0 0-8.294-4.921c-.601-.173-1.211-.291-1.825-.41l-.664-.128c-.25-.054-.505-.145-.765-.227a16.255 16.255 0 0 0-1.002-.305 6.261 6.261 0 0 0-1.557-.195h-.009c-1.507.023-2.795.423-3.929.778-.583.182-1.16.369-1.766.478-3.414.628-6.637 1.789-9.754 2.908-1.844.669-3.591 1.297-5.385 1.83-4.707 1.393-8.558 1.447-14.102.137l-.414-.1c-1.166-.287-2.176-.546-4.065-.123-.915.2-2.167.478-3.232 1.848l-.277.447-.096.2-.272.141c-10.333 5.64-18.927 16.728-24.207 31.212-2.034 5.558-6.218 19.541-1.356 29.296zm9.991-14.511c.815-9.609 5.344-19.956 12.431-28.39 2.809-3.341 4.802-5.035 5.927-5.035.446 0 1.238.788 2.012 3.009 1.484 4.27 1.661 9.327.528 15.04a45.603 45.603 0 0 1-1.684 6.131c-1.716 4.943-3.769 10.086-7.156 14.229-1.311 1.602-3.218 2.936-5.244 3.66-2.262.806-3.905.66-5.039-.578-1.388-1.512-2.071-4.602-1.775-8.066zm46.707-24.267c.919-3.072 2.431-6.19 4.488-9.263l.277-.414c1.106-1.648 3.683-5.508 5.249-6.176.555-.237 1.088-.46 1.584-.661h.009c2.645 0 4.643.86 6.118 2.631 3.336 4.001 3.355 11.771 2.353 17.21-1.725 9.422-5.995 15.158-13.055 17.521-2.795.933-4.725.605-6.086-1.22-3.122-4.201-2.54-14.275-.937-19.628zM77.364 26.75a34.372 34.372 0 0 0-.87-4.502 9.612 9.612 0 0 0-.364-1.047c.418-.1.951-.15 1.502-.196.597-.054 1.188-.109 1.748-.218a27.076 27.076 0 0 0 1.634-.369c-1.625 2.904-2.654 6.045-3.414 9.04a34.077 34.077 0 0 0-.236-2.708z"/><path d="M99.973 71.835l-3.313.506c-19.072 2.867-35.796 6.818-51.131 12.076-4.247 1.452-8.817 3.136-13.988 5.139-.387.15-.778.268-1.17.392-1.779.546-5.494 1.688-5.016 6.19.318 2.945 2.367 4.997 4.984 4.997l.259-.005c1.001-.054 1.935-.437 2.754-.778.318-.132.628-.273.906-.346 1.43-.378 2.94-.847 4.756-1.475 16.614-5.721 33.283-10.906 49.538-15.408l5.148-1.411c2.7-.738 5.408-1.471 8.098-2.235 1.926-.546 3.082-2.276 2.818-4.202-.31-2.192-2.299-3.794-4.643-3.44z"/><path d="M118.863 81.572l-8.266 1.78c-16.204 3.482-32.955 7.078-49.137 11.98-10.305 3.123-20.219 6.874-31.166 11.102-5.448 2.099-10.651 4.871-15.03 7.306-.354.201-.783.396-1.238.614-1.999.943-4.739 2.231-5.617 4.775-1.056 3.05.892 6.091 3.382 7.266.851.404 1.666.601 2.494.601 1.247 0 2.29-.46 3.064-.86.774-.41 1.584-.77 2.395-1.129.755-.341 1.52-.678 2.253-1.047 21.335-10.665 44.435-18.308 64.413-24.634 6.245-1.976 12.991-3.97 20.629-6.082l1.22-.336c4.215-1.166 8.425-2.331 12.635-3.523 1.972-.56 3.15-2.358 2.864-4.37-.329-2.36-2.555-3.953-4.895-3.443z"/></g></svg>