<svg id="レイヤー_1" xmlns="http://www.w3.org/2000/svg" xmlns:xlink="http://www.w3.org/1999/xlink" viewBox="0 0 128 128"><g><defs><path id="SVGID_1_" d="M101.168 41.448c-.03-21.264-17.292-38.479-38.554-38.447-21.267.028-38.479 17.288-38.45 38.552.012 9.271 4.569 17.431 9.541 25.056 5.22 8.008 8.771 15.723 12.714 24.312 2.315 5.048 8.615 7.02 14.111 7.396 5.376.365 12.209-.249 16.712-3.931 7.052-5.764 7.208-16.778 11.843-24.13 5.659-8.974 12.096-17.673 12.083-28.808z"/></defs><use xlink:href="#SVGID_1_" overflow="visible" fill="#fcc21b"/><clipPath id="SVGID_2_"><use xlink:href="#SVGID_1_" overflow="visible"/></clipPath></g><path d="M73.118 119.957c.586-.428 1.085-.932 1.415-1.654.411-.902.268-1.755.17-2.695-.083-.805.005-1.164.549-1.72.624-.633 1.255-1.202 1.358-2.132.081-.691-.07-1.346-.2-2.015a3.138 3.138 0 0 1-.113-.743c.135-.531.81-.901 1.177-1.264.957-.931 1.846-2.216 2.134-3.531.178-.824.142-1.998-.384-2.694-.766-1.016-1.798-.607-2.778-.174-.315.144-.603.318-.918.468-6.084 2.947-13.239 2.95-19.694 1.318-1.641-.414-3.276-.911-4.812-1.628-1.209-.563-2.923-1.186-3.747.31-.697 1.264-.341 2.943.174 4.207.302.741.945 1.38 1.492 1.95.523.55.753.827.6 1.533-.135.644-.036 1.185.022 1.834.085.881.21 1.72.785 2.426.554.688 1.366 1.219 1.864 1.951.428.634.422 1.483.675 2.191.417 1.16 1.434 2.394 2.451 3.091 1.158.786 2.716.74 3.726 1.782 1.333 1.379 3.229 2.38 5.187 2.263 2.4-.144 3.693-2.004 5.518-3.262.713-.493 1.596-.698 2.345-1.158.351-.216.69-.422 1.004-.654z" fill="#78a3ad"/></svg>