<svg id="レイヤー_1" xmlns="http://www.w3.org/2000/svg" viewBox="0 0 128 128"><g><path d="M20.791 126.605V96.899h-6.38C5.982 96.899.949 91.862.949 83.433V14.006c0-7.072 5.914-12.612 13.462-12.612h99.179c7.673 0 13.461 5.425 13.461 12.612v69.427c0 8.18-5.281 13.466-13.461 13.466H51l-30.209 29.706z" fill="#2f2f2f"/><path d="M14.41 8.485c-3.167 0-6.37 1.897-6.37 5.521v69.427c0 4.528 1.847 6.375 6.37 6.375h13.471v19.884l20.22-19.884h65.488c4.289 0 6.371-2.085 6.371-6.375V14.006c0-3.624-3.203-5.521-6.371-5.521H14.41z" fill="#fff"/></g></svg>