<svg id="レイヤー_1" xmlns="http://www.w3.org/2000/svg" viewBox="0 0 128 128"><g><path d="M61.022 5.548c.295 0 .473.041.522.054.527.146 1.103.531 1.667 1.117 3.632 3.761 6.07 8.925 8.426 13.921C80.88 40.255 93.51 61.744 96.452 83.522c.022.186.063.365.114.542 2.628 19.372-6.224 28.792-8.041 30.495-7.336 6.869-18.759 9.366-28.488 7.842-9.452-1.479-19.625-5.995-24.207-14.87-2.419-4.689-3.973-11.063-4.045-16.348.063-.277.091-.565.077-.861a49.835 49.835 0 0 1 1.494-14.005c5.125-20.464 16.775-38.65 21.283-59.33l.063-.304c.663-3.032 1.29-5.895 2.651-8.301.599-1.058 1.208-1.828 1.866-2.35.247-.193.987-.484 1.803-.484" fill="#40c0e7"/></g></svg>