<svg id="レイヤー_1" xmlns="http://www.w3.org/2000/svg" viewBox="0 0 128 128"><g><g fill="#cc4079"><path d="M56.116 52.86c2.229-1.581 4.935-2.531 7.876-2.531 2.948 0 5.66.951 7.891 2.534l16.868-16.867c3.942-3.943 3.942-10.335 0-14.282L71.141 4.108c-3.947-3.942-10.335-3.942-14.278 0L39.255 21.713c-3.942 3.945-3.947 10.34-.004 14.282L56.116 52.86z"/><path d="M50.329 63.997c0-2.941.95-5.649 2.532-7.88L35.995 39.252c-3.942-3.942-10.335-3.942-14.282 0L4.108 56.862c-3.942 3.947-3.942 10.335 0 14.277l17.605 17.609c3.942 3.943 10.34 3.947 14.282.005l16.868-16.868c-1.582-2.232-2.534-4.943-2.534-7.888z"/><path d="M123.888 56.862l-17.605-17.605c-3.942-3.943-10.335-3.947-14.277-.005L75.14 56.118c1.582 2.231 2.532 4.939 2.532 7.879 0 2.942-.95 5.652-2.532 7.883l16.866 16.873c3.942 3.938 10.335 3.938 14.277 0l17.605-17.614c3.947-3.947 3.947-10.335 0-14.277z"/><path d="M71.885 75.138c-2.233 1.583-4.946 2.535-7.894 2.535-2.939 0-5.644-.949-7.873-2.529L39.25 92.006c-3.938 3.943-3.938 10.336 0 14.28l17.614 17.605c3.947 3.945 10.335 3.945 14.278 0l17.601-17.605c3.947-3.94 3.951-10.337.009-14.28L71.885 75.138z"/></g><path d="M73.669 63.998c0 5.34-4.327 9.671-9.675 9.671-5.335 0-9.662-4.331-9.662-9.671 0-5.335 4.327-9.666 9.662-9.666 5.348 0 9.675 4.331 9.675 9.666z" fill="#fbb817"/></g></svg>