<svg id="レイヤー_1" xmlns="http://www.w3.org/2000/svg" viewBox="0 0 128 128"><g fill="#ed6c30"><path d="M51.446 24.13c2.068 2.324 4.398 4.437 6.997 6.155 8.068 5.329 19.508 4.348 28.168 1.197 3.141-1.142 6.115-2.635 8.98-4.352a30.376 30.376 0 0 0 2.619-1.744c1.853-1.402 4.257-3.822 3.606-6.391-.781-3.111-4.829-2.92-7.287-2.529-6.602 1.047-12.893 3.06-19.679 2.805-6.406-.24-11.739-2.805-16.388-7.132-2.469-2.295-4.783-4.794-7.027-7.304-1.573-1.768-3.635-3.61-6.16-3.54-4.849.144-3.777 5.894-2.78 8.904 1.774 5.337 5.259 9.784 8.951 13.931z"/><path d="M34.978 43.288c-.08-3.116-.636-6.206-1.513-9.191-1.558-5.329-3.486-10.638-7.072-14.97-2.024-2.439-6.331-6.401-9.016-2.364-1.402 2.104-.931 4.834-.27 7.103.942 3.235 1.833 6.521 2.474 9.826 1.208 6.236.551 12.121-2.639 17.681C13.566 57.264 8.528 61.53 4.14 66.574c-1.633 1.878-3.938 5.213-1.718 7.522 1.838 1.914 5.164 1.156 7.332.325a29.64 29.64 0 0 0 2.865-1.297c2.975-1.517 5.82-3.255 8.454-5.309 7.258-5.675 14.15-14.861 13.905-24.527z"/><path d="M116.187 46.733c-1.724-2.013-5.089-1.447-7.303-.741-1.002.32-1.973.711-2.935 1.132-3.055 1.347-5.99 2.925-8.735 4.829-7.568 5.254-14.97 14.034-15.271 23.7-.095 3.116.29 6.23.997 9.26 1.252 5.41 2.875 10.819 6.211 15.347 1.883 2.549 5.96 6.747 8.875 2.87 1.522-2.023 1.197-4.772.666-7.072-.761-3.286-1.462-6.616-1.913-9.956-.852-6.296.13-12.131 3.631-17.501 3.702-5.689 8.975-9.666 13.639-14.46 1.737-1.778 4.226-4.978 2.138-7.408z"/><path d="M64.423 93.854c-1.934-2.439-4.137-4.678-6.636-6.541-7.754-5.775-19.233-5.439-28.058-2.785-3.195.962-6.256 2.284-9.211 3.836a30.71 30.71 0 0 0-2.714 1.598c-1.928 1.292-4.463 3.572-3.962 6.176.606 3.145 4.658 3.185 7.132 2.934 6.651-.671 13.047-2.329 19.804-1.688 6.386.601 11.569 3.461 15.967 8.044 2.329 2.429 4.502 5.053 6.601 7.688 1.472 1.848 3.426 3.812 5.95 3.881 4.848.13 4.103-5.674 3.275-8.73-1.467-5.432-4.696-10.065-8.148-14.413z"/></g></svg>