<svg id="レイヤー_1" xmlns="http://www.w3.org/2000/svg" viewBox="0 0 128 128"><g fill="#d7598b"><path d="M41.271 100.794c-.662-.408-1.358-.737-2.059-1.075-.829-.409-1.666-.821-2.524-1.179-1.305-.55-2.626-1.067-3.926-1.625-1.579-.683-3.158-1.383-4.742-2.075-3.033-1.329-6.725-4.125-9.167.125-.508.879-1.104 2.109-1.146 3.104-.071 1.638.975 2.471 2.338 3.192 1.396.733 2.833 1.388 4.279 2.017.479.208.962.412 1.446.612.284.121.763.246.7.604-.046.271-.4.471-.617.604-.396.237-.8.454-1.208.679l-.566.304c-1.18.625-2.358 1.242-3.525 1.837-.934.479-1.863.979-2.771 1.509-.379.196-.763.4-1.142.591-1.254.642-2.346 1.379-3.521 2.134l-.458.316c-1.092.8-2.238 1.725-2.488 3.096-.321 1.763.979 2.738 2.479 3.642.533.325 1.083.591 1.662.825l.05.029c1.837 1.013 3.955 1.779 5.971 2.65 1.583.688 3.159 1.383 4.742 2.075 3.033 1.329 6.726 4.125 9.167-.125.513-.879 1.108-2.109 1.15-3.104.071-1.638-.976-2.472-2.342-3.192-1.392-.738-2.83-1.388-4.275-2.021-.317-.133-.638-.267-.958-.404-.221-.092-.633-.183-.775-.362-.35-.421.416-.692.683-.817.85-.408 1.684-.834 2.521-1.275.867-.458 1.759-.892 2.588-1.434.441-.221.883-.434 1.321-.666.942-.504 1.913-.963 2.804-1.571 2.263-1.546 7.384-3.138 6.084-6.729-.275-.75-1.046-1.837-1.775-2.291z"/><path d="M81.231 69.941c-.816-.629-1.7-1.162-2.579-1.704-1.046-.65-2.104-1.312-3.196-1.904-1.65-.904-3.337-1.767-4.983-2.684-2.009-1.121-4.009-2.267-6.017-3.396-3.846-2.171-8.367-6.379-12.18-1.062-.796 1.1-1.754 2.646-1.938 3.963-.316 2.167.958 3.408 2.675 4.55 1.75 1.163 3.567 2.221 5.4 3.25.613.346 1.225.679 1.842 1.013.358.196.975.425.842.896-.092.35-.592.566-.9.712-.55.263-1.125.496-1.692.738-.262.112-.529.221-.791.333-1.646.667-3.296 1.33-4.926 1.958a82.192 82.192 0 0 0-3.888 1.629c-.529.212-1.062.433-1.588.633-1.758.688-3.3 1.517-4.967 2.359a9.177 9.177 0 0 0-.642.358c-1.559.913-3.208 1.992-3.721 3.775-.663 2.296.929 3.767 2.796 5.163.667.5 1.362.929 2.1 1.317l.059.054c2.309 1.587 5.009 2.892 7.575 4.317 2 1.125 4 2.258 6.009 3.392 3.851 2.171 8.372 6.379 12.18 1.066.796-1.096 1.754-2.646 1.946-3.962.312-2.167-.967-3.413-2.675-4.55-1.759-1.167-3.575-2.225-5.409-3.259-.4-.221-.808-.441-1.216-.663-.275-.154-.809-.329-.983-.583-.4-.608.65-.867 1.021-1a98.516 98.516 0 0 0 3.521-1.35c1.208-.492 2.446-.946 3.621-1.554.613-.233 1.234-.458 1.846-.708 1.317-.537 2.667-1.02 3.934-1.708 3.212-1.742 10.217-3.171 8.976-8.109-.26-1.033-1.139-2.575-2.052-3.28z"/><path d="M117.601 21.376c-.408-1.354-1.679-3.346-2.934-4.217-1.133-.788-2.342-1.438-3.546-2.1-1.429-.792-2.888-1.6-4.371-2.317-2.259-1.092-4.55-2.125-6.801-3.238-2.741-1.354-5.475-2.741-8.217-4.104-5.259-2.633-11.547-7.925-16.26-.608-.979 1.513-2.15 3.629-2.309 5.388-.274 2.901 1.501 4.471 3.851 5.876 2.4 1.429 4.892 2.713 7.396 3.963.837.412 1.679.816 2.513 1.216.492.237 1.325.504 1.183 1.138-.1.471-.75.792-1.15 1.008-.717.388-1.467.733-2.2 1.087-.342.167-.691.329-1.033.496a427.435 427.435 0 0 1-6.409 2.929c-1.712.771-3.4 1.575-5.063 2.425-.679.312-1.379.642-2.067.946-2.288 1.025-4.288 2.233-6.438 3.463-.292.162-.566.337-.833.517-2.009 1.316-4.13 2.863-4.692 5.263-.733 3.096 1.476 4.942 4.05 6.68a21.855 21.855 0 0 0 2.875 1.613l.092.062c3.167 1.958 6.842 3.508 10.342 5.233 2.742 1.363 5.476 2.738 8.209 4.108 5.267 2.629 11.551 7.921 16.26.608.983-1.508 2.158-3.629 2.316-5.396.283-2.9-1.5-4.467-3.85-5.867-2.409-1.433-4.892-2.717-7.396-3.967-.554-.271-1.104-.533-1.663-.804-.379-.183-1.1-.383-1.35-.712-.575-.779.817-1.192 1.292-1.392a118.755 118.755 0 0 0 4.583-2.025c1.579-.738 3.192-1.421 4.717-2.304.796-.354 1.608-.692 2.4-1.062 1.717-.809 3.479-1.538 5.117-2.534 4.152-2.53 13.369-4.888 11.386-11.372z"/></g></svg>