<svg id="レイヤー_1" xmlns="http://www.w3.org/2000/svg" viewBox="0 0 128 128"><g><path d="M15.094 107.084c1.771-.451 2.532-1.415 4.97-1.099.626.076 1.271.463 1.933.685.716.247 1.477.338 1.929.554.396.194.941.735 1.513 1.239.699.627 1.397 1.225 1.929 2.068.18.288.266.676.41.959.608 1.203 1.14 2.176.825 3.862-.036.23-.126.761-.275 1.104-.022.063-.248.085-.274.14-.072.162.018.396-.131.685-.131.234-.401.451-.554.694-.523.784-.829 1.294-1.654 1.924-.365.284-.734.636-1.239.969-.595.382-.757.549-1.793.689-.63.08-1.865.271-2.757.274-.577 0-1.252-.185-1.928-.274-1.581-.216-2.055-.24-3.172-1.104-.185-.139-.338-.374-.55-.554-.41-.333-.482-.459-.829-.964-.036-.049-.257-.094-.275-.135-.5-1.113-1.532-2.653-1.654-3.996-.162-1.771.082-3.266.694-4.271.082-.135.181-.414.266-.555.041-.048.257-.089.279-.135.266-.577.86-1.432 1.383-1.933.09-.09.311-.045.415-.135.156-.154.292-.367.539-.691z" fill-rule="evenodd" clip-rule="evenodd" fill="#2f2f2f"/><path d="M36.482 114.681c-.608.373-1.289.707-2.027.996-1.586.618-3.303.868-4.997.87-3.253.004-6.758-.861-9.371-2.874-4.308-3.327-5.988-9.584-3.988-14.654 2.623-6.687 9.813-8.624 16.207-6.35 9.209 3.273 12.958 16.677 4.176 22.012z" fill-rule="evenodd" clip-rule="evenodd" fill="#2f2f2f"/><g><g><path d="M113.146 23.559c3.649 3.916 6.312 9.204 6.735 13.94.122 1.371-.257 2.969.14 4.412.203.739.82 1.36 1.375 2.067.522.649 1.076 1.32 1.514 1.931 1.964 2.669 3.83 6.299 4.235 9.635.225 1.843.081 3.847.072 5.699-.041 4.402-1.929 8.538-4.731 11.863-1.392 1.658-2.964 3.226-4.69 4.546-.982.755-3.69 1.906-4.154 3.132-.256.658-.234 1.365-.369 2.045-.131.64-.496 1.23-.514 1.89-.059 3.431-1.662 5.873-3.853 8.504-2.163 2.604-5.573 4.866-8.867 5.74-1.703.451-4.758.473-7.579.275-2.532-.175-4.988-.032-6.619-.414-1.356-.316-2.771-1.271-4.213-1.021-1.406.246-2.325 1.548-3.51 2.228-2.135 1.228-4.735 2.519-7.159 3.064-1.676.378-3.65.279-5.65.279-2.56 0-5.154-.107-7.646-.711-1.815-.438-3.325-1.627-5.113-2.117-2.308-.636-3.501.594-5.574 1.171-.879.248-2.019.266-3.163.415-8.047 1.063-17.734-1.618-20.816-9.921-.059-.167-.059-.527-.13-.688-1.081-2.421-5.379-2.439-7.394-3.76-2.117-1.388-3.609-2.906-4.875-5.059-2.189-3.729.275-7.524-3.442-10.75a17.152 17.152 0 0 1-1.793-1.794C-.026 63.893-.409 54.231 2.651 46.83c1.121-2.712 2.874-5.158 5.055-7.128.14-.131.342-.446.545-.685.559-.652.893-1.437 1.108-2.62.734-4.007 1.658-8.41 4.204-11.717 1.302-1.694 3.217-3.23 5.023-4.375.861-.55 1.798-1.065 2.763-1.407 1.099-.387 2.567-.72 3.726-.756 1.284-.037 4.771-.24 5.803-1.03.802-.615 1.676-1.62 2.136-2.516 1.59-3.132 5.483-4.686 8.331-6.403 3.388-2.041 7.722-2.216 11.561-1.842 2.564.253 4.749 1.816 7.155 2.613 2.839.946 4.672-.423 7.263-1.361 3.411-1.238 7.092-1.527 10.705-1.412 6.164.2 12.431 3.706 16.919 7.77 2.289 2.077 2.216 3.762 5.641 3.83 1.433.032 2.784.014 3.996.274.752.163 1.424.41 2.068.694 2.316 1.011 4.541 2.71 6.493 4.8z" fill-rule="evenodd" clip-rule="evenodd" fill="#2f2f2f"/></g></g><path d="M73.474 13.498c3.983-.207 8.137.78 11.669 2.613 3.979 2.068 5.709 5.569 8.624 8.602.446.463 1.226.32 1.879.234a17.793 17.793 0 0 1 2.379-.143c3.204 0 6.353 1.216 8.791 3.299 1.257 1.079 2.05 2.449 3.163 3.647 2.551 2.753 3.574 7.028 3.127 10.696-.067.6-.27 1.14-.176 1.798.144 1.054 1.865 1.266 2.546 1.811.906.73 1.487 1.804 2.068 2.8 2.397 4.116 3.519 9.329 2.848 14.041-.343 2.391-1.167 4.7-2.717 6.579-1.198 1.453-2.807 2.564-4.452 3.456-.514.281-1.198 1.113-1.762 1.198-.531.086-.901-.618-1.333-.807-.568-.248-1.306-.34-1.834.063-.505.392-.338.953-.338 1.54 0 .94-.019 1.946-.221 2.86-.149.681-.221 1.383-.36 2.069-.14.714-.019 1.333-.266 2.027-2.388 6.813-8.228 11.557-15.617 10.5-1.964-.282-4.082-.561-5.925-1.336-.874-.366-.685-1.036-.901-1.841-.193-.719-.833-1.563-1.662-1.115-.712.392-1.217 1.522-1.748 2.128-.491.566-1.118.99-1.708 1.435-.541.406-1.032.87-1.577 1.271a22.804 22.804 0 0 1-3.586 2.174c-4.006 1.967-8.709 2.895-13.129 1.971-1.284-.266-2.623-.464-3.793-1.07-.901-.466-1.163-.827-1.059-1.828.063-.59.415-1.577.018-2.109-.617-.831-1.893-.477-2.564.077-1.23 1.01-2.762 1.893-4.267 2.401a23.269 23.269 0 0 1-3.943.964c-4.361.676-9.164.224-12.939-2.212-2.938-1.901-4.979-4.808-5.902-8.171-.325-1.161-.253-4.418-2.267-3.061-.392.265-.653.86-1.103 1.027-.428.157-.771-.062-1.194-.141a8.997 8.997 0 0 1-2.203-.67c-5.849-2.727-3.131-8.665-3.101-13.513 0-1.034-.378-2.005-1.527-1.473-.441.207-1.333 1.189-1.77 1.181-.442-.01-1.122-1.012-1.415-1.312a15.22 15.22 0 0 1-2.626-3.655c-.014-.022-.023-.042-.036-.062-2.279-4.461-2.518-10.226-.626-14.866 1.172-2.871 3.965-5.547 6.38-7.441.464-.368 1.199-.548 1.564-1.005.306-.385.302-.86-.054-1.21-.352-.338-1.086-.171-1.303-.585-.157-.304-.004-.992.023-1.32.081-1.025.275-2.042.581-3.029.987-3.23 3.064-5.925 5.624-8.047 1.833-1.509 4.123-2.36 6.447-2.739 2.685-.437 6.452.838 8.079-1.568 1.523-2.258 3.226-3.952 5.529-5.424a15.221 15.221 0 0 1 8.258-2.383c4.469.026 7.925 1.352 11.732 3.377 1.816.966 2.717-.548 4.136-1.435 2.276-1.42 4.876-2.128 7.539-2.268z" fill-rule="evenodd" clip-rule="evenodd" fill="#fff"/><path d="M33.495 107.728c-2.46 1.972-6.79 2.556-9.61.481-1.253-.922-1.798-2.719-2.086-4.175-.324-1.645.595-3.323 1.748-4.42.36-.342.703-.792 1.108-.964 2.979-1.272 6.898-.513 9.083 1.901 2.596 2.87 1.839 5.517-.243 7.177z" fill-rule="evenodd" clip-rule="evenodd" fill="#fff"/><path d="M19.19 111.216c4.015-1.075 6.393 4.629 1.942 5.921-1.847.54-3.352-.64-3.952-2.343-.59-1.672.51-3.177 2.01-3.578z" fill-rule="evenodd" clip-rule="evenodd" fill="#fff"/></g></svg>