<svg id="レイヤー_1" xmlns="http://www.w3.org/2000/svg" viewBox="0 0 128 128"><g><g><path d="M123.436 80.639a43.946 43.946 0 0 0-6.998-22.516c-1.111-1.723-2.209-2.928-2.602-4.833a8.32 8.32 0 0 1-.116-.79c-.116-1.294.107-2.16.326-3.401 1.089-6.19-.826-10.091-5.762-13.799-.045-.031-.089-.058-.138-.094 1.463-2.361 2.552-4.95 3.11-7.676 1.906-9.363-2.954-19.561-11.67-23.632-2.946-1.375-6.043-2.107-9.186-2.33-6.824-.482-13.844 1.46-19.923 4.53-8.395 4.24-14.808 11.658-23.507 15.309-2.049.861-3.901 1.241-6.087 1.441-1.446.139-3.12-.16-4.57-.286-2.142-.179-5.333-2.084-6.44.875-1.495 4.003 6.235 4.512 8.516 4.762 8.689.942 19.668-5.548 26.171-10.89 9.234-7.582 24.935-15.723 35.807-6.266 6.239 5.432 6.976 14.723 2.388 21.342a24.484 24.484 0 0 0-2.535-.759c-2.709-.625-5.159-.491-7.516 1.004-1.937 1.227-3.646 2.763-5.431 4.191-1.603 1.281-2.594 1.057-4.57.848a41.695 41.695 0 0 0-4.356-.241c-24.917 0-45.112 19.941-45.112 44.541 0 24.596 20.195 44.537 45.112 44.537 24.913 0 45.108-19.941 45.108-44.537a48.862 48.862 0 0 0-.019-1.33z" fill="#2f2f2f"/></g><path d="M88.187 51.763c-2.745.736-5.682.696-8.466 1.365a38.885 38.885 0 0 0-14.942 7.262c-9.024 7.132-14.527 18.321-14.482 29.822 0 .536.013 1.076.04 1.616.094 1.874.179 4.673-1.415 6.029-4.628 3.94-8.511-8.596-8.908-11.024-.834-5.092-.259-10.505 1.179-15.437a37.981 37.981 0 0 1 7.815-14.277c7.333-8.436 18.169-13.313 29.34-13.313 2.923 0 6.043.218 8.873 1.013 2.129.602 4.762 1.33 5.627 3.651 1.132 3.043-2.751 2.775-4.661 3.293z" fill="#fff"/><path d="M22.772 18.589a3.739 3.739 0 1 0 0 0z" fill="#ed6c30"/><path d="M19.974 29.47c-1.58 1.692-3.419 5.874-3.209 8.297.054.629.219 1.236.509 1.812.696 1.357 2.772 2.236 4.097 1.375 1.04-.674 1.615-1.794 1.896-2.977.424-1.772.492-12.55-3.293-8.507z" fill="#ed6c30"/><path d="M34.956 36.245c.281-1.129-.035-2.267-.593-3.258-.834-1.486-7.654-8.939-7.686-3.75-.004 2.164 1.393 6.217 3.08 7.748.442.398.941.709 1.504.92 1.339.491 3.329-.227 3.695-1.66z" fill="#ed6c30"/><path d="M15.453 24.949c-2.138.108-6.06 1.719-7.48 3.464-.37.46-.656.969-.83 1.54-.406 1.349.411 3.276 1.848 3.553 1.129.219 2.231-.156 3.182-.763 1.423-.907 8.408-8.053 3.28-7.794z" fill="#ed6c30"/><path d="M35.197 12.774c.723-.968 1.219-2.125 1.076-3.356-.183-1.57-2.191-2.606-3.673-2.271a4.964 4.964 0 0 0-1.723.763c-1.999 1.388-4.039 5.476-4.329 7.77-.692 5.493 7.556-1.447 8.649-2.906z" fill="#ed6c30"/><path d="M15.301 20.973c2.839-.781 1.058-2.763-.428-3.892-1.803-1.361-4.231-2.892-6.516-3.182-1.437-.179-3.008.638-3.583 1.972-.701 1.625.326 3.191 1.691 4.07 2.048 1.318 6.604 1.639 8.836 1.032z" fill="#ed6c30"/><path d="M21.946 7.11c-.37-1.08-1.004-2.075-2.03-2.615-1.312-.692-3.178.317-3.709 1.642a4.564 4.564 0 0 0-.317 1.736c.018 2.281 2.102 6.034 3.722 7.476C23.5 18.791 22.5 8.726 21.946 7.11z" fill="#ed6c30"/></g></svg>