<svg id="レイヤー_1" xmlns="http://www.w3.org/2000/svg" viewBox="0 0 128 128"><g><path d="M70.881 13.424c-3.346-.307-6.688 2.5-9.28 4.46-1.25.946-2.617 1.996-3.563 3.363-.887 1.288-1.079 3.121-2.254 4.104-1.833 1.546-5.405 1.271-7.663 2.438-2.667 1.377-5.33 3.254-6.934 5.703-1.679 2.564-2.708 4.448-2.325 7.667.329 2.752 2.825 5.132 2.892 7.819.092 3.394-3.054 3.088-5.721 3.4-3.15.371-5.992.89-9.247.871-4.704-.027-9.43 1.054-13.88 2.521-3.513 1.156-8.217 1.888-10.384 5.254-2.066 3.211-1.337 7.822-1.337 11.426.004 3.134.229 7.069 2.129 9.705 2.238 3.1 7.851 3.004 11.367 3.096 4.096.108 7.938.036 11.934.71 2.875.486 5.83 1.025 8.705 1.578 2.275.439 4.684.262 7.004.662.892 2.625-2.5 5.676-2.75 8.428-.325 3.515 1.788 5.106 4.108 7.27 5.388 5.029 10.088 4.821 17.239 4.821 1.396 0 2.888-.15 4.267.003 1.992.221 2.458.852 4.267 1.631 2.659 1.142 6.513 1.694 9.405 1.919 7.021.544 15.468-.294 21.16-4.765 3.042-2.392 4.009-5.455 5.705-8.78 1.421-2.788 3.538-2.963 6.247-4.409 3.041-1.625 3.717-3.86 4.383-6.934.825-3.821.309-5.001-.867-8.497-2.567-7.657 5.009-9.875 6.617-16.395 1.459-5.921.921-11.632-3.004-16.324-1.087-1.3-2.113-3.15-3.346-4.3-1.566-1.467-4.108-2.206-5.917-3.379-2.6-1.686-6.592-4.975-9.692-5.279-.808-4.655.938-9.38-2.4-13.384-3.167-3.796-9.617-5.404-14.063-7.113l-12.802.71z" fill="#fff"/><g fill="#78a3ad"><path d="M9.919 73.525c6.963-.017 13.922-.321 20.88-.225 5.488.075 10.955.25 16.439.163 2.562-.042 9.138 1.184 8.809-3.196-.079-1.108-.612-1.784-1.379-2.205-1.496-.821-3.854-.666-5.413-.846-4.255-.491-8.55-.262-12.817-.116-11.63.396-23.206 1.65-34.748 3.033-1.909.229-1.592 3.546.321 3.371 2.595-.233 5.291.026 7.908.021z"/><path d="M126.59 61.991a24.24 24.24 0 0 0 .207-13.063c-.95-3.58-2.754-6.921-5.379-9.605-2.321-2.358-5.592-4.946-8.65-6.259-1.809-.771-3.883-.888-5.622-1.825-2.462-1.325-1.75-3.296-2.117-5.733-1.046-6.946-4.942-9.938-10.655-13.397a25.579 25.579 0 0 0-9.305-3.383c-9.984-1.58-24.272.496-29.327 10.613-1.467 2.938-2.008 4.367-5.425 5.255-6.05 1.571-11.655 4.329-14.543 10.171-2.483 5.021-2.675 11.097.583 15.78-.7.091-1.396.171-2.092.275-5.738.837-11.501 1.579-17.189 2.721-2.788.558-5.571 1.2-8.305 2-2.054.6-5.071 1.125-6.729 2.571-1.254 1.092.233 2.509 1.571 2.296 14.434-2.304 29.194-2.983 43.77-3.842 2.267-.133 5.892.2 7.775-1.308 2.587-2.08-.392-4.342-2.542-4.992-1.375-.421-2.767-.629-3.471-.625a103.24 103.24 0 0 0-6.446.267c-.012-.017-.029-.038-.033-.054-3.384-6.488-1.221-14.118 5.476-17.247 2.975-1.392 6.404-1.725 9.634-1.196.6.096 1.863.575 2.492.296 1.309-.575 1.45-3.142 1.65-4.338.212-1.258.604-2.434 1.233-3.55 1.183-2.112 3.042-3.758 5.167-4.9 8.988-4.826 23.326-2.238 27.827 7.684.392.862.688 1.767.9 2.692.113.513.7 2.587.358 3.008-1.1 1.35-1.413 4.184.638 4.892.729.258 1.688.208 2.459.35 5.4.975 11.038 2.429 14.651 6.838 6.004 7.305 5.521 19.885-3.171 25.043-1.834 1.092-1.571 3.717-.325 5.221 3.367 4.05 4.509 9.888 1.779 14.588-1.733 3.004-4.788 4.942-8.175 5.546-1.067.192-1.746.121-2.754-.121-.75-.179-1.521-.046-2.084.504-1.346 1.321-1.434 4.346-2.092 6.046-.754 1.929-2.075 3.55-3.626 4.905-5.096 4.454-12.888 5.779-19.285 3.729-1.592-.512-3.258-1.254-4.517-2.379-1.017-.9-1.771-2.754-3.351-2.68-.825.042-1.492.338-2.25.584-2.333.754-4.942 1.196-7.396 1.029-4.454-.3-9.371-2.017-12.438-5.379-1.492-1.642-2.375-3.621-2.438-5.854-.041-1.779.671-3.342 1.205-4.93 3.7.508 14.184 2.829 14.551-1.975.133-1.709-1.142-2.763-2.954-3.421-2.979-1.08-7.413-1.092-9.422-1.233-6.996-.483-13.992-.767-21.001-1.092-6.525-.309-13.076-.858-19.593-.521-1.058.054-2.309.121-2.538 1.258-.129.633.358 1.629 1.179 1.738 11.476 1.462 22.901 3.25 34.394 4.608-.658 1.629-1.125 3.384-1.325 5.046-.562 4.775 1.192 11.847 4.717 15.23 3.558 3.425 9.663 4.534 14.409 4.792 3.088.171 6.134-1.296 9.192-.854 1.729.25 3.221 1.246 4.601 2.267 1.3.958 2.692 1.75 4.225 2.292 2.751.971 5.684 1.375 8.584 1.379 5.046.004 10.576-1.434 14.559-4.659 2.897-2.354 4.897-6.163 6.834-9.296 2.046-3.321 6.838-3.192 10.051-5.301 3.05-2 5.396-4.934 7.055-8.159.858-1.663 1.163-3.458 1.413-5.3.258-1.913.225-3.738.075-5.655-.175-2.304-.538-3.684-1.759-5.617-1.583-2.517-.416-4.763 1.2-6.88 1.705-2.228 3.092-4.157 3.91-6.891z"/></g></g></svg>