<svg xmlns="http://www.w3.org/2000/svg" viewBox="0 0 128 128"><g id="图层_2"><g><path d="M118.889 75.133c-1.314-2.715-3.459-5.529-6.973-7.333a22.594 22.594 0 0 0-6.009-2.63c1.532-5.599-.642-10.058-3.689-13.386-4.525-4.878-9.274-5.594-9.274-5.594l-.008.001c1.559-3.035 2.154-6.537 1.361-9.989-.998-4.262-3.288-6.94-6.307-8.727-3.086-1.832-6.911-2.729-10.826-3.428-1.885-.339-9.811-1.447-13.1-6.003C61.417 14.35 61.338 7.71 60.61 5.727c-.773-2.054-3.38-1.154-6.235.755-3.328 2.223-10.234 9.346-12.885 16.485-2.029 5.475-2.075 10.211-1.276 13.89-3.291.555-5.758 1.661-6.227 1.881a4.98 4.98 0 0 0-.485.171c-3.007 1.241-9.433 7.016-10.009 15.848a24.358 24.358 0 0 0 1.199 9.262c-3.94 1.098-6.215 2.537-6.263 2.567-2.004.748-5.176 2.951-6.151 4.126-1.974 2.375-3.34 5.212-4.152 8.184-1.771 6.46-1.128 13.817 2.019 19.771 1.738 3.309 4.119 6.833 6.737 9.52 8.553 8.788 23.311 12.105 34.961 14.026 14.194 2.342 29.049 1.516 42.335-3.969 19.916-8.22 25.219-21.439 26.003-25.174 1.738-8.295-.383-16.069-1.292-17.937z" fill="#865d53"/><g><g><ellipse transform="rotate(6.35 85.987 66.426)" cx="85.95" cy="66.395" rx="15.5" ry="16.607" fill="#fff"/><path d="M92.633 66.358c-.231 3.304-3.136 5.818-6.493 5.619-3.358-.194-5.895-3.041-5.67-6.339.215-3.307 3.119-5.823 6.483-5.624 3.355.199 5.903 3.044 5.68 6.344" fill="#2f2f2f"/></g><g><ellipse transform="rotate(-4.313 42.442 66.377)" cx="42.462" cy="66.405" rx="15.5" ry="16.607" fill="#fff"/><path d="M49.022 65.132c.384 3.29-2.005 6.298-5.341 6.723-3.336.431-6.356-1.897-6.745-5.18-.4-3.289 1.987-6.299 5.33-6.727 3.334-.424 6.365 1.899 6.756 5.184" fill="#2f2f2f"/></g></g><path d="M87.353 89.461c-2.222-1.501-5.023-.511-7.495 0-6.895 1.425-12.951 1.485-15.858 1.485s-8.963-.06-15.858-1.484c-2.472-.511-5.273-1.501-7.495 0-2.818 1.904-.741 8.739 3.697 13.361 2.682 2.793 9.072 8.209 19.655 8.209 10.584 0 16.973-5.416 19.655-8.209 4.44-4.622 6.517-11.458 3.699-13.362z" fill="#ed6d31"/></g></g></svg>