<svg id="レイヤー_1" xmlns="http://www.w3.org/2000/svg" viewBox="0 0 128 128"><g><path d="M112.278 65.236a7.718 7.718 0 0 0-1.899-2.209c-6.653-5.331-18.679-5.59-27.014-4.711-7.222.761-13.406 4.025-18.645 9.005-1.891 1.799-3.456 3.799-5.364 5.615-1.314 1.247-2.644 3.372-4.285 4.193-2.745 1.364-3.213-.243-3.205-2.719.033-5.599.912-10.737 1.598-16.214.351-2.833.77-5.603 1.088-8.423.293-2.649 1.138-3.139 3.741-3.214 4.787-.134 9.666-.59 14.059-2.009 4.377-1.414 9.122-3.347 13.791-3.347 2.552 0 4.511 1.397 6.963 1.607 2.343.201 4.628.084 6.82-.67 2.21-.761 6.519-2.343 7.566-4.686.803-1.799-.302-4.285-.486-5.862-.268-2.331-2.164-2.709-3.093-4.885-.837-1.941-.171-4.149-1.31-5.827-1.113-1.653-1.364-4.055-2.117-5.904-.745-1.85-1.406-3.85-2.41-5.49-1.331-2.176-1.992-3.368-4.46-4.167-1.582-.511-3.105-1.431-4.779-1.615-4.385-.494-8.963.561-12.871 2.033-5.674 2.142-11.716 4.142-16.745 7.616a294.768 294.768 0 0 0-10.57 7.632c-1.992 1.515-4.176 2.82-5.925 4.569-.234.234-.46.511-.686.795-3.875 1.356-8.545 13.046-10.31 15.867-4.1 6.536-8.619 12.812-11.967 19.791-5.573 11.649-9.389 27.792-4.728 40.391 1.782 4.816 6.402 10.021 11.758 10.603 5.858.64 11.448 1.084 17.172 3.05 3.891 1.339 7.716 2.941 11.774 3.766 4.929 1.004 9.992.653 15.005.653 5.113 0 4.954.56 10.804.766 1.155.042 3.916.309 5.071.226l2.201.08 30.528 1.071V68.517l-7.07-3.281zM39.547 28.883l1.322-1.101c-.393.448-.811.859-1.322 1.101z" fill="#fcc21b"/><g fill="#e48c15"><g><path d="M105.047 26.565c-1.493-6.076-.825-4.928-4.502-14.261-2.763-7.013-7.589-8.628-12.877-8.696 1.63.197 3.206.435 4.623 1.476 1.417 1.042 2.471 5.381 3.358 6.979.469.854.962 2.1 1.398 3.28a71.046 71.046 0 0 1 1.079 3.264c1.08 2.896 2.109 6.728 2.259 7.23.066.214.083.405.073.582a1.458 1.458 0 0 1-.165.607c-.226.427-.628.736-1.08.929-.795.326-2.151.427-2.82-.536-.661-.962-1.933-4.034-2.192-4.963l-2.427-6.21s-.519-.979-1.364-1.188c-.669-.167-1.757.142-2.142.745-.494.77-.1 1.933-.1 1.933s4.226 10.737 4.427 11.323c.377 1.113-.326 1.774-1.105 2.126-.787.343-2.126.46-2.804-.477-.661-.904-4.711-10.57-5.013-11.281l-.025-.076s-.519-.979-1.364-1.18c-.669-.168-1.766.134-2.142.736-.594.971-.151 1.958-.151 1.958.879 1.95 4.887 10.821 5.08 11.339.41 1.071-.259 1.749-1.012 2.117-.753.36-2.067.527-2.77-.368-.703-.904-5.891-11.222-5.891-11.222s-.611-.92-1.473-1.038c-.678-.1-1.791.293-2.05.954-.31.803.092 1.941.092 1.941l5.481 11.005c.519 1.071-.1 1.824-.837 2.268-.737.443-2.067.728-2.879-.126-.644-.686-4.82-7.917-6.527-10.879-3.264 2.51-1.339 5.808-.728 7.757.368 1.155.452 5.105-1.473 6.846-1.297 1.18-2.82 1.448-4.008 1.439-.569-.05-1.147-.134-1.724-.217-.142-.034-.242-.067-.242-.067s.042.034.059.042a34.99 34.99 0 0 1-3.456-.645 3.314 3.314 0 0 0-2.711.536 3.333 3.333 0 0 0-1.38 2.402l-3.264 35.658c-.083.894.987 3.467 1.563 4.153 2.106-3.829 2.487-4.617 5.737-7.935-.018.028.434-7.666.434-7.666l1.823-19.934c12.118 1.849 22.135-1.623 26.411-3.481 2.828 1.908 8.636 3.615 19.473-.896.141-.059.257-.128.391-.19 3.544-1.619 4.969-4.141 5.517-6.011 1.454-4.952-3.475-10.299-4.58-12.082zm-1.154 8.218c-.075.519-.284.971-.561 1.381-.619.896-1.59 1.54-2.418 1.891-2.82 1.18-5.247 2.184-5.849 2.335-2.251.578-3.414.009-3.967-1.004-.561-1.012-.837-2.778.46-3.757 1.046-.787 7.632-3.841 10.151-4.996.603-.284.979-.452.979-.452s1.565 2 1.205 4.602z"/><path d="M119.349 120.285c-45.935-.393-86.229-7.465-93.167-9.398-4.402-1.23-11.634-9.627-12.242-12.129 2.81 10.367 10.587 16.636 14.685 18.867s46.591 8.953 90.724 9.321v-6.661z"/></g><path d="M108.47 90.174c-6.745 4.804-16.612 5.816-23.691 5.816-6.62 0-11.708-.871-11.758-.879a1.663 1.663 0 0 0-1.305 2.954c.385.302 9.657 7.381 21.959 7.381 1.959 0 3.909-.184 5.808-.552 9.339-1.791 11.683-9.54 11.615-13.39a1.649 1.649 0 0 0-.912-1.456 1.651 1.651 0 0 0-1.716.126z"/></g></g></svg>