<svg xmlns="http://www.w3.org/2000/svg" viewBox="0 0 128 128"><g id="图层_2"><g><g fill="#fff"/></g><g stroke="#d7598b" stroke-linecap="round" stroke-linejoin="round" stroke-miterlimit="10"><path d="M102.454 23.699c-3.985 2.604-7.41 3.476-9.418 2.018-2.008-1.459-2.237-4.986-.992-9.581-8.031-1.124-18.036 3.956-24.927 13.441a39.054 39.054 0 0 0-3.118 5.059 39.054 39.054 0 0 0-3.118-5.059c-6.891-9.485-16.895-14.564-24.927-13.441 1.245 4.595 1.016 8.122-.992 9.581-2.008 1.459-5.433.587-9.418-2.018-3.55 7.291-1.811 18.375 5.08 27.86a39.194 39.194 0 0 0 3.848 4.529 39.224 39.224 0 0 0-5.775 1.402C17.549 61.113 9.626 69.058 8.213 77.044c4.755.236 8.038 1.543 8.805 3.904.767 2.36-1.121 5.348-4.829 8.334 5.837 5.63 16.916 7.401 28.066 3.778a39.19 39.19 0 0 0 5.496-2.26 39.171 39.171 0 0 0-.451 5.926c0 11.724 5.108 21.714 12.266 25.525 1.693-4.449 3.952-7.168 6.434-7.168 2.481 0 4.74 2.719 6.434 7.168 7.158-3.812 12.266-13.802 12.266-25.525 0-2.043-.168-4.026-.462-5.94a39.088 39.088 0 0 0 5.507 2.275c11.15 3.623 22.229 1.852 28.066-3.778-3.708-2.985-5.596-5.974-4.829-8.334.767-2.36 4.051-3.668 8.805-3.904-1.413-7.986-9.336-15.931-20.486-19.553a39.224 39.224 0 0 0-5.775-1.402 39.11 39.11 0 0 0 3.848-4.529c6.891-9.486 8.631-20.571 5.08-27.862z" fill="none" stroke-width="3"/><path d="M124.008 54.376c-5.114-.253-8.647-1.66-9.471-4.199-.825-2.539 1.206-5.753 5.195-8.964-6.279-6.056-18.196-7.961-30.19-4.064a42.16 42.16 0 0 0-5.912 2.431 42.16 42.16 0 0 0 .485-6.374c0-12.611-5.494-23.356-13.194-27.457-1.821 4.786-4.251 7.71-6.92 7.71-2.669 0-5.099-2.925-6.92-7.71-7.7 4.1-13.194 14.846-13.194 27.457 0 2.19.171 4.321.485 6.374a42.16 42.16 0 0 0-5.912-2.431c-11.994-3.897-23.911-1.992-30.19 4.064 3.989 3.211 6.019 6.426 5.195 8.964-.825 2.539-4.357 3.946-9.472 4.199 1.52 8.59 10.042 17.136 22.036 21.033a42.051 42.051 0 0 0 6.212 1.508 42.054 42.054 0 0 0-4.139 4.871c-7.412 10.202-9.283 22.125-5.464 29.968 4.287-2.801 7.971-3.739 10.131-2.17 2.159 1.569 2.406 5.363 1.067 10.305 8.639 1.209 19.4-4.255 26.813-14.458a42.021 42.021 0 0 0 3.354-5.461 41.887 41.887 0 0 0 3.354 5.461c7.412 10.202 18.174 15.666 26.813 14.458-1.339-4.942-1.093-8.736 1.067-10.305 2.159-1.569 5.844-.631 10.131 2.17 3.819-7.843 1.948-19.766-5.464-29.968a42.054 42.054 0 0 0-4.139-4.871 42.051 42.051 0 0 0 6.212-1.508c11.989-3.897 20.511-12.443 22.031-21.033z" fill="#fff" stroke-width="5"/></g></g></svg>