<svg xmlns="http://www.w3.org/2000/svg" viewBox="0 0 128 128"><g id="图层_1"><path d="M84.303 30.366c0-2.023-.506-3.954-1.416-5.729" fill="none" stroke="#bdbdbd" stroke-width="4" stroke-miterlimit="10"/><path d="M45.113 24.638c-.91 1.774-1.416 3.705-1.416 5.729" fill="none" stroke="#bdbdbd" stroke-width="4" stroke-miterlimit="10"/><path d="M15.036 33.969h97.929a7.898 7.898 0 0 1 7.897 7.897v66.06a7.897 7.897 0 0 1-7.897 7.897H15.036a7.898 7.898 0 0 1-7.898-7.898V41.868a7.899 7.899 0 0 1 7.898-7.899z" fill="#795548"/><path d="M114.365 38.876H13.635c-3.588 0-6.497 2.771-6.497 6.188v24.74c0 .977.519 1.88 1.368 2.428C21.143 80.385 42.731 84.831 64 85.238c21.269-.406 42.857-4.852 55.494-13.005.849-.548 1.368-1.451 1.368-2.428v-24.74c0-3.418-2.909-6.189-6.497-6.189z" fill="#5d4037"/><path d="M116.009 30.366H11.991a6.71 6.71 0 0 0-6.71 6.71v26.825c0 1.059.536 2.038 1.413 2.632C19.743 75.374 42.036 80.194 64 80.634c21.964-.441 44.257-5.261 57.306-14.101a3.183 3.183 0 0 0 1.413-2.632V37.076a6.71 6.71 0 0 0-6.71-6.71z" fill="#795548"/><path d="M72.315 74.771v15.686c0 .886-.718 1.604-1.604 1.604H57.29a1.604 1.604 0 0 1-1.604-1.604V74.771c0-.886.718-1.605 1.605-1.605h13.42a1.606 1.606 0 0 1 1.604 1.605z" fill="#757575"/><path d="M72.315 71.334V87.02c0 .886-.718 1.604-1.604 1.604H57.29a1.604 1.604 0 0 1-1.604-1.604V71.334c0-.886.718-1.605 1.605-1.605h13.42c.885 0 1.604.719 1.604 1.605z" fill="#bdbdbd"/><path d="M74.315 74.433v1.927c0 .886-.718 1.604-1.604 1.604H55.29a1.604 1.604 0 0 1-1.604-1.604v-1.927c0-.886.718-1.605 1.605-1.605h17.42c.885 0 1.604.719 1.604 1.605z" fill="#757575"/><path d="M82.887 24.638C79.916 18.848 72.583 14.75 64 14.75s-15.916 4.098-18.887 9.888" fill="none" stroke="#795548" stroke-width="6" stroke-linecap="round" stroke-miterlimit="10"/></g></svg>