<svg id="レイヤー_1" xmlns="http://www.w3.org/2000/svg" viewBox="0 0 128 128"><g><g><g><g><path d="M110.074 62.902c0 25.44-20.628 46.068-46.082 46.068-25.436 0-46.064-20.628-46.064-46.068 0-25.436 20.629-46.064 46.064-46.064 25.453 0 46.082 20.629 46.082 46.064z" fill="#40c0e7"/></g><g fill="#fff"><path d="M62.989 62.902l51.878-5.157v14.609z"/><path d="M86.841 21.483l-22.85 41.419 46.083-13.803-7.733-19.081z"/></g><g><path fill="#fff" d="M63.045 63.188l48.356-19.479 1.626 26.565z"/><path fill="#fff" d="M64.992 62.741L19.627 88.436l-5.115-26.118z"/><path fill="#fff" d="M43.824 105.691l20.162-42.789-45.109 16.711 8.931 18.551z"/><g><path fill="#fff" d="M65.104 61.747L19.087 86.256l8.115 12.154z"/><path fill="#40c0e7" d="M64.955 63.792L18.248 86.931l-5.161-13.673z"/><path fill="#fff" d="M63.404 62.455l-29.96 42.668-11.064-9.536z"/></g><g><path fill="#fff" d="M60.334 64.589l48.547-19.003-6.648-13.016z"/><path fill="#40c0e7" d="M60.711 62.576l49.079-17.563 3.54 14.176z"/><path fill="#fff" d="M62.104 64.086L96.806 25.18l9.885 10.754z"/></g></g></g><g><g><ellipse cx="63.99" cy="62.902" rx="11.712" ry="11.707" fill="#fff"/></g><path d="M63.991 51.19c6.47 0 11.711 5.246 11.711 11.712 0 6.466-5.241 11.707-11.711 11.707-6.466 0-11.713-5.241-11.713-11.707 0-6.465 5.247-11.712 11.713-11.712m0-3.67c-9.089 0-16.482 7.393-16.482 16.482 0 9.084 7.394 16.478 16.482 16.478s16.481-7.393 16.481-16.478c.001-9.089-7.392-16.482-16.481-16.482z" fill="#40c0e7"/><g><circle cx="63.993" cy="62.902" r="5.504" fill="#40c0e7"/></g></g></g><path d="M63.991 16.838c25.454 0 46.082 20.628 46.082 46.064 0 25.44-20.628 46.068-46.082 46.068-25.436 0-46.064-20.628-46.064-46.068 0-25.435 20.629-46.064 46.064-46.064m0-6.06c-29.345 0-53.22 23.875-53.22 53.219 0 29.35 23.875 53.225 53.22 53.225 29.358 0 53.238-23.875 53.238-53.225 0-29.345-23.879-53.219-53.238-53.219z" fill="#40c0e7"/></g></svg>