<svg id="レイヤー_1" xmlns="http://www.w3.org/2000/svg" viewBox="0 0 128 128"><g><path d="M123.845 40.195H4.154a3.284 3.284 0 0 0-3.286 3.286v58.538a3.284 3.284 0 0 0 3.286 3.286h119.69a3.288 3.288 0 0 0 3.287-3.286V43.481a3.286 3.286 0 0 0-3.286-3.286z" fill="#78909c"/><path d="M123.845 22.695H4.154a3.284 3.284 0 0 0-3.286 3.286v58.538a3.284 3.284 0 0 0 3.286 3.286h119.69a3.288 3.288 0 0 0 3.287-3.286V25.981a3.286 3.286 0 0 0-3.286-3.286z" fill="#b1e0cf"/><g><g><path d="M24.487 73.351c.847.261 2.109.604 3.62.895v2.888c0 .424.347.771.775.771h6.161a.77.77 0 0 0 .771-.771v-2.405c5.468-.453 9.567-2.824 11.903-6.949 2.251-3.979 1.391-8.112-2.379-11.352-2.379-1.887-6.093-3.534-9.524-4.865v-6.332c2.289.74 4.347 1.484 6.02 2.186a.624.624 0 0 0 .757-.231l3.389-5.126.086-.492-.312-.398c-1.934-1.035-5.883-2.636-9.939-3.667V33.79a.77.77 0 0 0-.771-.771h-6.161a.774.774 0 0 0-.775.771v2.777c-5.712.269-9.597 2.25-11.827 6.084-1.75 3.008-1.746 6.397.005 8.849 1.84 2.614 4.826 3.783 8.608 5.255l.497.192c.873.333 1.797.676 2.717 1.014v7.702c-4.022-.958-7.77-2.896-8.455-3.363a.624.624 0 0 0-.843.133l-4.108 5.348-.12.462.244.411c2.494 1.848 6.106 3.602 9.661 4.697zm3.62-29.198v4.66c-1.733-.561-2.82-1.125-2.708-2.477.12-1.392 1.455-1.956 2.708-2.183zm10.295 20.145c-.398 1.035-1.425 1.57-2.588 1.839v-5.31c1.301.578 2.285 1.194 2.636 1.955.196.433.175.929-.048 1.516z" fill="#78909c"/></g></g><path fill="#e0e0e0" d="M78.499 20.695h22v67.11h-22z"/><path fill="#bdbdbd" d="M78.499 87.805h22v19.5h-22z"/></g></svg>