<svg id="レイヤー_1" xmlns="http://www.w3.org/2000/svg" viewBox="0 0 128 128"><g><path d="M102.246 66.72c-6.712-5.319-17.17-9.979-26.831-13.724V35.169c6.465 2.102 12.26 4.204 16.977 6.165a1.74 1.74 0 0 0 2.124-.651l9.537-14.442c.273-.41.353-.912.238-1.389a1.741 1.741 0 0 0-.868-1.115c-5.442-2.917-16.566-7.448-28.007-10.349V2.935a2.162 2.162 0 0 0-2.16-2.168H55.874a2.17 2.17 0 0 0-2.173 2.168v7.778c-16.108.74-27.038 6.364-33.322 17.184-4.927 8.476-4.914 18.035.026 24.937 5.166 7.382 13.592 10.655 24.257 14.808l1.366.533c2.473.943 5.068 1.913 7.673 2.869v21.722c-11.278-2.679-21.881-8.183-23.838-9.51a1.746 1.746 0 0 0-2.362.379L15.936 98.702a1.696 1.696 0 0 0-.344 1.304c.058.463.309.882.688 1.163 6.99 5.18 17.162 10.129 27.219 13.231a98.768 98.768 0 0 0 10.203 2.525v8.144a2.17 2.17 0 0 0 2.173 2.164h17.381c1.194 0 2.16-.97 2.16-2.164v-6.756c15.425-1.273 26.954-7.969 33.539-19.589 6.349-11.23 3.921-22.882-6.709-32.004zM53.701 32.114v13.15c-5.002-1.607-7.946-3.155-7.628-6.98.317-3.922 4.081-5.526 7.628-6.17zm21.714 46.997c3.666 1.636 6.452 3.363 7.422 5.51.546 1.221.502 2.613-.128 4.271-1.115 2.909-4.006 4.425-7.294 5.188V79.111z" fill="#006ca2"/></g></svg>