<svg id="レイヤー_1" xmlns="http://www.w3.org/2000/svg" viewBox="0 0 128 128"><g><path d="M123.845 40.195H4.154a3.284 3.284 0 0 0-3.286 3.286v58.538a3.284 3.284 0 0 0 3.286 3.286h119.69a3.288 3.288 0 0 0 3.287-3.286V43.481a3.286 3.286 0 0 0-3.286-3.286z" fill="#78909c"/><g><g><path d="M123.846 22.695H4.154a3.283 3.283 0 0 0-3.286 3.286v58.538a3.284 3.284 0 0 0 3.286 3.286h119.691a3.287 3.287 0 0 0 3.286-3.286V25.981a3.284 3.284 0 0 0-3.285-3.286z" fill="#b1e0cf"/></g><path d="M49.54 63.296l-.402.088c-2.627 2.09-7.163 3.667-10.53 3.667-3.642 0-6.636-1.408-8.605-3.723h7.099a.598.598 0 0 0 .603-.6v-4.411c0-.331-.265-.6-.603-.6h-9.448c-.06-.464-.132-.924-.132-1.409 0-.49.073-.95.132-1.412h9.448a.598.598 0 0 0 .603-.602v-4.416a.598.598 0 0 0-.603-.601h-7.09c1.973-2.309 4.964-3.717 8.597-3.717 3.521 0 7.137 1.137 9.434 2.97l.385.088.312-.245 4.095-8.21-.12-.566c-3.65-2.894-8.292-4.303-14.18-4.303-9.961 0-17.723 5.584-20.504 13.983h-6.589a.6.6 0 0 0-.599.601v4.416a.6.6 0 0 0 .599.602h5.528c-.026.469-.068.933-.068 1.412 0 .475.042.939.068 1.409h-5.528a.6.6 0 0 0-.599.6v4.411c0 .332.27.6.599.6h6.589c2.777 8.4 10.543 13.989 20.504 13.989 5.738 0 10.689-1.746 14.728-5.19l.128-.535-3.543-8.035-.308-.261z" fill="#78909c"/></g><path fill="#e0e0e0" d="M78.499 20.695h22v67.11h-22z"/><path fill="#bdbdbd" d="M78.499 87.805h22v19.5h-22z"/></g></svg>