<svg id="レイヤー_1" xmlns="http://www.w3.org/2000/svg" xmlns:xlink="http://www.w3.org/1999/xlink" viewBox="0 0 128 128"><path d="M62.04 124.757s1.442 1.616 2.814 1.754c1.372.138 7.429-4.187 7.429-4.187s2.972-4.863-5.268-11.481c-7.65-6.145-2.97-19.517-2.97-19.517l-11.032 9.455 9.027 23.976z" fill="#3d88c3"/><path d="M94.287 106.184s.765 1.749 2.138 1.888 4.493-2.767 4.493-2.767 3.647-4.998-3.782-10.806c-7.73-6.044 2.296-16.479 2.296-16.479l-14.171 4.188 9.026 23.976z" fill="#3d88c3"/><path d="M91.504 105.588l6.146-2.274s.58-2.588-1.269-4.307c-1.849-1.719-6.244-4.371-5.021-10.813 1.222-6.442-6.249 5.861-6.249 5.861s3.131 6.793 3.642 7.286c.51.492 2.751 4.247 2.751 4.247z" fill="#195c82"/><path d="M33.68 113.325l28.743 12.646 2.296-.945c1.599.703 2.935.859 3.39-1.585.438-2.357-.417-4.818-1.912-5.621L36.16 101.28c-2.157-1.152-4.51.586-5.256 3.883-.746 3.297.398 6.903 2.555 8.055.069.037.151.076.221.107z" fill="#195c82"/><path d="M31.531 104.279s-.47.663.771-.189c1.241-.853 1.816-4.59 2.238-9.514s.602-4.929.602-4.929l2.38 16.515-5.991-1.883z" fill="#195c82"/><path d="M56.289 91.119l38.457 16.911c1.599.703 3.264-.709 3.718-3.153.438-2.357-.417-4.818-1.912-5.621L58.769 79.073c-2.157-1.152-4.51.586-5.256 3.883-.746 3.297.398 6.903 2.555 8.055.069.037.152.077.221.108z" fill="#195c82"/><path d="M53.673 94.435l1.963 18.824-22.746-6.924-.529-4.112c.537-.633 4.647-2.598.086-9.887-5.718-9.138 6.015-4.839 6.015-4.839l15.211 6.938z" fill="#195c82"/><path d="M55.291 92.4s-1.771 10.664 5.224 17.185c6.857 6.392 11.672 10.463 6.35 15.809-7.123 7.154-35.179-22.372-38.34-42.733S55.291 92.4 55.291 92.4z" fill="#0a4f6d"/><path d="M63.712 55.786l46.403 5.208c1.757.197 3.318-1.261 3.486-3.257.159-1.894-1.005-3.595-2.626-3.931l-45.903-9.385c-2.749-.562-5.371 1.512-5.856 4.633-.486 3.121 1.349 6.107 4.097 6.669.129.026.27.048.399.063z" fill="#a9b7bf"/><path d="M31.476 75.727l46.403 5.208c1.757.197 3.318-1.261 3.486-3.257.159-1.894-1.005-3.595-2.626-3.931l-45.903-9.385c-2.749-.562-5.371 1.512-5.856 4.633-.486 3.121 1.349 6.107 4.097 6.669.13.027.27.049.399.063z" fill="#5d5d5d"/><g><g><defs><path id="SVGID_1_" d="M62.491 49.079s-5.592 23.421.329 25.597l-20.595 1.969s-5.847-2.23 1.174-25.792l19.092-1.774z"/></defs><use xlink:href="#SVGID_1_" overflow="visible" fill="#ed6c30"/><clipPath id="SVGID_2_"><use xlink:href="#SVGID_1_" overflow="visible"/></clipPath><path d="M71.518 2.26c2.431.12 5.385 1.026 8.08 3.933 5.971 6.446 13.954 24.826 12.712 35.874S78.23 56.648 59.554 59.704c-12.405 2.03-31.577 3.219-35.008-14.063C20.485 25.175 18.44 6.897 35.23 5.916c2.591-.15 11.128.073 18.067-.711 8.234-.933 16.615-3.026 18.221-2.945z" clip-path="url(#SVGID_2_)" fill="#855c52"/></g><g><path d="M84.756 86.663s-14.26 4.665-25.548 2.964c-11.279-1.699-19.252-6.981-20.211-8.787-.958-1.806 1.655-1.788 6.002-.456 4.347 1.334 16.173 3.854 19.965 4.039 2.602.128 16.151-.413 20.112-.883 3.774-.452 2.364 2.348-.32 3.123z" fill="#f79329"/></g></g><g><path d="M26.216 5.749c1.509.182 3.426 1.074 5.548 3.649 4.454 5.404 7.318 27.023 7.712 35.916L65.8 38.757l.52-.833C64.877 26.463 64.43 12.812 56.855 4c-1.043-1.214-2.291-2.066-3.658-2.666.521.002 1.04.003 1.574.013 5.07.72 7.46 1.564 10.943 5.978 6.467 8.196 6.974 19.736 8.108 30.098.983 8.979.009 25.304 8.336 29.745 15.509 8.272-36.911 28.734-49.902 19.15-6.462-4.768-9.651-10.723-10.996-19.238-1.934-12.243-4.3-25.414-4.911-37.772.003.001-2.109-24.78 9.867-23.559" fill="#3d88c3"/><path d="M66.321 37.923l-.52.833-26.324 6.557c-.395-8.893-3.258-30.512-7.712-35.916-2.122-2.575-4.039-3.467-5.548-3.649 5.169-2.065 13.988-4.462 26.982-4.415 1.367.6 2.614 1.452 3.658 2.666 7.573 8.813 8.02 22.464 9.464 33.924z" fill="#e1e8ed"/></g><path d="M92.587 81.211s24.153-5.975 24.344-6.503c1.125-3.112-10.969-4.65-19.234-5.715-10.481-1.349-17.207-3.825-19.407-5.403 0 0-6.076 1.85-12.708 3.42-6.359 1.505-37.542 3.238-36.718 7.514.824 4.276 16.495 16.689 18.236 17.967 0 0 35.115-.658 45.487-11.28z" fill="#56aaec"/><path d="M72.608 104.476l42.635-20.863c2.445-1.196 3.638-4.663 2.664-7.742-.933-2.95-3.529-4.468-5.894-3.54L68.351 89.61c-3.299 1.306-5.108 5.731-4.04 9.883 1.068 4.153 4.608 6.461 7.907 5.155.127-.05.268-.112.39-.172z" fill="#1e84bc"/><path d="M68.838 89.949s-6.886-1.653-21.991-7.993c-7.568-3.176-12.46-5.403-13.17-8.235L22.01 67.425s2.098 17.124 5.339 20.186c3.242 3.062 41.806 17.374 41.806 17.374l-.317-15.036z" fill="#2871a3"/><path d="M22.91 72.768l47.417 5.322c1.796.202 3.391-1.288 3.562-3.328.163-1.936-1.027-3.673-2.683-4.017L24.3 61.154c-2.809-.574-5.488 1.546-5.984 4.735-.496 3.189 1.378 6.24 4.187 6.814.132.028.276.05.407.065z" fill="#cbd5dc"/><path d="M68.29 22.453l-3.403-6.636.246 10.184c.014.576-25.966 6.482-26.515 6.112-.549-.369-.942-1.705-1.145-2.66-.203-.956-1.247-6.887-1.247-6.887s-1.971.439-1.957 1.015c.014.576-1.462 14.076-1.443 14.844.019.769-.304 9.814 1.894 11.292 2.198 1.478 11.541.452 16.933-.081 5.392-.533 6.86.581 11.854-1.479s5.876-2.853 6.181-5.169c.303-2.316-1.398-20.535-1.398-20.535z" fill="#3d88c3"/></svg>