<svg xmlns="http://www.w3.org/2000/svg" viewBox="0 0 128 128"><g id="图层_1"><g><path d="M68.434 5.379c.886-1.947 2.552-2.497 3.933-2.565 2.104-.103 4.298 1.348 6.371 3.06a15.106 15.106 0 0 0 5.268 3.84c1.409.502 2.811.601 4.232.532 2.004-.098 4.031-.54 6.035-.638l.114-.006.91-.078c2.299-.113 4.475.425 6.528 1.615 1.892 1.721 2.716 3.863 2.459 6.436-.44 2.131-.062 4.081 1.133 5.85a44.7 44.7 0 0 0 6.46 3.774c2.34 1.283 3.812 3.212 4.455 5.782.228 2.722-1.031 4.457-3.749 5.208-3.544.887-8.299.894-12.306 3.991-5.857 4.893-7.704 9.819-10.247 10.569-1.252-1.423-9.051-7.445-22.132-10.34-2.356-8.074-3.778-27.548.536-37.03z" fill="#fcc21b"/><path d="M81.625 40.693c2.302-4.601 8.849-12.692 10.418-11.094 1.555 1.742-2.018 10.779-4.525 15.215-.894-.939-3.76-2.91-5.013-3.245" fill="#d19b15"/><g><path d="M93.199 55.422a3.999 3.999 0 0 1-3.424-1.925C82.9 42.165 67.32 43.363 67.167 43.378a4.009 4.009 0 0 1-4.333-3.631 3.996 3.996 0 0 1 3.612-4.337c.839-.076 20.674-1.709 30.169 13.937a4 4 0 0 1-3.416 6.075z" fill="#8d6e63"/></g><path d="M96.062 122.067c-17.134 4.221-40.943 3.923-57.952.558-15.92-3.147-28.109-12.533-26.709-31.019 1.417-18.696 13.81-36.309 30.852-44.067 16.493-7.507 38.624-11.17 50.277 5.871 2.901 4.239 8.441 13.648 8.702 18.273.018.367.042.701.121 1.018.018 1.162.492 2.329 1.627 3.189 7.326 5.555 12.672 12.913 13.648 22.996 1.161 12.038-10.218 20.629-20.566 23.181z" fill="#fcc21b"/></g><g><path d="M80.875 91.125c-2.085-3.379-5.91-7.047-9.53-10.204l2.815-7.777c2.497 1.946 4.7 3.782 6.423 5.36a.801.801 0 0 0 1.036.057l6.435-4.792a.811.811 0 0 0 .113-1.189c-1.91-2.129-6.05-5.858-10.575-8.927l1.648-4.56a.998.998 0 0 0-.599-1.285l-7.572-2.741a1.01 1.01 0 0 0-1.29.603l-1.232 3.41c-7.13-2.208-12.788-1.504-17.229 2.212-3.48 2.916-4.984 7.086-3.921 10.873 1.084 4.031 4.245 6.79 8.236 10.282l.511.45c.927.795 1.915 1.63 2.89 2.461l-3.423 9.461c-4.486-2.938-8.245-7.012-8.892-7.904a.806.806 0 0 0-1.084-.205l-7.424 4.743a.805.805 0 0 0-.236 1.128c2.234 3.362 5.884 7.122 9.771 10.059.931.7 2.33 1.684 4.053 2.71l-1.285 3.554a1.003 1.003 0 0 0 .599 1.281l7.58 2.746a1.012 1.012 0 0 0 1.29-.604l1.067-2.959c6.916 1.875 13.001.791 17.696-3.231 4.547-3.894 5.325-9.359 2.129-15.012zM65.176 68.397l-2.072 5.727c-1.933-1.495-2.964-2.632-2.229-4.249.76-1.657 2.653-1.762 4.301-1.478zm2.055 23.9c1.333 1.29 2.273 2.483 2.36 3.571.044.617-.188 1.22-.73 1.841-.944 1.093-2.443 1.299-3.991 1.111l2.361-6.523z" fill="#424242"/></g></g></svg>