<svg id="レイヤー_1" xmlns="http://www.w3.org/2000/svg" viewBox="0 0 128 128"><g><path d="M123.845 40.195H4.154a3.284 3.284 0 0 0-3.286 3.286v58.538a3.284 3.284 0 0 0 3.286 3.286h119.69a3.288 3.288 0 0 0 3.287-3.286V43.481a3.286 3.286 0 0 0-3.286-3.286z" fill="#78909c"/><g><path d="M123.846 22.695H4.155a3.283 3.283 0 0 0-3.286 3.286V84.52a3.284 3.284 0 0 0 3.286 3.286h119.691a3.286 3.286 0 0 0 3.286-3.286V25.981a3.286 3.286 0 0 0-3.286-3.286z" fill="#b1e0cf"/><g><g><path d="M25.313 52.42h-7.086a.688.688 0 0 0-.685.689v4.702c0 .381.308.689.685.689h10.86v2.982h-10.86a.692.692 0 0 0-.685.693v4.698a.69.69 0 0 0 .685.694h10.86v7.98c0 .478.389.863.864.863h8.497a.867.867 0 0 0 .864-.863v-7.98H50.09a.695.695 0 0 0 .698-.694v-4.698a.697.697 0 0 0-.698-.693H39.313V58.5h10.778a.694.694 0 0 0 .698-.689v-4.702a.693.693 0 0 0-.698-.689h-7.008l9.34-14.895a.874.874 0 0 0-.745-1.343h-7.984a.871.871 0 0 0-.731.398l-8.759 13.46-8.763-13.46a.873.873 0 0 0-.735-.398h-7.989a.875.875 0 0 0-.74 1.343l9.336 14.895z" fill="#78909c"/></g></g></g><path fill="#e0e0e0" d="M78.499 20.695h22v67.11h-22z"/><path fill="#bdbdbd" d="M78.499 87.805h22v19.5h-22z"/></g></svg>