<svg id="レイヤー_1" xmlns="http://www.w3.org/2000/svg" xmlns:xlink="http://www.w3.org/1999/xlink" viewBox="0 0 128 128"><g><g><g fill="#78a3ad"><path d="M125.52 109.702c-2.856-4.071-9.179-6.236-14.013-6.113-1.969.049-3.778.579-5.152 1.774-1.579-.34-2.997-.972-3.565-2.187-.453-.955-.133-2.075.452-3.809.585-1.752 1.26-3.74.568-5.86-.869-2.658-3.752-5.847-12.797-5.698a1.787 1.787 0 0 0-1.764 1.813c.008.982.806 1.77 1.782 1.77h.026c5.25-.076 8.655 1.115 9.347 3.228.319.992-.088 2.202-.558 3.603-.63 1.851-1.402 4.153-.302 6.482.993 2.095 2.873 3.213 4.913 3.84-.736 4.123 4.036 8.408 7.21 10.284 3.424 2.011 8.102 3.265 11.884 1.747 4.868-1.944 4.557-7.167 1.969-10.874z"/><path d="M90.933 97.127H14.265c-1.068 0-2.119.853-2.332 1.899l-4.398 21.546c-.213 1.044.479 1.898 1.551 1.898h87.026c1.064 0 1.765-.854 1.552-1.898L93.26 99.024c-.217-1.045-1.263-1.897-2.327-1.897z"/><path d="M46.209 84.491h-14.97c-2.288 0-4.16 1.743-4.16 3.876v3.745h19.129v.002h11.893v-.002H77.23v-3.745c0-2.133-1.88-3.876-4.168-3.876h-14.96v-6.686h39.863c3.131 0 5.703-2.568 5.703-5.706V11.235c0-3.137-2.572-5.706-5.703-5.706H6.346c-3.14 0-5.711 2.569-5.711 5.706v60.864c0 3.138 2.572 5.706 5.711 5.706h39.863v6.686z"/></g><g><defs><path id="SVGID_1_" d="M12.474 63.067a4.362 4.362 0 0 1-4.355-4.357V18.118a4.363 4.363 0 0 1 4.355-4.358h79.363c2.386 0 4.346 1.96 4.346 4.358V58.71c0 2.397-1.96 4.357-4.346 4.357H12.474z"/></defs><use xlink:href="#SVGID_1_" overflow="visible" fill="#006ca2"/><clipPath id="SVGID_2_"><use xlink:href="#SVGID_1_" overflow="visible"/></clipPath><path clip-path="url(#SVGID_2_)" fill="#fff" d="M50.732 11.353L32.853 68.111l-27.634-.284V11.92z"/></g><path d="M18.672 102.687h68.42c1.072 0 1.941.867 1.941 1.937a1.94 1.94 0 0 1-1.941 1.938h-68.42a1.942 1.942 0 0 1-1.938-1.938c0-1.07.874-1.937 1.938-1.937z" fill="#fff"/><path d="M88.955 115.916H16.819a1.94 1.94 0 0 1-1.942-1.938 1.94 1.94 0 0 1 1.942-1.937h72.135a1.937 1.937 0 0 1 .001 3.875z" fill="#fff"/></g><path d="M91.642 18.302v40.224H12.659V18.302h78.983m.195-4.541H12.474a4.363 4.363 0 0 0-4.355 4.358V58.71a4.363 4.363 0 0 0 4.355 4.357h79.363c2.386 0 4.346-1.959 4.346-4.357V18.118c0-2.397-1.96-4.357-4.346-4.357z" fill="#006ca2"/></g></svg>