<svg id="レイヤー_1" xmlns="http://www.w3.org/2000/svg" xmlns:xlink="http://www.w3.org/1999/xlink" viewBox="0 0 128 128"><g><g><defs><path id="SVGID_1_" d="M125.759 64.915c2.321 2.987 2.039 6.606-.68 8.028l-82.412 43.148c-3.615 1.885-8.377.326-10.541-3.452L1.457 59.073c-1.788-3.134-.402-6.804 3.032-8.17l79.491-31.67c2.656-1.055 6.408.15 8.39 2.697l33.389 42.985z"/></defs><use xlink:href="#SVGID_1_" overflow="visible" fill="#fcc21b"/><clipPath id="SVGID_2_"><use xlink:href="#SVGID_1_" overflow="visible"/></clipPath><path clip-path="url(#SVGID_2_)" fill="#2f2f2f" d="M106.859 35.825L8.426 79.409-.022 64.452l97.55-40.538z"/></g><path d="M119.262 64.619c1.143 1.498.979 3.297-.397 3.99l-11.088 5.658c-1.43.728-3.539.048-4.679-1.514l-6.515-8.931c-1.094-1.509-.821-3.291.601-3.966l11.034-5.255c1.359-.646 3.363 0 4.475 1.444l6.569 8.574z" fill="#fff"/></g></svg>