<svg id="レイヤー_1" xmlns="http://www.w3.org/2000/svg" viewBox="0 0 128 128"><g><path d="M126.234 28.349c-2.009-3.659-7.388-4.155-10.893-5.492-1.858-.712-3.68-1.229-5.588-1.771-4.2-1.196-8.4-2.388-12.609-3.567-8.992-2.521-18.013-4.979-27.068-7.271-9.021-2.283-18.088-3.929-27.214-5.708-4.621-.904-8.263-1.042-10.905 3.138-3.184 5.046-5.029 11.159-7.2 16.851-2.351 6.163-4.884 12.268-7.355 18.385-3.212 7.955-6.413 15.909-9.621 23.864-1.396 3.458-2.85 6.9-4.171 10.393-1.617 4.269-4.78 10.815-.276 14.199 4.663 3.488 11.197 5.138 16.598 7.176 14.275 5.375 28.526 10.838 42.827 16.146 5.893 2.184 11.818 4.351 17.656 6.65 4.087 1.613 10.713 3.909 14.922 1.767 2.492-1.271 3.958-3.967 5.008-6.875.888-2.438 13.243-41.515 15.222-47.507 2.25-6.813 8.959-28.631 9.855-30.898 1.133-2.838 2.408-6.576.812-9.48z" fill="#006ca2"/><path d="M103.174 70.702c-7.737 23.268-33.644 35.461-56.52 26.839-21.78-8.217-31.614-32.048-23.147-52.92 6.242-15.372 21.026-25.523 37.052-26.856-2.013 5.934-3.763 11.967-6.05 17.797-.434 1.112-.896 2.263-1.217 3.508l-.038.138c-.225.792-.596 2.117-.075 3.425.679 1.708 2.229 2.383 3.263 2.721-3.271 1.458-5.984 4.134-7.333 7.651-2.604 6.817.858 14.322 7.846 16.726 7.101 2.434 15.018-1.354 17.551-8.413 1.354-3.775.858-7.671-.98-10.805.475.129.934.271 1.421.379l.187.038c.5.121 1.2.283 2.005.267 2.621-.046 3.971-1.992 4.729-4.163 2.463-7.017 5.05-14.039 7.371-21.126 13.34 9.991 19.69 27.509 13.935 44.794z" fill="#fff"/><path d="M86.219 20.103c-.15.817-.667 1.613-.962 2.388-.075.217-.159.434-.238.65-1.763 4.659-3.571 9.342-5.029 14.106-.371 1.246-.909 2.471-1.342 3.7-.462 1.325-1 3.929-2.312 4.742-1.225.763-2.917.029-4.163-.3a142.793 142.793 0 0 1-4.288-1.225c-2.413-.729-4.8-1.529-7.201-2.309-1.67-.546-2.795-.809-2.291-2.742.6-2.288 1.649-4.496 2.396-6.747 1.663-4.917 3.334-9.826 5.125-14.692.133-.354.254-.708.383-1.059.237-.637.379-1.508.996-1.925.658-.429 1.866-.125 2.558.029 2.813.629 5.588 1.384 8.363 2.129 1.367.363 2.729.729 4.096 1.079.946.238 1.9.492 2.833.784.796.246 1.225.342 1.092 1.271l-.016.121z" fill="#78a3ad"/></g></svg>