<svg id="レイヤー_1" xmlns="http://www.w3.org/2000/svg" viewBox="0 0 128 128"><g><path d="M123.845 40.195H4.154a3.284 3.284 0 0 0-3.286 3.286v58.538a3.284 3.284 0 0 0 3.286 3.286h119.69a3.288 3.288 0 0 0 3.287-3.286V43.481a3.286 3.286 0 0 0-3.286-3.286z" fill="#78909c"/><g><g><path d="M123.845 22.695H4.154a3.284 3.284 0 0 0-3.286 3.286v58.541a3.284 3.284 0 0 0 3.286 3.286h119.691a3.288 3.288 0 0 0 3.287-3.286V25.981a3.287 3.287 0 0 0-3.287-3.286z" fill="#b1e0cf"/></g><path d="M51.534 68.684l-3.269-4.129-.111-.06-.381-.197-.526.19-.008.006c-.06.064-3.363 3.211-8.031 3.37-1.382 0-3.932-.676-6.384-1.324-.963-.257-1.891-.497-2.776-.711.214-.44.402-.884.569-1.335a21.059 21.059 0 0 0 1.117-3.983h7.625a.664.664 0 0 0 .479-.208.667.667 0 0 0 .206-.479v-6.046a.686.686 0 0 0-.685-.687h-7.291c-.27-3.766-1.044-6.547-1.121-6.797-.081-.268-.771-2.642 1.626-3.564 2.02-.785 4.129 2.259 4.693 3.368l.487.366.582-.163 5.661-5.064a.7.7 0 0 0 .15-.824c-.163-.317-4.074-7.792-11.784-7.792-.766 0-1.536.071-2.319.225-7.124 1.352-10.637 6.589-9.404 14.009.124.759.303 1.594.496 2.484.257 1.183.523 2.449.724 3.752H14.92a.69.69 0 0 0-.685.687v6.046a.7.7 0 0 0 .685.687h6.414c-.582 1.467-1.57 2.828-3.115 3.983-1.168.873-2.645 1.63-4.536 2.23l-.41.372-.004.556.428 1.031 2.862 6.699c.06.154.18.256.325.327l.013.023h.056c.077.026.154.071.239.071l.095-.011c.132-.017 1.403-.225 3.153-.939.723-.115 1.583-.19 2.593-.19 2.836 0 6.05.571 9.606 1.718 2.34.599 4.587.905 6.666.905h.004c9.692 0 13.124-6.371 13.265-6.645l-.068-.74-.972-1.217z" fill="#78909c"/></g><path fill="#e0e0e0" d="M78.499 20.695h22v67.11h-22z"/><path fill="#bdbdbd" d="M78.499 87.805h22v19.5h-22z"/></g></svg>