<svg id="レイヤー_1" xmlns="http://www.w3.org/2000/svg" xmlns:xlink="http://www.w3.org/1999/xlink" viewBox="0 0 128 128"><g><g><path d="M36.909 50.986c1.662-.282 3.131-.941 4.077-2.141 1.201-1.538.645-3.015-.35-4.467-3.638-5.294-6.455-11.113-8.445-17.215-.954-2.935-1.903-5.735-5.049-6.908-2.11-.785-4.421-.395-6.459.408-2.406.944-4.776 1.993-7.293 2.615-2.518.628-5.184.785-7.768.982-1.286.098-2.486-.25-3.673.506-1.004.642-1.372 1.698-.927 2.81 1.518 3.853 6.289 4.932 9.953 4.932.457 0 .914 0 1.349.184.725.312.538.743.072 1.249-.382.408-.981.493-1.502.606-2.517.542.606 3.028 1.52 3.413 1.94.82 4.112.977 6.19 1.017.322.005.806-.04 1.07.224.888.888-1.442 1.457-1.792 1.814-1.07 1.084.221 2.124 1.152 2.662 1.89 1.08 3.878 1.115 5.984.932.672-.058 2.398.108 1.671 1.133-1.309 1.841-1.16 3.082.994 4.005 2.268.98 6.09 1.768 9.226 1.239z" fill-rule="evenodd" clip-rule="evenodd" fill="#fff"/></g><path d="M12.117 24.78c4.681-.551 10.537-3.369 13.69-2.222 3.155 1.147 3.369 3.941 4.803 7.096 1.433 3.153 2.939 7.311 2.939 7.311S27.667 26.36 25.235 24.78c-2.868-1.864-8.744.358-13.045.214 0 0-1.291-.071-.073-.214z" fill-rule="evenodd" clip-rule="evenodd" fill="#40c0e7"/><g><defs><path id="SVGID_1_" d="M36.909 50.986c1.662-.282 3.131-.941 4.077-2.141 1.201-1.538.645-3.015-.35-4.467-3.638-5.294-6.455-11.113-8.445-17.215-.954-2.935-1.903-5.735-5.049-6.908-2.11-.785-4.421-.395-6.459.408-2.406.944-4.776 1.993-7.293 2.615-2.518.628-5.184.785-7.768.982-1.286.098-2.486-.25-3.673.506-1.004.642-1.372 1.698-.927 2.81 1.518 3.853 6.289 4.932 9.953 4.932.457 0 .914 0 1.349.184.725.312.538.743.072 1.249-.382.408-.981.493-1.502.606-2.517.542.606 3.028 1.52 3.413 1.94.82 4.112.977 6.19 1.017.322.005.806-.04 1.07.224.888.888-1.442 1.457-1.792 1.814-1.07 1.084.221 2.124 1.152 2.662 1.89 1.08 3.878 1.115 5.984.932.672-.058 2.398.108 1.671 1.133-1.309 1.841-1.16 3.082.994 4.005 2.268.98 6.09 1.768 9.226 1.239z"/></defs><clipPath id="SVGID_2_"><use xlink:href="#SVGID_1_" overflow="visible"/></clipPath><path d="M1.294 24.923s-.063 2.36 2.078 3.583c9.534 5.448 15.769.287 17.346.645 1.102.251 1.075 1.004 1.075 1.004s-5.733 2.58-10.393 2.509c-4.659-.073-9.316-.073-10.25-2.509A162.213 162.213 0 0 1-.354 26.07l1.648-1.147z" clip-path="url(#SVGID_2_)" fill-rule="evenodd" clip-rule="evenodd" fill="#40c0e7"/><path d="M10.398 34.312c0 .216-.573.645.358 1.291.931.645 2.388 1.329 3.082 1.505 2.58.645 5.876.43 7.167.43 1.299 0 3.226-.86 4.229-.144.411.295.358.717.358.717s-2.796 1.002-8.672 1.002c-5.931 0-8.601-2.222-8.888-2.794-.287-.574 1.218-2.222 1.218-2.222l1.148.215z" clip-path="url(#SVGID_2_)" fill-rule="evenodd" clip-rule="evenodd" fill="#40c0e7"/><path d="M17.422 40.548c-.333-.548.77 1.321 1.72 1.864 2.508 1.433 3.655 1.155 5.59 1.075 1.721-.072 3.082-.931 4.086-.788.949.135 1.218.788 1.218.788s-3.01 1.362-4.373 1.147c-1.361-.216-7.095 1.002-7.454.574-.358-.43-2.437-3.012-2.437-3.012l1.65-1.648z" clip-path="url(#SVGID_2_)" fill-rule="evenodd" clip-rule="evenodd" fill="#40c0e7"/><path d="M25.091 47.715c.645.43 2.365.646 3.081.574 1.021-.103 2.582-1.146 2.582-1.146l.071.788-1.648 1.719-2.509 1.076-2.293-1.792.716-1.219z" clip-path="url(#SVGID_2_)" fill-rule="evenodd" clip-rule="evenodd" fill="#40c0e7"/></g><path d="M71.792 57.852c-.591 2.082-2.28 4.215-3.44 6.026-.9 1.4-2.124 2.422-3.095 3.735-.918 1.241-2.599 2.741-2.639 4.28-.081 3.205.305 6.3.287 9.468-.008 1.143.144 2.303.282 3.447.113.973.654 2.059.619 3.104 1.213.187 1.761-.171 2.66-1.002 1.278-1.179 2.443-2.477 3.603-3.746 1.5-1.657 2.486-2.928 3.368-4.955.713-1.645 1.066-2.663.937-4.524-.135-1.829-.286-3.627-.286-5.511l-2.296-10.322z" fill="#fff"/><path fill="#bdcf46" d="M10.725 69.893L47.996 83.94l-1.725 20.644L6.71 89.961z"/><g><g><g><defs><path id="SVGID_3_" d="M50.679 27.02S38.444 51.873 13.22 67.929l34.208 13.38s19.307-12.617 31.408-46.881L50.679 27.02z"/></defs><use xlink:href="#SVGID_3_" overflow="visible" fill-rule="evenodd" clip-rule="evenodd" fill="#bdcf46"/><clipPath id="SVGID_4_"><use xlink:href="#SVGID_3_" overflow="visible"/></clipPath></g><path d="M50.679 27.02l28.156 7.409c-12.101 34.263-31.408 46.88-31.408 46.88L13.22 67.929C38.444 51.872 50.679 27.02 50.679 27.02m0-4.588a4.583 4.583 0 0 0-4.112 2.559c-.12.237-12.038 23.939-35.811 39.068a4.574 4.574 0 0 0-2.101 4.313 4.592 4.592 0 0 0 2.894 3.83L45.757 85.58a4.587 4.587 0 0 0 4.18-.432c.841-.551 20.746-13.872 33.225-49.193a4.597 4.597 0 0 0-.272-3.675 4.573 4.573 0 0 0-2.891-2.288l-28.154-7.407a4.544 4.544 0 0 0-1.166-.153z" fill="#757f3f"/></g><path d="M45.936 85.626c.166.261.292.545.309.909.036.715.207 1.548.003 2.243-.111.324.135.226-.227.398-.302.144-.815-.232-1.098-.34-.44-.166-.878-.314-1.318-.493l-2.473-1.009-10.187-4.152-10.809-4.408c-1.703-.693-3.392-1.449-5.116-2.074-2.177-.788-3.257-.881-2.768-3.519.21-1.126.043-2.264.169-3.415.113-1.014.211-1.386 1.009-2.058 1.127-.942 2.222-1.814 1.844-3.448-.465-2.045-1.741-1.503-3.296-.843-1.545.766-4.937 1.913-4.852 4.128.256 6.787-1.236 12.89-2.701 19.426-.916 4.041 2.302 5.443 5.42 7.119 6.54 3.516 13.672 6.576 20.481 9.544 4.004 1.75 8.126 3.326 12.409 4.249 4.766 1.026 8.435-2.119 11.862-4.938 4.407-3.627 8.592-7.479 12.364-11.775 8.772-9.987 15.151-21.793 18.949-34.516.09-.3.113-.615.078-.928-.342-2.741-.677-5.483-1.014-8.224l-1.209-9.812c-.121-.998-.14-2.143-.399-3.139-.031-.116-.068-.232-.099-.345-.264-.778-.909-1.536-1.845-1.208-1.099.382-.86 2.029-1.107 2.952-.319 1.178-.671 2.325-.959 3.508-.604 2.451-2.026 4.88-3.19 7.104-.838 1.59-1.714 3.007-2.396 4.69a151.055 151.055 0 0 1-1.63 3.875c-.264.604-.815 1.236-.949 1.882-.14.649.144 1.527.224 2.19.491 3.825 1.299 7.615 1.54 11.472.111 1.792.287 3.922-.174 5.683-.865 3.318-3.643 5.593-5.528 8.297-.166.237-2.393 2.327-2.473 2.143-.403-.912-.242-1.896-.148-2.849.368-4.02.095-8.068-.106-12.091-.04-.846-.037-2.607-1.161-2.737-.641-.071-1.071-.058-1.612.314-1.304.901-2.214 2.293-3.262 3.452-1.429 1.582-2.938 3.116-4.574 4.482a49.858 49.858 0 0 0-2.441 2.167c-1.089.83-2.25 1.605-3.472 2.214-1.16.577-3.377.541-2.917 2.446.149.594.552.974.849 1.434zm-2.366 16.491c-.242.188-.556.293-.954.274-.668-.04-1.147-.367-1.773-.574-1.922-.631-3.808-1.371-5.685-2.122-3.432-1.368-6.836-2.819-10.226-4.29a162.96 162.96 0 0 1-9.409-4.375c-1.491-.748-3.212-1.268-4.47-2.423-.739-.683-.337-2.344.649-2.647 1.46-.453 3.606 1.183 4.837 1.802 4.655 2.323 9.552 4.096 14.363 6.06l10.76 4.386c.537.219 1.191.322 1.742.585.659.316.664.754.762 1.421.111.727-.077 1.5-.596 1.903zm1.912-6.448c-.641.361-1.505-.23-2.146-.493-1.37-.562-2.746-1.122-4.12-1.682l-11.339-4.623c-3.253-1.326-6.522-2.62-9.748-4.009-1.492-.641-6.921-2.027-6.729-4.072.063-.699.201-1.906 1.2-1.439 1.216.572 2.461 1.072 3.706 1.578 3.373 1.377 6.755 2.755 10.132 4.13 3.737 1.522 7.473 3.048 11.205 4.571 2.544 1.033 5.066 2.203 7.647 3.116 1.141.403 1.173 1.98.398 2.763a.91.91 0 0 1-.206.16z" fill="#757f3f"/><g><path d="M28.693 53.783c.151-.161 2.79.902 3.113 1.009 1.08.351 2.154.706 3.231 1.063a330.37 330.37 0 0 1 6.422 2.204c4.271 1.515 8.496 3.136 12.648 4.945 2.141.937 4.426 1.824 6.432 3.033.727.44 1.143 1.175 2.116.975.931-.19 1.548-1.179 2.119-1.854.778-.935 8.094-10.759 8.175-10.702a41.422 41.422 0 0 0-6.168-3.832 87.97 87.97 0 0 0-5.793-2.635c-3.717-1.532-7.517-2.884-11.397-3.964-1.384-.388-9.24-3.163-10.378-1.899-.002-.001-10.512 11.656-10.52 11.657z" fill-rule="evenodd" clip-rule="evenodd" fill="#fff"/><path d="M62.335 69.339c-1.331 0-2.182-.696-2.688-1.11-.093-.079-.184-.161-.295-.229-1.466-.883-3.186-1.614-4.843-2.327l-1.321-.567c-3.737-1.627-7.821-3.228-12.499-4.886a336.933 336.933 0 0 0-6.375-2.189l-3.216-1.057c-.095-.032-.304-.11-.591-.221-.372-.139-1.417-.535-1.895-.675a2.322 2.322 0 0 1-1.46-.596 2.3 2.3 0 0 1-.166-3.223c.003-.005.008-.01.013-.015l10.505-11.653c.98-1.087 2.446-1.087 2.925-1.087 2.164 0 5.523.97 8.834 2.019.425.134.752.24.944.293 3.764 1.046 7.58 2.372 11.651 4.053a92.786 92.786 0 0 1 5.946 2.702 43.752 43.752 0 0 1 6.253 3.855 2.297 2.297 0 0 1 1.228 2.029c0 .712-.327 1.354-.838 1.774-.641.807-2.612 3.415-4.091 5.375-2.132 2.83-3.458 4.585-3.83 5.027l-.264.327c-.622.788-1.563 1.975-3.148 2.302a3.908 3.908 0 0 1-.779.079zM32.77 52.695l2.992.985c2.164.717 4.318 1.457 6.469 2.217 4.771 1.694 8.954 3.333 12.789 5.005l1.286.553c1.805.773 3.674 1.571 5.411 2.618.233.137.439.29.637.445.098-.13.224-.29.319-.408l.344-.43c.313-.372 2.11-2.75 3.692-4.852a389.375 389.375 0 0 1 2.952-3.885 39.603 39.603 0 0 0-3.907-2.27 87.947 87.947 0 0 0-5.645-2.563c-3.901-1.608-7.542-2.875-11.136-3.874a56.025 56.025 0 0 1-1.094-.342c-1.674-.528-5.559-1.759-7.355-1.8a7329.986 7329.986 0 0 0-7.754 8.601z" fill="#757f3f"/></g></g><path d="M60.114 77.124a2.805 2.805 0 0 1-.225.25c-1.739 1.77-3.4 3.624-5.143 5.395-.667.68-1.33 1.365-2.041 2.006-.458.411-1.201.715-1.545 1.231-.261.379-.181.901-.224 1.344-.332 3.445-.767 6.885-1.071 10.335-.063.659.04 1.349-.156 1.985-.188.594-.4 1.366.43 1.054.954-.356 1.679-1.171 2.391-1.866 1.515-1.473 3.15-2.808 4.655-4.29 1.003-.989 3.229-2.833 3.565-4.273.131-.567.076-1.258.166-1.842.063-.456.031-.963.089-1.424.125-1.1.153-2.199.153-3.306 0-1.292.103-2.584.081-3.877-.005-.558.018-1.104.031-1.651.015-.653-.259-1.289-.259-1.947-.378.18-.629.548-.897.876z" fill-rule="evenodd" clip-rule="evenodd" fill="#bdcf46"/><path d="M81.845 48.461c-.153-2.085-.44-4.223-.977-6.092-.287-.999-.757.855-.873 1.125-.247.587-.516 1.165-.762 1.752-1.052 2.541-2.526 4.864-3.485 7.454-.3.802-.869 1.568-1.084 2.393-.247.925.368 1.667.483 2.569.234 1.8.611 3.574.86 5.37.221 1.553.292 3.131.448 4.692.055.53.05 1.068.113 1.602.08.628.169 1.292.309 1.892.416.15.896-.996 1.057-1.3.752-1.47 1.903-2.659 2.557-4.191.686-1.625 1.049-3.398 1.142-5.155.158-2.942.4-5.886.35-8.833a61.197 61.197 0 0 0-.138-3.278z" fill-rule="evenodd" clip-rule="evenodd" fill="#bdcf46"/><path d="M49.582 92.762l-.963-2.083c1.371-.632 2.496-1.707 3.691-2.846.304-.295.614-.591.928-.877.523-.48 1.06-.951 1.599-1.418 1.008-.881 1.958-1.709 2.849-2.628.332-.338.663-.672 1.009-1.004 1.205-1.183 2.343-2.303 3.09-3.717l2.026 1.065c-.906 1.734-2.227 3.034-3.508 4.288-.332.322-.654.641-.972.968-.958.984-1.99 1.885-2.984 2.754-.523.458-1.049.916-1.558 1.384-.302.274-.601.561-.898.843-1.277 1.219-2.594 2.478-4.309 3.271z" fill="#757f3f"/><path d="M48.474 99.638l-.621-.392.523-1.109-.533-.825a21.497 21.497 0 0 0 2.191-1.644c.335-.285.68-.556 1.034-.828.559-.44 1.129-.881 1.631-1.389.838-.855 1.711-1.677 2.562-2.491l1.137-1.084c.835-.806 1.779-1.8 2.72-2.877l.295-.327c.341-.382.677-.752.958-1.162.153-.222.35-.432.57-.643.106-.108.272-.271.312-.34l2.097.919c-.196.455-.529.786-.801 1.052-.104.103-.212.201-.287.314-.336.488-.731.933-1.14 1.388l-.281.314a49.503 49.503 0 0 1-2.854 3.013l-1.146 1.094c-.838.797-1.686 1.604-2.514 2.442-.586.593-1.232 1.098-1.854 1.583-.322.254-.645.507-.958.768a23.6 23.6 0 0 1-2.428 1.824l-.613.4z" fill="#757f3f"/><path d="M74.238 62.149l-1.5-1.738c1.146-.983 1.935-2.327 2.773-3.747.21-.372.425-.739.65-1.101.371-.605.76-1.207 1.147-1.803.73-1.125 1.41-2.184 2.016-3.313.227-.414.461-.827.694-1.237.832-1.47 1.621-2.862 1.948-4.425l2.24.469c-.395 1.915-1.309 3.527-2.19 5.087-.229.396-.448.794-.669 1.194-.654 1.208-1.392 2.361-2.114 3.471-.38.583-.762 1.165-1.115 1.758-.216.348-.425.703-.631 1.059-.893 1.519-1.815 3.092-3.249 4.326z" fill="#757f3f"/><path d="M75.066 69.066l-.702-.208.192-1.21-.739-.643a21.754 21.754 0 0 0 1.657-2.183c.243-.368.503-.724.762-1.083.42-.577.848-1.158 1.192-1.78a98.444 98.444 0 0 1 1.782-3.102l.788-1.355a49.603 49.603 0 0 0 1.834-3.514l.191-.395c.225-.461.44-.909.602-1.383.081-.253.219-.512.367-.77.066-.134.192-.338.202-.416l2.28.305c-.068.492-.297.902-.48 1.231-.071.131-.152.256-.192.384-.198.562-.453 1.099-.717 1.648l-.184.379a51.874 51.874 0 0 1-1.918 3.682l-.802 1.367c-.587.999-1.178 2.004-1.742 3.037-.399.735-.883 1.394-1.344 2.034-.247.332-.488.664-.712 1.003a23.751 23.751 0 0 1-1.837 2.419l-.48.553z" fill="#757f3f"/><g><path d="M80.357 62.257c-1.509-1.039-2.656-2.355-3.037-3.968-.483-2.064.74-3.266 2.378-4.243 5.999-3.56 11.432-8.008 16.172-13.118 2.275-2.449 4.487-4.779 8.126-4.497 2.436.188 4.533 1.623 6.178 3.347 1.935 2.025 3.797 4.139 5.989 5.899 2.204 1.766 4.752 3.137 7.212 4.51 1.228.685 2.562.885 3.392 2.174.689 1.089.574 2.296-.367 3.19-3.253 3.106-8.45 1.992-12.061.321-.447-.209-.898-.419-1.406-.434-.859-.021-.878.49-.645 1.197.188.575.74.933 1.206 1.281 2.227 1.684-1.985 2.706-3.065 2.672-2.271-.074-4.484-.911-6.553-1.818-.327-.142-.78-.406-1.155-.268-1.283.466.748 2.092.936 2.605.559 1.552-1.183 1.992-2.348 2.095-2.357.205-4.336-.672-6.326-1.811-.631-.362-2.41-.984-2.159.354.448 2.411-.264 3.566-2.803 3.498-2.689-.07-6.815-1.033-9.664-2.986z" fill-rule="evenodd" clip-rule="evenodd" fill="#fff"/></g><g><path d="M88.614 49.528s8.48-7.174 10.446-8.907c1.971-1.734 3.364-2.319 4.748-2.203 1.384.116 3.508 1.479 5.977 3.495 2.481 2.024 4.507 3.929 4.507 3.929s-8.082-5.593-11.2-5.129c-3.118.462-5.491 2.662-7.686 4.279-2.196 1.618-6.792 4.536-6.792 4.536z" fill-rule="evenodd" clip-rule="evenodd" fill="#40c0e7"/><g><defs><path id="SVGID_5_" d="M80.357 62.257c-1.509-1.039-2.656-2.355-3.037-3.968-.483-2.064.74-3.266 2.378-4.243 5.999-3.56 11.432-8.008 16.172-13.118 2.275-2.449 4.487-4.779 8.126-4.497 2.436.188 4.533 1.623 6.178 3.347 1.935 2.025 3.797 4.139 5.989 5.899 2.204 1.766 4.752 3.137 7.212 4.51 1.228.685 2.562.885 3.392 2.174.689 1.089.574 2.296-.367 3.19-3.253 3.106-8.45 1.992-12.061.321-.447-.209-.898-.419-1.406-.434-.859-.021-.878.49-.645 1.197.188.575.74.933 1.206 1.281 2.227 1.684-1.985 2.706-3.065 2.672-2.271-.074-4.484-.911-6.553-1.818-.327-.142-.78-.406-1.155-.268-1.283.466.748 2.092.936 2.605.559 1.552-1.183 1.992-2.348 2.095-2.357.205-4.336-.672-6.326-1.811-.631-.362-2.41-.984-2.159.354.448 2.411-.264 3.566-2.803 3.498-2.689-.07-6.815-1.033-9.664-2.986z"/></defs><clipPath id="SVGID_6_"><use xlink:href="#SVGID_5_" overflow="visible"/></clipPath><path d="M104.651 45.996s.861-.86 1.863-.43c1.004.43 5.569 5.828 9.605 7.454 5.878 2.365 9.819 1.935 11.397-.144.314-.413-.788 5.018-.788 5.018l-7.742 1.004-5.446-3.226c-.001-.001-5.019-2.366-8.889-9.676z" clip-path="url(#SVGID_6_)" fill-rule="evenodd" clip-rule="evenodd" fill="#40c0e7"/><path d="M97.124 50.583s1.218-.86 2.275.479c.709.896 4.637 6.08 9.049 7.549 2.523.839 6.523.501 6.523.501l-2.983 2.807-8.485-3.021c.001-.001-5.231-4.947-6.379-8.315z" clip-path="url(#SVGID_6_)" fill-rule="evenodd" clip-rule="evenodd" fill="#40c0e7"/><path d="M88.237 55.314s1.228-.901 1.918-.209c.699.693 6.208 4.318 7.858 5.544 2.839 2.119 6.136.972 6.136.972s-.013 2.266-.474 2.378c-.462.114-7.046-.23-7.046-.23l-2.514-2.649s-3.656-2.223-5.878-5.806z" clip-path="url(#SVGID_6_)" fill-rule="evenodd" clip-rule="evenodd" fill="#40c0e7"/><path d="M80.339 53.371s-1.85 1.387-1.272 3.005c.579 1.616 4.288 4.429 7.624 6.467 3.984 2.433 6.493.856 6.493.856l-1.524 2.496-7.852-1.042-7.863-5.773.467-4.852 3.927-1.157z" clip-path="url(#SVGID_6_)" fill-rule="evenodd" clip-rule="evenodd" fill="#40c0e7"/></g></g></g></svg>