<svg id="图层_1" xmlns="http://www.w3.org/2000/svg" viewBox="0 0 128 128"><g><path d="M82.782 58.337H72.286c-.538 0-.985.48-.985 1.067v6.988c0 .584.448 1.067.985 1.067H88.41v4.363H72.286c-.538 0-.985.474-.985 1.059v6.996c0 .585.448 1.058.985 1.058H88.41v11.834c0 .737.553 1.332 1.24 1.332h12.564c.695 0 1.247-.595 1.247-1.332V80.934h15.99c.552 0 .993-.473.993-1.058V72.88c0-.585-.441-1.059-.993-1.059h-15.99v-4.363h15.99c.552 0 .993-.483.993-1.067v-6.988c0-.586-.441-1.067-.993-1.067h-10.362l13.759-22.062c.261-.41.29-.948.067-1.38-.224-.442-.643-.714-1.105-.714h-11.825a1.25 1.25 0 0 0-1.03.578l-13.02 20.104-13.019-20.103a1.25 1.25 0 0 0-1.03-.578H70.062c-.463 0-.896.272-1.105.714-.223.432-.194.97.06 1.38l13.765 22.062z" fill="#d7598b"/></g><g><path d="M53.346 62.439c-1.041-.824-2.282-1.612-3.599-2.37-3.152-1.807-6.877-3.421-10.432-4.797v-9.331c3.369 1.093 6.402 2.186 8.878 3.219a.913.913 0 0 0 1.109-.342l.445-.655 4.551-6.9.127-.728-.454-.58c-1.048-.565-2.513-1.242-4.224-1.948a79.522 79.522 0 0 0-10.432-3.457v-5.481a1.13 1.13 0 0 0-1.137-1.128h-9.086c-.624 0-1.13.505-1.13 1.128v4.098c-8.431.394-14.157 3.317-17.45 8.967-2.566 4.433-2.566 9.437.022 13.044 2.706 3.858 7.108 5.575 12.677 7.747l.737.282c1.286.499 2.646.997 4.014 1.501v11.348c-4.729-1.123-9.146-3.138-11.272-4.275a16.008 16.008 0 0 1-1.205-.684.915.915 0 0 0-1.235.199l-.371.485-4.297 5.599-.097.11-1.287 1.687-.178.683.357.611c1.219.9 2.661 1.769 4.186 2.617.083.037.134.073.217.112 3.011 1.651 6.424 3.136 9.844 4.187 1.241.385 3.108.891 5.339 1.323v4.261c0 .623.506 1.13 1.13 1.13h9.086c.632 0 1.137-.507 1.137-1.13v-3.548c1.45-.12 2.834-.327 4.135-.624 4.2-.967 7.673-2.855 10.349-5.599a.59.59 0 0 0 .112-.112 16.68 16.68 0 0 0 1.538-1.785c.513-.669.988-1.368 1.405-2.119.327-.566.565-1.129.803-1.695.787-1.912 1.085-3.83.937-5.711-.216-2.521-1.257-4.968-3.145-7.199a17.847 17.847 0 0 0-2.104-2.14zM27.962 44.348v6.849c-2.536-.818-4.156-1.651-3.992-3.635.17-2.054 2.134-2.88 3.992-3.214zm11.354 24.606c1.881.838 3.331 1.723 3.86 2.825 0 .013.014.022.014.03.298.639.268 1.368-.067 2.238-.572 1.518-2.09 2.313-3.807 2.715v-7.808z" fill="#bdcf46"/></g><g><g><g><g><path fill="#40c0e7" d="M89.265 12.063l-4.699 5.784-8.022 9.871 25.498.067-5.285-24.942z"/></g></g><g><path d="M35.018 22.65l-5.869-6.645C45.865 1.244 61.73 1.21 72.095 3.782c11.162 2.769 18.342 9.061 18.642 9.328l-5.874 6.64c-.955-.836-23.682-20.202-49.845 2.9z" fill="#40c0e7"/></g></g><g><g><g><path fill="#40c0e7" d="M38.602 115.937l4.7-5.784 8.021-9.871-25.498-.067 5.285 24.942z"/></g></g><g><path d="M66.196 125.503c-3.871 0-7.383-.531-10.425-1.284-11.162-2.77-18.342-9.062-18.642-9.329l5.874-6.639c.955.836 23.683 20.201 49.845-2.901l5.869 6.645c-11.81 10.431-23.199 13.508-32.521 13.508z" fill="#40c0e7"/></g></g></g></svg>