<svg id="レイヤー_1" xmlns="http://www.w3.org/2000/svg" viewBox="0 0 128 128"><g><path d="M98.437 71.519c-1.445 4.382-10.483 32.959-11.125 34.74-.771 2.127-1.846 4.101-3.667 5.027-3.084 1.566-7.921-.112-10.913-1.29-4.271-1.684-8.605-3.267-12.91-4.864-10.463-3.88-20.88-7.878-31.319-11.809-3.954-1.487-8.737-2.696-12.134-5.246-3.305-2.473-.987-7.263.196-10.384.967-2.555 2.028-5.071 3.05-7.601 2.342-5.817 4.688-11.634 7.034-17.449.708-1.752 1.271-3.723 2.179-5.375.309-.557.688-.899 1.113-1.09 1.417-.634 3.363.369 4.846.831 1.955.606 3.904 1.215 5.854 1.821l15.688 4.882 17.609 5.48c5.163 1.605 10.322 3.212 15.484 4.818l5.612 1.746c.967.302 2.026.525 2.963.923 1.832.777.865 3.56.44 4.84z" fill="#fff"/><g><path d="M123.802 29.81c-.921-1.533-1.971-4.167-3.563-5.107-3.008-1.775-6.3-2.671-9.621-3.617a2762.9 2762.9 0 0 0-12.614-3.568c-8.991-2.521-18.009-4.978-27.063-7.27-9.025-2.283-18.097-3.93-27.214-5.709-4.625-.903-8.267-1.041-10.905 3.138-3.184 5.047-5.029 11.157-7.2 16.851-2.35 6.161-4.888 12.266-7.359 18.385-3.209 7.952-6.413 15.907-9.617 23.861-1.396 3.461-2.851 6.9-4.171 10.393C2.856 81.44-.31 87.986 4.203 91.368c4.654 3.487 11.188 5.14 16.593 7.176 14.271 5.377 28.526 10.84 42.828 16.146 5.887 2.186 11.813 4.351 17.655 6.652 4.088 1.61 10.709 3.909 14.922 1.765 2.487-1.269 3.958-3.967 5.004-6.875.888-2.438 13.247-41.516 15.226-47.506 2.005-6.064 3.871-12.176 5.784-18.27 1.025-3.265 1.862-6.586 2.742-9.891.246-.892.659-1.896.917-2.868.116-.421.203-.836.232-1.233.175-2.414-1.1-4.658-2.304-6.654zM98.437 71.519c-1.445 4.382-10.483 32.959-11.125 34.74-.771 2.127-1.846 4.101-3.667 5.027-3.084 1.566-7.921-.112-10.913-1.29-4.271-1.684-8.605-3.267-12.91-4.864-10.463-3.88-20.88-7.878-31.319-11.809-3.954-1.487-8.737-2.696-12.134-5.246-3.305-2.473-.987-7.263.196-10.384.967-2.555 2.028-5.071 3.05-7.601 2.342-5.817 4.688-11.634 7.034-17.449.708-1.752 1.271-3.723 2.179-5.375.309-.557.688-.899 1.113-1.09 1.417-.634 3.363.369 4.846.831 1.955.606 3.904 1.215 5.854 1.821l15.688 4.882 17.609 5.48c5.163 1.605 10.322 3.212 15.484 4.818l5.612 1.746c.967.302 2.026.525 2.963.923 1.832.777.865 3.56.44 4.84z" fill="#006ca2"/></g><path d="M103.122 24.032c-.33-.333-.775-.579-1.259-.779-9.192-3.802-18.935-5.321-28.364-8.257-2.917-.908-5.896-1.669-8.922-2.096-1.783-.25-6.117-1.362-7.675-.448-1.792 1.049-2.313 3.821-3.051 5.626-1.925 4.717-3.587 9.448-5.208 14.272-.759 2.248-1.805 4.457-2.4 6.746-.438 1.678.35 2.096 1.654 2.536.2.066.413.133.638.206 2.396.779 4.783 1.577 7.192 2.307l.254.072 12.813 4.113c.192.062.409.129.617.193 7.713 2.428 20.61 5.617 20.61 5.617 1 .279 2.082.478 2.941-.057 1.317-.812 1.851-3.416 2.313-4.743 1.592-4.54 3.45-8.979 5.138-13.484.708-1.886 1.208-3.859 1.913-5.753.246-.658.684-1.533 1.012-2.443.475-1.31.721-2.696-.216-3.628zm-5.152 3.667c-.341 1.342-.837 2.636-1.303 3.936-1.833 5.101-3.622 10.218-5.576 15.27-.188.479-.288 1.007-.541 1.459-.455.811-.742 1.473-1.772 1.561-.741.064-1.495-.206-2.195-.392-1.438-.377-2.876-.761-4.296-1.215-1.146-.371-2.675-.862-3.942-1.267l-.079-.023c-1.204-.364-2.508-.637-2.608-2.14-.038-.581.325-1.195.504-1.733a519.907 519.907 0 0 1 6.572-18.349c.142-.373.3-.738.459-1.103.087-.202.183-.434.317-.625.033-.046.053-.104.095-.143.696-.64 2.017-.323 2.805-.134 1.195.288 2.358.692 3.554.954 1.392.305 2.772.665 4.143 1.04.683.189 1.371.381 2.05.571.358.1.701.197 1.046.312.204.066.438.083.612.214l.242.279c.042.079.058.169.075.259.08.409-.061.888-.162 1.269z" fill="#78a3ad"/></g></svg>