<svg id="レイヤー_1" xmlns="http://www.w3.org/2000/svg" viewBox="0 0 128 128"><g><g><path d="M48.179 74.216c.58-.622 1.173-1.22 1.81-1.768 1.847-1.599 6.671-5.33 9.331-3.853 1.572.87 1.394 3.881.842 5.144-1.379 3.113-4.975 5.773-7.152 8.373-1.721 2.067-3.797 3.923-5.667 5.854-3.015 3.104-5.886 6.588-9.145 9.43l-26.074 22.722-2.094-2.02 21.907-26.78c4.12-4.254 8.244-8.509 12.366-12.763 1.328-1.37 2.562-2.918 3.876-4.339z" fill="#78a3ad"/></g><g><path d="M117.972 50.054c0 23.288-18.874 42.167-42.167 42.167s-42.171-18.88-42.171-42.167c0-23.292 18.879-42.172 42.171-42.172s42.167 18.879 42.167 42.172z" fill="#fcc21b"/></g><g fill="#fff"><path d="M73.589 32.096c0 6.69-5.423 12.114-12.119 12.114-6.685 0-12.108-5.424-12.108-12.114s5.423-12.114 12.108-12.114c6.696 0 12.119 5.423 12.119 12.114z"/><path d="M104.305 44.135c-2.491 1.753-2.609 6.115-3.329 8.864-4.151 15.831-18.103 27.86-34.747 27.86-2.468 0-3.824.921-1.239 2.347 3.016 1.655 7.477 1.842 10.814 1.842 2.95 0 5.9-.369 8.757-1.108 8.589-2.211 16.133-7.752 20.866-15.246a34.933 34.933 0 0 0 4.816-12.408c.412-2.268.328-4.32.318-6.574-.019-2.132-.131-4.731-2.057-6.078-1.215-.846-3.076-.285-4.199.501z"/></g></g></svg>