<svg xmlns="http://www.w3.org/2000/svg" viewBox="0 0 128 128"><g id="图层_1"><g><g><path d="M100.059 24.283C87.913 12.02 78.108 11.479 78.107 11.479H20.82a3.065 3.065 0 0 0-3.064 3.063v108.417a3.065 3.065 0 0 0 3.064 3.065h89.3a3.065 3.065 0 0 0 3.064-3.065V42.705s0-5.172-13.125-18.422z" fill="#b0bec5"/><path d="M14.816 120.019V5.039a3.064 3.064 0 0 1 3.064-3.063h89.3a3.065 3.065 0 0 1 3.064 3.063v114.979a3.065 3.065 0 0 1-3.064 3.065h-89.3a3.064 3.064 0 0 1-3.064-3.064z" fill="#e0e0e0"/><g><g fill="none" stroke="#616161" stroke-width="5" stroke-linecap="round" stroke-linejoin="round" stroke-miterlimit="10"><path d="M28.233 36.03h68.333"/><path d="M28.233 51.288h68.333"/><path d="M28.233 66.545h68.333"/><path d="M28.233 81.803h68.333"/><path d="M28.233 97.061h29.225"/></g></g></g><g><path d="M110.244 33.202l-2.006-4.42L83.78 4.927l-8.614-2.951h31.956c1.74 0 3.122 1.348 3.122 3.121v28.105z" fill="#fff"/><g><path d="M75.166 1.976c5.043 1.886 8.306 9.512 8.974 20.793.109 1.84 1.607 3.294 3.449 3.377 8.967.401 19.994 1.713 22.656 7.057 0 0 0-5.173-13.125-18.423C84.971 2.516 75.166 1.976 75.166 1.976z" fill="#b0bec5"/></g></g></g></g></svg>