<svg xmlns="http://www.w3.org/2000/svg" viewBox="0 0 128 128"><g id="图层_1"><path d="M88.287 29.569a.54.54 0 0 1-.081 0H36.663a3.12 3.12 0 0 1-1.795-5.67L60.639 5.733a3.101 3.101 0 0 1 3.592 0l25.381 17.886a3.124 3.124 0 0 1-1.325 5.95zM46.51 23.327h31.85L62.435 12.102 46.51 23.327z" fill="#616161"/><path d="M124.846 115.974H7.725c-1.722 0-6.866-4.444-6.866-6.167l3.746-79.504a3.122 3.122 0 0 1 3.12-3.121l115.194-3.175c1.724 0 5.048 4.573 5.048 6.296v82.55a3.12 3.12 0 0 1-3.121 3.121z" fill="#78909c"/><path d="M120.99 112.118H3.87a3.122 3.122 0 0 1-3.12-3.121v-82.55a3.122 3.122 0 0 1 3.12-3.121h117.12a3.122 3.122 0 0 1 3.122 3.121v82.55a3.122 3.122 0 0 1-3.122 3.121z" fill="#e0e0e0"/><g><path fill="#ed6c30" d="M17.183 49.765h8.582v3.212h-8.582z"/><path fill="#2f2f2f" d="M30.836 49.765h8.582v3.212h-8.582z"/><path fill="#2f2f2f" d="M44.49 49.765h8.583v3.212H44.49z"/><path fill="#2f2f2f" d="M58.144 49.765h8.582v3.212h-8.582z"/><path fill="#2f2f2f" d="M63.564 36.227v1.198h-2.267v-1.198h-3.153v8.349h3.153V43.47h2.267v1.106h3.162v-8.349z"/><path fill="#2f2f2f" d="M71.797 49.765h8.583v3.212h-8.583z"/><path fill="#2f2f2f" d="M85.451 49.765h8.582v3.212h-8.582z"/><path fill="#006ca2" d="M99.105 49.765h8.582v3.212h-8.582z"/></g><g><g><path fill="#2f2f2f" d="M73.943 60.224h4.291v4.161h-4.291z"/><path fill="#2f2f2f" d="M87.597 60.224h4.291v4.161h-4.291z"/><path fill="#006ca2" d="M101.25 60.224h4.29v4.161h-4.29z"/></g><g><path fill="#ed6c30" d="M19.328 70.558h4.291v4.161h-4.291z"/><path fill="#2f2f2f" d="M32.982 70.558h4.291v4.161h-4.291z"/><path fill="#2f2f2f" d="M46.636 70.558h4.291v4.161h-4.291z"/><path fill="#2f2f2f" d="M60.289 70.558h4.291v4.161h-4.291z"/><path fill="#2f2f2f" d="M73.943 70.558h4.291v4.161h-4.291z"/><path fill="#2f2f2f" d="M87.597 70.558h4.291v4.161h-4.291z"/><path fill="#006ca2" d="M101.25 70.558h4.29v4.161h-4.29z"/></g><g><path fill="#ed6c30" d="M19.328 80.892h4.291v4.161h-4.291z"/><path fill="#2f2f2f" d="M32.982 80.892h4.291v4.161h-4.291z"/><path fill="#2f2f2f" d="M46.636 80.892h4.291v4.161h-4.291z"/><path fill="#2f2f2f" d="M60.289 80.892h4.291v4.161h-4.291z"/><path fill="#2f2f2f" d="M73.943 80.892h4.291v4.161h-4.291z"/><path fill="#2f2f2f" d="M87.597 80.892h4.291v4.161h-4.291z"/><path fill="#006ca2" d="M101.25 80.892h4.29v4.161h-4.29z"/></g><g><path fill="#ed6c30" d="M19.328 91.228h4.291v4.161h-4.291z"/><path fill="#2f2f2f" d="M32.982 91.228h4.291v4.161h-4.291z"/><path fill="#2f2f2f" d="M46.636 91.228h4.291v4.161h-4.291z"/><path fill="#2f2f2f" d="M60.289 91.228h4.291v4.161h-4.291z"/></g></g><path d="M124.112 80.892L110.411 98.02 92.78 112.118h28.21c1.74 0 3.122-1.348 3.122-3.121V80.892z" fill="#b0bec5"/><g><g/><g/></g><g><g><path d="M92.78 112.118c.89-4.859 1.2-10.533.397-17.766-.183-1.65 1.049-3.118 2.708-3.198 3.843-.186 10.449-.673 15.127-1.918 6.702-1.78 13.1-8.344 13.1-8.344s-3.899 10.371-14.177 20.293c-7.244 6.983-17.155 10.933-17.155 10.933z" fill="#78a3ad"/></g></g></g></svg>