<svg id="レイヤー_1" xmlns="http://www.w3.org/2000/svg" xmlns:xlink="http://www.w3.org/1999/xlink" viewBox="0 0 128 128"><g><g><defs><path id="SVGID_1_" d="M121.082 114.884L98.224 95.741l-12.13-26.097a3.856 3.856 0 0 0-3.384-2.229c-.039-.002-.077-.002-.116-.002a3.859 3.859 0 0 0-3.394 2.028L66.98 92.146 38.425 19.315a3.878 3.878 0 0 0-2.558-2.31 3.872 3.872 0 0 0-3.385.656L21.83 25.834 5.572 9.655a3.83 3.83 0 0 0-2.717-1.124v9.301l15.922 15.852a3.855 3.855 0 0 0 5.068.327l9.266-7.107 29.728 75.812a3.86 3.86 0 0 0 3.359 2.443c1.589.099 2.918-.7 3.629-2.022L82.343 79.88l9.249 19.896c.236.513.585.967 1.016 1.33l23.519 19.695a3.857 3.857 0 0 0 5.434-.482 3.858 3.858 0 0 0-.479-5.435z"/></defs><use xlink:href="#SVGID_1_" overflow="visible" fill="#006ca2"/><clipPath id="SVGID_2_"><use xlink:href="#SVGID_1_" overflow="visible"/></clipPath></g><path d="M122.629 128H2.759A2.76 2.76 0 0 1 0 125.244V6.181a2.76 2.76 0 0 1 2.759-2.756A2.753 2.753 0 0 1 5.51 6.181v116.308h117.119a2.758 2.758 0 0 1 2.76 2.756 2.758 2.758 0 0 1-2.76 2.755z" fill="#2f2f2f"/></g></svg>