<svg id="レイヤー_1" xmlns="http://www.w3.org/2000/svg" viewBox="0 0 128 128"><g><path d="M37.827 126.527h-.011c-8.106 0-15.718-3.155-21.438-8.883-5.731-5.73-8.898-13.345-8.898-21.451 0-8.103 3.158-15.714 8.888-21.445L83.863 7.254C88 3.102 93.398 1.065 99.067 1.541c5.227.426 10.402 2.96 14.569 7.121 8.59 8.604 9.232 21.964 1.413 29.781l-56.651 56.65c-4.752 4.758-12.147 4.278-17.605-1.153-5.165-5.175-5.685-13.078-1.16-17.615l46.339-46.332 6.175 6.175-46.329 46.33c-.974.972-.687 3.428 1.149 5.269.53.527 3.31 3.113 5.251 1.151l56.655-56.648c4.409-4.417 3.779-12.236-1.411-17.437-2.704-2.702-5.933-4.331-9.101-4.588-3.093-.269-5.994.848-8.323 3.184l-67.497 67.49c-4.086 4.077-6.325 9.507-6.325 15.273 0 5.771 2.25 11.193 6.335 15.277 4.077 4.075 9.494 6.325 15.264 6.325 5.782 0 11.21-2.242 15.281-6.325l58.421-58.414 6.174 6.175-58.426 58.413c-5.729 5.729-13.336 8.884-21.438 8.884z" fill="#006ca2"/></g></svg>