<svg id="レイヤー_1" xmlns="http://www.w3.org/2000/svg" viewBox="0 0 128 128"><g><path d="M105.52 27.07c-3.217-2.784-10.306-6.376-17.283-9.819-.692-.342-1.303-.645-1.793-.886-1.582-.798-3.246-1.202-4.949-1.202-3.299 0-6.467 1.558-9.031 4.367l-.38-.246a971.339 971.339 0 0 1-6.146-3.837C62.562 13.33 51.333 6.112 48.957 4.578c-2.634-1.707-5.751-3.52-9.309-3.52-2.761 0-5.252 1.082-7.209 3.135-1.342 1.414-2.102 3.069-2.563 4.703-1.63-.64-3.145-.972-4.597-.972-2.655 0-5.021 1.068-6.666 3.006-2.832 3.332-2.346 7.829-2.125 9.127l9.186 56.948c.009.053.033.105.043.158.034.154.077.303.129.457.086.327.193.649.337.956.067.159.154.313.24.467.164.293.351.568.568.832.101.125.192.255.302.37a6.3 6.3 0 0 0 1.14.962l69.994 44.762a6.24 6.24 0 0 0 3.324.971c.543 0 1.086-.096 1.62-.24.164-.048.322-.12.486-.183.235-.087.48-.145.707-.26.12-.062.216-.159.327-.231.087-.052.197-.076.289-.134.11-.077.187-.188.293-.27.27-.207.52-.433.745-.683.164-.167.313-.34.457-.528a8.08 8.08 0 0 0 .51-.851c.105-.202.212-.405.293-.621.121-.312.188-.645.254-.976.049-.221.106-.442.121-.669.009-.067.043-.13.043-.197.38-7.579 3.755-74.096 3.79-77.231.066-5.905-.646-12.026-6.166-16.796z" fill="#006ca2"/><path d="M27.259 48.195l-4.703-29.147s-.827-4.967 2.722-4.967c.909 0 2.149.36 3.751 1.202.653.346 1.355.755 2.144 1.284.25.164.534.356.827.543.832.553 1.818 1.198 2.943 1.924C49.158 28.228 84.08 49.936 84.08 49.936s6.57 4.924 7.474 12.354c1.14 9.32 10.195 58.496 10.195 58.496L31.75 76.024l-2.246-13.916-2.245-13.913z" fill="#40c0e7"/><path d="M97.672 61.544c-1.193-9.757-9.017-15.87-9.901-16.532l-.443-.303c-.418-.255-40.491-25.185-51.84-32.667.207-1.38.582-2.726 1.418-3.611.827-.866 1.741-1.217 2.742-1.217 1.779 0 3.809 1.14 5.973 2.535 2.625 1.697 13.725 8.829 17.047 10.911 2.048 1.289 4.112 2.573 6.161 3.852 1.25.774 3.005 2.535 4.635 2.535.741 0 1.453-.371 2.073-1.39 1.322-2.179 3.434-4.337 5.958-4.337.702 0 1.438.168 2.193.548 3.746 1.875 14.475 6.973 17.812 9.859 3.477 3.01 4.082 6.832 4.029 12.075-.019 1.842-1.342 28.536-2.429 49.984-2.374-13.337-4.88-27.73-5.428-32.242z" fill="#40c0e7"/></g></svg>