<svg id="レイヤー_1" xmlns="http://www.w3.org/2000/svg" xmlns:xlink="http://www.w3.org/1999/xlink" viewBox="0 0 128 128"><g><g><g><defs><path id="SVGID_1_" d="M39.946 98.794c-2.697-.825-5.502-1.339-8.352-1.326-1.741.004-3.613-.192-5.337.013-.454.048-1.025.14-1.435.319l-.167.091c-.497.07-.982.188-1.404.423-1.379.777-1.257 2.134-1.427 3.316-.132.921-.206 1.71-.227 2.653-.052 2.212-.113 4.442-.013 6.751.104 2.522.104 5.074.14 7.662.035 3.011-1.004 7.112 3.888 7.54.315.031.663.048 1.017.057.467.192 1.248.057 1.72.148.895.175 1.802.166 2.714.166 1.296 0 2.601.065 3.883-.113.899-.127 1.807-.014 2.697-.214 3.813-.864 7.034-3.203 8.937-6.375 3.055-5.08 2.758-12.201-.715-17.035-1.411-1.959-3.519-3.339-5.919-4.076zm-1.055 16.778c-.633 1.431-1.698 2.483-2.959 2.871-.724.218-1.553.148-2.287.153-.449.004-.847.013-1.248-.249-.554-.349-.837-.681-.851-1.458-.013-.986-.083-1.968-.083-2.95 0-1.863.083-3.713.083-5.568 0-.689-.122-1.619.065-2.269l.057-.162c.388-.89 1.584-.476 2.256-.476.93-.009 1.872.227 2.767.598.794.332 1.492.952 1.959 1.833 1.157 2.184 1.248 5.391.241 7.677zm62.324-16.778c-2.697-.825-5.503-1.339-8.352-1.326-1.733.004-3.609-.192-5.337.013-.453.048-1.025.14-1.436.319l-.166.091c-.498.07-.982.188-1.405.423-1.378.777-1.256 2.134-1.427 3.316-.126.921-.205 1.71-.227 2.653-.052 2.212-.109 4.442-.008 6.751.1 2.522.1 5.074.135 7.662.035 3.011-1.004 7.112 3.888 7.54.319.031.663.048 1.021.057.463.192 1.249.057 1.72.148.89.175 1.797.166 2.709.166 1.296 0 2.605.065 3.888-.113.899-.127 1.802-.014 2.697-.214 3.813-.864 7.034-3.203 8.936-6.375 3.05-5.08 2.758-12.201-.715-17.035-1.414-1.959-3.521-3.339-5.921-4.076zm-1.056 16.778c-.633 1.431-1.697 2.483-2.959 2.871-.719.218-1.549.148-2.282.153-.445.004-.846.013-1.253-.249-.554-.349-.833-.681-.851-1.458-.013-.986-.079-1.968-.079-2.95 0-1.863.079-3.713.079-5.568 0-.689-.118-1.619.065-2.269l.057-.162c.393-.89 1.589-.476 2.256-.476.934-.009 1.872.227 2.771.598.79.332 1.493.952 1.959 1.833 1.153 2.184 1.253 5.391.237 7.677zm-23.066-15.259c.293.366.49.794.506 1.278.03.785-.148 1.57-.297 2.343-.375 1.994-1.052 3.914-1.593 5.869-.82 2.897-1.57 5.812-2.522 8.675-.079.232-.161.463-.236.698-1.404 3.949-3.931 9.163-10.66 7.418-2.893-.754-3.692-3.224-4.63-5.192a20.53 20.53 0 0 1-.952-2.387c-1.457-4.359-2.976-8.919-4.093-13.378-.201-.812-.541-1.645-.711-2.487-.149-.79-.262-1.632-.065-2.422.271-1.073 1.178-1.597 2.208-1.811 1.287-.27 2.631-.502 3.953-.323 2.256.306 2.684 2.915 3.16 4.691.742 2.801 1.186 5.681 2.054 8.448.184.584.297 1.209.616 1.737.375.615 1.126.702 1.588.083.188-.244.24-.611.319-.899.153-.55.292-1.104.423-1.658.266-1.112.497-2.234.759-3.342.31-1.344.594-2.731 1.026-4.045.27-.825.475-1.702.763-2.518.31-.886.921-1.811 1.824-2.226.977-.45 2.063-.118 3.09-.118.654.004 1.352.214 1.95.467.569.243 1.132.614 1.52 1.099z"/></defs><use xlink:href="#SVGID_1_" overflow="visible" fill="#006ca2"/><clipPath id="SVGID_2_"><use xlink:href="#SVGID_1_" overflow="visible"/></clipPath></g></g><g><g><g><path d="M110.317 45.445c0 22.11-20.735 40.04-46.328 40.04-25.575 0-46.306-17.93-46.306-40.04s20.732-40.04 46.306-40.04c25.592 0 46.328 17.93 46.328 40.04z" fill="#fcc21b"/></g><g fill="#fff"><path d="M62.986 45.445l52.148-4.486v12.698z"/><path d="M86.967 9.442L63.989 45.445l46.328-12-7.767-16.586z"/></g><g><path fill="#fff" d="M63.038 45.69l48.619-16.926 1.632 23.087z"/><path fill="#fff" d="M65.001 45.306L19.394 67.634 14.25 44.935z"/><path fill="#fff" d="M43.711 82.636l20.278-37.191-45.346 14.522 8.976 16.123z"/><g><path fill="#fff" d="M65.106 44.437L18.848 65.74l8.156 10.564z"/><path fill="#fcc21b" d="M64.962 46.213L18.006 66.33l-5.188-11.887z"/><path fill="#fff" d="M63.404 45.053L33.287 82.138l-11.126-8.286z"/></g><g><path fill="#fff" d="M60.315 46.907l48.807-16.516-6.681-11.31z"/><path fill="#fcc21b" d="M60.695 45.162l49.344-15.268 3.555 12.322z"/><path fill="#fff" d="M62.095 46.471l34.883-33.818 9.94 9.347z"/></g></g></g><path d="M63.989 5.405c25.592 0 46.328 17.93 46.328 40.04s-20.735 40.04-46.328 40.04c-25.575 0-46.306-17.93-46.306-40.04s20.732-40.04 46.306-40.04m0-4.346c-29.498 0-53.501 20.753-53.501 46.258 0 25.505 24.004 46.258 53.501 46.258 29.515 0 53.523-20.753 53.523-46.258.001-25.505-24.008-46.258-53.523-46.258z" fill="#fcc21b"/><g><g><path d="M75.766 43.955c0 5.62-5.275 10.174-11.777 10.174-6.498 0-11.773-4.554-11.773-10.174 0-5.623 5.275-10.183 11.773-10.183 6.502 0 11.777 4.561 11.777 10.183z" fill="#fff"/></g><path d="M63.989 33.772c6.501 0 11.777 4.56 11.777 10.183 0 5.62-5.275 10.174-11.777 10.174-6.498 0-11.773-4.554-11.773-10.174 0-5.622 5.276-10.183 11.773-10.183m0-3.187c-9.133 0-16.564 6.423-16.564 14.324 0 7.896 7.431 14.321 16.564 14.321 9.137 0 16.573-6.425 16.573-14.321 0-7.901-7.436-14.324-16.573-14.324z" fill="#fcc21b"/><g><ellipse cx="63.991" cy="43.955" rx="5.531" ry="4.78" fill="#fcc21b"/></g></g></g></g></svg>