<svg id="レイヤー_1" xmlns="http://www.w3.org/2000/svg" xmlns:xlink="http://www.w3.org/1999/xlink" viewBox="0 0 128 128"><g><g><g><g><defs><path id="SVGID_1_" d="M37.399 13.078a3.131 3.131 0 0 0-3.121-3.126H22.653a3.132 3.132 0 0 0-3.122 3.126v112.167h17.868V13.078z"/></defs><use xlink:href="#SVGID_1_" overflow="visible" fill="#ed6c30"/><clipPath id="SVGID_2_"><use xlink:href="#SVGID_1_" overflow="visible"/></clipPath></g><g><defs><path id="SVGID_3_" d="M73.091 50.555a3.131 3.131 0 0 0-3.122-3.125H58.348a3.131 3.131 0 0 0-3.126 3.125v74.689h17.869V50.555z"/></defs><use xlink:href="#SVGID_3_" overflow="visible" fill="#006ca2"/><clipPath id="SVGID_4_"><use xlink:href="#SVGID_3_" overflow="visible"/></clipPath></g><g><defs><path id="SVGID_5_" d="M108.786 30.714a3.136 3.136 0 0 0-3.126-3.126H94.034a3.135 3.135 0 0 0-3.121 3.126v94.53h17.874v-94.53z"/></defs><use xlink:href="#SVGID_5_" overflow="visible" fill="#fcc21b"/><clipPath id="SVGID_6_"><use xlink:href="#SVGID_5_" overflow="visible"/></clipPath></g></g><path d="M122.633 128H2.76A2.755 2.755 0 0 1 0 125.244V6.18a2.755 2.755 0 1 1 5.511 0v116.309h117.122a2.757 2.757 0 0 1 2.756 2.756 2.758 2.758 0 0 1-2.756 2.755z" fill="#2f2f2f"/></g></g></svg>