<svg id="レイヤー_1" xmlns="http://www.w3.org/2000/svg" viewBox="0 0 128 128"><g><g><g><path d="M97.385 85.784c10.856-13.893 27.027-38.637 27.027-38.637s3.327-4.269 2.79-6.853c-.682-3.226-4.604-5.015-6.91-6.913-1.22-1.006-2.452-1.855-3.737-2.748a2662.498 2662.498 0 0 0-8.469-5.836c-5.969-4.099-11.913-8.115-17.873-11.99-5.883-3.827-11.912-7.2-17.895-10.649-3.008-1.737-5.534-2.72-8.542-.584-3.655 2.599-6.707 6.277-9.892 9.625-3.486 3.666-21.264 22.661-25.07 26.521a15984.205 15984.205 0 0 0-15.243 15.458c-2.271 2.301-4.595 4.582-6.844 6.96C3.943 63.067-.879 67.4 1.279 71.453c2.246 4.226 6.645 7.523 10.063 10.829 9.142 8.857 18.428 17.961 28.005 27.13 4 3.831 8.065 7.689 12.06 11.675 2.81 2.814 7.512 7.113 11.714 6.495 2.464-.366 6.357-4.73 6.357-4.73s17.046-23.175 27.907-37.068z" fill="#855c52"/><path d="M89.248 77.865c6.34-8.527 12.576-17.14 18.455-25.99 1.292-1.942 4.852-5.993 4.766-8.486-.047-1.373-2.163-2.325-3.077-3.118-1.689-1.465-3.871-2.638-5.741-3.931a1386.343 1386.343 0 0 0-6.37-4.392c-5.275-3.625-10.628-7.146-15.942-10.719a504.957 504.957 0 0 1-8.167-5.581c-1.651-1.155-4.189-3.775-6.279-3.922-.475-.034-.375-.108-.888.19-1.569.909-3.018 2.664-4.237 4.004-1.758 1.931-3.473 3.9-5.274 5.796-2.63 2.756-16.007 17.054-18.878 19.959-3.762 3.814-7.705 7.443-11.498 11.233-3.5 3.502-6.474 7.372-9.783 11.018-1.388 1.521-.979 2.217.082 3.691 2.68 3.735 7.253 6.51 10.787 9.458 6.84 5.706 13.257 11.757 19.558 18.045 4.689 4.672 10.029 8.609 14.964 13.003.745.662 1.414 1.453 2.543 1.103.396-.121.754-.556 1.034-.818 4.633-4.314 8.357-9.846 12.154-14.874 3.935-5.213 7.887-10.424 11.791-15.669z" fill="#fff"/><path d="M112.702 15.597c-.242-.884-.65-1.746-1.207-2.578-1.465-2.211-3.526-3.876-5.603-5.482-3.034-2.344-7.094-4.31-10.946-4.457-1.957-.073-3.414 1.105-4.698 2.427-.578.586-1.078 1.153-1.965 1.121-.828-.035-1.586-.509-2.393-.643-2.434-.401-4.491 1.225-6.021 2.909-1.671 1.825-3.31 3.786-4.753 5.771-1.03 1.414-1.969 2.937-2.53 4.605-.883 2.633-.56 5.079 1.599 6.889 2.254 1.886 4.228 4.135 6.504 5.993 3.11 2.532 6.667 4.398 10.032 6.557 4.784 3.069 8.663 4.265 13.283.116.168-.153.332-.31.504-.47 1.931-1.857 3.643-3.999 4.901-6.37.353-.669.529-1.397.779-2.104.177-.496.525-.957.681-1.44.401-1.241.048-3.006.039-4.301-.018-1.474.936-2.489 1.466-3.79.665-1.633.742-3.227.328-4.753z" fill="#78a3ad"/><path d="M114.625 14.96a9.934 9.934 0 0 0-1.32-2.823c-1.611-2.418-3.87-4.245-6.146-6.004-3.323-2.566-7.766-4.719-11.98-4.878-2.146-.082-3.741 1.209-5.155 2.657-.624.64-1.176 1.26-2.15 1.226-.9-.037-1.732-.556-2.624-.703-2.655-.44-4.905 1.34-6.591 3.185-1.822 2-3.615 4.147-5.201 6.32-1.129 1.55-2.155 3.218-2.767 5.045-.974 2.883-.616 5.564 1.75 7.544 2.464 2.066 4.628 4.53 7.115 6.564 3.41 2.773 7.314 4.818 10.995 7.18 5.241 3.362 9.485 4.672 14.541.132a39 39 0 0 0 .561-.517c2.111-2.034 3.986-4.381 5.365-6.978.388-.728.582-1.529.854-2.303.194-.543.569-1.046.746-1.575.439-1.36.052-3.293.038-4.711-.013-1.611 1.03-2.726 1.604-4.15.736-1.794.817-3.54.365-5.211zm-17.3-8.724c2.215.453 4.283 1.53 6.171 2.744 2.055 1.32 6.632 4.657 3.602 7.402-1.301 1.177-1.853-.321-2.792-1.043a267.816 267.816 0 0 0-5.732-4.271c-.918-.666-5.012-2.271-4.719-3.685.25-1.255 1.651-1.518 3.47-1.147zm3.336 29.703c-2.664 1.72-5.159.629-7.75-.968-2.465-1.523-5.085-2.799-7.434-4.506-2.827-2.049-5.65-4.411-8.345-6.641-2.814-2.328-.107-7.135 1.729-9.159 1.108-1.224 2.797-2.991 4.275-3.758 2.155-1.123 4.268.292 6.236 1.305 4.822 2.472 9.456 5.372 13.571 8.917 1.401 1.207 4.12 3.409 3.789 5.551-.116.767-.621 1.829-.914 2.54-1.013 2.45-2.736 5.012-4.917 6.558-.081.058-.164.11-.24.161z" fill="#2f2f2f"/></g></g><path d="M81.305 14.071s2.345-3.31 4.344-2.345c1.603.774 10.059 5.834 11.649 7.025 1.59 1.192.074 1.112-1.72.629-1.794-.483-7.43-3.416-9.417-3.017-1.991.398-6.904 3.431-8.098 3.431-1.193.001 1.932-3.999 3.242-5.723z" fill="#fff"/></g></svg>