<svg id="レイヤー_1" xmlns="http://www.w3.org/2000/svg" viewBox="0 0 128 128"><g><path d="M119.657 27.07c-3.212-2.785-10.3-6.377-17.283-9.818-.692-.344-1.303-.644-1.794-.888-1.586-.795-3.25-1.199-4.948-1.199-3.299 0-6.468 1.558-9.036 4.367l-.375-.245a1834.937 1834.937 0 0 1-6.146-3.838c-3.375-2.116-14.604-9.337-16.98-10.87-2.635-1.706-5.747-3.521-9.319-3.521-2.756 0-5.247 1.084-7.194 3.135-2.88 3.029-3.15 7.149-3.328 9.873-.02.286-.038.56-.067.815-.317 3.854-.461 7.731-.596 11.479-.097 2.544-.193 5.177-.342 7.718L41.773 42l-3.083-2.084c-17.172-11.628-22.337-15.1-23.54-15.726-2.525-1.317-4.342-1.88-6.079-1.88-2.145 0-4.121.928-5.41 2.539-2.092 2.619-1.433 5.564-1.216 6.531l.029.125c.337 1.563.49 2.277 13.013 18.284 5.444 6.959 12.754 16.114 15.422 19.026l5.126 5.583 5.126 5.582.101.115c.014.014.034.026.039.039l.058.053c.351.37.789.755 1.212 1.024l69.994 44.761c.51.324 1.048.565 1.602.727.562.16 1.14.242 1.717.242l.004-.002c.453 0 .895-.058 1.337-.156.14-.031.27-.087.404-.127a6.12 6.12 0 0 0 .89-.33c.145-.07.279-.151.419-.232.298-.172.577-.366.841-.583.129-.108.264-.216.389-.337.067-.064.145-.113.212-.183.25-.271.476-.562.673-.865 0-.005 0-.01.009-.017.25-.392.442-.82.597-1.262a6.14 6.14 0 0 0 .365-1.727c.005-.007.01-.014.01-.021.38-7.576 3.756-74.094 3.789-77.229.062-5.906-.645-12.027-6.166-16.8z" fill="#006ca2"/><path d="M45.696 75.82c-.905-.981-1.804-1.964-2.703-2.945l-2.896-3.152c-1.548-1.688-3.105-3.378-4.654-5.069C30.832 59.629 8.745 31.4 8.489 30.212c-.139-.673-.481-1.745.582-1.745.582 0 1.577.317 3.241 1.183 1.265.664 16.678 11.138 29.026 19.493 1.01.685 2.001 1.354 2.963 2.003 1.019.692 2.02 1.366 2.962 2.001 4.193 2.832 7.497 5.039 8.887 5.924 4.473 2.847 8.944 5.694 13.427 8.536 1.837 1.173 3.684 2.344 5.53 3.515 0 0 10.041 6.035 14.062 12.35 5.04 7.92 26.713 37.315 26.713 37.315l-69.993-44.76-.193-.207z" fill="#40c0e7"/><path d="M94.362 80.168c-4.578-7.2-14.571-13.408-16.014-14.283l-3.649-2.315-1.823-1.157c-4.478-2.841-8.95-5.688-13.417-8.535-1.645-1.046-6.252-4.141-11.763-7.867.23-3.855.461-7.709.693-11.563.379-6.337.403-12.734.932-19.051.183-2.102.164-5.318 1.722-6.962.823-.867 1.741-1.22 2.732-1.22 1.789 0 3.818 1.14 5.982 2.537 2.626 1.697 13.714 8.829 17.047 10.911 2.054 1.289 4.107 2.57 6.16 3.85 1.241.773 3.011 2.536 4.632 2.536.745 0 1.457-.373 2.078-1.39 1.322-2.178 3.433-4.338 5.957-4.338.703 0 1.438.169 2.198.549 3.741 1.875 14.47 6.973 17.807 9.858 3.477 3.01 4.087 6.833 4.03 12.075-.029 2.4-2.274 47.095-3.289 67.254-6.597-9.008-18.533-25.414-22.015-30.889z" fill="#40c0e7"/></g></svg>