<svg xmlns="http://www.w3.org/2000/svg" viewBox="0 0 128 128"><g id="图层_1"><g><path d="M9.417 102.848V6.51a3.063 3.063 0 0 1 3.063-3.063h89.107a3.063 3.063 0 0 1 3.063 3.063v118.044H31.123c-11.988 0-21.706-9.718-21.706-21.706z" fill="#e0e0e0"/><g fill="#bdbdbd"><path d="M104.651 103.501v21.053c6.978 0 12.774-7.555 13.911-17.482a3.213 3.213 0 0 0-3.192-3.571h-10.719z"/><path d="M41.269 103.501a3.842 3.842 0 0 0-3.813 3.432c-1.037 9.425-6.274 16.732-12.748 17.532v.089h79.942v-21.053H41.269z"/></g><path d="M24.709 103.501H9.417c0 11.627 6.319 21.053 14.113 21.053.398 0 .789-.041 1.178-.089 7.242-.895 12.935-9.93 12.935-20.964H24.709z" fill="#e0e0e0"/><g fill="none" stroke="#616161" stroke-width="5" stroke-linecap="round" stroke-linejoin="round" stroke-miterlimit="10"><path d="M22.835 29.776h68.333"/><path d="M22.835 45.034h68.333"/><path d="M22.835 60.292h68.333"/><path d="M22.835 75.55h68.333"/><path d="M22.835 90.808h29.224"/></g></g></g></svg>