<svg id="レイヤー_1" xmlns="http://www.w3.org/2000/svg" viewBox="0 0 128 128"><g><path d="M114.91 29.765l-6.165 6.604c-5.731 6.136-11.463 12.267-17.193 18.401a80798.035 80798.035 0 0 0-20.315 21.748l-19.413 20.77a30420.31 30420.31 0 0 1-14.469 15.489c-1.314 1.411-3.635 4.987-5.787 4.864-1.36-.077-2.271-1.642-3.095-2.556-1.055-1.169-2.16-2.301-3.24-3.448-4.825-5.114-9.532-10.361-14.464-15.379-3.019-3.073 1.36-5.501 3.643-7.585l5.986 6.199c.34.357.795.531 1.253.531.434 0 .868-.161 1.208-.489a1.735 1.735 0 0 0 .042-2.461l-5.969-6.174c1.479-1.403 2.955-2.807 4.43-4.213l6.289 6.479a1.73 1.73 0 0 0 2.461.039 1.74 1.74 0 0 0 .034-2.46l-6.259-6.456c1.221-1.161 2.44-2.325 3.665-3.486l11.557 12.363c.344.37.807.554 1.275.554a1.742 1.742 0 0 0 1.267-2.93l-11.58-12.386 4.153-3.949 5.957 6.079c.34.35.791.523 1.241.523a1.72 1.72 0 0 0 1.216-.498 1.735 1.735 0 0 0 .026-2.461l-5.918-6.046c1.387-1.318 2.772-2.637 4.158-3.959l6.263 6.365a1.74 1.74 0 0 0 2.462.017c.69-.672.697-1.777.021-2.462l-6.22-6.322c1.148-1.088 2.288-2.172 3.432-3.261l11.476 12.097c.34.361.799.544 1.258.544.434 0 .863-.157 1.199-.48.697-.659.731-1.76.068-2.462l-11.48-12.101c.034-.029.064-.06.094-.089 1.268-1.203 2.534-2.411 3.806-3.618l5.932 5.978c.34.345.786.515 1.232.515.447 0 .889-.166 1.229-.502a1.75 1.75 0 0 0 .014-2.466l-5.885-5.927 3.911-3.717 6.229 6.246c.341.345.787.515 1.233.515s.889-.17 1.229-.51a1.74 1.74 0 0 0 .005-2.462l-6.169-6.19c1.063-1.021 2.138-2.037 3.207-3.058l11.386 11.842c.34.357.799.535 1.258.535a1.739 1.739 0 0 0 1.25-2.95L67.972 37.725c.858-.82 1.722-1.638 2.584-2.458.357-.34.715-.685 1.072-1.024l5.901 5.876c.344.336.79.506 1.232.506.447 0 .894-.17 1.233-.515.68-.68.676-1.785-.009-2.462l-5.833-5.808 3.673-3.49 6.2 6.14a1.736 1.736 0 0 0 2.461-.012 1.739 1.739 0 0 0-.013-2.462l-6.127-6.067c.999-.953 2.002-1.905 3.002-2.858L94.645 34.69c.34.349.791.523 1.25.523.434 0 .876-.162 1.216-.493.69-.672.697-1.773.03-2.462l-11.27-11.57c.961-.905 1.913-1.815 2.87-2.726.183-.178.369-.369.552-.548l5.889 5.791c.341.334.783.497 1.225.497a1.739 1.739 0 0 0 1.216-2.981l-5.854-5.757a304.558 304.558 0 0 1 3.362-3.363l6.318 6.183a1.75 1.75 0 0 0 2.462-.03 1.74 1.74 0 0 0-.03-2.462l-6.208-6.075a44.753 44.753 0 0 1 2.39-2.028c2.363-1.833 4.03.527 5.638 2.224l5.383 5.69c1.978 2.091 3.954 4.19 5.936 6.278 1.071 1.131 1.462 2.158 1.407 3.12-.107 1.876-1.884 3.521-3.517 5.264z" fill="#fff"/><path d="M124.039 20.198L107.206 2.4a6.538 6.538 0 0 0-4.575-2.04l-.169-.004a6.544 6.544 0 0 0-4.508 1.798L4.203 90.112c-2.602 2.477-2.712 7.562-.255 10.177l23.674 25.298a6.542 6.542 0 0 0 4.762 2.058h.009a6.53 6.53 0 0 0 4.762-2.07l86.914-96.43a6.535 6.535 0 0 0-.03-8.947zm-9.129 9.567l-6.165 6.604c-5.731 6.136-11.463 12.267-17.193 18.401a80798.035 80798.035 0 0 0-20.315 21.748l-19.413 20.77a30420.31 30420.31 0 0 1-14.469 15.489c-1.314 1.411-3.635 4.987-5.787 4.864-1.36-.077-2.271-1.642-3.095-2.556-1.055-1.169-2.16-2.301-3.24-3.448-4.825-5.114-9.532-10.361-14.464-15.379-3.019-3.073 1.36-5.501 3.643-7.585l5.986 6.199c.34.357.795.531 1.253.531.434 0 .868-.161 1.208-.489a1.735 1.735 0 0 0 .042-2.461l-5.969-6.174c1.479-1.403 2.955-2.807 4.43-4.213l6.289 6.479a1.73 1.73 0 0 0 2.461.039 1.74 1.74 0 0 0 .034-2.46l-6.259-6.456c1.221-1.161 2.44-2.325 3.665-3.486l11.557 12.363c.344.37.807.554 1.275.554a1.742 1.742 0 0 0 1.267-2.93l-11.58-12.386 4.153-3.949 5.957 6.079c.34.35.791.523 1.241.523a1.72 1.72 0 0 0 1.216-.498 1.735 1.735 0 0 0 .026-2.461l-5.918-6.046c1.387-1.318 2.772-2.637 4.158-3.959l6.263 6.365a1.74 1.74 0 0 0 2.462.017c.69-.672.697-1.777.021-2.462l-6.22-6.322c1.148-1.088 2.288-2.172 3.432-3.261l11.476 12.097c.34.361.799.544 1.258.544.434 0 .863-.157 1.199-.48.697-.659.731-1.76.068-2.462l-11.48-12.101c.034-.029.064-.06.094-.089 1.268-1.203 2.534-2.411 3.806-3.618l5.932 5.978c.34.345.786.515 1.232.515.447 0 .889-.166 1.229-.502a1.75 1.75 0 0 0 .014-2.466l-5.885-5.927 3.911-3.717 6.229 6.246c.341.345.787.515 1.233.515s.889-.17 1.229-.51a1.74 1.74 0 0 0 .005-2.462l-6.169-6.19c1.063-1.021 2.138-2.037 3.207-3.058l11.386 11.842c.34.357.799.535 1.258.535a1.739 1.739 0 0 0 1.25-2.95L67.972 37.725c.858-.82 1.722-1.638 2.584-2.458.357-.34.715-.685 1.072-1.024l5.901 5.876c.344.336.79.506 1.232.506.447 0 .894-.17 1.233-.515.68-.68.676-1.785-.009-2.462l-5.833-5.808 3.673-3.49 6.2 6.14a1.736 1.736 0 0 0 2.461-.012 1.739 1.739 0 0 0-.013-2.462l-6.127-6.067c.999-.953 2.002-1.905 3.002-2.858L94.645 34.69c.34.349.791.523 1.25.523.434 0 .876-.162 1.216-.493.69-.672.697-1.773.03-2.462l-11.27-11.57c.961-.905 1.913-1.815 2.87-2.726.183-.178.369-.369.552-.548l5.889 5.791c.341.334.783.497 1.225.497a1.739 1.739 0 0 0 1.216-2.981l-5.854-5.757a304.558 304.558 0 0 1 3.362-3.363l6.318 6.183a1.75 1.75 0 0 0 2.462-.03 1.74 1.74 0 0 0-.03-2.462l-6.208-6.075a44.753 44.753 0 0 1 2.39-2.028c2.363-1.833 4.03.527 5.638 2.224l5.383 5.69c1.978 2.091 3.954 4.19 5.936 6.278 1.071 1.131 1.462 2.158 1.407 3.12-.107 1.876-1.884 3.521-3.517 5.264z" fill="#006ca2"/></g></svg>