<svg id="レイヤー_1" xmlns="http://www.w3.org/2000/svg" xmlns:xlink="http://www.w3.org/1999/xlink" viewBox="0 0 128 128"><g><g><path d="M37.324 84.737a21.253 21.253 0 0 1 1.679-1.589c1.711-1.436 6.171-4.773 8.574-3.39 1.427.823 1.221 3.572.692 4.712-1.3 2.824-4.62 5.199-6.648 7.546-1.6 1.86-3.521 3.525-5.265 5.264-2.786 2.791-5.461 5.928-8.48 8.481-.01.005-24.135 20.379-24.135 20.379l-1.879-1.874 20.384-24.148c3.825-3.824 7.649-7.653 11.473-11.478 1.235-1.229 2.385-2.627 3.605-3.903z" fill="#78a3ad"/></g><g><defs><path id="SVGID_1_" d="M37.32 84.966c-4.783-5.147-9.033-10.734-12.488-16.513-2.637-4.409-8.729-14.681-3.857-19.562l4.255-4.264c3.993-3.988 14.521-.313 26.21 8.327l26.396-26.393c-6.62-8.78-9.752-16.092-7.34-18.505l5.386-5.391c3.506-3.502 17.42 4.723 31.072 18.379 13.652 13.652 21.88 27.566 18.374 31.072l-5.377 5.386c-2.422 2.408-9.734-.72-18.505-7.34L75.05 76.555c8.649 11.702 12.315 22.222 8.331 26.214l-4.263 4.264c-5.04 5.031-15.77-1.524-20.249-4.273-7.729-4.736-15.12-10.87-21.549-17.794z"/></defs><use xlink:href="#SVGID_1_" overflow="visible" fill="#ed6c30"/><clipPath id="SVGID_2_"><use xlink:href="#SVGID_1_" overflow="visible"/></clipPath><g clip-path="url(#SVGID_2_)"><g><defs><path id="SVGID_3_" d="M77.481-.733s-2.839 5.872 3.679 16.49c6.139 10 9.645 12.806 9.645 12.806l-6.134 7.013S72.918 22.775 70.463 14.355s-.879-10.178-.879-10.178l7.897-4.91z"/></defs><clipPath id="SVGID_4_"><use xlink:href="#SVGID_3_" overflow="visible"/></clipPath><path clip-path="url(#SVGID_4_)" fill="#fff" d="M78.706 6.285l-8.243 8.069 4.25 7.962 8.069-8.593z"/></g><g><defs><path id="SVGID_5_" d="M77.481-.733s-2.839 5.872 3.679 16.49c6.139 10 9.645 12.806 9.645 12.806l-6.134 7.013S72.918 22.775 70.463 14.355s-.879-10.178-.879-10.178l7.897-4.91z"/></defs><clipPath id="SVGID_6_"><use xlink:href="#SVGID_5_" overflow="visible"/></clipPath><path clip-path="url(#SVGID_6_)" fill="#fff" d="M78.706 6.285l-8.243 8.069 4.25 7.962 8.069-8.593z"/></g><g><defs><path id="SVGID_7_" d="M77.481-.733s-2.839 5.872 3.679 16.49c6.139 10 9.645 12.806 9.645 12.806l-6.134 7.013S72.918 22.775 70.463 14.355s-.879-10.178-.879-10.178l7.897-4.91z"/></defs><clipPath id="SVGID_8_"><use xlink:href="#SVGID_7_" overflow="visible"/></clipPath></g></g><g clip-path="url(#SVGID_2_)"><g><defs><path id="SVGID_9_" d="M26.08 43.57s-3.142 6.499 4.077 18.253c6.798 11.066 10.679 14.171 10.679 14.171l-6.798 7.766S21.03 69.589 18.314 60.266c-2.716-9.318-.972-11.263-.972-11.263l8.738-5.433z"/></defs><clipPath id="SVGID_10_"><use xlink:href="#SVGID_9_" overflow="visible"/></clipPath><path clip-path="url(#SVGID_10_)" fill="#fff" d="M27.437 51.336l-9.123 8.93 6.214 12.039 8.93-9.514z"/></g><g><defs><path id="SVGID_11_" d="M26.08 43.57s-3.142 6.499 4.077 18.253c6.798 11.066 10.679 14.171 10.679 14.171l-6.798 7.766S21.03 69.589 18.314 60.266c-2.716-9.318-.972-11.263-.972-11.263l8.738-5.433z"/></defs><clipPath id="SVGID_12_"><use xlink:href="#SVGID_11_" overflow="visible" opacity=".32"/></clipPath><path clip-path="url(#SVGID_12_)" fill="#fff" d="M27.437 51.336l-9.123 8.93 6.214 12.039 8.93-9.514z"/></g><g><defs><path id="SVGID_13_" d="M26.08 43.57s-3.142 6.499 4.077 18.253c6.798 11.066 10.679 14.171 10.679 14.171l-6.798 7.766S21.03 69.589 18.314 60.266c-2.716-9.318-.972-11.263-.972-11.263l8.738-5.433z"/></defs><clipPath id="SVGID_14_"><use xlink:href="#SVGID_13_" overflow="visible"/></clipPath></g></g><g clip-path="url(#SVGID_2_)"><g><defs><path id="SVGID_15_" d="M77.836 26.562s-33.91 33.723-34.087 33.897c-.473.472 1.537 4.054 1.795 4.517.402.724.771 1.425 1.262 2.094.8 1.08 2.006 1.795 2.811 2.88.607-.16.817-.744 1.178-1.184.533-.641 1.206-1.196 1.795-1.781 1.188-1.178 2.371-2.356 3.559-3.539 2.333-2.319 4.661-4.638 6.994-6.957 2.81-2.791 5.615-5.587 8.425-8.378 2.632-2.618 5.157-5.596 8.103-7.841.705-.533 1.149-1.126 1.748-1.748.622-.646 1.281-1.221 1.95-1.8.415-.36.781-.823 1.323-.958.14-.645-1.469-1.552-1.866-1.95-.544-.548-5.234-7.009-4.99-7.252z"/></defs><clipPath id="SVGID_16_"><use xlink:href="#SVGID_15_" overflow="visible"/></clipPath><path clip-path="url(#SVGID_16_)" fill="#fff" d="M84.063 35.337L48.531 71.646l-3.498-5.437 36.701-35.725z"/></g><g><defs><path id="SVGID_17_" d="M77.836 26.562s-33.91 33.723-34.087 33.897c-.473.472 1.537 4.054 1.795 4.517.402.724.771 1.425 1.262 2.094.8 1.08 2.006 1.795 2.811 2.88.607-.16.817-.744 1.178-1.184.533-.641 1.206-1.196 1.795-1.781 1.188-1.178 2.371-2.356 3.559-3.539 2.333-2.319 4.661-4.638 6.994-6.957 2.81-2.791 5.615-5.587 8.425-8.378 2.632-2.618 5.157-5.596 8.103-7.841.705-.533 1.149-1.126 1.748-1.748.622-.646 1.281-1.221 1.95-1.8.415-.36.781-.823 1.323-.958.14-.645-1.469-1.552-1.866-1.95-.544-.548-5.234-7.009-4.99-7.252z"/></defs><clipPath id="SVGID_18_"><use xlink:href="#SVGID_17_" overflow="visible"/></clipPath><path opacity=".2" clip-path="url(#SVGID_18_)" fill="#fff" d="M84.063 35.337L48.531 71.646l-3.498-5.437 36.701-35.725z"/></g><g><defs><path id="SVGID_19_" d="M77.836 26.562s-33.91 33.723-34.087 33.897c-.473.472 1.537 4.054 1.795 4.517.402.724.771 1.425 1.262 2.094.8 1.08 2.006 1.795 2.811 2.88.607-.16.817-.744 1.178-1.184.533-.641 1.206-1.196 1.795-1.781 1.188-1.178 2.371-2.356 3.559-3.539 2.333-2.319 4.661-4.638 6.994-6.957 2.81-2.791 5.615-5.587 8.425-8.378 2.632-2.618 5.157-5.596 8.103-7.841.705-.533 1.149-1.126 1.748-1.748.622-.646 1.281-1.221 1.95-1.8.415-.36.781-.823 1.323-.958.14-.645-1.469-1.552-1.866-1.95-.544-.548-5.234-7.009-4.99-7.252z"/></defs><clipPath id="SVGID_20_"><use xlink:href="#SVGID_19_" overflow="visible"/></clipPath></g></g></g></g></svg>