<svg id="レイヤー_1" xmlns="http://www.w3.org/2000/svg" viewBox="0 0 128 128"><g><path d="M40.459 22.078c.185.587.411 1.186.728 1.82l.244.493.646 1.391.21.445 4.217 9.034 4.217 9.042 1.409 3.006c-9.363-5.814-23.898 1.156-30.063 8.78-.874 1.075-1.528 2.607-2 4.252-.834 2.222-1.151 4.67-.988 7.145.462 6.709 4.345 13.55 10.287 16.239a14.947 14.947 0 0 0 8.023 1.198c4.127.005 8.34-1.091 12-2.692a43.815 43.815 0 0 0 3.969-1.961c2.064 2.727 4.281 5.347 6.495 7.972.355.424.702.848 1.057 1.272 2.458 2.941 4.83 5.934 6.855 9.153.338.535.65 1.092.963 1.644a21.05 21.05 0 0 1-1.75 1.109c-2.774 1.566-6.285 2.911-9.445 3.399a36.576 36.576 0 0 1-5.492.415c-6.481 0-12.771-1.687-18.431-4.68-9.916-5.24-17.892-14.517-21.504-26.025-3.836-12.21-2.526-25.738 3.438-35.307 5.167-8.297 13.906-14.667 23.449-16.808.524-.122 1.008-.25 1.466-.336z" fill="#fff"/><path d="M66.395 7.736c.103-.441.389-.985.698-1.31.441-.479 1.275-.488 1.871-.621.278-.064.557-.124.835-.184 1.186-.266 2.376-.531 3.562-.793.655-.146 1.434-.419 2.158-.419.252 0 .501.035.732.116.749.261 1.151 1.182 1.494 1.811.493.886.98 1.777 1.469 2.663 1.323 2.41 2.65 4.821 3.978 7.231 1.489 2.705 2.971 5.412 4.465 8.118 1.294 2.35 2.582 4.696 3.875 7.042.158.292.316.578.47.865.317.569.63 1.134.938 1.699.265.48.527.959.792 1.435l.171.317-.09.034-2.003.698-.977.343a12.215 12.215 0 0 0-1.1-1.7c-.419-.557-.89-1.07-1.404-1.537-.775-.698-1.64-1.297-2.603-1.73-1.52-.693-3.956-1.365-5.557-.535-1.396.723-1.375 2.667-.955 3.947.193.578.411.98.659 1.285.586.715 1.361.847 2.44 1.173.124.038.257.072.394.12.681.227 1.233.655 1.665 1.186a.27.27 0 0 1 .026.034l-5.959 2.081-.753.261a.061.061 0 0 0-.018-.025 12.172 12.172 0 0 0-1.147-1.627 10.954 10.954 0 0 0-1.528-1.494 10.014 10.014 0 0 0-2.141-1.336c-1.527-.694-3.96-1.366-5.558-.535-1.395.724-1.382 2.667-.958 3.947.111.334.235.6.364.835.466.851 1.066 1.126 1.878 1.37.369.112.784.218 1.25.373.488.163.898.445 1.263.775.004.004.013.008.017.013L59.219 47.81l-2.124.74-.201-.428c-.196-.428-.398-.857-.599-1.285-.266-.574-.536-1.147-.805-1.725-.386-.831-.775-1.657-1.161-2.487-1.409-3.019-2.813-6.032-4.222-9.046l-4.217-9.034c-.292-.616-.573-1.229-.865-1.841-.702-1.511-1.841-3.1-.18-4.371 1.144-.877 2.718-1.001 4.058-1.404l2.531-.758c1.673-.501 3.348-.998 5.017-1.502 1.85-.553 3.695-1.105 5.541-1.662.651-.193 1.328-.295 1.974-.505.54-.18 1.25-.732 1.623-1.151.895-1.007.527-2.42.806-3.615z" fill="#40c0e7"/><path d="M68.248 62.917l5.861 4.915 2.367 1.987c.146.124.44.372.878.595.646.548 1.438 1.156 2.427 1.627.073.985-.077 2.046-.064 2.945.06 4.17-.543 8.516-1.905 12.557-.031.082-.056.167-.086.253l-.103-.15c-.188-.257-.385-.493-.573-.749-1.756-2.358-3.558-4.615-5.258-6.708a246.094 246.094 0 0 0-7.017-8.25c-.929-1.045-1.913-2.196-3.043-3.117.852-4.624.53-8.699-1.092-12.3l3.164 2.663 4.444 3.732z" fill="#fff"/><path d="M80.617 92.059c.268-.419.514-.788.625-1.044.073-.171.12-.351.192-.522 2.346-5.6 3.189-11.662 2.881-17.699 1.884-.184 3.249-.831 4.247-1.31.261-.124.518-.253.792-.359 1.845-.741 3.691-1.478 5.536-2.218.514-.201 1.023-.411 1.537-.612l2.124-.848 3.069-1.225c.373-.154.703-.308 1.033-.466l.539-.249a5.37 5.37 0 0 1 .874-.068c.531.013 1.212.287 1.926.582.565.227 1.198.488 1.905.698.227.068.484.106.727.162.065 2.92-.664 5.938-1.918 8.469-.908 1.836-2.046 3.506-3.327 5.052-3.168 3.844-7.295 6.884-11.576 9.423-1.199.711-2.385 1.434-3.571 2.145-1.687 1.006-3.381 1.995-5.142 2.89-.167.081-.38.214-.617.351a66.454 66.454 0 0 0-1.856-3.152z" fill="#fff"/><path d="M31.413 77.212c-3.438-1.55-5.681-5.501-5.947-9.376-.175-2.611.544-5.185 2.402-6.97 4.59-4.375 12.262-1.4 14.462 4.915 2.646 7.62-4.08 14.526-10.917 11.431z" fill="#fff"/><path d="M112.782 62.69c-.061.03-.125.068-.185.103-.437.244-.898.565-1.605.565h-.03a8.323 8.323 0 0 1-1.961-.304 12.807 12.807 0 0 1-1.1-.398 28.314 28.314 0 0 0-1.858-.688c-.573-.188-1.156-.339-1.776-.355l-.201-.005c-.698 0-1.631.095-2.111.27-.621.231-1.143.54-1.751.784-1.733.689-3.459 1.383-5.197 2.076-.899.359-1.803.719-2.706 1.083-1.456.582-2.911 1.165-4.371 1.747-1.238.496-2.299 1.246-3.965 1.413a1.286 1.286 0 0 0-.06.013l-.497.021c-2.145 0-3.284-1.301-4.56-2.376l-.154-.111.39.471-.146-.111c-2.744-2.303-5.48-4.602-8.224-6.901-2.735-2.304-5.48-4.603-8.22-6.906-.62-.518-1.237-1.036-1.854-1.554l11.932-4.161a4.654 4.654 0 0 1-.437 1.858c-1.37 2.924-.004 5.416 3.413 5.266 1.332-.061 1.947-1.131 2.577-2.192.095-.158.168-.325.248-.488 1.053-2.077 1.242-4.474.762-6.734l6.241-2.179c-.067.437-.171.865-.359 1.259-1.374 2.924-.009 5.416 3.408 5.266 1.332-.06 1.948-1.13 2.577-2.192 1.195-2.021 1.49-4.406 1.113-6.683l3.096-1.083c.008-.004.017-.009.03-.013a4.011 4.011 0 0 0 1.494-.963c.248.231.497.462.737.698l6.071 5.686c2.325 2.188 2.898 2.719 5.223 4.906 2.076 1.943 4.148 3.892 6.225 5.835.761.715 1.528 1.434 2.29 2.153.548.509 1.391 1.195 1.271 1.725-.154.643-1.297 1.011-2.05 1.375-.613.304-1.229.604-1.845.903l-1.875.921z" fill="#40c0e7"/><g fill="#006ca2"><path d="M120.076 55.129l-.175-.162-2.291-2.153-2.68-2.514-3.546-3.322-2.265-2.123-2.954-2.778c-2.042-1.914-4.058-3.798-6.066-5.686l-1.485-1.396-1.195-1.122c-.012-.026-.021-.06-.034-.086l-.158-.286-1.353-2.462-.86-1.567-3.802-6.914-.073-.124-2.23-4.063-2.235-4.058-1.986-3.613-1.99-3.613-1.469-2.672-.099-.185c-.466-.881-1.438-2.714-3.566-3.459a6.137 6.137 0 0 0-2.046-.338c-1.044 0-1.952.24-2.62.411l-.403.103-1.447.321-2.954.655-.206.035c-.796.128-2.449.394-3.724 1.768-.767.835-1.383 2-1.645 3.108a7.787 7.787 0 0 0-.17 1.075 213.12 213.12 0 0 0-8.396 2.603c-12.476 4.14-25.906 8.181-35.564 17.6-4.795 4.675-8.096 10.554-10.276 16.843-3.437 9.902-3.219 20.913-.094 30.858 3.639 11.577 11.329 21.085 20.995 27.023-.779.402-1.562.805-2.35 1.207-3.404 1.729-7.595 3.652-7.446 8.065.035.904.274 1.73.66 2.475a6.936 6.936 0 0 0 1.841 2.192 9.876 9.876 0 0 0 3.121 1.648.098.098 0 0 1 .034.021c5.481 3.001 11.723 3.947 17.694 5.471 6.196 1.584 12.536 2.753 18.919 3.229 4.859.359 10.489.989 15.177-.655 4.628-1.627 9.059-6.91 10.19-11.551.941-3.878.411-7.92-.805-11.734 3.541.693 7.115 1.225 10.711 1.49 4.41.325 9.521.899 13.782-.595 4.204-1.473 8.229-6.272 9.251-10.489 1.331-5.476-.544-11.315-3.035-16.17a62.258 62.258 0 0 0-2.565-4.504 20.78 20.78 0 0 0 .685-4.277c.043-.852.085-1.798.09-2.779 1.066-.518 2.136-1.044 3.21-1.57l.347-.159c1.118-.492 3.19-1.408 3.75-3.78.615-2.669-1.355-4.471-2.199-5.242zM40.459 22.078c.185.587.411 1.186.728 1.82l.244.493.646 1.391.21.445 4.217 9.034 4.217 9.042 1.409 3.006c-9.363-5.814-23.898 1.156-30.063 8.78-.874 1.075-1.528 2.607-2 4.252-.834 2.222-1.151 4.67-.988 7.145.462 6.709 4.345 13.55 10.287 16.239a14.947 14.947 0 0 0 8.023 1.198c4.127.005 8.34-1.091 12-2.692a43.815 43.815 0 0 0 3.969-1.961c2.064 2.727 4.281 5.347 6.495 7.972.355.424.702.848 1.057 1.272 2.458 2.941 4.83 5.934 6.855 9.153.338.535.65 1.092.963 1.644a21.05 21.05 0 0 1-1.75 1.109c-2.774 1.566-6.285 2.911-9.445 3.399a36.576 36.576 0 0 1-5.492.415c-6.481 0-12.771-1.687-18.431-4.68-9.916-5.24-17.892-14.517-21.504-26.025-3.836-12.21-2.526-25.738 3.438-35.307 5.167-8.297 13.906-14.667 23.449-16.808.524-.122 1.008-.25 1.466-.336zM66.395 7.736c.103-.441.389-.985.698-1.31.441-.479 1.275-.488 1.871-.621.278-.064.557-.124.835-.184 1.186-.266 2.376-.531 3.562-.793.655-.146 1.434-.419 2.158-.419.252 0 .501.035.732.116.749.261 1.151 1.182 1.494 1.811.493.886.98 1.777 1.469 2.663 1.323 2.41 2.65 4.821 3.978 7.231 1.489 2.705 2.971 5.412 4.465 8.118 1.294 2.35 2.582 4.696 3.875 7.042.158.292.316.578.47.865.317.569.63 1.134.938 1.699.265.48.527.959.792 1.435l.171.317-.09.034-2.003.698-.977.343a12.215 12.215 0 0 0-1.1-1.7c-.419-.557-.89-1.07-1.404-1.537-.775-.698-1.64-1.297-2.603-1.73-1.52-.693-3.956-1.365-5.557-.535-1.396.723-1.375 2.667-.955 3.947.193.578.411.98.659 1.285.586.715 1.361.847 2.44 1.173.124.038.257.072.394.12.681.227 1.233.655 1.665 1.186a.27.27 0 0 1 .026.034l-5.959 2.081-.753.261a.061.061 0 0 0-.018-.025 12.172 12.172 0 0 0-1.147-1.627 10.954 10.954 0 0 0-1.528-1.494 10.014 10.014 0 0 0-2.141-1.336c-1.527-.694-3.96-1.366-5.558-.535-1.395.724-1.382 2.667-.958 3.947.111.334.235.6.364.835.466.851 1.066 1.126 1.878 1.37.369.112.784.218 1.25.373.488.163.898.445 1.263.775.004.004.013.008.017.013L59.219 47.81l-2.124.74-.201-.428c-.196-.428-.398-.857-.599-1.285-.266-.574-.536-1.147-.805-1.725-.386-.831-.775-1.657-1.161-2.487-1.409-3.019-2.813-6.032-4.222-9.046l-4.217-9.034c-.292-.616-.573-1.229-.865-1.841-.702-1.511-1.841-3.1-.18-4.371 1.144-.877 2.718-1.001 4.058-1.404l2.531-.758c1.673-.501 3.348-.998 5.017-1.502 1.85-.553 3.695-1.105 5.541-1.662.651-.193 1.328-.295 1.974-.505.54-.18 1.25-.732 1.623-1.151.895-1.007.527-2.42.806-3.615zm1.853 55.181l5.861 4.915 2.367 1.987c.146.124.44.372.878.595.646.548 1.438 1.156 2.427 1.627.073.985-.077 2.046-.064 2.945.06 4.17-.543 8.516-1.905 12.557-.031.082-.056.167-.086.253l-.103-.15c-.188-.257-.385-.493-.573-.749-1.756-2.358-3.558-4.615-5.258-6.708a246.094 246.094 0 0 0-7.017-8.25c-.929-1.045-1.913-2.196-3.043-3.117.852-4.624.53-8.699-1.092-12.3l3.164 2.663 4.444 3.732zm12.369 29.142c.268-.419.514-.788.625-1.044.073-.171.12-.351.192-.522 2.346-5.6 3.189-11.662 2.881-17.699 1.884-.184 3.249-.831 4.247-1.31.261-.124.518-.253.792-.359 1.845-.741 3.691-1.478 5.536-2.218.514-.201 1.023-.411 1.537-.612l2.124-.848 3.069-1.225c.373-.154.703-.308 1.033-.466l.539-.249a5.37 5.37 0 0 1 .874-.068c.531.013 1.212.287 1.926.582.565.227 1.198.488 1.905.698.227.068.484.106.727.162.065 2.92-.664 5.938-1.918 8.469-.908 1.836-2.046 3.506-3.327 5.052-3.168 3.844-7.295 6.884-11.576 9.423-1.199.711-2.385 1.434-3.571 2.145-1.687 1.006-3.381 1.995-5.142 2.89-.167.081-.38.214-.617.351a66.454 66.454 0 0 0-1.856-3.152zM31.413 77.212c-3.438-1.55-5.681-5.501-5.947-9.376-.175-2.611.544-5.185 2.402-6.97 4.59-4.375 12.262-1.4 14.462 4.915 2.646 7.62-4.08 14.526-10.917 11.431zm81.369-14.522c-.061.03-.125.068-.185.103-.437.244-.898.565-1.605.565h-.03a8.323 8.323 0 0 1-1.961-.304 12.807 12.807 0 0 1-1.1-.398 28.314 28.314 0 0 0-1.858-.688c-.573-.188-1.156-.339-1.776-.355l-.201-.005c-.698 0-1.631.095-2.111.27-.621.231-1.143.54-1.751.784-1.733.689-3.459 1.383-5.197 2.076-.899.359-1.803.719-2.706 1.083-1.456.582-2.911 1.165-4.371 1.747-1.238.496-2.299 1.246-3.965 1.413a1.286 1.286 0 0 0-.06.013l-.497.021c-2.145 0-3.284-1.301-4.56-2.376l-.154-.111.39.471-.146-.111c-2.744-2.303-5.48-4.602-8.224-6.901-2.735-2.304-5.48-4.603-8.22-6.906-.62-.518-1.237-1.036-1.854-1.554l11.932-4.161a4.654 4.654 0 0 1-.437 1.858c-1.37 2.924-.004 5.416 3.413 5.266 1.332-.061 1.947-1.131 2.577-2.192.095-.158.168-.325.248-.488 1.053-2.077 1.242-4.474.762-6.734l6.241-2.179c-.067.437-.171.865-.359 1.259-1.374 2.924-.009 5.416 3.408 5.266 1.332-.06 1.948-1.13 2.577-2.192 1.195-2.021 1.49-4.406 1.113-6.683l3.096-1.083c.008-.004.017-.009.03-.013a4.011 4.011 0 0 0 1.494-.963c.248.231.497.462.737.698l6.071 5.686c2.325 2.188 2.898 2.719 5.223 4.906 2.076 1.943 4.148 3.892 6.225 5.835.761.715 1.528 1.434 2.29 2.153.548.509 1.391 1.195 1.271 1.725-.154.643-1.297 1.011-2.05 1.375-.613.304-1.229.604-1.845.903l-1.875.921zm-64.449 49.641c-.938-.206-1.867-.416-2.8-.621a142.31 142.31 0 0 1 4.577-2.282c.642.03 1.284.086 1.931.086 2.063 0 4.131-.159 6.14-.467 4.508-.698 8.887-1.896 13.164-3.403 4.986 13.057-17.473 7.919-23.012 6.687zM96.32 93.039c3.284-2.085 6.64-4.491 9.59-7.27 2.064 6.341-3.506 7.583-9.59 7.27z"/><path d="M71.759 49.102l-.072.089.063-.077z"/></g></g></svg>