<svg id="レイヤー_1" xmlns="http://www.w3.org/2000/svg" xmlns:xlink="http://www.w3.org/1999/xlink" viewBox="0 0 128 128"><g><g><defs><path id="SVGID_1_" d="M123.041 6.671a3.852 3.852 0 0 0-5.369-.956l-22.045 15.38a3.85 3.85 0 0 0-1.438 1.899L84.083 52.029 66.765 20.597a3.876 3.876 0 0 0-3.733-1.981 3.865 3.865 0 0 0-3.31 2.631L35.324 95.216l-11.901-9.955a3.859 3.859 0 0 0-5.231.258L2.303 101.727v9.455a3.815 3.815 0 0 0 2.661-1.149l16.242-16.564L34.73 104.78a3.864 3.864 0 0 0 3.535.754 3.866 3.866 0 0 0 2.605-2.502l23.406-70.96 17.223 31.265a3.824 3.824 0 0 0 3.708 1.98 3.849 3.849 0 0 0 3.315-2.575l12.542-36.031 21.021-14.669a3.86 3.86 0 0 0 .956-5.371z"/></defs><use xlink:href="#SVGID_1_" overflow="visible" fill="#ed6c30"/><clipPath id="SVGID_2_"><use xlink:href="#SVGID_1_" overflow="visible"/></clipPath></g><path d="M122.081 128H2.204A2.205 2.205 0 0 1 0 125.795V6.732a2.205 2.205 0 0 1 4.409 0v116.859h117.672a2.204 2.204 0 1 1 0 4.409z" fill="#2f2f2f"/></g></svg>