<svg id="レイヤー_1" xmlns="http://www.w3.org/2000/svg" viewBox="0 0 128 128"><g><path d="M113.874 67.583c0 3.723-3.046 6.769-6.769 6.769H20.892c-3.728 0-6.769-3.046-6.769-6.769V36.27c0-3.723 3.042-6.769 6.769-6.769h86.213c3.723 0 6.769 3.046 6.769 6.769v31.313z" fill="#bdcf46"/><g><path d="M116.659 18.714H11.338C5.366 18.714.481 23.599.481 29.57v68.854c0 5.971 4.885 10.861 10.857 10.861h105.321c5.977 0 10.86-4.89 10.86-10.861V29.57c.001-5.971-4.883-10.856-10.86-10.856zm-2.785 48.869c0 3.723-3.046 6.769-6.769 6.769H20.892c-3.728 0-6.769-3.046-6.769-6.769V36.27c0-3.723 3.042-6.769 6.769-6.769h86.213c3.723 0 6.769 3.046 6.769 6.769v31.313z" fill="#78a3ad"/><path d="M24.545 49.752c.201-.201.377-.49.508-.863.565-1.586.481-4.176-.215-5.631-.308-.635-.868-.947-1.354-.774-.694.252-1.133.915-1.343 2.043-.233 1.301-.149 2.929.187 4.161.392 1.433 1.47 1.82 2.217 1.064z" fill="#2f2f2f"/><path d="M33.838 42.484c-.706.252-1.139.915-1.35 2.043-.232 1.301-.148 2.929.193 4.161.391 1.432 1.469 1.819 2.211 1.064.205-.201.378-.49.513-.863.56-1.586.481-4.176-.214-5.631-.313-.634-.868-.947-1.353-.774z" fill="#2f2f2f"/><path d="M24.838 55.733c-.308-.634-.868-.947-1.354-.774-.694.251-1.133.914-1.343 2.043-.233 1.302-.149 2.93.187 4.162.392 1.432 1.47 1.819 2.216 1.063.201-.201.377-.49.508-.863.566-1.587.482-4.176-.214-5.631z" fill="#2f2f2f"/><path d="M33.838 54.958c-.706.251-1.139.914-1.35 2.043-.232 1.302-.148 2.93.193 4.162.391 1.432 1.469 1.819 2.211 1.063.205-.201.378-.49.513-.863.56-1.586.481-4.175-.214-5.631-.313-.633-.868-.946-1.353-.774z" fill="#2f2f2f"/><path d="M25.865 51.492c-.635.303-.947.863-.775 1.353.252.695.92 1.133 2.044 1.339 1.297.238 2.93.154 4.167-.182 1.423-.392 1.819-1.469 1.063-2.216a2.376 2.376 0 0 0-.867-.509c-1.587-.564-4.176-.48-5.632.215z" fill="#2f2f2f"/><path d="M27.134 41.546c1.297.238 2.93.154 4.167-.182 1.423-.392 1.819-1.47 1.063-2.216a2.348 2.348 0 0 0-.867-.508c-1.586-.56-4.176-.48-5.631.215-.635.303-.947.867-.775 1.353.251.699.919 1.138 2.043 1.338z" fill="#2f2f2f"/><path d="M31.497 63.911c-1.586-.56-4.176-.48-5.631.219-.635.303-.947.863-.775 1.353.252.695.92 1.134 2.044 1.338 1.297.239 2.93.154 4.167-.182 1.423-.392 1.819-1.474 1.063-2.216a2.483 2.483 0 0 0-.868-.512z" fill="#2f2f2f"/><path d="M42.52 49.752c.201-.201.377-.49.508-.863.56-1.586.48-4.176-.214-5.631-.304-.635-.869-.947-1.354-.774-.705.252-1.138.915-1.339 2.043-.238 1.301-.154 2.929.177 4.161.393 1.433 1.476 1.82 2.222 1.064z" fill="#2f2f2f"/><path d="M51.809 42.484c-.696.252-1.134.915-1.339 2.043-.243 1.301-.159 2.929.178 4.161.396 1.432 1.479 1.819 2.22 1.064.201-.201.379-.49.514-.863.56-1.586.48-4.176-.219-5.631-.301-.634-.865-.947-1.354-.774z" fill="#2f2f2f"/><path d="M42.814 55.733c-.304-.634-.869-.947-1.354-.774-.705.251-1.138.914-1.339 2.043-.238 1.302-.154 2.93.177 4.162.393 1.432 1.475 1.819 2.221 1.063.201-.201.377-.49.508-.863.561-1.587.482-4.176-.213-5.631z" fill="#2f2f2f"/><path d="M51.809 54.958c-.696.251-1.134.914-1.339 2.043-.243 1.302-.159 2.93.178 4.162.396 1.432 1.479 1.819 2.22 1.063.201-.201.379-.49.514-.863.56-1.586.48-4.175-.219-5.631-.301-.633-.865-.946-1.354-.774z" fill="#2f2f2f"/><path d="M43.84 51.492c-.634.303-.947.863-.78 1.353.253.695.92 1.133 2.049 1.339 1.302.238 2.93.154 4.162-.182 1.437-.392 1.819-1.469 1.059-2.216-.197-.2-.485-.378-.859-.509-1.586-.564-4.175-.48-5.631.215z" fill="#2f2f2f"/><path d="M45.109 41.546c1.302.238 2.93.154 4.162-.182 1.437-.392 1.819-1.47 1.059-2.216-.197-.201-.485-.378-.859-.508-1.586-.56-4.174-.48-5.63.215-.634.303-.947.867-.78 1.353.252.699.919 1.138 2.048 1.338z" fill="#2f2f2f"/><path d="M49.471 63.911c-1.586-.56-4.174-.48-5.63.219-.634.303-.947.863-.78 1.353.253.695.92 1.134 2.049 1.338 1.302.239 2.93.154 4.162-.182 1.437-.392 1.819-1.474 1.059-2.216-.198-.199-.487-.377-.86-.512z" fill="#2f2f2f"/><path d="M60.495 49.752c.2-.201.372-.49.508-.863.564-1.586.48-4.176-.214-5.631-.303-.635-.863-.947-1.354-.774-.695.252-1.134.915-1.338 2.043-.238 1.301-.159 2.929.182 4.161.391 1.433 1.469 1.82 2.216 1.064z" fill="#2f2f2f"/><path d="M69.789 42.484c-.7.252-1.139.915-1.344 2.043-.233 1.301-.154 2.929.186 4.161.388 1.432 1.466 1.819 2.212 1.064.206-.201.378-.49.51-.863.563-1.586.474-4.176-.21-5.631-.311-.634-.87-.947-1.354-.774z" fill="#2f2f2f"/><path d="M60.789 55.733c-.303-.634-.863-.947-1.354-.774-.695.251-1.134.914-1.338 2.043-.238 1.302-.159 2.93.182 4.162.392 1.432 1.469 1.819 2.216 1.063.2-.201.372-.49.508-.863.565-1.587.481-4.176-.214-5.631z" fill="#2f2f2f"/><path d="M69.789 54.958c-.7.251-1.139.914-1.344 2.043-.233 1.302-.154 2.93.186 4.162.388 1.432 1.466 1.819 2.212 1.063.206-.201.378-.49.51-.863.563-1.586.474-4.175-.21-5.631-.311-.633-.87-.946-1.354-.774z" fill="#2f2f2f"/><path d="M61.814 51.492c-.633.303-.947.863-.769 1.353.247.695.909 1.133 2.039 1.339 1.301.238 2.925.154 4.166-.182 1.432-.392 1.819-1.469 1.063-2.216a2.35 2.35 0 0 0-.867-.509c-1.591-.564-4.175-.48-5.632.215z" fill="#2f2f2f"/><path d="M63.084 41.546c1.301.238 2.925.154 4.166-.182 1.432-.392 1.819-1.47 1.063-2.216a2.323 2.323 0 0 0-.867-.508c-1.591-.56-4.175-.48-5.632.215-.633.303-.947.867-.769 1.353.247.699.91 1.138 2.039 1.338z" fill="#2f2f2f"/><path d="M67.446 63.911c-1.591-.56-4.175-.48-5.632.219-.633.303-.947.863-.769 1.353.247.695.909 1.134 2.039 1.338 1.301.239 2.925.154 4.166-.182 1.432-.392 1.819-1.474 1.063-2.216-.205-.199-.494-.377-.867-.512z" fill="#2f2f2f"/><path d="M78.466 49.752c.205-.201.381-.49.508-.863.564-1.586.485-4.176-.211-5.631-.302-.635-.867-.947-1.352-.774-.7.252-1.144.915-1.344 2.043-.233 1.301-.15 2.929.187 4.161.392 1.433 1.47 1.82 2.212 1.064z" fill="#2f2f2f"/><path d="M87.758 42.484c-.695.252-1.134.915-1.338 2.043-.238 1.301-.155 2.929.181 4.161.392 1.432 1.47 1.819 2.216 1.064.196-.201.378-.49.509-.863.564-1.586.484-4.176-.215-5.631-.303-.634-.863-.947-1.353-.774z" fill="#2f2f2f"/><path d="M78.763 55.733c-.302-.634-.867-.947-1.352-.774-.7.251-1.144.914-1.344 2.043-.233 1.302-.15 2.93.187 4.162.392 1.432 1.469 1.819 2.211 1.063.205-.201.381-.49.508-.863.566-1.587.486-4.176-.21-5.631z" fill="#2f2f2f"/><path d="M87.758 54.958c-.695.251-1.134.914-1.338 2.043-.238 1.302-.155 2.93.181 4.162.392 1.432 1.47 1.819 2.216 1.063.196-.201.378-.49.509-.863.564-1.586.484-4.175-.215-5.631-.303-.633-.863-.946-1.353-.774z" fill="#2f2f2f"/><path d="M79.786 51.492c-.634.303-.943.863-.77 1.353.252.695.91 1.133 2.044 1.339 1.297.238 2.929.154 4.161-.182 1.432-.392 1.814-1.469 1.064-2.216a2.394 2.394 0 0 0-.869-.509c-1.585-.564-4.17-.48-5.63.215z" fill="#2f2f2f"/><path d="M81.06 41.546c1.297.238 2.929.154 4.161-.182 1.432-.392 1.814-1.47 1.064-2.216a2.366 2.366 0 0 0-.869-.508c-1.585-.56-4.17-.48-5.63.215-.634.303-.943.867-.77 1.353.252.699.91 1.138 2.044 1.338z" fill="#2f2f2f"/><path d="M85.416 63.911c-1.585-.56-4.17-.48-5.63.219-.634.303-.943.863-.77 1.353.252.695.91 1.134 2.044 1.338 1.297.239 2.929.154 4.161-.182 1.432-.392 1.814-1.474 1.064-2.216a2.47 2.47 0 0 0-.869-.512z" fill="#2f2f2f"/><path d="M96.445 49.752c.2-.201.369-.49.509-.863.56-1.586.48-4.176-.215-5.631-.307-.635-.867-.947-1.353-.774-.7.252-1.139.915-1.344 2.043-.233 1.301-.154 2.929.187 4.161.393 1.433 1.465 1.82 2.216 1.064z" fill="#2f2f2f"/><path d="M105.734 42.484c-.695.252-1.134.915-1.343 2.043-.234 1.301-.15 2.929.186 4.161.393 1.432 1.47 1.819 2.216 1.064.201-.201.378-.49.513-.863.56-1.586.477-4.176-.219-5.631-.308-.634-.868-.947-1.353-.774z" fill="#2f2f2f"/><path d="M96.739 55.733c-.307-.634-.867-.947-1.353-.774-.7.251-1.139.914-1.344 2.043-.233 1.302-.154 2.93.187 4.162.392 1.432 1.464 1.819 2.215 1.063.2-.201.369-.49.509-.863.561-1.587.482-4.176-.214-5.631z" fill="#2f2f2f"/><path d="M105.734 54.958c-.695.251-1.134.914-1.343 2.043-.234 1.302-.15 2.93.186 4.162.393 1.432 1.47 1.819 2.216 1.063.201-.201.378-.49.513-.863.56-1.586.477-4.175-.219-5.631-.308-.633-.868-.946-1.353-.774z" fill="#2f2f2f"/><path d="M97.765 51.492c-.634.303-.951.863-.773 1.353.252.695.914 1.133 2.043 1.339 1.296.238 2.925.154 4.161-.182 1.432-.392 1.819-1.469 1.063-2.216-.2-.2-.489-.378-.863-.509-1.586-.564-4.175-.48-5.631.215z" fill="#2f2f2f"/><path d="M99.035 41.546c1.296.238 2.925.154 4.161-.182 1.432-.392 1.819-1.47 1.063-2.216-.2-.201-.489-.378-.863-.508-1.586-.56-4.175-.48-5.631.215-.634.303-.951.867-.773 1.353.251.699.913 1.138 2.043 1.338z" fill="#2f2f2f"/><path d="M103.396 63.911c-1.586-.56-4.175-.48-5.631.219-.634.303-.951.863-.773 1.353.252.695.914 1.134 2.043 1.338 1.296.239 2.925.154 4.161-.182 1.432-.392 1.819-1.474 1.063-2.216-.2-.199-.489-.377-.863-.512z" fill="#2f2f2f"/></g><circle cx="27.102" cy="89.677" r="6.974" fill="#fff"/><path d="M49.905 95.159c-1.624-2.165-1.237-4.548-1.086-6.975l.056-.522c.206-1.04.858-1.941 2.174-2.225 1.768-.392 4.422 1.264 5.771 2.043 1.879 1.082 2.812 2.72 1.562 4.451-1.11 1.53-3.647 4.002-5.916 4.291-1.004.131-2.053-.382-2.561-1.063z" fill="#fff"/><path d="M56.842 80.873c1.483-1.791 4.856-1.978 6.867-1.978 1.083 0 2.169.103 3.237.28 1.344.224 3.938.657 4.246 2.557.148.923-.718 1.74-1.255 2.291-1.913 1.987-4.063 3.96-6.849 3.34-2.038-.453-4.898-1.81-6.167-3.76-.55-.845-.764-1.894-.079-2.73z" fill="#fff"/><path d="M66.947 102.026c-1.068.177-2.155.28-3.237.28-2.011 0-5.384-.187-6.867-1.978-.686-.835-.471-1.885.079-2.73 1.269-1.95 4.129-3.307 6.167-3.76 2.786-.621 4.937 1.353 6.849 3.34.537.55 1.403 1.367 1.255 2.29-.308 1.9-2.902 2.334-4.246 2.558z" fill="#fff"/><path d="M78.027 95.159c-.51.681-1.558 1.194-2.562 1.063-2.266-.289-4.804-2.762-5.915-4.291-1.25-1.731-.317-3.369 1.558-4.451 1.354-.779 4.007-2.435 5.776-2.043 1.315.284 1.968 1.185 2.169 2.225l.06.522c.15 2.426.537 4.81-1.086 6.975z" fill="#fff"/><circle cx="100.896" cy="89.677" r="6.974" fill="#fff"/></g></svg>