<svg id="レイヤー_1" xmlns="http://www.w3.org/2000/svg" viewBox="0 0 128 128"><g><g><g><g><path d="M118.592 76.923c-.283-6.334-2.421-10.45-6.296-14.025-9.675-8.93-21.335-17.46-32.068-25.094-4.979-3.542-10.518-8.209-16.285-10.371-8.13-3.055-17.321-1.963-26.026-.733-3.804.533-7.629 1.142-11.372 2.029-4.341 1.029-9.496 2.263-13.175 4.867-3.304 2.342-2.896 5.279-1.275 7.987.242 1.246.008 2.434.017 3.7a28.06 28.06 0 0 1-.834 7.101c-.366 1.434-.858 2.809-1.333 4.209-1.842 5.417 3.28 9.95 7.076 13.093 2.125 1.758 4.4 3.333 6.542 5.079 8.304 6.763 16.831 12.876 25.327 19.31 9.968 7.551 13.771 10.176 26.21 5.934 3.358-1.142 6.792-2.059 10.226-2.938 4.863-1.25 11.33-2.43 16.068-4.092 4.796-1.684 10.988-3.913 14.509-7.759 1.758-1.921 2.517-4.663 2.533-7.222.109-.316.172-.667.156-1.075z" fill="#fff"/><path d="M20.639 36.054c4.788-2.021 23.589-4.934 27.735-5.417 3.521-.408 7.946-.971 11.438-.454 1.404.233 5.925 2.596 10.626 5.788 9.601 6.525 34.923 25.514 36.522 26.984.425.393 3.909 3.709 2.155 3.692-1.775-.017-3.542.1-5.3.309-2.996.354-20.51 4.525-28.456 6.467-1.575.384-5.825 1.175-7.005 1.413-3.333.675-6.051-.388-8.775-2.288-5.667-3.95-40.928-31.123-41.852-33.04-.659-1.37.688-2.517 2.912-3.454z" fill="#bdcf46"/><path d="M119.45 70.265c-1.101-2.884-3.688-5.163-6.034-7.334-10.709-9.884-21.972-17.98-33.781-26.489-3.034-2.188-5.997-4.296-9.154-6.313-1.563-.995-3.501-1.837-5.159-2.666-5.504-2.751-11.214-2.546-17.16-1.867-10.812 1.237-21.26 1.601-31.643 5.154-2.892.992-5.726 2.367-6.392 5.854-.263 1.413.517 3.796 1.025 5.071.396.976-2.934 13.163-3.429 14.618-1.238 3.642.546 6.9 3.029 9.634 1.363 1.5 39.619 30.989 40.582 31.693 3.646 2.684 6.537 4.525 9.629 5.409 3.909 1.12 8.143.7 14.626-1.509 2.609-.892 23.586-6.097 35.248-10.705 3.98-1.57 6.258-3.684 7.192-4.704 1.134-1.237 1.867-2.812 2.267-4.463a13.47 13.47 0 0 0 .372-3.059c.107-.328-.426-6.241-1.218-8.324zM20.639 36.054c4.788-2.021 23.589-4.934 27.735-5.417 3.521-.408 7.946-.971 11.438-.454 1.404.233 5.925 2.596 10.626 5.788 9.601 6.525 34.923 25.514 36.522 26.984.425.393 3.909 3.709 2.155 3.692-1.775-.017-3.542.1-5.3.309-2.996.354-20.51 4.525-28.456 6.467-1.575.384-5.825 1.175-7.005 1.413-3.333.675-6.051-.388-8.775-2.288-5.667-3.95-40.928-31.123-41.852-33.04-.659-1.37.688-2.517 2.912-3.454zm-4.037 28.152c-.979-.992-4.834-3.547-3.788-6.776 1.137-3.487 2.221-9.129 2.463-12.858 4.354 3.496 44.948 34.485 47.47 35.202 1.571 4.888 1.592 10.376-.15 15.205-.241.671-.434 1.321-.721 1.967-1.121-.417-2.208-1-3.388-1.726-1.88-1.166-38.599-27.701-41.886-31.014zm94.64 20.326c-3.65 2.6-9.159 3.65-12.759 4.717-7.727 2.292-15.523 4.379-23.332 6.371-2.325.592-4.67 1.296-7.042 1.691.438-.967.808-1.954 1.071-3.004.695-2.763.833-5.722.529-8.542-.158-1.45-.217-4.092-.562-5.501.408-.033 9.967-2.291 17.522-4.213 7.684-1.958 16.593-4.667 21.947-4.771 2.117-.042 3.679.938 4.387 1.517 1.867 1.533 2.292 4.362 1.83 6.613-.458 2.201-1.799 3.847-3.591 5.122z" fill="#2f2f2f"/></g></g></g><path d="M31.278 57.685c5.8 4.454 20.942 16.021 27.91 21.335 2.209 1.688 4.691 3.429 9.726 2.517 5.033-.917 36.464-9.06 36.464-9.06 2.867-.745 6.046-.954 8.984-.554a9.131 9.131 0 0 1 3.063.979c.334.179.692.366.992.604.162.134.275.305.45.421 2.316 1.575.896-3.138.633-3.783-.637-1.555-1.516-3.005-2.537-4.338a23.267 23.267 0 0 0-2.692-2.946c-10.713-9.888-22.543-18.446-34.352-26.956-3.034-2.188-6.025-4.462-9.18-6.475-1.562-.996-3.138-1.979-4.797-2.809-5.504-2.75-11.663-2.472-17.601-1.792-10.817 1.237-21.63 1.846-32.014 5.4-2.896.991-6.392 2.854-7.051 6.342-.266 1.413-.266 3.867 2.222 6.063 1.812 1.604 12.138 9.184 19.78 15.052z" fill="#ed6c30"/></g></svg>