<svg id="レイヤー_1" xmlns="http://www.w3.org/2000/svg" xmlns:xlink="http://www.w3.org/1999/xlink" viewBox="0 0 128 128"><g><g><path d="M118.248 49.333c-2.285-3.481-1.927-7.629-2.081-11.655.639-1.901.803-3.819-.225-5.578-2.07-3.525-46.359-27.804-52.031-29.025-1.997-.433-6.126-1.906-8.926 1.338-12.9 14.952-44.429 62.543-45.552 69.684-.631 4 .307 9.863 4.86 13.138.212.15 19.151 13.22 29.104 20.08a669.252 669.252 0 0 0 18.382 12.242c3.016 1.927 11.677 8.726 15.45 4.955 9.149-9.137 38.262-64.935 40.198-69.777.337-.852.635-1.698.881-2.545.043-.143.061-.276.078-.414.39-.694.442-1.562-.138-2.443z" fill="#fff"/><path d="M72.231 106.945c-.277.087-.57.144-.899.156-1.028.048-2.061-1.128-2.89-1.715-2.009-1.431-3.944-2.977-5.975-4.381-11.405-7.88-36.643-23.722-37.563-24.262-1.966-1.171-3.988-2.354-6.174-2.645-.911-.12-2.985.117-3.128-1.209-.129-1.309 1.396-3.033 1.953-4.143 1.045-2.065 2.195-4.084 3.369-6.075 3.698-6.241 7.733-12.294 11.808-18.299 4.229-6.239 8.558-12.412 12.882-18.582 2.985-4.242 6.026-8.449 8.865-12.787 3.149-5.607 7.47-5.914 9.496-5.357 8.411 2.298 43.041 24.538 44.804 25.346 1.3.602 2.497 1.529 2.039 3.119-.787 2.727-27.74 54.109-30.5 59.13a169.623 169.623 0 0 1-4.324 7.413c-1.007 1.626-1.901 3.704-3.763 4.291z" fill="#ed6c30"/><g><path d="M119.683 48.948c-2.341-3.577-1.97-7.837-2.134-11.966.657-1.949.242-3.452-.816-5.258-2.121-3.621-46.619-28.327-52.446-29.584-2.043-.44-6.286-1.953-9.159 1.374C41.887 18.863 9.598 67.348 8.44 74.675c-.648 4.104-.138 9.815 4.545 13.176.216.151 19.656 13.57 29.869 20.606a694.185 694.185 0 0 0 18.87 12.568c3.094 1.983 11.984 8.96 15.855 5.088 9.392-9.378 39.282-66.653 41.261-71.622.35-.873.652-1.745.912-2.614.043-.146.057-.284.078-.423.397-.713.45-1.602-.147-2.506zM19.776 86.559c-3.987-2.332-4.756-4.669-4.355-6.03.688-2.385 3.699-2.515 5.725-1.581 3.158 1.452 6.843 4.216 7.72 4.817 5.823 3.966 41.11 28.05 41.11 28.05s.7 6.855.527 8.109c-.38-.178-48.151-31.862-50.727-33.365zm56.283 33.334c-.536-.738-.545-2.164-.579-2.945-.017-.528.017-1.064.026-1.59.008-.429.448-5.993-.061-5.427.035-.043 34.569-62.062 37.779-68.711.264 1.434-.358 7.003 1.158 9.236-1.827 6.359-31.753 59.665-38.323 69.437z" fill="#2f2f2f"/></g><path fill="#fff" d="M113.312 39.941l-40.156 71.346-49.988-32.896-8.118-1.281-2.561 4.269 3.844 6.411L72.3 122.822l5.124-.427 40.963-70.621z"/></g><g><defs><path id="SVGID_1_" d="M8.026 78.692c.104.35.268.652.536.825.406.259 1.063.139 1.418-.155.401-.333.769-.726 1.266-.93.557-.229 1.257-.263 1.853-.272 1.33-.021 2.665.377 3.918.791 2.645.882 4.998 1.975 7.301 3.539 2.104 1.296 3.962 2.67 4.549 3.071 1.063.725 3.115 2.121 5.746 3.918l31.8 21.596c8.48 5.35 11.422-1.658 11.422-1.658L112.97 46.23l4.58-9.248c.657-1.949.821-3.919-.232-5.725-2.124-3.62-47.588-28.537-53.406-29.795-2.048-.44-6.291-1.953-9.164 1.374a132.83 132.83 0 0 0-4.234 5.197 313.666 313.666 0 0 0-5.007 6.618 438.64 438.64 0 0 0-5.521 7.659 656.95 656.95 0 0 0-5.785 8.312 776.252 776.252 0 0 0-5.785 8.588 668.617 668.617 0 0 0-5.529 8.476 455.971 455.971 0 0 0-5.02 7.988 284.969 284.969 0 0 0-4.259 7.115 147.141 147.141 0 0 0-3.231 5.854 57.53 57.53 0 0 0-1.214 2.468c-.816 1.787-1.318 3.731-1.292 5.719 0 .481-.018 1.244.155 1.862z"/></defs><use xlink:href="#SVGID_1_" overflow="visible" fill="#ed6c30"/><clipPath id="SVGID_2_"><use xlink:href="#SVGID_1_" overflow="visible"/></clipPath><g clip-path="url(#SVGID_2_)"><g><defs><path id="SVGID_3_" d="M70.374 2.123l-51.073 79.02 20.193 14.946 51.072-84.316z"/></defs><use xlink:href="#SVGID_3_" overflow="visible" fill="#bdcf46"/><clipPath id="SVGID_4_"><use xlink:href="#SVGID_3_" overflow="visible"/></clipPath></g></g></g></g></svg>