<svg xmlns="http://www.w3.org/2000/svg" xmlns:xlink="http://www.w3.org/1999/xlink" viewBox="0 0 128 128"><g id="图层_1"><g><g><g fill="#006ca2"/></g><g><g><g><defs/><use xlink:href="#SVGID_1_" overflow="visible" fill="#fcd4b5"/><clipPath id="SVGID_2_"><use xlink:href="#SVGID_1_" overflow="visible"/></clipPath></g></g><g/></g></g><g><path d="M6.894 123.117V8.138a3.064 3.064 0 0 1 3.064-3.063h89.041a3.065 3.065 0 0 1 3.064 3.063v114.979a3.065 3.065 0 0 1-3.064 3.065H9.958a3.064 3.064 0 0 1-3.064-3.065z" fill="#b0bec5"/><path d="M4.138 120.361V5.382a3.064 3.064 0 0 1 3.064-3.063h89.041a3.065 3.065 0 0 1 3.064 3.063v114.979a3.065 3.065 0 0 1-3.064 3.065H7.202a3.064 3.064 0 0 1-3.064-3.065z" fill="#e0e0e0"/><g fill="none" stroke="#616161" stroke-width="5" stroke-linecap="round" stroke-linejoin="round" stroke-miterlimit="10"><path d="M17.555 28.648h68.334"/><path d="M17.555 43.906h68.334"/><path d="M17.555 59.164h68.334"/><path d="M17.555 74.422h68.334"/><path d="M17.555 89.68H46.78"/></g><g><path transform="rotate(45.001 94.93 27.152)" fill="#eee" d="M90.864 22.386h8.131v9.533h-8.131z"/><path transform="rotate(45.001 101.87 34.091)" fill="#c5c5c5" d="M96.121 29.325h11.496v9.533H96.121z"/><path transform="rotate(45.001 108.81 41.03)" fill="#e0e0e0" d="M104.742 36.265h8.131v9.533h-8.131z"/><path d="M109.264 13.413a4.487 4.487 0 0 0-6.345 0l-7.495 7.495 5.75 5.75 10.667-10.667-2.577-2.578z" fill="#e95f5d"/><path d="M122.548 26.697l-2.577-2.577-10.667 10.667 5.75 5.75 7.495-7.495a4.488 4.488 0 0 0-.001-6.345z" fill="#d64545"/><path transform="rotate(-45.001 110.573 25.39)" fill="#df4c49" d="M103.03 19.64h15.085v11.496H103.03z"/><path fill="none" d="M72.624 82.965l-5.75-5.749 3.371 3.37z"/><path d="M58.749 69.083l35.684-35.684-5.75-5.75-35.687 35.688.006.006-1.945 6.699c.456.456 1.457.914 6.281-.966.831-.324 1.361-.021 1.4.003l.007.007.003-.003.005.003-.004-.003z" fill="#ffd05f"/><path fill="#f59252" d="M49.337 84.057l-.069-.069v.001l.067.067z"/><path d="M49.29 84.036c.006.015.012.04.019.061l.026-.042a.326.326 0 0 1-.045-.019z" fill="#f59252"/><path transform="rotate(-57.825 49.323 84.08)" fill="#f59252" d="M49.298 84.076h.049v.003h-.049z"/><path d="M58.753 69.087l-9.416 14.971-.027.042a.688.688 0 0 1-.029.448c-.714 1.898-.526 2.297-.342 2.481.183.184.583.371 2.481-.342a.702.702 0 0 1 .448-.029l.043-.027 14.971-9.416-8.129-8.128z" fill="#f59252"/><path transform="scale(-1) rotate(-32.175 -300.438 179.932)" fill="#f59252" d="M51.867 86.644h.049v.003h-.049z"/><path d="M52.123 88.919a.514.514 0 0 1-.232-.127c-.145-.145-.308-.444.071-1.756a.453.453 0 0 0-.029-.358c-.015-.006-.04-.012-.061-.019l-.003-.001a.688.688 0 0 0-.448.029c-1.898.714-2.297.526-2.481.342-.184-.183-.371-.583.342-2.481a.702.702 0 0 0 .029-.448l-.001-.003c-.006-.022-.012-.046-.019-.061a.444.444 0 0 0-.358-.029c-1.312.378-1.611.215-1.756.071a.496.496 0 0 1-.127-.23l-.003-.009-1.553 5.35a1.038 1.038 0 0 0 1.287 1.287l5.35-1.553-.008-.004z" fill="#333"/><path d="M51.933 86.678c-.007-.012-.02-.045-.02-.045l-.042.026c.022.007.047.013.062.019z" fill="#f59252"/><path fill="#e5823b" d="M52.123 88.919l.007.004 1.606-.466-.004-.005z"/><path d="M66.882 77.216l-14.971 9.416.002.002.067.067s-.018-.01-.048-.022c.028.05.083.17.029.358-.378 1.312-.215 1.612-.071 1.756a.514.514 0 0 0 .232.127l1.608-.467 18.9-5.487-5.748-5.75z" fill="#e5823b"/><path d="M51.98 86.701l-.067-.067s.013.033.02.045a.5.5 0 0 1 .047.022z" fill="#e5823b"/><path d="M58.753 69.087s-.552-.347-1.415-.01c-4.824 1.88-5.825 1.422-6.281.966l-3.54 12.195-.468 1.611c.032.113.08.182.127.23.145.145.444.308 1.756-.071a.453.453 0 0 1 .358.029.38.38 0 0 0-.022-.047l.069.069 9.416-14.972z" fill="#f9a371"/><path d="M49.335 84.056l-.067-.067s.01.018.022.047c.013.007.045.02.045.02z" fill="#f9a371"/><path d="M94.434 33.398L58.745 69.087l8.129 8.129 35.688-35.688-8.128-8.13zm-35.688 35.69s.421.66.038 1.679c-2.139 5.69-1.576 6.886-1.026 7.436.55.55 1.746 1.113 7.436-1.026 1.019-.383 1.68.039 1.68.039l-4.064-4.063-4.064-4.065z" fill="#ffbf24"/><path d="M102.563 41.527L66.874 77.216l5.75 5.75 35.688-35.688-5.749-5.751zM66.874 77.216s.347.552.01 1.415c-1.88 4.824-1.422 5.825-.966 6.281l6.705-1.947-2.379-2.379-3.37-3.37z" fill="#eba81b"/></g></g></g></svg>