<svg id="レイヤー_1" xmlns="http://www.w3.org/2000/svg" viewBox="0 0 128 128"><g><g><g><g><g><path d="M109.98 98.534c-.279-6.248-2.388-10.308-6.209-13.834-9.544-8.808-21.044-17.221-31.631-24.751-4.912-3.493-10.373-8.096-16.062-10.23-8.02-3.013-17.085-1.936-25.672-.724-3.752.526-7.525 1.127-11.22 2.002-4.279 1.015-9.363 2.231-12.992 4.8-3.258 2.31-2.856 5.208-1.257 7.878.238 1.23.008 2.401.017 3.651a27.754 27.754 0 0 1-.823 7.003c-.357 1.414-.85 2.77-1.314 4.151C1 83.825 6.051 88.296 9.795 91.395c2.101 1.734 4.34 3.288 6.449 5.01 8.196 6.67 16.604 12.7 24.985 19.047 9.831 7.447 13.584 10.036 25.851 5.853 3.314-1.127 6.696-2.031 10.086-2.898 4.796-1.232 11.176-2.396 15.848-4.036 4.731-1.66 10.838-3.858 14.312-7.653 1.738-1.895 2.481-4.599 2.494-7.122.117-.314.178-.659.16-1.062z" fill="#fff"/><path d="M13.368 58.223c4.717-1.994 23.27-4.866 27.356-5.343 3.473-.402 7.837-.957 11.281-.448 1.385.231 5.849 2.56 10.476 5.708 9.47 6.437 34.451 25.167 36.03 26.617.42.387 3.854 3.658 2.124 3.642a41.048 41.048 0 0 0-5.227.304c-2.956.349-20.231 4.463-28.068 6.379-1.554.378-5.747 1.159-6.91 1.394-3.283.665-5.966-.383-8.655-2.256-5.589-3.896-40.373-30.698-41.277-32.588-.653-1.354.673-2.485 2.87-3.409z" fill="#bdcf46"/><path d="M110.828 91.966c-1.085-2.844-3.637-5.092-5.951-7.233-10.563-9.749-21.672-17.735-33.32-26.127-2.992-2.158-5.917-4.238-9.029-6.227-1.542-.983-3.452-1.813-5.093-2.631-5.425-2.712-11.056-2.511-16.916-1.841-10.67 1.22-20.978 1.578-31.22 5.083-2.848.978-5.643 2.335-6.296 5.774-.263 1.394.505 3.745 1.006 5.002.391.961-2.894 12.983-3.382 14.418-1.221 3.592.535 6.807 2.988 9.502 1.344 1.48 39.083 30.567 40.026 31.261 3.597 2.647 6.45 4.465 9.499 5.336 3.856 1.105 8.031.69 14.427-1.488 2.573-.879 23.258-6.013 34.767-10.559 3.92-1.549 6.174-3.633 7.094-4.64 1.118-1.221 1.841-2.775 2.235-4.402.243-.995.357-2.017.366-3.017.111-.324-.42-6.156-1.201-8.211zm-97.46-33.743c4.717-1.994 23.27-4.866 27.356-5.343 3.473-.402 7.837-.957 11.281-.448 1.385.231 5.849 2.56 10.476 5.708 9.47 6.437 34.451 25.167 36.03 26.617.42.387 3.854 3.658 2.124 3.642a41.048 41.048 0 0 0-5.227.304c-2.956.349-20.231 4.463-28.068 6.379-1.554.378-5.747 1.159-6.91 1.394-3.283.665-5.966-.383-8.655-2.256-5.589-3.896-40.373-30.698-41.277-32.588-.653-1.354.673-2.485 2.87-3.409zM9.389 85.99c-.97-.978-4.776-3.497-3.74-6.683 1.122-3.44 2.194-9.005 2.429-12.684 4.295 3.448 44.335 34.014 46.822 34.722 1.549 4.821 1.57 10.234-.148 14.997-.238.662-.427 1.304-.711 1.94-1.105-.411-2.178-.986-3.338-1.701-1.858-1.15-38.076-27.324-41.314-30.591zm93.346 20.049c-3.604 2.565-9.034 3.602-12.588 4.653-7.62 2.261-15.311 4.319-23.013 6.283-2.293.585-4.607 1.279-6.945 1.67.432-.954.796-1.928 1.056-2.965.687-2.725.818-5.642.523-8.425-.157-1.43-.214-4.036-.555-5.425.402-.033 9.83-2.261 17.281-4.155 7.579-1.932 16.368-4.604 21.645-4.706 2.091-.041 3.633.925 4.331 1.496 1.841 1.512 2.261 4.303 1.804 6.522-.447 2.17-1.772 3.794-3.539 5.052z" fill="#2f2f2f"/></g></g></g><path d="M23.861 79.558c5.724 4.394 20.66 15.803 27.524 21.043 2.178 1.665 4.631 3.382 9.596 2.482 4.965-.903 35.967-8.935 35.967-8.935 2.828-.735 5.964-.941 8.861-.546a9.009 9.009 0 0 1 3.021.965c.33.177.683.362.978.596.16.132.271.3.439.416 2.29 1.553.889-3.095.629-3.732-.629-1.533-1.496-2.963-2.502-4.278a22.915 22.915 0 0 0-2.655-2.907C95.155 74.91 83.484 66.467 71.836 58.075c-2.992-2.158-5.943-4.402-9.054-6.387-1.542-.982-3.095-1.952-4.73-2.771-5.43-2.712-11.5-2.437-17.361-1.767-10.669 1.221-21.335 1.821-31.577 5.327-2.857.978-6.305 2.815-6.954 6.255-.263 1.393-.263 3.814 2.191 5.98 1.791 1.583 11.966 9.059 19.51 14.846z" fill="#bdcf46"/></g><g><g><g><g><path d="M125.71 71.962c-.279-6.248-2.388-10.308-6.21-13.834-9.544-8.808-21.043-17.221-31.635-24.751-4.907-3.493-10.365-8.097-16.057-10.23-8.02-3.013-17.085-1.936-25.676-.723-3.748.526-7.521 1.126-11.211 2.002-4.282 1.015-9.366 2.231-12.997 4.8-3.258 2.31-2.86 5.208-1.257 7.879.239 1.229.008 2.401.016 3.65a27.72 27.72 0 0 1-.822 7.004c-.357 1.414-.846 2.77-1.315 4.151-1.817 5.343 3.233 9.814 6.979 12.914 2.095 1.734 4.34 3.289 6.452 5.01 8.191 6.671 16.6 12.701 24.98 19.046 9.832 7.448 13.584 10.037 25.853 5.853 3.312-1.126 6.699-2.03 10.086-2.897 4.797-1.233 11.171-2.396 15.849-4.036 4.727-1.661 10.842-3.859 14.312-7.653 1.734-1.895 2.482-4.599 2.499-7.123.109-.314.171-.659.154-1.062z" fill="#fff"/><path d="M29.1 31.651c4.719-1.993 23.263-4.866 27.357-5.342 3.468-.403 7.833-.958 11.276-.448 1.387.23 5.849 2.561 10.481 5.708 9.466 6.437 34.447 25.166 36.021 26.617.423.386 3.855 3.658 2.129 3.642a41.291 41.291 0 0 0-5.228.304c-2.952.35-20.229 4.464-28.067 6.379-1.554.378-5.746 1.159-6.91 1.393-3.284.667-5.967-.382-8.655-2.256-5.59-3.896-40.369-30.697-41.277-32.588-.653-1.353.674-2.484 2.873-3.409z" fill="#bdcf46"/><path d="M126.557 67.379c-1.085-2.848-3.637-5.097-5.951-7.233-10.563-9.753-21.671-17.738-33.32-26.132-2.996-2.157-5.918-4.237-9.029-6.222-1.545-.982-3.453-1.812-5.088-2.631-5.435-2.712-11.06-2.511-16.925-1.841-10.663 1.222-20.97 1.579-31.211 5.085-2.853.978-5.647 2.33-6.301 5.774-.263 1.39.505 3.744 1.007 5.002.391.962-2.894 12.979-3.383 14.415-1.22 3.591.539 6.81 2.988 9.506 1.344 1.479 39.082 30.566 40.028 31.261 3.596 2.643 6.449 4.463 9.499 5.335 3.854 1.102 8.031.691 14.425-1.492 2.573-.876 23.263-6.009 34.767-10.555 3.925-1.55 6.173-3.638 7.094-4.64 1.117-1.225 1.841-2.774 2.235-4.402.243-.995.358-2.022.367-3.017.11-.329-.421-6.158-1.202-8.213zM29.1 33.632c4.719-1.99 23.263-4.862 27.357-5.339 3.468-.406 7.833-.957 11.276-.448 1.387.231 5.849 2.561 10.481 5.709 9.466 6.437 34.447 25.166 36.021 26.616.423.386 3.855 3.658 2.129 3.641a40.92 40.92 0 0 0-5.228.3c-2.952.353-20.229 4.467-28.067 6.383-1.554.378-5.746 1.155-6.91 1.389-3.284.666-5.967-.378-8.655-2.252-5.59-3.9-40.369-30.702-41.277-32.592-.653-1.351.674-2.482 2.873-3.407zM25.118 61.4c-.97-.978-4.776-3.494-3.736-6.683 1.118-3.44 2.19-9.001 2.424-12.679 4.296 3.444 44.336 34.01 46.822 34.722 1.55 4.817 1.571 10.233-.148 14.993-.237.662-.427 1.307-.711 1.94-1.104-.411-2.182-.986-3.336-1.702C64.57 90.84 28.356 64.667 25.118 61.4zm93.342 20.048c-3.6 2.565-9.029 3.604-12.584 4.657-7.621 2.256-15.31 4.315-23.013 6.28-2.297.588-4.606 1.282-6.945 1.668.432-.953.793-1.927 1.056-2.962.686-2.725.823-5.644.526-8.426-.161-1.431-.218-4.032-.559-5.421.402-.033 9.831-2.265 17.283-4.159 7.579-1.928 16.361-4.604 21.647-4.707 2.087-.041 3.629.925 4.322 1.501 1.842 1.508 2.267 4.303 1.81 6.522-.447 2.17-1.775 3.793-3.543 5.047z" fill="#2f2f2f"/></g></g></g><path d="M39.589 52.986a17079.41 17079.41 0 0 0 27.529 21.043c2.179 1.666 4.628 3.383 9.593 2.483 4.964-.905 35.967-8.935 35.967-8.935 2.823-.735 5.964-.941 8.858-.546a8.946 8.946 0 0 1 3.024.966c.33.176.683.361.979.596.16.131.272.3.443.415 2.286 1.554.88-3.094.624-3.731-.628-1.533-1.495-2.963-2.502-4.279a23.064 23.064 0 0 0-2.655-2.906c-10.566-9.752-22.235-18.195-33.883-26.587-2.996-2.158-5.943-4.402-9.054-6.387-1.541-.983-3.095-1.953-4.735-2.77-5.425-2.713-11.5-2.438-17.356-1.768-10.671 1.22-21.337 1.819-31.579 5.325-2.856.979-6.305 2.815-6.954 6.256-.263 1.394-.263 3.814 2.19 5.98 1.789 1.582 11.973 9.059 19.511 14.845z" fill="#006ca2"/></g><g><g><g><g><path d="M115.929 54.959c-.28-6.247-2.384-10.308-6.206-13.834-9.544-8.808-21.043-17.221-31.631-24.75-4.911-3.494-10.374-8.097-16.062-10.23-8.019-3.013-17.09-1.936-25.672-.724-3.757.526-7.525 1.127-11.216 2.002-4.283 1.016-9.368 2.232-12.996 4.801-3.259 2.31-2.857 5.208-1.257 7.879.233 1.229.008 2.4.016 3.649a27.53 27.53 0 0 1-.826 7.003c-.353 1.413-.842 2.77-1.311 4.151-1.815 5.343 3.235 9.815 6.979 12.914 2.1 1.734 4.339 3.288 6.453 5.01 8.191 6.67 16.6 12.699 24.976 19.046 9.832 7.447 13.588 10.036 25.857 5.853 3.312-1.126 6.694-2.031 10.086-2.898 4.796-1.233 11.174-2.396 15.842-4.036 4.736-1.661 10.844-3.859 14.317-7.653 1.733-1.895 2.481-4.599 2.498-7.123.112-.312.173-.657.153-1.06z" fill="#fff"/><path d="M19.319 14.648c4.722-1.993 23.266-4.866 27.355-5.343 3.474-.403 7.838-.958 11.283-.448 1.385.231 5.848 2.561 10.48 5.709 9.466 6.436 34.446 25.165 36.024 26.616.419.386 3.854 3.658 2.125 3.642a40.934 40.934 0 0 0-5.228.304c-2.956.349-20.234 4.463-28.068 6.379-1.554.377-5.746 1.158-6.908 1.393-3.285.666-5.969-.382-8.657-2.256-5.589-3.896-40.369-30.698-41.277-32.589-.652-1.351.675-2.482 2.871-3.407z" fill="#bdcf46"/><path d="M116.775 48.392c-1.081-2.845-3.634-5.093-5.948-7.234-10.562-9.749-21.672-17.734-33.319-26.127-2.993-2.158-5.918-4.237-9.03-6.226-1.541-.983-3.451-1.813-5.087-2.631C57.96 3.46 52.33 3.663 46.469 4.332c-10.67 1.22-20.974 1.578-31.215 5.084-2.854.978-5.647 2.334-6.302 5.774-.263 1.394.502 3.745 1.009 5.002.389.962-2.898 12.983-3.384 14.418-1.22 3.591.541 6.806 2.989 9.502 1.343 1.479 39.081 30.566 40.028 31.261 3.596 2.646 6.449 4.463 9.499 5.335 3.855 1.106 8.031.691 14.426-1.488 2.577-.88 23.263-6.013 34.767-10.559 3.925-1.55 6.172-3.633 7.094-4.641 1.118-1.221 1.842-2.774 2.235-4.401.243-.995.354-2.019.365-3.017.11-.324-.42-6.156-1.205-8.21zM19.319 14.648c4.722-1.993 23.266-4.866 27.355-5.343 3.474-.403 7.838-.958 11.283-.448 1.385.231 5.848 2.561 10.48 5.709 9.466 6.436 34.446 25.165 36.024 26.616.419.386 3.854 3.658 2.125 3.642a40.934 40.934 0 0 0-5.228.304c-2.956.349-20.234 4.463-28.068 6.379-1.554.377-5.746 1.158-6.908 1.393-3.285.666-5.969-.382-8.657-2.256-5.589-3.896-40.369-30.698-41.277-32.589-.652-1.351.675-2.482 2.871-3.407zm-3.98 27.768c-.97-.978-4.776-3.498-3.739-6.683 1.121-3.44 2.194-9.005 2.429-12.684 4.295 3.448 44.334 34.014 46.822 34.721 1.549 4.822 1.565 10.234-.148 14.998-.238.661-.428 1.303-.711 1.94-1.106-.411-2.178-.986-3.338-1.702-1.858-1.151-38.075-27.323-41.315-30.59zm93.348 20.048c-3.605 2.564-9.034 3.6-12.589 4.652-7.62 2.261-15.31 4.319-23.012 6.285-2.294.583-4.608 1.278-6.946 1.668.431-.953.797-1.927 1.056-2.963.686-2.725.822-5.643.521-8.425-.156-1.43-.213-4.036-.555-5.426.403-.032 9.828-2.259 17.284-4.154 7.578-1.932 16.366-4.603 21.647-4.707 2.092-.041 3.629.925 4.328 1.497 1.841 1.513 2.261 4.303 1.804 6.522-.448 2.17-1.775 3.794-3.538 5.051z" fill="#2f2f2f"/></g></g></g><path d="M29.81 35.983a17411.2 17411.2 0 0 0 27.53 21.043c2.177 1.665 4.627 3.383 9.592 2.482 4.965-.904 35.966-8.935 35.966-8.935 2.828-.735 5.963-.941 8.861-.547a9.016 9.016 0 0 1 3.022.966c.329.177.682.362.977.596.161.131.272.3.445.415 2.285 1.554.884-3.095.624-3.732-.628-1.533-1.495-2.963-2.503-4.278a23.14 23.14 0 0 0-2.655-2.906C101.108 31.334 89.435 22.893 77.788 14.5c-2.993-2.158-5.943-4.402-9.059-6.387-1.538-.982-3.09-1.952-4.726-2.77-5.429-2.713-11.5-2.438-17.362-1.768-10.669 1.221-21.334 1.822-31.572 5.327-2.861.978-6.312 2.816-6.963 6.255-.263 1.393-.263 3.814 2.195 5.98 1.792 1.583 11.972 9.059 19.509 14.846z" fill="#ed6c30"/></g><g><path d="M39.65 24.545a6.363 6.363 0 0 1-2.506-.822c-1.608-.945-3.417-2.347-4.431-3.835-1.188-1.738.197-2.379 1.953-2.823 2.425-.604 4.911-.995 7.402-1.323 2.56-.337 5.182-.535 7.743-.875 1.957-.268 3.967-.453 5.911-.637 1.171-.103 2.413-.3 3.555.061 1.176.375 2.239 1.189 3.141 1.965 1.002.855 2.079 1.648 2.91 2.664.229.292.488.563.574.933.054.221.07.362-.053.551-.326.481-1.217.81-1.78.871-3.099.35-6.028 1.225-9.079 1.767-2.692.481-5.479.601-8.195.925-1.389.169-2.791.271-4.188.407-.992.097-1.961.291-2.957.171z" fill="#fff"/></g></g></svg>