<svg id="レイヤー_1" xmlns="http://www.w3.org/2000/svg" viewBox="0 0 128 128"><g><path d="M118.093 15.953a9.838 9.838 0 0 1-.639.485c-.422.3-.851.603-1.267.903-2.059 1.465-4.122 2.928-6.182 4.393l-.061.052 4.2 5.88c.566.79.387 1.888-.407 2.452a1.76 1.76 0 0 1-2.451-.405l-4.217-5.889c-.842.603-1.687 1.204-2.537 1.806l1.46 2.036a1.756 1.756 0 0 1-1.425 2.781c-.55 0-1.09-.255-1.438-.734l-1.459-2.044c-.069.049-.142.1-.21.15-.776.551-1.549 1.101-2.321 1.652l1.468 2.055a1.76 1.76 0 0 1-1.434 2.778 1.755 1.755 0 0 1-1.429-.735l-1.472-2.06c-.849.601-1.69 1.202-2.535 1.805l4.247 5.925a1.76 1.76 0 0 1-1.428 2.78 1.76 1.76 0 0 1-1.43-.733l-4.257-5.937c-.845.603-1.69 1.204-2.535 1.805l1.498 2.085a1.76 1.76 0 0 1-1.43 2.78 1.76 1.76 0 0 1-1.429-.733l-1.506-2.094c-.841.601-1.69 1.202-2.531 1.805l1.502 2.1a1.756 1.756 0 0 1-1.424 2.781c-.549 0-1.09-.255-1.434-.734l-1.51-2.111c-.202.146-.408.292-.613.438-.64.454-1.278.911-1.919 1.366l4.274 5.979a1.75 1.75 0 0 1-1.42 2.78 1.773 1.773 0 0 1-1.437-.734l-4.282-5.987c-.85.603-1.69 1.204-2.54 1.804l1.536 2.132a1.761 1.761 0 0 1-.407 2.452 1.753 1.753 0 0 1-2.45-.405l-1.537-2.142-2.154 1.534c-.129.09-.257.181-.382.271l1.54 2.149a1.755 1.755 0 0 1-1.424 2.78 1.753 1.753 0 0 1-1.433-.733l-1.546-2.159c-.849.601-1.689 1.204-2.535 1.805l4.312 6.026a1.754 1.754 0 0 1-1.424 2.781c-.549 0-1.09-.255-1.434-.734l-4.32-6.035c-.846.601-1.69 1.201-2.531 1.802l1.562 2.184a1.755 1.755 0 0 1-1.425 2.781 1.755 1.755 0 0 1-1.433-.734l-1.57-2.192c-.846.601-1.691 1.202-2.531 1.802l1.574 2.203a1.754 1.754 0 0 1-1.432 2.778c-.546 0-1.09-.255-1.425-.736l-1.579-2.21c-.85.601-1.694 1.204-2.541 1.804l4.351 6.08a1.755 1.755 0 0 1-1.424 2.78c-.55 0-1.09-.255-1.434-.733l-4.359-6.089c-.845.603-1.69 1.204-2.536 1.805l1.606 2.239a1.76 1.76 0 0 1-1.43 2.78 1.748 1.748 0 0 1-1.429-.733l-1.608-2.248c-.85.601-1.69 1.204-2.536 1.805l1.613 2.252a1.756 1.756 0 0 1-.407 2.452 1.73 1.73 0 0 1-1.021.329 1.75 1.75 0 0 1-1.429-.734l-1.618-2.263-.091.064-2.445 1.74 4.39 6.131a1.76 1.76 0 0 1-1.429 2.781c-.55 0-1.086-.255-1.429-.733l-4.394-6.14-2.536 1.802 1.635 2.285a1.755 1.755 0 0 1-1.425 2.78c-.55 0-1.089-.255-1.433-.734l-1.64-2.293-2.535 1.807 1.643 2.3a1.756 1.756 0 0 1-1.425 2.78 1.77 1.77 0 0 1-1.433-.733l-1.653-2.309-1.085.772c-1.441 1.021-2.84 2.128-4.324 3.074-.648.414-1.348 1.006-.652 1.811.364.425.96.403 1.48.494.588.103 1.171.219 1.755.326l4.458.83c3.995.742 7.989 1.486 11.984 2.229l14.657 2.725c5.208.97 10.417 1.939 15.626 2.907l14.91 2.774c4.162.772 8.32 1.546 12.482 2.321 1.192.221 2.385.444 3.582.665 1.746.326 4.913 1.257 6.741.292.63-.333 1.102-.886 1.309-1.764l1.043-4.54c.814-3.548 1.63-7.097 2.449-10.643 1.042-4.531 2.081-9.064 3.128-13.595 1.158-5.045 2.316-10.094 3.484-15.139 1.167-5.095 2.343-10.19 3.514-15.283 1.077-4.675 2.154-9.347 3.227-14.022l2.613-11.353c.326-1.414.651-2.827.979-4.239.128-.562.253-1.122.385-1.684.103-.438.339-.922.343-1.364.03-.925-.604-1.343-1.278-.774zM94.588 65.588l-4.896 21.278a6.597 6.597 0 0 1-7.624 5.001l-19.827-3.686a6.592 6.592 0 0 1-2.617-11.848l24.723-17.592a6.575 6.575 0 0 1 3.818-1.221 6.591 6.591 0 0 1 6.423 8.068z" fill="#fff"/><g fill="#006ca2"><path d="M124.421 10.302a6.566 6.566 0 0 0-3.66-1.111 6.601 6.601 0 0 0-3.823 1.221L3.417 91.193a6.59 6.59 0 0 0 2.617 11.849l91.347 17.656a6.591 6.591 0 0 0 7.628-5l22.174-98.438a6.592 6.592 0 0 0-2.762-6.958zm-5.389 7.785c-.132.562-.257 1.122-.385 1.684l-.979 4.239-2.613 11.353c-1.072 4.675-2.149 9.347-3.227 14.022-1.171 5.093-2.347 10.188-3.514 15.283-1.168 5.045-2.326 10.094-3.484 15.139-1.047 4.531-2.086 9.064-3.128 13.595-.819 3.546-1.635 7.094-2.449 10.643l-1.043 4.54c-.207.877-.678 1.431-1.309 1.764-1.828.965-4.995.034-6.741-.292-1.197-.221-2.39-.444-3.582-.665-4.162-.775-8.32-1.549-12.482-2.321l-14.91-2.774c-5.209-.968-10.418-1.938-15.626-2.907-4.888-.907-9.771-1.817-14.657-2.725-3.995-.742-7.989-1.486-11.984-2.229l-4.458-.83c-.583-.108-1.167-.224-1.755-.326-.519-.09-1.116-.069-1.48-.494-.695-.804.004-1.396.652-1.811 1.484-.946 2.883-2.053 4.324-3.074l1.085-.772 1.653 2.309a1.77 1.77 0 0 0 1.433.733 1.756 1.756 0 0 0 1.425-2.78l-1.643-2.3 2.535-1.807 1.64 2.293a1.763 1.763 0 0 0 2.455.406c.79-.564.969-1.663.403-2.452l-1.635-2.285 2.536-1.802 4.394 6.14c.343.479.879.733 1.429.733a1.762 1.762 0 0 0 1.429-2.781l-4.39-6.131 2.445-1.74.091-.064 1.618 2.263a1.75 1.75 0 0 0 1.429.734 1.73 1.73 0 0 0 1.021-.329c.79-.564.973-1.663.407-2.452l-1.613-2.252c.845-.601 1.686-1.204 2.536-1.805l1.608 2.248c.34.478.88.733 1.429.733a1.76 1.76 0 0 0 1.43-2.78l-1.606-2.239c.846-.601 1.691-1.202 2.536-1.805l4.359 6.089a1.762 1.762 0 0 0 2.455.405c.79-.564.97-1.663.403-2.452l-4.351-6.08c.846-.601 1.691-1.203 2.541-1.804l1.579 2.21c.335.48.879.736 1.425.736a1.754 1.754 0 0 0 1.432-2.778l-1.574-2.203c.84-.601 1.686-1.202 2.531-1.802l1.57 2.192c.343.479.879.734 1.433.734a1.756 1.756 0 0 0 1.425-2.781l-1.562-2.184c.841-.601 1.686-1.201 2.531-1.802l4.32 6.035a1.761 1.761 0 0 0 2.455.405c.79-.564.971-1.663.403-2.452l-4.312-6.026c.846-.601 1.687-1.204 2.535-1.805l1.546 2.159c.342.48.884.733 1.433.733a1.756 1.756 0 0 0 1.424-2.78l-1.54-2.149c.125-.09.253-.181.382-.271l2.154-1.534 1.537 2.142c.343.48.883.733 1.429.733a1.76 1.76 0 0 0 1.428-2.78l-1.536-2.132c.85-.601 1.69-1.202 2.54-1.804l4.282 5.987c.348.479.888.734 1.437.734a1.75 1.75 0 0 0 1.42-2.78l-4.274-5.979c.641-.455 1.279-.912 1.919-1.366.205-.146.411-.292.613-.438l1.51 2.111a1.764 1.764 0 0 0 2.455.405c.789-.564.97-1.663.403-2.452l-1.502-2.1c.841-.603 1.69-1.204 2.531-1.805l1.506 2.094a1.758 1.758 0 0 0 2.859-2.047l-1.498-2.085c.845-.601 1.69-1.202 2.535-1.805l4.257 5.937a1.758 1.758 0 0 0 2.858-2.047l-4.247-5.925c.845-.603 1.686-1.204 2.535-1.805l1.472 2.06a1.755 1.755 0 0 0 2.45.409c.79-.564.974-1.663.413-2.452l-1.468-2.055a1166.362 1166.362 0 0 1 2.531-1.802l1.459 2.044c.348.479.888.734 1.438.734a1.757 1.757 0 0 0 1.425-2.781l-1.46-2.036c.851-.603 1.695-1.204 2.537-1.806l4.217 5.889a1.76 1.76 0 0 0 2.451.405 1.751 1.751 0 0 0 .407-2.452l-4.2-5.88.061-.052c2.06-1.465 4.123-2.928 6.182-4.393.417-.301.845-.603 1.267-.903.222-.157.432-.312.639-.485.674-.569 1.309-.15 1.282.771-.008.445-.244.929-.347 1.367z"/><path d="M91.829 58.631a6.579 6.579 0 0 0-3.664-1.111 6.575 6.575 0 0 0-3.818 1.221L59.624 76.332a6.59 6.59 0 0 0 2.617 11.848l19.827 3.686a6.597 6.597 0 0 0 7.624-5.001l4.896-21.278a6.59 6.59 0 0 0-2.759-6.956zm-4.668 9.841c-.635 2.773-1.273 5.547-1.913 8.324l-.979 4.256c-.24 1.032-.309 2.369-.936 3.244l-.472.47c-1.115.77-2.789.028-4.034-.204-2.183-.405-4.372-.811-6.555-1.219-1.824-.341-3.716-.554-5.519-.974-.729-.169-2.051-.757-1.575-1.763.318-.674 1.541-1.234 2.12-1.646l13.039-9.279c1.502-1.07 3.009-2.141 4.51-3.209.541-.384 1.952-1.811 2.682-1.281.658.479-.213 2.609-.368 3.281z"/></g></g></svg>