<svg id="レイヤー_1" xmlns="http://www.w3.org/2000/svg" xmlns:xlink="http://www.w3.org/1999/xlink" viewBox="0 0 128 128"><g><g><g><defs><path id="SVGID_1_" d="M62.235 126.805c-4.209 0-7.787-.104-9.337-.265-14.559-1.524-33.867-8.751-44.372-24.459-6.691-10-8.989-22.067-7.236-37.978 3.105-28.235 20.615-53.14 26.5-59.643 1.329-1.46 2.658-2.203 3.956-2.203 1.415 0 2.361.9 2.619 1.18 1.604 1.726 2.41 4.555 3.267 7.557 1.387 4.885 2.964 10.427 8.755 10.854.116.009.235.014.351.014 2.88 0 5.48-2.659 7.728-7.904 1.523-3.564 3.246-7.273 5.525-10.256 1.289-1.689 2.451-2.51 3.551-2.51 3.731.081 5.498 3.438 7.124 7.173.283.658.563 1.325.842 1.992 1.406 3.366 2.861 6.844 5.525 9.606 1.45 1.497 2.91 2.258 4.348 2.258 4.42 0 7.372-7.156 9.526-12.383.806-1.974 1.514-3.676 2.1-4.537 1.14-1.682 2.554-2.605 3.979-2.605 1.145 0 2.302.607 3.348 1.761 3.655 4.033 24.063 32.146 26.505 59.629 1.479 16.587-.752 28.303-7.236 37.991-8.251 12.332-23.612 21.313-41.1 24.03-3.277.518-10.812.698-16.268.698z"/></defs><use xlink:href="#SVGID_1_" overflow="visible" fill="#ed6c30"/><clipPath id="SVGID_2_"><use xlink:href="#SVGID_1_" overflow="visible"/></clipPath></g><path d="M102.781 80.686c0 3.595-2.943 6.538-6.544 6.538H31.89c-3.596 0-6.537-2.943-6.537-6.538V51.739c0-3.6 2.941-6.543 6.537-6.543h64.347c3.601 0 6.544 2.943 6.544 6.543v28.947z" fill="#fff"/></g></g></svg>