<svg id="レイヤー_1" xmlns="http://www.w3.org/2000/svg" viewBox="0 0 128 128"><g><g><g><g><path d="M118.592 76.922c-.284-6.334-2.421-10.447-6.296-14.026-9.68-8.93-21.335-17.455-32.069-25.093-4.979-3.542-10.518-8.205-16.285-10.372-8.13-3.055-17.322-1.958-26.026-.733-3.805.533-7.63 1.142-11.372 2.029-4.341 1.029-9.496 2.263-13.175 4.867-3.305 2.342-2.896 5.279-1.276 7.988.242 1.25.009 2.434.018 3.7a28.157 28.157 0 0 1-.834 7.101c-.362 1.433-.858 2.808-1.333 4.209-1.841 5.417 3.276 9.955 7.075 13.093 2.13 1.758 4.401 3.333 6.543 5.079 8.305 6.763 16.826 12.88 25.327 19.314 9.967 7.546 13.771 10.171 26.21 5.934 3.358-1.146 6.792-2.062 10.226-2.942 4.862-1.25 11.329-2.429 16.068-4.092 4.796-1.679 10.988-3.913 14.509-7.759 1.758-1.921 2.516-4.663 2.533-7.222.115-.317.173-.666.157-1.075z" fill="#fff"/><path d="M20.639 36.052c4.788-2.017 23.589-4.929 27.735-5.413 3.521-.413 7.946-.971 11.438-.454 1.401.233 5.93 2.596 10.626 5.788 9.596 6.525 34.923 25.515 36.523 26.985.421.392 3.905 3.708 2.154 3.692a41.714 41.714 0 0 0-5.3.304c-2.996.358-20.509 4.529-28.456 6.471-1.575.383-5.825 1.171-7.004 1.409-3.33.675-6.051-.384-8.775-2.284-5.667-3.955-40.928-31.127-41.849-33.044-.663-1.37.679-2.516 2.908-3.454z" fill="#bdcf46"/><path d="M119.45 70.267c-1.1-2.888-3.692-5.167-6.034-7.334-10.709-9.888-21.976-17.984-33.782-26.493-3.033-2.188-6-4.296-9.154-6.309-1.562-.996-3.5-1.838-5.158-2.667-5.505-2.75-11.214-2.546-17.156-1.867-10.817 1.238-21.264 1.6-31.648 5.155-2.891.991-5.725 2.362-6.387 5.854-.267 1.408.513 3.796 1.021 5.071.395.975-2.934 13.159-3.43 14.613-1.238 3.642.545 6.904 3.029 9.638 1.363 1.5 39.624 30.99 40.582 31.694 3.646 2.679 6.538 4.525 9.629 5.408 3.909 1.117 8.143.7 14.626-1.513 2.609-.887 23.585-6.092 35.248-10.7 3.979-1.571 6.258-3.688 7.192-4.705 1.134-1.241 1.862-2.812 2.267-4.462.246-1.008.363-2.05.371-3.059.114-.332-.424-6.24-1.216-8.324zM20.639 36.052c4.788-2.017 23.589-4.929 27.735-5.413 3.521-.413 7.946-.971 11.438-.454 1.401.233 5.93 2.596 10.626 5.788 9.596 6.525 34.923 25.515 36.523 26.985.421.392 3.905 3.708 2.154 3.692a41.714 41.714 0 0 0-5.3.304c-2.996.358-20.509 4.529-28.456 6.471-1.575.383-5.825 1.171-7.004 1.409-3.33.675-6.051-.384-8.775-2.284-5.667-3.955-40.928-31.127-41.849-33.044-.663-1.37.679-2.516 2.908-3.454zm-4.033 28.153c-.983-.992-4.843-3.542-3.792-6.775 1.137-3.488 2.225-9.126 2.462-12.855 4.354 3.492 44.949 34.481 47.47 35.202 1.576 4.884 1.592 10.376-.149 15.201-.242.671-.434 1.325-.721 1.967-1.121-.417-2.213-1-3.384-1.725-1.888-1.168-38.603-27.703-41.886-31.015zm94.639 20.326c-3.654 2.6-9.158 3.654-12.763 4.721-7.726 2.288-15.522 4.376-23.331 6.367-2.325.596-4.671 1.3-7.046 1.692.441-.967.812-1.955 1.075-3.005.695-2.763.833-5.721.529-8.542-.163-1.45-.216-4.088-.562-5.496.409-.033 9.967-2.296 17.522-4.217 7.684-1.955 16.589-4.667 21.947-4.772 2.118-.042 3.68.938 4.384 1.521 1.871 1.529 2.296 4.363 1.834 6.613-.456 2.201-1.801 3.847-3.589 5.118z" fill="#2f2f2f"/></g></g></g><path d="M31.277 57.687c5.804 4.455 20.947 16.018 27.91 21.335 2.209 1.688 4.692 3.43 9.726 2.513 5.034-.913 36.466-9.055 36.466-9.055 2.866-.746 6.046-.954 8.983-.559a9.146 9.146 0 0 1 3.063.983c.333.179.691.367.991.604.163.129.275.3.451.421 2.316 1.575.896-3.138.633-3.784-.638-1.554-1.516-3.008-2.537-4.342a23.461 23.461 0 0 0-2.692-2.946c-10.71-9.884-22.547-18.447-34.353-26.956-3.033-2.188-6.025-4.459-9.179-6.476-1.563-.996-3.138-1.979-4.797-2.809-5.504-2.75-11.659-2.471-17.605-1.792-10.813 1.238-21.626 1.846-32.01 5.4-2.9.992-6.392 2.854-7.051 6.347-.267 1.408-.267 3.867 2.221 6.059 1.817 1.606 12.139 9.19 19.78 15.057z" fill="#bdcf46"/></g></svg>