<svg id="レイヤー_1" xmlns="http://www.w3.org/2000/svg" viewBox="0 0 128 128"><g><g><path d="M24.1 1.678C11.078 10.606-.697 20.408.863 32.009 2.501 44.441 17.34 71.866 36.736 91.267c19.396 19.391 46.804 34.225 59.257 35.876 11.6 1.547 21.395-10.232 30.323-23.245 1.395-1.821 1.273-4.437-.387-6.104-.2-.196-.417-.356-.634-.518v-.043l-27.182-19.41h-.035c-1.83-1.33-4.384-1.195-6.031.456-.165.156-.295.347-.426.521-.013 0-.013.008-.013.008-.082.122-.152.23-.235.335-1.816 2.624-1.799 2.954-3.28 5.21-2.076 3.293-4.501 8.355-6.891 14.103-7.63-1.16-18.997-7.789-31.428-20.229-12.44-12.427-19.07-23.793-20.247-31.432 5.758-2.389 10.824-4.801 14.104-6.895 2.272-1.477 2.603-1.46 5.214-3.281.122-.069.226-.152.33-.234h.004c.191-.135.374-.278.535-.431a4.624 4.624 0 0 0 .452-6.026l.021-.039L30.756 2.715l-.034-.008a4.804 4.804 0 0 0-.513-.63C28.532.4 25.929.291 24.1 1.678" fill="#fcc21b"/></g><g fill="#fff"><path d="M111.03 95.043c1.142.634 2.606 1.759 3.111 2.063 1.013.613 1.977 1.156 2.95 1.838 2.163 1.525 2.997 3.55 1.416 5.827-2.103 3.016-7.552 9.377-11.718 7.374-1.543-.756 1.186-7.799 1.456-9.028.382-1.705.33-9.431 2.785-8.074z"/><path d="M30.869 38.31c-.335-.721.191-1.964.921-2.906.695-.9 1.625-1.755 2.19-2.738 1.286-2.207-.391-11.4 1.886-11.396 1.208 0 2.625 1.564 3.294 2.399 1.033 1.281 1.624 2.88 2.624 4.21.713.947 1.738 1.955 2.02 3.141.622 2.607-2.32 3.703-4.131 4.78-2.208 1.312-4.597 2.846-7.226 3.094-.899.081-1.382-.163-1.578-.584z"/></g></g></svg>