<svg id="レイヤー_1" xmlns="http://www.w3.org/2000/svg" xmlns:xlink="http://www.w3.org/1999/xlink" viewBox="0 0 128 128"><g><g><g><defs><path id="SVGID_1_" d="M57.241 16.315a2.144 2.144 0 0 0-.583-.732c-.823-.699-1.301-1.68-1.686-2.683-.285-.761-.627-1.83-.469-2.653.113-.62.237-1.128.153-1.781-.061-.589-.504-.791-1.025-.932-.683-.187-1.371-.09-2.032.155-.289.107-.797.299-1.038.493-.754.607-.785 1.33-.877 2.238-.109.956-.148 1.948.097 2.885.289 1.096.706 2.182 1.279 3.159.539.918 1.174 1.964 1.914 2.717.351.359.754.655 1.188.916.591.357 1.752.981 2.458.811.824-.2.732-1.862.771-2.502.051-.82.135-1.49-.15-2.091z"/></defs><use xlink:href="#SVGID_1_" overflow="visible" fill="#2f2f2f"/><clipPath id="SVGID_2_"><use xlink:href="#SVGID_1_" overflow="visible"/></clipPath></g></g><g><g><defs><path id="SVGID_3_" d="M48.752 27.486a2.119 2.119 0 0 0-.587-.731c-.819-.699-1.297-1.68-1.677-2.684-.291-.76-.631-1.829-.474-2.652.115-.62.237-1.128.158-1.781-.066-.589-.508-.791-1.03-.933-.679-.186-1.371-.089-2.032.156-.289.107-.797.3-1.039.493-.753.606-.784 1.329-.876 2.238-.105.955-.149 1.948.096 2.885.285 1.096.706 2.182 1.275 3.159.548.917 1.178 1.964 1.918 2.717.355.359.754.655 1.188.916.596.357 1.752.981 2.462.81.819-.199.728-1.861.767-2.501.052-.819.135-1.489-.149-2.092z"/></defs><use xlink:href="#SVGID_3_" overflow="visible" fill="#2f2f2f"/><clipPath id="SVGID_4_"><use xlink:href="#SVGID_3_" overflow="visible"/></clipPath></g></g><g><g><defs><path id="SVGID_5_" d="M39.885 37.621a2.147 2.147 0 0 0-.582-.732c-.823-.698-1.301-1.68-1.683-2.683-.293-.76-.63-1.828-.473-2.653.109-.619.236-1.127.158-1.78-.065-.589-.509-.79-1.03-.933-.679-.185-1.371-.09-2.033.155-.289.107-.797.301-1.042.493-.749.606-.78 1.33-.872 2.239-.105.955-.149 1.947.096 2.885.29 1.094.706 2.182 1.28 3.158.543.918 1.173 1.965 1.914 2.719.355.359.753.655 1.188.916.595.356 1.751.98 2.461.81.819-.199.726-1.862.767-2.501.053-.82.136-1.49-.149-2.093z"/></defs><use xlink:href="#SVGID_5_" overflow="visible" fill="#2f2f2f"/><clipPath id="SVGID_6_"><use xlink:href="#SVGID_5_" overflow="visible"/></clipPath></g></g><g><g><defs><path id="SVGID_7_" d="M31.426 49.683a2.084 2.084 0 0 0-.578-.732c-.824-.698-1.307-1.68-1.683-2.683-.293-.76-.631-1.829-.478-2.653.118-.619.236-1.127.162-1.78-.07-.589-.513-.791-1.034-.933-.675-.186-1.366-.089-2.032.155-.289.108-.802.301-1.034.493-.753.606-.788 1.331-.881 2.239-.1.955-.148 1.948.101 2.885.29 1.095.701 2.182 1.279 3.158.54.917 1.174 1.965 1.91 2.718.355.359.754.655 1.188.916.6.356 1.751.98 2.461.81.819-.199.731-1.861.771-2.501.05-.819.133-1.489-.152-2.092z"/></defs><use xlink:href="#SVGID_7_" overflow="visible" fill="#2f2f2f"/><clipPath id="SVGID_8_"><use xlink:href="#SVGID_7_" overflow="visible"/></clipPath></g></g><g><g><defs><path id="SVGID_9_" d="M21.522 62.205a2.126 2.126 0 0 0-.582-.731c-.823-.699-1.301-1.681-1.683-2.684-.288-.76-.631-1.829-.474-2.653.114-.619.232-1.127.158-1.78-.065-.589-.508-.791-1.029-.933-.679-.186-1.371-.089-2.033.156-.289.107-.797.3-1.039.493-.753.607-.784 1.33-.876 2.238-.109.955-.149 1.947.097 2.885.289 1.094.705 2.182 1.274 3.158.548.917 1.179 1.965 1.919 2.718a5.95 5.95 0 0 0 1.187.916c.596.356 1.752.98 2.462.81.818-.199.722-1.861.766-2.5.054-.82.138-1.49-.147-2.093z"/></defs><use xlink:href="#SVGID_9_" overflow="visible" fill="#2f2f2f"/><clipPath id="SVGID_10_"><use xlink:href="#SVGID_9_" overflow="visible"/></clipPath></g></g><g><g><defs><path id="SVGID_11_" d="M13.006 75.565a2.154 2.154 0 0 0-.587-.731c-.82-.699-1.297-1.681-1.678-2.684-.289-.76-.631-1.829-.469-2.652.109-.62.232-1.128.154-1.781-.066-.589-.509-.791-1.03-.933-.68-.186-1.367-.089-2.032.156-.29.106-.798.3-1.039.493-.753.606-.784 1.33-.876 2.238-.105.955-.148 1.948.097 2.885.289 1.095.706 2.181 1.274 3.158.548.918 1.179 1.965 1.919 2.718.355.36.753.655 1.188.916.595.357 1.751.981 2.462.81.819-.199.727-1.861.766-2.501.053-.819.136-1.489-.149-2.092z"/></defs><use xlink:href="#SVGID_11_" overflow="visible" fill="#2f2f2f"/><clipPath id="SVGID_12_"><use xlink:href="#SVGID_11_" overflow="visible"/></clipPath></g></g><g><g><g><g><g><path d="M93.783 32.566c-6.224-3.386-12.625-6.485-18.994-9.536-2.926-1.402-6.558-3.222-9.821-1.833-.736.313-1.559 1.268-2.068 1.875a445.955 445.955 0 0 0-6.036 7.451 581.25 581.25 0 0 0-11.026 14.382 964.615 964.615 0 0 0-5.375 7.298c-1.546 2.122-2.791 4.168-5.187 5.467-.989.536-1.918 1.086-2.891 1.629-4.407 2.456-9.322 3.919-13.317 7.079-5.212 4.125-6.041 8.462-5.221 14.93.499 3.853 1.222 8.17 4.827 10.354 4.779 2.898 10.154 5.122 15.047 7.903 4.109 2.331 8.231 4.647 12.305 7.041a815.75 815.75 0 0 1 25.46 15.597c4.517 2.891 7.775 3.851 10.72-1.459 1.169-2.095 2.339-4.191 3.513-6.288l9.225-16.532c3.435-6.164 6.878-12.328 10.312-18.489 3.067-5.493 6.129-10.984 9.19-16.475 1.779-3.185 3.995-6.297 4.783-9.911 1.025-4.705.583-12.583-1.559-16.997-.731-1.494-1.489-.172-2.589.154-.894.265-1.581.404-2.418.902-.916.541-1.809 1.139-2.83 1.478-2.011.679-4.486.719-6.365-.388-3.223-1.893-6.399-3.844-9.685-5.632z" fill="#fff"/><path d="M77.273 127.436c-2.606 0-5.068-1.347-7.347-2.806a813.208 813.208 0 0 0-25.363-15.538c-3.387-1.991-6.807-3.927-10.233-5.863l-2.033-1.156c-2.133-1.211-4.438-2.353-6.663-3.454-2.816-1.393-5.726-2.834-8.454-4.491-4.985-3.015-5.739-8.924-6.19-12.456-.88-6.857-.144-12.466 6.287-17.557 2.808-2.221 5.918-3.64 8.936-5.012 1.673-.762 3.255-1.482 4.762-2.326l1.152-.652c.587-.334 1.169-.667 1.774-.993 1.502-.817 2.448-2.133 3.636-3.803l.596-.827a907.365 907.365 0 0 1 5.393-7.322 589.856 589.856 0 0 1 11.079-14.452 414.08 414.08 0 0 1 6.084-7.501c.894-1.08 1.902-2.153 3.15-2.686a9.261 9.261 0 0 1 3.653-.726c3.097 0 5.993 1.389 8.319 2.504l.228.109c6.483 3.104 12.817 6.175 19.125 9.602 2.422 1.321 4.806 2.736 7.114 4.107l2.655 1.573c.963.567 2.576.615 3.986.14.539-.18 1.139-.541 1.769-.922l.513-.305c1.003-.598 1.865-.845 2.637-1.062l.42-.124c.018-.015.11-.081.202-.14.495-.311 1.323-.831 2.431-.831.675 0 2.357.226 3.373 2.325 2.515 5.175 2.883 13.824 1.788 18.871-.718 3.278-2.339 6.025-3.907 8.68a82.847 82.847 0 0 0-1.174 2.021l-32.245 57.784c-1.942 3.509-4.456 5.289-7.453 5.289zm-9.782-103.85c-.517 0-.972.087-1.393.265.004.011-.289.234-.968 1.064a392.37 392.37 0 0 0-6.001 7.401 574.029 574.029 0 0 0-10.973 14.312 877.33 877.33 0 0 0-5.358 7.275l-.56.78c-1.429 2.002-2.91 4.072-5.586 5.521-.565.309-1.113.62-1.66.931l-1.201.684c-1.717.957-3.482 1.759-5.187 2.536-2.821 1.287-5.488 2.5-7.745 4.284-3.938 3.113-4.937 6.101-4.145 12.301.451 3.518 1.051 6.796 3.452 8.251 2.522 1.529 5.191 2.854 8.025 4.253 2.304 1.139 4.678 2.315 6.952 3.607l2.041 1.152c3.435 1.952 6.891 3.905 10.304 5.912a834.337 834.337 0 0 1 25.552 15.652c1.271.815 3.088 1.897 4.231 1.897.284 0 1.121 0 2.409-2.325l32.245-57.789c.399-.715.82-1.428 1.244-2.144 1.398-2.368 2.716-4.606 3.237-6.979.762-3.498.609-9.38-.666-13.411l-.332.094c-.635.18-.925.267-1.271.476l-.465.278c-.836.504-1.778 1.075-2.922 1.457-2.965.996-6.347.775-8.752-.638l-2.677-1.588c-2.26-1.343-4.591-2.729-6.921-3.998-6.19-3.361-12.45-6.395-18.863-9.468l-.228-.109c-1.888-.905-4.035-1.934-5.818-1.934z" fill="#2f2f2f"/></g><path d="M77.935 127.252a2.886 2.886 0 0 1-2.878-2.713l-1.252-20.858a2.88 2.88 0 0 1 2.703-3.053c1.625-.107 2.957 1.117 3.053 2.707l1.258 20.859a2.885 2.885 0 0 1-2.884 3.058z" fill="#2f2f2f"/><path d="M74.544 6.462c-2.927-1.401-6.562-3.222-9.821-1.833-.736.313-1.555 1.268-2.068 1.875C50.03 21.708 34.878 38.493 23.374 54.555c-2.571 3.592-5.444 6.958-8.086 10.502-1.599 2.136-3.452 4.576-4.03 7.241-.692 3.176 2.418 2.477 4.376 3.604 1.502.862 24.948 13.139 29.021 15.533a825.245 825.245 0 0 1 25.46 15.598c4.508 2.891 7.771 3.85 10.72-1.459l3.509-6.288 9.225-16.533c3.438-6.163 8.38-14.949 11.818-21.11 3.062-5.493 6.125-10.985 9.19-16.475 1.345-2.41 2.559-4.894 3.968-7.264 2.497-4.189-.573-8.033-4.709-11.168-3.583-2.716-7.973-4.9-10.229-6.315-3.16-1.984-22.694-10.908-29.063-13.959z" fill="#006ca2"/></g></g></g><g><g><defs><path id="SVGID_13_" d="M25.495 69.511c-1.191-8.004-11.031-13.239-17.247-6.822a9.542 9.542 0 0 0-2.58 5.309c-.196 1.424-.495 3.144-.122 4.559.197.746.285 1.169 1.091 1.366.731.18 1.511-.037 2.199-.292.64-.236 1.327-.729 1.59-1.386.236-.585-.062-1.273-.123-1.864-.171-1.521.315-3.015 1.607-3.911 1.731-1.2 4.236-.754 5.901.333 1.06.688 1.911 1.722 2.182 2.975.762 3.474 5.879 2.238 5.502-.267z"/></defs><use xlink:href="#SVGID_13_" overflow="visible" fill="#2f2f2f"/><clipPath id="SVGID_14_"><use xlink:href="#SVGID_13_" overflow="visible"/></clipPath></g></g></g><path d="M100.14 36.521c-1.472-1.662-3.872-2.744-5.747-3.878-4.889-2.96-12.853-6.871-18.044-9.272-1.423-.659-3.749-1.639-5.27-.749-.964.572-1.748 1.339-2.523 2.131-.504.506-.981.999-1.419 1.56-.464.601-.872 1.264-1.332 1.882-.473.642-.867 1.349-1.296 2.032-.346.552-.683 1.417-.42 2.05.42 1.021 1.45 1.569 2.305 2.171 1.042.738 2.084 1.465 3.188 2.113 2.348 1.378 4.823 2.498 7.307 3.615 1.375.625 2.751 1.249 4.104 1.914 1.748.85 6.015 3.297 7.802 4.059.447.192.863.485 1.332.613.924.248 1.643.941 2.611 1.148 2.199.464 2.699-.951 3.82-2.379 1.13-1.45 2.024-3.088 3.031-4.624.631-.963 1.639-1.878 1.262-3.156-.133-.452-.387-.862-.711-1.23z" fill="#fff"/><g><g><defs><path id="SVGID_15_" d="M34.011 56.151c-1.191-8.006-11.035-13.241-17.246-6.823a9.544 9.544 0 0 0-2.58 5.31c-.197 1.424-.495 3.144-.123 4.558.197.747.284 1.169 1.09 1.367.732.18 1.512-.037 2.199-.292.64-.236 1.327-.728 1.59-1.386.236-.585-.061-1.273-.122-1.864-.171-1.522.315-3.016 1.612-3.912 1.726-1.2 4.232-.753 5.896.333 1.056.688 1.91 1.722 2.182 2.974.762 3.476 5.878 2.239 5.502-.265z"/></defs><use xlink:href="#SVGID_15_" overflow="visible" fill="#2f2f2f"/><clipPath id="SVGID_16_"><use xlink:href="#SVGID_15_" overflow="visible"/></clipPath></g></g><g><g><defs><path id="SVGID_17_" d="M43.92 43.629c-1.192-8.005-11.031-13.24-17.243-6.823a9.5 9.5 0 0 0-2.588 5.31c-.197 1.424-.496 3.143-.118 4.558.193.747.276 1.169 1.087 1.367.735.18 1.511-.037 2.199-.292.639-.236 1.327-.729 1.594-1.386.236-.585-.061-1.273-.127-1.864-.171-1.522.32-3.016 1.612-3.912 1.73-1.2 4.236-.753 5.901.333 1.06.688 1.905 1.722 2.181 2.974.762 3.476 5.878 2.239 5.502-.265z"/></defs><use xlink:href="#SVGID_17_" overflow="visible" fill="#2f2f2f"/><clipPath id="SVGID_18_"><use xlink:href="#SVGID_17_" overflow="visible"/></clipPath></g></g><g><g><defs><path id="SVGID_19_" d="M52.374 31.567c-1.191-8.006-11.03-13.241-17.242-6.823a9.554 9.554 0 0 0-2.589 5.31c-.192 1.424-.491 3.143-.118 4.559.197.746.285 1.169 1.091 1.366.732.18 1.511-.037 2.199-.292.64-.236 1.327-.729 1.59-1.386.236-.585-.062-1.273-.119-1.865-.175-1.522.312-3.016 1.607-3.911 1.726-1.2 4.233-.754 5.896.333 1.061.688 1.906 1.722 2.182 2.974.763 3.476 5.88 2.239 5.503-.265z"/></defs><use xlink:href="#SVGID_19_" overflow="visible" fill="#2f2f2f"/><clipPath id="SVGID_20_"><use xlink:href="#SVGID_19_" overflow="visible"/></clipPath></g></g><g><g><defs><path id="SVGID_21_" d="M61.241 21.433c-1.192-8.005-11.031-13.24-17.242-6.823a9.523 9.523 0 0 0-2.585 5.308c-.197 1.424-.495 3.144-.123 4.558.197.747.285 1.169 1.091 1.367.732.18 1.512-.037 2.2-.291.639-.237 1.327-.73 1.59-1.387.236-.585-.061-1.272-.123-1.863-.171-1.522.311-3.016 1.612-3.913 1.726-1.2 4.231-.753 5.896.333 1.06.688 1.91 1.722 2.182 2.975.762 3.477 5.878 2.239 5.502-.264z"/></defs><use xlink:href="#SVGID_21_" overflow="visible" fill="#2f2f2f"/><clipPath id="SVGID_22_"><use xlink:href="#SVGID_21_" overflow="visible"/></clipPath></g></g><g><g><defs><path id="SVGID_23_" d="M69.73 10.26C68.539 2.255 58.699-2.98 52.488 3.438a9.489 9.489 0 0 0-2.584 5.309c-.197 1.424-.495 3.143-.123 4.558.197.748.285 1.17 1.091 1.368.727.179 1.511-.038 2.199-.292.639-.237 1.328-.73 1.585-1.387.237-.584-.061-1.272-.118-1.863-.171-1.523.315-3.016 1.612-3.913 1.721-1.2 4.231-.753 5.896.334 1.06.688 1.91 1.722 2.182 2.974.763 3.476 5.879 2.237 5.502-.266z"/></defs><use xlink:href="#SVGID_23_" overflow="visible" fill="#2f2f2f"/><clipPath id="SVGID_24_"><use xlink:href="#SVGID_23_" overflow="visible"/></clipPath></g></g></g></svg>