<svg id="レイヤー_1" xmlns="http://www.w3.org/2000/svg" viewBox="0 0 128 128"><g><path d="M36.364 93.749c-4.589-.146-9.188.075-13.733.716a73.055 73.055 0 0 0-11.5 2.586c-.907.283-1.932.513-2.785.942-.553.279-.999.601-1.49-.014-.681-.822-.23-2.308-.115-3.249.221-1.888.474-3.771.761-5.65 1.255-8.37 2.953-16.664 4.102-25.047.504-3.714.911-7.446 1.388-11.164.243-1.906.513-3.816.822-5.717.38-2.33.459-3.966 2.635-5.377 3.714-2.405 8.163-3.457 12.411-4.487 4.576-1.106 9.148-2.052 13.892-1.866a22.154 22.154 0 0 1 9.484 2.556 30.535 30.535 0 0 1 4.067 2.595c1.282.946 2.839 1.972 3.864 3.192.907 1.079 1.202 2.056 1.287 3.179-.633 14.334-.526 49.864-.42 52.38.009.207.026.419.04.632-.048.274-.199.478-.641.482-.531.008-1.114-.337-1.574-.575a82.625 82.625 0 0 0-2.874-1.432c-6.215-2.935-12.75-4.465-19.621-4.682z" fill="#fff"/><path d="M121.148 97.98c-.503.615-.938.292-1.495.014-.849-.429-1.875-.659-2.786-.942a72.693 72.693 0 0 0-11.5-2.586c-4.541-.641-9.148-.862-13.737-.716-6.862.216-13.396 1.747-19.617 4.683-.964.455-1.923.937-2.87 1.432-.459.239-1.043.583-1.579.575-.441-.004-.587-.208-.64-.482.008-.212.035-.424.04-.632.11-2.516.217-38.046-.42-52.38.088-1.124.38-2.101 1.282-3.179 1.035-1.221 2.591-2.246 3.874-3.192 1.291-.964 2.644-1.848 4.068-2.595a22.164 22.164 0 0 1 9.479-2.556c4.735-.186 9.312.76 13.892 1.866 4.255 1.03 8.702 2.082 12.416 4.487 2.175 1.411 2.255 3.047 2.635 5.377.309 1.901.575 3.811.823 5.717.473 3.718.883 7.45 1.387 11.164 1.15 8.383 2.848 16.677 4.104 25.047.27 1.879.54 3.763.76 5.65.114.941.565 2.426-.116 3.248z" fill="#fff"/><g fill="#2f2f2f"><path d="M126.799 106.819c.07-1.402.715-5.306.694-6.071-.071-9.74-6.248-41.839-7.243-49.657l-.058-.481c-.345-3.073-.473-6.72-1.604-9.617-1.141-2.922-4.833-3.943-7.494-4.965-11.009-4.204-23.442-7.737-35.124-4.041-4.558 1.441-8.675 4.006-11.972 8.061-3.291-4.055-7.411-6.619-11.964-8.061-11.682-3.696-24.114-.163-35.123 4.041-2.662 1.022-6.367 2.043-7.499 4.965-1.132 2.897-1.256 6.544-1.601 9.617l-.062.481C6.759 58.908.587 91.008.507 100.748c-.017.765.628 4.669.699 6.071.097 2.016-.142 4.045-.036 6.061-.204.7-.018 1.357.406 1.879a2.1 2.1 0 0 0 1.181 1.039c1.074 1.176 3.007.402 4.275-.004 11.38-3.683 23.893-3.542 35.627-1.981 2.078.274 4.147.61 6.208 1.013 2.14.42 4.174 1.184 6.225 1.914a35.701 35.701 0 0 0 5.239 1.441c1.278.292 2.534.411 3.096.416.199.004.38-.022.57-.026.194.004.38.031.574.026.566-.004 1.822-.124 3.096-.416a35.856 35.856 0 0 0 5.244-1.441c2.052-.73 4.085-1.495 6.226-1.914 2.059-.402 4.129-.738 6.207-1.013 11.73-1.561 24.247-1.702 35.627 1.981 1.265.407 3.202 1.181 4.271.004a2.078 2.078 0 0 0 1.181-1.039c.429-.522.606-1.18.411-1.879.106-2.015-.133-4.045-.035-6.061zm-90.435-13.07c-4.589-.146-9.188.075-13.733.716a73.055 73.055 0 0 0-11.5 2.586c-.907.283-1.932.513-2.785.942-.553.279-.999.601-1.49-.014-.681-.822-.23-2.308-.115-3.249.221-1.888.474-3.771.761-5.65 1.255-8.37 2.953-16.664 4.102-25.047.504-3.714.911-7.446 1.388-11.164.243-1.906.513-3.816.822-5.717.38-2.33.459-3.966 2.635-5.377 3.714-2.405 8.163-3.457 12.411-4.487 4.576-1.106 9.148-2.052 13.892-1.866a22.154 22.154 0 0 1 9.484 2.556 30.535 30.535 0 0 1 4.067 2.595c1.282.946 2.839 1.972 3.864 3.192.907 1.079 1.202 2.056 1.287 3.179-.633 14.334-.526 49.864-.42 52.38.009.207.026.419.04.632-.048.274-.199.478-.641.482-.531.008-1.114-.337-1.574-.575a82.625 82.625 0 0 0-2.874-1.432c-6.215-2.935-12.75-4.465-19.621-4.682zm84.784 4.231c-.503.615-.938.292-1.495.014-.849-.429-1.875-.659-2.786-.942a72.693 72.693 0 0 0-11.5-2.586c-4.541-.641-9.148-.862-13.737-.716-6.862.216-13.396 1.747-19.617 4.683-.964.455-1.923.937-2.87 1.432-.459.239-1.043.583-1.579.575-.441-.004-.587-.208-.64-.482.008-.212.035-.424.04-.632.11-2.516.217-38.046-.42-52.38.088-1.124.38-2.101 1.282-3.179 1.035-1.221 2.591-2.246 3.874-3.192 1.291-.964 2.644-1.848 4.068-2.595a22.164 22.164 0 0 1 9.479-2.556c4.735-.186 9.312.76 13.892 1.866 4.255 1.03 8.702 2.082 12.416 4.487 2.175 1.411 2.255 3.047 2.635 5.377.309 1.901.575 3.811.823 5.717.473 3.718.883 7.45 1.387 11.164 1.15 8.383 2.848 16.677 4.104 25.047.27 1.879.54 3.763.76 5.65.114.941.565 2.426-.116 3.248z"/><path d="M53.068 46.609c-9.471-4.439-22.231-4.682-31.759-.124-2.517 1.208-.323 4.864 2.18 3.727 8.108-3.696 19.233-3.139 27.103.628 2.838 1.358 5.324-2.891 2.476-4.231z"/><path d="M52.768 58.308c-10.081-4.418-23.045-6.088-33.214-.849-2.21 1.141-.274 4.262 1.915 3.28 9.333-4.169 20.51-1.715 29.583 1.641 2.361.875 4.023-3.06 1.716-4.072z"/><path d="M52.237 69.985c-1.07-.902-2.555-1.317-3.847-1.787-9.355-3.417-21.793-3.563-30.781 1.039-1.981 1.009-.31 3.891 1.636 3.334 4.898-1.393 9.514-2.162 14.603-2.206 3.989-.035 7.609.384 11.421 1.516 1.149.336 2.245.469 3.351.986.787.371 1.768.844 2.639.951 1.896.23 2.295-2.565 1.216-3.617l-.238-.216z"/><path d="M51.247 81.251c-10.824-5.098-22.956-4.161-33.912-.296-2.263.8-1.176 4.285 1.123 3.559 5.146-1.623 9.444-2.834 14.908-2.9 5.262-.057 10.975 1.658 15.785 3.551 2.599 1.024 4.73-2.672 2.096-3.914z"/><path d="M77.412 50.84c7.87-3.767 18.994-4.324 27.103-.628 2.494 1.136 4.696-2.52 2.176-3.727-9.524-4.558-22.279-4.315-31.755.124-2.856 1.34-.371 5.589 2.476 4.231z"/><path d="M76.952 62.38c9.073-3.356 20.25-5.81 29.579-1.641 2.193.982 4.125-2.14 1.919-3.28-10.178-5.239-23.137-3.568-33.213.849-2.309 1.012-.646 4.947 1.715 4.072z"/><path d="M76.74 73.818c.88-.106 1.844-.58 2.635-.951 1.115-.518 2.211-.65 3.357-.986 3.814-1.132 7.432-1.551 11.42-1.516 5.094.044 9.709.813 14.608 2.206 1.945.557 3.607-2.325 1.635-3.334-8.993-4.603-21.425-4.457-30.781-1.039-1.291.469-2.777.885-3.855 1.787l-.239.216c-1.083 1.052-.672 3.847 1.22 3.617z"/><path d="M110.665 80.954c-10.953-3.864-23.089-4.802-33.908.296-2.635 1.242-.504 4.938 2.096 3.914 4.811-1.893 10.515-3.608 15.785-3.551 5.46.066 9.762 1.278 14.896 2.9 2.312.726 3.394-2.759 1.131-3.559z"/></g></g></svg>