<svg id="レイヤー_1" xmlns="http://www.w3.org/2000/svg" xmlns:xlink="http://www.w3.org/1999/xlink" viewBox="0 0 128 128"><g><g><path d="M107.831 22.031s.493 14.811 1.279 20.851c.787 6.036 2.849 9.72 2.849 9.72.411 3.707-1.086 7.337-1.086 7.337s-22.41 54.292-26.51 60.599c-1.09 1.673-2.835 3.273-4.793 3.521-3.666.456-12.175-1.844-16.831-3.128-16.782-4.634-38.266-11.501-44.938-13.816-3.378-1.171-6.836-4.127-8.129-5.936-5.859-8.165-3.065-18.526-3.065-18.526l101.224-60.622z" fill="#fff"/><g><g><g fill="#2f2f2f"><path d="M78.526 127.588c-4.096 0-10.408-1.57-16.71-3.309-16.556-4.573-38.192-11.467-45.154-13.883-4.024-1.395-8.057-4.747-9.81-7.193-6.736-9.394-3.726-20.966-3.594-21.454a3.465 3.465 0 0 1 4.253-2.448 3.466 3.466 0 0 1 2.451 4.245c-.046.174-2.233 8.965 2.531 15.611.972 1.358 3.897 3.795 6.447 4.679 6.885 2.389 28.31 9.218 44.721 13.749 3.065.843 12.36 3.411 15.479 3.031.552-.071 1.529-.771 2.315-1.971 2.88-4.429 17.252-38.324 26.203-60.029.01-.016 1.003-2.512.895-5.063-.713-1.492-2.224-5.133-2.883-10.22-.806-6.137-1.285-20.575-1.303-21.186a3.472 3.472 0 0 1 3.354-3.585c1.936-.131 3.518 1.44 3.58 3.354.01.147.498 14.714 1.248 20.519.679 5.21 2.428 8.456 2.441 8.488.222.396.366.846.416 1.295.498 4.465-1.14 8.59-1.329 9.047-2.301 5.588-22.646 54.775-26.81 61.168-1.871 2.876-4.521 4.724-7.26 5.073-.45.056-.947.082-1.481.082z"/><path d="M79.575 126.375a2.323 2.323 0 0 1-1.926-1.02c-7.626-11.293-3.915-28.387-3.752-29.108a2.316 2.316 0 1 1 4.521 1.01c-.037.158-3.436 15.88 3.074 25.508a2.315 2.315 0 0 1-1.917 3.61z"/></g><g><defs><path id="SVGID_1_" d="M101.954 58.651l-4.327 9.806s12.411 3.092 24.21 8.396l3.689-10.416c0-.001-6.591-4.739-23.572-7.786z"/></defs><use xlink:href="#SVGID_1_" overflow="visible" fill="#fcc21b"/><clipPath id="SVGID_2_"><use xlink:href="#SVGID_1_" overflow="visible"/></clipPath></g></g></g></g><path d="M102.812 12.873c-5.71-2.107-25.479-8.716-40.923-11.372l-.819-.142C58.679.937 55.704.412 52.431.412c-2.379 0-4.517.273-6.533.836-2.409.672-5.665 2.044-7.491 4.763C27.065 22.877 4.351 78.973 3.388 81.353a3.48 3.48 0 0 0-.071 2.38c.035.039.035.083.081.123 1.705 1.525 4.141.465 6.018-.014a12.836 12.836 0 0 1 1.803-.314 4.722 4.722 0 0 1 1.207-.154c1.311 0 2.907.358 4.588.735.642.145 1.294.29 1.939.42 1.203.242 6.886 2.181 11.899 3.891 3.526 1.202 7.216 2.461 10.259 3.453l1.355.439c9.616 3.128 17.921 5.83 20.228 6.472 5.045 1.399 8.373 2.022 10.791 2.022.863 0 1.614-.079 2.292-.244 4.155-1.004 6.429-4.505 7.776-7.056.262-.488 2.839-6.654 17.577-42.196 4.178-10.059 7.523-18.131 7.79-18.75.655-1.517 1.455-3.619 1.967-5.818.777-3.338 1.256-5.622.253-8.011-1.22-2.894-4.322-4.372-8.328-5.858z" fill="#ed6c30"/></g></svg>