<svg id="レイヤー_1" xmlns="http://www.w3.org/2000/svg" viewBox="0 0 128 128"><g><g><path d="M51.502 112.441c11.705-11.388 29.922-29.404 33.821-33.468 4.849-5.046 3.399-9.173 1.337-13.712-.673-1.491-11.67-26.328-18.735-42.363.293-.136 2.98-2.035 3.64-2.329 2.096-.935 3.48.643 4.407 2.597.678 1.445 16.506 46.983 20.374 57.324.63 1.684 2.139 3.877 1.29 5.73-.949 2.074-4.788 3.364-6.629 4.49-2.329 1.423-4.718 2.739-7.133 4.015-4.762 2.513-9.61 4.856-14.267 7.547-5.603 3.23-11.27 6.287-16.897 9.449-.397.224-.803.479-1.208.72z" fill="#fff"/><path d="M110.924 101.104c-.767.327-1.613.561-2.13.759-10.765 4.132-22.004 6.845-33.105 9.898-6.21 1.707-12.403 3.527-18.571 5.373-.88.268-2.027.643-3.312 1.062 5.288-2.934 10.61-5.801 15.837-8.828 3.959-2.286 8.013-4.391 12.049-6.53 4.839-2.562 9.661-5.166 14.246-8.164 2.148-1.41 5.05-2.097 6.698-4.186 1.699-2.142 1.604-5.255.836-7.737-3.627-11.718-7.28-23.446-11.864-34.833-2.17-5.408-4.352-10.821-6.008-16.41a128.15 128.15 0 0 1-.802-2.816c4.451-2.532 3.898-.828 5.93 3.811 3.411 7.787 6.559 15.507 9.117 23.619.772 2.405 1.514 4.813 2.264 7.22l6.133 19.617a1868.4 1868.4 0 0 0 2.846 9.102c.833 2.696 3.554 7.458-.164 9.043z" fill="#fff"/><g><g><path d="M17.206 40.156c-1.746 2.106-5.68 6.844-6.081 7.321-3.019 3.575-3.174 7.655-2.674 10.386.923 5.061 12.68 49.122 19.417 63.398.724 1.543 1.57 2.592 2.505 3.282 5.37 7.051 22.414.161 28.392-1.454 8.729-2.358 17.554-4.459 26.239-7.006 8.721-2.56 17.244-5.505 25.882-8.292 2.73-.879 5.904-1.946 7.568-4.455 2.062-3.092 1.32-7.386.315-11.045-2.101-7.609-5.051-14.939-7.69-22.371-3.45-9.708-6.322-19.628-10.269-29.157a321.274 321.274 0 0 0-3.852-8.934c-1.061-2.359-1.669-4.941-2.924-7.211-1.94-3.479-3.734-4.027-7.495-2.645-.933.346-2.537 1.083-3.502.501-.733-.439-.863-1.694-1.122-2.432-.509-1.452-1.125-3.188-2.001-4.467-.328-.48-.686-1.037-1.061-1.476-.504-.592-3.537-2.015-8.574.118-1.217.516-16.113 9.479-16.113 9.479l-36.96 16.46zm34.296 72.285c-14.729-23.326-9.208-63.073 16.423-89.543.293-.136 2.98-2.035 3.64-2.329 2.096-.935 3.48.643 4.407 2.597.678 1.445 16.506 46.983 20.374 57.324.63 1.684 2.139 3.877 1.29 5.73-.949 2.074-4.788 3.364-6.629 4.49-2.329 1.423-4.718 2.739-7.133 4.015-4.762 2.513-9.61 4.856-14.267 7.547-5.603 3.23-11.27 6.287-16.897 9.449-.397.224-.803.479-1.208.72zm59.422-11.337c-.767.327-1.613.561-2.13.759-10.765 4.132-22.004 6.845-33.105 9.898-6.21 1.707-12.403 3.527-18.571 5.373-.88.268-2.027.643-3.312 1.062 5.288-2.934 10.61-5.801 15.837-8.828 3.959-2.286 8.013-4.391 12.049-6.53 4.839-2.562 9.661-5.166 14.246-8.164 2.148-1.41 5.05-2.097 6.698-4.186 1.699-2.142 1.604-5.255.836-7.737-3.627-11.718-7.28-23.446-11.864-34.833-2.17-5.408-4.352-10.821-6.008-16.41a128.15 128.15 0 0 1-.802-2.816c4.451-2.532 3.898-.828 5.93 3.811 3.411 7.787 6.559 15.507 9.117 23.619.772 2.405 1.514 4.813 2.264 7.22l6.133 19.617a1868.4 1868.4 0 0 0 2.846 9.102c.833 2.696 3.554 7.458-.164 9.043z" fill="#2f2f2f"/></g></g></g><path d="M45.071 118.266l9.821-9.13c11.559-11.291 26.886-26.472 30.431-30.162 4.849-5.046 3.399-9.173 1.337-13.712-.44-.976-25.683-58.424-26.29-59.714-1.885-3.957-4.408-5.774-6.849-5.055-.819.24-1.579.594-2.303 1.022-1.182.707-3.648 2.936-5.9 5.102-1.467 1.406-18.614 22.091-28.111 33.539 0 0 24.139 74.398 24.963 77.204.818 2.808 2.901.906 2.901.906z" fill="#fcc21b"/><path d="M50.304 35.271c.542-.453 1.138-.889 1.647-1.38.78-.757 2.26-2.049 2.118-3.231-.065-.664-.41-1.186-.928-1.453a1.815 1.815 0 0 0-.819-.202c-1.863-.03-3.882 1.631-5.184 2.772-.897.776-1.915 1.437-2.847 2.174-1.967 1.553-3.623 3.511-5.478 5.196-1.708 1.566-3.044 3.478-4.562 5.213-1.502 1.701-3.184 3.215-4.606 4.981-.517.639-1.062 1.164-.949 2.033.112.863.776 1.9 1.578 2.26 1.274.574 2.391-1.073 3.171-1.78 5.899-5.313 10.734-11.48 16.859-16.583z" fill="#2f2f2f"/><path d="M55.522 38.515c-1.665.79-3.459 2.748-4.166 3.447-2.407 2.369-5.399 4.438-7.617 6.93-1.336 1.504-2.699 2.988-4.2 4.333-1.708 1.522-3.925 3.031-5.124 5.007-.759 1.235-1.009 3.621.793 4.134 2.26.649 3.441-2.661 4.822-3.855 2.044-1.779 4.33-3.277 6.271-5.193 2.286-2.272 4.399-4.711 6.685-6.986 1.259-1.25 5.779-3.899 5.77-5.723 0-.772-.241-1.253-.742-1.844-.638-.763-1.544-.696-2.492-.25z" fill="#2f2f2f"/></g></svg>