<svg xmlns="http://www.w3.org/2000/svg" viewBox="0 0 128 128"><g id="图层_1"><g><g><path d="M112.978 12.152H22.936c-1.692 0-3.063 1.292-3.063 2.886v99.823c0 1.594 1.371 2.886 3.063 2.886h90.042c1.692 0 3.063-1.292 3.063-2.886V15.039c0-1.594-1.371-2.887-3.063-2.887z" fill="#efebe9"/><path fill="#d1c1bd" d="M19.873 12.152h8.521v105.596h-8.521z"/><path fill="#d1c1bd" d="M107.52 12.152h8.521v105.596h-8.521z"/></g><path d="M108.127 22.066H19.873c-5.453 0-7.914-4.461-7.914-9.914 0-5.453 2.461-9.914 7.914-9.914h88.254c5.453 0 7.914 4.461 7.914 9.914 0 5.453-2.461 9.914-7.914 9.914z" fill="#b79f98"/><path d="M108.127 125.762H19.873c-5.453 0-7.914-4.461-7.914-9.914 0-5.453 2.461-9.914 7.914-9.914h88.254c5.453 0 7.914 4.461 7.914 9.914 0 5.452-2.461 9.914-7.914 9.914z" fill="#b79f98"/><ellipse cx="108.866" cy="115.848" rx="5.278" ry="8.066" fill="#8d6e63"/><ellipse cx="108.866" cy="12.152" rx="5.278" ry="8.066" fill="#8d6e63"/><g><g><path d="M98.209 36.935H37.705a2.5 2.5 0 1 1 0-5h60.504a2.5 2.5 0 1 1 0 5z" fill="#c1aeaa"/></g><g><path d="M98.209 52.192H37.705a2.5 2.5 0 1 1 0-5h60.504a2.5 2.5 0 1 1 0 5z" fill="#c1aeaa"/></g><g><path d="M98.209 67.451H37.705a2.5 2.5 0 0 1 0-5h60.504a2.5 2.5 0 1 1 0 5z" fill="#c1aeaa"/></g><g><path d="M98.209 82.708H37.705a2.5 2.5 0 1 1 0-5h60.504a2.5 2.5 0 1 1 0 5z" fill="#c1aeaa"/></g><g><path d="M63.581 97.967H37.705a2.5 2.5 0 1 1 0-5h25.876a2.5 2.5 0 1 1 0 5z" fill="#c1aeaa"/></g></g></g></g></svg>