<svg id="レイヤー_1" xmlns="http://www.w3.org/2000/svg" viewBox="0 0 128 128"><g><g><path d="M110.032 113.943c-2.808.435-83.358 1.846-86.739.184-4.509-2.219-5.261-8.467-2.915-12.881 1.919-3.618 6.845-3.709 10.246-3.768 5.158-.091 74.564-.048 78.961.591.975.145 1.756.008 1.95 1.146.224 1.363-.359 3.036-.411 4.429-.066 1.679.162 3.336.36 4.999.143 1.193.914 2.641.813 3.823-.102 1.122-1.33 1.333-2.265 1.477z" fill="#fff"/><g><g><path d="M121.73 87.796c-.233-1.95-.229-3.948-.447-5.915-.853-7.626-1.625-15.26-2.396-22.893-1.026-10.216-2.042-20.432-3.22-30.631-.503-4.369-.746-8.857-2.091-13.072-2.335-7.324-10.997-6.719-17.11-7.176-10.013-.752-19.923-1.148-29.972-1.098-5.701.028-11.408.1-17.115.206-5.2.096-10.409.126-15.619.363-2.613.122-5.249.401-7.859.635-5.783.521-11.595 3.224-14.434 8.418-1.255 2.311-1.854 4.981-2.229 7.56-1.036 7.057-1.665 14.171-2.122 21.289-.457 7.085-.508 14.19-.538 21.289-.03 8.576-.538 17.146-.538 25.716-.011 8.471-.681 17.621 6.336 23.729 2.355 2.046 5.088 3.267 8.002 4.021 4.859 1.26 82.237.632 87.283.332 4.366-.259 12.475.98 12.932-5.453.143-2.051-1.116-4.113-2.041-5.869-.975-1.835-1.767-3.851-1.884-5.946-.096-2.026.493-4.006.747-6.002 1.614.056 3.168-1.01 3.925-2.396.959-1.756.619-5.157.39-7.107zm-12.378 26.147c-2.803.435-83.357 1.846-86.74.184-4.508-2.219-5.259-8.467-2.914-12.881 1.914-3.618 6.839-4.841 10.247-4.899 5.158-.092 74.9-2.78 79.296-2.14.629.094 1.462.02 1.808.675.203.388.193.761.051 1.147-.528 1.459-.797 2.998-.919 4.541-.163 2.051-.355 4.113-.183 6.167.102 1.068.295 2.124.655 3.138.294.817 1.04 1.698.964 2.592-.102 1.121-1.331 1.332-2.265 1.476zm4.001-26.98c-.03.338-.091.663-.208.955-.91 2.297-7.042.932-8.855.901l-13.962-.236c-5.738-.096-11.48-.19-17.228-.287l-17.603-.282c-5.026-.079-10.037-.155-15.054-.226-3.199-.046-6.398-.094-9.591-.117-.422-.005-.849-.007-1.279-.007-7.799 0-11.835 4.394-11.835 4.394-.254.536-.295 1.848-.966 2.077-.726.251-1.01-.759-1.157-1.312-.35-1.336-.259-2.843-.243-4.212.03-2.506.203-5.004.243-7.507.143-8.027.416-16.052.706-24.071.299-8.088.64-16.171 1.021-24.253.142-2.996.284-5.991.447-8.985.208-3.813-.011-7.207 3.985-8.799 10.414-4.143 23.167-2.792 34.165-2.965 10.489-.165 20.948.873 31.424 1.155 3.284.089 6.534.658 9.854.707 3.193.045 6.742.322 9.012 2.872 1.168 1.314 1.777 2.979 2.081 4.691.31 1.769.839 3.452 1.031 5.265 1.071 10.068 1.665 20.179 2.392 30.275.33 4.466.681 8.928 1.117 13.383.528 5.404.944 11.169.503 16.584z" fill="#2f2f2f"/></g></g></g><path d="M8.356 110.859c2.391 2.993 3.59-.599 3.59-.599.598-11.972 14.363-12.571 14.363-12.571 8.083-1.495 91.106-.389 91.106-.389 1.614.056 3.168-1.01 3.925-2.396.959-1.756.619-5.158.391-7.108-.233-1.95-.229-3.948-.447-5.915-.853-7.626-1.625-15.26-2.396-22.893-1.026-10.216-2.042-20.432-3.22-30.631-.503-4.369-.746-8.857-2.091-13.072-2.335-7.324-10.997-6.719-17.11-7.176-10.014-.752-19.924-1.148-29.973-1.098-5.701.028-11.408.1-17.115.206-5.2.096-10.409.126-15.619.363-2.613.122-5.249.401-7.859.635-5.783.521-11.595 3.224-14.434 8.418-1.255 2.311-1.854 4.981-2.229 7.56-1.036 7.057-1.665 14.171-2.122 21.289-.457 7.085-.508 14.19-.538 21.289-.03 8.576-.538 17.146-.538 25.716-.005 6.268-.371 12.901 2.284 18.405l.032-.033z" fill="#d7598b"/><path d="M89.2 36.363c.126 1.208-.757 2.198-1.975 2.198h-40.42a2.217 2.217 0 0 1-2.209-2.211v-9.807c0-1.216.995-2.211 2.209-2.211h38.906c1.214 0 2.315.987 2.442 2.198l1.047 9.833z" fill="#fff"/></g></svg>