<svg id="レイヤー_1" xmlns="http://www.w3.org/2000/svg" viewBox="0 0 128 128"><g><g><g><g><path d="M118.592 76.922c-.284-6.334-2.421-10.446-6.296-14.026-9.68-8.93-21.335-17.455-32.069-25.093-4.979-3.542-10.518-8.205-16.285-10.372-8.13-3.054-17.322-1.958-26.026-.733-3.805.534-7.63 1.142-11.372 2.029-4.341 1.029-9.496 2.263-13.175 4.867-3.305 2.342-2.896 5.279-1.276 7.988.242 1.25.009 2.434.018 3.7a28.162 28.162 0 0 1-.834 7.101c-.362 1.434-.858 2.809-1.333 4.208-1.842 5.417 3.275 9.955 7.075 13.093 2.129 1.759 4.4 3.334 6.542 5.08 8.305 6.763 16.826 12.88 25.327 19.313 9.967 7.546 13.771 10.171 26.21 5.934 3.358-1.146 6.792-2.062 10.226-2.941 4.862-1.251 11.329-2.43 16.068-4.093 4.795-1.679 10.988-3.912 14.509-7.759 1.758-1.921 2.517-4.662 2.533-7.221.116-.317.174-.667.158-1.075z" fill="#fff"/><path d="M20.639 36.053c4.788-2.018 23.589-4.93 27.735-5.413 3.521-.413 7.947-.971 11.438-.454 1.4.233 5.93 2.596 10.626 5.788 9.597 6.525 34.923 25.514 36.523 26.984.421.392 3.905 3.709 2.154 3.692a41.703 41.703 0 0 0-5.3.304c-2.996.358-20.509 4.529-28.456 6.472-1.575.383-5.825 1.171-7.004 1.408-3.33.675-6.051-.383-8.775-2.283-5.668-3.955-40.928-31.127-41.849-33.044-.663-1.371.679-2.517 2.908-3.454z" fill="#bdcf46"/><path d="M119.449 70.268c-1.099-2.888-3.691-5.167-6.033-7.334-10.709-9.889-21.977-17.984-33.782-26.494-3.033-2.188-6-4.296-9.154-6.309-1.562-.995-3.5-1.837-5.158-2.667-5.505-2.75-11.214-2.546-17.156-1.866-10.817 1.237-21.264 1.6-31.647 5.154-2.892.992-5.725 2.362-6.388 5.854-.267 1.408.513 3.796 1.021 5.071.395.975-2.934 13.159-3.43 14.613-1.237 3.643.546 6.905 3.03 9.639 1.363 1.5 39.623 30.989 40.582 31.693 3.646 2.68 6.538 4.525 9.629 5.409 3.909 1.116 8.143.699 14.626-1.513 2.609-.888 23.585-6.093 35.248-10.701 3.979-1.571 6.259-3.688 7.192-4.704 1.134-1.242 1.862-2.812 2.267-4.463.246-1.009.363-2.051.371-3.059.113-.331-.426-6.24-1.218-8.323zm-98.81-34.215c4.788-2.018 23.589-4.93 27.735-5.413 3.521-.413 7.947-.971 11.438-.454 1.4.233 5.93 2.596 10.626 5.788 9.597 6.525 34.923 25.514 36.523 26.984.421.392 3.905 3.709 2.154 3.692a41.703 41.703 0 0 0-5.3.304c-2.996.358-20.509 4.529-28.456 6.472-1.575.383-5.825 1.171-7.004 1.408-3.33.675-6.051-.383-8.775-2.283-5.668-3.955-40.928-31.127-41.849-33.044-.663-1.371.679-2.517 2.908-3.454zm-4.033 28.151c-.983-.991-4.843-3.542-3.792-6.775 1.137-3.487 2.225-9.126 2.462-12.855 4.354 3.491 44.949 34.482 47.47 35.202 1.576 4.884 1.592 10.375-.149 15.201-.242.67-.434 1.324-.721 1.967-1.121-.417-2.213-1.001-3.384-1.725-1.888-1.167-38.603-27.702-41.886-31.015zm94.639 20.326c-3.654 2.601-9.158 3.654-12.763 4.722-7.726 2.287-15.522 4.375-23.331 6.367-2.325.596-4.671 1.3-7.046 1.691.441-.967.812-1.954 1.075-3.004.695-2.763.833-5.722.529-8.543-.163-1.45-.216-4.088-.563-5.496.409-.033 9.968-2.296 17.522-4.217 7.684-1.954 16.589-4.667 21.947-4.771 2.117-.041 3.68.938 4.384 1.521 1.871 1.529 2.296 4.362 1.834 6.612-.454 2.201-1.8 3.848-3.588 5.118z" fill="#2f2f2f"/></g></g></g><path d="M31.277 57.688c5.804 4.454 20.947 16.018 27.91 21.334 2.209 1.688 4.692 3.43 9.726 2.513 5.034-.912 36.466-9.055 36.466-9.055 2.866-.746 6.046-.954 8.983-.558a9.146 9.146 0 0 1 3.063.983c.333.179.691.366.991.604.162.129.275.3.45.421 2.316 1.575.896-3.138.633-3.783-.638-1.555-1.516-3.009-2.537-4.342a23.392 23.392 0 0 0-2.692-2.946c-10.709-9.884-22.547-18.447-34.352-26.956-3.033-2.188-6.025-4.459-9.179-6.476-1.563-.996-3.138-1.979-4.797-2.809-5.504-2.75-11.659-2.471-17.605-1.791-10.812 1.237-21.626 1.846-32.01 5.399-2.9.992-6.392 2.854-7.051 6.347-.267 1.408-.267 3.867 2.221 6.059 1.817 1.604 12.139 9.188 19.78 15.056z" fill="#006ca2"/></g></svg>