<svg id="レイヤー_1" xmlns="http://www.w3.org/2000/svg" xmlns:xlink="http://www.w3.org/1999/xlink" viewBox="0 0 128 128"><g><g><g><defs><path id="SVGID_1_" d="M83.424 30.094a502.05 502.05 0 0 1 10.959-12.051c.517-.55 1.041-1.092 1.567-1.633a150.016 150.016 0 0 1 3.85-3.883c1.125-1.08 2.542-2.5 4.268-2.2.67.116.958.917.903 1.491-.053.575-.22 1.163-.454 1.75-.467 1.188-1.192 2.358-1.745 3.35-3.755 6.717-8.068 13.201-12.327 19.605-.612.925-1.092 1.971-1.709 2.875l-.336.321c-.317.3-.634.496-1.067.58-2.447.462-5.255.233-7.722.054-.862-.062-1.871-.1-2.667-.475-.934-.438-.533-1.721-.071-2.346 1.622-2.196 4.747-5.392 6.551-7.438zm-25.398 7.438c-.462.625-.858 1.909.071 2.346.801.375 1.809.413 2.671.475 2.466.179 5.275.408 7.721-.054.434-.083.75-.279 1.067-.58l.337-.321c.617-.904 1.097-1.95 1.709-2.875 4.258-6.404 8.566-12.889 12.321-19.605.559-.992 1.279-2.163 1.75-3.35.229-.587.4-1.175.451-1.75.053-.575-.23-1.375-.909-1.491-1.717-.3-3.133 1.121-4.259 2.2a139.576 139.576 0 0 0-3.85 3.883c-.525.542-1.05 1.083-1.566 1.633a499.992 499.992 0 0 0-10.96 12.051c-1.804 2.046-4.928 5.242-6.554 7.438zm-18.771 2.346c.795.375 1.8.413 2.666.475 2.467.179 5.28.408 7.722-.054.438-.083.75-.279 1.067-.58l.337-.321c.617-.904 1.1-1.95 1.713-2.875 4.258-6.404 8.562-12.889 12.321-19.605.558-.992 1.279-2.163 1.75-3.35.229-.587.4-1.175.45-1.75.055-.575-.229-1.375-.908-1.491-1.717-.3-3.133 1.121-4.259 2.2a151.933 151.933 0 0 0-3.858 3.883c-.521.542-1.046 1.083-1.567 1.633a519.292 519.292 0 0 0-10.954 12.051c-1.805 2.046-4.926 5.242-6.551 7.438-.463.625-.863 1.908.071 2.346z"/></defs><use xlink:href="#SVGID_1_" overflow="visible" fill="#40c0e7"/><clipPath id="SVGID_2_"><use xlink:href="#SVGID_1_" overflow="visible"/></clipPath></g></g><g fill-rule="evenodd" clip-rule="evenodd" fill="#fcc21b"><path d="M14.853 69.888v51.42h98.294v-51.42L63.998 94.327z"/><path d="M14.853 48.362v13.676l49.145 24.43 49.149-24.43V48.362z"/></g></g></svg>