<svg id="レイヤー_1" xmlns="http://www.w3.org/2000/svg" viewBox="0 0 128 128"><g><g fill-rule="evenodd" clip-rule="evenodd" fill="#fcc21b"><path d="M14.854 49.053v51.42h98.293v-51.42L63.999 73.492z"/><path d="M14.854 27.527v13.676l49.145 24.43 49.148-24.43V27.527z"/></g><path d="M64.015 38.782c15.601 0 26.11 10.459 26.21 26.052.009.129.013.309.016.517.008 1.275-.209 3.888-1.691 6.421-.134.238-.263.476-.425.709-1.626 2.342-4.776 3.858-8.05 3.867h-.018c-3.1 0-5.942-1.275-7.841-3.484-2.238 2.692-5.667 4.438-10.059 4.451h-.042c-4.938 0-8.726-2.161-10.9-5.455-1.213-1.842-1.91-4.038-2.034-6.413a9.511 9.511 0 0 1-.033-.7c-.016-6.954 4.963-12.601 12.947-12.621h.025c2.562 0 4.771.625 6.646 1.642v-.688c0-.3.242-.546.546-.546l6.624-.017c.301 0 .546.241.546.546l.026 8.834h.041c.025.929.209 2.271.534 3.483.255.967.596 1.858 1.034 2.383.549.654 1.425.763 1.908.763h.033c.846 0 1.518-.371 1.659-.525.633-.904.725-2.15.708-2.634-.005-.017 0-.059 0-.075l-.013-.308C82.391 56.09 77.549 46.6 64.024 46.6h-.071c-10.842.024-18.397 7.342-18.373 17.797 0 .358.034.708.051 1.059.116 2.325.616 4.479 1.449 6.413 2.718 6.275 8.917 10.243 16.906 10.243h.05c4.471-.013 8.483-1.238 11.596-3.546l4.659 6.28c-4.467 3.312-10.084 5.067-16.238 5.079h-.075c-12.456 0-22.106-7.246-25.172-18.034-.575-2.021-.9-4.167-.987-6.413-.013-.354-.055-.7-.055-1.062-.034-14.817 10.972-25.601 26.167-25.634h.084m-1.891 31.76h.017c3.421-.008 5.621-2.25 5.929-5.138.026-.233.063-.462.063-.705-.008-3.204-2.316-5.812-6.008-5.812h-.017c-3.688.008-5.992 2.629-5.983 5.842 0 .238.041.467.066.7.316 2.882 2.524 5.113 5.933 5.113m1.891-37.094h-.1c-8.741.019-16.743 3.145-22.51 8.797-5.808 5.688-8.992 13.565-8.976 22.181 0 .327.017.658.042.987l.016.25c.109 2.707.505 5.284 1.188 7.686 3.789 13.307 15.681 21.908 30.302 21.908 7.396-.015 14.105-2.134 19.489-6.13a5.332 5.332 0 0 0 1.109-7.461l-.392-.525c3.425-.902 6.43-2.89 8.326-5.619.241-.35.449-.708.654-1.071 2.125-3.634 2.421-7.284 2.413-9.136-.004-.263-.007-.469-.017-.634-.176-18.397-13.126-31.233-31.544-31.233z" fill="#fcc21b"/><g><path d="M90.225 64.833c-.1-15.622-10.646-26.089-26.294-26.052-15.195.034-26.201 10.818-26.168 25.632 0 .362.042.708.055 1.062.087 2.246.412 4.392.987 6.413 3.076 10.809 12.755 18.064 25.248 18.034 6.154-.012 11.771-1.767 16.238-5.079l-4.659-6.28c-3.113 2.308-7.125 3.534-11.596 3.546-8.008.017-14.231-3.955-16.956-10.243-.833-1.933-1.333-4.087-1.449-6.413-.017-.351-.051-.7-.051-1.059-.025-10.455 7.531-17.772 18.373-17.797 13.576-.034 18.438 9.476 18.459 18.384l.013.308c0 .017-.005.059 0 .075.017.483-.076 1.729-.708 2.634-.142.154-.813.525-1.659.525-.483.004-1.382-.096-1.941-.763-.438-.525-.779-1.417-1.034-2.383-.325-1.213-.508-2.555-.534-3.483h-.041l-.026-8.834a.544.544 0 0 0-.546-.546l-6.624.017a.545.545 0 0 0-.546.546v.688c-1.883-1.021-4.1-1.646-6.671-1.642-7.983.021-12.962 5.667-12.947 12.621 0 .238.016.467.033.7.125 2.375.821 4.571 2.034 6.413 2.183 3.305 5.983 5.467 10.942 5.455 4.392-.013 7.821-1.758 10.059-4.451 1.899 2.213 4.75 3.488 7.859 3.484 3.274-.008 6.425-1.525 8.05-3.867.162-.233.29-.471.425-.709 1.483-2.533 1.7-5.146 1.691-6.421a10.42 10.42 0 0 0-.016-.515zm-22.156.571c-.308 2.888-2.508 5.129-5.929 5.138-3.417.008-5.633-2.225-5.951-5.113-.025-.233-.066-.462-.066-.7-.008-3.212 2.295-5.833 5.983-5.842 3.7-.008 6.017 2.604 6.025 5.812.001.243-.036.472-.062.705z" fill-rule="evenodd" clip-rule="evenodd" fill="#ed6c30"/></g></g></svg>