<svg id="レイヤー_1" xmlns="http://www.w3.org/2000/svg" viewBox="0 0 128 128"><g><path d="M45.168 27.626c1.578-6.728 4.549-12.854 8.998-18.143.88-1.045 2.004-1.838 3.205-2.467a4.934 4.934 0 0 1 1.711-.541c2.789-.399 28.672.248 38.757.184 3.843-.023 7.664-.293 11.516-.303.44-.005 1.831-.032 1.643.684-.216.807-1.39 1.485-1.89 2.155-3.109 4.159-5.104 9.323-6.43 14.299-1.284 4.839-1.908 9.833-2.16 14.822a114.134 114.134 0 0 0-.115 7.493c.018 1.229.06 2.454.11 3.683.045 1.005.331 3.715-2.215 3.706-.78-.004-1.564-.022-2.344-.031l-.394-.006c-2.349-.027-38.486.403-46.951-.211-2.083-.151-4.596-1.004-4.605-6.663-.01-6.241-.272-12.538 1.164-18.661z" fill="#fff"/><path d="M25.949 66.136c-2.188 3.108-2.619 7.548-3.367 11.18-.6 2.958-.863 5.976-.985 8.99-.074 1.829-.253 3.677-.005 5.498.189 1.426.99 2.701 1.252 4.123.619 3.343.243 6.777-1.958 9.433-.739.895-1.45 1.096-2.537 1.472-.61.212-1.357.354-2.045.437l-.577.06c-2.023.169-3.927.161-5.696-.985-1.839-1.193-2.234-3.51-2.326-5.536-.101-2.151.188-4.278.325-6.416.317-4.792 1.312-9.502 1.895-14.263.737-5.993 1.751-12.021 4.154-17.596.913-2.12 2.206-4.619 4.104-6.031.564-.422 1.262-.862 1.917-1.128 2.755-1.143 7.678-1.083 9.347 1.949.234.431.358.853.366 1.348.014.725.203 1.312-.008 2.022-.253.836-.523 1.624-.969 2.381-.719 1.236-2.071 1.901-2.887 3.062z" fill="#78a3ad"/><path d="M120.577 103.488c-.28.977-.716 1.89-1.367 2.683-1.417 1.725-3.601 2.711-5.723 3.229-4.192 1.022-8.64 1.109-12.929 1.118-2.92.01-5.833-.114-8.75-.16-2.288-.032-4.578-.06-6.861-.078-6.489-.046-12.978-.031-19.468.014-8.272.115-16.55.175-24.824.275-2.564.031-5.123.248-7.682.06-1.604-.119-4.893-.156-5.36-2.188-.174-.78.372-1.522.477-2.293a18.026 18.026 0 0 0-.023-4.839c-.294-2.145-.045-4.314-.357-6.447-.34-2.349-.89-4.421-.803-6.819.102-2.706.472-5.397 1.027-8.045.523-2.494.84-5.016 1.445-7.502.546-2.238 2.21-3.407 3.279-5.306a23.827 23.827 0 0 0 1.784-4.146c.33-1.023.431-2.124.646-3.179.23-1.123 1.501-1.27 2.45-1.279 1.624-.023 3.247.05 4.87.078 3.248.046 6.495.087 9.741.119 8.488.087 17-.267 25.499-.244 2.495.01 4.99.015 7.479-.004 3.986-.032 7.971.01 11.951-.109 3.729-.11 7.655-.234 11.157 1.242 1.482.623 2.798 1.572 3.812 2.825 1.583 1.958 2.61 4.43 3.39 6.952.495 1.614.89 3.247 1.257 4.788.573 2.412 2.361 11.781 2.802 14.032a107.57 107.57 0 0 1 1.037 6.247c.36 2.725.86 6.134.044 8.976z" fill="#78a3ad"/><g><path d="M124.336 80.123c-1.384-6.227-3.777-16.01-7.272-21.638a7.84 7.84 0 0 0-1.399-1.664c-1.582-1.444-3.627-2.354-5.664-2.939-.802-.229-1.853-.312-2.357-1.064-.505-.752-.441-1.784-.501-2.647a134.526 134.526 0 0 1-.21-4.256c-.161-4.761-.055-9.543.56-14.271.6-4.628 1.697-9.228 3.604-13.501a33.25 33.25 0 0 1 3.977-6.704c1.151-1.495 2.654-2.638 4.169-3.734 1.124-.815 3.091-1.779 3.031-3.411-.096-2.445-3.28-2.67-5.055-2.849-2.971-.307-5.934-.436-8.924-.481-12.106-.201-24.219.102-36.33-.009-4.77-.046-9.81-.271-14.529.504-.973.161-1.939.386-2.875.688-2.83.918-4.541 2.854-6.279 5.164a46.031 46.031 0 0 0-3.283 4.981c-2.344 4.09-4.032 8.525-5.118 13.106-1.107 4.668-1.597 9.461-1.716 14.249-.064 2.513-.022 5.035.083 7.548.06 1.459.257 2.803-.041 4.261-.165.798-.715 1.371-1.514 1.449-1.073.106-2.312.271-3.356-.027-1.028-.293-1.624-1.188-2.446-1.825a12.897 12.897 0 0 0-6.479-2.642c-3.559-.398-7.2.688-9.906 3.041-2.78 2.407-5.576 6.416-6.834 9.883C3.838 71.928 2.981 82.136 1.56 93.233c-.973 7.559-1.67 14.553 4.177 20.11l.257.197c.349.303.458 2.092.615 2.587.293.922.674 1.815 1.123 2.674.908 1.742 2.091 3.329 3.595 4.604 1.413 1.197 3.055 2.462 4.895 2.774 7.318 1.232 67.368 1.036 90.298.578 2.023-.042 8.369-.854 9.236-1.147 3.389-1.142 7.929-4.392 10.016-11.589.807-2.766 1.372-7.864 1.316-13.647-.014-1.742-.789-11.464-2.752-20.251zM45.168 27.626c1.578-6.728 4.549-12.854 8.998-18.143.88-1.045 2.004-1.838 3.205-2.467a4.934 4.934 0 0 1 1.711-.541c2.789-.399 28.672.248 38.757.184 3.843-.023 7.664-.293 11.516-.303.44-.005 1.831-.032 1.643.684-.216.807-1.39 1.485-1.89 2.155-3.109 4.159-5.104 9.323-6.43 14.299-1.284 4.839-1.908 9.833-2.16 14.822a114.134 114.134 0 0 0-.115 7.493c.018 1.229.06 2.454.11 3.683.045 1.005.331 3.715-2.215 3.706-.78-.004-1.564-.022-2.344-.031l-.394-.006c-2.349-.027-38.486.403-46.951-.211-2.083-.151-4.596-1.004-4.605-6.663-.01-6.241-.272-12.538 1.164-18.661zm-19.219 38.51c-2.188 3.108-2.619 7.548-3.367 11.18-.6 2.958-.863 5.976-.985 8.99-.074 1.829-.253 3.677-.005 5.498.189 1.426.99 2.701 1.252 4.123.619 3.343.243 6.777-1.958 9.433-.739.895-1.45 1.096-2.537 1.472-.61.212-1.357.354-2.045.437l-.577.06c-2.023.169-3.927.161-5.696-.985-1.839-1.193-2.234-3.51-2.326-5.536-.101-2.151.188-4.278.325-6.416.317-4.792 1.312-9.502 1.895-14.263.737-5.993 1.751-12.021 4.154-17.596.913-2.12 2.206-4.619 4.104-6.031.564-.422 1.262-.862 1.917-1.128 2.755-1.143 7.678-1.083 9.347 1.949.234.431.358.853.366 1.348.014.725.203 1.312-.008 2.022-.253.836-.523 1.624-.969 2.381-.719 1.236-2.071 1.901-2.887 3.062zm94.628 37.352c-.28.977-.716 1.89-1.367 2.683-1.417 1.725-3.601 2.711-5.723 3.229-4.192 1.022-8.64 1.109-12.929 1.118-2.92.01-5.833-.114-8.75-.16-2.288-.032-4.578-.06-6.861-.078-6.489-.046-12.978-.031-19.468.014-8.272.115-16.55.175-24.824.275-2.564.031-5.123.248-7.682.06-1.604-.119-4.893-.156-5.36-2.188-.174-.78.372-1.522.477-2.293a18.026 18.026 0 0 0-.023-4.839c-.294-2.145-.045-4.314-.357-6.447-.34-2.349-.89-4.421-.803-6.819.102-2.706.472-5.397 1.027-8.045.523-2.494.84-5.016 1.445-7.502.546-2.238 2.21-3.407 3.279-5.306a23.827 23.827 0 0 0 1.784-4.146c.33-1.023.431-2.124.646-3.179.23-1.123 1.501-1.27 2.45-1.279 1.624-.023 3.247.05 4.87.078 3.248.046 6.495.087 9.741.119 8.488.087 17-.267 25.499-.244 2.495.01 4.99.015 7.479-.004 3.986-.032 7.971.01 11.951-.109 3.729-.11 7.655-.234 11.157 1.242 1.482.623 2.798 1.572 3.812 2.825 1.583 1.958 2.61 4.43 3.39 6.952.495 1.614.89 3.247 1.257 4.788.573 2.412 2.361 11.781 2.802 14.032a107.57 107.57 0 0 1 1.037 6.247c.36 2.725.86 6.134.044 8.976z" fill="#2f2f2f"/><path d="M61.375 68.038c-1.321-1.142-3.637-1.036-5.265-1.201-4.192-.426-8.438-.073-12.629.124-2.917.133-4.568 1.123-5.545 3.966-.436 1.244-.706 2.538-.913 3.835-.702 4.38-1.674 8.961-.908 13.4.474 2.766 1.556 3.045 4.119 3.077 1.619.018 3.239.042 4.856.064 4.816.063 9.649.105 14.465-.156.21-.013.421-.041.628-.101l.294-.092c2.095-.78 2.531-3.312 2.623-5.274.078-1.581.151-3.196.188-4.816.05-2.216.037-4.434-.151-6.645-.166-1.924-.161-4.795-1.762-6.181z" fill="#bdcf46"/><path d="M59.555 18.688c4.896.138 12.3-2.33 16.945-.317 2.563 1.115 5.884.244 8.544-.023 3.444-.338 6.879 1.125 10.319 1.023 3.287-.091 3.283-5.242 0-5.1-3.229.142-7.109-.252-10.319-.646-2.669-.325-5.082.867-7.741-.229-1.087-.45-2.036-.398-3.169-.32-5.457.372-11.667-1.802-16.175 1.761-1.647 1.297-.179 3.801 1.596 3.851z" fill="#2f2f2f"/><path d="M57.179 27.874c1.89-.403 5.751.243 8.049.536 3.43.44 7.218-.376 10.841.238 2.466.423 5.274-.302 7.75-.472 2.903-.202 5.833.298 8.804.051 3.069-.257 3.083-5.086 0-4.807-6.3.569-13.776 1.096-19.976-.005-2.102-.375-3.706-.087-5.757.275-3.69.646-7.088-.742-10.836.077-2.681.593-1.544 4.685 1.125 4.107z" fill="#2f2f2f"/><path d="M55.276 39.394c3.585-.779 6.319.523 9.717.821 2.793.243 5.848-.591 8.65-.733 5.535-.284 11.377.922 16.825.225 3.188-.412 3.247-5.462 0-5.063-2.064.248-4.004-.385-6.063-.527-3.389-.238-7.25.477-10.762.358-4.206-.142-7.861 1.394-12.081.114-2.513-.766-5.049-.274-7.512.367-2.888.746-1.659 5.062 1.226 4.438z" fill="#2f2f2f"/></g><path d="M77.665 65.879c-1.584-.537-3.425-.321-5.076-.335-3.684-.028-3.684 5.897 0 5.87 1.651-.009 3.493.201 5.076-.335 2.499-.849 2.499-4.352 0-5.2z" fill="#fff"/><path d="M91.569 65.879c-1.581-.537-3.43-.321-5.081-.335-3.682-.028-3.682 5.897 0 5.87 1.651-.009 3.5.201 5.081-.335 2.495-.849 2.495-4.352 0-5.2z" fill="#fff"/><path d="M105.471 65.879c-1.584-.537-3.431-.321-5.077-.335-3.692-.028-3.692 5.897 0 5.87 1.646-.009 3.494.201 5.077-.335 2.499-.849 2.499-4.352 0-5.2z" fill="#fff"/><path d="M77.665 75.563c-1.584-.535-3.425-.32-5.076-.334-3.684-.027-3.684 5.897 0 5.87 1.651-.01 3.493.201 5.076-.334 2.499-.849 2.499-4.352 0-5.202z" fill="#fff"/><path d="M91.569 75.563c-1.581-.535-3.43-.32-5.081-.334-3.682-.027-3.682 5.897 0 5.87 1.651-.01 3.5.201 5.081-.334 2.495-.849 2.495-4.352 0-5.202z" fill="#fff"/><path d="M105.471 75.563c-1.584-.535-3.431-.32-5.077-.334-3.692-.027-3.692 5.897 0 5.87 1.646-.01 3.494.201 5.077-.334 2.499-.849 2.499-4.352 0-5.202z" fill="#fff"/><path d="M77.665 85.25c-1.584-.537-3.425-.321-5.076-.335-3.684-.027-3.684 5.897 0 5.87 1.651-.01 3.493.202 5.076-.334 2.499-.849 2.499-4.352 0-5.201z" fill="#fff"/><path d="M91.569 85.25c-1.581-.537-3.43-.321-5.081-.335-3.682-.027-3.682 5.897 0 5.87 1.651-.01 3.5.202 5.081-.334 2.495-.849 2.495-4.352 0-5.201z" fill="#fff"/><path d="M105.471 85.25c-1.584-.537-3.431-.321-5.077-.335-3.692-.027-3.692 5.897 0 5.87 1.646-.01 3.494.202 5.077-.334 2.499-.849 2.499-4.352 0-5.201z" fill="#fff"/></g></svg>