<svg id="レイヤー_1" xmlns="http://www.w3.org/2000/svg" viewBox="0 0 128 128"><g><g><path d="M77.465 63.322h.196c1.75 0 3.829-.584 3.868-2.522a9723.75 9723.75 0 0 0-.048-7.638c-.023-4.758-.046-9.513-.078-14.267 0-.593-.007-1.181-.007-1.77-.008-.655-.008-1.314-.008-1.969-.008-.855-.071-1.714-.016-2.566.016-.255.039-.506.086-.761.283-1.593 1.177-2.581 2.588-2.911.126-.031 3.358-.636 6.089-1.149 3.092-.585 5.728-1.083 5.932-1.143 2.706-.784 2.762-3.77 2.762-3.77s.431-8.874.313-11.988c-.094-2.731-2.369-2.9-2.919-2.9l-.125.004s-13.487 1.04-17.435 1.451c-1.766.185-2.211 1.645-2.337 3.194-.095 1.118-.103 2.244-.134 3.366a1488.808 1488.808 0 0 0-.282 14.512c-.017.824-.024 1.648-.04 2.471-.023 1.507-.048 3.013-.062 4.515-.016.656-.023 1.307-.031 1.958a1447.38 1447.38 0 0 0-.117 8.587c-.033 2.377-.064 4.758-.095 7.136-.015 1.522-.04 3.044-.055 4.57-.008.926-.235 2.205.312 2.958.41.565 1.008.616 1.643.632z" fill="#fcc21b"/><path d="M77.661 68.344h-.196c-2.574-.063-4.457-.976-5.711-2.713-1.476-2.028-1.35-4.323-1.279-5.555l.07-4.972.095-7.145c.031-2.863.071-5.727.118-8.597l.133-8.952c.04-2.73.086-5.461.142-8.197.046-2.13.085-4.249.141-6.366l.015-.602c.024-1.012.055-2.024.133-3.032.533-6.617 5.358-7.631 6.826-7.784 3.962-.414 17.011-1.422 17.568-1.463.07-.006.148-.01.219-.014.055-.002.236-.006.29-.006 3.805 0 7.752 2.658 7.94 7.74.118 3.232-.274 11.482-.321 12.412-.055 3.174-2.048 7.095-6.379 8.351-.362.106-.439.127-6.402 1.253l-2.646.496-2.046.387c0 .188.008.379.016.566.006.328.015.653.024.979l.142 25.636c-.081 4.511-3.737 7.578-8.892 7.578zm3.602-54.124c-.016.419-.024.839-.032 1.261l-.016.634a946.976 946.976 0 0 0-.142 6.294l-.046 2.287a8.74 8.74 0 0 1 1.874-.669c.056-.014 1.697-.327 3.665-.696l2.636-.498c1.876-.353 3.578-.673 4.646-.879.102-2.252.251-6.114.289-8.791-3.28.257-9.234.73-12.874 1.057z" fill="#855c52"/></g><g><g><path d="M80.265 99.486c-.023-.02-.046-.034-.07-.051-1.499-.984-3.861-.828-5.492-.58-4.041.604-5.312 4.87-5.625 8.656-.432 5.082-.095 10.27-.095 15.368 0 .789.071 1.587.33 2.331.11.3 1.397 2.348 6.293 2.348 4.809-.338 5.658-2.695 5.704-2.981.722-4.825.494-12.638.4-17.497-.048-2.638.902-5.806-1.445-7.594z" fill="#fff"/></g><path d="M77.104 102.242c.753 0 1.161.09 1.341.143.11.435.031 1.579-.015 2.281-.056.737-.102 1.5-.086 2.311l.023 1.118c.094 4.433.235 10.98-.298 15.297-.362.193-1.13.481-2.574.59-1.687-.014-2.651-.282-3.138-.486-.008-.094-.008-.2-.008-.318 0-1.627-.039-3.266-.071-4.905-.079-3.68-.15-7.156.157-10.574.29-3.305 1.225-5.09 2.762-5.306.715-.1 1.35-.151 1.907-.151m0-4.017c-.88 0-1.734.088-2.463.19-4.457.625-5.862 5.021-6.207 8.925-.471 5.235-.102 10.584-.102 15.838 0 .812.071 1.636.361 2.401.118.31 1.538 2.421 6.936 2.421 5.296-.35 6.238-2.778 6.286-3.072.792-4.974.548-13.028.446-18.033-.054-2.719.989-5.983-1.601-7.827a.463.463 0 0 0-.078-.053c-.973-.602-2.292-.79-3.578-.79z" fill="#855c52"/><path d="M118.232 64.099c-.494-4.923-1.334-9.88-3.021-14.547-1.427-3.966-3.584-8.012-7.17-10.421-4.691-3.146-9.564-4.168-15.401-4.949-10.318-1.375-21.176.194-31.369 1.852-3.916.636-7.814 1.217-11.659 1.978-3.57.704-14.334 3.334-16.061 4.023-2.66 1.066-4.982 2.748-6.889 4.866-.941 1.04-4.354 6.198-5.547 12.805-1.743 9.65-1.648 21.405-1.232 28.957.024.533.643 3.854 2.393 5.365 1.75 1.512 26.552 12.279 37.599 16.02.4.464 1.781.523 2.321.594 1.366.18 2.755.061 4.097-.288.886-.233 1.6-.799 2.424-1.186 1.318-.609 2.652-1.2 3.97-1.798 2.519-1.14 4.958-2.435 7.391-3.739 2.111-1.133 4.465-1.775 6.669-2.807a960.94 960.94 0 0 0 6.568-3.128 796.086 796.086 0 0 0 18.783-9.338c1.796-.922 3.993-1.55 5.241-3.246 1.49-2.03 1.357-5.269 1.405-7.658.077-4.46-.072-8.921-.512-13.355z" fill="#ed6c30"/><g><path d="M119.684 63.859c-.51-5.068-1.374-10.172-3.107-14.978-1.468-4.083-3.688-8.25-7.384-10.729-4.832-3.24-9.846-4.292-15.856-5.096-10.622-1.417-21.803.2-32.301 1.907-4.026.655-8.05 1.251-12.004 2.036-3.673.726-14.759 3.433-16.532 4.143-2.738 1.098-5.14 2.828-7.101 5.009-.965 1.071-4.487 6.383-5.712 13.185C17.898 69.273 18 81.375 18.424 89.15c.024.549.667 3.971 2.464 5.523 1.804 1.558 27.336 12.645 38.712 16.496.486.573 2.267.616 2.935.671 1.442.124 2.831-.196 4.228-.525 3.209-.753 6.018-2.842 9.015-4.17 3.875-1.721 7.649-3.668 11.487-5.473a807.14 807.14 0 0 0 6.763-3.221 838.298 838.298 0 0 0 19.347-9.615c1.845-.95 4.104-1.597 5.391-3.342 1.538-2.091 1.396-5.426 1.443-7.885.079-4.589-.07-9.183-.525-13.75zM58.886 91.818c.024 3.472.557 7.312-.149 10.733-.439 2.114-1.287 2.302-3.178 1.569-.809-.314-1.632-.604-2.44-.93a269.34 269.34 0 0 1-7.289-3.076c-.895-.388-1.79-.784-2.684-1.177-3.718-1.644-7.422-3.311-11.172-4.892a196.606 196.606 0 0 0-4.793-1.962c-.683-.267-1.821-.781-2.269-1.373-1.522-2.04-1.051-5.57-1.043-7.944.008-5.496.102-10.997.173-16.493.078-6.146.973-12.627 5.288-17.339 1.444-1.577 3.656-2.722 5.759-3.13 2.44-.475 5.32-.514 7.775-.137 1.24.188 2.44.443 3.555.722 1.938.482 8.395 4.087 10.553 10.784 3.233 10.019 1.899 24.734 1.891 28.43a390.09 390.09 0 0 0 .023 6.215zm53.023-7.779c-8.058 4.264-17.294 9.148-25.265 12.809a272.08 272.08 0 0 1-4.605 2.06c-3.696 1.62-7.415 3.189-11.086 4.864-.918.416-2.134.757-2.958 1.146-.958.451-2.04.847-2.904-.012-.964-.969-.58-3.209-.564-4.578l.071-5.018c.039-3.476.07-6.952.086-10.427.023-4.205.392-22.824-1.35-27.708a32.532 32.532 0 0 0-1.31-3.146c-1.373-2.836-3.13-5.523-5.407-7.732-2.824-2.754-7.257-3.593-6.37-4.555.416-.447 1.318-.482 1.875-.596 4.44-.902 10.694-2.118 15.989-2.789 9.753-1.232 18.893-2.283 28.56.317 2.58.694 5.099 1.597 7.509 2.75 2.596 1.31 6.189 5.406 7.798 12.103 1.953 8.132 2.338 18.739 2.495 24.832.048 4.264-1.654 5.202-2.564 5.68z" fill="#855c52"/></g><path d="M43.186 68.1c2.621.801 7.422 1.852 8.113-2.047.22-1.255.086-2.181-.33-2.93-.525-.954-1.506-1.616-2.785-2.312-2.927-1.584-6.497-1.961-9.659-2.922-1.742-.529-4.04-1.02-5.619.153-1.851 1.376-2.251 3.978-.572 5.66 2.575 2.57 7.486 3.374 10.852 4.398z" fill="#fff"/><path d="M47.069 72.733c-2-.734-4.087-1.189-6.081-1.927-1.514-.564-3.02-1.157-4.574-1.62-2.314-.69-4.316-1.824-6.503-.051-1.743 1.412-1.993 3.837-.338 5.488 1.177 1.177 3.475 1.663 5.076 2.255 1.985.734 1.506 3.163 1.421 4.826-.134 2.507-.691 6.351.815 8.54.856 1.252 2.676 1.757 4.104 1.346 1.836-.525 2.378-2.425 2.424-4.162.063-1.997-.117-4.358.377-6.301.416-1.636 2.432-.568 3.555-.286 1.114.282 2.824.608 3.859-.094.785-.534 1.42-1.727 1.499-2.645.094-1.071-.188-1.914-.706-2.593-1.09-1.438-3.217-2.149-4.928-2.776z" fill="#fff"/></g><path d="M77.465 63.322h.196c1.75 0 3.829-.584 3.868-2.522a9723.75 9723.75 0 0 0-.048-7.638c-.023-4.758-.046-9.513-.078-14.267 0-.593-.007-1.181-.007-1.77-.008-.655-.008-1.314-.008-1.969-.008-.855-.071-1.714-.016-2.566.016-.255.039-.506.086-.761.283-1.593 1.177-2.581 2.588-2.911.126-.031 3.358-.636 6.089-1.149 3.092-.585 5.728-1.083 5.932-1.143 2.706-.784 2.762-3.77 2.762-3.77s.431-8.874.313-11.988c-.094-2.731-2.369-2.9-2.919-2.9l-.125.004s-13.487 1.04-17.435 1.451c-1.766.185-2.211 1.645-2.337 3.194-.095 1.118-.103 2.244-.134 3.366a1488.808 1488.808 0 0 0-.282 14.512c-.017.824-.024 1.648-.04 2.471-.023 1.507-.048 3.013-.062 4.515-.016.656-.023 1.307-.031 1.958a1447.38 1447.38 0 0 0-.117 8.587c-.033 2.377-.064 4.758-.095 7.136-.015 1.522-.04 3.044-.055 4.57-.008.926-.235 2.205.312 2.958.41.565 1.008.616 1.643.632z" fill="#fcc21b"/></g></svg>