<svg id="レイヤー_1" xmlns="http://www.w3.org/2000/svg" viewBox="0 0 128 128"><g><g><path d="M88.631 94.919v20.63s-.405 4.835 2.557 2.008c.523-.501 7.518-8.093 7.518-8.093l18.412-17.655s2.177-2.47 2.177-6.503V69.551s0-4.461-3.067-1.394c-3.065 3.066-24.253 20.629-24.253 20.629s-3.344 1.951-3.344 6.133z" fill="#fcc21b"/><g><path d="M86.301 87.23c-1.707.566-3.499.305-5.358.074-.117-.013-.235-.035-.353-.053-2.518-.435-5.126-.788-7.685-.697-2.208.074-4.577.549-6.193 2.169-2.544 2.544-5.301 8.272-9.269 8.468-4.984.244-10.246-1.11-15.207-1.59-2.06-.196-4.195-.257-6.207-.784-.776-.201-1.524-.493-2.204-.919-.335-.213-.693-.453-.972-.741-.348-.365-.657-.775-.249-1.259.283-.331.71-.514 1.059-.758.967-.658 15.933-12.31 16.77-12.998.989-.814 2.409-.841 3.624-.732 1.586.153 3.167.292 4.753.418 3.167.262 30.404 3.485 31.654 3.559.431.026 1.368.031 1.538.566.21.629-3.602 4.568-5.701 5.277z" fill="#fcc21b"/><path d="M115.136 63.082c-.57.475-1.14.954-1.707 1.446-1.137.98-2.248 1.987-3.354 3.001-2.203 2.013-12.406 10.563-13.421 10.615-5.875.332-32.982-3.319-40.662-4.142-1.804-.191-3.581-.205-4.007-2.239-.257-1.224-.245-2.482-.323-3.729-.17-2.792-.296-5.584-.305-8.381 0-1.241-.178-2.736.131-3.938.178-.702.941-1.159 1.638-1.128.392.018 4.957.518 6.045.627 2.414.248 4.818.501 7.227.75 3.284.339 6.569.679 9.853 1.028 3.711.383 7.427.775 11.139 1.167 3.702.383 7.4.775 11.103 1.167l9.719 1.032c1.307.144 2.617.283 3.924.423 1.085.122 2.247.139 3.258.497.235.087.452.017.57.296.323.745-.34 1.111-.828 1.508z" fill="#fcc21b"/><path d="M83.273 116.01c.048 1.446.774 3.898-1.002 4.552-1.184.435-2.573.039-3.776-.105-8.881-1.045-66.118-8.071-67.224-9.221-1.186-1.229-.828-2.845-.879-4.399-.166-4.591.016-9.183.204-13.765.082-2.13-.106-4.465.252-6.56.179-1.002.688-1.791 1.773-1.786.951 0 1.952.096 2.884.279 2.051.396 4.247.3 6.229 1.015 2.365.854 3.276 2.714 4.173 4.909.505 1.237.971 2.491 1.534 3.707.893 1.921 2.034 3.237 3.367 4.147 1.808 1.232 8.037 2.051 15.081 2.853 5.305.606 11.599 1.464 13.899 1.007 1.408-.275 2.745-.763 3.973-1.547 1.606-1.023 2.788-2.905 3.864-4.43.566-.802 1.115-1.616 1.664-2.426.3-.449.63-.893 1.159-1.046 1.646-.475 3.668.039 5.357.205 1.476.144 2.953.318 4.435.388.932.048 2.796-.083 3.14 1.076.279.945-.039 2.387-.061 3.376-.026 1.346-.057 2.692-.079 4.034-.084 4.576-.115 9.159.033 13.737z" fill="#fcc21b"/><path d="M14.429 79.79l10.005 1.154s6.352 1.351 6.931 5.197l.575 1.921 17.126-12.698s.772-.579.772-2.888V59.774c0-2.696-2.122-2.504-3.654-1.542-1.543.968-31.755 21.558-31.755 21.558z" fill="#fcc21b"/><path d="M123.126 61.771c-.027-2.879-1.908-3.742-3.106-4.329-1.777-.876-4.204-1.112-6.574-1.417-8.367-1.08-49.447-5.371-59.994-6.285-1.52-.135-3.249.065-5.901 1.703C33.081 60.376 23.598 65.935 13 73.518c-1.607 1.155-3.088 2.405-4.713 3.537-1.777 1.242-2.635 2.452-2.658 4.604-.091 9.439-1.062 18.796-.587 28.17.056 1.141.135 2.282.24 3.423.235 2.579 4.234 3.394 6.181 3.611 1.952.213 3.798.745 5.728 1.067 5.261.879 10.55 1.599 15.825 2.421a647.713 647.713 0 0 0 18.512 2.614c6.016.758 12.026 1.503 18.047 2.191 3.868.44 14.893 2.034 15.307 2.034 2.731.004 4.107-1.329 5.567-2.644 6.978-6.29 25.446-25.068 31.074-31.572 1.259-1.451 1.533-2.609 1.547-4.526.056-7.211.134-18.144.056-26.677zm-70.317-5.62c.173-.67.901-1.11 1.577-1.08.37.018 4.748.498 5.793.602l6.931.719c3.149.327 6.299.653 9.443.984 3.563.37 7.126.745 10.685 1.12 3.55.37 7.096.745 10.646 1.119l9.317.993 3.764.405c1.042.113 2.156.131 3.123.475.222.083.436.018.554.284.305.714-.332 1.067-.793 1.446-.557.453-1.097.915-1.642 1.385-1.094.941-2.152 1.908-3.215 2.879-2.116 1.93-11.896 10.127-12.867 10.18-5.636.318-31.632-3.184-38.994-3.972-1.726-.184-3.433-.196-3.846-2.147-.244-1.172-.231-2.383-.305-3.577-.165-2.674-.292-5.354-.295-8.037-.002-1.19-.168-2.623.124-3.778zm-7.11 2.583c1.485-.928 3.533-1.115 3.533 1.49V72.49c0 2.23-.745 2.788-.745 2.788l-16.54 12.266-.558-1.86c-.557-3.715-6.69-5.018-6.69-5.018l-9.665-1.115s29.18-19.884 30.665-20.817zm37.574 57.276c.048 1.446.774 3.898-1.002 4.552-1.184.435-2.573.039-3.776-.105-8.881-1.045-66.118-8.071-67.224-9.221-1.186-1.229-.828-2.845-.879-4.399-.166-4.591.016-9.183.204-13.765.082-2.13-.106-4.465.252-6.56.179-1.002.688-1.791 1.773-1.786.951 0 1.952.096 2.884.279 2.051.396 4.247.3 6.229 1.015 2.365.854 3.276 2.714 4.173 4.909.505 1.237.971 2.491 1.534 3.707.893 1.921 2.034 3.237 3.367 4.147 1.808 1.232 8.037 2.051 15.081 2.853 5.305.606 11.599 1.464 13.899 1.007 1.408-.275 2.745-.763 3.973-1.547 1.606-1.023 2.788-2.905 3.864-4.43.566-.802 1.115-1.616 1.664-2.426.3-.449.63-.893 1.159-1.046 1.646-.475 3.668.039 5.357.205 1.476.144 2.953.318 4.435.388.932.048 2.796-.083 3.14 1.076.279.945-.039 2.387-.061 3.376-.026 1.346-.057 2.692-.079 4.034-.084 4.576-.115 9.159.033 13.737zm-2.931-28.705c-.114-.013-.227-.035-.341-.053-2.438-.422-4.961-.762-7.439-.675-2.139.074-4.431.532-5.994 2.1-2.466 2.465-5.131 8.011-8.974 8.198-4.826.235-9.918-1.076-14.718-1.538-1.996-.191-4.061-.248-6.007-.758-.754-.196-1.482-.479-2.135-.893-.328-.205-.67-.435-.937-.715-.344-.356-.65-.753-.244-1.219.275-.323.684-.497 1.024-.732.937-.64 15.42-11.917 16.23-12.584.957-.788 2.334-.814 3.51-.705 1.533.144 3.067.279 4.6.405 3.062.253 29.433 3.371 30.639 3.441.419.026 1.325.031 1.49.549.201.61-3.49 4.421-5.523 5.105-1.644.548-3.386.296-5.181.074zm38.954-2c0 4.034-2.177 6.503-2.177 6.503l-18.412 17.655s-6.996 7.592-7.518 8.093c-2.961 2.827-2.557-2.008-2.557-2.008v-20.63c0-4.181 3.345-6.133 3.345-6.133s21.188-17.563 24.253-20.629c3.067-3.067 3.067 1.394 3.067 1.394l-.001 15.755z" fill="#855c52"/></g></g><g><path d="M66.682 78.401L41.993 44.726H57.4V13.298h18.42v31.428h15.555L66.682 78.401z" fill="#ed6c30"/></g></g></svg>