<svg id="レイヤー_1" xmlns="http://www.w3.org/2000/svg" viewBox="0 0 128 128"><g><g><g><path d="M92.397 33.994c3.684-.422 13.153-.867 14.863-.613 1.385.208 3.027.758 4.818 2.087 1.654 1.228 3.858 2.804 5.585 4.074a63.329 63.329 0 0 1 5.909 4.975c.418.401.83.81 1.241 1.217 1.309 1.316 1.47 4.11 1.597 6.537.326 6.814-.075 26.906-.075 37.423 0 4.214-4.997 4.074-5.781 4.107-5.7.228-13.844.011-16.956.081-2.545.053-5.078-2.172-5.078-2.172l-11.669-8.644-.038-44.353c-.001-.001-.385-4.463 5.584-4.719z" fill="#fff"/><path fill="#78a3ad" d="M124.305 47.924l-21.467.364v42.929l20.739 1.456z"/><g><g><path d="M86.011 37.71l.034 46.14 12.146 8.992s2.639 2.315 5.283 2.259c3.236-.072 11.708.154 17.647-.085.81-.034 5.998.111 5.998-4.272 0-10.94.427-31.84.086-38.93-.124-2.524-.299-5.432-1.664-6.801a65.174 65.174 0 0 0-7.444-6.442c-1.786-1.322-4.092-2.958-5.807-4.237-1.854-1.382-3.568-1.954-5.009-2.17-1.778-.265-11.627.2-15.459.64-6.212.263-5.811 4.906-5.811 4.906zm19.779 47.381v-6.89c0-7.849-.06-24.98-.043-25.696.013-.448.099-1.036.436-1.36.375-.367 12.138-.67 14.125-.213 1.624.375 1.461 3.061 1.483 4.127.145 7.547.319 15.102.107 22.649-.039 1.342-.06 2.681-.094 4.02-.035 1.121-.013 2.247-.047 3.368-.039.993.042 2.276-.528 3.138-.393.581-.938.605-1.583.695-2.353.328-4.693.35-7.059.354-1.855 0-4.362.298-6.076-.538a1.352 1.352 0 0 1-.265-.175c-.849-.739-.456-2.525-.456-3.479zm-1.216-40.623c-.457-.162-6.302-4.388-8.966-6.741-.832-.729.268-1.078.934-1.164 2.452-.328 8.647-.345 9.226-.341 1.075 0 2.157.179 3.134.913.921.69 10.561 7.158 8.894 7.648-.384.111-11.336.149-11.797.06a9.718 9.718 0 0 1-1.425-.375z" fill="#2f2f2f"/></g></g></g><g><path d="M102.809 64.479V52.364c0-2.19-1.62-4.04-3.795-4.328-.191-.026-15.95-2.176-29.422-8.438-3.061-1.422-16.338-10.53-19.301-12.768-7.148-5.4-10.398-8.231-10.454-8.249-4.272-1.264-6.638-1.862-6.638.069l-8.429 85c0 1.846 10.958 8.789 15.656 5.267 7.025-5.263 13.812-10.417 20.571-15.325 13.234-9.601 37.932-12.358 38.184-12.386a4.368 4.368 0 0 0 3.901-4.339V65.916c0-.503-.099-.988-.273-1.437z" fill="#2f2f2f"/><path d="M98.443 65.916V52.364s-24.831-3.287-40.009-14.141C43.248 27.364 37.564 18.65 37.564 18.65v89.674s6.144-7.576 20.871-18.264c14.359-10.423 40.281-13.193 40.281-13.193V65.916h-.273z" fill="#ed6c30"/><path d="M49.254 38.483s7.53 8.097 24.601 12.902c13.651 3.84 24.179 4.438 24.179 4.438l.631 5.247s-32.497.591-47.318-6.885l-2.093-15.702z" fill="#fff"/><path d="M91.758 50.563s5.559 4.059 5.559 13.978c0 10.07-6.94 14.427-6.94 14.427l3.692 3.784 6.855-6.886-1.057-24.444-5.781-5.206-2.328 4.347z" fill="#2f2f2f"/></g></g><g><path d="M3.546 64.005c0 26.215 10.906 47.471 24.37 47.471 13.451 0 24.37-21.256 24.37-47.471 0-26.231-10.919-47.479-24.37-47.479-13.464-.001-24.37 21.248-24.37 47.479z" fill="#ed6c30"/><path d="M.664 64.003c0 27.615 12.364 49.999 27.619 49.999s27.628-22.384 27.628-49.999c0-27.621-12.374-50.005-27.628-50.005S.664 36.382.664 64.003zm5.121 0c0-23.82 9.358-43.118 20.903-43.118 11.546 0 20.913 19.298 20.913 43.118 0 23.806-9.367 43.108-20.913 43.108-11.545 0-20.903-19.302-20.903-43.108z" fill="#2f2f2f"/><path d="M15.774 62.622c0 5.705 2.694 10.326 6.02 10.326 3.321 0 6.02-4.621 6.02-10.326 0-5.701-2.7-10.322-6.02-10.322-3.326 0-6.02 4.621-6.02 10.322z" fill="#2f2f2f"/><g><path fill="#2f2f2f" d="M21.794 52.3l30.493-3.548 1.321 5.936-27.815 1.705z"/></g><path d="M39.031 52.28s-3.292-10.982-10.476-17.706c-4.877-4.566-12.7-6.958-15.016-4.081l-.981-3.181s8.544-12.505 19.731-8.642c11.188 3.867 19.727 29.79 19.727 29.79l-12.985 3.82z" fill="#2f2f2f"/><g><path fill="#2f2f2f" d="M21.048 72.867l30.957 10.752 2.806-5.095-32.015-9.823z"/></g></g><path d="M50.956 92.565s-.521 3.463 3.479.479l.896 2.965-9.26 6.244-1.654-2.97 3.137-6.685 3.402-.033z" fill="#2f2f2f"/></g></svg>