<svg id="レイヤー_1" xmlns="http://www.w3.org/2000/svg" viewBox="0 0 128 128"><g><g><path d="M80.261 99.483c-.023-.02-.046-.031-.07-.051-1.499-.985-3.861-.828-5.492-.581-4.041.604-5.311 4.872-5.625 8.658-.432 5.08-.095 10.27-.095 15.367 0 .788.071 1.588.33 2.33.11.302 1.397 2.35 6.292 2.35 4.81-.338 5.658-2.695 5.705-2.982.722-4.825.494-12.64.4-17.496-.048-2.636.902-5.806-1.445-7.595z" fill="#fff"/></g><path d="M77.1 102.241c.722 0 1.133.084 1.346.153.113.443.03 1.573-.015 2.269-.056.787-.107 1.565-.091 2.313l.023 1.138c.094 4.427.235 10.966-.294 15.278-.366.192-1.13.48-2.57.59-1.694-.014-2.66-.284-3.146-.488-.007-.094-.007-.198-.007-.316 0-1.63-.036-3.268-.071-4.909-.079-3.678-.15-7.152.157-10.569.297-3.307 1.228-5.094 2.762-5.31.713-.1 1.353-.149 1.906-.149m0-4.016c-.875 0-1.734.086-2.464.188-4.465.628-5.853 5.021-6.206 8.925-.472 5.237-.102 10.584-.102 15.841 0 .812.078 1.636.368 2.401.119.31 1.539 2.42 6.937 2.42 5.288-.35 6.23-2.778 6.278-3.072.792-4.975.548-13.028.446-18.034-.054-2.718.989-5.983-1.592-7.827-.033-.019-.056-.035-.087-.055-.974-.601-2.292-.787-3.578-.787z" fill="#855c52"/><path d="M118.228 64.098c-.495-4.923-1.334-9.881-3.013-14.546-1.436-3.966-3.593-8.015-7.179-10.424-4.691-3.146-9.564-4.166-15.401-4.946-10.318-1.377-21.176.192-31.369 1.852-3.907.635-7.814 1.216-11.659 1.977-3.57.702-14.334 3.334-16.06 4.021-2.652 1.067-4.982 2.75-6.889 4.869-.941 1.039-4.354 6.198-5.547 12.804-1.743 9.651-1.64 21.404-1.232 28.956.024.534.651 3.856 2.392 5.366 1.75 1.511 26.552 12.279 37.599 16.018.4.467 1.781.526 2.322.596 1.374.181 2.762.059 4.096-.29.894-.231 1.6-.796 2.432-1.185 1.311-.608 2.645-1.201 3.971-1.797 2.511-1.142 4.95-2.436 7.382-3.739 2.111-1.133 4.465-1.777 6.669-2.809a747.256 747.256 0 0 0 6.568-3.126 802.435 802.435 0 0 0 18.79-9.341c1.789-.922 3.986-1.549 5.234-3.244 1.491-2.032 1.365-5.269 1.404-7.658.078-4.46-.063-8.92-.51-13.354z" fill="#ed6c30"/><g><path d="M119.68 63.859c-.503-5.069-1.374-10.173-3.1-14.978-1.475-4.083-3.695-8.25-7.391-10.729-4.833-3.24-9.847-4.292-15.857-5.096-10.622-1.417-21.803.2-32.293 1.906-4.034.655-8.058 1.252-12.012 2.036-3.673.726-14.759 3.433-16.532 4.143-2.738 1.099-5.14 2.829-7.101 5.01-.965 1.071-4.48 6.382-5.712 13.185-1.789 9.937-1.687 22.04-1.263 29.814.023.549.667 3.97 2.463 5.524 1.805 1.557 27.336 12.643 38.712 16.496.494.572 2.267.615 2.935.67 1.451.122 2.831-.196 4.229-.526 3.209-.753 6.018-2.844 9.015-4.17 3.875-1.722 7.65-3.667 11.486-5.473a778.194 778.194 0 0 0 6.763-3.22 818.747 818.747 0 0 0 19.348-9.616c1.852-.949 4.112-1.596 5.391-3.342 1.538-2.091 1.404-5.425 1.443-7.885.08-4.589-.062-9.183-.524-13.749zm-7.768 20.18c-8.065 4.264-17.301 9.148-25.272 12.809a267.747 267.747 0 0 1-4.605 2.06c-3.696 1.62-7.415 3.189-11.087 4.864-.91.415-2.133.757-2.958 1.146-.95.451-2.039.847-2.895-.012-.973-.969-.588-3.209-.564-4.578.016-1.671.039-3.342.062-5.018.204-16.139.087-37.596-14.311-48.307-.957-.718-1.97-1.389-3.122-1.762-.895-.291-2.009-.381-2.77-.977-2.15-1.679 2.487-2.153 3.217-2.326 6.669-1.584 13.691-2.723 20.501-3.582 9.753-1.232 18.893-2.283 28.559.317 2.581.695 5.108 1.597 7.509 2.75 2.597 1.31 6.19 5.406 7.799 12.103 1.953 8.132 2.346 18.74 2.494 24.832.047 4.265-1.655 5.202-2.557 5.681z" fill="#855c52"/></g><path d="M100.284 62.49c-2.062.439-16.993 4.076-22.36 5.59-1.71.479-3.774.792-5.092 2.063-.815.781-.769 1.82-.753 2.868.024 1.405.016 2.805.274 4.19.354 1.895 1.867 1.816 3.366 1.294.933-.326 16.052-6.242 18.854-6.292 1.938-.035 1.671 5.233 2.958 7.505 1.592 2.809 4.652.894 6.645-.043 2.394-1.126 3.421-2.997 3.735-5.696.376-3.245.713-6.854.054-10.074-.777-3.759-5.217-1.931-7.681-1.405z" fill="#fcc21b"/></g></svg>