<svg id="レイヤー_1" xmlns="http://www.w3.org/2000/svg" xmlns:xlink="http://www.w3.org/1999/xlink" viewBox="0 0 128 128"><g><g><g><g><path d="M70.903 41.476c-11.5-4.031-37.679 34.458-37.679 34.458s-11.465 23.085-12.217 24.615c-1.13 2.271-2.316 5.685-1.293 8.642 4.194 12.153 21.572 16.392 37.112 15.949 15.539-.447 27.15-5.707 28.542-10.111 1.392-4.403-1.916-13.771-1.916-13.771l-1.9-6.792s.859-48.959-10.649-52.99z" fill="#66949e"/></g><g><path fill="#fff" d="M43.426 83.555l-10.64 35.088-12.213-12.617 14.98-29.17z"/></g><g><path d="M69.245 46.68c3.73 4.269 6.73 26.613 6.368 48.113a6.89 6.89 0 0 0 .267 2.035l1.977 7.06c.034.151.086.299.133.445 1.177 3.343 2.045 7.658 1.964 9.4-1.873 1.691-9.772 5.595-23.171 5.975-.679.022-1.366.03-2.062.03-11.775 0-26.583-3.101-29.591-11.824-.104-.323.034-1.612.988-3.537.722-1.463 10.863-21.875 12.484-25.137 11.192-16.376 25.399-31.417 30.643-32.56m.498-7.161c-12.711 0-37.283 36.129-37.283 36.129s-11.912 23.998-12.707 25.591c-1.182 2.359-2.402 5.908-1.345 8.983 4.16 12.045 20.773 16.613 36.312 16.613.765 0 1.521-.013 2.278-.033 16.153-.462 28.224-5.932 29.668-10.511 1.444-4.577-1.977-14.317-1.977-14.317l-1.985-7.062s.885-50.895-11.078-55.087a5.706 5.706 0 0 0-1.883-.306z" fill="#2f2f2f"/></g></g><g><g><g><path d="M110.653 97.197c-24.873 25.451-60.343 25.339-84.502 1.73C1.992 75.319-1.695 37.153 23.186 11.7l87.467 85.497z" fill="#2f2f2f"/></g><g><g><defs><path id="SVGID_1_" d="M100.124 23.741c20.464 21.008 28.285 52.831 9.274 72.278-19.003 19.448-53.433 16.613-76.922-6.332C9.014 66.746 5.382 32.383 24.397 12.936 43.4-6.512 79.295 2.375 100.124 23.741z"/></defs><use xlink:href="#SVGID_1_" overflow="visible" fill="#fff"/><clipPath id="SVGID_2_"><use xlink:href="#SVGID_1_" overflow="visible"/></clipPath><g clip-path="url(#SVGID_2_)"><path d="M36.817 89.335s-9.188-11.064-9.849-30.09C25.876 28.043 43.684 8.684 61.586 6.226L49.872-1.082S26.331-2.82 21.076 8.774c-22.05 48.658.975 65.065 11.968 81.21l3.773-.649z" fill="#66949e"/></g></g><g><path d="M97.791 26.04c18.379 18.863 27.98 49.084 9.553 67.93-7.499 7.677-18.131 11.904-29.94 11.904-15.096 0-30.657-6.741-42.676-18.495-21.185-20.7-25.753-51.203-10.752-69.623 2.51-3.088 6.708-6.072 8.887-7.286 14.301-7.982 30.386-4.819 41.955-.206 9.626 3.834 16.257 8.819 22.973 15.776zM19.567 15.916C4.196 36.386 8.962 68.652 31.493 90.682c13.386 13.077 30.218 19.804 45.912 19.804 12.638 0 24.525-4.366 33.248-13.289 19.557-20.014 11.508-52.76-9.549-74.375-8.423-8.524-15.023-12.11-23.184-16.006-6.08-2.909-18.173-7.079-32.182-5.167-5.913.808-10.894 2.196-15.806 5.093-1.319.771-4.297 2.709-6.747 4.959-1.718 1.581-3.162 3.609-3.618 4.215z" fill="#2f2f2f"/></g></g></g></g></g><g><g><g fill="#2f2f2f"><path d="M90.881 28.717l-19.17 41.147.829 3.028 3.563-.437 18.194-42.552z"/><path d="M72.54 73.992a1.1 1.1 0 0 1-1.061-.81l-.83-3.028a1.085 1.085 0 0 1 .064-.754l19.171-41.147a1.097 1.097 0 0 1 1.358-.576l3.42 1.186c.288.101.52.316.645.595.125.279.125.597.004.877L77.112 72.887a1.093 1.093 0 0 1-.876.66l-3.562.436a.862.862 0 0 1-.134.009zm.34-4.029l.469 1.721 1.994-.243 17.485-40.885-1.375-.475L72.88 69.963z"/></g></g><g fill="#2f2f2f"><path d="M89.592 28.395L44.625 73.972l.847 3.756 3.82-.472L92.63 31.633z"/><path d="M45.472 78.828a1.1 1.1 0 0 1-1.074-.857l-.847-3.756a1.1 1.1 0 0 1 .297-1.017l44.958-45.577c.215-.213.546-.252.799-.326a1.1 1.1 0 0 1 .791.348l3.034 3.238c.404.425.4 1.087 0 1.511L50.087 78.014a1.077 1.077 0 0 1-.662.333l-3.825.473a.87.87 0 0 1-.128.008zm.356-4.512l.494 2.198 2.441-.303 42.354-44.583-1.547-1.648-43.742 44.336z"/></g><g fill="#2f2f2f"><path d="M90.92 25.381L49.004 47.235l.627 3.895 3.627-.264 40.408-21.59z"/><path d="M49.631 52.23c-.533 0-.993-.389-1.083-.924l-.632-3.896a1.107 1.107 0 0 1 .58-1.152l41.916-21.854a1.092 1.092 0 0 1 1.401.342l2.75 3.895c.18.258.245.58.172.888a1.116 1.116 0 0 1-.55.718l-40.407 21.59a1.18 1.18 0 0 1-.438.127l-3.622.264a1.263 1.263 0 0 1-.087.002zm.585-4.387l.344 2.116 2.381-.174 39.11-20.894-1.474-2.091-40.361 21.043z"/></g></g><g><g><path d="M103.777 26.264c0 5.505-4.469 9.965-9.97 9.965-5.509 0-9.957-4.46-9.957-9.965 0-5.503 4.447-9.963 9.957-9.963 5.501-.001 9.97 4.46 9.97 9.963z" fill="#2f2f2f"/></g><g><defs><path id="SVGID_3_" d="M98.956 26.264a5.147 5.147 0 1 1-10.296 0 5.146 5.146 0 0 1 5.148-5.148 5.154 5.154 0 0 1 5.148 5.148z"/></defs><use xlink:href="#SVGID_3_" overflow="visible" fill="#66949e"/><clipPath id="SVGID_4_"><use xlink:href="#SVGID_3_" overflow="visible"/></clipPath><g clip-path="url(#SVGID_4_)"><path d="M95.651 24.122a3.597 3.597 0 0 1-3.605 3.605 3.593 3.593 0 0 1-3.593-3.605 3.59 3.59 0 0 1 3.593-3.601 3.595 3.595 0 0 1 3.605 3.601z" fill="#fff"/></g></g></g></g></svg>