<svg id="レイヤー_1" xmlns="http://www.w3.org/2000/svg" viewBox="0 0 128 128"><g><path fill="#ed6c30" d="M86.599 26.496l28.093-7.467-1.783-3.556L63.838 3.028 31.837 9.785v2.488z"/><path fill="#ed6c30" d="M86.599 26.496l25.96-7.111 5.334 5.334-1.068 54.758-30.226 15.646z"/><path fill="#ed6c30" d="M26.503 12.983l61.163 14.223-1.776 66.849-55.47-9.601-7.117-5.688z"/><path fill="#fcc21b" d="M44.996 26.851L10.502 52.098l2.133 5.334 33.07 17.778 25.251-35.559v-5.334z"/><path d="M120.859 43.808c-.101-6.784.9-14.401-.591-21.234a24.255 24.255 0 0 0-1.184-3.896c-2.583-6.417-9.034-7.679-15.017-9.409-11.86-3.422-24.394-6.043-36.604-7.889C55.497-.428 44.796 2.58 33.17 5.188c-8.093 1.813-11.876 5.976-12.602 14.289-.599 6.934-.583 13.993-.491 21.035-3.033 2.267-6.034 4.583-9.068 6.838a13.92 13.92 0 0 0-3.699 4.092c-.958 1.608-.075 3.575 1.192 4.758 2.117 1.983 4.125 4.025 6.767 5.334 1.742.867 3.441 1.9 5.109 2.975.066 2.809.141 5.621.199 8.434.025 1.509.058 3.017.083 4.525.009.35.485 4.721 3.059 6.226 5.968 3.479 13.501 5.075 20.06 7.013 2.951.871 5.909 1.721 8.876 2.536 1.234.337 2.525.573 3.734.967.992.323 3 .744 2.625 2.19-.216.827-1.182.854-1.899 1.002-1.101.221-2.209.365-3.3.561-1.575.279-3.125.64-4.642 1.127-2.442.786-4.992 1.909-6.742 3.848-1.734 1.929-1.917 4.157-1.917 6.601v2.667c0 .704.058 1.45.242 2.163-.042 3.212 2.658 6.225 7.675 8.501 4.534 2.059 10.601 3.412 17.076 3.812a65.54 65.54 0 0 0 3.893.121c5.5 0 11.209-.559 16.242-2.9 1.75-.812 3.783-1.779 4.901-3.421 1.366-1.996 1.149-4.609 1.166-6.907.025-2.44.267-5.152-1.083-7.323-1.5-2.413-4.15-3.984-6.675-5.13-2.225-1.008-4.826-1.846-7.659-2.487v-.133c3.867.466 7.759.508 11.576-.488l.175-.066c.841-.117 1.658-.513 2.424-.834 2.518-1.038 5.084-1.921 7.651-2.833 4.075-1.454 8.067-3.188 11.876-5.251 2.725-1.479 6.55-3.171 8.417-5.713 3.3-4.492 2.142-11.293 2.316-16.509.266-7.679.24-15.321.132-23zM16.103 51.583c-.393-.046-.767-.221-1.16-.208-.525-1.421 3.676-3.458 4.593-4.063.217-.142.416-.304.633-.45.325-.225.642-.458.966-.688 1.676-1.2 3.317-2.446 5.017-3.625.134-.092.259-.188.393-.279 1.525-1.058 3.025-2.15 4.525-3.233 3.392-2.442 6.742-4.925 10.017-7.538l.183-.15c1.101-.875 2.133-1.958 3.492-2.421 1.409-.483 3.817.2 5.184.654.625.208 1.442.396 1.95.792 1.084.846 1.309 2.312 1.591 3.559.41 1.809.543 3.509.543 5.388 0 2.671.799 4.763-2.108 5.913-2.034.804-4.31.704-6.427 1.179l-.066.013c-2.451.554-4.917 1.042-7.408 1.379-3.851.525-7.651 1.225-11.459 2.017-.2.042-.392.071-.583.112-1.593.333-3.201.529-4.801.775-.325.05-.65.104-.975.163-.525.092-1.05.188-1.568.309-.824.19-1.674.494-2.532.402zm41.66-8.004c-.008-.817-.05-1.633-.05-2.45l-.116-2.175c1.192-.696 3.066-.354 4.392-.354 1.167 0 2.275.075 3.417.183.583.054 1.599-.25 2.092.171.833.696-.417 1.654-.859 2.208-1.158 1.458-1.942 3.234-3.025 4.763-.884 1.25-1.617 2.617-2.5 3.858-.059.083-.125.158-.191.237-.834 1.138-1.809 2.2-2.65 3.334-1.584 2.117-3.142 4.258-4.617 6.455-2.566 3.821-4.533 8.059-7.625 11.513-.483.541-1.292 1.117-1.742.529-.35-.45-.442-1.583-.575-2.137-.525-2.2-.392-4.667-.534-6.938-.158-2.417-.434-4.83-.434-7.255 0-1.263-.617-2.554-.316-3.817.383-1.567 2.3-1.237 3.542-1.587 1.224-.346 2.441-.559 3.659-.892 1.341-.371 2.774-.583 4.133-.933.65-.167 1.284-.354 1.875-.621 1.783-.796 2.124-2.255 2.124-4.092zm-1.224-10.997c2.758-.35 7.625 1.421 9.767 2.83 1.283.846.642.908-.666.95-1.425.046-2.858-.087-4.285.113-1.083.154-2.549.312-3.575-.159-.399-.183-.591-.387-.708-.667a3.264 3.264 0 0 1-.142-.675c-.076-.65-.608-1.775-.391-2.392zM21.277 59.68c-.241-.163-.5-.312-.733-.496-.083-.066-.166-.129-.25-.2-.899-.717-1.791-1.429-2.717-2.113-.942-.688-.801-1.092.184-1.375.808-.233 1.642-.429 2.474-.633.327-.079.643-.175.975-.25a98.72 98.72 0 0 1 5.352-1.071c2.283-.4 4.575-.759 6.8-1.092 1.375-.205 2.733-.521 4.133-.517l.241-.004c.625-.029 1.15-.133 1.358.533.392 1.246-.208 2.608-.033 3.879.242 1.792.033 3.742.033 5.55 0 1.734-.083 3.471-.133 5.205-.017.496.233 2.184-.083 2.55-.409.487-1.3-.242-1.742-.504-1.459-.867-2.908-1.941-4.434-2.679-1.892-.916-3.717-1.946-5.567-2.967-.2-.117-.383-.242-.583-.358a42.126 42.126 0 0 1-2.708-1.779c-.825-.584-1.724-1.104-2.567-1.679zm61.588 26.839c.042 2.062-.35 3.567-1.15 4.55-1.084 1.321-2.917 1.688-5.425 1.221-.083-.012-.15-.012-.234-.029-.2-.041-.408-.075-.609-.117-.282-.054-.566-.104-.85-.158-3.733-.725-7.492-1.362-11.209-2.2a748.3 748.3 0 0 1-5.609-1.296l-.85-.2c-.283-.067-.566-.133-.841-.2-7.425-1.788-14.818-3.846-21.852-6.734-1.958-.8-6.842-2.367-7.242-5.013-.075-.5-.516-3.554-.5-5.092l.025-2.759c.9.475 1.85.913 2.75 1.388 2.583 1.354 5.025 2.958 7.551 4.417 1.033.596 2.217.983 3.3 1.504.983.475 1.825.941 2.884 1.196 1.691.404 3.392.729 4.841-.517a23.442 23.442 0 0 0 4.759-5.663c1.292-2.163 2.842-4.192 4.1-6.396 1.225-2.142 2.851-4.092 4.117-6.263 1.175-2.021 2.642-3.83 3.733-5.859.234-.438.5-.867.742-1.3.666.108 1.333.2 1.993.25 3.5.263 6.116.125 7.541-3.434.659-1.654.376-3.629.376-5.388 0-2.359.174-5.005-.567-7.213-1.142-3.383-4.867-4.358-7.942-5.05-4.634-1.05-9.309-1.788-13.918-2.992-4.308-1.125-8.792-2.383-13.159-3.221a26.787 26.787 0 0 0-3.642-.454c-1.258-.066-2.599.017-3.516.717-1.983 1.521-1.518 4.925-1.775 7.084a14.185 14.185 0 0 0-.067 1.979c-1.383.825-2.75 1.663-4.083 2.571 0-7.101.025-12.422.158-13.343.333-2.309.8-4.559 1.325-5.188.934-1.129 2.025-1.562 3.217-1.645 5.143.287 10.843 1.895 16.176 3.354 6.184 1.692 12.618 2.354 18.743 4.267 1.35.421 2.75.525 4.1.938 1.076.333 2.167.6 3.267.85 1.484.337 3.042.934 4.518 1.462 5.859 2.096 4.692 9.359 4.883 14.456.226 5.921.409 11.854.409 17.78.006 9.559-.676 18.194-.468 27.74zM63.889 16.898c-7.117-1.3-14.176-2.884-21.285-4.275-1.684-.329-3.342-.817-5.025-1.167-4.367-.908.825-2.179 2.292-2.429 1.95-.329 14.442-2.496 18.551-2.517 4.642-.025 9.258.508 14.326 1.45 6.325 1.171 12.526 2.842 18.867 3.967 3.684.654 7.26 1.837 10.885 2.729.958.238 3.758.583 4.2 1.546.816 1.775-14.601 5.092-16.96 5.159-8.718.245-17.025-2.855-25.851-4.463zm51.32 53.468c-.191 3.786-.125 6.186-.759 7.907-1.2 3.254-6.391 5.321-6.391 5.321s-9.017 4.415-14.7 6.194c-5.692 1.779-3.917-7.111-3.917-7.111s.158-38.038 0-44.803c-.234-10.08 4.875-10.663 4.875-10.663l13.867-3.559c7.633-2.396 6.875 5.052 6.875 5.052s.758 29.346.15 41.662z" fill="#855c52"/><path d="M44.996 107.029v7.071s.625 2.8 2.893 3.867c2.267 1.067 7.601 4.534 18.801 4.8 11.201.266 18.134-3.6 18.134-3.6s2.268-.934 2.401-3.333c.133-2.4.158-6.188.158-6.188l-42.387-2.617z" fill="#855c52"/><path d="M77.64 103.249c1.584.5 3.133 1.117 4.55 1.759 3.934 1.783 5.25 3.612 5.192 4.638a1.643 1.643 0 0 1-.185.583c-.241.504-.757 1.029-1.525 1.55-.591.4-1.333.796-2.224 1.167-3.05 1.275-7.809 2.271-14.051 2.271-1.184 0-2.393-.038-3.626-.113-5.975-.367-11.509-1.587-15.575-3.438a22.812 22.812 0 0 1-1.268-.625c-.867-.463-1.575-.921-2.133-1.358-.743-.592-1.217-1.146-1.492-1.634-.225-.387-.326-.737-.309-1.021.093-1.501 2.184-2.504 3.325-3.034 1.25-.579 2.575-1 3.909-1.338 1.567-.396 3.275-.831 4.884-.962 5.183-.425 10.592-.089 15.759.492 1.552.176 3.176.561 4.769 1.063z" fill="#78a3ad"/><g fill="#855c52"><path d="M74.331 105.739v-9.476l-16.393-3.571v12.543c-.107 1.727 3.476 3.35 8.009 3.633 4.525.277 8.276-.894 8.384-2.621.017-.175-.041-.344-.101-.512l.101.004z"/><path d="M67.259 111.041c-.47 0-.954-.013-1.441-.044-2.45-.152-4.754-.671-6.497-1.462-3.208-1.452-3.58-3.402-3.512-4.434l-.005-12.409c0-.646.292-1.256.796-1.661a2.155 2.155 0 0 1 1.788-.425l16.397 3.571a2.137 2.137 0 0 1 1.679 2.086v9.476c0 .065-.008.127-.008.192.012.16.015.333 0 .519-.174 2.806-3.701 4.591-9.197 4.591zm-7.188-5.994c.542.531 2.693 1.483 6.01 1.691 3.188.206 5.371-.454 6.05-.871a1.702 1.702 0 0 1 .066-1.004v-6.882L60.071 95.34v9.707z"/></g></g></svg>