<svg id="レイヤー_1" xmlns="http://www.w3.org/2000/svg" viewBox="0 0 128 128"><g><g><path d="M88.592 94.886v20.63s-.4 4.834 2.558 2.008c.522-.501 7.518-8.094 7.518-8.094l18.409-17.654s2.182-2.47 2.182-6.504V69.517s0-4.46-3.071-1.395c-3.062 3.067-24.25 20.631-24.25 20.631s-3.346 1.95-3.346 6.133z" fill="#fcc21b"/><g><path d="M86.262 87.197c-1.699.566-3.498.305-5.354.074-.122-.014-.239-.035-.353-.052-2.517-.437-5.126-.789-7.688-.697-2.209.074-4.574.549-6.198 2.169-2.54 2.544-5.292 8.272-9.261 8.468-4.982.244-10.25-1.11-15.206-1.59-2.064-.196-4.195-.257-6.211-.784-.771-.2-1.524-.492-2.2-.919-.34-.214-.692-.453-.971-.74-.353-.366-.662-.775-.248-1.259.283-.332.706-.515 1.059-.759.966-.657 15.928-12.309 16.766-12.997.988-.814 2.413-.841 3.627-.731 1.582.151 3.167.292 4.748.417 3.167.262 30.409 3.485 31.664 3.559.427.026 1.359.031 1.533.566.208.628-3.607 4.565-5.707 5.275z" fill="#fcc21b"/><path d="M115.105 63.048c-.579.476-1.149.954-1.712 1.446-1.136.98-2.247 1.987-3.357 3.002-2.204 2.012-12.401 10.563-13.416 10.615-5.876.331-32.983-3.319-40.662-4.143-1.8-.191-3.581-.205-4.012-2.238-.253-1.226-.239-2.484-.317-3.729-.176-2.792-.306-5.584-.31-8.381 0-1.241-.173-2.735.131-3.938.179-.701.941-1.159 1.646-1.128.383.018 4.953.519 6.038.627 2.403.249 4.816.501 7.226.749 3.285.34 6.564.68 9.854 1.028 3.716.384 7.431.775 11.143 1.167 3.702.383 7.4.775 11.099 1.167l9.718 1.033c1.311.143 2.618.283 3.924.423 1.089.121 2.252.139 3.259.496.235.087.452.018.579.296.312.746-.351 1.111-.831 1.508z" fill="#fcc21b"/><path d="M83.238 115.977c.048 1.446.776 3.898-1.001 4.552-1.185.437-2.574.039-3.776-.104-8.882-1.046-66.118-8.072-67.225-9.222-1.186-1.229-.828-2.844-.884-4.399-.162-4.591.021-9.183.204-13.766.087-2.129-.104-4.464.261-6.56.174-1.002.684-1.79 1.769-1.786.95 0 1.95.097 2.875.279 2.06.396 4.256.3 6.237 1.015 2.366.854 3.276 2.714 4.169 4.909.501 1.237.976 2.492 1.538 3.707.893 1.921 2.03 3.236 3.362 4.146 1.812 1.233 8.032 2.052 15.08 2.854 5.31.604 11.6 1.464 13.904 1.006 1.407-.274 2.744-.763 3.968-1.546 1.608-1.023 2.792-2.905 3.868-4.43.562-.802 1.111-1.616 1.664-2.427.301-.449.632-.894 1.159-1.045 1.651-.475 3.672.038 5.358.204 1.476.144 2.954.318 4.434.388.937.048 2.797-.083 3.132 1.076.284.945-.031 2.387-.052 3.376-.035 1.345-.056 2.691-.078 4.033-.083 4.579-.113 9.162.034 13.74z" fill="#fcc21b"/><path d="M14.394 79.757l10.005 1.155s6.352 1.351 6.926 5.196l.58 1.921 17.127-12.697s.771-.579.771-2.889V59.742c0-2.696-2.116-2.505-3.659-1.542-1.542.968-31.75 21.557-31.75 21.557z" fill="#fcc21b"/><path d="M123.091 61.737c-.03-2.879-1.908-3.741-3.106-4.33-1.778-.875-4.199-1.11-6.573-1.415-8.368-1.08-49.448-5.371-59.994-6.286-1.525-.135-3.25.065-5.902 1.703-14.47 8.935-23.953 14.492-34.551 22.076-1.608 1.154-3.097 2.403-4.717 3.537-1.778 1.241-2.635 2.452-2.653 4.604-.096 9.439-1.059 18.796-.593 28.171.062 1.14.14 2.281.244 3.423.235 2.578 4.234 3.393 6.181 3.61 1.951.215 3.79.745 5.728 1.067 5.263.881 10.55 1.599 15.821 2.422a640.431 640.431 0 0 0 18.516 2.613c6.016.759 12.027 1.504 18.052 2.191 3.863.44 14.888 2.034 15.306 2.034 2.727.005 4.104-1.328 5.562-2.645 6.979-6.289 25.447-25.067 31.075-31.57 1.254-1.45 1.529-2.609 1.546-4.526.058-7.213.136-18.145.058-26.679zm-70.318-5.619c.17-.671.897-1.11 1.577-1.08.371.018 4.748.496 5.785.601l6.934.719c3.149.326 6.299.654 9.449.985 3.563.369 7.126.744 10.685 1.118 3.55.371 7.095.745 10.641 1.12l9.322.993 3.763.405c1.041.113 2.157.131 3.123.475.227.083.436.018.553.283.304.715-.331 1.067-.789 1.446-.557.453-1.106.915-1.646 1.386-1.089.939-2.16 1.907-3.219 2.878-2.112 1.93-11.892 10.128-12.867 10.181-5.632.317-31.629-3.185-38.99-3.974-1.725-.183-3.436-.196-3.847-2.146-.248-1.172-.231-2.383-.304-3.576-.17-2.675-.292-5.354-.296-8.037 0-1.19-.17-2.623.126-3.777zm-7.108 2.583c1.485-.928 3.528-1.115 3.528 1.489v12.267c0 2.231-.74 2.788-.74 2.788L31.909 87.512l-.557-1.86c-.558-3.716-6.691-5.019-6.691-5.019L15 79.519s29.174-19.886 30.665-20.818zm37.573 57.276c.048 1.446.776 3.898-1.001 4.552-1.185.437-2.574.039-3.776-.104-8.882-1.046-66.118-8.072-67.225-9.222-1.186-1.229-.828-2.844-.884-4.399-.162-4.591.021-9.183.204-13.766.087-2.129-.104-4.464.261-6.56.174-1.002.684-1.79 1.769-1.786.95 0 1.95.097 2.875.279 2.06.396 4.256.3 6.237 1.015 2.366.854 3.276 2.714 4.169 4.909.501 1.237.976 2.492 1.538 3.707.893 1.921 2.03 3.236 3.362 4.146 1.812 1.233 8.032 2.052 15.08 2.854 5.31.604 11.6 1.464 13.904 1.006 1.407-.274 2.744-.763 3.968-1.546 1.608-1.023 2.792-2.905 3.868-4.43.562-.802 1.111-1.616 1.664-2.427.301-.449.632-.894 1.159-1.045 1.651-.475 3.672.038 5.358.204 1.476.144 2.954.318 4.434.388.937.048 2.797-.083 3.132 1.076.284.945-.031 2.387-.052 3.376-.035 1.345-.056 2.691-.078 4.033-.083 4.579-.113 9.162.034 13.74zm-2.931-28.706c-.118-.014-.23-.035-.344-.052-2.439-.423-4.966-.763-7.44-.676-2.135.074-4.427.531-5.995 2.1-2.465 2.465-5.123 8.011-8.968 8.197-4.827.236-9.919-1.075-14.719-1.537-1.999-.192-4.063-.248-6.011-.758-.75-.196-1.477-.479-2.134-.894-.322-.205-.671-.436-.937-.714-.34-.357-.641-.754-.244-1.219.274-.323.688-.497 1.028-.732.937-.641 15.42-11.918 16.226-12.585.963-.788 2.339-.813 3.516-.705 1.533.143 3.062.278 4.595.405 3.066.253 29.432 3.371 30.648 3.441.409.026 1.316.03 1.485.549.2.609-3.489 4.421-5.524 5.105-1.649.55-3.384.298-5.182.075zm38.951-2c0 4.034-2.182 6.504-2.182 6.504L98.667 109.43s-6.995 7.593-7.518 8.094c-2.958 2.826-2.558-2.008-2.558-2.008v-20.63c0-4.183 3.345-6.133 3.345-6.133s21.188-17.563 24.25-20.631c3.071-3.065 3.071 1.395 3.071 1.395l.001 15.754z" fill="#855c52"/></g></g><g><g><path d="M65.828.842l24.685 33.676H75.111v31.428H56.689V34.518H41.134L65.828.842z" fill="#ed6c30"/></g></g></g></svg>