<svg id="レイヤー_1" xmlns="http://www.w3.org/2000/svg" viewBox="0 0 128 128"><g><g><path d="M80.261 99.485c-.023-.02-.046-.033-.07-.051-1.499-.985-3.861-.828-5.492-.581-4.041.604-5.311 4.871-5.625 8.656-.432 5.082-.095 10.27-.095 15.368 0 .789.071 1.587.33 2.331.11.3 1.397 2.347 6.292 2.347 4.81-.337 5.658-2.695 5.705-2.981.722-4.825.494-12.637.4-17.496-.048-2.636.902-5.804-1.445-7.593z" fill="#fff"/></g><path d="M77.104 102.241c.702 0 1.102.081 1.341.157.11.446.03 1.573-.02 2.27-.051.785-.102 1.563-.086 2.309l.023 1.138c.094 4.427.235 10.964-.294 15.278-.366.192-1.134.48-2.578.59-1.686-.014-2.647-.283-3.138-.486-.007-.094-.007-.198-.007-.318 0-1.629-.036-3.267-.071-4.907-.079-3.68-.15-7.153.157-10.578.29-3.299 1.224-5.084 2.766-5.3.71-.102 1.353-.153 1.907-.153m0-4.017c-.876 0-1.738.089-2.468.19-4.456.626-5.861 5.022-6.206 8.925-.472 5.235-.102 10.584-.102 15.839 0 .812.07 1.636.36 2.401.118.31 1.539 2.421 6.936 2.421 5.296-.35 6.238-2.778 6.286-3.072.792-4.974.548-13.028.446-18.034-.054-2.719.989-5.982-1.6-7.826a.543.543 0 0 0-.079-.053c-.973-.603-2.291-.791-3.573-.791z" fill="#855c52"/><path d="M118.228 64.098c-.495-4.923-1.334-9.88-3.021-14.546-1.428-3.966-3.585-8.013-7.171-10.421-4.691-3.146-9.564-4.168-15.401-4.949-10.318-1.375-21.176.194-31.369 1.852-3.915.636-7.814 1.216-11.659 1.978-3.57.704-14.334 3.334-16.06 4.022-2.661 1.067-4.982 2.748-6.889 4.866-.941 1.04-4.354 6.199-5.547 12.805-1.743 9.65-1.648 21.406-1.232 28.958.024.533.643 3.854 2.392 5.364 1.75 1.513 26.552 12.279 37.599 16.02.4.465 1.781.523 2.322.595 1.366.18 2.754.061 4.096-.289.885-.234 1.6-.798 2.424-1.185 1.318-.61 2.652-1.201 3.971-1.799 2.518-1.14 4.957-2.434 7.39-3.739 2.111-1.134 4.465-1.775 6.669-2.807a961.061 961.061 0 0 0 6.568-3.129 788.456 788.456 0 0 0 18.783-9.339c1.796-.921 3.993-1.549 5.241-3.246 1.491-2.031 1.357-5.269 1.404-7.658.078-4.457-.071-8.918-.51-13.353z" fill="#ed6c30"/><g><path d="M119.68 63.858c-.51-5.068-1.374-10.172-3.107-14.977-1.467-4.084-3.688-8.25-7.383-10.729-4.833-3.241-9.847-4.292-15.857-5.096-10.622-1.416-21.803.2-32.301 1.907-4.026.655-8.05 1.252-12.004 2.036-3.673.726-14.759 3.432-16.532 4.143-2.738 1.098-5.14 2.829-7.101 5.009-.965 1.071-4.488 6.383-5.712 13.186-1.789 9.937-1.687 22.039-1.263 29.814.023.549.667 3.97 2.463 5.523 1.805 1.558 27.336 12.644 38.712 16.496.486.573 2.267.616 2.935.671 1.443.123 2.831-.196 4.229-.525 3.209-.754 6.018-2.843 9.015-4.171 3.875-1.72 7.65-3.668 11.486-5.472a750.148 750.148 0 0 0 6.763-3.222 834.306 834.306 0 0 0 19.348-9.614c1.844-.95 4.104-1.598 5.391-3.343 1.538-2.091 1.396-5.425 1.443-7.885.079-4.59-.07-9.184-.525-13.751zM58.881 91.817c.024 3.473.557 7.313-.149 10.733-.439 2.115-1.287 2.303-3.177 1.569-.809-.313-1.632-.604-2.44-.93a272.555 272.555 0 0 1-7.289-3.075c-.895-.389-1.789-.785-2.684-1.177-3.718-1.644-7.422-3.312-11.173-4.892a185.913 185.913 0 0 0-4.793-1.961c-.682-.268-1.82-.781-2.267-1.373-1.524-2.04-1.052-5.571-1.045-7.944.008-5.496.102-10.996.173-16.492.078-6.147.973-12.628 5.288-17.339 1.444-1.578 3.656-2.723 5.759-3.131 2.44-.475 5.319-.514 7.775-.138 1.24.188 2.439.443 3.554.722 1.938.483 8.395 4.088 10.553 10.785 3.233 10.019 1.899 24.734 1.891 28.43-.007 2.071 0 4.143.024 6.213zm53.023-7.778c-8.057 4.264-17.293 9.148-25.264 12.808a267.707 267.707 0 0 1-4.605 2.059c-3.696 1.621-7.415 3.189-11.087 4.865-.917.416-2.133.757-2.958 1.146-.957.451-2.039.847-2.903-.012-.964-.969-.58-3.209-.564-4.578l.071-5.018c.039-3.476.071-6.951.087-10.427.023-4.205.391-22.824-1.35-27.708a32.532 32.532 0 0 0-1.31-3.146c-1.373-2.836-3.13-5.523-5.407-7.732-2.824-2.754-7.257-3.594-6.37-4.555.416-.447 1.317-.482 1.875-.597 4.441-.902 10.695-2.118 15.99-2.789 9.753-1.232 18.893-2.284 28.559.318 2.581.694 5.1 1.596 7.509 2.75 2.597 1.31 6.19 5.406 7.799 12.102 1.953 8.133 2.337 18.741 2.494 24.833.046 4.265-1.656 5.203-2.566 5.681z" fill="#855c52"/></g><path d="M100.284 62.49c-2.062.439-16.993 4.076-22.369 5.59-1.702.479-3.766.792-5.091 2.063-.808.781-.761 1.82-.746 2.868.016 1.404.016 2.805.274 4.19.354 1.895 1.867 1.816 3.358 1.294.934-.325 16.06-6.241 18.862-6.292 1.938-.035 1.671 5.233 2.958 7.504 1.592 2.809 4.652.895 6.645-.042 2.386-1.126 3.421-2.997 3.735-5.697.376-3.244.713-6.853.047-10.074-.769-3.758-5.209-1.93-7.673-1.404z" fill="#fcc21b"/><path d="M43.182 68.1c2.62.801 7.422 1.852 8.112-2.048.22-1.255.087-2.181-.33-2.931-.526-.953-1.506-1.616-2.785-2.31-2.927-1.585-6.497-1.961-9.659-2.923-1.742-.53-4.041-1.02-5.619.153-1.851 1.377-2.25 3.978-.572 5.661 2.575 2.569 7.487 3.374 10.853 4.398z" fill="#fff"/><path d="M47.065 72.732c-2.001-.733-4.088-1.188-6.081-1.926-1.514-.565-3.02-1.158-4.574-1.621-2.314-.69-4.316-1.824-6.504-.05-1.742 1.412-1.993 3.836-.337 5.487 1.177 1.178 3.475 1.664 5.076 2.256 1.986.734 1.507 3.162 1.421 4.825-.133 2.507-.691 6.352.815 8.54.856 1.252 2.676 1.758 4.104 1.346 1.836-.526 2.378-2.425 2.425-4.163.062-1.996-.118-4.358.376-6.3.417-1.636 2.432-.569 3.555-.286 1.114.282 2.824.607 3.859-.095.785-.533 1.42-1.726 1.499-2.644.094-1.071-.188-1.915-.705-2.594-1.092-1.437-3.218-2.147-4.929-2.775z" fill="#fff"/></g></svg>