<svg id="レイヤー_1" xmlns="http://www.w3.org/2000/svg" viewBox="0 0 128 128"><g><g><path fill="#fcc21b" d="M69.459 3.619L4.181 35.616v57.282l54.361 31.481 65.276-36.383V30.713z"/><path d="M58.542 127.475a3.099 3.099 0 0 1-1.557-.416L2.629 95.58a3.099 3.099 0 0 1-1.544-2.682V35.616c0-1.183.673-2.259 1.733-2.778L68.097.842a3.098 3.098 0 0 1 2.745.008l54.36 27.093a3.104 3.104 0 0 1 1.712 2.77v57.283a3.11 3.11 0 0 1-1.588 2.706l-65.283 36.382a3.066 3.066 0 0 1-1.501.391zM7.278 91.116l51.292 29.702 62.154-34.641V32.632L69.452 7.075 7.278 37.546v53.57z" fill="#855c52"/></g><path d="M35.919 64.688l-9.261-4.801c-1.803-.936-3.553-.215-3.851 1.713-.358 1.992.92 4.281 2.823 5.342l9.846 5.16a3.649 3.649 0 0 0 1.62.379c1.201-.052 2.02-.923 2.076-2.342.118-2.012-1.302-4.362-3.253-5.451z" fill="#855c52"/><path fill="#b89278" d="M36.523 62.015L26.19 56.807v-8.818l10.333 5.302z"/><path fill="#b89278" d="M36.523 108.183l-10.333-5.991V93.29l10.333 6.169z"/><path fill="#b89278" d="M98.383 21.508l-10.644-5.305L26.73 46.5l10.649 5.46z"/><g fill="#855c52"><path d="M58.542 126.754a2.37 2.37 0 0 1-1.194-.318L2.992 94.955a2.382 2.382 0 0 1-1.185-2.056V35.616a2.376 2.376 0 0 1 3.46-2.113l54.355 27.868a2.377 2.377 0 0 1 1.29 2.113v60.896c0 .85-.452 1.633-1.185 2.057a2.41 2.41 0 0 1-1.185.317zM6.555 91.532l49.607 28.729V64.935L6.555 39.502v52.03z"/><path d="M58.542 65.858c-.372 0-.746-.089-1.085-.262L3.097 37.728a2.365 2.365 0 0 1-1.29-2.132 2.363 2.363 0 0 1 1.33-2.108L68.419 1.491a2.366 2.366 0 0 1 2.101.003l54.355 27.094a2.374 2.374 0 0 1 1.319 2.122 2.38 2.38 0 0 1-1.31 2.124l-65.279 32.77a2.388 2.388 0 0 1-1.063.254zM9.475 35.664l49.074 25.157 59.964-30.101L69.452 6.268 9.475 35.664z"/><path d="M58.542 126.754a2.376 2.376 0 0 1-2.379-2.375V63.483c0-.896.504-1.718 1.314-2.122l65.277-32.769a2.365 2.365 0 0 1 2.307.1 2.367 2.367 0 0 1 1.133 2.02v57.283c0 .863-.467 1.657-1.219 2.076l-65.281 36.383c-.359.198-.758.3-1.152.3zm2.369-61.807v55.392l60.533-33.738V34.563L60.911 64.947z"/></g></g></svg>