<svg id="レイヤー_1" xmlns="http://www.w3.org/2000/svg" xmlns:xlink="http://www.w3.org/1999/xlink" viewBox="0 0 128 128"><g><g><g><path d="M77.465 63.321h.188c1.749 0 3.837-.584 3.868-2.522-.016-2.546-.024-5.092-.04-7.638-.031-4.759-.054-9.514-.077-14.268-.008-.593-.008-1.181-.015-1.77 0-.655-.008-1.314-.008-1.969 0-.855-.071-1.714-.008-2.565.017-.255.04-.506.078-.761.291-1.592 1.185-2.582 2.588-2.911.135-.031 3.367-.635 6.09-1.149 3.099-.585 5.735-1.083 5.939-1.142 2.708-.784 2.754-3.77 2.754-3.77s.432-8.874.322-11.988c-.103-2.731-2.37-2.9-2.926-2.9l-.118.004S82.604 9.011 78.665 9.423c-1.765.185-2.211 1.644-2.337 3.193-.095 1.118-.103 2.244-.134 3.366a828.01 828.01 0 0 0-.142 6.324c-.054 2.73-.101 5.457-.141 8.188-.017.824-.023 1.648-.04 2.471a2231.78 2231.78 0 0 1-.071 4.516l-.023 1.957c-.046 2.864-.087 5.724-.117 8.588-.031 2.377-.062 4.758-.103 7.136-.007 1.522-.03 3.044-.045 4.57-.009.926-.235 2.205.313 2.958.4.565 1.004.616 1.64.631z" fill="#fcc21b"/><path d="M77.652 68.343h-.188c-2.606-.063-4.489-.989-5.744-2.75-1.439-1.982-1.317-4.275-1.247-5.506l.015-.404.15-11.714c.031-2.872.069-5.739.117-8.613l.133-8.958a1528.716 1528.716 0 0 1 .283-14.546l.019-.708c.024-.984.044-1.969.134-2.948.529-6.6 5.355-7.612 6.819-7.765 3.97-.416 17.571-1.463 17.571-1.463.125-.01.369-.02.502-.02 3.805 0 7.756 2.656 7.944 7.732.113 3.244-.28 11.49-.327 12.419-.047 3.17-2.036 7.095-6.371 8.351-.361.104-.447.129-6.41 1.253l-2.989.564-1.694.319c0 .192.008.365.008.538l.165 26.645c-.071 4.506-3.727 7.574-8.89 7.574zm3.614-54.123c-.017.412-.028.787-.036 1.159l-.023.746c-.047 2.083-.094 4.178-.133 6.276l-.047 2.297a8.367 8.367 0 0 1 1.868-.669 317.18 317.18 0 0 1 3.315-.633l2.986-.563c1.875-.353 3.578-.672 4.645-.878.094-2.087.255-6.053.294-8.795-3.163.248-9.182.727-12.869 1.06z" fill="#855c52"/></g><g><g><path d="M80.258 99.487c-.017-.019-.048-.035-.072-.051-1.491-.985-3.852-.828-5.483-.58-4.05.604-5.312 4.869-5.634 8.654-.423 5.084-.094 10.27-.094 15.371 0 .788.07 1.585.337 2.33.102.298 1.396 2.346 6.292 2.346 4.801-.338 5.657-2.696 5.697-2.982.722-4.825.502-12.636.407-17.497-.054-2.636.896-5.802-1.45-7.591z" fill="#fff"/></g><path d="M77.104 102.241c.792 0 1.208.104 1.334.13.118.427.039 1.584-.012 2.295-.054.785-.106 1.565-.089 2.31l.027 1.224c.095 4.404.235 10.902-.294 15.192-.369.192-1.13.48-2.574.59-1.694-.014-2.659-.284-3.146-.488-.008-.094-.008-.198-.008-.316 0-1.614-.031-3.236-.067-4.865-.075-3.693-.153-7.181.161-10.619.291-3.301 1.216-5.084 2.762-5.3a13.673 13.673 0 0 1 1.906-.153m0-4.017c-.879 0-1.743.088-2.472.193-4.457.623-5.853 5.021-6.199 8.924-.471 5.233-.11 10.584-.11 15.837 0 .812.079 1.636.368 2.401.119.31 1.539 2.421 6.937 2.421 5.288-.35 6.229-2.778 6.276-3.072.8-4.975.549-13.028.447-18.034-.056-2.719.988-5.982-1.593-7.826-.023-.02-.055-.036-.078-.051-.979-.604-2.293-.793-3.576-.793z" fill="#855c52"/><path d="M118.232 64.099c-.494-4.923-1.334-9.878-3.021-14.547-1.428-3.966-3.585-8.01-7.178-10.419-4.692-3.146-9.557-4.17-15.402-4.95-10.31-1.373-21.168.196-31.36 1.852-3.916.635-7.822 1.216-11.659 1.977-3.571.706-14.334 3.334-16.061 4.025-2.659 1.067-4.99 2.746-6.889 4.865-.949 1.04-4.363 6.198-5.555 12.804-1.733 9.65-1.64 21.408-1.224 28.96.023.534.642 3.853 2.392 5.363 1.751 1.514 26.544 12.279 37.599 16.021.393.463 1.773.522 2.323.592 1.365.181 2.754.063 4.087-.287.895-.235 1.6-.8 2.432-1.185 1.317-.612 2.652-1.2 3.971-1.801 2.518-1.138 4.951-2.432 7.391-3.738 2.11-1.134 4.465-1.773 6.66-2.805a811.066 811.066 0 0 0 6.568-3.131 788.899 788.899 0 0 0 18.791-9.336c1.795-.922 3.992-1.55 5.232-3.248 1.499-2.028 1.366-5.269 1.405-7.658.078-4.457-.062-8.918-.502-13.354z" fill="#ed6c30"/><g><path d="M119.683 63.859c-.51-5.068-1.372-10.172-3.106-14.978-1.476-4.084-3.696-8.25-7.391-10.729-4.833-3.24-9.847-4.292-15.857-5.096-10.623-1.416-21.796.201-32.293 1.907-4.033.655-8.05 1.252-12.013 2.036-3.664.726-14.75 3.433-16.524 4.143-2.737 1.099-5.146 2.829-7.1 5.01-.973 1.071-4.488 6.383-5.712 13.185-1.79 9.937-1.694 22.039-1.271 29.814.031.549.667 3.97 2.472 5.523 1.795 1.558 27.327 12.644 38.703 16.496.494.573 2.268.616 2.942.671 1.444.126 2.825-.196 4.229-.525 3.208-.753 6.018-2.841 9.006-4.17 3.876-1.718 7.658-3.668 11.494-5.472a888.08 888.08 0 0 0 6.764-3.221 823.98 823.98 0 0 0 19.34-9.615c1.851-.949 4.111-1.597 5.39-3.343 1.538-2.091 1.405-5.425 1.452-7.885.072-4.591-.069-9.185-.525-13.751zm-7.775 20.18c-8.058 4.264-17.292 9.148-25.263 12.808-1.53.703-3.069 1.385-4.606 2.06-3.695 1.621-7.414 3.189-11.086 4.865-.919.416-2.134.757-2.965 1.146-.949.451-2.033.848-2.896-.012-.965-.969-.588-3.209-.565-4.578.024-1.671.047-3.342.062-5.018.212-16.139.095-37.594-14.303-48.303-.965-.718-1.977-1.389-3.131-1.764-.887-.288-2-.38-2.761-.979-2.15-1.679 2.479-2.15 3.209-2.322 6.669-1.587 13.691-2.723 20.509-3.586 9.753-1.232 18.894-2.283 28.56.318 2.574.694 5.099 1.596 7.508 2.75 2.597 1.311 6.19 5.406 7.798 12.102 1.946 8.132 2.338 18.74 2.487 24.832.056 4.265-1.647 5.203-2.557 5.681z" fill="#855c52"/></g></g><path d="M77.465 63.321h.188c1.749 0 3.837-.584 3.868-2.522-.016-2.546-.024-5.092-.04-7.638-.031-4.759-.054-9.514-.077-14.268-.008-.593-.008-1.181-.015-1.77 0-.655-.008-1.314-.008-1.969 0-.855-.071-1.714-.008-2.565.017-.255.04-.506.078-.761.291-1.592 1.185-2.582 2.588-2.911.135-.031 3.367-.635 6.09-1.149 3.099-.585 5.735-1.083 5.939-1.142 2.708-.784 2.754-3.77 2.754-3.77s.432-8.874.322-11.988c-.103-2.731-2.37-2.9-2.926-2.9l-.118.004S82.604 9.011 78.665 9.423c-1.765.185-2.211 1.644-2.337 3.193-.095 1.118-.103 2.244-.134 3.366a828.01 828.01 0 0 0-.142 6.324c-.054 2.73-.101 5.457-.141 8.188-.017.824-.023 1.648-.04 2.471a2231.78 2231.78 0 0 1-.071 4.516l-.023 1.957c-.046 2.864-.087 5.724-.117 8.588-.031 2.377-.062 4.758-.103 7.136-.007 1.522-.03 3.044-.045 4.57-.009.926-.235 2.205.313 2.958.4.565 1.004.616 1.64.631z" fill="#fcc21b"/></g><g><path d="M6.373 106.074c4.754 3.693 9.73 7.222 14.561 10.816.675.474 1.311.943 1.978 1.42 2.047 1.581 4.942 3.256 7.885 3.438 3.436.217 4.849-1.559 7.14-3.035 6.15-3.923 12.24-8.34 18.524-13.114 1.208-.922 2.424-1.859 3.703-2.821 2.244-1.718 4.755-3.862 3.836-6.438-.776-2.073-3.357-3.825-5.665-4.982-2.063-1.023-3.876-2.163-5.931-3.126-2.338-1.042-4.575-2.08-6.865-3.092-7.352-3.227-13.44.267-13.44.267l-19.616 7.054c-2.871 1.2-5.664 2.42-8.441 3.564-1.35.563-2.503 1.316-3.406 2.275-1.694 1.736.354 3.47 1.946 4.78 1.273 1.013 2.52 2.01 3.791 2.994z" fill="#855c52"/><g><defs><path id="SVGID_1_" d="M8.381 99.479c-.345-.086-.619-.265-.981-.313-.25-1.054 3.499-1.856 4.355-2.146.212-.062.4-.149.595-.221.323-.112.597-.224.902-.335 1.64-.616 3.195-1.267 4.865-1.87.11-.045.259-.1.369-.139a216.75 216.75 0 0 0 4.534-1.722c3.477-1.328 7.055-2.739 10.601-4.284l.259-.094c1.184-.529 2.385-1.229 3.805-1.404 1.468-.188 3.75.706 5.045 1.261.533.263 1.31.533 1.742.92.901.832.808 2.024.816 3.041-.008 1.479-.22 2.797-.62 4.236-.557 2.011-.243 3.694-3.248 4.07-2.087.265-4.213-.17-6.285-.163-.015-.004-.062 0-.086 0-2.354.016-4.731-.018-7.045-.164-3.531-.224-7.014-.311-10.482-.332-.173-.002-.33-.008-.526-.004-1.396-.009-2.84-.116-4.237-.182-.267-.008-.557-.025-.855-.031-.447-.012-.854-.036-1.356-.026-.668.004-1.461.095-2.167-.098zm39.057.714c.133-.607.283-1.224.494-1.844l.361-1.667c1.342-.345 3.139.216 4.45.43 1.207.182 2.29.418 3.42.692.581.135 1.749.062 2.125.467.69.672-.815 1.202-1.427 1.55-1.53.914-2.77 2.118-4.206 3.079-1.161.769-2.188 1.642-3.35 2.397-.079.051-.149.092-.22.143-1.043.669-2.205 1.269-3.265 1.928a176.61 176.61 0 0 0-5.617 3.691c-3.013 2.126-5.523 4.57-8.779 6.257-.518.263-1.31.494-1.617.036-.211-.345-.133-1.083-.141-1.466-.149-1.506.353-3.087.589-4.607.243-1.635.392-3.315.776-4.968.196-.881-.109-1.879.346-2.709.62-1.041 2.338-.508 3.538-.553 1.208-.047 2.376-.008 3.562-.045 1.35-.051 2.73.031 4.103-.006a15.462 15.462 0 0 0 1.914-.141c1.893-.29 2.513-1.298 2.944-2.664zm1.224-8.618c2.856.147 7.446 2.297 9.296 3.748 1.092.869.448.814-.933.637-1.498-.19-2.91-.525-4.425-.588-1.107-.055-2.62-.165-3.531-.685-.367-.21-.518-.39-.573-.622v-.557c.04-.509-.21-1.474.166-1.933zm-36.797 14.13c-.189-.143-.362-.288-.55-.441a4.054 4.054 0 0 0-.227-.169c-.675-.614-1.311-1.222-2.017-1.826-.698-.596-.557-.847.314-.89.69-.034 1.38-.037 2.102-.049.29-.01.565-.023.894-.027 1.539-.008 3.077.029 4.685.092 2 .074 4.08.183 6.065.3 1.248.068 2.488.062 3.751.288l.18.043c.621.07 1.106.079 1.201.573.149.928-.588 1.777-.651 2.676-.055 1.253-.589 2.542-.808 3.739a132.72 132.72 0 0 1-.863 3.387c-.142.326-.157 1.449-.471 1.628-.393.239-1.059-.375-1.405-.614-1.115-.8-2.195-1.736-3.405-2.46-1.513-.898-2.895-1.867-4.314-2.824-.173-.11-.306-.22-.495-.33-.69-.516-1.389-1.02-2.032-1.585-.597-.526-1.335-.997-1.954-1.511z"/></defs><clipPath id="SVGID_2_"><use xlink:href="#SVGID_1_" overflow="visible"/></clipPath><path clip-path="url(#SVGID_2_)" fill="#fcc21b" d="M38.321 85.318L3.688 99.013l1.265 3.894 25.569 16.803 31.14-20.333 1.484-4.177z"/></g></g></g></svg>