<svg id="レイヤー_1" xmlns="http://www.w3.org/2000/svg" viewBox="0 0 128 128"><g><g><path d="M35.216 38.988l-23.501 65.045-5.67.844-3.247 9.28 4.175 5.569 8.359 2.6 5.557-.738 4.924-5.78 55.836-14.894s22.099-1.7 20.022-37.523c0 0-6.705-22.496-28.556-35.305.002-.001-22.323-8.828-37.899 10.902z" fill="#fcc21b"/><path d="M41.836 55.947c-4.267 8.145-8.538 16.285-12.814 24.427-2.522 4.818-5.054 9.642-7.581 14.46-1.229 2.344-2.555 4.64-3.48 7.13-.39 1.043-1.111 2.662-.775 3.812.589 2.069 2.255.832 3.192-.238 3.797-4.336 7.24-9.042 10.842-13.54 3.805-4.741 7.605-9.486 11.41-14.229.479-.6 5.646-6.019 5.367-6.701-.008-.008-6.161-15.121-6.161-15.121z" fill="#fff"/><g><g><g><g fill="#855c52"><path d="M93.324 43.859c-13.961-18.41-37.47-26.328-50.94-16.317-11.484 8.534-8.113 31.974 5.856 50.385 13.966 18.406 37.208 26.134 46.728 19.729 15.266-10.266 12.326-35.385-1.644-53.797zM91.97 90.302c-9.492 3.869-24.738-3.521-35.683-16.643-11.551-13.851-16.495-31.811-9.527-40.584 8.258-10.429 28.66-3.384 43.06 16.257 13.401 18.289 13.203 36.452 2.15 40.97z"/><path d="M49.506 24.799h-.171c-4.393-.012-8.627 3.735-11.365 6.928-2.443 2.844-4.471 6.023-6.15 9.362-4.21 8.339-7.419 17.214-10.469 26.032-2.771 8.015-5.293 16.106-7.78 24.211-.661 2.15-6.04 16.833-2.697 17.636 1.93.463 3.086-6.181 3.411-7.374.901-3.281 1.671-6.623 2.787-9.844 2.109-6.093 4.226-12.181 6.433-18.236 2.401-6.587 4.891-13.146 7.637-19.6 2.329-5.472 4.783-10.952 7.886-16.034 1.03-1.684 2.134-3.342 3.448-4.818 1.359-1.525 3.107-2.608 4.985-3.383 1.603-.657 3.845-.621 5.058-1.983.747-.844.312-1.521-.438-2.215-.774-.714-1.573-.686-2.575-.682z"/><path d="M99.619 89.865c-.04.47-.162.929-.344 1.294-.913 1.865-2.649 3.613-4.158 5.013-3.025 2.807-.312 2.121-4.116 3.651-1.805.726-10.923 4.393-22.763 7.532a2652.452 2652.452 0 0 1-19.944 5.171c-7.041 1.802-14.087 3.816-21.198 5.321-1.241.265-2.482.646-3.723.856-1.744.292-5.127-1.229-3.375-3.395.422-.52.961-.564 1.59-.69 2.733-.535 44.257-11.511 55.683-15.405 4.465-1.517 9.329-2.259 12.906-5.472 1.387-1.249 2.418-2.722 3.659-4.072.937-1.014 2.803-2.381 4.247-2.23 1.244.13 1.63 1.306 1.536 2.426z"/></g></g><path d="M14.011 103.493c-.438 2.73-.413 5.509 1.484 7.67 1.785 2.036 4.401 2.808 7.038 2.824a11.028 11.028 0 0 0 3.071-.395c.835-.223 3.09-1.05 3.683.025.194.364.259.965.255 1.374-.009.808-.52 1.591-1.157 2.053-.323.235-.706.329-1.045.523a4.801 4.801 0 0 1-.986.418c-1.538.45-3.205.467-4.791.361-1.261-.081-2.576-.228-3.796-.597-2.032-.62-3.862-1.825-5.342-3.339-3.61-3.699-3.939-10.781-.604-14.747.183-.216.272-.333.377-.576.094-.195.203-.337.378-.471.332-.265.763-.434 1.168-.556.365-.109.876-.248 1.168.004.374.328.085.673 0 1.083-.289 1.361-.662 2.845-.901 4.346z" fill="#855c52"/><path d="M11.074 101.047c-.763-.098-1.664.113-2.411.255-2.059.394-4.21.933-5.604 2.616-1.501 1.821-2.312 4.336-2.458 6.665-.487 7.686 5.142 14.813 12.963 15.713 2.199.252 5.76-.162 7.618-1.493 1.55-1.112 2.345-2.966 2.816-4.754.247-.934 1.366-4.202-.406-4.296-.872-.044-1.72-.057-2.555.139-.921.219-1.007 0-1.347.974-.345.977-.182 2.121-.754 3.025-.673 1.059-2.036 1.784-3.282 1.78-3.622-.02-7.074-2.215-8.794-5.35-1.846-3.351-2.994-8.072 1.334-10.016.723-.328 1.574-.206 2.304-.506 1.103-.45.868-.783 1.216-1.769.163-.467.365-.921.494-1.403.066-.228.431-.909.358-1.096-.125-.329-1.16-.444-1.492-.484z" fill="#855c52"/></g></g><g><g><path d="M124.03 72.959c-.065 0-.122-.008-.183-.008-2.143-.105-4.255.357-6.385.49-2.096.138-4.169.479-6.25.779-.803.117-1.513.072-1.951.859-.401.714-.494 1.655.304 2.15 2.296 1.419 4.799 2.538 7.245 3.686 1.777.831 3.59 1.59 5.382 2.389.561.247 1.229.67 1.871.674.9.004 1.363-.86 1.679-1.558.73-1.639 1.347-3.415 1.494-5.208.084-1.075.462-2.211-.135-3.196-.609-1.001-2.004-1.005-3.071-1.057z" fill="#ed6c30"/></g><g><path d="M109.082 26.792a3.397 3.397 0 0 0-.134.13c-1.529 1.496-2.628 3.362-3.967 5.021-1.326 1.63-2.478 3.387-3.675 5.118-.462.67-.973 1.16-.694 2.017.256.779.877 1.488 1.786 1.233 2.6-.722 5.127-1.805 7.626-2.814 1.812-.746 3.605-1.558 5.406-2.332.564-.244 1.327-.446 1.765-.917.612-.653.291-1.582-.008-2.288-.702-1.65-1.59-3.31-2.811-4.636-.726-.795-1.305-1.829-2.429-2.064-1.157-.241-2.106.784-2.865 1.532z" fill="#ed6c30"/></g><g><path d="M70.318 4.92c-.012.065-.018.121-.025.183-.206 2.134.158 4.267.191 6.404.036 2.094.28 4.178.482 6.275.074.807 0 1.517.767 1.991.689.426 1.626.576 2.158-.202 1.529-2.228 2.771-4.673 4.028-7.059.909-1.739 1.756-3.513 2.636-5.269.284-.543.727-1.192.763-1.838.048-.892-.787-1.398-1.472-1.748-1.607-.807-3.35-1.505-5.135-1.739-1.067-.139-2.178-.561-3.188-.013-1.043.557-1.107 1.953-1.205 3.015z" fill="#ed6c30"/></g></g></g></g></svg>