<svg id="レイヤー_1" xmlns="http://www.w3.org/2000/svg" viewBox="0 0 128 128"><g><path d="M124.138 59.024c-2.222-2.22-4.565-3.484-5.233-2.821 0 0-.756.816-.961 2.202-.204 1.351-.682 3.865-1.982 5.103a108.217 108.217 0 0 1-8.142 6.5c.307-1.361.565-2.744.708-4.172 1.765-18.065-11.439-34.144-29.51-35.911-18.064-1.771-34.144 11.441-35.909 29.507-.075.729-.082 1.447-.102 2.17-.94-1.107-1.67-2.105-2.079-2.918-2.93-5.783.082-19.103.082-19.103l-.013.011c.184-1.074.061-1.969-.443-2.609-2.522-3.226-13.328 1.016-24.142 9.468C5.591 54.904-1.134 64.371 1.387 67.596c.532.682 1.452 1.013 2.65 1.058l-.027.018s7.318-.321 16.252 3.848c4.415 2.057 18.485 13.228 27.098 16.978 19.473 8.478 30.302 5.956 30.302 5.956l-.035-.039a32.722 32.722 0 0 0 16.899-5.782l.006.006s12.238-6.869 26.172-22.48c1.246-.947 3.079-1.476 4.155-1.745 1.371-.337 2.106-1.166 2.106-1.166.668-.665-.607-3.005-2.827-5.224zM22.81 55.018c-6.522 5.053-12.469 8.152-13.307 6.928-.825-1.221 3.781-6.307 10.309-11.356 6.514-5.053 12.462-8.154 13.293-6.935.832 1.227-3.782 6.312-10.295 11.363zm50.96 28.524c-11.549-1.13-19.991-11.408-18.86-22.956 1.131-11.546 11.398-19.993 22.956-18.862C89.415 42.855 97.857 53.133 96.72 64.68c-1.125 11.548-11.401 19.993-22.95 18.862z" fill="#fcc21b"/><path d="M93.217 87.627a9.267 9.267 0 0 0-.436-2.354c-.307-.947-.77-2.177-1.397-2.956-.77-.954-1.717-1.991-2.936-2.451a2.73 2.73 0 0 0-2.195.108c-.347.167-.681.352-1.015.538-3.381 1.892-7.407 2.1-11.188 1.794-1.116-.091-2.208-.388-3.332-.417-.321-.011-.654-.006-.967.085-.171.05-.729.273-.573.527.069.108.272.155.368.241.838.724 1.138 2.41 1.302 3.434.47 3.006-.422 6.902-3.019 8.754-.184.13-.381.208-.586.293-.299.123-.872-.052-.653.419.143.307.416.573.687.764 1.466 1.025 3.722 1.097 5.445 1.188 3.795.2 7.686-.223 11.338-1.288a28.48 28.48 0 0 0 3.141-1.113c2.793-1.185 5.696-3.472 5.996-6.723a5.9 5.9 0 0 0 .02-.843z" fill="#ed6c30"/><path d="M69.79 103.05c-.027-1.421-.729-2.682-2.548-3.349-2.221-.818-4.333 1.216-5.852 2.552-1.037.902-2.372 1.771-2.952 3.056-.286.626-.238 1.202.314 1.648.13.099.484.19.545.331.087.19-.116.357-.116.556.006.517.395.949.837 1.158.306.146.601.143.832.388.19.212.251.61.491.794.238.181.62.238.899.3.32.075.408.082.702.276.94.623 2.984 1.059 3.829.06.409-.476.682-1.236.954-1.818.846-1.796 2.092-3.915 2.065-5.952z" fill="#ed6c30"/><path d="M70.861 93.786c-.034.276-.049.545-.076.746a6.882 6.882 0 0 1-.682 2.197c-.755 1.469-1.806 2.801-3.167 3.748-.416.286-1.697.604-1.69 1.114 0 .69 1.008 1.325 1.586 1.328 2.325.007 3.878-1.759 4.914-3.625.913-1.651 2.365-4.66 1.254-6.507-.354-.59-1.26-.408-1.737-.041-.266.202-.355.628-.402 1.04z" fill="#ed6c30"/><path d="M92.256 103.22c-.539-1.318-.368-2.753 1.042-4.071 1.737-1.619 4.477-.559 6.391.079 1.301.436 2.868.717 3.904 1.676.505.469.682 1.019.341 1.644-.075.139-.368.363-.368.515-.007.213.245.288.32.471.197.475.007 1.026-.32 1.388-.225.256-.504.368-.613.682-.103.269 0 .66-.149.919-.151.264-.477.462-.716.631-.267.191-.341.231-.539.525-.627.936-2.337 2.132-3.502 1.539-.565-.282-1.111-.877-1.587-1.309-1.472-1.329-3.441-2.803-4.204-4.689z" fill="#ed6c30"/><path d="M90.158 92.178c.006.276-.007.545.013.747.041.759.211 1.546.504 2.248.64 1.522 1.574 2.937 2.862 3.989.388.317 1.642.735 1.594 1.244-.061.688-1.117 1.239-1.696 1.195-2.309-.177-3.713-2.062-4.599-4.003-.784-1.721-1.997-4.838-.736-6.589.41-.56 1.295-.307 1.745.1.237.222.299.652.313 1.069z" fill="#ed6c30"/></g></svg>