<svg id="レイヤー_1" xmlns="http://www.w3.org/2000/svg" xmlns:xlink="http://www.w3.org/1999/xlink" viewBox="0 0 128 128"><g><g><path d="M14.702 107.85c.356 9.926 1.338 13.433 1.434 13.882.243 1.036.806 2.378 3.073 2.965 5.934 1.547 10.193-.616 10.264-3.033.031-1.222 1.173-2.449 1.173-13.587l-15.944-.227z" fill="#78a3ad"/></g><g><path d="M112.497 107.85c-.363 9.926-1.348 13.433-1.439 13.882-.239 1.036-.801 2.378-3.069 2.965-5.934 1.547-10.202-.616-10.266-3.033-.036-1.222-1.176-2.449-1.176-13.587l15.95-.227z" fill="#78a3ad"/></g><path d="M22.677 36.79a3.474 3.474 0 0 1-3.327-2.467 3.48 3.48 0 0 1 2.317-4.336l94.438-27.111a2.136 2.136 0 0 1 2.667 1.426 2.148 2.148 0 0 1-1.426 2.67L23.687 36.641a3.462 3.462 0 0 1-1.01.149z" fill="#78a3ad"/><g><g><path d="M119.885 42.153c-6.786-7.486-26.498-9.694-55.88-9.785-29.393.091-49.099 2.299-55.884 9.785-3.1 3.413-5.015 8.11-6.124 14.316a27.835 27.835 0 0 1 3.67-1.738c5.269-2.01 10.962-2.494 16.552-2.521 6.281-.032 12.551-.127 18.815.157.698.032 1.395.032 2.092.015a53.715 53.715 0 0 1 3.634.04c.521.022.969.127 1.499.104 1.448-.055 2.911.014 4.354.108.551.036 1.245.068 1.969.141 2.345.24 5.051.919 4.562 3.657-.517 2.86-3.839 2.457-6.071 2.421-2.026-.036-4.049-.072-6.073-.199-.18-.009-.357-.018-.539-.022-3.367-.068-6.731-.072-10.098-.1-3.463-.031-6.926-.213-10.392-.285a133.134 133.134 0 0 0-3.738-.036c-5.854.041-11.701.643-17.065 3.146-1.329.62-2.855 1.34-4.05 2.343a115.101 115.101 0 0 0-.258 4.786c.498-.362.991-.72 1.52-1.05.702-.439 1.444-.684 2.199-1.015 1.865-.818 4.001-1.145 5.998-1.489a47.251 47.251 0 0 1 6.74-.696c4.071-.118 8.147.158 12.219.063 11.319-.259 17.362.204 25.922.004 5.941-.14 5.711 6.428 1.505 6.396-8.168-.06-16.325.234-24.496.112a313.62 313.62 0 0 0-6.507-.05c-3.951.014-7.898.136-11.831.525-3.666.366-7.505.814-10.967 2.146-.656.249-1.638.593-2.417 1.104v.154c0 1.548.031 3.021.068 4.461.317-.086.647-.158 1.004-.233 2.25-.476 4.563-.684 6.866-.819 5.034-.294 10.139-.33 15.163-.353 8.509-.032 17.028-.141 25.541.009 1.882.032 3.793-.059 5.658.091.312.022.633.054.945.095 2.07.263 4.676 1.965 2.824 4.399-1.489 1.955-5.312 1.629-7.426 1.652-6.64.077-13.289-.349-19.915-.159-2.901.082-5.793-.022-8.681-.104-5.792-.153-11.495-.153-17.247.608-1.362.177-3.122.23-4.458.903.109 1.686.254 3.288.426 4.8 18.181-.331 36.544-.817 54.68.036 4.037.19 4.037 6.074 0 6.264-17.815.833-35.832.38-53.697.05 1.153 5.602 2.874 9.641 5.142 12.406 7.092 8.649 35.516 8.283 56.368 8.238 20.848.045 49.276.412 56.364-8.238 4.525-5.521 6.884-16.108 6.884-34.104-.002-15.987-1.757-26.356-7.369-32.539z" fill="#f79329"/><g><defs><path id="SVGID_1_" d="M115.135 66.658c0 2.892-2.363 5.255-5.25 5.255H76.007c-2.892 0-5.259-2.363-5.259-5.255v-9.233c0-2.893 2.367-5.255 5.259-5.255h33.878c2.886 0 5.25 2.362 5.25 5.255v9.233z"/></defs><use xlink:href="#SVGID_1_" overflow="visible" fill="#fff"/><clipPath id="SVGID_2_"><use xlink:href="#SVGID_1_" overflow="visible"/></clipPath><path d="M98.186 75.1c-.009-.544.099-1.056.146-1.594.419-4.3.614-8.84 1.741-13.026.123-.466.303-1.068.783-1.29 2.549-1.186 3.463 12.855 3.844 14.533.039.186.039.349.152.507-.632-.05-.397.747-.452 1.137-.973.127-2.014.026-2.986.136-1.001.112-2.2.141-3.196.009a3.849 3.849 0 0 1-.032-.412z" clip-path="url(#SVGID_2_)" fill="#ed6c30"/></g></g><g><g><defs><path id="SVGID_3_" d="M87.417 91.203c0 4.642-3.766 8.405-8.413 8.405a8.404 8.404 0 0 1-8.402-8.405c0-4.645 3.762-8.408 8.402-8.408 4.647 0 8.413 3.764 8.413 8.408z"/></defs><use xlink:href="#SVGID_3_" overflow="visible" fill="#fff"/><clipPath id="SVGID_4_"><use xlink:href="#SVGID_3_" overflow="visible"/></clipPath></g></g><g><g><defs><path id="SVGID_5_" d="M114.452 91.203a8.407 8.407 0 0 1-8.404 8.405c-4.65 0-8.416-3.764-8.416-8.405 0-4.645 3.766-8.408 8.416-8.408 4.639 0 8.404 3.764 8.404 8.408z"/></defs><use xlink:href="#SVGID_5_" overflow="visible" fill="#fff"/><clipPath id="SVGID_6_"><use xlink:href="#SVGID_5_" overflow="visible"/></clipPath></g></g></g></g></svg>