<svg id="レイヤー_1" xmlns="http://www.w3.org/2000/svg" viewBox="0 0 128 128"><g><g><g><path d="M61.01 64.002L29.683 86.967V72.638H.444V55.5h29.239V41.029L61.01 64.002z" fill="#ed6c30"/></g></g><g><g><path d="M121.742 6.337c-4.24-1.901-16.62-3.112-24.466-3.112-7.837 0-20.226 1.211-24.46 3.112-4.145 1.86-5.819 5.532-5.819 8.992v97.342c0 3.461 1.674 7.132 5.819 8.992 4.235 1.9 16.624 3.112 24.46 3.112 7.846 0 20.226-1.212 24.466-3.112 4.145-1.86 5.813-5.531 5.813-8.992V15.329c0-3.46-1.668-7.132-5.813-8.992z" fill="#006ca2"/><path d="M102.848 10.746H91.717a1.038 1.038 0 1 1 0-2.076h11.131a1.037 1.037 0 1 1 0 2.076z" fill="#fff"/><circle cx="117.165" cy="10.487" r="1.989" fill="#fff"/><linearGradient id="SVGID_1_" gradientUnits="userSpaceOnUse" x1="97.278" y1="104.769" x2="97.278" y2="22.712"><stop offset="0" stop-color="#fff"/><stop offset="1" stop-color="#00a0d6"/></linearGradient><path fill="url(#SVGID_1_)" d="M72.492 22.712h49.573v82.057H72.492z"/></g><g fill="#fff"><path d="M81.65 108.935v.701l-1.532-1.115 1.532-1.123v.705h.879c1.722 0 2.828.507 2.828 1.99 0 1.491-1.106 1.998-2.828 1.998h-1.978v-.831h1.978c1.463 0 1.997-.316 1.997-1.167 0-.843-.535-1.159-1.997-1.159h-.879v.001z"/><path d="M100.194 111.808h-5.739v-2.897l2.87-1.212 2.869 1.212v2.897zm-4.91-.831h4.076v-1.516l-2.035-.863-2.041.863v1.516z"/><g><path d="M113.83 111.808h-4.798v-3.035h4.798v3.035zm-3.968-.831h3.137v-1.374h-3.137v1.374z"/><path d="M115.187 110.094h-.831v-1.787h-3.549v-.831h4.38z"/></g></g></g></g></svg>