<svg id="レイヤー_1" xmlns="http://www.w3.org/2000/svg" xmlns:xlink="http://www.w3.org/1999/xlink" viewBox="0 0 128 128"><path d="M77 104c2.007 1.004 7.299 3.316 14.25 2.5 6.736-.791 11.25-4.076 13-5.5.86.897 4.368 4.754 4.583 10.833.217 6.109-3.04 10.218-3.833 11.167-2.377.428-6.595.861-11.5-.5-6.194-1.719-10.043-5.344-11.5-6.75-1.538-1.484-3.713-4.593-8-10.75l3-1z" fill="#855c52"/><g><path d="M70.441 36.136c3.425 2.883 8.777 1.627 13.376.547 10.806-2.537 12.347-8.514 19.827-8.828 6.153-.258 12.909 3.46 15.851 9.177 4.964 9.645-2.506 21.922-3.384 23.324-10.293 16.424-26.818 8.993-37.493 25.706-3.375 5.284-5.899 12.569-13.274 15.591-1.826.749-5.23 2.143-7.651.567-5.888-3.834 2.25-19.894-3.137-24.43-5.802-4.886-18.997 10.574-32.067 5.775-6.101-2.24-9.229-7.813-11.37-11.629-9.058-16.14-6.569-41.871 8.598-55.731 1.886-1.723 9.846-8.635 21.619-9.525 2.122-.16 18.845-1.209 24.82 8.863 4.653 7.841-.872 16.252 4.285 20.593z" fill="none" stroke="#a13300" stroke-width="8" stroke-linecap="round" stroke-linejoin="round" stroke-dasharray="0,8.8984"/></g><circle cx="70" cy="100" r="5.16" fill="#fbc21a"/><g fill="none" stroke="#8b5940" stroke-width="2" stroke-linecap="round" stroke-linejoin="round" stroke-miterlimit="10"><path d="M74 143.542c5.307 7.624 15.592 2.81 20.939 10.458"/><path d="M76.172 140.692c6.751 6.246 15.925 1.618 21.696 8.558"/><path d="M76.415 136.397c6.382 6.54 15.007.603 22.195 7.145"/></g><g id="_x34_MYEn4.tif"/><g id="UzCx6Y.tif"/><path d="M74 100l3.352 3.352c.91.91.91 2.385 0 3.295l-.002.002a2.33 2.33 0 0 1-2.94.291L70 104l4-4z" fill="#fbc21a"/><path d="M82.333 108.207c0 .398.229.755.593.915 1.408.618 5.343 1.993 12.013 1.711 5.777-.244 9.201-2.006 10.622-2.934a.996.996 0 0 0 .312-1.346l-1.198-2.027a.996.996 0 0 0-1.354-.361c-2.105 1.204-7.712 4.168-11.899 4.168-5.255 0-9.089-.867-9.089-.867v.741z" fill="#b89178"/></svg>