<svg id="レイヤー_1" xmlns="http://www.w3.org/2000/svg" viewBox="0 0 128 128"><g><path d="M117.052 28.996H10.948c-3.888 0-7.076 3.184-7.076 7.075v55.857c0 3.89 3.188 7.07 7.076 7.07h106.104c3.895 0 7.079-3.181 7.079-7.07V36.071c0-3.891-3.184-7.075-7.079-7.075z" fill="#fff"/><path d="M120.049 27.022H7.952c-4.109 0-7.473 3.359-7.473 7.47v59.011c0 4.11 3.364 7.475 7.473 7.475H120.05c4.11 0 7.471-3.364 7.471-7.475V34.492c0-4.11-3.361-7.47-7.472-7.47zm-5.22 25.023s.232.197.587.609c-.437 5.07-1.089 9.049-1.784 12.163a18.22 18.22 0 0 0-9.018-12.772h10.215zM82.177 85.54H45.825a4.37 4.37 0 0 1-4.36-4.358V56.403a4.37 4.37 0 0 1 4.36-4.358h36.352a4.32 4.32 0 0 1 2.857 1.094c.915.803 1.503 1.961 1.503 3.265v24.778c0 .789-.228 1.523-.601 2.162-.756 1.303-2.15 2.196-3.759 2.196zM35.231 74.128a6.518 6.518 0 0 1-2.171.395 6.588 6.588 0 0 1-6.589-6.591 6.592 6.592 0 0 1 6.589-6.59c.763 0 1.49.159 2.171.396v12.39zm60.437.394c-.627 0-1.223-.116-1.798-.279V61.625c.575-.167 1.172-.283 1.798-.283a6.587 6.587 0 0 1 6.59 6.59 6.584 6.584 0 0 1-6.59 6.59zM13.542 52.045h21.689v2.595a13.43 13.43 0 0 0-2.171-.192c-7.452 0-13.489 6.037-13.489 13.484 0 .112.013.216.017.322-2.141-3.432-4.663-8.183-7.387-14.621.758-1.1 1.341-1.588 1.341-1.588zM8.604 67.829c0-5.385 1.043-9.139 2.17-11.64 2.386 5.744 7.706 17.295 13.692 22.139l.065.051c.247.206.509.396.776.585.15.103.304.21.459.305.034.021.064.047.099.068l.005-.005a13.396 13.396 0 0 0 7.19 2.09c.743 0 1.469-.073 2.171-.189v4.308H13.542c0-.001-4.938-5.994-4.938-17.712zM114.829 85.54h-14.442a18.26 18.26 0 0 0 11.267-8.812v.004c3.586-4.51 5.157-13.627 5.856-20.728 1.159 2.497 2.253 6.303 2.253 11.824 0 11.719-4.934 17.712-4.934 17.712z" fill="#2f2f2f"/></g></svg>