<svg xmlns="http://www.w3.org/2000/svg" viewBox="0 0 128 128"><g id="图层_1"><g><g><g fill="#757575"><g/></g></g></g><g><g fill="#757575"><g/></g></g><g><path d="M16.624 124.273V14.045a660.251 660.251 0 0 0 91.706.212c1.682-.113 3.046 1.036 3.046 2.576v104.651c0 1.54-1.364 2.888-3.046 3.001a660.406 660.406 0 0 1-91.706-.212z" fill="#bdbdbd"/><g><path d="M16.624 124.254V14.026C44.357 7.909 72.213 3.9 99.954 2.032c1.529-.103 2.767 1.069 2.767 2.609v104.651c0 1.541-1.239 2.866-2.769 2.969-27.74 1.867-55.596 5.876-83.328 11.993z" fill="#e0e0e0"/><path d="M28.751 49.339c20.598-4.082 41.245-7.002 61.843-8.744" fill="none" stroke="#616161" stroke-width="5" stroke-linecap="round" stroke-linejoin="round" stroke-miterlimit="10"/><path d="M28.751 63.226a568.718 568.718 0 0 1 26.447-4.598" fill="none" stroke="#616161" stroke-width="5" stroke-linecap="round" stroke-linejoin="round" stroke-miterlimit="10"/><path d="M28.751 77.113a568.718 568.718 0 0 1 26.447-4.598" fill="none" stroke="#616161" stroke-width="5" stroke-linecap="round" stroke-linejoin="round" stroke-miterlimit="10"/><path d="M28.751 105.575c20.598-4.082 41.245-7.002 61.843-8.744" fill="none" stroke="#616161" stroke-width="5" stroke-linecap="round" stroke-linejoin="round" stroke-miterlimit="10"/><path d="M28.751 91.001a568.718 568.718 0 0 1 26.447-4.598" fill="none" stroke="#616161" stroke-width="5" stroke-linecap="round" stroke-linejoin="round" stroke-miterlimit="10"/><path d="M64.863 87.555A555.05 555.05 0 0 1 89.53 84.86c1.487-.129 2.692-1.439 2.692-2.936V54.543c0-1.496-1.205-2.612-2.692-2.483a555.042 555.042 0 0 0-24.667 2.694c-1.489.196-2.695 1.575-2.695 3.072v27.381c0 1.497 1.207 2.544 2.695 2.348z" fill="#616161"/><path d="M30.455 35.412c2.026-.395 4.052-.779 6.078-1.151 1.488-.274 2.694-1.702 2.694-3.198v-7.018c0-1.496-1.206-2.495-2.694-2.221a590.11 590.11 0 0 0-6.078 1.151c-1.487.29-2.692 1.745-2.692 3.241v7.018c0 1.496 1.205 2.468 2.692 2.178z" fill="#616161"/><path d="M46.421 32.532c2.027-.336 4.055-.661 6.082-.974 1.489-.23 2.695-1.623 2.695-3.12V21.42c0-1.496-1.207-2.53-2.695-2.3-2.028.313-4.055.638-6.082.974-1.488.247-2.695 1.666-2.695 3.163v7.018c0 1.497 1.206 2.503 2.695 2.257z" fill="#616161"/><path d="M62.394 30.119c2.028-.277 4.055-.542 6.083-.796 1.488-.187 2.695-1.544 2.695-3.041v-7.018c0-1.496-1.207-2.565-2.695-2.379-2.028.254-4.055.519-6.083.796-1.489.203-2.695 1.588-2.695 3.084v7.018c0 1.497 1.207 2.539 2.695 2.336z" fill="#616161"/></g></g><g><path fill="none" stroke="#616161" stroke-width="5" stroke-linecap="round" stroke-linejoin="round" stroke-miterlimit="10" d="M387.484 86.214h68.334"/><path fill="none" stroke="#616161" stroke-width="5" stroke-linecap="round" stroke-linejoin="round" stroke-miterlimit="10" d="M387.484 101.472h29.225"/><path fill="none" stroke="#616161" stroke-width="5" stroke-linecap="round" stroke-linejoin="round" stroke-miterlimit="10" d="M387.484 116.73h29.225"/><path fill="none" stroke="#616161" stroke-width="5" stroke-linecap="round" stroke-linejoin="round" stroke-miterlimit="10" d="M387.484 148h68.334"/><path fill="none" stroke="#616161" stroke-width="5" stroke-linecap="round" stroke-linejoin="round" stroke-miterlimit="10" d="M387.484 131.988h29.225"/></g></g></svg>