<svg id="レイヤー_1" xmlns="http://www.w3.org/2000/svg" viewBox="0 0 128 128"><g><g><g><path d="M88.483 6.239c-4.242-1.902-16.637-3.115-24.484-3.115-7.848 0-20.241 1.213-24.482 3.115-4.146 1.861-5.815 5.541-5.815 9v97.422c0 3.46 1.669 7.137 5.815 9 4.241 1.902 16.635 3.114 24.482 3.114 7.847 0 20.242-1.212 24.484-3.114 4.148-1.862 5.818-5.54 5.818-9V15.24c0-3.46-1.67-7.139-5.818-9.001z" fill="#006ca2"/><path d="M69.575 10.655h-11.14a1.036 1.036 0 0 1-1.039-1.038c0-.576.46-1.039 1.039-1.039h11.14c.578 0 1.039.463 1.039 1.039 0 .572-.462 1.038-1.039 1.038z" fill="#fff"/><circle cx="83.904" cy="10.396" r="1.992" fill="#fff"/><path fill="#2f2f2f" d="M39.195 22.632h49.612v82.117H39.195z"/></g><g fill="#fff"><path d="M48.361 108.919v.702l-1.529-1.116 1.529-1.123v.704h.88c1.723 0 2.832.508 2.832 1.992 0 1.492-1.108 1.999-2.832 1.999h-1.98v-.832h1.98c1.465 0 1.999-.316 1.999-1.167 0-.843-.534-1.16-1.999-1.16h-.88v.001z"/><path d="M66.915 111.794h-5.737v-2.895l2.87-1.213 2.867 1.213v2.895zm-4.906-.833h4.073v-1.511l-2.035-.864-2.038.864v1.511z"/><g><path d="M80.567 111.794h-4.804v-3.038h4.804v3.038zm-3.972-.833h3.138v-1.373h-3.138v1.373z"/><path d="M81.925 110.081h-.832v-1.792h-3.552v-.831h4.384z"/></g></g></g><g><g><path d="M42.728 81.547c.47-.372.921-.77 1.355-1.188 4.128-3.95 6.611-9.689 6.611-16.409 0-7.096-2.753-13.104-7.301-17.062-.219-.186-.442-.361-.666-.54-2.765-2.206-6.136-3.678-9.924-4.229a22.97 22.97 0 0 0-3.387-.272c-12.328 0-21.274 9.295-21.274 22.103 0 12.805 8.947 22.1 21.274 22.1a23.52 23.52 0 0 0 3.387-.268c3.788-.555 7.159-2.029 9.925-4.235zM29.417 54.253c1.226 0 2.353.227 3.387.6 3.586 1.299 5.901 4.664 5.901 9.097 0 4.429-2.316 7.795-5.901 9.092a9.795 9.795 0 0 1-3.387.604c-5.466 0-9.286-3.99-9.286-9.697-.001-5.709 3.82-9.696 9.286-9.696zm86.98-10.232v7.503c0 .49-.401.883-.885.883h-15.43v8.063h12.648c.487 0 .885.397.885.883v7.503a.887.887 0 0 1-.885.884h-12.648v14.133c0 .491-.39.884-.881.884h-9.859a.884.884 0 0 1-.884-.884V44.021c0-.488.398-.885.884-.885h26.169a.89.89 0 0 1 .886.885zm-49.239 8.387v8.063h12.645c.487 0 .885.397.885.883v7.503a.887.887 0 0 1-.885.884H67.158v14.133a.881.881 0 0 1-.884.884h-9.862a.88.88 0 0 1-.88-.884V44.021c0-.488.394-.885.88-.885h26.174c.486 0 .883.397.883.885v7.503c0 .49-.397.883-.883.883H67.158z" fill="#ed6c30"/></g></g></g></svg>