<svg id="レイヤー_1" xmlns="http://www.w3.org/2000/svg" xmlns:xlink="http://www.w3.org/1999/xlink" viewBox="0 0 128 128"><path d="M104.636 27.662h-7.64l-1.786-7.667a4.3 4.3 0 0 0-4.188-3.324h-18.13a4.3 4.3 0 0 0-4.188 3.324l-1.786 7.667H15.271c-7.718 0-13.975 6.257-13.975 13.975v64.187c0 7.718 6.257 13.975 13.975 13.975h89.365c7.718 0 13.975-6.257 13.975-13.975V41.637c0-7.719-6.257-13.975-13.975-13.975z" fill="#78a3ad"/><path fill="#2f2f2f" d="M1.28 55.649l.618 47.909 116.713.179v-48.53z"/><circle cx="60.296" cy="78.638" r="31.356" fill="#fff" stroke="#2f2f2f" stroke-width="5" stroke-linecap="round" stroke-linejoin="round" stroke-miterlimit="10"/><circle cx="60.296" cy="78.638" r="23.785" fill="#006ca2"/><circle cx="60.296" cy="78.638" r="18.768" fill="#40c0e7"/><circle cx="60.296" cy="78.638" r="8.206" fill="#006ca2"/><path d="M45.602 86.95s1.714 4.82 7.614 6.869" fill="none" stroke="#fff" stroke-width="4" stroke-linecap="round" stroke-miterlimit="10"/><path fill="none" stroke="#fff" stroke-width="4" stroke-linecap="round" stroke-miterlimit="10" d="M59.239 86.469h1.057"/><path d="M21.714 37.705c-.245-.711-.755-1.761-4.595-2.226-2.079-.253-4.961.086-6.478 1.327-.694.556-.789 1.494-.789 1.494s-.079 1.496.042 2.092c.116.552.778 1.078 1.394 1.37.906.43 2.033.697 3.132.759.683.038 1.372.029 2.048-.019 1.659-.122 3.411-.508 4.621-1.382.572-.413.671-1.389.671-1.389s.173-1.39-.046-2.026z" fill="#2f2f2f"/><path fill="#2f2f2f" d="M84.471 23.341l7.738 8.579-1.514 3.7-7.906-8.678z"/><g><path d="M110.294 51.665c-.048 0-.113 0-.212-.145l-5.979-8.709a4.308 4.308 0 0 0-6.575-.629l-7.792 7.687c-.1.098-.163.098-.194.098a.39.39 0 0 1-.282-.14c-.035-.043-.07-.101-.039-.242l1.399-6.416a4.278 4.278 0 0 0-.846-3.612 4.302 4.302 0 0 0-3.359-1.618c-.641 0-1.265.142-1.855.423l-7.735 3.683a.383.383 0 0 1-.153.043c-.093 0-.208-.087-.267-.203-.054-.108-.044-.183.042-.299l3.236-4.385a4.3 4.3 0 0 0 .728-3.537 4.302 4.302 0 0 0-2.221-2.849l-7.658-3.945c-.071-.037-.203-.104-.161-.329.042-.224.189-.24.269-.249l4.525-.49a4.27 4.27 0 0 0 3.245-2.091 4.269 4.269 0 0 0 .266-3.851l-3.827-9.157c-.046-.111-.042-.188.016-.274.062-.094.17-.16.261-.16.043 0 .092.014.148.043l10.353 5.386a4.326 4.326 0 0 0 1.985.487 4.326 4.326 0 0 0 4.041-2.812l3.445-9.313c.049-.133.148-.201.293-.201.167 0 .23.104.257.149l5.908 9.805a4.329 4.329 0 0 0 4.315 2.038l14.508-2.131c.215 0 .287.121.317.194.075.183-.017.273-.071.328l-4.584 4.538a4.282 4.282 0 0 0-1.172 4.001 4.284 4.284 0 0 0 2.765 3.119l8.163 2.892c.06.021.199.07.205.28a.274.274 0 0 1-.189.292l-5.917 2.473a4.278 4.278 0 0 0-2.593 3.297 4.28 4.28 0 0 0 1.442 3.939l2.219 1.912c.085.074.157.154.092.328-.024.065-.097.215-.256.215l-6.59-1.259a4.274 4.274 0 0 0-4.206 1.577 4.282 4.282 0 0 0-.788 3.686l1.417 5.74c.04.162.001.212-.022.242a.433.433 0 0 1-.317.151z" fill="#ffcd50"/><path d="M95.75 8.056l4.091 6.79a6.34 6.34 0 0 0 5.401 3.052c.306 0 .615-.023.918-.067l9.391-1.381-.918.909a6.275 6.275 0 0 0-1.718 5.858 6.275 6.275 0 0 0 4.049 4.569l4.025 1.426-1.867.78a6.267 6.267 0 0 0-3.797 4.829 6.277 6.277 0 0 0 .543 3.731l-1.281-.246a6.388 6.388 0 0 0-1.201-.115 6.265 6.265 0 0 0-4.958 2.422 6.268 6.268 0 0 0-1.292 3.081l-1.384-2.016a6.306 6.306 0 0 0-5.201-2.737 6.266 6.266 0 0 0-4.427 1.817l-3.735 3.684.185-.848a6.269 6.269 0 0 0-1.242-5.292 6.29 6.29 0 0 0-7.631-1.746l-1.823.868a6.302 6.302 0 0 0 .48-4.216 6.296 6.296 0 0 0-3.253-4.171l-2.765-1.425a6.24 6.24 0 0 0 3.791-2.884 6.25 6.25 0 0 0 .389-5.639l-2.025-4.845 6.206 3.229a6.332 6.332 0 0 0 2.909.713 6.334 6.334 0 0 0 5.917-4.119l2.223-6.011m-.361-6.196c-.905 0-1.804.519-2.169 1.507l-3.445 9.312a2.307 2.307 0 0 1-3.228 1.246L76.195 8.539a2.306 2.306 0 0 0-1.072-.269c-1.527 0-2.798 1.586-2.121 3.205l3.827 9.157a2.307 2.307 0 0 1-1.88 3.183l-4.526.49c-2.274.246-2.842 3.296-.808 4.344l7.658 3.946a2.307 2.307 0 0 1 .8 3.42L74.837 40.4c-1.199 1.625.101 3.69 1.834 3.69.327 0 .669-.073 1.013-.237l7.735-3.683c.33-.157.668-.229.995-.229 1.385 0 2.581 1.287 2.25 2.803l-1.399 6.417c-.347 1.59.924 2.808 2.275 2.808.555 0 1.123-.205 1.598-.674l7.793-7.686a2.293 2.293 0 0 1 1.618-.665c.728 0 1.451.342 1.904 1.001l5.979 8.709c.485.707 1.178 1.013 1.861 1.013 1.362 0 2.689-1.212 2.28-2.871l-1.418-5.741c-.367-1.485.778-2.861 2.23-2.861.146 0 .294.014.445.043l6.496 1.249c.162.031.319.046.472.046 2.031 0 3.135-2.624 1.469-4.059l-2.219-1.911c-1.3-1.119-.967-3.215.616-3.876l5.918-2.473c1.947-.814 1.87-3.598-.119-4.303l-8.164-2.892c-1.603-.568-2.061-2.617-.853-3.813l4.584-4.538c1.494-1.479.386-3.948-1.596-3.948-.118 0-.239.009-.362.027l-14.494 2.131a2.307 2.307 0 0 1-2.311-1.091l-5.908-9.805a2.268 2.268 0 0 0-1.97-1.121z" fill="#ec6c30"/></g><g id="I8SnGU.tif"/></svg>