<svg id="レイヤー_1" xmlns="http://www.w3.org/2000/svg" xmlns:xlink="http://www.w3.org/1999/xlink" viewBox="0 0 128 128"><g><g><defs><path id="SVGID_1_" d="M113.534 27.219l-8.94-1.042-8.858-8.89c-.005-.004-.005-.009-.014-.011l-.03-.028a1.953 1.953 0 0 0-1.206-.614l-24.284-2.509a1.6 1.6 0 0 0-1.076.27l-9.854 6.547c-13.734-1.57-24.992-2.84-26.167-2.904-5.358-.296-7.833-.116-11.171 1.592-.915.351-5.437 3.119-8.024 4.938-10.935 8.4-10.668 19.259-10.668 28.045v35.622c0 5.963 1.815 13.326 8.436 13.326l93.255 10.609c2.184.224 4.114-.686 5.278-2.243v.004c0 .052 13.103-14.63 13.103-14.63v-.004a5.583 5.583 0 0 0 1.446-3.784V41.814c-.001-7.473-3.832-14.02-11.226-14.595z"/></defs><use xlink:href="#SVGID_1_" overflow="visible" fill="#2f2f2f"/><clipPath id="SVGID_2_"><use xlink:href="#SVGID_1_" overflow="visible"/></clipPath><path clip-path="url(#SVGID_2_)" fill="#78a3ad" d="M106.247 114.938l-70.696-10.435V30.979l70.696 10.434z"/><path d="M5.918 33.208s.16 6.955 5.651 9.151c5.491 2.196 14.462 2.746 23.982-5.491l64.431 6.954s2.869.431 6.555.271c5.616-.249 9.392-2.077 15.23-8.508l5.465-5.294-21.575-3.499-8.495-8.083-28.112-3.245-10.435 5.766-31.147-3.021L8.484 28.266l-2.566 4.942z" clip-path="url(#SVGID_2_)" fill="#78a3ad"/><path d="M16.46 37.769s-2.746 3.295-2.746 8.971v40.453s.18 9.896 2.746 15.022l-7.341.364s-5.303-4.037-5.122-15.202V44.724l5.122-14.642 7.161-2.746.18 10.433z" clip-path="url(#SVGID_2_)" fill="#78a3ad"/><path d="M24.147 37.769s-2.745 3.295-2.745 8.971v40.453s.179 9.896 2.745 15.022l-7.34.364s-5.307-4.037-5.123-15.202V44.724l5.123-14.642 7.161-2.746.179 10.433z" clip-path="url(#SVGID_2_)" fill="#78a3ad"/></g><path d="M105.585 114.839c-.3 0-.605-.015-.918-.047L11.379 104.18h-.034C4.833 104.18.607 98.069.607 88.235V52.004C.595 43.34.59 31.475 12.307 22.479c2.376-1.678 7.34-4.792 8.679-5.31 3.358-1.733 6.203-2.093 12.265-1.763 1.064.058 8.663.901 25.364 2.808l9.052-6.015c.73-.507 1.859-.798 2.807-.695l24.283 2.51a4.588 4.588 0 0 1 2.754 1.323c.039.037.076.073.112.112l8.19 8.216 8.027.935c8.065.627 13.552 7.549 13.552 17.215v49.698c0 2.06-.751 4.028-2.115 5.547l-.128-.114c-2.942 4.382-12.975 14.752-13.089 14.868-1.327 1.813-3.781 3.025-6.475 3.025zm-75.946-94.28c-2.822 0-4.401.343-6.503 1.418-.928.403-5 2.842-7.71 4.747C5.864 34.073 5.871 43.597 5.871 52v36.235c0 2.507.421 10.689 5.806 10.689l93.908 10.645c1.021 0 1.94-.446 2.519-1.223.082-.107.167-.206.261-.299.696-.742 8.101-9.028 12.987-14.501a3.024 3.024 0 0 0 .772-2.033V41.814c0-5.204-2.303-11.461-8.795-11.968l-9.04-1.051a2.636 2.636 0 0 1-1.559-.76l-8.779-8.808-23.657-2.443-9.562 6.354a2.698 2.698 0 0 1-1.76.422c-6.088-.697-24.622-2.816-26.012-2.892a64.354 64.354 0 0 0-3.321-.109z" fill="#2f2f2f"/><path fill="#2f2f2f" d="M91.698 22.781l-11.091 8.186 7.835 11.442 11.699-10.756z"/><g><path fill="#fff" d="M60.954 29.785l14.072 1.45 6.289 7.666-27.68-3.097z"/></g><path d="M26.842 32.007c-.25-.9-.764-2.233-4.574-2.855-2.063-.339-4.917.064-6.409 1.62-.683.697-.769 1.881-.769 1.881s-.065 1.89.061 2.645c.12.699.781 1.37 1.394 1.744.902.551 2.021.899 3.11.987.678.054 1.36.049 2.03-.006 1.643-.14 3.376-.611 4.568-1.706.563-.517.653-1.75.653-1.75s.159-1.754-.064-2.56z" fill="#2f2f2f"/><path d="M3.242 51.881s14.265 5.725 19.387 3.529c5.132-2.196 1.468 13.914 1.468 13.914s2.195 13.177 2.925 21.232c.739 8.056-2.925 12.448-2.925 12.448s-18.302 2.199-19.77-5.124C2.86 90.556 3.242 51.881 3.242 51.881z" fill="#2f2f2f"/><path fill="#2f2f2f" d="M35.367 50.796l73.226 8.787-1.471 52.718-73.214-9.518-1.256-40.285z"/><path d="M121.381 94.171c-4.881 5.472-12.329 13.145-13.016 13.876a2.78 2.78 0 0 0-.261.299c-.579.776-1.498 1.223-2.519 1.223L11.677 98.924c-1.705 0-3.557-.429-5.685-1.252-2.952-1.305-3.296-1.991-4.763-3.572 1.374 6.315 5.029 10.08 10.117 10.08h.034l93.288 10.612c.313.032.618.047.918.047 2.694 0 5.148-1.212 6.475-3.024.114-.116 10.154-10.241 13.303-14.555l.686-.892c1.158-1.587 1.343-2.795 1.343-4.854l-.038-4.001c-1.846 2.337-1.871 2.775-5.974 6.658z" fill="#78a3ad"/><g><g><defs><path id="SVGID_3_" d="M87.413 83.471c-1.926-17.929-18.027-30.903-35.961-28.977-6.148.661-11.697 3.021-16.273 6.521l-.025-.03-8.679 7.242c-5.886 6.637-9.083 15.614-8.058 25.132 1.922 17.929 18.019 30.903 35.948 28.977a32.69 32.69 0 0 0 9.589-2.544l4.093-1.871.49-.335 6.525-4.899-.032-.028c8.58-6.721 13.635-17.554 12.383-29.188z"/></defs><use xlink:href="#SVGID_3_" overflow="visible" fill="#2f2f2f"/><clipPath id="SVGID_4_"><use xlink:href="#SVGID_3_" overflow="visible"/></clipPath><path d="M50.456 79.034l25.998-19.4s-15.566-12.999-33.317-4.762L17.7 71.531l32.756 7.503z" clip-path="url(#SVGID_4_)" fill="#78a3ad"/><path d="M31.562 70.411l25.999-19.4s-15.565-13-33.317-4.763L-1.199 62.907l32.761 7.504z" clip-path="url(#SVGID_4_)" fill="#fff"/></g><g><path d="M78.918 90.728c.501 17.191-12.746 31.623-30.461 32.147-17.723.525-32.211-12.332-32.717-29.519-.506-17.189 12.433-32.272 30.16-32.795 17.726-.528 32.497 12.982 33.018 30.167z" fill="#2f2f2f"/></g><g><path d="M73.387 90.891c.424 14.233-11.129 26.121-25.798 26.559-14.672.429-26.908-10.751-27.328-24.978-.412-14.225 11.12-26.119 25.793-26.555 14.673-.436 26.916 10.752 27.333 24.974z" fill="#fff"/></g><g><path d="M66.514 91.38c1.224 11.401-7.027 21.638-18.431 22.862-11.408 1.223-21.645-7.023-22.858-18.424-1.227-11.399 7.019-21.639 18.419-22.865 11.406-1.224 21.643 7.029 22.87 18.427z" fill="#40c0e7"/></g><path d="M49.327 108.523c-10.017.303-18.371-7.517-18.658-17.453-.215-7.313 3.998-13.729 10.237-16.726-8.607 2.415-14.81 10.372-14.51 19.643.309 10.936 9.516 19.538 20.533 19.214 10.022-.303 18.079-7.881 19.23-17.479a18.117 18.117 0 0 1-16.832 12.801z" fill="#006ca2"/><path d="M61.747 85.496a8.148 8.148 0 0 1-7.228 8.971 8.146 8.146 0 1 1-1.743-16.2c4.47-.481 8.491 2.758 8.971 7.229z" fill="#006ca2"/><g fill="#fff"><path d="M40.292 104.918c-.936-.828-1.947-1.57-2.374-1.969-.973-.944-1.74-2.033-2.471-3.188-.618-.991-1.192-2.426-2.496-2.632-2.004-.315-2.595 1.89-2.129 3.413a14.1 14.1 0 0 0 1.331 2.921c1.047 1.802 7.721 8.143 9.275 3.861.365-1.01-.467-1.812-1.136-2.406z"/><path d="M43.896 110.533c-.643-.5-.957-1.327-.365-2.347.528-.907 1.455-1.053 2.424-.766.952.285 1.549 1.538 1.262 2.474-.417 1.403-2.292 1.437-3.321.639z"/></g></g></g></svg>