<svg id="レイヤー_1" xmlns="http://www.w3.org/2000/svg" xmlns:xlink="http://www.w3.org/1999/xlink" viewBox="0 0 128 128"><g><g><g><path d="M89.285 26.055c-20.955 0-37.947 16.988-37.947 37.943 0 20.958 16.992 37.947 37.947 37.947 20.954 0 37.947-16.988 37.947-37.947 0-20.955-16.992-37.943-37.947-37.943zm29.376 37.944a29.256 29.256 0 0 1-6.59 18.531L70.753 41.217a29.27 29.27 0 0 1 18.532-6.591c16.222-.001 29.376 13.149 29.376 29.373zm-58.753 0a29.178 29.178 0 0 1 4.674-15.857l40.56 40.564a29.215 29.215 0 0 1-15.856 4.67c-16.225 0-29.378-13.15-29.378-29.377z" fill="#ed6c30"/><g><g><g><g><g><defs><path id="SVGID_1_" d="M106.64 46.869c-3.049-2.793-7.012-4.505-11.104-5.044-.775-.098-2.199-.045-2.688.741-.514.818-.437 1.95-.3 2.847.958 6.401 1.247 12.569-.102 18.958-.223 1.078-.437 2.161-.778 3.209-.305.942-.782 2.361-1.667 2.921-.746.465-1.538-.206-2.065-.688-3.062-2.842-7.439-4.628-11.672-4.031-1.252.172-2.664.571-3.766 1.205-1.14.654-2.491 1.823-3.135 2.991-1.342 2.439-1.613 5.395-.6 7.999.271.716.625 1.452 1.052 2.095 2.33 3.534 6.847 5.102 10.92 5.125 3.529.022 7.233-1.098 9.575-3.871 1.006-1.198 1.744-2.596 2.283-4.053a241.086 241.086 0 0 1 1.896-4.979c.637-1.604 1.099-3.279 1.486-4.962.102-.423.193-.848.271-1.276.33-1.67.54-3.365.667-5.064.065-.811.09-1.626.164-2.44.147-1.667-.144-3.308 2.141-2.991.698.094 1.37.469 1.983.793 1.545.822 2.965 2.017 3.875 3.526 1.054 1.757.894 3.666.254 5.55-.107.321-.18.753-.124 1.09.145.884.734 1.326 1.614 1.186 2.032-.33 4.303-4.448 4.599-6.848.619-4.978-1.147-10.655-4.779-13.989z"/></defs><use xlink:href="#SVGID_1_" overflow="visible" fill="#fcc21b"/><clipPath id="SVGID_2_"><use xlink:href="#SVGID_1_" overflow="visible"/></clipPath></g></g></g></g></g></g></g><g><g><path d="M41.175 21.435c-3.131-1.4-12.266-2.296-18.058-2.296-5.794 0-14.936.896-18.059 2.296C1.997 22.808.767 25.52.767 28.076V99.93c0 2.556 1.23 5.262 4.291 6.637 3.123 1.403 12.266 2.295 18.059 2.295 5.792 0 14.927-.892 18.058-2.295 3.058-1.375 4.291-4.081 4.291-6.637V28.075c-.001-2.555-1.234-5.267-4.291-6.64z" fill="#006ca2"/><path d="M27.228 24.693h-8.216a.768.768 0 0 1 0-1.535h8.216a.77.77 0 0 1 .769.766.77.77 0 0 1-.769.769z" fill="#fff"/><path d="M39.271 24.5a1.48 1.48 0 0 1-1.474 1.473 1.47 1.47 0 0 1-1.469-1.473c0-.811.654-1.469 1.469-1.469.807 0 1.474.658 1.474 1.469z" fill="#fff"/><linearGradient id="SVGID_3_" gradientUnits="userSpaceOnUse" x1="23.119" y1="94.094" x2="23.119" y2="33.527"><stop offset="0" stop-color="#fff"/><stop offset="1" stop-color="#00a0d6"/></linearGradient><path fill="url(#SVGID_3_)" d="M4.821 33.527h36.597v60.567H4.821z"/></g><g fill="#fff"><path d="M11.58 97.168v.518l-1.124-.822 1.124-.831v.523h.653c1.269 0 2.088.373 2.088 1.468 0 1.104-.819 1.473-2.088 1.473h-1.46v-.609h1.46c1.075 0 1.475-.235 1.475-.864 0-.621-.4-.856-1.475-.856h-.653z"/><path d="M25.264 99.293h-4.229v-2.141l2.115-.893 2.114.893v2.141zm-3.616-.615h3.004v-1.116l-1.502-.641-1.502.641v1.116z"/><g><path d="M35.336 99.293H31.79V97.05h3.546v2.243zm-2.933-.615h2.316v-1.012h-2.316v1.012z"/><path d="M36.337 98.029h-.613v-1.321h-2.621v-.617h3.234z"/></g></g></g></g></svg>