<svg id="レイヤー_1" xmlns="http://www.w3.org/2000/svg" xmlns:xlink="http://www.w3.org/1999/xlink" viewBox="0 0 128 128"><g><path d="M20.53 110.508c.214 9.779.815 13.235.874 13.676.147 1.021.481 2.341 1.869 2.92 3.611 1.525 6.202-.606 6.242-2.987.022-1.204.718-2.412.718-13.386l-9.703-.223z" fill="#78a3ad"/><path d="M99.104 110.508c.223 9.779.817 13.235.874 13.676.147 1.021.491 2.341 1.87 2.92 3.602 1.525 6.202-.606 6.242-2.987.019-1.204.718-2.412.718-13.386l-9.704-.223z" fill="#78a3ad"/><g><path d="M83.983.381a6.079 6.079 0 0 0-6.082 6.073c0 1.454.54 2.772 1.387 3.817L66.802 25.66c-.204-.062-.401-.136-.601-.19-.178-.047-.353-.076-.531-.118-.333-.078-.677-.163-1.025-.223-.219-.035-.441-.054-.651-.084-.312-.043-.628-.093-.94-.121-.24-.02-.467-.02-.7-.031-.307-.016-.615-.038-.918-.038l-.049-.002c-.035 0-.081.009-.121.009a21.763 21.763 0 0 0-2.533.184c-.713.096-1.418.216-2.11.391-.044.011-.084.026-.129.038-.258.065-.518.148-.775.225L43.192 10.272c.86-1.046 1.391-2.363 1.391-3.817a6.074 6.074 0 1 0-6.073 6.073c.802 0 1.565-.162 2.27-.445L50.911 27.97c-.184.12-.348.256-.517.383-.139.107-.272.214-.41.323-.549.439-1.07.905-1.556 1.422-.005.009-.005.02-.014.029a13.572 13.572 0 0 0-1.267 1.637c-.098.147-.187.297-.284.45-.371.611-.719 1.244-.986 1.927-.334.834-.366 1.498-.147 2.006.089.206.209.388.338.556.045.055.106.102.157.155.098.103.192.206.303.293.076.056.16.1.236.149.112.071.223.145.343.205.094.046.187.083.291.122.119.054.25.105.379.147.103.036.214.062.326.094.143.036.271.072.423.103.115.022.236.042.353.062.151.024.303.049.46.067.119.014.238.027.369.038.161.013.317.027.477.036l.384.018c.173.007.343.009.518.011.065 0 .128.004.191.004.041 0 .081-.004.121-.004a28.76 28.76 0 0 0 1.292-.034l.232-.011a55.81 55.81 0 0 0 1.231-.076l1.141-.074c.059-.005.12-.007.174-.011.347-.02.656-.031.937-.036.111 0 .241-.002.335 0 1.524.049 3.026.099 4.516.132.388.009.776.007 1.159.016 1.058.018 2.113.04 3.153.04l.138-.002c.945-.002 1.914-.031 2.868-.054.569-.016 1.154-.013 1.733-.038a89.556 89.556 0 0 0 4.687-.308c1.15-.107 2.234.098 2.047-1.329-.402-3.06-2.814-6.156-5.566-8.283L81.714 12.08a6.035 6.035 0 0 0 2.271.445A6.073 6.073 0 0 0 83.983.381z" fill="#78a3ad"/><g><g><defs><path id="SVGID_1_" d="M121.454 105.269c0 5.944-4.861 10.805-10.805 10.805 0 0-26.679 1.868-46.651 1.868-19.967 0-46.655-1.868-46.655-1.868-5.94 0-10.796-4.86-10.796-10.805V47.376c0-5.939 4.856-10.804 10.796-10.804 0 0 16.818-2.042 45.741-2.042 28.913 0 47.565 2.042 47.565 2.042 5.944 0 10.805 4.865 10.805 10.804v57.893z"/></defs><use xlink:href="#SVGID_1_" overflow="visible" fill="#fcc21b"/><clipPath id="SVGID_2_"><use xlink:href="#SVGID_1_" overflow="visible"/></clipPath></g></g></g><path d="M96.268 94.616a18.897 18.897 0 0 1-.566 2.912c-1.958 6.93-7.393 7.875-14.782 8.41-8.311.602-16.695.896-25.038.896-9.065 0-18.13-.375-27.183-1.114-6.665-.544-11.107-2.742-12.526-10.091-2.238-11.558-1.319-24.186-.159-35.851.833-8.459 4.673-12.37 12.713-13.128 8.806-.829 17.689-.999 26.532-.999 9.016 0 18.068.245 27.058.981 4.25.348 9.569.847 12.093 5.043 3.887 6.448 2.727 35.878 1.858 42.941z" fill="#40c0e7"/><path d="M108.807 81.131a6.56 6.56 0 0 1-6.559-6.564 6.56 6.56 0 0 1 6.559-6.563 6.568 6.568 0 0 1 6.569 6.563 6.568 6.568 0 0 1-6.569 6.564z" fill="#fff"/><path d="M108.807 61.726a6.56 6.56 0 0 1-6.559-6.564 6.56 6.56 0 0 1 6.559-6.564 6.568 6.568 0 0 1 6.569 6.564 6.569 6.569 0 0 1-6.569 6.564z" fill="#fff"/></g></svg>