<svg id="レイヤー_1" xmlns="http://www.w3.org/2000/svg" viewBox="0 0 128 128"><g><g><path d="M88.463 6.334C84.221 4.434 71.845 3.223 64 3.223c-7.841 0-20.226 1.211-24.46 3.112-4.15 1.861-5.819 5.536-5.819 8.992v97.346c0 3.457 1.669 7.132 5.819 8.992 4.234 1.9 16.619 3.112 24.46 3.112 7.845 0 20.221-1.212 24.463-3.112 4.147-1.86 5.816-5.535 5.816-8.992V15.327c0-3.456-1.669-7.132-5.816-8.993z" fill="#006ca2"/><path d="M69.571 10.748H58.44a1.037 1.037 0 1 1 0-2.075h11.131c.576 0 1.037.462 1.037 1.037 0 .572-.461 1.038-1.037 1.038z" fill="#fff"/><path d="M85.878 10.489a1.99 1.99 0 1 1-1.99-1.99c1.094 0 1.99.891 1.99 1.99z" fill="#fff"/><linearGradient id="SVGID_1_" gradientUnits="userSpaceOnUse" x1="64" y1="104.767" x2="64" y2="22.714"><stop offset="0" stop-color="#fff"/><stop offset="1" stop-color="#00a0d6"/></linearGradient><path fill="url(#SVGID_1_)" d="M39.215 22.714h49.57v82.052h-49.57z"/></g><g fill="#fff"><path d="M48.374 108.933v.701l-1.529-1.115 1.529-1.122v.706h.878c1.723 0 2.829.506 2.829 1.99 0 1.491-1.106 1.997-2.829 1.997h-1.981v-.83h1.981c1.464 0 1.999-.316 1.999-1.167 0-.844-.535-1.159-1.999-1.159h-.878v-.001z"/><path d="M66.913 111.806H61.18v-2.894l2.868-1.212 2.865 1.212v2.894zm-4.904-.831h4.073v-1.511l-2.034-.863-2.039.863v1.511z"/><g><path d="M80.553 111.806h-4.799v-3.035h4.799v3.035zm-3.967-.831h3.137v-1.373h-3.137v1.373z"/><path d="M81.912 110.095h-.831v-1.791H77.53v-.831h4.382z"/></g></g></g></svg>