<svg id="レイヤー_1" xmlns="http://www.w3.org/2000/svg" viewBox="0 0 128 128"><g><path d="M10.321 57.321c-.842-3.5-.347-6.948 1.113-9.68 1.387-2.601 3.641-4.554 6.492-5.241a9.585 9.585 0 0 1 4.294-.031 10.76 10.76 0 0 1 3.247 1.317c.595.358 1.16.77 1.698 1.238 2.03 1.773 3.604 4.298 4.324 7.288.625 2.568.526 5.112-.143 7.363-.942 3.17-3.046 5.717-5.879 6.971-.509.224-1.021.448-1.582.582-.551.135-1.112.2-1.664.233a9.646 9.646 0 0 1-3.246-.37 10.88 10.88 0 0 1-2.542-1.088c-2.878-1.705-5.19-4.761-6.112-8.582z" fill="#40c0e7"/><path d="M98.286 100.778c0 .456-.113 1.062-.652 1.363l-.031.017-.312.117-38.368 15.963V36.117c0-4.79-3.662-9.358-8.339-10.399l-13.485-3L69.657 9.17a9.734 9.734 0 0 1 1.129-.385c2.078-.578 3.759-.341 4.059-.293h.009c.026.004.058.011.066.011l3.533.787.729.163 3.626.806 10.845 2.414 1.373.306c1.704.382 3.26 2.319 3.26 4.063V42.72l-3.351-.756-.435-.1-2.568-.582-15.466-3.494-4.984-1.129-4.902-1.109a1.814 1.814 0 0 0-1.551.356 1.834 1.834 0 0 0-.691 1.432v43.724c0 .856.596 1.599 1.435 1.789l32.514 7.353v10.574z" fill="#78a3ad"/><path fill="#40c0e7" d="M112.153 82.668l-7.375-1.67-3.25-.734-3.242-.732-22.784-5.154V48.241l22.784 5.154 3.242.732 3.25.735 7.375 1.668z"/><g fill="#2f2f2f"><path d="M22.22 73.939c.818.013 1.634-.016 2.464-.135 0 0 .273-.011.782-.086 1.339-.196 4.424-.891 9.023-3.097.429-.2.816-.378 1.272-.606l.013-.006.004-.002a18.44 18.44 0 0 0 1.027-.578c.087-.053.174-.103.26-.157.122-.074.248-.136.361-.212.195-.13.379-.28.565-.419.109-.076.209-.154.318-.235.291-.224.577-.456.855-.699.092-.081.184-.168.274-.25.238-.222.486-.439.712-.676a17.379 17.379 0 0 0 1.664-2.012c.092-.13.187-.252.28-.382.173-.259.339-.526.5-.793.121-.198.242-.394.352-.598.143-.25.278-.506.408-.767.122-.239.239-.485.347-.732.11-.242.223-.482.318-.73.13-.312.239-.632.348-.952.065-.2.147-.393.205-.595.169-.517.304-1.045.425-1.582.04-.17.065-.345.104-.518.069-.393.138-.788.201-1.19.03-.208.048-.422.074-.632a23.696 23.696 0 0 0 .116-1.79c.01-.409.005-.819-.013-1.234-.003-.189-.003-.378-.014-.567-.04-.604-.095-1.21-.182-1.82-1.247-8.631-7.37-15.195-14.68-16.587a15.343 15.343 0 0 0-3.459-.263 15.31 15.31 0 0 0-1.677.148c-.509.074-1.03.178-1.565.302-.556.126-1.117.276-1.682.441-1.121.328-2.233.71-3.246 1.095a59.925 59.925 0 0 0-4.402 1.869l.009.009-.009.002c-.392.194-.778.409-1.156.635-.044.026-.087.052-.135.078-.361.222-.712.458-1.06.707a19.538 19.538 0 0 0-1.165.925l-.004.006c-1 .867-1.886 1.862-2.672 2.953-.078.107-.162.208-.235.315-.195.285-.378.578-.556.874-.099.167-.204.336-.3.508-.162.278-.312.561-.457.847-.108.209-.203.422-.303.635-.122.274-.248.545-.366.826-.108.271-.203.552-.305.83-.109.319-.221.639-.316.967a22.05 22.05 0 0 0-.344 1.291c-.052.222-.085.448-.129.672-.065.345-.131.691-.178 1.041-.031.234-.066.471-.087.71-.035.354-.066.712-.088 1.074-.009.23-.022.46-.026.695-.014.393-.004.791.009 1.19.008.202.008.402.017.606.039.602.096 1.206.179 1.816 1.221 8.394 7.042 14.812 14.08 16.442a15.8 15.8 0 0 0 3.245.393zM10.321 57.321c-.842-3.5-.347-6.948 1.113-9.68 1.387-2.601 3.641-4.554 6.492-5.241a9.585 9.585 0 0 1 4.294-.031 10.76 10.76 0 0 1 3.247 1.317c.595.358 1.16.77 1.698 1.238 2.03 1.773 3.604 4.298 4.324 7.288.625 2.568.526 5.112-.143 7.363-.942 3.17-3.046 5.717-5.879 6.971-.509.224-1.021.448-1.582.582-.551.135-1.112.2-1.664.233a9.646 9.646 0 0 1-3.246-.37 10.88 10.88 0 0 1-2.542-1.088c-2.878-1.705-5.19-4.761-6.112-8.582z"/><path d="M121.882 48.057l-17.104-3.87v-6.714c.035-.029.079-.058.113-.087.104-.074.2-.147.305-.224.312-.239.616-.489.916-.75.088-.076.174-.158.257-.237a18.341 18.341 0 0 0 2.551-2.887c.082-.113.17-.222.248-.335.186-.28.36-.569.538-.86.118-.195.239-.391.352-.591.152-.272.304-.547.435-.828.126-.243.243-.489.353-.736.122-.263.233-.523.346-.793.123-.313.235-.634.344-.958.079-.217.165-.432.235-.656a23.1 23.1 0 0 0 .443-1.645c.039-.187.066-.378.1-.567.081-.404.157-.81.213-1.221.03-.224.062-.45.078-.674.035-.391.075-.787.095-1.184.014-.229.019-.457.03-.685.005-.428 0-.858-.016-1.291-.004-.198-.004-.394-.018-.593a20.153 20.153 0 0 0-.196-1.906C110.905 6.686 101.632-1.147 91.802.276c-3.382.487-7.562 2.162-9.808 3.146l-4.76-1.059-.946-.211c-.195-.039-1.205-.235-2.716-.235-1.542 0-3.908.217-6.407 1.253L23.867 21.19l-.335.139-.101.042c-.044.017-.075.054-.112.074-2.612 1.271-4.346 3.946-4.346 7.223v1.619a40.966 40.966 0 0 1 3.246-.974c.157-.039.304-.078.461-.113a24.363 24.363 0 0 1 2.182-.426c.204-.029.404-.02.604-.043.157-.018.299-.018.447-.033.601-.054 1.199-.128 1.795-.128a20 20 0 0 1 1.569.08c10.156.811 18.787 9.382 20.407 20.598 1.273 8.813-1.948 17.256-8.175 22.298a20.793 20.793 0 0 1-2.827 1.927c-.248.142-.492.293-.748.426l-.129.072c-.726.369-1.404.688-2.074.999-5.349 2.483-8.821 3.092-10.264 3.234a9.355 9.355 0 0 1-.348.034 20.15 20.15 0 0 1-2.642.179c-.096 0-.17-.011-.257-.014a19.66 19.66 0 0 1-3.246-.317v34.322c0 4.794 3.663 9.36 8.334 10.397l21.867 4.872a9.05 9.05 0 0 0 1.925.215c1.183 0 2.255-.281 3.234-.72.017-.007.03-.005.052-.011l.161-.062 45.064-18.761a6.57 6.57 0 0 0 .878-.36 3.1 3.1 0 0 0 .634-.359c2.295-1.432 3.655-3.959 3.655-6.84v-9.106l16.296 3.685.413.046a1.837 1.837 0 0 0 1.829-1.834V49.845a1.833 1.833 0 0 0-1.434-1.788zm-23.596 52.721c0 .456-.113 1.062-.652 1.363l-.031.017-.312.117-38.368 15.963V36.117c0-4.79-3.662-9.358-8.339-10.399l-13.485-3L69.657 9.17a9.734 9.734 0 0 1 1.129-.385c2.078-.578 3.759-.341 4.059-.293h.009c.026.004.058.011.066.011l3.533.787.729.163 3.626.806 10.845 2.414 1.373.306c1.704.382 3.26 2.319 3.26 4.063V42.72l-3.351-.756-.435-.1-2.568-.582-15.466-3.494-4.984-1.129-4.902-1.109a1.814 1.814 0 0 0-1.551.356 1.834 1.834 0 0 0-.691 1.432v43.724c0 .856.596 1.599 1.435 1.789l32.514 7.353v10.574zm13.867-18.11l-7.375-1.669-3.25-.734-3.242-.732-22.785-5.154V48.241l22.785 5.154 3.242.732 3.25.734 7.375 1.668v26.139z"/></g><path d="M36.053 94.507c-2.178.204-4.142-1.702-4.386-4.255-.234-2.555 1.343-4.789 3.529-4.993 2.183-.204 4.151 1.701 4.39 4.254.238 2.556-1.343 4.79-3.533 4.994z" fill="#ed6c30"/></g></svg>