<svg id="レイヤー_1" xmlns="http://www.w3.org/2000/svg" viewBox="0 0 128 128"><path d="M1.613 64.698c0 34.065 27.618 61.688 61.69 61.688s61.68-27.623 61.68-61.688c0-34.066-27.608-61.69-61.68-61.69-34.073 0-61.69 27.624-61.69 61.69z" fill="#fff"/><g><path d="M64 128C28.71 128 0 99.289 0 64 0 28.71 28.711 0 64 0s64 28.71 64 64c0 35.289-28.71 64-64 64zm0-117.113c-29.287 0-53.114 23.827-53.114 53.113 0 29.287 23.827 53.113 53.114 53.113S117.113 93.287 117.113 64 93.287 10.887 64 10.887z" fill="#db4437"/></g><g><g><path d="M83.222 20.329C80.053 18.911 70.783 18 64.913 18c-5.871 0-15.147.911-18.321 2.329-3.102 1.396-4.348 4.145-4.348 6.735V99.94c0 2.593 1.246 5.34 4.348 6.733 3.174 1.423 12.45 2.327 18.321 2.327 5.871 0 15.14-.904 18.31-2.327 3.106-1.393 4.356-4.14 4.356-6.733V27.065c0-2.591-1.251-5.34-4.357-6.736z" fill="#006ca2"/><path d="M71.75 24.635H58.069a1.28 1.28 0 0 1 0-2.558H71.75c.71 0 1.282.577 1.282 1.279 0 .709-.572 1.279-1.282 1.279z" fill="#fff"/><path d="M81.288 23.438c0 .823-.671 1.495-1.491 1.495a1.491 1.491 0 1 1 0-2.985c.82 0 1.491.669 1.491 1.49z" fill="#fff"/><path fill="#fff" d="M47 33h36v60H47z"/></g><g fill="#fff"><path d="M53.205 97.142v.526l-1.138-.837 1.138-.84v.527h.667c1.284 0 2.119.382 2.119 1.491 0 1.117-.835 1.493-2.119 1.493h-1.484v-.618h1.484c1.094 0 1.488-.237 1.488-.875 0-.632-.395-.868-1.488-.868h-.667v.001z"/><path d="M67.092 99.294h-4.297v-2.169l2.155-.906 2.142.906v2.169zm-3.675-.62h3.052v-1.133l-1.519-.651-1.532.651v1.133z"/><g><path d="M77.305 99.294h-3.593v-2.275h3.593v2.275zm-2.977-.62h2.346v-1.029h-2.346v1.029z"/><path d="M78.32 98.013h-.621v-1.338H75.04v-.627h3.28z"/></g></g></g><g><g><g><path fill="#db4437" d="M111.731 102.588L103.304 111 17 25.274l8.427-8.413z"/></g></g></g></svg>