<svg id="レイヤー_1" xmlns="http://www.w3.org/2000/svg" viewBox="0 0 128 128"><path fill="#1a6ca2" d="M112.372 78.437l-26.909 9.221v11.677l26.909 10.759z"/><path d="M28.335 116.643a6.188 6.188 0 0 1-6.181-6.181V60.094a6.188 6.188 0 0 1 6.181-6.181h60.601a6.188 6.188 0 0 1 6.181 6.181v50.367a6.188 6.188 0 0 1-6.181 6.181H28.335z" fill="#40c0e7"/><path d="M116.283 75.578a4.064 4.064 0 0 1 4.064 4.064v29.248a4.064 4.064 0 1 1-8.128 0V79.642a4.064 4.064 0 0 1 4.064-4.064z" fill="#1a6ca2"/><path d="M80.935 121H36.349a3.744 3.744 0 0 1-3.744-3.744v-.004a3.744 3.744 0 0 1 3.744-3.744h44.586a3.744 3.744 0 0 1 3.744 3.744v.004A3.744 3.744 0 0 1 80.935 121z" fill="#1a6ca2"/><path d="M21.477 67.53h37.269a7.488 7.488 0 0 1 7.488 7.488v19.636a7.488 7.488 0 0 1-7.488 7.488H21.477a7.488 7.488 0 0 1-7.488-7.488V75.018a7.487 7.487 0 0 1 7.488-7.488z" fill="#1a6ca2"/><path d="M79.736 74.606h8.963c3.545 0 6.419 2.633 6.419 5.88v30.277c0 3.247-2.874 5.88-6.419 5.88h-8.963c-3.545 0-6.419-2.633-6.419-5.88V80.486c0-3.247 2.874-5.88 6.419-5.88z" fill="#1a6ca2"/><circle cx="84.063" cy="105.021" r="3.16" fill="#ed6c30"/><circle cx="84.063" cy="94.537" r="3.16" fill="#40c0e7"/><g><g><path d="M94.504 8.118c-17.671 0-31.996 14.325-31.996 31.996S76.833 72.11 94.504 72.11 126.5 57.785 126.5 40.114 112.175 8.118 94.504 8.118zm0 56.415c-13.486 0-24.418-10.932-24.418-24.418s10.932-24.418 24.418-24.418 24.418 10.932 24.418 24.418-10.932 24.418-24.418 24.418z" fill="#1a6ca2"/><g><circle cx="94.504" cy="40.114" r="24.418" fill="#fff"/><path d="M94.504 29.068c-6.101 0-11.046 4.946-11.046 11.046S88.404 51.16 94.504 51.16s11.046-4.946 11.046-11.046-4.945-11.046-11.046-11.046zm0 15.979a4.933 4.933 0 1 1 0-9.866 4.933 4.933 0 0 1 0 9.866z" fill="#1a6ca2"/><circle cx="94.504" cy="40.114" r="4.933" fill="#fff"/></g></g><path fill="#1a6ca2" d="M89.571 12.347l3.101 19.733h3.946l2.819-19.733z"/><path fill="#1a6ca2" d="M119.327 26.781l-17.759 9.146 1.24 3.746 19.619-3.525z"/><path fill="#1a6ca2" d="M114.837 59.71l-14.164-14.085-3.183 2.332 9.388 17.584z"/><path fill="#1a6ca2" d="M82.096 65.553l9.066-17.8-3.196-2.315-13.86 14.326z"/><path fill="#1a6ca2" d="M66.489 36.251l19.73 3.122 1.214-3.755-17.908-8.755z"/></g><g><g><path d="M27.154 25.3c-14.282 0-25.86 11.578-25.86 25.86s11.578 25.86 25.86 25.86 25.86-11.578 25.86-25.86S41.436 25.3 27.154 25.3zm0 45.596c-10.9 0-19.736-8.836-19.736-19.736s8.836-19.736 19.736-19.736S46.89 40.261 46.89 51.161s-8.836 19.735-19.736 19.735z" fill="#1a6ca2"/><g><circle cx="27.154" cy="51.161" r="19.736" fill="#fff"/><path d="M27.154 42.233c-4.931 0-8.928 3.997-8.928 8.928s3.997 8.928 8.928 8.928 8.928-3.997 8.928-8.928-3.997-8.928-8.928-8.928zm0 12.915a3.987 3.987 0 1 1 0-7.974 3.987 3.987 0 0 1 0 7.974z" fill="#1a6ca2"/><circle cx="27.154" cy="51.161" r="3.987" fill="#fff"/></g></g><path fill="#1a6ca2" d="M23.167 28.718l2.506 15.949h3.19l2.279-15.949z"/><path fill="#1a6ca2" d="M47.217 40.385l-14.354 7.391 1.003 3.028 15.857-2.849z"/><path fill="#1a6ca2" d="M43.588 66.998L32.141 55.614 29.567 57.5l7.589 14.211z"/><path fill="#1a6ca2" d="M17.126 71.721l7.327-14.387-2.583-1.871-11.202 11.579z"/><path fill="#1a6ca2" d="M4.512 48.038l15.946 2.523.981-3.035L6.966 40.45z"/></g></svg>