<svg id="レイヤー_1" xmlns="http://www.w3.org/2000/svg" viewBox="0 0 128 128"><g fill="#006ca2"><path d="M121.986 21.29h-7.577a4.701 4.701 0 0 0-4.686 4.685v89.805a4.699 4.699 0 0 0 4.686 4.686h7.577a4.694 4.694 0 0 0 4.682-4.686V25.975c0-2.573-2.104-4.685-4.682-4.685z"/><path d="M96.597 49.368h-7.573c-2.581 0-4.685 2.112-4.685 4.687v61.725a4.696 4.696 0 0 0 4.685 4.686h7.573c2.582 0 4.691-2.107 4.691-4.686V54.055c0-2.576-2.109-4.687-4.691-4.687z"/><path d="M71.217 70.878H63.64c-2.579 0-4.685 2.112-4.685 4.687v40.216a4.697 4.697 0 0 0 4.685 4.686h7.577a4.698 4.698 0 0 0 4.686-4.686V75.564a4.7 4.7 0 0 0-4.686-4.686z"/><path d="M73.048 21.29H5.132c-2.089 0-3.801 1.713-3.801 3.809v6.152c0 .162.028.319.046.476.033.295-.396 2.822 1.643 5.336l27.598 33.994v44.723a4.699 4.699 0 0 0 4.685 4.686h7.578a4.698 4.698 0 0 0 4.686-4.686V71.062l27.597-34c2.04-2.514 1.615-5.042 1.647-5.336l-.005-.004c.023-.157.05-.309.05-.471v-6.152a3.818 3.818 0 0 0-3.808-3.809zM19.124 35.057h11.494v14.158L19.124 35.057zm28.443 14.168V35.057h11.497L47.567 49.225z"/></g></svg>