<svg id="レイヤー_1" xmlns="http://www.w3.org/2000/svg" viewBox="0 0 128 128"><g><g><g><g><path d="M35.523 21.244l4.811 92.474c0 7.816 10.599 14.146 23.666 14.146 13.066 0 23.661-6.331 23.661-14.146l4.815-92.474H35.523z" fill="#ed6c30"/></g><ellipse cx="64" cy="20.429" rx="22.381" ry="12.123" fill="#fff"/><path d="M64 4.216c-15.726 0-28.477 7.619-28.477 17.027 0 9.404 12.751 17.019 28.477 17.019 15.722 0 28.476-7.615 28.476-17.019 0-9.408-12.754-17.027-28.476-17.027zm0 28.336c-12.358 0-22.381-5.427-22.381-12.123 0-6.694 10.023-12.12 22.381-12.12s22.38 5.425 22.38 12.12c0 6.696-10.022 12.123-22.38 12.123z" fill="#78a3ad"/></g><g><g><path d="M75.128 10.222C72.157 8.655 68.269 7.704 64 7.704c-4.273 0-8.158.951-11.129 2.518h-5.742v7.155h.034c-.008.136-.034.273-.034.415 0 5.57 7.552 10.082 16.871 10.082 9.087 0 16.473-4.298 16.831-9.681l.034.004v-7.974h-5.737z" fill="#999"/></g><g><path d="M75.128 10.222C72.157 8.655 68.269 7.704 64 7.704c-4.273 0-8.158.951-11.129 2.518h-5.742v7.155h.034c-.008.136-.034.273-.034.415 0 5.57 7.552 10.082 16.871 10.082 9.087 0 16.473-4.298 16.831-9.681l.034.004v-7.974h-5.737z" fill="#78a3ad"/></g><path d="M74.954 9.739c0 3.275-4.905 5.93-10.954 5.93s-10.954-2.655-10.954-5.93c0-3.278 4.904-5.933 10.954-5.933 6.048 0 10.954 2.655 10.954 5.933z" fill="#fff"/><path d="M64 .135c-9.319 0-16.871 4.512-16.871 10.086 0 5.571 7.552 10.083 16.871 10.083 9.314 0 16.865-4.512 16.865-10.083C80.865 4.648 73.314.135 64 .135zm0 15.534c-6.049 0-10.954-2.655-10.954-5.93 0-3.278 4.904-5.933 10.954-5.933 6.048 0 10.954 2.655 10.954 5.933 0 3.275-4.906 5.93-10.954 5.93z" fill="#78a3ad"/></g><path d="M74.91 52.432c-.833-1.852-3.026-2.254-4.845-2.392-.674-.051-1.724.15-1.861-.785-.052-.345-.086-.696-.12-1.046-.056-.525-.077-1.063-.171-1.583-.153-.901-.695-1.908-1.434-2.643-.491-.491-1.076-.858-1.69-.986-.97-.202-2.075-.099-2.988.312-1.887.854-2.254 3.094-2.395 4.934-.025.368-.021.731-.047 1.093-.017.253-.093.487-.323.623a.752.752 0 0 1-.316.107c-.273.035-.538.065-.811.09-.401.038-.812.055-1.212.12-.939.148-2.096.529-2.839 1.097-.641.482-1.216 1.144-1.417 1.912-.27 1.046-.256 2.232.252 3.21.965 1.84 3.112 2.181 4.981 2.322.461.034 1.114-.089 1.49.248.247.226.239.653.277.957.055.503.124 1.002.2 1.502.154.943.533 2.096 1.102 2.843.482.636 1.144 1.217 1.912 1.413 1.046.274 2.229.261 3.21-.251 1.836-.96 2.177-3.107 2.322-4.977.026-.355-.008-.756.077-1.098.145-.62.888-.576 1.375-.631a34.183 34.183 0 0 0 1.956-.274c.904-.157 1.912-.699 2.642-1.434.491-.496.858-1.077.986-1.69.204-.975.102-2.08-.313-2.993z" fill="#fff"/><path d="M72.785 113.308c.423-.423.738-.922.85-1.451a4.272 4.272 0 0 0-.273-2.574c-.952-2.117-3.884-2.019-5.827-2.156-3.252-.234-6.608-.208-9.835.304-.807.128-1.802.457-2.442.943-.551.414-1.045.982-1.217 1.643-.234.9-.222 1.921.218 2.763.824 1.579 2.672 1.874 4.282 1.998 3.825.29 8.183.426 11.969-.235.781-.139 1.647-.599 2.275-1.235z" fill="#fff"/></g></g></svg>