<svg id="レイヤー_1" xmlns="http://www.w3.org/2000/svg" viewBox="0 0 128 128"><g><g><path d="M63.981 33.907C47.425 33.907 34 47.328 34 63.885c0 16.56 13.425 29.979 29.981 29.979s29.977-13.419 29.977-29.979c-.001-16.557-13.421-29.978-29.977-29.978zm0 47.451c-9.651 0-17.476-7.825-17.476-17.474 0-9.652 7.825-17.472 17.476-17.472 9.637 0 17.471 7.819 17.471 17.472 0 9.649-7.834 17.474-17.471 17.474z" fill="#fcc21b"/></g><path d="M71.028 14.976a2.92 2.92 0 0 0-2.912-2.921H59.85a2.926 2.926 0 0 0-2.921 2.921v8.119a2.93 2.93 0 0 0 2.921 2.921h8.266a2.926 2.926 0 0 0 2.912-2.921v-8.119z" fill="#fcc21b"/><path d="M34.313 24.355a2.932 2.932 0 0 0-4.136 0l-5.847 5.842a2.935 2.935 0 0 0 0 4.132l5.743 5.742a2.932 2.932 0 0 0 4.136 0l5.843-5.842a2.925 2.925 0 0 0 0-4.13l-5.739-5.744z" fill="#fcc21b"/><path d="M14.978 56.96a2.933 2.933 0 0 0-2.926 2.921v8.267a2.932 2.932 0 0 0 2.921 2.921h8.125a2.934 2.934 0 0 0 2.916-2.921v-8.262a2.927 2.927 0 0 0-2.916-2.921l-8.12-.005z" fill="#fcc21b"/><path d="M24.358 93.684a2.932 2.932 0 0 0-.004 4.133l5.847 5.846a2.926 2.926 0 0 0 4.131 0l5.743-5.744a2.939 2.939 0 0 0 0-4.134l-5.838-5.838a2.938 2.938 0 0 0-4.135 0l-5.744 5.737z" fill="#fcc21b"/><path d="M56.957 113.018a2.937 2.937 0 0 0 2.927 2.924l8.265.004a2.927 2.927 0 0 0 2.922-2.916l-.005-8.129a2.932 2.932 0 0 0-2.921-2.921h-8.257c-1.607 0-2.931 1.318-2.931 2.921v8.117z" fill="#fcc21b"/><path d="M93.683 103.638a2.93 2.93 0 0 0 4.135 0l5.848-5.842a2.925 2.925 0 0 0 0-4.13l-5.748-5.744c-1.143-1.138-3.002-1.138-4.131 0l-5.837 5.837a2.937 2.937 0 0 0-.009 4.133l5.742 5.746z" fill="#fcc21b"/><path d="M113.017 71.035a2.928 2.928 0 0 0 2.926-2.916l.004-8.271a2.929 2.929 0 0 0-2.921-2.921h-8.128a2.932 2.932 0 0 0-2.921 2.921v8.26a2.936 2.936 0 0 0 2.926 2.923l8.114.004z" fill="#fcc21b"/><path d="M103.637 34.31a2.925 2.925 0 0 0 0-4.13l-5.843-5.854a2.93 2.93 0 0 0-4.135 0l-5.738 5.749a2.927 2.927 0 0 0 .003 4.134l5.834 5.84a2.933 2.933 0 0 0 4.131 0l5.748-5.739z" fill="#fcc21b"/></g></svg>