<svg id="レイヤー_1" xmlns="http://www.w3.org/2000/svg" viewBox="0 0 128 128"><g fill="#40c0e7"><path d="M9.354 42.034c7.021.017 13.685 1.608 20.368 4.863 5.859 2.884 11.688 7.076 17.334 12.476.521-.571 1.042-1.146 1.554-1.729a120.552 120.552 0 0 1 7.076-7.446c-5.659-4.976-11.405-8.863-17.522-11.872-8.896-4.396-18.73-6.721-28.535-6.721-.95 0-1.876.042-2.792.083l-1.829.083v10.455l2.022-.121a43.09 43.09 0 0 1 2.324-.071z"/><path d="M89.668 48.297c1.83-.896 3.65-1.65 5.472-2.292v15.792l27.852-22.51L95.14 16.783V34.7a64.921 64.921 0 0 0-13.918 5.013c-9.888 4.871-18.959 12.122-27.743 22.172-7.642 8.763-15.634 15.23-23.76 19.218-6.68 3.263-13.343 4.854-20.364 4.871-.771 0-1.554-.033-2.324-.079l-2.022-.117v10.459l1.829.087c.916.034 1.842.076 2.792.076h.1c9.684 0 19.518-2.317 28.435-6.717 9.884-4.867 18.951-12.118 27.731-22.172 7.637-8.767 15.63-15.23 23.772-19.214z"/><path d="M95.14 82.008a52.628 52.628 0 0 1-5.472-2.3c-5.358-2.634-10.726-6.384-15.951-11.176a97.147 97.147 0 0 0-2.95 3.217A112.66 112.66 0 0 1 65.2 77.7c5.191 4.371 10.442 7.842 16.021 10.592a65.405 65.405 0 0 0 13.918 5.004v17.922l27.852-22.51-27.851-22.51v15.81z"/></g></svg>