<svg id="レイヤー_1" xmlns="http://www.w3.org/2000/svg" xmlns:xlink="http://www.w3.org/1999/xlink" viewBox="0 0 128 128"><g><g><g><path d="M27.867 65.048c0-6.969 5.672-12.642 12.642-12.642 6.978 0 12.649 5.672 12.649 12.642v13.356h12.523V65.048c0-13.874-11.291-25.165-25.172-25.165-13.874 0-25.161 11.291-25.161 25.165v13.356h12.519V65.048z" fill="#78a3ad"/><g><defs><path id="SVGID_1_" d="M53.158 78.404v.159H27.867v-.159H15.348v.159h-1.583a5.402 5.402 0 0 0-5.407 5.402v36.979a5.407 5.407 0 0 0 5.407 5.407h53.492a5.406 5.406 0 0 0 5.407-5.407V83.965a5.402 5.402 0 0 0-5.407-5.402h-1.575v-.159H53.158z"/></defs><use xlink:href="#SVGID_1_" overflow="visible" fill="#fcc21b"/><clipPath id="SVGID_2_"><use xlink:href="#SVGID_1_" overflow="visible"/></clipPath></g><path d="M46.229 98.909a5.715 5.715 0 0 0-5.712-5.708 5.71 5.71 0 0 0-2.154 10.997l-.123.538-1.845 7.863h8.235l-1.845-7.863-.122-.538a5.715 5.715 0 0 0 3.566-5.289z" fill="#2f2f2f"/></g></g><g><g><g><path d="M96.566 117.402c2.061 2.571 5.378 7.696 5.411 7.749.404.636 1.461.636 1.873 0 .037-.053 3.354-5.178 5.407-7.753 3.668-4.607 9.495-14.339 8.071-21.59-1.028-5.251-2.628-7.345-3.917-9.026-1.094-1.428-1.885-2.457-2.134-5.129a1.118 1.118 0 0 0-1.106-1.012h-14.51c-.579 0-1.057.437-1.114 1.012-.253 2.672-1.041 3.701-2.134 5.125-1.29 1.682-2.889 3.779-3.921 9.031-1.425 7.25 4.41 16.982 8.074 21.593z" fill="#fff"/><path d="M102.908 127.717c-1.11 0-2.118-.539-2.693-1.444-.033-.049-3.293-5.088-5.276-7.565-1.077-1.354-10.426-13.466-8.5-23.3 1.134-5.762 2.975-8.157 4.317-9.903 1.008-1.314 1.514-1.971 1.714-4.048a3.197 3.197 0 0 1 3.191-2.905h14.51a3.196 3.196 0 0 1 3.183 2.885c.196 2.089.702 2.75 1.714 4.069 1.354 1.775 3.191 4.178 4.313 9.903 1.93 9.854-7.418 21.945-8.492 23.292-1.159 1.453-3.004 4.097-5.195 7.451-.02.029-.134.204-.159.232-.514.799-1.522 1.333-2.627 1.333zm-6.39-44.988c-.408 2.656-1.399 3.954-2.444 5.316-1.216 1.584-2.591 3.371-3.53 8.162-1.281 6.508 4.452 15.857 7.663 19.893 1.469 1.844 3.558 4.938 4.709 6.672 1.415-2.139 3.326-4.946 4.705-6.676 3.212-4.027 8.94-13.368 7.66-19.888-.935-4.762-2.31-6.561-3.522-8.149-1.057-1.375-2.048-2.673-2.452-5.329H96.518z" fill="#2f2f2f"/></g><g><g><g><path d="M96.812 116.798c1.983 2.465 5.17 7.369 5.198 7.422.392.608 1.408.608 1.804 0 .041-.053 3.228-4.957 5.199-7.426 3.533-4.412 9.132-13.731 7.769-20.677-.996-5.027-2.534-7.03-3.771-8.642-1.053-1.371-1.812-2.354-2.053-4.913a1.074 1.074 0 0 0-1.065-.971H95.938c-.555 0-1.016.42-1.069.971-.245 2.559-1.004 3.542-2.053 4.909-1.244 1.608-2.783 3.62-3.774 8.646-1.367 6.945 4.244 16.265 7.77 20.681z" fill="#fcc21b"/></g><path d="M107.723 84.688c.604 2.114 1.583 3.391 2.477 4.558 1.139 1.486 2.31 3.024 3.154 7.341 1.061 5.395-3.763 13.895-7.268 18.289-.935 1.171-2.093 2.807-3.17 4.387-1.037-1.518-2.22-3.183-3.179-4.383-3.501-4.403-8.329-12.911-7.271-18.293.853-4.342 2.024-5.864 3.162-7.345.89-1.163 1.869-2.444 2.473-4.554h9.622m2.448-4.048h-14.51c-.579 0-1.057.437-1.114 1.012-.253 2.672-1.041 3.701-2.134 5.125-1.29 1.682-2.889 3.779-3.921 9.031-1.424 7.251 4.411 16.983 8.075 21.594 2.061 2.571 5.378 7.696 5.411 7.749.2.318.567.477.93.477.367 0 .734-.159.942-.477.037-.053 3.354-5.178 5.407-7.753 3.668-4.607 9.495-14.339 8.071-21.59-1.028-5.251-2.628-7.345-3.917-9.026-1.094-1.428-1.885-2.457-2.134-5.129a1.118 1.118 0 0 0-1.106-1.013z" fill="#2f2f2f"/><path d="M98.688 100.076a4.224 4.224 0 0 1 4.219-4.231 4.23 4.23 0 0 1 4.236 4.228 4.23 4.23 0 0 1-4.228 4.228 4.23 4.23 0 0 1-4.227-4.225z" fill="#2f2f2f"/><g><path d="M101.414 102.622l-.004 21.668c.343.522.551.845.567.861.404.636 1.461.636 1.873 0 .008-.017.225-.339.567-.861l-.004-21.671-2.999.003z" fill="#2f2f2f"/></g></g><g fill="#2f2f2f"><path d="M90.511 85.006c.008-1.371 5.558-2.485 12.396-2.481 6.847 0 12.405 1.106 12.401 2.481 0 1.371-5.545 2.481-12.393 2.481-6.846-.004-12.404-1.11-12.404-2.481z"/><path d="M90.519 53.207l24.79.008v31.791H90.511z"/></g><g><defs><path id="SVGID_3_" d="M102.916 60.87c7.688 0 13.923-1.249 13.923-2.791V28.368c0-12.951-3.362-28.086-13.931-28.086-10.561 0-13.923 14.886-13.923 28.086v29.719c.004 1.534 6.251 2.783 13.931 2.783z"/></defs><use xlink:href="#SVGID_3_" overflow="visible" fill="#2f2f2f"/><clipPath id="SVGID_4_"><use xlink:href="#SVGID_3_" overflow="visible"/></clipPath><g clip-path="url(#SVGID_4_)"><defs><path id="SVGID_5_" d="M111.122 49.155l-.004-34.424c3.464-.506 5.721-1.317 5.721-2.244V7.856c0 1.069-3.012 1.999-7.427 2.465l-2.51.204a65.767 65.767 0 0 1-3.986.118c-7.688 0-13.927-1.253-13.931-2.787l.004 4.631c-.004 1.534 6.239 2.783 13.918 2.783.571 0 1.126-.008 1.681-.02l.004 34.423c-.551.017-1.11.024-1.677.024-7.688 0-13.931-1.249-13.931-2.791l.004 4.624c0 1.546 6.239 2.791 13.918 2.795.571 0 1.134-.008 1.685-.024l.004 5.888 6.529-.531v-5.876c3.456-.506 5.713-1.322 5.713-2.248v-4.627c.002.921-2.255 1.742-5.715 2.248z"/></defs><use xlink:href="#SVGID_5_" overflow="visible" fill="#fcc21b"/><clipPath id="SVGID_6_"><use xlink:href="#SVGID_5_" overflow="visible"/></clipPath></g></g></g></g></g></g></svg>