<svg id="レイヤー_1" xmlns="http://www.w3.org/2000/svg" xmlns:xlink="http://www.w3.org/1999/xlink" viewBox="0 0 128 128"><g><g><g><g><g><defs><path id="SVGID_1_" d="M116.019 117.896c-.094-.868-.442-1.829-1.037-2.929a38.656 38.656 0 0 0-3.68-5.621c-8.161-10.361-22.496-14.604-35.178-12.033-4.172.845-8.102 2.384-12.158 3.613-5.281 1.596-10.271 3.108-15.225 3.773-8.496 1.141-15.499.023-19.456-3.801-8.791-8.482.747-20.095 11.765-21.856 9.046-1.449 12.565-.729 22.107 1.126 5.473 1.064 12.278 2.388 21.23 3.34 29.226 3.116 40.387-7.061 43.146-28.403 1.06-8.268-.787-15.311-5.353-20.368-4.985-5.522-12.681-8.192-22.867-7.932-1.131.026-23.185.241-23.185.241V38.94s22.429-.667 23.479-.697c4.602-.116 10.781.51 14.076 4.163 2.849 3.161 2.929 7.856 2.495 11.241-2.544 20.032-17.313 19.889-30.58 18.476-8.46-.899-14.725-2.115-20.261-3.193-10.302-2.003-17.751-3.452-29.078-.711-14.42 3.488-24.262 15.614-22.889 28.219.59 5.402 3.3 10.128 7.825 13.674 6.909 5.411 17.233 7.521 29.074 5.929 5.866-.787 11.532-2.504 17.014-4.167 4.619-1.4 9.252-3.568 14.13-3.832 5.433-.291 10.978.832 15.472 3.689 4.382 2.79 7.534 7.682 9.35 10.736 1.153 1.932 5.303 1.44 7.279.009 2.492-1.799 2.586-3.815 2.505-4.58z"/></defs><use xlink:href="#SVGID_1_" overflow="visible" fill="#f79329"/><clipPath id="SVGID_2_"><use xlink:href="#SVGID_1_" overflow="visible"/></clipPath><path d="M43.236 4.258s1.856 4.333.979 7.811c-.536 2.142-.662 4.355-.805 6.551-.59 9.229-.805 18.691-.496 27.929.139 4.235-1.588 10.763-1.588 10.763l1.909 4.007s11.782-.134 13.759-.273c11.51-.818 19.344-3.778 23.824-15.409.139-.188.304-.367.546-.519 2.352-1.489 6.962-.027 9.184-1.896 2.499-2.097 2.388-7.038 2.522-8.777.224-2.987-.13-6.328-1.44-9.14-.523-1.123-1.422-2.531-2.647-2.906-1.878-.586-3.152-.26-5.08-.608-.679-.121-1.341-.34-1.842-.868-.416-.438-1.905-3.134-2.334-4.1-1.297-2.894-3.488-6.587-9.399-8.92-8.057-3.18-27.092-3.645-27.092-3.645z" clip-path="url(#SVGID_2_)" fill="#ed6c30"/></g><path d="M36.569 4.258s1.86 4.333.979 7.811c-.536 2.142-.666 4.355-.8 6.551-.595 9.229-.805 18.691-.5 27.929.138 4.235-1.588 10.763-1.588 10.763l1.909 4.007s11.787-.134 13.754-.273c11.51-.818 19.348-3.778 23.829-15.409.139-.188.309-.367.546-.519 2.352-1.489 6.962-.027 9.184-1.896 2.499-2.097 2.388-7.038 2.518-8.777.228-2.987-.126-6.328-1.44-9.14-.519-1.123-1.417-2.531-2.638-2.906-1.882-.586-3.157-.26-5.08-.608-.688-.121-1.351-.34-1.847-.868-.416-.438-1.9-3.134-2.334-4.1-1.292-2.894-3.488-6.587-9.404-8.92-8.053-3.18-27.088-3.645-27.088-3.645z" fill="#fcc21b"/></g></g></g><path d="M36.569 4.258H24.93a7.255 7.255 0 0 0-7.248 7.248V54.07c0 3.998 3.25 7.249 7.248 7.249h11.639c3.998 0 7.253-3.251 7.253-7.249V11.506c0-3.997-3.255-7.248-7.253-7.248z" fill="#fcc21b"/><path d="M39.816 54.07a3.254 3.254 0 0 1-3.247 3.242H24.93a3.25 3.25 0 0 1-3.242-3.242V11.506a3.25 3.25 0 0 1 3.242-3.242h11.639a3.254 3.254 0 0 1 3.247 3.242V54.07z" fill="#fff"/><g><g><g><g><defs><path id="SVGID_3_" d="M2.121 17.296a1.953 1.953 0 0 0-1.945 1.95v2.688c0 1.069.876 1.945 1.945 1.945H36.02v-6.582H2.121z"/></defs><use xlink:href="#SVGID_3_" overflow="visible" fill="#78a3ad"/><clipPath id="SVGID_4_"><use xlink:href="#SVGID_3_" overflow="visible"/></clipPath></g></g></g><g><g><g><defs><path id="SVGID_5_" d="M2.121 41a1.953 1.953 0 0 0-1.945 1.949v2.688c0 1.069.876 1.945 1.945 1.945H36.02V41H2.121z"/></defs><use xlink:href="#SVGID_5_" overflow="visible" fill="#78a3ad"/><clipPath id="SVGID_6_"><use xlink:href="#SVGID_5_" overflow="visible"/></clipPath></g></g></g></g></g></svg>