<svg id="レイヤー_1" xmlns="http://www.w3.org/2000/svg" viewBox="0 0 128 128"><g fill="#40c0e7"><g><path d="M107.575 61.973c.104.763.167 1.529.167 2.321 0 10.9-8.871 19.772-19.772 19.772H62.11a27.23 27.23 0 0 1-3.843 10.463H87.97c16.676 0 30.239-13.56 30.239-30.235 0-3.367-.566-6.688-1.688-9.893l-8.946 7.572z"/><path d="M21.949 55.736c3.079-6.942 10.021-11.801 18.08-11.801h53.399v17.863l27.852-22.51-27.851-22.505v16.685h-53.4c-14.905 0-27.293 10.851-29.761 25.061a29.748 29.748 0 0 0-.587 5.767c0 1.392.125 2.746.309 4.088a27.696 27.696 0 0 1 11.959-12.648z"/></g><path d="M34.904 58.236c-12.01 0-21.785 9.775-21.785 21.793 0 12.014 9.775 21.789 21.785 21.789 12.018 0 21.793-9.775 21.793-21.789 0-12.018-9.775-21.793-21.793-21.793zm6.367 36.048c0 .226-.18.413-.413.413H29.767a.414.414 0 0 1-.413-.413v-5.221c0-.229.184-.413.413-.413h2.146V73.371l-2.779.8a.431.431 0 0 1-.362-.066.416.416 0 0 1-.163-.331v-5.5c0-.195.134-.362.321-.404l9.288-1.991a.418.418 0 0 1 .346.083c.096.075.15.191.15.316V88.65h2.146a.41.41 0 0 1 .413.413v5.221z"/></g></svg>