<svg id="レイヤー_1" xmlns="http://www.w3.org/2000/svg" viewBox="0 0 128 128"><g fill="#40c0e7"><path d="M11.083 60.566l12.263.809c-1.228 18.742 10.455 35.803 28.414 41.477 9.451 2.977 19.627 2.352 28.619-1.607L67.09 87.051l36.932 1.234-3.125 34.877-11.789-12.592c-7.804 4.199-16.43 6.445-25.147 6.445a52.914 52.914 0 0 1-15.901-2.441c-23.376-7.381-38.581-29.59-36.977-54.008z"/><path d="M76.245 25.146c-9.455-2.982-19.643-2.357-28.636 1.601l13.289 14.191-36.932-1.221 3.129-34.881L38.855 17.4c12.584-6.787 27.406-8.291 41.085-3.979 23.364 7.367 38.573 29.568 36.978 54.004l-12.263-.801c1.225-18.759-10.459-35.817-28.41-41.478z"/></g></svg>