<svg id="レイヤー_1" xmlns="http://www.w3.org/2000/svg" viewBox="0 0 128 128"><g><g><path d="M64 33.941c-16.556 0-29.98 13.422-29.98 29.978C34.02 80.479 47.444 93.9 64 93.9s29.977-13.422 29.977-29.981c0-16.556-13.421-29.978-29.977-29.978zm0 47.454c-9.65 0-17.476-7.824-17.476-17.476S54.349 46.447 64 46.447c9.638 0 17.472 7.819 17.472 17.472 0 9.651-7.834 17.476-17.472 17.476z" fill="#fcc21b"/></g><path d="M71.048 4.16a2.921 2.921 0 0 0-2.912-2.921H59.87a2.926 2.926 0 0 0-2.922 2.921v18.97a2.93 2.93 0 0 0 2.922 2.92h8.266a2.926 2.926 0 0 0 2.912-2.92V4.16z" fill="#fcc21b"/><path d="M26.678 16.694a2.935 2.935 0 0 0-4.135.004L16.7 22.54a2.931 2.931 0 0 0 .005 4.133l13.411 13.415a2.925 2.925 0 0 0 4.13 0l5.843-5.842a2.93 2.93 0 0 0 0-4.135L26.678 16.694z" fill="#fcc21b"/><path d="M4.161 56.943a2.932 2.932 0 0 0-2.922 2.921v8.267a2.934 2.934 0 0 0 2.927 2.921l18.965-.005a2.93 2.93 0 0 0 2.926-2.923l-.005-8.26a2.93 2.93 0 0 0-2.921-2.921H4.161z" fill="#fcc21b"/><path d="M16.7 101.322a2.934 2.934 0 0 0 .005 4.135l5.843 5.844a2.938 2.938 0 0 0 4.13 0l13.411-13.422a2.923 2.923 0 0 0 0-4.13l-5.843-5.844a2.933 2.933 0 0 0-4.134.004L16.7 101.322z" fill="#fcc21b"/><path d="M56.948 123.837a2.933 2.933 0 0 0 2.927 2.924h8.261c1.603 0 2.912-1.318 2.912-2.924v-18.979a2.931 2.931 0 0 0-2.922-2.921l-8.262.01a2.926 2.926 0 0 0-2.92 2.923l.004 18.967z" fill="#fcc21b"/><path d="M101.327 111.294a2.935 2.935 0 0 0 4.132 0l5.842-5.842a2.923 2.923 0 0 0 0-4.13L97.88 87.905a2.928 2.928 0 0 0-4.13.004l-5.839 5.845a2.93 2.93 0 0 0 0 4.134l13.416 13.406z" fill="#fcc21b"/><path d="M123.839 71.047a2.932 2.932 0 0 0 2.922-2.923v-8.26a2.929 2.929 0 0 0-2.922-2.921h-18.974a2.932 2.932 0 0 0-2.922 2.921l.005 8.271a2.929 2.929 0 0 0 2.922 2.921l18.969-.009z" fill="#fcc21b"/><path d="M111.296 26.668a2.925 2.925 0 0 0 0-4.132l-5.848-5.842a2.926 2.926 0 0 0-4.125 0L87.906 30.116a2.93 2.93 0 0 0 .005 4.13l5.843 5.842a2.925 2.925 0 0 0 4.13 0l13.412-13.42z" fill="#fcc21b"/></g></svg>