<svg id="レイヤー_1" xmlns="http://www.w3.org/2000/svg" viewBox="0 0 128 128"><path d="M64.002 3.687C30.693 3.687 3.686 30.693 3.686 64c0 33.314 27.008 60.316 60.316 60.316 33.314 0 60.312-27.002 60.312-60.316 0-33.308-26.997-60.313-60.312-60.313z" fill="#006ca2"/><g><g fill="#fff"><path d="M81.065 18.767c-7.089 0-12.132 13.14-13.796 31.258 4.749.04 7.949 6.672 7.949 14.854 0 7.982-3.779 14.473-7.663 14.826 1.901 16.679 6.785 28.505 13.51 28.505C85.924 108.21 94 88.191 94 63.497c0-24.711-8.076-44.73-12.935-44.73z"/><path d="M58.088 63.497c0-21.717 5.983-39.873 14.024-44.731h-3.028c-3.116 0-9.4 9.093-13.179 22.571L44.618 55.503c-1.34.202-2.679.526-4.034.832-.52-5.732-1.697-9.728-3.895-10.049.094-.011-.286-.04-.286-.04h-7.537c-4.08 0-7.388 8.278-7.388 18.498s3.308 18.511 7.388 18.511h7.537s.38-.031.286-.049c2.235-.319 3.417-4.457 3.922-10.357l4.007 1.146 12.95 16.349s.104.042.24.073c4.011 10.805 9.231 17.792 10.8 17.792h3.496c-8.041-4.849-14.016-23.005-14.016-44.712z"/></g></g><g><path d="M64 128C28.71 128 0 99.289 0 64 0 28.71 28.711 0 64 0s64 28.71 64 64c0 35.289-28.71 64-64 64zm0-117.113c-29.287 0-53.114 23.827-53.114 53.113 0 29.287 23.827 53.113 53.114 53.113S117.113 93.287 117.113 64 93.287 10.887 64 10.887z" fill="#db4437"/></g><g><g><g><path fill="#db4437" d="M111.731 102.588L103.304 111 17 25.274l8.427-8.413z"/></g></g></g></svg>