<svg id="レイヤー_1" xmlns="http://www.w3.org/2000/svg" viewBox="0 0 128 128"><g><g><path d="M64.794 15.502c-7.702 0-13.177 14.261-14.983 33.935 5.156.044 8.629 7.243 8.629 16.126 0 8.662-4.102 15.716-8.319 16.099 2.063 18.109 7.367 30.95 14.672 30.95 5.271 0 14.039-21.736 14.039-48.553.002-26.82-8.767-48.557-14.038-48.557z" fill="#2f2f2f"/><path d="M39.842 64.059c0-23.575 6.497-43.286 15.228-48.557h-3.289c-3.383 0-10.207 9.867-14.309 24.509L25.219 55.385c-1.455.221-2.909.573-4.38.902-.564-6.226-1.843-10.565-4.229-10.908.103-.012-.311-.044-.311-.044H8.115c-4.429 0-8.021 8.991-8.021 20.09 0 11.088 3.591 20.094 8.021 20.094H16.299s.413-.033.311-.049c2.427-.352 3.71-4.847 4.258-11.253l4.351 1.247 14.06 17.749s.114.044.265.077c4.352 11.733 10.019 19.321 11.727 19.321h3.792c-8.733-5.266-15.221-24.98-15.221-48.552z" fill="#78a3ad"/><path d="M84.93 44.929c2.966 4.292 4.724 11.236 4.724 19.069 0 7.829-1.757 14.775-4.724 19.064l4.728 4.762c4.225-5.418 6.647-14 6.647-23.826 0-9.835-2.423-18.414-6.647-23.825l-4.728 4.756z" fill="#40c0e7"/><path d="M102.516 27.225l-4.846 4.878c4.608 7.728 7.305 19.173 7.305 31.896 0 12.72-2.697 24.161-7.301 31.898l4.842 4.88c5.826-8.847 9.12-21.931 9.12-36.778-.001-14.846-3.29-27.928-9.12-36.774z" fill="#40c0e7"/><path d="M115.831 13.815l-4.858 4.891c6.488 11.122 10.276 27.331 10.276 45.292 0 17.966-3.788 34.179-10.276 45.293l4.858 4.895c7.637-12.226 12.074-30.341 12.074-50.187 0-19.853-4.437-37.963-12.074-50.184z" fill="#40c0e7"/></g></g></svg>