<svg id="レイヤー_1" xmlns="http://www.w3.org/2000/svg" xmlns:xlink="http://www.w3.org/1999/xlink" viewBox="0 0 128 128"><g><g><path d="M35.086 101.544l18.968-18.959c18.007 13.788 43.862 12.487 60.345-3.987 17.929-17.938 17.929-47.022 0-64.964-17.946-17.928-47.026-17.928-64.968 0-16.474 16.48-17.771 42.335-3.987 60.342L26.473 92.931l8.613 8.613z" fill="#78a3ad"/><path d="M56.262 71.772c-14.161-14.183-14.161-37.145 0-51.306 14.183-14.161 37.133-14.17 51.302 0 14.161 14.161 14.161 37.132 0 51.306-14.16 14.161-37.119 14.161-51.302 0z" fill="#fff"/></g><g><g><g><g><defs><path id="SVGID_1_" d="M4.688 123.268c4.399 4.416 10.117 5.862 12.754 3.229l25.531-25.587c6.204-6.204-9.473-22.473-15.975-15.97L1.472 110.526c-2.638 2.633-1.191 8.343 3.216 12.742z"/></defs><use xlink:href="#SVGID_1_" overflow="visible" fill="#f79329"/><clipPath id="SVGID_2_"><use xlink:href="#SVGID_1_" overflow="visible"/></clipPath><path d="M16.772 125.769c-.175-2.041-1.507-4.451-2.366-5.809-2.567-4.066-5.796-7.44-10.621-8.724-4.903-1.306-5.389 2.384-4.219 6.117 1.415 4.513 4.219 7.9 8.36 10.274.973.561 2.256 1.354 3.382 1.521 2.73.394 5.749.043 5.464-3.379z" clip-path="url(#SVGID_2_)" fill="#855c52"/></g></g></g></g></g></svg>