<svg id="レイヤー_1" xmlns="http://www.w3.org/2000/svg" xmlns:xlink="http://www.w3.org/1999/xlink" viewBox="0 0 128 128"><g><g><path d="M101.527 92.931L82.556 73.977C96.34 55.97 95.043 30.114 78.569 13.635c-17.941-17.928-47.021-17.928-64.968 0-17.929 17.943-17.929 47.026 0 64.964 16.483 16.475 42.338 17.775 60.346 3.987l18.967 18.958 8.613-8.613z" fill="#78a3ad"/><path d="M20.435 71.772c-14.161-14.173-14.161-37.145 0-51.306 14.17-14.17 37.119-14.161 51.303 0 14.16 14.16 14.16 37.123 0 51.306-14.183 14.161-37.141 14.161-51.303 0z" fill="#fff"/></g><g><g><g><g><defs><path id="SVGID_1_" d="M126.528 110.527L101.001 84.94c-6.502-6.503-22.178 9.766-15.974 15.97l25.531 25.587c2.638 2.633 8.355 1.187 12.754-3.229 4.408-4.399 5.853-10.108 3.216-12.741z"/></defs><use xlink:href="#SVGID_1_" overflow="visible" fill="#f79329"/><clipPath id="SVGID_2_"><use xlink:href="#SVGID_1_" overflow="visible"/></clipPath><path d="M111.228 125.769c.175-2.041 1.507-4.451 2.366-5.809 2.568-4.066 5.797-7.44 10.621-8.723 4.903-1.306 5.389 2.383 4.219 6.116-1.415 4.513-4.219 7.901-8.36 10.275-.972.562-2.256 1.354-3.382 1.521-2.73.393-5.749.042-5.464-3.38z" clip-path="url(#SVGID_2_)" fill="#855c52"/></g></g></g></g></g></svg>