<svg id="レイヤー_1" xmlns="http://www.w3.org/2000/svg" viewBox="0 0 128 128"><g fill="#40c0e7"><path d="M107.58 61.973c.095.763.157 1.529.157 2.32 0 10.901-8.866 19.772-19.768 19.772H34.57V66.198L6.719 88.712l27.852 22.505V94.529H87.97c16.672 0 30.239-13.559 30.239-30.235 0-3.366-.566-6.687-1.688-9.892l-8.941 7.571z"/><path d="M20.411 66.027a18.447 18.447 0 0 1-.154-2.316c0-10.9 8.876-19.776 19.776-19.776h53.396v17.864l27.852-22.511-27.852-22.505v16.685H40.033c-16.676 0-30.239 13.567-30.239 30.243 0 3.358.559 6.68 1.684 9.889l8.933-7.573z"/></g></svg>