<svg id="レイヤー_1" xmlns="http://www.w3.org/2000/svg" viewBox="0 0 128 128"><g><g><path d="M83.961 15.503c-7.702 0-13.181 14.264-14.983 33.938 5.157.044 8.629 7.243 8.629 16.125 0 8.662-4.102 15.716-8.318 16.099 2.067 18.109 7.367 30.951 14.672 30.951 5.27 0 14.039-21.737 14.039-48.553 0-26.824-8.769-48.56-14.039-48.56z" fill="#2f2f2f"/><path d="M59.008 64.063c0-23.575 6.497-43.286 15.228-48.561h-3.289c-3.387 0-10.211 9.87-14.309 24.508L44.385 55.39c-1.458.22-2.905.572-4.38.902-.568-6.227-1.843-10.566-4.233-10.909.106-.012-.307-.044-.307-.044h-8.183c-4.429 0-8.021 8.987-8.021 20.086 0 11.093 3.592 20.098 8.021 20.098h8.183s.413-.031.307-.052c2.427-.349 3.714-4.844 4.262-11.25l4.352 1.247 14.059 17.75s.115.044.266.076c4.352 11.736 10.015 19.322 11.726 19.322h3.796c-8.736-5.266-15.225-24.981-15.225-48.553z" fill="#78a3ad"/></g></g></svg>