<svg id="レイヤー_1" xmlns="http://www.w3.org/2000/svg" viewBox="0 0 128 128"><g fill="#40c0e7"><path d="M66.027 107.581a18.66 18.66 0 0 1-2.32.157c-10.901 0-19.772-8.866-19.772-19.768V34.571h17.868L39.288 6.719 16.783 34.571h16.688V87.97c0 16.672 13.559 30.239 30.235 30.239 3.366 0 6.688-.566 9.892-1.688l-7.571-8.94z"/><path d="M61.973 20.412a18.447 18.447 0 0 1 2.316-.154c10.9 0 19.776 8.876 19.776 19.776V93.43H66.202l22.511 27.852 22.505-27.852H94.533V40.034c0-16.676-13.567-30.239-30.243-30.239-3.358 0-6.68.559-9.889 1.684l7.572 8.933z"/></g></svg>