<svg id="レイヤー_1" xmlns="http://www.w3.org/2000/svg" viewBox="0 0 128 128"><path d="M1.898 64.415c0 34.065 27.618 61.688 61.69 61.688s61.68-27.623 61.68-61.688c0-34.066-27.608-61.69-61.68-61.69s-61.69 27.624-61.69 61.69z" fill="#006ca2"/><g fill="#fff"><path d="M95.999 61.13c3.306-3.542 5.266-8.357 5.266-13.913C101.265 35.508 92.634 27 80.748 27c-11.89 0-20.517 8.508-20.517 20.216 0 3.663.846 7.011 2.365 9.881a18.407 18.407 0 0 0 2.9 4.033c-2.622 2.248-4.655 5.108-5.945 8.423-1.022 2.624-1.579 5.534-1.579 8.649 0 13.002 9.578 22.444 22.775 22.444 3.029 0 5.865-.524 8.444-1.455 3.66-1.307 6.796-3.469 9.183-6.306 3.254-3.852 5.147-8.914 5.147-14.683.002-7.064-2.834-13.046-7.522-17.072zm-27.278 17.4c0-4.517 1.904-8.271 4.966-10.435 1.841-1.311 4.087-2.036 6.597-2.036 6.694 0 11.563 5.247 11.563 12.472 0 2.33-.558 4.436-1.478 6.25C88.458 88.559 84.818 91 80.284 91c-1.855 0-3.55-.447-5.063-1.173-2.162-1.059-3.878-2.802-5.007-5.022-.935-1.814-1.493-3.933-1.493-6.275zm12.027-20.531c-.259 0-.491.028-.737.028-5.508-.382-9.443-4.813-9.443-10.911 0-6.354 4.276-10.978 10.18-10.978 5.899 0 10.181 4.624 10.181 10.978 0 6.098-3.935 10.529-9.444 10.911-.253 0-.492-.028-.737-.028z"/><path d="M53 85h-4l-.095-55.95a.907.907 0 0 0-.331-.714.912.912 0 0 0-.765-.216L27 35c-.45.075-.398.692-.398 1.151v11.921c0 .278.118.534.32.707.199.18.471.265.739.236L36 47v38h-5c-.524 0-1 .475-1 1v12c0 .523.476 1 1 1h22.058c.525 0 .942-.42.942-.943V86c0-.525-.475-1-1-1z"/></g><g><g><g><path fill="#db4437" d="M111.366 102.588L102.939 111 16.634 25.274l8.428-8.413z"/></g></g></g><g><path d="M64 128C28.71 128 0 99.289 0 64 0 28.71 28.711 0 64 0s64 28.71 64 64c0 35.289-28.71 64-64 64zm0-117.113c-29.287 0-53.114 23.827-53.114 53.113 0 29.287 23.827 53.113 53.114 53.113S117.113 93.287 117.113 64 93.287 10.887 64 10.887z" fill="#db4437"/></g></svg>