<svg id="レイヤー_1" xmlns="http://www.w3.org/2000/svg" viewBox="0 0 128 128"><g><g><g><g><g><path d="M30.782 86.032s8.445 25.444 13.265 30.871c3.4 3.83 8.669 8.16 22.456 5.261 0 0 10.77-1.203 24.119-11.458 0 0 8.096-5.223 8.938-15.38.637-7.637.854-36.447.854-36.447s-1.271-7.182-12.873-7.182c-11.609 0-27.696 7.594-39.867 14.729-12.179 7.141-16.892 19.606-16.892 19.606z" fill="#fcc21b"/></g><path d="M42.657 69.53c10.965-7.123 20.887-11.262 27.534-14.075 0 0 15.903-7.123 24.619-1.76 0 0 10.387 7.65-8.019 19.367-18.25 11.615-30.396 16-30.396 16s-15.707 6.315-22.107-2.524c-4.011-5.546.906-12.154 8.369-17.008z" fill="#fff"/><path d="M45.186 93.967c-5.806 0-10.336-2.014-13.099-5.835-1.674-2.308-2.286-4.981-1.776-7.722.829-4.471 4.688-9.146 10.863-13.157 10.917-7.098 20.892-11.313 27.497-14.109l.463-.196c.31-.136 8.967-3.969 17.385-3.969 3.855 0 7.128.808 9.716 2.401.068.038.127.081.191.127 1.56 1.152 4.16 4.22 4.016 8.448-.17 5.181-4.275 10.366-12.188 15.402-18.292 11.645-30.42 16.081-30.931 16.264-.154.064-5.908 2.346-12.137 2.346zm41.333-39.549c-7.237 0-15.137 3.485-15.218 3.519l-.51.222c-6.426 2.715-16.137 6.82-26.652 13.654-4.777 3.103-7.942 6.685-8.482 9.592-.238 1.296.025 2.419.837 3.536 1.721 2.38 4.645 3.587 8.691 3.587 5.192 0 10.148-1.968 10.199-1.985.208-.081 12.214-4.488 29.949-15.775 6.128-3.902 9.566-7.807 9.677-10.994.068-2.142-1.436-3.562-1.755-3.838-1.705-1.007-3.974-1.518-6.736-1.518z" fill="#fcc21b"/></g></g><g><g><path d="M51.322 82.646c-4.934 2.677-8.067.832-10.14-1.246-2.087-2.086-9.316-13.106-11.883-22.141-4.385-15.423-1.657-36.243 21.522-46.29C85.27-1.952 91.257 28.171 91.432 37.329c.153 8.13-1.007 20.799-1.56 23.064-.387 1.59-.587 3.557-4.509 5.203-1.964.824-5.754.19-7.017-1.696-2.915-4.348 6.72-48.189-21.075-34.547-25.477 12.503-3.425 45.873-3.425 45.873s2.423 4.738-2.524 7.42z" fill="#78a3ad"/></g></g></g><path d="M81.295 91.357c-1.172-2.227-4.84-2.286-8.198-.127-3.349 2.159-5.112 5.72-3.943 7.947.803 1.525 2.779 2.01 5.01 1.492l-.927 6.957 7.476-3.906-2.626-4.955c2.857-2.176 4.293-5.346 3.208-7.408z" fill="#2f2f2f"/></g></svg>