<svg id="レイヤー_1" xmlns="http://www.w3.org/2000/svg" xmlns:xlink="http://www.w3.org/1999/xlink" viewBox="0 0 128 128"><g><path d="M42.988 9.464c2.603 5.159.522 11.464-4.651 14.062-5.165 2.603-11.464.522-14.067-4.647-2.612-5.165-.522-11.469 4.648-14.072 5.172-2.603 11.467-.518 14.07 4.657z" fill="#fff"/><g><g><path d="M114.017 54.104c-2.327-2.94-5.525-5.106-8.946-7.052-2.68-1.52-5.116-2.94-8.065-4.732-4.125-2.508-7.876-5.751-11.325-8.981-2.036-1.914-3.999-3.891-5.966-5.872-4.004-4.024-8.146-8.19-12.875-11.77-5.746-4.348-12.968-6.748-20.398-6.847-.131-.312-.211-.638-.365-.943A13.875 13.875 0 0 0 33.622.234a14 14 0 0 0-6.264 1.49c-6.656 3.354-9.411 11.348-6.417 18.086-2 2.235-5.606 6.657-7.146 11.116-1.256 3.643-1.941 7.987-1.923 12.229.022 5.809.378 11.628.725 17.256.49 8.042 1 16.354.5 24.536-.049.802-.112 1.685-.18 2.625-.337 4.523-.725 10.285-.023 15.606.496 5.441 2.419 10.672 6.737 15.53 11.883 10.785 37.852 14.043 66.554-2.046 26.477-14.842 30.98-30.73 33.272-41.02 1.607-7.228.203-14.417-5.44-21.538z" fill="#fcc21b"/><g><g><defs><path id="SVGID_1_" d="M92.818 62.773c-10.789.367-23.987 4.69-36.123 11.647-10.857 6.24-19.561 13.872-24.816 21.48-4.602 6.74-5.89 12.79-3.656 16.686 2.35 4.084 9.379 6.697 18.399 6.838 10.068.176 21.664-2.682 31.993-7.915 10.925-5.526 20.205-13.518 26.1-22.539 5.237-7.997 6.938-15.666 4.426-20.36-2.157-4.047-7.997-6.116-16.323-5.837z"/></defs><use xlink:href="#SVGID_1_" overflow="visible" fill="#2f2f2f"/><clipPath id="SVGID_2_"><use xlink:href="#SVGID_1_" overflow="visible"/></clipPath><g clip-path="url(#SVGID_2_)"><defs><path id="SVGID_3_" d="M85.815 71.393c4.269 8.487.852 18.85-7.646 23.123-8.498 4.277-18.854.86-23.136-7.642-4.274-8.493-.856-18.85 7.642-23.132 8.502-4.278 18.854-.855 23.14 7.651z"/></defs><use xlink:href="#SVGID_3_" overflow="visible" fill="#fcc21b"/><clipPath id="SVGID_4_"><use xlink:href="#SVGID_3_" overflow="visible"/></clipPath><path d="M78.791 61.787c3.593 1.216 5.706 5.553 5.836 7.615-5.989-3.116-14.495-.407-20.115 4.525-5.444 4.779-7.907 12.046-7.334 16.199-6.196-2.513-8.389-14.207-3.738-17.686l25.351-10.653z" clip-path="url(#SVGID_4_)" fill="#b89278"/></g><g clip-path="url(#SVGID_2_)"><path d="M72.375 83.416a5.38 5.38 0 0 1-2.386 7.227 5.385 5.385 0 0 1-4.845-9.618 5.385 5.385 0 0 1 7.231 2.391z" fill="#fff"/></g></g></g></g></g><g><path d="M30.475 7.897a7.007 7.007 0 0 1 6.768.261c.369.288.626.689.41 1.189-.153.371-.532.585-.955.749a33.728 33.728 0 0 0-5.625 2.114c-.635.277-1.256.588-1.873.833-.959.383-2.076 1.09-2.189-.4-.004-.088.055-.61.14-1.09.612-1.53 1.738-2.86 3.324-3.656z" fill="#2f2f2f"/></g><path d="M31.393 50.906c-4.057-13.519-4.3-22.211-2.675-28.178.208-.759.108-1.715-.77-1.013-1.829 1.464-4.863 4.087-6.169 6.326-.365.622-.581 1.283-.743 1.973 0 0-2.324 7.252-.595 16.858 1.612 9.006 4.246 22.568 1.41 39.425-.194 1.126-.149 2.819.684 1.843 2.085-2.443 6.237-7.255 9.74-10.932.203-.214.725-1.042.887-1.835.653-3.144 1.91-12.189-1.769-24.467z" fill="#fff"/></g></svg>