<svg id="レイヤー_1" xmlns="http://www.w3.org/2000/svg" xmlns:xlink="http://www.w3.org/1999/xlink" viewBox="0 0 128 128"><g><g><g><defs><path id="SVGID_1_" d="M6.194 1.186c-.867.128-1.634.758-2.272 1.315-.529.462-.996.996-1.472 1.515-.404.448-.81.9-1.205 1.353C.407 6.33-.299 7.259.24 8.579c.21.514.519.981.819 1.448.59.914 1.252 1.772 1.876 2.662.015.024.039.048.052.071 1.067 1.443 2.287 2.777 3.482 4.111 2.795 3.086 5.597 6.173 8.569 9.088.857.843 1.724 1.672 2.601 2.496 3.305 3.086 6.73 6.049 10.317 8.826a88.05 88.05 0 0 0 6.254 4.435c.486.314.929.695 1.5.733 1.577.096 4.463-2.306 5.03-3.744.214-.557.066-1.343-.372-1.758-.258-.243-.547-.452-.814-.671-6.974-5.859-13.751-12.185-19.872-19.024a117.974 117.974 0 0 1-8.874-11.189c-.994-1.423-1.88-3.186-3.152-4.386-.314-.314-.715-.524-1.162-.515-.1 0-.2.01-.3.024z"/></defs><use xlink:href="#SVGID_1_" overflow="visible" fill="#fcc21b"/><clipPath id="SVGID_2_"><use xlink:href="#SVGID_1_" overflow="visible"/></clipPath><path d="M24.07 21.954s2.61 7.07.096 12.274l4.757 10.105 10.366 1.829 8.536-13.82-11.586-14.023-12.169 3.635z" clip-path="url(#SVGID_2_)" fill="#f79329"/></g><g><g><defs><path id="SVGID_3_" d="M85.229 127.307c-1.9 0-4.287-1.263-7.093-3.758-.805-.705-1.619-1.401-2.553-2.201-9.202-7.873-30.741-26.307-47.561-55.635-3.634-6.339-9.502-20.348-9.75-21.562-.243-1.186.062-2.091.929-2.777L45.218 20.85c.043-.043.486-.414 1.19-.414.924 0 1.929.662 2.911 1.919 3.396 4.354 16.023 19.768 36.206 35.377 8.392 6.482 24.825 16.176 33.814 20.986l1.2.639c4.697 2.51 6.84 3.657 7.264 4.734.438 1.105-.1 2.305-1.805 4.011-4.435 4.43-25.96 26.493-33.119 33.895-.158.162-.353.386-.586.647-1.296 1.449-3.987 4.469-6.811 4.659l-.253.004zM40.432 33.438c-1.42 0-2.848.409-4.139 1.19-3.949 2.391-5.578 7.469-3.634 11.317 1.186 2.353 3.463 3.753 6.097 3.753 1.701 0 3.377-.576 4.853-1.667 3.587-2.657 4.816-7.55 2.801-11.131-1.215-2.167-3.449-3.462-5.978-3.462z"/></defs><use xlink:href="#SVGID_3_" overflow="visible" fill="#40c0e7"/><clipPath id="SVGID_4_"><use xlink:href="#SVGID_3_" overflow="visible"/></clipPath></g><g><defs><path id="SVGID_5_" d="M33.049 1.038a.551.551 0 0 0-.101-.066C32.496.73 31.91.662 31.395.705c-.895.066-1.791.19-2.677.357-.662.129-1.333.2-1.996.333-3 .601-2.319 3.811-2.338 6.116a64.312 64.312 0 0 0 2.653 18.81c.843 2.873 1.853 5.717 3.072 8.45.915 2.046 2.034 4.297 3.773 5.805.266.23.547.442.843.636.457.295.899.576 1.419.457.947-.215 1.896-.729 2.648-1.349.243-.204.476-.462.738-.643.172-.114.367-.152.529-.267 1.808-1.248-.448-3.963-1.139-5.178-1.429-2.51-2.372-5.197-3.102-7.983-.495-1.919-.885-3.862-1.228-5.815a82.707 82.707 0 0 1-.744-5.525 81.465 81.465 0 0 1-.367-5.273 62.327 62.327 0 0 1 .005-5.097c.046-.971.436-2.805-.435-3.501z"/></defs><use xlink:href="#SVGID_5_" overflow="visible" fill="#fcc21b"/><clipPath id="SVGID_6_"><use xlink:href="#SVGID_5_" overflow="visible"/></clipPath><path d="M33.64 40.35s1.205.707 2.88-.283c1.678-.991 4.163-3.013 3.083-4.754l2.71.867.99 5.182-3.276 3.125-4.878-.229-1.509-3.908z" clip-path="url(#SVGID_6_)" fill="#f79329"/></g></g></g><path d="M95.775 77.454c1.301 5.598 2.172 16.646-3.119 28.98-.805 1.876.762 2.351 1.605 1.581 2.391-2.179 18.105-18.412 18.105-18.412s3.939-3.156.785-4.956c-2.362-1.351-11.125-6.509-15.365-9.005-1.41-.83-2.463-.135-2.011 1.812z" fill="#fff"/></g></svg>