<svg id="レイヤー_1" xmlns="http://www.w3.org/2000/svg" viewBox="0 0 128 128"><g><g><path d="M57.156 86.687c-.297.357-.59.719-.893 1.062-.357.411-.746.874-1.167 1.367-.646.769-1.355 1.611-2.106 2.459.055.151.109.297.156.448.036.101.064.196.096.297.083.274.156.545.215.806.023.105.051.206.068.312.069.343.123.678.151.998.124 1.611-.283 3.548-.896 5.434 3.858-3.434 7.186-7.575 9.085-9.96l.375-.472c.315-.398.636-.806.961-1.214-.097-.004-.193-.004-.289-.009-2.203-.114-4.044-.691-5.756-1.528z" fill="#78a3ad"/><path d="M28.063 95.887c.385 1.474 1.172 2.696 2.151 3.776.838.934 1.799 1.775 2.755 2.591.009.004.018.013.027.019.174.146.375.297.595.448.073.045.161.096.238.146.169.11.343.216.535.321.096.06.211.119.321.174.041.024.087.046.132.064.142.077.289.15.439.224.124.06.252.115.375.17.156.072.311.137.467.201 1.712-2.225 2.861-4.349 3.227-6.82v-.01c.05-.375.114-.741.132-1.135a3.46 3.46 0 0 1-.192-.146 6.584 6.584 0 0 1-1.515-1.763 5.014 5.014 0 0 1-.682-2.349c-.009-.32 0-.649.055-.993.265-1.707 1.149-3.272 2.179-4.714a46.298 46.298 0 0 1 1.671-2.165c.453-.559.906-1.112 1.364-1.666.004-.006.004-.01.014-.014a85.164 85.164 0 0 1 3.881-4.418c.911-.961 1.831-1.895 2.815-2.778 1.722-1.551 3.639-3.19 5.841-4.004a3.763 3.763 0 0 1 1.286-.229c.032 0 .064-.019.092-.019.022 0 .041.01.059.01a3.5 3.5 0 0 1 .553.055c.083.018.166.018.247.036.197.046.385.119.573.197.063.022.132.037.192.069.333.159.614.406.888.667l.206.042c.206.04.412.082.609.123.031.01.068.019.105.028.352.077.673.146.998.214.156.032.302.061.453.087.198.032.398.056.59.074.088.014.179.019.266.022.106.009.202.022.312.022.032 0 .064.01.096.01.362 0 .728-.036 1.103-.119.59-.133 1.204-.38 1.886-.792.682-.411 1.327-.91 1.968-1.441.22-.184.43-.367.641-.559-.838-1.831-2.151-3.287-3.63-4.632-.169-.151-.33-.312-.503-.462-.362-.317-.742-.601-1.13-.894-1.662-1.235-3.557-2.202-5.604-2.576-.412-.074-.842-.074-1.263-.115-.349-.031-.687-.087-1.035-.091a8.69 8.69 0 0 0-.604-.006c-.438.01-.874.047-1.309.102-.206.022-.407.041-.609.072-.224.042-.444.115-.673.17-.394.092-.792.155-1.171.293-2.994 1.044-5.616 2.921-7.983 5.045a57.912 57.912 0 0 0-2.746 2.649c-.251.261-.498.535-.751.802-3.908 4.129-7.629 8.92-9.721 14.289-.453 1.173-.86 2.353-1.144 3.58a19.663 19.663 0 0 0-.385 2.38c-.188 1.721-.16 3.47.179 5.24.033.173.089.334.134.498z" fill="#78a3ad"/><path d="M113.012 27.878c-.215-1.112-.622-2.132-1.048-3.143-.439-1.025-.901-2.047-1.199-3.141-.407-1.479-.073-3.108-.783-4.504-1.104-2.174-3.452-3.03-5.231-4.486-1.708-1.396-2.953-3.336-4.926-4.403-.695-.37-1.464-.416-2.169-.764-.412-.206-.759-.39-1.199-.535a4.788 4.788 0 0 0-1.281-.23c-.211-.091-.418-.21-.623-.302-2.93-1.204-5.932-1.812-8.926-1.812-7.667 0-15.064 4.074-20.295 11.186a125.686 125.686 0 0 0-12.199 20.368 261.015 261.015 0 0 1-1.661 3.401c-2.513 5.095-6.92 14.038-8.477 21.133 1.831-1.3 3.845-2.443 6.097-3.227 1.007-.353 2.083-.567 3.176-.715.499-1.362 1.19-2.567 1.813-3.629l.105-.179.325-.558c3.076-5.314 9.484-16.373 13.031-20.73 1.286-1.585 2.871-3.369 4.861-4.573 1.062-.641 2.361-1.351 3.973-1.771a12.331 12.331 0 0 1 3.076-.395c.087 0 .17.014.252.019.022.027.028.06.05.083.888 1.116 3.154 1.473 4.445 1.949.965.356 2.05.604 2.979 1.062 1.021.509 2.014 1.016 2.718 1.904a11.731 11.731 0 0 1 1.781 3.104c.787 2.077.901 4.344.568 6.527-.956 6.275-5.429 12.514-7.896 15.942l-.188.261c-.953 1.318-1.854 2.673-2.81 4.105-2.097 3.136-4.267 6.386-6.973 9.306a79.794 79.794 0 0 1-1.51 1.606c-.087.087-.174.17-.257.257a38.828 38.828 0 0 1-1.656 1.598 26.116 26.116 0 0 1-1.821 1.496c-.5.375-1.012.741-1.542 1.067-1.483.897-3.804 1.991-5.539 1.209-.742-.339-1.365-.943-2.06-1.364-1.039-.623-2.197-1.186-3.351-1.562-.6-.196-1.254-.622-1.932-.585-1.099.059-2.783 1.382-3.482 2.155-.741.82-1.388 2.059-1.405 3.167-.023 1.369.613 1.831 1.711 2.646 1.319.979 2.949 1.428 4.385 2.233 1.557.87 3.588 1.657 5.406 1.396 1.68-.242 3.318-.37 5.021-.554a18.426 18.426 0 0 0 2.737-.467c.334-.082.663-.201.998-.302a20.853 20.853 0 0 0 1.84-.65c3.763-1.569 7.327-4.274 11.438-7.945 4.449-3.964 8.385-8.35 12.555-12.991l.7-.777c2.518-2.801 4.87-6.042 7.146-9.182a288.369 288.369 0 0 1 2.646-3.616 54.852 54.852 0 0 0 2.174-3.159c3.165-4.963 5.576-10.955 4.432-16.929z" fill="#78a3ad"/><path d="M68.673 87.799c.046-.01.1-.014.142-.023.426-.082.852-.16 1.268-.265-.412.104-.842.174-1.264.256-.047.014-.096.022-.146.032z" fill="#8cd5f5"/><path d="M65.418 88.174c.165-.005.334.005.499-.005a22.5 22.5 0 0 0 1.012-.096c-.321.037-.659.046-.994.069-.169.013-.343.027-.517.032z" fill="#8cd5f5"/><path d="M20.236 110.189c-.105.02-.214.047-.325.038.027.004.055.004.083.004.082 0 .165-.022.242-.042z" fill="#8cd5f5"/><path d="M25.088 113.357c-.045 0-.096-.009-.147-.009.033 0 .07.014.102.014.017 0 .031-.005.045-.005z" fill="#8cd5f5"/><path d="M48.844 90.325c-.215-.44-.453-.87-.696-1.3-.66-1.214-1.854-4.047-3.589-3.873-.622.061-1.479.371-1.958.779-.714.594-1.191 1.565-1.515 2.407-.28.732-.243.741.096 1.359.577 1.021 1.4 1.863 1.937 2.906.512.989.572 1.886.572 3.003 0 .105-.01.21-.01.315a16.978 16.978 0 0 1-.168 2.023c-.005.032-.015.06-.019.087a15.57 15.57 0 0 1-.613 2.477c-.559 1.657-1.374 3.168-2.344 4.6-.059.087-.11.174-.169.257-.444.64-.916 1.259-1.405 1.871-.453.563-.92 1.122-1.4 1.672l-.074.087c-.073.082-.142.164-.215.246-.412.473-.819.972-1.226 1.47-1.469 1.795-3.277 3.986-5.712 5.41a10.543 10.543 0 0 1-3.983 1.342c-.425.055-.846.119-1.308.119-.481 0-.972-.042-1.456-.106-.439-.412-.943-.777-1.291-1.106-.924-.866-1.862-1.753-2.508-2.857-.229-.398-.668-1.033-.724-1.496-.073-.554.307-1.116.39-1.661.068-.477-.083-.843-.083-1.31-.005-1.107.595-2.39 1.047-3.373.541-1.186 1.209-2.312 1.946-3.388.229-.329 2.504-2.952 2.431-3.104a11.607 11.607 0 0 1-1.011-2.997c-.106-.522-.156-1.062-.216-1.593-2.783 3.341-5.286 7.012-6.984 11.03-.527 1.254-.838 2.587-1.245 3.873a27.55 27.55 0 0 1-.366 1.048c-.732 1.886-1.075 4.097-.16 5.982.732 1.511.897 3.245 2.229 4.431.714.632 1.456.732 2.294.732.072.046.132.101.214.146 1.868 1.075 4.11 1.606 6.038 1.606 1.094 0 2.156-.156 3.071-.448.244-.078.467-.196.701-.289 5.452-2.068 9.75-7.351 12.537-11.241.422-.585.796-1.217 1.195-1.826.119-.179.238-.362.352-.545.408-.627.833-1.236 1.218-1.886.545-.924 1.044-1.887 1.543-2.848.223-.438.48-.851.7-1.295 1.528-3.117 2.948-6.683 2.705-10.23-.063-.894-.374-1.714-.768-2.506z" fill="#78a3ad"/><path d="M33.309 107.394c.073-.092.156-.179.229-.274.187-.22.375-.444.558-.655-.188.211-.372.431-.558.65a8.238 8.238 0 0 0-.229.279z" fill="#8cd5f5"/></g><path d="M116.051 23.269c-1.547-5.574-5.168-10.875-9.982-14.798-2.994-2.44-6.335-4.526-9.91-6.001a29.097 29.097 0 0 0-2.532-.905c-.283-.088-.562-.146-.842-.225a28.331 28.331 0 0 0-1.693-.427c-.33-.068-.659-.113-.998-.173-.508-.083-1.016-.17-1.528-.229-.348-.037-.696-.06-1.044-.083-.49-.036-.979-.064-1.47-.073-.142 0-.283-.023-.425-.023-.151 0-.298.027-.449.031-.86.014-1.712.064-2.559.165-.178.019-.352.028-.526.055-.988.133-1.968.329-2.938.577-.229.055-.457.128-.687.192-.791.224-1.579.485-2.348.777-.214.083-.425.157-.636.244-.934.379-1.841.81-2.728 1.29-.183.096-.357.206-.536.312-.741.416-1.464.874-2.173 1.358-.216.151-.435.293-.65.448a34.127 34.127 0 0 0-2.449 1.95c-.109.102-.216.206-.32.308a35.215 35.215 0 0 0-2.01 1.99c-.192.211-.394.422-.581.642a35.142 35.142 0 0 0-2.101 2.572 128.836 128.836 0 0 0-12.615 21.056c-3.313 6.966-10.793 20.651-11.077 30.346a74.617 74.617 0 0 0-1.515 1.516c-4.467 4.601-10.643 11.75-12.702 20.656-.092.394-.142.788-.215 1.187-.009.013-.023.019-.032.031-5.424 5.538-11.283 13.576-12.757 21.317-.8 4.201-1.043 7.749 1.324 11.497 1.125 1.79 3.14 3.84 5.318 4.793-.11-.061-.197-.147-.302-.206.128.077.248.164.38.238a15.765 15.765 0 0 0 2.174.983c.183.064.371.109.554.165.567.183 1.14.344 1.721.463.251.049.499.095.751.137.559.087 1.121.15 1.68.183.22.014.444.032.664.042.101 0 .196.019.302.019.453 0 .897-.061 1.346-.101.251-.019.507-.019.754-.056a12.903 12.903 0 0 0 2.262-.5c6.523-2.091 11.507-7.688 15.379-13.086 1.437-2.014 2.714-4.146 3.909-6.315.027-.019.054-.028.082-.041 6.82-3.694 12.917-11.348 15.846-15.032l.375-.472c1.058-1.323 2.193-2.765 3.273-4.289-.042.01-.096.014-.142.023.05-.01.1-.017.146-.032.421-.082.852-.151 1.264-.256a21.4 21.4 0 0 0 1.647-.504c.444-.142.888-.279 1.314-.443.544-.216 1.071-.468 1.598-.715.402-.191.819-.365 1.217-.577.526-.278 1.044-.594 1.561-.906.375-.224.755-.434 1.125-.677.537-.348 1.058-.723 1.585-1.099.333-.248.677-.472 1.012-.723.577-.436 1.144-.898 1.712-1.36.274-.225.549-.431.824-.659.833-.7 1.662-1.423 2.494-2.164 4.88-4.354 9.219-9.237 13.585-14.094 3.644-4.052 6.771-8.729 10.034-13.096 5.826-7.805 10.155-17.661 6.26-27.223zM27.752 90.151c.082-.801.206-1.597.385-2.38.284-1.228.691-2.407 1.144-3.58 2.092-5.369 5.813-10.16 9.721-14.289.253-.267.5-.541.751-.802a57.912 57.912 0 0 1 2.746-2.649c2.367-2.124 4.989-4.001 7.983-5.045.379-.138.777-.201 1.171-.293.229-.055.449-.128.673-.17.202-.031.403-.05.609-.072.435-.055.87-.092 1.309-.102.202-.004.403-.004.604.006.348.004.686.06 1.035.091.421.041.851.041 1.263.115 2.047.374 3.942 1.341 5.604 2.576.389.293.769.576 1.13.894.173.15.334.311.503.462 1.479 1.345 2.792 2.801 3.63 4.632-.211.191-.421.375-.641.559-.642.531-1.286 1.03-1.968 1.441-.682.412-1.295.659-1.886.792a5.071 5.071 0 0 1-1.103.119c-.032 0-.064-.01-.096-.01-.11 0-.206-.014-.312-.022a2.674 2.674 0 0 1-.266-.022 9.602 9.602 0 0 1-.59-.074 14.33 14.33 0 0 1-.453-.087c-.321-.068-.655-.137-.998-.214l-.105-.028a46.582 46.582 0 0 0-.609-.123l-.206-.042c-.274-.261-.555-.508-.888-.667-.06-.032-.129-.047-.192-.069a3.658 3.658 0 0 0-.573-.197c-.082-.019-.164-.019-.247-.036a3.648 3.648 0 0 0-.553-.055c-.019 0-.037-.01-.059-.01-.028 0-.06.019-.092.019a3.809 3.809 0 0 0-1.286.229c-2.202.813-4.119 2.453-5.841 4.004-.984.884-1.904 1.817-2.815 2.778a85.164 85.164 0 0 0-3.881 4.418c-.009.004-.009.008-.014.014a241.36 241.36 0 0 0-1.364 1.666 46.298 46.298 0 0 0-1.671 2.165c-1.03 1.441-1.914 3.007-2.179 4.714-.055.344-.064.673-.055.993a4.99 4.99 0 0 0 .682 2.349c.38.658.898 1.25 1.515 1.763.059.05.128.1.192.146-.018.394-.082.76-.132 1.135v.01c-.366 2.472-1.515 4.596-3.227 6.82a11.727 11.727 0 0 1-.467-.201c-.124-.055-.252-.11-.375-.17a10.01 10.01 0 0 1-.439-.224 1.343 1.343 0 0 1-.132-.064 4.197 4.197 0 0 1-.321-.174 8.049 8.049 0 0 1-.535-.321c-.077-.05-.165-.101-.238-.146a8.074 8.074 0 0 1-.595-.448c-.01-.006-.018-.015-.027-.019-.957-.815-1.917-1.657-2.755-2.591-.979-1.08-1.767-2.303-2.151-3.776-.045-.164-.101-.325-.132-.495-.341-1.773-.368-3.522-.181-5.243zM56.9 56.691c.292-.571.618-1.131.933-1.67 2.751-4.743 9.516-16.488 12.982-20.749 1.052-1.29 2.32-2.746 3.776-3.624.916-.555 1.799-1.025 2.843-1.296a7.916 7.916 0 0 1 1.345-.216c.115-.013.229-.018.339-.027.11 0 .224-.018.334-.018.207 0 .407.032.614.045.146.014.293.019.435.037.398.055.792.138 1.176.247.032.01.06.01.091.019.412.129.811.284 1.213.467.129.063.257.133.385.197a10.692 10.692 0 0 1 1.208.701c.238.16.476.319.705.493.137.101.27.202.403.303.132.105.266.21.398.32a.165.165 0 0 1 .032.046c5.666 6.134-1.652 16.107-5.378 21.289-3.117 4.334-5.813 9.081-9.452 13.017-.037.042-.083.087-.119.129-1.231-2.064-2.855-3.676-4.49-5.118-2.678-2.356-5.708-3.895-8.765-4.453-.336-.06-.674-.097-1.008-.139zm-26.671 48.772c.773.662 1.848 1.331 3.08 1.931.073-.092.151-.188.229-.279.187-.22.371-.44.558-.65-.183.211-.372.436-.558.655-.074.096-.157.183-.229.274-.045.06-.095.114-.146.175-.05.059-.101.123-.151.183-.014.023-.032.041-.046.06-.215.265-.43.525-.65.787-.073.092-.146.179-.22.266-.288.343-.576.687-.869 1.016-.05.05-.101.105-.147.155a18.78 18.78 0 0 1-.948.98c-.018.019-.037.031-.055.05-.32.302-.654.581-.998.838-.032.027-.074.056-.106.082a7.515 7.515 0 0 1-1.066.65c-.055.036-.119.068-.184.101a5.934 5.934 0 0 1-1.125.412c-5.387-.755-2.984-5.941.719-10.391.98 1.047 2.01 1.931 2.912 2.705zm-5.141 7.894c-.014 0-.028.005-.045.005-.032 0-.069-.014-.102-.014.051.001.102.009.147.009zm23.87-18.271c.184 2.664-.687 5.195-2.055 7.978-.22.444-.477.856-.7 1.295-.499.961-.999 1.924-1.543 2.848-.384.649-.81 1.259-1.218 1.886a19.46 19.46 0 0 1-.352.545c-.399.609-.773 1.241-1.195 1.826-2.787 3.891-7.085 9.173-12.537 11.241-.233.093-.457.211-.701.289-.915.292-1.977.448-3.071.448-1.927 0-4.17-.531-6.038-1.606-1.387-.806-2.577-1.896-3.259-3.347-.105-.224-.184-.425-.266-.626-.041-.064-.086-.119-.127-.184-1.997-3.104-.935-7.718.261-10.907.797-2.129 1.817-4.151 3.007-6.084a52.092 52.092 0 0 1 2.115-3.162c.343-.472 2.343-2.439 2.288-2.934.06.53.11 1.07.216 1.593a11.607 11.607 0 0 0 1.011 2.997c.063.133-2.471 3.246-2.673 3.548-1.007 1.557-1.973 3.189-2.559 4.962-1.159 3.506-1.112 7.415 2.559 9.365.192.101.393.183.608.265a11.22 11.22 0 0 0 2.312.262c.462 0 .883-.064 1.308-.119a10.526 10.526 0 0 0 3.983-1.342c2.435-1.424 4.244-3.615 5.712-5.41.407-.498.814-.997 1.226-1.47.074-.082.143-.164.215-.246.027-.032.05-.061.074-.087.48-.55.947-1.108 1.4-1.672.49-.612.961-1.231 1.405-1.871.06-.083.11-.17.174-.261.965-1.428 1.781-2.938 2.344-4.605a15.58 15.58 0 0 0 .609-2.467c.004-.027.013-.055.019-.087.375-2.623.883-5.974-1.319-7.986-.224-.212-.499-.289-.71-.513.155-.367.169-.664.366-1.004a7.52 7.52 0 0 1 .567-.846c2.271-2.948 4.816 1.986 5.562 3.679.594 1.318.9 2.577.982 3.809zm1.918-7.511c-.059-.083-.119-.17-.179-.252-.05-.069-.105-.134-.155-.202a16.27 16.27 0 0 0-.626-.77l-.248-.274a10.266 10.266 0 0 0-.668-.668 5.17 5.17 0 0 0-.183-.178 10.412 10.412 0 0 0-.879-.691c-.064-.05-.143-.092-.211-.133a6.664 6.664 0 0 0-.719-.407 2.317 2.317 0 0 0-.271-.128c-.059-.028-.114-.061-.173-.083a69.817 69.817 0 0 1 2.334-2.627c.147.063.302.118.421.21.458.34.879.719 1.345 1.053.975.715 1.91 1.409 2.829 2.06-.137.165-.274.33-.416.494-.372.427-.778.907-1.208 1.424-.31.37-.645.764-.993 1.172zm11.366 1.863l-.375.472c-1.899 2.385-5.227 6.526-9.085 9.96.613-1.886 1.02-3.822.896-5.434a9.407 9.407 0 0 0-.151-.998c-.018-.1-.045-.206-.068-.312a11.846 11.846 0 0 0-.215-.806c-.032-.101-.06-.196-.096-.297-.046-.151-.101-.297-.156-.448.751-.848 1.46-1.69 2.106-2.459.421-.493.81-.956 1.167-1.367.302-.344.595-.705.893-1.062 1.712.838 3.553 1.414 5.758 1.528.096.005.192.005.289.009-.327.408-.648.815-.963 1.214zm3.675-1.269c-.165.01-.334 0-.499.005.174-.005.348-.019.517-.031.334-.023.673-.032.994-.069-.335.036-.673.072-1.012.095zm42.65-43.341a54.042 54.042 0 0 1-2.16 3.14 288.369 288.369 0 0 0-2.646 3.616c-2.275 3.14-4.627 6.381-7.146 9.182l-.7.777c-4.17 4.642-8.106 9.027-12.555 12.991-4.111 3.671-7.676 6.376-11.438 7.945a20.74 20.74 0 0 1-1.84.65c-.335.101-.664.22-.998.302-.888.225-1.804.376-2.737.467-.682.073-1.365.133-2.078.133-.372 0-.751-.009-1.131-.031a10.096 10.096 0 0 1-3.497-.806c-2.38-.989-5.621-2.591-7.516-4.357-.448-.422-.888-.696-.526-1.218.412-.604 1.122-1.466 1.712-1.95 1.41-1.157 2.238-.659 3.785-.064.993.381 2.033.632 3.081.829.376.073.779.109 1.191.151.348.036.677.091 1.048.091a9.23 9.23 0 0 0 2.027-.22c1.072-.238 2.106-.668 3.15-1.3a20.888 20.888 0 0 0 1.551-1.07 26.656 26.656 0 0 0 1.812-1.492 38.244 38.244 0 0 0 1.656-1.598c.083-.087.169-.17.257-.257a82.58 82.58 0 0 0 1.51-1.606c2.706-2.92 4.875-6.17 6.973-9.306.956-1.433 1.857-2.787 2.81-4.105l.188-.261c2.467-3.429 6.939-9.667 7.896-15.942.897-5.868-2.028-10.771-7.173-13.343-1.588-.797-3.849-1.305-5.621-1.305-1.026 0-2.059.133-3.076.395-1.611.42-2.911 1.13-3.973 1.771-1.991 1.204-3.575 2.988-4.861 4.573-3.547 4.357-9.956 15.416-13.031 20.73l-.325.558-.105.179c-.623 1.062-1.314 2.267-1.813 3.629-1.094.147-2.17.362-3.176.715-2.252.783-4.266 1.927-6.097 3.227 1.556-7.095 5.964-16.038 8.477-21.133a267.445 267.445 0 0 0 1.661-3.401 125.643 125.643 0 0 1 12.199-20.368C70.563 8.632 77.96 4.558 85.627 4.558c2.994 0 5.996.608 8.926 1.812 1.625.673 3.227 1.552 4.801 2.536 5.694 3.552 9.53 9.008 12.419 15.059.109.238.173.495.273.732 2.453 5.85 1.309 12.588-3.479 20.131z" fill="#2f2f2f"/></g></svg>