<svg id="レイヤー_1" xmlns="http://www.w3.org/2000/svg" viewBox="0 0 128 128"><g><g><g><g><path d="M11.851 90.129S20.299 115.568 25.11 121c3.4 3.829 8.678 8.16 22.46 5.261 0 0 10.764-1.203 24.118-11.458 0 0 8.091-5.227 8.938-15.38.637-7.637.854-36.447.854-36.447s-1.271-7.186-12.878-7.186c-11.601 0-27.691 7.598-39.872 14.734-12.167 7.141-16.879 19.605-16.879 19.605z" fill="#fcc21b"/></g><path d="M23.724 73.627C34.688 66.5 44.612 62.361 51.259 59.552c0 0 15.903-7.123 24.62-1.759 0 0 10.387 7.649-8.02 19.366C49.605 88.773 37.464 93.16 37.464 93.16s-15.707 6.315-22.108-2.529c-4.015-5.542.897-12.151 8.368-17.004z" fill="#fff"/><path d="M26.249 98.064c-5.801 0-10.332-2.019-13.098-5.835-1.67-2.312-2.287-4.981-1.776-7.722.833-4.471 4.691-9.146 10.866-13.158 10.914-7.097 20.893-11.317 27.496-14.109l.46-.196c.314-.141 8.971-3.974 17.385-3.974 3.86 0 7.127.812 9.72 2.405.063.039.128.081.187.127 1.564 1.147 4.164 4.22 4.02 8.449-.173 5.181-4.275 10.361-12.192 15.401-18.292 11.646-30.421 16.084-30.931 16.266-.144.063-5.903 2.346-12.137 2.346zM67.582 58.51c-7.233 0-15.138 3.49-15.213 3.523l-.515.217c-6.425 2.72-16.136 6.826-26.646 13.659-4.773 3.102-7.943 6.685-8.483 9.592-.242 1.296.021 2.418.833 3.536 1.725 2.38 4.645 3.587 8.691 3.587 5.193 0 10.148-1.967 10.2-1.985.208-.081 12.214-4.487 29.948-15.775 6.133-3.901 9.57-7.812 9.677-10.999.072-2.142-1.437-3.561-1.751-3.833-1.709-1.007-3.974-1.522-6.741-1.522z" fill="#fcc21b"/></g><path d="M62.359 95.454c-1.172-2.231-4.841-2.286-8.189-.131-3.353 2.163-5.126 5.72-3.952 7.951.803 1.526 2.779 2.01 5.015 1.491l-.927 6.957 7.481-3.906-2.631-4.955c2.855-2.175 4.288-5.345 3.203-7.407z" fill="#2f2f2f"/></g><g><path d="M66.223 69.892c-5.418 1.475-8.044-1.037-9.592-3.536-1.555-2.507-6.064-14.892-6.498-24.275-.739-16.018 5.193-35.835 30.063-40.306 36.948-6.638 36.957 22.146 36.523 31.295-.543 11.424-4.381 21.904-5.439 23.982-.739 1.458-1.385 3.328-5.576 4.033-2.104.353-5.647-1.13-6.447-3.255-1.84-4.904 13.646-45.549-16.536-38.631-27.667 6.336-12.35 44.045-12.35 44.045s1.275 5.169-4.148 6.648z" fill="#78a3ad"/></g><g><path d="M26.07 81.613c1.338-1.403 3.353-2.346 5.249-2.661 1.283-.208 2.97-.255 4.016.638 1.883 1.603.195 4.53-1.25 5.652-1.818 1.416-4.433 2.1-6.715 1.858-2.644-.281-3.34-2.516-2.006-4.586a6.05 6.05 0 0 1 .706-.901z" fill="#2f2f2f"/></g></g></svg>