<svg id="レイヤー_1" xmlns="http://www.w3.org/2000/svg" viewBox="0 0 128 128"><path d="M1.613 64.698c0 34.065 27.618 61.688 61.69 61.688s61.68-27.623 61.68-61.688c0-34.066-27.608-61.69-61.68-61.69-34.073 0-61.69 27.624-61.69 61.69z" fill="#006ca2"/><path d="M109.016 57.962v-.011c-.012-.014-.026-.023-.03-.038a.405.405 0 0 0-.057-.103l-.031-.036c-2.407-4.105-7.232-6.748-11.141-8.871l-1.072-.59a182.133 182.133 0 0 0-4.987-2.622c-3.49-1.78-7.089-3.631-10.255-5.828-1.618-1.114-3.176-2.294-4.745-3.457-3.192-2.387-6.49-4.853-10.141-6.852-4.429-2.426-9.673-3.365-14.83-2.683-.125-.202-.245-.405-.381-.594a9.714 9.714 0 0 0-9.436-4.052 9.814 9.814 0 0 0-4.18 1.673c-4.282 3.012-5.402 8.854-2.622 13.234-1.161 1.757-3.191 5.191-3.802 8.422-.498 2.66-.524 5.743-.083 8.683.619 4.03 1.448 8.032 2.275 11.894 1.159 5.539 2.358 11.257 2.863 16.98.046.566.088 1.185.145 1.846.411 5.728 1.052 14.315 5.851 18.057 3.026 4.132 9.862 5.746 18.879 4.412 8.726-1.286 18.113-5.081 26.442-10.68 8.447-5.689 15.339-12.952 19.407-20.459 4.01-7.384 4.696-14.054 1.931-18.325zM38.664 30.465a4.891 4.891 0 0 1 1.86-2.6 4.98 4.98 0 0 1 2.098-.844 5.079 5.079 0 0 1 2.614.32c.283.169.517.421.411.794-.075.281-.31.466-.588.619a24.123 24.123 0 0 0-3.622 2.016c-.438.26-.856.558-1.271.8-.631.362-1.34.966-1.555-.062l.053-1.043zm7.666 52.156c-.181.666-.502 1.211-.826 1.752-.121.166-.257.349-.373.517-1.203 1.826-2.166 3.588-2.898 5.279-.169.294-.388.556-.671.556-.253-.008-.404-.252-.497-.551-.272-1.979-.415-3.921-.529-5.51-.053-.676-.102-1.321-.143-1.894-.518-5.98-1.755-11.816-2.935-17.469-.819-3.806-1.638-7.752-2.238-11.666-.378-2.505-.351-5.11.06-7.332.192-1.015.634-2.242 1.272-3.57.182-.206.381-.31.513.011.113.287.106.604.166.875.019.062.026.122.034.181.438 3.331 1.476 6.719 2.071 9.063 2.166 8.462 6.044 16.29 7.081 25.047.079.592.136 1.19.196 1.787.026.982-.038 1.972-.283 2.924zm54.043-3.655c-5.052 7.306-12.439 12.717-14.725 14.253-3.746 2.512-20.335 11.152-30.811 10.35-1.328-.1-4.327-.154-5.172-2.001-.875-1.92-.037-5.708 3.173-10.126 5.399-7.417 13.785-14.408 13.785-14.408s.86 3.841 2.056 5.528a11.377 11.377 0 0 0 2.497 2.593c.476.364.977.669 1.495.948.576.306 1.161.564 1.761.773 3.396 1.162 7.301.751 10.47-1.478 3.026-2.132 4.715-5.447 4.909-8.872.049-.64.041-1.285-.034-1.926a11.314 11.314 0 0 0-.336-1.726 11.465 11.465 0 0 0-1.713-3.693c-.777-1.1-2.754-2.749-2.754-2.749s10.944-5.745 18.814-3.835c4.157 1.013 1.742 8.926-3.415 16.369z" fill="#fff"/><g><path d="M64 128C28.71 128 0 99.289 0 64 0 28.71 28.711 0 64 0s64 28.71 64 64c0 35.289-28.71 64-64 64zm0-117.113c-29.287 0-53.114 23.827-53.114 53.113 0 29.287 23.827 53.113 53.114 53.113S117.113 93.287 117.113 64 93.287 10.887 64 10.887z" fill="#db4437"/></g><g><g><g><path fill="#db4437" d="M111.731 102.588L103.304 111 17 25.274l8.427-8.413z"/></g></g></g></svg>