<svg id="レイヤー_1" xmlns="http://www.w3.org/2000/svg" xmlns:xlink="http://www.w3.org/1999/xlink" viewBox="0 0 128 128"><g><g><defs><path id="SVGID_1_" d="M6.256 37.745C.169 51.302-1.493 69.087 2.023 83.437c3.987 16.281 16.869 29.766 32.14 36.19 12.912 5.435 26.793 7.576 40.735 5.929a66.318 66.318 0 0 0 15.135-3.628c15.162-5.606 27.923-18.19 33.765-33.29 1.889-4.893 3.092-10.433 3.614-15.65 3.701-37.086-19.676-65.649-51.936-70.355-27.719-4.041-57.417 8.798-69.22 35.112z"/></defs><use xlink:href="#SVGID_1_" overflow="visible" fill="#fcc21b"/><clipPath id="SVGID_2_"><use xlink:href="#SVGID_1_" overflow="visible"/></clipPath><path d="M-2.231 82.953C.44 90.877 4.162 98.26 8.771 105.165c2.067 3.092 5.779 6.351 9.153 7.882 3.723 1.682 4.14-1.416 5.097-4.175 2.391-6.867 7.686-11.174 11.872-16.817 1.796-2.416 2.593-5.39 4.327-7.856 3.28-4.681 6.737-9.237 10.184-13.798 6.769-8.965 14.214-17.447 22.451-25.102 5.05-4.706 10.819-8.537 16.396-12.594 4.805-3.509 9.288-7.576 14.901-9.981 2.405-1.031 4.961-1.766 7.57-1.989 1.073-.094 1.994-.104 2.879-.792.729-.567.968-1.41.823-2.301-.349-2.135-2.453-3.946-4.021-5.232-2.274-1.879-4.446-4.171-7.206-5.456-3.306-1.536-6.674-3.26-10.122-4.515C91.138 1.725 89.462.83 87.431.315c-2.806-.708-5.675-1.026-8.539-1.458C67.906-2.799 56.4-2.997 45.534-.466 34.423 2.126 24.062 9.088 15.768 16.742 7.381 24.483 1.747 34.97-2.444 45.523c-1.469 3.702-3.343 7.612-3.566 11.638-.172 3.128.037 6.31.016 9.449-.042 4.837 1.76 10.043 3.218 14.667.175.562.358 1.118.545 1.676z" clip-path="url(#SVGID_2_)" fill="#f79329"/></g><g><path d="M25.128 48.116c-6.148 13.22-5.675 31.374 3.755 42.86 4.332 5.274 10.069 9.31 16.302 12.038 16.353 7.153 37.487 3.921 49.869-9.409 11.704-12.6 15.202-33.67 5.94-48.649-2.713-4.394-6.909-9.444-11.179-12.396-4.988-3.441-12.047-6.436-18.072-7.284-18.665-2.625-38.663 5.725-46.615 22.84z" fill="#fff"/><path d="M44.847 57.103c-4.556 9.621-.725 23.211 10.059 27.1 12.292 4.436 25.943-1.364 28.37-14.745 1.468-8.112-3.233-17.791-10.351-21.602-7.706-4.124-18.046-1.692-24.159 3.898a17.103 17.103 0 0 0-3.919 5.349z" fill="#ed6c30"/></g></g></svg>