<svg id="レイヤー_1" xmlns="http://www.w3.org/2000/svg" xmlns:xlink="http://www.w3.org/1999/xlink" viewBox="0 0 128 128"><g><g><g><path d="M24.838 48.902c0-6.977 5.668-12.646 12.642-12.646 6.97 0 12.65 5.67 12.65 12.646v13.354h12.519V48.902c0-13.879-11.291-25.166-25.169-25.166S12.315 35.023 12.315 48.902v13.354h12.523V48.902z" fill="#78a3ad"/><g><defs><path id="SVGID_1_" d="M50.13 62.256v.154H24.838v-.154H12.315v.154h-1.583a5.407 5.407 0 0 0-5.407 5.404v36.982a5.408 5.408 0 0 0 5.407 5.406h53.492a5.408 5.408 0 0 0 5.406-5.406V67.814a5.406 5.406 0 0 0-5.406-5.404h-1.575v-.154H50.13z"/></defs><use xlink:href="#SVGID_1_" overflow="visible" fill="#fcc21b"/><clipPath id="SVGID_2_"><use xlink:href="#SVGID_1_" overflow="visible"/></clipPath></g><path d="M43.192 82.762c0-3.154-2.558-5.709-5.712-5.709s-5.713 2.555-5.713 5.709a5.7 5.7 0 0 0 3.566 5.283l-.127.541-1.84 7.865h8.23l-1.844-7.865-.122-.541a5.698 5.698 0 0 0 3.562-5.283z" fill="#2f2f2f"/></g></g><g><g><path d="M104.768 62.389a25.642 25.642 0 0 0 10.381-6.311c10.035-10.029 10.035-26.303 0-36.332-10.03-10.029-26.303-10.029-36.333 0-10.034 10.029-10.034 26.303-.004 36.332a25.615 25.615 0 0 0 10.381 6.311v19.643l5.194 5.197-5.194 5.191 5.19 5.191-5.19 5.191v5.188l7.79 7.787 7.785-7.787V62.389zm-12.98-29.668c-2.864-2.863-2.864-7.506.004-10.379a7.339 7.339 0 0 1 10.377 0c2.869 2.873 2.869 7.516.005 10.379a7.335 7.335 0 0 1-10.386 0z" fill="#fcc21b"/></g></g></g></svg>