<svg id="レイヤー_1" xmlns="http://www.w3.org/2000/svg" viewBox="0 0 128 128"><g><path d="M68.533 76.776c5.56 2.867 11.855 4.525 18.548 4.525 22.297 0 40.382-18.084 40.382-40.383 0-22.297-18.085-40.381-40.382-40.381-22.302 0-40.387 18.084-40.387 40.381a40.13 40.13 0 0 0 4.534 18.539l-21.84 21.844v11.543H17.846v11.533H6.305l-5.768 5.775v17.309h17.31l50.686-50.685zm18.548-47.394c0-6.371 5.162-11.535 11.538-11.535 6.371 0 11.534 5.164 11.534 11.535 0 6.375-5.163 11.537-11.534 11.537-6.376 0-11.538-5.162-11.538-11.537z" fill="#fcc21b"/></g></svg>