<svg id="レイヤー_1" xmlns="http://www.w3.org/2000/svg" viewBox="0 0 128 128"><g><g><g><path fill="#2f2f2f" d="M114.837 100.619l3.065 4.072 1.525 5.301-3.011 7.75-6.836 5.196-7.02-.637-3.512-1.424-3.416-3.428-.093-7.367 12.855-9.574z"/><path fill="#2f2f2f" d="M54.405 76.023l-3.745-3.755 6.037-16.194 20.789-5.06 3.268 4.338 1.482 16.8L68.991 83.5z"/><g><path d="M101.766 117.973c2.639-.473 5.291-1.688 7.625-3.605 2.546-2.086 4.365-4.719 5.273-7.473.096-.297.239-.592.312-.896.498-1.975.414-3.799-.14-5.379L80.754 55.352c-.288 1.133-2.09 7.104-9.736 13.156-9.107 7.228-16.512 7.516-16.613 7.516l41.227 41.426c1.288.564 2.787.853 4.459.77.552-.034 1.114-.148 1.675-.247z" fill="#78a3ad"/><path d="M121.355 109.283l-3.453-4.592a15.081 15.081 0 0 1-.342 1.957c-.038.154-.097.305-.14.457-.991 3.461-3.216 6.756-6.345 9.32-2.871 2.359-6.202 3.861-9.512 4.314-.447.061-.895.113-1.338.127-.258.018-.515.027-.772.027-.135 0-.27-.018-.405-.018l4.142 4.164c3.191 3.682 9.837 3.156 14.835-1.176 4.998-4.33 6.531-10.888 3.33-14.58z" fill="#78a3ad"/><path d="M67.011 64.971c.131-.102.257-.186.397-.295 7.342-5.777 9.533-11.723 9.998-13.24.076-.244.109-.389.109-.389l-.029-.033c2.846-14.246-1.823-31.992-8.195-40.795C64.756 3.955 57.259.51 48.185.51c-1.067 0-2.149.051-3.229.144-.949.084-1.895.211-2.85.361-6.653 1.098-13.345 3.946-19.336 8.286C6.203 21.316.102 41.268 9.167 53.783a21.925 21.925 0 0 0 1.6 1.934c.186.211.401.412.604.623 7.709 7.922 24.234 15.809 39.285 15.941l.005-.014c.012 0 7.067-.559 15.355-6.547.328-.243.662-.486.995-.749z" fill="#78a3ad"/><path d="M25.7 13.344c6.978-5.047 14.958-7.836 22.485-7.836 7.431 0 13.485 2.711 17.057 7.643 4.37 6.029 4.217 14.314.477 22.232-2.638 5.58-7.05 10.977-12.975 15.275-5.107 3.707-10.766 6.172-16.384 7.236-2.044.389-4.083.6-6.088.6-6.379 0-11.728-2.01-15.381-5.689-.114-.121-.228-.23-.337-.348a16.072 16.072 0 0 1-1.338-1.605C5.763 40.568 11.366 23.746 25.7 13.344z" fill="#fcc21b"/><path d="M47.45 49.367c-3.482-.82-5.969-4.027-5.724-7.719a7.43 7.43 0 0 1 7.916-6.924c3.804.244 6.713 3.326 6.899 7.043 3.618-5.178 4.353-11.215 1.313-15.41-4.193-5.795-13.962-5.877-21.81-.186-7.845 5.689-10.809 14.996-6.612 20.779 3.538 4.89 11.045 5.693 18.018 2.417z" fill="#fff"/></g></g><path d="M76.996 59.197l42.861 56.133s-.688 3.449-3.217 4.832L71.25 66.096l5.746-6.899z" fill="#2f2f2f"/><path d="M71.381 34.688s-1.807 6.9-7.216 12.822c1.511 1.812 3.914 5.326 4.357 9.713 1.929-1.65 4.618-4.418 5.543-7.664.592-2.065.334-8.672-2.684-14.871z" fill="#2f2f2f"/></g><path d="M20.215 26.666s-5.779 5.91-5.045 15.135l7.279-.334s-.367-6.135 3.052-10.99l-5.286-3.811z" fill="#fff"/></g></svg>