<svg id="レイヤー_1" xmlns="http://www.w3.org/2000/svg" viewBox="0 0 128 128"><g><g><path d="M127.721 109.377a3.976 3.976 0 0 0-.639-1.105c-.937-1.195-2.591-1.784-3.664-2.899-1.277-1.331-2.165-2.989-3.302-4.43-4.312-5.48-10.572-8.688-16.818-11.478-5.653-2.519-13.009-4.194-19.129-5.001-4.837-.644-9.675-1.195-14.549-1.44a117.71 117.71 0 0 0-5.621-.136c-1.866 0-3.737.046-5.617.136-4.878.245-9.716.797-14.554 1.44-6.115.807-13.475 2.482-19.128 5.001-6.242 2.79-12.502 5.997-16.819 11.478-1.132 1.44-2.02 3.099-3.297 4.43-1.074 1.115-2.731 1.704-3.669 2.899-.267.344-.494.707-.634 1.105-.815 2.247 5.785 6.061 7.23 7.003 3.058 1.984 6.337 3.605 9.729 4.928 9.101 3.552 18.916 4.594 28.582 5.301 9.957.724 19.908 1.022 29.882.525 11.709-.59 24.039-1.522 35.055-5.826 3.393-1.322 6.672-2.943 9.73-4.928 1.448-.942 8.043-4.756 7.232-7.003z" fill="#d7598b"/></g><g><g><g><path d="M116.809 52.386c0 28.582-23.468 51.756-52.421 51.756-28.949 0-52.417-23.174-52.417-51.756S35.439.621 64.388.621c28.953 0 52.421 23.183 52.421 51.765z" fill="#40c0e7"/></g><g fill="#fff"><path d="M26.099 62.341c.036-.026.068-.062.104-.09 3.094-2.771 2.695-7.944 7.039-9.675 7.547-3.008 13.272 3.207 20.044 5.606 8.371 2.963 19.387 3.398 26.716 1.704 10.93-2.519 24.021-9.566 24.21-22.159.104-6.831-3.111-12.737-7.519-17.131-6.16-6.133-12.013-9.993-19.065-12.167-4.172-1.295-8.919-2.002-13.286-2.002-9.825 0-19.455 3.253-27.055 9.603-7.352 6.143-13.517 14.179-15.478 23.854-1.219 6.033-1.79 13.462-.906 19.577.399 2.78 2.737 5.018 5.196 2.88z"/><path d="M96.698 68.321l-.082.081c-4.371 3.695-7.713 8.497-12.18 12.049-3.564 2.826-7.768 4.802-12.13 6.033-4.494 1.277-9.068.906-13.648 1.513-2.591.345-4.557 2.038-1.092 3.271 2.799.987 5.889 1.431 8.842 1.559 12.633.552 26.566-4.566 34.57-14.641 1.622-2.047 3.044-4.873 3.085-7.555.072-4.386-4.711-4.684-7.365-2.31z"/></g></g><path d="M34.049 103.498c15.713-6.369 33.197-6.332 49.816-4.204 4.525.589 9.073 1.44 13.439 2.728 1.504.443 3.171.725 4.589 1.341 4.996 2.155-6.509 3.587-7.877 3.759-4.851.616-9.349 1.44-14.236 1.015-4.842-.416-9.884.517-14.758.598-9.947.163-20.107-.752-29.968-1.965-.67-.082-3.189-.3-3.497-1.106-.294-.789.979-1.551 2.492-2.166z" fill="#d7598b"/></g></g></svg>