<svg id="レイヤー_1" xmlns="http://www.w3.org/2000/svg" viewBox="0 0 128 128"><g><path d="M103.654 73.561l-11.547 5.594-3.497-2.085 3.459-1.61s2.871-1.425 5.5-3.844c.737-.672 1.455-1.412 2.077-2.236.507-.664.985-1.505 1.387-2.466 1.179-2.811 1.733-6.694.557-10.478-1.686-5.463-5.877-9.751-11.936-10.579-.401-.056-.782-.144-1.196-.165a14.17 14.17 0 0 0-.845-.025c-.254 0-.5.03-.753.038-1.015.05-1.992.177-2.893.359-2.867.591-4.93 1.636-4.93 1.636l-4.82 2.021-.072-2.292 11.26-8.528 3.332-2.516.88-.668 1.818 1.28 16.897 11.887v22.41l-1.066.515-3.612 1.752z" fill="#78a3ad"/><path d="M19.696 111.7c-1.091-.627-1.919-1.696-2.579-2.745L8.854 95.142c0-.004.008-.008.008-.013l-.215-.469c-1.029-1.856-1.518-3.967-1.239-6.073.013-.085.119-.481.228-.963.077-.334.161-.702.233-1.04l5.23-17.895.253-.858c.178-.368.364-.714.55-.964.249-.338.605-.524.999-.625.024-.009.049-.021.075-.03.338-.072.71-.072 1.082-.05l2.14.321 15.813 2.376.084.024c.241.035.44.068.677.132.862.241 1.729.485 2.537.871.972.461 1.836 1.213 2.338 2.173.118.228.266.444.393.668l9.62 17.632c.182.529.478 1.011.638 1.543.195.647.263 1.379.236 2.055-.042.952-.245 1.886-.54 2.795l-6.482 14.888c-.042.063-.072.123-.106.187-.097.211-.16.427-.271.668-.118.287-.355.588-.523.858-.263.41-.643.664-1.04.858-.761.373-1.692.457-2.533.453-.08 0-.179.007-.262.007l-.123-.013-15.134-1.897c-1.279-.245-2.692-.406-3.824-1.061z" fill="#78a3ad"/><path fill="#fff" d="M49.965 59.505l-10.304 4.609-17.886-2.689 11.129-4.922z"/><path d="M74.402 55.64l6.774-2.841.347-.161c.008-.004.481-.233 1.234-.504a16.127 16.127 0 0 1 2.972-.769 11.767 11.767 0 0 1 1.886-.169l.529.017c.152.008.275.05.422.063 5.21.528 7.154 4.888 7.747 6.791.825 2.677.22 5.521-.587 7.154a5.114 5.114 0 0 1-.474.804 11.85 11.85 0 0 1-1.391 1.505c-.3.274-.605.533-.913.782.085-.334.144-.668.194-1.01.136-.943.161-1.911.076-2.879-.177-1.975-.773-3.928-1.67-5.573-.714-1.294-2.063-3.357-3.709-3.945-.452-.161-.916-.236-1.412-.127-.829.19-.816.972-.422 1.612.414.664.777 1.353 1.125 2.059.393.825.744 1.666 1.015 2.537.207.651.359 1.311.478 1.97.182.99.275 1.987.258 2.985a14.576 14.576 0 0 1-.317 2.804 14.115 14.115 0 0 1-.765 2.431c-.025.076-.067.144-.093.216l-2.672 1.247a.154.154 0 0 1 .017-.051c.545-1.492.688-3.145.549-4.79a14.323 14.323 0 0 0-.608-3.096 14.482 14.482 0 0 0-1.065-2.528c-.085-.144-.178-.309-.271-.47-.541-.917-1.319-2.034-2.266-2.794-.77-.63-1.641-1.02-2.579-.808-.839.186-.821.972-.423 1.61a20.508 20.508 0 0 1 2.063 4.402c.022.068.052.126.076.19.135.44.254.884.356 1.328.507 2.263.507 4.58-.043 6.816-.169.694-.38 1.379-.66 2.051-.072.173-.16.343-.246.511l-.105.056-2.541 1.183c.046-.114.097-.224.135-.338.237-.638.381-1.312.478-1.992a12.41 12.41 0 0 0 .046-3.195 14.548 14.548 0 0 0-1.645-5.231c-.385-.697-.96-1.619-1.662-2.418-.798-.91-1.758-1.632-2.819-1.684-.212-.008-.419-.017-.636.03-.832.19-.819.973-.422 1.611a22.12 22.12 0 0 1 1.171 2.165c.379.791.705 1.603.968 2.431a15.83 15.83 0 0 1 .703 3.734 14.97 14.97 0 0 1-.136 3.137 14.382 14.382 0 0 1-.858 3.175l-9.158-17.442 5.488-2.3 5.461-2.292z" fill="#78a3ad"/><path fill="#78a3ad" d="M69.433 83.522l-11.166 5.104-2.601 1.192-11.76-21.543 1.7-.761 2.546-1.138 9.942-4.448.236.452 9.582 18.241 1.28 2.453z"/><path fill="#fff" d="M104.888 30.118l14.139 11.117-7.572 3.082-15.818-11.129z"/><path d="M127.054 41.044c-.005-.03 0-.059-.018-.089-.005-.017-.017-.025-.025-.047a2.957 2.957 0 0 0-.532-.799c-.033-.042-.08-.08-.119-.119-.059-.055-.105-.118-.17-.169l-19.052-14.973a2.774 2.774 0 0 0-2.58-.452l-15.872 5.269c-.009 0-.009.003-.009.003-.038.013-.063.034-.097.047a3.112 3.112 0 0 0-.63.334c-.017.013-.042.021-.067.034L69.661 43.877a2.79 2.79 0 0 0-1.094 2.296l.185 5.838-8.744 3.667c-.067-.017-.126-.047-.194-.055l-26.778-4.71a2.785 2.785 0 0 0-1.603.194L11.641 59.86c-.093.042-.161.127-.249.182a2.768 2.768 0 0 0-2.089 1.928L.867 90.82a2.754 2.754 0 0 0 .275 2.195l13.852 23.179a2.778 2.778 0 0 0 2.03 1.324l26.359 3.307.33.021.008.003c.246 0 .482-.042.72-.104.067-.022.135-.047.207-.072.081-.03.166-.047.241-.081l18.651-8.647a2.78 2.78 0 0 0 1.366-1.396l10.867-24.613c.012-.034.017-.068.034-.101.017-.047.025-.099.042-.145.098-.296.161-.609.153-.93 0-.009.004-.017.004-.026a2.816 2.816 0 0 0-.224-.968c-.017-.03-.009-.063-.026-.097-.009-.017-.021-.026-.03-.043-.016-.03-.021-.064-.038-.094l-.186-.351 7.04-3.281 8.013 4.766c.431.263.921.389 1.416.389.41 0 .825-.089 1.206-.275l19.124-9.264.009-.004c.004-.004.008-.004.008-.004l13.383-6.627a2.76 2.76 0 0 0 1.547-2.478V42a2.656 2.656 0 0 0-.194-.956zm-23.4 32.517l-11.547 5.594-3.497-2.085 3.459-1.61s2.871-1.425 5.5-3.844c.737-.672 1.455-1.412 2.077-2.236.507-.664.985-1.505 1.387-2.466 1.179-2.811 1.733-6.694.557-10.478-1.686-5.463-5.877-9.751-11.936-10.579-.401-.056-.782-.144-1.196-.165a14.17 14.17 0 0 0-.845-.025c-.254 0-.5.03-.753.038-1.015.05-1.992.177-2.893.359-2.867.591-4.93 1.636-4.93 1.636l-4.82 2.021-.072-2.292 11.26-8.528 3.332-2.516.88-.668 1.818 1.28 16.897 11.887v22.41l-1.066.515-3.612 1.752zM19.696 111.7c-1.091-.627-1.919-1.696-2.579-2.745L8.854 95.142c0-.004.008-.008.008-.013l-.215-.469c-1.029-1.856-1.518-3.967-1.239-6.073.013-.085.119-.481.228-.963.077-.334.161-.702.233-1.04l5.23-17.895.253-.858c.178-.368.364-.714.55-.964.249-.338.605-.524.999-.625.024-.009.049-.021.075-.03.338-.072.71-.072 1.082-.05l2.14.321 15.813 2.376.084.024c.241.035.44.068.677.132.862.241 1.729.485 2.537.871.972.461 1.836 1.213 2.338 2.173.118.228.266.444.393.668l9.62 17.632c.182.529.478 1.011.638 1.543.195.647.263 1.379.236 2.055-.042.952-.245 1.886-.54 2.795l-6.482 14.888c-.042.063-.072.123-.106.187-.097.211-.16.427-.271.668-.118.287-.355.588-.523.858-.263.41-.643.664-1.04.858-.761.373-1.692.457-2.533.453-.08 0-.179.007-.262.007l-.123-.013-15.134-1.897c-1.279-.245-2.692-.406-3.824-1.061zm30.269-52.195l-10.304 4.608-17.886-2.688 11.129-4.922 17.061 3.002zm24.437-3.865l6.774-2.841.347-.161c.008-.004.481-.233 1.234-.504a16.127 16.127 0 0 1 2.972-.769 11.767 11.767 0 0 1 1.886-.169l.529.017c.152.008.275.05.422.063 5.21.528 7.154 4.888 7.747 6.791.825 2.677.22 5.521-.587 7.154a5.114 5.114 0 0 1-.474.804 11.85 11.85 0 0 1-1.391 1.505c-.3.274-.605.533-.913.782.085-.334.144-.668.194-1.01.136-.943.161-1.911.076-2.879-.177-1.975-.773-3.928-1.67-5.573-.714-1.294-2.063-3.357-3.709-3.945-.452-.161-.916-.236-1.412-.127-.829.19-.816.972-.422 1.612.414.664.777 1.353 1.125 2.059.393.825.744 1.666 1.015 2.537.207.651.359 1.311.478 1.97.182.99.275 1.987.258 2.985a14.576 14.576 0 0 1-.317 2.804 14.115 14.115 0 0 1-.765 2.431c-.025.076-.067.144-.093.216l-2.672 1.247a.154.154 0 0 1 .017-.051c.545-1.492.688-3.145.549-4.79a14.323 14.323 0 0 0-.608-3.096 14.482 14.482 0 0 0-1.065-2.528c-.085-.144-.178-.309-.271-.47-.541-.917-1.319-2.034-2.266-2.794-.77-.63-1.641-1.02-2.579-.808-.839.186-.821.972-.423 1.61a20.508 20.508 0 0 1 2.063 4.402c.022.068.052.126.076.19.135.44.254.884.356 1.328.507 2.263.507 4.58-.043 6.816-.169.694-.38 1.379-.66 2.051-.072.173-.16.343-.246.511l-.105.056-2.541 1.183c.046-.114.097-.224.135-.338.237-.638.381-1.312.478-1.992a12.41 12.41 0 0 0 .046-3.195 14.548 14.548 0 0 0-1.645-5.231c-.385-.697-.96-1.619-1.662-2.418-.798-.91-1.758-1.632-2.819-1.684-.212-.008-.419-.017-.636.03-.832.19-.819.973-.422 1.611a22.12 22.12 0 0 1 1.171 2.165c.379.791.705 1.603.968 2.431a15.83 15.83 0 0 1 .703 3.734 14.97 14.97 0 0 1-.136 3.137 14.382 14.382 0 0 1-.858 3.175l-9.158-17.442 5.488-2.3 5.461-2.292zm-4.969 27.882l-11.167 5.104-2.601 1.192-11.759-21.543 1.7-.761 2.546-1.138 9.941-4.448.236.453 9.582 18.241 1.28 2.453.242.447zm35.455-53.404l14.139 11.117-7.573 3.083-15.817-11.13 9.251-3.07z" fill="#2f2f2f"/></g></svg>