<svg id="レイヤー_1" xmlns="http://www.w3.org/2000/svg" viewBox="0 0 128 128"><g><path fill="#fff" d="M.154.161H64v63.838H.154z"/><path fill="#fff" d="M64 63.999h63.846v63.848H64z"/><g><path fill="#fff" d="M.159 63.999H64v63.848H.159z"/><path fill="#fff" d="M64 .153h63.846v63.846H64z"/><g><path d="M.154.161v63.838H64V.161H.154zm53.839 38.008a.726.726 0 0 1-.726.727h-15.83v17.039a.733.733 0 0 1-.73.729h-9.26a.73.73 0 0 1-.726-.729V38.896H10.892a.734.734 0 0 1-.737-.727v-8.586c0-.402.335-.727.737-.727h42.376c.402 0 .726.324.726.727v8.586zm0-17.338c0 .4-.324.725-.726.725H10.892a.734.734 0 0 1-.737-.725v-8.586c0-.402.335-.726.737-.726h42.376c.402 0 .726.324.726.726v8.586z" fill="#ed6c30"/><path d="M64 63.999v63.848h63.846V63.999H64zm46.11 53.785c-7.391 0-12.007-5.213-12.007-11.65 0-.096.026-.191.026-.291l-8.116 12.67-.528.289H77.83l-.554-.332.031-.641 11.041-16.873c-1.672.834-3.604 1.35-5.83 1.35-7.384 0-12.001-5.211-12.001-11.645 0-6.436 4.617-11.646 12.001-11.646 7.385 0 12.002 5.211 12.002 11.646 0 .344-.062.664-.088.996l10.231-15.641.527-.283h11.087l.548.332-.021.635-12.131 18.94c1.583-.725 3.39-1.152 5.438-1.152 7.384 0 11.996 5.215 11.996 11.646-.001 6.437-4.613 11.65-11.997 11.65z" fill="#ed6c30"/><path d="M82.518 86.075c-2.908 0-4.731 2.053-4.731 4.586 0 2.537 1.823 4.59 4.731 4.59 2.915 0 4.732-2.053 4.732-4.59.001-2.533-1.817-4.586-4.732-4.586z" fill="#ed6c30"/><path d="M110.11 101.546c-2.915 0-4.738 2.055-4.738 4.588 0 2.539 1.823 4.59 4.738 4.59 2.908 0 4.73-2.051 4.73-4.59.001-2.533-1.821-4.588-4.73-4.588z" fill="#ed6c30"/><path d="M78.127 55.812c.736.527 1.561 1.023 2.397 1.379 4.58 1.963 10.038.578 14.064-2.043 3.682-2.396 7.541-7.031 6.987-11.562v-.016l-.276-20.348c.188-.01.365-.014.517-.02a22.896 22.896 0 0 1 4.554.4c2.789.549 5.598 1.641 7.614 3.711 2.011 2.055 3.865 4.082 6.852 4.621 1.249.217 3.411-.158 4.199-1.25 1.297-1.785-1.519-2.434-2.376-3.352-.814-.879-1.122-2.402-1.321-3.553-.652-3.9-2.309-7.484-5.238-10.174-3.906-3.588-9.265-5.996-14.995-7.033-.819-.152-1.775-.215-2.631-.027-.016 0-.031-.008-.047-.008a2.634 2.634 0 0 0-2.601 2.676l.376 27.42c-1.63-.867-3.463-1.391-5.364-1.592-4.751-.492-9.906.98-13.239 3.916-1.117.986-2.24 2.287-2.914 3.629-.699 1.383-1.269 3.406-1.148 4.967.27 3.268 1.906 6.356 4.59 8.259z" fill="#2f2f2f"/><path d="M32.074 68.278c-16.634 0-28.708 11.77-28.708 27.986 0 16.221 12.075 27.998 28.708 27.998 6.742 0 12.895-1.91 17.793-5.523l-5.076-6.885c-3.421 2.523-7.813 3.854-12.717 3.854-11.866 0-20.155-7.996-20.155-19.443 0-11.443 8.289-19.434 20.155-19.434 14.863 0 20.153 10.426 20.153 20.176l.022.338c.026.469-.058 1.93-.773 2.961-.157.166-.898.576-1.828.576-.533 0-1.514-.111-2.116-.846-1.08-1.305-1.655-4.607-1.702-6.424h-.052V83.94a.601.601 0 0 0-.6-.604h-7.255a.604.604 0 0 0-.601.604v.746c-2.058-1.119-4.48-1.807-7.292-1.807-8.742 0-14.205 6.168-14.205 13.781 0 7.615 5.463 13.787 14.205 13.787 4.806 0 8.566-1.898 11.025-4.848 2.079 2.436 5.186 3.834 8.591 3.834 3.583 0 7.04-1.65 8.827-4.209 2.391-3.441 2.376-7.277 2.319-8.359-.067-17.108-11.593-28.587-28.718-28.587zm-2.043 34.762c-4.042 0-6.575-2.854-6.575-6.379 0-3.52 2.533-6.381 6.575-6.381 4.049 0 6.571 2.861 6.571 6.381 0 3.526-2.522 6.379-6.571 6.379z" fill="#2f2f2f"/></g></g></g></svg>