<svg id="レイヤー_1" xmlns="http://www.w3.org/2000/svg" xmlns:xlink="http://www.w3.org/1999/xlink" viewBox="0 0 128 128"><g><g><g><path d="M112.901 116.373L75.39 33.415l-19.941 9.526 41.026 81.283c1.588 3.335 6.544 4.286 11.061 2.125 4.526-2.16 6.956-6.646 5.365-9.976z" fill="#f79329"/><g><defs><path id="SVGID_1_" d="M114.43 10.848C101.269-.067 83.925-.919 71.457 1.8c-3.223.7-6.25 2.089-8.456 3.048-3.87 1.692-11.74 5.942-11.74 5.942l-9.839 4.968c-.254.125-.473.281-.705.428-2.098 1.01-4.518 1.991-6.843 2.474-2.88.59-4.741-.585-8.081-.183-1.598.192-3.272.723-4.683 1.277a7.58 7.58 0 0 0-1.464.553l-1 .509c-.549.264-.901.455-.901.455l-8.741 4.415C5.53 27.441 3.915 31.29 5.41 34.24l15.013 29.728c1.491 2.95 5.544 3.933 9.017 2.178l8.741-4.415s.366-.169.906-.455l1.004-.509a7.418 7.418 0 0 0 1.313-.844c1.285-.808 3.768-6.996 4.875-8.165 2.312-2.455 4.205.991 7.99.849 2.143-.08 4.42-1.232 5-1.527l.795-.401a50.75 50.75 0 0 0 1.552-.781v-.005l17.318-8.75c2.423-1.221 3.902-3.444 4.102-5.694.054-.605.058-2.521.022-2.984-.361-4.824-.598-11.382 4.45-13.933 5.536-2.795 13.242-.585 13.242-.585s6.883 2.263 11.58-1.103c4.702-3.358 2.1-5.996 2.1-5.996z"/></defs><use xlink:href="#SVGID_1_" overflow="visible" fill="#78a3ad"/><clipPath id="SVGID_2_"><use xlink:href="#SVGID_1_" overflow="visible"/></clipPath></g></g><path d="M62.958 2.398c.75 1.05 1.209 2.473 1.665 3.674.415 1.089.174 2.393-.469 3.366-.66 1.009-1.777 1.902-2.75 2.585-1.991 1.397-3.991 2.647-6.232 3.647-1.111.5-2.249.768-3.434 1.063-1.111.286-2.271.661-3.441.651-1.044-.009-2.174.125-3.214 0-1.304-.156-2.009-.116-2.777-1.214-.714-1.036-1.375-2.022-1.875-3.191-.696-1.621-.808-2.755.357-4.188 2.206-2.719 5.727-4.299 8.803-5.688C52.476 1.8 55.779.75 58.904.755c1.857.004 2.982.138 4.054 1.643z" fill="#f79329"/></g><path d="M25.878 33.348c1.915-1.302 2.589-2.067 2.785-3.139.264-1.442-.817-3.177-1.723-4.373-.831-1.095-2.749-.938-4.893.041-2.143.977-6.668 3.033-7.236 3.382-.79.482-1.522 1.054-1.951 1.711-1.214 1.855-.402 4.514 1.259 5.855 1.001.808 2.264.776 3.536.421 1.384-.385 6.969-3.045 8.223-3.898z" fill="#fff"/><path d="M43.896 29.511c3.491-.473 7.691-1.98 8.856-2.341 4.348-1.346 9.772-3.763 14.786-6.786 5.214-3.143 7.063-6.636 9.928-8.5 2.246-1.46 5.33-2.047 7.724-3.134.259-.12 1.638-.719 1.848-1.438.356-1.214-1.216-1.643-3.728-1.705-1.192-.029-6.558-.009-11.647 1.504-.285.083-1.521.498-1.839 1.415-1.428 4.143-2.5 6.214-6.643 8.571-3.781 2.152-7.929 4.094-13.142 5.511-5.214 1.417-5.901-1.243-8.5-.163-.607.25-1.392.596-2.053.951-1.446.772-1.241 1.776-.938 2.379.469.936 1.17 2.121 1.492 2.75.641 1.249 2.802 1.129 3.856.986z" fill="#fff"/></g></svg>