<svg id="レイヤー_1" xmlns="http://www.w3.org/2000/svg" viewBox="0 0 128 128"><g><g><path d="M106.661 54.627c1.523.568 3.077-.406 3.806-1.908.726-1.506.663-3.443-.647-4.619 0 0-18.532-14.994-20.352-16.209-1.819-1.213-4.802-1.414-6.244.742-1.64 2.434-1.149 4.383 1.897 6.6 3.045 2.21 21.54 15.394 21.54 15.394z" fill="#fff"/><path d="M105.819 56.867a2.253 2.253 0 0 1-.547-.293s-18.51-13.191-21.561-15.406c-4.062-2.953-4.893-6.279-2.478-9.871 1.153-1.719 3.065-2.703 5.255-2.703 1.52 0 3.051.463 4.308 1.305 1.857 1.236 18.627 14.795 20.629 16.42 1.999 1.797 2.482 4.791 1.198 7.439-1.011 2.082-2.998 3.43-5.064 3.43a4.912 4.912 0 0 1-1.74-.321zM85.212 33.965c-.667.996-1.07 1.592 1.318 3.332 2.773 2.014 18.356 13.123 21.107 15.086.168-.061.468-.285.673-.709.285-.594.349-1.4.004-1.713-7.415-6.002-18.907-15.23-20.18-16.078a3.071 3.071 0 0 0-1.647-.498c-.885 0-1.177.437-1.275.58z" fill="#2f2f2f"/></g><g><path fill="#fff" d="M65.306 68.613h13.726v5.006H65.306z"/><path d="M65.306 78.176h13.726a4.553 4.553 0 0 0 4.552-4.557v-5.006a4.55 4.55 0 0 0-4.552-4.553H65.306a4.552 4.552 0 0 0-4.556 4.553v5.006a4.556 4.556 0 0 0 4.556 4.557z" fill="#2f2f2f"/></g><g><path fill="#fff" d="M70.85 75.67h1.838v28.623H70.85z"/><path d="M70.85 107.248h1.838a2.955 2.955 0 0 0 2.957-2.955V75.67a2.952 2.952 0 0 0-2.957-2.955H70.85a2.952 2.952 0 0 0-2.957 2.955v28.623a2.955 2.955 0 0 0 2.957 2.955z" fill="#2f2f2f"/></g><g><path fill="#fff" d="M71.584 105.213v15.998"/><path d="M71.584 123.607a2.396 2.396 0 0 0 2.395-2.396v-15.998a2.394 2.394 0 0 0-2.395-2.396 2.397 2.397 0 0 0-2.396 2.396v15.998a2.399 2.399 0 0 0 2.396 2.396z" fill="#2f2f2f"/></g><g><g><path transform="rotate(152.092 84.102 91.514)" fill="#fff" d="M82.978 73.999h2.253v35.03h-2.253z"/><path d="M91.295 110.484c.479 0 .955-.121 1.385-.346l1.991-1.055a2.962 2.962 0 0 0 1.231-3.996L79.53 74.121a2.965 2.965 0 0 0-3.994-1.234l-1.991 1.057a2.948 2.948 0 0 0-1.24 3.992l16.376 30.967a2.939 2.939 0 0 0 1.744 1.445c.286.09.578.136.87.136z" fill="#2f2f2f"/></g><g><path fill="#fff" d="M92.62 108.1l9.149 17.312"/><path d="M101.772 127.807a2.397 2.397 0 0 0 2.114-3.517l-9.148-17.309a2.41 2.41 0 0 0-3.238-1.002 2.399 2.399 0 0 0-.999 3.24l9.148 17.308a2.395 2.395 0 0 0 2.123 1.28z" fill="#2f2f2f"/></g></g><g><g><path transform="rotate(31.262 58.66 90.977)" fill="#fff" d="M57.542 73.47h2.251v35.029h-2.251z"/><path d="M50.535 109.496c.236 0 .472-.031.7-.082a2.963 2.963 0 0 0 1.827-1.34l18.192-29.939a2.958 2.958 0 0 0-.996-4.066l-1.928-1.166a2.952 2.952 0 0 0-4.058.994l-18.187 29.939a2.952 2.952 0 0 0 .991 4.057l1.925 1.172c.468.285.999.431 1.534.431z" fill="#2f2f2f"/></g><g><path fill="#fff" d="M49.18 107.033l-10.162 16.735"/><path d="M39.014 126.164c.809 0 1.599-.408 2.051-1.148l10.163-16.736a2.391 2.391 0 0 0-.801-3.291 2.4 2.4 0 0 0-3.294.801L36.97 122.521a2.392 2.392 0 0 0 .805 3.293c.385.239.816.35 1.239.35z" fill="#2f2f2f"/></g></g><g fill="#2f2f2f"><path d="M96.135 74.752c4.611 1.654 9.234-1.371 11.345-5.924 2.111-4.559 1.823-10.387-2.182-13.861l-38.791-28.09-15.178 28.164 44.806 19.711z"/><path d="M95.053 77.213L50.247 57.502a2.675 2.675 0 0 1-1.463-1.586 2.704 2.704 0 0 1 .175-2.154l15.179-28.168a2.695 2.695 0 0 1 1.77-1.346 2.729 2.729 0 0 1 2.179.445l38.79 28.092c.064.051.124.098.184.15 5.296 4.588 5.252 11.859 2.863 17.023-2.238 4.822-6.629 7.943-11.196 7.943-1.185.001-2.361-.208-3.675-.688zM67.417 30.859L55.084 53.752l41.961 18.469c2.938 1.057 6.349-.969 7.996-4.527 1.531-3.303 1.673-7.855-1.422-10.617L67.417 30.859z"/></g><g fill="#2f2f2f"><path d="M110.961 75.484c1.846.668 3.702-.547 4.548-2.373.846-1.83.73-4.166-.876-5.561L99.077 56.285l-6.083 11.293 17.967 7.906z"/><path d="M110.527 76.473L92.56 68.568a1.08 1.08 0 0 1-.517-1.498l6.083-11.297c.15-.273.408-.471.711-.539.307-.068.622-.004.872.18l15.632 11.322c2.123 1.842 2.104 4.76 1.146 6.824-.895 1.937-2.658 3.189-4.488 3.189a4.1 4.1 0 0 1-1.472-.276zm-16.028-9.412l16.826 7.41c1.179.43 2.542-.389 3.204-1.816.618-1.338.674-3.182-.528-4.23l-14.557-10.54-4.945 9.176z"/></g><g><path d="M86.283 71.156c5.248 1.881 10.515-1.555 12.914-6.744 2.403-5.189 2.074-11.822-2.485-15.773l-44.15-31.982-17.276 32.064 50.997 22.435z" fill="#ceced2"/><path d="M85.25 74.039a1.172 1.172 0 0 1-.198-.08L34.05 51.52a3.051 3.051 0 0 1-1.662-1.803 3.051 3.051 0 0 1 .199-2.449l17.275-32.064a3.077 3.077 0 0 1 2.014-1.533 3.106 3.106 0 0 1 2.482.508l44.151 31.979c.075.053.146.109.213.17 6.027 5.23 5.978 13.496 3.257 19.375-2.545 5.492-7.546 9.041-12.741 9.041a11.836 11.836 0 0 1-3.988-.705zM53.597 21.193l-14.04 26.059L87.41 68.307c3.331 1.129 7.154-1.176 9.01-5.184 1.684-3.639 1.886-8.951-1.621-12.09l-41.202-29.84z" fill="#2f2f2f"/></g><g><g fill="#2f2f2f"><path d="M28.38 24.98c-5.185 11.193-2.632 23.389 5.689 27.242 8.325 3.857 19.278-2.088 24.462-13.279 5.181-11.191 2.631-23.383-5.686-27.238C44.513 7.846 33.56 13.793 28.38 24.98z"/><path d="M32.83 54.898c-9.785-4.537-12.978-18.508-7.123-31.152 4.473-9.664 13.199-16.162 21.71-16.162 2.347 0 4.589.486 6.667 1.447 9.781 4.533 12.974 18.504 7.12 31.148-4.481 9.668-13.206 16.16-21.71 16.16a15.77 15.77 0 0 1-6.664-1.441zm-1.778-28.677c-4.492 9.699-2.579 20.164 4.256 23.332a9.88 9.88 0 0 0 4.185.9c6.255 0 12.831-5.123 16.365-12.748 4.488-9.699 2.583-20.162-4.253-23.328a9.878 9.878 0 0 0-4.189-.902c-6.258 0-12.834 5.119-16.364 12.746z"/></g><g><path d="M32.695 54.965l-13.401-6.723a3.064 3.064 0 0 1-1.34-4.162L39.452 3.06a3.047 3.047 0 0 1 1.964-1.549 3.045 3.045 0 0 1 2.467.434L54.56 9.166a3.058 3.058 0 0 1 1.062 3.824L36.846 53.512a3.042 3.042 0 0 1-1.767 1.602 3.064 3.064 0 0 1-2.384-.149zM43.289 8.939L24.827 44.162l7.79 3.906 16.351-35.287-5.679-3.842z" fill="#2f2f2f"/></g><g><path d="M16.723 18.297c-5.394 11.641-2.74 24.326 5.918 28.338 8.663 4.012 20.053-2.182 25.439-13.822 5.394-11.635 2.74-24.32-5.914-28.328C33.5.471 22.109 6.654 16.723 18.297z" fill="#40c0e7"/><path d="M21.354 49.416C11.171 44.697 7.848 30.16 13.941 17.01 18.595 6.953 27.672.193 36.524.193c2.437 0 4.769.51 6.933 1.51C48.54 4.06 52.07 8.84 53.392 15.164c1.25 5.992.352 12.717-2.531 18.936-4.656 10.062-13.73 16.824-22.583 16.824a16.38 16.38 0 0 1-6.924-1.508zm-1.853-29.832c-4.672 10.084-2.688 20.975 4.424 24.27 1.344.623 2.812.936 4.354.936 6.509 0 13.348-5.33 17.021-13.266 2.335-5.029 3.077-10.396 2.092-15.105-.913-4.383-3.227-7.635-6.509-9.156a10.31 10.31 0 0 0-4.357-.938c-6.515-.001-13.354 5.327-17.025 13.259z" fill="#2f2f2f"/></g><path d="M26.021 21.48c-.071-.004-.146 0-.221.004-2.706.146-3.47 5.75-3.769 7.674-.531 3.43-.149 7.285 2.325 9.928.869.926 2.598 1.85 3.814 1.014 1.65-1.127.183-2.705-.479-3.904-1.763-3.227-1.482-7.25-.284-10.617.497-1.403.624-4.028-1.386-4.099z" fill-rule="evenodd" clip-rule="evenodd" fill="#fff"/></g><g fill="#2f2f2f"><path d="M106.567 45.756c-.311 1.642.086 2.514-.966 3.916-.584.775-1.247 1.523-2.078 2.029.232.291.536.473.816.727.729.65 1.504 1.426 2.411 1.807 1.467.617 3.058.445 3.825-1.152.408-.854.554-2.154.441-3.088-.172-1.443-1.983-2.711-3.081-3.484-.237-.169-1.098-.82-1.368-.755z"/><path d="M106.332 55.227c-.955-.4-1.737-1.107-2.426-1.736l-.288-.262c-.082-.072-.165-.137-.247-.203-.214-.172-.461-.367-.689-.65a1.078 1.078 0 0 1 .281-1.595c.741-.449 1.336-1.176 1.774-1.76.525-.691.551-1.137.603-1.953.026-.449.056-.935.165-1.51a1.09 1.09 0 0 1 .808-.85c.58-.141 1.206.174 2.25.922 1.235.867 3.297 2.32 3.53 4.236.12 1.02-.004 2.555-.543 3.684-.64 1.332-1.834 2.096-3.279 2.096-.633-.001-1.281-.142-1.939-.419zm.13-4.903a11.71 11.71 0 0 1-1.254 1.434l.149.135c.588.535 1.198 1.086 1.812 1.348 1.1.463 1.995.287 2.433-.627.292-.605.441-1.68.345-2.494-.105-.875-1.524-1.945-2.475-2.617-.059.843-.193 1.735-1.01 2.821z"/></g></g></svg>