<svg id="レイヤー_1" xmlns="http://www.w3.org/2000/svg" viewBox="0 0 128 128"><g><path d="M98.588 51.164c-4.229.917-7.883 3.279-9.586 7.348-1.029 2.466-2.465 8.849-6.423 7.197-1.891-.782-1.863-3.487-1.635-5.18.467-3.471 2.035-6.637 3.096-9.939 1.101-3.424 2.046-6.863 2.728-10.397 2.279-11.721 1.649-25.222-6.638-34.587-1.403-1.598-4.931-5.3-7.265-5.379-1.439-.04-.016 1.659.376 2.227a18.438 18.438 0 0 1 2.01 3.774c6.128 15.64-8.98 27.551-18.914 36.821-4.759 4.445-8.558 9.168-11.979 14.683-.336.533-1.086 2.306-2.055 1.938-1.149-.438-1.273-3.071-1.632-4.053-.677-1.884-1.727-3.927-3.083-5.402-2.609-2.856-6.264-4.787-10.212-4.532-.147.008-.583.08-1.11.199-.83.184-3.048.471-2.449 1.812.307.693 1.225.629 1.866.82 8.339 2.562 8.147 11.299 6.798 18.319-2.441 12.782-9.199 24.855-4.396 38.004 5.662 15.494 23.377 25.156 39.456 22.499 4.392-.725 9.455-2.137 13.392-4.26 4.185-2.259 8.78-5.354 12.052-8.833 4.21-4.468 6.886-10.196 7.684-16.269.926-7.021-1.312-13.643-3.351-20.266-2.459-8.003-5.287-21.056 4.934-24.975.503-.199 1.504-.35 1.855-.877 1.304-1.946-4.939-.813-5.519-.692z" fill="#ed6c30"/><path d="M68.13 106.065c2.123 1.779 5.091.908 7.093-.614 1.066-.807 1.995-1.853 2.585-3.056.255-.519.542-1.183.538-1.771-.004-.791-.475-1.565-.267-2.379 1.679-.327 3.758 4.502 3.968 5.625 1.677 8.834-6.642 16.108-14.668 17.523-13.552 2.368-21.336-9.496-19.78-20.044.97-6.558 5.371-11.065 9.846-15.566 3.707-3.726 7.145-6.926 8.35-11.784.212-.862.16-2.179-.086-3.033-.212-.733-.607-1.404-.631-2.193-.055-1.659 1.548.511 1.92.926 4.46 5.034 5.732 12.463 4.539 18.958-.774 4.204-3.765 7.195-4.818 11.218-.608 2.305-.552 4.537 1.411 6.19z" fill="#fcc21b"/></g></svg>