<svg id="レイヤー_1" xmlns="http://www.w3.org/2000/svg" viewBox="0 0 128 128"><g fill="#f79329"><path d="M104.737 64l16.251-27.316a4.69 4.69 0 0 0-4.032-7.088H84.271L68.033 2.299a4.69 4.69 0 0 0-8.064 0L43.731 29.596H11.046a4.684 4.684 0 0 0-4.078 2.374 4.676 4.676 0 0 0 .046 4.714L23.26 64 7.014 91.316a4.693 4.693 0 1 0 4.032 7.093h32.686l16.237 27.298a4.696 4.696 0 0 0 8.064 0l16.238-27.298h32.686a4.693 4.693 0 0 0 4.032-7.093L104.737 64zm3.967-25.021L99.28 54.823l-9.43-15.844h18.854zM93.818 64L78.933 89.025H49.064L34.179 64l14.886-25.021h29.868L93.818 64zM64.001 13.872l9.351 15.724H54.645l9.356-15.724zM19.293 38.979h18.854l-9.425 15.844-9.429-15.844zm0 50.046l9.429-15.848 9.425 15.848H19.293zm44.708 25.103l-9.356-15.719h18.707l-9.351 15.719zm25.85-25.103l9.43-15.848 9.424 15.848H89.851z"/><circle cx="64.001" cy="64.513" r="14.029"/></g></svg>