<svg id="レイヤー_1" xmlns="http://www.w3.org/2000/svg" xmlns:xlink="http://www.w3.org/1999/xlink" viewBox="0 0 128 128"><g><g><g><g><defs><path id="SVGID_1_" d="M126.683 14.001a7.132 7.132 0 0 1-2.353 3.142c-4.23 3.246-10.398 2.756-15.093 5.065-2.949 1.449-5.199 3.893-7.224 6.456-5.413 6.825-9.903 15.374-18.031 19.395-3.996 1.988-9.003 1.732-12.676 4.364a3.915 3.915 0 0 0-1.052 1.083c-.127.21-.445 1.429-.553 1.48-.621.283-9.366-13.226-9.405-13.804-.078-1.141 35.967-33.804 41.249-37.019 4.514-2.75 8.798-4.474 14.1-3.974 4.019.381 8.045 2.339 10.108 5.674 1.512 2.454 1.933 5.557.93 8.138z"/></defs><use xlink:href="#SVGID_1_" overflow="visible" fill="#855c52"/><clipPath id="SVGID_2_"><use xlink:href="#SVGID_1_" overflow="visible"/></clipPath><path d="M127.319 13.815c-.23.645-.523 1.273-.866 1.858-.229.401-.543.761-.841 1.115-.303.353-.642.693-1.027.957a3.142 3.142 0 0 1-1.525.578c-.217.02-.578.059-.778-.008-1.258-.395-1.468-2.671-1.961-3.7-1.517-3.176-3.962-5.838-6.735-7.972a24.9 24.9 0 0 0-2.802-1.868 21.09 21.09 0 0 0-2.553-1.241c-.729-.296-1.507-.506-2.113-1.038-1.282-1.121 3.678-2.236 4.226-2.453 1.109-.439 2.65-.529 3.838-.57 1.18-.047 2.348.098 3.493.393 2.147.538 4.391 1.409 6.128 2.815.914.747 1.795 1.705 2.431 2.702.322.506.563 1.077.769 1.635.327.907.577 1.849.732 2.796.224 1.352.034 2.721-.416 4.001z" clip-path="url(#SVGID_2_)" fill="#78a3ad"/></g><path d="M76.651 42.83c-1.189.037-2.431-.461-2.989-1.364-.562-.905-.792-1.857-.592-2.913.479-2.467 2.553-3.158 4.828-2.29 3.576 1.359 2.47 6.476-1.247 6.567z" fill="#78a3ad"/><path d="M100.904 21.134c-1.212.03-2.479-.481-3.046-1.392-.572-.92-.807-1.885-.597-2.961.484-2.523 2.597-3.239 4.915-2.348 3.644 1.397 2.523 6.599-1.272 6.701z" fill="#78a3ad"/><path d="M79.497 72.015c.156.44.363.892.401 1.301.177 1.82-.689 2.817-2.049 3.777-.079.047-.166.125-.245.185L8.221 124.806c-.92.546-1.918 1.34-2.881 1.977l-.025.017c-1.619 1.077-3.154 1.742-4.099.14-.254-.434-.371-.939-.445-1.458.016-15.27 2.779-28.505 15.133-42.582 16.902-19.259 45.067-42.597 45.067-42.597l18.526 31.712z" fill="#78a3ad"/></g></g><path d="M74.475 73.347l-5.231-8.95c.172 1.032.668 5.054-1.836 6.495-3.323 1.906-6.152-.872-8.928 1.084-2.924 2.065-1.907 5.937-4.514 7.692-3.038 2.052-5.776-.586-8.875 1.828-2.5 1.942-.935 5.073-3.343 6.688-3.85 2.567-5.5-.225-9.117 2.28-2.978 2.054-1.87 5.467-4.23 7.167-3.108 2.245-4.856-1.116-8.228 1.488-2.934 2.271-1.294 5.407-4.186 7.277-3.44 2.226-4.747-.625-8.351 1.948-.981 3.903-1.517 7.861-1.728 11.98l68.567-46.977z" fill="#64878e"/></g></svg>