<svg xmlns="http://www.w3.org/2000/svg" viewBox="0 0 128 128"><g id="图层_1"><g><g><path d="M57.426 93.961L29.328 77.739a1.12 1.12 0 0 1-.41-1.531l1.585-2.746a1.12 1.12 0 0 1 1.531-.41l28.098 16.222c.536.309.72.995.41 1.531l-1.585 2.746a1.12 1.12 0 0 1-1.531.41z" fill="#4ec3e4"/></g><path d="M39.597 95.812c-2.685 6.02 2.999 16.017 11.3 16.339-1.002.039-11.122.967-11.992.468-6.615-3.8-4.743-15.75-2.745-18.155l3.437 1.348z" fill="#78a1ab"/><path d="M52.582 93.559c13.125 10.562 25.282 12.746 34.157 10.808.425-.093-1.649-11.564 0-15.621-14.357 9.562-32.745 2.112-32.745 2.112l-1.412 2.701z" fill="#78a1ab"/><g><path d="M75.851 39.948l-3.641 4.779c21.468 11.136 20.165 31.457 10.357 44.321l-.005 6.034h15.163c13.751-22.499 3.528-48.115-21.874-55.134z" fill="#757575"/></g><g><path d="M43.63 75.28l4.544 2.61a1.226 1.226 0 0 0 1.635-.39l7.548-10.005-9.373-5.385-4.841 11.56a1.227 1.227 0 0 0 .487 1.61z" fill="#424242"/><path d="M38.043 64.633l-1.455-4.558a1.12 1.12 0 0 1 .663-1.385l10.384-4.811 3.002 9.403-11.251 2.095a1.12 1.12 0 0 1-1.343-.744z" fill="#757575"/><path transform="rotate(30 79.688 18.036)" fill="#78a1ab" d="M72.279 9.461h14.818v17.158H72.279z"/><path d="M91.994 15.922L75.567 6.438a2.174 2.174 0 0 1-.793-2.961 2.174 2.174 0 0 1 2.961-.793l16.427 9.484a2.174 2.174 0 0 1 .793 2.961 2.174 2.174 0 0 1-2.961.793z" fill="#2e2f2f"/><path d="M68.824 62.335L46.759 49.596 63.1 21.292a2.531 2.531 0 0 1 3.458-.927l17.68 10.207a2.531 2.531 0 0 1 .927 3.458L68.824 62.335z" fill="#e4e3de"/><g><path d="M51.443 66.961c6.093 3.518 13.884 1.43 17.402-4.663L46.781 49.559c-3.518 6.093-1.43 13.884 4.662 17.402z" fill="#bdbdbd"/></g><path d="M55.582 77.77l4.95-.026a1.157 1.157 0 0 0 1.15-1.095l1.414-11.754c-1.245-1.897-8.829-1.855-10.211.053l1.535 11.739a1.16 1.16 0 0 0 1.162 1.083z" fill="#757575"/></g><g><circle cx="78.99" cy="44.727" r="9.456" fill="#3f3f3f"/><circle cx="78.99" cy="44.727" r="4.475" fill="#eee"/></g><path d="M109.201 120.416H18.799a4.592 4.592 0 0 1-4.592-4.592v-2.483a4.592 4.592 0 0 1 4.592-4.592H109.2a4.592 4.592 0 0 1 4.592 4.592v2.483a4.591 4.591 0 0 1-4.591 4.592z" fill="#757575"/><g fill="#616161"><path d="M30.816 125.1h-5.493a2 2 0 0 1-2-2v-2.684h9.493v2.684a2 2 0 0 1-2 2z"/><path d="M102.677 125.1h-5.493a2 2 0 0 1-2-2v-2.684h9.493v2.684a2 2 0 0 1-2 2z"/></g><path d="M38.976 108.749c11.25 0 23.785-2.796 36.25-10.979 3.972-2.608 10.416-9.967 13.812-9.533 2.758.352 5.323.197 10.052 9.882 2.262 4.632 6.011 9.464 10.11 10.631-4.523 5.708-66.474 5.833-70.224-.001z" fill="#757575"/><g><circle cx="88.446" cy="95.083" r="10.261" fill="#3f3f3f"/><circle cx="88.505" cy="95.083" r="5.111" fill="#eee"/></g><g><path d="M55.777 96.725L27.679 80.503a1.12 1.12 0 0 1-.41-1.531l1.585-2.746a1.12 1.12 0 0 1 1.531-.41l28.098 16.222c.536.309.72.995.41 1.531l-1.585 2.746c-.31.536-.995.719-1.531.41z" fill="#757575"/></g><path d="M48.08 97.847L26.519 90.94a.693.693 0 0 0-.872.449l-.328 1.024-.762 2.378a1.04 1.04 0 0 0 .673 1.307l20.902 6.696a1.04 1.04 0 0 0 1.307-.673l.523-1.632.567-1.77a.693.693 0 0 0-.449-.872z" fill="#757575"/></g></g></svg>