<svg id="レイヤー_1" xmlns="http://www.w3.org/2000/svg" viewBox="0 0 128 128"><g><path d="M72.87 80.683c-2.716-2.547-5.386-5.137-7.914-7.871-1.917-2.069-7.534-5.896-5.84-9.352.927-1.882 3.381-5.081 5.638-5.238a2.54 2.54 0 0 1 .946.134c1.518.487 2.67 2.084 3.71 3.213a112.144 112.144 0 0 1 3.745 4.326c2.479 3 4.873 6.064 7.426 9.008 2.922 3.381 5.849 6.755 8.771 10.13 1.912 2.212 4.1 4.36 5.814 6.728.503.709.921 1.949.448 2.724-.542.907-1.281 1.938-2.035 2.667-.799.788-1.833 1.062-2.897.709-.735-.242-1.425-1.129-2.011-1.66-5.4-5.013-10.529-10.527-15.801-15.518z" fill="#fff"/><path d="M68.76 76.232c-2.71-2.548-5.386-5.135-7.914-7.869-1.917-2.069-7.534-5.898-5.839-9.352.927-1.883 3.38-5.081 5.636-5.238.301-.021.602.024.947.132 1.518.487 2.671 2.085 3.71 3.213a113.642 113.642 0 0 1 3.745 4.325c2.479 3.003 4.873 6.067 7.426 9.008 2.922 3.382 5.849 6.756 8.771 10.133 1.917 2.212 4.105 4.36 5.814 6.726.503.709.921 1.951.449 2.725-.543.906-1.281 1.936-2.036 2.666-.798.787-1.833 1.064-2.902.709-.725-.24-1.42-1.127-2.006-1.661-5.4-5.01-10.534-10.525-15.801-15.517z" fill="#2f2f2f"/><g><path d="M126.56 102.851c-.212-1.104-.385-2.347-.862-3.352a17.591 17.591 0 0 0-2.021-3.261c-1.483-1.931-3.321-3.665-5.435-4.89-1.424-.817-3.125-1.545-4.775-1.853-1.823-.344-3.665-.422-5.523-.501-1.528-.06-3.395-.129-4.923-.355-.971-.147-2.557-1.596-2.572-1.605L79.861 63.509s-7.741-9.057-8.574-11.065c-.946-2.298-1.957-5.776-1.957-10.142h-.004c.389-7.373.044-20.224-6.677-29.161C56.574 5.059 48.079 1.827 41.565.793A28.429 28.429 0 0 0 35.75.467c-3.207.137-6.755.531-9.78 1.675-.996.374-2.41 1.017-2.587 2.208-.188 1.243 1.104 2.443 1.917 3.203 2.779 2.553 5.578 5.096 8.377 7.627 2.444 2.217 5.396 4.968 6.327 6.898 1.074 2.218.862 9.412.862 13.334 0 2.12-2.227 2.878-2.227 2.878-3.43 1.173-10.683 3.725-12.807 3.577-1.217-.088-2.597-.709-3.893-1.536-.773-.494-5.77-4.663-7.534-6.081-2.207-1.765-4.411-3.489-6.741-5.421-.774-.651-2.08-1.794-3.14-1.97-.862-.139-1.562.609-1.7.787-.651.788-.99 1.892-.99 1.892s-1.173 4.643-.636 10.604c.695 7.62 3.839 17.129 12.378 23.674 9.116 6.966 23.376 6.435 30.906 5.548h-.005s.035 0 .044-.009c.424-.051.857-.1 1.232-.148 1.749-.099 5.055.227 8.425 3.379 4.47 4.179 26.935 27.388 30.808 31.389a15.271 15.271 0 0 1 1.774 2.611c1.276 2.317 2.266 6.999 2.551 8.378.848 4.081 2.933 6.621 6.2 9.146a16.638 16.638 0 0 0 8.357 3.37c1.552.168 3.119.078 4.657-.188 2.192-.374 5.869-1.161 6.766-3.587.379-1.034-.379-1.577-1.089-2.187-1.262-1.065-2.558-2.091-3.844-3.135-1.133-.917-2.745-1.873-3.519-3.125-.537-.866-.655-1.931-.675-2.926-.02-.848-.158-1.687-.158-2.534.01-1.122-.256-2.474.493-3.43.848-1.083 2.592-.956 3.824-1.093 2.237-.247 4.686-.494 6.618.896 1.877 1.34 3.66 2.869 5.524 4.257.946.711 3.088 2.917 3.813.76.878-2.602.793-5.686.282-8.337zm-53.213-22.45c-2.404-2.266-4.79-4.573-7.042-7.008-1.705-1.843-6.706-5.252-5.199-8.326.828-1.677 3.011-4.524 5.026-4.663.261-.019.532.021.837.118 1.351.434 2.375 1.854 3.302 2.859a95.957 95.957 0 0 1 3.331 3.853c2.212 2.672 4.346 5.401 6.617 8.023 2.602 3.005 5.208 6.01 7.811 9.017 1.704 1.97 3.646 3.883 5.173 5.991.449.631.823 1.734.399 2.425-.488.809-1.138 1.726-1.808 2.375-.714.699-1.637.946-2.587.63-.651-.217-1.262-1.005-1.784-1.478-4.807-4.464-9.375-9.372-14.076-13.816z" fill="#78a3ad"/></g><path d="M12.886 40.722c-1.3-1.162-3.587-3.206-4.055-3.601-.655-.564-1.415-.603-1.493.589-.187 2.723.286 7.92 2.922 11.864.655.986 1.108-.022 1.335-.771.148-.491 1.039-3.45 1.64-5.437.322-1.053.183-2.164-.349-2.644z" fill="#fff"/><path d="M32.956 5.419c1.729-.445 4.953-1.069 7.554-.351.414.12 1.321.399.286.863-1.833.829-3.864 1.772-4.548 2.067-.365.161-1.355.647-2.055 0-.581-.533-1.414-1.271-1.794-1.61-.621-.558-.197-.773.557-.969z" fill="#fff"/></g></svg>