<svg id="レイヤー_1" xmlns="http://www.w3.org/2000/svg" xmlns:xlink="http://www.w3.org/1999/xlink" viewBox="0 0 128 128"><g><g><defs><path id="SVGID_1_" d="M104.271.479c-1.469 0-3.726.472-6.19 2.728L65.813 32.81c-.898.825-2.725.825-3.622 0L29.919 3.207C27.461.95 25.199.479 23.725.479c-3.458 0-7.185 2.69-7.185 8.607v70.422c0 5.206 2.9 11.784 6.742 15.301l32.259 29.486c2.28 2.085 5.283 3.228 8.461 3.228 3.18 0 6.181-1.143 8.462-3.228l32.252-29.486c3.847-3.517 6.743-10.095 6.743-15.301V9.086c.001-5.917-3.726-8.607-7.188-8.607z"/></defs><use xlink:href="#SVGID_1_" overflow="visible" fill="#fcc21b"/><clipPath id="SVGID_2_"><use xlink:href="#SVGID_1_" overflow="visible"/></clipPath><g clip-path="url(#SVGID_2_)"><g><path fill="#757f3f" d="M119.326-23.682L64.271 24.876v116.007l55.055-48.409z"/></g></g></g></g></svg>