<svg id="レイヤー_1" xmlns="http://www.w3.org/2000/svg" viewBox="0 0 128 128"><g><path d="M112.556 31.556c-3.737-2.216-7.591-4.219-11.372-6.364-.815-.46-1.741-1.037-2.712-1.533-2.083-1.055-4.383-1.737-6.32-.115-.917.754-.589 2.323-.19 3.288.266.638.505 1.259.753 1.906.518 1.347 1.299 2.597 1.968 3.864 2.979 5.602 5.349 11.576 6.701 17.79.948 4.37 1.303 8.837 2.021 13.242l-.076-.044.129.346c.106.656.204 1.312.328 1.968.097.443.097.895.111 1.347-.009 1.693-.004 3.395 0 5.096.004 2.234-.859 4.787-1.981 6.737-.9 1.578-2.207 2.916-3.412 4.228-1.188 1.312-2.996 1.87-4.645 2.304-2.916.771-6.289.86-8.935-.753-2.628-1.595-5.238-3.572-6.453-6.55-2.207-5.434-3.399-11.266-4.042-16.983-.235-2.083-.456-4.051-.771-6.107-.15-.975-.16-1.977-.257-2.978-.049-.559-.187-1.162-.297-1.755v-4.077c-.004-2.757.083-6.568 2.734-8.164 1.538-.931 2.97-.931 4.562-.266 1.502.621 2.854 1.135 4.369.354.918-.461 1.299-.913 1.286-1.959-.009-.895.013-1.728-.173-2.588-.483-2.243-1.444-4.415-2.34-6.533-3.217-7.587-9.307-15.29-13.636-22.328-.67-1.099-1.393-2.313-2.424-3.128-.178-.143-1.534-.789-2.522-1.046A2.287 2.287 0 0 0 63.945.56a3.593 3.593 0 0 0-.833.133c-.886.231-2.029.523-2.771 1.108-1.032.815-1.741 2.029-2.419 3.128-4.326 7.038-10.415 14.74-13.632 22.328-.896 2.118-1.862 4.29-2.34 6.533-.182.86-.173 1.693-.178 2.588-.009 1.046.368 1.498 1.285 1.959 1.511.78 2.872.266 4.37-.354 1.591-.665 3.026-.665 4.56.266 2.65 1.596 2.744 5.407 2.739 8.164-.009 1.578 0 3.164 0 4.742l-.019.31c-.047.266-.087.523-.114.78-.088 1.001-.107 2.003-.257 2.978-.311 2.057-.532 4.024-.77 6.107-.64 5.717-1.828 11.549-4.038 16.983-1.211 2.978-3.82 4.955-6.458 6.55-2.64 1.613-6.013 1.524-8.93.753-1.648-.434-3.452-.993-4.648-2.304-1.201-1.312-2.508-2.65-3.409-4.228-1.116-1.95-1.985-4.503-1.981-6.737.004-1.702.009-3.403 0-5.096.014-.452.018-.904.107-1.347.133-.656.226-1.312.336-1.968l.124-.346-.076.044c.724-4.405 1.073-8.872 2.026-13.242 1.352-6.213 3.718-12.188 6.692-17.79.673-1.268 1.454-2.517 1.967-3.864.257-.647.497-1.268.754-1.906.408-.966.727-2.535-.182-3.288-1.936-1.622-4.24-.939-6.324.115-.971.496-1.896 1.073-2.712 1.533-3.78 2.146-7.632 4.148-11.372 6.364-3.604 2.136-20.064 10.246-12.224 15.839 2.012 1.436 4.396.656 6.462 1.516 2.606 1.099 2.862 2.685 2.269 5.23-.696 3.005-1.387 6.019-1.906 9.059-1.258 7.348-.939 17.24 3.315 23.764l.044.053c2.682 5.478 6.772 10.273 11.785 13.42 2.663 1.675 5.925 3.12 9.005 3.811.851.195 2.806.639 4.977.913.222.089.447.186.673.239a6.692 6.692 0 0 1 1.707.63c1.058.549 1.187 1.533 1.413 2.517.297 1.303.129 2.676.674 3.944.545 1.259 1.675 2.526 2.872 3.191 1.219.674 2.752 1.037 4.113 1.206 1.275.159 2.981.106 4.165.611.861.364 1.715 1.232 2.186 2.004.417.682.837 1.373 1.195 2.091.807 1.613 1.645 3.448 2.886 4.778.571.602 1.254.886 1.989 1.019l.28.019.59.035.584-.035.288-.036c.736-.115 1.418-.399 1.985-1.001 1.241-1.33 2.083-3.165 2.884-4.778.36-.718.785-1.41 1.198-2.091.474-.772 1.325-1.641 2.184-2.004 1.184-.505 2.895-.452 4.167-.611 1.365-.169 2.894-.532 4.113-1.206 1.201-.665 2.327-1.932 2.872-3.191.55-1.268.377-2.641.674-3.944.226-.984.359-1.968 1.414-2.517a6.755 6.755 0 0 1 1.706-.63c.23-.053.456-.15.678-.239 2.163-.274 4.121-.718 4.972-.913 3.08-.691 6.347-2.136 9.01-3.811 4.822-3.031 8.789-7.587 11.474-12.817.19-.195.368-.417.522-.656 4.254-6.524 4.574-16.416 3.32-23.764-.522-3.04-1.21-6.054-1.911-9.059-.589-2.544-.341-4.131 2.273-5.23 2.062-.86 4.446-.08 6.463-1.516 7.837-5.594-8.622-13.704-12.226-15.84z" fill="#fcc21b"/><path d="M74.376 112.198c-.948.292-1.871.23-2.845.31-1.285.107-2.535.15-3.833.15-.341 0-.678.026-1.02.036-.457.115-1.117.097-1.45.106-.435.009-.873-.018-1.315-.026-.439.009-.883.036-1.321.026-.323-.009-.983.009-1.45-.106-.331-.009-.673-.036-1.014-.036-1.29 0-2.548-.044-3.833-.15-.976-.08-1.893-.018-2.84-.31-2.682-.807-4.543-3.174-3.223-5.921.815-1.692 2.726-1.941 4.405-1.994 3.059-.106 6.197-.098 9.277.133 3.08-.23 6.217-.239 9.271-.133 1.684.053 3.594.302 4.41 1.994 1.319 2.747-.547 5.114-3.219 5.921z" fill="#f79329"/></g></svg>