<svg id="kaaba" xmlns="http://www.w3.org/2000/svg" viewBox="0 0 128 128"><g><g><path d="M64 118.509l-57.159-3.258A3.013 3.013 0 0 1 4 112.243V29.397c0-1.314.852-2.477 2.105-2.873L64 8.242v110.267z" fill="#2f2f2f"/><path d="M121.159 115.251L64 118.509V8.242l57.895 18.282A3.013 3.013 0 0 1 124 29.397v82.846a3.013 3.013 0 0 1-2.841 3.008z" fill="#454a4c"/><g><path fill="#fbc21a" d="M124 52.751L64 39.648v-9.94l60 15.324z"/><g><g><path fill="#ffca28" d="M64 49.465V60.1l4.233.61V50.25z"/><path fill="none" d="M124 68.74l-60-8.656V49.469l60 11.13z"/><g><path d="M75.89 57.944c-.014 2.044-.947 3.553-2.083 3.37-1.137-.183-2.047-1.988-2.033-4.032.014-2.044.947-3.553 2.083-3.37 1.137.183 2.047 1.988 2.033 4.032z" fill="#ffca28"/><path d="M74.995 53.975c-.008 1.217-.535 2.115-1.177 2.006-.642-.109-1.156-1.184-1.148-2.401.008-1.217 1.177-2.006 1.177-2.006s1.155 1.184 1.148 2.401z" fill="#fbc21a"/></g><g fill="#fbc21a"><path d="M100.331 61.855c-.012 1.838-.851 3.194-1.873 3.03-1.022-.164-1.841-1.788-1.828-3.625.012-1.838.851-3.194 1.873-3.03 1.022.164 1.841 1.787 1.828 3.625z"/><path d="M99.526 58.286c-.007 1.094-.481 1.902-1.058 1.804-.577-.098-1.04-1.064-1.032-2.158.007-1.094 1.058-1.804 1.058-1.804s1.039 1.064 1.032 2.158z"/></g><g fill="#fbc21a"><path d="M120.357 65.064c-.01 1.632-.663 2.836-1.459 2.69-.796-.146-1.434-1.587-1.424-3.219s.663-2.836 1.459-2.69c.796.146 1.434 1.587 1.424 3.219z"/><path d="M119.73 61.896c-.005.971-.374 1.688-.824 1.601-.45-.087-.81-.945-.804-1.916s.824-1.601.824-1.601.809.944.804 1.916z"/></g><g fill="#fbc21a"><path d="M79.11 52.272v9.992l14.66 2.115v-9.388z"/><path d="M102.794 56.665v9.016l12.401 1.803v-8.51z"/><path d="M124 60.599l-1.442-.261v8.217l1.442.185z"/></g><path fill="#fbc21a" d="M64 49.465V60.1l4.233.61V50.25z"/></g></g></g><g><path fill="#f79329" d="M64 39.648L4 52.751v-7.719l60-15.324z"/><g><path fill="none" d="M64 60.084L4 68.74v-8.141l60-11.13z"/><g fill="#f79329"><path d="M52.11 57.944c.014 2.044.947 3.553 2.083 3.37 1.137-.183 2.047-1.988 2.033-4.032-.014-2.044-.947-3.553-2.083-3.37-1.137.183-2.047 1.988-2.033 4.032z"/><path d="M53.005 53.975c.008 1.217.535 2.115 1.177 2.006.642-.109 1.156-1.184 1.148-2.401-.008-1.217-1.177-2.006-1.177-2.006s-1.155 1.184-1.148 2.401z"/></g><g><path d="M27.669 61.855c.012 1.838.851 3.194 1.873 3.03 1.022-.164 1.841-1.788 1.828-3.625-.012-1.838-.851-3.194-1.873-3.03s-1.841 1.787-1.828 3.625z" fill="#ff8f00"/><path d="M28.474 58.286c.007 1.094.481 1.902 1.058 1.804.577-.098 1.04-1.064 1.032-2.158-.007-1.094-1.058-1.804-1.058-1.804s-1.039 1.064-1.032 2.158z" fill="#f79329"/></g><g><path d="M7.643 65.064c.01 1.632.663 2.836 1.459 2.69.796-.146 1.434-1.587 1.424-3.219-.01-1.632-.663-2.836-1.459-2.69-.796.146-1.434 1.587-1.424 3.219z" fill="#ff8f00"/><path d="M8.27 61.896c.005.971.374 1.688.824 1.601.45-.087.81-.945.804-1.916s-.824-1.601-.824-1.601-.809.944-.804 1.916z" fill="#f79329"/></g><g><path fill="#f79329" d="M48.89 52.272v9.992l-14.66 2.115v-9.388z"/><path fill="#f79329" d="M25.206 56.665v9.016l-12.401 1.803v-8.51z"/><path fill="#ff8f00" d="M4 60.599l1.442-.261v8.217L4 68.74z"/></g><path fill="#f79329" d="M64 49.465l-4.188.777v10.462L64 60.1z"/></g></g></g><path d="M64 33.667c-5.672 0-7.684 4.97-14.917 6.416-7.078 1.416-7.5-1.583-13.083-.417-5.644 1.179-4.875 4.708-10.375 5.708-5.535 1.006-5.458-1.708-10.792-.625-5.197 1.056-5.74 5.031-10.802 5.031" fill="none" stroke="#ffb300" stroke-width="2" stroke-miterlimit="10"/><path d="M64 33.667c5.672 0 7.684 4.97 14.917 6.416 7.078 1.416 7.5-1.583 13.083-.417 5.644 1.179 5.417 4.917 10.917 5.917 5.535 1.006 4.917-1.917 10.25-.833 5.197 1.056 5.74 5.031 10.802 5.031" fill="none" stroke="#ffa000" stroke-width="2" stroke-miterlimit="10"/></g></svg>