<svg id="mosque" xmlns="http://www.w3.org/2000/svg" viewBox="0 0 128 128"><g><path fill="#f2c07c" d="M12.426 106v10H4.003v11.999h34.423V106z"/><g><path fill="#f2c07c" d="M97.997 116h26v11.999h-26z"/><g><path fill="#ffa726" d="M78.42 39.75h-5.028l.994-3.625h3.04z"/><path fill="#fbc21a" d="M75.708 36.125h1.718l.994 3.625h-2.441z"/><circle cx="75.982" cy="34.976" r="2.796" fill="#ffa726"/><path d="M75.982 32.18a2.796 2.796 0 0 1 0 5.592s-.513-.875-.513-2.688c0-1.814.513-2.904.513-2.904z" fill="#fbc21a"/><circle cx="75.982" cy="31.049" r="1.771" fill="#ffa726"/><path d="M75.982 29.278a1.771 1.771 0 0 1 0 3.542s-.482-.613-.482-1.717.482-1.825.482-1.825z" fill="#ffca28"/><g><path d="M104.122 67.5c0 19.007-12.601 18.167-28.144 18.167s-28.144.84-28.144-18.167 28.144-28.75 28.144-28.75 28.144 9.743 28.144 28.75z" fill="#fbc21a"/><path d="M75.978 38.75S47.834 48.493 47.834 67.5s12.601 18.167 28.144 18.167c0 0-5.859.292-5.859-17.542s5.859-29.375 5.859-29.375z" fill="#f79329"/></g><path fill="#f2c07c" d="M38.433 73.667h75.09V128h-75.09z"/><path fill="#ffdcae" d="M42.433 77.667h67.09v46.331h-67.09z"/><path d="M89.403 109.614V128H62.532v-18.386c0-7.413 13.444-14.604 13.444-14.604s13.427 7.191 13.427 14.604z" fill="#b79178"/><g><path d="M75.977 95.01s-13.444 7.191-13.444 14.604v3.833c0-7.413 13.444-14.604 13.444-14.604s13.426 7.191 13.426 14.604v-3.833c0-7.413-13.426-14.604-13.426-14.604z" fill="#855c52"/></g><path d="M103.519 93.897v11.241h-9.961V93.897c0-2.748 4.984-5.413 4.984-5.413s4.977 2.665 4.977 5.413z" fill="#b79178"/><path d="M58.398 93.897v11.241h-9.961V93.897c0-2.748 4.984-5.413 4.984-5.413s4.977 2.665 4.977 5.413z" fill="#b79178"/><g fill="#855c52"><path d="M98.542 88.484s-4.984 2.665-4.984 5.413v2.375c0-2.748 4.984-5.413 4.984-5.413s4.977 2.665 4.977 5.413v-2.375c0-2.748-4.977-5.413-4.977-5.413z"/><path d="M53.421 88.484s-4.984 2.665-4.984 5.413v2.375c0-2.748 4.984-5.413 4.984-5.413s4.977 2.665 4.977 5.413v-2.375c0-2.748-4.977-5.413-4.977-5.413z"/></g></g><g><path fill="#ffdcae" d="M32.426 127.999h-14V28l6.917-24.333L32.426 28z"/><path fill="#fbc21a" d="M18.426 28l6.917-24.333L32.426 28h-14"/><path fill="#f2c07c" d="M25.093 127.999h-6.667V28l6.917-24.333L25.093 28z"/><path fill="#f79329" d="M18.426 28l6.917-24.333L25.093 28z"/><path fill="#ffdcae" d="M32.443 51.936H18.409l-3.983-4.395v-5.603h22v5.603z"/><path fill="#f2c07c" d="M32.449 51.936h-14.04l-3.983-4.395v-5.603h8.915v5.614h13.077z"/><path fill="#ffdcae" d="M32.443 77.603H18.409l-3.983-4.395v-5.604h22v5.604z"/><path fill="#f2c07c" d="M32.449 77.603h-14.04l-3.983-4.395v-5.604h8.915v5.614h13.077z"/><path fill="#f2c07c" d="M32.427 127.999h-8.666V91.333l8.666 15z"/></g></g><path fill="#855c52" d="M69.968 108h12v20h-12z"/><g><path fill="#fbc21a" d="M74.491 30.036l1.359-14.165 1.445 14.165h-2.804"/><path fill="#ffa726" d="M74.491 30.036l1.359-14.165-.024 14.165z"/></g></g></svg>