<svg id="レイヤー_1" xmlns="http://www.w3.org/2000/svg" viewBox="0 0 128 128"><g/><g fill="#f79229"><path d="M76.519 39.24c16.294-.254 24.826-7.418 31.316-23.447a1.944 1.944 0 0 0-.95-2.488l-6.373-3.059a1.93 1.93 0 0 0-2.634 1.037c-4.235 10.853-10.982 20.069-24.7 20.067-9.079-.002-16.217-5.89-20.554-15.294a.969.969 0 0 0-1.299-.477l-1.945.939a.974.974 0 0 0-.449 1.302c6.367 13.026 13.275 21.643 27.588 21.42z"/><path d="M104.075 52.487c-7.819-.468-16.845 2.558-23.91 13.491-4.719 7.302-9.841 18.59-16.365 18.856-5.341.218-6.873-.821-10.84-4.72 4.832-2.992 10.356-9.327 10.646-15.564.432-9.296-1.095-18.699-11.008-22.598-11.024-4.701-23.506.088-33.869 5.436A1.938 1.938 0 0 0 17.887 50l3.664 7.105a1.935 1.935 0 0 0 2.789.726 56.798 56.798 0 0 1 4.653-2.778c6.246-3.316 11.514-4.024 18.325-2.428 5.882 1.379 11.352 9.128 7.736 14.754-4.023 6.261-11.983 6.535-18.9 6.677a1.932 1.932 0 0 0-1.883 2.125l.651 6.578a1.93 1.93 0 0 0 2.234 1.719c2.02-.332 5.09-.802 7.023-.931 5.647-.377 10.177 7.09 10.18 12.218.006 7.856-4.984 15.495-13.539 15.738-11.52.328-22.986-7.583-31.657-20.533a.964.964 0 0 0-1.186-.353l-2.925 1.276a.973.973 0 0 0-.487 1.315c7.796 16.022 19.19 29.177 38.552 29.347 14.28.125 21.659-7.305 22.087-17.289.17-3.954-2.051-9.68-4.838-13.784 3.089 1.669 5.324 1.996 8.416 1.95 6.715-.101 12.029-6.013 17.575-16 8.311-14.965 11.64-19.127 19.209-19.047 7.144.075 11.455 6.991 10.908 19.511-.623 14.268-7.545 22.953-18.457 23.188-7.67.165-13.488-1.452-17.401-6.848-.325-.449-.945-.56-1.385-.223l-1.86 1.423a.975.975 0 0 0-.199 1.335c5.601 7.855 10.587 13.396 19.82 14.61 15.919.37 26.952-10.303 26.888-28.951-.061-18.647-8.209-29.249-19.805-29.943z"/><path d="M75.247 22.545a1.689 1.689 0 0 0 2.343-.189l7.561-8.579a1.7 1.7 0 0 0 .419-1.242 1.698 1.698 0 0 0-.594-1.169l-8.579-7.27a1.694 1.694 0 0 0-2.343.148l-7.852 8.579a1.694 1.694 0 0 0 .176 2.453l8.869 7.269z"/></g></svg>