<svg id="レイヤー_1" xmlns="http://www.w3.org/2000/svg" viewBox="0 0 128 128"><g><path d="M68 110h-7V27a2 2 0 0 1 2-2h3a2 2 0 0 1 2 2v83z" fill="#855c52"/></g><g><g><path d="M63.787 52.653C53.775 52.275 46 43.731 46 33.712V31a2 2 0 0 1 2-2h3a2 2 0 0 1 2 2v2.83c0 5.985 4.433 11.224 10.392 11.784C70.229 46.258 76 40.874 76 34.167V31a2 2 0 0 1 2-2h3a2 2 0 0 1 2 2v3.167c0 10.437-8.688 18.884-19.213 18.486z" fill="#855c52"/></g><g><path d="M64.448 67.329C46.337 67.033 32 51.834 32 33.722V31a2 2 0 0 1 2-2h3a2 2 0 0 1 2 2v2.79c0 14.238 11.218 26.246 25.453 26.538C79.135 60.629 91 48.777 91 34.167V31a2 2 0 0 1 2-2h3a2 2 0 0 1 2 2v3.167c0 18.472-15.009 33.465-33.552 33.162z" fill="#855c52"/></g><g><path d="M63.821 81.986C37.641 81.352 17 59.375 17 33.187V31a2 2 0 0 1 2-2h3a2 2 0 0 1 2 2v2.221c0 22.295 17.476 41.098 39.761 41.761C86.834 75.668 106 57.094 106 34.167V31a2 2 0 0 1 2-2h3a2 2 0 0 1 2 2v3.167c0 26.767-22.272 48.47-49.179 47.819z" fill="#855c52"/></g><g><path d="M63.529 96.659C29.235 96.136 2 67.515 2 33.218V31a2 2 0 0 1 2-2h3a2 2 0 0 1 2 2v2.324C9 63.781 33.185 89.196 63.639 89.66 94.634 90.132 120 65.056 120 34.167V31a2 2 0 0 1 2-2h3a2 2 0 0 1 2 2v3.167c0 34.785-28.566 63.025-63.471 62.492z" fill="#855c52"/></g></g><path d="M59.878 11.303c0 3.893 1.575 7.418 4.122 9.974 2.547-2.556 4.122-6.081 4.122-9.974S66.547 3.885 64 1.329a14.084 14.084 0 0 0-4.122 9.974z" fill="#ec6c30"/><path d="M74.878 15.303c0 3.893 1.575 7.418 4.122 9.974 2.547-2.556 4.122-6.081 4.122-9.974S81.547 7.885 79 5.329a14.084 14.084 0 0 0-4.122 9.974z" fill="#ec6c30"/><path d="M89.545 15.303c0 3.893 1.575 7.418 4.122 9.974 2.547-2.556 4.122-6.081 4.122-9.974s-1.575-7.418-4.122-9.974a14.084 14.084 0 0 0-4.122 9.974z" fill="#ec6c30"/><path d="M104.211 15.303c0 3.893 1.575 7.418 4.122 9.974 2.547-2.556 4.122-6.081 4.122-9.974s-1.575-7.418-4.122-9.974a14.089 14.089 0 0 0-4.122 9.974z" fill="#ec6c30"/><path d="M118.878 13.974c0 3.893 1.575 7.418 4.122 9.974 2.547-2.556 4.122-6.081 4.122-9.974S125.547 6.556 123 4a14.086 14.086 0 0 0-4.122 9.974z" fill="#ec6c30"/><path d="M44.878 15.303c0 3.893 1.575 7.418 4.122 9.974 2.547-2.556 4.122-6.081 4.122-9.974S51.547 7.885 49 5.329a14.084 14.084 0 0 0-4.122 9.974z" fill="#ec6c30"/><path d="M30.211 15.303c0 3.893 1.575 7.418 4.122 9.974 2.547-2.556 4.122-6.081 4.122-9.974s-1.575-7.418-4.122-9.974a14.089 14.089 0 0 0-4.122 9.974z" fill="#ec6c30"/><path d="M15.545 15.303c0 3.893 1.575 7.418 4.122 9.974 2.547-2.556 4.122-6.081 4.122-9.974s-1.575-7.418-4.122-9.974a14.084 14.084 0 0 0-4.122 9.974z" fill="#ec6c30"/><path d="M.878 15.303c0 3.893 1.575 7.418 4.122 9.974 2.547-2.556 4.122-6.081 4.122-9.974S7.547 7.885 5 5.329a14.084 14.084 0 0 0-4.122 9.974z" fill="#ec6c30"/><g><path d="M92.87 126.838H35.227c-1.537 0-2.499-1.661-1.735-2.995l.728-1.27A27 27 0 0 1 57.645 109h12.67a27 27 0 0 1 22.666 12.328l1.569 2.423c.86 1.331-.095 3.087-1.68 3.087z" fill="#855c52"/></g><path fill="none" stroke="#6b4b43" stroke-width="7" stroke-miterlimit="10" d="M205.878 24.014v84.657"/><g fill="none" stroke="#6b4b43" stroke-width="7" stroke-miterlimit="10"/></svg>