<svg id="图层_1" xmlns="http://www.w3.org/2000/svg" viewBox="0 0 128 128"><g><g><g><path d="M7.52 76.831l-.02-1.7c-.076-6.269-.154-12.75.798-18.98.801-5.255 2.78-12.901 7.656-19.481l2.094 1.553c-4.558 6.15-6.417 13.358-7.174 18.322-.918 6.018-.842 12.391-.767 18.555l.02 1.704-2.607.027z" fill="#558b2f"/></g><path d="M16.125 37.766c-.537-2.271-.722-6.004.81-8.304 1.98-2.972 5.365-3.892 7.999-3.892.823 0 2.017.145 2.678.633a4.02 4.02 0 0 0-1.295 1.473c-.535 1.044-.585 2.258-.784 3.414-.219 1.269-.789 3.441-2.337 4.962-1.704 1.674-5.251 2.369-6.992 2.509-.025-.264-.052-.53-.079-.795z" fill="#558b2f"/><path d="M8.511 29.615c1.262-.108 3.884 1.702 5.181 4.727 1.331 3.104.573 5.391.496 6.824-1.135-.041-4.121-2.523-4.868-4.027-1.434-2.888-.94-5.84-.809-7.524z" fill="#558b2f"/><path d="M3.1 37.834c1.214-.36 4.148.884 6.027 3.586 1.929 2.773 1.648 5.165 1.861 6.584-1.12.189-4.545-1.64-5.58-2.963-1.986-2.54-2.097-5.532-2.308-7.207z" fill="#558b2f"/><path d="M26.525 41.349c-.676-1.071-3.703-2.067-6.897-1.272-3.278.816-4.642 2.801-5.737 3.728.718.879 4.5 1.759 6.15 1.446 3.168-.603 5.222-2.78 6.484-3.902z" fill="#558b2f"/><path d="M23.684 49.452c-.609-1.11-3.569-2.29-6.806-1.692-3.321.613-4.804 2.511-5.955 3.37.663.922 4.384 2.032 6.05 1.82 3.199-.408 5.382-2.456 6.711-3.498z" fill="#558b2f"/></g><path d="M45.832 66.014c-.421-7.743-3.304-16.623 4.408-31.782 5.246-10.31 16.543-19.145 21.25-17.624 3.388 1.661-.551 8.482-3.802 12.153a.455.455 0 0 0 .418.752c1.456-.246 3.224-.266 3.945.618 1.739 2.13-.748 5.147-2.883 7.204-.33.318-.036.871.412.776 1.793-.382 3.668-.381 4.295.388 2.583 3.167-1.264 12.465-3.479 15.906-2.638 4.098-5.459 8.142-9.08 11.403-3.621 3.262-8.14 5.717-12.998 6.109-.2.016-.412.027-.593-.06-.259-.124-.398-.409-.498-.678-.849-2.292-1.158-3.191-1.395-5.165z" fill="#b0bec5"/><path d="M14.251 58.833c4.879-4.296 12.396-7.094 18.812-6.047 6.416 1.047 12.921 7.261 16.181 12.885.217.375.478.797.905.872.472.083.862-.322 1.207-.655 3.442-3.329 7.929-7.441 13.576-14.695 2.483-3.19 14.604-18.338 26.611-27.026 10.328-7.474 23.354-9.292 27.641-6.328 2.148 1.485 2.575 4.664 1.627 7.097s-4.164 5.127-6.664 6.315c3.125-.312 7.06 2.153 7.061 5.276.002 5.307-9.175 11.142-12.166 12.039 2.643.219 4.638 3.215 4.076 5.807-1.075 4.961-9.995 7.291-12.632 7.583 2.451.605 3.765 3.711 2.926 6.092-1.369 3.882-10.194 6.285-12.651 6.866 2.187 2.039 1.313 5.226-1.003 7.116-2.317 1.89-5.496 3.009-8.478 3.223 6.903-.752 15.214-2.019 22.152-2.13 6.313-.102 16.066 2.078 21.945 7.537-8.461 3.514-18.318 11.135-22.096 21.417-6.196-.264-10.719-3.847-15.607-7.664-.735-.574-1.496-1.206-2.42-1.337-.672-.095-1.351.091-1.991.319-2.652.947-15.126 7.357-30.788 6.603-12.036-.58-22.48-5.803-27.431-15.415-4.759-9.237-5.263-19.233-5.77-21.978-.507-2.745-2.902-4.175-5.315-4.852.33-2.768-.038-6.154.292-8.92z" fill="#e0e0e0"/><path d="M3.449 62.576a69.229 69.229 0 0 1 9.742-3.824c.412-.127.844-.251 1.268-.174.682.123.971.369 1.267.995.709 1.502.406 6.635.025 7.593-.274.69-.589 1.085-1.331 1.059-.275-.01-.541-.099-.801-.187l-2.92-.988c-2.377-.804-4.754-1.608-7.118-2.45-.312-.111-.8-.312-.931-.74-.148-.483.38-1.001.799-1.284z" fill="#ffca28"/><circle cx="28.112" cy="62.883" r="3.55"/></g><path d="M114.147 31.25c-2.331 1.421-4.19 2.41-6.521 3.48-.373.171-2.829 1.306-5.042 2.187-1.126.448-2.597.887-2.646 1.164-.001.545 1.4.241 2.49.02 2.794-.567 5.836-1.706 8.438-2.975.751-.367 5.131-2.799 6.189-3.461-.924-.427-2.069-.483-2.908-.415" fill="#b0bec5"/><path d="M109.042 48.565c-5.041 2.03-11.181 2.665-13.046 2.996-1.349.24-4.083.173-4.083.681 0 .38 2.403.376 3.797.383 5.287.03 11.126-.739 15.631-3.082-.45-.467-1.591-.978-2.299-.978z" fill="#b0bec5"/><path d="M100.486 61.955c-2.495.625-8.392 1.011-10.957 1.205-2.54.193-4.481-.108-4.605.349-.134.565 2.468.703 3.847.771 3.981.196 6.876.406 11.455-.372.425-.072 2.396-.501 2.268-.656-.417-.505-1.283-1.13-2.008-1.297z" fill="#b0bec5"/><path d="M90.761 74.913c-2.119.391-3.821.607-5.864.816-1.47.15-3.73.289-5.667.393-1.583.085-3.625-.185-3.625.232 0 .667 2.25.896 3.833.938 3.567.094 7.696.041 11.828-.954.181-.044.391-.216.367-.268-.179-.392-.563-.913-.872-1.157z" fill="#b0bec5"/></svg>