<svg id="synagogue" xmlns="http://www.w3.org/2000/svg" viewBox="0 0 128 128"><g><g><g><path fill="#f2c07c" d="M4 76.375h120V128H4z"/><path fill="#f2c07c" d="M4 80.667h120v4H4z"/><path fill="#855c52" d="M0 76.167h128v5.001H0z"/><path fill="#b79178" d="M118.688 63.75H9.312L0 76.375h128z"/><path fill="#ffdcae" d="M101.545 128h-75.09V42.413L64 13.663l37.545 28.75z"/><path fill="#ffe0b2" d="M101.545 49.921L64 21.171l-37.545 28.75v-6.877L64 14.294l37.545 28.75z"/><path fill="#855c52" d="M21.803 47.661L64 15.349l42.197 32.312v-8.432L64 6.917 21.803 39.229z"/><path d="M78.23 103.464v24.535H49.77v-24.535c0-7.851 4.019-15.467 14.24-15.467s14.22 7.616 14.22 15.467z" fill="#b79178"/></g></g><path fill="#855c52" d="M55 102.402h18V128H55z"/><g><path d="M43.594 108.522v12.07h-11v-12.07c0-3.035 1.553-6.758 5.504-6.758s5.496 3.724 5.496 6.758z" fill="#2b8bc1"/><path d="M36.083 113.917v6.675h-3.49v-12.07c0-3.035 1.553-6.758 5.504-6.758s5.496 3.723 5.496 6.758l-7.51 5.395z" fill="#196ca2"/></g><path d="M19.885 109.186v9.052h-8.25v-9.052c0-2.276 1.165-5.068 4.128-5.068s4.122 2.792 4.122 5.068z" fill="#196ca2"/><path d="M116.385 109.186v9.052h-8.25v-9.052c0-2.276 1.165-5.068 4.128-5.068s4.122 2.792 4.122 5.068z" fill="#0277bd"/><g><path d="M95.375 108.522v12.07h-11v-12.07c0-3.035 1.553-6.758 5.504-6.758 3.95.001 5.496 3.724 5.496 6.758z" fill="#2b8bc1"/><path d="M87.865 113.917v6.675h-3.49v-12.07c0-3.035 1.553-6.758 5.504-6.758 3.95 0 5.496 3.723 5.496 6.758l-7.51 5.395z" fill="#196ca2"/></g><g><circle cx="64" cy="55.619" r="24" fill="#196ca2"/><g><path d="M64 35.161c12.666 0 23.032 9.813 23.93 22.25.042-.579.07-1.161.07-1.75 0-13.255-10.745-24-24-24s-24 10.745-24 24c0 .589.029 1.171.07 1.75.898-12.437 11.264-22.25 23.93-22.25z" fill="#196ca2"/></g><g><g><path d="M64 35.659L45.948 67.087h36.105L64 35.659zm0 6.137l13 22.632H51l13-22.632z" fill="#fff"/></g><g><path d="M64 77.659L82.052 46.23H45.948L64 77.659zm0-6.138L51 48.889h26L64 71.521z" fill="#fff"/></g></g></g></g></svg>