<svg id="レイヤー_1" xmlns="http://www.w3.org/2000/svg" viewBox="0 0 128 128"><g><path d="M64.001 121.737c-31.838 0-57.735-25.902-57.735-57.732 0-31.839 25.897-57.741 57.735-57.741 31.835 0 57.729 25.901 57.729 57.741 0 31.83-25.894 57.732-57.729 57.732z" fill="#fff"/><g><path d="M64.001.105C28.769.105.103 28.767.103 64.005c0 35.229 28.666 63.889 63.898 63.889 35.234 0 63.895-28.661 63.895-63.889 0-35.237-28.661-63.9-63.895-63.9zm0 121.632c-31.838 0-57.735-25.902-57.735-57.732 0-31.839 25.897-57.741 57.735-57.741 31.835 0 57.729 25.901 57.729 57.741 0 31.83-25.894 57.732-57.729 57.732z" fill="#40c0e7"/><path d="M68.607 55.424V11.331h-9.206v44.084a9.724 9.724 0 0 0-3.98 3.984l-24.708-.009v9.211h24.708c1.651 3.07 4.849 5.173 8.58 5.173 5.4 0 9.785-4.375 9.785-9.783 0-3.722-2.112-6.921-5.179-8.567zm-1.193 9.956a3.722 3.722 0 0 1-1.961 2.01.427.427 0 0 0-.062.022 3.678 3.678 0 0 1-2.845-.022 3.684 3.684 0 1 1 4.868-4.76c.168.426.275.887.275 1.375s-.106.95-.275 1.375z" fill="#2f2f2f"/><circle cx="113.93" cy="64.005" r="3.683" fill="#2f2f2f"/><path d="M109.085 42.229a3.687 3.687 0 0 0 1.349-5.031 3.677 3.677 0 0 0-5.032-1.349 3.682 3.682 0 0 0-1.348 5.031 3.678 3.678 0 0 0 5.031 1.349z" fill="#2f2f2f"/><path d="M90.809 17.569a3.676 3.676 0 0 0-5.031 1.349 3.685 3.685 0 0 0 1.345 5.032 3.685 3.685 0 0 0 3.686-6.381z" fill="#2f2f2f"/><path d="M40.877 23.95a3.678 3.678 0 0 0 1.345-5.032 3.676 3.676 0 0 0-5.027-1.349 3.678 3.678 0 0 0-1.349 5.031 3.68 3.68 0 0 0 5.031 1.35z" fill="#2f2f2f"/><path d="M22.598 35.845a3.689 3.689 0 0 0-5.033 1.344 3.679 3.679 0 0 0 1.35 5.031 3.676 3.676 0 0 0 5.031-1.349 3.675 3.675 0 0 0-1.348-5.026z" fill="#2f2f2f"/><path d="M14.065 60.318A3.682 3.682 0 0 0 10.382 64a3.68 3.68 0 0 0 3.683 3.683 3.68 3.68 0 0 0 3.683-3.687 3.68 3.68 0 0 0-3.683-3.678z" fill="#2f2f2f"/><path d="M18.911 85.781a3.69 3.69 0 0 0-1.349 5.031 3.69 3.69 0 0 0 5.032 1.349 3.692 3.692 0 0 0 1.353-5.04 3.688 3.688 0 0 0-5.036-1.34z" fill="#2f2f2f"/><path d="M40.873 104.052a3.685 3.685 0 0 0-3.683 6.385 3.683 3.683 0 0 0 5.033-1.349 3.689 3.689 0 0 0-1.35-5.036z" fill="#2f2f2f"/><path d="M63.993 110.255a3.672 3.672 0 0 0-3.678 3.682 3.685 3.685 0 0 0 3.683 3.683 3.683 3.683 0 0 0-.005-7.365z" fill="#2f2f2f"/><path d="M87.123 104.061a3.669 3.669 0 0 0-1.345 5.026 3.679 3.679 0 0 0 5.027 1.349 3.676 3.676 0 0 0 1.349-5.032 3.68 3.68 0 0 0-5.031-1.343z" fill="#2f2f2f"/><path d="M109.085 85.781a3.682 3.682 0 0 0-5.031 1.349 3.677 3.677 0 0 0 1.348 5.032 3.691 3.691 0 0 0 5.032-1.349 3.686 3.686 0 0 0-1.349-5.032z" fill="#2f2f2f"/></g></g></svg>