<svg id="レイヤー_1" xmlns="http://www.w3.org/2000/svg" xmlns:xlink="http://www.w3.org/1999/xlink" viewBox="0 0 128 128"><g><g><g><g><defs><path id="SVGID_1_" d="M64.002 6.263c-31.834 0-57.736 25.902-57.736 57.742 0 31.83 25.902 57.731 57.736 57.731s57.732-25.9 57.732-57.731c0-31.84-25.898-57.742-57.732-57.742z"/></defs><use xlink:href="#SVGID_1_" overflow="visible" fill="#fff"/><clipPath id="SVGID_2_"><use xlink:href="#SVGID_1_" overflow="visible"/></clipPath></g><g><g><g><path d="M64.002 127.896C28.769 127.896.103 99.234.103 64.005c0-35.238 28.666-63.9 63.899-63.9s63.895 28.662 63.895 63.9c-.001 35.228-28.662 63.891-63.895 63.891zm0-121.633c-31.834 0-57.736 25.902-57.736 57.742 0 31.83 25.902 57.731 57.736 57.731s57.732-25.9 57.732-57.731c0-31.84-25.898-57.742-57.732-57.742z" fill="#40c0e7"/></g></g><path d="M117.617 64.005a3.685 3.685 0 0 1-7.37 0 3.687 3.687 0 0 1 3.687-3.684 3.687 3.687 0 0 1 3.683 3.684z" fill="#2f2f2f"/><path d="M110.434 37.196a3.692 3.692 0 0 1-1.349 5.033 3.677 3.677 0 0 1-5.032-1.35 3.673 3.673 0 0 1 1.349-5.031 3.677 3.677 0 0 1 5.032 1.348z" fill="#2f2f2f"/><path d="M90.809 17.569a3.686 3.686 0 0 1 1.349 5.031 3.676 3.676 0 0 1-5.031 1.348 3.68 3.68 0 0 1-1.354-5.031 3.681 3.681 0 0 1 5.036-1.348z" fill="#2f2f2f"/><path d="M37.194 17.569a3.678 3.678 0 0 1 5.027 1.348 3.675 3.675 0 0 1-1.345 5.031 3.674 3.674 0 0 1-5.031-1.348 3.68 3.68 0 0 1 1.349-5.031z" fill="#2f2f2f"/><path d="M17.566 37.188a3.68 3.68 0 0 1 5.031-1.34 3.673 3.673 0 0 1 1.349 5.021 3.684 3.684 0 1 1-6.38-3.681z" fill="#2f2f2f"/><path d="M10.383 64.005a3.68 3.68 0 0 1 3.683-3.684 3.676 3.676 0 0 1 3.683 3.674 3.686 3.686 0 0 1-3.683 3.691 3.68 3.68 0 0 1-3.683-3.681z" fill="#2f2f2f"/><path d="M17.562 90.812a3.69 3.69 0 0 1 1.349-5.031 3.69 3.69 0 0 1 5.036 1.34 3.687 3.687 0 1 1-6.385 3.691z" fill="#2f2f2f"/><path d="M37.19 110.44a3.695 3.695 0 0 1-1.354-5.031 3.693 3.693 0 0 1 5.036-1.357 3.69 3.69 0 0 1 1.349 5.039 3.684 3.684 0 0 1-5.031 1.349z" fill="#2f2f2f"/><path d="M90.805 110.44a3.69 3.69 0 0 1-5.031-1.35 3.672 3.672 0 0 1 1.349-5.031 3.677 3.677 0 0 1 5.031 1.35 3.68 3.68 0 0 1-1.349 5.031z" fill="#2f2f2f"/><path d="M110.434 90.812a3.687 3.687 0 0 1-5.032 1.35 3.677 3.677 0 0 1-1.349-5.031 3.684 3.684 0 0 1 5.032-1.35c1.761 1.011 2.36 3.275 1.349 5.031z" fill="#2f2f2f"/></g></g><g><g fill="#2f2f2f"><path d="M73.785 63.995c0 5.404-4.384 9.779-9.783 9.779a9.774 9.774 0 0 1-9.778-9.779 9.774 9.774 0 0 1 9.778-9.779c5.399 0 9.783 4.375 9.783 9.779z"/><path d="M59.401 60.604h9.206v56.057h-9.206z"/><path d="M73.785 63.995c0 5.404-4.384 9.779-9.783 9.779a9.774 9.774 0 0 1-9.778-9.779 9.774 9.774 0 0 1 9.778-9.779c5.399 0 9.783 4.375 9.783 9.779z"/></g><path fill="#2f2f2f" d="M59.516 67.563l2.383-8.884 35.455 9.496-2.383 8.9z"/><path d="M67.689 64.005a3.686 3.686 0 0 1-3.687 3.682 3.682 3.682 0 1 1 0-7.366 3.688 3.688 0 0 1 3.687 3.684z" fill="#fff"/></g></g><g><path d="M63.998 10.38a3.687 3.687 0 0 0-3.683 3.684 3.68 3.68 0 0 0 3.678 3.684 3.685 3.685 0 0 0 3.687-3.684 3.678 3.678 0 0 0-3.682-3.684z" fill="#2f2f2f"/></g></g></svg>