<svg id="レイヤー_1" xmlns="http://www.w3.org/2000/svg" viewBox="0 0 128 128"><g><path d="M64.002 121.735c-31.838 0-57.732-25.902-57.732-57.731 0-31.839 25.894-57.74 57.732-57.74 31.834 0 57.732 25.901 57.732 57.74 0 31.829-25.898 57.731-57.732 57.731z" fill="#fff"/><g><path d="M64.002.105C28.769.105.103 28.768.103 64.005c0 35.227 28.666 63.891 63.899 63.891 35.232 0 63.895-28.664 63.895-63.891-.001-35.237-28.663-63.9-63.895-63.9zm0 121.63c-31.838 0-57.732-25.902-57.732-57.731 0-31.839 25.894-57.74 57.732-57.74 31.834 0 57.732 25.901 57.732 57.74 0 31.829-25.898 57.731-57.732 57.731z" fill="#40c0e7"/><path d="M68.607 55.419V11.33H59.4v44.084c-3.07 1.651-5.178 4.854-5.178 8.577a9.773 9.773 0 0 0 9.779 9.781c3.723 0 6.925-2.102 8.581-5.172l24.713.004v-9.206H72.583a9.72 9.72 0 0 0-3.976-3.979zm-6.061 11.97a3.688 3.688 0 0 1-1.957-1.997c-.183-.43-.276-.9-.276-1.387 0-.497.093-.963.276-1.393a3.68 3.68 0 0 1 3.412-2.291 3.683 3.683 0 0 1 3.687 3.684 3.69 3.69 0 0 1-2.236 3.384c-.018.011-.036.015-.058.022a3.643 3.643 0 0 1-1.393.275c-.497 0-.967-.098-1.397-.275-.018-.008-.036-.012-.058-.022z" fill="#2f2f2f"/><path d="M113.934 60.321a3.686 3.686 0 0 0-3.687 3.684 3.684 3.684 0 1 0 3.687-3.684z" fill="#2f2f2f"/><path d="M109.085 42.228a3.686 3.686 0 0 0 1.348-5.031 3.675 3.675 0 0 0-5.031-1.348 3.683 3.683 0 1 0 3.683 6.379z" fill="#2f2f2f"/><path d="M87.127 23.95a3.684 3.684 0 1 0 3.683-6.381 3.676 3.676 0 0 0-5.032 1.348 3.68 3.68 0 0 0 1.349 5.033z" fill="#2f2f2f"/><path d="M37.194 17.569c-1.766 1.01-2.365 3.265-1.349 5.03 1.011 1.767 3.266 2.364 5.031 1.351a3.679 3.679 0 0 0 1.345-5.033 3.674 3.674 0 0 0-5.027-1.348z" fill="#2f2f2f"/><path d="M22.597 35.843a3.687 3.687 0 0 0-5.031 1.346 3.675 3.675 0 0 0 1.349 5.03 3.678 3.678 0 0 0 5.032-1.348c1.02-1.757.408-4.012-1.35-5.028z" fill="#2f2f2f"/><path d="M14.061 60.317a3.681 3.681 0 0 0-3.678 3.682 3.679 3.679 0 0 0 3.678 3.683 3.68 3.68 0 0 0 3.687-3.687 3.679 3.679 0 0 0-3.687-3.678z" fill="#2f2f2f"/><path d="M18.906 85.78c-1.753 1.012-2.356 3.266-1.344 5.031a3.69 3.69 0 0 0 5.031 1.35 3.701 3.701 0 0 0 1.354-5.041 3.692 3.692 0 0 0-5.041-1.34z" fill="#2f2f2f"/><path d="M40.873 104.05a3.689 3.689 0 0 0-5.033 1.354 3.688 3.688 0 0 0 1.35 5.03 3.681 3.681 0 0 0 5.032-1.348 3.688 3.688 0 0 0-1.349-5.036z" fill="#2f2f2f"/><path d="M63.993 110.254a3.676 3.676 0 0 0-3.679 3.683 3.687 3.687 0 0 0 3.683 3.682 3.67 3.67 0 0 0 3.679-3.682c.009-2.032-1.646-3.683-3.683-3.683z" fill="#2f2f2f"/><path d="M87.122 104.061a3.667 3.667 0 0 0-1.344 5.026 3.678 3.678 0 0 0 5.027 1.348 3.677 3.677 0 0 0 1.348-5.03 3.679 3.679 0 0 0-5.031-1.344z" fill="#2f2f2f"/><path d="M109.085 85.78a3.684 3.684 0 1 0-3.682 6.381 3.69 3.69 0 0 0 5.031-1.35 3.685 3.685 0 0 0-1.349-5.031z" fill="#2f2f2f"/></g></g></svg>