<svg id="レイヤー_1" xmlns="http://www.w3.org/2000/svg" viewBox="0 0 128 128"><g><path d="M64.002 121.734c-31.838 0-57.732-25.898-57.732-57.732 0-31.84 25.894-57.736 57.732-57.736 31.834 0 57.732 25.897 57.732 57.736 0 31.834-25.898 57.732-57.732 57.732z" fill="#fff"/><g><path d="M64.002.104C28.769.104.103 28.764.103 64.002c0 35.229 28.666 63.895 63.899 63.895 35.232 0 63.895-28.666 63.895-63.895C127.896 28.764 99.234.104 64.002.104zm0 121.63c-31.838 0-57.732-25.898-57.732-57.732 0-31.84 25.894-57.736 57.732-57.736 31.834 0 57.732 25.897 57.732 57.736 0 31.834-25.898 57.732-57.732 57.732z" fill="#40c0e7"/><path d="M69.148 55.715c-.172-.113-.359-.199-.541-.297V11.33H59.4v44.088c-3.07 1.645-5.178 4.842-5.178 8.57 0 5.412 4.374 9.787 9.779 9.787 5.4 0 9.783-4.375 9.783-9.787 0-.104-.026-.199-.031-.307L95.135 51.34l-4.601-7.975-21.386 12.35zm-3.695 11.672c-.018.01-.036.014-.058.021a3.61 3.61 0 0 1-2.79 0c-.019-.008-.037-.012-.059-.021a3.792 3.792 0 0 1-.816-.5 3.662 3.662 0 0 1-1.362-2.365 2.902 2.902 0 0 1-.054-.52 3.684 3.684 0 0 1 3.688-3.684 3.683 3.683 0 0 1 1.451 7.069z" fill="#2f2f2f"/><path d="M113.934 60.318a3.686 3.686 0 1 0-.002 7.372 3.686 3.686 0 0 0 .002-7.372z" fill="#2f2f2f"/><path d="M109.085 42.227a3.687 3.687 0 0 0 1.348-5.033 3.685 3.685 0 1 0-1.348 5.033z" fill="#2f2f2f"/><path d="M87.127 23.949a3.684 3.684 0 1 0 3.683-6.383 3.683 3.683 0 0 0-5.032 1.35 3.681 3.681 0 0 0 1.349 5.033z" fill="#2f2f2f"/><path d="M37.194 17.566a3.677 3.677 0 0 0-1.349 5.029 3.678 3.678 0 0 0 5.031 1.352 3.677 3.677 0 0 0 1.345-5.031 3.678 3.678 0 0 0-5.027-1.35z" fill="#2f2f2f"/><path d="M22.597 35.842a3.682 3.682 0 0 0-5.031 1.348 3.68 3.68 0 0 0 1.349 5.033 3.684 3.684 0 0 0 3.682-6.381z" fill="#2f2f2f"/><path d="M14.061 60.314a3.684 3.684 0 0 0 0 7.366 3.679 3.679 0 0 0 3.687-3.682 3.681 3.681 0 0 0-3.687-3.684z" fill="#2f2f2f"/><path d="M18.906 85.777a3.693 3.693 0 0 0-1.344 5.031 3.69 3.69 0 0 0 5.031 1.35 3.697 3.697 0 0 0 1.354-5.037 3.688 3.688 0 0 0-5.041-1.344z" fill="#2f2f2f"/><path d="M40.873 104.053a3.68 3.68 0 0 0-5.033 1.348 3.692 3.692 0 0 0 1.35 5.033 3.683 3.683 0 0 0 5.032-1.35 3.681 3.681 0 0 0-1.349-5.031z" fill="#2f2f2f"/><path d="M63.993 110.25a3.68 3.68 0 0 0-3.679 3.684 3.69 3.69 0 0 0 3.683 3.684 3.674 3.674 0 0 0 3.679-3.684 3.678 3.678 0 0 0-3.683-3.684z" fill="#2f2f2f"/><path d="M87.122 104.057a3.669 3.669 0 0 0-1.344 5.027 3.681 3.681 0 0 0 6.375-3.683 3.68 3.68 0 0 0-5.031-1.344z" fill="#2f2f2f"/><path d="M109.085 85.777a3.687 3.687 0 0 0-5.032 1.35 3.677 3.677 0 0 0 1.35 5.031 3.69 3.69 0 0 0 5.031-1.35 3.687 3.687 0 0 0-1.349-5.031z" fill="#2f2f2f"/></g></g></svg>