<svg id="レイヤー_1" xmlns="http://www.w3.org/2000/svg" viewBox="0 0 128 128"><g><path d="M64.002 121.735c-31.836 0-57.739-25.898-57.739-57.733 0-31.836 25.903-57.738 57.739-57.738 31.834 0 57.733 25.902 57.733 57.738.001 31.835-25.898 57.733-57.733 57.733z" fill="#fff"/><g><path d="M64.002.101C28.768.101.101 28.768.101 64.002c0 35.233 28.667 63.896 63.901 63.896 35.233 0 63.896-28.663 63.896-63.896 0-35.234-28.662-63.901-63.896-63.901zm0 121.634c-31.836 0-57.739-25.898-57.739-57.733 0-31.836 25.903-57.738 57.739-57.738 31.834 0 57.733 25.902 57.733 57.738.001 31.835-25.898 57.733-57.733 57.733z" fill="#40c0e7"/><path d="M68.608 55.416V11.33h-9.207v44.086c-3.07 1.65-5.178 4.846-5.178 8.572 0 3.736 2.107 6.939 5.178 8.59l-.004 24.714h9.206V72.578c3.071-1.65 5.178-4.854 5.178-8.59 0-3.722-2.108-6.922-5.173-8.572zm-3.213 11.998c-.429.177-.9.274-1.392.274-.498 0-.969-.098-1.398-.274-.018-.009-.03-.018-.057-.027a3.672 3.672 0 0 1-2.232-3.385c0-1.554.962-2.876 2.32-3.417a3.706 3.706 0 0 1 1.367-.266c.479 0 .936.098 1.357.266a3.674 3.674 0 1 1 .089 6.802c-.018.009-.032.018-.054.027z" fill="#2f2f2f"/><path d="M113.936 60.319a3.686 3.686 0 1 0 0 0z" fill="#2f2f2f"/><path d="M109.086 42.229a3.686 3.686 0 0 0 1.344-5.036 3.679 3.679 0 0 0-5.027-1.349 3.693 3.693 0 0 0-1.353 5.036 3.693 3.693 0 0 0 5.036 1.349z" fill="#2f2f2f"/><path d="M90.811 17.569a3.678 3.678 0 0 0-5.032 1.349 3.677 3.677 0 0 0 1.348 5.031 3.685 3.685 0 0 0 3.684-6.38z" fill="#2f2f2f"/><path d="M37.193 17.565a3.682 3.682 0 0 0-1.348 5.031 3.679 3.679 0 0 0 5.031 1.349 3.675 3.675 0 0 0 1.345-5.031 3.679 3.679 0 0 0-5.028-1.349z" fill="#2f2f2f"/><path d="M22.596 35.841a3.687 3.687 0 0 0-5.031 1.349 3.679 3.679 0 0 0 1.349 5.031 3.677 3.677 0 0 0 5.032-1.349 3.683 3.683 0 0 0-1.35-5.031z" fill="#2f2f2f"/><path d="M14.064 60.314a3.684 3.684 0 0 0-3.683 3.683 3.68 3.68 0 0 0 3.683 3.683c2.031.009 3.677-1.646 3.677-3.683a3.677 3.677 0 0 0-3.677-3.683z" fill="#2f2f2f"/><path d="M18.909 85.778a3.693 3.693 0 0 0-1.349 5.031 3.68 3.68 0 0 0 5.026 1.349 3.684 3.684 0 0 0 1.358-5.036 3.687 3.687 0 0 0-5.035-1.344z" fill="#2f2f2f"/><path d="M40.872 104.055a3.686 3.686 0 0 0-5.036 1.349 3.694 3.694 0 0 0 1.353 5.031c1.751 1.021 4.016.412 5.032-1.349a3.68 3.68 0 0 0-1.349-5.031z" fill="#2f2f2f"/><path d="M63.993 110.252a3.676 3.676 0 0 0-3.678 3.688 3.688 3.688 0 0 0 3.683 3.683 3.68 3.68 0 0 0 3.682-3.683 3.684 3.684 0 0 0-3.687-3.688z" fill="#2f2f2f"/><path d="M87.123 104.059a3.664 3.664 0 0 0-1.345 5.027c1.021 1.761 3.266 2.369 5.022 1.349a3.677 3.677 0 0 0 1.353-5.031 3.683 3.683 0 0 0-5.03-1.345z" fill="#2f2f2f"/><path d="M109.086 85.782a3.685 3.685 0 0 0-5.036 1.35 3.674 3.674 0 0 0 1.353 5.026 3.681 3.681 0 1 0 3.683-6.376z" fill="#2f2f2f"/></g></g></svg>