<svg id="レイヤー_1" xmlns="http://www.w3.org/2000/svg" viewBox="0 0 128 128"><g><path d="M64.002 121.734c-31.838 0-57.732-25.896-57.732-57.732 0-31.834 25.894-57.736 57.732-57.736 31.834 0 57.732 25.902 57.732 57.736 0 31.836-25.898 57.732-57.732 57.732z" fill="#fff"/><g><path d="M64.002.104C28.769.104.103 28.77.103 64.002c0 35.233 28.666 63.895 63.899 63.895 35.232 0 63.895-28.661 63.895-63.895C127.896 28.77 99.234.104 64.002.104zm0 121.63c-31.838 0-57.732-25.896-57.732-57.732 0-31.834 25.894-57.736 57.732-57.736 31.834 0 57.732 25.902 57.732 57.736 0 31.836-25.898 57.732-57.732 57.732z" fill="#40c0e7"/><path d="M76.665 32.868l-8.058 13.954V11.334H59.4v44.084c-3.07 1.648-5.178 4.85-5.178 8.576a9.776 9.776 0 0 0 9.779 9.782c5.4 0 9.783-4.376 9.783-9.782 0-1.895-.563-3.644-1.496-5.139L84.64 37.47l-7.975-4.602zm-14.06 34.547a.156.156 0 0 0-.059-.022 3.751 3.751 0 0 1-1.434-1.123 3.656 3.656 0 0 1-.799-2.268 3.687 3.687 0 0 1 3.688-3.683 3.686 3.686 0 0 1 3.687 3.683 3.698 3.698 0 0 1-2.236 3.391 3.738 3.738 0 0 1-1.451.296c-.187 0-.351-.027-.523-.055a3.724 3.724 0 0 1-.873-.219z" fill="#2f2f2f"/><path d="M113.934 60.319a3.69 3.69 0 0 0-3.687 3.687 3.685 3.685 0 1 0 3.687-3.687z" fill="#2f2f2f"/><path d="M109.085 42.23a3.685 3.685 0 1 0-5.033-1.348 3.685 3.685 0 0 0 5.033 1.348z" fill="#2f2f2f"/><path d="M90.81 17.57a3.679 3.679 0 0 0-5.032 1.35 3.679 3.679 0 0 0 1.349 5.031 3.686 3.686 0 0 0 5.032-1.348 3.689 3.689 0 0 0-1.349-5.033z" fill="#2f2f2f"/><path d="M37.194 17.566a3.68 3.68 0 0 0-1.349 5.03 3.673 3.673 0 0 0 5.031 1.351 3.675 3.675 0 0 0 1.345-5.031 3.684 3.684 0 0 0-5.027-1.35z" fill="#2f2f2f"/><path d="M22.597 35.846a3.685 3.685 0 0 0-5.031 1.344 3.68 3.68 0 0 0 1.349 5.033 3.678 3.678 0 0 0 5.032-1.35 3.68 3.68 0 0 0-1.35-5.027z" fill="#2f2f2f"/><path d="M14.061 60.319a3.682 3.682 0 0 0-3.678 3.683 3.683 3.683 0 1 0 3.678-3.683z" fill="#2f2f2f"/><path d="M18.906 85.778a3.693 3.693 0 0 0-1.344 5.03 3.679 3.679 0 0 0 5.031 1.35 3.694 3.694 0 0 0 1.354-5.035 3.696 3.696 0 0 0-5.041-1.345z" fill="#2f2f2f"/><path d="M40.873 104.054a3.681 3.681 0 0 0-5.033 1.354 3.69 3.69 0 0 0 1.35 5.03c1.757 1.021 4.016.407 5.032-1.35a3.684 3.684 0 0 0-1.349-5.034z" fill="#2f2f2f"/><path d="M63.993 110.251a3.68 3.68 0 0 0-3.679 3.688 3.69 3.69 0 0 0 3.683 3.683 3.673 3.673 0 0 0 3.679-3.683 3.678 3.678 0 0 0-3.683-3.688z" fill="#2f2f2f"/><path d="M87.122 104.059a3.673 3.673 0 0 0-1.344 5.03 3.684 3.684 0 0 0 5.027 1.35 3.679 3.679 0 0 0 1.348-5.03 3.682 3.682 0 0 0-5.031-1.35z" fill="#2f2f2f"/><path d="M109.085 85.782a3.682 3.682 0 0 0-5.032 1.35 3.671 3.671 0 0 0 1.35 5.026 3.681 3.681 0 1 0 3.682-6.376z" fill="#2f2f2f"/></g></g></svg>