<svg id="レイヤー_1" xmlns="http://www.w3.org/2000/svg" viewBox="0 0 128 128"><g><path d="M64.003 121.732C32.168 121.732 6.266 95.839 6.266 64S32.168 6.268 64.003 6.268c31.834 0 57.731 25.893 57.731 57.732s-25.897 57.732-57.731 57.732z" fill="#fff"/><g><path d="M64.003.101C28.77.101.103 28.772.103 64s28.667 63.899 63.9 63.899c35.232 0 63.895-28.671 63.895-63.899S99.235.101 64.003.101zm0 121.631C32.168 121.732 6.266 95.839 6.266 64S32.168 6.268 64.003 6.268c31.834 0 57.731 25.893 57.731 57.732s-25.897 57.732-57.731 57.732z" fill="#40c0e7"/><path d="M73.781 63.991c0-3.727-2.107-6.922-5.173-8.572V11.335h-9.207v44.084c-3.071 1.642-5.177 4.846-5.177 8.572 0 5.413 4.374 9.788 9.779 9.788.106 0 .208-.036.311-.036l12.343 21.386 7.977-4.597-12.348-21.385a9.695 9.695 0 0 0 1.495-5.156zm-9.778 3.7c-.498 0-.968-.106-1.398-.284-.018-.009-.031-.009-.058-.018a3.693 3.693 0 0 1-2.231-3.39c0-.869.31-1.659.812-2.28a3.696 3.696 0 0 1 2.329-1.349 3.57 3.57 0 0 1 .546-.054 3.688 3.688 0 0 1 3.686 3.683 3.696 3.696 0 0 1-2.24 3.39c-.018.009-.031.009-.055.018a3.627 3.627 0 0 1-1.391.284z" fill="#2f2f2f"/><path d="M113.935 60.317a3.687 3.687 0 1 0-.003 7.373 3.687 3.687 0 0 0 .003-7.373z" fill="#2f2f2f"/><path d="M109.085 42.225a3.677 3.677 0 0 0 1.345-5.031c-1.012-1.767-3.266-2.36-5.028-1.35a3.692 3.692 0 0 0-1.353 5.032 3.683 3.683 0 0 0 5.036 1.349z" fill="#2f2f2f"/><path d="M90.81 17.565a3.692 3.692 0 0 0-5.031 1.349 3.686 3.686 0 0 0 1.348 5.04 3.692 3.692 0 0 0 5.032-1.349 3.695 3.695 0 0 0-1.349-5.04z" fill="#2f2f2f"/><path d="M37.195 17.565a3.679 3.679 0 0 0-1.348 5.031 3.674 3.674 0 0 0 5.03 1.349 3.674 3.674 0 0 0 1.345-5.031 3.685 3.685 0 0 0-5.027-1.349z" fill="#2f2f2f"/><path d="M22.598 35.844a3.676 3.676 0 0 0-5.031 1.35 3.681 3.681 0 0 0 1.348 5.031 3.683 3.683 0 1 0 3.683-6.381z" fill="#2f2f2f"/><path d="M14.066 60.317a3.682 3.682 0 1 0 0 7.366A3.68 3.68 0 0 0 17.744 64a3.672 3.672 0 0 0-3.678-3.683z" fill="#2f2f2f"/><path d="M18.911 85.776a3.692 3.692 0 0 0-1.349 5.031 3.682 3.682 0 0 0 5.027 1.349 3.68 3.68 0 0 0 1.358-5.031 3.681 3.681 0 0 0-5.036-1.349z" fill="#2f2f2f"/><path d="M40.873 104.056a3.682 3.682 0 0 0-5.036 1.35 3.695 3.695 0 0 0 1.354 5.03c1.753 1.021 4.016.408 5.031-1.349a3.679 3.679 0 0 0-1.349-5.031z" fill="#2f2f2f"/><path d="M63.994 110.25a3.684 3.684 0 0 0 .004 7.366 3.675 3.675 0 0 0 3.682-3.683 3.68 3.68 0 0 0-3.686-3.683z" fill="#2f2f2f"/><path d="M87.123 104.056a3.672 3.672 0 0 0-1.344 5.031 3.684 3.684 0 0 0 5.022 1.349 3.677 3.677 0 0 0 1.354-5.03 3.675 3.675 0 0 0-5.032-1.35z" fill="#2f2f2f"/><path d="M109.085 85.776a3.697 3.697 0 0 0-5.036 1.349 3.682 3.682 0 0 0 1.353 5.031 3.68 3.68 0 0 0 5.028-1.349 3.681 3.681 0 0 0-1.345-5.031z" fill="#2f2f2f"/></g></g></svg>