<svg id="レイヤー_1" xmlns="http://www.w3.org/2000/svg" xmlns:xlink="http://www.w3.org/1999/xlink" viewBox="0 0 128 128"><g><g><g><g><defs><path id="SVGID_1_" d="M63.998 6.264c-31.834 0-57.732 25.902-57.732 57.74 0 31.83 25.898 57.732 57.732 57.732s57.732-25.902 57.732-57.732c-.001-31.838-25.898-57.74-57.732-57.74z"/></defs><use xlink:href="#SVGID_1_" overflow="visible" fill="#fff"/><clipPath id="SVGID_2_"><use xlink:href="#SVGID_1_" overflow="visible"/></clipPath></g><g><g><g><path d="M63.998 127.895c-35.233 0-63.895-28.66-63.895-63.891C.103 28.768 28.765.106 63.998.106s63.899 28.662 63.899 63.898c0 35.23-28.667 63.891-63.899 63.891zm0-121.631c-31.834 0-57.732 25.902-57.732 57.74 0 31.83 25.898 57.732 57.732 57.732s57.732-25.902 57.732-57.732c-.001-31.838-25.898-57.74-57.732-57.74z" fill="#40c0e7"/></g></g><path d="M117.612 64.004a3.685 3.685 0 0 1-7.37 0 3.68 3.68 0 0 1 3.687-3.682 3.678 3.678 0 0 1 3.683 3.682z" fill="#2f2f2f"/><path d="M110.429 37.197a3.683 3.683 0 1 1-5.031-1.35 3.679 3.679 0 0 1 5.031 1.35z" fill="#2f2f2f"/><path d="M90.805 17.568c1.762 1.021 2.365 3.266 1.349 5.031s-3.27 2.371-5.031 1.35c-1.761-1.021-2.37-3.275-1.349-5.031a3.678 3.678 0 0 1 5.031-1.35z" fill="#2f2f2f"/><path d="M37.19 17.568a3.672 3.672 0 0 1 5.027 1.35 3.678 3.678 0 0 1-1.344 5.031c-1.762 1.012-4.02.416-5.032-1.35a3.68 3.68 0 0 1 1.349-5.031z" fill="#2f2f2f"/><path d="M17.562 37.189a3.694 3.694 0 0 1 5.032-1.35c1.761 1.02 2.369 3.275 1.349 5.031a3.68 3.68 0 0 1-5.032 1.35 3.677 3.677 0 0 1-1.349-5.031z" fill="#2f2f2f"/><path d="M10.378 63.996a3.682 3.682 0 1 1 7.365 0 3.672 3.672 0 0 1-3.682 3.682 3.676 3.676 0 0 1-3.683-3.682z" fill="#2f2f2f"/><path d="M17.558 90.812a3.69 3.69 0 0 1 1.349-5.031 3.686 3.686 0 0 1 5.036 1.34 3.69 3.69 0 0 1-1.354 5.039 3.693 3.693 0 0 1-5.031-1.348z" fill="#2f2f2f"/><path d="M37.186 110.432a3.69 3.69 0 0 1-1.349-5.031 3.683 3.683 0 0 1 5.031-1.348c1.762 1.02 2.369 3.274 1.349 5.029a3.675 3.675 0 0 1-5.031 1.35z" fill="#2f2f2f"/><path d="M90.801 110.432a3.67 3.67 0 0 1-5.027-1.35 3.66 3.66 0 0 1 1.345-5.021 3.68 3.68 0 1 1 3.682 6.371z" fill="#2f2f2f"/><path d="M110.429 90.812a3.695 3.695 0 0 1-5.032 1.348 3.674 3.674 0 0 1-1.349-5.029 3.683 3.683 0 1 1 6.381 3.681z" fill="#2f2f2f"/></g></g><path fill="#2f2f2f" d="M59.396 60.605h9.207v56.055h-9.207z"/><g><g fill="#2f2f2f"><path d="M73.781 63.986c0 5.414-4.383 9.789-9.783 9.789-5.404 0-9.779-4.375-9.779-9.789 0-5.395 4.375-9.77 9.779-9.77 5.399.001 9.783 4.376 9.783 9.77z"/><path d="M73.781 63.986c0 5.414-4.383 9.789-9.783 9.789-5.404 0-9.779-4.375-9.779-9.789 0-5.395 4.375-9.77 9.779-9.77 5.399.001 9.783 4.376 9.783 9.77z"/></g><path fill="#2f2f2f" d="M61.895 69.334l-2.378-8.9 35.45-9.5 2.385 8.896z"/><path d="M67.685 64.004a3.686 3.686 0 0 1-3.687 3.684 3.685 3.685 0 0 1-3.687-3.684 3.68 3.68 0 0 1 3.687-3.682 3.68 3.68 0 0 1 3.687 3.682z" fill="#fff"/></g></g><g><path d="M63.993 10.381a3.688 3.688 0 0 0-3.683 3.684 3.683 3.683 0 0 0 7.365 0 3.675 3.675 0 0 0-3.682-3.684z" fill="#2f2f2f"/></g></g></svg>