<svg id="レイヤー_1" xmlns="http://www.w3.org/2000/svg" viewBox="0 0 128 128"><g><path d="M64.001 121.731C32.163 121.731 6.266 95.839 6.266 64c0-31.838 25.897-57.732 57.735-57.732 31.835 0 57.729 25.893 57.729 57.732s-25.894 57.731-57.729 57.731z" fill="#fff"/><g><path d="M64.001.101C28.769.101.103 28.767.103 64c0 35.233 28.666 63.899 63.898 63.899 35.234 0 63.895-28.666 63.895-63.899 0-35.233-28.661-63.899-63.895-63.899zm0 121.63C32.163 121.731 6.266 95.839 6.266 64c0-31.838 25.897-57.732 57.735-57.732 31.835 0 57.729 25.893 57.729 57.732s-25.894 57.731-57.729 57.731z" fill="#40c0e7"/><path d="M68.607 55.419V11.335h-9.206v44.084c-3.07 1.642-5.177 4.845-5.177 8.572 0 .106.022.213.03.32L32.869 76.654l4.602 7.977 21.385-12.352c1.496.932 3.248 1.499 5.146 1.499 5.4 0 9.785-4.375 9.785-9.788-.001-3.726-2.113-6.921-5.18-8.571zM67.689 64a3.692 3.692 0 0 1-2.236 3.39.236.236 0 0 1-.062.018 3.607 3.607 0 0 1-1.39.284c-.496 0-.962-.106-1.397-.284a.258.258 0 0 1-.058-.018 3.687 3.687 0 0 1 1.455-7.073c.87 0 1.661.32 2.286.821a3.61 3.61 0 0 1 1.344 2.32c.023.178.058.355.058.542z" fill="#2f2f2f"/><path d="M113.93 60.317A3.686 3.686 0 0 0 110.247 64a3.687 3.687 0 0 0 3.683 3.692A3.692 3.692 0 0 0 117.618 64a3.691 3.691 0 0 0-3.688-3.683z" fill="#2f2f2f"/><path d="M109.085 42.224a3.683 3.683 0 0 0 1.349-5.031c-1.012-1.767-3.271-2.361-5.032-1.35a3.687 3.687 0 0 0-1.348 5.032 3.675 3.675 0 0 0 5.031 1.349z" fill="#2f2f2f"/><path d="M90.809 17.564a3.691 3.691 0 0 0-5.031 1.349 3.695 3.695 0 0 0 1.345 5.041 3.696 3.696 0 0 0 5.035-1.349 3.694 3.694 0 0 0-1.349-5.041z" fill="#2f2f2f"/><path d="M40.877 23.944a3.675 3.675 0 0 0 1.345-5.031 3.68 3.68 0 1 0-6.376 3.682 3.675 3.675 0 0 0 5.031 1.349z" fill="#2f2f2f"/><path d="M22.598 35.843a3.678 3.678 0 0 0-5.033 1.35 3.684 3.684 0 1 0 5.033-1.35z" fill="#2f2f2f"/><path d="M14.065 60.317a3.683 3.683 0 1 0 0 7.366 3.683 3.683 0 0 0 0-7.366z" fill="#2f2f2f"/><path d="M18.911 85.776a3.692 3.692 0 0 0-1.349 5.031 3.686 3.686 0 0 0 5.032 1.349 3.681 3.681 0 0 0 1.353-5.031 3.682 3.682 0 0 0-5.036-1.349z" fill="#2f2f2f"/><path d="M40.873 104.055a3.676 3.676 0 0 0-5.031 1.349 3.69 3.69 0 0 0 1.348 5.031c1.758 1.021 4.016.408 5.033-1.349a3.682 3.682 0 0 0-1.35-5.031z" fill="#2f2f2f"/><path d="M63.993 110.249a3.678 3.678 0 0 0-3.678 3.683 3.684 3.684 0 0 0 3.683 3.682 3.676 3.676 0 0 0 3.683-3.682 3.684 3.684 0 0 0-3.688-3.683z" fill="#2f2f2f"/><path d="M87.123 104.055a3.677 3.677 0 0 0-1.345 5.032 3.688 3.688 0 0 0 5.027 1.349 3.676 3.676 0 0 0 1.349-5.031 3.676 3.676 0 0 0-5.031-1.35z" fill="#2f2f2f"/><path d="M109.085 85.776a3.69 3.69 0 0 0-5.031 1.349 3.675 3.675 0 0 0 1.348 5.031 3.686 3.686 0 0 0 5.032-1.349 3.686 3.686 0 0 0-1.349-5.031z" fill="#2f2f2f"/></g></g></svg>