<svg id="レイヤー_1" xmlns="http://www.w3.org/2000/svg" viewBox="0 0 128 128"><g><path d="M64.002 121.736c-31.839 0-57.737-25.897-57.737-57.737 0-31.83 25.898-57.731 57.737-57.731 31.834 0 57.732 25.902 57.732 57.731 0 31.839-25.898 57.737-57.732 57.737z" fill="#fff"/><g><path d="M64.002.101c-35.233 0-63.9 28.67-63.9 63.898 0 35.237 28.667 63.9 63.9 63.9s63.895-28.663 63.895-63.9c0-35.228-28.662-63.898-63.895-63.898zm0 121.635c-31.839 0-57.737-25.897-57.737-57.737 0-31.83 25.898-57.731 57.737-57.731 31.834 0 57.732 25.902 57.732 57.731 0 31.839-25.898 57.737-57.732 57.737z" fill="#40c0e7"/><path d="M69.97 56.297v-26.47h-1.362V11.335h-9.206v18.492h-1.367v26.471c-2.303 1.783-3.811 4.552-3.811 7.693 0 5.412 4.375 9.788 9.779 9.788 5.399 0 9.783-4.375 9.783-9.788-.001-3.141-1.514-5.901-3.816-7.694zm-9.033 9.753c-.066-.098-.115-.213-.173-.32a3.605 3.605 0 0 1-.448-1.73c0-.621.168-1.206.448-1.721.621-1.163 1.828-1.961 3.239-1.961 1.411 0 2.622.807 3.239 1.97.275.515.448 1.092.448 1.712 0 .63-.173 1.208-.448 1.722-.058.115-.106.226-.173.329a3.702 3.702 0 0 1-1.615 1.339c-.018.01-.04.018-.058.027a3.754 3.754 0 0 1-1.393.274 3.76 3.76 0 0 1-1.398-.274l-.058-.027a3.714 3.714 0 0 1-1.61-1.34z" fill="#2f2f2f"/><path d="M113.935 60.317a3.688 3.688 0 0 0-3.688 3.691 3.685 3.685 0 0 0 7.371 0 3.688 3.688 0 0 0-3.683-3.691z" fill="#2f2f2f"/><path d="M109.085 42.232a3.696 3.696 0 0 0 1.349-5.041 3.693 3.693 0 0 0-5.031-1.349 3.694 3.694 0 0 0-1.349 5.04 3.69 3.69 0 0 0 5.031 1.35z" fill="#2f2f2f"/><path d="M90.81 17.572a3.676 3.676 0 0 0-5.031 1.349c-1.021 1.757-.413 4.011 1.349 5.032a3.691 3.691 0 0 0 5.031-1.349 3.684 3.684 0 0 0-1.349-5.032z" fill="#2f2f2f"/><path d="M37.195 17.563a3.683 3.683 0 0 0-1.349 5.032 3.676 3.676 0 0 0 5.032 1.349 3.672 3.672 0 0 0 1.344-5.031 3.687 3.687 0 0 0-5.027-1.35z" fill="#2f2f2f"/><path d="M22.598 35.843a3.686 3.686 0 0 0-5.031 1.349 3.682 3.682 0 0 0 1.349 5.032 3.675 3.675 0 0 0 5.031-1.349 3.682 3.682 0 0 0-1.349-5.032z" fill="#2f2f2f"/><path d="M14.065 60.317a3.682 3.682 0 1 0 0 7.365c2.032.008 3.683-1.65 3.683-3.683a3.68 3.68 0 0 0-3.683-3.682z" fill="#2f2f2f"/><path d="M18.911 85.775a3.695 3.695 0 0 0-1.349 5.032 3.677 3.677 0 0 0 5.031 1.349 3.68 3.68 0 0 0 1.353-5.031 3.688 3.688 0 0 0-5.035-1.35z" fill="#2f2f2f"/><path d="M40.873 104.055a3.676 3.676 0 0 0-5.031 1.349 3.69 3.69 0 0 0 1.349 5.032c1.757 1.021 4.016.409 5.031-1.349a3.68 3.68 0 0 0-1.349-5.032z" fill="#2f2f2f"/><path d="M63.993 110.249a3.682 3.682 0 0 0-3.678 3.691 3.694 3.694 0 0 0 3.683 3.683 3.683 3.683 0 0 0 3.683-3.683 3.685 3.685 0 0 0-3.688-3.691z" fill="#2f2f2f"/><path d="M87.123 104.055a3.675 3.675 0 0 0-1.344 5.032 3.679 3.679 0 0 0 5.027 1.349 3.682 3.682 0 0 0 1.349-5.032 3.693 3.693 0 0 0-5.032-1.349z" fill="#2f2f2f"/><path d="M109.085 85.784a3.675 3.675 0 0 0-5.031 1.349 3.665 3.665 0 0 0 1.349 5.022 3.682 3.682 0 0 0 5.031-1.339 3.686 3.686 0 0 0-1.349-5.032z" fill="#2f2f2f"/></g></g></svg>