<svg id="レイヤー_1" xmlns="http://www.w3.org/2000/svg" viewBox="0 0 128 128"><g><path d="M64.002 121.735c-31.838 0-57.732-25.899-57.732-57.732 0-31.835 25.894-57.736 57.732-57.736 31.834 0 57.732 25.901 57.732 57.736 0 31.833-25.898 57.732-57.732 57.732z" fill="#fff"/><g><path d="M64.002.102C28.769.102.103 28.77.103 64.002c0 35.233 28.666 63.895 63.899 63.895 35.232 0 63.895-28.661 63.895-63.895-.001-35.231-28.663-63.9-63.895-63.9zm0 121.633c-31.838 0-57.732-25.899-57.732-57.732 0-31.835 25.894-57.736 57.732-57.736 31.834 0 57.732 25.901 57.732 57.736 0 31.833-25.898 57.732-57.732 57.732z" fill="#40c0e7"/><path d="M73.785 63.993c0-3.727-2.113-6.922-5.178-8.57V11.332H59.4v44.084c-3.07 1.651-5.178 4.851-5.178 8.577a9.776 9.776 0 0 0 9.779 9.784c1.89 0 3.643-.56 5.143-1.491L90.53 84.64l4.605-7.974L73.75 64.317c.004-.11.035-.213.035-.324zm-11.239 3.401a3.687 3.687 0 0 1-2.232-3.391c0-.184.023-.359.054-.532a3.656 3.656 0 0 1 1.349-2.34 3.653 3.653 0 0 1 2.285-.812 3.687 3.687 0 0 1 3.687 3.684 3.694 3.694 0 0 1-2.236 3.391c-.018.008-.036.012-.058.02-.431.18-.902.277-1.393.277a3.62 3.62 0 0 1-1.397-.277c-.019-.009-.037-.013-.059-.02z" fill="#2f2f2f"/><path d="M113.934 60.319a3.69 3.69 0 0 0-3.687 3.687 3.685 3.685 0 1 0 3.687-3.687z" fill="#2f2f2f"/><path d="M109.085 42.231a3.692 3.692 0 0 0 1.348-5.037 3.683 3.683 0 0 0-5.031-1.348 3.686 3.686 0 0 0 3.683 6.385z" fill="#2f2f2f"/><path d="M87.127 23.952a3.683 3.683 0 1 0 3.683-6.381 3.675 3.675 0 0 0-5.032 1.35 3.678 3.678 0 0 0 1.349 5.031z" fill="#2f2f2f"/><path d="M37.194 17.567a3.68 3.68 0 0 0-1.349 5.031 3.677 3.677 0 0 0 5.031 1.349 3.675 3.675 0 0 0 1.345-5.032 3.68 3.68 0 0 0-5.027-1.348z" fill="#2f2f2f"/><path d="M22.597 35.847a3.682 3.682 0 1 0-3.682 6.377 3.68 3.68 0 0 0 5.032-1.35 3.679 3.679 0 0 0-1.35-5.027z" fill="#2f2f2f"/><path d="M14.061 60.319a3.682 3.682 0 0 0-3.678 3.684 3.684 3.684 0 1 0 3.678-3.684z" fill="#2f2f2f"/><path d="M18.906 85.778a3.693 3.693 0 0 0-1.344 5.031 3.683 3.683 0 0 0 5.031 1.35 3.696 3.696 0 0 0 1.354-5.037 3.693 3.693 0 0 0-5.041-1.344z" fill="#2f2f2f"/><path d="M40.873 104.055a3.682 3.682 0 0 0-5.033 1.352 3.691 3.691 0 0 0 1.35 5.032c1.757 1.02 4.016.408 5.032-1.35a3.684 3.684 0 0 0-1.349-5.034z" fill="#2f2f2f"/><path d="M63.993 110.252a3.68 3.68 0 0 0-3.679 3.687 3.692 3.692 0 0 0 3.683 3.684 3.674 3.674 0 0 0 3.679-3.684 3.678 3.678 0 0 0-3.683-3.687z" fill="#2f2f2f"/><path d="M87.122 104.059a3.673 3.673 0 0 0-1.344 5.03 3.681 3.681 0 0 0 6.375-3.682 3.684 3.684 0 0 0-5.031-1.348z" fill="#2f2f2f"/><path d="M109.085 85.783a3.68 3.68 0 0 0-5.032 1.35 3.671 3.671 0 0 0 1.35 5.026 3.685 3.685 0 0 0 5.031-1.346 3.684 3.684 0 0 0-1.349-5.03z" fill="#2f2f2f"/></g></g></svg>