<svg id="レイヤー_1" xmlns="http://www.w3.org/2000/svg" viewBox="0 0 128 128"><g><path d="M64.001 121.734c-31.838 0-57.735-25.898-57.735-57.732S32.163 6.266 64.001 6.266c31.835 0 57.729 25.902 57.729 57.736s-25.894 57.732-57.729 57.732z" fill="#fff"/><g><path d="M64.001.102C28.769.102.103 28.769.103 64.001c0 35.233 28.666 63.895 63.898 63.895 35.234 0 63.895-28.661 63.895-63.895C127.896 28.77 99.235.102 64.001.102zm0 121.632c-31.838 0-57.735-25.898-57.735-57.732S32.163 6.266 64.001 6.266c31.835 0 57.729 25.902 57.729 57.736s-25.894 57.732-57.729 57.732z" fill="#40c0e7"/><path d="M68.607 55.417V11.333h-9.206v44.084c-3.07 1.65-5.177 4.845-5.177 8.572 0 1.898.558 3.655 1.494 5.155L43.366 90.525l7.974 4.605 12.348-21.386c.106.005.204.031.314.031 5.4 0 9.785-4.375 9.785-9.787-.001-3.717-2.113-6.921-5.18-8.571zm-6.003 11.997l-.058-.026a3.683 3.683 0 0 1 1.455-7.069c.188 0 .37.031.555.058a3.68 3.68 0 0 1 2.308 1.331c.51.63.825 1.42.825 2.294a3.678 3.678 0 0 1-2.298 3.412 3.678 3.678 0 0 1-2.787 0z" fill="#2f2f2f"/><path d="M113.93 60.319a3.686 3.686 0 1 0 3.688 3.687 3.69 3.69 0 0 0-3.688-3.687z" fill="#2f2f2f"/><path d="M109.085 42.23a3.685 3.685 0 1 0-3.683-6.385 3.69 3.69 0 0 0-1.348 5.036c1.011 1.762 3.268 2.361 5.031 1.349z" fill="#2f2f2f"/><path d="M90.809 17.57a3.676 3.676 0 0 0-5.031 1.35 3.685 3.685 0 0 0 1.345 5.031 3.688 3.688 0 0 0 5.035-1.349 3.683 3.683 0 0 0-1.349-5.032z" fill="#2f2f2f"/><path d="M37.195 17.566a3.68 3.68 0 0 0-1.349 5.031 3.679 3.679 0 0 0 5.031 1.349 3.675 3.675 0 0 0 1.345-5.031 3.679 3.679 0 0 0-5.027-1.349z" fill="#2f2f2f"/><path d="M22.598 35.842a3.69 3.69 0 0 0-5.033 1.349 3.681 3.681 0 0 0 1.35 5.031 3.676 3.676 0 0 0 5.031-1.349 3.68 3.68 0 0 0-1.348-5.031z" fill="#2f2f2f"/><path d="M14.065 60.315a3.685 3.685 0 0 0-3.683 3.683 3.68 3.68 0 0 0 3.683 3.683 3.676 3.676 0 0 0 3.683-3.683 3.684 3.684 0 0 0-3.683-3.683z" fill="#2f2f2f"/><path d="M18.911 85.778a3.692 3.692 0 0 0-1.349 5.031 3.686 3.686 0 0 0 6.385-3.686 3.688 3.688 0 0 0-5.036-1.345z" fill="#2f2f2f"/><path d="M40.873 104.054a3.679 3.679 0 0 0-5.031 1.349 3.683 3.683 0 1 0 5.031-1.349z" fill="#2f2f2f"/><path d="M63.993 110.252a3.676 3.676 0 0 0-3.678 3.687 3.682 3.682 0 1 0 7.366 0 3.684 3.684 0 0 0-3.688-3.687z" fill="#2f2f2f"/><path d="M87.123 104.058a3.67 3.67 0 0 0-1.345 5.027 3.676 3.676 0 0 0 5.027 1.349 3.675 3.675 0 0 0 1.349-5.031 3.687 3.687 0 0 0-5.031-1.345z" fill="#2f2f2f"/><path d="M109.085 85.782a3.678 3.678 0 0 0-5.031 1.35 3.67 3.67 0 0 0 1.348 5.026 3.689 3.689 0 0 0 5.032-1.344 3.686 3.686 0 0 0-1.349-5.032z" fill="#2f2f2f"/></g></g></svg>