<svg id="レイヤー_1" xmlns="http://www.w3.org/2000/svg" viewBox="0 0 128 128"><g><path d="M64.004 121.735c-31.839 0-57.737-25.899-57.737-57.733 0-31.838 25.898-57.736 57.737-57.736 31.834 0 57.732 25.899 57.732 57.736 0 31.834-25.898 57.733-57.732 57.733z" fill="#fff"/><g><path d="M64.004.104C28.771.104.105 28.766.105 64.002c0 35.229 28.666 63.895 63.899 63.895 35.232 0 63.89-28.665 63.89-63.895C127.895 28.765 99.237.104 64.004.104zm0 121.631c-31.839 0-57.737-25.899-57.737-57.733 0-31.838 25.898-57.736 57.737-57.736 31.834 0 57.732 25.899 57.732 57.736 0 31.834-25.898 57.733-57.732 57.733z" fill="#40c0e7"/><path d="M68.61 55.421V11.333h-9.207v44.085c-.182.097-.373.186-.545.296L37.481 43.362l-4.606 7.973 21.381 12.344c-.005.106-.031.204-.031.31 0 5.413 4.375 9.788 9.779 9.788 5.4 0 9.783-4.375 9.783-9.788.001-3.723-2.111-6.922-5.177-8.568zm-.977 9.118a3.659 3.659 0 0 1-1.348 2.339c-.252.2-.528.381-.829.51-.022.008-.04.014-.058.022a3.66 3.66 0 0 1-1.393.279c-.498 0-.967-.102-1.397-.279-.018-.009-.041-.014-.058-.022a3.684 3.684 0 0 1 1.456-7.068 3.685 3.685 0 0 1 3.686 3.682c-.002.182-.033.36-.059.537z" fill="#2f2f2f"/><path d="M113.936 60.32a3.687 3.687 0 0 0-3.691 3.682 3.691 3.691 0 0 0 3.691 3.688 3.685 3.685 0 0 0 0-7.37z" fill="#2f2f2f"/><path d="M109.086 42.227a3.685 3.685 0 1 0-3.686-6.382 3.685 3.685 0 0 0 3.686 6.382z" fill="#2f2f2f"/><path d="M90.812 17.566a3.686 3.686 0 0 0-3.683 6.385 3.683 3.683 0 0 0 5.031-1.349 3.69 3.69 0 0 0-1.348-5.036z" fill="#2f2f2f"/><path d="M40.878 23.946a3.686 3.686 0 0 0 1.35-5.032 3.686 3.686 0 0 0-5.031-1.349 3.681 3.681 0 0 0-1.35 5.032 3.68 3.68 0 0 0 5.031 1.349z" fill="#2f2f2f"/><path d="M22.6 35.842a3.685 3.685 0 0 0-5.031 1.349 3.682 3.682 0 0 0 1.349 5.032 3.681 3.681 0 0 0 5.031-1.349 3.683 3.683 0 0 0-1.349-5.032z" fill="#2f2f2f"/><path d="M14.068 60.315a3.686 3.686 0 0 0-3.683 3.683 3.68 3.68 0 0 0 3.683 3.682 3.676 3.676 0 0 0 3.683-3.682 3.68 3.68 0 0 0-3.683-3.683z" fill="#2f2f2f"/><path d="M18.913 85.778a3.693 3.693 0 0 0-1.349 5.032 3.691 3.691 0 0 0 5.031 1.349 3.688 3.688 0 0 0 1.354-5.036 3.685 3.685 0 0 0-5.036-1.345z" fill="#2f2f2f"/><path d="M40.875 104.054a3.68 3.68 0 0 0-5.032 1.349 3.692 3.692 0 0 0 1.344 5.032 3.695 3.695 0 0 0 5.04-1.345 3.693 3.693 0 0 0-1.352-5.036z" fill="#2f2f2f"/><path d="M63.996 110.252a3.674 3.674 0 0 0-3.678 3.682 3.687 3.687 0 0 0 3.687 3.683 3.678 3.678 0 0 0 3.678-3.683 3.682 3.682 0 0 0-3.687-3.682z" fill="#2f2f2f"/><path d="M87.124 104.058a3.67 3.67 0 0 0-1.344 5.031 3.678 3.678 0 0 0 5.022 1.345 3.671 3.671 0 0 0 1.348-5.032c-1.005-1.761-3.269-2.364-5.026-1.344z" fill="#2f2f2f"/><path d="M109.086 85.778a3.694 3.694 0 0 0-5.036 1.349 3.685 3.685 0 0 0 1.349 5.032 3.693 3.693 0 0 0 5.036-1.349 3.685 3.685 0 0 0-1.349-5.032z" fill="#2f2f2f"/></g></g></svg>