<svg id="レイヤー_1" xmlns="http://www.w3.org/2000/svg" xmlns:xlink="http://www.w3.org/1999/xlink" viewBox="0 0 128 128"><g><g><g><g><defs><path id="SVGID_1_" d="M64.002 6.268c-31.834 0-57.737 25.893-57.737 57.73 0 31.84 25.902 57.732 57.737 57.732 31.834 0 57.731-25.893 57.731-57.732.001-31.838-25.897-57.73-57.731-57.73z"/></defs><use xlink:href="#SVGID_1_" overflow="visible" fill="#fff"/><clipPath id="SVGID_2_"><use xlink:href="#SVGID_1_" overflow="visible"/></clipPath></g><g><g><g><path d="M64.002 127.898c-35.233 0-63.899-28.672-63.899-63.9S28.769.1 64.002.1c35.232 0 63.895 28.67 63.895 63.898s-28.662 63.9-63.895 63.9zm0-121.63c-31.834 0-57.737 25.893-57.737 57.73 0 31.84 25.902 57.732 57.737 57.732 31.834 0 57.731-25.893 57.731-57.732.001-31.838-25.897-57.73-57.731-57.73z" fill="#40c0e7"/></g></g><path d="M117.617 63.998a3.686 3.686 0 1 1-7.372.01 3.686 3.686 0 0 1 7.372-.01z" fill="#2f2f2f"/><path d="M110.434 37.191c1.012 1.766.413 4.02-1.349 5.031a3.676 3.676 0 0 1-5.032-1.35 3.678 3.678 0 0 1 1.349-5.031 3.688 3.688 0 0 1 5.032 1.35z" fill="#2f2f2f"/><path d="M90.809 17.562a3.695 3.695 0 0 1 1.349 5.041 3.691 3.691 0 0 1-5.031 1.348 3.69 3.69 0 0 1-1.353-5.039 3.697 3.697 0 0 1 5.035-1.35z" fill="#2f2f2f"/><path d="M37.195 17.562a3.686 3.686 0 0 1 5.027 1.35 3.675 3.675 0 0 1-1.344 5.031 3.674 3.674 0 0 1-5.031-1.35 3.68 3.68 0 0 1 1.348-5.031z" fill="#2f2f2f"/><path d="M17.566 37.191a3.679 3.679 0 0 1 5.031-1.35 3.685 3.685 0 1 1-3.687 6.381 3.686 3.686 0 0 1-1.344-5.031z" fill="#2f2f2f"/><path d="M10.383 63.998a3.685 3.685 0 0 1 3.683-3.682 3.677 3.677 0 0 1 3.682 3.682 3.683 3.683 0 0 1-7.365 0z" fill="#2f2f2f"/><path d="M17.562 90.807a3.691 3.691 0 0 1 1.349-5.031 3.682 3.682 0 0 1 5.036 1.348 3.681 3.681 0 0 1-1.354 5.031 3.686 3.686 0 0 1-5.031-1.348z" fill="#2f2f2f"/><path d="M37.19 110.434a3.693 3.693 0 0 1-1.353-5.029 3.68 3.68 0 0 1 5.036-1.35 3.68 3.68 0 0 1 1.349 5.031 3.685 3.685 0 0 1-5.032 1.348z" fill="#2f2f2f"/><path d="M90.805 110.434a3.69 3.69 0 0 1-5.031-1.348 3.671 3.671 0 0 1 1.349-5.031 3.674 3.674 0 0 1 5.031 1.35 3.68 3.68 0 0 1-1.349 5.029z" fill="#2f2f2f"/><path d="M110.434 90.807a3.686 3.686 0 0 1-5.032 1.348 3.676 3.676 0 0 1-1.349-5.031c1.012-1.756 3.266-2.359 5.032-1.348a3.69 3.69 0 0 1 1.349 5.031z" fill="#2f2f2f"/></g></g><path fill="#2f2f2f" d="M59.401 60.609h9.206v56.055h-9.206z"/><g><g fill="#2f2f2f"><path d="M73.786 63.99c0 5.412-4.384 9.787-9.783 9.787-5.404 0-9.779-4.375-9.779-9.787 0-5.396 4.375-9.77 9.779-9.77 5.399.001 9.783 4.374 9.783 9.77z"/><path d="M73.786 63.99c0 5.412-4.384 9.787-9.783 9.787-5.404 0-9.779-4.375-9.779-9.787 0-5.396 4.375-9.77 9.779-9.77 5.399.001 9.783 4.374 9.783 9.77z"/></g><path transform="scale(-1) rotate(-44.996 -180.02 180.028)" fill="#2f2f2f" d="M69.964 56.21h9.207v36.707h-9.207z"/><path d="M67.689 63.998a3.687 3.687 0 1 1-7.375 0 3.683 3.683 0 0 1 3.688-3.682 3.686 3.686 0 0 1 3.687 3.682z" fill="#fff"/></g></g><g><path d="M63.998 10.375a3.686 3.686 0 0 0-3.683 3.684 3.674 3.674 0 0 0 3.679 3.682 3.683 3.683 0 1 0 .004-7.366z" fill="#2f2f2f"/></g></g></svg>