<svg id="レイヤー_1" xmlns="http://www.w3.org/2000/svg" viewBox="0 0 128 128"><g><path d="M64.002 121.737c-31.839 0-57.737-25.903-57.737-57.733 0-31.838 25.898-57.741 57.737-57.741 31.834 0 57.732 25.903 57.732 57.741 0 31.83-25.898 57.733-57.732 57.733z" fill="#fff"/><g><path d="M64.002.105C28.769.105.102 28.766.102 64.003c0 35.229 28.667 63.891 63.9 63.891s63.895-28.662 63.895-63.891c0-35.236-28.662-63.898-63.895-63.898zm0 121.632c-31.839 0-57.737-25.903-57.737-57.733 0-31.838 25.898-57.741 57.737-57.741 31.834 0 57.732 25.903 57.732 57.741 0 31.83-25.898 57.733-57.732 57.733z" fill="#40c0e7"/><path d="M68.607 55.423V11.33h-9.206v35.486l-8.053-13.949-7.973 4.601 12.343 21.381a9.644 9.644 0 0 0-1.495 5.143 9.775 9.775 0 0 0 9.779 9.782c5.399 0 9.783-4.375 9.783-9.782 0-3.723-2.111-6.923-5.178-8.569zM64.53 67.634c-.173.026-.351.053-.528.053-.497 0-.967-.098-1.398-.275-.018-.008-.04-.018-.058-.022a3.683 3.683 0 0 1 1.456-7.068 3.682 3.682 0 0 1 3.687 3.682c0 .861-.311 1.651-.812 2.276a3.68 3.68 0 0 1-1.424 1.109c-.018.004-.04.014-.058.022a3.48 3.48 0 0 1-.865.223z" fill="#2f2f2f"/><path d="M113.935 60.322a3.683 3.683 0 1 0 0 7.365 3.684 3.684 0 0 0 0-7.365z" fill="#2f2f2f"/><path d="M109.085 42.228a3.685 3.685 0 0 0 1.349-5.03 3.676 3.676 0 0 0-5.031-1.35 3.682 3.682 0 0 0-1.349 5.031 3.68 3.68 0 0 0 5.031 1.349z" fill="#2f2f2f"/><path d="M90.81 17.569a3.674 3.674 0 0 0-5.031 1.349 3.679 3.679 0 0 0 1.349 5.031 3.674 3.674 0 0 0 5.031-1.349 3.686 3.686 0 0 0-1.349-5.031z" fill="#2f2f2f"/><path d="M37.195 17.569a3.678 3.678 0 0 0-1.349 5.031 3.679 3.679 0 0 0 5.032 1.349 3.675 3.675 0 0 0 1.344-5.031 3.674 3.674 0 0 0-5.027-1.349z" fill="#2f2f2f"/><path d="M22.598 35.844a3.687 3.687 0 0 0-5.031 1.345 3.677 3.677 0 0 0 1.349 5.031 3.676 3.676 0 0 0 5.031-1.349 3.677 3.677 0 0 0-1.349-5.027z" fill="#2f2f2f"/><path d="M14.065 60.318A3.681 3.681 0 0 0 10.383 64a3.679 3.679 0 0 0 3.682 3.683 3.681 3.681 0 0 0 3.683-3.688 3.677 3.677 0 0 0-3.683-3.677z" fill="#2f2f2f"/><path d="M18.911 85.781a3.69 3.69 0 0 0-1.349 5.031 3.69 3.69 0 0 0 5.031 1.349 3.692 3.692 0 0 0 1.353-5.04 3.684 3.684 0 0 0-5.035-1.34z" fill="#2f2f2f"/><path d="M40.873 104.051a3.685 3.685 0 0 0-3.682 6.385 3.68 3.68 0 0 0 5.031-1.349 3.687 3.687 0 0 0-1.349-5.036z" fill="#2f2f2f"/><path d="M63.993 110.254a3.676 3.676 0 0 0-3.678 3.683 3.687 3.687 0 0 0 3.683 3.682 3.684 3.684 0 0 0-.005-7.365z" fill="#2f2f2f"/><path d="M87.123 104.06a3.67 3.67 0 0 0-1.344 5.028 3.681 3.681 0 1 0 6.376-3.683 3.68 3.68 0 0 0-5.032-1.345z" fill="#2f2f2f"/><path d="M109.085 85.781a3.681 3.681 0 0 0-5.031 1.349 3.676 3.676 0 0 0 1.349 5.031 3.688 3.688 0 0 0 5.031-1.349 3.684 3.684 0 0 0-1.349-5.031z" fill="#2f2f2f"/></g></g></svg>