<svg id="レイヤー_1" xmlns="http://www.w3.org/2000/svg" xmlns:xlink="http://www.w3.org/1999/xlink" viewBox="0 0 128 128"><g><g><g><defs><path id="SVGID_1_" d="M64.002 6.268c-31.834 0-57.736 25.893-57.736 57.733 0 31.838 25.902 57.731 57.736 57.731 31.834 0 57.732-25.894 57.732-57.731 0-31.839-25.898-57.733-57.732-57.733z"/></defs><use xlink:href="#SVGID_1_" overflow="visible" fill="#fff"/><clipPath id="SVGID_2_"><use xlink:href="#SVGID_1_" overflow="visible"/></clipPath></g><g><g><g><path d="M64.002 127.899C28.769 127.899.103 99.228.103 64.001c0-35.229 28.666-63.9 63.899-63.9s63.895 28.671 63.895 63.9c0 35.228-28.662 63.898-63.895 63.898zm0-121.631c-31.834 0-57.736 25.893-57.736 57.733 0 31.838 25.902 57.731 57.736 57.731 31.834 0 57.732-25.894 57.732-57.731 0-31.839-25.898-57.733-57.732-57.733z" fill="#40c0e7"/></g></g><path d="M117.617 64.001a3.686 3.686 0 1 1-3.683-3.683 3.686 3.686 0 0 1 3.683 3.683z" fill="#2f2f2f"/><path d="M110.434 37.193c1.012 1.766.412 4.02-1.349 5.032a3.675 3.675 0 0 1-5.031-1.349 3.678 3.678 0 0 1 1.349-5.032 3.686 3.686 0 0 1 5.031 1.349z" fill="#2f2f2f"/><path d="M90.81 17.565a3.696 3.696 0 0 1 1.349 5.04 3.692 3.692 0 0 1-5.031 1.349 3.692 3.692 0 0 1-1.354-5.04 3.696 3.696 0 0 1 5.036-1.349z" fill="#2f2f2f"/><path d="M37.194 17.565a3.686 3.686 0 0 1 5.027 1.349 3.676 3.676 0 0 1-1.345 5.032 3.675 3.675 0 0 1-5.031-1.349 3.683 3.683 0 0 1 1.349-5.032z" fill="#2f2f2f"/><path d="M17.566 37.193a3.677 3.677 0 0 1 5.031-1.349 3.685 3.685 0 0 1 1.349 5.032 3.691 3.691 0 0 1-5.036 1.349 3.686 3.686 0 0 1-1.344-5.032z" fill="#2f2f2f"/><path d="M10.383 64.001a3.685 3.685 0 0 1 3.683-3.683 3.677 3.677 0 0 1 3.683 3.683 3.684 3.684 0 0 1-7.366 0z" fill="#2f2f2f"/><path d="M17.562 90.808a3.693 3.693 0 0 1 1.349-5.032 3.684 3.684 0 1 1 3.682 6.381 3.685 3.685 0 0 1-5.031-1.349z" fill="#2f2f2f"/><path d="M37.19 110.437a3.697 3.697 0 0 1-1.354-5.032 3.683 3.683 0 0 1 5.036-1.349 3.682 3.682 0 0 1 1.349 5.032c-1.015 1.756-3.274 2.369-5.031 1.349z" fill="#2f2f2f"/><path d="M63.998 10.377a3.684 3.684 0 0 0-3.683 3.682 3.672 3.672 0 0 0 3.678 3.683 3.683 3.683 0 1 0 .005-7.365z" fill="#2f2f2f"/><path d="M90.805 110.437a3.692 3.692 0 0 1-5.031-1.349 3.673 3.673 0 0 1 1.349-5.032 3.677 3.677 0 0 1 5.032 1.349 3.683 3.683 0 0 1-1.35 5.032z" fill="#2f2f2f"/><path d="M110.434 90.808a3.686 3.686 0 0 1-5.031 1.349 3.678 3.678 0 0 1-1.349-5.032c1.011-1.757 3.265-2.36 5.031-1.349a3.692 3.692 0 0 1 1.349 5.032z" fill="#2f2f2f"/></g></g><g><g fill="#2f2f2f"><path d="M59.401 60.611h9.207v56.055h-9.207z"/><path d="M73.785 63.991c0 5.414-4.384 9.788-9.783 9.788-5.404 0-9.779-4.375-9.779-9.788 0-5.395 4.375-9.77 9.779-9.77 5.399 0 9.783 4.376 9.783 9.77z"/><path d="M73.785 63.991c0 5.414-4.384 9.788-9.783 9.788-5.404 0-9.779-4.375-9.779-9.788 0-5.395 4.375-9.77 9.779-9.77 5.399 0 9.783 4.376 9.783 9.77z"/></g><path fill="#2f2f2f" d="M64.845 69.667l-6.502-6.514 25.951-25.951 6.511 6.509z"/><path d="M67.689 64.001a3.687 3.687 0 1 1-7.374.008 3.687 3.687 0 0 1 7.374-.008z" fill="#fff"/></g></g></svg>