<svg id="レイヤー_1" xmlns="http://www.w3.org/2000/svg" xmlns:xlink="http://www.w3.org/1999/xlink" viewBox="0 0 128 128"><g><g><g><g><defs><path id="SVGID_1_" d="M64.002 6.264c-31.839 0-57.733 25.902-57.733 57.74 0 31.832 25.894 57.732 57.733 57.732 31.83 0 57.732-25.9 57.732-57.732 0-31.838-25.902-57.74-57.732-57.74z"/></defs><use xlink:href="#SVGID_1_" overflow="visible" fill="#fff"/><clipPath id="SVGID_2_"><use xlink:href="#SVGID_1_" overflow="visible"/></clipPath></g><g><g><g><path d="M64.002 127.895C28.768 127.895.103 99.233.103 64.004.103 28.768 28.769.106 64.002.106c35.232 0 63.894 28.662 63.894 63.898 0 35.228-28.662 63.891-63.894 63.891zm0-121.631c-31.839 0-57.733 25.902-57.733 57.74 0 31.832 25.894 57.732 57.733 57.732 31.83 0 57.732-25.9 57.732-57.732 0-31.838-25.902-57.74-57.732-57.74z" fill="#40c0e7"/></g></g><path d="M117.617 64.004a3.684 3.684 0 1 1-7.368 0 3.684 3.684 0 0 1 7.368 0z" fill="#2f2f2f"/><path d="M110.434 37.197a3.686 3.686 0 0 1-1.354 5.031 3.67 3.67 0 0 1-5.027-1.348 3.67 3.67 0 0 1 1.349-5.033 3.68 3.68 0 0 1 5.032 1.35z" fill="#2f2f2f"/><path d="M90.81 17.568a3.682 3.682 0 0 1 1.344 5.033 3.67 3.67 0 0 1-5.026 1.348 3.675 3.675 0 0 1-1.35-5.031 3.678 3.678 0 0 1 5.032-1.35z" fill="#2f2f2f"/><path d="M37.194 17.568a3.68 3.68 0 0 1 5.028 1.35 3.672 3.672 0 0 1-1.35 5.031 3.67 3.67 0 0 1-5.026-1.348 3.68 3.68 0 0 1 1.348-5.033z" fill="#2f2f2f"/><path d="M17.566 37.189a3.685 3.685 0 0 1 5.032-1.342 3.676 3.676 0 0 1 1.348 5.023 3.683 3.683 0 0 1-5.035 1.35 3.68 3.68 0 0 1-1.345-5.031z" fill="#2f2f2f"/><path d="M10.383 64.004a3.679 3.679 0 0 1 3.682-3.682 3.676 3.676 0 0 1 3.683 3.674c0 2.039-1.65 3.691-3.683 3.691s-3.692-1.652-3.682-3.683z" fill="#2f2f2f"/><path d="M17.562 90.812a3.687 3.687 0 0 1 6.384-3.691 3.69 3.69 0 0 1-1.354 5.039 3.683 3.683 0 0 1-5.03-1.348z" fill="#2f2f2f"/><path d="M37.19 110.439a3.688 3.688 0 0 1-1.353-5.029 3.679 3.679 0 0 1 5.031-1.35 3.676 3.676 0 0 1 1.354 5.031c-1.016 1.757-3.275 2.37-5.032 1.348z" fill="#2f2f2f"/><path d="M90.805 110.439a3.684 3.684 0 0 1-5.027-1.348 3.668 3.668 0 0 1 1.345-5.031 3.678 3.678 0 0 1 5.031 1.35 3.678 3.678 0 0 1-1.349 5.029z" fill="#2f2f2f"/><path d="M110.434 90.812a3.684 3.684 0 0 1-5.031 1.348 3.669 3.669 0 0 1-1.349-5.031 3.682 3.682 0 0 1 6.38 3.683z" fill="#2f2f2f"/></g></g><path fill="#2f2f2f" d="M59.401 60.605h9.202v56.055h-9.202z"/><g><g fill="#2f2f2f"><path d="M73.785 63.996c0 5.404-4.384 9.777-9.783 9.777-5.404 0-9.783-4.373-9.783-9.777s4.379-9.779 9.783-9.779c5.399 0 9.783 4.375 9.783 9.779z"/><path d="M73.785 63.996c0 5.404-4.384 9.777-9.783 9.777-5.404 0-9.783-4.373-9.783-9.777s4.379-9.779 9.783-9.779c5.399 0 9.783 4.375 9.783 9.779z"/></g><path transform="scale(-1) rotate(74.763 88.919 -64.904)" fill="#2f2f2f" d="M44.987 49.582h9.198v36.705h-9.198z"/><path d="M67.689 64.004a3.688 3.688 0 0 1-7.375 0 3.683 3.683 0 0 1 3.688-3.682 3.686 3.686 0 0 1 3.687 3.682z" fill="#fff"/></g></g><g><path d="M64.002 10.381a3.686 3.686 0 0 0-3.688 3.684 3.678 3.678 0 0 0 3.674 3.682c2.041 0 3.696-1.65 3.687-3.682a3.668 3.668 0 0 0-3.673-3.684z" fill="#2f2f2f"/></g></g></svg>