<svg id="レイヤー_1" xmlns="http://www.w3.org/2000/svg" xmlns:xlink="http://www.w3.org/1999/xlink" viewBox="0 0 128 128"><g><g><g><g><defs><path id="SVGID_1_" d="M64.002 6.269c-31.839 0-57.733 25.902-57.733 57.74 0 31.83 25.894 57.723 57.733 57.723 31.83 0 57.732-25.893 57.732-57.723 0-31.838-25.902-57.74-57.732-57.74z"/></defs><use xlink:href="#SVGID_1_" overflow="visible" fill="#fff"/><clipPath id="SVGID_2_"><use xlink:href="#SVGID_1_" overflow="visible"/></clipPath></g><g><g><g><path d="M64.002 127.899C28.768 127.899.103 99.236.103 64.008.103 28.772 28.769.1 64.002.1c35.232 0 63.894 28.672 63.894 63.908 0 35.228-28.662 63.891-63.894 63.891zm0-121.63c-31.839 0-57.733 25.902-57.733 57.74 0 31.83 25.894 57.723 57.733 57.723 31.83 0 57.732-25.893 57.732-57.723 0-31.838-25.902-57.74-57.732-57.74z" fill="#40c0e7"/></g></g><path d="M117.617 64.009a3.685 3.685 0 0 1-7.37 0 3.687 3.687 0 0 1 3.687-3.691 3.684 3.684 0 0 1 3.683 3.691z" fill="#2f2f2f"/><path d="M110.434 37.192a3.696 3.696 0 0 1-1.354 5.041 3.687 3.687 0 0 1-3.678-6.391 3.695 3.695 0 0 1 5.032 1.35z" fill="#2f2f2f"/><path d="M90.81 17.573a3.676 3.676 0 0 1 1.344 5.031 3.688 3.688 0 0 1-5.026 1.35c-1.762-1.021-2.374-3.275-1.35-5.033a3.675 3.675 0 0 1 5.032-1.348z" fill="#2f2f2f"/><path d="M37.194 17.563a3.687 3.687 0 0 1 5.028 1.35 3.669 3.669 0 0 1-1.35 5.03 3.67 3.67 0 0 1-5.026-1.348 3.68 3.68 0 0 1 1.348-5.032z" fill="#2f2f2f"/><path d="M17.566 37.192c1.021-1.757 3.274-2.369 5.032-1.35a3.687 3.687 0 0 1 1.348 5.033 3.683 3.683 0 1 1-6.38-3.683z" fill="#2f2f2f"/><path d="M10.383 63.999a3.682 3.682 0 1 1 7.365 0c0 2.033-1.65 3.691-3.683 3.684-2.032 0-3.692-1.651-3.682-3.684z" fill="#2f2f2f"/><path d="M17.562 90.808a3.69 3.69 0 0 1 1.349-5.033 3.69 3.69 0 0 1 5.035 1.35 3.678 3.678 0 0 1-1.354 5.031 3.677 3.677 0 0 1-5.03-1.348z" fill="#2f2f2f"/><path d="M37.19 110.435a3.687 3.687 0 0 1-1.353-5.03 3.68 3.68 0 0 1 5.031-1.35 3.68 3.68 0 0 1 1.354 5.032 3.685 3.685 0 0 1-5.032 1.348z" fill="#2f2f2f"/><path d="M90.805 110.435a3.676 3.676 0 0 1-5.027-1.348 3.67 3.67 0 0 1 1.345-5.032 3.693 3.693 0 0 1 5.031 1.35 3.677 3.677 0 0 1-1.349 5.03z" fill="#2f2f2f"/><path d="M110.434 90.815a3.681 3.681 0 0 1-5.031 1.34 3.658 3.658 0 0 1-1.349-5.022 3.67 3.67 0 0 1 5.027-1.348c1.765 1.011 2.364 3.274 1.353 5.03z" fill="#2f2f2f"/></g></g><path fill="#2f2f2f" d="M59.401 60.609h9.202v56.056h-9.202z"/><g><g fill="#2f2f2f"><path d="M73.785 63.991c0 5.412-4.384 9.788-9.783 9.788a9.78 9.78 0 0 1-9.783-9.788c0-5.395 4.379-9.771 9.783-9.771 5.399.001 9.783 4.377 9.783 9.771z"/><path d="M73.785 63.991c0 5.412-4.384 9.788-9.783 9.788a9.78 9.78 0 0 1-9.783-9.788c0-5.395 4.379-9.771 9.783-9.771 5.399.001 9.783 4.377 9.783 9.771z"/></g><path fill="#2f2f2f" d="M68.5 60.456l-2.399 8.873-35.433-9.594 2.405-8.881z"/><path d="M67.689 64.009a3.686 3.686 0 0 1-3.687 3.682 3.682 3.682 0 0 1-3.688-3.682 3.687 3.687 0 1 1 7.375 0z" fill="#fff"/></g></g><g><path d="M64.002 10.376a3.686 3.686 0 0 0-3.688 3.683 3.673 3.673 0 0 0 3.674 3.683c2.041 0 3.696-1.65 3.687-3.683a3.673 3.673 0 0 0-3.673-3.683z" fill="#2f2f2f"/></g></g></svg>