<svg id="レイヤー_1" xmlns="http://www.w3.org/2000/svg" xmlns:xlink="http://www.w3.org/1999/xlink" viewBox="0 0 128 128"><g><g><g><g><defs><path id="SVGID_1_" d="M64 6.268C32.165 6.268 6.268 32.166 6.268 64c0 31.84 25.897 57.732 57.731 57.732 31.835 0 57.737-25.893 57.737-57.732 0-31.834-25.901-57.732-57.736-57.732z"/></defs><use xlink:href="#SVGID_1_" overflow="visible" fill="#fff"/><clipPath id="SVGID_2_"><use xlink:href="#SVGID_1_" overflow="visible"/></clipPath></g><g><g><g><path d="M64 127.898C28.768 127.898.105 99.232.105 64 .105 28.771 28.768.102 64 .102c35.233 0 63.895 28.67 63.895 63.898 0 35.232-28.662 63.898-63.895 63.898zm0-121.63C32.165 6.268 6.268 32.166 6.268 64c0 31.84 25.897 57.732 57.731 57.732 31.835 0 57.737-25.893 57.737-57.732 0-31.834-25.901-57.732-57.736-57.732z" fill="#40c0e7"/></g></g><path d="M117.615 64.004a3.69 3.69 0 0 1-3.687 3.688 3.686 3.686 0 0 1-3.683-3.688 3.686 3.686 0 0 1 3.683-3.687 3.69 3.69 0 0 1 3.687 3.687z" fill="#2f2f2f"/><path d="M110.431 37.191a3.689 3.689 0 0 1-1.348 5.037 3.683 3.683 0 0 1-5.032-1.35 3.69 3.69 0 0 1 1.35-5.035 3.688 3.688 0 0 1 5.03 1.348z" fill="#2f2f2f"/><path d="M90.808 17.568a3.686 3.686 0 0 1-3.687 6.385 3.685 3.685 0 0 1-1.344-5.035 3.683 3.683 0 0 1 5.031-1.35z" fill="#2f2f2f"/><path d="M37.192 17.565a3.686 3.686 0 0 1 5.027 1.35 3.674 3.674 0 0 1-1.345 5.031 3.677 3.677 0 0 1-5.032-1.35 3.684 3.684 0 0 1 1.35-5.031z" fill="#2f2f2f"/><path d="M17.56 37.191a3.688 3.688 0 0 1 5.04-1.348 3.683 3.683 0 0 1 1.345 5.031 3.682 3.682 0 0 1-5.031 1.35 3.688 3.688 0 0 1-1.354-5.033z" fill="#2f2f2f"/><path d="M10.381 64a3.687 3.687 0 0 1 3.683-3.684A3.676 3.676 0 0 1 17.738 64c0 2.031-1.642 3.688-3.674 3.684-2.032 0-3.692-1.653-3.683-3.684z" fill="#2f2f2f"/><path d="M17.56 90.807a3.687 3.687 0 0 1 1.353-5.031 3.68 3.68 0 0 1 5.031 1.35 3.674 3.674 0 0 1-1.357 5.031 3.678 3.678 0 0 1-5.027-1.35z" fill="#2f2f2f"/><path d="M37.188 110.436a3.696 3.696 0 0 1-1.354-5.031 3.683 3.683 0 0 1 5.036-1.348 3.673 3.673 0 0 1 1.349 5.029c-1.015 1.758-3.278 2.369-5.031 1.35z" fill="#2f2f2f"/><path d="M90.803 110.436a3.681 3.681 0 0 1-5.026-1.35 3.682 3.682 0 0 1 1.335-5.029c1.766-1.018 4.029-.414 5.041 1.348a3.686 3.686 0 0 1-1.35 5.031z" fill="#2f2f2f"/><path d="M110.431 90.811a3.684 3.684 0 0 1-5.03 1.346 3.672 3.672 0 0 1-1.35-5.027 3.687 3.687 0 0 1 5.032-1.35 3.686 3.686 0 0 1 1.348 5.031z" fill="#2f2f2f"/></g></g><g fill="#2f2f2f"><path d="M73.783 63.992c0 5.406-4.388 9.781-9.783 9.781-5.403 0-9.783-4.375-9.783-9.781 0-5.4 4.38-9.775 9.783-9.775 5.395 0 9.783 4.375 9.783 9.775z"/><path d="M59.399 60.609h9.202v56.055h-9.202z"/><path d="M73.783 63.992c0 5.406-4.388 9.781-9.783 9.781-5.403 0-9.783-4.375-9.783-9.781 0-5.4 4.38-9.775 9.783-9.775 5.395 0 9.783 4.375 9.783 9.775z"/></g><path fill="#2f2f2f" d="M66.782 29.424L57.03 67.133l11.545 2.986 9.76-37.713z"/><path d="M67.687 64a3.688 3.688 0 0 1-7.378 0 3.689 3.689 0 0 1 7.378 0z" fill="#fff"/></g><g fill="#2f2f2f"><path d="M90.808 17.565a3.69 3.69 0 0 1 1.345 5.041 3.694 3.694 0 0 1-5.032 1.348 3.689 3.689 0 0 1 3.687-6.389z"/><path d="M63.991 10.377a3.687 3.687 0 0 0-3.683 3.682 3.679 3.679 0 0 0 3.683 3.682 3.68 3.68 0 0 0 3.687-3.682 3.68 3.68 0 0 0-3.687-3.682z"/></g></g></svg>