<svg id="レイヤー_1" xmlns="http://www.w3.org/2000/svg" xmlns:xlink="http://www.w3.org/1999/xlink" viewBox="0 0 128 128"><g><g><g><g><defs><path id="SVGID_1_" d="M63.833 6.149c-31.76 0-57.605 25.845-57.605 57.609 0 31.764 25.845 57.605 57.605 57.605 31.768 0 57.604-25.841 57.604-57.605.001-31.764-25.835-57.609-57.604-57.609z"/></defs><use xlink:href="#SVGID_1_" overflow="visible" fill="#fff"/><clipPath id="SVGID_2_"><use xlink:href="#SVGID_1_" overflow="visible"/></clipPath></g><g><g><g><path d="M63.833 127.512C28.682 127.512.079 98.913.079 63.758.08 28.603 28.683 0 63.833 0c35.159 0 63.758 28.603 63.758 63.758s-28.598 63.754-63.758 63.754zm0-121.363c-31.76 0-57.605 25.845-57.605 57.609 0 31.764 25.845 57.605 57.605 57.605 31.768 0 57.604-25.841 57.604-57.605.001-31.764-25.835-57.609-57.604-57.609z" fill="#3bb2df"/></g></g><path d="M117.329 63.763a3.676 3.676 0 0 1-3.674 3.674 3.677 3.677 0 0 1 0-7.353 3.676 3.676 0 0 1 3.674 3.679z" fill="#2f2f2f"/><path d="M110.166 37.01a3.691 3.691 0 0 1-1.346 5.025 3.675 3.675 0 0 1-5.021-1.346 3.672 3.672 0 0 1 1.346-5.024 3.677 3.677 0 0 1 5.021 1.345z" fill="#2f2f2f"/><path d="M90.581 17.43a3.667 3.667 0 0 1 1.345 5.02 3.675 3.675 0 0 1-6.365-3.675 3.67 3.67 0 0 1 5.02-1.345z" fill="#2f2f2f"/><path d="M37.085 17.425a3.681 3.681 0 0 1 5.021 1.346 3.669 3.669 0 0 1-1.346 5.021 3.67 3.67 0 0 1-5.021-1.346 3.677 3.677 0 0 1 1.346-5.021z" fill="#2f2f2f"/><path d="M17.5 37.005a3.677 3.677 0 0 1 5.02-1.341 3.664 3.664 0 0 1 1.346 5.016 3.666 3.666 0 0 1-5.02 1.346 3.677 3.677 0 0 1-1.346-5.021z" fill="#2f2f2f"/><path d="M10.337 63.758a3.673 3.673 0 0 1 3.674-3.674 3.673 3.673 0 0 1 3.674 3.67 3.673 3.673 0 0 1-3.674 3.678c-2.027 0-3.683-1.646-3.674-3.674z" fill="#2f2f2f"/><path d="M17.5 90.506a3.685 3.685 0 0 1 1.346-5.021 3.675 3.675 0 0 1 5.02 1.341 3.671 3.671 0 0 1-1.346 5.025 3.67 3.67 0 0 1-5.02-1.345z" fill="#2f2f2f"/><path d="M37.085 110.091a3.678 3.678 0 0 1 3.675-6.371 3.682 3.682 0 0 1 1.346 5.025c-1.019 1.753-3.268 2.364-5.021 1.346z" fill="#2f2f2f"/><path d="M90.581 110.091a3.68 3.68 0 0 1-5.02-1.346 3.667 3.667 0 0 1 1.345-5.02 3.675 3.675 0 0 1 5.02 1.346 3.674 3.674 0 0 1-1.345 5.02z" fill="#2f2f2f"/><path d="M110.166 90.511a3.676 3.676 0 0 1-5.02 1.341 3.664 3.664 0 0 1-1.346-5.016 3.671 3.671 0 0 1 5.021-1.346c1.753 1.009 2.355 3.267 1.345 5.021z" fill="#2f2f2f"/></g></g><path fill="#2f2f2f" d="M59.247 60.371h9.182v55.932h-9.182z"/><g><g fill="#2f2f2f"><path d="M73.6 63.749c0 5.397-4.374 9.762-9.766 9.762a9.754 9.754 0 0 1-9.757-9.762c0-5.387 4.365-9.752 9.757-9.752 5.392 0 9.766 4.365 9.766 9.752z"/><path d="M73.6 63.749c0 5.397-4.374 9.762-9.766 9.762a9.754 9.754 0 0 1-9.757-9.762c0-5.387 4.365-9.752 9.757-9.752 5.392 0 9.766 4.365 9.766 9.752z"/></g><path fill="#2f2f2f" d="M58.552 61.574l8.916-2.214 8.814 35.547-8.907 2.213z"/><path d="M67.517 63.758a3.68 3.68 0 0 1-7.357 0 3.676 3.676 0 0 1 3.674-3.674 3.677 3.677 0 0 1 3.683 3.674z" fill="#fff"/></g></g><g><path d="M63.833 10.253a3.676 3.676 0 0 0-3.674 3.675 3.666 3.666 0 0 0 3.666 3.674 3.674 3.674 0 1 0 .008-7.349z" fill="#2f2f2f"/></g></g></svg>