<svg id="レイヤー_1" xmlns="http://www.w3.org/2000/svg" xmlns:xlink="http://www.w3.org/1999/xlink" viewBox="0 0 128 128"><g><g><g><g><defs><path id="SVGID_1_" d="M64 6.264c-31.835 0-57.731 25.902-57.731 57.74 0 31.83 25.897 57.732 57.731 57.732 31.835 0 57.737-25.902 57.737-57.732C121.736 32.166 95.835 6.264 64 6.264z"/></defs><use xlink:href="#SVGID_1_" overflow="visible" fill="#fff"/><clipPath id="SVGID_2_"><use xlink:href="#SVGID_1_" overflow="visible"/></clipPath></g><g><g><g><path d="M64 127.895c-35.232 0-63.895-28.66-63.895-63.891C.105 28.768 28.768.105 64 .105c35.233 0 63.895 28.662 63.895 63.898 0 35.231-28.662 63.892-63.895 63.892zM64 6.264c-31.835 0-57.731 25.902-57.731 57.74 0 31.83 25.897 57.732 57.731 57.732 31.835 0 57.737-25.902 57.737-57.732C121.736 32.166 95.835 6.264 64 6.264z" fill="#40c0e7"/></g></g><path d="M117.615 64.004a3.685 3.685 0 0 1-7.37 0 3.682 3.682 0 0 1 3.683-3.682 3.686 3.686 0 0 1 3.687 3.682z" fill="#2f2f2f"/><path d="M110.431 37.195a3.688 3.688 0 0 1-1.348 5.033 3.68 3.68 0 0 1-5.032-1.35 3.682 3.682 0 0 1 1.35-5.031 3.677 3.677 0 0 1 5.03 1.348z" fill="#2f2f2f"/><path d="M90.808 17.568a3.68 3.68 0 0 1 1.345 5.031 3.675 3.675 0 0 1-5.032 1.35 3.68 3.68 0 0 1-1.344-5.031 3.673 3.673 0 0 1 5.031-1.35z" fill="#2f2f2f"/><path d="M37.192 17.568a3.672 3.672 0 0 1 5.027 1.35 3.675 3.675 0 0 1-1.345 5.031 3.68 3.68 0 0 1-5.032-1.35 3.681 3.681 0 0 1 1.35-5.031z" fill="#2f2f2f"/><path d="M17.56 37.188a3.696 3.696 0 0 1 5.04-1.344 3.679 3.679 0 0 1 1.345 5.027 3.679 3.679 0 0 1-5.031 1.35 3.684 3.684 0 0 1-1.354-5.033z" fill="#2f2f2f"/><path d="M10.381 64a3.683 3.683 0 0 1 3.683-3.682 3.674 3.674 0 0 1 3.674 3.678 3.675 3.675 0 0 1-3.674 3.688c-2.032 0-3.692-1.647-3.683-3.684z" fill="#2f2f2f"/><path d="M17.56 90.811c-1.011-1.766-.413-4.02 1.353-5.029a3.683 3.683 0 0 1 5.031 1.338 3.686 3.686 0 0 1-1.357 5.041 3.685 3.685 0 0 1-5.027-1.35z" fill="#2f2f2f"/><path d="M37.188 110.436a3.695 3.695 0 0 1-1.354-5.031 3.69 3.69 0 0 1 5.036-1.352 3.679 3.679 0 0 1 1.349 5.033 3.683 3.683 0 0 1-5.031 1.35z" fill="#2f2f2f"/><path d="M90.803 110.436a3.678 3.678 0 0 1-5.026-1.35 3.676 3.676 0 0 1 1.335-5.025c1.766-1.021 4.029-.418 5.041 1.344a3.685 3.685 0 0 1-1.35 5.031z" fill="#2f2f2f"/><path d="M110.431 90.811a3.688 3.688 0 0 1-5.03 1.35 3.674 3.674 0 0 1-1.35-5.029 3.682 3.682 0 1 1 6.38 3.679z" fill="#2f2f2f"/></g></g><path fill="#2f2f2f" d="M59.399 60.607h9.202v56.053h-9.202z"/><g fill="#2f2f2f"><path d="M73.783 63.992c0 5.41-4.388 9.787-9.783 9.787-5.403 0-9.783-4.377-9.783-9.787 0-5.396 4.38-9.77 9.783-9.77 5.395.001 9.783 4.374 9.783 9.77z"/><path d="M73.783 63.992c0 5.41-4.388 9.787-9.783 9.787-5.403 0-9.783-4.377-9.783-9.787 0-5.396 4.38-9.77 9.783-9.77 5.395.001 9.783 4.374 9.783 9.77z"/></g><path fill="#2f2f2f" d="M69.666 63.15l-6.496 6.516-26.013-25.898 6.5-6.524z"/><circle cx="63.997" cy="64.004" r="3.689" fill="#fff"/></g><g fill="#2f2f2f"><path d="M90.808 17.568a3.68 3.68 0 0 1 1.345 5.031 3.682 3.682 0 0 1-6.376-3.681 3.673 3.673 0 0 1 5.031-1.35z"/><path d="M63.991 10.381a3.69 3.69 0 0 0-3.683 3.684 3.685 3.685 0 0 0 3.683 3.682 3.681 3.681 0 0 0 3.687-3.682 3.677 3.677 0 0 0-3.687-3.684z"/></g></g></svg>