<svg id="レイヤー_1" xmlns="http://www.w3.org/2000/svg" xmlns:xlink="http://www.w3.org/1999/xlink" viewBox="0 0 128 128"><g><g><g><g><defs><path id="SVGID_1_" d="M64 6.266c-31.835 0-57.731 25.902-57.731 57.736 0 31.836 25.897 57.732 57.731 57.732 31.835 0 57.737-25.896 57.737-57.732C121.736 32.168 95.835 6.266 64 6.266z"/></defs><use xlink:href="#SVGID_1_" overflow="visible" fill="#fff"/><clipPath id="SVGID_2_"><use xlink:href="#SVGID_1_" overflow="visible"/></clipPath></g><g><g><g><path d="M64 127.896C28.768 127.896.105 99.234.105 64.001S28.768.104 64 .104c35.233 0 63.895 28.666 63.895 63.898S99.233 127.896 64 127.896zm0-121.63c-31.835 0-57.731 25.902-57.731 57.736 0 31.836 25.897 57.732 57.731 57.732 31.835 0 57.737-25.896 57.737-57.732C121.736 32.168 95.835 6.266 64 6.266z" fill="#40c0e7"/></g></g><path d="M117.615 64.006a3.69 3.69 0 0 1-3.687 3.684 3.687 3.687 0 0 1 0-7.372 3.689 3.689 0 0 1 3.687 3.688z" fill="#2f2f2f"/><path d="M110.431 37.195a3.689 3.689 0 0 1-1.348 5.035c-1.766 1.014-4.021.412-5.032-1.348a3.69 3.69 0 0 1 1.35-5.037 3.683 3.683 0 0 1 5.03 1.35z" fill="#2f2f2f"/><path d="M90.808 17.57a3.681 3.681 0 0 1 1.345 5.033 3.682 3.682 0 1 1-6.376-3.683 3.676 3.676 0 0 1 5.031-1.35z" fill="#2f2f2f"/><path d="M37.192 17.566a3.679 3.679 0 0 1 5.027 1.35 3.675 3.675 0 0 1-1.345 5.031 3.676 3.676 0 0 1-5.032-1.352 3.681 3.681 0 0 1 1.35-5.029z" fill="#2f2f2f"/><path d="M17.56 37.189a3.697 3.697 0 0 1 5.04-1.348 3.684 3.684 0 0 1 1.345 5.031 3.677 3.677 0 0 1-5.031 1.35 3.686 3.686 0 0 1-1.354-5.033z" fill="#2f2f2f"/><path d="M10.381 63.998a3.687 3.687 0 0 1 3.683-3.684 3.679 3.679 0 0 1 3.674 3.684c0 2.035-1.642 3.691-3.674 3.684-2.032 0-3.692-1.649-3.683-3.684z" fill="#2f2f2f"/><path d="M17.56 90.809a3.686 3.686 0 0 1 6.384-3.685 3.679 3.679 0 0 1-1.357 5.035 3.68 3.68 0 0 1-5.027-1.35z" fill="#2f2f2f"/><path d="M37.188 110.434a3.697 3.697 0 0 1-1.354-5.033 3.69 3.69 0 0 1 5.036-1.348 3.677 3.677 0 0 1 1.349 5.031c-1.015 1.762-3.278 2.371-5.031 1.35z" fill="#2f2f2f"/><path d="M90.803 110.434a3.674 3.674 0 0 1-5.026-1.35 3.676 3.676 0 0 1 1.335-5.025c1.766-1.018 4.029-.412 5.041 1.342a3.687 3.687 0 0 1-1.35 5.033z" fill="#2f2f2f"/><path d="M110.431 90.814a3.686 3.686 0 0 1-5.03 1.344 3.672 3.672 0 0 1-1.35-5.027 3.684 3.684 0 1 1 6.38 3.683z" fill="#2f2f2f"/></g></g><path fill="#2f2f2f" d="M59.399 60.607h9.202v56.055h-9.202z"/><g fill="#2f2f2f"><path d="M73.783 63.99c0 5.41-4.388 9.785-9.783 9.785a9.78 9.78 0 0 1-9.783-9.785c0-5.396 4.38-9.771 9.783-9.771 5.395 0 9.783 4.375 9.783 9.771z"/><path d="M73.783 63.99c0 5.41-4.388 9.785-9.783 9.785a9.78 9.78 0 0 1-9.783-9.785c0-5.396 4.38-9.771 9.783-9.771 5.395 0 9.783 4.375 9.783 9.771z"/></g><path fill="#2f2f2f" d="M69.351 66.053l-8.865 2.463-9.827-35.364 8.863-2.457z"/><circle cx="63.997" cy="64.002" r="3.689" fill="#fff"/></g><g fill="#2f2f2f"><path d="M90.808 17.566a3.686 3.686 0 0 1 1.345 5.037 3.683 3.683 0 1 1-6.376-3.687 3.683 3.683 0 0 1 5.031-1.35z"/><path d="M63.991 10.379a3.681 3.681 0 1 0 0 7.364 3.68 3.68 0 0 0 3.687-3.68 3.68 3.68 0 0 0-3.687-3.684z"/></g></g></svg>