<svg xmlns="http://www.w3.org/2000/svg" viewBox="0 0 128 128"><g id="Layer_2"><path d="M45.307 66.384l.08 45.141a5.736 5.736 0 0 0 2.516 4.726c4.731 3.218 7.615 3.133 15.904 3.133 9.649 0 17.564-2.197 18.415-5l-.607-56.6-36.308 8.6z" fill="#e0e0e0"/><g><path d="M71.518 30.513c-.635-1.025-.998-2.216-.82-3.813.42-3.78 2.363-6.968 1.819-10.917-.231-1.68-2.565-8.071-5.02-7.059.067.239.198.406.337.609.275.397.506.829.682 1.281 1.395 3.56-.585 6.781-2.953 9.35-5.881 6.382-16.731 14.07-13.057 24.122 4.132 11.308 21.773 9.325 24.445-2.075.558-2.381.107-4.771-1.322-6.759-1.32-1.836-3.076-3.068-4.111-4.739z" fill="#ffa726"/><path d="M69.652 42.332c-.173 2.593-1.73 5.534-4.544 5.892-4.251.541-6.982-4.956-5.363-8.474 1.345-2.923 4.254-1.272 5.63-7.643.064-.295.054-.74-.029-1.03-.072-.249-.206-.477-.214-.745-.019-.562.524.171.652.315 2.586 2.893 3.952 7.342 3.889 11.188a9.175 9.175 0 0 1-.021.497z" fill="#ffe082"/></g><path d="M80.128 56.07c-.943 0-1.714.771-1.714 1.714 0 0-2.642 57.236-6.194 60.999 0 0 9.995-1.282 9.995-5.042l-.373-55.957c0-.943-.771-1.714-1.714-1.714z" fill="#bdbdbd"/><path d="M84.983 59.819c-.04 1.814-.676 3.575-2.05 4.682-1.9 1.53-4.312.698-6.142-.521-2.405-1.604-5.237-1.251-7.115.953-1.574 1.847-1.125 4.127-1.219 6.352-.048 1.15-.258 2.828-1.099 3.715-1.544 1.631-3.035-.909-3.352-2.284-.378-1.64-.646-3.678-2.807-3.539-2.664.172-3.369 4.221-3.712 6.236a41.892 41.892 0 0 0-.502 9.748c.169 2.47 1.395 4.915 1.224 7.457-.095 1.416-1.083 3.161-2.54 3.614-1.926.6-3.38-1.302-3.342-3.075.071-3.25 1.396-6.434 1.765-9.66.331-2.89.633-5.803.809-8.707.118-1.951.895-8.15-2.016-8.732-5.657-1.131-4.64 12.322-8.315 11.556-3.098-.646-.554-7.813-.92-12.601-.132-1.726-.713-3.484-.285-5.21.692-2.79 3.455-4.858 6.343-4.618 2.244.186 4.444 1.14 6.366 2.271 2.633 1.55 5.121 2.508 8.244 2.366 3.123-.142 6.127-1.193 8.801-2.782 2.442-1.452 4.731-4.774 7.964-3.898 2.755.745 3.957 4.103 3.9 6.677z" fill="#f5f5f5"/></g></svg>