<svg id="レイヤー_1" xmlns="http://www.w3.org/2000/svg" xmlns:xlink="http://www.w3.org/1999/xlink" viewBox="0 0 128 128"><g><g><g><g><defs><path id="SVGID_1_" d="M64.002 6.264c-31.839 0-57.733 25.902-57.733 57.74 0 31.83 25.894 57.732 57.733 57.732 31.83 0 57.732-25.902 57.732-57.732 0-31.838-25.902-57.74-57.732-57.74z"/></defs><use xlink:href="#SVGID_1_" overflow="visible" fill="#fff"/><clipPath id="SVGID_2_"><use xlink:href="#SVGID_1_" overflow="visible"/></clipPath></g><g><g><g><path d="M64.002 127.895C28.768 127.895.103 99.233.103 64.004.103 28.766 28.769.106 64.002.106c35.232 0 63.894 28.66 63.894 63.898 0 35.228-28.662 63.891-63.894 63.891zm0-121.631c-31.839 0-57.733 25.902-57.733 57.74 0 31.83 25.894 57.732 57.733 57.732 31.83 0 57.732-25.902 57.732-57.732 0-31.838-25.902-57.74-57.732-57.74z" fill="#40c0e7"/></g></g><path d="M117.617 64.004a3.684 3.684 0 1 1-7.368 0 3.684 3.684 0 0 1 7.368 0z" fill="#2f2f2f"/><path d="M110.434 37.197a3.686 3.686 0 0 1-1.354 5.031 3.67 3.67 0 0 1-5.027-1.348 3.67 3.67 0 0 1 1.349-5.033 3.68 3.68 0 0 1 5.032 1.35z" fill="#2f2f2f"/><path d="M90.81 17.568a3.68 3.68 0 0 1 1.344 5.031 3.669 3.669 0 0 1-5.026 1.348 3.672 3.672 0 0 1-1.35-5.029 3.678 3.678 0 0 1 5.032-1.35z" fill="#2f2f2f"/><path d="M37.194 17.568a3.68 3.68 0 0 1 5.028 1.35 3.67 3.67 0 0 1-1.35 5.029 3.67 3.67 0 0 1-5.026-1.348c-1.016-1.765-.422-4.019 1.348-5.031z" fill="#2f2f2f"/><path d="M17.566 37.189a3.685 3.685 0 0 1 5.032-1.342 3.674 3.674 0 0 1 1.348 5.021 3.678 3.678 0 0 1-5.035 1.35 3.676 3.676 0 0 1-1.345-5.029z" fill="#2f2f2f"/><path d="M10.383 64.004a3.684 3.684 0 0 1 3.682-3.682 3.675 3.675 0 0 1 3.683 3.674c0 2.039-1.65 3.691-3.683 3.691s-3.692-1.652-3.682-3.683z" fill="#2f2f2f"/><path d="M17.562 90.812a3.687 3.687 0 0 1 6.384-3.691 3.69 3.69 0 0 1-1.354 5.039 3.684 3.684 0 0 1-5.03-1.348z" fill="#2f2f2f"/><path d="M37.19 110.439a3.688 3.688 0 0 1-1.353-5.029 3.69 3.69 0 0 1 5.031-1.359 3.69 3.69 0 0 1 1.354 5.041 3.683 3.683 0 0 1-5.032 1.347z" fill="#2f2f2f"/><path d="M90.805 110.439a3.682 3.682 0 0 1-5.027-1.348 3.67 3.67 0 0 1 1.345-5.033 3.68 3.68 0 0 1 5.031 1.352 3.678 3.678 0 0 1-1.349 5.029z" fill="#2f2f2f"/><path d="M110.434 90.812a3.685 3.685 0 0 1-5.031 1.348 3.669 3.669 0 0 1-1.349-5.031 3.679 3.679 0 0 1 5.027-1.35 3.69 3.69 0 0 1 1.353 5.033z" fill="#2f2f2f"/></g></g><path fill="#2f2f2f" d="M59.401 60.605h9.202v56.055h-9.202z"/><g><g fill="#2f2f2f"><path d="M73.785 64.199c0 5.414-4.384 9.789-9.783 9.789a9.78 9.78 0 0 1-9.783-9.789c0-5.395 4.379-9.77 9.783-9.77 5.399.001 9.783 4.376 9.783 9.77z"/><path d="M73.785 64.199c0 5.414-4.384 9.789-9.783 9.789a9.78 9.78 0 0 1-9.783-9.789c0-5.395 4.379-9.77 9.783-9.77 5.399.001 9.783 4.376 9.783 9.77z"/></g><path fill="#2f2f2f" d="M63.217 58.533l6.442 6.553-26.124 25.769-6.46-6.552z"/><path d="M67.689 64.207a3.687 3.687 0 1 1-7.375 0 3.682 3.682 0 0 1 3.688-3.68 3.685 3.685 0 0 1 3.687 3.68z" fill="#fff"/></g></g><g><path d="M64.002 10.381a3.686 3.686 0 0 0-3.688 3.684 3.678 3.678 0 0 0 3.674 3.682c2.041 0 3.696-1.65 3.687-3.682a3.668 3.668 0 0 0-3.673-3.684z" fill="#2f2f2f"/></g></g></svg>