<svg xmlns="http://www.w3.org/2000/svg" viewBox="0 0 128 128"><g id="レイヤー_1"><path d="M112.034 60.695a6.217 6.217 0 0 0-3.159-2.525l-19.242-6.887 14.181-.732a6.229 6.229 0 0 0 5.056-3.07c2.308-3.92 7.062-15.654 1.362-39.895a3.736 3.736 0 1 0-7.274 1.711c4.888 20.784 1.432 30.637-.216 33.828l-20.057 1.034v-.139c0-.199-.022-.393-.03-.59l10.494-3.64a6.236 6.236 0 0 0 4.159-5.275c.42-4.363.679-15.931-5.99-29.093A3.736 3.736 0 1 0 84.652 8.8c5.407 10.671 5.577 19.991 5.284 24.196l-9.565 3.318a14.26 14.26 0 0 0-5.998-5.146c-.008-2.201-.314-6.914-2.758-7.787-4.352-1.554-4.055 3.683-7.018 3.683-2.738 0-2.666-5.237-7.018-3.683-2.346.838-2.722 5.212-2.755 7.509a14.251 14.251 0 0 0-6.542 5.247l-9.052-3.14c-.293-4.203-.123-13.523 5.284-24.196a3.738 3.738 0 0 0-6.666-3.378c-6.668 13.162-6.41 24.73-5.99 29.092a6.236 6.236 0 0 0 4.159 5.276l9.884 3.428c-.015.267-.041.531-.041.801v.106l-19.436-1.002c-1.648-3.19-5.104-13.043-.216-33.828a3.737 3.737 0 0 0-7.274-1.711c-5.7 24.241-.946 35.975 1.361 39.894a6.227 6.227 0 0 0 5.055 3.071l14.182.732-19.241 6.887a6.221 6.221 0 0 0-3.16 2.525c-2.377 3.775-9.54 18.136-1.903 44.442a3.737 3.737 0 0 0 4.629 2.546 3.735 3.735 0 0 0 2.546-4.629c-6.616-22.79-.934-34.986.822-37.998l22.841-8.176.013.085-14.433 13.189a6.241 6.241 0 0 0-1.792 2.897c-1.167 4.095-6.532 25.699 2.5 48.903a3.737 3.737 0 1 0 6.965-2.71c-7.946-20.411-3.58-39.405-2.37-43.812l12.536-11.453a14.242 14.242 0 0 0 4.421 3.326c-5.092.9-9.368 4.55-10.853 9.6-1.295 4.406-1.975 10.626-.792 19.22 3.102 22.516 18.697 25.544 22.239 25.544 3.543 0 18.669-3.028 21.77-25.544 1.184-8.594.503-14.814-.792-19.22-1.483-5.047-5.755-8.695-10.842-9.599a14.239 14.239 0 0 0 4.706-3.637L92.218 75.43c1.21 4.409 5.575 23.401-2.37 43.812a3.737 3.737 0 0 0 6.965 2.71c9.032-23.204 3.667-44.808 2.499-48.904a6.231 6.231 0 0 0-1.79-2.895L82.925 56.818l23.015 8.238c1.756 3.011 7.439 15.204.821 37.998a3.735 3.735 0 1 0 7.175 2.083c7.639-26.309.475-40.668-1.902-44.442z" fill="#474c4f"/></g><g id="Layer_2"><g><path d="M109.815 64.572l.206.385c.136.237.329.652.574 1.163.217.513.499 1.122.749 1.847.279.715.52 1.541.793 2.439.23.908.494 1.887.68 2.94.232 1.045.352 2.165.516 3.315.095 1.157.239 2.35.254 3.567.068 1.216.048 2.449.016 3.682.003 1.234-.15 2.458-.216 3.667-.107 1.206-.283 2.384-.416 3.527-.167 1.139-.383 2.23-.559 3.269-.162 1.042-.435 2.002-.623 2.901-.211.894-.372 1.721-.59 2.435l-.519 1.86-.452 1.62a.486.486 0 0 1-.939-.248l.006-.023.405-1.614.465-1.851c.197-.711.334-1.531.519-2.418.162-.891.407-1.844.538-2.874.145-1.027.33-2.105.464-3.226.1-1.125.243-2.284.316-3.466.033-1.183.152-2.383.116-3.584-.001-1.201-.013-2.4-.11-3.575-.044-1.179-.216-2.326-.335-3.439-.188-1.102-.331-2.175-.58-3.167-.204-1.003-.481-1.926-.721-2.781-.281-.84-.529-1.615-.807-2.275-.251-.672-.529-1.23-.738-1.692-.228-.442-.393-.783-.547-1.038l-.216-.38a1 1 0 0 1 1.737-.993l.014.027z" fill="#ccc"/></g><g><path d="M96.185 75.176l.122.485a63.959 63.959 0 0 1 1.241 6.444c.164 1.046.28 2.186.414 3.39.097 1.207.227 2.478.271 3.799l.083 2.009.006 2.06c.03 1.386-.084 2.793-.12 4.199-.127 1.402-.196 2.809-.38 4.183-.189 1.373-.324 2.73-.59 4.024-.235 1.298-.448 2.555-.754 3.726-.29 1.174-.513 2.296-.843 3.299l-.824 2.758-.756 2.086-.663 1.815a.586.586 0 0 1-1.103-.39l.012-.035.617-1.795.704-2.06.757-2.721c.306-.989.502-2.096.766-3.251.28-1.152.464-2.389.671-3.665.238-1.271.344-2.605.504-3.952.155-1.348.196-2.728.296-4.102.009-1.379.096-2.755.041-4.112l-.043-2.015-.118-1.963c-.066-1.289-.217-2.53-.333-3.706-.152-1.173-.286-2.283-.465-3.299a61.584 61.584 0 0 0-1.319-6.222l-.131-.483a1 1 0 1 1 1.937-.506z" fill="#ccc"/></g><g><path d="M33.819 73.313s-.231.759-.552 2.036a70.054 70.054 0 0 0-1.127 5.444c-.214 1.133-.358 2.376-.544 3.685-.135 1.315-.314 2.7-.394 4.142-.126 1.439-.166 2.931-.211 4.447-.036 1.516-.001 3.058.031 4.599.108 1.537.115 3.084.307 4.59.153 1.51.289 3 .542 4.424l.326 2.106c.114.687.277 1.349.408 1.999.279 1.297.509 2.532.845 3.641l.833 3.05.786 2.308.685 2.012.009.026a.43.43 0 0 1-.809.286l-.74-2.019-.849-2.32-.915-3.071c-.366-1.118-.628-2.364-.941-3.673-.148-.656-.328-1.326-.46-2.02l-.381-2.13c-.29-1.442-.463-2.951-.654-4.482-.23-1.528-.274-3.098-.419-4.66-.069-1.566-.14-3.135-.139-4.679.01-1.545.017-3.066.111-4.535.048-1.472.198-2.888.305-4.234.159-1.34.278-2.613.469-3.777a72.333 72.333 0 0 1 1.03-5.618c.313-1.37.518-2.104.518-2.104l.01-.035a1 1 0 1 1 1.926.541l-.006.021z" fill="#ccc"/></g><g><path d="M20.097 62.3l-.26.427c-.183.284-.393.678-.662 1.177-.254.514-.587 1.152-.888 1.913-.33.751-.631 1.63-.961 2.589-.282.976-.612 2.029-.845 3.176-.287 1.134-.451 2.362-.665 3.623-.129 1.275-.323 2.587-.363 3.937-.029.674-.091 1.352-.095 2.035v2.057c-.026 1.374.12 2.746.169 4.099.101 1.351.271 2.676.397 3.962.17 1.281.385 2.514.562 3.687.165 1.175.446 2.265.639 3.283.215 1.014.382 1.95.61 2.762l.54 2.115.47 1.844.006.023a.539.539 0 0 1-1.042.277l-.514-1.852-.59-2.126c-.247-.816-.436-1.76-.675-2.782-.217-1.027-.523-2.124-.716-3.313-.204-1.186-.448-2.433-.648-3.732-.156-1.306-.356-2.651-.488-4.027-.08-1.381-.256-2.778-.26-4.187l-.043-2.109c-.01-.702.038-1.401.054-2.095.013-1.39.184-2.751.291-4.073.194-1.313.339-2.591.614-3.782.219-1.201.541-2.316.818-3.348.326-1.021.626-1.957.961-2.767.308-.82.644-1.505.917-2.085.295-.579.53-1.031.696-1.299l.251-.432a1 1 0 1 1 1.73 1.004l-.01.019z" fill="#ccc"/></g><g><path d="M22.911 7.798l-.391 1.703-.449 1.954c-.188.756-.332 1.601-.517 2.526-.168.927-.4 1.92-.555 2.993-.163 1.07-.357 2.196-.518 3.366-.132 1.172-.299 2.382-.415 3.615-.081 1.235-.234 2.488-.261 3.745-.056 1.256-.099 2.513-.072 3.749-.019 1.238.082 2.449.13 3.625.118 1.168.199 2.303.379 3.363.137 1.068.358 2.059.55 2.975.221.909.442 1.736.684 2.453.234.719.47 1.335.685 1.828.215.495.395.877.536 1.125l.204.389.018.034a.537.537 0 1 1-.944.512l-.231-.414c-.16-.267-.362-.67-.601-1.19a21.708 21.708 0 0 1-.766-1.908c-.27-.745-.52-1.6-.77-2.538-.221-.943-.473-1.965-.639-3.061-.21-1.091-.32-2.252-.468-3.451-.078-1.202-.209-2.446-.219-3.71-.056-1.265-.041-2.549-.013-3.833-.001-1.286.124-2.562.179-3.825.089-1.259.23-2.493.339-3.69.137-1.193.307-2.342.449-3.434.132-1.093.347-2.118.497-3.07.167-.948.299-1.829.467-2.58l.405-1.964.353-1.711a1 1 0 1 1 1.959.403l-.005.021z" fill="#ccc"/></g><g><path d="M41.748 5.858l-.59 1.16-.674 1.331-.799 1.724c-.304.625-.58 1.337-.897 2.074-.324.736-.613 1.533-.928 2.352-.327.815-.593 1.682-.9 2.551a87.637 87.637 0 0 0-.819 2.671c-1.029 3.603-1.704 7.305-1.958 10.102-.275 2.802-.118 4.652-.118 4.652a.4.4 0 0 1-.794.084l-.001-.007s-.239-1.934-.071-4.801c.147-2.868.684-6.665 1.588-10.384a85.63 85.63 0 0 1 .728-2.76c.278-.899.516-1.797.816-2.643.288-.85.552-1.678.853-2.443.296-.769.547-1.503.838-2.168l.76-1.823.622-1.36.543-1.183a1 1 0 1 1 1.817.835l-.016.036z" fill="#ccc"/></g><g><path d="M87.928 6.605l.477 1.053c.313.654.722 1.652 1.202 2.857a64.104 64.104 0 0 1 1.408 4.142c.442 1.536.88 3.182 1.215 4.85a57.963 57.963 0 0 1 1.178 9.258c.11 2.546-.059 4.259-.059 4.259l-.001.006a.415.415 0 0 1-.826-.064s.091-1.648-.124-4.138a56.947 56.947 0 0 0-1.547-9.004c-.397-1.613-.895-3.198-1.389-4.67a63.765 63.765 0 0 0-1.537-3.949c-.502-1.117-.927-2.046-1.279-2.705l-.522-1.031a1 1 0 1 1 1.784-.904l.02.04z" fill="#ccc"/></g><g><path d="M106.934 9.084l.294 1.449c.181.926.477 2.226.728 3.851.126.807.301 1.678.416 2.604l.374 2.911.281 3.129c.046 1.07.138 2.153.146 3.242a57.299 57.299 0 0 1-.2 6.394c-.117 1.017-.207 2.002-.382 2.927-.139.929-.342 1.797-.518 2.598-.213.795-.404 1.524-.626 2.158-.2.639-.426 1.182-.607 1.629-.193.444-.347.792-.47 1.023l-.179.357a.506.506 0 0 1-.911-.439l.012-.025.157-.339c.109-.217.244-.55.414-.974.158-.429.359-.949.532-1.566.194-.61.357-1.317.54-2.086.147-.779.319-1.618.428-2.522.143-.897.202-1.858.288-2.846.118-1.984.129-4.11.016-6.233-.038-1.061-.16-2.121-.234-3.164l-.363-3.055-.449-2.844c-.138-.905-.333-1.744-.478-2.527-.284-1.557-.622-2.872-.829-3.787l-.335-1.44a1 1 0 1 1 1.955-.425z" fill="#ccc"/></g><g><path d="M61.686 35.463s-.36.392-1.04.97c-.369.292-.677.634-1.072 1.01-.398.334-.813.83-1.294 1.255-.428.491-.923.965-1.354 1.523-.249.251-.438.554-.66.838-.242.27-.408.597-.626.894a13.133 13.133 0 0 0-1.08 1.984c-.272.723-.565 1.464-.706 2.269-.19.791-.28 1.62-.335 2.456-.06.834-.033 1.682.004 2.508.056.829.137 1.64.247 2.418.099.779.259 1.511.391 2.197.284 1.368.587 2.519.814 3.319l.354 1.241.025.088a1.011 1.011 0 0 1-1.748.928l-.255-.303a24.959 24.959 0 0 1-.646-.846 23.575 23.575 0 0 1-1.916-3.252 24.372 24.372 0 0 1-.983-2.355c-.329-.853-.576-1.794-.809-2.782-.192-.999-.377-2.048-.412-3.149a16.534 16.534 0 0 1 .157-3.375c.155-1.14.483-2.276.889-3.359.442-1.072.964-2.104 1.616-2.998a12.65 12.65 0 0 1 2.126-2.32c.751-.653 1.535-1.137 2.261-1.562.76-.366 1.42-.7 2.095-.902.658-.191 1.24-.401 1.668-.436.882-.139 1.414-.156 1.414-.156a1.132 1.132 0 0 1 .875 1.897z" fill="#ccc"/></g><g><path d="M58.042 77.677l-.486.284c-.291.175-.886.493-1.145.728-.344.211-.837.651-1.376 1.177-.24.291-.53.574-.79.919-.237.366-.549.704-.778 1.141-.245.424-.517.859-.729 1.363-.248.481-.446 1.016-.648 1.572-.216.549-.355 1.155-.538 1.76-.124.626-.305 1.254-.387 1.925-.242 1.323-.317 2.739-.362 4.183 0 1.448.057 2.934.241 4.416a37.329 37.329 0 0 0 2.053 8.567c.51 1.317 1.047 2.582 1.67 3.718a24.188 24.188 0 0 0 1.934 3.091c.682.896 1.357 1.687 2.03 2.302.331.316.644.609.965.837.313.238.592.479.877.635l.743.462.583.274.488.231.049.023a.424.424 0 0 1-.319.787l-.555-.189-.67-.23-.863-.41c-.334-.141-.66-.362-1.031-.584-.379-.213-.752-.489-1.149-.791-.806-.589-1.627-1.356-2.47-2.241a25.918 25.918 0 0 1-2.444-3.083c-.803-1.146-1.526-2.427-2.23-3.779a40.47 40.47 0 0 1-3.241-8.989c-.381-1.597-.63-3.229-.81-4.855-.134-1.631-.226-3.255-.121-4.848.012-.795.135-1.581.206-2.353.135-.769.23-1.529.421-2.262.176-.735.358-1.451.61-2.135.21-.692.504-1.341.782-1.967.258-.633.631-1.199.927-1.759.324-.548.7-1.038 1.025-1.514.721-.902 1.388-1.659 2.132-2.283.755-.691 1.108-.896 1.419-1.14l.452-.336a3.212 3.212 0 1 1 3.535 5.353z" fill="#ccc"/></g><circle cx="58.5" cy="26.96" r="1.75" fill="#ccc"/><circle cx="70.5" cy="26.96" r="1.75" fill="#ccc"/></g></svg>