<svg id="レイヤー_1" xmlns="http://www.w3.org/2000/svg" viewBox="0 0 128 128"><path d="M5.44 45.691c33.938-5.004 39.992 1.269 58.701 1.653 18.709-.385 24.763-7.646 58.701-1.653 2.117.378 2.328.471 2.687 2.57.149.935.247 4.864.285 5.792.075 1.721-.272 1.949-1.981 2.86-1.486.786-2.18 1.021-2.18 4.16 0 20.696-9.396 27.099-22.027 27.594-13.346.519-24.206-7.074-28.725-18.725-6.396-16.465-7.401-16.465-13.797 0-4.52 11.651-15.1 19.244-28.448 18.725-12.63-.495-22.027-7.638-22.027-27.594 0-3.138-.693-3.373-2.18-4.16-1.708-.91-2.055-1.139-1.981-2.86.038-.929.136-4.858.285-5.792.36-2.099.57-1.204 2.687-2.57z" fill-rule="evenodd" clip-rule="evenodd" fill="#2f2f2f" stroke="#464747" stroke-width="3" stroke-miterlimit="10"/><g><path d="M115.232 60.035c.174-7.788-.928-9.596-5.869-10.611-4.63-.954-9.372-1.411-14.052-1.231-5.633.222-12.035 2.413-16.357 4.339-5.522 2.471-6.314 2.941-5.114 6.427 3.392 9.862 7.615 23.244 24.763 22.607 12.68-.465 16.37-9.527 16.629-21.531" fill-rule="evenodd" clip-rule="evenodd" fill="#fff"/><path d="M11.786 60.035c.272 12.004 3.949 21.066 16.628 21.53 17.148.637 21.37-12.745 24.764-22.607 1.201-3.485.408-3.956-5.114-6.427-4.322-1.926-10.723-4.117-16.357-4.339-4.68-.18-9.423.278-14.053 1.231-4.939 1.016-6.041 2.824-5.868 10.612z" fill-rule="evenodd" clip-rule="evenodd" fill="#fff"/><path d="M5.44 45.691c33.938-5.004 39.992 1.269 58.701 1.653 18.709-.385 24.763-7.646 58.701-1.653 2.117.378 2.328.471 2.687 2.57.149.935.247 4.864.285 5.792.075 1.721-.272 1.949-1.981 2.86-1.486.786-2.18 1.021-2.18 4.16 0 20.696-9.396 27.099-22.027 27.594-13.346.519-24.206-7.074-28.725-18.725-6.396-16.465-7.401-16.465-13.797 0-4.52 11.651-15.1 19.244-28.448 18.725-12.63-.495-22.027-7.638-22.027-27.594 0-3.138-.693-3.373-2.18-4.16-1.708-.91-2.055-1.139-1.981-2.86.038-.929.136-4.858.285-5.792.36-2.099.57-1.204 2.687-2.57zm110.642 14.986c.174-7.788-.928-9.596-5.869-10.611-4.63-.954-9.372-1.412-14.052-1.232-5.633.222-12.069 1.443-16.39 3.368-5.522 2.471-6.128 4.399-4.928 7.884 3.393 9.862 7.463 22.757 24.611 22.12 12.678-.463 16.369-9.525 16.628-21.529zm-103.881 0c.272 12.004 3.949 21.066 16.628 21.53C45.978 82.844 50.2 69.462 53.593 59.6c1.201-3.485.408-3.956-5.114-6.427-4.322-1.926-10.723-4.117-16.357-4.339-4.68-.18-9.423.278-14.053 1.232-4.939 1.015-6.041 2.823-5.868 10.611z" fill-rule="evenodd" clip-rule="evenodd" fill="#2f2f2f"/><path d="M54.147 69.527c-4.595 8.344-16.253 15.768-24.145 15.768-7.892 0-18.827-4.728-16.261-17.324 2.71-13.304 8.369-19.817 16.261-19.817 7.892 0 35.314 1.092 24.145 21.373z" fill="#2f2f2f"/><path d="M118.306 69.527c-3.716 8.771-16.253 15.768-24.145 15.768s-14.613-7.2-14.391-18.31c.246-12.319 7.65-18.971 15.541-18.793 15.668.354 31.764.639 22.995 21.335z" fill="#2f2f2f"/></g></svg>