<svg xmlns="http://www.w3.org/2000/svg" viewBox="0 0 128 128"><g id="Layer_2"><path d="M119.719 93.233l.017-.03c-10.123-17.241-10.944-39.284-.233-57.837.167-.289.34-.574.511-.86l-.018-.011c.033-.05.068-.099.099-.153a2.731 2.731 0 0 0-.999-3.729 2.713 2.713 0 0 0-1.96-.292c-.222.004-.444.009-.667.009-21.422 0-40.102-7.515-49.971-24.927h-.035a2.728 2.728 0 0 0-.211-.387c-.031-.048-.066-.092-.099-.137a2.668 2.668 0 0 0-.588-.587c-.032-.024-.061-.051-.095-.073a2.695 2.695 0 0 0-.392-.213c-.049-.022-.099-.039-.15-.059a2.657 2.657 0 0 0-.321-.1c-.051-.012-.101-.026-.153-.035a2.736 2.736 0 0 0-.483-.049l-.007-.001h-.002l-.007.001c-.165.001-.324.02-.481.049-.055.01-.107.024-.16.037a2.733 2.733 0 0 0-.303.094c-.057.021-.115.042-.17.067a2.764 2.764 0 0 0-.551.341 2.37 2.37 0 0 0-.357.334c-.038.043-.074.088-.11.133a3.007 3.007 0 0 0-.169.233c-.011.017-.019.036-.029.054-.058.097-.116.194-.162.298h-.033C51.575 22.815 32.92 30.33 11.527 30.33c-.223 0-.445-.005-.666-.009a2.708 2.708 0 0 0-1.958.292 2.732 2.732 0 0 0-.997 3.729c.031.054.065.103.098.153l-.018.011c.171.286.343.57.51.86 10.697 18.553 9.878 40.596-.232 57.837l.018.03a2.7 2.7 0 0 0-.238.396 2.713 2.713 0 0 0-.424 1.451 2.729 2.729 0 0 0 2.727 2.73c.062 0 .122-.005.182-.01v.023c.333-.005.665-.013 1-.013 21.393 0 40.048 7.403 49.903 24.791h.031c.043.099.099.191.154.284.013.023.024.047.038.069.05.08.107.153.164.227a3.098 3.098 0 0 0 .295.326c.059.055.122.104.186.153a2.74 2.74 0 0 0 .543.333c.054.024.109.044.165.065.1.038.203.07.308.096.053.013.104.026.158.036.157.029.317.048.482.049l.007.001h.002l.007-.001c.166-.001.326-.02.484-.049.051-.009.1-.022.15-.034.112-.027.22-.061.326-.101.049-.018.097-.035.144-.056.139-.063.274-.133.4-.217.028-.019.052-.042.08-.062.099-.072.193-.149.281-.233.042-.04.081-.082.121-.125.071-.076.136-.156.198-.24.032-.044.066-.086.095-.131.08-.124.153-.252.213-.388h.035c9.87-17.388 28.549-24.791 49.971-24.791.334 0 .667.007 1.001.013v-.023c.06.005.12.01.182.01a2.73 2.73 0 0 0 2.73-2.73c0-.534-.159-1.027-.423-1.448a2.84 2.84 0 0 0-.241-.401z" fill-rule="evenodd" clip-rule="evenodd" fill="#eee"/></g><g id="レイヤー_1"><g><g><path d="M119.947 93.517a2.725 2.725 0 0 0-.229-.375l.017-.03c-10.123-17.241-10.944-39.284-.233-57.837l.148-.249c.191-.235.335-.497.443-.775a2.731 2.731 0 0 0-.999-3.729 2.713 2.713 0 0 0-1.96-.292c-.222.004-.444.009-.667.009-21.269 0-39.83-7.413-49.754-24.56a2.899 2.899 0 0 0-1.878-1.858 2.36 2.36 0 0 0-.143-.044c-.06-.016-.118-.037-.18-.049-.02-.004-.041-.003-.061-.006a2.736 2.736 0 0 0-.483-.049l-.007-.001h-.002l-.007.001a2.81 2.81 0 0 0-.847.141 2.899 2.899 0 0 0-1.908 1.889c-9.913 17.13-28.441 24.536-49.672 24.536-.223 0-.444-.005-.666-.009a2.708 2.708 0 0 0-1.958.292 2.732 2.732 0 0 0-1.222 3.229 2.89 2.89 0 0 0 .807 1.511l.007.012c10.678 18.52 9.879 40.517-.18 57.744a2.9 2.9 0 0 0-.688 1.88c-.001.03-.009.059-.009.089 0 .052.013.101.015.153.005.061.009.122.018.183a2.71 2.71 0 0 0 1.025 1.809c.046.038.089.078.136.112l.029.018a2.908 2.908 0 0 0 2.33.459c.118-.001.236-.005.355-.005 21.163 0 39.64 7.251 49.576 24.239a2.91 2.91 0 0 0 5.714.014c9.948-16.998 28.454-24.253 49.652-24.253l.276.003a2.9 2.9 0 0 0 1.871-.188 2.725 2.725 0 0 0 1.766-2.546c0-.478-.134-.921-.35-1.312-.023-.052-.053-.103-.082-.156zM66.872 59.004V39.916a83.284 83.284 0 0 0 16.529 9.544l-16.529 9.544zm19.454-4.507a83.285 83.285 0 0 0 .034 19.121l-16.576-9.57 16.542-9.551zm-25.278 4.507l-16.517-9.536a83.152 83.152 0 0 0 16.517-9.546v19.082zm-2.912 5.043l-16.54 9.549a83.42 83.42 0 0 0 .034-19.078l16.506 9.529zm-22.28-12.863a78.202 78.202 0 0 1-.037 25.748L16.925 87.84c6.081-14.876 6.444-31.935.091-47.533l18.84 10.877zm25.192 17.907v18.957a83.143 83.143 0 0 0-16.407-9.484l16.407-9.473zm5.824 0l16.419 9.48a83.28 83.28 0 0 0-16.419 9.483V69.091zm25.276 7.868a78.094 78.094 0 0 1-.038-25.802l18.883-10.902c-6.391 15.63-6.026 32.732.09 47.636L92.148 76.959zm15.771-41.653l-18.72 10.808a78.07 78.07 0 0 1-22.327-12.878V15.432c9.851 11.894 24.41 18.283 41.047 19.874zM61.048 15.441v17.8a77.933 77.933 0 0 1-22.312 12.882L20.01 35.31c16.632-1.581 31.19-7.968 41.038-19.869zM20.214 92.667l18.644-10.764a77.953 77.953 0 0 1 22.191 12.818V112.4c-9.809-11.819-24.288-18.138-40.835-19.733zm46.658 19.741V94.726a78.115 78.115 0 0 1 22.206-12.814l18.639 10.761c-16.552 1.604-31.034 7.924-40.845 19.735z" fill-rule="evenodd" clip-rule="evenodd" fill="#474c4f"/></g></g></g></svg>