<svg xmlns="http://www.w3.org/2000/svg" viewBox="0 0 128 128"><g id="Layer_1"><g><path d="M63.92 30.476h-9.601c-4.734 0-7.602 3.498-6.952 7.879 1.514 10.118-1.879 24.18-4.464 34.158 0 3.601 32.587 2.539 32.587-1.062 2.585-9.978.11-22.977-1.405-33.095-.649-4.382-5.445-7.88-10.165-7.88z" fill="#444"/><g><g><path d="M25.567 67.219l-.091-.203a4.513 4.513 0 0 1 2.271-5.964l2.357-1.057a4.513 4.513 0 0 1 5.964 2.271l.091.203a4.513 4.513 0 0 1-2.271 5.964l-2.357 1.057a4.513 4.513 0 0 1-5.964-2.271z" fill="#fbc11b"/><path id="XMLID_1810_" fill="#444" d="M36.086 63.146l-6.392-1.719 4.418-16.411 7.379 1.985z"/><path fill="#fbc11b" d="M35.733 42.697l4.202 6.382 15.563-8.707-4.765-7.237z"/><circle cx="37.834" cy="45.888" r="3.821" fill="#444"/><circle cx="53.115" cy="36.752" r="4.331" fill="#fbc11b"/><path d="M57.799 33.666a5.23 5.23 0 0 1-1.492 7.244l.002.003-16.374 8.167-4.202-6.383 14.823-10.523a5.228 5.228 0 0 1 7.243 1.492z" fill="#444"/><path fill="#e0e0e0" d="M36.086 63.146l-6.392-1.719 1.138-6.219 7.836 1.816z"/></g></g><g><g><path id="XMLID_1815_" fill="#444" d="M89.922 11.003l6.409 1.653-4.757 15.43-7.399-1.908z"/><path fill="#fbc11b" d="M89.21 31.622l-2.897-7.071-16.798 6.237 3.284 8.018z"/><circle cx="87.762" cy="28.086" r="3.821" fill="#444"/><circle cx="71.158" cy="34.798" r="4.331" fill="#fbc11b"/><path d="M65.967 36.926a5.229 5.229 0 0 1 2.857-6.821l-.001-.003 17.49-5.551 2.896 7.071-16.421 8.161a5.229 5.229 0 0 1-6.821-2.857z" fill="#444"/><path fill="#e0e0e0" d="M89.926 10.993l6.413 1.636-1.427 6.247-7.804-1.797z"/><path d="M101.754 3.747c.497-.115.932.036 1.12.652.187.616-.208.949-.727 1.107l-3.083.937a.302.302 0 0 0-.161.462c.151.217.315.494.331.693.025.326-.222.754-.168 1.032.044.224.402.682.446 1.008.057.42-.158.97-.126 1.189.036.247.376.632.36 1.016-.016.384-.143.84-.711 1.032s-3.157 1.282-4.769 1.222c-1.612-.06-3.554-.646-4.351-3.268s1.31-4.988 3.002-5.351 8.34-1.616 8.837-1.731z" fill="#fbc11b"/></g></g><g><g><path fill="#fbc11b" d="M42.902 97.651l10.502 2.635 7.447-25.733-12.365-3.103z"/><circle cx="48.233" cy="98.624" r="5.407" fill="#444"/><path fill="#e0e0e0" d="M36.261 113.488l8.343 3.742-3.419 6.546-7.728-3.466z"/><path d="M56.542 65.523a7.584 7.584 0 0 1 5.51 9.201l.005.001-8.653 25.561-10.502-2.635 4.44-26.618a7.581 7.581 0 0 1 9.2-5.51z" fill="#444"/><path fill="#444" d="M35.101 113.469l10.118 4.704 7.87-17.188-9.867-4.428z"/></g><path d="M33.473 128l15.271-.034-.005-2.42a5.205 5.205 0 0 0-5.217-5.194l-10.065.023.016 7.625z"/></g><g><g><path fill="#fbc11b" d="M73.494 100.212l9.44-5.304-12.275-23.81-11.114 6.243z"/><circle cx="78.036" cy="97.256" r="5.407" fill="#444"/><path fill="#e0e0e0" d="M79.554 116.28l8.632-3.015 2.015 7.105-7.996 2.793z"/><path d="M61.323 67.499a7.583 7.583 0 0 1 10.325 2.897l.005-.003 11.281 24.515-9.44 5.303-15.068-22.387a7.583 7.583 0 0 1 2.897-10.325z" fill="#444"/><path fill="#444" d="M79.121 116.991l9.795-3.503-5.731-17.855-10.21 3.565z"/></g><path d="M81.206 128l15.271-.034-.005-2.42a5.205 5.205 0 0 0-5.217-5.194l-10.065.023.016 7.625z"/></g><path fill="#00e676" d="M55.366 31.311l4.544-1.81h5.27l2.758 2.407 1.119 9.68-3.481 11.269-4.165 8.269-1.813-4.816-4.1-11.814-2.383-6.18v-3.518z"/><path d="M55.555 31.236s-.889 1.418-.948 4.106c-.064 2.933 6.479 16.797 7.599 27.583l-1.609.065s-9.878-15.147-11.693-25.004c.565-.81 2.712-1.957 2.712-1.957l-4.419-2.269s4.069-6.502 7.167-8.17c1.508-.295 4.385-.426 4.975-.409l.268 4.852-4.052 1.203z" fill="#757575"/><path d="M65.965 30.192s1.337 1.435 1.68 4.098c.375 2.905-4.412 21.878-7.048 28.701l1.609-.065c9.776-7.04 11.612-26.75 11.612-26.75l-2.901-1.599 3.844-2.899s-4.676-5.841-7.93-7.103c-1.529-.101-4.4.135-4.985.227l.328 5.062 3.791.328z" fill="#757575"/><g><g><path id="XMLID_1825_" d="M61.378 35.181a3.973 3.973 0 0 1-4.312-3.603l-.303-3.383 7.915-.709.303 3.383a3.973 3.973 0 0 1-3.603 4.312z" fill="#e49500"/></g><g id="XMLID_1816_"><g id="XMLID_1822_" fill="#e49500"><path id="XMLID_1824_" d="M69.908 16.639s1.883.155 2.062 2.151c.158 1.761-1.132 2.578-2.485 2.699l-.428-4.774.851-.076z"/><path id="XMLID_1823_" d="M49.688 18.45s-1.825.487-1.646 2.483c.158 1.761 1.572 2.335 2.925 2.214l-.428-4.774-.851.077z"/></g><path id="XMLID_1821_" d="M58.626 4.47c-7.989.716-9.525 7.097-8.746 15.797.808 9.022 6.816 10.835 11.097 10.452 4.218-.378 9.877-3.169 9.063-12.258C69.261 9.76 66.616 3.754 58.626 4.47z" fill="#fbc11b"/><g><path id="XMLID_1_" d="M63.465 25.391l-2.918.27-2.918.27c-.335.031-.457.269-.205.585.353.443 1.587 1.244 3.302 1.085s2.781-1.172 3.047-1.672c.191-.358.026-.569-.308-.538z" fill="#c07b47"/></g><path id="XMLID_1820_" d="M56.714 20.469c.08.898-.455 1.68-1.2 1.747-.744.067-1.414-.607-1.495-1.506-.081-.901.459-1.683 1.203-1.75.745-.066 1.411.608 1.492 1.509" fill="#c07b47"/><path id="XMLID_1819_" d="M63.351 19.874c.08.898.748 1.573 1.495 1.506.743-.067 1.283-.849 1.202-1.747-.081-.901-.751-1.575-1.494-1.508-.747.066-1.284.849-1.203 1.749" fill="#c07b47"/><path id="XMLID_1818_" d="M61.713 23.062c-.484.185-.993.3-1.39.335a5.444 5.444 0 0 1-1.428-.083c-.218-.041-.283.167-.195.294.182.263.866.765 1.704.69.837-.075 1.421-.691 1.554-.982.063-.14-.038-.334-.245-.254z" fill="#e49500"/><path id="XMLID_1817_" d="M58.765 3.312s-.156.009-.224.016c-.068.005-.223.024-.223.024-8.606.938-10.74 6.358-10.418 9.955.313 3.495.547 6.063.547 6.063s.124-.155.36-.375c.251-.234.539-.379.539-.379l.697 2.881 2.335-6.26a.098.098 0 0 1 .093-.064l1.719.037a48.032 48.032 0 0 0 5.175-.174v.004c.074-.006.149-.015.223-.022.074-.007.149-.011.223-.018v-.004a47.957 47.957 0 0 0 5.124-.749l1.686-.342a.097.097 0 0 1 .103.046l3.411 5.745.174-2.959s.309.092.598.278c.271.174.421.305.421.305s-.227-2.568-.54-6.064c-.323-3.597-3.386-8.551-12.023-7.944z" fill="#6d4c41"/></g></g></g></g></svg>