<svg id="レイヤー_1" xmlns="http://www.w3.org/2000/svg" viewBox="0 0 128 128"><path d="M103.352 100.751C92.424 106.41 78.914 110 64.053 110 29.232 110 1 91.002 1 67.565 1 44.127 29.232 25.13 64.053 25.13c34.82 0 63.053 18.997 63.053 42.435 0 5.424-1.514 10.609-4.269 15.373-.001 0-2.956 9.25-19.485 17.813" fill="#2f2f2f"/><g><path d="M127.101 73.203v-5.539c-.008 1.881-.256 3.722-.615 5.538-4.102-20.768-30.458-36.803-62.434-36.803S5.723 52.433 1.618 73.199c-.362-1.837-.614-3.697-.617-5.602v5.605" fill="none"/><path d="M64.167 38.333c31.976 0 58.218 14.101 62.32 34.868.358-1.816.606-3.656.615-5.538v-.183c-.066-23.394-28.258-42.344-63.027-42.352h-.042c-34.799.009-63.009 18.99-63.031 42.409v.061c.003 1.904.255 3.764.617 5.602 4.105-20.767 30.572-34.867 62.548-34.867z" fill="#546670"/></g></svg>