<svg xmlns="http://www.w3.org/2000/svg" viewBox="0 0 128 128"><g id="Layer_2"><g><path d="M71.34 55.181c-4.037-1.749-10.644-1.749-14.681 0L11.34 74.819C7.303 76.569 4 81.6 4 86v8c0 4.4 3.303 9.431 7.34 11.181l45.319 19.638c4.037 1.749 10.644 1.749 14.681 0l45.319-19.638C120.697 103.431 124 98.4 124 94v-8c0-4.4-3.303-9.431-7.34-11.181L71.34 55.181z" fill="#006ca2"/></g><g><path d="M71.34 100.819c-4.037 1.749-10.644 1.749-14.681 0L11.34 81.181c-4.037-1.749-4.037-4.612 0-6.362l45.32-19.638c4.037-1.749 10.644-1.749 14.681 0l45.319 19.638c4.037 1.749 4.037 4.612 0 6.362l-45.32 19.638z" fill="#40c0e7"/></g></g><g id="Layer_3"><path d="M64 59.4c-9.941 0-18 8.059-18 18 0 3.976 8.059 7.2 18 7.2s18-3.224 18-7.2c0-9.941-8.059-18-18-18z" fill="#2f2f2f"/></g><g id="Layer_4"><path d="M58 30v34c0 1.105 2.686 2 6 2s6-.895 6-2V30H58z" fill="#78a3ad"/><path d="M58 44.826c1.854.751 3.876 1.174 6 1.174s4.146-.423 6-1.174V30H58v14.826z" fill="#2f2f2f"/></g><g id="Layer_5"><circle cx="64" cy="23" r="19" fill="#ed6c30"/><path d="M52.629 13.751c-1.784.866-2.477 3.222-1.997 5.038 1.076 4.044 8.078 1.424 5.784-3.11-1.076-2.137-2.569-2.52-3.787-1.928z" fill="#fff"/></g><g id="Layer_6"><ellipse cx="32" cy="79" rx="10" ry="5" fill="#006ca2"/></g><g id="Layer_7"><g><g/></g></g></svg>