<svg id="图层_1" xmlns="http://www.w3.org/2000/svg" viewBox="0 0 128 128"><g><path d="M116.243 105.748H11.757a6.076 6.076 0 0 1-6.076-6.076v-12.41a6.076 6.076 0 0 1 6.076-6.076h104.487a6.076 6.076 0 0 1 6.076 6.076v12.41a6.077 6.077 0 0 1-6.077 6.076z" fill="#6d4c41"/><path d="M99.882 58.686c0 19.929-16.156 36.086-36.087 36.086-19.932 0-36.089-16.157-36.089-36.086 0-19.932 16.157-36.089 36.089-36.089 19.932-.001 36.087 16.156 36.087 36.089" fill="#6d4c41"/><path d="M28.726 53.611c-3.226 17.088.119 29.007-17.908 29.007l-2.149 1.574h39.564V53.611H28.726z" fill="#6d4c41"/><path d="M99.424 52.925c3.153 16.71-.29 28.287 17.338 28.287v2.752L80.346 82.83V52.925h19.078z" fill="#6d4c41"/><path d="M91.958 59.501c0 15.354-12.449 27.802-27.803 27.802-15.356 0-27.805-12.449-27.805-27.802 0-15.357 12.449-27.806 27.805-27.806 15.354.001 27.803 12.449 27.803 27.806" fill="#fff"/><path d="M70.555 59.306a6.4 6.4 0 0 1-6.399 6.398 6.4 6.4 0 1 1 6.399-6.398" fill="#2f2f2f"/><g fill="#2f2f2f"><path d="M54.937 46.741a2.372 2.372 0 0 0-3.347.002 2.37 2.37 0 0 0 .002 3.345l8.979 8.98c.46.46 1.065.69 1.67.69a2.367 2.367 0 0 0 1.677-4.037l-8.981-8.98z"/><path d="M80.747 42.2a2.112 2.112 0 0 0-1.5-.621h-.004a2.098 2.098 0 0 0-1.493.622L65.256 54.694c-.401.4-.622.933-.622 1.499 0 .566.221 1.098.62 1.497a2.1 2.1 0 0 0 1.499.623h.001c.567 0 1.1-.222 1.497-.622l12.496-12.495c.4-.4.621-.932.621-1.498a2.099 2.099 0 0 0-.621-1.498z"/></g><path d="M66.144 59.306a1.992 1.992 0 0 1-1.989 1.991 1.993 1.993 0 0 1 0-3.984c1.098 0 1.989.892 1.989 1.993" fill="#fff"/><g fill="#6d4c41"><path d="M64.102 37.661a2 2 0 0 0 1.999-1.998v-4.075a2 2 0 0 0-1.999-1.998 2 2 0 0 0-1.998 1.998v4.075a2 2 0 0 0 1.998 1.998z"/><path d="M64.638 81.315a2 2 0 0 0-1.997 1.997v4.078c0 1.102.896 1.997 1.997 1.997a2 2 0 0 0 1.997-1.997v-4.078a2 2 0 0 0-1.997-1.997z"/><path d="M40.226 57.25h-4.073a2 2 0 0 0-1.998 1.999 2 2 0 0 0 1.998 1.999h4.073a2 2 0 0 0 1.999-1.999 2 2 0 0 0-1.999-1.999z"/><path d="M91.952 57.25H87.88a2 2 0 0 0-1.999 1.999 2 2 0 0 0 1.999 1.999h4.072a2 2 0 0 0 0-3.998z"/></g></g><path d="M19.626 110.76H4.296a1.956 1.956 0 0 1-1.956-1.956v-2.214c0-1.08.876-1.956 1.956-1.956h15.33c1.08 0 1.956.876 1.956 1.956v2.214a1.956 1.956 0 0 1-1.956 1.956z" fill="#6d4c41"/><path d="M123.682 110.76H108.3a2 2 0 0 1-2-2v-2.264a2 2 0 0 1 2-2h15.382a2 2 0 0 1 2 2v2.264a2 2 0 0 1-2 2z" fill="#6d4c41"/><path d="M126 107.628H2a2 2 0 0 1-2-2v-6.459a2 2 0 0 1 2-2h124a2 2 0 0 1 2 2v6.459a2 2 0 0 1-2 2z" fill="#8d6e63"/></svg>