<svg id="图层_1" xmlns="http://www.w3.org/2000/svg" viewBox="0 0 128 128"><g fill="#fcc21b"><path d="M74.31 71.793a2.772 2.772 0 0 0 5.529.407l.31-3.035-5.648-.104-.191 2.732z"/><path d="M48.108 72.096a2.772 2.772 0 0 0 5.529-.407l-.185-2.628-5.644.141.3 2.894z"/></g><g><path d="M64 41.217l16.377-3.092c1.844 0 2.55 3.586 2.55 5.431l-2 25.759H63.749L64 41.217z" fill="#2f2f2f"/></g><ellipse cx="64.122" cy="123.651" rx="13.753" ry="3.599" fill="#c2c2c2"/><path fill="#fff" d="M61.971 43.125h3.431v11.398h-3.431z"/><g/><g><path d="M64 41.217l-16.377-3.092c-1.844 0-2.55 3.586-2.55 5.431l2 25.759h17.179L64 41.217z" fill="#2f2f2f"/></g><g><path fill="#fcc21b" d="M63.834 45.23l-3.76-5.433v-3.141h7.852v3.141z"/><path d="M67.926 40.582s-1.502.635-3.926.635c-2.424 0-3.926-.635-3.926-.635v-3.926c0-1.03.677-1.973 1.707-1.973h4.438c1.03 0 1.707.943 1.707 1.973v3.926z" fill="#e8a23d"/></g><g><path fill="#e5e5e5" d="M59.981 44.49h8.607v12.913h-8.607z"/><path fill="#e15148" d="M67.542 65.41l-3.422 2.172-3.418-2.172 2.338-17.597h2.165z"/><path fill="#e15148" d="M65.205 47.939H63.04l-.956-2.187.404-1.191h3.268l.402 1.191z"/><path d="M59.595 38.602l4.461 5.969-3.513 4.008a.685.685 0 0 1-1.129-.145l-2.74-6.895a.89.89 0 0 1 .307-1.051l2.614-1.886z" fill="#fff"/><path d="M68.519 38.602l-4.464 5.969 3.379 3.997a.678.678 0 0 0 1.122-.13l2.77-6.88a.89.89 0 0 0-.287-1.041l-2.52-1.915z" fill="#fff"/></g><path fill="#2f2f2f" d="M68.895 68.222l2.312-1.068-.663-23.216-6.496 12.024-6.592-12.257-.663 23.216 2.177 1.006-.116.283z"/><path d="M59.206 27.022c0 1.185-.793 2.145-1.775 2.145-.981 0-1.779-.96-1.779-2.145 0-1.187.798-2.147 1.779-2.147.982-.001 1.775.96 1.775 2.147" fill="#2f2f2f"/><path d="M68.086 27.022c0 1.184.793 2.143 1.777 2.143.979 0 1.776-.959 1.776-2.143 0-1.187-.797-2.146-1.776-2.146-.984 0-1.777.959-1.777 2.146" fill="#2f2f2f"/><g><path d="M77.261 26.6s.041-3.581-1.894-5.807h-2.192v3.272l4.086 2.535z" fill="#6d4c41"/><path d="M50.732 26.6s-.041-3.581 1.894-5.807h2.192v3.272L50.732 26.6z" fill="#6d4c41"/><path d="M77.304 27.153c0 1.832-1.127 3.317-2.517 3.317s-2.518-1.485-2.518-3.317 1.127-3.317 2.518-3.317 2.517 1.485 2.517 3.317" fill="#fcc21b"/><path d="M55.731 27.153c0 1.832-1.127 3.317-2.518 3.317-1.39 0-2.517-1.485-2.517-3.317s1.127-3.317 2.517-3.317c1.391 0 2.518 1.485 2.518 3.317" fill="#fcc21b"/><path d="M75.886 24.748c0-2.963-5.321-9.798-11.888-9.798-6.565 0-11.888 6.835-11.888 9.798 0 2.964.87 13.502 11.888 13.502 11.022 0 11.888-10.538 11.888-13.502" fill="#fcc21b"/><path d="M51.138 24.108l-.032 1.202s1.341.113 2.067 2.185l.21.841a.685.685 0 0 0 1.35-.166v-4.906l-2.143-.397-1.452 1.241z" fill="#6d4c41"/><path d="M76.861 24.108l.032 1.202s-1.341.113-2.067 2.185l-.21.841a.685.685 0 0 1-1.35-.166v-4.906l2.143-.397 1.452 1.241z" fill="#6d4c41"/></g><g><path d="M72.212 27.813c.028-1.028-.149-1.267-.943-1.401a11.484 11.484 0 0 0-2.259-.163c-.906.029-1.935.319-2.629.573-.888.326-1.015.388-.822.848.545 1.302 1.224 3.069 3.981 2.984 2.038-.06 2.631-1.256 2.672-2.841" fill-rule="evenodd" clip-rule="evenodd" fill="#fff"/><path d="M55.584 27.813c.044 1.585.635 2.781 2.673 2.842 2.757.084 3.435-1.683 3.981-2.984.193-.46.066-.522-.822-.848-.695-.254-1.724-.544-2.629-.573a11.413 11.413 0 0 0-2.259.163c-.795.133-.972.372-.944 1.4z" fill-rule="evenodd" clip-rule="evenodd" fill="#fff"/><path d="M54.564 25.92c5.455-.661 6.429.168 9.436.218 3.007-.051 3.981-1.009 9.436-.218.34.05.374.062.432.339.024.123.04.642.046.765.012.227-.044.257-.318.378-.239.104-.35.135-.35.549 0 2.732-1.51 3.577-3.541 3.643-2.146.069-3.891-.934-4.618-2.472-1.028-2.174-1.19-2.174-2.218 0-.727 1.538-2.427 2.54-4.573 2.472-2.03-.065-3.541-1.008-3.541-3.643 0-.414-.111-.445-.35-.549-.275-.12-.33-.15-.318-.378.006-.123.022-.641.046-.765.057-.277.09-.159.431-.339zm17.785 1.978c.028-1.028-.149-1.267-.943-1.401a11.484 11.484 0 0 0-2.259-.163c-.906.029-1.94.19-2.635.445-.888.326-.985.581-.792 1.041.545 1.302 1.2 3.004 3.956 2.92 2.038-.061 2.631-1.257 2.673-2.842zm-16.698 0c.044 1.585.635 2.781 2.673 2.842 2.757.084 3.435-1.683 3.981-2.984.193-.46.066-.522-.822-.848-.695-.254-1.724-.544-2.629-.573a11.413 11.413 0 0 0-2.259.163c-.795.133-.972.372-.944 1.4z" fill-rule="evenodd" clip-rule="evenodd" fill="#2f2f2f"/><path d="M62.393 29.066c-.739 1.101-2.613 2.082-3.881 2.082-1.269 0-3.026-.624-2.614-2.287.436-1.756 1.345-2.616 2.614-2.616s5.677.144 3.881 2.821z" fill="#2f2f2f"/><path d="M72.706 29.066c-.597 1.158-2.613 2.082-3.881 2.082-1.269 0-2.349-.951-2.313-2.417.04-1.626 1.23-2.504 2.498-2.481 2.519.047 5.106.084 3.696 2.816z" fill="#2f2f2f"/></g><path fill="#e15148" d="M74.303 51.833h-5.095v-.625l2.548-1 2.547 1z"/><path d="M75.152 38.602l-2.018 2.92 3.078.454c-.093.607-.137 1.605-.561 2.049L63.979 59.921l.008-3.959 6.071-16.175 5.094-1.185z" fill="#444"/><g><path fill="#2f2f2f" d="M70.444 103.338H57.556L53.25 68.457h21.5z"/><path d="M60.499 111.983a2.93 2.93 0 0 1-2.931-2.931v-5.714h5.862v5.714a2.93 2.93 0 0 1-2.931 2.931z" fill="#444"/><path d="M67.542 111.983a2.93 2.93 0 0 1-2.931-2.931v-5.714h5.862v5.714a2.931 2.931 0 0 1-2.931 2.931z" fill="#444"/><path d="M63.189 74.765a1.44 1.44 0 0 0-.698 1.281l.939 27.293h1.181l.769-27.299a1.44 1.44 0 0 0-.699-1.273l-.008-.005a1.439 1.439 0 0 0-1.482 0l-.002.003z" fill="#444"/><path d="M63.43 104.546c-1.91.61-3.963.61-5.874 0v-1.207h5.874v1.207z" fill="#fff"/><path d="M70.479 104.546c-1.91.61-3.963.61-5.874 0v-1.207h5.874v1.207z" fill="#fff"/></g><path d="M75.686 19.993s-1.104-6.553-2.394-8.029c-1.273-1.457-6.282-1.68-9.292-1.686h-.002c-3.01.006-8.019.229-9.292 1.686-1.29 1.477-2.394 8.029-2.394 8.029S47.4 21.45 49.539 22.7c1.044.61 5.606.989 14.46.997H64c8.854-.008 13.416-.387 14.46-.997 2.139-1.251-2.774-2.707-2.774-2.707z" fill="#2f2f2f"/><path d="M52.848 38.602l2.018 2.92-3.078.454c.093.607.137 1.605.561 2.049L64.02 59.921l-.008-3.959-6.071-16.175-5.093-1.185z" fill="#444"/></svg>