<svg xmlns="http://www.w3.org/2000/svg" xmlns:xlink="http://www.w3.org/1999/xlink" viewBox="0 0 128 128"><g id="图层_1"><g id="XMLID_1863_"><path id="XMLID_979_" d="M17.295 71.495s-.013 3.524-.013-10.791c0-14.974 10.977-31.636 47.69-31.636 33.279 0 44.726 14.552 45.659 26.742.655 8.561-.188 15.106-.188 15.106s-1.034-.921-2.203-1.452c-.622-.283-1.249-.416-1.249-.416l-1.724 11.75-12.746-24.674a.392.392 0 0 0-.397-.212l-5.165.611a196.603 196.603 0 0 1-44.813.162l-6.973-.774a.393.393 0 0 0-.4.225L23.007 80.718l-1.783-11.959s-1.224.485-2.33 1.345c-1.038.807-1.599 1.391-1.599 1.391z" fill="#6d4c41"/><g id="XMLID_958_" fill="#e59600"><path id="XMLID_978_" d="M105.487 68.209s7.593 1.315 7.593 9.491c0 7.213-5.539 10.061-11.077 10.061V68.209h3.484z"/><path id="XMLID_959_" d="M22.673 68.209S15.08 69.524 15.08 77.7c0 7.213 5.539 10.061 11.077 10.061V68.209h-3.484z"/></g><path id="XMLID_949_" d="M64.08 22.901c-32.722 0-41.285 17.124-41.285 52.758 0 36.95 23.75 46.505 41.285 46.505 17.277 0 41.285-9.28 41.285-46.505 0-35.633-8.563-52.758-41.285-52.758z" fill="#fcc21b"/><path id="XMLID_934_" d="M75.906 100.269H64.081 52.256c-1.356 0-1.938.911-1.042 2.276 1.255 1.912 5.914 5.587 12.867 5.587s11.612-3.676 12.867-5.587c.896-1.365.314-2.276-1.042-2.276z" fill="#4c3734"/><path id="XMLID_933_" d="M75.906 100.269H64.081 52.256c-1.356 0-1.938.911-1.042 2.276 1.255 1.912 5.914 5.587 12.867 5.587s11.612-3.676 12.867-5.587c.896-1.365.314-2.276-1.042-2.276z" fill="#513f35"/><path id="XMLID_932_" d="M69.793 90.217c-2.012.57-4.1.848-5.713.848-1.613 0-3.7-.278-5.713-.848-.861-.244-1.198.572-.89 1.114.638 1.123 3.209 3.389 6.603 3.389 3.394 0 5.964-2.266 6.603-3.389.308-.543-.03-1.358-.89-1.114z" fill="#e59600"/><path id="XMLID_931_" d="M50.625 77.99c0 3.642-2.437 6.594-5.456 6.594-3.016 0-5.468-2.952-5.468-6.594 0-3.651 2.453-6.603 5.468-6.603 3.019 0 5.456 2.952 5.456 6.603" fill="#444"/><path id="XMLID_930_" d="M77.529 77.99c0 3.642 2.441 6.594 5.468 6.594 3.012 0 5.464-2.952 5.464-6.594 0-3.651-2.452-6.603-5.464-6.603-3.027 0-5.468 2.952-5.468 6.603" fill="#444"/><path id="XMLID_929_" d="M22.796 77.985l-2.177-13.43s-4.728-43.486 44.585-43.486 41.636 45.739 41.636 45.739l-1.508 11.178-12.811-21.697s-24.345 1.958-55.963-.417L22.796 77.985z" fill="#6d4c41"/><g id="XMLID_52_"><path id="XMLID_53_" d="M61.201 61.899c-8.855-8.846-23.202-8.846-32.055 0-8.128 8.131-8.768 20.887-1.967 29.772l-9.36 9.352 4.25 4.25 9.359-9.354c8.885 6.803 21.641 6.161 29.774-1.967 8.845-8.851 8.845-23.201-.001-32.053zm-3.372 28.684c-6.987 6.987-18.315 6.987-25.312 0-6.987-6.998-6.987-18.327 0-25.314 6.998-6.987 18.321-6.991 25.312 0 6.987 6.987 6.987 18.321 0 25.314z" fill="#78a3ad"/><path id="XMLID_1884_" d="M57.829 65.269c-6.991-6.991-18.315-6.987-25.312 0-6.987 6.987-6.987 18.316 0 25.314 6.998 6.987 18.325 6.987 25.312 0 6.987-6.993 6.987-18.327 0-25.314z" opacity=".6" fill="#fff"/><g id="XMLID_54_"><g id="XMLID_55_"><g id="XMLID_56_"><g id="XMLID_57_"><defs><path id="XMLID_58_" d="M7.07 115.991c2.171 2.179 4.992 2.892 6.293 1.593l12.597-12.625c3.061-3.061-4.674-11.088-7.882-7.88L5.484 109.704c-1.302 1.299-.588 4.116 1.586 6.287z"/></defs><use xlink:href="#XMLID_58_" overflow="visible" fill="#f79329"/><clipPath id="XMLID_2_"><use xlink:href="#XMLID_58_" overflow="visible"/></clipPath><path id="XMLID_1883_" d="M13.033 117.225c-.086-1.007-.744-2.196-1.168-2.866-1.267-2.006-2.86-3.671-5.24-4.304-2.419-.644-2.659 1.176-2.082 3.018.698 2.227 2.082 3.898 4.125 5.069.48.277 1.113.668 1.669.75 1.347.194 2.836.021 2.696-1.667z" clip-path="url(#XMLID_2_)" fill="#855c52"/></g></g></g></g></g><path id="XMLID_1881_" d="M126.235 55.236c0 4.661-5.55 7.932-16.235 11.032-6.077 1.763-10.887 5.615-19.167 6.52-6.862.75-17.194-2.187-24.998-2.187-7.803 0-19.305 2.981-26.136 1.983-10.797-1.577-15.455-5.719-21.533-7.483-10.682-3.1-16.241-5.205-16.241-9.865 0-4.661 4.671-7.868 15.355-10.968 6.077-1.763 16.281-5.177 24.561-6.082 6.862-.75 14.434.832 22.238.832 7.803 0 15.374-1.583 22.236-.832 8.283.905 16.938 2.485 23.017 4.249 10.683 3.099 16.903 8.14 16.903 12.801z" fill="#646464"/><path id="XMLID_1880_" d="M126.235 52.711c0 4.661-5.55 7.932-16.235 11.032-6.077 1.763-10.887 5.615-19.167 6.52-6.862.75-17.194-2.187-24.998-2.187-7.803 0-19.305 2.981-26.136 1.983-10.797-1.577-15.455-5.719-21.533-7.483-10.682-3.1-16.241-5.205-16.241-9.865 0-4.661 4.671-7.868 15.355-10.968 6.077-1.763 16.281-5.177 24.561-6.082 6.862-.75 14.434.832 22.238.832 7.803 0 15.374-1.583 22.236-.832 8.283.905 16.938 2.485 23.017 4.249 10.683 3.1 16.903 8.141 16.903 12.801z" fill="#848484"/><g id="XMLID_1903_"><defs><path id="XMLID_1879_" d="M109.667 48.318C100.5 28.391 92.5 5.568 75.729 8.483 64.347 12.068 60 11.568 48.992 8.779c-14.917-1.627-20.592 18.9-29.965 39.54.182 16.383 90.815 16.228 90.64-.001z"/></defs><use xlink:href="#XMLID_1879_" overflow="visible" fill="#646464"/><clipPath id="XMLID_3_"><use xlink:href="#XMLID_1879_" overflow="visible"/></clipPath></g><path id="XMLID_1878_" d="M47.755 13.011c4.326 2.877 9.617 4.227 14.801 3.678 4.771-.506 9.319-2.207 13.703-4.188.747-.337 1.502.402 1.203 1.165-.666 1.696-7.376 7.969-15.461 7.969-7.467 0-12.465-2.966-15.072-7.294-.34-.564-.069-1.925.826-1.33z" fill="#848484"/><path id="XMLID_1877_" d="M105.664 39.425c-15.003 9.064-67.86 9.101-82.722-.084-1.253 2.945-2.544 5.959-3.915 8.978.182 16.384 90.815 16.228 90.64 0-1.349-2.933-2.673-5.928-4.003-8.894z" fill="#444"/></g></g></svg>