<svg id="レイヤー_1" xmlns="http://www.w3.org/2000/svg" xmlns:xlink="http://www.w3.org/1999/xlink" viewBox="0 0 128 128"><path transform="rotate(-134.999 69.766 59.77)" fill="#e5502e" d="M54.899-4.483h29.733v128.505H54.899z"/><path d="M125.516 25.26c-1.81 1.81-7.007-5.499-11.532-10.023S102.493 6.07 104.303 4.26c1.81-1.81 10.556-2.228 16.973 4.189 5.5 5.499 6.05 15.001 4.24 16.811z" fill="#c63720"/><path d="M125.516 25.26c-2.343 2.343-9.727-.113-15.585-5.971S101.96 6.603 104.303 4.26s8.991.455 14.849 6.313 8.708 12.343 6.364 14.687z" fill="#e5502e"/><ellipse transform="rotate(45.001 24.24 105.109)" cx="24.238" cy="105.109" rx="15" ry="6" fill="#c63720"/><path d="M20.184 88.327c2.343-2.343 8.991.506 14.849 6.364 5.858 5.858 8.518 12.317 6.175 14.66l6.881-6.881-.286-.286c.926-2.928-1.318-8.644-6.433-13.758-5.115-5.115-11.406-7.934-14.334-7.008l-6.852 6.909z" fill="#2f2f2f"/><path d="M91.602 16.909c2.301-2.301 8.802.317 14.66 6.175 5.858 5.858 8.707 12.506 6.364 14.849l6.881-6.881-.286-.286c.926-2.928-1.893-8.644-7.008-13.759s-10.83-7.934-13.759-7.008l-6.852 6.91z" fill="#2f2f2f"/><path d="M30.601 114.99c-1.81 1.81-6.945-.251-11.469-4.775s-6.614-9.659-4.804-11.469c1.81-1.81 6.833.391 11.358 4.915 4.524 4.525 6.725 9.52 4.915 11.329z" fill="#e5502e"/><path fill="#e5502e" d="M9.534 125.813l21.38-11.146L14.66 98.413l-11.126 21.4z"/><ellipse transform="rotate(45.001 6.603 122.746)" cx="6.601" cy="122.745" rx="4.465" ry="1.786" fill="#c63720"/><g><defs><path id="SVGID_1_" d="M104.051 3.956l21.214 21.213-91.154 91.28-21.214-21.213z"/></defs><clipPath id="SVGID_2_"><use xlink:href="#SVGID_1_" overflow="visible"/></clipPath><ellipse transform="rotate(-44.928 81.758 68.988)" cx="81.764" cy="68.989" rx="30.705" ry="7.146" clip-path="url(#SVGID_2_)" fill="#2f2f2f"/></g></svg>