<svg xmlns="http://www.w3.org/2000/svg" viewBox="0 0 128 128"><g id="Layer_2"><g><path d="M44.879 81.096L26.221 92.723l-8.251 24.926c-.453 1.367 1.198 2.446 2.267 1.481 5.715-5.156 15.909-12.995 19.984-7.58l10.485-26.123-5.827-4.331z" fill="#bdbdbd"/><path d="M39.412 110.71c.278-7.185 5.755-19.781 8.179-25.033.055-.119-.118-.208-.183-.094l-12.666 22.151c-.615 1.138-1.01 1.944-1.23 2.515l1.653-.399c.973-.25 2.607-.051 3.751.48l.496.38z" fill="#fafafa"/><circle cx="30.008" cy="101.815" r="2.198" fill="#212121"/><path d="M30.008 103.424l-10.177 15.438c-.26.372-.159.644-.809.605l-.409-.231 9.964-16.885 1.431 1.073z" fill="#212121"/><path d="M43.993 74.459a3.676 3.676 0 0 0-.424 5.656l7.242 6.946a4.935 4.935 0 0 0 6.431.345s51.653-56.024 54.216-62.651c2.502-6.47-8.528-14.027-13.716-10.656-5.114 3.322-53.749 60.36-53.749 60.36z" fill="#795548"/><path d="M70.7 65.392l-.668-.598a1.102 1.102 0 0 1-.086-1.551l25.194-28.15a1.102 1.102 0 0 1 1.551-.086l.668.598c.45.403.489 1.101.086 1.551l-25.193 28.15a1.103 1.103 0 0 1-1.552.086z" fill="#bcaaa4"/></g><path d="M57.531 86.174l-12.372-11.27a2.197 2.197 0 0 1-.144-3.094 2.197 2.197 0 0 1 3.094-.144l12.371 11.27c.89.811.955 2.203.144 3.094a2.196 2.196 0 0 1-3.093.144z" fill="#bcaaa4"/></g></svg>