<svg xmlns="http://www.w3.org/2000/svg" viewBox="0 0 128 128"><g id="Layer_2"><path d="M64.826 46.299L27.288 92.553a3.45 3.45 0 0 0-.54.94l-4.879 12.806c-1.084 2.845 1.625 5.648 4.196 4.342l12.021-6.106c.344-.175.656-.417.92-.713L80.09 57.621a3.552 3.552 0 0 0 .814-2.993c-.733-3.958-3.623-12.768-14.652-9.328-.554.173-1.046.53-1.426.999z" fill="#bcaaa4"/><path d="M38.086 104.535l-12.021 6.106c-2.571 1.306-5.28-1.497-4.196-4.342l4.879-12.806 11.338 11.042z" fill="#bdbdbd"/><path d="M64 46.332c5.143-5.644 24.931-26.618 36.728-31.783 4.471-1.957 10.092 1.47 8.658 7.035-1.977 7.673-29.626 39.24-29.626 39.24-.571.732-2.728 1.245-3.377.966-.216-.093.602-.558.444-.823l-.124-.49a3.922 3.922 0 0 0-.483-1.143c-2.762-4.353-6.615-7.274-11.697-9.605-.558-.256-2.442-.247-2.442-.247-.003-1.401 1.115-2.268 1.919-3.15z"/><path d="M22.769 104.243l-1.342 3.316c-.939 2.32 1.407 4.605 3.635 3.541l3.481-1.664-5.774-5.193z" fill="#212121"/><path d="M52.089 82.054l-.515-.47a.877.877 0 0 1-.066-1.219l19.405-22.126a.837.837 0 0 1 1.195-.068l.515.47a.877.877 0 0 1 .066 1.219L53.284 81.986a.837.837 0 0 1-1.195.068z" fill="#fafafa"/><path d="M64.336 45.765c5.141-5.562 25.573-27.552 37.368-32.654 4.47-1.934 10.092 1.429 8.659 6.909-1.975 7.554-29.314 39.179-29.314 39.179-.761.962-2.297.876-2.927-.164C75.321 54.409 71 50.801 65.83 48.772l-.85-.334c-1.119-.439-1.448-1.804-.644-2.673z" fill="#795548"/><g><path d="M90.711 49.776c6.712-8.087 12.17-13.745 18.356-23.412.564-.881 1.935.396 1.405 1.333-4.532 8.002-15.328 20.266-18.1 23.428-.701.799-2.25-.64-1.661-1.349z"/><path d="M110.214 28.268a1.557 1.557 0 0 1-2.17.337l-1.497-1.094a1.557 1.557 0 0 1-.337-2.17 1.557 1.557 0 0 1 2.17-.337l1.497 1.094c.689.504.841 1.481.337 2.17z"/></g><path d="M26.748 93.493s.174-.391.246-.515c.065-.112.294-.425.294-.425l11.718 11.269s-.318.318-.456.422a6.793 6.793 0 0 1-.464.292L26.748 93.493z" fill="#fff"/></g></svg>