<svg id="レイヤー_1" xmlns="http://www.w3.org/2000/svg" xmlns:xlink="http://www.w3.org/1999/xlink" viewBox="0 0 128 128"><g><defs><path id="SVGID_1_" d="M40.974 80.919c-6.296-1.357-13.537.345-18.582 4.975-5.238 4.794-6.355 11.912-7.703 18.53-.74 3.598-1.023 8.746-4.149 11.213-1.412 1.112-2.706 1.171-4.346 1.085-.643-.03-3.622-1.046-2.769.908 1.614 3.736 9.626 6.014 13.097 6.788 9.331 2.076 19.326-.459 26.764-6.413a33.307 33.307 0 0 0 2.232-1.977c5.743-5.567 10.044-14.116 8.395-22.225-1.483-7.3-6.768-11.555-12.939-12.884z"/></defs><use xlink:href="#SVGID_1_" overflow="visible" fill="#855c52"/><clipPath id="SVGID_2_"><use xlink:href="#SVGID_1_" overflow="visible"/></clipPath><path d="M28.002 97.844c.09.328.137.731.118 1.237-.13 3.054 2.031 4.112 4.743 4.588 2.745.482 6.282.477 5.63 4.163-.289 1.583-1.248 2.615.168 3.857 2.134 1.871 6.751 2.33 9.333 1.22 1.592-.685 3.753-1.183 2.38 1.333-.79 1.446-2.073 2.691-3.084 4.01-1.11 1.445-2.376 2.533-3.848 3.591-1.081.786-1.904 1.794-3.105 2.416-3.061 1.568-6.683 1.591-10.013 2.071-4.455.638-8.919 2.393-13.206.331-4.54-2.184-9.849-2.555-14.28-4.928-2.184-1.168-3.384-2.837-2.595-5.269.685-2.09 2.301-2.629 4.325-2.718 2.292-.096 4.201-.376 5.609-2.404 1.212-1.717 1.078-4.548 1.302-6.543.291-2.723.499-5.625 1.653-8.148.965-2.079 1.986-4.153 3.293-6.046.606-.892 1.281-1.99 2.125-2.67 1.315-1.063 2.755-1.397 4.35-1.803.259 1.279-1.072 2.986-1.455 4.169-.65 2.019-.976 4.254.983 5.458 1.904 1.161 4.939-.176 5.574 2.085z" clip-path="url(#SVGID_2_)" fill="#ed6c30"/></g><path d="M64.068 56.134c8.552-6.932 21.613-22.091 29.564-29.727 4.878-4.676 9.501-9.716 14.133-14.605 2.932-3.094 7.349-8.646 12.247-7.694.848.166 1.562.663 2.163 1.273 1.327 1.346.86 3.934.083 5.459-3.123 6.113-7.947 11.644-12.132 17.061a255.879 255.879 0 0 1-4.865 6.17c-4.856 5.942-15.973 18.069-20.57 24.215-1.785 2.396-3.514 4.84-5.127 7.347-1.007 1.551-2.363 2.793-3.11 4.477-.762 1.725-3.957-4.066-4.133-4.513-.654-1.705-1.363-2.668-2.923-3.518-1.123-.603-7.351-2.633-6.479-4.574.214-.504.638-.961 1.149-1.371z" fill="#196ca2"/><g><defs><path id="SVGID_3_" d="M75.675 68.171C74.472 65.603 72.834 63.61 71 62c-.475-.418-.941-.823-1.363-1.237-2.844-2.791-5.525-3.815-7.947-3.138-3.634 1.024-4.709 2.606-7.222 5.68-.684.84-1.313 1.612-1.876 2.232-4.585 4.974-4.742 4.602-11.61 7.658l-.582.243c-1.548.65-3.668 1.539-4.206 3.731-.23.936-.211 2.397 1.189 4.069 1.526 1.83 3.337 3.102 5.078 4.334.626.439 1.25.878 1.859 1.346 1.99 1.534 3.723 3.406 5.552 5.393l1.083 1.166c.287.302.55.678.846 1.059.818 1.086 1.834 2.449 3.335 3.173.516.249.972.4 1.409.477 1.702.298 2.748-.604 3.303-1.087l.232-.195C62.293 95.076 64.018 91.509 65 89c.625-1.597.566-2.001 1-3 1.145-2.633 2.991-4.613 4-6 2-2.75 2.808-3.778 3.577-4.476C75.854 73.418 77 71 75.675 68.171z"/></defs><use xlink:href="#SVGID_3_" overflow="visible" fill="#c7e4ea"/><clipPath id="SVGID_4_"><use xlink:href="#SVGID_3_" overflow="visible"/></clipPath><path d="M63.993 98.164a2.879 2.879 0 0 1-2.122-1.65c-.493-1.107-.719-2.155-.929-3.085-.185-.844-.344-1.573-.67-2.185-2.979-5.643-7.046-9.904-14.033-14.705-2.094-1.437-4.061-2.319-5.822-2.628a2.87 2.87 0 0 1-2.334-3.321 2.87 2.87 0 0 1 3.325-2.328c2.574.451 5.292 1.647 8.073 3.55 5.44 3.739 11.586 8.656 15.865 16.759.684 1.299.96 2.537 1.194 3.631.166.752.308 1.403.566 1.969a2.87 2.87 0 0 1-1.444 3.787 2.855 2.855 0 0 1-1.669.206z" clip-path="url(#SVGID_4_)" fill="#78a3ad"/></g></svg>