<svg id="Layer_1" xmlns="http://www.w3.org/2000/svg" viewBox="0 0 128 128"><path d="M59.155 26.262c.124 1.073.381 2.119.713 3.19.133-.591.244-1.179.323-1.77.175-1.188.162-2.318.063-3.379-.168-1.029-.461-1.957-.935-2.742-.019-.03-.043-.058-.063-.088-.316 1.486-.34 3.126-.101 4.789z" fill="none"/><path d="M58.373 52.611L47.808 81.812l-2.493 6.862-.612 1.684-.306.842c-.154.372-.302.747-.476 1.109a11.118 11.118 0 0 1-2.967 3.702c-2.451 1.985-5.663 2.856-8.709 2.359-2.981-.45-5.714-2.212-7.346-4.611a11.08 11.08 0 0 1-1.828-8.142l.117-.578c.04-.181.089-.417.124-.508l.273-.869.519-1.428 1.027-2.8 3.85-10.466a313036.144 313036.144 0 0 0 11.712-31.84 2.437 2.437 0 0 1 4.587 1.644l-5.207 14.914-5.976 17.117-3.676 10.528-.986 2.815-.506 1.432-.176.596c-.051.151-.034.172-.047.241l-.03.179c-.201 1.255.113 2.742.932 3.878a5.24 5.24 0 0 0 3.54 2.171c1.388.223 2.962-.216 4.107-1.172a5.214 5.214 0 0 0 1.377-1.746l.22-.523.296-.834.597-1.689 2.434-6.883 10.392-29.263 4.122-11.527-1.125-2.988L54.816 34l-.378-1.028-.385-1.133c-.491-1.52-.882-3.093-1.093-4.727-.398-2.865-.3-6 .771-8.989l-.017-.004-.352-.052c-.24-.03-.451-.099-.713-.117-.532-.027-1.066-.089-1.58-.024-1.036.071-2.042.304-2.983.786-1.9.898-3.587 2.592-4.885 4.666-1.366 2.057-2.127 4.433-3.138 7.249L17.119 94.099l-.685 1.895-.251.816c-.081.297-.233.69-.255.908-.17.904-.371 2.032-.317 3.116a13.508 13.508 0 0 0 1.566 6.219c1.952 3.861 5.716 6.461 9.809 7.161 3.982.731 8.22-.576 11.174-3.065a13.645 13.645 0 0 0 3.515-4.464l.552-1.29.568-1.548 1.121-3.066L58.331 61.71l3.426-9.256-1.703-4.521-1.681 4.678z" fill="none"/><path d="M104.201 78.446c-.1-.388-.23-.77-.352-1.154l-.309-.841-.62-1.681-2.526-6.85-10.779-29.122-5.728-15.369c-.937-2.555-2.028-5.478-3.743-8.172a20.151 20.151 0 0 0-3.185-3.882c-1.329-1.171-2.911-2.202-4.735-2.809-1.814-.541-3.782-.758-5.552-.459-.445.065-.903.114-1.336.205l-1.246.359-.622.187-.31.095c-.118.044.044-.031-.303.111l-.122.053-.979.424c-.176.082-.299.116-.518.238l-.625.343c-.406.236-.848.462-1.215.722-.724.523-1.45 1.041-2.088 1.698-.037.036-.07.076-.106.112-1.255 1.232-2.324 2.713-3.017 4.326-.17.377-.318.757-.455 1.14.11.013.312.088.462.127 2.322.677 4.082 1.723 5.064 3.225a9.294 9.294 0 0 1 .617-1.927c.407-.976 1.026-1.803 1.771-2.526.335-.364.758-.652 1.164-.958l.059-.044c.212-.156.417-.239.62-.371l.302-.188c.086-.063.305-.14.451-.209 2.255-1.001 4.312-1.338 6.054-.779.868.294 1.692.814 2.484 1.491.761.746 1.5 1.601 2.134 2.622 1.303 2.044 2.212 4.371 3.179 7.01l5.751 15.36 10.952 29.058 2.584 6.828.634 1.676.313.828.17.541c.186.729.208 1.488.075 2.222-.258 1.469-1.177 2.82-2.381 3.546a5.234 5.234 0 0 1-4.105.627c-1.359-.338-2.558-1.272-3.215-2.36l-.093-.156c-.035-.062-.062-.066-.12-.215l-.251-.569-.538-1.421-1.064-2.786-3.989-10.414-6.484-16.931-5.65-14.752a2.436 2.436 0 1 0-4.565 1.705l5.404 14.843 6.203 17.036 3.815 10.479 1.023 2.801.525 1.425.353.84c.033.092.147.304.234.468l.284.517a11.085 11.085 0 0 0 6.652 5.039c2.795.779 6.02.36 8.587-1.22 2.648-1.587 4.539-4.326 5.129-7.424a11.088 11.088 0 0 0-.123-4.738z" fill="#3bb2de"/><g fill="#67939c"><path d="M28.705 86.413c.013-.07-.004-.091.047-.241l.176-.596.506-1.432.986-2.815 3.676-10.528 5.976-17.117 5.207-14.914a2.436 2.436 0 1 0-4.587-1.644l-5.453 14.825A313036.144 313036.144 0 0 1 25.13 79.432l-1.027 2.8-.519 1.428-.273.869c-.035.092-.084.327-.124.508l-.117.578a11.078 11.078 0 0 0 1.828 8.142c1.632 2.399 4.365 4.161 7.346 4.611 3.047.497 6.259-.374 8.709-2.359a11.086 11.086 0 0 0 2.967-3.702c.174-.362.322-.737.476-1.109l.307-.842.612-1.684 2.493-6.862 10.565-29.201 1.682-4.681-3.362-8.927-4.122 11.527-10.392 29.263-2.434 6.883-.597 1.689-.296.834-.22.523a5.223 5.223 0 0 1-1.377 1.746c-1.145.955-2.719 1.394-4.107 1.172a5.237 5.237 0 0 1-3.54-2.171c-.819-1.135-1.133-2.623-.932-3.878l.029-.176z"/><path d="M66.487 45.665a2.043 2.043 0 0 0-.709-.122 2.075 2.075 0 0 0-1.964 1.35l-2.057 5.559-3.426 9.256-14.415 39.071-1.121 3.066-.568 1.548-.552 1.29a13.619 13.619 0 0 1-3.515 4.464c-2.954 2.489-7.192 3.796-11.174 3.065-4.093-.7-7.857-3.3-9.809-7.161a13.48 13.48 0 0 1-1.566-6.219c-.054-1.084.147-2.212.317-3.116.022-.218.174-.61.255-.908l.251-.816.685-1.895 22.944-63.472c1.011-2.816 1.772-5.192 3.138-7.249 1.297-2.074 2.985-3.768 4.885-4.666.941-.482 1.948-.715 2.983-.786.514-.065 1.048-.003 1.58.024.262.018.473.087.713.117l.352.052.017.004c.11.013.312.088.462.127 2.322.677 4.082 1.723 5.064 3.225.02.03.044.057.063.088.473.785.767 1.713.935 2.742.099 1.061.112 2.191-.063 3.379-.08.591-.19 1.179-.323 1.77.427 1.377.981 2.795 1.569 4.373l1.871 5.051.611-1.7c.933-2.557 1.987-5.493 2.416-8.658.231-1.588.259-3.283.073-5.021-.259-1.752-.802-3.561-1.803-5.202a14.282 14.282 0 0 0-1.798-2.234 10.788 10.788 0 0 0-2.146-1.701c-.382-.238-.763-.496-1.152-.706l-1.185-.528-.596-.258-.298-.128c-.106-.038.002-.01-.228-.086l-.074-.025-.128-.039-1.022-.308c-.187-.051-.303-.104-.549-.153l-.699-.141c-.462-.082-.946-.195-1.394-.233-.89-.067-1.78-.141-2.69-.051-1.803.116-3.634.567-5.25 1.374-3.289 1.57-5.732 4.187-7.474 6.945-.894 1.385-1.61 2.838-2.217 4.316l-.437 1.114-.375 1.029-.728 2.027-22.604 63.594-.675 1.899-.124.382-.072.241-.144.481c-.094.348-.197.579-.282 1.021-.156.817-.377 1.693-.412 2.45l-.101 1.17c-.015.39-.001.781 0 1.17-.002 1.561.263 3.098.615 4.594.433 1.474.948 2.925 1.695 4.251 1.433 2.678 3.467 5.004 5.916 6.696.615.418 1.224.841 1.888 1.168l.977.517 1.016.421.508.207.254.102c.015.01.336.111.253.083l.112.033.895.264c.517.184 1.412.332 2.14.475 5.803.967 11.564-.942 15.654-4.453a19.006 19.006 0 0 0 4.81-6.28l.742-1.795.554-1.57 1.082-3.08 13.689-39.331 1.563-4.506 3.164-9.12.45-1.298a2.079 2.079 0 0 0-1.242-2.63z"/></g><path d="M116.931 89.536l-.592-1.85-.59-1.557-1.161-3.051-14.933-38.876-5.679-14.74a2.08 2.08 0 0 0-3.896 1.455l5.375 14.854 14.21 39.146 1.123 3.065.565 1.549.411 1.342a13.62 13.62 0 0 1 .197 5.678c-.65 3.808-3.043 7.541-6.556 9.554-3.578 2.107-8.131 2.551-12.114.862a13.484 13.484 0 0 1-5.21-3.738c-.74-.793-1.315-1.784-1.769-2.584-.124-.181-.261-.579-.391-.858l-.335-.785-.7-1.89C79.229 81.849 73.289 65.815 67.28 49.595l-1.501-4.052-2.47-6.667-1.871-5.051c-.588-1.577-1.142-2.996-1.569-4.373-.332-1.071-.589-2.117-.713-3.19-.239-1.662-.214-3.303.102-4.789-.982-1.502-2.742-2.548-5.064-3.225-.15-.04-.352-.115-.462-.127-1.071 2.99-1.169 6.124-.771 8.989.211 1.635.602 3.207 1.093 4.727l.385 1.133.378 1.028.752 2.018 1.125 2.988 3.362 8.927 1.703 4.521 2.358 6.263 15.237 40.463.71 1.886.152.372.1.23.201.46c.153.326.224.569.444.962.408.725.805 1.537 1.267 2.137l.677.959c.24.307.503.597.756.894 1.006 1.194 2.2 2.196 3.435 3.112 1.283.847 2.612 1.622 4.039 2.152 2.823 1.121 5.878 1.584 8.841 1.295.74-.077 1.478-.148 2.196-.327l1.08-.235 1.048-.334.522-.17.26-.086c.018-.002.328-.132.247-.1l.107-.047.854-.376c.513-.193 1.293-.658 1.941-1.019 5.056-3.007 8.224-8.184 9.082-13.506a19.05 19.05 0 0 0-.382-7.901z" fill="#3bb2de"/></svg>