<svg id="图层_1" xmlns="http://www.w3.org/2000/svg" viewBox="0 0 128 128"><g><g id="XMLID_103_"><g><path d="M78.755 14.117c-.993 8.105-3.55 24.201-6.857 35.861 1.257-15.058 4.369-29.925 5.066-32.736.287-1.132.892-2.213 1.791-3.125z" fill="#e49f49"/><path d="M119.5 69c-6.501-2.418-13.375-1.875-16.451 1.669-3.983 4.588-3.498 6.593-10.31 12.719-8.515 2.507-7.533-7.543-7.533-7.543.153-4.036 2.649-18.793 3.128-21.428.828-4.193 3.782-24.154 4.667-30.083 1.034-6.98-.364-11.962-5-13.419-4.5-1.414-7.5.586-9.245 3.202-.993 8.105-3.55 24.201-6.857 35.861a207.978 207.978 0 0 0-.286 3.973c-.32-.04-.63-.126-.924-.234l.07.014a85.671 85.671 0 0 0 1.14-3.754c1.257-15.058 4.369-29.925 5.066-32.736a6.88 6.88 0 0 1 1.792-3.125c.222-1.776.356-3.17.422-4.043.394-6.21-3.85-10.323-9.571-9.675-5.175.586-7.411 6.527-8.529 12.989-.54 3.121-3.352 23.408-6.775 37.885-2.766 4.229-6.245.63-6.245.63C39.63 34.77 37.621 24.74 35.874 19.765c-2.398-6.818-6.997-9.765-10.465-8.604-4.209 1.409-5.705 5.389-5.083 8.949.173 1.018.816 3.623 1.742 7.063 1.183 1.245 2.105 3.129 2.834 5.667.893 3.117 3.73 9.379 5.565 20.516.599 1.492 1.183 2.823 1.747 3.944.014-.009.04-.016.054-.026-.528.392-1.114.651-1.663.844.206-.117.385-.226.511-.31-.196-1.569-.41-3.044-.65-4.452-3.025-7.441-6.392-18.751-8.4-26.183-1.685-1.77-3.912-2.229-6.887-1.38-4.102 1.145-4.63 8.31-3.71 11.716 1.086 4.019 3.689 15.596 6.802 26.6.446 12.558.635 12.523 2.142 22.938 2.851 19.766 7.047 28.753 15.32 33.215 13.554 7.244 32.895 11.666 48.029 1.149 3.454-2.392 6.712-6.474 9.741-9.412.467-.453 7.541-14.248 8.545-15.503 3.515-4.395 6.465-7.118 8.84-8.973 2.375-1.855 4.334-3.898 5.489-4.897 7.373-6.376 7.952-11.83 3.123-13.626z" fill="#fac036"/><path d="M24.899 32.84c.893 3.117 3.73 9.379 5.565 20.516-3.025-7.441-6.392-18.751-8.4-26.183 1.184 1.245 2.105 3.129 2.835 5.667z" fill="#e49f49"/></g></g><g><path d="M21.823 29.911L31 60.125s2.191 1.014 3.337-1.119c-.317-1.353-10.296-29.669-10.296-29.669s-2.793-5.265-2.218.574z" fill="#e48c15"/></g><g><path d="M77.434 15.334c-1.03 2.304-8.1 40.499-8.1 40.499s.964 1.841 3.389.768c.486-2.162 6.377-40.912 6.377-40.912s.043-2.925-1.666-.355z" fill="#e48c15"/></g></g><g><g id="XMLID_100_"><g><path d="M85.693 71.356c-.382 1.816-.392 2.082-.472 4.188-11.124-1.483-19.71 4.059-23.099 8.919-5.004 7.173-6.952 15.703-9.332 13.87-.781-.599 1.756-8.504 6.295-15.246 3.241-4.82 7.151-8.01 11.339-9.424 3.625-1.221 7.476-2.139 15.269-2.307z" fill="#e48c15"/></g></g></g><g><path fill="none" d="M.03 0h127.939v128H.03z"/></g></svg>