<svg id="图层_1" xmlns="http://www.w3.org/2000/svg" viewBox="0 0 128 128"><g id="XMLID_69_"><g><path d="M98.78 62.951c1.401 6.278.713 36.039-3.031 41.795-6.342 9.704-14.339 8.036-18.364 9.691 0 0-5.387 2.152-12.327 1.388 0 0-5.705.891-15.116-2.929-5.807-2.369-12.646-4.164-18.058-18.452-3.693-9.729-3.757-10.633-1.388-14.034 0 0 1.77-3.222 3.578-3.477.764-.115 2.687-.853 3.388-2.229-.56 1.273-1.503 1.566-1.503 1.566s-2.827 8.405 3.413 10.977c4.954 2.037 1.197-4.801-1.77-12.849v-.013c.089-.28.127-.586.102-.917-.407-4.928-2.432-14.683 3.184-19.777 3.209-2.903 6.062-2.127 8.583-1.796 0 0 3.502 1.324 4.126-3.451.764-5.858-1.719-37.273 1.07-43.946 1.974-4.75 8.558-5.103 11.5-1.333 3.056 3.922 2.281 10.926 3.083 35.583.295 9.078.342 12.392 1.629 13.093 2.458 1.363 3.361-2.556 10.684.615 1.108.509 2.662 2.432 3.031 3.094.662 1.108 1.324 2.942 4.266 2.229 1.426-.342 8.366-1.806 9.92 5.172z" fill="#fac036"/><path d="M37.602 74.4c2.967 8.048 6.724 14.887 1.77 12.849-6.24-2.573-3.413-10.977-3.413-10.977s.942-.293 1.503-1.566c.013-.025.025-.064.038-.089.039-.077.064-.141.102-.217z" fill="#e48c15"/><path d="M37.602 74.387v.013c-.038.076-.064.14-.102.216a1.33 1.33 0 0 0 .089-.242l.013.013z" fill="#e48c15"/></g></g><path d="M42.903 109.661s3.475 2.073 3.475 5.804v6.259a5.835 5.835 0 0 0 5.835 5.835h33.858a5.835 5.835 0 0 0 5.835-5.927 548.148 548.148 0 0 1-.072-5.91c0-5.791 4.303-11.677 4.303-11.677l-53.234 5.616z" fill="#fac036"/><path fill="none" d="M.03 0h127.939v128H.03z"/></svg>