<svg id="图层_1" xmlns="http://www.w3.org/2000/svg" viewBox="0 0 128 128"><g><path d="M119.113 75.783c-4.835-1.852-11.311-2.486-14.748.449-3.635 3.102-5.18 4.457-11.784 10.211-8.734 2.631-5.89-18.26-5.37-23.979.03-.33 4.189-33.862 5.116-39.514 1.085-6.653-1.161-11.064-5.743-11.813-4.918-.804-8.083 5.782-8.633 9.188-.851 5.259-3.82 22.119-5.285 34.341 0 0-.23 1.17-.53 1.39-2.137 1.568-3.512-1.182-3.512-1.182-.613-9.25-.566-36.249-.613-41.375C67.93 4.637 65.232.447 60.597.438c-6.098-.011-7.931 5.227-7.839 13.884.055 5.17.866 24.551.741 39.301-2.235 3.997-4.929.551-4.929.551C46.803 40.17 45.218 21.807 44.5 17.5c-1.167-7-3.537-10.208-8.167-9.833-4.808.394-6.5 4.333-5.667 12.5.591 5.792 2.877 28.383 3.986 37.698-1.196 5.547-5.037 2.427-5.037 2.427-2.582-13.493-4.082-20.736-4.949-24.126-1.833-7.167-4.066-9.391-8.552-8.171C11.156 29.358 11 33.833 12 40.333c.672 4.369 5.718 33.705 6.199 45.395.758 17.963 8.786 33.12 17.864 36.934 12.75 5.357 30.187 5.337 44.688-2.659 3.514-1.938 8.486-8.711 11.418-11.464.455-.437 9.339-11.051 10.626-11.891 3.313-2.148 6.642-4.154 9.122-5.482 2.673-1.431 5.354-3.081 6.521-3.956 6.333-4.75 5.132-9.72.675-11.427z" fill="#fac036"/><path fill="none" d="M.031 0h127.938v128H.031z"/><g><g id="XMLID_1_"><g><path d="M86.395 71.979c-.027 1.73-.104 2.563-.023 4.268-11.124-1.483-20.467 3.981-23.855 8.841-5.004 7.173-6.952 15.703-9.332 13.87-.781-.599 1.756-8.504 6.295-15.246 3.241-4.82 7.151-8.01 11.339-9.424 3.626-1.221 7.784-2.142 15.576-2.309z" fill="#e48c15"/></g></g></g></g></svg>