<svg id="レイヤー_1" xmlns="http://www.w3.org/2000/svg" xmlns:xlink="http://www.w3.org/1999/xlink" viewBox="0 0 128 128"><path d="M42.996 84.478l-11.761-.003c-2.288 0-4.16 1.742-4.161 3.875l-.001 2.633 19.129.004v.002l11.893.003v-.002l19.129.004.001-2.633c0-2.133-1.879-3.876-4.167-3.877l-12.063-.003.001-6.686 36.965.008c3.131.001 5.703-2.567 5.704-5.704l.013-60.864c.001-3.137-2.571-5.707-5.701-5.707L6.359 5.509C3.219 5.508.647 8.077.646 11.214L.633 72.077c-.001 3.138 2.571 5.706 5.71 5.707l36.863.008-.21 6.686z" fill="#b0bec5"/><path d="M90.945 97.135l-76.639-.017c-1.068 0-2.118.852-2.332 1.898l-4.936 21.965c-.213 1.044 1.013 1.47 2.084 1.47l86.993.019c1.064 0 2.101-.425 1.888-1.469L93.27 99.032c-.215-1.044-1.261-1.897-2.325-1.897z" fill="#b0bec5"/><path d="M18.711 102.677l68.395.015a1.938 1.938 0 1 1-.001 3.874l-68.395-.015a1.94 1.94 0 0 1-1.937-1.938 1.94 1.94 0 0 1 1.938-1.936z" fill="#fff"/><path d="M88.964 115.917l-72.108-.016a1.938 1.938 0 0 1 .001-3.874l72.108.016a1.936 1.936 0 0 1-.001 3.874z" fill="#fff"/><path d="M125.015 114.293c-4.42 3.552-10.574 1.604-14.556-4.353-3.982-5.957-6.843-9.031-3.226-11.449s9.265-2.039 15.411 2.594c4.703 3.546 5.762 10.483 2.371 13.208z" fill="#b0bec5"/><path fill="#78909c" d="M43 78h18v3H43z"/><path fill="#78909c" d="M7.039 120.991h90.966v1.999H7.039z"/><path d="M125.026 114.288s-4.405 4.089-10.33.007c-5.519-3.802-8.618-11.221-8.886-11.927-.026.016 2.986 1.335 5.542 3.589 1.516 1.337 4.332 5.068 7.4 6.995 2.565 1.61 5.484 1.595 6.274 1.336z" fill="#78909c"/><g><defs><path id="SVGID_1_" d="M15.251 62.607a4.118 4.118 0 0 1-4.115-4.124V19.087c0-2.327 1.889-4.417 4.115-4.417h73.48c2.209 0 4.134 2.09 4.134 4.417v39.396c0 2.327-1.925 4.124-4.134 4.124h-73.48z"/></defs><use xlink:href="#SVGID_1_" overflow="visible" fill="#78909c"/><clipPath id="SVGID_2_"><use xlink:href="#SVGID_1_" overflow="visible"/></clipPath><path clip-path="url(#SVGID_2_)" fill="#eceff1" d="M50.906 12.521L34.469 67.606 9 67.331V13.072z"/></g><path d="M90 19v39H14V19h76m.105-5H13.852C11.542 14 9 15.955 9 18.331v40.223C9 60.929 11.542 63 13.852 63h76.253C92.397 63 95 60.929 95 58.554V18.331C95 15.955 92.633 14 90.341 14h-.236z" fill="#78909c"/></svg>