<svg id="图层_1" xmlns="http://www.w3.org/2000/svg" viewBox="0 0 128 128"><path d="M63.594 81.38h45.029c21.474 0 21.208-14.372 14.062-29.348-9.752-19.452-12.232-19.452-27.253-19.452H32.621c-15.021 0-17.503 0-27.255 19.452C-1.778 67.008-2.046 81.38 19.427 81.38h45.032" fill="#40c0e7"/><path d="M28.561 38.015V25.732c0-2.429 1.798-4.399 4.015-4.399h62.899c2.217 0 4.015 1.969 4.015 4.399v12.283H28.561z" fill="#196ca2"/><path d="M115.076 112.833H12.743C6.257 112.833 1 107.576 1 101.09V66.576c0-6.485 5.257-11.743 11.743-11.743h102.333c6.485 0 11.743 5.257 11.743 11.743v34.514c-.001 6.486-5.258 11.743-11.743 11.743z" fill="#196ca2"/><path d="M98.906 119.833H29.093V96.114c0-3.239 1.388-5.864 3.101-5.864h63.611c1.713 0 3.101 2.625 3.101 5.864v23.719z" fill="#2f2f2f"/><path d="M99.415 37.918c0-3.783-9.393-6.852-20.981-6.852H49.576c-11.589 0-20.985 3.069-20.985 6.852v.334c0 3.79 9.396 3.246 20.985 3.246h28.858c11.588 0 20.981.544 20.981-3.246v-.334z" fill="#006ca0"/><path d="M92.5 35H36.25V11c0-1.238 1.032-2.242 2.306-2.242h51.639c1.273 0 2.306 1.004 2.306 2.242v24z" fill="#fff" stroke="#78a3ad" stroke-width="5" stroke-miterlimit="10"/><path d="M97.446 73.368H30.804c-.997 0-1.804-.89-1.804-1.988v-7.02c0-1.098.808-1.988 1.804-1.988h66.641c.996 0 1.804.89 1.804 1.988v7.02c.001 1.099-.807 1.988-1.803 1.988z" fill="#2f2f2f"/><path d="M99.239 123.532v-20.596H87.684l.053 12.85c.419 1.63-1.126 3.159-3.193 3.159H43.726c-2.067 0-3.612-1.529-3.193-3.159l.053-12.85H29.032v20.596c-.799 2.096 1.148 4.218 3.871 4.218h62.465c2.723 0 4.67-2.121 3.871-4.218z" fill="#78a3ad"/><circle cx="111.5" cy="63.375" r="2.688" fill="#f79329"/><circle cx="111.5" cy="71" r="2.688" fill="#bdcf46"/><circle cx="64.167" cy="73.353" r="5.728" fill="#2f2f2f"/></svg>