<svg id="レイヤー_1" xmlns="http://www.w3.org/2000/svg" viewBox="0 0 128 128"><path d="M17.667 3v2.457c0 8.821 7.151 15.972 15.972 15.972h14.744c8.821 0 15.972 7.151 15.972 15.972v12.422" fill="none" stroke="#2f2f2f" stroke-width="5" stroke-linecap="round" stroke-linejoin="round" stroke-miterlimit="10"/><path d="M42.724 128h42.033c7.732 0 14-6.268 14-14V69.982H28.724V114c0 7.732 6.268 14 14 14z" fill="#fcc21b"/><circle cx="63.741" cy="69.982" r="35.016" fill="#fcc21b"/><g fill="none" stroke="#fff" stroke-miterlimit="10"><path d="M63.741 46.689c12.864 0 23.293 10.429 23.293 23.293S76.605 93.276 63.741 93.276 40.448 82.847 40.448 69.982s10.428-23.293 23.293-23.293z" stroke-width="3"/><circle cx="63.741" cy="69.982" r="23.293" stroke-width="4"/></g><circle cx="63.741" cy="69.982" r="21.343" fill="#2f2f2f"/><circle cx="63.741" cy="69.982" r="16.548" fill="#40c0e7"/><path d="M53.44 72.282s-.689-4.458 3.03-8.519" fill="none" stroke="#fff" stroke-width="2" stroke-linecap="round" stroke-miterlimit="10"/><path fill="none" stroke="#fff" stroke-width="2" stroke-linecap="round" stroke-miterlimit="10" d="M60.301 59.907l.915-.494"/><path d="M57.412 41.348l-1.184-5.451c-8.709 1.905-16.202 7.049-21.158 14.108l4.538 3.242c4.164-5.952 10.47-10.291 17.804-11.899z" fill="#ed6c30"/><path d="M71.253 35.897l-1.184 5.451c7.334 1.607 13.64 5.946 17.804 11.899l4.538-3.242c-4.956-7.059-12.448-12.203-21.158-14.108z" fill="#ed6c30"/></svg>