<svg id="レイヤー_1" xmlns="http://www.w3.org/2000/svg" xmlns:xlink="http://www.w3.org/1999/xlink" viewBox="0 0 128 128"><path fill="#fff" d="M11.6 27.863h105.669v75.616H11.6z"/><g><path d="M4.951 110.447c-3.017-3.201-3.516-8.093-1.149-11.8 2.413-3.778 4.205-7.767 2.89-12.616-1.611-5.941-3.652-11.765-5.42-17.664a9.778 9.778 0 0 1 .115-5.998c1.426-4.144 2.093-8.633 3.895-12.606 2.917-6.431 1.777-11.997-1.461-17.257-2.274-3.693-1.927-8.457.998-11.659 3.049-3.339 6.107-3.513 12.318-1.704 1.235.36 2.516.615 3.694 1.111 7.835 3.297 15.298 3.474 23.146-.721 2.736-1.462 7.789-1.45 10.344.165 6.751 4.268 12.875 4.27 19.458.372 4.576-2.709 9.074-2.902 13.509.462 3.902 2.959 8.327 3.215 12.88 1.955 3.562-.986 7.081-2.133 10.604-3.253 6.235-1.982 9.376-1.733 12.573 1.933 2.785 3.193 3.026 7.905.717 11.458-2.336 3.594-4.256 7.34-2.978 12.036 1.666 6.121 3.737 12.131 5.552 18.212a9.851 9.851 0 0 1-.159 6.104c-1.387 3.933-2.08 8.188-3.827 11.954-3.053 6.58-1.983 12.328 1.389 17.743 2.292 3.682 1.958 8.471-.983 11.658-3.002 3.253-5.987 3.472-11.909 1.808-1.552-.436-3.149-.778-4.628-1.396-7.571-3.168-14.759-3.096-22.312.766-2.84 1.452-7.889 1.714-10.385.111-7.11-4.564-13.55-4.226-20.419-.216-4.336 2.532-8.585 2.378-12.669-.665-4.104-3.059-8.684-3.212-13.392-1.956-3.423.913-6.788 2.043-10.168 3.112-6.077 1.921-9.155 1.807-12.223-1.449zm58.95-11.59c13.554 0 27.109.026 40.663-.012 5.995-.017 7.004-1.054 7.013-7.116.025-17.427.023-34.854.001-52.281-.008-6.014-1.301-7.342-7.433-7.35-26.786-.036-53.572-.034-80.357-.002-6.211.008-7.457 1.262-7.465 7.285-.023 17.427-.023 34.854 0 52.281.008 6.325.888 7.175 7.401 7.187 13.391.027 26.784.009 40.177.008z" fill="#855c52"/></g><g><defs><path id="SVGID_1_" d="M21.294 37.557h85.311v56.228H21.294z"/></defs><clipPath id="SVGID_2_"><use xlink:href="#SVGID_1_" overflow="visible"/></clipPath><path d="M5 114.615C5 80.161 28.029 50 41 50c13.235 0 36 30.161 36 64.615C77 149.069 60.882 177 41 177S5 149.069 5 114.615z" clip-path="url(#SVGID_2_)" fill="#78a3ad"/><ellipse cx="20.839" cy="103.964" rx="52.805" ry="35.385" clip-path="url(#SVGID_2_)" fill="#757f3f"/><ellipse cx="111.355" cy="100.087" rx="65.825" ry="44.11" clip-path="url(#SVGID_2_)" fill="#bdcf46"/></g><circle cx="78.007" cy="49.675" r="6.301" fill="#fcc21b"/></svg>