<svg id="图层_1" xmlns="http://www.w3.org/2000/svg" viewBox="0 0 128 128"><path d="M58.034 2.192c-8.955-3.78-22.071-1.306-27.319 8.405-3.605 6.669-3.756 13.161-3.889 18.888-.146 6.281-.271 11.706-4.425 16.911-3.778 4.734-9.872 7.163-18.113 7.218l-.172.001c-.374 0-.744-.008-1.11-.025-1.468-.065-2.678 1.138-2.678 2.607v.011c0 1.372 1.059 2.537 2.43 2.607.447.023.899.035 1.358.035l.208-.001c9.899-.066 17.358-3.158 22.17-9.187 5.255-6.585 5.414-13.433 5.567-20.056.131-5.636.255-10.959 3.26-16.52 3.837-7.102 13.978-8.9 20.677-6.071 8.334 3.518 12.75 14.737 12.116 30.778l5.231.207c.725-18.342-4.856-31.394-15.311-35.808z" fill="#2f2f2f"/><path d="M71.14 127.75c-19.826 0-35.898-16.072-35.898-35.898V40.957C35.242 31.04 43.282 23 53.199 23H89.08c9.917 0 17.957 8.04 17.957 17.957v50.895c.001 19.826-16.071 35.898-35.897 35.898z" fill="#40c0e7"/><g/><path d="M100.011 57.233H42.692a3.506 3.506 0 0 1-3.506-3.506V41.09c0-7.745 6.278-14.023 14.023-14.023h36.285c7.745 0 14.023 6.278 14.023 14.023v12.637a3.507 3.507 0 0 1-3.506 3.506z" fill="#006ba7"/><g fill="#40c0e7"><path d="M57.546 25.077h4.965v49.415h-4.965z"/><path d="M79.801 25.077h4.967v49.415h-4.967z"/></g><path d="M59.496 112.843c-.348 0-.702-.059-1.049-.183-12.657-4.537-16.004-14.645-15.478-20.225.161-1.709.842-2.498 2.072-2.479 1.712.027 1.503 1.227 2.072 2.867 1.056 3.04 2.241 9.973 13.431 13.984a3.11 3.11 0 0 1-1.048 6.036z" fill="#fff"/></svg>