<svg id="Layer_1" xmlns="http://www.w3.org/2000/svg" viewBox="0 0 128 128"><g><path d="M104.661 117c0 1.65-1.35 3-3 3H29.233c-1.65 0-3-1.35-3-3V11c0-1.65 1.35-3 3-3h72.428c1.65 0 3 1.35 3 3v106z" fill="#066da3"/></g><path fill="#42c0e7" d="M30.658 12.943h69.579v47.343H30.658z"/><path fill="#86d4ee" d="M30.658 12.943h69.579v4.139H30.658z"/><path fill="#42c0e7" d="M30.658 65.238h69.579v49.647H30.658z"/><path fill="#86d4ee" d="M30.658 65.238h69.579v4.139H30.658z"/><g><g><path d="M55.126 99.105c-1.1 0-2 .834-2 1.853 0 1.019.9 1.853 2 1.853h20.641c1.1 0 2-.834 2-1.853 0-1.019-.9-1.853-2-1.853H55.126z" fill="#066da3"/></g><g><path fill="#fff2d3" d="M56.066 81.316h18.762v10.457H56.066z"/><path fill="#f9b719" d="M72.287 81.316v8.053h-13.68v-8.053h-2.541v10.457h18.762V81.316z"/></g></g><g><g><path d="M55.126 45.656c-1.1 0-2 .834-2 1.853s.9 1.853 2 1.853h20.641c1.1 0 2-.834 2-1.853s-.9-1.853-2-1.853H55.126z" fill="#066da3"/></g><g><path fill="#fff2d3" d="M56.066 27.868h18.762v10.457H56.066z"/><path fill="#f9b719" d="M72.287 27.868v8.053h-13.68v-8.053h-2.541v10.457h18.762V27.868z"/></g></g></svg>