<svg id="Layer_1" xmlns="http://www.w3.org/2000/svg" viewBox="0 0 128 128"><g><path fill="none" d="M15.731 105.385l13.097-26.61V41.203l-13.097 26.61z"/><path d="M31.396 32.914l-.012-.004h-1.942L12.808 66.774a1.539 1.539 0 0 0-.158.68v44.551a1.542 1.542 0 0 0 2.924.68l15.818-32.139H118.866V32.914h-87.47zm-2.568 45.861l-13.097 26.61V67.813l13.097-26.61v37.572z" fill="#513118"/></g><path fill="#513118" d="M14.575 69.123l16.179-32.871v44.551l-16.179 32.871z"/><g><path d="M106.581 39.01H87.407a1.861 1.861 0 0 0-1.861 1.861v6.868c0 1.028.834 1.861 1.861 1.861h19.174a1.861 1.861 0 0 0 1.861-1.861v-6.868a1.86 1.86 0 0 0-1.861-1.861z" fill="#904427"/><path fill="#ffd393" d="M32.948 45.786h75.494v44.551H32.948z"/><path d="M84.289 43.992H65.115a1.86 1.86 0 0 0-1.861 1.861v6.868a1.86 1.86 0 0 0 1.861 1.861h19.174a1.861 1.861 0 0 0 1.861-1.861v-6.868a1.86 1.86 0 0 0-1.861-1.861z" fill="#64758b"/><path fill="#ffd393" d="M29.033 51.243h75.494v44.551H29.033z"/><g><path d="M104.081 67.257l-.01-4.928-.01-5.051-.003-1.407c-.005-.474.02-.98-.063-1.363a3.403 3.403 0 0 0-2.483-2.656c-.422-.109-.803-.122-1.318-.107l-2.849.035c-1.848.039-3.573.03-5.051-.002-1.478-.026-2.711-.022-3.573-.062l-1.355-.053a.452.452 0 0 1 0-.903l1.355-.053c.862-.04 2.095-.036 3.573-.062 1.478-.032 3.203-.041 5.051-.002l2.849.035c.453.001 1.061.005 1.588.164a4.397 4.397 0 0 1 3.166 3.515c.093.575.051 1.038.059 1.514l-.003 1.407-.01 5.051-.01 4.928c-.001.249-.203.451-.453.451s-.45-.201-.45-.451z" fill="#eeba73"/></g><g><path d="M39.397 51.663s-.375.04-.937.081c-.562.038-1.312.057-2.061.065-.75-.004-1.499-.02-2.061-.061-.562-.039-.937-.086-.937-.086a.455.455 0 0 1 0-.903s.375-.047.937-.086a33.986 33.986 0 0 1 2.061-.061c.75.008 1.499.027 2.061.065.562.041.937.081.937.081a.455.455 0 0 1 0 .905z" fill="#eeba73"/></g><path d="M62.619 48.829H43.445a1.86 1.86 0 0 0-1.861 1.861v6.867a1.86 1.86 0 0 0 1.861 1.861h19.174a1.86 1.86 0 0 0 1.861-1.861V50.69a1.86 1.86 0 0 0-1.861-1.861z" fill="#855731"/><path fill="#ffd393" d="M25.279 56.54h75.494v44.551H25.279z"/><g><path d="M41.571 56.976s-.731.056-1.828.102c-1.097.048-2.56.071-4.022.081a101.493 101.493 0 0 1-4.022-.076c-1.097-.044-1.828-.107-1.828-.107a.566.566 0 0 1 0-1.129s.731-.063 1.828-.107c1.097-.051 2.56-.07 4.022-.076 1.463.01 2.925.033 4.022.081 1.097.045 1.828.102 1.828.102a.566.566 0 0 1 0 1.129z" fill="#eeba73"/></g><g><path d="M100.614 73.228l-.015-7.867-.007-3.811c-.017-.661.045-1.424-.088-1.972a3.409 3.409 0 0 0-2.591-2.561c-.601-.133-1.409-.056-2.18-.071l-4.696.025c-3.147.009-6.293.05-9.244.031l-8.064-.046c-2.36-.007-4.327-.028-5.703-.058l-2.163-.036a.452.452 0 0 1 0-.903l2.163-.036c1.377-.03 3.343-.05 5.703-.058l8.064-.046c2.95-.019 6.097.022 9.244.031l4.696.025 1.157.006c.358-.007.848.018 1.252.114a4.408 4.408 0 0 1 3.309 3.378c.157.849.068 1.49.09 2.177l-.007 3.811-.015 7.867a.452.452 0 0 1-.905 0z" fill="#eeba73"/></g><path d="M41.436 54.69H22.262a1.86 1.86 0 0 0-1.861 1.861v6.868a1.86 1.86 0 0 0 1.861 1.861h19.174a1.86 1.86 0 0 0 1.861-1.861v-6.868a1.86 1.86 0 0 0-1.861-1.861z" fill="#dc7f27"/><path fill="#ffd393" d="M20.401 62.96h75.494v44.551H20.401z"/><g><g><path d="M95.829 69.665l-.022-2.443c.002-.396-.012-.794-.108-1.165a3.395 3.395 0 0 0-3.272-2.568l-19.537.065-19.541-.061-8.882-.082a.45.45 0 0 1 0-.903l8.882-.082 19.541-.061 19.546.069a4.393 4.393 0 0 1 3.509 1.85c.729.975.855 2.182.809 2.938l-.022 2.443a.452.452 0 0 1-.903 0z" fill="#eeba73"/></g></g></g><g><path d="M102.122 67.197H14.576c-.005 0-.01-.004-.015-.004H12.65v46.481c0 1.064.862 1.926 1.926 1.926h88.745c.734 0 1.404-.417 1.728-1.076l13.815-28.456V32.795l-16.742 34.402z" fill="#855731"/></g><g><path d="M104.291 70.724l.104 1.777c.043 1.131.149 2.746.196 4.684.046 1.938.139 4.199.168 6.622.045 2.423.052 5.007.061 7.591-.01 2.584-.02 5.169-.065 7.591-.035 2.423-.122 4.684-.168 6.622-.049 1.938-.151 3.553-.194 4.684l-.102 1.777a.971.971 0 0 1-1.94 0l-.102-1.777c-.043-1.131-.145-2.746-.194-4.684-.047-1.938-.133-4.199-.168-6.622-.044-2.423-.054-5.007-.065-7.591.01-2.584.016-5.169.061-7.591.03-2.423.122-4.684.168-6.622.046-1.938.153-3.553.196-4.684l.104-1.777a.97.97 0 0 1 1.94 0z" fill="#513118"/></g><g><g><path fill="#fff2d4" d="M41.829 85.514h28.835v16.071H41.829z"/><path fill="#f7b618" d="M66.759 85.513V97.89H45.734V85.513h-3.905v16.072h28.835V85.513z"/></g></g><g><path fill="#513118" d="M29.177 20.905h89.815v12.519H29.177z"/><path fill="#6e451d" d="M118.993 33.424l-16.756-5.585V15.32l16.756 5.585z"/><path fill="#6e451d" d="M29.37 33.424l-16.691-5.585V15.32l16.691 5.585z"/><path fill="#855731" d="M12.421 15.32h89.815v12.519H12.421z"/></g><g fill="#f7b618"><path d="M56.246 23.73a4.11 4.11 0 0 0-4.109 4.109h8.218a4.108 4.108 0 0 0-4.109-4.109z"/><path d="M56.246 71.332a4.11 4.11 0 0 0 4.109-4.109h-8.218a4.11 4.11 0 0 0 4.109 4.109z"/></g><g><path d="M115.012 34.65l-13.002.2-13.327.107-15.277.045-15.277-.047-13.327-.108L31.8 34.65a.647.647 0 0 1 0-1.293l13.002-.197 13.327-.108 15.277-.047 15.277.045 13.327.107 13.002.2a.647.647 0 0 1 0 1.293z" fill="#60371a"/></g></svg>