<svg id="レイヤー_1" xmlns="http://www.w3.org/2000/svg" xmlns:xlink="http://www.w3.org/1999/xlink" viewBox="0 0 128 128"><path d="M120.726 17.595H85.274A4.274 4.274 0 0 0 81 21.869v13.393h44V21.869a4.273 4.273 0 0 0-4.274-4.274z" fill="#a13300"/><path d="M121.123 102.307H19.877A3.877 3.877 0 0 1 16 98.43V31.655a3.877 3.877 0 0 1 3.877-3.877H125V98.43a3.877 3.877 0 0 1-3.877 3.877z" fill="#ccb656"/><path d="M83.18 25.304H47.728a4.274 4.274 0 0 0-4.274 4.274v13.393h44V29.578a4.274 4.274 0 0 0-4.274-4.274z" fill="#1a6ca2"/><path d="M115.123 110.973H13.877A3.877 3.877 0 0 1 10 107.096V40.321a3.877 3.877 0 0 1 3.877-3.877h101.245a3.877 3.877 0 0 1 3.877 3.877v66.775a3.876 3.876 0 0 1-3.876 3.877z" fill="#e5d07a"/><g id="I8SnGU.tif"/><path d="M42.756 34.261H7.244A4.244 4.244 0 0 0 3 38.505V51.68h44V38.505c0-2.344-1.9-4.244-4.244-4.244z" fill="#f79329"/><g id="lhvXSY.tif"/><path d="M108.123 120H6.877A3.877 3.877 0 0 1 3 116.123V45.471h105.123A3.877 3.877 0 0 1 112 49.348v66.775a3.877 3.877 0 0 1-3.877 3.877z" fill="#f7e599"/></svg>