<svg id="Layer_1" xmlns="http://www.w3.org/2000/svg" viewBox="0 0 128 128"><path d="M97.124 80.804l.297-.31a191.46 191.46 0 0 0 1.102-6.922l-4.173 4.345-4.784-4.981 5.118-5.329 4.078 4.246c.231-1.701.449-3.401.658-5.089l-1.963-2.044 2.535-2.639c.398-3.275.793-6.47 1.238-9.517l-4.023-4.189 5.202-5.416.477.497c.092-.394.185-.784.282-1.168 1.737-6.894 8.092-12.085 8.092-14.182 0-.043-.008-.084-.008-.127l-1.285 1.338-5.102-5.312 2.728-2.852a22.626 22.626 0 0 0-3.231-2.409l-2.27 2.374-5.119-5.33.406-.424c-2.679-1.022-5.678-1.924-8.936-2.683l2.99 3.113-4.774 4.991-4.7-4.893 3.654-3.82a99.345 99.345 0 0 0-4.749-.822l-1.678 1.754-2.169-2.258a121.164 121.164 0 0 0-10.164-.703l-3.231 3.364-3.25-3.384c-3.333.075-6.573.279-9.689.597l-2.593 2.7-2.043-2.127a100.65 100.65 0 0 0-4.769.808l4.04 4.206-5.119 5.329-5.035-5.242 3.625-3.774c-3.687.827-7.052 1.835-10.016 2.991l.799.831-4.655 4.846-2.498-2.601c-1.26.768-2.375 1.574-3.324 2.414l3.003 3.122-4.905 5.107-1.877-1.955a6.986 6.986 0 0 0-.056.831c0 1.95 4.625 5.762 6.668 11.827l.3.313-.153.159c.095.307.19.614.27.932.285 1.134.572 2.366.858 3.667L25 43.133l5.035 5.242L25 53.617l-.093-.097c.42 2.266.842 4.639 1.264 7.091l3.746 3.9-2.623 2.742c.272 1.632.544 3.279.817 4.933l4.579-4.787 4.7 4.893-5.025 5.253-4.069-4.236c.384 2.328.769 4.662 1.155 6.977l.146.152-.103.107c.276 1.655.553 3.297.83 4.919l2.046-2.139 5.119 5.329-5.566 5.819c.308 1.661.618 3.27.927 4.818l7.413-7.75 4.968 5.172-8.053 8.385 2.885 2.771 7.942-8.269 5.202 5.416L45.539 113l2.885 2.771 7.556-7.867 4.784 4.981-5.516 5.743c2.016.019 3.934-.033 5.615-.071l2.674-2.784 2.542 2.647a35.41 35.41 0 0 0 4.907-.666l-4.676-4.868 5.035-5.242 7.141 7.435a26.078 26.078 0 0 0 3.441-2.192l-7.809-8.13 5.035-5.242 7.942 8.269a34.518 34.518 0 0 0 2.329-3.351l-7.497-7.806 4.946-5.149 5.926 6.162a62.375 62.375 0 0 0 1.512-4.203l-4.66-4.851 4.695-4.889 2.016 2.096c.351-1.573.672-3.167.967-4.776l-.205-.213zm-10.33-10.756l-5.202-5.416 5.118-5.329 5.202 5.416-5.118 5.329zM68.219 56.529L63.55 61.41l-5.119-5.329 4.666-4.878 5.122 5.326zm-2.33-8.246l5.108-5.34 5.119 5.329-5.108 5.34-5.119-5.329zm-10.232 4.91l-4.7-4.893 4.661-4.873 4.703 4.89-4.664 4.876zm5.104 11.133l-4.919 5.143-5.119-5.329L55.639 59l5.122 5.326zm2.775 2.886l5.019 5.219-4.934 5.137-5.006-5.212 4.921-5.144zm2.787-2.914l4.671-4.883 5.035 5.235-4.684 4.877-5.022-5.229zm7.458-7.798l5.108-5.34 5.048 5.256-5.118 5.329-5.038-5.245zm7.876-8.233l4.941-5.166 5.064 5.272-4.951 5.155-5.054-5.261zm-2.774-2.887l-5.119-5.329 4.941-5.166 5.119 5.33-4.941 5.165zm-7.892-8.217l-4.7-4.893 4.941-5.166 4.7 4.893-4.941 5.166zm-2.768 2.893l-5.108 5.34-4.7-4.893 5.108-5.34 4.7 4.893zm-12.581-2.441l-4.864-5.065 5.118-5.329 4.854 5.054-5.108 5.34zm-2.798 2.926l-4.66 4.872-4.88-5.081 4.666-4.858 4.874 5.067zm-7.459 7.797l-4.91 5.133-4.896-5.097 4.917-5.119 4.889 5.083zm2.776 2.886l4.703 4.89-4.914 5.138-4.7-4.893 4.911-5.135zm-.206 15.809l5.119 5.329-5.025 5.253-5.119-5.329 5.025-5.253zm7.892 8.217l5 5.206-5.035 5.242-4.99-5.195 5.025-5.253zm7.774 8.093l5.202 5.416-5.035 5.242-5.202-5.416 5.035-5.242zm2.773-2.888l4.936-5.139 5.205 5.412-4.939 5.143-5.202-5.416zm7.724-8.042l4.686-4.878 5.205 5.412-4.689 4.882-5.202-5.416zm25.519-15.736l-4.951 5.155-5.202-5.416 4.951-5.155 5.202 5.416zm-5.202-11.19l-5.07-5.278 5.191-5.427 5.08 5.29-5.201 5.415zm7.663-18.59l5.096 5.306-4.784 4.981-5.086-5.296 4.774-4.991zm-7.892-8.217l5.119 5.33L94.55 29l-5.119-5.33 4.775-4.99zm-7.542 7.884l5.119 5.33-5.191 5.427-5.119-5.329 5.191-5.428zm-7.473-7.781l4.7 4.893-5.191 5.427L74 24.21l5.191-5.427zm-7.595-7.907l4.822 5.02-5.191 5.427-4.832-5.031 5.201-5.416zm-3.137 13.34l-4.941 5.166-4.848-5.048 4.951-5.155 4.838 5.037zM55.813 11.05l5.035 5.242-4.951 5.155-5.035-5.242 4.951-5.155zm-7.725 8.042l5.035 5.242-5.119 5.329-5.035-5.242 5.119-5.329zm-2.893 13.496l-4.665 4.857-5.035-5.242 4.661-4.853 5.039 5.238zM32.344 19.225l5.038 5.239-4.66 4.851-5.035-5.242 4.657-4.848zm-7.345 18.132l-5.035-5.242 4.907-5.109 5.038 5.239-4.91 5.112zm2.773 2.888l4.912-5.114 5.038 5.239-4.915 5.117-5.035-5.242zm4.912 21.372l-4.912-5.114 5.035-5.242 4.901 5.103-5.024 5.253zm2.773 2.888l5.025-5.253 4.7 4.893-5.025 5.253-4.7-4.893zm4.8 21.256l-5.119-5.329 5.025-5.253 5.119 5.329-5.025 5.253zm7.747 8.066l-4.973-5.178 5.025-5.253 4.984 5.189-5.036 5.242zm7.975 8.303l-5.202-5.416 5.035-5.242 5.202 5.416-5.035 5.242zm7.558 7.869l-4.784-4.981 5.035-5.242 4.784 4.981-5.035 5.242zm7.808-8.13l-4.784-4.981 5.035-5.242 4.784 4.981-5.035 5.242zm7.808-8.129l-4.784-4.981 4.941-5.144 4.787 4.978-4.944 5.147zm7.725-8.042l-4.784-4.981 4.691-4.884 4.787 4.978-4.694 4.887z" fill="#a8deea"/><path d="M114.246 28.304l-.03.626c-.008.114-.003.195-.023.371l-.106.677c-.043.243-.093.514-.155.786l-.234.747c-.656 2.149-2.454 4.705-5.116 6.871-2.671 2.168-6.149 4.092-10.238 5.769-4.095 1.661-8.823 3.039-14.04 4.073-5.213 1.057-10.926 1.725-16.975 1.91-1.522.052-3.022.074-4.619.066l-2.286-.041-2.401-.085a122.186 122.186 0 0 1-9.701-.818 102.342 102.342 0 0 1-9.962-1.776c-3.349-.76-6.715-1.748-10.048-3.047-3.328-1.317-6.653-2.895-9.781-5.237-1.554-1.18-3.071-2.567-4.346-4.375-.328-.432-.599-.958-.889-1.438-.246-.538-.523-1.044-.705-1.63l-.276-.869c-.075-.298-.128-.608-.186-.912a5.503 5.503 0 0 1-.117-.928l-.026-.47-.01-.235-.005-.117c.002-.137-.01.141.003-.337l.055-.638.032-.336.092-.53c.067-.347.14-.718.229-1.038l.296-.855c.195-.575.484-1.071.739-1.595.301-.468.581-.979.918-1.397 1.309-1.749 2.845-3.07 4.414-4.185 3.156-2.212 6.49-3.659 9.819-4.847 6.679-2.311 13.393-3.532 19.905-4.246 6.509-.734 12.843-.835 18.801-.66 5.999.198 11.628.791 16.813 1.653 5.176.891 9.889 2.073 13.998 3.539 4.102 1.484 7.601 3.268 10.296 5.332 2.689 2.056 4.534 4.529 5.238 6.645l.251.736.153.678c.096.419.155.777.168 1.073l.063.892-.008.198zm-5.978-.199c-.033-.004.06-.476-.23-1.426-.26-.94-1.198-2.477-3.201-4.126-2.003-1.638-4.968-3.313-8.649-4.765-3.685-1.456-8.081-2.693-12.986-3.6-4.896-.945-10.336-1.47-16.064-1.644-5.768-.182-11.839.105-18.044.889a95.976 95.976 0 0 0-9.33 1.692c-3.109.716-6.196 1.637-9.164 2.804-2.952 1.169-5.83 2.591-8.182 4.387-1.169.891-2.188 1.887-2.883 2.903-.195.25-.297.51-.46.756-.091.252-.246.497-.301.739l-.112.358c-.018.092-.013.144-.035.213a.698.698 0 0 1-.034.097c-.009.071-.012.203-.018.302l-.031.639c.017-.425.008-.093.014-.177l.006.042.011.084.017.168c-.001.112.024.225.059.337l.078.34.132.345c.068.232.234.466.335.705.175.234.285.479.489.715.729.958 1.768 1.887 2.951 2.713 2.381 1.665 5.267 2.956 8.22 3.996 5.956 2.055 12.261 3.245 18.39 3.919 3.069.348 6.11.56 9.092.659l2.192.053 2.257.014c1.414-.004 2.888-.008 4.298-.056 5.679-.186 11.033-.637 15.902-1.386 4.863-.763 9.244-1.805 12.943-3.065 3.694-1.26 6.68-2.795 8.707-4.328 2.029-1.538 3.014-2.992 3.322-3.899l.126-.324c.015-.071.025-.125.044-.18.017-.054.038-.103.06-.148.018-.077.023-.229.033-.321l.054-.625-.008.201z" fill="#066da3"/><path d="M63.259 94.131c-14.377 0-28.931 4.455-28.931 12.97s14.554 12.97 28.931 12.97 28.93-4.455 28.93-12.97-14.553-12.97-28.93-12.97z" fill="#42c0e7"/><path d="M106.863 37.329c-2.035 11.72-4.006 23.451-6.096 35.161l-6.242 35.135.047-.524a7.396 7.396 0 0 1-.765 3.222 9.508 9.508 0 0 1-1.659 2.374c-1.239 1.304-2.583 2.2-3.926 2.968-2.699 1.486-5.457 2.42-8.225 3.149-5.541 1.418-11.146 1.959-16.738 1.986-.74-.011-1.335-.006-2.08-.034a71.649 71.649 0 0 1-2.115-.087 72.167 72.167 0 0 1-4.193-.352c-2.793-.315-5.58-.8-8.35-1.513-2.768-.729-5.526-1.662-8.225-3.149-1.343-.768-2.687-1.664-3.926-2.968a9.508 9.508 0 0 1-1.659-2.374 7.424 7.424 0 0 1-.765-3.222l.05.541-6.517-35.41c-2.181-11.802-4.244-23.625-6.37-35.437l4.914-.924c2.311 11.777 4.685 23.543 6.94 35.33l6.793 35.358.05.259.001.283c.001.35.214.907.844 1.574.617.652 1.522 1.292 2.514 1.849 2.023 1.11 4.4 1.937 6.834 2.562a54.82 54.82 0 0 0 7.531 1.335 65.86 65.86 0 0 0 3.853.31c.647.032 1.291.06 1.919.073.6.023 1.351.018 1.957.026 5.165-.003 10.36-.503 15.259-1.743 2.434-.625 4.811-1.452 6.834-2.562.993-.557 1.898-1.197 2.515-1.849.63-.667.843-1.224.844-1.574l.001-.274.046-.25 6.52-35.084c2.164-11.696 4.447-23.371 6.666-35.058l4.919.893z" fill="#066da3"/><path d="M90.582 108.508l1.037-1.079c.009-.109.022-.217.022-.327l2.106-11.588-3.253-3.386 4.771-4.967 1.295-7.123-.578.602-5.575-5.804 5.312-5.53 2.348 2.444.883-4.856-.457-.476.67-.698 1.294-7.122-4.737 4.932-5.312-5.531 5.575-5.805 4.741 4.936.882-4.855-2.851-2.968 4.181-4.353 1.294-7.122-.338.352-.272-.283a38.076 38.076 0 0 1-3.723 1.898l1.222 1.272-5.138 5.349-3.722-3.876a80.126 80.126 0 0 1-4.461 1.129l5.411 5.633-5.575 5.805-5.488-5.714 5.454-5.678a96.821 96.821 0 0 1-6.737 1.24l-1.49 1.551-1.143-1.19c-1.648.204-3.332.376-5.053.513l3.423 3.564-5.312 5.531-5.05-5.258 3.466-3.608c-1.864.094-3.767.142-5.693.153l-.546.568-.541-.563a126.026 126.026 0 0 1-5.683-.143l3.451 3.593-5.488 5.713-5.313-5.531 3.831-3.988a115.173 115.173 0 0 1-5.062-.504l-1.542 1.605-2.006-2.089c-3.666-.566-7.098-1.301-10.244-2.175l-3.745 3.9-5.4-5.622 1.065-1.109a38.578 38.578 0 0 1-3.736-1.884l-.102.106-.384-.4c-.28-.169-.573-.335-.839-.507l1.265 6.725 5.358 5.579-3.603 3.751.908 4.828 5.468-5.693 5.4 5.622-5.499 5.725-5.346-5.532 1.344 7.146 1.229 1.272-.828.862.908 4.829 2.702-2.813L36.362 75l-5.239 5.455-1.564-1.628 1.42 7.552.143-.149 5.05 5.258-3.539 3.685 2.244 11.928c0 .021.004.041.004.062l1.379 1.436-.74.77c.578 1.012 1.529 1.971 2.805 2.854l.708-.737 2.341 2.437c2.438 1.113 5.464 2.035 8.893 2.703l5.024-5.231 5.575 5.804-.537.56a74.314 74.314 0 0 0 6.588-.035l-.504-.525 5.349-5.569 4.775 4.94c3.522-.705 6.601-1.683 9.046-2.857l2.226-2.318.626.651c1.264-.915 2.188-1.908 2.709-2.954l-.562-.584zm2.627-24.982l-5.488 5.714-5.575-5.804 5.488-5.714 5.575 5.804zm-46.218 2.473l5.505 5.696-5.289 5.507-5.487-5.713 5.271-5.49zm-.009-5.765l-5.066-5.241 5.465-5.69 5.05 5.258-5.449 5.673zm2.782 2.879l5.44-5.664 5.488 5.713-5.423 5.646-5.505-5.695zm8.213-8.552l5.05-5.258 5.488 5.713-5.05 5.258-5.488-5.713zm5.488 11.488l5.312 5.531-5.398 5.62-5.329-5.514 5.415-5.637zm2.773-2.887l5.05-5.258 5.312 5.531-5.05 5.258-5.312-5.531zm7.823-8.145l5.488-5.714 5.312 5.531-5.488 5.713-5.312-5.53zm5.312 11.305l5.575 5.805-5.05 5.258-5.575-5.804 5.05-5.259zm13.573-19.906l-5.312 5.531-5.312-5.531 5.312-5.531 5.312 5.531zM79.373 52.284l5.488 5.714-5.312 5.531-5.488-5.713 5.312-5.532zm-2.597 14.132l-5.488 5.713-5.488-5.713 5.488-5.714 5.488 5.714zM63.465 52.558l5.05 5.258-5.488 5.713-5.05-5.258 5.488-5.713zm-3.211 13.858l-5.05 5.258-5.05-5.258 5.05-5.258 5.05 5.258zm-7.823-8.145l-5.05 5.258-5.313-5.531 5.05-5.258 5.313 5.531zm-18.536-8.783l5.05-5.258 5.4 5.622-5.05 5.258-5.4-5.622zm-.089 17.113l5.49-5.716 5.313 5.531-5.473 5.698-5.33-5.513zm.09 16.742l5.248-5.464 5.066 5.241-5.263 5.48-5.051-5.257zm-.35 16.655l5.4-5.622 5.487 5.713-5.4 5.622-5.487-5.713zm13.573 14.131l-5.312-5.531 5.4-5.622 5.312 5.531-5.4 5.622zm2.861-14.04l5.298-5.516 5.329 5.514-5.314 5.533-5.313-5.531zm13.66 14.222l-5.575-5.804 5.323-5.542 5.592 5.786-5.34 5.56zm8.113-8.446l-5.592-5.786 5.39-5.611 5.575 5.804-5.373 5.593zm7.935 8.21l-5.153-5.332 5.364-5.584 5.137 5.349-5.348 5.567zm8.121-8.455l-5.137-5.349 5.05-5.257 5.137 5.349-5.05 5.257z" fill="#066da3"/></svg>