<svg id="Layer_1" xmlns="http://www.w3.org/2000/svg" viewBox="0 0 128 128"><g id="XMLID_1_"><circle id="XMLID_646_" cx="80.062" cy="114.494" r="8.997" fill="#2f2f2f"/><path id="XMLID_645_" fill="#64878e" d="M45.585 12.763h19.947v73.683H45.585z"/><path id="XMLID_644_" fill="#78a3ad" d="M65.532 81.043L45.585 63.946V53.088l19.947 17.097z"/><path id="XMLID_643_" fill="#78a3ad" d="M65.532 60.594L45.585 43.496V32.638l19.947 17.098z"/><path id="XMLID_642_" fill="#78a3ad" d="M65.532 40.144L45.585 23.047V12.189l19.947 17.097z"/><path id="XMLID_575_" fill="#2f2f2f" d="M45.585 12.763h19.947v12.116H45.585z"/><path id="XMLID_648_" fill="#2f2f2f" d="M45.585 70.873h19.947v11.959H45.585z"/><g id="XMLID_15_"><path id="XMLID_640_" d="M103.035 12.242c0-2.316-2.446-3.983-4.847-3.983l-57.554-.312a2.744 2.744 0 0 0-2.744 2.744v6.184a2.743 2.743 0 0 0 2.743 2.743h29.851a2.744 2.744 0 0 0 2.744-2.744h20.145v2.744h9.663v-7.376z" fill="#78a3ad"/><path id="XMLID_639_" d="M107.483 31.531H86.057a3.637 3.637 0 0 1-3.637-3.637v-4.19h28.701v4.19a3.639 3.639 0 0 1-3.638 3.637z" fill="#78a3ad"/><path id="XMLID_638_" d="M111.12 23.703H82.419l6.822-6.417a3.208 3.208 0 0 1 2.196-.871h10.665c.816 0 1.602.311 2.196.871l6.822 6.417z" fill="#64878e"/></g><path id="XMLID_636_" d="M61.939 86.776H49.178v27.541a5.497 5.497 0 0 0 5.497 5.497h1.767a5.497 5.497 0 0 0 5.497-5.497V86.776z" fill="#64878e"/><path id="XMLID_633_" d="M80.083 114.464a3.335 3.335 0 0 0-3.343-3.326l-16.585.042.017 6.67h16.576c1.842 0 3.335-1.514 3.335-3.356l-.001-.014.001-.016z" fill="#64878e"/><path id="XMLID_631_" d="M59.25 121.911h-7.382a8.012 8.012 0 0 1-8.012-8.012v-2.575a8.012 8.012 0 0 1 8.012-8.012h7.382a8.012 8.012 0 0 1 8.012 8.012v2.575a8.013 8.013 0 0 1-8.012 8.012z" fill="#78a3ad"/><path id="XMLID_630_" d="M48.657 111.138l-16.585.042.017 6.67 16.585-.042a3.335 3.335 0 0 0-.017-6.67z" fill="#64878e"/><circle id="XMLID_629_" cx="29.547" cy="114.494" r="8.997" fill="#2f2f2f"/><circle id="XMLID_628_" cx="26.66" cy="111.138" r="2.887" opacity=".5" fill="#fff"/><g id="XMLID_4_"><path id="XMLID_6_" d="M103.035 82.897c0 2.316-2.446 3.983-4.847 3.983l-57.555.313a2.744 2.744 0 0 1-2.744-2.744v-6.184a2.743 2.743 0 0 1 2.743-2.743h29.851a2.744 2.744 0 0 1 2.744 2.744h20.145v-2.744h9.663v7.375z" fill="#78a3ad"/><path id="XMLID_5_" d="M107.483 63.151H86.057a3.637 3.637 0 0 0-3.637 3.637v4.19h28.701v-4.19a3.639 3.639 0 0 0-3.638-3.637z" fill="#78a3ad"/><path id="XMLID_24_" d="M111.12 70.979H82.419l6.822 6.417c.595.559 1.38.871 2.196.871h10.665c.816 0 1.602-.311 2.196-.871l6.822-6.417z" fill="#64878e"/></g></g></svg>