<svg id="Layer_1" xmlns="http://www.w3.org/2000/svg" viewBox="0 0 128 128"><g fill="#666766"><path d="M65.372 94.084a.998.998 0 0 0-.507-.573l-13.543-6.607a.996.996 0 0 0-1.337.46l-5.126 10.505a1.003 1.003 0 0 0 .46 1.337l13.543 6.608a1.004 1.004 0 0 0 .763.047c.251-.086.457-.269.574-.507l5.125-10.506a.994.994 0 0 0 .048-.764z"/><path d="M57.833 107.922l-13.543-6.607a.996.996 0 0 0-1.337.46l-5.126 10.506a1.003 1.003 0 0 0 .46 1.337l13.543 6.607a.996.996 0 0 0 1.338-.46l5.125-10.506a.998.998 0 0 0-.46-1.337z"/></g><path d="M94.036 15.322L78.561 7.771a20.837 20.837 0 0 0-9.203-2.138c-6.307 0-12.289 2.913-15.997 7.787a9.813 9.813 0 0 0-.319.45l-.309.441c-.141.196-.281.393-.407.596a18.802 18.802 0 0 0-.973 1.742c-.28.575-.541 1.193-.772 1.833-.084.229-.152.46-.22.692l-.156.508a8.19 8.19 0 0 0-.158.528c-2.426 9.217 2.223 19.035 11.055 23.345l1.682.82L28.8 114.029a.998.998 0 0 0 .461 1.337l10.315 5.032a.996.996 0 0 0 1.338-.46l33.984-69.653 1.682.821a20.83 20.83 0 0 0 9.203 2.138h.001c6.306 0 12.287-2.913 15.995-7.786.112-.145.216-.297.319-.45l.312-.447c.14-.194.278-.389.403-.591.371-.59.688-1.16.972-1.74.28-.575.541-1.193.772-1.833.083-.226.151-.454.218-.683l.163-.53a9 9 0 0 0 .154-.516c2.426-9.219-2.224-19.037-11.056-23.346zm-18.987 17.6l-3.28 1.291c-2.675 1.052-5.584.941-8.145-.308-4.291-2.093-6.552-6.97-5.38-11.584.021-.077.045-.153.069-.229l.067-.219c.047-.162.094-.324.149-.478a10.632 10.632 0 0 1 .98-2.009c.092-.147.193-.286.345-.498l.076-.11c.044-.064.088-.129.129-.184 1.903-2.457 4.903-3.923 8.025-3.923 1.542 0 3.03.345 4.424 1.025 2.569 1.253 4.436 3.467 5.255 6.232l1.002 3.377a1.002 1.002 0 0 0 1.326.647l3.279-1.289c2.673-1.053 5.585-.943 8.146.307 4.29 2.093 6.552 6.97 5.38 11.581-.021.08-.047.16-.072.239l-.053.174c-.051.174-.101.349-.161.518a10.627 10.627 0 0 1-.979 2.006c-.086.137-.181.268-.273.397l-.277.395c-1.903 2.456-4.904 3.923-8.026 3.923a10.02 10.02 0 0 1-4.423-1.024c-2.57-1.255-4.437-3.467-5.255-6.231l-1.002-3.38a1.002 1.002 0 0 0-1.326-.646z" fill="#313738"/><g fill="#666766"><path d="M75.53 54.966l-16.847-8.22a1.003 1.003 0 0 0-1.338.46l-2.409 4.938a1 1 0 0 0 .46 1.337l16.847 8.22a1.003 1.003 0 0 0 .763.047.998.998 0 0 0 .573-.507l2.409-4.938a.998.998 0 0 0-.458-1.337z"/><path d="M69.861 66.586l-16.847-8.221a1.003 1.003 0 0 0-1.338.46l-2.409 4.938a1 1 0 0 0 .46 1.337l16.847 8.22a.999.999 0 0 0 1.337-.46l2.409-4.938a.998.998 0 0 0-.459-1.336z"/></g></svg>