<svg xmlns="http://www.w3.org/2000/svg" viewBox="0 0 128 128"><g id="图层_1"><g><g><g><path d="M105.456 125.165H25.189a2.81 2.81 0 0 1-2.808-2.809V18.977a2.81 2.81 0 0 1 2.808-2.809h80.267a2.81 2.81 0 0 1 2.81 2.809v103.379a2.81 2.81 0 0 1-2.81 2.809z" fill="#78909c"/></g><g><path d="M102.81 122.518H22.542a2.81 2.81 0 0 1-2.808-2.809V16.33a2.81 2.81 0 0 1 2.808-2.809h80.267a2.81 2.81 0 0 1 2.81 2.809v103.379a2.81 2.81 0 0 1-2.809 2.809z" fill="#e0e0e0"/></g><g><path d="M105.619 94.415L93.288 109.83 77.42 122.518h25.389c1.566 0 2.81-1.213 2.81-2.809V94.415z" fill="#b0bec5"/></g><g><g><path d="M77.42 122.518c.801-4.373 1.08-9.479.358-15.99a2.585 2.585 0 0 1 2.437-2.878c3.458-.167 9.404-.606 13.614-1.726 6.032-1.602 11.79-7.51 11.79-7.51s-3.51 9.334-12.759 18.264c-6.52 6.285-15.44 9.84-15.44 9.84z" fill="#78a3ad"/></g></g><path d="M50.601 55.313l5.786-1.657v31.763h-4.463a.853.853 0 0 0-.855.855v10.857a.85.85 0 0 0 .855.853h23.067c.471 0 .85-.379.85-.853V86.274a.852.852 0 0 0-.85-.855h-4.46V38.912c0-.26-.12-.506-.322-.664a.835.835 0 0 0-.716-.173l-19.307 4.142a.858.858 0 0 0-.673.835V54.49c0 .266.125.522.339.683a.85.85 0 0 0 .749.14z" fill="#616161"/></g><g><g><path d="M38.152 25.042c-5.082 0-9.063-4.877-9.063-11.104S33.07 2.835 38.152 2.835c5.083 0 9.064 4.877 9.064 11.104 0 .568-.034 1.134-.102 1.681a3 3 0 1 1-5.955-.735c.038-.304.057-.622.057-.945 0-2.921-1.618-5.104-3.064-5.104s-3.063 2.183-3.063 5.104 1.617 5.104 3.063 5.104a3 3 0 1 1 0 5.998z" fill="#616161"/></g><g><path fill="#e0e0e0" d="M40.296 13.58h7.842v6.078h-7.842z"/></g></g><g><g><path d="M62.463 25.042c-5.083 0-9.064-4.877-9.064-11.104S57.38 2.835 62.463 2.835s9.064 4.877 9.064 11.104c0 .558-.034 1.121-.101 1.674a3 3 0 1 1-5.957-.722 7.95 7.95 0 0 0 .058-.952c0-2.921-1.618-5.104-3.064-5.104s-3.064 2.183-3.064 5.104 1.618 5.104 3.064 5.104a3 3 0 1 1 0 5.999z" fill="#616161"/></g><g><path fill="#e0e0e0" d="M64.606 13.58h7.842v6.078h-7.842z"/></g></g><g><g><path d="M86.773 25.042c-5.083 0-9.064-4.877-9.064-11.104S81.69 2.835 86.773 2.835s9.064 4.877 9.064 11.104c0 .558-.034 1.121-.101 1.674a3 3 0 1 1-5.957-.722 7.95 7.95 0 0 0 .058-.952c0-2.921-1.618-5.104-3.064-5.104s-3.064 2.183-3.064 5.104 1.618 5.104 3.064 5.104a3 3 0 1 1 0 5.999z" fill="#616161"/></g><g><path fill="#e0e0e0" d="M88.916 13.58h7.842v6.078h-7.842z"/></g></g></g></g></svg>