<svg id="Layer1" xmlns="http://www.w3.org/2000/svg" xmlns:xlink="http://www.w3.org/1999/xlink" viewBox="0 0 128 128"><path d="M122.097 85.509l.005.007c-.378-1.534-.948-3.117-1.711-4.758-1.276-2.821-2.552-4.591-2.552-4.591l-.003-.003-.084-.134c-.513-.793-1.171-1.604-1.884-2.398-2.547-3.356-5.247-6.592-8.059-9.746l.032.011-.473-.499a192.383 192.383 0 0 0-7.2-7.589l-.266-.28-.029-.01a236.715 236.715 0 0 0-7.781-7.394l.013.002a116.808 116.808 0 0 0-3.209-2.865 331.626 331.626 0 0 0-4.88-4.221 36.32 36.32 0 0 0-2.36-1.802l-1.407-1.134c-.198-.526-.865-2.049-2.297-3.073-1.75-1.25-4.083-2.258-4.083-2.258s-.118.011-.32.033c-1.269-.989-2.05-1.589-2.05-1.589l-.141-.006c-1.098-1.125-2.178-2.232-3.32-3.109a406.807 406.807 0 0 0-2.04-1.557h.001c-1.427-1.151-4.315-3.269-7.1-5.279a444.221 444.221 0 0 0-6.918-4.938l-.003-.002c-5.578-3.899-9.066-6.135-9.066-6.135-15.817-1.524-23.079 1.894-25.518 3.482a1 1 0 0 0-.154 1.562 354.91 354.91 0 0 1 2.313 2.249l-3.583.443c-.735.091-1.127.918-.722 1.537.978 1.493 1.99 3 3.025 4.516-3.716.884-10.251 3.631-14.09 12.164-.146.324-.106.708.1.997.811 1.134 2.949 4.347 6.493 8.984-1.127 3.625-1.533 6.586-1.682 7.632-.018.126.051.572.191.737 13.789 16.234 23.083 25.9 23.083 25.9.397.388.781.788 1.16 1.195-.001.202-.009.397-.009.6 0 0 .557 1.164 1.432 2.039.706.706 2.057 1.472 2.56 1.745.88.889 1.594 1.517 1.94 1.88 9.124 9.564 19.804 17.516 29.5 26.5.373.346 1.428 1.334 2.039 1.032.522-.258.469-1.333.461-1.657-.037-1.491.446-3.798 1.195-6.354 3.58 3.325 9.972 8.181 16.805 9.91a30.211 30.211 0 0 0 11.167.667c2.386-.498 8.078-2.022 13.167-7 1.057-1.035 3.765-3.867 5.741-8.387l-.004.012c4.096-5.821 3.898-12.094 2.575-17.068z" fill="#a1887f"/><path d="M119.952 87.072l-44.616-48.23s-16.217 2.542-22.884 7.344-9.19 17.876-9.19 17.876 33.128 40.885 43.659 47.239 22.202.258 25.031-2.112c2.83-2.37 10.5-13.867 8-22.117z" fill="#455a64"/><path d="M106.202 88.572s5.25 3.75 3.75 9-6.25 8-6.25 8L86.921 89.356s14.281-5.034 19.281-.784z" fill="#78909c"/><path d="M92.517 111.301s-9.065-4.249-5.869-13.729c2.884-8.557 14.221-10.335 19.554-9l-22.25-21.161s-17.288 9.37-16.269 16.578c1.019 7.208 14.888 26.5 24.834 27.312z" fill="#b0bec5"/><path d="M100.619 117.989a30.211 30.211 0 0 1-11.167-.667c-9.043-2.288-17.324-10.06-19.319-12.5l5.203-7.25a57.721 57.721 0 0 0 6.287 7.8c3.58 3.726 6.137 6.386 9.495 7.784 7.05 2.934 16.675-.095 22.167-5.667 8.503-8.627 6.327-22.569 7.5-22.5.847.05 2.061 7.336-.167 14.667-1.901 6.255-5.562 10.089-6.833 11.333-5.087 4.978-10.78 6.502-13.166 7z" fill="#78909c"/><path d="M118.921 100.169a21.079 21.079 0 0 1-1.969 4.528c-5.286 9.058-15.601 10.895-16.25 11-2.081.337-8.279 1.045-14.75-2.5-5.005-2.742-7.656-6.651-8.75-8.5-.958-2.403-2.554-7.518-.75-13 2.787-8.466 12.561-14.388 24.167-13.875-2.341.528-5.837 1.636-9.333 4.167-1.223.886-12.611 9.368-10 19.167 1.921 7.207 10.402 11.281 17.123 11.26 9.982-.03 20.022-8.774 21.887-21.811l-1.375 9.564z" fill="#78909c"/><path d="M119.522 102.614c7.102-17.417-12.378-27.293-21.878-24.292-6.157 1.945-11.162 5.106-14.988 9.232-.617.666-3.056 3.388-5.185 7.535-2.483 4.834-6.118 14.681-6.018 18.677.008.324.06 1.399-.461 1.657-.611.302-1.666-.686-2.039-1.032-9.696-8.984-20.376-16.936-29.5-26.5-.478-.501-1.648-1.497-3-3-1.458-1.62-2.688-3.095-4.083-4.458 0 0-9.294-9.667-23.083-25.901-.14-.165-.209-.61-.191-.737.476-3.351 3.597-26.325 24.528-27.903 22.602-1.704 33.495 5.493 33.495 5.493l50.72 44.82c0 .001 10.27 14.211 1.683 26.409z" fill="#b0bec5"/><path d="M21.076 23.601s-11.304.16-16.892 12.582c-.146.324-.106.708.1.997 2.874 4.02 22.418 34.144 62.161 61.336 0 0 5.835-15.658 16.126-21.194L21.076 23.601z" fill="#eceff1"/><path d="M32.619 40.991s-4.754 3.598-7.333 6.087c0 0-7-7.344-9-12.253 0 0 4.167-4.105 9-4.219l7.333 10.385z" fill="#b0bec5"/><path d="M56.553 69.217l-6.215 5.817s4.875 5.25 12.188 9.347l4.5-7.197-10.473-7.967z" fill="#b0bec5"/><path d="M36.591 48.147s-4.003 1.738-6.628 5.778c0 0 6.732 10.359 15.375 16.109 0 0 4.5-5.486 7-6.819L36.591 48.147z" fill="#b0bec5"/><path d="M45.452 14.322l-29.481 3.645c-.735.091-1.127.918-.722 1.537a286.673 286.673 0 0 0 15.54 21.481c15.492 19.45 31.66 34.548 46.163 46.087a38.986 38.986 0 0 1 7.5-6.5c3.398-2.255 9.608-6.378 18-6a24.9 24.9 0 0 1 10.25 2.75c4.485 2.326 8.083 6.459 9.399 8.234-.729-2.955-2.149-6.088-4.35-9.487-1.851-2.858-5.51-5.99-7.299-7.497-6.6-5.559-12.216-12.251-19-17.583-11.22-8.82-26.695-21.277-46-36.667z" fill="#cfd8dc"/><g fill="#cfd8dc"/><g fill="#cfd8dc"/><g fill="#78a3ad"/><g fill="#78a3ad"/><g id="ELGJbS.tif"/><path d="M17.395 13.714c2.44-1.587 9.702-5.005 25.518-3.482 0 0 10.972 7.034 25.126 17.912 2.224 1.709 4.21 4.288 6.561 6.175 2.508 2.013 6.835 4.577 9.416 6.762 11.951 10.119 22.848 20.695 31.941 32.703 0 0-9.982-5.233-23.095-.595-8.335 2.948-14.988 9.333-14.988 9.333S61.137 64.3 51.392 52.189c-13.591-16.89-30.253-33.162-34.151-36.914a.998.998 0 0 1 .154-1.561z" fill="#eceff1"/><path d="M91.491 47.558s-6.236-1.178-12.034.589L61.588 32.206s3.798-1.909 9.297-1.555c-.001 0 14.083 10.819 20.606 16.907z" fill="#b0bec5"/><path d="M58.171 33.047l17.917 16.292s-5.355.737-11.779 5.75l-15.346-19s4.708-3.042 9.208-3.042z" fill="#b0bec5"/><path d="M107.225 63.327s-15.013-5.343-32.208 7.324c0 0-4.65-4.938-5.498-6.771 0 0 5.144-5.587 15.069-8.792 7.875-2.542 14.699-.129 14.699-.129l7.938 8.368z" fill="#b0bec5"/><path d="M65.385 25.979s-10.298-1.431-20.631 3.735l-13.417-12.08s8.715-3.892 20.026-1.874c.001-.001 10.779 7.603 14.022 10.219z" fill="#b0bec5"/><g id="_x34_6WjkG.tif"/><path d="M76.952 87.072s10.458-13.403 25.542-12.764c11.34.48 17.177 6.365 18.521 7.958.625 1.281 2.304 5.745 1.931 11.312-.4 5.969-3.569 8.901-3.492 9.199 0 0 2.648-4.106 2.648-10.356 0-4.042-1.924-8.887-2.666-9.537-3.224-2.822-9.193-6.869-16.9-6.869-12.25 0-18.045 6.301-23.545 10.851l-2.039.206z" fill="#546e7a"/><path d="M76.952 87.072l-2.787-2.245-.424.553s2.336 2.418 3.211 2.793 2.038-1.306 2.038-1.306l-2.038.205z" fill="#546e7a"/><path d="M74.69 86.322s-3.863 4.319-7.863 12.194h-.382s2.836-7.711 7.296-13.137l.949.943z" fill="#546e7a"/><path d="M80.322 38.345s-.619-2.023-2.369-3.273-4.083-2.258-4.083-2.258-18.584 1.675-28.973 11.596C37.754 51.231 33.52 64.529 33.52 82.228c0 0 .557 1.164 1.432 2.039s2.767 1.857 2.767 1.857-.247-23.912 11.011-35.427c8.323-8.513 21.654-11.946 31.592-12.352z" fill="#8d6e63"/><path d="M67.64 35.891s-12.62 2.259-19.563 8.25S38.119 58.6 37.452 61.6c-.667 3 1.151 3.426 2.409 1.296 1.258-2.13 3.401-11.005 9.716-16.13 6.56-5.324 11.063-6.016 17.375-7.925 6.313-1.908 2.998-3.454.688-2.95z" fill="#a1887f"/><g><g/><g/><g/><g/><g/></g><g><defs/><clipPath id="SVGID_2_"><use xlink:href="#SVGID_1_" overflow="visible"/></clipPath><g clip-path="url(#SVGID_2_)"/><g clip-path="url(#SVGID_2_)"/><g clip-path="url(#SVGID_2_)"/><g clip-path="url(#SVGID_2_)"/><g clip-path="url(#SVGID_2_)"/><g clip-path="url(#SVGID_2_)"/></g></svg>