<svg id="レイヤー_1" xmlns="http://www.w3.org/2000/svg" viewBox="0 0 128 128"><g/><g><path d="M109.312 53.243l6.615-10.365-9.144-4.026a4.89 4.89 0 0 1-3.045-2.477 4.9 4.9 0 0 1-.171-4.166l5.21-14.474-15.702 8.389a4.932 4.932 0 0 1-4.042-.046 4.93 4.93 0 0 1-2.537-2.732l-4.012-7.795-6.683 6.25a4.906 4.906 0 0 1-6.378-.047L54.533 9.585l-7.207 12.154c-1.231 2.29-4.099 3.24-6.458 2.115l-18.294-8.722 4.121 14.544a4.933 4.933 0 0 1-.564 3.956 4.934 4.934 0 0 1-3.313 2.235l-6.935 1.188 3.072 5.568a4.926 4.926 0 0 1-1.243 7.027l-9.329 5.954 12.357 6.06a4.923 4.923 0 0 1 1.735 7.711l-5.412 7.818 7.832 1.307a4.907 4.907 0 0 1 3.779 2.588 4.906 4.906 0 0 1-.055 4.706l-16.706 29.889L42.847 94.17a4.9 4.9 0 0 1 4.209-.679 4.903 4.903 0 0 1 3.162 2.86l.097.273 1.916 6.395 14.794-9.038a4.942 4.942 0 0 1 5.454-.048l11.687 7.108 1.563-6.67a4.891 4.891 0 0 1 2.317-3.408 4.903 4.903 0 0 1 4.275-.39l16.88 6.354-5.447-15.795a4.898 4.898 0 0 1 .098-4.05 4.903 4.903 0 0 1 3.196-2.631l13.106-3.904-10.741-10.89c-1.483-1.777-1.508-4.591-.101-6.414z" fill="#fff"/><path d="M125.969 67.911l-11.476-11.633 7.313-11.459.069-.113a4.808 4.808 0 0 0 .208-4.399 4.808 4.808 0 0 0-3.054-2.619l-9.545-4.202 5.806-16.131a4.89 4.89 0 0 0-1.036-5.356 4.889 4.889 0 0 0-5.477-1.057l-17.191 9.185-4.403-8.555c-.501-1.349-1.524-2.337-2.847-2.734-1.528-.459-3.259-.045-4.634 1.105l-7.114 6.652L57.46 4.229a4.898 4.898 0 0 0-4.175-1.103 4.892 4.892 0 0 0-3.381 2.501L42.56 18.013 23.011 8.692a4.87 4.87 0 0 0-5.295.682 4.87 4.87 0 0 0-1.561 5.105l4.442 15.679-7.29 1.249a4.934 4.934 0 0 0-3.782 3.204 4.933 4.933 0 0 0 .678 4.566l3.325 6.026-10.06 6.42a4.914 4.914 0 0 0-2.182 4.572 4.914 4.914 0 0 0 2.904 4.033l12.93 6.341-6.096 8.805c-1.131 1.293-1.476 2.931-.918 4.434.608 1.642 2.196 2.782 4.163 2.999l8.366 1.396-18.233 32.621a4.903 4.903 0 0 0 .991 6.051 4.912 4.912 0 0 0 3.305 1.283c.977 0 1.959-.293 2.814-.888l33.536-23.322 1.892 6.316.097.273a4.897 4.897 0 0 0 3.201 2.872 4.892 4.892 0 0 0 4.122-.659l15.433-9.429 12.4 7.542a4.887 4.887 0 0 0 4.714.366 4.886 4.886 0 0 0 2.833-3.679l1.624-6.926 17.88 6.73a4.9 4.9 0 0 0 5.353-1.269 4.904 4.904 0 0 0 .917-5.257l-5.83-16.902 13.746-4.095a4.896 4.896 0 0 0 3.433-3.214 4.89 4.89 0 0 0-.894-4.706zm-18.921 6.54a4.905 4.905 0 0 0-3.196 2.631 4.906 4.906 0 0 0-.098 4.05l5.447 15.795-16.88-6.354a4.903 4.903 0 0 0-4.275.39 4.891 4.891 0 0 0-2.317 3.408l-1.563 6.67-11.687-7.108a4.944 4.944 0 0 0-5.454.048l-14.794 9.038-1.916-6.395-.097-.273a4.9 4.9 0 0 0-3.162-2.86 4.9 4.9 0 0 0-4.209.679l-30.934 21.513L28.62 85.794a4.909 4.909 0 0 0 .055-4.706 4.905 4.905 0 0 0-3.779-2.588l-7.832-1.307 5.412-7.818a4.922 4.922 0 0 0-1.735-7.711l-12.357-6.06 9.329-5.954a4.927 4.927 0 0 0 1.243-7.027l-3.072-5.568 6.935-1.188a4.934 4.934 0 0 0 3.313-2.235 4.933 4.933 0 0 0 .564-3.956l-4.121-14.544 18.294 8.722c2.358 1.125 5.227.175 6.458-2.115l7.207-12.154 14.889 12.168a4.906 4.906 0 0 0 6.378.047l6.683-6.25 4.012 7.795a4.927 4.927 0 0 0 6.579 2.778l15.702-8.389-5.21 14.474a4.9 4.9 0 0 0 .171 4.166 4.893 4.893 0 0 0 3.045 2.477l9.144 4.026-6.615 10.365c-1.407 1.823-1.382 4.637.101 6.414l10.741 10.89-13.106 3.905z" fill="#2f2f2f"/></g></svg>