<svg id="Layer_1" xmlns="http://www.w3.org/2000/svg" viewBox="0 0 128 128"><path fill="#875a3b" d="M85.375 31.875l11.604 11.604 21.896-27.649-6.924-6.923z"/><path d="M88.993 48.824L78.984 38.815a4.372 4.372 0 0 0-6.403.237l-48.4 55.11c-1.39 1.594-25.637 31.829-24.142 33.324 1.495 1.495 32.013-22.469 33.607-23.859l55.11-48.4a4.373 4.373 0 0 0 .237-6.403z" fill="#78a3ad" stroke="#78a3ad" stroke-miterlimit="10"/><path d="M.256 127.552c3.111-.011 31.844-22.577 33.389-23.924l55.098-48.39a4.387 4.387 0 0 0 .238-6.425l-4.993-4.993L.256 127.552z" fill="#64878e"/><circle cx="119.055" cy="9.087" r="8.328" fill="#875a3b"/><path fill="#64878e" d="M83.955 33.29l-4.971 5.525 10.363 10.417 5.687-5.694z"/><path d="M106.421 48.336A4569.806 4569.806 0 0 1 94.332 36.12l.014-.014-1.098-1.083-1.083-1.098-.014.014A4566.748 4566.748 0 0 1 79.935 21.85c-2.843-2.843-8.258-3.125-11.14-.234-1.096 1.1-1.547 2.837-1.285 4.323.402 2.283 2.493 4.004 4.479 4.323 2.36.379 2.893-.671 5.229-.652 1.826.015 3.079 1.326 3.079 1.326l2.637 2.637 4.791 4.791 2.181 2.181 4.791 4.791 2.637 2.637s1.311 1.253 1.326 3.079c.019 2.336-1.032 2.869-.652 5.229.319 1.986 2.041 4.077 4.323 4.479 1.486.262 3.224-.189 4.323-1.285 2.892-2.881 2.61-8.296-.233-11.139z" fill="#78a3ad"/></svg>