<svg id="图层_1" xmlns="http://www.w3.org/2000/svg" viewBox="0 0 128 128"><g><g><path d="M106.747 69.548a.618.618 0 0 1-.516-.277l-.135-.203a.615.615 0 0 1 .119-.814l13.959-11.701a.621.621 0 0 1 .917.136l2.956 4.521a.62.62 0 0 1-.269.906l-16.783 7.38a.623.623 0 0 1-.248.052z" fill="#2f2f2f"/><path d="M120.572 56.907c.025 0 .07.007.101.054l2.957 4.522c.02.031.025.064.014.099a.115.115 0 0 1-.066.075l-16.831 7.391a.12.12 0 0 1-.1-.054l-.133-.202a.119.119 0 0 1 .023-.157l13.959-11.7c.009-.007.034-.028.076-.028m0-1c-.252 0-.507.085-.718.262L105.895 67.87a1.12 1.12 0 0 0-.215 1.475l.133.202a1.12 1.12 0 0 0 1.384.407l16.783-7.381a1.119 1.119 0 0 0 .486-1.637l-2.957-4.522a1.115 1.115 0 0 0-.937-.507z" fill="#464747"/></g><g><path d="M121.005 94.757a.163.163 0 0 1-.105-.039l-14.66-12.287a.168.168 0 0 1-.032-.22l.567-.856a.165.165 0 0 1 .139-.076l17.689 7.765a.157.157 0 0 1 .092.104.164.164 0 0 1-.02.14l-3.529 5.396a.17.17 0 0 1-.141.073z" fill="#2f2f2f"/><path d="M107.036 81.864l17.004 7.478-3.108 4.752-14.144-11.855.248-.375m-.123-1.085a.666.666 0 0 0-.556.299l-.567.858a.666.666 0 0 0 .128.878l14.66 12.288a.664.664 0 0 0 .985-.146l3.529-5.396a.666.666 0 0 0-.289-.974l-17.622-7.75a.653.653 0 0 0-.268-.057z" fill="#464747"/></g><g><path d="M106.982 75.821a.52.52 0 0 1-.482-.519v-.326c0-.251.18-.467.426-.513l18.42-3.421h.021c.367 0 .593.229.596.507l.062 5.128a.521.521 0 0 1-.519.528l-18.524-1.384z" fill="#2f2f2f"/><path d="M125.444 71.534l.019.021.039 5.15L107 75.302l.017-.346 18.42-3.421.007-.001m0-1c-.062 0-.125.006-.188.018l-18.42 3.421c-.484.09-.835.512-.835 1.004v.325c0 .534.412.979.945 1.018l18.482 1.382.078.003c.563 0 1.027-.461 1.02-1.034l-.061-5.129a1.025 1.025 0 0 0-1.021-1.008z" fill="#464747"/></g></g><g><path d="M66.037 124.261c-13.32 0-20.151-1.058-22.146-1.929.632-.647 1.658-1.716 3.081-3.712.98-1.375 1.52-2.31 1.754-3.603.042-.232.379-2.342-.739-4.771-2.478-5.379-13.905-10.691-15.2-11.28-1.314-.61-13.159-6.299-20.595-16.044-6.693-8.771-7.879-18.53-8.385-22.698-.507-4.17-1.451-11.935 1.939-21.123 2.067-5.603 4.982-9.574 6.536-11.442 8.611-10.355 20.715-12.975 25.272-13.962a50.662 50.662 0 0 1 10.705-1.157c1.945 0 3.914.117 5.851.347l.111.009c4.706.207 8.343.719 10.028 1.095.794.177 2.067.4 3.542.659 2.7.473 6.062 1.062 8.713 1.741 1.747.447 2.903 1.17 3.034 1.499.043.207-.247 1.057-1.445 2.261l-1.188 1.195 1.431 1.127c.053.057.111.125.257.292.347.399 1.129 1.298 3.191 3.634.063.072 6.393 7.269 7.849 11.35.134.375.207.768.233.934l.002 1.454c-.003 3.424-.038 4.806-.055 5.47-.015.549-.019.715.045 1.071.748 4.181 4.425 7.431 6.713 8.596.355.179.965.486 1.656 1.064.63.526 1.58 1.319 1.587 1.749a6.364 6.364 0 0 1-.293.358c-.433.509-1.087 1.279-1.596 2.696-.331.921-.726 2.019-.233 3.249.236.588.561.944.821 1.229a3.1 3.1 0 0 1 .478.626l.068.107c.218.315.324.602.317.851-.029.951-2.147 2.148-4.602 3.533-.535.303-1.101.622-1.692.964-6.765 3.913-9.991 5.909-9.422 8.496.385 1.749 2.353 2.303 3.934 2.747 1.042.292 2.087.435 3.196.435 1.052 0 2.188-.12 3.801-.401 1.965-.343 3.573-.731 4.866-1.044.954-.229 1.804-.436 2.367-.509a6.82 6.82 0 0 1-.108.722c-.068.349-.177.615-.348 1.02a9.166 9.166 0 0 1-.767 1.442l-.065.102c-.95 1.538-.498 3.351-.099 4.949.1.396.2.796.276 1.19.577 2.958.311 5.287-.747 6.571-1.022 1.241-2.945 1.771-4.49 2.195-.471.13-.829.199-1.232.278-.541.106-1.155.227-2.135.49a35.343 35.343 0 0 0-3.834 1.269c-.58.19-2.121.704-3.483 2.015-2.592 2.494-2.615 6.073-2.626 7.602-.01 1.304.153 2.23.272 2.907.2 1.131.481 2.158.86 3.142.236.612.383.938.514 1.228.113.251.213.471.365.89.35.954.618 2.016.659 2.449-1.134 1.18-8.767 2.274-16.605 2.364-.721.007-1.452.011-2.19.011l-.004.001z" fill="#2f2f2f"/><path d="M48.257 14.041c1.887 0 3.797.113 5.676.336l.111.013.112.005c4.608.202 8.141.697 9.767 1.06.827.185 2.055.4 3.608.672 2.675.469 6.005 1.052 8.601 1.717a9.15 9.15 0 0 1 1.529.533 7.02 7.02 0 0 1-.63.715l-2.374 2.385 2.641 2.086.001.001.173.199a596.22 596.22 0 0 0 3.187 3.629c2.39 2.707 6.557 8.049 7.561 10.862.068.19.118.413.146.559l.001 1.322c-.002 3.403-.037 4.773-.054 5.431-.015.598-.022.871.069 1.378.755 4.221 4.349 8.058 7.509 9.666l.068.035c.243.122.747.377 1.307.845.193.161.434.362.647.553-.44.574-.971 1.399-1.412 2.625-.361 1.004-.907 2.521-.201 4.281.337.841.818 1.367 1.106 1.682.152.166.209.229.284.36l.061.106c-.628.592-2.318 1.547-3.711 2.333-.54.305-1.11.627-1.707.972-6.839 3.955-10.966 6.343-10.136 10.117.578 2.627 3.235 3.374 4.993 3.868 1.176.33 2.354.491 3.603.491 1.436 0 2.857-.214 4.058-.424a72.376 72.376 0 0 0 4.701-1c-.086.148-.16.264-.212.344l-.078.124c-1.281 2.075-.701 4.401-.277 6.099.099.397.193.772.262 1.128.702 3.591-.156 4.978-.436 5.317-.719.873-2.389 1.333-3.731 1.702-.402.111-.702.17-1.119.252-.538.106-1.207.237-2.239.515a37.106 37.106 0 0 0-3.918 1.292c-.793.266-2.497.866-4.049 2.359-3.046 2.93-3.074 6.951-3.086 8.668v.055c-.01 1.396.174 2.438.296 3.127.217 1.226.523 2.345.938 3.421.252.655.416 1.017.548 1.309.115.254.191.422.323.784.141.387.266.787.362 1.137-2.358.852-8.752 1.59-14.912 1.661-.721.007-1.45.011-2.186.011-9.914 0-16.209-.6-19.405-1.225.457-.553.978-1.224 1.563-2.044.881-1.236 1.697-2.487 2.009-4.206.051-.28.458-2.82-.852-5.665-2.649-5.751-13.745-11.02-15.917-12.006-.516-.24-12.716-5.991-20.048-15.6-6.446-8.448-7.597-17.923-8.089-21.969-.492-4.046-1.407-11.577 1.857-20.424 1.99-5.393 4.79-9.208 6.282-11.002 8.28-9.956 20.018-12.498 24.437-13.455a49.12 49.12 0 0 1 10.382-1.122m0-3a51.92 51.92 0 0 0-11.02 1.191c-5.252 1.137-17.346 3.932-26.108 14.469-1.17 1.406-4.463 5.576-6.79 11.882-3.443 9.331-2.567 17.329-2.021 21.824.529 4.355 1.741 14.33 8.682 23.426 7.707 10.101 20.104 16.005 21.167 16.5 0 0 12.143 5.514 14.458 10.542.953 2.068.625 3.875.625 3.875-.182 1.003-.619 1.764-1.5 3-2.655 3.726-3.811 4.009-3.75 4.75.199 2.408 12.723 3.261 24.035 3.261.745 0 1.484-.004 2.215-.011 0 0 17.65-.2 18.083-3.583.083-.652-.403-2.31-.745-3.245-.337-.923-.441-.98-.889-2.141a15.273 15.273 0 0 1-.783-2.864c-.118-.67-.258-1.484-.25-2.583.01-1.434.004-4.503 2.167-6.583 1.117-1.075 2.407-1.505 2.996-1.701a33.788 33.788 0 0 1 3.671-1.215c1.716-.461 2.259-.464 3.375-.771 1.832-.504 3.954-1.114 5.25-2.688 2.102-2.552 1.239-6.911 1.062-7.812-.358-1.83-1.175-3.766-.375-5.062.114-.185.538-.805.938-1.75.178-.421.338-.804.438-1.312.075-.381.321-1.637-.062-2.188-.175-.251-.481-.355-.927-.355-1.317 0-3.857.905-7.865 1.605-1.33.232-2.465.379-3.543.379-.943 0-1.842-.113-2.791-.379-1.275-.358-2.684-.755-2.875-1.625-.352-1.598 3.593-3.916 8.708-6.875 4.132-2.39 6.979-3.656 7.042-5.75.022-.742-.311-1.357-.583-1.75-.496-.865-.948-1.016-1.208-1.667-.285-.712-.028-1.405.252-2.184.817-2.273 1.996-2.405 1.977-3.587-.018-1.116-1.086-2.007-2.125-2.875-.879-.734-1.657-1.107-1.938-1.25-2.218-1.129-5.312-4.139-5.917-7.521-.084-.469.028-.117.033-6.279.001-.659 0-1.202-.001-1.566 0 0-.085-.666-.321-1.326-1.573-4.404-8.137-11.839-8.137-11.839-3.07-3.477-3.295-3.763-3.48-3.961l-.074-.078-.002-.002a11.978 11.978 0 0 0-.194-.156c.985-.99 2.095-2.464 1.844-3.646-.289-1.362-2.71-2.263-4.125-2.625-4.197-1.075-10.158-1.933-12.3-2.411-1.956-.437-5.708-.929-10.289-1.129a50.598 50.598 0 0 0-6.03-.359z" fill="#464747"/></g></svg>