<svg id="レイヤー_1" xmlns="http://www.w3.org/2000/svg" viewBox="0 0 128 128"><g><path d="M102.048 125.225c-.173-.158-17.742-15.976-24.606-33.188-1.27-3.194-2.267-6.6-3.078-9.939 2.736-1.059 3.281-2.925 3.613-4.08.988-3.451-.245-6.637-2.936-7.576-.677-.24-1.686-.413-3.056-.538-1.506-9.335-2.358-16.662-2.715-23.531-.256-4.792-.462-14.469-.462-14.568l-.042-1.526-2.07-.034-.81-28.057A1.588 1.588 0 0 0 64.297.645c-.861 0-1.564.683-1.589 1.543l-.806 28.045-2.664.046-.038 1.526c0 .1-.215 9.777-.465 14.568-.359 6.852-1.203 14.164-2.713 23.469-2.127.157-3.55.5-4.44 1.278-1.286 1.121-1.907 2.562-1.891 4.398.021 2.437 1.088 4.941 2.653 6.23.285.236.731.423 1.237.597-.802 3.26-1.78 6.575-3.02 9.69-6.863 17.212-24.433 33.03-24.61 33.188L22.846 128H37.74l.48-.57c.067-.079 6.816-8.119 10.539-10.696 1.639-1.134 3.473-1.759 5.159-1.759 2.607 0 5.397 1.561 5.421 5.938.021 2.946-.107 5.391-.107 5.411L59.141 128h9.72l-.088-1.676a98.721 98.721 0 0 1-.116-5.411c.03-4.378 2.823-5.938 5.425-5.938 1.688 0 3.522.625 5.159 1.759 3.724 2.578 10.473 10.617 10.543 10.696l.472.57h14.899l-3.107-2.775z" fill="#ed6c30"/><g fill="#fff"><path d="M53.998 73.955c.231-.149.731-.249 1.395-.327a24.75 24.75 0 0 1 1.616-.124 60.614 60.614 0 0 1 1.635-.054c1.134-.02 2.309-.025 3.356-.025l3.53-.008c1.544 0 2.796.025 3.831.062.637.025 1.167.054 1.643.087.673.045 1.217.099 1.621.153.618.083.981.169 1.188.24.551.19 1.063 1.353.571 3.061-.198.704-.313 1.068-.857 1.378a4.135 4.135 0 0 1-.598.27c-.24.09-.554.169-.896.248-.454.107-.98.203-1.587.286-1.822.252-4.248.396-6.922.396-2.458 0-4.491-.115-5.997-.26a35.355 35.355 0 0 1-1.614-.198c-.615-.1-1.042-.191-1.199-.265-.091-.075-.178-.203-.269-.314-.533-.646-1.019-1.82-1.025-3.07-.014-.944.284-1.279.578-1.536z"/><path d="M61.355 53.858c.281-.004.542-.004.856-.004 1.324 0 2.465.012 2.929.016l.293.004c.385 0 .802-.042 1.208-.071.199 2.077.444 4.237.733 6.5a39.833 39.833 0 0 0-1.986 0c-1.589.05-3.177.083-4.774.083.298-2.275.541-4.442.741-6.528z"/><path d="M62.31 34.626c.013-.45.026-.865.034-1.225l1.629-.029 1.685.029c.013.443.021.985.037 1.568.055 1.895.124 4.395.203 6.79a50.057 50.057 0 0 1-2.126-.049c-.538-.025-1.101-.045-1.663-.066.081-2.498.159-5.118.201-7.018z"/></g></g></svg>