<svg id="レイヤー_1" xmlns="http://www.w3.org/2000/svg" viewBox="0 0 128 128"><g fill="#626e30"><path d="M17.02 116.598c-.996.402-2.163 1.949-2.898 2.09-1.398.278-2.394-.269-3.617.761-.957.804-1.393 1.932-1.633 3.078-.205.988-1.727 2.62-1.27 3.612.56 1.257 2.958.739 3.856.179 1.103-.675 1.795-1.736 2.881-2.415 1.484-.928 2.287-1.676 2.869-3.296.389-1.03 1.898-2.804.816-3.864-.29-.286-.636-.29-1.004-.145z"/><path d="M29.101 94.433c-.248-.945.975-1.697.06-2.651-.983-1.026-3.313-1.261-4.608-2.082a6.892 6.892 0 0 0-2.039-.885c-2.689-.684-5.613.286-7.802 2.215-1.659 1.445-1.898 3.497-1.684 5.574.077.795.316 1.663.787 2.321.492.68 1.398 1.051 1.898 1.62 1.188 1.377.368 3.104.025 4.642-.509 2.309-.462 4.583 1.394 6.361 2.052 1.971 5.002.449 6.498-1.347.804-.966.975-1.988 1.385-3.155.342-.992.812-1.979 1.223-2.954.748-1.783 1.825-3.044 3.163-4.335.697-.663 1.834-1.723 1.736-2.809-.1-1.13-1.745-1.459-2.036-2.515z"/><path d="M98.662 44.716c-.539-.752-1-1.496-1.599-2.172-.795-.872-.851-1.466-.958-2.569-.077-.855-.269-1.706-.393-2.561-.107-.863-.65-1.607-1.385-2.022-2.048-1.158-4.54-.475-6.306.838-1.133.838-1.064 1.796-1.488 2.984-.415 1.163-1.022 2.372-1.509 3.522-.308.688-.838 1.355-.932 2.112-.248 1.731 1.355 3.432 1.043 5.489-.457 3.245-2.479 5.634-4.061 8.361-2.253 3.89-5.895 7.144-9.806 9.426-1.017.59-4.343 1.864-3.719-.509.363-1.291 2.078-2.244 1.71-3.749-1.056-.513-2.911-.171-3.903.385-1.595.898-2.125 2.261-2.33 3.916-.069.65.042 1.325-.043 1.971-.107.902-.71 1.334-1.372 1.971-.971.928-2.761 1.599-3.176 2.95-.376 1.287.069 2.292-1.351 3.023-.419.209-1.368.594-1.787.551-.808-.085-1.069-1.09-1.774-1.359-3.732-1.436-8.195.697-12.273.244a8.974 8.974 0 0 1-.984-.163c-.727-.162-1.205-.376-1.988-.273-1.774.248-2.197 1.5-3.231 2.719-1.385 1.607-2.971 2.531-4.929 3.202-1.697.577-3.886 1.009-4.446 2.911-.612 2.133.88 3.57 3.01 3.749 1.659.145 3.454.444 5.134.393 1.684-.056 2.749-1.244 4.176-1.932 1.304-.624 2.975-.646 4.489-.633.778.004 1.65-.09 2.368-.342.868-.304 1.484-1.03 2.364-1.283 1.265-.368 3.886-.847 4.792.586 1.06 1.659-1.022 3.073-1.252 4.587-.287 1.915 1.586 3.51 3.351 3.749 2.394.329 4.989-1.009 6.861-2.368 1.094-.791 4.36-2.317 3.813-4.142-.265-.876-1.428-1.231-1.607-2.163-.145-.795.564-1.753 1.376-1.791 1.086-.056 1.351.911 1.787 1.599.47.727 1.146.902 1.975.975.872.081 1.898.09 2.766 0 .876-.09 1.693-.475 2.556-.599.898-.133 1.8-.133 2.719-.231.979-.107 1.693-.547 2.608-.945 1.646-.714 3.159-1.368 4.92-1.586.838-.103 1.548.034 2.369-.201.812-.227 1.659-.56 2.368-1.159 1.351-1.137 2.719-2.945 2.214-4.741-.466-1.693-.722-3.531-.197-5.28.303-.992.632-2.022 1.334-2.809.68-.765 1.304-1.577 1.539-2.603.355-1.535.043-3.501.038-5.078-.021-2.381 1.783-2.625 3.352-3.938a6.977 6.977 0 0 0 1.988-2.817c.526-1.479 1.492-2.843 1.569-4.446.051-1.052.073-2.202-.248-3.202-.35-1.081-.926-1.675-1.542-2.547z"/><path d="M45.91 88.658c-1.005-.021-2.467-.342-3.202.543-.474.543-.338.923-1.073 1.325-.543.291-1.154.432-1.757.479-.393.03-.782-.068-1.154-.197-.714-.244-1.402-.594-2.107-.385-.804.252-1.471 1.034-2.112 1.556-1.902 1.522-2.189 5.155-1.462 7.331.342 1.009 1.316 1.71 2.411 1.778 1.146.068 1.894-.842 2.172-1.783.505-1.719 1.966-3.903 4.13-3.309 1.372.372 1.642 2.206 3.364 1.689.971-.291 1.663-1.312 2.411-1.928.765-.637 1.484-1.034 1.877-1.97.961-2.282-1.044-5.07-3.498-5.129z"/><path d="M117.86 16.284c-.551-.612-.551-1.842-.419-2.676.142-.863.962-1.282 1.206-2.052.338-1.065-.115-1.979-1.24-2.069-1.795-.137-2.676 1.967-4.69 1.607-4.347-.778-7.571-4.1-10.439-7.212-.714-.782-1.077-1.975-2.052-2.493-.902-.483-2.014-.278-2.984-.167-.526.06-1.094-.013-1.599.248-.607.321-.453.205-.659.825-.645 1.928.145 4.27.018 6.288-.18 2.629-.953 7.207-2.95 9.182-.547.551-1.607.573-2.368.573-.923 0-1.701-.064-2.325.765-.201.261-.325.56-.355.872-.064.47.346 1.06.227 1.449-.197.615-1.539.829-2.077 1.18-.675.453-1.24 1.176-1.389 1.949-.133.688-.159 1.736.004 2.424.239 1.048 1.133 1.394 1.607 2.258.658 1.231-.821 3.454.633 4.279.658.372 1.894-.03 2.437-.372.936-.568 1.398-1.043 2.471-1.274.786-.175 1.872.103 2.223-.778.316-.838-.402-1.53-.988-2.009-.556-.458-2.638-1.218-2.227-2.223.363-.902 2.36.286 2.941.286 1.141 0 2.035-.77 3.193-.787 2.92-.042 4.886 2.659 7.772 3.095 2.15.325 3.809-.804 4.202-2.843.479-2.377 1.736-4.057 4.113-4.783 1.654-.5 3.467-.53 5.087-1.026 1.103-.337 4.412-1.834 2.83-3.236-.617-.549-1.612-.609-2.203-1.28z"/></g></svg>