<svg id="レイヤー_1" xmlns="http://www.w3.org/2000/svg" xmlns:xlink="http://www.w3.org/1999/xlink" viewBox="0 0 128 128"><g><g><g><path d="M35.041 19.552c1.894-3.975 1.414-8.797 1.614-9.347.251-.693.766-1.328 1.139-1.967 1.283-2.161 1.945-5.09.866-7.467-2.336 1.211-3.438 1.421-5.265 2.014-6.612 2.132-13.39.377-18.255 6.653-1.521 1.965-2.9 5.625-2.769 8.164.523 9.39 12.538 11.316 19.107 6.558 1.583-1.152 2.688-2.761 3.563-4.608z" fill="#fcc21b"/></g></g><g><g><defs><path id="SVGID_1_" d="M14.606 23.42c-3.097.701-5.274 1.789-5.274 3.233v8.404c0 1.351 1.899 2.392 4.678 3.097-.854 1.254-.535 2.057-.183 2.894.248.574.499 1.172.434 2.044-.013.302-.166.565-.34.867-.259.458-.556.977-.425 1.712.081.484.314.799.531 1.07.204.264.378.489.418.863.045.323.007.667-.031 1.028-.068.586-.131 1.198.137 1.81.182.4.455.629.697.833.233.196.416.353.48.629.067.302.059.612.046.939-.012.493-.022.998.226 1.517.317.667 1.236 1.415 1.572 1.669.028.637.19 3.199.212 4.002.029 1.215.526 2.133 1.469 2.732 1.488.943 3.258.901 3.952.837.267 1.045 1.193 4.806 1.533 5.986.828 2.966 1.411 6.05 1.983 9.033l.944 4.911c.522 2.694 1.062 5.387 1.601 8.077-4.244 4.648-7.557 10.354-10.438 15.737-.659 1.236-.956 2.554-.411 3.84.705 1.674 1.489 3.301 2.459 4.835.643 1.015 1.479 1.975 2.001 3.055 1.007 2.086-1.397 3.467-1.079 5.477.221 1.377.981 2.51 2.031 3.45h86.29c-.71-1.385-1.721-2.579-2.715-3.739-.378-.446-.761-.892-1.117-1.347a77.79 77.79 0 0 0-.867-1.066c-1.484-1.797-3.162-3.837-3.636-6.05-.209-.981.169-1.903.573-2.88.228-.548.458-1.109.582-1.691.557-2.575-.272-4.453-1.147-6.441-.382-.871-.778-1.771-1.066-2.753-.464-1.619-.077-3.191.334-4.852.319-1.321.654-2.689.528-4.092a19.06 19.06 0 0 0-.549-3.067l17.291-7.163a.533.533 0 0 0 .315-.642.525.525 0 0 0-.585-.399L98.886 84.18c-.318-.671-.624-1.33-.935-1.963a43.534 43.534 0 0 0-1.317-2.502l12.831-13.77a.541.541 0 0 0-.676-.832l-15.735 9.661c-.935-.973-1.972-1.856-3.165-2.557-.66-.392-1.356-.714-2.062-1.033l3.897-19.582a.543.543 0 0 0-.353-.621.53.53 0 0 0-.663.268L81.555 69.42a22.306 22.306 0 0 0-2.778-.183c-.875 0-1.721.068-2.559.166L65.552 50.67c-.133-.233-.421-.335-.676-.233a.542.542 0 0 0-.323.637l5.103 20.219a18.394 18.394 0 0 0-4.891 3.459c-.059.055-.097.119-.153.174L46.38 66.174a.549.549 0 0 0-.692.191.561.561 0 0 0 .097.709l15.05 13.128a17.396 17.396 0 0 0-.803 1.814c-.464 1.262-.765 2.6-.951 3.968l-11.935 3.603c-.352-2.154-.693-4.295-1.507-6.254-.472-1.127-1.645-.858-2.635-.591-.585.157-1.147.349-1.707.544-3.851-10.448-6.963-19.145-6.986-19.905 0-.204-.084-.723-.212-1.44-.348-2.095-1.011-5.995-.667-8.723.247-2.026-.357-6.751-.633-8.693-.311-2.222-.68-4.325-1.474-5.812 4.27-.642 7.55-1.882 7.55-3.658v-8.404c0-1.576-2.579-2.727-6.14-3.42-12.156-1.519-18.129.189-18.129.189zm34.022 72.244c-.421-1.02-.697-2.086-.93-3.161l11.416-.264c.152 1.313.313 2.621.484 3.926l-7.512 4.058c-1.257-1.454-2.731-2.801-3.458-4.559zm15.054 17.054c-1.21-1.903-2.418-3.828-4.333-5.09-.735-.48-1.941-.837-2.792-1.028-.357-.076-.765.051-1.125.008-.336-.038-.531-.238-.897-.229-.153-1.317-.289-2.32-.638-3.28l6.287-1.436c.111 1.576.278 3.166.907 4.479.365.769 1.074 1.13 1.699 1.453.539.276 1.054.544 1.321 1.028.259.475.058 2.25-.429 4.095z"/></defs><use xlink:href="#SVGID_1_" overflow="visible" fill="#78a3ad"/><clipPath id="SVGID_2_"><use xlink:href="#SVGID_1_" overflow="visible"/></clipPath><path d="M54.967 117.213a27.41 27.41 0 0 0-.883 1.669c-1.266 2.71-3.794 7.477-3.199 10.584.059.287 2.463.076 2.629.076 1.317 0 2.588.143 3.879.188 2.133.071 4.261-.23 6.386-.025.88.083 1.584.423 2.476.292.914-.135 1.798-.422 2.707-.598.48-.094.828-.033 1.054-.545-.382.885-5.311-2.697-5.782-3.178-2.048-2.043-4.195-5.242-4.522-8.102-.088-.782-.088-2.217-.548-2.904-1.222-1.838-3.075.631-4.197 2.543z" clip-path="url(#SVGID_2_)" fill="#78a3ad"/></g><g><path d="M76.334 110.615c-1.648 0-3.157-.514-4.236-1.449-.174-.149-.375-.276-.569-.404l-.518-.37c-.701-.603-1.318-1.389-1.836-2.341l-.241-.433c-.898-1.628-1.947-3.56-2.274-5.438a8.705 8.705 0 0 1-.072-.54c-.016-.188-.016-.37-.016-.557 0-.162-.01-.327.003-.489.025-.264.084-.514.17-.739.098-.251.247-.489.395-.73.127-.217.264-.438.374-.672.103-.084.206-.161.307-.242.158-.123.311-.234.462-.336.119-.081.238-.162.354-.221.037-.021.092-.021.131-.039.671-.267 1.81-.119 2.197-.616.811-1.054-.366-3.819-.62-4.865-1.729-.199-3.366.442-4.615 1.547-.144.131-.301.259-.433.403-.234.243-.434.51-.625.786-.012-.081-.034-.148-.042-.238 0-.174.045-.348.059-.522.018-.183.018-.361.06-.544a6.18 6.18 0 0 1 .377-1.139c.132-.306.284-.604.446-.901.29-.518.596-1.028.896-1.508l.358-.569c.751-1.199 1.626-2.248 2.55-3.357l.68-.807c.59-.739 1.409-1.75 2.408-1.899.365 0 .765.187 1.146.365l.374.17c1.063.438 2.175.786 3.256 1.122 1.652.519 3.363 1.049 4.868 1.925.29.17.591.365.888.569-2.607.433-7.671-.051-8.564 3.025-.405 1.419-.312 2.914-.425 4.376-.06.726-.167 1.461-.421 2.149-.255.684-.492.888-1.203 1.105-.531.166-.718.552-.765 1.07-.042.476 0 .973 0 1.449 0 1.385 1.037 1.759 2.106 1.717-.683.34-1.24.824-1.457 1.419-.135.361-.485 1.139-.361 1.521.242.692 1.403 0 1.84-.111.466-.11.947-.255 1.414-.379.829-.216 1.636-.505 2.503-.535.374-.013 1.539.131 1.717-.374.259-.701-.509-1.224-1.237-1.56-.335-.166-.667-.285-.875-.365-.433-.166-.981-.204-1.551-.157 1.461-.841 1.523-2.481 1.629-4.21.166-2.77 1.856-4.164 4.651-3.765 3.058.442 4.248 3.242 4.274 5.995-.06.536-.124 1.066-.238 1.593-1.326 6.131-3.73 9.648-7.355 10.762a7.926 7.926 0 0 1-2.344.353z" fill="#fff"/><path d="M78.102 103.979c-.264-.136-.668-.123-.978-.089a7.201 7.201 0 0 0-1.678.339c-.327.115-1.674.723-1.395 1.288.318.625 2.167.297 2.665.149.531-.157 1.525-.408 1.648-1.054.064-.337-.058-.527-.262-.633z" fill="#78a3ad"/></g><g fill="#fff"><path d="M76.866 73.18c-.01-.043-.019-.085-.03-.127-.047-.302-.153-.689-.523-.689-.487-.004-.997.084-1.471.158-.313.047-.683.025-.972.178-.365.193-.327.661-.275 1.007.084.508.034 1.02.153 1.534.064.267.047.582.174.828.305.605.814.782 1.465.784.565.003 1.198-.359 1.402-.916.313-.852.229-1.869.077-2.757z"/><path d="M65.355 78.329c-.158-.043-.332 0-.469.162-.207.24-.41.488-.602.741-.211.285-.441.588-.53.939-.158.585.348 2.768 1.261 2.481 1.02-.317 1.109-2.297.967-3.112-.054-.327-.113-.68-.3-.962a.548.548 0 0 0-.327-.249z"/><path d="M61.82 83.733a.339.339 0 0 0-.234.072c-.603.412-.837 1.944-.846 2.594 0 .525.288 1.039.578 1.46.51.756 1.025-.502 1.096-.905.114-.676.047-1.351-.093-2.018-.047-.242-.135-1.164-.501-1.203z"/><path d="M70.492 75.425c-.069-.419-.208-.813-.493-.895-.179-.051-.307.034-.459.127a16.64 16.64 0 0 0-.875.604c-.234.165-.458.346-.684.514-.301.216-.357.654-.327.998.068.586.294 1.277.723 1.7.373.37.99.113 1.354-.127.666-.434.854-1.19.829-1.938 0-.203-.01-.602-.068-.983z"/><path d="M95.924 82.865c-.165-.087-.339-.083-.53.112-.29.293-.404.727-.531 1.103-.169.493-.349 1.132-.204 1.655.144.533.628 1.475 1.331 1.262.665-.202 1.001-1.494.9-2.103-.098-.527-.268-1.071-.544-1.536-.108-.194-.252-.398-.422-.493z"/><path d="M94.123 79.842c-.119-.272-.318-.538-.577-.816a22.475 22.475 0 0 0-.685-.697c-.145-.132-.411-.395-.595-.431-.357-.07-.569.714-.658.928-.191.449-.373.9-.535 1.355-.286.765-.476 1.402.067 2.095.314.395.884.854 1.423.777.65-.093 1.181-.947 1.432-1.491.316-.673.352-1.207.128-1.72z"/><path d="M80.417 72.649c-.386.293-.365 1.451-.417 1.895-.102.782-.297 2.178.396 2.758.335.278 1.151.465 1.602.441 1.076-.055 1.143-2.545 1.231-3.401.048-.474.163-1.136-.301-1.465-.348-.255-.846-.249-1.262-.304-.328-.048-.936-.162-1.249.076z"/><path d="M86.69 74.216c-.419.204-.44.871-.546 1.3-.154.586-.29 1.181-.345 1.789-.064.75-.302 1.631.493 2.048.281.149.727.293 1.156.318.438.023.849-.076 1.049-.429.446-.803 1.092-2.192 1.002-3.138-.016-.227-.059-.495-.207-.68-.37-.461-1.853-1.387-2.465-1.255a.694.694 0 0 0-.137.047z"/><path d="M41.988 89.356c-2.477-.338-7.083 3.499-7.033 6.046.018.939.625 1.712 1.135 2.456 1.81 2.653 6.31.38 7.261 4.172.672 2.691-1.929 5.054-2.949 7.295-.471 1.021-1.589 2.802.264 3.005.842.094 1.597-.471 2.277-.888 1.551-.949 2.685-2.337 4.138-3.356.867-.603 2.675-1.136 3.16-2.145.316-.663-.105-1.723-.365-2.32-.501-1.143-1.236-1.99-2.006-2.902-2.055-2.425-3.763-4.622-4.243-7.885-.305-2.086-.653-3.341-1.639-3.478z"/></g></g><g fill="#fff"><path d="M27.738 37.857c-.833-.907-2.264-2.567-3.543-2.766-.676-.106-1.114.469-1.194 1.077-.115.852.569 1.411 1.096 1.984.769.85 1.491 1.795 1.874 2.889.845 2.454-.851 5.217.23 7.594.531 1.177 2.158 4.493 3.781 4.304 1.452-.17 1.045-2.36.969-3.299a89.809 89.809 0 0 0-.748-6.356c-.255-1.614-.745-3.229-1.739-4.55a11.801 11.801 0 0 0-.726-.877z"/><path d="M19.58 38.568c-.637-.722-2.43 0-3.007.533-.421.393-.498.954-.183 1.432.349.527.914.591 1.47.397.51-.178 1.133-.24 1.576-.593.494-.396.582-1.274.144-1.769z"/><path d="M19.055 45.606c.972-.221 2.281-.614 1.825-1.929-.411-1.188-2.336-.266-3.058-.027-.676.221-1.291.476-1.338 1.268-.03.41 0 .631.424.771.642.212 1.509.06 2.147-.083z"/><path d="M18.271 49.521c.942-.008 2.027-.041 2.919-.406.464-.194 1.088-.394.99-.994-.059-.408-.442-.931-.858-1.039-.829-.221-1.814.436-2.604.627-.731.176-1.645.273-1.406 1.255.11.464.548.559.959.557z"/><path d="M20.537 53.776c.7.005 1.661-.093 2.137-.675.43-.529.301-1.386-.243-1.797-.675-.514-1.84.079-2.558.257-.467.113-1.105.223-1.449.605-.246.276-.349.929-.055 1.186.498.441 1.556.422 2.168.424z"/></g><path d="M73.015 115.67c-.331-.731-.697-1.464-1.062-2.203 1.577 1.558 3.808 2.762 5.975 2.497.833-.104 1.648-.285 2.472-.468 6.675-1.487 4.919 4.775 3.45 9.237-4.7-1.347-8.11-3.023-10.835-9.063z" fill="#fff"/><path d="M63.481 124.818c-1.793-2.02-3.483-4.739-3.763-7.242-.094-.782-.094-2.22-.549-2.904-1.227-1.838-3.071.628-4.193 2.54a20.129 20.129 0 0 0-.883 1.669c-.723 1.542-1.811 3.748-2.534 5.936h11.922z" fill="#fff"/></g></svg>