<svg id="レイヤー_1" xmlns="http://www.w3.org/2000/svg" viewBox="0 0 128 128"><g><path d="M115.301 111.462H12.699c-5.523 0-10-4.477-10-10v-72c0-5.523 4.477-10 10-10h102.602c5.523 0 10 4.477 10 10v72c0 5.523-4.477 10-10 10z" fill="#016ca2"/></g><g fill="#bdcf46"><g><path d="M63.961 59.814l-.031.012a.377.377 0 0 0-.152.59l1.001 1.214.68-.585-1.087-1.141a.375.375 0 0 0-.411-.09z"/><path d="M47.735 78.962l-2.628-1.374a1.634 1.634 0 0 0-.76-.187h-.761a.278.278 0 0 1-.276-.251 1.64 1.64 0 0 0-1.633-1.488h-.242c-.512 0-.994-.239-1.305-.646l-.364-.477a1.643 1.643 0 0 0-1.16-.64l-1.957-.173a.275.275 0 0 1-.133-.048l-.323-.224a.276.276 0 0 0-.294-.013l-1.401.794c-.247.14-.525.213-.808.213h-1.443a.267.267 0 0 1-.135-.035c-.155-.091-.526-.372-.526-.99v-.829a.277.277 0 0 0-.277-.277h-.914a.276.276 0 0 1-.239-.416l.435-.747a.271.271 0 0 0 .038-.139v-.66a.277.277 0 0 0-.277-.277h-.503a.278.278 0 0 0-.232.126l-.284.439c-.302.467-.821.75-1.377.75h-.402s-.647-.121-.647-.809v-2.472a.31.31 0 0 1 .003-.043.733.733 0 0 1 .341-.499c.237-.148.798-.447 1.083-.598a.273.273 0 0 1 .315.042l.529.486c.05.046.114.072.181.073.168.004.483.006.542-.023.081-.04-.121-.405.364-.546.486-.142.809.303.809.303l1.237 1.47c.091.108.248.13.365.052l.184-.123a.276.276 0 0 0 .085-.37l-.024-.041a1.64 1.64 0 0 1 .358-2.079l1.031-.871s.121-.081.182-.526c.036-.267.109-.672.162-.953l.31-.532 2.22-1.874a.275.275 0 0 1 .407.057c.111.165.285.339.523.328.354-.016 1.221-.494 1.56-.688a.275.275 0 0 0 .139-.239v-.347l-1.073.224a.277.277 0 0 1-.33-.225l-.116-.698a.277.277 0 0 0-.273-.231l-1.071.121.126-.321a.314.314 0 0 1 .259-.197l2.644-.275.844-.342.528-.415a.277.277 0 0 0 .027-.411l-2.966-3.038a.276.276 0 0 0-.315-.057l-.891.416a.276.276 0 0 1-.277-.025l-2.458-1.733a.276.276 0 0 0-.383.064l-.379.522a.278.278 0 0 0-.052.148l-.07 1.295a.278.278 0 0 0 .078.208l.359.369c.118.122.1.32-.038.418l-.532.378a.275.275 0 0 1-.25.036l-1.199.204a1.64 1.64 0 0 0-.996-.959l-.602-.207a1.64 1.64 0 0 1-.728-2.599l1.169-1.407a.276.276 0 0 0 .045-.276l-.327-.85-.057-.09-1.325-1.406a.917.917 0 0 0-1.572.478l-.013.08a.917.917 0 0 1-.905.766h-3.933l-.666-.141-2.692-1.196-.56-.138-2.466-.16-.693.105-1.114.427a1.648 1.648 0 0 1-.927.073l-5.49-1.167a1.637 1.637 0 0 0-.989.098l-2.59 1.114a.276.276 0 0 0-.069.465l.677.573a.277.277 0 0 1-.173.488l-1.019.02a.276.276 0 0 0-.271.277v.145c0 .151.121.274.272.277l.88.015c.295.005.378.408.109.529l-.757.342a.277.277 0 0 0-.162.277l.069.758a1.639 1.639 0 0 0 1.376 1.471l.537.085a.277.277 0 0 1 .099.511l-.166.1a.277.277 0 0 0 0 .475l.087.052a.276.276 0 0 0 .256.015l4.63-2.087a1.64 1.64 0 0 1 1.781.285l4.41 4.034c.32.293.511.7.531 1.133l.145 3.079c.016.347.142.68.36.95l4.34 5.398a.277.277 0 0 0 .444-.332s2.744 2.837 2.999 2.963l2.222 1.096c.226.111.474.169.725.169h1.099c.108 0 .207.063.252.161l.366.799.011.022c.065.114.639 1.084 1.248 1.122.647.04 1.821 0 1.821 0s.418-.014.418.445v.697a.275.275 0 0 1-.141.241c-.361.203-1.288.789-1.288 1.462v1.574c0 .065.023.128.064.178.118.142.377.442.603.623.242.194.664.683.825.874.042.05.065.112.065.178v.903l.019.1c.047.121.182.423.406.535.139.069.487.355.807.629.399.342.614.851.574 1.375l-.196 2.565-.051.3-.894 3.339-.047.59.135 1.326c.024.239-.004.481-.084.708l-.326.931c-.104.298-.12.62-.046.928l.418 1.728a.925.925 0 0 0 .326.507l.431.337c.161.126.396.31.565.195.83-.566 1.128-2.871 1.486-3.733.183-.441 2.845-3.905 2.833-4.382l-.016-.665a.276.276 0 0 1 .277-.283h.849a.276.276 0 0 0 .204-.09l1.99-2.178a.275.275 0 0 0 .072-.187v-.889c0-.158.131-.285.289-.276.344.018.897.019 1.087-.144.238-.204.964-1.039 1.188-1.298a.277.277 0 0 0 .067-.18v-1.406c0-.409.153-.804.429-1.106l1.004-1.1c.276-.303.354-.755.155-1.153-.099-.2-.27-.352-.465-.454z"/><path d="M116.75 47.352h-2.796a.316.316 0 0 1-.301-.217l-2.683-.511c-.235 0-.465-.07-.66-.2l-.614-.41c-.195-.13-.425-.2-.66-.2 0 0-6.238-3.194-14.41-2.876-3.074.119-5.772 1.651-5.772 1.651a.24.24 0 0 0-.153.194l-.033.248a.243.243 0 0 1-.246.211l-1.233-.029a.243.243 0 0 0-.249.243l-3.445.116a.916.916 0 0 0-.754.395l-.312.45c-.229.331-3.311.443-3.311.443a.443.443 0 0 1-.272-.409v-.358c0-.125.053-.245.146-.329l1.641-1.48c.18-.162.405-.266.646-.297l1.016-.13a.438.438 0 0 0 .304-.184l.123-.175a.439.439 0 0 0-.215-.666l-.072-.025a.439.439 0 0 0-.364.034l-.776.446a.443.443 0 0 1-.219.058h-.76a1.19 1.19 0 0 0-.849.356l-1.834 1.866c-.16.162-.269.367-.316.59l-.171.817.116.351-.723 1-.647.647h-.607v-.647h-.728l-.21.818a1.19 1.19 0 0 1-.732.817l-.606.229a1.189 1.189 0 0 1-1.167-.187l-.792-.638 2.131.108.243-.459s-2.226-1.032-3.52-1.76c-1.048-.589-2.427-.092-2.915.119-.117.051-.22.119-.315.205l-4.647 4.185a1.19 1.19 0 0 0-.051 1.719l.442.449.618-.508a.434.434 0 0 1 .57.017l1.159 1.077h.297l1.096-1.298a.432.432 0 0 0 .012-.544l-.144-.187a.433.433 0 0 1-.025-.492l1.534-2.482a.305.305 0 0 1 .388-.116l.273.127a.305.305 0 0 1 .14.419l-1.055 1.987a1.005 1.005 0 0 0-.069.775l.169.526a1.19 1.19 0 0 1-.178 1.074l-.664.894a1.192 1.192 0 0 1-1 .48l-1.907-.072a.338.338 0 0 1-.326-.338v-.309a.338.338 0 1 0-.676-.032l-.051.552a.338.338 0 0 1-.337.307h-.179a.34.34 0 0 0-.23.09l-3.099 2.864.445.647v.695a.418.418 0 0 1-.418.418h-.99c-.53 0-.95.448-.915.978l.009.135a.916.916 0 0 0 .886.856l1.062.034a1.19 1.19 0 0 0 1.006-.497l.764-1.069a1.19 1.19 0 0 1 .968-.498h.733c.244 0 .482.075.682.215l1.169.818a.43.43 0 0 1 .034.679l-.663.57a1.188 1.188 0 0 1-.776.288h-4.116c-.375 0-.728.177-.953.477l-3.182 4.251a1.19 1.19 0 0 0-.237.713v2.819c0 .259.085.511.241.718l1.113 1.47c.093.123.155.266.201.414.074.236.266.59.751.59h5.139s1.295.04 1.295.89c0 .299-.01.599-.023.861a1.21 1.21 0 0 0 .621 1.105c.364.21.737.568.737 1.15v1.564c0 .123-.017.24-.054.357-.093.292-.301.878-.593 1.317-.27.405.108 1.001.39 1.354.172.216.258.488.258.764v1.551s.121.566.661.809c.54.243.728.378.728.378v.617c0 .657.533 1.19 1.19 1.19h1.562s.701.054 1.16-.647c.459-.701 2.104-3.237 2.104-3.237s.297-.324 0-.89c-.297-.566-.162-1.079-.162-1.079l1.43-.823s.674-.108.674-1.039v-1.005a.924.924 0 0 0-.126-.464l-.245-.418a1.19 1.19 0 0 1 .161-1.418l2.962-3.141s.782-1.16.782-1.753h-2.271c-.416 0-.801-.217-1.017-.573l-2.591-4.268a.64.64 0 0 1 1.092-.664l2.467 4.048-.005.366a.21.21 0 0 0 .207.213c.618.003 2.446-.069 3.467-.956.538-.467.868-.95 1.069-1.347a1.179 1.179 0 0 0-.284-1.414l-.63-.557-.83.182-1.471-1.471a.465.465 0 1 1 .612-.697l2.296 1.763s.465.425.951.425h1.347c.42 0 .808.221 1.023.582l3.012 5.063s.445.425.708.405.607-1.113.607-1.113c0-1.015.494-1.966 1.324-2.55l1.038-.73a1.189 1.189 0 0 1 1.509.115l.642.616v.657c0 .114.092.206.206.206h.279l.27-.27h.324v2.66c0 .302.115.592.321.813l1.999 2.139v-.769c0-.27-.092-.532-.261-.743l-.935-1.169a1.188 1.188 0 0 1-.261-.743v-.807c0-.129.157-.193.247-.1l1.21 1.244.027.776a.166.166 0 0 0 .288.107l1.709-1.854s.502-.616 0-1.133c-.362-.373-.86-.842-1.181-1.139a.377.377 0 0 1 .017-.567l.334-.277 1.335.02s.876.01 1.538-.668c.809-.83 2.003-2.145 2.003-2.145s.243-.931-.324-1.416c-.566-.486-.324-1.093-.324-1.093l.699-.607v-.435h-1.832s.162-.971 1.457-1.025c.174-.007.328-.013.465-.016a.995.995 0 0 1 1.019 1V64.334l.27.027s.513.054.701-.62c0 0 .337-.101.337-.506v-.486l-.486-.587.797-1.021a.912.912 0 0 1 .557-.337l.409-.075a.916.916 0 0 0 .597-.393l1.85-2.77c.131-.196.2-.426.2-.661v-.762a.375.375 0 0 0-.375-.375h-1.082s-.445-.526.162-.89c.426-.256 1.272-.951 1.738-1.342a1.18 1.18 0 0 1 .763-.276h2.178c.247 0 .488-.077.69-.22l1.429-1.016a.32.32 0 0 1 .184-.059c.622 0 .944.742.519 1.197l-1.482 1.585a1.194 1.194 0 0 0-.321.791l-.024 1.284a.436.436 0 0 0 .436.444h.365l1.942-1.979a.915.915 0 0 0 .25-.492l.07-.42a1.19 1.19 0 0 1 1.174-.994h.851c.288 0 .567-.105.784-.294l1.192-1.043a.316.316 0 0 1 .209-.079h.615a.318.318 0 0 0 .318-.318v-.596c0-.088.037-.172.101-.232l.457-.425a1.189 1.189 0 0 1 1.361-.184l.782.408a.456.456 0 0 0 .568-.12l.381-.476a.457.457 0 0 0-.155-.695l-3.773-1.853c-.164-.081-2.707-.122-2.889-.122zM63.93 59.826l.031-.012a.377.377 0 0 1 .412.09l1.087 1.141-.68.585-1.001-1.214a.376.376 0 0 1 .151-.59zm6.507 5.451h-.611a.88.88 0 0 1-.24-.032c-.662-.183-3.956-1.102-4.575-1.376a.462.462 0 0 1-.149-.74l.817-.871a.706.706 0 0 1 .977.043l.753.791.647-.121-.175-.472s-.081-.216-.162-.418c-.081-.202.364-.445.364-.445s.445-.04.445.647.728 1.214.728 1.214h2.491c.156 0 .256.165.183.303l-.438.839a1.192 1.192 0 0 1-1.055.638zm3.136-3.723h-.851l-.62-.482a.401.401 0 0 0-.245-.084h-.805a.498.498 0 0 0-.333.127l-.586.521-.583.094a.404.404 0 0 1-.466-.351l-.077-.638a.656.656 0 0 1 .161-.512l.963-1.075.432-.027-.025.189a.381.381 0 0 0 .379.431h.208a.531.531 0 0 0 .483-.311l.196-.431.89.148.08.642a.57.57 0 0 0 .198.364l.989.828v.177a.387.387 0 0 1-.388.39zm4.301.688v.728h-1.538l-.133-.73a.391.391 0 0 1 .064-.295l.076-.11a.393.393 0 0 0-.057-.514l-.72-.664V59.45l1.052-.445h.536c.209 0 .392.14.446.342l.008.03a.464.464 0 0 1-.095.419.46.46 0 0 0-.105.228l-.101.634.85.775-.607.405.324.404z"/><path d="M100.345 78.31l-3.639-.416a1.019 1.019 0 0 1-.266-.067l-.881-.355a1.023 1.023 0 0 1-.357-.242l-2.929-3.07a.353.353 0 0 0-.518.478l3.084 3.454c.125.14.287.243.468.298l1.739.522c.095.029.194.043.293.043h2.98l.026-.645z"/><path d="M107.588 80.247l-.149.421a1.916 1.916 0 0 1-2.031 1.263.37.37 0 0 1-.282-.545l.75-1.38-1.953.067c-.26.009-.515.071-.75.181l-.73.343a1.92 1.92 0 0 0-.519.359l-1.359 1.319a1.912 1.912 0 0 1-.559.377l-.92.408a1.917 1.917 0 0 0-1.141 1.753v.144c0 .257.052.511.152.747l.716 1.692a.894.894 0 0 1 .038.11.824.824 0 0 0 1.069.566l1.841-.646c.259-.091.535-.125.809-.1l2.197.2a1.92 1.92 0 0 1 1.453.893l.146.234c.35.561.965.901 1.626.901h.894c.509 0 .996-.202 1.356-.562l.981-.981c.36-.36.562-.847.562-1.356v-1.276a1.92 1.92 0 0 0-.622-1.414l-2.009-1.842a1.938 1.938 0 0 1-.444-.606l-.602-1.297a.283.283 0 0 0-.52.027z"/><path d="M98.863 76.833l.549-.987a1.02 1.02 0 0 0 .125-.58l-.087-1.053a.31.31 0 0 0-.51-.212L97.4 75.3a.31.31 0 0 1-.144.068l-.686.127a.31.31 0 0 0-.245.381l.143.574a1 1 0 0 0 .698.72l.527.149c.456.128.94-.073 1.17-.486z"/><path d="M107.196 79.156c.151 0 .301-.034.438-.099l1.063-.505a.016.016 0 0 1 .017.005l.779.964c.041.05.102.079.166.079h.516a.213.213 0 0 0 .169-.344l-.806-1.048-.354-.291-2.859-1.425a.02.02 0 0 0-.013-.001l-.678.274-.006.001h-.511a.015.015 0 0 1-.015-.011l-.195-.617a.203.203 0 0 0-.193-.141h-.702a.201.201 0 0 0-.202.202v.607h.445v.175c0 .223.167.41.389.436l1.021.117c.004 0 .008.003.01.006l.548.678c.172.213.138.721-.044.925l-.009.01h1.026z"/><path d="M107.79 59.774l-.357.325c-.396.36-.644.854-.698 1.386v.002c-.05.497-.271.962-.624 1.316l-.001.001a3.758 3.758 0 0 1-1.843 1.012l-.145.032-.566.459s-.159.806 0 .998c.073.088.369.072.459 0 .119-.095.135-.593.135-.593l1.807-.647s.448.588.674.62c.105.015.316-.103.378-.189.238-.33.511-1.544.511-1.544.091-.274.149-.557.175-.844l.096-1.065.809-.054.324-.647-.836-.081-.298-.487z"/><path d="M74.421 84.578s.27.526.917.526.917-.526.917-.526v-2.469a.917.917 0 0 0-1.399-.78.915.915 0 0 0-.435.78v2.469z"/><path d="M53.957 41.53l1.081-.633.019-.038a.477.477 0 0 0-.427-.691h-2.465l-.256-.285a1.678 1.678 0 0 0-1.178-.554l-3.664-.151-.719.13-2.174.914c-.181.076-.373.12-.569.129l-3.476.169c-.26.013-.514.086-.741.213l-1.947 1.095a.222.222 0 0 0-.024.372.223.223 0 0 1-.08.394l-1.516.379a.222.222 0 0 0-.135.333l.515.829a.223.223 0 0 0 .151.102l2.73.475c.419.073.794.302 1.05.641l1.867 2.469.552.753a.692.692 0 0 1-.052.88l-.416.445a.69.69 0 0 0-.113.78l1.371 2.741c.125.249.347.435.614.513a1.676 1.676 0 0 0 2.051-1.052l.359-1.018a.69.69 0 0 1 .301-.365l1.531-1.297c.187-.158.406-.274.643-.339l2.399-.654a1.676 1.676 0 0 0 1.114-.99l1.13-2.799c.166-.41.162-.869-.009-1.277l-.217-.517a1.68 1.68 0 0 1 .7-2.096z"/><path d="M33.964 43.96l.46-.814c.156-.275.385-.502.662-.655l3.785-2.086-.432-.486-4.292-.259a1.76 1.76 0 0 0-.37.018l-4.184.666a1.705 1.705 0 0 0-1.023 2.798l.943 1.093c.324.376.795.591 1.291.591h1.676c.614 0 1.181-.331 1.484-.866z"/><path d="M38.727 51.591l.386-.447a.262.262 0 0 0-.048-.385l-1.221-.859-4.262-3.146a1.023 1.023 0 0 0-.606-.199h-1.679c-.265 0-.52.103-.71.288l-.882.857a.262.262 0 0 0-.024.349l.496.633c.055.07.141.107.23.099l.481-.044a.262.262 0 0 1 .285.243l.019.278a.252.252 0 0 1-.02.118l-.224.536a.262.262 0 0 0 .042.271l.527.617a.26.26 0 0 0 .211.091l.513-.023a.261.261 0 0 0 .25-.261v-1.086c0-.137.105-.25.242-.261l.711-.055a.262.262 0 0 1 .179.053l1.3.995c.1.076.131.212.075.325l-.43.86a.261.261 0 0 1-.215.144l-.412.029a.262.262 0 0 0-.001.522l.877.065c.182.013.357.075.506.179l1.549 1.075a.261.261 0 0 0 .318-.015l.486-.411a.266.266 0 0 0 .084-.132l.165-.618a.264.264 0 0 0-.033-.21l-.53-.82.172-.034a.258.258 0 0 1 .184.031l.681.4a.254.254 0 0 0 .328-.052z"/><path d="M19.339 48.511v-.89h.526l.784 1.09c.097.134.224.243.372.317l1.016.508c.142.071.298.108.456.108h3.158v-1.052l-1.173-.409-1.349-.724c-.177 0-.351-.046-.505-.134l-2.161-1.23a1.017 1.017 0 0 0-.505-.134h-1.296a1.02 1.02 0 0 0-.97.705l-.114.35c-.119.365-.023.765.249 1.037l.458.458h1.054z"/></g><path d="M23.831 46.771l.833-.427c.144-.074.304-.112.465-.112h.449c.391 0 .748.224.918.576l.328.679v.697h-1.497v-.879l-.627-.325-.748.02-.121-.229z"/><path d="M26.703 46.231l.749 1.214.587.358h.87l.87-.924-.659-.862-1.688.214z"/><path d="M21.848 44.37l1.178.415c.078.027.152.064.221.109l.82.539c.137.09.294.146.458.162l1.491.15-.175-.919-1.78-.978a1.014 1.014 0 0 0-.491-.126h-.912l-.81.648z"/><path d="M59.675 51.892l.426.683a.186.186 0 0 1-.008.208l-.329.445a.188.188 0 0 0-.029.162l.133.448c.011.037.033.07.063.093l.685.535a1.02 1.02 0 0 1 .13 1.487l-.005.006a1.018 1.018 0 0 1-.758.337h-.818a.185.185 0 0 1-.179-.232l.214-.818a.184.184 0 0 1 .099-.12l.37-.176a.184.184 0 0 0 .104-.187l-.025-.221a.185.185 0 0 0-.147-.161l-.535-.107a.185.185 0 0 0-.204.103l-.122.261-.01.025-.262.88a.185.185 0 0 1-.182.132l-.829-.022a.186.186 0 0 1-.18-.185v-.944c0-.1.08-.182.18-.185l.427-.011a.181.181 0 0 0 .147-.08l.399-.577a.189.189 0 0 0 .033-.105v-.879c0-.056.025-.109.069-.144l.865-.699a.192.192 0 0 1 .278.048z"/><path d="M50.277 50.473h-.671l-.424.494 1.149.903c.213.168.485.243.754.21l1.309-.16v-.847l-.247-.6-1.359.353-.511-.353z"/><path d="M62.901 43.281h1.73c.209 0 .412.064.583.183l1.787 1.246-.243.364-1.511-.769-.62 1.133h-.674l-1.484-1.861.432-.296z"/><path d="M66.072 41.955h2.239l.566.432-.566.593h-1.203c-.217 0-.429-.069-.604-.198l-.648-.476.216-.351z"/><path d="M25.085 42.549l1.477-.546.87.445.425.809-.533.101-1.621.515-2.052-.96z"/><path d="M28.706 44.977h.648l.324.364h3.419l.283.405-.182.384-3.177.101-.364-.404-.526-.081-.081-.324-.344-.121z"/><path d="M26.218 45.044l.253.702.651.054.532-.607-.236-.216-.947-.081z"/><path d="M27.978 44.168l-.121.404.505.162.344-.283h.223v-.182l-.425-.182-.263-.102z"/><path d="M31.95 69.845l.62-.266h1.659l1.295.971s.607.079.607.243c0 .163-.607.243-.607.243h-.89l-1.254-.85-.769.121-.659-.27a.104.104 0 0 1-.002-.192z"/><path d="M36.253 71.373c-.066-.159.486-.486.486-.486s.904-.226 1.025 0c.069.129-.324.486-.324.486s-1.074.274-1.187 0z"/><path d="M107.817 90.594h2.105l-1.052 1.214h-.486z"/></g></svg>