<svg id="レイヤー_1" xmlns="http://www.w3.org/2000/svg" viewBox="0 0 128 128"><g><path d="M108.66 95.814a3.657 3.657 0 0 0-1.743 1.612c-1.049.235-2.126.464-3.196.525-1.903.107-3.778.375-5.685.37-2.217-.004-4.625.089-6.799-.324-1.979-.375-3.878-.271-5.738-1.251-3.881-2.043-7.761-3.857-11.46-6.229-1.987-1.27-4.081-2.484-6.06-3.843-1.997-1.373-3.909-2.615-4.25.769-.249 2.498.051 5.188.312 7.672.479 4.551.862 9.196 1.904 13.667.717 3.08 2.662 5.638 6.064 5.929 7.237.619 14.53.572 21.77-.047 2.818-.239 5.823.108 8.518-.82.398-.136.777-.239 1.143-.329-.262.849-.604 1.528-1.105 1.734-3.263 1.354-7.818 2.484-12.196 3.019a140.35 140.35 0 0 1-5.498.585c-7.499.638-14.12.835-20.353.647a40.06 40.06 0 0 0-1.904-.361c-.608-.103-1.22-.202-1.818-.332-2.761-.609-5.306-2.681-6.984-5.686-1.712-3.074-3.028-7.021-3.702-11.107-.503-3.051-.91-6.112-1.312-9.177-.46-3.421-.928-6.965-1.527-10.438-1.983-11.417-2.222-22.989-2.194-32.798a45.29 45.29 0 0 1 1.687-11.984 39.357 39.357 0 0 1 2.291-6.051c3.99-8.427 12.202-18.012 23.374-19.67 1.687-.249 3.426-.506 5.062-.506 1.753 0 3.206.3 4.443.914.492.248.994.474 1.49.698a31.73 31.73 0 0 1 1.66.797c.965.703 1.96 1.415 3.046 2.081 5.596 3.431 9.623 6.856 11.042 9.401.966 1.734 1.139 3.577 1.363 5.91.028.305.07.647.108.97-1.457-1.012-3.037-1.753-4.175-1.79-4.88-.15-1.6 5.676-1.19 7.963.408 2.235.87 6.904 3.983 4.931 1.13-.712 2.516-1.528 3.585-2.536 1.036 2.301 2.287 4.377 3.544 6.383 1.86 2.976 3.623 5.784 4.269 9.125 1.266 6.519 2.529 22.145 2.554 29.044.018 6.587-.17 8.757-4.323 10.533z" fill="#78a3ad"/><g fill="#2f2f2f"><path d="M95.735 66.704c1.781-.342 3.879-.412 5.268-1.729 2.016-1.917 2.745-5.694 2.797-8.343.062-3.069.014-3.032-2.788-3.233-2.465-.183-4.865-.385-7.377-.361-2.874.028-2.874-2.156-3.824-4.551-1.083-2.723-2.818-5.198-4.218-7.705l-4.209-10.513c-1.113-1.57-4.073-1.045-5.681-1.049-2.827-.009-5.54.318-8.212 1.228-2.952 1.003-4.949 2.568-7.456 4.354-1.674 1.195-3.35 2.357-4.955 3.632-1.659 1.317-5.511 3.843-5.305 6.285.304 3.684 5.98 3.079 8.389 3.159 4.026.131 8.053.445 12.013 1.228 1.57.314 2.02.31 2.703 1.823 1.015 2.24 1.956 4.523 2.977 6.739 1.093 2.376 1.766 4.884 2.996 7.204.515.97 1.509 3.304 2.507 3.871 1.331.75 5.085-.455 6.58-.623 2.592-.296 5.236-.938 7.795-1.416z"/><path d="M104.504 71.667c-.933-.535-2.471-.666-3.501-.764-3.313-.318-6.787.464-9.848 1.715-1.443.591-5.259 1.795-4.7 3.853l.116.333c.522 1.106 1.829.722 2.854.534 1.861-.342 3.75-.52 5.639-.754 1.471-.188 2.971-.014 4.447-.154 1.978-.197 4.326-.179 6.093-1.219 1.81-1.064.432-2.658-1.1-3.544z"/><path d="M96.69 80.371c-1.212.197-5.334.182-5.178 2.095.178 2.184 5.203 2.212 6.599 2.372 2.193.244 6.894.173 6.609-3.206-.043-.473-.193-.838-.418-1.125-1.397-1.748-5.855-.417-7.612-.136z"/><path d="M120.181 85.259c-.023-7.344-1.331-23.406-2.691-30.394-.899-4.654-3.102-8.174-5.234-11.577-1.795-2.864-3.492-5.568-4.223-8.764-.304-1.317-.431-2.629-.563-4.021-.253-2.657-.544-5.676-2.24-8.722-2.09-3.754-6.656-7.804-13.572-12.04-1.004-.614-1.951-1.308-2.898-1.997-1.875-1.368-3.824-2.779-6.234-3.801-.492-.202-.994-.398-1.476-.59-.586-.23-1.148-.45-1.613-.661-2.262-1.027-4.649-1.482-7.962-1.482h-.013a44.785 44.785 0 0 0-25.304 8.033c-2.354 1.359-4.598 2.822-6.662 4.434-7.484 5.845-20.898 17.763-26.671 31.913-2.816 6.903-3.67 14.43-4.167 21.536-1.167 16.564-1.12 30.234.146 43.02.117 1.214.271 2.414.426 3.618l.239 1.931c.783 6.646 5.423 6.895 10.335 7.157 2.84.15 5.741.487 8.544.816l2.203.257c4.808.539 10.26 1.153 15.598 1.518a112.7 112.7 0 0 0 4.387.188c.193.01.394.02.584.023.296.033.583.062.881.099 2.963.343 6.022.694 9.123.849 2.421.122 4.948.188 7.493.188 5.194 0 10.63-.248 16.629-.76 1.945-.164 3.839-.379 5.775-.613 5.057-.619 10.189-1.903 14.073-3.516 4.861-2.02 5.644-7.4 6.118-10.62l.164-1.078c.457-2.793 1.101-5.526 1.775-8.417l.047-.178c7.021-3.863 7.002-10.205 6.983-16.349zM108.66 95.814a3.657 3.657 0 0 0-1.743 1.612c-1.049.235-2.126.464-3.196.525-1.903.107-3.778.375-5.685.37-2.217-.004-4.625.089-6.799-.324-1.979-.375-3.878-.271-5.738-1.251-3.881-2.043-7.761-3.857-11.46-6.229-1.987-1.27-4.081-2.484-6.06-3.843-1.997-1.373-3.909-2.615-4.25.769-.249 2.498.051 5.188.312 7.672.479 4.551.862 9.196 1.904 13.667.717 3.08 2.662 5.638 6.064 5.929 7.237.619 14.53.572 21.77-.047 2.818-.239 5.823.108 8.518-.82.398-.136.777-.239 1.143-.329-.262.849-.604 1.528-1.105 1.734-3.263 1.354-7.818 2.484-12.196 3.019a140.35 140.35 0 0 1-5.498.585c-7.499.638-14.12.835-20.353.647a40.06 40.06 0 0 0-1.904-.361c-.608-.103-1.22-.202-1.818-.332-2.761-.609-5.306-2.681-6.984-5.686-1.712-3.074-3.028-7.021-3.702-11.107-.503-3.051-.91-6.112-1.312-9.177-.46-3.421-.928-6.965-1.527-10.438-1.983-11.417-2.222-22.989-2.194-32.798a45.29 45.29 0 0 1 1.687-11.984 39.357 39.357 0 0 1 2.291-6.051c3.99-8.427 12.202-18.012 23.374-19.67 1.687-.249 3.426-.506 5.062-.506 1.753 0 3.206.3 4.443.914.492.248.994.474 1.49.698a31.73 31.73 0 0 1 1.66.797c.965.703 1.96 1.415 3.046 2.081 5.596 3.431 9.623 6.856 11.042 9.401.966 1.734 1.139 3.577 1.363 5.91.028.305.07.647.108.97-1.457-1.012-3.037-1.753-4.175-1.79-4.88-.15-1.6 5.676-1.19 7.963.408 2.235.87 6.904 3.983 4.931 1.13-.712 2.516-1.528 3.585-2.536 1.036 2.301 2.287 4.377 3.544 6.383 1.86 2.976 3.623 5.784 4.269 9.125 1.266 6.519 2.529 22.145 2.554 29.044.018 6.587-.17 8.757-4.323 10.533z"/></g></g></svg>