<svg id="Layer1" xmlns="http://www.w3.org/2000/svg" viewBox="0 0 128 128"><g><g/><g/><g/><g/><path fill="none" stroke="#875a3b" stroke-width="2" stroke-miterlimit="10" d="M-67.534 53.742l11.569-30.848"/></g><g><g><path d="M16.283 98.324C12.277 96.503 9 91.413 9 87.013v-34c0-4.4 3.277-9.49 7.283-11.31l40.434-18.379c4.006-1.821 10.56-1.821 14.566 0l40.434 18.379c4.006 1.821 7.283 6.91 7.283 11.31v34c0 4.4-3.277 9.49-7.283 11.31l-40.434 18.379c-4.006 1.821-10.56 1.821-14.566 0L16.283 98.324z" fill="#006ca2"/></g><g><path d="M71.283 66.703c-4.006 1.821-10.56 1.821-14.566 0L16.283 48.324c-4.006-1.821-4.006-4.8 0-6.621l40.434-18.379c4.006-1.821 10.56-1.821 14.566 0l40.434 18.379c4.006 1.821 4.006 4.8 0 6.621L71.283 66.703z" fill="#40c0e7"/></g><g><path d="M81.954 55.186c-1.001.455-2.64.455-3.641 0L41.621 38.508c-1.001-.455-1.001-1.2 0-1.655l4.425-2.011c1.001-.455 2.64-.455 3.641 0L86.379 51.52c1.001.455 1.001 1.2 0 1.655l-4.425 2.011z" fill="#006ca2"/></g><g><path d="M82.687 55.686c-1.001.455-2.64.455-3.641 0L40.521 38.174c-1.001-.455-1.001-1.2 0-1.655l4.792-2.178c1.001-.455 2.64-.455 3.641 0l38.525 17.511c1.001.455 1.001 1.2 0 1.655l-4.792 2.179z" fill="#006ca2"/></g><path d="M93.061 23.138l-9.083 13.027c-4.974 7.133-4.656 17.333-4.656 17.333L46.003 38.347s-.318-10.2 4.656-17.333l9.083-13.027 33.319 15.151z" fill="#fbc21a"/><path d="M93.061 23.138l-9.083 13.027c-4.974 7.133-4.656 17.333-4.656 17.333" fill="none" stroke="#875a3b" stroke-width="2" stroke-miterlimit="10"/><g fill="none" stroke="#875a3b" stroke-width="4" stroke-linecap="round" stroke-linejoin="round" stroke-miterlimit="10"><path d="M56.13 34.545c2.988-2.979 20.093-7.792 23.529-7.604"/><path d="M63 19.365c.073 2.805 5.368 16.888 9.79 22.756"/></g></g></svg>