<svg id="レイヤー_1" xmlns="http://www.w3.org/2000/svg" viewBox="0 0 128 128"><g><path d="M124.825 107.726c-7.691-6.71-16.744-17.653-22.177-25.067-5.096-6.95-9.271-14.373-13.375-21.937-.795-1.471-1.509-2.991-2.274-4.482-1.381-2.666-2.924-5.594-5.35-7.468-2.325-1.799-5.576-1.622-7.556.61-.885 1.002-1.816 2.237-3.29 2.123-1.664-.127-2.443-1.828-3.677-2.725-1.479-1.074-3.379-1.504-5.076-.67-.691.337-1.277.821-1.816 1.369-.839.851-2.005 1.71-3.27 1.558-1.237-.143-2.009-1.213-3.006-1.84-1.626-1.037-3.514-1.188-5.126-.055-1.049.737-1.841 1.798-2.49 2.889-1.626 2.721-3.23 6.841-4.899 9.52C29.405 80.924 19.207 94.71 4.446 107.006c-8.389 6.992-1.161 12.801 3.552 12.801 11.929 0 17.688-3.997 22.907-3.997 5.222 0 6.036 4.877 15.319 4.877 9.284 0 14.621-4.873 20.884-4.873 6.271 0 11.12 4.642 18.155 4.642 7.035 0 12.721-4.642 18.062-4.642 5.336 0 8.744 3.888 15.357 3.888 6.62-.001 12.172-6.719 6.143-11.976z" fill="#006ca2"/><path d="M89.589 84.626c-1.538-.29-3.087-.586-4.595-1.003-4.962-1.373-8.513-.632-12.84 1.655-1.418.754-3.079 1.281-4.721 1.289-1.833.009-3.822-.438-5.526-1.066-1.598-.581-3.126-1.293-4.613-2.043-3.412-1.71-6.9-1.053-10.447-.143-2.127.548-4.305 1.146-6.499 1.318-3.016.232-3.786-1.524-2.241-4.026 5.371-8.69 10.325-16.184 12.527-21.866.493-1.276 1.723-2.747 3.335-2.54.953.122 3.355 2.667 5.244 3.045 1.803.362 3.636-2.583 4.761-2.78 1.091-.189 2.94.287 3.602.952.931.935 2.186 1.938 3.656 2.005 1.748.076 3.13-1.878 4.489-2.67 2.444-1.419 3.341.185 4.276 2.047 1.223 2.447 3.539 7.569 6.647 12.468 3.252 5.135 7.295 10.025 7.498 11.331.447 2.82-3.065 2.301-4.553 2.027z" fill="#fff"/></g></svg>