<svg id="图层_1" xmlns="http://www.w3.org/2000/svg" viewBox="0 0 128 128"><g><path d="M63.79 8.644C1.48 8.644 0 78.496 0 92.325c0 13.826 28.564 25.031 63.79 25.031 35.235 0 63.79-11.205 63.79-25.031 0-13.829-1.47-83.681-63.79-83.681z" fill="#fcc21b"/></g><g><g><g><path d="M109.541 94.902c-9.504 3.414-19.985-1.399-23.438-10.776-3.441-9.367 1.435-19.74 10.931-23.167 9.474-3.408 19.978 1.419 23.446 10.791 3.436 9.377-1.46 19.75-10.939 23.152z" fill="#fcc21b"/><path d="M109.308 94.268c-9.149 3.286-19.238-1.347-22.562-10.374-3.312-9.017 1.381-19.002 10.522-22.3 9.12-3.281 19.231 1.366 22.569 10.387 3.308 9.026-1.405 19.012-10.529 22.287z" fill="#fcc01c"/><path d="M109.074 93.634c-8.793 3.158-18.491-1.295-21.686-9.971-3.184-8.667 1.327-18.264 10.114-21.434 8.766-3.153 18.484 1.314 21.693 9.984 3.179 8.674-1.351 18.273-10.121 21.421z" fill="#fcbe1c"/><path d="M108.84 92.999c-8.438 3.03-17.743-1.243-20.81-9.568-3.055-8.317 1.274-17.526 9.705-20.568 8.412-3.026 17.737 1.261 20.816 9.58 3.052 8.325-1.295 17.535-9.711 20.556z" fill="#fbbb1d"/><path d="M108.606 92.365c-8.082 2.903-16.996-1.19-19.933-9.166-2.926-7.966 1.22-16.787 9.296-19.702 8.058-2.898 16.99 1.208 19.94 9.177 2.923 7.974-1.241 16.797-9.303 19.691z" fill="#fbb91e"/><path d="M108.372 91.73c-7.727 2.775-16.249-1.138-19.057-8.763-2.798-7.616 1.167-16.049 8.888-18.836 7.704-2.771 16.244 1.155 19.063 8.774 2.794 7.623-1.187 16.059-8.894 18.825z" fill="#fbb71e"/><path d="M108.139 91.096c-7.372 2.647-15.502-1.086-18.181-8.36-2.669-7.266 1.113-15.311 8.479-17.97 7.35-2.644 15.497 1.102 18.187 8.37 2.665 7.273-1.133 15.321-8.485 17.96z" fill="#fbb51f"/><path d="M107.905 90.461c-7.016 2.52-14.755-1.034-17.305-7.957-2.54-6.916 1.06-14.573 8.07-17.103 6.996-2.516 14.75 1.049 17.31 7.967 2.538 6.921-1.077 14.581-8.075 17.093z" fill="#fab220"/><path d="M107.671 89.827c-6.661 2.392-14.008-.981-16.428-7.555-2.412-6.565 1.006-13.835 7.661-16.237 6.642-2.389 14.003.996 16.434 7.564 2.409 6.571-1.023 13.843-7.667 16.228z" fill="#fab020"/><path d="M107.437 89.193c-6.305 2.264-13.261-.929-15.552-7.152-2.283-6.215.953-13.097 7.253-15.371 6.288-2.261 13.256.943 15.557 7.16 2.281 6.22-.969 13.105-7.258 15.363z" fill="#faae21"/><path d="M107.203 88.558c-5.95 2.137-12.514-.877-14.676-6.749-2.154-5.865.899-12.359 6.844-14.505 5.934-2.134 12.509.89 14.681 6.757 2.153 5.869-.914 12.367-6.849 14.497z" fill="#faac22"/><path d="M106.97 87.924c-5.595 2.009-11.767-.825-13.799-6.346-2.026-5.515.846-11.621 6.435-13.639 5.58-2.006 11.762.837 13.804 6.354 2.023 5.518-.86 11.627-6.44 13.631z" fill="#f9a922"/><path d="M106.736 87.289c-5.239 1.881-11.019-.772-12.923-5.944-1.897-5.165.792-10.883 6.027-12.773 5.226-1.879 11.015.784 12.928 5.95 1.894 5.169-.806 10.891-6.032 12.767z" fill="#f9a723"/><path d="M106.502 86.655c-4.884 1.754-10.272-.72-12.047-5.541-1.768-4.814.738-10.145 5.618-11.906 4.871-1.751 10.268.731 12.051 5.547 1.767 4.816-.75 10.151-5.622 11.9z" fill="#f9a524"/><path d="M106.268 86.02c-4.528 1.626-9.525-.668-11.171-5.138-1.64-4.464.685-9.407 5.209-11.04 4.517-1.624 9.522.678 11.175 5.143 1.639 4.467-.696 9.414-5.213 11.035z" fill="#f9a324"/><path d="M106.035 85.386c-4.173 1.498-8.778-.616-10.294-4.736-1.511-4.114.631-8.669 4.8-10.174 4.163-1.497 8.775.625 10.298 4.74 1.51 4.116-.642 8.675-4.804 10.17z" fill="#f8a025"/><path d="M105.801 84.751c-3.818 1.371-8.031-.563-9.418-4.333-1.382-3.764.578-7.931 4.392-9.308 3.809-1.369 8.028.572 9.422 4.337 1.381 3.766-.588 7.937-4.396 9.304z" fill="#f89e26"/><path d="M105.567 84.117c-3.462 1.243-7.284-.511-8.542-3.93-1.254-3.414.524-7.192 3.983-8.442 3.455-1.242 7.281.519 8.545 3.933 1.253 3.415-.532 7.199-3.986 8.439z" fill="#f89c26"/><path d="M105.333 83.483c-3.107 1.115-6.537-.459-7.666-3.527-1.125-3.063.471-6.454 3.574-7.576 3.101-1.114 6.534.467 7.669 3.53 1.125 3.063-.477 6.46-3.577 7.573z" fill="#f89a27"/><path d="M105.099 82.848c-2.751.988-5.79-.407-6.789-3.125-.997-2.713.417-5.716 3.166-6.709 2.747-.987 5.787.414 6.792 3.127.996 2.713-.424 5.721-3.169 6.707z" fill="#f79728"/><path d="M104.866 82.214c-2.396.86-5.043-.354-5.913-2.722-.868-2.363.364-4.978 2.757-5.843 2.393-.859 5.04.361 5.916 2.723.867 2.362-.37 4.983-2.76 5.842z" fill="#f79528"/><path d="M104.632 81.579c-2.041.732-4.295-.302-5.037-2.319-.739-2.013.31-4.24 2.348-4.977 2.039-.732 4.293.308 5.039 2.32.74 2.011-.314 4.245-2.35 4.976z" fill="#f79329"/></g></g><g><g><path d="M31.541 94.902c-9.504 3.414-19.985-1.399-23.438-10.776-3.441-9.367 1.435-19.74 10.931-23.167 9.474-3.408 19.978 1.419 23.446 10.791 3.436 9.377-1.46 19.75-10.939 23.152z" fill="#fcc21b"/><path d="M31.308 94.268c-9.149 3.286-19.238-1.347-22.562-10.374-3.312-9.017 1.381-19.002 10.522-22.3 9.12-3.281 19.231 1.366 22.569 10.387 3.308 9.026-1.405 19.012-10.529 22.287z" fill="#fcc01c"/><path d="M31.074 93.634c-8.793 3.158-18.491-1.295-21.686-9.971-3.184-8.667 1.327-18.264 10.114-21.434 8.766-3.153 18.484 1.314 21.693 9.984 3.179 8.674-1.351 18.273-10.121 21.421z" fill="#fcbe1c"/><path d="M30.84 92.999c-8.438 3.03-17.743-1.243-20.81-9.568-3.055-8.317 1.274-17.526 9.705-20.568 8.412-3.026 17.737 1.261 20.816 9.58 3.052 8.325-1.295 17.535-9.711 20.556z" fill="#fbbb1d"/><path d="M30.606 92.365c-8.082 2.903-16.996-1.19-19.933-9.166-2.926-7.966 1.22-16.787 9.296-19.702 8.058-2.898 16.99 1.208 19.94 9.177 2.923 7.974-1.241 16.797-9.303 19.691z" fill="#fbb91e"/><path d="M30.372 91.73c-7.727 2.775-16.249-1.138-19.057-8.763-2.798-7.616 1.167-16.049 8.888-18.836 7.704-2.771 16.244 1.155 19.063 8.774 2.794 7.623-1.187 16.059-8.894 18.825z" fill="#fbb71e"/><path d="M30.139 91.096c-7.372 2.647-15.502-1.086-18.181-8.36-2.669-7.266 1.113-15.311 8.479-17.97 7.35-2.644 15.497 1.102 18.187 8.37 2.665 7.273-1.133 15.321-8.485 17.96z" fill="#fbb51f"/><path d="M29.905 90.461c-7.016 2.52-14.755-1.034-17.305-7.957-2.54-6.916 1.06-14.573 8.07-17.103 6.996-2.516 14.75 1.049 17.31 7.967 2.538 6.921-1.077 14.581-8.075 17.093z" fill="#fab220"/><path d="M29.671 89.827c-6.661 2.392-14.008-.981-16.428-7.555-2.412-6.565 1.006-13.835 7.661-16.237 6.642-2.389 14.003.996 16.434 7.564 2.409 6.571-1.023 13.843-7.667 16.228z" fill="#fab020"/><path d="M29.437 89.193c-6.305 2.264-13.261-.929-15.552-7.152-2.283-6.215.953-13.097 7.253-15.371 6.288-2.261 13.256.943 15.557 7.16 2.281 6.22-.969 13.105-7.258 15.363z" fill="#faae21"/><path d="M29.203 88.558c-5.95 2.137-12.514-.877-14.676-6.749-2.154-5.865.899-12.359 6.844-14.505 5.934-2.134 12.509.89 14.681 6.757 2.153 5.869-.914 12.367-6.849 14.497z" fill="#faac22"/><path d="M28.97 87.924c-5.595 2.009-11.767-.825-13.799-6.346-2.026-5.515.846-11.621 6.435-13.639 5.58-2.006 11.762.837 13.804 6.354 2.023 5.518-.86 11.627-6.44 13.631z" fill="#f9a922"/><path d="M28.736 87.289c-5.239 1.881-11.019-.772-12.923-5.944-1.897-5.165.792-10.883 6.027-12.773 5.226-1.879 11.015.784 12.928 5.95 1.894 5.169-.806 10.891-6.032 12.767z" fill="#f9a723"/><path d="M28.502 86.655c-4.884 1.754-10.272-.72-12.047-5.541-1.768-4.814.738-10.145 5.618-11.906 4.871-1.751 10.268.731 12.051 5.547 1.767 4.816-.75 10.151-5.622 11.9z" fill="#f9a524"/><path d="M28.268 86.02c-4.528 1.626-9.525-.668-11.171-5.138-1.64-4.464.685-9.407 5.209-11.04 4.517-1.624 9.522.678 11.175 5.143 1.639 4.467-.696 9.414-5.213 11.035z" fill="#f9a324"/><path d="M28.035 85.386c-4.173 1.498-8.778-.616-10.294-4.736-1.511-4.114.631-8.669 4.8-10.174 4.163-1.497 8.775.625 10.298 4.74 1.51 4.116-.642 8.675-4.804 10.17z" fill="#f8a025"/><path d="M27.801 84.751c-3.818 1.371-8.031-.563-9.418-4.333-1.382-3.764.578-7.931 4.392-9.308 3.809-1.369 8.028.572 9.422 4.337 1.381 3.766-.588 7.937-4.396 9.304z" fill="#f89e26"/><path d="M27.567 84.117c-3.462 1.243-7.284-.511-8.542-3.93-1.254-3.414.524-7.192 3.983-8.442 3.455-1.242 7.281.519 8.545 3.933 1.253 3.415-.532 7.199-3.986 8.439z" fill="#f89c26"/><path d="M27.333 83.483c-3.107 1.115-6.537-.459-7.666-3.527-1.125-3.063.471-6.454 3.574-7.576 3.101-1.114 6.534.467 7.669 3.53 1.125 3.063-.477 6.46-3.577 7.573z" fill="#f89a27"/><path d="M27.099 82.848c-2.751.988-5.79-.407-6.789-3.125-.997-2.713.417-5.716 3.166-6.709 2.747-.987 5.787.414 6.792 3.127.996 2.713-.424 5.721-3.169 6.707z" fill="#f79728"/><path d="M26.866 82.214c-2.396.86-5.043-.354-5.913-2.722-.868-2.363.364-4.978 2.757-5.843 2.393-.859 5.04.361 5.916 2.723.867 2.362-.37 4.983-2.76 5.842z" fill="#f79528"/><path d="M26.632 81.579c-2.041.732-4.295-.302-5.037-2.319-.739-2.013.31-4.24 2.348-4.977 2.039-.732 4.293.308 5.039 2.32.74 2.011-.314 4.245-2.35 4.976z" fill="#f79329"/></g></g></g><g><g><path d="M45.056 30.553c-3.373.934-5.8 3.543-6.608 6.681-2.309-2.235-5.797-3.219-9.045-2.3a9.395 9.395 0 0 0-5.675 4.406 9.171 9.171 0 0 0-.895 7.065c2.973 10.852 21.026 15.301 21.793 15.485.187.048.379.045.559.005.227-.05.442-.165.614-.33.561-.555 13.736-13.741 10.765-24.561-1.351-4.927-6.62-7.904-11.508-6.451z" fill="#d7598b"/></g><g><path d="M82.774 30.635c3.389.875 5.861 3.441 6.724 6.564 2.27-2.275 5.74-3.32 9.003-2.458 2.429.634 4.472 2.155 5.751 4.306a9.167 9.167 0 0 1 1.018 7.049c-2.784 10.903-20.755 15.666-21.52 15.863a1.217 1.217 0 0 1-.559.015 1.296 1.296 0 0 1-.62-.319C82 61.11 68.597 48.156 71.379 37.285c1.266-4.949 6.482-8.018 11.395-6.65z" fill="#d7598b"/></g></g><g fill="#ed6c30"><path d="M82.491 73.139c-3.774-.915-8.343 2.921-15.441 4.514-1.114.25-2.11.338-3.042.331v20.312c11.316 0 18.456-6.194 21.015-10.505 4.806-8.093 2.677-13.388-2.532-14.652z"/><path d="M45.526 73.139c3.774-.915 8.343 2.921 15.441 4.514 1.114.25 2.11.338 3.042.331v20.312c-10.642 0-18.591-6.464-21.015-10.505-4.844-8.071-2.677-13.388 2.532-14.652z"/></g></svg>