<svg id="图层_1" xmlns="http://www.w3.org/2000/svg" viewBox="0 0 128 128"><g><g><path d="M63.79 8.644C1.48 8.644 0 78.496 0 92.325c0 13.826 28.564 25.031 63.79 25.031 35.235 0 63.79-11.205 63.79-25.031 0-13.829-1.47-83.681-63.79-83.681z" fill="#fcc21b"/></g></g><g><path d="M63.912 98.823a40.61 40.61 0 0 1-10.253-1.312 3 3 0 1 1 1.514-5.805c11.645 3.039 24.206-.21 32.776-8.48a3 3 0 0 1 4.166 4.318c-7.572 7.308-17.791 11.279-28.203 11.279z" fill="#2f2f2f"/></g><g/><g><g><path d="M51.682 67.977c-.917 0-1.826-.47-2.338-1.324-.124-.206-2.681-4.245-8.245-4.867-.738 4.78 1.728 8.455 5.882 8.415 2.261-.021 4.59-1.138 6.525-2.923a2.72 2.72 0 0 1-1.824.699z" fill="#2f2f2f"/></g><g><path d="M43.108 56.571a18.28 18.28 0 0 0-3.456-.324c-9.775 0-14.19 7.312-14.374 7.624a2.715 2.715 0 0 0 .955 3.709 2.728 2.728 0 0 0 3.729-.927c.133-.207 3.108-4.955 9.69-4.955.506 0 .983.036 1.447.088.061-.395.136-.795.242-1.204.371-1.43.986-2.786 1.767-4.011z" fill="#2f2f2f"/></g><g><path d="M54.038 63.871c-.165-.272-3.558-5.884-10.93-7.3a14.054 14.054 0 0 0-1.766 4.011 12.16 12.16 0 0 0-.242 1.204c5.564.622 8.12 4.662 8.245 4.867a2.729 2.729 0 0 0 4.163.625l.023-.023a2.734 2.734 0 0 0 .507-3.384z" fill="#2f2f2f"/></g></g><g><g><path d="M100.613 67.977c-.917 0-1.826-.47-2.338-1.324-.124-.206-2.681-4.245-8.245-4.867-.738 4.78 1.728 8.455 5.882 8.415 2.261-.021 4.59-1.138 6.525-2.923a2.72 2.72 0 0 1-1.824.699z" fill="#2f2f2f"/></g><g><path d="M92.039 56.571a18.28 18.28 0 0 0-3.456-.324c-9.775 0-14.19 7.312-14.374 7.624a2.715 2.715 0 0 0 .955 3.709 2.728 2.728 0 0 0 3.729-.927c.133-.207 3.108-4.955 9.69-4.955.506 0 .983.036 1.447.088.061-.395.136-.795.242-1.204.371-1.43.986-2.786 1.767-4.011z" fill="#2f2f2f"/></g><g><path d="M102.969 63.871c-.165-.272-3.558-5.884-10.93-7.3a14.054 14.054 0 0 0-1.766 4.011 12.16 12.16 0 0 0-.242 1.204c5.564.622 8.12 4.662 8.245 4.867a2.729 2.729 0 0 0 4.163.625l.023-.023a2.734 2.734 0 0 0 .507-3.384z" fill="#2f2f2f"/></g></g></svg>