<svg id="图层_1" xmlns="http://www.w3.org/2000/svg" viewBox="0 0 128 128"><g><g><path d="M63.795 9.472C1.274 9.472-.2 79.551-.2 93.417c0 13.88 28.651 25.111 63.995 25.111s63.991-11.231 63.991-25.111c.001-13.866-1.474-83.945-63.991-83.945z" fill="#fcc21b"/><g><path d="M105.876 92.913c-9.149 3.282-19.241-1.349-22.565-10.373-3.315-9.021 1.38-19.012 10.524-22.308 9.122-3.28 19.233 1.366 22.572 10.388 3.31 9.029-1.404 19.02-10.531 22.293z" fill="#fcc21b"/><path d="M105.631 92.248c-8.777 3.149-18.458-1.294-21.647-9.951-3.18-8.654 1.324-18.238 10.095-21.399 8.751-3.147 18.45 1.311 21.653 9.965 3.177 8.661-1.346 18.244-10.101 21.385z" fill="#fcc01c"/><path d="M105.386 91.583c-8.404 3.015-17.675-1.239-20.728-9.529-3.045-8.287 1.268-17.463 9.667-20.491 8.379-3.013 17.667 1.255 20.734 9.542 3.041 8.294-1.289 17.47-9.673 20.478z" fill="#fcbe1c"/><path d="M105.141 90.917c-8.031 2.881-16.891-1.184-19.809-9.106-2.91-7.92 1.212-16.689 9.238-19.583 8.008-2.88 16.884 1.199 19.815 9.119 2.906 7.927-1.232 16.696-9.244 19.57z" fill="#fbbb1d"/><path d="M104.895 90.252c-7.659 2.747-16.108-1.129-18.89-8.684-2.775-7.553 1.155-15.915 8.81-18.675 7.637-2.746 16.101 1.144 18.896 8.697 2.772 7.559-1.175 15.921-8.816 18.662z" fill="#fbb91e"/><path d="M104.65 89.587c-7.286 2.614-15.324-1.074-17.972-8.262-2.64-7.185 1.099-15.141 8.381-17.766 7.265-2.612 15.318 1.088 17.977 8.274 2.638 7.191-1.117 15.146-8.386 17.754z" fill="#fbb71e"/><path d="M104.405 88.921c-6.913 2.48-14.541-1.019-17.053-7.839-2.506-6.818 1.043-14.367 7.953-16.858 6.894-2.479 14.535 1.033 17.058 7.851 2.502 6.824-1.06 14.372-7.958 16.846z" fill="#fbb51f"/><path d="M104.16 88.256c-6.541 2.346-13.758-.964-16.134-7.417-2.371-6.451.987-13.593 7.524-15.95 6.523-2.345 13.752.977 16.139 7.428 2.368 6.456-1.003 13.598-7.529 15.939z" fill="#fab220"/><path d="M103.915 87.591c-6.168 2.213-12.974-.909-15.215-6.995-2.236-6.084.931-12.819 7.096-15.042 6.151-2.212 12.969.922 15.22 7.006 2.232 6.088-.947 12.823-7.101 15.031z" fill="#fab020"/><path d="M103.67 86.926c-5.795 2.079-12.191-.854-14.296-6.572-2.101-5.716.875-12.044 6.667-14.133 5.78-2.078 12.186.866 14.301 6.583 2.098 5.719-.889 12.046-6.672 14.122z" fill="#faae21"/><path d="M103.425 86.26c-5.423 1.945-11.408-.799-13.378-6.15-1.966-5.349.819-11.27 6.239-13.225 5.409-1.945 11.403.81 13.382 6.16 1.963 5.353-.832 11.273-6.243 13.215z" fill="#faac22"/><path d="M103.179 85.595c-5.05 1.812-10.624-.744-12.459-5.728-1.831-4.982.763-10.496 5.81-12.317 5.037-1.811 10.619.755 12.463 5.737 1.829 4.986-.774 10.499-5.814 12.308z" fill="#f9a922"/><path d="M102.934 84.93c-4.677 1.678-9.841-.69-11.54-5.306-1.696-4.615.707-9.722 5.382-11.409 4.666-1.678 9.836.699 11.544 5.315 1.694 4.618-.717 9.724-5.386 11.4z" fill="#f9a723"/><path d="M102.689 84.265c-4.305 1.544-9.058-.635-10.621-4.883-1.561-4.247.651-8.948 4.953-10.5 4.295-1.544 9.053.644 10.625 4.892 1.559 4.249-.66 8.948-4.957 10.491z" fill="#f9a524"/><path d="M102.444 83.599c-3.932 1.41-8.274-.58-9.702-4.461-1.427-3.88.594-8.174 4.525-9.592 3.923-1.41 8.27.588 9.706 4.469 1.423 3.882-.604 8.175-4.529 9.584z" fill="#f9a324"/><path d="M102.199 82.934c-3.559 1.277-7.491-.525-8.784-4.039-1.292-3.513.538-7.4 4.096-8.684 3.552-1.277 7.487.533 8.787 4.046 1.29 3.515-.546 7.401-4.099 8.677z" fill="#f8a025"/><path d="M101.954 82.269c-3.187 1.143-6.708-.47-7.865-3.616s.482-6.626 3.668-7.776c3.181-1.143 6.704.477 7.868 3.624 1.154 3.146-.489 6.624-3.671 7.768z" fill="#f89e26"/><path d="M101.709 81.603c-2.814 1.009-5.924-.415-6.946-3.194-1.022-2.779.426-5.851 3.239-6.867 2.809-1.01 5.921.421 6.949 3.201 1.019 2.779-.432 5.85-3.242 6.86z" fill="#f89c26"/><path d="M101.463 80.938c-2.441.876-5.141-.36-6.027-2.772-.887-2.411.37-5.077 2.811-5.959 2.438-.876 5.138.366 6.03 2.778.885 2.412-.375 5.076-2.814 5.953z" fill="#f89a27"/><path d="M101.218 80.273c-2.069.742-4.358-.305-5.109-2.349-.752-2.044.314-4.303 2.382-5.051 2.066-.743 4.355.31 5.111 2.355.751 2.044-.316 4.301-2.384 5.045z" fill="#f79728"/><path d="M100.973 79.608c-1.696.608-3.574-.25-4.19-1.927-.617-1.677.258-3.529 1.954-4.143 1.695-.609 3.572.255 4.192 1.933.615 1.676-.26 3.526-1.956 4.137z" fill="#f79528"/><path d="M100.728 78.942c-1.323.475-2.791-.195-3.271-1.505-.482-1.31.202-2.755 1.525-3.234 1.324-.476 2.789.199 3.273 1.51.481 1.308-.203 2.752-1.527 3.229z" fill="#f79329"/></g><g><path d="M32.497 92.249c-9.149 3.282-19.241-1.348-22.565-10.379-3.315-9.02 1.379-19.006 10.524-22.309 9.122-3.277 19.233 1.368 22.572 10.394 3.309 9.025-1.405 19.017-10.531 22.294z" fill="#fcc21b"/><path d="M32.251 91.584c-8.777 3.148-18.458-1.293-21.647-9.956-3.18-8.652 1.323-18.232 10.095-21.4 8.75-3.144 18.45 1.312 21.653 9.97 3.176 8.657-1.346 18.242-10.101 21.386z" fill="#fcc01c"/><path d="M32.006 90.918c-8.404 3.015-17.675-1.238-20.728-9.534-3.045-8.285 1.267-17.458 9.667-20.492 8.379-3.01 17.667 1.256 20.734 9.547 3.041 8.291-1.29 17.468-9.673 20.479z" fill="#fcbe1c"/><path d="M31.761 90.253c-8.031 2.881-16.891-1.183-19.809-9.111-2.91-7.917 1.211-16.684 9.238-19.583 8.008-2.877 16.884 1.2 19.815 9.123 2.906 7.923-1.233 16.693-9.244 19.571z" fill="#fbbb1d"/><path d="M31.516 89.588c-7.659 2.747-16.108-1.128-18.89-8.689-2.775-7.55 1.155-15.911 8.81-18.675 7.636-2.743 16.101 1.144 18.896 8.7 2.771 7.556-1.176 15.919-8.816 18.664z" fill="#fbb91e"/><path d="M31.271 88.922c-7.286 2.613-15.324-1.074-17.972-8.267-2.64-7.183 1.099-15.137 8.381-17.766 7.265-2.61 15.318 1.088 17.977 8.277 2.637 7.189-1.118 15.145-8.386 17.756z" fill="#fbb71e"/><path d="M31.026 88.257c-6.913 2.479-14.541-1.019-17.053-7.844-2.505-6.815 1.043-14.363 7.953-16.858 6.894-2.477 14.535 1.033 17.058 7.853 2.501 6.821-1.062 14.371-7.958 16.849z" fill="#fbb51f"/><path d="M30.781 87.591c-6.541 2.345-13.758-.964-16.134-7.422-2.371-6.448.987-13.589 7.524-15.949 6.523-2.343 13.752.977 16.139 7.43 2.367 6.454-1.004 13.597-7.529 15.941z" fill="#fab220"/><path d="M30.535 86.926c-6.168 2.211-12.974-.909-15.215-6.999-2.236-6.081.931-12.815 7.096-15.041 6.151-2.21 12.969.921 15.22 7.006 2.232 6.087-.947 12.823-7.101 15.034z" fill="#fab020"/><path d="M30.29 86.261c-5.796 2.077-12.191-.855-14.297-6.577-2.101-5.713.875-12.042 6.667-14.132 5.78-2.076 12.186.865 14.301 6.583 2.099 5.719-.889 12.048-6.671 14.126z" fill="#faae21"/><path d="M30.045 85.595c-5.423 1.943-11.408-.8-13.378-6.154-1.966-5.346.819-11.268 6.239-13.224 5.409-1.943 11.403.809 13.383 6.159 1.962 5.353-.833 11.274-6.244 13.219z" fill="#faac22"/><path d="M29.8 84.93c-5.05 1.81-10.624-.745-12.459-5.732-1.831-4.978.763-10.494 5.81-12.315 5.038-1.809 10.62.753 12.464 5.736 1.827 4.984-.776 10.499-5.815 12.311z" fill="#f9a922"/><path d="M29.555 84.265c-4.678 1.676-9.841-.69-11.541-5.309-1.696-4.611.707-9.72 5.382-11.407 4.666-1.676 9.837.697 11.545 5.313 1.693 4.616-.719 9.724-5.386 11.403z" fill="#f9a723"/><path d="M29.31 83.599c-4.305 1.542-9.058-.636-10.622-4.887-1.561-4.244.651-8.946 4.953-10.498 4.295-1.542 9.054.641 10.626 4.889 1.558 4.25-.662 8.951-4.957 10.496z" fill="#f9a524"/><path d="M29.065 82.934c-3.932 1.408-8.274-.581-9.703-4.464-1.426-3.876.594-8.172 4.525-9.59 3.924-1.409 8.271.585 9.707 4.466 1.423 3.882-.605 8.176-4.529 9.588z" fill="#f9a324"/><path d="M28.819 82.269c-3.56 1.274-7.491-.526-8.784-4.042-1.291-3.509.538-7.399 4.096-8.681 3.552-1.275 7.488.529 8.788 4.042 1.289 3.515-.547 7.402-4.1 8.681z" fill="#f8a025"/><path d="M28.574 81.603c-3.187 1.14-6.708-.471-7.866-3.619-1.156-3.142.482-6.625 3.668-7.773 3.181-1.142 6.705.473 7.869 3.619 1.154 3.148-.49 6.628-3.671 7.773z" fill="#f89e26"/><path d="M28.329 80.938c-2.814 1.006-5.924-.416-6.947-3.197-1.021-2.774.426-5.851 3.239-6.864 2.81-1.008 5.922.417 6.95 3.196 1.02 2.779-.432 5.852-3.242 6.865z" fill="#f89c26"/><path d="M28.084 80.272c-2.442.872-5.141-.362-6.028-2.774-.886-2.407.37-5.077 2.811-5.956 2.439-.875 5.139.361 6.031 2.772.884 2.413-.376 5.079-2.814 5.958z" fill="#f89a27"/><path d="M27.839 79.607c-2.069.738-4.358-.307-5.109-2.352-.751-2.039.314-4.303 2.382-5.047 2.067-.742 4.356.305 5.112 2.349.75 2.045-.319 4.304-2.385 5.05z" fill="#f79728"/><path d="M27.594 78.942c-1.695.608-3.574-.252-4.191-1.929-.616-1.672.258-3.53 1.954-4.139 1.696-.608 3.573.249 4.193 1.925.615 1.678-.26 3.534-1.956 4.143z" fill="#f79528"/><path d="M27.349 78.276c-1.324.471-2.791-.197-3.272-1.507-.482-1.305.202-2.756 1.525-3.23 1.325-.475 2.789.193 3.274 1.502a2.52 2.52 0 0 1-1.527 3.235z" fill="#f79329"/></g><path d="M29.962 66.177a2.73 2.73 0 0 1-3.729.927 2.714 2.714 0 0 1-.955-3.709c.184-.312 4.599-7.624 14.374-7.624 9.779 0 14.197 7.312 14.386 7.624a2.733 2.733 0 0 1-.968 3.728 2.729 2.729 0 0 1-3.727-.945c-.135-.223-3.116-4.955-9.692-4.955-6.58-.001-9.555 4.747-9.689 4.954z" fill="#2f2f2f"/><path d="M102 67.122a2.698 2.698 0 0 1-1.374.379c-.943 0-1.853-.49-2.362-1.343-.109-.195-3.08-4.937-9.658-4.937-6.694 0-9.655 4.887-9.688 4.937a2.73 2.73 0 0 1-3.731.964 2.724 2.724 0 0 1-.961-3.728c.182-.312 4.6-7.624 14.379-7.624 9.773 0 14.178 7.312 14.363 7.624a2.73 2.73 0 0 1-.968 3.728z" fill="#2f2f2f"/></g><path d="M64.448 94.102c-19.778 0-28.38-10.375-28.736-10.815a3.228 3.228 0 0 1 5.009-4.073c.315.377 7.25 8.429 23.727 8.429 15.839 0 22.008-9.272 22.263-9.666a3.24 3.24 0 0 1 4.449-.983 3.22 3.22 0 0 1 1.014 4.428c-.325.516-8.153 12.68-27.726 12.68z" fill="#2f2f2f"/></g></svg>