<svg id="图层_1" xmlns="http://www.w3.org/2000/svg" xmlns:xlink="http://www.w3.org/1999/xlink" viewBox="0 0 128 128"><path d="M63.894 9.644C1.584 9.644.104 79.497.104 93.326c0 13.826 28.564 25.031 63.79 25.031 35.235 0 63.79-11.205 63.79-25.031 0-13.83-1.469-83.682-63.79-83.682z" fill="#fcc21b"/><g><defs><path id="SVGID_1_" d="M63.888 98.062c23.153.047 40.56-12.969 41.191-29.053a232.121 232.121 0 0 1-82.382 0c.631 16.084 18.038 29.1 41.191 29.053z"/></defs><use xlink:href="#SVGID_1_" overflow="visible" fill="#fff"/><clipPath id="SVGID_2_"><use xlink:href="#SVGID_1_" overflow="visible"/></clipPath><g clip-path="url(#SVGID_2_)"><path d="M78.052 108a2 2 0 0 1-2-2V61.071a2 2 0 0 1 4 0V106a2 2 0 0 1-2 2z" fill="#2f2f2f"/></g><g clip-path="url(#SVGID_2_)"><path d="M92.215 108a2 2 0 0 1-2-2V61.071a2 2 0 0 1 4 0V106a2 2 0 0 1-2 2z" fill="#2f2f2f"/></g><g clip-path="url(#SVGID_2_)"><g><path d="M63.888 108a2 2 0 0 1-2-2V61.071a2 2 0 0 1 4 0V106a2 2 0 0 1-2 2z" fill="#2f2f2f"/></g><g><path d="M49.724 108a2 2 0 0 1-2-2V61.071a2 2 0 0 1 4 0V106a2 2 0 0 1-2 2z" fill="#2f2f2f"/></g><g><path d="M35.561 108a2 2 0 0 1-2-2V61.071a2 2 0 0 1 4 0V106a2 2 0 0 1-2 2z" fill="#2f2f2f"/></g></g></g><path d="M64.012 100.562h-.25c-24.132-.001-42.861-13.523-43.564-31.456a2.502 2.502 0 0 1 .857-1.984 2.478 2.478 0 0 1 2.084-.573c26.821 4.837 54.673 4.837 81.495 0a2.49 2.49 0 0 1 2.084.573c.571.498.887 1.228.857 1.984-.701 17.933-19.43 31.456-43.563 31.456zm-.129-5h.129c19.547 0 35.557-10.104 38.201-23.521a235.604 235.604 0 0 1-76.65 0c2.644 13.417 18.653 23.521 38.201 23.521h.119z" fill="#2f2f2f"/><path d="M31.962 54.446a2.73 2.73 0 0 1-3.729.927 2.714 2.714 0 0 1-.955-3.709c.184-.312 4.599-7.624 14.374-7.624 9.779 0 14.197 7.312 14.386 7.624a2.733 2.733 0 0 1-.968 3.728 2.729 2.729 0 0 1-3.727-.945c-.135-.223-3.116-4.955-9.692-4.955-6.58-.001-9.555 4.747-9.689 4.954z" fill="#2f2f2f"/><path d="M100 55.392a2.698 2.698 0 0 1-1.374.379c-.943 0-1.853-.49-2.362-1.343-.109-.195-3.08-4.937-9.658-4.937-6.694 0-9.655 4.887-9.688 4.937a2.73 2.73 0 0 1-3.731.964 2.724 2.724 0 0 1-.961-3.728c.182-.312 4.6-7.624 14.379-7.624 9.773 0 14.178 7.312 14.363 7.624a2.731 2.731 0 0 1-.968 3.728z" fill="#2f2f2f"/><g><g><path d="M106.572 79.412c-1.376-2.213-2.932-6.974-3.166-8.487-.405-2.609-1.504-7.341-2.302-11.296-.216-1.073-.202-2.558 1.146-2.627 1.076-.033 2.769.608 3.76.946 2.917.997 5.979 2.693 8.509 4.404 4.624 3.166 7.758 8.248 7.141 13.993-.469 4.24-4.451 7.035-8.054 6.875-2.592-.117-5.753-1.749-7.034-3.808z" fill="#fff"/></g><g><path d="M21.428 79.412c1.376-2.213 2.931-6.974 3.166-8.487.405-2.609 1.504-7.341 2.302-11.296.216-1.073.202-2.558-1.146-2.627-1.076-.033-2.769.608-3.76.946-2.917.997-5.979 2.693-8.509 4.404C8.856 65.518 5.723 70.6 6.34 76.345c.469 4.24 4.451 7.035 8.054 6.875 2.592-.117 5.753-1.749 7.034-3.808z" fill="#fff"/></g></g></svg>