<svg xmlns="http://www.w3.org/2000/svg" xmlns:xlink="http://www.w3.org/1999/xlink" viewBox="0 0 128 128"><g id="レイヤー_1"><g/></g><g id="Layer_2"><g><path d="M64.002 10.81C1.878 10.81.408 80.462.408 94.247c0 13.768 28.473 24.942 63.594 24.942 35.123 0 63.59-11.175 63.59-24.942 0-13.784-1.465-83.437-63.59-83.437z" fill="#fcc21b"/></g><path d="M87.072 80.668a2.78 2.78 0 0 0-2.505 1.57c-.359.69-7.25 13.405-20.477 13.405-12.331 0-20.961-12.729-21.048-12.857-.846-1.278-2.581-1.615-3.851-.773a2.77 2.77 0 0 0-.768 3.857c.403.623 10.391 15.335 25.667 15.335 16.825 0 25.762-15.854 25.762-17.756a2.784 2.784 0 0 0-2.78-2.781z" fill="#2f2f2f"/><path d="M91.362 39.668c2.078 3.425 6.318 6.504 10.183 3.683 3.878-2.83 4.047-7.756.677-12.401-4.99-6.922-15.471-11.185-16.442-10.473-.961.714.541 11.019 5.582 19.191" fill="#fff"/><g><defs><path id="SVGID_1_" d="M76.038 44.64c-1.988 2.67-3.89 6.929-4.024 10.61-.348 9.081 6.176 16.698 14.577 17.009 8.371.306 15.44-6.804 15.778-15.884.025-.698-.119-1.849-.168-2.527-4.004-3.19-14.295-7.754-26.163-9.208z"/></defs><use xlink:href="#SVGID_1_" overflow="visible" fill="#fff"/><clipPath id="SVGID_2_"><use xlink:href="#SVGID_1_" overflow="visible"/></clipPath><path d="M86.041 43.853c3.457 1.489 5.316 5.075 4.127 8.03-1.165 2.957-4.922 4.137-8.383 2.659-3.455-1.479-5.308-5.09-4.133-8.039 1.183-2.94 4.933-4.133 8.389-2.65" clip-path="url(#SVGID_2_)" fill="#2f2f2f"/></g><g><defs><path id="SVGID_3_" d="M51.864 44.64c1.988 2.67 3.89 6.929 4.024 10.61.348 9.081-6.176 16.698-14.577 17.009-8.371.306-15.44-6.804-15.778-15.884-.025-.698.119-1.849.168-2.527 4.003-3.19 14.294-7.754 26.163-9.208z"/></defs><use xlink:href="#SVGID_3_" overflow="visible" fill="#fff"/><clipPath id="SVGID_4_"><use xlink:href="#SVGID_3_" overflow="visible"/></clipPath><path d="M41.86 43.853c-3.457 1.489-5.316 5.075-4.127 8.03 1.165 2.957 4.922 4.137 8.383 2.659 3.455-1.479 5.308-5.09 4.133-8.039-1.183-2.94-4.932-4.133-8.389-2.65" clip-path="url(#SVGID_4_)" fill="#2f2f2f"/></g></g></svg>