<svg id="图层_1" xmlns="http://www.w3.org/2000/svg" viewBox="0 0 128 128"><g><g><path d="M63.79 8.644C1.48 8.644 0 78.496 0 92.325c0 13.826 28.564 25.031 63.79 25.031 35.235 0 63.79-11.205 63.79-25.031 0-13.829-1.47-83.681-63.79-83.681z" fill="#fcc21b"/></g></g><g><path d="M63.912 104.823a40.61 40.61 0 0 1-10.253-1.312 3 3 0 1 1 1.514-5.805c11.645 3.038 24.206-.21 32.776-8.48a3 3 0 0 1 4.166 4.318c-7.572 7.308-17.791 11.279-28.203 11.279z" fill="#2f2f2f"/></g><g/><g><g><path d="M98.211 41.335c-13.356 0-15.153 2.031-21.402 3.359C70.561 46.022 64 46.022 64 46.022s-6.561 0-12.81-1.328c-6.249-1.328-8.045-3.359-21.402-3.359-13.356 0-29.369 2.89-29.369 2.89v8.514s3.593.469 3.905 3.749C4.48 57.816 1.2 84.841 27.835 84.841c18.902 0 26.869-11.326 29.447-20.542 1.172-4.374 2.187-9.373 6.717-9.373 4.53 0 5.546 4.999 6.717 9.373 2.578 9.217 10.545 20.542 29.447 20.542 26.635 0 23.354-27.025 23.511-28.353.312-3.281 3.905-3.749 3.905-3.749v-8.514c.001 0-16.011-2.89-29.368-2.89z" fill="#2f2f2f"/></g><g><path d="M95.941 45.046c-6.62.232-11.653 1.307-11.653 1.307-9.839 2.057-10.554 8.139-9.928 12.969.801 6.067 3.289 13.746 10.04 18.489.534.375 1.758.793 2.345-.768 0 0-.023.107 0 0 2.216-10.476 5.525-20.135 10.776-29.892.622-1.781-.815-2.132-1.58-2.105z" fill="#fff"/></g><g><path d="M31.062 45.018c-4.273-.09-9.111.193-13.646 1.336-5.102 1.285-7.066 3.846-7.603 9.391-.526 5.431-1.129 19.266 8.726 24.461.571.301 1.826.497 2.444-.912 3.012-13.084 4.622-19.166 11.562-32.073.562-1.734-.714-2.187-1.483-2.203z" fill="#fff"/></g></g></svg>