<svg id="图层_1" xmlns="http://www.w3.org/2000/svg" viewBox="0 0 128 128"><g><g><g><path d="M63.79 16.911C1.48 16.911 0 86.764 0 100.593c0 13.826 28.564 25.031 63.79 25.031 35.235 0 63.79-11.205 63.79-25.031 0-13.829-1.47-83.682-63.79-83.682z" fill="#fcc21b"/></g></g><g><path d="M64 103.358c-11.774 0-22.496-5.463-29.416-14.988a3 3 0 0 1 4.854-3.527C45.217 92.797 54.169 97.358 64 97.358c9.83 0 18.783-4.562 24.562-12.516a2.996 2.996 0 0 1 4.19-.663 2.999 2.999 0 0 1 .663 4.19c-6.92 9.527-17.642 14.989-29.415 14.989z" fill="#2f2f2f"/></g><g><g><path d="M31.962 73.809a2.73 2.73 0 0 1-3.729.927 2.714 2.714 0 0 1-.955-3.709c.184-.312 4.599-7.624 14.374-7.624 9.779 0 14.197 7.312 14.386 7.624a2.733 2.733 0 0 1-.968 3.728 2.729 2.729 0 0 1-3.727-.945c-.135-.223-3.116-4.955-9.692-4.955-6.58-.001-9.555 4.747-9.689 4.954z" fill="#2f2f2f"/></g><g><path d="M100 74.754a2.698 2.698 0 0 1-1.374.379c-.943 0-1.853-.49-2.362-1.343-.109-.195-3.08-4.937-9.658-4.937-6.694 0-9.655 4.887-9.688 4.937a2.73 2.73 0 0 1-3.731.964 2.724 2.724 0 0 1-.961-3.728c.182-.312 4.6-7.624 14.379-7.624 9.773 0 14.178 7.312 14.363 7.624a2.731 2.731 0 0 1-.968 3.728z" fill="#2f2f2f"/></g></g></g><g><g><path d="M63.796 0C32.589 0 7.281 9.402 7.281 20.997 7.281 32.605 32.589 42 63.796 42c31.212 0 56.503-9.395 56.503-21.003C120.299 9.402 95.008 0 63.796 0zm-.006 25.865c-17.679 0-32.026-3.808-32.026-8.511 0-4.692 14.347-8.507 32.026-8.507 17.673 0 32.001 3.815 32.001 8.507 0 4.702-14.328 8.511-32.001 8.511z" fill="#40c0e7"/></g></g></svg>