<svg id="图层_1" xmlns="http://www.w3.org/2000/svg" viewBox="0 0 128 128"><g><g><g><path d="M127.223 93.417c0 13.859-28.292 25.103-63.216 25.103S.778 107.276.778 93.417C.778 79.544 2.244 9.48 64.007 9.48c61.759.001 63.216 70.064 63.216 83.937" fill="#fcc21b"/></g></g></g><g><g><path d="M48.319 55.405c0 5.408-3.621 9.789-8.1 9.789-4.476 0-8.115-4.381-8.115-9.789 0-5.419 3.64-9.8 8.115-9.8 4.48 0 8.1 4.381 8.1 9.8" fill="#2f2f2f"/></g><g><path d="M98.463 61.777a2.629 2.629 0 0 1-2.864 1.516 2.476 2.476 0 0 1-.611-.186c-7.831-3.487-18.47-3.394-18.567-3.391a2.625 2.625 0 0 1-2.57-1.916 2.629 2.629 0 0 1 1.178-2.978c9.011-5.408 21.72-7.26 22.247-7.33a2.634 2.634 0 0 1 2.982 2.237 2.651 2.651 0 0 1-2.241 2.978c-.068.006-5.277.763-11.122 2.651 3.252.475 6.941 1.476 10.236 2.938a2.64 2.64 0 0 1 1.332 3.481z" fill="#2f2f2f"/></g></g><g><path d="M64 93.532c-9.701 0-19.403-3.692-26.788-11.078a2.998 2.998 0 0 1 0-4.242 2.998 2.998 0 0 1 4.242 0c12.433 12.432 32.66 12.432 45.092 0a2.998 2.998 0 0 1 4.242 0 2.998 2.998 0 0 1 0 4.242C83.402 89.84 73.701 93.532 64 93.532z" fill="#2f2f2f"/></g></svg>