<svg id="图层_1" xmlns="http://www.w3.org/2000/svg" xmlns:xlink="http://www.w3.org/1999/xlink" viewBox="0 0 128 128"><path d="M63.894 9.644C1.584 9.644.104 79.497.104 93.326c0 13.826 28.564 25.031 63.79 25.031 35.235 0 63.79-11.205 63.79-25.031 0-13.83-1.469-83.682-63.79-83.682z" fill="#fcc21b"/><g><defs><path id="SVGID_1_" d="M63.888 98.062c23.153.047 40.56-12.969 41.191-29.053a232.121 232.121 0 0 1-82.382 0c.631 16.084 18.038 29.1 41.191 29.053z"/></defs><use xlink:href="#SVGID_1_" overflow="visible" fill="#fff"/><clipPath id="SVGID_2_"><use xlink:href="#SVGID_1_" overflow="visible"/></clipPath><g clip-path="url(#SVGID_2_)"><path d="M78.052 108a2 2 0 0 1-2-2V61.071a2 2 0 0 1 4 0V106a2 2 0 0 1-2 2z" fill="#2f2f2f"/></g><g clip-path="url(#SVGID_2_)"><path d="M92.215 108a2 2 0 0 1-2-2V61.071a2 2 0 0 1 4 0V106a2 2 0 0 1-2 2z" fill="#2f2f2f"/></g><g clip-path="url(#SVGID_2_)"><g><path d="M63.888 108a2 2 0 0 1-2-2V61.071a2 2 0 0 1 4 0V106a2 2 0 0 1-2 2z" fill="#2f2f2f"/></g><g><path d="M49.724 108a2 2 0 0 1-2-2V61.071a2 2 0 0 1 4 0V106a2 2 0 0 1-2 2z" fill="#2f2f2f"/></g><g><path d="M35.561 108a2 2 0 0 1-2-2V61.071a2 2 0 0 1 4 0V106a2 2 0 0 1-2 2z" fill="#2f2f2f"/></g></g></g><g fill="#2f2f2f"><path d="M42.002 58.296c-4.486.043-8.168-4.265-8.217-9.619-.048-5.374 3.554-9.747 8.035-9.79 4.484-.039 8.17 4.267 8.22 9.641.048 5.355-3.553 9.727-8.038 9.768z"/><path d="M86.114 58.295c4.482-.007 8.115-4.361 8.101-9.713-.012-5.373-3.662-9.705-8.144-9.694-4.493.009-8.131 4.361-8.122 9.732.016 5.357 3.674 9.687 8.165 9.675z"/></g><path d="M64.012 100.562h-.25c-24.132-.001-42.861-13.523-43.564-31.456a2.502 2.502 0 0 1 .857-1.984 2.478 2.478 0 0 1 2.084-.573c26.821 4.837 54.673 4.837 81.495 0a2.49 2.49 0 0 1 2.084.573c.571.498.887 1.228.857 1.984-.701 17.933-19.43 31.456-43.563 31.456zm-.129-5h.129c19.547 0 35.557-10.104 38.201-23.521a235.604 235.604 0 0 1-76.65 0c2.644 13.417 18.653 23.521 38.201 23.521h.119z" fill="#2f2f2f"/></svg>