<svg id="图层_1" xmlns="http://www.w3.org/2000/svg" viewBox="0 0 128 128"><g><path d="M63.79 8.644C1.48 8.644 0 78.496 0 92.325c0 13.826 28.564 25.031 63.79 25.031 35.235 0 63.79-11.205 63.79-25.031 0-13.829-1.47-83.681-63.79-83.681z" fill="#fcc21b"/></g><g fill="#2f2f2f"><path d="M30.962 54.446a2.73 2.73 0 0 1-3.729.927 2.714 2.714 0 0 1-.955-3.709c.184-.312 4.599-7.624 14.374-7.624 9.779 0 14.197 7.312 14.386 7.624a2.733 2.733 0 0 1-.968 3.728 2.729 2.729 0 0 1-3.727-.945c-.135-.223-3.116-4.955-9.692-4.955-6.58-.001-9.555 4.747-9.689 4.954z"/><path d="M101 55.392a2.698 2.698 0 0 1-1.374.379c-.943 0-1.853-.49-2.362-1.343-.109-.195-3.08-4.937-9.658-4.937-6.694 0-9.655 4.887-9.688 4.937a2.73 2.73 0 0 1-3.731.964 2.724 2.724 0 0 1-.961-3.728c.182-.312 4.6-7.624 14.379-7.624 9.773 0 14.178 7.312 14.363 7.624a2.731 2.731 0 0 1-.968 3.728z"/></g><g><path d="M119.191 68.664c-1.683 4.5-5.128 6.96-7.79 7.394-2.987.48-5.522-.31-7.135-2.222-2.051-2.416-2.344-6.227-.841-10.73 2.726-8.093 3.689-22.882 3.708-23.021.036-.568.392-1.047.936-1.211.533-.187 1.114-.004 1.476.427 12.372 14.922 11.362 24.8 9.646 29.363z" fill="#fff"/></g><path d="M96.457 68.26c-3.089-2.087-6.981-.71-10.417 0-9.583 1.979-18 2.063-22.04 2.063s-12.457-.083-22.04-2.063c-3.435-.71-7.328-2.087-10.417 0-3.917 2.646-1.03 12.146 5.139 18.57C40.41 90.712 49.29 98.24 64 98.24s23.59-7.528 27.318-11.41c6.169-6.424 9.055-15.924 5.139-18.57z" fill="#ed6c30"/></svg>