<svg id="图层_1" xmlns="http://www.w3.org/2000/svg" viewBox="0 0 128 128"><g><g><g><path d="M127.223 93.417c0 13.859-28.292 25.103-63.216 25.103S.778 107.276.778 93.417C.778 79.544 2.244 9.48 64.007 9.48c61.759.001 63.216 70.064 63.216 83.937" fill="#fcc21b"/></g></g></g><g><path d="M82.182 93.968c9.675-.36 14.232 12.609 24.022 9.775 1.828-.523 3.707-1.754 5.255-3.386l-.062-.058.064.055c1.529-1.649 2.555-3.623 3.042-5.461 2.955-11.146-9.57-21.613-13.72-20.761L82.182 93.968z" fill="#d7598b"/></g><g><g><path d="M64 98.384a3 3 0 1 1 0-6c14.932 0 27.82-8.178 32.072-20.349a3 3 0 1 1 5.664 1.978C96.645 88.59 81.479 98.384 64 98.384z" fill="#2f2f2f"/></g><g><path d="M64 98.384c-17.479 0-32.644-9.794-37.736-24.37a3 3 0 1 1 5.664-1.978C36.18 84.206 49.069 92.384 64 92.384a3 3 0 1 1 0 6z" fill="#2f2f2f"/></g></g><g fill="#2f2f2f"><path d="M30.84 55.609a2.73 2.73 0 0 1-3.729.927 2.714 2.714 0 0 1-.955-3.709c.184-.312 4.599-7.624 14.374-7.624 9.779 0 14.197 7.312 14.386 7.624a2.733 2.733 0 0 1-.968 3.728 2.729 2.729 0 0 1-3.727-.945c-.135-.223-3.116-4.955-9.692-4.955-6.58-.001-9.555 4.747-9.689 4.954z"/><path d="M100.879 56.555a2.698 2.698 0 0 1-1.374.379c-.943 0-1.853-.49-2.362-1.343-.109-.195-3.08-4.937-9.658-4.937-6.694 0-9.655 4.887-9.688 4.937a2.73 2.73 0 0 1-3.731.964 2.724 2.724 0 0 1-.961-3.728c.182-.312 4.6-7.624 14.379-7.624 9.773 0 14.178 7.312 14.363 7.624a2.733 2.733 0 0 1-.968 3.728z"/></g></svg>