<svg id="图层_1" xmlns="http://www.w3.org/2000/svg" viewBox="0 0 128 128"><g><g><g><g/></g></g><g fill="#2f2f2f"/></g><g/><g><g><g><path d="M64.002 9.561C1.592 9.561.121 79.523.121 93.359c0 13.855 28.591 25.079 63.881 25.079 35.283 0 63.876-11.224 63.876-25.079.001-13.836-1.475-83.798-63.876-83.798z" fill="#fcc21b"/></g></g></g><g fill="#2f2f2f"><path d="M42.212 62.296c-4.486.043-8.168-4.265-8.217-9.619-.048-5.374 3.554-9.747 8.035-9.79 4.484-.039 8.17 4.267 8.22 9.641.048 5.355-3.553 9.727-8.038 9.768z"/><path d="M86.324 62.295c4.482-.007 8.115-4.361 8.101-9.713-.012-5.373-3.662-9.705-8.144-9.694-4.493.009-8.131 4.361-8.122 9.732.016 5.357 3.675 9.687 8.165 9.675z"/></g><g><path d="M89.694 84.749H38.306a3 3 0 1 1 0-6h51.389a3 3 0 1 1-.001 6z" fill="#2f2f2f"/></g><g><path d="M117.565 66.975c-1.233 5.242-4.713 8.466-7.611 9.326-3.253.958-6.183.439-8.249-1.458-2.624-2.395-3.49-6.591-2.458-11.811 1.882-9.385.854-25.965.855-26.121-.04-.637.287-1.22.869-1.479.566-.283 1.238-.163 1.702.265 15.872 14.835 16.152 25.96 14.892 31.278z" fill="#fff"/></g></svg>