<svg id="图层_1" xmlns="http://www.w3.org/2000/svg" viewBox="0 0 128 128"><g><g><path d="M127.223 93.417c0 13.859-28.292 25.103-63.216 25.103S.778 107.276.778 93.417C.778 79.544 2.244 9.48 64.007 9.48c61.759.001 63.216 70.064 63.216 83.937" fill="#fcc21b"/></g></g><path d="M47.436 85.598c3.851 4.482.758 17.639 10.252 22.373 1.768.888 4.126 1.355 6.55 1.342l-.001-.078.005.078c2.424-.036 4.772-.551 6.522-1.474 9.397-4.925 6.04-18.017 9.799-22.576l-33.127.335z" fill="#d7598b"/><g><path d="M64.001 89.762c-11.652 0-23.304-3.137-33.248-9.41a3 3 0 0 1 3.202-5.075c17.972 11.338 42.12 11.338 60.09 0a3 3 0 1 1 3.201 5.075c-9.941 6.274-21.594 9.41-33.245 9.41z" fill="#2f2f2f"/></g><g fill="#2f2f2f"><path d="M42.212 65.194c-4.486.043-8.168-4.265-8.217-9.619-.048-5.374 3.554-9.747 8.035-9.79 4.484-.039 8.17 4.267 8.22 9.641.048 5.355-3.553 9.727-8.038 9.768z"/><path d="M86.324 65.193c4.482-.007 8.115-4.361 8.101-9.713-.012-5.373-3.662-9.705-8.144-9.694-4.493.009-8.131 4.361-8.122 9.732.016 5.356 3.675 9.686 8.165 9.675z"/></g></svg>