<svg id="图层_1" xmlns="http://www.w3.org/2000/svg" xmlns:xlink="http://www.w3.org/1999/xlink" viewBox="0 0 128 128"><g><path d="M59.089 74.171c.097 1.019 1.639 1.265 2.44 1.335 2.036.217 5.097-.331 6.578 1.353 1.194 1.384 1.27 3.678.619 5.291-.974 2.492-3.434 2.146-5.512 3.139-.53.248-.796.896-.685 1.434.041.214.154.411.333.569.759.609 1.94.496 2.86.598 1.03.114 1.975.107 2.745.85 1.274 1.214 1.529 4.136.627 5.634-1.078 1.771-4.784 3.162-6.276 4.547-.784.734-1.922 2.302-1.087 3.275.537.626 2.596.98 5.073-.38 2.501-1.373 5.411-4.881 6.591-7.48 1.248-2.723.799-5.519-1.052-7.857-.897-1.142.487-3.112.728-4.323.301-1.531.128-3.26-.417-4.722-1.614-4.617-6.436-5.409-10.553-5.131-2.316.155-3.099.946-3.012 1.868z" fill="#2f2f2f"/></g><g><g><path d="M127.223 93.417c0 13.859-28.292 25.103-63.216 25.103S.778 107.276.778 93.417C.778 79.544 2.244 9.48 64.007 9.48c61.759.001 63.216 70.064 63.216 83.937" fill="#fcc21b"/></g></g><g><path d="M97.529 54.969a2.629 2.629 0 0 1-2.864 1.516 2.476 2.476 0 0 1-.611-.186c-7.831-3.487-18.47-3.394-18.567-3.391a2.625 2.625 0 0 1-2.57-1.916 2.629 2.629 0 0 1 1.178-2.978c9.011-5.408 21.72-7.26 22.247-7.33a2.634 2.634 0 0 1 2.982 2.237 2.651 2.651 0 0 1-2.241 2.978c-.068.006-5.277.763-11.122 2.651 3.252.475 6.941 1.476 10.236 2.938a2.638 2.638 0 0 1 1.332 3.481z" fill="#2f2f2f"/></g><path d="M42.002 58.296c-4.486.043-8.168-4.265-8.217-9.619-.048-5.374 3.554-9.747 8.035-9.79 4.484-.039 8.17 4.267 8.22 9.641.048 5.355-3.553 9.727-8.038 9.768z" fill="#2f2f2f"/><g><path d="M63.942 74.661c2.652-.621 6.473-.289 8.534 1.4 1.663 1.363 2.742 3.351 2.804 5.752.051 1.786-.93 3.858-2.714 5.584 2.07 1.241 3.576 2.871 3.878 4.758.385 2.393-.174 4.579-1.612 6.312-2.15 2.592-5.764 3.907-10.587 3.907-1.542 0-4.093-.551-4.131-2.061-.031-1.221 2.085-1.811 3.985-2.064 2.812-.375 4.938-1.062 6.554-3.058.3-.37.696-1.567.491-2.229-.321-1.04-1.149-2.165-4.889-2.911l-.584-.117c-.814-.163-1.545-.715-1.78-1.511-.426-1.444.891-2.51 2.204-2.849 3.23-.816 3.916-2.891 3.893-3.62-.035-1.335-.583-1.781-.763-1.928-.56-.469-1.572-1.102-5.039-1.093-1.404.004-3.845.043-4.086-1.353-.242-1.394 2.092-2.45 3.842-2.919z" fill="#2f2f2f"/></g><g><g><defs><path id="SVGID_1_" d="M121.19 91.201c2.129-3.54 2.315-8.225-.028-11.754-2.472-3.716-6.676-5.622-11.06-4.697-1.15.239-2.493.643-2.937-.848-1.172-3.965-2.772-8.054-6.712-9.996-3.511-1.729-8.467-1.142-11.715.76-5.658 3.329-7.061 9.661-5.856 15.735.344 1.735.877 3.436 1.458 5.115.559 1.608 3.423 6.457 1.786 8.049-.388.374-1.305.434-1.291 1.055.035.762.862 1.415 1.431 1.773 5.908 3.676 13.327 3.867 20.032 3.012 5.158-.647 11.998-3.377 14.892-8.204z"/></defs><use xlink:href="#SVGID_1_" overflow="visible" fill="#d7598b"/><clipPath id="SVGID_2_"><use xlink:href="#SVGID_1_" overflow="visible"/></clipPath></g></g></svg>