<svg id="图层_1" xmlns="http://www.w3.org/2000/svg" viewBox="0 0 128 128"><g><path d="M64 9.644C1.689 9.644.21 79.497.21 93.326c0 13.826 28.564 25.031 63.79 25.031 35.235 0 63.79-11.205 63.79-25.031 0-13.83-1.47-83.682-63.79-83.682z" fill="#fcc21b"/></g><g><g><path d="M38.314 97.585a3 3 0 0 1-2.28-4.948A36.73 36.73 0 0 1 64 79.745a36.722 36.722 0 0 1 27.964 12.892 3 3 0 1 1-4.562 3.896A30.733 30.733 0 0 0 64 85.745a30.733 30.733 0 0 0-23.403 10.788 2.992 2.992 0 0 1-2.283 1.052z" fill="#2f2f2f"/></g><g><g><g><path d="M34.007 60.229a12.12 12.12 0 0 1 .405-2.706 35.353 35.353 0 0 0 5.679-1.211 17.636 17.636 0 0 0 7.052-4.038c1.933 1.832 3.169 4.722 3.095 7.995-.118 5.527-3.849 9.989-8.343 9.968-4.473-.002-7.999-4.487-7.888-10.008z" fill="#2f2f2f"/></g></g><g><g><path d="M94.408 60.229a12.12 12.12 0 0 0-.405-2.706 35.353 35.353 0 0 1-5.679-1.211 17.636 17.636 0 0 1-7.052-4.038c-1.933 1.832-3.169 4.722-3.095 7.995.118 5.527 3.849 9.989 8.343 9.968 4.473-.002 7.999-4.487 7.888-10.008z" fill="#2f2f2f"/></g></g></g></g></svg>