<svg id="图层_1" xmlns="http://www.w3.org/2000/svg" viewBox="0 0 128 128"><g/><g><g><g/></g></g><g><g><g/></g></g><g/><g><g><g/></g></g><path d="M-312.005-94.741c16.034-17.051 46.755-28.551 59.852-12.462" fill="none" stroke="#2f2f2f" stroke-width="6" stroke-linecap="round" stroke-linejoin="round" stroke-miterlimit="10"/><g fill="#2f2f2f"/><path d="M-129.005-93.69c12.55-15.876 47.899-26.915 59.852-12.462" fill="none" stroke="#2f2f2f" stroke-width="6" stroke-linecap="round" stroke-linejoin="round" stroke-miterlimit="10"/><g><g><g/></g></g><path d="M192.495-94.741c16.034-17.051 46.755-28.551 59.852-12.462" fill="none" stroke="#2f2f2f" stroke-width="6" stroke-linecap="round" stroke-linejoin="round" stroke-miterlimit="10"/><g><g><g><g/></g></g><path d="M33.995-94.741c16.034-17.051 46.755-28.551 59.852-12.462" fill="none" stroke="#2f2f2f" stroke-width="6" stroke-linecap="round" stroke-linejoin="round" stroke-miterlimit="10"/><g/></g><path d="M254.468-150.62s4.313 2.64 5.201 8.427" fill="none" stroke="#2f2f2f" stroke-width="3" stroke-linecap="round" stroke-miterlimit="10"/><path d="M192.273-150.62s-4.313 2.64-5.201 8.427" fill="none" stroke="#2f2f2f" stroke-width="3" stroke-linecap="round" stroke-miterlimit="10"/><g fill="#2f2f2f"/><g><g><g><g><path d="M64.002 9.561C1.592 9.561.121 79.523.121 93.359c0 13.855 28.591 25.079 63.881 25.079 35.283 0 63.876-11.224 63.876-25.079.001-13.836-1.475-83.798-63.876-83.798z" fill="#fcc21b"/></g></g></g><g fill="none" stroke="#2f2f2f" stroke-width="3" stroke-linecap="round" stroke-miterlimit="10"><path d="M98.098 32.855s4.313 2.64 5.201 8.427"/><path d="M29.902 32.855s-4.313 2.64-5.201 8.427"/></g><g fill="#2f2f2f"><path d="M41.99 61.905c-4.486.043-8.168-4.265-8.217-9.619-.048-5.374 3.554-9.747 8.035-9.79 4.484-.039 8.17 4.267 8.22 9.641.048 5.355-3.553 9.726-8.038 9.768z"/><path d="M86.102 61.904c4.482-.007 8.115-4.361 8.101-9.713-.012-5.373-3.662-9.705-8.144-9.694-4.493.009-8.131 4.361-8.122 9.732.016 5.356 3.675 9.686 8.165 9.675z"/></g></g><path d="M-129.005-93.69c12.55-15.876 47.899-26.915 59.852-12.462" fill="none" stroke="#2f2f2f" stroke-width="6" stroke-linecap="round" stroke-linejoin="round" stroke-miterlimit="10"/><g><g><g><g/></g></g><g fill="none" stroke="#2f2f2f" stroke-width="3" stroke-linecap="round" stroke-miterlimit="10"><path d="M242.627 32.855s4.313 2.64 5.201 8.427"/><path d="M174.431 32.855s-4.313 2.64-5.201 8.427"/></g><g fill="#2f2f2f"/></g><path d="M38.864 92.485C51.414 76.609 82 67.333 93.847 81.641" fill="none" stroke="#2f2f2f" stroke-width="6" stroke-linecap="round" stroke-linejoin="round" stroke-miterlimit="10"/></svg>