<svg id="图层_1" xmlns="http://www.w3.org/2000/svg" viewBox="0 0 128 128"><g><g><g><path d="M64.002 9.561C1.592 9.561.121 79.523.121 93.359c0 13.855 28.591 25.079 63.881 25.079 35.283 0 63.876-11.224 63.876-25.079.001-13.836-1.475-83.798-63.876-83.798z" fill="#fcc21b"/></g></g></g><g><g><g><path d="M94.424 56.739c0-.879-.127-1.71-.317-2.506-1.835-.475-3.751-1.126-5.694-2.222a40.332 40.332 0 0 1-5.081-3.371c-2.331 1.583-3.908 4.589-3.908 8.098 0 5.113 3.348 9.254 7.497 9.254 4.144.001 7.503-4.141 7.503-9.253z" fill="#2f2f2f"/></g></g><g><g><path d="M33.576 56.739c0-.879.127-1.71.317-2.506 1.835-.475 3.751-1.126 5.694-2.222a40.332 40.332 0 0 0 5.081-3.371c2.331 1.583 3.908 4.589 3.908 8.098 0 5.113-3.348 9.254-7.497 9.254-4.144.001-7.503-4.141-7.503-9.253z" fill="#2f2f2f"/></g></g></g><g><path d="M94.208 97.579a2.987 2.987 0 0 1-1.911-.689c-17.454-14.448-39.14-14.45-56.594 0a3 3 0 0 1-3.826-4.621c19.514-16.156 44.731-16.156 64.246 0a3 3 0 0 1-1.915 5.31z" fill="#2f2f2f"/></g><g fill="none" stroke="#2f2f2f" stroke-width="3" stroke-linecap="round" stroke-miterlimit="10"><path d="M35.58 38.614s-4.602 2.097-6.186 7.733"/><path d="M91.651 38.96s4.795 1.608 6.955 7.049"/></g></svg>