<svg id="图层_1" xmlns="http://www.w3.org/2000/svg" viewBox="0 0 128 128"><g><g><path d="M52.388 52.139c-.693.44-1.564.565-2.368.547-2.048-.009-5.03-.892-6.688.619-1.34 1.244-1.668 3.516-1.199 5.19.693 2.584 3.176 2.512 5.132 3.728.5.305.692.979.523 1.501a1.01 1.01 0 0 1-.394.528c-.821.521-1.983.279-2.908.279-1.036 0-1.975-.111-2.822.542-1.4 1.066-1.977 3.942-1.245 5.53.876 1.879 3.278 2.671 4.608 4.212.698.816 3.245 3.973 1.366 4.733-1.87.771-5.736.554-6.255-1.868-.604-2.788-3.104-4.876-3.989-7.59-.94-2.844-.185-5.573 1.913-7.693 1.017-1.036-.141-3.146-.247-4.377-.13-1.555.233-3.254.935-4.648 2.113-4.411 6.936-3.515 10.988-4.291.946-.177 1.705-.104 2.479.61.738.651 1.114 1.871.171 2.448z" fill="#2f2f2f"/></g><g fill="#2f2f2f"><path d="M26.604 37.84c.141-.308 3.431-7.631 11.229-7.798h.052c7.836-.143 11.377 7.097 11.534 7.409.659 1.384.095 3.061-1.274 3.735a2.659 2.659 0 0 1-1.146.286 2.755 2.755 0 0 1-2.532-1.567c-.111-.198-2.216-4.348-6.485-4.256h-.025c-4.278.091-6.241 4.301-6.313 4.477-.639 1.403-2.274 2.021-3.657 1.396a2.826 2.826 0 0 1-1.383-3.682z"/><path d="M86.027 50.015c-.1.013-.206.015-.312.018-1.378.029-2.59-1-2.785-2.443-.03-.202-.85-5.581-5.638-7.087-4.888-1.513-8.66 2.603-8.698 2.636a2.727 2.727 0 0 1-3.899.188c-1.123-1.044-1.211-2.814-.183-3.949.264-.289 6.2-6.793 14.397-4.229 8.218 2.58 9.447 11.351 9.494 11.733.195 1.521-.877 2.93-2.376 3.133z"/></g></g><g><g><g><path d="M.121 93.359c0 13.855 28.594 25.079 63.876 25.079 35.29 0 63.881-11.224 63.881-25.079 0-13.836-1.472-83.798-63.881-83.798C1.597 9.561.121 79.523.121 93.359z" fill="#fcc21b"/></g></g></g><g><path d="M63.942 67.661c2.652-.621 6.473-.289 8.534 1.4 1.663 1.363 2.742 3.351 2.804 5.752.051 1.786-.93 3.858-2.714 5.584 2.07 1.241 3.576 2.871 3.878 4.758.385 2.393-.174 4.579-1.612 6.312-2.15 2.592-5.764 3.907-10.587 3.907-1.542 0-4.093-.551-4.131-2.061-.031-1.221 2.085-1.811 3.985-2.064 2.812-.375 4.938-1.062 6.554-3.058.3-.37.696-1.567.491-2.229-.321-1.04-1.149-2.165-4.889-2.911l-.584-.117c-.814-.163-1.545-.715-1.78-1.511-.426-1.444.891-2.51 2.204-2.849 3.23-.816 3.916-2.891 3.893-3.62-.035-1.335-.583-1.781-.763-1.928-.56-.469-1.572-1.102-5.039-1.093-1.404.004-3.845.043-4.086-1.353-.242-1.394 2.092-2.45 3.842-2.919z" fill="#2f2f2f"/></g><g fill="#2f2f2f"><path d="M42.212 62.296c-4.486.043-8.168-4.265-8.217-9.619-.048-5.374 3.554-9.747 8.035-9.79 4.484-.039 8.17 4.267 8.22 9.641.048 5.355-3.553 9.727-8.038 9.768z"/><path d="M86.324 62.295c4.482-.007 8.115-4.361 8.101-9.713-.012-5.373-3.662-9.705-8.144-9.694-4.493.009-8.131 4.361-8.122 9.732.016 5.357 3.675 9.687 8.165 9.675z"/></g></svg>