<svg id="图层_1" xmlns="http://www.w3.org/2000/svg" viewBox="0 0 128 128"><g><g><path d="M63.999 9.901C1.99 9.901.512 79.419.512 93.188c0 13.755 28.429 24.911 63.487 24.911 35.069 0 63.489-11.155 63.489-24.911 0-13.769-1.464-83.287-63.489-83.287z" fill="#fcc21b"/></g></g><g><g><path d="M53.134 55.592H35.235a3 3 0 1 1 0-6h17.898a3 3 0 0 1 .001 6z" fill="#2f2f2f"/></g><g><path d="M92.765 55.592H74.866a3 3 0 1 1 0-6h17.898a3 3 0 0 1 .001 6z" fill="#2f2f2f"/></g></g><g><g><path d="M89.694 84.749H38.306a3 3 0 1 1 0-6h51.389a3 3 0 1 1-.001 6z" fill="#2f2f2f"/></g></g></svg>