<svg id="图层_1" xmlns="http://www.w3.org/2000/svg" viewBox="0 0 128 128"><g><g><path d="M127.223 93.417c0 13.859-28.292 25.103-63.216 25.103S.778 107.276.778 93.417C.778 79.544 2.244 9.48 64.007 9.48c61.759.001 63.216 70.064 63.216 83.937" fill="#fcc21b"/></g></g><g fill="#2f2f2f"/><path d="M47.436 85.931c3.851 4.482.758 17.639 10.252 22.373 1.768.888 4.126 1.355 6.55 1.342l-.001-.078.005.078c2.424-.036 4.772-.551 6.522-1.474 9.397-4.925 6.04-18.017 9.799-22.576l-33.127.335z" fill="#d7598b"/><g><path d="M64.001 90.096c-11.652 0-23.304-3.137-33.248-9.41a3 3 0 0 1 3.202-5.075c17.972 11.338 42.12 11.338 60.09 0a3 3 0 1 1 3.201 5.075c-9.941 6.273-21.594 9.41-33.245 9.41z" fill="#2f2f2f"/></g><g fill="#2f2f2f"><path d="M98.463 63.777a2.629 2.629 0 0 1-2.864 1.516 2.476 2.476 0 0 1-.611-.186c-7.831-3.487-18.47-3.394-18.567-3.391a2.625 2.625 0 0 1-2.57-1.916 2.629 2.629 0 0 1 1.178-2.978c9.011-5.408 21.72-7.26 22.247-7.33a2.634 2.634 0 0 1 2.982 2.237 2.651 2.651 0 0 1-2.241 2.978c-.068.006-5.277.763-11.122 2.651 3.252.475 6.941 1.476 10.236 2.938a2.64 2.64 0 0 1 1.332 3.481z"/><path d="M29.765 63.777a2.629 2.629 0 0 0 2.864 1.516c.208-.037.415-.095.611-.186 7.831-3.487 18.47-3.394 18.567-3.391a2.625 2.625 0 0 0 2.57-1.916 2.629 2.629 0 0 0-1.178-2.978c-9.011-5.408-21.72-7.26-22.247-7.33a2.634 2.634 0 0 0-2.982 2.237 2.651 2.651 0 0 0 2.241 2.978c.068.006 5.277.763 11.122 2.651-3.252.475-6.941 1.476-10.236 2.938a2.637 2.637 0 0 0-1.332 3.481z"/></g><g><path d="M23.185 228.984a78.115 78.115 0 0 0 81.63 0" fill="none" stroke="#2f2f2f" stroke-width="6" stroke-linecap="round" stroke-linejoin="round" stroke-miterlimit="10"/></g></svg>