<svg id="图层_1" xmlns="http://www.w3.org/2000/svg" viewBox="0 0 128 128"><g><path d="M.21 93.325c0 13.826 28.555 25.031 63.79 25.031 35.226 0 63.79-11.205 63.79-25.031 0-13.829-1.479-83.682-63.79-83.682C1.68 9.644.21 79.496.21 93.325z" fill="#fcc21b"/></g><g fill="#2f2f2f"><path d="M96.16 52.364a2.73 2.73 0 0 1 3.729-.927 2.714 2.714 0 0 1 .955 3.709c-.184.312-4.599 7.624-14.374 7.624-9.779 0-14.197-7.312-14.386-7.624a2.733 2.733 0 0 1 .968-3.728 2.729 2.729 0 0 1 3.727.945c.135.223 3.116 4.955 9.692 4.955 6.58.001 9.555-4.747 9.689-4.954z"/><path d="M28.121 51.419a2.698 2.698 0 0 1 1.374-.379c.943 0 1.853.49 2.362 1.343.109.195 3.08 4.937 9.658 4.937 6.694 0 9.655-4.887 9.688-4.937a2.73 2.73 0 0 1 3.731-.964 2.724 2.724 0 0 1 .961 3.728c-.182.312-4.6 7.624-14.379 7.624-9.773 0-14.178-7.312-14.363-7.624a2.733 2.733 0 0 1 .968-3.728z"/></g><g><path d="M89.694 89.749H38.306a3 3 0 1 1 0-6h51.389a3 3 0 1 1-.001 6z" fill="#2f2f2f"/></g></svg>