<svg id="图层_1" xmlns="http://www.w3.org/2000/svg" viewBox="0 0 128 128"><g><path d="M63.999 9.901C1.99 9.901.512 79.419.512 93.188c0 13.755 28.429 24.911 63.487 24.911 35.069 0 63.489-11.155 63.489-24.911 0-13.769-1.464-83.287-63.489-83.287z" fill="#fcc21b"/></g><g fill="#2f2f2f"><g><path d="M56.638 56.117l-.01.087c.006-.028.005-.059.01-.087z"/><path d="M40.661 52.592H29.417a3 3 0 1 0 0 6h11.805a11.254 11.254 0 0 1-.735-3.914c-.006-.717.057-1.413.174-2.086z"/><g><path d="M53.691 58.592H41.222c1.295 3.388 4.167 5.737 7.482 5.705 4.005-.037 7.297-3.531 7.924-8.093a3.001 3.001 0 0 1-2.937 2.388z"/><path d="M56.628 56.204l.01-.087c.03-.171.053-.345.053-.525a3 3 0 0 0-3-3h-13.03a11.593 11.593 0 0 0-.173 2.086c.013 1.397.278 2.719.735 3.914h12.469a3.001 3.001 0 0 0 2.936-2.388z"/></g></g><g><path d="M101.53 56.117l-.01.087c.006-.028.005-.059.01-.087z"/><path d="M85.552 52.592H74.309a3 3 0 1 0 0 6h11.805a11.254 11.254 0 0 1-.735-3.914c-.006-.717.057-1.413.173-2.086z"/><g><path d="M98.583 58.592H86.114c1.295 3.388 4.167 5.737 7.482 5.705 4.005-.037 7.297-3.531 7.924-8.093a3.001 3.001 0 0 1-2.937 2.388z"/><path d="M101.52 56.204l.01-.087c.03-.171.053-.345.053-.525a3 3 0 0 0-3-3H85.552a11.593 11.593 0 0 0-.173 2.086c.013 1.397.278 2.719.735 3.914h12.469a3.001 3.001 0 0 0 2.937-2.388z"/></g></g></g><path d="M50.023 85.11c7.337-6.961 20.615-6.961 27.953 0" fill="none" stroke="#2f2f2f" stroke-width="6" stroke-linecap="round" stroke-miterlimit="10"/></svg>