<svg id="图层_1" xmlns="http://www.w3.org/2000/svg" viewBox="0 0 128 128"><g><path d="M64 9.644C1.689 9.644.21 79.497.21 93.326c0 13.826 28.564 25.031 63.79 25.031 35.235 0 63.79-11.205 63.79-25.031 0-13.83-1.47-83.682-63.79-83.682z" fill="#fcc21b"/></g><g><g><g><path d="M90.457 59.618a23.042 23.042 0 0 1-19.309-10.471 2.75 2.75 0 1 1 4.61-2.999 17.545 17.545 0 0 0 18.974 7.441 2.75 2.75 0 1 1 1.34 5.334c-1.867.468-3.75.695-5.615.695z" fill="#2f2f2f"/></g><g><path d="M37.543 59.618c-1.864 0-3.748-.227-5.614-.695a2.75 2.75 0 1 1 1.34-5.334 17.55 17.55 0 0 0 18.974-7.441 2.75 2.75 0 1 1 4.61 2.999 23.045 23.045 0 0 1-19.31 10.471z" fill="#2f2f2f"/></g></g><g fill="#2f2f2f"><path d="M64 76.531c8.085 0 11.985-3.92 17.9-3.92 10.667 0 18.87 5.4 19.217 10.759.295 4.454-5.732 4.582-8.542 2.177-3.066-2.602-6.345-4.857-10.329-6.178C76.943 77.61 71.402 81.421 64 81.421"/><path d="M64 76.531c-8.085 0-11.985-3.92-17.9-3.92-10.667 0-18.87 5.4-19.217 10.759-.295 4.454 5.732 4.582 8.542 2.177 3.066-2.602 6.345-4.857 10.329-6.178C51.057 77.61 56.598 81.421 64 81.421"/></g></g></svg>