<svg id="图层_1" xmlns="http://www.w3.org/2000/svg" viewBox="0 0 128 128"><g><g><g><path d="M64.224 9.617C1.814 9.617.343 79.579.343 93.415c0 13.855 28.591 25.079 63.881 25.079 35.283 0 63.876-11.224 63.876-25.079.001-13.836-1.475-83.798-63.876-83.798z" fill="#fcc21b"/></g></g></g><g><g><g><path d="M94.424 55.402c0-.879-.127-1.71-.317-2.506-1.835-.475-3.751-1.126-5.694-2.222a40.332 40.332 0 0 1-5.081-3.371c-2.331 1.583-3.908 4.589-3.908 8.098 0 5.113 3.348 9.254 7.497 9.254 4.144.002 7.503-4.14 7.503-9.253z" fill="#2f2f2f"/></g><path d="M80.23 41.144s-4.313 2.64-5.201 8.427" fill="none" stroke="#2f2f2f" stroke-width="3" stroke-linecap="round" stroke-miterlimit="10"/></g><g><g><path d="M33.576 55.402c0-.879.127-1.71.317-2.506 1.835-.475 3.751-1.126 5.694-2.222a40.332 40.332 0 0 0 5.081-3.371c2.331 1.583 3.908 4.589 3.908 8.098 0 5.113-3.348 9.254-7.497 9.254-4.144.002-7.503-4.14-7.503-9.253z" fill="#2f2f2f"/></g><path d="M47.77 41.144s4.313 2.64 5.201 8.427" fill="none" stroke="#2f2f2f" stroke-width="3" stroke-linecap="round" stroke-miterlimit="10"/></g></g><path d="M43.081 97.673c1.991 1.345 4.499.457 6.714 0 6.177-1.276 11.601-1.329 14.205-1.329s8.028.054 14.205 1.329c2.214.457 4.723 1.345 6.714 0 2.524-1.705.664-7.828-3.312-11.968-2.403-2.502-8.127-7.354-17.607-7.354-9.48 0-15.204 4.852-17.607 7.354-3.976 4.14-5.836 10.263-3.312 11.968z" fill="#ed6c30"/><g><path d="M119.191 68.664c-1.683 4.5-5.128 6.96-7.79 7.394-2.987.48-5.522-.31-7.135-2.222-2.051-2.416-2.344-6.227-.841-10.73 2.726-8.093 3.689-22.882 3.708-23.021.036-.568.392-1.047.936-1.211.533-.187 1.114-.004 1.476.427 12.372 14.922 11.362 24.8 9.646 29.363z" fill="#fff"/></g></svg>