<svg id="Layer_1" xmlns="http://www.w3.org/2000/svg" viewBox="0 0 128 128"><g id="XMLID_4_"><path id="XMLID_2_" d="M64.002 12.81C1.878 12.81.408 82.462.408 96.247c0 13.768 28.473 24.942 63.594 24.942 35.123 0 63.59-11.175 63.59-24.942 0-13.784-1.465-83.437-63.59-83.437z" fill="#fcc21b"/></g><ellipse id="XMLID_1_" cx="43.951" cy="56.458" rx="7.917" ry="9.625" fill="#2f2f2f"/><ellipse id="XMLID_5_" cx="84.034" cy="56.458" rx="7.917" ry="9.625" fill="#2f2f2f"/><path id="XMLID_31_" d="M94.997 101.603h-62c-7.7 0-14-6.3-14-14s6.3-14 14-14h62c7.7 0 14 6.3 14 14s-6.3 14-14 14z" fill="#fff"/><path id="XMLID_24_" d="M94.997 77.603c5.514 0 10 4.486 10 10s-4.486 10-10 10h-62c-5.514 0-10-4.486-10-10s4.486-10 10-10h62m0-4h-62c-7.7 0-14 6.3-14 14s6.3 14 14 14h62c7.7 0 14-6.3 14-14s-6.3-14-14-14z" fill="#2f2f2f"/><g id="XMLID_6_" fill="#2f2f2f"><path id="XMLID_27_" d="M47.443 75.167h3.121v25h-3.121z"/><path id="XMLID_26_" d="M32.443 75.167h3.121v25h-3.121z"/><path id="XMLID_23_" d="M92.445 75.167h3.116v25h-3.116z"/><path id="XMLID_22_" d="M77.443 75.167h3.121v25h-3.121z"/><path id="XMLID_21_" d="M62.443 75.167h3.121v25h-3.121z"/><path id="XMLID_28_" d="M20.491 86.042h87.013v3.121H20.491z"/></g></svg>