<svg id="图层_1" xmlns="http://www.w3.org/2000/svg" viewBox="0 0 128 128"><g><g><g><path d="M64.224 9.617C1.814 9.617.343 79.579.343 93.415c0 13.855 28.591 25.079 63.881 25.079 35.283 0 63.876-11.224 63.876-25.079.001-13.836-1.475-83.798-63.876-83.798z" fill="#fcc21b"/></g></g></g><g fill="#2f2f2f"><path d="M98.975 61.36a2.63 2.63 0 0 1-2.721 1.76 2.516 2.516 0 0 1-.625-.132c-8.105-2.791-18.695-1.772-18.792-1.76a2.624 2.624 0 0 1-2.727-1.685 2.628 2.628 0 0 1 .914-3.069c8.505-6.173 21.005-9.125 21.524-9.241a2.635 2.635 0 0 1 3.166 1.968 2.65 2.65 0 0 1-1.973 3.162c-.067.012-5.191 1.22-10.849 3.61 3.281.19 7.043.865 10.453 2.035a2.639 2.639 0 0 1 1.63 3.352z"/><path d="M29.439 61.36a2.63 2.63 0 0 0 2.721 1.76c.21-.019.422-.059.625-.132 8.105-2.791 18.695-1.772 18.792-1.76a2.624 2.624 0 0 0 2.727-1.685 2.628 2.628 0 0 0-.914-3.069c-8.505-6.173-21.005-9.125-21.524-9.241a2.635 2.635 0 0 0-3.166 1.968 2.65 2.65 0 0 0 1.973 3.162c.067.012 5.191 1.22 10.849 3.61-3.281.19-7.043.865-10.453 2.035a2.639 2.639 0 0 0-1.63 3.352z"/></g><g><path d="M8.2 67.885c1.228 4.645 4.411 7.434 7.017 8.131 2.924.774 5.525.24 7.321-1.503 2.281-2.201 2.951-5.964 1.902-10.594-1.909-8.323-1.4-23.135-1.404-23.275.02-.569-.286-1.081-.811-1.298-.512-.239-1.109-.115-1.512.278C6.922 53.245 6.945 63.174 8.2 67.885z" fill="#fff"/></g><path d="M84.841 69.788c-9.477 0-12.608 4.661-21.048 4.661s-11.571-4.661-21.048-4.661-17.159 6.66-17.159 14.876S33.269 99.54 42.745 99.54s12.608-4.661 21.048-4.661 11.571 4.661 21.048 4.661S102 92.88 102 84.664s-7.683-14.876-17.159-14.876z" fill="#ed6c30"/></svg>