<svg id="图层_1" xmlns="http://www.w3.org/2000/svg" viewBox="0 0 128 128"><g><path d="M-.2 93.417c0 13.88 28.647 25.111 63.991 25.111s63.995-11.231 63.995-25.111c0-13.866-1.474-83.945-63.995-83.945C1.275 9.472-.2 79.551-.2 93.417z" fill="#fcc21b"/></g><g><g><path d="M31.116 63.44c-.246 0-.491-.005-.738-.014a2.75 2.75 0 0 1-2.643-2.854 2.74 2.74 0 0 1 2.854-2.643c6.186.245 11.65-3.788 13.258-9.79a2.75 2.75 0 0 1 5.313 1.423c-2.214 8.261-9.572 13.878-18.044 13.878z" fill="#2f2f2f"/></g><g><path d="M96.472 63.44c-8.474 0-15.831-5.617-18.044-13.877a2.75 2.75 0 1 1 5.312-1.423c1.607 6.001 7.074 10.031 13.258 9.79 1.494-.055 2.795 1.124 2.854 2.643a2.75 2.75 0 0 1-2.643 2.854c-.247.008-.493.013-.737.013z" fill="#2f2f2f"/></g></g><g><g><path d="M6.935 67.536c1.038 4.691 4.105 7.608 6.68 8.41 2.891.893 5.511.465 7.376-1.203 2.369-2.106 3.191-5.838 2.332-10.508-1.568-8.394-.456-23.173-.455-23.313.043-.567-.241-1.092-.758-1.329a1.35 1.35 0 0 0-1.522.216C6.254 52.856 5.873 62.777 6.935 67.536z" fill="#fff"/></g></g><g><path d="M84.841 68.788c-9.477 0-12.608 4.661-21.048 4.661s-11.571-4.661-21.048-4.661-17.159 6.66-17.159 14.876S33.269 98.54 42.745 98.54s12.608-4.661 21.048-4.661 11.571 4.661 21.048 4.661S102 91.88 102 83.664s-7.683-14.876-17.159-14.876z" fill="#ed6c30"/></g></svg>