<svg id="图层_1" xmlns="http://www.w3.org/2000/svg" viewBox="0 0 128 128"><g><path d="M63.79 8.644C1.48 8.644 0 78.496 0 92.325c0 13.826 28.564 25.031 63.79 25.031 35.235 0 63.79-11.205 63.79-25.031 0-13.829-1.47-83.681-63.79-83.681z" fill="#fcc21b"/></g><path d="M38.58 89.495c13.235-13.798 37.185-13.798 50.42 0" fill="none" stroke="#2f2f2f" stroke-width="6" stroke-linecap="round" stroke-miterlimit="10"/><g fill="#2f2f2f"><path d="M97.532 48.866a2.534 2.534 0 0 0-3.452-1.478l-16.512 7.549s-1.076.505-2.185.49c-2.267-.03-2.514-1.34-3.096-2.337-.275-.475-.939-.953-1.568-.687-1.071.447-1.003 2.792-.919 3.379.246 1.739.75 3.087 1.234 4.058.591 1.181 1.911 2.817 2.362 3.254 2.455 2.439 6.667 3.969 10.963 3.72a15.547 15.547 0 0 0 5.061-1.134c8.956-3.685 9.759-12.079 8.112-16.814z"/><path d="M30.256 48.866c.23-.678.744-1.22 1.398-1.504a2.565 2.565 0 0 1 2.057.026l16.511 7.549s1.072.505 2.18.49c2.269-.03 2.519-1.34 3.095-2.337.277-.475.938-.953 1.57-.687 1.071.447 1 2.792.918 3.379-.242 1.739-.744 3.087-1.232 4.058-.588 1.181-1.908 2.817-2.359 3.254-2.46 2.439-6.671 3.969-10.966 3.72a15.489 15.489 0 0 1-5.059-1.134c-8.959-3.685-9.759-12.079-8.113-16.814z"/></g></svg>