<svg id="图层_1" xmlns="http://www.w3.org/2000/svg" viewBox="0 0 128 128"><g><path d="M-.2 93.417c0 13.88 28.647 25.111 63.991 25.111s63.995-11.231 63.995-25.111c0-13.866-1.474-83.945-63.995-83.945C1.275 9.472-.2 79.551-.2 93.417z" fill="#fcc21b"/></g><g><g><path d="M31.116 67.439c-.246 0-.491-.004-.738-.014a2.751 2.751 0 0 1-2.643-2.854 2.742 2.742 0 0 1 2.854-2.643c6.186.243 11.65-3.788 13.258-9.79a2.75 2.75 0 0 1 5.313 1.423c-2.214 8.262-9.572 13.878-18.044 13.878z" fill="#2f2f2f"/></g><g><path d="M96.472 67.439c-8.474 0-15.831-5.616-18.044-13.876a2.75 2.75 0 1 1 5.312-1.423c1.607 6.001 7.074 10.029 13.258 9.79 1.494-.067 2.795 1.124 2.854 2.643a2.75 2.75 0 0 1-2.643 2.854c-.247.009-.493.012-.737.012z" fill="#2f2f2f"/></g></g><g><path d="M84.841 72.788c-9.477 0-12.608 4.661-21.048 4.661s-11.571-4.661-21.048-4.661-17.159 6.66-17.159 14.876 7.683 14.876 17.159 14.876 12.608-4.661 21.048-4.661 11.571 4.661 21.048 4.661S102 95.88 102 87.664s-7.683-14.876-17.159-14.876z" fill="#ed6c30"/></g></svg>