<svg id="图层_1" xmlns="http://www.w3.org/2000/svg" viewBox="0 0 128 128"><g><g><g><path d="M.343 93.415c0 13.855 28.594 25.079 63.876 25.079 35.29 0 63.881-11.224 63.881-25.079 0-13.836-1.472-83.798-63.881-83.798C1.819 9.617.343 79.579.343 93.415z" fill="#fcc21b"/></g></g></g><g fill="#2f2f2f"><path d="M98.463 51.997a2.629 2.629 0 0 1-2.864 1.516 2.476 2.476 0 0 1-.611-.186c-7.831-3.487-18.47-3.394-18.567-3.391a2.625 2.625 0 0 1-2.57-1.916 2.629 2.629 0 0 1 1.178-2.978c9.011-5.408 21.72-7.26 22.247-7.33a2.634 2.634 0 0 1 2.982 2.237 2.651 2.651 0 0 1-2.241 2.978c-.068.006-5.277.763-11.122 2.651 3.252.475 6.941 1.476 10.236 2.938a2.64 2.64 0 0 1 1.332 3.481z"/><path d="M29.765 51.997a2.629 2.629 0 0 0 2.864 1.516c.208-.037.415-.095.611-.186 7.831-3.487 18.47-3.394 18.567-3.391a2.625 2.625 0 0 0 2.57-1.916 2.629 2.629 0 0 0-1.178-2.978c-9.011-5.408-21.72-7.26-22.247-7.33a2.634 2.634 0 0 0-2.982 2.237 2.651 2.651 0 0 0 2.241 2.978c.068.006 5.277.763 11.122 2.651-3.252.475-6.941 1.476-10.236 2.938a2.637 2.637 0 0 0-1.332 3.481z"/></g><path d="M96.967 71.527c-4.529-4.441-11.018-8.489-17.663-8.704-5.354-.17-9.658 2.783-15.083 2.783s-9.729-2.953-15.083-2.783c-6.645.215-13.134 4.263-17.663 8.704-5.444 5.337-8.92 13.384-6.476 20.859.57 1.744 1.638 3.57 2.931 4.92 1.635 1.706 4.386 3.224 6.709 3.831 4.63 1.208 9.502.315 13.846-1.446 4.379-1.776 7.884-5.389 15.735-5.389 7.851 0 11.357 3.613 15.735 5.389 4.344 1.762 9.216 2.654 13.846 1.446 2.322-.607 5.073-2.125 6.709-3.831 1.294-1.35 2.361-3.176 2.931-4.92 2.446-7.476-1.03-15.522-6.474-20.859z" fill="#ed6c30"/><g fill="#fff"><path d="M111.615 77.286c-2.965-1.187-4.401-3.687-5.579-6.487a27.736 27.736 0 0 1-1.523-4.647c-.83-3.553-2.67-6.693-3.553-10.123-.254-1.004-.265-2.385.976-2.488 1.019-.071 2.611.473 3.574.75 6.53 1.982 14.45 6.77 15.118 14.159.235 2.389.171 5.862-1.797 7.703-1.949 1.867-4.777 2.095-7.216 1.133z"/><path d="M125.536 94.774c-.386 1.713-1.207 4.094-2.98 4.942-1.764.832-3.75.369-5.211-.821-1.789-1.464-2.219-3.509-2.394-5.695a21.571 21.571 0 0 1-.002-3.553c.224-2.625-.317-5.204-.151-7.765.047-.737.339-1.709 1.209-1.489.719.167 1.698.894 2.286 1.311 4.063 2.792 8.448 7.82 7.243 13.07z"/></g><g fill="#fff"><path d="M16.862 77.286c2.965-1.187 4.401-3.687 5.579-6.487a27.736 27.736 0 0 0 1.523-4.647c.83-3.553 2.67-6.693 3.553-10.123.254-1.004.265-2.385-.976-2.488-1.019-.071-2.611.473-3.574.75-6.53 1.982-14.45 6.77-15.118 14.159-.235 2.389-.171 5.862 1.797 7.703 1.949 1.867 4.778 2.095 7.216 1.133z"/><path d="M2.941 94.774c.386 1.713 1.207 4.094 2.98 4.942 1.764.832 3.75.369 5.211-.821 1.789-1.464 2.219-3.509 2.394-5.695.109-1.288.088-2.515.002-3.553-.224-2.625.317-5.204.151-7.765-.047-.737-.339-1.709-1.209-1.489-.719.167-1.698.894-2.286 1.311-4.062 2.792-8.447 7.82-7.243 13.07z"/></g></svg>