<svg id="图层_1" xmlns="http://www.w3.org/2000/svg" viewBox="0 0 128 128"><g><g><g><path d="M64.002 9.561C1.592 9.561.121 79.523.121 93.359c0 13.855 28.591 25.079 63.881 25.079 35.283 0 63.876-11.224 63.876-25.079.001-13.836-1.475-83.798-63.876-83.798z" fill="#fcc21b"/></g></g></g><g fill="#2f2f2f"><path d="M96.16 40.398a2.73 2.73 0 0 1 3.729-.927 2.714 2.714 0 0 1 .955 3.709c-.184.312-4.599 7.624-14.374 7.624-9.779 0-14.197-7.312-14.386-7.624a2.733 2.733 0 0 1 .968-3.728 2.729 2.729 0 0 1 3.727.945c.135.223 3.116 4.955 9.692 4.955 6.58.001 9.555-4.747 9.689-4.954z"/><path d="M28.121 39.453a2.698 2.698 0 0 1 1.374-.379c.943 0 1.853.49 2.362 1.343.109.195 3.08 4.937 9.658 4.937 6.694 0 9.655-4.887 9.688-4.937a2.73 2.73 0 0 1 3.731-.964 2.724 2.724 0 0 1 .961 3.728c-.182.312-4.6 7.624-14.379 7.624-9.773 0-14.178-7.312-14.363-7.624a2.733 2.733 0 0 1 .968-3.728z"/></g><path d="M84.497 93.474c0 13.97-9.177 19.86-20.497 19.86s-20.497-5.889-20.497-19.86S52.68 62.742 64 62.742s20.497 16.761 20.497 30.732z" fill="#ed6c30"/><g><path d="M51.916 79.114c-6.612 8.621-16.056 9.624-21.865 7.593-9.884-3.455-12.871-17.056-5.737-24.865 2.989-3.285 7.641-5.577 12.06-6.167 5.427-.726 11.605 1.038 16.889 1.167 2.304.056 5.336-.244 7.556-1.129.408-.173.631-.171.526.346-1.791 8.775-6.38 19.08-9.429 23.055z" fill="#fff"/></g></svg>