<svg id="レイヤー_1" xmlns="http://www.w3.org/2000/svg" xmlns:xlink="http://www.w3.org/1999/xlink" viewBox="0 0 128 128"><path d="M63.994 9.644C1.684 9.644.204 79.497.204 93.326c0 13.826 28.564 25.031 63.79 25.031 35.235 0 63.79-11.205 63.79-25.031 0-13.83-1.469-83.682-63.79-83.682z" fill="#fcc21b"/><g><defs><path id="SVGID_1_" d="M63.992 9.644C1.681 9.644.202 79.497.202 93.326c0 13.826 28.564 25.031 63.79 25.031 35.235 0 63.79-11.205 63.79-25.031 0-13.83-1.47-83.682-63.79-83.682z"/></defs><clipPath id="SVGID_2_"><use xlink:href="#SVGID_1_" overflow="visible"/></clipPath><g clip-path="url(#SVGID_2_)"><g><g><g><path d="M85.875 82.599C52.619 90.851 15.95 79.206 3.869 56.522-8.195 33.87 8.887 8.767 42.12.475c33.148-8.235 69.9 3.434 82.042 26.112 12.017 22.684-5.126 47.778-38.287 56.012z" fill="#fcc21b"/><path d="M84.959 80.881c-31.863 7.905-66.998-3.252-78.573-24.986-11.559-21.704 4.809-45.756 36.65-53.701 31.76-7.891 67.022 3.265 78.607 25.019 11.562 21.709-4.911 45.778-36.684 53.668z" fill="#fcc01c"/><path d="M84.043 79.162c-30.47 7.559-64.07-3.11-75.141-23.894-11.053-20.756 4.599-43.757 35.049-51.355 30.373-7.546 64.094 3.122 75.174 23.926 11.056 20.76-4.697 43.778-35.082 51.323z" fill="#fcbe1c"/><path d="M83.127 77.443c-29.078 7.213-61.143-2.969-71.709-22.802C.871 34.833 15.808 12.883 44.867 5.633c28.986-7.202 61.166 2.98 71.74 22.833 10.55 19.81-4.483 41.777-33.48 48.977z" fill="#fbbb1d"/><path d="M82.211 75.725c-27.685 6.867-58.216-2.827-68.276-21.711-10.043-18.859 4.18-39.759 31.847-46.662 27.598-6.857 58.238 2.837 68.306 21.74 10.045 18.861-4.268 39.776-31.877 46.633z" fill="#fbb91e"/><path d="M81.295 74.006c-26.292 6.521-55.289-2.686-64.844-20.619-9.537-17.911 3.972-37.76 30.247-44.316 26.211-6.513 55.31 2.694 64.872 20.646 9.54 17.914-4.055 37.777-30.275 44.289z" fill="#fbb71e"/><path d="M80.379 72.287c-24.9 6.175-52.361-2.544-61.411-19.528-9.032-16.962 3.762-35.76 28.645-41.969 24.824-6.168 52.382 2.551 61.438 19.553 9.035 16.965-3.84 35.777-28.672 41.944z" fill="#fbb51f"/><path d="M79.462 70.569c-23.507 5.829-49.434-2.403-57.979-18.436-8.526-16.014 3.553-33.762 27.045-39.624 23.436-5.824 49.454 2.408 58.004 18.46 8.53 16.016-3.625 33.777-27.07 39.6z" fill="#fab220"/><path d="M78.546 68.85C56.432 74.333 32.04 66.589 24 51.506c-8.02-15.066 3.344-31.763 25.444-37.278 22.049-5.479 46.526 2.266 54.57 17.367 8.024 15.067-3.411 31.776-25.468 37.255z" fill="#fab020"/><path d="M77.63 67.132c-20.722 5.137-43.579-2.12-51.114-16.253-7.515-14.118 3.135-29.764 23.843-34.932 20.661-5.135 43.598 2.123 51.136 16.273 7.52 14.119-3.196 29.777-23.865 34.912z" fill="#faae21"/><path d="M76.714 65.413c-19.329 4.791-40.652-1.978-47.682-15.161-7.009-13.169 2.925-27.765 22.242-32.585 19.274-4.791 40.671 1.98 47.702 15.18 7.015 13.169-2.982 27.776-22.262 32.566z" fill="#faac22"/><path d="M75.798 63.694c-17.937 4.444-37.725-1.837-44.249-14.07-6.504-12.221 2.716-25.766 20.641-30.239 17.887-4.446 37.742 1.837 44.268 14.087 6.509 12.221-2.768 25.777-20.66 30.222z" fill="#f9a922"/><path d="M74.882 61.976c-16.544 4.098-34.797-1.695-40.817-12.978-5.998-11.273 2.507-23.767 19.04-27.893 16.499-4.102 34.815 1.694 40.834 12.993 6.005 11.272-2.553 23.776-19.057 27.878z" fill="#f9a723"/><path d="M73.966 60.257c-15.151 3.752-31.87-1.554-37.384-11.887-5.493-10.325 2.298-21.768 17.439-25.547 15.112-3.757 31.887 1.552 37.4 11.9C96.92 45.047 89.082 56.5 73.966 60.257z" fill="#f9a524"/><path d="M73.05 58.538c-13.759 3.406-28.943-1.412-33.952-10.795-4.987-9.376 2.089-19.769 15.838-23.201 13.725-3.413 28.959 1.409 33.966 10.807 4.994 9.375-2.125 19.777-15.852 23.189z" fill="#f9a324"/><path d="M72.134 56.82c-12.366 3.06-26.015-1.271-30.52-9.703-4.482-8.428 1.879-17.77 14.237-20.854 12.337-3.068 26.031 1.266 30.532 9.714 4.489 8.424-1.91 17.774-14.249 20.843z" fill="#f8a025"/><path d="M71.218 55.101c-10.974 2.714-23.088-1.129-27.087-8.612-3.976-7.48 1.67-15.771 12.636-18.508 10.95-2.724 23.103 1.123 27.098 8.62 3.984 7.477-1.696 15.776-12.647 18.5z" fill="#f89e26"/><path d="M70.302 53.382c-9.581 2.368-20.161-.988-23.655-7.52-3.471-6.531 1.461-13.772 11.035-16.162 9.562-2.379 20.175.98 23.664 7.527 3.479 6.528-1.481 13.776-11.044 16.155z" fill="#f89c26"/><path d="M69.386 51.664c-8.188 2.022-17.233-.846-20.223-6.429-2.965-5.583 1.252-11.773 9.434-13.816 8.175-2.035 17.247.837 20.23 6.434 2.974 5.579-1.266 11.776-9.441 13.811z" fill="#f89a27"/><path d="M68.47 49.945c-6.796 1.676-14.316-.699-16.79-5.337-2.47-4.629 1.042-9.774 7.833-11.47 6.788-1.691 14.319.695 16.796 5.34 2.468 4.631-1.053 9.777-7.839 11.467z" fill="#f79728"/><path d="M67.554 48.226c-5.403 1.33-11.389-.558-13.358-4.246-1.965-3.681.833-7.775 6.232-9.124 5.4-1.346 11.391.552 13.362 4.247 1.964 3.683-.838 7.777-6.236 9.123z" fill="#f79528"/><path d="M66.638 46.508c-4.01.984-8.451-.422-9.925-3.154-1.449-2.738.624-5.776 4.631-6.777 4.013-1.002 8.454.414 9.928 3.154 1.449 2.737-.624 5.775-4.634 6.777z" fill="#f79329"/></g></g></g></g></g><g fill="#2f2f2f"><path d="M51.252 51.104c.939.076 1.724.816 1.807 1.755l.002.017c.502 5.741-2.989 10.733-7.778 11.152-4.795.419-9.103-3.89-9.605-9.631-.188-2.154.187-4.198.978-5.937.488-1.072 1.817-1.439 2.838-.852 3.31 1.903 7.349 3.141 11.758 3.496z"/><path d="M78.377 51.104c-.939.076-1.724.816-1.807 1.755l-.002.017c-.502 5.741 2.989 10.733 7.778 11.152 4.795.419 9.103-3.89 9.605-9.631.188-2.154-.187-4.198-.978-5.937-.488-1.072-1.817-1.439-2.838-.852-3.31 1.903-7.349 3.141-11.758 3.496z"/></g><path d="M62.781 79.193c13.917-2.454 23.26 4.162 23.651 4.444a3.25 3.25 0 0 1-3.81 5.267c-.292-.206-7.609-5.268-18.708-3.311-11.103 1.958-16.248 9.216-16.461 9.524a3.257 3.257 0 0 1-4.513.836 3.243 3.243 0 0 1-.858-4.497c.27-.397 6.788-9.81 20.699-12.263z" fill="#2f2f2f"/></svg>