<svg id="图层_1" xmlns="http://www.w3.org/2000/svg" viewBox="0 0 128 128"><g><g><g><g><path d="M64.002 9.617C1.592 9.617.121 79.579.121 93.415c0 13.855 28.591 25.079 63.881 25.079 35.283 0 63.876-11.224 63.876-25.079.001-13.836-1.475-83.798-63.876-83.798z" fill="#fcc21b"/></g></g></g><g fill="#2f2f2f"><path d="M41.99 65.501c-4.486.043-8.168-4.265-8.217-9.619-.048-5.374 3.554-9.747 8.035-9.79 4.484-.039 8.17 4.267 8.22 9.641.048 5.355-3.553 9.726-8.038 9.768z"/><path d="M86.102 65.5c4.482-.007 8.115-4.361 8.101-9.713-.012-5.373-3.662-9.705-8.144-9.694-4.493.009-8.131 4.361-8.122 9.732.016 5.356 3.675 9.686 8.165 9.675z"/></g><path d="M43.081 97.673c1.991 1.345 4.499.457 6.714 0 6.177-1.276 11.601-1.329 14.205-1.329s8.028.054 14.205 1.329c2.214.457 4.723 1.345 6.714 0 2.524-1.705.664-7.828-3.312-11.968-2.403-2.502-8.127-7.354-17.607-7.354-9.48 0-15.204 4.852-17.607 7.354-3.976 4.14-5.836 10.263-3.312 11.968z" fill="#ed6c30"/></g></svg>