<svg id="レイヤー_1" xmlns="http://www.w3.org/2000/svg" viewBox="0 0 128 128"><g><path d="M104.949 83.35c0 17.905-19.343 32.419-43.203 32.419S18.544 101.255 18.544 83.35c0-17.901 19.343-32.411 43.203-32.411s43.202 14.509 43.202 32.411z" fill="#2f2f2f"/><path d="M125.084 92.171l-10.301-1.858c.309-1.638.517-3.304.629-4.979l9.809-1.459a2.138 2.138 0 0 0 1.796-2.425 2.143 2.143 0 0 0-2.425-1.8L115.521 81a58.99 58.99 0 0 0-.121-3.083c-.517-7.709-3.488-15.551-8.334-22.281-.441-8.563-2.654-38.394-12.059-42.678C87.89 9.72 75.276 28.205 71.309 34.75c-.229.379-.446.729-.667 1.092a70.444 70.444 0 0 0-8-.479c-2.529 0-5.059.167-7.576.438-.204-.337-.404-.671-.621-1.025C50.5 28.221 37.949 9.691 30.823 12.903c-9.255 4.18-11.651 33.044-12.18 42.178-5.084 6.851-8.221 14.909-8.759 22.835a65.092 65.092 0 0 0-.117 2.684l-6.359-.95c-1.162-.158-2.25.633-2.425 1.8a2.132 2.132 0 0 0 1.796 2.425l7.063 1.05c.117 1.975.354 3.942.746 5.863l-7.675 1.383a2.14 2.14 0 0 0-1.721 2.479 2.137 2.137 0 0 0 2.48 1.72l8.025-1.446c.671 2 1.546 3.942 2.646 5.8l-7.705 2.446a2.129 2.129 0 0 0-1.388 2.679 2.135 2.135 0 0 0 2.68 1.388l8.984-2.854a31.472 31.472 0 0 0 5.479 5.2c6.046 4.509 13.572 7.567 21.326 9.226 2.946.634 10.563 2.101 18.551 2.101 7.988 0 16.347-1.467 19.297-2.101 7.75-1.658 15.28-4.717 21.326-9.226a31.073 31.073 0 0 0 6.013-5.892l11.164 3.546a2.138 2.138 0 0 0 2.679-1.388 2.135 2.135 0 0 0-1.388-2.679l-10.013-3.18a30.967 30.967 0 0 0 2.384-5.534l10.592 1.913a2.132 2.132 0 0 0 2.479-1.72 2.136 2.136 0 0 0-1.719-2.478z" fill="#f79329"/></g><path d="M62.299 95.121c10.026-1.768 16.758 2.999 17.039 3.202a2.342 2.342 0 0 1-2.744 3.795c-.211-.149-5.482-3.795-13.478-2.385-7.999 1.41-11.706 6.64-11.86 6.861a2.347 2.347 0 0 1-3.252.603 2.336 2.336 0 0 1-.618-3.24c.195-.287 4.891-7.068 14.913-8.836z" fill="#2f2f2f"/><g fill="#2f2f2f"><path d="M42.99 69.862c.939.076 1.724.816 1.807 1.755l.002.017c.502 5.741-2.989 10.733-7.778 11.152-4.794.419-9.103-3.891-9.605-9.631-.188-2.154.187-4.198.978-5.937.488-1.072 1.817-1.439 2.838-.852 3.31 1.902 7.349 3.14 11.758 3.496z"/><path d="M81.374 69.862c-.939.076-1.724.816-1.808 1.755l-.002.017c-.502 5.741 2.989 10.733 7.778 11.152 4.794.419 9.103-3.891 9.605-9.631.188-2.154-.187-4.198-.978-5.937-.488-1.072-1.817-1.439-2.838-.852-3.309 1.902-7.348 3.14-11.757 3.496z"/></g></svg>