<svg id="图层_1" xmlns="http://www.w3.org/2000/svg" xmlns:xlink="http://www.w3.org/1999/xlink" viewBox="0 0 128 128"><g><g><path d="M64.105 9.644C1.794 9.644.315 79.497.315 93.326c0 13.826 28.564 25.031 63.79 25.031 35.235 0 63.79-11.205 63.79-25.031 0-13.83-1.47-83.682-63.79-83.682z" fill="#fcc21b"/></g></g><g><g><path d="M34.981 46.767c.04-.969.208-1.855.434-2.723a35.95 35.95 0 0 0 5.904-1.111c3.17-.846 5.511-2.322 7.349-3.933 2.007 1.891 3.262 4.836 3.159 8.152-.171 5.569-4.062 10.014-8.716 9.911-4.659-.108-8.291-4.732-8.13-10.296z" fill="#2f2f2f"/></g><g><path d="M92.827 46.767c-.04-.969-.208-1.855-.434-2.723a35.95 35.95 0 0 1-5.904-1.111c-3.17-.846-5.511-2.322-7.349-3.933-2.007 1.891-3.262 4.836-3.159 8.152.172 5.569 4.062 10.014 8.716 9.911 4.659-.108 8.291-4.732 8.13-10.296z" fill="#2f2f2f"/></g></g><g><path d="M92.04 110.367a242.91 242.91 0 0 1-56.079 0C30.448 109.73 26 104.519 26 99V74c0-5.526 4.448-9.27 9.96-8.633a242.91 242.91 0 0 0 56.079 0C97.553 64.73 102 68.474 102 74v25c0 5.519-4.448 10.73-9.96 11.367z" fill="#fff"/></g><g><defs><path id="SVGID_1_" d="M64.105 9.644C1.795 9.644.315 79.497.315 93.326c0 13.826 28.564 25.031 63.79 25.031 35.235 0 63.79-11.205 63.79-25.031 0-13.83-1.47-83.682-63.79-83.682z"/></defs><clipPath id="SVGID_2_"><use xlink:href="#SVGID_1_" overflow="visible"/></clipPath><g clip-path="url(#SVGID_2_)"><path d="M97.203 80.097a3 3 0 0 1-.489-5.959c.18-.03 18.186-3.127 32.399-12.721a3 3 0 0 1 3.357 4.973c-15.325 10.344-33.984 13.535-34.771 13.666a2.99 2.99 0 0 1-.496.041z" fill="#fff"/></g><g clip-path="url(#SVGID_2_)"><path d="M97.204 99.167a3 3 0 0 1-.158-5.996c.183-.01 18.439-1.046 32.691-6.396a3 3 0 1 1 2.109 5.617c-15.134 5.681-33.696 6.729-34.479 6.771a2.98 2.98 0 0 1-.163.004z" fill="#fff"/></g><g clip-path="url(#SVGID_2_)"><path d="M31.006 80.097a3 3 0 0 1-.496-.041c-.786-.131-19.447-3.323-34.77-13.666a3 3 0 1 1 3.357-4.973c14.252 9.62 32.218 12.691 32.398 12.721a2.999 2.999 0 0 1-.489 5.959z" fill="#fff"/></g><g clip-path="url(#SVGID_2_)"><path d="M31.005 99.167a2.98 2.98 0 0 1-.163-.004c-.783-.042-19.346-1.091-34.479-6.771a3 3 0 0 1-1.754-3.863 2.999 2.999 0 0 1 3.863-1.754c14.277 5.359 32.508 6.387 32.69 6.396a3 3 0 0 1-.157 5.996z" fill="#fff"/></g></g></svg>