<svg id="图层_1" xmlns="http://www.w3.org/2000/svg" viewBox="0 0 128 128"><g><g><g><g><path d="M64.002 9.561C1.592 9.561.121 79.523.121 93.359c0 13.855 28.591 25.079 63.881 25.079 35.283 0 63.876-11.224 63.876-25.079.001-13.836-1.475-83.798-63.876-83.798z" fill="#fcc21b"/></g></g></g></g><g fill="#2f2f2f"><path d="M42.247 63.031c-6.212.06-11.311-5.907-11.379-13.321-.066-7.442 4.921-13.498 11.127-13.558 6.209-.055 11.313 5.909 11.382 13.35.066 7.417-4.92 13.471-11.13 13.529z"/><path d="M86.324 59.186c4.431-.007 8.023-4.312 8.009-9.604-.012-5.312-3.621-9.595-8.052-9.585-4.442.009-8.04 4.312-8.031 9.623.017 5.296 3.634 9.577 8.074 9.566z"/></g><path d="M83.84 67.047c-14.401-.755-20.237 7.919-31.805 7.919-6.42 0-10.408-2.389-17.838-.555-5.706 1.409-7.864 7.018-7.864 10.101s2.158 8.692 7.864 10.101c7.43 1.835 11.418-.555 17.838-.555 11.568 0 17.404 8.675 31.805 7.919 10.245-.537 17.868-7.738 17.826-17.466.042-9.727-7.581-16.927-17.826-17.464z" fill="#ed6c30"/></svg>