<svg id="レイヤー_1" xmlns="http://www.w3.org/2000/svg" viewBox="0 0 128 128"><g><path d="M107.834 75.052c0 10.459-19.58 18.934-43.736 18.934-24.152 0-43.736-8.475-43.736-18.934 0-10.455 19.585-18.936 43.736-18.936 24.155 0 43.736 8.481 43.736 18.936z" fill="#d65a8c"/><path fill="#2f2f2f" d="M36.688 92.37h58.737v19.201H36.688z"/><path d="M125.089 94.345l-9.955-1.797c.433-1.684.737-3.404.938-5.141l9.146-1.363a2.13 2.13 0 0 0 1.796-2.426c-.171-1.162-1.271-1.959-2.421-1.791l-8.226 1.221a60.248 60.248 0 0 0-.117-5.129c-.25-3.717-1.079-7.469-2.409-11.109 2.942-8.309 12.13-36.369 5.134-43.869-5.338-5.719-24.064 6.533-30.235 11.062a535.438 535.438 0 0 1-5.792 4.188c-6.159-1.863-12.838-2.834-19.456-2.824-6.733-.01-13.521 1-19.768 2.924a494.073 494.073 0 0 1-6.938-4.146c-6.538-3.975-26.252-14.57-31.073-8.412-5.721 7.309 3.2 30.219 7.655 40.473-1.462 3.83-2.367 7.789-2.633 11.715a56.69 56.69 0 0 0-.121 4.975L3.41 81.827a2.144 2.144 0 0 0-2.425 1.791 2.138 2.138 0 0 0 1.8 2.426l8.104 1.209a39.1 39.1 0 0 0 1 5.475l-8.976 1.617a2.131 2.131 0 0 0-1.721 2.478 2.136 2.136 0 0 0 2.479 1.721l9.58-1.725a29.435 29.435 0 0 0 2.958 5.484l-9.571 3.041a2.134 2.134 0 1 0 1.292 4.066l11.151-3.541a31.881 31.881 0 0 0 4.163 3.717c6.046 4.514 13.572 7.566 21.327 9.227 2.946.633 10.563 2.1 18.551 2.1 7.988 0 16.347-1.467 19.297-2.1 7.75-1.66 15.28-4.713 21.327-9.227a31.722 31.722 0 0 0 4.396-3.979c.021.008.038.027.058.033l11.872 3.77a2.136 2.136 0 0 0 2.68-1.386 2.14 2.14 0 0 0-1.388-2.68l-10.409-3.309a29.533 29.533 0 0 0 2.842-5.393l10.534 1.9a2.14 2.14 0 0 0 2.479-1.721 2.131 2.131 0 0 0-1.721-2.476zM27.387 75.173c-.746-3.775 1.713-7.447 5.5-8.201 3.733-.738 7.338 1.646 8.167 5.338a6.997 6.997 0 0 1 5.521-8.051c3.783-.75 7.471 1.717 8.213 5.5 1.796 9.059-10.384 19.481-10.384 19.481s-15.225-5.005-17.017-14.067zm58.862 23.639c-.717 3.059-4.092 9.018-11.747 9.688-.629.055-1.229.08-1.809.08-4.438 0-7.392-1.51-9.201-2.875-1.808 1.365-4.767 2.875-9.201 2.875-.579 0-1.183-.025-1.808-.08-7.655-.67-11.034-6.629-11.747-9.688a2.666 2.666 0 0 1 5.187-1.234c.138.539 1.471 5.121 7.026 5.609 5.946.529 8.263-2.537 8.359-2.666.062-.092.158-.135.229-.213.146-.162.271-.342.462-.471a2.672 2.672 0 0 1 3.7.721c.071.092 2.375 3.158 8.334 2.629 5.567-.492 6.892-5.092 7.025-5.617.363-1.416 1.8-2.291 3.221-1.941a2.65 2.65 0 0 1 1.97 3.183zm13.363-23.639C97.82 84.235 82.59 89.239 82.59 89.239S70.41 78.817 72.206 69.758a6.991 6.991 0 0 1 8.213-5.5 6.997 6.997 0 0 1 5.521 8.051c.825-3.691 4.438-6.076 8.168-5.338 3.788.755 6.246 4.426 5.504 8.202z" fill="#f79329"/></g></svg>