<svg id="レイヤー_1" xmlns="http://www.w3.org/2000/svg" viewBox="0 0 128 128"><g><path d="M107.837 81.878c0 15.9-19.343 28.801-43.203 28.801-23.859 0-43.202-12.9-43.202-28.801 0-15.91 19.343-28.803 43.202-28.803 23.86 0 43.203 12.893 43.203 28.803z" fill="#2f2f2f"/><path d="M125.084 92.173l-10.301-1.857a42.04 42.04 0 0 0 .629-4.98l9.81-1.457a2.14 2.14 0 0 0 1.796-2.426c-.175-1.166-1.255-1.951-2.426-1.801l-9.071 1.352a59.027 59.027 0 0 0-.121-3.084c-.521-7.775-3.546-15.693-8.467-22.461-.688-10.658-3.237-36.41-11.926-40.365-6.809-3.1-18.647 13.685-23.131 20.873a70.575 70.575 0 0 0-18.034-.041C49.35 28.683 37.62 11.972 30.823 15.04c-8.567 3.871-11.255 28.906-12.029 39.844-5.172 6.893-8.367 15.033-8.909 23.035a63.234 63.234 0 0 0-.117 2.684l-6.358-.951c-1.158-.15-2.25.635-2.425 1.801a2.134 2.134 0 0 0 1.796 2.426l7.062 1.049c.117 1.976.354 3.943.746 5.863l-7.676 1.383a2.14 2.14 0 0 0-1.721 2.48 2.137 2.137 0 0 0 2.48 1.721l8.025-1.445a30.23 30.23 0 0 0 2.646 5.799l-7.705 2.447a2.13 2.13 0 0 0-1.388 2.68 2.132 2.132 0 0 0 2.679 1.386l8.983-2.854a31.466 31.466 0 0 0 5.479 5.199c6.047 4.51 13.572 7.568 21.327 9.227 2.945.633 10.562 2.1 18.551 2.1 7.988 0 16.347-1.467 19.297-2.1 7.751-1.658 15.28-4.717 21.326-9.227a31.083 31.083 0 0 0 6.014-5.893l11.163 3.547a2.136 2.136 0 0 0 2.679-1.386 2.136 2.136 0 0 0-1.388-2.68l-10.013-3.18a30.989 30.989 0 0 0 2.384-5.533l10.592 1.912a2.132 2.132 0 0 0 2.48-1.721 2.137 2.137 0 0 0-1.719-2.48zM36.94 82.769c-5.483 0-9.942-4.209-9.942-9.408 0-1.184.255-2.301.676-3.342l17.718 8.246c-1.751 2.695-4.868 4.504-8.452 4.504zm55.179 19.127a2.67 2.67 0 0 1-3.375 1.679c-2.367-.797-4.188-1.871-5.601-3.029-6.842 4.312-13.376 5.707-18.898 5.707-9.117 0-15.467-3.717-15.893-3.975a2.664 2.664 0 0 1-.912-3.658 2.67 2.67 0 0 1 3.65-.918c.562.334 13.555 7.756 28.598-1.316-1.046-1.924-1.271-3.449-1.292-3.588a2.674 2.674 0 0 1 2.296-2.996c1.45-.178 2.779.818 2.988 2.26.041.246.846 4.471 6.758 6.455a2.669 2.669 0 0 1 1.681 3.379zm-3.775-19.127c-4.017 0-7.463-2.266-9.034-5.518l17.785-8.275c.737 1.312 1.195 2.793 1.195 4.385 0 5.199-4.458 9.408-9.946 9.408z" fill="#f79329"/></g></svg>