<svg id="图层_1" xmlns="http://www.w3.org/2000/svg" viewBox="0 0 128 128"><g><g><g><path d="M64.224 9.617C1.814 9.617.343 79.579.343 93.415c0 13.855 28.591 25.079 63.881 25.079 35.283 0 63.876-11.224 63.876-25.079.001-13.836-1.475-83.798-63.876-83.798z" fill="#fcc21b"/></g></g></g><path d="M85.145 71.433c-5.395-4.594-13.77-7.549-20.923-7.549s-15.528 2.954-20.923 7.549c-6.632 5.648-13.203 15.476-11.201 22.951.467 1.744 1.341 3.57 2.401 4.92 1.339 1.706 3.593 3.224 5.495 3.831 3.792 1.208 7.783.315 11.341-1.446 3.586-1.776 6.457-4.389 12.888-4.389s9.302 2.613 12.888 4.389c3.558 1.762 7.548 2.654 11.341 1.446 1.902-.607 4.155-2.125 5.495-3.831 1.06-1.35 1.934-3.176 2.401-4.92 2-7.475-4.571-17.303-11.203-22.951z" fill="#ed6c30"/><g><path d="M82.445 43.483c-.424-2.801 1.842-4.984 4.55-5.479 2.708-.494 5.586 1.683 7.063 4.975 1.576 3.513.483 11.574-7.543 13.478-8.689 2.062-13.93-6.453-14.745-11.092-.837-4.766.762-13.369 10.546-17.039 10.091-3.785 17.414 3.417 20.197 8.237" fill="none" stroke="#2f2f2f" stroke-width="5" stroke-linecap="round" stroke-linejoin="round" stroke-miterlimit="10"/></g><g><path d="M41.259 39.074c1.546 2.375.386 5.3-1.875 6.871-2.261 1.571-5.781.78-8.489-1.607-2.888-2.546-5.229-10.337 1.289-15.392 7.057-5.472 15.352.11 18.014 3.996 2.734 3.992 4.839 12.486-2.55 19.876-7.62 7.622-17.267 4.095-21.795.86" fill="none" stroke="#2f2f2f" stroke-width="5" stroke-linecap="round" stroke-linejoin="round" stroke-miterlimit="10"/></g><g><g><g/></g></g><g/><g/></svg>