<svg id="图层_1" xmlns="http://www.w3.org/2000/svg" viewBox="0 0 128 128"><g><path d="M.21 93.325c0 13.826 28.555 25.031 63.79 25.031 35.226 0 63.79-11.205 63.79-25.031 0-13.829-1.479-83.682-63.79-83.682C1.68 9.644.21 79.496.21 93.325z" fill="#fcc21b"/></g><g fill="#d7598b"><path d="M102.137 41.984c-.332-.162-.685-.282-1.038-.41a16.188 16.188 0 0 0-1.257-.444c-.655-.205-1.313-.388-1.963-.593-.786-.251-1.581-.508-2.371-.766-1.511-.491-3.414-1.655-4.376.497-.204.445-.431 1.063-.402 1.539.041.791.585 1.137 1.27 1.419a32.746 32.746 0 0 0 2.87.981c.138.049.378.085.363.261-.014.127-.169.24-.274.318-.17.131-.353.254-.538.381l-.257.177c-.537.353-1.069.706-1.599 1.044a31.54 31.54 0 0 0-1.257.854c-.172.113-.343.226-.519.339-.574.367-1.054.769-1.58 1.186l-.202.177c-.486.438-.992.932-1.045 1.603-.067.858.597 1.263 1.359 1.624.272.127.547.233.837.318l.024.007c.935.395 1.976.663 2.982.988.794.25 1.582.508 2.372.762 1.513.494 3.416 1.652 4.376-.494.208-.451.438-1.066.403-1.546-.043-.784-.587-1.136-1.268-1.415a31.32 31.32 0 0 0-2.143-.759c-.162-.049-.317-.099-.48-.148-.106-.035-.318-.063-.389-.137-.191-.187.166-.35.285-.428.385-.233.77-.479 1.148-.727.395-.261.798-.511 1.171-.811.198-.128.399-.247.6-.381.424-.29.865-.551 1.263-.89 1.011-.847 3.39-1.849 2.591-3.508-.165-.347-.582-.835-.956-1.018z"/><path d="M115.471 27.206c-.349-.219-.72-.392-1.079-.572-.446-.216-.883-.431-1.334-.622-.688-.289-1.383-.565-2.076-.861-.825-.36-1.659-.734-2.491-1.101-1.606-.703-3.547-2.181-4.839.063-.269.463-.582 1.108-.611 1.634-.035.865.519 1.302 1.239 1.684.731.388 1.493.734 2.249 1.069.253.109.515.215.765.325.152.063.405.13.364.321-.018.141-.205.244-.318.315-.212.123-.427.239-.636.356-.106.056-.204.109-.31.162-.615.329-1.242.653-1.857.964-.494.253-.985.515-1.464.794a17.92 17.92 0 0 1-.6.31c-.664.339-1.239.727-1.861 1.122-.084.057-.161.113-.239.169-.579.42-1.185.911-1.32 1.631-.162.932.515 1.447 1.309 1.92.286.174.568.315.879.438l.024.017c.967.533 2.087.942 3.146 1.401.835.364 1.665.734 2.498 1.102 1.602.699 3.55 2.177 4.839-.06.271-.462.582-1.111.605-1.634.039-.868-.511-1.309-1.231-1.687a34.374 34.374 0 0 0-2.251-1.073l-.508-.212c-.114-.049-.333-.095-.406-.19-.187-.222.222-.367.36-.431.448-.214.889-.437 1.331-.67.459-.24.925-.47 1.368-.756.226-.116.467-.229.693-.353.501-.261 1.012-.505 1.486-.826 1.189-.812 3.893-1.651 3.208-3.543-.138-.394-.543-.966-.932-1.206z"/><path d="M127.867 6.665c-.216-.515-.791-1.249-1.321-1.543-.473-.268-.974-.476-1.475-.688a37.89 37.89 0 0 0-1.81-.741c-.935-.339-1.878-.657-2.807-1.006-1.128-.424-2.258-.865-3.395-1.292-2.173-.829-4.849-2.665-6.416.399-.324.636-.703 1.515-.699 2.213 0 1.154.763 1.702 1.747 2.16.999.469 2.03.875 3.067 1.267.346.13.693.258 1.035.381.202.074.544.149.512.402-.028.187-.262.339-.415.441-.269.18-.548.346-.823.516-.124.078-.258.155-.385.236-.805.473-1.609.949-2.407 1.404-.643.367-1.278.752-1.899 1.151-.251.148-.515.311-.777.455-.858.491-1.596 1.049-2.4 1.613-.102.078-.202.159-.302.24-.742.593-1.515 1.285-1.638 2.252-.17 1.25.776 1.888 1.863 2.471.381.205.773.374 1.187.522l.042.021c1.319.646 2.831 1.108 4.271 1.652 1.129.426 2.262.861 3.395 1.291 2.177.83 4.856 2.662 6.424-.399.324-.632.699-1.514.695-2.213 0-1.154-.759-1.701-1.743-2.16a48.26 48.26 0 0 0-3.067-1.271c-.234-.085-.455-.162-.687-.247-.16-.06-.449-.11-.555-.23-.262-.285.272-.501.452-.597a42.016 42.016 0 0 0 1.721-.981c.594-.349 1.2-.685 1.765-1.086.301-.173.604-.339.907-.516.639-.384 1.303-.741 1.91-1.196 1.532-1.159 5.065-2.447 4.028-4.921z"/></g><g fill="#2f2f2f"><path d="M96.16 59.816a2.73 2.73 0 0 1 3.729-.927 2.714 2.714 0 0 1 .955 3.709c-.184.312-4.599 7.624-14.374 7.624-9.779 0-14.197-7.312-14.386-7.624a2.733 2.733 0 0 1 .968-3.728 2.729 2.729 0 0 1 3.727.945c.135.223 3.116 4.955 9.692 4.955 6.58.001 9.555-4.747 9.689-4.954z"/><path d="M28.121 58.871a2.698 2.698 0 0 1 1.374-.379c.943 0 1.853.49 2.362 1.343.109.195 3.08 4.937 9.658 4.937 6.694 0 9.655-4.887 9.688-4.937a2.73 2.73 0 0 1 3.731-.964 2.723 2.723 0 0 1 .96 3.728c-.182.312-4.6 7.624-14.379 7.624-9.774 0-14.178-7.312-14.363-7.624a2.734 2.734 0 0 1 .969-3.728z"/></g><path d="M83.381 82.042c-3.49-2.749-10.615-6.463-19.159-6.463s-15.669 3.714-19.159 6.463c-4.43 3.49-8.216 8.54-6.685 13.106.667 1.991 2.506 3.812 6.065 4.327 3.159.458 14.53.546 19.78.546s16.62-.088 19.78-.546c3.558-.516 5.397-2.336 6.065-4.327 1.529-4.566-2.257-9.616-6.687-13.106z" fill="#ed6c30"/></svg>