<svg id="レイヤー_1" xmlns="http://www.w3.org/2000/svg" xmlns:xlink="http://www.w3.org/1999/xlink" viewBox="0 0 128 128"><g><g><path d="M33.196 91.716c-1.692 6.484-7.108 10.688-12.097 9.384-4.987-1.3-7.658-7.612-5.967-14.097 1.692-6.483 7.105-10.684 12.093-9.384 4.983 1.305 7.664 7.614 5.971 14.097z" fill="#fff"/><path d="M113.318 85.987c2.995 5.996 1.688 12.722-2.93 15.03-4.604 2.305-10.771-.688-13.767-6.684-2.996-5.992-1.693-12.722 2.921-15.026 4.612-2.304 10.78.688 13.776 6.68z" fill="#fff"/><path fill="#2f2f2f" d="M30.584 61.744H98.88v18.501H30.584z"/><path d="M125.086 80.124l-7.617-1.376c-.014-.237-.021-.475-.037-.708a38.328 38.328 0 0 0-.671-4.959l8.459-1.258a2.137 2.137 0 0 0 1.796-2.426c-.176-1.166-1.277-1.954-2.426-1.796l-8.904 1.325a45.806 45.806 0 0 0-5.279-11.259c1.04-10.018 3.054-37.173-5.093-42.645-6.496-4.358-21.96 11.821-26.935 17.63-1.15 1.342-2.2 2.547-3.158 3.65-3.479-.529-7.018-.825-10.547-.816-3.525-.009-7.063.287-10.547.816-.959-1.104-2.004-2.309-3.158-3.65-4.979-5.809-20.443-21.988-26.936-17.63-8.145 5.472-6.129 32.636-5.088 42.652a45.869 45.869 0 0 0-5.34 11.443L3.411 67.602c-1.155-.154-2.254.634-2.425 1.796a2.13 2.13 0 0 0 1.796 2.426l9.775 1.454a38.498 38.498 0 0 0-.642 4.763c-.009.154-.014.309-.024.463l-8.976 1.621a2.134 2.134 0 1 0 .754 4.201l8.121-1.467c.033 2.175.204 4.333.55 6.454l-5.704 1.812a2.138 2.138 0 0 0-1.39 2.68 2.142 2.142 0 0 0 2.682 1.387l5.325-1.692c1.725 6.093 5.142 11.705 11.171 16.206 6.051 4.513 13.568 7.571 21.331 9.229 2.941.629 10.562 2.096 18.547 2.096 7.988 0 16.347-1.467 19.297-2.096 7.751-1.658 15.28-4.717 21.327-9.229 5.9-4.4 9.288-9.872 11.051-15.813l4.092 1.3a2.132 2.132 0 0 0 2.678-1.387 2.13 2.13 0 0 0-1.387-2.68l-4.421-1.404c.371-2.175.566-4.388.608-6.621l6.774 1.226a2.132 2.132 0 0 0 2.485-1.722 2.131 2.131 0 0 0-1.72-2.481zm-95.011 3.934c-.254.574-.566 1.166-.75 1.774-.562 1.904-.808 4.667-1.483 7.13-.772 2.812-2.108 5.238-5.125 5.601-4.283.517-6.472-4.018-5.602-7.676.717-3.021 2.647-5.496 5.197-7.213 1.571-1.055 3.529-2.342 5.417-2.696.774-.138 1.925-.454 2.663-.033 1.037.604.017 2.354-.317 3.113zm2.283-7.776a2.125 2.125 0 0 1-.266-2.987c.188-.221 4.592-5.392 12.192-4.088 7.595 1.292 10.046 7.621 10.146 7.888a2.14 2.14 0 0 1-2.005 2.884 2.135 2.135 0 0 1-1.99-1.375c-.085-.213-1.777-4.321-6.868-5.192-5.117-.866-8.084 2.484-8.21 2.63a2.142 2.142 0 0 1-2.999.24zm61.605-.204c-.109-.129-3.05-3.517-8.185-2.667-5.124.842-6.829 4.976-6.899 5.15a2.153 2.153 0 0 1-1.992 1.351 2.13 2.13 0 0 1-1.991-2.888c.104-.267 2.591-6.575 10.2-7.825 7.609-1.229 11.979 3.945 12.163 4.167a2.147 2.147 0 0 1-.287 3.004c-.912.75-2.26.621-3.009-.292zm11.809 22.485c-3.017-.362-4.351-2.792-5.121-5.601-.68-2.467-.922-5.226-1.488-7.13-.179-.608-.495-1.204-.75-1.774-.334-.759-1.35-2.513-.312-3.113.733-.425 1.888-.104 2.659.033 1.888.354 3.846 1.638 5.417 2.696 2.55 1.717 4.479 4.192 5.203 7.213.863 3.658-1.324 8.193-5.608 7.676z" fill="#f79329"/></g><g><path d="M35.942 92.94c1.604 0 2.796 1.015 3.979 1.704 1.104.658 2.513 1.025 3.842 1.383 1.621.442 3.246.9 4.934 1.167.646.1 1.313.144 1.996.144 1.233 0 2.483-.142 3.643-.335 2.579-.434 4.458-1.575 6.624-2.608 1.102-.52 2.301-.902 3.618-.902.291 0 .592.019.899.061.988.133 2.013.524 2.904.842 1.305.467 2.512 1.142 3.78 1.691 1.807.79 3.925 1.127 6.104 1.127 3.428 0 7.003-.837 9.763-2.068 1.384-.615 3.375-1.729 4.584-1.729.8 0 1.258.494.962 1.954-.421 2.017-1.066 4.125-2.222 5.992-1.674 2.667-4.304 5.042-7.659 6.617-6.482 3.05-14.041 3.858-21.575 3.884h-.029c-11.479 0-22.936-4.775-26.652-13.118-.27-.592-.946-2.158-1.104-3.508-.142-1.192.13-2.226 1.421-2.292.063-.004.126-.006.188-.006m0-2.562c-.041 0-.271.007-.316.009-1.509.078-2.418.792-2.909 1.377-.8.948-1.107 2.217-.925 3.773.192 1.627.909 3.375 1.317 4.271 4.496 10.088 17.797 14.614 28.98 14.614 9.58-.034 16.78-1.344 22.697-4.128 3.692-1.735 6.713-4.352 8.734-7.573 1.158-1.866 1.991-4.096 2.558-6.829.326-1.575.101-2.842-.666-3.777-.662-.812-1.658-1.261-2.8-1.261-1.525 0-3.146.773-4.709 1.521-.325.156-.633.305-.918.43-2.591 1.158-5.854 1.848-8.72 1.848-1.955 0-3.714-.314-5.08-.914a31.52 31.52 0 0 1-1.329-.617c-.82-.394-1.671-.802-2.612-1.138l-.271-.096c-.887-.32-1.995-.717-3.154-.873a9.44 9.44 0 0 0-1.241-.083c-1.534 0-3.075.375-4.709 1.147-.441.209-.858.419-1.275.628-1.6.796-2.975 1.485-4.684 1.771-1.182.198-2.267.3-3.217.3-.583 0-1.121-.037-1.601-.112-1.425-.225-2.833-.61-4.316-1.015l-.342-.092c-1.267-.343-2.438-.658-3.2-1.112a15.158 15.158 0 0 1-.65-.404c-1.107-.702-2.616-1.665-4.642-1.665z" fill="#2f2f2f"/></g><g><defs><path id="SVGID_1_" d="M34.334 95.236c.157 1.35.834 2.916 1.104 3.508 3.722 8.351 15.193 13.126 26.682 13.118 7.534-.025 15.093-.834 21.575-3.884 3.355-1.575 5.985-3.95 7.659-6.617 1.155-1.867 1.801-3.976 2.222-5.992.746-3.658-3.246-1.25-5.546-.225-4.509 2.011-11.2 2.975-15.867.941-1.269-.55-2.476-1.225-3.78-1.691-.892-.317-1.916-.709-2.904-.842-1.675-.226-3.175.208-4.518.842-2.166 1.033-4.045 2.175-6.624 2.608-1.792.3-3.821.475-5.639.191-1.688-.267-3.312-.725-4.934-1.167-1.329-.358-2.737-.725-3.842-1.383-1.229-.717-2.467-1.784-4.167-1.7-1.291.067-1.563 1.101-1.421 2.293z"/></defs><use xlink:href="#SVGID_1_" overflow="visible" fill="#fff"/><clipPath id="SVGID_2_"><use xlink:href="#SVGID_1_" overflow="visible"/></clipPath><g clip-path="url(#SVGID_2_)" fill="#2f2f2f"><path d="M62.52 91.341h3.121v23.094H62.52z"/><g><path d="M51.186 91.341h3.121v23.094h-3.121z"/><path d="M39.852 91.341h3.116v23.094h-3.116z"/></g><g><path d="M84.95 91.341h3.12v23.094h-3.12z"/><path d="M73.61 91.341h3.127v23.094H73.61z"/></g></g></g></g></svg>