<svg id="レイヤー_1" xmlns="http://www.w3.org/2000/svg" viewBox="0 0 128 128"><g><path d="M106.226 78.114c0 17.905-19.339 32.415-43.203 32.415-23.86 0-43.203-14.51-43.203-32.415S39.163 45.7 63.023 45.7c23.864 0 43.203 14.509 43.203 32.414z" fill="#2f2f2f"/><path d="M125.089 79.152l-9.043-1.626a38.81 38.81 0 0 0-.767-5.191l9.938-1.483a2.128 2.128 0 0 0 1.796-2.426c-.17-1.158-1.25-1.949-2.425-1.791l-10.442 1.55a45.689 45.689 0 0 0-5.092-10.643c1.046-10.025 3.055-37.177-5.092-42.644C97.47 10.54 82.01 26.724 77.027 32.533c-1.15 1.342-2.196 2.542-3.159 3.65a69.771 69.771 0 0 0-10.542-.825c-3.53 0-7.067.292-10.542.825a542.902 542.902 0 0 1-3.163-3.65c-4.979-5.809-20.439-21.993-26.935-17.635-8.147 5.475-6.134 32.645-5.088 42.653a45.855 45.855 0 0 0-5.03 10.45l-9.159-1.366c-1.167-.158-2.25.633-2.425 1.791a2.128 2.128 0 0 0 1.796 2.426l8.642 1.292a38.25 38.25 0 0 0-.837 5.625l-7.671 1.384a2.136 2.136 0 0 0-1.721 2.483 2.14 2.14 0 0 0 2.479 1.717l6.763-1.217c.008 2.241.154 4.467.483 6.658L6.64 90.152a2.135 2.135 0 0 0-1.388 2.684 2.13 2.13 0 0 0 2.033 1.483c.212 0 .429-.024.646-.1l3.863-1.226c1.688 6.242 5.129 11.993 11.284 16.585 6.046 4.509 13.572 7.567 21.326 9.226 2.946.633 10.563 2.1 18.551 2.1s16.347-1.467 19.297-2.1c7.751-1.658 15.28-4.717 21.327-9.226 6.284-4.692 9.726-10.593 11.376-16.984l5.117 1.625c.212.075.429.1.646.1.904 0 1.742-.575 2.033-1.483a2.143 2.143 0 0 0-1.387-2.684l-5.58-1.767c.3-2.142.433-4.309.433-6.492l8.113 1.459a2.14 2.14 0 0 0 2.479-1.717 2.133 2.133 0 0 0-1.72-2.483zM31.708 61.009a2.134 2.134 0 0 1 3.688-2.149c.092.149 2.446 3.958 7.642 3.958 5.279 0 7.617-3.917 7.642-3.958a2.134 2.134 0 0 1 3.688 2.149c-.146.25-3.625 6.075-11.33 6.075-7.709 0-11.184-5.825-11.33-6.075zm26.448 27.318c-.425 1.101-1.663 1.634-2.758 1.226-2.967-1.15-4.309-.842-4.842-.55-.171.091-.691.366-.938 1.45-.138.591.408 2.291 2.913 3.483a2.146 2.146 0 0 1 1.159 2.399 2.126 2.126 0 0 1-2.08 1.659c-.012.008-.021 0-.021 0-3.175 0-4.563.858-4.709 1.258-.362.976-.15 1.551.038 1.9.696 1.283 2.884 2.425 6.004 3.142a2.125 2.125 0 0 1 1.604 2.551 2.129 2.129 0 0 1-2.075 1.658 2.33 2.33 0 0 1-.475-.05c-4.513-1.025-7.476-2.801-8.809-5.268-.892-1.649-.992-3.525-.288-5.417.554-1.491 1.854-2.616 3.746-3.292-1.175-1.7-1.5-3.524-1.167-4.975.442-1.95 1.508-3.426 3.088-4.268 2.096-1.116 4.917-1 8.384.334a2.133 2.133 0 0 1 1.226 2.76zm38.556-27.318c-.146.25-3.625 6.075-11.334 6.075-7.705 0-11.184-5.825-11.326-6.075a2.128 2.128 0 0 1 .771-2.917 2.131 2.131 0 0 1 2.908.759c.117.191 2.475 3.967 7.646 3.967 5.284 0 7.621-3.917 7.646-3.958a2.134 2.134 0 0 1 3.689 2.149z" fill="#f79329"/></g></svg>