<svg id="レイヤー_1" xmlns="http://www.w3.org/2000/svg" viewBox="0 0 128 128"><g><path fill="#2f2f2f" d="M28.664 64.896h76.514v19.201H28.664z"/><path fill="#2f2f2f" d="M41.432 95.156H86.99v19.201H41.432z"/><path d="M125.083 85.23l-7.846-1.418a57.725 57.725 0 0 0-.084-5.684l8.067-1.199a2.135 2.135 0 0 0 1.796-2.426c-.175-1.166-1.271-1.957-2.425-1.795l-7.963 1.188c-.992-5.658-3.229-11.271-6.518-16.348 1.046-10.022 3.055-37.172-5.092-42.645-6.492-4.357-21.951 11.826-26.936 17.635a492.951 492.951 0 0 1-3.158 3.65c-3.48-.529-7.017-.824-10.547-.82-3.524-.004-7.062.291-10.538.82a440.214 440.214 0 0 1-3.162-3.65c-4.979-5.809-20.439-21.992-26.935-17.635-8.147 5.473-6.134 32.641-5.088 42.652-3.309 5.109-5.55 10.76-6.533 16.451l-8.713-1.299c-1.171-.158-2.255.629-2.426 1.795a2.13 2.13 0 0 0 1.796 2.426l8.83 1.316a57.584 57.584 0 0 0-.083 5.43L2.913 85.23a2.134 2.134 0 1 0 .758 4.2l8.196-1.479c.271 2.109.705 4.18 1.33 6.197l-6.56 2.082a2.133 2.133 0 0 0 .642 4.168c.216 0 .433-.029.649-.1l6.801-2.164c1.975 4.25 4.979 8.154 9.4 11.451 6.051 4.514 13.576 7.572 21.331 9.23 2.945.629 10.563 2.096 18.547 2.096 7.992 0 16.347-1.467 19.301-2.096 7.746-1.658 15.276-4.717 21.326-9.23 4.347-3.242 7.326-7.07 9.301-11.238l6.134 1.951a2.14 2.14 0 0 0 2.679-1.388 2.14 2.14 0 0 0-1.388-2.68l-5.858-1.861a36.448 36.448 0 0 0 1.375-6.281l7.446 1.342a2.137 2.137 0 0 0 2.48-1.721 2.132 2.132 0 0 0-1.72-2.479zM32.507 75.191c0-4.582 3.3-8.295 7.367-8.295 4.062 0 7.362 3.713 7.362 8.295 0 4.584-3.3 8.297-7.362 8.297-4.067 0-7.367-3.713-7.367-8.297zM83.826 98.74c-.271 1.674-.695 3.416-1.458 4.963-1.101 2.211-2.825 4.178-5.034 5.486-4.258 2.525-9.226 3.197-14.176 3.209-7.546.018-15.093-3.941-17.543-10.867-.171-.483-.612-1.779-.716-2.904-.092-.984.079-1.838.929-1.896 1.121-.07 1.934.812 2.733 1.408.737.551 1.658.851 2.533 1.15 1.067.363 2.13.742 3.242.963 1.191.238 2.529.092 3.704-.158 1.696-.359 2.93-1.305 4.354-2.158.884-.533 1.871-.879 2.972-.701.649.113 1.32.434 1.904.701.854.383 1.658.945 2.483 1.396.725.395 1.504.537 2.346.562 1.88.053 3.784.244 5.608-.338.867-.275 1.692-.559 2.479-1 1.507-.851 4.136-2.845 3.64.184zm5.071-15.252c-4.066 0-7.367-3.713-7.367-8.297 0-4.582 3.301-8.295 7.367-8.295 4.062 0 7.363 3.713 7.363 8.295.001 4.584-3.3 8.297-7.363 8.297z" fill="#f79329"/></g></svg>