<svg id="レイヤー_1" xmlns="http://www.w3.org/2000/svg" viewBox="0 0 128 128"><g><ellipse cx="97.654" cy="94.347" rx="7.709" ry="12.367" fill="#fff"/><path transform="rotate(-4.755 63.161 75.282)" fill="#2f2f2f" d="M26.921 65.683h72.483v19.201H26.921z"/><path d="M125.089 92.239l-9.493-1.709c.338-1.725.554-3.483.671-5.259l8.951-1.333a2.128 2.128 0 0 0 1.796-2.425c-.171-1.159-1.25-1.942-2.425-1.792l-8.221 1.225c-.017-1-.05-2-.117-3-.25-3.717-1.079-7.467-2.408-11.109 2.941-8.309 12.13-36.369 5.133-43.869-5.338-5.717-24.064 6.534-30.235 11.067a556.228 556.228 0 0 1-5.792 4.184c-6.163-1.858-12.838-2.834-19.455-2.825-6.734-.009-13.522 1-19.768 2.925a519.605 519.605 0 0 1-6.938-4.142C30.25 30.201 10.536 19.6 5.715 25.759c-5.721 7.309 3.2 30.219 7.654 40.478-1.462 3.825-2.367 7.784-2.633 11.709-.067.95-.1 1.9-.121 2.842L3.41 79.721c-1.158-.15-2.25.633-2.425 1.792a2.134 2.134 0 0 0 1.796 2.425l7.921 1.184c.121 1.883.346 3.75.712 5.583l-8.5 1.534a2.135 2.135 0 0 0-1.721 2.483 2.137 2.137 0 0 0 2.479 1.717l8.838-1.592a30.43 30.43 0 0 0 2.575 5.708l-8.446 2.684a2.136 2.136 0 0 0-1.388 2.684 2.13 2.13 0 0 0 2.68 1.383l9.688-3.075a31.084 31.084 0 0 0 5.625 5.384c6.046 4.517 13.572 7.567 21.326 9.226 2.946.633 10.563 2.1 18.551 2.1 7.988 0 16.347-1.467 19.297-2.1 7.751-1.658 15.28-4.709 21.326-9.226a31.052 31.052 0 0 0 5.821-5.643l10.505 3.334a2.134 2.134 0 0 0 2.679-1.383 2.143 2.143 0 0 0-1.388-2.684l-9.309-2.958a30.465 30.465 0 0 0 2.471-5.608l9.805 1.767a2.14 2.14 0 0 0 2.479-1.717 2.13 2.13 0 0 0-1.718-2.484zM51.88 74.295c-.096.275-2.388 6.659-9.951 8.134a14.03 14.03 0 0 1-2.742.275c-5.909 0-9.379-3.875-9.542-4.059a2.14 2.14 0 0 1 .196-3.017 2.148 2.148 0 0 1 3.013.199c.117.125 3.146 3.409 8.255 2.417 5.1-1 6.679-5.184 6.746-5.367a2.138 2.138 0 0 1 2.721-1.283 2.126 2.126 0 0 1 1.304 2.701zm32.377 7.593c-7.55-1.525-9.809-7.926-9.901-8.192a2.135 2.135 0 0 1 4.034-1.392c.071.199 1.638 4.375 6.709 5.4 5.092 1.024 8.159-2.242 8.288-2.376a2.14 2.14 0 0 1 3.008-.149 2.12 2.12 0 0 1 .171 2.991c-.166.184-3.629 4.001-9.488 4.001-.887 0-1.829-.084-2.821-.283zm20.022 15.792c-.796 3.676-4.721 6.817-8.367 4.509-2.567-1.625-2.725-4.392-2.209-7.259.454-2.517 1.421-5.117 1.733-7.075.1-.625.067-1.3.088-1.925.025-.825-.138-2.851 1.058-2.942.842-.066 1.746.717 2.388 1.175 1.55 1.134 2.763 3.134 3.725 4.768 1.559 2.641 2.235 5.707 1.584 8.749z" fill="#f79329"/></g></svg>