<svg id="图层_1" xmlns="http://www.w3.org/2000/svg" xmlns:xlink="http://www.w3.org/1999/xlink" viewBox="0 0 128 128"><g><g><linearGradient id="SVGID_1_" gradientUnits="userSpaceOnUse" x1="64" y1="66.667" x2="64" y2="4.276"><stop offset="0" stop-color="#fcc21b"/><stop offset=".151" stop-color="#e5bf34"/><stop offset=".473" stop-color="#abb973"/><stop offset=".935" stop-color="#4fafd8"/><stop offset="1" stop-color="#42ade7"/></linearGradient><path d="M64 9.644C1.689 9.644.21 79.497.21 93.326c0 13.826 28.564 25.031 63.79 25.031 35.235 0 63.79-11.205 63.79-25.031 0-13.83-1.47-83.682-63.79-83.682z" fill="url(#SVGID_1_)"/></g><path d="M80.457 90.469c0 14.091-7.368 20.031-16.457 20.031s-16.457-5.94-16.457-20.031S54.911 59.472 64 59.472s16.457 16.906 16.457 30.997z" fill="#ed6c30"/><g><g><ellipse transform="rotate(6.35 85.986 45.314)" cx="85.95" cy="45.292" rx="15.5" ry="16.607" fill="#fff"/><path d="M92.633 45.255c-.231 3.304-3.136 5.818-6.493 5.619-3.358-.194-5.895-3.041-5.67-6.339.215-3.307 3.119-5.823 6.483-5.624 3.355.2 5.903 3.044 5.68 6.344" fill="#2f2f2f"/></g><g><ellipse transform="rotate(-4.313 42.443 45.283)" cx="42.462" cy="45.302" rx="15.5" ry="16.607" fill="#fff"/><path d="M49.022 44.029c.384 3.29-2.005 6.298-5.341 6.723-3.336.431-6.356-1.897-6.745-5.18-.4-3.29 1.987-6.299 5.33-6.727 3.334-.424 6.365 1.9 6.756 5.184" fill="#2f2f2f"/></g></g><g><path d="M64 9.644C1.689 9.644.21 79.497.21 93.326c0 13.826 28.564 25.031 63.79 25.031 35.235 0 63.79-11.205 63.79-25.031 0-13.83-1.47-83.682-63.79-83.682z" fill="none"/></g><g><defs><path id="SVGID_2_" d="M64 9.644C1.689 9.644.21 79.497.21 93.326c0 13.826 28.564 25.031 63.79 25.031 35.235 0 63.79-11.205 63.79-25.031 0-13.83-1.47-83.682-63.79-83.682z"/></defs><clipPath id="SVGID_3_"><use xlink:href="#SVGID_2_" overflow="visible"/></clipPath></g></g><g><g><path d="M29.079 121.23c4.688 1.332 10.125-.73 10.24-5.197l.66-14.766c.016-.242 1.083-16.033-7.085-24.458l-.12-.132c-5.753-6.764-8.267-11.553-10.854-19.978-.856-2.787-2.893-5.413-6.383-4.987-2.47.302-4.851 1.345-4.693 9.233.186 9.18 2.025 18.319 5.699 24.716 5.142 8.953 3.798 19.168 4.355 25.719.349 4.097 3.244 8.62 8.181 9.85z" fill="#e48c15"/></g><g><path d="M98.921 121.23c-4.688 1.332-10.125-.73-10.24-5.197l-.66-14.766c-.016-.242-1.083-16.033 7.085-24.458l.12-.132c5.753-6.764 8.267-11.553 10.854-19.978.856-2.787 2.893-5.413 6.383-4.987 2.47.302 4.851 1.345 4.693 9.233-.186 9.18-2.025 18.319-5.699 24.716-5.142 8.953-3.798 19.168-4.355 25.719-.349 4.097-3.244 8.62-8.181 9.85z" fill="#e48c15"/></g></g></svg>