<svg id="レイヤー_1" xmlns="http://www.w3.org/2000/svg" xmlns:xlink="http://www.w3.org/1999/xlink" viewBox="0 0 128 128"><g><g><g><path fill="#2f2f2f" d="M31.038 63.311h67.205v19.201H31.038z"/></g><g><path d="M75.441 79.637c.253.1.513.15.775.15.85 0 1.646-.517 1.986-1.35.071-.175 1.779-4.309 6.909-5.142 5.117-.842 8.067 2.542 8.175 2.675a2.123 2.123 0 0 0 3 .292 2.13 2.13 0 0 0 .301-3c-.183-.225-4.541-5.417-12.159-4.175-7.604 1.233-10.1 7.542-10.204 7.809a2.132 2.132 0 0 0 1.217 2.741z" fill="none"/><path d="M34.642 75.762c.13-.142 3.16-3.442 8.265-2.467 5.075.975 6.688 5.117 6.766 5.333a2.13 2.13 0 0 0 2.009 1.409c.234 0 .472-.034.705-.117a2.131 2.131 0 0 0 1.304-2.725c-.091-.267-2.416-6.642-9.983-8.092-7.571-1.434-12.08 3.625-12.277 3.842a2.14 2.14 0 0 0 .21 2.992c.877.783 2.218.691 3.001-.175z" fill="none"/><path d="M125.082 86.163l-8.263-1.484c.104-1.842.087-3.7 0-5.559l8.4-1.25a2.126 2.126 0 0 0 1.796-2.425c-.163-1.167-1.255-1.967-2.426-1.8l-8.18 1.217c-.892-5.976-3.204-11.943-6.672-17.301 1.039-10.018 3.051-37.186-5.095-42.653-6.498-4.358-21.96 11.826-26.936 17.634-1.15 1.342-2.2 2.542-3.159 3.65a69.805 69.805 0 0 0-10.55-.825 69.9 69.9 0 0 0-10.544.825c-.961-1.108-2.004-2.309-3.154-3.65-4.982-5.809-20.447-21.993-26.934-17.634-8.15 5.467-6.134 32.635-5.092 42.653-3.473 5.358-5.782 11.325-6.673 17.301l-8.184-1.217a2.156 2.156 0 0 0-2.434 1.8 2.142 2.142 0 0 0 1.8 2.425l8.405 1.25a53.97 53.97 0 0 0-.005 5.559L2.92 86.163a2.145 2.145 0 0 0-1.726 2.484 2.136 2.136 0 0 0 2.485 1.716l7.938-1.425c.325 2.1.809 4.167 1.498 6.175l-6.474 2.059c-1.12.35-1.738 1.55-1.392 2.675a2.156 2.156 0 0 0 2.038 1.492c.221 0 .433-.033.646-.1l6.846-2.175c1.978 3.892 4.876 7.467 8.972 10.526 6.042 4.509 13.576 7.567 21.331 9.226 2.946.633 10.567 2.1 18.551 2.1 7.987 0 16.348-1.467 19.297-2.1 7.751-1.658 15.28-4.717 21.323-9.226 4.108-3.059 7.004-6.634 8.979-10.534l6.842 2.184a2.128 2.128 0 0 0 2.673-1.392 2.12 2.12 0 0 0-1.378-2.675l-6.476-2.059a35.91 35.91 0 0 0 1.495-6.175l7.947 1.425c.121.025.251.034.384.034a2.112 2.112 0 0 0 2.087-1.75 2.139 2.139 0 0 0-1.724-2.485zm-50.857-9.268c.104-.267 2.6-6.575 10.204-7.809 7.618-1.242 11.977 3.95 12.159 4.175a2.13 2.13 0 0 1-.301 3 2.123 2.123 0 0 1-3-.292c-.107-.133-3.058-3.517-8.175-2.675-5.13.833-6.838 4.967-6.909 5.142a2.155 2.155 0 0 1-1.986 1.35c-.263 0-.522-.05-.775-.15a2.13 2.13 0 0 1-1.217-2.741zm-42.796-3.95c.197-.217 4.706-5.275 12.277-3.842 7.567 1.45 9.892 7.825 9.983 8.092a2.13 2.13 0 0 1-2.009 2.842 2.13 2.13 0 0 1-2.009-1.409c-.078-.217-1.691-4.358-6.766-5.333-5.104-.975-8.135 2.325-8.265 2.467a2.135 2.135 0 0 1-3.211-2.817z" fill="#f79329"/></g></g><g><defs><path id="SVGID_1_" d="M26.176 92.981c.2 1.35 1.059 2.917 1.403 3.509 4.764 8.351 19.448 13.126 34.148 13.117 9.626-.025 19.306-.833 27.594-3.883 4.301-1.575 7.663-3.95 9.801-6.617 1.483-1.867 2.309-3.975 2.842-5.992.963-3.658-4.142-1.25-7.093-.225-1.533.525-3.137.875-4.82 1.208-3.556.7-7.268.475-10.923.409-1.633-.034-3.146-.208-4.562-.675-1.613-.55-3.164-1.225-4.83-1.692-1.146-.316-2.458-.708-3.712-.841-2.154-.225-4.071.208-5.788.841-2.768 1.034-5.176 2.175-8.476 2.609-2.288.3-4.894.475-7.209.191-2.167-.267-4.242-.725-6.313-1.167-1.699-.358-3.5-.725-4.921-1.384-1.57-.716-3.158-1.783-5.329-1.7-1.65.067-1.996 1.101-1.812 2.292z"/></defs><use xlink:href="#SVGID_1_" overflow="visible" fill="#fff"/><clipPath id="SVGID_2_"><use xlink:href="#SVGID_1_" overflow="visible"/></clipPath><g clip-path="url(#SVGID_2_)" fill="#2f2f2f"><path d="M62.444 88.419h3.121v23.093h-3.121z"/><path d="M51.189 88.419h3.121v23.093h-3.121z"/><path d="M39.935 88.419h3.125v23.093h-3.125z"/><path d="M28.68 88.419h3.121v23.093H28.68z"/><path d="M96.214 88.419h3.116v23.093h-3.116z"/><path d="M84.954 88.419h3.121v23.093h-3.121z"/><path d="M73.699 88.419h3.121v23.093h-3.121z"/></g></g><g><path d="M28.226 90.686c2.05 0 3.579 1.015 5.092 1.704 1.421.659 3.222 1.025 4.921 1.384 2.071.441 4.146.9 6.313 1.167.825.1 1.684.144 2.55.144 1.575 0 3.184-.142 4.659-.336 3.3-.434 5.708-1.575 8.476-2.609 1.404-.517 2.941-.902 4.634-.902.375 0 .758.019 1.154.061 1.254.133 2.566.525 3.712.841 1.666.467 3.217 1.142 4.83 1.692 1.416.467 2.929.642 4.562.675 1.584.029 3.185.087 4.776.087 2.075 0 4.134-.1 6.146-.496 1.684-.333 3.287-.683 4.82-1.208 1.771-.617 4.317-1.729 5.867-1.729 1.025 0 1.609.492 1.226 1.954-.533 2.017-1.358 4.125-2.842 5.992-2.138 2.667-5.5 5.042-9.801 6.617-8.288 3.05-17.968 3.858-27.594 3.883h-.037c-14.688 0-29.352-4.775-34.111-13.117-.345-.592-1.203-2.159-1.403-3.509-.184-1.191.162-2.225 1.812-2.291.079-.004.162-.004.238-.004m0-2.56l-.333.006c-1.817.073-2.842.873-3.384 1.531-.55.669-1.15 1.856-.867 3.709.255 1.7 1.192 3.494 1.726 4.411 5.667 9.93 22.326 14.387 36.323 14.387 12.063-.031 21.105-1.315 28.515-4.042 4.6-1.686 8.374-4.251 10.917-7.42 1.5-1.886 2.575-4.152 3.317-6.938.399-1.513.215-2.775-.542-3.756-.496-.644-1.451-1.413-3.159-1.413-1.666 0-3.704.76-5.5 1.429-.425.161-.833.312-1.208.442-1.31.45-2.743.773-4.476 1.114-1.575.311-3.316.448-5.65.448-1.037 0-2.075-.025-3.117-.05l-1.612-.035c-1.562-.033-2.771-.206-3.809-.548-.546-.188-1.112-.4-1.681-.611-1.032-.39-2.103-.792-3.257-1.114l-.376-.102c-1.133-.319-2.425-.68-3.758-.821-.487-.05-.963-.075-1.425-.075-1.783 0-3.584.348-5.518 1.061-.55.206-1.075.41-1.601.614-2.124.83-3.957 1.548-6.325 1.858-1.583.208-3.041.313-4.325.313-.807 0-1.566-.042-2.241-.125-1.9-.233-3.726-.623-5.654-1.037l-.438-.092c-1.692-.356-3.267-.688-4.375-1.202-.287-.131-.562-.269-.842-.409-1.375-.684-3.079-1.533-5.325-1.533z" fill="#2f2f2f"/></g></g></svg>