<svg xmlns="http://www.w3.org/2000/svg" viewBox="0 0 128 128"><g id="图层_1"><path id="XMLID_89_" d="M113.046 95.899c-14.011-14.486-44.219-15.54-48.549-15.617v-.007l-.27.002-.27-.002v.007c-4.33.077-34.538 1.131-48.549 15.617-10.212 10.558-8.005 20.801-5.884 23.806 4.011 5.682 14.753 8.254 14.753 8.254H104.178s10.742-2.572 14.753-8.254c2.121-3.005 4.327-13.248-5.885-23.806z" fill="#00bfa5"/><path id="XMLID_90_" d="M84.274 99.189c-7.565-2.443-17.859-2.323-20.266-2.257-2.407-.066-12.701-.186-20.266 2.257-15.194 4.906-16.995 11.125-16.995 11.125L50.398 128H77.619l23.65-17.686s-1.801-6.219-16.995-11.125z" opacity=".2"/><path id="XMLID_611_" d="M63.957 90.911h-8.748v9.24c0 4.179 3.561 7.567 7.953 7.567h1.591c4.392 0 7.953-3.388 7.953-7.567v-9.24h-8.749z" fill="#e59900"/><g id="XMLID_375_"><g id="XMLID_382_" fill="#e59600"><path id="XMLID_384_" d="M94.862 67.97s5.635.976 5.635 7.043c0 5.353-4.11 7.466-8.22 7.466V67.97h2.585z"/><path id="XMLID_383_" d="M33.406 67.97s-5.635.976-5.635 7.043c0 5.353 4.11 7.466 8.22 7.466V67.97h-2.585z"/></g><path id="XMLID_381_" d="M64.134 28.232c-24.282 0-30.637 17.454-30.637 41.973 0 25.424 17.625 31.999 30.637 31.999 12.821 0 30.637-6.386 30.637-31.999 0-24.519-6.355-41.973-30.637-41.973z" fill="#fcc21b"/><path id="XMLID_380_" d="M54.046 77.881c0 2.73-1.827 4.944-4.091 4.944-2.261 0-4.1-2.213-4.1-4.944 0-2.737 1.839-4.951 4.1-4.951 2.263 0 4.091 2.214 4.091 4.951" fill="#444"/><path id="XMLID_379_" d="M74.217 77.881c0 2.73 1.83 4.944 4.099 4.944 2.259 0 4.097-2.213 4.097-4.944 0-2.737-1.838-4.951-4.097-4.951-2.269 0-4.099 2.214-4.099 4.951" fill="#444"/><path id="XMLID_374_" d="M68.417 88.975c-1.509.427-3.074.636-4.283.636s-2.774-.208-4.283-.636c-.645-.183-.899.428-.668.835.479.842 2.406 2.541 4.951 2.541 2.545 0 4.472-1.699 4.951-2.541.231-.407-.023-1.018-.668-.835z" fill="#e59600"/><path id="XMLID_371_" d="M64.865 24.777s-.473-.015-.679-.013c-.205-.002-.679.013-.679.013-26.204.505-36.03 19.16-36.03 30.092 0 10.623 1.936 15.539 1.936 15.539s.416-.433 1.187-1.032c.821-.638 1.729-.998 1.729-.998l1.323 8.875 8.732-12.463a.292.292 0 0 1 .297-.167l5.175.575c5.202.578 10.426.857 15.651.873 0 0 .452.005.679.006.226 0 .679-.006.679-.006 5.225-.016 10.45-.295 15.651-.873l5.175-.575a.292.292 0 0 1 .297.167l8.732 12.463 1.323-8.875s.908.36 1.729.998c.77.599 1.187 1.032 1.187 1.032s1.936-4.916 1.936-15.539c0-10.932-9.826-29.587-36.03-30.092z" fill="#6d4c41"/></g><g id="XMLID_94_" fill="none" stroke="#444" stroke-width="4" stroke-linecap="round" stroke-miterlimit="10"><path id="XMLID_29_" d="M52.564 18.988L49.861 8.897"/><path id="XMLID_26_" d="M37.686 26.423l-7.387-7.387"/><path id="XMLID_25_" d="M90.314 26.423l7.387-7.387"/><path id="XMLID_24_" d="M75.436 18.988l2.703-10.091"/></g><g id="XMLID_87_"><g id="XMLID_86_"><path id="XMLID_885_" d="M36.899 117.406l5.374.356c1.214 0 2.413.178 3.574.532 3.602 1.098 11.537 3.872 15.848 4.968a2.398 2.398 0 0 1-.602 4.718H33.761l3.138-10.574z" fill="#fcc21b"/></g><g id="XMLID_91_"><path id="XMLID_93_" d="M91.118 117.406l-5.374.356c-1.214 0-2.413.178-3.574.532-3.602 1.098-11.537 3.872-15.848 4.968a2.398 2.398 0 0 0 .602 4.718h27.333l-3.139-10.574z" fill="#fcc21b"/></g></g><g id="XMLID_16_" fill="#00bfa5"><path id="XMLID_88_" d="M27.236 106.22l11.591 7.763a1.926 1.926 0 0 1 .685 2.39L34.292 128H24.276l2.96-21.78z"/><path id="XMLID_23_" d="M100.781 106.22l-11.591 7.763a1.926 1.926 0 0 0-.685 2.39L93.725 128h10.453l-3.397-21.78z"/></g></g></svg>