<svg id="レイヤー_1" xmlns="http://www.w3.org/2000/svg" xmlns:xlink="http://www.w3.org/1999/xlink" viewBox="0 0 128 128"><g><path d="M63.795 9.472C1.274 9.472-.2 79.551-.2 93.417c0 13.88 28.651 25.111 63.995 25.111s63.991-11.231 63.991-25.111c.001-13.866-1.474-83.945-63.991-83.945z" fill="#fcc21b"/></g><path d="M75.643 94.754H51.649c-1.578 0-2.851-1.486-2.851-3.297 0-1.822 1.272-3.294 2.851-3.294h23.994c1.582 0 2.857 1.472 2.857 3.294 0 1.812-1.274 3.297-2.857 3.297z" fill="#2f2f2f"/><g id="FRBucK.tif"/><g id="_x31_kXVYg.tif"/><g><g><ellipse cx="87.388" cy="58.843" rx="16.612" ry="16.307" fill="#fff"/><g><defs><ellipse id="SVGID_1_" cx="87.388" cy="58.843" rx="16.612" ry="16.307"/></defs><clipPath id="SVGID_2_"><use xlink:href="#SVGID_1_" overflow="visible"/></clipPath><circle cx="83.455" cy="47.022" r="7.858" clip-path="url(#SVGID_2_)" fill="#2f2f2f"/></g></g><g><ellipse cx="40.612" cy="58.843" rx="16.612" ry="16.307" fill="#fff"/><g><defs><ellipse id="SVGID_3_" cx="40.612" cy="58.843" rx="16.612" ry="16.307"/></defs><clipPath id="SVGID_4_"><use xlink:href="#SVGID_3_" overflow="visible"/></clipPath><circle cx="36.679" cy="47.022" r="7.858" clip-path="url(#SVGID_4_)" fill="#2f2f2f"/></g></g></g><path fill="#fcc21b" d="M23.586 72h34.18v8.667h-34.18z"/><path fill="#fcc21b" d="M70.234 72h34.18v8.667h-34.18z"/></svg>