<svg id="レイヤー_1" xmlns="http://www.w3.org/2000/svg" viewBox="0 0 128 128"><g><path d="M26.447 43.166c-.489-.77-1.308-1.25-2.135-1.579-4.145-1.653-11.778 2.236-10.143 7.445.324 1.035 1.512 2.231 1.835 3.274.746 2.386 1.133 4 1.093 6.486-.032 1.736-.23 3.463-.226 5.199.005 1.662.022 3.396.652 4.947.144.356.243.801.485 1.106.171.222.378.356.508.626.319.67.302 1.528.238 2.257-.044.477-.198.944-.181 1.425.046 1.11.37 2.523 1.485 2.963 1.843.729 3.847.404 4.953-1.092 1.201-1.622 1.376-3.989 1.376-5.944 0-.976-.116-2-.324-2.936-.136-.595-.188-1.17-.404-1.766a18.823 18.823 0 0 1-.565-1.701c-.306-1.119-.769-2.197-.954-3.327-.179-1.096-.341-2.139-.346-3.269-.005-1.007.153-2.048.302-3.03.124-.845.449-1.563.675-2.377.125-.468.296-.932.431-1.395.12-.409.414-.731.611-1.101.183-.324.327-.653.54-.962 1.026-1.45 1.026-3.774.094-5.249z" fill="#2f2f2f"/><path d="M101.748 43.166c.486-.77 1.31-1.25 2.137-1.579 4.149-1.653 11.774 2.236 10.142 7.445-.319 1.035-1.506 2.231-1.835 3.274-.741 2.386-1.133 4-1.093 6.486.027 1.736.23 3.463.226 5.199-.004 1.662-.028 3.396-.652 4.947-.148.356-.248.801-.48 1.106-.176.222-.382.356-.513.626-.323.67-.306 1.528-.234 2.257.046.477.198.944.177 1.425-.051 1.11-.365 2.523-1.48 2.963-1.85.729-3.856.404-4.96-1.092-1.199-1.622-1.369-3.989-1.369-5.944 0-.976.107-2 .323-2.936.135-.595.179-1.17.404-1.766.207-.571.404-1.115.566-1.701.306-1.119.765-2.197.944-3.327.18-1.096.342-2.139.352-3.269.004-1.007-.154-2.048-.298-3.03-.131-.845-.454-1.563-.68-2.377-.129-.468-.292-.932-.431-1.395-.122-.409-.409-.731-.615-1.101-.18-.324-.324-.653-.539-.962-1.018-1.45-1.026-3.774-.092-5.249z" fill="#2f2f2f"/><g><path d="M105.157 58.007c-.652-11.739-6.232-23.818-14.883-31.331-6.993-6.075-16.85-9.173-26.497-9.149-9.657-.024-19.512 3.074-26.503 9.149-8.654 7.513-14.229 19.592-14.886 31.331-.621 11.146 1.24 22.376 9.814 30.126 4.734 4.291 10.642 7.203 16.725 8.777 2.314.603 8.289 1.995 14.553 1.995 6.268 0 12.822-1.393 15.134-1.995 6.087-1.574 11.985-4.486 16.731-8.777 8.571-7.75 10.437-18.981 9.812-30.126z" fill="#2f2f2f"/></g><g><path d="M118.761 71.185c-.157-.262-.261-.504-.404-.759a15.527 15.527 0 0 1-.927-2.069 14.072 14.072 0 0 1-.683-2.81c2.234-5.152 2.338-10.22.197-15.134-.8-1.834-3.723-7.818-7.723-7.818-1.012 0-2.102.388-3.23 1.157-1.599 1.087-1.554 2.625-.492 5.506.188.531.408 1.088.67 1.713.544 1.309 1.047 2.546 1.245 3.692.076.43.117.854.152 1.274.189 2.839-.576 5.532-1.313 8.143-.598 2.122-1.141 4.146-1.133 6.048.006.473.013.94.095 1.394.192 1.056.625 2.392 1.502 3.371.04.063.065.107.104.175a87.445 87.445 0 0 1 2.342 4.318c.847 1.65 1.785 3.591 2.802 5.894 1.51 3.443 1.393 7.418-1.857 7.009-3.461-.436-6.595-4.168-8.6-6.492a20.577 20.577 0 0 0-2.114-2.095c1.642-2.32 2.882-4.834 3.789-7.477a8.17 8.17 0 0 1-.461-.837 11.696 11.696 0 0 1-1.079-3.22c-.041-.211-.054-.421-.081-.634-.353-2.894.427-5.713 1.195-8.438.773-2.737 1.501-5.323 1.079-7.822-.009-.055-.045-.135-.063-.189-.135-.666-.467-1.52-.855-2.451a7.148 7.148 0 0 0-.106-.27c-1.079-2.603-2.566-6.228-1.062-9.198-2.598-6.366-6.491-12.179-11.44-16.478-7.002-6.081-16.869-9.186-26.53-9.162-9.666-.024-19.53 3.081-26.534 9.162-4.819 4.177-8.632 9.793-11.226 15.957 1.974 3.011.337 6.927-.814 9.701-.184.44-.351.858-.513 1.267-.212.555-.378 1.055-.469 1.472-.017.055-.044.135-.053.185-.422 2.504.302 5.09 1.075 7.822.827 2.928 1.681 5.953 1.119 9.072-.019.099-.054.182-.072.273a11.76 11.76 0 0 1-.968 2.855 9.447 9.447 0 0 1-.803 1.345c.926 2.586 2.179 5.041 3.82 7.306a20.279 20.279 0 0 0-1.843 1.853c-2.01 2.324-5.143 6.057-8.605 6.492-3.246.409-3.363-3.565-1.853-7.009a108.9 108.9 0 0 1 2.797-5.894 80.879 80.879 0 0 1 2.45-4.497c.872-.98 1.307-2.312 1.496-3.367.082-.433.082-.881.091-1.325 0-.036.009-.072.009-.108 0-1.065-.175-2.172-.44-3.311a48.753 48.753 0 0 0-.7-2.697c-.756-2.683-1.529-5.449-1.281-8.365.026-.353.058-.702.121-1.052.197-1.146.718-2.398 1.268-3.715.265-.643.485-1.21.684-1.749 1.061-2.877 1.11-4.396-.486-5.423-.958-.615-1.879-.912-2.823-.912-4.042 0-7.499 5.531-8.462 7.222-2.436 4.275-1.56 10.052.54 15.109-.09.855-.288 1.848-.648 2.932a14.046 14.046 0 0 1-.946 2.164c-.15.295-.283.588-.465.894C4.203 78.756-2.949 92.282 2 102.38c2.981 6.089 10.205 9.298 16.396 7.675 8.002-2.09 17.398-12.236 21.197-16.662a42.703 42.703 0 0 0 9.32 3.62c2.315.599 8.299 1.996 14.566 1.996 6.276 0 12.84-1.397 15.16-1.996a42.479 42.479 0 0 0 9.854-3.921c3.521 4.25 12.93 14.824 21.103 16.963 6.196 1.623 13.421-1.586 16.401-7.675 4.957-10.098-2.201-23.624-7.236-31.195z" fill="#855c52"/><path d="M63.777 91.29c-6.042.122-12.508-.908-17.786-3.602-5.341-2.724-10.672-7.588-10.285-14.794.139-2.635 1.42-5.094 1.743-7.72.343-2.765.311-6.366-.422-9.055-.927-3.454-1.375-6.914-.1-10.328 1.368-3.658 3.794-6.798 7.243-8.047 1.228-.445 2.576-.409 3.849-.517 5.472-.437 10.301 5.477 15.758 5.296 5.449.181 10.282-5.732 15.754-5.296 1.266.107 2.625.071 3.848.517 3.452 1.249 5.881 4.389 7.243 8.047 1.272 3.414.832 6.874-.104 10.328-.729 2.688-.765 6.29-.423 9.055.333 2.626 1.608 5.085 1.753 7.72.387 7.206-4.944 12.07-10.295 14.795-5.277 2.693-11.742 3.723-17.776 3.601z" fill="#fcc21b"/></g><path d="M50.965 49.686c-2.774 0-5.031 2.714-5.031 6.069 0 3.354 2.257 6.073 5.031 6.073 2.772 0 5.025-2.719 5.025-6.073 0-3.356-2.253-6.069-5.025-6.069z" fill="#2f2f2f"/><path d="M76.596 49.686c-2.784 0-5.031 2.714-5.031 6.069 0 3.354 2.247 6.073 5.031 6.073 2.772 0 5.021-2.719 5.021-6.073 0-3.356-2.249-6.069-5.021-6.069z" fill="#2f2f2f"/><path d="M64.47 70.561c-1.214-.289-2.302.242-3.139 1.108-2.742 2.866-4.271 10.396.297 12.387 1.898.828 4.784.721 6.133-1.012 1.636-2.107 1.23-6.01.107-8.821-.701-1.749-1.407-3.182-3.398-3.662z" fill="#ed6c30"/><path d="M61.744 67.052a4.886 4.886 0 0 0 2.609.424c1.663-.186 2.251-.726 2.832-1.385.938-1.062 1.275-2.535-.09-3.332-1.12-.657-3.534-.697-5.108-.388-3.803.753-2.535 3.602-.243 4.681z" fill="#2f2f2f"/></g></svg>