<svg xmlns="http://www.w3.org/2000/svg" viewBox="0 0 128 128"><g id="图层_1"><path id="XMLID_2291_" d="M28.511 113.532C22 91.192 22 45.39 22 45.39l84-.335s0 41.491-4.884 68.189l-72.605.288z" fill="#6d4c41"/><g id="XMLID_2287_"><ellipse id="XMLID_2289_" cx="64" cy="46.114" rx="42" ry="39.499" fill="#6d4c41"/></g><path id="XMLID_1813_" d="M20.429 118.092v9.887h87.143v-9.887c0-15.168-21.386-22.868-43.24-22.842-21.718.026-43.903 6.779-43.903 22.842z" fill="#651fff"/><path id="XMLID_3053_" d="M63.947 90.246h-9.082v9.593c0 4.338 3.697 7.856 8.257 7.856h1.651c4.56 0 8.257-3.517 8.257-7.856v-9.593h-9.083z" fill="#e59900"/><path id="XMLID_3052_" d="M63.893 13.574c-24.347 0-30.719 18.874-30.719 45.388S52.06 93.565 63.893 93.565c11.832 0 30.719-8.089 30.719-34.603 0-26.514-6.371-45.388-30.719-45.388z" fill="#fcc21b"/><g id="XMLID_3123_" fill="#444"><path id="XMLID_3122_" d="M53.501 60.728c0 2.841-1.902 5.145-4.258 5.145-2.353 0-4.267-2.304-4.267-5.145 0-2.849 1.914-5.153 4.267-5.153 2.356 0 4.258 2.304 4.258 5.153"/><path id="XMLID_3121_" d="M74.494 60.728c0 2.841 1.904 5.145 4.267 5.145 2.351 0 4.264-2.304 4.264-5.145 0-2.849-1.913-5.153-4.264-5.153-2.363 0-4.267 2.304-4.267 5.153"/></g><path id="XMLID_1054_" d="M68.404 70.268c-1.57.445-3.199.662-4.458.662s-2.887-.217-4.458-.662c-.672-.19-.935.446-.695.869.498.876 2.504 2.645 5.152 2.645 2.649 0 4.654-1.768 5.152-2.645.242-.423-.021-1.059-.693-.869z" fill="#e59600"/><path id="XMLID_3051_" d="M73.073 34.427c-3.234 3.107-19.29 17.578-41.418 21.355V26.115S41.206 7.163 64.128 7.163s32.473 19.43 32.473 19.43v29.19S81.582 50.018 74.039 34.61a.605.605 0 0 0-.966-.183z" fill="#6d4c41"/><path id="XMLID_3049_" d="M68.348 82.03c0 2.181-1.947 2.637-4.348 2.637s-4.348-.503-4.348-2.637c0-2.244 1.947-3.633 4.348-3.633s4.348 1.342 4.348 3.633z" fill="#513f35"/><path id="XMLID_3156_" d="M97.059 68.725l14.163-8.208s5.032-3.655 6.41-5.08c1.248-1.291 3.75-4.751 5.441-7.215.711-1.035 2.769-.298 2.769.919v.899c0 2.773-.694 3.186-1.856 5.397l-7.224 8.363-.28 1.515a7.05 7.05 0 0 1-3.966 5.166l-10.17 4.744-5.287-6.5z" fill="#fcc21b"/><path id="XMLID_3154_" d="M31.238 68.725l-14.163-8.208s-5.032-3.655-6.41-5.08c-1.248-1.291-3.692-4.751-5.383-7.215-.711-1.035-2.399-.298-2.712.919v.899c.15 2.773.637 3.186 1.799 5.397l7.196 8.363.266 1.515a7.042 7.042 0 0 0 3.959 5.166l10.167 4.744 5.281-6.5z" fill="#fcc21b"/><path id="XMLID_369_" d="M104.825 120.279l-8.244-18.173-69.494-37.285a1.799 1.799 0 0 0-2.302.729l-6.492 11.39a1.798 1.798 0 0 0 .578 2.417l64.095 42.465 21.859-1.543z" fill="#651fff"/><path id="XMLID_1056_" d="M23.048 120.279l9.313-18.621 68.425-36.837a1.799 1.799 0 0 1 2.302.729l6.492 11.389c.485.831.23 1.896-.578 2.417l-64.095 42.465-21.859-1.542z" fill="#651fff"/><path id="XMLID_3294_" opacity=".54" d="M92.284 128l-24.643-16.233 20.054-14.429-3.223-1.729-49.255 32.37h9.894l19.223-13.831L84.055 128z"/><path id="XMLID_3150_" opacity=".54" d="M64 84.667l-20.511 11-3.173-2.102 20.687-10.548z"/></g></svg>