<svg xmlns="http://www.w3.org/2000/svg" xmlns:xlink="http://www.w3.org/1999/xlink" viewBox="0 0 128 128"><g id="Layer_3"><path d="M-96.528 14.276C-99.761 9.549-107 11.457-107 20" fill="#fcc21b" stroke="#e39e49" stroke-width="4" stroke-linecap="round" stroke-miterlimit="10"/><path d="M-95.688 4.998c-2.293-5.185-11.139-4.185-11.139 2.924" fill="#fcc21b" stroke="#e39e49" stroke-width="4" stroke-linecap="round" stroke-miterlimit="10"/><path d="M-118.375 4.998c1.932-4.93 10.252-4.124 11.524 3.065" fill="#fcc21b" stroke="#e39e49" stroke-width="4" stroke-linecap="round" stroke-miterlimit="10"/><path d="M-107 20c0-8.659-7.436-10.502-10.601-5.529" fill="#fcc21b" stroke="#e39e49" stroke-width="4" stroke-linecap="round" stroke-miterlimit="10"/><g><defs/><clipPath id="SVGID_2_"><use xlink:href="#SVGID_1_" overflow="visible"/></clipPath></g><g><defs/><clipPath id="SVGID_4_"><use xlink:href="#SVGID_3_" overflow="visible"/></clipPath></g><path d="M-107 39c0-9.389-8.742-10.764-11.303-4.126" fill="#fcc21b" stroke="#e39e49" stroke-width="4" stroke-linecap="round" stroke-miterlimit="10"/><path d="M-95.449 35.611C-97.627 28.149-107 29.278-107 39" fill="#fcc21b" stroke="#e39e49" stroke-width="4" stroke-linecap="round" stroke-miterlimit="10"/><path d="M-118.801 106.232S-107 108.75-107 94.812" fill="#fcc21b" stroke="#e39e49" stroke-width="4" stroke-linecap="round" stroke-miterlimit="10"/><path d="M-95.099 106.232s-11.801 2.518-11.801-11.42" fill="#fcc21b" stroke="#e39e49" stroke-width="4" stroke-linecap="round" stroke-miterlimit="10"/></g><g id="Layer_2"><path d="M66 98l-2-2-2 2V5.001l1.291 1.291a1.002 1.002 0 0 0 1.418 0L66 5.001V98z" fill="#e39e49"/><path d="M66 45.264V5.696c0-1.147.284-2.297.924-3.249 2.115-3.143 6.611-3.258 8.9-.345l.363.463c.534.679.9 1.475 1.069 2.322l2.967 32.884c1.154 14.809 3.846 18.305 7.125 34 1.624 7.774-12.75 32.25-12.75 32.25s-5.931 3.042-5.764-11.291C68.895 87.592 66 45.264 66 45.264z" fill="#fcc21b"/><path d="M62 45.264V5.696c0-1.147-.284-2.297-.924-3.249-2.115-3.143-6.611-3.258-8.9-.345l-.363.463a5.496 5.496 0 0 0-1.069 2.322L47.776 37.77c-1.154 14.809-3.846 18.305-7.125 34-1.624 7.774 12.75 32.25 12.75 32.25s5.931 3.042 5.764-11.291C59.105 87.592 62 45.264 62 45.264z" fill="#fcc21b"/><path d="M87.574 74.375s9 14.75 15.75 18.375-14.75 32.875-14.75 32.875-11.585-19.444-15.21-19.694" fill="#fcc21b"/><path d="M73.917 105.297s-8.042-.614-7.875-13.047C66.208 79.817 66 51.012 66 51.012V16.521c0-1.069.414-2.107 1.175-2.947a5.326 5.326 0 0 1 1.427-1.111c3.119-1.678 6.994.165 8.03 3.552l.624 11.549" fill="#fcc21b"/><path d="M77.26 28c0-8.855-11.399-8.167-11.257.03v66.453c-.167 10.91 1.727 10.184 1.727 10.184l6.19 1.265a13.748 13.748 0 0 0 13.416-10.624l.767-3.286c2.75-23.5-5.779-39.791-5.779-39.791-4.004-11.419-5.064-22.023-5.064-24.669" fill="#fcc21b"/><path d="M50.74 28c0-8.855 11.399-8.167 11.257.03v66.453c.167 10.91-7.917 11.449-7.917 11.449a13.748 13.748 0 0 1-13.416-10.624l-.767-3.286c-2.75-23.5 5.779-39.791 5.779-39.791 4.003-11.418 5.063-22.022 5.063-24.667" fill="#fcc21b"/><path d="M40.426 74.375s-9 14.75-15.75 18.375 14.75 32.875 14.75 32.875 11.585-19.444 15.21-19.694" fill="#fcc21b"/><path fill="#4285f4" d="M106.417 90.833l-25.959 27.834L88.654 128H128v-19.406z"/><path d="M61.531 103.094s.594 1.589.427-10.844C61.792 79.817 62 51.012 62 51.012V16.521c0-1.069-.414-2.107-1.175-2.947a5.326 5.326 0 0 0-1.427-1.111c-3.119-1.678-6.994.165-8.03 3.552l-.624 11.549" fill="#fcc21b"/><g><path d="M74.472 14.276C71.239 9.549 64 11.457 64 20" fill="#fcc21b"/><path d="M74.472 14.276l-.517-.505c-.154-.174-.38-.338-.636-.506-.128-.086-.255-.183-.399-.271l-.488-.228c-.321-.186-.732-.238-1.118-.353-.414-.032-.832-.089-1.262-.012a2.192 2.192 0 0 0-.633.131c-.209.057-.417.11-.609.226-.402.165-.75.443-1.084.705l-.445.468c-.145.153-.247.355-.37.521-.128.163-.225.35-.306.547-.084.193-.183.366-.254.556-.099.41-.266.749-.302 1.14-.042.385-.148.71-.132 1.06l-.029.91.062.718L66 20l.012.148A2.021 2.021 0 1 1 62 20l.127-.816.153-.925.333-1.194c.097-.433.343-.894.532-1.374.181-.483.529-.957.807-1.448.164-.238.365-.465.55-.697.181-.235.382-.459.624-.657.235-.2.443-.421.703-.593l.786-.496c.564-.265 1.129-.505 1.727-.601.288-.08.586-.09.877-.098.29-.018.571-.021.848.034.556.042 1.056.231 1.518.391.432.241.857.415 1.167.704l.461.371c.134.134.25.274.361.397.227.247.406.46.514.664l.384.614z" fill="#e39e49"/></g><g><path d="M51.388 3.188C53.875-1.687 62.79.874 64.062 8.063" fill="#fcc21b"/><path d="M51.388 3.188l.334-.671c.083-.226.293-.439.51-.717.205-.304.536-.51.876-.791.167-.149.385-.217.592-.335.212-.106.432-.234.677-.289l.756-.219.814-.102c.282-.051.561-.015.851-.016.29.004.586.011.874.071.289.051.591.087.883.157l.867.261c.299.076.56.229.843.344.278.124.562.243.813.41l.773.472c.242.174.469.366.699.548.481.348.839.795 1.227 1.186.364.408.643.851.933 1.243.255.41.446.814.635 1.166.203.349.281.685.389.952l.299.856a2.021 2.021 0 1 1-3.917.895l-.021-.198-.064-.588c-.03-.185-.013-.433-.099-.681-.074-.253-.13-.555-.232-.872-.137-.298-.245-.654-.43-.995-.208-.323-.375-.719-.665-1.041-.135-.169-.266-.352-.413-.525l-.49-.484c-.159-.177-.351-.311-.54-.455-.194-.134-.371-.315-.585-.42l-.629-.365c-.216-.109-.442-.188-.664-.285-.221-.108-.451-.163-.68-.221-.229-.052-.459-.144-.686-.15l-.681-.075-.653.035c-.221-.005-.416.061-.614.107-.191.059-.404.07-.568.164-.333.17-.689.288-.911.502-.241.194-.493.343-.626.548l-.477.578z" fill="#e39e49"/></g><g><path d="M76.537 3.188C74.05-1.688 65.135.874 63.863 8.063" fill="#fcc21b"/><path d="M76.537 3.188l-.478-.577c-.134-.205-.385-.354-.626-.548-.222-.214-.579-.332-.911-.502-.163-.094-.376-.105-.567-.164-.199-.047-.393-.113-.615-.107l-.653-.035-.681.075c-.227.006-.457.098-.686.15-.229.057-.458.113-.68.221-.222.098-.448.176-.664.285l-.628.364c-.214.105-.392.286-.585.42-.189.144-.382.278-.54.455l-.49.484c-.147.173-.277.356-.413.525-.29.322-.457.718-.665 1.041-.185.341-.292.697-.429.995-.102.317-.157.62-.229.873-.085.249-.069.496-.099.681l-.064.588-.021.188a2.021 2.021 0 1 1-3.919-.885l.299-.856c.108-.267.186-.603.389-.952.189-.352.38-.756.635-1.166.29-.392.568-.835.933-1.243.387-.391.746-.838 1.226-1.186.231-.182.458-.373.7-.548l.773-.472c.251-.167.535-.286.813-.41.283-.114.544-.268.843-.344l.868-.261c.292-.07.593-.106.883-.157.287-.061.583-.067.873-.071.29.001.569-.035.851.016l.814.102.756.219c.246.055.465.183.677.289.207.119.425.186.592.335.34.281.671.487.876.791.218.278.427.49.51.717l.332.67z" fill="#e39e49"/></g><g><path d="M64 20c0-8.659-7.436-10.502-10.601-5.529" fill="#fcc21b"/><path d="M62.003 20.113l.046-.731.051-.835-.028-.842c.023-.315-.094-.671-.136-1.052-.041-.395-.213-.737-.316-1.151-.076-.189-.176-.365-.264-.559a2.18 2.18 0 0 0-.319-.548c-.223-.376-.529-.67-.842-.987-.346-.255-.704-.526-1.116-.683-.197-.115-.412-.15-.624-.208l-.321-.086-.324-.024c-.438-.067-.86.013-1.279.057-.389.132-.8.202-1.12.403l-.488.247-.398.296c-.259.182-.476.358-.622.534l-.504.528.37-.635c.107-.215.28-.442.501-.694l.345-.412.456-.39c.305-.303.727-.495 1.156-.755.463-.172.963-.388 1.525-.444l.424-.065.435.004c.293.007.599-.004.892.074.609.084 1.188.312 1.767.568.539.312 1.086.647 1.528 1.083.247.199.459.42.642.659.19.233.394.463.565.702.285.496.64.975.827 1.465.195.495.442.933.549 1.412l.344 1.291.146.831.125.721.001.007a2.014 2.014 0 1 1-3.994.219z" fill="#e39e49"/></g><path fill="#4285f4" d="M22.125 90.833l26.229 27.834L40.429 128H0v-19.387z"/><g><defs><path id="SVGID_5_" d="M40.426 74.375s-9 14.75-15.75 18.375 14.75 32.875 14.75 32.875 11.585-19.444 15.21-19.694"/></defs><clipPath id="SVGID_6_"><use xlink:href="#SVGID_5_" overflow="visible"/></clipPath></g><g><defs><path id="SVGID_7_" d="M87.574 74.375s9 14.75 15.75 18.375-14.75 32.875-14.75 32.875-11.585-19.444-15.21-19.694"/></defs><clipPath id="SVGID_8_"><use xlink:href="#SVGID_7_" overflow="visible"/></clipPath></g><g><path d="M64 39c0-9.389-8.742-10.764-11.303-4.126" fill="#fcc21b"/><path d="M62.004 39.123l.039-.798.04-.907a21.715 21.715 0 0 1-.056-.912c.006-.344-.133-.722-.195-1.135-.084-.41-.268-.787-.421-1.214-.225-.363-.417-.802-.739-1.122-.143-.182-.293-.367-.482-.495-.186-.13-.345-.335-.56-.422-.208-.101-.41-.24-.63-.328l-.684-.213-.713-.075c-.241-.025-.474.036-.714.047-.245 0-.463.094-.689.158-.226.066-.456.124-.648.248l-.597.315-.501.396c-.347.238-.575.55-.807.806-.245.25-.405.507-.531.724l-.419.678.265-.756c.08-.246.185-.543.377-.851.18-.314.353-.699.665-1.035l.459-.556.595-.506c.198-.192.445-.322.698-.462.254-.138.508-.306.805-.381.292-.085.587-.219.903-.262.316-.039.643-.083.976-.109l1.009.079c.335.053.66.167.996.258.346.077.627.278.946.421.324.143.598.345.866.557.582.389.997.907 1.443 1.393.357.522.739 1.043.984 1.568.226.536.504 1.016.635 1.534l.387 1.412.158.912.133.788.001.008a2.012 2.012 0 1 1-3.994.237z" fill="#e39e49"/></g><g><path d="M75.551 35.611C73.373 28.149 64 29.278 64 39" fill="#fcc21b"/><path d="M75.552 35.611l-.372-.744c-.119-.235-.248-.538-.479-.814-.231-.278-.401-.636-.746-.917l-.483-.462c-.168-.155-.386-.261-.581-.397-.197-.136-.4-.267-.64-.34-.233-.079-.449-.205-.696-.251l-.737-.131-.75.021c-.493.077-.976.19-1.406.432-.228.079-.419.244-.611.389a2.127 2.127 0 0 0-.532.475c-.15.19-.337.322-.452.536l-.362.589c-.191.42-.368.826-.481 1.236-.074.435-.215.8-.23 1.192l-.077 1.04c.008.318.035.599.046.825L66 39l.01.187A2.018 2.018 0 1 1 62 39l.14-.943c.049-.299.095-.658.176-1.07l.402-1.378c.138-.5.436-1.026.677-1.574.284-.539.665-1.087 1.075-1.612l.719-.747c.233-.254.562-.437.842-.652a3.95 3.95 0 0 1 .94-.529c.33-.152.652-.308 1.016-.369.694-.205 1.423-.226 2.109-.177.343.06.68.117 1.003.189l.909.365c.291.125.535.33.79.486.261.151.471.354.667.557.193.204.406.375.558.586l.424.616c.296.369.417.814.589 1.146.176.34.237.653.306.91a245 245 0 0 0 .21.807z" fill="#e39e49"/></g><g><path d="M51.868 106.093s11.739 2.792 12.064-11.142" fill="#fcc21b"/><path d="M51.868 106.093s.301.042.828.047c.262.013.582-.007.944-.018.363-.036.771-.055 1.206-.138a9.112 9.112 0 0 0 1.379-.318c.482-.118.956-.351 1.438-.557.458-.266.941-.503 1.343-.868.447-.299.782-.736 1.14-1.119.32-.424.594-.881.841-1.328.181-.502.426-.936.543-1.427l.321-1.404.113-1.315c.055-.395.046-.777.024-1.119l-.031-.872-.025-.752-.006-.18a2.018 2.018 0 1 1 4.005.273l-.154.898-.179 1.023c-.06.392-.146.835-.311 1.319l-.474 1.542c-.227.538-.501 1.095-.768 1.662-.276.566-.71 1.1-1.071 1.65a13 13 0 0 1-1.422 1.452c-.554.401-1.077.823-1.689 1.08-.572.325-1.191.49-1.767.675-.593.121-1.158.26-1.702.28a9.992 9.992 0 0 1-1.514.03c-.465-.009-.887-.077-1.257-.117-.369-.066-.689-.112-.949-.18-.521-.116-.806-.219-.806-.219z" fill="#e39e49"/></g><g><path d="M76.168 106.054s-11.721 2.868-12.136-11.064" fill="#fcc21b"/><path d="M76.168 106.054s-.284.105-.805.223c-.259.07-.578.118-.948.186-.37.043-.792.113-1.256.126-.466.028-.973.03-1.514-.02-.544-.016-1.11-.152-1.704-.269-.577-.181-1.198-.342-1.772-.663-.613-.253-1.138-.671-1.696-1.069a12.99 12.99 0 0 1-1.431-1.442c-.365-.548-.802-1.079-1.082-1.643-.271-.566-.548-1.121-.779-1.657l-.484-1.539a7.497 7.497 0 0 1-.32-1.317l-.186-1.022a275.94 275.94 0 0 1-.159-.897 2.017 2.017 0 1 1 4.004-.31l-.006.191-.02.753-.026.872c-.02.342-.026.724.031 1.119l.121 1.314.33 1.402c.121.491.369.923.553 1.424.25.445.527.901.85 1.322.361.381.699.816 1.147 1.112.405.362.889.596 1.349.859.483.202.958.433 1.441.548.477.147.942.244 1.381.309.436.08.844.097 1.207.13.362.008.683.027.944.012.529-.01.83-.054.83-.054z" fill="#e39e49"/></g></g></svg>