<svg xmlns="http://www.w3.org/2000/svg" xmlns:xlink="http://www.w3.org/1999/xlink" viewBox="0 0 128 128"><g id="图层_1"><g id="XMLID_468_"><defs><path id="XMLID_469_" d="M0 .211h128v128H0z"/></defs><clipPath id="XMLID_2_"><use xlink:href="#XMLID_469_" overflow="visible"/></clipPath><g clip-path="url(#XMLID_2_)"><path id="XMLID_481_" d="M53.539 65.396c0 2.908-1.946 5.266-4.358 5.266-2.408 0-4.367-2.358-4.367-5.266 0-2.916 1.959-5.274 4.367-5.274 2.412.001 4.358 2.358 4.358 5.274" fill="#444"/><path id="XMLID_480_" d="M75.027 65.396c0 2.908 1.949 5.266 4.367 5.266 2.406 0 4.364-2.358 4.364-5.266 0-2.916-1.958-5.274-4.364-5.274-2.418.001-4.367 2.358-4.367 5.274" fill="#444"/><path id="XMLID_479_" d="M23.663 45.737s0 48.724 6.28 71.376c3.096 11.165 6.949 18.197 16.215 11.242l35.936-.358c9.251 7.06 15.879.291 17.874-11.175 4.71-27.072 4.71-71.086 4.71-71.086H23.663z" fill="#6d4c41"/><ellipse id="XMLID_478_" cx="64.286" cy="45.5" rx="40.508" ry="36.416" fill="#6d4c41"/><path id="XMLID_477_" d="M80.735 85.514c-5.705-1.084-27.766-1.084-33.471 0C29.223 88.941 16 96.899 16 113.876v57.834l48 .012 48-.012v-57.834c0-16.977-13.223-24.935-31.265-28.362z" fill="#651fff"/><path id="XMLID_466_" opacity=".54" d="M92.038 118.67h3.307v9.331h-3.307z"/><path id="XMLID_465_" opacity=".54" d="M32.42 118.67h3.307v9.331H32.42z"/><path id="XMLID_475_" d="M64.519 105.505c-6.081 0-10.898-4.93-10.898-11.011v-9.5h21.796v9.5c0 6.082-4.817 11.011-10.898 11.011z" fill="#e49800"/><path id="XMLID_474_" d="M64.286 17.857c-24.905 0-31.422 19.307-31.422 46.428s19.319 35.396 31.422 35.396c12.103 0 31.422-8.274 31.422-35.396 0-27.121-6.517-46.428-31.422-46.428z" fill="#fbc11b"/><path id="XMLID_472_" d="M73.788 39.133c-3.313 3.182-19.758 18.005-42.424 21.873V30.618s9.783-19.413 33.262-19.413 33.262 19.902 33.262 19.902v29.899s-15.383-5.905-23.11-21.687a.62.62 0 0 0-.99-.186z" fill="#6d4c41"/><path id="XMLID_471_" d="M56.954 88.774c4.633-1.454 10.268-1.377 14.664 0 .802.251 1.202-.565.646-1.411-.778-1.185-3.667-3.464-7.978-3.464s-7.199 2.279-7.978 3.464c-.556.846-.156 1.663.646 1.411z" fill="#4c3734"/><path id="XMLID_470_" d="M68.848 75.75c-1.607.455-3.274.677-4.562.677-1.288 0-2.955-.222-4.562-.677-.687-.195-.957.456-.711.889.51.897 2.563 2.707 5.273 2.707 2.711 0 4.764-1.81 5.273-2.707.246-.432-.023-1.083-.711-.889z" fill="#e38b15"/><g><path d="M44.816 65.282c.015-.506.097-.991.218-1.455a19.057 19.057 0 0 0 3.053-.651 9.48 9.48 0 0 0 3.791-2.171c1.039.985 1.704 2.538 1.664 4.298-.063 2.971-2.069 5.37-4.485 5.359-2.406 0-4.301-2.412-4.241-5.38z" fill="#444"/></g><g><path d="M83.755 65.282a6.517 6.517 0 0 0-.218-1.455 19.057 19.057 0 0 1-3.053-.651 9.48 9.48 0 0 1-3.791-2.171c-1.039.985-1.704 2.538-1.664 4.298.063 2.971 2.069 5.37 4.485 5.359 2.405 0 4.301-2.412 4.241-5.38z" fill="#444"/></g></g></g></g></svg>