<svg id="レイヤー_1" xmlns="http://www.w3.org/2000/svg" viewBox="0 0 128 128"><g><g><path d="M103.142 55.917c-.638 3.848-.503 7.783-.566 11.674-.019 1.098-.031 2.201-.054 3.297-.036 1.094-.226 1.517.845 1.816 3.805 1.051 8.487-1.384 9.712-5.145.323-.992.585-2.242.727-3.28.154-1.151.522-2.825.37-3.966-.279-1.977-1.583-3.816-2.513-5.539-.611-1.133-1.228-2.09-2.459-2.57-1.214-.469-4.056-.936-5.171-.106-1.066.784-.693 2.669-.891 3.819z" fill="#fcc21b"/><path d="M25.652 52.177c-1.493-.022-2.428-.514-3.876 0-1.808.646-3.75 1.512-4.928 3.129-1.743 2.408-2.553 7.102-1.708 9.846.998 3.188 2.122 6.088 5.753 6.922 1.962.456 6.772.331 7.083-2.205l-2.324-17.692z" fill="#fcc21b"/><g><g><path d="M103.105 49.376c2.167-.396 4.856.238 6.843 1.334 5.108 2.814 6.272 9.586 5.071 15.25-.963 4.523-3.578 7.914-8.964 9.262-3.246.809-5.702-.566-5.702-.566s1.331-3.975 1.772-5.367c4.855 2.467 7.903-.742 8.434-6.254.854-8.916-7.945-7.873-7.945-7.873s.159-4.179.491-5.786z" fill="#2f2f2f"/></g><g><path d="M24.429 49.376c-2.159-.396-4.855.238-6.838 1.334-5.102 2.814-6.271 9.586-5.067 15.25.963 4.523 3.57 7.914 8.956 9.262 3.255.809 5.706-.566 5.706-.566s-1.327-3.975-1.767-5.367c-4.865 2.467-7.912-.742-8.435-6.254-.853-8.916 7.94-7.873 7.94-7.873s-.163-4.179-.495-5.786z" fill="#2f2f2f"/><path d="M105.039 58.093c-.655-11.707-6.222-23.756-14.845-31.242-6.978-6.055-16.797-9.148-26.423-9.125-9.626-.023-19.453 3.07-26.422 9.125-8.632 7.486-14.189 19.535-14.846 31.242-.619 11.113 1.242 22.309 9.783 30.037 4.73 4.279 10.619 7.178 16.68 8.752 2.311.6 8.263 1.992 14.513 1.992s12.785-1.393 15.089-1.992c6.068-1.574 11.949-4.473 16.688-8.752 8.543-7.729 10.403-18.924 9.783-30.037z" fill="#2f2f2f"/><path d="M89.986 65.179c-.341-2.752-.306-6.338.424-9.02.926-3.439 1.366-6.889.099-10.285-1.358-3.648-3.776-6.768-7.222-8.016-1.213-.441-2.562-.406-3.829-.508-5.449-.443-10.25 5.447-15.687 5.271-5.436.176-10.245-5.715-15.694-5.271-1.267.101-2.607.066-3.83.508-3.436 1.248-5.854 4.367-7.211 8.016-1.273 3.396-.827 6.846.099 10.285.728 2.682.756 6.268.423 9.02-.333 2.615-1.601 5.062-1.745 7.688-.388 7.176 4.928 12.018 10.251 14.736 5.259 2.68 11.697 3.705 17.708 3.584 6.012.121 12.449-.904 17.71-3.584 5.323-2.719 10.628-7.561 10.241-14.736-.135-2.626-1.413-5.073-1.737-7.688z" fill="#fcc21b"/></g></g></g><path d="M67.004 63.243c-1.124-.654-3.533-.695-5.106-.385-3.808.755-2.536 3.605-.248 4.684a4.892 4.892 0 0 0 2.612.418c1.659-.184 2.248-.722 2.833-1.385.934-1.058 1.276-2.535-.091-3.332z" fill="#2f2f2f"/><g fill="#855c52"><path d="M12.785 67.579a74.948 74.948 0 0 1 4.037-4.382 4.858 4.858 0 0 0-.036-.28c-.58-6.078 3.31-7.543 5.863-7.859-.128.967-.262 1.934-.311 2.898-.005.047-.005.092-.009.137.076-.063.151-.131.225-.193a90.134 90.134 0 0 0 1.749-1.51c1.295-1.143 2.243-2.744 3.246-4.442.202-.337.399-.679.606-1.017.886-1.475 1.974-2.901 3.43-4.5 2.195-2.4 5.135-5.594 9.514-6.969.918-.777 1.924-1.412 3.071-1.826 1.223-.438 2.575-.404 3.844-.512 5.476-.439 10.305 5.475 15.757 5.297 5.458.178 10.287-5.736 15.759-5.297 1.268.107 2.615.073 3.849.512 1.038.377 1.974.945 2.823 1.627 4.766 1.242 7.898 4.642 10.2 7.168 1.462 1.599 2.549 3.025 3.438 4.496.199.342.407.684.609 1.025 1.003 1.693 1.947 3.295 3.245 4.441.491.432.985.854 1.48 1.277-.046-.869-.172-1.74-.279-2.613 2.536.309 6.374 1.764 5.865 7.719a77.695 77.695 0 0 1 4.116 4.41c.135-.436.26-.873.357-1.33 1.207-5.688.033-12.488-5.093-15.313-1.839-1.012-4.248-1.592-6.315-1.377-2.257-8.72-7.022-16.939-13.52-22.582-7.005-6.082-16.869-9.186-26.535-9.166-9.66-.019-19.534 3.084-26.529 9.166-6.501 5.643-11.267 13.862-13.519 22.582-2.068-.215-4.486.365-6.316 1.377-5.129 2.824-6.303 9.625-5.093 15.313.125.6.288 1.17.472 1.723z"/><path d="M125.001 90.644a28.9 28.9 0 0 0-.896-2.807 39.927 39.927 0 0 0-.558-1.416c-2.854-6.851-7.709-13.189-7.709-13.189l-.019.008a79.773 79.773 0 0 0-2.042-2.666c-.089-.111-.192-.21-.287-.324a69.4 69.4 0 0 0-3.497-3.943 94.034 94.034 0 0 0-4.083-3.982c-.197-.18-.396-.346-.593-.523-1.2-1.059-2.433-2.078-3.634-3.141-1.946-1.719-3.119-3.979-4.438-6.164-.871-1.453-1.94-2.773-3.079-4.023-1.285-1.412-2.571-2.774-4.014-3.901-1.493-1.166-3.161-2.079-5.166-2.515a8.227 8.227 0 0 0-1.664-.176c-.525 0-1.047.06-1.497.199-2.18.674-3.098 2.193-.656 3.285.773.344 1.532.621 2.171 1.229.387.369 1.376 2.004.298 2.004l-.145-.008c-1.29-.144-2.724-1.142-3.975-1.547a12.718 12.718 0 0 0-3.975-.656h-.108c-2.745.021-5.492.912-7.134 3.254-1.893 2.713-2.375 6.672-1.475 9.924.728 2.637 2.562 5.033 4.976 6.293 2.385 1.238 5.198 1.877 7.814 2.373 4.361.828 8.146 1.975 11.743 4.676.172.127.32.275.486.406 3.062 2.432 5.544 5.52 7.938 8.582.136.17.252.346.384.516.225.293.435.596.655.896.4.629 1.165 1.92 1.578 3.156.342 1.023.432 1.992.288 2.508-.094.365-.306.516-.629.289-1.413-.967-3.679-4.178-3.679-4.178l-.014-.006-.09-.008.041-.053c-.305-.416-.593-.836-.917-1.252-1.861-2.381-3.8-4.812-6.003-6.855-1.361 4.982-5.596 8.506-9.85 10.678-5.278 2.694-11.742 3.723-17.781 3.602-6.028.121-12.502-.907-17.78-3.602-4.158-2.121-8.304-5.553-9.757-10.363-2.059 1.976-3.875 4.283-5.647 6.541-.341.435-.643.879-.962 1.312l-.014.006s-.058.086-.152.211c-.512.707-2.334 3.143-3.52 3.967-.334.227-.539.076-.639-.285-.139-.52-.049-1.488.292-2.512.41-1.236 1.179-2.527 1.579-3.156.138-.189.279-.377.414-.566.21-.279.404-.572.62-.846 2.279-2.904 4.639-5.826 7.488-8.195.316-.262.608-.551.933-.793 3.601-2.701 7.386-3.848 11.747-4.676 2.621-.496 5.436-1.135 7.818-2.373 2.413-1.26 4.249-3.656 4.977-6.293.891-3.252.423-7.211-1.475-9.924-1.646-2.342-4.388-3.232-7.135-3.254h-.117c-1.355 0-2.675.234-3.97.656-1.245.405-2.679 1.403-3.974 1.547l-.146.008c-1.079 0-.085-1.635.301-2.004.64-.607 1.398-.885 2.173-1.229 2.442-1.092 1.52-2.611-.656-3.285-.45-.139-.973-.199-1.497-.199-.58 0-1.161.068-1.659.176-2.334.504-4.189 1.654-5.862 3.09-1.169 1.006-2.248 2.148-3.323 3.326-1.137 1.25-2.207 2.57-3.078 4.023-1.322 2.186-2.491 4.445-4.438 6.164-1.349 1.197-2.751 2.324-4.087 3.538-.045.046-.094.082-.144.126a93.098 93.098 0 0 0-4.397 4.334 68.756 68.756 0 0 0-3.47 3.916 72.435 72.435 0 0 0-2.041 2.666l-.018-.008s-4.853 6.339-7.706 13.189c-.198.471-.387.943-.567 1.416a30.13 30.13 0 0 0-.885 2.807c-1.394 5.434-.747 11.117 3.983 14.764 4.51 3.482 14.328 5.453 20.213 2.502 6.223-3.113 10.993-9.281 13.88-13.877a43.067 43.067 0 0 0 7.84 2.873c2.32.604 8.296 2 14.566 2 6.276 0 12.84-1.396 15.151-2a42.978 42.978 0 0 0 7.922-2.914c2.778 4.951 7.534 11.812 13.955 15.025 5.889 2.949 14.089 1.775 18.604-1.703 4.734-3.65 7.289-11.238 5.895-16.671z"/></g><path d="M64.47 70.456c-1.22-.291-2.303.244-3.14 1.109-2.742 2.859-4.27 10.396.298 12.387 1.897.828 4.778.719 6.132-1.012 1.637-2.109 1.231-6.01.108-8.824-.701-1.746-1.407-3.183-3.398-3.66z" fill="#ed6c30"/></g></svg>