<svg id="图层_1" xmlns="http://www.w3.org/2000/svg" xmlns:xlink="http://www.w3.org/1999/xlink" viewBox="0 0 128 128"><g><defs><path id="SVGID_1_" d="M.412 0H128v128H.412z"/></defs><clipPath id="SVGID_2_"><use xlink:href="#SVGID_1_" overflow="visible"/></clipPath><g clip-path="url(#SVGID_2_)"><path d="M127.79 34.675c0-13.826-28.555-25.031-63.79-25.031C28.774 9.644.21 20.849.21 34.675c0 13.829 1.479 83.682 63.79 83.682 62.32-.001 63.79-69.853 63.79-83.682z" fill="#fcc21b"/></g><g clip-path="url(#SVGID_2_)" fill="#2f2f2f"><g><path d="M42.002 82c-4.486.043-8.168-4.265-8.217-9.619-.048-5.374 3.554-9.747 8.035-9.79 4.484-.039 8.17 4.267 8.22 9.641.048 5.355-3.553 9.727-8.038 9.768z"/><path d="M86.114 81.999c4.482-.007 8.115-4.361 8.101-9.713-.012-5.373-3.662-9.705-8.144-9.694-4.493.009-8.131 4.361-8.122 9.732.016 5.356 3.675 9.686 8.165 9.675z"/></g><path d="M63.892 30.944c-14.131 0-22.184 8.138-22.52 8.483a3.25 3.25 0 0 0 4.666 4.526c.252-.254 6.579-6.509 17.849-6.509 11.274 0 17.602 6.255 17.865 6.521a3.258 3.258 0 0 0 4.59.04 3.242 3.242 0 0 0 .064-4.577c-.336-.347-8.388-8.484-22.514-8.484z"/></g></g></svg>