<svg id="图层_1" xmlns="http://www.w3.org/2000/svg" viewBox="0 0 128 128"><g><path fill="none" d="M.055 0h127.992v128H.055z"/><g><g><path d="M63.888 9.644C1.577 9.644.098 79.497.098 93.326c0 13.826 28.564 25.031 63.79 25.031 35.235 0 63.79-11.205 63.79-25.031 0-13.83-1.47-83.682-63.79-83.682z" fill="#fcc21b"/></g><path d="M63.892 79.086c-14.131 0-22.184 8.138-22.52 8.483a3.25 3.25 0 0 0 4.666 4.526c.252-.254 6.579-6.509 17.849-6.509 11.274 0 17.602 6.255 17.865 6.521a3.258 3.258 0 0 0 4.59.04 3.242 3.242 0 0 0 .064-4.577c-.336-.346-8.388-8.484-22.514-8.484z" fill="#2f2f2f"/><g fill="#2f2f2f"><path d="M42.002 68c-4.486.043-8.168-4.265-8.217-9.619-.048-5.374 3.554-9.747 8.035-9.79 4.484-.039 8.17 4.267 8.22 9.641.048 5.355-3.553 9.727-8.038 9.768z"/><path d="M86.114 67.999c4.482-.007 8.115-4.361 8.101-9.713-.012-5.373-3.662-9.705-8.144-9.694-4.493.009-8.131 4.361-8.122 9.732.016 5.356 3.675 9.686 8.165 9.675z"/></g></g></g></svg>