<svg id="レイヤー_1" xmlns="http://www.w3.org/2000/svg" viewBox="0 0 128 128"><g><path d="M95.579 103.043c.604 6.983-11.938 13.771-28.019 15.167-16.084 1.4-29.61-3.125-30.214-10.108-.608-6.98 11.938-13.768 28.018-15.168 16.08-1.397 29.607 3.133 30.215 10.109z" fill="#2f2f2f"/><path transform="rotate(-3.589 62.61 79.569)" fill="#2f2f2f" d="M26.052 69.938h73.065v19.201H26.052z"/><path d="M125.09 92.582l-9.492-1.708c.337-1.725.554-3.483.666-5.259l8.954-1.325a2.128 2.128 0 0 0 1.797-2.425c-.171-1.167-1.25-1.95-2.425-1.8l-8.222 1.225c-.018-1-.054-2-.112-2.996-.229-3.354-.934-6.729-2.042-10.034 3.259-9.413 11.484-35.602 4.759-42.81-5.334-5.722-24.061 6.533-30.233 11.062a384.562 384.562 0 0 1-3.729 2.709c-6.718-2.3-14.153-3.492-21.517-3.479-7.581-.013-15.251 1.233-22.118 3.67a371.508 371.508 0 0 1-4.584-2.758c-6.543-3.976-26.256-14.572-31.077-8.413-5.546 7.079 2.667 28.847 7.238 39.505-1.208 3.468-1.979 7.018-2.222 10.547a67.399 67.399 0 0 0-.116 2.846l-7.209-1.074c-1.162-.15-2.245.633-2.421 1.8a2.135 2.135 0 0 0 1.799 2.425l7.919 1.176c.121 1.883.346 3.75.712 5.583l-8.5 1.533a2.14 2.14 0 0 0-1.721 2.484 2.132 2.132 0 0 0 2.479 1.717l8.833-1.592a30.85 30.85 0 0 0 2.58 5.713l-8.445 2.683a2.13 2.13 0 0 0-1.388 2.68 2.133 2.133 0 0 0 2.678 1.387l9.689-3.079a31.27 31.27 0 0 0 5.62 5.388c6.052 4.513 13.577 7.567 21.327 9.226 2.95.629 10.566 2.1 18.556 2.1 7.988 0 16.347-1.471 19.297-2.1 7.751-1.658 15.276-4.713 21.325-9.226a31.04 31.04 0 0 0 5.822-5.646l10.505 3.338a2.142 2.142 0 0 0 2.679-1.387 2.136 2.136 0 0 0-1.388-2.68l-9.309-2.958a30.57 30.57 0 0 0 2.471-5.613l9.805 1.768a2.137 2.137 0 0 0 2.48-1.717 2.142 2.142 0 0 0-1.72-2.486zm-82.273-7.941c-1.892.787-3.671 1.079-5.259 1.079-4.388 0-7.362-2.213-7.533-2.338a2.134 2.134 0 1 1 2.582-3.4c.138.101 3.779 2.709 8.571.717 4.877-2.025 5.53-6.533 5.539-6.579a2.131 2.131 0 0 1 2.4-1.83 2.13 2.13 0 0 1 1.829 2.396c-.036.283-1.011 6.996-8.129 9.955zm37.886 26.973c-5.476.646-5.987-1.696-11.426-1.092-5.434.679-5.388 3.079-10.855 3.725-5.666.671-9.014-1.57-10.254-5.204-1.171-3.38.674-8.518 5.942-9.797 5.771-1.388 9.101 2.488 14.067 1.976 4.946-.658 7.283-5.2 13.218-5.2 5.42.017 8.417 4.579 8.07 8.142-.361 3.82-3.099 6.779-8.762 7.45zm15.688-29.623c-.17.15-3.395 2.946-8.333 2.946a13.81 13.81 0 0 1-4.329-.713c-7.317-2.404-8.809-9.021-8.869-9.301a2.135 2.135 0 0 1 4.173-.908c.046.2 1.104 4.538 6.029 6.159 5.014 1.649 8.459-1.342 8.497-1.376a2.129 2.129 0 0 1 3.013.18 2.144 2.144 0 0 1-.181 3.013z" fill="#f79329"/></g></svg>