<svg xmlns="http://www.w3.org/2000/svg" xmlns:xlink="http://www.w3.org/1999/xlink" viewBox="0 0 128 128"><g id="图层_1"><g><defs><path id="SVGID_1_" d="M0 0h128v128H0z"/></defs><clipPath id="SVGID_2_"><use xlink:href="#SVGID_1_" overflow="visible"/></clipPath><path id="XMLID_3301_" d="M28.511 113.532C22 91.192 22 45.39 22 45.39l84-.335s0 41.491-4.884 68.189l-72.605.288z" clip-path="url(#SVGID_2_)" fill="#6d4c41"/><g id="XMLID_3299_" clip-path="url(#SVGID_2_)"><ellipse id="XMLID_3300_" cx="64" cy="46.114" rx="42" ry="39.499" fill="#6d4c41"/></g><path id="XMLID_3298_" d="M20.429 118.092v9.887h87.143v-9.887c0-15.168-21.386-22.868-43.24-22.842-21.718.026-43.903 6.779-43.903 22.842z" clip-path="url(#SVGID_2_)" fill="#651fff"/><path id="XMLID_246_" d="M38.284 92.198l-3.01-12.346-9.153 15.398v13.535h38.211V95.25H42.171a4 4 0 0 1-3.887-3.052z" clip-path="url(#SVGID_2_)" fill="#651fff"/><path id="XMLID_92_" opacity=".54" clip-path="url(#SVGID_2_)" d="M89.437 119.535h3V128h-3z"/><path id="XMLID_3328_" d="M63.947 90.246h-9.082v9.593c0 4.338 3.697 7.856 8.257 7.856h1.651c4.56 0 8.257-3.517 8.257-7.856v-9.593h-9.083z" clip-path="url(#SVGID_2_)" fill="#e59900"/><path id="XMLID_3297_" d="M63.893 13.574c-24.347 0-30.719 18.874-30.719 45.388S52.06 93.565 63.893 93.565c11.832 0 30.719-8.089 30.719-34.603 0-26.514-6.371-45.388-30.719-45.388z" clip-path="url(#SVGID_2_)" fill="#fcc21b"/><path id="XMLID_3381_" d="M73.227 78.112H64h-9.227c-1.058 0-1.512.711-.813 1.776.98 1.492 4.615 4.36 10.04 4.36 5.426 0 9.061-2.868 10.04-4.36.699-1.065.245-1.776-.813-1.776z" clip-path="url(#SVGID_2_)" fill="#513f35"/><g id="XMLID_3293_" clip-path="url(#SVGID_2_)" fill="#444"><path id="XMLID_3296_" d="M53.501 60.728c0 2.841-1.902 5.145-4.258 5.145-2.353 0-4.267-2.304-4.267-5.145 0-2.849 1.914-5.153 4.267-5.153 2.356 0 4.258 2.304 4.258 5.153"/><path id="XMLID_3295_" d="M74.494 60.728c0 2.841 1.904 5.145 4.267 5.145 2.351 0 4.264-2.304 4.264-5.145 0-2.849-1.913-5.153-4.264-5.153-2.363 0-4.267 2.304-4.267 5.153"/></g><path id="XMLID_3152_" d="M68.404 70.268c-1.57.445-3.199.662-4.458.662-1.258 0-2.887-.217-4.458-.662-.672-.19-.935.446-.695.869.498.876 2.504 2.645 5.152 2.645 2.649 0 4.654-1.768 5.152-2.645.242-.423-.021-1.059-.693-.869z" clip-path="url(#SVGID_2_)" fill="#e59600"/><path id="XMLID_3151_" d="M73.073 34.427c-3.234 3.107-19.29 17.578-41.418 21.355V26.115S41.206 7.163 64.128 7.163s32.473 19.43 32.473 19.43v29.19S81.582 50.018 74.039 34.61a.605.605 0 0 0-.966-.183z" clip-path="url(#SVGID_2_)" fill="#6d4c41"/><g id="XMLID_20_" clip-path="url(#SVGID_2_)" fill="#fac036"><path id="XMLID_8_" d="M44.474 28.02c-1.116-.854-2.415-1.324-3.622-1.108-.898.161-1.193.274-3.354 1.264-2.475.013-.876-4.628-.301-6.076.033-.084 3.696-8.49 4.372-9.889.794-1.648.549-2.968-.585-3.516-1.218-.588-2.548.883-2.954 1.727-.626 1.303-2.262 4.29-3.584 7.358 0 0-.15.287-.245.321-.677.244-.823-.578-.823-.578.552-2.454 2.208-8.305 2.59-9.642.661-2.313.281-3.611-.924-3.969-1.586-.472-2.466.75-3.109 3.01-.384 1.35-1.475 5.489-2.643 9.318-.889.868-1.325-.236-1.325-.236.618-3.781 1.429-7.715 1.574-8.891.235-1.911-.135-2.929-1.369-3.187-1.282-.267-2.025.627-2.437 2.817-.292 1.553-1.274 6.425-1.702 8.934-.738 1.352-1.498.244-1.498.244.366-3.71.372-4.527.407-5.476.074-2.006-.335-2.757-1.597-2.785-1.395-.027-1.78 1.126-2.02 2.894-.161 1.189-1.106 9.211-1.88 12.29-1.185 4.733-.262 9.295 1.806 10.986 2.906 2.375 7.445 3.712 11.834 2.747 1.064-.234 2.879-1.614 3.853-2.105.152-.079 3.281-2.157 3.68-2.277a37.255 37.255 0 0 1 2.796-.725c.806-.167 1.63-.39 2.002-.528 2.017-.749 2.087-2.135 1.058-2.922z"/><path id="XMLID_19_" d="M35.905 33.852s-2.24 1.407-3.33 5.703l-15.347-1.693s-1.202-7.218-.222-12.471l18.899 8.461z"/></g><path id="XMLID_7_" d="M44.629 136.158l-7.133-1.862c-13.122-3.426-20.572-.26-24.464-28.98L8.925 72.678a20.003 20.003 0 0 1 .305-6.655l6.511-30.088a2 2 0 0 1 2.212-1.564l14.997 1.938a2 2 0 0 1 1.739 2.117l-1.658 28.58c-.116 1.992.068 3.99.544 5.928l5.42 22.067 5.634 41.157z" clip-path="url(#SVGID_2_)" fill="#651fff"/></g></g></svg>