<svg xmlns="http://www.w3.org/2000/svg" xmlns:xlink="http://www.w3.org/1999/xlink" viewBox="0 0 128 128"><g id="图层_1"><g><defs><path id="SVGID_1_" d="M0 0h128v128H0z"/></defs><clipPath id="SVGID_2_"><use xlink:href="#SVGID_1_" overflow="visible"/></clipPath><g id="XMLID_1905_" clip-path="url(#SVGID_2_)"><ellipse id="XMLID_1906_" cx="64" cy="46.114" rx="42" ry="39.499" fill="#6d4c41"/></g><path id="XMLID_1904_" d="M28.511 113.532C22 91.192 22 45.39 22 45.39l84-.335s0 41.491-4.884 68.189l-72.605.288z" clip-path="url(#SVGID_2_)" fill="#6d4c41"/><path id="XMLID_1902_" d="M92.826 92.53l3.692-11.175 5.145 13.894v13.535H63.89V95.249c13.142-.457 25.818 5.348 28.936-2.719z" clip-path="url(#SVGID_2_)" fill="#651fff"/><path id="XMLID_1900_" d="M34.956 92.53l-3.692-11.175-5.145 13.895v13.535h37.773V95.25c-13.142-.458-25.818 5.347-28.936-2.72z" clip-path="url(#SVGID_2_)" fill="#651fff"/><path id="XMLID_1899_" d="M20.429 118.092v9.887h87.143v-9.887c0-15.168-21.386-22.868-43.24-22.842-21.718.026-43.903 6.779-43.903 22.842z" clip-path="url(#SVGID_2_)" fill="#651fff"/><path id="XMLID_1898_" d="M63.947 90.246h-9.082v9.593c0 4.338 3.697 7.856 8.257 7.856h1.651c4.56 0 8.257-3.517 8.257-7.856v-9.593h-9.083z" clip-path="url(#SVGID_2_)" fill="#e49800"/><path id="XMLID_1897_" d="M63.893 13.574c-24.347 0-30.719 18.874-30.719 45.388S52.06 93.565 63.893 93.565c11.832 0 30.719-8.089 30.719-34.603 0-26.514-6.371-45.388-30.719-45.388z" clip-path="url(#SVGID_2_)" fill="#fbc11b"/><path id="XMLID_1896_" d="M73.227 78.112H64h-9.227c-1.058 0-1.512.711-.813 1.776.98 1.492 4.615 4.36 10.04 4.36s9.061-2.868 10.04-4.36c.699-1.065.245-1.776-.813-1.776z" clip-path="url(#SVGID_2_)" fill="#513f35"/><g id="XMLID_1893_" clip-path="url(#SVGID_2_)" fill="#444"><path id="XMLID_1895_" d="M53.5 60.727c0 2.841-1.902 5.145-4.258 5.145-2.353 0-4.267-2.304-4.267-5.145 0-2.849 1.914-5.153 4.267-5.153 2.357.001 4.258 2.304 4.258 5.153"/><path id="XMLID_1894_" d="M74.494 60.727c0 2.841 1.904 5.145 4.266 5.145 2.351 0 4.264-2.304 4.264-5.145 0-2.849-1.913-5.153-4.264-5.153-2.362.001-4.266 2.304-4.266 5.153"/></g><path id="XMLID_1892_" d="M68.404 70.268c-1.57.445-3.199.662-4.458.662s-2.887-.217-4.458-.662c-.672-.19-.935.446-.695.869.498.876 2.504 2.645 5.152 2.645 2.649 0 4.654-1.768 5.152-2.645.242-.423-.021-1.059-.693-.869z" clip-path="url(#SVGID_2_)" fill="#e49500"/><path id="XMLID_1891_" d="M73.073 34.427c-3.234 3.107-19.29 17.778-43.323 21.555V26.115S41.206 7.163 64.128 7.163s32.473 19.43 32.473 19.43l1.761 29.19S81.583 50.018 74.039 34.61a.605.605 0 0 0-.966-.183z" clip-path="url(#SVGID_2_)" fill="#6d4c41"/><g clip-path="url(#SVGID_2_)"><g><path d="M97.169 14.472c-2.559-2.829-7.072-5.486-11.971-7.343-7.589-2.875-10.288-3.512-14.615-3.543-1.973-.014-2.849.522-2.51 1.599.373 1.185 1.355 2.254 3.942 2.373 3.961.324 6.282 1.755 9.962 3.843 1.732.827 3.089 5.024 4.919 6.327 1.688 1.201 5.826 5.208 7.018 12.358.351 2.104 9.636.975 9.752-3.219.032-1.199-1.85-7.257-6.497-12.395z" fill="#fbc11b"/></g><path id="XMLID_1887_" d="M82.034 142.792l7.133-1.862c13.122-3.426 18.992-.263 24.581-29.315l9.082-45.036c.134-.641.248-1.287.296-1.94l.009-.134c.188-2.854-.485-5.7-1.728-8.276l-18.595-39.066c-.424-1.036-1.778-1.679-2.887-1.149l-9.871 5.496c-1.239.692-1.308 1.911-1.021 2.908l9.128 32.846c.689 2.417.923 4.967.471 7.44l-.048.252c-.121.614-6.668 30.379-6.668 30.379l-9.882 47.457z" fill="#651fff"/></g><g clip-path="url(#SVGID_2_)"><g><path d="M30.613 14.472c2.559-2.829 7.072-5.486 11.971-7.343 7.588-2.875 10.288-3.513 14.614-3.544 1.973-.014 2.849.522 2.51 1.599-.373 1.185-1.355 2.254-3.942 2.373-3.961.324-6.282 1.755-9.962 3.843-1.732.827-3.089 5.024-4.919 6.327-1.688 1.201-5.826 5.208-7.018 12.358-.351 2.104-9.636.975-9.752-3.219-.031-1.198 1.851-7.256 6.498-12.394z" fill="#fbc11b"/></g><path id="XMLID_1907_" d="M45.748 142.792l-7.133-1.862c-13.122-3.426-18.992-.263-24.581-29.315L4.952 66.578a14.801 14.801 0 0 1-.296-1.94l-.009-.134c-.188-2.854.485-5.7 1.728-8.276L24.97 17.162c.424-1.036 1.778-1.679 2.887-1.149l9.871 5.496c1.239.692 1.308 1.911 1.021 2.908l-9.128 32.846c-.689 2.417-.923 4.967-.471 7.44l.048.252c.121.614 6.668 30.379 6.668 30.379l9.882 47.458z" fill="#651fff"/></g></g></g></svg>