<svg xmlns="http://www.w3.org/2000/svg" xmlns:xlink="http://www.w3.org/1999/xlink" viewBox="0 0 128 128"><g id="Layer_1"><g fill="#fac036"/><g><defs/><clipPath id="SVGID_2_"><use xlink:href="#SVGID_1_" overflow="visible"/></clipPath></g><g fill="#fac036"/><g><defs/><clipPath id="SVGID_4_"><use xlink:href="#SVGID_3_" overflow="visible"/></clipPath></g><path fill="none" stroke="#d9578b" stroke-width="4" stroke-linecap="round" stroke-miterlimit="10" d="M64 174.667v-16"/><path fill="none" stroke="#d9578b" stroke-width="4" stroke-linecap="round" stroke-miterlimit="10" d="M42 180.562l-8-13.857"/><path fill="none" stroke="#d9578b" stroke-width="4" stroke-linecap="round" stroke-miterlimit="10" d="M86 180.562l8-13.857"/></g><g id="Layer_4"><path fill="none" stroke="#d9578b" stroke-width="4" stroke-linecap="round" stroke-miterlimit="10" d="M221.75 174.667v-16"/><path fill="none" stroke="#d9578b" stroke-width="4" stroke-linecap="round" stroke-miterlimit="10" d="M199.75 180.562l-8-13.857"/><path fill="none" stroke="#d9578b" stroke-width="4" stroke-linecap="round" stroke-miterlimit="10" d="M243.75 180.562l8-13.857"/><g fill="#fac036"/><g><defs/><clipPath id="SVGID_6_"><use xlink:href="#SVGID_5_" overflow="visible"/></clipPath></g><g fill="#fac036"/><g><defs/><clipPath id="SVGID_8_"><use xlink:href="#SVGID_7_" overflow="visible"/></clipPath></g><g/><g><g/></g><g><g/></g></g><g id="Layer_3"><path fill="none" stroke="#d9578b" stroke-width="4" stroke-linecap="round" stroke-miterlimit="10" d="M210.362 21.499l-4.141-15.455"/><path fill="none" stroke="#d9578b" stroke-width="4" stroke-linecap="round" stroke-miterlimit="10" d="M190.637 32.887l-11.313-11.313"/><path fill="none" stroke="#d9578b" stroke-width="4" stroke-linecap="round" stroke-miterlimit="10" d="M252.863 32.887l11.313-11.313"/><path fill="none" stroke="#d9578b" stroke-width="4" stroke-linecap="round" stroke-miterlimit="10" d="M233.138 21.499l4.141-15.455"/><g fill="#fac036"/><g><defs/><clipPath id="SVGID_10_"><use xlink:href="#SVGID_9_" overflow="visible"/></clipPath></g><g fill="#fac036"/><g><defs/><clipPath id="SVGID_12_"><use xlink:href="#SVGID_11_" overflow="visible"/></clipPath></g><g/><g><g/></g><g><g/></g></g><g id="Layer_2"><path fill="none" stroke="#444" stroke-width="4" stroke-linecap="round" stroke-miterlimit="10" d="M52.612 21.499L48.471 6.044"/><path fill="none" stroke="#444" stroke-width="4" stroke-linecap="round" stroke-miterlimit="10" d="M32.887 32.887L21.574 21.574"/><path fill="none" stroke="#444" stroke-width="4" stroke-linecap="round" stroke-miterlimit="10" d="M95.113 32.887l11.313-11.313"/><path fill="none" stroke="#444" stroke-width="4" stroke-linecap="round" stroke-miterlimit="10" d="M75.388 21.499l4.141-15.455"/><g fill="#fac036"><path d="M37.653 113.453c6.596-.242 11.89-7.837 12.391-9.385.515-1.181.979-2.247 1.393-3.203a496.549 496.549 0 0 0 2.509-5.829c.371-.872.537-1.27.537-1.27l-.006.014c3.18-7.533 6.369-15.384 6.369-15.384.615-1.329-.288-2.843-1.815-3.042-4.4-.572-7.782 1.43-9.609 5.238L45.7 89.336c-.347 1.044-1.957.999-2.207-.069-.932-3.986-.49-11.671-.49-11.671-.19-3.501 1.086-24.294 1.278-25.588.368-2.473-.738-4.92-3.014-5.192-2.323-.278-4.243.949-4.607 3.706-.106.799-2.353 22.278-2.353 22.278.012 1.219-1.303 1.45-1.395.195-.205-2.793-.855-26.112-.816-27.306.082-2.496-1.298-4.816-3.592-4.856-2.341-.04-4.109 1.374-4.155 4.152-.015.882-.289 19.838-.328 27.286-.003.498-.414.905-.943.935l-.018.001c-.5.029-.936-.309-.994-.777-.848-6.888-2.021-21.818-2.05-22.909-.066-2.496-1.581-4.741-3.874-4.66-2.34.082-4.021 1.587-3.903 4.363.036.838.798 16.524 1.216 24.13.031.567-.38 1.059-.966 1.192l-.023.005c-.689.157-1.377-.254-1.539-.903-1.394-5.593-2.935-12.562-3.077-13.413-.41-2.467-2.223-4.507-4.485-4.147-2.309.368-3.768 2.065-3.267 4.803.163.888 2.189 13.718 3.682 19.95.32 1.335.538 2.687.666 4.05.539 5.757.921 8.43.921 8.43 1.056 15.396 8.581 19.743 19.773 20.258l12.513-.126z"/><path d="M40.917 128s-.537-11.652 2.76-16.738c-1.125 0-30.506-2.446-31.833-2.446 2.243.638 1.01 19.184 1.01 19.184h28.063z"/></g><g><defs><path id="SVGID_13_" d="M59.031 75.355c-4.399-.572-7.782 1.43-9.609 5.238L45.7 89.336c-.347 1.044-1.957.999-2.207-.069-.932-3.986-.49-11.671-.49-11.671-.19-3.501 1.086-24.294 1.278-25.588.368-2.473-.738-4.92-3.014-5.192-2.323-.278-4.243.949-4.607 3.706-.106.799-2.353 22.278-2.353 22.278.012 1.219-1.303 1.45-1.395.195-.205-2.793-.855-26.112-.816-27.306.082-2.496-1.298-4.816-3.592-4.856-2.341-.04-4.109 1.374-4.155 4.152-.015.882-.289 19.838-.328 27.286-.003.498-.414.905-.943.935l-.019.001c-.5.029-.936-.309-.994-.777-.848-6.888-2.021-21.818-2.05-22.909-.066-2.496-1.581-4.741-3.874-4.66-2.34.082-4.021 1.587-3.903 4.363.036.838.798 16.524 1.217 24.13.031.567-.38 1.059-.967 1.192l-.023.005c-.689.157-1.377-.254-1.538-.903-1.394-5.59-2.935-12.559-3.077-13.411-.41-2.467-2.223-4.507-4.485-4.147-2.309.368-3.768 2.065-3.267 4.803.162.888 2.189 13.719 3.682 19.95.32 1.335.538 2.688.666 4.05.539 5.757.921 8.43.921 8.43.583 8.498 3.139 13.625 7.193 16.604 1.222 4.108.294 18.073.294 18.073h28.062s-.537-11.652 2.76-16.738l-.015-.001c3.57-2.436 6.049-6.16 6.383-7.193.515-1.181.979-2.247 1.393-3.203a496.549 496.549 0 0 0 2.509-5.829c.371-.872.537-1.27.537-1.27l-.006.014c3.179-7.533 6.369-15.384 6.369-15.384.615-1.328-.288-2.843-1.815-3.041z"/></defs><clipPath id="SVGID_14_"><use xlink:href="#SVGID_13_" overflow="visible"/></clipPath><path d="M11.158 111.375c3.375 2.827 8.596 3.959 13.982 4.207l12.513-.129c2.471-.091 5.437-1.294 7.359-2.745m-32.524-36.16" clip-path="url(#SVGID_14_)" fill="#fac036" stroke="#e39e49" stroke-width="4" stroke-miterlimit="10"/></g><g fill="#fac036"><path d="M102.86 113.582c11.193-.515 18.718-4.862 19.773-20.258 0 0 .381-2.673.921-8.43.128-1.363.346-2.716.666-4.05 1.493-6.231 3.519-19.062 3.682-19.95.501-2.738-.959-4.436-3.267-4.803-2.262-.36-4.075 1.68-4.485 4.147-.142.851-1.682 7.82-3.077 13.413-.162.649-.85 1.06-1.539.903l-.023-.005c-.587-.133-.998-.625-.966-1.192.419-7.606 1.181-23.291 1.216-24.13.118-2.776-1.563-4.281-3.903-4.363-2.293-.081-3.808 2.164-3.874 4.66-.029 1.091-1.202 16.022-2.05 22.909-.058.468-.494.805-.994.777l-.018-.001c-.529-.03-.94-.437-.943-.935-.039-7.448-.313-26.404-.328-27.286-.046-2.778-1.814-4.193-4.155-4.152-2.294.04-3.674 2.36-3.592 4.856.039 1.194-.611 24.513-.816 27.306-.092 1.255-1.407 1.023-1.395-.195 0 0-2.247-21.479-2.353-22.278-.365-2.757-2.284-3.984-4.607-3.706-2.276.272-3.382 2.719-3.014 5.192.192 1.294 1.468 22.088 1.278 25.588 0 0 .442 7.685-.49 11.671-.25 1.068-1.86 1.113-2.207.069l-3.723-8.743c-1.827-3.808-5.209-5.81-9.609-5.238-1.527.199-2.43 1.713-1.815 3.042 0 0 3.189 7.85 6.369 15.384l-.006-.014s.166.398.537 1.27c.873 2.06 1.731 4.058 2.509 5.829l1.393 3.203c.501 1.548 5.795 9.142 12.391 9.385l12.514.125z"/><path d="M87.083 128s.537-11.652-2.76-16.738c1.125 0 30.506-2.446 31.833-2.446-2.244.638-1.011 19.184-1.011 19.184H87.083z"/></g><g><defs><path id="SVGID_15_" d="M68.969 75.355c4.399-.572 7.782 1.43 9.609 5.238l3.723 8.744c.347 1.044 1.957.999 2.207-.069.932-3.986.49-11.671.49-11.671.19-3.501-1.086-24.294-1.278-25.588-.368-2.473.738-4.92 3.014-5.192 2.323-.278 4.243.949 4.607 3.706.106.799 2.353 22.278 2.353 22.278-.012 1.219 1.303 1.45 1.395.195.205-2.793.855-26.112.816-27.306-.082-2.496 1.298-4.816 3.592-4.856 2.341-.04 4.109 1.374 4.155 4.152.015.882.289 19.838.328 27.286.003.498.414.905.943.935l.019.001c.5.029.936-.309.994-.777.848-6.888 2.021-21.818 2.05-22.909.066-2.496 1.581-4.741 3.874-4.66 2.34.082 4.021 1.587 3.903 4.363-.036.838-.798 16.524-1.217 24.13-.031.567.38 1.059.967 1.192l.023.005c.689.157 1.377-.254 1.538-.903 1.394-5.593 2.935-12.562 3.077-13.413.41-2.467 2.223-4.507 4.485-4.147 2.309.368 3.768 2.065 3.267 4.803-.162.888-2.189 13.719-3.682 19.95a29.006 29.006 0 0 0-.666 4.05c-.539 5.757-.921 8.43-.921 8.43-.583 8.498-3.139 13.625-7.193 16.604-1.222 4.107-.294 18.072-.294 18.072H87.083s.537-11.652-2.76-16.738l.015-.001c-3.57-2.436-6.049-6.16-6.383-7.193-.515-1.181-.979-2.247-1.393-3.203a496.549 496.549 0 0 1-2.509-5.829c-.371-.872-.537-1.27-.537-1.27l.006.014c-3.179-7.533-6.369-15.384-6.369-15.384-.614-1.326.289-2.841 1.816-3.039z"/></defs><clipPath id="SVGID_16_"><use xlink:href="#SVGID_15_" overflow="visible"/></clipPath><path d="M82.987 112.708c1.922 1.45 4.888 2.654 7.359 2.745l12.513.129c5.386-.248 10.607-1.38 13.982-4.207m-1.329-34.827" clip-path="url(#SVGID_16_)" fill="#fac036" stroke="#e39e49" stroke-width="4" stroke-miterlimit="10"/></g></g></svg>