<svg xmlns="http://www.w3.org/2000/svg" viewBox="0 0 128 128"><g id="图层_1"><g><path id="XMLID_1883_" d="M28.511 113.532C22 91.192 22 45.39 22 45.39l84-.335s0 41.491-4.884 68.189l-72.605.288z" fill="#6d4c41"/><g id="XMLID_1881_"><ellipse id="XMLID_1882_" cx="64" cy="46.114" rx="42" ry="39.499" fill="#6d4c41"/></g><path id="XMLID_1880_" d="M20.429 118.092v9.887h87.143v-9.887c0-15.168-21.386-22.868-43.24-22.842-21.718.026-43.903 6.779-43.903 22.842z" fill="#651fff"/><path id="XMLID_1879_" d="M63.947 90.246h-9.082v9.593c0 4.338 3.697 7.856 8.257 7.856h1.651c4.56 0 8.257-3.517 8.257-7.856v-9.593h-9.083z" fill="#e59900"/><path id="XMLID_1878_" d="M63.893 13.574c-24.347 0-30.719 18.874-30.719 45.388S52.06 93.565 63.893 93.565c11.832 0 30.719-8.089 30.719-34.603 0-26.514-6.371-45.388-30.719-45.388z" fill="#fcc21b"/><path id="XMLID_1861_" d="M73.073 34.427c-3.234 3.107-19.29 17.578-41.418 21.355V26.115S41.206 7.163 64.128 7.163s32.473 19.43 32.473 19.43v29.19S81.582 50.018 74.039 34.61a.605.605 0 0 0-.966-.183z" fill="#6d4c41"/><path id="XMLID_1860_" d="M68.354 68.687c-1.571.445-3.201.662-4.46.662s-2.889-.217-4.46-.662c-.672-.19-.936.446-.695.869.499.877 2.505 2.646 5.155 2.646 2.65 0 4.657-1.769 5.155-2.646.24-.423-.023-1.059-.695-.869z" fill="#e59600"/><path id="XMLID_1859_" d="M68.241 82.03c0 2.181-1.947 2.637-4.348 2.637s-4.348-.503-4.348-2.637c0-2.244 1.947-3.633 4.348-3.633s4.348 1.342 4.348 3.633z" fill="#513f35"/><path id="XMLID_1856_" opacity=".54" d="M89.437 119.535h3V128h-3z"/><path id="XMLID_1855_" opacity=".54" d="M35.349 119.535h3V128h-3z"/><g fill="#444"><path id="XMLID_1863_" d="M53.388 60.049c0 2.843-1.903 5.148-4.26 5.148-2.355 0-4.269-2.305-4.269-5.148 0-2.851 1.915-5.156 4.269-5.156 2.357 0 4.26 2.305 4.26 5.156"/><path id="XMLID_1862_" d="M74.394 60.049c0 2.843 1.906 5.148 4.269 5.148 2.352 0 4.266-2.305 4.266-5.148 0-2.851-1.914-5.156-4.266-5.156-2.364 0-4.269 2.305-4.269 5.156"/></g></g></g></svg>