<svg id="レイヤー_1" xmlns="http://www.w3.org/2000/svg" viewBox="0 0 128 128"><g><g><path d="M105.238 57.984c-.656-11.762-6.249-23.868-14.913-31.389-7.009-6.088-16.881-9.194-26.552-9.174-9.67-.021-19.548 3.086-26.553 9.174-8.668 7.521-14.257 19.627-14.912 31.389-.626 11.168 1.245 22.416 9.833 30.186 4.747 4.302 10.663 7.216 16.759 8.794 2.32.602 8.301 2 14.576 2 6.28 0 12.855-1.398 15.169-2 6.092-1.578 12.005-4.492 16.761-8.794 8.587-7.77 10.457-19.018 9.832-30.186z" fill="#2f2f2f"/></g><g><path d="M90.11 65.105c-.341-2.765-.306-6.37.431-9.062.927-3.459 1.371-6.92.1-10.337-1.367-3.664-3.794-6.798-7.252-8.052-1.227-.444-2.581-.409-3.849-.512-5.48-.441-10.309 5.475-15.767 5.3-5.458.175-10.296-5.74-15.767-5.3-1.277.102-2.621.067-3.853.512-3.453 1.254-5.881 4.388-7.243 8.052-1.282 3.417-.831 6.878.094 10.337.733 2.692.765 6.298.424 9.062-.333 2.626-1.61 5.085-1.754 7.724-.383 7.207 4.955 12.077 10.3 14.81 5.287 2.693 11.762 3.723 17.799 3.601 6.042.121 12.517-.908 17.794-3.601 5.351-2.732 10.682-7.603 10.296-14.81-.139-2.639-1.42-5.098-1.753-7.724z" fill="#fcc21b"/></g><g><path d="M110.143 50.545c-1.835-1.008-4.254-1.593-6.321-1.376-2.248-8.723-7.013-16.94-13.514-22.584-7.005-6.082-16.869-9.184-26.535-9.163-9.666-.021-19.53 3.081-26.534 9.163-6.501 5.644-11.266 13.861-13.515 22.584-2.068-.217-4.486.368-6.321 1.376-5.125 2.826-6.299 9.625-5.09 15.312.964 4.541 3.594 7.944 9.002 9.297a8.402 8.402 0 0 0 2.814.212c1.196 3.768 3.039 7.284 5.728 10.376 1.673-1.061 3.233-2.131 4.527-3.175 1.061-.849 2.001-1.815 2.89-2.849-1.096-2.011-1.717-4.311-1.573-6.929.145-2.634 1.422-5.094 1.749-7.719.342-2.765.311-6.366-.418-9.056-.936-3.452-1.38-6.913-.107-10.326 1.365-3.659 3.794-6.797 7.247-8.052 1.222-.441 2.576-.405 3.848-.514 5.473-.436 10.296 5.478 15.754 5.297 5.458.181 10.286-5.732 15.753-5.297 1.272.108 2.626.072 3.85.514 3.451 1.255 5.88 4.393 7.246 8.052 1.273 3.413.827 6.874-.107 10.326-.729 2.689-.761 6.291-.419 9.056.329 2.625 1.605 5.085 1.749 7.719a12.773 12.773 0 0 1-1.357 6.497c1.008 1.195 2.051 2.315 3.255 3.28 1.196.964 2.631 1.952 4.159 2.933 2.576-3.035 4.352-6.465 5.517-10.134.827.072 1.771.05 2.814-.212 5.408-1.353 8.038-4.756 9-9.297 1.208-5.686.035-12.485-5.091-15.311z" fill="#855c52"/><path d="M64.061 95.776c-1.043.233-2.086.44-3.111.616-2.257.377-4.271.948-6.2 1.744 2.559.422 5.606.769 8.73.769 3.377 0 6.812-.404 9.649-.872-1.848-.742-3.791-1.277-5.949-1.641a59.14 59.14 0 0 1-3.119-.616z" fill="#855c52"/><path d="M60.523 68.248c.03-.009.408.504.862.787.756.468 4.042-.157 5.912-.181.518-.008.962-.363 1.475-.301 1.098.135 1.609.445 2.698.872.948.373 1.779.928 2.598 1.52 1.516 1.098 3.291 1.987 4.235 3.687.979 1.781 1.403 3.991 1.521 6.01.116 2.101-.082 4.213-.743 6.215-.647 1.955-2.233 3.642-3.664 5.058-.799.781-1.807 1.344-2.796 1.856-1.053.553-2.267.603-3.435.674-1.214.076-2.464.158-3.678-.054-1.466-.252-2.85-.795-4.275-1.2-1.759-.503-3.592-1.151-5.166-2.096-1.516-.908-3.11-1.888-4.234-3.281-.904-1.115-1.704-2.433-2.239-3.763-.575-1.435-.575-2.909-.566-4.429.008-1.398.539-2.54 1.195-3.75.504-.938.981-1.893 1.682-2.707.872-1.028 1.843-1.941 3.021-2.616.433-.242.873-.462 1.349-.602.258-.072.801-.086.999-.266-.002.002 3.235-1.428 3.249-1.433z" fill="#2f2f2f"/><path d="M107.86 94.797c-3.544-2.01-8.156-4.496-12.086-7.062-1.424-.932-2.769-1.872-3.93-2.807-1.132-.913-2.131-1.925-3.066-2.98-2.436-2.769-4.383-5.876-6.973-8.606-2.674-2.81-5.34-5.448-9.319-6.217a8.126 8.126 0 0 0-1.502-.145c-.583 0-1.159.067-1.649.233-1.146.383-1.916.994-2.037 1.641 3.184.549 5.76 2.105 7.374 4.523 2.261 3.39 2.909 8.296 1.649 12.498-.468 1.565-1.245 3.026-2.227 4.312-1.167 1.521-2.634 2.783-4.296 3.643 3.038.696 5.687 1.754 8.227 3.228 1.673.971 3.309 2.118 4.981 3.484 4.063 3.336 9.45 8.133 14.404 9.881 1.78.63 3.714 1.026 5.593 1.026 3.498 0 6.844-1.354 8.803-5.059 2.528-4.783.252-9.215-3.946-11.593z" fill="#855c52"/><path d="M60.446 93.402c.171-.027.342-.063.504-.091a45.127 45.127 0 0 0 3.111-.643c1.474-.359 2.926-.821 4.248-1.474.09-.046.166-.113.256-.161 2.308-1.246 4.101-3.494 4.855-6.025.963-3.227.566-7.198-1.267-9.949a6.74 6.74 0 0 0-1.296-1.434c-1.187-.999-2.657-1.565-4.208-1.812a11.244 11.244 0 0 0-1.563-.157l-.369-.005c-.226 0-.437.035-.656.051a13.183 13.183 0 0 0-3.066.521c-.09.027-.188.076-.279.108-1.106.395-2.32 1.097-3.443 1.295-.099.013-.193.054-.288.062l-.116.005c-.864 0-.44-.972-.023-1.583.122-.18.248-.333.337-.414.658-.593 1.417-.854 2.199-1.182 1.156-.486 1.551-1.089 1.448-1.66-.121-.646-.887-1.258-2.037-1.641-.485-.166-1.07-.233-1.646-.233a8.17 8.17 0 0 0-1.506.145c-3.98.769-6.641 3.407-9.319 6.217-2.693 2.838-4.689 6.092-7.266 8.942a23.925 23.925 0 0 1-2.773 2.643c-1.255 1.012-2.725 2.027-4.285 3.03-3.849 2.486-8.29 4.887-11.734 6.839-4.189 2.378-6.47 6.811-3.938 11.594 1.961 3.705 5.306 5.059 8.803 5.059 1.879 0 3.804-.397 5.589-1.026 4.95-1.748 10.345-6.545 14.408-9.881a38.59 38.59 0 0 1 4.803-3.381c2.599-1.529 5.296-2.616 8.401-3.331a36.444 36.444 0 0 1 2.116-.428z" fill="#855c52"/></g><path d="M16.792 62.916c-.584-6.078 3.3-7.539 5.854-7.857-.116.965-.252 1.933-.306 2.899-.225 4.055-.117 8.124.517 12.03-3.476.468-5.634-2.513-6.065-7.072z" fill="#fcc21b"/><path d="M110.755 62.916c-.433 4.559-2.59 7.54-6.066 7.072.635-3.906.743-7.976.517-12.03-.055-.967-.189-1.935-.306-2.899 2.555.313 6.438 1.779 5.855 7.857z" fill="#fcc21b"/><path d="M50.959 61.725c2.779 0 5.027-2.72 5.027-6.074 0-3.352-2.248-6.068-5.027-6.068-2.77 0-5.026 2.716-5.026 6.068 0 3.354 2.257 6.074 5.026 6.074z" fill="#2f2f2f"/><path d="M76.595 61.725c2.77 0 5.018-2.72 5.018-6.074 0-3.352-2.248-6.068-5.018-6.068-2.787 0-5.035 2.716-5.035 6.068 0 3.354 2.248 6.074 5.035 6.074z" fill="#2f2f2f"/><path d="M61.741 66.95c.49.232 1.106.354 1.771.395.279.019.539.059.841.026.103-.013.175-.036.27-.048 1.43-.218 2.019-.716 2.562-1.337.392-.44.661-.952.769-1.456.144-.71-.059-1.411-.854-1.875-1.125-.655-3.533-.696-5.111-.386-1.777.35-2.415 1.163-2.396 2.031.026 1 .924 2.073 2.148 2.65z" fill="#2f2f2f"/></g></svg>