<svg id="レイヤー_1" xmlns="http://www.w3.org/2000/svg" xmlns:xlink="http://www.w3.org/1999/xlink" viewBox="0 0 128 128"><g><g><g><g><path fill="#78a3ad" d="M60.204 18.44h7.058v109.467h-7.058z"/></g><g><defs><path id="SVGID_1_" d="M82.414 20.666C82.414 30.83 74.168 39.08 64 39.08s-18.414-8.25-18.414-18.414C45.586 10.493 53.833 2.25 64 2.25s18.414 8.243 18.414 18.416z"/></defs><use xlink:href="#SVGID_1_" overflow="visible" fill="#f79329"/><clipPath id="SVGID_2_"><use xlink:href="#SVGID_1_" overflow="visible"/></clipPath><path clip-path="url(#SVGID_2_)" fill="#fff" d="M41.857 16.257H85.52v10.51H41.857z"/></g><g><path fill="#fff" d="M47.027 46.901h33.415v52.544H47.027z"/><path d="M80.442 102.141H47.027a2.695 2.695 0 0 1-2.697-2.695V46.901a2.696 2.696 0 0 1 2.697-2.698h33.415a2.696 2.696 0 0 1 2.697 2.698v52.544a2.696 2.696 0 0 1-2.697 2.696zm-30.718-5.392h28.021V49.597H49.724v47.152z" fill="#78a3ad"/></g></g><path d="M44.545 127.906V117.64c0-2.358 1.824-4.279 4.062-4.279h30.255c2.233 0 4.062 1.921 4.062 4.279v10.267H44.545z" fill="#78a3ad"/></g><path d="M64 41.237c-11.343 0-20.571-9.229-20.571-20.571C43.429 9.321 52.657.095 64 .095c11.343 0 20.571 9.227 20.571 20.571 0 11.343-9.228 20.571-20.571 20.571zM64 4.41c-8.963 0-16.257 7.29-16.257 16.256 0 8.957 7.294 16.257 16.257 16.257 8.967 0 16.257-7.3 16.257-16.257C80.257 11.7 72.967 4.41 64 4.41z" fill="#f79329"/></g></svg>