<svg id="レイヤー_1" xmlns="http://www.w3.org/2000/svg" viewBox="0 0 128 128"><g><g><g><path d="M31.076 112.919a8.11 8.11 0 0 1-8.115 8.111 8.113 8.113 0 0 1-8.112-8.111c0-4.481 3.635-8.107 8.112-8.107a8.107 8.107 0 0 1 8.115 8.107z" fill="#2f2f2f"/></g><g><path d="M47.303 112.919a8.11 8.11 0 0 1-8.111 8.111 8.11 8.11 0 0 1-8.115-8.111 8.107 8.107 0 0 1 8.115-8.107 8.107 8.107 0 0 1 8.111 8.107z" fill="#2f2f2f"/></g><g><path d="M96.93 112.919a8.109 8.109 0 0 1-8.107 8.111c-4.486 0-8.12-3.63-8.12-8.111 0-4.481 3.634-8.107 8.12-8.107a8.106 8.106 0 0 1 8.107 8.107z" fill="#2f2f2f"/></g><g><path d="M113.147 112.919a8.101 8.101 0 0 1-8.103 8.111c-4.477 0-8.115-3.63-8.115-8.111 0-4.481 3.639-8.107 8.115-8.107a8.098 8.098 0 0 1 8.103 8.107z" fill="#2f2f2f"/></g></g><g><g><path d="M31.076 112.919a8.11 8.11 0 0 1-8.115 8.111 8.113 8.113 0 0 1-8.112-8.111c0-4.481 3.635-8.107 8.112-8.107a8.107 8.107 0 0 1 8.115 8.107z" fill="#2f2f2f"/></g><g><path d="M47.303 112.919a8.11 8.11 0 0 1-8.111 8.111 8.11 8.11 0 0 1-8.115-8.111 8.107 8.107 0 0 1 8.115-8.107 8.107 8.107 0 0 1 8.111 8.107z" fill="#2f2f2f"/></g><g><path d="M96.93 112.919a8.109 8.109 0 0 1-8.107 8.111c-4.486 0-8.12-3.63-8.12-8.111 0-4.481 3.634-8.107 8.12-8.107a8.106 8.106 0 0 1 8.107 8.107z" fill="#2f2f2f"/></g><g><path d="M113.147 112.919a8.101 8.101 0 0 1-8.103 8.111c-4.477 0-8.115-3.63-8.115-8.111 0-4.481 3.639-8.107 8.115-8.107a8.098 8.098 0 0 1 8.103 8.107z" fill="#2f2f2f"/></g></g><g><g><g fill="#2f2f2f"><path d="M69.024 62.893a3.252 3.252 0 0 1-2.327-.962 3.29 3.29 0 0 1 0-4.666l12.325-12.331-10.126-10.139a3.292 3.292 0 0 1 0-4.665c1.281-1.289 3.368-1.289 4.666 0l12.459 12.467a3.298 3.298 0 0 1 0 4.666l-14.66 14.668a3.297 3.297 0 0 1-2.337.962z"/><path d="M61.137 35.577v-4.945a3.13 3.13 0 0 1 3.119-3.115h19.612c1.715 0 3.123 1.4 3.123 3.115v4.945H61.137z"/></g></g><g><path d="M127.271 90.217l-5.41-24.996c-1.271-6.083-6.96-13-14.849-13h-86.02c-7.897 0-13.58 6.917-14.852 13L.731 90.217c-.364 1.675-.198 4.373.37 5.989l3.333 9.512c.567 1.62 2.432 2.947 4.15 2.947H119.419c1.71 0 3.579-1.328 4.146-2.947l3.329-9.512c.569-1.615.741-4.313.377-5.989z" fill="#78a3ad"/></g><g><path d="M1.16 114.354c-.153 1.711 1.109 3.111 2.811 3.111h119.715c1.698 0 2.836-1.383 2.53-3.068l.01-5.967c-.31-1.688-1.968-3.063-3.681-3.063H4.572c-1.719 0-3.249 1.392-3.406 3.102l-.006 5.885z" fill="#006ca2"/></g></g><g fill="#fff"><path d="M70.803 61.535c-1.786 0-3.246 1.4-3.246 3.119V86.11c0 1.719 1.46 3.119 3.246 3.119h13.696c1.783 0 3.24-1.4 3.24-3.119V64.654c0-1.719-1.457-3.119-3.24-3.119H70.803z"/><path d="M43.501 61.535c-1.783 0-3.244 1.4-3.244 3.119V86.11c0 1.719 1.461 3.119 3.244 3.119h13.692c1.787 0 3.248-1.4 3.248-3.119V64.654c0-1.719-1.461-3.119-3.248-3.119H43.501z"/><path d="M21.319 61.372c-2.845 0-5.134 2.011-6.066 5.503l-3.876 19.286c-.318 1.688.886 3.067 2.664 3.067h15.854c1.789 0 3.251-1.4 3.251-3.119V64.487c0-1.714-1.462-3.115-3.251-3.115h-8.576z"/><path d="M106.686 61.372c2.845 0 5.135 2.011 6.058 5.503l3.885 19.286c.317 1.688-.885 3.067-2.673 3.067H98.103c-1.779 0-3.248-1.4-3.248-3.119V64.487c0-1.714 1.469-3.115 3.248-3.115h8.583z"/></g></g></svg>