<svg id="レイヤー_1" xmlns="http://www.w3.org/2000/svg" xmlns:xlink="http://www.w3.org/1999/xlink" viewBox="0 0 128 128"><g><g><g><path fill="#78a3ad" d="M47.925 3.562h6.677v22.499h-6.677z"/></g><g><path fill="#78a3ad" d="M73.397 3.562h6.677v22.499h-6.677z"/></g></g><g><g><g><g><g><path d="M46.943 123.561a4.213 4.213 0 1 1-8.428 0v-16.214a4.212 4.212 0 0 1 4.212-4.207 4.212 4.212 0 0 1 4.216 4.207v16.214z" fill="#2f2f2f"/><path d="M81.07 123.561a4.21 4.21 0 0 0 4.212 4.216 4.207 4.207 0 0 0 4.208-4.216v-16.214a4.205 4.205 0 0 0-4.208-4.207 4.209 4.209 0 0 0-4.212 4.207v16.214z" fill="#2f2f2f"/><g><defs><path id="SVGID_1_" d="M106.768 94.783c0 10.695-8.663 19.354-19.356 19.354H40.588c-10.685 0-19.356-8.659-19.356-19.354V41.484c0-10.685 8.672-19.352 19.356-19.352h46.824c10.693 0 19.356 8.667 19.356 19.352v53.299z"/></defs><use xlink:href="#SVGID_1_" overflow="visible" fill="#757f3f"/><clipPath id="SVGID_2_"><use xlink:href="#SVGID_1_" overflow="visible"/></clipPath></g><path d="M98.235 63.766c0 5.756-4.668 10.432-10.432 10.432H40.206c-5.755 0-10.433-4.676-10.433-10.432V39.015c0-5.764 4.677-10.432 10.433-10.432h47.598a10.429 10.429 0 0 1 10.432 10.432v24.751z" fill="#40c0e7"/></g><path d="M44.013 94.811c0 3.869-3.151 7.006-7.02 7.006-3.886 0-7.025-3.137-7.025-7.006a7.024 7.024 0 0 1 7.025-7.033c3.869-.001 7.02 3.147 7.02 7.033z" fill="#fff"/><path d="M84 94.811c0 3.869 3.146 7.006 7.024 7.006 3.873 0 7.016-3.137 7.016-7.006 0-3.886-3.143-7.033-7.016-7.033C87.146 87.777 84 90.925 84 94.811z" fill="#fff"/></g></g></g></g><g fill="#78a3ad"><path d="M40.149 13.378a3.34 3.34 0 0 1-1.396-.313 3.326 3.326 0 0 1-1.643-4.381c.156-.34 3.938-8.46 14.153-8.46a3.34 3.34 0 0 1 0 6.677c-5.816 0-7.989 4.381-8.085 4.572a3.372 3.372 0 0 1-3.029 1.905z"/><path d="M87.847 13.404a3.35 3.35 0 0 1-3.035-1.939c-.117-.242-2.303-4.565-8.076-4.565a3.34 3.34 0 0 1 0-6.677c10.211 0 13.992 8.12 14.149 8.46a3.331 3.331 0 0 1-1.669 4.415 3.21 3.21 0 0 1-1.369.306z"/><path d="M76.736 6.9H51.264a3.339 3.339 0 0 1 0-6.677h25.473a3.34 3.34 0 0 1-.001 6.677z"/></g></g></svg>