<svg id="レイヤー_1" xmlns="http://www.w3.org/2000/svg" xmlns:xlink="http://www.w3.org/1999/xlink" viewBox="0 0 128 128"><g><g fill="#2f2f2f"><path d="M117.128 87.292c0 7.346-2.055 13.299-4.579 13.299-2.529 0-4.579-5.953-4.579-13.299s2.05-13.311 4.579-13.311c2.524 0 4.579 5.965 4.579 13.311z"/><path d="M110.558 99.284s1.217 1.949 2.544 2.613c2.988 1.488 7.146.939 9.648-2.455l-1.344-8.104-8.458 1.613-2.39 6.333z"/></g><g fill="#2f2f2f"><g><path d="M23.707 104.144c0 7.852-2.766 14.217-6.17 14.217-3.41 0-6.176-6.365-6.176-14.217 0-7.861 2.766-14.227 6.176-14.227 3.404 0 6.17 6.365 6.17 14.227z"/><path d="M14.85 116.97s1.639 2.086 3.436 2.793c4.026 1.59 9.632 1 13.004-2.625l-1.812-8.662-11.403 1.717-3.225 6.777z"/></g><path d="M34.947 104.144c0 7.852-2.767 14.217-6.17 14.217-3.41 0-6.176-6.365-6.176-14.217 0-7.861 2.766-14.227 6.176-14.227 3.403 0 6.17 6.365 6.17 14.227z"/></g><g fill="#2f2f2f"><path d="M90.776 104.144c0 7.852-2.766 14.217-6.17 14.217-3.409 0-6.176-6.365-6.176-14.217 0-7.861 2.767-14.227 6.176-14.227 3.404 0 6.17 6.365 6.17 14.227z"/><path d="M81.919 116.97s1.639 2.086 3.435 2.793c4.026 1.59 9.632 1 13.005-2.625l-1.813-8.662-11.403 1.717-3.224 6.777z"/></g><g><g><defs><path id="SVGID_1_" d="M113.998 12.214H17.31C7.277 12.214.164 18.347.164 27.366v64.342c0 10.021 8.13 18.148 18.153 18.148h55.671c14.617 0 19.402-1.887 28.339-7.777C111.506 96.017 128 86.017 128 77.817V27.272c0-10.021-3.979-15.058-14.002-15.058z"/></defs><use xlink:href="#SVGID_1_" overflow="visible" fill="#fcc21b"/><clipPath id="SVGID_2_"><use xlink:href="#SVGID_1_" overflow="visible"/></clipPath><path clip-path="url(#SVGID_2_)" fill="#ed6c30" d="M-.385 82.065h86.334v29.434H-.385z"/><path clip-path="url(#SVGID_2_)" fill="#ed6c30" d="M85.949 117.593l45.375-29.656V54.854L85.949 82.065z"/></g><g><defs><path id="SVGID_3_" d="M80.105 67.226a6.108 6.108 0 0 1-6.102 6.104H15.408c-3.362 0-6.091-2.742-6.091-6.104v-38.74c0-3.361 2.73-6.102 6.091-6.102h58.596a6.105 6.105 0 0 1 6.102 6.102v38.74z"/></defs><use xlink:href="#SVGID_3_" overflow="visible" fill="#40c0e7"/><clipPath id="SVGID_4_"><use xlink:href="#SVGID_3_" overflow="visible"/></clipPath><path clip-path="url(#SVGID_4_)" fill="#2f2f2f" d="M6.608 20.044h76.997v17.875H6.608z"/><path clip-path="url(#SVGID_4_)" fill="#fff" d="M20.24 25.956h49.733v8.104H20.24z"/></g><path d="M108.423 48.974c0 2.604-1.517 5.564-3.509 6.691L97.5 59.87c-2.735 1.539-5.132.168-5.132-3.203V29.255c0-3.361 2.397-6.092 5.132-6.092h7.414c1.992 0 3.509 2.107 3.509 4.691v21.12zm11.92-22.198c0-1.969-.727-3.57-1.67-3.57h-3.336c-1.16 0-2.155 1.906-2.155 4.248v19.063c0 2.342.996 3.637 2.155 2.908l3.336-2.045c.943-.578 1.67-2.623 1.67-4.594v-16.01z" fill="#40c0e7"/><path d="M22.948 93.962c0 3.795-3.083 6.861-6.871 6.861-3.794 0-6.872-3.066-6.872-6.861a6.859 6.859 0 0 1 6.872-6.861c3.789 0 6.871 3.058 6.871 6.861z" fill="#fff"/><path d="M79.13 93.962c0 3.795-3.077 6.861-6.881 6.861a6.856 6.856 0 0 1-6.855-6.861 6.851 6.851 0 0 1 6.855-6.861c3.805 0 6.881 3.058 6.881 6.861z" fill="#fff"/></g><path d="M102.016 104.144c0 7.852-2.766 14.217-6.17 14.217-3.409 0-6.176-6.365-6.176-14.217 0-7.861 2.767-14.227 6.176-14.227 3.403 0 6.17 6.365 6.17 14.227z" fill="#2f2f2f"/><path d="M125.465 87.292c0 7.346-2.05 13.299-4.579 13.299s-4.579-5.953-4.579-13.299 2.05-13.311 4.579-13.311 4.579 5.965 4.579 13.311z" fill="#2f2f2f"/></g></svg>