<svg id="レイヤー_1" xmlns="http://www.w3.org/2000/svg" xmlns:xlink="http://www.w3.org/1999/xlink" viewBox="0 0 128 128"><g><path d="M60.721 35.665a2.623 2.623 0 0 1-2.23-1.237 2.633 2.633 0 0 1 .854-3.612L98.164 6.869a2.629 2.629 0 0 1 3.607.858 2.618 2.618 0 0 1-.854 3.603L62.098 35.276a2.607 2.607 0 0 1-1.377.389z" fill="#78a3ad"/><g fill="#78a3ad"><path d="M55.129 28.942H75.35v9.344H55.129z"/><path d="M75.35 40.229H55.129a1.942 1.942 0 0 1-1.949-1.942v-9.344c0-1.074.869-1.945 1.949-1.945H75.35c1.074 0 1.949.871 1.949 1.945v9.344a1.947 1.947 0 0 1-1.949 1.942zm-18.277-3.888h16.332v-5.443H57.073v5.443z"/></g><g><g><defs><path id="SVGID_1_" d="M128 51.342c0-7.603-4.115-14.744-22.713-14.744H23.176C4.572 36.598.458 43.74.458 51.342V67.02c0 .031.021.062.021.094a49.824 49.824 0 0 0-.118 3.264v32.868a3.276 3.276 0 0 0 3.29 3.285h121.064a3.282 3.282 0 0 0 3.285-3.285V70.378c0-.962-.037-1.924-.099-2.876a1.4 1.4 0 0 0 .099-.481V51.342z"/></defs><use xlink:href="#SVGID_1_" overflow="visible" fill="#006ca2"/><clipPath id="SVGID_2_"><use xlink:href="#SVGID_1_" overflow="visible"/></clipPath><path clip-path="url(#SVGID_2_)" fill="#40c0e7" d="M-2.801 33.178H132v48.034H-2.801z"/></g><g><path d="M37.042 108.72c0 6.662-5.403 12.065-12.06 12.065-6.667 0-12.07-5.403-12.07-12.065s5.403-12.056 12.07-12.056c6.657 0 12.06 5.394 12.06 12.056z" fill="#2f2f2f"/></g><g><path d="M114.854 108.72c0 6.662-5.403 12.065-12.06 12.065-6.672 0-12.075-5.403-12.075-12.065s5.403-12.056 12.075-12.056c6.657 0 12.06 5.394 12.06 12.056z" fill="#2f2f2f"/></g><path d="M34.243 72.893a3.31 3.31 0 0 1-3.311 3.308h-10.76a3.308 3.308 0 0 1-3.305-3.308V55.354a3.305 3.305 0 0 1 3.305-3.305h10.76a3.307 3.307 0 0 1 3.311 3.305v17.539zm29.712-17.539a3.311 3.311 0 0 0-3.315-3.305H49.875a3.3 3.3 0 0 0-3.295 3.305v17.538a3.304 3.304 0 0 0 3.295 3.308H60.64a3.313 3.313 0 0 0 3.315-3.308V55.354zm24.084 0c0-1.823-1.489-3.305-3.326-3.305H73.958a3.31 3.31 0 0 0-3.315 3.305v17.538a3.315 3.315 0 0 0 3.315 3.308h10.755a3.32 3.32 0 0 0 3.326-3.308V55.354zm23.306 0a3.308 3.308 0 0 0-3.315-3.305H97.274c-1.827 0-3.321 1.481-3.321 3.305v17.538c0 1.822 1.494 3.308 3.321 3.308h10.755a3.31 3.31 0 0 0 3.315-3.308V55.354z" fill="#fff"/></g></g></svg>