<svg id="レイヤー_1" xmlns="http://www.w3.org/2000/svg" xmlns:xlink="http://www.w3.org/1999/xlink" viewBox="0 0 128 128"><g><g><g><path d="M127.64 64c0 35.149-28.488 63.638-63.646 63.638C28.857 127.639.359 99.15.359 64S28.857.36 63.993.36C99.151.361 127.64 28.851 127.64 64z" fill="#006ca2"/></g></g><g><path d="M49.717 106.984a3.573 3.573 0 0 1-3.567 3.567 3.569 3.569 0 0 1-3.562-3.567V93.277a3.564 3.564 0 0 1 3.562-3.562 3.569 3.569 0 0 1 3.567 3.562v13.707z" fill="#fff"/><path d="M78.571 106.984a3.565 3.565 0 0 0 3.562 3.567 3.568 3.568 0 0 0 3.562-3.567V93.277a3.561 3.561 0 1 0-7.124 0v13.707z" fill="#fff"/><g><defs><path id="SVGID_1_" d="M100.301 83.769c0 9.038-7.321 16.364-16.37 16.364H44.343c-9.039 0-16.366-7.326-16.366-16.364V38.693c0-9.034 7.327-16.364 16.366-16.364h39.588c9.049 0 16.37 7.33 16.37 16.364v45.076z"/></defs><use xlink:href="#SVGID_1_" overflow="visible" fill="#ed6c30"/><clipPath id="SVGID_2_"><use xlink:href="#SVGID_1_" overflow="visible"/></clipPath></g><path d="M93.085 47.763a8.822 8.822 0 0 1-8.826 8.827h-40.24c-4.867 0-8.817-3.954-8.817-8.827V36.61c0-4.873 3.949-8.827 8.817-8.827h40.24a8.822 8.822 0 0 1 8.826 8.827v11.153z" fill="#40c0e7"/></g><path d="M47.238 83.785c0 3.271-2.665 5.93-5.937 5.93a5.93 5.93 0 0 1-5.94-5.93 5.933 5.933 0 0 1 5.94-5.941 5.942 5.942 0 0 1 5.937 5.941z" fill="#fff"/><path d="M81.045 83.785c0 3.271 2.664 5.93 5.94 5.93a5.936 5.936 0 1 0 0-11.871 5.942 5.942 0 0 0-5.94 5.941z" fill="#fff"/></g></svg>