<svg id="レイヤー_1" xmlns="http://www.w3.org/2000/svg" xmlns:xlink="http://www.w3.org/1999/xlink" viewBox="0 0 128 128"><g><g fill="#ed6c30"><path d="M51.699 91.65c.311-.201.676-.291.993-.535.077-.07.152-.141.228-.213a.117.117 0 0 0-.009-.033c-.374-1.117.859-1.783 1.703-2.283.325-.176.694-.248 1.021-.484.402-.279.736-.631 1.161-.887.603-.359 1.278-.412 1.867-.764.685-.418 1.115-1.115 1.826-1.43 1.211-.537 2.459-.949 3.654-1.494.131-.113.263-.168.385-.168.124-.061.246-.096.36-.158a7.47 7.47 0 0 0 2.144-1.631c.18-.213.685-.773.965-.572.581.439.378 2.574.374 3.211.004.689.014 1.383.021 2.057.167 8.186 1.168 15.756 1.792 22.922.069.844.148 1.678.221 2.506.034.428-.055.551-.142.918-.07.309.069.643-.142.922-.332.461-.895.969-1.343 1.336-.062.055-.132.098-.196.148.014.248.073.492-.085.721-.312.484-.852 1.01-1.272 1.406-1.16 1.088-2.442 2.002-3.776 2.854-.861.555-1.801 1.143-2.557 1.818-.843.764-2.046 1.959-2.433.379-.351-1.406-.741-2.82-1.114-4.262-.816-3.107-1.634-6.318-2.708-9.545-1.446-4.334-2.982-8.686-4.107-13.111a11.673 11.673 0 0 0-.416-1.264c-.431-1.094.769-1.823 1.585-2.364z"/><path d="M60.77 124.205c2.897-2.266 3.951-3.303 6.138-5.445 2.034-1.984 6.797-6.568 9.007-9.555 1.251-1.703 1.927-2.783.815-4.373-.426-.607-1.304-.693-1.993-.553-1.049.221-1.865.781-2.727 1.432-2.607 1.98-7.746 6.35-10.169 8.543-1.081.984-2.45 2.434-3.478 3.479-2.806 2.871-4.751 5.857-2.916 7.605 1.661 1.572 3.992-.09 5.323-1.133z"/></g><g fill="#ed6c30"><path d="M34.846 75.355c.201-.312.289-.68.535-.996.071-.08.141-.148.21-.229.01.006.027.01.036.01 1.115.377 1.783-.861 2.28-1.705.179-.324.249-.689.486-1.018.282-.404.632-.738.885-1.16.361-.6.415-1.281.766-1.871.413-.68 1.11-1.105 1.432-1.826.535-1.207.949-2.453 1.493-3.648a.611.611 0 0 0 .167-.391c.062-.115.097-.246.157-.359a7.596 7.596 0 0 1 1.634-2.143c.211-.178.774-.686.566-.963-.435-.582-2.568-.381-3.21-.373-.689-.004-1.379-.018-2.055-.027-8.184-.166-15.755-1.166-22.92-1.781-.844-.074-1.678-.158-2.512-.225-.422-.035-.545.049-.914.135-.306.072-.642-.068-.921.143-.466.338-.966.904-1.336 1.342-.053.062-.096.133-.149.205-.244-.016-.491-.076-.72.078-.483.316-1.01.852-1.404 1.273-1.09 1.166-2.003 2.449-2.856 3.775-.553.861-1.14 1.805-1.816 2.559-.765.844-1.958 2.043-.377 2.434 1.403.348 2.814.742 4.258 1.111 3.108.816 6.314 1.635 9.546 2.715 4.329 1.441 8.685 2.98 13.11 4.1.413.105.861.264 1.266.422 1.089.429 1.819-.772 2.363-1.587z"/><path d="M2.293 66.279c2.265-2.896 3.301-3.947 5.439-6.139 1.99-2.027 6.573-6.795 9.56-9 1.703-1.256 2.783-1.932 4.372-.816.606.422.695 1.299.554 1.992-.219 1.045-.781 1.861-1.431 2.723-1.985 2.609-6.35 7.754-8.545 10.168-.983 1.082-2.436 2.457-3.482 3.479-2.865 2.811-5.858 4.75-7.601 2.916-1.572-1.661.088-3.987 1.134-5.323z"/></g><g><path d="M104.751 24.918c-.968-.994-.739-2.766.531-3.969 3.576-3.201 7.208-6.455 10.884-9.732.57-.521 1.011-1.096 1.611-1.561a56.056 56.056 0 0 0 3.429-2.848c.984-.879 1.959-2.072 3.188-2.58.948-.391 2.415-.256 2.891.508.934 1.484-1.6 3.865-2.829 4.936-2.318 2.002-4.466 4.191-6.661 6.322-2.999 2.916-5.959 5.811-8.971 8.608-1.273 1.185-3.099 1.326-4.073.316z" fill="#ed6c30"/><g><g><g><defs><path id="SVGID_1_" d="M64.863 34.395a117.649 117.649 0 0 1 8.631-7.088c2.259-1.674 4.331-3.074 5.981-4.1a100.506 100.506 0 0 1 8.377-4.699 77.727 77.727 0 0 1 10.768-4.424c3.785-1.232 7.763-2.225 11.162-2.611 2.424-.281 4.873-.281 6.604.686 1.931 1.074 2.783 3.801 2.651 6.35-.259 4.908-1.721 10.51-4.126 16.272a63.48 63.48 0 0 1-4.063 8.115C98.606 63.521 78.886 79.32 57.613 90.756c-2.19 1.158-4.561 2.107-6.837 3.467-.088.062-.188.08-.289.142-.492.236-.786.359-.861.342-3.679 1.316-8.983-.283-13.094-4.498-4.146-4.195-5.602-9.465-4.157-13.145 0 0 .144-.268.404-.764 8.268-15.425 18.963-30.105 32.084-41.905z"/></defs><use xlink:href="#SVGID_1_" overflow="visible" fill="#78a3ad"/><clipPath id="SVGID_2_"><use xlink:href="#SVGID_1_" overflow="visible"/></clipPath><path d="M119.626 30.188c.122-.58.176-1.195.325-1.662.834-2.668 1.282-5.285 1.335-8.051.045-2.381-.364-4.9-1.106-7.131-.571-1.723-1.757-4.242-3.514-4.873-2.08-.748-4.215-.527-6.376-.371-2 .15-4.047.203-5.944.709-1.931.514-3.838 1.646-5.313 2.98-.534.479-1.583 1.377-1.694 2.133-.142.932.941 2.434 1.361 3.242 1.097 2.125 2.977 3.688 4.469 5.531 2.021 2.537 4.366 4.242 7.114 6.016 1.547 1 3.073 2.086 4.755 2.836.909.414 3.061.791 3.896.08.393-.334.578-.869.692-1.439z" clip-path="url(#SVGID_2_)" fill="#ed6c30"/></g></g></g><g><g><path d="M86.552 34.982c-2.08 1.936-2.177 5.19-.236 7.262a5.127 5.127 0 0 0 7.262.229 5.13 5.13 0 0 0 .234-7.271c-1.934-2.073-5.186-2.171-7.26-.22z" fill="#fff"/></g><g><path d="M72.919 47.768a5.134 5.134 0 0 0-.232 7.264 5.143 5.143 0 0 0 7.269.236 5.152 5.152 0 0 0 .232-7.271 5.135 5.135 0 0 0-7.269-.229z" fill="#fff"/></g><g><path d="M59.286 60.555a5.139 5.139 0 0 0-.229 7.264 5.145 5.145 0 0 0 7.269.236 5.152 5.152 0 0 0 .231-7.271 5.145 5.145 0 0 0-7.271-.229z" fill="#fff"/></g></g></g><path d="M32.001 97.859c2.895-2.266 3.943-3.311 6.136-5.445 2.032-1.984 6.791-6.568 9.004-9.559 1.258-1.699 1.923-2.783.817-4.369-.427-.611-1.3-.693-1.993-.553-1.045.215-1.861.781-2.728 1.432-2.611 1.977-7.75 6.34-10.169 8.543-1.08.977-2.455 2.434-3.479 3.479-2.805 2.871-4.746 5.857-2.915 7.596 1.661 1.581 3.993-.079 5.327-1.124z" fill="#ed6c30"/></g></svg>