<svg id="レイヤー_1" xmlns="http://www.w3.org/2000/svg" xmlns:xlink="http://www.w3.org/1999/xlink" viewBox="0 0 128 128"><g><g><g fill="#2f2f2f"><path d="M93.438 120.954c0 3.643 2.947 6.602 6.59 6.602s6.589-2.959 6.589-6.602V94.231a6.593 6.593 0 0 0-6.589-6.59 6.593 6.593 0 0 0-6.59 6.59v26.723z"/><path d="M34.563 120.954c0 3.643-2.947 6.602-6.589 6.602-3.643 0-6.59-2.959-6.59-6.602V94.231a6.593 6.593 0 0 1 6.59-6.59 6.592 6.592 0 0 1 6.589 6.59v26.723z"/></g><g><defs><path id="SVGID_1_" d="M113.87 17.12c-.112-2.131-1.569-4.971-3.241-6.305 0 0-12.975-10.371-47.304-10.371-34.334 0-46.061 10.238-46.061 10.238-1.607 1.408-3.021 4.307-3.134 6.438l-2.722 50.756a179.712 179.712 0 0 0-.209 7.766v31.77a3.901 3.901 0 0 0 3.89 3.891h97.822a3.9 3.9 0 0 0 3.889-3.891v-31.77c0-2.137-.091-5.629-.208-7.766L113.87 17.12z"/></defs><use xlink:href="#SVGID_1_" overflow="visible" fill="#fcc21b"/><clipPath id="SVGID_2_"><use xlink:href="#SVGID_1_" overflow="visible"/></clipPath></g><g fill="#fff"><path d="M35.752 92.401c0 4.074-3.316 7.391-7.398 7.391a7.394 7.394 0 0 1-7.393-7.391 7.39 7.39 0 0 1 7.393-7.393c4.082.001 7.398 3.309 7.398 7.393z"/><path d="M92.726 92.401c0 4.074 3.311 7.391 7.398 7.391a7.392 7.392 0 1 0 0-14.784 7.394 7.394 0 0 0-7.398 7.393z"/></g><g><path d="M105.914 32.33c-.114-4.274-3.707-7.772-7.983-7.772H30.075c-4.276 0-7.869 3.498-7.983 7.772l-.87 32.454a7.55 7.55 0 0 0 7.567 7.772h70.427a7.55 7.55 0 0 0 7.567-7.772l-.869-32.454z" fill="#40c0e7"/></g></g><path d="M88.252 18.626h-49.87a4.359 4.359 0 0 1-4.36-4.355 4.36 4.36 0 0 1 4.36-4.359h49.87a4.355 4.355 0 0 1 4.355 4.359 4.354 4.354 0 0 1-4.355 4.355z" fill="#fff"/></g></svg>