<svg id="レイヤー_1" xmlns="http://www.w3.org/2000/svg" viewBox="0 0 128 128"><g><g><path d="M24.882 112.195c0 4.8-3.888 8.696-8.692 8.696s-8.702-3.896-8.702-8.696a8.696 8.696 0 0 1 8.702-8.697 8.687 8.687 0 0 1 8.692 8.697z" fill="#2f2f2f"/></g><g><path d="M42.285 112.195c0 4.8-3.892 8.696-8.697 8.696-4.804 0-8.706-3.896-8.706-8.696 0-4.81 3.902-8.697 8.706-8.697a8.692 8.692 0 0 1 8.697 8.697z" fill="#2f2f2f"/></g><g><path d="M102.169 112.195c0 4.8-3.893 8.696-8.697 8.696-4.804 0-8.702-3.896-8.702-8.696 0-4.81 3.898-8.697 8.702-8.697a8.692 8.692 0 0 1 8.697 8.697z" fill="#2f2f2f"/></g><g><path d="M119.562 112.195c0 4.8-3.888 8.696-8.692 8.696s-8.701-3.896-8.701-8.696c0-4.81 3.897-8.697 8.701-8.697s8.692 3.887 8.692 8.697z" fill="#2f2f2f"/></g><g fill="#78a3ad"><path d="M51.425 60.603a3.524 3.524 0 0 1-2.506-1.031 3.537 3.537 0 0 1 0-5.003l13.22-13.221-10.862-10.871a3.536 3.536 0 0 1 0-5.002 3.536 3.536 0 0 1 5.002 0l13.368 13.366a3.537 3.537 0 0 1 0 5.003L53.921 59.571a3.515 3.515 0 0 1-2.496 1.032z"/><path d="M42.967 31.315v-5.307a3.357 3.357 0 0 1 3.345-3.345h21.024a3.357 3.357 0 0 1 3.344 3.345v5.307H42.967z"/></g><path d="M127.536 70.129l.014-7.603c.018-7.352-5.988-13.367-13.34-13.367H13.799C6.438 49.159.431 55.175.45 62.526l.019 7.592c0 .112-.037.214-.037.313l.083 35.424c.009 3.675 3.021 6.679 6.702 6.679h113.571c3.676 0 6.688-3.004 6.697-6.679l.083-35.424c0-.099-.027-.201-.032-.302z" fill="#757f3f"/><g><g><g><g><g><g><g><path d="M95.816 84.489c0 3.198 2.617 5.815 5.815 5.815h9.177c3.198 0 5.815-2.617 5.815-5.815V68.491c0-3.198-2.617-5.815-5.815-5.815h-9.177c-3.198 0-5.815 2.617-5.815 5.815v15.998z" fill="#fff"/></g><g><path d="M73.422 62.676c-3.198 0-5.815 2.617-5.815 5.815v15.998c0 3.198 2.617 5.815 5.815 5.815h9.168c3.198 0 5.815-2.617 5.815-5.815V68.491c0-3.198-2.617-5.815-5.815-5.815h-9.168z" fill="#fff"/></g></g></g><g><g><g><path d="M45.217 62.676c-3.198 0-5.815 2.617-5.815 5.815v15.998c0 3.198 2.617 5.815 5.815 5.815h9.172c3.198 0 5.815-2.617 5.815-5.815V68.491c0-3.198-2.617-5.815-5.815-5.815h-9.172z" fill="#fff"/></g></g></g><g><g><g><path d="M17.012 62.676c-3.198 0-5.815 2.617-5.815 5.815v15.998c0 3.198 2.617 5.815 5.815 5.815h9.172c3.198 0 5.815-2.617 5.815-5.815V68.491c0-3.198-2.617-5.815-5.815-5.815h-9.172z" fill="#fff"/></g></g></g></g></g></g></g></g></svg>