<svg xmlns="http://www.w3.org/2000/svg" xmlns:xlink="http://www.w3.org/1999/xlink" viewBox="0 0 128 128"><g id="图层_1"><g><g><g><defs><path id="SVGID_1_" d="M120.972 44.09c-5.943-4.086-11.988-8.014-18.104-11.841-9.494-5.935-19.371-12.322-30.523-14.495-6.847-1.341-15.554-1.257-22.186 1.229-4.396 1.645-8.531 4.298-11.652 7.839-5.568 6.341-8.974 13.681-11.791 21.566C22.782 59.417 13.125 63.41 7.364 73.227c-2.574 4.4-3.863 12.101-3.416 17.222 1.974 22.611 35.998 23.185 50.816 20.661 7.636-1.299 15.648-5.168 19.332-7.53 8.319-5.348 14.597-12.748 14.597-12.748l35.447-34.901v-6.905c0-3.707-3.168-4.936-3.168-4.936z"/></defs><use xlink:href="#SVGID_1_" overflow="visible" fill="#e0e0e0"/><clipPath id="SVGID_2_"><use xlink:href="#SVGID_1_" overflow="visible"/></clipPath><path d="M99.203 54.72c0 2.477-1.276 4.89-3 5.417l-2.085.633c-2.232.68-4.303-1.41-4.303-4.738V43.064c0-3.328 2.065-5.273 4.303-4.438l2.085.777c1.724.647 3 3.162 3 5.639v9.678zm9.595-8.023c0-1.775-.795-3.466-1.849-3.781l-1.229-.379c-1.248-.37-2.366 1.067-2.366 3.235v8.468c0 2.167 1.109 3.661 2.366 3.355l1.229-.295c1.054-.259 1.849-1.904 1.849-3.679v-6.924zm5.75.749c0-1.304-.504-2.5-1.175-2.681l-.776-.203c-.804-.213-1.525.916-1.525 2.523v6.277c0 1.613.722 2.644 1.525 2.329l.776-.314c.671-.268 1.175-1.53 1.175-2.838v-5.093zm3.393.36c0-1.008-.296-1.914-.68-2.016l-.444-.12c-.448-.12-.836.749-.836 1.923v4.604c0 1.178.388 1.987.836 1.811l.444-.175c.384-.153.68-1.096.68-2.099v-3.928zm2.134.222c0-.823-.194-1.543-.447-1.608l-.287-.079c-.281-.069-.522.624-.522 1.558v3.624c0 .934.241 1.599.522 1.488l.287-.12c.253-.098.447-.851.447-1.669v-3.194zm1.804.203c0-.647-.13-1.216-.315-1.267l-.197-.064c-.2-.055-.37.495-.37 1.229v2.866c0 .735.17 1.257.37 1.174l.197-.092c.186-.079.315-.67.315-1.322v-2.524z" clip-path="url(#SVGID_2_)" fill="#40c0e7"/><path d="M4.548 89.446s3.749 7.885 15.779 11.241c12.025 3.351 29.383 4.535 39.64-.592 10.247-5.126 30.366-19.916 30.366-19.916l34.119-26.623v3.55L82.046 98.912s-13.011 13.607-28.397 13.607c-15.378 0-29.211.846-37.467-3.748C.606 100.095 4.548 89.446 4.548 89.446z" clip-path="url(#SVGID_2_)" fill="#78a3ad"/><path d="M126.732 51.948c-.25-.121-.73-.144-1.063-.056 0 0-.11.074-.296.212-.106.009-.217 0-.314.023-.217.06-22.601 16.634-42.947 32.844-19.699 15.691-38.242 20.115-60.123 14.342C7.163 95.404 4.502 87.874 4.142 84.098c.019-.153.037-.269.042-.31.027-.148-.033-.277-.084-.412-.019-.869.069-1.442.084-1.543a.749.749 0 0 0-.602-.878.74.74 0 0 0-.877.596c-.01.032-.166.929-.052 2.334-.218 2.163-.43 13.737 18.95 18.848 22.389 5.907 41.497 1.6 61.449-14.619 21.386-17.383 43.305-35.737 43.526-35.797.338-.083.408-.254.154-.369z" clip-path="url(#SVGID_2_)" fill="#bdbdbd"/><path d="M123.547 51.522s-11.819 5.583-21.084 9.133c-8.71 3.333-14.096 4.83-14.096 4.83L86.51 77.202l37.036-24.516v-1.164z" clip-path="url(#SVGID_2_)" fill="#006ca2"/></g><g><defs><path id="SVGID_3_" d="M42.139 38.358c1.031 2.006 4.465 1.937 6.323 2.034 3.198.166 6.323.212 9.466.074 2.783-.111 4.937-.231 7.257-1.927 1.608-1.179 3.106-2.288 4.797-3.12 2.357-1.146 4.41-.005 5.195 2.953.435 1.631.473 3.55.163 5.255-1.651 9.008-7.479 17.249-15.937 19.45-2.828.734-5.754.957-8.671.952-5.623-.014-12.184-.287-17.378-2.746-2.665-1.266-4.052-3.282-4.052-6.803-.012-3.735 1.432-7.534 3.15-10.732.771-1.433 1.518-3.046 2.463-4.294 1.15-1.53 2.773-3.309 4.363-4.095 2.769-1.392 2.065.726 2.769 2.787.027.074.057.148.092.212z"/></defs><use xlink:href="#SVGID_3_" overflow="visible" fill="#40c0e7"/><clipPath id="SVGID_4_"><use xlink:href="#SVGID_3_" overflow="visible"/></clipPath></g></g><path d="M56.819 82.267c-.134 2.663-2.246 5.583-4.913 6.841-2.875 1.382-5.81.574-6.4-2.2-.685-3.194 1.986-7.247 5.712-8.458 3.373-1.109 5.754.804 5.601 3.817z" fill="#fcc21b"/><path d="M20.809 74.984c.578 2.421-.412 5.375-2.015 7.053-1.558 1.627-3.703 2.075-5.131.785-1.904-1.719-2.048-5.921.479-8.934 2.687-3.226 5.877-2.237 6.667 1.096z" fill="#fcc21b"/></g></g></svg>