<svg id="レイヤー_1" xmlns="http://www.w3.org/2000/svg" xmlns:xlink="http://www.w3.org/1999/xlink" viewBox="0 0 128 128"><g><g><defs><path id="SVGID_1_" d="M127.382 51.815c0-7.551-4.088-14.645-22.555-14.645H23.272C4.8 37.17.71 44.264.71 51.815v15.571c0 .036.021.062.021.103a42.768 42.768 0 0 0-.112 3.232v35.685a3.253 3.253 0 0 0 3.263 3.263h120.242a3.253 3.253 0 0 0 3.259-3.263V70.721c0-.955-.031-1.91-.092-2.856.05-.152.092-.305.092-.479l-.001-15.571z"/></defs><use xlink:href="#SVGID_1_" overflow="visible" fill="#fcc21b"/><clipPath id="SVGID_2_"><use xlink:href="#SVGID_1_" overflow="visible"/></clipPath><path clip-path="url(#SVGID_2_)" fill="#f79329" d="M-2.523 51.878h133.888v30.456H-2.523z"/></g><g><path d="M38.997 108.814c0 6.617-5.367 11.974-11.977 11.974-6.625 0-11.99-5.356-11.99-11.974 0-6.627 5.365-11.972 11.99-11.972 6.61.001 11.977 5.346 11.977 11.972z" fill="#2f2f2f"/></g><g><path d="M110.215 108.814c0 6.617-5.367 11.974-11.979 11.974-6.621 0-11.988-5.356-11.988-11.974 0-6.627 5.367-11.972 11.988-11.972 6.612.001 11.979 5.346 11.979 11.972z" fill="#2f2f2f"/></g><path d="M35.332 75.08a3.158 3.158 0 0 1-3.167 3.161H21.869A3.161 3.161 0 0 1 18.7 75.08V58.29a3.17 3.17 0 0 1 3.169-3.171h10.296a3.167 3.167 0 0 1 3.167 3.171v16.79zm28.449-16.79a3.177 3.177 0 0 0-3.177-3.171H50.299a3.162 3.162 0 0 0-3.155 3.171v16.79a3.152 3.152 0 0 0 3.155 3.161h10.306a3.167 3.167 0 0 0 3.177-3.161V58.29zm23.052 0a3.18 3.18 0 0 0-3.177-3.171H73.35a3.172 3.172 0 0 0-3.167 3.171v16.79a3.163 3.163 0 0 0 3.167 3.161h10.307a3.17 3.17 0 0 0 3.177-3.161V58.29zm22.314 0a3.171 3.171 0 0 0-3.182-3.171h-10.29a3.174 3.174 0 0 0-3.17 3.171v16.79a3.165 3.165 0 0 0 3.17 3.161h10.291a3.162 3.162 0 0 0 3.182-3.161V58.29z" fill="#fff"/></g></svg>