<svg id="レイヤー_1" xmlns="http://www.w3.org/2000/svg" xmlns:xlink="http://www.w3.org/1999/xlink" viewBox="0 0 128 128"><g><g><g><g><g><path d="M43.566 122.222a5.06 5.06 0 0 1-5.06 5.06c-2.78 0-5.041-2.271-5.041-5.06v-19.416c0-2.78 2.261-5.05 5.041-5.05 2.8 0 5.06 2.27 5.06 5.05v19.416z" fill="#2f2f2f"/><path d="M84.444 122.222c0 2.789 2.26 5.06 5.05 5.06s5.05-2.271 5.05-5.06v-19.416c0-2.78-2.26-5.05-5.05-5.05s-5.05 2.27-5.05 5.05v19.416z" fill="#2f2f2f"/><g><defs><path id="SVGID_1_" d="M115.232 87.758c0 12.808-10.375 23.183-23.184 23.183H35.953c-12.795 0-23.185-10.375-23.185-23.183V23.9C12.768 11.092 23.159.717 35.953.717h56.096c12.809 0 23.184 10.375 23.184 23.183v63.858z"/></defs><use xlink:href="#SVGID_1_" overflow="visible" fill="#fcc21b"/><clipPath id="SVGID_2_"><use xlink:href="#SVGID_1_" overflow="visible"/></clipPath></g><path d="M105.011 36.749c0 6.903-5.579 12.503-12.504 12.503H35.498c-6.898 0-12.503-5.6-12.503-12.503V20.938c0-6.898 5.604-12.492 12.503-12.492h57.009c6.925 0 12.504 5.595 12.504 12.492v15.811z" fill="#40c0e7"/></g><path d="M40.054 87.778c0 4.637-3.772 8.399-8.409 8.399-4.648 0-8.415-3.763-8.415-8.399a8.414 8.414 0 0 1 8.415-8.415c4.636 0 8.409 3.767 8.409 8.415z" fill="#fff"/><path d="M87.962 87.778c0 4.637 3.762 8.399 8.414 8.399 4.639 0 8.4-3.763 8.4-8.399 0-4.648-3.762-8.415-8.4-8.415a8.41 8.41 0 0 0-8.414 8.415z" fill="#fff"/></g></g></g></g></svg>