<svg id="レイヤー_1" xmlns="http://www.w3.org/2000/svg" xmlns:xlink="http://www.w3.org/1999/xlink" viewBox="0 0 128 128"><g><g><g><g><g><g><path d="M44.079 124.365A3.638 3.638 0 0 1 40.444 128a3.633 3.633 0 0 1-3.623-3.635v-13.964a3.633 3.633 0 0 1 3.623-3.636 3.638 3.638 0 0 1 3.635 3.636v13.964z" fill="#2f2f2f"/><path d="M73.48 124.365A3.629 3.629 0 0 0 77.11 128a3.64 3.64 0 0 0 3.636-3.635v-13.964a3.64 3.64 0 0 0-3.636-3.636 3.63 3.63 0 0 0-3.63 3.636v13.964z" fill="#2f2f2f"/><g><defs><path id="SVGID_1_" d="M95.616 99.572c0 9.217-7.461 16.675-16.673 16.675h-40.34c-9.202 0-16.669-7.458-16.669-16.675V53.653c0-9.205 7.467-16.67 16.669-16.67h40.34c9.212 0 16.673 7.465 16.673 16.67v45.919z"/></defs><use xlink:href="#SVGID_1_" overflow="visible" fill="#fcc21b"/><clipPath id="SVGID_2_"><use xlink:href="#SVGID_1_" overflow="visible"/></clipPath></g><path d="M88.265 62.897c0 4.958-4.019 8.988-8.988 8.988h-41c-4.955 0-8.982-4.03-8.982-8.988V51.533c0-4.969 4.027-8.991 8.982-8.991h40.999a8.983 8.983 0 0 1 8.988 8.991v11.364z" fill="#40c0e7"/></g><path d="M41.56 99.593a6.05 6.05 0 0 1-6.045 6.042 6.044 6.044 0 0 1-6.059-6.042 6.05 6.05 0 0 1 6.059-6.053c3.329 0 6.045 2.71 6.045 6.053z" fill="#fff"/><path d="M75.999 99.593c0 3.337 2.713 6.042 6.052 6.042 3.334 0 6.051-2.705 6.051-6.042a6.057 6.057 0 0 0-6.051-6.053 6.055 6.055 0 0 0-6.052 6.053z" fill="#fff"/></g></g></g></g><path d="M127.894 100.054V34.952a5.2 5.2 0 0 0-2.387-4.374L80.112 1.355a5.196 5.196 0 0 0-5.624 8.737l43.009 27.688v58.111h-12.218c-2.84 0-5.16 2.32-5.16 5.149v25.971H128V101.04c0-.336-.049-.667-.106-.986z" fill="#78a3ad"/></g></svg>