<svg xmlns="http://www.w3.org/2000/svg" xmlns:xlink="http://www.w3.org/1999/xlink" viewBox="0 0 128 128"><g id="图层_1"><g><g><g><defs/><use xlink:href="#SVGID_1_" overflow="visible" fill="#eee"/><clipPath id="SVGID_2_"><use xlink:href="#SVGID_1_" overflow="visible"/></clipPath></g><g><defs/><use xlink:href="#SVGID_3_" overflow="visible" fill="#40c0e7"/><clipPath id="SVGID_4_"><use xlink:href="#SVGID_3_" overflow="visible"/></clipPath></g></g></g><path d="M54.63 23.241c.256-.597.766-.854 1.16-1.293.481-.532.835-1.174 1.389-1.688.812-.738 1.816-2.008 2.798-2.54 1.059-.583 3.617-.17 4.499.614 1.127 1.009-.437 1.188-.995 2.027-.661 1 .398 3.59-.469 4.168-.541.363-2.471-.302-3.071-.398-.395-.07-5.229-1.074-5.311-.89z" fill="#e0e0e0"/><g><path d="M4.675 95.558c.188 2.398 6.135 4.852 7.878 5.494 4.53 1.656 10.436 3.196 15.238 3.508 14.179.926 20.631.642 30.902-1.247 18.435-3.384 44.266-14.17 44.266-14.17s10.414-3.072 16.314-7.034c4.641-3.113 5.086-7.263 4.986-7.63-.377-1.449-36.352 11.781-36.896 10.391-.234-.587-.368-1.797-.944-2.091-.506-.256-1.854.432-2.33.56-1.986.531-3.866.628-5.86.853-2.266.248-4.477 1.027-6.704 1.468-2.316.444-4.622.917-6.938 1.376-9.809 1.944-19.108 2.531-29.118 1.815-3.995-.289-7.911-.885-11.727-2.127-4.094-1.33-13.371-3.816-13.371-3.816s-5.82 10.981-5.696 12.65z" fill="#006ca2"/><g><path d="M44.434 92.087c15.819-.454 31.648-3.623 45.67-7.489 14.254-3.929 25.223-7.635 33.412-10.487.675-5.039 1.458-10.588-.463-15.417-.583-1.458-1.427-2.751-2.618-3.783-1.972-1.706-3.852-3.518-5.935-5.108-1.729-1.33-3.498-2.609-5.25-3.902C95.196 35.509 81.989 24.265 55.447 22.99c-20.03-.963-25.061 9.625-29.762 19.567-4.141 8.745-10.509 19.865-4.865 46.782 5.09 1.702 13.117 3.05 23.614 2.748z" fill="#e0e0e0"/></g><path d="M70.513 39.492c-2.341 9.044-11.411 10.489-21.936 9.696-10.542-.789-18.521-3.513-16.184-12.558 2.256-8.728 11.406-10.499 21.95-9.705 10.522.789 18.431 3.839 16.17 12.567z" fill="#40c0e7"/><path d="M89.782 45.276c4.77 1.715 33.294 13.674 33.294 13.674l.601 5.746-41.605-.661s-3.133-.275-4.411-2.714c-1.757-3.352-1.789-9.721-1.633-14.119.1-8.529 8.977-3.631 13.754-1.926z" fill="#006ca2"/><g fill="#40c0e7"><path d="M86.482 54.439c.561 4.998-.1 6.915-2.32 6.502-2.292-.436-3.525-2.82-4.126-8.089-.592-5.264.155-7.163 2.485-6.452 2.247.683 3.392 3.049 3.961 8.039z"/><path d="M94.687 56.007c.463 4.09-.037 5.658-1.738 5.328-1.752-.344-2.7-2.269-3.182-6.539-.487-4.265.068-5.82 1.843-5.292 1.714.505 2.613 2.422 3.077 6.503z"/><path d="M101.514 57.236c.386 3.379 0 4.677-1.334 4.407-1.371-.275-2.105-1.848-2.5-5.347-.398-3.489.019-4.783 1.404-4.389 1.336.395 2.049 1.963 2.43 5.329z"/><path d="M106.952 58.345c.312 2.706.019 3.747-1.009 3.531-1.036-.22-1.604-1.468-1.922-4.251-.312-2.774 0-3.811 1.052-3.517 1.027.294 1.577 1.541 1.879 4.237z"/><path d="M111.511 59.396c.236 2.068-.009 2.861-.816 2.696-.844-.17-1.293-1.133-1.541-3.279-.238-2.142.019-2.934.862-2.688.821.24 1.257 1.202 1.495 3.271z"/><path d="M115.661 60.326c.325 1.775.142 2.462-.597 2.339-.766-.128-1.225-.94-1.546-2.77-.325-1.815-.138-2.503.634-2.32.758.17 1.202.981 1.509 2.751z"/><path d="M119.031 61.102c.229 1.394.064 1.935-.536 1.843-.619-.1-.978-.738-1.216-2.178-.229-1.426-.064-1.967.56-1.825.619.133.969.775 1.192 2.16z"/><path d="M121.471 61.661c.181 1.115.064 1.55-.395 1.472-.468-.078-.747-.587-.931-1.738-.184-1.142-.06-1.573.408-1.458.469.105.735.615.918 1.724z"/></g><g><defs><path id="SVGID_5_" d="M56.173 90.913c6.115-.738 10.55-.527 15.241-4.911 6.905-6.452 7.126-16.999 6.126-25.978-.303-2.737-.852-5.438-1.247-8.18-.266-1.839-.233-3.197-.939-4.935-.794-1.949-.876-4.283-2.757-5.521-8.126-5.365-19.644-6.259-29.141-6.667-7.525-.321-14.899 1.257-21.897 4.09-17.576 7.112-23.79 29.87-11.189 44.095 3.723 4.205 9.203 6.553 17.504 8.172 4.892.958 17.723 1.119 28.299-.165z"/></defs><use xlink:href="#SVGID_5_" overflow="visible" fill="#e0e0e0"/><clipPath id="SVGID_6_"><use xlink:href="#SVGID_5_" overflow="visible"/></clipPath></g><g><path d="M59.749 67.783a4.944 4.944 0 0 1-4.789 5.104 4.954 4.954 0 0 1-.315-9.9 4.948 4.948 0 0 1 5.104 4.796z" fill="#fcc21b"/></g><path d="M23.976 81.035a19.12 19.12 0 0 1-2.399-.147C11.939 79.706 7.385 71.327 8 64.045c.261-3.159 1.003-7.782 4.305-11.4 1.211-1.325 4.687-4.43 10.822-4.672.271-.009.537-.014.799-.014 10.592 0 17.206 8.222 17.489 16.174.315 9.162-5.842 16.067-14.985 16.806-.607.042-1.207.069-1.805.087l-.649.009z" fill="#bdbdbd"/></g></g></svg>