<svg id="レイヤー_1" xmlns="http://www.w3.org/2000/svg" viewBox="0 0 128 128"><g><path d="M64.354 72.119c-3.307 0-5.985-2.234-5.985-4.977V53.225c0-2.738 2.679-4.971 5.985-4.971 3.302 0 5.992 2.217 5.992 4.971v13.918c0 2.742-2.691 4.976-5.992 4.976z" fill="#ed6c30"/><path d="M49.285 75.75c-3.307 0-5.979-2.23-5.979-4.967V56.865c0-2.748 2.672-4.977 5.979-4.977s5.996 2.217 5.996 4.977v13.918c0 2.737-2.689 4.967-5.996 4.967z" fill="#ed6c30"/><path fill="#2f2f2f" d="M26.441 95.775h95.413v15.91H26.441z"/><path fill="#ed6c30" d="M13.364 63.234h91.812v37.408H13.364z"/><path fill="#ed6c30" d="M77.942 39.582h43.919v61.061H77.942z"/><g><path d="M35.043 63.242c4.257 0 7.719 8.377 7.719 18.705 0 10.33-3.462 18.703-7.719 18.703-4.268 0-7.728-8.373-7.728-18.703 0-10.328 3.46-18.705 7.728-18.705z" fill="#2f2f2f"/><path d="M35.043 101.689c-4.916 0-8.768-8.674-8.768-19.742 0-11.07 3.852-19.744 8.768-19.744 4.911 0 8.756 8.674 8.756 19.744 0 11.069-3.845 19.742-8.756 19.742zm0-37.408c-3.161 0-6.688 7.256-6.688 17.666s3.526 17.664 6.688 17.664c3.159 0 6.679-7.254 6.679-17.664 0-10.41-3.52-17.666-6.679-17.666z" fill="#fcc21b"/></g><path fill="#2f2f2f" d="M13.795 63.213H35.57v37.926H13.795z"/><path fill="#2f2f2f" d="M71.955 32.656h55.892v6.926H71.955z"/><path fill="#2f2f2f" d="M35.443 63.234H20.922l-9.053-29.3h32.618z"/><path fill="#2f2f2f" d="M39.84 23.565H16.306l-4.437 10.369h32.618z"/><path fill="#2f2f2f" d="M.153 120.191h28.52v-19.548H13.364z"/><path d="M116.513 45.547a2.804 2.804 0 0 0-2.812-2.803h-12.514c-1.56 0-2.827 1.258-2.827 2.803v21.645c0 1.549 1.268 2.803 2.827 2.803h12.514a2.794 2.794 0 0 0 2.812-2.803V45.547z" fill="#fff"/><path fill="#2f2f2f" d="M.153 114.26h28.52v5.932H.153z"/><g><path d="M82.793 105.021c0 8.531-6.906 15.441-15.425 15.441-8.532 0-15.45-6.91-15.45-15.441 0-8.529 6.918-15.438 15.45-15.438 8.519.001 15.425 6.909 15.425 15.438z" fill="#78a3ad"/></g><g><path d="M76.252 105.021a8.894 8.894 0 0 1-8.893 8.896c-4.915 0-8.906-3.982-8.906-8.896 0-4.916 3.991-8.889 8.906-8.889 4.912.001 8.893 3.973 8.893 8.889z" fill="#2f2f2f"/></g><g><path d="M113.677 105.021c0 8.531-6.907 15.441-15.43 15.441-8.531 0-15.454-6.91-15.454-15.441 0-8.529 6.923-15.438 15.454-15.438 8.523.001 15.43 6.909 15.43 15.438z" fill="#78a3ad"/></g><g><path d="M107.132 105.021a8.894 8.894 0 0 1-8.897 8.896c-4.911 0-8.9-3.982-8.9-8.896 0-4.916 3.989-8.889 8.9-8.889 4.916.001 8.897 3.973 8.897 8.889z" fill="#2f2f2f"/></g><path d="M70.037 104.246a2.583 2.583 0 0 1-2.576-2.588 2.578 2.578 0 0 1 2.576-2.576h25.54a2.575 2.575 0 0 1 2.571 2.576 2.58 2.58 0 0 1-2.571 2.588h-25.54z" fill="#fff"/><g><g><path d="M50.472 109.57c0 6.021-4.883 10.893-10.887 10.893-6.031 0-10.905-4.871-10.905-10.893 0-6.023 4.874-10.885 10.905-10.885 6.004-.009 10.887 4.862 10.887 10.885z" fill="#78a3ad"/></g></g><path fill="#fcc21b" d="M58.332 54.029h12.006v7.693H58.332z"/><path fill="#fcc21b" d="M43.358 56.799h11.899v5.027H43.358z"/><g><path d="M13.364 63.234c4.271 0 7.724 8.373 7.724 18.705 0 10.326-3.453 18.703-7.724 18.703-4.258 0-7.715-8.377-7.715-18.703 0-10.332 3.457-18.705 7.715-18.705z" fill="#2f2f2f"/><path d="M13.364 101.684c-4.907 0-8.755-8.676-8.755-19.744 0-11.07 3.848-19.744 8.755-19.744 4.917 0 8.764 8.674 8.764 19.744 0 11.068-3.847 19.744-8.764 19.744zm0-37.411c-3.153 0-6.674 7.254-6.674 17.666 0 10.41 3.521 17.664 6.674 17.664 3.162 0 6.683-7.254 6.683-17.664 0-10.412-3.521-17.666-6.683-17.666z" fill="#fcc21b"/></g><path fill="#2f2f2f" d="M10.586 32.688h35.182v2.631H10.586z"/></g></svg>