<svg id="レイヤー_1" xmlns="http://www.w3.org/2000/svg" viewBox="0 0 128 128"><g><g><path fill="#78a3ad" d="M49.427 37.638h5.128v13.336h-5.128z"/><path fill="#78a3ad" d="M46.714 44.36h10.549v6.889H46.714z"/><g fill="#78a3ad"><path d="M21.37 115.114c-1.209 0-3.665-.389-5.672-2.252-1.902-1.773-2.869-4.268-2.869-7.408a2.053 2.053 0 0 1 4.104 0c0 1.957.52 3.439 1.562 4.408 1.297 1.211 2.947 1.145 2.947 1.145l53.765-.006c1.136 0 2.053.922 2.053 2.053a2.047 2.047 0 0 1-2.053 2.049H21.691c-.091.007-.2.011-.321.011z"/><path d="M29.952 115.103c-.095 0-.191-.004-.283-.016a2.052 2.052 0 0 1-1.751-2.316l2.178-15.641a2.038 2.038 0 0 1 2.318-1.748 2.042 2.042 0 0 1 1.746 2.312l-2.18 15.643a2.051 2.051 0 0 1-2.028 1.766z"/><path d="M61.91 115.103c-.904 0-1.734-.6-1.979-1.521L55.18 95.774a2.045 2.045 0 0 1 1.445-2.508 2.056 2.056 0 0 1 2.514 1.451l4.76 17.805a2.059 2.059 0 0 1-1.454 2.514 2.114 2.114 0 0 1-.535.067z"/></g><path d="M103.308 33.628c0 3.945-22.973 7.152-51.317 7.152-28.343 0-51.318-3.207-51.318-7.152 0-3.947 22.976-7.154 51.318-7.154 28.344 0 51.317 3.207 51.317 7.154z" fill="#40c0e7"/><path d="M35.57 48.136c-.064.01-.096.018-.151.031-3.555.502-7.934 1.852-12.069 5.057-5.119 3.975-9.186 10.023-11.006 15.357-.019.029-.06.086-.06.086s-.829 2.826-2.368 5.504c-.89 1.555-1.889 2.998-2.195 3.381-1.53 1.924-3.55 5.201-4.087 8.566-.821 5.154 1.599 10.498 8.551 11.541 0 0 6.767 1.188 15.71 1.188h24.341s8.57-.236 14.318-6.564c7.096-7.801 10.514-18.889 10.514-18.889V58.833c-.001 0-18.13-14.447-41.498-10.697z" fill="#ed6c30"/><g><path d="M26.42 56.888c6.664-5.178 14.139-4.721 16.051-4.344 3.678.727 3.949 3.436 3.949 6.408v15.621c0 3.789-3.071 5.059-6.826 5.059h-18.68c-9.247-.004-3.878-15.469 5.506-22.744z" fill="#fff"/></g><g><path d="M127.328 58.456c0 6.477-5.253 11.721-11.729 11.721-6.471 0-11.719-5.244-11.719-11.721 0-6.475 5.248-11.715 11.719-11.715 6.476 0 11.729 5.24 11.729 11.715z" fill="#40c0e7"/></g><g><path d="M119.471 57.63a3.959 3.959 0 0 1-3.037 4.697 3.955 3.955 0 0 1-1.662-7.734 3.96 3.96 0 0 1 4.699 3.037z" fill="#ed6c30"/></g><path fill="#ed6c30" d="M114.771 54.593l-54.976 3.392 3.999 19.543 52.64-15.201z"/></g></g></svg>