<svg id="レイヤー_1" xmlns="http://www.w3.org/2000/svg" xmlns:xlink="http://www.w3.org/1999/xlink" viewBox="0 0 128 128"><g><g><path fill="#78a3ad" d="M.186 82.715h127.628V100H.186z"/><path fill="#78a3ad" d="M70.267 127.642H57.741l1.774-44.791h8.979z"/><path fill="#78a3ad" d="M106.796 127.642H94.271l1.773-44.791h8.976z"/><path fill="#78a3ad" d="M33.741 127.642H21.215l1.774-44.791h8.979z"/><path fill="#2f2f2f" d="M.186 86.776h127.628v2.443H.186z"/></g><g><g><defs><path id="SVGID_1_" d="M119.273 74.706c.735-1.414.52-3.59-.479-4.832L102.148 49.16c-.998-1.241-3.122-2.259-4.711-2.259H30.575c-1.597 0-3.717 1.018-4.715 2.259L9.21 69.875c-.994 1.242-1.211 3.418-.479 4.832l2.855 5.501c.73 1.414 2.635 2.572 4.232 2.572h.14c1.594 0 4.185.22 5.754.487 0 0 1.518.26 2.887 1.598 1.182 1.153 3.067 4.896 3.761 6.812 1.17 3.254 2.451 3.442 2.451 3.442 1.582.231 4.177.419 5.77.419H91.32c1.593 0 4.185-.188 5.766-.419 0 0 1.282-.188 2.456-3.442.69-1.916 2.576-5.658 3.757-6.812 1.374-1.338 2.883-1.598 2.883-1.598 1.569-.267 4.164-.487 5.756-.487h.252c1.589 0 3.494-1.158 4.232-2.572l2.851-5.502z"/></defs><use xlink:href="#SVGID_1_" overflow="visible" fill="#006ca2"/><clipPath id="SVGID_2_"><use xlink:href="#SVGID_1_" overflow="visible"/></clipPath><path clip-path="url(#SVGID_2_)" fill="#40c0e7" d="M4.214 74.335h119.575v3.877H4.214z"/></g><g><g><g><g><g><path d="M34.602 53.872c-1.598 0-3.854 1.263-5.014 2.808l-8.319 11.074c-1.16 1.544-.529 2.808 1.402 2.808h11.325a3.521 3.521 0 0 0 3.511-3.511v-9.667c0-1.932-1.307-3.512-2.905-3.512z" fill="#fff"/></g></g></g></g><g><g><g><path d="M48.419 53.872a3.946 3.946 0 0 0-3.934 3.934v8.821a3.946 3.946 0 0 0 3.934 3.934h7.899a3.946 3.946 0 0 0 3.934-3.934v-8.821a3.946 3.946 0 0 0-3.934-3.934h-7.899z" fill="#fff"/></g></g></g><g><g><g><path d="M71.166 53.872a3.945 3.945 0 0 0-3.934 3.934v8.821a3.946 3.946 0 0 0 3.934 3.934h7.903a3.946 3.946 0 0 0 3.934-3.934v-8.821a3.946 3.946 0 0 0-3.934-3.934h-7.903z" fill="#fff"/></g></g></g><g><g><g><path d="M92.884 53.872c1.595 0 3.85 1.263 5.01 2.807l8.326 11.076c1.161 1.543.53 2.807-1.401 2.807H93.494a3.521 3.521 0 0 1-3.511-3.511v-9.667c0-1.932 1.305-3.512 2.901-3.512z" fill="#fff"/></g></g></g></g></g></g></svg>