<svg id="レイヤー_1" xmlns="http://www.w3.org/2000/svg" viewBox="0 0 128 128"><g><g><g><g><g><path d="M103.996 58.978c3.264 4.442 5.694 9.294 8.18 11.78 2.485 2.486 5.456 5.611 10.235 10.392 4.781 4.778 7.522 15.864 2.75 23.523-2.764 4.451-7.219 7.101-12.501 7.101H15.413c-3.497 0-6.841-.594-11.675-5.428-5.232-5.229-3.788-17.83.181-22.244 5.171-5.769 16.713-7.312 20.478-11.078 3.756-3.765 5.521-10.106 9.085-15.303 5.885-8.567 13.973-11.497 22.481-11.497h22.729c12.273 0 20.168 5.772 25.304 12.754z" fill="#006ca2"/></g></g></g></g><g><path d="M39.795 109.435c0 6.378-5.171 11.546-11.546 11.546-6.384 0-11.557-5.168-11.557-11.546 0-6.385 5.173-11.542 11.557-11.542 6.375 0 11.546 5.157 11.546 11.542z" fill="#2f2f2f"/></g><g><path d="M109.562 109.435c0 6.378-5.172 11.546-11.552 11.546-6.378 0-11.552-5.168-11.552-11.546 0-6.385 5.174-11.542 11.552-11.542 6.38 0 11.552 5.157 11.552 11.542z" fill="#2f2f2f"/></g><path d="M60.915 74.104c0 2.915-1.878 3.887-4.167 3.887H40.444c-5.638-.004-2.604-8.516 2.906-14.561 5.511-6.042 13.982-6.521 15.152-6.229 2.249.562 2.412 2.641 2.412 4.918l.001 11.985zm5.488 0c0 2.915 2.71 3.887 6.027 3.887h23.569c8.151-.004 3.423-11.869-4.866-17.46-5.891-3.966-19.558-3.623-21.244-3.33-3.254.562-3.486 2.641-3.486 4.918v11.985z" fill="#40c0e7"/></g></svg>