<svg id="レイヤー_1" xmlns="http://www.w3.org/2000/svg" viewBox="0 0 128 128"><g><path d="M55.009 35.338c0-6.769 2.021-12.251 8.425-12.251 6.395 0 8.42 5.481 8.42 12.251H55.009z" fill="#ed6c30"/><path d="M71.062 37.984H55.806a2.872 2.872 0 0 0-2.876 2.872v5.46a2.873 2.873 0 0 0 2.876 2.876h15.256a2.877 2.877 0 0 0 2.871-2.876v-5.46a2.876 2.876 0 0 0-2.871-2.872z" fill="#2f2f2f"/><g><g><g><g fill="#ed6c30"><path d="M49.396 28.015l-12.971-5.948a1.488 1.488 0 0 0-1.33.054 1.488 1.488 0 0 0-.759 1.101l-1.127 8.137c-.067.465.093.931.429 1.261.283.277.658.431 1.047.431.075 0 .151-.009.228-.019l14.085-2.194a1.486 1.486 0 0 0 .398-2.823z"/><path d="M92.525 23.221a1.473 1.473 0 0 0-.755-1.101 1.474 1.474 0 0 0-1.337-.054l-12.968 5.948a1.476 1.476 0 0 0-.85 1.555 1.485 1.485 0 0 0 1.242 1.267l14.094 2.194a1.48 1.48 0 0 0 1.27-.412 1.49 1.49 0 0 0 .43-1.261l-1.126-8.136z"/></g></g></g></g><path d="M122.02 78.06c-4.677-4.677-11.996-6.135-11.996-6.135s-3.828-9.954-7.053-14.283C94.18 45.843 83.195 43.208 65.382 43.208c-12.313 0-24.529.465-34.538 13.074-3.827 4.831-10.106 15.643-10.106 15.643s-11.095 1.15-16.16 6.789C.7 83.037-1.128 98.691 3.996 103.812c4.329 4.332 9.006 6.623 12.396 6.99 0-.39.022-.769.058-1.151.107-1.175.37-2.301.761-3.365 1.881-5.18 6.841-8.9 12.668-8.9 5.82 0 10.78 3.72 12.663 8.908a13.4 13.4 0 0 1 .818 4.579h41.295c0-1.609.305-3.148.823-4.579 1.882-5.188 6.841-8.908 12.672-8.908 5.822 0 10.777 3.72 12.664 8.908.514 1.423.814 2.955.814 4.556 0 .005.004.016.004.023h.845c5.169 0 9.524-2.6 12.235-6.954 4.67-7.489 1.987-21.182-2.692-25.859z" fill="#2f2f2f"/><path d="M6.147 86.517c.462-2.15 1.105-3.922 1.843-4.746 3.152-3.515 10.62-5.017 13.222-5.294a4.583 4.583 0 0 0 3.489-2.253c.056-.106 6.152-10.58 9.739-15.098 8.354-10.525 18.092-11.339 30.942-11.339 18.576 0 26.813 3.059 33.922 12.593 2.326 3.125 5.438 10.58 6.444 13.186a4.613 4.613 0 0 0 3.363 2.844c.062.016 6.067 1.285 9.672 4.888 1.042 1.042 1.977 2.942 2.664 5.22H6.147z" fill="#fff"/><path d="M29.879 100.82c-3.9 0-7.235 2.237-8.904 5.474a9.888 9.888 0 0 0-1.112 4.168c-.004.144-.041.269-.041.411 0 5.554 4.503 10.052 10.058 10.052 5.544 0 10.042-4.498 10.042-10.052 0-1.66-.438-3.203-1.153-4.579-1.665-3.236-5-5.474-8.89-5.474z" fill="#2f2f2f"/><path d="M98.15 100.82c-3.898 0-7.233 2.237-8.902 5.474-.72 1.376-1.157 2.919-1.157 4.579 0 5.554 4.497 10.052 10.06 10.052 5.545 0 10.049-4.498 10.049-10.052 0-1.66-.443-3.203-1.154-4.579-1.669-3.236-5.005-5.474-8.896-5.474z" fill="#2f2f2f"/><path d="M56.695 53.682c-1.146-.287-9.44.182-14.824 6.099-5.393 5.911-8.371 14.246-2.853 14.246h15.954c2.242 0 4.078-.951 4.078-3.8V58.491c.001-2.225-.155-4.261-2.355-4.809z" fill="#40c0e7"/><path d="M88.091 56.944c-5.756-3.886-19.131-3.55-20.785-3.263-3.18.549-3.416 2.584-3.416 4.81v11.735c0 2.849 2.656 3.8 5.907 3.8h23.059c7.979 0 3.352-11.618-4.765-17.082z" fill="#40c0e7"/></g></svg>