<svg id="レイヤー_1" xmlns="http://www.w3.org/2000/svg" viewBox="0 0 128 128"><g><path fill="#78a3ad" d="M.273 23.331h127.453v9.513H.273z"/><path fill="#2f2f2f" d="M.273 25.509h127.453v2.44H.273z"/><g fill="#78a3ad"><g><circle cx="59.855" cy="20.597" r="4.133"/><circle cx="68.121" cy="20.597" r="4.133"/></g><path d="M59.223 15.373h9.534v21.729h-9.534z"/></g><g fill="#78a3ad"><g><circle cx="89.627" cy="20.597" r="4.133"/><path d="M102.021 20.597a4.13 4.13 0 1 1-8.26-.001 4.13 4.13 0 0 1 8.26.001z"/></g><path d="M88.996 15.373h9.529v21.729h-9.529z"/></g><g fill="#78a3ad"><g><path d="M34.22 20.597a4.137 4.137 0 0 1-4.134 4.13 4.129 4.129 0 0 1-4.131-4.13 4.13 4.13 0 0 1 4.131-4.131 4.137 4.137 0 0 1 4.134 4.131z"/><circle cx="38.35" cy="20.597" r="4.131"/></g><path d="M29.455 15.373h9.529v21.729h-9.529z"/></g><g fill="#f79329"><path d="M17.119 42.374a3.384 3.384 0 0 0-3.377 3.374v35.437c0 1.858 1.368 4.035 3.046 4.833l6.3 3.015c1.675.805 4.565 1.459 6.419 1.459h68.981c1.854 0 4.745-.654 6.419-1.459l6.3-3.015c1.674-.798 3.046-2.975 3.046-4.833V45.748a3.384 3.384 0 0 0-3.377-3.374H17.119z"/><path d="M17.259 36.019h93.479v9.027H17.259z"/></g><g><g><g><path d="M89.709 69.048a2.347 2.347 0 0 0 2.341 2.344h12.077a2.347 2.347 0 0 0 2.34-2.344V51.465a2.345 2.345 0 0 0-2.34-2.336H92.05a2.346 2.346 0 0 0-2.341 2.336v17.583z" fill="#fff"/></g><g><path d="M69.323 49.129a2.346 2.346 0 0 0-2.341 2.336v17.583a2.347 2.347 0 0 0 2.341 2.344h12.073a2.349 2.349 0 0 0 2.344-2.344V51.465a2.346 2.346 0 0 0-2.344-2.336H69.323z" fill="#fff"/></g></g><g><path d="M46.6 49.129a2.345 2.345 0 0 0-2.34 2.336v17.583a2.346 2.346 0 0 0 2.34 2.344h12.069a2.348 2.348 0 0 0 2.344-2.344V51.465a2.346 2.346 0 0 0-2.344-2.336H46.6z" fill="#fff"/></g><g><path d="M23.874 49.129a2.346 2.346 0 0 0-2.341 2.336v17.583a2.347 2.347 0 0 0 2.341 2.344h12.069a2.349 2.349 0 0 0 2.345-2.344V51.465a2.346 2.346 0 0 0-2.345-2.336H23.874z" fill="#fff"/></g></g></g></svg>