<svg id="レイヤー_1" xmlns="http://www.w3.org/2000/svg" viewBox="0 0 128 128"><g><g><path d="M80.665 35.347c0 2.189-1.805 3.994-3.993 3.994H51.328c-2.195 0-3.992-1.805-3.992-3.994v-10.79a4.004 4.004 0 0 1 3.992-3.994h25.344a4.009 4.009 0 0 1 3.993 3.994v10.79z" fill="#2f2f2f"/><g fill="#fff"><path d="M62.406 25.36h-1.684a.153.153 0 0 0-.144.103l-2.717 7.201a.164.164 0 0 0 .021.154c.022.044.078.064.132.064h1.771a.161.161 0 0 0 .155-.107l.407-1.238h2.425l.412 1.238a.156.156 0 0 0 .154.107h1.776c.051 0 .1-.021.127-.064a.193.193 0 0 0 .028-.154l-2.713-7.201a.16.16 0 0 0-.15-.103zm-1.546 4.654l.697-2.124.71 2.124H60.86z"/><path d="M76.32 25.36h-1.776c-.09 0-.16.077-.16.165v7.192c0 .096.07.165.16.165h1.776a.162.162 0 0 0 .163-.165v-7.192a.168.168 0 0 0-.163-.165z"/><path d="M71.062 29.15l2.375-3.537a.173.173 0 0 0 .012-.165.162.162 0 0 0-.144-.088h-2.008a.172.172 0 0 0-.131.072l-1.337 1.941-1.323-1.941a.18.18 0 0 0-.135-.072h-2.007a.159.159 0 0 0-.138.088.152.152 0 0 0 .005.165l2.377 3.537-2.392 3.481c-.04.048-.04.109-.007.164a.15.15 0 0 0 .144.088h2.111c.045 0 .099-.021.122-.069l1.242-1.843 1.248 1.843a.143.143 0 0 0 .132.069h2.107a.151.151 0 0 0 .143-.088.152.152 0 0 0-.004-.164l-2.392-3.481z"/><path d="M58.726 26.745v-1.297a.164.164 0 0 0-.159-.165h-6.892c-.089 0-.157.077-.157.165v1.297c0 .09.068.165.157.165h2.492v5.808c0 .096.076.165.165.165h1.572a.16.16 0 0 0 .164-.165V26.91h2.498c.088 0 .16-.075.16-.165z"/></g></g><g><g fill="#2f2f2f"><path d="M93.347 120.067c0 4.377 3.531 7.933 7.909 7.933 4.376 0 7.908-3.556 7.908-7.933V87.993c0-4.356-3.532-7.909-7.908-7.909-4.378 0-7.909 3.553-7.909 7.909v32.074z"/><path d="M19.369 120.067c0 4.377 3.535 7.933 7.908 7.933 4.378 0 7.914-3.556 7.914-7.933V87.993a7.915 7.915 0 0 0-7.914-7.909c-4.373 0-7.908 3.553-7.908 7.909v32.074z"/></g><path d="M106.229 72.539H21.765c-6.581 0-11.971 4.202-11.971 9.327v25.046a4.004 4.004 0 0 0 3.995 3.994h100.425a4.009 4.009 0 0 0 3.993-3.994V81.866c0-5.125-5.391-9.327-11.978-9.327z" fill="#fcc21b"/><g><g><g fill="#fff"><path d="M35.268 90.435c0 4.187-3.409 7.589-7.6 7.589a7.593 7.593 0 0 1-7.59-7.589 7.591 7.591 0 0 1 7.59-7.59c4.19 0 7.6 3.398 7.6 7.59z"/><path d="M93.754 90.435c0 4.187 3.399 7.589 7.597 7.589 4.185 0 7.589-3.402 7.589-7.589a7.594 7.594 0 0 0-15.186 0z"/></g></g></g><path d="M108.01 68.293v-.033l-6.533-24.122c-1.172-4.312-5.786-7.854-10.263-7.854H36.786c-4.476 0-9.096 3.542-10.267 7.854L19.99 68.26c-.012.01-.012.033-.012.043l-2.116 7.812h92.279l-2.131-7.822z" fill="#fcc21b"/><path d="M93.754 47.481c-.473-2.188-2.678-3.978-4.917-3.978H39.162c-2.244 0-4.454 1.789-4.923 3.978l-4.411 20.724c-.466 2.188.985 3.98 3.22 3.98h61.9c2.243 0 3.691-1.792 3.217-3.98l-4.411-20.724z" fill="#40c0e7"/></g></g></svg>