<svg id="レイヤー_1" xmlns="http://www.w3.org/2000/svg" viewBox="0 0 128 128"><g><g><g fill="#2f2f2f"><path d="M95.969 119.363c0 4.764 3.85 8.637 8.612 8.637 4.763 0 8.612-3.873 8.612-8.637V84.428a8.612 8.612 0 1 0-17.224 0v34.935z"/><path d="M15.396 119.363c0 4.764 3.85 8.637 8.613 8.637 4.762 0 8.616-3.873 8.616-8.637V84.428a8.616 8.616 0 0 0-8.616-8.613 8.612 8.612 0 0 0-8.613 8.613v34.935z"/></g><g><path d="M119.24 69.46c-1.943-4.37-7.446-7.944-12.227-7.944H20.989c-4.782 0-10.285 3.575-12.229 7.944l-1.035 2.327c-1.944 4.369-3.534 11.266-3.534 15.326 0 4.06.796 10.782 1.769 14.938.973 4.155 5.682 7.555 10.463 7.555h95.138c4.782 0 9.494-3.4 10.471-7.555.977-4.155 1.776-10.877 1.776-14.938 0-4.06-1.59-10.957-3.533-15.327l-1.035-2.326z" fill="#ed6c30"/></g><g><g><g fill="#fff"><path d="M32.708 89.158c0 4.561-3.707 8.263-8.266 8.263-4.581 0-8.277-3.702-8.277-8.263a8.271 8.271 0 1 1 16.543 0z"/><path d="M96.407 89.158c0 4.561 3.714 8.263 8.284 8.263 4.554 0 8.26-3.702 8.26-8.263 0-4.565-3.706-8.273-8.26-8.273-4.57.001-8.284 3.708-8.284 8.273z"/></g></g></g><path d="M116.642 61.539c-.005-.01-.005-.023-.005-.039l-7.814-30.42c-1.102-4.269-4.736-7.897-8.839-9.285-.521-.196-11.276-4.256-36.378-4.256-21.684 0-31.931 3.023-34.636 3.983-4.477 1.098-8.604 4.96-9.78 9.558L11.37 61.5v.06l-2.53 9.844h110.333l-2.531-9.865z" fill="#ed6c30"/></g><path d="M104.262 56.071l-5.137-22.253c-.5-2.154-2.486-3.97-4.675-4.4h.192s-9.074-2.794-30.963-2.794c-21.505 0-29.794 2.696-30.08 2.789-2.199.413-4.219 2.237-4.726 4.405l-5.118 22.253c-.571 2.474 1.033 4.498 3.573 4.498h73.354c2.541 0 4.152-2.024 3.58-4.498z" fill="#40c0e7"/></g></svg>