<svg id="レイヤー_1" xmlns="http://www.w3.org/2000/svg" viewBox="0 0 128 128"><g><path d="M127.557 41.189a3.237 3.237 0 0 0-3.23-3.23h-69.17a3.235 3.235 0 0 0-3.225 3.23v50.58h75.625v-50.58z" fill="#757f3f"/><path fill="#2f2f2f" d="M75.268 40.962h3.417v47.453h-3.417z"/><path fill="#2f2f2f" d="M100.131 40.962h3.417v47.453h-3.417z"/><path d="M51.931 91.77V45.718H34.386c-3.163 0-7.771 2.402-8.483 7.9-1.046 8.078-3.448 20.146-3.448 20.146l-15.854 5.95S.444 81.707.444 89.286v15.153c0 2.054 2.523 4.848 4.418 4.848h119.465a3.235 3.235 0 0 0 3.23-3.23V91.77H51.931z" fill="#78a3ad"/><g><g><path d="M47.985 70.157a3.237 3.237 0 0 1-3.225 3.23H32.117c-1.779 0-3.025-1.437-2.767-3.194l2.229-15.396c.253-1.756 1.917-3.198 3.688-3.198h9.493a3.242 3.242 0 0 1 3.225 3.23v15.328z" fill="#fff"/></g></g><g><path d="M37.536 109.287c0 6.211-5.04 11.236-11.246 11.236-6.215 0-11.25-5.025-11.25-11.236 0-6.218 5.036-11.237 11.25-11.237 6.206 0 11.246 5.019 11.246 11.237z" fill="#2f2f2f"/></g><g><path d="M105.296 109.287c0 6.211-5.04 11.236-11.246 11.236-6.215 0-11.25-5.025-11.25-11.236 0-6.218 5.036-11.237 11.25-11.237 6.205 0 11.246 5.019 11.246 11.237z" fill="#2f2f2f"/></g></g></svg>