<svg id="レイヤー_1" xmlns="http://www.w3.org/2000/svg" viewBox="0 0 128 128"><g><g fill="#2f2f2f"><path d="M65.212 62.126a2.178 2.178 0 0 1-1.552-.639 2.203 2.203 0 0 1 0-3.112l7.005-7.002a2.193 2.193 0 0 1 3.104 0 2.19 2.19 0 0 1 0 3.108l-7.001 7.006c-.429.43-.999.639-1.556.639z"/><path d="M77.977 59.781a2.177 2.177 0 0 1-1.556-.64L65.709 48.426a2.198 2.198 0 0 1 0-3.108 2.193 2.193 0 0 1 3.104 0L79.53 56.034c.858.858.858 2.25 0 3.107-.43.43-.991.64-1.553.64z"/></g><g fill="#2f2f2f"><path d="M39.589 45.34H51.46v44.24H39.589z"/><path d="M55.6 57.425h11.866v35.454H55.6z"/><path d="M43.149 47.54h5.089v-7.125c.013-.104.141-2.724-1.812-4.828-1.47-1.575-3.602-2.373-6.326-2.373v5.084c.849 0 1.99.128 2.569.726.497.502.488 1.259.488 1.265l-.008 7.251z"/></g><path d="M99.899 67.023a3.16 3.16 0 0 1-3.154-3.153V41.579a3.157 3.157 0 0 1 3.154-3.149h3.13a3.16 3.16 0 0 1 3.158 3.149V63.87a3.164 3.164 0 0 1-3.158 3.153h-3.13z" fill="#2f2f2f"/><path fill="#ed6c30" d="M66.951 11.311v6.225h35.161l6.6 6.96h10.251V11.311z"/><path fill="#ed6c30" d="M110.889 19.37h5.153v46.7h-5.153z"/><path d="M70.086 73.199l-4.838-3.036c6.769-10.78 18.398-17.211 31.127-17.211 11.045 0 21.391 4.898 28.393 13.442l-4.413 3.618a30.898 30.898 0 0 0-23.979-11.351c-10.749.001-20.576 5.437-26.29 14.538z" fill="#ed6c30"/><path d="M55.6 90.377V57.462H16.262c-6.672 0-11.268 4.413-11.268 10.89v30.296h117.333v-8.271H55.6z" fill="#ed6c30"/><g><g><path d="M35.655 103.24c0 9.753-7.91 17.653-17.659 17.653-9.757 0-17.667-7.9-17.667-17.653 0-9.758 7.91-17.645 17.667-17.645 9.749 0 17.659 7.886 17.659 17.645z" fill="#2f2f2f"/><path d="M25.071 103.24a7.077 7.077 0 1 1-14.154 0 7.07 7.07 0 0 1 7.075-7.07 7.07 7.07 0 0 1 7.079 7.07z" fill="#ed6c30"/></g><g><path d="M127.67 89.62c0 17.28-14.016 31.273-31.277 31.273-17.289 0-31.296-13.993-31.296-31.273 0-17.284 14.007-31.263 31.296-31.263 17.262 0 31.277 13.979 31.277 31.263z" fill="#2f2f2f"/><path d="M111.377 89.62c0 8.279-6.709 14.989-14.993 14.989-8.274 0-14.975-6.71-14.975-14.989s6.7-14.965 14.975-14.965c8.284 0 14.993 6.686 14.993 14.965z" fill="#ed6c30"/></g></g></g></svg>