<svg id="レイヤー_1" xmlns="http://www.w3.org/2000/svg" viewBox="0 0 128 128"><g><path fill="#ed6c30" d="M63.618 98.611h10.428v9.48H63.618z"/><path fill="#ed6c30" d="M63.618 98.611h10.428v9.48H63.618z"/><path fill="#78a3ad" d="M84.665 94.501h40.29v19.434h-40.29z"/><g><g><path d="M52.124 105.928V62.873H28.332c-2.436 0-5.992 1.852-6.536 6.091-.804 6.225-2.66 15.527-2.66 15.527L4.899 86.416s-4.74 1.537-4.74 7.377v16.379c0 1.584 1.945 3.736 3.403 3.736h73.879a2.493 2.493 0 0 0 2.485-2.488v-5.492H52.124z" fill="#ed6c30"/><g><g><path d="M37.056 81.71a2.49 2.49 0 0 1-2.484 2.488h-7.987c-1.367 0-2.33-1.106-2.129-2.462l1.71-11.864c.204-1.355 1.478-2.462 2.844-2.462h5.562a2.493 2.493 0 0 1 2.484 2.489V81.71z" fill="#fff"/></g></g><g><path d="M25.873 113.908a7.012 7.012 0 0 1-7.014 7.01 7.01 7.01 0 1 1 0-14.02 7.01 7.01 0 0 1 7.014 7.01z" fill="#2f2f2f"/></g><g><path d="M64.354 113.908a7.013 7.013 0 0 1-7.013 7.01 7.008 7.008 0 0 1-7.014-7.01 7.006 7.006 0 0 1 7.014-7.01 7.011 7.011 0 0 1 7.013 7.01z" fill="#2f2f2f"/></g><g><path d="M78.381 113.908a7.01 7.01 0 0 1-7.01 7.01 7.01 7.01 0 1 1 0-14.02c3.87 0 7.01 3.134 7.01 7.01z" fill="#2f2f2f"/></g><g><path d="M108.624 113.908a7.01 7.01 0 0 1-7.01 7.01 7.008 7.008 0 0 1-7.017-7.01 7.006 7.006 0 0 1 7.017-7.01c3.87 0 7.01 3.134 7.01 7.01z" fill="#2f2f2f"/></g><g><path d="M122.655 113.908a7.013 7.013 0 0 1-7.013 7.01c-3.874 0-7.018-3.136-7.018-7.01a7.012 7.012 0 0 1 7.018-7.01 7.011 7.011 0 0 1 7.013 7.01z" fill="#2f2f2f"/></g></g><path fill="#78a3ad" d="M41.881 62.873h10.243v38.167H41.881z"/><path d="M49.05 64.77h-4.388v-6.144c-.015-.093-.127-2.352 1.562-4.166 1.266-1.359 3.1-2.052 5.458-2.052V56.8c-.734 0-1.718.107-2.223.622-.425.438-.418 1.084-.418 1.092l.009 6.256z" fill="#78a3ad"/><path d="M46.854 106.613a2.191 2.191 0 0 1-2.192-2.192v-6.143c0-1.211.981-2.196 2.192-2.196s2.196.985 2.196 2.196v6.143a2.195 2.195 0 0 1-2.196 2.192z" fill="#78a3ad"/></g><path fill="#ed6c30" d="M57.175 51.842h70.668v48.82H57.175z"/><g fill="#f79329"><path d="M69.887 56.437h2.685v39.63h-2.685z"/><path d="M84.232 56.437h2.681v39.63h-2.681z"/><path d="M98.566 56.437h2.685v39.63h-2.685z"/><path d="M112.913 56.437h2.681v39.63h-2.681z"/></g></g></svg>