<svg id="レイヤー_1" xmlns="http://www.w3.org/2000/svg" viewBox="0 0 128 128"><g><g fill="#ed6c30"><path d="M50.574 49.045l.195.018c.275 0 .542-.109.742-.301a1.1 1.1 0 0 0 .312-.93l-.946-6.154a1.057 1.057 0 0 0-.625-.809 1.06 1.06 0 0 0-1.021.084l-7.03 4.676c-.362.24-.541.674-.454 1.1.084.424.421.758.851.834l7.976 1.482z"/><path d="M11.963 49.062l.188-.018 7.986-1.482c.423-.076.756-.41.848-.834a1.067 1.067 0 0 0-.458-1.1l-7.034-4.676a1.048 1.048 0 0 0-1.017-.084 1.066 1.066 0 0 0-.625.809l-.941 6.154c-.055.342.062.688.311.93.207.192.468.301.742.301z"/></g><g><g><path fill="#2f2f2f" d="M120.782 70.646h-45.04V45.162l45.04 5.791z"/></g><g><g><path fill="#fff" d="M112.528 65.055L16.021 18.793l7.147-14.91 96.506 46.254z"/><path d="M113.532 67.896L13.178 19.801l8.99-18.76 100.348 48.096-8.984 18.759zM18.867 17.793l92.661 44.412 5.296-11.061-92.656-44.41-5.301 11.059z" fill="#2f2f2f"/></g><g><path transform="rotate(25.591 19.596 11.343)" fill="#2f2f2f" d="M17.463 3.076h4.264v16.533h-4.264z"/></g><g><path fill="#fff" d="M112.528 65.055l7.146-14.918"/><path transform="rotate(25.64 116.098 57.594)" fill="#2f2f2f" d="M113.968 49.332h4.266v16.53h-4.266z"/></g><g><path fill="#fff" d="M96.443 57.338l7.147-14.91"/><path transform="rotate(25.591 100.012 49.874)" fill="#2f2f2f" d="M97.887 41.62h4.265v16.533h-4.265z"/></g><g><path fill="#fff" d="M80.359 49.637l7.147-14.918"/><path transform="rotate(25.64 83.932 42.177)" fill="#2f2f2f" d="M81.802 33.913h4.266v16.533h-4.266z"/></g><g><path fill="#fff" d="M64.271 41.92l7.15-14.902"/><path transform="rotate(25.614 67.845 34.466)" fill="#2f2f2f" d="M65.717 26.202h4.26v16.533h-4.26z"/></g><g><path fill="#fff" d="M48.187 34.211l7.15-14.901"/><path transform="rotate(25.614 51.764 26.76)" fill="#2f2f2f" d="M49.633 18.493h4.26v16.533h-4.26z"/></g><g><path fill="#fff" d="M32.106 26.51l7.146-14.918"/><path transform="rotate(25.657 35.682 19.057)" fill="#2f2f2f" d="M33.548 10.787h4.262v16.534h-4.262z"/></g><g><path fill="#fff" d="M39.252 11.592l-23.231 7.201"/><path transform="rotate(72.782 27.64 15.196)" fill="#2f2f2f" d="M25.508 3.034h4.265v24.325h-4.265z"/></g><g><path fill="#fff" d="M55.337 19.31l-23.231 7.2"/><path transform="rotate(72.782 43.722 22.904)" fill="#2f2f2f" d="M41.59 10.745h4.265v24.321H41.59z"/></g><g><path fill="#fff" d="M71.421 27.018l-23.234 7.193"/><path transform="rotate(72.782 59.807 30.613)" fill="#2f2f2f" d="M57.675 18.454h4.265v24.321h-4.265z"/></g><g><path fill="#fff" d="M87.506 34.719L64.279 41.92"/><path transform="rotate(72.782 75.89 38.321)" fill="#2f2f2f" d="M73.759 26.166h4.265V50.48h-4.265z"/></g><g><path fill="#fff" d="M103.594 42.428l-23.235 7.209"/><path fill="#2f2f2f" d="M80.988 51.67l-1.259-4.074 23.236-7.201 1.266 4.074z"/></g><g><path fill="#fff" d="M119.674 50.137l-23.227 7.201"/><path transform="rotate(72.788 108.067 53.74)" fill="#2f2f2f" d="M105.931 41.581h4.267v24.32h-4.267z"/></g></g><g><g><path d="M23.262 49.688c0-6.309 1.886-11.418 7.849-11.418 5.959 0 7.842 5.109 7.842 11.418H23.262z" fill="#ed6c30"/></g><g><path d="M38.215 52.154H24.001a2.685 2.685 0 0 0-2.684 2.674v5.092a2.685 2.685 0 0 0 2.684 2.676h14.214a2.68 2.68 0 0 0 2.68-2.676v-5.092a2.68 2.68 0 0 0-2.68-2.674z" fill="#2f2f2f"/></g><g><g><g><path d="M61.221 65.979a3.031 3.031 0 0 1-3.025-3.023V60.63a3.03 3.03 0 0 0-3.025-3.025h-3.408c0-.008-1.358-.008-3.021-.008H16.711c-2.963 0-7.281 2.25-7.946 7.4-.98 7.566-2.642 15.91-2.642 15.91-.325 1.633-.596 4.324-.596 5.99 0 0-.042 21.336-.042 25.703 0 1.924 2.362 4.541 4.138 4.541h108.14a3.029 3.029 0 0 0 3.021-3.025V69.004a3.03 3.03 0 0 0-3.021-3.025H61.221z" fill="#ed6c30"/></g></g></g><g><g><path d="M36.869 117.141c0 5.426-4.399 9.818-9.821 9.818-5.43 0-9.828-4.393-9.828-9.818 0-5.434 4.399-9.816 9.828-9.816 5.422-.001 9.821 4.382 9.821 9.816z" fill="#2f2f2f"/></g></g><g><g><path d="M109.086 117.141c0 5.426-4.4 9.818-9.821 9.818-5.43 0-9.83-4.393-9.83-9.818 0-5.434 4.4-9.816 9.83-9.816 5.421-.001 9.821 4.382 9.821 9.816z" fill="#2f2f2f"/></g></g><g><path d="M95.906 69.613c-8.634 0-15.655 7.025-15.655 15.658 0 3.951 1.487 7.561 3.917 10.318H60.445v5.334h35.461c8.634 0 15.659-7.017 15.659-15.652 0-8.632-7.025-15.658-15.659-15.658zm0 25.977c-5.692 0-10.321-4.625-10.321-10.318 0-5.691 4.629-10.324 10.321-10.324 5.691 0 10.325 4.633 10.325 10.324 0 5.693-4.633 10.318-10.325 10.318z" fill="#fff"/></g><g><path d="M31.762 83.406a3.028 3.028 0 0 1-3.022 3.016H16.896c-1.662 0-2.829-1.342-2.592-2.992l2.088-14.416c.241-1.65 1.792-3 3.458-3h8.889a3.034 3.034 0 0 1 3.022 3.023v14.369zM52.02 68.537a2.613 2.613 0 0 0-2.608-2.607h-9.705c-1.438 0-2.62 1.174-2.62 2.607v10.035a2.632 2.632 0 0 0 2.62 2.617h9.705a2.622 2.622 0 0 0 2.608-2.617V68.537z" fill="#fff"/></g></g></g></g></svg>