<svg id="レイヤー_1" xmlns="http://www.w3.org/2000/svg" viewBox="0 0 128 128"><g><g><g><g><path d="M123.047 48.163c-1.177-3.972-3.71-10.943-10.198-13.146-4.451-1.508-13.145-3.333-26.198-3.568-19.873-.349-35.519.929-42.462 3.179-7.545 2.44-17.987 20.064-22.41 27.302-2.579 4.216-3.062 5.232-6.074 9.135-2.138 2.765-7.417 5.588-9.986 8.07C2.192 82.555.735 89.011.735 93.848c0 12.672 10.042 16.553 18.023 16.553H110.224c11.009-.004 15.858-9.991 16.958-22.351.573-6.475-1.887-32.296-4.135-39.887z" fill="#78a3ad"/></g></g><g><path d="M45.602 110.4c0 5.986-4.857 10.837-10.844 10.837-5.991 0-10.841-4.851-10.841-10.837 0-5.991 4.85-10.837 10.841-10.837 5.987 0 10.844 4.846 10.844 10.837z" fill="#2f2f2f"/></g><g><path d="M106.273 110.4c0 5.986-4.859 10.837-10.841 10.837-5.987 0-10.843-4.851-10.843-10.837 0-5.991 4.855-10.837 10.843-10.837 5.982 0 10.841 4.846 10.841 10.837z" fill="#2f2f2f"/></g><path d="M50.069 69.961a3.345 3.345 0 0 1-3.334 3.334H28.79c-1.835 0-2.888-1.435-2.346-3.186.185-.576.399-1.146.608-1.712a48.867 48.867 0 0 1 1.849-4.206c.9-1.821 3.513-7.071 5.499-10.488.69-1.168 1.899-2.073 2.984-2.363 1.229-.331 3.085-.644 4.662-.758 2.231-.157 4.547-.167 6.009.298 1.49.47 2 2.713 2.099 3.835.439 4.902-.084 12.516-.084 14.116l-.001 1.13zm38.104-19.614c-1.923 0-4.374.125-4.641 2.415-.184 1.493-.863 12.583.263 17.844.316 1.472.938 2.607 3.158 2.887 4.516.566 19.836-.17 22.342-.17 5.319 0 9.623-.233 9.639-4.648.008-3.936-.457-12.957-2.949-15.973-.855-1.044-2.731-1.968-5.188-2.13-9.332-.621-19.389-.225-22.624-.225zm-28.494.166a4.388 4.388 0 0 0-2.105 1.535c-1.56 2.069-1.259 5.062-1.38 7.468-.165 3.494-.313 7.03-.017 10.524.117 1.375.485 2.446 1.746 2.754 2.643.625 11.83.263 13.352.312 3.247.114 5.94-.014 6.263-4.285.299-3.876.68-12.934-.708-16.037-.451-1.085-1.592-2.028-3.127-2.202-2.639-.286-5.302-.368-7.959-.359-1.969.004-4.231-.354-6.065.29z" fill="#fff"/></g></g></svg>