<svg xmlns="http://www.w3.org/2000/svg" xmlns:xlink="http://www.w3.org/1999/xlink" viewBox="0 0 128 128"><g id="图层_1"><g><defs><path id="SVGID_1_" d="M108.035 112.866H20.748c-8.971 0-19.445-4.731-19.445-18.044 0-4.79 1.422-11.769 5.441-15.656 1.154-1.123 2.694-2.211 4.331-3.369 1.97-1.393 4.007-2.836 4.98-4.091 2.309-2.993 2.962-4.081 4.551-6.701l1.108-1.82c4.455-7.285 9.396-15.362 17.325-17.929 3.937-1.274 11.643-1.528 22.797-1.528 2.105 0 4.287.008 6.512.019 5.556.017 11.409.043 17.149-.062.701-.009 27-.019 27.711-.019 10.426 0 12 19.459 12.273 25.898.265 6.253 1.352 30.717-5.183 37.703-3.319 3.551-7.256 5.599-12.263 5.599z"/></defs><use xlink:href="#SVGID_1_" overflow="visible" fill="#e0e0e0"/><clipPath id="SVGID_2_"><use xlink:href="#SVGID_1_" overflow="visible"/></clipPath><path clip-path="url(#SVGID_2_)" fill="#ed6c30" d="M-3.624 81.659h134.78v6.081H-3.624z"/></g><path d="M62.724 38.865H47.76a2.828 2.828 0 0 0-2.821 2.826v5.354a2.823 2.823 0 0 0 2.821 2.826h14.964a2.825 2.825 0 0 0 2.825-2.826v-5.354a2.833 2.833 0 0 0-2.825-2.826z" fill="#e0e0e0"/><g><g><g><defs/><use xlink:href="#SVGID_3_" overflow="visible" fill="#e0e0e0"/><clipPath id="SVGID_4_"><use xlink:href="#SVGID_3_" overflow="visible"/></clipPath></g><g><defs/><use xlink:href="#SVGID_5_" overflow="visible" fill="#40c0e7"/><clipPath id="SVGID_6_"><use xlink:href="#SVGID_5_" overflow="visible"/></clipPath></g></g></g><path d="M46.978 36.268c0-6.644 1.984-12.023 8.268-12.023 6.274 0 8.267 5.379 8.267 12.023H46.978z" fill="#ed6c30"/><g><g><g><path d="M41.467 31.051l-12.725-5.832a1.465 1.465 0 0 0-1.309.043c-.403.229-.68.623-.741 1.08l-1.109 7.986c-.062.461.097.922.426 1.246a1.46 1.46 0 0 0 1.245.403l13.832-2.158a1.46 1.46 0 0 0 1.22-1.237 1.455 1.455 0 0 0-.839-1.531z" fill="#ed6c30"/></g><g><path d="M83.795 26.342a1.461 1.461 0 0 0-.745-1.08 1.464 1.464 0 0 0-1.309-.043l-12.726 5.832a1.464 1.464 0 0 0-.837 1.531 1.453 1.453 0 0 0 1.223 1.237l13.83 2.158a1.462 1.462 0 0 0 1.669-1.649l-1.105-7.986z" fill="#ed6c30"/></g></g></g><path d="M71.613 64.326h-3.52v-3.525c0-.705-.583-1.279-1.285-1.279h-5.604c-.702 0-1.281.574-1.281 1.279v3.525h-3.52c-.711 0-1.286.578-1.286 1.281v5.599c0 .705.575 1.281 1.286 1.281h3.52v3.527c0 .704.579 1.281 1.281 1.281h5.604a1.29 1.29 0 0 0 1.285-1.281v-3.527h3.52c.711 0 1.282-.576 1.282-1.281v-5.599a1.282 1.282 0 0 0-1.282-1.281z" fill="#ed6c30"/><g><g><path d="M46.364 110.62c0 5.714-4.634 10.338-10.347 10.338-5.723 0-10.353-4.624-10.353-10.338 0-5.722 4.631-10.339 10.353-10.339 5.713 0 10.347 4.617 10.347 10.339z" fill="#2f2f2f"/></g></g><g><g><path d="M104.269 110.62c0 5.714-4.633 10.338-10.347 10.338-5.722 0-10.352-4.624-10.352-10.338 0-5.722 4.63-10.339 10.352-10.339 5.715 0 10.347 4.617 10.347 10.339z" fill="#2f2f2f"/></g></g><g><path d="M45.956 72.022a3.195 3.195 0 0 1-3.186 3.187H30.321c-1.755 0-2.756-1.37-2.237-3.042.17-.55.372-1.093.579-1.632a45.022 45.022 0 0 1 1.759-4.017c.865-1.735 1.839-3.427 2.954-5.015 1.202-1.698 2.571-3.295 4.168-4.63 1.575-1.312 3.39-2.361 5.393-2.865.641-.162 1.595-.46 2.243-.17 1.285.577.776 3.403.776 4.467V72.022zm63.503-19.572H85.954c-1.83 0-4.164.123-4.424 2.388-.219 1.896-.004 3.945-.004 5.854v9.384c0 1.776-.391 3.896 1.531 4.751 1.668.742 3.861.383 5.652.383H110.737c4.019 0 5.604-.239 5.607-4.604.019-3.902-1.887-18.156-6.885-18.156z" fill="#40c0e7"/></g><g><g/><g/><g><g><g><g/><g/></g></g><g><g><g/><g/><g/></g></g><g/><g><g/></g><g><g/></g><g/></g></g><circle cx="36.014" cy="110.62" r="4.714" fill="#616161"/><circle cx="93.92" cy="110.62" r="4.714" fill="#616161"/></g></svg>