<svg id="レイヤー_1" xmlns="http://www.w3.org/2000/svg" xmlns:xlink="http://www.w3.org/1999/xlink" viewBox="0 0 128 128"><g><path d="M67.504 41.678c-.506 0-.935-.649-.935-1.436v-6.378a1.44 1.44 0 0 0-1.431-1.434h-4.49a1.44 1.44 0 0 0-1.439 1.434v6.378c0 .786-.421 1.436-.93 1.436-.515 0-.936.648-.936 1.434v2.54c0 .789.421 1.433.936 1.433h9.224c.515 0 .935-.644.935-1.433v-2.54c0-.786-.419-1.434-.934-1.434z" fill="#78a3ad"/><g><defs><path id="SVGID_1_" d="M121.566 79.193c-4.677-4.676-11.997-6.14-11.997-6.14s-3.828-9.953-7.058-14.276c-8.781-11.8-19.772-14.439-37.582-14.439-12.307 0-24.527.466-34.535 13.078-3.828 4.832-10.11 15.638-10.11 15.638s-10.011 2.24-15.073 7.879c-3.877 4.323-6.788 18.897-1.668 24.013 4.726 4.732 9.891 7.062 13.316 7.062h95.166c5.173 0 9.524-2.601 12.238-6.955 4.668-7.49 1.98-21.182-2.697-25.86z"/></defs><use xlink:href="#SVGID_1_" overflow="visible" fill="#fcc21b"/><clipPath id="SVGID_2_"><use xlink:href="#SVGID_1_" overflow="visible"/></clipPath><path clip-path="url(#SVGID_2_)" fill="#f79329" d="M-4.127 85.065H38.05v14.882H-4.127z"/><path clip-path="url(#SVGID_2_)" fill="#f79329" d="M87.702 85.065h42.392v14.882H87.702z"/></g><g><path d="M40.724 109.712c0 6.244-5.062 11.306-11.296 11.306-6.25 0-11.312-5.062-11.312-11.306 0-6.242 5.062-11.295 11.312-11.295 6.233 0 11.296 5.053 11.296 11.295z" fill="#2f2f2f"/></g><g><path d="M108.995 109.712c0 6.244-5.065 11.306-11.303 11.306-6.252 0-11.31-5.062-11.31-11.306 0-6.242 5.058-11.295 11.31-11.295 6.238 0 11.303 5.053 11.303 11.295z" fill="#2f2f2f"/></g><g fill="#2f2f2f"><path d="M59.996 86.46h-2.674a.256.256 0 0 0-.241.161L52.77 98.086a.246.246 0 0 0 .031.232.257.257 0 0 0 .209.117h2.826a.258.258 0 0 0 .242-.18l.657-1.966h3.85l.652 1.966c.037.108.135.18.251.18h2.818a.238.238 0 0 0 .205-.117.24.24 0 0 0 .035-.232l-4.311-11.465c-.034-.099-.123-.161-.239-.161zm-2.455 7.396l1.117-3.372 1.122 3.372h-2.239z"/><path d="M82.139 86.46h-2.826a.259.259 0 0 0-.254.26v11.456c0 .143.116.26.254.26h2.826a.26.26 0 0 0 .261-.26V86.72a.262.262 0 0 0-.261-.26z"/><path d="M73.769 92.487l3.782-5.626a.248.248 0 0 0 .019-.267.265.265 0 0 0-.228-.134h-3.188a.273.273 0 0 0-.21.112l-2.117 3.081-2.127-3.081a.255.255 0 0 0-.206-.112h-3.192a.26.26 0 0 0-.224.134c-.044.09-.044.188.014.267l3.787 5.626-3.809 5.547a.243.243 0 0 0-.019.259.247.247 0 0 0 .231.143h3.351a.252.252 0 0 0 .21-.117l1.983-2.937 1.969 2.937c.05.071.131.117.215.117h3.354a.262.262 0 0 0 .23-.143.258.258 0 0 0-.017-.259l-3.808-5.547z"/><path d="M54.147 88.669v-2.065a.26.26 0 0 0-.259-.26H42.923a.26.26 0 0 0-.254.26v2.065c0 .145.12.256.254.256h3.972v9.251c0 .143.116.26.255.26h2.509a.26.26 0 0 0 .259-.26v-9.251h3.972c.14 0 .257-.112.257-.256z"/></g><path d="M58.597 71.354c0 2.855-1.834 3.807-4.083 3.807H38.569c-5.518-.005-2.545-8.336 2.844-14.251 5.384-5.913 13.684-6.378 14.828-6.091 2.199.545 2.356 2.581 2.356 4.812v11.723z" fill="#40c0e7"/><path d="M65.487 71.354c0 2.855 2.656 3.807 5.894 3.807h21.021c7.98-.005 3.35-11.619-4.764-17.086-5.759-3.883-17.09-3.543-18.739-3.256-3.188.545-3.412 2.581-3.412 4.812v11.723z" fill="#40c0e7"/></g></svg>