<svg id="レイヤー_1" xmlns="http://www.w3.org/2000/svg" xmlns:xlink="http://www.w3.org/1999/xlink" viewBox="0 0 128 128"><g><g><g><g><g><defs><path id="SVGID_1_" d="M127.992 115.895c0 6.655-5.442 12.097-12.092 12.097H12.097C5.442 127.991 0 122.55 0 115.895V12.097C0 5.441 5.442 0 12.097 0H115.9c6.65 0 12.092 5.441 12.092 12.097v103.798z"/></defs><clipPath id="SVGID_2_"><use xlink:href="#SVGID_1_" overflow="visible"/></clipPath><path d="M63.996 19.438c-50.003 0-73.492 65.071-73.492 65.071l2.667 56.537h141.656l2.666-56.537c-.001.001-23.485-65.071-73.497-65.071z" clip-path="url(#SVGID_2_)" fill="#757f3f"/><g clip-path="url(#SVGID_2_)"><path d="M63.996 46.328c-19.664 0-35.606 15.942-35.606 35.61v32.223h71.213V81.938c0-19.667-15.943-35.61-35.607-35.61z" fill="#2f2f2f"/><g><path fill="#855c52" d="M122.421 127.871H5.571l22.819-13.71h71.213z"/><path fill="#2f2f2f" d="M49.458 127.979h-7.713l8.692-13.868h4.7z"/><path fill="#2f2f2f" d="M78.535 127.979h7.713l-8.688-13.868h-4.701z"/></g></g></g></g></g></g><g><g><g><g><g><path d="M54.833 113.107a2.253 2.253 0 0 1-2.254 2.254 2.251 2.251 0 0 1-2.246-2.254v-8.659a2.25 2.25 0 1 1 4.5 0v8.659z" fill="#fff"/><path d="M73.063 113.107a2.252 2.252 0 0 0 2.25 2.254 2.256 2.256 0 0 0 2.254-2.254v-8.659a2.252 2.252 0 0 0-2.254-2.25 2.248 2.248 0 0 0-2.25 2.25v8.659z" fill="#fff"/><g><defs><path id="SVGID_3_" d="M86.794 97.739c0 5.709-4.626 10.334-10.342 10.334H51.445c-5.705 0-10.342-4.625-10.342-10.334V69.263c0-5.709 4.638-10.334 10.342-10.334h25.006c5.717 0 10.342 4.625 10.342 10.334v28.476z"/></defs><use xlink:href="#SVGID_3_" overflow="visible" fill="#fcc21b"/><clipPath id="SVGID_4_"><use xlink:href="#SVGID_3_" overflow="visible"/></clipPath></g><path d="M82.235 74.992a5.569 5.569 0 0 1-5.571 5.575H51.241c-3.075 0-5.584-2.496-5.584-5.575v-7.046c0-3.08 2.509-5.576 5.584-5.576h25.422a5.569 5.569 0 0 1 5.571 5.576v7.046z" fill="#40c0e7"/></g><path d="M53.274 97.748a3.753 3.753 0 0 1-3.754 3.746 3.748 3.748 0 0 1 0-7.496 3.75 3.75 0 0 1 3.754 3.75z" fill="#fff"/><path d="M74.634 97.748a3.745 3.745 0 0 0 3.75 3.746 3.746 3.746 0 0 0 3.746-3.746 3.744 3.744 0 0 0-3.746-3.75 3.742 3.742 0 0 0-3.75 3.75z" fill="#fff"/></g></g></g></g></g></svg>