<svg id="レイヤー_1" xmlns="http://www.w3.org/2000/svg" viewBox="0 0 128 128"><g><g><g><g><g><path d="M33.937 29.91L25.56 58.678H14.787c-6.584 0-11.113 4.352-11.113 10.735v29.878h104.934V29.91H33.937z" fill="#f79329"/></g><path d="M127.426 83.352c0 2.892-2.37 5.264-5.258 5.264h-6.315c-2.893 0-5.259-2.372-5.259-5.264V51.854c0-2.896 2.366-5.264 5.259-5.264h6.315c2.888 0 5.258 2.367 5.258 5.264v31.498z" fill="#2f2f2f"/><path d="M3.905 94.349a3.345 3.345 0 0 1-3.332-3.332v-3.993a3.341 3.341 0 0 1 3.332-3.328h3.309a3.336 3.336 0 0 1 3.328 3.328v3.993a3.34 3.34 0 0 1-3.328 3.332H3.905z" fill="#78a3ad"/></g></g><g><path d="M51.052 103.815c0 9.616-7.802 17.404-17.409 17.404-9.623 0-17.422-7.788-17.422-17.404 0-9.62 7.799-17.399 17.422-17.399 9.607 0 17.409 7.779 17.409 17.399z" fill="#2f2f2f"/><path d="M40.62 103.815a6.98 6.98 0 0 1-6.981 6.977 6.976 6.976 0 1 1 0-13.949c3.853.001 6.981 3.12 6.981 6.972z" fill="#78a3ad"/></g><g><path d="M100.446 103.815c0 9.616-7.806 17.404-17.409 17.404-9.624 0-17.423-7.788-17.423-17.404 0-9.62 7.799-17.399 17.423-17.399 9.604 0 17.409 7.779 17.409 17.399z" fill="#2f2f2f"/><path d="M90.011 103.815a6.98 6.98 0 0 1-6.982 6.977 6.971 6.971 0 0 1-6.973-6.977 6.97 6.97 0 0 1 6.973-6.972c3.854.001 6.982 3.12 6.982 6.972z" fill="#78a3ad"/></g></g><path fill="#40c0e7" d="M78.821 37.51h21.617v25.767H78.821z"/><path fill="#40c0e7" d="M40.521 37.51h23.47v25.766H33.356l1.388-5.442z"/></g></svg>