<svg id="レイヤー_1" xmlns="http://www.w3.org/2000/svg" viewBox="0 0 128 128"><g><g><path d="M53.412 19.806c0-8.326 2.493-15.071 10.362-15.071 7.865 0 10.357 6.745 10.357 15.071H53.412z" fill="#ed6c30"/><path d="M73.151 23.062h-18.76a3.54 3.54 0 0 0-3.536 3.542v6.71a3.542 3.542 0 0 0 3.536 3.537h18.76a3.542 3.542 0 0 0 3.537-3.537v-6.71a3.54 3.54 0 0 0-3.537-3.542z" fill="#2f2f2f"/><g><g><g><g fill="#ed6c30"><path d="M46.51 10.798L30.56 3.492a1.826 1.826 0 0 0-1.638.058 1.8 1.8 0 0 0-.93 1.35L26.6 14.91a1.868 1.868 0 0 0 .528 1.562c.341.336.81.518 1.287.518.095 0 .187 0 .274-.022l17.341-2.693c.8-.122 1.42-.762 1.524-1.563a1.814 1.814 0 0 0-1.044-1.914z"/><path d="M99.562 4.9a1.858 1.858 0 0 0-.935-1.351 1.835 1.835 0 0 0-1.641-.058l-15.948 7.306a1.817 1.817 0 0 0-1.046 1.913 1.82 1.82 0 0 0 1.53 1.563l17.334 2.693a1.871 1.871 0 0 0 1.563-.496c.407-.406.604-.989.525-1.562L99.562 4.9z"/></g></g></g></g></g><g><g fill="#2f2f2f"><path d="M93.357 120.081c0 4.366 3.531 7.919 7.898 7.919a7.921 7.921 0 0 0 7.92-7.919V88.004c0-4.367-3.541-7.909-7.92-7.909-4.367 0-7.898 3.542-7.898 7.909v32.077z"/><path d="M19.379 120.081c0 4.366 3.537 7.919 7.909 7.919s7.904-3.553 7.904-7.919V88.004a7.903 7.903 0 0 0-7.904-7.909 7.907 7.907 0 0 0-7.909 7.909v32.077z"/></g><g><g><g><path d="M109.27 69.129l-1.248-4.586c0-.011 0-.023-.012-.033l-6.522-24.122c-1.179-4.312-5.799-7.855-10.274-7.855H36.787c-4.472 0-9.087 3.543-10.264 7.855L19.995 64.51c-.002.01-.002.033-.002.043l-1.245 4.576c-5.127 1.057-8.95 4.676-8.95 8.986v25.047c0 2.199 1.8 3.993 3.989 3.993h100.426a4.005 4.005 0 0 0 3.999-3.993V78.115c0-4.305-3.822-7.92-8.942-8.986z" fill="#fff"/><path d="M114.213 110.675H13.787c-4.136 0-7.515-3.365-7.515-7.513V78.115c0-5.257 3.851-9.894 9.604-11.846l.677-2.498c.017-.063.028-.132.038-.186l6.546-24.114c1.586-5.861 7.584-10.458 13.65-10.458h54.427c6.082 0 12.082 4.597 13.672 10.458l6.523 24.092c.013.033.018.066.033.109l.705 2.597c5.741 1.956 9.58 6.594 9.58 11.846v25.047a7.516 7.516 0 0 1-7.514 7.513zM23.433 65.29c-.017.066-.029.131-.049.188l-1.237 4.576a3.514 3.514 0 0 1-2.689 2.528c-3.554.728-6.144 3.058-6.144 5.533v25.047a.49.49 0 0 0 .474.475h100.426a.48.48 0 0 0 .474-.475V78.115c0-2.476-2.574-4.795-6.126-5.533a3.512 3.512 0 0 1-2.684-2.528l-1.244-4.594c-.011-.016-.011-.028-.016-.044L98.095 41.31c-.764-2.8-3.97-5.259-6.88-5.259H36.787c-2.893 0-6.105 2.459-6.864 5.259l-6.49 23.98z" fill="#2f2f2f"/></g><path d="M92.677 45.407c-.457-2.073-2.574-3.767-4.692-3.767H40.021c-2.117 0-4.229 1.693-4.685 3.767L31.11 64.669c-.455 2.073.908 3.767 3.031 3.767h59.733c2.123 0 3.487-1.693 3.03-3.767l-4.227-19.262z" fill="#40c0e7"/><path fill="#2f2f2f" d="M9.16 77.466h109.233v27.424H9.16z"/><g fill="#fff"><path d="M35.27 89.215a7.59 7.59 0 0 1-15.18 0 7.59 7.59 0 1 1 15.18 0z"/><circle cx="101.355" cy="89.215" r="7.59"/></g></g></g></g></g></svg>