<svg id="レイヤー_1" xmlns="http://www.w3.org/2000/svg" xmlns:xlink="http://www.w3.org/1999/xlink" viewBox="0 0 128 128"><g><g><path d="M71.025 59.935c-.103-.417-.186-.833-.276-1.284-.167-.887-.875-1.713-1.363-2.455-1.398-2.122-3.704-3.395-6.196-3.72-1.691-.221-3.434-.024-5.056.494-6.01 1.927-8.108 9.797-4.7 14.933 6.019 9.073 20.078 2.701 17.591-7.968z" fill="#2f2f2f"/></g><g><path d="M58.028 59.667a5.789 5.789 0 0 0-.61.175c-.824.268-1.647.692-2.448 1.033-.872.37-1.696.786-2.528 1.237-.204.111-.553.204-.708.389-.195.239-.217.762-.204 1.054.054 1.226.621 2.408 1.072 3.532.293.748.62 1.52 1.142 2.142.665.786 1.39.79 2.284.445.566-.219 1.107-.511 1.655-.761 1.187-.536 2.382-1.193 3.259-2.173 1.478-1.647.964-4.708-.359-6.334-.589-.724-1.688-.93-2.555-.739z" fill="#40c0e7"/></g><g><path d="M62.712 70.194a36.104 36.104 0 0 0 5.134-6.962c1.142-2.005 2.382-4.028 4.223-5.471.439-.35.944-.606 1.479-.752 2.846-.771 11.451.929 10.482 5.267-.257 1.165-1.133 2.129-2.014 2.877-.371.31-2.102 1.191-1.084 1.673.208.098.416.164.633.286.386.219.792.498 1.146.757.841.624 1.669 1.642 2.089 2.609.452 1.04.665 2.123.833 3.238.053.367.292 1.14.026 1.487-.399.518-1.656.18-2.196.182-1.257.007-2.514-.11-3.771-.11-2.974 0-5.921.292-8.856.283-2.873-.007-6.318.494-9.069-.354-.46-.142-1.073-.259-1.311-.728-.227-.447-.248-1.461-.107-1.939.187-.602 1.067-1.005 1.488-1.432.298-.304.582-.607.875-.911z" fill="#ed6c30"/></g><g><path d="M33.312 80.904s14.824-8.899 41.852-7.232c27.023 1.669 31.6 2.667 32.981 7.232 1.603 5.308 1.603 15.271 1.603 15.271L33.312 80.904z" fill="#fff"/></g><g><path d="M109.747 98.442c-.152 0-.302-.016-.447-.045L32.869 83.126a2.267 2.267 0 0 1-.722-4.166c.527-.316 13.194-7.764 36.346-7.764 2.23 0 4.523.073 6.808.213 27.143 1.675 33.141 2.622 35.012 8.841 1.496 4.949 1.673 13.366 1.695 15.458.031.15.045.305.045.467a2.269 2.269 0 0 1-2.306 2.267zM40.832 80.096l66.587 13.301c-.125-3.24-.46-8.57-1.443-11.84-.948-3.147-6.162-4.092-30.949-5.623a106.153 106.153 0 0 0-6.534-.204c-12.616-.001-21.983 2.361-27.661 4.366z" fill="#78a3ad"/></g><g><g><g><g><g><g><path d="M92.058 116.26l.072.004c4.584.217 10.286 1.112 14.464-1.339 3.846-2.255 6.41-6.516 7.99-10.568 1.001-2.554 3.652-9.844 1.085-12.155-1.647-1.483-4.533-2.333-6.618-2.944-6.361-1.859-12.832-2.306-19.295-3.534-17.913-3.406-35.929-4.01-54.01-5.921-2.324-.245-25.19-1.31-30.445.665-2.479.927-2.572 2.709-1.46 4.736 9.375 17.099 33.029 23.8 50.858 27.279 5.577 1.089 11.243 1.837 16.909 2.295a1047.29 1047.29 0 0 0 20.45 1.482z" fill="#fff"/></g></g></g></g></g><g><g><g><g><g><path d="M98.831 118.867c-1.585 0-3.13-.104-4.631-.204a91.726 91.726 0 0 0-2.178-.135c-6.18-.378-12.694-.85-20.6-1.489-5.918-.478-11.69-1.264-17.156-2.331-17.706-3.454-42.406-10.16-52.415-28.415-.986-1.803-1.216-3.457-.676-4.913.354-.947 1.222-2.244 3.328-3.034.858-.326 3.502-1.315 15.431-1.315 7.232 0 14.624.37 16.05.521 5.697.602 11.491 1.08 17.091 1.544 12.163 1.01 24.743 2.049 37.106 4.402 2.258.429 4.515.761 6.764 1.093 4.174.613 8.48 1.246 12.739 2.492 2.306.675 5.463 1.596 7.503 3.433 2.608 2.346 2.448 7.145-.491 14.667-1.487 3.813-4.249 8.939-8.959 11.697-3.036 1.783-6.533 1.987-8.906 1.987zM5.42 82.974c.006 0-.038.336.405 1.142 9.091 16.584 32.498 22.862 49.309 26.145 5.303 1.034 10.907 1.795 16.652 2.26 7.884.637 14.368 1.106 20.41 1.479.775.038 1.536.088 2.315.142 1.426.098 2.895.194 4.321.194 2.926 0 5.028-.434 6.612-1.363 3.586-2.103 5.804-6.292 7.03-9.437 2.638-6.742 2.081-9.287 1.681-9.647-1.274-1.149-3.961-1.932-5.736-2.452-3.958-1.157-7.933-1.742-12.129-2.359-2.314-.341-4.635-.684-6.95-1.125-12.138-2.308-24.593-3.34-36.641-4.337-5.622-.467-11.442-.95-17.192-1.556-1.195-.126-8.423-.494-15.572-.494-10.021 0-13.018.717-13.837 1.025-.528.197-.663.367-.678.383z" fill="#78a3ad"/></g></g></g></g></g><g><g><defs><path id="SVGID_1_" d="M98.831 118.867c-1.585 0-3.13-.104-4.631-.204a91.726 91.726 0 0 0-2.178-.135c-6.18-.378-12.694-.85-20.6-1.489-5.918-.478-11.69-1.264-17.156-2.331-17.706-3.454-42.406-10.16-52.415-28.415-.986-1.803-1.216-3.457-.676-4.913.354-.947 1.222-2.244 3.328-3.034.858-.326 3.502-1.315 15.431-1.315 7.232 0 14.624.37 16.05.521 5.697.602 11.491 1.08 17.091 1.544 12.163 1.01 24.743 2.049 37.106 4.402 2.258.429 4.515.761 6.764 1.093 4.174.613 8.48 1.246 12.739 2.492 2.306.675 5.463 1.596 7.503 3.433 2.608 2.346 2.448 7.145-.491 14.667-1.487 3.813-4.249 8.939-8.959 11.697-3.036 1.783-6.533 1.987-8.906 1.987z"/></defs><clipPath id="SVGID_2_"><use xlink:href="#SVGID_1_" overflow="visible"/></clipPath><g clip-path="url(#SVGID_2_)"><defs><path id="SVGID_3_" d="M3.974 90.449s12.403-1.38 30.941.215c52.054 4.482 84.973 10.768 84.973 10.768l-6.83 19.64s-30.993-.323-48.486-2.882c-17.499-2.563-55.269-14.725-60.598-27.741z"/></defs><use xlink:href="#SVGID_3_" overflow="visible" fill="#ed6c30"/><clipPath id="SVGID_4_"><use xlink:href="#SVGID_3_" overflow="visible"/></clipPath></g></g></g><g><defs><path id="SVGID_5_" d="M61.848 123.561c.055-1.843 3.737-3.862 4.927-4.57 2.735-1.631 5.78-2.908 8.71-4.126 8.526-3.548 17.387-6.278 26.466-7.885 2.625-.463 5.232-1 7.861-1.432 2.634-.43 5.272-.633 7.924-.908.863-.089 1.766-.018 2.643-.018 1.213 0 2.382.042 3.558.268 1.036.202 2.702.733 3.09 1.888.496 1.483-1.416 2.565-2.458 3.107-.693.363-1.513.757-2.155 1.222-.478.341-1.354.819-.893 1.558.203.339.664.447.982.54 1.239.361 3.832 1.027 3.373 2.896-.367 1.571-1.665 1.854-2.621 2.806-1.125 1.109-.026 1.485.195 2.837.354 2.231-.65 3.736-2.789 4.143-4.842.923-10.269.553-15.182.439-11.393-.271-22.783-.324-34.176-.581-1.872-.042-3.722.024-5.572.111-1.315.062-2.723-.261-3.585-1.403a1.355 1.355 0 0 1-.298-.892z"/></defs><use xlink:href="#SVGID_5_" overflow="visible" fill="#40c0e7"/><clipPath id="SVGID_6_"><use xlink:href="#SVGID_5_" overflow="visible"/></clipPath></g></g></g></svg>