<svg xmlns="http://www.w3.org/2000/svg" viewBox="0 0 128 128"><g id="图层_1"><path d="M42.893 126h-7.662a6.295 6.295 0 0 1-6.295-6.295V14.282a6.295 6.295 0 0 1 6.295-6.295h7.662a6.295 6.295 0 0 1 6.295 6.295v105.423A6.295 6.295 0 0 1 42.893 126z" fill="#616161"/><g><path d="M100.838 81.41H32.627c-14.394 0-26.062-11.668-26.062-26.062 0-14.394 11.668-26.062 26.062-26.062h68.211c14.394 0 26.062 11.668 26.062 26.062 0 14.393-11.668 26.062-26.062 26.062z" fill="#757576"/><path d="M95.935 76.507h-68.21c-14.394 0-26.062-11.668-26.062-26.062 0-14.394 11.668-26.062 26.062-26.062h68.211c14.394 0 26.062 11.668 26.062 26.062-.001 14.393-11.669 26.062-26.063 26.062z" fill="#edece4"/><g><circle cx="97.113" cy="50.445" r="14.336" fill="#4caf50"/><circle cx="61.83" cy="50.445" r="14.336" fill="#fcc21b"/><circle cx="26.547" cy="50.445" r="14.336" fill="#e43f11"/></g></g></g></svg>