<svg xmlns="http://www.w3.org/2000/svg" viewBox="0 0 128 128"><g id="图层_1"><g><path d="M31.979 46.212V38.55a6.295 6.295 0 0 1 6.295-6.295h66.397a6.295 6.295 0 0 1 6.295 6.295v7.662a6.295 6.295 0 0 1-6.295 6.295H38.274a6.295 6.295 0 0 1-6.295-6.295z" fill="#616161"/><path d="M31.979 94.415v-7.662a6.295 6.295 0 0 1 6.295-6.295h66.397a6.295 6.295 0 0 1 6.295 6.295v7.662a6.295 6.295 0 0 1-6.295 6.295H38.274a6.295 6.295 0 0 1-6.295-6.295z" fill="#616161"/><g><path d="M74.06 99.457V31.246c0-14.394-11.668-26.062-26.062-26.062-14.394 0-26.062 11.668-26.062 26.062v68.211c0 14.394 11.668 26.062 26.062 26.062 14.394 0 26.062-11.669 26.062-26.062z" fill="#757576"/><path d="M68.758 96.754V28.543c0-14.394-11.668-26.062-26.062-26.062-14.394 0-26.062 11.668-26.062 26.062v68.211c0 14.394 11.668 26.062 26.062 26.062 14.393 0 26.062-11.668 26.062-26.062z" fill="#edece4"/><g><circle cx="42.696" cy="97.931" r="14.336" fill="#4caf50"/><circle cx="42.696" cy="62.649" r="14.336" fill="#fcc21b"/><circle cx="42.696" cy="27.366" r="14.336" fill="#e43f11"/></g></g></g></g></svg>