<svg id="レイヤー_1" xmlns="http://www.w3.org/2000/svg" viewBox="0 0 128 128"><g><path d="M28.248.718v126.565h71.504V.718H28.248z" fill="#855c52"/><g><g><circle cx="40.741" cy="74.906" r="5.552" fill="#fcc21b"/><path d="M36.479 75.378c.418.98 1.33.649 1.557-.254a4.012 4.012 0 0 1 .871-1.618c.396-.439 1.084-.826 1.631-1.066.537-.235.934-.424.812-1.122-.094-.607-.945-.567-1.414-.51-.523.062-.988.32-1.473.525-.312.133-.639.275-.863.529-.83.891-1.655 2.289-1.121 3.516z" fill="#fff"/><path fill="#40c0e7" d="M40.742 12.193h46.51v46.509h-46.51z"/></g><path fill="#006ca2" d="M47.57 19.777h39.682v-7.584h-46.51v46.51h6.828z"/></g></g></svg>