<svg id="レイヤー_1" xmlns="http://www.w3.org/2000/svg" viewBox="0 0 128 128"><g><g><path d="M91.994 86.223H38.682l20.544-69.174h10.499l22.269 69.174zm-43.351-7.434h33.149L64.55 25.234 48.643 78.789z" fill="#78a3ad"/><path fill="#78a3ad" d="M.256 23.509h127.489v3.554H.256z"/><path d="M77.761 19.321a3.519 3.519 0 0 1-3.507-3.512v-.818a3.525 3.525 0 0 0-3.517-3.512H57.255a3.522 3.522 0 0 0-3.511 3.512v.818a3.523 3.523 0 0 1-3.509 3.512h-5.97a3.523 3.523 0 0 0-3.507 3.512v2.784a3.523 3.523 0 0 0 3.507 3.512H83.73a3.517 3.517 0 0 0 3.508-3.512v-2.784a3.518 3.518 0 0 0-3.508-3.512h-5.969z" fill="#78a3ad"/><circle cx="63.999" cy="19.321" r="3.717" fill="#fff"/></g><path d="M104.04 62.935c-.301-1.909-2.125-3.47-4.051-3.47H28.685c-1.933 0-3.784 1.556-4.122 3.459l-4.441 25.229c-.334 1.9-.138 4.969.431 6.812l3.579 11.562c.574 1.843 2.62 3.355 4.554 3.355h71.303c1.925 0 3.926-1.524 4.434-3.389l3.134-11.494c.502-1.865.678-4.95.381-6.858l-3.898-25.206z" fill="#ed6c30"/><g><g><path d="M66.677 86.179c0 1.16.951 2.108 2.105 2.108h10.867c1.16 0 2.109-.948 2.109-2.108V70.364a2.114 2.114 0 0 0-2.109-2.107H68.782a2.115 2.115 0 0 0-2.105 2.107v15.815z" fill="#fff"/></g><g><path d="M38.765 88.287c1.16 0 2.11-.948 2.11-2.108V70.364c0-1.159-.95-2.107-2.11-2.107h-8.003c-1.159 0-2.273.934-2.474 2.076L25.497 86.21c-.202 1.143.585 2.077 1.741 2.077h11.527z" fill="#fff"/></g><g><path d="M48.348 68.257a2.118 2.118 0 0 0-2.114 2.107v15.814c0 1.16.954 2.108 2.114 2.108h10.857c1.16 0 2.107-.948 2.107-2.108V70.364a2.112 2.112 0 0 0-2.107-2.107H48.348z" fill="#fff"/></g><g><path d="M89.231 68.257a2.115 2.115 0 0 0-2.109 2.107v15.814c0 1.16.95 2.108 2.109 2.108h11.612c1.159 0 1.962-.938 1.783-2.082l-2.458-15.865c-.179-1.145-1.272-2.082-2.432-2.082h-8.505z" fill="#fff"/></g></g><path fill="#78a3ad" d="M53.409 44.305h23.122v4.956H53.409z"/></g></svg>