<svg id="レイヤー_1" xmlns="http://www.w3.org/2000/svg" viewBox="0 0 128 128"><g><g><g><g><path d="M64.002 36.041c-22.479 0-33.164 17.599-33.164 60.382h66.33c0-42.783-10.691-60.382-33.166-60.382z" fill="#db4437"/></g><g><g><g><path d="M46.133 56.727a1.11 1.11 0 0 0-1.219-.239 1.116 1.116 0 0 0-.693 1.038v29.385a1.124 1.124 0 0 0 1.123 1.126c.293 0 .578-.115.789-.327l14.838-14.689c.211-.21.336-.499.336-.799 0-.301-.125-.589-.336-.8L46.133 56.727z" fill="#fff"/></g><g><path d="M83.088 56.488a1.123 1.123 0 0 0-1.227.239L67.033 71.423c-.215.21-.334.499-.334.8 0 .3.119.589.334.799L81.861 87.71a1.132 1.132 0 0 0 1.227.241c.416-.176.691-.587.691-1.04V57.526c0-.456-.275-.863-.691-1.038z" fill="#fff"/></g></g></g><g><g><path d="M33.738 5.248a1.843 1.843 0 0 0-1.223-1.104 1.845 1.845 0 0 0-1.613.317l-12.785 9.943a1.814 1.814 0 0 0-.707 1.484c.01.582.295 1.122.767 1.455l22.928 16.292c.324.227.695.339 1.068.339h.047a1.832 1.832 0 0 0 1.518-2.856l-10-25.87z" fill="#db4437"/></g><g><path d="M31.795 46.34L9.484 29.683a1.837 1.837 0 0 0-1.621-.289 1.826 1.826 0 0 0-1.199 1.128L1.119 45.741a1.861 1.861 0 0 0 .191 1.634c.318.485.852.79 1.426.821l28.09 1.613a.753.753 0 0 0 .107.005h.027c1.068-.062 1.852-.816 1.852-1.833a1.84 1.84 0 0 0-1.017-1.641z" fill="#db4437"/></g><g><path d="M110.594 15.889a1.832 1.832 0 0 0-.709-1.484L97.098 4.461a1.834 1.834 0 0 0-2.83.787L84.123 31.481a1.823 1.823 0 0 0 .582 2.107c.33.258.727.386 1.127.386.371 0 .74-.112 1.059-.339l22.932-16.292a1.83 1.83 0 0 0 .771-1.454z" fill="#db4437"/></g><g><path d="M126.883 45.741l-5.547-15.218a1.839 1.839 0 0 0-1.199-1.128 1.825 1.825 0 0 0-1.621.289L95.977 46.512a1.832 1.832 0 0 0 1.096 3.302c.033 0 .066 0 .105-.005l28.086-1.613a1.817 1.817 0 0 0 1.422-.821c.32-.481.39-1.087.197-1.634z" fill="#db4437"/></g></g></g></g><g><g><path fill="#fff" d="M27.525 97.415h72.955v26.92H27.525z"/><path d="M100.48 128H27.525a3.665 3.665 0 0 1-3.666-3.665v-26.92a3.665 3.665 0 0 1 3.666-3.664h72.955a3.665 3.665 0 0 1 3.664 3.664v26.92A3.664 3.664 0 0 1 100.48 128zm-69.29-7.329h65.625V101.08H31.19v19.591z" fill="#78a3ad"/></g></g></g></svg>