<svg id="レイヤー_1" xmlns="http://www.w3.org/2000/svg" viewBox="0 0 128 128"><g><path fill="#78a3ad" d="M.366 23.509h127.269v3.548H.366z"/><g><g><path d="M97.684 69.506c-.406-3.313-3.46-6.021-6.803-6.021h-53.77c-3.325 0-6.384 2.708-6.786 6.021L27.41 93.54c-.403 3.312-.031 8.658.827 11.88l1.262 4.725c.853 3.224 4.288 5.859 7.613 5.859h53.77c3.343 0 6.768-2.636 7.629-5.859l1.254-4.725c.86-3.222 1.228-8.567.827-11.88l-2.908-24.034z" fill="#006ca2"/></g><g fill="#78a3ad"><path d="M49.914 57.886h28.167v6.418H49.914z"/><path d="M67.205 23.656c1.671 0 3.033-1.364 3.033-3.031s-1.362-3.032-3.033-3.032H54.736c-1.671 0-3.038 1.365-3.038 3.032V47.348c0 1.669.456 4.318 1.023 5.887l1.529 4.292c.56 1.568 2.391 2.854 4.059 2.854h6.347c1.663 0 2.356-1.187 1.538-2.641l-2.662-4.718c-.823-1.454-1.496-4.005-1.496-5.674V26.687a3.04 3.04 0 0 1 3.028-3.031h2.141z"/></g></g><g><g><path d="M50.583 92.845c0 1.001-.819 1.82-1.821 1.82H35.265a1.635 1.635 0 0 1-1.656-1.812l1.89-20.423c.092-.996.986-1.811 1.985-1.811h11.278c1.002 0 1.821.818 1.821 1.819v20.407z" fill="#fff"/></g><g><path d="M71.455 92.845c0 1.001-.819 1.82-1.826 1.82H58.363a1.826 1.826 0 0 1-1.822-1.82V72.44c0-1.001.819-1.819 1.822-1.819h11.266c1.007 0 1.826.818 1.826 1.819v20.405z" fill="#fff"/></g><g><path d="M94.382 92.854a1.632 1.632 0 0 1-1.65 1.812H79.236a1.826 1.826 0 0 1-1.819-1.82V72.44c0-1.001.82-1.819 1.819-1.819h11.276c1.004 0 1.897.814 1.984 1.811l1.886 20.422z" fill="#fff"/></g></g></g></svg>