<svg id="图层_1" xmlns="http://www.w3.org/2000/svg" viewBox="0 0 128 128"><path d="M2.315 64.698c0 34.065 27.618 61.688 61.69 61.688s61.68-27.623 61.68-61.688c0-34.066-27.608-61.69-61.68-61.69-34.073 0-61.69 27.624-61.69 61.69z" fill="#006ca2"/><g fill="#fff"><path d="M81.273 38.319H62.979c-5.339 0-9.781 3.819-10.756 8.873l-2.624 9.697-8.35 6.594a3.66 3.66 0 0 0 4.551 5.734l9.346-7.38-.004-.005a3.635 3.635 0 0 0 1.21-1.869l2.157-7.971c.225-.833 1.02-1.442 1.816-1.474.795.032 1.544.677 1.544 1.474v54.759a4.215 4.215 0 1 0 8.43 0V74.438a1.612 1.612 0 0 1 3.224 0v32.312a4.215 4.215 0 1 0 8.43 0V51.991a1.48 1.48 0 0 1 2.96 0v18.344a3.66 3.66 0 1 0 7.32 0V49.28c0-6.053-4.907-10.961-10.96-10.961zm-9.363-2.656c5.546 0 10.043-4.496 10.043-10.043S77.457 15.578 71.91 15.578s-10.043 4.496-10.043 10.043 4.497 10.042 10.043 10.042z"/><path d="M46.845 80.148l-5.221 1.351a1.458 1.458 0 0 1-1.404-.389l-3.961-4.031a1.457 1.457 0 0 1 .674-2.431l5.221-1.351a1.458 1.458 0 0 1 1.404.389l3.961 4.031c.786.8.412 2.15-.674 2.431z"/><path d="M53.088 90.655l-3.679 3.702a1.41 1.41 0 0 1-1.361.369l-5.287-1.4a1.41 1.41 0 0 1-.639-2.356l3.679-3.702a1.41 1.41 0 0 1 1.361-.369l5.287 1.4a1.41 1.41 0 0 1 .639 2.356z"/><path d="M41.611 104.781l-4.779-.875a1.314 1.314 0 0 1-1-.85l-1.709-4.796a1.312 1.312 0 0 1 1.472-1.731l4.779.875c.461.084.842.409 1 .85l1.709 4.796a1.312 1.312 0 0 1-1.472 1.731z"/></g><g><g><g><path fill="#db4437" d="M111.366 102.727l-8.427 8.412-86.305-85.726L25.062 17z"/></g></g></g><g><path d="M64 128C28.71 128 0 99.289 0 64 0 28.71 28.711 0 64 0s64 28.71 64 64c0 35.289-28.71 64-64 64zm0-117.113c-29.287 0-53.114 23.827-53.114 53.113 0 29.287 23.827 53.113 53.114 53.113S117.113 93.287 117.113 64 93.287 10.887 64 10.887z" fill="#db4437"/></g></svg>