<svg id="レイヤー_1" xmlns="http://www.w3.org/2000/svg" viewBox="0 0 128 128"><g><path d="M74.761 100.632H4.32a3.164 3.164 0 0 0-3.158 3.16v14.15a3.166 3.166 0 0 0 3.158 3.164h70.44a3.17 3.17 0 0 0 3.158-3.164v-14.15a3.167 3.167 0 0 0-3.157-3.16z" fill="#2f2f2f"/><path d="M97.862 102.729c-.128-.879-.673-1.707-1.643-1.797-.632-.06-1.233.248-1.851.317-.585.065-1.084-.141-1.635-.183-.686-.056-1.448-.259-2.207-.374-.09.004-.162.017-.258.017-.281 0-.535-.05-.803-.068-.254.011-.499.023-.731.101-.96.319-1.326.426-2.304.3-.438-.057-1.404-.126-1.797.043-.283.124-.456.345-.561.622-.282.751-.034 1.894.2 2.456.467 1.084.164 2.14.164 3.303 0 1.973-.011 9.343-.195 11.303-.217 2.236 1.473 1.562 3.112 1.562 1.358.006 2.625.154 3.969.154 1.26 0 2.277-.463 3.517-.458.916.004 3.108.242 3.445-.938.19-.644-.014-1.765-.046-2.433-.168-2.826.033-11.112-.376-13.927z" fill="#ed6c30"/><path d="M121.785 12.247c-1.354-.881-4.182-2.373-6.477-2.373-.911 0-1.731.233-2.345.826-.636.609-.347 1.725.046 2.486 1.966 3.831-.263 6.707-4.376 6.707-.995 0-1.923-.062-2.889-.169-2.676-.303-5.196-2.336-7.37-3.766-2.023-1.329-3.972-2.765-6.029-4.037-1.862-1.157-3.831-2.174-5.926-2.843-4.69-1.494-10-2.185-15.433-2.185-4.877 0-9.871.556-14.625 1.595-4.74 1.039-9.243 2.554-13.173 4.472-12.711 6.204-20.503 21.24-16.373 35.119 4.082 13.746 16.482 20.96 29.888 23.348 3.943.702 7.942 1.096 11.942 1.388 2.147.154 19.533-.202 14.302 4.629-2.847 2.635-8.161 4.753-7.932 9.404.248 5.255 7.121 8.072 11.458 8.943.918.186 2.441.604 3.796.604 1.032 0 1.972-.245 2.487-1.021 1.126-1.688-.791-2.528-1.992-3.274-1.894-1.169-2.774-2.191-2.277-4.632 1.046-5.043 7.8-5.458 11.86-6.184 5.538-.993 11.342-3.511 13.049-9.384 1.541-5.286-.561-11.531-5.154-14.497-5.764-3.719-13-2.795-19.489-3.365-3.544-.309-8.361-1.707-11.057-4.062-4.927-4.293 3.563-8.208 6.81-9.101 2.792-.764 5.674-.961 8.573-.961 2.937 0 5.899.199 8.825.199 1.201 0 2.382-.033 3.562-.126 6.988-.552 13.978-3.849 18.2-9.596 4.325-5.885 4.709-13.854-1.881-18.144z" fill="#78a3ad"/></g></svg>