<svg id="レイヤー_1" xmlns="http://www.w3.org/2000/svg" xmlns:xlink="http://www.w3.org/1999/xlink" viewBox="0 0 128 128"><g><g><g><path fill="#fcc21b" d="M104.216 128h13.609L99.901 68.548h-13.61z"/></g></g><g><g><path fill="#fcc21b" d="M85.282 128H71.456l16.121-59.452h13.834z"/></g></g><g><g><path fill="#fcc21b" d="M43.226 128h13.609L38.903 68.548H25.299z"/></g></g><g><g><path fill="#fcc21b" d="M24.292 128H10.458l16.117-59.452h13.836z"/></g></g><g><defs><path id="SVGID_1_" d="M124.543 73.087H3.449a3.268 3.268 0 0 1-3.264-3.268V26.027a3.265 3.265 0 0 1 3.264-3.267h121.094a3.266 3.266 0 0 1 3.271 3.267V69.82a3.268 3.268 0 0 1-3.271 3.267z"/></defs><use xlink:href="#SVGID_1_" overflow="visible" fill="#fcc21b"/><clipPath id="SVGID_2_"><use xlink:href="#SVGID_1_" overflow="visible"/></clipPath><g clip-path="url(#SVGID_2_)"><g><g><g><g><g><path fill="#2f2f2f" d="M-6.032 85.673l-10.577-7.959L39.522-.861l10.58 7.964z"/></g><g><path fill="#2f2f2f" d="M27.421 85.673l-10.578-7.959L72.973-.861l10.589 7.964z"/></g><g><path fill="#2f2f2f" d="M60.867 85.673L50.29 77.714 106.422-.861l10.579 7.964z"/></g><g><path fill="#2f2f2f" d="M94.314 85.673l-10.572-7.959L139.876-.861l10.579 7.964z"/></g></g></g></g></g></g></g><g><g><g fill="#2f2f2f"><path d="M31.651 13.664c0 5.431-4.4 9.831-9.834 9.831-5.42 0-9.821-4.4-9.821-9.831 0-5.426 4.401-9.822 9.821-9.822 5.434 0 9.834 4.396 9.834 9.822z"/><path d="M21.817 25.814c-6.694 0-12.134-5.452-12.134-12.15 0-6.695 5.439-12.139 12.134-12.139 6.701 0 12.149 5.444 12.149 12.139.001 6.698-5.447 12.15-12.149 12.15zm0-19.656c-4.135 0-7.498 3.369-7.498 7.506 0 4.143 3.363 7.512 7.498 7.512 4.147 0 7.514-3.369 7.514-7.512 0-4.137-3.366-7.506-7.514-7.506z"/></g><g fill="#2f2f2f"><path d="M18.594 3.842h3.224v19.653h-3.224z"/><path d="M21.817 25.849h-3.224a2.355 2.355 0 0 1-2.357-2.354V3.842a2.358 2.358 0 0 1 2.357-2.354h3.224a2.354 2.354 0 0 1 2.358 2.354v19.653a2.352 2.352 0 0 1-2.358 2.354z"/></g><g><path d="M28.581 13.664c0 5.431-4.405 9.831-9.825 9.831a9.825 9.825 0 0 1-9.828-9.831c0-5.426 4.395-9.822 9.828-9.822 5.42 0 9.825 4.396 9.825 9.822z" fill="#ed6c30"/></g><g><path d="M18.756 25.814c-6.695 0-12.144-5.452-12.144-12.15 0-6.695 5.448-12.139 12.144-12.139 6.697 0 12.147 5.444 12.147 12.139 0 6.698-5.45 12.15-12.147 12.15zm0-19.656c-4.14 0-7.51 3.369-7.51 7.506 0 4.143 3.37 7.512 7.51 7.512 4.134 0 7.512-3.369 7.512-7.512 0-4.137-3.378-7.506-7.512-7.506z" fill="#2f2f2f"/></g></g><g><g fill="#2f2f2f"><path d="M120.623 13.664c0 5.431-4.402 9.831-9.828 9.831-5.426 0-9.827-4.4-9.827-9.831 0-5.426 4.401-9.822 9.827-9.822s9.828 4.396 9.828 9.822z"/><path d="M110.795 25.814c-6.697 0-12.142-5.452-12.142-12.15 0-6.695 5.444-12.139 12.142-12.139 6.695 0 12.142 5.444 12.142 12.139 0 6.698-5.447 12.15-12.142 12.15zm0-19.656c-4.139 0-7.508 3.369-7.508 7.506 0 4.143 3.369 7.512 7.508 7.512 4.14 0 7.51-3.369 7.51-7.512 0-4.137-3.37-7.506-7.51-7.506z"/></g><g fill="#2f2f2f"><path d="M107.565 3.842h3.23v19.653h-3.23z"/><path d="M110.795 25.849h-3.229a2.35 2.35 0 0 1-2.353-2.354V3.842a2.353 2.353 0 0 1 2.353-2.354h3.229a2.35 2.35 0 0 1 2.351 2.354v19.653a2.35 2.35 0 0 1-2.351 2.354z"/></g><g><path d="M117.555 13.664c0 5.431-4.405 9.831-9.829 9.831-5.426 0-9.828-4.4-9.828-9.831 0-5.426 4.402-9.822 9.828-9.822 5.423 0 9.829 4.396 9.829 9.822z" fill="#ed6c30"/></g><g><path d="M107.726 25.814c-6.695 0-12.144-5.452-12.144-12.15 0-6.695 5.448-12.139 12.144-12.139 6.7 0 12.147 5.444 12.147 12.139 0 6.698-5.447 12.15-12.147 12.15zm0-19.656c-4.14 0-7.508 3.369-7.508 7.506 0 4.143 3.368 7.512 7.508 7.512 4.141 0 7.508-3.369 7.508-7.512-.001-4.137-3.368-7.506-7.508-7.506z" fill="#2f2f2f"/></g></g></g></g></svg>