<svg xmlns="http://www.w3.org/2000/svg" viewBox="0 0 128 128"><g id="Layer_2"><path id="XMLID_365_" fill="#fcc21b" d="M55.008 29.669l-.545 10.207 7.73 1.354 3.835-19.943z"/><path id="XMLID_28_" fill="#646464" d="M34.64 68.938l1.562-5.96 21.846 2.818 16.237 3.142v3.792H34.64z"/><path id="XMLID_14_" transform="rotate(-55.22 70.036 50.681)" fill="#fcc21b" d="M66.329 43.183h7.409v14.992h-7.409z"/><circle id="XMLID_5_" cx="76.208" cy="54.93" r="3.755" fill="#fcc21b"/><path id="XMLID_6_" d="M53.597 19.702L54.954 36.7l11.096-.8c5.158-.372 8.956-4.984 8.332-10.118l-.757-6.22c-.7-5.752-6.209-9.644-11.864-8.382l-2.245.501a7.597 7.597 0 0 0-5.919 8.021z" fill="#fcc21b"/><path id="XMLID_12_" d="M54.124 31.265l5.106-1.336-.017-3.66a3.35 3.35 0 0 1 1.746-2.956h.001l1.55 3.909a3.518 3.518 0 0 0 2.477-2.392l.702-2.338a3.266 3.266 0 0 1 2.082-2.155l5.652-1.913s-.689-8.022-8.693-8.356a40.733 40.733 0 0 0-4.042.039c-6.039.348-10.362 5.977-9.159 11.906v.002a65.418 65.418 0 0 0 2.595 9.248v.002z" fill="#6d4c41"/><path id="XMLID_406_" d="M69.845 23.807c.075.752.64 1.312 1.265 1.25.622-.062 1.068-.722.993-1.475-.075-.754-.642-1.314-1.265-1.252-.625.062-1.069.723-.993 1.477" fill="#c17b47"/><path id="XMLID_11_" d="M64.853 44.531l-2.488 8.867-4.317 12.398-21.846-2.818 7.982-16.994a20.11 20.11 0 0 1 9.547-9.603c3.233-1.542 7.107-.188 8.661 3.039l2.461 5.111z" fill="#00bea4"/><path id="XMLID_13_" d="M71.2 44.752l-6.799 9.424-9.638-6.953a5.81 5.81 0 0 1 6.8-9.424l9.637 6.953z" fill="#04a287"/><path id="XMLID_317_" d="M5.011 73.148h119.161s-.139 17.855-10.634 24.98H25.519s-13.841-9.912-20.508-24.98z" fill="#ed6c30"/><path id="XMLID_290_" d="M125.095 76.643H3.248a2.02 2.02 0 0 1-2.02-2.02v-4.969a2.02 2.02 0 0 1 2.02-2.02h121.847a2.02 2.02 0 0 1 2.02 2.02v4.969a2.02 2.02 0 0 1-2.02 2.02z" fill="#db5e2c"/><path id="XMLID_27_" transform="rotate(-135.276 74.202 75.41)" fill="#ffad1a" d="M70.877 52.422h6.647v45.976h-6.647z"/><path id="XMLID_165_" fill="#ea960f" d="M90.409 63.804l-8.878-.482 9.858-10.242 5.274 4.289z"/><path id="XMLID_15_" transform="rotate(-88.034 82.825 55.186)" fill="#fcc21b" d="M79.12 48.839h7.409v12.692H79.12z"/><path id="XMLID_21_" d="M96.984 59.587a4.82 4.82 0 0 1-6.449 2.21l-2.173-1.064a4.82 4.82 0 0 1 4.239-8.659l2.173 1.064a4.821 4.821 0 0 1 2.21 6.449z" fill="#fcc21b"/><path id="XMLID_166_" fill="#039be5" d="M0 93.581h127.927V128H0z"/><g id="XMLID_199_" fill="#29b6f6"><g id="XMLID_197_"><path id="XMLID_206_" d="M.029 104.364c6.062 0 9.429-7.189 15.996-7.189H.029v7.189z"/><path id="XMLID_207_" d="M16.025 97.176c6.567 0 9.935 7.189 15.996 7.189s9.43-7.189 15.996-7.189H16.025z"/><path id="XMLID_210_" d="M48.018 97.176c6.567 0 9.935 7.189 15.996 7.189 6.062 0 9.429-7.189 15.996-7.189H48.018z"/><path id="XMLID_211_" d="M80.011 97.176c6.567 0 9.935 7.189 15.996 7.189 6.062 0 9.43-7.189 15.996-7.189H80.011z"/><path id="XMLID_212_" d="M112.004 97.176c6.567 0 9.935 7.189 15.996 7.189v-7.189h-15.996z"/></g><path id="XMLID_198_" d="M0 93.581h128v3.594H0z"/></g><path id="XMLID_193_" d="M60.808 88.846a6.36 6.36 0 0 1 .043 8.997L46.64 112.191a6.36 6.36 0 0 1-8.997.043 6.36 6.36 0 0 1-.043-8.997L51.811 88.89a6.362 6.362 0 0 1 8.997-.044z" fill="#ffcd3e"/></g></svg>