<svg id="レイヤー_1" xmlns="http://www.w3.org/2000/svg" xmlns:xlink="http://www.w3.org/1999/xlink" viewBox="0 0 128 128"><g><g><g><g><g><path d="M51.95 73.258h-.083c-3.291-.05-5.932-2.761-5.888-6.048.044-3.246 2.72-5.884 5.966-5.884 3.376.045 6.022 2.761 5.978 6.048-.049 3.242-2.723 5.884-5.973 5.884zm.065-10.669c-2.626 0-4.74 2.079-4.774 4.636-.035 2.592 2.049 4.73 4.646 4.771l.064.632v-.632c2.563 0 4.671-2.085 4.71-4.641.036-2.592-2.054-4.731-4.646-4.766z" fill="#fff"/></g><g><path d="M71.238 75.553h-.084a5.918 5.918 0 0 1-4.197-1.805 5.92 5.92 0 0 1-1.69-4.24c.043-3.243 2.724-5.884 5.972-5.884 1.675.02 3.163.66 4.273 1.804a5.944 5.944 0 0 1 1.688 4.241c-.051 3.247-2.725 5.884-5.962 5.884zm.064-10.668c-2.633 0-4.736 2.079-4.775 4.643a4.636 4.636 0 0 0 1.331 3.346 4.684 4.684 0 0 0 3.31 1.419l.07.63v-.63c2.557 0 4.659-2.08 4.701-4.637a4.706 4.706 0 0 0-1.33-3.347 4.657 4.657 0 0 0-3.307-1.424z" fill="#fff"/></g><g><path d="M90.514 77.854h-.088a5.894 5.894 0 0 1-4.189-1.808 5.99 5.99 0 0 1-1.69-4.242c.06-3.242 2.726-5.879 5.967-5.879 3.375.045 6.021 2.754 5.976 6.045-.045 3.244-2.725 5.884-5.976 5.884zm.059-10.667c-2.617 0-4.726 2.078-4.76 4.636a4.68 4.68 0 0 0 1.329 3.346 4.642 4.642 0 0 0 3.298 1.424l.074.632v-.632c2.562 0 4.677-2.079 4.716-4.641.033-2.593-2.056-4.731-4.657-4.765z" fill="#fff"/></g></g><g><g><g><path d="M74.134 22.918c.1-.064.198-.128.302-.192.725-.448 1.556-.856 1.679-1.725.306-2.231 1.553-4.356 3.312-5.751 1.409-1.117 3.133-1.837 4.913-2.112.719-.113 1.553-.034 2.277-.006.871.035 1.842.616 2.529-.127.271-.297.419-.868.679-1.218 2.701-3.602 8.052-4.223 12.034-2.621.378.148.747.473 1.108.592.571.186.462.102 1.07-.183 1.467-.7 2.719-1.8 4.242-2.399 1.799-.705 3.725-1.1 5.662-1.03 3.257.107 6.401 1.552 8.525 4.04 4.266 5.017 2.555 11.722-2.796 15.107a12.7 12.7 0 0 1-5.208 1.862c-2.277.281-5.288.434-7.528-.138-1.386-.355-2.737-.818-4.081-1.29-.331-.113-.7-.336-1.07-.184-.266.114-.562.508-.816.691a9.1 9.1 0 0 1-1.08.71c-1.129.626-2.419 1.148-3.696 1.418-.798.169-1.596.419-2.411.444-.815.024-1.634.009-2.438-.074-1.077-.114-2.084-.389-3.109-.69-.897-.261-1.907-.872-2.838-.926-.291 1.493.034 3.025-.246 4.519-.256 1.424-1.192 2.68-2.287 3.602-1.955 1.65-4.922 1.778-7.311 1.163-2.036-.521-3.719-.851-4.533-3.01-.602-1.607-.671-3.524-.336-5.199.457-2.277 1.605-4.031 3.452-5.273z" fill="#fff"/><path d="M78.2 39.262c-1.095 0-2.198-.143-3.283-.418l-.287-.075c-2.107-.537-4.738-1.207-5.972-4.497-.733-1.956-.895-4.352-.448-6.573.583-2.938 2.105-5.249 4.515-6.87l.645-.407c.098-.065.211-.119.311-.184.483-2.71 1.991-5.232 4.18-6.967 1.729-1.37 3.842-2.276 6.095-2.626.733-.113 1.552-.095 2.335-.055l.418.02c.267.009.537.049.812.099.085-.153.179-.296.288-.438 2.119-2.834 5.651-4.461 9.663-4.461 1.833 0 3.676.351 5.326 1.015.182.075.37.163.552.267.409-.227.808-.482 1.197-.734.813-.517 1.735-1.102 2.809-1.526 2.054-.809 4.115-1.217 6.16-1.217l.512.009c4.031.138 7.806 1.932 10.353 4.928 2.38 2.794 3.405 6.232 2.878 9.692-.562 3.685-2.839 7.031-6.244 9.185a15.292 15.292 0 0 1-6.242 2.232c-3.336.413-6.314.35-8.462-.197-1.306-.331-2.527-.739-3.849-1.198-.432.326-.875.627-1.354.888-1.434.793-2.956 1.375-4.396 1.68l-.557.128c-.674.158-1.434.341-2.295.365l-.809.015a18.57 18.57 0 0 1-1.976-.099c-1.188-.123-2.272-.409-3.287-.698-.015.49-.055 1.015-.151 1.545-.34 1.848-1.461 3.652-3.15 5.082-1.627 1.366-3.804 2.09-6.287 2.09zm7.022-23.661a3.4 3.4 0 0 0-.498.029c-1.375.212-2.7.779-3.729 1.597-1.277 1.011-2.163 2.547-2.375 4.114-.281 1.972-1.813 2.901-2.646 3.4l-.429.266c-1.301.883-2.061 2.051-2.392 3.681-.26 1.307-.17 2.729.228 3.815.271.723.575.892 2.503 1.379l.29.074c1.926.497 4 .245 5.061-.646.784-.665 1.301-1.438 1.434-2.13.094-.497.083-1.104.074-1.743-.005-.843-.029-1.794.177-2.799a2.51 2.51 0 0 1 2.628-2.04c1.014.06 1.911.434 2.635.729.255.108.511.222.758.296.902.261 1.788.508 2.667.602.473.048.96.068 1.443.068l.656-.01c.345-.011.797-.117 1.281-.236l.675-.152c.95-.202 2.01-.611 3.006-1.158.275-.156.532-.33.793-.522.305-.32.725-.734 1.336-.995 1.053-.438 2.32-.098 2.797.094 1.463.518 2.706.94 3.956 1.26 1.509.381 3.928.41 6.597.081a10.195 10.195 0 0 0 4.174-1.494c2.168-1.37 3.602-3.44 3.942-5.676.311-2.016-.285-3.972-1.724-5.663-1.637-1.916-4.071-3.068-6.688-3.158l-.339-.005c-1.4 0-2.853.292-4.312.868-.616.241-1.261.65-1.937 1.084-.699.449-1.404.887-2.148 1.241-.477.253-.985.528-1.733.528-.474 0-.849-.109-1.198-.222-.483-.158-.861-.396-1.143-.562-3.592-1.553-7.456-.62-9.201 1.706-.212.476-.433.965-.846 1.413-.493.542-1.386 1.187-2.752 1.187-.54 0-1.003-.098-1.378-.177-.118-.03-.236-.064-.354-.073l-.478-.021c-.264-.016-.542-.03-.811-.03z" fill="#78a3ad"/></g><g><path d="M57.293 67.363c-.04 2.946-2.469 5.302-5.415 5.264-2.953-.046-5.307-2.465-5.268-5.406.038-2.951 2.469-5.303 5.416-5.263a5.338 5.338 0 0 1 5.267 5.405zm14.018-3.108a5.328 5.328 0 0 0-5.41 5.263 5.326 5.326 0 0 0 5.264 5.404 5.325 5.325 0 0 0 5.402-5.258 5.328 5.328 0 0 0-5.256-5.409zm19.27 2.301a5.325 5.325 0 0 0-5.399 5.258c-.041 2.945 2.311 5.37 5.252 5.41a5.35 5.35 0 0 0 5.425-5.263c.04-2.946-2.325-5.365-5.278-5.405z" fill="#00bfef"/></g><g><g><g><g><g><g><path d="M74.134 22.918c.1-.064.198-.128.302-.192.725-.448 1.556-.856 1.679-1.725.306-2.231 1.553-4.356 3.312-5.751 1.409-1.117 3.133-1.837 4.913-2.112.719-.113 1.553-.034 2.277-.006.871.035 1.842.616 2.529-.127.271-.297.419-.868.679-1.218 2.701-3.602 8.052-4.223 12.034-2.621.378.148.747.473 1.108.592.571.186.462.102 1.07-.183 1.467-.7 2.719-1.8 4.242-2.399 1.799-.705 3.725-1.1 5.662-1.03 3.257.107 6.401 1.552 8.525 4.04 4.266 5.017 2.555 11.722-2.796 15.107a12.7 12.7 0 0 1-5.208 1.862c-2.277.281-5.288.434-7.528-.138-1.386-.355-2.737-.818-4.081-1.29-.331-.113-.7-.336-1.07-.184-.266.114-.562.508-.816.691a9.1 9.1 0 0 1-1.08.71c-1.129.626-2.419 1.148-3.696 1.418-.798.169-1.596.419-2.411.444-.815.024-1.634.009-2.438-.074-1.077-.114-2.084-.389-3.109-.69-.897-.261-1.907-.872-2.838-.926-.291 1.493.034 3.025-.246 4.519-.256 1.424-1.192 2.68-2.287 3.602-1.955 1.65-4.922 1.778-7.311 1.163-2.036-.521-3.719-.851-4.533-3.01-.602-1.607-.671-3.524-.336-5.199.457-2.277 1.605-4.031 3.452-5.273z" fill="#fff"/><path d="M78.2 39.262c-1.095 0-2.198-.143-3.283-.418l-.287-.075c-2.107-.537-4.738-1.207-5.972-4.497-.733-1.956-.895-4.352-.448-6.573.583-2.938 2.105-5.249 4.515-6.87l.645-.407c.098-.065.211-.119.311-.184.483-2.71 1.991-5.232 4.18-6.967 1.729-1.37 3.842-2.276 6.095-2.626.733-.113 1.552-.095 2.335-.055l.418.02c.267.009.537.049.812.099.085-.153.179-.296.288-.438 2.119-2.834 5.651-4.461 9.663-4.461 1.833 0 3.676.351 5.326 1.015.182.075.37.163.552.267.409-.227.808-.482 1.197-.734.813-.517 1.735-1.102 2.809-1.526 2.054-.809 4.115-1.217 6.16-1.217l.512.009c4.031.138 7.806 1.932 10.353 4.928 2.38 2.794 3.405 6.232 2.878 9.692-.562 3.685-2.839 7.031-6.244 9.185a15.292 15.292 0 0 1-6.242 2.232c-3.336.413-6.314.35-8.462-.197-1.306-.331-2.527-.739-3.849-1.198-.432.326-.875.627-1.354.888-1.434.793-2.956 1.375-4.396 1.68l-.557.128c-.674.158-1.434.341-2.295.365l-.809.015a18.57 18.57 0 0 1-1.976-.099c-1.188-.123-2.272-.409-3.287-.698-.015.49-.055 1.015-.151 1.545-.34 1.848-1.461 3.652-3.15 5.082-1.627 1.366-3.804 2.09-6.287 2.09zm7.022-23.661a3.4 3.4 0 0 0-.498.029c-1.375.212-2.7.779-3.729 1.597-1.277 1.011-2.163 2.547-2.375 4.114-.281 1.972-1.813 2.901-2.646 3.4l-.429.266c-1.301.883-2.061 2.051-2.392 3.681-.26 1.307-.17 2.729.228 3.815.271.723.575.892 2.503 1.379l.29.074c1.926.497 4 .245 5.061-.646.784-.665 1.301-1.438 1.434-2.13.094-.497.083-1.104.074-1.743-.005-.843-.029-1.794.177-2.799a2.51 2.51 0 0 1 2.628-2.04c1.014.06 1.911.434 2.635.729.255.108.511.222.758.296.902.261 1.788.508 2.667.602.473.048.96.068 1.443.068l.656-.01c.345-.011.797-.117 1.281-.236l.675-.152c.95-.202 2.01-.611 3.006-1.158.275-.156.532-.33.793-.522.305-.32.725-.734 1.336-.995 1.053-.438 2.32-.098 2.797.094 1.463.518 2.706.94 3.956 1.26 1.509.381 3.928.41 6.597.081a10.195 10.195 0 0 0 4.174-1.494c2.168-1.37 3.602-3.44 3.942-5.676.311-2.016-.285-3.972-1.724-5.663-1.637-1.916-4.071-3.068-6.688-3.158l-.339-.005c-1.4 0-2.853.292-4.312.868-.616.241-1.261.65-1.937 1.084-.699.449-1.404.887-2.148 1.241-.477.253-.985.528-1.733.528-.474 0-.849-.109-1.198-.222-.483-.158-.861-.396-1.143-.562-3.592-1.553-7.456-.62-9.201 1.706-.212.476-.433.965-.846 1.413-.493.542-1.386 1.187-2.752 1.187-.54 0-1.003-.098-1.378-.177-.118-.03-.236-.064-.354-.073l-.478-.021c-.264-.016-.542-.03-.811-.03z" fill="#78a3ad"/></g><g><defs><path id="SVGID_1_" d="M66.25 32.587c.089-.431.24-.848.375-1.268.424-1.316 1.819-2.425 3.137-3.006 1.54-.655 3.347-.764 5.022-.758 3.051.009 5.528.521 8.204 1.773 2.528 1.178 4.08 2.877 4.064 5.681-.038 7.065-.605 25.062-.524 26.993.05 1.192.099 2.38.112 3.562.021 2.163-1.074 3.528-3.231 3.671-3.42.228-6.51-.01-9.797-.723-3.532-.77-7.297-1.8-10.923-2.051-.186-2.007.018-6.116.018-6.116s2.844-24.376 3.543-27.758z"/></defs><use xlink:href="#SVGID_1_" overflow="visible" fill="#ed6c30"/><clipPath id="SVGID_2_"><use xlink:href="#SVGID_1_" overflow="visible"/></clipPath><g clip-path="url(#SVGID_2_)"><path d="M65 37.632c.31-.853.831-1.427 1.902-1.962 2.798-1.398 7.848-1.356 8.798-1.273 7.218.633 10.516 3.289 11.221 4.042.927.977.593 1.796.556 3.021-.018.641.076 1.325-.038 1.938-.408-.503-2.614-3.376-8.285-4.636-2.789-.619-5.812-.947-8.909-.405-1.865.326-4.34 1.274-5.86 2.719-.124-.817.156-1.404.29-2.172.088-.489.186-.909.325-1.272z" fill="#fff"/></g></g><g><path d="M29.453 77.366c-.504-.541-.437-1.647-.176-2.812.309-1.382 4.071-15.675 4.707-17.056 1.841-3.997 5.635-3.697 6.674-3.702 4.07-.021 8.204.689 12.16 1.125 8.018.887 36.497 5.065 42.952 6.237 1.642.298 6.524 1.124 7.732 1.383 2.221.475 3.994 1.319 4.813 2.85.731 1.367.943 2.847 1.005 3.333.642 5.111 1.402 17.063 1.402 17.063s-.946.088-1.305-.29l-79.964-8.131z" fill="#fcc21b"/></g><g><path d="M57.293 67.363c-.04 2.946-2.469 5.302-5.415 5.264-2.953-.046-5.307-2.465-5.268-5.406.038-2.951 2.469-5.303 5.416-5.263a5.338 5.338 0 0 1 5.267 5.405zm14.018-3.108a5.328 5.328 0 0 0-5.41 5.263 5.326 5.326 0 0 0 5.264 5.404 5.325 5.325 0 0 0 5.402-5.258 5.328 5.328 0 0 0-5.256-5.409zm19.27 2.301a5.325 5.325 0 0 0-5.399 5.258c-.041 2.945 2.311 5.37 5.252 5.41a5.35 5.35 0 0 0 5.425-5.263c.04-2.946-2.325-5.365-5.278-5.405z" fill="#fff"/></g></g></g></g></g></g></g></g></g><path d="M15.477 100.146c1.012 2.336 3.688 6.342 2.869 9.002-.609 1.983-2.061 2.707-3.219 3.716h100.052c.025-2.83.294-5.918.375-6.238 1.469-5.77 8.431-13.851 6.746-19.787-.516-1.797-2.222-2.382-4.084-2.638-1.377-.19-27.605-3.715-35.646-4.715-12.497-1.558-25.071-2.642-37.542-4.567-5.039-.781-15.522-2.217-24.282-3.207-4.629-.524-10.433-.991-14.507-1.326-1.715-.142-3.504-.067-4.578.89-2.453 2.198-.033 7.009 1.355 9.151 1.155 1.789 2.17 3.598 3.406 5.321 3.32 4.637 6.74 9.071 9.055 14.398z" fill="#006ca2"/></g><g><path d="M123.305 109.711H7.255a3.15 3.15 0 0 0-3.154 3.152 3.15 3.15 0 0 0 3.154 3.153h14.733c.98 0 1.955-.005 2.931 0 .496.006.758.123 1.196.247.267.073.494-.02.719.177.651.603-.404 1.961-.404 2.729a3.153 3.153 0 0 0 3.154 3.154h10.678c1.679 0 4.204.04 4.321 2.186.099 1.829 1.1 3.489 3.154 3.489h39.498a3.152 3.152 0 0 0 3.152-3.152c0-2.656 1.814-2.523 3.978-2.523H105.392a3.152 3.152 0 0 0 3.154-3.154c0-.995-1.045-1.817-.039-2.523.723-.507 1.801-.63 2.665-.63h12.131a3.152 3.152 0 0 0 3.153-3.153 3.15 3.15 0 0 0-3.151-3.152z" fill="#40c0e7"/></g></g></svg>