<svg id="レイヤー_1" xmlns="http://www.w3.org/2000/svg" viewBox="0 0 128 128"><g><path d="M32.079 14.208c-.119-1.516.285-2.945.482-4.375.148-1.072-.41-1.186.404-2.177 1.041-1.269 3.475-1.378 4.895-1.72 6.734-1.612 13.703-1.119 20.35.722 3.398.939 6.734 2.208 9.959 3.731 7.127 3.375 13.457 8.511 20.508 11.908 1.773.853 3.828 1.452 5.668 2.151 6.285 2.381 13.064 2.177 19.439.239 2.799-.853 6.609-3.288 9.662-2.149 3.479 1.299 2.352 8.107 1.35 10.932-3.619 10.199-12.396 18.59-21.699 23.695-.562.311-1.145.611-1.717.902-6.191 3.116-12.895 4.954-19.709 5.09-7.188.141-14.605-2.381-21.721-1.831-9.385.725-19.855 2.546-26.285 10.417-.117-1.213-.777-2.3-.945-3.527-.375-2.692.266-5.721.207-8.482-.084-3.672.117-7.338-.197-11.002-.523-6.022.324-12.095-.266-18.157-.498-5.092-.346-10.266-.346-15.413 0-.308-.021-.626-.039-.954z" fill="#ed6c30"/><g><path d="M32.245 127.406a5.05 5.05 0 0 1-5.047-5.049V5.643a5.049 5.049 0 0 1 10.096 0v116.715a5.047 5.047 0 0 1-5.049 5.048z" fill="#78a3ad"/></g></g></svg>