<svg id="レイヤー_1" xmlns="http://www.w3.org/2000/svg" viewBox="0 0 128 128"><circle cx="64" cy="64" r="56" fill="#fff"/><g><path d="M64 128C28.71 128 0 99.289 0 64 0 28.71 28.711 0 64 0s64 28.71 64 64c0 35.289-28.71 64-64 64zm0-117.113c-29.287 0-53.114 23.827-53.114 53.113 0 29.287 23.827 53.113 53.114 53.113S117.113 93.287 117.113 64 93.287 10.887 64 10.887z" fill="#db4437"/></g><path d="M86 61H27c-1.65 0-3 1.35-3 3v7c0 1.65 1.35 3 3 3h59c1.65 0 3-1.35 3-3v-7c0-1.65-1.35-3-3-3z" fill="#2f2f2f"/><g><path d="M91.802 72.143c-.182 1.95 1.288 1.362 2.718 1.368 1.186 0 2.287.132 3.465.132 1.097 0 1.984-.407 3.068-.402.798.005 2.705.211 3.004-.818.163-.559 0-1.534-.04-2.117-.146-2.47.028-5.008-.329-7.463-.108-.769-.588-1.49-1.441-1.567-.543-.054-1.069.215-1.606.274-.509.059-.946-.123-1.426-.161-.766-.059-1.668-.344-2.504-.382-.058-.007-.122-.007-.181-.012-.28 0-.554.025-.804.113-.838.28-1.156.372-2.014.26-.371-.049-1.22-.113-1.564.039-.244.102-.395.299-.484.544-.25.651-.04 1.647.176 2.141.407.946.138 1.862.138 2.876 0 1.72-.012 3.464-.176 5.175z" fill="#ed6c30"/><path d="M59.703 30.198c2.416 8.132 9.751 12.397 17.68 13.811 2.333.416 4.702.647 7.065.82 1.269.091 11.555-.119 8.464 2.737-1.237 1.141-3.239 2.126-4.174 3.647-.348.556-.557 1.179-.523 1.917.155 3.111 4.215 4.777 6.782 5.296.544.107 1.444.354 2.247.354.607 0 1.167-.144 1.472-.601.662-.998-.471-1.496-1.185-1.937-1.115-.692-1.644-1.298-1.338-2.741.619-2.984 4.608-3.227 7.01-3.66 1.492-.268 3.002-.733 4.313-1.475 1.574-.89 2.859-2.18 3.407-4.076.182-.618.255-1.261.277-1.904.061-2.609-1.142-5.262-3.321-6.672-3.053-1.966-6.789-1.744-10.301-1.913-.41-.02-.824-.041-1.231-.078-2.099-.181-4.949-1.01-6.546-2.403-1.465-1.278-.919-2.502.232-3.466 1.131-.952 2.848-1.653 3.799-1.916 1.653-.454 3.355-.569 5.074-.569 1.742 0 3.491.115 5.218.115h.029c.701 0 1.392-.021 2.081-.074 3.569-.28 7.133-1.78 9.653-4.369.396-.412.775-.845 1.112-1.306 2.564-3.487 2.789-8.198-1.108-10.736-.803-.523-2.477-1.405-3.833-1.405-.534 0-1.021.14-1.388.491-.371.363-.203 1.018.029 1.467.717 1.397.487 2.576-.362 3.276-.532.441-1.29.697-2.225.697a14.41 14.41 0 0 1-1.703-.103c-1.592-.177-3.078-1.381-4.369-2.225-1.194-.787-2.35-1.636-3.564-2.39-1.11-.684-2.263-1.286-3.509-1.682-2.773-.882-5.909-1.294-9.132-1.294-2.886 0-5.837.334-8.646.948-2.807.61-5.473 1.508-7.799 2.642-.592.293-1.164.626-1.719.976-3.973 2.523-6.906 6.553-8.074 11.045-.727 2.83-.764 5.834.106 8.756z" fill="#78a3ad"/></g><g><g><g><path fill="#db4437" d="M111.366 102.588L102.939 111 16.634 25.274l8.428-8.413z"/></g></g></g></svg>