<svg id="图层_1" xmlns="http://www.w3.org/2000/svg" viewBox="0 0 128 128"><g><g fill="#fbc11b"/><g fill="#fbc11b"/><g/><g id="XMLID_1106_"><g id="XMLID_1113_" fill="#e49500"/></g><g/></g><g><g><g><path d="M121.028 0H7.022C3.239 0 .144 3.094.144 6.877v114.011c0 3.79 3.095 6.88 6.878 6.88h114.006c3.782 0 6.882-3.09 6.882-6.88V6.877c0-3.783-3.1-6.877-6.882-6.877z" fill="#40c0e7"/></g></g></g><path d="M90.467 32.554H67.541c-6.691 0-12.258 4.786-13.481 11.12l-3.289 12.153-10.465 8.264a4.588 4.588 0 0 0 5.704 7.186l11.713-9.249-.005-.007a4.549 4.549 0 0 0 1.516-2.343l2.703-9.99c.282-1.044 1.278-1.807 2.276-1.847.996.04 1.935.848 1.935 1.847v68.628a5.283 5.283 0 1 0 10.566 0V77.82a2.02 2.02 0 0 1 4.04 0v40.495a5.283 5.283 0 1 0 10.566 0V49.689a1.855 1.855 0 1 1 3.71 0v22.99a4.587 4.587 0 1 0 9.174 0V46.291c0-7.587-6.15-13.737-13.737-13.737zm-11.733-3.329c6.951 0 12.586-5.635 12.586-12.586S85.685 4.053 78.734 4.053 66.148 9.688 66.148 16.639s5.635 12.586 12.586 12.586z" fill="#fff"/><g><g><path d="M52.55 123.714H31.523a2.501 2.501 0 0 1-2.475-2.145l-5.173-36.051a2.5 2.5 0 0 1 4.949-.711l4.865 33.906h16.692l4.866-33.906a2.49 2.49 0 0 1 2.83-2.119 2.5 2.5 0 0 1 2.119 2.83l-5.174 36.051a2.496 2.496 0 0 1-2.472 2.145z" fill="#fff"/></g></g><path d="M48.968 88.393l-7.302 1.89a2.037 2.037 0 0 1-1.963-.544l-5.54-5.638c-1.099-1.118-.575-3.007.942-3.4l7.302-1.89a2.037 2.037 0 0 1 1.963.544l5.54 5.638c1.1 1.118.576 3.007-.942 3.4z" fill="#fff"/></svg>