<svg id="图层_1" xmlns="http://www.w3.org/2000/svg" viewBox="0 0 128 128"><g><g><g><path d="M121.028 0H7.022C3.239 0 .144 3.094.144 6.877v114.011c0 3.79 3.095 6.88 6.878 6.88h114.006c3.782 0 6.882-3.09 6.882-6.88V6.877c0-3.783-3.1-6.877-6.882-6.877z" fill="#006ca2"/></g></g></g><g/><g><g/></g><path fill="none" stroke="#fff" stroke-width="11" stroke-linecap="round" stroke-linejoin="round" stroke-miterlimit="10" d="M239.035 12.002h41.263"/><path fill="none" stroke="#fff" stroke-width="11" stroke-linecap="round" stroke-linejoin="round" stroke-miterlimit="10" d="M259.667 12.002v33.17"/><g/><path fill="none" stroke="#fff" stroke-width="5" stroke-linecap="round" stroke-linejoin="round" stroke-miterlimit="10" d="M290.516 32.873V57.47"/><path d="M74.725 35.371H53.329c-6.917 0-12.525 5.608-12.525 12.525v24.06a4.182 4.182 0 0 0 8.365 0V50.993a1.69 1.69 0 1 1 3.382.001v62.573a4.817 4.817 0 0 0 9.634 0V76.644a1.842 1.842 0 0 1 3.684 0v36.923a4.817 4.817 0 0 0 9.634 0V50.994a1.69 1.69 0 1 1 3.382 0v20.962a4.182 4.182 0 0 0 8.365 0V47.895c0-6.917-5.607-12.524-12.525-12.524zm-10.698-3.035c6.338 0 11.476-5.138 11.476-11.476S70.365 9.384 64.027 9.384c-6.338 0-11.476 5.138-11.476 11.476s5.138 11.476 11.476 11.476z" fill="#fff"/></svg>