<svg id="レイヤー_1" xmlns="http://www.w3.org/2000/svg" xmlns:xlink="http://www.w3.org/1999/xlink" viewBox="0 0 128 128"><g><g><defs><path id="SVGID_1_" d="M101.292 120.66c-13.969 0-25.341-11.368-25.341-25.34 0-13.977 11.372-25.345 25.341-25.345 13.977 0 25.345 11.368 25.345 25.345 0 13.973-11.368 25.34-25.345 25.34zm0-43.941c-10.257 0-18.594 8.345-18.594 18.601 0 10.25 8.337 18.597 18.594 18.597 10.254 0 18.596-8.346 18.596-18.597 0-10.256-8.342-18.601-18.596-18.601z"/></defs><use xlink:href="#SVGID_1_" overflow="visible" fill="#2f2f2f"/><clipPath id="SVGID_2_"><use xlink:href="#SVGID_1_" overflow="visible"/></clipPath></g><g><g><defs><path id="SVGID_3_" d="M26.706 120.66c-13.972 0-25.345-11.368-25.345-25.34 0-13.977 11.373-25.345 25.345-25.345 13.976 0 25.346 11.368 25.346 25.345 0 13.973-11.369 25.34-25.346 25.34zm0-43.941c-10.254 0-18.591 8.345-18.591 18.601 0 10.25 8.337 18.597 18.591 18.597 10.253 0 18.599-8.346 18.599-18.597 0-10.256-8.346-18.601-18.599-18.601z"/></defs><use xlink:href="#SVGID_3_" overflow="visible" fill="#2f2f2f"/><clipPath id="SVGID_4_"><use xlink:href="#SVGID_3_" overflow="visible"/></clipPath><path d="M3.355 91.754c2.058-.103 2.694-2.795 3.311-4.327 3.05-7.664 10.826-12.842 18.896-13.656 1.723-.175 5.168-.045 5.093-2.649-.031-1.211-1.164-1.527-2.151-1.754-1.233-.28-2.524-.111-3.771-.12-6.699-.04-13.21 3.833-17.346 8.942-1.406 1.731-2.831 3.031-3.784 5.092-.551 1.197-1.098 2.363-1.602 3.587-.426 1.029-.907 2.209-.606 3.357.198.734.837 1.424 1.606 1.513.123.015.248.02.354.015z" clip-path="url(#SVGID_4_)" fill="#2f2f2f"/></g><g><defs><path id="SVGID_5_" d="M103.562 92.716L81.68 63.253v-5.475c0-1.687-1.373-3.054-3.055-3.054s-3.048 1.367-3.048 3.054v3.431H46.506c.227-1.129.444-2.26.641-3.391l.219-1.3c.81-4.91 1.321-5.418 3.308-5.418h.066c1.615.009 3.228.005 4.847.005L58 51.101a3.05 3.05 0 1 0 0-6.103l-2.423.005c-1.61 0-3.213.004-4.817-.005h-.061c-7.621 0-8.706 6.588-9.357 10.528l-.204 1.224c-2.247 12.685-5.686 25.781-15.512 35.631-.031.036-.077.076-.121.129a2.938 2.938 0 0 0-.361.187 3.046 3.046 0 0 0-1.054 4.184c.587.983 1.603 1.593 2.721 1.629h.11c1.732 0 2.723-1.309 3.194-1.985 7.578-7.674 11.69-16.838 14.303-26.293L61.955 96.24c.086.13.196.231.299.348.044.044.081.093.125.138.248.241.53.428.837.565.07.031.138.053.208.08a2.97 2.97 0 0 0 1.061.213h36.628a3.054 3.054 0 0 0 2.725-1.678 3.054 3.054 0 0 0-.276-3.19zm-39.564-4.358l-14.186-21.04h24.019l-9.833 21.04zm5.28 3.124l9.948-21.294 15.816 21.294H69.278z"/></defs><use xlink:href="#SVGID_5_" overflow="visible" fill="#ed6c30"/><clipPath id="SVGID_6_"><use xlink:href="#SVGID_5_" overflow="visible"/></clipPath></g><g><defs><path id="SVGID_7_" d="M87.448 51.213c-1.372-.517-2.76-.112-4.221.053-1.779.209-3.565.419-5.349.592-2.965.294-5.913 1.015-8.854 1.331-1.705.183-3.103 1.7-3.445 3.303-.459 2.186 1.158 3.249 3.049 3.907 2.328.815 4.821.971 7.26 1.158 2.652.2 5.337.592 8.008.521 2.596-.071 5.302-1.536 6.428-3.939 1.167-2.493.036-5.381-2.367-6.695a3.748 3.748 0 0 0-.509-.231z"/></defs><use xlink:href="#SVGID_7_" overflow="visible" fill-rule="evenodd" clip-rule="evenodd" fill="#2f2f2f"/><clipPath id="SVGID_8_"><use xlink:href="#SVGID_7_" overflow="visible"/></clipPath></g><g><defs><path id="SVGID_9_" d="M47.688 44.995c1.363-1.086 3.879-1.273 5.544-1.335 2.385-.093 4.819-.058 7.206.004 1.792.044 3.409 1.665 3.672 3.423.111.743.062 1.803-.369 2.444-2.779 4.077-7.72 2.39-11.814 2.924-2.126.276-3.355-.218-4.584-2.079-1.104-1.665-1.363-4.028.345-5.381z"/></defs><use xlink:href="#SVGID_9_" overflow="visible" fill-rule="evenodd" clip-rule="evenodd" fill="#2f2f2f"/><clipPath id="SVGID_10_"><use xlink:href="#SVGID_9_" overflow="visible"/></clipPath></g><path d="M66.207 94.986c-.525.489-.52 1.455-.766 2.092-.351.93-.561 1.797-.615 2.782-.046 1.006-.417 1.932-.542 2.938-.286 2.283 2.854 1.735 3.448.165.553-1.464.73-3.036 1.028-4.558.224-1.086 1.39-3.343-.252-4.016-.468-.187-1.865.249-2.23.534-.027.018-.046.041-.071.063z" fill-rule="evenodd" clip-rule="evenodd" fill="#2f2f2f"/></g><path d="M67.538 101.801c-.289.004-.575.004-.843-.009-1.1-.044-2.251-.218-3.346-.129-2.022.169-4.639 1.594-4.482 3.931.194 2.907 2.377 2.545 4.611 2.545 2.229 0 6 .57 7.855-.993 1.381-1.166 1.024-4.023-.547-4.878-.957-.516-2.14-.477-3.248-.467z" fill-rule="evenodd" clip-rule="evenodd" fill="#2f2f2f"/></g></svg>