<svg id="图层_1" xmlns="http://www.w3.org/2000/svg" viewBox="0 0 128 128"><g><g><g><path d="M121.028.232H7.022C3.24.232.144 3.326.144 7.109V121.12c0 3.79 3.095 6.88 6.878 6.88h114.006c3.782 0 6.882-3.09 6.882-6.88V7.109c0-3.783-3.1-6.877-6.882-6.877z" fill="#006ca2"/></g></g></g><g fill="#fff"><path d="M71.484 23.057c-.215-.456-.541-.723-.884-.723H58.901c-.538 0-.998.639-1.102 1.522l-4.524 38.665-6.352-38.801a2.624 2.624 0 0 0-.183-.615c-.004-.012-.004-.028-.012-.042-.013-.032-.037-.042-.052-.073a1.502 1.502 0 0 0-.283-.388c-.038-.036-.071-.07-.109-.098-.137-.1-.283-.171-.442-.171H37.38c-.158 0-.305.071-.442.171-.037.028-.071.062-.108.098a1.462 1.462 0 0 0-.283.388c-.017.031-.039.041-.054.073-.006.014-.006.03-.012.042a2.624 2.624 0 0 0-.183.615l-6.352 38.801-4.525-38.665c-.104-.883-.565-1.522-1.1-1.522H12.624c-.345 0-.674.267-.885.723-.212.458-.289 1.055-.208 1.617l11.698 79.775c.005.027.017.05.021.077.027.148.062.289.111.422.014.041.024.081.041.119.011.024.015.05.027.073.056.126.12.234.193.33.011.016.025.026.037.04a1.068 1.068 0 0 0 .331.28.713.713 0 0 0 .332.095h9.334a.749.749 0 0 0 .434-.164c.038-.028.071-.063.11-.098.096-.095.185-.206.259-.346.021-.032.046-.045.065-.081.011-.021.011-.049.021-.07.089-.195.16-.412.2-.66l6.869-44.958 6.866 44.958c.038.248.11.465.198.66.01.021.01.049.022.07.015.036.042.049.063.081.077.14.162.251.261.346.038.035.071.07.108.098.137.098.278.164.434.164h9.336a.719.719 0 0 0 .33-.095c.029-.014.054-.032.083-.049a1.24 1.24 0 0 0 .249-.231c.012-.013.025-.024.037-.04.071-.096.137-.205.193-.33.011-.022.015-.049.027-.073.015-.039.025-.078.042-.119.045-.133.08-.274.107-.422.004-.026.017-.05.021-.077l11.698-79.775c.081-.562.006-1.159-.205-1.617z"/><path d="M116.439 95.534l-5.327-17.65c-.077-.254-.217-.436-.382-.497-.164-.062-.336.005-.469.182-2.983 3.982-8.11 6.985-11.927 6.985-7.378 0-12.532-8.405-12.532-20.438S90.956 43.68 98.334 43.68c3.993 0 8.088 2.162 10.684 5.645.13.174.303.242.462.188.161-.056.302-.229.383-.474l5.911-18.118c.133-.405.073-.912-.144-1.201-4.472-5.958-10.144-8.855-17.345-8.855-15.337 0-26.467 18.191-26.467 43.253 0 25.063 11.13 43.252 26.467 43.252 7.019 0 13.084-3.594 18.019-10.685.196-.286.253-.762.135-1.151z"/></g></svg>