<svg id="图层_1" xmlns="http://www.w3.org/2000/svg" viewBox="0 0 128 128"><g><g><g><path d="M121.028 0H7.022C3.239 0 .144 3.094.144 6.877v114.011c0 3.79 3.095 6.88 6.878 6.88h114.006c3.782 0 6.882-3.09 6.882-6.88V6.877c0-3.783-3.1-6.877-6.882-6.877z" fill="#ed6c30"/></g></g></g><path d="M64.047 32.336c6.338 0 11.476-5.138 11.476-11.476S70.384 9.384 64.047 9.384 52.571 14.522 52.571 20.86s5.138 11.476 11.476 11.476zm28.467 30.582l-9.731-20.869c-1.528-3.907-5.321-6.679-9.77-6.679H55.081c-4.216 0-7.841 2.491-9.511 6.077l-.014-.007L35.54 62.918a4.183 4.183 0 0 0 7.581 3.535l8.065-17.295s.698-1.423 2.155-.808c1.395.588.851 2.123.851 2.123-5.181 11.637-14.758 33.148-15.03 33.756-.68 1.518.43 2.529 1.165 2.529l12.243.018v26.791a4.817 4.817 0 0 0 9.634 0V88.628c0-1.017.824-1.841 1.841-1.842h.001c1.017 0 1.841.825 1.841 1.842v24.939a4.817 4.817 0 0 0 9.634 0V86.775l12.204-.018c.735 0 1.845-1.011 1.165-2.529-.272-.608-9.849-22.119-15.03-33.756 0 0-.544-1.535.851-2.123 1.458-.615 2.155.808 2.155.808l8.065 17.295a4.182 4.182 0 0 0 5.558 2.023 4.18 4.18 0 0 0 2.025-5.557z" fill="#fff"/></svg>