<svg id="图层_1" xmlns="http://www.w3.org/2000/svg" viewBox="0 0 128 128"><g><g><g><path d="M121.028 0H7.022C3.239 0 .144 3.094.144 6.877v114.011c0 3.79 3.095 6.88 6.878 6.88h114.006c3.782 0 6.882-3.09 6.882-6.88V6.877c0-3.783-3.1-6.877-6.882-6.877z" fill="#006ca2"/></g></g></g><g><g><path d="M48.215 71.539H35.944a3.444 3.444 0 0 1-3.444-3.444c0-17.34 14.056-31.395 31.394-31.395h47.446v19.16H63.895c-6.757 0-12.235 5.478-12.235 12.235a3.446 3.446 0 0 1-3.445 3.444z" fill="#fff"/></g><g><g><path d="M53.658 121.706H28.342a2.501 2.501 0 0 1-2.475-2.145l-6.229-43.406a2.5 2.5 0 0 1 4.949-.711l5.921 41.262H51.49l5.921-41.262a2.49 2.49 0 0 1 2.83-2.119 2.5 2.5 0 0 1 2.119 2.83l-6.229 43.406a2.498 2.498 0 0 1-2.473 2.145z" fill="#fff"/></g></g><path d="M86.687 63.18h-9.801c-6.6 0-12-5.4-12-12v-9.801c0-6.6 5.4-12 12-12h9.801c6.6 0 12 5.4 12 12v9.801c0 6.6-5.4 12-12 12z" fill="#fff"/><path fill="none" stroke="#fff" stroke-width="11" stroke-linecap="round" stroke-linejoin="round" stroke-miterlimit="10" d="M62.022 14.504h39.529"/><path fill="none" stroke="#fff" stroke-width="11" stroke-linecap="round" stroke-linejoin="round" stroke-miterlimit="10" d="M81.787 14.504V46.28"/><g><path d="M49.814 90.053c-2.975 0-4.616-1.117-5.815-1.933-.979-.666-1.568-1.067-3.004-1.067-1.433 0-2.022.401-2.999 1.066-1.199.816-2.841 1.934-5.814 1.934s-4.616-1.117-5.814-1.934c-.978-.665-1.567-1.066-3.002-1.066a2.5 2.5 0 1 1 0-5c2.974 0 4.616 1.117 5.814 1.934.978.665 1.567 1.066 3.002 1.066 1.434 0 2.023-.401 3-1.066 1.199-.816 2.84-1.934 5.813-1.934 2.975 0 4.617 1.117 5.816 1.934.978.665 1.568 1.066 3.003 1.066 1.436 0 2.025-.401 3.004-1.067 1.199-.815 2.842-1.933 5.816-1.933a2.5 2.5 0 1 1 0 5c-1.436 0-2.025.401-3.004 1.067-1.198.816-2.841 1.933-5.816 1.933z" fill="#fff"/></g></g><path fill="none" stroke="#fff" stroke-width="6" stroke-linecap="round" stroke-linejoin="round" stroke-miterlimit="10" d="M113.605 33.981v24.597"/></svg>