<svg id="レイヤー_1" xmlns="http://www.w3.org/2000/svg" viewBox="0 0 128 128"><path d="M2.442 64.438c0 33.549 27.199 60.753 60.755 60.753 33.555 0 60.745-27.204 60.745-60.753 0-33.55-27.19-60.755-60.745-60.755-33.556 0-60.755 27.205-60.755 60.755z" fill="#006ca2"/><g><path d="M64 128C28.71 128 0 99.289 0 64 0 28.71 28.711 0 64 0s64 28.71 64 64c0 35.289-28.71 64-64 64zm0-117.113c-29.287 0-53.114 23.827-53.114 53.113 0 29.287 23.827 53.113 53.114 53.113S117.113 93.287 117.113 64 93.287 10.887 64 10.887z" fill="#db4437"/></g><path d="M93.944 49.732c-3.595 0-6.961.94-9.893 2.57l-5.94-7.988v-.984c.592.032 1.2.051 1.791.032 2.093-.06 4.266-1.238 5.184-3.178.944-2.011.027-4.339-1.916-5.403l-.404-.186c-1.104-.413-2.222-.087-3.405.047-1.439.166-2.878.334-4.316.476-2.391.235-4.77.818-7.142 1.074-1.373.147-2.516 1.37-2.776 2.663-.371 1.76.931 2.622 2.454 3.153.944.33 1.92.524 2.891.655H49.731c.185-.913.363-1.828.525-2.737l.179-1.047c.342-2.11.629-3.201 1.06-3.768.696.504 1.502.631 2.618.488 3.303-.433 7.286.932 9.523-2.359.36-.52.39-1.369.306-1.969-.215-1.42-1.521-2.728-2.964-2.764-1.923-.048-3.891-.079-5.819-.008-1.345.051-3.378.207-4.47 1.078-.19.156-.342.329-.481.508-3.557 1.401-4.22 5.407-4.632 7.993l-.175.988c-.744 4.212-1.662 8.48-3.026 12.598a20.27 20.27 0 0 0-8.61-1.931c-11.279 0-20.455 9.178-20.455 20.452s9.175 20.448 20.455 20.448c11.27 0 20.445-9.174 20.445-20.448 0-6.378-2.939-12.082-7.532-15.839a71.501 71.501 0 0 0 1.373-4.399l14.147 20.98c.108.155.235.289.358.416.048.04.09.072.133.107.11.084.208.156.315.222.062.032.112.06.163.084a2.896 2.896 0 0 0 .519.19c.173.039.36.067.552.067h.644c-.19.603-.325 1.19-.364 1.832-.025.504-.144.989-.256 1.465-.315-.013-.629-.028-.943-.009-1.627.139-3.741 1.293-3.614 3.17.164 2.344 1.918 2.058 3.72 2.058 1.798 0 4.843.457 6.34-.805 1.118-.936.829-3.244-.444-3.935-.639-.344-1.412-.376-2.174-.376.233-.901.369-1.833.548-2.742.038-.182.108-.412.185-.658h5.701c.937 10.421 9.696 18.619 20.36 18.619 11.278 0 20.451-9.174 20.451-20.448s-9.17-20.452-20.448-20.452zM48.765 70.184c0 8.274-6.726 15.006-14.999 15.006s-15.017-6.732-15.017-15.006c0-8.279 6.744-15.006 15.017-15.006 2.377 0 4.626.575 6.638 1.571-1.818 3.994-4.222 7.758-7.517 11.063l-.09.111-.298.147a2.449 2.449 0 0 0-.846 3.379 2.62 2.62 0 0 0 2.195 1.309l.083.004c1.4 0 2.202-1.059 2.577-1.606 3.456-3.494 6.011-7.37 7.961-11.463 2.648 2.709 4.296 6.413 4.296 10.491zm31.303-14.982a20.483 20.483 0 0 0-6.323 11.883h-5.644l8.033-17.175 3.934 5.292zm3.255 4.39l5.569 7.493H79.26a14.974 14.974 0 0 1 4.063-7.493zM71.788 47.59L63.85 64.572 52.401 47.59h19.387zm22.156 37.6c-7.655 0-13.974-5.764-14.884-13.178h14.732a2.462 2.462 0 0 0 1.978-3.927l-8.437-11.357a14.946 14.946 0 0 1 6.611-1.55c8.279 0 15.001 6.727 15.001 15.006.001 8.274-6.722 15.006-15.001 15.006z" fill="#fff"/><g><g><g><path fill="#db4437" d="M111.366 102.588L102.939 111 16.634 25.274l8.428-8.413z"/></g></g></g></svg>