<svg id="图层_1" xmlns="http://www.w3.org/2000/svg" viewBox="0 0 128 128"><g><g><g><path d="M121.028 0H7.022C3.239 0 .144 3.094.144 6.877v114.011c0 3.79 3.095 6.88 6.878 6.88h114.006c3.782 0 6.882-3.09 6.882-6.88V6.877c0-3.783-3.1-6.877-6.882-6.877z" fill="#40c0e7"/></g></g></g><g fill="#fff"><path d="M41.896 39.08H23.283c-6.018 0-10.896 4.878-10.896 10.896v20.93a3.638 3.638 0 1 0 7.277 0V52.67a1.472 1.472 0 0 1 2.942 0V107.104a4.19 4.19 0 0 0 8.38 0v-32.12a1.602 1.602 0 0 1 3.204 0v32.12a4.19 4.19 0 0 0 8.38 0V52.67a1.472 1.472 0 0 1 2.942 0v18.235a3.638 3.638 0 1 0 7.277 0v-20.93c.003-6.017-4.875-10.895-10.893-10.895zm-9.306-2.64c5.514 0 9.983-4.47 9.983-9.983s-4.47-9.983-9.983-9.983-9.983 4.47-9.983 9.983 4.469 9.983 9.983 9.983z"/><path d="M90.561 36.44c5.513 0 9.983-4.47 9.983-9.983s-4.47-9.983-9.983-9.983-9.983 4.47-9.983 9.983 4.469 9.983 9.983 9.983zm24.764 26.604L106.86 44.89c-1.33-3.399-4.629-5.81-8.499-5.81h-15.6c-3.668 0-6.821 2.167-8.274 5.286l-.012-.006-8.712 18.683a3.639 3.639 0 0 0 6.595 3.075l7.016-15.045s.607-1.238 1.875-.703c1.213.512.74 1.847.74 1.847-4.507 10.123-12.838 28.836-13.075 29.365-.592 1.321.374 2.2 1.014 2.2l10.65.015v23.306a4.19 4.19 0 0 0 8.38 0V85.409c0-.885.717-1.602 1.602-1.602h.001c.885 0 1.602.717 1.602 1.602v21.695a4.19 4.19 0 0 0 8.38 0V83.798l10.616-.015c.639 0 1.605-.879 1.014-2.2-.237-.529-8.568-19.242-13.075-29.365 0 0-.473-1.335.74-1.847 1.268-.535 1.875.703 1.875.703l7.016 15.045a3.639 3.639 0 0 0 6.596-3.075z"/></g></svg>