<svg id="图层_1" xmlns="http://www.w3.org/2000/svg" viewBox="0 0 128 128"><g><g><g><path d="M121.028 0H7.022C3.239 0 .144 3.094.144 6.877v114.011c0 3.79 3.095 6.88 6.878 6.88h114.006c3.782 0 6.882-3.09 6.882-6.88V6.877c0-3.783-3.1-6.877-6.882-6.877z" fill="#f79329"/></g></g></g><g fill="#fff"/><g><g/><g/><g fill="#fff"/><g><g><g/><g/></g><g><g/><g/></g></g></g><path d="M64.086 42.456c8.445-.033 15.265-6.905 15.232-15.35s-6.905-15.265-15.35-15.232c-8.445.033-15.265 6.905-15.232 15.35s6.905 15.265 15.35 15.232zm34.156 30.917L84.796 54.17l-.003.001c-2.825-4.16-8.697-7.053-13.578-7.053H56.839c-4.882 0-10.757 2.896-13.581 7.058l-.015-.005-13.43 19.203a4.587 4.587 0 1 0 7.516 5.262l11.5-16.424c.001-.001.911-1.092 2.07-.599 1.201.511 1.201 2.069 1.201 2.069v8.133h23.858v-8.133s0-1.558 1.201-2.069c1.16-.493 2.07.599 2.07.599l11.5 16.423a4.588 4.588 0 0 0 6.389 1.127 4.589 4.589 0 0 0 1.124-6.389zM86.228 90.061l-8.523-10.182-10.674 8.957 7.312 8.736-7.056 9.989c-1.685 2.383-1.119 5.679 1.264 7.364s5.679 1.119 7.364-1.264l10.72-15.178-.005-.004c1.729-2.515 1.656-5.966-.402-8.418zm-32.517 7.511l7.312-8.736-10.674-8.957-8.523 10.182c-2.058 2.452-2.131 5.903-.402 8.418l-.005.004 10.72 15.178a5.283 5.283 0 0 0 8.628-6.1l-7.056-9.989z" fill="#fff"/></svg>