<svg id="图层_1" xmlns="http://www.w3.org/2000/svg" viewBox="0 0 128 128"><path d="M1.613 64.698c0 34.065 27.618 61.688 61.69 61.688s61.68-27.623 61.68-61.688c0-34.066-27.608-61.69-61.68-61.69-34.073 0-61.69 27.624-61.69 61.69z" fill="#006ca2"/><g><path d="M64 128C28.71 128 0 99.289 0 64 0 28.71 28.711 0 64 0s64 28.71 64 64c0 35.289-28.71 64-64 64zm0-117.113c-29.287 0-53.114 23.827-53.114 53.113 0 29.287 23.827 53.113 53.114 53.113S117.113 93.287 117.113 64 93.287 10.887 64 10.887z" fill="#db4437"/></g><g><g><g><path d="M60.22 64.257L48.126 82.088a3.987 3.987 0 0 0 6.134 5.096l13.604-16.321-7.644-6.606z" fill="#fff"/></g><g><path d="M47.206 84.584l-1.524 21.192a3.987 3.987 0 1 0 7.955.559l1.524-21.192-7.955-.559z" fill="#fff"/></g></g><g><g><path d="M61.099 66.117l6.156 20.888a3.987 3.987 0 0 0 7.837-1.473L71.2 64.644l-10.101 1.473z" fill="#fff"/></g><g><path d="M67.373 87.459l7.267 19.966a3.988 3.988 0 0 0 7.489-2.739L74.862 84.72l-7.489 2.739z" fill="#fff"/></g></g><circle cx="55.612" cy="26.929" r="9.499" fill="#fff"/><path d="M65.727 73.384l-.306.058c-3.972.752-7.837-1.883-8.588-5.855L53.1 47.861c-.752-3.972 1.883-7.837 5.855-8.588l.306-.058c3.972-.752 7.837 1.883 8.588 5.855l3.733 19.726c.752 3.972-1.883 7.836-5.855 8.588z" fill="#fff"/><g><g><path d="M60.644 46.31l14.692 8.266a3.579 3.579 0 1 0 3.507-6.241L64.151 40.07l-3.507 6.24z" fill="#fff"/></g><g><path d="M73.638 52.425l2.999 11.253a3.58 3.58 0 1 0 6.913-1.861l-3-11.252-6.912 1.86z" fill="#fff"/></g></g><g><g><path d="M57.817 55.02l-13.401 9.57a3.58 3.58 0 0 0 4.173 5.817l13.401-9.569-4.173-5.818z" fill="#fff"/></g></g></g><g><g><g><path fill="#db4437" d="M111.366 102.726l-8.427 8.413-86.305-85.726L25.062 17z"/></g></g></g></svg>