<svg id="图层_1" xmlns="http://www.w3.org/2000/svg" viewBox="0 0 128 128"><g><path d="M64.001 126.821a3.03 3.03 0 0 1-2.141-.887L2.07 66.149a3.037 3.037 0 0 1-.89-2.146c0-.799.322-1.576.89-2.145L61.86 2.065a3.03 3.03 0 0 1 4.286 0l59.786 59.793a3.036 3.036 0 0 1 0 4.291l-59.786 59.785a3.045 3.045 0 0 1-2.145.887z" fill="#fcc21b"/><path d="M116.299 66.997l-49.302 49.302a4.239 4.239 0 0 1-5.994 0L11.701 66.997a4.239 4.239 0 0 1 0-5.994l49.302-49.302a4.239 4.239 0 0 1 5.994 0l49.302 49.302a4.239 4.239 0 0 1 0 5.994z" fill="none" stroke="#444" stroke-width="3" stroke-miterlimit="10"/><g><g><g><path d="M40.509 66.691l1.588-5.96h.001c.124-.483.435-.917.904-1.181l7.782-4.378 1.858 3.306-7.081 3.984-1.39 5.215a1.896 1.896 0 1 1-3.662-.986z" fill="#444"/></g><g><g><path d="M52.866 67.983l6.406 9.445a2.112 2.112 0 0 1-3.249 2.699l-7.206-8.645 4.049-3.499z" fill="#444"/></g><g><path d="M59.759 78.75l.807 11.225a2.112 2.112 0 1 1-4.214.296l-.807-11.225 4.214-.296z" fill="#444"/></g></g><g><g><path d="M52.176 68.588l-3.261 11.064a2.112 2.112 0 0 1-4.151-.781l2.311-11.809 5.101 1.526z" fill="#444"/></g><g><path d="M48.853 79.892l-3.849 10.576a2.112 2.112 0 1 1-3.967-1.451l3.849-10.576 3.967 1.451z" fill="#444"/></g></g><circle cx="55.862" cy="47.023" r="6.219" fill="#444"/><path d="M49.704 74.554l.678.128a3.988 3.988 0 0 0 4.646-3.167L57.3 59.508a3.988 3.988 0 0 0-3.167-4.646l-.678-.128a3.988 3.988 0 0 0-4.646 3.167l-2.272 12.008a3.986 3.986 0 0 0 3.167 4.645z" fill="#444"/><g><g><path d="M54.138 63.091l7.098 5.069a1.895 1.895 0 1 1-2.211 3.081l-7.098-5.069 2.211-3.081z" fill="#444"/></g></g></g><g><g><path d="M61.526 62.004l1.88-7.054h.001a2.23 2.23 0 0 1 1.07-1.398l9.21-5.577 2.199 3.912-8.38 5.111-1.645 6.172a2.242 2.242 0 0 1-2.75 1.583 2.242 2.242 0 0 1-1.585-2.749z" fill="#444"/></g><g><g><path d="M76.285 65.265l7.582 11.178a2.5 2.5 0 0 1-3.845 3.195l-8.528-10.231 4.791-4.142z" fill="#444"/></g><g><path d="M84.415 77.638l.955 11.699a2.5 2.5 0 0 1-4.987.351l-.955-11.699 4.987-.351z" fill="#444"/></g></g><g><g><path d="M75.363 64.7l-3.859 13.094a2.5 2.5 0 0 1-4.913-.923l2.44-13.094 6.332.923z" fill="#444"/></g><g><path d="M71.493 77.855l-4.555 12.516a2.5 2.5 0 1 1-4.695-1.717l4.555-12.516 4.695 1.717z" fill="#444"/></g></g><circle cx="78.967" cy="39.821" r="6.267" fill="#444"/><path d="M72.212 69.047l1.788.338a4.116 4.116 0 0 0 4.795-3.269l2.528-13.357a4.116 4.116 0 0 0-3.269-4.795l-1.788-.338a4.116 4.116 0 0 0-4.795 3.269l-2.528 13.357a4.117 4.117 0 0 0 3.269 4.795z" fill="#444"/><g><g><path d="M78.272 57.743l8.401 5.999a2.243 2.243 0 1 1-2.616 3.646l-8.401-5.999 2.616-3.646z" fill="#444"/></g></g><path d="M80.716 62.744l4.703 10.212a1.82 1.82 0 0 1-1.705 2.453l-18.822 1.204a1.782 1.782 0 0 1-1.674-2.394l5.984-11.689a1 1 0 0 1 .939-.657l9.638.219c.418.001.792.261.937.652z" fill="#444"/></g></g></g></svg>