<svg xmlns="http://www.w3.org/2000/svg" viewBox="0 0 128 128"><g id="Layer_2"><g><g><g fill="#444"><circle cx="67.022" cy="95.509" r="6.539"/><path d="M73.555 95.539l-13 .926-4.965-26.914 16.262-1.792z"/><path d="M88.265 110.433l-8.256 7.921-17.751-18.341 9.322-8.648z"/></g><g><path d="M90.621 118.107l-7.083 6.76a3.589 3.589 0 0 1-5.075-.119 3.589 3.589 0 0 1 .119-5.075l7.083-6.76a3.59 3.59 0 0 1 4.956 5.194z"/><path transform="rotate(-43.664 86.02 120.386)" d="M77.545 117.963h16.971v4.849H77.545z"/><path transform="rotate(-43.664 87.491 113.884)" d="M84.569 111.913h5.865v3.944h-5.865z"/></g></g><g><g fill="#646464"><circle cx="51.127" cy="93.555" r="6.539"/><path d="M56.585 97.147l-11.398-6.32 10.528-25.262L70.32 72.94z"/><path d="M52.166 120.15l-11.307-1.747 3.79-25.78 12.532 2.153z"/></g><g><path d="M47.516 126.548l-9.673-1.519a3.59 3.59 0 1 1 1.114-7.092l9.673 1.519a3.589 3.589 0 1 1-1.114 7.092z"/><path transform="rotate(8.922 42.897 124.273)" d="M34.43 121.863h16.971v4.849H34.43z"/><path transform="rotate(8.922 48.955 121.492)" d="M46.041 119.533h5.865v3.944h-5.865z"/></g></g><g><path id="XMLID_1913_" fill="#fcc21b" d="M66.897 26.132l.136 10.221-7.779 1.042-3.032-20.08z"/><path id="XMLID_1912_" d="M68.707 16.229l-2.039 16.93-11.054-1.245c-5.139-.579-8.749-5.34-7.919-10.445l1.006-6.185c.93-5.719 6.591-9.387 12.191-7.899l2.223.591a7.6 7.6 0 0 1 5.592 8.253z" fill="#fcc21b"/><path id="XMLID_1911_" d="M67.717 27.762l-5.048-1.539.164-3.656a3.35 3.35 0 0 0-1.626-3.024L59.5 23.387a3.523 3.523 0 0 1-2.379-2.489l-.608-2.364a3.267 3.267 0 0 0-1.994-2.237l-5.571-2.139s1.01-7.988 9.021-8.001a40.942 40.942 0 0 1 4.037.201c6.021.59 10.113 6.388 8.674 12.264v.002a65.35 65.35 0 0 1-2.964 9.136l.001.002z" fill="#6d4c41"/><path id="XMLID_1910_" d="M52.308 19.679c-.105.749-.692 1.285-1.314 1.198-.619-.087-1.038-.765-.933-1.513.105-.751.695-1.287 1.314-1.2.622.087 1.038.764.933 1.515" fill="#c17b47"/></g><path d="M69.014 73.106H55.76a4.586 4.586 0 0 1-4.586-4.586l2.4-23.895c.485-3.875 1.691-10.363 6.983-10.363h4.578c4.559 0 6.461 5.388 6.664 10.138l1.8 24.12a4.586 4.586 0 0 1-4.585 4.586z" fill="#00bea4"/><g><path id="XMLID_1909_" transform="rotate(170.751 64.873 56.928)" fill="#fcc21b" d="M61.167 49.433h7.409v14.992h-7.409z"/><circle id="XMLID_1908_" cx="66.046" cy="64.332" r="3.755" fill="#fcc21b"/><path id="XMLID_1890_" d="M59.021 55.427l11.434-2.073-2.12-11.694A5.812 5.812 0 0 0 56.9 43.733l2.121 11.694z" fill="#04a287"/><path id="XMLID_1889_" transform="rotate(-156.434 63.424 70.413)" fill="#fcc21b" d="M59.721 64.067h7.409v12.692h-7.409z"/><path id="XMLID_1888_" d="M57.398 83.979a4.82 4.82 0 0 0 6.353-2.471l.974-2.215a4.82 4.82 0 1 0-8.824-3.882l-.974 2.215a4.82 4.82 0 0 0 2.471 6.353z" fill="#fcc21b"/></g></g></g></svg>