<svg xmlns="http://www.w3.org/2000/svg" viewBox="0 0 128 128"><g id="Layer_2"><g><path d="M81.005 83.483L67.281 93.58l-1.549-2.106a5.624 5.624 0 0 1 1.197-7.863l9.195-6.765 4.881 6.637z"/><path fill="#ffc400" d="M58.347 62.494l-5.491-10.329 25.053-14.493 6.465 12.162z"/><path fill="#ffc400" d="M76.125 76.846l-7.372 5.421L50.988 60.91l9.412-6.924z"/><circle cx="55.602" cy="57.329" r="5.842" fill="#ffc400"/><circle cx="81.142" cy="43.753" r="6.886" fill="#fbc11b"/><path fill="#e0e0e0" d="M71.609 70.28l-7.958 5.853 5.102 6.134 7.372-5.421z"/><path d="M88.498 39.846a8.194 8.194 0 0 0-11.08-3.389l-.003-.005-17.671 10.271 7.333 13.794 18.033-9.591a8.193 8.193 0 0 0 3.388-11.08z" fill="#e65100"/></g><g><path d="M98.918 126.33c-13.4 0-24.307-10.901-24.307-24.302s10.906-24.301 24.307-24.301 24.301 10.9 24.301 24.301c0 13.401-10.901 24.302-24.301 24.302zm0-41.137c-9.283 0-16.834 7.555-16.834 16.834 0 9.284 7.551 16.834 16.834 16.834 9.279 0 16.834-7.55 16.834-16.834 0-9.279-7.555-16.834-16.834-16.834z" fill="#2f2f2f"/><path d="M29.092 126.33c-13.4 0-24.309-10.901-24.309-24.302s10.908-24.301 24.309-24.301c13.398 0 24.299 10.9 24.299 24.301 0 13.401-10.901 24.302-24.299 24.302zm0-41.137c-9.275 0-16.842 7.555-16.842 16.834 0 9.284 7.566 16.834 16.842 16.834 9.281 0 16.832-7.55 16.832-16.834 0-9.279-7.551-16.834-16.832-16.834z" fill="#2f2f2f"/><path d="M77.699 75.818c-.137 0-.273-.013-.412-.033l-37.932-5.48a2.851 2.851 0 0 1-2.42-3.234c.225-1.562 1.711-2.654 3.238-2.421l37.93 5.479a2.855 2.855 0 0 1 2.418 3.238 2.858 2.858 0 0 1-2.822 2.451z" fill="#26c6da"/><path d="M64.457 104.153a2.874 2.874 0 0 1-2.309-1.171L37.455 69.163a2.853 2.853 0 0 1 .621-3.992 2.86 2.86 0 0 1 3.992.621l21.826 29.886 15.672-34.102a2.858 2.858 0 1 1 5.191 2.388L67.053 102.49a2.86 2.86 0 0 1-2.596 1.663z" fill="#26c6da"/><path d="M98.742 104.153H64.457a2.857 2.857 0 0 1 0-5.712h28.602L75.4 74.664a2.86 2.86 0 0 1 4.592-3.409l21.041 28.335c.648.867.748 2.025.256 2.988a2.838 2.838 0 0 1-2.547 1.575z" fill="#26c6da"/><path d="M89.047 56.979c-1.201-.679-2.537-.517-3.918-.583-1.67-.08-3.354-.159-5.025-.263-2.791-.179-5.617.042-8.383-.108-1.6-.092-3.129 1.096-3.68 2.529-.746 1.95.574 3.179 2.225 4.071 2.035 1.104 4.312 1.625 6.535 2.167 2.416.588 4.836 1.354 7.316 1.692 2.408.325 5.129-.617 6.533-2.671 1.459-2.125.85-4.963-1.18-6.542a4.086 4.086 0 0 0-.423-.292z" fill-rule="evenodd" clip-rule="evenodd" fill="#2f2f2f"/><path d="M65.887 100.886c-.254.092-.504.179-.746.25-.988.296-2.063.5-3 .913-1.738.767-3.617 2.834-2.764 4.85 1.072 2.513 2.889 1.525 4.867.838 1.975-.684 5.477-1.338 6.643-3.292.863-1.45-.324-3.871-1.979-4.142-1.004-.167-2.043.233-3.021.583z" fill-rule="evenodd" clip-rule="evenodd" fill="#2f2f2f"/><path d="M29.631 105.295a2.86 2.86 0 0 1-2.767-3.588l11.197-42.403c.412-1.525 1.979-2.438 3.49-2.033a2.854 2.854 0 0 1 2.039 3.492l-11.201 42.403a2.857 2.857 0 0 1-2.758 2.129z" fill="#26c6da"/><path d="M41.627 62.359c-.225 0-.443-.025-.666-.08l-8.896-2.133a2.853 2.853 0 0 1-2.113-3.446 2.865 2.865 0 0 1 3.445-2.113l8.896 2.133a2.858 2.858 0 1 1-.666 5.639z" fill="#2f2f2f"/><circle cx="32.295" cy="57.367" r="3.998" fill-rule="evenodd" clip-rule="evenodd" fill="#2f2f2f"/></g><g><path fill="#fbc11b" d="M71.378 70.8l-9.947-6.156 14.341-25.14 11.711 7.248z"/><path fill="#fbc11b" d="M71.654 95.582l-9.15.089-1.928-27.713 11.684-.115z"/><circle cx="66.405" cy="67.722" r="5.842" fill="#fbc11b"/><circle cx="81.627" cy="43.128" r="6.886" fill="#fbc11b"/><path fill="#e0e0e0" d="M71.828 87.615l-9.878.097.554 7.959 9.15-.089z"/><path d="M86.014 36.047a8.193 8.193 0 0 0-11.278 2.654l-.005-.003-10.548 18.144 13.283 8.222c4.936-5.628 8.814-11.507 11.202-17.739a8.193 8.193 0 0 0-2.654-11.278z" fill="#ff6f00"/><path d="M73.915 100.79l-16.469 4.37-.67-2.527a5.623 5.623 0 0 1 3.994-6.878l11.033-2.928 2.112 7.963z"/></g><g><path id="XMLID_1830_" d="M53.303 22.308l2.794 8.163a2.74 2.74 0 0 1-1.705 3.48l-2.162.74a2.74 2.74 0 0 1-3.256-1.216l-7.82-13.459 12.149 2.292z" fill="#fbc11b"/><path id="XMLID_1829_" d="M50.888 12.224l4.25 16.956-11.04 2.857c-5.132 1.328-10.332-1.908-11.407-7.099l-1.303-6.29C30.183 12.832 34.26 7.246 40.166 6.62l2.345-.249a7.79 7.79 0 0 1 8.377 5.853z" fill="#fbc11b"/><path id="XMLID_1828_" d="M54.164 23.629l-5.397.375-1.182-3.56a3.432 3.432 0 0 0-2.664-2.299h-.001l-.225 4.305a3.607 3.607 0 0 1-3.189-1.512l-1.448-2.041a3.349 3.349 0 0 0-2.728-1.411l-6.117-.007s-1.959-8.018 5.706-10.964a41.566 41.566 0 0 1 3.939-1.286c5.98-1.64 12.022 2.412 12.797 8.564v.002c.41 3.259.58 6.549.509 9.833v.001z" fill="#6d4c41"/><path id="XMLID_1827_" d="M36.451 21.534c.174.755-.192 1.484-.82 1.628-.625.144-1.274-.352-1.448-1.107-.174-.757.194-1.487.818-1.63.629-.144 1.276.352 1.45 1.109" fill="#c07b47"/></g><path d="M51.155 25.179a214.68 214.68 0 0 1-2.378 5.129c-1.471 3.112-.266 7.892 3.37 9.046 9.471 3.006 15.736 14.033 22.593 12.132 6.337-1.757 7.887-9.404 11.378-15.321-6.361-6.493-14.84-11.137-25.588-13.494-4.073-.894-8.03-.539-9.375 2.508z" fill="#00bea4"/><g><path id="XMLID_1826_" fill="#fbc11b" d="M34.855 54.231l3.985 5.096 11.051-8.007-4.602-5.884z"/><path fill="#fbc11b" d="M51.15 49.462l-7.162-2.121 5.102-18.983 8.121 2.406z"/><circle cx="47.569" cy="48.402" r="3.735" fill="#fbc11b"/><path d="M29.74 62.485l-.137-.175a4.513 4.513 0 0 1 .774-6.335l2.035-1.592a4.513 4.513 0 0 1 6.335.774l.137.175a4.513 4.513 0 0 1-.774 6.335l-2.035 1.592a4.514 4.514 0 0 1-6.335-.774z" fill="#fbc11b"/><circle cx="53.152" cy="29.561" r="4.233" fill="#fbc11b"/><path d="M54.711 24.304a5.112 5.112 0 0 0-6.353 3.449l-.004-.001-2.45 9.115 9.346 2.768 2.91-8.978a5.112 5.112 0 0 0-3.449-6.353z" fill="#04a287"/></g><g><path d="M41.927 20.154c.732.724 1.433 1.482 2.171 2.203.714.697 1.634 1.368 1.795 2.425.26 1.708-.384 3.442-.974 5.018-.084.236-.23.465-.289.711.597.296 1.344-.465 1.748-.795.911-.727 1.503-1.755 1.863-2.846.32-.973.21-2.247.695-3.136.182-.327.478-.573.696-.872.769-1.088 1.227-2.318 1.8-3.506.226-.461.384-.99.502-1.489.06-.246.158-.744.027-.987-.118-.222-.51-.273-.725-.34-.118-.037-1.325-.421-1.375-.236-.111.431-.202.859-.363 1.263-.092.215-.134.445-.202.667-.309 1.01-.927 2.897-1.872 3.5-.259.172-.482-.091-.674-.273-.347-.32-.639-.684-.949-1.037-.594-.69-1.17-1.435-1.833-2.051-.259-.243-.482-.515-.725-.775-.185-.202-.3-.394-.619-.36-.205.027-.418.253-.587.367-.366.253-.753.458-1.07.788-.098.098-.259.219-.319.34-.085.185-.055.105.084.239.394.394.792.785 1.195 1.182z" fill="#2f2f2f"/><path d="M36.913 3.522a13.126 13.126 0 0 0-3.956 2.607c-1.375 1.327-2.914 3.166-3.719 4.914a13.346 13.346 0 0 0-1.201 5.534c0 1.027.051 3.756 1.088 4.392.552.34 1.528.149 2.104-.027 1.078-.33 2.116-.738 3.236-.967.819-.169 1.621-.421 2.419-.667 1.247-.387 2.199-.606 3.42.01.417.209.824.296 1.26.448.71.259 1.816.562 2.425-.101.212-.229.276-.654.306-.967.033-.401-.166-.825-.076-1.206.243-.984 2.423-.893 3.217-.889 1.096.003 2.201.653 3.17 1.118 1.129.539 2.708 1.536 4.002 1.401 2.138-.215 1.805-4.493 1.552-5.965a22.682 22.682 0 0 0-.788-3.122 9.657 9.657 0 0 0-2.944-4.399c-4.174-3.552-10.501-4.263-15.515-2.114z" fill="#ff6d00"/></g></g></svg>