<svg xmlns="http://www.w3.org/2000/svg" xmlns:xlink="http://www.w3.org/1999/xlink" viewBox="0 0 128 128"><g id="图层_1"><g><g><g><g><g><g><defs><path id="SVGID_1_" d="M125.332 76.799l-13.8 5.153c.099-.038.906 4.389.936 4.579.725 5.315.592 11.17-.769 16.385-.801 3.102-2.488 6.406 2.017 7.011 2.433.328 5.005-.359 7.23-1.32 1.535-.662 3.222-1.816 4.155-3.222a7.83 7.83 0 0 0 .761-1.51c1.932-5.094 1.729-10.677 1.359-16.015-.256-3.727-.954-7.442-1.889-11.061z"/></defs><use xlink:href="#SVGID_1_" overflow="visible" fill="#b0bec5"/><clipPath id="SVGID_2_"><use xlink:href="#SVGID_1_" overflow="visible"/></clipPath><path d="M127.411 78.299a75.747 75.747 0 0 0-1.333-7.275 82.101 82.101 0 0 0-3.095-10.247c-.67-1.778-4.03-9.922-8.752-16.574-6.025-8.493-14.427-16.038-24.433-20.073-13.98-5.642-26.01-1.259-26.01-1.259h.036c-.928.225-1.806.516-2.587.914-5.342 2.709-9.737 7.496-10.977 14.014-1.35 7.082.057 12.319.057 12.319l.017.024c.975 4.858 3.03 9.96 6.106 14.709 3.819 5.91 8.9 10.791 13.757 13.241 0 0 4.586 2.906 11.756 3.624 2.824.281 5.948-.037 8.926-1.261l-.021.018.237-.096.007-.003c1.179-.476 7.754-3.121 9.458-3.508 1.873-.427 3.957-.554 4.809.638 1.122 1.555 2.051 3.249 2.991 4.911.495.857.969 1.721 1.443 2.587.643 1.154 1.165 1.964 2.588 2 .801.022 1.6-.019 2.391-.106 2.441-.267 4.819-.975 7.043-2.017a26.047 26.047 0 0 0 2.936-1.627c.781-.505 1.95-1.081 2.439-1.926.507-.866.329-2.09.211-3.027z" clip-path="url(#SVGID_2_)" fill="#616161"/></g><path d="M2.77 77.077a2.232 2.232 0 0 1-1.729-3.645c17.551-21.447 38.35-24.342 39.227-24.456a2.248 2.248 0 0 1 2.5 1.929 2.24 2.24 0 0 1-1.933 2.497c-.312.043-20.02 2.912-36.336 22.855a2.237 2.237 0 0 1-1.729.82z" fill="#40c0e7"/><path d="M15.907 97.073a2.23 2.23 0 0 1-1.931-3.338c13.68-23.931 32.317-31.673 33.104-31.991a2.23 2.23 0 1 1 1.674 4.136c-.277.117-18.073 7.624-30.906 30.069a2.234 2.234 0 0 1-1.941 1.124z" fill="#40c0e7"/><path d="M35.082 113.285a2.233 2.233 0 0 1-2.079-3.04c9.561-24.56 22.425-36.017 22.97-36.492a2.233 2.233 0 0 1 2.95 3.355c-.132.11-12.629 11.295-21.756 34.755a2.244 2.244 0 0 1-2.085 1.422z" fill="#40c0e7"/><path d="M59.195 120.774a2.226 2.226 0 0 1-2.212-2.532c2.561-18.863 10.363-35.714 10.697-36.423a2.233 2.233 0 0 1 2.963-1.077 2.239 2.239 0 0 1 1.081 2.967c-.079.168-7.851 16.965-10.319 35.133a2.232 2.232 0 0 1-2.21 1.932z" fill="#40c0e7"/></g></g><g><path d="M126.49 74.317a75.363 75.363 0 0 0-1.333-7.274 82.05 82.05 0 0 0-3.095-10.247c-.67-1.778-4.03-9.922-8.752-16.575-6.024-8.493-14.434-16.037-24.433-20.073-13.98-5.641-26.007-1.258-26.007-1.258h.034c-.927.225-1.806.516-2.587.914-5.341 2.709-9.737 7.496-10.976 14.013-1.349 7.083.056 12.32.056 12.32l.017.024c.965 4.858 3.03 9.961 6.105 14.71 3.822 5.909 8.905 10.79 13.759 13.241 0 0 4.587 2.906 11.756 3.625 2.823.281 5.944-.037 8.925-1.26l-.021.018s.126-.053.238-.096l.006-.004c1.179-.476 7.755-3.12 9.456-3.507 1.876-.428 3.96-.555 4.811.638 1.116 1.555 2.051 3.249 2.992 4.911.494.857.969 1.721 1.442 2.587.643 1.154 1.165 1.964 2.588 2 .798.022 1.596-.019 2.391-.106 2.441-.267 4.819-.975 7.042-2.017a25.95 25.95 0 0 0 2.937-1.626c.781-.506 1.953-1.082 2.44-1.927.505-.87.327-2.093.209-3.031z" fill="#b0bec5"/><g><path d="M90.496 37.971c8.291 12.784 7.894 27.804-.854 33.541-8.751 5.734-22.561.017-30.838-12.769-8.276-12.792-7.899-27.81.866-33.545 8.743-5.735 22.55-.019 30.826 12.773z" fill="#cfd8dc"/><g><g><path d="M75.874 47.517c.917 1.422.871 3.088-.095 3.723-.972.643-2.514.004-3.435-1.413-.916-1.423-.871-3.089.103-3.727.976-.639 2.5-.002 3.427 1.417z" fill="#2f2f2f"/></g><g><path d="M67.847 36.068c.918 1.417.88 3.087-.089 3.723-.977.639-2.51.004-3.424-1.418-.92-1.42-.872-3.087.098-3.726.961-.638 2.496-.002 3.415 1.421z" fill="#2f2f2f"/></g><g><path d="M64.425 46.47c.917 1.421.872 3.088-.098 3.725-.97.64-2.508.005-3.429-1.416-.916-1.422-.874-3.089.095-3.727.98-.638 2.505-.002 3.432 1.418z" fill="#2f2f2f"/></g><g><path d="M72.234 58.518c.913 1.417.872 3.088-.098 3.724-.977.638-2.503.003-3.431-1.417-.914-1.421-.869-3.087.096-3.725.979-.639 2.507-.002 3.433 1.418z" fill="#2f2f2f"/></g><g><path d="M83.935 59.749c.914 1.422.879 3.087-.095 3.723-.965.642-2.514.004-3.434-1.417-.91-1.419-.868-3.087.105-3.725.968-.637 2.51-.001 3.424 1.419z" fill="#2f2f2f"/></g><g><path d="M88.739 48.477c.913 1.423.871 3.089-.098 3.724-.978.642-2.503.005-3.424-1.414-.925-1.422-.871-3.089.09-3.728.978-.637 2.511 0 3.432 1.418z" fill="#2f2f2f"/></g><g><path d="M80.484 36.432c.919 1.421.878 3.089-.089 3.724-.979.64-2.521.003-3.434-1.416-.914-1.419-.872-3.089.094-3.725.98-.64 2.514-.004 3.429 1.417z" fill="#2f2f2f"/></g></g></g></g></g></g><g><path d="M93.977 28.8c6.354 2.589 9.645 5.622 14.361 11.247 3.864 4.606 6.706 10.081 7.818 13.191.341.966-1.04 1.94-1.744.562-.885-1.742-4.189-8.153-12.564-12.649-.458-.246-1.795-1.033-2.21-1.818-2.009-3.807-4.547-6.738-6.663-9.439-1.174-1.505.074-1.474 1.002-1.094z" fill="#fff"/></g></g></g></svg>