<svg xmlns="http://www.w3.org/2000/svg" xmlns:xlink="http://www.w3.org/1999/xlink" viewBox="0 0 128 128"><g id="图层_1"><g><path d="M40.261 68.462c-5.475 0-9.974.105-14.155.331-.72.038-1.491.048-2.277.057-5.017.055-8.099.379-8.57 4.405-.19 1.597-.103 3.811 1.373 5.299.55.561 1.217.911 1.921 1.285 1.195.631 2.553 1.348 3.43 3.127 2.623 5.356 6.752 9.811 11.935 12.878 1.567.925 3.222 1.534 4.972 2.177 1.226.449 2.446.901 3.644 1.46 2.652 1.237 4.604 3.261 5.232 5.416.455 1.58.201 3.199-.743 4.677-1.002 1.569-2.556 2.436-3.923 3.201-1.928 1.076-3.121 1.827-3.381 3.621-.111.757.063 1.393.519 1.944.897 1.077 2.684 1.617 4.065 1.674 2.134.091 4.091.187 5.912.273 4.561.221 8.161.393 11.816.393 5.711 0 11.096-.463 18.001-1.549 1.041-.163 1.751-.504 2.126-1.014.369-.509.47-1.285.307-2.306-.314-1.943-1.818-2.782-3.909-3.752-2.665-1.226-2.953-2.693-3.428-5.126-.892-4.527 2.7-6.999 5.597-8.984 1.313-.905 3.869-3.357 4.709-4.32 4.44-5.105 7.145-10.998 7.013-17.494a1.241 1.241 0 0 1 .352-.882 1.22 1.22 0 0 1 .877-.369h17.057a3.314 3.314 0 0 0 3.31-3.306V21.145a3.315 3.315 0 0 0-3.31-3.309H89.797a3.316 3.316 0 0 0-3.303 3.309v33.931c0 .575-.398 1.074-.956 1.198-.6.12-1.141-.159-1.391-.678a43.56 43.56 0 0 0-1.136-2.299c-1.749-3.319-3.071-6.849-4.349-10.26a277.531 277.531 0 0 0-1.405-3.691c-.887-2.234-3.092-7.279-5.223-12.156-2.343-5.349-4.765-10.878-5.725-13.323-.887-2.283-2.819-5.237-4.646-6.215-.412-.215-.974-.333-1.626-.333-.795.004-1.343.009-1.792.115-1.396.321-2.657 2.295-2.849 3.846-.489 3.798 1.064 7.725 2.7 11.425 1.673 3.793 8.281 19.212 9.969 23.238 1.692 4.021 3.418 8.118 5.165 12.087l.718 1.668c.978 2.297 1.99 4.673 3.429 6.581.287.379.332.885.116 1.304a1.233 1.233 0 0 1-1.096.664h-.032c-2.459-.069-4.924-.11-7.38-.11-4.177.007-8.142.087-12.103.168-4.195.083-8.382.165-12.579.167l-4.042-.01z" fill="#e0e0e0"/><path d="M86.411 59.537s5.219 4.604 11.97 4.911c6.752.307 15.507-.154 15.661-6.445v16.112c.011 2.303-.902 2.879-2.349 2.879H84.57l1.841-17.457z" fill="#b0bec5"/><path d="M59.808 6.092c-.623.005-1.252.01-1.843.146-2.022.465-3.548 2.971-3.787 4.889-.537 4.181 1.141 8.329 2.791 12.075 1.698 3.84 8.344 19.336 9.963 23.213 1.67 3.966 3.412 8.104 5.176 12.108 1.549 3.496 2.921 7.567 5.816 10.214 1.659 1.515 8.373 2.81 9.677-1.125.777-2.34.062-4.582-1.189-8.075-2.863-7.979-6.856-17.704-8.017-20.641-1.842-4.671-9.111-20.793-10.933-25.475-.902-2.304-2.954-5.639-5.219-6.85-.669-.355-1.476-.482-2.224-.479h-.211z" fill="#e0e0e0"/><g><defs><path id="SVGID_1_" d="M42.826 67.242c-5.595-.029-11.195.024-16.786.326-4.693.252-11.256-.8-12.001 5.544-.267 2.234.068 4.646 1.718 6.308 1.688 1.71 3.946 1.7 5.121 4.088 2.734 5.581 7.074 10.233 12.416 13.393 2.794 1.649 5.835 2.345 8.722 3.692 3.194 1.492 6.205 4.824 3.97 8.321-1.994 3.136-6.865 3.04-7.48 7.307-.49 3.386 3.128 4.91 5.745 5.021 14.989.638 21.117 1.438 35.974-.897 2.531-.398 3.922-1.788 3.453-4.728-.418-2.599-2.455-3.673-4.604-4.67-2.099-.964-2.282-1.889-2.742-4.249-1.081-5.486 5.754-7.27 8.707-10.665 4.989-5.726 8.221-14.53 7.28-22.178-.133-1.151-.89-4.904-4.104-6.071-1.813-.659-4.392-.422-6.312-.537-4.372-.264-8.75-.341-13.127-.336-8.652.016-17.293.374-25.95.331z"/></defs><use xlink:href="#SVGID_1_" overflow="visible" fill="#e0e0e0"/><clipPath id="SVGID_2_"><use xlink:href="#SVGID_1_" overflow="visible"/></clipPath><path d="M81.543 82.279c-1.642.094-3.063.171-3.063.144.172 2.066.723 3.784.278 5.867-.497 2.323-1.466 4.61-2.828 6.557-1.295 1.836-2.858 3.172-4.661 4.421-1.669 1.156-3.769 2.709-4.699 4.555-.921 1.812-.809 4.208-.077 6.073 1.584 4.026 4.181 8.238-.372 11.289-.355.242-1.536.48-1.489.927 1.357.185 2.713.236 4.087.377 1.078.111 2.167.326 3.25.223 1.204-.115 2.417-.558 3.626-.733 1.43-.206 2.839-.017 4.243-.171 2.46-.27 5.386-2.157 5.376-4.857-.009-1.266.298-2.87-.372-3.996-.788-1.331-2.294-2.964-3.45-3.997-1.194-1.072-2.944-1.561-3.792-3.062-1.665-2.954 3.453-5.169 4.978-6.881 2.348-2.63 4.865-5.098 6.699-8.143.809-1.342 1.38-2.81 1.821-4.313.188-.647.227-1.312.36-1.936.115-.549.495-1.004.595-1.556.355-1.947-4.436-1.124-5.622-1.074-.327.016-2.791.169-4.888.286z" clip-path="url(#SVGID_2_)" fill="#b0bec5"/><path clip-path="url(#SVGID_2_)" fill="#b0bec5" d="M15.184 79.692h78.962v5.313H15.184z"/></g></g></g></svg>