<svg id="图层_1" xmlns="http://www.w3.org/2000/svg" viewBox="0 0 128 128"><g><path d="M1.613 64.698c0 34.065 27.618 61.688 61.69 61.688s61.68-27.623 61.68-61.688c0-34.066-27.608-61.69-61.68-61.69-34.073 0-61.69 27.624-61.69 61.69z" fill="#006ca2"/><g><g><g><g><path d="M51.115 68.483h-8.677a2.435 2.435 0 0 1-2.435-2.435c0-12.26 9.939-22.198 22.198-22.198h33.548v13.547H62.201a8.65 8.65 0 0 0-8.651 8.651 2.435 2.435 0 0 1-2.435 2.435z" fill="#fff"/></g></g><g><g><g><path d="M54.335 102.465H37.186a1.693 1.693 0 0 1-1.676-1.453L31.291 71.61a1.694 1.694 0 0 1 3.352-.482l4.011 27.95h14.213l4.011-27.95a1.686 1.686 0 0 1 1.917-1.435 1.694 1.694 0 0 1 1.435 1.917l-4.219 29.402a1.694 1.694 0 0 1-1.676 1.453z" fill="#fff"/></g></g></g><g><path d="M75.236 62.573h-.766c-6.362 0-11.567-5.205-11.567-11.567v-.766c0-6.362 5.205-11.567 11.567-11.567h.766c6.362 0 11.567 5.205 11.567 11.567v.766c0 6.361-5.205 11.567-11.567 11.567z" fill="#fff"/></g><g><path d="M88.829 31.88H60.878a3.726 3.726 0 0 1 0-7.452h27.951a3.726 3.726 0 0 1 0 7.452z" fill="#fff"/></g><g><path d="M74.853 54.348a3.726 3.726 0 0 1-3.726-3.726V28.155a3.726 3.726 0 1 1 7.452 0v22.468a3.726 3.726 0 0 1-3.726 3.725z" fill="#fff"/></g><g><g><path d="M51.731 81.024c-2.015 0-3.127-.757-3.939-1.309-.663-.451-1.062-.723-2.035-.723-.97 0-1.37.272-2.031.722-.812.553-1.924 1.31-3.939 1.31-2.014 0-3.127-.757-3.939-1.31-.662-.45-1.062-.722-2.033-.722a1.693 1.693 0 0 1 0-3.386c2.014 0 3.127.757 3.939 1.31.662.45 1.062.722 2.033.722.971 0 1.371-.272 2.032-.722.812-.553 1.924-1.31 3.938-1.31 2.015 0 3.128.757 3.94 1.31.662.45 1.062.722 2.034.722.972 0 1.372-.272 2.035-.723.812-.552 1.925-1.309 3.94-1.309a1.693 1.693 0 0 1 0 3.386c-.972 0-1.372.272-2.035.723-.812.552-1.925 1.309-3.94 1.309z" fill="#fff"/></g></g></g><g><path d="M95.749 60.647a1.693 1.693 0 0 1-1.693-1.693V42.292a1.693 1.693 0 0 1 3.386 0v16.661a1.692 1.692 0 0 1-1.693 1.694z" fill="#fff"/></g></g></g><g><g><g><path fill="#db4437" d="M111.366 102.726l-8.427 8.413-86.305-85.726L25.062 17z"/></g></g></g><g><path d="M64 128C28.71 128 0 99.289 0 64 0 28.71 28.711 0 64 0s64 28.71 64 64c0 35.289-28.71 64-64 64zm0-117.113c-29.287 0-53.114 23.827-53.114 53.113 0 29.287 23.827 53.113 53.114 53.113S117.113 93.287 117.113 64 93.287 10.887 64 10.887z" fill="#db4437"/></g></svg>