<svg id="图层_1" xmlns="http://www.w3.org/2000/svg" viewBox="0 0 128 128"><g><path d="M127.99 110.793c0 1.103-.005 1.995-1.399 1.995h-17.605c-1.399 0-1.399-.893-1.399-1.995 0-1.103 0-1.997 1.399-1.997h17.605c1.394 0 1.399.894 1.399 1.997z" fill="#79a5af"/><path d="M22.689 110.238c-.574 2.037-.427 2.55-1.836 2.55-1.138 0-1.027-.937-1.634-2.55l-.917-3.564a2.552 2.552 0 0 1 5.103 0l-.716 3.564z" fill="#825751"/><path d="M91.001 110.238c-.57 2.037-.425 2.55-1.833 2.55-1.14 0-1.029-.937-1.634-2.55l-.918-3.564a2.552 2.552 0 0 1 5.103 0l-.718 3.564z" fill="#825751"/><path d="M99.911 76.51c0 11.682-9.467 21.149-21.147 21.149H31.177c-11.682 0-21.152-9.468-21.152-21.149l1.763-10.574c0-11.68 7.707-21.15 19.389-21.15h47.587c11.681 0 19.389 9.47 19.389 21.15l1.758 10.574z" fill="#fbb817"/><path d="M109.939 90.281c0 16.78.009 18.175-15.099 18.175H15.098c-15.695 0-15.095-1.69-15.095-18.175 0-10.038 3.34-18.178 15.095-18.178h79.743c11.756.001 15.098 8.14 15.098 18.178z" fill="#fbb817"/><path d="M10.686 72.557s11.128-1.908 11.751 7.906" fill="none" stroke="#f69028" stroke-linecap="round"/><path d="M99.254 72.555S87.9 70.649 87.279 80.463" fill="none" stroke="#f69028" stroke-linecap="round"/><path d="M92.47 93.377c0 2.931.69 5.305-3.221 5.305H20.69c-3.912 0-3.22-2.374-3.22-5.305 0-2.926-.692-7.064 3.22-7.064h68.559c3.911-.001 3.221 4.138 3.221 7.064z" fill="#b89278"/><path d="M55.031 90.281H20.498c-5.38 0-1.269-5.583-1.269-5.583 2.534-4.184 3.269-5.021 6.557-5.021h29.282" fill="#724941"/><path d="M55.006 90.281h34.532c5.381 0 1.268-5.583 1.268-5.583-2.533-4.184-3.268-5.021-6.557-5.021H54.97" fill="#724941"/><path d="M94.516 23.684c1.884 2.872 1.609 7.882-2.695 11.629l-5.673 3.72c-2.751 1.802-2.962.817-6.973-5.292-4.16-6.354-4.913-6.642-2.074-8.503l5.673-3.72c6.301-1.847 9.714-1.135 11.742 2.166z" fill="#79a5af"/><path d="M94.599 23.732s22.273-6.105 23.037 23.777c.344 13.682 0 63.283 0 63.283" fill="none" stroke="#79a5af" stroke-width="2" stroke-linecap="round"/></g></svg>