<svg id="レイヤー_1" xmlns="http://www.w3.org/2000/svg" viewBox="0 0 128 128"><g><g><path d="M104.862 105.898c0 5.016-4.104 9.12-9.121 9.12H32.267c-5.017 0-9.12-4.104-9.12-9.12V68.279c0-5.017 4.104-9.12 9.12-9.12h63.475c5.018 0 9.121 4.104 9.121 9.12v37.619z" fill="#ed6c30"/><path d="M75.555 74.213H52.457a4.027 4.027 0 0 1-4.026-4.021V51.23a4.028 4.028 0 0 1 4.026-4.022h23.098a4.023 4.023 0 0 1 4.022 4.022v18.961a4.024 4.024 0 0 1-4.022 4.022zm-19.081-8.044h15.06V55.252h-15.06v10.917z" fill="#ed6c30"/><path fill="#fff" d="M35.322 59.159h6.679v55.859h-6.679z"/><path fill="#fff" d="M86.006 59.159h6.68v55.859h-6.68z"/></g><g><g><path d="M67.987 21.213a15.991 15.991 0 0 0 3.921 6.448c6.218 6.223 16.317 6.223 22.545 0 6.228-6.228 6.228-16.328 0-22.55-6.228-6.227-16.327-6.227-22.545 0a15.79 15.79 0 0 0-3.911 6.438H55.801l-3.224 3.224-3.224-3.224-3.22 3.224-3.22-3.224h-3.22l-4.833 4.834 4.833 4.829h28.294zM86.4 13.164a4.544 4.544 0 0 1 6.439 0 4.557 4.557 0 0 1 0 6.439 4.546 4.546 0 0 1-6.439 0 4.553 4.553 0 0 1 0-6.439z" fill="#fcc21b"/></g></g><path d="M106.946 127.559H21.06c-7.035 0-12.762-5.723-12.762-12.752V48.775c0-7.03 5.727-12.753 12.762-12.753h85.886c7.035 0 12.754 5.723 12.754 12.753v66.032c0 7.029-5.719 12.752-12.754 12.752zM21.06 40.88c-4.362 0-7.899 3.541-7.899 7.894v66.032c0 4.354 3.537 7.895 7.899 7.895h85.886c4.353 0 7.898-3.541 7.898-7.895V48.775c0-4.354-3.546-7.894-7.898-7.894H21.06z" fill="#ed6c30"/></g></svg>