<svg id="图层_1" xmlns="http://www.w3.org/2000/svg" viewBox="0 0 128 128"><path id="XMLID_21_" fill="#875a3b" d="M6.099 68.445h117.479v12.253H6.099z"/><path id="XMLID_20_" fill="#196ca2" d="M6.099 60.04h117.479v8.405H6.099z"/><path id="XMLID_19_" d="M12.3 89.513c0 2.951-1.832 5.346-4.091 5.346-2.255 0-4.087-2.394-4.087-5.346V37.078c0-2.952 1.832-5.346 4.087-5.346 2.259 0 4.091 2.394 4.091 5.346v52.435z" fill="#875a3b"/><circle id="XMLID_18_" cx="8.211" cy="30.387" r="7.164" fill="#875a3b"/><path id="XMLID_16_" d="M125.158 89.513c0 2.951-1.832 5.346-4.091 5.346-2.255 0-4.087-2.394-4.087-5.346V37.078c0-2.952 1.832-5.346 4.087-5.346 2.259 0 4.091 2.394 4.091 5.346v52.435z" fill="#875a3b"/><path id="XMLID_6_" d="M36.961 53.606c-.799-.447-.878-3.387-2.863-4.748-1.416-.971-5.342-2.421-9.406-2.718-3.757-.275-7.661.537-9.098 1.211-2.179 1.022-2.733 3.91-3.594 4.222-1.121.407-1.995 1.125-2.046 2.133-.042.844.625 1.272 1.402 2.086.566.593 1.42 3.161 2.773 4.009 1.328.831 5.175 1.444 9.306 1.785 4.174.344 8.633.407 10.093-.205 1.473-.617 2.731-3.013 3.385-3.507.898-.678 1.626-.992 1.721-1.832.114-1.003-.632-1.854-1.673-2.436z" fill="#40c0e7"/><path id="XMLID_15_" d="M40.853 49.694c-1.013 5.102-6.879 7.848-11.462 6.763-4.109-.972-8.08-5.233-7.3-10.095.809-5.039 6.282-7.974 10.75-7.296 4.705.715 9.021 5.547 8.012 10.628z" fill="#fbc21a"/><path id="XMLID_14_" d="M35.507 57.227c-.646 1.606-2.059 2.813-2.059 2.813-1.045 1.342-2.224 3.54-2.74 4.96-.843 2.322-.355 3.938.312 5.286 1.172 2.374 3.918 2.571 5.559 2.746 5.641.601 15.288 1.12 25.873 1.295C89.485 74.773 117 72.375 117 72.375V55.793c-1.624-4.708-9.775-4.885-21.458-7.793-6.776-1.686-11.333-3.475-17.708-5.708C63.246 37.181 56.819 35.133 48.75 37c-3.118.722-7.816 2.937-9.75 5.5-3.458 4.583-2.571 12.432-3.493 14.727z" fill="#bdcf46"/><g id="XMLID_12_"><path id="XMLID_13_" d="M117 61.969c-1.354-.552-3.973-.849-4.5-.885-2.21-.153-4.604-.196-9.167-.25-3.509-.042-11.398.185-15.396-.052-3.998-.237-17.943-1.378-25.04-2.527-7.019-1.136-14.063-2.114-21.073-3.304-2.22-.377-4.142-.8-5.807-1.085-.098 1.078-.211 2.066-.422 2.648a8.46 8.46 0 0 1-.502 1.111c-.567 1.11-1.261 1.947-1.261 1.947a12.546 12.546 0 0 0-1.463 2.065c4.081 1.523 6.508 1.781 10.005 1.863 5.806.137 14.012-.595 19.812-.312 22.356 1.09 20.961 1.175 26.729 1.396 11.265.432 23.081.624 28.081.874-.007-1.713-.015-1.902.004-3.489z" fill="#98aa30"/></g></svg>