<svg id="レイヤー_1" xmlns="http://www.w3.org/2000/svg" viewBox="0 0 128 128"><g><g><path d="M119.074 92.366c0 6.76-5.526 12.29-12.291 12.29H21.219c-6.754 0-12.295-5.53-12.295-12.29V41.657c0-6.764 5.541-12.295 12.295-12.295h85.564c6.765 0 12.291 5.531 12.291 12.295v50.709z" fill="#ed6c30"/><path d="M79.577 49.658H48.43a5.423 5.423 0 0 1-5.42-5.422V18.673a5.424 5.424 0 0 1 5.42-5.422h31.147a5.422 5.422 0 0 1 5.42 5.422v25.563a5.422 5.422 0 0 1-5.42 5.422zM53.851 38.815h20.305V24.094H53.851v14.721z" fill="#ed6c30"/><path fill="#fff" d="M25.34 29.362h9.013v75.294H25.34z"/><path fill="#fff" d="M93.658 29.362h9.017v75.294h-9.017z"/></g><g fill="#ed6c30"><circle cx="4.359" cy="117.054" r="4.108"/><circle cx="16.289" cy="117.054" r="4.104"/><circle cx="28.218" cy="117.054" r="4.105"/><path d="M44.25 117.054a4.105 4.105 0 0 1-8.212 0 4.105 4.105 0 0 1 4.108-4.104 4.103 4.103 0 0 1 4.104 4.104z"/><circle cx="52.073" cy="117.054" r="4.108"/><path d="M68.107 117.054a4.105 4.105 0 1 1-8.21-.001 4.105 4.105 0 0 1 8.21.001z"/><path d="M80.037 117.054a4.105 4.105 0 0 1-4.103 4.104 4.1 4.1 0 0 1-4.108-4.104 4.1 4.1 0 0 1 4.108-4.104 4.103 4.103 0 0 1 4.103 4.104z"/><circle cx="87.86" cy="117.054" r="4.104"/><circle cx="99.789" cy="117.054" r="4.105"/><path d="M115.821 117.054a4.105 4.105 0 1 1-8.205-.001 4.105 4.105 0 0 1 8.205.001z"/><path d="M127.748 117.054a4.104 4.104 0 1 1-8.208 0 4.104 4.104 0 0 1 8.208 0z"/></g></g></svg>