<svg id="Layer_1" xmlns="http://www.w3.org/2000/svg" viewBox="0 0 128 128"><path id="XMLID_10_" fill="#875a3b" d="M6.136 68.622h118.025v12.31H6.136z"/><path id="XMLID_9_" fill="#196ca2" d="M6.136 60.178h118.025v8.444H6.136z"/><path id="XMLID_8_" d="M12.325 89.788c0 2.965-1.84 5.37-4.11 5.37-2.266 0-4.106-2.405-4.106-5.37V37.109c0-2.966 1.84-5.371 4.106-5.371 2.27 0 4.11 2.405 4.11 5.371v52.679z" fill="#875a3b"/><circle id="XMLID_7_" cx="8.217" cy="30.387" r="7.197" fill="#875a3b"/><path id="XMLID_6_" d="M36.961 53.606c-.798-.447-.878-3.387-2.863-4.748-1.416-.971-5.342-2.421-9.406-2.718-3.757-.275-7.661.537-9.098 1.211-2.179 1.022-2.733 3.91-3.594 4.222-1.121.407-1.995 1.125-2.046 2.133-.042.844.625 1.272 1.402 2.086.566.593 1.42 3.161 2.773 4.009 1.328.831 5.174 1.444 9.306 1.785 4.174.344 8.633.407 10.092-.205 1.473-.617 2.731-3.013 3.386-3.507.898-.678 1.626-.992 1.721-1.832.114-1.003-.632-1.854-1.673-2.436z" fill="#40c0e7"/><path id="XMLID_5_" d="M125.25 89.788c0 2.965-1.84 5.37-4.11 5.37-2.266 0-4.106-2.405-4.106-5.37V37.109c0-2.966 1.84-5.371 4.106-5.371 2.27 0 4.11 2.405 4.11 5.371v52.679z" fill="#875a3b"/><path id="XMLID_4_" d="M44.084 52.941s-6.414-.045-6.414 6.862c0 2.581-.031 9.905-.034 15.005-.003 4.745 3.845 8.591 8.591 8.591h69.04a2.29 2.29 0 0 0 2.29-2.29V55.23a2.29 2.29 0 0 0-2.29-2.29H44.084z" fill="#bdcf46"/><g id="XMLID_2_"><path id="XMLID_3_" d="M46.092 83.444h69.04a2.29 2.29 0 0 0 2.29-2.29V68.866H37.506c-.002 1.072-.004 5.026-.004 5.987-.004 4.745 3.845 8.591 8.59 8.591z" fill="#98aa30"/></g></svg>