<svg id="图层_1" xmlns="http://www.w3.org/2000/svg" viewBox="0 0 128 128"><path d="M110.218 83.907s7.634.927 9.134 5.927c1.026 3.42.584 9.83.834 12.907a4.874 4.874 0 0 1-1.694 4.11c-5.12 4.373-23.077 12.483-53.994 12.483-30.917 0-49.687-8.11-54.807-12.483a4.875 4.875 0 0 1-1.694-4.11c.25-3.076-.192-9.486.834-12.907 1.5-5 9.134-5.927 9.134-5.927" fill="#855c52"/><path d="M111.964 85.918c.177-.208.273-.458.287-.73.21-4.218.556-43.438-48.182-43.438-48.801 0-48.349 39.314-48.135 43.454.013.262.103.503.268.707 1.669 2.062 12.46 13.422 47.617 13.422 35.119 0 46.375-11.335 48.145-13.415z" fill="#fbc21a"/><path d="M29.361 76.904c-.039 0 .04.01 0 0-1.396-.347-2.153-1.843-2.153-3.909 0-4.786 1.859-8.832 3.736-11.342 3.42-4.574 9.084-5.415 9.442-5.442 1.792-.134 3.882-.131 4.396 1.569.316 1.047-.345 2.215-2.482 3.328-1.83.953-3.69 2.793-4.719 4.007-1.61 1.899-3.04 4.733-3.651 8.192-.4 2.271-2.937 4.007-4.569 3.597z" fill="#fff"/><g><path d="M12.198 95.715c4.665 3.499 22.171 11.362 51.402 11.119 29.231.243 47.703-7.62 52.368-11.119 2.636-1.977 3.304-4.325 3.386-5.995-1.109-3.505-4.806-4.979-7.104-5.539-.001.163-.004.313-.007.45a2.197 2.197 0 0 1-.745 1.602c-2.826 2.478-15.314 10.935-48.315 10.935-38.667 0-47.246-11.74-47.246-11.74s-.039-.401-.052-1.112c-2.395.727-6.323 2.143-7.056 5.603l-.001.009c.127 1.653.839 3.889 3.37 5.787z" fill="#b79178"/></g><path fill="#f79329" d="M19.25 31l11.625 11.625 6.167-4.167-6.625-15.291z"/><path fill="#f79329" d="M88.625 19.375L85.75 35l6.159 2.672 7.807-13.825z"/><path fill="#f79329" d="M98.777 40.157L107 27l8.583 6.667-11.188 11.214z"/><path d="M69.298 44.914a11.964 11.964 0 0 1-4.916 1.251 12.011 12.011 0 0 1-5.741-1.251v-7.206h10.657v7.206z" fill="#fbc21a"/><path d="M63.969 23.5c-6.845 0-12.394 2.263-12.394 5.054v4.934c0 2.791 5.549 5.054 12.394 5.054s12.394-2.263 12.394-5.054v-4.934c.001-2.791-5.549-5.054-12.394-5.054z" fill="#fbc21a"/></svg>