<svg id="Layer_1" xmlns="http://www.w3.org/2000/svg" viewBox="0 0 128 128"><path id="XMLID_20_" d="M22 49h-3V25.425c.032-6.211.996-17.36 11.585-19.798 3.719-.855 6.756-.337 9.26 1.542 4.746 3.561 5.093 10.246 5.11 10.549L44.953 38H42V18.271s-.52-5.916-4.078-8.574c-1.72-1.287-4.048-1.618-6.808-.98-4.375 1.007-7.011 3.87-8.365 8.783-1.068 3.875-.605 8.001-.75 7.849V49z" fill="#ed6c30"/><path id="XMLID_17_" fill="#ed6c30" d="M8.771 38.685l43.67-11.716 6.783 2.246 7.921-.614-38.967 11.141z"/><path id="XMLID_16_" d="M31.352 120.871l-10.146-3.634a3.152 3.152 0 0 0-1.861-.082l-7.63 1.996a2.296 2.296 0 0 1-2.877-2.221V38.511l14.969-.673c.372-.017.743.063 1.075.232l3.296 1.672 3.174 81.129z" fill="#fbc21a"/><path id="XMLID_18_" d="M28.178 39.742v77.952c0 2.195 2.172 3.73 4.241 2.996l32.61-11.56a3.179 3.179 0 0 0 2.117-2.996v-77.58L28.178 39.742z" fill="#f79329"/><path id="XMLID_22_" d="M35 52h-3V30.246c0-.62-.123-5.617 1.154-10.984 1.85-7.772 6.097-12.501 12.127-13.675 4.272-.832 7.761-.136 10.292 2.066 4.548 3.958 4.231 11.24 4.214 11.55L59.809 46H57V19.161c0-.143.085-6.192-3.296-9.122-1.756-1.522-4.387-1.973-7.645-1.338C34.449 10.961 34.987 30.005 35 30.196V52z" fill="#f79329"/><path id="XMLID_3_" d="M56.917 57.417l-14.584 4.657a2.23 2.23 0 0 1-2.852-2.142v-3.767c0-.992.656-1.865 1.609-2.142l14.584-4.657a2.23 2.23 0 0 1 2.852 2.142v3.767a2.233 2.233 0 0 1-1.609 2.142z" fill="#fbc21a"/><path id="XMLID_1_" d="M116.085 120.607h-55.22c-2.573 0-4.939-1.622-4.939-4.195V46.088H121v70.325c0 2.572-2.342 4.194-4.915 4.194z" fill="#bdcf46"/><path id="XMLID_59_" d="M120.955 103.155V116.4c0 2.579-2.336 4.197-4.915 4.197H60.818c-2.569 0-4.937-1.617-4.937-4.197v-13.245h65.074z" fill="#95ad32"/><path id="XMLID_4_" fill="#454c29" d="M55.926 35.425h65.048v10.662H55.926z"/><path id="XMLID_5_" d="M60.542 38.102l2.574 1.486c.911.526.91 1.841-.002 2.366l-2.565 1.476-4.622 2.664-.006-5.331-.006-5.331 4.627 2.67z" fill="#757f3f"/><path id="XMLID_7_" d="M116.358 38.096l-2.556 1.476a1.378 1.378 0 0 0 .002 2.387l2.546 1.465 4.622 2.664.006-5.331.006-5.331-4.626 2.67z" fill="#757f3f"/><path id="XMLID_11_" d="M107.696 35.844h-3.327v-9.293c0-8.804-7.192-15.966-16.032-15.966s-16.032 7.162-16.032 15.966v9.293h-3.327v-9.293c0-10.638 8.684-19.292 19.358-19.292s19.359 8.654 19.359 19.292v9.293z" fill="#454c29"/><path id="XMLID_41_" fill="#fbc21a" d="M28.172 106.733v-3.303l27.715-9.359v3.267z"/><path id="XMLID_19_" fill="#95ad32" d="M60.75 46.082h4.95v57.072h-4.95z"/><path id="XMLID_24_" fill="#95ad32" d="M80.87 46.082h4.95v57.072h-4.95z"/><path id="XMLID_25_" fill="#95ad32" d="M90.93 46.082h4.95v57.072h-4.95z"/><path id="XMLID_26_" fill="#95ad32" d="M100.99 46.082h4.95v57.072h-4.95z"/><path id="XMLID_28_" fill="#95ad32" d="M70.81 46.082h4.95v57.072h-4.95z"/><path id="XMLID_29_" fill="#95ad32" d="M111.05 46.082H116v57.072h-4.95z"/><path id="XMLID_12_" d="M106.792 54.362h-3.171V35.957c0-8.393-6.856-15.22-15.284-15.22s-15.283 6.828-15.283 15.22v18.406h-3.171V35.957c0-10.141 8.278-18.391 18.454-18.391s18.455 8.25 18.455 18.391v18.405z" fill="#757f3f"/><circle id="XMLID_6_" cx="71.292" cy="55.598" r="2.907" fill="#757f3f"/><circle id="XMLID_8_" cx="105.118" cy="55.598" r="2.995" fill="#757f3f"/></svg>