<svg id="图层_1" xmlns="http://www.w3.org/2000/svg" viewBox="0 0 128 128"><path d="M27.788 107.814a8.14 8.14 0 0 0-.301.209c-2.037 1.551-1.256 4.889-3.11 6.403-1.583 1.283-4.268-.064-5.858 1.232-3.338 2.711-2.239 7.214 1.482 8.792 6.512 2.761 14.218-3.411 17.292-8.669 1.164-1.982 2.552-5.525.583-7.272-1.001-.892-2.401-.618-3.594-.75-2.548-.282-4.066-1.538-6.494.055z" fill="#78a3ad"/><path d="M100.213 107.814c.1.067.199.136.29.209 2.057 1.551 1.256 4.889 3.13 6.403 1.574 1.283 4.248-.064 5.849 1.232 3.339 2.711 2.229 7.214-1.481 8.792-6.519 2.761-14.219-3.411-17.293-8.669-1.159-1.982-2.556-5.525-.591-7.272 1.005-.892 2.401-.618 3.602-.75 2.537-.282 4.065-1.538 6.494.055z" fill="#78a3ad"/><path d="M67.603 117.578h-.01c-4.048 0-8.087-.123-11.997-.241l-.51-.014c-9.074-.273-20.857-1.31-31.528-6.959-4.493-2.374-7.814-5.603-10.143-9.86-1.046-1.905-1.695-4.303-2.329-6.622-.718-2.665-1.463-5.417-2.637-6.735-.438-.491-1.133-.864-1.937-1.297-1.747-.928-4.13-2.201-4.958-5.562-.859-3.558-.474-6.409 1.16-8.483 2.414-3.078 6.772-3.469 10.283-3.469 1.278 0 2.574.054 3.81.112 3.78.169 7.696.191 11.753.104 6.368-.127 13.336-.19 21.295-.19 7.158 0 14.327.05 21.485.101 5.331.036 10.661.072 15.992.086l5.565.027c2.688.018 5.367.032 8.051.032 5.025 0 9.097-.06 12.815-.187 3.34-.104 6.087.245 8.147 1.118 2.429 1.028 6.253 3.794 4.562 10.748-.818 3.356-3.202 4.634-4.949 5.562-.805.433-1.5.801-1.937 1.297-1.173 1.318-1.92 4.074-2.647 6.74-.627 2.319-1.272 4.712-2.319 6.617-2.334 4.258-5.648 7.481-10.144 9.86-12.013 6.355-25.385 7.215-36.873 7.215z" fill="#e3ebee"/><g fill="#78a3ad"><path d="M24.505 22.41c-1.777.884-3.832 2.665-4.343 3.082-1.31 1.09-2.539 2.611-3.454 4.096-1.992 3.257-2.697 7.825-.476 11.117 2.153 3.203 5.832 5.061 6.29 9.211.135 1.26-.144 2.18-.593 3.342-.411 1.05-2.001 3.347-1.48 4.5 1.591 3.507 4.666-.553 5.787-2.145 2.136-3.032 3.836-6.94 3.127-10.717-.745-3.975-4.41-6.483-5.19-10.413-.574-2.844.699-5.406 1.955-7.828.591-1.13 1.229-2.22 1.13-3.526-.121-1.557-1.346-1.424-2.753-.719z"/><path d="M44.261 22.41c-1.777.884-3.845 2.665-4.352 3.082-1.31 1.09-2.539 2.611-3.446 4.096-2.001 3.257-2.7 7.825-.475 11.117 2.153 3.203 5.832 5.061 6.281 9.211.143 1.26-.144 2.18-.59 3.342-.412 1.05-1.991 3.347-1.476 4.5 1.588 3.507 4.662-.553 5.787-2.145 2.136-3.032 3.832-6.94 3.123-10.717-.746-3.975-4.405-6.483-5.19-10.413-.57-2.844.704-5.406 1.96-7.828.592-1.13 1.219-2.22 1.122-3.526-.114-1.557-1.336-1.424-2.744-.719z"/><path d="M64.009 22.41c-1.772.884-3.836 2.665-4.342 3.082-1.31 1.09-2.539 2.611-3.455 4.096-1.992 3.257-2.69 7.825-.475 11.117 2.164 3.203 5.833 5.061 6.29 9.211.144 1.26-.144 2.18-.583 3.342-.417 1.05-2.001 3.347-1.49 4.5 1.597 3.507 4.67-.553 5.792-2.145 2.131-3.032 3.836-6.94 3.127-10.717-.745-3.975-4.406-6.483-5.195-10.413-.565-2.844.703-5.406 1.964-7.828.593-1.13 1.221-2.22 1.122-3.526-.117-1.557-1.342-1.424-2.755-.719z"/></g><path d="M112.548 85.579c-3.745.85-7.051 3.444-9.921 6.887-4.753 5.704-6.838 11.58-12.138 16.444-5.854 5.373-24.078 7.958-36.366 8.379.323.012.651.025.968.034l.51.014c3.91.118 7.949.241 11.997.241h.01c11.488 0 24.86-.86 36.875-7.214 4.495-2.379 7.81-5.603 10.144-9.86 1.047-1.905 1.692-4.298 2.319-6.617.728-2.666 1.475-5.422 2.648-6.74.436-.496 1.132-.864 1.936-1.297 1.747-.928 4.131-2.205 4.949-5.562.202-.83.321-1.597.377-2.313-1.427 4.529-9.309 6.469-14.308 7.604z" fill="#d3dee2"/><path d="M100.469 3.508c-7.898 0-14.325 6.426-14.325 14.325 0 1.563-3.084 3.738-6.606 4.334a2.213 2.213 0 0 0-2.207 2.207c0 1.214.993 2.207 2.207 2.207H96.75a2.213 2.213 0 0 0 2.207-2.207 2.213 2.213 0 0 0-2.207-2.207c-3.522-.596-6.606-2.771-6.606-4.334 0-5.693 4.631-10.325 10.325-10.325s10.325 4.631 10.325 10.325v50.719h4V17.833c0-7.899-6.427-14.325-14.325-14.325z" fill="#78a3ad"/></svg>