<svg id="图层_1" xmlns="http://www.w3.org/2000/svg" viewBox="0 0 128 128"><g><g><g><path d="M121.028 0H7.022C3.239 0 .144 3.094.144 6.877v114.011c0 3.79 3.095 6.88 6.878 6.88h114.006c3.782 0 6.882-3.09 6.882-6.88V6.877c0-3.783-3.1-6.877-6.882-6.877z" fill="#006ca2"/></g></g></g><g fill="#fff"><path d="M98.615 38.33H66.076a1.66 1.66 0 0 1-1.499-2.372l1.842-3.879H98.98v2.938l-.365 3.313z"/><path d="M83.876 19.914c-5.388 0-10.103 2.83-12.777 7.075h25.554c-2.674-4.245-7.39-7.075-12.777-7.075zm14.813 12.165H69.063a15.128 15.128 0 0 0-.291 2.938c0 8.341 6.762 15.103 15.103 15.103 8.341 0 15.103-6.762 15.103-15.103a15.128 15.128 0 0 0-.289-2.938z"/><path d="M98.979 26.989H66.418l-2.181-6.08a1.641 1.641 0 0 1 1.544-2.195h33.197v8.275z"/><path d="M95.201 54.115H72.3c-5.609 0-10.557 2.808-13.534 7.088l-.009-.006-9.951 14.108-9.67-5.415a5.505 5.505 0 1 0-5.345 9.625l14.001 7.839.013-.023c2.431 1.338 5.521.683 7.149-1.642l9.338-13.239h.03l-1.563 2.225c.829-1.18 2.302-2.225 3.531-2.225s2.483.996 2.483 2.225v14.22l26.428-34.78zm9.11 1.272L74.93 94.054h24.05V74.676a2.225 2.225 0 1 1 4.451 0v27.588a5.505 5.505 0 0 0 11.01 0V70.598c-.001-6.85-4.182-12.722-10.13-15.211z"/><path d="M68.772 100.858h30.207v8.196H68.772z"/><path d="M15.889 26.331a1.712 1.712 0 0 0-2.274 1.615v26.439c0 .727.46 1.375 1.147 1.615l14.408 5.032a1.712 1.712 0 0 0 2.275-1.615V32.978c0-.727-.46-1.375-1.147-1.615l-14.409-5.032z"/><path d="M37.83 24.051H18.008c-.286 0-.552.077-.789.202l13.87 4.844a4.115 4.115 0 0 1 2.755 3.881v21.136h3.986c.944 0 1.708-.765 1.708-1.708V25.76a1.707 1.707 0 0 0-1.708-1.709z"/></g></svg>