<svg id="图层_1" xmlns="http://www.w3.org/2000/svg" viewBox="0 0 128 128"><g><g><g><path d="M121.028 0H7.022C3.239 0 .144 3.094.144 6.877v114.011c0 3.79 3.095 6.88 6.878 6.88h114.006c3.782 0 6.882-3.09 6.882-6.88V6.877c0-3.783-3.1-6.877-6.882-6.877z" fill="#006ca2"/></g></g></g><g fill="#fff"><path d="M98.614 38.33H66.076a1.66 1.66 0 0 1-1.499-2.372l1.842-3.879H98.98v2.938l-.366 3.313z"/><path d="M98.689 32.079H69.063a15.128 15.128 0 0 0-.291 2.938c0 8.341 6.762 15.103 15.103 15.103s15.103-6.762 15.103-15.103a15.128 15.128 0 0 0-.289-2.938zM83.876 19.914c-5.388 0-10.103 2.83-12.777 7.075h25.554c-2.674-4.245-7.39-7.075-12.777-7.075z"/><path d="M98.979 26.989H66.418l-2.181-6.08a1.641 1.641 0 0 1 1.544-2.195h33.197v8.275z"/><path d="M95.201 54.115H72.3c-5.609 0-10.557 2.808-13.534 7.088l-.009-.006-19.316 27.694a5.504 5.504 0 1 0 9.019 6.315l14.483-20.765c.85-1.079 2.201-1.99 3.347-1.99 1.229 0 2.483.996 2.483 2.225v14.22l26.428-34.781zm9.11 1.272L74.93 94.054h24.05V74.676a2.225 2.225 0 1 1 4.451 0v27.588a5.505 5.505 0 0 0 11.01 0V70.598c-.001-6.85-4.182-12.722-10.13-15.211z"/><g><path d="M16.827 103.688h8.771V69.123h-8.771a2.667 2.667 0 0 0-2.667 2.667v29.231a2.667 2.667 0 0 0 2.667 2.667z"/><path d="M60.162 112.459v-8.771H25.597v8.771a2.667 2.667 0 0 0 2.667 2.667h29.231a2.668 2.668 0 0 0 2.667-2.667z"/></g><path d="M68.772 100.858h30.207v8.196H68.772z"/></g></svg>