<svg xmlns="http://www.w3.org/2000/svg" viewBox="0 0 128 128"><g id="Layer_2"><g><path id="XMLID_503_" fill="#fbc11b" d="M27.263 77.959l8.457 7.233 6.29-5.783-14.689-16.524z"/><path id="XMLID_502_" d="M17.716 72.575l15.585 10.088 6.658-10.116c3.096-4.703 1.627-11.04-3.222-13.901l-5.875-3.467c-5.433-3.206-12.445-1.024-15.101 4.697l-1.054 2.271a8.273 8.273 0 0 0 3.009 10.428z" fill="#fbc11b"/><path id="XMLID_501_" d="M28.055 79.78l2.228-5.296-3.173-2.41a3.647 3.647 0 0 1-1.397-3.466v-.001l4.404 1.25a3.832 3.832 0 0 0-.426-3.724l-1.554-2.155a3.558 3.558 0 0 1-.483-3.226l2.091-6.15s-7.387-4.719-12.978 1.975a44.566 44.566 0 0 0-2.644 3.518c-3.7 5.448-1.7 12.912 4.219 15.8l.002.001a71.164 71.164 0 0 0 9.709 3.884h.002z" fill="#6d4c41"/><path id="XMLID_500_" d="M32.026 61.257c.7.434 1.557.316 1.918-.265.359-.579.084-1.401-.616-1.835-.701-.435-1.561-.315-1.919.263-.361.582-.084 1.403.617 1.837" fill="#c07b47"/></g><path d="M27.788 107.814a8.14 8.14 0 0 0-.301.209c-2.037 1.551-1.256 4.889-3.11 6.403-1.583 1.283-4.268-.064-5.858 1.232-3.338 2.711-2.239 7.214 1.482 8.792 6.512 2.761 14.218-3.411 17.292-8.669 1.164-1.982 2.552-5.525.583-7.272-1.001-.892-2.401-.618-3.594-.75-2.548-.282-4.066-1.538-6.494.055z" fill="#78a2ac"/><path d="M100.213 107.814c.1.067.199.136.29.209 2.057 1.551 1.256 4.889 3.13 6.403 1.574 1.283 4.248-.064 5.849 1.232 3.339 2.711 2.229 7.214-1.481 8.792-6.519 2.761-14.219-3.411-17.293-8.669-1.159-1.982-2.556-5.525-.591-7.272 1.005-.892 2.401-.618 3.602-.75 2.537-.282 4.065-1.538 6.494.055z" fill="#78a2ac"/><path d="M67.603 117.578h-.01c-4.048 0-8.087-.123-11.997-.241l-.51-.014c-9.074-.273-20.857-1.31-31.528-6.959-4.493-2.374-7.814-5.603-10.143-9.86-1.046-1.905-1.695-4.303-2.329-6.622-.718-2.665-1.463-5.417-2.637-6.735-.438-.491-1.133-.864-1.938-1.297-1.747-.928-4.13-2.201-4.958-5.562-.859-3.558-.474-6.409 1.16-8.483 2.414-3.078 6.772-3.469 10.283-3.469 1.278 0 2.574.054 3.81.112 3.78.169 7.696.191 11.753.104 6.368-.127 13.336-.19 21.295-.19 7.158 0 14.327.05 21.485.101 5.331.036 10.661.072 15.992.086l5.565.027c2.688.018 5.367.032 8.051.032 5.025 0 9.097-.06 12.815-.187 3.34-.104 6.087.245 8.147 1.118 2.429 1.028 6.253 3.794 4.562 10.748-.818 3.356-3.202 4.634-4.949 5.562-.805.433-1.5.801-1.937 1.297-1.173 1.318-1.92 4.074-2.647 6.74-.627 2.319-1.272 4.712-2.319 6.617-2.334 4.258-5.648 7.481-10.144 9.86-12.012 6.355-25.384 7.215-36.872 7.215z" fill="#e2eaed"/><path d="M112.548 85.579c-3.745.85-7.051 3.444-9.921 6.887-4.753 5.704-6.838 11.58-12.138 16.444-5.854 5.373-24.078 7.958-36.366 8.379.323.012.651.025.968.034l.51.014c3.91.118 7.949.241 11.997.241h.01c11.488 0 24.86-.86 36.875-7.214 4.495-2.379 7.81-5.603 10.144-9.86 1.047-1.905 1.692-4.298 2.319-6.617.728-2.666 1.475-5.422 2.648-6.74.436-.496 1.132-.864 1.936-1.297 1.747-.928 4.131-2.205 4.949-5.562.202-.83.321-1.597.377-2.313-1.427 4.529-9.309 6.469-14.308 7.604z" fill="#d2dde1"/><g><path fill="#78a2ac" d="M110.793 17.833h4v50.719h-4z"/><g><path d="M114.794 17.833h-4c0-5.693-4.631-10.325-10.325-10.325-5.693 0-10.325 4.631-10.325 10.325h-4c0-7.899 6.427-14.325 14.325-14.325s14.325 6.426 14.325 14.325z" fill="#78a2ac"/></g><g fill="#78a2ac"><path d="M96.75 26.58H79.538a2.213 2.213 0 0 1-2.207-2.207c0-1.214.993-2.207 2.207-2.207H96.75c1.214 0 2.207.993 2.207 2.207a2.213 2.213 0 0 1-2.207 2.207z"/><path d="M79.538 22.167c3.522-.596 6.606-2.771 6.606-4.334h2v4.334h-8.606z"/><path d="M96.75 22.167c-3.522-.596-6.606-2.771-6.606-4.334h-2v4.334h8.606z"/></g></g></g></svg>