<svg id="レイヤー_1" xmlns="http://www.w3.org/2000/svg" viewBox="0 0 128 128"><path d="M95.842 41.062l-9.206.971 4.016-19.641a9.998 9.998 0 0 1 6.918-7.573l18.492-5.559c3.67-1.103 7.365 1.644 7.365 5.477v.003c0 3.612-3.587 6.129-6.984 4.899l-2.569-.576-10.361 3.07a6.001 6.001 0 0 0-4.126 4.336l-3.545 14.593z" fill="#65878d"/><path fill="#65878d" d="M86.292 82.75L79.875 110l-7.78-2.75 4.791-24.5z"/><path fill="#65878d" d="M81.761 102H18.845v8.333h61.5z"/><path d="M1.946 48.083l7.415 36.123A6 6 0 0 0 15.238 89h68.516c.931 0 1.739-.643 1.949-1.55l12.021-52.012a2 2 0 0 0-2.127-2.442L7.289 40.901a6 6 0 0 0-5.343 7.182zM15.9 49.166l4.257-.381a3 3 0 0 1 3.267 2.988v4.816a3 3 0 0 1-3 3h-4.483a3.002 3.002 0 0 1-2.939-2.397l-.665-3.238a4.002 4.002 0 0 1 3.563-4.788zm38.208 18.423h5.683a3 3 0 0 1 3 3V77a3 3 0 0 1-3 3h-5.683a3 3 0 0 1-3-3v-6.411a3 3 0 0 1 3-3zm5.684-8h-5.683a3 3 0 0 1-3-3v-7.831a3 3 0 0 1 2.733-2.988l5.683-.509a3 3 0 0 1 3.267 2.988v8.34a3 3 0 0 1-3 3zm-16.684 11V77a3 3 0 0 1-3 3h-5.683a3 3 0 0 1-3-3v-6.411a3 3 0 0 1 3-3h5.683a3 3 0 0 1 3 3zm-3-11h-5.683a3 3 0 0 1-3-3V50.52a3 3 0 0 1 2.733-2.988l5.683-.509a3 3 0 0 1 3.267 2.988v6.578a3 3 0 0 1-3 3zm45.74-12.735l-2.406 10.411a2.999 2.999 0 0 1-2.923 2.324h-6.727a3 3 0 0 1-3-3v-9.593a3 3 0 0 1 2.733-2.988l9.133-.818a3 3 0 0 1 3.19 3.664zM75.007 80h-2.215a2 2 0 0 1-2-2v-7.411a3 3 0 0 1 3-3h3.492a3 3 0 0 1 2.923 3.676l-1.303 5.636A4 4 0 0 1 75.007 80zm-59.259-9.436a2.477 2.477 0 0 1 2.427-2.975h2.25a3 3 0 0 1 3 3v6.934A2.477 2.477 0 0 1 20.948 80a4 4 0 0 1-3.918-3.196l-1.282-6.24z" fill="#fac136"/><circle cx="75.538" cy="106.333" r="11" fill="#2f2f2f"/><circle cx="75.538" cy="106.333" r="5.133" fill="#65878d"/><circle cx="22.697" cy="106.333" r="11" fill="#2f2f2f"/><circle cx="22.697" cy="106.333" r="5.133" fill="#65878d"/><circle cx="118.594" cy="16.253" r="7.406" fill="#65878d"/></svg>