<svg id="图层_1" xmlns="http://www.w3.org/2000/svg" viewBox="0 0 128 128"><g><g><path d="M121.096 0H6.889C3.101 0 0 3.107 0 6.895v114.212C0 124.895 3.101 128 6.889 128h114.207c3.789 0 6.895-3.105 6.895-6.893V6.895c0-3.788-3.106-6.895-6.895-6.895z" fill="#7742cc"/></g></g><g><g><g><path d="M104.538 38.05a4.122 4.122 0 0 1-2.166-.614l-31.25-19.215c-3.856-2.371-10.621-2.371-14.477 0l-31.25 19.215a4.143 4.143 0 0 1-4.34-7.057l31.25-19.215c6.493-3.991 16.664-3.991 23.157 0l31.25 19.215a4.143 4.143 0 0 1-2.174 7.671z" fill="#fff"/></g></g><path d="M83.64 93.698c-4.763 1.204-5.711 1.397-10.475 2.6-2.732.688-4.943-1.111-5.554-3.915-2.576-11.809-2.674-15.649-5.149-24.948-.893-3.714-.018-9.176 4.453-10.367 1.895-.505 2.815-.701 4.716-1.182 3.851-.987 7.926 2.584 9.336 6.438 3.835 9.099 5.223 15.264 7.055 24.951.364 2.849-1.654 5.734-4.382 6.423z" fill="#fff"/><g><path d="M65.676 57.563l-16.871 9.326a4.222 4.222 0 1 0 4.085 7.391l16.871-9.326-4.085-7.391z" fill="#fff"/></g><g><path d="M54.137 67.88l-9.965-11.983a4.236 4.236 0 0 0-5.966-.542 4.235 4.235 0 0 0-.556 5.964l9.965 11.983 6.522-5.422z" fill="#fff"/></g><path d="M85.852 109.289H59.583a4.863 4.863 0 1 0 0 9.726h26.269a4.863 4.863 0 1 0 0-9.726z" fill="#fff"/><path d="M75.604 87.491l-7.747 5.739-11.999 17.796a4.864 4.864 0 0 0 7.45 6.252L86.273 92.16c1.726-2.057-1.761-3.543-3.819-5.269a4.863 4.863 0 0 0-6.85.6z" fill="#fff"/><circle cx="64.136" cy="42.439" r="11.585" fill="#fff"/></g></svg>