<svg xmlns="http://www.w3.org/2000/svg" xmlns:xlink="http://www.w3.org/1999/xlink" viewBox="0 0 128 128"><g id="レイヤー_1"><g><defs><path id="SVGID_1_" d="M127.992 115.907c0 6.65-5.441 12.093-12.102 12.093H12.094C5.443 128 0 122.558 0 115.907V12.109C0 5.45 5.443.008 12.094.008h103.797c6.66 0 12.102 5.442 12.102 12.102v103.797z"/></defs><clipPath id="SVGID_2_"><use xlink:href="#SVGID_1_" overflow="visible"/></clipPath><g clip-path="url(#SVGID_2_)"><path d="M65.823 78.098c-.837 18.751-3.757 33.68-19.743 33.341-15.987-.337-28.266-15.812-27.429-34.563.838-18.751 24.557-33.342 30.462-33.342 5.787-.001 17.547 15.811 16.71 34.564z" fill="#78a3ad"/><path d="M66.665 73.043c2.635 18.672-8.134 34.67-24.053 35.73-15.92 1.061-32.151-13.216-34.786-31.889-2.635-18.672 16.361-35.73 25.244-35.73 5.607 0 30.96 13.216 33.595 31.889z" fill="#757f3f"/><path d="M70.246 70.034c12.787 16.575 1.196 59.924-15.949 66.171-17.143 6.246-104.556-8.956-117.344-25.531C-75.834 94.1-1.796 46.255 13.554 45.816c15.205-.435 46.302 10.751 56.692 24.218z" fill="#bdcf46"/><path d="M62.333 78.098c.838 18.751 3.758 33.68 19.743 33.341 15.987-.337 28.266-15.812 27.43-34.563-.838-18.751-24.557-33.342-30.462-33.342-5.787-.001-17.547 15.811-16.711 34.564z" fill="#78a3ad"/><path d="M61.493 73.043c-2.635 18.672 8.133 34.67 24.052 35.73 15.92 1.061 32.151-13.216 34.787-31.889 2.635-18.672-16.361-35.731-25.245-35.731-5.606.001-30.96 13.217-33.594 31.89z" fill="#757f3f"/><path d="M57.912 70.034c-12.788 16.575-1.196 59.924 15.947 66.171 17.144 6.246 94.558-8.956 107.346-25.531 12.786-16.575-51.252-64.419-66.602-64.858-15.206-.435-46.302 10.751-56.691 24.218z" fill="#bdcf46"/><g><path d="M12.094 127.738h103.797c.499 0 .989-.047 1.474-.118H10.622c.484.071.973.118 1.472.118z" fill="#2f2f2f"/><path fill="#664842" d="M10.622 127.621l.126-6.63L59 53.111h10l47.557 67.764-.088 6.873-105.847-.127"/><path fill="#2f2f2f" d="M10.622 127.621h106.742"/></g><path d="M116.895 120.756c-4.439-6.849-5.394-7.325-7.631-7.356a2.744 2.744 0 0 0-.538-.055l-45.035.025-45.034-.025c-.193 0-.371.022-.538.055-2.237.031-3.191.507-7.631 7.356-4.344 6.701-2.625 7.353 2.778 7.353l50.425-.027 50.425.027c5.404 0 7.123-.652 2.779-7.353z" fill="#ad8a73"/><path d="M98.778 95.269c-2.928-4.517-3.558-4.829-5.033-4.85a1.659 1.659 0 0 0-.354-.036l-29.699.016-29.699-.016c-.128 0-.243.013-.354.036-1.475.022-2.104.334-5.033 4.85-2.864 4.42-1.73 4.849 1.833 4.849l33.253-.017 33.253.017c3.563 0 4.697-.43 1.833-4.849z" fill="#ad8a73"/><path d="M85.568 76.29c-1.806-2.877-2.195-3.076-3.104-3.09a1.01 1.01 0 0 0-.219-.022l-18.32.009-18.32-.009a1.01 1.01 0 0 0-.219.022c-.91.015-1.298.213-3.104 3.09-1.767 2.816-1.068 3.089 1.129 3.089l20.514-.011 20.514.011c2.198.001 2.896-.273 1.129-3.089z" fill="#ad8a73"/><path d="M77.04 64.506c-1.09-1.866-1.324-1.997-1.873-2.004a.606.606 0 0 0-.132-.015l-11.063.007-11.062-.007a.613.613 0 0 0-.132.015c-.55.008-.784.138-1.874 2.004-1.067 1.826-.646 2.003.681 2.003l12.386-.007 12.387.007c1.329.001 1.75-.176.682-2.003z" fill="#ad8a73"/><path d="M72.177 57.591c-.688-1.27-.835-1.358-1.182-1.364a.365.365 0 0 0-.084-.01l-6.971.005-6.97-.005a.35.35 0 0 0-.083.01c-.347.006-.494.094-1.182 1.364-.672 1.242-.406 1.363.43 1.363l7.805-.006 7.806.006c.837 0 1.104-.121.431-1.363z" fill="#ad8a73"/><path fill="#c69f85" d="M37.713 128.748H30l32-75.637h.7z"/><path fill="#664842" d="M25.713 128.748H30l32-75.637h-.3z"/><path fill="#664842" d="M37.713 128.748H42l21-75.637h-.3z"/><path fill="#664842" d="M102.25 128.748h-4.287l-32-75.637h.3z"/><path fill="#664842" d="M90.25 128.748h-4.287l-21-75.637h.3z"/><path fill="#c69f85" d="M90.287 128.748H98L66 53.111h-.7z"/></g></g></g></svg>