<svg id="Layer_1" xmlns="http://www.w3.org/2000/svg" viewBox="0 0 128 128"><path d="M64 128C7.631 95 7.187 30 7.187 30L64 0l27.122 14.322L120.813 30s0 63.5-56.813 98z" fill="#106ba4"/><path d="M64 128C7.631 95 7.187 30 7.187 30L64 0l27.122 14.322L120.813 30s0 63.5-56.813 98z" fill="#106ba4"/><path d="M64 128C7.631 95 7.187 30 7.187 30L64 0l27.122 14.322L120.813 30s0 63.5-56.813 98z" fill="#106ba4"/><path d="M64 128C7.631 95 7.187 30 7.187 30L64 0l27.122 14.322L120.813 30s0 63.5-56.813 98z" fill="#106ba4"/><path d="M64 128C7.631 95 7.187 30 7.187 30L64 0l27.122 14.322L120.813 30s0 63.5-56.813 98z" fill="#106ba4"/><path d="M64 128C7.631 95 7.187 30 7.187 30L64 0l27.122 14.322L120.813 30s0 63.5-56.813 98z" fill="#106ba4"/><path d="M64 128C7.631 95 7.187 30 7.187 30L64 0l27.122 14.322L120.813 30s0 63.5-56.813 98z" fill="#106ba4"/><path d="M64 128C7.631 95 7.187 30 7.187 30L64 0l27.122 14.322L120.813 30s0 63.5-56.813 98z" fill="#106ba4"/><path d="M63.926 117.362c-38.314-25.24-45.889-67.37-47.377-82.127L64 10.178l47.471 25.067c-.586 5.963-2.173 16.442-6.467 28.443-8.125 22.707-21.931 40.739-41.078 53.674z" fill="#fff"/><path d="M64 117.362V10.178l47.508 25.067c-.586 5.963-2.154 16.442-6.448 28.443C96.935 86.395 83 104.427 64 117.362z" fill="#37bfe9"/></svg>