<svg id="レイヤー_1" xmlns="http://www.w3.org/2000/svg" viewBox="0 0 128 128"><path d="M94.248 39.405s6.463-5.773 16.047-5.724c2.301 0 2.137 1.808 0 2.301-2.137.494-5.763 2.752-6.913 6.697-4.603 0-9.134-3.274-9.134-3.274z" fill="#196ca2"/><path d="M66.46 42.285l5.353-3.946s2.542-2.111 6.549-1.336c4.256.824 38.29 5.461 38.29 5.461s3.42.285 4.136 4.039c.706 3.703.938 4.681.938 4.681L66.46 42.285z" fill="#78a3ad"/><path d="M126.738 72.107l-4.712 12.415c-1.412 4.192-5.313 7.238-9.947 7.381l-.012.008-71.252-.086a20.332 20.332 0 0 1-12.437-5.74L2.675 59.945c-.574-.504-1.154-1.207-1.154-2.087a2.467 2.467 0 0 1 2.467-2.467c.181 0 118.826 11.501 119.102 11.516 2.188.12 3.784 1.694 3.784 3.784-.001.489-.001 1.068-.136 1.416z" fill-rule="evenodd" clip-rule="evenodd" fill="#e6e7e8"/><g><path d="M11.93 57.181c-.358-.315-.715-.698-.972-1.142-4.402-.425-7.008-.675-7.035-.675a2.467 2.467 0 0 0-2.467 2.467c0 .88.581 1.583 1.154 2.087l25.703 26.14a20.335 20.335 0 0 0 12.437 5.74l7.059.009a23.727 23.727 0 0 1-6.038-4.276L11.93 57.181z" fill="#d1d3d4"/></g><path fill-rule="evenodd" clip-rule="evenodd" fill="#40c0e7" d="M66.46 42.285L48.407 55.56l48.48 6.259 9.737-1.379.808-4.75.537-6.052-22.347-3.865z"/><g><path d="M125.538 67.247l-47.781-4.789c-33.621-3.255-73.663-7.132-73.769-7.132a2.467 2.467 0 0 0-2.467 2.467c0 .88.581 1.583 1.154 2.087l1.4 1.424 122.358 11.54.305-.802c.135-.348.738-2.21-1.2-4.795z" fill="#ed6c30"/></g><path d="M98.654 58.2c-2.973.258-2.011 2.577-2.011 2.577l28.119 4.467-3.48-16.111-53.515-7.858-5.013 3.709s39.205 5.558 40.509 5.762c1.303.205 1.824 1.603 1.882 2.269.091 1.049.419 4.584-6.491 5.185z" fill="#196ca2"/><path fill="#196ca2" d="M90.511 48.291L78.412 59.75l-6.787-.76 13.651-11.346z"/><path d="M67.118 54.581a1.552 1.552 0 0 1-.912-2.807l10.081-7.303a1.551 1.551 0 0 1 1.82 2.512l-10.081 7.303a1.54 1.54 0 0 1-.908.295z" fill="#fff"/><path fill="#78a3ad" d="M125.538 67.247l-84.06-7.384 7.25-4.502 75.388 6.975z"/><g><path d="M120.749 72.338l-4.216 11.109c-1.448 4.299-5.205 7.677-9.769 8.458l5.295.001.012-.008c4.634-.143 8.535-3.188 9.947-7.381l4.437-11.691-5.706-.488z" fill="#d1d3d4"/></g><path d="M123.625 96.266H12.603a2.374 2.374 0 0 1-2.367-2.367 2.374 2.374 0 0 1 2.367-2.367h111.022a2.374 2.374 0 0 1 2.367 2.367 2.374 2.374 0 0 1-2.367 2.367z" fill="#40c0e7"/></svg>