<svg id="图层_1" xmlns="http://www.w3.org/2000/svg" xmlns:xlink="http://www.w3.org/1999/xlink" viewBox="0 0 128 128"><path d="M96.978 57.561l30.018-26.175c1.338-1.174.298-3.367-1.458-3.074l-1.274.212a17.687 17.687 0 0 0-8.384 3.833L81.722 60.214l15.256-2.653z" fill="#fbc21a"/><path d="M125.78 28.285L97.343 49.767h-7.001s18.822-14.113 24.388-18.046c4.664-3.295 8.523-3.614 11.05-3.436z" fill="#1a6ca2"/><path d="M80.256 43.049S65.895 46.024 42.15 58.502C21.642 69.279 21.177 68.837 21.177 68.837S7.395 74.659 7.542 76.87s1.621 6.191 3.98 6.633 43.493-3.325 47.167-3.98c10.76-1.916 27.052-6.402 38.29-10.853 11.237-4.45 19.453-11.1 21.664-18.027 0 0 1.363-3.548-2.617-3.548s-21.325.824-21.325.824-8.401-6.049-14.445-4.87z" fill="#cfd8dc"/><path d="M112.489 55.055s-5.422 4.805-10.733 7.142c-8.696 3.828-33.46 11.119-41.518 13.102-6.16 1.516-18.663 4.192-24.662 4.535-7.948.455-11.01-4.807-14.4-10.997-2.749-5.019-6.861-14.638-8.792-18.851a1.764 1.764 0 0 0-2.302-.883l-4.413 1.891a1.77 1.77 0 0 0-1.059 1.843l3.08 24.918s.442 5.012 3.832 5.749c3.39.737 30.364-2.064 39.355-2.506S83.091 74.621 96.98 68.67s16.418-9.757 18.9-12.879c0 .001-1.769-.146-3.391-.736z" fill="#1a6ca2"/><path d="M22.429 73.627s-.884-1.916-5.896 0-8.254 2.948-8.254 2.948l-7.672 5.23c-.866.59-.367 1.946.675 1.835l4.065-.436a.982.982 0 0 0 .362-.11c1.557-.832 13.552-7.263 16.72-9.467z" fill="#fbc21a"/><path d="M92.591 48.256s-7.628 4.883-11.276 8.973c0 0-1.437.884-2.653-.884-1.216-1.769-3.64-6.73-1.761-8.425s5.167-4.095 7.051-3.67c4.361.982 8.639 4.006 8.639 4.006z" fill="#1a6ca2"/><path d="M115.862 55.882c-.164-.01-4.682-.143-5.388-3.753-.68-3.473 1.026-4.849 1.026-4.849s7.054-.89 7.977 1.015c1.323 2.732-3.615 7.587-3.615 7.587z" fill="#64878e"/><circle cx="68.666" cy="56.654" r="3.56" fill="#1a6ca2"/><circle cx="57.212" cy="60.475" r="3.023" fill="#1a6ca2"/><circle cx="47.334" cy="63.53" r="2.52" fill="#1a6ca2"/><path d="M81.06 73.976s-1.083-5.534-8.833-4.784-23.727 6.69-23.727 6.69l-37.185 25.84a1.8 1.8 0 0 0 .235 3.094l.002.001a15.999 15.999 0 0 0 14.826-.389L81.06 73.976z" fill="#1a6ca2"/><g><defs><path id="SVGID_1_" d="M81.06 73.976s-1.083-5.534-8.833-4.784-23.727 6.69-23.727 6.69l-37.185 25.84a1.8 1.8 0 0 0 .235 3.094l.002.001a15.999 15.999 0 0 0 14.826-.389L81.06 73.976z"/></defs><clipPath id="SVGID_2_"><use xlink:href="#SVGID_1_" overflow="visible"/></clipPath><path clip-path="url(#SVGID_2_)" fill="#fbc21a" d="M70 67.833L13.667 108h8l64.328-35.225-4.273-4.942z"/></g></svg>