<svg id="Layer_1" xmlns="http://www.w3.org/2000/svg" viewBox="0 0 128 128"><path id="XMLID_489_" d="M113.191 56.577c5.384-5.384 6.982-13.21 4.921-20.464-.12-.422-.661-.552-.971-.242l-11.654 11.654a1.897 1.897 0 0 1-2.683 0L90.076 34.796a1.897 1.897 0 0 1 0-2.683l11.654-11.654c.31-.31.179-.851-.242-.971-7.254-2.061-15.081-.462-20.464 4.921-5.397 5.397-6.989 13.248-4.906 20.517C65.505 62.748 48.313 78.84 31.202 90.29c-3.827 2.561-8.104 4.381-10.254 8.732-1.978 4.002-1.781 8.821.545 12.638.569.933 3.514 3.879 4.447 4.447 3.817 2.326 8.636 2.523 12.638.545 4.351-2.151 6.171-6.427 8.732-10.254 11.449-17.111 27.542-34.303 45.364-44.915 7.269 2.083 15.121.49 20.517-4.906zm-84.173 52.005a5.305 5.305 0 0 1 .058-7.439 5.305 5.305 0 0 1 7.439-.058 5.305 5.305 0 0 1-.058 7.439 5.305 5.305 0 0 1-7.439.058z" fill="#78a3ad"/><path id="XMLID_24_" d="M46 95a3.5 3.5 0 0 1-2.484-5.966l32.5-32.75a3.5 3.5 0 1 1 4.969 4.931l-32.5 32.75A3.49 3.49 0 0 1 46 95z" fill="#2f2f2f"/><g id="XMLID_527_"><path id="XMLID_530_" d="M107.778 100.957c-4.237-4.368-20.553-20.183-25.035-24.34-3.143-2.916-14.212-11.34-15.293-12.415L43.311 40.189l-6.617 6.617 24.013 24.139c1.075 1.082 9.499 12.15 12.414 15.293 4.157 4.482 19.972 20.798 24.34 25.035a536.87 536.87 0 0 0 2.525 2.406c1.576 1.496 3.797 1.714 5.019.492l5.669-5.669c1.222-1.222 1.004-3.443-.492-5.019a444.128 444.128 0 0 0-2.404-2.526z" fill="#855c52"/><g id="XMLID_528_"><path id="XMLID_529_" d="M42.922 46.416c1.174-1.174 2.628-1.963 4.258-2.393l-6.589-6.555-6.617 6.617 6.555 6.589c.43-1.629 1.218-3.083 2.393-4.258z" fill="#855c52"/></g></g><path id="XMLID_526_" d="M50.95 14.305c-1.62-.426-4.294-.262-9.865.874-5.451 1.112-7.082 3.247-8.481 4.647L16.299 36.131a.923.923 0 0 0 0 1.305l2.67 2.67c.551.551.318 1.49-.426 1.72l-.836.258c-1.943.6-3.995.757-6.006.46l-.005-.001a3.169 3.169 0 0 0-2.703.894l-3.896 3.896a1 1 0 0 0 0 1.413L20.44 64.089a2.796 2.796 0 0 0 3.953 0l2.624-2.624a3.168 3.168 0 0 0 .893-2.708 13.622 13.622 0 0 1 .457-6.028l.254-.825a1.035 1.035 0 0 1 1.72-.426l2.679 2.679c.36.36.944.36 1.305 0l16.919-16.919a.923.923 0 0 0 0-1.305l-5.25-5.25s-2.472-2.472-2.885-3.593c-2.046-5.626 4.177-8.779 6.733-10.314 2.557-1.534 2.728-2.045 1.108-2.471z" fill="#78a3ad"/><g id="XMLID_464_"><path id="XMLID_521_" d="M19.06 40.225a.14.14 0 0 0-.01-.038l-.081-.081c.036.037.061.079.091.119z" fill="#0696a6"/><path id="XMLID_520_" d="M19.049 40.187a.183.183 0 0 0-.081-.081l.081.081z" fill="#00838f"/><g id="XMLID_465_"><path id="XMLID_497_" d="M18.542 41.825l-.836.258c-1.943.6-3.995.757-6.006.46l14.725 14.725.28.595a3.17 3.17 0 0 1-.926 2.365l-2.624 2.624a2.796 2.796 0 0 1-3.953 0l2.507 2.507a1 1 0 0 0 1.413 0l3.893-3.893c.727-.727 1.03-1.756.884-2.774a13.626 13.626 0 0 1 .467-5.962l.254-.825a1.035 1.035 0 0 1 1.72-.426l-3.845-3.845-1.456-1.456-5.99-5.99a.112.112 0 0 1 .01.038 1.027 1.027 0 0 1-.517 1.599z" fill="#78a3ad"/></g></g><path id="XMLID_4_" d="M86.683 27.841a2.5 2.5 0 0 1-1.507-4.497 19.423 19.423 0 0 1 4.36-2.471 2.5 2.5 0 1 1 1.885 4.632 14.341 14.341 0 0 0-3.235 1.833c-.452.339-.98.503-1.503.503z" fill="#fff"/><path id="XMLID_6_" d="M114.847 43.158a2.134 2.134 0 0 1 2.581 3.116 16.549 16.549 0 0 1-2.711 3.307 2.132 2.132 0 1 1-2.923-3.107 12.263 12.263 0 0 0 2.012-2.453 2.121 2.121 0 0 1 1.041-.863z" fill="#fff"/><path id="XMLID_5_" d="M11.436 51.112a2.34 2.34 0 0 1-1.684-.718 2.5 2.5 0 0 1 0-3.465l.979-1.008a2.333 2.333 0 0 1 3.367 0 2.5 2.5 0 0 1 0 3.465l-.979 1.008a2.336 2.336 0 0 1-1.683.718z" fill="#fff"/><path id="XMLID_15_" d="M21.664 34.481c.922-.795 8.085-8.118 13.111-13.258l.159-.142c.322-.251 1.735-1.656 3.975-2.26.907-.244 1.981-.469 2.059.39.079.859-.656 1.664-.656 1.664-.662.912-1.91 2.594-2.938 3.375-1.61 1.647-11.112 12.117-12.409 13.235-.329.284-2.029.671-2.826.103-1.041-.744-1.458-2.259-.475-3.107z" fill="#fff"/></svg>