<svg id="图层_1" xmlns="http://www.w3.org/2000/svg" xmlns:xlink="http://www.w3.org/1999/xlink" viewBox="0 0 128 128"><path d="M128 117.22c0 1.502-1.201 2.722-2.685 2.722H2.62c-1.481 0-2.682-1.22-2.682-2.722s1.201-2.722 2.682-2.722h122.695c1.484 0 2.685 1.22 2.685 2.722z" fill="#757f3f"/><g><path d="M76.46 67.36L50.719 35.829a11.977 11.977 0 0 0-3.271-2.789c-1.985-1.152-4.323.811-3.531 2.965l7.703 20.954L76.46 67.36z" fill="#0f6da0"/><circle cx="52.866" cy="76.094" r="3.499" fill="#78a3ad"/><circle cx="95.569" cy="84.861" r="3.501" fill="#78a3ad"/><path d="M109.626 73.935s-2.697 3.131-9.344-.274c-1.114-.469-2.763 3.323-2.057 3.987.867.815 14.044 6.644 17.097 3.107-1.325-3.015-5.696-6.82-5.696-6.82z" fill="#0f6da0"/><path d="M9.218 34.222c-.125-1.103.964-1.953 2.019-1.608 13.636 4.452 88.108 28.763 95.614 31.13 8.267 2.606 9.472 9.782 9.802 12.416.33 2.635 2.787 3.348 2.388 5.767-.399 2.419-4.396 6.226-20.869.731-17.675-5.896-54.07-17.99-61.376-20.629-6.951-2.511-25.89-12.933-27.578-27.807z" fill="#48c0e5"/><path d="M73.329 74.149a.99.99 0 0 0 .922-.742c.359-1.442.687-4.858-2.857-8.168-3.741-3.496-18.615-6.701-25.111-8.286-.977-.238-1.835.678-1.542 1.64a2.694 2.694 0 0 1-1.782 3.361l-23.912 7.399a2 2 0 0 0-.677 3.339l.983.919a10 10 0 0 0 7.607 2.663l46.369-2.125z" fill="#0f6da0"/><path d="M18.936 41.977c-2.375-.942-5.294-2.179-6.839-2.725a2.053 2.053 0 0 0-1.172-.059L4.68 43.149c-1.585.888-.936 3.304.88 3.278l13.807-1.639c1.529-.17 1.692-1.968-.431-2.811z" fill="#0f6da0"/><path d="M26.966 38.369c.685-1.242-4.137-5.042-6.337-10.113-2.864-6.602-4.204-10.593-5.466-13.867-.696-1.806-2.99-1.648-3.227.43l-2.73 18.994a.968.968 0 0 0 .761 1.075s10.823 2.892 16.999 3.481z" fill="#0f6da0"/><path d="M116.879 77.094s-3.228.693-8.248-.684c-1.203-.33-1.898-1.591-1.505-2.775l.002-.005a2.156 2.156 0 0 1 2.394-1.45c.885.145 1.912.296 2.63.348 1.852.133 3.669-.11 3.669-.11s.583 1.872 1.058 4.676z" fill="#0f6da0"/></g><g id="_x37_Apf3q.tif"/></svg>