<svg id="图层_1" xmlns="http://www.w3.org/2000/svg" xmlns:xlink="http://www.w3.org/1999/xlink" viewBox="0 0 128 128"><path d="M84.684 42.26l-40.335-5.464a11.998 11.998 0 0 0-4.294.195c-2.237.513-2.604 3.544-.555 4.577l19.935 10.051 25.249-9.359z" fill="#0f6da0"/><path d="M76.908 64.75a3.5 3.5 0 1 1 0 0z" fill="#78a3ad"/><circle cx="110.596" cy="42" r="3.501" fill="#78a3ad"/><path d="M113.406 24.419s.167 4.129-7.014 6.179c-1.134.418.25 4.314 1.219 4.317 1.19.003 14.797-4.734 14.613-9.402-3.026-1.298-8.818-1.094-8.818-1.094z" fill="#0f6da0"/><path d="M128 117.22c0 1.502-1.201 2.722-2.685 2.722H2.62c-1.481 0-2.682-1.22-2.682-2.722s1.201-2.722 2.682-2.722h122.695c1.484 0 2.685 1.22 2.685 2.722z" fill="#757f3f"/><path d="M12.929 63.956c-.844-.72-.629-2.085.377-2.553 13.003-6.057 84.015-39.139 91.115-42.535 7.82-3.74 13.599.68 15.639 2.38 2.04 1.7 4.323.544 5.683 2.584 1.36 2.04 1.039 7.551-14.749 14.782-16.94 7.759-51.79 23.772-58.929 26.832-6.794 2.91-27.748 8.225-39.136-1.49z" fill="#48c0e5"/><path d="M87.032 49.358a.99.99 0 0 0 .167-1.172c-.722-1.299-2.815-4.018-7.664-4.018-5.12 0-18.176 7.814-24.005 11.09-.876.493-.878 1.749-.007 2.251a2.696 2.696 0 0 1 .993 3.673l-12.42 21.732c-.672 1.33.295 2.902 1.785 2.902h1.346a9.998 9.998 0 0 0 7.376-3.248l32.429-33.21z" fill="#0f6da0"/><path d="M24.625 62.579c-2.257 1.197-5.091 2.619-6.508 3.442a2.061 2.061 0 0 0-.805.855l-1.811 6.659c-.351 1.782 1.909 2.854 3.067 1.455l8.476-10.917c.862-1.276-.401-2.565-2.419-1.494z" fill="#0f6da0"/><path d="M28.729 54.869c-.347-1.375-6.465-.859-11.535-3.062-6.6-2.868-10.304-4.87-13.461-6.4-1.741-.844-3.309.838-2.064 2.517l10.972 15.742a.968.968 0 0 0 1.29.266s9.882-5.277 14.798-9.063z" fill="#0f6da0"/><g id="CKgxju.tif"/><path d="M120.863 21.776s-1.886 2.71-6.494 5.132c-1.104.58-2.473.134-2.994-1l-.002-.005a2.155 2.155 0 0 1 .759-2.694c.746-.498 1.6-1.089 2.159-1.541 1.444-1.167 2.606-2.586 2.606-2.586s1.704.97 3.966 2.694z" fill="#0f6da0"/></svg>