<svg id="レイヤー_1" xmlns="http://www.w3.org/2000/svg" viewBox="0 0 128 128"><g><g><path d="M106 64.046c0-1.929-1.008-3.771-2.825-5.466V24.085c1.817-1.695 2.825-3.537 2.825-5.466 0-8.32-18.551-15.064-41.435-15.064S23.13 10.299 23.13 18.619c0 1.929 1.008 3.771 2.825 5.466V58.58c-1.817 1.695-2.825 3.537-2.825 5.466 0 1.929 1.008 3.771 2.825 5.466v34.497c-1.817 1.695-2.825 3.538-2.825 5.466 0 8.32 18.551 15.064 41.435 15.064S106 117.795 106 109.476c0-1.929-1.008-3.771-2.825-5.466V69.513c1.817-1.696 2.825-3.538 2.825-5.467z" fill-rule="evenodd" clip-rule="evenodd" fill="#78a3ad"/></g><g><path d="M106 64.046c0-1.929-1.008-3.771-2.825-5.466V24.085c1.817-1.695 2.825-3.537 2.825-5.466 0-8.32-18.551-15.064-41.435-15.064S23.13 10.299 23.13 18.619c0 1.929 1.008 3.771 2.825 5.466V58.58c-1.817 1.695-2.825 3.537-2.825 5.466 0 1.929 1.008 3.771 2.825 5.466v34.497c-1.817 1.695-2.825 3.538-2.825 5.466 0 8.32 18.551 15.064 41.435 15.064S106 117.795 106 109.476c0-1.929-1.008-3.771-2.825-5.466V69.513c1.817-1.696 2.825-3.538 2.825-5.467z" fill="none" stroke="#78a3ad" stroke-width="6" stroke-miterlimit="10"/></g></g><g><g><path d="M64.565 30.813c18.029 0 33.194-4.99 37.665-11.768-6.462 5.536-20.89 9.393-37.665 9.393S33.362 24.581 26.9 19.045c4.471 6.779 19.636 11.768 37.665 11.768zM26.9 62.942c4.471 6.777 19.635 11.768 37.665 11.768 18.029 0 33.194-4.99 37.665-11.768-6.462 5.536-20.89 9.393-37.665 9.393S33.362 68.478 26.9 62.942zm0 46.019c4.471 6.777 19.635 11.767 37.665 11.767 18.029 0 33.194-4.99 37.665-11.767-6.462 5.536-20.89 9.393-37.665 9.393s-31.203-3.857-37.665-9.393z" fill-rule="evenodd" clip-rule="evenodd" fill="#fff"/></g><g><path d="M64.565 30.813c18.029 0 33.194-4.99 37.665-11.768-6.462 5.536-20.89 9.393-37.665 9.393S33.362 24.581 26.9 19.045c4.471 6.779 19.636 11.768 37.665 11.768zM26.9 62.942c4.471 6.777 19.635 11.768 37.665 11.768 18.029 0 33.194-4.99 37.665-11.768-6.462 5.536-20.89 9.393-37.665 9.393S33.362 68.478 26.9 62.942zm0 46.019c4.471 6.777 19.635 11.767 37.665 11.767 18.029 0 33.194-4.99 37.665-11.767-6.462 5.536-20.89 9.393-37.665 9.393s-31.203-3.857-37.665-9.393z" fill="none" stroke="#fff" stroke-width="3" stroke-linejoin="round" stroke-miterlimit="10"/></g></g><path d="M45.996 12C50.417 12 54 13.476 54 15.295s-3.583 3.295-8.004 3.295-8.004-1.476-8.004-3.295S41.575 12 45.996 12z" fill-rule="evenodd" clip-rule="evenodd" fill="#2f2f2f"/></svg>