<svg xmlns="http://www.w3.org/2000/svg" xmlns:xlink="http://www.w3.org/1999/xlink" viewBox="0 0 128 128"><g id="レイヤー_1"><g><defs><path id="SVGID_1_" d="M127.992 115.907c0 6.65-5.441 12.093-12.102 12.093H12.094C5.443 128 0 122.558 0 115.907V12.109C0 5.45 5.443.008 12.094.008h103.797c6.66 0 12.102 5.442 12.102 12.102v103.797z"/></defs><clipPath id="SVGID_2_"><use xlink:href="#SVGID_1_" overflow="visible"/></clipPath><g clip-path="url(#SVGID_2_)"><path d="M70.352 65.906c-1.433 13.071-6.429 23.478-33.783 23.241-27.354-.235-48.366-11.021-46.933-24.093 1.433-13.071 42.02-23.242 52.125-23.242 9.901 0 30.024 11.022 28.591 24.094z" fill="#78a3ad"/><path d="M69.215 62.383C73.723 75.399 55.297 86.55 28.058 87.29c-27.241.739-55.014-9.212-59.523-22.229-4.508-13.016 27.994-24.907 43.196-24.907 9.593 0 52.976 9.212 57.484 22.229z" fill="#757f3f"/><path d="M57.804 65.906c1.434 13.071 6.43 23.478 33.783 23.241 27.354-.235 48.367-11.022 46.935-24.093-1.434-13.071-42.02-23.242-52.124-23.242-9.904 0-30.026 11.022-28.594 24.094z" fill="#78a3ad"/><path d="M58.942 62.383C54.434 75.399 72.859 86.55 100.098 87.29c27.241.739 55.014-9.212 59.524-22.229 4.508-13.016-27.995-24.907-43.197-24.907-9.591 0-52.974 9.212-57.483 22.229z" fill="#757f3f"/><path d="M128 53.833s8.596 76.976-6.834 86.667c-15.428 9.691-124.325-.288-135.833-26C-26.173 88.788 0 53.177 0 53.177l128 .656z" fill="#bdcf46"/><g><path d="M14.094 127.738h100.797c.499 0 .989-.047 1.474-.118H12.622c.484.071.973.118 1.472.118z" fill="#2f2f2f"/><path fill="#78a3ad" d="M116.364 128.621H5.622L61 53.111h7l54.469 75.637-109.847-1.127"/></g><g><path fill="none" d="M67.398 62.491l-1.169-3.54-2.288-.003-1.17.003-1.169 3.54 2.371.003z"/><path fill="none" d="M63.691 100.101l-14.517.008-4.378 13.25 18.895.012 20.512-.012-4.377-13.249z"/><path fill="none" d="M76.615 90.391l-3.639-11.017-9.051-.005-7.901.005-3.64 11.017 11.307.007z"/><path fill="none" d="M70.931 73.183l-2.206-6.677-4.752-.004-3.698.004-2.206 6.677 5.856.004z"/><path fill="#fff" d="M49.174 100.109l-5.059.003-5.603 13.244 6.284.003z"/><path fill="#fff" d="M62.771 58.951l-1.242.001-1.497 3.538 1.57.001z"/><path fill="#fff" d="M56.024 79.374l-3.136.002-4.659 11.013 4.155.002z"/><path fill="#fff" d="M64.7 53.111H64l-1.315 3.108.988.001z"/><path fill="#fff" d="M60.275 66.506l-1.942.001-2.824 6.675 2.56.001z"/><path fill="#fff" d="M65 53.111h-.7l1.027 3.109.987-.001z"/><path fill="#fff" d="M84.203 113.359l6.285-.004-5.603-13.243-5.059-.002z"/><path fill="#fff" d="M70.931 73.183l2.56-.001-2.824-6.675-1.942-.001z"/><path fill="#fff" d="M76.615 90.391l4.156-.002-4.659-11.013-3.136-.002z"/><path fill="#fff" d="M67.398 62.491l1.57-.001-1.497-3.538-1.242-.001z"/><g><path d="M20.657 113.346c-.193 0-.371.022-.538.055-2.237.031-3.191.507-7.631 7.356-4.344 6.701-2.625 7.353 2.778 7.353l17.007-.009 6.238-14.744-17.854-.011z" fill="#78a3ad"/><path fill="#78a3ad" d="M63.691 113.371l-18.895-.012-4.868 14.737 23.763-.014 25.381.014-4.869-14.737z"/><path d="M115.895 120.756c-4.439-6.849-5.394-7.325-7.631-7.356a2.744 2.744 0 0 0-.538-.055l-17.238.01 6.238 14.745 16.391.009c5.403 0 7.122-.652 2.778-7.353z" fill="#78a3ad"/><path d="M95.945 100.118c3.563 0 4.697-.43 1.833-4.849-2.928-4.517-3.558-4.829-5.033-4.85a1.659 1.659 0 0 0-.354-.036l-11.62.006 4.114 9.724 11.06.005z" fill="#78a3ad"/><path d="M35.993 90.382c-.128 0-.243.013-.354.036-1.475.022-2.104.334-5.033 4.85-2.864 4.42-1.73 4.849 1.833 4.849l11.677-.006 4.113-9.724-12.236-.005z" fill="#78a3ad"/><path fill="#78a3ad" d="M79.826 100.11l-3.211-9.719-12.924.007-11.307-.007-3.21 9.718 14.517-.008z"/><path d="M83.439 79.38c2.198 0 2.896-.274 1.129-3.089-1.806-2.877-2.195-3.076-3.104-3.09a1.01 1.01 0 0 0-.219-.022l-7.754.004 2.621 6.194 7.327.003z" fill="#78a3ad"/><path d="M47.605 73.178a1.01 1.01 0 0 0-.219.022c-.91.015-1.298.213-3.104 3.09-1.767 2.816-1.068 3.089 1.129 3.089l7.477-.004 2.621-6.194-7.904-.003z" fill="#78a3ad"/><path fill="#78a3ad" d="M72.976 79.374l-2.045-6.191-7.006.004-5.856-.004-2.045 6.191 7.901-.005z"/><path d="M54.911 62.487a.613.613 0 0 0-.132.015c-.55.008-.784.138-1.874 2.004-1.067 1.826-.646 2.003.681 2.003l4.746-.003 1.7-4.017-5.121-.002z" fill="#78a3ad"/><path d="M75.359 66.51c1.328 0 1.749-.177.681-2.003-1.09-1.866-1.324-1.997-1.873-2.004a.606.606 0 0 0-.132-.015l-5.067.003 1.7 4.017 4.691.002z" fill="#78a3ad"/><path fill="#78a3ad" d="M68.725 66.506l-1.327-4.015-3.425.003-2.371-.003-1.327 4.015 3.698-.004z"/><path d="M58.971 56.216a.35.35 0 0 0-.083.01c-.347.006-.494.094-1.182 1.364-.672 1.242-.406 1.363.43 1.363l3.393-.002 1.156-2.733-3.714-.002z" fill="#78a3ad"/><path d="M70.747 58.954c.836 0 1.103-.122.43-1.363-.688-1.27-.835-1.358-1.182-1.364a.365.365 0 0 0-.084-.01l-3.598.002 1.156 2.733 3.278.002z" fill="#78a3ad"/><path fill="#78a3ad" d="M63.941 58.948l2.288.003-.902-2.731-1.386.001-.268-.001-.902 2.731z"/><path fill="#fff" d="M38.512 113.356L32.274 128.1l7.654-.004 4.868-14.737z"/><path fill="#78a3ad" d="M52.384 90.391l-4.155-.002-4.114 9.723 5.059-.003z"/><path fill="#78a3ad" d="M58.069 73.183l-2.56-.001-2.621 6.194 3.136-.002z"/><path fill="#78a3ad" d="M61.602 62.491l-1.57-.001-1.699 4.017 1.942-.001z"/><path fill="#78a3ad" d="M63.673 56.22l-.988-.001-1.156 2.733 1.242-.001z"/><path fill="#fff" d="M84.203 113.359l4.869 14.737 7.654.005-6.238-14.746z"/><path fill="#78a3ad" d="M79.826 100.11l5.059.002-4.114-9.723-4.156.002z"/><path fill="#78a3ad" d="M72.976 79.374l3.136.002-2.621-6.194-2.56.001z"/><path fill="#78a3ad" d="M68.725 66.506l1.942.001-1.699-4.017-1.57.001z"/><path fill="#78a3ad" d="M67.471 58.952l-1.157-2.733-.987.001.902 2.731z"/></g></g></g></g><g><path d="M111.551 18.854c0 .759-.616 1.375-1.375 1.375h-90a1.376 1.376 0 0 1 0-2.75h90c.759 0 1.375.615 1.375 1.375z" fill="#78a3ad" stroke="#78a3ad" stroke-miterlimit="10"/><path d="M111.551 33.854c0 .759-.616 1.375-1.375 1.375h-90a1.376 1.376 0 0 1 0-2.75h90c.759 0 1.375.615 1.375 1.375z" fill="#78a3ad" stroke="#78a3ad" stroke-miterlimit="10"/><path d="M99.704 34.499a5.669 5.669 0 0 1-5.669 5.669H35.317a5.669 5.669 0 0 1-5.669-5.669v-16.54a5.669 5.669 0 0 1 5.669-5.669h58.718a5.669 5.669 0 0 1 5.669 5.669v16.54z" fill="#006ca2"/><path d="M35.317 37.333a2.838 2.838 0 0 1-2.835-2.835v-16.54a2.838 2.838 0 0 1 2.835-2.835h58.718a2.838 2.838 0 0 1 2.834 2.835v16.54a2.838 2.838 0 0 1-2.834 2.835H35.317z" fill="#40c0e7"/><path d="M23.176 73.039a1.376 1.376 0 0 1-1.375-1.375v-52a1.376 1.376 0 0 1 2.75 0v52c0 .759-.616 1.375-1.375 1.375z" fill="#78a3ad" stroke="#78a3ad" stroke-miterlimit="10"/><path d="M106.125 73.039a1.376 1.376 0 0 1-1.375-1.375v-52a1.376 1.376 0 0 1 2.75 0v52c0 .759-.616 1.375-1.375 1.375z" fill="#78a3ad"/><path d="M42.75 23.72c0 .626-.508 1.134-1.134 1.134h-3.732a1.134 1.134 0 0 1-1.134-1.134v-3.732c0-.626.508-1.134 1.134-1.134h3.732c.626 0 1.134.508 1.134 1.134v3.732z" fill="#fff"/><path d="M52.833 23.72c0 .626-.508 1.134-1.134 1.134h-3.732a1.134 1.134 0 0 1-1.134-1.134v-3.732c0-.626.508-1.134 1.134-1.134H51.7c.626 0 1.134.508 1.134 1.134v3.732z" fill="#fff"/><path d="M62.917 23.72c0 .626-.508 1.134-1.134 1.134H58.05a1.134 1.134 0 0 1-1.134-1.134v-3.732c0-.626.508-1.134 1.134-1.134h3.732c.626 0 1.134.508 1.134 1.134v3.732z" fill="#fff"/><path d="M73 23.72c0 .626-.508 1.134-1.134 1.134h-3.732A1.134 1.134 0 0 1 67 23.72v-3.732c0-.626.508-1.134 1.134-1.134h3.732c.626 0 1.134.508 1.134 1.134v3.732z" fill="#fff"/><path d="M85 32.72c0 .626-.508 1.134-1.134 1.134h-7.732A1.134 1.134 0 0 1 75 32.72v-.732c0-.626.508-1.134 1.134-1.134h7.732c.626 0 1.134.508 1.134 1.134v.732z" fill="#fff"/><path d="M92.062 32.72c0 .626-.508 1.134-1.134 1.134h-1.732a1.134 1.134 0 0 1-1.134-1.134v-.732c0-.626.508-1.134 1.134-1.134h1.732c.626 0 1.134.508 1.134 1.134v.732z" fill="#fff"/></g></g></svg>