<svg id="レイヤー_1" xmlns="http://www.w3.org/2000/svg" xmlns:xlink="http://www.w3.org/1999/xlink" viewBox="0 0 128 128"><circle cx="16.283" cy="107.129" r="13.972" fill="#2f2f2f"/><circle cx="16.283" cy="107.129" r="7.748" fill="#65878d"/><circle cx="111.361" cy="107.129" r="13.972" fill="#2f2f2f"/><circle cx="111.361" cy="107.129" r="7.748" fill="#65878d"/><g id="MibTcH.tif"/><path d="M76.926 98.877H39.453a2 2 0 0 0-2 2v2.22a2 2 0 0 0 2 2h37.473a2 2 0 0 0 2-2v-2.22a2 2 0 0 0-2-2z" fill="#ed6c30"/><g fill="#fcc21b"><path d="M36.6 110.23c-1.704 0-3.09-1.288-3.09-2.872s1.386-2.872 3.09-2.872h73.856c1.704 0 3.09 1.289 3.09 2.872s-1.386 2.872-3.09 2.872H36.6z"/><path d="M110.456 104.986c1.425 0 2.59 1.067 2.59 2.372s-1.166 2.372-2.59 2.372H36.6c-1.425 0-2.59-1.067-2.59-2.372s1.166-2.372 2.59-2.372h73.856m0-1H36.6c-1.98 0-3.59 1.513-3.59 3.372s1.611 3.372 3.59 3.372h73.856c1.98 0 3.59-1.513 3.59-3.372s-1.61-3.372-3.59-3.372z"/></g><path d="M18.71 77.001l-4.94 29.55a2.378 2.378 0 0 0 1.948 2.73 2.378 2.378 0 0 0 2.73-1.948l4.945-29.579-4.683-.753z" fill="#2f2f2f"/><path d="M34.705 11.517l-8.558 51.195-4.713-.578 8.592-51.399a2.378 2.378 0 0 1 2.73-1.948 2.379 2.379 0 0 1 1.949 2.73z" fill="#2f2f2f"/><g fill="#fcc21b"><path d="M22.994 89.251c-.137 0-.275-.011-.415-.035l-6.582-1.1a2.504 2.504 0 0 1-2.054-2.877l5.912-35.363a2.491 2.491 0 0 1 2.878-2.053l6.582 1.1c.659.11 1.235.47 1.623 1.014.388.543.542 1.206.431 1.864l-5.912 35.363a2.49 2.49 0 0 1-2.463 2.087z"/><path d="M22.319 48.288c.11 0 .22.009.332.028l6.582 1.1a2 2 0 0 1 1.643 2.302l-5.911 35.363a2 2 0 0 1-2.302 1.642l-6.582-1.1a2 2 0 0 1-1.643-2.302l5.911-35.363a2 2 0 0 1 1.97-1.67m0-1a2.989 2.989 0 0 0-2.956 2.505l-5.911 35.363a3.003 3.003 0 0 0 2.464 3.453l6.582 1.1a2.989 2.989 0 0 0 3.453-2.464l5.911-35.363a3.003 3.003 0 0 0-2.464-3.453l-6.582-1.1a3.086 3.086 0 0 0-.497-.041z"/></g><g fill="#fcc21b"><path d="M36.729 110.23a3.191 3.191 0 0 1-3.188-3.188c0-.062.007-.121.015-.18-.133-9.284-7.199-16.86-16.432-17.625l-.069-.005a3.191 3.191 0 0 1-3.16-3.188 3.193 3.193 0 0 1 2.954-3.18v-.019l.515.012c12.667.896 22.59 11.558 22.59 24.272v.5h-.097a3.169 3.169 0 0 1-3.128 2.601z"/><path d="M17.328 83.355c12.366.876 22.125 11.185 22.125 23.773h-.045a2.682 2.682 0 0 1-2.679 2.601 2.688 2.688 0 0 1-2.688-2.688c0-.065.015-.126.019-.19-.142-9.544-7.518-17.336-16.895-18.113v-.016c-.028.001-.054.008-.083.008a2.688 2.688 0 0 1 0-5.376c.084 0 .163.017.245.025l.001-.024m-.968-1.071l-.004.143a3.694 3.694 0 0 0-2.962 3.616 3.694 3.694 0 0 0 2.744 3.566l-.001.032.255.025c.21.04.426.062.647.064l.043.004c8.955.742 15.813 8.076 15.977 17.071a1.765 1.765 0 0 0-.018.236 3.692 3.692 0 0 0 3.688 3.688 3.665 3.665 0 0 0 3.52-2.601h.159l.045-1c0-12.975-10.127-23.855-23.055-24.771l-1.038-.073z"/></g><circle cx="32.281" cy="11.566" r="6.111" fill="#fcc21b" stroke="#fcc21b" stroke-width="2" stroke-miterlimit="10"/><circle cx="32.281" cy="11.566" r="2.812" fill="#2f2f2f"/><path d="M122.428 90.135c.808-1.812.057-3.962-1.634-4.802-2.891-1.437-7.126-1.846-10.539-1.755-12.498.334-22.208 10.328-22.208 23.022v1.014H94.797V106.6c0-8.795 6.941-15.602 15.456-15.95 2.793-.114 5.355.136 8.042.886 2.185.609 3.355.341 4.133-1.401z" fill="#fcc21b"/></svg>