<svg id="レイヤー_1" xmlns="http://www.w3.org/2000/svg" viewBox="0 0 128 128"><path d="M115.004 77.332l-44.615-23.3-49.591 1.171c-1.578.905-1.286 2.714-2.221 2.746-.053.002-4.197 2.172-6.091 2.019-2.995-.242-5.409-.345-9.093-.363-2.013-.01-2.811 2.578-1.15 3.716 13.384 9.171 23.809 22.177 31.408 36.847.173.3.595.494 1.092.619h79.056c.489-.198.933-.512 1.083-.709 2.421-3.182 4.905-11.182 7.165-14.205.844-1.129.872-2.672-.014-3.769-1.165-1.442-4.179-2.457-6.753-4.198-2.384-1.613-.276-.574-.276-.574z" fill="#006ca2"/><path d="M118.847 79.048l-3.514-1.715c.043-2.566.275-6.335.177-9.255-.066-1.961-7.181-5.863-9.058-7.242-3.45-2.534-12.894-9.444-12.894-9.444s-.328-4.355-.661-7.848c-.109-1.144-2.444-1.924-3.856-1.857-.898.043-1.125.812-1.125.812l-.605 5.249s-9.907-6.286-14.54-9.304c-5.801-3.778-8.551-4.487-15.534-4.617a20.119 20.119 0 0 1-.004-1.809l.012-.25c.07-1.185-1.254-2.09-1.254-2.09s-7.247-4.46-9.964-4.878c-2.718-.418-2.994 2.927-2.994 2.927v6.121c-3.807.067-7.611.204-11.39.476-1.565.113-4.21.366-4.209 3.586 0 1.021.245 6.097.272 7.216.013.573.569 1.169 1.274 1.623-.635.368-1.21.749-1.944 1.286-1.406 1.028-13.204 11.162-14.549 11.933 0 0 4.444-.104 10.978.162 4.364.177 27.312.708 37.718 1.131 5.174.21 9.51 2.241 9.51 2.241l51.68 19.132c-.001 0 .099-1.502-3.526-3.586z" fill="#78a3ad"/><path d="M124.833 103.849H8.353a2.374 2.374 0 0 1-2.367-2.367 2.374 2.374 0 0 1 2.367-2.367h116.481a2.374 2.374 0 0 1 2.367 2.367 2.375 2.375 0 0 1-2.368 2.367z" fill="#40c0e7"/><path d="M55.153 53.995c1.514-1.953 2.639-3.661 2.639-3.661s.941-1.181-2.077-1.181c-2.54 0-20.839.039-20.839.039s-1.14-.249-2.938.839c0 0-2.33 1.859-4.188 3.094-.943.626-1.356 2-.031 2 6.096 0 20.397-.088 24.323 0 1.595.036 2.355-.156 3.111-1.13z" fill="#fff"/><path d="M32.457 44.158h5.99c.688 0 1.245-.557 1.245-1.245v-4.859c0-.688-.557-1.245-1.245-1.245h-5.99c-.688 0-1.245.557-1.245 1.245v4.859a1.244 1.244 0 0 0 1.245 1.245z" fill="#fff"/><path d="M43.114 42.852c0 .688.558 1.245 1.245 1.245h5.99c.688 0 1.245-.557 1.245-1.245v-4.859c0-.688-.557-1.245-1.245-1.245h-5.99c-.688 0-1.245.557-1.245 1.245v4.859z" fill="#fff"/><path d="M55.017 42.792c0 .688.558 1.245 1.245 1.245h5.99c.688 0 1.245-.557 1.245-1.245v-4.859c0-.688-.557-1.245-1.245-1.245h-5.99c-.688 0-1.245.557-1.245 1.245v4.859z" fill="#fff"/><path fill="#fff" d="M103.812 67.542L68.641 49.646l-.016 3.708 35.172 16.417z"/><path fill="#fff" d="M103.917 71.521L68.578 55.854v3.625l35.339 13.438z"/><path d="M103.589 65.793a.616.616 0 0 0 .928-.531v-2.71a.614.614 0 0 0-.279-.515l-.916-.6a.616.616 0 0 0-.953.515v2.772c0 .218.116.42.304.531l.916.538z" fill="#fff"/><path d="M84.907 49.385a.616.616 0 0 0-.953.515v4.01c0 .218.116.42.304.531l2.948 1.731a.616.616 0 0 0 .928-.531V51.83a.614.614 0 0 0-.279-.515l-2.948-1.93z" fill="#fff"/><path d="M96.594 61.333c0 .218.116.42.304.531l2.039 1.197a.616.616 0 0 0 .928-.531v-3.023a.614.614 0 0 0-.279-.515l-2.039-1.335a.616.616 0 0 0-.953.515v3.161z" fill="#fff"/><path d="M90.637 54.274v3.56c0 .218.116.42.304.531l2.221 1.304a.616.616 0 0 0 .928-.531v-3.411a.614.614 0 0 0-.279-.515l-2.221-1.454a.617.617 0 0 0-.953.516z" fill="#fff"/><path d="M77.331 50.021c0 .218.116.42.304.531l2.887 1.696a.616.616 0 0 0 .928-.531v-4.261a.614.614 0 0 0-.279-.515l-2.887-1.89a.616.616 0 0 0-.953.515v4.455z" fill="#fff"/><path d="M68.77 44.994c0 .218.116.42.304.531l4.826 2.834a.616.616 0 0 0 .928-.531v-4.706a.614.614 0 0 0-.279-.515l-4.826-3.158a.616.616 0 0 0-.953.515v5.03z" fill="#fff"/><path d="M57.258 33.796l-.007-.129a18.148 18.148 0 0 1-.022-.75c-2.291-1.061-7.768-3.498-9.103-3.638-1.572-.165-4.579-.059-5.08-.04v4.605l14.212-.048z" fill="#ed6c30"/><path d="M48.227 28.315c1.555.163 7.06 2.642 9.02 3.542l.012-.25c.07-1.185-1.254-2.09-1.254-2.09s-7.247-4.46-9.964-4.878c-2.718-.418-2.994 2.927-2.994 2.927v.7c.256-.01 3.435-.135 5.18.049z" fill="#ed6c30"/><path d="M48.126 29.279c1.335.14 6.812 2.577 9.103 3.638-.003-.305.001-.667.018-1.059-1.96-.9-7.464-3.379-9.02-3.542-1.745-.184-4.924-.059-5.181-.05v.973c.5-.019 3.508-.126 5.08.04z" fill="#fff"/><path d="M70.365 73.091c-4.187-1.449-11.287-1.638-11.358-1.64l-39.192-.956c-1.38-.033-5.981-4.879-4.565-4.849l43.878.806c.323.008 7.958.213 12.873 1.914 10.564 3.658 45.906 16.149 46.27 16.259 1.322.398 1.728 1.437 1.603 1.978s-.963 1.367-2.541.98c-1.578-.387-36.309-10.801-46.968-14.492z" fill="#40c0e7"/><path d="M38.45 93.896a2.5 2.5 0 0 1-2.252-1.412C31.581 82.938 25.993 77.8 25.938 77.75a2.501 2.501 0 0 1-.175-3.529 2.497 2.497 0 0 1 3.526-.181c.256.231 4.734 5.443 9.805 15.93.601 1.243 1.335 3.247.092 3.848-.351.168-.372.078-.736.078z" fill="#40c0e7"/></svg>