<svg id="图层_1" xmlns="http://www.w3.org/2000/svg" xmlns:xlink="http://www.w3.org/1999/xlink" viewBox="0 0 128 128"><g><path d="M80.349 56.814l44.853 23.789a2 2 0 0 1 1.061 1.766v25.484c0 1.505-1.6 2.471-2.932 1.769l-42.776-22.54a2 2 0 0 1-1.067-1.83l.861-28.438z" fill="#006ca0"/><path d="M125.382 80.837L97.506 96.014l-11.18-5.891 28.863-14.844 10.192 5.419a.079.079 0 0 1 .001.139z" fill="#40c0e7"/><g><defs><path id="SVGID_1_" d="M80.349 56.814l44.853 23.789a2 2 0 0 1 1.061 1.766v25.484c0 1.505-1.6 2.471-2.932 1.769L80.663 87.138a2 2 0 0 1-1.054-1.999l.74-28.325z"/></defs><clipPath id="SVGID_2_"><use xlink:href="#SVGID_1_" overflow="visible"/></clipPath><g clip-path="url(#SVGID_2_)"><path transform="rotate(28.018 104.257 78.919)" fill="#b8e9f4" d="M77.904 77.934h52.714v2H77.904z"/></g><g clip-path="url(#SVGID_2_)"><path transform="rotate(27.773 103.447 89.322)" fill="#b8e9f4" d="M76.226 88.315h54.441v2H76.226z"/></g></g></g><g id="_x35_oLK8J.tif"/><g id="I8SnGU.tif"/><g><path d="M66.91 41.203l-16.609 9.563a4 4 0 0 0-2.022 3.158l-1.403 17.165a6.001 6.001 0 0 0 3.936 6.13l16.104 5.835a4 4 0 0 0 3.684-.503l16.102-10.946L66.91 41.203z" fill="#64878e"/><path d="M67.56 41.229a.997.997 0 0 0-1.366.914l-.321 18.814a4 4 0 0 0 2.567 3.997l17.503 6.671a.998.998 0 0 0 1.355-.986c-.236-4.355-1.111-16.741-3.554-20.372-2.15-3.195-12.464-7.546-16.184-9.038z" fill="#78a3ad"/><path d="M77.409 42.44s-8.784 4.072-7.768 13.689c.789 7.465 8.321 11.132 16.651 9.104L77.409 42.44z" fill="#294f6e"/><ellipse transform="rotate(-21.292 81.853 53.84)" cx="81.851" cy="53.838" rx="9.606" ry="12.23" fill="#006ca0"/><path d="M65.88 61.591L47.115 73.306s.481 2.624 2.967 3.587L68.44 64.954s-1.954-1.027-2.56-3.363z" fill="#78a3ad"/><path d="M75.502 46.275c-2.156 2.291-2.69 9.037.283 12.836 3.276 4.186 8.513 5.493 11.926 3.957 1.879-.845-2.861-2.027-7.042-7.68-3.627-4.904-2.713-11.722-5.167-9.113z" fill="#294f6e"/></g><g><path fill="#fff" d="M79.597 55.151l6.577-3.936"/><path d="M79.598 56.651a1.499 1.499 0 0 1-.771-2.787l6.577-3.936a1.502 1.502 0 0 1 1.541 2.575l-6.577 3.936a1.502 1.502 0 0 1-.77.212z" fill="#fcc21b"/></g><g><path d="M44.632 40.372a2.002 2.002 0 0 0-1.032-1.784L4.143 16.785c-1.333-.76-2.991.202-2.991 1.737v27.402c0 .749.419 1.436 1.085 1.779l39.054 20.086c1.318.678 2.89-.263 2.914-1.745l.427-25.672z" fill="#006ca0"/><path d="M1.152 40.833L25.561 28.62l11.382 6.29-28.16 16.16-6.545-3.366a2 2 0 0 1-1.085-1.779v-5.092z" fill="#40c0e7"/><path fill="#40c0e7" d="M44.652 43.75L21.998 57.867l6.549 3.368L44.455 51.07z"/><g><defs><path id="SVGID_3_" d="M44.632 40.372a2.002 2.002 0 0 0-1.032-1.784L4.143 16.785c-1.333-.76-2.991.202-2.991 1.737v27.402c0 .749.419 1.436 1.085 1.779l39.054 20.086c1.318.678 2.89-.263 2.914-1.745l.427-25.672z"/></defs><clipPath id="SVGID_4_"><use xlink:href="#SVGID_3_" overflow="visible"/></clipPath><g clip-path="url(#SVGID_4_)"><g><path fill="#b8e9f4" d="M44.962 49.942L-.336 24.873l.977-1.746 45.299 25.07z"/></g><g><path fill="#b8e9f4" d="M45.038 60.375L-1 35.833l.972-1.748 46.037 24.542z"/></g></g></g></g></svg>