<svg id="レイヤー_1" xmlns="http://www.w3.org/2000/svg" xmlns:xlink="http://www.w3.org/1999/xlink" viewBox="0 0 128 128"><path d="M109.351 59.135h8.845a3.545 3.545 0 1 1 0 7.09h-8.845v-7.09z" fill="#ea6c3a"/><g><path d="M29.644 25.254l-1.521 10.895c-.158 1.131-1.366 1.813-2.401 1.331A7.481 7.481 0 0 1 27.7 23.316c1.127-.18 2.102.808 1.944 1.938z" fill="#fac136"/></g><circle cx="19.419" cy="90.196" r="17.462" fill="#2f2f2f"/><circle cx="19.419" cy="90.196" r="9.684" fill="#65878d"/><circle cx="97.74" cy="90.196" r="17.462" fill="#2f2f2f"/><circle cx="97.74" cy="90.196" r="9.684" fill="#65878d"/><path d="M95.722 54.679c.079 0 .15.002.229.007 2.081.145 31.315 2.755 31.315 34.599a3.492 3.492 0 0 1-3.492 3.492H51.641a25.986 25.986 0 0 1-19.665-8.998L22.412 72.71a6.3 6.3 0 0 1-1.386-5.469v-.001a65.237 65.237 0 0 1 11.555-25.189l1.788-2.381h7.521l-7.033 28.92c.547 8.726 7.768 15.532 16.511 15.563l12.294.028c5.6.013 10.147-4.524 10.147-10.124 0-3.488-1.795-6.73-4.752-8.581l-5.909-3.7a4.278 4.278 0 0 1-2.008-3.626v-3.473h34.582z" fill="#47c0e5"/><g/><path d="M94.56 62.099l-.004-.001-.003.001-.027-.001v.006a1.438 1.438 0 0 0-1.412 1.436c0 .786.63 1.419 1.412 1.436v.008c12.258 0 22.195 9.937 22.195 22.195h.002a1.442 1.442 0 1 0 2.884 0c0-13.84-11.211-25.061-25.047-25.08z" fill="#bae9f3"/><path d="M66.16 58.523l-5.154-2.393a2.233 2.233 0 0 1-1.293-2.026 8.556 8.556 0 0 1 8.556-8.556h14.497c4.946 0 9.886-.33 14.788-.987 4.752-.361 8.807 3.398 8.807 8.163v3.434c0 1.147-.905 2.09-2.051 2.137l-30.764 1.267a12.827 12.827 0 0 1-7.386-1.039z" fill="#2f2f2f"/><path d="M109.659 27.379l-.13.192a16.04 16.04 0 0 0-2.76 8.997v2.037a2.14 2.14 0 0 0 1.531 2.051l1.245.369a2.139 2.139 0 0 0 2.654-1.429l3.017-9.931a2.138 2.138 0 0 0-1.495-2.688l-1.739-.464a2.137 2.137 0 0 0-2.323.866z" fill="#2f2f2f"/><path d="M115.493 30.026l.009.003c.572.181.897.783.735 1.361l-5.664 20.21a6.417 6.417 0 0 1-3.842 4.244l-2.502.978v-2.473l.628-.22a6.416 6.416 0 0 0 4.067-4.37l5.16-18.964c.166-.611.806-.96 1.409-.769z" fill="#2f2f2f"/><path d="M42.671 37.384l1.356-4.417a3.208 3.208 0 0 0-1.006-3.4l-4.209-3.528a10.699 10.699 0 0 0-5.963-2.46l-6.503-.554a1.07 1.07 0 0 0-1.064.623l-.802 1.762a19.255 19.255 0 0 0-1.691 9.129l.104 1.728c.031.507.413.922.916.994l4.323.621c3.42.491 5.493 4.038 4.241 7.259l8.598-1.698 1.7-6.059z" fill="#47c0e5"/><path d="M38.352 25.988s-1.759-.848-2.85 1.747c-1.026 2.443 1.145 4.598 1.145 4.598l7.533 2.453a2.585 2.585 0 1 0 1.988-4.753l-7.816-4.045z" fill="#2f2f2f"/><g id="U9n2uN.tif"/><path d="M3.01 83.735l4.481.041c10.3.094 20.341 3.369 28.846 9.41 1.386.984 3.252-.108 3.159-1.85-.12-2.243-.509-5.194-1.562-8.268-2.045-5.97-6.218-11.331-12.773-13.078-13.733-3.662-20.998 5.49-23.879 10.582-.789 1.394.172 3.149 1.728 3.163z" fill="#47c0e5"/><g id="MibTcH.tif"/><path d="M15 74.42s7.208-2.378 13.125 2.122c3.994 3.038 5.336 7.284 5.336 7.284" fill="none" stroke="#bae9f3" stroke-width="2.5" stroke-linecap="round" stroke-miterlimit="10"/></svg>