<svg id="レイヤー_1" xmlns="http://www.w3.org/2000/svg" xmlns:xlink="http://www.w3.org/1999/xlink" viewBox="0 0 128 128"><g/><g><defs/><clipPath id="SVGID_2_"><use xlink:href="#SVGID_1_" overflow="visible"/></clipPath><path transform="scale(-1) rotate(-88.321 -66.014 -78.04)" clip-path="url(#SVGID_2_)" fill="#fcc21b" d="M-154.269 55.813H2.689v16.592h-156.958z"/></g><g fill="#fcc21b"/><g id="C8xfe5.tif"/><g id="uA0NeV.tif"/><path d="M88.109 64.054L88.11 64h-.003c-.041-21.122-13.91-49.357-20.591-61.738-1.511-2.801-5.523-2.801-7.035 0C53.802 14.643 39.933 42.878 39.892 64h-.002l.001.054-.001.054h.003c.041 21.122 13.91 49.352 20.591 61.729 1.511 2.8 5.523 2.8 7.034 0 6.681-12.377 20.549-40.607 20.591-61.729h.003a.475.475 0 0 1-.003-.054z" fill="#fcc21b"/><path d="M84.138 64.054l.001-.045h-.002c-.026-13.105-6.423-29.488-12-41.287-3.25-6.876-13.025-6.876-16.275 0-5.577 11.799-11.974 28.182-12 41.287h-.002l.001.045-.001.045h.002c.026 13.105 6.424 29.485 12 41.282 3.25 6.875 13.025 6.875 16.275 0 5.577-11.797 11.974-28.177 12-41.282h.002c.001-.015-.001-.03-.001-.045z" fill="#865a3d"/><g><defs><path id="SVGID_3_" d="M84.138 64.054l.001-.045h-.002c-.026-13.105-6.423-29.488-12-41.287-3.25-6.876-13.025-6.876-16.275 0-5.577 11.799-11.974 28.182-12 41.287h-.002l.001.045-.001.045h.002c.026 13.105 6.424 29.485 12 41.282 3.25 6.875 13.025 6.875 16.275 0 5.577-11.797 11.974-28.177 12-41.282h.002c.001-.015-.001-.03-.001-.045z"/></defs><clipPath id="SVGID_4_"><use xlink:href="#SVGID_3_" overflow="visible"/></clipPath><g clip-path="url(#SVGID_4_)"><path fill="#ed6c30" d="M47.938 29.333h32.125v8.875H47.938z"/><path fill="#ed6c30" d="M47.938 90.667h32.125v8.875H47.938z"/><g fill="#865a3d"><path d="M43 52.75h42.75V54H43z"/><path d="M43 74h42.75v1.25H43z"/></g></g></g><g><path transform="rotate(43.181 64.117 64.338)" fill="#fcc21b" d="M61.441 31.429H66.8v65.833h-5.359z"/><path d="M111.307 11.297l2.281 2.14a5.918 5.918 0 0 1 .429 8.183l-11.279 13.06a23.672 23.672 0 0 1-12.405 7.549l-7.612 1.821 1.491-8.092a23.664 23.664 0 0 1 6.706-12.611l12.197-11.96a5.917 5.917 0 0 1 8.192-.09z" fill="#ed6c30"/><path d="M14.412 114.563l2.281 2.14a5.918 5.918 0 0 0 8.194-.092l12.316-12.087a23.669 23.669 0 0 0 6.744-12.86l1.334-7.712-7.981 2.003a23.678 23.678 0 0 0-12.159 7.494l-11.16 12.933a5.918 5.918 0 0 0 .431 8.181z" fill="#ed6c30"/><path fill="#ed6c30" d="M81.917 49.298l-3.908-3.667 6.585-7.51 4.218 4.094z"/><path fill="#ed6c30" d="M43.86 90.465l-4.527-4.042 7.008-7.042 3.908 3.667z"/><path fill="#ed6c30" d="M78.009 45.631l1.387-1.581 4.015 3.713-1.494 1.535z"/><path fill="#ed6c30" d="M64.698 59.814l3.849 3.73-4.148 4.42-3.953-3.618z"/><path fill="#ed6c30" d="M50.249 83.048l-1.537 1.785L44.73 81l1.611-1.619z"/></g><g id="M0j34g.tif"/></svg>