<svg xmlns="http://www.w3.org/2000/svg" viewBox="0 0 128 128"><g id="图层_2"><g><g><path d="M38.979 67.544c-1.457 0-1.427-1.603-1.427-1.603s-.113-10.358-.381-11.767c-.378-1.99-1.661-5.752-6.692-5.511-2.092.1-6.121.906-6.565 7.866-.096 1.498.183 16.417.286 18.69 0 0 .84 17.957 3.304 26.727.684 2.435 1.513 5.109 2.922 7.757 1.4 2.642 3.276 5.31 5.736 7.616 2.431 2.332 5.432 4.244 8.666 5.621 3.245 1.367 6.707 2.18 10.149 2.595.86.092 1.723.18 2.581.219l2.434.156c1.704.092 3.379.089 5.04.03a62.293 62.293 0 0 0 9.699-1.08c3.118-.613 6.092-1.475 8.822-2.556 2.73-1.081 5.199-2.417 7.307-3.894a27.195 27.195 0 0 0 5.216-4.644c1.4-1.53 2.312-3.103 3.03-4.367.678-1.298 1.105-2.352 1.342-3.089l.372-1.117c.528-1.213-8.048-22.589-8.048-22.589-.576 1.735-3.424 1.692-3.669-.115-.77-5.685-.815-19.399-.815-19.399-.316-5.819-14.455-7.972-14.455-7.972.02 2.026-2.598 2.406-2.751.32 0 0-14.282-3.709-14.347 8.671-.004.828-.243 1.717-1.376 1.717-.01 0-1.251.094-1.251-1.5 0-3.342-.408-10.426-.455-12.239-.109-4.149-2.009-7.844-6.273-7.893-3.892-.045-7.36 2.984-7.163 7.599l.159 14.356c.001 0-.023 1.395-1.397 1.395z" fill="#fac036"/></g><path d="M101.249 83.111c-1.665-5.652-3.757-8.14-8.72-10.443l-.112-8.334c-.25-4.833-3.333-11.417-8.833-27.25C80.306 27.649 76 14.833 76 14.833c-1.907-4.552-3.352-11.912-10.333-10.167-7.5 1.875-4.744 10.26-3.833 13.333 1.333 4.5 8.075 31.668 8.075 31.668s2.265 3.381 3.662 4.864c0 0 13.133-34.653 14.429-39.365 1.015-3.689 3.01-9.291-2.625-11.042-6.438-2-8.994 2.621-12.542 10.208 0 0-16.117 34.724-16.083 38.831l-.014 10.944c-.002.704-.091 1.715-1.376 1.717-1.345.003-1.251-1.654-1.251-1.654s-12.836 9.654-11.337 13.112l-1.711 1.027c-.713-1.326-15.37-.269-14.374 1.751l2.112 5.609s4.088 13.514 6.866 20.878l.092.279.013-.002.001.002h-.014l.183.445c.431 1.111.826 2.061 1.157 2.74.692 1.602.726 1.861 1.242 2.765 5.086 8.914 14.601 13.624 24.701 13.172 1.276-.057 24.899 1.316 35.901-16.074 1.682-2.659 3.348-6.675 3.495-15.516.056-3.324-.233-8.007-1.187-11.247z" fill="#fac036"/></g><path d="M65.253 31.086S69.819 43.898 72 53.346c.309 1.338-.305 1.838-.83.455-1.74-4.578-5.904-15.229-8.868-15.862l2.951-6.853z" fill="#e48c15"/><g><path d="M73.206 66.895s11.844 2.45 19.328 5.772l-.057-4.107s-7.897-3.146-15.45-4.212c-2.537-.358-5.857-1.115-8.354-1.005-4.25.187-9.972 1.491-13.603 5.925 0 0-3.613 5.674.899 11.136 0 0 1.362 1.95 5.979 3.028 0 0 2.336.585 4.807.661 3.88.12 6.027.267 8.42.844 0 0 6.593 1.559 7.309 5.811 0 0 .162 1.936-.899 4.326 0 0-.511 1.943.723 2.3.642.186 2.152-.292 3.033-1.208 0 0 1.06-.929 1.386-3.194 0 0 .893-3.408-2.496-6.778 0 0-2.321-2.51-5.585-3.48-3.475-1.033-4.426-1.493-10.117-1.795 0 0-5.828-.129-9.654-2.597 0 0-3.184-2.264-1.049-6.36-.002-.002 2.882-6.294 15.38-5.067z" fill="#e48c15"/></g><g fill="#e48c15"><path d="M53.688 53s1.539 1.823 3.051 0l-.003 23.755s.125 1.717-1.376 1.717-1.636-1.654-1.636-1.654L53.688 53z"/><path d="M37.338 56.5s1.316 2.004 2.996 0l.372 20.254s-.156 1.718-1.727 1.718-1.427-1.603-1.427-1.603L37.338 56.5z"/><path d="M53.724 76.819c.016 3.039-1.063 7.131-6.516 7.224-5.453-.094-6.519-4.25-6.503-7.289.005-1.025-3.146-.634-3.154.115-.024 2.321 1.056 9.794 9.587 9.794.024 0 .046-.003.07-.003.024 0 .046.003.07.003 8.531 0 9.482-7.587 9.458-9.908-.008-.749-3.017-.961-3.012.064z"/><path d="M37.551 73.899c.016 3.039-.921 7.131-6.374 7.224-5.453-.094-6.929-4.232-7.023-7.279.167 2.624.129 9.899 6.953 9.899.024 0 .046-.003.07-.003.024 0 .046.003.07.003 8.531 0 9.482-7.587 9.458-9.908-.008-.748-3.159-.961-3.154.064z"/></g></g></svg>