<svg id="レイヤー_1" xmlns="http://www.w3.org/2000/svg" viewBox="0 0 128 128"><g><path d="M64.009 9.472C1.488 9.472.014 79.551.014 93.417c0 13.88 28.651 25.111 63.995 25.111S128 107.297 128 93.417c0-13.866-1.475-83.945-63.991-83.945z" fill="#fcc21b"/></g><g><g><g><g/></g></g></g><path d="M92.315 84.53l-2.797 2.718c-1.251 1.231-.794 3.896 1.042 5.986l15.95 18.173c1.914 2.181 5.25 2.273 7.452.202l4.905-4.623c2.223-2.099 2.093-5.234-.305-7.001L98.708 85.337c-2.275-1.679-5.132-2.034-6.393-.807zm23.831 21.297l-3.457 3.267c-1.124 1.064-2.893 1.021-3.946-.077-1.054-1.107-1.061-2.797-.02-3.785l3.209-3.05c1.045-.991 2.87-1.014 4.072-.046 1.208.978 1.27 2.63.142 3.691z" fill="#2f2f2f"/><path fill="none" stroke="#2f2f2f" stroke-width="5" stroke-linecap="round" stroke-linejoin="round" stroke-miterlimit="10" d="M92.5 87.75H36.25"/><path fill="none" stroke="#2f2f2f" stroke-width="5" stroke-linecap="round" stroke-linejoin="round" stroke-miterlimit="10" d="M50.414 81.333V94"/><path fill="none" stroke="#2f2f2f" stroke-width="5" stroke-linecap="round" stroke-linejoin="round" stroke-miterlimit="10" d="M64.577 81.333V94"/><path fill="none" stroke="#2f2f2f" stroke-width="5" stroke-linecap="round" stroke-linejoin="round" stroke-miterlimit="10" d="M36.25 81.333V94"/><path fill="none" stroke="#2f2f2f" stroke-width="5" stroke-linecap="round" stroke-linejoin="round" stroke-miterlimit="10" d="M78.741 81.333V94"/><path fill="none" stroke="#2f2f2f" stroke-width="5" stroke-linecap="round" stroke-linejoin="round" stroke-miterlimit="10" d="M92.904 81.333v8.584"/><g fill="#2f2f2f"><path d="M42.002 68c-4.486.043-8.168-4.265-8.217-9.619-.048-5.374 3.554-9.747 8.035-9.79 4.484-.039 8.17 4.267 8.22 9.641.048 5.355-3.553 9.727-8.038 9.768z"/><path d="M86.114 67.999c4.482-.007 8.115-4.361 8.101-9.713-.012-5.373-3.662-9.705-8.144-9.694-4.493.009-8.131 4.361-8.122 9.732.016 5.356 3.675 9.686 8.165 9.675z"/></g></svg>