<svg id="レイヤー_1" xmlns="http://www.w3.org/2000/svg" viewBox="0 0 128 128"><g><g><path d="M90.09 57.693c1.457 0 1.427-1.603 1.427-1.603s.113-26.086.381-27.496c.378-1.99 1.661-5.752 6.692-5.511 2.092.1 6.121.906 6.565 7.866.096 1.498-.183 42.015-.286 44.288 0 0-.84 17.957-3.304 26.727-.684 2.435-1.513 5.109-2.922 7.757-1.4 2.642-3.276 5.31-5.736 7.616-2.431 2.332-5.432 4.244-8.666 5.621-3.245 1.367-6.706 2.18-10.149 2.595-.86.092-1.723.18-2.581.219l-2.434.156a56.198 56.198 0 0 1-5.04.03 62.293 62.293 0 0 1-9.699-1.08c-3.118-.613-6.008-1.717-8.822-2.556-4.853-1.447-9.448-4.738-12.671-7.572-7.25-6.375-10.897-16.365-10.897-16.365l-.873-3.683c-1.528-11.167-.98-33.202-.98-33.202-.167-7.5 3.963-10.67 6.5-11 7.313-.951 9.833 4.333 10 11l-.298 21.121c.576 1.735 3.424 1.692 3.669-.115.77-5.685.815-19.399.815-19.399.316-5.819 1.01-39.782 1.159-41.951.299-4.353 2.195-8.227 5.979-8.679 3.861-.462 6.938 1.545 7.387 6.453.122 1.335-.069 36.205-.069 36.205-.02 2.026 2.598 2.406 2.751.32 0 0 .511-43.091.495-45.077-.035-4.502 3.047-8.38 7.03-8.379 3.892.001 6.832 3.241 6.909 7.859.025 1.467-.152 32.018-.087 44.398.004.828.243 1.717 1.376 1.717.01 0 1.251.094 1.251-1.5 0-3.342.408-36.309.455-38.122.109-4.149 2.009-7.844 6.273-7.893 3.892-.045 7.36 2.984 7.163 7.599l-.208 40.24c-.002.001.071 1.396 1.445 1.396z" fill="#fac036"/></g></g><path d="M45.08 65s.75 2 3 2 3-2 3-2-1-4-3-4-3 4-3 4z" opacity=".5" fill="#e48c15"/><path d="M95.08 68s.75 2 3 2 3-2 3-2-1-4-3-4-3 4-3 4z" opacity=".5" fill="#e48c15"/><path d="M61.08 63.333s1 2.667 4 2.667 4-2.667 4-2.667S67.747 58 65.08 58s-4 5.333-4 5.333z" opacity=".5" fill="#e48c15"/><path d="M78.08 64.667S78.955 67 81.58 67s3.5-2.333 3.5-2.333S83.913 60 81.58 60s-3.5 4.667-3.5 4.667z" opacity=".5" fill="#e48c15"/><path d="M96.08 45s.75 1 3 1 3-1 3-1-1-2-3-2-3 2-3 2z" opacity=".3" fill="#e48c15"/><path d="M79.08 38s.75 1 3 1 3-1 3-1-1-2-3-2-3 2-3 2z" opacity=".3" fill="#e48c15"/><path d="M62.08 37s.75 1 3 1 3-1 3-1-1-2-3-2-3 2-3 2z" opacity=".3" fill="#e48c15"/><path d="M45.08 42s.75 1 3 1 3-1 3-1-1-2-3-2-3 2-3 2z" opacity=".3" fill="#e48c15"/></svg>