<svg id="Layer_1" xmlns="http://www.w3.org/2000/svg" viewBox="0 0 128 128"><path d="M31.292 93.072c-1.898 6.223 5.327 15.073 9.502 14.487 11.656-1.636 19.268-7.313 27.283-11.923 7.221-4.154 12.272-10.156 16.886-16.954.465-1.017 8.69-8.327 10.944-9.539 2.461-1.323 9.127-2.471 12.466-2.432 12.303-.947 13.661-16.278 13.637-22.809-.021-5.546-.743-12.2-2.862-17.452-3.544-8.784-15.543-5.494-24.798-5.166-12.639.448-26.539 2.873-39.091 4.98-15.88 2.667-37.122 8.199-41.597 11.629-4.281 3.282-6.388 8.161-7.165 13.389-.91 6.13-.425 12.455.118 18.596.467 5.284 1.321 12.34 2.629 17.496.92 3.627 2.571 6.911 6.422 7.958 4.343 1.182 11.476-.964 15.626-2.26" fill="#fac036"/><g><path d="M31.917 65.833c3.003-2.303 6.169-4.907 13.083-7.5 2.187-.821 6.583-.833 8.15 1.969.539.964 1.92 1.055 2.802.388a2 2 0 0 0 .388-2.802c-2.661-3.519-8.34-4.422-11.97-3.06-8.063 3.024-15.579 9.382-18.12 12.726-.668.88-2.047 3.024-1.167 3.692.362.275 4.334-3.496 6.834-5.413z" fill="#e48c15"/></g><path d="M39.84 81.643c9.17-6.611 12.104-10.836 12.952-13.216 1.876-5.269.293-9.626-1.375-11.76-5.868-7.505-14.184-6.971-10.064-8.23 3.064-.937 9.709 1.815 13.273 6.469 3.182 4.153 3.868 9.432 1.934 14.863-1.51 4.241-6.348 9.327-14.38 15.118-1.395 1.006-2.8 1.877-4.159 2.719-3.126 1.938-5.449 3.088-6.744 5.469-1.755.762-7.448 2.008-7.443 2.002 4.5-6.907 14.725-12.511 16.006-13.434z" fill="#e48c15"/></svg>