<svg id="レイヤー_1" xmlns="http://www.w3.org/2000/svg" xmlns:xlink="http://www.w3.org/1999/xlink" viewBox="0 0 128 128"><g><path d="M64 9.644C1.689 9.644.21 79.497.21 93.326c0 13.826 28.564 25.031 63.79 25.031 35.235 0 63.79-11.205 63.79-25.031 0-13.83-1.47-83.682-63.79-83.682z" fill="#fcc21b"/></g><g fill="#2f2f2f"><path d="M35.077 51.767c.04-.969.208-1.855.434-2.723a35.95 35.95 0 0 0 5.904-1.111c3.17-.846 5.511-2.322 7.349-3.933 2.007 1.891 3.262 4.836 3.159 8.152-.171 5.569-4.062 10.014-8.716 9.911-4.659-.108-8.291-4.732-8.13-10.296z"/><path d="M92.923 51.767c-.04-.969-.208-1.855-.434-2.723a35.95 35.95 0 0 1-5.904-1.111c-3.17-.846-5.511-2.322-7.349-3.933-2.007 1.891-3.262 4.836-3.159 8.152.172 5.569 4.062 10.014 8.716 9.911 4.659-.108 8.291-4.732 8.13-10.296z"/></g><path d="M2 78s49.667-42.667 100-55c0 0-9.667-9.333-25-12 0 0-54-9.667-70 41 0 0-2.667 9-5 26z" fill="#fff" stroke="#78909c" stroke-width="3" stroke-linecap="round" stroke-linejoin="round" stroke-miterlimit="10"/><path d="M17.5 32.167s37.333-23.667 78-14c0 0 12.167 7.5 18.5 18.833 0 0-24.952-5.504-43-4-28 2.333-49.797 9.949-61.797 12.949 0 0 2.422-7.574 8.297-13.782z" fill="#fff" stroke="#78909c" stroke-width="3" stroke-linecap="round" stroke-linejoin="round" stroke-miterlimit="10"/><g id="_x34_TAu8H.tif"/><path d="M49 85s19.696-9.14 38 6" fill="none" stroke="#2f2f2f" stroke-width="6" stroke-linecap="round" stroke-miterlimit="10"/></svg>