<svg xmlns="http://www.w3.org/2000/svg" viewBox="0 0 128 128"><g id="Layer_1"><g><path d="M96.74 114.119c-4.96-7.156-15.2-20.259-17.09-23.349-2.028-3.316-6.269-4.611-9.388-6.162a34.19 34.19 0 0 0-3.467-1.763l1.466-1.064c5.241 2.834 13.237 6.627 15.579 7.439 3.137 1.083 8.107 1.242 10.182-3.233 1.707-3.68.096-7.734-5.002-10.281a446.831 446.831 0 0 0-7.417-3.608l.285-.207.748-.763c4.554 1.861 9.371 3.241 10.942 4.036 4.592 2.325 9.401.388 10.752-4.261 1.54-5.304-1.949-9.343-7.452-11-1.302-.391-5.387-2.284-7.283-2.832l2.259-1.004c2.068.548 4.471 1.468 6.49 2.104 5.731 1.805 8.444-1.003 9.543-4.915 1.631-5.806-2.924-7.697-7.289-10.002-2.494-1.317-11.223-5.372-16.811-6.156-.517-.441-.825-1.042-.172-1.203 2.977-.734 16.919.133 26.121-13.432 3.657-5.39 8.522-14.859 1.039-18.662-8.306-4.221-12.757 5.282-22.91 10.561-8.901 4.628-23.086-2.527-31.469 1.168-15.124 6.666-15.742 1.506-25.074 2.408-6.644.642-10.952 15.477-13.006 19.819-4.248 8.977-7.535 17.047-2.387 21.007 6.449 4.96 12.059 9.125 13.384 14.223 3.289 12.658 17.494 15.784 26.864 20.064 15.283 6.98 22.095 17.883 29.777 27.528 2.155 2.706 6.535 6.225 9.94 3.931 2.993-2.018 3.139-7.083.846-10.391z" fill="#fac036"/><path d="M65.036 54.647c-2.021 4.884.797 8.604.924 8.773-2.118-.988-7.716-.859-9.745 3.754-1.673 3.804-.907 7.687.72 9.605 1.728 1.668 2.545 2.868 8.671 5.62l1.849.844c.567.294 5.07 2.367 7.728 3.955 2.474 1.478 4.616 3.848 4.616 3.848s.202-1.24.449-1.666c.516-.889 1.447-1.037 1.603-.963l-1.437-.733-.001-.001-5.101-2.603c-5.079-2.612-12.217-6.345-12.916-7.057 0 0-4.558-3.55-2.247-8.802 0 0 1.699-4.589 8.63-1.792 0 0 16.567 6.177 23 10.089 0 0-.176-2.247 1.798-2.354 0 0-11.653-4.788-18.964-7.775-7.312-2.988-7.164-7.503-6.428-9.671.112-.33.266-.856.528-1.45 1.828-4.158 5.727-3.1 11.257-1.486 11.934 3.483 16.908 5.121 16.908 5.121a15.08 15.08 0 0 1 1.829.679c-.235-.316-.523-.837-.335-1.415.122-.375.538-.832.538-.832s-5.041-1.748-12.984-4.047c-7.943-2.299-13.733-5.391-12.343-10.023 1.019-3.394 2.462-5.193 4.545-6.175 2.576-1.214 5.763-.975 5.763-.975s-.287-.2-.358-.517c-.072-.316.082-.702.082-.702-6.445-1.899-12.345.145-14.19 5.293-1.262 3.523-1.357 6.207.43 8.306-.001-.001-2.798.268-4.819 5.152z" fill="#e48c15"/><path d="M72.306 44.894l-3.024-.408s-2.464 16.385-21.573 20.015c0 0-2.439.436-1.94 1.779 0 0 .154 1.381 3.758.507 0 0 18.434-3.041 22.779-21.893z" fill="#e48c15"/></g></g></svg>