<svg id="Layer_1" xmlns="http://www.w3.org/2000/svg" xmlns:xlink="http://www.w3.org/1999/xlink" viewBox="0 0 128 128"><path d="M101.569 66.572c-.89-19.598-.251-53.554-.531-58.074-.28-4.52-2.698-8.305-8.422-8.332s-7.328 4.707-7.607 9.519c-.305 5.251-3.668 43.588-3.668 43.588s-.972 2.304-2.673-.98c-1.112-2.148-3.923-4.64-8.09-4.005-5.507.839-5.903 3.233-6.781 7.624-.864 4.321-.96.384-3.681-2.602-1.061-1.164-4.197-2.74-7.084-2.291-3.719.579-7.106 3.699-7.77 7.565-.663 3.867-2.744.632-3.865-.986-1.121-1.618-4.501-2.923-7.731-1.81-3.23 1.113-6.788 3.354-6.974 8.674-.186 5.32-2.651 27.208 1.964 40.772 3.835 11.271 18.18 22.828 36.869 22.828 22.279 0 39.765-15.397 39.786-33.634.014-11.722-3.387-20.03-3.742-27.856z" fill="#fac036"/><path d="M25.844 79.642s.026-10.381-2.222-23.045c-1.161-6.541-4.777-30.198-4.792-35.739-.024-8.931 11.299-12.133 13.267-2.194 1.402 7.079 5.58 23.047 7.262 31.65.893 4.568 2.8 8.859 4.116 10.187 1.781 1.796 3.47-1.495 3.47-1.495l-.068 14.405-21.033 6.231z" fill="#fac036"/><g><defs><path id="SVGID_1_" d="M101.634 68.176c-1.139-27.068-.423-45.538-.703-50.058-.28-4.52-2.79-10.147-8.514-10.174-5.724-.027-7.436 6.484-7.458 11.304-.023 4.82-3.618 34.026-3.618 34.026s-.972 2.304-2.673-.98c-1.112-2.148-4.31-4.795-7.564-4.09-2.841.615-6.63 3.283-7.307 7.709-.593 3.881-1.863-.855-3.681-2.602-1.136-1.091-4.197-2.74-7.084-2.291-3.719.579-7.106 3.699-7.77 7.565-.663 3.867-2.744.632-3.865-.986-1.121-1.618-4.501-2.923-7.731-1.81-3.23 1.113-6.788 3.354-6.974 8.674-.186 5.32-2.648 27.207 1.964 40.772s16.723 22.813 38.655 22.864c22.087.052 39.135-17.356 37.918-32.679s-3.272-19.573-3.595-27.244z"/></defs><clipPath id="SVGID_2_"><use xlink:href="#SVGID_1_" overflow="visible"/></clipPath><g clip-path="url(#SVGID_2_)"><g><path d="M92.807 83.071s-.384-.115-1.075-.381a56.109 56.109 0 0 1-2.886-1.224l-4.341-2.049c-1.672-.787-3.607-1.584-5.769-2.451-2.161-.849-4.561-1.878-6.981-2.911-2.439-1.017-5.018-2.104-7.635-2.868a16.31 16.31 0 0 0-1.92-.436c-.59-.106-1.257-.103-1.481-.05l-.547.134-.312.115a4.272 4.272 0 0 0-.678.343 3.42 3.42 0 0 0-1.046 1.017c-.552.807-.743 1.945-.624 3.184.038.311.071.623.147.943l.048.239.017.086.037.141.149.563c.102.364.198.655.305.992.125.331.227.673.369.997 1.042 2.632 2.658 5.022 4.769 6.615.519.41 1.078.751 1.652 1.052.574.301 1.146.526 1.888.811l4.127 1.58 4.002 1.492 1.942.701c.663.27 1.144.304 2.219.938 1.539.994 2.454 2.311 3.129 3.627.668 1.326 1.032 2.7 1.201 4.026.049.331.059.662.088.987l.006.19v.319c-.001.147.002.267-.008.435-.031.353-.054.725-.107 1.047-.061.314-.106.629-.183.928a11.18 11.18 0 0 1-1.304 3.191 13.288 13.288 0 0 1-3.643 4.003c-1.204.878-2.274 1.333-2.985 1.638l-1.127.381a.815.815 0 0 1-.714-1.451l.06-.04.885-.59c.552-.413 1.368-.995 2.247-1.876.87-.883 1.814-2.055 2.54-3.541.365-.74.65-1.565.831-2.433.049-.217.066-.438.104-.66.027-.216.024-.397.046-.599l-.012-.748c-.03-.242-.038-.49-.081-.735-.146-.981-.437-1.982-.923-2.893-.469-.904-1.165-1.753-1.903-2.189-.056-.098-.922-.365-1.538-.576l-1.982-.682-4.065-1.446-4.181-1.546c-.658-.248-1.499-.567-2.269-.966a14.178 14.178 0 0 1-2.206-1.385c-2.8-2.102-4.774-5.066-6.034-8.188-.17-.388-.297-.791-.446-1.186a30.59 30.59 0 0 1-.385-1.234l-.152-.562-.038-.14-.046-.198-.07-.331a11.817 11.817 0 0 1-.217-1.351c-.085-.924-.078-1.884.11-2.859a7.851 7.851 0 0 1 1.148-2.813 7.238 7.238 0 0 1 2.212-2.132 7.986 7.986 0 0 1 1.349-.668c.25-.088.517-.178.756-.25l.548-.132c1.25-.248 2.098-.119 2.964.002.845.137 1.622.334 2.372.55 2.979.882 5.586 2.04 8.054 3.126 2.476 1.106 4.698 2.116 6.867 3 2.153.899 4.161 1.758 5.906 2.61a34.55 34.55 0 0 1 4.372 2.458c2.314 1.556 3.41 2.724 3.41 2.724l.013.014a.958.958 0 0 1-.975 1.571z" fill="#e48c15"/></g><g><path d="M81.52 53.537l.302 3.323c.168 1.999.363 4.661.528 7.325.167 2.664.305 5.328.4 7.328l.145 3.341a2.147 2.147 0 1 1-4.29-.013l.002-.029.168-3.299.29-7.279c.086-2.647.141-5.296.162-7.278l.012-3.311v-.009a1.143 1.143 0 0 1 2.281-.099z" fill="#e48c15"/></g><g><path d="M64.018 56.684l1.916 11.148a2.152 2.152 0 1 1-4.272.38l-.082-11.311a1.228 1.228 0 0 1 2.438-.217z" fill="#e48c15"/></g><g><path d="M45.157 60.274l.191 1.446c.126.912.308 2.208.566 3.764.514 3.096 1.303 7.239 2.693 11.045.701 1.887 1.569 3.69 2.628 5.035 1.047 1.369 2.249 2.189 3.361 2.484.553.167 1.09.226 1.584.222.245.004.478-.002.699-.033.218-.016.42-.039.607-.08.369-.055.664-.133.865-.188l.308-.077.127-.032a2.146 2.146 0 1 1 .932 4.187l-.437.085c-.283.057-.699.14-1.254.191a7.741 7.741 0 0 1-.922.063c-.337.02-.709.011-1.109-.019a9.308 9.308 0 0 1-2.669-.555 9.372 9.372 0 0 1-2.791-1.593c-.863-.714-1.617-1.579-2.257-2.515-1.288-1.877-2.128-4.013-2.782-6.136-1.269-4.262-1.803-8.544-2.146-11.742a137.245 137.245 0 0 1-.348-3.87l-.104-1.455a1.134 1.134 0 0 1 2.258-.227z" fill="#e48c15"/></g></g></g><g id="Lu4J7l.tif"/></svg>