<svg id="图层_1" xmlns="http://www.w3.org/2000/svg" xmlns:xlink="http://www.w3.org/1999/xlink" viewBox="0 0 128 128"><g><defs><path id="SVGID_1_" d="M15.598 27.434c8.019-2.463 15.009 5.191 20.785 3.369 8.455-2.668 13.351-3.208 22.386-.407 9.114 2.825 19.741 10.648 27.471 16.061 6.807 4.767 15.647 12.528 21.526 18.51 3.812 3.879 3.709 6.552 2.961 8.547-.966 2.578-3.755 3.958-7.193 3.827-.357-.014-.635.322-.515.658 1.213 3.371.088 6.259-1.542 7.696-2.419 2.133-5.19 2.582-8.353 1.451a.455.455 0 0 0-.589.549c.675 2.606-.13 5.172-2.285 6.746-2.298 1.678-4.456 1.617-7.939.347-.356-.13-.711.13-.73.509-.079 1.595-1.343 2.826-2.085 3.553-3.245 3.179-8.875 1.008-13.574-1.237-9.234-4.411-21.6-13.698-30.466-18.782C25.085 72.884.421 59.731 1.42 48.742c.454-4.983 6.758-18.547 14.178-21.308z"/></defs><use xlink:href="#SVGID_1_" overflow="visible" fill="#fac036"/><clipPath id="SVGID_2_"><use xlink:href="#SVGID_1_" overflow="visible"/></clipPath><path d="M103.125 60.292c1.625 1.833 2.186 5.737.375 8.396-1.958 2.875-4.875 2.688-5.667 3.479-.803.803.042 3.646-2.833 6.208-3.136 2.795-6.422 1.403-7.5 2.25-.875.688.155 3.492-3.657 6.179-3.939 2.776-7.409 1.584-8.025 2.134-.943.843.279 2.172-3.443 5.437-3.729 3.271-11.943-1.642-14.125-2.438-.607-.221-2.308.749-2.148 1.375.08.311 16.088 10.4 21.725 10.518 5.92.124 12.012-.473 17.306-3.125 2.017-1.01 3.881-2.301 5.671-3.674 4.495-3.449 8.668-7.593 10.888-12.806 1.607-3.774 2.111-7.921 2.332-12.016.179-3.308-.031-7.111-2.611-9.189-2.067-1.665-5.83-2.853-8.288-2.728z" clip-path="url(#SVGID_2_)" fill="#e48c15"/></g><g><defs><path id="SVGID_3_" d="M106.085 66.74c4.538-3.026 15.53-9.078 18.346-16.652 1.895-5.098-3.365-9.332-6.16-12.689-3.609-4.335-10.23-7.672-15.504-6.404-3.151.757-9.936 3.204-14.245 3.066-5.244-.168-8.016-.36-11.466-.89-2.703-.415-6.65.091-11.605 1.646-4.992 1.566-9.007 3.378-14.028 6.644-1.977 1.286-4.37 3.458-5.669 5.602-1.966 3.245.572 8.342 5.469 8.995 6.321.842 12.973-6.024 20.096-8.986 2.11-.877 4.363-2.12 7.168-1.876 3.152.274 16.569 10.971 27.598 21.544z"/></defs><use xlink:href="#SVGID_3_" overflow="visible" fill="#e48c15"/><clipPath id="SVGID_4_"><use xlink:href="#SVGID_3_" overflow="visible"/></clipPath><use xlink:href="#SVGID_3_" overflow="visible" fill="none" stroke="#e48c15" stroke-width="4" stroke-miterlimit="10"/></g><g fill="#e48c15"><path d="M67.187 85.745s-.045 4.741-.684 6.339c-.639 1.597-1.084 3.547-2.154 4.748l1.71.847c2.778-3.867 3.399-5.179 3.399-7.784 0-2.845-2.271-4.15-2.271-4.15z"/><path d="M33.04 68.821s1.63 2.649.991 4.246c-.639 1.597-.976 3.232-2.046 4.434 0 0 .393-.42.895-.135.489.277.185.857.185.857l1.544-1.742c.912-1.151.968-2.955.548-4.545-.544-2.06-2.117-3.115-2.117-3.115z"/><path d="M44.821 73.092s.375 4.84-.264 6.437c-.639 1.597-.976 3.232-2.046 4.434 0 0 .62-.322 1.121-.037.489.277.219 1.062.219 1.062l2.22-2.6c.912-1.151 1.272-3.279 1.1-5.169-.242-2.674-2.35-4.127-2.35-4.127z"/><path d="M58.308 77.892s-2.151 7.239-2.79 8.836c-.639 1.597-.942 3.266-2.012 4.468 0 0 .596-.38 1.098-.096.489.277.208 1.076.208 1.076l2.705-3.138c.912-1.151 2.827-4.144 2.817-7.163-.01-2.846-2.026-3.983-2.026-3.983z"/></g><g><g><defs><path id="SVGID_5_" d="M67.408 95.349c-3.534 3.683-6.987 6.105-10.189 3.033-3.146-3.018-.925-6.622 2.609-10.306s7.669-6.106 10.516-3.374c2.904 2.786.598 6.964-2.936 10.647z"/></defs><use xlink:href="#SVGID_5_" overflow="visible" fill="#e48c15"/><clipPath id="SVGID_6_"><use xlink:href="#SVGID_5_" overflow="visible"/></clipPath><use xlink:href="#SVGID_5_" overflow="visible" fill="none" stroke="#e48c15" stroke-width="2" stroke-miterlimit="10"/></g><g><defs><path id="SVGID_7_" d="M56.728 89.204c-5.133 5.869-8.659 7.724-12.197 4.329-3.476-3.335-.424-7.591 3.821-12.366 5.378-6.05 9.461-7.774 12.606-4.756 3.208 3.079 1.236 6.542-4.23 12.793z"/></defs><use xlink:href="#SVGID_7_" overflow="visible" fill="#e48c15"/><clipPath id="SVGID_8_"><use xlink:href="#SVGID_7_" overflow="visible"/></clipPath><use xlink:href="#SVGID_7_" overflow="visible" fill="none" stroke="#e48c15" stroke-width="2" stroke-miterlimit="10"/></g><g><defs><path id="SVGID_9_" d="M44.199 83.317c-3.882 4.017-7.62 6.705-10.987 3.475-3.307-3.173-.687-6.941 3.017-11.122 4.065-4.587 8.352-6.72 11.345-3.848 3.053 2.929 1.349 6.606-3.375 11.495z"/></defs><use xlink:href="#SVGID_9_" overflow="visible" fill="#e48c15"/><clipPath id="SVGID_10_"><use xlink:href="#SVGID_9_" overflow="visible"/></clipPath><use xlink:href="#SVGID_9_" overflow="visible" fill="none" stroke="#e48c15" stroke-width="2" stroke-miterlimit="10"/></g><g><defs><path id="SVGID_11_" d="M33.255 77.058c-3.098 3.228-6.211 5.268-9.491 2.12-3.223-3.092-1.372-6.342 1.726-9.571s6.861-5.217 9.778-2.419c2.974 2.854 1.084 6.642-2.013 9.87z"/></defs><use xlink:href="#SVGID_11_" overflow="visible" fill="#e48c15"/><clipPath id="SVGID_12_"><use xlink:href="#SVGID_11_" overflow="visible"/></clipPath><use xlink:href="#SVGID_11_" overflow="visible" fill="none" stroke="#e48c15" stroke-width="2" stroke-miterlimit="10"/></g></g><g><defs><path id="SVGID_13_" d="M107.214 64.411c4.694-3.13 16.066-9.391 18.979-17.226 1.961-5.274-3.481-9.653-6.372-13.126-3.733-4.484-10.582-7.937-16.039-6.625-3.259.783-10.278 3.314-14.736 3.171-5.425-.173-8.292-.372-11.861-.92-2.796-.429-6.879.094-12.005 1.703-5.164 1.62-9.317 3.494-14.512 6.873-2.045 1.33-4.52 3.578-5.864 5.795-2.034 3.357.592 8.629 5.658 9.305 6.539.871 13.42-6.231 20.788-9.296 2.183-.908 4.513-2.193 7.415-1.941 3.261.284 17.14 11.349 28.549 22.287z"/></defs><use xlink:href="#SVGID_13_" overflow="visible" fill="#fac036"/><clipPath id="SVGID_14_"><use xlink:href="#SVGID_13_" overflow="visible"/></clipPath></g><g><g><defs><path id="SVGID_15_" d="M64.652 96.519c-3.476 3.623-6.872 6.005-10.022 2.983-3.094-2.968-.91-6.513 2.566-10.136 3.476-3.623 7.543-6.005 10.343-3.319 2.857 2.74.59 6.849-2.887 10.472z"/></defs><use xlink:href="#SVGID_15_" overflow="visible" fill="#fac036"/><clipPath id="SVGID_16_"><use xlink:href="#SVGID_15_" overflow="visible"/></clipPath></g><g><defs><path id="SVGID_17_" d="M54.147 90.475c-5.049 5.773-8.517 7.597-11.997 4.258-3.419-3.28-.417-7.466 3.758-12.163 5.29-5.95 9.305-7.647 12.399-4.678 3.157 3.028 1.217 6.434-4.16 12.583z"/></defs><use xlink:href="#SVGID_17_" overflow="visible" fill="#fac036"/><clipPath id="SVGID_18_"><use xlink:href="#SVGID_17_" overflow="visible"/></clipPath></g><g><defs><path id="SVGID_19_" d="M41.825 84.684c-3.818 3.951-7.495 6.595-10.807 3.418-3.253-3.121-.676-6.827 2.968-10.939 3.998-4.511 8.215-6.609 11.159-3.785 3.002 2.881 1.326 6.497-3.32 11.306z"/></defs><use xlink:href="#SVGID_19_" overflow="visible" fill="#fac036"/><clipPath id="SVGID_20_"><use xlink:href="#SVGID_19_" overflow="visible"/></clipPath></g><g><defs><path id="SVGID_21_" d="M31.06 78.528c-3.047 3.175-6.109 5.181-9.335 2.085-3.17-3.041-1.349-6.238 1.698-9.414 3.047-3.175 6.749-5.132 9.617-2.379 2.925 2.808 1.067 6.533-1.98 9.708z"/></defs><use xlink:href="#SVGID_21_" overflow="visible" fill="#fac036"/><clipPath id="SVGID_22_"><use xlink:href="#SVGID_21_" overflow="visible"/></clipPath></g></g></svg>