<svg id="レイヤー_1" xmlns="http://www.w3.org/2000/svg" xmlns:xlink="http://www.w3.org/1999/xlink" viewBox="0 0 128 128"><g id="_x39_5wfoJ.tif"/><g><g><g><path d="M63.795 8.672c-56.666 0-58.002 63.516-58.002 76.084 0 12.58 25.968 22.76 58.002 22.76s57.998-10.18 57.998-22.76c0-12.568-1.336-76.084-57.998-76.084z" fill="#fcc21b"/><g><path d="M101.935 82.086c-8.293 2.975-17.439-1.222-20.452-9.402-3.004-8.177 1.251-17.231 9.538-20.218 8.268-2.973 17.432 1.238 20.458 9.415 3.001 8.184-1.272 17.238-9.544 20.205z" fill="#fcc21b"/><path d="M101.713 81.483c-7.955 2.854-16.729-1.173-19.619-9.019-2.882-7.844 1.2-16.53 9.15-19.395 7.931-2.852 16.722 1.188 19.625 9.032 2.878 7.85-1.221 16.536-9.156 19.382z" fill="#fcc01c"/><path d="M101.49 80.88c-7.617 2.732-16.019-1.123-18.787-8.636-2.76-7.511 1.149-15.828 8.762-18.572 7.595-2.731 16.013 1.138 18.792 8.649 2.757 7.517-1.168 15.834-8.767 18.559z" fill="#fcbe1c"/><path d="M101.268 80.277c-7.279 2.611-15.309-1.073-17.954-8.253-2.638-7.178 1.098-15.126 8.373-17.749 7.258-2.61 15.303 1.087 17.959 8.265 2.635 7.185-1.116 15.133-8.378 17.737z" fill="#fbbb1d"/><path d="M101.046 79.674c-6.941 2.49-14.599-1.023-17.121-7.871-2.515-6.845 1.047-14.425 7.985-16.926 6.921-2.489 14.593 1.037 17.126 7.882 2.512 6.852-1.065 14.431-7.99 16.915z" fill="#fbb91e"/><path d="M100.824 79.071c-6.604 2.369-13.889-.973-16.288-7.488-2.393-6.512.996-13.723 7.597-16.102 6.585-2.368 13.883.986 16.294 7.499 2.388 6.518-1.015 13.728-7.603 16.091z" fill="#fbb71e"/><path d="M100.602 78.469c-6.266 2.248-13.179-.924-15.456-7.105-2.271-6.18.946-13.021 7.208-15.279 6.248-2.247 13.174.936 15.461 7.116 2.267 6.183-.962 13.025-7.213 15.268z" fill="#fbb51f"/><path d="M100.38 77.866c-5.928 2.127-12.469-.874-14.623-6.722-2.149-5.847.895-12.32 6.82-14.456 5.912-2.126 12.464.886 14.628 6.733 2.144 5.85-.911 12.322-6.825 14.445z" fill="#fab220"/><path d="M100.157 77.263c-5.59 2.005-11.759-.824-13.79-6.34-2.026-5.514.844-11.618 6.431-13.633 5.575-2.005 11.754.835 13.795 6.35 2.024 5.517-.858 11.621-6.436 13.623z" fill="#fab020"/><path d="M99.935 76.66c-5.253 1.884-11.049-.774-12.958-5.957-1.904-5.181.793-10.916 6.043-12.81 5.239-1.884 11.044.785 12.962 5.966 1.902 5.185-.806 10.92-6.047 12.801z" fill="#faae21"/><path d="M99.713 76.057c-4.915 1.763-10.339-.725-12.125-5.574-1.782-4.848.742-10.215 5.655-11.987 4.902-1.763 10.335.735 12.129 5.583 1.779 4.852-.754 10.217-5.659 11.978z" fill="#faac22"/><path d="M99.491 75.454c-4.577 1.642-9.629-.675-11.292-5.191-1.66-4.515.691-9.513 5.266-11.163 4.565-1.642 9.625.684 11.296 5.2 1.657 4.517-.702 9.514-5.27 11.154z" fill="#f9a922"/><path d="M99.269 74.851c-4.239 1.521-8.919-.625-10.459-4.809-1.537-4.182.64-8.812 4.878-10.34 4.229-1.52 8.915.634 10.463 4.817 1.534 4.185-.651 8.813-4.882 10.332z" fill="#f9a723"/><path d="M99.046 74.248c-3.901 1.4-8.209-.575-9.627-4.426-1.415-3.85.59-8.11 4.49-9.517 3.892-1.399 8.205.583 9.63 4.434 1.413 3.851-.598 8.111-4.493 9.509z" fill="#f9a524"/><path d="M98.824 73.645c-3.564 1.278-7.499-.525-8.794-4.043-1.293-3.517.539-7.408 4.101-8.694 3.556-1.278 7.496.533 8.797 4.051 1.291 3.518-.546 7.408-4.104 8.686z" fill="#f9a324"/><path d="M98.602 73.042c-3.226 1.157-6.789-.476-7.961-3.66-1.171-3.184.488-6.707 3.713-7.871 3.219-1.157 6.786.483 7.964 3.667 1.168 3.186-.495 6.707-3.716 7.864z" fill="#f8a025"/><path d="M98.38 72.439c-2.888 1.036-6.08-.426-7.128-3.278-1.048-2.851.437-6.005 3.324-7.047 2.883-1.036 6.076.432 7.131 3.284 1.046 2.852-.443 6.005-3.327 7.041z" fill="#f89e26"/><path d="M98.158 71.836c-2.55.915-5.37-.376-6.296-2.895-.926-2.518.386-5.303 2.936-6.224 2.546-.915 5.366.382 6.298 2.901.924 2.519-.391 5.302-2.938 6.218z" fill="#f89c26"/><path d="M97.936 71.233c-2.213.794-4.66-.326-5.463-2.512-.804-2.185.335-4.602 2.548-5.401 2.21-.794 4.657.332 5.465 2.518.801 2.185-.34 4.6-2.55 5.395z" fill="#f89a27"/><path d="M97.713 70.63c-1.875.673-3.95-.277-4.63-2.129-.682-1.853.285-3.9 2.159-4.578 1.873-.673 3.947.281 4.632 2.135.681 1.852-.287 3.898-2.161 4.572z" fill="#f79728"/><path d="M97.491 70.027c-1.537.551-3.24-.227-3.797-1.747-.559-1.52.234-3.199 1.771-3.755 1.536-.552 3.237.231 3.799 1.752.558 1.519-.236 3.196-1.773 3.75z" fill="#f79528"/><path d="M97.269 69.424c-1.199.43-2.53-.177-2.965-1.364a2.281 2.281 0 0 1 1.383-2.931 2.324 2.324 0 0 1 2.966 1.368 2.278 2.278 0 0 1-1.384 2.927z" fill="#f79329"/></g><g><path d="M35.428 81.484c-8.293 2.975-17.439-1.221-20.452-9.407-3.005-8.175 1.25-17.226 9.538-20.219 8.267-2.97 17.432 1.24 20.458 9.42 3 8.181-1.273 17.236-9.544 20.206z" fill="#fcc21b"/><path d="M35.205 80.881c-7.955 2.854-16.729-1.172-19.619-9.024-2.882-7.842 1.199-16.525 9.15-19.396 7.931-2.849 16.722 1.189 19.625 9.036 2.878 7.848-1.221 16.535-9.156 19.384z" fill="#fcc01c"/><path d="M34.983 80.278c-7.617 2.732-16.019-1.122-18.787-8.641-2.76-7.509 1.149-15.823 8.762-18.573 7.594-2.728 16.012 1.139 18.792 8.653 2.756 7.515-1.169 15.832-8.767 18.561z" fill="#fcbe1c"/><path d="M34.761 79.675c-7.279 2.611-15.309-1.072-17.954-8.258-2.638-7.176 1.098-15.122 8.373-17.749 7.258-2.608 15.303 1.088 17.96 8.269 2.633 7.181-1.118 15.13-8.379 17.738z" fill="#fbbb1d"/><path d="M34.539 79.072c-6.942 2.49-14.599-1.023-17.121-7.875-2.515-6.843 1.047-14.421 7.985-16.926 6.921-2.487 14.593 1.037 17.127 7.885 2.51 6.849-1.067 14.429-7.991 16.916z" fill="#fbb91e"/><path d="M34.317 78.469c-6.604 2.368-13.889-.973-16.289-7.492-2.393-6.51.996-13.719 7.596-16.102 6.585-2.366 13.883.987 16.294 7.501 2.389 6.515-1.014 13.727-7.601 16.093z" fill="#fbb71e"/><path d="M34.095 77.866c-6.266 2.247-13.179-.924-15.456-7.109-2.271-6.177.945-13.018 7.208-15.279 6.248-2.245 13.174.936 15.461 7.118 2.267 6.182-.963 13.024-7.213 15.27z" fill="#fbb51f"/><path d="M33.872 77.263c-5.928 2.125-12.469-.874-14.623-6.727-2.148-5.844.894-12.316 6.82-14.456 5.912-2.124 12.464.885 14.628 6.734 2.145 5.85-.911 12.324-6.825 14.449z" fill="#fab220"/><path d="M33.65 76.66c-5.591 2.004-11.759-.824-13.791-6.344-2.026-5.511.844-11.615 6.431-13.632 5.575-2.003 11.754.834 13.795 6.35 2.024 5.517-.858 11.622-6.435 13.626z" fill="#fab020"/><path d="M33.428 76.057c-5.253 1.883-11.049-.775-12.958-5.961-1.904-5.178.793-10.914 6.043-12.809 5.239-1.882 11.044.784 12.962 5.966 1.901 5.184-.807 10.92-6.047 12.804z" fill="#faae21"/><path d="M33.206 75.454c-4.915 1.761-10.339-.725-12.125-5.578-1.782-4.845.742-10.212 5.655-11.985 4.902-1.761 10.335.733 12.129 5.583 1.778 4.85-.755 10.217-5.659 11.98z" fill="#faac22"/><path d="M32.984 74.851c-4.577 1.64-9.629-.675-11.292-5.195-1.659-4.512.691-9.511 5.266-11.162 4.566-1.64 9.625.682 11.296 5.199 1.656 4.517-.703 9.516-5.27 11.158z" fill="#f9a922"/><path d="M32.761 74.248c-4.24 1.519-8.919-.626-10.46-4.812-1.537-4.179.64-8.81 4.878-10.339 4.229-1.519 8.915.632 10.463 4.815 1.535 4.185-.65 8.814-4.881 10.336z" fill="#f9a723"/><path d="M32.539 73.645c-3.902 1.397-8.209-.576-9.627-4.429-1.415-3.846.59-8.108 4.489-9.515 3.893-1.398 8.206.581 9.631 4.431 1.412 3.852-.599 8.112-4.493 9.513z" fill="#f9a524"/><path d="M32.317 73.042c-3.564 1.276-7.499-.526-8.794-4.046-1.292-3.513.539-7.407 4.101-8.692 3.556-1.277 7.496.53 8.798 4.048 1.29 3.518-.548 7.41-4.105 8.69z" fill="#f9a324"/><path d="M32.095 72.439c-3.226 1.155-6.789-.477-7.962-3.663-1.17-3.18.488-6.706 3.713-7.868 3.22-1.156 6.786.479 7.965 3.664 1.168 3.185-.496 6.708-3.716 7.867z" fill="#f8a025"/><path d="M31.873 71.836c-2.888 1.033-6.08-.427-7.129-3.28-1.048-2.847.437-6.004 3.324-7.045 2.883-1.035 6.077.429 7.132 3.28 1.046 2.852-.444 6.006-3.327 7.045z" fill="#f89e26"/><path d="M31.651 71.233c-2.551.912-5.37-.377-6.296-2.897-.926-2.514.386-5.303 2.936-6.222 2.547-.914 5.367.378 6.299 2.896.923 2.52-.393 5.305-2.939 6.223z" fill="#f89c26"/><path d="M31.428 70.63c-2.213.791-4.66-.328-5.464-2.515-.803-2.181.336-4.602 2.548-5.398 2.21-.793 4.657.327 5.466 2.513.802 2.186-.34 4.603-2.55 5.4z" fill="#f89a27"/><path d="M31.206 70.026c-1.875.669-3.95-.278-4.631-2.132-.681-1.848.285-3.9 2.159-4.575 1.874-.672 3.948.277 4.633 2.129.68 1.855-.288 3.902-2.161 4.578z" fill="#f79728"/><path d="M30.984 69.423c-1.536.551-3.24-.228-3.798-1.749-.559-1.515.234-3.199 1.771-3.751 1.537-.551 3.238.226 3.8 1.745a2.923 2.923 0 0 1-1.773 3.755z" fill="#f79528"/><path d="M30.762 68.82c-1.2.427-2.53-.179-2.965-1.366a2.279 2.279 0 0 1 1.383-2.928c1.201-.43 2.528.175 2.967 1.361a2.286 2.286 0 0 1-1.385 2.933z" fill="#f79329"/></g><path d="M33.131 57.854a2.474 2.474 0 0 1-3.38.84 2.46 2.46 0 0 1-.866-3.362c.167-.282 4.168-8.016 13.028-8.016 8.863 0 12.742 7.508 13.039 8.016a2.478 2.478 0 0 1-.877 3.378 2.473 2.473 0 0 1-3.378-.857c-.122-.202-2.824-5.597-8.784-5.597-5.965 0-8.661 5.41-8.782 5.598z" fill="#2f2f2f"/><path d="M98.422 58.711a2.44 2.44 0 0 1-1.245.343 2.496 2.496 0 0 1-2.141-1.217c-.099-.177-2.792-5.581-8.754-5.581-6.067 0-8.751 5.536-8.78 5.581a2.474 2.474 0 0 1-3.381.874 2.471 2.471 0 0 1-.871-3.378c.407-.691 4.169-8.016 13.032-8.016 8.858 0 12.607 7.32 13.018 8.016a2.473 2.473 0 0 1-.878 3.378z" fill="#2f2f2f"/></g><path d="M64.117 84.284c-16.138 0-23.177-10.266-23.486-10.676a2.925 2.925 0 0 1 .578-4.097 2.93 2.93 0 0 1 4.085.56c.274.351 5.728 8.361 19.021 8.361 12.247 0 18.007-7.726 18.249-8.075a2.937 2.937 0 0 1 4.06-.755 2.919 2.919 0 0 1 .783 4.042c-.31.46-7.434 10.64-23.29 10.64z" fill="#2f2f2f"/></g><g><g><path d="M30.664 119.744c-3.455 0-6.66-1.005-9.527-2.988-3.216-2.229-5.631-3.216-5.655-3.226-4.093-1.661-9.173-4.608-9.224-4.638-2.062-1.221-3.79-3.726-2.741-6.358.474-1.182 1.334-2.071 2.404-2.545-.878-.51-1.263-.75-1.421-.868-1.749-1.319-3.475-4.298-1.877-6.817.853-1.341 2.147-2.228 3.567-2.475-1.427-1.697-2.103-4.241-.756-6.269a5.14 5.14 0 0 1 4.221-2.253c1.242 0 2.411.454 3.379 1.312l.148.13c-.457-1.615-.225-3.34 1.208-4.656 1.083-.996 2.324-1.523 3.586-1.523.947 0 2.371.308 3.772 1.777 1.445 1.518 7.874 8.534 8.819 9.625.553.619 2.064 2.304 2.264 2.515l.145.138a7.534 7.534 0 0 1-.64-1.68c-.453-1.806-.089-3.697.974-5.058.907-1.163 2.242-1.829 3.663-1.829 3.435.046 4.717 3.238 5.333 4.771.544 1.356 1.259 2.314 2.086 3.422.912 1.222 1.946 2.607 2.865 4.69 1.329 3.013 1.638 7.343.788 11.031-1.823 7.907-6.743 10.834-10.826 12.501a17.443 17.443 0 0 1-6.555 1.271z" fill="#fac036"/><path d="M17.977 78.569c.745 0 1.537.331 2.325 1.158 1.411 1.481 7.802 8.455 8.754 9.554.609.682 2.258 2.52 2.344 2.602.915.863 1.83 1.924 2.969 3.066 0 0 .858.857 1.786.857.606 0 1.242-.365 1.688-1.572-1.529-2.793-3.025-3.611-3.568-5.775-.573-2.285.774-4.402 2.697-4.402h.035c1.758.024 2.608 1.441 3.442 3.517 1.292 3.217 3.333 4.447 4.977 8.175 1.159 2.628 1.408 6.571.669 9.774-1.519 6.588-5.246 9.308-9.633 11.099a15.573 15.573 0 0 1-5.801 1.123c-2.619 0-5.558-.675-8.39-2.633-3.435-2.38-6.043-3.435-6.043-3.435-3.612-1.466-8.139-4.031-8.967-4.513-1.062-.629-2.568-2.183-1.889-3.89.416-1.038 1.301-1.674 2.405-1.674.535 0 1.121.149 1.73.475 1.103.589 3.574 2.137 7.974 4.307 0 0 .651-.159.84-.643.123-.299.062-.724-.447-1.315-2.541-1.418-11.543-6.432-12.185-6.908-.982-.741-2.303-2.685-1.381-4.14.592-.932 1.582-1.617 2.694-1.617.558 0 1.147.173 1.732.575 1.288.879 7.078 4.747 11.085 7.331 0 0 1.797-.316 1.14-1.813-3.361-2.164-12.156-8.225-12.933-8.977-.879-.851-1.911-2.728-.929-4.207a3.114 3.114 0 0 1 2.555-1.36c.694 0 1.415.244 2.053.809 1.364 1.221 9.883 8.088 12.361 10.242 0 0 .179.05.408.05.451 0 1.098-.193.956-1.34 0 0-8.779-8.302-9.421-9.122-.757-.972-1.773-2.997-.268-4.38.645-.592 1.412-.998 2.236-.998m.001-4c-1.772 0-3.48.709-4.94 2.05a6.277 6.277 0 0 0-1.801 2.871 6.881 6.881 0 0 0-1.581-.185 7.159 7.159 0 0 0-5.876 3.13c-1.356 2.042-1.312 4.399-.486 6.416a7.692 7.692 0 0 0-2.357 2.376c-1.895 2.987-.684 6.688 1.664 8.902a6.981 6.981 0 0 0-.938 1.654c-1.487 3.734.805 7.188 3.563 8.821.078.046 5.283 3.065 9.501 4.777.016.006 2.296.955 5.269 3.016a18.684 18.684 0 0 0 10.668 3.345c3.175 0 5.731-.772 7.315-1.42 4.528-1.849 9.987-5.101 12.017-13.903.941-4.082.585-8.905-.907-12.287-1.01-2.29-2.164-3.837-3.092-5.079-.805-1.078-1.386-1.857-1.834-2.972-.655-1.631-2.395-5.962-7.099-6.026h-.089c-2.041 0-3.951.947-5.24 2.599a7.413 7.413 0 0 0-1.202 2.283c-2.28-2.513-6.204-6.784-7.334-7.97-1.892-1.982-3.884-2.398-5.221-2.398z" fill="#2f2f2f"/></g><g><path d="M97.336 119.744c-2.851 0-5.14-.691-6.558-1.271-4.082-1.667-9.001-4.594-10.825-12.501-.851-3.688-.542-8.018.788-11.031.919-2.083 1.953-3.468 2.865-4.69.827-1.108 1.542-2.066 2.086-3.422.616-1.534 1.898-4.726 5.271-4.771h.001c1.483 0 2.817.667 3.724 1.829 1.062 1.361 1.426 3.252.974 5.059a7.516 7.516 0 0 1-.639 1.678l.204-.195c.141-.152 1.651-1.837 2.225-2.479.926-1.069 7.354-8.084 8.798-9.601 1.403-1.47 2.826-1.778 3.773-1.778 1.262 0 2.502.527 3.586 1.523 1.433 1.317 1.664 3.042 1.208 4.656l.14-.123c.977-.866 2.146-1.319 3.387-1.319 1.67 0 3.286.86 4.216 2.245 1.352 2.036.676 4.58-.75 6.277 1.42.248 2.714 1.133 3.566 2.473 1.599 2.521-.127 5.5-1.863 6.81-.163.121-.552.364-1.434.876 1.07.474 1.93 1.362 2.403 2.542 1.051 2.637-.677 5.142-2.726 6.355-.064.038-5.144 2.985-9.234 4.645-.023.01-2.473 1.02-5.656 3.226-2.87 1.982-6.076 2.987-9.53 2.987z" fill="#fac036"/><path d="M110.023 78.569c.825 0 1.591.406 2.233.995 1.505 1.383.489 3.408-.268 4.38-.642.819-9.421 9.122-9.421 9.122-.142 1.147.504 1.34.956 1.34.229 0 .408-.05.408-.05 2.478-2.154 10.997-9.02 12.361-10.242.638-.565 1.359-.809 2.053-.809 1.032 0 2.003.538 2.555 1.36.982 1.479-.051 3.356-.929 4.207-.777.752-9.571 6.812-12.933 8.977-.658 1.497 1.14 1.813 1.14 1.813a732.566 732.566 0 0 0 11.085-7.331c.585-.402 1.174-.575 1.732-.575 1.112 0 2.101.685 2.694 1.617.923 1.455-.399 3.399-1.381 4.14-.641.477-9.643 5.49-12.185 6.908-.509.591-.57 1.016-.447 1.315.189.484.84.643.84.643 4.401-2.169 6.872-3.718 7.974-4.307.609-.325 1.196-.475 1.73-.475 1.104 0 1.988.636 2.405 1.674.68 1.706-.827 3.261-1.889 3.89-.828.482-5.355 3.047-8.967 4.513 0 0-2.609 1.055-6.043 3.435-2.832 1.958-5.771 2.633-8.39 2.633-2.266 0-4.291-.505-5.801-1.123-4.386-1.791-8.114-4.511-9.633-11.099-.739-3.203-.49-7.147.669-9.774 1.644-3.728 3.685-4.958 4.977-8.175.834-2.076 1.684-3.493 3.442-3.517h.035c1.923 0 3.27 2.117 2.697 4.402-.542 2.164-2.038 2.982-3.568 5.775.447 1.206 1.082 1.572 1.688 1.572.928 0 1.786-.857 1.786-.857 1.139-1.141 2.054-2.203 2.969-3.066a290.22 290.22 0 0 0 2.344-2.602c.952-1.099 7.344-8.073 8.754-9.554.791-.824 1.583-1.155 2.328-1.155m0-4c-1.338 0-3.329.416-5.219 2.396-1.132 1.188-5.056 5.46-7.336 7.973a7.38 7.38 0 0 0-1.202-2.283c-1.289-1.652-3.199-2.599-5.24-2.599H91l-.061.001c-4.707.064-6.446 4.395-7.101 6.026-.448 1.114-1.029 1.893-1.834 2.972-.927 1.242-2.081 2.789-3.092 5.079-1.492 3.383-1.848 8.206-.907 12.287 2.03 8.802 7.489 12.054 12.018 13.904a19.481 19.481 0 0 0 7.313 1.419c3.814 0 7.502-1.156 10.665-3.343 2.977-2.063 5.257-3.012 5.28-3.021 4.211-1.709 9.415-4.728 9.467-4.759 2.784-1.648 5.077-5.102 3.593-8.827a7.027 7.027 0 0 0-.944-1.664c2.356-2.229 3.557-5.92 1.669-8.897a7.697 7.697 0 0 0-2.359-2.379c.827-2.016.874-4.369-.475-6.4-1.307-1.948-3.559-3.147-5.887-3.147-.534 0-1.065.063-1.582.184a6.263 6.263 0 0 0-1.801-2.871c-1.459-1.342-3.168-2.051-4.939-2.051z" fill="#2f2f2f"/></g></g></g></svg>