<svg id="レイヤー_1" xmlns="http://www.w3.org/2000/svg" xmlns:xlink="http://www.w3.org/1999/xlink" viewBox="0 0 128 128"><g><path d="M64.002 9.472C1.481 9.472.007 79.551.007 93.417c0 13.88 28.651 25.111 63.995 25.111s63.991-11.231 63.991-25.111c0-13.866-1.474-83.945-63.991-83.945z" fill="#fcc21b"/></g><path d="M64.14 144.602c-17.443 0-25.051-11.096-25.384-11.539a3.163 3.163 0 0 1 5.039-3.822c.296.379 6.191 9.037 20.559 9.037 13.237 0 19.462-8.35 19.724-8.727a3.175 3.175 0 0 1 4.389-.816 3.155 3.155 0 0 1 .846 4.368c-.335.496-8.034 11.499-25.173 11.499z" fill="#2f2f2f"/><path d="M115.691 50.676c-.031-.778-.114-4.072-.238-4.855-.301-1.759-.478-1.837-2.252-2.154-28.445-5.022-33.52 1.064-49.201 1.386-15.681-.322-20.756-6.408-49.201-1.386-1.774.317-1.951.394-2.252 2.154-.125.783-.207 4.076-.238 4.855-.063 1.442.228 1.634 1.66 2.397 1.245.659 1.827.856 1.827 3.486 0 17.346 7.876 22.713 18.462 23.128 11.187.435 20.289-5.929 24.077-15.694C60.948 57.267 62.487 53.829 64 53.66c1.513.169 3.052 3.607 5.665 10.334 3.788 9.765 12.89 16.129 24.077 15.694 10.586-.415 18.462-5.782 18.462-23.128 0-2.631.582-2.827 1.827-3.486 1.432-.764 1.723-.956 1.66-2.398zm-60.66 5.057c-2.843 8.266-6.255 19.074-20.628 18.54-10.627-.389-13.719-7.985-13.937-18.046-.146-6.528.778-8.043 4.919-8.894 3.88-.799 7.855-1.183 11.778-1.032 4.722.186 10.115 1.209 13.738 2.823 4.628 2.072 5.136 3.688 4.13 6.609zm52.503.495c-.217 10.061-3.31 17.656-13.937 18.046-14.373.534-17.784-10.274-20.628-18.54-1.006-2.921-.499-4.537 4.13-6.608 3.622-1.614 9.016-2.637 13.738-2.823 3.923-.151 7.898.233 11.778 1.032 4.141.85 5.065 2.365 4.919 8.893z" fill-rule="evenodd" clip-rule="evenodd" fill="#2f2f2f"/><g><path d="M91.757 83.96C87.799 79.927 79.355 85.03 64 85.03s-23.799-5.104-27.757-1.07c-.98.999-1.382 3.346-.348 4.93C38.713 93.208 49.21 100.345 64 100.586c14.79-.242 25.287-7.379 28.105-11.696 1.034-1.584.632-3.931-.348-4.93z" fill="#ed6c30"/><g><defs><path id="SVGID_1_" d="M91.757 83.96C87.799 79.927 79.355 85.03 64 85.03s-23.799-5.104-27.757-1.07c-.98.999-1.382 3.346-.348 4.93C38.713 93.208 49.21 100.345 64 100.586c14.79-.242 25.287-7.379 28.105-11.696 1.034-1.584.632-3.931-.348-4.93z"/></defs><clipPath id="SVGID_2_"><use xlink:href="#SVGID_1_" overflow="visible"/></clipPath><g clip-path="url(#SVGID_2_)" fill="#fff"><path d="M52.927 83.908v5.505a3.748 3.748 0 0 0 3.224 3.711l3.577.505A3.748 3.748 0 0 0 64 89.918v-6.01s-6.94.666-11.073 0z"/><path d="M75.073 83.908v5.505a3.748 3.748 0 0 1-3.224 3.711l-3.577.505A3.748 3.748 0 0 1 64 89.918v-6.01s6.94.666 11.073 0z"/></g></g></g><g fill="#2f2f2f"><path d="M42.002 68c-4.486.043-8.168-4.265-8.217-9.619-.048-5.374 3.554-9.747 8.035-9.79 4.484-.039 8.17 4.267 8.22 9.641.048 5.355-3.553 9.727-8.038 9.768z"/><path d="M86.114 67.999c4.482-.007 8.115-4.361 8.101-9.713-.012-5.373-3.662-9.705-8.144-9.694-4.493.009-8.131 4.361-8.122 9.732.016 5.356 3.675 9.686 8.165 9.675z"/></g></svg>