<svg id="レイヤー_1" xmlns="http://www.w3.org/2000/svg" xmlns:xlink="http://www.w3.org/1999/xlink" viewBox="0 0 128 128"><g><path d="M86.049 35.155H41.643V21.191c0-6.506 5.274-11.78 11.78-11.78H74.27c6.506 0 11.78 5.274 11.78 11.78v13.964z" fill="#e06055"/><path d="M55.118 11.622c-.644-1.89-4.144-.766-5.951.318s-4.336 3.975-3.433 4.697c.903.723 2.384-1.115 5.532-1.987 2.937-.813 4.384-1.466 3.852-3.028z" fill="#fff"/><path d="M88.733 24.767H39.011v-2.101a3.238 3.238 0 0 1 3.238-3.238h43.245a3.238 3.238 0 0 1 3.238 3.238v2.101z" fill="#ce453e"/><path d="M119.728 58.055l2.056-45.881a2.609 2.609 0 0 1 5.215.117V71.27c0 .833-.398 1.616-1.071 2.107l-7.411 5.409 1.211-20.731z" fill="#78a3ad"/><path d="M8.272 58.055L6.215 12.174A2.609 2.609 0 0 0 1 12.291V71.27c0 .833.398 1.616 1.071 2.107l7.411 5.409-1.21-20.731z" fill="#78a3ad"/><ellipse cx="13.688" cy="66.886" rx="9.327" ry="17.344" fill="#e06055"/><g><defs><ellipse id="SVGID_1_" cx="13.688" cy="66.886" rx="9.327" ry="17.344"/></defs><clipPath id="SVGID_2_"><use xlink:href="#SVGID_1_" overflow="visible"/></clipPath><path clip-path="url(#SVGID_2_)" fill="#ce453e" d="M12.221 49.542h2.62V84.23h-2.62z"/></g><g><defs><ellipse id="SVGID_3_" cx="13.688" cy="66.886" rx="9.327" ry="17.344"/></defs><clipPath id="SVGID_4_"><use xlink:href="#SVGID_3_" overflow="visible"/></clipPath><path clip-path="url(#SVGID_4_)" fill="#ce453e" d="M12.535 49.542h2.62V84.23h-2.62z"/></g><ellipse cx="114.38" cy="66.886" rx="9.327" ry="17.344" fill="#e06055"/><g><defs><ellipse id="SVGID_5_" cx="114.38" cy="66.886" rx="9.327" ry="17.344"/></defs><clipPath id="SVGID_6_"><use xlink:href="#SVGID_5_" overflow="visible"/></clipPath><path clip-path="url(#SVGID_6_)" fill="#ce453e" d="M113.227 49.542h2.62V84.23h-2.62z"/></g><g><defs><ellipse id="SVGID_7_" cx="114.38" cy="66.886" rx="9.327" ry="17.344"/></defs><clipPath id="SVGID_8_"><use xlink:href="#SVGID_7_" overflow="visible"/></clipPath><path clip-path="url(#SVGID_8_)" fill="#ce453e" d="M112.913 49.542h2.62V84.23h-2.62z"/></g><path d="M111.117 35.152l-11.071-10.82a10.842 10.842 0 0 0-7.577-3.088H35.728a10.84 10.84 0 0 0-7.577 3.088L17.08 35.152a10.837 10.837 0 0 0-3.263 7.752V96.929c0 2.918 1.176 5.713 3.263 7.752l11.071 10.82a10.842 10.842 0 0 0 7.577 3.088H92.47a10.84 10.84 0 0 0 7.577-3.088l11.071-10.82a10.84 10.84 0 0 0 3.263-7.752V42.904a10.844 10.844 0 0 0-3.264-7.752z" fill="#78a3ad"/><g><g><circle cx="40.283" cy="55.886" r="14.634" fill="#546e7a"/><circle cx="40.283" cy="55.886" r="9.2" fill="#b8e9f4"/></g><g><circle cx="86.957" cy="55.886" r="14.634" fill="#546e7a"/><circle cx="86.957" cy="55.886" r="9.2" fill="#b8e9f4"/></g></g><path d="M8.044 52.982S3.08 64.564 5.861 76.144l-3.493-2.549s.277-5.784 1.992-12.153c1.721-6.39 3.684-8.46 3.684-8.46z" fill="#64878e"/><path d="M119.956 52.982s4.964 11.582 2.183 23.162l3.493-2.549s-.277-5.784-1.992-12.153c-1.721-6.39-3.684-8.46-3.684-8.46z" fill="#64878e"/><g><path d="M61.848 65.703l-5.394 12.946a2.038 2.038 0 0 0 1.881 2.821h10.573a2.038 2.038 0 0 0 1.892-2.794L65.62 65.73c-.678-1.694-3.071-1.712-3.772-.027z" fill="#e06055"/><path d="M63.461 67.602c-1.09-.311-1.423 1.412-1.998 2.924-.963 2.532-1.216 3.713-.69 3.905.704.257 1.31-.537 2.254-2.833.889-2.162 1.35-3.734.434-3.996z" fill="#eda29b"/></g><g><path fill="#eceff1" d="M48.391 90.326v10.211"/><path fill="#eceff1" d="M58.973 90.326v10.211"/><path fill="#eceff1" d="M69.555 90.326v10.211"/><path fill="#eceff1" d="M80.137 90.326v10.211"/><path d="M81.986 100.537H46.212a8.897 8.897 0 0 1-8.897-8.897v-1.314h53.567v1.314a8.897 8.897 0 0 1-8.896 8.897z" fill="#b8e9f4"/></g><g><path d="M82.872 100.537H45.325a8.01 8.01 0 0 1-8.01-8.01c0-1.215.985-2.201 2.201-2.201h49.166c1.215 0 2.201.985 2.201 2.201a8.012 8.012 0 0 1-8.011 8.01z" fill="#546e7a" stroke="#546e7a" stroke-width="4" stroke-miterlimit="10"/></g><path d="M46.818 91.523v8.401s-9.503-.776-9.503-8.284l9.503-.117z" fill="#546e7a"/><path d="M81.298 91.523v8.401s9.503-.776 9.503-8.284l-9.503-.117z" fill="#546e7a"/><g fill="#b8e9f4"><path d="M50.711 92.471h6.203v5.962h-6.203z"/><path d="M60.519 92.471h6.203v5.962h-6.203z"/><path d="M70.327 92.471h6.203v5.962h-6.203z"/><path d="M80.375 98.433h-.241v-5.962h6.203a5.962 5.962 0 0 1-5.962 5.962z"/><path d="M47.106 98.433h-.241a5.962 5.962 0 0 1-5.962-5.962h6.203v5.962z"/></g></g><g/></svg>