<svg id="图层_1" xmlns="http://www.w3.org/2000/svg" xmlns:xlink="http://www.w3.org/1999/xlink" viewBox="0 0 128 128"><g><path d="M63.888 9.644C1.577 9.644.098 79.497.098 93.326c0 13.826 28.564 25.031 63.79 25.031 35.235 0 63.79-11.205 63.79-25.031 0-13.83-1.47-83.682-63.79-83.682z" fill="#fcc21b"/></g><path d="M51.305 55.621c-1.52-1.155-3.461-1.987-5.773-2.475v-7.128a5.065 5.065 0 0 1 2.021 1.338c.448.463.801.986 1.056 1.564.316.716.981 1.212 1.763 1.194l.206-.005a2.183 2.183 0 0 0 1.923-3.15c-.391-.803-.944-1.55-1.658-2.237-1.441-1.386-3.227-2.229-5.311-2.512v-.826a1.77 1.77 0 0 0-1.77-1.77h-.002a1.77 1.77 0 0 0-1.77 1.77v.77c-2.099.201-3.916.911-5.406 2.115-1.613 1.3-2.431 2.856-2.431 4.625 0 1.635.8 3.149 2.37 4.493 1.415 1.262 3.252 2.176 5.467 2.719v7.679c-1.134-.244-2.086-.807-2.897-1.708-.541-.604-.917-1.255-1.134-1.966-.275-.904-1.063-1.552-2.008-1.552h-.008c-1.411 0-2.442 1.385-1.987 2.72.421 1.236 1.144 2.364 2.164 3.37 1.585 1.593 3.558 2.533 5.87 2.798v.664c0 .978.792 1.77 1.77 1.77h.002a1.77 1.77 0 0 0 1.77-1.77v-.663c2.244-.252 4.179-1.067 5.76-2.428 1.687-1.479 2.542-3.251 2.542-5.267 0-1.492-.851-2.883-2.529-4.132zm-1.69 4.404c0 .933-.414 1.741-1.266 2.47-.778.667-1.724 1.104-2.818 1.305v-6.996c1.144.297 2.097.736 2.843 1.311.824.616 1.241 1.26 1.241 1.91zM38.373 48.896c0-.74.365-1.378 1.124-1.957.673-.533 1.51-.896 2.494-1.082v6.526c-.997-.335-1.84-.803-2.51-1.393-.746-.676-1.108-1.361-1.108-2.094z" fill="#2f2f2f"/><path d="M91.648 55.621c-1.52-1.155-3.461-1.987-5.773-2.475v-7.128a5.065 5.065 0 0 1 2.021 1.338c.448.463.801.986 1.056 1.564.316.716.981 1.212 1.763 1.194l.206-.005a2.183 2.183 0 0 0 1.923-3.15c-.391-.803-.944-1.55-1.658-2.237-1.441-1.386-3.227-2.229-5.311-2.512v-.826a1.77 1.77 0 0 0-1.77-1.77h-.002a1.77 1.77 0 0 0-1.77 1.77v.77c-2.099.201-3.916.911-5.406 2.115-1.613 1.3-2.431 2.856-2.431 4.625 0 1.635.8 3.149 2.37 4.493 1.415 1.262 3.252 2.176 5.467 2.719v7.679c-1.134-.244-2.086-.807-2.897-1.708-.541-.604-.917-1.255-1.134-1.966-.275-.904-1.063-1.552-2.008-1.552h-.008c-1.411 0-2.442 1.385-1.987 2.72.421 1.236 1.144 2.364 2.164 3.37 1.585 1.593 3.558 2.533 5.87 2.798v.664c0 .978.792 1.77 1.77 1.77h.002a1.77 1.77 0 0 0 1.77-1.77v-.663c2.244-.252 4.179-1.067 5.76-2.428 1.687-1.479 2.542-3.251 2.542-5.267.001-1.492-.85-2.883-2.529-4.132zm-1.69 4.404c0 .933-.414 1.741-1.266 2.47-.778.667-1.724 1.104-2.818 1.305v-6.996c1.144.297 2.097.736 2.843 1.311.824.616 1.241 1.26 1.241 1.91zM78.716 48.896c0-.74.365-1.378 1.124-1.957.673-.533 1.51-.896 2.494-1.082v6.526c-.997-.335-1.84-.803-2.51-1.393-.746-.676-1.108-1.361-1.108-2.094z" fill="#2f2f2f"/><path fill="none" d="M.055 0h127.992v128H.055z"/><g fill="#2f2f2f"/><g fill="#7cb342"><path d="M64 83.204H42.125c5.025 7.186-.235 28.048 12.24 35.725 2.323 1.439 6.431 2.219 9.632 2.238"/><path d="M64.003 121.167c3.201-.019 7.309-.799 9.632-2.238 12.475-7.677 7.215-28.539 12.24-35.725H64"/></g><path d="M34.5 81.599l.868.261a99.33 99.33 0 0 0 58.131-.26h.001" fill="none" stroke="#2f2f2f" stroke-width="6" stroke-linecap="round" stroke-linejoin="round" stroke-miterlimit="10"/><g id="vyWIVh.tif"/><g id="_x32_XurfQ.tif"/><path d="M70.639 104.813c-1.352-1.027-3.079-1.767-5.135-2.201v-6.34a4.512 4.512 0 0 1 1.798 1.19c.398.412.712.877.939 1.391.281.636.872 1.078 1.568 1.062l.183-.004a1.943 1.943 0 0 0 1.711-2.802 7.037 7.037 0 0 0-1.475-1.99c-1.282-1.233-2.87-1.983-4.724-2.234v-.734c0-.87-.705-1.574-1.574-1.574h-.001c-.87 0-1.574.705-1.574 1.574v.685c-1.867.179-3.483.81-4.808 1.881-1.435 1.157-2.162 2.541-2.162 4.114 0 1.455.711 2.801 2.108 3.997 1.259 1.123 2.893 1.935 4.863 2.419v6.83c-1.009-.217-1.856-.718-2.577-1.519a4.61 4.61 0 0 1-1.008-1.748c-.245-.804-.946-1.381-1.786-1.381h-.007c-1.255 0-2.172 1.232-1.767 2.419.375 1.1 1.018 2.103 1.925 2.998 1.41 1.417 3.165 2.253 5.221 2.489v.59c0 .87.705 1.574 1.574 1.574h.001c.87 0 1.574-.705 1.574-1.574v-.59c1.996-.224 3.717-.949 5.124-2.16 1.501-1.316 2.262-2.892 2.262-4.685-.003-1.328-.76-2.566-2.253-3.677zm-1.503 3.918c0 .83-.368 1.549-1.126 2.197-.692.593-1.534.982-2.507 1.161v-6.223c1.017.264 1.865.655 2.529 1.166.733.548 1.104 1.12 1.104 1.699zm-10-9.899c0-.658.325-1.226.999-1.741.599-.474 1.343-.797 2.218-.962v5.805c-.886-.298-1.637-.714-2.233-1.239-.662-.603-.984-1.212-.984-1.863z" fill="#2f2f2f"/></svg>