<svg id="图层_1" xmlns="http://www.w3.org/2000/svg" xmlns:xlink="http://www.w3.org/1999/xlink" viewBox="0 0 128 128"><g><g><path d="M127.129 94.296c0 13.804-28.17 25.002-62.961 25.002-34.782 0-62.98-11.197-62.98-25.002 0-13.818 1.465-83.606 62.98-83.606 61.505 0 62.961 69.787 62.961 83.606" fill="#7cb342"/></g></g><g id="JyBmPL.tif"/><g id="jJDdcc.tif"/><g/><g/><g><path d="M42.002 68c-4.486.043-8.168-4.265-8.217-9.619-.048-5.374 3.554-9.747 8.035-9.79 4.484-.039 8.17 4.267 8.22 9.641.048 5.355-3.553 9.727-8.038 9.768z" fill="#2f2f2f"/></g><g><path d="M86.589 68c-4.486.043-8.168-4.265-8.217-9.619-.048-5.374 3.554-9.747 8.035-9.79 4.484-.039 8.17 4.267 8.22 9.641.048 5.355-3.553 9.727-8.038 9.768z" fill="#2f2f2f"/></g><g fill="none" stroke="#2f2f2f" stroke-width="6" stroke-linecap="round" stroke-miterlimit="10"><path d="M40.415 79.833s3.342 1.333 5 6.167c1.659 4.838.189 10.167.189 10.167"/><path d="M87.585 79.833s-3.342 1.333-5 6.167c-1.659 4.838-.189 10.167-.189 10.167"/><path d="M46.205 87.53a74.324 74.324 0 0 1 35.591.263"/></g><g id="cIY0w3.tif"/><path d="M79.875 48.59s.934 2.761 7.71 4.66c4.333 1.214 7.915.875 7.915.875s.144-7.465-7.915-8.125c-5.085-.417-7.71 2.59-7.71 2.59z" fill="#7cb342"/></svg>