<svg id="图层_1" xmlns="http://www.w3.org/2000/svg" viewBox="0 0 128 128"><g><g><path d="M.21 92.325c0 13.826 28.555 25.031 63.79 25.031 35.226 0 63.79-11.205 63.79-25.031 0-13.829-1.479-83.682-63.79-83.682C1.68 8.644.21 78.496.21 92.325z" fill="#fcc21b"/></g><g><g><path d="M83.9 94.936c-30.249 4.916-63.608-2.015-74.6-15.518-10.952-13.489 4.566-28.426 34.792-33.36 30.154-4.908 63.586 2.044 74.624 15.539 10.937 13.501-4.646 28.44-34.816 33.339z" fill="#fcc21b"/><path d="M83.156 94.023c-29.118 4.732-61.23-1.94-71.811-14.938C.802 66.099 15.74 51.721 44.835 46.971c29.027-4.724 61.24 1.943 71.834 14.958 10.56 12.972-4.471 27.377-33.513 32.094z" fill="#fcc01c"/><path d="M82.412 93.109C54.425 97.657 23.56 91.244 13.39 78.75c-10.133-12.48 4.225-26.3 32.19-30.866 27.901-4.541 58.861 1.868 69.044 14.377 10.149 12.469-4.299 26.315-32.212 30.848z" fill="#fcbe1c"/><path d="M81.668 92.195c-26.856 4.364-56.474-1.789-66.233-13.779C5.711 66.44 19.49 53.179 46.324 48.797c26.774-4.357 56.483 1.792 66.255 13.796 9.739 11.966-4.126 25.252-30.911 29.602z" fill="#fbbb1d"/><path d="M80.923 91.282c-25.725 4.18-54.096-1.714-63.444-13.199-9.314-11.472 3.884-24.174 29.588-28.371 25.647-4.174 54.105 1.717 63.465 13.215 9.33 11.46-3.951 24.188-29.609 28.355z" fill="#fbb91e"/><path d="M80.179 90.368c-24.593 3.996-51.718-1.639-60.655-12.619-8.905-10.967 3.714-23.112 28.287-27.124 24.52-3.99 51.726 1.642 60.675 12.634 8.92 10.957-3.777 23.125-28.307 27.109z" fill="#fbb71e"/><path d="M79.435 89.454c-23.462 3.812-49.34-1.564-57.866-12.039-8.495-10.463 3.543-22.049 26.987-25.877 23.393-3.807 49.348 1.566 57.886 12.054 8.508 10.453-3.605 22.062-27.007 25.862z" fill="#fbb51f"/><path d="M78.691 88.541C56.36 92.17 31.728 87.052 23.614 77.082c-8.086-9.959 3.373-20.986 25.686-24.629 22.266-3.623 46.969 1.491 55.096 11.473 8.099 9.947-3.431 20.997-25.705 24.615z" fill="#fab220"/><path d="M77.947 87.627c-21.2 3.445-44.585-1.413-52.288-10.879-7.676-9.455 3.202-19.923 24.385-23.382 21.139-3.44 44.591 1.416 52.306 10.892 7.689 9.444-3.258 19.935-24.403 23.369z" fill="#fab020"/><path d="M77.203 86.714c-20.069 3.261-42.207-1.338-49.499-10.299-7.267-8.95 3.032-18.86 23.084-22.135 20.013-3.256 42.213 1.341 49.516 10.311 7.279 8.94-3.084 18.871-23.101 22.123z" fill="#faae21"/><path d="M76.459 85.8c-18.938 3.077-39.829-1.263-46.71-9.719-6.857-8.446 2.862-17.797 21.783-20.887 18.886-3.073 39.834 1.265 46.727 9.73 6.869 8.436-2.911 17.808-21.8 20.876z" fill="#faac22"/><path d="M75.715 84.886c-17.806 2.893-37.451-1.188-43.921-9.139-6.448-7.942 2.691-16.735 20.482-19.64 17.759-2.889 37.456 1.19 43.937 9.149 6.459 7.932-2.737 16.746-20.498 19.63z" fill="#f9a922"/><path d="M74.97 83.973c-16.675 2.709-35.073-1.112-41.132-8.559-6.038-7.438 2.521-15.672 19.182-18.393 16.632-2.706 35.078 1.115 41.147 8.568 6.049 7.428-2.563 15.682-19.197 18.384z" fill="#f9a723"/><path d="M74.226 83.059c-15.544 2.525-32.695-1.037-38.343-7.979-5.629-6.933 2.35-14.609 17.881-17.146 15.505-2.522 32.699 1.04 38.358 7.988 5.638 6.924-2.391 14.619-17.896 17.137z" fill="#f9a524"/><path d="M73.482 82.146c-14.413 2.342-30.317-.962-35.554-7.399-5.219-6.429 2.18-13.546 16.58-15.898 14.378-2.339 30.321.964 35.568 7.407 5.229 6.418-2.217 13.554-16.594 15.89z" fill="#f9a324"/><path d="M72.738 81.232c-13.282 2.158-27.939-.887-32.765-6.819-4.81-5.924 2.009-12.483 15.279-14.651 13.251-2.155 27.942.889 32.778 6.826 4.819 5.915-2.043 12.492-15.292 14.644z" fill="#f8a025"/><path d="M71.994 80.318c-12.151 1.974-25.561-.811-29.976-6.24-4.4-5.42 1.839-11.42 13.978-13.404 12.124-1.972 25.564.814 29.988 6.245 4.409 5.413-1.869 11.43-13.99 13.399z" fill="#f89e26"/><path d="M71.25 79.405c-11.02 1.79-23.183-.736-27.187-5.66-3.991-4.916 1.669-10.357 12.677-12.156 10.998-1.788 23.186.739 27.199 5.664 3.998 4.907-1.696 10.366-12.689 12.152z" fill="#f89c26"/><path d="M70.506 78.491c-9.888 1.606-20.805-.661-24.398-5.08-3.581-4.411 1.498-9.294 11.376-10.909 9.871-1.605 20.807.663 24.409 5.083 3.589 4.404-1.522 9.303-11.387 10.906z" fill="#f89a27"/><path d="M69.762 77.577c-8.757 1.422-18.427-.586-21.609-4.5-3.172-3.907 1.328-8.232 10.076-9.662 8.744-1.421 18.429.588 21.619 4.502 3.178 3.901-1.35 8.241-10.086 9.66z" fill="#f79728"/><path d="M69.018 76.664c-7.626 1.239-16.049-.51-18.82-3.92-2.762-3.403 1.157-7.169 8.775-8.414 7.617-1.237 16.05.513 18.83 3.922 2.767 3.395-1.177 7.175-8.785 8.412z" fill="#f79528"/><path d="M68.273 75.75c-6.495 1.055-13.671-.435-16.031-3.34-2.353-2.898.987-6.106 7.474-7.167 6.49-1.054 13.665.443 16.04 3.341 2.352 2.897-1.002 6.113-7.483 7.166z" fill="#f79329"/></g></g><g fill="#2f2f2f"><path d="M99.185 61.36a2.63 2.63 0 0 1-2.721 1.76 2.516 2.516 0 0 1-.625-.132c-8.105-2.791-18.695-1.772-18.792-1.76a2.624 2.624 0 0 1-2.727-1.685 2.628 2.628 0 0 1 .914-3.069c8.505-6.173 21.005-9.125 21.524-9.241a2.635 2.635 0 0 1 3.166 1.968 2.65 2.65 0 0 1-1.973 3.162c-.067.012-5.191 1.22-10.849 3.61 3.281.19 7.043.865 10.453 2.035a2.639 2.639 0 0 1 1.63 3.352z"/><path d="M29.649 61.36a2.63 2.63 0 0 0 2.721 1.76c.21-.019.422-.059.625-.132 8.105-2.791 18.695-1.772 18.792-1.76a2.624 2.624 0 0 0 2.727-1.685 2.628 2.628 0 0 0-.914-3.069c-8.505-6.173-21.005-9.125-21.524-9.241a2.635 2.635 0 0 0-3.166 1.968 2.65 2.65 0 0 0 1.973 3.162c.067.012 5.191 1.22 10.849 3.61-3.281.19-7.043.865-10.453 2.035a2.639 2.639 0 0 0-1.63 3.352z"/></g><g><path d="M62.336 98.769a2.998 2.998 0 0 1-2.121-5.121c10.076-10.074 25.27-15.274 34.813-5.73a2.998 2.998 0 0 1 0 4.242 2.998 2.998 0 0 1-4.242 0c-6.689-6.689-18.558-2.037-26.329 5.73a2.99 2.99 0 0 1-2.121.879z" fill="#2f2f2f"/></g><path d="M37.637 70.196C25.033 73.828.706 75.533 1.361 80.176c.577 4.09 4.326 5.996 5.899 9.091 2.141 4.213.508 8.256 1.671 11.621 1.467 4.243 4.841 6.526 6.265 8.688 3.019 4.585.623 10.789 4.438 14.65 2.326 2.354 21.852-10.171 29.575-19.048C60.07 92.695 73.404 68.015 66.948 62.277c-5.179-4.604-12.729 3.141-29.311 7.919z" fill="#eee"/><path d="M47.986 76.632c-3.839 2.351-9.007 4.876-14.388 7.506-4.275 2.089-8.907 4.245-14.082 5.474-1.049.249-2.157 1.681.157 1.592 5.266-.204 9.819-1.92 14.49-4.062 4.338-1.989 10.722-5.76 15.07-9.725 1.554-1.417.339-1.756-1.247-.785z" fill="#e0e0e0"/><path d="M48.727 87.916c-2.883 2.968-6.911 6.396-11.104 9.963-3.331 2.835-6.965 5.81-11.295 8.084-.877.461-1.538 1.989.503 1.382 4.644-1.381 8.307-3.947 11.98-6.92 3.41-2.76 8.237-7.573 11.205-12.095 1.062-1.615-.098-1.64-1.289-.414z" fill="#e0e0e0"/></g></svg>