<svg id="图层_1" xmlns="http://www.w3.org/2000/svg" xmlns:xlink="http://www.w3.org/1999/xlink" viewBox="0 0 128 128"><g><g><g/></g></g><g fill="#2f2f2f"/><g><path d="M-111.497 100.5c10.381-5.354 23.612-5.354 33.994 0" fill="none" stroke="#2f2f2f" stroke-width="6" stroke-linecap="round" stroke-linejoin="round" stroke-miterlimit="10"/></g><g><g><g><path d="M64.002 9.561C1.592 9.561.121 79.523.121 93.359c0 13.855 28.591 25.079 63.881 25.079 35.283 0 63.876-11.224 63.876-25.079.001-13.836-1.475-83.798-63.876-83.798z" fill="#fcc21b"/></g></g></g><g fill="#2f2f2f"><path d="M41.99 58.774c-4.486.043-8.168-4.265-8.217-9.619-.048-5.374 3.554-9.747 8.035-9.79 4.484-.039 8.17 4.267 8.22 9.641.048 5.355-3.553 9.727-8.038 9.768z"/><path d="M86.102 58.773c4.482-.007 8.115-4.361 8.101-9.713-.012-5.373-3.662-9.705-8.144-9.694-4.493.009-8.131 4.361-8.122 9.732.016 5.356 3.675 9.686 8.165 9.675z"/></g><g><path d="M52.382 97.5c7.096-3.66 16.141-3.66 23.237 0" fill="none" stroke="#2f2f2f" stroke-width="6" stroke-linecap="round" stroke-linejoin="round" stroke-miterlimit="10"/></g><g><defs><path id="SVGID_1_" d="M111.035 85.035c-15.574-.397-26.977-.731-42.549-1.183-5.073-.147-8.584-3.883-8.362-9.048.215-4.998 3.588-8.118 7.86-8.462 15.537-1.13 26.884-2.382 42.449-3.038 4.852-.204 11.265 1.967 11.996 10.391.694 7.998-6.227 11.5-11.394 11.34z"/></defs><use xlink:href="#SVGID_1_" overflow="visible" fill="#f57c00"/><clipPath id="SVGID_2_"><use xlink:href="#SVGID_1_" overflow="visible"/></clipPath><path d="M112.258 78.714c-16.293.297-35.852.469-52.144.708-5.308.078-9.148-3.665-9.152-9.073-.004-5.232 3.378-8.647 7.827-9.202 16.184-1.891 35.612-3.718 51.847-5.114 5.061-.435 11.861 1.54 13.01 10.31 1.091 8.325-5.981 12.302-11.388 12.371z" clip-path="url(#SVGID_2_)" fill="#ffab00"/></g></svg>