<svg id="图层_1" xmlns="http://www.w3.org/2000/svg" xmlns:xlink="http://www.w3.org/1999/xlink" viewBox="0 0 128 128"><g><g><path d="M122.192 34.093c9.657 9.657-2.216 37.197-26.555 61.536-24.332 24.332-51.892 36.226-61.549 26.568-9.667-9.667-57.463-59.513-14.429-102.547 43.027-43.026 92.867 4.777 102.533 14.443" fill="#fcc21b"/></g></g><g/><g/><g id="_x35_4vIX3.tif"/><g fill="#2f2f2f"><path d="M32.273 75.599c.339-.283.624-.634.835-1.07 3.704-8.068 9.467-14.842 9.529-14.911.863-.989.949-2.446.241-3.556-.726-1.112-2.076-1.621-3.338-1.242-9.219 2.687-18.316 8.194-18.701 8.427a2.948 2.948 0 0 0-.991 4.087c.853 1.414 2.695 1.853 4.105 1.005.042-.037 3.464-2.107 8.099-4.26-1.503 2.353-3.039 5.064-4.365 7.948-.689 1.503-.036 3.282 1.463 3.958a2.982 2.982 0 0 0 3.123-.386z"/><path d="M75.405 32.136a3.16 3.16 0 0 1-1.064.822c-8.01 3.63-14.748 9.304-14.817 9.366-.984.85-2.428.928-3.523.221-1.098-.725-1.596-2.065-1.214-3.313 2.707-9.118 8.207-18.102 8.439-18.483a2.92 2.92 0 0 1 4.053-.962c1.397.852 1.822 2.678.975 4.071-.037.041-2.104 3.421-4.26 8.001a65.833 65.833 0 0 1 7.895-4.284c1.493-.675 3.251-.02 3.913 1.469a2.952 2.952 0 0 1-.397 3.092z"/></g><path d="M94.016 40.592c-3.222-1.715-7.574-.236-11.055 3.376-3.656 3.794-7.638 10.589-10.727 14.64-1.581 2.061-3.356 4.031-5.125 5.869-1.854 1.751-3.84 3.508-5.915 5.071-4.079 3.052-10.91 6.972-14.737 10.593-3.643 3.448-5.162 7.786-3.476 11.024 2.798 5.375 12.229 8.051 21.554 6.861 8.497-1.084 15.439-3.593 21.862-8.201.772-.554 1.954-1.642 3.086-2.771 1.139-1.122 2.238-2.294 2.799-3.061 4.666-6.381 7.237-13.3 8.399-21.787 1.275-9.313-1.316-18.767-6.665-21.614z" fill="#ed6c30"/></svg>