<svg id="图层_1" xmlns="http://www.w3.org/2000/svg" viewBox="0 0 128 128"><g><path d="M63.805 22.624c-60.09 0-61.516 67.363-61.516 80.699 0 13.333 27.546 24.139 61.516 24.139 33.979 0 61.516-10.806 61.516-24.139 0-13.337-1.417-80.699-61.516-80.699z" fill="#ffe6b3"/><g><g><path d="M102.495 101.646c-8.226 2.955-17.302-1.212-20.291-9.33-2.981-8.109 1.241-17.09 9.463-20.059 8.203-2.949 17.296 1.23 20.299 9.344 2.976 8.117-1.263 17.1-9.471 20.045z" fill="#fce8bb"/><path d="M102.274 101.048c-7.891 2.834-16.597-1.163-19.465-8.951-2.86-7.779 1.19-16.395 9.078-19.242 7.869-2.829 16.592 1.18 19.472 8.964 2.855 7.787-1.211 16.403-9.085 19.229z" fill="#fce4b8"/><path d="M102.054 100.45c-7.556 2.714-15.893-1.114-18.639-8.571-2.738-7.449 1.14-15.699 8.693-18.425 7.535-2.709 15.888 1.13 18.646 8.583 2.733 7.456-1.161 15.707-8.7 18.413z" fill="#fcdfb5"/><path d="M101.834 99.851c-7.221 2.593-15.189-1.065-17.813-8.191-2.617-7.119 1.09-15.003 8.307-17.609 7.202-2.589 15.183 1.08 17.82 8.203 2.612 7.126-1.109 15.012-8.314 17.597z" fill="#fcdbb3"/><path d="M101.613 99.253c-6.886 2.473-14.484-1.015-16.987-7.811-2.496-6.788 1.039-14.307 7.922-16.792 6.868-2.469 14.479 1.03 16.993 7.822 2.492 6.796-1.057 14.315-7.928 16.781z" fill="#fdd6b0"/><path d="M101.393 98.655c-6.551 2.353-13.78-.966-16.161-7.431-2.374-6.458.989-13.611 7.537-15.975 6.534-2.349 13.775.98 16.167 7.442 2.37 6.464-1.007 13.618-7.543 15.964z" fill="#fdd2ad"/><path d="M101.172 98.057c-6.216 2.232-13.076-.917-15.334-7.052-2.253-6.128.938-12.915 7.151-15.159 6.2-2.229 13.071.93 15.34 7.061 2.25 6.136-.954 12.923-7.157 15.15z" fill="#fdcdaa"/><path d="M100.952 97.459c-5.881 2.112-12.371-.868-14.508-6.672-2.132-5.798.888-12.219 6.766-14.342 5.866-2.109 12.366.88 14.514 6.681 2.127 5.804-.904 12.226-6.772 14.333z" fill="#fdc9a7"/><path d="M100.732 96.861c-5.546 1.991-11.667-.819-13.682-6.292-2.011-5.468.837-11.524 6.381-13.525 5.532-1.988 11.662.83 13.687 6.301 2.006 5.472-.852 11.528-6.386 13.516z" fill="#fdc4a5"/><path d="M100.511 96.262c-5.211 1.871-10.963-.769-12.856-5.912-1.889-5.137.787-10.828 5.995-12.709 5.198-1.868 10.958.78 12.861 5.92 1.886 5.144-.8 10.834-6 12.701z" fill="#fdc0a2"/><path d="M100.291 95.664c-4.876 1.75-10.258-.72-12.03-5.532-1.768-4.808.736-10.132 5.61-11.892 4.864-1.748 10.254.73 12.035 5.54 1.764 4.812-.75 10.137-5.615 11.884z" fill="#fdbb9f"/><path d="M100.07 95.066c-4.541 1.63-9.554-.671-11.204-5.153-1.647-4.477.686-9.436 5.225-11.075 4.53-1.628 9.55.68 11.208 5.159 1.644 4.482-.697 9.441-5.229 11.069z" fill="#feb79c"/><path d="M99.85 94.468c-4.206 1.51-8.85-.622-10.377-4.773-1.525-4.147.635-8.74 4.839-10.259 4.196-1.508 8.845.63 10.382 4.779 1.522 4.152-.647 8.745-4.844 10.253z" fill="#feb299"/><path d="M99.63 93.87c-3.871 1.389-8.145-.573-9.551-4.393-1.404-3.817.585-8.044 4.454-9.442 3.862-1.388 8.141.58 9.555 4.398 1.401 3.821-.595 8.048-4.458 9.437z" fill="#feae96"/><path d="M99.409 93.271c-3.536 1.269-7.441-.524-8.725-4.013-1.283-3.487.535-7.349 4.069-8.625 3.528-1.268 7.437.529 8.729 4.018 1.279 3.49-.544 7.352-4.073 8.62z" fill="#fea994"/><path d="M99.189 92.673c-3.201 1.148-6.737-.474-7.899-3.633-1.161-3.156.484-6.653 3.683-7.809 3.194-1.148 6.733.479 7.903 3.637 1.158 3.161-.493 6.657-3.687 7.805z" fill="#fea591"/><path d="M98.968 92.075c-2.866 1.028-6.032-.425-7.073-3.254-1.04-2.826.434-5.957 3.298-6.992 2.86-1.027 6.029.429 7.076 3.257 1.038 2.83-.44 5.96-3.301 6.989z" fill="#fea08e"/><path d="M98.748 91.477c-2.531.907-5.328-.376-6.247-2.874-.919-2.496.383-5.261 2.913-6.175 2.526-.907 5.324.379 6.25 2.876.916 2.5-.39 5.264-2.916 6.173z" fill="#fe9c8b"/><path d="M98.528 90.879c-2.196.787-4.624-.327-5.421-2.494-.798-2.166.333-4.565 2.527-5.359 2.192-.787 4.62.329 5.423 2.496.796 2.169-.337 4.567-2.529 5.357z" fill="#ff9788"/><path d="M98.307 90.28c-1.861.667-3.919-.278-4.594-2.114-.676-1.836.282-3.869 2.142-4.542 1.858-.667 3.916.279 4.597 2.116.674 1.838-.287 3.871-2.145 4.54z" fill="#ff9386"/><path d="M98.087 89.682c-1.526.546-3.215-.228-3.768-1.734-.555-1.506.232-3.173 1.757-3.725 1.525-.547 3.215.228 3.771 1.735.555 1.506-.237 3.175-1.76 3.724z" fill="#ff8e83"/><path d="M97.866 89.084c-1.191.426-2.511-.179-2.942-1.355-.434-1.175.181-2.478 1.371-2.909 1.191-.427 2.508.179 2.944 1.355a2.266 2.266 0 0 1-1.373 2.909z" fill="#ff8a80"/></g><g><path d="M35.941 102.407c-8.227 2.955-17.303-1.213-20.292-9.33-2.981-8.11 1.241-17.092 9.463-20.06 8.203-2.95 17.296 1.23 20.299 9.344 2.977 8.119-1.262 17.1-9.47 20.046z" fill="#fce8bb"/><path d="M35.721 101.809c-7.892 2.834-16.598-1.164-19.466-8.95-2.86-7.78 1.19-16.397 9.078-19.243 7.869-2.83 16.592 1.18 19.472 8.964 2.855 7.787-1.211 16.403-9.084 19.229z" fill="#fce4b8"/><path d="M35.501 101.211c-7.557 2.714-15.894-1.115-18.64-8.57-2.739-7.45 1.14-15.701 8.692-18.426 7.535-2.71 15.887 1.13 18.646 8.583 2.734 7.456-1.16 15.706-8.698 18.413z" fill="#fcdfb5"/><path d="M35.28 100.613c-7.222 2.593-15.19-1.065-17.813-8.19-2.618-7.119 1.089-15.005 8.307-17.61 7.201-2.59 15.183 1.08 17.82 8.203 2.612 7.126-1.109 15.01-8.314 17.597z" fill="#fcdbb3"/><path d="M35.06 100.014c-6.887 2.473-14.485-1.016-16.987-7.81-2.496-6.789 1.039-14.309 7.922-16.793 6.867-2.47 14.479 1.03 16.993 7.822 2.491 6.796-1.058 14.315-7.928 16.781z" fill="#fdd6b0"/><path d="M34.839 99.416c-6.552 2.352-13.781-.967-16.161-7.43-2.375-6.459.988-13.613 7.536-15.976 6.533-2.35 13.775.979 16.167 7.442 2.371 6.464-1.005 13.617-7.542 15.964z" fill="#fdd2ad"/><path d="M34.619 98.818c-6.217 2.232-13.076-.917-15.335-7.051-2.254-6.129.938-12.918 7.151-15.159 6.199-2.23 13.071.929 15.34 7.061 2.25 6.135-.954 12.922-7.156 15.149z" fill="#fdcdaa"/><path d="M34.398 98.22c-5.882 2.111-12.372-.868-14.508-6.671-2.132-5.799.887-12.222 6.766-14.343 5.865-2.11 12.366.879 14.514 6.681 2.128 5.804-.904 12.225-6.772 14.333z" fill="#fdc9a7"/><path d="M34.178 97.622c-5.546 1.991-11.667-.819-13.682-6.291-2.011-5.468.837-11.526 6.381-13.526 5.531-1.989 11.662.829 13.687 6.3 2.006 5.473-.852 11.529-6.386 13.517z" fill="#fdc4a5"/><path d="M33.957 97.024c-5.211 1.87-10.963-.77-12.856-5.911-1.89-5.138.786-10.83 5.995-12.709 5.197-1.869 10.958.779 12.861 5.92 1.886 5.142-.8 10.832-6 12.7z" fill="#fdc0a2"/><path d="M33.737 96.425c-4.876 1.75-10.259-.72-12.03-5.531-1.768-4.808.736-10.135 5.61-11.892 4.863-1.749 10.254.729 12.034 5.539 1.765 4.812-.748 10.136-5.614 11.884z" fill="#fdbb9f"/><path d="M33.516 95.827c-4.541 1.629-9.554-.671-11.203-5.152-1.647-4.478.685-9.439 5.225-11.076 4.53-1.629 9.549.679 11.208 5.159 1.643 4.483-.698 9.441-5.23 11.069z" fill="#feb79c"/><path d="M33.296 95.229c-4.206 1.509-8.85-.622-10.377-4.772-1.526-4.147.635-8.743 4.839-10.259 4.196-1.509 8.845.629 10.382 4.778 1.522 4.152-.646 8.745-4.844 10.253z" fill="#feb299"/><path d="M33.076 94.631c-3.871 1.388-8.145-.572-9.551-4.392-1.404-3.817.584-8.047 4.454-9.442 3.862-1.389 8.141.579 9.555 4.398 1.401 3.82-.595 8.047-4.458 9.436z" fill="#feae96"/><path d="M32.855 94.033c-3.536 1.268-7.441-.523-8.725-4.012-1.283-3.487.534-7.351 4.069-8.626 3.528-1.269 7.437.529 8.729 4.017 1.279 3.491-.544 7.352-4.073 8.621z" fill="#fea994"/><path d="M32.635 93.434c-3.201 1.147-6.737-.474-7.898-3.632-1.162-3.157.483-6.656 3.683-7.809 3.194-1.149 6.732.479 7.902 3.637 1.158 3.16-.492 6.656-3.687 7.804z" fill="#fea591"/><path d="M32.414 92.836c-2.866 1.027-6.032-.425-7.072-3.253-1.041-2.827.433-5.96 3.298-6.992 2.86-1.028 6.028.429 7.076 3.256 1.037 2.83-.441 5.96-3.302 6.989z" fill="#fea08e"/><path d="M32.194 92.238c-2.531.907-5.328-.375-6.246-2.873-.919-2.496.382-5.264 2.913-6.175 2.526-.908 5.324.379 6.249 2.876.916 2.499-.389 5.263-2.916 6.172z" fill="#fe9c8b"/><path d="M31.973 91.64c-2.196.786-4.623-.326-5.42-2.493-.798-2.166.332-4.568 2.527-5.359 2.192-.788 4.62.328 5.423 2.495.796 2.169-.337 4.567-2.53 5.357z" fill="#ff9788"/><path d="M31.753 91.042c-1.861.666-3.919-.277-4.594-2.113-.677-1.836.281-3.872 2.142-4.542 1.858-.668 3.915.278 4.597 2.115.674 1.837-.286 3.87-2.145 4.54z" fill="#ff9386"/><path d="M31.532 90.443c-1.526.545-3.215-.228-3.767-1.733-.555-1.506.231-3.177 1.757-3.725 1.524-.548 3.214.227 3.77 1.734s-.235 3.175-1.76 3.724z" fill="#ff8e83"/><path d="M31.312 89.845c-1.191.425-2.51-.178-2.941-1.354a2.263 2.263 0 0 1 1.371-2.909 2.308 2.308 0 0 1 2.944 1.354 2.267 2.267 0 0 1-1.374 2.909z" fill="#ff8a80"/></g></g><g><ellipse cx="86.588" cy="66.611" rx="11.794" ry="12.604" fill="#fff"/><ellipse cx="40.997" cy="66.611" rx="11.794" ry="12.604" fill="#fff"/><g><path d="M41.059 73.32c-3.115.028-5.672-2.812-5.706-6.341-.033-3.543 2.468-6.425 5.581-6.454 3.114-.026 5.674 2.813 5.708 6.355.033 3.531-2.468 6.413-5.583 6.44z" fill="#2f2f2f"/></g><g><path d="M86.61 73.319c3.113-.005 5.636-2.875 5.626-6.403-.008-3.542-2.543-6.397-5.656-6.39-3.12.006-5.647 2.875-5.641 6.416.012 3.53 2.552 6.385 5.671 6.377z" fill="#2f2f2f"/></g></g><circle cx="63.805" cy="81.08" r="9.769" fill="#db4437"/><path d="M63.857 110.871c-8.789 0-16.662-2.88-22.116-7.315-3.363-2.734-5.506-4.563-6.532-8.309-.913-3.335 2.051-6.849 7.281-2.053 2.102 1.927 8.791 7.893 21.367 7.893s19.264-5.965 21.367-7.893c5.231-4.795 8.195-1.282 7.281 2.053-1.026 3.746-3.169 5.575-6.532 8.309-5.454 4.435-13.327 7.315-22.116 7.315z" fill="#421503" stroke="#db4437" stroke-width="7.286" stroke-miterlimit="10"/></g><g fill="#3890f9"><circle cx="15.837" cy="53.198" r="10.802"/><circle cx="12.402" cy="46.146" r="11.181"/><circle cx="18.557" cy="37.768" r="13.077"/><circle cx="28.763" cy="44.466" r="10.802"/><circle cx="23.583" cy="36.934" r="11.852"/><circle cx="29.756" cy="24.793" r="13.077"/><circle cx="44.23" cy="39.048" r="10.802"/><circle cx="40.018" cy="26.515" r="11.852"/><circle cx="46.704" cy="16.482" r="13.077"/><circle cx="112.209" cy="53.198" r="10.802"/><circle cx="115.387" cy="46.124" r="11.159"/><circle cx="109.488" cy="37.768" r="13.077"/><circle cx="99.282" cy="44.466" r="10.802"/><circle cx="104.462" cy="36.934" r="11.852"/><circle cx="98.29" cy="24.793" r="13.077"/><circle cx="83.816" cy="39.048" r="10.802"/><circle cx="88.027" cy="26.515" r="11.852"/><circle cx="81.341" cy="16.482" r="13.077"/><circle cx="64.443" cy="13.616" r="13.077"/><circle cx="64.443" cy="27.189" r="16.12"/><circle cx="64.443" cy="35.157" r="12.641"/></g></svg>