<svg id="图层_1" xmlns="http://www.w3.org/2000/svg" xmlns:xlink="http://www.w3.org/1999/xlink" viewBox="0 0 128 128"><g id="eKMqG5.tif"/><g/><g><g><path d="M64 9.644C1.689 9.644.21 79.497.21 93.326c0 13.826 28.564 25.031 63.79 25.031 35.235 0 63.79-11.205 63.79-25.031 0-13.83-1.47-83.682-63.79-83.682z" fill="#fcc21b"/></g><g fill="#2f2f2f"><path d="M41.897 68c-4.486.043-8.168-4.265-8.217-9.619-.048-5.374 3.554-9.747 8.035-9.79 4.484-.039 8.17 4.267 8.22 9.641.048 5.355-3.553 9.727-8.038 9.768z"/><path d="M86.009 67.999c4.482-.007 8.115-4.361 8.101-9.713-.012-5.373-3.662-9.705-8.144-9.694-4.493.009-8.131 4.361-8.122 9.732.016 5.356 3.675 9.686 8.165 9.675z"/></g><path d="M85.309 88.306c-1.648-3.954-9.652-10.313-20.563-10.459v-.013c-.064 0-.124.006-.188.007-.063 0-.124-.007-.188-.007v.013c-10.911.145-18.916 6.504-20.563 10.459-1.667 4-.207 6.677 4.313 6.677 4.212 0 14.917.003 16.355.004h.165c1.438 0 12.143-.004 16.355-.004 4.521 0 5.981-2.677 4.314-6.677z" fill="#ed6c30"/><path d="M84.786 93.924s.035-.653-1.09-.986c-1.498-.444-3.71 1.159-7.044 1.117s-7.822-.857-10.654-.93c-3.329-.086-3.375 1.862-3.375 1.862h18.084c2.239 0 3.313-.404 4.079-1.063z" fill="#fff"/><path d="M69.055 94.954c4.198.813 5.963 2.008 5.963 7.107 0 2.218-.279 4.94.044 7.106.361 2.421 2.111 2.858 3.333 2.667 2.938-.459 1.917-5.417 2.312-10.772.3-4.051 3.5-4.312 4.079-7.139l-15.731 1.031z" fill="#fff"/></g></svg>