<svg xmlns="http://www.w3.org/2000/svg" xmlns:xlink="http://www.w3.org/1999/xlink" viewBox="0 0 128 128"><g id="Layer_3"><g><path id="XMLID_1340_" d="M28.511 113.532C22 91.192 22 45.39 22 45.39l84-.335s0 41.491-4.884 68.189l-72.605.288z" fill="#6d4c41"/><path d="M20.429 118.092v9.887h43.903V95.25c-21.718.026-43.903 6.779-43.903 22.842z" fill="#651fff"/><path d="M107.571 118.092c0-15.168-21.386-22.868-43.24-22.842v32.729h43.24v-9.887z" fill="#651fff"/><g id="XMLID_1338_"><ellipse id="XMLID_1339_" cx="64" cy="46.114" rx="42" ry="39.499" fill="#6d4c41"/></g><path id="XMLID_1336_" d="M63.947 90.246h-9.082v9.593c0 4.338 3.697 7.856 8.257 7.856h1.651c4.56 0 8.257-3.517 8.257-7.856v-9.593h-9.083z" fill="#e39700"/><path id="XMLID_1335_" d="M63.893 13.574c-24.347 0-30.719 18.874-30.719 45.388S52.06 93.565 63.893 93.565c11.832 0 30.719-8.089 30.719-34.603 0-26.514-6.371-45.388-30.719-45.388z" fill="#fac01b"/><path id="XMLID_1334_" d="M56.238 58.468c.408.175.404.932-.222 2.226-.891 1.841-2.292 2.816-3.687 3.255-1.62.51-4.659.703-7.063-1.63-2.385-2.314-1.201-3.337-.281-2.832.936.514 2.524 1.161 4.017 1.29 1.552.135 3.618-.337 4.923-1.016 1.104-.575 1.843-1.495 2.313-1.293z" fill="#444"/><path id="XMLID_1333_" d="M71.348 58.508c-.407.177-.398.934.236 2.224.903 1.835 2.31 2.801 3.708 3.232 1.623.5 4.663.673 7.053-1.676 2.371-2.329 1.179-3.344.263-2.833-.933.52-2.516 1.177-4.009 1.316-1.551.145-3.62-.313-4.929-.984-1.109-.568-1.853-1.483-2.322-1.279z" fill="#444"/><path id="XMLID_1332_" d="M73.073 34.427c-3.234 3.107-19.29 17.578-41.418 21.355V26.115S41.206 7.163 64.128 7.163s32.473 19.43 32.473 19.43v29.19S81.582 50.018 74.039 34.61a.605.605 0 0 0-.966-.183z" fill="#6d4c41"/><path id="XMLID_1331_" d="M68.353 68.687c-1.571.445-3.201.662-4.46.662s-2.889-.217-4.46-.662c-.672-.19-.936.446-.695.869.499.877 2.505 2.646 5.155 2.646 2.65 0 4.657-1.769 5.155-2.646.241-.423-.023-1.059-.695-.869z" fill="#e39400"/><path id="XMLID_1330_" d="M73.847 81.762c0 1.008-4.456 1.218-9.954 1.218s-9.954-.232-9.954-1.218c0-1.037 4.456-1.679 9.954-1.679s9.954.62 9.954 1.679z" fill="#513f35"/><path id="XMLID_1311_" opacity=".54" d="M35.349 119.535h3V128h-3z"/><path id="XMLID_1312_" d="M78.219 128h-3l-5.337-14.456a2.09 2.09 0 0 1 1.961-2.814L78.219 128z" opacity=".54"/><g><g fill="#e39700"><path d="M74.928 48.58c-1.303-.064-2.544.262-3.353 1.064-.601.596-.767.839-1.896 2.735-1.885 1.316-3.111-3.074-3.435-4.485-.019-.082-1.654-8.438-1.876-9.864-.262-1.678-1.146-2.558-2.302-2.378-1.241.193-1.482 2.019-1.346 2.878.209 1.326.535 4.472 1.143 7.514 0 0 .037.298-.018.374-.389.543-.934-.007-.934-.007-.873-2.167-2.694-7.511-3.107-8.735-.715-2.116-1.69-2.908-2.8-2.546-1.461.476-1.489 1.874-.788 3.94.419 1.234 1.769 4.973 2.896 8.515-.221 1.133-1.137.519-1.137.519-1.523-3.215-2.978-6.65-3.488-7.625-.829-1.585-1.648-2.167-2.727-1.714-1.121.472-1.216 1.548-.376 3.438.596 1.341 2.416 5.582 3.413 7.725.149 1.422-1.016.977-1.016.977-1.677-3.029-2.104-3.656-2.578-4.4-1.002-1.572-1.711-1.93-2.689-1.286-1.081.716-.767 1.799-.017 3.278.504.993 4.015 7.622 5.047 10.384.289.771.63 1.5 1.007 2.18 2.023 4.532 6.749 9.413 6.749 9.413l12.622-6.803c-1.434-3.858-.464-6.115-.464-6.115.424-1.023 1.041-2.501 1.201-2.7a34.764 34.764 0 0 1 1.754-2.029c.528-.552 1.04-1.158 1.251-1.459 1.143-1.633.465-2.729-.736-2.788z"/><path d="M59.011 72.335l-.789-.815c-.2-.207-4.896-5.085-7.015-9.786a17.673 17.673 0 0 1-1.068-2.325c-.851-2.273-3.559-7.487-4.577-9.45l-.404-.781c-.504-.996-1.843-3.639.527-5.208.74-.486 1.485-.652 2.213-.496.164.035.32.085.47.147l-.355-.808c-.451-1.014-.991-2.514-.476-3.817.2-.505.647-1.194 1.641-1.612.88-.367 2.03-.488 3.168.459-.14-.864-.119-1.761.279-2.557.261-.521.805-1.22 1.913-1.581.948-.312 3.308-.59 4.687 3.491l.02.059c.092-.641.308-1.34.737-1.929.466-.64 1.107-1.039 1.853-1.155 1.682-.248 3.567.762 4.017 3.628.212 1.366 1.791 9.446 1.861 9.789.354 1.537.824 2.641 1.174 3.199.753-1.244 1.021-1.599 1.635-2.207 1.063-1.055 2.667-1.592 4.481-1.497h.001c1.105.055 2.029.627 2.472 1.53.3.612.623 1.896-.581 3.617-.27.385-.843 1.057-1.396 1.635a33.48 33.48 0 0 0-1.613 1.862c-.104.197-.371.787-1.042 2.406-.026.067-.689 1.858.484 5.018l.454 1.224-14.771 7.96zM47.314 46.483c.009.131.087.483.52 1.337l.391.755c1.141 2.196 3.811 7.339 4.725 9.781.253.677.561 1.343.913 1.979l.059.116c1.415 3.172 4.312 6.609 5.692 8.151l10.495-5.656c-.99-3.558-.141-5.722-.029-5.979 1.048-2.532 1.217-2.807 1.405-3.043a36.46 36.46 0 0 1 1.845-2.132c.532-.558.976-1.096 1.106-1.283.125-.178.202-.324.25-.436-.922-.021-1.628.215-2.054.637-.465.46-.553.573-1.664 2.437l-.165.277-.265.185c-.766.534-1.632.657-2.449.345-1.806-.696-2.795-3.496-3.307-5.723-.077-.335-1.684-8.603-1.896-9.97-.067-.435-.256-1.051-.513-1.122-.127.221-.23.787-.173 1.159.063.396.137.956.225 1.626.206 1.572.488 3.726.908 5.826l.018.109c.074.593-.021 1.062-.287 1.435-.362.506-.887.812-1.475.858-.908.062-1.566-.507-1.744-.687l-.212-.214-.113-.28c-.982-2.438-3.05-8.557-3.137-8.816-.476-1.406-.9-1.613-.904-1.615-.136.057-.175.093-.175.093h-.001s-.2.386.333 1.955c.105.311.271.782.478 1.37.629 1.797 1.581 4.511 2.428 7.172l.116.365-.073.377c-.222 1.137-.913 1.58-1.305 1.743-.791.329-1.625.08-2.14-.265l-.344-.23-.177-.374a243.86 243.86 0 0 1-2.202-4.827c-.555-1.242-1.034-2.315-1.259-2.744-.407-.777-.672-1-.75-1.054-.011.006-.035.014-.067.027l-.015.005c-.002.147.039.565.428 1.44.182.407.475 1.08.823 1.881.798 1.833 1.892 4.342 2.579 5.822l.105.227.026.248c.132 1.255-.372 1.927-.818 2.269-.715.552-1.619.5-2.225.267l-.512-.195-.266-.479c-1.509-2.726-1.985-3.469-2.406-4.125l-.124-.194c-.302-.477-.504-.715-.622-.831zm27.543 3.556a.216.216 0 0 0 .071.05V48.58l-.071 1.459z"/></g><path d="M77.295 48.195c-1.404-.069-2.74.282-3.61 1.146-.648.642-.826.903-2.042 2.945-2.03 1.417-3.35-3.311-3.7-4.829-.02-.088-1.782-9.086-2.02-10.622-.282-1.807-1.234-2.755-2.479-2.561-1.336.208-1.596 2.174-1.45 3.099.225 1.428.576 4.816 1.231 8.091 0 0 .04.321-.019.403-.418.585-1.005-.008-1.005-.008-.94-2.334-2.901-8.089-3.346-9.407-.77-2.279-1.82-3.131-3.016-2.741-1.573.513-1.604 2.018-.848 4.243.451 1.329 1.905 5.355 3.119 9.169-.238 1.22-1.224.559-1.224.559-1.64-3.463-3.207-7.161-3.756-8.211-.892-1.707-1.775-2.333-2.937-1.845-1.207.508-1.31 1.667-.405 3.702.642 1.444 2.601 6.011 3.675 8.319.16 1.532-1.094 1.052-1.094 1.052-1.806-3.261-2.266-3.937-2.776-4.738-1.079-1.693-1.842-2.078-2.896-1.385-1.164.771-.826 1.938-.018 3.53.542 1.07 4.323 8.208 5.435 11.182a17.6 17.6 0 0 0 1.085 2.348c2.178 4.88 7.268 10.137 7.268 10.137l13.592-7.325c-1.544-4.154-.499-6.585-.499-6.585.456-1.101 1.121-2.693 1.294-2.908a37.36 37.36 0 0 1 1.889-2.185c.568-.595 1.12-1.247 1.347-1.571 1.228-1.761.498-2.941-.795-3.004z" fill="#fac01b"/></g><g><g><defs><path id="XMLID_1328_" d="M78.221 128l-21.61-56.405a1.798 1.798 0 0 1 1.495-1.896l15.999-6.316a1.8 1.8 0 0 1 2.058 1.394L107.5 128H78.221z"/></defs><use xlink:href="#XMLID_1328_" overflow="visible" fill="#651fff"/><clipPath id="XMLID_2_"><use xlink:href="#XMLID_1328_" overflow="visible"/></clipPath></g></g></g></g></svg>