<svg id="Layer_1" xmlns="http://www.w3.org/2000/svg" viewBox="0 0 128 128"><path d="M64 47.535s7.725.189 18.706-3.938 15.597-9.79 23.097-12.253c7.5-2.463 14.551-2.314 18.073 5.687 3.522 8.001.253 17.17-1.221 21.183-1.474 4.013-9.202 11.732-18.403 15.822 0 0-20.978 5.421-40.252 6.216V47.535z" fill="#a1887f"/><path d="M64 47.535s-7.725.189-18.706-3.938-15.701-9.8-23.2-12.263c-7.5-2.463-14.448-2.304-17.97 5.697s-.254 17.17 1.221 21.183 9.202 11.732 18.403 15.822c0 0 20.978 5.421 40.252 6.216V47.535z" fill="#a1887f"/><path d="M30.852 36.163s-11.194-5.299-14.943-1.341c-2.235 2.359-1.87 7.489 5.49 13.633l9.453-12.292z" fill="#8d6e63"/><path d="M97.319 36.163s11.194-5.299 14.943-1.341c2.235 2.359 1.87 7.489-5.49 13.633l-9.453-12.292z" fill="#8d6e63"/><path d="M64 19.771c-60.159 0-61.587 67.44-61.587 80.792 0 13.349 27.578 24.167 61.587 24.167 34.019 0 61.587-10.818 61.587-24.167 0-13.352-1.419-80.792-61.587-80.792z" fill="#fcc21b"/><path d="M64 6.572c-4.111 0-4.518-3.301-8.935-3.301-5.397 0-21.43 15.61-22.733 18.121-1.04 2.004-3.892 8.943-4.25 10.586-.381 1.745-2.846 1.473-4.013.678 0 0 9.498 7.604 19.41 11.142C53.391 47.335 64 47.683 64 47.683V6.572z" fill="#bcaaa4"/><path d="M64 6.572c4.111 0 4.518-3.301 8.935-3.301 5.397 0 21.357 15.649 22.733 18.121 1.415 2.542 4.15 8.939 4.582 10.773.409 1.738.515 2.285 1.682 1.49 0 0-7.498 6.604-17.41 10.142C74.609 47.335 64 47.683 64 47.683V6.572z" fill="#bcaaa4"/><path d="M89.473 88.41c-1.064-2.066-3.704-3.882-7.254-3.788-3.729.098-9.113 1.548-12.684 2.057-1.822.254-3.696.366-5.501.415-1.814-.048-3.691-.16-5.523-.415-3.571-.509-8.955-1.959-12.684-2.057-3.55-.093-6.19 1.722-7.254 3.788-2.675 5.137 2.965 12.117 7.733 15.318 5.035 3.381 9.628 5.065 14.789 5.737 1.223.159 4.579.201 5.942-.022 5.523-.901 9.505-2.335 14.539-5.715 4.769-3.201 10.572-10.181 7.897-15.318z" fill="#ed6c30"/><path d="M33.156 29.532s12.054-2.549 30.862-3.441L64 47.683s-18.713.29-37.144-12.882c0 .001 5.225 1.756 6.3-5.269z" fill="#bcaaa4"/><path d="M94.844 29.532s-12.499-2.337-30.826-3.441L64 47.683s18.475.436 36.906-12.736c0 0-4.964 1.483-6.062-5.415z" fill="#bcaaa4"/><path d="M126.404 34.648c-2.123-6.581-8.785-10.906-16.964-8.785-8.179 2.121-19.691 13.796-26.658 16.825-6.968 3.03-14.541 2.948-18.782 2.948v1.594s7.621.58 19.322-3.964 17.408-9.637 26.754-11.23 13.399 3.371 14.283 6.185c1.25 3.976 1.559 15.174-4.261 22.978l-.307.412.492 1.781c.607-.719 1.184-1.508 1.918-2.566 6.945-10.009 5.339-22.657 4.203-26.178z" fill="#bcaaa4"/><path d="M8.22 61.595l-.318-.397C1.841 53.58 2.391 42.196 3.641 38.22c.884-2.814 4.772-7.943 14.118-6.35s15.383 7.016 27.084 11.56C56.544 47.975 64 47.229 64 47.229v-1.594c-4.241 0-11.814.082-18.782-2.947S26.739 27.983 18.56 25.863c-8.179-2.121-14.841 2.204-16.964 8.785C.46 38.17-1.146 50.818 5.799 60.827a42.072 42.072 0 0 0 1.86 2.495l.561-1.727z" fill="#bcaaa4"/><path d="M52.018 7.156c2.129-.93 5.51 1.1 5.693 3.962.183 2.861-7.08 9.904-18.525 12.546s9.18-14.913 12.832-16.508z" opacity=".5" fill="#a1887f"/><path d="M75.863 7.156c-2.129-.93-5.51 1.1-5.693 3.962s7.08 9.904 18.525 12.546-9.18-14.913-12.832-16.508z" opacity=".5" fill="#a1887f"/><path d="M41.603 40.807s10.708 6.14 22.397 6.14 20.625-5.154 20.625-5.154S64 48.22 41.603 40.807z" fill="#bcaaa4"/><path d="M33.618 35.486s14.197-3.376 31.44-2.981 29.169 2.981 29.169 2.981l3.631-3.173s-13.638-5.119-33.092-5.119-34.626 5.137-34.626 5.137l3.478 3.155z" fill="#a1887f"/><path d="M64.488 28.453c-.735 0-6.286 1.024-6.286 1.637s5.539 1.465 6.286 1.465c.747 0 6.168-.769 6.168-1.296s-5.711-1.806-6.168-1.806z" fill="#8d6e63"/><path d="M80.874 29.444c-.642-.061-5.578.374-5.629.91s4.72 1.739 5.372 1.801c.653.062 5.454-.162 5.498-.622.044-.461-4.842-2.052-5.241-2.089z" fill="#8d6e63"/><path d="M47.28 29.444c.642-.061 5.578.374 5.629.91.051.536-4.72 1.739-5.372 1.801-.653.062-5.454-.162-5.498-.622-.043-.461 4.842-2.052 5.241-2.089z" fill="#8d6e63"/><g fill="#2f2f2f"><path d="M42.211 72.655c-4.486.043-8.168-4.265-8.217-9.619-.048-5.374 3.554-9.747 8.035-9.79 4.484-.039 8.17 4.267 8.22 9.641.047 5.355-3.554 9.727-8.038 9.768z"/><path d="M86.323 72.654c4.482-.007 8.115-4.361 8.101-9.713-.012-5.373-3.662-9.705-8.144-9.694-4.493.009-8.131 4.361-8.122 9.732.016 5.356 3.674 9.686 8.165 9.675z"/></g></svg>