<svg xmlns="http://www.w3.org/2000/svg" xmlns:xlink="http://www.w3.org/1999/xlink" viewBox="0 0 128 128"><g id="Layer_3"><g><g id="XMLID_332_"><defs><path id="XMLID_333_" d="M0 .211h128v128H0z"/></defs><clipPath id="XMLID_2_"><use xlink:href="#XMLID_333_" overflow="visible"/></clipPath><g clip-path="url(#XMLID_2_)"><path id="XMLID_897_" d="M80.735 99.073c-5.705-1.084-27.766-1.084-33.471 0C29.223 102.5 16 110.458 16 127.435v20.898l48 .012 48-.012v-20.898c0-16.977-13.223-24.935-31.265-28.362z"/><path fill="#fff" d="M63.521 98.261l16.022 2.216v34.901H63.521z"/><path d="M74.043 100.341s4.417 3.239 4.583 10.156c.182 7.546-6.159 36.536-15.583 53.109l14.685-2.224 15.982-38.548-7.648-5.037 6.473-4.991s-6.222-11.003-14.961-15.295c-4.252-.759-12.367-1.097-14.031-1.053l-.022 1.804 10.522 2.079z" fill="#444"/><path fill="#fff" d="M63.522 98.261L47.5 100.477v34.901h16.022z"/><path d="M53 100.341s-4.417 3.239-4.583 10.156c-.182 7.546 6.159 36.536 15.583 53.109l-14.685-2.224-15.982-38.548 7.648-5.037-6.473-4.991s6.222-11.003 14.961-15.295c4.252-.759 12.367-1.097 14.031-1.053l.022 1.804L53 100.341z" fill="#444"/><path id="XMLID_896_" d="M63.5 111.352c-6.081 0-10.5-4.93-10.5-11.011V91h21v9.341c0 6.081-4.419 11.011-10.5 11.011z" fill="#e39700"/><g><g id="XMLID_462_" fill="#e39400"><path id="XMLID_464_" d="M97.562 53.124s6.098 1.056 6.098 7.623c0 5.793-4.448 8.08-8.897 8.08V53.124h2.799z"/><path id="XMLID_463_" d="M31.052 53.124s-6.098 1.056-6.098 7.623c0 5.793 4.448 8.08 8.897 8.08V53.124h-2.799z"/></g><path id="XMLID_461_" d="M64.307 10.116c-26.28 0-33.157 20.373-33.157 48.991 0 29.676 19.075 37.35 33.157 37.35 13.876 0 33.157-7.453 33.157-37.35 0-28.618-6.877-48.991-33.157-48.991z" fill="#fac01b"/><path id="XMLID_460_" d="M53.389 61.765c0 2.955-1.977 5.35-4.427 5.35-2.447 0-4.437-2.396-4.437-5.35 0-2.963 1.99-5.358 4.437-5.358 2.449 0 4.427 2.396 4.427 5.358" fill="#444"/><path id="XMLID_459_" d="M75.22 61.765c0 2.955 1.98 5.35 4.437 5.35 2.444 0 4.434-2.396 4.434-5.35 0-2.963-1.989-5.358-4.434-5.358-2.457 0-4.437 2.396-4.437 5.358" fill="#444"/><path id="XMLID_458_" d="M73.903 79.843h-9.595-9.595c-1.1 0-1.573.74-.845 1.847 1.019 1.551 4.799 4.534 10.441 4.534s9.422-2.982 10.441-4.534c.725-1.107.253-1.847-.847-1.847z" fill="#513f35"/><path id="XMLID_457_" d="M68.942 71.686c-1.633.462-3.327.688-4.635.688-1.309 0-3.003-.226-4.635-.688-.698-.198-.972.464-.722.904.518.911 2.604 2.75 5.358 2.75 2.754 0 4.84-1.839 5.358-2.75.249-.44-.025-1.101-.724-.904z" fill="#e39400"/><path id="XMLID_456_" d="M65.099 6.378s-.512-.016-.734-.014c-.222-.002-.734.014-.734.014-28.361.546-36.91 17.608-36.91 29.44 0 11.497.011 19.944.011 19.944s.45-.469 1.284-1.117c.888-.691 1.871-1.081 1.871-1.081l1.432 9.605 9.451-19.743a.315.315 0 0 1 .321-.18l5.6.622a157.78 157.78 0 0 0 16.939.945v.012c.245.002.49-.006.734-.006.245 0 .49.008.734.006v-.012a157.537 157.537 0 0 0 16.939-.945l5.6-.622a.316.316 0 0 1 .321.18l9.451 19.743 1.432-9.605s.983.39 1.871 1.081c.834.648 1.284 1.117 1.284 1.117s.011-8.447.011-19.944c0-11.832-8.549-28.894-36.908-29.44z" fill="#6d4c41"/></g></g><g clip-path="url(#XMLID_2_)"><g><g><path d="M65.37 109.338c1.55-1.067 3.014-1.839 4.498-2.787 1.187-.758 3.202-2.172 5.093-1.449 1.6.612 1.031 2.797 1.031 5.665 0 3.36.57 5.313-.7 5.874-1.712.757-3.96-.581-5.842-1.398-1.071-.465-4.126-1.86-4.645-2.671s-.496-2.705.565-3.234z"/><path d="M73.279 109.05c.034.237-1.664.783-3.792 1.222-2.128.438-3.88.601-3.914.365s1.664-.783 3.792-1.222c2.128-.438 3.88-.601 3.914-.365z" fill="#444"/><path d="M73.307 113.042c-.024.238-1.78.182-3.924-.125s-3.862-.75-3.839-.988c.024-.238 1.78-.182 3.924.125s3.863.75 3.839.988z" fill="#444"/></g><g><path d="M61.63 109.338c-1.55-1.067-3.014-1.839-4.498-2.787-1.187-.758-3.202-2.172-5.093-1.449-1.6.612-1.031 2.797-1.031 5.665 0 3.36-.57 5.313.7 5.874 1.712.757 3.96-.581 5.842-1.398 1.071-.465 4.126-1.86 4.645-2.671s.496-2.705-.565-3.234z"/><path d="M53.721 109.05c-.034.237 1.664.783 3.792 1.222 2.128.438 3.88.601 3.914.365.034-.237-1.664-.783-3.792-1.222-2.128-.438-3.88-.601-3.914-.365z" fill="#444"/><path d="M53.693 113.042c.024.238 1.78.182 3.924-.125s3.862-.75 3.839-.988-1.78-.182-3.924.125-3.863.75-3.839.988z" fill="#444"/></g></g><path d="M66.92 111.375c0 1.945-1.531 3.066-3.42 3.066s-3.42-1.121-3.42-3.066.855-3.523 3.42-3.523c2.458.001 3.42 1.578 3.42 3.523z"/></g></g><circle cx="63.5" cy="118.836" r="1.586" fill="#444"/><circle cx="63.5" cy="124.296" r="1.586" fill="#444"/></g></g></svg>