<svg xmlns="http://www.w3.org/2000/svg" xmlns:xlink="http://www.w3.org/1999/xlink" viewBox="0 0 128 128"><g id="Layer_3"><g><g><g><path d="M59.571 75.214c-8.254 0-19.821 1.55-27.071 14.603L22.204 77.232a1.1 1.1 0 0 0-1.363-.674l-8.687 2.613a1.1 1.1 0 0 0-.749 1.274s8.958 20.47 8.971 20.497c1.789 3.923 4.988 9.189 10.149 9.189 5.768 0 9.29-3.38 10.825-5.189L41.351 128H64V74.966c-4.429.083-2.576.248-4.429.248z" fill="#00bea4"/><g id="XMLID_1575_"><path id="XMLID_1577_" d="M21.456 64.566c-.883.357-1.605.953-1.894 1.732-.215.579-.251.791-.418 2.393-.845 1.449-3.003-1.083-3.65-1.917-.037-.048-3.682-5.081-4.266-5.958-.688-1.031-1.543-1.343-2.254-.869-.762.508-.362 1.791-.01 2.319.545.814 1.725 2.798 3.06 4.626 0 0 .116.186.103.253-.091.479-.621.281-.621.281-1.242-1.168-4.086-4.149-4.735-4.833-1.122-1.182-2.01-1.408-2.635-.828-.822.763-.412 1.698.686 2.851.656.689 2.696 2.751 4.528 4.752.201.818-.594.692-.594.692-1.994-1.663-4.01-3.491-4.647-3.981-1.035-.796-1.756-.93-2.332-.299-.597.656-.331 1.398.805 2.392.806.705 3.311 2.956 4.628 4.07.535.896-.373.958-.373.958-2.039-1.492-2.514-1.776-3.056-2.124-1.145-.734-1.724-.754-2.175-.027-.496.805.044 1.427.993 2.176.638.504 4.995 3.818 6.526 5.33 2.354 2.322 5.557 2.388 7.257 1.763 2.387-.878 4.508-2.1 5.457-4.994.23-.701.05-2.236.099-2.974.006-.116-.129-2.658-.061-2.932.177-.704.373-1.392.54-1.881.18-.528.334-1.086.381-1.35.256-1.432-.528-1.95-1.342-1.621z" fill="#e0e0e0"/></g></g><g><path d="M64 74.966V128h22.649l.003-23.058c1.535 1.809 5.057 5.189 10.825 5.189 5.16 0 8.359-5.266 10.149-9.189l8.971-20.497a1.1 1.1 0 0 0-.749-1.274l-8.687-2.613a1.1 1.1 0 0 0-1.363.674L95.5 89.817c-7.25-13.053-18.818-14.603-27.071-14.603-1.853 0 0-.165-4.429-.248z" fill="#00bea4"/><g id="XMLID_1576_"><path id="XMLID_1578_" d="M106.544 64.566c.883.357 1.605.953 1.894 1.732.215.579.251.791.418 2.393.845 1.449 3.003-1.083 3.65-1.917.037-.048 3.682-5.081 4.266-5.958.688-1.031 1.543-1.343 2.254-.869.762.508.362 1.791.01 2.319-.545.814-1.725 2.798-3.06 4.626 0 0-.116.186-.103.253.091.479.621.281.621.281 1.242-1.168 4.086-4.149 4.735-4.833 1.122-1.182 2.01-1.408 2.635-.828.822.763.412 1.698-.686 2.851-.656.689-2.696 2.751-4.528 4.752-.201.818.594.692.594.692 1.994-1.663 4.01-3.491 4.647-3.981 1.035-.796 1.756-.93 2.332-.299.597.656.331 1.398-.805 2.392-.806.705-3.311 2.956-4.628 4.07-.535.896.373.958.373.958 2.039-1.492 2.514-1.776 3.056-2.124 1.145-.734 1.724-.754 2.175-.027.496.805-.044 1.427-.993 2.176-.638.504-4.995 3.818-6.526 5.33-2.354 2.322-5.557 2.388-7.257 1.763-2.387-.878-4.508-2.1-5.457-4.994-.23-.701-.05-2.236-.099-2.974-.006-.116.129-2.658.061-2.932a25.522 25.522 0 0 0-.54-1.881c-.18-.528-.334-1.086-.381-1.35-.256-1.432.528-1.95 1.342-1.621z" fill="#e0e0e0"/></g></g><g><path id="XMLID_1570_" d="M63.967 82.529a6.65 6.65 0 0 1-6.65-6.65v-5.685h13.3v5.685a6.65 6.65 0 0 1-6.65 6.65z" fill="#e49800"/><g id="XMLID_1560_"><g id="XMLID_1567_" fill="#e49500"><path id="XMLID_1569_" d="M83.978 47.621s3.669.636 3.669 4.587c0 3.486-2.677 4.862-5.353 4.862v-9.449h1.684z"/><path id="XMLID_1568_" d="M43.956 47.621s-3.669.636-3.669 4.587c0 3.486 2.677 4.862 5.353 4.862v-9.449h-1.684z"/></g><path id="XMLID_1566_" d="M63.967 21.741C48.153 21.741 44.015 34 44.015 51.22c0 17.857 11.478 22.474 19.952 22.474 8.349 0 19.952-4.485 19.952-22.474C83.918 34 79.78 21.741 63.967 21.741z" fill="#fbc11b"/><path id="XMLID_1565_" d="M57.397 52.82c0 1.778-1.19 3.219-2.664 3.219-1.472 0-2.67-1.441-2.67-3.219 0-1.783 1.198-3.224 2.67-3.224 1.474 0 2.664 1.442 2.664 3.224" fill="#444"/><path id="XMLID_1564_" d="M70.533 52.82c0 1.778 1.192 3.219 2.67 3.219 1.471 0 2.668-1.441 2.668-3.219 0-1.783-1.197-3.224-2.668-3.224-1.478 0-2.67 1.442-2.67 3.224" fill="#444"/><path id="XMLID_1563_" d="M69.741 63.698h-5.774-5.774c-.662 0-.946.445-.509 1.112.613.933 2.888 2.728 6.282 2.728 3.395 0 5.67-1.795 6.282-2.728.439-.667.155-1.112-.507-1.112z" fill="#513f35"/><path id="XMLID_1562_" d="M66.756 58.79c-.982.278-2.002.414-2.789.414-.787 0-1.807-.136-2.789-.414-.42-.119-.585.279-.435.544.312.548 1.567 1.655 3.224 1.655 1.657 0 2.912-1.106 3.224-1.655.15-.265-.015-.663-.435-.544z" fill="#e49500"/><path id="XMLID_1561_" d="M64.443 19.492s-.308-.009-.442-.008a18.04 18.04 0 0 0-.442.008c-17.065.329-22.209 10.595-22.209 17.715 0 6.918.006 12.001.006 12.001s.271-.282.773-.672c.534-.416 1.126-.65 1.126-.65l.862 5.78 5.687-11.88a.19.19 0 0 1 .193-.109l3.37.374c3.387.376 6.79.558 10.192.568v.007c.147.001.295-.004.442-.004.147 0 .295.005.442.004v-.006a94.884 94.884 0 0 0 10.192-.568l3.37-.374a.19.19 0 0 1 .193.109l5.687 11.88.862-5.78s.592.235 1.126.65c.502.39.773.672.773.672s.006-5.083.006-12.001c0-7.121-5.144-17.387-22.209-17.716z" fill="#6d4c41"/></g><g><ellipse cx="64" cy="40.803" rx="26.481" ry="6.916" fill="#444"/><ellipse cx="64" cy="39.547" rx="26.481" ry="6.916" fill="#616161"/><g><defs><path id="SVGID_1_" d="M87.642 38.615c-.391-7.451-6.007-19.967-23.18-20.29 0 0-.322-.01-.462-.008-.14-.001-.462.008-.462.008-17.173.323-22.79 12.839-23.18 20.29 0 5.834 47.284 5.834 47.284 0z"/></defs><use xlink:href="#SVGID_1_" overflow="visible" fill="#444"/><clipPath id="SVGID_2_"><use xlink:href="#SVGID_1_" overflow="visible"/></clipPath></g></g></g><path fill="#444" d="M41.35 113.68h45.299V128H41.35z"/><g fill="#444"><path d="M52.545 122.141h-5.963V76.359l5.963-1.372z"/><path d="M81.418 122.141h-5.963V74.987l5.963 1.372z"/></g><g><g><g><path d="M65.48 80.275c1.227-.845 2.385-1.456 3.56-2.206.94-.6 2.535-1.72 4.031-1.147 1.267.485.816 2.214.816 4.484 0 2.66.451 4.205-.554 4.65-1.355.599-3.134-.46-4.624-1.107-.847-.368-3.266-1.472-3.677-2.114-.411-.642-.391-2.141.448-2.56z"/><path d="M71.74 80.047c.027.187-1.317.62-3.002.967-1.684.347-3.071.476-3.098.289-.027-.187 1.317-.62 3.002-.967s3.072-.476 3.098-.289z" fill="#444"/><path d="M71.763 83.207c-.019.189-1.409.144-3.106-.099-1.697-.243-3.057-.594-3.039-.782.019-.189 1.409-.144 3.106.099 1.697.243 3.057.593 3.039.782z" fill="#444"/></g><g><path d="M62.52 80.275c-1.227-.845-2.385-1.456-3.56-2.206-.94-.6-2.535-1.72-4.031-1.147-1.267.485-.816 2.214-.816 4.484 0 2.66-.451 4.205.554 4.65 1.355.599 3.134-.46 4.624-1.107.847-.368 3.266-1.472 3.677-2.114.411-.642.391-2.141-.448-2.56z"/><path d="M56.26 80.047c-.027.187 1.317.62 3.002.967s3.071.476 3.098.289c.027-.187-1.317-.62-3.002-.967s-3.072-.476-3.098-.289z" fill="#444"/><path d="M56.237 83.207c.019.189 1.409.144 3.106-.099 1.697-.243 3.057-.594 3.039-.782-.019-.189-1.409-.144-3.106.099-1.697.243-3.057.593-3.039.782z" fill="#444"/></g></g><path d="M66.707 81.888c0 1.54-1.212 2.427-2.707 2.427-1.495 0-2.707-.887-2.707-2.427S61.97 79.1 64 79.1c1.946 0 2.707 1.248 2.707 2.788z"/></g></g><g><circle cx="12.133" cy="66.455" r="7.741" fill="#ff3d00"/><circle cx="9.82" cy="64" r="2.313" fill="#fff"/></g><g><circle cx="22.847" cy="30.888" r="7.741" fill="#00c853"/><circle cx="20.534" cy="28.433" r="2.313" fill="#fff"/></g><g><circle cx="56.259" cy="9.473" r="7.741" fill="#ff6d00"/><circle cx="53.946" cy="7.017" r="2.313" fill="#fff"/></g><g><circle cx="95.965" cy="19.483" r="7.741" fill="#a0f"/><circle cx="93.652" cy="17.028" r="2.313" fill="#fff"/></g><g><circle cx="115.867" cy="49.596" r="7.741" fill="#29b6f6"/><circle cx="113.554" cy="47.141" r="2.313" fill="#fff"/></g></g></g></svg>