<svg xmlns="http://www.w3.org/2000/svg" viewBox="0 0 128 128"><g id="Layer_3"><g><g><path fill="#fac01b" d="M63.966 104.081l-9.96.844-2.827-22.848 11.726-.994z"/><circle cx="58.986" cy="104.503" r="4.992" fill="#fac01b"/><circle cx="57.042" cy="81.58" r="5.884" fill="#fac01b"/><g><path fill="#fac01b" d="M80.673 110.656l-3.809 7.576-19.982-9.205 4.485-8.92z"/><path d="M86.961 113.819l-6.54 13.008-1.996-1.003a4.806 4.806 0 0 1-2.135-6.452l4.381-8.714 6.29 3.161z"/><path fill="#e0e0e0" d="M74.689 107.406l-4.003 7.961 6.178 2.865 3.809-7.576z"/></g><path d="M56.443 74.488a7.002 7.002 0 0 0-6.384 7.567h-.005l1.419 12.847 13.3-1.128-.763-12.902a7 7 0 0 0-7.567-6.384z" fill="#f57c00"/></g><g><path fill="#fac01b" d="M81.065 97.367l-9.016 4.315-10.73-20.369 10.616-5.08z"/><circle cx="76.557" cy="99.524" r="4.992" fill="#fac01b"/><circle cx="66.627" cy="78.773" r="5.884" fill="#fac01b"/><g><path fill="#fac01b" d="M97.562 108.075l-4.609 7.117-18.864-11.322 5.428-8.379z"/><path d="M103.469 111.903l-7.915 12.22-1.875-1.214a4.805 4.805 0 0 1-1.421-6.646l5.302-8.187 5.909 3.827z"/><path fill="#e0e0e0" d="M91.967 104.194l-4.844 7.479 5.83 3.519 4.609-7.117z"/></g><path d="M63.557 72.351a7 7 0 0 0-3.293 9.336l-.004.003 5.874 11.513 12.041-5.762-5.281-11.797a7.003 7.003 0 0 0-9.337-3.293z" fill="#f57c00"/></g><path d="M59.173 44.563L50.75 46.24a7.656 7.656 0 0 0-6.014 9.003l5.297 26.906 23.44-4.667-5.297-26.906a7.655 7.655 0 0 0-9.003-6.013z" fill="#00bda3"/><g><path id="XMLID_1738_" fill="#fac01b" d="M26.989 76.132l5.929 1.49 3.598-12.383-6.846-1.72z"/><path fill="#fac01b" d="M35.222 67.278l-4.298-5.6 14.443-11.68 4.873 6.349z"/><circle cx="33.073" cy="64.478" r="3.529" fill="#fac01b"/><path d="M27.962 85.256l-.204-.051a4.265 4.265 0 0 1-3.098-5.174l.594-2.368a4.265 4.265 0 0 1 5.174-3.098l.204.051a4.265 4.265 0 0 1 3.098 5.174l-.594 2.368a4.263 4.263 0 0 1-5.174 3.098z" fill="#fac01b"/><circle cx="47.804" cy="53.173" r="4" fill="#fac01b"/><path d="M51.916 50.02a4.831 4.831 0 0 0-6.773-.891l-.002-.003-6.935 5.609 5.608 7.307 7.211-5.249a4.831 4.831 0 0 0 .891-6.773z" fill="#00bda3"/></g><g><path id="XMLID_1739_" fill="#fac01b" d="M76.763 20.953l-5.913 1.554 2.821 12.584 6.827-1.796z"/><path fill="#fac01b" d="M74.725 31.507l4.711 5.257-13.513 12.744-5.341-5.96z"/><circle cx="77.08" cy="34.136" r="3.529" fill="#fac01b"/><path d="M78.285 14.595l.135.161a4.264 4.264 0 0 1-.523 6.008l-1.869 1.57a4.264 4.264 0 0 1-6.008-.523l-.135-.161a4.264 4.264 0 0 1 .523-6.008l1.869-1.57a4.265 4.265 0 0 1 6.008.523z" fill="#fac01b"/><circle cx="63.251" cy="46.527" r="4" fill="#fac01b"/><path d="M59.392 49.984a4.83 4.83 0 0 0 6.821.373l.002.003 6.488-6.119-6.147-6.859-6.791 5.781a4.83 4.83 0 0 0-.373 6.821z" fill="#00bda3"/></g><g><path id="XMLID_1737_" d="M58.483 41.299l.458 6.516a2.589 2.589 0 0 1-2.299 2.85l-2.147.23a2.589 2.589 0 0 1-2.747-1.801l-3.983-12.447 10.718 4.652z" fill="#fac01b"/><path id="XMLID_1736_" d="M58.364 31.502l.373 16.514-10.771.326c-5.007.151-9.123-3.917-9.029-8.926l.114-6.069c.105-5.611 5.029-9.907 10.603-9.25l2.213.261a7.359 7.359 0 0 1 6.497 7.144z" fill="#fac01b"/><path id="XMLID_1735_" d="M59 42.696l-5.052-.782-.346-3.528a3.247 3.247 0 0 0-1.974-2.676h-.001l-1.107 3.92a3.41 3.41 0 0 1-2.623-2.06l-.908-2.183a3.165 3.165 0 0 0-2.219-1.871l-5.635-1.285s-.129-7.798 7.55-8.912a39.483 39.483 0 0 1 3.899-.362c5.854-.262 10.576 4.735 10.003 10.567v.002a63.428 63.428 0 0 1-1.586 9.168l-.001.002z" fill="#6d4c41"/><path id="XMLID_1734_" d="M43.114 37.064c.002.732-.487 1.328-1.096 1.329-.606.002-1.101-.59-1.103-1.323-.002-.734.489-1.33 1.095-1.331.609-.001 1.102.591 1.104 1.325" fill="#bf7b47"/></g><circle cx="69.21" cy="11.18" r="10.007" fill="#90a4ae"/></g></g></svg>