<svg xmlns="http://www.w3.org/2000/svg" viewBox="0 0 128 128"><g id="Layer_3"><g><path d="M54.959 39.295c.309-3.919 2.885-7.8 7.02-5.354 3.111 1.839 4.238 5.817 6.966 7.87 2.852 2.147 8.315.181 10.85-2.135 1.477-1.342 2.189-2.833 2.285-4.342.114-1.794-.083-3.863-1.467-5.66-1.967-2.554-5.301-5.866-7.62-7.867-1.067-.921-2.883-2.948-1.674-4.437 1.259-1.551 3.163-.869 4.163-.498 2.76 1.022 5.98 4.555 9.193 7.343 3.797 3.296 4.582 6.676 5.439 11.691.079.46.137.961.203 1.447.396 2.918.269 5.523.52 8.875.274 3.667.648 5.95.004 9.039-1.318 6.319-4.94 12.426-7.705 17.788-.535 1.038-1.307 3.628-2.394 5.09-.787 1.058-4.569.99-6.877-.694-2.658-1.939-7.155-3.606-8.363-6.768-1.485-3.887 3.053-7.771-.175-10.176-3.71-2.764-6.73-3.86-8.146-8.517-1.248-4.104-2.617-7.685-2.222-12.695z" fill="#f8be36"/><path d="M64.548 44.493c-.081.567-.177 3.478-.339 3.357-.794-.594-3.114-2.698-4.283-4.103-.442-.531-1.256-2.406-.82-2.699 1.137.467 2.2 1.114 3.136 1.911.71.604 1.397 1.321 2.306 1.534" fill="#e28a15"/><g><path d="M70.792 54.336l11.444-7.654a1.912 1.912 0 0 0 .816-1.945L75.163 3.775a1.913 1.913 0 0 0-2.944-1.236l-11.444 7.654a1.912 1.912 0 0 0-.816 1.945L67.848 53.1a1.913 1.913 0 0 0 2.944 1.236z" fill="#757575"/><path fill="#757575" d="M70.336 2.215h2.92v3.737h-2.92z"/><path fill="#757575" d="M66.765 50.923h3.011v3.737h-3.011z"/><path d="M67.909 54.336l11.444-7.654a1.912 1.912 0 0 0 .816-1.945L72.281 3.775a1.913 1.913 0 0 0-2.944-1.235l-11.444 7.654a1.912 1.912 0 0 0-.816 1.945l7.889 40.962a1.912 1.912 0 0 0 2.943 1.235z" fill="#b2b2b3"/></g><path d="M81.075 77.465L65.919 65.557a2.676 2.676 0 0 0-3.746.436L39.278 94.857a5.229 5.229 0 0 1-4.762 1.926L0 94.444v32.255l48.272-2.381a6.62 6.62 0 0 0 5.355-2.729l28.189-38.802a3.874 3.874 0 0 0-.741-5.322z" fill="#651fff"/><path d="M87.581 38.359c-.631-1.233-1.864-2.435-2.625-3.172-1.2-1.161-2.517-2.383-3.985-3.197-1.567-.923-3.267-1.587-4.955-2.251-1.754-.688-3.547-1.384-5.429-1.468-.916-.041-1.868.076-2.654.547-1.551.929-1.888 2.895-.655 4.249.79.868 1.94 1.302 3.061 1.647 3.04.934 6.02 1.634 8.57 3.651 2.121 1.677 4.653 5.026 7.77 3.307 1.561-.86 1.522-2.102.902-3.313z" fill="#f8be36"/><path d="M87.741 46.67c-.58-1.217-1.712-2.39-2.41-3.108-1.101-1.132-2.309-2.324-3.655-3.103-1.437-.887-2.994-1.511-4.54-2.136-1.607-.647-3.25-1.302-4.973-1.344-.838-.02-1.71.118-2.428.606-1.418.962-1.721 2.934-.59 4.259.725.849 1.778 1.257 2.805 1.576 2.784.864 5.514 1.497 7.853 3.453 1.945 1.628 4.271 4.914 7.12 3.128 1.427-.896 1.388-2.135.818-3.331z" fill="#f8be36"/><path d="M59.162 41.348c2.56 2.723 6.407 5.529 8.717 3.321 2.174-2.078-.051-5.08-3.361-8.616-1.99-2.125-4.686-3.818-6.687-2.378-1.962 1.411-1.707 4.44 1.331 7.673z" fill="#f8be36"/><path d="M80.623 29.674c-1.967-2.554-5.301-5.866-7.62-7.867-1.067-.921-2.883-2.948-1.674-4.437 1.259-1.551 3.163-.869 4.163-.498 2.76 1.022 5.98 4.555 9.193 7.343 3.797 3.296 4.582 6.676 5.439 11.691.079.46.137.961.203 1.447.037.27.05.529.079.795l-8.312-3.164c.066-1.712-.174-3.626-1.471-5.31z" fill="#f8be36"/><path d="M82.36 54.545c-1.428-.495-1.934-1.014-3.417-1.527-.717-.248-1.689-.281-2.405-.049-1.854.6-2.712 1.856-4.228 2.287-1.05.299-2.534-.757-3.186-.912 0 1.387.75 2.825 2.381 2.825 1.162 0 2.596-.564 3.526-1.263.749-.563 1.314-1.179 2.223-1.406 1.283-.32 2.136.158 3.447.332.436.057 1.821-.231 1.659-.287z" fill="#e28a15"/><path d="M85.264 50.375c-1.566-.704-3.089-1.858-4.655-2.562-1.227-.552-2.554-.924-3.886-.729-.834.122-1.595.535-2.325.957-1.133.656-2.358 1.363-3.263 2.308-.906.945-2.771 3.514-1.675 4.713.578.631 2.346 1.403 5.092-.757 1.457-1.146 3.562-1.757 5.172-.838.669.382 1.247.96 1.995 1.146.59.146 1.22.024 1.779-.214 1.221-.521 2.205-1.677 2.318-3 .036-.43-.123-.982-.552-1.024z" fill="#f8be36"/></g></g></svg>