<svg id="图层_1" xmlns="http://www.w3.org/2000/svg" viewBox="0 0 128 128"><g><path fill="#c4a66a" d="M38.28 47.674L0 43.25V44l37.917 5.792z"/><path id="XMLID_4_" fill="#cfd8dc" d="M119.485 51.613l1.674-7.678-19.009-7.541-1.144 9.8z"/><g><path id="XMLID_440_" fill="#fcc21b" d="M93.911 30.185l-1.489 9.563-8.553-1.733.379-6.659z"/><path id="XMLID_436_" d="M97.916 17.351l-1.452 9.743-2.858 5.499-.975.069a43.51 43.51 0 0 1-11.241-1.014c-2.332-.748-4.055-2.671-4.429-4.942a19.547 19.547 0 0 1 .859-9.766l.928-2.604c.366-5.022 6.641-7.713 10.766-6.631l2.928.915a7.924 7.924 0 0 1 5.474 8.731z" fill="#fcc21b"/><path id="XMLID_435_" d="M95.017 31.573l-1.553 1.487 1.332-7.708a2.443 2.443 0 0 0-1.269-2.577l-.802-.422-1.442 3.02a3.592 3.592 0 0 1-2.369-2.98l-.023-4.544-10.979-2.163s1.466-8.54 9.477-8.553c1.383-.002 2.74.074 4.038.201 6.02.59 10.113 6.388 8.674 12.263-.763 3.115-1.736 6.296-3.314 9.089-.436.77-1.77 2.887-1.77 2.887z" fill="#6d4c41"/><path id="XMLID_434_" d="M85.371 21.77c-.105.749-.692 1.285-1.314 1.198-.619-.087-1.038-.765-.933-1.513.105-.751.694-1.287 1.314-1.2.622.087 1.039.764.933 1.515" fill="#c17b47"/><path id="XMLID_7_" d="M79.472 20.398c-.105.749-.692 1.285-1.314 1.198-.619-.087-1.038-.765-.933-1.513.105-.751.694-1.287 1.314-1.2.622.087 1.039.764.933 1.515" fill="#c17b47"/></g><ellipse transform="scale(-1) rotate(7.666 725.648 -595.8)" cx="39.919" cy="48.617" rx="2.12" ry="6.094" fill="#9b7a26"/><path fill="#cfd8dc" d="M67.799 99.434l-8.754-4.767 16.922-25.69L86.75 79.5z"/><path fill="#cfd8dc" d="M70.438 121.602h-7.521l-4.368-23.79 11.562-.229z"/><path fill="#cfd8dc" d="M95.75 100.083l10.875-1.458-5.456-28.674-13.336 5.799z"/><path fill="#cfd8dc" d="M100.094 119.915h7.428l-.897-21.29-10.875 1.458z"/><path id="XMLID_1_" fill="#cfd8dc" d="M62.045 58.151l6.166 4.396 12.425-17.886-7.686-5.185z"/><path d="M75.021 38.013l4.729-1.578 15.443-1.468 6.497 1.303a3.995 3.995 0 0 1 3.177 4.417l-3.698 29.264-10.714 10.114a2.781 2.781 0 0 1-3.915-.095L75.967 68.977 72.05 42.858a4.417 4.417 0 0 1 2.971-4.845z" fill="#b0bec5"/><circle cx="64.293" cy="97.1" r="5.841" fill="#cfd8dc"/><circle id="XMLID_3_" cx="64.741" cy="60.921" r="3.838" fill="#cfd8dc"/><circle id="XMLID_6_" cx="120.079" cy="47.774" r="3.838" fill="#cfd8dc"/><path id="XMLID_2_" fill="#cfd8dc" d="M49.513 47.495l-4.06 6.392 17.803 10.574 4.06-6.392z"/><path id="XMLID_5_" fill="#cfd8dc" d="M126.488 27.991l-6.424-.23-3.824 19.44 7.628 1.177z"/><g><path d="M85.749 6.587s-7.124.58-9.213 6.781c-2.077 6.166-3.286 17.132 5.047 18.799 0 0 5.518-.93 7.951-11.491 2.841-12.333-3.785-14.089-3.785-14.089z" opacity=".87" fill="#37474f"/><path d="M85.5 6.438s2.945-.559 6.406.344c2.181.569 4.195 2.031 4.195 2.031s3.148 3.25 1.729 11.997C96.669 27.975 93.333 32.167 87.238 34c-4.938-.312-7.8-2.375-7.8-2.375s3.115.094 5.604-3.25c2.667-3.583 3.988-8.167 3.717-15.083-.207-5.288-3.259-6.854-3.259-6.854z" fill="#78909c"/><path d="M88.818 25.125s-2.227 6.232-6.277 7.042c-1.25.25-3.104-.542-3.104-.542l.312 4.809-1.882.628 2.226.601a11.882 11.882 0 0 1 5.135 2.693c.982.877 2.277 1.358 3.588 1.238 1.703-.155 3.929-.969 5.35-3.844 2.562-5.188 1.708-12.625 1.708-12.625h-7.056z" fill="#cfd8dc"/><path d="M90.275 20.832l7.556-.022s-.347 2.648-1.165 4.857a3.586 3.586 0 0 1-3.361 2.347H87.4l2.875-7.182z" fill="#b0bec5"/><path d="M79.579 33.792s2.921 1.791 5.713 1.458 5.44-3.5 6.783-10.125h-3.256s-3.383 6.404-6.059 6.598c-2.676.194-3.321-.098-3.321-.098l.14 2.167z" fill="#b0bec5"/><path d="M85.5 6.438s1.061-.15 1.906-.171c0 0 1.623.359 2.562 2.796.97 2.517 1.432 5.788.307 11.77-1.125 5.982-3.076 8.749-5.252 10.668s-5.509 1.296-5.509 1.296l-.697-.921v-.789s2.1.289 3.641-.503c1.542-.792 4.647-5.146 5.5-10 .542-3.084.709-6.917.042-9.917s-2.5-4.229-2.5-4.229z" fill="#cfd8dc"/></g><path id="XMLID_8_" d="M39.944 49.463l-.049.653a4.493 4.493 0 0 0 4.147 4.813l1.485.11a4.493 4.493 0 0 0 4.813-4.147l.049-.653a4.493 4.493 0 0 0-4.147-4.813l-1.485-.11a4.492 4.492 0 0 0-4.813 4.147z" fill="#cfd8dc"/><path id="XMLID_10_" d="M124.107 19.005a4.493 4.493 0 0 0-5.014 3.903l-.353 2.832a4.493 4.493 0 0 0 8.917 1.11l.353-2.832a4.492 4.492 0 0 0-3.903-5.013z" fill="#cfd8dc"/><path d="M48.718 49.993c.072-.493.463-.829.865-.742l2.348.261c.478.103.778.673.658 1.252-.117.57-.594.923-1.057.782l-2.29-.557c-.363-.112-.59-.543-.524-.996z" fill="#c4a66a"/><path d="M50.341 50.892l.049-.653a4.493 4.493 0 0 0-4.147-4.813l-1.485-.11a4.445 4.445 0 0 0-2.289.456c.131.03 1.302-.292 2.115.437.691.619-.018.823.704 1.656.463.534 1.085-.301 2.15.365.572.358.453.831.5 1.562.035.543.979.327.77 1.417-.151.782-.863 2.073-.863 2.073s.408.558 1.188.188c.821-.748 1.219-1.382 1.308-2.578z" fill="#b0bec5"/><path d="M62.917 121.381l-7.649 2.002a3.086 3.086 0 0 0-2.063 1.997 1.996 1.996 0 0 0 1.897 2.62h15.336v-6.619h-7.521z" fill="#b0bec5"/><path d="M107.375 119.489l4.139 4.704c.28.331.433.75.433 1.183v.283c0 .741-.539 2.342-1.28 2.342h-9.375c-1.833 0-2.698-3.046-2.527-4.165l.028-.18c.207-1.361 1.238-4.165 1.238-4.165h7.344z" fill="#b0bec5"/></g></svg>