<svg xmlns="http://www.w3.org/2000/svg" viewBox="0 0 128 128"><g id="Layer_1"><g><g><circle cx="70.102" cy="78.112" r="5.608" fill="#fbc11b"/><path fill="#fbc11b" d="M71.077 83.629l-2.773-10.826 21.946-8.314 4.331 13.187z"/><path fill="#fbc11b" d="M79.061 101.079l-7.582.017-6.982-22.342 10.902.164z"/><g fill="#444"><path d="M76.044 107.116l-8.547-.006a3.003 3.003 0 0 1-3.001-3.005v-.151a3.003 3.003 0 0 1 3.005-3.001l8.547.006c1.659.001 3.488 1.347 3.487 3.005v.151c-.001 1.658-1.832 3.002-3.491 3.001z"/><path d="M64.496 103.731h15.038v4.158H64.496z"/><path d="M79.535 104.343l-5.515-.004.003-3.381 5.029.003z"/></g><path d="M75.962 69.38c1.776 3.984 3.099 7.477 3.702 12.572 4.731-.867 10.092-2.313 14.534-4.157.702-.291 1.408-.615 1.963-1.134.902-.844 1.297-2.102 1.454-3.327a11.417 11.417 0 0 0-1.425-7.098c-.34-.589-.755-1.167-1.353-1.489-.877-.472-1.948-.301-2.924-.105-4.963.998-11.225 2.994-16.011 4.643" fill="#0091ea"/><path fill="#444" d="M68.304 92.917l9.48-1.304 1.755 9.345.007 4.408-7.773-1.332z"/><path id="XMLID_1583_" fill="#fbc11b" d="M67.465 46.51l.117 6.884 13.949.91v-8.951z"/><circle id="XMLID_1582_" cx="67.814" cy="49.972" r="3.49" fill="#fbc11b"/><path id="XMLID_1581_" transform="rotate(-78.405 62.206 48.863)" fill="#fbc11b" d="M58.76 42.965h6.886v11.796H58.76z"/><circle cx="81.531" cy="49.829" r="4.476" fill="#fbc11b"/><g><circle cx="96.185" cy="87.31" r="5.608" fill="#fbc11b"/><path fill="#fbc11b" d="M101.637 86.023l-10.651 3.382L82.3 67.656l12.341-4.45z"/><path fill="#fbc11b" d="M118.319 89.43l-2.175 7.29-21.631-4.057 3.294-10.394z"/><g fill="#444"><path d="M123.345 94.084l-2.466 8.183a3.004 3.004 0 0 1-3.742 2.009l-.144-.043a3.004 3.004 0 0 1-2.009-3.742l2.466-8.183a3.004 3.004 0 0 1 3.742-2.009l.144.043a3.003 3.003 0 0 1 2.009 3.742z"/><path transform="rotate(-73.232 120.858 97.797)" d="M113.589 95.72h14.553v4.158h-14.553z"/><path transform="rotate(-73.232 119.203 92.325)" d="M116.696 90.637h5.029v3.382h-5.029z"/></g><path fill="#444" d="M107.68 95.469l3.572-8.877 8.984 3.113 3.589 2.603-4.772 5.666z"/></g><g><path id="XMLID_1559_" fill="#fbc11b" d="M83.569 35.672l3.57 8.498-6.15 3.502-9.326-15.76z"/><path id="XMLID_1558_" d="M81.732 26.782l4.022 14.842-9.662 2.698c-4.492 1.254-9.119-1.504-10.152-6.052l-1.251-5.51c-1.157-5.095 2.334-10.076 7.519-10.726l2.058-.258a6.851 6.851 0 0 1 7.466 5.006z" fill="#fbc11b"/><path id="XMLID_1557_" d="M84.805 36.758l-4.74.421-1.1-3.111a3.022 3.022 0 0 0-2.382-1.978h-.001l-.126 3.79a3.173 3.173 0 0 1-2.83-1.276l-1.308-1.77a2.949 2.949 0 0 0-2.423-1.196l-5.38.096s-1.857-7.019 4.835-9.739a36.555 36.555 0 0 1 3.442-1.197c5.232-1.543 10.614 1.919 11.399 7.318v.001c.416 2.86.62 5.75.612 8.64v.001z" fill="#6d4c41"/><path id="XMLID_1556_" d="M69.191 35.213c.165.661-.144 1.308-.693 1.446-.547.137-1.127-.288-1.292-.949-.166-.663.145-1.311.692-1.448.55-.138 1.127.288 1.293.951" fill="#c07b47"/></g><path d="M80.35 43.857c1.004-.295 1.988-.653 3.001-.88 7.226-1.624 10.068 4.405 11.005 6.567 2.732 5.88 3.99 12.073 3.773 18.028-.121 2.982-.775 4.854-4.074 6.774-1.472.857-6.129 1.92-7.743 2.249-3.28.67-4.707-2.768-4.87-5.775-.347-6.379-1.33-10.027-2.776-16.819-1.014-4.766-1.478-9.028 1.684-10.144z" fill="#00b0ff"/><path id="XMLID_1580_" fill="#fbc11b" d="M74.509 59.018l5.529 4.103 9.394-10.924-7.401-5.021z"/><circle id="XMLID_1579_" cx="77.25" cy="61.052" r="3.49" fill="#fbc11b"/><path id="XMLID_1573_" transform="rotate(-95.849 71.565 61.676)" fill="#fbc11b" d="M68.123 55.778h6.886v11.796h-6.886z"/><circle cx="85.635" cy="49.829" r="4.476" fill="#fbc11b"/><path d="M87.911 84.73a185.978 185.978 0 0 0 12.213-4.922c-.875-3.108-1.612-7.061-2.592-9.839-.435-1.233-1.809-2.853-2.894-3.581-.881-.59-1.995-.684-3.055-.706-1.362-.029-2.786.046-3.97.72-.705.401-2.325 1.229-2.784 1.898-1.437 2.09-1.588 4.412-1.119 6.904s2.297 6.788 4.201 9.526z" fill="#00b0ff"/><path d="M50.07 45.92l-.035.19a3.917 3.917 0 0 0 3.154 4.554l2.206.401a3.917 3.917 0 0 0 4.554-3.154l.035-.19a3.917 3.917 0 0 0-3.154-4.554l-2.206-.401a3.918 3.918 0 0 0-4.554 3.154z" fill="#fbc11b"/><g fill="#fbc11b"><path d="M55.75 65.632l-.033-.105a3.803 3.803 0 0 1 2.49-4.767l4.606-1.445a3.803 3.803 0 0 1 4.767 2.49l.033.105a3.803 3.803 0 0 1-2.49 4.767l-4.606 1.445a3.8 3.8 0 0 1-4.767-2.49z"/><path d="M60.961 63.94l-1.28-4.081c-.207-.66.16-1.363.82-1.569l1.751-.549a3.869 3.869 0 0 1 4.848 2.532l.497 1.586-6.636 2.081z"/></g></g><g><circle cx="45.174" cy="78.112" r="5.608" fill="#fbc11b"/><path fill="#fbc11b" d="M44.199 83.629l2.773-10.826-21.946-8.314-4.331 13.187z"/><path fill="#fbc11b" d="M48.628 103.742l6.66-3.623-4.594-22.953-9.486 5.376z"/><g fill="#444"><path d="M50.248 107.116l8.547-.006a3.003 3.003 0 0 0 3.001-3.005v-.151a3.003 3.003 0 0 0-3.005-3.001l-8.547.006a3.003 3.003 0 0 0-3.001 3.005v.151a3.003 3.003 0 0 0 3.005 3.001z"/><path transform="rotate(180 54.52 105.81)" d="M47.244 103.731h14.553v4.158H47.244z"/><path d="M47.241 100.959h5.029v3.382h-5.029z"/></g><path d="M39.314 69.38c-1.776 3.984-3.099 7.477-3.702 12.572-4.731-.867-10.092-2.313-14.534-4.157-.702-.291-1.408-.615-1.963-1.134-.902-.844-1.297-2.102-1.454-3.327a11.417 11.417 0 0 1 1.425-7.098c.34-.589.755-1.167 1.353-1.489.877-.472 1.948-.301 2.924-.105 4.963.998 11.225 2.994 16.011 4.643" fill="#e65100"/><path fill="#444" d="M54.149 91.42l-8.942 3.404 2.943 9.041 2.535 3.638 5.755-4.665z"/><g fill="#fbc11b"><path id="XMLID_1607_" d="M46.713 45.573l.548 6.864-13.796 2.251-.864-8.91z"/><circle id="XMLID_1606_" cx="46.534" cy="49.113" r="3.49"/><path id="XMLID_1605_" transform="rotate(-85.664 52.237 49.588)" d="M48.79 43.688h6.886v11.796H48.79z"/></g><circle cx="33.033" cy="50.233" r="4.476" fill="#fbc11b"/><circle cx="24.699" cy="71.085" r="6.931" fill="#fbc11b"/><g><path id="XMLID_1603_" fill="#fbc11b" d="M26.869 39.334l1.489 9.096 7.071-.3-.47-18.306z"/><path id="XMLID_1602_" d="M23.703 30.826l4.476 14.711 9.619-2.846c4.472-1.323 6.927-6.119 5.387-10.52l-1.867-5.333c-1.726-4.931-7.33-7.297-12.068-5.094l-1.881.874a6.852 6.852 0 0 0-3.666 8.208z" fill="#fbc11b"/><path id="XMLID_1601_" d="M26.398 40.91l4.24-2.162-.721-3.22a3.021 3.021 0 0 1 .967-2.941l2.12 3.144a3.174 3.174 0 0 0 1.72-2.585l.168-2.195a2.948 2.948 0 0 1 1.418-2.3l4.609-2.776s-2.155-6.933-9.269-5.683a36.956 36.956 0 0 0-3.553.814c-5.253 1.472-7.974 7.264-5.771 12.255l.001.001a59.034 59.034 0 0 0 4.07 7.645l.001.003z" fill="#6d4c41"/><path id="XMLID_1600_" d="M38.807 31.307c.211.648.817 1.032 1.356.857.536-.175.802-.842.59-1.491-.212-.65-.819-1.033-1.356-.859-.539.176-.802.843-.59 1.493" fill="#c07b47"/></g><path d="M34.327 43.857c-1.004-.295-2.005-.589-3.001-.88-5.212-1.169-10.069 4.405-11.005 6.567-2.732 5.88-4.649 14.01-4.432 19.965.12 2.982 3.877 5.52 7.651 6.094 1.603.333 3.211.663 4.825.992 3.279.67 4.568-1.964 4.807-4.966.444-5.557.035-12.037 2.278-18.049 1.931-4.472 2.038-8.607-1.123-9.723z" fill="#ff6f00"/><path id="XMLID_1599_" fill="#fbc11b" d="M40.179 61.176l-6.276 2.833-6.854-12.674 8.301-3.331z"/><circle id="XMLID_1598_" cx="37.067" cy="62.581" r="3.49" fill="#fbc11b"/><path id="XMLID_1597_" transform="rotate(-71.862 42.489 64.4)" fill="#fbc11b" d="M39.047 58.502h6.886v11.796h-6.886z"/><circle cx="31.264" cy="49.83" r="4.476" fill="#fbc11b"/><path d="M54.807 67.778l-.063.193a4.123 4.123 0 0 1-5.197 2.644l-1.558-.499a4.123 4.123 0 0 1-2.644-5.197l.063-.193a4.123 4.123 0 0 1 5.197-2.644l1.558.499a4.123 4.123 0 0 1 2.644 5.197z" fill="#fbc11b"/><g fill="#fbc11b"><path d="M66.613 47.375l-.029-.106a3.804 3.804 0 0 0-4.675-2.66l-4.655 1.278a3.804 3.804 0 0 0-2.66 4.675l.029.106a3.804 3.804 0 0 0 4.675 2.66l4.655-1.278a3.804 3.804 0 0 0 2.66-4.675z"/><path d="M61.315 48.773l-1.133-4.124a1.252 1.252 0 0 0-1.539-.876l-1.77.486a3.867 3.867 0 0 0-2.705 4.753l.44 1.603 6.707-1.842z"/></g><g><g><circle cx="30.606" cy="86.189" r="5.608" fill="#fbc11b"/><path fill="#fbc11b" d="M25.971 89.543l9.791-5.387-5.8-14.253-12.41 4.756z"/><path fill="#fbc11b" d="M9.262 91.837l3.343 6.834 20.67-7.555-4.956-9.711z"/><g fill="#444"><path d="M5.068 97.253l3.777 7.667a3.003 3.003 0 0 0 4.021 1.367l.135-.067a3.003 3.003 0 0 0 1.367-4.021l-3.777-7.667a3.003 3.003 0 0 0-4.021-1.367l-.135.067a3.005 3.005 0 0 0-1.367 4.021z"/><path transform="scale(-1) rotate(63.776 161.55 -13.059)" d="M.849 98.432h14.553v4.158H.849z"/><path transform="scale(-1) rotate(63.776 152.437 -14.238)" d="M6.344 93.151h5.029v3.382H6.344z"/></g><path fill="#444" d="M20.749 96.047l-4.982-8.169-8.35 4.546-3.114 3.157 5.638 4.805z"/></g><path d="M34.495 78.705a185.097 185.097 0 0 1-11.984 5.456c-1.337-2.625-3.622-6.878-4.959-9.503-.593-1.165-1.542-7.024 3.868-8.803 4.946-1.627 7.007 1.256 8.49 3.314 1.483 2.058 3.687 7.164 4.585 9.536z" fill="#ff6f00"/></g></g></g></g></svg>