<svg xmlns="http://www.w3.org/2000/svg" viewBox="0 0 128 128"><g id="Layer_3"><g><path d="M76.621 89.323l6.984-4.829a7.57 7.57 0 0 0 1.922-10.53L71.113 53.116 51.677 66.553l14.414 20.849a7.568 7.568 0 0 0 10.53 1.921z" fill="#f57c00"/><g><g><path id="XMLID_1697_" d="M78.093 83.987a3.792 3.792 0 0 1 5.276.963l1.844 2.667-6.238 4.313-1.844-2.667a3.791 3.791 0 0 1 .962-5.276z" fill="#e39400"/></g><g id="XMLID_1688_"><g id="XMLID_1694_" fill="#e39400"><path id="XMLID_1696_" d="M79.734 103.396s-1.636.757-2.724-.816c-.96-1.388-.273-2.673.793-3.41l2.601 3.762-.67.464z"/><path id="XMLID_1695_" d="M95.671 92.378s1.286-1.263.198-2.837c-.96-1.388-2.404-1.199-3.47-.462L95 92.842l.671-.464z"/></g><path id="XMLID_1693_" d="M94.827 108.192c6.297-4.353 4.57-10.374-.171-17.231-4.916-7.11-10.757-5.789-14.132-3.457-3.325 2.299-6.71 7.278-1.758 14.442 4.741 6.857 9.764 10.599 16.061 6.246z" fill="#fac01b"/><path id="XMLID_1692_" d="M88.887 94.008c-.489-.708-.412-1.61.175-2.015.586-.405 1.46-.161 1.949.547.491.71.411 1.614-.176 2.019-.586.405-1.457.159-1.948-.551" fill="#bf7b47"/><g><path id="XMLID_1_" d="M80.982 93.028l2.311-1.583 2.311-1.583c.265-.182.257-.438-.101-.584-.501-.205-1.904-.3-3.262.631-1.359.931-1.777 2.273-1.766 2.815.006.386.242.486.507.304z" fill="#bf7b47"/></g><path id="XMLID_1691_" d="M83.656 97.624c-.489-.708-1.361-.954-1.949-.547-.586.405-.666 1.308-.176 2.016.491.71 1.364.954 1.95.549.588-.406.666-1.308.175-2.018" fill="#bf7b47"/><path id="XMLID_1690_" d="M83.517 94.207c.315-.381.683-.716.997-.933a5.218 5.218 0 0 1 1.225-.603c.2-.068.156-.272.023-.336-.275-.133-1.079-.228-1.739.229-.66.456-.855 1.242-.828 1.546.012.147.187.26.322.097z" fill="#e39400"/><path id="XMLID_1689_" d="M95.256 109.219s.125-.081.178-.118c.054-.036.174-.125.174-.125 6.705-4.829 5.927-10.333 3.967-13.168-1.905-2.755-3.306-4.777-3.306-4.777s-.03.187-.123.48c-.098.313-.269.569-.269.569l-1.934-2.064 1.006 6.296a.09.09 0 0 1-.047.096l-1.445.779a46.024 46.024 0 0 0-4.215 2.58l-.002-.003c-.059.04-.116.083-.175.123-.059.041-.119.079-.177.12l.002.003a46.022 46.022 0 0 0-3.902 3.032l-1.239 1.077a.092.092 0 0 1-.107.01l-5.535-3.165 1.248 2.539s-.3.069-.627.051c-.307-.017-.493-.055-.493-.055s1.397 2.026 3.301 4.781c1.96 2.834 6.835 5.506 13.72.939z" fill="#6d4c41"/></g></g><g><path fill="#fac01b" d="M67.202 32.307l10.58 2.739-5.367 24.594-12.457-3.226z"/><path fill="#fac01b" d="M70.182 9.152l9.229.884-1.472 24.009-10.866-1.04z"/><circle cx="72.492" cy="33.676" r="5.458" fill="#fac01b"/><path d="M73.835 1.77l10.497 1.005a2.442 2.442 0 0 1 2.198 2.664 5.254 5.254 0 0 1-5.731 4.73L70.184 9.153l.454-4.744a2.931 2.931 0 0 1 3.197-2.639z" fill="#fac01b"/><circle cx="66.187" cy="58.027" r="6.434" fill="#fac01b"/><path d="M64.233 65.56a7.653 7.653 0 0 0 9.328-5.491l.005.001 3.194-13.766-14.129-3.659-3.889 13.586a7.654 7.654 0 0 0 5.491 9.329z" fill="#f57c00"/></g><g><path fill="#fac01b" d="M35.426 50.947l-3.201 10.45 23.767 8.293 3.769-12.303z"/><path fill="#fac01b" d="M13.79 42.288l-3.746 8.481 21.659 10.464 4.41-9.986z"/><circle cx="33.826" cy="56.172" r="5.458" fill="#fac01b"/><path d="M5.465 42.086l-4.161 9.421a2.443 2.443 0 0 0 1.247 3.221 5.254 5.254 0 0 0 6.929-2.684l4.308-9.756-4.134-1.826a3.179 3.179 0 0 0-4.189 1.624z" fill="#fac01b"/><circle cx="57.877" cy="63.538" r="6.434" fill="#fac01b"/><path d="M65.318 65.815a7.654 7.654 0 0 1-9.56 5.077l-.002.005-13.403-4.481 4.274-13.955 13.613 3.794a7.654 7.654 0 0 1 5.078 9.56z" fill="#f57c00"/></g><g><g><path id="XMLID_1699_" fill="#fac01b" d="M114.686 90.458l2.246-5.611-11.656-5.167-2.592 6.479z"/><path fill="#fac01b" d="M104.633 79.468l-1.439 6.828-18.06-3.327 1.631-7.743z"/><circle cx="103.913" cy="82.882" r="3.489" fill="#fac01b"/><circle cx="85.95" cy="79.096" r="3.955" fill="#fac01b"/><path d="M80.938 78.038a4.776 4.776 0 0 0 3.689 5.658l-.001.003 8.672 1.598 1.877-8.911-8.579-2.037a4.777 4.777 0 0 0-5.658 3.689z" fill="#f57c00"/><g fill="#fac01b"><path d="M126.611 91.766l-.044.11a4.094 4.094 0 0 1-5.321 2.281l-4.824-1.929a4.094 4.094 0 0 1-2.281-5.321l.044-.11a4.094 4.094 0 0 1 5.321-2.281l4.824 1.929a4.093 4.093 0 0 1 2.281 5.321z"/><path d="M121.114 89.631l-1.709 4.275a1.348 1.348 0 0 1-1.752.751l-1.834-.733a4.163 4.163 0 0 1-2.32-5.411l.664-1.661 6.951 2.779z"/></g></g></g><g><path id="XMLID_1687_" fill="#fac01b" d="M73.857 124.98l-6.044.002-.47-12.741 6.978-.002z"/><path fill="#fac01b" d="M67.344 112.239h6.979l.467-18.358h-7.913z"/><circle cx="70.834" cy="112.239" r="3.489" fill="#fac01b"/><circle cx="70.832" cy="93.881" r="3.955" fill="#fac01b"/><path d="M70.832 84.804a4.776 4.776 0 0 1 4.776 4.776h.003l-.224 8.815H66.28l-.224-8.815a4.776 4.776 0 0 1 4.776-4.776z" fill="#f57c00"/><circle cx="70.832" cy="124.981" r="3.019" fill="#fac01b"/><path d="M61.725 124.191h9.107V128h-9.107a1.904 1.904 0 1 1 0-3.809z" fill="#fac01b"/></g><path fill="#e65100" d="M78.868 64.326L59.431 77.764l-2.648-3.817L76.22 60.509z"/></g></g></svg>