<svg xmlns="http://www.w3.org/2000/svg" xmlns:xlink="http://www.w3.org/1999/xlink" viewBox="0 0 128 128"><g id="Layer_2"><g><g><g fill="#fac01b"><path id="XMLID_155_" d="M31.039 53.4l-5.317 8.707 23.492 16.347 7.237-14.064z"/><circle id="XMLID_154_" cx="28.403" cy="57.718" r="5.171"/><path id="XMLID_153_" d="M28.709 35.51l-9.995 2.043 4.714 21.513 9.995-2.043z"/><path id="XMLID_152_" d="M14.348 30.199l-.203.254a6.476 6.476 0 0 0 1.015 9.101l2.856 2.283a6.476 6.476 0 0 0 9.101-1.015l.203-.254a6.476 6.476 0 0 0-1.015-9.101l-2.856-2.283a6.476 6.476 0 0 0-9.101 1.015z"/><circle cx="52.832" cy="71.422" r="7.909"/></g><g fill="#fac01b"><path id="XMLID_151_" d="M97.888 96.205l5.578-8.542-22.985-17.051-7.66 13.839z"/><circle id="XMLID_150_" cx="100.654" cy="91.97" r="5.171"/><path id="XMLID_149_" d="M102.459 114.248l9.764-2.955-6.675-20.987-9.765 2.955z"/><path id="XMLID_148_" d="M117.248 118.214l.179-.271a6.475 6.475 0 0 0-1.849-8.968l-3.054-2.01a6.475 6.475 0 0 0-8.968 1.849l-.178.271a6.475 6.475 0 0 0 1.849 8.968l3.054 2.01a6.475 6.475 0 0 0 8.967-1.849z"/><circle cx="76.651" cy="77.531" r="7.909"/></g><g fill="#fac01b"><path d="M65.085 81.424l17.41 5.489-10.265 32.558-34.735-10.951L47.76 75.962z"/><path id="XMLID_147_" d="M63.927 63.982c2.188.259 10.17 2.775 12.11 3.818 6.137 3.298 10.013 7.686 8.077 13.829l-6.597 20.926-17.369-5.471-17.366-5.48 6.597-20.926c1.937-6.143 7.629-7.515 14.548-6.696z"/></g><g><g><path id="XMLID_146_" d="M69.065 74.867a5.483 5.483 0 0 0 5.883-5.051l.356-4.674-10.935-.832-.356 4.674a5.485 5.485 0 0 0 5.052 5.883z" fill="#e39400"/></g><g id="XMLID_136_"><path id="XMLID_144_" d="M72.244 30.122s.223.01.319.018c.096.006.318.03.318.03 11.634 1.621 13.653 8.388 14.034 12.984.412 4.983.337 8.648.337 8.648s-.18-.218-.52-.527c-.362-.329-.776-.53-.776-.53l-.938 4.118-3.447-8.873a.137.137 0 0 0-.133-.089l-2.449.085c-2.462.085-4.924.03-7.376-.149v.005c-.106-.007-.212-.019-.318-.027-.106-.008-.213-.013-.319-.022v-.005a68.828 68.828 0 0 1-7.314-.968l-2.408-.454a.136.136 0 0 0-.145.068l-4.749 8.249-.304-4.212s-.439.137-.847.407c-.383.254-.594.442-.594.442s.229-3.856 1.653-8.649c1.353-4.553 4.544-10.717 15.976-10.549z" fill="#6d4c41"/><g id="XMLID_141_" fill="#e39400"><path id="XMLID_143_" d="M56.625 48.322s-2.679.257-2.896 3.104c-.191 2.512 1.662 3.65 3.591 3.797l.518-6.809-1.213-.092z"/><path id="XMLID_142_" d="M85.466 50.516s2.609.659 2.393 3.507c-.191 2.512-2.195 3.357-4.124 3.21l.518-6.809 1.213.092z"/></g><path id="XMLID_140_" d="M72.464 30.769c11.396.867 13.706 9.928 12.762 22.338-.979 12.868-9.504 15.567-15.61 15.102-6.017-.458-14.132-4.326-13.146-17.29.944-12.41 4.598-21.017 15.994-20.15z" fill="#fac01b"/><path id="XMLID_139_" d="M75.495 53.526c-.097 1.281.681 2.385 1.743 2.466 1.061.081 2.003-.892 2.101-2.174.098-1.285-.686-2.389-1.747-2.47-1.063-.08-1.999.893-2.097 2.178" fill="#444"/><path id="XMLID_138_" d="M66.028 52.806c-.097 1.281-1.035 2.255-2.1 2.174-1.06-.081-1.844-1.185-1.746-2.466.098-1.285 1.039-2.258 2.099-2.177 1.065.08 1.845 1.184 1.747 2.469" fill="#444"/><path id="XMLID_137_" d="M68.423 57.315c.693.254 1.42.408 1.987.451s1.309.001 2.033-.145c.309-.063.406.233.283.416-.255.378-1.22 1.107-2.414 1.016-1.194-.091-2.038-.957-2.233-1.369-.093-.2.048-.478.344-.369z" fill="#e39400"/><path d="M55.901 48.46c.741-.427 1.255-1.148 1.864-1.748 1.963-1.934 4.842-2.559 7.574-2.921 3.817-.506 7.746-.663 11.478.289 3.731.952 7.271 3.122 9.237 6.433" fill="none"/><path d="M72.881 29.17s-.222-.024-.318-.03c-.096-.008-.319-.018-.319-.018-12.072-.355-16.08 7.13-16.976 11.549-.993 4.9-.653 8.649-.653 8.649s.211-.188.594-.442c.408-.27.847-.407.847-.407s3.663-3.314 7.497-4.648c3.914-1.362 11.944-.749 15.175.912 3.425 1.76 5.146 2.919 7.229 6.01 0 0 .413.201.776.53.34.309.52.527.52.527s.72-3.649.663-8.648c-.044-3.793-2.757-12.292-15.035-13.984z" fill="#ef6c00"/></g></g><g><defs><circle id="SVGID_55_" cx="28.56" cy="23.966" r="16"/></defs><use xlink:href="#SVGID_55_" overflow="visible" fill="#ff9100"/><clipPath id="SVGID_1_"><use xlink:href="#SVGID_55_" overflow="visible"/></clipPath><g clip-path="url(#SVGID_1_)" fill="none" stroke="#5c6bc0" stroke-width=".787"><g><path d="M28.545 23.98a19.122 19.122 0 0 1-1.553-7.573c0-3.17.769-6.16 2.13-8.794"/><path d="M27.642 11.447c.324-.016.65-.025.978-.025 6.487 0 12.222 3.221 15.693 8.15"/><path d="M27.078 18.19c.509-.04 1.023-.061 1.542-.061 6.62 0 12.457 3.354 15.904 8.456"/></g><g><path d="M28.534 23.969a19.11 19.11 0 0 1 7.335 2.442 19.106 19.106 0 0 1 6.551 6.242"/><path d="M39.84 29.453c-.148.289-.304.575-.468.86-3.244 5.618-8.9 8.974-14.905 9.515"/><path d="M34.283 25.594c-.219.461-.459.917-.718 1.366-3.31 5.733-9.134 9.111-15.275 9.545"/></g><g><path d="M28.55 23.965a19.108 19.108 0 0 1-5.782 5.131 19.095 19.095 0 0 1-8.681 2.552"/><path d="M18.147 31.014a19.979 19.979 0 0 1-.51-.835c-3.244-5.618-3.322-12.195-.788-17.666"/><path d="M24.268 28.131c-.289-.42-.564-.855-.824-1.305-3.31-5.733-3.324-12.466-.629-18.001"/></g></g></g></g><path d="M96.007 99.364c-6.062 0-9.43-7.188-15.997-7.188s-9.935 7.188-15.996 7.188-9.429-7.188-15.996-7.188-9.935 7.188-15.997 7.188-9.429-7.188-15.996-7.188S6.09 99.364.029 99.364L0 128h127.927V99.359c-6.015-.059-9.383-7.183-15.923-7.183-6.567 0-9.935 7.188-15.997 7.188z" fill="#039be5"/><g id="XMLID_128_" fill="#29b6f6"><g id="XMLID_130_"><path id="XMLID_135_" d="M127.971 108.7c-6.062 0-9.429 7.189-15.996 7.189h15.996V108.7z"/><path id="XMLID_134_" d="M111.975 115.889c-6.567 0-9.935-7.189-15.996-7.189s-9.43 7.189-15.996 7.189h31.992z"/><path id="XMLID_133_" d="M79.982 115.889c-6.567 0-9.935-7.189-15.996-7.189s-9.429 7.189-15.996 7.189h31.992z"/><path id="XMLID_132_" d="M47.989 115.889c-6.567 0-9.935-7.189-15.996-7.189s-9.43 7.189-15.996 7.189h31.992z"/><path id="XMLID_131_" d="M15.996 115.889c-6.567 0-9.935-7.189-15.996-7.189v7.189h15.996z"/></g><path id="XMLID_129_" d="M0 115.889h128V128H0z"/></g><g><path id="XMLID_127_" d="M74.314 61.284l-4.149-.31-4.149-.31c-.476-.036-.704.269-.425.771.39.704 1.928 2.115 4.368 2.297 2.439.182 4.17-.985 4.66-1.623.351-.454.171-.789-.305-.825z" fill="#513f35"/></g></g></g></svg>