<svg xmlns="http://www.w3.org/2000/svg" xmlns:xlink="http://www.w3.org/1999/xlink" viewBox="0 0 128 128"><g id="Layer_3"><g><path id="XMLID_1366_" d="M30.274 57.931s3.798 38.445 10.519 55.829c3.313 8.568 6.902 13.817 13.671 7.606l28.327-3.084c7.85 4.849 12.552-1.008 13.232-10.21 1.606-21.728-1.825-56.456-1.825-56.456l-63.924 6.315z" fill="#6d4c41"/><g><path d="M103.817 116.806c0-16.769-11.212-30.593-25.935-30.593-2.401 0-8.144-.214-13.882-.322V128h25.04l.003-7.598c3.759 4.897 7.605 7.598 11.802 7.588 1.341-.003 2.972-.044 2.972.01v-11.194z" fill="#651fff"/><g><g fill="#fac01b"><path id="XMLID_1375_" d="M107.68 75.672c3.537-.688 5.671-1.746 9.573-4.843.056.158 6.989-5.959 9.927-11.382 1.038-1.916-.441-3.741-1.618-2.417-3.031 4.094-8.775 8.622-8.928 8.341-.698-2.437-3.658-1.118-5.199-.157a37.295 37.295 0 0 1-7.338 3.731c-4.42 1.421-.946 7.368 3.583 6.727z"/><path d="M104.137 68.93s-1.949.376-2.606 2.87c-.234.887-.208 2.036-.144 3.564l-.016 1.784 5.533 1.916 4.757-1.123s.919-3.676 2.877-5.099l-4.893-1.277-5.508-2.635z"/></g><g><defs><path id="XMLID_1374_" d="M102.766 128c6.513 0 11.757-5.348 11.629-11.86l-.256-39.467a1.427 1.427 0 0 0-1.327-1.381l-11.736-.684a1.427 1.427 0 0 0-1.516 1.259l-5.455 42.128c-.763 5.277 3.329 10.005 8.661 10.005z"/></defs><use xlink:href="#XMLID_1374_" overflow="visible" fill="#651fff"/><clipPath id="XMLID_3_"><use xlink:href="#XMLID_1374_" overflow="visible"/></clipPath></g></g><path id="XMLID_1_" opacity=".54" d="M94.257 108.604l.968 1.105 1.868-13.587-2.424-2.763z"/></g><path d="M24.183 116.806c0-16.769 11.212-30.593 25.935-30.593 2.401 0 8.144-.214 13.882-.322V128H38.96l-.003-7.598c-3.759 4.897-7.605 7.598-11.802 7.588-1.341-.003-2.972-.044-2.972.01v-11.194z" fill="#651fff"/><ellipse id="XMLID_1365_" transform="rotate(-5.641 62.32 54.587)" cx="62.308" cy="54.578" rx="32.118" ry="28.873" fill="#6d4c41"/><path id="XMLID_1361_" d="M64.412 102.064c-4.821 0-8.641-3.909-8.641-8.73v-7.532h17.282v7.532c-.001 4.821-3.82 8.73-8.641 8.73z" fill="#e39700"/><g><path id="XMLID_1360_" d="M57.66 33.443c-19.373 3.823-21.478 19.842-17.315 40.939 4.164 21.097 20.462 24.567 29.876 22.709 9.415-1.858 23.172-11.26 19.008-32.357-4.162-21.097-12.196-35.115-31.569-31.291z" fill="#fac01b"/><path id="XMLID_1357_" d="M68.318 48.534c-2.088 2.984-12.605 17.039-29.642 23.528L34.01 48.423s4.63-16.602 22.893-20.207 28.929 10.375 28.929 10.375l4.59 23.258s-12.873-2.231-21.306-13.322a.491.491 0 0 0-.798.007z" fill="#6d4c41"/><path id="XMLID_1346_" d="M69.575 77.156c-1.154.587-2.388 1.006-3.368 1.2-.979.193-2.281.275-3.571.17-.552-.045-.659.491-.407.783.522.606 2.355 1.674 4.416 1.267 2.062-.407 3.351-2.091 3.604-2.85.122-.367-.181-.821-.674-.57z" fill="#e39400"/><path id="XMLID_1345_" d="M71.013 87.595c.284 1.44-.942 1.994-2.527 2.307s-2.936.235-3.214-1.174c-.292-1.481.812-2.652 2.397-2.965 1.585-.313 3.045.319 3.344 1.832z" fill="#513f35"/><path id="XMLID_1344_" d="M56.599 72.072c.446 2.262-.706 4.395-2.581 4.765-1.873.37-3.759-1.164-4.206-3.426-.448-2.268.714-4.403 2.588-4.773 1.876-.369 3.751 1.166 4.199 3.434" fill="#444"/><path id="XMLID_1337_" d="M73.313 68.773c.446 2.262 2.325 3.797 4.205 3.426 1.871-.369 3.033-2.504 2.586-4.766-.448-2.268-2.333-3.802-4.204-3.432-1.88.371-3.034 2.504-2.587 4.772" fill="#444"/></g><g><g fill="#fac01b"><path id="XMLID_1372_" d="M20.32 75.672c-3.537-.688-5.671-1.746-9.573-4.843-.056.158-6.989-5.959-9.927-11.382-1.038-1.916.441-3.741 1.618-2.417 3.031 4.094 8.775 8.622 8.928 8.341.698-2.437 3.658-1.118 5.199-.157a37.295 37.295 0 0 0 7.338 3.731c4.42 1.421.946 7.368-3.583 6.727z"/><path d="M23.863 68.93s1.949.376 2.606 2.87c.234.887.208 2.036.144 3.564l.016 1.784-5.533 1.916-4.757-1.123s-.919-3.676-2.877-5.099l4.893-1.277 5.508-2.635z"/></g><g><defs><path id="XMLID_1371_" d="M25.234 128c-6.513 0-11.757-5.348-11.629-11.86l.256-39.467a1.427 1.427 0 0 1 1.327-1.381l11.736-.684a1.427 1.427 0 0 1 1.516 1.259l5.455 42.128c.763 5.277-3.329 10.005-8.661 10.005z"/></defs><use xlink:href="#XMLID_1371_" overflow="visible" fill="#651fff"/><clipPath id="XMLID_4_"><use xlink:href="#XMLID_1371_" overflow="visible"/></clipPath></g></g><path id="XMLID_1373_" opacity=".54" d="M33.743 108.604l-.968 1.105-1.868-13.587 2.424-2.763z"/></g></g></svg>