<svg xmlns="http://www.w3.org/2000/svg" viewBox="0 0 128 128"><g id="Layer_3"><g><path id="XMLID_5033_" d="M40.716 28.338s0 27.929 3.6 40.914c1.774 6.4 3.983 10.431 9.295 6.444l20.599-.205c5.303 4.047 9.102.167 10.246-6.405 2.7-15.518 2.7-40.747 2.7-40.747h-46.44z" fill="#6d4c41"/><g><g><path d="M55.166 61.365c-6.807 1.559-12.315 2.502-15.745 7.657-3.861 5.803-3.191 11.733-4.688 17.27-2.306 8.528-4.039 12.917-2.137 23.649.171.964 1.121 1.795 2.084 2.039 1.637.327 3.713.005 6.103-.198.325 4.952 1.939 12.103 4.791 16.218H66l-1.999-67.96c-3.459.119-5.506.583-8.835 1.325z" fill="#a800ff"/><g opacity=".54"><linearGradient id="SVGID_1_" gradientUnits="userSpaceOnUse" x1="39.785" y1="96.861" x2="45.023" y2="96.861"><stop offset="0" stop-color="#fff"/><stop offset="1"/></linearGradient><path d="M45.023 81.939c0 13.14-5.238 19.162-5.238 29.843" fill="url(#SVGID_1_)" stroke="#000" stroke-width="2" stroke-miterlimit="10"/></g><g><path id="XMLID_1433_" d="M35.055 111.011c.013 2.67.489 4.371 2.207 7.64-.123.019 3.376 5.912 6.92 8.799 1.252 1.02 2.785.195 1.983-.845-2.563-2.772-5.068-7.58-4.843-7.652 1.871-.172 1.319-2.51.831-3.765-.794-1.923-1.167-2.83-1.506-4.8-.323-2.191-5.431-1.624-5.592.623z" fill="#fac01b"/></g></g><g><path d="M72.834 61.365c6.807 1.559 12.315 2.502 15.745 7.657 3.861 5.803 3.191 11.733 4.688 17.27 2.306 8.528 4.039 12.917 2.137 23.649-.171.964-1.121 1.795-2.084 2.039-1.637.327-3.713.005-6.103-.198-.325 4.952-1.939 12.103-4.791 16.218H62l1.999-67.96c3.459.119 5.506.583 8.835 1.325z" fill="#a800ff"/><g opacity=".54"><linearGradient id="SVGID_2_" gradientUnits="userSpaceOnUse" x1="-2246.335" y1="96.861" x2="-2241.097" y2="96.861" gradientTransform="matrix(-1 0 0 1 -2158.12 0)"><stop offset="0" stop-color="#fff"/><stop offset="1"/></linearGradient><path d="M82.977 81.939c0 13.14 5.238 19.162 5.238 29.843" fill="url(#SVGID_2_)" stroke="#000" stroke-width="2" stroke-miterlimit="10"/></g><g><path id="XMLID_1434_" d="M92.945 111.011c-.013 2.67-.489 4.371-2.207 7.64.123.019-3.376 5.912-6.92 8.799-1.252 1.02-2.785.195-1.983-.845 2.563-2.772 5.068-7.58 4.843-7.652-1.871-.172-1.319-2.51-.831-3.765.794-1.923 1.167-2.83 1.506-4.8.323-2.191 5.431-1.624 5.592.623z" fill="#fac01b"/></g></g></g><path id="XMLID_5023_" d="M63.939 67.304a6.3 6.3 0 0 1-6.3-6.3v-5.386h12.6v5.386a6.3 6.3 0 0 1-6.3 6.3z" fill="#e39700"/><ellipse id="XMLID_5022_" cx="64.001" cy="28.202" rx="23.22" ry="20.874" fill="#6d4c41"/><path id="XMLID_5021_" d="M64.001 12.356c-14.276 0-18.012 11.067-18.012 26.613s11.074 20.289 18.012 20.289c6.938 0 18.012-4.743 18.012-20.289 0-15.546-3.736-26.613-18.012-26.613z" fill="#fac01b"/><path id="XMLID_5020_" d="M57.841 39.606c0 1.667-1.116 3.019-2.498 3.019-1.381 0-2.503-1.352-2.503-3.019 0-1.671 1.123-3.023 2.503-3.023 1.383 0 2.498 1.352 2.498 3.023" fill="#444"/><path id="XMLID_5019_" d="M70.158 39.606c0 1.667 1.117 3.019 2.503 3.019 1.379 0 2.501-1.352 2.501-3.019 0-1.671-1.122-3.023-2.501-3.023-1.386 0-2.503 1.352-2.503 3.023" fill="#444"/><path id="XMLID_5018_" d="M69.448 24.552c-1.899 1.824-11.325 10.32-24.318 12.538V19.671S50.738 8.543 64.196 8.543s19.066 11.408 19.066 11.408V37.09s-8.818-3.385-13.247-12.431a.355.355 0 0 0-.567-.107z" fill="#6d4c41"/><path id="XMLID_5017_" d="M69.415 49.806h-5.414-5.414c-.621 0-.887.417-.477 1.042.575.875 2.707 2.558 5.89 2.558s5.316-1.683 5.89-2.558c.412-.625.146-1.042-.475-1.042z" fill="#4c3734"/><path id="XMLID_5016_" d="M66.617 45.541c-.921.261-1.877.388-2.615.388s-1.694-.127-2.615-.388c-.394-.112-.549.262-.408.51.292.514 1.469 1.552 3.023 1.552s2.73-1.037 3.023-1.552c.14-.248-.014-.621-.408-.51z" fill="#e28a15"/><g opacity=".3"><path d="M50.608 95.269c8.334-5.966 18.453-5.966 26.785 0" fill="none" stroke="#000" stroke-width="2" stroke-miterlimit="10"/></g></g></g></svg>