<svg xmlns="http://www.w3.org/2000/svg" viewBox="0 0 128 128"><g id="Layer_3"><g id="XMLID_1445_"><g id="XMLID_1447_"><path d="M106.911 66.042s7.869 1.363 7.869 9.836c0 7.475-5.74 10.426-11.48 10.426V66.042h3.611z" fill="#e39400"/></g><g id="XMLID_1446_"><path d="M21.089 66.042s-7.869 1.363-7.869 9.836c0 7.475 5.74 10.426 11.48 10.426V66.042h-3.611z" fill="#e39400"/></g></g><g id="XMLID_1444_"><path d="M64.002 14.868c-33.112 0-42.954 23.356-42.954 58.912s26.862 48.359 42.954 48.359c16.092 0 42.614-13.137 42.614-48.693.001-35.557-9.502-58.578-42.614-58.578z" fill="#e1f5fe"/></g><g id="XMLID_1443_"><path d="M49.912 77.192c0 3.813-2.552 6.904-5.713 6.904-3.157 0-5.725-3.091-5.725-6.904 0-3.823 2.568-6.914 5.725-6.914 3.161 0 5.713 3.091 5.713 6.914" fill="#e1f5fe"/></g><g id="XMLID_1442_"><path d="M78.081 77.192c0 3.813 2.555 6.904 5.725 6.904 3.154 0 5.721-3.091 5.721-6.904 0-3.823-2.567-6.914-5.721-6.914-3.17 0-5.725 3.091-5.725 6.914" fill="#e1f5fe"/></g><g id="XMLID_1441_"><path d="M76.381 100.519H64 51.619c-1.42 0-2.029.954-1.091 2.384 1.314 2.002 6.192 5.85 13.472 5.85 7.28 0 12.158-3.848 13.472-5.85.939-1.43.329-2.384-1.091-2.384z" fill="#e1f5fe"/></g><g id="XMLID_1440_"><path d="M69.981 89.994c-2.107.597-4.293.888-5.981.888-1.689 0-3.874-.291-5.981-.888-.901-.255-1.255.598-.932 1.166.668 1.176 3.359 3.549 6.913 3.549 3.554 0 6.245-2.373 6.913-3.549.323-.568-.031-1.421-.932-1.166z" fill="#e1f5fe"/></g><g id="XMLID_1439_"><path d="M64.002 14.868c-33.112 0-42.954 23.356-42.954 58.912s26.862 48.359 42.954 48.359c16.092 0 42.614-13.137 42.614-48.693.001-35.557-9.502-58.578-42.614-58.578z" fill="#fac01b"/></g><g id="XMLID_1438_"><path d="M49.912 77.192c0 3.813-2.552 6.904-5.713 6.904-3.157 0-5.725-3.091-5.725-6.904 0-3.823 2.568-6.914 5.725-6.914 3.161 0 5.713 3.091 5.713 6.914" fill="#444"/></g><g id="XMLID_1437_"><path d="M78.081 77.192c0 3.813 2.555 6.904 5.725 6.904 3.154 0 5.721-3.091 5.721-6.904 0-3.823-2.567-6.914-5.721-6.914-3.17 0-5.725 3.091-5.725 6.914" fill="#444"/></g><g id="XMLID_1436_"><path d="M76.381 100.519H64 51.619c-1.42 0-2.029.954-1.091 2.384 1.314 2.002 6.192 5.85 13.472 5.85 7.28 0 12.158-3.848 13.472-5.85.939-1.43.329-2.384-1.091-2.384z" fill="#513f35"/></g><g id="XMLID_1435_"><path d="M69.981 89.994c-2.107.597-4.293.888-5.981.888-1.689 0-3.874-.291-5.981-.888-.901-.255-1.255.598-.932 1.166.668 1.176 3.359 3.549 6.913 3.549 3.554 0 6.245-2.373 6.913-3.549.323-.568-.031-1.421-.932-1.166z" fill="#e39400"/></g><g opacity=".5"><g><path d="M49.742 54.713a1.501 1.501 0 0 1-.35-2.959 62.115 62.115 0 0 1 28.88 0 1.499 1.499 0 0 1 1.108 1.809 1.496 1.496 0 0 1-1.81 1.108 59.123 59.123 0 0 0-27.478 0 1.45 1.45 0 0 1-.35.042z" fill="#e39400"/></g></g><g opacity=".5"><g><path d="M79.501 63.88c-.115 0-.233-.014-.352-.042a65.932 65.932 0 0 0-30.633 0 1.5 1.5 0 1 1-.702-2.917 68.925 68.925 0 0 1 32.035 0 1.5 1.5 0 0 1-.348 2.959z" fill="#e39400"/></g></g><g><g><g opacity=".5"><path d="M40.249 109.646a1.5 1.5 0 0 1-1.473-1.794C41.057 96.451 49.7 91.76 50.067 91.565a1.5 1.5 0 0 1 1.406 2.65c-.091.049-7.766 4.275-9.756 14.225a1.499 1.499 0 0 1-1.468 1.206z" fill="#e39400"/></g><g opacity=".5"><path d="M42.747 90.546a1.5 1.5 0 0 1 0-3c5.375 0 7.657-4.12 7.68-4.162a1.5 1.5 0 1 1 2.64 1.424c-.126.233-3.173 5.738-10.32 5.738z" fill="#e39400"/></g></g><g><g opacity=".5"><path d="M87.416 109.646a1.5 1.5 0 0 1-1.469-1.206c-1.991-9.958-9.679-14.184-9.756-14.225a1.501 1.501 0 0 1-.617-2.028 1.496 1.496 0 0 1 2.023-.622c.367.194 9.012 4.886 11.291 16.287a1.5 1.5 0 0 1-1.472 1.794z" fill="#e39400"/></g><g opacity=".5"><path d="M84.918 90.546c-7.146 0-10.194-5.505-10.32-5.738a1.5 1.5 0 0 1 2.637-1.429c.106.192 2.386 4.168 7.683 4.168a1.5 1.5 0 0 1 0 2.999z" fill="#e39400"/></g></g></g><g><path d="M55.625 82.363l.042 2.375c1.748-1.771 5.087-3.344 8.333-3.344v-2c-3.77 0-6.229 1.114-8.375 2.969z" fill="#757575"/></g><g><path d="M72.375 82.363l-.042 2.375c-1.748-1.771-5.087-3.344-8.333-3.344v-2c3.77 0 6.229 1.114 8.375 2.969z" fill="#757575"/></g><g><g opacity=".5"><ellipse cx="43.667" cy="84.484" rx="12" ry="6.38" fill="#fafafa"/></g><g opacity=".8"><path d="M43.667 78.104c6.008 0 10.971 2.35 11.848 5.415.09-.316.152-.636.152-.966 0-3.524-5.373-6.38-12-6.38s-12 2.856-12 6.38c0 .329.061.65.152.966.877-3.065 5.839-5.415 11.848-5.415z" fill="#fff"/></g></g><g><g opacity=".8"><path d="M84.333 78.104c6.008 0 10.971 2.35 11.848 5.415.09-.316.152-.636.152-.966 0-3.524-5.373-6.38-12-6.38s-12 2.856-12 6.38c0 .329.061.65.152.966.877-3.065 5.84-5.415 11.848-5.415z" fill="#fff"/></g><g opacity=".5"><ellipse cx="84.333" cy="84.484" rx="12" ry="6.38" fill="#fafafa"/></g></g><g><path d="M31.646 84.504c-.409-.072-10.045-1.939-12.632-17.487l1.973-.328c2.357 14.166 10.919 15.83 11.005 15.845l-.346 1.97z" fill="#757575"/></g><g><path d="M96.346 84.504L96 82.533l.173.985-.179-.984c.354-.065 8.669-1.774 11.011-15.846l1.973.328c-2.587 15.548-12.223 17.416-12.632 17.488z" fill="#757575"/></g><g><path d="M63.126 12.537C30 12.537 8.583 36.352 16.27 62.458c.105-.026.226-.014.314-.078 14.853-10.922 31.583-35.876 47.49-38.542V12.519c-.287-.002-.948.018-.948.018z" fill="#bf360c"/></g><g><path d="M46.892 16.929c-6.323 2.379-3.415 13.804-7.644 16.513-5.12 3.28-14.212-1.893-18.231 2.671-3.28 3.725.964 9.76-.524 14.67-1.424 4.702-10.283 4.941-10.346 11.773-.043 4.638 5.259 5.603 6.683 10.305v.001c.131.692.27 1.381.418 2.064.364 1.675 2.752 1.656 3.076-.027 2.272-11.798 9.554-24.076 21.53-27.837 6.804-2.137 22.218-2.419 22.218-11.734V23.836c-5.171.001-10.928-9.26-17.18-6.907z" fill="#eee"/></g><g><path d="M65.061 12.538c34.515 0 56.83 24.881 48.821 52.154-.109-.028-.236-.014-.327-.082C98.08 53.2 80.648 26.623 64.074 23.837V12.519c.298-.002.987.019.987.019z" fill="#bf360c"/></g><g><path d="M81.256 16.929c6.323 2.379 3.415 13.804 7.644 16.513 5.12 3.28 14.212-1.893 18.231 2.671 3.28 3.725-.964 9.76.524 14.67 1.424 4.702 10.283 4.941 10.346 11.773.043 4.638-5.259 5.603-6.683 10.305v.001c-.131.692-.27 1.381-.418 2.064-.364 1.675-2.752 1.656-3.076-.027-2.272-11.798-9.554-24.076-21.53-27.837-6.804-2.137-22.218-2.419-22.218-11.734V23.836c5.171.001 10.927-9.26 17.18-6.907z" fill="#eee"/></g></g></svg>