<svg xmlns="http://www.w3.org/2000/svg" xmlns:xlink="http://www.w3.org/1999/xlink" viewBox="0 0 128 128"><g id="Layer_3"><g><g id="XMLID_176_" fill="#e39400"><path id="XMLID_178_" d="M106.911 66.042s7.869 1.363 7.869 9.836c0 7.475-5.74 10.426-11.48 10.426V66.042h3.611z"/><path id="XMLID_177_" d="M21.089 66.042s-7.869 1.363-7.869 9.836c0 7.475 5.74 10.426 11.48 10.426V66.042h-3.611z"/></g><path id="XMLID_175_" d="M64 10.547c-33.91 0-42.784 26.288-42.784 63.216 0 38.292 24.613 48.194 42.784 48.194 17.905 0 42.784-9.617 42.784-48.194 0-36.928-8.874-63.216-42.784-63.216z" fill="#fac01b"/><path id="XMLID_174_" d="M49.911 77.192c0 3.813-2.552 6.904-5.713 6.904-3.157 0-5.725-3.091-5.725-6.904 0-3.823 2.568-6.914 5.725-6.914 3.162 0 5.713 3.091 5.713 6.914" fill="#444"/><path id="XMLID_173_" d="M78.081 77.192c0 3.813 2.555 6.904 5.725 6.904 3.154 0 5.721-3.091 5.721-6.904 0-3.823-2.567-6.914-5.721-6.914-3.17 0-5.725 3.091-5.725 6.914" fill="#444"/><path id="XMLID_172_" d="M76.381 100.519H64 51.619c-1.42 0-2.029.954-1.091 2.384 1.314 2.002 6.192 5.85 13.472 5.85s12.158-3.848 13.472-5.85c.938-1.43.329-2.384-1.091-2.384z" fill="#513f35"/><path id="XMLID_171_" d="M69.981 89.994c-2.107.597-4.293.888-5.981.888-1.689 0-3.874-.291-5.981-.888-.901-.255-1.255.598-.932 1.166.669 1.176 3.359 3.549 6.913 3.549 3.554 0 6.245-2.373 6.913-3.549.323-.568-.031-1.421-.932-1.166z" fill="#e39400"/><path id="XMLID_170_" d="M65.021 5.723s-.661-.02-.948-.018c-.286-.003-.948.018-.948.018-36.593.705-47.624 22.721-47.624 37.988 0 14.835.014 25.735.014 25.735s.581-.605 1.657-1.441a11.146 11.146 0 0 1 2.414-1.394l1.848 12.394 12.195-25.476a.409.409 0 0 1 .414-.233l7.226.803c7.264.807 14.56 1.197 21.857 1.219v.016c.316.002.632-.008.948-.008.316 0 .632.01.948.008v-.016a203.475 203.475 0 0 0 21.857-1.219l7.226-.803a.407.407 0 0 1 .414.233l12.195 25.476 1.848-12.394s1.268.503 2.414 1.394c1.076.837 1.657 1.441 1.657 1.441s.014-10.9.014-25.735c-.001-15.267-11.032-37.283-47.626-37.988z" fill="#6d4c41"/></g><g><g><g fill="#f59129"><g><path d="M75.152 3.699l5.806 18.184-14.714-1.906z"/><path d="M80.958 22.36a.43.43 0 0 1-.062-.004l-14.714-1.907a.474.474 0 0 1-.363-.257.474.474 0 0 1 .006-.445L74.733 3.47a.478.478 0 0 1 .873.085l5.763 18.053a.477.477 0 0 1-.411.752zm-13.962-2.766l13.28 1.72-5.24-16.411-8.04 14.691z"/></g><g><path d="M52.847 3.699l-5.804 18.184 14.711-1.906z"/><path d="M47.043 22.36a.481.481 0 0 1-.367-.171.483.483 0 0 1-.088-.451l5.804-18.184a.48.48 0 0 1 .408-.33.465.465 0 0 1 .465.245l8.908 16.278a.48.48 0 0 1-.357.702l-14.712 1.907a.417.417 0 0 1-.061.004zm5.919-17.456l-5.238 16.411 13.278-1.72-8.04-14.691z"/></g></g><g><g><defs><path id="SVGID_1_" d="M86.454 4.932a.478.478 0 0 0-.523.088L73.409 16.781 64.471 3.432a.474.474 0 0 0-.395-.21h-.002a.478.478 0 0 0-.395.208L54.7 16.781 42.177 5.019a.475.475 0 0 0-.802.359l.514 19.227c0 4.179 9.737 7.456 22.166 7.456s22.166-3.277 22.166-7.444l.516-19.239a.482.482 0 0 0-.283-.446z"/></defs><use xlink:href="#SVGID_1_" overflow="visible" fill="#fac01b"/><clipPath id="SVGID_2_"><use xlink:href="#SVGID_1_" overflow="visible"/></clipPath></g></g></g></g></g></svg>