<svg id="图层_1" xmlns="http://www.w3.org/2000/svg" xmlns:xlink="http://www.w3.org/1999/xlink" viewBox="0 0 128 128"><g><defs><path id="SVGID_1_" d="M0 0h128v128H0z"/></defs><clipPath id="SVGID_2_"><use xlink:href="#SVGID_1_" overflow="visible"/></clipPath><g clip-path="url(#SVGID_2_)"><path fill="#006ca2" d="M49.351 61.803h25.573L106.891 0H81.317z"/><path fill="#2f2f2f" d="M65.335 30.901L52.549 55.622l3.196 6.181h19.179l3.197-6.181z"/><path d="M76.967 76.721H51.394V61.803h25.573v14.918zm0-21.312H51.394A6.393 6.393 0 0 0 45 61.803v14.918a6.394 6.394 0 0 0 6.394 6.394h25.573a6.392 6.392 0 0 0 6.393-6.394V61.803a6.393 6.393 0 0 0-6.393-6.394" fill="#ceced2"/><path d="M96.147 95.9c0 17.656-14.311 31.968-31.968 31.968-17.654 0-31.966-14.312-31.966-31.968 0-17.655 14.312-31.966 31.966-31.966 17.658 0 31.968 14.311 31.968 31.966" fill="#ceced2"/><path d="M42.75 88.123c-.422 0-.841-.084-1.242-.256a3.148 3.148 0 0 1-1.682-4.006c.007-.023.017-.048.025-.07.014-.051.014-.038.038-.082a22.788 22.788 0 0 1 15.873-13.361.786.786 0 0 1 .883.425.782.782 0 0 1-.22.953c-4.669 3.71-8.396 8.71-10.776 14.461l-.011.023a3.12 3.12 0 0 1-1.728 1.691 3.154 3.154 0 0 1-1.16.222" fill="#fff"/><path fill="#006ca2" d="M77.057 61.803H51.484L19.516 0H45.09z"/><path d="M73.664 103.881H62.93c1.685-1.034 4.643-3.083 8.005-6.442 3.146-3.145 4.202-8.869.437-12.639-2.181-2.174-4.656-3.281-7.373-3.281-5.99 0-10.989 5.299-11.199 5.524a.439.439 0 0 0-.051.528l2.701 4.41a.44.44 0 0 0 .316.203.427.427 0 0 0 .359-.115c.032-.027 3.292-3.049 6.149-3.049 1.15 0 2.049.483 2.752 1.482.572.811.742 1.706.516 2.728-1.093 4.879-10.719 10.403-10.82 10.457a.448.448 0 0 0-.22.383v5.771c0 .245.199.443.443.443h18.721a.44.44 0 0 0 .437-.443v-5.522a.442.442 0 0 0-.439-.438" fill="#77a2ad"/></g></g></svg>