<svg xmlns="http://www.w3.org/2000/svg" xmlns:xlink="http://www.w3.org/1999/xlink" viewBox="0 0 128 128"><g id="图层_2"><g><g><path d="M64 126.23c-23.489 0-44.105-10.842-44.271-23.239L14.08 24.967l6.979-.549h85.884l6.979.549-5.649 78.023c-.168 12.398-20.783 23.24-44.273 23.24z" fill="#e0e0e0"/></g><g><path d="M24.068 67.796l2.574 21.414c.323 3.996 2.293 7.855 5.097 10.401l-1.844-31.815h-5.827z" fill="#4e342e"/><path d="M29.895 67.796l1.844 31.815c.482.438.982.849 1.51 1.202.897.6 1.88 1.174 2.933 1.722l-1.363-34.739h-4.924z" fill="#a75213"/><path d="M94.609 67.796l-1.992 34.371c.43-.239.847-.483 1.251-.733 4.16-2.567 7.515-7.723 8.016-12.162l2.048-21.476h-9.323z" fill="#4e342e"/><path d="M88.497 67.796l-1.448 36.89c2.045-.748 3.904-1.592 5.568-2.519l1.992-34.371h-6.112z" fill="#ef9d01"/><path d="M34.818 67.796l1.363 34.739c6.496 3.386 15.918 5.697 27.904 5.697 9.311 0 16.956-1.349 22.963-3.547l1.448-36.89H34.818z" fill="#ef9d01"/></g><path d="M99.23 106.962c-.787 2.264-3.541 6.49-11.341 9.512-4.809 1.863-11.876 3.524-17.703 2.938-1.248-.126-.859-1.339-.009-1.49 4.852-.864 9.575-2.165 15.169-4.422 7.282-2.938 12.152-6.838 12.838-7.323 1.164-.823 1.179.402 1.046.785z" fill="#fff"/><path d="M64.001 5.727c-12.479 0-24.155 2.291-32.876 6.453-7.488 3.572-11.958 8.249-11.958 12.512 0 4.262 4.47 8.94 11.958 12.512 8.722 4.161 20.398 6.452 32.876 6.452s24.154-2.291 32.875-6.452c7.488-3.572 11.958-8.251 11.958-12.512 0-4.263-4.47-8.94-11.958-12.514-8.722-4.159-20.397-6.451-32.875-6.451z" fill="#f6f6f6"/><ellipse cx="64" cy="67.796" rx="39.932" ry="15.796" fill="#a75213"/><g><path d="M52.121 68.918c1.41-2.807 3.009-4.485 5.251-6.405 1.416-1.213 2.53-1.981 3.967-3.107 2.264-1.773 4.135-3.175 6.31-6.603 2.121-3.769 6.883-3.431 10.912-1.235 4.36 2.376 8.704 6.788 11.182 11.467 1.033 1.95 2.505 5.636 2.105 8.029-.323 1.935-2.456 2.722-3.9 3.24-4.465 1.602-9.365 1.977-14.018 2.181-5.612.246-11.967.42-17.335-1.743-2.777-1.118-5.566-2.527-4.474-5.824z" fill="#ffe57f" stroke="#a75213" stroke-width="5" stroke-miterlimit="10"/><path d="M76.499 58.966c1.952 1.57 5.804 7.503 5.956 9.06.176 1.798.571 5.568.234 8.601" fill="none" stroke="#a75213" stroke-width="5" stroke-linecap="round" stroke-linejoin="round" stroke-miterlimit="10"/><path d="M60.46 68.292c-.096 1.62 3.404 2.405 4.702 2.609 2.016.317 3.859.622 5.908.719 2.24.105 6.307.279 7.193-1.317.391-1.437-4.727-1.104-6.794-1.796-1.012-.339-2.374-1.027-3.034-1.956-.594-.836-1.198-2.235-2.156-2.914-2.095-.696-5.729 3.16-5.819 4.655z" fill="#ef9d01"/></g><path d="M44.25 88.75c1.123.127 1.8-.394 1.818-.95l-.56-42.786-14.804-4.161 2.512 43.136c.035.351.35 1.263 1.533 1.761.986.415 5.226 2.265 9.501 3z" fill="#fff"/><g><path d="M64 47.615c-28.466 0-49.932-9.854-49.932-22.922C14.069 11.625 35.535 1.77 64 1.77c28.465 0 49.931 9.854 49.931 22.923 0 13.067-21.466 22.922-49.931 22.922zm.001-41.888c-12.479 0-24.155 2.291-32.876 6.453-7.488 3.572-11.958 8.249-11.958 12.512 0 4.262 4.47 8.94 11.958 12.512 8.722 4.161 20.398 6.452 32.876 6.452s24.154-2.291 32.875-6.452c7.488-3.572 11.958-8.251 11.958-12.512 0-4.263-4.47-8.94-11.958-12.514-8.722-4.159-20.397-6.451-32.875-6.451z" fill="#bdbdbd"/></g></g><g id="Acoff0_1_"/><g/><path fill="none" stroke="#009688" stroke-miterlimit="10" d="M95.193 221.377l-3.512 60.608"/><path fill="none" stroke="#009688" stroke-miterlimit="10" d="M88.892 221.377l-2.378 60.608"/><path fill="none" stroke="#009688" stroke-miterlimit="10" d="M29.311 221.377l3.512 60.608"/><path fill="none" stroke="#009688" stroke-miterlimit="10" d="M34.422 221.377l2.379 60.608"/><g id="xrcSbb_1_"/></g></svg>