<svg id="图层_1" xmlns="http://www.w3.org/2000/svg" viewBox="0 0 128 128"><g><g><path d="M64 2.135s-26.152-.95-39.552 16.005C9.846 36.616 4.188 64.612 3.005 87.604a3.545 3.545 0 0 0 2.067 3.402c2.749 1.264 7.87 3.022 13.97 2.267 1.221-.151 2.243-1.001 2.662-2.159 1.623-4.484 6.913-15.583 12.786-24.881 0 0-2.2 19.006-8.542 35.722-.588 1.551.41 3.281 1.911 3.989 5.115 2.412 20.023 7.305 36.141 7.305" fill="#e0e0e0"/><path d="M34.49 66.233s.489-8.856-1.077-26.735c-.5-2.544-2.309-.312-2.349 2.889-.11 8.632.085 18.693-1.833 32.868l5.259-9.022z" fill="#bdbdbd"/></g><g><path d="M64 2.135s26.152-.95 39.552 16.005c14.602 18.476 20.26 46.472 21.443 69.464a3.545 3.545 0 0 1-2.067 3.402c-2.749 1.264-7.87 3.022-13.97 2.267-1.221-.151-2.243-1.001-2.662-2.159-1.623-4.484-6.913-15.583-12.786-24.881 0 0 2.2 19.006 8.542 35.722.588 1.551-.41 3.281-1.911 3.989-5.115 2.412-20.023 7.305-36.141 7.305" fill="#e0e0e0"/><path d="M93.51 66.233s-.489-8.856 1.077-26.735c.5-2.544 2.309-.312 2.349 2.889.11 8.632-.085 18.693 1.833 32.868l-5.259-9.022z" fill="#bdbdbd"/></g><path fill="#989898" d="M49.841 5.309h28.625l-2.308 13.754L64 35.069 51.158 19.525z"/><path d="M51.158.941s12.671 1.731 25.684 0v7.503s-12.363 2.77-25.684 0V.941z" fill="#b2b2b2"/><g><path d="M51.158.941s-4.241.885-8.088 2.732c0 0-1.01 21.193 16.375 37.527l7.739-7.616C59.49 26.559 52.732 16.165 51.158.941z" fill="#c6c6c6"/></g><path d="M95.135 65.508c-.062-.808-.884-1.3-1.588-.946-4.02 2.02-15.883 7.326-29.547 7.326s-25.527-5.307-29.547-7.326c-.704-.354-1.526.138-1.588.946l-.566 7.353a2.679 2.679 0 0 0 1.288 2.517C46.851 83.207 64 83.207 64 83.207s17.149 0 30.414-7.83c.856-.505 1.367-1.482 1.288-2.517l-.567-7.352z" fill="#444"/><path d="M76.842.941s4.241.885 8.088 2.732c0 0 2.825 44.197-52.249 54.359l-.391-10.505S72.772 40.301 76.842.941z" fill="#c6c6c6"/><path d="M69.541 83.762l-7.009 1.791a4.74 4.74 0 0 1-5.765-3.419l-1.419-5.555a4.74 4.74 0 0 1 3.419-5.765l7.009-1.791a4.74 4.74 0 0 1 5.765 3.419l1.419 5.555a4.74 4.74 0 0 1-3.419 5.765z" fill="#444"/><path d="M59.598 78.151a1.558 1.558 0 0 0-1.644.219c-2.556 2.118-3.604 4.645-4.36 8.07-.826 3.745-.891 7.613-1.436 11.409a45.568 45.568 0 0 1-6.523 17.734c-.463.735-.238 1.7.511 2.138a26.88 26.88 0 0 0 6.808 2.814c.644.167 1.312-.137 1.662-.702 2.845-4.602 2.918-10.468 3.476-15.923a74.354 74.354 0 0 1 5.136-20.537c.279-.683.572-1.444.317-2.137-.145-.394-.45-.705-.761-.987a12.417 12.417 0 0 0-3.186-2.098z" fill="#444"/><path d="M64.259 78.099c-.927.098-1.479 1.078-1.115 1.936.869 2.052 2.22 5.454 2.44 8.228.533 6.701.713 13.272.914 19.991.186 6.237 1.146 12.641 4.161 18.069a1.402 1.402 0 0 0 1.917.556c1.886-1.066 4.647-2.54 6.27-3.401a1.38 1.38 0 0 0 .584-1.86c-1.149-2.19-3.335-8.071-4.464-22.323-.281-3.551-.384-9.16-1.199-12.628a17.092 17.092 0 0 0-4.269-7.862 1.408 1.408 0 0 0-.793-.408c-1.381-.226-3.377-.411-4.446-.298z" fill="#444"/></g></svg>