<svg id="图层_1" xmlns="http://www.w3.org/2000/svg" xmlns:xlink="http://www.w3.org/1999/xlink" viewBox="0 0 128 128"><g><defs><path id="SVGID_1_" d="M0 0h128v128H0z"/></defs><clipPath id="SVGID_2_"><use xlink:href="#SVGID_1_" overflow="visible"/></clipPath><g clip-path="url(#SVGID_2_)"><g><path d="M46.609 96.314c-.559 0-1.054-.42-1.158-1.018-5-29.184-14.672-47.008-14.769-47.183-.324-.59-.132-1.346.431-1.688.56-.342 1.282-.14 1.608.452.1.18 9.969 18.34 15.048 47.982.114.67-.311 1.311-.952 1.434a1.034 1.034 0 0 1-.208.021z" fill="#3bc4ee"/></g><g><path d="M59.364 96.314c-.559 0-1.054-.42-1.158-1.018-5-29.184-14.672-47.008-14.769-47.183-.324-.59-.133-1.346.431-1.688.56-.342 1.282-.14 1.609.452.097.18 9.969 18.34 15.048 47.982.114.67-.312 1.311-.951 1.434a1.1 1.1 0 0 1-.21.021z" fill="#3bc4ee"/></g><g><path d="M71.045 96.314c-.559 0-1.056-.42-1.159-1.018-4.998-29.184-14.669-47.008-14.768-47.183-.324-.59-.133-1.346.431-1.688.56-.342 1.281-.14 1.608.452.097.18 9.969 18.34 15.045 47.982.117.67-.31 1.311-.949 1.434-.067.014-.14.021-.208.021z" fill="#3bc4ee"/></g><g><path d="M22.63 96.314c-.07 0-.141-.008-.209-.02-.641-.123-1.068-.764-.95-1.434 5.077-29.643 14.947-47.803 15.048-47.982.324-.592 1.043-.794 1.607-.452.563.341.754 1.098.43 1.688-.098.175-9.77 17.999-14.769 47.183-.102.598-.598 1.017-1.157 1.017z" fill="#3bc4ee"/></g><g><path d="M34.417 96.314c-.069 0-.139-.008-.211-.02-.638-.123-1.065-.764-.95-1.434 5.08-29.643 14.95-47.803 15.048-47.982.324-.592 1.046-.794 1.607-.452.564.341.757 1.098.431 1.688-.097.175-9.77 17.999-14.768 47.183-.103.598-.6 1.017-1.157 1.017z" fill="#3bc4ee"/></g><g><path d="M47.062 96.314c-.07 0-.141-.008-.21-.02-.641-.123-1.065-.764-.95-1.434 5.077-29.643 14.947-47.803 15.048-47.982.324-.592 1.046-.794 1.607-.452.563.341.757 1.098.431 1.688-.097.175-9.771 17.999-14.771 47.183-.099.598-.596 1.017-1.155 1.017z" fill="#3bc4ee"/></g><g><path d="M59.365 96.314c-.067 0-.138-.008-.209-.02-.639-.123-1.065-.764-.95-1.434 5.077-29.629 14.473-47.779 14.566-47.96.313-.597 1.029-.817 1.597-.486.571.327.78 1.078.466 1.676-.091.177-9.311 18.008-14.31 47.205-.104.6-.601 1.019-1.16 1.019z" fill="#3bc4ee"/></g><g><path d="M71.048 96.314c-.07 0-.14-.008-.211-.02-.639-.123-1.065-.764-.951-1.434 5.08-29.643 14.95-47.803 15.048-47.982.326-.592 1.047-.794 1.608-.452.562.341.755 1.098.431 1.688-.097.175-9.77 17.999-14.771 47.183-.1.598-.597 1.017-1.154 1.017z" fill="#3bc4ee"/></g><g><path d="M83.177 96.314c-.07 0-.141-.008-.211-.02-.642-.123-1.065-.764-.951-1.434 5.078-29.643 14.949-47.803 15.048-47.982.325-.592 1.044-.794 1.608-.452.563.341.755 1.098.432 1.688-.098.175-9.771 17.999-14.771 47.183-.101.598-.598 1.017-1.155 1.017z" fill="#3bc4ee"/></g><g><path d="M95.308 96.314a1.22 1.22 0 0 1-.208-.02c-.643-.123-1.066-.764-.951-1.434 3.489-20.373 9.221-35.247 12.325-42.301.275-.618.969-.891 1.563-.604.59.286.848 1.021.576 1.641-3.061 6.945-8.705 21.598-12.149 41.699-.1.6-.597 1.019-1.156 1.019z" fill="#3bc4ee"/></g><g><path d="M83.174 96.314c-.561 0-1.057-.42-1.159-1.018-4.998-29.184-14.67-47.008-14.768-47.183-.324-.59-.134-1.346.431-1.688.558-.342 1.281-.14 1.605.452.1.18 9.972 18.34 15.049 47.982.116.67-.311 1.311-.95 1.434-.07.014-.14.021-.208.021z" fill="#3bc4ee"/></g><g><path d="M95.308 96.314c-.562 0-1.059-.42-1.159-1.018-4.999-29.183-14.673-47.007-14.77-47.182-.323-.59-.132-1.346.432-1.688.561-.342 1.282-.14 1.606.452.1.18 9.97 18.34 15.047 47.982.115.67-.309 1.311-.948 1.434-.07.013-.141.02-.208.02z" fill="#3bc4ee"/></g><g><path d="M107.025 96.314c-.559 0-1.056-.42-1.159-1.018-4.997-29.184-14.669-47.008-14.768-47.183-.325-.59-.135-1.346.431-1.688.561-.342 1.281-.14 1.606.452.099.18 9.971 18.34 15.049 47.982.115.67-.312 1.311-.952 1.434a1.07 1.07 0 0 1-.207.021z" fill="#3bc4ee"/></g><g><path d="M34.414 96.314c-.559 0-1.054-.42-1.158-1.018-4.999-29.184-14.67-47.008-14.768-47.183-.324-.59-.133-1.346.431-1.688.56-.342 1.281-.14 1.608.452.097.18 9.969 18.34 15.048 47.982.114.67-.312 1.311-.95 1.434a1.11 1.11 0 0 1-.211.021z" fill="#3bc4ee"/></g><g><path d="M22.626 97.746c-.557 0-1.054-.418-1.155-1.016-2.038-11.893-5.049-23.262-8.956-33.789-.233-.635.066-1.35.669-1.598.606-.248 1.292.066 1.524.703 3.959 10.675 7.015 22.197 9.078 34.247.115.668-.309 1.311-.95 1.432a.998.998 0 0 1-.21.021z" fill="#3bc4ee"/></g><g><path d="M107.028 97.746c-.07 0-.141-.006-.211-.02-.64-.121-1.063-.764-.951-1.432 2.065-12.051 5.119-23.572 9.077-34.247.236-.637.924-.951 1.524-.703.606.248.906.963.671 1.598-3.904 10.527-6.919 21.896-8.954 33.789-.105.597-.598 1.015-1.156 1.015z" fill="#3bc4ee"/></g><g><path d="M96.979 98.55c-1.621-.066-2.883-1.499-2.814-3.205 1.372-33.776 13.073-52.462 13.569-53.241.908-1.42 2.735-1.802 4.085-.858 1.347.944 1.708 2.859.805 4.276-.115.178-11.282 18.153-12.578 50.062-.069 1.706-1.443 3.032-3.067 2.966z" fill="#ec6c30"/></g><g><path d="M32.777 98.55c1.621-.066 2.883-1.499 2.814-3.205-1.372-33.776-13.073-52.462-13.569-53.241-.908-1.42-2.736-1.802-4.085-.858-1.347.944-1.708 2.859-.805 4.276.115.178 11.282 18.153 12.578 50.062.069 1.706 1.443 3.032 3.067 2.966z" fill="#ec6c30"/></g><g><path d="M120.139 104.77c-.211 0-.424-.021-.638-.072-51.961-11.499-110.294-.102-110.878.013a2.942 2.942 0 1 1-1.15-5.768c.593-.119 60.145-11.756 113.3.01a2.94 2.94 0 0 1 2.234 3.51 2.94 2.94 0 0 1-2.868 2.307z" fill="#3bc4ee"/></g><g><path d="M121.764 111.324c-4.545.031-4.545-.727-5.774-4.777L105.484 51.77v-.56c0-2.068-3.389-4.517-6.252-4.517H28.953c-2.862 0-6.25 2.448-6.25 4.517v.56l-10.508 54.777c-.72 5.033-.72 5.033-6.89 4.67-3.244-.189-6.778.109-4.669-6.889l10.309-53.75c3.179-15.654 9.673-15.654 18.008-15.654h70.279c8.337 0 14.493 0 18.007 15.654l10.311 53.75c1.328 7.027-.295 7.136-4.674 7.026-.383-.007-.747-.03-1.112-.03z" fill="#ec6c30"/></g></g></g></svg>