<svg xmlns="http://www.w3.org/2000/svg" xmlns:xlink="http://www.w3.org/1999/xlink" viewBox="0 0 128 128"><g id="图层_1"><g><g><g><defs/><use xlink:href="#SVGID_1_" overflow="visible" fill="#ed6c30"/><clipPath id="SVGID_2_"><use xlink:href="#SVGID_1_" overflow="visible"/></clipPath></g><path d="M67.605 141.645c-1.188 4.624-10.227 5.048-20.568 2.392-10.342-2.656-18.057-7.383-16.87-12.007 1.187-4.621 10.227-5.052 20.568-2.396 10.342 2.656 18.057 7.391 16.87 12.011z" fill="#aecece"/></g><g><g><defs/><use xlink:href="#SVGID_3_" overflow="visible" fill="#f9940c"/><clipPath id="SVGID_4_"><use xlink:href="#SVGID_3_" overflow="visible"/></clipPath></g></g></g><g><defs/><use xlink:href="#SVGID_5_" overflow="visible" fill="#fbcc2f"/><clipPath id="SVGID_6_"><use xlink:href="#SVGID_5_" overflow="visible"/></clipPath></g><g id="LgUEO1_1_"/><g fill="#dddddc"/><g/><g/><g fill="#e5a315"/><g><defs/><use xlink:href="#SVGID_7_" overflow="visible" fill="#f7efda"/><clipPath id="SVGID_8_"><use xlink:href="#SVGID_7_" overflow="visible"/></clipPath></g><g/><g><g><defs/><use xlink:href="#SVGID_9_" overflow="visible" fill="#fbcc2f"/><clipPath id="SVGID_10_"><use xlink:href="#SVGID_9_" overflow="visible"/></clipPath></g><g fill="#e5a315"/><g/><g/></g><g><g><defs/><use xlink:href="#SVGID_11_" overflow="visible" fill="#fbcc2f"/><clipPath id="SVGID_12_"><use xlink:href="#SVGID_11_" overflow="visible"/></clipPath></g><g fill="#e5a315"/><g/><g/></g><g><g><g><defs/><use xlink:href="#SVGID_13_" overflow="visible" fill="#fbcc2f"/><clipPath id="SVGID_14_"><use xlink:href="#SVGID_13_" overflow="visible"/></clipPath></g><g fill="#e5a315"/><g/><g/></g><g><g><defs/><use xlink:href="#SVGID_15_" overflow="visible" fill="#fbcc2f"/><clipPath id="SVGID_16_"><use xlink:href="#SVGID_15_" overflow="visible"/></clipPath></g><g fill="#e5a315"/><g/><g/></g></g><g><g><defs/><use xlink:href="#SVGID_17_" overflow="visible" fill="#fbcc2f"/><clipPath id="SVGID_18_"><use xlink:href="#SVGID_17_" overflow="visible"/></clipPath></g><g fill="#e5a315"/><g/><g/></g><g><g><path d="M40.316 110.827c-2.108-1.184-4.648-2.386-5.838-3.986-.435-.59-.926-2.275-.744-4.695.198-2.633 2.101-10.857 5.689-19.472.265-.635.903-1.349 1.574-1.877.24-.189.504-.654.139-.98l-3.412-.914-3.412-.914c-.479.1-.483.634-.37.918.317.793.513 1.73.425 2.413-1.2 9.255-3.664 17.329-4.809 19.708-1.053 2.186-2.32 3.4-2.992 3.693-1.83.79-4.631.562-7.048.533-1.632-.019-5.357-.23-5.916 1.855-.704 2.628 7.505 6.259 14.393 8.105s15.813 2.805 16.517.177c.558-2.085-2.773-3.764-4.196-4.564z" fill="#d1ebed"/><path d="M66.548 23.406l-26.041-6.978s-8.536 19.567-10.658 39.658c-1.968 18.63 4.614 24.487 7.237 25.19 2.623.703 11.251-1.079 18.862-18.197 8.209-18.46 10.6-39.673 10.6-39.673z" fill="#d1ebed"/><path d="M20.274 107.651c-.457-.199-1.091-.152-1.155.264-.054.342.316.636.648.845 1.332.847 3.57 1.681 5.952 2.472.323.107.975.212 1.237.047.281-.178.201-.485-.034-.757-.235-.272-.597-.432-.947-.565-2.939-1.059-3.429-1.268-5.701-2.306z" fill="#fff"/><path d="M61.128 37.722l-23.084-6.185c-6.059 22.613-6.231 41.438.765 43.313 6.996 1.874 16.26-14.516 22.319-37.128z" fill="#fbcc2f"/><g><defs><path id="SVGID_19_" d="M61.117 35.346c-.382-.463-.891-.205-1.475-.161-2.529.194-4.795-.546-6.915-1.882-2.047-1.292-3.943-2.783-6.224-3.655-1.466-.56-3.051-.818-4.616-.636-1.15.131-2.324.38-3.176 1.221-.705.696-.813 1.965-.933 2.906-.229 1.811-.033 3.664.726 5.332 1.171 2.566 3.484 4.407 5.984 5.587.759.358 1.544.665 2.352.891.682.193 1.399.294 2.099.368 2.655.282 5.482-.033 7.798-1.439 1.491-.903 2.665-2.231 3.463-3.775.525-1.018.896-2.116 1.147-3.234.115-.511.148-.923-.138-1.39a.822.822 0 0 0-.092-.133z"/></defs><use xlink:href="#SVGID_19_" overflow="visible" fill="#fbcc2f"/><clipPath id="SVGID_20_"><use xlink:href="#SVGID_19_" overflow="visible"/></clipPath><path d="M58.714 35.232c-8.508-.761-16.007-.242-19.289-3.088-2.355-2.041.599-3.446 3.23-3.461 6.359-.038 7.914 3.314 11.18 4.633 1.971.795 2.792 1.529 4.879 1.916z" clip-path="url(#SVGID_20_)" fill="#e5a315"/></g><g fill="#e5a315"><circle cx="40.735" cy="69.927" r="1.087"/><circle cx="43.84" cy="67.664" r=".749"/><circle cx="39.547" cy="65.066" r="1.319"/><circle cx="44.323" cy="64.939" r="1.359"/><circle cx="41.624" cy="58.208" r="1.087"/><circle cx="44.262" cy="59.456" r=".968"/><circle cx="49.845" cy="54.498" r=".968"/><circle cx="42.359" cy="46.526" r="1.227"/><circle cx="46.001" cy="56.704" r="1.498"/><circle cx="43.408" cy="51.248" r="1.473"/><circle cx="48.704" cy="50.816" r="1.087"/></g><g><path d="M36.249 51.97c.468.345 1.941.915 2.993 1.362.723.307 1.063-.436 1.15-.949 1.092-7.222 5.457-23.323 7.762-28.904l-4.348-2.093c-2.807 5.606-7.566 24.557-8.026 28.984 0 0-.172 1.127.469 1.6z" fill="#fff"/></g><g><path d="M66.478 23.8c-.864 3.224-7.187 3.455-14.397 1.523-7.21-1.932-12.57-5.293-11.706-8.517.863-3.222 7.186-3.457 14.397-1.525 7.21 1.932 12.569 5.298 11.706 8.519z" fill="#aecece"/><path d="M64.953 23.392c-.666 2.485-6.196 2.487-12.564.78-6.368-1.706-11.156-4.473-10.49-6.958.665-2.483 6.196-2.489 12.564-.782 6.368 1.706 11.156 4.477 10.49 6.96z" fill="#d1ebed"/></g></g><g><path d="M108.482 113.926c-2.418.029-5.218.257-7.048-.533-.672-.293-1.939-1.507-2.992-3.693-1.145-2.379-3.609-10.453-4.809-19.708-.089-.682.108-1.619.425-2.413.114-.284.11-.818-.37-.918l-3.412.914-3.412.914c-.365.326-.102.791.139.98.671.529 1.31 1.242 1.574 1.877 3.588 8.615 5.492 16.84 5.689 19.472.182 2.42-.309 4.105-.744 4.695-1.19 1.6-3.729 2.802-5.838 3.986-1.423.8-4.754 2.479-4.196 4.564.704 2.628 9.629 1.668 16.517-.177 6.888-1.846 15.097-5.477 14.393-8.105-.559-2.085-4.284-1.874-5.916-1.855z" fill="#d1ebed"/><path d="M87.489 25.101l-26.041 6.978s2.391 21.214 10.599 39.674c7.611 17.118 16.239 18.9 18.862 18.197 2.623-.703 9.204-6.56 7.237-25.19-2.121-20.092-10.657-39.659-10.657-39.659z" fill="#d1ebed"/><path d="M89.538 121.197c-.495.056-1.021.414-.869.806.124.323.591.392.984.408 1.577.067 3.933-.329 6.391-.835.333-.069.95-.304 1.095-.578.155-.294-.068-.521-.408-.639-.339-.118-.733-.075-1.103-.015-3.075.551-3.604.615-6.09.853z" fill="#fff"/><path d="M89.953 40.209l-23.084 6.185c6.059 22.613 15.323 39.002 22.319 37.128 6.996-1.874 6.824-20.7.765-43.313z" fill="#fbcc2f"/><g><defs><path id="SVGID_21_" d="M88.756 38.157c-.563-.21-.874.268-1.358.598-2.093 1.433-4.426 1.925-6.929 1.828-2.419-.096-4.806-.439-7.218-.054-1.549.248-3.051.818-4.316 1.757-.93.689-1.822 1.491-2.14 2.645-.263.956.278 2.108.645 2.983.707 1.682 1.804 3.19 3.294 4.254 2.297 1.636 5.221 2.075 7.976 1.847.836-.07 1.67-.197 2.482-.405.687-.174 1.358-.445 2.002-.731 2.44-1.083 4.731-2.77 6.034-5.145.839-1.527 1.192-3.265 1.112-5-.054-1.144-.282-2.281-.624-3.374-.156-.5-.333-.873-.814-1.135a.869.869 0 0 0-.146-.068z"/></defs><use xlink:href="#SVGID_21_" overflow="visible" fill="#fbcc2f"/><clipPath id="SVGID_22_"><use xlink:href="#SVGID_21_" overflow="visible"/></clipPath><path d="M86.617 39.26c-7.749 3.595-13.984 7.794-18.249 6.97-3.06-.59-1.204-3.284 1.067-4.613 5.488-3.213 8.51-1.087 11.999-1.578 2.105-.296 3.183-.071 5.183-.779z" clip-path="url(#SVGID_22_)" fill="#e5a315"/></g><g fill="#e5a315"><circle cx="88.395" cy="78.297" r="1.087"/><circle cx="89.952" cy="74.784" r=".749"/><circle cx="84.935" cy="74.68" r="1.319"/><circle cx="89.008" cy="72.182" r="1.359"/><circle cx="83.305" cy="67.703" r="1.087"/><circle cx="86.213" cy="67.464" r=".968"/><circle cx="88.57" cy="60.379" r=".968"/><circle cx="78.101" cy="57.219" r="1.227"/><circle cx="86.344" cy="64.212" r="1.498"/><circle cx="81.371" cy="60.783" r="1.473"/><circle cx="85.741" cy="57.761" r="1.087"/></g><g><path d="M75.532 64.988c.578.065 2.139-.178 3.273-.317.78-.096.703-.909.522-1.397-2.666-6.8-6.936-22.927-7.73-28.913l-4.813.361c.372 6.258 5.726 25.05 7.541 29.114 0 0 .415 1.063 1.207 1.152z" fill="#fff"/></g><g><path d="M87.625 25.478c.864 3.224-4.497 6.585-11.707 8.517-7.21 1.932-13.532 1.701-14.396-1.523-.863-3.222 4.495-6.587 11.705-8.519 7.211-1.932 13.535-1.697 14.398 1.525z" fill="#aecece"/><path d="M86.101 25.886c.666 2.485-4.123 5.252-10.491 6.958-6.368 1.706-11.898 1.704-12.564-.78-.665-2.483 4.121-5.253 10.49-6.959 6.368-1.707 11.9-1.702 12.565.781z" fill="#d1ebed"/></g></g></g><g fill="#ff6f00"><path d="M78.677 3.634L74.192 14.98c-.369.935-1.74.767-1.874-.229L70.695 2.659a.976.976 0 0 1 1.085-1.098l6.108.746a.975.975 0 0 1 .789 1.327z"/><path d="M90.601 15.66L79.01 19.47c-.955.314-1.703-.847-1.023-1.587L86.244 8.9a.975.975 0 0 1 1.538.132l3.334 5.173a.975.975 0 0 1-.515 1.455z"/><path d="M62.594 5.361l5.522 10.88c.455.896-.579 1.811-1.414 1.251l-10.13-6.801a.975.975 0 0 1-.103-1.54l4.608-4.079a.975.975 0 0 1 1.517.289z"/></g></g></svg>