<svg id="图层_1" xmlns="http://www.w3.org/2000/svg" xmlns:xlink="http://www.w3.org/1999/xlink" viewBox="0 0 128 128"><path d="M35 85.536s-4.976.907-5.374 4.964c-1.314 13.408 1.113 29.219 2.816 31.588 2.183 3.037 24.058 9.037 37.979 2.607 7.58-3.501 6.88-5.897 6.828-9.57-.171-12.409 5.062-23.384 0-26.691-5.061-3.308-33.953-5.073-42.249-2.898z" fill="#db4437"/><path d="M33.785 112.997c.231 1.279.916 2.436 1.971 3.194 5.242 3.767 19.48 5.472 28.237 2.395 4.067-1.429 4.882-3.318 4.882-11.769 0-3.452-1.719-5.802-5.014-5.659-13.053 1.907-22.207-.037-26.969-1.605-1.93-.636-3.912.822-3.912 2.854.002 2.974.154 6.997.805 10.59z" fill="#f7cb4d"/><path d="M93.262 23.154c.307-.401.059-8.624-7.982-15.404-6.503-5.483-27.726-6.199-39.004-5.358-12.617.941-20.08 5.706-24.174 18.245C18.357 32.104 21.004 53.5 24.587 67.5c3.454 13.498 7.119 18.858 7.785 20.187l43.131.802c8.659-11.364 29.66-33.6 28.248-54.679-1.013-15.108-10.009-10.891-10.489-10.656z" fill="#db4437"/><path d="M31.6 88.752c-.678 1.328.014 2.975 1.384 3.584 20.007 8.841 37.164 2.601 42.132.374 1.73-.775 1.979-3.196.387-4.22-.028-.028-.055-.041-.083-.055 0 0-20.215 8.537-42.588-.747-.582.179-.983.58-1.232 1.064z" fill="#ea6d47"/><path d="M75.419 88.434l-42.588-.747c22.373 9.284 42.588.747 42.588.747z" fill="#db4437"/><g id="rIBBmM.tif"/><g id="nkCQ5T.tif"/><path d="M93.262 23.154S89.42 27 87.952 30.75c-1.468 3.75-1.95 8.25-3.635 12s-3.372 4.75-5.78 4c-2.408-.75-6.4-14.118-.072-20.635 4.404-4.536 8.375-6.064 11.392-5.281 2.246.583 3.405 2.32 3.405 2.32z" fill="#a52714"/></svg>