<svg id="图层_1" xmlns="http://www.w3.org/2000/svg" viewBox="0 0 128 128"><g><path d="M126.697 57.156a58 58 0 0 1 .105 2.643c.129 6.724-2.386 13.144-7.028 18.792-4.245 5.145-10.255 9.636-17.658 13.132-6.981 3.298-15.202 5.695-24.335 6.899-.632.082-1.263.164-1.894.234-8.84.994-17.085.772-24.44-.503-7.157-1.216-13.471-3.438-18.687-6.49l18.774 26.655 3.639-5.606 8.728-13.445 16.906 20.532 1.302 1.581 11.397-26.462 10.173 9.368 6.515 5.999 8.763-30.938 2.324 3.071 4.528 5.983c2.315-11.378 1.872-24.002.888-31.445z" fill="#ec6c30"/><path d="M118.958 79.547l-8.763 30.938-6.515-5.999-10.173-9.368L82.11 121.58l-1.302-1.581-16.907-20.532-8.728 13.445-3.639 5.606-18.773-26.655-3.719 11.24a59.558 59.558 0 0 0 3.086 4.475c1.023 1.502 2.396 3.024 3.831 4.61 2.003 2.213 4.121 4.519 6.683 6.256 0 .012 0 .012.012.012 5.098 3.461 11.518 6.186 18.663 7.695a61.853 61.853 0 0 0 19.833.982c.269-.035.526-.058.784-.094v-.012c7.25-.889 13.904-3.04 19.669-5.999a53.4 53.4 0 0 0 7.285-4.467c4.689-3.438 8.443-7.414 11.016-11.565 1.438-2.304 2.502-4.666 3.169-7.005 1.184-2.92 2.07-6.106 2.738-9.39l-4.528-5.983-2.325-3.071z" fill="#fbb817"/><path d="M18.108 74.86c1.548 7.568 4.875 18.585 10.934 28.242l3.719-11.24c-7.204-4.209-12.326-10.009-14.653-17.002z" fill="#ec6c30"/></g><path d="M119.772 78.586c-4.245 5.145-10.255 9.636-17.658 13.132-6.981 3.298-15.202 5.695-24.335 6.899-.632.082-1.263.164-1.894.234-8.84.994-17.085.772-24.44-.503-7.157-1.216-13.471-3.438-18.687-6.49-7.203-4.21-12.325-10.01-14.652-17.003-1.356-5.028-1.941-8.338-1.941-8.338h.012c4.748 16.979 29.784 27.843 58.375 24.639 30.486-3.426 53.476-21.552 51.347-40.484.035.187.07.374.094.55a.882.882 0 0 1 .023.164c.187 1.345.433 3.298.667 5.671 0 .023.012.058.012.094a58 58 0 0 1 .105 2.643c.129 6.724-2.386 13.144-7.028 18.792z" fill="#855c52"/><path d="M125.899 50.673c2.128 18.932-20.862 37.058-51.347 40.484-28.591 3.204-53.628-7.659-58.375-24.639a21.097 21.097 0 0 1-.678-3.45C13.37 44.136 36.36 26.011 66.846 22.584c29.398-3.298 55.031 8.279 58.726 26.077.094.526.175 1.041.257 1.532.012.094.035.187.047.281.012.07.012.129.023.199z" fill="#fad78d"/><g><g><path d="M75.379 69.229c-.89 1.715-1.804 1.636-2.733 1.152L1.414 34.85c-.929-.483-.964-2.263-.074-3.978.889-1.715 2.365-2.715 3.293-2.234l70.114 37.695c.926.482 1.52 1.183.632 2.896z" fill="#855c52"/></g><g><path d="M81.245 72.083c-1.051 2.032-3.709 2.743-5.939 1.589-2.227-1.155-3.179-3.738-2.122-5.768 1.049-2.031 3.707-2.742 5.936-1.588s3.178 3.737 2.125 5.767z" fill="#855c52"/></g></g><g><g><path d="M92.43 58.449c-1.295 1.428-2.162 1.115-2.939.413L29.48 5.94c-.774-.709-.593-2.576.706-4.007C31.482.5 33.407.054 34.181.756l58.381 54.728c.77.705 1.167 1.532-.132 2.965z" fill="#875e54"/></g><g><path d="M97.061 62.806c-1.544 1.707-4.314 1.712-6.186.017-1.87-1.699-2.135-4.457-.583-6.164 1.549-1.707 4.316-1.711 6.187-.017 1.874 1.698 2.134 4.457.582 6.164z" fill="#875e54"/></g></g><g><path d="M42.661 118.501c0 .012 0 .012.012.012 5.098 3.461 11.518 6.186 18.663 7.695a61.853 61.853 0 0 0 19.833.982c.269-.035.526-.058.784-.094v-.012c7.25-.889 13.904-3.04 19.669-5.999a53.4 53.4 0 0 0 7.285-4.467c4.689-3.438 8.443-7.414 11.016-11.565 1.438-2.304 1.744-3.235 2.857-5.583 1.18-3.14 2.202-6.912 2.831-9.842-.385 1.493-1.672 5.453-4.053 9.02-1.92 2.876-3.835 5.353-7.839 8.893-6.482 5.731-14.983 11.78-31.61 14.035-14.874 2.017-26.28-1.255-35.234-4.763-4.573-1.791-9.263-4.893-12.307-7.755-1.607-1.511-4.883-4.943-4.883-4.943 2.74 4.431 8.579 11.405 12.976 14.386z" fill="#855c52"/></g></svg>