<svg xmlns="http://www.w3.org/2000/svg" viewBox="0 0 128 128"><g id="图层_2"><path d="M14.141 74.231c3.131-5.053-3.646-11.258-4.483-14.712-3.131-12.921 4.597-21.892 10.34-25.779 8.436 9.054 13.148 30.394-5.857 40.491z" fill-rule="evenodd" clip-rule="evenodd" fill="#727f48"/><g><path d="M47.209 124.969h-9.67c.738-5.302 5.33-19.855 6.509-26.324 2.829-15.533 4.478-25.716 3.35-36.206-.909-8.454-4.527-31.006-1.574-42.605 2.554-10.023 8.91-15.991 19.092-16.726 11.224-.82 19.266 4.904 23.688 14.927l-4.052 1.5C81.106 11.235 72.9 7.989 66.303 8.477c-3.32.24-11.314 1.862-13.83 11.738-2.562 10.058 2.049 38.062 2.462 41.249 1.503 11.636-1.816 29.859-4.745 45.937-1.166 6.39-2.265 12.425-2.981 17.568z" fill="#727f48"/></g><g><path d="M45.367 41.803c-3.168-3.212-14.328-13.027-24.947-4.453l-1.981-2.453c10.075-8.138 21.676-2.914 29.174 4.693l-2.246 2.213z" fill="#727f48"/></g><path d="M80.22 98.605c-.779-4.123.133-8.098-.011-10.526-.537-9.084-7.39-13.408-11.927-14.803C64.573 80.89 65.76 95.8 80.22 98.605z" fill-rule="evenodd" clip-rule="evenodd" fill="#727f48"/><g><path d="M54.121 83.187l-2.75-1.541c1.414-2.522 5.3-8.5 10.831-9.564 2.835-.547 5.629.267 8.294 2.42l-1.981 2.453c-1.937-1.563-3.808-2.144-5.718-1.777-4.353.837-7.741 6.343-8.676 8.009z" fill="#727f48"/></g><path d="M80.177 23.037c-2.585 2.599-7.179-1.605-8.89-1.779.03-1.113 2.288-1.885 3.234-2.138 1.574-.421 3.311-.14 4.97-.244.136-1.092-1.505-2.894-.624-3.991 2.075-.743 4.933 2.389 7.067 2.213.485-1.573.153-1.314.788-3.218.338-1.014 3.734-3.21 5.179-2.664.647.534-.961 3.046-1.661 4.71 2.197.043 2.447-.749 4.674-.933 1.471-.121 2.421.284 3.695.474-1.352.794-2.627 1.666-4.006 2.288-1.336.604-1.445 1.905-4.084 1.618-1.006-.11-7.016.878-10.342 3.664z" fill-rule="evenodd" clip-rule="evenodd" fill="#727f48"/><path d="M75.941 108.846c2.702 4.891 7.294 11.69 16.718 12.064 19.508.775 19.209-8.863 18.457-10.341-.817.664-1.81 1.041-4.43.99-2.758-.054-6.195-3.387-11.895-3.584-3.931-.136-9.974 1.402-13.574 1.983-3.555.573-3.213-1.991-5.276-1.112z" fill-rule="evenodd" clip-rule="evenodd" fill="#880e4f"/><g><g fill="#880e4f"><path d="M105.844 50.087c-4.367-1.228-13.058.172-16.499 3.958-3.441 3.786-4.226 11.396.182 8.15 4.407-3.247 21.308-11.001 16.317-12.108z" fill-rule="evenodd" clip-rule="evenodd"/><path d="M87.71 64.485a2.577 2.577 0 0 1-1.872-.786c-2.004-2.067-.361-7.674 2.338-10.643 3.8-4.182 12.967-5.832 18.063-4.42 1.584.368 1.964 1.32 2.049 1.858.351 2.236-2.839 4.257-11.369 9.048-2.66 1.493-5.17 2.903-6.449 3.845-1.12.824-2.036 1.098-2.76 1.098zm14.44-13.341c-4.154 0-9.417 1.447-11.636 3.89-1.874 2.062-2.603 5.146-2.464 6.312.135-.071.311-.18.533-.343 1.433-1.055 4.025-2.511 6.771-4.053 2.875-1.614 7.353-4.129 9.155-5.623a14.111 14.111 0 0 0-2.359-.183z"/></g><g fill="#c2185b"><path d="M108.983 49.043c.897 2.536-2.927 9.359-7.834 12.535-4.906 3.175-10.037 2.224-11.649 1.824-1.612-.4-1.212-2.013 2.056-1.756 3.267.257 11.132-5.701 13.252-8.274 2.119-2.573 3.444-5.482 4.175-4.329z" fill-rule="evenodd" clip-rule="evenodd"/><path d="M93.276 65.352c-1.791 0-3.258-.275-4.138-.494-1.617-.402-2.188-1.612-2.032-2.566.094-.578.712-2.445 4.566-2.141.042.003.085.005.129.005 2.496 0 9.669-5.092 11.85-7.737.628-.763 1.196-1.578 1.698-2.297 1.189-1.705 1.98-2.839 3.245-2.839l.047.001c.646.014 1.232.362 1.608.956l.147.303c1.212 3.427-3.201 10.907-8.433 14.294-3.055 1.978-6.188 2.515-8.687 2.515zm12.571-10.886c-1.617 1.867-6.534 5.918-10.623 7.752a12.611 12.611 0 0 0 5.109-1.899c2.292-1.483 4.217-3.75 5.514-5.853z"/></g><g fill="#ad1457"><path d="M92.587 50.909c-4.638 2.008-15.868.379-16.254 6.042-.386 5.664 4.67 7.157 8.46 7.729 3.79.571.357-1.068-.624-2.515-.982-1.447 1.667-6.778 4.601-7.506 2.934-.728 6.619-4.963 3.817-3.75z" fill-rule="evenodd" clip-rule="evenodd"/><path d="M85.952 66.301c-.472 0-.956-.073-1.383-.138-6.811-1.026-10.085-4.16-9.732-9.314.339-4.988 6.394-5.669 11.259-6.215 2.225-.25 4.525-.508 5.895-1.101.437-.19 1.598-.692 2.495.056.497.413.703 1.056.551 1.719-.371 1.622-3.572 4.229-5.905 4.808-1.988.493-3.826 4.258-3.671 5.275.231.299.719.713 1.082 1.021.851.722 1.908 1.62 1.346 2.858-.374.82-1.136 1.031-1.937 1.031zm1.659-12.821c-.389.046-.783.09-1.182.135-4.937.554-8.442 1.125-8.601 3.438-.198 2.917 1.341 4.721 4.94 5.687-.587-1.157-.229-2.683.197-3.797.797-2.08 2.536-4.52 4.646-5.463z"/></g><g fill="#880e4f"><path d="M116.946 55.439c1.576-4.043-4.776-8.581-7.134-12.019-2.359-3.437-5.552-3.894-8.682-3.603-3.13.292 1.227 2.674 4.09 5.266 2.863 2.592 6.551 8.015 2.921 12.023-3.63 4.009-4.818 7.622-1.509 5.407 3.308-2.214 10.114-2.826 10.314-7.074z" fill-rule="evenodd" clip-rule="evenodd"/><path d="M105.065 64.693a1.78 1.78 0 0 1-1.403-.649c-1.624-1.88 1.413-5.784 3.367-7.943 1.225-1.352 1.448-2.988.684-5.005-.625-1.65-1.933-3.482-3.499-4.899-.729-.659-1.564-1.309-2.373-1.937-2.212-1.718-3.673-2.853-3.221-4.401.261-.896 1.059-1.412 2.37-1.534 2.885-.27 7.062-.121 10.06 4.247.607.886 1.56 1.907 2.567 2.989 2.846 3.055 6.062 6.509 4.811 10.193-.333 3.676-4.188 5.15-7.298 6.34-1.406.537-2.734 1.046-3.662 1.667-.93.62-1.732.932-2.403.932zm-2.203-23.444c.278.221.562.441.817.64.813.632 1.734 1.347 2.547 2.082.913.827 3.159 3.072 4.291 6.062 1.168 3.083.73 5.877-1.265 8.081a23.242 23.242 0 0 0-1.804 2.244c.835-.389 1.73-.731 2.608-1.066 3.202-1.225 5.307-2.159 5.39-3.923l.011-.245.09-.229c.785-2.016-1.824-4.817-4.127-7.289-1.086-1.166-2.112-2.268-2.847-3.337-1.376-2.009-3.133-2.956-5.711-3.02z"/></g><g fill="#991052"><path d="M107.387 49.562c-1.922-3.439-7.524-10.591-12.198-8.63-4.675 1.962-10.34 7.817-14.344 9.969-4.004 2.151-6.522 4.556 3.705 1.661s15.547-2.614 18.249-2.128c2.701.486 6.219 1.037 4.588-.872z" fill-rule="evenodd" clip-rule="evenodd"/><path d="M78.203 55.389c-1.276 0-1.908-.396-2.226-1.182-.58-1.434.547-2.688 4.157-4.628 1.619-.87 3.607-2.452 5.713-4.127 2.912-2.317 5.924-4.713 8.761-5.903 5.842-2.456 12.03 5.667 14.02 9.16.915 1.146.742 2.034.426 2.585-.866 1.511-3.146 1.224-6.521.616-4.129-.746-10.038-.038-17.574 2.095-3.268.925-5.385 1.383-6.756 1.384zm18.651-13.286a2.78 2.78 0 0 0-1.085.212c-2.454 1.03-5.301 3.295-8.054 5.485-1.736 1.382-3.398 2.704-4.931 3.691.417-.11.867-.234 1.357-.373 7.979-2.259 14.343-2.982 18.922-2.161.996.18 1.811.306 2.438.378-1.976-3.097-5.698-7.232-8.647-7.232z"/></g><g fill="#ad1457"><path d="M95.56 38.761c-4.521-1.725-11.029-6.072-13.162-8.568-2.132-2.496-4.58-4.469-7.25 1.622s-1.36 12.084-2.853 15.392c-1.492 3.307-5.02 8.098-2.215 9.003 2.806.905 7.214-4.639 12.118-6.034 4.905-1.395 16.545-10.069 13.362-11.415z" fill-rule="evenodd" clip-rule="evenodd"/><path d="M70.751 57.815c-.379 0-.755-.056-1.131-.177-1.133-.366-1.64-1.109-1.866-1.669-.77-1.91.572-4.414 1.993-7.065.444-.829.864-1.613 1.181-2.313.528-1.169.645-2.948.779-5.008.194-2.961.436-6.646 2.067-10.369 1.347-3.071 2.812-4.626 4.613-4.893 2.367-.352 4.25 1.844 5.151 2.898 1.872 2.191 8.159 6.464 12.556 8.141l.05.02c.974.412 1.517 1.269 1.454 2.292-.23 3.73-10.666 10.718-14.99 11.947-2.001.569-4.055 2.018-5.866 3.295-2.181 1.538-4.116 2.901-5.991 2.901zm-.229-3.048c.918.21 2.896-1.181 4.492-2.306 2.008-1.415 4.282-3.019 6.774-3.728 3.805-1.082 11.258-6.597 12.617-8.819-4.532-1.882-10.859-6.068-13.147-8.746-1.128-1.321-1.957-1.946-2.431-1.88-.167.024-1.061.291-2.305 3.13-1.421 3.24-1.634 6.491-1.822 9.36-.153 2.351-.286 4.381-1.038 6.046-.357.793-.822 1.659-1.271 2.496-.692 1.293-1.958 3.655-1.869 4.447z"/></g><g fill="#9b1053"><path d="M116.341 45.606c-1.554 2.344-2.423-3.12-5.92-3.943-3.497-.822-11.247-1.569-18.237-4.994-6.99-3.425-19.255-9.457-5.948-13.206 13.307-3.749 16.526.613 20.434 6.673 3.906 6.06 13.93 11.832 9.671 15.47z" fill-rule="evenodd" clip-rule="evenodd"/><path d="M115.568 47.686c-1.242 0-1.973-1.014-2.745-2.085-.745-1.034-1.59-2.206-2.745-2.478-.765-.18-1.776-.361-2.947-.572-3.996-.719-10.034-1.806-15.606-4.535-7.163-3.51-13.063-6.738-12.704-10.693.278-3.062 4.134-4.493 7.009-5.303 13.697-3.859 17.642.387 22.102 7.304 1.262 1.957 3.263 3.938 5.197 5.853 3.138 3.105 5.847 5.787 5.745 8.551-.04 1.097-.513 2.066-1.405 2.885-.517.699-1.14 1.06-1.854 1.073h-.047zM94.661 23.571c-2.121 0-4.728.409-8.019 1.336-3.478.98-4.778 2.06-4.835 2.688-.202 2.221 7.963 6.222 11.036 7.729 5.195 2.545 10.985 3.587 14.817 4.275 1.213.219 2.261.407 3.104.605 2.246.528 3.597 2.402 4.491 3.644.096.133.204.283.312.427.256-.277.301-.493.307-.656.053-1.448-2.556-4.031-4.857-6.31-2.05-2.028-4.169-4.126-5.608-6.359-2.651-4.111-4.759-7.379-10.748-7.379z"/></g></g></g></svg>