<svg id="图层_1" xmlns="http://www.w3.org/2000/svg" xmlns:xlink="http://www.w3.org/1999/xlink" viewBox="0 0 128 128"><g><defs><path id="SVGID_1_" d="M0 0h128v128H0z"/></defs><clipPath id="SVGID_2_"><use xlink:href="#SVGID_1_" overflow="visible"/></clipPath><g clip-path="url(#SVGID_2_)"><path fill="#006ca2" d="M50.138 61.85H75.73L107.721 0H82.127z"/><path fill="#2f2f2f" d="M66.131 30.925L53.337 55.666l3.199 6.184H75.73l3.199-6.184z"/><path d="M77.773 76.779H52.181V61.85h25.593v14.929zm0-21.327H52.181a6.397 6.397 0 0 0-6.398 6.398v14.93a6.397 6.397 0 0 0 6.398 6.398h25.593a6.396 6.396 0 0 0 6.399-6.398V61.85a6.397 6.397 0 0 0-6.4-6.398" fill="#f79329"/><path d="M96.969 95.975c0 17.669-14.323 31.99-31.99 31.99-17.669 0-31.993-14.321-31.993-31.99 0-17.669 14.323-31.992 31.993-31.992 17.667-.001 31.99 14.323 31.99 31.992" fill="#f79329"/><path d="M43.531 88.19c-.422 0-.843-.085-1.241-.257a3.149 3.149 0 0 1-1.685-4.007c.007-.025.017-.049.025-.072.012-.051.014-.038.038-.081A22.804 22.804 0 0 1 56.552 70.4a.786.786 0 0 1 .663 1.381c-4.672 3.711-8.403 8.716-10.786 14.472a.077.077 0 0 1-.01.023 3.116 3.116 0 0 1-1.729 1.691c-.374.15-.768.223-1.159.223" fill="#fff"/><path fill="#006ca2" d="M77.861 61.85H52.27L20.279 0h25.594z"/><path d="M64.697 111.852l.16-.001c1.812-.025 5.244-.427 7.863-2.781 2.182-1.963 3.191-4.645 2.778-7.361-.392-2.529-1.981-4.685-4.409-6.01 2.33-1.754 3.73-3.941 3.975-6.219.235-2.209-.627-4.412-2.496-6.372-1.883-1.972-4.418-3.011-7.334-3.011-4.486 0-8.618 2.374-9.872 4.089a.425.425 0 0 0-.007.495l2.785 4.031a.406.406 0 0 0 .293.181.42.42 0 0 0 .329-.092c.031-.024 3.063-2.508 5.647-2.508 1.183 0 2.053.518 2.668 1.582.51.895.609 1.703.297 2.476-.85 2.104-4.451 3.165-4.485 3.176a.43.43 0 0 0-.309.41v3.551c0 .195.131.368.326.414.037.007 3.458.859 4.241 2.819.307.769.151 1.64-.464 2.593-.647 1.004-1.631 1.513-2.918 1.513-2.498 0-5.56-1.896-6.904-3.09a.417.417 0 0 0-.332-.105.417.417 0 0 0-.302.182l-2.785 4.033a.431.431 0 0 0 .026.519c.192.224 4.755 5.486 11.229 5.486" fill="#ae3d09"/></g></g></svg>