<svg id="レイヤー_1" xmlns="http://www.w3.org/2000/svg" viewBox="0 0 128 128"><g><path d="M127.167 15.899c-.009 4.29-.841 8.561-2.302 12.712-2.96 8.414-7.367 15.938-13.874 22.122-5.076 4.824-11.255 7.285-18.121 8.067-4.083.465-8.192.693-12.288 1.042-2.765.236-5.074 1.268-6.953 3.446-8.262 9.574-18.69 21.224-27.038 30.723-8.562 9.742-18.519 20.051-28.751 28.069-2.175 1.704-4.689 3.042-7.195 4.237-2.333 1.111-4.549.559-6.497-1.284-3.329-3.15-3.946-5.404-1.723-9.396a51.854 51.854 0 0 1 5.485-7.975c8.949-10.712 20.112-21.16 30.664-30.26 7.688-6.63 17.37-15.526 25.162-22.03 3.344-2.791 4.481-6.218 4.749-10.324.289-4.444.631-8.912 1.399-13.291 1.246-7.098 4.867-12.953 10.359-17.618 7.465-6.343 15.908-10.746 25.561-12.672 3.676-.734 7.393-.949 11.062-.004 5.948 1.532 9.385 5.655 10.099 11.952.087.782.128 1.57.202 2.484z" fill="#78a3ad"/></g></svg>