<svg id="图层_1" xmlns="http://www.w3.org/2000/svg" xmlns:xlink="http://www.w3.org/1999/xlink" viewBox="0 0 128 128"><g><defs><path id="SVGID_1_" d="M0 0h128v128H0z"/></defs><clipPath id="SVGID_2_"><use xlink:href="#SVGID_1_" overflow="visible"/></clipPath><g clip-path="url(#SVGID_2_)"><path fill="#006ca2" d="M48.873 61.823h25.581L106.433 0H80.85z"/><path fill="#2f2f2f" d="M64.86 30.912L52.072 55.64l3.197 6.183h19.185l3.198-6.183z"/><path d="M76.498 76.745H50.916V61.823h25.582v14.922zm0-21.318H50.916a6.395 6.395 0 0 0-6.396 6.396v14.922a6.396 6.396 0 0 0 6.396 6.396h25.582a6.394 6.394 0 0 0 6.395-6.396V61.823a6.394 6.394 0 0 0-6.395-6.396" fill="#fcc21b"/><path d="M95.684 95.932c0 17.662-14.315 31.977-31.977 31.977-17.66 0-31.977-14.315-31.977-31.977s14.317-31.978 31.977-31.978c17.661 0 31.977 14.316 31.977 31.978" fill="#fcc21b"/><path d="M42.27 88.151c-.421 0-.842-.085-1.241-.258a3.145 3.145 0 0 1-1.683-4.005c.007-.024.017-.049.023-.072.014-.049.016-.037.04-.081a22.8 22.8 0 0 1 15.877-13.366.786.786 0 0 1 .663 1.38c-4.671 3.71-8.4 8.711-10.781 14.466l-.009.023a3.113 3.113 0 0 1-1.728 1.689c-.376.15-.77.224-1.161.224" fill="#fff"/><path fill="#006ca2" d="M76.586 61.823H51.005L19.028 0H44.61z"/><path d="M57.504 89.405l2.972-.852v16.31h-2.292a.44.44 0 0 0-.44.441v5.575c0 .244.195.439.44.439H70.03c.24 0 .437-.195.437-.439v-5.575a.44.44 0 0 0-.437-.441h-2.291V80.981a.432.432 0 0 0-.166-.34.436.436 0 0 0-.366-.091l-9.916 2.126a.446.446 0 0 0-.345.431v5.876c0 .135.062.267.174.349a.446.446 0 0 0 .384.073" fill="#f79329"/></g></g></svg>