<svg xmlns="http://www.w3.org/2000/svg" xmlns:xlink="http://www.w3.org/1999/xlink" viewBox="0 0 128 128"><g id="图层_2"><path d="M126.333 77.427c0 11.495-19.166 25.327-62.333 25.327-49.418 0-62.333-13.832-62.333-25.327" fill="#a4b5be"/><ellipse cx="64" cy="76.961" rx="62.333" ry="19.882" fill="#f6f6f6"/><g><path d="M64 59.228c35.467 0 60.184 9.345 60.184 17.733S99.467 94.694 64 94.694 3.816 85.349 3.816 76.961 28.533 59.228 64 59.228m0-2.149c-34.426 0-62.333 8.902-62.333 19.882S29.574 96.843 64 96.843s62.333-8.902 62.333-19.882S98.426 57.079 64 57.079z" fill="#e4e7e9"/></g><path d="M17.703 73.484c-4.007 5.679-.986 8.524 8.422 11.016 6.151 1.629 16.736 4.641 25 5.271 18.984 1.447 37.144-2.194 42.375-3.521 7.068-1.793 20.708-3.75 18.625-11-6.267-13.051-29.007-.057-39.9.622-18.579 1.158-36.503 2.045-54.522-2.388z" fill="#9c9c9f"/><g><path d="M48.776 53.065c-10.286 1.25-12.801 3.056-18.995 4.942-5.261 1.602-15.587 3.206-15.928 7.667-.396 5.172 3.301 10.61 5.042 11.893 7.968 5.875 18.566 5.34 23.912 6.327 4.821.89 14.685 1.977 25.673 1.327 6.63-.392 10.75-.405 16.498-1.658 3.358-.732 12.67-2.312 15.22-3.396 3.417-1.453 10.24-5.023 8.984-12.356-.733-4.277-5.332-3.716-11.443-8.074-3.503-2.498-10.284-3.465-16.68-4.866-15.453-3.385-21.998-3.057-32.283-1.806z" fill="#f5d385"/><path d="M48.776 47.398c-10.286 1.25-12.623.924-18.817 2.81-5.261 1.602-15.198 6.771-16.136 11.167-.806 3.777.162 7.434 1.55 8.96 3.295 3.625 4.957 3.497 9.551 4.862 4.39 1.304 8.373 1.436 13.615 2.403 4.821.89 18.859 2.613 29.848 1.963 6.63-.392 14.127-.768 19.961-1.48 3.853-.47 9.552-.5 14.969-2.333 3.392-1.148 6.646-2.439 5.693-9.864-.561-4.371-4.962-7.317-11.271-11.817-3.503-2.498-10.284-3.465-16.68-4.866-15.453-3.384-21.998-3.055-32.283-1.805z" fill="#b95930"/><path d="M48.776 44.888c-10.286 1.25-12.801 3.056-18.995 4.942-5.261 1.602-13.437 6.692-14.906 10.974-.903 2.631-.092 4.926.824 6.822 1.357 2.807 4.28 3.433 8.508 4.637 4.302 1.225 8.3 2.092 13.646 3.078 4.821.89 19.679 2.775 30.668 2.125 6.63-.392 15.353-1.587 21.195-2.217 3.3-.356 11.655-.697 14.204-1.781 7.908-3.362 4.58-14.235-6.181-21.909-3.503-2.498-10.284-3.465-16.68-4.866-15.453-3.384-21.998-3.055-32.283-1.805z" fill="#e5892f"/></g><path d="M21.24 59.951c-5.149 5.027 7.223 9.729 10.385 10.549 14.117 3.661 29.543 4.759 44.093 3.945 5.948-.333 26.652-1.063 30.69-5.81 3.431-4.034-.855-8.536-1.557-9.659-.881-1.408-13.373 2.568-14.975 2.775-22.814 2.945-45.851-3.304-68.636-1.8z" fill="#cc7b32"/><g><path d="M78.45 40.285c10.427 1.47 12.945 3.324 19.2 5.339 5.313 1.711 12.947 2.275 13.199 6.731.293 5.166-1.857 8.649-3.45 10.094-7.301 6.626-18.401 7.199-23.855 8.067-4.918.783-14.65 2.29-25.804 1.404-6.729-.535-10.917-.636-16.732-2.01-3.397-.803-10.786-2.226-13.353-3.364-4.027-1.785-10.294-5.409-9.405-13.331.483-4.304 3.991-3.126 10.295-7.339 3.613-2.415 10.526-3.233 17.056-4.491 15.778-3.039 22.422-2.57 32.849-1.1z" fill="#f5d385"/><path d="M78.57 34.635c10.427 1.47 12.945 3.324 19.2 5.339 5.313 1.711 11.944 4.359 12.804 8.762.739 3.783.339 6.429-.84 8.15-2.012 2.935-4.304 3.776-7.359 5.157-4.333 1.957-9.191 1.874-14.645 2.743-4.918.783-18.62 2.382-29.774 1.496-6.73-.535-12.313-.909-18.128-2.282-3.397-.803-10.395-1.485-15.861-3.43-3.423-1.218-6.857-2.915-5.731-10.297.663-4.346 3.326-7.234 9.834-11.583 3.613-2.415 11.121-1.696 17.651-2.954 15.778-3.04 22.423-2.571 32.849-1.101z" fill="#b95930"/><path d="M78.624 32.132c10.427 1.47 12.079 4.395 18.335 6.41 5.313 1.711 10.974 5.157 12.377 9.458.862 2.643 1.034 4.141.226 6.09-1.559 3.761-3.013 4.375-6.399 5.754-4.371 1.781-7.253 1.757-12.707 2.625-4.918.783-21.437 2.605-32.592 1.719-6.729-.535-15.672-.957-21.487-2.331-3.397-.803-10.705-1.794-13.06-3.323-6.602-4.285-5.697-13.393 5.403-20.811 3.613-2.415 10.526-3.233 17.056-4.491 15.776-3.039 22.421-2.569 32.848-1.1z" fill="#e5892f"/></g><path d="M23.946 46.089c-3.692 6.311 4.587 8.918 15.216 11.935C53.167 62 70.521 60.468 75.667 59.936c7.949-.823 22.26-1.094 28.646-6.686 11.275-9.874-6.27-13.214-12.938-12.789-21.423 1.363-46.609 1.507-67.429 5.628z" fill="#cc7b32"/><g><path d="M50.801 24.751c-10.051 1.25-12.509 3.056-18.562 4.942-5.141 1.602-12.778.374-13.112 4.835-.387 5.172 1.961 10.216 3.397 11.823 6.465 7.233 17.537 7.61 22.76 8.597 4.711.89 14.032 2.609 24.77 1.959 6.478-.392 10.505-.405 16.122-1.658 3.281-.732 10.943-2.81 13.435-3.894 3.339-1.453 10.007-5.023 8.779-12.356-.716-4.277-3.772-3.219-9.744-7.577-3.423-2.498-10.05-3.465-16.3-4.866-15.099-3.383-21.494-3.055-31.545-1.805z" fill="#f5d385"/><path d="M50.801 19.085c-10.051 1.25-12.54 1.863-18.593 3.749-4.999 1.558-11.502 2.127-12.742 8.073-.788 3.777-.046 6.222.64 8.188 1.023 2.927 2.489 4.664 6.953 6.573 4.043 1.729 8.242 1.847 13.466 2.833 4.711.89 18.701 3.4 29.439 2.75 6.478-.392 14.443-1.664 20.059-2.917 3.281-.732 7.429-.25 12.723-2.083 3.314-1.148 6.408-1.75 5.477-9.174-.548-4.371-2.583-8.706-8.749-13.205-3.423-2.498-10.877-1.579-17.127-2.98-15.1-3.386-21.495-3.058-31.546-1.807z" fill="#b95930"/><path d="M50.801 16.575c-10.051 1.25-12.509 3.056-18.562 4.942-5.141 1.602-9.777 3.674-11.213 7.956-.882 2.631-.906 5.182-.01 7.079 1.326 2.807.225 4.865 4.689 6.774 4.043 1.729 7.406 1.93 12.63 2.917 4.711.89 21.022 3.561 31.76 2.911 6.478-.392 14.844-1.462 20.461-2.715 3.281-.732 10.201-.695 12.693-1.779 6.772-2.947 5.011-14.397-4.602-21.412-3.423-2.498-10.05-3.465-16.3-4.866-15.1-3.386-21.495-3.058-31.546-1.807z" fill="#e5892f"/></g><path d="M41.146 81.833c-2.661-.388-5.715-.09-9.062-.75-1.842-.363-5.583-3.483-4.895-6.356.417-1.741-2.08-3.794.299-4.904 1.294-.604 3.376-.108 4.168-1.865.145-.321-1.442-.396-1.997-.818-2.243-1.705 2.935-3.559 2.217-8.466-.121-.83-1.325-1.886-1.497-3.408-.14-1.24 4.13-2.237.303-3.47-.717-.231-1.852-1.7-1.161-3.469 1.151-2.95 5.09-1.844 5.652-5.623.273-1.831.839-2.395 2.281-2.859 4.122-1.326 7.184.517 11.609 2.31 6.961 2.82 2.724 3.204 1.773 6.429-.442 1.497-.169 3.017.733 4.159.477.603 1.248 3.256.294 3.32-1.227.082-.877 1.784-1.227 2.613-.688 1.627-2.332 1.787-2.51 3.701-.228 2.45-.119 3.315 1.25 5.25.832 1.176.717 3.154-.098 3.312-1.462.282-.352 2.08-1.24 3.478-.833 1.311-1.29 2.833-1.121 3.919.28 1.796-2.242 3.755-6.534 3.399-7.564-.628-9.376 10.044-2.943 11.862 7.329 2.072 13.598 1.776 21.185 1.602 6.096-.14 6.562.616 13.311-.168 3.007-.349 7.564-1.966 7.477-6.22-.053-2.562-6.746-3.39-13.329-4.142-2.462-.281-3.854-1.368-3.5-4.417.254-2.193.579-3.418-.29-5.009-.714-1.309.263-2.588-1.136-3.375-.551-.31-.163-1.791.422-3.065.716-1.558 2.577-1.308 3.008-5.689.214-2.179-1.007-2.328-1.953-3.171-1.055-.941-.774-2.624-1.741-3-1.127-.439-.647-2.613.461-3.52 1.375-1.125 1.708-4.234.989-5.421-.549-.908-.531-2.205.312-2.781 2.103-1.437 4.188-.312 6.938-.875 3.057-.625 8.823-2.199 10.817.607 1.863 2.621 2.474 3.292 2.839 6.405.129 1.097.322 3.716-2.865 4.857-1.494.535.291 2.299.519 2.893.515 1.34.315 2.738 1.158 4.394.795 1.56 2.099 2.214 2.5 4.5.221 1.263-1.437 2.499-1.9 2.656-2.704.92.996 2.295.156 4.043-1.276 2.654 4.931 7.635 1.783 8.945-2.263.942-4.477 3.232-4.009 5.006.914 3.46 5.258 1.759 8.406 1.441 1.965-.199 6.212-.295 10.688-1.466.941-.246 3.577-.47 8.312-1.723 1.872-.495 5.962-1.973 7.188-2.84 1.743-1.233 4.668-3.053 4.479-4.979-.208-2.125-4.104-5.083-7.626-5.827-.795-.168-3.026-.822-3.763.496-.861 1.539-2.474 1.588-4.473 1.83-2.75.333-.5-4.213-3.44-4.838-1.503.052-5.184-1.279-3.824-2.453 1.458-1.259 1.802-2.403 3.21-4.292 1.67-2.242 1.5-5.062-1.375-6.949-1.32-.867-3.576-1.248-4.694-3.021-.806-1.279 2.069-2.033 1.881-5.279-.079-1.376-2.195-3.688-2-5 .429-2.896 3.307-4.134 4.062-5.75 1.181-2.525 1.823-3.402 4.682-4.857 1.549-.788 1.712-1.557 3.002-1.82.57-.116 1.893 1.986 2.232-.34.172-1.179-1.642-4.169-3.041-5.483-1.857-1.744-4.647-2.49-7.439-3.203-1.284-.328-3.209-1.026-5.623-2.484-2.59-1.565-1.464-1.836-6.562-3.062-4.938-1.188-8.118.387-13.373.585-4.168.157-8.205-.605-12.243-1.27-3.157-.519-2.541-1.656-7.759-1.078-6.249 1.096-6.996 1.647-10.583 3.846-2.004 1.228-7.07 2.862-8.969 4.375-2.279 1.816-4.744 3.611-7.321 5.625-1.537 1.201-4.504 1.655-6.046 3.641-4.375 5.63 2.319 11.76 1.795 14.839-.599 3.521-6.844 1.354-3.25 10.688.59 1.533 2.003 4.583.298 5.394-1.536.73-3.178.561-4.139 2.412-1.676 3.23.798 5.104.54 8.444-.096 1.241-1.948 1.562-3.959 2.274C5.852 77.943 7.917 82.387 12.5 85c3.276 1.868 8.028 6.2 13.5 6.25 2.662.024 5.736 1.368 12.5 2.63" fill="#d87d2b"/><g><defs><path id="SVGID_1_" d="M57.547 19.631c-2.899 2.111-7.551 6.797-11.11 9.731-1.498 1.235-1.624 3.981-.114 5.028 4.586 3.18 11.299 3.898 17.697 6.225 1.495.544 4.876.487 6.982-1.353 3.458-3.021 8.588-7.058 10.162-10.771 1.15-2.714 1.18-4.216-2.517-4.977-3.106-.639-10.186-3.196-14.453-4.279-2.707-.685-5.182-.588-6.647.396z"/></defs><use xlink:href="#SVGID_1_" overflow="visible" fill="#f8e1aa"/><clipPath id="SVGID_2_"><use xlink:href="#SVGID_1_" overflow="visible"/></clipPath><path d="M46.828 28.204c-.516 2.979 4.648 6.349 16.985 8.701 2.293.437 4.062.349 5.926-1.009 2.623-1.911 5.645-3.864 7.397-6.434 1.043-1.53 2.738-4.606 2.027-5.828-1.423-2.444 5.422.452 4.061 4.828-1.438 4.624-3.17 9.554-7.545 12.277-4.642 2.89-10.407 3.081-15.751 1.946-5.031-1.068-21.091-5.787-15.49-12.739.403-.5 1.928-1.285 2.39-1.742" clip-path="url(#SVGID_2_)" fill="#f5d385"/></g><path d="M23.099 34.38c-.795 5.847 8.923 6.683 9.196 5.01.134-.821-1.471-.459-3.742-1.248-1.127-.392-2.211-1.332-2.944-2.282-.538-.698-.458-1.884-1.249-2.306-.416-.221-1.163.102-1.261.826z" fill="#e9bdaa"/><path d="M93.768 23.375c7.062 4.188 2.871 9.219.331 11.226-2.045 1.616-6.385 5.31-9.711 5.535-.972.066-.992-1.03-.197-1.301 3.464-1.18 8.481-5.144 10.121-8.21 2.659-4.973-5.607-5.625-3.944-7.712 1.204-.046 2.372-.153 3.4.462z" fill="#e9bdaa"/><path d="M20.811 52.452c.281 1.468 3.665 4.31 4.25 3.293.59-1.269.205-1.573-.959-2.231-.354-.2-1.18-.578-1.832-1.072-.716-.543-.947-1.291-1.293-1.034-.27.18-.214.786-.166 1.044z" fill="#e9bdaa"/><path d="M7.375 39.5H7.5" fill="none"/><path d="M19.742 82.989c-.496 1.327 1.176 3.082 4.296 4.293 5.2 2.018 12.256 3.303 14.538 3.418.719.036 4.775.939 5.429-.232.609-1.092-1.994-1.093-2.36-1.108-2.852-.121-14.555-2.933-15.716-3.342-1.334-.47-3.357-1.504-4.606-2.164-.603-.319-.88-1.232-1.581-.865z" fill="#e9bdaa"/><path d="M124.184 76.961c0 8.387-24.717 17.733-60.184 17.733S3.816 85.349 3.816 76.961H1.667c0 10.981 27.908 19.882 62.333 19.882 34.426 0 62.333-8.902 62.333-19.882h-2.149z" fill="#e4e7e9"/><path d="M17.152 65.232c-.473.373-.578 1.267-.236 1.763.159.231.394.399.632.549.64.406 1.333.721 2.023 1.035l.926.422c.523.238 1.676.56 2.11.263.344-.236.318-1.088-.067-1.213l-2.617-.923c-.206-.073-.413-.145-.612-.237-1.145-.532-1.369-1.388-1.456-1.559-.118-.231-.486-.218-.703-.1z" fill="#e9bdaa"/><path d="M47.808 39.441c.916.158 5.436 1.475 6.567 3.302.489.79.771 1.688 1.14 2.541.182.42.549.906.983.763.254-.084.39-.356.473-.61.443-1.364.079-2.979-.95-3.979-1.588-1.543-7.027-3.063-8.394-2.627-.261.093-.144.524.181.61z" fill="#e9bdaa"/><path d="M52.422 61.636c.732.341 1.56.381 2.367.381l1.431.001c.389 0 .86-.048 1.027-.399.137-.287-.024-.645-.28-.834-.256-.189-.582-.249-.895-.304l-3.632-.641c-.202-.036-.42-.069-.603.024-.182.092-.8 1.127.585 1.772z" fill="#e9bdaa"/><path d="M51.445 75.249l-1.062.072c-.25.017-.579.12-.56.369.012.147.151.247.28.32 1.363.764 3.007.829 4.564.693.403-.035.825-.09 1.151-.329.326-.239.509-.721.29-1.061-.441-.375-3.11.018-4.663-.064z" fill="#e9bdaa"/><path d="M48.82 23.411c0 .652-1.89.813-2.836 1.219-.464.2-.932.401-1.348.687-.905.622-1.498 1.592-2.064 2.533-.716 1.189-1.459 2.512-1.233 3.882.264 1.601 1.743 3.212 3.106 4.094.279.181.584.565.337.787-1.181.213-3.019-.203-3.719-1.178-.283-.394-.374-.897-.626-1.311-.529-.87-1.36-1.349-1.486-2.359-.061-.492.169-.967.392-1.409l1.419-2.805.539-1.066c.17-.335.342-.675.593-.955 1.037-1.16 2.385-1.062 3.732-1.841.409-.237 1.316-.413 1.753-.593.435-.182 1.161-.065 1.441.315z" fill="#e9bdaa"/></g></svg>