<svg id="レイヤー_1" xmlns="http://www.w3.org/2000/svg" viewBox="0 0 128 128"><g><g><g><path d="M93.996 122.906a9.09 9.09 0 0 1-.971-1.274l-5.388-8.53a3.047 3.047 0 0 1 .949-4.203 3.053 3.053 0 0 1 4.203.949l5.388 8.531a2.945 2.945 0 0 0 2.106 1.353l.662.089a14.242 14.242 0 0 0 11.606-3.664c3.14-2.9 4.808-7.01 4.574-11.278a2.948 2.948 0 0 0-1.455-2.389l-8.677-5.1a3.046 3.046 0 1 1 3.087-5.253l8.676 5.1a9.031 9.031 0 0 1 4.452 7.309 20.324 20.324 0 0 1-6.524 16.087 20.32 20.32 0 0 1-16.554 5.226l-.662-.089a9.02 9.02 0 0 1-5.472-2.864z" fill="#77a3ae"/></g><g><path d="M8.875 29.58a9.03 9.03 0 0 1-2.349-5.712l-.029-.666C6.24 17.11 8.69 11.277 13.22 7.197s10.586-5.91 16.617-5.021a9.032 9.032 0 0 1 6.871 5.105l4.282 9.107a3.046 3.046 0 1 1-5.514 2.592l-4.282-9.108a2.96 2.96 0 0 0-2.247-1.669 14.245 14.245 0 0 0-11.65 3.52 14.243 14.243 0 0 0-4.713 11.221l.028.666a2.954 2.954 0 0 0 1.153 2.221l8.001 6.149a3.047 3.047 0 0 1-3.713 4.831l-8-6.148a9.193 9.193 0 0 1-1.178-1.083z" fill="#77a3ae"/></g></g><g><circle cx="63.761" cy="64.666" r="58.999" fill="#77a3ae"/></g><circle cx="63.761" cy="64.666" r="52.108" fill="#f09300"/><path d="M96.433 100.488c-6.707 6.117-16.658 8.476-24.951 10.163-16.169 3.291-29.879.535-41.807-12.542-7.013-7.689-12.754-20.059-13.953-29.657-1.886-15.095 3.156-26.286 15.25-37.317 7.21-6.576 16.482-10.848 25.445-12.308 15.631-2.547 31.461 2.326 42.929 14.9 7.332 8.038 8.253 17.814 9.234 27.869 1.435 14.691-.401 28.179-12.147 38.892z" fill="#ffb74d"/><path d="M20.096 54.238c.547.657.904 1.381.338 1.706-.523.301-1.213-.193-1.744-.856-.456-.57-.748-1.2-.323-1.554.524-.438 1.144.122 1.729.704z" fill="#fada80"/><path d="M67.484 38.972c.547.657.904 1.381.338 1.706-.523.301-1.213-.193-1.744-.856-.456-.57-.748-1.2-.323-1.554.523-.437 1.143.123 1.729.704z" fill="#fada80"/><path d="M51.462 26.201c-.63.579-1.334.971-1.687.422-.326-.508.133-1.221.769-1.784.547-.484 1.161-.806 1.536-.399.462.501-.067 1.148-.618 1.761z" fill="#fada80"/><path d="M96.729 92.34c.547.657.904 1.381.338 1.706-.523.301-1.213-.193-1.744-.856-.456-.57-.748-1.2-.323-1.554.523-.438 1.143.122 1.729.704z" fill="#fada80"/><path d="M97.312 48.878c.405-.753.942-1.355 1.456-.952.475.373.275 1.198-.142 1.938-.358.636-.833 1.142-1.32.881-.602-.322-.314-1.106.006-1.867z" fill="#fada80"/><path d="M79.144 78.379c.547.657.904 1.381.338 1.706-.523.301-1.213-.193-1.744-.856-.456-.57-.748-1.2-.323-1.554.524-.438 1.144.123 1.729.704z" fill="#f6ecbf"/><path d="M32.553 45.363c.547.657.904 1.381.338 1.706-.523.301-1.213-.193-1.744-.856-.456-.57-.748-1.2-.323-1.554.523-.437 1.143.123 1.729.704z" fill="#fada80"/><path d="M54.734 104.328c.547.657.904 1.381.338 1.706-.523.301-1.213-.193-1.744-.856-.456-.57-.748-1.2-.323-1.554.524-.437 1.144.123 1.729.704z" fill="#fada80"/><path d="M59.803 22.344c.812 1.342-.073 2.396-.719 3.352-.829 1.227-1.876.582-2.607-.184-.735-.77-1.332-1.861-.149-2.676.998-.685 2.218-1.053 3.475-.492z" fill="#689f38"/><path d="M97.191 84.719c.812 1.342-.073 2.396-.719 3.352-.829 1.227-1.876.582-2.607-.184-.735-.77-1.332-1.861-.149-2.676.998-.686 2.218-1.053 3.475-.492z" fill="#689f38"/><path d="M74.971 84.415c-.629 1.438-2 1.322-3.154 1.345-1.481.03-1.557-1.198-1.352-2.236.206-1.044.753-2.162 2.1-1.664 1.136.419 2.14 1.204 2.406 2.555z" fill="#689f38"/><path d="M35.968 37.524c-.629 1.438-2 1.322-3.154 1.345-1.481.03-1.557-1.198-1.352-2.236.206-1.044.753-2.162 2.1-1.664 1.136.418 2.14 1.204 2.406 2.555z" fill="#689f38"/><path d="M77.458 42.501c.812 1.342-.073 2.396-.719 3.352-.829 1.227-1.876.582-2.607-.184-.735-.77-1.332-1.861-.149-2.676.998-.685 2.218-1.053 3.475-.492z" fill="#689f38"/><path d="M100.219 39.943c.812 1.342-.073 2.396-.719 3.352-.829 1.227-1.876.582-2.607-.184-.735-.77-1.332-1.861-.149-2.676.997-.685 2.217-1.053 3.475-.492z" fill="#e64a19"/><path d="M104.927 74.554c.812 1.342-.073 2.396-.719 3.352-.829 1.227-1.876.582-2.607-.184-.735-.77-1.332-1.861-.149-2.676.998-.686 2.218-1.053 3.475-.492z" fill="#e64a19"/><path d="M47.653 102.106c.812 1.342-.073 2.396-.719 3.352-.829 1.227-1.876.582-2.607-.184-.735-.77-1.332-1.861-.149-2.676.998-.686 2.218-1.053 3.475-.492z" fill="#e64a19"/><path d="M28.36 79.491c.812 1.342-.073 2.396-.719 3.352-.829 1.227-1.876.582-2.607-.184-.735-.77-1.332-1.861-.149-2.676.997-.685 2.218-1.053 3.475-.492z" fill="#e64a19"/><path d="M27.394 45.261c.812 1.342-.073 2.396-.719 3.352-.829 1.227-1.876.582-2.607-.184-.735-.77-1.332-1.861-.149-2.676.998-.685 2.218-1.053 3.475-.492z" fill="#e64a19"/><path d="M69.884 22.465c.812 1.342-.073 2.396-.719 3.352-.829 1.227-1.876.582-2.607-.184-.735-.77-1.332-1.861-.149-2.676.998-.685 2.218-1.053 3.475-.492z" fill="#e64a19"/><path d="M63.273 102.288c1.636.51 1.675 2.012 1.839 3.262.211 1.604-1.113 1.834-2.265 1.737-1.158-.098-2.437-.557-2.059-2.08.319-1.284 1.051-2.468 2.485-2.919z" fill="#689f38"/><path d="M104.085 52.335c1.636.51 1.675 2.012 1.839 3.262.211 1.604-1.113 1.834-2.265 1.737-1.158-.098-2.437-.557-2.059-2.08.318-1.283 1.05-2.468 2.485-2.919z" fill="#689f38"/><path d="M33.549 90.85c1.124.048 1.499.596 1.214 1.69-.257.984-.283 2.298-1.785 1.842-1.099-.334-2.538-.943-2.15-2.4.287-1.077 1.701-.986 2.721-1.132z" fill="#689f38"/><path d="M48.862 59.531c.401 1.051.047 1.613-1.07 1.784-1.005.154-2.222.651-2.398-.908-.129-1.141-.141-2.704 1.351-2.925 1.101-.163 1.579 1.17 2.117 2.049z" fill="#689f38"/><g><path d="M54.93 79.999c-2.784-.972-2.962-3.06-1.702-5.128 1.235-2.028 3.205-2.313 5.199-.738-.028.649 1.03 1.37-.129 1.946-2.089-.343-3.907-.391-2.894 2.655a1.75 1.75 0 0 1-.474 1.265z" fill="#f6ecbf"/><path d="M58.465 75.87l-.038-1.736c1.389 1.289 1.52 2.866.67 4.4-.891 1.608-2.408 2.025-4.167 1.465l.035-.975c1.241-.969 2.441-1.984 3.5-3.154z" fill="#f6ecbf"/><path d="M58.465 75.87c.404 2.794-.991 3.593-3.5 3.155-1.304-1.277-2.085-2.64-.326-4.11 1.646-1.375 2.77-.251 3.826.955z" fill="#ffa726"/></g><g><path d="M54.702 59.672c-2.784-.972-2.962-3.06-1.702-5.128 1.235-2.028 3.205-2.313 5.199-.738-.028.649 1.03 1.37-.129 1.946-2.089-.343-3.907-.391-2.894 2.655a1.76 1.76 0 0 1-.474 1.265z" fill="#f6ecbf"/><path d="M58.237 55.543l-.038-1.736c1.389 1.289 1.52 2.866.67 4.4-.891 1.608-2.408 2.025-4.167 1.465l.035-.975c1.241-.969 2.44-1.984 3.5-3.154z" fill="#f6ecbf"/><path d="M58.237 55.543c.404 2.794-.991 3.593-3.5 3.155-1.304-1.277-2.085-2.64-.326-4.11 1.646-1.375 2.77-.251 3.826.955z" fill="#ffa726"/></g><g><path d="M74.972 69.979c-2.784-.972-2.962-3.06-1.702-5.128 1.235-2.028 3.205-2.313 5.199-.738-.028.649 1.03 1.37-.129 1.946-2.089-.343-3.907-.391-2.894 2.655.012.485-.148.906-.474 1.265z" fill="#f6ecbf"/><path d="M78.507 65.849l-.038-1.736c1.389 1.289 1.52 2.866.67 4.4-.891 1.608-2.408 2.025-4.167 1.465l.035-.975c1.241-.968 2.441-1.984 3.5-3.154z" fill="#f6ecbf"/><path d="M78.507 65.849c.404 2.794-.991 3.593-3.5 3.155-1.304-1.277-2.085-2.64-.326-4.11 1.646-1.374 2.771-.251 3.826.955z" fill="#ffa726"/></g><g><g><path d="M21.22 63.405c.343 5.382 4.385 9.646 9.492 10.476.793.129 1.5-.518 1.448-1.32l-1.25-19.627a1.254 1.254 0 0 0-1.604-1.125c-4.96 1.472-8.429 6.214-8.086 11.596z" fill="#f7cb4d"/></g><g fill="#fef6e0"><path d="M28.74 54.424a9.057 9.057 0 0 0-2.697 1.905.748.748 0 0 0 .036 1.097l3.189 2.807c.335.295.86.038.832-.408l-.303-4.761a.751.751 0 0 0-1.057-.64z"/><path d="M30.785 70.591l-.301-4.724a.501.501 0 0 0-.877-.299l-2.789 3.168a.748.748 0 0 0 .105 1.094 9.052 9.052 0 0 0 2.895 1.531.752.752 0 0 0 .967-.77z"/><path d="M24.314 58.827a9.068 9.068 0 0 0-.805 2.858.754.754 0 0 0 .797.833l4.068-.259a.501.501 0 0 0 .299-.877l-3.18-2.8a.753.753 0 0 0-1.179.245z"/><path d="M23.679 64.69a9.06 9.06 0 0 0 1.212 2.898.752.752 0 0 0 1.195.084l2.94-3.34a.502.502 0 0 0-.408-.832l-4.251.271a.754.754 0 0 0-.688.919z"/></g></g><g><g><path d="M84.249 29.835c-4.959-2.12-10.587-.433-13.63 3.751a1.255 1.255 0 0 0 .525 1.888l18.083 7.731a1.255 1.255 0 0 0 1.728-.925c.923-5.091-1.747-10.325-6.706-12.445z" fill="#f7cb4d"/></g><g fill="#fef6e0"><path d="M88.877 40.596a9.048 9.048 0 0 0-.485-3.266.749.749 0 0 0-.996-.463l-3.943 1.581a.502.502 0 0 0-.01.927l4.387 1.875a.75.75 0 0 0 1.047-.654z"/><path d="M73.524 35.135l4.352 1.861a.502.502 0 0 0 .663-.648l-1.571-3.917a.747.747 0 0 0-1.024-.399 9.04 9.04 0 0 0-2.671 1.894c-.366.374-.231 1.003.251 1.209z"/><path d="M86.942 34.66a9.077 9.077 0 0 0-2.188-2.006.753.753 0 0 0-1.103.336l-1.603 3.749a.502.502 0 0 0 .648.663l3.933-1.577a.755.755 0 0 0 .313-1.165z"/><path d="M81.994 31.451a9.065 9.065 0 0 0-3.133-.225.752.752 0 0 0-.613 1.029l1.656 4.13a.502.502 0 0 0 .927.01l1.675-3.917a.755.755 0 0 0-.512-1.027z"/></g></g><g><g><path d="M81.6 102.562c5.561-2.59 8.406-8.637 7.173-14.391a1.427 1.427 0 0 0-1.997-.989l-20.278 9.443a1.427 1.427 0 0 0-.529 2.165c3.611 4.648 10.07 6.362 15.631 3.772z" fill="#f7cb4d"/></g><g fill="#fef6e0"><path d="M68.974 98.31a10.312 10.312 0 0 0 3.134 2.069.851.851 0 0 0 1.148-.492l1.655-4.54a.57.57 0 0 0-.777-.712l-4.919 2.291a.854.854 0 0 0-.241 1.384z"/><path d="M85.257 89.455l-4.881 2.273a.57.57 0 0 0 .045 1.053l4.51 1.644a.851.851 0 0 0 1.116-.564c.361-1.184.511-2.437.424-3.7-.04-.594-.675-.957-1.214-.706z"/><path d="M75.469 101.178a10.3 10.3 0 0 0 3.361-.33.857.857 0 0 0 .553-1.189l-1.957-4.203a.57.57 0 0 0-1.053.045l-1.651 4.528a.857.857 0 0 0 .747 1.149z"/><path d="M81.944 99.425a10.308 10.308 0 0 0 2.569-2.483.854.854 0 0 0-.406-1.3l-4.755-1.734a.57.57 0 0 0-.712.777l2.045 4.392a.858.858 0 0 0 1.259.348z"/></g></g><g><path d="M41.05 72.269c1.117-2.645 3.752-2.69 5.951-3.278 2.047-.547 4.221-.622 6.339-.905 1.249 1.237 2.286 1.374 2.923-.563 1.806-1.019 3.045 2.405 5.025.431-1.036 1.866-2.955 2.358-4.483 3.84l2.182.635c-2.918 3.129-6.9 4.417-10.246 6.664-.443.591-1.054.906-1.758 1.073-3.94-.411-6.597-3.949-5.933-7.897z" fill="#ff5722"/><path d="M36.013 87.295c-.602-2.072-1.193-4.145.072-6.953 2.761 4.285 9.113 2.479 11.24 7.683-2.016.828-2.38-4.869-4.696-.729-2.206 1.614-4.411 1.672-6.616-.001z" fill="#ff5722"/><path d="M45.989 82.793c-3.787.973-6.494-1.18-9.135-3.294-1.273-1.018-.402-2.336.165-3.393.577-1.076 1.39-2.025 2.099-3.029.491-.272.928-.095 1.063.365 1.025 3.483 3.492 5.895 6.041 8.252l-.08.132c.284.374.233.697-.153.967z" fill="#ff5722"/><path d="M48.442 95.622c3.262-1.851 6.51-3.729 9.801-5.527.563-.308 1.4-.399 1.839.304.752 1.201-.018 2.127-.715 3.033-2.463 3.557-7.947 4.656-10.925 2.19z" fill="#dc2e07"/><path d="M43.351 88.953c.728 2.242-.472 4.274-2.206 4.535-2.794.42-3.499-2.417-4.469-4.477 2.214-1.282 4.439-1.238 6.675-.058z" fill="#ff5722"/><path d="M48.442 95.622c4.103 1.568 7.579.014 10.926-2.19 1.452 1.538.99 2.517-.864 3.208-3.075 1.146-6.269 1.117-9.467 1.049-2.296-.049-.237-1.421-.595-2.067z" fill="#ff5722"/><path d="M46.223 81.692c-4.382-1.212-5.499-5.115-7.105-8.616.422-.801 1.219-.705 1.932-.807 1.098 4.775 3.087 7.101 6.416 7.502.691-.183.889.076.655.726-.883.002-1.572.311-1.898 1.195z" fill="#e64a19"/><path d="M47.738 95.097c-.276 1.12-.764 2.197-2.006 1.888-1.321-.329-3.296-.483-3.357-2.15-.037-1.021 1.518-2.142 2.777-2.017 1.16.114 2.338.86 2.586 2.279z" fill="#ff5722"/><path d="M43.351 88.953l-6.675.059-.663-1.717h6.616l.722 1.658z" fill="#e64a19"/><path d="M56.263 67.524c.701 1.327.62 2.612-.959 2.972-1.858.424-1.811-1.182-1.964-2.409.816-1.009 1.824-1.024 2.923-.563z" fill="#4f2f27"/><path d="M48.121 80.497l-.655-.726c.27-.518.749-.643 1.275-.677 1.319 1.534 3.653 2.108 4.527 5.15-2.148-1.438-3.248-3.23-5.147-3.747z" fill="#ff5722"/><path d="M45.989 82.793l.154-.969c2.014.83 3.622 2.01 3.445 4.799l-3.599-3.83z" fill="#ff5722"/></g><g><path d="M64.526 43.238c1.872 2.165.751 4.54.307 6.765-.413 2.071-1.305 4.047-1.986 6.066-1.657.571-2.236 1.438-.785 2.862.114 2.064-3.492 1.662-2.6 4.303-1.212-1.749-.805-3.681-1.457-5.701l-1.53 1.671c-1.511-3.989-.907-8.116-1.441-12.097-.333-.657-.346-1.342-.184-2.045 2.106-3.342 6.44-4.158 9.676-1.824z" fill="#ff5722"/><path d="M53.314 32.112c2.118.375 4.232.76 6.185 3.13-5.049.579-6.234 7.055-11.823 6.662.148-2.168 5.402.019 2.722-3.877-.472-2.685.448-4.682 2.916-5.915z" fill="#ff5722"/><path d="M52.941 43.015c.8-3.815 3.918-5.285 6.972-6.715 1.472-.689 2.266.67 2.961 1.643.707.99 1.197 2.135 1.783 3.212.027.559-.324.872-.795.79-3.566-.619-6.809.523-10.04 1.764l-.082-.13c-.462.088-.728-.1-.799-.564z" fill="#ff5722"/><path d="M40.39 39.552c.217 3.733.464 7.464.621 11.199.027.639-.26 1.427-1.082 1.511-1.405.142-1.894-.954-2.397-1.976-2.095-3.771-.66-9.158 2.858-10.734z" fill="#dc2e07"/><path d="M48.596 37.941c-2.326-.337-3.613-2.306-3.082-3.971.856-2.683 3.704-2.063 5.972-2.022.171 2.544-.849 4.515-2.89 5.993z" fill="#ff5722"/><path d="M40.39 39.552c-3.211 2.977-3.353 6.77-2.858 10.733-2.015.62-2.687-.224-2.487-2.186.331-3.254 1.765-6.097 3.236-8.927 1.055-2.03 1.374.416 2.109.38z" fill="#ff5722"/><path d="M53.822 43.709c3.015-3.383 6.997-2.661 10.835-2.554.53.73.093 1.4-.13 2.083-4.753-1.123-7.709-.37-9.535 2.429-.14.698-.46.762-.938.265.387-.789.415-1.541-.232-2.223z" fill="#e64a19"/><path d="M41.17 39.154c-.88-.741-1.628-1.651-.803-2.626.877-1.036 1.885-2.733 3.402-2.053.929.416 1.245 2.301.579 3.372-.614.987-1.801 1.711-3.178 1.307z" fill="#ff5722"/><path d="M48.596 37.941l2.89-5.993 1.827.164-2.917 5.914-1.8-.085z" fill="#e64a19"/><path d="M62.063 58.931c-1.496.042-2.608-.598-2.235-2.168.44-1.848 1.855-1.098 3.02-.693.542 1.174.111 2.081-.785 2.861z" fill="#4f2f27"/><path d="M54.053 45.932l.938-.265c.344.47.244.953.044 1.439-1.953.503-3.495 2.336-6.599 1.777 2.232-1.287 4.318-1.481 5.617-2.951z" fill="#ff5722"/><path d="M52.941 43.015l.798.565c-1.63 1.435-3.393 2.352-5.809.964l5.011-1.529z" fill="#ff5722"/></g><g><path d="M80.007 80.246c-2.997.598-4.612-1.695-6.445-3.28-1.706-1.476-3.072-3.345-4.587-5.041.343-1.84-.157-2.835-2.244-2.237-1.977-.981.296-4.12-2.626-4.682 2.263-.204 3.843 1.192 6.063 1.651l-.746-2.302c4.501.698 8.017 3.434 11.995 5.037.785.037 1.429.386 1.996.907 1.993 3.716.467 8.171-3.406 9.947z" fill="#ff5722"/><path d="M96.25 75.696c-1.465 1.77-2.936 3.53-6.166 4.095 2.122-4.994-3.267-9.507.043-14.492 1.935 1.28-2.864 5.008 2.167 4.572 2.741.975 4.111 2.882 3.956 5.825z" fill="#ff5722"/><path d="M86.32 69.603c3.121 2.753 2.844 6.424 2.563 10.014-.136 1.73-1.817 1.751-3.087 1.884-1.292.135-2.614-.013-3.923-.037-.533-.269-.639-.76-.315-1.154 2.454-2.986 3.103-6.6 3.653-10.255l.164-.008c.161-.474.476-.622.945-.444z" fill="#ff5722"/><path d="M96.15 59.771c-3.581-1.766-7.177-3.502-10.729-5.325-.608-.312-1.189-.994-.832-1.801.608-1.38 1.884-1.256 3.098-1.185 4.605.042 8.854 4.213 8.463 8.311z" fill="#dc2e07"/><path d="M93.322 68.242c1.539-1.982 4.046-2.141 5.313-.77 2.041 2.209-.036 4.527-1.269 6.613-2.454-1.182-3.747-3.168-4.044-5.843z" fill="#ff5722"/><path d="M96.15 59.771c-1.073-4.551-4.521-6.682-8.463-8.311.486-2.198 1.624-2.377 3.341-1.158 2.848 2.023 4.733 4.853 6.586 7.709 1.33 2.051-1.11 1.058-1.464 1.76z" fill="#ff5722"/><path d="M85.211 70.056c1.554 4.583-1.216 7.902-3.338 11.409-.958.108-1.349-.652-1.866-1.219 3.548-3.822 4.406-6.965 2.769-10.136-.574-.498-.465-.829.248-1.011.529.776 1.213 1.199 2.187.957z" fill="#e64a19"/><path d="M96.108 60.705c1.152-.427 2.391-.642 2.862.638.5 1.36 1.546 3.191.114 4.242-.876.643-2.794-.056-3.437-1.239-.592-1.09-.639-2.575.461-3.641z" fill="#ff5722"/><path d="M93.322 68.242l4.043 5.843-1.115 1.611-3.956-5.826 1.028-1.628z" fill="#e64a19"/><path d="M66.73 69.688c.749-1.411 1.929-2.108 3.191-.933 1.485 1.382.043 2.301-.947 3.17-1.377-.115-1.992-.993-2.244-2.237z" fill="#4f2f27"/><path d="M83.024 69.099l-.248 1.011c-.617.072-1.014-.275-1.359-.718.562-2.079-.328-4.477 1.827-7.066.019 2.752-.901 4.792-.22 6.773z" fill="#ff5722"/><path d="M86.32 69.603l-.945.444c-.474-2.27-.396-4.391 2.166-5.903l-1.221 5.459z" fill="#ff5722"/></g></g></svg>