<svg id="图层_1" xmlns="http://www.w3.org/2000/svg" xmlns:xlink="http://www.w3.org/1999/xlink" viewBox="0 0 128 128"><g><defs><path id="SVGID_1_" d="M113.476 5.841c-5.746-4.195-4.848 3.197-8.582 4.079-3.955.934-18.651.016-35.04 13.084-12.039 9.6-12.253 17.154-21.705 27.306-9.452 10.152-19.78 7.177-31.857 19.955C4.214 83.043-1.913 104.923 8.94 115.076c10.555 9.874 39.371 15.357 63.502-9.072 12.54-12.695 4.483-22.359 15.791-32.762 8.752-8.052 18.379-6.476 29.582-20.48 15.622-19.528.413-43.452-4.339-46.921z"/></defs><use xlink:href="#SVGID_1_" overflow="visible" fill="#cb9265"/><clipPath id="SVGID_2_"><use xlink:href="#SVGID_1_" overflow="visible"/></clipPath><path d="M109.112 4.301c2.985 6.089-7.452 11.498-10.445 12.532-4.647 1.605-14.355 2.977-16.946 5.765-3.731 4.014-11.803 6.331-15.984 15.752-.927 2.089-2.53 8.952-8.803 16.215-3.233 3.744-17.48 6.031-21.223 9.435-5.107 4.643-5.785 8.277-11.207 10-4.458 1.417-4.753 4.157-7.623 6.502-7.089 5.79-14.475 18.228-12.548 32.665" clip-path="url(#SVGID_2_)" fill="none" stroke="#e5b076" stroke-width="3.5" stroke-miterlimit="10"/><path d="M112.433 2.949c-.355 4.61-.683 12.246-4.248 15.19-5.176 4.276-8.81 6.787-12.185 10.361-2.125 2.25-5.432 2.114-8.833 4.333C83.084 35.498 74.5 43.875 72.5 49c-2.771 7.1-6.249 13.988-13.494 16.353-3.131 1.022-15.61 11.621-17.527 14.464-5.676 8.42-10.888 9.678-20.146 13.85-8.777 3.955-15.23 13.087-20.478 21.159" clip-path="url(#SVGID_2_)" fill="none" stroke="#e5b076" stroke-width="3.5" stroke-miterlimit="10"/><path d="M117 1.333c-1.604 5.537-3.633 11.516-3.565 17.52.065 5.813-2.669 10.804-5.685 15.271-.658.975-5.491 3.153-6.75 4.625-3.776 4.416-6.971 9.73-10.498 11.921-2.481 1.541-5.444 5.564-9.855 7.541-4.271 1.914-8.857 8.099-10.916 10.992-2.285 3.211-5.731 6.921-6.4 10.666-1.296 7.249-9.323 13.407-17.423 17.711-5.57 2.96-18.022 5.333-20.505 7.126-9 6.5-18.589 8.79-27.878 7.543" clip-path="url(#SVGID_2_)" fill="none" stroke="#e5b076" stroke-width="3.5" stroke-miterlimit="10"/><path d="M114.116 1.064c1.48 10.238 6.384 19.246 5.525 29.554-.122 1.461-1.767 5.382-3.267 7.007-3.892 4.217-4.157 12.965-7.271 15.272-4.401 3.26-11.271 4.27-15.009 7.795C88.071 66.372 79.928 68.556 78.5 76c-1.253 6.534-2.63 10.949-5.667 15.5-2.22 3.327-7.359 7.789-8.06 11.053-.811 3.772-8.485 6.438-11.775 8.453-6.002 3.676-15.594 4.673-19.832 6.494-7.702 3.31-22.357-.068-34.024-5.068" clip-path="url(#SVGID_2_)" fill="none" stroke="#e5b076" stroke-width="3.5" stroke-miterlimit="10"/><path d="M94.28 9.892c-1.484 2.172-.348 6.195 1.809 7.703" clip-path="url(#SVGID_2_)" fill="none" stroke="#e5b076" stroke-width="3.5" stroke-linecap="round" stroke-linejoin="round" stroke-miterlimit="10"/><path d="M64.976 20.515c.599 1.726 1.209 3.475 2.236 4.987s2.537 2.784 4.333 3.122" clip-path="url(#SVGID_2_)" fill="none" stroke="#e5b076" stroke-width="3.5" stroke-linecap="round" stroke-linejoin="round" stroke-miterlimit="10"/><path d="M52.994 40.177a38.184 38.184 0 0 1 6.913-.464c.448.011.928.041 1.28.317.544.428 2.155 2.281 2.812 2.496" clip-path="url(#SVGID_2_)" fill="none" stroke="#e5b076" stroke-width="3.5" stroke-linecap="round" stroke-linejoin="round" stroke-miterlimit="10"/><path d="M44.531 51.093c.344 1.186.086 2.449.047 3.683s.53 4.091 1.571 4.755" clip-path="url(#SVGID_2_)" fill="none" stroke="#e5b076" stroke-width="3.5" stroke-linecap="round" stroke-linejoin="round" stroke-miterlimit="10"/><path d="M34.851 56.638c.249.942 1.189 1.492 1.984 2.054.796.562 1.935 3.115 1.683 4.056" clip-path="url(#SVGID_2_)" fill="none" stroke="#e5b076" stroke-width="3.5" stroke-linecap="round" stroke-linejoin="round" stroke-miterlimit="10"/><path d="M15.586 65.647a47.006 47.006 0 0 0 3.756 8.933c.252.459.701.989 1.188.797" clip-path="url(#SVGID_2_)" fill="none" stroke="#e5b076" stroke-width="3.5" stroke-linecap="round" stroke-linejoin="round" stroke-miterlimit="10"/><path d="M6.377 80.072c1.137.46 2.419.155 3.646.141s3.244 1.554 3.496 2.755" clip-path="url(#SVGID_2_)" fill="none" stroke="#e5b076" stroke-width="3.5" stroke-linecap="round" stroke-linejoin="round" stroke-miterlimit="10"/><path d="M8.146 93.313c.926 2.089 3.003 4.53 5.262 4.877" clip-path="url(#SVGID_2_)" fill="none" stroke="#e5b076" stroke-width="3.5" stroke-linecap="round" stroke-linejoin="round" stroke-miterlimit="10"/><path d="M17.584 80.678c3.389 1.584 5.644 7.442 5.824 11.179" clip-path="url(#SVGID_2_)" fill="none" stroke="#e5b076" stroke-width="3.5" stroke-linecap="round" stroke-linejoin="round" stroke-miterlimit="10"/><path d="M29.164 71.244c-.182 2.25.852 4.866 2.133 6.725 1.809 2.625 4.382 3.003 7.553 3.338" clip-path="url(#SVGID_2_)" fill="none" stroke="#e5b076" stroke-width="3.5" stroke-linecap="round" stroke-linejoin="round" stroke-miterlimit="10"/><path d="M36.407 64c4.868-.661 10.843 2.322 13.279 6.587" clip-path="url(#SVGID_2_)" fill="none" stroke="#e5b076" stroke-width="3.5" stroke-linecap="round" stroke-linejoin="round" stroke-miterlimit="10"/><path d="M52.344 59.397a48.703 48.703 0 0 0 5.427 5.922" clip-path="url(#SVGID_2_)" fill="none" stroke="#e5b076" stroke-width="3.5" stroke-linecap="round" stroke-linejoin="round" stroke-miterlimit="10"/><path d="M58.701 54.148a12.452 12.452 0 0 0 5.329 5.22" clip-path="url(#SVGID_2_)" fill="none" stroke="#e5b076" stroke-width="3.5" stroke-linecap="round" stroke-linejoin="round" stroke-miterlimit="10"/><path d="M62.512 46.881c1.784.637 3.47-.006 5.338.311 1.557.264 2.739.748 3.515 2.123" clip-path="url(#SVGID_2_)" fill="none" stroke="#e5b076" stroke-width="3.5" stroke-linecap="round" stroke-linejoin="round" stroke-miterlimit="10"/><path d="M69.59 33.706c.918 1.56 1.117 1.91 2.432 3.154s5.358 2.598 7.162 2.443" clip-path="url(#SVGID_2_)" fill="none" stroke="#e5b076" stroke-width="3.5" stroke-linecap="round" stroke-linejoin="round" stroke-miterlimit="10"/><path d="M79.878 24.735c1.646-.046 3.293-.076 4.94-.09.416-.004.854-.001 1.218.201.249.138.44.358.623.577a26.99 26.99 0 0 1 3.112 4.619" clip-path="url(#SVGID_2_)" fill="none" stroke="#e5b076" stroke-width="3.5" stroke-linecap="round" stroke-linejoin="round" stroke-miterlimit="10"/><path d="M90.65 18.952c2.453.157 5.217 4.053 6.088 6.352" clip-path="url(#SVGID_2_)" fill="none" stroke="#e5b076" stroke-width="3.5" stroke-linecap="round" stroke-linejoin="round" stroke-miterlimit="10"/><path d="M103.941 14.108c-.415 1.506.165 4.879 1.601 5.492" clip-path="url(#SVGID_2_)" fill="none" stroke="#e5b076" stroke-width="3.5" stroke-linecap="round" stroke-linejoin="round" stroke-miterlimit="10"/><path d="M100.484 25.846c1.646-.005 2.954.538 4.6.533.281-.001.584.005.81.171.206.151.307.404.398.643.486 1.281 3.141 2.197 3.627 3.479" clip-path="url(#SVGID_2_)" fill="none" stroke="#e5b076" stroke-width="3.5" stroke-linecap="round" stroke-linejoin="round" stroke-miterlimit="10"/><path d="M91.093 32.085c-.326 3.806 1.974 7.698 5.465 9.248" clip-path="url(#SVGID_2_)" fill="none" stroke="#e5b076" stroke-width="3.5" stroke-linecap="round" stroke-linejoin="round" stroke-miterlimit="10"/><path d="M83.284 36.373c2.176.562 3.737 2.476 4.786 4.463 1.05 1.987 1.76 4.165 3.07 5.99" clip-path="url(#SVGID_2_)" fill="none" stroke="#e5b076" stroke-width="3.5" stroke-linecap="round" stroke-linejoin="round" stroke-miterlimit="10"/><path d="M77.711 42.988a21.15 21.15 0 0 0 4.218 11.363" clip-path="url(#SVGID_2_)" fill="none" stroke="#e5b076" stroke-width="3.5" stroke-linecap="round" stroke-linejoin="round" stroke-miterlimit="10"/><path d="M70.572 55.186a9.098 9.098 0 0 0 5.098 5.24" clip-path="url(#SVGID_2_)" fill="none" stroke="#e5b076" stroke-width="3.5" stroke-linecap="round" stroke-linejoin="round" stroke-miterlimit="10"/><path d="M62.85 64c2.298 1.161 3.738 2.662 4.831 4.993" clip-path="url(#SVGID_2_)" fill="none" stroke="#e5b076" stroke-width="3.5" stroke-linecap="round" stroke-linejoin="round" stroke-miterlimit="10"/><path d="M52.648 70.511c1.418 4.269 5.583 7.478 10.072 7.762" clip-path="url(#SVGID_2_)" fill="none" stroke="#e5b076" stroke-width="3.5" stroke-linecap="round" stroke-linejoin="round" stroke-miterlimit="10"/><path d="M44.546 77.656c3.633 2.601 7.675 5.364 8.887 9.664.417 1.48.509 3.155 1.549 4.286" clip-path="url(#SVGID_2_)" fill="none" stroke="#e5b076" stroke-width="3.5" stroke-linecap="round" stroke-linejoin="round" stroke-miterlimit="10"/><path d="M38.552 84.264l2.75 5.371c.704 1.375 1.188 2.838 1.361 4.373.198 1.759.528 5.661.41 4.293" clip-path="url(#SVGID_2_)" fill="none" stroke="#e5b076" stroke-width="3.5" stroke-linecap="round" stroke-linejoin="round" stroke-miterlimit="10"/><path d="M28.481 91.409c-.301 3.857-.471 6.777 1.299 10.218" clip-path="url(#SVGID_2_)" fill="none" stroke="#e5b076" stroke-width="3.5" stroke-linecap="round" stroke-linejoin="round" stroke-miterlimit="10"/><path d="M18.199 96.451c-.392.584-.16 1.366.097 2.02a49.297 49.297 0 0 0 3.34 6.877" clip-path="url(#SVGID_2_)" fill="none" stroke="#e5b076" stroke-width="3.5" stroke-linecap="round" stroke-linejoin="round" stroke-miterlimit="10"/><path d="M9.856 104.183a15.447 15.447 0 0 1 3.06 5.979" clip-path="url(#SVGID_2_)" fill="none" stroke="#e5b076" stroke-width="3.5" stroke-linecap="round" stroke-linejoin="round" stroke-miterlimit="10"/><path d="M82.957 12.426c-.618 2.327.104 4.962 1.822 6.649" clip-path="url(#SVGID_2_)" fill="none" stroke="#e5b076" stroke-width="3.5" stroke-linecap="round" stroke-linejoin="round" stroke-miterlimit="10"/><path d="M113.92 25.382a17.543 17.543 0 0 0 4.118-1.493" clip-path="url(#SVGID_2_)" fill="none" stroke="#e5b076" stroke-width="3.5" stroke-linecap="round" stroke-linejoin="round" stroke-miterlimit="10"/><path d="M108.288 34.035a93.483 93.483 0 0 0 2.67 5.085c.382.675 2.15 1.305 2.89 1.072" clip-path="url(#SVGID_2_)" fill="none" stroke="#e5b076" stroke-width="3.5" stroke-linecap="round" stroke-linejoin="round" stroke-miterlimit="10"/><path d="M98.398 41.991c1.829-.827 5.32-.654 7.051.362 1.727 1.014 4.311 3.67 6.177 4.395" clip-path="url(#SVGID_2_)" fill="none" stroke="#e5b076" stroke-width="3.5" stroke-linecap="round" stroke-linejoin="round" stroke-miterlimit="10"/><path d="M89.164 52.484a11.348 11.348 0 0 0 2.256 8.128" clip-path="url(#SVGID_2_)" fill="none" stroke="#e5b076" stroke-width="3.5" stroke-linecap="round" stroke-linejoin="round" stroke-miterlimit="10"/><path d="M79.196 60.242c2.169.437 4.682 3.981 4.987 6.172" clip-path="url(#SVGID_2_)" fill="none" stroke="#e5b076" stroke-width="3.5" stroke-linecap="round" stroke-linejoin="round" stroke-miterlimit="10"/><path d="M66.753 74.556a21.416 21.416 0 0 0 9.308 9.62" clip-path="url(#SVGID_2_)" fill="none" stroke="#e5b076" stroke-width="3.5" stroke-linecap="round" stroke-linejoin="round" stroke-miterlimit="10"/><path d="M60.85 86.413c1.845-.17 3.664-.239 4.914 1.129 1.249 1.368 2.956 5.149 3.642 6.87" clip-path="url(#SVGID_2_)" fill="none" stroke="#e5b076" stroke-width="3.5" stroke-linecap="round" stroke-linejoin="round" stroke-miterlimit="10"/><path d="M50.387 95.79c-.4 2.403-.557 4.873-.125 7.27.432 2.397 1.489 4.727 3.249 6.41" clip-path="url(#SVGID_2_)" fill="none" stroke="#e5b076" stroke-width="3.5" stroke-linecap="round" stroke-linejoin="round" stroke-miterlimit="10"/><path d="M36.762 101.17c1.522 1.435 3.069 2.903 4.073 4.738 1.535 2.809 1.614 5.305 1.674 8.506" clip-path="url(#SVGID_2_)" fill="none" stroke="#e5b076" stroke-width="3.5" stroke-linecap="round" stroke-linejoin="round" stroke-miterlimit="10"/><path d="M26.87 104.219c.706 1.133 1.38 2.305 1.739 3.591.253.906.344 1.852.615 2.753.659 2.189 2.307 3.917 3.902 5.555" clip-path="url(#SVGID_2_)" fill="none" stroke="#e5b076" stroke-width="3.5" stroke-linecap="round" stroke-linejoin="round" stroke-miterlimit="10"/><path d="M21.118 108.775c-.162 1.083-.537 2.142-.533 3.237.007 2.042 1.521 5.636 3.489 6.177" clip-path="url(#SVGID_2_)" fill="none" stroke="#e5b076" stroke-width="3.5" stroke-linecap="round" stroke-linejoin="round" stroke-miterlimit="10"/><path d="M120.164 30.766c1.301.227 4.814.22 6.128.094" clip-path="url(#SVGID_2_)" fill="none" stroke="#e5b076" stroke-width="3.5" stroke-linecap="round" stroke-linejoin="round" stroke-miterlimit="10"/><path d="M116.375 37.625c2.319-.722 8.716 2.337 9.362 4.679" clip-path="url(#SVGID_2_)" fill="none" stroke="#e5b076" stroke-width="3.5" stroke-linecap="round" stroke-linejoin="round" stroke-miterlimit="10"/><path d="M113.159 46.94a13.94 13.94 0 0 0 4.483 6.912" clip-path="url(#SVGID_2_)" fill="none" stroke="#e5b076" stroke-width="3.5" stroke-linecap="round" stroke-linejoin="round" stroke-miterlimit="10"/><path d="M107.653 54.818c1.558 2.281 1.794 4.411 2.64 7.04" clip-path="url(#SVGID_2_)" fill="none" stroke="#e5b076" stroke-width="3.5" stroke-linecap="round" stroke-linejoin="round" stroke-miterlimit="10"/><path d="M99.48 58.348c2.711 2.716 3.611 5.816 3.593 9.653" clip-path="url(#SVGID_2_)" fill="none" stroke="#e5b076" stroke-width="3.5" stroke-linecap="round" stroke-linejoin="round" stroke-miterlimit="10"/><path d="M87.564 65.573c1.922 1.81 2.641 4.907 5.064 5.957" clip-path="url(#SVGID_2_)" fill="none" stroke="#e5b076" stroke-width="3.5" stroke-linecap="round" stroke-linejoin="round" stroke-miterlimit="10"/><path d="M79.332 75.14l3.507 1.11c1.833.58 3.879 1.348 4.62 3.122" clip-path="url(#SVGID_2_)" fill="none" stroke="#e5b076" stroke-width="3.5" stroke-linecap="round" stroke-linejoin="round" stroke-miterlimit="10"/><path d="M74.401 90.282c.76 2.476 2.944 4.459 5.483 4.976" clip-path="url(#SVGID_2_)" fill="none" stroke="#e5b076" stroke-width="3.5" stroke-linecap="round" stroke-linejoin="round" stroke-miterlimit="10"/><path d="M67.388 100.138c3.381 1.637 6.071 4.649 7.317 8.193" clip-path="url(#SVGID_2_)" fill="none" stroke="#e5b076" stroke-width="3.5" stroke-linecap="round" stroke-linejoin="round" stroke-miterlimit="10"/><path d="M64 105.412c.267 1.75 1.622 3.345 2.474 4.897.527.961 1.452 1.987 2.514 1.719" clip-path="url(#SVGID_2_)" fill="none" stroke="#e5b076" stroke-width="3.5" stroke-linecap="round" stroke-linejoin="round" stroke-miterlimit="10"/><path d="M54.345 111.807a14.266 14.266 0 0 1 2.066 7.619" clip-path="url(#SVGID_2_)" fill="none" stroke="#e5b076" stroke-width="3.5" stroke-linecap="round" stroke-linejoin="round" stroke-miterlimit="10"/><path d="M47.437 114.009c1.106 2.871.735 5.364-.528 8.169" clip-path="url(#SVGID_2_)" fill="none" stroke="#e5b076" stroke-width="3.5" stroke-linecap="round" stroke-linejoin="round" stroke-miterlimit="10"/><path d="M34.478 118.258c.082.625-.399 1.162-.752 1.684-1.368 2.023-1.019 4.704-.616 7.112" clip-path="url(#SVGID_2_)" fill="none" stroke="#e5b076" stroke-width="3.5" stroke-linecap="round" stroke-linejoin="round" stroke-miterlimit="10"/><path d="M119.159 13.265c1.875 7 1.878 16.811-2.659 21.235-6.667 6.5-5.122 12.342-10 15.667-3.659 2.494-3.981 2.735-8 3.833-2.713.741-5.976 3.843-8.5 4.833-3.193 1.253-8.795 3.387-11.167 6.333-1.44 1.789-3.023 4.842-4 7.167-1.353 3.22-1.445 5.833-2.5 8.833C70.944 85.119 66.448 88.995 64 92c-4.135 5.076-7.908 5.42-13.354 9.937C43.401 107.946 37 112 28.25 112.75c-6.35.544-11.505-2.201-14-2.5-6.233-.746-9.551-5.636-10.964-14.036-1.25 5.75-2.342 15.417 1.598 21.567 4.87 7.604 14.635 10.248 23.588 11.424a142.318 142.318 0 0 0 18.208 1.21c3.26.007 6.553-.103 9.707-.927 3.469-.906 6.659-2.648 9.719-4.518 7.705-4.709 15.126-10.697 18.715-18.984 2.924-6.751 3.128-14.642 7.194-20.774 3.785-5.708 10.253-8.91 16.264-12.192 9.445-5.156 19.108-11.949 22.213-22.252 1.273-4.225 1.319-8.718 1.117-13.127-.328-7.149-.982-15.782-7.233-19.267l-5.217-5.109z" clip-path="url(#SVGID_2_)" fill="#cb9265"/></g></svg>