<svg id="图层_1" xmlns="http://www.w3.org/2000/svg" viewBox="0 0 128 128"><g><path d="M64.004 18.886l-36.8.184 7.163 89.799C35.553 118.258 46.689 126 64.004 126V18.886z" fill="#dedddd"/></g><g><path d="M64.004 18.886l36.8.184-7.163 89.799C92.456 118.258 81.32 126 64.004 126V18.886z" fill="#dedddd"/></g><g><path d="M32.831 41.259l5.447 59.759c.26 3.351 2.071 6.579 4.549 8.301 4.428 3.078 11.643 5.932 21.233 5.932 9.157 0 15.983-2.587 20.507-5.488 2.865-1.837 5.175-5.525 5.519-8.701l5.084-59.803" fill="#f4efe4"/></g><path d="M64 3.875c-9.463 0-18.318 1.787-24.932 5.033C33.39 11.694 30 15.341 30 18.666c0 3.324 3.39 6.972 9.068 9.758 6.614 3.245 15.469 5.032 24.932 5.032s18.317-1.787 24.931-5.032C94.61 25.639 98 21.99 98 18.666c0-3.325-3.39-6.972-9.068-9.759C82.318 5.662 73.464 3.875 64 3.875z" fill="#f6f6f6"/><ellipse cx="64" cy="41.259" rx="31.169" ry="12.811" fill="#e8e2d9"/><path d="M50.604 67.609c.999.027 1.582-.7 1.582-1.393V34.28l-13.235-3.439 2.252 32.58c.041.432.347 1.528 1.41 2.009.884.401 4.183 1.766 7.991 2.179z" fill="#fff"/><g><path d="M64 35.561c-20.982 0-36.804-7.264-36.804-16.895C27.197 9.034 43.019 1.77 64 1.77s36.803 7.264 36.803 16.896c0 9.632-15.822 16.895-36.803 16.895zm0-31.686c-9.463 0-18.318 1.787-24.932 5.033C33.39 11.694 30 15.341 30 18.666c0 3.324 3.39 6.972 9.068 9.758 6.614 3.245 15.469 5.032 24.932 5.032s18.317-1.787 24.931-5.032C94.61 25.639 98 21.99 98 18.666c0-3.325-3.39-6.972-9.068-9.759C82.318 5.662 73.464 3.875 64 3.875z" fill="#cfd0d1"/></g><path d="M89.007 111.351c-.499 1.791-2.424 5.195-8.314 7.914-3.631 1.676-9.02 3.306-13.559 3.137-.972-.036-.73-.994-.08-1.153 3.713-.905 7.306-2.142 11.525-4.162 5.493-2.629 9.072-5.885 9.579-6.293.862-.692.934.255.849.557z" fill="#fff"/></svg>