<svg xmlns="http://www.w3.org/2000/svg" xmlns:xlink="http://www.w3.org/1999/xlink" viewBox="0 0 128 128"><g id="图层_2"><g><g><defs><path id="SVGID_1_" d="M32.369 43.06c-9.479 5.269-19.021 11.464-23.34 21.833-1.316 3.157-2.324 8.938.591 11.606 2.668 2.442 6.587.51 9.86 0a91.36 91.36 0 0 0 14.111-3.373"/></defs><use xlink:href="#SVGID_1_" overflow="visible" fill="#fc3"/><clipPath id="SVGID_2_"><use xlink:href="#SVGID_1_" overflow="visible"/></clipPath><path d="M31.835 56.851c-1.067 2.912-3.169 5.367-5.648 7.23-2.479 1.863-5.329 3.173-8.23 4.268-1.561.589-3.19 1.127-4.857 1.049-1.667-.078-3.394-.896-4.119-2.398-.23-.477-.354-1.006-.639-1.453-.284-.447-.806-.811-1.32-.685l-.75 4.623c-.344 2.12-.666 4.4.278 6.329.842 1.72 2.584 2.86 4.418 3.411a998450995946680000 998450995946680000 0 0 1 13.677.395c.865-.294 1.622-.832 2.436-1.248 2.635-1.346 6.011-1.504 7.932-3.755 1.373-1.609 1.611-3.892 1.51-6.004a24.42 24.42 0 0 0-2.648-9.931c-.5-.976-1.184-2.007-2.256-2.238" clip-path="url(#SVGID_2_)" fill="#bf8504"/></g><g><defs><path id="SVGID_3_" d="M57.003 30.644c-5.116.661-14.838 1.725-18.903 4.571-5.916 4.141-6.854 11.92-7.443 14.304-1.902 7.709-1.205 14.927 1.668 21.614 2.931 6.822 13.681 5.24 17.819 4.903"/></defs><use xlink:href="#SVGID_3_" overflow="visible" fill="#fc3"/><clipPath id="SVGID_4_"><use xlink:href="#SVGID_3_" overflow="visible"/></clipPath><path d="M46.917 59.66c.403 2.628 1.544 7.755-1.082 8.173-2.625.418-12.991 2.135-14.991-2.083-1.537-3.242-1.609-3.314-3.166-2.912-1.282 2.293.118 3.89 1.572 6.078 2.119 3.19 2.147 5.058 5.083 7.517-.199 1.04 3.338 1.442 4.221 2.026.882.585 1.958.786 3.007.929a36.65 36.65 0 0 0 6.622.298c.663-.03 1.345-.084 1.939-.381.74-.37 1.256-1.076 1.641-1.809 1.224-2.322 1.399-5.095.901-7.673-.307-1.59.365-2.957.355-4.576-.002-.336-.013-.683-.148-.991-.143-.328-.411-.583-.675-.824a49.21 49.21 0 0 0-4.291-3.507l-.988-.265z" clip-path="url(#SVGID_4_)" fill="#bf8504"/></g><g><defs><path id="SVGID_5_" d="M109.403 46.008c-.215-2.352-.314-5.299-1.165-7.593-1.793-4.831-10.829-6.505-13.036-7.188-2.466-.763-7.25-1.972-11.214-2.64-6.571-2.561-9.882-3.304-17.065-2.853-7.342.46-9.966 4.581-14.116 10.611-2.807 4.079-5.091 9.022-6.223 14.15-1.033 4.68-1.058 12.34.307 16.81.896 2.934 2.042 6.652 3.55 9.268 2.564 4.451 10.343 3.617 13.977 4.451 5.574 1.28 11.083 4.475 15.376.469"/></defs><use xlink:href="#SVGID_5_" overflow="visible" fill="#fc3"/><clipPath id="SVGID_6_"><use xlink:href="#SVGID_5_" overflow="visible"/></clipPath><path d="M94.594 29.623c.924-.255 1.988.125 2.542.907.554.782.559 1.912.013 2.699-.418.603-1.091.974-1.76 1.274-1.901.851-3.963 1.292-5.88 2.108-1.63.694-3.136 1.652-4.57 2.692-7.209 5.227-12.762 12.703-15.685 21.114-.829 2.385-1.709 5.143-4.034 6.128-1.945.824-4.965.217-7.061-.048-5.956-.752-10.035-3.048-11.326-4.563-.824-.966-1.444-5.192-2.667-4.851-.415.116-.166 7.238-.391 7.606-1.166 1.91-.172 4.357.831 6.358l3.389 6.765c.68 1.358 1.37 2.73 2.352 3.888 2.329 2.747 6.02 3.959 9.598 4.368s7.208.146 10.784.567c2.659.313 5.395.998 7.962.24 4.21-1.243 6.353-5.749 8.554-9.547 4.204-7.251 10.25-13.286 16.828-18.479 3.756-2.964 7.788-5.769 10.446-9.747s3.612-9.559.856-13.47c-1.536-2.179-3.966-3.528-6.351-4.718a113.26 113.26 0 0 0-6.694-3.074c-1.742-.733-3.926-1.366-5.372-.149-.725.61-1.649 1.671-2.344 1.027" clip-path="url(#SVGID_6_)" fill="#bf8504"/></g><g><defs><path id="SVGID_7_" d="M117.957 65.652c2.002-2.694 2.31-7.146-1.124-11.507-2.271-2.884-4.66-5.893-7.465-8.197-2.541-2.087-5.331-3.816-8.749-3.449-4.238.456-8.432 2.38-11.603 5.054-3.77 3.179-6.904 6.702-9.336 10.952-6.364 8.602-5.462 16.133-5.036 17.974.485 2.089 3.618 3.691 5.149 5.014 1.841.976 3.456 2.688 5.109 3.926 1.447 1.084 5.432 2.996 7.335 1.373"/></defs><use xlink:href="#SVGID_7_" overflow="visible" fill="#fc3"/><clipPath id="SVGID_8_"><use xlink:href="#SVGID_7_" overflow="visible"/></clipPath><path d="M112.763 47.683c.688 1.309 1.343 3.02.386 4.147-.35.412-.861.653-1.371.832-2.447.858-5.165.569-7.653 1.297-1.761.515-3.333 1.517-4.878 2.507-3.103 1.987-6.275 4.038-8.485 6.985-2.323 3.098-3.391 6.925-4.906 10.489-.278.655-.588 1.324-1.122 1.794-.708.624-1.71.804-2.654.778-2.291-.062-4.525-1.249-5.86-3.112s-1.74-4.36-1.062-6.55c-1.904-.43-3.745 1.359-4.063 3.285s.462 3.853 1.334 5.598c1.843 3.69 4.225 7.184 7.444 9.763 3.219 2.579 7.349 4.178 11.457 3.811 4.478-.401 8.423-3.013 12.016-5.714 2.145-1.612 4.246-3.288 6.196-5.131 1.322-1.25 2.579-2.58 4.041-3.662 1.476-1.093 3.141-1.919 4.574-3.068 3.065-2.46 4.816-6.193 6.053-9.923.621-1.874 1.144-3.877.719-5.805-.295-1.34-1.026-2.537-1.745-3.706-.958-1.556-1.97-3.167-3.52-4.134-2.22-1.385-5.043-1.164-7.646-.896" clip-path="url(#SVGID_8_)" fill="#bf8504"/></g><g><defs><path id="SVGID_9_" d="M93.489 89.44c1.816 5.373-2.073 10.051 2.394 12.286 4.082 2.043 8.19-1.015 11.85-3.989 5.041-4.096 11.263-10.559 12.287-16.906.838-5.192-.59-10.053-2.509-16.725-.598-2.077-2.027-3.72-3.838-4.295-3.312-1.053-11.303 3.657-13.587 5.668-4.158 3.659-8.663 7.958-9.808 12.336-.592 2.264-1.051 4.998.548 6.946 1.372 1.668 1.728 2.594 2.663 4.679z"/></defs><use xlink:href="#SVGID_9_" overflow="visible" fill="#fc3"/><clipPath id="SVGID_10_"><use xlink:href="#SVGID_9_" overflow="visible"/></clipPath><path d="M104.042 62.417c1.782-.447 4.59 1.023 5.554 2.588 2.07 3.36 2.217 7.521 2.259 11.467.021 1.965.027 3.953-.433 5.863-.956 3.964-3.794 7.162-6.534 10.181-1.425 1.57-2.897 3.176-4.796 4.122s-4.348 1.094-6.032-.195c-.227-.173-.438-.371-.688-.507-.764-.415-1.772-.152-2.391.459-.618.611-.897 1.497-.967 2.363-.213 2.625 1.339 5.17 3.474 6.713 2.135 1.543 4.775 2.222 7.384 2.579 2.148.294 4.384.383 6.438-.309 1.712-.577 3.198-1.66 4.771-2.55 1.9-1.075 3.954-1.88 5.769-3.094 2.403-1.607 4.294-3.87 5.963-6.231 3.155-4.464 5.672-9.498 6.464-14.907 1.142-7.802-1.58-16.076-7.132-21.676-1.888-1.904-4.133-3.536-6.709-4.28-2.576-.745-5.517-.509-7.709 1.035-2.251 1.586-4.166 3.316-5.059 5.92" clip-path="url(#SVGID_10_)" fill="#bf8504"/></g></g></g></svg>