<svg id="レイヤー_1" xmlns="http://www.w3.org/2000/svg" viewBox="0 0 128 128"><path d="M113.567 38.419c-.066-2.62-.315-4.893-.303-7.541.061-13.513-13.016-13.539-30.65-13.397a.635.635 0 0 1 .354-.114c-4.166.043-7.159.057-9.593.059a643.445 643.445 0 0 0-8.208-.028 662.73 662.73 0 0 0-8.208.028 930.965 930.965 0 0 1-9.593-.059.643.643 0 0 1 .354.114c-17.634-.142-30.711-.116-30.65 13.397.012 2.649-.237 4.921-.303 7.541-.373 14.866 1.148 27.803.594 41.789-.862 21.75.072 13.202.072 30.446 0 6.915 5.526 13.846 14.172 13.846 6.354 0 19.608 2.483 33.563 1.863 13.956.62 27.209-1.863 33.563-1.863 8.646 0 14.172-6.93 14.172-13.846 0-17.244.934-8.695.072-30.446-.556-13.986.965-26.923.592-41.789zm-85.863-5.358c3.957-5.626 8.411-4.782 17.381-2.635 3.3.79 36.882.866 40.163 0 8.025-2.118 13.424-2.991 17.381 2.635 2.738 3.892 1.402 9.735-6.312 13.367-5.041 2.374-55.078 3.655-62.3 0-7.609-3.85-9.05-9.475-6.313-13.367z" fill="#f9d28e"/><g><path d="M32.982 39.629c-2.532-2.488-5.368-4.02-9.595-2.411-1.55.59-3.525 1.013-4.537-.701-1.727-2.921-.778-5.818.761-8.552.905-1.608 2.536-1.533 4.355-.656.85.41 1.891-.098 2.923.073 1.596-.968 2.115-1.748 1.663-3.27-.96-3.233.997-5.319 4.173-7.091 5.86-3.27 8.81-2.52 10.932 2.968.254.656.404 1.359 1.977 1.903 1.05-8.424 8.283-11.257 17.5-12.014 5.391-.443 4.826 3.813 6.877 6.045 2.412-.708 1.769-2.701 2.862-3.905 2.596-2.862 8.979-3.722 12.266-.752 3.796 3.43 7.025 2.671 10.86.703 2.136-4.185 4.737-4.147 7.495-.428 1.213 1.636 2.331 3.376 3.021 5.183.846 2.214.834 4.242-3.389 4.049-3.352-.153-4.505 1.68-4.831 4.007-.207.491-.437 1.198-.958 1.285-4.608.762-7.566 2.6-7.534 6.701.003.407-.898.666-1.561.748-3.818-.779-7.516-1.676-10.243-4.224-1.958-1.83-4.426-2.045-7.056-.829-1.699.786-3.438 1.444-5.404 1.766-8.337 1.368-9.016 2.595-5.209 9.081.179.305.181.657.114 1.021-3.267 2.689-7.212 1.804-11.072 1.366-4.431-1.052-4.627-4.776-7.041-7.096-3.55-1.743-4.591-.57-4.859 2.34-.172 1.881.234 5.272-4.49 2.69z" fill="#bdcf46"/><path d="M95.998 11.968c-5.325 5.429-5.296 5.407-11.398.206-2.305-1.965-5.366-1.283-8.099-.995-2.797.295-2.952 2.24-3.013 4.075-.052 1.569.093 3.579-2.552 3.647-2.544.066-4.006-1.691-3.941-3.539.181-5.096-3.076-4.864-7.613-3.627-6.273 1.711-12.365 3.33-11.098 10.244.296 1.616-.763 2.765-3.052 2.608-2.387-.164-3.299-1.427-3.509-3.219-.262-2.234.772-6.136-4.021-4.783-3.307.933-8.984 2.133-7.663 6.899.681 2.456-.738 4.207-4.714 4.377.103-1.901 1.019-4.095-1.311-5.428-4.86-2.778-2.385-5.527-.075-8.127 2.131-2.397 5.989-4.035 10.3-1.563 3.577 2.051 8.57-1.041 7.211-4.549-1.593-4.113 1.72-4.713 4.719-5.345 3.088-.65 6.769-1.296 7.29 2.948.353 2.875 3.605 2.841 6.097 2.777 2.993-.076 7.424-.133 7.719-2.891C68.041-1.462 74.517.811 79.25.749c4.625.511 9.096.658 8.833 6.75-.619 2.654 4.434 4.115 7.915 4.469z" fill="#81b012"/><path d="M88.988 34.819c-1.501-6.552 3.523-8.114 10.14-8.456.268 1.102 1.058 1.765 2.303 2.365 4.231 2.04 4.81 4.373.493 6.889-2.458 1.433-3.656 3.119-1.219 5.271 2.553 2.254 1.049 4.304-.619 6.187-2.075 2.344-4.773 3.66-8.478 2.125-2.638-1.936-.155-4.308-.804-6.522-2.428.147-4.151 1.908-6.671 1.653-2.752-.279-3.603.951-4.215 2.98-1.648 5.458-5.798 6.819-12.076 4.22-2.297-.951-4.251-2.492-7.067-2.544-.685-.004-1.354-.018-2.037-.023-8.065-.834-9.813-2.086-9.557-6.823 3.95-.399 8.159 1.099 11.874-1.03-.958-3.676-.668-7.246 4.087-8.976 4.36-1.587 8.65-.753 11.622 2.486 4.052 4.412 8.138.873 12.224.198z" fill="#a5c211"/><path d="M49.183 42.139c1.215 4.705 5.43 5.615 10.585 5.338 2.252 1.914 2.842 4.938 1.268 6.365-4.401 3.991-1.84 7.983-1.357 12.032.169 1.416.321 2.839-1.242 3.908-2.848.159-3.613-1.175-4.121-3.167-1.069-4.198-4.117-7.695-7.035-11.186-2.035-2.435-4.621-4.278-8.729-3.723-1.665-1.247-1.677-2.847-.929-4.304 1.682-3.282 2.169-6.548 1.482-10.092-.557-2.876 1.467-3.713 4.754-2.552 4.648 1.14 1.738 5.755 5.324 7.381z" fill="#b4d21c"/><path d="M61.034 47.492c3.02-.413 4.708 1.34 6.842 2.531 5.779 3.226 10.042 1.634 10.381-3.878.163-2.654.361-4.672 4.801-3.243 2.202.709 4.293.319 5.657-1.51.741-.994 1.361-2.476 3.387-1.302 1.579.915 2.267 2.075 1.138 3.608-1.244 1.69-1.948 3.505-1.631 5.501-4.694-2.552-7.79.016-10.644 2.352-5.04 4.125-8.524 9.2-12.662 13.878-1.349 1.525-2.101 3.494-4.585 4.249-2.554-2.713-2.383-3.76 1.454-8.645-3.944 1.626-5.974-.102-5.395-2.778.778-3.591-.085-7.257 1.257-10.763z" fill="#b5d21c"/><path d="M43.859 34.76c-1.248.099-3.699.219-3.263.934 3.519 5.764-1.828 10.666-2.044 16.014-1.271 1.595-2.928 2.086-4.88.845-3.203-2.038-5.07-4.772-5.173-8.014-.057-1.775 1.846-1.988 3.798-1.91.475.019 1.01-.92 1.517-1.417 3.677.874 3.24-.972 3.015-2.822-.524-4.325 1.09-5.14 7.03-3.63z" fill="#a5c213"/><path d="M61.034 47.492c.034 3.148-.008 6.299.139 9.444.061 1.302-.862 3.11 1.231 3.724 1.601.47 2.512-1.097 3.675-1.828.64-.402 1.31-.776 2.904-1.715-2.341 4.65-6.674 7.912-5.265 12.56-1.72 1.332-3.477 1.492-5.281.104-.782-4.622-.848-9.369-3.871-13.645 9.229-.15 3.543-5.763 5.201-8.661a5.369 5.369 0 0 1 1.267.017z" fill="#d0e468"/><path d="M87.863 32.527c-6.096 5.455-8.483 5.518-13.94.03-2.26-2.273-3.411-.863-6.486-.349-3.218.537-6.256.709-6.161 3.302.045 1.213.086 2.461-1.345 3.307-6.666-.264-3.361-4.326-3.836-6.772-.502-2.585 1.605-5.147 4.841-5.024 3.614.137 7.165-.349 9.875-2.688 1.275-1.1 3.353.243 4.698.944 4.275 2.227 8.259 4.807 12.354 7.25z" fill="#ecaf4c"/></g><path d="M100.09 18.926c.014.031.287.491.421.995.454 1.704-4.241 13.049-5.807 14.087-1.911 1.268-3.791 1.536-5.772.466-2.078-1.122-2.706-3.212-1.925-4.991 1.146-2.61 1.403-4.934 1.155-7.636-.263-2.866 1.28-4.138 4.51-4.969 3.096-.795 5.718-1.048 7.418 2.048z" fill="#c47930"/><path d="M105.825 33.827c-.023.036-.317.64-.737 1.136-1.421 1.677-11.48 10.793-13.446 9.967-2.399-1.008-4.505-7.9-5.94-10.992-1.446-2.429-.399-5.174 1.834-5.666 3.276-.722 5.737-2.129 8.272-4.315 2.689-2.318 6.106-2.268 8.859.377 2.637 2.534 3.218 5.568 1.158 9.493z" fill="#ecaf4c"/><path d="M110.135 38.67c-.023.036-.317.64-.737 1.136-1.421 1.677-11.48 10.793-13.446 9.967-2.399-1.008-4.505-7.9-5.94-10.992-1.446-2.429-.399-5.174 1.834-5.666 3.276-.722 5.737-2.129 8.272-4.315 2.689-2.318 6.106-2.268 8.859.377 2.637 2.533 3.218 5.568 1.158 9.493z" fill="#bdcf46"/><path d="M74.874 43.222c-.032.028-.482.527-1.023.887-1.831 1.217-14.023 7.184-15.683 5.846-2.025-1.634-2.137-8.84-2.658-12.208-.715-2.735 1.052-5.082 3.334-4.935 3.347.215 6.102-.454 9.144-1.851 3.226-1.481 6.496-.485 8.406 2.819 1.832 3.166 1.549 6.243-1.52 9.442z" fill="#81b012"/><path d="M59.26 27.513c-.016.032-.205.559-.507 1.007-1.022 1.518-8.495 9.982-10.182 9.481-2.058-.612-4.386-6.117-5.833-8.541-1.399-1.875-.776-4.242 1.015-4.854 2.629-.899 4.528-2.289 6.422-4.33 2.008-2.165 4.82-2.439 7.31-.505 2.387 1.851 3.128 4.307 1.775 7.742z" fill="#c47930"/><g id="XMLID_16_"><ellipse id="XMLID_26_" transform="rotate(-7.65 33.73 27.026)" cx="33.746" cy="27.029" rx="12.2" ry="12.646" fill="#cd4525"/><g id="XMLID_17_" fill="#ec6c30"><path id="XMLID_25_" d="M29.142 35.91a9.528 9.528 0 0 0 4.375 1.233.741.741 0 0 0 .75-.852l-.757-5.644c-.09-.667-.913-.897-1.304-.364l-3.308 4.498a.777.777 0 0 0 .244 1.129z"/><path id="XMLID_24_" d="M25.079 22.265a10.286 10.286 0 0 0-1.11 4.635c-.001.453.397.8.83.742l5.501-.738c.644-.086.858-.936.339-1.347l-4.469-3.541a.717.717 0 0 0-1.091.249z"/><path id="XMLID_23_" d="M30.858 17.334a9.543 9.543 0 0 0-3.995 2.442.777.777 0 0 0 .068 1.147l4.497 3.563c.518.411 1.252-.028 1.162-.695l-.782-5.833a.742.742 0 0 0-.95-.624z"/><path id="XMLID_22_" d="M38.39 18.172a9.535 9.535 0 0 0-4.578-1.261c-.439-.007-.772.402-.712.852l.785 5.854c.09.667.913.897 1.304.364l3.443-4.682a.776.776 0 0 0-.242-1.127z"/><path id="XMLID_21_" d="M36.504 36.765a9.527 9.527 0 0 0 3.955-2.315.777.777 0 0 0-.057-1.158l-4.435-3.513c-.518-.411-1.252.028-1.162.695l.76 5.665a.742.742 0 0 0 .939.626z"/><path id="XMLID_20_" d="M36.755 28.706l4.463 3.535a.716.716 0 0 0 1.084-.235 10.275 10.275 0 0 0 1.215-4.61c.012-.471-.379-.848-.83-.788l-5.592.75c-.644.088-.858.938-.34 1.348z"/><path id="XMLID_19_" d="M43.142 24.328a10.282 10.282 0 0 0-2.356-4.249.716.716 0 0 0-1.114.052l-3.439 4.676c-.392.533.039 1.296.682 1.21l5.622-.754a.742.742 0 0 0 .605-.935z"/><path id="XMLID_18_" d="M24.417 29.958a10.264 10.264 0 0 0 2.323 4.057.716.716 0 0 0 1.111-.055l3.312-4.504c.392-.533-.039-1.296-.682-1.21l-5.47.734c-.451.061-.73.528-.594.978z"/></g></g><g id="XMLID_1_"><path id="XMLID_11_" d="M107.889 46.91l-26.093-8.177c-.455-.129-.73-.627-.577-1.075 2.667-7.805 10.209-11.68 17.96-9.484 7.518 2.13 12.026 9.801 10.627 17.601-.155.863-1.074 1.374-1.917 1.135z" fill="#cd4525"/><g id="XMLID_2_" fill="#ec6c30"><path id="XMLID_9_" d="M86.781 34.005a6.904 6.904 0 0 0-1.925 2.563.5.5 0 0 0 .313.68l3.591 1.017c.42.119.78-.348.57-.74l-1.81-3.381a.48.48 0 0 0-.739-.139z"/><path id="XMLID_8_" d="M92.367 30.673c-1.11.1-2.152.48-3.053 1.077a.538.538 0 0 0-.119.786l2.529 3.056c.292.352.851.161.886-.303l.309-4.057a.513.513 0 0 0-.552-.559z"/><path id="XMLID_3_" d="M98.413 30.933a6.603 6.603 0 0 0-3.158-.711.538.538 0 0 0-.519.602l.992 3.982c.06.453.635.589.912.215l1.944-3.321a.513.513 0 0 0-.171-.767z"/></g><g id="XMLID_4_" fill="#ec6c30"><path id="XMLID_7_" d="M107.654 41.795a6.911 6.911 0 0 1-.556 3.157.5.5 0 0 1-.711.236l-3.196-1.928c-.374-.226-.279-.807.151-.922l3.705-.988a.48.48 0 0 1 .607.445z"/><path id="XMLID_6_" d="M105.58 36.074a6.602 6.602 0 0 1 1.299 2.965.538.538 0 0 1-.492.624l-4.091.097c-.457.028-.699-.511-.384-.854l2.884-2.854a.512.512 0 0 1 .784.022z"/><path id="XMLID_5_" d="M101.196 31.891a6.6 6.6 0 0 1 2.677 1.821.538.538 0 0 1-.085.79l-3.418 2.089c-.372.266-.864-.061-.779-.519l.929-3.782a.511.511 0 0 1 .676-.399z"/></g></g><g id="XMLID_10_"><path id="XMLID_31_" d="M64.192 34.675L43.305 48.984c-.355.259-.854.139-1.067-.271-3.707-7.137-1.886-15.369 4.161-19.773 5.865-4.272 13.704-2.634 18.154 3.543.492.684.297 1.713-.361 2.192z" fill="#cd4525"/><g id="XMLID_27_" fill="#ec6c30"><path id="XMLID_30_" d="M43.043 42.119a7.603 7.603 0 0 0 .599 3.135c.117.275.423.371.644.21l2.802-2.04c.328-.239.224-.817-.165-.916l-3.351-.856c-.271-.069-.522.154-.529.467z"/><path id="XMLID_29_" d="M44.079 35.719a7.045 7.045 0 0 0-1.069 3.01c-.037.311.178.598.461.606l3.555.099c.41.011.61-.536.317-.867l-2.561-2.898a.43.43 0 0 0-.703.05z"/><path id="XMLID_28_" d="M47.813 31.329c-.926.417-1.721 1.083-2.34 1.915-.18.241-.134.612.101.786l3.276 1.867c.342.253.772-.092.682-.546l-1.1-3.647c-.063-.318-.358-.492-.619-.375z"/></g><g id="XMLID_12_" fill="#ec6c30"><path id="XMLID_15_" d="M60.595 31.493a6.818 6.818 0 0 1 1.806 2.493c.118.275-.008.6-.259.691l-3.185 1.144c-.373.134-.71-.32-.534-.719l1.513-3.443c.124-.28.437-.357.659-.166z"/><path id="XMLID_14_" d="M55.508 29.301a5.498 5.498 0 0 1 2.769.968c.24.164.304.531.132.781l-2.343 3.149c-.25.362-.757.191-.803-.271l-.232-4.049c-.033-.324.195-.595.477-.578z"/><path id="XMLID_13_" d="M50.099 29.86a5.443 5.443 0 0 1 2.807-.823c.281-.004.511.269.484.583l-.6 3.95c-.039.455-.55.611-.81.247l-2.01-3.184c-.182-.255-.118-.621.129-.773z"/></g></g><path d="M72.935 42.829c-.118-2.54 2.887-18.777 4.785-20.407 2.317-1.989 4.813-2.573 7.742-1.291 3.072 1.345 4.385 4.209 3.716 6.791-.98 3.79-.818 7.078.116 10.842.99 3.992-2.077 9.579-5.077 9.056-4.542-.485-11.153-2.232-11.282-4.991z" fill="#ecaf4c"/><path d="M40.507 49.467c-.049-.03-.866-.41-1.538-.964-2.277-1.876-7.093-20.866-6.013-23.56 1.318-3.289 3.783-3.443 7.484-3.693 3.881-.263 6.557.196 7.253 3.212 1.021 4.424 2.95 7.72 5.928 11.093 3.157 3.577 3.143 8.218-.37 12.038-3.366 3.661-7.436 4.547-12.744 1.874z" fill="#c47930"/><path d="M74.406 45.343c-.045-.021-.781-.267-1.411-.677-2.132-1.386-6.627-16.32-7.4-18.701-.93-2.868 2.547-4.162 5.724-5.203 3.299-.601 5.321-.324 6.719 1.948 1.933 3.142 3.376 6.844 6.253 9.444 3.051 2.758 3.489 6.734.85 10.347-2.529 3.464-5.93 4.617-10.735 2.842z" fill="#c47930"/><path d="M84.076 45.073c-.019-.025-.371-.38-.601-.811-.778-1.459 1.862-12.222 2.25-13.953.467-2.085 3.003-1.982 5.269-1.797 2.182.499 3.29 1.219 3.314 3.047.034 2.529-.425 5.285.365 7.721.837 2.583-.319 5.245-3.181 6.851-2.742 1.539-5.182 1.366-7.416-1.058z" fill="#c47930"/><path d="M45.035 40.73c-.023.036-.315.636-.742 1.123-1.445 1.649-16.108 4.71-18.192 3.825-2.543-1.079-4.045-2.821-4.246-5.597-.21-2.91 1.517-5.005 3.845-5.44 3.416-.637 5.959-1.987 8.56-4.117 2.757-2.26 5.066-1.561 8.024 1.176 2.836 2.623 4.806 5.137 2.751 9.03z" fill="#edaf4d"/><path d="M105.083 46.833c-5.541 3.152-12.788 14.057-17.641 9.235-1.834-1.822-4.699-1.811-7.216-2.038-2.576-.233-2.971 1.179-3.267 2.524-.253 1.15-.384 2.658-2.792 2.283-2.316-.361-3.413-1.893-3.111-3.247.832-3.734-2.153-4.087-6.43-3.903-5.914.254-11.652.469-11.409 5.779.057 1.241-1.054 1.919-3.11 1.435-2.143-.505-2.806-1.585-2.761-2.942.055-1.692 1.504-4.407-3.021-4.179-3.122.157-8.429.13-7.855 3.861.296 1.923-1.221 2.988-4.85 2.474.342-1.388 1.461-2.86-.478-4.219-4.045-2.833-.09-12.073 2.347-13.621 2.247-1.427 5.961-2.016 9.547.503 2.976 2.09 7.91.611 7.137-2.199-.906-3.294 2.178-3.204 4.981-3.187 2.886.017 9.124 6.028 11.392 6.382 2.725.425 6.751 1.096 7.381-.893 1.63-5.153 10.788-3.245 15.206-2.045 5.45 1.247 12.839 7.175 15.95 7.997z" fill="#81b012"/><g><path d="M113.567 38.419c-.027-2.621.421-4.993-.303-7.541-.637-2.244-1.374-4.113-2.22-5.681.008.168.027.336.027.505 0 4.218 1.943 6.358-2.572 9.673-.027 3.232-3.75 8.5-12.183 11.053-5.333 1.615-56.928 3.143-64.15-.512-5.191-2.627-8.919-7.251-9-10.417-4.531-3.319-3.905-5.572-3.905-9.798 0-.169.019-.337.027-.505-.846 1.568-1.582 3.437-2.22 5.681-.724 2.548-.237 4.921-.303 7.541l.665 72.235c0 6.915 5.526 13.846 14.172 13.846 6.354 0 19.608 2.483 33.563 1.863 13.956.62 27.209-1.863 33.563-1.863 8.646 0 14.007-6.932 14.172-13.846.434-18.149.748-64.278.667-72.234z" fill="#f9d28e"/></g><path d="M99.822 79.696c5.324.055 7.66 3.472 7.711 8.102.056 5.095-3.27 7.312-8.293 7.399-5.074.088-7.448-2.9-7.921-7.269-.511-4.739 3.395-8.182 8.503-8.232z" fill="#ecaf4c"/><path d="M34.472 78.672c2.274.023 3.272 1.483 3.294 3.461.024 2.176-1.397 3.123-3.542 3.16-2.167.037-3.182-1.239-3.383-3.105-.219-2.024 1.449-3.495 3.631-3.516z" fill="#ecaf4c"/><path d="M55.307 89.943c2.274.023 3.272 1.483 3.294 3.461.024 2.176-1.397 3.123-3.542 3.16-2.167.037-3.182-1.239-3.383-3.105-.22-2.024 1.449-3.495 3.631-3.516z" fill="#ecaf4c"/><path d="M100.05 55.788c2.274.023 3.272 1.483 3.294 3.461.024 2.176-1.397 3.123-3.542 3.16-2.167.037-3.182-1.239-3.383-3.105-.22-2.024 1.449-3.495 3.631-3.516z" fill="#ecaf4c"/><path d="M102.12 100.218c3.172.197 5.361 1.813 5.412 5.033.057 3.615-2.32 5.246-5.808 5.256-3.522.01-5.142-2.42-5.04-5.316.101-2.904 1.887-5.184 5.436-4.973z" fill="#edaf4d"/><path d="M93.273 99.205c-.693 2.439-1.939 3.803-4.523 3.624-2.85-.197-4.242-1.625-3.961-4.441.223-2.238 1.716-3.319 3.884-3.209 2.611.133 4.17 1.59 4.6 4.026z" fill="#edb04e"/><path d="M29.494 104.078c-3.172.197-5.361 1.813-5.412 5.033-.057 3.615 2.32 5.246 5.808 5.256 3.522.01 5.142-2.42 5.04-5.316-.101-2.904-1.886-5.184-5.436-4.973z" fill="#edaf4d"/></svg>