<svg id="レイヤー_1" xmlns="http://www.w3.org/2000/svg" xmlns:xlink="http://www.w3.org/1999/xlink" viewBox="0 0 128 128"><g><defs><path id="SVGID_1_" d="M-.368 0H128v128H-.368z"/></defs><clipPath id="SVGID_2_"><use xlink:href="#SVGID_1_" overflow="visible"/></clipPath><g clip-path="url(#SVGID_2_)"><g id="lpZKsz_4_"><g><path d="M16.192 154.127c-8.056 6.017-16.21 3.361-18.171-5.175-1.923-8.374 1.248-16.482 4.285-25.186 6.844-19.609 31.365-83.682 40.81-102.681 2.481-4.99 6.306-10.387 12.71-12.552 4.561-1.542 9.831.108 11.955 4.12 1.875 3.541 2.896 9.961 1.463 14.275-7.11 21.397-31.179 83.676-39.432 104.754-2.954 7.293-7.22 17.076-13.62 22.445z" fill="#c47930"/></g></g><path d="M14.914 131.133c4.278 5.111 4.67 13.84 3.423 15.218-1.247 1.378-3.662-5.116-7.94-10.227s-4.67-13.84-3.423-15.218c1.247-1.378 3.662 5.116 7.94 10.227z" fill="#fbc21a"/><path d="M22.897 111.069c4.278 5.111 4.67 13.84 3.423 15.218-1.247 1.378-3.662-5.116-7.94-10.227-4.278-5.111-4.67-13.84-3.423-15.218 1.248-1.378 3.662 5.116 7.94 10.227z" fill="#fbc21a"/><path d="M30.881 91.005c4.278 5.111 4.67 13.84 3.423 15.218-1.247 1.378-3.662-5.116-7.94-10.227s-4.67-13.84-3.423-15.218c1.247-1.379 3.662 5.116 7.94 10.227z" fill="#fbc21a"/><path d="M38.864 70.941c4.278 5.111 4.67 13.84 3.423 15.218-1.247 1.378-3.662-5.116-7.94-10.227-4.278-5.111-4.67-13.84-3.423-15.218s3.662 5.116 7.94 10.227z" fill="#fbc21a"/><path d="M46.848 50.877c4.278 5.111 4.67 13.84 3.423 15.218-1.247 1.378-3.662-5.116-7.94-10.227s-4.67-13.84-3.423-15.218 3.662 5.116 7.94 10.227z" fill="#fbc21a"/><path d="M54.831 30.812c4.278 5.111 4.67 13.84 3.423 15.218s-3.662-5.116-7.94-10.227-4.67-13.84-3.423-15.218c1.248-1.378 3.662 5.117 7.94 10.227z" fill="#fbc21a"/></g><g opacity=".7" clip-path="url(#SVGID_2_)"><path d="M16.192 154.127c6.4-5.369 10.666-15.153 13.621-22.445 4.562-11.653 21.96-57.246 30.652-80.214-18.845 25.305-46.819 74.468-55.157 86.676-2.54 3.719-6.31 13.815-5.584 14.937 3.292 5.091 9.91 5.944 16.468 1.046z" fill="#a86229"/></g><g clip-path="url(#SVGID_2_)"><g id="lpZKsz_3_"><g><path d="M14.252 186.983c-11.506 4.777-20.248-.827-19.727-11.6.511-10.569 6.946-19.3 13.422-28.782 14.59-21.362 64.81-90.519 82.266-110.377 4.585-5.216 10.892-10.515 19.169-11.188 5.895-.479 11.566 3.063 12.742 8.486 1.037 4.786.11 12.754-3.014 17.474-15.497 23.417-64.588 90.567-81.328 113.262-5.91 7.823-14.194 18.227-23.53 22.725z" fill="#c47930"/></g></g><path d="M36.466 137.591c3.351 7.377.916 17.913-1.014 19.186s-2.622-7.2-5.974-14.577-.916-17.913 1.014-19.186c1.93-1.272 2.623 7.2 5.974 14.577z" fill="#fbc21a"/><path d="M52.552 116.026c3.351 7.377.916 17.913-1.014 19.186-1.93 1.273-2.622-7.2-5.974-14.577s-.916-17.913 1.014-19.186c1.93-1.272 2.622 7.2 5.974 14.577z" fill="#fbc21a"/><path d="M68.638 94.461c3.352 7.377.916 17.913-1.014 19.186-1.93 1.273-2.622-7.2-5.974-14.577-3.351-7.377-.916-17.913 1.014-19.186 1.929-1.273 2.622 7.2 5.974 14.577z" fill="#fbc21a"/><path d="M84.723 72.896c3.352 7.377.916 17.913-1.014 19.186-1.93 1.273-2.622-7.2-5.974-14.577-3.352-7.377-.916-17.913 1.014-19.186 1.93-1.273 2.623 7.2 5.974 14.577z" fill="#fbc21a"/><path d="M100.809 51.331c3.352 7.377.916 17.913-1.014 19.186-1.93 1.273-2.622-7.2-5.974-14.577s-.916-17.913 1.014-19.186c1.93-1.273 2.622 7.2 5.974 14.577z" fill="#fbc21a"/></g></g></svg>