<svg id="Layer_1" xmlns="http://www.w3.org/2000/svg" viewBox="0 0 128 128"><ellipse id="XMLID_1_" cx="62.862" cy="56.086" rx="56.616" ry="29.154" fill="#fff" stroke="#78a2ac" stroke-width="4" stroke-linecap="round" stroke-linejoin="round" stroke-miterlimit="10"/><g id="XMLID_2_"><g id="XMLID_3_"><path d="M104.875 37.839c2.339-5.721-.733-12.564-6.973-16.544-.969-.618-2.227-.388-2.575.464l-8.531 20.863c-.348.852.388 1.897 1.512 2.135 7.241 1.534 14.228-1.196 16.567-6.918z" fill="#cd4525"/></g><g id="XMLID_4_"><path d="M90.402 42.428c1.575.144 3.101.036 4.509-.299.566-.135.803-.644.522-1.146l-2.712-4.829c-.285-.508-1.104-.566-1.298-.092l-2.069 5.061c-.227.557.313 1.238 1.048 1.305z" fill="#f26660"/><path d="M96.103 24.62l-2.053 5.021c-.194.474.431 1.007.99.844l5.283-1.535c.553-.161.741-.692.429-1.185a14 14 0 0 0-2.988-3.341c-.572-.466-1.434-.359-1.661.196z" fill="#ec6c30"/><path d="M98.463 40.632a9.09 9.09 0 0 0 2.531-2.433c.307-.444.015-1.087-.61-1.342l-5.448-2.228c-.597-.244-1.13.207-.845.714l2.704 4.816c.32.57 1.155.807 1.668.473z" fill="#cd4525"/><path d="M102.329 35.017a9.055 9.055 0 0 0-.082-3.71c-.134-.592-.895-.998-1.517-.818l-5.57 1.619c-.559.163-.495.858.103 1.102l5.693 2.328c.619.253 1.272.005 1.373-.521z" fill="#ec6c30"/></g></g><g id="XMLID_5_"><circle cx="63.157" cy="28.382" r="14.534" fill="#cd4525"/><g id="XMLID_6_" fill="#ec6c30"><path d="M57.626 38.621a11.575 11.575 0 0 0 5.203 1.394.874.874 0 0 0 .898-.984l-.87-6.487c-.103-.767-1.082-1.027-1.551-.412l-3.963 5.192a.872.872 0 0 0 .283 1.297z"/><path d="M52.865 22.951a11.577 11.577 0 0 0-1.347 5.337c-.004.521.468.918.984.849l6.553-.879c.767-.103 1.027-1.082.412-1.551l-5.302-4.047a.871.871 0 0 0-1.3.291z"/><path d="M59.773 17.248a11.582 11.582 0 0 0-4.77 2.83.873.873 0 0 0 .074 1.319l5.334 4.072c.615.47 1.491-.039 1.388-.806L60.9 17.96a.873.873 0 0 0-1.127-.712z"/><path d="M68.735 18.169a11.58 11.58 0 0 0-5.444-1.425.863.863 0 0 0-.852.984l.903 6.728c.103.767 1.082 1.027 1.551.412l4.125-5.404a.872.872 0 0 0-.283-1.295z"/><path d="M66.388 39.563a11.563 11.563 0 0 0 4.721-2.685.873.873 0 0 0-.061-1.331l-5.261-4.016c-.615-.47-1.491.039-1.388.806l.873 6.511c.072.531.6.864 1.116.715z"/><path d="M66.731 30.294l5.293 4.041a.873.873 0 0 0 1.292-.276 11.562 11.562 0 0 0 1.472-5.309.874.874 0 0 0-.984-.902l-6.662.894c-.766.104-1.026 1.083-.411 1.552z"/><path d="M74.359 25.223a11.572 11.572 0 0 0-2.782-4.873.873.873 0 0 0-1.327.066l-4.12 5.397c-.47.615.039 1.491.806 1.388l6.698-.899a.863.863 0 0 0 .725-1.079z"/><path d="M52.034 31.803a11.562 11.562 0 0 0 2.743 4.653.872.872 0 0 0 1.323-.07l3.968-5.198c.47-.615-.039-1.491-.806-1.388l-6.517.874a.874.874 0 0 0-.711 1.129z"/></g></g><path id="XMLID_7_" d="M42.118 43.477a1.046 1.046 0 0 1-.154-.208c-1.652-3.018-3.352-6.021-4.94-9.06-2.733-5.23-6.263-10.038-11.776-13.838-.601-.414-1.526-.365-2.049.11-3.144 2.854-3.127 6.227-2.601 9.678.602 3.95 1.884 7.777 3.404 11.568.182.453 4.08 8.34 4.261 8.75.537 1.215 1.201.095 2.194 1.056 1.759 1.702.158-.783 2.034.848.297.259.739.38 1.184.357 3.366-.178 6.656.536 10.001.625.332.009.667-.07.923-.235 1.536-.991.293-2.289.238-3.46-.505-2.173-.987-4.352-2.719-6.191z" fill="#37654b"/><path id="XMLID_8_" d="M33.12 50.384c-.371-2.676-2.783-3.951-4.134-5.956-.706-1.048-1.731-1.88-2.612-2.81-4.45-4.911-9.286-9.383-15.14-12.575-1.691-.922-3.721-2.65-5.589-1.015-1.913 1.675-.626 3.99.038 5.962 1.077 3.199 3.203 5.827 4.958 8.654-.104 1.834 1.763 2.43 2.383 3.811 3.097 3.641 6.509 6.919 10.707 9.294 3.205-1.657 6.367-3.389 9.389-5.365z" fill="#19432d"/><path id="XMLID_9_" d="M33.065 27.877c1.622 2.779 3.818 7.907 4.026 7.825 2.044-.799 4.069-2.727 5.759-1.256 1.516 1.32-.205 2.966-.89 4.405-.686 1.443-2.146 2.729-1.34 4.461.447.583 1.195.688 1.818.425 1.034-.435-4.804 10.13.549 12.354 4.511 1.874 17.826 7.481 24.017 5.982 2.816-.682 1.447-8.864 1.875-8.928 1.046-.157-5.697-9.512-4.643-9.643.656-.081-8.749-3.55-8.875-4.268-.132-.525-.265-1.052-.49-1.559-.329-.691-.821-1.334-.988-2.076a3.774 3.774 0 0 1 .074-1.458c.266-.758.476-1.522.519-2.311a7.91 7.91 0 0 0-.13-2.03c-.101-.39-.503-1.368-1.18-2.343-.707-1.017-1.7-2.033-2.292-2.521-1.529-1.259-3.258-2.314-3.75-2.562-5.149-2.596-8.922-1.765-9.594 3.062-.417 3.009-2.472 3.505-4.465 2.441z" fill="#6d8b14"/><path id="XMLID_10_" d="M110.296 40.564c2.181-.808 3.218.047 3.465 2.27.09.804.469 1.577.726 2.361 1.106 3.377 1.829 3.683 4.899 2.073.954-1.422 1.736-3.033 2.643-4.522 1.597-2.623 3.377-5.165 3.743-8.31.355-3.05-.687-3.938-3.492-2.785-4.726 1.942-8.561 5.172-11.984 8.913z" fill="#37654b"/><path id="XMLID_11_" d="M114.19 59.497c.818-1.068 5.811-1.968 8.651-6.311 1.526-2.335 2.318-3.156 3.451-5.705.492-1.106 1.153-2.447.162-3.375-.447-.418-1.888-.806-3.345-.06-1.633.836-3.061 2.263-3.995 2.648-2.654.548-3.979-.763-4.536-3.203-.145-.634-.372-1.252-.576-1.873-.901-2.735-3.346-2.978-3.978-1.627-.306.505-.311 1.275-1.268 1.145-.86-.116-.994-.714-1.135-1.355-.238-1.085-.393-2.194-.709-3.255-.536-1.799-1.816-2.465-3.644-2.16-1.736.29-1.769 1.682-1.878 2.967-.086 1.017.037 2.052-.046 3.07-.142 1.735-.985 2.953-2.775 3.355-2.87-.89-1.092-1.286-3.837-2.601-4.105-.188-5.167 1.4-3.966 5.914 1.41 1.944 3.288 3.306 5.44 4.324 1.463-.425 2.064-1.801 3.031-2.77 2.18-2.186 2.773-3.551 7.169-2.093 4.21 1.396 7.001 1.508 7.712 6.185.221 1.453-.816 5.5.072 6.78z" fill="#bcce46"/><path id="XMLID_12_" d="M97.735 48.846c-1.451-5.212-1.463-17.472 2.729-17.603 1.33.223 1.189-1.144 1.598-1.923.17-.664.242-1.343.232-2.035-.023-.709-.145-1.383-.546-1.954-.637-.571-1.383-.646-2.153-.619-1.435.031-2.454.992-3.438 2.029-1.393 1.655-1.92 2.702-3.053 4.439-1.512-2.181-1.555-4.082-2.13-6.352-.581-2.293-1.4-3.357-3.122-1.162-1.546 1.971-2.111.826-2.486-.937-.262-1.232-.29-2.544-.65-3.73-.554-1.828-1.602-3.137-3.509-2.833-1.788.286-2.121 1.73-2.057 3.509a20.62 20.62 0 0 1-.12 3.183c-.4 3.325-2.059 4.95-4.958 4.463-2.266-.38-4.586-.847-6.522-2.484-1.736-1.141-3.141-.77-4.201 1.198a4.284 4.284 0 0 0-.347.94c-.18.83-.184 1.661.003 2.491 2.032 3.405 4.479 18.063 6.846 21.194 1.512 2.001 2.196 1.781 2.885-.77.219-.811 1.286-.933 1.557-1.725 2.133-6.222 7.583-8.175 11.47-3.113.782 1.019 1.272 2.406 2.693 2.528 2.242.076 4.445.397 6.598 1.162.865.31 1.768.778 2.681.104z" fill="#6d8b14"/><path d="M9.594 72.847c3.29-3.18-3.029-10.093.261-13.272 1.143.05 8.553 4.93 9.584 5.054 10.131 1.216 22.556 9.291 30.931 7.052 7.515-2.009-1.018-4.513-4.41-6.702-3.401-2.196-10.637-4.153-6.642-6.788 2.217-.887 5.923-1.046 9.013-.647 19.195 2.481 40.351 3.007 61.212 3.846 4.432.804 3.466 1.914 2.843 3.006-.653.799-1.313 1.601-2.43 2.372-1.631 1.051-4.068 2.03-4.897 3.159-.369.744-.209 1.482.367 2.219 1.319 1.154 2.357 2.316 2.571 3.517.177 1.035.046 2.065-.646 3.089-1.02 1.212-2.579 2.384-4.568 3.521-4.113 1.464-6.493 3.288-13.866 4.087-5.663.042-9.022 1.116-13.312 1.78-25.523 3.951-47.134 1.848-50.461-5.498-2.073-4.579-5.672-11.414-15.55-9.795z" fill="#6d8b14"/><path id="XMLID_13_" d="M3.898 51.83c-.59 3.008.479 6.603 1.484 6.172.868-.372 3.454 8.955 4.821 6.696.323-.534 5.013.422 6.607-1.071 1.261-1.182-.474-4.632-.446-6.428.017-1.095 2.945-2.902 1.417-4.659-1.041-1.197-6.73-2.684-6.724-2.681 2.127-1.251 1.006-3.552 1.703-5.266l-2.969-3.617c-5.506.418-4.976 1.909-4.252 5.062.722 3.154-1.25 3.794-1.641 5.792z" fill="#6e8c16"/><path id="XMLID_14_" d="M37.259 41.059c2.855 1.935 5.429 4.07 5.63 7.897.212.437.425.437.638.001-.078-3.495 2.637-5.927 3.45-9.062.593-2.285 2.523-4.881-.506-6.802-2.388-1.514-7.543-.053-9.333 2.389-.515 1.872 1.47 3.689.121 5.577z" fill="#bcce46"/><path id="XMLID_15_" d="M23.596 55.745l.08-.961c-3.639-3.396-7.633-6.412-10.916-10.192-2.194 1.23-.325 3.773-1.703 5.266l12.539 5.887z" fill="#bcce46"/><path id="XMLID_16_" d="M64.67 35.018c-3.447-.639-3.694 3.365-3.688 6.158-1.279 2.256-.893 4.651-.597 7.037.239.942.84 1.65 1.611 2.182 3.194 2.203 5.419 5.276 7.609 8.385 5.36.005 16.383 4.861 21.743 4.867.732-.76.308-1.526-.045-2.239-3.286-6.635 1.057-10.599 5.883-12.498 1.204-.474 2.919-.113 3.439-1.871C100 43.5 97.938 44.188 94 40.812c-3.923-3.363-6.448-5.43-11.107-4.867-4.8.581-7.396 3.995-8.392 9.798-.076.444-.115.894-.217 1.706-4.231-3.614-6.167-11.793-9.614-12.431z" fill="#bcce46"/><path d="M104.647 69.056c7.812 3.889 14.674-7.892 13.567-14.319s-9.282-11.673-17.575-8.957c-8.672 2.84-15.689 14.992-14.17 19.003 2.944 7.774 5.881-1.849 18.178 4.273z" fill="#fdd777"/><ellipse id="XMLID_17_" cx="48.212" cy="64.374" rx="17.359" ry="14.999" fill="#c38130"/><path d="M40.713 65.568c.598 9.234-13.25 12.229-18.893 8.942-5.643-3.287-7.381-13.347-1.543-20.846 6.106-7.842 20.366-10.868 23.562-7.976 6.192 5.604-4.068 5.343-3.126 19.88z" fill="#fdd777"/><path d="M61.112 98.391c1.103 10.466-15.1 13.256-21.897 9.297-6.797-3.959-9.279-15.407-2.716-23.633 6.863-8.603 23.551-11.411 27.444-8.004 7.545 6.602-4.567 5.866-2.831 22.34z" fill="#fdd777"/><g id="XMLID_18_"><ellipse transform="rotate(-7.65 82.275 63.48)" cx="82.31" cy="63.489" rx="17.077" ry="14.783" fill="#cd4525"/><g id="XMLID_19_" fill="#ec6c30"><path d="M75.614 74.047c1.821.833 3.89 1.301 6.069 1.314.633.004 1.146-.478 1.073-1.023l-.885-6.598c-.105-.78-1.246-1.025-1.81-.387l-4.754 5.378c-.39.441-.241 1.065.307 1.316z"/><path d="M70.359 58.164c-1.032 1.66-1.634 3.527-1.689 5.471-.015.531.529.927 1.136.845l7.7-1.033c.901-.121 1.226-1.124.515-1.591l-6.13-4.018c-.498-.325-1.226-.167-1.532.326z"/><path d="M78.575 52.203c-2.163.604-4.087 1.644-5.65 2.986-.454.389-.431 1.022.059 1.344l6.168 4.043c.711.466 1.748-.071 1.643-.851l-.915-6.819c-.072-.546-.694-.874-1.305-.703z"/><path d="M89.061 52.956c-1.898-.879-4.067-1.36-6.351-1.34-.612.005-1.09.495-1.019 1.022l.918 6.844c.105.78 1.246 1.025 1.81.387l4.948-5.597c.39-.442.24-1.063-.306-1.316z"/><path d="M85.865 74.826a14.845 14.845 0 0 0 5.59-2.836c.47-.385.453-1.031-.044-1.357l-6.083-3.987c-.711-.466-1.748.071-1.643.851l.888 6.622c.072.541.685.869 1.292.707z"/><path d="M86.46 65.365l6.121 4.012c.49.321 1.205.172 1.52-.308 1.078-1.644 1.729-3.503 1.836-5.445.031-.553-.503-.984-1.135-.899l-7.828 1.05c-.9.12-1.225 1.124-.514 1.59z"/><path d="M95.507 60.034c-.577-1.898-1.683-3.569-3.16-4.913-.428-.389-1.165-.348-1.557.095l-4.942 5.59c-.563.637.015 1.52.916 1.399l7.87-1.056c.607-.081 1.028-.606.873-1.115z"/><path d="M69.201 67.209c.603 1.808 1.689 3.402 3.118 4.689.428.386 1.163.342 1.553-.099l4.76-5.384c.563-.637-.015-1.52-.916-1.399l-7.657 1.027c-.631.085-1.033.641-.858 1.166z"/></g></g><path d="M97.549 85.631c2.75-4.189 8.822-3.681 12.59-5.106 2.426-1.698 5.925-2.331 7.575-5.155-2.388-.394-4.145.696-5.999 1.328-1.695.578-2.453.309-1.907-1.267.952-2.754 2.266-3.616 3.195-6.373.404-1.197.971-2.662-.402-3.357-1.312-.665-2.808.241-4.145.918-1.752.888-3.149 2.024-4.396 3.362-1.041 1.116-3.301 2.328-5.462 2.4-1.812.06-2.907-1.549-3.414-2.589-.289-.592-.676-1.151-1.035-1.716-1.583-2.494-2.019-2.552-5.138-.727-.284.565-.153 1.323-1.343 1.406-1.069.074-1.338-.484-1.624-1.084-.483-1.015-.868-2.073-1.442-3.048-.973-1.653-2.651-2.027-4.825-1.325-2.065.667-1.859 2.044-1.763 3.332.076 1.02.41 2.011.489 3.031.135 1.738-.426 3.497-2.788 3.912-1.656.204-1.559-1.026-5.139-1.717-1.69-.328-3.498-.328-4.659 1.48-.905 1.41.444 3.923.893 4.754.759 1.406.935 3.548.893 4.866-.104 3.224-1.489 6.306.502 6.68 1.708-.739 7.833-.105 8.845-1.269 3.5-4.03 1.938-.143 7.555.326 5.379.449 7.124-5.793 8.821-1.347.525 1.383 2.813-2.78 4.123-1.715z" fill="#bcce46"/><path d="M25.632 83.6c-2.86-3.574-14.86-11.954-15.867-14.281-.437-1.01-1.046-2.248.299-2.787 1.285-.515 2.8.285 4.15.89 1.77.793 3.216 1.764 4.473 2.935.74.689 1.18 1.724 2.823 1.724 3.154 1.03 4.963.253 6-1.615.269-.485.637-.939.978-1.4 1.5-2.032 1.932-2.067 5.089-.452.299.479.192 1.107 1.378 1.212 1.065.094 1.317-.363 1.583-.855.45-.832.801-1.702 1.343-2.498.918-1.349 2.576-1.611 4.76-.96 2.074.618 1.91 1.76 1.853 2.831-.045.848-.347 1.664-.395 2.512-.082 1.445.767 2.623 2.89 3.345 3.629-.095 1.52-.808 5.059-1.277 5.032.749 6.093 2.276 3.966 5.693-2.005 1.275 1.699 8.846-1.075 9.202-1.721-.668-7.794-.323-8.835-1.324-3.602-3.464-1.931-.177-7.505.045-5.337.213-7.259-5.043-8.813-1.387-.484 1.138-2.884-2.401-4.154-1.553z" fill="#bcce46"/><path id="XMLID_20_" d="M43.595 67.959c-2.46 2.319.988 7.142 5.982 8.257 1.186.265 4.002-.125 6.765-.809 2.612-.647 5.677-.404 5.877-.255.152.114 3.884-2.329 2.715-3.043-.707-.432-4.732.893-7.143.223-2.321-.645-4.171-2.93-6.428-4.062-3.699-1.856-6.793-1.229-7.768-.311z" fill="#6e8c16"/><path id="XMLID_21_" d="M62.149 89.373C27.686 88.837 6.246 71.83 6.246 59.777c0 31.268 25.348 52.779 56.616 52.779s56.616-21.511 56.616-52.779c0 12.053-18.908 30.193-57.329 29.596z" fill="#fff" stroke="#78a2ac" stroke-width="4" stroke-linecap="round" stroke-linejoin="round" stroke-miterlimit="10"/><g id="XMLID_22_"><g id="XMLID_23_"><path d="M24.589 70.742c7.985 3.265 16.943.425 21.704-6.345a2.006 2.006 0 0 0-.888-3.006L16.289 49.486c-1.189-.486-2.531.255-2.74 1.523-1.346 8.165 3.056 16.468 11.04 19.733z" fill="#cd4525"/></g><g id="XMLID_24_" fill="#ec6c30"><path d="M16.916 53.649a14.47 14.47 0 0 0 .859 5.211c.239.663.954.988 1.604.715l6.266-2.629a.802.802 0 0 0-.007-1.482l-7.063-2.888c-.775-.317-1.642.235-1.659 1.073z"/><path d="M41.609 61.994l-7.008-2.866c-.661-.27-1.32.394-1.043 1.053l2.612 6.225a1.197 1.197 0 0 0 1.648.613 14.46 14.46 0 0 0 4.224-3.097c.574-.61.342-1.611-.433-1.928z"/><path d="M20.161 63.092a14.475 14.475 0 0 0 3.551 3.153 1.206 1.206 0 0 0 1.756-.565l2.468-6.036c.27-.661-.394-1.32-1.053-1.043l-6.25 2.622a1.206 1.206 0 0 0-.472 1.869z"/><path d="M28.155 68.1a14.49 14.49 0 0 0 5.016.28c.789-.094 1.262-.928.954-1.661l-2.754-6.563a.802.802 0 0 0-1.482.007L27.31 66.47c-.28.686.123 1.461.845 1.63z"/></g></g><path id="XMLID_25_" d="M5.203 55.748s-1.084-.429-2.828 1.836c-2.428 3.152-1.447 6.698-.208 7.167s5.437-2.092 7.446.285c2.009 2.377 1.182-.816 1.718-1.586s.335-3.884.335-3.884L7.782 56.05l-2.579-.302z" fill="#6e8c16"/></svg>