<svg id="レイヤー_1" xmlns="http://www.w3.org/2000/svg" xmlns:xlink="http://www.w3.org/1999/xlink" viewBox="0 0 128 128"><g/><g id="Ckr5PC.tif"/><g/><g><g><g><path d="M51.229 29.447c-4.599.937-8.495 4.872-10.834 10.792-2.07 5.241-3.6 8.126-7.04 8.474l9.122 4.469s7.421-15.525 12.361-17.231 11.825-1.558 11.825-1.558-9.084-6.239-15.434-4.946z" fill="#ff7043"/><path d="M6.014 67.074S.426 64.346.664 59.289c0 0 4.214-8.749 9.998-12.402 5.174-3.267 8.701-3.012 8.701-3.012s4.772.987 7.888 4.612c0 0-3.86-2.819-12.09 5.422-7.094 7.106-9.147 13.165-9.147 13.165z" fill="#ff7043"/><path d="M34.643 48.432s-2.664.334-4.804-.815c-3.845-2.065-6.379-3.944-11.594-3.682 0 0 3.039.405 7.924 3.967 0 0 9.321 4.457 12.629 5.846 3.309 1.389 3.534-1.434 3.534-1.434s.482-.842-1.053-1.157c-1.534-.316-2.488-.437-3.843-1.215-1.352-.779-1.071-1.238-2.793-1.51z" fill="#e64a19"/><path d="M60.818 33.24c-4.262-.195-10.098 1.758-13.812 10.025-3.714 8.267-3.871 8.59-6.012 10.15 0 0 2.664 7.251 12.597 6.674 0 0 3.835-16.089 7.523-19.187 5.177-4.35 9.92-3.079 12.109-1.316-.001.001-4.94-6.003-12.405-6.346z" fill="#ffccbc"/><path d="M96.289 17.796s-10.642-5.273-16.531-2.251c-5.51 2.828-6.739 6.979-8.982 10.651-2.242 3.672-3.739 2.644-6.443 4.888l9.484 3.806s1.889.409 4.677-4.203 4.152-9.632 8.14-11.185 9.655-1.706 9.655-1.706z" fill="#ff7043"/><path d="M24.155 47.635s4.478.126 8.22 2.458c3.741 2.332 7.339 4.324 9.959 2.22 0 0 .593.472 1.871 2.484.963 1.516 3.03 2.639 5.424 3.111 2.935.578 3.962 2.181 3.962 2.181s.058 4.95-6.821 1.897c-5.663-2.514-8.11-5.317-11.249-8.015-.674-.579-1.345-1.066-2.284-1.661-5.309-3.368-9.082-4.675-9.082-4.675z" fill="#ffab91"/><path d="M64.334 31.085c-.519.469-1.74.446-5.446-.958-2.333-.884-4.383-1.059-6.357-.807 0 0 4.995.633 9.109 3.807 0 0 4.042 1.368 6.793 3.066 1.853 1.144 5.103-.498 5.447-1.791.344-1.294-4.146-1.662-5.837-2.528-2.048-1.047-1.47-2.812-3.709-.789z" fill="#e64a19"/><path d="M34.62 52.922s-6.297-6.404-12.58-5.159C16.076 48.943 9.381 52.537 4 65.735c0 0 2.676 4.951 6.465 6.821 0 0 11.255-20.953 24.155-19.634z" fill="#ffccbc"/><path d="M46.039 64.247s-7.98-13.019-16.171-11.951c-7.89 1.029-15.225 10.253-19.402 20.26 0 0 3.523 4.686 8.257 7.467 0 0 7.837-15.04 11.941-17.699 3.827-2.479 6.954-3.237 11.985-.01l3.39 1.933z" fill="#ff7043"/><path d="M102.342 22.878s-4.523-6.01-10.911-6.521c-6.166-.493-8.969 2.276-11.388 7.622-2.043 4.513-3.772 8.667-8.669 11.747 0 0 4.462 3.757 8.109 5.044 3.648 1.286 5.339-2.496 6.362-7.695 1.023-5.199 1.531-8.408 4.597-10.836 3.771-2.985 5.274-1.59 11.9.639z" fill="#ffccbc"/><path d="M106.35 33.243s-1.01-9.676-7.024-7.527C92.35 28.21 94.119 47.084 87.588 48.92s-12.5-8.248-18.031-3.864c-5.531 4.385-2.909 22.171-13.78 23.564-9.972 1.277-13.974-7.82-20.072-6.535-6.396 1.348-9.254 4.75-14.763 17.615l-2.221.324s6.671-18.987 16.405-20.295c7.572-1.017 11.886 8.787 20.505 7.176 10.421-1.947 7.528-22.904 14.289-24.71s13.241 7.252 17.492 5.249 4.255-21.801 10.83-23.682c7.918-2.265 8.245 8.527 8.245 8.527l-.137.954z" fill="#e64a19"/><path d="M61.64 33.127s3.864.461 6.364 1.679c2.689 1.31 3.371.92 4.66-.061 1.597-1.215 2.138 2.22 3.433 3.087 1.947 1.303 5.545.693 6.33 1.179.606.375 1.274.936.378 1.792-.896.855-.328 2.775-2.388 1.635-5.311-2.941-11.769-4.606-11.769-4.606s-1.778-2.685-7.008-4.705z" fill="#ffab91"/><path d="M105.264 28.75s-2.241-9.188-10.156-9.867c-6.018-.516-9.012 8.41-9.616 12.209s-1.266 7.106-3.637 10.086c-2.216 2.784 6.239 8.532 8.231 3.335s1.968-11.121 4.54-15.154c2.571-4.034 4.062-4.329 6.073-3.952 2.011.376 4.123-.137 5.652 7.837l-1.087-4.494z" fill="#ff7043"/><path d="M82.879 39.638s-1.262 3.376-4.039 1.873c-2.953-1.599-5.844-3.575-10.191-3.679 0 0 4.503.422 8.577 5.719 0 0 6.098 5.223 9.254 4.562 3.156-.661 3.806-4.153 3.806-4.153s-.13-.952-2.596-1.083c-2.467-.132-3.486-3.915-4.811-3.239z" fill="#e64a19"/><path d="M77.226 43.55s-2.95-4.887-8.577-5.719c-5.627-.832-9.406 3.493-11.724 7.76-2.455 4.519-2.343 17.184-7.106 16.538 0 0 2.575 4.071 5.813 4.775 0 0 6.278.474 8.566-11.186s5.073-14.243 13.028-12.168z" fill="#ff7043"/><path d="M51.496 61.711s-1.787 1.149-5.532-.651c-4.452-2.14-5.858-5.726-11.852-8.17 0 0 5.247 3.573 8.536 9.425 2.784 4.954 8.106 4.916 11.805 5.289 3.698.373 4.735-1.365 5.439-2.614.704-1.249-1.979-1.105-3.568-1.307-1.59-.202-2.482-3.841-4.828-1.972z" fill="#e64a19"/></g><path d="M106.566 33.302l-11.368-4.513s3.044-5.026 6.533-3.639c5.064 2.012 4.835 8.152 4.835 8.152z" fill="#e64a19"/></g><g><g><path d="M68.337 57.377c-4.637 1.505-8.198 6.023-9.919 12.408-1.523 5.652-2.764 8.81-6.275 9.572l9.939 3.545s5.842-16.895 10.741-19.233c4.899-2.338 12.023-2.993 12.023-2.993s-10.107-5.378-16.509-3.299z" fill="#ff7043"/><path d="M20.773 101.016s-5.96-3.391-6.434-7.409c0 0 8.635-13.27 13.866-16.36 5.473-3.233 8.83-2.206 8.83-2.206s5.041.46 8.683 3.837c0 0-8.054-1.348-15.698 8.03s-9.247 14.108-9.247 14.108z" fill="#ff7043"/><path d="M53.44 78.915s-1.552.495-5.519-1.405-7.081-2.437-11.572-2.614c0 0 4.863.428 9.367 3.983 0 0 9.058 3.99 12.636 5.037 3.578 1.046 3.48-1.894 3.48-1.894s.399-.925-1.222-1.071-2.619-.16-4.109-.804c-1.489-.645-1.252-1.153-3.061-1.232z" fill="#e64a19"/><path d="M78.678 60.169c-4.422.297-10.217 2.997-13.082 11.965-2.866 8.968-2.99 9.32-5.017 11.181 0 0 3.599 7.173 13.784 5.413 0 0 2.074-17.056 5.518-20.686 4.835-5.096 9.879-4.34 12.345-2.776-.001.001-5.802-5.618-13.548-5.097z" fill="#ffccbc"/><path d="M113.574 37.064s-10.599-4.167-16.324-.357c-5.356 3.564-7.142 7.963-9.027 12.016-1.885 4.053-3.64 6.176-6.168 8.81L92.29 60.35s1.997.201 4.336-4.886 3.248-13.438 7.183-15.508c3.935-2.069 9.765-2.892 9.765-2.892z" fill="#ff7043"/><path d="M42.42 78.36s3.912-.055 8.047 1.914 8.908 4.226 11.366 1.747c0 0 .668.418 2.222 2.345 1.172 1.452 3.436 2.37 5.963 2.576 3.098.253 4.345 1.788 4.345 1.788s.639 5.103-6.819 2.756-7.826-5.537-13.7-8.391S42.42 78.36 42.42 78.36z" fill="#ffab91"/><path d="M82.055 57.533c-.481.545-1.744.664-5.733-.351-2.512-.639-4.648-.579-6.656-.089 0 0 5.23.069 9.848 2.863 0 0 4.333.939 7.371 2.369 2.047.963 5.209-1.111 5.413-2.487.204-1.376-4.474-1.23-6.321-1.925-2.237-.841-1.848-2.73-3.922-.38z" fill="#e64a19"/><path d="M53.844 83.095s-7.253-6.375-13.593-4.355c-6.017 1.917-13.543 7.75-19.478 22.276 0 0 4.29 4.609 10.165 6.109 0 0 9.436-23.881 22.906-24.03z" fill="#ffccbc"/><path d="M63.974 90.421s-6.985-9.395-15.001-7.38c-8.016 2.015-14.896 13.265-18.036 24.084 0 0 4.556 3.948 9.768 6.264 0 0 6.235-17.417 10.161-20.642 3.66-3.007 5.792-5.604 11.865-2.342l1.243.016z" fill="#ff7043"/><path d="M120.928 41.001s-6.916-5.153-12.537-4.854c-5.621.3-7.799 4.515-9.859 9.231-2.06 4.716-3.972 12.368-8.666 16.12 0 0 5.045 3.356 8.961 4.256 3.916.901 5.219-3.201 5.666-8.688s.686-11.868 3.566-14.733c3.542-3.521 5.768-2.856 12.869-1.332z" fill="#ffccbc"/><path d="M126.704 52.935s-3.111-10.974-9.067-8.051c-6.909 3.391-2.963 25.675-9.489 28.334-6.526 2.659-13.868-7.05-19.064-1.876-5.196 5.174-.406 23.226-11.464 25.936-10.144 2.486-15.231-9.185-21.375-7.145-6.445 2.14-9.104 8.737-13.284 22.662l-2.255.594s4.048-22.79 13.943-25.279c8.193-2.061 14.77 9.825 22.62 7.416 10.529-3.23 5.088-24.523 11.855-27.18 6.767-2.656 14.517 5.935 18.67 3.369 4.153-2.566 1.929-26.011 8.496-28.722 6.062-2.503 9.547 3.95 10.844 7.097a2.803 2.803 0 0 1-.43 2.845z" fill="#e64a19"/><path d="M79.513 59.956s4.042.023 6.765.988c2.929 1.038 3.587.555 4.803-.609 1.506-1.441 2.467 2.041 3.906 2.784 2.162 1.117 5.805.066 6.672.476.669.317 1.425.817.6 1.805s-.014 2.903-2.273 1.967c-5.826-2.414-12.687-3.377-12.687-3.377s-2.15-2.562-7.786-4.034z" fill="#ffab91"/><path d="M126.704 52.935a2.777 2.777 0 0 0 .426-2.821c-1.535-3.748-6.144-12.766-14.649-11.79-8.199.941-8.408 12.745-8.586 16.737s-.474 7.483-2.573 10.837c-1.961 3.133 7.439 8.076 8.887 2.479 1.448-5.598.82-14.719 3.001-19.184 2.181-4.465 3.686-4.944 5.806-4.791 2.12.154 1.459-1.785 7.688 8.533z" fill="#ff7043"/><path d="M102.199 64.189s-.908 3.633-3.95 2.406c-3.236-1.304-6.451-3.006-10.95-2.605 0 0 4.698-.092 9.523 4.899 0 0 6.906 4.678 10.086 3.625 3.181-1.052 3.442-4.732 3.442-4.732s-.246-.968-2.807-.814c-2.56.154-4.055-3.631-5.344-2.779z" fill="#e64a19"/><path d="M96.822 68.89s-3.617-4.699-9.523-4.899c-5.906-.2-9.3 4.707-11.193 9.383-2.005 4.952-.406 18.011-5.398 17.903 0 0 3.135 3.9 6.559 4.248 0 0 6.536-.246 7.532-12.549s3.569-15.297 12.023-14.086z" fill="#ff7043"/><path d="M72.391 90.649s-1.71 1.395-5.786-.024c-4.846-1.687-6.916-6.068-12.265-7.392 0 0 4.582 3.64 8.947 7.614 4.366 3.974 8.985 5.587 12.846 5.539 3.861-.049 4.727-1.964 5.308-3.335s-2.172-.909-3.836-.931c-1.665-.023-3.012-3.675-5.214-1.471z" fill="#e64a19"/></g><path d="M126.704 52.935l-12.279-5.93s2.168-4.584 7.253-2.382c3.455 1.496 5.026 8.312 5.026 8.312z" fill="#e64a19"/></g></g></svg>