<svg xmlns="http://www.w3.org/2000/svg" viewBox="0 0 128 128"><g id="图层_1"><g><path d="M112.514 21.819c-4.8-3.068-10.153-5.511-15.56-7.612-7.701-2.992-15.415-3.673-23.203-2.177-6.89 1.323-13.395 4.505-18.934 8.895-3.46 2.742-6.915 5.488-10.127 8.475-7.744 7.202-15.589 14.391-22.552 22.246-6.128 6.914-11.62 14.465-16.439 22.229-4.138 6.669-4.635 13.993-2.159 21.237 5.499 16.088 31.278 26.36 47.405 19.421 5.884-2.532 11.686-5.272 17.482-8.012 6.664-3.151 13.163-6.698 19.938-9.563 20.738-8.771 32.834-24.006 36.89-44.513 2.512-12.701-1.663-23.545-12.741-30.626zM60.632 33.325c.11.422-.249-.014-.139.408l-.09-.344.229-.064z" fill="#b89278"/></g><g fill="#855c52"><path d="M104.364 70.223a.501.501 0 0 1-.494-.577c.35-2.251.789-4.521 1.214-6.718.99-5.12 1.926-9.955 1.886-14.804-.06-7.198-5.06-12.893-9.471-17.917a.5.5 0 0 1 .64-.755c6.854 4.254 12.581 15.132 13.038 24.765.229 4.823-.715 11.497-6.51 15.904a.503.503 0 0 1-.303.102z"/><path d="M97.875 29.876c10.731 6.66 19.125 30.237 6.489 39.846 1.136-7.312 3.165-14.538 3.106-21.604-.061-7.267-4.915-12.911-9.595-18.242m.001-1a1.001 1.001 0 0 0-.752 1.66c4.354 4.959 9.288 10.58 9.346 17.591.04 4.8-.891 9.613-1.877 14.708-.426 2.2-.866 4.474-1.217 6.734a1 1 0 0 0 1.593.95c4.723-3.592 7.042-9.237 6.707-16.325-.463-9.78-6.294-20.835-13.273-25.167a.994.994 0 0 0-.527-.151z"/></g><g fill="#855c52"><path d="M45.535 82.391a.502.502 0 0 1-.351-.143c-.406-.399-.809-.802-1.21-1.202-3.824-3.821-7.437-7.431-13.701-7.431-.182 0-.364.003-.55.01h-.017a.5.5 0 0 1-.234-.941c1.41-.747 2.971-1.126 4.639-1.126 5.992 0 11.451 4.713 11.922 10.291a.499.499 0 0 1-.498.542z"/><path d="M34.112 72.059c5.424 0 10.956 4.285 11.423 9.833-4.284-4.202-8.113-8.774-15.26-8.775-.187 0-.376.003-.567.009 1.384-.733 2.89-1.067 4.404-1.067m.001-1c-1.751 0-3.391.398-4.873 1.184a1 1 0 0 0 .468 1.884l.033-.001c.181-.006.358-.009.534-.009 6.058 0 9.599 3.539 13.348 7.285.402.402.805.804 1.212 1.204a1.002 1.002 0 0 0 1.697-.798c-.491-5.827-6.178-10.749-12.419-10.749z"/></g><path d="M32.88 40.513c7.74-3.956 25.521-9.94 25.847-8.17.013 2.745-4.198 4.467-5.502 4.943-10.066 3.675-21.63 9.323-31.088 14.361 2.476-2.727 8.209-8.95 10.743-11.134z" fill="#855c52"/><path d="M71 97.583c-3.375.272-8.02.269-11.406.269-3.162 0-2.133 1.91-1.216 2.189 4.243 1.289 7.859 1.953 12.289 2.153.886.04 5.958.287 6.756-.099 6.575-3.185 10.539-5.006 14.009-6.511C84.667 96.75 76.569 97.135 71 97.583z" fill="#855c52"/></g></svg>