<svg id="レイヤー_1" xmlns="http://www.w3.org/2000/svg" viewBox="0 0 128 128"><g><path d="M98.995 17.336c.132-.866.139-1.738.412-2.516.477-1.361.906-2.822 1.742-3.955 1.093-1.482 2.81-1.439 4.775-.229.37-.845.57-1.822 1.138-2.484 1.047-1.221 2.15-2.548 3.521-3.299 1.954-1.07 3.24-.216 4.648 2.609 2.163-.865 4.499-2.674 6.655-.388 2 2.121.429 4.335-.611 6.502.446.213.821.382 1.187.568 1.926.983 2.639 2.973 1.178 4.754-1.408 1.717-3.408 2.947-5.206 4.438 1.979 3.204.514 4.751-6.428 6.432-.206 1.29-.047 2.667-.645 3.506-.96 1.349-2.607 1.091-4.067.635-2.929-.916-5.712-.495-8.33.981-2.213 1.247-4.356 2.621-6.346 4.194 2.967-.563 5.913-1.383 8.905-1.62 3.399-.269 6.844-.101 10.259.07.838.042 1.62.875 2.462 1.272.676.319 1.387.593 2.111.779 2.418.622 2.944 1.258 2.888 3.743 1.925.78 3.015 2 1.879 4.233-.106.209.15.648.315.938.179.315.461.57.673.869 1.139 1.605 2.119 3.377.999 5.263-1.183 1.994-3.287 2.119-5.39 1.867-.536-.064-1.067-.166-1.579-.247-.996 2.642-2.444 3.083-4.709 1.398-.973-.724-1.79-1.656-2.684-2.5-2.924 2.227-3.947 1.801-6.411-2.736-2.748.927-3.781.364-4.586-2.502-.695-2.474-1.658-3.531-4.282-3.457-2.065.058-4.12.839-6.156 1.389-.617.167-1.153.636-1.403.487l-5.538-5.604c.41-.928 1.186-2.386 1.69-3.933.332-1.019.415-2.173.36-3.254-.141-2.796-.977-3.741-3.692-4.515-2.7-.77-3.376-2.075-2.292-4.309-1.197-.932-2.538-1.715-3.528-2.813-1.277-1.417-.579-2.714.855-3.609-1.112-1.358-2.346-2.496-3.113-3.89-1.089-1.981-.495-2.971 1.916-3.584-.101-.676-.245-1.373-.304-2.077-.165-1.975.04-3.929 1.888-5.042 1.745-1.051 3.481-.302 4.959.788 1.047.772 1.864 1.369 3.366.87 1.658-.551 2.479.867 2.989 2.222 2.443-.087 3.09.405 3.697 2.668.285 1.064.173 2.273 1.496 2.919.417.204.56 1.183.639 1.83.726 5.903.413 11.736-1.306 17.461-.156.519-.283 1.046-.413 1.572-.009.035.065.09.265.351 3.094-4.757 6.981-9.084 4.945-15.416a4.118 4.118 0 0 1-.185-1.626c.234-2.354 1.643-3.031 4.392-2.003z" fill="#0f9d58"/></g><g><path d="M93.837 54.393c-1.66-8.325-11.984-16.289-20.277-17.629-11.419-2.546-17.878 4.445-23.622 11.933a1.079 1.079 0 0 0 .25 1.548 85.737 85.737 0 0 1 5.617 4.205c.969.791.007 2.32-1.122 1.782a234.315 234.315 0 0 0-6.969-3.183 1.086 1.086 0 0 0-1.306.35c-6.593 8.836-13.023 17.795-19.472 26.74a1.08 1.08 0 0 0 .244 1.509 82.591 82.591 0 0 1 3.578 2.75c.989.805.021 2.352-1.13 1.804a230.862 230.862 0 0 0-4.506-2.086 1.077 1.077 0 0 0-1.316.355c-4.036 5.562-8.196 11.032-12.19 16.622-5.57 7.794-10.416 18.576-7.741 22.44 2.443 3.528 14.655 1.579 23.607-5.498 2.443-1.932 5.052-3.643 7.602-5.434.427-.3.582-.86.367-1.336-.62-1.37-1.267-2.763-1.944-4.184-.542-1.137.986-2.097 1.783-1.121a82.424 82.424 0 0 1 2.583 3.343 1.08 1.08 0 0 0 1.498.245 2045.306 2045.306 0 0 1 27.047-18.914c.428-.294.591-.845.384-1.321a236.878 236.878 0 0 0-3.284-7.202c-.539-1.131.993-2.089 1.785-1.118a85.561 85.561 0 0 1 4.486 6.031 1.077 1.077 0 0 0 1.502.287c2.247-1.535 4.491-3.073 6.748-4.592 10.249-6.901 17.121-15.203 15.798-28.326z" fill="#f57c00"/></g></svg>