<svg xmlns="http://www.w3.org/2000/svg" xmlns:xlink="http://www.w3.org/1999/xlink" viewBox="0 0 128 128"><g id="图层_2"><g><g><defs><path id="SVGID_1_" d="M55.764 9.648c19.682.541 44.357 9.833 55.723 21.291 13.254 13.361 17.333 35.903 12.575 54.505-1.985 7.762-9.8 20.548-25.825 26.995-11.497 4.625-39.067 7.426-51.475 5.323 0 0 1.401-18.659-.574-27.705-3.99-18.278 2.147-20.198 5.004-38.483 2.15-13.755-2.395-28.691 2.786-41.596.002-.001-.086-.382 1.786-.33z"/></defs><use xlink:href="#SVGID_1_" overflow="visible" fill="#6c4828"/><clipPath id="SVGID_2_"><use xlink:href="#SVGID_1_" overflow="visible"/></clipPath><path d="M52.129 6.356c10.373 2.701 19.972 1.726 44.525 11.417 17.741 7.002 24.315 21.115 26.667 26.908s4.068 11.374 3.417 17.592c-.76 7.25-1.958 11.935-5.157 16.985-1.457 2.299-3.88 5.753-5.873 7.607-4.496 4.183-9.988 6.047-12.692 8.281-3.201 2.646-8.652 6.654-12.247 8.733-3.2 1.851-6.935 2.566-10.621 2.853-13.784 1.075-27.928-3.691-38.25-12.889-1.124-1.002-2.213-2.063-3.058-3.309-1.185-1.747-1.849-3.801-2.253-5.873-2.05-10.506 2.261-21.111 3.176-31.776.755-8.802-.82-17.676-.133-26.484S44.214 10.28 52.129 6.356z" clip-path="url(#SVGID_2_)" fill="#906e41"/></g><g><path d="M53.755 115.729a52.18 52.18 0 0 1-6.975-.48c-15.605-2.117-27.699-8.668-34.975-18.945-6.817-9.628-8.899-22.076-6.021-35.999 5.969-28.876 24.823-48.277 46.917-48.277 2.583 0 5.202.278 7.784.826 27.984 5.94 40.776 23.061 39.104 52.34-1.725 30.227-20.145 50.535-45.834 50.535z" fill="#b3bf42"/><path d="M52.703 14.528c2.409 0 4.852.259 7.263.771 26.942 5.719 38.739 21.528 37.128 49.752-.828 14.507-5.508 26.753-13.533 35.415-7.736 8.35-18.043 12.763-29.806 12.763-2.168 0-4.402-.154-6.638-.457-14.901-2.022-26.405-8.215-33.27-17.912-6.407-9.049-8.348-20.822-5.614-34.048 2.851-13.792 8.769-25.536 17.115-33.963 7.982-8.061 17.441-12.321 27.355-12.321m-.001-5C29.856 9.528 9.584 29.576 3.337 59.8c-6.52 31.541 11.743 53.672 43.108 57.927 2.488.338 4.924.503 7.31.503 26.661 0 46.491-20.675 48.331-52.893 1.704-29.852-11.04-48.551-41.081-54.928a39.838 39.838 0 0 0-8.303-.881z" fill="#a5ab3b"/></g><path d="M43.937 43.838c1.19-.143 2.218-1.474 3.661-1.207.234.296.124.957.445 1.143.388.225 1.334-.246 1.679-.444.539-.309.89-.785 1.398-1.148 1.121.145 1.437 1.363 3.049 1.068.878-.161.557-.065 1.108.305.477.32 1.268.932 2.125.931.627-.001.921-.232 1.438-.084-.054-.015.29.316.366.349.35.149.869.126 1.239.12.785-.013 1.494-.393 2.248-.434.372-.02.578.601.961.593.291.769.216 1.091.374 1.828.084.392-.179.325.14.687.314.355 1.187.072 1.537.358.475.388.201.818.353 1.344.324 1.122 1.947 1.368 2.997 1.814-.113.417-.247.969-.086 1.387.287.744 1.191.677 1.549 1.268.554.914-.55 1.865-.789 2.732-.4 1.45.398 1.408 1.339 2.068.753.529.334.38.472 1.262.118.755.95 1.201 1.061 1.846.06.35-.244.677-.323 1.032-.137.616-.034 1.202-.319 1.796-.178.371-.525.633-.672 1.019-.197.516.03 1.08-.127 1.565-.129.398-.543.555-.644.954-.169.669.548 1.214.219 1.901-.414.864-.798.42-1.007 1.502-.174.897-.132 1.938-.565 2.831-.373.769-1.876.725-2.099 1.581-.153.589.142 1.6.347 2.133-.431 1.056-1.491.188-1.85 1.507-.137.504.387 1.048.305 1.564-.444.795-1.303 1.294-1.779 1.238-.302 1.318-1.342 1.188-1.103 2.578-.256.665-5.543 1.117-5.783 1.654-.896 1.678-1.663 1.092-3.821 1.749-.346.105-.623.018-.8.013-.75-.018-1.509.106-2.339.237-.844.133-1.466.747-2.315.637-1.248-.586-.868-.881-1.796-1.854-.598-.646-1.716-1.035-2.164-.515-.368.426-.453.824-.983 1.046-1.081.453-2.681-1.472-4.092-1.451-1.099.017-1.771.264-2.981-.243-.699-.293-1.121-.541-1.898-.679-.005-.603-.552-.978-.751-1.525-.035-.097.133-.474.067-.68-.228-.722-.769-1.33-1.277-1.87-.276-.294-1.156-.854-1.214-1.255-.117-.817-.218-1.322.32-1.987-.19-1.161.179-1.239-1.223-1.59-1.327-.333-1.609-.639-.832-1.776.245-.358.922-.828 1.069-1.175.32-.754-.268-.784-.542-1.446-.228-.55.053-.686.038-1.029-.04-.879-1.285-3.015-.991-3.69.161-.368.461-.264.773-.593.28-.295.497-1.01.495-1.41 1.795-.048 1.362-2.681 1.378-3.781.011-.817.29-1.581.201-2.411-.088-.825-.245-1.226-.515-2.015.058-1.035 2.497-1.192 2.976-1.623-.03.027 1.257-2.675 1.271-2.791.273-2.186-.44-3.183 1.01-4.018.505.166.885.031 1.305-.27.421-.302.478-.965.808-1.191.571-.391 1.564.143 2.224-.179.525-.256.616-.545.825-1.083.069-.177.122-1.088.279-1.202.27-.197.893.066 1.243-.08.415-.17.595-.487.988-.911z" fill="#a5ab3b"/><path d="M55.646 82.642c-1.463 1.834-4.262-4.833-5.693-6.195-3.054-2.909-6.067 7.551-8.243 6.669-.781-.571 1.238-5.854.804-7.933-.435-2.078-6.317 1.418-6.705-.311-.448-1.995 5.131-4.126 5.303-6.856.157-2.494-6.319-5.138-5.731-6.876.403-1.627 6.862 1.373 7.923-.172.777-1.131-1.452-5.358-.295-6.735.841-.608 3.892 3.214 5.02 2.869 1.816-.556 3.716-8.993 5.632-9.423 1.862-.418-.949 10.048 1.571 11.95 2.828 2.134 9.495-5.305 11.747-3.558 1.611 1.022-7.081 8.076-6.921 10.929.141 2.528 5.185 6.74 3.96 7.504-.631 1.374-7.593-4.971-9.064-3.231-1.228 1.449 1.459 10.407.692 11.369z" fill="#f5ea96"/><path d="M59.202 44.789c1.993.003 9.771-14.598 18.344-21.383.572-.452.621-.228.214.393-1.478 2.252-2.714 3.589-4.295 5.832-1.49 2.114-10.85 13.988-10.102 15.281l-3.176.84-.985-.963z" fill="#a5ab3b"/><path d="M52.665 43.011c-1.437-1.381 2.874-18.742 1.411-29.577-.098-.722-.289-.595-.426.135-.499 2.647-.741 9.204-1.159 11.916-.394 2.556-2.221 17.834-3.657 18.246l1.284 2.032 2.547-2.752z" fill="#a5ab3b"/><path d="M60.303 85.659c1.455-.335 10.834 12.673 12.417 14.718 1.68 2.17 2.596 3.744 4.315 5.817.474.571.703.59.438-.089-3.971-10.187-14.859-20.529-14.271-22.433l-1.783.33-1.116 1.657z" fill="#a5ab3b"/><path d="M70.653 54.047c-.219-1.651 14.985-10.554 17.437-12.058 2.602-1.596 3.54-1.662 6.039-3.314.689-.455.734-.706-.052-.496-11.8 3.159-23.668 13.501-25.732 12.62l.347 2.072 1.961 1.176z" fill="#a5ab3b"/><path d="M50.624 88.418c-1.392.541-1.841 16.712-2.001 19.293-.17 2.739-.042 4.555-.299 7.237-.071.739-.25.883-.412.173-2.442-10.657.745-25.302-.812-26.546l1.664-.758 1.86.601z" fill="#a5ab3b"/><path d="M31.047 77.146c.009 1.494-12.762 6.761-15.104 7.858-2.485 1.164-4.221 1.713-6.62 2.937-.661.337-.73.557-.009.447 10.809-1.645 19.968-8.971 21.697-7.98l1.117-1.978-1.081-1.284z" fill="#a5ab3b"/><path d="M70.544 69.202c.693-1.123 18.344 1.216 20.652 1.336 2.449.127 4.037.414 6.448.461.664.013.82-.124.216-.332-9.053-3.115-25.793-3.294-26.654-4.733l-2.275.376 1.613 2.892z" fill="#a5ab3b"/><path d="M31.586 56.462c-.702.688-10.41-1.566-12.348-1.928-2.057-.385-3.37-.811-5.402-1.123-.56-.086-.704.015-.215.262 7.348 3.71 17.329 4.392 17.918 5.733l.713-1.259-.666-1.685z" fill="#a5ab3b"/><path d="M35.314 50.741c-1.099.731-12.733-7.235-14.78-8.308-2.172-1.139-3.494-2.064-5.664-3.116-.598-.29-.797-.23-.335.211 6.921 6.616 20.155 12.505 20.336 14.171l1.077-.853-.634-2.105z" fill="#a5ab3b"/><path d="M29.036 69.131c-.414 1.253-3.834 1.23-6.144 1.509-2.435.294-7.527.505-9.884 1.016-.65.141-.769.31-.134.373 9.528.939 15.503-1.43 16.674-.23l.867-1.302-1.379-1.366z" fill="#a5ab3b"/><path d="M69.636 72.031c.431 1.77 6.84 2.637 15.432 8.79.573.41.361.502-.343.274-2.554-.828-6.637-3.58-9.204-4.502-2.419-.869-6.611-2.432-7.729-1.49" fill="#a5ab3b"/><path d="M43.29 87.625c-1.281.509-2.338 4.28-3.172 6.711-.886 2.579-2.997 8.937-3.948 11.448-.262.692-.466.8-.428.096.572-10.553 5.633-17.671 4.521-19.114l.985-.406 2.042 1.265z" fill="#a5ab3b"/><path d="M45.279 43.3c-1.46-.072-4.483-6.794-5.663-9.078-1.251-2.423-1.636-4.294-2.941-6.64-.36-.646-.577-.723-.438-.033 2.099 10.358 7.603 15.612 6.713 17.201l1.378.089.951-1.539z" fill="#a5ab3b"/><path d="M71.101 58.697c.026-1.312 10.05-5.088 12.109-6.081 2.184-1.053 3.705-1.557 5.816-2.661.582-.304.646-.498.018-.393-9.426 1.579-17.717 7.428-19.197 6.579l-1.375 1.539 2.629 1.017z" fill="#a5ab3b"/><path d="M71.221 63.684c.095.605 1.367 1.066 2.268 1.2.765.114 2.409.06 2.486-.739.08-.829-1.482-1.266-2.365-1.311-.923-.048-2.447.249-2.389.85z"/><path d="M79.394 55.688c.25.604 1.686.762 2.654.675.822-.074 2.514-.543 2.393-1.392-.125-.88-1.856-.941-2.783-.766-.968.183-2.475.874-2.264 1.483z"/><path d="M64.446 47.701c.609.157 1.562-.854 2.055-1.649.419-.675 1.038-2.247.316-2.645-.749-.413-1.797.882-2.2 1.696-.421.849-.761 2.407-.171 2.598z"/><path d="M71.694 47.576c.446.39 1.677-.058 2.429-.518.639-.391 1.825-1.452 1.386-2.093-.456-.665-1.887-.019-2.57.496-.714.537-1.661 1.705-1.245 2.115z"/><path d="M55.825 38.024c.648-.032 1.275-1.32 1.517-2.254.205-.793.332-2.53-.501-2.701-.864-.177-1.499 1.419-1.645 2.344-.153.967-.01 2.605.629 2.611z"/><path d="M44.551 38.706c.609-.3.676-1.798.519-2.795-.133-.847-.732-2.567-1.604-2.385-.903.189-.849 1.986-.605 2.935.255.991 1.073 2.504 1.69 2.245z"/><path d="M41.455 48.179c.425-.378.146-1.603-.202-2.375-.295-.655-1.163-1.912-1.826-1.571-.688.354-.245 1.794.163 2.507.427.744 1.425 1.785 1.865 1.439z"/><path d="M24.577 53.706c-.042-.687-1.416-1.336-2.41-1.58-.843-.208-2.687-.321-2.858.565-.177.919 1.524 1.572 2.507 1.715 1.027.15 2.762-.022 2.761-.7z"/><path d="M31.854 43.993c.269-.548-.506-1.652-1.165-2.277-.559-.53-1.932-1.427-2.452-.818-.54.631.485 1.881 1.18 2.423.726.566 2.14 1.195 2.437.672z"/><path d="M31.315 61.262c-.191-.653-1.657-.98-2.669-.999-.859-.016-2.662.276-2.633 1.168.03.925 1.812 1.184 2.792 1.108 1.022-.079 2.659-.624 2.51-1.277z"/><path d="M29.806 74.648c-.355-.501-1.701-.347-2.569-.066-.737.239-2.187 1.019-1.901 1.77.297.779 1.893.476 2.705.123.849-.368 2.084-1.313 1.765-1.827z"/><path d="M34.02 82.238c-.488-.38-1.742.161-2.497.685-.641.445-1.813 1.621-1.317 2.262.514.665 1.965-.093 2.646-.67.711-.603 1.626-1.875 1.168-2.277z"/><path d="M35.556 89.091c-.632-.201-1.694.806-2.26 1.613-.481.685-1.225 2.302-.489 2.764.763.479 1.943-.821 2.415-1.653.493-.87.943-2.488.334-2.724z"/><path d="M46.639 86.697c-.722.068-1.358 1.538-1.582 2.593-.19.896-.245 2.842.694 2.991.974.155 1.603-1.66 1.72-2.7.123-1.086-.118-2.908-.832-2.884z"/><path d="M50.351 92.908c-.68.205-1.007 1.74-1.018 2.797-.009.897.314 2.777 1.245 2.739.965-.04 1.219-1.904 1.13-2.926-.091-1.068-.675-2.772-1.357-2.61z"/><path d="M61.005 88.802c-.465.51.026 1.951.543 2.837.439.752 1.643 2.158 2.4 1.663.785-.513.068-2.193-.514-3.001-.607-.844-1.942-1.973-2.429-1.499z"/><path d="M72.423 80.655c-.265.624.66 1.8 1.427 2.453.652.554 2.226 1.465 2.766.76.56-.731-.651-2.055-1.453-2.614-.838-.584-2.442-1.196-2.74-.599z"/><path d="M69.834 73.881c-.118.533.789 1.329 1.493 1.732.598.343 1.98.832 2.304.193.336-.662-.819-1.532-1.538-1.856-.75-.339-2.112-.587-2.259-.069z"/></g></g></svg>