<svg id="レイヤー_1" xmlns="http://www.w3.org/2000/svg" viewBox="0 0 128 128"><g/><path d="M42.6 30.624c-.182.188-.357.382-.539.569a79.36 79.36 0 0 0-5.049 5.301c-.125.144-.303.344-.458.52a531.821 531.821 0 0 0-12.07 13.325C18.99 56.405 9.664 62.793 7.168 65.963c-2.557 3.247-4.299 6.601-5.344 9.916-.189.599-.36 1.198-.501 1.793-.058.225-.123.45-.173.674-.847 3.782-.641 7.45.496 10.805.11.326.203.657.331.976.123.321.28.627.42.941 1.444 3.235 3.781 6.069 6.971 8.271.189.131.391.252.586.378.507.341 1.038.664 1.583.975 3.018 1.725 6.574 3.006 10.656 3.655 3.984.633 16.106 1.388 24.258 2.113 5.959.633 40.931-1.717 47.415-4.261 12.561-4.929 22.951-11.68 27.862-23.837l.001-.002a55.506 55.506 0 0 0 2.259-6.858 49.86 49.86 0 0 0 .51-2.213c1.834-8.685 1.046-16.939-2.378-24.806-2.826-8.1-7.85-14.695-15.09-19.826a48.637 48.637 0 0 0-1.877-1.28 55.52 55.52 0 0 0-6.314-3.502l-.002-.001c-11.858-5.594-26.15-5.685-38.719-.777C53.628 21.63 47.59 25.47 42.6 30.624z" fill="#46681e"/><g><path d="M112.977 44.77c-.182-.177-.371-.347-.553-.523a75.173 75.173 0 0 0-5.149-4.906c-.141-.121-.335-.295-.506-.445a503.644 503.644 0 0 0-12.962-11.729c-5.9-5.339-14.068-15.849-17.162-18.275-3.17-2.486-6.471-4.182-9.754-5.203a25.327 25.327 0 0 0-1.778-.49c-.223-.056-.446-.12-.669-.17-3.754-.831-7.426-.639-10.814.454-.329.106-.663.195-.986.318-.325.118-.635.27-.953.405-3.277 1.391-6.179 3.65-8.474 6.736-.136.183-.264.378-.396.567a26.133 26.133 0 0 0-1.022 1.532c-1.814 2.92-3.199 6.364-3.969 10.319-.751 3.86.193 17.062-.773 24.961a506.652 506.652 0 0 0-2.122 17.352l-.091.667a74.838 74.838 0 0 0-.681 7.079c-.023.253-.053.505-.076.758-.61 6.94.459 13.767 2.81 20.057 4.554 12.185 14.009 22.32 26.015 27.108l.002.001a55.598 55.598 0 0 0 6.788 2.206c.736.189 1.467.347 2.197.499 8.627 1.798 16.901 1.054 24.866-2.245 8.18-2.719 14.922-7.572 20.266-14.577.453-.593.902-1.192 1.335-1.816a55.401 55.401 0 0 0 3.688-6.11l.001-.002c5.943-11.478 6.457-25.329 1.925-37.523-2.339-6.296-5.999-12.157-11.003-17.005zm3.04 51.398a48.488 48.488 0 0 1-3.242 5.369 44.582 44.582 0 0 1-1.154 1.568c-4.253 5.576-9.398 9.434-15.724 11.792l-1.508.527s-1.063.432-1.484.588c-6.328 2.359-12.744 2.81-19.618 1.378a43.333 43.333 0 0 1-1.893-.43 48.532 48.532 0 0 1-5.96-1.936c-9.939-3.963-18.224-12.625-22.167-23.173-2.099-5.618-2.909-11.364-2.406-17.08l.077-.787c.125-2.418.334-4.585.637-6.668l.125-.934a498.761 498.761 0 0 1 2.092-17.116c.81-6.614-.046-20.7.714-24.609.58-2.979 1.615-5.68 3.072-8.031.243-.39.494-.772.758-1.138l.253-.363c1.62-2.185 3.529-3.711 5.761-4.658l.431-.189.492-.183.454-.141c2.301-.743 4.743-.838 7.248-.283l.463.12c.571.133 1.002.259 1.435.394 2.637.819 5.186 2.185 7.577 4.06 3.523 2.764 14.007 15.443 16.795 17.966a504.818 504.818 0 0 1 12.877 11.652l.721.637a69.154 69.154 0 0 1 4.665 4.449l.527.511c4.334 4.193 7.484 9.067 9.571 14.686 3.923 10.552 3.328 22.523-1.589 32.022z" fill="#afb42b"/><path d="M107.507 48.946a69.393 69.393 0 0 0-4.665-4.449l-.721-.637a506.704 506.704 0 0 0-12.877-11.652c-2.788-2.522-13.272-15.202-16.795-17.966-2.391-1.875-4.94-3.241-7.577-4.06a19.111 19.111 0 0 0-1.435-.394l-.463-.12c-2.505-.555-4.947-.46-7.248.283l-.454.141-.492.183-.431.189c-2.232.947-4.141 2.474-5.761 4.658l-.253.363a20.25 20.25 0 0 0-.758 1.138c-1.458 2.351-2.492 5.052-3.072 8.031-.76 3.909.096 17.995-.714 24.609a498.761 498.761 0 0 0-2.092 17.116l-.125.934a71.492 71.492 0 0 0-.637 6.668l-.077.787c-.503 5.716.307 11.462 2.406 17.08 3.942 10.548 12.228 19.21 22.167 23.173a48.422 48.422 0 0 0 5.96 1.936c.635.164 1.268.298 1.893.43 6.874 1.432 13.291.981 19.618-1.378.42-.157 1.484-.588 1.484-.588l1.508-.527c6.326-2.358 11.471-6.216 15.724-11.792.391-.514.782-1.03 1.154-1.568a48.488 48.488 0 0 0 3.242-5.369c4.917-9.499 5.512-21.471 1.588-32.026-2.087-5.619-5.237-10.493-9.571-14.686l-.526-.507z" fill="#fff69f"/></g><path d="M100.136 72.729c3.84 10.301-1.398 21.765-11.7 25.605s-21.765-1.398-25.605-11.7 2.498-29.967 9.444-32.077c7.14-2.168 24.021 7.871 27.861 18.172z" fill="#855c52"/><path d="M83.941 64.761c-.639 2.235 3.559 6.489 4.234 13.04.51 4.95 3.054 7.187 6.075 6.574 3.083-.625 4.256-6.726.833-12.458C91.75 66.333 85 61.053 83.941 64.761z" fill="#d7ccc8"/></svg>