<svg id="Layer_1" xmlns="http://www.w3.org/2000/svg" viewBox="0 0 128 128"><path id="XMLID_138_" d="M64.933 112.887l1.365 3.138c.169.368-.1.958-.505.958h-16.36c-.428 0-.696-.804-.48-1.175l1.953-3.528c.622-1.069 2.1-1.32 2.942-.414l.187.498c.144.154.345.539.556.539h2.6c.265 0 .493-.527.545-.786l.871-9.157c1.251-.218 2.502-.38 3.698-.679l-.953 9.662c-.067.343.196.96.545.96h2.532c.216 0 .414-.214.504-.016z" fill="#f79329"/><path id="XMLID_140_" d="M123.584 40.28c.911 5.888-6.16 9.831-4.623 10.919.598.422 1.781-.19 2.774-.381 1.496-.272 2.774.041 2.774 3.359 0 5.534-4.677 10.823-5.235 11.816-1.047 1.863 2.583-1.156 2.692 2.556.109 3.698-5.942 6.35-7.247 8.58-1.319 2.23 2.08-.408 1.237 3.712-.857 4.12-4.963 5.779-7.071 7.479-2.094 1.7 2.548-.274.848 3.466-1.392 3.062-11.06 2.667-12.365 3.782-.653.557 2.91 1.156 2.38 2.828s-5.126 4.419-10.429 3.399c0 0 .313 2.951-3.508 4.65-3.821 1.7-18.724-3.848-18.724-3.848s-7.138-10.681-8.924-24.027c-1.796-13.419 4.247-30.662 4.247-30.662.082-.843.286-1.808.707-2.951 1.7-4.65 4.134-2.42 4.134-2.42s-1.061-4.215 1.441-7.193c2.488-2.978 4.854-1.509 4.854-1.509s1.305-5.385 3.862-8.118c2.543-2.719 6.214-1.047 6.214-1.047s1.441-5.017 5.276-6.88 5.792.381 6.771 1.129c.979.734 3.97-4.637 9.056-3.399 5.575 1.36 4.487 7.601 5.697 8.716.925.857 4.813-1.591 7.22 2.094 2.951 4.501-.258 7.56.381 9.926.421 1.522 4.813-.803 5.561 4.024z" fill="#403732"/><path id="XMLID_139_" d="M59.891 46.446c4.756.777 8.19 2.238 10.283 3.144 2.461 1.066 5.815 2.546 9.433 5.439 2.249 1.798 5.702 5.024 8.64 10.17.68.68 2.658 3.927.963 11.898-1.695 7.97-3.399 12.917-9.518 18.647-2.876 2.693-7.492 4.854-12.714 6.527a48.593 48.593 0 0 1-3.631 1.02s-1.537.526-3.671.761c-4.28.472-11.179.78-14.427.354-.285-.041-.557-.082-.843-.109-12.428-1.808-23.469-7.451-27.698-19.39-1.727-4.909-1.931-10.742-1.564-15.569 0 0 .639 3.223 3.467 2.883 1.727-.204 2.448-1.237 2.747-1.999.122-.34.558-.422.816-.177.748.721 2.108 1.591 3.848.748 1.429-.694 1.836-1.811 1.904-2.722.029-.389.47-.608.787-.379.585.422 1.401.682 2.368.001 1.278-.897.857-2.556.435-3.563a.496.496 0 0 1 .408-.693c.462-.041 1.101-.286 1.876-1.033 1.618-1.537-1.373-3.658-1.672-3.875.749-1.75 2.336-4.808 5.497-7.492 3.102-2.634 6.167-3.591 8.073-4.164 5.792-1.744 10.708-.996 14.193-.427z" fill="#403732"/><path id="XMLID_137_" d="M46.735 115.754c.307.667-.18 1.228-.914 1.228H17.517c-4.555 0-4.065-.235-3.603-2.44.604-2.887 4.596-4.755 6.622-5.585.721-.299 1.537-.195 2.203.199l6.391 3.579c.381.218.816.166 1.251.166h4.189c.653 0 1.237-.208 1.464-.82l3.652-9.753c.169-.455.639-.676 1.118-.592l1.295.252c.617.108.986.76.771 1.349l-2.871 7.658c-.372 1.019.382 1.906 1.467 1.906h3.05c.609 0 1.163.454 1.418 1.008l.801 1.845z" fill="#f79329"/><path id="XMLID_134_" d="M47.14 21.379c4.025 7.438-1.904 16.344-2.461 17.16-3.563 5.181-7.152 4.909-10.402 10.973-2.325 4.31-2.801 8.77-2.176 9.001.014 0 .014.014.027.014.299.218 3.291 2.339 1.672 3.875-.775.748-1.414.993-1.876 1.033a.496.496 0 0 0-.408.693c.422 1.006.843 2.665-.435 3.563-.965.68-1.781.422-2.366 0-.313-.231-.761 0-.789.381-.068.911-.476 2.026-1.904 2.719-1.74.843-3.1-.027-3.848-.748-.258-.245-.693-.163-.816.177-.299.761-1.02 1.795-2.747 1.999-2.828.34-3.467-2.883-3.467-2.883.014-.082.014-.15.027-.231 1.224-.286 2.407-.829 3.331-1.496 2.08-1.509 2.774-3.875 4.079-8.526 1.129-4.011 2.176-7.764 2.04-13.04a36.332 36.332 0 0 0-1.836-10.511l.163-.204c1.033-3.236-.721-5.276-.721-5.276-.136-.775-.965-6.214 2.91-10.81 4.038-4.8 9.872-4.691 10.701-4.664 4.802.166 9.208 2.912 11.302 6.801z" fill="#b89278"/><path id="XMLID_132_" d="M29.404 22.549c1.346 0 2.434 1.618 2.434 3.603 0 1.999-1.088 3.617-2.434 3.617s-2.448-1.618-2.448-3.617c.001-1.985 1.102-3.603 2.448-3.603z" fill="#292323"/><path id="XMLID_131_" d="M15.172 69.106c-1.768.435-3.63.313-4.936-.734-2.719-2.176-1.659-7.207-1.591-7.479 1.591-7.03 9.858-9.831 11.327-15.528.462-1.768.68-3.739.68-3.739a28.52 28.52 0 0 0 .163-4.147c.952-.707 1.672-1.564 1.972-1.944a36.332 36.332 0 0 1 1.836 10.511c.136 5.276-.911 9.029-2.04 13.04-1.305 4.65-1.999 7.016-4.079 8.526a9.576 9.576 0 0 1-3.332 1.494z" fill="#f24338"/><path id="XMLID_130_" d="M20.815 37.479c-1.033.775-2.312 1.36-3.576.938-1.292-.435-3.712-1.972-5.697-2.38-2.312-.476-5.276.557-5.276.557-.517-3.209 2.583-7.329 5.697-7.737 3.1-.422 5.806 2.339 6.962 2.271 1.455-.082 3.304-1.074 3.304-1.074s1.754 2.04.721 5.276l-.163.204c-.299.381-1.02 1.237-1.972 1.945z" fill="#f79329"/><path id="XMLID_102_" d="M96.009 74.703c1.077-.751 1.743-2.171 1.934-3.383.087-.55.329-3.276-.15-2.991l-2.507 1.955s-.722.51-.85 0c-.127-.51 1.171-1.392 1.875-2.006.784-.684 1.726-1.722 2.204-3.051.492-1.368.379-3.074.238-3.856a.632.632 0 0 0-1.038-.364c-.995.87-2.947 2.39-5.49 3.456-2.378.996-5.687 1.344-7.888 1.19-5.673-.397-15.116-4.881-27.843-4.079-.52.007-10.376.284-14.111 7.309-2.208 4.152-1.294 8.815.699 12.755 1.42 2.807 8.341 8.843 15.873 10.298 4.671.902 11.353 2.368 18.98.742 1.392-.297 4.064-.695 6.175-1.53 1.226-.484 2.11-.735 2.762-1.53.652-.795 1.049-1.27 1.062-1.615.024-.625-4.293.279-4.504-.446s1.922-.75 3.116-.914c.922-.126 3.067-.18 4.267-.657 1.2-.476 2.129-.988 3.285-4.145.13-.355-1.452.879-4.22.893-.66.003-.892-1.119.25-1.292 2.001-.303 3.617-.572 4.633-1.456 2.181-1.898 2.082-3.923 2.309-4.773.18-.674-1.453 1.074-3.603 1.594-.559.135-.556-.475-.051-.702 1.517-.681 1.515-.651 2.593-1.402z" fill="#855c52"/><path id="XMLID_100_" d="M97.925 89.027a1.36 1.36 0 0 1-.232-2.7c1.635-.284 3.132-.963 3.563-1.613.101-.153.093-.234.074-.309-.292-1.242-.94-1.398-1.068-1.417-.719-.107-1.262-.764-1.187-1.488a1.346 1.346 0 0 1 1.393-1.223c1.009.056 2.884.858 3.51 3.503.198.841.041 1.682-.453 2.431-1.287 1.951-4.432 2.632-5.365 2.795-.08.014-.158.021-.235.021z" fill="#b89278"/><path id="XMLID_96_" d="M103.652 77.878a1.36 1.36 0 0 1-.575-2.592c1.397-.653 3.476-2.129 3.503-3.22.027-1.069-.558-1.353-.91-1.427-.721-.154-1.207-.859-1.07-1.585a1.343 1.343 0 0 1 1.538-1.094c1.125.185 3.233 1.293 3.162 4.173-.08 3.209-4.565 5.382-5.076 5.62a1.374 1.374 0 0 1-.572.125z" fill="#b89278"/><path id="XMLID_92_" d="M105.763 67.526a1.36 1.36 0 0 1-.754-2.493c.856-.575 3.094-2.516 3.134-4.539.013-.706-.227-.919-.307-.989-.418-.372-1.323-.376-1.605-.336a1.36 1.36 0 0 1-.383-2.693c.232-.035 2.338-.292 3.79.992.575.509 1.255 1.457 1.224 3.079-.076 3.865-4.173 6.634-4.347 6.751a1.345 1.345 0 0 1-.752.228z" fill="#b89278"/><path id="XMLID_91_" d="M106.61 55.303a1.358 1.358 0 0 1-.751-2.493c.471-.317 1.786-1.477 1.599-2.564-.169-.977-.872-1.077-1.311-1.078-.741.06-1.381-.539-1.423-1.28a1.35 1.35 0 0 1 1.246-1.433c1.417-.123 3.715.694 4.168 3.329.528 3.07-2.644 5.205-2.778 5.294a1.364 1.364 0 0 1-.75.225z" fill="#b89278"/><path id="XMLID_90_" d="M105.535 45.786a1.358 1.358 0 0 1-.934-2.347c.47-.451 1.385-1.659 1.192-2.488-.162-.696-1.548-.86-1.815-.864a1.361 1.361 0 0 1-1.34-1.38c.011-.752.604-1.293 1.38-1.34 1.392.02 3.891.668 4.424 2.969.596 2.561-1.709 4.829-1.975 5.079a1.35 1.35 0 0 1-.932.371z" fill="#b89278"/><path id="XMLID_89_" d="M101.116 35.818a1.358 1.358 0 0 1-1.353-1.503c.04-.441.138-2.702-2.013-3.066-2.445-.41-3.545 2.06-3.557 2.085a1.36 1.36 0 1 1-2.494-1.086c.671-1.538 2.887-4.288 6.504-3.681 3.81.645 4.455 4.229 4.264 6.035a1.361 1.361 0 0 1-1.351 1.216z" fill="#b89278"/><path id="XMLID_945_" d="M82.233 40.38a1.357 1.357 0 0 1-1.316-1.032c-.039-.154-.902-3.792 1.406-6.052 1.931-1.891 4.756-1.341 6.121-.714a1.36 1.36 0 1 1-1.131 2.473c-.013-.004-2.009-.874-3.089.186-1.173 1.149-.672 3.441-.667 3.464a1.36 1.36 0 0 1-1.324 1.675z" fill="#b89278"/><path id="XMLID_959_" d="M73.923 49.898a1.361 1.361 0 0 1-1.316-1.02c-.035-.138-.852-3.425 1.147-5.921 1.714-2.138 3.913-2.186 4.942-1.879a1.36 1.36 0 1 1-.781 2.605c-.078-.019-1.082-.22-2.04.975-1.139 1.422-.641 3.519-.635 3.54a1.36 1.36 0 0 1-1.317 1.7z" fill="#b89278"/></svg>