<svg id="レイヤー_1" xmlns="http://www.w3.org/2000/svg" viewBox="0 0 128 128"><g><path d="M127.719 67.118c.467-.864-.464-1.809-1.339-1.363-7.141 3.644-11.409 5.195-15.755 8.528-.05-.109-8.75-17.033-23.115-27.663 4.622-2.093 9.591-3.361 12.352-3.966a.493.493 0 0 0 .003-.963 64.089 64.089 0 0 0-18.417-1.482l-.893-1.226c-1.146-4.687-2.606-15.447-2.995-19.603a.495.495 0 0 0-.738-.387c-5.03 2.866-11.088 12.646-11.375 13.112-.782-.203-1.37-.235-1.37-.235-7.739-1.483-15.132-2.112-21.928-2.103-39.283.055-41.147 2.708-41.228 2.754a1.507 1.507 0 0 0-.617.652c-.004.008-.005.017-.009.025-.042.09-.075.183-.098.278l-.003.018a1.52 1.52 0 0 0-.038.3v.003c-.004.18.02.362.081.535 3.523 10.017 13.934 16.15 13.934 16.15.651 4.903 16.809 12.08 29.846 15.48l-.001.001-.125.205-.076.128-.095.164-.07.123-.108.194-.006.013c-.086.157-.175.328-.268.509l-.068.134-.129.262-.058.123c-.085.18-.171.37-.259.568l-.048.11c-.046.106-.092.216-.138.328l-.062.152c-.149.368-.297.762-.44 1.18l-.057.169c-.045.133-.088.267-.131.405l-.047.154c-.081.265-.159.538-.234.82l-.042.156c-.037.145-.073.293-.109.443-.018.073-.034.148-.051.222-.11.484-.207.989-.29 1.514-.014.092-.029.183-.042.276a22.5 22.5 0 0 0-.064.473l-.034.296c-.03.271-.055.546-.076.826-.009.115-.019.23-.026.347a35.18 35.18 0 0 0-.023.475c-.005.126-.008.252-.012.38-.003.157-.008.313-.008.473-.001.25.002.502.009.758.091 3.143.822 6.728 2.697 10.611a.822.822 0 0 0 .737.464h.013a.823.823 0 0 0 .738-.482c1.089-2.407 3.458-7.151 6.841-11.318.172-.212.346-.422.523-.63l.009-.011c.173-.204.349-.406.527-.605l.032-.035c.175-.195.351-.389.531-.58l.033-.035a26.705 26.705 0 0 1 2.331-2.203l.036-.031c.141-.117.284-.229.427-.342.083-.065.166-.132.249-.196.126-.096.253-.188.38-.28.104-.076.209-.153.315-.227a20.574 20.574 0 0 1 .712-.473c.115-.073.231-.143.347-.213a16.535 16.535 0 0 1 .721-.409c.136-.073.274-.142.412-.211a12.336 12.336 0 0 1 .776-.357c.103-.043.204-.089.307-.13.169-.067.34-.128.512-.189.087-.03.172-.064.259-.093.259-.085.521-.163.785-.232 26.977 5.848 43.593 14.486 43.593 14.486.618 8.516 2.941 15.224 6.747 23.631.408.902 1.744.729 1.902-.248l2.13-13.154a58.985 58.985 0 0 1 6.345-18.635l4.923-9.098z" fill="#016d9e"/><path d="M59.074 47.733s10.543-6.753 26.498-6.429c1.614.033 4.547-.169 4.547.496 0 0 .418.55-4.369.626-6.218.1-15.435 1.813-22.305 5.891l-4.371-.584z" fill="#fff"/><path d="M28.017 33.797s-2.447 2.844-5.713 3.035c-2.454.143-4.47-1.56-4.563-2.697l10.276-.338z" fill="#2f2f2f"/><g fill="#b4e9f3"><path d="M42.431 48.102c-.002-1.619-.446-5.077-.697-8.146-.047-.573-.585-3.403-.112-3.403.472 0 2.018 5.302 2.359 7.929.21 1.621.448 4.117-.005 5.716-.067.192-.458.234-.923.291-.843.104-.62-.947-.622-2.387z"/><path d="M46.867 49.447c-.002-1.619-.446-5.077-.697-8.146-.047-.573-.585-3.403-.112-3.403.472 0 2.018 5.302 2.359 7.929.21 1.621.448 4.117-.005 5.716-.067.192-.458.234-.923.291-.844.104-.621-.947-.622-2.387z"/><path d="M51.481 50.664c-.002-1.619-.446-5.077-.697-8.146-.047-.573-.585-3.403-.112-3.403.472 0 2.018 5.302 2.359 7.929.211 1.621.448 4.117-.005 5.716-.067.192-.458.234-.923.291-.844.104-.621-.948-.622-2.387z"/></g><path d="M73.307 26.985c-1.678 3.202-2.126 4.295-3.27 6.689a32.03 32.03 0 0 0-1.985-.772c1.185-1.864 4.936-8.147 5.878-8.254.35-.039-.143 1.514-.623 2.337z" fill="#016d9e"/><path d="M78.356 52.829c-.156-.139 1.664-1.442 3.425-2.976.944-.822 2.394-1.784 3.721-2.414.754-.358 2.009-.819 2.009-.819.456.479 2.411 2.244 3.177 3.122-2.435.198-3.621-.176-6.163.855-1.108.45-3.047 1.018-4.13 1.541-.635.306-1.809.869-2.039.691z" fill="#036"/><path d="M60.881 66.648c-.11-.022-10.853-2.063-21.917-5.232-18.047-5.169-21.49-10.139-22.067-11.041 1.54-1.622 7.581-1.426 12.615-.27 1.242.285 3.919 1.281 4.133.838.086-.579-2.736-1.711-3.612-2.171-9.094-4.776-14.099-3.768-17.223-2.373-1.522-1.289-7.046-6.42-8.702-9.678a7.886 7.886 0 0 0-.105-.33c-.464-1.379.414-1.97 1.259-1.967 2.201.007 11.081 3.989 13.535 5.103 3.971 1.802 10.31 4.21 14.619 5.278 5.167 1.281 19.273 3.049 39.468 7.964l.616.187c14.216 4.705 23.122 13.765 26.384 17.509 1.943 2.231 4.928 5.966 7.679 9.753.614.845-.321 1.943-1.257 1.48-7.083-3.497-23.535-10.555-45.425-15.05z" fill="#b4e9f3"/><path d="M71.542 34.298c.89.328 3.734 1.769 5.626 2.786.4.215 2.317 1.206 3.388 1.9-.179-.94-.383-1.73-.461-2.141-.074-.387-2.998-1.555-4.335-1.852a43.224 43.224 0 0 0-4.218-.693z" fill="#036"/><path d="M46.573 66.648c3.89.797 6.306 1.67 9.214 2.168 1.905.326 4.488.701 6.294 1.322-1.848.391-4.955 1.962-7.112 4.144-1.3-1.879-2.973-3.455-4.251-4.446-.519-.401-2.352-1.443-4.145-3.188z" fill="#036"/></g></svg>