<svg id="レイヤー_1" xmlns="http://www.w3.org/2000/svg" xmlns:xlink="http://www.w3.org/1999/xlink" viewBox="0 0 128 128"><path d="M100.822 49.472c4.172-10.214.894-15.989-1.029-21.15-1.7-4.563 2.965-6.894 2.965-6.894-1.762-.034-3.806-.842-3.806-.842 3.648-2.526 5.77-9.11 5.77-9.11-2.462 2.339-5.864 2.432-5.864 2.432 5.611-5.404 3.858-12.883 3.858-12.883s-5.797 7.833-16.632 12.459c-8.803 3.758-18.525 4.656-22.086 4.676-3.561-.019-13.283-.917-22.086-4.676C31.076 8.858 25.279 1.026 25.279 1.026s-1.753 7.479 3.858 12.883c0 0-3.402-.094-5.864-2.432 0 0 2.122 6.584 5.77 9.11 0 0-2.045.808-3.806.842 0 0 4.665 2.33 2.965 6.894-1.923 5.161-5.201 10.937-1.029 21.15 0 0-28.678 47.945 33.579 76.336a8.088 8.088 0 0 0 3.243.721h.004a8.075 8.075 0 0 0 3.243-.721c62.258-28.391 33.58-76.337 33.58-76.337z" fill="#885c52"/><g fill="#885c52"/><g/><g><g/><g/></g><g><g fill="#2f2f2f"/></g><g fill="#ffc148"><g/><g/></g><g id="_x38_UItz2.tif"/><g id="fTLeLz.tif"/><g><circle cx="82.438" cy="41.568" r="14.717" fill="#bb917a"/><circle cx="82.438" cy="41.568" r="11.291" fill="#fff"/><circle cx="82.438" cy="41.568" r="6.49" fill="#2f2f2f"/></g><g><circle cx="45.668" cy="41.568" r="14.717" fill="#bb917a"/><circle cx="45.668" cy="41.568" r="11.291" fill="#fff"/><circle cx="45.668" cy="41.568" r="6.49" fill="#2f2f2f"/></g><path d="M38.39 81.687c.002-13.596 7.016-21.743 25.61-21.743v55.804s-8.546-.532-14.866-7.564c-5.001-5.563-10.746-15.652-10.744-26.497z" fill="#fef6e0"/><path d="M89.61 81.687C89.608 68.091 82.594 59.944 64 59.944v55.804s8.546-.532 14.866-7.564c5.001-5.563 10.746-15.652 10.744-26.497z" fill="#fef6e0"/><g><g><path d="M37.062 121.004a2.98 2.98 0 0 1-2.976-2.976v-9.52a2.98 2.98 0 0 1 2.976-2.976 2.98 2.98 0 0 1 2.976 2.976v9.52a2.98 2.98 0 0 1-2.976 2.976z" fill="#ffc148"/><path d="M37.062 106.033a2.476 2.476 0 0 1 2.476 2.476v9.519a2.476 2.476 0 1 1-4.952 0v-9.519a2.477 2.477 0 0 1 2.476-2.476m0-1a3.48 3.48 0 0 0-3.476 3.476v9.519c0 1.917 1.559 3.476 3.476 3.476s3.476-1.559 3.476-3.476v-9.519a3.48 3.48 0 0 0-3.476-3.476z" fill="#885c52"/></g><g><path d="M43.097 121.004a2.98 2.98 0 0 1-2.976-2.976v-9.52a2.98 2.98 0 0 1 2.976-2.976 2.98 2.98 0 0 1 2.976 2.976v9.52a2.98 2.98 0 0 1-2.976 2.976z" fill="#ffc148"/><path d="M43.097 106.033a2.476 2.476 0 0 1 2.476 2.476v9.519a2.476 2.476 0 1 1-4.952 0v-9.519a2.476 2.476 0 0 1 2.476-2.476m0-1a3.48 3.48 0 0 0-3.476 3.476v9.519a3.48 3.48 0 0 0 3.476 3.476 3.48 3.48 0 0 0 3.476-3.476v-9.519a3.48 3.48 0 0 0-3.476-3.476z" fill="#885c52"/></g><g><path d="M49.286 121.004a2.98 2.98 0 0 1-2.976-2.976v-9.52c0-1.641 1.335-2.976 2.976-2.976s2.976 1.335 2.976 2.976v9.52a2.98 2.98 0 0 1-2.976 2.976z" fill="#ffc148"/><path d="M49.286 106.033a2.476 2.476 0 0 1 2.476 2.476v9.519a2.476 2.476 0 1 1-4.952 0v-9.519a2.476 2.476 0 0 1 2.476-2.476m0-1a3.48 3.48 0 0 0-3.476 3.476v9.519c0 1.917 1.559 3.476 3.476 3.476s3.476-1.559 3.476-3.476v-9.519a3.48 3.48 0 0 0-3.476-3.476z" fill="#885c52"/></g></g><g><g><path d="M78.375 121.004a2.98 2.98 0 0 1-2.976-2.976v-9.52a2.98 2.98 0 0 1 2.976-2.976 2.98 2.98 0 0 1 2.976 2.976v9.52a2.978 2.978 0 0 1-2.976 2.976z" fill="#ffc148"/><path d="M78.376 106.033a2.476 2.476 0 0 1 2.476 2.476v9.519a2.476 2.476 0 1 1-4.952 0v-9.519a2.475 2.475 0 0 1 2.476-2.476m0-1a3.48 3.48 0 0 0-3.476 3.476v9.519a3.48 3.48 0 0 0 3.476 3.476 3.48 3.48 0 0 0 3.476-3.476v-9.519a3.48 3.48 0 0 0-3.476-3.476z" fill="#885c52"/></g><g><path d="M84.41 121.004a2.98 2.98 0 0 1-2.976-2.976v-9.52c0-1.641 1.335-2.976 2.976-2.976s2.976 1.335 2.976 2.976v9.52a2.98 2.98 0 0 1-2.976 2.976z" fill="#ffc148"/><path d="M84.41 106.033a2.476 2.476 0 0 1 2.476 2.476v9.519a2.476 2.476 0 1 1-4.952 0v-9.519a2.476 2.476 0 0 1 2.476-2.476m0-1a3.48 3.48 0 0 0-3.476 3.476v9.519c0 1.917 1.559 3.476 3.476 3.476s3.476-1.559 3.476-3.476v-9.519a3.48 3.48 0 0 0-3.476-3.476z" fill="#885c52"/></g><g><path d="M90.6 121.004a2.98 2.98 0 0 1-2.976-2.976v-9.52a2.98 2.98 0 0 1 2.976-2.976 2.98 2.98 0 0 1 2.976 2.976v9.52a2.98 2.98 0 0 1-2.976 2.976z" fill="#ffc148"/><path d="M90.599 106.033a2.476 2.476 0 0 1 2.476 2.476v9.519a2.476 2.476 0 1 1-4.952 0v-9.519a2.477 2.477 0 0 1 2.476-2.476m0-1a3.48 3.48 0 0 0-3.476 3.476v9.519c0 1.917 1.559 3.476 3.476 3.476s3.476-1.559 3.476-3.476v-9.519a3.48 3.48 0 0 0-3.476-3.476z" fill="#885c52"/></g></g><path d="M67.267 49.563a4.226 4.226 0 0 0-6.533 0c-1.306 1.557-2.469 3.783-2.299 6.693.248 4.221 2.642 7.21 4.208 8.733.77.748 1.945.748 2.715 0 1.567-1.522 3.961-4.512 4.208-8.733.17-2.91-.993-5.136-2.299-6.693z" fill="#ffc148"/><ellipse cx="83.604" cy="39.258" rx="2.202" ry="2.31" fill="#fff"/><ellipse cx="47.426" cy="39.258" rx="2.202" ry="2.31" fill="#fff"/><g fill="none" stroke="#bb917a" stroke-width="3" stroke-linecap="round" stroke-linejoin="round" stroke-miterlimit="10"><path d="M46.577 76.69l.018.035c2.456 4.663 9.141 4.643 11.569-.035"/><path d="M58.164 76.69l.018.035c2.456 4.663 9.141 4.643 11.569-.035"/><path d="M69.751 76.69l.018.035c2.456 4.663 9.141 4.643 11.569-.035"/><path d="M52.413 92.558l.018.035c2.456 4.663 9.141 4.643 11.569-.035"/><path d="M64 92.558l.018.035c2.456 4.663 9.141 4.643 11.569-.035"/></g></svg>