<svg xmlns="http://www.w3.org/2000/svg" viewBox="0 0 128 128"><g id="图层_2"><g fill="#c96"><path d="M57.789 52.434s-.953-5.452-3.359-9.9-6.273-7.699-7.769-11.608c-.54-1.731-1.54-3.65-1.863-6.646-.062-.658-.332-1.881-1.174-1.881-.795 0-1.062 1.295-1.055 1.786.007.491-.118 3.725 1.151 7.164 1.269 3.439 4.4 7.403 6.642 12.334s3.072 10.032 3.072 10.032l4.355-1.281z"/><path d="M57.789 52.434l.85-.164c-.013-.049-.961-5.554-3.458-10.184-1.258-2.323-2.864-4.286-4.31-6.134-1.45-1.847-2.73-3.58-3.409-5.364l-.802.338.821-.282c-.587-1.855-1.52-3.634-1.825-6.465l-.859.102.86-.089c-.041-.403-.127-.947-.378-1.496a2.346 2.346 0 0 0-.577-.795 1.637 1.637 0 0 0-1.079-.408 1.562 1.562 0 0 0-1.069.433c-.387.37-.562.799-.684 1.186a3.822 3.822 0 0 0-.167 1.054v.036-.002.048l-.001.292c.002 1.082.056 4.006 1.21 7.138.682 1.842 1.809 3.722 3.031 5.763 1.223 2.038 2.545 4.231 3.638 6.634 1.09 2.395 1.845 4.857 2.323 6.712.239.928.41 1.704.52 2.245.055.271.095.483.121.626l.029.162.008.05a.915.915 0 0 0 .39.614.834.834 0 0 0 .696.107l4.354-1.282c.429-.126.697-.577.617-1.037l-.85.162-.233-.873-4.354 1.282.233.873.852-.153c-.01-.045-.842-5.201-3.144-10.27-1.15-2.528-2.514-4.783-3.735-6.819-1.222-2.033-2.295-3.855-2.882-5.452-1.033-2.796-1.095-5.494-1.094-6.483l.001-.292v-.083a2.1 2.1 0 0 1 .154-.694.602.602 0 0 1 .114-.188l-.005-.005.004.006h.001l-.005-.005.004.006-.076-.125v.148l.076-.023-.076-.125v.148-.012l-.002.012h.002v-.012l-.002.012.012-.068-.032.06.021.008.012-.068-.032.06.011.01c.037.03.136.192.2.409.067.214.109.469.126.653l.001.013c.341 3.16 1.406 5.219 1.9 6.826l.019.056c.817 2.125 2.218 3.972 3.678 5.84 1.463 1.866 2.994 3.752 4.142 5.878 1.154 2.131 1.978 4.551 2.504 6.427a40.102 40.102 0 0 1 .714 2.964l.033.171.01.054.848-.166-.233-.873.233.873z"/><path d="M51.294 44.764s-2.541-3.349-5.948-4.512c-3.407-1.163-6.857-3.36-8.282-4.859-1.425-1.5-2.47-3.126-2.692-4.341-.222-1.215-.869-1.64-1.354-1.442-.454.185-.647 1.019-.431 2.302.237 1.401 1.866 4.703 3.021 5.914 3.356 3.517 6.296 4.001 8.466 5.589 2.17 1.588 4.743 3.853 5.527 5.073l1.693-3.724z"/><path d="M51.294 44.764l.676-.565c-.022-.029-.686-.902-1.801-1.935-1.117-1.031-2.681-2.231-4.556-2.874-1.633-.557-3.302-1.374-4.722-2.228-1.418-.85-2.597-1.754-3.216-2.409a13.913 13.913 0 0 1-1.687-2.135c-.429-.68-.694-1.312-.768-1.737-.116-.63-.331-1.151-.659-1.551-.322-.397-.791-.674-1.308-.673a1.46 1.46 0 0 0-.55.108 1.456 1.456 0 0 0-.548.4c-.215.252-.337.54-.415.836a3.804 3.804 0 0 0-.108.948c0 .347.035.72.102 1.121.08.461.243.966.46 1.529.326.839.777 1.783 1.267 2.654.494.872 1.008 1.658 1.534 2.214 1.752 1.839 3.426 2.903 4.897 3.685 1.474.78 2.722 1.296 3.685 2.006a41.774 41.774 0 0 1 3.213 2.617c.493.447.941.88 1.305 1.266.363.384.644.728.787.953.174.271.47.422.781.398a.861.861 0 0 0 .716-.514l1.693-3.723a.943.943 0 0 0-.104-.955l-.674.564-.78-.39-1.693 3.723.78.39.717-.507c-.249-.385-.584-.781-.991-1.215-1.218-1.29-3.09-2.872-4.758-4.095-1.207-.878-2.514-1.398-3.892-2.136-1.381-.737-2.854-1.672-4.458-3.351-.224-.233-.52-.63-.818-1.099a19.79 19.79 0 0 1-1.277-2.392c-.365-.803-.629-1.573-.686-1.939a4.917 4.917 0 0 1-.076-.804c-.002-.284.042-.479.072-.549l.014-.03-.034-.022.031.026.003-.005-.034-.022.031.026-.211-.18.097.261.114-.081-.211-.18.097.261-.077-.208v.223l.077-.015-.077-.208v.223-.133l-.059.122.059.011v-.133l-.059.122s.052.03.122.149c.07.117.152.319.206.615.148.79.516 1.579 1.021 2.391a15.664 15.664 0 0 0 1.907 2.42c.807.845 2.065 1.788 3.58 2.702 1.514.91 3.273 1.773 5.047 2.379 1.532.52 2.941 1.575 3.947 2.51a16.488 16.488 0 0 1 1.494 1.582l.077.096.018.023.003.004.677-.565-.78-.39.78.39z"/><path d="M44.099 42.892s-10.564-1.931-16.315-6.885c-5.751-4.954-6.549-11.871-4.22-18.962.434-1.065.888-1.768.378-2.36s-1.305.373-1.702.842c-.397.47-6.497 7.265-.85 19.546 3.151 7.107 14.05 10.109 18.5 11s10.479 3.307 10.933 8.437l4.666-.685-2.22-8.285-9.17-2.648z"/><path d="M44.099 42.892l.148-.893-.111-.021a51.414 51.414 0 0 1-6.408-1.746c-3.172-1.084-6.849-2.725-9.396-4.925-1.81-1.56-3.081-3.299-3.91-5.172-.827-1.873-1.213-3.888-1.214-6.009 0-2.174.409-4.459 1.172-6.784l-.817-.296.795.356c.137-.339.287-.657.418-.988.127-.332.251-.683.256-1.128a1.835 1.835 0 0 0-.448-1.208 1.42 1.42 0 0 0-.463-.36 1.29 1.29 0 0 0-.555-.126 1.58 1.58 0 0 0-.766.215 3.32 3.32 0 0 0-.732.585c-.197.202-.361.399-.475.534-.024.029-.115.133-.231.277-.825 1.021-3.223 4.423-3.222 9.971-.001 2.888.651 6.339 2.471 10.293l.779-.394-.784.383c.86 1.938 2.228 3.558 3.836 4.916 4.832 4.058 11.876 5.899 15.285 6.592 2.154.429 4.694 1.24 6.677 2.512.993.634 1.843 1.38 2.457 2.226.614.849 1.002 1.788 1.101 2.892a.915.915 0 0 0 .324.627.827.827 0 0 0 .656.187l4.666-.685a.858.858 0 0 0 .604-.402.946.946 0 0 0 .109-.742l-2.22-8.285a.886.886 0 0 0-.603-.629l-9.169-2.648-.081-.019-.149.894-.229.874 8.699 2.512 1.82 6.792-3.686.541.12.898.861-.084a7.572 7.572 0 0 0-1.447-3.823c-1.177-1.615-2.878-2.781-4.695-3.648-1.82-.865-3.768-1.428-5.49-1.773-2.177-.435-5.963-1.398-9.542-3.104-1.789-.852-3.526-1.889-4.984-3.12-1.46-1.232-2.636-2.651-3.352-4.267l-.005-.012c-1.718-3.738-2.298-6.904-2.299-9.505.001-2.851.699-5.036 1.423-6.552.362-.757.731-1.345 1.022-1.759.146-.207.272-.37.368-.49.098-.122.16-.192.204-.244.155-.185.348-.411.52-.566a1.17 1.17 0 0 1 .203-.154l.022-.011.004-.002-.069-.22v.228l.069-.009-.069-.22v.228-.413l-.163.375.163.038v-.413l-.163.375.127-.292-.229.217.102.074.127-.292-.229.217.011.015.057-.038-.064.019.007.019.057-.038-.064.019.058-.017-.06.008.002.009.058-.017-.06.008v.005c.004.025-.025.189-.125.437-.097.249-.249.575-.409.966l-.022.061c-.815 2.481-1.267 4.962-1.267 7.375-.001 2.353.432 4.642 1.374 6.772.941 2.131 2.389 4.096 4.381 5.811 3.034 2.606 7.19 4.34 10.605 5.465 3.414 1.119 6.086 1.608 6.111 1.613l.147-.888-.229.874.229-.874z"/><path d="M20.557 30.172s-3.727-3.129-4.86-11.572c-1.13-8.426 1.794-12.605 2.156-13.633s-.119-1.754-.398-1.798c-.722-.115-1.159.829-1.722 1.804-1.512 2.616-2.851 6.172-3.096 8.677-.513 5.235-.104 16.471 12.232 25.911l-4.312-9.389z"/><path d="M20.557 30.172l.54-.708-.303.397.306-.394-.003-.003-.303.397.306-.394s-.05-.043-.146-.138c-.668-.673-3.45-3.794-4.401-10.855-.176-1.31-.25-2.51-.25-3.604.001-2.865.505-5.01 1.041-6.549.268-.77.545-1.387.777-1.873.116-.243.221-.453.312-.639.091-.188.166-.344.232-.527.126-.358.183-.709.183-1.035a2.488 2.488 0 0 0-.308-1.228 1.782 1.782 0 0 0-.352-.445 1.185 1.185 0 0 0-.602-.3 1.605 1.605 0 0 0-1.182.286c-.372.268-.605.598-.821.93-.212.334-.399.682-.59 1.012a29.123 29.123 0 0 0-2.092 4.528c-.572 1.583-.989 3.153-1.125 4.527-.078.8-.136 1.736-.136 2.782 0 3.013.48 6.945 2.318 11.157 1.837 4.212 5.034 8.693 10.4 12.798a.833.833 0 0 0 1.063-.036.935.935 0 0 0 .225-1.09l-4.311-9.389a.894.894 0 0 0-.239-.315l-.539.708-.779.394 4.311 9.389.779-.394.509-.733c-5.146-3.941-8.13-8.157-9.847-12.088a25.922 25.922 0 0 1-2.161-10.402c0-.976.054-1.849.127-2.596.109-1.132.485-2.592 1.021-4.068a27.27 27.27 0 0 1 1.954-4.232c.275-.48.51-.915.698-1.162a1 1 0 0 1 .198-.214l.013-.008-.026-.054.014.058.012-.004-.026-.054.014.058-.031-.131v.135l.031-.004-.031-.131v.135-.08l-.011.079.011.001v-.08l-.011.079.076-.529-.338.415c.027.02.084.081.262.114l.076-.529-.338.415.112-.137-.128.12.017.017.112-.137-.128.12v.001c.015.02.072.133.071.31 0 .107-.018.241-.076.407a4.195 4.195 0 0 1-.15.331c-.295.608-.89 1.749-1.392 3.385-.505 1.641-.926 3.797-.926 6.5 0 1.18.08 2.465.267 3.857 1.161 8.693 5.045 12.053 5.176 12.154l.538-.707-.779.394.779-.394z"/><path d="M70.211 52.434s.953-5.452 3.359-9.9c2.406-4.449 6.273-7.699 7.769-11.608.54-1.731 1.54-3.65 1.863-6.646.062-.658.332-1.881 1.174-1.881.795 0 1.062 1.295 1.055 1.786-.007.491.118 3.725-1.151 7.164-1.269 3.439-4.4 7.403-6.642 12.334s-3.072 10.032-3.072 10.032l-4.355-1.281z"/><path d="M70.211 52.434l.85.164.01-.054c.1-.567 1.082-5.564 3.251-9.563 1.148-2.126 2.679-4.012 4.142-5.878 1.459-1.868 2.861-3.714 3.678-5.84l.019-.056c.494-1.607 1.559-3.666 1.9-6.826l.001-.013c.021-.255.101-.651.211-.878a.603.603 0 0 1 .122-.19l.004-.003-.032-.057.017.063.015-.006-.032-.057.017.063-.008-.03v.032l.008-.002-.008-.03v.032-.159l-.057.146.057.013v-.159l-.057.146.031-.079-.052.067.022.012.031-.079-.052.067c.011-.002.12.155.179.363.064.2.093.449.091.52v.007-.002.077l.001.292c.002.988-.06 3.687-1.094 6.483-.587 1.597-1.66 3.418-2.882 5.452-1.22 2.036-2.585 4.291-3.735 6.819-2.302 5.069-3.134 10.225-3.144 10.27l.852.153.233-.873-4.354-1.282-.235.875.85.164-.85-.164-.233.873 4.354 1.282c.235.069.49.03.696-.107a.915.915 0 0 0 .39-.614l.008-.05c.09-.534.946-5.252 2.992-9.744 1.092-2.403 2.415-4.595 3.637-6.634 1.222-2.041 2.348-3.921 3.031-5.763 1.154-3.132 1.209-6.056 1.21-7.138l-.001-.292v-.084a3.869 3.869 0 0 0-.312-1.451 2.362 2.362 0 0 0-.538-.789 1.566 1.566 0 0 0-1.069-.433 1.637 1.637 0 0 0-1.079.408c-.41.363-.602.804-.736 1.203-.13.403-.189.786-.219 1.087l.86.089-.859-.102c-.305 2.832-1.239 4.611-1.825 6.465l.821.282-.802-.338c-.679 1.784-1.959 3.517-3.409 5.364-1.446 1.849-3.052 3.812-4.31 6.134-2.497 4.631-3.444 10.135-3.458 10.184-.08.46.187.91.617 1.037l.234-.869z"/><path d="M76.706 44.764s2.541-3.349 5.948-4.512c3.407-1.163 6.857-3.36 8.282-4.859 1.425-1.5 2.47-3.126 2.692-4.341.222-1.215.869-1.64 1.354-1.442.454.185.647 1.019.431 2.302-.237 1.401-1.866 4.703-3.021 5.914-3.356 3.517-6.296 4.001-8.466 5.589-2.17 1.588-4.743 3.853-5.527 5.073l-1.693-3.724z"/><path d="M76.706 44.764l.676.565.003-.004c.054-.07.685-.878 1.684-1.788.998-.912 2.367-1.918 3.851-2.422 1.774-.606 3.533-1.469 5.047-2.379 1.515-.914 2.774-1.858 3.58-2.702.748-.788 1.4-1.611 1.907-2.42.505-.812.873-1.601 1.021-2.391.071-.395.195-.619.269-.706l.059-.057-.059-.122v.133l.059-.011-.059-.122v.133-.223l-.077.208.077.015v-.223l-.077.208.102-.275-.211.2.109.075.102-.275-.211.2.071-.067-.079.056.009.011.071-.067-.079.056s.026.046.048.146c.022.1.039.248.039.434 0 .219-.023.491-.076.804-.039.239-.168.673-.359 1.161a19.874 19.874 0 0 1-1.154 2.416c-.443.791-.928 1.502-1.268 1.853-1.604 1.679-3.077 2.614-4.458 3.351-1.378.738-2.685 1.258-3.892 2.136a43.158 43.158 0 0 0-3.353 2.732c-.519.471-.997.931-1.404 1.363-.408.434-.743.83-.991 1.215l.717.507.78-.39-1.693-3.723-.781.389.676.565-.676-.565-.78.39 1.693 3.723c.134.295.406.49.716.514a.849.849 0 0 0 .781-.398c.143-.225.423-.569.787-.953 1.094-1.162 2.931-2.723 4.518-3.883.963-.711 2.211-1.226 3.685-2.006 1.471-.782 3.146-1.847 4.897-3.685.354-.372.694-.843 1.034-1.376a21.455 21.455 0 0 0 1.402-2.624c.399-.896.705-1.711.825-2.396.068-.401.102-.774.102-1.121-.002-.45-.054-.858-.202-1.24a1.87 1.87 0 0 0-.321-.544 1.44 1.44 0 0 0-1.098-.508c-.516-.001-.985.277-1.308.673-.328.4-.543.921-.659 1.551-.074.425-.339 1.057-.768 1.737a13.852 13.852 0 0 1-1.687 2.135c-.619.655-1.798 1.559-3.216 2.409-1.42.854-3.089 1.671-4.722 2.228-1.875.643-3.439 1.844-4.556 2.874-1.115 1.033-1.778 1.906-1.801 1.935a.944.944 0 0 0-.104.955l.782-.39z"/><path d="M83.901 42.892s10.564-1.931 16.315-6.885c5.751-4.954 6.549-11.871 4.22-18.962-.434-1.065-.888-1.768-.378-2.36s1.305.373 1.702.842c.397.47 6.497 7.265.85 19.546-3.151 7.107-14.05 10.109-18.5 11S77.631 49.38 77.177 54.51l-4.666-.685 2.22-8.285 9.17-2.648z"/><path d="M83.901 42.892l.148.893c.025-.005 2.697-.493 6.111-1.613 3.415-1.125 7.571-2.859 10.605-5.465 1.992-1.715 3.44-3.68 4.381-5.811.942-2.131 1.375-4.42 1.374-6.772 0-2.413-.452-4.894-1.267-7.375l-.022-.061c-.16-.391-.312-.718-.409-.966-.101-.248-.13-.412-.125-.437v-.004l-.079-.014.071.037.007-.023-.079-.014.071.037-.014-.007.013.009.001-.002-.014-.007.013.009.011-.014-.229-.217.127.292.102-.074-.229-.217.127.292-.163-.375v.413l.163-.038-.163-.375v.413-.247l-.067.238.067.008v-.247l-.067.238.001.001c.026.006.177.108.32.255.147.146.298.324.426.476.044.052.105.122.204.244.674.842 2.813 3.818 2.814 8.801-.001 2.601-.581 5.767-2.299 9.505l-.005.012c-.716 1.616-1.892 3.036-3.352 4.267-4.374 3.71-11.26 5.58-14.526 6.224-2.295.462-4.995 1.304-7.253 2.745-1.128.722-2.148 1.598-2.932 2.676a7.554 7.554 0 0 0-1.447 3.823l.861.084.12-.898-3.686-.541 1.82-6.792 8.699-2.512-.23-.874.148.893-.148-.893-.229-.874-9.169 2.648a.886.886 0 0 0-.603.629l-2.22 8.285a.942.942 0 0 0 .109.742c.137.22.356.366.604.402l4.666.685a.827.827 0 0 0 .656-.187.917.917 0 0 0 .324-.627c.099-1.103.487-2.042 1.101-2.892.919-1.271 2.379-2.311 4.033-3.095 1.652-.787 3.484-1.321 5.1-1.644 2.272-.456 6.161-1.44 9.932-3.234 1.885-.898 3.743-2 5.353-3.358 1.609-1.358 2.976-2.978 3.836-4.916l-.784-.383.779.394c1.819-3.955 2.471-7.406 2.471-10.293.001-3.166-.782-5.643-1.607-7.366a14.064 14.064 0 0 0-1.176-2.022 12.715 12.715 0 0 0-.438-.584c-.116-.144-.207-.248-.231-.277-.154-.181-.389-.468-.686-.737a2.852 2.852 0 0 0-.521-.382 1.58 1.58 0 0 0-.766-.215 1.28 1.28 0 0 0-.555.126c-.18.086-.338.215-.463.36a1.833 1.833 0 0 0-.449 1.208c.004.445.129.796.256 1.128.131.331.28.649.418.988l.795-.356-.817.296c.764 2.325 1.173 4.61 1.173 6.784-.001 2.122-.387 4.136-1.214 6.009-.828 1.873-2.1 3.612-3.91 5.172-2.717 2.348-6.719 4.056-10.024 5.136a53.742 53.742 0 0 1-4.195 1.187 44.649 44.649 0 0 1-1.586.349l-.111.021-.081.019.229.874z"/><path d="M107.443 30.172s3.727-3.129 4.86-11.572c1.13-8.426-1.794-12.605-2.156-13.633s.119-1.754.398-1.798c.722-.115 1.159.829 1.722 1.804 1.512 2.616 2.851 6.172 3.096 8.677.513 5.235.104 16.471-12.232 25.911l4.312-9.389z"/><path d="M107.443 30.172l.54.708c.131-.101 4.015-3.461 5.176-12.154a28.95 28.95 0 0 0 .267-3.857c.001-3.09-.55-5.464-1.146-7.172a19.954 19.954 0 0 0-.855-2.063c-.124-.26-.234-.479-.317-.651a3.824 3.824 0 0 1-.15-.331 1.236 1.236 0 0 1-.076-.407.627.627 0 0 1 .063-.298l.009-.014-.165-.142.119.182.045-.04-.165-.142.119.182-.318-.485.083.577a.526.526 0 0 0 .234-.092l-.318-.485.083.577-.011-.079v.08l.011-.001-.011-.079v.08-.128l-.039.122.039.006v-.128l-.039.122.013-.041-.018.039.005.002.013-.041-.018.039.097.085c.186.185.477.71.812 1.3a27.27 27.27 0 0 1 1.954 4.232c.536 1.475.912 2.936 1.021 4.068.073.747.127 1.621.127 2.596 0 2.814-.446 6.471-2.161 10.402-1.717 3.93-4.701 8.147-9.847 12.088l.509.733.779.394 4.311-9.389-.775-.395.54.708-.54-.708-.779-.394-4.311 9.389c-.172.375-.079.824.225 1.09s.742.281 1.063.036c5.366-4.105 8.564-8.585 10.4-12.798a27.83 27.83 0 0 0 2.318-11.157c0-1.046-.058-1.982-.136-2.782-.136-1.374-.553-2.944-1.125-4.527a29.123 29.123 0 0 0-2.092-4.528c-.257-.44-.497-.911-.816-1.341a2.706 2.706 0 0 0-.595-.601 1.617 1.617 0 0 0-.933-.308c-.083 0-.166.007-.248.02-.282.05-.456.174-.602.3-.214.195-.365.43-.48.71a2.57 2.57 0 0 0-.18.963c0 .326.057.678.183 1.035.065.183.141.339.232.527.312.643.829 1.633 1.287 3.118.455 1.481.842 3.437.842 5.944 0 1.094-.074 2.294-.25 3.604-.551 4.101-1.722 6.869-2.736 8.605a12.458 12.458 0 0 1-1.309 1.864c-.167.193-.3.33-.387.416l-.095.09-.019.017-.002.002.306.394-.303-.397-.003.003.306.394-.303-.397a.877.877 0 0 0-.239.315l.781.394z"/></g><g><g><ellipse cx="46.936" cy="75.42" rx="4.244" ry="4.859" fill="#ffc148"/><ellipse cx="46.936" cy="75.42" rx="3.169" ry="3.629" fill="#2f2f2f"/><ellipse cx="45.632" cy="74.94" rx=".644" ry=".738" fill="#fff"/></g><path d="M55.612 77.385c.96-.431-1.36-6.932-3.922-9.262-.529-.481-1.341-1.092-1.772-.224-.128.258-.035 1.342-.326 1.44-.358.12-1.341-1.483-1.512-1.696-.779-.974-1.629-1.993-2.704-2.654-1.31-.805-2.217-.024-1.871 1.906.26 1.262-3.5-1.883-4.905-1.273-1.514.658.044 2.934.944 3.509 4.999 3.196 6.776 1.736 11.274 6.079 1.505 1.453 2.886 2.903 4.794 2.175" fill="#fff"/><g><ellipse cx="81.064" cy="75.42" rx="4.244" ry="4.859" fill="#ffc148"/><ellipse cx="81.064" cy="75.42" rx="3.169" ry="3.629" fill="#2f2f2f"/><ellipse cx="82.368" cy="74.94" rx=".644" ry=".738" fill="#fff"/></g><path d="M72.388 77.385c-.96-.431 1.36-6.932 3.922-9.262.529-.481 1.341-1.092 1.772-.224.128.258.035 1.342.326 1.44.358.12 1.341-1.483 1.512-1.696.779-.974 1.629-1.993 2.704-2.654 1.31-.805 2.217-.024 1.871 1.906-.26 1.262 3.5-1.883 4.905-1.273 1.514.658-.044 2.934-.944 3.509-4.999 3.196-6.776 1.736-11.274 6.079-1.505 1.453-2.886 2.903-4.794 2.175" fill="#fff"/><g fill="#885c52"><g><path d="M43.121 56.151c-6.323.744-8.428-5.169-13.51-7.666-6.156-3.025-13.958-3.013-20.489-1.497-3.07.477 2.44 17.202 9.999 20.88 4.148 2.018 8.733 1.299 13.155 1.044 3.895-.225 7.268.396 10.865 1.874"/><path d="M13.075 50.512c1.883-1.306 7.455 2.451 11.848 5.729 2.121 1.582 5.344 3.313 7.8 4.317 2.638 1.078 4.62 1.492 4.592 4.827-.12 2.461-11.267-.722-15.559-2.722-5.387-2.511-9.808-10.709-8.681-12.151z"/></g><g><path d="M84.879 56.151c6.323.744 8.428-5.169 13.51-7.666 6.156-3.025 13.958-3.013 20.489-1.497 3.07.477-2.44 17.202-9.999 20.88-4.148 2.018-8.733 1.299-13.155 1.044-3.895-.225-7.268.396-10.865 1.874"/><path d="M114.925 50.512c-1.883-1.306-7.455 2.451-11.848 5.729-2.121 1.582-5.344 3.313-7.8 4.317-2.638 1.078-4.62 1.492-4.592 4.827.12 2.461 11.267-.722 15.559-2.722 5.387-2.511 9.808-10.709 8.681-12.151z"/></g></g><path d="M47.025 112.918c3.603 7.843 10.08 11.966 16.976 11.966 6.894 0 13.374-4.123 16.976-11.966 2.103-4.577 7.481-8.169 8.252-16.972v.035c.282-4.811 1.598-15.437 4.115-19.684 2.461-4.153 4.396-11.741.08-17.46-3.19-4.227-7.264-6.505-12.59-8.554-3.671-1.412-12.88-2.25-16.835-2.213-3.954-.037-13.164.801-16.835 2.213-5.326 2.049-9.4 4.326-12.59 8.554-4.316 5.72-2.381 13.307.08 17.46 2.522 4.256 3.839 14.891 4.117 19.714l.001-.066c.772 8.804 6.15 12.396 8.253 16.973z" fill="#885c52"/><path d="M64 108.777l-10.569-.792c.891 2.871 2.194 4.139 3.961 5.64 1.285 1.091 3.54 2.279 6.608 2.279 3.242 0 5.323-1.188 6.608-2.279 1.767-1.501 3.071-2.769 3.961-5.64L64 108.777z" fill="#fff"/><path d="M64.052 109.018c-.034.374-.069.374-.103 0-.679.037-5.223-.483-7.095.044 1.068.412 1.493.894 2.362 1.512 2.592 1.842 7.123 1.842 9.569 0 .852-.641 1.294-1.1 2.362-1.512-1.872-.527-6.416-.007-7.095-.044z" fill="#d1d3d4"/><path d="M75.955 95.978c-4.481-3.985-5.968-7.146-11.955-7.146-5.641 0-7.473 3.161-11.955 7.146-3.365 2.992-3.265 10.86 2.312 12.911 2.988 1.099 6.517.865 9.643.71 3.126.155 6.655.389 9.643-.71 5.577-2.051 5.677-9.918 2.312-12.911z" fill="#fff"/><path d="M71.848 101.982c-2.993 4.702-3.517 6.003-7.855 6.003s-4.972-1.355-7.855-6.003c-1.748-2.818 0-6.003 7.855-6.003s9.635 3.206 7.855 6.003z" fill="#2f2f2f"/><g><g><ellipse transform="rotate(61.038 49.278 75.273)" cx="49.275" cy="75.269" rx="8.616" ry="5.687" fill="#fff"/><ellipse transform="rotate(61.038 50.61 75.988)" cx="50.607" cy="75.984" rx="3.875" ry="3.4" fill="#2f2f2f"/></g><g><ellipse transform="scale(-1) rotate(-61.038 -127.689 133.553)" cx="78.725" cy="75.269" rx="8.616" ry="5.687" fill="#fff"/><ellipse transform="scale(-1) rotate(-61.038 -128.902 131.293)" cx="77.393" cy="75.984" rx="3.875" ry="3.4" fill="#2f2f2f"/></g></g></g></g></svg>