<svg id="Layer_1" xmlns="http://www.w3.org/2000/svg" viewBox="0 0 128 128"><g id="XMLID_12_"><path id="XMLID_308_" d="M85.485 85.554c-1.647 0-5.137-.971-5.149-2.621-.012-1.65 3.47-3.856 5.123-3.87.164-.003 3.945 2.631 10.714-1.356 1.419-.84 3.672-.661 4.514.766.84 1.425-.328 3.496-1.753 4.336-8.285 4.883-13.113 2.746-13.432 2.746l-.017-.001z" fill="#875a3b"/><path id="XMLID_332_" d="M105.921 85.733c-5.324 0-9.573-3.399-10.229-3.872-1.337-.968.562-1.924 1.528-3.263.965-1.346 2.091-1.376 3.431-.408 1.907 1.372 4.76 1.783 7.326 1.669 1.618-.056 1.276 1.03 1.379 2.68s-1.153 3.072-2.806 3.174c-.208.012-.419.02-.629.02z" fill="#875a3b"/><path id="XMLID_339_" d="M114.157 96.75c-.705 0-2.322-.589-2.89-1.093-5.248-4.625-5.581-12.17-5.599-12.524-.082-1.653.499-2.941 2.152-3.025 1.668-.102 2.763.616 2.847 2.263.094 1.726 1.99 7.602 4.758 10.044 1.24 1.094 2.397 1.974 1.656 3.454-.399.801-2.096.881-2.924.881z" fill="#875a3b"/><path id="XMLID_320_" d="M92.035 77.585a2.99 2.99 0 0 1-2.925-2.37 2.996 2.996 0 0 1 2.279-3.552c.111-.026 3.584-.889 10.517-4.976a2.995 2.995 0 1 1 3.043 5.161c-7.878 4.646-11.857 5.579-12.284 5.67a2.954 2.954 0 0 1-.63.067z" fill="#875a3b"/><path id="XMLID_318_" d="M115.679 75.644c-5.281 0-12.811-3.269-13.682-3.743a2.995 2.995 0 1 1 2.859-5.266c2.838 1.539 7.671 4.009 10.295 3.843 1.752-.035 3.178.838 3.278 2.488.101 1.652-1.1 2.578-2.75 2.678-.193.011.199 0 0 0z" fill="#875a3b"/><path id="XMLID_297_" d="M96.596 66.269c-1.366 0-2.498-.429-2.542-1.806-.041-1.293.886-2.062 2.133-2.267.272-.082 1.978-.503 7.258-3.616 1.214-.714 2.776-.225 3.487.983.714 1.211.31 2.158-.901 2.871-7.442 4.388-8.879 3.834-9.35 3.834l-.085.001z" fill="#875a3b"/><path id="XMLID_337_" d="M114.012 64.786c-4.312 0-9.645-1.316-9.888-1.375a2.549 2.549 0 0 1-1.858-3.086 2.552 2.552 0 0 1 3.086-1.858c.056.015 5.816 1.439 9.464 1.202 1.328-.111 2.61.983 2.7 2.384a2.549 2.549 0 0 1-2.384 2.7c-.363.021-.737.033-1.12.033z" fill="#875a3b"/><path id="XMLID_336_" d="M21.365 71.414s-5.714.381-7.829 2.567c-2.115 2.186-2.81 5.131-1.105 6.519 1.704 1.388 7.807 5.109 10.388 4.635s3.987-2.825 4.781-4.946c.794-2.122.561-5.856-.749-7.035-1.31-1.179-3.951-1.762-5.486-1.74z" fill="#875a3b"/><path id="XMLID_335_" d="M25.562 70.714l6.77-.488c2.474-.178 4.009 2.926 2.543 5.141l-.489.739a2.968 2.968 0 0 1-1.359 1.128l-5.32 2.137c-1.44.578-3.038-.174-3.661-1.724l-.961-2.389c-.827-2.056.449-4.397 2.477-4.544z" fill="#875a3b"/><path id="XMLID_334_" d="M92.832 87.358s6.506.801 8.753 3.209 2.808 5.497.749 6.808c-2.06 1.311-9.334 4.716-12.25 4.043-2.916-.673-4.337-3.201-5.078-5.447-.74-2.247-.179-6.085 1.413-7.208s4.659-1.538 6.413-1.405z" fill="#875a3b"/><path id="XMLID_333_" d="M89.332 84.837l-6.55-.426c-2.394-.156-3.879 2.555-2.461 4.489l.473.645a2.83 2.83 0 0 0 1.315.985l5.148 1.866a2.823 2.823 0 0 0 3.542-1.506l.929-2.086c.8-1.795-.434-3.839-2.396-3.967z" fill="#875a3b"/><path id="XMLID_331_" d="M21.186 78.778c-1.049-.544-6.344-3.294-11.459-.447-3.331 1.853-4.833 5.103-5.507 6.561-2.967 6.419-1.24 12.874-.632 15.144 1.111 4.152 2.983 6.878 4.056 8.411 3.04 4.343 6.305 6.352 7.307 6.949 2.501 1.49 5.16 2.029 5.753 1.08.466-.746-.488-1.399-1.957-5.42-.816-2.232-1.395-3.816-1.188-5.835.284-2.776 1.72-3.113 2.234-6.289.482-2.972-.037-4.189.463-4.422.614-.285 2.262.869 3.185 3.972.645 2.168 1.048 4.239.947 7.325-.236 7.26.312 6.584.939 6.759.898.251 1.914-.942 3.08-5.145.302-1.087.627-2.281.881-3.755a31.51 31.51 0 0 0 .405-3.744c.228-4.156.343-6.234-.151-8.832-.295-1.556-.986-4.99-3.516-8.221-1.992-2.54-4.17-3.743-4.84-4.091z" fill="#875a3b"/><path id="XMLID_330_" d="M95.489 91.533c1.21.167 7.32 1.009 10.335 6.163 1.963 3.355 1.582 6.773 1.41 8.306-.754 6.75-5.664 10.86-7.391 12.305-3.158 2.643-6.239 3.73-7.989 4.329-4.959 1.697-8.891 1.426-10.087 1.327-2.986-.247-4.988-1.245-5.012-2.331-.019-.854.539-.915 3.944-3.25 1.89-1.297 3.232-2.217 4.11-3.927 1.206-2.351.118-3.433 1.331-6.231 1.135-2.618 1.928-3.35 1.609-3.817-.392-.574-2.146-.535-4.589 1.389-1.706 1.343-3.148 2.748-4.679 5.24-3.602 5.861-3.511 4.773-4.156 4.555-.923-.313-1.412-1.589-.233-5.566.305-1.029.644-2.156 1.194-3.463a26.812 26.812 0 0 1 1.608-3.183c1.98-3.408 2.969-5.112 4.768-6.881 1.077-1.059 3.488-3.375 7.413-4.486 3.089-.876 5.64-.586 6.414-.479z" fill="#875a3b"/><path id="XMLID_328_" d="M35.445 86.312c-1.009 3.503-1.975 10.49 4.029 15.627 1.246 1.066 3.1-.159 2.762-1.763-.558-2.651-.552-5.907 1.81-8.116.805-.753.816-2.012-.093-2.636l-5.866-4.029c-.965-.665-2.317-.211-2.642.917z" fill="#855c52"/><path id="XMLID_325_" d="M56.738 93.676c.586 2.328 1.414 7.623-2.073 10.73a.988.988 0 0 0 .743 1.742c4.751-.369 12.875-2.607 17.178-13.006.279-.673-.275-1.416-1.018-1.379l-13.874.692c-.643.032-1.11.612-.956 1.221z" fill="#855c52"/><path id="XMLID_367_" d="M96.159 68.986c.536-1.431.984-2.732 1.37-3.87l.022-.064c.129-.382.265-.804.397-1.202.241-.589.481-1.176.419-1.261l-.002-.002c.677-2.11 1.358-4.439 1.924-7.029.458-2.099-.285-4.319-1.921-5.396a70.602 70.602 0 0 0-1.276-.815c-3.294-2.061-14.775-5.592-19.301-6.012-1.291-.266-1.734.407-2.358 1.103-.383.477-.783.929-1.2 1.352-.806.818-1.575 1.432-2.389 1.919-2.858 1.709-5.34 2.591-7.964 3.217" fill="#855c52"/><path id="XMLID_355_" d="M96.304 75.168c-.659 1.647-1.762 2.914-3.775 5.528-2.365 3.072-4.301 5.579-7.494 8.064-10.98 8.546-17.968 9.304-26.723 9.304s-18.741-3.378-23.285-9.355c-3.109-4.091-3.721-9.482-3.71-10.641.071-7.161 3.216-11.846 6.233-14.852a38.385 38.385 0 0 1 9.052-6.699c5.618-2.996 10.501-4.194 13.564-4.876 1.678-.374 3.122-.695 5.005-.887 10.582-1.082 19.198 3.521 22.343 5.422 2.108 1.274 5.1 3.355 8.238 6.613 2.474 6.549 1.206 10.743.552 12.379z" fill="#855c52"/><path id="XMLID_368_" d="M66.243 12.201c.564-1.145 1.531-3.106 1.209-4.211-.284-.975.153-.394-.597-.45-1.347-.1-.911-1.131-7.052-.855-3.965.178-8.769 2.01-11.952 4.631-3.183 2.621-5.022 6.745-5.399 12.014-.406 5.679 2.953 8.485 1.373 8.987-9.346 2.973-11.165 8.32-9.659 14.532 1.256 5.184 6.067 8.214 7.389 7.491.936-.513-2.257-3.445-.615-4.793.408-.335 5.744 2.112 9.95-.671 1.049-.694 3.704-2.349 4.708-5.02.879-2.338.222-5.708-.257-6.529-1.641-2.812-3.312-2.585-3.887-4.624-.116-.41-2.175-6.174-1.168-9.591.813-2.759 2.965-5.211 5.773-6.522 4.229-1.974 8.448-1.6 9.611-1.56.414.014.741-1.219 1.123-1.186 1.851.159-1.522 2.021-1.203.31a7.494 7.494 0 0 1 .653-1.953z" fill="#855c52"/><path id="XMLID_338_" d="M120.2 86.189c-4.798-4.227-7.189-11.246-7.347-11.6a2.994 2.994 0 0 1 1.521-3.949c1.512-.67 3.064.784 3.736 2.29.922 2.071 4.227 7.288 7.389 10.076 1.24 1.094 2.071 3.54.266 4.227-1.804.687-4.994-.541-5.565-1.044z" fill="#875a3b"/><path id="XMLID_340_" d="M119.979 70.745c-.6 0-1.77-.806-2.256-1.234-4.379-3.865-4.371-6.206-4.459-6.574-.331-1.366-.256-2.87 1.113-3.201 1.334-.331 2.709.489 3.06 1.831.038.123 1.308 3.411 4.374 6.111 1.053.93.98 1.874.035 2.643-.589.481-1.162.424-1.867.424z" fill="#875a3b"/><path id="XMLID_324_" d="M40.883 69.945a2.272 2.272 0 0 0-2.862 1.299c-.608 1.534-1.205 3.884-.723 6.569.468 2.61 3.098 6.076 6.452 8.087 1.3.78 2.996.013 3.334-1.44.491-2.113.868-5.272-.02-8.569-.914-3.393-3.543-5.02-6.181-5.946z" fill="#2f2f2f"/><path id="XMLID_323_" d="M72.826 70.51c1.611-.185 3.146.804 3.488 2.208.469 1.925.747 4.792-.468 7.781-1.181 2.906-5.395 6.27-10.247 7.772-1.881.582-3.949-.723-4.079-2.488-.19-2.566-.003-6.315 1.88-9.913 1.937-3.701 5.75-4.937 9.426-5.36z" fill="#2f2f2f"/><path id="XMLID_358_" d="M78.747 52.245c-1.741-.489-2.507-2.688-1.499-4.301.896-1.434 1.837-3.109 2.34-4.515 1.141-3.196.752-4.254 2.564-5.941s11.113-2.437 14.209-1.709c2.936.69 4.103 3.027 4.293 4.882.158 1.54-.964 9.029-2.111 14.171-.343 1.538-1.778 2.47-3.191 2.073l-16.605-4.66z" fill="#855c52"/><path id="XMLID_359_" d="M82.486 28.554l10.501-4.758c2.02-.769 4.18.692 4.387 2.967l-.291 11.356c.17 1.869-1.072 3.549-2.817 3.813l-7.379 1.113c-1.585.239-3.101-.77-3.595-2.392l-2.831-7.711c-.55-1.806.347-3.75 2.025-4.388z" fill="#855c52"/><path id="XMLID_360_" d="M83.517 30.907l-6.037-6.25c-.986-1.021-1.04-2.741-.12-3.822l7.051-8.28s3.039-3.018 5.505.103c1.247 1.578 3.437 8.979 4.272 12.369a3.125 3.125 0 0 1-1.721 3.582l-6.061 2.832a2.528 2.528 0 0 1-2.889-.534z" fill="#855c52"/><path id="XMLID_363_" d="M73.346 19.087a3.67 3.67 0 0 1-2.318-3.963c.233-1.597.534-3.619.822-5.435.411-2.588 3.284-3.962 5.56-2.662l6.592 5.257a3.748 3.748 0 0 1 .791 5.904l-2.614 2.614a3.741 3.741 0 0 1-3.873.893c-2.352-.817-2.419-1.63-4.96-2.608z" fill="#855c52"/><path id="XMLID_354_" d="M71.92 7.006l-4.624-1.187c-2.19-.562-4.277 1.286-4.221 3.74l.085 3.752c.048 2.111 1.684 3.762 3.617 3.65l4.923-.285c2.07-.12 3.572-2.196 3.197-4.42l-.385-2.281c-.247-1.463-1.264-2.628-2.592-2.969z" fill="#855c52"/><circle id="XMLID_298_" cx="39.858" cy="74.845" r="1.774" fill="#939090"/><circle id="XMLID_370_" cx="67.641" cy="76.715" r="1.774" fill="#939090"/><path id="XMLID_15_" d="M94.675 54.677c-.261 0-.525-.067-.766-.209-9.512-5.588-15.748-4.579-15.81-4.568a1.516 1.516 0 0 1-.523-2.985c.297-.051 7.406-1.206 17.868 4.94a1.515 1.515 0 0 1-.769 2.822z" fill="#b89278"/><path id="XMLID_16_" d="M84.579 41.923a1.515 1.515 0 0 1-.748-2.833c.235-.133 5.818-3.226 12.056-1.666a1.514 1.514 0 1 1-.735 2.939c-5.041-1.26-9.787 1.341-9.834 1.367-.235.13-.489.193-.739.193z" fill="#b89278"/><path id="XMLID_17_" d="M84.659 33.422a1.515 1.515 0 0 1-1.179-2.466c.209-.258 5.187-6.324 11.289-5.256a1.515 1.515 0 1 1-.521 2.985c-4.307-.757-8.369 4.123-8.409 4.173a1.512 1.512 0 0 1-1.18.564z" fill="#b89278"/><path id="XMLID_13_" d="M80.965 24.395a1.514 1.514 0 0 1-1.433-2.006c.083-.241 2.085-5.945 6.991-8.722a1.515 1.515 0 1 1 1.493 2.637c-3.888 2.201-5.601 7.023-5.618 7.071a1.518 1.518 0 0 1-1.433 1.02z" fill="#b89278"/><path id="XMLID_18_" d="M74.558 17.681a1.515 1.515 0 0 1-1.425-1.002c-.071-.196-1.696-4.845 1.367-8.182a1.516 1.516 0 0 1 2.233 2.049c-1.807 1.97-.759 5.075-.748 5.106a1.515 1.515 0 0 1-1.427 2.029z" fill="#b89278"/></g></svg>