<svg id="レイヤー_1" xmlns="http://www.w3.org/2000/svg" viewBox="0 0 128 128"><g fill="#fe9040"><path d="M56.046 97.433c-.479 1.975-.663 2.513-1.208 4.472-.374 1.344-.742 2.788-1.474 3.991-1.239 2.037-3.618 1.658-5.682 1.516-3.448-.238-6.876-.738-10.318-.33-.515.061-3.899.537-3.899 1.745 0 .873 1.653 1.003 2.247 1.167 1.191.329 3.263.276 3.609.843.325.708-.75 1.554-1.588 2.252-.515.429-2.357 1.829-1.96 2.713.416.926 2.599.334 3.271.17 1.201-.294 3.187-1.004 4.127-.735 1.343.503-2.311 3.638-1.51 4.242 1.007.76 3.582-.244 4.33-.717 3.122-1.975 3.994-2.522 5.941-4.33 1.864-1.73 3.815-3.157 5.159-5.363 1.275-2.094 1.217-4.552 1.789-6.855.615-2.476 2.383-7.116 1.444-7.282-1.16-.247-2.92-.532-3.294-.29-.376.244-.602 1.531-.984 2.791z"/><path d="M81.234 98.157c-.108 2.03-.19 2.592-.366 4.618-.121 1.39-.217 2.877-.716 4.194-.844 2.23-3.252 2.295-5.307 2.534-3.433.4-6.895.538-10.203 1.572-.495.155-3.734 1.245-3.512 2.432.16.858 1.809.682 2.423.734 1.231.105 3.258-.329 3.703.165.45.636-.452 1.665-1.147 2.506-.427.516-1.98 2.231-1.428 3.027.579.834 2.616-.149 3.246-.434 1.126-.509 2.948-1.572 3.921-1.481 1.412.248-1.603 4-.705 4.447 1.129.561 3.476-.899 4.124-1.501 2.706-2.515 3.462-3.213 5.044-5.348 1.514-2.043 3.17-3.805 4.085-6.22.869-2.293.36-4.698.499-7.067.15-2.547 1.035-7.433.081-7.423-1.186-.029-2.968.014-3.291.321-.322.309-.308 1.615-.451 2.924z"/></g><g fill="#a7300f"><path d="M60.322 94.933c-1.16-.247-2.92-.532-3.294-.29-.375.243-.601 1.53-.982 2.79l-.107.436c1.01.016 2.02.079 2.869.702.385.282.652.652.775 1.195.689-2.279 1.415-4.714.739-4.833z"/><path d="M83.884 99.198c.51.198.91.659 1.2 1.104.271-2.497.628-5.396-.107-5.389-1.186-.029-2.968.014-3.291.321-.323.308-.309 1.614-.453 2.923-.016.296-.031.555-.046.798.996-.069 2.077.003 2.697.243z"/></g><path d="M49.561 41.815c1.334-6.671 8.401-18.325 8.491-26.443.058-5.21-6.307-14.919-17.467-9.946-11.159 4.973-7.278 16.618-7.278 16.618 2.196 5.78 6.279 5.821 8.279 6.03 1.996.208.75 1.917-.638 3.067-2.759 2.299-5.369 4.708-7.74 7.206 3.623.672 9.897 2.033 16.201 4.324.047-.278.091-.554.152-.856z" fill="#727f48"/><path d="M14.988 24.892s3.075 1.509 7.044 1.789 7.88-.242 12.578 0c1.565.081 2.584.404 2.907-1.453.224-1.286.559-1.733 0-2.851l-22.529 2.515z" fill="#ffc148"/><g><circle cx="42.966" cy="14.264" r="3.943" fill="#fff"/><circle cx="42.966" cy="14.264" r="2.657" fill="#333"/><circle cx="42.494" cy="13.621" r=".643" fill="#fff"/></g><path d="M112.514 80.63c-11.887-7.035-24.987-16.254-29.596-19.407-14.92-11.16-25.352-12.373-28.869-12.252-2.264.078-4.019-.156-4.631-2.103-6.236-2.08-15.037-3.703-19.743-4.487-5.075 6.289-8.442 13.056-8.74 20.054-.485 11.402 12.736 32.022 44.273 33.963s45.001-8.369 48.761-11.038c3.76-2.668.243-3.76-1.455-4.73z" fill="#7d7d7d"/><path d="M112.514 80.63c-1.111-.657-7.887-4.881-9.011-5.57-.062.045 4.176 4.673-.428 7.374-.798.468-17.987 8.895-43.711 7.339-14.485-.876-25.162-5.562-32.484-11.484 6.646 8.767 19.065 16.923 38.329 18.108 31.537 1.941 45.001-8.369 48.761-11.038 3.759-2.667.242-3.759-1.456-4.729z" opacity=".6" fill="#7d7d7d"/><path d="M49.41 42.671c-6.304-2.291-12.577-3.652-16.201-4.324a66.738 66.738 0 0 0-3.534 4.034c4.707.784 13.507 2.407 19.743 4.487-.296-.942-.322-2.289-.008-4.197z" fill="#fef3cd"/><path d="M34.229 24.818c1.476.113 2.705-.023 3.23.686.206-.958.654-2.144.058-3.128l-8.225 2.533s3.673-.187 4.937-.091z" fill="#fe9040"/><path d="M34.442 15.612s-1.174-2.795-2.348-.335-4.193 6.988-10.677 6.82c-6.485-.168-8.944-.224-9.056 1.398-.112 1.621 5.087 2.572 9 2.18s11.069-.671 15.653-2.572c2.068-.839 1.733-2.18 1.062-2.795-.671-.615-2.684-2.739-3.634-4.696z" fill="#ffc148"/><path d="M64.073 61.036c-4.452-2.606-13.244-4.415-16.427 1.129-3.183 5.544-2.567 13.963 10.267 19.917 12.833 5.955 26.987 6.259 42.212 5.749 4.25-.331 5.826-2.601 4.859-4.058-.984-1.481-15.553-7.851-22.021-11.855-5.018-3.106-14.681-8.418-18.89-10.882z" fill="#885c52"/><path d="M64.073 58.869c-4.452-2.606-13.244-4.415-16.427 1.129-3.183 5.544-2.567 13.963 10.267 19.917s27.382 5.849 42.606 5.339c3.285.205 6.263-.719 3.491-2.259s-14.579-9.24-21.047-13.244c-5.018-3.106-14.681-8.418-18.89-10.882z" fill="#bb917a"/><path d="M38.778 24.056c-.177.741-.608 1.508-.077 2.217.697.93 3.53.79 4.485.765 4.281-.113 6.941-1.276 9.353-4.224.923-1.128 1.486-2.204 1.158-2.61-.517-.67-2.644 2.559-5.899 3.533-1.361.407-4.319.934-6.304.457-.801-.194-2.46-.949-2.716-.138z" opacity=".6" fill="#727f48"/></svg>