<svg id="レイヤー_1" xmlns="http://www.w3.org/2000/svg" xmlns:xlink="http://www.w3.org/1999/xlink" viewBox="0 0 128 128"><text transform="translate(297.64 420.945)" font-family="AdobeSongStd-Light-GBpc-EUC-H" font-size="12">U+1F91e</text><g id="_x30_BPBkg.tif"/><g id="m4BD7X.tif"/><g><path d="M122.733 71.14c-2.17-2.295-4.579-3.581-6.253-4.264-.886-.361 1.936-.189 4.061-1.272a5.107 5.107 0 0 0 1.646-1.354c.512-.633.079-1.591-.734-1.621-.946-.034-2.137-.172-3.146-.584-2.543-1.038-3.3-2.941-3.3-2.941v-.841s5.297-10.16 6.37-25.399c1.073-15.238-4.078-28.545-7.726-30.262-3.649-1.717-11.426-.332-20.248 6.795C86.678 14.83 81.35 21.52 79.994 24.503a.987.987 0 0 1-1.279.506c-1.682-.699-6.494-2.034-14.215-2.143v-.014l-.112.001c-.096 0-.186-.003-.282-.003v.006l-.105.002-.105-.002v-.006c-.097 0-.187.003-.282.003l-.112-.001v.014c-7.721.11-12.533 1.445-14.215 2.143a.988.988 0 0 1-1.279-.506C46.65 21.52 41.322 14.83 34.597 9.397 25.776 2.27 17.998.885 14.349 2.602c-3.649 1.717-8.8 15.024-7.726 30.262 1.073 15.238 6.37 25.399 6.37 25.399v.841s-.757 1.903-3.3 2.941c-1.009.412-2.2.55-3.146.584-.813.029-1.246.988-.734 1.621.396.49.934.991 1.646 1.354 2.125 1.083 4.947.911 4.061 1.272a18.047 18.047 0 0 0-6.253 4.264c-2.157 2.281-3.053 5.872-3.224 8.491a.996.996 0 0 0 1.459.952c1.474-.775 3.873-1.784 6.272-1.717 3.863.108 8.866 6.564 11.226 11.072 2.312 4.414 26.773 29.043 42.5 30.065v.064c.039 0 .081-.006.121-.006.09.002.184.013.274.013v-.027c.035-.001.071-.007.105-.008.035.001.071.007.105.008v.027c.09 0 .184-.012.274-.013.04 0 .081.006.121.006v-.064c15.727-1.022 40.188-25.652 42.5-30.065 2.361-4.507 7.363-10.964 11.227-11.071 2.399-.067 4.798.943 6.272 1.717a.997.997 0 0 0 1.459-.952c-.172-2.62-1.068-6.211-3.225-8.492z" fill="#fe9040"/><path d="M123.804 87.913c-2.916-4.022-7.279-4.331-7.279-4.331.466-.377 1.196-.558 1.884-.641.827-.1 1.222-1.106.624-1.686-1.092-1.06-2.389-1.53-2.874-1.677a.908.908 0 0 1-.361-.216c-12.716-12.158-47.537 17.003-51.367 20.281-.124.106-.336.24-.505.388a3.06 3.06 0 0 0-.395-.388c-3.83-3.278-38.651-32.44-51.367-20.281a.89.89 0 0 1-.361.216c-.484.148-1.781.617-2.874 1.677-.598.58-.203 1.586.624 1.686.688.083 1.417.264 1.884.641 0 0-4.363.31-7.279 4.331-.48.662.027 1.593.845 1.567 1.927-.062 4.878.381 6.815 3.208 3.083 4.5 4.878 9.184 11.764 13.167 7.167 4.146 11.479 4.896 18.833 9.333 6.675 4.028 12.024 10.666 21.271 10.857v.018c.069 0 .132-.008.201-.009.068.001.132.009.2.009v-.018c9.253-.191 14.783-6.829 21.458-10.857 7.354-4.438 11.667-5.188 18.833-9.333 6.885-3.983 8.681-8.667 11.764-13.167 1.937-2.827 4.888-3.269 6.815-3.208.82.026 1.327-.905.847-1.567z" fill="#fe9040"/><path d="M119.565 86.175c-.993-.562-2.233-1.08-3.601-1.238a10.71 10.71 0 0 0-2.706.047c-1.113.157-1.614-1.316-.635-1.869.11-.062.224-.122.341-.178.164-.079.364-.155.588-.229.977-.324.875-1.748-.138-1.931-1.52-.275-3.413-.357-5.45.16-3.041.773-5.449 2.924-6 3-1.341.184-1-1-1-1s.207-.965 1.552-2.098c.751-.632.24-1.853-.737-1.76-2.305.218-5.218.722-7.815 1.858-6.495 2.842-15.572 9.286-22.42 15.889-2.715 2.617-6.043 3.603-7.638 3.944-1.674-.329-4.951-1.281-7.486-3.944C50.019 90.104 40.496 83.779 34 80.938c-2.597-1.136-5.509-1.64-7.815-1.858-.977-.092-1.488 1.128-.737 1.76C26.794 81.972 27 82.938 27 82.938s.341 1.184-1 1c-.551-.076-2.959-2.227-6-3-2.037-.518-3.93-.435-5.45-.16-1.012.183-1.114 1.607-.138 1.931.223.074.424.151.588.229.117.056.231.116.341.178.979.553.478 2.027-.635 1.869A10.617 10.617 0 0 0 12 84.938c-1.368.158-2.608.676-3.601 1.238-.801.453-.611 1.65.288 1.844a7.45 7.45 0 0 1 2.312.919c4.507 2.736 5.169 8.194 10.363 12.465 7.244 5.956 17.706 7.244 27.042 14.809 8.595 6.965 12.515 7.652 15.094 7.718v.001h.026c.213.005.42.008.616.008l.001-.016c2.621-.064 6.814-.741 15.416-7.711 9.336-7.565 19.799-8.853 27.043-14.809 5.194-4.271 5.856-9.728 10.363-12.465a7.474 7.474 0 0 1 2.312-.919c.9-.194 1.09-1.392.29-1.845z" fill="#fafafa"/><path d="M63.999 93.813c-5.236 0-9.345 1.956-8.665 5.105.791 3.663 5.541 6.937 8.801 6.937 3.241 0 7.741-3.04 8.533-6.937.539-2.655-3.068-5.105-8.669-5.105z" fill="#2f2f2f"/><g><g><path d="M91.19 67.103c-.569-1.85-5.298-4.358-10.124-1.082-4.667 3.167-4.319 10.553-3.781 10.889.667.417.941-.85 3.228-1.076 1.549-.153 4.35.907 7.803-1.563 3.028-2.167 3.277-5.858 2.874-7.168z" fill="#2f2f2f"/></g><g><path d="M36.811 67.103c.569-1.85 5.298-4.358 10.124-1.082 4.667 3.167 4.319 10.553 3.781 10.889-.667.417-.941-.85-3.228-1.076-1.549-.153-4.35.907-7.803-1.563-3.028-2.167-3.277-5.858-2.874-7.168z" fill="#2f2f2f"/></g></g><path d="M16.16 7.09c1.84-1.959 9.018.848 17.11 12.848 4.192 6.216 4.744 14.397 4.744 14.397s-1.871-2.796-5.721-2.31c-.338.043-.551.381-.416.693.537 1.239 1.609 4.184.538 5.925 0 0-1.436-3.993-6.362-3.721-.398.022-.624.477-.387.797.824 1.112 2.317 3.455 2.735 6.303 0 0-2.019-.097-3.866-1.954-.311-.313-.843-.131-.865.31-.06 1.199.056 3.042 1.14 4.152 0 0-.808.394-1.778-.105a.503.503 0 0 0-.744.491c.058.598.217 1.366.618 2.073 0 0-.509.232-1.395-.148a.502.502 0 0 0-.694.352c-.103.484-.186 1.154-.019 1.663 0 0-2.221 3.495-4.964 8.083 0 0-5.833-9.333-5.833-26C10 16.438 13.25 10.188 16.16 7.09z" fill="#ffe0b2"/><path d="M111.84 7.09c-1.84-1.959-9.018.848-17.11 12.848-4.192 6.216-4.744 14.397-4.744 14.397s1.871-2.796 5.721-2.31c.338.043.551.381.416.693-.537 1.239-1.609 4.184-.538 5.925 0 0 1.436-3.993 6.362-3.721.398.022.624.477.387.797-.824 1.112-2.317 3.455-2.735 6.303 0 0 2.019-.097 3.866-1.954.311-.313.843-.131.865.31.06 1.199-.056 3.042-1.14 4.152 0 0 .808.394 1.778-.105a.503.503 0 0 1 .744.491c-.058.598-.217 1.366-.618 2.073 0 0 .509.232 1.395-.148a.502.502 0 0 1 .694.352c.103.484.186 1.154.019 1.663 0 0 2.221 3.495 4.964 8.083 0 0 5.833-9.333 5.833-26C118 16.438 114.75 10.188 111.84 7.09z" fill="#ffe0b2"/><path fill="none" stroke="#2f2f2f" stroke-width="3" stroke-miterlimit="10" d="M64.135 110.839v-6.936"/><g><g><path d="M52.96 115.132c1.734.07 6.192.71 11.174-5.064" fill="none" stroke="#2f2f2f" stroke-width="3" stroke-linecap="round" stroke-miterlimit="10"/></g></g><g><g><path d="M75.25 115.132c-1.734.07-6.192.71-11.174-5.064" fill="none" stroke="#2f2f2f" stroke-width="3" stroke-linecap="round" stroke-miterlimit="10"/></g></g><path d="M59.671 115.551s1.895-.781 4.463-.781 4.817.949 4.817.949l-4.817-4.46-4.463 4.292z" fill="#2f2f2f"/><circle cx="43.841" cy="67" r="1" fill="#e1e1e1"/><circle cx="84.16" cy="67" r="1" fill="#e1e1e1"/></g></svg>