<svg id="图层_1" xmlns="http://www.w3.org/2000/svg" viewBox="0 0 128 128"><path d="M49.5 100.625c-1.41.83-6.258 5.387-7.172 6.827-.958 1.509-1.073 3.366-1.029 5.109.137 5.466-.736 13.021-6.127 12.103-4.111-.7-1.796-8.627-1.2-11.317.874-3.942-1.999-2.485-2.762-2.087-2.538 1.325-9.15 7.342-11.538.838-2.205-6.004 6.133-6.611 8.407-7.142 2.399-.56 2.32-2.613.89-3.598-2.729-1.881-8.974-4.516-6.353-9.443 2.247-4.225 8.643.025 10.266 2.692.825 1.357 1.443 3.391 2.753 4.349 1.3.95 2.885.216 4.155-.431.946-.481 1.852-1.046 2.758-1.601 1.727-1.472 2.828-3.553 2.828-6.924 0-3.038-3.531-6.826-5-9.25-2.5-4.125-1.873-7.533-2.889-9.058-.889-1.335-2.801-1.292-4.774-1.858-2.511-.561-3.902-.405-6.002 1.303-1.545 1.257-3.071 2.997-4.066 4.761-1.083 1.921-1.396 4.184-2.543 6.091-1.541 2.562-4.482 4.558-7.423 3.187-2.705-1.261-3.05-4.277-1.382-6.581 1.472-2.033 3.711-2.945 4.911-5.264 1.006-1.946-.582-2.767-2.798-2.193-2.403.622-10.172 3.039-10.172-3.037 0-5.994 7.068-4.516 10.111-3.999 2.277.386 2.357-1.503 1.61-2.469-1.86-2.405-7.56-8.505-4.13-10.811 6.545-4.4 9.659 5.998 10.132 8.725.619 3.567 5.942 4.037 9.15 2.282 3.145-1.94 4.408-5.42 3.168-9.072-1.277-3.761-5.323-7.829-8.848-8.612-10.318-2.293-11.539-12.529-11.228-22.064.167-5.091 2.655-15.882 4.967-17.441 4.314-2.911 12.774-.627 18.392 1.435 7.685 2.82 14.245 7.419 15.353 18.073.444 4.264-2.462 9.131-1.346 13.324 1.018 3.824 4.11 9.546 8.787 5.205 1.312-1.669 4.761-5.883 5.197-8.05.402-1.994-.09-5.393-.882-7.174-1.485-3.342-1.761-10.148 1.913-10.54 6.161-.657 3.695 9.803 3.984 11.32.209 1.1 1.807 2.505 3.514 1.293 2.849-2.021 5.307-8.436 8.839-4.932 4.701 4.665-3.029 8.531-4.564 9.583-2.17 1.487-1.614 3.622.133 3.786 2.261.213 10.276-.53 8.577 5.728-1.489 5.481-7.088 1.724-10.147.067-3.528-1.912-5.291-2.531-8.793.51-.727.631-2.408 3.779-3.137 4.863-1.032 2.012-1.006 4.107 1.132 5.047 1.861.819 3.962 2.292 5.505 3.759 2.914 2.77 4.271 6.062 5.117 8.139 1.121 2.755 2.816 3.725 5.357 3.643 1.966-.145 4.861-1.548 6.476-2.851 1.871-1.51 2.794-3.716 3.274-6.007.626-2.987.757-4.154 1.164-7.182.244-1.814.167-6.847 4.217-6.355 5.293.644 2.153 9.328 1.668 11.086-.318 1.15.556 2.053 2.382 1.724 1.792-.322 8.1-5.994 10.155-.04 1.794 5.199-5.833 5.813-8.636 6.862-1.52.568-2.155 2.293.545 3.36 2.63 1.04 10.058 5.027 5.718 9.279-4.527 4.434-10.07-4.024-12.547-6.487-3.025-3.007-11.949 4.188-13.14 7.39-1.032 4.599 1.147 8.653 3.375 12.875 3.131 5.934 5.295 10.362 10.718 13.485 5.26 3.029 8.984 4.285 14.57 2.625 4.965-1.475 7.007-6.12 6.348-10.665-.43-2.964-3.368-6.577-8.53-4.935-2.657.845-5.231 2.577-6.274 1.396-1.668-1.889 4.129-6.077 8.502-6.969 6.377-1.302 12.86 2.535 13.574 9.433.954 9.212-4.893 18.386-12.706 20.858-11.165 3.532-21.196 1.042-30.058-2.364-5.572-2.142-14.473-6.475-19.177-9.707-2.648-1.817-9.328-7.876-13.219-5.905z" fill="#885c52"/><circle cx="24.283" cy="30.283" r="4.25" fill="#2f2f2f"/><circle cx="41.283" cy="22.634" r="4.25" fill="#2f2f2f"/></svg>