<svg id="Layer_1" xmlns="http://www.w3.org/2000/svg" viewBox="0 0 128 128"><g id="XMLID_40_"><path id="XMLID_39_" d="M97.741 57.933c1.93-.983 4.981-2.847 7.078-5.753.803-1.112.38-2.711-.838-3.283l-.903-.424a2.075 2.075 0 0 0-2.628.752c-1.403 2.152-3.44 3.893-4.848 4.944a2.253 2.253 0 0 0-.626 2.876c.549 1 1.761 1.399 2.765.888z" fill="#d86030"/><path id="XMLID_38_" d="M29.511 62.96l-4.683-4.112a2.392 2.392 0 0 0-2.968 1.906l-.412 2.386a2.391 2.391 0 0 0 2.09 2.783l5.095 1.726a2.392 2.392 0 0 0 2.587-1.795 2.393 2.393 0 0 0-1.709-2.894z" fill="#d86030"/><path id="XMLID_37_" d="M20.984 58.452l-4.759-.946c-1.658.1-2.879 1.59-2.642 3.223l.41 2.816c.233 1.601 1.775 2.67 3.37 2.337l4.204-.646a2.83 2.83 0 0 0 2.253-2.959c-.106-1.534-1.29-3.918-2.836-3.825z" fill="#d86030"/><path id="XMLID_36_" d="M6.641 71.874l2.207-.851c1.484-.685 2.634-1.495 2.938-1.903l4.369-3.716c.452-.607.289-1.803-.113-2.443l-1.388-2.21a1.832 1.832 0 0 0-3.056-.071l-6.993 9.213c-.897 1.292.473 2.153 2.036 1.981z" fill="#d86030"/><path id="XMLID_35_" d="M32.834 72.184l-6.857-2.371a2.392 2.392 0 0 0-2.968 1.906l-.412 2.386a2.391 2.391 0 0 0 2.09 2.783l7.268-.015a2.39 2.39 0 0 0 .879-4.689z" fill="#d86030"/><path id="XMLID_34_" d="M21.987 70.641l-7.22-1.549c-1.658.1-2.879 1.59-2.642 3.223l.41 2.816c.233 1.601 1.775 2.67 3.37 2.337l6.81-1.267a2.83 2.83 0 0 0 2.253-2.959 2.807 2.807 0 0 0-2.981-2.601z" fill="#d86030"/><path id="XMLID_33_" d="M3.715 86.545l2.207-.851c1.484-.685 2.634-1.495 2.938-1.903l5.838-6.801c.452-.607.289-1.803-.113-2.443l-1.388-2.21a1.832 1.832 0 0 0-3.056-.071L1.679 84.565c-.897 1.291.473 2.151 2.036 1.98z" fill="#d86030"/><path id="XMLID_32_" d="M37.18 82.082l-10.105-1.318a2.392 2.392 0 0 0-2.752 2.207l-.159 2.416a2.392 2.392 0 0 0 2.371 2.549l10.264-1.098a2.391 2.391 0 0 0 .381-4.756z" fill="#d86030"/><path id="XMLID_31_" d="M23.195 82.007l-6.059-.157c-1.638.273-2.697 1.884-2.289 3.482l.703 2.758c.4 1.568 2.046 2.469 3.597 1.971l5.356-2.6a2.831 2.831 0 0 0 1.931-3.179 2.809 2.809 0 0 0-3.239-2.275z" fill="#d86030"/><path id="XMLID_30_" d="M8.736 97.519l2.106-1.078c1.404-.837 2.291-1.754 2.551-2.192l4.503-4.539c.386-.651.098-1.823-.369-2.418l-1.612-2.052a1.833 1.833 0 0 0-3.047.25L6.503 95.763c-.756 1.378.697 2.091 2.233 1.756z" fill="#d86030"/><path id="XMLID_29_" d="M42.224 90.051l-12.761.716c-1.835.103-2.824 2.199-1.737 3.681l2.243 3.059a2.316 2.316 0 0 0 2.525.851l10.788-3.199a2.315 2.315 0 0 0 1.437-3.206l-.271-.576a2.313 2.313 0 0 0-2.224-1.326z" fill="#d86030"/><path id="XMLID_28_" d="M28.568 93.271l-3.126.432a2.218 2.218 0 0 0-1.887 1.851l-.715 6.111c-.232 1.468.802 3.448 2.729 3.437l1.336.22a2.218 2.218 0 0 0 1.83-1.569l2.264-7.655c.457-1.546-.834-3.048-2.431-2.827z" fill="#d86030"/><path id="XMLID_27_" d="M25.533 107.099s2.234 3.205 4.935 4.643c2.835 1.51 4.374 1.417 4.578.822.329-.957-2.872-3.082-4.574-5.315-1.703-2.233-2.731-4.082-2.731-4.082a1.208 1.208 0 0 0-1.387-.278 2.634 2.634 0 0 0-.821 4.21z" fill="#d86030"/><path id="XMLID_26_" d="M98.227 62.96l4.683-4.112a2.392 2.392 0 0 1 2.968 1.906l.412 2.386a2.391 2.391 0 0 1-2.09 2.783l-5.095 1.726a2.392 2.392 0 0 1-2.587-1.795 2.393 2.393 0 0 1 1.709-2.894z" fill="#d86030"/><path id="XMLID_25_" d="M106.754 58.452l4.759-.946c1.658.1 2.879 1.59 2.642 3.223l-.41 2.816c-.233 1.601-1.775 2.67-3.37 2.337l-4.204-.646a2.83 2.83 0 0 1-2.253-2.959c.106-1.534 1.29-3.918 2.836-3.825z" fill="#d86030"/><path id="XMLID_24_" d="M121.097 71.874l-2.207-.851c-1.484-.685-2.634-1.495-2.938-1.903l-4.369-3.716c-.452-.607-.289-1.803.113-2.443l1.388-2.21a1.832 1.832 0 0 1 3.056-.071l6.993 9.213c.897 1.292-.473 2.153-2.036 1.981z" fill="#d86030"/><path id="XMLID_23_" d="M94.904 72.184l6.857-2.371a2.392 2.392 0 0 1 2.968 1.906l.412 2.386a2.391 2.391 0 0 1-2.09 2.783l-7.268-.015a2.39 2.39 0 0 1-.879-4.689z" fill="#d86030"/><path id="XMLID_22_" d="M105.75 70.641l7.22-1.549c1.658.1 2.879 1.59 2.642 3.223l-.41 2.816c-.233 1.601-1.775 2.67-3.37 2.337l-6.81-1.267a2.83 2.83 0 0 1-2.253-2.959 2.808 2.808 0 0 1 2.981-2.601z" fill="#d86030"/><path id="XMLID_21_" d="M124.023 86.545l-2.207-.851c-1.484-.685-2.634-1.495-2.938-1.903l-5.838-6.801c-.452-.607-.289-1.803.113-2.443l1.388-2.21a1.832 1.832 0 0 1 3.056-.071l8.462 12.298c.897 1.292-.474 2.152-2.036 1.981z" fill="#d86030"/><path id="XMLID_20_" d="M90.558 82.082l10.105-1.318a2.392 2.392 0 0 1 2.752 2.207l.159 2.416a2.392 2.392 0 0 1-2.371 2.549l-10.264-1.098a2.391 2.391 0 0 1-.381-4.756z" fill="#d86030"/><path id="XMLID_19_" d="M104.543 82.007l6.059-.157c1.638.273 2.697 1.884 2.289 3.482l-.703 2.758c-.4 1.568-2.046 2.469-3.597 1.971l-5.356-2.6a2.831 2.831 0 0 1-1.931-3.179 2.809 2.809 0 0 1 3.239-2.275z" fill="#d86030"/><path id="XMLID_18_" d="M119.002 97.519l-2.106-1.078c-1.404-.837-2.291-1.754-2.551-2.192l-4.503-4.539c-.386-.651-.098-1.823.369-2.418l1.612-2.052a1.833 1.833 0 0 1 3.047.25l6.365 10.272c.756 1.379-.697 2.092-2.233 1.757z" fill="#d86030"/><path id="XMLID_17_" d="M85.514 90.051l12.761.716c1.835.103 2.824 2.199 1.737 3.681l-2.243 3.059a2.316 2.316 0 0 1-2.525.851l-10.788-3.199a2.315 2.315 0 0 1-1.437-3.206l.271-.576a2.312 2.312 0 0 1 2.224-1.326z" fill="#d86030"/><path id="XMLID_16_" d="M99.17 93.271l3.126.432a2.218 2.218 0 0 1 1.887 1.851l.715 6.111c.232 1.468-.802 3.448-2.729 3.437l-1.336.22a2.218 2.218 0 0 1-1.83-1.569l-2.264-7.655c-.457-1.546.834-3.048 2.431-2.827z" fill="#d86030"/><path id="XMLID_15_" d="M102.205 107.099s-2.234 3.205-4.935 4.643c-2.835 1.51-4.374 1.417-4.578.822-.329-.957 2.872-3.082 4.574-5.315 1.703-2.233 2.731-4.082 2.731-4.082a1.208 1.208 0 0 1 1.387-.278 2.634 2.634 0 0 1 .821 4.21z" fill="#d86030"/><ellipse id="XMLID_14_" cx="49.81" cy="37.663" rx="5.533" ry="6.63" fill="#2f2f2f"/><ellipse id="XMLID_13_" cx="76.762" cy="37.459" rx="5.533" ry="6.63" fill="#2f2f2f"/><path id="XMLID_12_" d="M103.233 37.122l-3.662 1.114a2.9 2.9 0 0 0-1.93 3.622l2.043 6.692a2.901 2.901 0 0 0 2.957 2.048l1.821-.115a2.9 2.9 0 0 0 2.716-2.971l-.202-7.691a2.9 2.9 0 0 0-3.743-2.699z" fill="#d86030"/><path id="XMLID_11_" d="M29.434 57.933c-1.93-.983-4.981-2.847-7.078-5.753-.803-1.112-.38-2.711.838-3.283l.903-.424a2.075 2.075 0 0 1 2.628.752c1.403 2.152 3.44 3.893 4.848 4.944a2.253 2.253 0 0 1 .626 2.876c-.549 1-1.762 1.399-2.765.888z" fill="#d86030"/><path id="XMLID_10_" d="M23.941 37.122l3.662 1.114a2.9 2.9 0 0 1 1.93 3.622L27.49 48.55a2.901 2.901 0 0 1-2.957 2.048l-1.821-.115a2.9 2.9 0 0 1-2.716-2.971l.202-7.691a2.9 2.9 0 0 1 3.743-2.699z" fill="#d86030"/><circle id="XMLID_9_" cx="48.215" cy="35.249" r="1.284" fill="#939090"/><circle id="XMLID_8_" cx="75.345" cy="35.249" r="1.284" fill="#939090"/><path id="XMLID_7_" d="M110.469 36.195c.452-3.889 1.351-10.087-3.389-15.991C99.101 10.268 89.801 9.62 86.6 9.845c-3.201.225-1.943 1.43-.186 3.155.807.793 3.295 2.881 5.03 5.293 1.779 2.473 2.788 5.266 1.971 5.813-1.383.924-4.973-1.601-6.114-2.983-1.239-1.5-1.434-1.967-2.654-4.217-1.195-2.202-1.528-3.236-2.004-2.642-.481.6-1.04 2.366-.752 4.656.237 1.89 1.223 3.918 1.798 6.308.988 4.106.169 3.174 1.519 8.299.796 3.022 1.942 4.806 5.373 7.547 3.748 2.996 7.725 2.7 9.329 2.875 2.489.272 5.241-1.127 7.979-2.609.666-.36 2.387-3.479 2.58-5.145z" fill="#ed6c30"/><path id="XMLID_6_" d="M15.329 36.195c-.452-3.889-1.351-10.087 3.389-15.991 7.979-9.936 17.279-10.584 20.48-10.359 3.201.225 1.943 1.43.186 3.155-.807.793-3.295 2.881-5.03 5.293-1.779 2.473-2.788 5.266-1.971 5.813 1.383.924 4.973-1.601 6.114-2.983 1.239-1.5 1.434-1.967 2.654-4.217 1.195-2.202 1.528-3.236 2.004-2.642.481.6 1.04 2.366.752 4.656-.237 1.89-1.223 3.918-1.798 6.308-.988 4.106-.169 3.174-1.519 8.299-.796 3.022-1.942 4.806-5.373 7.547-3.748 2.996-7.725 2.7-9.329 2.875-2.489.272-5.241-1.127-7.979-2.609-.666-.36-2.387-3.479-2.58-5.145z" fill="#ed6c30"/><path id="XMLID_5_" d="M82.853 95.681c-1.254.159-2.4.768-3.308 1.659-1.918 1.883-6.466 5.44-16.134 5.44-9.811 0-14.727-3.847-16.827-5.849a6.178 6.178 0 0 0-3.463-1.679c-6.911-.902-12.418-6.093-13.124-12.714L26.31 64.156c-.895-8.39 6.128-13.513 15.273-15.665 0 0 10.196-2.659 21.827-2.659s21.825 2.659 21.825 2.659c9.282 2.151 15.87 7.016 15.321 15.119-.024.361-.09.723-.173 1.075L96.037 82.96c-.708 6.64-6.244 11.841-13.184 12.721z" fill="#ed6c30"/><path id="XMLID_4_" d="M36.509 68.147c-1.676 0-3.135-1.291-3.345-2.995-.323-2.602.795-7.726 7.028-10.429a3.356 3.356 0 0 1 2.67 6.158c-2.991 1.296-3.048 3.184-3.028 3.549.229 1.84-1.084 3.463-2.923 3.69a3.039 3.039 0 0 1-.402.027z" fill="#fff"/></g></svg>