<svg id="图层_1" xmlns="http://www.w3.org/2000/svg" viewBox="0 0 128 128"><g><g><g><path d="M57.856 59.753s-11.564-15.8-24.038-22.464C28.464 34.43 5.699 41.585 2 43.963c3.259.837 6.779 2.359 8.634 5.072 2.463 3.603 4.266 10.914 3.167 14.288 7.398-.774 16.458 3.641 19.199 11.248 4.227 0 7.937 1.393 10.744 4.267 3.01 3.082 3.873 5.67 5.265 11.601 0 0 5.66-1.444 9.797.582 2.142 1.049 4.279 2.374 5.193 4.687V66.671l-6.143-6.918z" fill="#633"/></g><g><path d="M64 67.578a.905.905 0 0 1-.677-.305l-6.145-6.918c-.168-.221-11.896-15.941-23.787-22.266-3.731-1.988-23.108 2.186-30.942 6.661a.905.905 0 1 1-.898-1.573c7.902-4.513 28.103-9.128 32.692-6.687 12.256 6.52 23.853 22.066 24.34 22.725l6.094 6.856A.904.904 0 0 1 64 67.578z" fill="#300"/></g><g><path d="M59.378 76.796c-2.847-.35-5.694 3.079-7.255 5.314-1.222 1.75-2.858 5.901-2.067 6.411.738.551 1.541-2.213 3.796-4.387 2.32-2.235 5.446-2.129 5.863-2.868.401-.709-.337-4.47-.337-4.47z" fill="#300"/></g><g><path d="M60.51 65.578c-2.398-.474-9.516-5.191-14.439-10.864-4.501-5.186-10.237-16.239-11.853-16.993.482 2.553 7.268 17.134 10.282 21.333 3.53 4.917 12.059 10.337 13.64 10.195 1.46-.131 1.938-2.49 2.37-3.671z" fill="#300"/></g><g><path d="M13.801 64.228a.906.906 0 0 1-.863-1.18c2.795-8.793 12.472-22.091 20.761-26.056a.905.905 0 1 1 .781 1.634C26.59 42.4 17.349 55.148 14.665 63.597a.909.909 0 0 1-.864.631z" fill="#300"/></g><g><path d="M32.999 75.477a.907.907 0 0 1-.886-.721c-2.149-10.284-2.066-28.846 1.262-37.364a.907.907 0 0 1 1.688.659c-3.218 8.236-3.274 26.294-1.176 36.334a.905.905 0 0 1-.888 1.092z" fill="#300"/></g><g><path d="M33.929 38.198a.906.906 0 0 1-.401-1.718c.476-.234 1.055-1.347 1.001-1.921-.052-.542-1.023-1.298-1.778-1.754-.39-.235-.638-.547-.614-.782.046-.448.588-.506 1.067-.359 1.321.412 2.982 1.198 3.128 2.723.128 1.341-.846 3.147-2.003 3.718a.917.917 0 0 1-.4.093z" fill="#300"/></g><g><path d="M43.99 93.363c-.202-1.373.185-2.655 1.062-3.519.919-.902 2.255-1.264 3.761-1.014a.905.905 0 0 1 .746 1.041.9.9 0 0 1-1.041.746c-.92-.154-1.701.032-2.196.519-.467.459-1.114 1.22-1.173 2.031-.039.541-.102.957-.485 1.023-.291.05-.607-.383-.674-.827z" fill="#300"/></g><g><path d="M50.452 94.022c-.855 0-1.714-.398-2.317-1.119-.875-1.045-.969-2.441-.245-3.646a.906.906 0 0 1 1.553.933c-.459.763-.157 1.358-.021 1.598.25.438.879.939 1.375.984.516.047 1.065.074 1.223.28.217.282-.145.615-.613.794a2.669 2.669 0 0 1-.955.176z" fill="#300"/></g></g><g><g><path d="M70.144 59.753s11.564-15.8 24.038-22.464c5.353-2.859 28.118 4.296 31.817 6.674-3.259.837-6.779 2.359-8.634 5.072-2.463 3.603-4.266 10.914-3.167 14.288-7.397-.774-16.457 3.641-19.198 11.248-4.227 0-7.937 1.393-10.744 4.267-3.01 3.082-3.873 5.67-5.265 11.601 0 0-5.66-1.444-9.797.582-2.142 1.049-4.279 2.374-5.193 4.687V66.671l6.143-6.918z" fill="#633"/></g><g><path d="M64 67.578c.25 0 .498-.104.677-.305l6.145-6.918c.168-.221 11.896-15.941 23.787-22.266 3.731-1.988 23.108 2.186 30.942 6.661a.905.905 0 1 0 .898-1.573c-7.902-4.513-28.103-9.128-32.692-6.687-12.256 6.52-23.853 22.066-24.34 22.725l-6.094 6.856A.904.904 0 0 0 64 67.578z" fill="#300"/></g><g><path d="M68.622 76.796c2.847-.35 5.694 3.079 7.255 5.314 1.222 1.75 2.858 5.901 2.067 6.411-.738.551-1.541-2.213-3.796-4.387-2.32-2.235-5.446-2.129-5.863-2.868-.401-.709.337-4.47.337-4.47z" fill="#300"/></g><g><path d="M67.49 65.578c2.398-.474 9.516-5.191 14.439-10.864 4.501-5.186 10.237-16.239 11.853-16.993-.482 2.553-7.268 17.134-10.282 21.333-3.53 4.917-12.059 10.337-13.64 10.195-1.46-.131-1.938-2.49-2.37-3.671z" fill="#300"/></g><g><path d="M114.199 64.228a.906.906 0 0 0 .863-1.18c-2.795-8.793-12.472-22.091-20.761-26.056a.905.905 0 1 0-.781 1.634c7.89 3.774 17.131 16.522 19.815 24.971.124.385.48.631.864.631z" fill="#300"/></g><g><path d="M95.001 75.477c.42 0 .796-.294.886-.721 2.149-10.284 2.066-28.846-1.262-37.364a.907.907 0 0 0-1.688.659c3.218 8.236 3.274 26.294 1.176 36.334a.905.905 0 0 0 .888 1.092z" fill="#300"/></g><g><path d="M94.071 38.198a.906.906 0 0 0 .401-1.718c-.476-.234-1.055-1.347-1.001-1.921.052-.542 1.023-1.298 1.778-1.754.39-.235.638-.547.614-.782-.046-.448-.588-.506-1.067-.359-1.321.412-2.982 1.198-3.128 2.723-.128 1.341.846 3.147 2.003 3.718.13.063.267.093.4.093z" fill="#300"/></g><g><path d="M84.01 93.363c.202-1.373-.185-2.655-1.062-3.519-.919-.902-2.255-1.264-3.761-1.014a.905.905 0 0 0-.746 1.041.9.9 0 0 0 1.041.746c.92-.154 1.701.032 2.196.519.467.459 1.114 1.22 1.173 2.031.039.541.102.957.485 1.023.291.05.607-.383.674-.827z" fill="#300"/></g><g><path d="M77.548 94.022c.855 0 1.714-.398 2.317-1.119.875-1.045.969-2.441.245-3.646a.906.906 0 0 0-1.553.933c.459.763.157 1.358.021 1.598-.25.438-.879.939-1.375.984-.516.047-1.065.074-1.223.28-.217.282.145.615.613.794.308.118.632.176.955.176z" fill="#300"/></g></g><g><g><path d="M64.1 51.13c-4.768 0-6.245 4.454-6.245 8.343 0 2.262.877 5.741 6.245 5.741s6.245-3.479 6.245-5.741c0-3.889-1.477-8.343-6.245-8.343z" fill="#300"/></g><g><g><path d="M61.476 52.992c-.303-3.191-4.828-2.95-7.111-2.901-.381 2.864 2.35 5.9 4.925 6.706l2.186-3.805z" fill="#300"/></g><g><path d="M66.725 52.992c.303-3.191 4.828-2.95 7.111-2.901.381 2.864-2.35 5.9-4.925 6.706l-2.186-3.805z" fill="#300"/></g></g><g><path d="M70.298 76.061c0 6.639-4.317 10.351-6.198 10.351-1.752 0-6.198-3.713-6.198-10.351 0-6.639 0-14.651 6.198-14.651 5.999 0 6.198 8.012 6.198 14.651z" fill="#300"/></g></g><g><g><circle cx="61.308" cy="56.317" r="1.301" fill="#ffc148"/></g><g><circle cx="66.893" cy="56.317" r="1.301" fill="#ffc148"/></g></g></g><g><g><path d="M-141.945 37.81c-8.322 3.98-17.646 17.198-20.288 25.513" fill="none" stroke="#300" stroke-width="1.812" stroke-linecap="round" stroke-linejoin="round" stroke-miterlimit="10"/><path d="M-141.815 37.722c-3.189 8.163-3.431 26.261-1.218 36.849" fill="none" stroke="#300" stroke-width="1.812" stroke-linecap="round" stroke-linejoin="round" stroke-miterlimit="10"/><path d="M-127.368 89.724c-2.552-.422-4.11 1.275-3.779 3.506" fill="none" stroke="#300" stroke-width="1.812" stroke-linecap="round" stroke-linejoin="round" stroke-miterlimit="10"/><path d="M-127.368 89.724c-1.167 1.942.798 3.894 2.419 3.276" fill="none" stroke="#300" stroke-width="1.812" stroke-linecap="round" stroke-linejoin="round" stroke-miterlimit="10"/></g><g><path d="M-82.123 37.81c8.322 3.98 17.646 17.198 20.288 25.513" fill="none" stroke="#300" stroke-width="1.812" stroke-linecap="round" stroke-linejoin="round" stroke-miterlimit="10"/><path d="M-82.252 37.722c3.189 8.163 3.431 26.261 1.218 36.849" fill="none" stroke="#300" stroke-width="1.812" stroke-linecap="round" stroke-linejoin="round" stroke-miterlimit="10"/><path d="M-96.7 89.724c2.552-.422 4.11 1.275 3.779 3.506" fill="none" stroke="#300" stroke-width="1.812" stroke-linecap="round" stroke-linejoin="round" stroke-miterlimit="10"/><path d="M-96.7 89.724c1.167 1.942-.798 3.894-2.419 3.276" fill="none" stroke="#300" stroke-width="1.812" stroke-linecap="round" stroke-linejoin="round" stroke-miterlimit="10"/></g><g fill="#300"><g/></g><g fill="#ffc148"/></g><g><g><path d="M194.623 40.913c-8.788 1.536-20.44 6.806-27.203 13.611" fill="none" stroke="#300" stroke-width="1.812" stroke-linecap="round" stroke-linejoin="round" stroke-miterlimit="10"/><path d="M194.745 40.83c-6.164 7.466-11.722 19.628-12.995 32.713" fill="none" stroke="#300" stroke-width="1.812" stroke-linecap="round" stroke-linejoin="round" stroke-miterlimit="10"/><path d="M210.864 90.314c-2.415-.4-3.889 1.206-3.576 3.317" fill="none" stroke="#300" stroke-width="1.812" stroke-linecap="round" stroke-linejoin="round" stroke-miterlimit="10"/><path d="M210.864 90.314c-1.105 1.837.755 3.685 2.289 3.1" fill="none" stroke="#300" stroke-width="1.812" stroke-linecap="round" stroke-linejoin="round" stroke-miterlimit="10"/></g><g><path d="M256.124 40.913c8.788 1.536 20.44 6.806 27.203 13.611" fill="none" stroke="#300" stroke-width="1.812" stroke-linecap="round" stroke-linejoin="round" stroke-miterlimit="10"/><path d="M256.002 40.83c6.164 7.466 11.722 19.628 12.995 32.713" fill="none" stroke="#300" stroke-width="1.812" stroke-linecap="round" stroke-linejoin="round" stroke-miterlimit="10"/><path d="M239.883 90.314c2.415-.4 3.889 1.206 3.576 3.317" fill="none" stroke="#300" stroke-width="1.812" stroke-linecap="round" stroke-linejoin="round" stroke-miterlimit="10"/><path d="M239.883 90.314c1.105 1.837-.755 3.685-2.289 3.1" fill="none" stroke="#300" stroke-width="1.812" stroke-linecap="round" stroke-linejoin="round" stroke-miterlimit="10"/></g><g fill="#300"><g/></g><g fill="#ffc148"/></g><path fill="none" d="M64.1 86.412v9.296"/></svg>