<svg id="レイヤー_1" xmlns="http://www.w3.org/2000/svg" xmlns:xlink="http://www.w3.org/1999/xlink" viewBox="0 0 128 128"><path d="M73.332 25.534c-2.083-1.229-2.885-4.436-6.733-7.001s-11.063-8.017-14.109-7.215c-3.046.802-.468 10.822 1.483 15.753 1.67 4.219 5.701 10.345 9.013 11.025 2.531.519 5.176-1.044 6.638-2.869l3.708-9.693z" fill="#79a3ac"/><path d="M54.292 14.853c.75-.211 5.196 2.165 5.196 6.915s1.81 8.225 1.957 9.624-1.662 0-3.713-2-2.441-3.936-3.441-7.363-1.832-6.661.001-7.176z" fill="#55787c"/><path d="M78.257 17.716S61.449 29.076 60.5 47.437c0 0 6.792-4.733 9.792-10.7s7.965-19.021 7.965-19.021z" fill="#79a3ac"/><path d="M130.633 2.512s-7.049-5.977-20.133 1.154c-4.51 2.458-18.719 12.049-20.643 11.555l16.936 75.1s6.404 6.989 9.75 11.532c5.643 7.661 6.471 13.306 12.25 11.24 3.948-1.412 4-12.314 4.53-19.87.28-3.997-2.69-90.711-2.69-90.711z" fill="#65878d"/><g><g fill="#999"/></g><g id="c7moxp.tif"/><g id="oevrRx.tif"/><g id="qlOf0M.tif"/><path d="M98.835 17.093c-5.683-3.377-13.903-3.157-19.542 0-4.353 2.437-9.38 7.06-12.38 19.643 0 0-4.49 6.538-7.374 9.717-3.208 3.538-10.451 8.622-15.071 12.774-6.675 6-10.191 6.304-12.425 11.782-1.545 3.787-.979 9.19-.722 14.366.234 4.719.308 10.224.308 10.224-4.836 5.606-2.169 10.658-.086 16.138 2.219 5.838 4.197 6.901 7.25 8.614 3.563 2 7.778 6.491 13.069 6.25s10.24-3.869 24.146-12.361c9.417-5.751 31.499-12.523 39.035-18.639 5.028-4.081 7-15.75 4.25-31.524-1.061-6.087-3.167-10.81-4.49-20.069-1.514-10.581-6.735-21.429-15.968-26.915z" fill="#79a3ac"/><path d="M94.935 34.787c.896 4.053 4.433 9.668 10.045 12.316 2.626 1.239 4.438 2.125 7.286 4.263 5.007 3.759 6.555 10.307 6.555 10.307 0-3.405-1.282-20.323-1.282-20.323s-7.496 3.003-11.691.851c-5.047-2.59-8.224-7.76-7.93-9.704.625-4.144 5.396-6.269 5.396-6.269s-.489-2.121-.937-2.125c-3.335-.029-9.418 1.75-7.442 10.684z" fill="#65878d"/><path d="M97.859 36.17c-1.122-2.405-2.442-7.192 2.433-10.192 4.108-2.528 3.883-5.517 7.25-6.75 3.5-1.281 9.718-3.169 10.125-1.441.643 2.733 6.345 16.939-1.04 24.635s-14.76-.321-16.364-2.565-2.404-3.687-2.404-3.687z" fill="#79a3ac"/><path d="M40.14 114.047c.378-2.198 1.235-3.855 4.665-3.777 3.874.089 8.054.961 6.676 3.862-.761 1.604-3.371 3.445-6.608 3.67-2.603.181-5.137-1.409-4.733-3.755z" fill="#2f2f2f"/><ellipse transform="scale(-1) rotate(67.859 107.031 -116.322)" cx="78.257" cy="72.005" rx="4.593" ry="4.976" fill="#2f2f2f"/><path d="M40.385 107.686c-1.212.419-1.888-1.363-.71-1.872a18.906 18.906 0 0 1 2.218-.811c4.316-1.25 9.794-1.503 13.378.99 3.584 2.493 2.625 7.636 1.258 7.695 0 0-.023-3.427-2.549-5.338-2.483-1.878-6.64-2.626-10.72-1.551-.911.239-1.884.544-2.875.887z" fill="#65878d"/><path d="M57.495 48.461s.528.032 1.473.874c1.413 1.259 1.507 4.613.082 7.547-1.44 2.965-4.603 5.037-7.426 5.799-3.018.814-6.624.974-7.823-.503-.79-.973-.44-2.046-.44-2.046L55.958 49.77l1.537-1.309z" fill="#65878d"/><path d="M57.632 50.149c.233.259.367.579.403.925.236 2.23.196 5.713-3.47 7.972-4.579 2.823-7.854 2.581-9.126 2.317a1.59 1.59 0 0 1-.925-.573c-.947-1.186-3.641-4.83-5.106-9.579-1.811-5.87-3.806-13.599-1.518-14.391s5.644 4.154 13.512 8.686c3.766 2.17 5.555 3.895 6.23 4.643z" fill="#c2cbce"/><path d="M107.172 22.936c-2.504 1.359-3.589 5.063-3.589 8.182 0 4.849 1.077 5.619 4.487 5.619 3.805 0 6.079-2.816 5.41-6.652-.503-2.883-.83-5.514-1.073-7.192a.858.858 0 0 0-.842-.737c-1.077-.012-3.091.073-4.393.78z" fill="#55787c"/><path d="M23.654 85.257s.138 10.506 1.388 14.051c0 0-2.226 1.73-2.363 6.012-.137 4.283 1.395 8.924 2.395 11.674s13.031 11.421 27.6 9.542c0 0-12.645-4.19-17.091-11.813-1.154-1.979-2.124-4.247-2.124-6.84 0-4.804 2.774-5.781 2-7.114-.419-.721-2.5.667-2.667-4.5-.142-4.403-1.472-10.894-1.472-10.894l-7.666-.118z" fill="#79a3ac"/><path d="M38.244 64.111s2.673-.258 4.134.704c2.282 1.502 4.789 4.122 2.602 12.665-2.635 10.294-12.584 13.254-17.921 12.797-1.657-.142-3.267-2.008-3.267-2.008L22.68 85.17l14.154-20.025 1.41-1.034z" fill="#65878d"/><path d="M40.507 66.403c2.621 1.909 3.48 10.522-1.729 15.839s-11.201 6.915-14.18 4.557c-6.741-5.336-9.89-11.408-13.784-18.953-4.682-9.072-8.42-24.897-8.769-31.11-.266-4.725 1.462-5.686 4.62.151 4.176 7.719 9.506 17.992 18.474 22.888s13.095 4.973 15.368 6.628z" fill="#c2cbce"/></svg>