<svg xmlns="http://www.w3.org/2000/svg" viewBox="0 0 128 128"><g id="图层_2"><g><g><path d="M59.425 54.758c-.379-1.002-9.255-17.496-29.004-28.203-4.328-2.346-16.765-9.833-24.28-4.43-5.671 3.473-.976 11.386 2.626 15.862 3.484 4.33 5.542 7.58 6.712 13.051 1.179 5.514 3.278 12.963 9.537 14.564 2.896.741 5.898-.122 8.746-.672 2.313-.447 6.277-1.691 6.91-.715 1.421 2.296-18.412 8.418-20.023 15.646-1.922 8.623 3.154 11.81 6.835 16.23 3.441 4.659 1.59 8.962 6.081 10.958 5.862 2.605 12.905-2.109 15.83-6.763 4.388-6.982 5.058-11.523 8.337-19.061 1.1-2.529 3.274-7.886 4.088-10.531.411-1.335.973-3.499.964-5.249-.202-4.345-2.74-9.049-3.359-10.687z" fill="#8b5940"/><path d="M48.918 44.887c-3.33-3.855-6.833-6.956-11.666-9.457-2.028-1.049-8.14-.215-6.567 4.156.834 2.316 9.006 7.159 12.006 9.16 4.65 3.102 14.054 11.35 14.73 10.948 1.864.306-5.147-10.922-8.503-14.807z" fill="#f3693b"/><path d="M42.554 53.239c-2.943-2.181-6.479-4.69-10.333-4.481-2.669.144-5.344 2.248-3.825 5.08 1.96 3.653 7.523 4.915 11.179 5.779 4.873 1.152 14.764 4.016 14.758 2.855.251-1.143-8.433-6.753-11.779-9.233z" fill="#f3693b"/><path d="M28.362 29.148c-2.863.321-6.356 1.143-7.376 4.307-.683 2.12.288 5.206 2.795 5.526 1.839.235 2.559-1.267 3.246-2.648.868-1.747 2.386-2.799 3.672-4.206 1.985-2.171-.248-2.979-2.337-2.979z" fill="#f3693b"/><path d="M9.791 25.216c1.964-.918 3.484-.837 5.939-.378 1.111.208 4.254.892 4.553 2.285.228 1.064-2.268 2.378-2.871 3.066-.99 1.13-1.503 2.389-2.123 3.753-1.006 2.213-4.728-2.04-5.122-2.621-.507-.747-1.674-2.787-1.585-3.818.068-.77.508-1.868 1.209-2.287z" fill="#f3693b"/><path d="M21.541 42.172c1.9.448 4.48.283 6.153 1.4 2.449 1.637-2.792 4.354-4.138 4.862-5.336 2.014-9.537-7.01-7.866-9.777 1.325-2.282 3.806 3.032 5.851 3.515z" fill="#f3693b"/><path d="M20.375 51.969c.928-1.357 5.449-1.146 4.983 1.943-.454 3.003-4.225 4.853-5.328 1.225-.33-1.082-.279-2.209.345-3.168z" fill="#f3693b"/><path d="M23.679 60.343c.45-1.82 6.696-3.421 7.373.31.552 3.043-3.227 2.63-5.482 2.197-1.474-.282-2.237-1.284-1.891-2.507z" fill="#f3693b"/><path d="M54.181 69.815c1.302-2.725-10.58 3.959-14.197 7.479-2.66 2.589-5.256 5.496-4.354 9.279.27 1.134.89 2.37 2.093 2.678 1.276.327 2.567-.511 3.506-1.295 3.162-2.638 5.233-6.626 7.314-10.132 1.688-2.842 3.414-5.568 5.638-8.009z" fill="#ffc148"/><path d="M47.636 68.866c2.831-1.518-13.742.866-15.513 6.749-.325 1.08-.19 2.455 1.26 1.953 1.964-.681 3.685-2.545 5.341-3.736 2.784-2.002 5.802-3.534 8.912-4.966z" fill="#ffc148"/><path d="M54.638 75.865c-1.886 3.384-3.002 4.903-5.413 8.255-1.778 2.472-3.375 5.438-3.735 8.508-.286 2.441 2.056 1.897 3.109.417 1.896-2.666 3.381-5.728 4.472-8.799.973-2.737 3.262-10.746 1.567-8.381z" fill="#ffc148"/><path d="M24.202 80.37c1.199-2.083 6.464-3.238 6.782.661.232 2.849-1.481 4.705-4.067 4.517-.979-.127-4.133-2.802-2.715-5.178z" fill="#ffc148"/><path d="M27.098 89.173c.138-1.316 2.201-1.523 3.591-1.289 1.243.209 1.798 1.281 1.441 2.453-.322 1.058-.989 2.396-2.141 2.415-1.336.023-2.891-2.077-2.891-3.579z" fill="#ffc148"/><path d="M34.285 94.027c1.038-1.222 4.923-2.729 6.088-.52.869 1.648-.898 4.504-1.374 6.198-.441 1.569-1.278 2.113-2.902 1.787-1.579-.317-2.561-1.15-3.35-2.652-.979-1.863.445-3.436 1.538-4.813z" fill="#ffc148"/><path d="M42.572 98.203c-.852.473-.987 2.062-.442 3.123.508.99 1.797.753 2.552.212.794-.569 1.541-1.823 1.021-2.798-.526-.987-2.152-.916-3.131-.537z" fill="#ffc148"/></g><g><path d="M68.575 54.758c.379-1.002 9.255-17.496 29.004-28.203 4.328-2.346 16.765-9.833 24.28-4.43 5.671 3.473.976 11.386-2.626 15.862-3.484 4.33-5.542 7.58-6.712 13.051-1.179 5.514-3.278 12.963-9.537 14.564-2.896.741-5.898-.122-8.746-.672-2.313-.447-6.277-1.691-6.91-.715-1.421 2.296 18.412 8.418 20.023 15.646 1.922 8.623-3.154 11.81-6.835 16.23-3.441 4.659-1.59 8.962-6.081 10.958-5.862 2.605-12.905-2.109-15.83-6.763-4.388-6.982-5.058-11.523-8.337-19.061-1.1-2.529-3.274-7.886-4.088-10.531-.411-1.335-.973-3.499-.964-5.249.202-4.345 2.74-9.049 3.359-10.687z" fill="#8b5940"/><path d="M79.082 44.887c3.33-3.855 6.833-6.956 11.666-9.457 2.028-1.049 8.14-.215 6.567 4.156-.834 2.316-9.006 7.159-12.006 9.16-4.65 3.102-14.054 11.35-14.73 10.948-1.864.306 5.147-10.922 8.503-14.807z" fill="#f3693b"/><path d="M85.446 53.239c2.943-2.181 6.479-4.69 10.333-4.481 2.669.144 5.344 2.248 3.825 5.08-1.96 3.653-7.523 4.915-11.179 5.779-4.873 1.152-14.764 4.016-14.758 2.855-.251-1.143 8.433-6.753 11.779-9.233z" fill="#f3693b"/><path d="M99.638 29.148c2.863.321 6.356 1.143 7.376 4.307.683 2.12-.288 5.206-2.795 5.526-1.839.235-2.559-1.267-3.246-2.648-.868-1.747-2.386-2.799-3.672-4.206-1.985-2.171.248-2.979 2.337-2.979z" fill="#f3693b"/><path d="M118.209 25.216c-1.964-.918-3.484-.837-5.939-.378-1.111.208-4.254.892-4.553 2.285-.229 1.064 2.268 2.378 2.871 3.066.99 1.13 1.503 2.389 2.123 3.753 1.006 2.213 4.728-2.04 5.122-2.621.507-.747 1.674-2.787 1.585-3.818-.068-.77-.508-1.868-1.209-2.287z" fill="#f3693b"/><path d="M106.459 42.172c-1.9.448-4.48.283-6.153 1.4-2.449 1.637 2.792 4.354 4.138 4.862 5.336 2.014 9.537-7.01 7.866-9.777-1.325-2.282-3.806 3.032-5.851 3.515z" fill="#f3693b"/><path d="M107.625 51.969c-.928-1.357-5.449-1.146-4.983 1.943.454 3.003 4.225 4.853 5.328 1.225.33-1.082.279-2.209-.345-3.168z" fill="#f3693b"/><path d="M104.321 60.343c-.45-1.82-6.696-3.421-7.373.31-.552 3.043 3.227 2.63 5.482 2.197 1.474-.282 2.237-1.284 1.891-2.507z" fill="#f3693b"/><path d="M73.819 69.815c-1.302-2.725 10.58 3.959 14.197 7.479 2.66 2.589 5.256 5.496 4.354 9.279-.27 1.134-.89 2.37-2.093 2.678-1.276.327-2.567-.511-3.506-1.295-3.162-2.638-5.233-6.626-7.314-10.132-1.688-2.842-3.414-5.568-5.638-8.009z" fill="#ffc148"/><path d="M80.364 68.866c-2.831-1.518 13.742.866 15.513 6.749.325 1.08.19 2.455-1.26 1.953-1.964-.681-3.685-2.545-5.341-3.736-2.784-2.002-5.802-3.534-8.912-4.966z" fill="#ffc148"/><path d="M73.362 75.865c1.886 3.384 3.002 4.903 5.413 8.255 1.778 2.472 3.375 5.438 3.735 8.508.286 2.441-2.056 1.897-3.109.417-1.896-2.666-3.381-5.728-4.472-8.799-.973-2.737-3.262-10.746-1.567-8.381z" fill="#ffc148"/><path d="M103.798 80.37c-1.199-2.083-6.464-3.238-6.782.661-.232 2.849 1.481 4.705 4.067 4.517.979-.127 4.133-2.802 2.715-5.178z" fill="#ffc148"/><path d="M100.902 89.173c-.138-1.316-2.201-1.523-3.591-1.289-1.243.209-1.798 1.281-1.441 2.453.322 1.058.989 2.396 2.141 2.415 1.336.023 2.891-2.077 2.891-3.579z" fill="#ffc148"/><path d="M93.715 94.027c-1.038-1.222-4.923-2.729-6.088-.52-.869 1.648.898 4.504 1.374 6.198.441 1.569 1.278 2.113 2.902 1.787 1.579-.317 2.561-1.15 3.35-2.652.979-1.863-.445-3.436-1.538-4.813z" fill="#ffc148"/><path d="M85.428 98.203c.852.473.987 2.062.442 3.123-.508.99-1.797.753-2.552.212-.794-.569-1.541-1.823-1.021-2.798.526-.987 2.152-.916 3.131-.537z" fill="#ffc148"/></g></g><g fill="#8b5940"><path d="M66.934 52.356c0 1.647-1.313 2.983-2.934 2.983s-2.934-1.336-2.934-2.983 0-2.983 2.934-2.983 2.934 1.336 2.934 2.983z"/><path d="M66.934 62.745c0 10.555 0 29.634-2.934 29.634S61.066 73.3 61.066 62.745 62.38 54.156 64 54.156s2.934-1.966 2.934 8.589z"/></g><g fill="#8b5940"><path d="M63.264 50.563c-.167-.653-2.906-15.837-13.685-22.803-.037-.027-1.053-.716-2.232-.716-1.164 0-2.387 1.158-2.387 2.322 0 1.164.944 2.108 2.108 2.108.747 0 1.809-1.004 2.488-.402 9.288 5.989 12.285 19.414 12.321 19.558.117.453 1.523.468 1.387-.067z"/><path d="M64.736 50.563c.167-.653 2.906-15.837 13.685-22.803.037-.027 1.053-.716 2.232-.716 1.164 0 2.387 1.158 2.387 2.322a2.108 2.108 0 0 1-2.108 2.108c-.747 0-1.809-1.004-2.488-.402-9.288 5.989-12.285 19.414-12.321 19.558-.117.453-1.523.468-1.387-.067z"/></g></g></svg>