<svg xmlns="http://www.w3.org/2000/svg" viewBox="0 0 128 128"><g id="图层_1"><path d="M67.735 87.946c3.325 3.833 8.575 8.674 12.674 11.721 2.707 2.012 5.625 3.706 8.514 5.438 1.176.705 2.375 1.401 3.469 2.23.399.302 1.441.946 1.319 1.554-.412 2.064-4.112 1.023-4.991 1.033.525.996.048 2.293-1.569 2.38-2.023.108-4.592-1.01-6.386-2.412.259 1.182-.766 1.526-1.722 1.526-1.757 0-3.333-1.24-4.726-2.235 0 0-.084 1.366-2.251 1.109-1.74-.207-2.802-1.799-3.725-3.103-1.153 1.806-3.553 1.912-4.418-.541-.361 1.12-2.785 2.279-4.066-.763.1.238-1.292.792-1.479.808-.738.063-1.384-.424-1.877-.918-1.867-1.872-2.664-4.81-2.941-7.358a25.878 25.878 0 0 1-.045-5.206c.23-2.371.847-5.33 2.391-7.246" fill="#e0ded5"/><path d="M13.007 54.354c-1.493.188-4.647.811-5.623-.766-.792-1.279.591-3.377.813-4.717-.98.444-3.275 1.853-4.341.996-1.221-.981-.208-4.365-.045-5.586.883-6.59.29-12.64-1.221-19.084-.495-2.113-1.311-4.745-.492-6.881.771-2.011 2.939-2.612 4.911-2.627 7.044-.053 13.632 5.096 18.187 9.977 4.682 5.017 10.89 13.795 14.197 19.983 2.241-7.279 2.06-13.915 1.612-21.444-.463-7.785.297-16.413 7.962-20.501 7.484-3.991 17.966-.41 25.84 1.027 10.144 1.851 19.326 3.242 29.227 3.181 2.024-.013 8.135.228 8.653 2.979.443 2.353-2.513 4.815-5.354 5.866.928-.178 15.159-2.842 16.702 1.565 1.472 3.383-3.686 5.36-7.418 6.452 2.246.144 9.744.016 9.633 3.669-.108 3.54-6.719 4.398-9.163 4.815 2.522.567 5.296 2.624 2.294 4.866-2.836 2.119-7.429 1.728-10.776 1.74 1.521.933 4.766 2.535 2.995 4.559-1.707 1.951-6.26 2.101-8.613 2.215 1.142 2.195-.38 4.576-2.695 4.974-2.704.464-16.564-1.753-28.351-8.336 1.619 1.008 5.082 8.666.743 8.247.306.92 1.978 3.009 1.535 4.411-.367 1.04-1.746 1.074-2.808 1.067.645 1.306 2.282 2.631 2.282 4.171 0 1.652-2.653 1.361-2.653 1.361 1.852 1.573 2.874 5.941-1.117 5.272.084 1.207 1.614 2.656 1.452 4.786-.178 1.832-3.205 1.088-4.397.576.082.671.758 3.758.632 4.424-.448 2.372-3.209.62-3.209.62.849 4.938 2.404 7.22 3.334 9.736.325.879.954 2.409.363 3.303-.687 1.04-2.403.465-3.364.239-.019 1.008.325 2.14-.802 2.653-1.07.487-2.319-.025-3.072-.82-.023.909-.007 1.896-.918 2.198-.821.273-1.739-.339-2.177-1.168" fill="#6d4c41"/><g fill="none" stroke="#300" stroke-width="1.812" stroke-linecap="round" stroke-linejoin="round" stroke-miterlimit="10"><path d="M44.438 87.801c-2.337 1.842-4.09 6.625-4.512 10.179-.201 1.692-.244 5.351.045 7.043"/><path d="M38.756 86.836c1.372 1.753 2.183 3.825 1.892 7.303"/><path d="M40.058 97.009c-.259 2.385-1.322 4.247-2.555 5.836-1.113 1.435-2.637 2.184-4.341 2.537"/></g><path d="M27.095 64.902c-1.801-.035-4.063 1.337-4.439 3.212-.286 1.426.183 3.126.545 4.495.418 1.581 1.238 3.616 2.322 4.892 2.011 2.367 3.122 7.824 3.054 9.856-.056 1.664-.165 3.483-1.012 4.961-.706 1.233-3.484 3.8-3.157 6.49.144 1.184 1.048 2.035 1.864 2.838.532.524 1.065 1.047 1.595 1.572.261.259.579.606.76.929.077.228.973.85 2.035 1.114.649.161 1.802.122 2.501.121 1.319.191 2.774.297 3.988.896.825.407 1.589 1.003 2.339 1.531a9.626 9.626 0 0 1 2.029 1.904c.34.427.644.835 1.094 1.154 1.634 1.658 3.415 3.159 5.223 4.621.744.601 1.895 1.234 2.876.856 1.226-.472.929-2.106.788-3.12.698.618 3.369 2.575 3.732.597.245-1.337-1.155-2.458-.889-3.851 1.119.376 2.137.58 1.895-.939-.238-1.495-.815-2.892-.931-4.418-.137-1.804.064-3.649.225-5.445.169-1.887.367-3.843 1.126-5.599.561-1.299 1.457-2.365 2.393-3.408" fill="#6d4c41"/><path d="M27.255 98.305a77.153 77.153 0 0 0-2.585 2.839c-.268.31-.791 1.205-1.27.993-.484-.215-.91-2.024-1.14-2.467-.76-1.461-1.82-2.808-3.213-3.711-1.294-.839-2.57-1.305-4.34-1.21-.837.045-1.793.205-2.263 1.852-.292 1.024.606 1.698 1.254 1.924 1.153.401 2.326.346 3.277 1.16 2.439 2.088 3.524 6.668 2.369 9.6-.477 1.21-1.64 1.843-2.867 2.238-.752.242-2.187 1.066-1.977 2.82.208 1.738 1.664 2.516 3.252 1.915 3.345-1.267 5.275-2.126 6.371-6.265.322-1.216.071-2.973.675-3.748.826-1.059 1.127-1.458 2.861-2.755 1.631-1.22 3.636-2.284 3.056-4.062-.219-.672-2.39-2.178-3.46-1.123z" fill="#fc3"/><path d="M25.223 53.065c-1.745-6.249-3.573-10.781-6.566-16.537-1.487-2.859-6.816-7.529-7.195-6.91-.295.754 3.779 4.254 6.086 12.492 1.109 3.959.887 8.313 1.17 10.752.035.305.074.619.225.887.227.402.666.628 1.08.831.996.489 2.041.99 3.151.964 1.109-.026 2.287-.766 2.406-1.87" fill="#300"/><g><g><g><path d="M42.377 65.137c.653-.215.89-.566.668-1.238-.322-.977-1.456-1.099-2.343-1.269 1.233-.768.147-2.257-1.072-2.381.579-.645.879-1.027.515-1.832-.391-.864-1.448-1.062-2.284-1.214-.372-.068-1.519-.673-1.519-.673.889-.549.621-1.521-.348-1.876-1.168-.428-4.591-1.23-7.19-1.058-2.246.149-4.543.231-6.773.54-1.829.253-3.591.831-5.319 1.456-1.298.469-2.56 1.001-3.768 1.668a53.208 53.208 0 0 0-2.818 1.694c-2.652 1.686-2.804 3.664-2.66 4.717-1.102 1.128-2.815 3.247-3.218 5.915-.603 3.991 1.356 3.498 5.459 1.117l.107.325s.627.912 1.091 1.202c1.358.849 2.749 1.396 4.285 1.896 1.684.548 3.428.717 6.474 3.797.424.713 1.447 1.83 2.275 2.083.718.22 1.989.049 1.909-.452 0 0 4.115.844 4.082-.979.963.293 2.422-.16 2.694-.322.706-.422.433-.856.3-1.826.496.021 2.368.526 3.253-.097.708-.499.115-1.311.115-1.311.632-.083 2.424.086 3.052-.694.4-.498-.119-1.066-.415-1.423.776-.148 1.834-.441 2.226-1.199.343-.664-.109-.887-.788-1.324.541-.173 1.493-.215 1.799-.755.317-.559-.455-1.011-.787-1.298.874-.251 2.462-.435 2.929-1.318.62-1.179-1.13-1.713-1.931-1.871z" fill="#e0ded5"/></g><path d="M14.764 64.492s-1.511-.58-1.813-1.891c-.303-1.311-2.285-2.112-4.532.175 0 0-3.569 2.817-4.172 6.808-.486 3.218.04 5.259 1.343 7.28.268.416.936.228.946-.264.039-1.865.635-4.757 3.695-6.189 4.889-2.289 7.306-2.256 9.359-2.693 2.053-.436 1.422-2.297-.084-2.008-.724.14-3.032-.344-4.742-1.218z" fill="#ffc148"/><path d="M9.415 70.862s3.245.693 4.219 1.244c.974.55 2.316.943 3.663-.986 1.347-1.929 1.628-2.78 1.784-3.304-.001 0-4.83.352-9.666 3.046z" fill="#ffc148"/><path d="M10.855 70.125c1.876-.415 3.485-.45 5.003-.101.687.158 1.851.391 2.32-.254.449-.617.768-1.202.902-1.954-1.079-.024-3.589.658-4.263.832-1.013.262-3.463 1.14-3.962 1.477" fill="#fe9040"/><path d="M7.913 66.022c.171.176.667-.02 1.109-.439s.661-.9.49-1.076c-.171-.176-.667.02-1.109.439-.441.418-.66.9-.49 1.076z" fill="#333"/><path d="M17.824 72.802c2.542.734 3.235 1.308 5.328 2.363 1.242.626 3.216 2.745 4.996 2.334-.11-.636-.495-1.146-.642-1.773.416-.028 2.124.21 2.453.101.007-.504-.78-1.295-1.286-1.352 1.107.028 4.314-.531 4.761-.696-.324-.678-1.544-1.066-2.221-1.251.967-.442 2.194-.08 3.222-.469-.149-.695-1.277-1.284-1.886-1.168.926-.325 2.937-.369 3.239-.902.102-.443-2.15-.718-2.801-.731-1.201-.025-4.187.045-6.105.225-1.51.142-4.466.025-5.977.071-.138.457-.502 1.152-1.137 1.909-.419.498-1.334 1.072-1.944 1.339" fill="#c1bfb4"/></g><g><g><circle cx="17.908" cy="60.483" r="2.986" fill="#ffc148"/><circle cx="17.908" cy="60.483" r="1.609" fill="#333"/><circle cx="19.127" cy="61.528" r=".633" fill="#fff"/></g><path d="M14.057 61.199c1.885-.716 5.46-3.048 6.419-4.389 0 0-2.137-.753-4.178.248-2.478 1.215-2.241 4.141-2.241 4.141z" fill="#e0ded5"/></g></g><path d="M66.898 85.962c-1.219-2.766-2.116-5.761-2.497-7.752 0-.001 0 0 0 0a56.1 56.1 0 0 1-1.959-2.935c-2.881-4.647-4.774-7.879-6.184-12.272-.518-1.613-1.335-1.402-1.108.234.397 2.866 2.708 9.476 3.899 12.215 1.759 4.049 4.973 8.835 7.849 10.51z" fill="#300"/><path d="M107.332 16.757c-1.73.577-5.98.349-7.47.313-6.108-.148-9.371-.539-15.24-2.234-.691-.2-.854.6.449 1.058 10.6 3.728 20.169 2.826 22.841 2.48 1.707-.221 4.95-1.505 5.501-2.432-.714-.023-4.515.545-6.081.815" fill="#300"/><path d="M71.94 43.276c-2.2-.918-4.591-2.061-5.521-2.661-4.136-2.671-5.219-3.696-6.115-4.428-.416-.34-.764.209.001.905.647.589 4.556 4.435 8.075 6.696 1.077.692 4.504 3.21 6.047 3.735-.249-.976-1.338-3.433-2.487-4.247" fill="#300"/><path d="M116.616 24.774c-5.372.577-10.012.294-14.891-.116-9.04-.76-13.873-2.733-21.156-5.238-.858-.295-1.152.477.456 1.114 13.081 5.186 22.698 6.429 30.946 6.429 2.197 0 10.806-.489 11.609-1.334-1.208-.409-4.942-.905-6.964-.855z" fill="#300"/><path d="M117.086 33.258c-2.283.155-10.355-.319-14.766-1.232-9.014-1.865-19.458-5.353-26.525-8.416-.833-.361-1.185.386.368 1.146 12.639 6.186 26.042 9.32 30.568 10.031 2.17.341 13.061 1.856 13.926 1.076-.001-.846-1.33-2.232-3.571-2.605z" fill="#300"/><path d="M108.604 39.864c-4.222-.262-12.466-2.895-14.304-3.407-7.533-2.099-16.683-5.854-23.533-9.375-.807-.415-1.208.307.292 1.168 12.205 7.004 29.793 12.795 33.191 13.316 2.171.333 6.841 1.844 7.756 1.123-.294-.883-1.771-1.989-3.402-2.825z" fill="#300"/><path d="M102.986 46.638c-5.378-.371-10.97-2.377-12.791-2.944-7.466-2.327-17.6-7.918-24.34-11.646-.794-.439-1.171.199.256 1.176 9.466 6.484 17.549 10.61 25.64 12.951 2.11.61 10.636 3.232 11.572 2.538.158-.528.091-1.347-.337-2.075z" fill="#300"/><path d="M32.37 105.387c.785.195.574-.083 1.303-.433 1.767-.847 3.044-1.81 4.07-3.48.477-.776 2.924-7.581 1.989-11.35-.26-1.047-1.198-2.223-1.575-3.288-.097-.274.14-.866.698-.537 1.217.718 2.476 1.811 3.102 3.016.112.215.315.164.403.092 1.144-.927 3.356-1.211 4.855-1.216.361-.001.304.264.214.382-.276.36-.967.631-1.325.87-1.863 1.247-3.688 3.395-3.971 5.62-.102.804-1.325 6.433-1.325 10.321 0 1.936 1.407 3.456 1.725 4.251.57 1.422 1.509 2.275 2.079 3.697-1.411-1.341-3.133-2.3-4.797-3.309a75.111 75.111 0 0 1-5.574-3.729c-.338-.249-.68-.503-1.072-.651-.455-.174-.313-.239-.799-.256z" fill="#300"/><path d="M44.014 104.323c-.503 1.28-.886 2.3-1.33 3.602-.132.388-.28 1.414-.804 1.397-.529-.017-1.603-1.535-1.983-1.858-1.253-1.069-2.742-1.918-4.372-2.232-1.514-.292-2.872-.244-4.477.509-.758.356-1.585.864-1.401 2.567.114 1.058 1.2 1.347 1.885 1.312 1.219-.062 2.286-.553 3.473-.156 3.045 1.019 5.771 4.856 5.801 8.007.012 1.3-.828 2.324-1.817 3.151-.606.507-1.627 1.809-.773 3.356.845 1.532 2.487 1.707 3.733.553 2.624-2.431 4.091-3.952 3.551-8.199-.158-1.248-1.051-2.782-.782-3.727.368-1.292.497-1.774 1.617-3.628 1.053-1.744 2.512-3.482 1.306-4.913-.454-.54-3.031-1.121-3.627.259z" fill="#fc3"/><g><path d="M8.366 98.885c-.437-.198-.076-.97.274-1.366 1.445-1.639 3.558-1.865 5.237-1.576a.956.956 0 0 1-.326 1.884c-1.289-.224-3.015-.378-4.01.463-.278.237-.802.764-1.175.595z" fill="#757575"/></g><g><path d="M13.277 115.853c-1.206-.055-1.896-.545-2.658-1.479-.333-.41-.482-1.002-.304-1.271.292-.441.91.188 1.294.445 1.32.883 2.684.529 4.066-.035a.957.957 0 0 1 .721 1.771c-.962.393-2.068.618-3.119.569z" fill="#757575"/></g><g><path d="M28.203 112.067c-.274.001-.676-.344-.758-1.4-.132-1.716 1.458-3.128 3.597-3.618a.955.955 0 1 1 .427 1.863c-1.074.246-1.979.413-2.77 2.195-.162.364-.13.876-.496.96z" fill="#757575"/></g><g><path d="M34.725 125.28c-.472-.236-.704-.559-.494-.884.132-.205.714-.022 1.198.039.962.122 2.557-.42 3.315-1.254a.955.955 0 0 1 1.351-.064c.39.355.469 1.011.064 1.351-1.871 1.573-5.104.977-5.434.812z" fill="#757575"/></g></g></svg>