<svg id="レイヤー_1" xmlns="http://www.w3.org/2000/svg" viewBox="0 0 128 128"><g><g/><g/></g><path d="M116.078 75.725c-1.011-7.768-5.674-13.535-5.674-13.535 2.374.683 4.381 3.151 4.381 3.151a36.33 36.33 0 0 0-4.109-10.337l.289.208c5.093-13.751-1.928-18.907-4.607-19.177-.798-4.226-2.023-7.369-2.023-7.369 1.04.902 1.91 1.503 1.91 1.503-.119-4.93-3.447-10.594-8.481-15.271-4.689-4.355-10.37-5.558-10.37-5.558 1.244 0 3.731.57 3.731.57C80.876 1.912 68.436 2.361 64 2.071c-4.436.29-16.876-.159-27.126 7.839 0 0 2.487-.57 3.731-.57 0 0-5.681 1.203-10.368 5.558-5.034 4.677-8.362 10.341-8.481 15.271 0 0 .87-.601 1.91-1.503 0 0-1.226 3.145-2.024 7.373-2.695.296-9.665 5.459-4.585 19.174l.251-.181a36.296 36.296 0 0 0-4.093 10.31s2.007-2.468 4.381-3.151c0 0-4.663 5.767-5.674 13.535-.744 5.712-.278 9.285-.278 9.285s1.26-3.286 2.787-4.254c0 0-1.258 15.409 6.091 21.388 0 0-.268-3.303.693-4.67 0 0 1.733 4.432 9.023 10.014 6.231 4.771 8.443 11.05 8.443 11.05s2.698-2.165 2.444-3.788c0 0 1.998 5.671 7.547 8.282 0 0-.245-2.203.697-3.607 0 0 .716 1.82 2.246 2.943 1.695 1.245 3.014 1.846 5.273 2.239 0 0-1.13-1.253-.96-2.392 0 0 1.3 1.139 3.844 1.766 2.522.621 4.219 1.947 4.219 1.947l.011-.008c.003.003.011-.008.011-.008.787-.568 1.697-1.311 4.219-1.932 2.544-.626 3.844-1.766 3.844-1.766.17 1.139-.96 2.392-.96 2.392 2.259-.393 3.578-.995 5.273-2.239 1.53-1.123 2.246-2.943 2.246-2.943.942 1.404.697 3.607.697 3.607 5.549-2.611 7.547-8.282 7.547-8.282-.254 1.623 2.444 3.788 2.444 3.788s2.212-6.279 8.443-11.05c7.29-5.582 9.023-10.014 9.023-10.014.961 1.367.693 4.67.693 4.67 7.349-5.98 6.091-21.388 6.091-21.388 1.526.968 2.787 4.254 2.787 4.254s.461-3.573-.282-9.285z" fill="#2f2f2f" stroke="#464747" stroke-width="3" stroke-miterlimit="10"/><g><path d="M106.113 36.024c2.46-.04 10.108 4.996 4.851 19.189l-7.206-5.184 2.355-14.005z" fill="#999"/><path d="M106.828 42.023s3.925 1.473 3.384 5.691c-.12.937-1.442 1.122-1.812.253-.401-.94-1.038-1.797-2.049-2.054l.477-3.89z" fill="#2f2f2f"/><path d="M21.908 36.024c-2.46-.04-10.108 4.996-4.851 19.189l7.206-5.184-2.355-14.005z" fill="#999"/><path d="M64 2.071c-4.436.29-16.876-.159-27.126 7.839 0 0 2.487-.57 3.731-.57 0 0-5.681 1.203-10.368 5.558-5.034 4.677-8.362 10.341-8.481 15.271 0 0 .87-.601 1.91-1.503 0 0-4.589 11.753-1.79 20.381 0 0-6.201 5.607-8.661 16.294 0 0 2.007-2.468 4.381-3.151 0 0-4.663 5.767-5.674 13.535-.744 5.712-.278 9.285-.278 9.285s1.26-3.286 2.787-4.254c0 0-1.258 15.409 6.091 21.388 0 0-.268-3.303.693-4.67 0 0 1.732 4.432 9.023 10.014 6.231 4.771 8.443 11.05 8.443 11.05s2.698-2.165 2.444-3.788c0 0 1.998 5.671 7.547 8.282 0 0-.245-2.203.697-3.607 0 0 .716 1.82 2.246 2.943 1.695 1.245 3.014 1.846 5.273 2.239 0 0-1.13-1.253-.96-2.392 0 0 1.3 1.139 3.844 1.765s3.449 1.378 4.24 1.947L64 2.071z" fill="#2f2f2f"/><path d="M64 2.071c4.436.29 16.876-.159 27.126 7.839 0 0-2.487-.57-3.731-.57 0 0 5.681 1.203 10.368 5.558 5.034 4.677 8.362 10.341 8.481 15.271 0 0-.87-.601-1.91-1.503 0 0 4.589 11.753 1.79 20.381 0 0 6.201 5.607 8.661 16.294 0 0-2.007-2.468-4.381-3.151 0 0 4.663 5.767 5.674 13.535.744 5.712.278 9.285.278 9.285s-1.26-3.286-2.787-4.254c0 0 1.258 15.409-6.091 21.388 0 0 .268-3.303-.693-4.67 0 0-1.732 4.432-9.023 10.014-6.231 4.771-8.443 11.05-8.443 11.05s-2.698-2.165-2.444-3.788c0 0-1.998 5.671-7.547 8.282 0 0 .245-2.203-.697-3.607 0 0-.716 1.82-2.246 2.943-1.695 1.245-3.014 1.846-5.273 2.239 0 0 1.13-1.253.96-2.392 0 0-1.3 1.139-3.844 1.765-2.544.626-3.449 1.378-4.24 1.947L64 2.071z" fill="#2f2f2f"/><path d="M64.011 47.628c-1.696.058-9.667-7.232-19.335-7.232-8.994 0-14.759 8.807-14.425 22.19.043 1.708 1.259 3.175 2.923 3.56 3.956.914 10.827 3.418 11.178 9.827.494 9.027-6.269 8.179-4.414 20.729s18.306 12.739 24.073 12.739V47.628z" fill="#999"/><path d="M64.011 47.628c1.696.058 9.667-7.232 19.335-7.232 8.994 0 14.759 8.807 14.425 22.19-.043 1.708-1.259 3.175-2.923 3.56-3.956.914-10.827 3.418-11.178 9.827-.494 9.027 6.269 8.179 4.414 20.729S69.777 109.44 64.011 109.44V47.628z" fill="#999"/><path d="M59.827 69.967c-.113-.905-2.538-2.777-4.312-2.928-1.596-.136-3.739.895-5.828 2.566-2.402 1.921-2.976 4.207-2.976 6.242s.339 5.766 3.844 7.123c0 0-1.809-2.544-1.809-5.597 0-3.449 1.083-4.575 2.91-6.157 1.702-1.474 2.793-1.951 3.939-2.059 1.927-.181 4.232.81 4.232.81z" fill="#2f2f2f"/><path d="M60.87 79.464c-.263-1.071-.659-2.035-3.381-3.392-2.722-1.357-4.587-1.611-4.587.678s1.102 3.816 1.866 4.24c.763.424 4.834 1.95 5.597 1.357s.76-1.845.505-2.883z" fill="#2f2f2f"/><path d="M67.782 69.967c.113-.905 2.538-2.777 4.312-2.928 1.596-.136 3.739.895 5.828 2.566 2.402 1.921 2.976 4.207 2.976 6.242s-.339 5.766-3.844 7.123c0 0 1.809-2.544 1.809-5.597 0-3.449-1.083-4.575-2.91-6.157-1.702-1.474-2.793-1.951-3.939-2.059-1.927-.181-4.232.81-4.232.81z" fill="#2f2f2f"/><path d="M66.739 79.464c.263-1.071.659-2.035 3.381-3.392 2.722-1.357 4.587-1.611 4.587.678s-1.102 3.816-1.866 4.24c-.763.424-4.834 1.95-5.597 1.357-.763-.593-.76-1.845-.505-2.883z" fill="#2f2f2f"/><ellipse cx="80.244" cy="55.213" rx="4.775" ry="5.729" fill="#2f2f2f"/><ellipse cx="46.822" cy="55.213" rx="4.775" ry="5.729" fill="#2f2f2f"/><path d="M64.011 93.21c-8.952 0-16.114 7.692-17.188 7.692-2.149 0-3.468-2.817-3.468-2.817s-.523-.836 0-1.265c.523-.428.89.245 1.319.551s1.139.734 2.038.673 7.875-7.405 17.299-7.405 16.645 7.221 17.502 7.282 1.545-.061 2.188-.612c.494-.423 1.056-1.04 1.606-.673.551.367.126.997-.271 1.448 0 0-1.319 2.817-3.468 2.817-1.074 0-8.236-7.692-17.188-7.692" fill="#2f2f2f"/><path d="M21.193 42.023s-3.925 1.473-3.384 5.691c.12.937 1.442 1.122 1.812.253.401-.94 1.038-1.797 2.049-2.054l-.477-3.89z" fill="#2f2f2f"/><g fill="#999"><path d="M52.313 108.313s1.194 1.197 1.989 1.879c1.591 1.365 3.398 1.879 3.398 1.879s-1.551-1.333-1.248-3.441l-4.139-.317z"/><path d="M57.7 108.914s.43 1.344 1.881 2.438c1.423 1.073 1.447 2.17 1.447 2.17s.676-1.102.145-2.478c-.458-1.187-.048-2.13-.048-2.13H57.7z"/><path d="M75.589 108.313s-1.194 1.197-1.989 1.879c-1.591 1.365-3.398 1.879-3.398 1.879s1.551-1.333 1.248-3.441l4.139-.317z"/><path d="M70.202 108.914s-.43 1.344-1.881 2.438c-1.423 1.073-1.447 2.17-1.447 2.17s-.676-1.102-.145-2.478c.458-1.187.048-2.13.048-2.13h3.425z"/><path d="M62.45 109.174s-.326 1.478.723 3.539c1.049 2.062.651 2.785.651 2.785s.723-2.025 1.157-2.821c.434-.796.76-2.775.506-3.503H62.45z"/></g></g></svg>