<svg id="Layer_1" xmlns="http://www.w3.org/2000/svg" viewBox="0 0 128 128"><g id="XMLID_4_"/><g id="XMLID_1_"><path id="XMLID_58_" d="M41.255 90.149l.037.063c.077-.528.66-3.303.35-6.92.273 3.617-.326 6.404-.387 6.857z" fill="none"/><path id="XMLID_57_" d="M41.822 90.847l-.477-.546.356.604.121-.058z" fill="none"/><path id="XMLID_56_" d="M68.359 32.915l1.433-8.848c-.452 2.734-.88 5.263-1.433 8.848z" fill="#e6eeef"/><path id="XMLID_55_" d="M53.326 32.807c.042.107.084.228.127.363-.007-.091-.02-.189-.025-.278l-.102-.085z" fill="#e6eeef"/><path id="XMLID_52_" d="M125.08 76.085c-.415-1.156-.963-.764-1.16.116a18.9 18.9 0 0 1-.706 2.391 14.783 14.783 0 0 1-.646 1.485c-1.704 3.402-4.556 5.888-6.507 7.302-.537.389-1.247-.192-.97-.794 1.041-2.266 2.298-5.954 1.45-9.288-.794-3.13-5.419-6.119-7.66-10.289-1.532-2.847-1.012-7.339-1.097-8.502-.066-.955-.303-1.891-.586-2.705-.567-1.664-1.163-1.995-1.097-1.248.199 1.863.132 4.823-1.598 7.509-1.002 1.551-2.289 2.591-2.894 3.036-.975.715-1.94 1.2-2.789 1.531-.657.256-1.273-.432-.971-1.069.513-1.08 1-2.54 1.074-4.301.047-1.012.123-2.856-.87-4.71-1.188-2.227-2.835-2.406-4.948-4.44-.157-.152-.553-.116-.468.208.339 1.285.903 2.781 1.855 4.426a.698.698 0 0 1-.661 1.045c-1.336-.102-3.264-.503-5.047-1.853-2.062-1.56-2.885-3.603-3.14-4.246-1.267-3.244.046-4.908-1.193-7.925C83.78 42.137 83 41.021 82 40.359v-.002l-2.484-1.697c1.39-4.256 1.347-7.391.887-11.221-.36-3.052-1.343-5.874-2.84-8.163-.908-1.383-1.658-2.17-2.496-2.662-.227-.133-1.095-.658-2.291-.765-.762-.068-1.062.085-1.144.131-.84.464-.848 1.739-.847 1.891-.092.599-.18 1.161-.266 1.706l.067-.417s.77-1.782 2.727-.404c1.705 1.2 6.665 7.951 3.246 17.725-.3-.126-2.928-1.72-4.772-2.513-1.562-.672-3.428-1.054-3.428-1.054-.929-.156-1.96-.057-1.96-.057-.369-.104-1.579-.265-3.196 1.504-1.891 2.071-2.147 4.984-3.575 7.953-2.081 4.35-6.355 4.908-8.833 5.315-.492.076-.851-.388-.52-.775 1.267-1.504 3.754-3.509 4-6.421.127-1.512-.219-3.311-.517-5.007-.049 1.472-.594 3.303-2.381 5.174-4.076 4.275-10.431 1.608-10.431 1.608l-.885-1.43c-5 3.783-12.718 13.515-19.335 22.894 2.541.303 9.79 2.331 14.108 5.899 4.977 4.115 6.49 9.488 6.809 13.721.31 3.617-.274 6.392-.35 6.92l.053.09.477.546.029-.014c5.059-2.43 9.57-4.611 10.753-5.056.233-.088.526-.119.876-.119 2.414 0 9.289 1.622 15.807 1.622.568 0 0 0 .588-.03 2.264-.38 10.777-1.939 18.172-8.258 0 0 1.357-.92 2.494-2.118.573-.604 1.586-.133 1.557.698-.102 2.906-1.702 6.083-3.81 8.841-4.529 5.926-9.838 6.476-9.838 6.476L92.298 128H128V80.998c-1-.917-2.308-3.209-2.92-4.913zM62.798 56.974a4.35 4.35 0 0 1-5.587.496c-1.668-.836-2.829-2.544-2.829-4.524 0-1.396.572-2.671 1.495-3.594s2.187-1.495 3.594-1.495c1.396 0 2.671.572 3.594 1.495s1.495 2.198 1.495 3.594a5.008 5.008 0 0 1-1.028 3.022 4.354 4.354 0 0 1-.734 1.006z" fill="#ebf1f2"/><path id="XMLID_21_" d="M88.287 86.413c2.108-2.758 3.709-5.935 3.81-8.841.029-.831-.985-1.302-1.557-.698-1.137 1.198-2.494 2.118-2.494 2.118-7.394 6.319-15.908 7.878-18.172 8.258-.588.03-.02.03-.588.03-6.519 0-13.394-1.622-15.807-1.622-.35 0-.644.031-.876.119-1.182.444-5.693 2.625-10.753 5.056l-.029.014a36 36 0 0 0-.121.058c.061-.453.214-3.996-.058-7.614-.319-4.234-1.832-9.606-6.809-13.721-4.318-3.568-11.567-5.596-14.108-5.899C27.342 54.292 35.06 44.56 40.06 40.777l-.619-1.001-1.245-1.999c-5.904 4.453-14.806 15.092-20.82 23.628-4.756 6.715-8.544 12.84-10.662 17.239-1.828 3.797-.757 7.468.163 9.039 2.394 4.113 8.186 10.28 8.975 11.112.57.621 3.369 3.399 7.788 3.399 1.188 0 2.386-.205 3.563-.61 2.99-1.02 9.682-4.187 16.28-7.343l1.698-.816c3.529-1.697 7.168-3.446 8.453-3.993.624.042 1.794.277 2.928.505 2.582.519 6.058 1.398 10.128 1.484L80.424 128H92.298L78.449 92.888s5.309-.549 9.838-6.475zm-71.533-.643a2.85 2.85 0 1 1 .001-5.7 2.85 2.85 0 0 1-.001 5.7z" fill="#78a3ad"/><path id="XMLID_20_" d="M54.646 16.924c.073-.786 1.022-1.526 2.33-.325 1.913 1.756 2.494 4.13 2.663 5.648.181.091.366.19.556.3.964-.471 2.084-.87 2.979-.982-.234-1.559-.662-3.087-1.429-4.556-1.036-1.984-3.51-4.416-5.86-4.445-2.35-.028-2.554 1.241-2.554 1.241l-1.375 8.728c.586-.199 1.167-.453 1.799-.672.337-1.752.843-4.418.891-4.937z" fill="#78a3ad"/><path id="XMLID_19_" d="M54.646 16.924c-.048.519-.554 3.185-.892 4.937.218-.075.441-.147.674-.209a6.764 6.764 0 0 1 2.033-.255c.797.028 1.885.204 3.177.85-.169-1.518-.751-3.891-2.663-5.648-1.307-1.201-2.256-.461-2.329.325z" fill="#b89278"/><path id="XMLID_18_" d="M59.47 58.024a5.021 5.021 0 0 1-2.26-.554 4.346 4.346 0 0 0 5.587-.496c.296-.292.532-.638.734-1.006-.147.195-.294.39-.467.561a5.078 5.078 0 0 1-3.594 1.495z" fill="#fff"/><path id="XMLID_17_" d="M68.359 32.915s1.866.382 3.428 1.054c1.844.793 4.472 2.387 4.772 2.513 3.42-9.774-1.541-16.525-3.246-17.725-1.957-1.378-2.727.404-2.727.404l-.068.417-.727 4.489-1.432 8.848z" fill="#b89278"/><path id="XMLID_14_" d="M63.064 49.351a5.078 5.078 0 0 0-3.594-1.495c-1.407 0-2.671.572-3.594 1.495s-1.495 2.198-1.495 3.594c0 1.98 1.161 3.687 2.829 4.524a5.021 5.021 0 0 0 2.26.554 5.078 5.078 0 0 0 3.594-1.495c.173-.171.32-.366.467-.561a5.008 5.008 0 0 0 1.028-3.022c0-1.395-.571-2.67-1.495-3.594zm-3.594 2.43a1.495 1.495 0 1 1 0-2.99 1.495 1.495 0 0 1 0 2.99z" fill="#2f2f2f"/><path id="XMLID_8_" d="M16.754 80.073a2.85 2.85 0 1 0 .001 5.697 2.85 2.85 0 0 0-.001-5.697z" fill="#2f2f2f"/><circle id="XMLID_7_" cx="59.47" cy="50.286" r="1.495" fill="#939090"/><path id="XMLID_5_" d="M120.375 45.684c-.915-.367-2.604-.598-4.747-.513-.567.023-.791-.615-.346-1.034 2.922-2.748 4.276-6.486 4.069-6.66-.435-.447-1.002.53-2.43 1.419-2.194 1.371-4.757 1.787-6.412 1.674-4.596-.322-4.547-4.499-9.768-6.872-1.513-.687-4.741-.565-7.741.094v-.001c0-2.032-.499-3.521-.958-4.385-.466-.878-2.096-2.68-4.177-3.739-1.95-.993-4.452-.667-5.006-.667h-.011l.223.79C83.506 29.412 83 35.751 82 40.356v.002c1 .662 1.78 1.778 2.452 3.405 1.239 3.017-.07 4.681 1.198 7.925.255.643 1.076 2.686 3.138 4.246 1.783 1.35 3.71 1.751 5.046 1.853a.697.697 0 0 0 .66-1.045c-.952-1.646-1.517-3.141-1.855-4.426-.085-.324.31-.36.468-.208 2.113 2.034 3.76 2.213 4.948 4.44.993 1.854.917 3.698.87 4.71a11.101 11.101 0 0 1-1.074 4.301c-.303.637.314 1.325.971 1.069a12.219 12.219 0 0 0 2.789-1.531c.605-.445 1.891-1.485 2.894-3.036 1.731-2.686 1.797-5.646 1.598-7.509-.066-.747.53-.416 1.097 1.248.284.813.52 1.75.586 2.705.085 1.163-.435 5.655 1.097 8.502 2.241 4.171 6.866 7.159 7.66 10.289.847 3.334-.41 7.022-1.451 9.288-.277.603.432 1.183.969.794 1.951-1.413 4.802-3.9 6.505-7.302a15 15 0 0 0 .643-1.485c.298-.815.528-1.614.701-2.391.196-.88.755-1.273 1.17-.116.612 1.704 1.92 3.997 2.92 4.913V62.179l.017-11.791s-3.968-3.241-7.642-4.704z" fill="#855c52"/><path id="XMLID_3_" d="M48.834 28.916l1.008.872 3.484 3.019.102.084c.005.09.018.187.025.278.041.522.107 1.069.197 1.646.033.199.071.407.107.61.298 1.696.644 3.496.517 5.007-.246 2.913-2.733 4.918-4 6.421-.331.388.028.851.52.775 2.478-.407 6.752-.965 8.833-5.315 1.428-2.97 1.683-5.882 3.575-7.953 1.617-1.768 2.828-1.608 3.196-1.504l.49-3.363 1.028-7.061c-1.22-1.021-3.316-1.033-4.681-.88-.019.002-.042.009-.062.011-.895.112-2.016.512-2.979.982a9.93 9.93 0 0 0-.556-.3c-1.293-.646-2.381-.822-3.177-.85a6.764 6.764 0 0 0-2.033.255 9.32 9.32 0 0 0-.674.209c-.632.219-1.213.473-1.799.672-.879.299-1.773.468-2.88.169-.435-.123-1.967-.53-2.96-1.835-1.825-2.402-1.89-3.278-1.89-3.278-.028-.057-.216-1.161-.672-.571-.331.009-.747 2.667-.454 4.993.089.654.266 1.515.636 2.492.063.168-.076-.175 0 0l5.099 4.415z" fill="#855c52"/><path id="XMLID_2_" d="M68.359 32.915c.553-3.585.981-6.114 1.433-8.848l.727-4.489c.086-.545.174-1.108.266-1.706-.001-.152.007-1.427.847-1.891.082-.045.381-.198 1.144-.131 1.196.107 2.063.631 2.29.765.838.492 1.586 1.278 2.495 2.662 1.497 2.289 2.478 5.111 2.838 8.163.46 3.829.498 6.965-.891 11.221l2.476 1.697c2.142-7.044 1.515-10.944 1.08-14.566L82.848 25h.011c-.477-2-1.332-4.643-2.926-7.133-.973-1.52-1.992-2.794-3.463-3.649-.963-.56-1.989-.898-3.177-1.121-1.083-.2-2.191.023-3.037.64a3.475 3.475 0 0 0-1.419 2.382l-1.948 13.379-.49 3.361c0 .001 1.031-.1 1.96.056z" fill="#78a3ad"/><path id="XMLID_60_" d="M53.651 34.815a21.742 21.742 0 0 1-.197-1.646c-.024-.075-.047-.136-.071-.203.012-.025.038-.051.046-.075l-9.693-8.389c-.037-.085-.023-.046-.006-.005l-.505-.42-.927-.766-6.194-5.135-6.366-5.276-4.918-4.085-2.106-1.747c-1.125-1.239-3.169.086-2.582 1.646l1.388 2.238 3.3 5.305 4.388 7.055 4.294 6.913 4.664 7.504.031.049 1.245 1.999.619 1.001.885 1.43s6.355 2.667 10.431-1.608c1.787-1.87 2.332-3.702 2.381-5.174a37.474 37.474 0 0 1-.107-.611z" fill="#fbc21a"/></g></svg>