<svg id="レイヤー_1" xmlns="http://www.w3.org/2000/svg" xmlns:xlink="http://www.w3.org/1999/xlink" viewBox="0 0 128 128"><g id="NNakuP.tif"/><path d="M65.264 7.227c1.802-.971 7.302-3.493 15.652-3.391 1.121.014 1.486 1.535.478 2.026l-.126.062c-.99.496-.667 1.992.44 2.029 3.594.121 9.535.565 14.511 2.11 1.023.318.69 1.842-.371 1.694a11.002 11.002 0 0 0-.191-.026c-1.039-.141-1.409 1.327-.42 1.677 7.851 2.778 19.053 9.018 23.37 22.585.295.927-.726 1.719-1.567 1.229-1.727-1.006-4.313-2.3-7.4-3.17-.989-.279-1.753.889-1.114 1.694 4.01 5.049 12.36 17.643 10.63 33.221l-1.874 16.87c-.117 1.049-1.521 1.314-2.011.378l-2.232-4.262c-.529-1.01-2.063-.605-2.017.534.217 5.295.127 13.555-2.04 18.7-1.843 4.378-2.685 7.503-3.069 9.444-.176.892-1.318 1.162-1.882.449a590.103 590.103 0 0 0-3.914-4.902 1.066 1.066 0 0 0-1.843.331c-.987 2.985-3.556 8.728-9.369 12.088-.747.432-1.672-.187-1.587-1.045l.432-4.364c0-.958-1.02-1.464-1.721-.918-3.761 2.926-12.4 12.524-26.271 13.062a1.061 1.061 0 0 1-1.093-1.114c.126-2.401-.326-7.997-6.734-10.795-.518-.226-1.125-.042-1.393.456-.549 1.018-1.372 2.836-1.387 4.604-.006.708-.658 1.229-1.341 1.042-2.856-.781-9.083-3.373-12.763-11.582a1.068 1.068 0 0 0-1.866-.161 14.858 14.858 0 0 0-1.865 3.919c-.208.681-.99.997-1.592.616-3.395-2.15-12.633-8.914-14.013-19.607-.871-6.754-1.295-11.492-1.501-14.503-.076-1.111-1.586-1.38-2.041-.364-.686 1.534-1.446 3.391-2.058 5.294-.354 1.103-1.966.928-2.08-.226-.542-5.548-.838-13.985.899-22.423C11.897 46.074 19.105 43.53 19.105 43.53l-8.516 2.839a1.07 1.07 0 0 1-1.391-1.21c.868-4.775 4.238-18.006 15.565-24.078.901-.483.677-1.843-.335-1.992-1.36-.201-3.043-.328-4.812-.171-1.068.095-1.603-1.24-.762-1.905 3.571-2.822 9.866-6.854 17.208-7.398a131.66 131.66 0 0 1 7.785-.368c1.233-.018 1.456-1.773.267-2.098a44.055 44.055 0 0 0-4.454-.988c-1.091-.178-1.25-1.672-.214-2.058 5.591-2.085 16.263-4.499 24.595 2.963.339.303.821.377 1.223.161z" fill="#855c52"/><path d="M100.913 59.899C97.919 43.3 92.595 24.438 65.29 24.438v-.022c-.135 0-.264.009-.398.01-.121-.001-.24-.01-.362-.01v.02c-29.029 0-34.445 18.845-37.443 35.463-3.032 16.807 3.003 29.454 18.192 31.747 9.645 1.456 6.023 6.725 17.434 7.398l-.002.072c.448 0 .877-.006 1.29-.017.412.011.841.017 1.29.017v-.072c11.409-.673 7.788-5.942 17.432-7.398 15.188-2.293 21.222-14.94 18.19-31.747z" fill="#fcc21c"/><g fill="#fcc21c"><path d="M77.248 27.807s8.645-10.165 17.098-2.578c6.647 5.966.219 18.519.219 18.519s-15.528-4.96-17.317-15.941z"/><path d="M51 27.807s-8.645-10.165-17.098-2.578c-6.647 5.966-.219 18.519-.219 18.519S49.211 38.788 51 27.807z"/></g><path d="M101.518 64.416c-11.768 13.327-20.086 1.053-37.685 1-17.815-.054-27.374 11.1-37.281-1.751-1.678 13.297 3.537 25.687 18.726 27.98 9.645 1.456 6.023 6.725 17.434 7.398l-.002.072c.448 0 .877-.006 1.29-.017.412.011.841.017 1.29.017v-.072c11.409-.673 7.788-5.942 17.432-7.398 15.189-2.292 20.403-14.682 18.796-27.229z" fill="#fec"/><g fill="#2f2f2f"><ellipse cx="48" cy="49.416" rx="4.5" ry="5"/><ellipse cx="80" cy="49.416" rx="4.5" ry="5"/></g><path d="M55.319 61.548c-2.487.96 2.25 7.683 8 7.683s8.58-4.85 9.013-6.402c.625-2.241-9.583-4.149-17.013-1.281z" fill="#2f2f2f"/><path fill="none" stroke="#2f2f2f" stroke-width="4" stroke-miterlimit="10" d="M63.5 75.416v-9"/><g><g><path d="M49 80.987c2.25.091 8.035.921 14.5-6.571" fill="none" stroke="#2f2f2f" stroke-width="4" stroke-linecap="round" stroke-miterlimit="10"/></g></g><g><g><path d="M77.924 80.987c-2.25.091-8.035.921-14.5-6.571" fill="none" stroke="#2f2f2f" stroke-width="4" stroke-linecap="round" stroke-miterlimit="10"/></g></g><path d="M83.384 30.683c-.576-.504-.492-1.432.175-1.806 1.888-1.06 5.404-2.521 7.63-.295 2.169 2.169 1.363 5.564.642 7.482a1.117 1.117 0 0 1-1.783.451l-6.664-5.832z" fill="#2f2f2f"/><path d="M45.211 30.307c.576-.504.492-1.432-.175-1.806-1.888-1.06-5.404-2.521-7.63-.295-2.169 2.169-1.363 5.564-.642 7.482a1.117 1.117 0 0 0 1.783.451l6.664-5.832z" fill="#2f2f2f"/><circle cx="51" cy="67.416" r="2" fill="#2f2f2f"/><circle cx="50" cy="74.416" r="2" fill="#2f2f2f"/><circle cx="43.5" cy="69.416" r="2" fill="#2f2f2f"/><circle cx="76" cy="67.416" r="2" fill="#2f2f2f"/><circle cx="83" cy="69.416" r="2" fill="#2f2f2f"/><circle cx="77" cy="74.416" r="2" fill="#2f2f2f"/><path d="M57.708 81.531s2.458-1.013 5.792-1.013c3.333 0 6.25 1.232 6.25 1.232l-6.25-5.787-5.792 5.568z" fill="#2f2f2f"/></svg>