<svg id="图层_1" xmlns="http://www.w3.org/2000/svg" xmlns:xlink="http://www.w3.org/1999/xlink" viewBox="0 0 128 128"><g><defs/><clipPath id="SVGID_2_"><use xlink:href="#SVGID_1_" overflow="visible"/></clipPath><g id="y442fE_1_" clip-path="url(#SVGID_2_)"/></g><g/><g><path d="M123.764 71.871c-5.108-3.983-11.572-5.442-19.848-2.084-6.93 2.812-12.837 11.457-17.061 17.233-3.257 4.454-7.15 9.96-13.376 10.143-4.702.139-9.466-4.751-9.729-9.61-.274-5.078 3.196-7.366 5.984-11.081 0 0-7.065-6.312-9.122-9.085-2.774-2.057-9.085-9.122-9.085-9.122-3.715 2.788-6.003 6.258-11.081 5.984-4.859-.262-9.749-5.026-9.61-9.729.183-6.226 5.689-10.118 10.143-13.376C46.754 36.92 55.4 31.013 58.212 24.083c3.358-8.276 1.9-14.739-2.084-19.848-2.594-3.327-4.866-3.554-4.654-.973.408 4.972-2.661 9.87-6.287 14.524-1.908 2.45 1.769 2.863 1.374 5.676-.692 4.924-8.251 8.194-12.641 11.615-4.752 3.703-9.956 8.183-11.305 14.563-1.477 6.984.513 11.309 5.217 16.023 4.291 4.3 7.367 4.467 9.01 5.881 1.25 1.042-3.394 3.661-6.474 2.176-3.447-1.662-4.99-5.677-6.277-7.894-3.735-6.439-7.971-12.338-16.264-11.035-2.891.454-7.922 3.8-5.818 7.047 2.637 4.07 7.46-1.027 10.916.518 2.697 1.205 4.627 4.521 5.931 7.079 1.493 2.929 3.401 5.791 5.987 8.065 3.958 3.48 8.719 2.147 8.93 3.331.449 1.269-2.601 4.679-5.537 6.033-2.891 1.332-6.876 1.349-9.837-.092-2.436-1.186-5.351-3.35-5.508-6.168-.075-1.35.143-2.471.989-3.57 1.24-1.609 3.108-1.342 3.571-2.145 1.049-1.819-1.597-3.563-3.623-3.728-2.454-.199-4.9.711-6.496 2.689-5.229 6.48 1.002 15.813 7.722 18.698 6.342 2.722 11.148 2.014 15.389.959 2.372-.59 4.263-1.603 4.958-.908.694.694-.318 2.586-.908 4.958-1.055 4.241-1.763 9.047.959 15.389 2.885 6.72 12.218 12.95 18.698 7.722 1.978-1.596 2.888-4.042 2.689-6.496-.164-2.026-1.909-4.672-3.728-3.623-.803.463-.536 2.332-2.145 3.571-1.098.846-2.22 1.064-3.57.989-2.818-.157-4.982-3.072-6.168-5.508-1.442-2.961-1.425-6.946-.092-9.837 1.353-2.937 4.763-5.986 6.033-5.537 1.183.211-.15 4.972 3.331 8.93 2.273 2.585 5.135 4.493 8.065 5.987 2.558 1.304 5.873 3.234 7.079 5.931 1.545 3.457-3.553 8.279.518 10.916 3.247 2.104 6.593-2.927 7.047-5.818 1.303-8.292-4.596-12.528-11.035-16.263-2.217-1.286-6.232-2.83-7.894-6.277-1.485-3.08 1.134-7.724 2.176-6.474 1.414 1.643 1.581 4.719 5.881 9.01 4.714 4.704 9.039 6.694 16.023 5.217 6.379-1.349 10.86-6.552 14.563-11.305 3.421-4.39 6.691-11.949 11.615-12.641 2.813-.395 3.226 3.282 5.676 1.374 4.655-3.626 9.552-6.695 14.524-6.287 2.581.21 2.354-2.062-.974-4.656z" fill="#ea88a9"/><g><defs><path id="SVGID_3_" d="M35.402 92.598c-.694-.694-2.586.318-4.958.908-4.241 1.055-9.047 1.763-15.389-.959-6.72-2.885-12.95-12.218-7.722-18.698 1.596-1.978 4.042-2.888 6.496-2.689 2.026.164 4.672 1.909 3.623 3.728-.463.803-2.332.536-3.571 2.145-.846 1.098-1.064 2.22-.989 3.57.157 2.818 3.072 4.982 5.508 6.168 2.961 1.442 6.946 1.425 9.837.092 2.937-1.353 5.986-4.763 5.537-6.033-.211-1.183-4.972.15-8.93-3.331-2.585-2.273-4.493-5.135-5.987-8.065-1.304-2.558-3.234-5.873-5.931-7.079-3.457-1.545-8.279 3.553-10.916-.518-2.104-3.247 2.927-6.593 5.818-7.047 8.292-1.303 12.528 4.596 16.264 11.035 1.286 2.217 2.83 6.233 6.277 7.894 3.08 1.485 7.724-1.134 6.474-2.176-1.643-1.414-4.719-1.581-9.01-5.881-4.704-4.714-6.694-9.039-5.217-16.023 1.349-6.379 6.552-10.86 11.305-14.563 4.39-3.421 11.949-6.691 12.641-11.615.395-2.813-3.282-3.226-1.374-5.676 3.626-4.655 6.695-9.552 6.287-14.524-.212-2.581 2.06-2.354 4.654.973 3.983 5.108 5.442 11.572 2.084 19.848-2.812 6.93-11.457 12.837-17.233 17.061-4.454 3.257-9.96 7.15-10.143 13.376-.139 4.702 4.751 9.466 9.61 9.729 5.078.274 7.366-3.196 11.081-5.984 0 0 6.312 7.065 9.085 9.122"/></defs><clipPath id="SVGID_4_"><use xlink:href="#SVGID_3_" overflow="visible"/></clipPath><path d="M45.493 57.003c-.769 1.403-.039 7.131 1.896 11.171.802 1.673 2.334 4.21 5.281 7.156 1.99-1.02 4.773-.283 6.6-1.529.845-.576 1.548-1.037 1.503-2.189-.068-1.745-1.369-3.702-2.121-5.262-1.348-2.798-1.94-6.331-5.162-7.434-2.461-.843-5.421-1.813-7.997-1.913" clip-path="url(#SVGID_4_)" fill="#9d69ac"/></g><path d="M111.306 13.868c-9.299-3.741-19.465-7.658-29.36-6.463-4.237.512-9.43 2.639-8.842 7.793.69 6.048 7.525 10.168 12.963 10.93 10.18 1.426 18.281-6.083 25.044-12.065" fill="#ea88a9"/><g><defs><path id="SVGID_5_" d="M111.306 13.868c-9.299-3.741-19.465-7.658-29.36-6.463-4.237.512-9.43 2.639-8.842 7.793.69 6.048 7.525 10.168 12.963 10.93 10.18 1.426 18.281-6.083 25.044-12.065"/></defs><clipPath id="SVGID_6_"><use xlink:href="#SVGID_5_" overflow="visible"/></clipPath><path d="M99.093 6.818c-.366 4.267-6.014 5.455-10.355 7.045-5.55 2.034-7.003 4.851-11.25 3.9-1.955-.438-3.622-1.558-4.918-2.854-1.503-1.503 2.52 6.427 3.507 7.116 9.089 6.342 19.304 2.548 26.747-3.155 1.902-1.457 7.321-5.097 6.435-8.254-.79-2.818-7.953-3.229-10.166-3.798z" clip-path="url(#SVGID_6_)" fill="#9d69ac"/></g><circle cx="44.524" cy="67.118" r="6.239"/><g><defs><path id="SVGID_7_" d="M35.402 92.598c.694.694-.318 2.586-.908 4.958-1.055 4.241-1.763 9.047.959 15.389 2.885 6.72 12.218 12.95 18.698 7.722 1.978-1.596 2.888-4.042 2.689-6.496-.164-2.026-1.909-4.672-3.728-3.623-.803.463-.536 2.332-2.145 3.571-1.098.846-2.22 1.064-3.57.989-2.818-.157-4.982-3.072-6.168-5.508-1.442-2.961-1.425-6.946-.092-9.837 1.353-2.937 4.763-5.986 6.033-5.537 1.183.211-.15 4.972 3.331 8.93 2.273 2.585 5.135 4.493 8.065 5.987 2.558 1.304 5.873 3.234 7.079 5.931 1.545 3.457-3.553 8.279.518 10.916 3.247 2.104 6.593-2.927 7.047-5.818 1.303-8.292-4.596-12.528-11.035-16.264-2.217-1.286-6.233-2.83-7.894-6.277-1.485-3.08 1.134-7.724 2.176-6.474 1.414 1.643 1.581 4.719 5.881 9.01 4.714 4.704 9.039 6.694 16.023 5.217 6.379-1.349 10.86-6.552 14.563-11.305 3.421-4.39 6.691-11.949 11.615-12.641 2.813-.395 3.226 3.282 5.676 1.374 4.655-3.626 9.552-6.695 14.524-6.287 2.581.212 2.354-2.06-.973-4.654-5.108-3.983-11.572-5.442-19.848-2.084-6.93 2.812-12.837 11.457-17.061 17.233-3.257 4.454-7.15 9.96-13.376 10.143-4.702.139-9.466-4.751-9.729-9.61-.274-5.078 3.196-7.366 5.984-11.081 0 0-7.065-6.312-9.122-9.085"/></defs><clipPath id="SVGID_8_"><use xlink:href="#SVGID_7_" overflow="visible"/></clipPath><path d="M70.997 82.507c-1.403.769-7.131.039-11.171-1.896-1.673-.802-4.21-2.334-7.156-5.281 1.02-1.99.283-4.773 1.529-6.6.576-.845 1.037-1.548 2.189-1.503 1.745.068 3.702 1.369 5.262 2.121 2.798 1.348 6.331 1.94 7.434 5.162.843 2.461 1.813 5.421 1.913 7.997" clip-path="url(#SVGID_8_)" fill="#9d69ac"/></g><path d="M114.132 16.694c3.741 9.299 7.658 19.465 6.463 29.36-.512 4.237-2.639 9.43-7.793 8.842-6.048-.69-10.168-7.525-10.93-12.963-1.426-10.18 6.083-18.281 12.065-25.044" fill="#ea88a9"/><g><defs><path id="SVGID_9_" d="M114.132 16.694c3.741 9.299 7.658 19.465 6.463 29.36-.512 4.237-2.639 9.43-7.793 8.842-6.048-.69-10.168-7.525-10.93-12.963-1.426-10.18 6.083-18.281 12.065-25.044"/></defs><clipPath id="SVGID_10_"><use xlink:href="#SVGID_9_" overflow="visible"/></clipPath><path d="M121.182 28.907c-4.267.366-5.455 6.014-7.045 10.355-2.034 5.55-4.851 7.003-3.9 11.25.438 1.955 1.558 3.622 2.854 4.918 1.503 1.503-6.427-2.52-7.116-3.507-6.342-9.089-2.548-19.304 3.155-26.747 1.457-1.902 5.097-7.321 8.254-6.435 2.818.79 3.229 7.953 3.798 10.166z" clip-path="url(#SVGID_10_)" fill="#9d69ac"/></g><path d="M116.316 11.684c-2.892-2.892-34.873 6.961-54.85 25.365-5.325 4.905-9.233 9.668-11.319 16.816-2.249 7.707 2.159 12.718 6.715 17.274s9.567 8.964 17.274 6.715c7.148-2.086 11.911-5.995 16.816-11.319 18.403-19.978 28.257-51.959 25.364-54.851z" fill="#ea88a9"/><circle cx="60.882" cy="83.476" r="6.239"/></g><g><g><g><g><defs/><use xlink:href="#SVGID_11_" overflow="visible" fill="#ea88a9"/><clipPath id="SVGID_12_"><use xlink:href="#SVGID_11_" overflow="visible"/></clipPath></g><g><defs/><use xlink:href="#SVGID_13_" overflow="visible" fill="#ea88a9"/><clipPath id="SVGID_14_"><use xlink:href="#SVGID_13_" overflow="visible"/></clipPath></g></g></g><g><g><g><defs/><use xlink:href="#SVGID_15_" overflow="visible" fill="#ea88a9"/><clipPath id="SVGID_16_"><use xlink:href="#SVGID_15_" overflow="visible"/></clipPath></g><g><defs/><use xlink:href="#SVGID_17_" overflow="visible" fill="#ea88a9"/><clipPath id="SVGID_18_"><use xlink:href="#SVGID_17_" overflow="visible"/></clipPath></g></g></g></g></svg>