<svg id="图层_1" xmlns="http://www.w3.org/2000/svg" xmlns:xlink="http://www.w3.org/1999/xlink" viewBox="0 0 128 128"><g><path d="M25.099 79.953c5.076-2.536 8.905-.073 10.512 3.93" fill="none" stroke="#dd5728" stroke-width="2.35" stroke-linecap="round" stroke-linejoin="round" stroke-miterlimit="10"/><path d="M25.761 74.958c5.596-.934 8.534 2.545 8.895 6.843" fill="none" stroke="#dd5728" stroke-width="2.35" stroke-linecap="round" stroke-linejoin="round" stroke-miterlimit="10"/><path d="M26.831 68.487c5.474-1.491 8.781 1.411 8.781 6.319" fill="none" stroke="#dd5728" stroke-width="2.35" stroke-linecap="round" stroke-linejoin="round" stroke-miterlimit="10"/><path d="M28.459 63.719c5.671.182 8.779 3.046 8.734 8.456" fill="none" stroke="#dd5728" stroke-width="2.35" stroke-linecap="round" stroke-linejoin="round" stroke-miterlimit="10"/><path d="M38.438 58.165c3.734 2.48 5.605 7.731 3.255 11.313" fill="none" stroke="#dd5728" stroke-width="2.35" stroke-linecap="round" stroke-linejoin="round" stroke-miterlimit="10"/><path d="M40.238 56.973c4.112 1.808 9.255 7.052 6.427 13.915" fill="none" stroke="#dd5728" stroke-width="2.35" stroke-linecap="round" stroke-linejoin="round" stroke-miterlimit="10"/><path d="M43.858 56.973c4.112 1.808 22.875 5.607 24.579 14.286" fill="none" stroke="#dd5728" stroke-width="2.35" stroke-linecap="round" stroke-linejoin="round" stroke-miterlimit="10"/><path d="M44.742 56.092c5.581.881 34.881 3.584 36.585 12.264" fill="none" stroke="#dd5728" stroke-width="2.35" stroke-linecap="round" stroke-linejoin="round" stroke-miterlimit="10"/><g><path d="M97.98 37a1.175 1.175 0 0 1-.256-2.322c6.836-1.533 13.22-6.8 15.525-12.809 1.057-2.754 1.723-6.873-1.103-10.852-6.718-9.46-23.796-8.067-44.57 3.639l-2.61 1.475C51.491 23.755 46.29 27.601 29.985 29.22c-3.82.379-7.682-.074-7.736-.721-.055-.647 3.783.103 7.659-.61 15.257-2.806 16.507-3.306 33.9-13.803l2.613-1.477C88.664.076 106.474-1.029 114.062 9.656c2.675 3.766 3.165 8.402 1.38 13.054-2.611 6.807-9.525 12.538-17.205 14.26-.085.021-.172.03-.257.03z" fill="#dd5728"/></g><g><path d="M96.829 37a1.175 1.175 0 0 1-.256-2.322c6.362-1.427 9.651-6.642 10.607-11.047 1.084-4.992-.434-9.753-3.961-12.425-9.811-7.43-24.344-6.931-44.428 1.53C42.486 19.605 36.25 22.917 23.9 19.99c-1.503-.356-5.242-1.908-5.16-2.552.082-.644 4.583 1.645 8.821 1.829 9.523.414 11.773-.35 30.319-8.696 20.705-9.318 36.221-9.219 46.758-1.237 4.266 3.23 6.12 8.9 4.84 14.797-1.417 6.524-6.164 11.445-12.391 12.841a1.199 1.199 0 0 1-.258.028z" fill="#dd5728"/></g><path d="M26.072 94.555c1.15-.338 6.325 3.224 11.404 5.581 3.413 1.584 11.545 3.516 15.124 4.681 2.572.838 5.165 2.315 5.514 4.927.517 3.87-3.59 4.476-5.608 4.328-5.996-.441-14.125-4.507-18.525-8.552-3.539-3.252-10.579-10.179-7.909-10.965z" fill="#dd5728"/><path d="M25.427 95.526c1.406.123 5.604 5.59 10.201 9.855 3.089 2.866 11.221 7.916 14.667 10.442 2.477 1.816 4.709 4.257 4 6.917-1.051 3.941-5.819 2.919-7.975 1.986-6.407-2.773-13.642-9.883-16.787-15.512-2.529-4.527-7.371-13.974-4.106-13.688z" fill="#f37021"/><g><defs><path id="SVGID_1_" d="M15.871 76.288c-3.132.517-3.334 3.524-2.08 5.884 2.732 5.141 4.052 9.394 7.612 14.371 1.059 1.481 2.854 3.54 4.749 3.095 1.867-.439 3.602-2.913 3.616-4.7.078-9.987-1.415-15.715-2.955-16.89-3.188-2.432-8.5-2.389-10.942-1.76z"/></defs><use xlink:href="#SVGID_1_" overflow="visible" fill="#f37021"/><clipPath id="SVGID_2_"><use xlink:href="#SVGID_1_" overflow="visible"/></clipPath><path d="M12.333 80.668c1.175-1.567 4.825.455 7.236.832 2.986.467 6.814-.881 10.2 10.33.513 1.699 2.244-10.868-2.205-15.078-2.049-1.939-5.901-1.657-8.608-1.433-3.003.248-5.591.844-7.995 2.607" clip-path="url(#SVGID_2_)" fill="#dd5728"/></g><g><defs><path id="SVGID_3_" d="M16.948 64.735c-2.546-.71-4.392-.093-5.074 2.623-.85 3.386-.369 9.763 2.454 11.081 3.389 1.583 9.664 1.634 12.41-.923 1.013-.944 1.762-7.541-1.104-9.168-3.473-1.972-4.9-2.827-8.686-3.613z"/></defs><use xlink:href="#SVGID_3_" overflow="visible" fill="#f37021"/><clipPath id="SVGID_4_"><use xlink:href="#SVGID_3_" overflow="visible"/></clipPath><path d="M11.604 68.893c1.466-.758 2.648 2.656 6.506 4.04 5.292 1.898 8.518 1.371 9.113 3.616.629 2.373 4.497-4.544.524-8.005-2.941-2.562-7.286-4.131-11.071-4.8-2.753-.487-5.313-.387-6.301 2.531" clip-path="url(#SVGID_4_)" fill="#dd5728"/></g><g><defs><path id="SVGID_5_" d="M21.604 52.352c-3.311-1.462-5.361-.077-6.982 2.847-1.707 3.078-3.066 9.474-.306 12.089 2.923 2.769 9.926 5.687 12.416 2.742 1.518-1.796 3.604-6.241 2.225-9.749-1.9-4.834-3.1-6.082-7.353-7.929z"/></defs><use xlink:href="#SVGID_5_" overflow="visible" fill="#f37021"/><clipPath id="SVGID_6_"><use xlink:href="#SVGID_5_" overflow="visible"/></clipPath><path d="M14.393 55.654c2.215-1.065 3.098 4.934 4.759 6.481 5.182 4.825 8.388 5.009 8.251 6.975-.147 2.118 3.548-4.685 3.548-4.685-.227-2.154-1.696-4.221-2.97-5.886-1.728-2.257-3.785-4.334-6.102-5.988-1.566-1.117-3.877-2.608-5.91-1.98-1.57.485-2.255 2.186-2.851 3.563" clip-path="url(#SVGID_6_)" fill="#dd5728"/></g><g><defs><path id="SVGID_7_" d="M31.897 42.261c-3.689-2.144-8.383 1.287-11.106 3.473-3.066 2.462-4.295 5.62-2.95 9.696 1.5 4.545 6.019 9.144 10.807 8.542 3.672-.462 7.784-4.155 8.533-7.647 1.156-5.387-.823-11.053-5.284-14.064z"/></defs><use xlink:href="#SVGID_7_" overflow="visible" fill="#f37021"/><clipPath id="SVGID_8_"><use xlink:href="#SVGID_7_" overflow="visible"/></clipPath><path d="M24.474 42.58c1.762.544.587 6.658 1.769 11.389 1.51 6.046 6.064 7.019 4.443 9.435-.558.831 5.773-1.282 6.624-1.963 1.081-.865.331-2.879.018-3.928-.917-3.074-2.209-6.064-3.53-8.982-1.236-2.731-2.588-6.383-4.992-8.341-1.459-1.188-2.591-.259-3.647.922" clip-path="url(#SVGID_8_)" fill="#dd5728"/></g><g><defs><path id="SVGID_9_" d="M43.922 38.731c-1.984-3.86-10.318-2.239-13.659.539-3.877 3.224-2.897 7.683-1.966 12.061.927 4.357 3.763 8.392 8.135 8.486 4.479.096 10.06-1.693 10.893-5.156 1.309-5.446-.92-11.369-3.403-15.93z"/></defs><use xlink:href="#SVGID_9_" overflow="visible" fill="#f37021"/><clipPath id="SVGID_10_"><use xlink:href="#SVGID_9_" overflow="visible"/></clipPath><path d="M38.438 33.475c-.494.651-5.079 3.227-3.977 2.973 3.124-.721 1.965 6.534 3.124 11.686 1.404 6.243 3.32 8.431 0 11.662-2.656 2.584 8.987-.611 10.127-1.631 3.548-3.175 4.53-6.46 4.495-11.204-.042-5.54-3.469-10.604-8.639-12.636-2.708-1.065-3.203-3.228-5.13-.85z" clip-path="url(#SVGID_10_)" fill="#dd5728"/></g><path d="M88.288 34.503c1.532-.242 16.963-3.084 17.257-1.542.038 1.542-2.985 2.963-6.315 4.773-2.456 1.335-6.952 3.617-6.564 4.763.248 1.179 7.2-1.134 6.808.922-.294 1.86-15.678 9.384-42.269 13.554-2.738.429 7.036-4.429 5.896-8.002-1.305-4.089 19.266-13.035 25.187-14.468z" fill="#dd5728"/><g><path d="M42.245 33.475c14.103-6.725 36.759-5.371 42.68-5.092 6.068.286 17.817-.523 17.817 1.397-.025 2.517-15.489 8.032-17.544 10.032 1.14-.083 4.32-.065 4.995-.066 3.296-.005 3.37.887.798 2.596-1.622 1.078-3.99 2.814-5.877 3.781-5.111 2.619-14.412 7.351-19.921 8.832-5.906 1.588-14.71 4.002-19.129 2.957-3.931-.929-5.214-6.282-6.315-11.365-1.292-5.962-3.013-10.446 2.496-13.072z" fill="#f37021"/><circle cx="80.418" cy="30.097" r="3.378" fill="#4a3530"/></g></g></svg>