<svg id="Layer_1" xmlns="http://www.w3.org/2000/svg" viewBox="0 0 128 128"><g id="XMLID_14_"><path id="XMLID_62_" d="M31.126 58.044h.012c-.03.201-.043.407-.043.62 0 2.487 2.122 4.505 4.748 4.505 2.62 0 4.748-2.019 4.748-4.505 0-.681-.158-1.331-.444-1.909l36.959-5.296c.669 4.712 4.724 8.335 9.618 8.335 5.369 0 9.722-4.347 9.722-9.716 0-.468-.036-.924-.097-1.374l12.081-1.733c4.043-.572 8.062 2.256 8.682 6.177v.006c.055.316.079.638.085.967l-.201 36.668a7.313 7.313 0 0 1-6.414 7.351l-91.119 10.397c-4.347.541-8.19-2.833-8.214-7.211l-.45-33.98c0-.14 0-.28.006-.42a7.317 7.317 0 0 1 6.28-6.87l14.041-2.012zm76.649 18.677a7.395 7.395 0 1 0-14.792 0 7.39 7.39 0 0 0 7.393 7.393 7.395 7.395 0 0 0 7.399-7.393zM79.704 87.057a4.554 4.554 0 0 0-4.56-4.56 4.558 4.558 0 0 0-4.56 4.56 4.562 4.562 0 0 0 4.56 4.56 4.557 4.557 0 0 0 4.56-4.56zM67.04 73.474c0-6.208-5.034-11.248-11.248-11.248s-11.248 5.04-11.248 11.248c0 6.214 5.034 11.248 11.248 11.248S67.04 79.688 67.04 73.474zM43.632 95.313a6.384 6.384 0 1 0-12.767 0 6.384 6.384 0 0 0 12.767 0zM27.825 77.986a3.421 3.421 0 1 0-6.84 0 3.422 3.422 0 0 0 3.423 3.423 3.422 3.422 0 0 0 3.417-3.423z" fill="#fbc21a"/><path id="XMLID_58_" d="M96.351 48.705c-.967-3.393-4.906-5.904-9.442-5.904-5.271 0-9.826 3.506-9.826 7.719 0 .334-.024.622.025.938l-36.959 5.296-.036.006c-.754-1.113-2.377-1.879-4.262-1.879-2.554 0-4.633 1.404-4.724 3.162l-14.038 2.012a7.317 7.317 0 0 0-6.28 6.87c.146-6.426 3.715-8.244 3.715-8.244l49.612-35.506a19.562 19.562 0 0 1 16.823-3.028c5.533 1.563 12.433 3.922 17.698 7.071 6.135 3.672 11.795 9.454 15.412 13.588.231.268 1.538 1.879 2.219 4.007.717 2.225.809 5.028.827 8.335-.62-3.922-4.639-6.749-8.682-6.177l-12.082 1.734zM84.264 30.611c0-1.958-2.152-3.545-4.809-3.545-2.663 0-4.815 1.587-4.815 3.545s2.152 3.551 4.815 3.551c2.657 0 4.809-1.593 4.809-3.551zM63.495 40.795c0-2.657-3.222-4.809-7.199-4.809-3.97 0-7.192 2.152-7.192 4.809 0 2.663 3.222 4.815 7.192 4.815 3.977 0 7.199-2.152 7.199-4.815z" fill="#fde283"/><path id="XMLID_35_" d="M100.376 69.322a7.396 7.396 0 1 1 0 14.792c-4.086 0-7.393-3.307-7.393-7.393s3.307-7.399 7.393-7.399z" fill="#c47930"/><path id="XMLID_34_" d="M96.205 48.723l.146-.018c.061.45.097.906.097 1.374 0 5.369-4.353 9.716-9.722 9.716-4.894 0-8.95-3.624-9.618-8.335l.34-.049 18.757-2.688z" fill="#c47930"/><path id="XMLID_33_" d="M96.351 48.705l-19.243 2.754c-.049-.316-.025-.604-.025-.938 0-4.213 4.554-7.719 9.826-7.719 4.535-.001 8.475 2.51 9.442 5.903z" fill="#e5ab4c"/><path id="XMLID_32_" d="M79.455 27.067c2.657 0 4.809 1.587 4.809 3.545s-2.152 3.551-4.809 3.551c-2.663 0-4.815-1.593-4.815-3.551s2.152-3.545 4.815-3.545z" fill="#e5ab4c"/><path id="XMLID_31_" d="M75.144 82.497a4.554 4.554 0 0 1 4.56 4.56 4.558 4.558 0 0 1-4.56 4.56 4.562 4.562 0 0 1-4.56-4.56 4.558 4.558 0 0 1 4.56-4.56z" fill="#c47930"/><path id="XMLID_30_" d="M55.792 62.227c6.214 0 11.248 5.04 11.248 11.248 0 6.214-5.034 11.248-11.248 11.248s-11.248-5.034-11.248-11.248c0-6.208 5.035-11.248 11.248-11.248z" fill="#c47930"/><path id="XMLID_29_" d="M56.297 35.986c3.976 0 7.199 2.152 7.199 4.809 0 2.663-3.222 4.815-7.199 4.815-3.97 0-7.192-2.152-7.192-4.815-.001-2.657 3.222-4.809 7.192-4.809z" fill="#e5ab4c"/><circle id="XMLID_28_" cx="37.249" cy="95.313" r="6.384" fill="#c47930"/><path id="XMLID_27_" d="M40.112 56.761l.036-.006c.286.578.444 1.228.444 1.909 0 2.487-2.128 4.505-4.748 4.505-2.626 0-4.748-2.019-4.748-4.505 0-.213.012-.42.043-.62l8.973-1.283z" fill="#c47930"/><path id="XMLID_26_" d="M40.112 56.761l-8.974 1.283h-.012c.091-1.757 2.171-3.162 4.724-3.162 1.885 0 3.508.766 4.262 1.879z" fill="#e5ab4c"/><path id="XMLID_25_" d="M24.408 74.563a3.421 3.421 0 0 1 3.417 3.423 3.421 3.421 0 1 1-6.84 0 3.422 3.422 0 0 1 3.423-3.423z" fill="#c47930"/></g></svg>