<svg id="レイヤー_1" xmlns="http://www.w3.org/2000/svg" viewBox="0 0 128 128"><g fill="#40c0e7"><g><path d="M30.679 75.467h17.57c.639 0 1.164-.422 1.195-.957l4.803-68.882c.02-.277-.105-.55-.33-.757a1.37 1.37 0 0 0-.873-.314H25.888c-.33 0-.648.117-.873.314a.936.936 0 0 0-.336.757l4.797 68.882c.034.535.564.957 1.203.957z"/><path d="M25.249 111.674c0-2.533.369-4.684 1.096-6.436.73-1.758 1.742-3.176 3.037-4.256 1.287-1.08 2.82-1.861 4.578-2.348 1.752-.484 3.633-.731 5.631-.731 1.889 0 3.682.246 5.381.731 1.704.486 3.199 1.267 4.495 2.348 1.298 1.08 2.325 2.498 3.084 4.256.75 1.752 1.132 3.902 1.132 6.436 0 2.43-.382 4.51-1.132 6.238-.759 1.729-1.786 3.156-3.084 4.295a12.062 12.062 0 0 1-4.495 2.471c-1.699.512-3.492.766-5.381.766-1.998 0-3.879-.254-5.631-.766-1.758-.516-3.291-1.34-4.578-2.471-1.295-1.139-2.307-2.566-3.037-4.295-.727-1.728-1.096-3.808-1.096-6.238z"/></g><g><path d="M79.753 75.467h17.566c.639 0 1.166-.422 1.197-.957l4.805-68.882a.96.96 0 0 0-.33-.757 1.37 1.37 0 0 0-.873-.314H74.96c-.326 0-.648.117-.869.314-.236.207-.355.479-.334.757l4.794 68.882c.03.535.563.957 1.202.957z"/><path d="M74.321 111.674c0-2.533.369-4.684 1.098-6.436.732-1.758 1.742-3.176 3.035-4.256 1.289-1.08 2.822-1.861 4.58-2.348 1.752-.484 3.631-.731 5.629-.731a19.5 19.5 0 0 1 5.381.731c1.705.486 3.201 1.267 4.494 2.348 1.303 1.08 2.328 2.498 3.084 4.256.752 1.752 1.135 3.902 1.135 6.436 0 2.43-.383 4.51-1.135 6.238-.756 1.729-1.781 3.156-3.084 4.295a12.026 12.026 0 0 1-4.494 2.471c-1.697.512-3.492.766-5.381.766-1.998 0-3.877-.254-5.629-.766-1.758-.516-3.291-1.34-4.58-2.471-1.293-1.139-2.303-2.566-3.035-4.295-.729-1.728-1.098-3.808-1.098-6.238z"/></g></g></svg>