<svg id="レイヤー_1" xmlns="http://www.w3.org/2000/svg" viewBox="0 0 128 128"><g><g><path d="M75.771 82.785v-5.994c0-2.748.282-5.252.847-7.488a25.303 25.303 0 0 1 2.593-6.4c1.161-2.022 2.657-3.993 4.494-5.91 1.837-1.917 4.052-3.908 6.64-5.952 2.273-1.79 4.185-3.377 5.756-4.782 1.56-1.406 2.833-2.801 3.802-4.175.975-1.373 1.678-2.822 2.109-4.335.431-1.511.65-3.27.65-5.26 0-3.079-1.044-5.623-3.121-7.615-2.082-2.001-5.25-2.992-9.515-2.992-3.728 0-7.737.777-12.034 2.343-4.287 1.566-8.733 3.483-13.323 5.751L56.41 12.072a80.804 80.804 0 0 1 7.572-3.845 82.388 82.388 0 0 1 8.503-3.237 67.307 67.307 0 0 1 8.951-2.225c3.025-.544 5.996-.821 8.909-.821 5.511 0 10.474.671 14.904 1.991s8.185 3.249 11.262 5.794a25.508 25.508 0 0 1 7.087 9.233c1.646 3.61 2.471 7.742 2.471 12.386 0 3.407-.378 6.443-1.134 9.116a27.55 27.55 0 0 1-3.36 7.454c-1.491 2.29-3.349 4.505-5.591 6.635-2.242 2.141-4.851 4.388-7.816 6.772-2.269 1.779-4.117 3.335-5.549 4.655-1.432 1.32-2.55 2.576-3.36 3.77-.814 1.182-1.363 2.406-1.662 3.684-.298 1.269-.447 2.76-.447 4.495v4.855H75.771zm-2.679 27.7c0-2.534.367-4.686 1.097-6.433.729-1.757 1.741-3.174 3.035-4.26 1.294-1.075 2.822-1.864 4.58-2.343 1.751-.489 3.626-.734 5.628-.734 1.89 0 3.685.245 5.388.734a12.146 12.146 0 0 1 4.495 2.343c1.294 1.086 2.321 2.503 3.078 4.26.756 1.747 1.134 3.899 1.134 6.433 0 2.429-.378 4.516-1.134 6.241-.756 1.725-1.784 3.152-3.078 4.291a12.098 12.098 0 0 1-4.495 2.472c-1.704.51-3.498.766-5.388.766-2.002 0-3.877-.256-5.628-.766-1.757-.512-3.286-1.343-4.58-2.472-1.294-1.139-2.306-2.566-3.035-4.291-.73-1.725-1.097-3.812-1.097-6.241z" fill="#40c0e7"/></g><path d="M21.937 76.077h17.561c.639 0 1.171-.416 1.209-.949l4.792-68.891c.021-.277-.101-.544-.33-.746a1.33 1.33 0 0 0-.878-.32H17.139c-.33 0-.649.118-.878.32-.224.202-.346.469-.325.746l4.793 68.891c.037.533.563.949 1.208.949z" fill="#40c0e7"/><path d="M16.5 112.285c0-2.534.367-4.675 1.097-6.432.729-1.759 1.741-3.175 3.035-4.261 1.294-1.075 2.822-1.863 4.58-2.342 1.751-.491 3.626-.735 5.628-.735 1.89 0 3.685.244 5.389.735a12.132 12.132 0 0 1 4.494 2.342c1.294 1.086 2.322 2.502 3.078 4.261.756 1.757 1.134 3.897 1.134 6.432 0 2.438-.378 4.515-1.134 6.241-.756 1.725-1.783 3.162-3.078 4.291a12.077 12.077 0 0 1-4.494 2.471c-1.704.512-3.499.767-5.389.767-2.002 0-3.876-.255-5.628-.767-1.757-.512-3.286-1.341-4.58-2.471-1.294-1.129-2.306-2.566-3.035-4.291-.729-1.726-1.097-3.802-1.097-6.241z" fill="#40c0e7"/></g></svg>