<svg id="レイヤー_1" xmlns="http://www.w3.org/2000/svg" xmlns:xlink="http://www.w3.org/1999/xlink" viewBox="0 0 128 128"><g><g><path fill="#2f2f2f" d="M102.47 54.715h18.578v18.572H102.47z"/></g><g><defs><path id="SVGID_1_" d="M35.103.387h56.936v127.227H35.103z"/></defs><use xlink:href="#SVGID_1_" overflow="visible" fill="#855c52"/><clipPath id="SVGID_2_"><use xlink:href="#SVGID_1_" overflow="visible"/></clipPath></g><g><g><g><path d="M111.759 63.998c0 26.611-21.572 48.184-48.184 48.184S15.399 90.609 15.399 63.998c0-26.607 21.565-48.176 48.176-48.176s48.184 21.569 48.184 48.176z" fill="#fff"/><path d="M63.575 114.621c-27.916 0-50.623-22.707-50.623-50.623 0-27.908 22.707-50.619 50.623-50.619 27.914 0 50.621 22.711 50.621 50.619 0 27.916-22.707 50.623-50.621 50.623zm0-96.359c-25.223 0-45.738 20.52-45.738 45.736 0 25.221 20.516 45.742 45.738 45.742 25.221 0 45.736-20.521 45.736-45.742.001-25.217-20.515-45.736-45.736-45.736z" fill="#2f2f2f"/></g></g></g><g fill="#2f2f2f"><path d="M71.333 63.998c0 4.285-3.479 7.748-7.758 7.748a7.746 7.746 0 0 1 0-15.492c4.279 0 7.758 3.467 7.758 7.744z"/><path transform="scale(-1) rotate(60.212 93.257 -139.599)" d="M77.224 32.703h7.438v42.744h-7.438z"/><path d="M38.192 53.58l3.715-6.439 24.711 14.306-3.715 6.44z"/></g><path d="M66.495 63.998a2.92 2.92 0 0 1-2.92 2.926 2.926 2.926 0 0 1-2.92-2.926 2.921 2.921 0 0 1 2.92-2.91 2.917 2.917 0 0 1 2.92 2.91z" fill="#fff"/><path d="M106.052 63.998a2.927 2.927 0 0 1-2.92 2.926 2.917 2.917 0 1 1 0-5.836 2.923 2.923 0 0 1 2.92 2.91z" fill="#2f2f2f"/><path d="M84.817 27.215a2.932 2.932 0 0 1 1.068 3.992 2.925 2.925 0 0 1-3.988 1.064 2.913 2.913 0 0 1-1.068-3.988 2.921 2.921 0 0 1 3.988-1.068z" fill="#2f2f2f"/><path d="M42.331 27.215a2.924 2.924 0 0 1 3.988 1.062c.803 1.399.33 3.186-1.059 3.988-1.398.807-3.193.336-3.988-1.068a2.911 2.911 0 0 1 1.059-3.982z" fill="#2f2f2f"/><path d="M63.575 21.525a2.916 2.916 0 1 1 0 5.832 2.919 2.919 0 0 1-2.92-2.916 2.919 2.919 0 0 1 2.92-2.916z" fill="#2f2f2f"/><path d="M26.786 42.76a2.923 2.923 0 0 1 3.988-1.062 2.917 2.917 0 0 1 1.068 3.977 2.915 2.915 0 0 1-3.988 1.074 2.931 2.931 0 0 1-1.068-3.989z" fill="#2f2f2f"/><path d="M21.097 63.998a2.902 2.902 0 0 1 2.912-2.91 2.909 2.909 0 0 1 2.92 2.91 2.906 2.906 0 0 1-2.92 2.914 2.908 2.908 0 0 1-2.912-2.914z" fill="#2f2f2f"/><path d="M26.786 85.24a2.929 2.929 0 0 1 1.068-3.988 2.917 2.917 0 1 1 2.92 5.052 2.92 2.92 0 0 1-3.988-1.064z" fill="#2f2f2f"/><path d="M42.331 100.785a2.924 2.924 0 0 1-1.067-3.983 2.923 2.923 0 0 1 3.986-1.074 2.927 2.927 0 0 1 1.068 3.994 2.912 2.912 0 0 1-3.987 1.063z" fill="#2f2f2f"/><path d="M63.575 106.479a2.922 2.922 0 0 1-2.92-2.918 2.916 2.916 0 1 1 5.83 0 2.913 2.913 0 0 1-2.91 2.918z" fill="#2f2f2f"/><path d="M84.808 100.785a2.919 2.919 0 0 1-3.986-1.062 2.924 2.924 0 0 1 1.066-3.986 2.916 2.916 0 0 1 3.988 1.066 2.905 2.905 0 0 1-1.068 3.982z" fill="#2f2f2f"/><path d="M100.368 85.24a2.936 2.936 0 0 1-3.994 1.068 2.911 2.911 0 0 1-1.076-3.982 2.923 2.923 0 1 1 5.07 2.914z" fill="#2f2f2f"/></g></svg>