<svg id="レイヤー_1" xmlns="http://www.w3.org/2000/svg" viewBox="0 0 128 128"><g><g><g><path d="M55.786 64.369c0 2.227-.934 4.78-4.252 6.915-7.82 5.027-25.728 7.985-25.728 44.885h76.232c0-36.903-17.91-39.857-25.73-44.885-3.318-2.135-4.252-4.688-4.252-6.915 0-2.225.934-4.782 4.252-6.913 7.82-5.026 25.73-7.989 25.73-44.894H25.806c0 36.904 17.908 39.867 25.728 44.894 3.319 2.131 4.252 4.689 4.252 6.913z" fill="#fff"/><path d="M102.038 118.446H25.806a2.275 2.275 0 0 1-2.277-2.277c0-33.003 14.438-40.368 23.066-44.773 1.434-.734 2.68-1.37 3.711-2.026 2.152-1.389 3.203-3.025 3.203-5 0-1.977-1.051-3.613-3.203-4.995-1.031-.663-2.277-1.295-3.711-2.033-8.629-4.403-23.066-11.769-23.066-44.778a2.273 2.273 0 0 1 2.277-2.276h76.232a2.278 2.278 0 0 1 2.275 2.276c0 33.01-14.439 40.375-23.059 44.778-1.441.738-2.688 1.37-3.709 2.033-2.162 1.382-3.213 3.019-3.213 4.995 0 1.975 1.051 3.611 3.213 5 1.021.656 2.268 1.292 3.709 2.026 8.619 4.405 23.059 11.77 23.059 44.773a2.28 2.28 0 0 1-2.275 2.277zm-73.937-4.553h71.631c-.578-28.25-12.09-34.12-20.549-38.44-1.486-.755-2.883-1.472-4.102-2.249-4.385-2.821-5.303-6.361-5.303-8.834 0-2.475.918-6.015 5.303-8.829 1.219-.78 2.615-1.495 4.102-2.256 8.459-4.32 19.971-10.195 20.549-38.444H28.101c.588 28.249 12.1 34.124 20.559 38.444 1.486.757 2.893 1.476 4.102 2.256 4.385 2.814 5.301 6.354 5.301 8.829 0 2.473-.916 6.013-5.291 8.829-1.219.782-2.625 1.499-4.111 2.254-8.461 4.319-19.973 10.194-20.56 38.44z" fill="#855c52"/></g><g><path d="M109.962 120.616a7.211 7.211 0 0 1-7.215 7.212H25.255c-3.977 0-7.215-3.226-7.215-7.212 0-3.976 3.238-7.205 7.215-7.205h77.492c3.984 0 7.215 3.23 7.215 7.205z" fill="#855c52"/></g><g><path d="M109.962 7.382a7.214 7.214 0 0 1-7.215 7.214H25.255a7.219 7.219 0 0 1-7.215-7.214C18.04 3.4 21.278.17 25.255.17h77.492a7.214 7.214 0 0 1 7.215 7.212z" fill="#855c52"/></g></g><path d="M77.554 79.58l-.303-.15H51.435c-.098.049-.205.103-.303.15-7.275 3.716-16.305 8.318-17.871 29.899h62.166C93.843 87.898 84.821 83.296 77.554 79.58z" fill="#d7598b"/></g></svg>