<svg id="レイヤー_1" xmlns="http://www.w3.org/2000/svg" viewBox="0 0 128 128"><path d="M128 87.102a6.345 6.345 0 0 1-6.345 6.345H8.755a6.345 6.345 0 0 1-6.345-6.345V39.833a6.345 6.345 0 0 1 6.345-6.345h112.901a6.345 6.345 0 0 1 6.345 6.345v47.269z" fill="#64878e"/><path d="M125.456 84.674a6.345 6.345 0 0 1-6.345 6.345H6.211a6.345 6.345 0 0 1-6.345-6.345V37.405a6.345 6.345 0 0 1 6.345-6.345h112.901a6.345 6.345 0 0 1 6.345 6.345v47.269z" fill="#78a3ad"/><g fill="#7c7d7d"><g><path d="M16.723 55.881a1.958 1.958 0 0 1-1.958 1.958H8.89a1.958 1.958 0 0 1-1.958-1.958v-5.875c0-1.082.877-1.958 1.958-1.958h5.875c1.082 0 1.958.877 1.958 1.958v5.875z"/><path d="M29.627 55.881a1.958 1.958 0 0 1-1.958 1.958h-5.875a1.958 1.958 0 0 1-1.958-1.958v-5.875c0-1.082.877-1.958 1.958-1.958h5.875c1.082 0 1.958.877 1.958 1.958v5.875z"/><path d="M42.531 55.881a1.958 1.958 0 0 1-1.958 1.958h-5.875a1.958 1.958 0 0 1-1.958-1.958v-5.875c0-1.082.877-1.958 1.958-1.958h5.875c1.082 0 1.958.877 1.958 1.958v5.875z"/><path d="M55.435 55.881a1.958 1.958 0 0 1-1.958 1.958h-5.875a1.958 1.958 0 0 1-1.958-1.958v-5.875c0-1.082.877-1.958 1.958-1.958h5.875c1.082 0 1.958.877 1.958 1.958v5.875z"/><path d="M68.339 55.881a1.958 1.958 0 0 1-1.958 1.958h-5.875a1.958 1.958 0 0 1-1.958-1.958v-5.875c0-1.082.877-1.958 1.958-1.958h5.875c1.082 0 1.958.877 1.958 1.958v5.875z"/><path d="M81.243 55.881a1.958 1.958 0 0 1-1.958 1.958H73.41a1.958 1.958 0 0 1-1.958-1.958v-5.875c0-1.082.877-1.958 1.958-1.958h5.875c1.082 0 1.958.877 1.958 1.958v5.875z"/><path d="M94.147 55.881a1.958 1.958 0 0 1-1.958 1.958h-5.875a1.958 1.958 0 0 1-1.958-1.958v-5.875c0-1.082.877-1.958 1.958-1.958h5.875c1.082 0 1.958.877 1.958 1.958v5.875z"/><path d="M107.051 55.881a1.958 1.958 0 0 1-1.958 1.958h-5.875a1.958 1.958 0 0 1-1.958-1.958v-5.875c0-1.082.877-1.958 1.958-1.958h5.875c1.082 0 1.958.877 1.958 1.958v5.875z"/><path d="M119.955 55.881a1.958 1.958 0 0 1-1.958 1.958h-5.875a1.958 1.958 0 0 1-1.958-1.958v-5.875c0-1.082.877-1.958 1.958-1.958h5.875c1.082 0 1.958.877 1.958 1.958v5.875z"/></g><g><path d="M16.723 69.655a1.958 1.958 0 0 1-1.958 1.958H8.89a1.958 1.958 0 0 1-1.958-1.958V63.78c0-1.082.877-1.958 1.958-1.958h5.875c1.082 0 1.958.877 1.958 1.958v5.875z"/><path d="M29.627 69.655a1.958 1.958 0 0 1-1.958 1.958h-5.875a1.958 1.958 0 0 1-1.958-1.958V63.78c0-1.082.877-1.958 1.958-1.958h5.875c1.082 0 1.958.877 1.958 1.958v5.875z"/><path d="M42.531 69.655a1.958 1.958 0 0 1-1.958 1.958h-5.875a1.958 1.958 0 0 1-1.958-1.958V63.78c0-1.082.877-1.958 1.958-1.958h5.875c1.082 0 1.958.877 1.958 1.958v5.875z"/><path d="M55.435 69.655a1.958 1.958 0 0 1-1.958 1.958h-5.875a1.958 1.958 0 0 1-1.958-1.958V63.78c0-1.082.877-1.958 1.958-1.958h5.875c1.082 0 1.958.877 1.958 1.958v5.875z"/><path d="M68.339 69.655a1.958 1.958 0 0 1-1.958 1.958h-5.875a1.958 1.958 0 0 1-1.958-1.958V63.78c0-1.082.877-1.958 1.958-1.958h5.875c1.082 0 1.958.877 1.958 1.958v5.875z"/><path d="M81.243 69.655a1.958 1.958 0 0 1-1.958 1.958H73.41a1.958 1.958 0 0 1-1.958-1.958V63.78c0-1.082.877-1.958 1.958-1.958h5.875c1.082 0 1.958.877 1.958 1.958v5.875z"/><path d="M94.147 69.655a1.958 1.958 0 0 1-1.958 1.958h-5.875a1.958 1.958 0 0 1-1.958-1.958V63.78c0-1.082.877-1.958 1.958-1.958h5.875c1.082 0 1.958.877 1.958 1.958v5.875z"/><path d="M119.955 69.655a1.958 1.958 0 0 1-1.958 1.958H99.218a1.958 1.958 0 0 1-1.958-1.958V63.78c0-1.082.877-1.958 1.958-1.958h18.779c1.082 0 1.958.877 1.958 1.958v5.875z"/></g><g><path d="M16.723 83.428a1.958 1.958 0 0 1-1.958 1.958H8.89a1.958 1.958 0 0 1-1.958-1.958v-5.875c0-1.082.877-1.958 1.958-1.958h5.875c1.082 0 1.958.877 1.958 1.958v5.875z"/><path d="M29.627 83.428a1.958 1.958 0 0 1-1.958 1.958h-5.875a1.958 1.958 0 0 1-1.958-1.958v-5.875c0-1.082.877-1.958 1.958-1.958h5.875c1.082 0 1.958.877 1.958 1.958v5.875z"/><path d="M94.147 83.428a1.958 1.958 0 0 1-1.958 1.958H34.698a1.958 1.958 0 0 1-1.958-1.958v-5.875c0-1.082.877-1.958 1.958-1.958h57.491c1.082 0 1.958.877 1.958 1.958v5.875z"/><path d="M107.051 83.428a1.958 1.958 0 0 1-1.958 1.958h-5.875a1.958 1.958 0 0 1-1.958-1.958v-5.875c0-1.082.877-1.958 1.958-1.958h5.875c1.082 0 1.958.877 1.958 1.958v5.875z"/><path d="M119.955 83.428a1.958 1.958 0 0 1-1.958 1.958h-5.875a1.958 1.958 0 0 1-1.958-1.958v-5.875c0-1.082.877-1.958 1.958-1.958h5.875c1.082 0 1.958.877 1.958 1.958v5.875z"/></g><g><path d="M16.723 42.174a1.958 1.958 0 0 1-1.958 1.958H8.89a1.958 1.958 0 0 1-1.958-1.958v-1.958c0-1.082.877-1.958 1.958-1.958h5.875c1.082 0 1.958.877 1.958 1.958v1.958z"/><path d="M29.627 42.174a1.958 1.958 0 0 1-1.958 1.958h-5.875a1.958 1.958 0 0 1-1.958-1.958v-1.958c0-1.082.877-1.958 1.958-1.958h5.875c1.082 0 1.958.877 1.958 1.958v1.958z"/><path d="M42.531 42.174a1.958 1.958 0 0 1-1.958 1.958h-5.875a1.958 1.958 0 0 1-1.958-1.958v-1.958c0-1.082.877-1.958 1.958-1.958h5.875c1.082 0 1.958.877 1.958 1.958v1.958z"/><path d="M55.435 42.174a1.958 1.958 0 0 1-1.958 1.958h-5.875a1.958 1.958 0 0 1-1.958-1.958v-1.958c0-1.082.877-1.958 1.958-1.958h5.875c1.082 0 1.958.877 1.958 1.958v1.958z"/><path d="M68.339 42.174a1.958 1.958 0 0 1-1.958 1.958h-5.875a1.958 1.958 0 0 1-1.958-1.958v-1.958c0-1.082.877-1.958 1.958-1.958h5.875c1.082 0 1.958.877 1.958 1.958v1.958z"/><path d="M81.243 42.174a1.958 1.958 0 0 1-1.958 1.958H73.41a1.958 1.958 0 0 1-1.958-1.958v-1.958c0-1.082.877-1.958 1.958-1.958h5.875c1.082 0 1.958.877 1.958 1.958v1.958z"/><path d="M94.147 42.174a1.958 1.958 0 0 1-1.958 1.958h-5.875a1.958 1.958 0 0 1-1.958-1.958v-1.958c0-1.082.877-1.958 1.958-1.958h5.875c1.082 0 1.958.877 1.958 1.958v1.958z"/><path d="M107.051 42.174a1.958 1.958 0 0 1-1.958 1.958h-5.875a1.958 1.958 0 0 1-1.958-1.958v-1.958c0-1.082.877-1.958 1.958-1.958h5.875c1.082 0 1.958.877 1.958 1.958v1.958z"/><path d="M119.955 42.174a1.958 1.958 0 0 1-1.958 1.958h-5.875a1.958 1.958 0 0 1-1.958-1.958v-1.958c0-1.082.877-1.958 1.958-1.958h5.875c1.082 0 1.958.877 1.958 1.958v1.958z"/></g></g><g fill="#fff"><g><path d="M15.941 55.099a1.958 1.958 0 0 1-1.958 1.958H8.108a1.958 1.958 0 0 1-1.958-1.958v-5.875c0-1.082.877-1.958 1.958-1.958h5.875c1.082 0 1.958.877 1.958 1.958v5.875z"/><path d="M28.845 55.099a1.958 1.958 0 0 1-1.958 1.958h-5.875a1.958 1.958 0 0 1-1.958-1.958v-5.875c0-1.082.877-1.958 1.958-1.958h5.875c1.082 0 1.958.877 1.958 1.958v5.875z"/><path d="M41.749 55.099a1.958 1.958 0 0 1-1.958 1.958h-5.875a1.958 1.958 0 0 1-1.958-1.958v-5.875c0-1.082.877-1.958 1.958-1.958h5.875c1.082 0 1.958.877 1.958 1.958v5.875z"/><path d="M54.653 55.099a1.958 1.958 0 0 1-1.958 1.958H46.82a1.958 1.958 0 0 1-1.958-1.958v-5.875c0-1.082.877-1.958 1.958-1.958h5.875c1.082 0 1.958.877 1.958 1.958v5.875z"/><path d="M67.556 55.099a1.958 1.958 0 0 1-1.958 1.958h-5.875a1.958 1.958 0 0 1-1.958-1.958v-5.875c0-1.082.877-1.958 1.958-1.958h5.875c1.082 0 1.958.877 1.958 1.958v5.875z"/><path d="M80.46 55.099a1.958 1.958 0 0 1-1.958 1.958h-5.875a1.958 1.958 0 0 1-1.958-1.958v-5.875c0-1.082.877-1.958 1.958-1.958h5.875c1.082 0 1.958.877 1.958 1.958v5.875z"/><path d="M93.364 55.099a1.958 1.958 0 0 1-1.958 1.958h-5.875a1.958 1.958 0 0 1-1.958-1.958v-5.875c0-1.082.877-1.958 1.958-1.958h5.875c1.082 0 1.958.877 1.958 1.958v5.875z"/><path d="M106.268 55.099a1.958 1.958 0 0 1-1.958 1.958h-5.875a1.958 1.958 0 0 1-1.958-1.958v-5.875c0-1.082.877-1.958 1.958-1.958h5.875c1.082 0 1.958.877 1.958 1.958v5.875z"/><path d="M119.172 55.099a1.958 1.958 0 0 1-1.958 1.958h-5.875a1.958 1.958 0 0 1-1.958-1.958v-5.875c0-1.082.877-1.958 1.958-1.958h5.875c1.082 0 1.958.877 1.958 1.958v5.875z"/></g><g><path d="M15.941 68.872a1.958 1.958 0 0 1-1.958 1.958H8.108a1.958 1.958 0 0 1-1.958-1.958v-5.875c0-1.082.877-1.958 1.958-1.958h5.875c1.082 0 1.958.877 1.958 1.958v5.875z"/><path d="M28.845 68.872a1.958 1.958 0 0 1-1.958 1.958h-5.875a1.958 1.958 0 0 1-1.958-1.958v-5.875c0-1.082.877-1.958 1.958-1.958h5.875c1.082 0 1.958.877 1.958 1.958v5.875z"/><path d="M41.749 68.872a1.958 1.958 0 0 1-1.958 1.958h-5.875a1.958 1.958 0 0 1-1.958-1.958v-5.875c0-1.082.877-1.958 1.958-1.958h5.875c1.082 0 1.958.877 1.958 1.958v5.875z"/><path d="M54.653 68.872a1.958 1.958 0 0 1-1.958 1.958H46.82a1.958 1.958 0 0 1-1.958-1.958v-5.875c0-1.082.877-1.958 1.958-1.958h5.875c1.082 0 1.958.877 1.958 1.958v5.875z"/><path d="M67.556 68.872a1.958 1.958 0 0 1-1.958 1.958h-5.875a1.958 1.958 0 0 1-1.958-1.958v-5.875c0-1.082.877-1.958 1.958-1.958h5.875c1.082 0 1.958.877 1.958 1.958v5.875z"/><path d="M80.46 68.872a1.958 1.958 0 0 1-1.958 1.958h-5.875a1.958 1.958 0 0 1-1.958-1.958v-5.875c0-1.082.877-1.958 1.958-1.958h5.875c1.082 0 1.958.877 1.958 1.958v5.875z"/><path d="M93.364 68.872a1.958 1.958 0 0 1-1.958 1.958h-5.875a1.958 1.958 0 0 1-1.958-1.958v-5.875c0-1.082.877-1.958 1.958-1.958h5.875c1.082 0 1.958.877 1.958 1.958v5.875z"/><path d="M119.172 68.872a1.958 1.958 0 0 1-1.958 1.958H98.435a1.958 1.958 0 0 1-1.958-1.958v-5.875c0-1.082.877-1.958 1.958-1.958h18.779c1.082 0 1.958.877 1.958 1.958v5.875z"/></g><g><path d="M15.941 82.645a1.958 1.958 0 0 1-1.958 1.958H8.108a1.958 1.958 0 0 1-1.958-1.958V76.77c0-1.082.877-1.958 1.958-1.958h5.875c1.082 0 1.958.877 1.958 1.958v5.875z"/><path d="M28.845 82.645a1.958 1.958 0 0 1-1.958 1.958h-5.875a1.958 1.958 0 0 1-1.958-1.958V76.77c0-1.082.877-1.958 1.958-1.958h5.875c1.082 0 1.958.877 1.958 1.958v5.875z"/><path d="M93.364 82.645a1.958 1.958 0 0 1-1.958 1.958h-57.49a1.958 1.958 0 0 1-1.958-1.958V76.77c0-1.082.877-1.958 1.958-1.958h57.491c1.082 0 1.958.877 1.958 1.958v5.875z"/><path d="M106.268 82.645a1.958 1.958 0 0 1-1.958 1.958h-5.875a1.958 1.958 0 0 1-1.958-1.958V76.77c0-1.082.877-1.958 1.958-1.958h5.875c1.082 0 1.958.877 1.958 1.958v5.875z"/><path d="M119.172 82.645a1.958 1.958 0 0 1-1.958 1.958h-5.875a1.958 1.958 0 0 1-1.958-1.958V76.77c0-1.082.877-1.958 1.958-1.958h5.875c1.082 0 1.958.877 1.958 1.958v5.875z"/></g><g><path d="M15.941 41.391a1.958 1.958 0 0 1-1.958 1.958H8.108a1.958 1.958 0 0 1-1.958-1.958v-1.958c0-1.082.877-1.958 1.958-1.958h5.875c1.082 0 1.958.877 1.958 1.958v1.958z"/><path d="M28.845 41.391a1.958 1.958 0 0 1-1.958 1.958h-5.875a1.958 1.958 0 0 1-1.958-1.958v-1.958c0-1.082.877-1.958 1.958-1.958h5.875c1.082 0 1.958.877 1.958 1.958v1.958z"/><path d="M41.749 41.391a1.958 1.958 0 0 1-1.958 1.958h-5.875a1.958 1.958 0 0 1-1.958-1.958v-1.958c0-1.082.877-1.958 1.958-1.958h5.875c1.082 0 1.958.877 1.958 1.958v1.958z"/><path d="M54.653 41.391a1.958 1.958 0 0 1-1.958 1.958H46.82a1.958 1.958 0 0 1-1.958-1.958v-1.958c0-1.082.877-1.958 1.958-1.958h5.875c1.082 0 1.958.877 1.958 1.958v1.958z"/><path d="M67.556 41.391a1.958 1.958 0 0 1-1.958 1.958h-5.875a1.958 1.958 0 0 1-1.958-1.958v-1.958c0-1.082.877-1.958 1.958-1.958h5.875c1.082 0 1.958.877 1.958 1.958v1.958z"/><path d="M80.46 41.391a1.958 1.958 0 0 1-1.958 1.958h-5.875a1.958 1.958 0 0 1-1.958-1.958v-1.958c0-1.082.877-1.958 1.958-1.958h5.875c1.082 0 1.958.877 1.958 1.958v1.958z"/><path d="M93.364 41.391a1.958 1.958 0 0 1-1.958 1.958h-5.875a1.958 1.958 0 0 1-1.958-1.958v-1.958c0-1.082.877-1.958 1.958-1.958h5.875c1.082 0 1.958.877 1.958 1.958v1.958z"/><path d="M106.268 41.391a1.958 1.958 0 0 1-1.958 1.958h-5.875a1.958 1.958 0 0 1-1.958-1.958v-1.958c0-1.082.877-1.958 1.958-1.958h5.875c1.082 0 1.958.877 1.958 1.958v1.958z"/><path d="M119.172 41.391a1.958 1.958 0 0 1-1.958 1.958h-5.875a1.958 1.958 0 0 1-1.958-1.958v-1.958c0-1.082.877-1.958 1.958-1.958h5.875c1.082 0 1.958.877 1.958 1.958v1.958z"/></g></g></svg>