<svg id="レイヤー_1" xmlns="http://www.w3.org/2000/svg" viewBox="0 0 128 128"><g><path d="M105.765 91.374c-7.648 15.363-23.471 25.971-41.767 25.971-18.575 0-34.604-10.934-42.103-26.686-2.893-6.068-4.559-12.824-4.559-19.98 0-25.731 20.934-46.658 46.661-46.658 25.729 0 46.663 20.928 46.663 46.658.001 7.437-1.787 14.451-4.895 20.695z" fill="#fff"/><g><path d="M67.38 16.942v-7.66h4.634V1.751H55.965v7.531h4.636v7.664c-28.116 1.76-50.455 25.182-50.455 53.732 0 10.961 3.305 21.166 8.95 29.684l-3.548 17.109s-2.229 10.02 7.649 10.02c8.7 0 40.193-.297 40.193-.297s31.495.297 40.193.297c9.877 0 7.649-10.02 7.649-10.02l-3.268-15.748c6.216-8.781 9.886-19.488 9.886-31.045.002-28.556-22.346-51.98-50.47-53.736zm38.385 74.432c-7.648 15.363-23.471 25.971-41.767 25.971-18.575 0-34.604-10.934-42.103-26.686-2.893-6.068-4.559-12.824-4.559-19.98 0-25.731 20.934-46.658 46.661-46.658 25.729 0 46.663 20.928 46.663 46.658.001 7.437-1.787 14.451-4.895 20.695z" fill="#006ca2"/><path d="M67.837 64.024c-.064-.041-.149-.064-.223-.102V31.009h-7.37v33.012a7.59 7.59 0 0 0-2.888 2.824c-1.433 2.48-1.297 5.402.053 7.703l-8.66 14.902 1.599.932 4.769 2.781 1.617-2.781 7.013-12.062c2.733.086 5.435-1.26 6.9-3.799a7.68 7.68 0 0 0-2.81-10.497zm-4.91 9.336a2.9 2.9 0 0 1-1.82-2.682 2.9 2.9 0 0 1 2.892-2.889c.197 0 .375.074.558.113.66.135 1.233.457 1.644.959.411.5.692 1.117.692 1.816 0 1.217-.748 2.25-1.816 2.682a2.93 2.93 0 0 1-1.077.217 2.926 2.926 0 0 1-1.073-.216z" fill="#2f2f2f"/><path d="M105.672 69.286c-.496-.879-1.404-1.496-2.481-1.496a2.895 2.895 0 0 0-2.894 2.889 2.898 2.898 0 0 0 2.894 2.898c1.077 0 1.985-.619 2.481-1.5.238-.42.411-.879.411-1.398 0-.516-.173-.971-.411-1.393z" fill="#2f2f2f"/><path d="M85.046 34.235c-.431-.254-.899-.338-1.366-.348-1.021-.027-2.032.449-2.584 1.404a2.882 2.882 0 0 0 1.058 3.951 2.894 2.894 0 0 0 3.95-1.053c.533-.932.45-2.017-.047-2.889-.244-.42-.562-.805-1.011-1.065z" fill="#2f2f2f"/><path d="M44.318 33.888c-.467.01-.932.094-1.361.348-.454.26-.772.645-1.016 1.076-.495.861-.576 1.941-.039 2.869.787 1.391 2.566 1.857 3.952 1.053 1.376-.791 1.844-2.56 1.049-3.945-.541-.952-1.554-1.429-2.585-1.401z" fill="#2f2f2f"/><path d="M99.39 53.597c.95-.553 1.432-1.568 1.404-2.594-.01-.467-.095-.934-.342-1.363-.267-.453-.651-.767-1.072-1.012-.871-.5-1.947-.582-2.874-.041a2.867 2.867 0 0 0-1.068 3.941 2.897 2.897 0 0 0 3.952 1.069z" fill="#2f2f2f"/><path d="M31.501 48.579c-.927-.533-2.012-.459-2.874.045-.422.244-.815.557-1.076 1.012-.253.43-.334.9-.347 1.367-.028 1.02.458 2.031 1.404 2.584a2.897 2.897 0 0 0 3.956-1.064 2.893 2.893 0 0 0-1.063-3.944z" fill="#2f2f2f"/><path d="M24.798 67.79c-1.067 0-1.971.607-2.472 1.484-.234.42-.412.883-.412 1.404 0 .52.178.982.412 1.404.501.871 1.404 1.482 2.472 1.482a2.884 2.884 0 0 0 2.897-2.887 2.891 2.891 0 0 0-2.897-2.887z" fill="#2f2f2f"/><path d="M28.608 87.772c-.946.549-1.433 1.561-1.404 2.582v.027c.014.459.107.918.347 1.338.262.459.65.773 1.076 1.021.862.496 1.947.57 2.874.037.89-.516 1.358-1.438 1.392-2.396.022-.523-.052-1.057-.333-1.555a2.896 2.896 0 0 0-3.952-1.054z" fill="#2f2f2f"/><path d="M45.848 102.112a2.905 2.905 0 0 0-3.954 1.068c-.533.922-.447 2.004.048 2.875.243.422.556.809 1.01 1.07.432.252.9.338 1.367.352 1.03.023 2.044-.459 2.585-1.404.794-1.385.326-3.164-1.056-3.961z" fill="#2f2f2f"/><path d="M63.998 106.981a2.89 2.89 0 0 0-2.892 2.893c0 1.076.617 1.977 1.487 2.48.422.234.881.412 1.404.412.516 0 .975-.178 1.4-.412.875-.504 1.484-1.408 1.484-2.48a2.882 2.882 0 0 0-2.883-2.893z" fill="#2f2f2f"/><path d="M82.144 102.122a2.892 2.892 0 0 0-1.052 3.951c.551.949 1.567 1.432 2.588 1.4.467-.014.931-.1 1.356-.348.459-.256.772-.645 1.021-1.07.497-.863.58-1.949.037-2.875-.789-1.386-2.573-1.857-3.95-1.058z" fill="#2f2f2f"/><path d="M99.39 87.772a2.904 2.904 0 0 0-3.961 1.064c-.28.488-.351 1.021-.327 1.545.037.955.495 1.881 1.396 2.4.926.533 2.012.455 2.883-.051.421-.242.806-.557 1.067-1.012.243-.42.328-.879.347-1.338v-.02c.026-1.023-.451-2.039-1.405-2.588z" fill="#2f2f2f"/><path d="M11.69 35.349a1.15 1.15 0 0 0 .851-.187L47.72 10.903a1.13 1.13 0 0 0 .288-1.572C44.085 3.643 38.421.509 32.054.509c-3.31 0-6.676.854-10.033 2.512-1.623-1.49-4.104-1.723-5.986-.422a4.816 4.816 0 0 0-1.732 5.748c-3.605 3.371-5.927 7.266-6.77 11.449-1.007 5.047.206 10.404 3.427 15.074.173.254.436.422.73.479z" fill="#fcc21b"/><path d="M115.465 35.161a1.128 1.128 0 0 0 .848.187c.294-.057.557-.225.726-.479 3.221-4.67 4.438-10.027 3.426-15.074-.833-4.184-3.155-8.078-6.769-11.449a4.804 4.804 0 1 0-7.714-5.326C102.621 1.362 99.259.508 95.945.508c-6.366 0-12.03 3.135-15.943 8.822a1.12 1.12 0 0 0 .285 1.572l35.178 24.259z" fill="#fcc21b"/></g></g></svg>