<svg id="レイヤー_1" xmlns="http://www.w3.org/2000/svg" viewBox="0 0 128 128"><g fill="#2f2f2f"><path transform="rotate(30 96.644 15.682)" d="M91.26 11.738h10.769v7.897H91.26z"/><path transform="rotate(30 93.242 21.147)" d="M89.743 18.729h7v4.846h-7z"/></g><path fill="#2f2f2f" d="M54.032 0h19.942v7.977H54.032z"/><path fill="#2f2f2f" d="M58 8h12v11H58z"/><circle cx="64" cy="70.054" r="57" fill="#19699d"/><g><path d="M64.002 114.851c-24.704 0-44.798-20.094-44.798-44.798 0-24.696 20.094-44.793 44.798-44.793 24.7 0 44.794 20.097 44.794 44.793 0 24.704-20.094 44.798-44.794 44.798z" fill="#fff"/><g><path d="M64.002 20.475c-27.337 0-49.58 22.245-49.58 49.578 0 27.34 22.243 49.579 49.58 49.579s49.576-22.239 49.576-49.579c0-27.333-22.239-49.578-49.576-49.578zm0 94.376c-24.704 0-44.798-20.094-44.798-44.798 0-24.696 20.094-44.793 44.798-44.793 24.7 0 44.794 20.097 44.794 44.793 0 24.704-20.094 44.798-44.794 44.798z" fill="#bee8f1"/><path d="M68.632 64.078V43.539h-1.057V31.977a2.786 2.786 0 0 0-2.786-2.786h-1.571a2.786 2.786 0 0 0-2.786 2.786v11.562h-1.06v20.538c-2.167 1.678-3.428 4.483-2.792 7.562.607 2.938 2.984 5.298 5.932 5.859a7.598 7.598 0 0 0 9.081-7.452c-.001-2.436-1.174-4.577-2.961-5.968zm-7.009 7.567c-.052-.076-.089-.166-.134-.249a2.8 2.8 0 0 1-.348-1.343c0-.482.131-.936.348-1.335a2.846 2.846 0 0 1 2.513-1.522c1.095 0 2.034.626 2.513 1.528.213.399.348.847.348 1.329 0 .489-.134.937-.348 1.336-.045.089-.083.175-.134.255-.306.457-.74.819-1.253 1.039-.014.008-.031.014-.045.021a2.9 2.9 0 0 1-1.081.213c-.386 0-.751-.079-1.085-.213l-.045-.021a2.876 2.876 0 0 1-1.249-1.038z" fill="#2f2f2f"/><path d="M102.744 67.197a2.861 2.861 0 0 0 0 5.721 2.86 2.86 0 1 0 0-5.721z" fill="#2f2f2f"/><path d="M98.981 53.165a2.866 2.866 0 0 0 1.046-3.911 2.866 2.866 0 0 0-3.904-1.046 2.865 2.865 0 0 0-1.046 3.91 2.865 2.865 0 0 0 3.904 1.047z" fill="#2f2f2f"/><path d="M84.801 34.031a2.853 2.853 0 0 0-3.904 1.046 2.857 2.857 0 1 0 4.95 2.858 2.856 2.856 0 0 0-1.046-3.904z" fill="#2f2f2f"/><path d="M43.202 34.024a2.858 2.858 0 0 0-1.047 3.904 2.851 2.851 0 0 0 3.904 1.046 2.849 2.849 0 0 0 1.043-3.903 2.861 2.861 0 0 0-3.9-1.047z" fill="#2f2f2f"/><path d="M31.876 48.207a2.858 2.858 0 1 0-2.858 4.95 2.852 2.852 0 0 0 3.904-1.046 2.856 2.856 0 0 0-1.046-3.904z" fill="#2f2f2f"/><path d="M25.256 67.197a2.858 2.858 0 1 0 .001 5.715 2.858 2.858 0 0 0-.001-5.715z" fill="#2f2f2f"/><path d="M29.016 86.949a2.867 2.867 0 0 0-1.047 3.904 2.852 2.852 0 0 0 3.904 1.046 2.855 2.855 0 0 0 1.05-3.903 2.864 2.864 0 0 0-3.907-1.047z" fill="#2f2f2f"/><path d="M46.056 101.132a2.854 2.854 0 0 0-3.904 1.046 2.863 2.863 0 0 0 1.046 3.904 2.86 2.86 0 0 0 3.904-1.046 2.855 2.855 0 0 0-1.046-3.904z" fill="#2f2f2f"/><path d="M63.995 105.938c-1.58 0-2.85 1.28-2.854 2.864a2.867 2.867 0 0 0 2.857 2.858 2.857 2.857 0 0 0 2.857-2.858 2.858 2.858 0 0 0-2.86-2.864z" fill="#2f2f2f"/><path d="M81.941 101.132a2.852 2.852 0 0 0-1.043 3.904 2.852 2.852 0 0 0 3.9 1.046 2.857 2.857 0 1 0-2.857-4.95z" fill="#2f2f2f"/><path d="M98.981 86.956a2.853 2.853 0 0 0-3.904 1.046 2.844 2.844 0 0 0 1.046 3.897 2.857 2.857 0 0 0 3.904-1.039 2.858 2.858 0 0 0-1.046-3.904z" fill="#2f2f2f"/></g></g></svg>