<svg id="レイヤー_1" xmlns="http://www.w3.org/2000/svg" xmlns:xlink="http://www.w3.org/1999/xlink" viewBox="0 0 128 128"><path d="M125.199 63.912c0-33.741-27.456-61.194-61.202-61.194C30.251 2.718 2.8 30.17 2.8 63.912v55.422a6 6 0 0 0 6 6h110.4a6 6 0 0 0 6-6V63.921l-.001-.009z" fill="#1a6ca2"/><g><g><g><g><defs><path id="SVGID_1_" d="M63.997 111.954c26.486 0 48.037-21.551 48.037-48.042 0-26.483-21.551-48.032-48.037-48.032S15.964 37.43 15.964 63.912c0 26.491 21.547 48.042 48.033 48.042z"/></defs><use xlink:href="#SVGID_1_" overflow="visible" fill="#fff"/><clipPath id="SVGID_2_"><use xlink:href="#SVGID_1_" overflow="visible"/></clipPath></g><g><g><g><path d="M63.997 10.755c29.314 0 53.165 23.847 53.165 53.157 0 29.318-23.851 53.165-53.165 53.165s-53.16-23.846-53.16-53.165c0-29.31 23.846-53.157 53.16-53.157zm0 101.199c26.486 0 48.037-21.551 48.037-48.042 0-26.483-21.551-48.032-48.037-48.032S15.964 37.43 15.964 63.912c0 26.491 21.547 48.042 48.033 48.042z" fill="#b8e9f4"/></g></g><path d="M19.39 63.912a3.066 3.066 0 0 1 6.132 0 3.066 3.066 0 0 1-6.132 0z" fill="#2f2f2f"/><path d="M25.366 86.217a3.073 3.073 0 0 1 1.122-4.188 3.06 3.06 0 0 1 4.186 1.123 3.057 3.057 0 0 1-1.122 4.186 3.057 3.057 0 0 1-4.186-1.121z" fill="#2f2f2f"/><path d="M41.694 102.547a3.067 3.067 0 0 1-1.122-4.186 3.058 3.058 0 0 1 4.186-1.121 3.061 3.061 0 0 1 1.126 4.186 3.063 3.063 0 0 1-4.19 1.121z" fill="#2f2f2f"/><path d="M86.302 102.547a3.061 3.061 0 0 1-4.183-1.121 3.057 3.057 0 0 1 1.119-4.186 3.057 3.057 0 0 1 4.186 1.121 3.06 3.06 0 0 1-1.122 4.186z" fill="#2f2f2f"/><path d="M102.632 86.224a3.062 3.062 0 0 1-4.186 1.115 3.057 3.057 0 0 1-1.122-4.178 3.065 3.065 0 1 1 5.308 3.063z" fill="#2f2f2f"/><path d="M108.609 63.912a3.062 3.062 0 0 1-3.064 3.065 3.058 3.058 0 0 1-3.064-3.057 3.063 3.063 0 1 1 6.128-.008z" fill="#2f2f2f"/><path d="M102.636 41.609a3.07 3.07 0 0 1-1.122 4.186 3.07 3.07 0 0 1-4.19-1.115 3.067 3.067 0 1 1 5.312-3.071z" fill="#2f2f2f"/><path d="M86.305 25.278a3.074 3.074 0 0 1 1.126 4.186 3.073 3.073 0 0 1-4.19 1.129 3.07 3.07 0 0 1-1.122-4.192 3.066 3.066 0 0 1 4.186-1.123z" fill="#2f2f2f"/><path d="M41.697 25.278a3.07 3.07 0 0 1 4.186 1.123 3.056 3.056 0 0 1-1.122 4.186 3.06 3.06 0 0 1-4.186-1.123 3.062 3.062 0 0 1 1.122-4.186z" fill="#2f2f2f"/><path d="M25.366 41.609a3.066 3.066 0 0 1 4.186-1.123 3.06 3.06 0 0 1 1.122 4.186 3.064 3.064 0 1 1-5.308-3.063z" fill="#2f2f2f"/></g></g><g><g fill="#2f2f2f"><path d="M55.858 63.921c0-4.496 3.647-8.136 8.14-8.136 4.496 0 8.136 3.64 8.136 8.136s-3.639 8.136-8.136 8.136c-4.493 0-8.14-3.64-8.14-8.136z"/><path d="M60.166 66.742h7.659v-43.64a3 3 0 0 0-3-3h-1.659a3 3 0 0 0-3 3v43.64z"/><path d="M55.858 63.921c0-4.496 3.647-8.136 8.14-8.136 4.496 0 8.136 3.64 8.136 8.136s-3.639 8.136-8.136 8.136c-4.493 0-8.14-3.64-8.14-8.136z"/></g><path d="M67.73 60.952l-1.983 7.392-26.601-7.125a3 3 0 0 1-2.122-3.674l.431-1.608a3 3 0 0 1 3.675-2.122l26.6 7.137z" fill="#2f2f2f"/><path d="M60.93 63.912a3.067 3.067 0 0 1 3.068-3.063 3.064 3.064 0 1 1 0 6.128 3.067 3.067 0 0 1-3.068-3.065z" fill="#fff"/></g></g><g><path d="M64.001 108.529a3.068 3.068 0 0 0 3.064-3.065 3.062 3.062 0 0 0-3.06-3.065 3.065 3.065 0 0 0-3.067 3.065 3.06 3.06 0 0 0 3.063 3.065z" fill="#2f2f2f"/></g></g></svg>