<svg id="レイヤー_1" xmlns="http://www.w3.org/2000/svg" viewBox="0 0 128 128"><g><path d="M48.65 75.466c1.489-.758 2.891-1.477 4.113-2.258 4.381-2.819 5.3-6.366 5.3-8.842 0-2.48-.919-6.028-5.31-8.848-1.213-.78-2.614-1.494-4.096-2.252-8.467-4.319-19.991-10.194-20.584-38.472H99.77c-.59 28.272-12.11 34.153-20.578 38.473-1.48.758-2.891 1.472-4.104 2.252-4.391 2.824-5.31 6.367-5.31 8.848 0 2.476.919 6.018 5.31 8.842 1.222.781 2.623 1.5 4.104 2.258 8.423 4.292 19.849 10.136 20.56 37.984h-71.66c.715-27.849 12.143-33.693 20.558-37.985z" fill="#fff"/><g><path d="M104.319 113.619c-.736-30.828-14.642-37.939-23.048-42.222-1.44-.741-2.686-1.375-3.711-2.035-2.169-1.392-3.212-3.024-3.212-4.996 0-1.977 1.043-3.614 3.212-5.001 1.025-.661 2.271-1.295 3.711-2.029 8.468-4.319 22.521-11.517 23.062-42.969A7.21 7.21 0 0 0 102.789.112h-77.57C21.239.112 18 3.334 18 7.322c0 3.399 2.356 6.227 5.515 6.995.518 31.498 14.593 38.699 23.069 43.019 1.437.734 2.682 1.368 3.708 2.023 2.154 1.393 3.203 3.025 3.203 5.007 0 1.976-1.049 3.613-3.203 4.996-1.026.66-2.271 1.294-3.712 2.03-8.41 4.287-22.334 11.398-23.057 42.276-3.163.768-5.523 3.6-5.523 7 0 3.979 3.239 7.219 7.219 7.219h77.57c3.975 0 7.21-3.239 7.21-7.219 0-3.461-2.437-6.344-5.68-7.049zM48.65 75.466c1.489-.758 2.891-1.477 4.113-2.258 4.381-2.819 5.3-6.366 5.3-8.842 0-2.48-.919-6.028-5.31-8.848-1.213-.78-2.614-1.494-4.096-2.252-8.467-4.319-19.991-10.194-20.584-38.472H99.77c-.59 28.272-12.11 34.153-20.578 38.473-1.48.758-2.891 1.472-4.104 2.252-4.391 2.824-5.31 6.367-5.31 8.848 0 2.476.919 6.018 5.31 8.842 1.222.781 2.623 1.5 4.104 2.258 8.423 4.292 19.849 10.136 20.56 37.984h-71.66c.715-27.849 12.143-33.693 20.558-37.985z" fill="#855c52"/></g><path d="M93.246 96.462H65.809V64.366h.019c0-4.89 2.529-9.209 7.128-12.161 1.349-.875 2.8-1.616 4.328-2.4 2.517-1.285 5.345-2.749 8.016-5.042H42.533c2.649 2.275 5.438 3.72 7.914 4.983 1.647.843 3.092 1.584 4.444 2.449 4.591 2.954 7.125 7.272 7.125 12.171h.018v32.096H34.597c-1.187 3.622-2.035 8.038-2.4 13.518h63.44c-.357-5.48-1.208-9.896-2.391-13.518z" fill="#d7598b"/></g></svg>