<svg id="レイヤー_1" xmlns="http://www.w3.org/2000/svg" viewBox="0 0 128 128"><g fill="#fcc21b"><path d="M64.003 30.345c-18.588 0-33.661 15.068-33.661 33.648 0 18.594 15.073 33.662 33.661 33.662s33.656-15.068 33.656-33.662c0-18.58-15.068-33.648-33.656-33.648z"/><path d="M56.757 24.21H71.25c.666 0 1.294-.328 1.677-.883a2.055 2.055 0 0 0 .239-1.875L65.92 1.827a2.038 2.038 0 1 0-3.834 0L54.84 21.462a2.028 2.028 0 0 0 .239 1.875 2.033 2.033 0 0 0 1.678.873z"/><path d="M97.265 40.989a2.035 2.035 0 0 0 1.805.569 2.06 2.06 0 0 0 1.496-1.16l8.759-19.01a2.047 2.047 0 0 0-2.715-2.715l-19.008 8.77a2.04 2.04 0 0 0-1.155 1.498c-.117.658.096 1.33.565 1.809l10.253 10.239z"/><path d="M126.182 62.077l-19.642-7.24a2.042 2.042 0 0 0-1.879.244 2.037 2.037 0 0 0-.873 1.674l.005 14.492c0 .67.33 1.299.878 1.682a2.054 2.054 0 0 0 1.874.234l19.637-7.244a2.045 2.045 0 0 0 1.336-1.926c0-.849-.533-1.617-1.336-1.916z"/><path d="M100.561 87.603a2.062 2.062 0 0 0-1.496-1.16 2.064 2.064 0 0 0-1.805.568l-10.245 10.25a2.044 2.044 0 0 0 .586 3.303l19.014 8.76c.271.127.564.184.857.184.527 0 1.054-.207 1.442-.596a2.033 2.033 0 0 0 .41-2.299l-8.763-19.01z"/><path d="M71.244 103.784l-14.493.006c-.665 0-1.294.33-1.672.879a2.045 2.045 0 0 0-.245 1.873l7.252 19.637a2.04 2.04 0 1 0 3.834 0l7.246-19.641a2.04 2.04 0 0 0-.245-1.875 2.02 2.02 0 0 0-1.677-.879z"/><path d="M30.741 87.011a2.059 2.059 0 0 0-1.805-.568c-.66.117-1.22.555-1.497 1.16l-8.764 19.01a2.05 2.05 0 0 0 1.858 2.901c.293 0 .58-.059.857-.186l19.008-8.77a2.039 2.039 0 0 0 .592-3.301L30.741 87.011z"/><path d="M22.174 73.29a2.057 2.057 0 0 0 2.045-2.049l-.006-14.492c0-.666-.33-1.295-.878-1.678a2.039 2.039 0 0 0-1.875-.238l-19.642 7.25a2.049 2.049 0 1 0 0 3.84l19.647 7.24c.23.084.47.127.709.127z"/><path d="M27.445 40.397a2.06 2.06 0 0 0 1.858 1.193c.538 0 1.06-.215 1.448-.598l10.244-10.254c.469-.479.682-1.15.564-1.812a2.036 2.036 0 0 0-1.155-1.49l-19.019-8.764a2.039 2.039 0 0 0-2.3.416 2.04 2.04 0 0 0-.41 2.299l8.77 19.01z"/></g></svg>