<svg id="图层_1" xmlns="http://www.w3.org/2000/svg" viewBox="0 0 128 128"><path d="M109.654 53.484h-.01c.001-.07.01-.138.01-.208 0-9.552-7.744-17.296-17.296-17.296-1.229 0-2.427.133-3.584.377-3.426-8.34-11.62-14.217-21.195-14.217-7.19 0-13.6 3.317-17.801 8.498a19.824 19.824 0 0 0-9-2.164c-10.348 0-18.851 7.884-19.838 17.973C9.675 47.039.646 56.263.498 67.707.344 79.632 9.887 89.425 21.812 89.579c.927.012 1.835-.054 2.732-.156 4.606 9.716 14.5 16.437 25.967 16.437a28.6 28.6 0 0 0 18.221-6.52c3.791 2.807 8.467 4.488 13.546 4.488 10.419 0 19.189-6.993 21.918-16.535 1.717.569 3.548.889 5.457.889 9.582 0 17.349-7.768 17.349-17.349.002-9.582-7.766-17.349-17.348-17.349z" fill="#e3ebee"/><path d="M119.849 56.794c3.929 3.967 1.153 13.073-1.554 16.041-5.317 5.828-15.084 4.468-19.002 3.625-1.06-.228-1.231-.15-1.575.061-.309.189-.453.489-.785 1.203-1.265 2.719-4.52 7.991-11.397 10.114-7.167 2.213-13.925-1.156-17.094-3.171-1.199-.762-1.251-.78-1.793-.775-.549.005-1.095.41-1.743.92-2.855 2.249-9.393 6.217-19.461 5.641-9.875-.565-15.524-6.654-17.456-9.78-.371-.6-.773-1.104-1.226-1.15-.527-.054-1.115.492-1.562.926-4.204 4.092-17.416 5.319-21.804-1.648 4.456 7.15 11.347 10.688 18.416 10.78.927.012 1.835-.054 2.732-.156 4.606 9.716 14.5 16.437 25.967 16.437a28.6 28.6 0 0 0 18.221-6.52c3.791 2.807 8.467 4.488 13.546 4.488 10.419 0 19.189-6.993 21.918-16.535 1.717.569 3.548.889 5.457.889 9.582 0 17.349-7.767 17.349-17.349.001-5.107-2.564-10.863-7.154-14.041z" fill="#b9cdd2"/></svg>