<svg id="レイヤー_1" xmlns="http://www.w3.org/2000/svg" xmlns:xlink="http://www.w3.org/1999/xlink" viewBox="0 0 128 128"><g><g><g><g><path d="M70.598 25.348l-.866-17.654C69.546 5.049 67.489 3 65.015 3h-.241c-2.479 0-4.534 2.049-4.718 4.694l-.911 18.295c-.101 1.412.353 2.802 1.249 3.831.892 1.04 2.151 1.627 3.464 1.627h2.104c2.613 0 4.73-2.273 4.73-5.075a5.426 5.426 0 0 0-.094-1.024z" fill="#78a3ad"/></g><g><path d="M49.642 126.486a21.236 21.236 0 0 1-20.636-16.119c-.804-3.225 1.164-6.487 4.387-7.301 3.213-.813 6.489 1.167 7.293 4.39a9.205 9.205 0 0 0 8.956 6.987c5.088 0 9.226-4.135 9.226-9.231V39.12a6.015 6.015 0 0 1 6.017-6.021 6.016 6.016 0 0 1 6.019 6.021v66.092c0 11.73-9.535 21.274-21.262 21.274z" fill="#78a3ad"/></g><g><defs><path id="SVGID_1_" d="M23.739 62.671c8.819 0 16.486 4.9 20.445 12.122 3.958-7.222 11.631-12.122 20.446-12.122 8.818 0 16.491 4.9 20.45 12.122 3.954-7.222 11.626-12.122 20.445-12.122 7.114 0 13.479 3.204 17.751 8.231.132-1.195.215-2.401.215-3.615 0-24.375-26.354-44.135-58.861-44.135-32.503 0-58.857 19.76-58.857 44.135 0 1.214.083 2.42.216 3.615 4.272-5.027 10.631-8.231 17.75-8.231z"/></defs><use xlink:href="#SVGID_1_" overflow="visible" fill="#006ca2"/><clipPath id="SVGID_2_"><use xlink:href="#SVGID_1_" overflow="visible"/></clipPath></g></g></g><path d="M85.081 74.656a2.512 2.512 0 0 1-2.201-1.303 20.813 20.813 0 0 0-18.25-10.818 20.81 20.81 0 0 0-18.246 10.818c-.882 1.607-3.518 1.607-4.4 0a20.81 20.81 0 0 0-18.245-10.818c-6.097 0-11.872 2.68-15.84 7.349a2.513 2.513 0 0 1-2.646.775 2.517 2.517 0 0 1-1.759-2.127 35.118 35.118 0 0 1-.23-3.889C3.265 38.925 30.792 18 64.63 18 98.471 18 126 38.925 126 64.643c0 1.308-.087 2.606-.229 3.889a2.513 2.513 0 0 1-1.76 2.127 2.539 2.539 0 0 1-2.645-.775c-3.969-4.669-9.743-7.349-15.84-7.349a20.797 20.797 0 0 0-18.245 10.818 2.509 2.509 0 0 1-2.2 1.303zM23.739 57.518c8.077 0 15.6 3.773 20.445 10.059A25.816 25.816 0 0 1 64.63 57.518a25.821 25.821 0 0 1 20.45 10.059 25.803 25.803 0 0 1 20.445-10.059c5.6 0 10.979 1.819 15.392 5.105C119.492 40.605 95.071 24 64.912 24 34.756 24 9.773 40.605 8.347 62.624a25.75 25.75 0 0 1 15.392-5.106z" fill="#006ca2"/></g></svg>