<svg id="图层_1" xmlns="http://www.w3.org/2000/svg" viewBox="0 0 128 128"><g><path d="M100.499 72.622c-.915 0-1.81-.413-2.4-1.184a3.037 3.037 0 0 1 .534-4.262l16.786-12.939a3.035 3.035 0 0 1 4.256.547 3.036 3.036 0 0 1-.561 4.262l-16.766 12.939a2.962 2.962 0 0 1-1.849.637z" fill="#2f2f2f"/><path d="M107.934 66.88c-1.478 0-2.78-1.077-3.004-2.575l-1.433-9.395a3.036 3.036 0 0 1 2.553-3.463 3.042 3.042 0 0 1 3.457 2.548l1.425 9.395a3.022 3.022 0 0 1-2.544 3.454 2.581 2.581 0 0 1-.454.036z" fill="#2f2f2f"/><path d="M26.876 71.976c-.723 0-1.44-.251-2.024-.772L8.188 56.301a3.031 3.031 0 0 1-.242-4.289 3.042 3.042 0 0 1 4.289-.238L28.9 66.678a3.034 3.034 0 0 1 .227 4.285 2.981 2.981 0 0 1-2.251 1.013z" fill="#2f2f2f"/><path d="M19.796 65.642a3.03 3.03 0 0 1-2.929-3.84l2.508-9.135c.449-1.615 2.118-2.575 3.733-2.122a3.019 3.019 0 0 1 2.116 3.733l-2.505 9.135a3.037 3.037 0 0 1-2.923 2.229z" fill="#2f2f2f"/><path d="M23.383 101.518c5.212 11.853 16.858 20.069 31.154 21.979 2.736.364 5.584.593 8.464.682a84.558 84.558 0 0 0 8.485-.682c14.291-1.91 25.937-10.129 31.147-21.985 4.814-10.955 3.438-23.16-3.776-33.487a46.25 46.25 0 0 0-1.792-2.385 39.94 39.94 0 0 0-6.806-6.624l-.128-.097a2.845 2.845 0 0 1-.484-4.056l.101-.124c4.524-5.571 6.916-12.223 6.916-19.236C96.665 18.131 81.861 4 63.663 4S30.661 18.131 30.661 35.501c0 6.734 2.228 13.174 6.443 18.623l.094.121a2.834 2.834 0 0 1-.334 3.83l-.114.105c-.2.182-.408.369-.656.568l-.087.067c-2.554 1.9-4.934 4.201-7.073 6.837a48.285 48.285 0 0 0-1.779 2.372c-7.213 10.33-8.588 22.538-3.772 33.494z" fill="#e0e0e0"/><g><g><g><g><path d="M55.886 36.067c-.094 3.176-2.344 5.653-4.966 5.563-2.645-.108-4.711-2.745-4.59-5.922.112-3.159 2.333-5.653 4.98-5.554 2.642.089 4.69 2.745 4.576 5.913z" fill="#2f2f2f"/></g></g></g><g><g><g><path d="M70.068 36.067c.099 3.176 2.338 5.653 4.967 5.563 2.636-.108 4.709-2.745 4.587-5.922-.105-3.159-2.34-5.653-4.987-5.554-2.636.089-4.688 2.745-4.567 5.913z" fill="#2f2f2f"/></g></g></g></g><path d="M69.162 50.076c-.512.24-1.025.424-1.404.556-2.338.81-4.805.713-7.21.321-.837-.136-1.723-.332-2.515-.628-1.2-.451-3.141-.857-3.551-2.371-.215-.794.171-1.911.727-2.496.799-.855 1.643-.355 2.526.087 1.01.507 2.026.895 3.163 1.063 1.4.207 2.737.404 4.159.074 1.068-.249 1.963-.545 2.938-1.079.599-.33.92-.648 1.595-.312.626.31 1.025 1.052 1.371 1.618 1.007 1.668-.472 2.554-1.799 3.167z" fill="#2f2f2f"/></g><circle cx="7.928" cy="7.928" r="3.928" fill="#e0e0e0"/><circle cx="24.928" cy="10.928" r="3.928" fill="#e0e0e0"/><circle cx="14.928" cy="22.072" r="3.928" fill="#e0e0e0"/><circle cx="7.928" cy="33.438" r="3.928" fill="#e0e0e0"/><circle cx="16.811" cy="43.072" r="3.928" fill="#e0e0e0"/><circle cx="118.928" cy="7.928" r="3.928" fill="#e0e0e0"/><circle cx="101.928" cy="10.928" r="3.928" fill="#e0e0e0"/><circle cx="111.928" cy="22.072" r="3.928" fill="#e0e0e0"/><circle cx="118.928" cy="33.438" r="3.928" fill="#e0e0e0"/><circle cx="110.046" cy="43.072" r="3.928" fill="#e0e0e0"/></svg>