<svg id="レイヤー_1" xmlns="http://www.w3.org/2000/svg" viewBox="0 0 128 128"><linearGradient id="SVGID_1_" gradientUnits="userSpaceOnUse" x1="116.145" y1="10.225" x2="17.785" y2="115.27" gradientTransform="matrix(.9948 .035 -.0441 .9944 2.95 -2.27)"><stop offset="0" stop-color="#fff" stop-opacity="0"/><stop offset=".157" stop-color="#d3f0f9" stop-opacity=".157"/><stop offset=".365" stop-color="#9fdff3" stop-opacity=".365"/><stop offset=".561" stop-color="#76d2ee" stop-opacity=".561"/><stop offset=".738" stop-color="#58c8ea" stop-opacity=".738"/><stop offset=".89" stop-color="#46c2e8" stop-opacity=".89"/><stop offset="1" stop-color="#40c0e7"/></linearGradient><path d="M28.801 123.119c-7.672 5.376-17.347 6.146-23.566-.862-6.219-7.009-4.817-16.549.644-24.317C16.489 82.849 83.797 1.315 83.797 1.315s21.182-3.989 33.998 11.332c12.816 15.322 9.01 35.08 9.01 35.08s-82.476 64.511-98.004 75.392z" fill="url(#SVGID_1_)"/><linearGradient id="SVGID_2_" gradientUnits="userSpaceOnUse" x1="112.802" y1="13.819" x2="14.276" y2="117.703" gradientTransform="rotate(2.688 69.059 67.412)"><stop offset="0" stop-color="#fff" stop-opacity="0"/><stop offset="1" stop-color="#b388ff"/></linearGradient><path d="M3.7 106.804c6.517-9.743 33.695-41.766 49.65-55.785C69.305 37 74.04 32.553 88.93 21.64c3.495-2.562 14.381-2.514 18.603 2.922 4.725 6.084 3.237 14.421 1.28 17.757-1.409 2.401-20.345 24.632-32.45 35.355-12.106 10.723-50.525 45.073-56.802 48.037-6.277 2.964-11.612-.806-14.532-3.681C2.11 119.154.916 110.968 3.7 106.804z" opacity=".5" fill="url(#SVGID_2_)"/><linearGradient id="SVGID_3_" gradientUnits="userSpaceOnUse" x1="83.565" y1="49.46" x2="19.712" y2="112.186" gradientTransform="rotate(2.292 73.55 64.281)"><stop offset="0" stop-color="#fff" stop-opacity="0"/><stop offset="1" stop-color="#e0f7fa"/></linearGradient><path d="M6.93 107.396s29.012-25.865 46.35-39.394c37.437-29.212 20.74-5.808-33.05 52.375 0 .001-10.74 3.779-13.3-12.981z" fill="url(#SVGID_3_)"/><path d="M19.542 108.151c3.409 3.841 3.18 9.831-.511 13.38-3.692 3.547-9.447 3.309-12.856-.532-3.409-3.842-3.18-9.833.511-13.379 3.692-3.549 9.447-3.311 12.856.531z" fill="#e0f7fa"/><g fill="#fff"><circle cx="21" cy="116" r="1"/><circle cx="19" cy="102" r="1"/><circle cx="19" cy="92.25" r="1"/><circle cx="11" cy="116" r="1.75"/><circle cx="24" cy="107" r="1.75"/><circle cx="30" cy="97.75" r="1.75"/><circle cx="12.75" cy="108.75" r="1.75"/><circle cx="40.199" cy="103" r="1"/><circle cx="52.5" cy="90.5" r="1.25"/><circle cx="43.25" cy="91" r="1.25"/><circle cx="71.25" cy="63" r="1.25"/><circle cx="52.25" cy="75" r="1.25"/><circle cx="41" cy="75" r="1.25"/><circle cx="107" cy="36.25" r="1.25"/><circle cx="91" cy="35.75" r="1.25"/><circle cx="90.75" cy="48" r="1.25"/><circle cx="63.25" cy="57" r="1.25"/><circle cx="67" cy="84" r="1"/><circle cx="67" cy="72" r="1"/><circle cx="46" cy="64" r="1"/><circle cx="38" cy="67" r="1"/><circle cx="72" cy="42" r="1"/><circle cx="56.5" cy="58.5" r="1.25"/><circle cx="53" cy="56" r="1"/><circle cx="31.75" cy="111.5" r="1"/><circle cx="33" cy="78" r="1"/><circle cx="30" cy="87.085" r="1"/></g></svg>