<svg id="レイヤー_1" xmlns="http://www.w3.org/2000/svg" xmlns:xlink="http://www.w3.org/1999/xlink" viewBox="0 0 128 128"><g><g><defs><path id="SVGID_1_" d="M127.017 40.065c-.936-9.455-7.312-17.379-15.115-22.188-8.863-5.478-19.113-8.727-29.393-10.193a129.17 129.17 0 0 0-28.396-.88c-4.627.366-9.264.938-13.812 1.85-5.988 1.195-12.752 3.215-18.961 6.287C10.99 20.058 2.166 28.091.985 40.065c-.4 4.086.125 7.542 2.69 10.755a9.51 9.51 0 0 0 1.25 1.248c.135.109.273.21.418.315.352.27.723.512 1.113.731.154.091.301.183.467.265.537.279 1.107.532 1.707.738.029.014.068.019.098.027.584.196 1.189.356 1.812.489.195.041.4.078.606.116.488.09.994.163 1.512.22.205.022.4.048.604.064a27.38 27.38 0 0 0 2.137.091c.936 0 1.883-.057 2.838-.148.283-.027.576-.071.863-.105a32.022 32.022 0 0 0 2.033-.306c.33-.06.652-.121.988-.192.426-.091.859-.205 1.285-.312L23 55.843l-9.986 30.269s-2.033 6.71-2.184 13.107c-.156 6.397.004 9.75.209 13.564.137 2.489 1.82 8.111 8.68 8.111h4.865l39.398-74.508 39.396 74.508h4.857c6.869 0 8.553-5.622 8.689-8.111.205-3.814.365-7.167.209-13.564-.162-6.396-2.184-13.107-2.184-13.107l-9.986-30.269-.414-1.792c.447.112.887.229 1.336.325a34.955 34.955 0 0 0 3.024.495c.281.034.564.078.848.105.955.092 1.912.148 2.848.148.721 0 1.434-.036 2.125-.091.205-.017.41-.042.605-.064a23.365 23.365 0 0 0 2.115-.334 16.32 16.32 0 0 0 1.844-.496c.02-.009.049-.014.068-.018.604-.211 1.18-.464 1.717-.745.156-.08.303-.167.457-.256.391-.225.771-.469 1.121-.738.137-.105.283-.206.41-.313a8.286 8.286 0 0 0 1.248-1.25c2.575-3.212 3.102-6.668 2.702-10.754z"/></defs><use xlink:href="#SVGID_1_" overflow="visible" fill="#40c0e7"/><clipPath id="SVGID_2_"><use xlink:href="#SVGID_1_" overflow="visible"/></clipPath><path d="M24.983 61.304s-5.197.58-8.006.27l1.561-29.907L54.268 20.9l27.93 2.653s23.717 8.893 24.34 9.361c.625.469 8.113 18.88 8.113 18.88l2.186 9.882s-7.49.832-14.277-.488l-77.577.116z" clip-path="url(#SVGID_2_)" fill="#2f2f2f"/></g><g><g><path d="M60.933 56.819c.596-.235 1.498-.464 2.172-.42 1.289.073 2.936-.073 4.037.498 1.434.735 1.213 2.459 1.082 3.579-.068.672-.391 1.346-1.24 1.671-.379.157-.855.244-1.42.287-.84.06-1.68.051-2.529.03-1.949-.053-3.127-.649-3.176-2.208-.032-.988-.34-2.867 1.074-3.437z" fill="#fff"/><path d="M60.812 66.133c.625-.261 1.561-.503 2.273-.459 1.326.077 3.043-.078 4.193.541 1.502.805 1.268 2.677 1.141 3.89-.076.728-.41 1.463-1.295 1.824-.402.162-.891.263-1.484.304-.879.073-1.746.053-2.633.032-2.039-.053-3.268-.706-3.316-2.404-.028-1.077-.362-3.111 1.121-3.728z" fill="#fff"/><path d="M60.688 76.265c.65-.279 1.625-.552 2.365-.503 1.391.089 3.18-.087 4.391.589 1.549.873 1.316 2.917 1.178 4.242-.068.795-.426 1.6-1.344 1.995-.42.174-.936.283-1.551.327-.918.073-1.834.06-2.748.039-2.139-.06-3.414-.771-3.475-2.629-.028-1.17-.368-3.391 1.184-4.06z" fill="#fff"/><path d="M52.173 92.065c-.137.864-.567 1.746-1.561 2.176-.449.199-.992.318-1.648.37-.953.078-1.922.058-2.877.034-2.234-.059-3.531-.843-3.439-2.877.047-1.287-.146-3.714 1.518-4.452.693-.306 1.746-.599 2.506-.544 1.453.092 3.336-.098 4.557.646 1.567.952 1.172 3.192.944 4.647z" fill="#fff"/><path d="M52.679 80.593c-.117.795-.523 1.6-1.473 1.995-.43.174-.953.283-1.58.327-.912.073-1.832.06-2.748.039-2.127-.06-3.367-.771-3.287-2.629.039-1.17-.156-3.392 1.434-4.061.662-.279 1.656-.552 2.4-.503 1.383.089 3.188-.087 4.348.589 1.503.874 1.13 2.918.906 4.243z" fill="#fff"/><path d="M53.155 70.104c-.115.728-.506 1.463-1.412 1.824-.41.162-.906.263-1.502.304-.877.073-1.756.053-2.633.032-2.037-.053-3.228-.706-3.16-2.404.039-1.076-.156-3.11 1.369-3.728.633-.261 1.586-.503 2.291-.459 1.322.077 3.049-.078 4.17.541 1.444.806 1.096 2.678.877 3.89z" fill="#fff"/><path d="M53.595 60.477c-.117.672-.486 1.346-1.355 1.671-.389.157-.865.244-1.443.287-.836.06-1.678.051-2.525.03-1.949-.053-3.088-.649-3.031-2.208.029-.989-.166-2.868 1.309-3.438.601-.235 1.512-.459 2.193-.42 1.266.073 2.926-.073 4.006.498 1.373.736 1.041 2.459.846 3.58z" fill="#fff"/><path d="M68.856 92.065c-.076.864-.449 1.746-1.412 2.176-.43.199-.977.318-1.631.37-.955.078-1.92.058-2.875.034-2.234-.059-3.58-.843-3.629-2.877-.029-1.287-.389-3.714 1.238-4.452.676-.306 1.699-.599 2.467-.544 1.463.092 3.336-.098 4.596.646 1.627.952 1.383 3.192 1.246 4.647z" fill="#fff"/><path d="M74.476 60.257c-.088-.989-.527-2.868.855-3.438.576-.235 1.465-.459 2.146-.42 1.287.073 2.916-.073 4.066.498 1.473.735 1.377 2.459 1.316 3.579-.029.672-.311 1.346-1.131 1.678-.369.15-.838.237-1.404.28-.838.06-1.678.051-2.523.03-1.962-.052-3.175-.649-3.325-2.207z" fill="#fff"/><path d="M75.819 66.133c.605-.261 1.531-.503 2.233-.459 1.338.077 3.045-.078 4.244.541 1.541.805 1.434 2.677 1.385 3.89-.029.728-.32 1.463-1.18 1.824-.381.162-.869.263-1.463.304-.869.073-1.746.053-2.625.032-2.057-.053-3.324-.706-3.48-2.404-.098-1.077-.565-3.111.886-3.728z" fill="#fff"/><path d="M76.347 76.265c.625-.279 1.59-.552 2.332-.503 1.393.089 3.178-.087 4.426.589 1.619.873 1.512 2.917 1.463 4.242-.02.795-.326 1.6-1.219 1.995-.41.174-.918.283-1.531.327-.912.073-1.834.06-2.748.039-2.137-.06-3.473-.771-3.631-2.629-.108-1.17-.594-3.391.908-4.06z" fill="#fff"/><path d="M85.542 92.065c-.029.864-.34 1.746-1.275 2.176-.42.199-.947.318-1.602.37-.945.078-1.91.058-2.867.034-2.252-.059-3.637-.843-3.822-2.877-.117-1.287-.623-3.714.957-4.452.652-.306 1.656-.599 2.428-.544 1.463.092 3.316-.098 4.637.646 1.69.952 1.585 3.192 1.544 4.647z" fill="#fff"/><g fill="#006ca2"><path d="M111.796 90.817c-1.221-3.752-2.352-7.546-3.561-11.314-1.959-6.086-3.822-12.197-5.676-18.315-6.008-1.628-11.869-4.633-15.037-8.879-3.424-4.569-2-9.67-1.053-13.043l.098-.375c-.801-.726-3.354-2.102-11.498-3.476l-.762-.13c-2.086-.368-4.33-.562-10.199-.562h-.225c-5.861 0-8.104.194-10.191.562l-.76.13c-8.141 1.374-10.699 2.75-11.498 3.476l.107.396c.938 3.368 2.35 8.458-1.062 13.023-3.244 4.354-9.322 7.397-15.496 8.995-1.844 6.079-3.691 12.151-5.646 18.199-1.209 3.769-2.34 7.562-3.557 11.314a28.518 28.518 0 0 0-1.143 4.994c-.791 5.54-.195 11.107-.225 16.782-.029 6.047 2.916 8.301 10.17 8.301h78.406c7.256 0 10.211-2.254 10.17-8.301-.029-5.675.566-11.242-.225-16.782a28.85 28.85 0 0 0-1.137-4.995zM60.933 56.819c.596-.235 1.498-.464 2.172-.42 1.289.073 2.936-.073 4.037.498 1.434.735 1.213 2.459 1.082 3.579-.068.672-.391 1.346-1.24 1.671-.379.157-.855.244-1.42.287-.84.06-1.68.051-2.529.03-1.949-.053-3.127-.649-3.176-2.208-.032-.988-.34-2.867 1.074-3.437zm-.121 9.314c.625-.261 1.561-.503 2.273-.459 1.326.077 3.043-.078 4.193.541 1.502.805 1.268 2.677 1.141 3.89-.076.728-.41 1.463-1.295 1.824-.402.162-.891.263-1.484.304-.879.073-1.746.053-2.633.032-2.039-.053-3.268-.706-3.316-2.404-.028-1.077-.362-3.111 1.121-3.728zm-.124 10.132c.65-.279 1.625-.552 2.365-.503 1.391.089 3.18-.087 4.391.589 1.549.873 1.316 2.917 1.178 4.242-.068.795-.426 1.6-1.344 1.995-.42.174-.936.283-1.551.327-.918.073-1.834.06-2.748.039-2.139-.06-3.414-.771-3.475-2.629-.028-1.17-.368-3.391 1.184-4.06zm-8.515 15.8c-.137.864-.567 1.746-1.561 2.176-.449.199-.992.318-1.648.37-.953.078-1.922.058-2.877.034-2.234-.059-3.531-.843-3.439-2.877.047-1.287-.146-3.714 1.518-4.452.693-.306 1.746-.599 2.506-.544 1.453.092 3.336-.098 4.557.646 1.567.952 1.172 3.192.944 4.647zm.506-11.472c-.117.795-.523 1.6-1.473 1.995-.43.174-.953.283-1.58.327-.912.073-1.832.06-2.748.039-2.127-.06-3.367-.771-3.287-2.629.039-1.17-.156-3.392 1.434-4.061.662-.279 1.656-.552 2.4-.503 1.383.089 3.188-.087 4.348.589 1.503.874 1.13 2.918.906 4.243zm.476-10.489c-.115.728-.506 1.463-1.412 1.824-.41.162-.906.263-1.502.304-.877.073-1.756.053-2.633.032-2.037-.053-3.228-.706-3.16-2.404.039-1.076-.156-3.11 1.369-3.728.633-.261 1.586-.503 2.291-.459 1.322.077 3.049-.078 4.17.541 1.444.806 1.096 2.678.877 3.89zm.44-9.627c-.117.672-.486 1.346-1.355 1.671-.389.157-.865.244-1.443.287-.836.06-1.678.051-2.525.03-1.949-.053-3.088-.649-3.031-2.208.029-.989-.166-2.868 1.309-3.438.601-.235 1.512-.459 2.193-.42 1.266.073 2.926-.073 4.006.498 1.373.736 1.041 2.459.846 3.58zm15.261 31.588c-.076.864-.449 1.746-1.412 2.176-.43.199-.977.318-1.631.37-.955.078-1.92.058-2.875.034-2.234-.059-3.58-.843-3.629-2.877-.029-1.287-.389-3.714 1.238-4.452.676-.306 1.699-.599 2.467-.544 1.463.092 3.336-.098 4.596.646 1.627.952 1.383 3.192 1.246 4.647zm5.62-31.808c-.088-.989-.527-2.868.855-3.438.576-.235 1.465-.459 2.146-.42 1.287.073 2.916-.073 4.066.498 1.473.735 1.377 2.459 1.316 3.579-.029.672-.311 1.346-1.131 1.678-.369.15-.838.237-1.404.28-.838.06-1.678.051-2.523.03-1.962-.052-3.175-.649-3.325-2.207zm1.343 5.876c.605-.261 1.531-.503 2.233-.459 1.338.077 3.045-.078 4.244.541 1.541.805 1.434 2.677 1.385 3.89-.029.728-.32 1.463-1.18 1.824-.381.162-.869.263-1.463.304-.869.073-1.746.053-2.625.032-2.057-.053-3.324-.706-3.48-2.404-.098-1.077-.565-3.111.886-3.728zm.528 10.132c.625-.279 1.59-.552 2.332-.503 1.393.089 3.178-.087 4.426.589 1.619.873 1.512 2.917 1.463 4.242-.02.795-.326 1.6-1.219 1.995-.41.174-.918.283-1.531.327-.912.073-1.834.06-2.748.039-2.137-.06-3.473-.771-3.631-2.629-.108-1.17-.594-3.391.908-4.06zm9.195 15.8c-.029.864-.34 1.746-1.275 2.176-.42.199-.947.318-1.602.37-.945.078-1.91.058-2.867.034-2.252-.059-3.637-.843-3.822-2.877-.117-1.287-.623-3.714.957-4.452.652-.306 1.656-.599 2.428-.544 1.463.092 3.316-.098 4.637.646 1.69.952 1.585 3.192 1.544 4.647z"/><path d="M127.017 42.561c-1.891-19.156-23.346-28.225-39.32-31.411-5.635-1.124-11.594-1.833-17.619-2.114h-.012c-1.9-.091-3.812-.132-5.721-.135-.109-.002-.227-.007-.334-.007-1.883 0-3.773.049-5.656.131-.127.004-.264 0-.398.011-1.68.078-3.357.206-5.023.351-.322.029-.654.038-.973.068-1.115.107-2.207.263-3.309.396-2.828.347-5.637.759-8.352 1.3C24.329 14.336 2.876 23.404.983 42.561c-.398 4.087.127 7.545 2.691 10.758.371.457.801.864 1.25 1.245.135.11.273.213.418.318.352.268.723.512 1.113.731.154.089.301.183.467.265.537.276 1.107.53 1.707.736.029.014.068.021.098.029.584.195 1.19.357 1.813.488.195.041.4.077.606.116.488.092.994.164 1.512.22.205.022.4.05.604.063.703.058 1.416.094 2.137.094.936 0 1.883-.06 2.838-.148.283-.027.576-.071.863-.105a31.329 31.329 0 0 0 2.033-.309c.33-.057.652-.121.988-.191.658-.14 1.322-.3 1.975-.48.293-.077.586-.146.869-.235.605-.178 1.182-.389 1.766-.597.273-.096.566-.176.84-.28.027-.012.066-.019.096-.034a31.816 31.816 0 0 0 2.506-1.111c.244-.121.469-.254.703-.375a23.745 23.745 0 0 0 1.568-.916c.246-.151.488-.313.713-.471.479-.327.912-.665 1.326-1.015.186-.153.371-.305.547-.462.549-.505 1.053-1.031 1.453-1.577 2.135-2.85.867-6.386.01-9.549-.791-2.95 1.482-4.984 4.621-6.401 4.01-1.806 9.441-2.605 11.725-2.998.318-.06.633-.11.963-.158.078-.014.166-.022.256-.034.244-.034.496-.07.758-.104 0 0 .078-.003.119-.007.311-.037.633-.069.977-.097.066-.009.146-.014.221-.021.312-.025.635-.048.986-.07.137-.01.293-.012.438-.024.305-.014.598-.029.928-.043.186-.01.402-.014.598-.018.318-.012.621-.021.975-.032l.797-.007a39.74 39.74 0 0 1 1.01-.017c.307-.003.648-.003.98-.003.346-.005.674-.005 1.043-.005h.224c.383 0 .701 0 1.053.005.322 0 .672 0 .975.003.361.002.695.009 1.025.017l.791.007.992.032c.186.007.391.009.568.018.35.014.66.029.975.048.125.007.271.009.398.019.361.022.701.045 1.033.075.049.005.117.009.178.012.34.031.662.063.975.101.037.004.076.007.115.007.264.034.508.07.762.104.078.012.166.021.254.034.32.048.643.099.967.158 2.309.397 7.828 1.213 11.855 3.064 3.062 1.412 5.266 3.429 4.477 6.335-.85 3.163-2.115 6.699.02 9.549.4.546.908 1.067 1.453 1.577.172.157.361.308.545.464.42.348.85.686 1.328 1.013.223.157.467.315.701.471.508.317 1.033.624 1.58.916.234.124.459.254.701.375.801.396 1.639.774 2.506 1.111.031.014.061.021.088.031.119.048.254.083.371.126.732.271 1.482.53 2.244.754.283.09.574.158.867.235a33.581 33.581 0 0 0 5.004.98c.281.034.564.078.848.105a30.86 30.86 0 0 0 2.848.148c.721 0 1.434-.036 2.125-.094.205-.014.41-.041.605-.063a21.474 21.474 0 0 0 1.521-.22c.205-.039.4-.075.594-.114a16.751 16.751 0 0 0 1.844-.494c.02-.011.049-.016.068-.021.604-.21 1.18-.464 1.717-.742.156-.08.303-.169.457-.256a10.43 10.43 0 0 0 1.121-.738c.137-.105.283-.208.41-.315a8.32 8.32 0 0 0 1.248-1.248c2.571-3.214 3.098-6.672 2.698-10.758z"/></g></g><path d="M9.556 33.141c-.818.347-1.967 1.874-2.399 2.644-2.783 4.967-3.062 13.425 3.014 16.122 3.09 1.371 7.412-1.02 5.023-4.648-.713-1.077-2.168-1.495-3.092-2.354-3.006-2.763-1.912-6.548-1.67-10.065.108-1.602-.3-1.943-.876-1.699z" fill="#fff"/><path d="M98.093 40.337c-1.502.729-2.086 2.713-1.682 4.242.906 3.405 6.803 1.199 4.871-2.619-.906-1.799-2.164-2.121-3.189-1.623z" fill="#fff"/></g></g></svg>