<svg id="レイヤー_1" xmlns="http://www.w3.org/2000/svg" viewBox="0 0 128 128"><g><path fill="#fff" d="M7.859 7.852H120.14v112.287H7.859z"/><g><g><path d="M124.535.474H3.47A2.991 2.991 0 0 0 .479 3.46v121.072a2.998 2.998 0 0 0 2.991 2.994h121.065c1.639 0 2.986-1.351 2.986-2.994V3.46a2.995 2.995 0 0 0-2.986-2.986zm-4.394 119.666H7.859V7.852H120.14V120.14z" fill="#2f2f2f"/></g><path fill-rule="evenodd" clip-rule="evenodd" fill="#ed6c30" d="M116.122 34.879l-9.319-9.325-57.681 58.235-27.919-27.747-9.325 9.323 37.286 37.075 5.921-5.921-.028-.029z"/></g></g></svg>