<svg id="レイヤー_1" xmlns="http://www.w3.org/2000/svg" xmlns:xlink="http://www.w3.org/1999/xlink" viewBox="0 0 128 128"><g><g><g><g><path d="M69.625 32.277l-.815-16.646c-.176-2.495-2.116-4.427-4.449-4.427h-.227c-2.338 0-4.276 1.932-4.449 4.427l-.859 17.251c-.095 1.331.333 2.643 1.178 3.612.841.981 2.028 1.534 3.267 1.534h1.984c2.465 0 4.461-2.144 4.461-4.785a5.237 5.237 0 0 0-.091-.966z" fill="#78a3ad"/></g><g><path d="M49.865 127.647a20.025 20.025 0 0 1-19.459-15.199c-.758-3.041 1.097-6.117 4.137-6.885 3.03-.767 6.119 1.101 6.877 4.14a8.68 8.68 0 0 0 8.445 6.589c4.798 0 8.7-3.899 8.7-8.705V45.264a5.672 5.672 0 0 1 5.673-5.678 5.673 5.673 0 0 1 5.676 5.678v62.323c0 11.06-8.991 20.06-20.049 20.06z" fill="#78a3ad"/></g><g><defs><path id="SVGID_1_" d="M25.439 67.472c8.316 0 15.546 4.62 19.28 11.431 3.732-6.811 10.967-11.431 19.279-11.431 8.316 0 15.551 4.62 19.284 11.431 3.728-6.811 10.963-11.431 19.279-11.431 6.708 0 12.71 3.021 16.738 7.762.125-1.127.203-2.264.203-3.409 0-22.984-24.851-41.617-55.504-41.617-30.649 0-55.5 18.633-55.5 41.617 0 1.146.078 2.282.204 3.409 4.028-4.741 10.024-7.762 16.737-7.762z"/></defs><use xlink:href="#SVGID_1_" overflow="visible" fill="#006ca2"/><clipPath id="SVGID_2_"><use xlink:href="#SVGID_1_" overflow="visible"/></clipPath></g></g><path d="M87.976 39.733c-.261 0-.52.06-.753.176-1.354.665-6.01 10.136-6.01 15.611 0 3.728 3.036 6.764 6.764 6.764 3.733 0 6.769-3.036 6.769-6.764-.002-4.144-4.278-15.787-6.77-15.787z" fill="#40c0e7"/><path d="M98.13.352c-.268 0-.536.065-.781.185-1.4.684-6.232 10.506-6.232 16.18a7.018 7.018 0 0 0 7.013 7.013 7.018 7.018 0 0 0 7.013-7.013c0-4.288-4.425-16.365-7.013-16.365z" fill="#40c0e7"/><path d="M28.003.352c-.268 0-.536.065-.78.185-1.4.684-6.233 10.506-6.233 16.18a7.018 7.018 0 0 0 7.013 7.013 7.02 7.02 0 0 0 7.014-7.013c0-4.288-4.427-16.365-7.014-16.365z" fill="#40c0e7"/></g><g><path d="M83.282 81.267a2.367 2.367 0 0 1-2.075-1.229 19.625 19.625 0 0 0-17.209-10.201 19.624 19.624 0 0 0-17.206 10.201c-.832 1.516-3.316 1.516-4.148 0a19.622 19.622 0 0 0-17.205-10.201c-5.749 0-11.194 2.527-14.937 6.93a2.368 2.368 0 0 1-2.495.731 2.37 2.37 0 0 1-1.658-2.006 33.33 33.33 0 0 1-.217-3.668c0-24.25 25.957-43.982 57.866-43.982 31.91 0 57.87 19.732 57.87 43.982 0 1.233-.082 2.458-.217 3.668a2.371 2.371 0 0 1-1.659 2.006 2.395 2.395 0 0 1-2.495-.731c-3.742-4.402-9.187-6.93-14.937-6.93a19.61 19.61 0 0 0-17.205 10.201 2.36 2.36 0 0 1-2.073 1.229zM25.439 65.106c7.616 0 14.71 3.558 19.28 9.485a24.34 24.34 0 0 1 38.563 0 24.33 24.33 0 0 1 19.279-9.485c5.28 0 10.353 1.715 14.514 4.814-1.344-20.763-24.639-37.349-53.077-37.349-28.437 0-51.729 16.586-53.073 37.349a24.282 24.282 0 0 1 14.514-4.814z" fill="#006ca2"/></g></g></svg>