<svg xmlns="http://www.w3.org/2000/svg" xmlns:xlink="http://www.w3.org/1999/xlink" viewBox="0 0 128 128"><g id="图层_1"><g><g/><g fill="#2f2f2f"/></g><g><g><defs/><use xlink:href="#SVGID_1_" overflow="visible" fill="#8ab5bc"/><clipPath id="SVGID_2_"><use xlink:href="#SVGID_1_" overflow="visible"/></clipPath></g></g><g><g><defs/><use xlink:href="#SVGID_3_" overflow="visible" fill="#cfd8dc"/><clipPath id="SVGID_4_"><use xlink:href="#SVGID_3_" overflow="visible"/></clipPath></g></g><g/><g/><g><defs/><use xlink:href="#SVGID_5_" overflow="visible" fill="#90a4ae"/><clipPath id="SVGID_6_"><use xlink:href="#SVGID_5_" overflow="visible"/></clipPath></g><g><g><path d="M52.54 42.532c-23.818 0-47.635 9.015-47.635 27.045 0 20.08 9.42 55.635 47.635 55.635s47.635-35.555 47.635-55.635c.001-18.03-23.817-27.045-47.635-27.045z" fill="#e0e0e0"/><g fill="#e0e0e0"><path id="XMLID_16_" d="M33.874 49.525c-4.375-1.819-8.087-6.626-8.401-10.717-.677-8.807 4.28-11.955 4.28-19.636 0-6.444-1.091-9.818-3.233-11.581-.618-.508-.724-.679-.658-.817.086-.179.087-.291 1.044-.056 3.892.955 10.209 4.586 10.398 12.265.201 8.157-4.265 10.053-4.94 18.912-.252 3.304-.258 7.953 1.908 10.969.265.369.314.519.297.617-.021.129-.262.213-.695.044z"/><path id="XMLID_15_" d="M55.824 45.439c-4.375-1.819-8.087-6.626-8.401-10.717-.677-8.807 4.28-11.955 4.28-19.636 0-6.444-1.091-9.818-3.233-11.581-.618-.508-.724-.679-.658-.817.086-.179.087-.291 1.044-.056 3.892.955 10.209 4.586 10.398 12.265.201 8.157-4.265 10.053-4.94 18.912-.252 3.304-.258 7.953 1.908 10.969.265.369.314.519.297.617-.021.129-.262.214-.695.044z"/><path id="XMLID_14_" d="M76.235 50.358c-4.375-1.819-8.087-6.626-8.401-10.717-.677-8.807 4.28-11.955 4.28-19.636 0-6.444-1.091-9.818-3.233-11.581-.618-.508-.724-.679-.658-.817.086-.179.087-.291 1.044-.056 3.892.955 10.209 4.586 10.398 12.265.201 8.157-4.265 10.053-4.94 18.912-.252 3.304-.258 7.953 1.908 10.969.265.369.314.519.297.617-.021.129-.262.214-.695.044z"/></g><g><defs><ellipse id="SVGID_7_" cx="52.54" cy="69.809" rx="40.172" ry="21.097"/></defs><use xlink:href="#SVGID_7_" overflow="visible" fill="#90a4ae"/><clipPath id="SVGID_8_"><use xlink:href="#SVGID_7_" overflow="visible"/></clipPath><ellipse cx="52.54" cy="80.226" rx="40.172" ry="21.097" clip-path="url(#SVGID_8_)" fill="#855c52"/></g><g><path d="M81.358 109.697c-.661 0-1.04-.014-1.074-.017a5.498 5.498 0 0 1-5.135-5.84c.194-3.03 2.792-5.341 5.84-5.137.265.003 26.306.252 30.428-13.856.979-3.353.884-5.86-.285-7.455-1.031-1.406-4.097-3.795-13.05-3.986a5.5 5.5 0 0 1-5.381-5.617c.065-3.036 2.611-5.432 5.617-5.381 10.428.224 17.725 3.077 21.686 8.481 3.298 4.499 3.961 10.233 1.972 17.044-6.035 20.648-34.684 21.764-40.618 21.764z" fill="#e0e0e0"/></g></g><path d="M45.309 70.466c1.237-.152 2.455-1.329 2.027-2.344-.353-.837-1.573-1.045-2.595-1.078-4.103-.167-11.097 1.899-17.018 4.729-.806.376-2.223 1.401-2.434 2.213-.226.867.553 1.572 1.434 1.649.881.077 1.813-.275 2.689-.637 7.328-2.934 9.683-3.703 15.897-4.532z" fill="#bcaaa4"/></g><g><g/></g></g></svg>