<svg id="レイヤー_1" xmlns="http://www.w3.org/2000/svg" viewBox="0 0 128 128"><g fill="#757f3f"><path d="M76.747 114.049c2.955-10.804 1.685-21.986-2.822-32.159-1.237-2.798-4.828-8.751-1.059-10.968 4.786-2.804 9.937 3.527 12.254 6.862 3.833 5.49 6.493 12.377 7.457 19.431 1.099 8.012.001 16.267-4.056 23.017-2.075 3.461-6.511 4.314-9.837 2.23-3.231-2.011-2.81-5.211-1.937-8.413z"/><path d="M65.306 79.67c.52-3.292 1.807-7.068 1.074-10.407-.608-2.722-10.447-5.98-12.852-7.019-10.41-4.517-22.433-6.6-33.62-3.867C10.734 60.61 1.366 68.431.368 78.288c-.319 3.119.3 6.247 1.622 9.07 2.137 4.572 7.34 5.771 10.017 9.694 1.745 2.541.949 5.866 2.204 8.588 1.844 4.009 5.008 7.28 8.848 9.432.44.257.892.493 1.346.703 6.885 3.328 17.747 2.188 24.023-1.785 7.17-4.549 11.52-12.516 13.934-20.447 1.389-4.554 2.213-9.171 2.944-13.873z"/><path d="M58.866 58.911c2.372.679 4.645 1.607 6.854 2.584 2.564 1.123 4.245-6.422 4.595-7.729C74.12 39.59 78.702 21.52 66.466 9.988 61.233 5.06 50.421 2.13 44.21 6.672c-2.291 1.676-3.382 4.12-5.163 6.226-9.765-1.845-21.996 3.091-24.651 13.18-2.021 7.721 2.258 14.982 8.686 19.309 11.11 7.493 23.18 9.933 35.784 13.524z"/><path d="M74.316 64.084c3.672 1.943 8.31 2.232 12.269 3.346 8.808 2.459 17.036 7.791 26.417 7.772 2.397-.006 4.613-1.433 6.493-2.831 4.623-3.425 8.623-8.953 8.188-14.951-.495-6.827-7.652-13.099-13.871-15.144-1.185-.384-1.884-.935-1.659-2.225a16.693 16.693 0 0 0-.453-7.559c-1.478-4.865-5.201-8.853-10.447-10.348-4.174-1.194-8.579-.281-12.172 2.071-10.8 7.086-14.429 24.498-15.612 36.527-.109 1.153-.257 2.768.847 3.342z"/></g></svg>