<svg id="Layer_1" xmlns="http://www.w3.org/2000/svg" xmlns:xlink="http://www.w3.org/1999/xlink" viewBox="0 0 128 128"><g><path d="M93.244 59.233c-.757-21.866-1.553-39.514-1.815-43.436S89.076 9 84.109 9c-4.967 0-6.536 3.66-6.536 7.843v29.541s-.834 2.003-2.323-.839c-.974-1.859-3.755-3.143-6.576-2.518-2.463.545-5.167 1.892-5.736 5.736-.499 3.37-2.192.249-3.778-1.259-.99-.942-3.653-2.361-6.156-1.959-3.225.518-6.156 2.239-6.716 5.597s-2.379.56-3.358-.839c-.979-1.399-3.918-2.518-6.716-1.539-2.798.979-5.876 2.938-6.016 7.555-.14 4.617-2.379 26.164 1.679 37.917S44.609 119 65.736 119s33.859-20.847 32.74-34.139-4.772-12.316-5.232-25.628z" fill="#fac036"/><g><defs><path id="SVGID_1_" d="M93.244 59.233c-2.059-21.99-1.553-39.514-1.815-43.436C91.168 11.876 89.076 9 84.109 9c-4.967 0-6.536 3.66-6.536 7.843v29.541s-.834 2.003-2.323-.839c-.974-1.859-3.755-3.143-6.576-2.518-2.463.545-5.167 1.892-5.736 5.736-.499 3.37-2.192.249-3.778-1.259-.99-.942-3.653-2.361-6.156-1.959-3.225.518-6.156 2.239-6.716 5.597s-2.379.56-3.358-.839c-.979-1.399-3.918-2.518-6.716-1.539-2.798.979-5.876 2.938-6.016 7.555-.14 4.617-2.379 26.164 1.679 37.917S44.609 119 65.736 119s33.859-20.847 32.74-34.139-4.611-18.995-5.232-25.628z"/></defs><clipPath id="SVGID_2_"><use xlink:href="#SVGID_1_" overflow="visible"/></clipPath><g clip-path="url(#SVGID_2_)"><g><path d="M87.491 72.237s-.331-.127-.916-.411l-2.38-1.141c-1.009-.49-2.213-1.068-3.64-1.612-1.434-.531-3.115-.963-5.039-1.24-1.893-.296-4.037-.402-6.321-.433-2.287-.03-4.72.017-7.212.133-1.242.063-2.515.144-3.732.29-.297.04-.608.075-.872.127l-.207.035-.026.004c.029-.007-.102.022.059-.015l-.06.015-.12.03c-.135.038-.376.084-.426.117a5.21 5.21 0 0 0-.531.23 3.747 3.747 0 0 0-.501.343c-.6.506-.941 1.257-1.013 2.22-.067.951.147 2.114.559 3.078a6.757 6.757 0 0 0 1.892 2.488 8.35 8.35 0 0 0 2.891 1.506c.537.148 1.085.273 1.647.332.28.034.56.066.845.067.274.014.565.023.909.019l3.878.008c1.281.024 2.689.006 4.202.43 1.622.482 2.658 1.252 3.713 2 1.029.773 1.96 1.619 2.774 2.586.803.969 1.525 2.056 1.892 3.401.089.334.158.681.185 1.039l.012.133.007.185.001.185-.001.368c-.016.296-.048.638-.081.944l-.154.832a9.815 9.815 0 0 1-1.14 2.854c-.952 1.656-2.169 2.786-3.227 3.558-1.069.775-2.017 1.17-2.649 1.433l-.999.324a.816.816 0 0 1-.724-1.443l.063-.044.755-.534c.47-.369 1.163-.892 1.904-1.666.731-.777 1.525-1.798 2.12-3.078a8.985 8.985 0 0 0 .674-2.08l.078-.559.025-.497-.01-.368-.004-.185-.001-.047.002.059-.002-.013-.007-.053a2.296 2.296 0 0 0-.09-.445c-.368-1.29-1.794-2.862-3.479-4.066-.837-.594-1.828-1.208-2.582-1.38-.862-.233-1.992-.234-3.249-.219l-3.879.063c-1.366.024-2.983-.106-4.459-.539a12.1 12.1 0 0 1-4.233-2.18 10.54 10.54 0 0 1-3.003-3.917c-.641-1.533-.986-3.104-.878-4.857.104-1.725.9-3.65 2.387-4.858a7.53 7.53 0 0 1 1.154-.778 7.882 7.882 0 0 1 1.306-.535c.26-.087.349-.092.532-.142l.12-.029.216-.046.281-.047c.384-.07.727-.106 1.079-.15 1.387-.156 2.701-.228 4.002-.286a98.482 98.482 0 0 1 7.471-.038c2.382.077 4.656.227 6.787.593 2.105.338 4.054.866 5.715 1.514a17.095 17.095 0 0 1 4.038 2.176 15.079 15.079 0 0 1 2.179 1.964c.422.495.627.784.627.784a.969.969 0 0 1-.227 1.351.981.981 0 0 1-.907.113z" fill="#e48c15"/></g><g><path d="M77.876 46.547l2.932 18.912a2.147 2.147 0 1 1-4.266.439l-.939-19.118a1.144 1.144 0 0 1 1.084-1.201 1.153 1.153 0 0 1 1.189.968z" fill="#e48c15"/></g><g><path d="M63.263 49.785l2.29 14.007a2.15 2.15 0 0 1-4.242.694 2.197 2.197 0 0 1-.027-.278l-.457-14.185a1.226 1.226 0 0 1 2.436-.238z" fill="#e48c15"/></g><g><path d="M46.357 52.675l.282 3.906.298 3.992c.122 1.451.251 2.999.45 4.506.086.761.213 1.496.337 2.217.055.366.152.696.223 1.039.069.346.155.671.26.968.175.63.413 1.155.645 1.594.135.183.237.41.367.547.138.115.241.268.362.358.132.063.237.141.341.215.134.029.251.066.357.111.246.055.505.065.71.09.487-.041.759-.043.759-.043l.37-.002a2.14 2.14 0 0 1 .027 4.281l-.081-.001-1.393-.044c-.464-.075-1.048-.16-1.703-.393a17.655 17.655 0 0 1-1.041-.483c-.335-.229-.673-.5-1.013-.784-.314-.299-.566-.655-.849-1.011-.258-.36-.42-.743-.632-1.134a11.691 11.691 0 0 1-.759-2.385 9.735 9.735 0 0 1-.222-1.212c-.052-.402-.131-.817-.159-1.218a41.55 41.55 0 0 1-.171-2.426c-.081-1.612-.084-3.192-.089-4.673l.025-4.025.034-3.916a1.135 1.135 0 0 1 1.143-1.127c.593.004 1.078.47 1.122 1.053z" fill="#e48c15"/></g></g><g clip-path="url(#SVGID_2_)"><path d="M47.059 61.86l.021.472c.017.303.035.758.029 1.373-.007 1.204-.022 2.914-.421 5.024-.208 1.053-.485 2.214-1.044 3.437-.558 1.197-1.46 2.527-2.889 3.439-1.435.925-3.139 1.187-4.605 1.166-1.753-.056-3.324-.696-4.634-1.656-1.296-.969-2.275-2.216-2.981-3.493a16.27 16.27 0 0 1-1.541-3.879c-.661-2.566-.846-4.96-.919-6.99-.042-2.033.067-3.707.138-4.876l.173-1.83a1.073 1.073 0 0 1 2.142.086v.036l.017 1.778c.025 1.127.062 2.74.256 4.64.18 1.895.496 4.101 1.2 6.273.361 1.079.792 2.154 1.378 3.109.573.963 1.303 1.788 2.134 2.366.817.57 1.818.888 2.657.88 1.103-.003 2.014-.193 2.662-.622.661-.422 1.187-1.121 1.572-1.959.407-.82.68-1.739.88-2.609.377-1.755.526-3.34.612-4.428l.114-1.765a1.526 1.526 0 0 1 1.617-1.431c.784.05 1.394.693 1.432 1.459z" fill="#e48c15"/></g></g></g></svg>