<svg id="レイヤー_1" xmlns="http://www.w3.org/2000/svg" viewBox="0 0 128 128"><g><g><g><g><g fill="#769da7"><path d="M13.62 119.864a9.956 9.956 0 0 1-5.269 2.761 8.383 8.383 0 0 0 1.94 3.045c3.487 3.487 9.345 3.281 13.085-.459s3.945-9.598.459-13.085c-2.08-2.08-5.002-2.816-7.816-2.302 1.209 3.283.391 7.25-2.399 10.04z"/><ellipse transform="rotate(-134.999 9.102 110.937)" cx="9.102" cy="110.937" rx="8.928" ry="9.577"/><path d="M104.165 15.874c2.08 2.08 5.002 2.816 7.816 2.302-1.209-3.283-.391-7.25 2.399-10.04a9.956 9.956 0 0 1 5.269-2.761 8.375 8.375 0 0 0-1.94-3.045c-3.487-3.487-9.345-3.281-13.085.459s-3.946 9.599-.459 13.085z"/><path d="M110.152 8.386l9.461 9.461A2272.327 2272.327 0 0 0 18.68 118.782l-9.461-9.461A2272.327 2272.327 0 0 0 110.152 8.386z"/></g></g><g fill="#769da7"><path d="M26.308 117.782c.032-3.949 1.367-8.749 5.908-13.291l-8.492 5.828-1.394 2.381 3.978 5.082z"/><path d="M10.228 101.701c3.949-.032 8.749-1.367 13.291-5.908l-5.828 8.492-2.381 1.395-5.082-3.979z"/></g><g fill="#769da7"><path d="M101.704 10.225c-.032 3.949-1.367 8.749-5.908 13.291l8.492-5.828 1.395-2.381-3.979-5.082z"/><path d="M117.785 26.305c-3.949.032-8.749 1.367-13.291 5.908l5.828-8.492 2.381-1.395 5.082 3.979z"/></g></g><g><g><g fill="#769da7"><path d="M8.136 13.62a9.956 9.956 0 0 1-2.761-5.269 8.383 8.383 0 0 0-3.045 1.94c-3.487 3.487-3.281 9.345.459 13.085s9.598 3.945 13.085.459c2.08-2.08 2.816-5.002 2.302-7.816-3.283 1.209-7.25.391-10.04-2.399z"/><ellipse transform="rotate(-45.001 17.063 9.103)" cx="17.063" cy="9.102" rx="8.928" ry="9.577"/><path d="M112.126 104.165c-2.08 2.08-2.816 5.002-2.302 7.816 3.283-1.209 7.25-.391 10.04 2.399a9.956 9.956 0 0 1 2.761 5.269 8.375 8.375 0 0 0 3.045-1.94c3.487-3.487 3.281-9.345-.459-13.085s-9.599-3.946-13.085-.459z"/><ellipse transform="rotate(134.999 110.937 118.898)" cx="110.937" cy="118.898" rx="8.928" ry="9.577"/><path d="M119.614 110.152l-9.461 9.461A2272.327 2272.327 0 0 0 9.218 18.68l9.461-9.461a2272.327 2272.327 0 0 0 100.935 100.933z"/></g></g><g fill="#769da7"><path d="M10.218 26.308c3.949.032 8.749 1.367 13.291 5.908l-5.828-8.492L15.3 22.33l-5.082 3.978z"/><path d="M26.299 10.228c.032 3.949 1.367 8.749 5.908 13.291l-8.492-5.828-1.395-2.381 3.979-5.082z"/></g><g fill="#769da7"><path d="M117.775 101.704c-3.949-.032-8.749-1.367-13.291-5.908l5.828 8.492 2.381 1.395 5.082-3.979z"/><path d="M101.695 117.785c-.032-3.949-1.367-8.749-5.908-13.291l8.492 5.828 1.395 2.381-3.979 5.082z"/></g></g></g><path d="M105.996 58.623c0-24.644-13.671-40.246-42.259-40.246-28.063 0-41.734 15.603-41.734 40.246 0 18.646 7.336 28.671 18.496 33.571.568 17.375 10.855 17.428 23.5 17.428s22.933-.053 23.5-17.428c11.161-4.9 18.497-14.925 18.497-33.571z" fill="none" stroke="#fff" stroke-width="5.25" stroke-miterlimit="10"/><g><path d="M105.996 58.623c0 29.851-18.802 37.611-41.996 37.611s-41.996-7.759-41.996-37.611c0-24.643 13.671-40.246 41.734-40.246 28.588 0 42.258 15.603 42.258 40.246z" fill="#769da7"/><g fill="#fff"><path d="M58.315 60.747c-1.104 7.215-8.311 11.036-15.612 11.036s-11.426-4.71-11.426-9.541c0-6.425 8.909-13.727 16.21-13.727s11.8 5.881 10.828 12.232z"/><path d="M69.685 60.747c1.104 7.215 8.311 11.036 15.612 11.036s11.426-4.71 11.426-9.541c0-6.425-8.909-13.727-16.21-13.727s-11.8 5.881-10.828 12.232z"/></g><path d="M87.555 90.703c0 18.92-10.546 18.92-23.555 18.92s-23.555 0-23.555-18.92S50.991 71.783 64 71.783s23.555 0 23.555 18.92z" fill="#769da7"/><ellipse cx="64" cy="82.655" rx="5.964" ry="8.835" fill="#fff"/></g></g></svg>