<svg id="レイヤー_1" xmlns="http://www.w3.org/2000/svg" viewBox="0 0 128 128"><circle cx="64" cy="64" r="64" fill="#fbc21a"/><path d="M35.698 18.563c-15.501 9.725-24.375 26.224-25.013 43.396-.039 1.063.837 1.938 1.901 1.938h48.3c1.463 0 2.378-1.584 1.646-2.851L38.379 19.21c-.544-.942-1.759-1.225-2.681-.647z"/><path d="M39.161 111.219c15.181 8.008 33.883 8.562 50.038.009.961-.509 1.324-1.703.78-2.645L65.825 66.748c-.732-1.267-2.561-1.267-3.292 0l-24.149 41.827a1.91 1.91 0 0 0 .777 2.644z"/><path d="M89.975 19.216l-24.15 41.83c-.732 1.267.183 2.851 1.646 2.851h48.305c1.063 0 1.938-.872 1.901-1.933a53.269 53.269 0 0 0-7.133-24.835A53.249 53.249 0 0 0 92.65 18.564a1.91 1.91 0 0 0-2.675.652z"/><circle cx="64" cy="64" r="15.104" stroke="#fbc21a" stroke-width="8" stroke-miterlimit="10"/></svg>