<svg id="レイヤー_1" xmlns="http://www.w3.org/2000/svg" viewBox="0 0 128 128"><circle cx="64" cy="64" r="64" fill="#fbc21a"/><circle cx="64" cy="63.853" r="25.329" fill="none" stroke="#2f2f2f" stroke-width="6" stroke-miterlimit="10"/><g><path d="M39.785 110.686a31.456 31.456 0 0 1-16.585-4.733 3.475 3.475 0 0 1-1.241-4.556 3.456 3.456 0 0 1 4.457-1.56 18.78 18.78 0 0 0 7.592 1.587c3.321 0 6.582-.869 9.429-2.513 6.253-3.61 9.852-10.332 9.392-17.543-.49-7.691-5.492-14.138-13.741-17.735a29.668 29.668 0 0 0-3.33-.192c-5.251 0-9.77 1.461-13.431 4.344-3.931 3.095-6.502 7.742-7.055 12.75-.195 1.76-1.657 3.086-3.4 3.086h-.111l-.096-.006a3.476 3.476 0 0 1-3.297-3.351 31.406 31.406 0 0 1 15.7-28.229 31.575 31.575 0 0 1 10.481-3.769 31.551 31.551 0 0 1-1.977-10.96A31.401 31.401 0 0 1 49.168 9.595a3.461 3.461 0 0 1 4.565 1.201 3.475 3.475 0 0 1-.879 4.644c-4.825 3.544-7.706 9.227-7.706 15.202 0 7.22 4.022 13.698 10.497 16.905a18.635 18.635 0 0 0 8.341 1.966c4.664 0 9.459-1.727 13.888-4.998 3.93-5.323 5.584-11.053 4.785-16.591-.714-4.952-3.452-9.502-7.513-12.485a3.473 3.473 0 0 1-.879-4.64 3.443 3.443 0 0 1 2.93-1.616c.57 0 1.138.144 1.641.415a31.4 31.4 0 0 1 16.591 27.708c0 3.732-.677 7.463-1.977 10.96a31.575 31.575 0 0 1 10.481 3.769 31.403 31.403 0 0 1 15.7 28.228 3.477 3.477 0 0 1-3.326 3.353l-.153.003a3.451 3.451 0 0 1-3.426-3.083c-.657-5.954-4.138-11.291-9.312-14.277a18.914 18.914 0 0 0-9.438-2.548c-3.706 0-7.32 1.102-10.451 3.186-6.415 4.27-9.498 11.824-8.489 20.766 2.645 6.065 6.779 10.363 11.976 12.44a18.637 18.637 0 0 0 6.951 1.325c2.615 0 5.25-.549 7.618-1.589a3.438 3.438 0 0 1 1.392-.293c1.292 0 2.467.71 3.067 1.854a3.475 3.475 0 0 1-1.242 4.554 31.446 31.446 0 0 1-16.583 4.732 31.482 31.482 0 0 1-15.713-4.215A31.56 31.56 0 0 1 64 99.279a31.56 31.56 0 0 1-8.504 7.192 31.466 31.466 0 0 1-15.711 4.215z" fill="#2f2f2f"/><path d="M50.803 11.683a.963.963 0 0 1 .572 1.741c-5.465 4.014-8.728 10.451-8.728 17.217 0 8.177 4.555 15.513 11.887 19.146a21.15 21.15 0 0 0 9.451 2.226c5.261 0 10.67-1.93 15.674-5.712 4.492-5.946 6.384-12.421 5.474-18.734-.809-5.611-3.91-10.765-8.507-14.142a.964.964 0 0 1 1.025-1.626 28.908 28.908 0 0 1 15.277 25.507 28.93 28.93 0 0 1-3.121 13.065 28.934 28.934 0 0 1 12.875 3.83 28.904 28.904 0 0 1 14.451 25.985.964.964 0 0 1-.981.935.958.958 0 0 1-.941-.859c-.744-6.74-4.687-12.784-10.547-16.167a21.338 21.338 0 0 0-10.687-2.883c-4.122 0-8.234 1.207-11.837 3.605-7.319 4.871-10.794 13.432-9.544 23.501 2.903 6.863 7.564 11.74 13.487 14.108a21.242 21.242 0 0 0 7.879 1.504c2.944 0 5.891-.601 8.623-1.8a.964.964 0 0 1 .895 1.701 28.91 28.91 0 0 1-29.729.477 28.933 28.933 0 0 1-9.754-9.235 28.933 28.933 0 0 1-24.215 13.116 28.949 28.949 0 0 1-15.268-4.358.963.963 0 0 1 .895-1.701 21.392 21.392 0 0 0 8.596 1.797c3.707 0 7.404-.957 10.679-2.847 7.082-4.088 11.157-11.701 10.637-19.867-.559-8.775-6.236-16.064-15.582-20.016a32.255 32.255 0 0 0-3.984-.252c-5.768 0-10.886 1.658-14.977 4.88-4.454 3.507-7.368 8.769-7.994 14.439-.053.476-.436.861-.915.861a.732.732 0 0 1-.081-.004.964.964 0 0 1-.925-.933A28.93 28.93 0 0 1 38.192 50.37a28.923 28.923 0 0 1-3.121-13.065 28.908 28.908 0 0 1 15.278-25.508.961.961 0 0 1 .454-.114m0-5a5.97 5.97 0 0 0-2.829.715 33.894 33.894 0 0 0-17.902 29.908c0 3.07.425 6.139 1.247 9.096A33.896 33.896 0 0 0 5.869 80.34c.097 3.074 2.548 5.583 5.604 5.766.134.009.268.014.4.014 3.021 0 5.551-2.283 5.885-5.311.48-4.346 2.709-8.377 6.117-11.06 3.209-2.527 7.208-3.808 11.884-3.808.87 0 1.767.046 2.676.137 7.254 3.27 11.472 8.735 11.9 15.45.399 6.256-2.723 12.087-8.147 15.219a16.375 16.375 0 0 1-8.18 2.178c-2.29 0-4.506-.463-6.587-1.376a5.923 5.923 0 0 0-2.395-.502 5.95 5.95 0 0 0-5.279 3.186c-1.451 2.757-.514 6.204 2.134 7.846a33.952 33.952 0 0 0 17.904 5.109 33.974 33.974 0 0 0 16.961-4.551A33.99 33.99 0 0 0 64 103.009a33.99 33.99 0 0 0 7.254 5.628 33.974 33.974 0 0 0 16.962 4.55 33.947 33.947 0 0 0 17.901-5.108c2.648-1.643 3.586-5.089 2.135-7.846a5.942 5.942 0 0 0-5.277-3.187h-.001c-.834 0-1.645.171-2.41.51a16.563 16.563 0 0 1-6.6 1.373c-2.092 0-4.119-.386-6.024-1.147-4.475-1.789-8.08-5.507-10.459-10.774-.795-7.917 1.829-14.301 7.43-18.029 2.72-1.81 5.855-2.767 9.067-2.767 2.848 0 5.679.765 8.187 2.214a16.429 16.429 0 0 1 8.077 12.385 5.948 5.948 0 0 0 6.208 5.303c3.092-.145 5.583-2.67 5.681-5.769a33.898 33.898 0 0 0-25.45-33.941 33.901 33.901 0 0 0-16.667-39.01 5.977 5.977 0 0 0-2.818-.709 5.934 5.934 0 0 0-5.047 2.786c-1.66 2.63-.996 6.139 1.515 7.985 3.524 2.589 5.9 6.535 6.519 10.827.688 4.77-.729 9.751-4.101 14.445-3.908 2.807-8.078 4.287-12.098 4.287-2.513 0-4.946-.574-7.232-1.706-5.617-2.783-9.106-8.402-9.106-14.665 0-5.182 2.5-10.112 6.688-13.188 2.512-1.846 3.176-5.355 1.512-7.991a5.933 5.933 0 0 0-5.043-2.782z" fill="#fbc21a"/></g><path d="M78.735 70.134l-7.851-4.533c.142-.56.226-1.144.226-1.749a7.107 7.107 0 0 0-5.182-6.838V47.95h-3.855v9.064c-2.988.841-5.182 3.58-5.182 6.838 0 .605.084 1.188.226 1.749l-7.851 4.533 1.927 3.338 7.848-4.531A7.08 7.08 0 0 0 64 70.962a7.08 7.08 0 0 0 4.959-2.021l7.849 4.531 1.927-3.338z" fill="#fbc21a"/><path fill="#da433d" stroke="#fc3" stroke-width="4" stroke-miterlimit="10" d="M-87 64.144V47.5"/><path fill="#da433d" stroke="#fc3" stroke-width="4" stroke-miterlimit="10" d="M-87.249 64.144l-14.04 8.106"/><path fill="#da433d" stroke="#fc3" stroke-width="4" stroke-miterlimit="10" d="M-87.249 63.856l14.538 8.394"/></svg>