<svg id="レイヤー_1" xmlns="http://www.w3.org/2000/svg" viewBox="0 0 128 128"><g><path d="M99 51.281V40.375a1 1 0 0 0-1-1H71.453a1 1 0 0 1-1-1v-9.594a1 1 0 0 1 1-1h13.158a1 1 0 0 0 1-1V15.875a1 1 0 0 0-1-1H71.453a1 1 0 0 1-1-1V2.531a1 1 0 0 0-1-1H58.547a1 1 0 0 0-1 1v11.344a1 1 0 0 1-1 1H43.389a1 1 0 0 0-1 1v10.906a1 1 0 0 0 1 1h13.158a1 1 0 0 1 1 1v9.594a1 1 0 0 1-1 1H30a1 1 0 0 0-1 1v10.906a1 1 0 0 0 1 1h26.547a1 1 0 0 1 1 1v33.305a1 1 0 0 1-1.407.913l-12.344-5.498a1 1 0 0 0-1.407.913v10.717c0 .395.232.753.593.913l13.972 6.223a1 1 0 0 1 .593.913V125a1 1 0 0 0 1 1h10.906a1 1 0 0 0 1-1v-16.68a1 1 0 0 1 1.407-.913l12.344 5.498a1 1 0 0 0 1.407-.913v-10.717a.998.998 0 0 0-.593-.913l-13.971-6.223a1 1 0 0 1-.593-.913V53.281a1 1 0 0 1 1-1H98a1 1 0 0 0 1-1z" fill="#f79229" stroke="#f79229" stroke-miterlimit="10"/></g></svg>