<svg id="レイヤー_1" xmlns="http://www.w3.org/2000/svg" viewBox="0 0 128 128"><path d="M77.019 117.019c-29.34 0-53.114-23.833-53.019-53.196.093-28.412 23.05-51.999 51.45-52.819 13.172-.38 25.296 4.049 34.756 11.658.954.767 2.179-.553 1.36-1.463C99.205 7.463 80.985-.895 60.835.076 28.108 1.653 1.581 28.236.07 60.967-1.625 97.692 27.648 128 64 128c18.894 0 35.867-8.192 47.579-21.214.812-.903-.422-2.213-1.368-1.452a52.761 52.761 0 0 1-33.192 11.685z" fill="#f79229"/><path d="M80.256 39.521l4.736 14.577a2 2 0 0 0 1.902 1.382h15.327c1.937 0 2.743 2.479 1.176 3.618l-12.4 9.009a2.001 2.001 0 0 0-.727 2.236l4.736 14.577c.599 1.843-1.51 3.375-3.078 2.236l-12.4-9.009a2 2 0 0 0-2.351 0l-12.4 9.009c-1.567 1.139-3.676-.393-3.078-2.236l4.736-14.577a2 2 0 0 0-.727-2.236l-12.4-9.009c-1.567-1.139-.762-3.618 1.176-3.618h15.327a2 2 0 0 0 1.902-1.382l4.736-14.577c.601-1.843 3.208-1.843 3.807 0z" fill="#f79229"/></svg>