<svg id="レイヤー_1" xmlns="http://www.w3.org/2000/svg" viewBox="0 0 128 128"><circle cx="64" cy="64" r="61.5" fill="#2f2f2f" stroke="#464747" stroke-width="4" stroke-miterlimit="10"/><g stroke="#4589f1" stroke-width="8" stroke-miterlimit="10"><circle cx="64" cy="64" r="48.466" fill="none"/><path fill="none" stroke-linecap="round" stroke-linejoin="round" d="M64 7.433v113.134"/><path fill="none" stroke-linecap="round" stroke-linejoin="round" d="M24.001 24.001l79.998 79.998"/><path fill="none" stroke-linecap="round" stroke-linejoin="round" d="M7.433 64h113.134"/><path fill="none" stroke-linecap="round" stroke-linejoin="round" d="M24.001 103.999l79.998-79.998"/><circle cx="64" cy="64" r="10.09" fill="#fff"/></g><g><circle cx="64" cy="64" r="61.5" fill="#2f2f2f"/><circle cx="34.475" cy="64.02" r="7.152" fill="#fff"/><path d="M10.081 63.998c-.02-29.776 24.107-53.931 53.883-53.95 29.776-.02 53.935 24.103 53.954 53.879.01 14.89-12.049 26.969-26.939 26.979-14.89.01-26.315-11.964-26.979-26.943-.653-14.729-12.089-26.953-26.979-26.944-14.891.01-26.95 12.089-26.94 26.979z" fill="#fff"/><circle cx="93.525" cy="63.98" r="7.152" fill="#2f2f2f"/></g></svg>