<svg id="レイヤー_1" xmlns="http://www.w3.org/2000/svg" viewBox="0 0 128 128"><g><path d="M71.451 48.138l18.931-18.931a43.853 43.853 0 0 0-21.516-8.931v26.781c.896.291 1.757.657 2.585 1.081z" fill="none"/><path d="M57.866 47.056v-26.78a43.85 43.85 0 0 0-21.515 8.931l18.931 18.931c.827-.424 1.688-.79 2.584-1.082z" fill="none"/><path d="M47.504 55.916L28.573 36.985A43.863 43.863 0 0 0 19.642 58.5h26.78c.292-.896.659-1.757 1.082-2.584z" fill="none"/><path d="M80.31 58.5h26.781a43.857 43.857 0 0 0-8.931-21.516L79.229 55.915c.423.828.79 1.689 1.081 2.585z" fill="none"/><path d="M55.282 79.862L36.351 98.793a43.853 43.853 0 0 0 21.515 8.931v-26.78a17.654 17.654 0 0 1-2.584-1.082z" fill="none"/><path d="M79.229 72.085L98.16 91.016a43.844 43.844 0 0 0 8.931-21.516H80.31a17.708 17.708 0 0 1-1.081 2.585z" fill="none"/><path d="M46.423 69.5h-26.78a43.844 43.844 0 0 0 8.931 21.515l18.931-18.931a17.546 17.546 0 0 1-1.082-2.584z" fill="none"/><path d="M68.866 80.944v26.781a43.857 43.857 0 0 0 21.516-8.931L71.451 79.862c-.828.424-1.689.79-2.585 1.082z" fill="none"/><path d="M121.233 58.5h-3.063c-1.102-11.068-5.495-21.179-12.183-29.344l2.185-2.185a5.5 5.5 0 0 0-7.777-7.778l-2.185 2.185c-8.165-6.687-18.276-11.08-29.344-12.182V6.133a5.5 5.5 0 0 0-11 0v3.063c-11.067 1.102-21.179 5.495-29.344 12.183l-2.186-2.186a5.5 5.5 0 0 0-7.777 7.778l2.185 2.185C14.058 37.321 9.665 47.433 8.563 58.5H5.5a5.5 5.5 0 0 0 0 11h3.063c1.102 11.067 5.495 21.179 12.182 29.344l-2.185 2.185a5.5 5.5 0 1 0 7.778 7.778l2.186-2.186c8.165 6.687 18.276 11.08 29.344 12.183v3.063a5.5 5.5 0 0 0 11 0v-3.063c11.067-1.102 21.179-5.495 29.344-12.182l2.185 2.185c1.073 1.074 2.481 1.611 3.889 1.611s2.815-.537 3.889-1.611a5.5 5.5 0 0 0 0-7.778l-2.185-2.185c6.687-8.165 11.08-18.276 12.183-29.344h3.063a5.5 5.5 0 1 0-.003-11zm-14.142 0H80.31a17.818 17.818 0 0 0-1.081-2.585L98.16 36.984a43.857 43.857 0 0 1 8.931 21.516zM70.188 64c0 3.762-3.061 6.822-6.822 6.822s-6.821-3.06-6.821-6.822 3.06-6.822 6.821-6.822 6.822 3.06 6.822 6.822zm20.194-34.793L71.451 48.138a17.598 17.598 0 0 0-2.585-1.081V20.276a43.847 43.847 0 0 1 21.516 8.931zm-32.516-8.931v26.781a17.76 17.76 0 0 0-2.584 1.081L36.351 29.207a43.844 43.844 0 0 1 21.515-8.931zM28.573 36.985l18.931 18.931c-.424.828-.79 1.688-1.081 2.584h-26.78a43.852 43.852 0 0 1 8.93-21.515zM19.643 69.5h26.78a17.76 17.76 0 0 0 1.081 2.584L28.573 91.015a43.852 43.852 0 0 1-8.93-21.515zm16.708 29.293l18.931-18.931c.828.424 1.689.79 2.584 1.081v26.781a43.844 43.844 0 0 1-21.515-8.931zm32.515 8.931v-26.78a17.818 17.818 0 0 0 2.585-1.081l18.931 18.931a43.855 43.855 0 0 1-21.516 8.93zM98.16 91.016L79.229 72.085c.424-.828.79-1.689 1.081-2.585h26.781a43.857 43.857 0 0 1-8.931 21.516z" fill="#f79229"/></g></svg>