<svg id="图层_1" xmlns="http://www.w3.org/2000/svg" viewBox="0 0 128 128"><g><path fill="none" d="M.152 0H128v128H.152z"/><g><path d="M63.929 9.644C1.619 9.644.139 79.497.139 93.326c0 13.826 28.564 25.031 63.79 25.031 35.235 0 63.79-11.205 63.79-25.031 0-13.83-1.47-83.682-63.79-83.682z" fill="#fcc21b"/></g><path d="M90.976 101.249a3.251 3.251 0 0 1-3.111-2.315c-2.851-9.486-12.898-16.371-23.89-16.371-10.961 0-20.986 6.885-23.838 16.371a3.25 3.25 0 0 1-6.225-1.871c3.658-12.168 16.301-21 30.062-21 13.793 0 26.458 8.832 30.115 21a3.25 3.25 0 0 1-3.113 4.186z" fill="#2f2f2f"/><g fill="#2f2f2f"><path d="M42.002 68c-4.486.043-8.168-4.265-8.217-9.619-.048-5.374 3.554-9.747 8.035-9.79 4.484-.039 8.17 4.267 8.22 9.641.048 5.355-3.553 9.727-8.038 9.768z"/><path d="M86.114 67.999c4.482-.007 8.115-4.361 8.101-9.713-.012-5.373-3.662-9.705-8.144-9.694-4.493.009-8.131 4.361-8.122 9.732.016 5.356 3.674 9.686 8.165 9.675z"/></g></g></svg>