<svg id="图层_1" xmlns="http://www.w3.org/2000/svg" xmlns:xlink="http://www.w3.org/1999/xlink" viewBox="0 0 128 128"><g id="_x39_r2HkP.tif"/><g fill="none" stroke="#0d47a1" stroke-width="17" stroke-linejoin="round" stroke-miterlimit="10"/><g><g><path d="M72.466 122.436l-16.996-.369c.005-.223.445-22.529-2.346-46.037C48.276 35.2 38.17 27.194 35.188 25.712a9.63 9.63 0 0 0-4.387-1.046c-5.342 0-9.688 4.346-9.688 9.688 0 5.341 4.346 9.687 9.688 9.687.874 0 1.737-.115 2.565-.341l4.479 16.399a26.724 26.724 0 0 1-7.044.941c-14.716 0-26.688-11.972-26.688-26.687S16.086 7.665 30.802 7.665c4.152 0 8.299.983 11.991 2.842C56.869 17.5 65.791 38.341 70.026 74.203c2.914 24.668 2.46 47.281 2.44 48.233z" fill="#fcc21b"/></g><g><path d="M55.535 122.436c-.021-.951-.475-23.564 2.439-48.232C62.21 38.341 71.132 17.5 85.25 10.487c3.65-1.839 7.797-2.822 11.949-2.822 14.716 0 26.688 11.972 26.688 26.688S111.915 61.04 97.199 61.04c-2.387 0-4.757-.317-7.044-.941L94.634 43.7a9.743 9.743 0 0 0 2.565.341c5.342 0 9.688-4.346 9.688-9.687 0-5.342-4.346-9.688-9.688-9.688a9.57 9.57 0 0 0-4.345 1.026c-3.03 1.505-13.158 9.534-17.997 50.506-2.776 23.501-2.331 45.646-2.326 45.867l-16.996.371z" fill="#fcc21b"/></g></g></svg>