<svg id="レイヤー_1" xmlns="http://www.w3.org/2000/svg" viewBox="0 0 128 128"><path d="M90.47 42.875c10.769-8.089 17.785-20.919 17.785-35.386H90.507C90.507 22.104 78.615 34 64 34 49.381 34 37.494 22.104 37.494 7.489H19.745c0 14.467 7.012 27.297 17.786 35.386-10.774 8.079-17.786 20.909-17.786 35.386 0 24.395 19.852 44.249 44.255 44.249 24.399 0 44.255-19.855 44.255-44.249 0-14.477-7.016-27.307-17.785-35.386zM64 104.762c-14.619 0-26.506-11.887-26.506-26.501 0-14.625 11.888-26.513 26.506-26.513 14.615 0 26.507 11.888 26.507 26.513 0 14.614-11.892 26.501-26.507 26.501z" fill="#fcc21b"/></svg>