<svg id="レイヤー_1" xmlns="http://www.w3.org/2000/svg" viewBox="0 0 128 128"><g><path d="M113.423 28.698V10.415c-7.738 1.992-26.789 6.221-49.428 6.221-22.637 0-41.689-4.229-49.418-6.225v18.287a221.074 221.074 0 0 0 17.74 3.332v67.094a223.944 223.944 0 0 0-17.74 3.328v18.287c7.73-1.99 26.781-6.227 49.418-6.227 22.639 0 41.701 4.236 49.428 6.223v-18.283a224.576 224.576 0 0 0-17.738-3.328V32.03a221.156 221.156 0 0 0 17.738-3.332zM77.937 97.239a209.412 209.412 0 0 0-13.941-.473c-4.824 0-9.482.176-13.93.473V33.917c4.447.295 9.105.467 13.93.467 4.826 0 9.494-.176 13.941-.467v63.322z" fill="#fcc21b"/></g></svg>