<svg id="レイヤー_1" xmlns="http://www.w3.org/2000/svg" viewBox="0 0 128 128"><g fill="#fcc21b"><path d="M123.785 78.072v-.004c0-15.336-12.479-27.814-27.816-27.814-15.336 0-27.815 12.479-27.815 27.818 0 9.61 4.902 18.096 12.332 23.096-5.287 1.41-10.936 2.197-16.482 2.197-23.488 0-43.012-9.435-43.205-9.53l-7.85 15.916c.936.464 23.277 11.36 51.055 11.36 29.387 0 59.771-16.098 59.781-43.032v-.007zM95.969 68.003c5.547 0 10.068 4.515 10.068 10.069v.011c-.01 5.551-4.521 10.057-10.068 10.057-5.555 0-10.067-4.515-10.067-10.067 0-5.555 4.512-10.07 10.067-10.07z"/><path d="M32.039 87.05c15.336 0 27.814-12.48 27.814-27.82 0-9.608-4.908-18.094-12.338-23.096 5.293-1.415 10.934-2.195 16.479-2.195 23.488 0 43.012 9.433 43.207 9.53l7.857-15.911c-.934-.469-23.285-11.368-51.064-11.368-29.375 0-59.77 16.099-59.779 43.04v.004c0 15.335 12.48 27.816 27.824 27.816zm0-17.749c-5.555 0-10.076-4.52-10.076-10.071v-.009c.01-5.546 4.521-10.057 10.076-10.057 5.547 0 10.066 4.515 10.066 10.065 0 5.552-4.519 10.072-10.066 10.072z"/></g></svg>