<svg id="レイヤー_1" xmlns="http://www.w3.org/2000/svg" viewBox="0 0 128 128"><path d="M110.055 106.701a9.096 9.096 0 0 1-5.119 1.562c-5.658 0-8.756-5.227-9.236-10.086-.471-4.648-.055-16.801 4.871-29.437 4.641-11.91 6.537-20.486 6.537-29.592 0-21.881-15.281-37.16-37.162-37.16-20.492 0-37.158 16.666-37.158 37.039-.01.867.018 6.359 2.033 13.508-14.792.082-26.8 12.127-26.8 26.934 0 14.855 12.082 26.945 26.938 26.945s26.936-12.09 26.936-26.945c0-7.842-2.266-15.844-6.729-23.785-4.576-8.143-4.631-16.396-4.631-16.535 0-10.705 8.707-19.414 19.41-19.414 9.383 0 19.412 5.094 19.412 19.414 0 6.822-1.496 13.318-5.324 23.148-6.137 15.748-6.654 31.076-5.998 37.656 1.516 15.096 12.83 26.059 26.9 26.059a26.81 26.81 0 0 0 15.042-4.594l-9.922-14.717zM34.959 88.666c-5.064 0-9.189-4.121-9.189-9.197 0-5.065 4.125-9.188 9.189-9.188s9.188 4.123 9.188 9.188c-.001 5.076-4.124 9.197-9.188 9.197z" fill="#fcc21b"/></svg>