<svg id="レイヤー_1" xmlns="http://www.w3.org/2000/svg" viewBox="0 0 128 128"><g><path d="M119.155 48.549c0-13.402-10.903-24.311-24.302-24.311a24.07 24.07 0 0 0-6.674.963c-1.206-12.287-11.587-21.91-24.177-21.91a24.158 24.158 0 0 0-15.428 5.547 24.141 24.141 0 0 0-15.428-5.547c-13.399 0-24.302 10.908-24.302 24.303v51.451h17.748V27.594a6.563 6.563 0 0 1 6.554-6.555 6.561 6.561 0 0 1 6.554 6.555v51.451h17.748V27.594a6.562 6.562 0 0 1 6.554-6.555c3.61 0 6.549 2.941 6.549 6.555V85.1c-.004 3.559 0 7.635.559 11.805-6.836 3.91-15.15 7.598-25.318 10.955l5.564 16.85c9.988-3.299 18.848-7.062 26.599-11.322.393.451.795.904 1.229 1.34 6.291 6.303 15.65 9.363 28.605 9.363v-17.748c-4.774 0-10.917-.564-14.656-3.041 17.444-14.124 26.022-32.263 26.022-54.753zm-24.301-6.563c3.614 0 6.554 2.949 6.554 6.562 0 10.908-2.089 23.424-13.108 35.193V48.549c-.001-3.613 2.939-6.563 6.554-6.563z" fill="#fcc21b"/></g></svg>