<svg id="レイヤー_1" xmlns="http://www.w3.org/2000/svg" viewBox="0 0 128 128"><path d="M124.997 97.14l-25.55-25.56v16.686H92.88c-4.04 0-7.326-3.291-7.326-7.331V30.38c0-13.823-11.25-25.073-25.074-25.073-6.175 0-11.827 2.256-16.2 5.972-4.377-3.716-10.025-5.972-16.2-5.972-13.829 0-25.079 11.25-25.079 25.073v54.026H20.75V30.38c0-4.039 3.286-7.325 7.331-7.325 4.039 0 7.326 3.286 7.326 7.325v54.026h17.748V30.38c0-4.039 3.286-7.325 7.326-7.325s7.326 3.286 7.326 7.325v50.555c0 13.829 11.245 25.079 25.074 25.079h6.567v16.68l25.549-25.554z" fill="#fcc21b"/></svg>