<svg id="レイヤー_1" xmlns="http://www.w3.org/2000/svg" viewBox="0 0 128 128"><g><path d="M91.879 51.853c-4.576 0-8.893 1.082-12.751 2.958V37.82c0-16.343-13.293-29.631-29.631-29.631-8.384 0-15.95 3.517-21.344 9.129-5.398-5.612-12.964-9.129-21.348-9.129v16.564c7.206 0 13.066 5.856 13.066 13.066v43.353h16.565V37.82c0-7.21 5.856-13.066 13.062-13.066 7.206 0 13.066 5.856 13.066 13.066v54.353c0 7.21-5.861 13.071-13.066 13.071v16.565c11.472 0 21.418-6.563 26.34-16.131 4.613 3.031 10.122 4.815 16.042 4.815 16.168 0 29.317-13.154 29.317-29.321-.001-16.165-13.151-29.319-29.318-29.319zm0 42.077c-7.034 0-12.751-5.721-12.751-12.756s5.717-12.756 12.751-12.756c7.03 0 12.752 5.721 12.752 12.756S98.909 93.93 91.879 93.93z" fill="#fcc21b"/></g></svg>