<svg id="レイヤー_1" xmlns="http://www.w3.org/2000/svg" viewBox="0 0 128 128"><path d="M116.142 56.514H95.948c1.729-22.166 9.411-40.077 12.609-46.709H89.131c-4.248 10.39-9.651 27.028-10.973 46.709h-29.16c-1.322-19.681-6.725-36.319-10.972-46.709H18.601c3.203 6.647 10.88 24.552 12.608 46.709H11.858v17.748H31.21c-1.728 22.162-9.405 40.067-12.608 46.705h19.426c4.247-10.386 9.65-27.024 10.972-46.705h29.16c1.322 19.681 6.725 36.319 10.973 46.705h19.426c-3.203-6.638-10.88-24.543-12.609-46.705h20.193V56.514z" fill="#fcc21b"/></svg>