<svg id="レイヤー_1" xmlns="http://www.w3.org/2000/svg" viewBox="0 0 128 128"><g><path d="M65.233 2.464a2.54 2.54 0 0 0-2.477 0C60.458 3.761 6.434 34.584 6.434 72.028c0 16.585 13.487 30.079 30.068 30.079 7.37 0 14.154-2.689 19.407-7.139-2.782 16.65-8.45 26.99-8.524 27.123a2.53 2.53 0 0 0 .024 2.516 2.53 2.53 0 0 0 2.181 1.244h28.815c.893 0 1.722-.474 2.176-1.244a2.543 2.543 0 0 0 .029-2.516c-.079-.132-5.742-10.478-8.529-27.127 5.258 4.455 12.042 7.144 19.413 7.144 16.585 0 30.072-13.493 30.072-30.079 0-37.445-54.029-68.268-56.333-69.565z" fill="#2f2f2f"/><path d="M78.405 127.113H49.59a3.815 3.815 0 0 1-3.269-1.864 3.822 3.822 0 0 1-.039-3.774c.051-.092 4.929-9.026 7.803-23.534a31.314 31.314 0 0 1-17.583 5.429c-17.277 0-31.331-14.06-31.331-31.341 0-38.077 54.639-69.352 56.965-70.665a3.858 3.858 0 0 1 3.711-.002c2.332 1.312 56.982 32.528 56.982 70.667 0 17.281-14.058 31.341-31.335 31.341a31.316 31.316 0 0 1-17.586-5.432c2.874 14.487 7.745 23.433 7.8 23.527a3.84 3.84 0 0 1-.036 3.779 3.813 3.813 0 0 1-3.267 1.869zM57.722 91.776l-.566 3.399c-2.819 16.871-8.608 27.423-8.666 27.529-.224.401-.219.871.011 1.266.224.377.641.616 1.09.616h28.815c.444 0 .86-.239 1.088-.621.227-.39.231-.866.012-1.263-.037-.064-5.836-10.599-8.67-27.53l-.569-3.401 2.631 2.227c5.21 4.416 11.815 6.845 18.598 6.845 15.884 0 28.81-12.928 28.81-28.815 0-36.681-53.415-67.184-55.689-68.464a1.302 1.302 0 0 0-1.243.002C61.104 4.847 7.696 35.408 7.696 72.028c0 15.887 12.923 28.815 28.806 28.815 6.781 0 13.384-2.429 18.592-6.84l2.628-2.227z" fill="#fff"/></g></svg>