<svg id="レイヤー_1" xmlns="http://www.w3.org/2000/svg" viewBox="0 0 128 128"><g><path d="M95.246 46.94c-1.428 0-2.82.138-4.199.329 1.89-3.928 2.982-8.313 2.982-12.955 0-16.558-13.471-30.03-30.03-30.03-16.554 0-30.025 13.473-30.025 30.03 0 4.642 1.092 9.027 2.982 12.955-1.378-.191-2.771-.329-4.204-.329-16.553 0-30.025 13.472-30.025 30.024 0 16.559 13.472 30.03 30.025 30.03 8.934 0 16.938-3.943 22.445-10.149-2.934 14.284-7.703 22.991-7.772 23.119a2.517 2.517 0 0 0 .025 2.506 2.53 2.53 0 0 0 2.176 1.245h28.75c.892 0 1.718-.478 2.171-1.245a2.532 2.532 0 0 0 .029-2.506c-.069-.128-4.844-8.835-7.772-23.119 5.503 6.206 13.511 10.149 22.44 10.149 16.559 0 30.025-13.472 30.025-30.03.002-16.552-13.464-30.024-30.023-30.024z" fill="#2f2f2f"/><path d="M78.377 124.976h-28.75a3.8 3.8 0 0 1-3.261-1.865 3.793 3.793 0 0 1-.038-3.764c.17-.312 3.886-7.245 6.697-18.607-5.641 4.818-12.825 7.516-20.273 7.516-17.249 0-31.285-14.035-31.285-31.29 0-17.25 14.036-31.285 31.285-31.285.691 0 1.406.029 2.17.094a30.749 30.749 0 0 1-2.209-11.459C32.715 17.06 46.75 3.024 64 3.024c17.255 0 31.29 14.035 31.29 31.29 0 3.938-.743 7.782-2.209 11.459a25.828 25.828 0 0 1 2.166-.094c17.249 0 31.285 14.035 31.285 31.285 0 17.255-14.036 31.29-31.285 31.29-7.45 0-14.631-2.697-20.27-7.516 2.809 11.355 6.533 18.296 6.707 18.617.645 1.16.627 2.6-.047 3.752a3.802 3.802 0 0 1-3.26 1.869zM57.379 92.489l-.944 4.61c-2.863 13.927-7.391 22.525-7.898 23.461a1.27 1.27 0 0 0 .002 1.272c.224.384.642.623 1.088.623h28.75a1.263 1.263 0 0 0 1.1-1.878c-.519-.955-5.052-9.562-7.908-23.479l-.944-4.613 3.123 3.522c5.481 6.183 13.314 9.727 21.498 9.727 15.861 0 28.766-12.906 28.766-28.771 0-15.861-12.904-28.765-28.766-28.765-1.188 0-2.468.101-4.024.316l-2.331.325 1.021-2.119c1.896-3.939 2.858-8.116 2.858-12.408 0-15.864-12.907-28.77-28.771-28.77-15.861 0-28.765 12.905-28.765 28.77 0 4.292.962 8.469 2.857 12.408l1.021 2.119-2.33-.325c-1.556-.216-2.836-.316-4.029-.316-15.861 0-28.765 12.903-28.765 28.765 0 15.864 12.904 28.771 28.765 28.771 8.181 0 16.017-3.544 21.502-9.727l3.124-3.518z" fill="#fff"/></g></svg>