<svg id="レイヤー_1" xmlns="http://www.w3.org/2000/svg" viewBox="0 0 128 128"><g fill="#40c0e7"><path d="M31.33 89.475a1.414 1.414 0 0 0 .058 1.664c.272.359.686.545 1.11.545.168 0 .341-.029.503-.094.236-.092 23.53-9.461 14.345-45.371-8.446-33.082.802-38.541.865-38.582a1.403 1.403 0 0 0 .707-1.772 1.416 1.416 0 0 0-1.708-.85c-.419.115-10.321 3.102-16.006 13.623-4.773 8.836-5.092 20.16-.959 33.668 8.064 26.301 1.153 37.063 1.085 37.169z"/><path d="M57.208 89.475a1.405 1.405 0 0 0 .062 1.664c.272.359.681.545 1.105.545.173 0 .341-.029.508-.094.236-.092 23.52-9.461 14.34-45.371-8.461-33.082.802-38.541.865-38.572a1.42 1.42 0 0 0 .708-1.781 1.417 1.417 0 0 0-1.709-.85c-.419.115-10.321 3.102-16.011 13.623-4.768 8.836-5.093 20.16-.958 33.668 8.068 26.3 1.163 37.062 1.09 37.168z"/><path d="M83.079 89.475a1.404 1.404 0 0 0 .063 1.664c.272.359.681.545 1.105.545.172 0 .34-.029.508-.094.235-.092 23.524-9.461 14.35-45.371-8.461-33.082.791-38.541.855-38.582.665-.314.97-1.092.707-1.772-.256-.68-1-1.049-1.708-.85-.419.116-10.321 3.102-16.006 13.624-4.772 8.836-5.092 20.16-.959 33.668 8.037 26.207 1.205 36.99 1.085 37.168z"/><path d="M114.839 61.508c-2.787-2.273-6.413-.23-3.851 3.846 2.148 3.436 3.426 7.072 3.426 10.928 0 16.672-22.57 30.18-50.412 30.18-27.852 0-50.423-13.508-50.423-30.18 0-3.856 1.278-7.492 3.432-10.928 2.557-4.076-1.063-6.119-3.855-3.846C5.281 67.92.618 75.883.618 84.496c0 21.281 28.371 38.541 63.385 38.541 35.003 0 63.379-17.26 63.379-38.541 0-8.613-4.669-16.576-12.543-22.988z"/></g></svg>