<svg id="レイヤー_1" xmlns="http://www.w3.org/2000/svg" viewBox="0 0 128 128"><g fill="#757f3f"><path d="M55.797 9.385c.746.926 1.671 1.803 2.452 2.717a92.06 92.06 0 0 1 3.503 4.336c2.596 3.41 5.359 6.682 8.145 9.932 2.018 2.358 4.191 4.533 6.267 6.834 1.058 1.168 2.653 2.82 2.451 4.555-.115.971-1.006 1.504-1.671 2.127-.942.879-1.983 1.572-2.787 2.578-.82 1.041-2.179 1.885-2.468 3.25-.26 1.201 1.197 2.207 2.22 2.52.908.277 1.884.545 2.815.717 6.452 1.203 13.36 1.631 19.916 1.676 1.89.012 3.833.221 5.59-.623.971-.463 2.035-1.398 2.209-2.521.971-6.092 2.607-12.221 3.457-18.268.237-1.676.803-3.768.219-5.434-.705-2-3.012-1.537-4.555-.947-.78.301-1.509.728-2.237 1.121-.648.348-1.324.936-2.018 1.145-1.451.439-2.706-.891-3.544-1.885-1.37-1.619-2.532-3.504-3.723-5.273-2.532-3.756-5.053-7.756-8.342-10.9-.526-.51-1.26-.545-1.954-.695-1.971-.419-4.018-.257-6.012-.257H65c-1.688 0-3.446-.103-5.099.082-1.15.125-3.046-.117-4 .682-.683.578-.694 1.791-.162 2.463.017.021.041.044.058.068z"/><path d="M59.254 19.721c-2.855-3.098-5.897-5.988-9.226-8.566-1.237-.961-1.879-1.781-3.596-1.758-1.873.035-3.341 1.781-4.48 3.387-2.666 3.734-5.151 7.586-7.701 11.4-1.74 2.602-4.734 5.734-4.462 9.088.248 3.018 5.15 5.84 7.289 7.504 3.405 2.648 6.943 5.18 10.718 7.272 1.179.66 2.549-.045 3.417-.877 3.018-2.914 5.37-6.418 7.77-9.828 1.844-2.637 5.827-6.15 5.995-9.504.149-3.042-3.845-6.083-5.724-8.118z"/><path d="M31.529 70.514c2.272-2.279 7.446 3.479 10.579 1.271 2.399-1.678.005-6.336-.706-8.338-1.451-4.059-2.948-8.104-4.861-11.965-1.647-3.33-4.082-8.857-8.51-8.869-3 0-5.746 1.457-8.584 2.209-4.793 1.271-9.574 2.844-13.903 5.307-.648.357-1.243.844-1.532 1.549-.566 1.4.948 2.879 1.896 3.643.995.797 2.162 1.49 3.266 2.115.855.498 1.746.949 1.792 2.094.046 1.166-.757 2.625-1.352 3.605-.965 1.598-1.653 3.332-2.324 5.053-1.37 3.572-3.549 6.926-4.538 10.639-1.087 4.045 1.873 7.652 3.705 10.994 2.162 3.941 4.168 8.002 6.851 11.631.769 1.041 1.729 2.729 2.861 3.504.572.393 1.243-.475 1.821-1.596.682-1.307 1.242-2.959 1.387-3.283 2.879-6.578 4.896-13.504 7.931-20.014 1.382-2.959 1.88-7.204 4.221-9.549z"/><path d="M47.664 87.51c-4.313-.578-8.625-.961-12.949-1.4-1.243-.127-3.249-.648-4.428-.254-1.22.416-1.74 1.537-2.376 2.566-1.272 2.082-1.937 4.555-2.85 6.867a49.133 49.133 0 0 0-2.59 9.076c-.283 1.525-.462 3.053-.613 4.59-.133 1.295-.191 2.371.85 3.4 1.087 1.062 3.37 1.305 5.318 1.41 5.845.324 11.689.658 17.539.855 2.081.057 4.504.521 6.365-.646 1.018-.648 1.133-2.268 1.347-3.342.7-3.584 1.231-7.203 1.642-10.834.202-1.805.375-3.607.521-5.41.121-1.572.641-3.469-.214-4.926-1.134-1.942-5.655-1.7-7.562-1.952z"/><path d="M121.162 84.504c-.191 0-.364.01-.515.021-6.122.682-12.255 1.816-18.354 2.717-4.197.625-8.261 1.678-12.521 1.943-1.41.08-4.717.752-5.63-.684-.884-1.387-.63-4.369-.879-6-.162-1.062.104-2.439-.613-3.342-.538-.682-1.538-1.016-2.387-.74-3.509 1.133-6.469 5.988-8.66 8.73-3.162 3.955-6.151 8.07-8.671 12.475-2.214 3.861 4.862 9.516 7.272 11.818 2.717 2.588 5.596 5.004 8.446 7.443.722.613 1.439 1.227 2.156 1.85.52.463.959.949 1.653 1.1 1.399.275 2.584.104 2.902-1.516.33-1.711.457-3.307.306-5.029-.109-1.225-.393-2.855.873-3.596 1.422-.82 3.058-.764 4.607-1.051 5.573-1.076 11.331-.787 16.933-1.793 4.422-.785 6.156-6.43 8.122-9.838 1.861-3.227 4.087-6.396 5.573-9.818.451-1.027 1.052-2.01 1.341-3.109.11-.416.266-.785-.063-1.109-.388-.382-1.232-.486-1.891-.472z"/><path d="M124.394 70.477c-.139-.357-.277-.68-.399-.98-1.549-3.793-3.018-7.609-4.602-11.389-.994-2.371-2.093-4.764-3.653-6.822-.578-.773-1.451-1.064-2.365-1.236-.861-.164-1.601.01-2.457.301-1.613.553-3.26 1.109-4.844 1.756-4.371 1.758-8.925 3.4-13.082 5.619-1.099.59-2.376 1.271-2.422 2.672-.11 3.49 1.879 6.197 2.92 9.387a24.35 24.35 0 0 0 1.619 3.805c1.405 2.66 2.821 5.33 4.29 7.969.693 1.234 1.416 1.916 2.74 2.285.913.268 1.774.014 2.706-.104 3.173-.391 6.145-1.363 9.238-2.125 3.474-.867 7.174-1.875 10.14-3.955 2.165-1.529 1.072-4.904.171-7.183z"/></g></svg>