<svg id="图层_1" xmlns="http://www.w3.org/2000/svg" viewBox="0 0 128 128"><g><g><g><path d="M121.028 0H7.022C3.239 0 .144 3.094.144 6.877v114.011c0 3.79 3.095 6.88 6.878 6.88h114.006c3.782 0 6.882-3.09 6.882-6.88V6.877c0-3.783-3.1-6.877-6.882-6.877z" fill="#006ca2"/></g></g></g><g/><g><g/></g><path fill="none" stroke="#fff" stroke-width="11" stroke-linecap="round" stroke-linejoin="round" stroke-miterlimit="10" d="M239.035 12.002h41.263"/><path fill="none" stroke="#fff" stroke-width="11" stroke-linecap="round" stroke-linejoin="round" stroke-miterlimit="10" d="M259.667 12.002v33.17"/><g/><path fill="none" stroke="#fff" stroke-width="5" stroke-linecap="round" stroke-linejoin="round" stroke-miterlimit="10" d="M290.516 32.873V57.47"/><g><g><g><g><path d="M53.3 60h25.99a4.587 4.587 0 1 0 0-9.174H53.3V60z" fill="#fff"/></g></g><g><g><path d="M82.707 77.683l11.406 31.336a5.282 5.282 0 1 0 9.928-3.614L92.636 74.07l-9.929 3.613z" fill="#fff"/></g></g><g><circle cx="53.3" cy="21.244" r="12.586" fill="#fff"/></g><g><path d="M59.085 83.55c-5.236.923-10.275-2.605-11.198-7.841L43.26 49.465c-.923-5.236 2.605-10.275 7.841-11.198 5.236-.923 10.275 2.605 11.198 7.841l4.627 26.244c.923 5.235-2.606 10.275-7.841 11.198z" fill="#fff"/></g><g><path d="M85.818 83.697H57.554c-3.977 0-7.23-3.254-7.23-7.23 0-3.977 3.254-7.23 7.23-7.23h28.265c3.977 0 7.23 3.254 7.23 7.23-.001 3.976-3.254 7.23-7.231 7.23z" fill="#fff"/></g></g><g><path d="M53.692 119.11c-16.542 0-30-13.458-30-30 0-9.973 4.724-19.198 12.637-24.678a3 3 0 1 1 3.416 4.932C33.356 73.79 29.692 80.986 29.692 89.11c0 13.233 10.766 24 24 24 12.104 0 22.344-9.043 23.819-21.035a2.993 2.993 0 0 1 3.344-2.611 3 3 0 0 1 2.611 3.344c-1.845 14.994-14.645 26.302-29.774 26.302z" fill="#fff"/></g></g></svg>