<svg id="Layer_1" xmlns="http://www.w3.org/2000/svg" viewBox="0 0 128 128"><path id="XMLID_562_" d="M108.62 102.26c-4.624-4.797-22.543-22.053-27.488-26.567-3.467-3.165-9.954-7.78-13.237-10.063a28.742 28.742 0 0 1-3.837-3.196L37.617 36.159l-8.767 8.767 26.275 26.441a28.742 28.742 0 0 1 3.196 3.837c2.283 3.282 6.898 9.77 10.063 13.237 4.514 4.944 21.77 22.864 26.567 27.488.372.358 1.563 1.479 2.778 2.62 1.735 1.629 4.397 1.637 6.016.017l7.512-7.512c1.619-1.619 1.611-4.281-.017-6.016a487.777 487.777 0 0 0-2.62-2.778z" fill="#855c52"/><path id="XMLID_559_" d="M26.903 25.204l-4.076-4.051a6.22 6.22 0 0 0-8.795 8.795l4.051 4.076a6.219 6.219 0 0 0 8.809.014l.026-.026a6.22 6.22 0 0 0-.015-8.808z" fill="#855c52"/><path id="XMLID_557_" d="M53.119 31.546L24.238 60.428a7.09 7.09 0 0 1-10.027 0L3.688 49.906a7.09 7.09 0 0 1 0-10.027L32.57 10.997a7.09 7.09 0 0 1 10.027 0l10.522 10.522a7.09 7.09 0 0 1 0 10.027z" fill="#78a3ad"/><path id="XMLID_6_" d="M11.282 44.323a2.501 2.501 0 0 1-1.762-4.274l26.5-26.333a2.501 2.501 0 0 1 3.525 3.547l-26.5 26.333a2.495 2.495 0 0 1-1.763.727z" fill="#fff"/><path id="XMLID_572_" d="M33.6 115.493c4.797-4.624 22.053-22.543 26.567-27.488 3.165-3.467 7.78-9.954 10.063-13.237a28.742 28.742 0 0 1 3.196-3.837L99.701 44.49l-8.767-8.767-26.441 26.276a28.742 28.742 0 0 1-3.837 3.196c-3.282 2.283-9.77 6.898-13.237 10.063-4.944 4.514-22.864 21.77-27.488 26.567-.358.372-1.479 1.563-2.62 2.778-1.629 1.735-1.637 4.397-.017 6.016l7.512 7.512c1.619 1.619 4.281 1.611 6.016-.017a474.947 474.947 0 0 0 2.778-2.621z" fill="#855c52"/><g id="XMLID_1_"><path id="XMLID_32_" d="M77.873 72.956l-.452-.356c-.883-.685-2.321-1.744-3.23-2.418l-.776.781a28.742 28.742 0 0 0-3.196 3.837c-1.433 2.06-3.785 5.383-6.12 8.429.742.975 2.056 2.582 2.774 3.467 2.621-3.336 5.692-6.489 7.314-8.821.954-1.37 2.609-3.658 3.686-4.919z" fill="#2f2f2f"/></g><path id="XMLID_569_" d="M110.135 33.776l4.051-4.076a6.22 6.22 0 0 0-8.795-8.795l-4.076 4.051a6.219 6.219 0 0 0-.014 8.809l.026.026a6.219 6.219 0 0 0 8.808-.015z" fill="#855c52"/><path id="XMLID_567_" d="M114.845 70.525L74.372 30.052a4.362 4.362 0 0 1 0-6.168L88.753 9.502a4.362 4.362 0 0 1 6.168 0l29.276 29.276a7.479 7.479 0 0 1 1.927 7.256l-6.319 23.173c-.598 2.199-3.349 2.929-4.96 1.318z" fill="#78a3ad"/><path id="XMLID_5_" d="M114.125 39.833c-.635 0-1.271-.24-1.758-.722l-21.75-21.5a2.5 2.5 0 0 1 3.515-3.556l21.75 21.5a2.5 2.5 0 0 1-1.757 4.278z" fill="#fff"/></svg>