<svg id="レイヤー_1" xmlns="http://www.w3.org/2000/svg" viewBox="0 0 128 128"><path d="M119.867 72.836c-.719-1.289-1.641-3.292-3.688-4.104-.937-.376-2.324-.307-3.434.19-2.384 1.05-9.99 5.798-13.246 9.116-1.288 1.308-1.397 2.388-1.016 3.082.446.804 1.179 1.102 2.77 1.22 1.324.1 2.736-.258 3.717.674 1.962 1.862-5.6 10.269-6.279 11-3.122 3.34-6.586 6.443-10.743 8.643-3.31 1.744-9.847 3.152-12.413-.267-2.155-2.846-2.121-7.384-2.557-10.715a561.555 561.555 0 0 1-1.824-15.767c-.232-2.22-.856-5.254.53-7.256 2.042-2.964 13.722-4.548 14.976-4.885 2.492-.664 3.567-1.874 3.567-4.361 0-2.19-1.119-4.263-3.617-4.618-2.656-.388-5.56-.297-8.271-.297-2.057.009-6.596-.485-7.958-2.012-.451-.516-.679-1.277-.759-1.923-.312-2.497-1.124-5.967.417-8.267.857-1.277 2.492-1.832 3.761-2.694a19.304 19.304 0 0 0 2.086-1.052c7.735-4.558 12.017-13.864 10.203-22.21C84.034 6.839 74.346.894 64 .547 53.653.894 43.965 6.839 41.909 16.334c-1.813 8.346 2.463 17.652 10.203 22.21.674.396 1.378.743 2.086 1.052 1.269.862 2.904 1.417 3.762 2.694 1.541 2.3.729 5.77.416 8.267-.079.646-.312 1.407-.763 1.923-1.358 1.526-5.897 2.021-7.954 2.012-2.71 0-5.614-.091-8.271.297-2.497.355-3.617 2.428-3.617 4.618 0 2.487 1.075 3.697 3.563 4.361 1.259.337 12.938 1.921 14.98 4.885 1.388 2.002.758 5.036.53 7.256a558.312 558.312 0 0 1-1.829 15.767c-.431 3.331-.396 7.869-2.552 10.715-2.572 3.419-9.103 2.011-12.413.267-4.162-2.199-7.626-5.303-10.743-8.643-.679-.731-8.24-9.138-6.278-11 .977-.932 2.394-.574 3.716-.674 1.591-.118 2.325-.416 2.771-1.22.376-.694.272-1.774-1.016-3.082-3.261-3.318-10.867-8.066-13.245-9.116-1.11-.497-2.498-.566-3.435-.19-2.051.812-2.968 2.815-3.687 4.104-1.462 2.636-5.342 13.775-4.658 16.591.312 1.277 1.853 1.842 3.369 1.18 1.428-.615 2.816-3.798 5.075-2.509.664.386.976 1.685 1.21 2.27.342.861.758 1.735 1.095 2.566 4.48 11.042 12.161 21.398 23.315 27.454 7.879 4.271 17.18 6.808 26.461 7.065 9.281-.258 18.583-2.794 26.462-7.065 11.154-6.056 18.835-16.412 23.314-27.454.337-.831.754-1.705 1.096-2.566.232-.585.545-1.884 1.209-2.27 2.26-1.289 3.642 1.894 5.074 2.509 1.517.662 3.058.098 3.37-1.18.684-2.817-3.197-13.956-4.658-16.592zm-64.53-52.021a8.662 8.662 0 1 1 17.324 0c0 4.775-3.88 8.661-8.662 8.661-4.781 0-8.662-3.886-8.662-8.661z" fill="#40c0e7"/></svg>