<svg id="Layer_1" xmlns="http://www.w3.org/2000/svg" viewBox="0 0 128 128"><path d="M120.512 126.913l6.428-6.428a2.453 2.453 0 0 0 0-3.469L94.452 84.528a2.453 2.453 0 0 0-3.469 0l-6.428 6.428a2.453 2.453 0 0 0 0 3.469l32.488 32.488a2.453 2.453 0 0 0 3.469 0z" fill="#855c52"/><g fill="#78a3ad"><path d="M72.089 109.359l37.297-37.297a1.968 1.968 0 0 0 0-2.784l-1.112-1.112a1.968 1.968 0 0 0-2.784 0l-37.297 37.297a1.968 1.968 0 0 0 0 2.784l1.112 1.112a1.968 1.968 0 0 0 2.784 0z"/><circle cx="105.81" cy="72.052" r="4.49"/><circle cx="72.08" cy="105.783" r="4.49"/></g><path transform="rotate(-45.001 92.067 92.042)" fill="#2f2f2f" d="M85.07 90.159h13.996v3.763H85.07z"/><path d="M126.881 123.061l-3.793 3.793c-1.685 1.685-4.665 1.438-6.655-.552l9.897-9.897c1.99 1.991 2.237 4.971.551 6.656z" fill="#78a3ad"/><path fill="#2b94c5" d="M0-.027l10.886.989L91.79 81.866l-4.948 4.949z"/><path fill="#64878e" d="M0-.027l.99 10.886 80.904 80.904 4.948-4.948z"/><g><path fill="#78a3ad" d="M10.886.962L0-.027l86.842 86.842 4.948-4.949z"/></g><path d="M7.488 126.967L1.06 120.54a2.453 2.453 0 0 1 0-3.469l27.813-27.862a2.453 2.453 0 0 1 3.469 0l6.428 6.428a2.453 2.453 0 0 1 0 3.469l-27.813 27.862a2.454 2.454 0 0 1-3.469-.001z" fill="#855c52"/><g fill="#78a3ad"><path d="M51.236 114.04L13.939 76.742a1.968 1.968 0 0 1 0-2.784l1.112-1.112c.769-.769 3.208-2.287 3.977-1.518l37.297 37.297c.769.769-.425 3.533-1.193 4.302l-1.112 1.112a1.97 1.97 0 0 1-2.784.001z"/><circle cx="18.196" cy="75.848" r="6.164"/><circle cx="52.821" cy="110.473" r="6.164"/></g><path transform="rotate(-134.999 31.257 96.722)" fill="#2f2f2f" d="M24.259 94.84h13.996v3.763H24.259z"/><path d="M1.119 123.116l3.793 3.793c1.686 1.686 4.665 1.439 6.655-.552L1.67 116.46c-1.99 1.991-2.237 4.97-.551 6.656z" fill="#78a3ad"/><path fill="#78a3ad" d="M128 .027l-10.886.99-85.579 85.53 4.948 4.948z"/><path fill="#64878e" d="M128 .027l-.99 10.886-85.579 85.531-4.948-4.949z"/><path fill="#2f2f2f" d="M64.02 73.866l9.889-9.881 4.358 4.318-9.684 10.114z"/></svg>