<svg id="图层_1" xmlns="http://www.w3.org/2000/svg" viewBox="0 0 128 128"><g><g><g fill="#855c52"><path d="M105.343 32.335V31.28h-2.968v1.353l-.115.08.115.308v.575L83.858 88.587l2.007 2.168 16.51-49.273v53.234h2.968V41.53l16.824 48.832 2.623-1.674z"/><path d="M25.078 31.28H22.11v.989L3.221 88.734l2.646 1.676L22.11 41.482v53.234h2.968V41.53l16.504 48.966 2.622-1.674-19.126-56.487z"/></g><path d="M86.318 112.361c-.127-.47-.511-.703-.699-.802a3.36 3.36 0 0 0-1.495-.71c-4.454-2.109-9.48-4.502-11.575-8.574-.298-4.853-1.61-11.619-4.347-15.057V40.82c2.382-1.092 3.494-3.677 3.494-8.091 0-4.812-1.391-11.331-3.978-14.421a4.45 4.45 0 0 0 1.416-3.281 4.532 4.532 0 0 0-4.527-4.527 4.532 4.532 0 0 0-4.527 4.527c0 1.267.51 2.435 1.415 3.281-2.586 3.091-3.977 9.609-3.977 14.421 0 4.414 1.113 6.999 3.494 8.091v46.397c-2.723 3.419-4.039 10.151-4.344 14.981-2.101 4.045-7.043 6.357-12.276 8.803l-.722.338c-.684.321-.811.81-.822 1.098a3.322 3.322 0 0 0-.47 1.701 3.366 3.366 0 0 0 3.363 3.362h37.733a3.366 3.366 0 0 0 3.362-3.362 3.326 3.326 0 0 0-.518-1.777z" fill="#2f2f2f"/><path d="M103.807 24.32a4.999 4.999 0 0 0-4.891 6c-2.657 1.308-5.501 1.919-8.912 1.919-1.935 0-3.851-.203-5.633-.586-6.592-2.339-11.806-3.607-20.464-3.607-8.903 0-13.665 1.382-19.854 3.474-1.871.395-4.126.621-6.185.621-3.425 0-6.28-.629-8.947-1.976.052-.287.079-.572.079-.853a4.999 4.999 0 0 0-4.993-4.993 4.999 4.999 0 0 0-4.993 4.993 4.958 4.958 0 0 0 3.446 4.728c4.504 2.686 9.544 3.992 15.407 3.992 4.266 0 8.472-.7 12.166-2.024l1.244-.454c3.855-1.113 7.075-1.715 12.629-1.715 6.143 0 8.983.729 13.082 1.909l.887.311c3.68 1.291 7.874 1.973 12.128 1.973 6.032 0 11.18-1.351 15.663-4.092a4.97 4.97 0 0 0 3.133-4.628 4.997 4.997 0 0 0-4.992-4.992z" fill="#2f2f2f"/></g><path d="M2.979 88.467h41.393c1.966 0 2.822 2.487 1.271 3.696l-2.822 2.201c-11.478 8.951-27.617 8.783-38.906-.405l-2.24-1.823c-1.509-1.228-.64-3.669 1.304-3.669z" fill-rule="evenodd" clip-rule="evenodd" fill="#f1bb26"/><path d="M83.627 88.467h41.393c1.966 0 2.822 2.487 1.271 3.696l-2.822 2.201c-11.478 8.951-27.617 8.783-38.906-.405l-2.24-1.823c-1.509-1.228-.641-3.669 1.304-3.669z" fill-rule="evenodd" clip-rule="evenodd" fill="#f1bb26"/></g></svg>