<svg id="Layer_1" xmlns="http://www.w3.org/2000/svg" viewBox="0 0 128 128"><path d="M66.284 115.283a4.165 4.165 0 0 1-4.165-4.165V78.895a4.165 4.165 0 0 1 8.33 0v32.223c0 2.3-1.865 4.165-4.165 4.165z" fill="#875a3b"/><path d="M109.068 72.369c.067-2.51-.441-5.162-4.951-5.818l-75.087.032c-4.232-.384-6.368 2.215-6.61 4.69l1.391 3c0 .064.008.127.01.19" fill="#2f2f2f"/><circle cx="66.355" cy="52.768" r="39.308" fill="#b9e8f4"/><path d="M27.368 57.714c2.434 19.373 18.955 34.362 38.988 34.362s36.554-14.989 38.988-34.362H27.368z" fill="#40c0e7"/><path d="M35.498 77.108c7.195 9.117 18.341 14.968 30.858 14.968s23.662-5.852 30.858-14.968H35.498z" fill="#196ca2"/><path d="M6.856 39.023l-.469-.802a2.8 2.8 0 0 1 1.509-3.66l42.729-17.784a2.8 2.8 0 0 1 3.661 1.509l1.849 4.444a2.8 2.8 0 0 1-1.509 3.66L10.517 40.533a2.8 2.8 0 0 1-3.661-1.51z" fill="#b9e8f4"/><ellipse cx="66.355" cy="57.714" rx="38.988" ry="3.905" fill="#196ca2"/><path d="M27.047 52.768a39.128 39.128 0 0 0 4.587 18.429c2.834 2.92 4.794 1.871 3.864-7.441-2.744-27.476 11.354-34.872 11.354-34.872L32.016 33.64a39.115 39.115 0 0 0-4.969 19.128z" fill="#78a3ad"/><path d="M72.44 20.059s20.622 4.714 23.45 23.214" fill="none" stroke="#fff" stroke-width="3" stroke-linecap="round" stroke-miterlimit="10"/><path d="M27.581 59.14c.024.149.044.299.07.447a45.934 45.934 0 0 0 .424 2.065c.096.416.195.83.305 1.241.073.272.154.541.232.811.182.629.379 1.25.591 1.865.117.34.232.68.358 1.016.121.323.252.642.381.961a43.427 43.427 0 0 0 .824 1.896c.196.418.402.83.613 1.24.09.175.174.353.266.526 2.828 2.906 4.782 1.848 3.853-7.452a69.551 69.551 0 0 1-.339-6.041h-7.792c.061.478.136.951.214 1.425z" fill="#196ca2"/><path d="M24.309 116.715a4.166 4.166 0 0 1-4.74-5.444l12.144-35.296a4.165 4.165 0 0 1 7.877 2.711l-12.144 35.296a4.166 4.166 0 0 1-3.137 2.733z" fill="#875a3b"/><g><g><path d="M65.463 82.365c-22.435 0-38.53-5.759-39.284-5.966-2.035-.56-4.225-2.68-3.759-5.126.465-2.448 1.542-3.41 3.571-2.855.177.049 17.934 4.855 39.472 4.855 21.588 0 39.294-4.807 39.47-4.855 2.035-.555 3.638-.358 4.105 2.089.466 2.447-.806 4.885-2.842 5.447-.754.208-18.297 6.411-40.733 6.411z" fill="#875a3b"/></g></g><path d="M107.785 116.715a4.166 4.166 0 0 0 4.74-5.444l-12.144-35.296a4.165 4.165 0 0 0-7.877 2.711l12.144 35.296a4.166 4.166 0 0 0 3.137 2.733z" fill="#875a3b"/><path d="M35.173 55.37c-4.9.653-7.806 1.464-7.806 2.344 0 .883 2.93 1.697 7.865 2.352a63.907 63.907 0 0 1-.059-4.696z" fill="#196ca2"/></svg>