<svg id="Layer_1" xmlns="http://www.w3.org/2000/svg" viewBox="0 0 128 128"><g id="XMLID_5_"><path id="XMLID_24_" d="M63.315 52.209c-6.841 0-12.435 5.29-12.943 12.001-.057.492-.093.991-.093 1.498 0 7.195 5.841 13.036 13.036 13.036S76.35 72.903 76.35 65.709c0-.507-.036-1.006-.093-1.498-.507-6.711-6.101-12.002-12.942-12.002z" fill="none"/><path id="XMLID_37_" d="M110.894 65.202c0-.796-.021-1.587-.06-2.374l13.164-4.617c-.131-5-1.004-9.952-2.591-14.695l-15.332.838a47.548 47.548 0 0 0-5.885-9.173l8.067-13.602a50.468 50.468 0 0 0-11.43-9.591L85.095 22.976a47.09 47.09 0 0 0-11.98-4.245L70.537 3.035a50.488 50.488 0 0 0-14.921 0l-1.892 15.702a47.095 47.095 0 0 0-11.626 4.071l-12.06-10.363a50.468 50.468 0 0 0-11.43 9.591l8.353 12.8a47.497 47.497 0 0 0-5.365 7.945l-16.141-.189a50.476 50.476 0 0 0-2.591 14.695l13.276 4.027a48.085 48.085 0 0 0-.172 3.889c0 2.863.268 5.662.754 8.386L4.61 83.512a50.46 50.46 0 0 0 7.461 12.922L23.857 91.4a47.712 47.712 0 0 0 11.736 12.234l-3.047 16.168a50.488 50.488 0 0 0 14.021 5.103l6.755-13.33a47.617 47.617 0 0 0 19.563.145l7.408 13.185a50.477 50.477 0 0 0 14.021-5.103l-3.668-15.727a47.693 47.693 0 0 0 12.372-12.699l11.772 4.442a50.49 50.49 0 0 0 7.461-12.922l-12.148-9.112c.511-2.784.791-5.65.791-8.582zM63.431 95.319c-16.338 0-29.582-13.244-29.582-29.582s13.244-29.582 29.582-29.582 29.582 13.244 29.582 29.582-13.244 29.582-29.582 29.582z" fill="#78a3ad"/><path id="XMLID_41_" d="M63.431 36.155c-16.338 0-29.582 13.244-29.582 29.582s13.244 29.582 29.582 29.582 29.582-13.244 29.582-29.582-13.244-29.582-29.582-29.582zm-.116 42.589c-7.195 0-13.036-5.841-13.036-13.036 0-.507.036-1.006.093-1.498.508-6.711 6.102-12.001 12.943-12.001 6.841 0 12.435 5.291 12.943 12.002.057.492.093.991.093 1.498-.001 7.194-5.842 13.035-13.036 13.035z" fill="#64878e"/></g><path id="XMLID_69_" d="M27.349 56.636a2.783 2.783 0 0 1-2.702-3.462 35.158 35.158 0 0 1 1.892-5.53 2.783 2.783 0 1 1 5.099 2.235 29.534 29.534 0 0 0-1.591 4.651 2.785 2.785 0 0 1-2.698 2.106z" fill="#fff"/><path id="XMLID_68_" d="M33.959 45.144a2.784 2.784 0 0 1-2.304-4.344A35.38 35.38 0 0 1 47.198 28a2.783 2.783 0 1 1 2.17 5.128 29.813 29.813 0 0 0-13.1 10.791 2.779 2.779 0 0 1-2.309 1.225z" fill="#fff"/></svg>