<svg id="レイヤー_1" xmlns="http://www.w3.org/2000/svg" viewBox="0 0 128 128"><path d="M64 0c-1.556 1.369-3.757 2.853-5.365 4.215C52.968 9.02 48.183 15.203 48.31 22.768c.068 4.045 1.364 7.759 3.157 11.305C58.612 48.21 60.382 52.228 60.271 64c.05 1.194.055 1.844.055 1.844h-4.544c-.082-.615-.164-1.23-.249-1.844-.931-6.727-2.141-13.381-5.682-19.502-2.673-4.62-6.209-8.579-11.033-10.853-7.497-3.536-16.265-2.884-23.297 1.514-9.358 5.853-9.967 14.989-9.652 18.817.314 3.819 1.899 7.202 4.276 10.024 3.044 3.615 7.385 6.31 12.014 7.821.156.051-.103-.885-.162-1.141-.508-2.235-.521-4.351-.41-6.68.204-4.291 1.693-8.397 5.331-11.042 4.583-3.332 10.516-2.637 14.811.918 3.138 2.597 5.263 6.277 6.021 10.124.136.692.242 1.39.319 2.087 0 0-3.859-.093-5.312-.022-.718.035-1.419.05-2.05.455-.267.172-.691.645-.69 1.218.002 3.666.002 6.147 0 9.72 0 .562-.095 1.535.291 2.037.236.307.619.481 1.005.516 2.362.209 7.048.142 7.048.142s-.28 4.122-2.112 6.481c-.907 1.168-1.954 2.103-3.221 2.728-3.775 1.862-9.107.951-11.289-3.043-1.407-2.574-2.115-5.356-1.528-8.358.032-.164-.108-.272-.255-.175-4.675 3.088-7.951 7.297-9.014 12.713-.397 2.022-.313 3.858.081 5.502 1.293 5.397 5.922 8.719 7.8 9.739 4.03 2.188 9.864 1.776 13.912-.42 2.323-1.26 5.959-4.122 8.686-9.319 2.154-4.104 3.87-9.407 4.258-15.861h4.652c.222 5.374-.537 10.878-2.624 15.861-.136.324-.277.646-.423.966-2.668 5.835-6.312 11.474-4.86 18.308C53.756 121.542 59.029 124.993 64 128c4.971-3.007 10.244-6.458 11.576-12.726 1.452-6.834-2.192-12.473-4.86-18.308-.146-.32-.287-.642-.423-.966-2.086-4.983-2.846-10.487-2.624-15.861h4.652c.388 6.454 2.105 11.757 4.259 15.861 2.728 5.197 6.364 8.058 8.687 9.319 4.048 2.196 9.882 2.608 13.912.42 1.878-1.02 6.507-4.342 7.8-9.739.394-1.644.478-3.48.081-5.502-1.063-5.416-4.34-9.625-9.014-12.713-.147-.097-.287.012-.255.175.587 3.002-.121 5.784-1.528 8.358-2.183 3.994-7.514 4.905-11.289 3.043-1.267-.625-2.314-1.56-3.221-2.728-1.832-2.359-2.112-6.481-2.112-6.481s4.687.067 7.048-.142c.386-.034.769-.208 1.005-.516.386-.501.291-1.474.291-2.037v-9.72c0-.572-.423-1.046-.69-1.218-.631-.405-1.332-.42-2.05-.455-1.453-.071-5.312.022-5.312.022.077-.698.183-1.395.319-2.087.758-3.847 2.883-7.527 6.021-10.124 4.295-3.555 10.228-4.25 14.811-.918 3.638 2.645 5.127 6.75 5.331 11.042.111 2.329.098 4.445-.41 6.68-.058.256-.318 1.192-.162 1.141 4.629-1.512 8.97-4.206 12.014-7.821 2.376-2.822 3.961-6.205 4.275-10.024.315-3.827-.294-12.963-9.652-18.817-7.031-4.398-15.799-5.05-23.297-1.514-4.824 2.275-8.36 6.234-11.033 10.853-3.541 6.12-4.751 12.775-5.682 19.502a281.64 281.64 0 0 0-.249 1.844h-4.544s.004-.65.055-1.844c-.111-11.772 1.658-15.79 8.804-29.927 1.792-3.546 3.089-7.26 3.157-11.305.127-7.564-4.659-13.748-10.326-18.552C67.757 2.853 65.556 1.369 64 0z" fill="#f79229"/></svg>