<svg id="レイヤー_1" xmlns="http://www.w3.org/2000/svg" viewBox="0 0 128 128"><g><path fill="#fcc21b" d="M9.601 114.262l54.398-94.231 54.41 94.231z"/><g><g><path d="M127.071 115.928l-60.18-104.23a3.347 3.347 0 0 0-2.893-1.668 3.33 3.33 0 0 0-2.883 1.668L.935 115.928a3.334 3.334 0 0 0 2.892 5h120.355a3.34 3.34 0 0 0 2.889-1.664 3.365 3.365 0 0 0 0-3.336zm-117.47-1.666l54.398-94.23 54.41 94.23H9.601z" fill="#2f2f2f"/></g><path d="M59.12 83.207h9.758c.357 0 .652-.234.67-.533l2.664-38.266a.514.514 0 0 0-.182-.418.74.74 0 0 0-.486-.18h-15.08a.752.752 0 0 0-.494.18.532.532 0 0 0-.184.418l2.666 38.266c.018.299.313.533.668.533z" fill="#2f2f2f"/><path d="M56.108 103.318c0-1.41.197-2.6.607-3.572.398-.982.963-1.768 1.684-2.365a6.655 6.655 0 0 1 2.543-1.307 11.64 11.64 0 0 1 3.125-.406c1.053 0 2.049.137 2.998.406a6.635 6.635 0 0 1 2.49 1.307c.721.598 1.293 1.383 1.711 2.365.424.973.633 2.162.633 3.572 0 1.35-.209 2.506-.633 3.463-.418.965-.99 1.758-1.711 2.389a6.626 6.626 0 0 1-2.49 1.373 10.42 10.42 0 0 1-2.998.428c-1.111 0-2.152-.145-3.125-.428a6.644 6.644 0 0 1-2.543-1.373c-.721-.631-1.285-1.424-1.684-2.389-.409-.957-.607-2.113-.607-3.463z" fill="#2f2f2f"/></g></g></svg>