<svg id="Layer_1" xmlns="http://www.w3.org/2000/svg" viewBox="0 0 128 128"><g><g><g><path d="M128 76.579v21.63c0 .616-.296 1.197-.798 1.566l-17.515 12.881a5.967 5.967 0 0 1-6.38.425L10.671 67.87a4.253 4.253 0 0 1-1.413-1.246l-8.044-11.01A5.8 5.8 0 0 1 0 52.068V24.765l25.723-8.843L128 76.579z" fill="#68452d"/></g><path d="M2.317 21.502l20.796-6.889a8.317 8.317 0 0 1 5.055-.055l25.311 7.77c.814.25 1.581.63 2.27 1.124l70.939 50.924a3.111 3.111 0 0 1-.061 5.118L109.87 90.945a5.614 5.614 0 0 1-5.692.369L10.853 44.041a6.61 6.61 0 0 1-2.913-2.903L.357 26.16c-.918-1.816.005-4.01 1.96-4.658z" fill="#714942"/></g><g><path d="M10 21.327L0 24.765v27.302c0 1.281.676 2.527 1.464 3.547l7.919 11.01c.21.293.617.547.617.776V21.327z" fill="#68452d"/></g><g><path d="M106 88.765v25.027c2 .035 2.853-.34 3.937-1.137l17.39-12.881c.502-.369.673-.95.673-1.566V78.392l-22 10.373z" fill="#68452d"/></g><g><path d="M2.317 21.502l20.796-6.889a8.317 8.317 0 0 1 5.055-.055l25.311 7.77c.814.25 1.581.63 2.27 1.124l70.939 50.924a3.111 3.111 0 0 1-.061 5.118L109.87 90.945a5.614 5.614 0 0 1-5.692.369L10.853 44.041a6.61 6.61 0 0 1-2.913-2.903L.357 26.16c-.918-1.816.005-4.01 1.96-4.658z" fill="#885a38"/><path d="M14.352 38.329l-6.03-11.868 17.382-5.757a1.667 1.667 0 0 1 1.013-.012l25.31 7.771c.131.04.253.1.364.18l67.152 48.206-12.409 8.478-92.782-46.998z" fill="#b99276"/><g><path d="M27.048 31.543s-.741 2.478-2.715 3.444-4.434.056-4.434.056.741-2.478 2.715-3.444c1.974-.967 4.434-.056 4.434-.056z" fill="#757f3f"/><path d="M35.238 31.803s-.385 2.555-2.203 3.78-4.383.658-4.383.658.385-2.555 2.203-3.78c1.819-1.226 4.383-.658 4.383-.658z" fill="#757f3f"/><path d="M31.103 30.812s-2.447.287-4.022-1.028c-1.576-1.315-1.684-3.733-1.684-3.733s2.447-.287 4.022 1.028c1.576 1.314 1.684 3.733 1.684 3.733z" fill="#757f3f"/><path d="M41.455 35.791s-1.222 1.855-3.081 2.176-3.651-1.015-3.651-1.015 1.222-1.855 3.081-2.176 3.651 1.015 3.651 1.015z" fill="#757f3f"/><path d="M40.061 33.671s-2.049-.911-2.648-2.669c-.599-1.758.479-3.697.479-3.697s2.049.911 2.648 2.669-.479 3.697-.479 3.697z" fill="#757f3f"/><path d="M25.772 31.842s11.679-4.733 19.548 8.306" fill="none" stroke="#757f3f" stroke-linecap="round" stroke-miterlimit="10"/><path d="M31.097 30.505s-1.345-.455-1.827-1.526.079-2.355.079-2.355 1.345.455 1.827 1.526-.079 2.355-.079 2.355z" fill="#fff"/><path d="M38.154 32.527s-1.777-.364-2.562-1.645c-.786-1.281-.283-2.994-.283-2.994s1.777.364 2.562 1.645c.785 1.281.283 2.994.283 2.994z" fill="#fff"/><path d="M40.244 35.134s-1.042.951-2.232.864c-1.19-.087-2.077-1.179-2.077-1.179s1.042-.951 2.232-.864 2.077 1.179 2.077 1.179z" fill="#fff"/><path d="M33.064 31.706s-.263 1.933-1.623 2.877c-1.36.944-3.303.542-3.303.542s.263-1.933 1.623-2.877c1.36-.944 3.303-.542 3.303-.542z" fill="#fff"/><path d="M25.722 31.252s-1.109 1.238-2.517 1.274-2.582-1.143-2.582-1.143 1.109-1.238 2.517-1.274 2.582 1.143 2.582 1.143z" fill="#fff"/></g></g></g></svg>