<svg id="Layer_1" xmlns="http://www.w3.org/2000/svg" viewBox="0 0 128 128"><g><path d="M64.092 127.969c-7.855 0-16.263.967-20.511-7.879-12.452-25.929-27.025-80.233-13.922-91.906 4.969-4.426 9.627-8.4 8.471-16.601h51.924c-1.156 8.202 3.623 12.041 8.471 16.601 12.409 11.673-.776 65.976-13.922 91.906-4.437 8.751-12.655 7.879-20.511 7.879" fill="#63878f"/><g><path d="M64.273 2.098c-12.475 0-27.73 4.119-28.198 5.245-.406.978 0 4.547 0 4.547 0 2.149 12.645 4.11 27.976 4.11h.172c15.331 0 27.976-1.962 27.976-4.11 0 0 .406-3.416 0-4.394C91.73 6.37 76.475 2.175 64 2.175" fill="#63878f"/><path d="M64.092 9.9c-13.486 0-25.375-1.3-24.419-2.558C42.307 3.876 55.779 0 64.092 0c8.314 0 21.785 3.876 24.419 7.342C89.467 8.6 77.578 9.9 64.092 9.9z" fill="#37474f"/><path d="M64.05 19.471h.172c7.342 0 14.421-.702 19.909-1.557 2.577-.402 4.49-.944 5.831-1.392-.01-.335-.074-2.857-.061-3.209-4.317 1.556-14.294 2.421-25.723 2.421h-.172c-11.503 0-21.45-.948-25.722-2.517.014.341.007 2.978 0 3.304 1.347.478 3.221 1.136 5.854 1.547 5.489.855 12.57 1.403 19.912 1.403z" fill="#455a64"/><g fill="#37474f"><path d="M86.756 115.588a148.304 148.304 0 0 0 1.733-3.98c-7.582.67-15.844 1.024-24.39 1.024-8.492 0-16.705-.349-24.248-1.011a172.768 172.768 0 0 0 1.677 3.975c8.171.646 16.201.904 22.571.904 6.391 0 14.456-.261 22.657-.912z"/><path d="M64.098 53.631c-14.661 0-28.484-1.042-39.463-2.935.071 1.29.173 2.613.301 3.963C37.844 56.762 53.338 57.5 64.098 57.5c10.72 0 26.14-.733 39.018-2.818.117-1.347.209-2.668.272-3.957-10.951 1.875-24.706 2.906-39.29 2.906z"/><path d="M64.098 105.631c-9.556 0-18.758-.442-27.05-1.274.495 1.356.996 2.685 1.499 3.984a293.697 293.697 0 0 0 25.551 1.158c7.187 0 16.489-.331 25.722-1.175a192.797 192.797 0 0 0 1.519-3.989c-8.342.846-17.61 1.296-27.241 1.296z"/><path d="M24.812 40.346C37.5 42.692 53.292 43.5 64.094 43.5c10.745 0 26.429-.8 39.082-3.117a37.681 37.681 0 0 0-.598-3.812c-10.62 1.974-24.136 3.061-38.484 3.061-14.432 0-28.022-1.099-38.669-3.096a35.634 35.634 0 0 0-.613 3.81z"/><path d="M103.429 43.719c-10.958 1.879-24.729 2.913-39.33 2.913-14.693 0-28.545-1.046-39.536-2.948a65.243 65.243 0 0 0-.041 3.906c12.989 2.155 28.7 2.91 39.576 2.91 10.822 0 26.434-.748 39.386-2.879.017-1.344 0-2.648-.055-3.902z"/></g></g></g></svg>