<svg id="レイヤー_1" xmlns="http://www.w3.org/2000/svg" viewBox="0 0 128 128"><g><g><g><path d="M124.137 63.997c0 33.212-26.926 60.136-60.142 60.136-33.215 0-60.13-26.924-60.13-60.136 0-33.209 26.915-60.128 60.13-60.128 33.216 0 60.142 26.919 60.142 60.128z" fill="#fff"/></g></g><g><g fill="#2f2f2f"><g><g><path d="M88.679 63.26c-2.325-.325-4.397 1.532-6.218 2.698-3.931 2.507-7.403 5.415-10.745 8.696-2.072 2.03-4.873 4.732-5.61 7.651-.336 1.352.084 2.903.354 4.225.467 2.3 1.194 4.54 1.914 6.772a79.971 79.971 0 0 0 2.819 7.384c.531 1.214 1.11 2.409 1.68 3.614.532 1.12.878 1.783 2.185 1.949 1.456.188 2.922-.026 4.369-.087a49.402 49.402 0 0 0 6.386-.65c2.792-.466 5.601-.979 8.271-1.932 2.469-.886 5.302-2.269 6.73-4.538 3.07-4.881 4.934-10.418 5.946-16.069.299-1.634.589-3.29.579-4.962.01-1.466.14-2.977-.915-4.108-1.904-2.044-4.154-3.729-6.479-5.256-3.463-2.258-7.075-4.79-11.266-5.387z"/><path d="M20.828 39.684c-2.165 1.149-3.874 3.893-5.144 5.901-2.539 3.999-4.592 8.62-5.546 13.273-.726 3.558.86 7.029 2.055 10.32 1.157 3.174 3.184 5.682 5.387 8.169.56.639 1.269 1.125 1.829 1.755.636.709 1.447 1.383 2.287 1.849.599.337 1.139-.116 1.746-.261 1.614-.389 2.81-1.21 4.267-1.979 1.307-.696 2.66-1.289 3.976-1.989 2.829-1.516 6.2-2.768 8.673-4.863.318-.271.738-.61.832-1.037.232-1.072-.094-2.463-.141-3.551a148.805 148.805 0 0 1-.093-4.579c-.01-3.459.12-6.918.12-10.381.028-1.928.271-3.847.179-5.778-.159-2.871-3.259-3.895-5.593-4.473-3.268-.812-6.563-1.923-9.896-2.325-1.362-.163-3.65-.731-4.938-.051z"/><path d="M105.725 31.049c.308-2.171-1.139-4.78-2.194-6.717-2.081-3.866-5.064-7.673-8.784-10.69-2.837-2.314-7.021-3.248-10.913-3.644-6.974-.713-12.294-.284-13.76-.055-1.476.227-2.866.685-3.66 1.656-1.56 1.903-1.829 4.621-2.156 6.964-.477 3.343-.896 6.778-.457 10.143.074.598.158 1.388.448 1.915.55.976 1.707 1.47 2.856 1.984 5.965 2.632 17.326 9.139 19.184 10.024 2.764 1.326 5.695-.442 7.744-1.866 2.833-1.989 5.979-3.861 8.481-6.11 1.026-.924 3.014-2.32 3.211-3.604z"/><path d="M20.109 105.442c.242.369.467.649.84.934.589.448 1.149.906 1.709 1.4 4.892 4.29 10.624 7.516 16.299 10.62 1.709.942 3.343 1.898 5.079 2.771 1.877.935 3.818 1.564 5.844 2.12 1.372.376 2.764.755 4.183.895 1.315.127 2.67.44 3.996.458a13.68 13.68 0 0 0 2.203-.125c-.364-.584-.682-1.321-.99-1.942-.485-.972-.99-1.945-1.493-2.912-.579-1.112-1.027-2.27-1.615-3.365-.458-.845-1.064-1.709-1.887-2.199-1.11-.662-2.175-1.308-3.379-1.798-4.415-1.801-8.383-4.341-12.49-6.722a74.833 74.833 0 0 1-6.078-3.911c-1.046-.751-2.071-1.529-3.183-2.197-.233-.146-.458-.328-.728-.374a3.511 3.511 0 0 0-.851-.004c-.224.032-.476.066-.691.111-1.438.298-3.005.676-4.489 1.009-1.42.317-3.006.433-4.369.947-.531.201-.467.503-.262.96.317.716.794 1.379 1.279 1.984.327.425.738.833 1.073 1.34z"/></g><path d="M37.408 48.324c-.401 0-.794-.132-1.13-.396a1.796 1.796 0 0 1-.271-2.516c.485-.602 12.033-14.737 32.665-17.942a1.795 1.795 0 0 1 2.045 1.491 1.797 1.797 0 0 1-1.495 2.051C50.01 33.993 38.91 47.521 38.798 47.653a1.786 1.786 0 0 1-1.39.671z"/><path d="M33.151 111.096a1.775 1.775 0 0 1-1.391-.663c-.486-.598-11.856-14.88-10.633-35.717a1.785 1.785 0 0 1 1.895-1.691c.99.062 1.736.906 1.68 1.897-1.139 19.472 9.728 33.117 9.84 33.25a1.795 1.795 0 0 1-1.391 2.924z"/><path d="M46.669 118.138a1.797 1.797 0 0 1-1.783-1.636 1.805 1.805 0 0 1 1.643-1.943c.169-.009 17.588-1.651 30.808-15.908a1.809 1.809 0 0 1 2.539-.094c.729.674.766 1.812.094 2.54-14.199 15.302-32.376 16.972-33.142 17.037-.057 0-.103.004-.159.004z"/><path d="M21.762 46.167a1.79 1.79 0 0 1-1.754-1.446c-.103-.495-2.363-12.351 2.51-26.393a1.784 1.784 0 0 1 2.278-1.109 1.8 1.8 0 0 1 1.111 2.278c-4.557 13.138-2.409 24.412-2.381 24.527a1.793 1.793 0 0 1-1.419 2.106 1.441 1.441 0 0 1-.345.037z"/><path d="M73.872 16.762c-.373 0-.747-.118-1.064-.356-.093-.063-9.42-6.833-23.189-8.336a1.785 1.785 0 0 1-1.588-1.969 1.787 1.787 0 0 1 1.971-1.589c14.777 1.606 24.523 8.71 24.935 9.01a1.8 1.8 0 0 1 .373 2.512 1.773 1.773 0 0 1-1.438.728z"/><path d="M119.13 45.935a1.808 1.808 0 0 1-1.4-.672c-8.737-10.812-19.436-14.956-19.538-15.002a1.785 1.785 0 0 1-1.046-2.306 1.8 1.8 0 0 1 2.314-1.046c.478.182 11.716 4.535 21.062 16.102a1.782 1.782 0 0 1-.271 2.521 1.753 1.753 0 0 1-1.121.403z"/><path d="M87.482 70.17c-.074 0-.158-.012-.232-.021a1.792 1.792 0 0 1-1.54-2.015c2.287-17.142.037-29.801.012-29.93a1.787 1.787 0 0 1 1.436-2.083 1.79 1.79 0 0 1 2.09 1.438c.095.543 2.382 13.351.01 31.05a1.793 1.793 0 0 1-1.776 1.561z"/><path d="M71.921 84.807c-.056 0-.102-.005-.159-.009-22.283-1.97-36.939-14.536-37.556-15.072a1.794 1.794 0 0 1-.178-2.525 1.79 1.79 0 0 1 2.53-.177c.14.12 14.442 12.341 35.522 14.203.98.088 1.708.956 1.624 1.947a1.798 1.798 0 0 1-1.783 1.633z"/></g><path d="M7.927 64.256c-1.513 0-3.155-.192-4.695-.781a1.786 1.786 0 0 1-1.046-2.306 1.805 1.805 0 0 1 2.316-1.046c3.305 1.263 7.712-.026 7.758-.037a1.785 1.785 0 0 1 2.221 1.205c.29.943-.251 1.94-1.193 2.231-.151.038-2.505.734-5.361.734z"/><path d="M105.668 79.556c-.682 0-1.32-.388-1.623-1.042a1.795 1.795 0 0 1 .867-2.38c.103-.046 10.521-4.976 18.447-16.337a1.779 1.779 0 0 1 2.493-.448c.812.57 1.007 1.68.447 2.494-8.505 12.194-19.417 17.334-19.885 17.549a1.743 1.743 0 0 1-.746.164z"/><path d="M105.668 109.826c-.4 0-.802-.131-1.139-.394-4.104-3.229-8.069-9.097-8.242-9.345a1.845 1.845 0 0 1 .504-2.549 1.829 1.829 0 0 1 2.539.506c.037.055 3.817 5.634 7.468 8.504a1.834 1.834 0 1 1-1.13 3.278z"/></g><g><g><path d="M63.995 127.717C28.857 127.717.28 99.137.28 63.997.28 28.869 28.857.283 63.995.283c35.139 0 63.725 28.586 63.725 63.714 0 35.14-28.586 63.72-63.725 63.72zm0-120.264c-31.18 0-56.543 25.365-56.543 56.544 0 31.182 25.363 56.55 56.543 56.55s56.554-25.368 56.554-56.55c0-31.179-25.374-56.544-56.554-56.544z" fill="#2f2f2f"/></g></g></g></g></svg>