<svg id="图层_1" xmlns="http://www.w3.org/2000/svg" viewBox="0 0 128 128"><g><g fill="#ffb74d"><path d="M81.666 74.592a24.31 24.31 0 0 0 2.232-.116c.258-.025.508-.073.768-.108.477-.063.955-.127 1.424-.215.303-.058.586-.137.879-.21.426-.103.85-.2 1.266-.322.297-.093.59-.2.883-.297.396-.138.791-.273 1.172-.431.293-.116.586-.254.869-.381.371-.171.742-.341 1.104-.527.283-.146.557-.302.84-.468.346-.196.693-.4 1.035-.616.27-.175.525-.361.791-.541.32-.229.65-.465.967-.713.244-.2.498-.406.74-.61.305-.258.603-.528.891-.802.234-.224.463-.443.689-.672.281-.289.551-.586.812-.89.205-.239.42-.479.621-.732.25-.312.498-.64.736-.967.186-.263.373-.517.547-.781.225-.341.439-.702.645-1.06.168-.268.328-.536.475-.814.205-.371.381-.762.561-1.152.133-.278.27-.552.381-.84.176-.409.322-.84.475-1.269.102-.273.199-.543.287-.82a23.6 23.6 0 0 0 .381-1.476c.059-.234.127-.469.176-.713.152-.746.273-1.503.352-2.274 1.289-12.724-7.967-24.089-20.689-25.387a24.225 24.225 0 0 0-2.379-.118c-.758 0-1.51.039-2.25.112-.25.025-.498.073-.752.103-.479.068-.967.127-1.445.225-.293.059-.576.137-.869.205-.42.098-.85.195-1.26.322-.309.088-.605.205-.898.303-.391.137-.781.264-1.172.42-.293.126-.58.264-.879.391-.361.166-.732.332-1.084.518-.293.156-.576.317-.854.477-.348.196-.684.396-1.01.605-.285.181-.547.372-.822.558-.316.224-.635.459-.936.693-.266.204-.52.42-.768.634-.297.254-.592.508-.869.776-.248.229-.479.459-.707.698-.273.278-.537.566-.791.859a22.35 22.35 0 0 0-.645.752c-.254.312-.482.624-.713.947a16.636 16.636 0 0 0-1.201 1.835c-.166.279-.332.558-.488.84-.186.372-.363.743-.543 1.124-.131.293-.277.575-.4.868-.166.4-.307.82-.453 1.23-.098.283-.215.566-.293.858-.152.47-.264.958-.375 1.445-.055.245-.133.489-.191.743a24.646 24.646 0 0 0-.342 2.274c-1.299 12.719 7.967 24.09 20.691 25.378.798.09 1.599.129 2.388.129z"/><path d="M79.432 23.69l9.92 1.011c.049.004.094.004.137.004.127 0 .234-.043.357-.077.068-.016.135-.011.195-.039a1.43 1.43 0 0 0 .521-.371c.303-.361.416-.82.303-1.27L87.262 9.005a1.376 1.376 0 0 0-1.209-1.045c-.051-.009-.1-.009-.1-.009-.215 0-.355.076-.508.126-.086.029-.176.029-.248.073a1.376 1.376 0 0 0-.562.581l-6.326 12.938a1.41 1.41 0 0 0 .049 1.309c.214.4.624.664 1.074.712z"/><path d="M105.994 37.995c.23.293.578.469.949.508.043.01.092.01.141.01h.068a1.436 1.436 0 0 0 1.143-.693l7.322-12.395a1.423 1.423 0 0 0-.125-1.606 1.35 1.35 0 0 0-.83-.459c-.09-.019-.172-.06-.26-.06-.152 0-.307.025-.465.079l-13.619 4.677a1.378 1.378 0 0 0-.891.938c-.121.449-.029.927.264 1.279l6.303 7.722z"/><path d="M124.318 54.448l-12.947-6.327a1.334 1.334 0 0 0-.615-.142l-.02.004c-.223 0-.455.059-.66.177a1.404 1.404 0 0 0-.717 1.083l-1.006 9.921a1.396 1.396 0 0 0 1.26 1.543l.092.01c.162 0 .279-.02.4-.049l13.943-3.594a1.415 1.415 0 0 0 1.051-1.221 1.413 1.413 0 0 0-.781-1.405z"/><path d="M63.555 72.596l-6.309-7.729a1.335 1.335 0 0 0-.512-.39c-.064-.03-.133-.03-.201-.05-.127-.034-.248-.088-.381-.088l-.098.011a1.399 1.399 0 0 0-1.104.688l-7.322 12.405c-.185.302-.195.64-.137.967-.074.409-.039.84.244 1.172.264.336.674.517 1.094.517.156 0 .307-.02.465-.077l13.713-4.771c.439-.151.775-.513.898-.957.088-.298.035-.601-.074-.878-.013-.299-.083-.592-.276-.82z"/><path d="M58.242 32.731a1.41 1.41 0 0 0 1.191.938c.059 0 .107.01.156.01.088 0 .17-.029.254-.049.059-.009.113-.009.166-.028.166-.05.312-.127.455-.239l7.727-6.304a1.414 1.414 0 0 0-.176-2.304l-12.41-7.318a1.355 1.355 0 0 0-.707-.196l-.074.016c-.039 0-.059.009-.098.009a1.383 1.383 0 0 0-.717.293 1.39 1.39 0 0 0-.445 1.548l4.678 13.624z"/><path d="M105.414 70.354a1.406 1.406 0 0 0-.957-.897h-.01c-.127-.083-.244-.176-.391-.225a1.659 1.659 0 0 0-.381-.049c-.068 0-.137.024-.191.029l-.16.028c-.195.05-.381.127-.543.254l-7.727 6.309a1.448 1.448 0 0 0-.518 1.191c.039.459.293.879.691 1.109l.057.034c.098.107.18.225.307.293l12.541 7.333c.221.127.471.194.713.194h.02c.865.06 1.451-.625 1.451-1.42 0-.299-.09-.572-.24-.796l-4.662-13.387z"/><path d="M84.928 80.002c-.014-.039-.008-.079-.027-.118a1.405 1.405 0 0 0-1.094-.713l-9.922-1.015h-.141c-.117 0-.23.039-.348.073-.068.015-.137.015-.205.043a1.401 1.401 0 0 0-.51.372 1.374 1.374 0 0 0-.301 1.269l3.594 13.943c.039.157.156.255.24.386l.043.152c.146.575.645.995 1.23 1.054.049 0 .088.006.141.006.537 0 1.031-.308 1.275-.801l6.316-13.07a1.407 1.407 0 0 0-.039-1.308c-.067-.112-.164-.185-.252-.273z"/><path d="M52.398 55.194c.24 0 .479-.062.688-.181.412-.225.686-.639.725-1.103l.02-.127c.008-.059.047-.108.047-.171l1.016-9.916a1.403 1.403 0 0 0-.482-1.21 1.433 1.433 0 0 0-.537-.273c-.059-.021-.113-.021-.17-.03-.074-.01-.139-.038-.217-.038-.115 0-.234.015-.346.043l-13.947 3.599c-.373.088-.627.352-.812.663-.254.235-.428.519-.473.87-.055.59.264 1.152.797 1.415l13.074 6.318c.201.098.408.141.617.141z"/></g><g><path d="M110.182 67.883h-.011c.001-.071.011-.139.011-.21 0-9.61-7.79-17.4-17.4-17.4-1.237 0-2.442.134-3.605.379-3.447-8.391-11.691-14.304-21.324-14.304-7.233 0-13.682 3.337-17.909 8.549a19.947 19.947 0 0 0-9.054-2.177c-10.41 0-18.965 7.932-19.958 18.081C9.598 61.4.514 70.68.365 82.192.21 94.19 9.81 104.043 21.808 104.198a21.72 21.72 0 0 0 2.749-.157c4.634 9.775 14.588 16.537 26.125 16.537 6.96 0 13.344-2.461 18.332-6.559 3.814 2.824 8.518 4.515 13.628 4.515 10.483 0 19.305-7.035 22.051-16.636a17.4 17.4 0 0 0 5.49.894c9.64 0 17.454-7.815 17.454-17.454 0-9.64-7.815-17.455-17.455-17.455z" fill="#e3ebee"/><path d="M120.439 71.214c3.953 3.991 1.16 13.152-1.564 16.138-5.349 5.863-15.176 4.495-19.117 3.647-1.066-.229-1.238-.151-1.585.061-.311.191-.456.491-.79 1.211-1.272 2.736-4.547 8.039-11.466 10.176-7.211 2.227-14.009-1.163-17.198-3.191-1.206-.767-1.259-.785-1.804-.779-.553.005-1.102.412-1.754.926-2.873 2.263-9.45 6.255-19.579 5.675-9.934-.569-15.618-6.695-17.561-9.84-.373-.604-.778-1.11-1.233-1.157-.53-.055-1.122.495-1.571.932-4.23 4.117-17.522 5.351-21.936-1.658 4.483 7.194 11.415 10.753 18.527 10.845a21.72 21.72 0 0 0 2.749-.157c4.634 9.775 14.588 16.537 26.125 16.537 6.96 0 13.344-2.461 18.332-6.559 3.814 2.824 8.518 4.515 13.628 4.515 10.483 0 19.305-7.035 22.051-16.636a17.4 17.4 0 0 0 5.49.894c9.64 0 17.454-7.815 17.454-17.454 0-5.138-2.58-10.929-7.198-14.126z" fill="#b9cdd2"/></g></g></svg>