<svg id="图层_1" xmlns="http://www.w3.org/2000/svg" viewBox="0 0 128 128"><g><path d="M32.348 73.178a1.416 1.416 0 0 0-.658-.103c-1.291.091-8.046 6.111-9.817 10.462a5.807 5.807 0 0 0 3.191 7.559 5.808 5.808 0 0 0 7.56-3.188c1.34-3.292 1.702-13.925-.276-14.73" fill="#95c8ec"/><path d="M48.486 108.972a1.426 1.426 0 0 0-.655-.1c-1.292.087-8.05 6.108-9.82 10.461-1.204 2.96.226 6.353 3.191 7.561 2.965 1.203 6.358-.226 7.562-3.189 1.338-3.294 1.704-13.925-.278-14.733" fill="#95c8ec"/><path d="M102.83 69.751a1.448 1.448 0 0 0-.651-.106c-1.291.092-8.052 6.115-9.823 10.467-1.204 2.961.229 6.354 3.188 7.56 2.968 1.203 6.36-.226 7.563-3.189 1.338-3.294 1.704-13.925-.277-14.732" fill="#95c8ec"/><path d="M86.033 94.42a1.412 1.412 0 0 0-.656-.102c-1.289.092-8.049 6.112-9.817 10.459a5.814 5.814 0 0 0 3.189 7.561 5.808 5.808 0 0 0 7.562-3.189c1.338-3.288 1.702-13.922-.278-14.729" fill="#95c8ec"/><g fill="#70b2e2"><path d="M32.348 73.178a1.416 1.416 0 0 0-.658-.103c-1.291.091-8.046 6.111-9.817 10.462a5.807 5.807 0 0 0 3.191 7.559 5.808 5.808 0 0 0 7.56-3.188c1.34-3.292 1.702-13.925-.276-14.73"/><path d="M48.486 108.972a1.426 1.426 0 0 0-.655-.1c-1.292.087-8.05 6.108-9.82 10.461-1.204 2.96.226 6.353 3.191 7.561 2.965 1.203 6.358-.226 7.562-3.189 1.338-3.294 1.704-13.925-.278-14.733"/><path d="M102.83 69.751a1.448 1.448 0 0 0-.651-.106c-1.291.092-8.052 6.115-9.823 10.467-1.204 2.961.229 6.354 3.188 7.56 2.968 1.203 6.36-.226 7.563-3.189 1.338-3.294 1.704-13.925-.277-14.732"/><path d="M86.033 94.42a1.412 1.412 0 0 0-.656-.102c-1.289.092-8.049 6.112-9.817 10.459a5.814 5.814 0 0 0 3.189 7.561 5.808 5.808 0 0 0 7.562-3.189c1.338-3.288 1.702-13.922-.278-14.729"/></g><g><path d="M62.052 62.125S44.813 85.844 47.509 87.382c1.835 1.047 14.488.887 16.111 1.912 1.622 1.025-7.53 15.987-7.415 16.587.142.743 1.225 2.111 7.521-2.637 9.737-7.354 15.903-15.895 15.903-15.895s5.735-4.916-12.613-6.765c-1.699-1.679 14.26-16.019 14.26-16.019l-19.224-2.44z" fill="#f8b618"/><path d="M62.052 62.125S44.813 85.844 47.509 87.382c1.835 1.047 14.488.887 16.111 1.912 1.622 1.025-7.53 15.987-7.415 16.587.142.743 1.225 2.111 7.521-2.637 9.737-7.354 15.903-15.895 15.903-15.895s5.735-4.916-12.613-6.765c-1.699-1.679 14.26-16.019 14.26-16.019l-19.224-2.44z" fill="#ffcb28"/><path d="M103.502 27.652h-.009c.001-.06.009-.119.009-.179 0-8.22-6.664-14.883-14.883-14.883-1.058 0-2.088.114-3.084.324C82.586 5.737 75.535.68 67.296.68c-6.187 0-11.703 2.854-15.318 7.313a17.05 17.05 0 0 0-7.744-1.862c-8.904 0-16.221 6.785-17.071 15.466-9.695.51-17.465 8.448-17.592 18.295-.133 10.262 8.079 18.689 18.341 18.822.797.01 1.579-.047 2.351-.134 3.964 8.361 12.478 14.145 22.346 14.145a24.617 24.617 0 0 0 15.68-5.61c3.262 2.416 7.286 3.862 11.657 3.862 8.966 0 16.512-6.017 18.861-14.229 1.478.49 3.053.765 4.696.765 8.245 0 14.93-6.684 14.93-14.93-.002-8.247-6.686-14.931-14.931-14.931z" fill="#e3ebee"/><path d="M112.275 30.501c3.381 3.414.993 11.249-1.338 13.804-4.575 5.015-12.98 3.845-16.352 3.12-.912-.196-1.059-.129-1.355.052-.266.163-.39.42-.676 1.035-1.088 2.34-3.889 6.876-9.808 8.704-6.167 1.905-11.983-.995-14.71-2.729-1.031-.656-1.077-.671-1.543-.667-.473.004-.942.353-1.5.792-2.457 1.936-8.083 5.35-16.747 4.854-8.497-.487-13.359-5.726-15.021-8.416-.319-.516-.665-.95-1.055-.99-.453-.047-.96.423-1.344.797-3.618 3.521-14.987 4.577-18.763-1.419 3.834 6.153 9.764 9.198 15.847 9.276.797.01 1.579-.047 2.351-.134 3.964 8.361 12.478 14.145 22.346 14.145a24.617 24.617 0 0 0 15.68-5.61c3.262 2.416 7.286 3.862 11.657 3.862 8.966 0 16.512-6.017 18.861-14.229 1.478.49 3.053.765 4.696.765 8.245 0 14.93-6.684 14.93-14.93 0-4.394-2.206-9.347-6.156-12.082z" fill="#b9cdd2"/></g></g></svg>