<svg id="图层_1" xmlns="http://www.w3.org/2000/svg" viewBox="0 0 128 128"><path d="M115.121 36.676l-12.413 12.899a7.02 7.02 0 0 1 2.168 5.096c0 3.897-3.205 7.157-7.107 7.157-1.661 0-3.071-.006-4.996-.555V11.391H74.871v45.08l-21.923-5.669V11.391H35.046v35.038c-2.434-.279-4.325-.21-5.408-.112-13.511.299-24.409 11.385-24.409 24.97 0 6.852 2.724 13.24 7.666 17.994l12.408-12.903a7.004 7.004 0 0 1-2.173-5.091c0-3.897 3.171-7.067 7.067-7.067 0 0 3.016-.143 4.849.41v27.445c0 15.915 12.948 28.863 28.863 28.863s28.863-12.948 28.863-28.863V79.492c1.306.158 2.495.241 3.455.241.887 0 1.608-.046 2.141-.102 13.505-.299 24.404-11.375 24.404-24.96.001-6.852-2.709-13.244-7.651-17.995zm-51.212 66.346c-6.037 0-10.961-4.911-10.961-10.948V69.296l21.923 5.663v17.115c0 6.037-4.925 10.948-10.962 10.948z" fill="#fcc21b"/></svg>