<svg id="Layer_1" xmlns="http://www.w3.org/2000/svg" viewBox="0 0 128 128"><g id="XMLID_535_"><g id="XMLID_579_" fill="#855c52"><path id="XMLID_584_" d="M115.46 101.094c-4.756-4.935-23.191-22.687-28.277-27.33-3.567-3.256-10.24-8.004-13.617-10.352a29.564 29.564 0 0 1-3.948-3.288l-27.2-27.029-9.019 9.019 27.029 27.2a29.64 29.64 0 0 1 3.288 3.948c2.349 3.377 7.096 10.05 10.352 13.617 4.644 5.086 22.395 23.521 27.33 28.277.382.368 1.608 1.522 2.858 2.696 1.785 1.675 4.523 1.684 6.189.018l7.727-7.727c1.666-1.666 1.657-4.404-.018-6.189a460.678 460.678 0 0 0-2.694-2.86z"/><path id="XMLID_581_" d="M38.756 29.377l-4.193-4.167a6.397 6.397 0 1 0-9.047 9.047l4.167 4.193a6.398 6.398 0 0 0 9.062.014l.026-.026a6.398 6.398 0 0 0-.015-9.061z"/></g></g><path id="XMLID_597_" d="M9.365 75.834l-.02-.284c-.003-.208-.016-.522-.011-.928-.005-.769.019-1.885.124-3.286.052-.698.137-1.466.228-2.307.099-.835.247-1.728.394-2.691.165-.954.379-1.961.597-3.03.244-1.058.532-2.162.833-3.321.333-1.145.69-2.339 1.098-3.564.435-1.212.881-2.474 1.393-3.751.539-1.264 1.085-2.574 1.708-3.884.647-1.299 1.306-2.632 2.038-3.959.763-1.311 1.536-2.65 2.377-3.974.884-1.299 1.766-2.626 2.721-3.923.999-1.268 1.995-2.558 3.054-3.809.554-.608 1.103-1.224 1.669-1.825l.846-.906.424-.452.212-.226.106-.113.053-.057.027-.028.229-.225c1.079-1.003 2.152-2.012 3.243-2.993.599-.523 1.313-1.092 1.971-1.621.672-.536 1.336-1.077 2.012-1.596 1.326-.979 2.631-1.844 3.937-2.733 1.324-.842 2.663-1.614 3.974-2.378 1.327-.732 2.66-1.391 3.959-2.039 1.31-.623 2.619-1.169 3.884-1.708 1.277-.513 2.538-.959 3.751-1.394a96.308 96.308 0 0 1 3.564-1.098c1.159-.301 2.264-.59 3.321-.834 1.07-.218 2.076-.432 3.03-.597.963-.147 1.857-.295 2.691-.394a72.422 72.422 0 0 1 2.307-.229 41.005 41.005 0 0 1 3.286-.124l1.243.024c2.017.038 8.489 1.026 7.695 2.881-.19.443-4.668 2.975-5.489 3.629l-.504.398-.178.14c-.142.1-.349.256-.622.439-.28.197-.624.437-1.03.704-.406.287-.875.601-1.398.947l-3.746 2.536-4.753 3.27c-.848.622-1.742 1.232-2.654 1.876l-2.789 2.017c-.933.717-1.907 1.419-2.883 2.15-.952.765-1.952 1.5-2.938 2.275l-2.953 2.393-2.92 2.486c-.887.829-1.75 1.591-2.705 2.435-1.044 1.031-2.115 2.043-3.18 3.06.397-.385.098-.094.181-.174l-.021.022-.042.044-.083.088-.167.176-.334.351-.669.701c-.443.47-.902.924-1.354 1.384-.862.966-1.723 1.934-2.597 2.879l-2.499 2.934-2.393 2.953c-.775.986-1.51 1.985-2.276 2.938-.732.976-1.433 1.95-2.151 2.883l-2.017 2.789c-.644.912-1.254 1.807-1.876 2.654l-3.27 4.753-2.536 3.746c-.346.523-.66.992-.947 1.398-.268.405-.508.75-.704 1.03-.179.259-.333.456-.431.591l-.156.239-.011.017c-1.129 1.733-3.442 6.559-5.175 5.431-1.015-.659-1.611-6.085-1.698-7.206z" fill="#78a3ad"/><g id="XMLID_598_" fill="#00838f"><path id="XMLID_600_" d="M41.84 42.547l.169-.161.012-.013c-.082.08.217-.211-.181.174z"/><path id="XMLID_603_" d="M40.489 41.195l.169-.161.012-.013c-.083.08.216-.21-.181.174z"/></g><path id="XMLID_4_" d="M15 56.167s-2.083 5.542-2.458 9.542c-.397 4.231-.708 10.042.542 10.125 1.25.083 1.875-6.917 3.417-11.792.917-2.9 2.144-6.596 2.335-7.166.333-1 .957-4.334-.876-4.209-1.877.128-2.46 2.25-2.96 3.5z" fill="#fff"/></svg>