<svg id="图层_1" xmlns="http://www.w3.org/2000/svg" xmlns:xlink="http://www.w3.org/1999/xlink" viewBox="0 0 128 128"><g><defs><path id="SVGID_1_" d="M0 0h128v128H0z"/></defs><clipPath id="SVGID_2_"><use xlink:href="#SVGID_1_" overflow="visible"/></clipPath><path d="M64.706 11.754H64.724l.166-.002h-.35l.166.002z" clip-path="url(#SVGID_2_)" fill="#37b4e2"/><g clip-path="url(#SVGID_2_)"><g><path d="M64.715 123.925c-31.316 0-56.792-25.301-56.792-56.395 0-31.096 25.476-56.397 56.792-56.397 31.312 0 56.79 25.301 56.79 56.397 0 31.093-25.478 56.395-56.79 56.395zm0-107.061c-28.424 0-51.549 22.73-51.549 50.666 0 27.937 23.125 50.664 51.549 50.664s51.547-22.727 51.547-50.664c0-27.936-23.123-50.666-51.547-50.666z" fill="#875e54"/></g><path fill="#875e54" d="M54.03 112.302h20.315v10.033H54.03z"/><path d="M125.41 60.073c-.034-.371-2.268.216-3.41-3.871-3.976-14.228-15.582-48.673-57.991-48.673-.004 0-.006.949-.01.949s-.008-.949-.012-.949c-42.529 0-52.969 33.144-56.943 47.639-1.226 4.473-4.421 4.514-4.456 4.905-.341 3.71 3.443 8.928 11.811 14.073 12.398 7.618 33.646 11.723 49.589 11.727H64.009c15.943-.004 37.191-4.108 49.59-11.727 8.369-5.145 12.151-10.363 11.811-14.073" fill="#be1931"/><path d="M53.231 7.302l1.094-.319a32.514 32.514 0 0 1 19.246.319l13.161 56.289-.303.062a111.784 111.784 0 0 1-44.814.009l-.35-.071L53.231 7.302z" fill="#ea596e"/><path fill="#fff" d="M60.653 32.863h6.691v24.534h-6.691z"/><path fill="#fff" d="M50.616 41.785h26.763v7.806H50.616z"/><path d="M7.64 53.049s-4.577 2.742-5.052 7.024l3.873 1.587 1.179-8.611z" fill="#be1931"/><path d="M120.378 52.333s4.247 2.417 5.052 7.783l-3.873 1.587-1.179-9.37z" fill="#be1931"/><path d="M125.431 60.402l-7.494 2.268c-36.413 10.663-73.84 10.451-110.2-.622l-5.169-1.556.184-1.112a3.677 3.677 0 0 1 4.759-2.898l.226.073c36.36 11.071 73.787 11.282 110.2.622l2.69-.817a3.605 3.605 0 0 1 4.603 2.85l.201 1.192z" fill="#ea596e"/></g></g></svg>