<svg id="Layer_1" xmlns="http://www.w3.org/2000/svg" xmlns:xlink="http://www.w3.org/1999/xlink" viewBox="0 0 128 128"><g><defs><path id="SVGID_1_" d="M0 0h128v128H0z"/></defs><clipPath id="SVGID_2_"><use xlink:href="#SVGID_1_" overflow="visible"/></clipPath><g clip-path="url(#SVGID_2_)"><path d="M39.006 93.335c-10.983 0-19.918-8.936-19.918-19.918V54.102c0-10.983 8.935-19.918 19.918-19.918s19.918 8.935 19.918 19.918v19.314c0 10.983-8.935 19.919-19.918 19.919zm0-48.286c-4.992 0-9.054 4.061-9.054 9.054v19.314c0 4.992 4.061 9.054 9.054 9.054s9.054-4.061 9.054-9.054V54.102c0-4.992-4.061-9.053-9.054-9.053z" fill="#78a3ad"/></g><g clip-path="url(#SVGID_2_)"><path d="M39.006 26.086c-10.983 0-19.918-8.935-19.918-19.918v-19.314c0-10.983 8.935-19.918 19.918-19.918s19.918 8.935 19.918 19.918V6.168c0 10.983-8.935 19.918-19.918 19.918zm0-48.286c-4.992 0-9.054 4.061-9.054 9.054V6.168c0 4.992 4.061 9.054 9.054 9.054s9.054-4.061 9.054-9.054v-19.314c0-4.993-4.061-9.054-9.054-9.054z" fill="#78a3ad"/></g><g clip-path="url(#SVGID_2_)"><g/></g><g clip-path="url(#SVGID_2_)"><path d="M39.006 160.936c-10.983 0-19.918-8.936-19.918-19.918v-19.314c0-10.982 8.935-19.918 19.918-19.918s19.918 8.936 19.918 19.918v19.314c0 10.982-8.935 19.918-19.918 19.918zm0-48.287c-4.992 0-9.054 4.061-9.054 9.054v19.314c0 4.992 4.061 9.054 9.054 9.054s9.054-4.061 9.054-9.054v-19.314c0-4.992-4.061-9.054-9.054-9.054z" fill="#78a3ad"/></g><g clip-path="url(#SVGID_2_)"><g/></g><g clip-path="url(#SVGID_2_)"><path d="M39.006 122.307c-3 0-5.432-2.432-5.432-5.432v-38.63a5.432 5.432 0 0 1 10.864 0v38.629a5.43 5.43 0 0 1-5.432 5.433z" fill="#64878e"/></g><path d="M39.006 54.706c-3 0-5.432-2.432-5.432-5.432V10.645a5.432 5.432 0 0 1 10.864 0v38.629a5.43 5.43 0 0 1-5.432 5.432z" clip-path="url(#SVGID_2_)" fill="#64878e"/><g clip-path="url(#SVGID_2_)"><path d="M90.631 126.335c-10.983 0-19.918-8.936-19.918-19.918V87.102c0-10.983 8.935-19.918 19.918-19.918s19.918 8.935 19.918 19.918v19.314c0 10.983-8.935 19.919-19.918 19.919zm0-48.286c-4.992 0-9.054 4.061-9.054 9.054v19.314c0 4.992 4.061 9.054 9.054 9.054s9.054-4.061 9.054-9.054V87.102c0-4.992-4.061-9.053-9.054-9.053z" fill="#78a3ad"/></g><g clip-path="url(#SVGID_2_)"><g><path d="M90.632 76.049c-4.992 0-9.054 4.061-9.054 9.054v2c0-4.992 4.061-9.054 9.054-9.054 4.992 0 9.054 4.061 9.054 9.054v-2c-.001-4.993-4.062-9.054-9.054-9.054z" fill="#8bacb2"/></g></g><g clip-path="url(#SVGID_2_)"><path d="M90.631 59.086c-10.983 0-19.918-8.935-19.918-19.918V19.854c0-10.983 8.935-19.918 19.918-19.918s19.918 8.935 19.918 19.918v19.314c0 10.983-8.935 19.918-19.918 19.918zm0-48.286c-4.992 0-9.054 4.061-9.054 9.054v19.314c0 4.992 4.061 9.054 9.054 9.054s9.054-4.061 9.054-9.054V19.854c0-4.993-4.061-9.054-9.054-9.054z" fill="#78a3ad"/></g><g clip-path="url(#SVGID_2_)"><path d="M90.631 155.307c-3 0-5.432-2.432-5.432-5.432v-38.629a5.432 5.432 0 0 1 10.864 0v38.629a5.43 5.43 0 0 1-5.432 5.432z" fill="#64878e"/></g><path d="M90.631 87.706c-3 0-5.432-2.432-5.432-5.432V43.645a5.432 5.432 0 0 1 10.864 0v38.629a5.43 5.43 0 0 1-5.432 5.432z" clip-path="url(#SVGID_2_)" fill="#64878e"/><path d="M90.631 20.586c-3 0-5.432-2.432-5.432-5.432v-38.629a5.432 5.432 0 0 1 10.864 0v38.629a5.43 5.43 0 0 1-5.432 5.432z" clip-path="url(#SVGID_2_)" fill="#64878e"/></g></svg>