<svg id="レイヤー_1" xmlns="http://www.w3.org/2000/svg" viewBox="0 0 128 128"><path d="M124 44h-16.573l-.425-17.137c3.996-.622 8.53-1.539 11.884-2.052.867-.132 1.574-.763 1.734-1.625l1.089-4.857a1.992 1.992 0 0 0-2.204-2.342 462.87 462.87 0 0 1-110.558 0 1.993 1.993 0 0 0-2.204 2.342l1.089 4.857c.16.862.863 1.523 1.734 1.625 3.291.387 8.251 1.498 11.885 2.052L21.026 44H4a2 2 0 0 0-2 2v6a2 2 0 0 0 2 2h16.778l-1.464 59h10.552l1.464-59h65.793l1.464 59h10.553l-1.464-59H124a2 2 0 0 0 2-2v-6a2 2 0 0 0-2-2zm-55 0V28.999c9.833-.101 17.663-.507 27.472-1.231L96.874 44H69zm-11 0H31.578l.403-16.232c9.325.688 16.67 1.095 26.019 1.221V44z" fill="#dd5322"/><g fill="#2f2f2f"><path d="M18.773 123h11a2 2 0 0 0 2-2v-10a2 2 0 0 0-2-2h-11a2 2 0 0 0-2 2v10a2 2 0 0 0 2 2z"/><path d="M97.773 123h11a2 2 0 0 0 2-2v-10a2 2 0 0 0-2-2h-11a2 2 0 0 0-2 2v10a2 2 0 0 0 2 2z"/></g><g fill="#dd5322" stroke="#dd5322" stroke-width="2" stroke-miterlimit="10"/><path d="M123.902 16.924a495.86 495.86 0 0 1-119.804 0L1.85 7.908a495.834 495.834 0 0 0 124.3 0l-2.248 9.016z" fill="#2f2f2f" stroke="#2f2f2f" stroke-width="2" stroke-miterlimit="10"/></svg>