<svg id="レイヤー_1" xmlns="http://www.w3.org/2000/svg" xmlns:xlink="http://www.w3.org/1999/xlink" viewBox="0 0 128 128"><g><g><g><g><g><path fill="#fff" d="M48.329 125.24H24.027V90.188l24.302-12.244z"/><path d="M48.329 128H24.027a2.763 2.763 0 0 1-2.761-2.76V90.188c0-1.043.588-1.996 1.518-2.466L47.086 75.48a2.752 2.752 0 0 1 2.689.115 2.76 2.76 0 0 1 1.315 2.349v47.296a2.76 2.76 0 0 1-2.761 2.76zm-21.54-5.519h18.779V82.426l-18.779 9.462v30.593z" fill="#855c52"/></g></g><g><g><path fill="#fff" d="M79.667 125.24h24.302V90.188L79.667 77.944z"/><path d="M103.969 128H79.667a2.763 2.763 0 0 1-2.762-2.76V77.944c0-.957.5-1.848 1.315-2.349a2.74 2.74 0 0 1 2.689-.115l24.297 12.241a2.758 2.758 0 0 1 1.522 2.466v35.053a2.76 2.76 0 0 1-2.759 2.76zm-21.541-5.519h18.779V91.888l-18.779-9.462v40.055z" fill="#855c52"/></g></g><g><path fill="#fff" d="M48.329 67.035h31.338v58.205H48.329z"/><path d="M79.667 128H48.329a2.762 2.762 0 0 1-2.761-2.76V67.035a2.762 2.762 0 0 1 2.761-2.759h31.338a2.761 2.761 0 0 1 2.761 2.759v58.205a2.762 2.762 0 0 1-2.761 2.76zm-28.576-5.519h25.814V69.794H51.091v52.687z" fill="#855c52"/></g><g><g><g><g><defs><path id="SVGID_1_" d="M70.731 84.913c0-3.661-2.959-6.63-6.613-6.63-3.648 0-6.601 2.969-6.601 6.63v9.337h13.231v-9.337h-.017z"/></defs><use xlink:href="#SVGID_1_" overflow="visible" fill="#40c0e7"/><clipPath id="SVGID_2_"><use xlink:href="#SVGID_1_" overflow="visible"/></clipPath><path d="M70.749 84.923h-4.994v-6.64a1.624 1.624 0 0 0-3.247 0v6.64h-4.99c-.9 0-1.628.728-1.628 1.623 0 .896.728 1.623 1.628 1.623h4.99v6.081a1.624 1.624 0 0 0 3.247 0v-6.081h4.994c.893 0 1.619-.727 1.619-1.623s-.726-1.623-1.619-1.623z" clip-path="url(#SVGID_2_)" fill="#fff"/></g><path d="M70.731 111.46c0-3.657-2.959-6.626-6.613-6.626-3.648 0-6.601 2.969-6.601 6.626v11.117h13.231V111.46h-.017z" fill="#855c52"/></g><path fill="#855c52" d="M79.667 67.035H48.329L64 32.848z"/><g><g fill="#855c52"><path d="M17.165 88.076v5.573L48.329 77.95v-6.304z"/><path d="M17.165 96.408a2.758 2.758 0 0 1-2.762-2.759v-5.573c0-1.022.566-1.964 1.477-2.441l31.164-16.431a2.765 2.765 0 0 1 2.71.077 2.762 2.762 0 0 1 1.337 2.364v6.305a2.76 2.76 0 0 1-1.519 2.464L18.408 96.115a2.777 2.777 0 0 1-1.243.293z"/></g></g><g><g fill="#855c52"><path d="M110.835 88.076v5.573L79.667 77.95v-6.304z"/><path d="M110.835 96.408c-.422 0-.85-.097-1.242-.293L78.424 80.414a2.76 2.76 0 0 1-1.519-2.464v-6.305a2.762 2.762 0 0 1 4.047-2.441l31.169 16.431a2.758 2.758 0 0 1 1.476 2.441v5.573c0 .957-.499 1.85-1.318 2.349-.441.273-.94.41-1.444.41z"/></g></g></g></g><g fill="#855c52"><path d="M79.667 67.035H48.329L64 32.848z"/><path d="M79.756 69.794c-.021 0-.051.002-.089 0H48.329a2.76 2.76 0 0 1-2.508-3.909l15.672-34.188c.896-1.962 4.118-1.962 5.015 0l15.413 33.625a2.759 2.759 0 0 1-2.165 4.472zM52.63 64.276h22.74L64 39.472 52.63 64.276z"/></g><path fill="#855c52" d="M59.903.849h8.194v34.403h-8.194z"/><path fill="#855c52" d="M51.416 8.291h25.168v8.189H51.416z"/></g><path fill="#b89278" d="M55.497 58.021l-2.867 6.255h8.237l.008-6.239z"/><path fill="#b89278" d="M59.311 49.699l-2.96 6.255h9.924l.009-6.239z"/><path fill="#b89278" d="M63.032 41.376l-2.961 6.258h4.576l.013-6.239z"/><path fill="#b89278" d="M63.243 58.037h7.975v6.239h-7.975z"/></g></g></svg>