<svg id="Layer_1" xmlns="http://www.w3.org/2000/svg" viewBox="0 0 128 128"><path d="M127.974 120.912c-5.476.013-20.763.084-35.529.084h-.086L8.31 119.913a7.39 7.39 0 0 1-3.656-1.008h-.236l-.043-.15a7.544 7.544 0 0 1-2.745-3.066c-.627-1.287-1.63-3.671-1.63-3.671V103.5s16.847-34.458 21.737-45.834c3.989-9.296 6.615-15.429 8.76-19.492 2.026-3.849 3.967-6.605 6.851-7.516 2.841-.89 4.814.086 6.122.729.954.472 1.308.643 2.166.461.44-.086.568-.182 1.244-.772l.139-.107c.407-.354.836-1.094 1.265-1.801.965-1.608 2.284-3.806 4.986-4.525 6.315-1.662 10.829.021 13.81 5.147.579.997 2.616 5.029 6.476 12.641.965 1.908 2.016 3.978 3.131 6.176 3.796-5.629 6.626-9.811 7.023-10.39 1.212-1.758 3.528-2.906 5.554-3.024 2.016-.107 4.629 1.572 5.862 3.62.984 1.636 22.004 43.169 32.874 63.498l-.026 18.601z" fill="#196ca2"/><path d="M119.063 115.536c-.492.644-.854 1.342-1.654 1.472a8.634 8.634 0 0 0-4.32 2.048c-.794.699-1.95.804-2.835.225l-.003-.002a.048.048 0 0 1-.018-.022c-1.912-3.607-5.529-5.257-9.899-5.257-4.11 0-7.877 1.364-9.881 4.627-.555.904-1.679 1.202-2.637.744a8.078 8.078 0 0 0-3.841-.783c-.961.044-1.811-.547-2.165-1.442-2.057-5.202-6.95-7.396-12.894-7.396-6.108 0-11.474 2.392-13.418 7.828-.18.503-.503.944-.968 1.208a4.92 4.92 0 0 0-.638.431c-.612.485-1.443.516-2.152.188a8.63 8.63 0 0 0-3.636-.799 8.583 8.583 0 0 0-3.747.857 2.184 2.184 0 0 1-2.539-.449 8.63 8.63 0 0 0-6.27-2.691 8.632 8.632 0 0 0-6.367 2.794c-.762.827-1.998.87-2.865.155a5.032 5.032 0 0 0-3.21-1.151 4.95 4.95 0 0 0-2.821.88c-.393.271-1.464.408-2.472.062-.829-.285-1.593-.951-2.097-1.664-3.57-5.047-8.005-6.961-9.296-7.559-2.428-1.125-6.42-.812-6.42-.812v18.805c0 .223 128 0 128 0v-17.895c0-1.719-6.81 2.81-8.937 5.598z" fill="#bdcf46"/><path id="XMLID_1_" d="M30.333 79.333c1.977-2.411 2.914-3.931 9.167-14.833 11.648-20.309 9.435-16.846 10.167-18 0 0 2.836-4.476 7-13.667 1.394-3.077 2.492-5.77 1.271-7.333-1.009-1.292-3.263-1.381-4.69-.991-1.914.523-3.419 1.94-4.986 4.525-.429.708-.858 1.447-1.265 1.801l-.139.107c-.675.59-.804.686-1.244.772-.858.182-1.212.011-2.166-.461-1.308-.643-3.281-1.619-6.122-.729-2.884.911-4.825 3.667-6.851 7.516C28.33 42.104 8.698 85.55 8.698 85.55c-.169.437.156 3.387 6.802 4.117 5.816.638 10.706-5.3 14.833-10.334z" fill="#78a3ad"/><g><path d="M94.947 38.533c-1.233-2.048-3.793-3.531-5.809-3.424-2.026.118-4.342 1.265-5.554 3.024-.397.579-3.227 4.76-7.023 10.39l6.187 8.888s8.677-9.8 11.918-14.827c.905-1.403.308-4.005.281-4.051z" fill="#78a3ad"/></g></svg>