<svg id="图层_1" xmlns="http://www.w3.org/2000/svg" viewBox="0 0 128 128"><path d="M119.911 92.094c-3.084-3.464-7.274-6.067-16.796-8.942-8.153-2.461-19.086-4.781-34.27-5.242-14.305-.434-24.798 1.011-28.332 1.542-19.325 2.902-27.082 7.964-29.689 9.867-2.458 1.794-8.72 6.363-8.991 12.709a11.87 11.87 0 0 0-.006.172s-.099 3.871 2.956 7.912c6.822 9.023 29.749 13.485 29.749 13.485a188.2 188.2 0 0 0 14.294 1.796c3.796.331 12.319 1.046 22.394.617 9.785-.417 19.519-.833 30.707-4.779 8.127-2.867 21.976-7.752 23.199-16.833.755-5.599-3.6-10.49-5.215-12.304zm-76.794-9.252l.43.007-.43-.007z" fill="#f7c977"/><path d="M41.383 93.969a3.11 3.11 0 0 1-2.26-4.345l19.052-42.166a3.112 3.112 0 0 1 5.666 2.573L44.79 92.196a3.115 3.115 0 0 1-3.407 1.773z" fill="#78a3ad"/><g><path d="M79.282 18.279l-.241-.107.267.128-.026-.021z" fill="#fff"/><path d="M76.647 19.244c2.091 6.778 6.551 26.576-2.268 52.361l.042-.116c15.631-4.041 25.535 4.406 25.739 4.581 3.543-31.023-17.056-52.596-22.887-58.016l-.248.599a1.999 1.999 0 0 1-.378.591z" fill="#fff"/><path d="M73.253 17.094l.185-.449c-7.872.007-34.12 1.893-51.263 25.198.474.053 13.026 2.633 21.592 14.828l-.034.08c9.861-23.065 23.734-34.477 29.424-38.41a2.028 2.028 0 0 1 .096-1.247z" fill="#fff"/><path d="M79.308 18.3c-.089-.042-.177-.086-.267-.128a78.335 78.335 0 0 0-1.527-.7l-.24.582c5.831 5.421 26.43 26.994 22.887 58.016-.204-.176-10.108-8.623-25.739-4.581l-.042.116c8.82-25.786 4.36-45.583 2.268-52.361a2.042 2.042 0 0 1-2.287.516 2.034 2.034 0 0 1-1.203-1.419c-5.69 3.933-19.562 15.344-29.424 38.41l.034-.08C35.201 44.476 22.65 41.896 22.175 41.843c17.143-23.305 43.392-25.191 51.263-25.198l.306-.74C47.574 5.824 20.3 11.297 4.922 28.059c-1.007 1.098-.789 2.905.442 3.651 3.76 2.277 10.906 7.291 14.172 14.159l-.002.003.005.002c.108.036 16.428 5.533 21.894 16.778l-.001.003h.003l.002.004.002-.004c.132.006 18.585.906 31.563 12.758l-.009.025s14.784-4.087 26.526 5.016c.027-.145.046-.287.072-.432-.024.136-.038.268-.063.404 0 0 9.052-5.163 18.15-2.013 1.185.41 2.412-.588 2.403-1.929-.159-22.969-15.887-46.346-40.773-58.184z" fill="#196ca2"/><path d="M73.439 16.645l-.185.449c-.17.411-.191.845-.096 1.247a2.032 2.032 0 0 0 3.49.903c.155-.17.286-.366.379-.591l.248-.599.24-.582 2.372-5.741a2.042 2.042 0 0 0-3.773-1.56l-2.369 5.733-.306.741z" fill="#78a3ad"/></g></svg>