<svg id="レイヤー_1" xmlns="http://www.w3.org/2000/svg" xmlns:xlink="http://www.w3.org/1999/xlink" viewBox="0 0 128 128"><g><g><path d="M76.979 79.574l-5.75-.594v-4.263l4.537-2.087c-.791 0-1.021-2.698-1.021-2.698l-8.375-1.884-.051-.962-2.105.477-2.111-.477-.041.962-8.377 1.884s-.234 2.698-1.025 2.698l4.475 2.056v4.3l-5.686.588s-.199 2.569-.893 2.569l11.217 10.609 2.441-1.698 2.445 1.698L77.87 82.143c-.7 0-.891-2.569-.891-2.569z" fill="#2f2f2f"/><g><defs><path id="SVGID_1_" d="M91.703 82.143H36.459a4.485 4.485 0 0 0-4.484 4.48c0 2.341 1.809 4.242 4.096 4.442 1.268 4.854 5.119 13.354 16.686 18.376 3.781 1.643 2.021 4.927-.981 5.986-1.184.447-2.012 1.481-2.012 2.689 0 1.618 1.484 2.928 3.326 2.928h21.539c1.844 0 3.33-1.31 3.33-2.928 0-1.208-.828-2.242-2.02-2.689h.004c-3.002-1.06-4.764-4.344-.984-5.986 11.545-5.01 15.396-13.473 16.686-18.338h.059a4.48 4.48 0 0 0 4.479-4.48 4.485 4.485 0 0 0-4.48-4.48z"/></defs><use xlink:href="#SVGID_1_" overflow="visible" fill="#78a3ad"/><clipPath id="SVGID_2_"><use xlink:href="#SVGID_1_" overflow="visible"/></clipPath><path clip-path="url(#SVGID_2_)" fill="#2f2f2f" d="M35.053 91.104h56.592v3.051H35.053z"/></g><g><path d="M47.977 76.099a3.478 3.478 0 0 0 3.471 3.475h25.531a3.468 3.468 0 0 0 3.465-3.475 3.464 3.464 0 0 0-3.465-3.469H51.447a3.474 3.474 0 0 0-3.47 3.469z" fill="#78a3ad"/></g><g><path d="M64.213 59.401c-5.818 0-10.529 4.713-10.529 10.531h21.064c0-5.818-4.723-10.531-10.535-10.531z" fill="#78a3ad"/></g></g><g><g><g><path d="M35.859 55.671c5.955-6.355 16.785-8.495 23.441-1.88.611.603 1.049 1.346 1.545 2.04.316.443 1.152 1.732 1.834 1.22.387-.295.23-1.125.182-1.54-.123-1.272-.514-2.521-.945-3.716-1.453-4.041-3.617-7.844-6.496-11.046-6.68-7.448-17.557-10.072-27.166-7.839-10.1 2.349-18.461 8.747-24.834 16.775-1.207 1.522-2.355 3.33-2.652 5.284-.264 1.745.242 4.545 2.555 4.644 2.381.1 4.287-4.681 6.758-3.132 1.717 1.079-.008 4.586.555 6.101.686 1.856 2.641 2.378 4.354 1.565 1.76-.843 2.414-3.027 4.057-3.967 1.178-.674 2.861-.124 3.486 1.052.936 1.761-.748 4.704 1.207 6.022 1.799 1.212 3.699.382 5.146-.952 1.391-1.294 2.367-3.704 3.316-5.338 1.077-1.86 2.179-3.708 3.657-5.293z" fill="#40c0e7"/></g><g><path d="M127.232 54.969c-.291-1.954-1.441-3.762-2.652-5.284-6.367-8.027-14.727-14.426-24.838-16.775-9.609-2.233-20.479.391-27.166 7.839-2.871 3.202-5.035 7.005-6.492 11.046-.43 1.195-.816 2.443-.947 3.716-.039.415-.201 1.245.18 1.54.691.513 1.523-.776 1.84-1.22.496-.694.938-1.438 1.545-2.04 6.654-6.615 17.49-4.476 23.441 1.88 1.482 1.585 2.574 3.433 3.658 5.293.947 1.634 1.926 4.044 3.316 5.338 1.445 1.334 3.348 2.164 5.143.952 1.955-1.318.275-4.262 1.215-6.022.621-1.176 2.299-1.726 3.482-1.052 1.643.939 2.295 3.124 4.061 3.967 1.711.812 3.662.291 4.348-1.565.562-1.515-1.164-5.021.561-6.101 2.461-1.549 4.367 3.231 6.748 3.132 2.315-.099 2.817-2.899 2.557-4.644z" fill="#40c0e7"/></g></g><path d="M17.791 42.319c-1.938.946-6.109 3.876-8.031 5.953-.826.892-1.551 1.746-.959 2.403 1.041 1.169 4.393-1.327 6.221-.695.875.302 1.643.826 1.465 1.953-.066.38-1.584 2.868-.354 3.684.815.543 2.119-.011 2.777-.619 1.658-1.018 3.219-2.036 5.517-1.244 1.733.598-.254 3.864 1.863 4.503 1.619.487 2.809-1.631 3.221-2.339 1.066-1.825 2.266-3.668 4.113-5.336.346-.312 1.314-1.496.066-2.351-.91-.626-2.832.253-4.336.723-.871.27-2.529-.231-2.562-1.379-.023-.875.517-2.106-.492-2.829-.633-.443-2.316-.234-2.977.003-.318.116-1.746.465-2.051.066-.459-.604.723-1.445-.064-2.496-.472-.633-1.995-.694-3.417 0z" fill="#fff"/><path d="M110.633 42.319c1.938.946 6.109 3.876 8.031 5.953.83.892 1.553 1.746.961 2.403-1.043 1.169-4.393-1.327-6.221-.695-.871.302-1.648.826-1.467 1.953.059.38 1.586 2.868.354 3.684-.816.543-2.119-.011-2.775-.619-1.66-1.018-3.219-2.036-5.52-1.244-1.732.598.256 3.864-1.863 4.503-1.619.487-2.809-1.631-3.219-2.339-1.068-1.825-2.268-3.668-4.115-5.336-.344-.312-1.314-1.496-.066-2.351.912-.626 2.834.253 4.336.723.873.27 2.531-.231 2.564-1.379.02-.875-.52-2.106.496-2.829.627-.443 2.311-.234 2.967.003.322.116 1.746.465 2.053.066.461-.604-.723-1.445.068-2.496.471-.633 1.986-.694 3.416 0z" fill="#fff"/></g></g></svg>