<svg id="レイヤー_1" xmlns="http://www.w3.org/2000/svg" viewBox="0 0 128 128"><g><path d="M35.701 7.674l.544 38.245s7.034-2.584 12.035-7.283c4.54-4.265 14.387-6.463 21.005-8.839 14.651-5.261 17.413-10.716 17.413-10.716s.237 1.258-12.606-.267c-3.639-.432-12.439-2.584-17.026-3.879-5.332-1.506-6.797-2.195-10.259-3.454-7.665-2.789-9.471-3.808-9.471-3.808h-1.635z" fill="#e75625"/><path d="M3.338 82.864s3.766-7.623 33.683-13.284c27.591-5.221 48.155-3.151 61.068.806 30.279 9.274-7.582 14.529 4.016 22.11 9.765 6.383 24.706 4.579 24.895 13.077.127 5.789-14.432 9.788-34.226 11.01-44.865 2.771-73.312-8.98-83.042-15.009-8.311-5.152-11.26-13.118-6.394-18.71z" fill="#a2c02b"/><g><path d="M43.314 91.731l21.084-25.208c-2.791.077-5.695.235-8.707.489L40.368 89.261l2.946 2.47z" fill="#626e30"/></g><path d="M54.075 91.099c0 3.038-7.442 5.5-16.619 5.5-9.174 0-16.614-2.462-16.614-5.5s7.44-5.502 16.614-5.502c9.178 0 16.619 2.464 16.619 5.502z" fill="#2f2f2f"/><path d="M37.577 96.557c.15 0 .299-.005.454-.006V8.496a1.785 1.785 0 0 0-3.569 0v87.962a49.2 49.2 0 0 0 3.115.099z" fill="#fbb817"/></g></svg>