<svg id="レイヤー_1" xmlns="http://www.w3.org/2000/svg" viewBox="0 0 128 128"><path fill="#fff" d="M73.159 20.337l.332-2.157H61.367l-.846 2.157z"/><path d="M55.167 61.025H5.603a2.68 2.68 0 0 1 0-5.358h49.564a2.678 2.678 0 0 1 2.679 2.679l-.078 1.6c0 1.48-1.122 1.079-2.601 1.079z" fill="#855c52"/><path fill="#855c52" d="M10.846 72.667l.078-16.212h5.313l-.078 16.212z"/><path fill="#855c52" d="M22.176 72.627l.078-16.212h5.313l-.078 16.212z"/><path fill="#855c52" d="M33.533 72.667l.078-16.212h5.313l-.078 16.212z"/><g fill="#ed6c30"><path d="M56.404 31.119h16.174l.581-10.783H60.521c-1.964 5.043-4.117 10.783-4.117 10.783z"/><path d="M73.656 17.101c0-2.156-2.156-2.156-2.156-2.156h-6.47s-2.339-.082-3.235 2.157c-.139.347-.282.708-.428 1.078h12.124l.165-1.079z"/></g><g><path d="M12.116 75.794s1.853 3.491 4.285 7.974c.683 1.259 5.939 2.654 6.783 3.955 4.22 6.51 8.015 11.915 8.942 13.204 1.917 2.667 4.698 7.986 13.698 7.986h82.177V75.794H12.116z" fill="#006ca2"/><path d="M127.362 71.612H11.02a.638.638 0 0 0-.566.933l2.662 5.122 114.245.331a.638.638 0 0 0 .64-.638v-5.109a.64.64 0 0 0-.639-.639z" fill="#40c0e7"/><path d="M128 46.375H57.902c-1.722 0-4.007 1.098-5.084 2.436L39.34 71.612H128V46.375z" fill="#78a3ad"/></g><path fill="#78a3ad" d="M53.365 57.234l-12.6-26.135H128v6H50.318l8.452 17.53z"/><path fill="#78a3ad" d="M128 34.098l-79.167-.515 5.917 22.349H128z"/><path d="M127.938 113.516H8.353a2.374 2.374 0 0 1-2.367-2.367 2.374 2.374 0 0 1 2.367-2.367h119.585v4.734z" fill="#40c0e7"/><path d="M73.873 65.062h-6.326a1.582 1.582 0 0 1-1.582-1.582v-7.81c0-.874.708-1.582 1.582-1.582h6.326c.874 0 1.582.708 1.582 1.582v7.81c0 .874-.708 1.582-1.582 1.582z" fill="#fff"/><path d="M88.611 65.062h-6.326a1.582 1.582 0 0 1-1.582-1.582v-7.81c0-.874.708-1.582 1.582-1.582h6.326c.874 0 1.582.708 1.582 1.582v7.81c0 .874-.708 1.582-1.582 1.582z" fill="#fff"/><path d="M103.349 65.062h-6.326a1.582 1.582 0 0 1-1.582-1.582v-7.81c0-.874.708-1.582 1.582-1.582h6.326c.874 0 1.582.708 1.582 1.582v7.81c0 .874-.708 1.582-1.582 1.582z" fill="#fff"/><path d="M118.087 65.062h-6.326a1.582 1.582 0 0 1-1.582-1.582v-7.81c0-.874.708-1.582 1.582-1.582h6.326c.874 0 1.582.708 1.582 1.582v7.81c0 .874-.708 1.582-1.582 1.582z" fill="#fff"/><path d="M55.973 55.013l-4.582 8.115A1.255 1.255 0 0 0 52.484 65H59.621c.693 0 1.255-.562 1.255-1.255V55.63c0-.693-.562-1.255-1.255-1.255h-2.554c-.454 0-.871.244-1.094.638z" fill="#fff"/><path d="M115.042 46h-37.25a4.625 4.625 0 0 1 0-9.25h37.25a4.625 4.625 0 0 1 0 9.25z" fill="#fff"/><path d="M62.167 37.25h-25.5a3.083 3.083 0 1 1 0-6.166h25.5a3.083 3.083 0 0 1 0 6.166z" fill="#78a3ad"/><path fill="#fff" d="M50.504 37.167h15.384v3.895H52.26z"/><path fill="#fff" d="M53.26 44.375h12.628v3.542H54.792z"/><g fill="#78a3ad"><path d="M87.583 35.917h3.667v10.667h-3.667z"/><path d="M101.583 35.917h3.667v10.667h-3.667z"/></g></svg>