<svg id="レイヤー_1" xmlns="http://www.w3.org/2000/svg" viewBox="0 0 128 128"><g><g><g><g><path d="M120.953 98.688L4.396 98.672c-1.075.254-1.84.547-2.215.893-4.979 4.561 7.454 14.969 9.944 17.43a69.11 69.11 0 0 0 8.884 7.369c1.049.729 3.017 2.092 7.281 2.092h84.006c4.216 0 7.481-.973 8.819-5.365 1.136-3.732 3.915-9.541 5.39-15.355 1.551-6.097-.764-7.048-5.552-7.048z" fill="#fff"/><path d="M7.121 103.96l113.832.016c.193 0 .374.002.534.004-.031.139-.06.291-.102.457-.827 3.23-2.137 6.588-3.294 9.547-.787 2.018-1.527 3.92-2.033 5.568-.319 1.039-.494 1.615-3.762 1.615H28.291c-2.607 0-3.569-.662-4.259-1.141a63.384 63.384 0 0 1-8.189-6.791c-.312-.303-.755-.717-1.291-1.219-4.348-4.043-6.444-6.533-7.431-8.056m-2.724-5.288c-1.075.254-1.84.547-2.215.893-4.979 4.561 7.454 14.969 9.944 17.43a69.11 69.11 0 0 0 8.884 7.369c1.049.729 3.017 2.092 7.281 2.092h84.006c4.216 0 7.481-.973 8.819-5.365 1.136-3.732 3.915-9.541 5.39-15.355 1.55-6.096-.765-7.047-5.553-7.047L4.397 98.672z" fill="#fcc21b"/></g><path d="M60.502 66.42c-2.115 13.373-5.812 22.242-5.812 22.242 23.146 0 65.137-.697 64.058-.697-.296 0 .459-9.406-1.42-21.545-1.685-10.779-5.434-23.699-13.848-34.115C82.312 6.095 49.502 1.546 49.502 1.546c13.836 22.877 13.727 47.624 11 64.874z" fill="#40c0e7"/><path d="M45.979 66.42l.841-58.265c-.795 0-16.965 25.902-27.56 58.265-2.646 8.098-4.957 16.598-6.576 25.203l32.982-3.33.313-21.873z" fill="#40c0e7"/></g><path d="M87.713 36.404c-.059.351-.118.688-.177.999-.5 2.832-.806 5.636-1.812 8.355-1.049 2.83-2.443 5.514-3.938 8.131-.859 1.486-2.48 3.293-2.117 5.15 1.068 5.287 9.911-2.729 12.203-3.316 3.785-.965 1.881 6.025 1.271 7.605-2.592 6.74-9.8 10.604-15.759 13.91-.917.51-1.89.93-2.755 1.533-.957.672-1.623 2.117-.89 3.17.99 1.424 3.072 1.168 4.587 1.119 17.074-.572 22.597-4.785 26.465-9.314 6.287-7.359 3.271-18.252-.409-26.051-1.895-4.02-3.938-8.184-6.862-11.568-1.486-1.728-3.375-3.484-5.391-4.601-.75-.421-1.61-.498-2.309.07-1.302 1.067-1.789 3.088-2.107 4.808z" fill="#fff"/></g><path fill="#fcc21b" d="M14.883 115.313h105.346l-3.745 7.486H24.795z"/></g></svg>