<svg id="图层_1" xmlns="http://www.w3.org/2000/svg" xmlns:xlink="http://www.w3.org/1999/xlink" viewBox="0 0 128 128"><g><defs><path id="SVGID_1_" d="M128 128H0v-27.35c54.565-20.162 102.174-45.238 128-85.704V128z"/></defs><use xlink:href="#SVGID_1_" overflow="visible" fill="#e1f5fe"/><clipPath id="SVGID_2_"><use xlink:href="#SVGID_1_" overflow="visible"/></clipPath><path d="M90.376 86.565c12.709-7.886 32.791-24.787 40.624-34.789.021 2.999-.618 11.106-.833 11.345C125 68.85 108 83.039 94.788 91.505c-2.433-3.033-3.009-2.081-4.412-4.94z" clip-path="url(#SVGID_2_)" fill="#b3e5fc"/><path d="M68.217 86.323c15.283-9.067 52.116-36.831 63.449-61.315.021 2.999-.695 12.503-.833 12.793C125.667 48.595 105 71.473 72.108 91.464c-2.433-3.033-2.488-2.283-3.891-5.141z" clip-path="url(#SVGID_2_)" fill="#b3e5fc"/></g><g fill="#fff"><path d="M95.199 78.782c.008-.009.018-.014.027-.025 1.233-1.081.391-3.201-1.308-2.926-.045.004-.088.014-.132.024-.98.238-1.634 1.078-1.914 2.008-.144.477-.263.962-.36 1.452-.049.24-.112.487-.13.73-.012.139.065.387.219.425.234.055.649-.143.865-.218.984-.333 1.947-.779 2.733-1.47z"/><path d="M107.219 66.874c.009-.008.014-.018.026-.026 1.098-1.217 3.206-.345 2.906 1.35a.949.949 0 0 1-.026.131c-.252.976-1.102 1.618-2.035 1.885-.479.137-.965.249-1.457.34-.241.046-.489.105-.731.12-.14.01-.386-.07-.422-.225-.051-.235.153-.647.23-.862.347-.981.807-1.937 1.509-2.713z"/><path d="M89.25 66.124c.006-.014.006-.024.014-.04.683-1.693-1.22-3.38-2.772-2.255a1.28 1.28 0 0 0-.117.095c-.855.723-1.085 1.892-.897 2.955.1.546.224 1.091.368 1.625.076.261.138.539.241.793.058.141.261.35.432.307.262-.064.571-.464.749-.648.817-.826 1.549-1.754 1.982-2.832z"/><path d="M102.596 56.827c.01-.009.013-.018.024-.028 1.103-1.157.1-3.144-1.527-2.731-.039.01-.087.024-.126.039-.929.312-1.495 1.189-1.685 2.115-.095.477-.17.96-.226 1.441-.023.237-.062.483-.061.723.002.133.099.369.252.39.233.033.614-.193.819-.285.934-.409 1.829-.927 2.53-1.664z"/><path d="M101.337 65.957a.11.11 0 0 0 .027-.035c1.368-1.48.065-3.962-1.971-3.412-.055.014-.106.033-.162.052-1.161.412-1.856 1.525-2.078 2.696a19.91 19.91 0 0 0-.254 1.82c-.031.299-.074.608-.068.91.006.165.132.46.323.484.291.039.776-.252 1.034-.371 1.16-.531 2.278-1.203 3.149-2.144z"/></g><g><path d="M94.561 91.672L43.58 125.169s-2.398 1.534-5.159 1.511c-2.761-.023-8.089-.785-9.166-2.34-1.077-1.555 1.942-1.988 4.374-2.97 2.433-.982 10.41-4.711 16.826-8.825 6.417-4.113 37.499-24.683 39.088-25.598a5.677 5.677 0 0 1 5-.309c1.529.645 2.863 3.132.018 5.034z" fill="#076894"/><path d="M94.608 89.881l-50.981 33.497s-2.398 1.534-5.159 1.511c-2.761-.023-8.089-.785-9.166-2.34-1.077-1.555 1.942-1.988 4.374-2.97 2.433-.982 10.409-4.711 16.826-8.825 6.417-4.113 37.499-24.683 39.088-25.598a5.677 5.677 0 0 1 5-.309c1.53.645 2.863 3.132.018 5.034z" fill="#2cb6d3"/><path d="M71.783 91.635l-55.045 26.323s-2.582 1.165-5.314.769-7.909-1.872-8.765-3.559c-.857-1.687 2.193-1.707 4.736-2.351 2.543-.644 10.951-3.26 17.865-6.468 6.914-3.208 40.494-19.383 42.191-20.075a5.68 5.68 0 0 1 4.996.37c1.428.847 2.413 3.491-.664 4.991z" fill="#076894"/><path d="M71.978 89.861l-55.045 26.323s-2.582 1.165-5.314.769-7.909-1.872-8.765-3.559c-.857-1.687 2.193-1.707 4.736-2.351 2.543-.644 10.951-3.26 17.865-6.468 6.914-3.208 40.494-19.383 42.191-20.075s3.569-.475 4.996.37c1.428.846 2.413 3.491-.664 4.991z" fill="#2cb6d3"/></g><g><g><path id="XMLID_1747_" d="M25.02 49.975l3.422 8.896c5.271-1.242 10.179-2.625 13.786-4.513l-3.951-10.271c-4.664.679-9.114 2.48-13.257 5.888z" fill="#01497a"/><path d="M45.778 49.492l-10.991-.553c-.451-5.591-1.04-11.113.144-17.534l12.463.627-1.616 17.46z" fill="#01497a"/><circle cx="40.282" cy="49.215" r="5.503" fill="#01497a"/><path d="M18.712 53.087l.089-.219a4.8 4.8 0 0 1 6.252-2.651l2.549 1.031a4.8 4.8 0 0 1 2.651 6.252l-.089.219a4.8 4.8 0 0 1-6.252 2.651l-2.549-1.031a4.801 4.801 0 0 1-2.651-6.252z" fill="#fbc11b"/><g stroke-width="2" stroke-miterlimit="10"><path fill="none" stroke="#7c7d7d" stroke-linecap="round" stroke-linejoin="round" d="M13.176 50.328l66 30.144"/><ellipse transform="rotate(24.245 72.859 77.6)" cx="72.857" cy="77.604" rx="2.664" ry="5.141" fill="#7cb342" stroke="#7cb342"/><path fill="none" stroke="#7c7d7d" stroke-linecap="round" stroke-linejoin="round" d="M72.583 77.486l-4.366-1.99"/></g><circle cx="41.164" cy="31.718" r="6.237" fill="#01497a"/><circle cx="25.701" cy="55.818" r="4.904" fill="#fbc11b"/></g><g><path d="M36.025 77.604l-7.376-10.296c4.873-5.271 10.915-9.986 17.902-14.251l8.685 12.122c-5.938 5.36-12.321 9.554-19.211 12.425z" fill="#0277bd"/><path d="M46.377 91.762l-9.895 4.188c-4.082-6.914-7.828-13.849-9.878-20.893l11.65-4.931c3.219 5.06 5.776 12.905 8.123 21.636z" fill="#0277bd"/><circle cx="32.337" cy="72.456" r="6.325" fill="#0277bd"/><circle cx="50.893" cy="59.118" r="7.456" fill="#0277bd"/><g fill="#37474f"><path d="M47.394 99.087l-11.74 4.969a2.043 2.043 0 0 1-2.678-1.085l-.087-.205a4.875 4.875 0 0 1 2.589-6.39l11.151-4.72 1.929 4.558a2.192 2.192 0 0 1-1.164 2.873z"/><path d="M42.807 78.178l-13.625 5.755c.987 4.997 4.443 9.75 7.301 12.018l10.147-4.295c.064-4.376-1.372-8.882-3.823-13.478z"/></g></g><g><path d="M59.489 80.247L47.851 75.25c-.269-3.499 4.465-13.257 7.952-21.456l13.702 5.883c-1.826 7.337-5.43 14.109-10.016 20.57z" fill="#0277bd"/><path d="M70.662 94.439l-9.064 5.77c-5.128-6.353-10.319-12.708-13.204-18.966l10.671-6.794c3.933 4.098 7.775 11.652 11.597 19.99z" fill="#0277bd"/><circle cx="53.67" cy="77.748" r="6.325" fill="#0277bd"/><circle cx="62.654" cy="56.736" r="7.456" fill="#0277bd"/><g fill="#37474f"><path d="M72.848 101.514l-10.535 6.707a2.267 2.267 0 0 1-3.129-.695 4.876 4.876 0 0 1 1.494-6.731l10.214-6.503 2.638 4.144a2.228 2.228 0 0 1-.682 3.078z"/><path d="M64.807 81.115l-12.703 8.222c2.997 4.621 6.102 8.6 9.494 10.873l9.295-5.917c-.785-4.605-2.852-8.991-6.086-13.178z"/></g></g><path d="M55.683 20.658l-10.082 2.007a9.164 9.164 0 0 0-7.198 10.776l4.04 20.294c1.078 5.413 6.339 8.927 11.751 7.849l12.698-2.528a5.665 5.665 0 0 0 4.45-6.663c-1.154-8.369-2.706-16.578-4.885-24.538-.986-4.963-5.811-8.185-10.774-7.197z" fill="#01497a"/><g><path id="XMLID_1744_" d="M70.472 47.151l9.529.227c1.089-4.879 1.467-9.702 1.082-14.466l-11.002-.262.391 14.501z" fill="#01497a"/><path d="M77.571 27.431l-3.947 10.273-16.618-5.596 4.476-11.648c6.209 1.422 12.017 3.272 16.089 6.971z" fill="#01497a"/><circle cx="75.598" cy="32.568" r="5.503" fill="#01497a"/><g stroke-width="2" stroke-miterlimit="10"><path fill="none" stroke="#7c7d7d" stroke-linecap="round" stroke-linejoin="round" d="M59.499 45.538l65.156 13.507"/><ellipse transform="rotate(11.392 117.88 57.667)" cx="117.857" cy="57.654" rx="2.664" ry="5.141" fill="#7cb342" stroke="#7cb342"/><path fill="none" stroke="#7c7d7d" stroke-linecap="round" stroke-linejoin="round" d="M117.563 57.6l-4.699-.969"/></g><circle cx="59.245" cy="26.282" r="6.237" fill="#01497a"/><path d="M69.072 47.92l.048-.232a4.802 4.802 0 0 1 5.671-3.736l2.693.554a4.802 4.802 0 0 1 3.736 5.671l-.048.232a4.802 4.802 0 0 1-5.671 3.736l-2.693-.554a4.8 4.8 0 0 1-3.736-5.671z" fill="#fbc11b"/></g><path d="M57.767 11.878c1.586 6.44-2.035 12.869-8.089 14.36s-12.055.043-13.832-8.961c-1.285-6.507-.237-12.31 8.089-14.36 7.472-1.84 12.246 2.521 13.832 8.961z" fill="#616161"/><path d="M56.057 7.558c1.712 3.473.853 9.527-4.248 13.601s-11.352 4.785-13.437 2.173c0 0-1.606.393-.967 1.861.532 1.222.803 4.517 6.066 4.517s9.075-1.708 11.149-2.152c2.074-.443 2.062-8.812 10.864-5.364 0 0 1.805-11.073-6.985-14.636-1.173-.467-1.944-.412-2.442 0z" fill="#01497a"/><g><defs><path id="SVGID_3_" d="M34.893 12.003s1.197.552 1.828.629c4.492.553 8.747.602 13.135-.568.761-.203 1.647-.406 2.264.114.781.657.297 1.901.091 2.93-.38 1.907-3.522 5.333-6.314 5.506-1.379.086-2.756-.122-3.931-.768-.867-.477-1.901-.5-2.735.032a4.41 4.41 0 0 1-1.028.491c-.907.288-2.134.323-2.681-.486-1.297-1.918-1.678-5.862-.629-7.88z"/></defs><use xlink:href="#SVGID_3_" overflow="visible" fill="#00e5ff"/><clipPath id="SVGID_4_"><use xlink:href="#SVGID_3_" overflow="visible"/></clipPath><path clip-path="url(#SVGID_4_)" fill="#00acc1" d="M40.783 21.812h-2.375l1.625-11.304h2.375z"/><path clip-path="url(#SVGID_4_)" fill="#2962ff" d="M48.451 21.812H44.15l2.943-11.304h4.3z"/></g><g><path d="M35.664 10.914c-1.457.288-2.469.633-3.434 1.187-.531.306-1.083.678-1.159 1.152-.103.62.602.92 1.184.885 3.76-.207 6.841-.417 10.813-.294 2.748.061 6.706.445 9.063-.129.29-.074.575-.28.619-.597.07-.514-.278-.717-.803-.765-2.496-1.113-16.639.013-16.283-1.439z" fill="#757575"/><path d="M35.664 10.508c-1.457.286-2.469.633-3.434 1.187-.531.306-1.083.677-1.159 1.152-.103.621.602.92 1.184.885 3.76-.206 6.841-.419 10.813-.294 2.748.062 6.706.443 9.063-.129.29-.078.575-.279.619-.597.07-.513-.278-.717-.803-.765-2.496-1.111-16.639.013-16.283-1.439z" fill="#bdbdbd"/></g></g></svg>