<svg id="レイヤー_1" xmlns="http://www.w3.org/2000/svg" viewBox="0 0 128 128"><g><path d="M123.088 110.171c-1.457-2.547-3.64-5.465-3.64-5.465h-7.652s1.456 2.552 3.28 6.924c1.821 4.37-.157 7.855-12.726 7.855s-12.471-6.679-12.471-8.852c0-2.172.059-5.927.059-5.927h-6.194v7.537c0 6.277-6.659 6.306-6.659 6.306h-41.43c-8.744 0-8.381-7.353-8.381-7.353v-11.183h-6.921s.006 4.603 0 11.023c-.007 6.6-7.287 6.057-7.287 6.057H5.051L2.5 124.745h112.21c4.371 0 8.743-1.093 10.368-5.048 1.431-3.482-1.167-8.084-1.99-9.526z" fill="#7c7d7d"/><path d="M37.546 3.624C48.328 3.25 58.412 2.123 58 9c-.654 10.926.342 29.574 1.54 35.358C64.034 66.061 95.897 68.697 112 77c6.621 3.414 7.759 7.572 7.676 16.44-.057 4.016-41.521 2.54-49.542.928-13.609-2.735-22.565-13.504-36.492-14.221-17.699-.911-22.596-1.559-22.672-17.327-.043-8.944 1.15-23.803 1.601-33.123.15-3.107-2.354-16.313-.011-19.697 4.206-6.077 13.188-5.203 24.986-6.376z" fill="#d4ecf4"/><path fill="none" stroke="#7c7d7d" stroke-width="4" stroke-linecap="round" stroke-linejoin="round" stroke-miterlimit="10" d="M59.191 23.145H46.437"/><path fill="none" stroke="#7c7d7d" stroke-width="4" stroke-linecap="round" stroke-linejoin="round" stroke-miterlimit="10" d="M58.9 33.168l-12.746.449"/><path fill="none" stroke="#7c7d7d" stroke-width="4" stroke-linecap="round" stroke-linejoin="round" stroke-miterlimit="10" d="M59.973 43.014L47.328 44.67"/><path fill="none" stroke="#7c7d7d" stroke-width="4" stroke-linecap="round" stroke-linejoin="round" stroke-miterlimit="10" d="M63 51.618l-11.888 4.618"/><path fill="none" stroke="#7c7d7d" stroke-width="4" stroke-linecap="round" stroke-linejoin="round" stroke-miterlimit="10" d="M69.629 59.021l-10.31 7.508"/><path fill="none" stroke="#7c7d7d" stroke-width="4" stroke-linecap="round" stroke-linejoin="round" stroke-miterlimit="10" d="M78.308 63.863l-8.58 8.639"/><path fill="none" stroke="#7c7d7d" stroke-width="4" stroke-linecap="round" stroke-linejoin="round" stroke-miterlimit="10" d="M87.247 67.652l-7.179 8.944"/><path fill="none" stroke="#7c7d7d" stroke-width="4" stroke-linecap="round" stroke-linejoin="round" stroke-miterlimit="10" d="M97.58 72.139l-6 8.915"/><path d="M12 31c.15-3.107-1.784-17.616.559-20.999 2.04-2.947 5.212-4.254 9.275-4.958A409.35 409.35 0 0 1 21.7 8.53c-.127 2.939-.281 5.512-.464 7.161-.993 8.916-.67 19.931-.441 28.979.411 16.188-.607 21.349 11.484 26.469C38.824 73.911 56.276 78.851 64 83.396c8.25 4.854 29.5 9.479 44.875 6.604 4.605-.861 8.804-1.99 9.814-5.933C120.412 86.87 121.038 94.976 121 99c-.057 4.016-41.956 3.977-49.977 2.365C57.413 98.63 48.938 86.45 35 86c-20.667-.667-25 4.667-24.031-23.18.311-8.938.581-22.5 1.031-31.82z" fill="#709da6"/><path d="M26.767 4.448s-4.844 2.594-5.225 7.272l-2.237-1.981 2.53-4.696 4.932-.595z" fill="#709da6"/><path d="M120.323 100.992c-10.582 4.17-38.208 2.065-49.3.373-14.144-2.158-23.122-11.175-36.937-13.442-6.793-1.115-15.759-.723-23.118-4.572" fill="none" stroke="#2e2f2f" stroke-width="6" stroke-linecap="round" stroke-linejoin="round" stroke-miterlimit="10"/><path d="M10.807 102.527c0 2.426 1.762 4.393 3.936 4.393h22.93c2.174 0 3.936-1.967 3.936-4.393V87.502c0-2.426-24.349-4.393-24.349-4.393-2.174 0-6.454 1.967-6.454 4.393v15.025z" fill="#2e2f2f"/></g></svg>