<svg xmlns="http://www.w3.org/2000/svg" xmlns:xlink="http://www.w3.org/1999/xlink" viewBox="0 0 128 128"><g id="Layer_2"><g><g><g><path d="M120.761 92.922l-3.072 16.498-2.531-.471a5.54 5.54 0 0 1-4.432-6.459l2.058-11.053 7.977 1.485z"/><path fill="#fbc11b" d="M89.419 87.749l-9.305 6.794-17.622-22.406 10.955-7.998z"/><path fill="#fbc11b" d="M112.785 91.435l-1.651 8.86-27.149-3.398 2.107-11.314z"/><circle cx="84.766" cy="91.146" r="5.754" fill="#fbc11b"/><circle cx="67.969" cy="68.138" r="6.782" fill="#fbc11b"/><path fill="#e0e0e0" d="M105.119 89.754l-1.782 9.565 7.797.976 1.651-8.86z"/><path d="M63.135 61.51a8.07 8.07 0 0 0-1.759 11.275l-.005.003 13.607 17.879 12.427-9.072-12.996-18.326a8.068 8.068 0 0 0-11.274-1.759z" fill="#e65100"/></g><g><path id="XMLID_1752_" fill="#fbc11b" d="M31.728 61.642l2.947 5.759 12.367-5.769-3.403-6.649z"/><path fill="#fbc11b" d="M48.66 60.167l-6.401-3.85 9.7-17.096 7.257 4.365z"/><circle cx="45.459" cy="58.242" r="3.735" fill="#fbc11b"/><path d="M25.939 69.51l-.101-.198a4.513 4.513 0 0 1 1.959-6.074l2.3-1.178a4.513 4.513 0 0 1 6.074 1.959l.101.198a4.513 4.513 0 0 1-1.959 6.074l-2.3 1.178a4.513 4.513 0 0 1-6.074-1.959z" fill="#fbc11b"/><circle cx="55.589" cy="41.404" r="4.233" fill="#fbc11b"/><path d="M58.417 36.707a5.111 5.111 0 0 0-7.015 1.746l-.003-.002-4.657 8.209 8.353 5.024 5.069-7.961a5.115 5.115 0 0 0-1.747-7.016z" fill="#04a287"/></g><g><path d="M57.85 128l-16.782-.036.006-2.575a5.54 5.54 0 0 1 5.551-5.527l11.243.024L57.85 128z"/><path fill="#fbc11b" d="M57.892 95.477l-9.723-6.181 14.422-24.589 11.447 7.278z"/><path fill="#fbc11b" d="M57.87 119.886l-9.013-.021-1.569-27.315 11.507.025z"/><circle cx="53.031" cy="92.386" r="5.754" fill="#fbc11b"/><circle cx="68.314" cy="68.346" r="6.782" fill="#fbc11b"/><path fill="#e0e0e0" d="M58.136 112.042l-9.73-.022.451 7.845 9.013.021z"/><path d="M72.718 61.425a8.069 8.069 0 0 0-11.138 2.48l-.005-.003L49.807 83.11l12.984 8.255 12.408-18.802a8.07 8.07 0 0 0-2.481-11.138z" fill="#ff6f00"/></g><g><path id="XMLID_1751_" d="M58.834 25.246l1.578 8.482a2.74 2.74 0 0 1-2.192 3.195l-2.247.418a2.74 2.74 0 0 1-3.045-1.676l-5.782-14.452 11.688 4.033z" fill="#fbc11b"/><path id="XMLID_1750_" d="M57.908 14.918l1.742 17.393-11.337 1.223c-5.271.569-9.946-3.388-10.255-8.68l-.375-6.412c-.347-5.929 4.497-10.864 10.432-10.626l2.356.094a7.791 7.791 0 0 1 7.437 7.008z" fill="#fbc11b"/><path id="XMLID_1749_" d="M59.493 26.678l-5.394-.413-.653-3.694a3.435 3.435 0 0 0-2.302-2.662h-.001l-.848 4.227a3.608 3.608 0 0 1-2.936-1.959l-1.136-2.229a3.35 3.35 0 0 0-2.494-1.793l-6.051-.895s-.773-8.217 7.238-10.019A41.98 41.98 0 0 1 49 6.54c6.155-.754 11.545 4.132 11.417 10.332v.002a66.988 66.988 0 0 1-.925 9.803l.001.001z" fill="#6d4c41"/><path id="XMLID_1748_" d="M42.272 22.033c.062.773-.405 1.44-1.047 1.492-.639.051-1.21-.533-1.272-1.306-.062-.775.407-1.443 1.046-1.494.643-.051 1.211.533 1.273 1.308" fill="#c07b47"/></g><path d="M57.49 33.288l-2.086.577c-4.136.512-6.195 4.654-4.849 8.693 2.627 8.503 4.371 17.056 5.232 25.517a2.069 2.069 0 0 0 2.609 1.795 4513.227 4513.227 0 0 0 17.555-4.919c-1.864-9.012-4.725-18.107-8.581-27.116-1.522-4.021-6.269-6.247-9.88-4.547z" fill="#00bea4"/><g><path id="XMLID_1753_" fill="#fbc11b" d="M86.317 57.39l4.714-4.431-8.978-10.278-5.442 5.117z"/><path fill="#fbc11b" d="M80.196 41.535l-1.92 7.218-19.118-4.567 2.177-8.185z"/><circle cx="79.236" cy="45.144" r="3.735" fill="#fbc11b"/><path d="M95.491 60.599l-.162.152a4.512 4.512 0 0 1-6.379-.195l-1.77-1.882a4.512 4.512 0 0 1 .195-6.379l.162-.152a4.512 4.512 0 0 1 6.379.195l1.77 1.882a4.514 4.514 0 0 1-.195 6.379z" fill="#fbc11b"/><circle cx="60.247" cy="40.092" r="4.233" fill="#fbc11b"/><path d="M54.948 38.68a5.112 5.112 0 0 0 3.626 6.254l-.001.004 9.18 2.193 2.505-9.42-9.056-2.657a5.113 5.113 0 0 0-6.254 3.626z" fill="#04a287"/></g><g><g><g><g><defs><path id="SVGID_1_" d="M37.668 92.006c0 7.04-5.878 12.749-13.127 12.749-7.248 0-13.122-5.708-13.122-12.749 0-7.04 5.874-12.747 13.122-12.747 7.249-.001 13.127 5.706 13.127 12.747z"/></defs><use xlink:href="#SVGID_1_" overflow="visible" fill="#ed6c30"/><clipPath id="SVGID_2_"><use xlink:href="#SVGID_1_" overflow="visible"/></clipPath><g clip-path="url(#SVGID_2_)" fill="#f79329"><path d="M21.805 105.461s-7.656-8.213-4.645-20.088c1.25-4.931 5.282-6.376 5.282-6.376h2.78s-5.513 1.052-6.66 7.177c-2.102 11.225 7.372 19.604 7.372 19.604l-4.129-.317z"/><path d="M15.887 81.776s-.278 2.182 2.628 2.182c6.11 0 9.518-3.972 14.411-2.722l-2.549-1.275s-1.466-.28-2.742.13c-1.276.41-5.78 2.736-8.608 2.778-3.009.045-1.805-2.049-1.805-2.049l-1.335.956z"/><path d="M10.966 95.963s1.132-6.785 6.312-7.342c4.365-.47 7.458 1.585 10.424 3.73 5.345 3.869 7.86 8.782 7.86 8.782l-1.831 2.736s-1.407-4.407-7.591-10.168c-2.327-2.168-5.537-3.871-8.862-3.551-5.223.507-4.528 9.335-4.528 9.335l-1.784-3.522z"/><path d="M10.505 88.253s1.973-2.591 7.328-3.053c12.51-1.079 21.132 7.815 21.132 7.815l.671 4.234s-9.829-11.608-21.895-10.682c-5.83.448-7.235 4.019-7.235 4.019v-2.333z"/></g></g></g></g><g><path d="M37.668 92.006c0 7.04-5.878 12.749-13.127 12.749-7.248 0-13.122-5.708-13.122-12.749 0-7.04 5.874-12.747 13.122-12.747 7.249-.001 13.127 5.706 13.127 12.747z" fill="none"/></g></g></g></g></g></svg>