<svg id="图层_1" xmlns="http://www.w3.org/2000/svg" viewBox="0 0 128 128"><g><path d="M4.421 100.594c-2.05-.827-3.078-3.125-2.357-5.215 22.458-65.101 59.032-60.742 59.032-60.742 41.775.962 59.975 46.746 64.527 60.581a4.129 4.129 0 0 1-2.608 5.203l-63.289 21.415a4.141 4.141 0 0 1-2.875-.082l-52.43-21.16z" fill="#fcc21b"/><path d="M61.158 34.328s-6.913 3.761-7.947 33.759c-.784 22.746 6.513 53.724 6.513 53.724l63.626-21.506a4.13 4.13 0 0 0 2.706-4.86c-3.09-13.153-16.91-57.471-64.898-61.117z" fill="#e89f0f"/><path d="M66.923 10.614c1.172.125 2.291.493 3.522.699 6.373 1.068 31.874 4.691 33.413 5.301.677.267 1.617.719 1.823 1.495.316 1.175-1.162 1.696-1.978 2.11-3.484 1.759-29.815 10.531-33.593 11.774-1.222.409-2.277.994-3.585 1.045-1.206.048-2.589.811-3.696.048-1.069-.735-1.134-1.759-1.131-2.951.005-1.236-.207-2.505-.325-3.725-.111-1.218 0-2.499 0-3.722 0-1.333.165-2.573.165-3.921 0-1.469.032-2.893.16-4.334.094-1.014.3-2.212.856-3.028.436-.653.937-1.136 1.73-1.289.965-.188 1.709.392 2.639.498" fill="#ed6c30"/><path d="M60.719 38.768c-1.347 0-2.442-1.338-2.442-2.995V9.936c0-1.649 1.095-2.99 2.442-2.99 1.354 0 2.445 1.34 2.445 2.99v25.837c-.001 1.657-1.091 2.995-2.445 2.995" fill="#855c52"/><path d="M109.176 105.068s-7.762-38.584-23.179-34.356c-13.15 3.606-6.076 44.244-6.076 44.244l29.255-9.888z" fill="#855c52"/></g></svg>