<svg id="レイヤー_1" xmlns="http://www.w3.org/2000/svg" xmlns:xlink="http://www.w3.org/1999/xlink" viewBox="0 0 128 128"><g><g><path d="M107.876 123.449c-1.607 0-3.279-.209-4.967-.629-14.535-3.562-14.402-17.904-14.307-28.379.018-2.326.037-4.52-.062-6.551-1.004-19.361-4.07-26.535-11.727-27.42a4.576 4.576 0 0 1-4.023-5.07c.289-2.516 2.572-4.303 5.072-4.023 16.666 1.922 18.963 19.611 19.815 36.041.127 2.307.1 4.746.08 7.107-.109 11.941.576 17.752 7.326 19.408 1.994.488 4.797.729 6.84-.889 1.791-1.418 2.789-4.129 2.756-7.449-.096-9.32-1.494-18.613-2.838-26.475-2.408-14.041-5.523-22.908-5.557-22.998a4.583 4.583 0 0 1 2.779-5.848 4.585 4.585 0 0 1 5.85 2.779c.135.383 3.391 9.633 5.955 24.523 1.406 8.215 2.852 17.961 2.965 27.924.072 6.254-2.145 11.482-6.215 14.719-2.699 2.133-6.049 3.23-9.742 3.23z" fill="#78a3ad"/><g><g><defs><path id="SVGID_1_" d="M92.571 34.129c-2.6 4.166-1.502 9.1-1.059 13.428.383 3.594 1.641 7.857 4.652 10.4 4.395 3.695 14.51 2.936 19.918.723 7.174-2.916 1.209-19.738.131-24.4-2.01-8.709-4.074-16.086-10.029-25.322-1.34-2.084-3.432-4.447-5.445-6.73-.516-.586-2.42-2.119-4.084-1.59-1.338.426-2.635 1.742-3.814 2.84-2.387 2.227-.426 4.377.344 5.234 3.311 3.668 7.1 9.193 8.131 11.785.752 1.863 2.289 5.598 1.465 7.615-.221.543-5.586 2.156-6.545 2.748-.762.471-1.488.963-2.137 1.525a7.478 7.478 0 0 0-1.528 1.744zm4.135 9.18c-.637-4.33 4.809-5.789 6.783-1.57 1.193 2.545 5.334 13.254-2.078 11.43-1.906-.473-2.959-1.9-3.584-3.602-.746-2.073-.875-4.557-1.121-6.258z"/></defs><use xlink:href="#SVGID_1_" overflow="visible" fill="#ed6c30"/><clipPath id="SVGID_2_"><use xlink:href="#SVGID_1_" overflow="visible"/></clipPath><path clip-path="url(#SVGID_2_)" fill="#78a3ad" d="M102.673 24.395l9.769-2.842 3.575-4.051L98.272-2.262l-8.777 5.95 1.318 7.865 9.17 12.808z"/></g><path d="M10.79 127.473V25.938c0-9.965 8.154-18.117 18.117-18.117h35.361c9.973 0 18.125 8.152 18.125 18.117v101.535H10.79z" fill="#ed6c30"/><path d="M10.79 127.473V25.938c0-9.965 8.154-18.117 18.117-18.117h35.361c9.973 0 18.125 8.152 18.125 18.117v101.535H10.79z" fill="#ed6c30"/><path fill="#2f2f2f" d="M22.776 30.355h47.631v22.057H22.776z"/></g></g><g fill="#fff"><path d="M30.415 37.566h5.039v7.824h-5.039z"/><path d="M43.517 37.566h5.029v7.824h-5.029z"/><path d="M56.62 37.566h5.035v7.824H56.62z"/></g></g></svg>