<svg id="レイヤー_1" xmlns="http://www.w3.org/2000/svg" xmlns:xlink="http://www.w3.org/1999/xlink" viewBox="0 0 128 128"><g><path d="M62.535 83.846L34.088 123c-5.514-4.006-6.736-11.724-2.73-17.238l25.381-34.934" fill="#c2c2c2" stroke="#c2c2c2" stroke-width="5" stroke-miterlimit="10"/><path d="M71.977 49.854c5.514 4.006 6.736 11.724 2.73 17.238l-3.796 5.225L65.115 59.3 85 32" fill="#c2c2c2" stroke="#c2c2c2" stroke-width="5" stroke-miterlimit="10"/><g><defs><path id="SVGID_1_" d="M72 46c7.063 5.132 10.132 14.937 5 22l-4.863 6.693L63.209 58.1 72 46z"/></defs><clipPath id="SVGID_2_"><use xlink:href="#SVGID_1_" overflow="visible"/></clipPath><path clip-path="url(#SVGID_2_)" fill="none" stroke="#999" stroke-width="4" stroke-miterlimit="10" d="M76.062 71.812L62.535 53.438"/></g></g><path fill="#c2c2c2" stroke="#c2c2c2" stroke-width="5" stroke-miterlimit="10" d="M41 36l13 17"/><path fill="#231815" d="M63.046 72.666"/><path d="M55.023 49.854c-5.514 4.006-6.736 11.724-2.73 17.238L92.912 123c5.514-4.006 6.736-11.724 2.73-17.238L42.963 34.126" fill="#c2c2c2" stroke="#c2c2c2" stroke-width="5" stroke-miterlimit="10"/><circle cx="63.257" cy="71.257" r="2.743" fill="#2f2f2f"/><path fill="#c2c2c2" stroke="#c2c2c2" stroke-width="5" stroke-miterlimit="10" d="M83 38L70 55"/><path d="M88 40l-6.376 7.173a2 2 0 0 1-3.093-.126l-3.843-5.109L80 33l8 7z" fill="#dd5322"/><path d="M38.375 40l6.339 7.131a2 2 0 0 0 3.119-.162l3.792-5.281L46.375 33l-8 7z" fill="#dd5322"/><g><g><path d="M32.535 43.246c-7.22 0-14.25-3.744-18.112-10.433-5.755-9.968-2.328-22.759 7.64-28.514 9.968-5.756 22.759-2.327 28.514 7.64 5.755 9.968 2.328 22.759-7.64 28.514a20.738 20.738 0 0 1-10.402 2.793zm-.055-32.741c-2.013 0-4.052.512-5.917 1.588-5.67 3.274-7.62 10.55-4.346 16.22 3.274 5.67 10.551 7.619 16.22 4.346 5.67-3.274 7.62-10.55 4.346-16.22-2.197-3.804-6.197-5.934-10.303-5.934z" fill="#dd5322"/></g><g><path d="M95.465 43.246c-3.539 0-7.123-.899-10.402-2.792-9.968-5.755-13.395-18.546-7.64-28.514S95.969-1.456 105.937 4.3c9.968 5.755 13.395 18.546 7.64 28.514-3.861 6.688-10.893 10.432-18.112 10.432zm.055-32.741c-4.107 0-8.106 2.129-10.303 5.935-3.273 5.67-1.324 12.946 4.346 16.22 5.67 3.273 12.947 1.323 16.22-4.346 3.273-5.67 1.324-12.946-4.346-16.22a11.8 11.8 0 0 0-5.917-1.589z" fill="#dd5322"/></g></g></svg>