<svg id="レイヤー_1" xmlns="http://www.w3.org/2000/svg" viewBox="0 0 128 128"><path d="M33.411 35.089a3.5 3.5 0 0 1 0-4.95l6.364-6.364a3.5 3.5 0 1 1 4.95 4.95l-6.364 6.364a3.5 3.5 0 0 1-4.95 0z" fill="#78a3ad"/><path d="M52.661 35.089a3.5 3.5 0 0 1 0-4.95l6.364-6.364a3.5 3.5 0 1 1 4.95 4.95l-6.364 6.364a3.5 3.5 0 0 1-4.95 0z" fill="#78a3ad"/><path d="M93.531 73.844a3.5 3.5 0 0 1 0-4.95l6.364-6.364a3.5 3.5 0 1 1 4.95 4.95l-6.364 6.364a3.5 3.5 0 0 1-4.95 0z" fill="#78a3ad"/><path d="M93.02 93.344a3.5 3.5 0 0 1 0-4.95l6.364-6.364a3.5 3.5 0 1 1 4.95 4.95l-6.364 6.364a3.5 3.5 0 0 1-4.95 0z" fill="#78a3ad"/><path d="M96.685 35.315s3.667 45 0 79.979c-.598 5.702-8.618 7.095-9.776 1.48-6.557-31.792-20.724-49.959-20.724-49.959l30.5-31.5z" fill="#016ca2"/><path d="M92.716 31.944s-45-3.667-79.979 0c-5.702.598-7.095 8.618-1.48 9.776 31.792 6.557 49.959 20.724 49.959 20.724l31.5-30.5z" fill="#016ca2"/><path d="M43 85H8.018c-3.941 0-5.507 5.097-2.246 7.31L23 104l20-19z" fill="#016ca2"/><path d="M43 85v34.982c0 3.941-5.097 5.507-7.31 2.246L24 105l19-20z" fill="#016ca2"/><path d="M90.287 18.389L26.751 85.243A10.003 10.003 0 0 0 24 92.132V98a6 6 0 0 0 6 6h5.868c2.564 0 5.03-.985 6.889-2.751l66.854-63.535a19.996 19.996 0 0 0 5.93-11.092l1.51-8.739c.706-4.087-2.847-7.64-6.934-6.934l-8.739 1.51a19.99 19.99 0 0 0-11.091 5.93z" fill="#40c0e7"/><path d="M47.022 81.874L21.171 107.78c0 .001 2.338-13.604 25.851-25.906z" fill="#78a3ad"/><path d="M47.022 81.874L21.171 107.78c0 .001 13.397-2.164 25.851-25.906z" fill="#016ca2"/><path d="M99 19.702l2.292-.244c4.952-.371 8.719 4.368 7.24 9.109" fill="none" stroke="#016ca2" stroke-width="3" stroke-linecap="round" stroke-miterlimit="10"/></svg>