<svg id="Layer_1" xmlns="http://www.w3.org/2000/svg" viewBox="0 0 128 128"><g><path d="M110.437 62.095c-1.508-6.116-5.871-10.036-11.257-12.8 1.229-6.82 2.437-18.617 2.332-22.054-.13-4.045-.576-9.413-8.899-10.305-5.418-.581-9.869 1.483-10.483 8.402-.229 2.58-.397 5.253-.521 7.864l-3.024-.926c.056-2.408.1-4.598.119-6.257.077-7.014-3.662-10.974-11.07-10.947-6.493.024-9.558 5.627-9.793 9.698-.12 2.148.234 8.226.798 14.195l-1.276.622-.379.265a494.39 494.39 0 0 0-1.658-9.915c-1.224-6.837-5.773-10.088-11.169-9.32-6.56.934-8.342 6.819-8.208 10.863.105 3.021 1.767 13.678 3.304 20.779l-1.995 1.396-.251-1.579-.044-.272a351.17 351.17 0 0 0-.236-1.443l-.054-.329c-.093-.561-.188-1.129-.286-1.704l-.011-.067a445.84 445.84 0 0 0-.316-1.831l-.062-.347c-.084-.475-.168-.95-.254-1.423l-.103-.565a239.772 239.772 0 0 0-.562-2.974l-.108-.554c-.109-.551-.219-1.093-.328-1.614-1.304-6.249-4.154-8.621-9.105-7.848-6.946 1.085-8.476 8.091-8.137 11.792.341 3.714 2.935 16.238 4.722 20.334.115.263.245.51.386.744l-2.058 1.44c1.28 18.39 8.958 31.6 8.958 31.6 6.094 10.798 10.76 12.593 18.164 14.366 8.416 2.015 18.402 1.504 19.985 1.441 16.77-.677 27.602-4.428 36.576-17.996 2.163-3.27 5.964-8.061 7.158-18.66.461-4.119.152-9.984-.855-14.071z" fill="#fac036"/><path d="M82.552 46.817s8.432-.171 16.597 2.469l.508-2.945s-5.809-2.09-14.414-2.792a48.585 48.585 0 0 0-3.889-.162l.164-2.632.948-17.561s-.26 1.319-2.223 1.319c-.816 0-1.368-.485-1.679-.868.099.748.148 1.538.139 2.374l-.422 17.442c-.493.023-.98.045-1.504.077-7.117.429-13.964 2.094-16.555 6.097A555.296 555.296 0 0 1 57.84 24.77c-.926 2.281-3.733 1.32-3.733 1.32 2.44 8.862 3.732 30.377 3.732 30.377.813 9.072-5.32 10.309-5.32 10.309-7.403 1.691-10.798-6.374-10.798-6.374-.632-1.058-2.562-10.689-3.877-17.525l-1.295-6.86v-.002l-.365-1.933c.032.208.069 1.032-1.276 1.339-.645.147-1.118.012-1.408-.13.463 1.029.845 2.24 1.141 3.662.675 3.235 2.266 12.995 2.416 13.759l.343 2.453c1.076 8.112-.365 10.069-.365 10.069-2.372 4.506-8.109 3.223-8.109 3.223-5.506-.957-7.264-7.073-7.264-7.073-.717-2.323-3.695-14.674-3.695-14.674l2.482 18.705c.426 1.327 1.01 1.817 1.602 2.537 5.402 6.567 12.745 3.79 12.745 3.79 2.832-1.031 4.073-3.169 4.073-3.169.795-1.286 1.196-2.751 1.362-4.243 4.063 7.647 12.226 6.408 12.226 6.408 5.041-1.002 7.152-4.635 8.043-7.52.209.262.41.525.654.783 0 0 3.246 4.894 17.108 3.086 4.65-.606 5.315-.543 8.246-.042 0 0 6.298 1.741 4.296 6.971 0 0-.455 1.764-2.618 4.496 0 0-1.707 2.213.995 2.155.807-.017 2.271-.577 3.558-1.703 0 0 1.366-1.135 2.128-3.963 0 0 2.909-7.312-4.432-10.944-3.841-1.9-6.402-1.525-10.294-.942 0 0-12.383 1.17-16.367-2.074 0 0-3.666-3.189-1.426-8.3 0 .003 3.815-6.948 20.204-5.924z" fill="#e48c15"/></g></svg>