<svg id="Layer_1" xmlns="http://www.w3.org/2000/svg" viewBox="0 0 128 128"><g><g><path d="M40.005 57.693c-1.457 0-1.427-1.603-1.427-1.603s-.113-26.086-.381-27.496c-.378-1.99-1.661-5.752-6.692-5.511-2.092.1-6.121.906-6.565 7.866-.096 1.498.183 42.015.286 44.288 0 0 .84 17.957 3.304 26.727.684 2.435 1.513 5.109 2.922 7.757 1.4 2.642 3.276 5.31 5.736 7.616 2.431 2.332 5.432 4.244 8.666 5.621 3.245 1.367 6.706 2.18 10.149 2.595.86.092 1.723.18 2.581.219l2.434.156c1.704.092 3.379.089 5.04.03a62.293 62.293 0 0 0 9.699-1.08c3.118-.613 6.092-1.475 8.822-2.556 2.73-1.081 5.199-2.417 7.307-3.894a27.195 27.195 0 0 0 5.216-4.644c1.4-1.53 2.312-3.103 3.03-4.367.678-1.298 1.105-2.352 1.342-3.089l.372-1.117 1.489-3.425a846.675 846.675 0 0 0 4.171-9.689c.617-1.449.893-2.111.893-2.111l-.01.024c5.285-12.522 10.586-25.571 10.586-25.571 1.023-2.209-.479-4.726-3.016-5.056-7.313-.951-12.935 2.377-15.972 8.706l-6.188 14.534c-.576 1.735-3.424 1.692-3.669-.115-.77-5.685-.815-19.399-.815-19.399-.316-5.819-1.01-39.782-1.159-41.951-.299-4.353-2.195-8.227-5.979-8.679-3.861-.462-6.938 1.545-7.387 6.453-.122 1.335.069 36.205.069 36.205.02 2.026-2.598 2.406-2.751.32 0 0-.511-43.091-.495-45.077.035-4.502-3.047-8.38-7.03-8.379-3.892.001-6.832 3.241-6.909 7.859-.025 1.467.152 32.018.087 44.398-.004.828-.243 1.717-1.376 1.717-.01 0-1.251.094-1.251-1.5 0-3.342-.408-36.309-.455-38.122-.109-4.149-2.009-7.844-6.273-7.893-3.892-.045-7.36 2.984-7.163 7.599l.208 40.24c.001-.001-.071 1.394-1.446 1.394z" fill="#fac036"/></g><path d="M89.431 70.584v3.417s-18.557.283-25.447 20.953c0 0-.849 2.643-2.265 1.888 0 0-1.51-.378 0-4.247 0 0 6.135-20.009 27.712-22.011z" fill="#e48c15"/></g></svg>