<svg id="Layer_1" xmlns="http://www.w3.org/2000/svg" viewBox="0 0 128 128"><g><path d="M93.168 2.564c-3.821-1.242-7.054-.43-9.609 2.419-1.688 1.879-2.43 5.658-3.46 10.886-.29 1.474-.6 3.05-.956 4.7-.473 2.176-1.101 5.19-1.781 8.443-1.549 7.422-3.48 16.658-4.209 19.044l-.23.774c-.947 3.214-1.819 5.525-4.336 5.96-2.452-.197-3.591-2.34-4.902-5.351l-.326-.742c-1.021-2.283-4.091-11.239-6.559-18.433-1.07-3.121-2.06-6.008-2.794-8.095a254.038 254.038 0 0 1-1.529-4.541c-1.672-5.063-2.878-8.722-4.787-10.38-2.887-2.51-6.193-2.914-9.834-1.208-6.1 2.872-3.445 11.555-1.857 16.743l.435 1.44c2.684 9.13 9.662 28.704 10.552 30.644.749 1.628 2.085 5.574 3.059 8.454l.767 2.25c.239.687 1.184 2.822 1.184 2.822l.066.15-1.353.732a758.782 758.782 0 0 0-3.374-8.98c-2.015-5.198-6.648-6.112-10.741-4.573-4.539 1.687-4.829 7.173-3.789 10.249.559 1.645 2.64 6.11 4.813 10.387l-1.756.95a113.43 113.43 0 0 0-1.941-3.863c-2.402-4.525-5.898-5.239-9.593-3.652-4.092 1.752-3.904 7.769-2.815 10.546.321.819.967 2.188 1.771 3.774l-.001.001s3.48 13.683 5.927 21.164l.079.283.013-.002.001.003-.014-.001.163.453c.381 1.13.733 2.096 1.034 2.789.62 1.632.642 1.892 1.117 2.818 4.683 9.132 13.979 14.262 24.089 14.262 1.277 0 24.815 2.426 36.583-14.456 1.799-2.581 3.642-6.519 4.184-15.344.204-3.321.124-8.013-.684-11.293-1.411-5.721-5.333-9.41-10.189-11.933l1.269-6.611.017-.056s.671-2.232.823-2.943l.482-2.323c.611-2.981 1.447-7.065 1.986-8.775.644-2.031 5.141-22.317 6.671-31.718l.252-1.483c.931-5.351 2.49-14.295-3.918-16.384z" fill="#fac036"/><path d="M68.229 67.47s9.945 1.678 17.271 5.336l.692-3.362s-6.533-2.939-14.03-4.346c-2.519-.473-5.8-1.379-8.301-1.382-4.254-.005-8.341.894-11.201 2.616l-5.041-10.083s.012 1.078-.499 1.391c-.642.392-1.325-.072-1.325-.072-.036-.005-.042.029-.055.055a9.162 9.162 0 0 1 1.595 2.669 709 709 0 0 1 2.998 7.965c-.211.247-.44.484-.611.75 0 0-3.866 5.505.395 11.165 0 0 1.273 2.009 5.836 3.295 1.319 4.83-2.555 6.884-2.555 6.884-5.422 2.782-9.661-2.816-9.661-2.816-.87-.866-3.484-5.808-4.54-7.836l-4.505-9.335s-.045 1.055-.556 1.367c-.642.392-1.325-.072-1.325-.072-.025-.004-.025.026-.038.038.403.51.791 1.073 1.149 1.747 1.677 3.161 3.568 7.276 4.997 10.503l.002-.035.678 1.571c2.574 5.615 1.894 7.057 1.894 7.057-.821 4.004-5.53 4.296-5.53 4.296-4.458.493-7.607-4.415-7.607-4.415-1.072-1.631-5.073-8.309-5.073-8.309l1.952 7.431c2.337 4.564 5.065 6.275 5.065 6.275 5.664 3.807 10.922.239 10.922.239 1.952-1.428 2.431-3.353 2.431-3.353.315-1.132.306-2.311.119-3.462 5.203 4.623 10.624 2.106 10.624 2.106 4.603-2.459 4.696-7.096 4.456-9.26.675.106 1.38.201 2.155.27 3.866.344 6.292.552 8.656 1.237 0 0 6.516 1.855 7.039 6.135 0 0 .074 1.941-1.094 4.281 0 0-.598 1.918.618 2.331.633.215 2.163-.194 3.085-1.07 0 0 1.101-.88 1.529-3.128 0 0 1.047-3.364-2.188-6.884 0 0-2.205-2.612-5.422-3.729-3.424-1.189-4.637-1.705-10.309-2.263 0 0-6.1-.405-9.81-3.044 0 0-3.079-2.405-.761-6.401.001-.001 3.449-6.144 15.879-4.353z" fill="#e39e49"/><path d="M93.168 2.564c-3.821-1.242-7.054-.43-9.609 2.419-1.688 1.879-2.43 5.658-3.46 10.886-.29 1.474-.6 3.05-.956 4.7-.473 2.176-1.101 5.19-1.781 8.443-1.549 7.422-3.48 16.658-4.209 19.044l-.23.774c-.947 3.214-1.819 5.525-4.336 5.96-2.452-.197-3.591-2.34-4.902-5.351l-.326-.742c-1.021-2.283-4.091-11.239-6.559-18.433-1.07-3.121-2.06-6.008-2.794-8.095a254.038 254.038 0 0 1-1.529-4.541c-1.672-5.063-2.878-8.722-4.787-10.38-2.887-2.51-6.193-2.914-9.834-1.208-6.1 2.872-3.445 11.555-1.857 16.743l.435 1.44c2.684 9.13 9.662 28.704 10.552 30.644.749 1.628 2.085 5.574 3.059 8.454l.767 2.25c.239.687 1.184 2.822 1.184 2.822l.066.15-1.353.732a758.782 758.782 0 0 0-3.374-8.98c-2.015-5.198-6.648-6.112-10.741-4.573-4.539 1.687-4.829 7.173-3.789 10.249.559 1.645 2.64 6.11 4.813 10.387l-1.756.95a113.43 113.43 0 0 0-1.941-3.863c-2.402-4.525-5.898-5.239-9.593-3.652-4.092 1.752-3.904 7.769-2.815 10.546.321.819.967 2.188 1.771 3.774l-.001.001s3.48 13.683 5.927 21.164l.079.283.013-.002.001.003-.014-.001.163.453c.381 1.13.733 2.096 1.034 2.789.62 1.632.642 1.892 1.117 2.818 4.683 9.132 13.979 14.262 24.089 14.262 1.277 0 24.815 2.426 36.583-14.456 1.799-2.581 3.642-6.519 4.184-15.344.204-3.321.124-8.013-.684-11.293-1.411-5.721-5.333-9.41-10.189-11.933l2.591-11.933c.611-2.981 1.447-7.065 1.986-8.775.644-2.031 5.141-22.317 6.671-31.718l.252-1.483c.931-5.351 2.49-14.295-3.918-16.384z" fill="#fac036"/><path d="M68.229 67.47s10.031 1.726 17.357 5.383l.73-3.364s-6.658-2.985-14.155-4.392c-2.519-.473-5.8-1.379-8.301-1.382-4.254-.005-8.341.894-11.201 2.616l-5.041-10.083s.012 1.078-.499 1.391c-.642.392-1.325-.072-1.325-.072-.036-.005-.042.029-.055.055a9.162 9.162 0 0 1 1.595 2.669 709 709 0 0 1 2.998 7.965c-.211.247-.44.484-.611.75 0 0-3.866 5.505.395 11.165 0 0 1.273 2.009 5.836 3.295 1.319 4.83-2.555 6.884-2.555 6.884-5.422 2.782-9.661-2.816-9.661-2.816-.87-.866-3.484-5.808-4.54-7.836l-4.505-9.335s-.045 1.055-.556 1.367c-.642.392-1.325-.072-1.325-.072-.025-.004-.025.026-.038.038.403.51.791 1.073 1.149 1.747 1.677 3.161 3.568 7.276 4.997 10.503l.002-.035.678 1.571c2.574 5.615 1.894 7.057 1.894 7.057-.821 4.004-5.53 4.296-5.53 4.296-4.458.493-7.607-4.415-7.607-4.415-1.072-1.631-5.073-8.309-5.073-8.309l1.952 7.431c2.337 4.564 5.065 6.275 5.065 6.275 5.664 3.807 10.922.239 10.922.239 1.952-1.428 2.431-3.353 2.431-3.353.315-1.132.306-2.311.119-3.462 5.203 4.623 10.624 2.106 10.624 2.106 4.603-2.459 4.696-7.096 4.456-9.26.675.106 1.38.201 2.155.27 3.866.344 6.292.552 8.656 1.237 0 0 6.516 1.855 7.039 6.135 0 0 .074 1.941-1.094 4.281 0 0-.598 1.918.618 2.331.633.215 2.163-.194 3.085-1.07 0 0 1.101-.88 1.529-3.128 0 0 1.047-3.364-2.188-6.884 0 0-2.205-2.612-5.422-3.729-3.424-1.189-4.637-1.705-10.309-2.263 0 0-6.1-.405-9.81-3.044 0 0-3.079-2.405-.761-6.401.002 0 3.45-6.143 15.88-4.352z" fill="#e48c15"/></g></svg>