<svg id="图层_1" xmlns="http://www.w3.org/2000/svg" xmlns:xlink="http://www.w3.org/1999/xlink" viewBox="0 0 128 128"><g><defs><path id="SVGID_1_" d="M.062 0H128v128H.062z"/></defs><clipPath id="SVGID_2_"><use xlink:href="#SVGID_1_" overflow="visible"/></clipPath><path d="M25.124 96.062s-2.666 14.989 10.957 10.457c22.455-7.47 23.541.682 30.435 3.489 10.293 4.19 21.864 3.734 33.817-9.193C112.786 87.346 68.955 83.606 57 82.361 45.046 81.117 26.369 95.81 26.369 95.81" clip-path="url(#SVGID_2_)" fill="#e48c15"/><path d="M6.923 103.331L.758 121.088v1.119s-2.955 7.396 3.301 2.166c.42-.043.852-.188.852-.188s16.797-13.557 17.358-13.744c.561-.185 8.081-12.015 8.081-12.015s-14.249-11.395-16.597-7.784c-2.348 3.613-6.83 12.689-6.83 12.689z" clip-path="url(#SVGID_2_)" fill="#006ca0"/><path d="M69.96 47.404s-21.872-11.163-31.597-4.141c-8.558 6.18-15.615 9.713-19.921 12.205-4.309 2.49-10.592 2.006-11.458 13.696-.745 10.087-.753 18.607-2.365 22.041-4.557 9.711 7.659 16.342 12.203-1.869 4.658-15.438 18.055-2.242 28.515-4.731 10.461-2.491 29.838-21.237 32.049-26.274 3.033-6.911-7.426-10.927-7.426-10.927z" clip-path="url(#SVGID_2_)" fill="#e48c15"/><path d="M16.106 85.227S65.815 8.958 70.245 3.979c3.962-4.452.973-4.638 15.386 4.482 3.621 2.291-53.867 80.065-53.867 80.065l-16.558-1.498.9-1.801" clip-path="url(#SVGID_2_)" fill="#006ca0"/><path d="M54.303 59.7s-8.467 12.452-18.928 17.432c-10.458 4.981-23.409 6.974-21.417 15.441 1.994 8.468 11.954 14.445 27.893 2.491 8.468-5.479 13.448-.995 20.918 2.491 7.47 3.485 8.964 9.463 27.394 6.475 18.43-2.989 20.265.435 28.391 4.482 7.969-4.981 8.965-19.925 8.965-29.387s-1.148-8.246-12.452-9.462c-8.964-2.991-33.009-14.983-39.441-19.008-2.593-1.623-8.744-6.082-16.464 2.786" clip-path="url(#SVGID_2_)" fill="#fac036"/></g></svg>