<svg id="レイヤー_1" xmlns="http://www.w3.org/2000/svg" xmlns:xlink="http://www.w3.org/1999/xlink" viewBox="0 0 128 128"><g><g><g><defs><path id="SVGID_1_" d="M17.73 68.851L.627 121.906s-.536 2.543.918 3.444 2.904.17 2.904.17l53.714-20.369-11.014-30.074-29.419-6.226z"/></defs><use xlink:href="#SVGID_1_" overflow="visible" fill="#fcd4b5"/><clipPath id="SVGID_2_"><use xlink:href="#SVGID_1_" overflow="visible"/></clipPath><path d="M4.313 106.579c-1.506 4.823-2.985 9.637-4.053 13.277a203.914 203.914 0 0 0-.838 2.926c-.484 1.734-.323 3.76.153 4.193.778.705 1.603 1.012 2.445.9l.186-.037c1.757-.357 8.761-3.084 16.751-6.375-2.805-6.251-8.983-12.323-14.644-14.884z" clip-path="url(#SVGID_2_)" fill="#006ca2"/></g></g><g><path d="M119.694 36.902a26.946 26.946 0 0 1-.106-1.145c-.068-1.148-.196-2.263-.319-3.368-.132-1.148-.259-2.288-.327-3.453l-.017-.327a9.567 9.567 0 0 0-.013-.195L56.173 85.921c.323 1.378.404 4.125.48 6.796.055 1.965.111 3.822.255 4.907.034.11.396.085 1.259-.766 6.621-6.481 42.606-39.021 54.433-49.712l3.717-3.352c1.476-1.309 3.309-2.934 3.479-4.737.064-.663-.021-1.419-.102-2.155z" fill="#bdcf46"/><path d="M95.233 10.387a31.726 31.726 0 0 0 1.922-.191 32.844 32.844 0 0 1 1.718-.161l-61.934 58.09a5.127 5.127 0 0 0-.604-.19c-1.36-.324-2.789-.401-4.167-.473-1.246-.064-2.433-.124-3.568-.353.179-.214.532-.537 1.212-1.013 1.166-.825 5.784-5.188 10.249-9.416 2.207-2.083 4.342-4.099 5.902-5.541l6.256-5.778c10.112-9.357 25.396-23.495 31.613-28.952a96.024 96.024 0 0 0 1.629-1.479c1.365-1.267 2.658-2.458 4.227-3.495.613-.4 1.153-.494 1.906-.625l.395-.073c1.101-.206 2.211-.291 3.244-.35z" fill="#bdcf46"/><path d="M40.014 80.997c-.302-2.53-.562-7.374-.417-8.863a3.774 3.774 0 0 0-.081-1.208l63.661-59.705c.038.034.081.055.119.089 3.189 2.939 11.618 10.916 13.919 13.493L53.184 83.497c-2.045-.493-4.282-.851-6.838-1.089-.259-.025-.655-.042-1.127-.063-1.208-.055-3.036-.132-4.193-.46-.906-.259-1.008-.884-1.012-.888z" fill="#bdcf46"/><g><path d="M127.421 32.525a65.214 65.214 0 0 0-.858-7.965l-.103-.658c-.17-1.132-.357-2.416-1.063-3.301-2.198-2.764-5.23-5.563-8.182-8.174a118.082 118.082 0 0 1-2.973-2.751c-2.126-2.012-4.325-4.087-6.706-5.72-1.735-1.183-3.985-1.757-6.877-1.757-2.381 0-4.903.388-7.131.736-1.127.17-2.203.34-3.194.447-1.607.174-3.219.862-4.92 2.112-.417.306-20.127 18.363-49.589 45.376-5.541 5.086-16.772 14.156-17.814 16.652-.365.867-.434 1.786-.029 2.739 1.931 4.532 9.113 2.934 12.974 3.538.459.071 1.536.131 1.803.611.565 1.004 1.105 9.526 1.68 11.287 1.229 3.742 6.068 3.172 9.203 3.283 1.191.042 5.481.135 6.719 1.127.433.344.399 1.45.442 1.935.11 1.296.119 2.611.11 3.912-.004 1.411-.038 2.824-.043 4.236 0 .9.175 2.27.587 3.078.63 1.242 1.944 2.037 3.224 2.364 4.036 1.029 6.456-2.271 9.097-4.593l.897-.795c1.318-1.169 2.624-2.33 3.976-3.475 10.143-8.582 31.38-28.109 44.069-39.77l4.15-3.818a385.757 385.757 0 0 0 5.494-5.12c.302-.289.638-.578.978-.88 1.42-1.246 3.032-2.658 3.423-4.572.596-2.943.813-6.337.656-10.084zM36.335 67.934c-1.36-.324-2.789-.401-4.167-.473-1.246-.064-2.433-.124-3.568-.353.179-.214 6.996-6.2 11.461-10.429 2.207-2.083 4.342-4.099 5.902-5.541l6.256-5.778c10.112-9.357 25.396-23.495 31.613-28.952a96.024 96.024 0 0 0 1.629-1.479c1.365-1.267 2.658-2.458 4.227-3.495.613-.4 1.153-.494 1.906-.625l.395-.073c1.102-.204 2.211-.289 3.245-.349a31.726 31.726 0 0 0 1.922-.191 32.844 32.844 0 0 1 1.718-.161L36.94 68.125a5.02 5.02 0 0 0-.605-.191zm10.011 14.474c-.259-.025-.655-.042-1.127-.063-1.208-.055-3.036-.132-4.193-.46-.905-.259-1.008-.884-1.012-.888-.302-2.53-.562-7.374-.417-8.863a3.774 3.774 0 0 0-.081-1.208l63.661-59.705c.038.034.081.055.119.089 3.189 2.939 11.618 10.916 13.919 13.493L53.184 83.497c-2.045-.493-4.283-.851-6.838-1.089zm73.45-43.35c-.17 1.803-2.003 3.428-3.479 4.737l-3.717 3.352c-11.826 10.69-47.812 43.23-54.433 49.712-.863.851-1.225.876-1.259.766-.145-1.085-.2-2.942-.255-4.907-.077-2.671-.157-5.418-.48-6.796l62.738-57.507.013.195.017.327c.068 1.165.195 2.305.327 3.453.123 1.105.251 2.22.319 3.368.025.37.063.757.106 1.145.082.735.167 1.491.103 2.155z" fill="#757f3f"/></g></g></g></svg>