<svg id="レイヤー_1" xmlns="http://www.w3.org/2000/svg" xmlns:xlink="http://www.w3.org/1999/xlink" viewBox="0 0 128 128"><g><g><path d="M3.305 113.79c-.456 4.095-2.056 11.562-2.068 11.631-.203.929.731 1.857 1.66 1.66.073-.009 7.539-1.608 11.634-2.073 7.316-.826 21.08-4.284 26.237-11.957 3.733-5.558 4.172-8.826 4.521-11.45.292-2.228.498-3.836 2.641-6.425a1.395 1.395 0 0 0-.082-1.876L35.017 80.474a1.412 1.412 0 0 0-1.884-.095c-2.584 2.143-4.189 2.357-6.417 2.65-2.632.344-5.901.782-11.453 4.516-7.675 5.153-11.124 18.926-11.958 26.245z" fill="#fcc21b"/></g><g><g><path d="M33.593 86.211l8.512 8.518c-1.337 2.399-1.6 4.396-1.836 6.21-.31 2.314-.628 4.705-3.703 9.291-3.837 5.703-15.622 8.955-22.603 9.746-1.897.215-4.421.646-6.692 1.075.427-2.271.857-4.792 1.067-6.684.796-6.994 4.052-18.787 9.75-22.616 4.577-3.079 6.973-3.397 9.295-3.698 1.819-.241 3.819-.508 6.21-1.842m.439-6.149c-.318 0-.637.112-.899.317-2.584 2.143-4.189 2.357-6.417 2.65-2.632.344-5.901.782-11.453 4.516-7.675 5.153-11.124 18.926-11.958 26.245-.456 4.095-2.056 11.562-2.068 11.631-.185.843.572 1.686 1.406 1.686.086 0 .168-.008.254-.025.073-.009 7.539-1.608 11.634-2.073 7.316-.826 21.08-4.284 26.237-11.957 3.733-5.558 4.172-8.826 4.521-11.45.292-2.228.498-3.836 2.641-6.425a1.395 1.395 0 0 0-.082-1.876L35.017 80.474a1.374 1.374 0 0 0-.985-.412z" fill="#2f2f2f"/><path d="M20.505 100.337a5.295 5.295 0 0 1 7.475-.01 5.288 5.288 0 0 1 0 7.484 5.286 5.286 0 0 1-7.475-7.474z" fill="#2f2f2f"/><g><path d="M20.664 105.008L1.498 124.165c-.159.765-.262 1.238-.262 1.256-.203.929.731 1.857 1.66 1.66.012 0 .495-.104 1.26-.258l19.157-19.166-2.649-2.649z" fill="#2f2f2f"/></g></g><g><path d="M60.325 44.13l23.961 23.656-32.46 33.488s-8.56-4.018-15.532-10.813c-6.972-6.787-8.77-13.488-8.77-13.488L60.325 44.13z" fill="#2f2f2f"/><g><defs><path id="SVGID_1_" d="M64.996 63.364c7.433 7.338 14.654 12.068 16.125 10.581l28.344-28.715c12.357-12.524 23.549-30.356 13.338-40.439-10.211-10.072-27.661 1.102-40.259 13.867L54.196 47.381c-1.467 1.489 3.376 8.653 10.8 15.983z"/></defs><use xlink:href="#SVGID_1_" overflow="visible" fill="#2f2f2f"/><clipPath id="SVGID_2_"><use xlink:href="#SVGID_1_" overflow="visible"/></clipPath><g clip-path="url(#SVGID_2_)"><defs><path id="SVGID_3_" d="M84.11 59.872l32.839-33.282c3.833 2.821 6.791 4.19 7.673 3.294l4.413-4.482c-1.02 1.032-4.817-.945-9.527-4.705l-2.624-2.194a91.311 91.311 0 0 1-3.965-3.689C105.491 7.476 100.652.319 102.11-1.177l-4.413 4.481c-1.462 1.479 3.376 8.645 10.804 15.974.546.543 1.097 1.066 1.639 1.583L77.306 54.143a108.897 108.897 0 0 1-1.647-1.583c-7.428-7.329-12.275-14.495-10.8-15.983L60.45 41.05c-1.475 1.497 3.372 8.654 10.792 15.982a62.291 62.291 0 0 0 1.652 1.584l-5.618 5.694 6.817 5.712 5.604-5.678c3.828 2.813 6.787 4.172 7.669 3.278l4.418-4.474c-.878.895-3.846-.471-7.674-3.276z"/></defs><use xlink:href="#SVGID_3_" overflow="visible" fill="#fcc21b"/><clipPath id="SVGID_4_"><use xlink:href="#SVGID_3_" overflow="visible"/></clipPath></g></g></g></g></g></svg>