<svg id="レイヤー_1" xmlns="http://www.w3.org/2000/svg" viewBox="0 0 128 128"><path d="M105.724 16.062c-3.084-3.088-8.126-3.083-11.211 0L69.605 40.969c-3.083 3.083-8.125 3.083-11.209 0L33.487 16.066c-3.083-3.083-8.125-3.083-11.209 0l-6.213 6.207c-3.083 3.088-3.083 8.13 0 11.213L40.97 58.392c3.083 3.083 3.083 8.131 0 11.214L16.06 94.513c-3.084 3.083-3.084 8.125 0 11.214l6.218 6.216c3.084 3.083 8.126 3.078 11.209 0l24.911-24.911c3.084-3.083 8.126-3.083 11.21 0l24.907 24.911c3.085 3.078 8.127 3.083 11.211 0l6.21-6.216c3.083-3.089 3.083-8.131 0-11.214L87.031 69.611c-3.085-3.083-3.085-8.13 0-11.213l24.911-24.912c3.083-3.083 3.083-8.125 0-11.213l-6.218-6.211z" fill="#757f3f"/></svg>