<svg id="レイヤー_1" xmlns="http://www.w3.org/2000/svg" viewBox="0 0 128 128"><g><path d="M19.422 44.803c11.916-8.434 19.303-18.142 23.339-24.639 4.036 6.496 11.424 16.205 23.337 24.639-11.913 8.426-19.302 18.135-23.337 24.635-4.036-6.5-11.424-16.209-23.339-24.635z" fill="#fcc21b"/><path d="M96.204 81.839c-2.504-3.158-6.54-7.359-12.515-11.23 5.975-3.871 10.011-8.071 12.515-11.229 2.502 3.158 6.538 7.358 12.513 11.229-5.975 3.87-10.011 8.072-12.513 11.23z" fill="#fcc21b"/><path d="M63.712 110.399a47.098 47.098 0 0 0-9.562-10.301 47.23 47.23 0 0 0 9.562-10.31 47.195 47.195 0 0 0 9.561 10.31 47.113 47.113 0 0 0-9.561 10.301z" fill="#fcc21b"/><g fill="#f79329"><path d="M46.701 80.072c.077-.192 8.093-18.859 29.4-31.61l6.119-3.659-6.119-3.667C54.793 28.39 46.778 9.718 46.705 9.538L42.784.083 38.821 9.53c-.077.188-8.092 18.86-29.402 31.606l-6.121 3.667 6.121 3.659c21.31 12.751 29.324 31.418 29.402 31.61l3.917 9.442 3.963-9.442zM19.422 44.803c11.916-8.434 19.303-18.142 23.339-24.639 4.036 6.496 11.424 16.205 23.337 24.639-11.913 8.426-19.302 18.135-23.337 24.635-4.036-6.5-11.424-16.209-23.339-24.635z"/><path d="M117.924 67.263C104.6 60.679 99.581 51.129 99.541 51.054l-3.308-6.563-3.359 6.547c-.05.092-5.071 9.642-18.395 16.226l-6.777 3.346 6.777 3.347c13.29 6.567 18.318 16.084 18.393 16.226l3.298 6.547 3.363-6.547c.048-.092 5.066-9.642 18.391-16.226l6.777-3.347-6.777-3.347zm-21.72 14.576c-2.504-3.158-6.54-7.359-12.515-11.23 5.975-3.871 10.011-8.071 12.515-11.229 2.502 3.158 6.538 7.358 12.513 11.229-5.975 3.87-10.011 8.072-12.513 11.23z"/><path d="M67.177 80.822l-3.434-8.542-3.492 8.533c-.037.092-4.025 9.609-14.54 16.109l-5.14 3.176 5.14 3.175c10.465 6.467 14.461 15.918 14.54 16.109l3.43 8.534 3.492-8.534c.037-.096 4.025-9.609 14.538-16.109l5.138-3.175-5.138-3.176c-10.513-6.499-14.501-16.017-14.534-16.1zm-3.465 29.577a47.098 47.098 0 0 0-9.562-10.301 47.23 47.23 0 0 0 9.562-10.31 47.195 47.195 0 0 0 9.561 10.31 47.113 47.113 0 0 0-9.561 10.301z"/></g></g></svg>