<svg id="レイヤー_1" xmlns="http://www.w3.org/2000/svg" viewBox="0 0 128 128"><path d="M115.694 56.035c-3.193 0-29.68 3.033-43.734 4.667 11.093-8.779 31.962-25.366 34.225-27.63 7.104-7.108 4.64-11.698 2.537-13.8-3.479-3.479-8.546-2.717-13.8 2.542-2.263 2.259-18.845 23.128-27.625 34.221 1.634-14.055 4.667-40.536 4.667-43.73 0-10.056-4.989-11.557-7.963-11.557S56.04 2.249 56.04 12.305c0 3.194 3.029 29.686 4.663 43.734-8.779-11.093-25.366-31.962-27.629-34.225-5.26-5.259-10.322-6.022-13.801-2.538-2.138 2.139-2.712 4.938-1.606 7.885.698 1.873 2.097 3.864 4.149 5.917 2.258 2.258 23.127 18.845 34.225 27.624-14.053-1.634-40.54-4.667-43.739-4.667C2.251 56.035.75 61.028.75 64.002c0 2.974 1.501 7.958 11.552 7.958 3.199 0 29.681-3.028 43.734-4.662-11.093 8.78-31.961 25.366-34.22 27.629-2.052 2.047-3.451 4.039-4.149 5.912-1.106 2.945-.532 5.745 1.606 7.884 1.418 1.414 3.149 2.166 5.007 2.166 2.717 0 5.673-1.583 8.794-4.703 2.263-2.264 18.85-23.137 27.629-34.226-1.634 14.054-4.663 40.54-4.663 43.739 0 10.052 4.989 11.552 7.963 11.552s7.963-1.5 7.963-11.552c0-3.199-3.034-29.681-4.667-43.734 8.784 11.094 25.366 31.957 27.625 34.221 3.121 3.12 6.081 4.703 8.797 4.703 1.859 0 3.589-.747 5.003-2.166 2.103-2.102 4.567-6.691-2.537-13.796-2.263-2.263-23.132-18.849-34.225-27.629 14.054 1.634 40.541 4.662 43.734 4.662 10.057 0 11.557-4.984 11.557-7.958-.002-2.974-1.502-7.967-11.559-7.967z" fill="#f79329"/></svg>