<svg id="レイヤー_1" xmlns="http://www.w3.org/2000/svg" viewBox="0 0 128 128"><path d="M125.967 62.544c-20.854 0-35.604-2.632-45.384-5.413 4.947-8.885 13.517-21.164 28.266-35.919.286-.281.426-.658.426-1.026a1.46 1.46 0 0 0-2.491-1.035c-14.745 14.745-27.03 23.315-35.916 28.27-2.78-9.78-5.408-24.534-5.408-45.384 0-.807-.653-1.465-1.46-1.465-.807 0-1.46.658-1.46 1.465 0 20.85-2.627 35.596-5.408 45.376-8.886-4.947-21.17-13.518-35.92-28.263a1.457 1.457 0 0 0-2.062 0 1.453 1.453 0 0 0 0 2.061c14.75 14.756 23.32 27.035 28.267 35.92-9.78 2.781-24.529 5.413-45.384 5.413a1.455 1.455 0 1 0 0 2.912c20.854 0 35.604 2.631 45.384 5.411-4.947 8.886-13.521 21.175-28.267 35.921-.285.28-.43.657-.43 1.025 0 .378.145.746.43 1.035.285.281.658.43 1.031.43.373 0 .745-.148 1.03-.43 14.749-14.744 27.034-23.314 35.92-28.271 2.78 9.781 5.408 24.535 5.408 45.394 0 .799.654 1.457 1.46 1.457.807 0 1.46-.658 1.46-1.457 0-20.858 2.627-35.612 5.408-45.394 8.886 4.957 21.17 13.527 35.916 28.271.285.281.658.43 1.035.43.373 0 .745-.148 1.03-.43.286-.289.426-.657.426-1.035 0-.368-.14-.745-.426-1.025C94.104 92.034 85.53 79.753 80.583 70.867c9.78-2.78 24.53-5.411 45.384-5.411a1.456 1.456 0 1 0 0-2.912z" fill="#ed6c30"/></svg>