<svg id="レイヤー_1" xmlns="http://www.w3.org/2000/svg" viewBox="0 0 128 128"><g><path d="M126.011 59.697h-13.457l10.567-10.569c.259-.262.408-.617.408-.981 0-.374-.149-.729-.408-.988l-4.119-4.12a1.403 1.403 0 0 0-1.969 0l-16.655 16.659H74.39L92.768 41.32h23.55c.768 0 1.392-.624 1.392-1.392V34.1c0-.364-.145-.72-.408-.979a1.352 1.352 0 0 0-.984-.414h-14.946l9.52-9.515a1.4 1.4 0 0 0 .409-.982c0-.373-.149-.728-.409-.987l-4.119-4.121a1.407 1.407 0 0 0-1.968 0l-9.516 9.526V11.677c0-.364-.144-.72-.408-.979a1.368 1.368 0 0 0-.984-.412h-5.824c-.768 0-1.392.624-1.392 1.391v23.555L68.302 53.61V27.619l16.655-16.651a1.395 1.395 0 0 0 0-1.969l-4.12-4.12c-.259-.259-.614-.412-.984-.412s-.725.153-.984.412L68.302 15.451V1.989c0-.768-.624-1.393-1.392-1.393h-5.823c-.769 0-1.393.625-1.393 1.393v13.462L49.126 4.879c-.519-.526-1.445-.526-1.968 0l-4.115 4.12a1.395 1.395 0 0 0 0 1.969l16.651 16.651V53.61L41.32 35.231V11.677c0-.767-.625-1.391-1.392-1.391h-5.825c-.37 0-.724.145-.984.412a1.371 1.371 0 0 0-.408.979v14.942l-9.516-9.517a1.408 1.408 0 0 0-1.969 0l-4.119 4.121a1.394 1.394 0 0 0 0 1.969l9.521 9.515H11.683c-.768 0-1.393.623-1.393 1.393v5.828c0 .365.145.721.408.979.259.268.615.412.985.412h23.554L53.61 59.697H27.618l-16.65-16.659a1.403 1.403 0 0 0-1.969 0l-4.119 4.12a1.398 1.398 0 0 0-.408.988c0 .364.144.72.408.981l10.567 10.569H1.989c-.768 0-1.392.626-1.392 1.394v5.819c0 .768.624 1.393 1.392 1.393h13.462L4.879 78.864a1.416 1.416 0 0 0-.408.99c0 .364.144.72.408.979l4.119 4.118c.269.279.629.414.985.414.355 0 .71-.135.984-.414l16.655-16.648H53.61L35.232 86.682H11.683c-.768 0-1.393.623-1.393 1.391l-.004 5.819c0 .374.148.729.408.99a1.4 1.4 0 0 0 .984.403h14.946l-9.516 9.515a1.394 1.394 0 0 0 0 1.969l4.119 4.12c.269.268.625.412.985.412.354 0 .71-.144.984-.412l9.516-9.517v14.951c0 .365.144.721.408.979.26.259.614.414.984.414l5.825-.012c.767 0 1.392-.623 1.392-1.393V92.769l18.374-18.378v25.991l-16.651 16.65a1.395 1.395 0 0 0 0 1.969l4.115 4.121c.264.259.614.402.984.402s.725-.144.984-.402l10.567-10.572v13.462c0 .767.624 1.393 1.393 1.393h5.823c.768 0 1.392-.626 1.392-1.393V112.55l10.567 10.572c.259.259.615.402.984.402s.725-.144.984-.402l4.12-4.121a1.395 1.395 0 0 0 0-1.969l-16.655-16.65V74.381L86.681 92.76v23.553c0 .77.624 1.393 1.392 1.393h5.824c.37 0 .725-.144.984-.402.264-.259.408-.614.408-.99v-14.94l9.521 9.517c.269.268.624.412.983.412.355 0 .71-.144.984-.412l4.115-4.12a1.391 1.391 0 0 0 0-1.968l-9.516-9.515h14.941c.768 0 1.392-.626 1.392-1.394v-5.819c0-.768-.624-1.391-1.392-1.391h-23.55L74.39 68.303h25.988l16.655 16.648c.269.279.629.414.985.414.355 0 .71-.135.984-.414l4.119-4.118c.259-.259.408-.614.408-.979 0-.376-.149-.721-.408-.99l-10.572-10.562h13.462c.769 0 1.392-.625 1.392-1.393V61.09a1.395 1.395 0 0 0-1.392-1.393z" fill="#40c0e7"/></g></svg>