<svg id="レイヤー_1" xmlns="http://www.w3.org/2000/svg" viewBox="0 0 128 128"><g fill="#d7598b"><path d="M63.855 56.216c-4.237.379-8.054 3.971-7.74 8.463.291 4.088 3.372 7.441 7.388 8.025 4.329.627 8.42-2.049 9.338-6.498 1.204-5.824-3.372-10.486-8.986-9.99z"/><path d="M60.957 51.06c2.48 3.223 6.518 1.935 8.151-1.736 1.148-2.598 2.03-5.588 2.71-8.379.644-2.682 1.306-5.357 1.871-8.059.561-2.664 1.045-7.096 1.301-9.812.521-5.439.689-11.221-1.686-16.225C71.477 3.001 67.187.222 63.008.787 46.56 3.02 54.08 31.52 56.626 40.93c.896 3.299 2.327 7.526 4.331 10.13z"/><path d="M73.688 95.112c-.565-2.699-1.227-5.383-1.871-8.057-.68-2.799-1.562-5.791-2.71-8.379-1.633-3.672-5.671-4.969-8.151-1.736-2.004 2.594-3.434 6.83-4.33 10.131-2.546 9.41-10.066 37.902 6.382 40.143 4.179.564 8.469-2.215 10.296-6.07 2.375-5.006 2.206-10.789 1.686-16.217-.256-2.727-.741-7.156-1.302-9.815z"/><path d="M127.212 63.001c-2.233-16.441-30.729-8.924-40.139-6.371-3.3.893-7.533 2.322-10.137 4.324-3.222 2.48-1.928 6.523 1.743 8.148 2.59 1.145 5.582 2.029 8.376 2.709 2.679.652 5.357 1.314 8.059 1.881 2.661.555 7.092 1.041 9.814 1.297 5.433.521 11.214.689 16.218-1.686 3.855-1.825 6.635-6.116 6.066-10.302z"/><path d="M51.062 60.954c-2.599-2.002-6.835-3.432-10.137-4.324-9.404-2.553-37.9-10.07-40.137 6.371-.565 4.186 2.211 8.477 6.068 10.303 5.004 2.375 10.785 2.207 16.219 1.686 2.722-.256 7.153-.742 9.814-1.297 2.702-.566 5.38-1.229 8.059-1.881 2.794-.68 5.786-1.564 8.376-2.709 3.671-1.625 4.964-5.668 1.738-8.149z"/><path d="M82.36 49.417c.371 0 .741-.113 1.059-.342 2.78-2.021 27.217-19.824 29.039-21.652.843-.838 2.374-2.559 3.142-4.643.962-2.611.455-5.092-1.43-6.973-1.293-1.289-2.9-1.976-4.656-1.976-2.815 0-5.583 1.766-7.238 3.414-1.827 1.838-19.387 26.516-21.386 29.332a1.8 1.8 0 0 0 1.47 2.84z"/><path d="M15.544 27.423c1.823 1.828 26.259 19.631 29.039 21.652a1.806 1.806 0 0 0 2.326-.176 1.8 1.8 0 0 0 .199-2.322c-1.995-2.816-19.555-27.494-21.386-29.332-1.651-1.648-4.418-3.414-7.233-3.414-1.756 0-3.367.688-4.656 1.976-1.885 1.881-2.392 4.361-1.43 6.973.767 2.084 2.298 3.805 3.141 4.643z"/><path d="M112.459 100.567C110.637 98.749 86.2 80.946 83.42 78.924a1.807 1.807 0 0 0-2.326.176 1.799 1.799 0 0 0-.203 2.322c1.999 2.807 19.559 27.494 21.386 29.33 1.655 1.65 4.422 3.408 7.238 3.408 1.756 0 3.363-.68 4.656-1.969 1.884-1.889 2.392-4.361 1.43-6.973-.769-2.082-2.3-3.803-3.142-4.651z"/><path d="M44.583 78.925c-2.78 2.021-27.216 19.824-29.039 21.643-.843.848-2.374 2.568-3.142 4.652-.962 2.611-.455 5.084 1.43 6.973 1.289 1.289 2.9 1.969 4.656 1.969 2.815 0 5.582-1.758 7.238-3.408 1.827-1.836 19.387-26.523 21.382-29.33a1.798 1.798 0 0 0-2.525-2.499z"/></g></svg>