<svg id="レイヤー_1" xmlns="http://www.w3.org/2000/svg" viewBox="0 0 128 128"><g><path d="M109.543 93.899a3.563 3.563 0 0 1 0 5.026L98.939 109.54a3.577 3.577 0 0 1-5.03 0L64.003 79.639 34.102 109.54a3.577 3.577 0 0 1-5.03 0l-10.61-10.614a3.565 3.565 0 0 1 0-5.026L48.363 64 18.462 34.098a3.576 3.576 0 0 1 0-5.035l10.609-10.604a3.557 3.557 0 0 1 5.03 0l29.901 29.9 29.9-29.9a3.558 3.558 0 0 1 5.031 0l10.609 10.604a3.574 3.574 0 0 1 0 5.035l-29.9 29.901 29.901 29.9z" fill="#fff"/><g><path d="M123.834.472H4.171A3.705 3.705 0 0 0 .474 4.168V123.83a3.706 3.706 0 0 0 3.697 3.697h119.663a3.701 3.701 0 0 0 3.691-3.697V4.168a3.7 3.7 0 0 0-3.691-3.696zm-14.291 93.427a3.563 3.563 0 0 1 0 5.026L98.939 109.54a3.577 3.577 0 0 1-5.03 0L64.003 79.639 34.102 109.54a3.577 3.577 0 0 1-5.03 0l-10.61-10.614a3.565 3.565 0 0 1 0-5.026L48.363 64 18.462 34.098a3.576 3.576 0 0 1 0-5.035l10.609-10.604a3.557 3.557 0 0 1 5.03 0l29.901 29.9 29.9-29.9a3.558 3.558 0 0 1 5.031 0l10.609 10.604a3.574 3.574 0 0 1 0 5.035l-29.9 29.901 29.901 29.9z" fill="#ed6c30"/></g></g></svg>