<svg id="レイヤー_1" xmlns="http://www.w3.org/2000/svg" viewBox="0 0 128 128"><g><path d="M49.144 82.907v-5.759c0-2.649.271-5.043.813-7.195a24.314 24.314 0 0 1 2.49-6.147c1.114-1.942 2.552-3.835 4.315-5.682 1.765-1.835 3.893-3.743 6.378-5.713 2.184-1.712 4.02-3.241 5.528-4.591 1.498-1.347 2.721-2.687 3.651-4.005.936-1.325 1.611-2.711 2.025-4.163.414-1.453.624-3.141.624-5.059 0-2.955-1.003-5.395-2.997-7.312-2-1.919-5.042-2.881-9.14-2.881-3.579 0-7.431.752-11.558 2.257-4.116 1.508-8.387 3.349-12.795 5.528l-7.932-17.194a75.013 75.013 0 0 1 7.272-3.697 79.886 79.886 0 0 1 8.167-3.109 67.037 67.037 0 0 1 8.597-2.142 48.799 48.799 0 0 1 8.557-.778c5.293 0 10.06.64 14.313 1.908 4.256 1.272 7.861 3.126 10.817 5.558a24.606 24.606 0 0 1 6.806 8.873c1.581 3.472 2.373 7.441 2.373 11.9 0 3.268-.362 6.188-1.089 8.755a26.5 26.5 0 0 1-3.227 7.156c-1.433 2.203-3.217 4.331-5.37 6.377-2.153 2.05-4.659 4.214-7.508 6.494-2.178 1.713-3.953 3.201-5.328 4.475-1.376 1.273-2.45 2.476-3.228 3.616-.782 1.146-1.309 2.321-1.596 3.539-.286 1.223-.43 2.659-.43 4.32v4.67H49.144zm-2.573 26.604c0-2.44.354-4.5 1.054-6.188.701-1.684 1.673-3.044 2.916-4.081 1.242-1.038 2.71-1.791 4.397-2.256 1.683-.465 3.482-.701 5.405-.701 1.816 0 3.539.236 5.176.701a11.657 11.657 0 0 1 4.316 2.256c1.242 1.037 2.229 2.397 2.955 4.081.727 1.688 1.09 3.747 1.09 6.188 0 2.331-.363 4.327-1.09 5.988-.726 1.662-1.713 3.033-2.955 4.121a11.517 11.517 0 0 1-4.316 2.373c-1.637.498-3.359.742-5.176.742-1.923 0-3.723-.244-5.405-.742-1.687-.49-3.155-1.283-4.397-2.373-1.243-1.088-2.215-2.459-2.916-4.121-.701-1.661-1.054-3.657-1.054-5.988z" fill="#40c0e7"/></g></svg>