<svg id="レイヤー_1" xmlns="http://www.w3.org/2000/svg" viewBox="0 0 128 128"><g fill="#40c0e7"><path d="M55.566 74.053h16.866c.614 0 1.126-.408 1.161-.92l4.603-66.156a.885.885 0 0 0-.317-.725 1.272 1.272 0 0 0-.843-.309H50.959c-.317 0-.624.113-.844.309a.894.894 0 0 0-.312.725l4.602 66.156c.037.512.543.92 1.161.92z"/><path d="M50.345 108.832c0-2.438.353-4.502 1.053-6.189.701-1.688 1.673-3.049 2.916-4.082 1.242-1.043 2.71-1.791 4.397-2.262 1.682-.459 3.482-.695 5.406-.695 1.815 0 3.538.236 5.175.695 1.632.471 3.069 1.219 4.316 2.262 1.243 1.033 2.23 2.395 2.956 4.082.726 1.688 1.089 3.752 1.089 6.189 0 2.33-.363 4.324-1.089 5.982-.726 1.666-1.713 3.035-2.956 4.131-1.248 1.086-2.685 1.871-4.316 2.373-1.637.49-3.36.736-5.175.736-1.923 0-3.724-.246-5.406-.736-1.688-.502-3.156-1.287-4.397-2.373-1.243-1.096-2.215-2.465-2.916-4.131-.7-1.658-1.053-3.652-1.053-5.982z"/></g></svg>