<svg id="レイヤー_1" xmlns="http://www.w3.org/2000/svg" viewBox="0 0 128 128"><g><circle cx="63.367" cy="105.344" r="17.989" fill-rule="evenodd" clip-rule="evenodd" fill="#d7598b"/><path d="M99.563 10.441c-.467-.37-6.922-5.016-15.359-4.746-6.824.218-13.452 3.129-18.302 7.655-.209.195-1.02 1.168-2.332 1.445-.412.087-.825.077-.825.077s-.343-.007-.683-.077c-1.242-.257-2.332-1.445-2.332-1.445-4.849-4.526-11.478-7.437-18.302-7.655-8.437-.27-14.892 4.376-15.359 4.746-8.624 6.837-8.646 17.967-8.65 19.882-.024 13.015 9.451 22.224 11.931 24.635 6.371 6.193 18.661 13.732 22.695 17.361a642.726 642.726 0 0 1 4.073 3.685c.105.107.842.857 1.867 1.819 1.436 1.347 2.02 1.779 2.693 2.146.816.444 1.366.7 2.098.717v.007c.014 0 .027-.003.041-.004.014 0 .026.004.041.004v-.007c.731-.018 1.281-.273 2.098-.717.673-.366 1.257-.799 2.693-2.146a64.942 64.942 0 0 0 1.867-1.819s1.211-1.111 4.073-3.685c4.034-3.628 16.324-11.168 22.695-17.361 2.48-2.411 11.955-11.62 11.929-24.634-.003-1.916-.025-13.045-8.65-19.883z" fill="#d7598b"/><path d="M27.167 27.711c-.269 0-.272-.037-.543-.114-1.565-.447-1.787-2.24-1.339-3.805 1.227-4.295 3.264-7.326 5.862-9.236 3.592-2.64 7.319-3.091 9.866-2.978 1.626.072 2.861.919 2.789 2.546-.071 1.622-1.365 2.041-2.948 2.298-.551.089-4.094.401-7.002 2.933-1.548 1.348-3.378 3.255-4.453 6.019-.487 1.254-.95 2.337-2.232 2.337z" fill="#fff"/></g></svg>