<svg id="レイヤー_1" xmlns="http://www.w3.org/2000/svg" viewBox="0 0 128 128"><path d="M90.381 20.114c-11.868 0-22.043 6.517-26.381 16.068-4.338-9.551-14.514-16.068-26.381-16.068-15.776 0-28.615 11.83-28.615 26.367 0 20.219 14.851 29.824 29.215 39.111 9.096 5.881 18.501 11.959 23.66 20.66a2.136 2.136 0 0 0 2.07 1.633h.1c.763 0 1.438-.449 1.821-1.107.071-.121.13-.25.171-.383 5.142-8.777 14.593-14.889 23.739-20.803 14.363-9.287 29.215-18.893 29.215-39.111.001-14.537-12.838-26.367-28.614-26.367z" fill="#d7598b"/></svg>