<svg id="レイヤー_1" xmlns="http://www.w3.org/2000/svg" viewBox="0 0 128 128"><path d="M127.348 59.605c0-4.355-3.564-7.919-7.92-7.919H84.229c-4.355 0-7.919-3.563-7.919-7.919V8.574c0-4.355-3.564-7.919-7.919-7.919h-8.782c-4.355 0-7.919 3.563-7.919 7.919v35.193c0 4.355-3.564 7.919-7.919 7.919H8.572c-4.356 0-7.919 3.563-7.919 7.919v8.787c0 4.355 3.563 7.919 7.919 7.919h35.199c4.355 0 7.919 3.563 7.919 7.919v35.194c0 4.355 3.564 7.919 7.919 7.919h8.782c4.355 0 7.919-3.564 7.919-7.919V84.23c0-4.355 3.563-7.919 7.919-7.919h35.199c4.355 0 7.92-3.563 7.92-7.919v-8.787z" fill="#ed6c30"/></svg>