<svg id="レイヤー_1" xmlns="http://www.w3.org/2000/svg" viewBox="0 0 128 128"><g fill="#757f3f"><path d="M64.002 32.425c8.457 0 15.31-6.854 15.31-15.31 0-8.45-6.853-15.309-15.31-15.309s-15.31 6.858-15.31 15.309c.001 8.456 6.854 15.31 15.31 15.31z"/><path d="M64.002 95.575c-8.457 0-15.31 6.858-15.31 15.31 0 8.457 6.853 15.309 15.31 15.309s15.31-6.852 15.31-15.309c0-8.451-6.853-15.31-15.31-15.31z"/><path d="M8.572 51.693c-4.356 0-7.919 3.562-7.919 7.919v8.782c0 4.355 3.563 7.918 7.919 7.918h110.856c4.355 0 7.92-3.562 7.92-7.918v-8.782c0-4.356-3.564-7.919-7.92-7.919H8.572z"/></g></svg>