<svg id="レイヤー_1" xmlns="http://www.w3.org/2000/svg" viewBox="0 0 128 128"><path d="M64 33.69c-22.918-8.863-44.099-5.059-53.62-2.455v15.057c.199-.084 16.688-6.311 36.84-2.492-8.821 8.316-12.775 19.592-11.063 32.494 1.779 13.434 13.714 23.559 27.932 23.559 14.042 0 25.972-10.125 27.751-23.559 1.716-12.902-2.238-24.178-11.06-32.494 20.135-3.809 36.636 2.412 36.84 2.492V31.231c-9.521-2.599-30.715-6.408-53.62 2.459zm13.597 40.711c-.925 6.938-7.592 11.084-13.684 11.084-5.917 0-12.593-4.146-13.51-11.084C48.928 63.276 53.499 54.874 64 49.399c10.501 5.475 15.071 13.877 13.597 25.002z" fill="#40c0e7"/></svg>