<svg id="レイヤー_1" xmlns="http://www.w3.org/2000/svg" viewBox="0 0 128 128"><path d="M93.66 35.518c-5.163-2.404-16.168-6.647-29.66-6.647-13.497 0-24.506 4.242-29.665 6.643-11.814-4.51-23.135-5.518-32.481-5.102v13.926c4.959-.262 10.613-.066 16.605 1.059-8.408 7.977-12.18 18.768-10.538 31.115 1.704 12.896 13.163 22.617 26.815 22.617 13.475 0 24.927-9.721 26.64-22.617 1.695-12.764-2.417-23.848-11.438-31.891 4.013-1.053 8.817-1.883 14.063-1.883s10.046.83 14.063 1.883c-9.026 8.043-13.139 19.127-11.442 31.891 1.717 12.896 13.167 22.617 26.81 22.617 13.484 0 24.936-9.721 26.644-22.613 1.642-12.352-2.125-23.143-10.542-31.119 6-1.125 11.659-1.32 16.613-1.059V30.412c-9.348-.416-20.673.592-32.487 5.106zM47.628 74.689c-.884 6.617-7.246 10.572-13.063 10.572-5.65 0-12.021-3.955-12.896-10.576-1.413-10.629 2.95-18.654 12.978-23.896 10.022 5.242 14.389 13.268 12.981 23.9zm58.699 0c-.875 6.617-7.246 10.572-13.063 10.572-5.646 0-12.017-3.955-12.896-10.576-1.412-10.629 2.955-18.654 12.98-23.896 10.029 5.242 14.392 13.268 12.979 23.9z" fill="#40c0e7"/></svg>