<svg id="レイヤー_1" xmlns="http://www.w3.org/2000/svg" viewBox="0 0 128 128"><g><path fill="#fcc21b" d="M81.488 75.299l6.916 28.146-24.402-15.441-24.397 15.441 6.922-28.146-21.996-18.264 28.668-2.294L64.002 28.36l10.809 26.381 28.658 2.294z"/><path d="M127.191 49.524a3.262 3.262 0 0 0-2.836-2.272l-41.643-3.318L67.025 5.618A3.265 3.265 0 0 0 64.002 3.6a3.255 3.255 0 0 0-3.016 2.019L45.297 43.934 3.652 47.252a3.294 3.294 0 0 0-2.851 2.272 3.298 3.298 0 0 0 1.031 3.497l31.902 26.49-10.025 40.852a3.257 3.257 0 0 0 1.258 3.419 3.182 3.182 0 0 0 1.896.617c.611 0 1.219-.165 1.748-.501l35.391-22.395 35.387 22.388a3.241 3.241 0 0 0 3.65-.109 3.247 3.247 0 0 0 1.258-3.419L94.271 79.512l31.904-26.502a3.238 3.238 0 0 0 1.016-3.486zM81.488 75.299l6.916 28.146-24.402-15.441-24.396 15.441 6.922-28.146-21.997-18.264 28.668-2.294L64.002 28.36l10.809 26.381 28.658 2.294-21.981 18.264z" fill="#f79329"/></g></svg>