<svg id="レイヤー_1" xmlns="http://www.w3.org/2000/svg" viewBox="0 0 128 128"><path d="M121.087 56.118c-10.708 6.86-15.511 5.763-21.43 2.907-5.919-2.854-14.124-9.379-22.359-9.379-8.236 0-13.607 3.127-20.731 6.756-7.12 3.629-11.384 3.308-17.054-.423-5.665-3.731-12.389-5.661-12.389-5.661-14.363-3.663-25.561 8.85-25.565 8.858l6.052 12.896c4.647-3.01 10.846-6.666 19.513-3.895 0 0 4.79 1.77 10.57 5.318 5.012 3.077 11.753 4.394 18.873.765 7.124-3.629 12.496-6.75 20.731-6.75 8.235 0 14.924 5.425 20.718 8.529 6.609 3.539 15.795 3.819 28.424-4.963l-5.353-14.958z" fill="#40c0e7"/></svg>