<svg id="レイヤー_1" xmlns="http://www.w3.org/2000/svg" viewBox="0 0 128 128"><path d="M116.855 105.585C83.943 76.281 84.248 44.112 84.377 30.381c.009-1.146.019-2.153.005-3.009-.051-3.752-.73-8.296-5.528-10.172-3.794-1.48-7.682-.028-11.795 4.469L52.333 37.8l-4.816-18.284c-1.202-4.225-2.871-6.323-5.953-7.488-2.972-1.127-7.271.259-10.372 3.301L11.115 34.194a1.185 1.185 0 0 0-.125 1.581l10.163 13.218c.208.269.518.435.856.463.342.037.67-.098.91-.333l10.316-10.016 5.001 21.002a9.423 9.423 0 0 0 6.975 7.007c3.425.818 7.122-.365 9.415-3.031l10.649-12.402c1.668 21.262 9.036 50.107 33.703 72.376a1.188 1.188 0 0 0 1.641-.05l16.301-16.714c.222-.23.347-.545.333-.869a1.154 1.154 0 0 0-.398-.841z" fill="#fcc21b"/></svg>